<svg id="Layer_1" data-name="Layer 1" xmlns="http://www.w3.org/2000/svg" xmlns:xlink="http://www.w3.org/1999/xlink" viewBox="0 0 654 250"><defs><style>.cls-1,.cls-3,.cls-4{fill:none;}.cls-2{clip-path:url(#clip-path);}.cls-3{stroke:#2681d6;}.cls-3,.cls-4{stroke-miterlimit:10;}.cls-4{stroke:#8e1838;stroke-width:2.6px;}.cls-5{fill:#8e1838;}.cls-6{opacity:0.15;}.cls-7{fill:#fff;}</style><clipPath id="clip-path"><rect class="cls-1" x="-2000.65" width="1920" height="142.18"/></clipPath></defs><g class="cls-2"><path class="cls-3" d="M-80.65,334.28l54.42-54.41h0L182.47,71.16-26.23-137.55h0L-80.65-192-343.77,71.16ZM-273.51,34.85l36.31,36.31-36.31,36.31-36.31-36.31Zm385.73,72.62L75.9,71.16l36.32-36.31,36.31,36.31ZM-43.21,262.89h0l-37.44,37.45-85.07-85.07,68.22-68.21L-167.76,76.8l-51.05,51.05L-183.69,163l17-17-18.15-18.16,17.11-17.11,36.31,36.32-51.24,51.23-73.85-73.84,53.29-53.29-53.29-53.28L-182.69-56l51.24,51.24-36.31,36.31-17.11-17.11,18.15-18.16-17-17-35.12,35.13,51.05,51.05L-97.5-4.73l-68.22-68.22,47.63-47.62h0L-80.65-158l37.44,37.45h0L4.42-72.95-63.79-4.73,6.47,65.52l51.05-51L22.39-20.66l-17,17L23.58,14.47,6.47,31.58-29.85-4.73,21.39-56,95.24,17.88,42,71.16l53.28,53.29L21.39,198.29l-51.24-51.23L6.47,110.74l17.11,17.11L5.42,146l17,17,35.13-35.13L6.47,76.8l-70.26,70.26L4.42,215.27Z"/></g><polygon class="cls-4" points="11.55 125 125.75 239.2 528.83 239.2 643.03 125 528.83 10.8 125.75 10.8 11.55 125"/><path class="cls-5" d="M345.47,83.7h-4.1V81.28h11.17V83.7h-4.11V94.09h-3Z"/><path class="cls-5" d="M364.05,91.72v2.37h-9.92V81.28h9.68v2.38h-6.74v2.78H363v2.31h-5.95v3Z"/><path class="cls-5" d="M374.85,91.35h-6l-1.14,2.74h-3l5.72-12.81h2.92l5.73,12.81H376Zm-.94-2.25-2-4.91-2,4.91Z"/><path class="cls-5" d="M382.84,93.46a6.22,6.22,0,0,1-2.49-2.36,6.56,6.56,0,0,1,2.49-9.19,7.92,7.92,0,0,1,6.57-.26,6.09,6.09,0,0,1,2.26,1.68l-1.91,1.76a4.07,4.07,0,0,0-3.22-1.5,4.24,4.24,0,0,0-2.12.52A3.73,3.73,0,0,0,383,85.57a4.58,4.58,0,0,0,0,4.24,3.79,3.79,0,0,0,1.46,1.46,4.35,4.35,0,0,0,2.12.52,4.06,4.06,0,0,0,3.22-1.52L391.67,92a6,6,0,0,1-2.27,1.7,7.53,7.53,0,0,1-3,.58A7.3,7.3,0,0,1,382.84,93.46Z"/><path class="cls-5" d="M405.42,81.28V94.09h-3V88.84h-5.82v5.25h-3V81.28h3v5h5.82v-5Z"/><path class="cls-5" d="M418.38,91.72v2.37h-9.93V81.28h9.69v2.38H411.4v2.78h6v2.31h-6v3Z"/><path class="cls-5" d="M428.9,94.09l-2.47-3.56H423.7v3.56h-3V81.28h5.54a7.11,7.11,0,0,1,3,.57,4.39,4.39,0,0,1,1.93,1.61,4.46,4.46,0,0,1,.68,2.47,4.33,4.33,0,0,1-.69,2.46,4.41,4.41,0,0,1-2,1.59l2.87,4.11Zm-.75-9.82a3.15,3.15,0,0,0-2-.57H423.7v4.46h2.42a3.09,3.09,0,0,0,2-.58,2.33,2.33,0,0,0,0-3.31Z"/><path class="cls-5" d="M435.46,93.9a6.91,6.91,0,0,1-2.28-1.07l1-2.23a7,7,0,0,0,2,1,7.42,7.42,0,0,0,2.27.36,3.6,3.6,0,0,0,1.86-.37,1.12,1.12,0,0,0,.61-1,1,1,0,0,0-.36-.76,2.7,2.7,0,0,0-.91-.48c-.38-.12-.88-.26-1.51-.41a20.69,20.69,0,0,1-2.4-.69,3.79,3.79,0,0,1-1.6-1.12,3,3,0,0,1-.67-2,3.58,3.58,0,0,1,.6-2,4.18,4.18,0,0,1,1.82-1.44,7.56,7.56,0,0,1,3-.53,9.62,9.62,0,0,1,2.4.3,6.89,6.89,0,0,1,2.05.84l-.92,2.25a7.16,7.16,0,0,0-3.55-1,3.42,3.42,0,0,0-1.84.4,1.23,1.23,0,0,0-.59,1.07,1,1,0,0,0,.68,1,11.36,11.36,0,0,0,2.1.63,21.93,21.93,0,0,1,2.4.69,4,4,0,0,1,1.6,1.1,3,3,0,0,1,.67,2,3.53,3.53,0,0,1-.62,2,4.1,4.1,0,0,1-1.84,1.43,7.36,7.36,0,0,1-3,.53A10.34,10.34,0,0,1,435.46,93.9Z"/><path class="cls-5" d="M459.48,91.35h-5.94l-1.14,2.74h-3l5.71-12.81H458l5.73,12.81h-3.11Zm-.93-2.25-2-4.91-2,4.91Z"/><path class="cls-5" d="M476.82,81.28V94.09h-2.44L468,86.32v7.77h-2.93V81.28h2.45l6.37,7.78V81.28Z"/><path class="cls-5" d="M479.86,81.28h5.82a8.21,8.21,0,0,1,3.69.8,6.08,6.08,0,0,1,2.49,2.24,6.89,6.89,0,0,1,0,6.74,6.08,6.08,0,0,1-2.49,2.24,8.21,8.21,0,0,1-3.69.79h-5.82Zm5.67,10.38a4.33,4.33,0,0,0,3.07-1.07,4.26,4.26,0,0,0,0-5.8,4.29,4.29,0,0,0-3.07-1.07h-2.71v7.94Z"/><path class="cls-5" d="M260.65,115.87a6.92,6.92,0,0,1-2.28-1.07l1-2.24a6.53,6.53,0,0,0,2,1,7.13,7.13,0,0,0,2.26.37,3.51,3.51,0,0,0,1.87-.38,1.12,1.12,0,0,0,.61-1,.94.94,0,0,0-.36-.76,2.67,2.67,0,0,0-.92-.49c-.37-.12-.87-.25-1.51-.4a19,19,0,0,1-2.39-.7,3.89,3.89,0,0,1-1.61-1.11,3,3,0,0,1-.66-2,3.55,3.55,0,0,1,.6-2,4,4,0,0,1,1.82-1.44,7.32,7.32,0,0,1,3-.53,10.09,10.09,0,0,1,2.39.29,7.21,7.21,0,0,1,2.05.84l-.91,2.25a7.14,7.14,0,0,0-3.55-1,3.3,3.3,0,0,0-1.84.4,1.23,1.23,0,0,0-.6,1.06,1,1,0,0,0,.69,1,11.36,11.36,0,0,0,2.1.63,20.82,20.82,0,0,1,2.39.7,3.87,3.87,0,0,1,1.6,1.1,2.91,2.91,0,0,1,.67,2,3.47,3.47,0,0,1-.61,2,4.12,4.12,0,0,1-1.84,1.44,7.56,7.56,0,0,1-3,.53A10.6,10.6,0,0,1,260.65,115.87Z"/><path class="cls-5" d="M273.64,115.43a6.4,6.4,0,0,1-2.48-2.36,6.86,6.86,0,0,1,0-6.83,6.33,6.33,0,0,1,2.48-2.36,7.41,7.41,0,0,1,3.57-.85,7.52,7.52,0,0,1,3,.58,6,6,0,0,1,2.26,1.69l-1.91,1.75a4.08,4.08,0,0,0-3.22-1.5,4.25,4.25,0,0,0-2.12.53,3.7,3.7,0,0,0-1.46,1.45,4.6,4.6,0,0,0,0,4.25,3.77,3.77,0,0,0,1.46,1.45,4.24,4.24,0,0,0,2.12.52,4,4,0,0,0,3.22-1.52l1.91,1.76a5.89,5.89,0,0,1-2.27,1.7,7.57,7.57,0,0,1-3,.59A7.36,7.36,0,0,1,273.64,115.43Z"/><path class="cls-5" d="M296.22,103.25v12.81h-3v-5.25h-5.82v5.25h-3V103.25h3v5h5.82v-5Z"/><path class="cls-5" d="M301.87,115.42a6.37,6.37,0,0,1-2.51-2.37,6.85,6.85,0,0,1,0-6.79,6.37,6.37,0,0,1,2.51-2.37,7.42,7.42,0,0,1,3.6-.86,7.32,7.32,0,0,1,3.58.86,6.42,6.42,0,0,1,3.43,5.76,6.44,6.44,0,0,1-.92,3.4,6.37,6.37,0,0,1-2.51,2.37,7.43,7.43,0,0,1-3.58.86A7.54,7.54,0,0,1,301.87,115.42Zm5.65-2.19a3.69,3.69,0,0,0,1.43-1.45,4.53,4.53,0,0,0,0-4.25,3.63,3.63,0,0,0-1.43-1.45,4.23,4.23,0,0,0-4.1,0,3.72,3.72,0,0,0-1.44,1.45,4.6,4.6,0,0,0,0,4.25,3.78,3.78,0,0,0,1.44,1.45,4.3,4.3,0,0,0,4.1,0Z"/><path class="cls-5" d="M317.32,115.42a6.3,6.3,0,0,1-2.51-2.37,6.79,6.79,0,0,1,0-6.79,6.3,6.3,0,0,1,2.51-2.37,7.42,7.42,0,0,1,3.6-.86,7.32,7.32,0,0,1,3.58.86,6.53,6.53,0,0,1,0,11.53,7.43,7.43,0,0,1-3.58.86A7.54,7.54,0,0,1,317.32,115.42Zm5.64-2.19a3.72,3.72,0,0,0,1.44-1.45,4.6,4.6,0,0,0,0-4.25,3.65,3.65,0,0,0-1.44-1.45,4,4,0,0,0-2-.53,4.08,4.08,0,0,0-2.06.53,3.69,3.69,0,0,0-1.43,1.45,4.6,4.6,0,0,0,0,4.25,3.76,3.76,0,0,0,1.43,1.45,4.07,4.07,0,0,0,2.06.52A4,4,0,0,0,323,113.23Z"/><path class="cls-5" d="M330.16,103.25h3v10.39h6.43v2.42h-9.39Z"/><path class="cls-5" d="M349,115.43a6.4,6.4,0,0,1-2.48-2.36,6.86,6.86,0,0,1,0-6.83,6.33,6.33,0,0,1,2.48-2.36,7.4,7.4,0,0,1,3.56-.85,7.53,7.53,0,0,1,3,.58,6,6,0,0,1,2.26,1.69l-1.91,1.75a4.08,4.08,0,0,0-3.22-1.5,4.25,4.25,0,0,0-2.12.53,3.7,3.7,0,0,0-1.46,1.45,4.6,4.6,0,0,0,0,4.25,3.77,3.77,0,0,0,1.46,1.45,4.24,4.24,0,0,0,2.12.52,4,4,0,0,0,3.22-1.52l1.91,1.76a5.89,5.89,0,0,1-2.27,1.7,7.57,7.57,0,0,1-3,.59A7.36,7.36,0,0,1,349,115.43Z"/><path class="cls-5" d="M361.12,114.76a5.84,5.84,0,0,1-1.53-4.34v-7.17h3v7.06c0,2.3.95,3.44,2.85,3.44a2.67,2.67,0,0,0,2.13-.83,3.91,3.91,0,0,0,.73-2.61v-7.06h2.93v7.17a6.06,6.06,0,0,1-10.08,4.34Z"/><path class="cls-5" d="M382.29,116.06l-2.47-3.57h-2.73v3.57h-3V103.25h5.54a7.27,7.27,0,0,1,3,.56,4.27,4.27,0,0,1,2.61,4.09,4.17,4.17,0,0,1-2.64,4l2.87,4.12Zm-.75-9.82a3.15,3.15,0,0,0-2-.58h-2.42v4.47h2.42a3.09,3.09,0,0,0,2-.59,2.32,2.32,0,0,0,0-3.3Z"/><path class="cls-5" d="M395.74,116.06l-2.47-3.57h-2.73v3.57h-3V103.25h5.54a7.27,7.27,0,0,1,3,.56,4.36,4.36,0,0,1,1.93,1.62,4.42,4.42,0,0,1,.68,2.47,4.17,4.17,0,0,1-2.64,4l2.88,4.12Zm-.75-9.82a3.13,3.13,0,0,0-2-.58h-2.42v4.47H393a3.07,3.07,0,0,0,2-.59,2.29,2.29,0,0,0,0-3.3Z"/><path class="cls-5" d="M401,103.25h3v12.81h-3Z"/><path class="cls-5" d="M409.63,115.43a6.36,6.36,0,0,1-2.49-2.36,6.86,6.86,0,0,1,0-6.83,6.29,6.29,0,0,1,2.49-2.36,7.35,7.35,0,0,1,3.56-.85,7.52,7.52,0,0,1,3,.58,6,6,0,0,1,2.26,1.69l-1.91,1.75a4.08,4.08,0,0,0-3.22-1.5,4.25,4.25,0,0,0-2.12.53,3.7,3.7,0,0,0-1.46,1.45,4.6,4.6,0,0,0,0,4.25,3.77,3.77,0,0,0,1.46,1.45,4.24,4.24,0,0,0,2.12.52,4,4,0,0,0,3.22-1.52l1.91,1.76a5.89,5.89,0,0,1-2.27,1.7,7.57,7.57,0,0,1-3,.59A7.3,7.3,0,0,1,409.63,115.43Z"/><path class="cls-5" d="M421.76,114.76a5.84,5.84,0,0,1-1.53-4.34v-7.17h3v7.06c0,2.3.95,3.44,2.85,3.44a2.67,2.67,0,0,0,2.13-.83,3.91,3.91,0,0,0,.73-2.61v-7.06h2.93v7.17a6.06,6.06,0,0,1-10.08,4.34Z"/><path class="cls-5" d="M434.77,103.25h3v10.39h6.43v2.42h-9.39Z"/><path class="cls-5" d="M447.07,114.76a5.88,5.88,0,0,1-1.52-4.34v-7.17h3v7.06c0,2.3.95,3.44,2.86,3.44a2.67,2.67,0,0,0,2.12-.83,3.86,3.86,0,0,0,.73-2.61v-7.06h2.93v7.17a6.06,6.06,0,0,1-10.08,4.34Z"/><path class="cls-5" d="M471.74,116.06l0-7.69L468,114.71h-1.34l-3.75-6.17v7.52h-2.78V103.25h2.45l4.8,8,4.72-8h2.44l0,12.81Z"/><path class="cls-5" d="M485.35,115.42a6.3,6.3,0,0,1-2.51-2.37,6.79,6.79,0,0,1,0-6.79,6.3,6.3,0,0,1,2.51-2.37A7.42,7.42,0,0,1,489,103a7.32,7.32,0,0,1,3.58.86,6.53,6.53,0,0,1,0,11.53,7.43,7.43,0,0,1-3.58.86A7.54,7.54,0,0,1,485.35,115.42Zm5.65-2.19a3.76,3.76,0,0,0,1.43-1.45,4.6,4.6,0,0,0,0-4.25,3.69,3.69,0,0,0-1.43-1.45,4.25,4.25,0,0,0-4.11,0,3.76,3.76,0,0,0-1.43,1.45,4.6,4.6,0,0,0,0,4.25,3.83,3.83,0,0,0,1.43,1.45,4.32,4.32,0,0,0,4.11,0Z"/><path class="cls-5" d="M501.15,105.63V109h5.94v2.38h-5.94v4.67h-3V103.25h9.68v2.38Z"/><path class="cls-5" d="M512.85,105.63V109h5.93v2.38h-5.93v4.67h-3V103.25h9.68v2.38Z"/><path class="cls-5" d="M521.58,103.25h3v12.81h-3Z"/><path class="cls-5" d="M530.17,115.43a6.4,6.4,0,0,1-2.48-2.36,6.86,6.86,0,0,1,0-6.83,6.33,6.33,0,0,1,2.48-2.36,7.41,7.41,0,0,1,3.57-.85,7.52,7.52,0,0,1,3,.58A6,6,0,0,1,539,105.3l-1.91,1.75a4.08,4.08,0,0,0-3.22-1.5,4.25,4.25,0,0,0-2.12.53,3.7,3.7,0,0,0-1.46,1.45,4.6,4.6,0,0,0,0,4.25,3.77,3.77,0,0,0,1.46,1.45,4.24,4.24,0,0,0,2.12.52,4,4,0,0,0,3.22-1.52L539,114a5.89,5.89,0,0,1-2.27,1.7,7.57,7.57,0,0,1-3,.59A7.36,7.36,0,0,1,530.17,115.43Z"/><path class="cls-5" d="M550.92,113.68v2.38H541V103.25h9.68v2.38H544v2.78h5.95v2.31H544v3Z"/><path class="cls-5" d="M561.45,116.06,559,112.49h-2.73v3.57h-3V103.25h5.55a7.3,7.3,0,0,1,3,.56,4.24,4.24,0,0,1,2.6,4.09,4.15,4.15,0,0,1-2.63,4l2.87,4.12Zm-.75-9.82a3.15,3.15,0,0,0-2-.58h-2.42v4.47h2.42a3.09,3.09,0,0,0,2-.59,2.32,2.32,0,0,0,0-3.3Z"/><path class="cls-5" d="M568,115.87a6.92,6.92,0,0,1-2.28-1.07l1-2.24a6.53,6.53,0,0,0,2,1,7.13,7.13,0,0,0,2.26.37,3.51,3.51,0,0,0,1.87-.38,1.12,1.12,0,0,0,.61-1,.94.94,0,0,0-.36-.76,2.67,2.67,0,0,0-.92-.49c-.37-.12-.87-.25-1.51-.4a19,19,0,0,1-2.39-.7,3.89,3.89,0,0,1-1.61-1.11,3,3,0,0,1-.66-2,3.55,3.55,0,0,1,.6-2,4,4,0,0,1,1.82-1.44,7.32,7.32,0,0,1,3-.53,10.09,10.09,0,0,1,2.39.29,7.21,7.21,0,0,1,2.05.84l-.91,2.25a7.14,7.14,0,0,0-3.55-1,3.3,3.3,0,0,0-1.84.4,1.23,1.23,0,0,0-.6,1.06,1,1,0,0,0,.69,1,11.36,11.36,0,0,0,2.1.63,20.82,20.82,0,0,1,2.39.7,3.87,3.87,0,0,1,1.6,1.1,2.91,2.91,0,0,1,.67,2,3.47,3.47,0,0,1-.61,2,4.12,4.12,0,0,1-1.84,1.44,7.56,7.56,0,0,1-3,.53A10.65,10.65,0,0,1,568,115.87Z"/><path class="cls-5" d="M399,57.42V64H372.71V58.76l13.42-12.67a14.2,14.2,0,0,0,2.88-3.5,6.33,6.33,0,0,0,.75-2.91,3.86,3.86,0,0,0-1.42-3.2,6.56,6.56,0,0,0-4.15-1.12,9.5,9.5,0,0,0-4.12.87A7.88,7.88,0,0,0,377,38.84l-5.86-3.78a13.63,13.63,0,0,1,5.61-4.74,18.78,18.78,0,0,1,8.2-1.71,17,17,0,0,1,6.78,1.26,10.5,10.5,0,0,1,4.52,3.58,9.22,9.22,0,0,1,1.61,5.44,12.08,12.08,0,0,1-1.19,5.32A20.37,20.37,0,0,1,392,49.87l-8,7.55Z"/><path class="cls-5" d="M425.1,45.2a9.7,9.7,0,0,1,3.51,7.85A10.91,10.91,0,0,1,427,58.84,11.08,11.08,0,0,1,422.17,63a18.46,18.46,0,0,1-8,1.57,27.62,27.62,0,0,1-7.23-1,18.8,18.8,0,0,1-6-2.76l3.18-6.16A15.47,15.47,0,0,0,408.63,57a17.44,17.44,0,0,0,5.32.82,8.37,8.37,0,0,0,4.77-1.19,3.82,3.82,0,0,0,1.74-3.33,3.76,3.76,0,0,0-1.81-3.38q-1.81-1.14-6.29-1.14h-8.89l1.79-19.58h21.21v6.46H412l-.54,6.61h2.83Q421.6,42.27,425.1,45.2Z"/><path class="cls-5" d="M439.09,62.44a14.3,14.3,0,0,1-5.29-6.19,22.38,22.38,0,0,1-1.91-9.66,22.38,22.38,0,0,1,1.91-9.66,14.36,14.36,0,0,1,5.29-6.19,15,15,0,0,1,15.4,0,14.36,14.36,0,0,1,5.29,6.19,22.37,22.37,0,0,1,1.92,9.66,22.37,22.37,0,0,1-1.92,9.66,14.3,14.3,0,0,1-5.29,6.19,14.92,14.92,0,0,1-15.4,0ZM451.78,55q1.82-2.73,1.82-8.45c0-3.81-.61-6.62-1.82-8.45a5.88,5.88,0,0,0-9.93,0C440.64,40,440,42.78,440,46.59s.61,6.63,1.82,8.45a5.88,5.88,0,0,0,9.93,0Z"/><path d="M318.56,143.91a4.42,4.42,0,0,0-.76-.06,2,2,0,0,0-2.05,1.29v6.37h-1.53v-9h1.49l0,1a2.37,2.37,0,0,1,2.14-1.21,1.53,1.53,0,0,1,.68.12Z"/><path d="M323.54,151.67a3.9,3.9,0,0,1-3-1.19,4.43,4.43,0,0,1-1.15-3.21V147a5.41,5.41,0,0,1,.51-2.39,4,4,0,0,1,1.43-1.64,3.55,3.55,0,0,1,2-.6,3.37,3.37,0,0,1,2.72,1.16,5,5,0,0,1,1,3.3v.64H321a3.19,3.19,0,0,0,.77,2.14,2.44,2.44,0,0,0,1.89.82,2.71,2.71,0,0,0,1.38-.33,3.31,3.31,0,0,0,1-.88l.93.73A3.75,3.75,0,0,1,323.54,151.67Zm-.19-8a2.05,2.05,0,0,0-1.56.68,3.28,3.28,0,0,0-.78,1.9h4.5v-.12a3,3,0,0,0-.63-1.81A1.94,1.94,0,0,0,323.35,143.62Z"/><path d="M332.42,150.42a2.13,2.13,0,0,0,1.43-.5,1.76,1.76,0,0,0,.69-1.24H336a2.89,2.89,0,0,1-.53,1.47,3.65,3.65,0,0,1-1.31,1.11,3.73,3.73,0,0,1-1.73.41,3.69,3.69,0,0,1-2.92-1.22,4.89,4.89,0,0,1-1.08-3.35v-.26a5.42,5.42,0,0,1,.48-2.33,3.61,3.61,0,0,1,1.38-1.58,3.9,3.9,0,0,1,2.13-.57,3.57,3.57,0,0,1,2.51.91,3.23,3.23,0,0,1,1.07,2.35h-1.45a2.2,2.2,0,0,0-.66-1.44,2.09,2.09,0,0,0-1.47-.56,2.15,2.15,0,0,0-1.81.85,3.93,3.93,0,0,0-.65,2.43v.29a3.91,3.91,0,0,0,.64,2.39A2.17,2.17,0,0,0,332.42,150.42Z"/><path d="M341.44,151.67a3.9,3.9,0,0,1-3-1.19,4.47,4.47,0,0,1-1.15-3.21V147a5.41,5.41,0,0,1,.51-2.39,4,4,0,0,1,1.43-1.64,3.57,3.57,0,0,1,2-.6,3.36,3.36,0,0,1,2.72,1.16,5,5,0,0,1,1,3.3v.64h-6.08a3.19,3.19,0,0,0,.77,2.14,2.44,2.44,0,0,0,1.89.82,2.69,2.69,0,0,0,1.38-.33,3.31,3.31,0,0,0,1-.88l.94.73A3.77,3.77,0,0,1,341.44,151.67Zm-.19-8a2.05,2.05,0,0,0-1.56.68,3.28,3.28,0,0,0-.78,1.9h4.5v-.12a3,3,0,0,0-.63-1.81A1.94,1.94,0,0,0,341.25,143.62Z"/><path d="M346.73,140.15a.88.88,0,0,1,.23-.63.84.84,0,0,1,.67-.26.87.87,0,0,1,.68.26.88.88,0,0,1,.23.63.85.85,0,0,1-.23.62.86.86,0,0,1-.68.25.84.84,0,0,1-.67-.25A.85.85,0,0,1,346.73,140.15Zm1.66,11.36h-1.54v-9h1.54Z"/><path d="M353.81,149.43l2.22-6.9h1.57l-3.22,9h-1.17l-3.26-9h1.57Z"/><path d="M362.69,151.67a3.93,3.93,0,0,1-3-1.19,4.47,4.47,0,0,1-1.14-3.21V147a5.41,5.41,0,0,1,.51-2.39,3.88,3.88,0,0,1,1.43-1.64,3.54,3.54,0,0,1,2-.6,3.38,3.38,0,0,1,2.73,1.16,5,5,0,0,1,1,3.3v.64h-6.09a3.15,3.15,0,0,0,.78,2.14,2.41,2.41,0,0,0,1.89.82,2.65,2.65,0,0,0,1.37-.33,3.31,3.31,0,0,0,1-.88l.94.73A3.76,3.76,0,0,1,362.69,151.67Zm-.19-8a2.05,2.05,0,0,0-1.56.68,3.28,3.28,0,0,0-.78,1.9h4.5v-.12a2.87,2.87,0,0,0-.63-1.81A1.94,1.94,0,0,0,362.5,143.62Z"/><path d="M367.6,146.94a5.29,5.29,0,0,1,1-3.32,3.33,3.33,0,0,1,5.06-.18v-4.68h1.54v12.75h-1.41l-.08-1a3.12,3.12,0,0,1-2.56,1.12,3.08,3.08,0,0,1-2.55-1.27,5.39,5.39,0,0,1-1-3.34Zm1.53.18a4,4,0,0,0,.63,2.39,2.08,2.08,0,0,0,1.75.86,2.25,2.25,0,0,0,2.13-1.31v-4.12a2.25,2.25,0,0,0-2.12-1.27,2.07,2.07,0,0,0-1.76.87A4.38,4.38,0,0,0,369.13,147.12Z"/><path d="M383.85,140.35v2.18h1.68v1.19h-1.68v5.57a1.24,1.24,0,0,0,.22.81,1,1,0,0,0,.77.27,3.52,3.52,0,0,0,.73-.1v1.24a4.52,4.52,0,0,1-1.18.16,1.87,1.87,0,0,1-1.55-.62,2.65,2.65,0,0,1-.53-1.77v-5.56h-1.63v-1.19h1.63v-2.18Z"/><path d="M391.66,143.91a4.51,4.51,0,0,0-.76-.06,2,2,0,0,0-2,1.29v6.37h-1.53v-9h1.49l0,1a2.37,2.37,0,0,1,2.14-1.21,1.53,1.53,0,0,1,.68.12Z"/><path d="M398.28,151.51a3.06,3.06,0,0,1-.21-.95,3.45,3.45,0,0,1-2.56,1.11,3.17,3.17,0,0,1-2.18-.75,2.41,2.41,0,0,1-.85-1.9,2.54,2.54,0,0,1,1.07-2.18,5,5,0,0,1,3-.78H398v-.7a1.72,1.72,0,0,0-.48-1.28,1.94,1.94,0,0,0-1.42-.48,2.28,2.28,0,0,0-1.38.41,1.24,1.24,0,0,0-.55,1h-1.55a2.12,2.12,0,0,1,.48-1.3,3.23,3.23,0,0,1,1.29-1,4.46,4.46,0,0,1,1.8-.37,3.51,3.51,0,0,1,2.43.78,2.83,2.83,0,0,1,.92,2.14v4.13a5.11,5.11,0,0,0,.31,2v.13Zm-2.55-1.17a2.79,2.79,0,0,0,1.37-.37,2.27,2.27,0,0,0,.94-1v-1.84h-1.2q-2.82,0-2.82,1.65a1.4,1.4,0,0,0,.48,1.13A1.84,1.84,0,0,0,395.73,150.34Z"/><path d="M402,140.15a.92.92,0,0,1,.23-.63.87.87,0,0,1,.68-.26.9.9,0,0,1,.68.26.92.92,0,0,1,.23.63.83.83,0,0,1-.91.87.86.86,0,0,1-.68-.25A.9.9,0,0,1,402,140.15Zm1.66,11.36h-1.53v-9h1.53Z"/><path d="M407.56,142.53l.05,1.13a3.25,3.25,0,0,1,2.69-1.3c1.9,0,2.85,1.07,2.87,3.22v5.93h-1.54v-5.94a2.05,2.05,0,0,0-.44-1.44,1.78,1.78,0,0,0-1.36-.46,2.27,2.27,0,0,0-1.31.39,2.82,2.82,0,0,0-.88,1.05v6.4h-1.53v-9Z"/><path d="M415.49,140.15a.92.92,0,0,1,.23-.63.87.87,0,0,1,.68-.26.88.88,0,0,1,.68.26.92.92,0,0,1,.23.63.9.9,0,0,1-.23.62.88.88,0,0,1-.68.25.86.86,0,0,1-.68-.25A.9.9,0,0,1,415.49,140.15Zm1.66,11.36h-1.53v-9h1.53Z"/><path d="M421.06,142.53l.05,1.13a3.26,3.26,0,0,1,2.69-1.3q2.85,0,2.87,3.22v5.93h-1.53v-5.94a2.1,2.1,0,0,0-.45-1.44,1.77,1.77,0,0,0-1.35-.46,2.23,2.23,0,0,0-1.31.39,2.73,2.73,0,0,0-.88,1.05v6.4h-1.54v-9Z"/><path d="M428.62,146.94a5.33,5.33,0,0,1,1-3.34,3.14,3.14,0,0,1,2.58-1.24,3.07,3.07,0,0,1,2.56,1.17l.08-1h1.4v8.76a3.66,3.66,0,0,1-1,2.75,3.78,3.78,0,0,1-2.77,1,4.55,4.55,0,0,1-1.9-.41,3.33,3.33,0,0,1-1.42-1.14l.8-.92a3,3,0,0,0,2.41,1.22,2.36,2.36,0,0,0,1.75-.63,2.4,2.4,0,0,0,.63-1.78v-.77a3.17,3.17,0,0,1-2.52,1.06,3.07,3.07,0,0,1-2.55-1.26A5.59,5.59,0,0,1,428.62,146.94Zm1.55.18a4,4,0,0,0,.62,2.38,2,2,0,0,0,1.74.87,2.26,2.26,0,0,0,2.14-1.32V145a2.3,2.3,0,0,0-2.12-1.28,2,2,0,0,0-1.75.87A4.38,4.38,0,0,0,430.17,147.12Z"/><path d="M444.82,140.35v2.18h1.67v1.19h-1.67v5.57a1.24,1.24,0,0,0,.22.81.94.94,0,0,0,.76.27,3.44,3.44,0,0,0,.73-.1v1.24a4.41,4.41,0,0,1-1.18.16,1.9,1.9,0,0,1-1.55-.62,2.65,2.65,0,0,1-.52-1.77v-5.56h-1.64v-1.19h1.64v-2.18Z"/><path d="M447.71,146.94a5.3,5.3,0,0,1,.52-2.38,3.84,3.84,0,0,1,3.56-2.2,3.79,3.79,0,0,1,3,1.27,4.89,4.89,0,0,1,1.14,3.38v.11a5.27,5.27,0,0,1-.51,2.35,3.71,3.71,0,0,1-1.43,1.62,4,4,0,0,1-2.15.58,3.81,3.81,0,0,1-3-1.26,4.9,4.9,0,0,1-1.13-3.37Zm1.54.18a3.89,3.89,0,0,0,.7,2.4,2.22,2.22,0,0,0,1.85.9,2.19,2.19,0,0,0,1.86-.92,4.17,4.17,0,0,0,.69-2.56,3.82,3.82,0,0,0-.7-2.4,2.33,2.33,0,0,0-3.7,0A4.2,4.2,0,0,0,449.25,147.12Z"/><path d="M462,140.15a.88.88,0,0,1,.23-.63.84.84,0,0,1,.67-.26.87.87,0,0,1,.68.26.88.88,0,0,1,.23.63.85.85,0,0,1-.23.62.86.86,0,0,1-.68.25.84.84,0,0,1-.67-.25A.85.85,0,0,1,462,140.15Zm1.66,11.36h-1.54v-9h1.54Z"/><path d="M467.59,142.53l0,1a3.31,3.31,0,0,1,2.66-1.17,2.57,2.57,0,0,1,2.57,1.45,3.32,3.32,0,0,1,2.86-1.45c2,0,3,1,3,3.13v6h-1.54v-5.93a2.08,2.08,0,0,0-.44-1.44,2,2,0,0,0-1.48-.47,2,2,0,0,0-1.42.51,2.07,2.07,0,0,0-.65,1.37v6h-1.54v-5.89a1.71,1.71,0,0,0-1.92-2,2.06,2.06,0,0,0-2.07,1.28v6.56h-1.53v-9Z"/><path d="M488.63,147.12a5.38,5.38,0,0,1-.94,3.3,3,3,0,0,1-2.54,1.25,3.28,3.28,0,0,1-2.57-1V155H481V142.53h1.4l.08,1a3.14,3.14,0,0,1,2.6-1.17,3.06,3.06,0,0,1,2.56,1.22,5.45,5.45,0,0,1,.95,3.4Zm-1.54-.18a3.88,3.88,0,0,0-.65-2.39,2.07,2.07,0,0,0-1.77-.88,2.25,2.25,0,0,0-2.09,1.23v4.29a2.26,2.26,0,0,0,2.1,1.23,2.09,2.09,0,0,0,1.76-.87A4.38,4.38,0,0,0,487.09,146.94Z"/><path d="M494.92,143.91a4.59,4.59,0,0,0-.76-.06,2,2,0,0,0-2.05,1.29v6.37h-1.53v-9h1.49l0,1a2.37,2.37,0,0,1,2.14-1.21,1.53,1.53,0,0,1,.68.12Z"/><path d="M495.75,146.94a5.43,5.43,0,0,1,.52-2.38,3.86,3.86,0,0,1,3.56-2.2,3.83,3.83,0,0,1,3,1.27,4.93,4.93,0,0,1,1.13,3.38v.11a5.4,5.4,0,0,1-.5,2.35,3.79,3.79,0,0,1-1.44,1.62,4,4,0,0,1-2.14.58,3.78,3.78,0,0,1-3-1.26,4.86,4.86,0,0,1-1.14-3.37Zm1.55.18a3.88,3.88,0,0,0,.69,2.4,2.22,2.22,0,0,0,1.86.9,2.19,2.19,0,0,0,1.86-.92,4.17,4.17,0,0,0,.68-2.56,3.82,3.82,0,0,0-.7-2.4,2.23,2.23,0,0,0-1.86-.92,2.2,2.2,0,0,0-1.83.91A4.14,4.14,0,0,0,497.3,147.12Z"/><path d="M508.69,149.43l2.23-6.9h1.57l-3.22,9H508.1l-3.26-9h1.57Z"/><path d="M517.58,151.67a3.93,3.93,0,0,1-3-1.19,4.47,4.47,0,0,1-1.14-3.21V147a5.41,5.41,0,0,1,.51-2.39A3.93,3.93,0,0,1,515.4,143a3.6,3.6,0,0,1,2-.6,3.35,3.35,0,0,1,2.72,1.16,5,5,0,0,1,1,3.3v.64H515a3.15,3.15,0,0,0,.78,2.14,2.41,2.41,0,0,0,1.89.82,2.65,2.65,0,0,0,1.37-.33,3.31,3.31,0,0,0,1-.88l.94.73A3.76,3.76,0,0,1,517.58,151.67Zm-.19-8a2.05,2.05,0,0,0-1.56.68,3.28,3.28,0,0,0-.78,1.9h4.5v-.12a3,3,0,0,0-.63-1.81A1.94,1.94,0,0,0,517.39,143.62Z"/><path d="M321.91,160.75v2.18h1.68v1.18h-1.68v5.58a1.24,1.24,0,0,0,.23.81.94.94,0,0,0,.76.27,3.44,3.44,0,0,0,.73-.1v1.24a4.46,4.46,0,0,1-1.18.16,1.93,1.93,0,0,1-1.55-.62,2.69,2.69,0,0,1-.52-1.77v-5.57h-1.64v-1.18h1.64v-2.18Z"/><path d="M326.92,164a3.27,3.27,0,0,1,2.65-1.25q2.85,0,2.87,3.21v5.94h-1.53V166a2.09,2.09,0,0,0-.45-1.43,1.77,1.77,0,0,0-1.35-.47,2.23,2.23,0,0,0-1.31.4,2.66,2.66,0,0,0-.88,1v6.4h-1.54V159.16h1.54Z"/><path d="M338.47,172.07a3.91,3.91,0,0,1-3-1.2,4.43,4.43,0,0,1-1.15-3.21v-.28a5.37,5.37,0,0,1,.51-2.38,4,4,0,0,1,1.43-1.65,3.62,3.62,0,0,1,2-.59,3.35,3.35,0,0,1,2.72,1.15,5,5,0,0,1,1,3.31v.64h-6.08a3.19,3.19,0,0,0,.77,2.14,2.44,2.44,0,0,0,1.89.82,2.71,2.71,0,0,0,1.38-.33,3.61,3.61,0,0,0,1-.88l.94.73A3.8,3.8,0,0,1,338.47,172.07Zm-.19-8a2.05,2.05,0,0,0-1.56.68,3.28,3.28,0,0,0-.78,1.89h4.5v-.11a3,3,0,0,0-.63-1.82A2,2,0,0,0,338.28,164Z"/><path d="M343.75,160.54a.92.92,0,0,1,.23-.63.88.88,0,0,1,.68-.25.86.86,0,0,1,.68.25,1,1,0,0,1,0,1.26.89.89,0,0,1-.68.24.91.91,0,0,1-.68-.24A.92.92,0,0,1,343.75,160.54Zm1.67,11.37h-1.54v-9h1.54Z"/><path d="M352.21,164.3a4.43,4.43,0,0,0-.75-.05,2,2,0,0,0-2,1.28v6.38h-1.54v-9h1.5l0,1a2.39,2.39,0,0,1,2.14-1.2,1.5,1.5,0,0,1,.68.12Z"/><path d="M361.43,170.82a2.23,2.23,0,0,0,1.44-.5,1.77,1.77,0,0,0,.68-1.24H365a2.74,2.74,0,0,1-.53,1.46,3.5,3.5,0,0,1-1.31,1.12,3.83,3.83,0,0,1-1.73.41,3.7,3.7,0,0,1-2.91-1.22,4.86,4.86,0,0,1-1.09-3.35v-.26a5.42,5.42,0,0,1,.48-2.33,3.72,3.72,0,0,1,1.39-1.59,4,4,0,0,1,2.12-.56,3.59,3.59,0,0,1,2.51.9A3.23,3.23,0,0,1,365,166h-1.45a2.11,2.11,0,0,0-.66-1.43,2.09,2.09,0,0,0-1.47-.56,2.15,2.15,0,0,0-1.81.84,4,4,0,0,0-.64,2.44v.29a3.86,3.86,0,0,0,.64,2.39A2.14,2.14,0,0,0,361.43,170.82Z"/><path d="M366.32,167.33a5.22,5.22,0,0,1,.52-2.37,3.79,3.79,0,0,1,3.56-2.2,3.76,3.76,0,0,1,3,1.27,4.87,4.87,0,0,1,1.14,3.38v.1a5.31,5.31,0,0,1-.51,2.36,3.82,3.82,0,0,1-1.43,1.62,4,4,0,0,1-2.15.58,3.79,3.79,0,0,1-3-1.27,4.89,4.89,0,0,1-1.13-3.36Zm1.54.18a3.85,3.85,0,0,0,.7,2.4,2.34,2.34,0,0,0,3.71,0,4.2,4.2,0,0,0,.69-2.57,3.81,3.81,0,0,0-.7-2.39,2.24,2.24,0,0,0-1.86-.92,2.21,2.21,0,0,0-1.84.91A4.17,4.17,0,0,0,367.86,167.51Z"/><path d="M377.87,162.93l0,1a3.32,3.32,0,0,1,2.66-1.16,2.58,2.58,0,0,1,2.57,1.44,3.24,3.24,0,0,1,1.16-1,3.42,3.42,0,0,1,1.7-.4q3,0,3,3.13v6h-1.53V166a2.08,2.08,0,0,0-.44-1.44,2,2,0,0,0-1.48-.48,2,2,0,0,0-2.07,1.89v6h-1.55V166a1.71,1.71,0,0,0-1.91-2,2.06,2.06,0,0,0-2.07,1.29v6.56h-1.54v-9Z"/><path d="M398.9,167.51a5.43,5.43,0,0,1-.93,3.31,3,3,0,0,1-2.54,1.25,3.29,3.29,0,0,1-2.58-1v4.33h-1.53V162.93h1.4l.07,1a3.19,3.19,0,0,1,2.61-1.16A3.07,3.07,0,0,1,398,164a5.4,5.4,0,0,1,.94,3.39Zm-1.53-.17a4,4,0,0,0-.65-2.4,2.09,2.09,0,0,0-1.77-.88,2.27,2.27,0,0,0-2.1,1.24v4.29a2.27,2.27,0,0,0,2.11,1.23,2.07,2.07,0,0,0,1.76-.88A4.35,4.35,0,0,0,397.37,167.34Z"/><path d="M404.58,172.07a3.91,3.91,0,0,1-3-1.2,4.47,4.47,0,0,1-1.15-3.21v-.28A5.37,5.37,0,0,1,401,165a4,4,0,0,1,1.43-1.65,3.64,3.64,0,0,1,2-.59,3.35,3.35,0,0,1,2.72,1.15,5,5,0,0,1,1,3.31v.64H402a3.15,3.15,0,0,0,.78,2.14,2.41,2.41,0,0,0,1.88.82,2.66,2.66,0,0,0,1.38-.33,3.61,3.61,0,0,0,1-.88l.94.73A3.79,3.79,0,0,1,404.58,172.07Zm-.19-8a2.05,2.05,0,0,0-1.56.68,3.28,3.28,0,0,0-.78,1.89h4.5v-.11a3,3,0,0,0-.63-1.82A2,2,0,0,0,404.39,164Z"/><path d="M411.94,160.75v2.18h1.68v1.18h-1.68v5.58a1.24,1.24,0,0,0,.23.81.94.94,0,0,0,.76.27,3.44,3.44,0,0,0,.73-.1v1.24a4.46,4.46,0,0,1-1.18.16,1.93,1.93,0,0,1-1.55-.62,2.69,2.69,0,0,1-.52-1.77v-5.57h-1.64v-1.18h1.64v-2.18Z"/><path d="M419.14,172.07a3.91,3.91,0,0,1-3-1.2,4.43,4.43,0,0,1-1.15-3.21v-.28a5.37,5.37,0,0,1,.51-2.38,4,4,0,0,1,1.43-1.65,3.62,3.62,0,0,1,2-.59,3.37,3.37,0,0,1,2.72,1.15,5,5,0,0,1,1,3.31v.64h-6.08a3.19,3.19,0,0,0,.77,2.14,2.44,2.44,0,0,0,1.89.82,2.71,2.71,0,0,0,1.38-.33,3.92,3.92,0,0,0,1-.88l.93.73A3.77,3.77,0,0,1,419.14,172.07Zm-.19-8a2.05,2.05,0,0,0-1.56.68,3.28,3.28,0,0,0-.78,1.89h4.49v-.11a2.9,2.9,0,0,0-.63-1.82A1.93,1.93,0,0,0,419,164Z"/><path d="M425.87,162.93l.05,1.12a3.27,3.27,0,0,1,2.69-1.29q2.83,0,2.87,3.21v5.94h-1.54V166a2,2,0,0,0-.44-1.43,1.78,1.78,0,0,0-1.36-.47,2.26,2.26,0,0,0-1.31.4,2.66,2.66,0,0,0-.88,1v6.4h-1.53v-9Z"/><path d="M437.4,170.82a2.22,2.22,0,0,0,1.43-.5,1.74,1.74,0,0,0,.68-1.24H441a2.66,2.66,0,0,1-.53,1.46,3.47,3.47,0,0,1-1.3,1.12,3.89,3.89,0,0,1-1.73.41,3.71,3.71,0,0,1-2.92-1.22,4.91,4.91,0,0,1-1.08-3.35v-.26a5.42,5.42,0,0,1,.48-2.33,3.7,3.7,0,0,1,1.38-1.59,4,4,0,0,1,2.13-.56,3.63,3.63,0,0,1,2.51.9A3.26,3.26,0,0,1,441,166h-1.45a2.07,2.07,0,0,0-.66-1.43,2,2,0,0,0-1.46-.56,2.17,2.17,0,0,0-1.82.84,4,4,0,0,0-.64,2.44v.29a3.86,3.86,0,0,0,.64,2.39A2.16,2.16,0,0,0,437.4,170.82Z"/><path d="M446.42,172.07a3.91,3.91,0,0,1-3-1.2,4.43,4.43,0,0,1-1.15-3.21v-.28a5.37,5.37,0,0,1,.51-2.38,4,4,0,0,1,1.43-1.65,3.62,3.62,0,0,1,2-.59,3.37,3.37,0,0,1,2.72,1.15,5,5,0,0,1,1,3.31v.64h-6.08a3.19,3.19,0,0,0,.77,2.14,2.44,2.44,0,0,0,1.89.82,2.71,2.71,0,0,0,1.38-.33,3.92,3.92,0,0,0,1-.88l.93.73A3.77,3.77,0,0,1,446.42,172.07Zm-.19-8a2.05,2.05,0,0,0-1.56.68,3.28,3.28,0,0,0-.78,1.89h4.49v-.11a2.9,2.9,0,0,0-.63-1.82A1.93,1.93,0,0,0,446.23,164Z"/><path d="M458,160.75v2.18h1.67v1.18H458v5.58a1.24,1.24,0,0,0,.22.81.94.94,0,0,0,.76.27,3.44,3.44,0,0,0,.73-.1v1.24a4.39,4.39,0,0,1-1.17.16,1.94,1.94,0,0,1-1.56-.62,2.74,2.74,0,0,1-.52-1.77v-5.57h-1.63v-1.18h1.63v-2.18Z"/><path d="M460.88,167.33a5.22,5.22,0,0,1,.52-2.37,3.79,3.79,0,0,1,3.56-2.2,3.76,3.76,0,0,1,3,1.27,4.87,4.87,0,0,1,1.14,3.38v.1a5.31,5.31,0,0,1-.51,2.36,3.82,3.82,0,0,1-1.43,1.62,4,4,0,0,1-2.15.58,3.79,3.79,0,0,1-3-1.27,4.89,4.89,0,0,1-1.13-3.36Zm1.55.18a3.84,3.84,0,0,0,.69,2.4,2.34,2.34,0,0,0,3.71,0,4.2,4.2,0,0,0,.69-2.57,3.81,3.81,0,0,0-.7-2.39A2.24,2.24,0,0,0,465,164a2.21,2.21,0,0,0-1.84.91A4.17,4.17,0,0,0,462.43,167.51Z"/><path d="M477.27,160.75v2.18H479v1.18h-1.68v5.58a1.24,1.24,0,0,0,.23.81.94.94,0,0,0,.76.27,3.44,3.44,0,0,0,.73-.1v1.24a4.46,4.46,0,0,1-1.18.16,1.93,1.93,0,0,1-1.55-.62,2.69,2.69,0,0,1-.52-1.77v-5.57H474.1v-1.18h1.64v-2.18Z"/><path d="M484.47,172.07a3.91,3.91,0,0,1-3-1.2,4.43,4.43,0,0,1-1.15-3.21v-.28a5.37,5.37,0,0,1,.51-2.38,4,4,0,0,1,1.43-1.65,3.62,3.62,0,0,1,2-.59,3.37,3.37,0,0,1,2.72,1.15,5,5,0,0,1,1,3.31v.64h-6.08a3.19,3.19,0,0,0,.77,2.14,2.44,2.44,0,0,0,1.89.82,2.71,2.71,0,0,0,1.38-.33,3.92,3.92,0,0,0,1-.88l.93.73A3.77,3.77,0,0,1,484.47,172.07Zm-.19-8a2.05,2.05,0,0,0-1.56.68,3.28,3.28,0,0,0-.78,1.89h4.5v-.11a3,3,0,0,0-.64-1.82A1.93,1.93,0,0,0,484.28,164Z"/><path d="M495.29,171.91a3.14,3.14,0,0,1-.21-.95,3.45,3.45,0,0,1-2.56,1.11,3.17,3.17,0,0,1-2.18-.75,2.42,2.42,0,0,1-.85-1.9,2.51,2.51,0,0,1,1.07-2.18,5,5,0,0,1,3-.78h1.49v-.7a1.74,1.74,0,0,0-.48-1.29,2,2,0,0,0-1.42-.47,2.22,2.22,0,0,0-1.38.41,1.22,1.22,0,0,0-.55,1h-1.55a2.09,2.09,0,0,1,.48-1.3,3.35,3.35,0,0,1,1.29-1,4.45,4.45,0,0,1,1.8-.36,3.51,3.51,0,0,1,2.43.78,2.8,2.8,0,0,1,.92,2.13v4.14a5,5,0,0,0,.31,2v.14Zm-2.55-1.17a2.7,2.7,0,0,0,1.37-.38,2.25,2.25,0,0,0,.94-1v-1.84h-1.2q-2.82,0-2.82,1.65a1.4,1.4,0,0,0,.48,1.13A1.84,1.84,0,0,0,492.74,170.74Z"/><path d="M502.59,170.82a2.23,2.23,0,0,0,1.44-.5,1.74,1.74,0,0,0,.68-1.24h1.45a2.74,2.74,0,0,1-.53,1.46,3.5,3.5,0,0,1-1.31,1.12,3.83,3.83,0,0,1-1.73.41,3.7,3.7,0,0,1-2.91-1.22,4.91,4.91,0,0,1-1.09-3.35v-.26a5.28,5.28,0,0,1,.49-2.33,3.7,3.7,0,0,1,1.38-1.59,4,4,0,0,1,2.13-.56,3.63,3.63,0,0,1,2.51.9,3.26,3.26,0,0,1,1.06,2.35h-1.45a2.08,2.08,0,0,0-2.12-2,2.17,2.17,0,0,0-1.82.84,4,4,0,0,0-.64,2.44v.29a3.86,3.86,0,0,0,.64,2.39A2.14,2.14,0,0,0,502.59,170.82Z"/><path d="M509.42,164a3.3,3.3,0,0,1,2.66-1.25q2.85,0,2.87,3.21v5.94h-1.53V166a2.09,2.09,0,0,0-.45-1.43,1.77,1.77,0,0,0-1.35-.47,2.29,2.29,0,0,0-1.32.4,2.74,2.74,0,0,0-.88,1v6.4h-1.53V159.16h1.53Z"/><path d="M323.31,190.22l2.22-6.9h1.57l-3.22,9h-1.17l-3.25-9H321Z"/><path d="M328,187.73a5.43,5.43,0,0,1,.52-2.38,3.88,3.88,0,0,1,1.45-1.62,4,4,0,0,1,2.11-.57,3.79,3.79,0,0,1,3,1.27,4.89,4.89,0,0,1,1.13,3.37v.11a5.37,5.37,0,0,1-.5,2.35,3.88,3.88,0,0,1-1.44,1.63,4,4,0,0,1-2.14.58,3.79,3.79,0,0,1-3-1.27,4.85,4.85,0,0,1-1.14-3.36Zm1.55.18a3.84,3.84,0,0,0,.69,2.4,2.36,2.36,0,0,0,3.72,0,4.2,4.2,0,0,0,.68-2.57,3.84,3.84,0,0,0-.7-2.4,2.22,2.22,0,0,0-1.86-.91,2.19,2.19,0,0,0-1.83.9A4.14,4.14,0,0,0,329.59,187.91Z"/><path d="M341.75,191.21a2.22,2.22,0,0,0,1.43-.49,1.76,1.76,0,0,0,.68-1.25h1.46a2.76,2.76,0,0,1-.54,1.47,3.44,3.44,0,0,1-1.3,1.11,3.74,3.74,0,0,1-1.73.42,3.68,3.68,0,0,1-2.92-1.23,4.87,4.87,0,0,1-1.08-3.35v-.25a5.47,5.47,0,0,1,.48-2.34,3.67,3.67,0,0,1,1.38-1.58,3.89,3.89,0,0,1,2.13-.56,3.61,3.61,0,0,1,2.51.9,3.25,3.25,0,0,1,1.07,2.35h-1.46a2.07,2.07,0,0,0-.66-1.43,2,2,0,0,0-1.46-.56,2.13,2.13,0,0,0-1.81.84,3.94,3.94,0,0,0-.65,2.44V188a3.93,3.93,0,0,0,.64,2.39A2.19,2.19,0,0,0,341.75,191.21Z"/><path d="M352.59,192.3a3,3,0,0,1-.22-.94,3.43,3.43,0,0,1-2.56,1.11,3.19,3.19,0,0,1-2.18-.75,2.46,2.46,0,0,1-.85-1.91,2.56,2.56,0,0,1,1.07-2.18,5.08,5.08,0,0,1,3-.77h1.49v-.71a1.72,1.72,0,0,0-.48-1.28,1.92,1.92,0,0,0-1.42-.48,2.21,2.21,0,0,0-1.37.42,1.22,1.22,0,0,0-.56,1H347a2.16,2.16,0,0,1,.47-1.3,3.2,3.2,0,0,1,1.3-1,4.38,4.38,0,0,1,1.8-.36,3.54,3.54,0,0,1,2.43.77,2.82,2.82,0,0,1,.91,2.14v4.13a5.06,5.06,0,0,0,.32,2v.13ZM350,191.13a2.69,2.69,0,0,0,1.37-.37,2.28,2.28,0,0,0,.93-1v-1.85h-1.2c-1.88,0-2.82.55-2.82,1.66a1.38,1.38,0,0,0,.48,1.12A1.8,1.8,0,0,0,350,191.13Z"/><path d="M358.37,181.15v2.17h1.68v1.19h-1.68v5.57a1.3,1.3,0,0,0,.22.81,1,1,0,0,0,.77.27,3.44,3.44,0,0,0,.73-.1v1.24a4.55,4.55,0,0,1-1.18.17,1.89,1.89,0,0,1-1.55-.63,2.64,2.64,0,0,1-.52-1.76v-5.57H355.2v-1.19h1.64v-2.17Z"/><path d="M361.85,180.94a.88.88,0,0,1,.23-.63.84.84,0,0,1,.67-.26.87.87,0,0,1,.68.26.88.88,0,0,1,.24.63.84.84,0,0,1-.24.62.86.86,0,0,1-.68.25.83.83,0,0,1-.9-.87Zm1.66,11.36H362v-9h1.54Z"/><path d="M365.56,187.73a5.3,5.3,0,0,1,.52-2.38,3.79,3.79,0,0,1,1.44-1.62,4,4,0,0,1,2.11-.57,3.78,3.78,0,0,1,3,1.27,4.84,4.84,0,0,1,1.13,3.37v.11a5.23,5.23,0,0,1-.5,2.35,3.75,3.75,0,0,1-1.44,1.63,4,4,0,0,1-2.14.58,3.8,3.8,0,0,1-3-1.27,4.89,4.89,0,0,1-1.13-3.36Zm1.54.18a3.84,3.84,0,0,0,.69,2.4,2.25,2.25,0,0,0,1.86.9,2.2,2.2,0,0,0,1.86-.91,4.2,4.2,0,0,0,.69-2.57,3.91,3.91,0,0,0-.7-2.4,2.24,2.24,0,0,0-1.87-.91,2.21,2.21,0,0,0-1.83.9A4.14,4.14,0,0,0,367.1,187.91Z"/><path d="M377.11,183.32l.05,1.13a3.28,3.28,0,0,1,2.69-1.29c1.9,0,2.85,1.07,2.87,3.21v5.93h-1.53v-5.94a2.1,2.1,0,0,0-.45-1.44,1.78,1.78,0,0,0-1.36-.46,2.21,2.21,0,0,0-1.31.4,2.71,2.71,0,0,0-.88,1v6.4h-1.53v-9Z"/><path d="M390.58,192.3a3.31,3.31,0,0,1-.22-.94,3.41,3.41,0,0,1-2.55,1.11,3.17,3.17,0,0,1-2.18-.75,2.43,2.43,0,0,1-.85-1.91,2.55,2.55,0,0,1,1.06-2.18,5.13,5.13,0,0,1,3-.77h1.49v-.71a1.72,1.72,0,0,0-.48-1.28,1.94,1.94,0,0,0-1.42-.48,2.22,2.22,0,0,0-1.38.42,1.22,1.22,0,0,0-.56,1H385a2.12,2.12,0,0,1,.48-1.3,3.23,3.23,0,0,1,1.29-1,4.45,4.45,0,0,1,1.8-.36,3.53,3.53,0,0,1,2.43.77,2.78,2.78,0,0,1,.91,2.14v4.13a5.06,5.06,0,0,0,.32,2v.13ZM388,191.13a2.69,2.69,0,0,0,1.37-.37,2.3,2.3,0,0,0,.94-1v-1.85h-1.2c-1.89,0-2.83.55-2.83,1.66a1.38,1.38,0,0,0,.48,1.12A1.84,1.84,0,0,0,388,191.13Z"/><path d="M396,192.3h-1.54V179.55H396Z"/><path d="M407.84,189.92a1.11,1.11,0,0,0-.47-1,4.52,4.52,0,0,0-1.63-.59,7.86,7.86,0,0,1-1.85-.6,2.52,2.52,0,0,1-1-.83,2,2,0,0,1-.33-1.14,2.33,2.33,0,0,1,.93-1.87,3.64,3.64,0,0,1,2.39-.76,3.75,3.75,0,0,1,2.47.78,2.5,2.5,0,0,1,1,2h-1.54a1.42,1.42,0,0,0-.53-1.09,2,2,0,0,0-1.35-.45,2.1,2.1,0,0,0-1.31.36,1.15,1.15,0,0,0-.48,1,.92.92,0,0,0,.44.83,5.46,5.46,0,0,0,1.59.54,8.67,8.67,0,0,1,1.87.62,2.71,2.71,0,0,1,1,.86,2.09,2.09,0,0,1,.35,1.22,2.3,2.3,0,0,1-1,1.93,4,4,0,0,1-2.5.73,4.58,4.58,0,0,1-1.91-.38,3.13,3.13,0,0,1-1.3-1.07,2.6,2.6,0,0,1-.47-1.48h1.54a1.57,1.57,0,0,0,.61,1.22,2.89,2.89,0,0,0,2.93.1A1.07,1.07,0,0,0,407.84,189.92Z"/><path d="M413.88,188.14l-1,1v3.15h-1.53V179.55h1.53v7.71l.82-1,2.8-3h1.87l-3.5,3.75,3.9,5.23H417Z"/><path d="M420,180.94a.92.92,0,0,1,.23-.63.87.87,0,0,1,.68-.26.9.9,0,0,1,.68.26.92.92,0,0,1,.23.63.88.88,0,0,1-.23.62.89.89,0,0,1-.68.25.86.86,0,0,1-.68-.25A.88.88,0,0,1,420,180.94Zm1.66,11.36h-1.53v-9h1.53Z"/><path d="M425.79,192.3h-1.54V179.55h1.54Z"/><path d="M429.91,192.3h-1.53V179.55h1.53Z"/><path d="M437.59,189.92a1.13,1.13,0,0,0-.46-1,4.66,4.66,0,0,0-1.64-.59,8,8,0,0,1-1.85-.6,2.6,2.6,0,0,1-1-.83,2,2,0,0,1-.33-1.14,2.33,2.33,0,0,1,.93-1.87,3.66,3.66,0,0,1,2.39-.76,3.8,3.8,0,0,1,2.48.78,2.53,2.53,0,0,1,.95,2H437.5a1.38,1.38,0,0,0-.53-1.09,2,2,0,0,0-1.35-.45,2.1,2.1,0,0,0-1.31.36,1.14,1.14,0,0,0-.47,1,.91.91,0,0,0,.43.83,5.46,5.46,0,0,0,1.59.54,8.67,8.67,0,0,1,1.87.62,2.74,2.74,0,0,1,1.06.86,2.16,2.16,0,0,1,.34,1.22,2.3,2.3,0,0,1-1,1.93,4,4,0,0,1-2.5.73,4.58,4.58,0,0,1-1.91-.38,3.13,3.13,0,0,1-1.3-1.07,2.6,2.6,0,0,1-.47-1.48h1.54a1.58,1.58,0,0,0,.62,1.22,2.39,2.39,0,0,0,1.52.45,2.44,2.44,0,0,0,1.4-.35A1.07,1.07,0,0,0,437.59,189.92Z"/><path d="M449.68,184.7a4.51,4.51,0,0,0-.76-.06,2,2,0,0,0-2.05,1.29v6.37h-1.53v-9h1.49l0,1a2.38,2.38,0,0,1,2.14-1.2,1.55,1.55,0,0,1,.68.11Z"/><path d="M454.66,192.47a3.91,3.91,0,0,1-3-1.2,4.43,4.43,0,0,1-1.15-3.21v-.28a5.41,5.41,0,0,1,.51-2.39,4,4,0,0,1,1.43-1.64,3.54,3.54,0,0,1,2-.59,3.37,3.37,0,0,1,2.72,1.15,5,5,0,0,1,1,3.3v.64h-6.08a3.22,3.22,0,0,0,.77,2.15,2.47,2.47,0,0,0,1.89.81,2.71,2.71,0,0,0,1.38-.33,3.57,3.57,0,0,0,1-.88l.93.73A3.76,3.76,0,0,1,454.66,192.47Zm-.19-8.05a2,2,0,0,0-1.56.67,3.31,3.31,0,0,0-.78,1.9h4.5v-.12a2.93,2.93,0,0,0-.64-1.81A1.9,1.9,0,0,0,454.47,184.42Z"/><path d="M461.6,192.3h-1.53V179.55h1.53Z"/><path d="M469.61,192.3a3,3,0,0,1-.22-.94,3.43,3.43,0,0,1-2.56,1.11,3.19,3.19,0,0,1-2.18-.75,2.46,2.46,0,0,1-.85-1.91,2.56,2.56,0,0,1,1.07-2.18,5.08,5.08,0,0,1,3-.77h1.49v-.71a1.72,1.72,0,0,0-.48-1.28,1.92,1.92,0,0,0-1.42-.48,2.21,2.21,0,0,0-1.37.42,1.22,1.22,0,0,0-.56,1H464a2.16,2.16,0,0,1,.47-1.3,3.2,3.2,0,0,1,1.3-1,4.38,4.38,0,0,1,1.8-.36,3.54,3.54,0,0,1,2.43.77,2.82,2.82,0,0,1,.91,2.14v4.13a5.08,5.08,0,0,0,.31,2v.13Zm-2.55-1.17a2.69,2.69,0,0,0,1.37-.37,2.28,2.28,0,0,0,.93-1v-1.85h-1.2c-1.88,0-2.82.55-2.82,1.66a1.38,1.38,0,0,0,.48,1.12A1.8,1.8,0,0,0,467.06,191.13Z"/><path d="M475.39,181.15v2.17h1.68v1.19h-1.68v5.57a1.24,1.24,0,0,0,.22.81,1,1,0,0,0,.77.27,3.52,3.52,0,0,0,.73-.1v1.24a4.55,4.55,0,0,1-1.18.17,1.89,1.89,0,0,1-1.55-.63,2.64,2.64,0,0,1-.53-1.76v-5.57h-1.63v-1.19h1.63v-2.17Z"/><path d="M482.59,192.47a4,4,0,0,1-3-1.2,4.47,4.47,0,0,1-1.14-3.21v-.28a5.41,5.41,0,0,1,.51-2.39,3.88,3.88,0,0,1,1.43-1.64,3.53,3.53,0,0,1,2-.59,3.37,3.37,0,0,1,2.73,1.15,5,5,0,0,1,1,3.3v.64H480a3.22,3.22,0,0,0,.78,2.15,2.44,2.44,0,0,0,1.89.81,2.65,2.65,0,0,0,1.37-.33,3.31,3.31,0,0,0,1-.88l.94.73A3.76,3.76,0,0,1,482.59,192.47Zm-.2-8.05a2,2,0,0,0-1.56.67,3.31,3.31,0,0,0-.78,1.9h4.5v-.12a2.87,2.87,0,0,0-.63-1.81A1.92,1.92,0,0,0,482.39,184.42Z"/><path d="M487.49,187.74a5.3,5.3,0,0,1,1-3.33,3.08,3.08,0,0,1,2.56-1.25,3.12,3.12,0,0,1,2.5,1.07v-4.68h1.54V192.3h-1.41l-.08-1a3.13,3.13,0,0,1-2.56,1.13,3.09,3.09,0,0,1-2.55-1.28,5.35,5.35,0,0,1-1-3.34Zm1.54.17a4,4,0,0,0,.63,2.39,2,2,0,0,0,1.74.86,2.23,2.23,0,0,0,2.13-1.31v-4.12a2.24,2.24,0,0,0-2.11-1.27,2,2,0,0,0-1.76.87A4.38,4.38,0,0,0,489,187.91Z"/><path d="M503.74,181.15v2.17h1.68v1.19h-1.68v5.57a1.24,1.24,0,0,0,.22.81,1,1,0,0,0,.77.27,3.52,3.52,0,0,0,.73-.1v1.24a4.55,4.55,0,0,1-1.18.17,1.89,1.89,0,0,1-1.55-.63,2.64,2.64,0,0,1-.53-1.76v-5.57h-1.63v-1.19h1.63v-2.17Z"/><path d="M506.64,187.73a5.3,5.3,0,0,1,.52-2.38,3.79,3.79,0,0,1,1.44-1.62,4,4,0,0,1,2.11-.57,3.79,3.79,0,0,1,3,1.27,4.89,4.89,0,0,1,1.13,3.37v.11a5.37,5.37,0,0,1-.5,2.35,3.81,3.81,0,0,1-1.44,1.63,4,4,0,0,1-2.14.58,3.79,3.79,0,0,1-3-1.27,4.85,4.85,0,0,1-1.13-3.36Zm1.54.18a3.84,3.84,0,0,0,.69,2.4,2.23,2.23,0,0,0,1.86.9,2.2,2.2,0,0,0,1.86-.91,4.2,4.2,0,0,0,.69-2.57,3.85,3.85,0,0,0-.71-2.4,2.33,2.33,0,0,0-3.69,0A4.14,4.14,0,0,0,508.18,187.91Z"/><path d="M349.12,210.32a1.14,1.14,0,0,0-.47-1,4.4,4.4,0,0,0-1.64-.59,8.19,8.19,0,0,1-1.85-.6,2.67,2.67,0,0,1-1-.83,2,2,0,0,1-.33-1.15,2.3,2.3,0,0,1,.94-1.86,3.62,3.62,0,0,1,2.38-.77,3.73,3.73,0,0,1,2.48.79,2.53,2.53,0,0,1,.95,2H349a1.38,1.38,0,0,0-.54-1.09,2.34,2.34,0,0,0-2.66-.09,1.13,1.13,0,0,0-.47.95.92.92,0,0,0,.44.84,5.24,5.24,0,0,0,1.59.54,8.8,8.8,0,0,1,1.86.61,2.76,2.76,0,0,1,1.06.86,2.14,2.14,0,0,1,.34,1.23,2.31,2.31,0,0,1-1,1.93,4.07,4.07,0,0,1-2.5.72,4.46,4.46,0,0,1-1.91-.38,3.18,3.18,0,0,1-1.3-1.06,2.63,2.63,0,0,1-.47-1.49h1.54a1.58,1.58,0,0,0,.62,1.23,2.39,2.39,0,0,0,1.52.45,2.52,2.52,0,0,0,1.4-.35A1.1,1.1,0,0,0,349.12,210.32Z"/><path d="M358.2,211.81a3.28,3.28,0,0,1-2.63,1.05,2.78,2.78,0,0,1-2.19-.83,3.6,3.6,0,0,1-.76-2.47v-5.84h1.53v5.8c0,1.36.56,2,1.66,2a2.29,2.29,0,0,0,2.34-1.31v-6.53h1.54v9h-1.46Z"/><path d="M367.25,210.32a1.14,1.14,0,0,0-.47-1,4.41,4.41,0,0,0-1.63-.59,7.86,7.86,0,0,1-1.85-.6,2.63,2.63,0,0,1-1-.83,2,2,0,0,1-.32-1.15,2.31,2.31,0,0,1,.93-1.86,3.65,3.65,0,0,1,2.39-.77,3.72,3.72,0,0,1,2.47.79,2.5,2.5,0,0,1,.95,2h-1.54a1.38,1.38,0,0,0-.54-1.09,2,2,0,0,0-1.34-.46,2.09,2.09,0,0,0-1.32.37,1.15,1.15,0,0,0-.47.95.94.94,0,0,0,.44.84,5.24,5.24,0,0,0,1.59.54,8.43,8.43,0,0,1,1.86.61,2.76,2.76,0,0,1,1.06.86,2.15,2.15,0,0,1,.35,1.23,2.32,2.32,0,0,1-1,1.93,4,4,0,0,1-2.49.72,4.43,4.43,0,0,1-1.91-.38,3.05,3.05,0,0,1-1.3-1.06,2.55,2.55,0,0,1-.47-1.49h1.53a1.61,1.61,0,0,0,.62,1.23,2.42,2.42,0,0,0,1.53.45,2.49,2.49,0,0,0,1.39-.35A1.07,1.07,0,0,0,367.25,210.32Z"/><path d="M372.87,201.54v2.18h1.68v1.18h-1.68v5.58a1.24,1.24,0,0,0,.22.81,1,1,0,0,0,.77.27,3.52,3.52,0,0,0,.73-.1v1.24a4.52,4.52,0,0,1-1.18.16,1.89,1.89,0,0,1-1.55-.62,2.65,2.65,0,0,1-.53-1.77V204.9H369.7v-1.18h1.63v-2.18Z"/><path d="M381.88,212.7a3.14,3.14,0,0,1-.21-.95,3.45,3.45,0,0,1-2.56,1.11,3.19,3.19,0,0,1-2.18-.75,2.44,2.44,0,0,1-.85-1.9,2.54,2.54,0,0,1,1.07-2.18,5,5,0,0,1,3-.78h1.49v-.7a1.7,1.7,0,0,0-.48-1.28,1.92,1.92,0,0,0-1.42-.48,2.28,2.28,0,0,0-1.38.41,1.22,1.22,0,0,0-.55,1h-1.55a2.12,2.12,0,0,1,.48-1.3,3.2,3.2,0,0,1,1.3-1,4.22,4.22,0,0,1,1.79-.37,3.51,3.51,0,0,1,2.43.78,2.79,2.79,0,0,1,.92,2.13v4.14a5,5,0,0,0,.31,2v.14Zm-2.54-1.17a2.66,2.66,0,0,0,1.36-.38,2.19,2.19,0,0,0,.94-1v-1.84h-1.2q-2.82,0-2.82,1.65a1.4,1.4,0,0,0,.48,1.13A1.85,1.85,0,0,0,379.34,211.53Z"/><path d="M385.59,201.34a1,1,0,0,1,.23-.64.86.86,0,0,1,.68-.25.88.88,0,0,1,.68.25,1,1,0,0,1,.23.64.83.83,0,0,1-.91.87.9.9,0,0,1-.68-.25A.91.91,0,0,1,385.59,201.34Zm1.66,11.36h-1.53v-9h1.53Z"/><path d="M391.16,203.72l0,1.13a3.26,3.26,0,0,1,2.69-1.3c1.9,0,2.85,1.07,2.87,3.21v5.94h-1.53v-5.94a2.1,2.1,0,0,0-.45-1.44,1.77,1.77,0,0,0-1.35-.47,2.29,2.29,0,0,0-1.32.4,2.82,2.82,0,0,0-.88,1.05v6.4h-1.53v-9Z"/><path d="M404.63,212.7a3.14,3.14,0,0,1-.21-.95,3.45,3.45,0,0,1-2.56,1.11,3.17,3.17,0,0,1-2.18-.75,2.41,2.41,0,0,1-.85-1.9A2.52,2.52,0,0,1,399.9,208a5,5,0,0,1,3-.78h1.49v-.7a1.7,1.7,0,0,0-.48-1.28,1.94,1.94,0,0,0-1.42-.48,2.28,2.28,0,0,0-1.38.41,1.22,1.22,0,0,0-.55,1H399a2.12,2.12,0,0,1,.48-1.3,3.23,3.23,0,0,1,1.29-1,4.3,4.3,0,0,1,1.8-.37,3.51,3.51,0,0,1,2.43.78,2.78,2.78,0,0,1,.91,2.13v4.14a5,5,0,0,0,.32,2v.14Zm-2.55-1.17a2.7,2.7,0,0,0,1.37-.38,2.25,2.25,0,0,0,.94-1v-1.84h-1.2q-2.82,0-2.82,1.65a1.4,1.4,0,0,0,.48,1.13A1.84,1.84,0,0,0,402.08,211.53Z"/><path d="M415.93,208.31a5.32,5.32,0,0,1-.94,3.3,3,3,0,0,1-2.54,1.25,3.13,3.13,0,0,1-2.63-1.2l-.08,1h-1.41V200h1.54v4.76a3.11,3.11,0,0,1,2.56-1.16,3,3,0,0,1,2.57,1.24,5.49,5.49,0,0,1,.93,3.38Zm-1.53-.18a4.1,4.1,0,0,0-.61-2.42,2,2,0,0,0-1.74-.86,2.26,2.26,0,0,0-2.18,1.42v3.88a2.31,2.31,0,0,0,2.2,1.41,2,2,0,0,0,1.71-.85A4.42,4.42,0,0,0,414.4,208.13Z"/><path d="M419.54,212.7H418V200h1.54Z"/><path d="M425.72,212.86a3.91,3.91,0,0,1-3-1.2,4.41,4.41,0,0,1-1.15-3.2v-.29a5.37,5.37,0,0,1,.51-2.38,4,4,0,0,1,1.43-1.64,3.55,3.55,0,0,1,2-.6,3.37,3.37,0,0,1,2.72,1.16,5,5,0,0,1,1,3.3v.64h-6.08a3.19,3.19,0,0,0,.77,2.14,2.44,2.44,0,0,0,1.89.82,2.71,2.71,0,0,0,1.38-.33,3.73,3.73,0,0,0,1-.88l.93.73A3.75,3.75,0,0,1,425.72,212.86Zm-.19-8.05a2.05,2.05,0,0,0-1.56.68,3.28,3.28,0,0,0-.78,1.9h4.5v-.12a2.93,2.93,0,0,0-.64-1.81A1.91,1.91,0,0,0,425.53,204.81Z"/><path d="M437.29,201.54v2.18H439v1.18h-1.67v5.58a1.24,1.24,0,0,0,.22.81,1,1,0,0,0,.77.27,3.52,3.52,0,0,0,.73-.1v1.24a4.52,4.52,0,0,1-1.18.16,1.87,1.87,0,0,1-1.55-.62,2.65,2.65,0,0,1-.53-1.77V204.9h-1.63v-1.18h1.63v-2.18Z"/><path d="M440.18,208.12a5.36,5.36,0,0,1,.52-2.37,4,4,0,0,1,1.45-1.63,3.92,3.92,0,0,1,2.11-.57,3.83,3.83,0,0,1,3,1.27,4.91,4.91,0,0,1,1.13,3.38v.11a5.4,5.4,0,0,1-.5,2.35,3.85,3.85,0,0,1-1.44,1.62,4,4,0,0,1-2.14.58,3.76,3.76,0,0,1-3-1.27,4.82,4.82,0,0,1-1.14-3.36Zm1.55.19a3.88,3.88,0,0,0,.69,2.4,2.22,2.22,0,0,0,1.86.9,2.2,2.2,0,0,0,1.85-.92,4.18,4.18,0,0,0,.69-2.57,3.81,3.81,0,0,0-.7-2.39,2.24,2.24,0,0,0-1.86-.92,2.21,2.21,0,0,0-1.84.91A4.18,4.18,0,0,0,441.73,208.31Z"/><path d="M455.83,211.81a3.28,3.28,0,0,1-2.63,1.05A2.78,2.78,0,0,1,451,212a3.65,3.65,0,0,1-.76-2.47v-5.84h1.54v5.8c0,1.36.55,2,1.66,2a2.31,2.31,0,0,0,2.34-1.31v-6.53h1.53v9h-1.46Z"/><path d="M464,205.1a4.38,4.38,0,0,0-.75-.06,2,2,0,0,0-2.05,1.28v6.38h-1.54v-9h1.5l0,1a2.39,2.39,0,0,1,2.14-1.21,1.5,1.5,0,0,1,.68.12Z"/><path d="M465.41,201.34a1,1,0,0,1,.23-.64.86.86,0,0,1,.68-.25.88.88,0,0,1,.68.25,1,1,0,0,1,.23.64.83.83,0,0,1-.91.87.9.9,0,0,1-.68-.25A.91.91,0,0,1,465.41,201.34Zm1.66,11.36h-1.53v-9h1.53Z"/><path d="M474.76,210.32a1.14,1.14,0,0,0-.47-1,4.4,4.4,0,0,0-1.64-.59,8.19,8.19,0,0,1-1.85-.6,2.67,2.67,0,0,1-1-.83,2,2,0,0,1-.33-1.15,2.3,2.3,0,0,1,.94-1.86,3.64,3.64,0,0,1,2.38-.77,3.73,3.73,0,0,1,2.48.79,2.53,2.53,0,0,1,.95,2h-1.54a1.38,1.38,0,0,0-.54-1.09,2,2,0,0,0-1.35-.46,2.06,2.06,0,0,0-1.31.37,1.15,1.15,0,0,0-.47.95.94.94,0,0,0,.44.84,5.24,5.24,0,0,0,1.59.54,8.61,8.61,0,0,1,1.86.61A2.76,2.76,0,0,1,476,209a2.14,2.14,0,0,1,.34,1.23,2.31,2.31,0,0,1-1,1.93,4.05,4.05,0,0,1-2.5.72,4.46,4.46,0,0,1-1.91-.38,3.08,3.08,0,0,1-1.29-1.06,2.55,2.55,0,0,1-.47-1.49h1.53a1.61,1.61,0,0,0,.62,1.23,2.39,2.39,0,0,0,1.52.45,2.52,2.52,0,0,0,1.4-.35A1.1,1.1,0,0,0,474.76,210.32Z"/><path d="M479.74,203.72l0,1a3.33,3.33,0,0,1,2.66-1.16A2.57,2.57,0,0,1,485,205a3.32,3.32,0,0,1,2.86-1.45q3,0,3,3.13v6h-1.54v-5.93a2.08,2.08,0,0,0-.44-1.44,1.93,1.93,0,0,0-1.48-.48,2,2,0,0,0-1.42.52,2.07,2.07,0,0,0-.65,1.37v6H483.8v-5.89a1.71,1.71,0,0,0-1.91-2,2.06,2.06,0,0,0-2.07,1.29v6.56h-1.53v-9Z"/><rect class="cls-5" x="44.52" y="44" width="162.01" height="162.01" transform="translate(125.52 -52.15) rotate(45.12)"/><g class="cls-6"><path class="cls-7" d="M125.31,227.9,22.63,124.79,125.74,22.1,228.43,125.21ZM25.8,124.79l99.52,99.93,99.93-99.51L125.74,25.28Zm99.54,90L91.07,180.42l26.32-26.21L92,128.69l-18.11,18,11.91,12,5-4.93-7-7,8.2-8.16,15.54,15.6L86.13,175.46l-30-30.09L76.73,124.9,56.26,104.34l30.08-30,21.28,21.36L92,111.28l-8.16-8.2,7-7-4.94-5L74,103.06l18,18.11,25.52-25.41L91.3,69.44l34.42-34.27L160,69.58,133.67,95.79l25.41,25.52,18.1-18-11.91-12-5,4.93,7,7-8.19,8.16L143.56,95.81l21.36-21.27,30,30.09L174.33,125.1l20.47,20.56-30.09,30-21.27-21.36L159,138.72l8.16,8.2-7,7,4.93,5,12-11.91-18-18.11-25.51,25.41,26.21,26.32ZM94.25,180.42l31.1,31.23,31.23-31.1-26.21-26.32,28.7-28.58,21.2,21.29L165.13,162,157,153.88l7-7-5-5-12.42,12.37,18.1,18.17,26.9-26.79L171.15,125.1l20.56-20.48-26.79-26.9-18.18,18.1,12.37,12.42,5-5-7-7,8.14-8.11,15.08,15.14-21.29,21.21-28.58-28.7,26.32-26.21-31.1-31.23L94.48,69.45l26.21,26.32L92,124.35,70.78,103.06,85.93,88,94,96.11l-7,7,5,5,12.42-12.37L86.34,77.56l-26.9,26.79L79.91,124.9,59.35,145.38l26.79,26.9,18.18-18.1L92,141.76l-5,5,7,7-8.14,8.11L70.69,146.71,92,125.51l28.59,28.7Zm105.51-39.69-15.54-15.61,15.6-15.54,15.54,15.61Zm-12.36-15.6,12.36,12.42,12.42-12.37-12.37-12.42ZM51.24,140.42,35.7,124.81l15.6-15.54,15.54,15.61Zm-12.36-15.6,12.36,12.42,12.42-12.37L51.29,112.45Z"/><path class="cls-7" d="M125.36,204.22l-24-24.14L125.46,156l24,24.15ZM104.5,180.08l20.87,21,21-20.87-20.87-21Z"/><path class="cls-7" d="M125.59,93.3l-24-24.15,24.14-24,24.05,24.14ZM104.73,69.16l20.87,21,21-20.87-20.87-21Z"/></g><path class="cls-7" d="M113.24,135.22h-7.41v-3.31a15.28,15.28,0,0,0,9.35-13.57,5.68,5.68,0,0,0,5-5.63,5.62,5.62,0,0,0-1.8-4.1c.21-1,.21-3-.32-7.49-1.08-9.07-10-10-10.09-10H92.45c-6.39,0-8.63-2.53-8.65-2.55l-1.71-2.12v21.69a5.65,5.65,0,0,0,2.7,10.18,15.28,15.28,0,0,0,9.35,13.57v3.31H86.73a11,11,0,0,0-11,10.95v14.06H124.2V146.17A11,11,0,0,0,113.24,135.22Zm2-26.21a3.76,3.76,0,0,1,0,7.4Zm1.41-1.59a2,2,0,0,1-.23-.06,6.06,6.06,0,0,0-.61-.16,4.74,4.74,0,0,0-.57-.15v-3.52h0v-.08l-.55-.21-.56-.31a8.39,8.39,0,0,1-1.22-.82l-.17-.14a4.21,4.21,0,0,1-.71-.75,6.44,6.44,0,0,1-.82-1.54s-.07-.18-.22-.6l-.78-2.14-1,2c-1.64,3.41-5.17,4.8-9,5.21-.24,0-.47,0-.72.06h-.17A48.14,48.14,0,0,1,86,102.59l-1.22-.38v4.87a4.79,4.79,0,0,0-.77.17V91.14a16.29,16.29,0,0,0,8.44,1.92h15.46a9.26,9.26,0,0,1,8.26,8.3A43.21,43.21,0,0,1,116.6,107.42Zm-29.9,1.33v-4a46.35,46.35,0,0,0,9.3,1.45c5.21.24,9.28-.78,12-2.93.2-.15.39-.3.56-.45l.28-.24a8.53,8.53,0,0,0,1-1.14,8.39,8.39,0,0,0,.55.86,6.75,6.75,0,0,0,1,1.1l.17.14a5.46,5.46,0,0,0,.47.31,8.33,8.33,0,0,0,1.16.81v13.18a13.29,13.29,0,1,1-26.57,0Zm-1.92.47v7.19a3.74,3.74,0,0,1-1.3-6.88Zm11.28,23.33a14.8,14.8,0,0,0,7.85,0v2.66H96.06Zm-9.7,9.6,3.6-4.64,1.46,5.14Zm22.19.5,1.46-5.14,3.6,4.64Zm-3.31,11.69,2.71-9.58,3.63,3.9Zm2.53-17.21a9.41,9.41,0,0,1-15.58,0ZM88.39,148.66l3.63-3.9,2.7,9.58Zm-10.7,9.65V146.17a9,9,0,0,1,9-9h1.1l-5.12,6.59,7,.69-4.06,4.37,10.62,9.53Zm22.12-15.13h.35a10.72,10.72,0,0,0,6.93-2.41l-5,17.54H97.84l-5-17.54A10.7,10.7,0,0,0,99.81,143.18Zm14.5,5.6-4.06-4.37,7-.69-5.12-6.59h1.1a9.06,9.06,0,0,1,9,9v12.14H103.69Z"/><path class="cls-7" d="M98.58,116.13h2.81a5.05,5.05,0,1,0,0-1.92H98.58a5.05,5.05,0,1,0,0,1.92Zm-8.09-1a3.13,3.13,0,1,1,3.13,3.14A3.13,3.13,0,0,1,90.49,115.17Zm12.73,0a3.13,3.13,0,1,1,3.13,3.14A3.13,3.13,0,0,1,103.22,115.17Z"/><path class="cls-7" d="M100.38,126.55a.73.73,0,0,1-.13.4.41.41,0,0,1-.27.07c-.26,0-.39-.19-.39-.59v-2H97.67v2a2.79,2.79,0,0,0,.72,1.9,2.36,2.36,0,0,0,3.22,0,2.61,2.61,0,0,0,.69-1.76v-2.1h-1.92Z"/><path class="cls-7" d="M164.33,135.22h-7.42v-3.31h0a15.25,15.25,0,0,0,4.61-3,6.24,6.24,0,0,0,3.41,1.74,5.8,5.8,0,0,0,1.33.15c1.54,0,4.25-.6,5.19-4.6a4.88,4.88,0,0,0-.6-3.9,8.62,8.62,0,0,0-4.66-3.14c0-.26.07-.51.08-.78a5.64,5.64,0,0,0,1.57-10.8v0h0l.94-7.45V100a13.05,13.05,0,0,0-13-13H147A13.07,13.07,0,0,0,134,100l.32,7.5h0v0a5.65,5.65,0,0,0,1.56,10.81c0,.14,0,.27,0,.41a6.09,6.09,0,0,0-3.32,1.16c-1.05.68-4.27,3.25-1.47,7.76a5,5,0,0,0,3.19,2.34,5.91,5.91,0,0,0,1.21.12,10,10,0,0,0,4.83-1.51,15.14,15.14,0,0,0,4.88,3.28h0v3.31h-7.42a11,11,0,0,0-11,10.95v14.06h48.42V146.17A11,11,0,0,0,164.33,135.22Zm-29.61-7.09a3,3,0,0,1-2-1.47c-1.67-2.69-.42-4.3.94-5.18a4.24,4.24,0,0,1,2.44-.81,15,15,0,0,0,2.93,6.48A6.89,6.89,0,0,1,134.72,128.13ZM135.86,109v7.4a3.76,3.76,0,0,1,0-7.4Zm33.37,14.29a3,3,0,0,1,.35,2.42c-.72,3.09-2.74,3.34-4.33,3a4.49,4.49,0,0,1-2.42-1.27,15,15,0,0,0,3.08-6.41A6.39,6.39,0,0,1,169.23,123.3Zm-31.45-14.83v-3.81l.11-.06a9.7,9.7,0,0,0,1.53-1l.17-.14a6.29,6.29,0,0,0,1-1.1,7,7,0,0,0,.55-.86c2.57,3.41,7.36,5.06,13.89,4.76a46.35,46.35,0,0,0,9.3-1.45v13.09a13.29,13.29,0,0,1-26.58,0ZM135.91,100A11.13,11.13,0,0,1,147,88.83h8.72a11.14,11.14,0,0,1,11.12,11l-.59,4.69v-2.35l-1.25.39c-.18.06-18.66,5.68-23.15-3.62l-1-2-.78,2.14c-.17.46-.22.59-.24.63a6.1,6.1,0,0,1-.81,1.51,4.15,4.15,0,0,1-.7.75l-.17.14a8.39,8.39,0,0,1-1.22.82l-.92.5ZM155,135.21h-7.84v-2.67a14.5,14.5,0,0,0,7.84,0v2.67Zm11.29-18.8V109a3.76,3.76,0,0,1,0,7.4Zm-28.84,25.74,3.61-4.64,1.46,5.14Zm22.19.5,1.46-5.14,3.61,4.64Zm-3.3,11.69,2.71-9.58,3.62,3.9Zm-5.25-13.08a9.51,9.51,0,0,1-7.8-4.13h15.58A9.46,9.46,0,0,1,151.08,141.26Zm-11.6,7.4,3.62-3.9,2.71,9.58Zm-10.7,9.65V146.17a9,9,0,0,1,9-9h1.1l-5.11,6.59,7,.69-4.06,4.37,10.62,9.53Zm22.12-15.13h.34a10.7,10.7,0,0,0,6.93-2.41l-4.95,17.54h-4.29l-5-17.54A10.7,10.7,0,0,0,150.9,143.18Zm14.49,5.6-4.06-4.37,7-.69-5.11-6.59h1.1a9.06,9.06,0,0,1,9,9v12.14h-18.6Z"/><path class="cls-7" d="M149.66,116.13h2.82a5.05,5.05,0,1,0,0-1.92h-2.82a5.05,5.05,0,1,0,0,1.92Zm-1.82-1a3.14,3.14,0,1,1-3.13-3.13A3.14,3.14,0,0,1,147.84,115.17Zm6.46,0a3.14,3.14,0,1,1,3.14,3.14A3.14,3.14,0,0,1,154.3,115.17Z"/><path class="cls-7" d="M151.47,126.43c0,.27-.07.59-.4.59a.39.39,0,0,1-.26-.06.8.8,0,0,1-.14-.41v-2.11h-1.92v2.1a2.57,2.57,0,0,0,.69,1.76,2.37,2.37,0,0,0,3.23,0,2.84,2.84,0,0,0,.72-1.89v-2h-1.92Z"/></svg>