<svg id="Layer_1" data-name="Layer 1" xmlns="http://www.w3.org/2000/svg" viewBox="0 0 654 250"><defs><style>.cls-1{fill:#49773d;}.cls-2{opacity:0.15;}.cls-3{fill:#fff;}.cls-4{fill:none;stroke:#49773d;stroke-miterlimit:10;stroke-width:2.6px;}</style></defs><path d="M282.13,126.13a3,3,0,0,1-.2-.88,3.17,3.17,0,0,1-2.37,1,3,3,0,0,1-2-.7,2.26,2.26,0,0,1-.79-1.77,2.37,2.37,0,0,1,1-2,4.68,4.68,0,0,1,2.79-.72h1.39v-.65a1.62,1.62,0,0,0-.45-1.2,1.83,1.83,0,0,0-1.32-.44,2.07,2.07,0,0,0-1.28.39,1.14,1.14,0,0,0-.52.93h-1.43a2,2,0,0,1,.44-1.21,3.17,3.17,0,0,1,1.21-.92,4.12,4.12,0,0,1,1.67-.34,3.31,3.31,0,0,1,2.26.72,2.62,2.62,0,0,1,.84,2v3.84a4.59,4.59,0,0,0,.3,1.83v.12ZM279.76,125a2.53,2.53,0,0,0,1.28-.34,2.06,2.06,0,0,0,.87-.91v-1.71h-1.12c-1.75,0-2.62.51-2.62,1.54a1.34,1.34,0,0,0,.44,1A1.75,1.75,0,0,0,279.76,125Z"/><path d="M286.92,117.79l.05,1a3,3,0,0,1,2.5-1.21c1.76,0,2.65,1,2.67,3v5.51h-1.43v-5.52a1.92,1.92,0,0,0-.41-1.33,1.66,1.66,0,0,0-1.27-.44,2.09,2.09,0,0,0-1.21.37,2.46,2.46,0,0,0-.82,1v5.94h-1.43v-8.34Z"/><path d="M293.94,121.89a4.87,4.87,0,0,1,.91-3.09,2.88,2.88,0,0,1,2.38-1.17,2.94,2.94,0,0,1,2.33,1v-4.35H301v11.85h-1.31l-.07-.89a2.89,2.89,0,0,1-2.38,1.05,2.86,2.86,0,0,1-2.37-1.19,4.94,4.94,0,0,1-.91-3.1Zm1.43.16a3.69,3.69,0,0,0,.58,2.22,1.89,1.89,0,0,0,1.62.81,2.1,2.1,0,0,0,2-1.22V120a2.12,2.12,0,0,0-2-1.18,1.91,1.91,0,0,0-1.64.81A4.09,4.09,0,0,0,295.37,122.05Z"/><path d="M312,123.92a1,1,0,0,0-.44-.9,4.2,4.2,0,0,0-1.52-.55,7.37,7.37,0,0,1-1.72-.56,2.38,2.38,0,0,1-.94-.77,1.86,1.86,0,0,1-.3-1.06,2.15,2.15,0,0,1,.86-1.74,3.42,3.42,0,0,1,2.22-.71,3.52,3.52,0,0,1,2.3.73,2.34,2.34,0,0,1,.89,1.88h-1.44a1.26,1.26,0,0,0-.5-1,1.88,1.88,0,0,0-1.25-.43,2,2,0,0,0-1.22.34,1.09,1.09,0,0,0-.44.89.86.86,0,0,0,.41.78,5.23,5.23,0,0,0,1.48.5,7.77,7.77,0,0,1,1.73.57,2.51,2.51,0,0,1,1,.8,1.91,1.91,0,0,1,.32,1.14,2.15,2.15,0,0,1-.89,1.79,3.76,3.76,0,0,1-2.32.68,4.19,4.19,0,0,1-1.78-.36,2.87,2.87,0,0,1-1.2-1,2.31,2.31,0,0,1-.44-1.38h1.43a1.45,1.45,0,0,0,.57,1.14,2.24,2.24,0,0,0,1.42.42,2.3,2.3,0,0,0,1.3-.33A1,1,0,0,0,312,123.92Z"/><path d="M322.3,122.05a5,5,0,0,1-.87,3.07,2.79,2.79,0,0,1-2.36,1.17,3,3,0,0,1-2.39-1v4h-1.43V117.79h1.31l.06.92a3,3,0,0,1,2.43-1.08,2.85,2.85,0,0,1,2.38,1.14,5,5,0,0,1,.87,3.15Zm-1.43-.16a3.71,3.71,0,0,0-.6-2.23,2,2,0,0,0-1.65-.82,2.11,2.11,0,0,0-1.94,1.15v4a2.1,2.1,0,0,0,2,1.14,1.94,1.94,0,0,0,1.63-.81A4.05,4.05,0,0,0,320.87,121.89Z"/><path d="M329.27,126.13a2.94,2.94,0,0,1-.21-.88,3.17,3.17,0,0,1-2.37,1,3,3,0,0,1-2-.7,2.29,2.29,0,0,1-.79-1.77,2.35,2.35,0,0,1,1-2,4.67,4.67,0,0,1,2.78-.72H329v-.65a1.66,1.66,0,0,0-.44-1.2,1.83,1.83,0,0,0-1.32-.44,2.05,2.05,0,0,0-1.28.39,1.12,1.12,0,0,0-.52.93H324a2,2,0,0,1,.45-1.21,3.06,3.06,0,0,1,1.2-.92,4.15,4.15,0,0,1,1.67-.34,3.3,3.3,0,0,1,2.26.72,2.6,2.6,0,0,1,.85,2v3.84a4.79,4.79,0,0,0,.29,1.83v.12ZM326.9,125a2.49,2.49,0,0,0,1.27-.34,2.06,2.06,0,0,0,.87-.91v-1.71h-1.12c-1.74,0-2.62.51-2.62,1.54a1.32,1.32,0,0,0,.45,1A1.73,1.73,0,0,0,326.9,125Z"/><path d="M334.64,115.77v2h1.56v1.1h-1.56v5.18a1.12,1.12,0,0,0,.21.75.88.88,0,0,0,.71.26,3.69,3.69,0,0,0,.68-.1v1.15a3.9,3.9,0,0,1-1.1.16,1.8,1.8,0,0,1-1.44-.58,2.53,2.53,0,0,1-.48-1.65v-5.17H331.7v-1.1h1.52v-2Z"/><path d="M337.87,115.57a.81.81,0,0,1,.22-.58.79.79,0,0,1,.63-.24.82.82,0,0,1,.63.24.84.84,0,0,1,.21.58.83.83,0,0,1-.21.58.82.82,0,0,1-.63.23.78.78,0,0,1-.85-.81Zm1.55,10.56H338v-8.34h1.43Z"/><path d="M346.85,126.13a3,3,0,0,1-.2-.88,3.17,3.17,0,0,1-2.37,1,3,3,0,0,1-2-.7,2.26,2.26,0,0,1-.79-1.77,2.37,2.37,0,0,1,1-2,4.68,4.68,0,0,1,2.79-.72h1.39v-.65a1.62,1.62,0,0,0-.45-1.2,1.83,1.83,0,0,0-1.32-.44,2.07,2.07,0,0,0-1.28.39,1.14,1.14,0,0,0-.52.93h-1.43a2,2,0,0,1,.44-1.21,3.17,3.17,0,0,1,1.21-.92,4.12,4.12,0,0,1,1.67-.34,3.31,3.31,0,0,1,2.26.72,2.67,2.67,0,0,1,.85,2v3.84a4.61,4.61,0,0,0,.29,1.83v.12ZM344.48,125a2.53,2.53,0,0,0,1.28-.34,2.06,2.06,0,0,0,.87-.91v-1.71h-1.12c-1.75,0-2.62.51-2.62,1.54a1.34,1.34,0,0,0,.44,1A1.75,1.75,0,0,0,344.48,125Z"/><path d="M351.84,126.13h-1.42V114.28h1.42Z"/><path d="M363.19,126.13a3,3,0,0,1-.2-.88,3.21,3.21,0,0,1-2.38,1,3,3,0,0,1-2-.7,2.26,2.26,0,0,1-.79-1.77,2.37,2.37,0,0,1,1-2,4.68,4.68,0,0,1,2.79-.72H363v-.65a1.62,1.62,0,0,0-.45-1.2,1.83,1.83,0,0,0-1.32-.44,2.05,2.05,0,0,0-1.28.39,1.12,1.12,0,0,0-.52.93H358a1.94,1.94,0,0,1,.44-1.21,3.21,3.21,0,0,1,1.2-.92,4.19,4.19,0,0,1,1.67-.34,3.3,3.3,0,0,1,2.26.72,2.6,2.6,0,0,1,.85,2v3.84a4.59,4.59,0,0,0,.3,1.83v.12ZM360.82,125a2.49,2.49,0,0,0,1.27-.34,2.14,2.14,0,0,0,.88-.91v-1.71h-1.12c-1.75,0-2.63.51-2.63,1.54a1.32,1.32,0,0,0,.45,1A1.73,1.73,0,0,0,360.82,125Z"/><path d="M368,117.79l0,1a3,3,0,0,1,2.5-1.21c1.77,0,2.66,1,2.67,3v5.51h-1.42v-5.52a1.92,1.92,0,0,0-.42-1.33,1.65,1.65,0,0,0-1.26-.44,2.12,2.12,0,0,0-1.22.37,2.43,2.43,0,0,0-.81,1v5.94h-1.43v-8.34Z"/><path d="M380.5,126.13a3,3,0,0,1-.2-.88,3.21,3.21,0,0,1-2.38,1,3,3,0,0,1-2-.7,2.26,2.26,0,0,1-.79-1.77,2.37,2.37,0,0,1,1-2,4.68,4.68,0,0,1,2.79-.72h1.38v-.65a1.66,1.66,0,0,0-.44-1.2,1.83,1.83,0,0,0-1.32-.44,2.05,2.05,0,0,0-1.28.39,1.12,1.12,0,0,0-.52.93h-1.43a1.94,1.94,0,0,1,.44-1.21,3.21,3.21,0,0,1,1.2-.92,4.19,4.19,0,0,1,1.67-.34,3.3,3.3,0,0,1,2.26.72,2.6,2.6,0,0,1,.85,2v3.84A4.79,4.79,0,0,0,382,126v.12ZM378.13,125a2.49,2.49,0,0,0,1.27-.34,2.06,2.06,0,0,0,.87-.91v-1.71h-1.11c-1.75,0-2.63.51-2.63,1.54a1.32,1.32,0,0,0,.45,1A1.73,1.73,0,0,0,378.13,125Z"/><path d="M385.49,126.13h-1.43V114.28h1.43Z"/><path d="M390.5,124l1.94-6.25H394l-3.35,9.63c-.52,1.39-1.35,2.08-2.48,2.08l-.27,0-.53-.1v-1.16l.38,0a1.85,1.85,0,0,0,1.13-.29,2.1,2.1,0,0,0,.67-1.07l.32-.85-3-8.25h1.56Z"/><path d="M400.1,123.92a1,1,0,0,0-.43-.9,4.2,4.2,0,0,0-1.52-.55,7.21,7.21,0,0,1-1.72-.56,2.31,2.31,0,0,1-.94-.77,1.79,1.79,0,0,1-.31-1.06,2.16,2.16,0,0,1,.87-1.74,3.42,3.42,0,0,1,2.22-.71,3.54,3.54,0,0,1,2.3.73,2.34,2.34,0,0,1,.88,1.88H400a1.29,1.29,0,0,0-.5-1,1.88,1.88,0,0,0-1.25-.43,2,2,0,0,0-1.22.34,1.09,1.09,0,0,0-.44.89.86.86,0,0,0,.41.78,5.11,5.11,0,0,0,1.48.5,8,8,0,0,1,1.73.57,2.51,2.51,0,0,1,1,.8,2,2,0,0,1,.32,1.14,2.15,2.15,0,0,1-.89,1.79,3.77,3.77,0,0,1-2.33.68,4.15,4.15,0,0,1-1.77-.36,2.9,2.9,0,0,1-1.21-1,2.37,2.37,0,0,1-.43-1.38h1.42a1.49,1.49,0,0,0,.58,1.14,2.23,2.23,0,0,0,1.41.42,2.28,2.28,0,0,0,1.3-.33A1,1,0,0,0,400.1,123.92Z"/><path d="M406.85,126.29a3.66,3.66,0,0,1-2.76-1.12,4.12,4.12,0,0,1-1.06-3v-.26a5.1,5.1,0,0,1,.47-2.22,3.75,3.75,0,0,1,1.33-1.53,3.39,3.39,0,0,1,1.85-.55,3.16,3.16,0,0,1,2.53,1.07,4.66,4.66,0,0,1,.9,3.07v.6h-5.66a3,3,0,0,0,.73,2,2.24,2.24,0,0,0,1.75.76,2.45,2.45,0,0,0,1.28-.31,3.22,3.22,0,0,0,.92-.81l.87.67A3.5,3.5,0,0,1,406.85,126.29Zm-.17-7.49a1.89,1.89,0,0,0-1.45.63,3,3,0,0,0-.73,1.77h4.18v-.11a2.77,2.77,0,0,0-.58-1.69A1.8,1.8,0,0,0,406.68,118.8Z"/><path d="M416.62,123.92a1,1,0,0,0-.44-.9,4.2,4.2,0,0,0-1.52-.55,7.37,7.37,0,0,1-1.72-.56,2.38,2.38,0,0,1-.94-.77,1.86,1.86,0,0,1-.3-1.06,2.18,2.18,0,0,1,.86-1.74,3.42,3.42,0,0,1,2.22-.71,3.5,3.5,0,0,1,2.3.73,2.34,2.34,0,0,1,.89,1.88h-1.44a1.26,1.26,0,0,0-.5-1,1.86,1.86,0,0,0-1.25-.43,2,2,0,0,0-1.22.34,1.09,1.09,0,0,0-.44.89.86.86,0,0,0,.41.78,5.23,5.23,0,0,0,1.48.5,7.77,7.77,0,0,1,1.73.57,2.51,2.51,0,0,1,1,.8,1.91,1.91,0,0,1,.32,1.14,2.12,2.12,0,0,1-.89,1.79,3.76,3.76,0,0,1-2.32.68,4.19,4.19,0,0,1-1.78-.36,2.87,2.87,0,0,1-1.2-1,2.38,2.38,0,0,1-.44-1.38h1.43a1.48,1.48,0,0,0,.57,1.14,2.24,2.24,0,0,0,1.42.42,2.3,2.3,0,0,0,1.3-.33A1,1,0,0,0,416.62,123.92Z"/><path d="M428.67,123.92a1,1,0,0,0-.43-.9,4.2,4.2,0,0,0-1.52-.55,7.21,7.21,0,0,1-1.72-.56,2.31,2.31,0,0,1-.94-.77,1.79,1.79,0,0,1-.31-1.06,2.16,2.16,0,0,1,.87-1.74,3.42,3.42,0,0,1,2.22-.71,3.54,3.54,0,0,1,2.3.73,2.34,2.34,0,0,1,.88,1.88h-1.43a1.29,1.29,0,0,0-.5-1,1.88,1.88,0,0,0-1.25-.43,2,2,0,0,0-1.22.34,1.09,1.09,0,0,0-.44.89.84.84,0,0,0,.41.78,5.14,5.14,0,0,0,1.47.5,7.87,7.87,0,0,1,1.74.57,2.51,2.51,0,0,1,1,.8,2,2,0,0,1,.32,1.14,2.15,2.15,0,0,1-.89,1.79,3.79,3.79,0,0,1-2.33.68,4.15,4.15,0,0,1-1.77-.36,2.9,2.9,0,0,1-1.21-1,2.37,2.37,0,0,1-.43-1.38h1.42a1.49,1.49,0,0,0,.58,1.14,2.23,2.23,0,0,0,1.41.42,2.28,2.28,0,0,0,1.3-.33A1,1,0,0,0,428.67,123.92Z"/><path d="M433.9,115.77v2h1.55v1.1H433.9v5.18a1.12,1.12,0,0,0,.2.75.88.88,0,0,0,.71.26,3.69,3.69,0,0,0,.68-.1v1.15a3.84,3.84,0,0,1-1.09.16,1.82,1.82,0,0,1-1.45-.58,2.53,2.53,0,0,1-.48-1.65v-5.17H431v-1.1h1.52v-2Z"/><path d="M442.27,125.31a3,3,0,0,1-2.44,1,2.61,2.61,0,0,1-2-.78,3.35,3.35,0,0,1-.7-2.29v-5.43h1.43v5.39c0,1.26.51,1.9,1.54,1.9a2.13,2.13,0,0,0,2.17-1.22v-6.07h1.43v8.34H442.3Z"/><path d="M445.48,121.89a4.87,4.87,0,0,1,.91-3.09,2.88,2.88,0,0,1,2.38-1.17,2.94,2.94,0,0,1,2.33,1v-4.35h1.42v11.85h-1.31l-.07-.89a2.89,2.89,0,0,1-2.38,1.05,2.86,2.86,0,0,1-2.37-1.19,4.94,4.94,0,0,1-.91-3.1Zm1.43.16a3.69,3.69,0,0,0,.58,2.22,1.89,1.89,0,0,0,1.62.81,2.1,2.1,0,0,0,2-1.22V120a2.12,2.12,0,0,0-2-1.18,1.91,1.91,0,0,0-1.64.81A4.09,4.09,0,0,0,446.91,122.05Z"/><path d="M457.47,124l1.94-6.25h1.53l-3.36,9.63c-.52,1.39-1.34,2.08-2.47,2.08l-.27,0-.54-.1v-1.16l.39,0a1.87,1.87,0,0,0,1.13-.29,2.17,2.17,0,0,0,.67-1.07l.31-.85-3-8.25h1.55Z"/><path d="M471.27,126.13a3,3,0,0,1-.2-.88,3.17,3.17,0,0,1-2.37,1,3,3,0,0,1-2-.7,2.29,2.29,0,0,1-.79-1.77,2.37,2.37,0,0,1,1-2,4.68,4.68,0,0,1,2.79-.72h1.39v-.65a1.62,1.62,0,0,0-.45-1.2,1.83,1.83,0,0,0-1.32-.44,2.07,2.07,0,0,0-1.28.39,1.13,1.13,0,0,0-.51.93h-1.44a2,2,0,0,1,.44-1.21,3.17,3.17,0,0,1,1.21-.92,4.12,4.12,0,0,1,1.67-.34,3.31,3.31,0,0,1,2.26.72,2.63,2.63,0,0,1,.85,2v3.84a4.61,4.61,0,0,0,.29,1.83v.12ZM468.9,125a2.53,2.53,0,0,0,1.28-.34,2.06,2.06,0,0,0,.87-.91v-1.71h-1.12c-1.75,0-2.62.51-2.62,1.54a1.32,1.32,0,0,0,.45,1A1.7,1.7,0,0,0,468.9,125Z"/><path d="M478.75,119.07a3.88,3.88,0,0,0-.7-.06,1.88,1.88,0,0,0-1.91,1.2v5.92h-1.43v-8.34h1.39l0,1a2.25,2.25,0,0,1,2-1.12,1.53,1.53,0,0,1,.64.11Z"/><path d="M483.37,126.29a3.66,3.66,0,0,1-2.76-1.12,4.12,4.12,0,0,1-1.06-3v-.26a5.1,5.1,0,0,1,.47-2.22,3.75,3.75,0,0,1,1.33-1.53,3.39,3.39,0,0,1,1.85-.55,3.14,3.14,0,0,1,2.53,1.07,4.66,4.66,0,0,1,.9,3.07v.6H481a3,3,0,0,0,.72,2,2.24,2.24,0,0,0,1.75.76,2.43,2.43,0,0,0,1.28-.31,3.22,3.22,0,0,0,.92-.81l.87.67A3.5,3.5,0,0,1,483.37,126.29Zm-.17-7.49a1.89,1.89,0,0,0-1.45.63,3.06,3.06,0,0,0-.73,1.77h4.18v-.11a2.71,2.71,0,0,0-.58-1.69A1.8,1.8,0,0,0,483.2,118.8Z"/><path d="M494.13,115.77v2h1.56v1.1h-1.56v5.18a1.18,1.18,0,0,0,.2.75.88.88,0,0,0,.71.26,3.58,3.58,0,0,0,.68-.1v1.15a3.84,3.84,0,0,1-1.09.16,1.78,1.78,0,0,1-1.44-.58,2.48,2.48,0,0,1-.49-1.65v-5.17h-1.52v-1.1h1.52v-2Z"/><path d="M498.78,118.8a3,3,0,0,1,2.47-1.17c1.76,0,2.65,1,2.66,3v5.51h-1.42v-5.52a1.87,1.87,0,0,0-.42-1.33,1.62,1.62,0,0,0-1.26-.44,2.07,2.07,0,0,0-1.21.37,2.46,2.46,0,0,0-.82,1v5.94h-1.43V114.28h1.43Z"/><path d="M509.52,126.29a3.67,3.67,0,0,1-2.77-1.12,4.12,4.12,0,0,1-1.06-3v-.26a5.1,5.1,0,0,1,.47-2.22,3.75,3.75,0,0,1,1.33-1.53,3.39,3.39,0,0,1,1.85-.55,3.14,3.14,0,0,1,2.53,1.07,4.66,4.66,0,0,1,.9,3.07v.6h-5.65a3,3,0,0,0,.72,2,2.24,2.24,0,0,0,1.75.76,2.43,2.43,0,0,0,1.28-.31,3.22,3.22,0,0,0,.92-.81l.87.67A3.5,3.5,0,0,1,509.52,126.29Zm-.18-7.49a1.89,1.89,0,0,0-1.45.63,3.13,3.13,0,0,0-.73,1.77h4.18v-.11a2.71,2.71,0,0,0-.58-1.69A1.8,1.8,0,0,0,509.34,118.8Z"/><path d="M525.4,122.05a5,5,0,0,1-.88,3.08,2.83,2.83,0,0,1-2.36,1.16,2.93,2.93,0,0,1-2.45-1.12l-.07,1h-1.31V114.28h1.43v4.42a2.89,2.89,0,0,1,2.38-1.07,2.85,2.85,0,0,1,2.39,1.15,5.12,5.12,0,0,1,.87,3.15Zm-1.43-.16a3.89,3.89,0,0,0-.56-2.25,1.88,1.88,0,0,0-1.62-.8,2.1,2.1,0,0,0-2,1.31v3.61a2.15,2.15,0,0,0,2,1.32,1.86,1.86,0,0,0,1.6-.8A4.11,4.11,0,0,0,524,121.89Z"/><path d="M532.35,126.13a2.71,2.71,0,0,1-.2-.88,3.21,3.21,0,0,1-2.38,1,3,3,0,0,1-2-.7,2.29,2.29,0,0,1-.79-1.77,2.35,2.35,0,0,1,1-2,4.67,4.67,0,0,1,2.78-.72h1.39v-.65a1.66,1.66,0,0,0-.44-1.2,1.83,1.83,0,0,0-1.32-.44,2.05,2.05,0,0,0-1.28.39,1.12,1.12,0,0,0-.52.93h-1.44a2,2,0,0,1,.45-1.21,3.06,3.06,0,0,1,1.2-.92,4.15,4.15,0,0,1,1.67-.34,3.3,3.3,0,0,1,2.26.72,2.6,2.6,0,0,1,.85,2v3.84a4.79,4.79,0,0,0,.29,1.83v.12ZM530,125a2.49,2.49,0,0,0,1.27-.34,2.06,2.06,0,0,0,.87-.91v-1.71H531c-1.74,0-2.62.51-2.62,1.54a1.32,1.32,0,0,0,.45,1A1.73,1.73,0,0,0,530,125Z"/><path d="M540.65,123.92a1,1,0,0,0-.44-.9,4.2,4.2,0,0,0-1.52-.55,7.21,7.21,0,0,1-1.72-.56,2.38,2.38,0,0,1-.94-.77,1.79,1.79,0,0,1-.31-1.06,2.16,2.16,0,0,1,.87-1.74,3.42,3.42,0,0,1,2.22-.71,3.52,3.52,0,0,1,2.3.73,2.34,2.34,0,0,1,.88,1.88h-1.43a1.29,1.29,0,0,0-.5-1,1.88,1.88,0,0,0-1.25-.43,2,2,0,0,0-1.22.34,1.09,1.09,0,0,0-.44.89.86.86,0,0,0,.41.78,5.11,5.11,0,0,0,1.48.5,7.77,7.77,0,0,1,1.73.57,2.51,2.51,0,0,1,1,.8,1.91,1.91,0,0,1,.32,1.14,2.15,2.15,0,0,1-.89,1.79,3.77,3.77,0,0,1-2.33.68,4.18,4.18,0,0,1-1.77-.36,2.9,2.9,0,0,1-1.21-1,2.37,2.37,0,0,1-.43-1.38h1.43a1.45,1.45,0,0,0,.57,1.14,2.65,2.65,0,0,0,2.71.09A1,1,0,0,0,540.65,123.92Z"/><path d="M543.94,115.57a.84.84,0,0,1,.21-.58.95.95,0,0,1,1.26,0,.81.81,0,0,1,.22.58.89.89,0,0,1-1.48.58A.83.83,0,0,1,543.94,115.57Zm1.54,10.56h-1.43v-8.34h1.43Z"/><path d="M552.62,123.92a1,1,0,0,0-.43-.9,4.2,4.2,0,0,0-1.52-.55,7.21,7.21,0,0,1-1.72-.56,2.31,2.31,0,0,1-.94-.77,1.79,1.79,0,0,1-.31-1.06,2.16,2.16,0,0,1,.87-1.74,3.42,3.42,0,0,1,2.22-.71,3.54,3.54,0,0,1,2.3.73,2.34,2.34,0,0,1,.88,1.88h-1.43a1.29,1.29,0,0,0-.5-1,1.88,1.88,0,0,0-1.25-.43,2,2,0,0,0-1.22.34,1.09,1.09,0,0,0-.44.89.86.86,0,0,0,.41.78,5.11,5.11,0,0,0,1.48.5,8,8,0,0,1,1.73.57,2.51,2.51,0,0,1,1,.8,2,2,0,0,1,.32,1.14,2.15,2.15,0,0,1-.89,1.79,3.79,3.79,0,0,1-2.33.68,4.15,4.15,0,0,1-1.77-.36,2.9,2.9,0,0,1-1.21-1,2.37,2.37,0,0,1-.43-1.38h1.42a1.49,1.49,0,0,0,.58,1.14,2.23,2.23,0,0,0,1.41.42,2.28,2.28,0,0,0,1.3-.33A1,1,0,0,0,552.62,123.92Z"/><path d="M269.25,145.09v-7.24h-1.32v-1.11h1.32v-.85a2.84,2.84,0,0,1,.72-2.08,2.7,2.7,0,0,1,2-.73,3.72,3.72,0,0,1,1,.13l-.08,1.15a3.8,3.8,0,0,0-.77-.07,1.38,1.38,0,0,0-1.07.41,1.59,1.59,0,0,0-.38,1.16v.88h1.78v1.11h-1.78v7.24Z"/><path d="M273.65,140.84a4.85,4.85,0,0,1,.49-2.21,3.58,3.58,0,0,1,1.34-1.51,3.69,3.69,0,0,1,2-.53,3.51,3.51,0,0,1,2.76,1.18,4.53,4.53,0,0,1,1.05,3.14v.1a5,5,0,0,1-.46,2.18,3.58,3.58,0,0,1-1.34,1.51,3.69,3.69,0,0,1-2,.54,3.5,3.5,0,0,1-2.75-1.18,4.52,4.52,0,0,1-1.06-3.12Zm1.44.17a3.58,3.58,0,0,0,.64,2.23,2.19,2.19,0,0,0,3.46,0,4,4,0,0,0,.63-2.39,3.54,3.54,0,0,0-.65-2.23,2.16,2.16,0,0,0-3.43,0A3.89,3.89,0,0,0,275.09,141Z"/><path d="M287.08,138a5.16,5.16,0,0,0-.71-.05,1.88,1.88,0,0,0-1.9,1.19v5.93H283v-8.35h1.39l0,1a2.22,2.22,0,0,1,2-1.12,1.39,1.39,0,0,1,.64.11Z"/><path d="M297.45,145.09a3.1,3.1,0,0,1-.2-.88,3.18,3.18,0,0,1-2.38,1,2.92,2.92,0,0,1-2-.7,2.23,2.23,0,0,1-.79-1.77,2.35,2.35,0,0,1,1-2,4.68,4.68,0,0,1,2.79-.72h1.39v-.66a1.6,1.6,0,0,0-.45-1.19,1.79,1.79,0,0,0-1.32-.44,2.11,2.11,0,0,0-1.28.38,1.13,1.13,0,0,0-.52.94h-1.43a2,2,0,0,1,.44-1.21,3,3,0,0,1,1.2-.92,4,4,0,0,1,1.67-.34,3.28,3.28,0,0,1,2.26.72,2.58,2.58,0,0,1,.85,2v3.84A4.57,4.57,0,0,0,299,145v.13ZM295.08,144a2.51,2.51,0,0,0,1.27-.35,2.06,2.06,0,0,0,.88-.9V141h-1.12c-1.75,0-2.63.51-2.63,1.53a1.29,1.29,0,0,0,.45,1.05A1.73,1.73,0,0,0,295.08,144Z"/><path d="M308.15,144.08a2,2,0,0,0,1.33-.47,1.6,1.6,0,0,0,.63-1.15h1.35a2.54,2.54,0,0,1-.49,1.36,3.32,3.32,0,0,1-1.21,1,3.63,3.63,0,0,1-1.61.38,3.43,3.43,0,0,1-2.71-1.14,4.51,4.51,0,0,1-1-3.11v-.24a5,5,0,0,1,.45-2.16,3.37,3.37,0,0,1,1.28-1.48,3.66,3.66,0,0,1,2-.52,3.33,3.33,0,0,1,2.33.84,3,3,0,0,1,1,2.18h-1.35a2,2,0,0,0-.61-1.33,1.9,1.9,0,0,0-1.36-.52,2,2,0,0,0-1.69.78,3.77,3.77,0,0,0-.59,2.27v.27a3.58,3.58,0,0,0,.59,2.22A2,2,0,0,0,308.15,144.08Z"/><path d="M312.69,140.84a5,5,0,0,1,.48-2.21,3.6,3.6,0,0,1,1.35-1.51,3.66,3.66,0,0,1,2-.53,3.5,3.5,0,0,1,2.75,1.18,4.49,4.49,0,0,1,1.06,3.14v.1a5,5,0,0,1-.47,2.18,3.5,3.5,0,0,1-1.33,1.51,3.72,3.72,0,0,1-2,.54,3.51,3.51,0,0,1-2.75-1.18,4.51,4.51,0,0,1-1.05-3.12Zm1.44.17a3.58,3.58,0,0,0,.64,2.23,2.18,2.18,0,0,0,3.45,0,3.9,3.9,0,0,0,.64-2.39,3.6,3.6,0,0,0-.65-2.23,2.17,2.17,0,0,0-3.44,0A3.89,3.89,0,0,0,314.13,141Z"/><path d="M323.42,136.74l0,.93a3.08,3.08,0,0,1,2.47-1.08,2.4,2.4,0,0,1,2.39,1.34,3.26,3.26,0,0,1,1.08-1,3.18,3.18,0,0,1,1.58-.37q2.75,0,2.79,2.91v5.59h-1.43v-5.51a1.93,1.93,0,0,0-.4-1.34,1.86,1.86,0,0,0-1.38-.44,1.92,1.92,0,0,0-1.32.47,2,2,0,0,0-.61,1.28v5.54H327.2v-5.47a1.6,1.6,0,0,0-1.78-1.82A1.91,1.91,0,0,0,323.5,139v6.1h-1.43v-8.35Z"/><path d="M343,141a5,5,0,0,1-.87,3.07,2.81,2.81,0,0,1-2.36,1.16,3.07,3.07,0,0,1-2.39-1v4h-1.43V136.74h1.31l.07.93a2.93,2.93,0,0,1,2.42-1.08,2.87,2.87,0,0,1,2.38,1.13,5.09,5.09,0,0,1,.87,3.16Zm-1.42-.16a3.67,3.67,0,0,0-.61-2.23,1.92,1.92,0,0,0-1.65-.82,2.09,2.09,0,0,0-1.94,1.15v4a2.11,2.11,0,0,0,2,1.14,1.91,1.91,0,0,0,1.63-.82A4,4,0,0,0,341.55,140.85Z"/><path d="M348.82,138a5.12,5.12,0,0,0-.7-.05,1.89,1.89,0,0,0-1.91,1.19v5.93h-1.43v-8.35h1.39l0,1a2.2,2.2,0,0,1,2-1.12,1.37,1.37,0,0,1,.63.11Z"/><path d="M353.45,145.24a3.65,3.65,0,0,1-2.76-1.11,4.15,4.15,0,0,1-1.07-3v-.27a5,5,0,0,1,.48-2.21,3.65,3.65,0,0,1,1.32-1.53,3.34,3.34,0,0,1,1.85-.55,3.14,3.14,0,0,1,2.53,1.07,4.65,4.65,0,0,1,.9,3.07v.59h-5.65a3,3,0,0,0,.72,2,2.28,2.28,0,0,0,1.75.76,2.53,2.53,0,0,0,1.28-.31,3.26,3.26,0,0,0,.92-.82l.87.68A3.5,3.5,0,0,1,353.45,145.24Zm-.18-7.48a1.89,1.89,0,0,0-1.45.63,3.13,3.13,0,0,0-.73,1.76h4.18V140a2.71,2.71,0,0,0-.58-1.68A1.79,1.79,0,0,0,353.27,137.76Z"/><path d="M359.78,137.75a3,3,0,0,1,2.47-1.16c1.76,0,2.65,1,2.67,3v5.52h-1.43v-5.52a2,2,0,0,0-.41-1.34,1.64,1.64,0,0,0-1.26-.43,2,2,0,0,0-1.22.37,2.58,2.58,0,0,0-.82,1v6h-1.43V133.24h1.43Z"/><path d="M370.52,145.24a3.64,3.64,0,0,1-2.76-1.11,4.15,4.15,0,0,1-1.07-3v-.27a5.08,5.08,0,0,1,.47-2.21,3.75,3.75,0,0,1,1.33-1.53,3.34,3.34,0,0,1,1.85-.55,3.14,3.14,0,0,1,2.53,1.07,4.65,4.65,0,0,1,.9,3.07v.59h-5.65a3,3,0,0,0,.72,2,2.28,2.28,0,0,0,1.75.76,2.53,2.53,0,0,0,1.28-.31,3.26,3.26,0,0,0,.92-.82l.87.68A3.51,3.51,0,0,1,370.52,145.24Zm-.18-7.48a1.89,1.89,0,0,0-1.45.63,3.13,3.13,0,0,0-.73,1.76h4.18V140a2.71,2.71,0,0,0-.58-1.68A1.79,1.79,0,0,0,370.34,137.76Z"/><path d="M376.77,136.74l.05,1a3,3,0,0,1,2.5-1.2c1.76,0,2.65,1,2.66,3v5.52h-1.42v-5.52a2,2,0,0,0-.41-1.34,1.65,1.65,0,0,0-1.27-.43,2,2,0,0,0-1.21.37,2.5,2.5,0,0,0-.82,1v6h-1.43v-8.35Z"/><path d="M389,142.87a1,1,0,0,0-.44-.89,4.17,4.17,0,0,0-1.52-.56,7.41,7.41,0,0,1-1.72-.55,2.47,2.47,0,0,1-.94-.77,1.89,1.89,0,0,1-.3-1.07,2.14,2.14,0,0,1,.86-1.73,3.36,3.36,0,0,1,2.22-.71,3.47,3.47,0,0,1,2.3.73,2.33,2.33,0,0,1,.89,1.88h-1.44a1.28,1.28,0,0,0-.5-1,1.87,1.87,0,0,0-1.25-.42,1.92,1.92,0,0,0-1.22.34,1.08,1.08,0,0,0-.44.89.88.88,0,0,0,.41.78,5.23,5.23,0,0,0,1.48.5,7.77,7.77,0,0,1,1.73.57,2.51,2.51,0,0,1,1,.8,1.9,1.9,0,0,1,.32,1.13,2.15,2.15,0,0,1-.89,1.8,3.76,3.76,0,0,1-2.32.67,4.35,4.35,0,0,1-1.78-.35,2.94,2.94,0,0,1-1.2-1,2.43,2.43,0,0,1-.44-1.38h1.43a1.45,1.45,0,0,0,.57,1.14,2.24,2.24,0,0,0,1.42.42,2.3,2.3,0,0,0,1.3-.33A1,1,0,0,0,389,142.87Z"/><path d="M392.29,134.53a.87.87,0,0,1,.21-.59.95.95,0,0,1,1.26,0,.83.83,0,0,1,.22.59.81.81,0,0,1-.22.58,1,1,0,0,1-1.26,0A.84.84,0,0,1,392.29,134.53Zm1.54,10.56h-1.42v-8.35h1.42Z"/><path d="M398.87,143.15l2.07-6.41h1.45l-3,8.35h-1.09l-3-8.35h1.46Z"/><path d="M407.13,145.24a3.65,3.65,0,0,1-2.76-1.11,4.15,4.15,0,0,1-1.06-3v-.27a4.94,4.94,0,0,1,.47-2.21,3.75,3.75,0,0,1,1.33-1.53,3.28,3.28,0,0,1,1.84-.55,3.13,3.13,0,0,1,2.53,1.07,4.65,4.65,0,0,1,.91,3.07v.59h-5.66a3,3,0,0,0,.72,2,2.3,2.3,0,0,0,1.76.76,2.55,2.55,0,0,0,1.28-.31,3.4,3.4,0,0,0,.92-.82l.87.68A3.52,3.52,0,0,1,407.13,145.24Zm-.18-7.48a1.91,1.91,0,0,0-1.45.63,3.05,3.05,0,0,0-.72,1.76H409V140a2.71,2.71,0,0,0-.59-1.68A1.79,1.79,0,0,0,407,137.76Z"/><path d="M420,138a5.12,5.12,0,0,0-.7-.05,1.89,1.89,0,0,0-1.91,1.19v5.93H416v-8.35h1.38l0,1a2.22,2.22,0,0,1,2-1.12,1.32,1.32,0,0,1,.63.11Z"/><path d="M424.61,145.24a3.65,3.65,0,0,1-2.76-1.11,4.15,4.15,0,0,1-1.07-3v-.27a5,5,0,0,1,.48-2.21,3.73,3.73,0,0,1,1.32-1.53,3.34,3.34,0,0,1,1.85-.55,3.13,3.13,0,0,1,2.53,1.07,4.65,4.65,0,0,1,.9,3.07v.59h-5.65a3,3,0,0,0,.72,2,2.3,2.3,0,0,0,1.76.76,2.55,2.55,0,0,0,1.28-.31,3.36,3.36,0,0,0,.91-.82l.88.68A3.52,3.52,0,0,1,424.61,145.24Zm-.18-7.48a1.89,1.89,0,0,0-1.45.63,3.05,3.05,0,0,0-.72,1.76h4.18V140a2.71,2.71,0,0,0-.59-1.68A1.79,1.79,0,0,0,424.43,137.76Z"/><path d="M432.17,143.15l2.06-6.41h1.46l-3,8.35h-1.09l-3-8.35h1.46Z"/><path d="M437.07,134.53a.87.87,0,0,1,.21-.59,1,1,0,0,1,1.27,0,.87.87,0,0,1,.21.59.84.84,0,0,1-.21.58,1,1,0,0,1-1.27,0A.84.84,0,0,1,437.07,134.53Zm1.54,10.56h-1.42v-8.35h1.42Z"/><path d="M444.36,145.24a3.65,3.65,0,0,1-2.76-1.11,4.15,4.15,0,0,1-1.06-3v-.27a4.94,4.94,0,0,1,.47-2.21,3.75,3.75,0,0,1,1.33-1.53,3.3,3.3,0,0,1,1.84-.55,3.13,3.13,0,0,1,2.53,1.07,4.59,4.59,0,0,1,.91,3.07v.59H442a3,3,0,0,0,.72,2,2.3,2.3,0,0,0,1.76.76,2.55,2.55,0,0,0,1.28-.31,3.26,3.26,0,0,0,.92-.82l.87.68A3.52,3.52,0,0,1,444.36,145.24Zm-.18-7.48a1.92,1.92,0,0,0-1.45.63,3.05,3.05,0,0,0-.72,1.76h4.18V140a2.71,2.71,0,0,0-.59-1.68A1.79,1.79,0,0,0,444.18,137.76Z"/><path d="M456.66,143.12l1.6-6.38h1.43l-2.43,8.35H456.1l-2-6.33-2,6.33h-1.16l-2.42-8.35h1.42l1.64,6.25,1.94-6.25h1.15Z"/><path d="M464.67,140.84a5,5,0,0,1,.48-2.21,3.65,3.65,0,0,1,1.34-1.51,3.72,3.72,0,0,1,2-.53,3.5,3.5,0,0,1,2.75,1.18,4.49,4.49,0,0,1,1.06,3.14v.1a5,5,0,0,1-.47,2.18,3.5,3.5,0,0,1-1.33,1.51,3.72,3.72,0,0,1-2,.54,3.51,3.51,0,0,1-2.75-1.18,4.51,4.51,0,0,1-1.05-3.12Zm1.43.17a3.58,3.58,0,0,0,.65,2.23,2.18,2.18,0,0,0,3.45,0,3.9,3.9,0,0,0,.64-2.39,3.6,3.6,0,0,0-.65-2.23,2.17,2.17,0,0,0-3.44,0A3.89,3.89,0,0,0,466.1,141Z"/><path d="M474.76,145.09v-7.24h-1.32v-1.11h1.32v-.85a2.84,2.84,0,0,1,.72-2.08,2.68,2.68,0,0,1,2-.73,3.62,3.62,0,0,1,1,.13l-.07,1.15a3.8,3.8,0,0,0-.77-.07,1.42,1.42,0,0,0-1.08.41,1.63,1.63,0,0,0-.37,1.16v.88H478v1.11h-1.78v7.24Z"/><path d="M485.39,134.72v2H487v1.11h-1.56V143a1.16,1.16,0,0,0,.21.75.85.85,0,0,0,.71.25,3.44,3.44,0,0,0,.67-.09v1.15a4.2,4.2,0,0,1-1.09.15,1.75,1.75,0,0,1-1.44-.58A2.43,2.43,0,0,1,484,143v-5.17h-1.52v-1.11H484v-2Z"/><path d="M490,137.75a3,3,0,0,1,2.47-1.16c1.76,0,2.65,1,2.67,3v5.52h-1.43v-5.52a2,2,0,0,0-.41-1.34,1.65,1.65,0,0,0-1.27-.43,2,2,0,0,0-1.21.37,2.5,2.5,0,0,0-.82,1v6h-1.43V133.24H490Z"/><path d="M500.78,145.24a3.64,3.64,0,0,1-2.76-1.11,4.15,4.15,0,0,1-1.07-3v-.27a5.08,5.08,0,0,1,.47-2.21,3.75,3.75,0,0,1,1.33-1.53,3.34,3.34,0,0,1,1.85-.55,3.14,3.14,0,0,1,2.53,1.07,4.65,4.65,0,0,1,.9,3.07v.59h-5.65a3,3,0,0,0,.72,2,2.28,2.28,0,0,0,1.75.76,2.53,2.53,0,0,0,1.28-.31,3.26,3.26,0,0,0,.92-.82l.87.68A3.51,3.51,0,0,1,500.78,145.24Zm-.18-7.48a1.89,1.89,0,0,0-1.45.63,3.13,3.13,0,0,0-.73,1.76h4.18V140a2.71,2.71,0,0,0-.58-1.68A1.8,1.8,0,0,0,500.6,137.76Z"/><path d="M513.06,145.24a3.66,3.66,0,0,1-2.77-1.11,4.15,4.15,0,0,1-1.06-3v-.27a5.08,5.08,0,0,1,.47-2.21,3.75,3.75,0,0,1,1.33-1.53,3.31,3.31,0,0,1,1.85-.55,3.14,3.14,0,0,1,2.53,1.07,4.65,4.65,0,0,1,.9,3.07v.59h-5.65a3,3,0,0,0,.72,2,2.28,2.28,0,0,0,1.75.76,2.53,2.53,0,0,0,1.28-.31,3.26,3.26,0,0,0,.92-.82l.87.68A3.51,3.51,0,0,1,513.06,145.24Zm-.18-7.48a1.89,1.89,0,0,0-1.45.63,3.13,3.13,0,0,0-.73,1.76h4.18V140a2.71,2.71,0,0,0-.58-1.68A1.8,1.8,0,0,0,512.88,137.76Z"/><path d="M520.76,139.79l1.85-3h1.67l-2.73,4.13,2.81,4.22h-1.65L520.78,142l-1.93,3.13H517.2l2.81-4.22-2.73-4.13h1.65Z"/><path d="M525.8,134.53a.87.87,0,0,1,.21-.59.95.95,0,0,1,1.26,0,.88.88,0,0,1,.22.59.85.85,0,0,1-.22.58,1,1,0,0,1-1.26,0A.84.84,0,0,1,525.8,134.53Zm1.54,10.56h-1.43v-8.35h1.43Z"/><path d="M534.48,142.87a1,1,0,0,0-.43-.89,4.17,4.17,0,0,0-1.52-.56,7.11,7.11,0,0,1-1.72-.55,2.4,2.4,0,0,1-.94-.77,1.82,1.82,0,0,1-.31-1.07,2.15,2.15,0,0,1,.87-1.73,3.36,3.36,0,0,1,2.22-.71,3.48,3.48,0,0,1,2.3.73,2.32,2.32,0,0,1,.88,1.88H534.4a1.31,1.31,0,0,0-.5-1,1.87,1.87,0,0,0-1.25-.42,1.92,1.92,0,0,0-1.22.34,1.05,1.05,0,0,0-.44.89.86.86,0,0,0,.41.78,5.14,5.14,0,0,0,1.47.5,7.6,7.6,0,0,1,1.73.57,2.47,2.47,0,0,1,1,.8,2,2,0,0,1,.32,1.13,2.14,2.14,0,0,1-.9,1.8,3.74,3.74,0,0,1-2.32.67,4.27,4.27,0,0,1-1.77-.35,2.91,2.91,0,0,1-1.21-1,2.43,2.43,0,0,1-.44-1.38h1.43a1.49,1.49,0,0,0,.58,1.14,2.21,2.21,0,0,0,1.41.42,2.28,2.28,0,0,0,1.3-.33A1,1,0,0,0,534.48,142.87Z"/><path d="M539.7,134.72v2h1.56v1.11H539.7V143a1.16,1.16,0,0,0,.21.75.88.88,0,0,0,.71.25,3.53,3.53,0,0,0,.68-.09v1.15a4.2,4.2,0,0,1-1.09.15,1.79,1.79,0,0,1-1.45-.58,2.49,2.49,0,0,1-.48-1.64v-5.17h-1.52v-1.11h1.52v-2Z"/><path d="M542.94,134.53a.87.87,0,0,1,.21-.59.79.79,0,0,1,.63-.24.81.81,0,0,1,.63.24.87.87,0,0,1,.21.59.76.76,0,0,1-.84.81.82.82,0,0,1-.63-.23A.84.84,0,0,1,542.94,134.53Zm1.54,10.56h-1.43v-8.35h1.43Z"/><path d="M548.11,136.74l0,1a3,3,0,0,1,2.5-1.2c1.76,0,2.65,1,2.66,3v5.52H551.9v-5.52a1.9,1.9,0,0,0-.42-1.34,1.61,1.61,0,0,0-1.26-.43,2,2,0,0,0-1.21.37,2.5,2.5,0,0,0-.82,1v6h-1.43v-8.35Z"/><path d="M555.14,140.85a4.92,4.92,0,0,1,.9-3.11,3.11,3.11,0,0,1,4.77-.07l.07-.93h1.31v8.15a3.38,3.38,0,0,1-1,2.55,3.55,3.55,0,0,1-2.58.93,4.28,4.28,0,0,1-1.77-.38,3,3,0,0,1-1.32-1.06l.74-.85a2.8,2.8,0,0,0,2.25,1.13,2.19,2.19,0,0,0,1.62-.59,2.23,2.23,0,0,0,.58-1.65v-.72a2.92,2.92,0,0,1-2.33,1,2.86,2.86,0,0,1-2.38-1.18A5.16,5.16,0,0,1,555.14,140.85Zm1.43.16a3.8,3.8,0,0,0,.58,2.22,1.9,1.9,0,0,0,1.62.8,2.08,2.08,0,0,0,2-1.23V139a2.11,2.11,0,0,0-2-1.19,1.89,1.89,0,0,0-1.63.81A4.08,4.08,0,0,0,556.57,141Z"/><path d="M282.51,160a5,5,0,0,1-.88,3.08,2.82,2.82,0,0,1-2.36,1.16,2.92,2.92,0,0,1-2.45-1.12l-.07,1h-1.31V152.2h1.43v4.42a2.89,2.89,0,0,1,2.38-1.08,2.84,2.84,0,0,1,2.39,1.15,5.12,5.12,0,0,1,.87,3.15Zm-1.43-.16a3.89,3.89,0,0,0-.56-2.25,1.88,1.88,0,0,0-1.62-.8,2.1,2.1,0,0,0-2,1.32v3.61a2.16,2.16,0,0,0,2,1.31,1.86,1.86,0,0,0,1.6-.8A4.09,4.09,0,0,0,281.08,159.8Z"/><path d="M283.93,159.79a4.94,4.94,0,0,1,.48-2.2,3.53,3.53,0,0,1,1.34-1.51,3.64,3.64,0,0,1,2-.54,3.53,3.53,0,0,1,2.75,1.18,4.57,4.57,0,0,1,1.06,3.14v.1a5,5,0,0,1-.47,2.19,3.52,3.52,0,0,1-1.34,1.51,3.66,3.66,0,0,1-2,.54A3.53,3.53,0,0,1,285,163a4.54,4.54,0,0,1-1.05-3.13Zm1.43.17a3.56,3.56,0,0,0,.65,2.23,2.18,2.18,0,0,0,3.45,0,3.88,3.88,0,0,0,.64-2.39,3.59,3.59,0,0,0-.65-2.22,2.17,2.17,0,0,0-3.44,0A3.87,3.87,0,0,0,285.36,160Z"/><path d="M298.47,163.22a3.05,3.05,0,0,1-2.45,1,2.57,2.57,0,0,1-2-.78,3.34,3.34,0,0,1-.71-2.29V155.7h1.43v5.39c0,1.26.52,1.9,1.54,1.9a2.15,2.15,0,0,0,2.18-1.22V155.7h1.42V164H298.5Z"/><path d="M303.37,155.7l.05,1.05a3,3,0,0,1,2.5-1.21c1.76,0,2.65,1,2.67,3V164h-1.43v-5.52a1.92,1.92,0,0,0-.41-1.33,1.65,1.65,0,0,0-1.26-.44,2.1,2.1,0,0,0-1.22.37,2.62,2.62,0,0,0-.82,1V164H302V155.7Z"/><path d="M310.39,159.8a4.87,4.87,0,0,1,.91-3.09,3.09,3.09,0,0,1,4.71-.16V152.2h1.42V164h-1.31l-.07-.89a2.89,2.89,0,0,1-2.38,1,2.83,2.83,0,0,1-2.36-1.19,5,5,0,0,1-.92-3.1Zm1.43.16a3.69,3.69,0,0,0,.58,2.22A1.91,1.91,0,0,0,314,163a2.1,2.1,0,0,0,2-1.22v-3.84a2.12,2.12,0,0,0-2-1.18,1.92,1.92,0,0,0-1.64.81A4.09,4.09,0,0,0,311.82,160Z"/><path d="M324.8,164a2.93,2.93,0,0,1-.2-.88,3.19,3.19,0,0,1-2.38,1,2.92,2.92,0,0,1-2-.7,2.26,2.26,0,0,1-.79-1.77,2.35,2.35,0,0,1,1-2,4.61,4.61,0,0,1,2.79-.73h1.39v-.65a1.58,1.58,0,0,0-.45-1.19,1.79,1.79,0,0,0-1.32-.45,2.05,2.05,0,0,0-1.28.39,1.16,1.16,0,0,0-.52.93h-1.43a2,2,0,0,1,.44-1.21,3.17,3.17,0,0,1,1.21-.92,4.12,4.12,0,0,1,1.67-.34,3.27,3.27,0,0,1,2.25.72,2.61,2.61,0,0,1,.85,2v3.84a4.59,4.59,0,0,0,.3,1.83V164ZM322.43,163a2.51,2.51,0,0,0,1.27-.35,2.06,2.06,0,0,0,.88-.9V160h-1.12c-1.75,0-2.62.52-2.62,1.54a1.28,1.28,0,0,0,.44,1.05A1.73,1.73,0,0,0,322.43,163Z"/><path d="M332.27,157a3.8,3.8,0,0,0-.7-.06,1.87,1.87,0,0,0-1.9,1.2V164h-1.43V155.7h1.39l0,1a2.24,2.24,0,0,1,2-1.12,1.45,1.45,0,0,1,.63.11Z"/><path d="M336.45,162l1.95-6.25h1.53l-3.36,9.63c-.52,1.39-1.34,2.08-2.48,2.08l-.27,0-.53-.1v-1.16l.39,0a1.87,1.87,0,0,0,1.13-.29,2.12,2.12,0,0,0,.67-1.07l.31-.85-3-8.25h1.56Z"/><path d="M344.73,159.79a4.94,4.94,0,0,1,.48-2.2,3.49,3.49,0,0,1,1.35-1.51,3.58,3.58,0,0,1,2-.54,3.53,3.53,0,0,1,2.75,1.18,4.52,4.52,0,0,1,1.06,3.14v.1a5,5,0,0,1-.47,2.19,3.5,3.5,0,0,1-1.33,1.51,3.72,3.72,0,0,1-2,.54,3.55,3.55,0,0,1-2.75-1.18,4.54,4.54,0,0,1-1-3.13Zm1.44.17a3.56,3.56,0,0,0,.64,2.23,2.18,2.18,0,0,0,3.45,0,3.88,3.88,0,0,0,.64-2.39,3.59,3.59,0,0,0-.65-2.22,2.17,2.17,0,0,0-3.44,0A3.87,3.87,0,0,0,346.17,160Z"/><path d="M354.82,164V156.8H353.5v-1.1h1.32v-.86a2.83,2.83,0,0,1,.72-2.07,2.7,2.7,0,0,1,2-.74,4.06,4.06,0,0,1,1,.13l-.07,1.15a4.72,4.72,0,0,0-.77-.06,1.41,1.41,0,0,0-1.08.4,1.66,1.66,0,0,0-.37,1.17v.88H358v1.1h-1.78V164Z"/><path d="M365.45,153.68v2H367v1.1h-1.56V162a1.17,1.17,0,0,0,.21.76.9.9,0,0,0,.71.25,2.92,2.92,0,0,0,.67-.1V164a3.84,3.84,0,0,1-1.09.16,1.75,1.75,0,0,1-1.44-.58A2.45,2.45,0,0,1,364,162V156.8H362.5v-1.1H364v-2Z"/><path d="M370.1,156.71a3,3,0,0,1,2.47-1.17c1.76,0,2.65,1,2.67,3V164h-1.43v-5.52a1.92,1.92,0,0,0-.41-1.33,1.65,1.65,0,0,0-1.26-.44,2.1,2.1,0,0,0-1.22.37,2.53,2.53,0,0,0-.82,1V164h-1.43V152.2h1.43Z"/><path d="M380.84,164.2a3.61,3.61,0,0,1-2.76-1.12,4.12,4.12,0,0,1-1.07-3v-.26a5.1,5.1,0,0,1,.47-2.22,3.66,3.66,0,0,1,1.33-1.52,3.35,3.35,0,0,1,1.85-.56,3.12,3.12,0,0,1,2.53,1.08,4.63,4.63,0,0,1,.9,3.07v.59h-5.65a3,3,0,0,0,.72,2,2.24,2.24,0,0,0,1.75.76,2.43,2.43,0,0,0,1.28-.31,3.07,3.07,0,0,0,.92-.81l.87.68A3.51,3.51,0,0,1,380.84,164.2Zm-.18-7.48a1.92,1.92,0,0,0-1.45.62,3.13,3.13,0,0,0-.73,1.77h4.18V159a2.71,2.71,0,0,0-.58-1.69A1.81,1.81,0,0,0,380.66,156.72Z"/><path d="M393.19,159a7.11,7.11,0,0,1-2.78-1.35,2.57,2.57,0,0,1-.87-2,2.74,2.74,0,0,1,1.06-2.19,4.22,4.22,0,0,1,2.76-.87,4.63,4.63,0,0,1,2.07.45,3.36,3.36,0,0,1,1.4,1.23,3.17,3.17,0,0,1,.5,1.72h-1.49a2.07,2.07,0,0,0-.65-1.61,2.63,2.63,0,0,0-1.83-.58,2.72,2.72,0,0,0-1.71.48,1.64,1.64,0,0,0-.61,1.34,1.46,1.46,0,0,0,.58,1.17,6,6,0,0,0,2,.87,9.49,9.49,0,0,1,2.19.86A3.48,3.48,0,0,1,397,159.7a2.87,2.87,0,0,1,.38,1.49,2.63,2.63,0,0,1-1.06,2.19,4.59,4.59,0,0,1-2.85.82,5.22,5.22,0,0,1-2.16-.45,3.66,3.66,0,0,1-1.55-1.21,3,3,0,0,1-.54-1.75h1.49a2,2,0,0,0,.75,1.61,3.18,3.18,0,0,0,2,.59,2.92,2.92,0,0,0,1.8-.48,1.56,1.56,0,0,0,.62-1.3,1.51,1.51,0,0,0-.58-1.28A6.53,6.53,0,0,0,393.19,159Z"/><path d="M404.18,163.22a3.05,3.05,0,0,1-2.45,1,2.57,2.57,0,0,1-2-.78,3.34,3.34,0,0,1-.71-2.29V155.7h1.43v5.39c0,1.26.51,1.9,1.54,1.9a2.15,2.15,0,0,0,2.18-1.22V155.7h1.42V164h-1.35Z"/><path d="M409.07,155.7l0,.92a3.09,3.09,0,0,1,2.48-1.08,2.38,2.38,0,0,1,2.38,1.35,3.12,3.12,0,0,1,1.09-1,3.25,3.25,0,0,1,1.57-.37c1.83,0,2.76,1,2.8,2.91V164H418v-5.5a1.92,1.92,0,0,0-.41-1.34,1.78,1.78,0,0,0-1.37-.45,1.86,1.86,0,0,0-1.93,1.76V164h-1.44v-5.46a1.59,1.59,0,0,0-1.78-1.83,1.92,1.92,0,0,0-1.92,1.2V164h-1.43V155.7Z"/><path d="M426.73,164a2.93,2.93,0,0,1-.2-.88,3.19,3.19,0,0,1-2.38,1,2.92,2.92,0,0,1-2-.7,2.26,2.26,0,0,1-.79-1.77,2.35,2.35,0,0,1,1-2,4.61,4.61,0,0,1,2.79-.73h1.39v-.65a1.58,1.58,0,0,0-.45-1.19,1.79,1.79,0,0,0-1.32-.45,2.05,2.05,0,0,0-1.28.39,1.13,1.13,0,0,0-.52.93h-1.43a2,2,0,0,1,.44-1.21,3.21,3.21,0,0,1,1.2-.92,4.19,4.19,0,0,1,1.67-.34,3.28,3.28,0,0,1,2.26.72,2.61,2.61,0,0,1,.85,2v3.84a4.59,4.59,0,0,0,.3,1.83V164ZM424.36,163a2.51,2.51,0,0,0,1.27-.35,2.06,2.06,0,0,0,.88-.9V160h-1.12c-1.75,0-2.62.52-2.62,1.54a1.28,1.28,0,0,0,.44,1.05A1.73,1.73,0,0,0,424.36,163Z"/><path d="M432.1,153.68v2h1.56v1.1H432.1V162a1.17,1.17,0,0,0,.21.76.91.91,0,0,0,.71.25,3,3,0,0,0,.68-.1V164a3.84,3.84,0,0,1-1.09.16,1.79,1.79,0,0,1-1.45-.58,2.51,2.51,0,0,1-.48-1.64V156.8h-1.52v-1.1h1.52v-2Z"/><path d="M439.36,157a3.8,3.8,0,0,0-.7-.06,1.87,1.87,0,0,0-1.9,1.2V164h-1.43V155.7h1.39l0,1a2.24,2.24,0,0,1,2-1.12,1.45,1.45,0,0,1,.63.11Z"/><path d="M445.52,164a2.93,2.93,0,0,1-.2-.88,3.21,3.21,0,0,1-2.38,1,2.91,2.91,0,0,1-2-.7,2.26,2.26,0,0,1-.79-1.77,2.35,2.35,0,0,1,1-2,4.61,4.61,0,0,1,2.79-.73h1.39v-.65a1.58,1.58,0,0,0-.45-1.19,1.79,1.79,0,0,0-1.32-.45,2.05,2.05,0,0,0-1.28.39,1.13,1.13,0,0,0-.52.93H440.3a2,2,0,0,1,.44-1.21,3.21,3.21,0,0,1,1.2-.92,4.19,4.19,0,0,1,1.67-.34,3.3,3.3,0,0,1,2.26.72,2.61,2.61,0,0,1,.85,2v3.84a4.59,4.59,0,0,0,.3,1.83V164ZM443.15,163a2.51,2.51,0,0,0,1.27-.35,2.17,2.17,0,0,0,.88-.9V160h-1.12c-1.75,0-2.63.52-2.63,1.54a1.29,1.29,0,0,0,.45,1.05A1.73,1.73,0,0,0,443.15,163Z"/><path d="M455.52,160.5l.21,1.48.32-1.33,2.22-7.84h1.25l2.17,7.84L462,162l.24-1.51,1.75-7.69h1.49L462.74,164h-1.35l-2.31-8.18-.18-.86-.18.86-2.4,8.18H455l-2.72-11.23h1.48Z"/><path d="M466.27,159.79a4.94,4.94,0,0,1,.48-2.2,3.53,3.53,0,0,1,1.34-1.51,3.61,3.61,0,0,1,2-.54,3.54,3.54,0,0,1,2.76,1.18,4.57,4.57,0,0,1,1.05,3.14v.1a5,5,0,0,1-.46,2.19,3.52,3.52,0,0,1-1.34,1.51,3.69,3.69,0,0,1-2,.54,3.53,3.53,0,0,1-2.75-1.18,4.54,4.54,0,0,1-1.05-3.13Zm1.43.17a3.56,3.56,0,0,0,.65,2.23,2.18,2.18,0,0,0,3.45,0,4,4,0,0,0,.64-2.39,3.59,3.59,0,0,0-.65-2.22,2.09,2.09,0,0,0-1.74-.85,2,2,0,0,0-1.7.84A3.87,3.87,0,0,0,467.7,160Z"/><path d="M479.69,157a3.88,3.88,0,0,0-.7-.06,1.88,1.88,0,0,0-1.91,1.2V164h-1.43V155.7H477l0,1a2.25,2.25,0,0,1,2-1.12,1.52,1.52,0,0,1,.63.11Z"/><path d="M482.55,164h-1.43V152.2h1.43Z"/><path d="M484.48,159.8a4.88,4.88,0,0,1,.92-3.09,3.08,3.08,0,0,1,4.7-.16V152.2h1.43V164h-1.31l-.07-.89a2.91,2.91,0,0,1-2.39,1A2.86,2.86,0,0,1,485.4,163a5,5,0,0,1-.92-3.1Zm1.43.16a3.68,3.68,0,0,0,.59,2.22,1.89,1.89,0,0,0,1.62.81,2.09,2.09,0,0,0,2-1.22v-3.84a2.11,2.11,0,0,0-2-1.18,1.89,1.89,0,0,0-1.63.81A4.08,4.08,0,0,0,485.91,160Z"/><path d="M506.51,164H505v-5.19h-5.66V164h-1.48V152.81h1.48v4.83H505v-4.83h1.49Z"/><path d="M512.38,164.2a3.61,3.61,0,0,1-2.76-1.12,4.12,4.12,0,0,1-1.07-3v-.26a5.1,5.1,0,0,1,.47-2.22,3.66,3.66,0,0,1,1.33-1.52,3.35,3.35,0,0,1,1.85-.56,3.12,3.12,0,0,1,2.53,1.08,4.63,4.63,0,0,1,.9,3.07v.59H510a3,3,0,0,0,.72,2,2.24,2.24,0,0,0,1.75.76,2.43,2.43,0,0,0,1.28-.31,3.07,3.07,0,0,0,.92-.81l.87.68A3.51,3.51,0,0,1,512.38,164.2Zm-.18-7.48a1.92,1.92,0,0,0-1.45.62,3.13,3.13,0,0,0-.73,1.77h4.18V159a2.71,2.71,0,0,0-.58-1.69A1.81,1.81,0,0,0,512.2,156.72Z"/><path d="M521.32,157a3.92,3.92,0,0,0-.71-.06,1.87,1.87,0,0,0-1.9,1.2V164h-1.43V155.7h1.39l0,1a2.24,2.24,0,0,1,2-1.12,1.53,1.53,0,0,1,.64.11Z"/><path d="M522.64,153.48a.84.84,0,0,1,.21-.58.79.79,0,0,1,.63-.24.82.82,0,0,1,.63.24.84.84,0,0,1,.21.58.76.76,0,0,1-.84.81.79.79,0,0,1-.63-.23A.81.81,0,0,1,522.64,153.48ZM524.18,164h-1.43V155.7h1.43Z"/><path d="M528.4,153.68v2H530v1.1H528.4V162a1.23,1.23,0,0,0,.2.76.91.91,0,0,0,.71.25,3,3,0,0,0,.68-.1V164a3.84,3.84,0,0,1-1.09.16,1.75,1.75,0,0,1-1.44-.58A2.45,2.45,0,0,1,527,162V156.8h-1.52v-1.1H527v-2Z"/><path d="M536.77,164a2.93,2.93,0,0,1-.2-.88,3.17,3.17,0,0,1-2.37,1,2.93,2.93,0,0,1-2-.7,2.29,2.29,0,0,1-.79-1.77,2.35,2.35,0,0,1,1-2,4.61,4.61,0,0,1,2.79-.73h1.39v-.65a1.58,1.58,0,0,0-.45-1.19,1.79,1.79,0,0,0-1.32-.45,2.07,2.07,0,0,0-1.28.39,1.15,1.15,0,0,0-.51.93h-1.44a2,2,0,0,1,.44-1.21,3.17,3.17,0,0,1,1.21-.92,4.12,4.12,0,0,1,1.67-.34,3.31,3.31,0,0,1,2.26.72,2.65,2.65,0,0,1,.85,2v3.84a4.61,4.61,0,0,0,.29,1.83V164ZM534.4,163a2.54,2.54,0,0,0,1.28-.35,2.09,2.09,0,0,0,.87-.9V160h-1.12c-1.75,0-2.62.52-2.62,1.54a1.29,1.29,0,0,0,.45,1.05A1.7,1.7,0,0,0,534.4,163Z"/><path d="M539.87,159.8a4.85,4.85,0,0,1,.91-3.1,3.1,3.1,0,0,1,4.77-.08l.07-.92h1.3v8.14a3.42,3.42,0,0,1-1,2.56,3.55,3.55,0,0,1-2.58.93,4.21,4.21,0,0,1-1.76-.39,3,3,0,0,1-1.32-1.05L541,165a2.77,2.77,0,0,0,2.24,1.13,2.2,2.2,0,0,0,1.63-.58,2.27,2.27,0,0,0,.58-1.65v-.72a2.93,2.93,0,0,1-2.34,1,2.87,2.87,0,0,1-2.37-1.18A5.2,5.2,0,0,1,539.87,159.8Zm1.44.16a3.73,3.73,0,0,0,.58,2.22,1.86,1.86,0,0,0,1.62.81,2.08,2.08,0,0,0,2-1.23V158a2.12,2.12,0,0,0-2-1.2,1.89,1.89,0,0,0-1.62.81A4,4,0,0,0,541.31,160Z"/><path d="M552.54,164.2a3.63,3.63,0,0,1-2.76-1.12,4.12,4.12,0,0,1-1.07-3v-.26a5,5,0,0,1,.48-2.22,3.63,3.63,0,0,1,1.32-1.52,3.35,3.35,0,0,1,1.85-.56,3.11,3.11,0,0,1,2.53,1.08,4.63,4.63,0,0,1,.9,3.07v.59h-5.65a3,3,0,0,0,.72,2,2.27,2.27,0,0,0,1.76.76,2.45,2.45,0,0,0,1.28-.31,3,3,0,0,0,.91-.81l.88.68A3.52,3.52,0,0,1,552.54,164.2Zm-.18-7.48a1.94,1.94,0,0,0-1.45.62,3.06,3.06,0,0,0-.72,1.77h4.18V159a2.72,2.72,0,0,0-.59-1.69A1.81,1.81,0,0,0,552.36,156.72Z"/><path d="M289.61,180.79a1,1,0,0,0-.43-.9,4,4,0,0,0-1.52-.55,7.21,7.21,0,0,1-1.72-.56A2.4,2.4,0,0,1,285,178a1.8,1.8,0,0,1-.31-1.07,2.15,2.15,0,0,1,.87-1.73,3.42,3.42,0,0,1,2.22-.71,3.48,3.48,0,0,1,2.3.73,2.34,2.34,0,0,1,.88,1.88h-1.43a1.29,1.29,0,0,0-.5-1,1.83,1.83,0,0,0-1.25-.43,2,2,0,0,0-1.22.34,1.08,1.08,0,0,0-.44.89.86.86,0,0,0,.41.78,5.14,5.14,0,0,0,1.47.5,7.87,7.87,0,0,1,1.74.57,2.51,2.51,0,0,1,1,.8,2,2,0,0,1,.32,1.14,2.15,2.15,0,0,1-.89,1.79,3.79,3.79,0,0,1-2.33.67,4.11,4.11,0,0,1-1.77-.35,2.91,2.91,0,0,1-1.21-1,2.42,2.42,0,0,1-.43-1.38h1.42a1.49,1.49,0,0,0,.58,1.14,2.23,2.23,0,0,0,1.41.42,2.28,2.28,0,0,0,1.3-.33A1,1,0,0,0,289.61,180.79Z"/><path d="M292.91,172.44a.87.87,0,0,1,.21-.59.79.79,0,0,1,.63-.24.81.81,0,0,1,.63.24.88.88,0,0,1,.22.59.85.85,0,0,1-.22.58.84.84,0,0,1-.63.23.82.82,0,0,1-.63-.23A.84.84,0,0,1,292.91,172.44ZM294.45,183H293v-8.35h1.43Z"/><path d="M298.67,172.63v2h1.56v1.11h-1.56v5.18a1.16,1.16,0,0,0,.21.75.86.86,0,0,0,.71.25,3.44,3.44,0,0,0,.67-.09V183a4.2,4.2,0,0,1-1.09.15,1.78,1.78,0,0,1-1.44-.57,2.48,2.48,0,0,1-.49-1.65v-5.17h-1.52v-1.11h1.52v-2Z"/><path d="M305.35,183.15a3.65,3.65,0,0,1-2.76-1.11,4.13,4.13,0,0,1-1.06-3v-.26a5.1,5.1,0,0,1,.47-2.22,3.75,3.75,0,0,1,1.33-1.53,3.31,3.31,0,0,1,1.85-.55,3.14,3.14,0,0,1,2.53,1.07,4.66,4.66,0,0,1,.9,3.07v.6H303a3,3,0,0,0,.72,2,2.24,2.24,0,0,0,1.75.76,2.43,2.43,0,0,0,1.28-.31,3.26,3.26,0,0,0,.92-.82l.87.68A3.5,3.5,0,0,1,305.35,183.15Zm-.17-7.48a1.89,1.89,0,0,0-1.45.63,3.13,3.13,0,0,0-.73,1.76h4.18V178a2.71,2.71,0,0,0-.58-1.69A1.8,1.8,0,0,0,305.18,175.67Z"/><path d="M309.74,174.93l-.81-.55a3.68,3.68,0,0,0,.74-2.12v-1.11h1.42v1a3.62,3.62,0,0,1-.39,1.54A3.36,3.36,0,0,1,309.74,174.93Z"/><path d="M316.79,180.79a1,1,0,0,0-.43-.9,4,4,0,0,0-1.52-.55,7.21,7.21,0,0,1-1.72-.56,2.4,2.4,0,0,1-.94-.77,1.8,1.8,0,0,1-.31-1.07,2.15,2.15,0,0,1,.87-1.73,3.42,3.42,0,0,1,2.22-.71,3.48,3.48,0,0,1,2.3.73,2.34,2.34,0,0,1,.88,1.88h-1.43a1.29,1.29,0,0,0-.5-1,1.83,1.83,0,0,0-1.25-.43,2,2,0,0,0-1.22.34,1.08,1.08,0,0,0-.44.89.88.88,0,0,0,.41.78,5.11,5.11,0,0,0,1.48.5,8,8,0,0,1,1.73.57,2.51,2.51,0,0,1,1,.8,2,2,0,0,1,.32,1.14,2.15,2.15,0,0,1-.89,1.79,3.79,3.79,0,0,1-2.33.67,4.14,4.14,0,0,1-1.77-.35,3,3,0,0,1-1.21-1,2.42,2.42,0,0,1-.43-1.38H313a1.49,1.49,0,0,0,.58,1.14A2.23,2.23,0,0,0,315,182a2.28,2.28,0,0,0,1.3-.33A1,1,0,0,0,316.79,180.79Z"/><path d="M325.93,172.63v2h1.55v1.11h-1.55v5.18a1.16,1.16,0,0,0,.2.75.88.88,0,0,0,.71.25,3.53,3.53,0,0,0,.68-.09V183a4.2,4.2,0,0,1-1.09.15,1.81,1.81,0,0,1-1.45-.57,2.53,2.53,0,0,1-.48-1.65v-5.17H323v-1.11h1.52v-2Z"/><path d="M333.18,175.93a5,5,0,0,0-.7-.05,1.87,1.87,0,0,0-1.9,1.2V183h-1.43v-8.35h1.39l0,1a2.22,2.22,0,0,1,2-1.12,1.45,1.45,0,0,1,.63.11Z"/><path d="M334,178.75a5,5,0,0,1,.48-2.21,3.56,3.56,0,0,1,3.31-2,3.51,3.51,0,0,1,2.76,1.18,4.55,4.55,0,0,1,1.05,3.14v.1a5,5,0,0,1-.47,2.19,3.53,3.53,0,0,1-1.33,1.5,3.69,3.69,0,0,1-2,.54A3.49,3.49,0,0,1,335,182a4.45,4.45,0,0,1-1.06-3.12Zm1.44.17a3.58,3.58,0,0,0,.64,2.23,2.07,2.07,0,0,0,1.73.84,2,2,0,0,0,1.72-.85,3.9,3.9,0,0,0,.64-2.39,3.54,3.54,0,0,0-.65-2.23,2.08,2.08,0,0,0-1.73-.85,2,2,0,0,0-1.7.84A3.84,3.84,0,0,0,335.4,178.92Z"/><path d="M350.4,178.92a5,5,0,0,1-.87,3.07,2.78,2.78,0,0,1-2.36,1.16,3.05,3.05,0,0,1-2.39-1v4h-1.43V174.65h1.3l.07.93a3,3,0,0,1,2.43-1.08,2.84,2.84,0,0,1,2.37,1.13,5,5,0,0,1,.88,3.16Zm-1.43-.16a3.69,3.69,0,0,0-.6-2.23,1.92,1.92,0,0,0-1.65-.82,2.09,2.09,0,0,0-1.94,1.15v4a2.1,2.1,0,0,0,2,1.14,1.94,1.94,0,0,0,1.63-.81A4.07,4.07,0,0,0,349,178.76Z"/><path d="M352.22,172.44a.87.87,0,0,1,.21-.59.95.95,0,0,1,1.26,0,.83.83,0,0,1,.22.59.81.81,0,0,1-.22.58,1,1,0,0,1-1.26,0A.84.84,0,0,1,352.22,172.44ZM353.76,183h-1.42v-8.35h1.42Z"/><path d="M359.39,182a2.11,2.11,0,0,0,1.34-.46,1.64,1.64,0,0,0,.63-1.16h1.35a2.62,2.62,0,0,1-.49,1.36,3.26,3.26,0,0,1-1.22,1,3.74,3.74,0,0,1-4.32-.75,4.55,4.55,0,0,1-1-3.12v-.24a5,5,0,0,1,.44-2.16,3.4,3.4,0,0,1,1.29-1.48,3.63,3.63,0,0,1,2-.52,3.35,3.35,0,0,1,2.33.84,3,3,0,0,1,1,2.18h-1.35a2,2,0,0,0-.61-1.33,1.94,1.94,0,0,0-1.36-.52,2,2,0,0,0-1.69.78,3.7,3.7,0,0,0-.6,2.27V179a3.58,3.58,0,0,0,.6,2.22A2,2,0,0,0,359.39,182Z"/><path d="M369.47,183a3.1,3.1,0,0,1-.2-.88,3.2,3.2,0,0,1-2.38,1,3,3,0,0,1-2-.69,2.26,2.26,0,0,1-.79-1.77,2.37,2.37,0,0,1,1-2,4.67,4.67,0,0,1,2.78-.72h1.39v-.66a1.65,1.65,0,0,0-.44-1.19,1.83,1.83,0,0,0-1.32-.44,2.11,2.11,0,0,0-1.28.38,1.13,1.13,0,0,0-.52.94h-1.43a1.94,1.94,0,0,1,.44-1.21,3,3,0,0,1,1.2-.92,4,4,0,0,1,1.67-.34,3.3,3.3,0,0,1,2.26.72,2.58,2.58,0,0,1,.85,2v3.84a4.87,4.87,0,0,0,.29,1.83V183Zm-2.37-1.09a2.41,2.41,0,0,0,1.27-.35,2.09,2.09,0,0,0,.87-.9V179h-1.11c-1.75,0-2.63.51-2.63,1.54a1.28,1.28,0,0,0,.45,1A1.68,1.68,0,0,0,367.1,181.91Z"/><path d="M374.46,183H373V171.15h1.43Z"/><path d="M381.35,183v-7.24H380v-1.11h1.32v-.85a2.84,2.84,0,0,1,.72-2.08,2.7,2.7,0,0,1,2-.73,3.67,3.67,0,0,1,1,.13l-.08,1.15a3.8,3.8,0,0,0-.77-.07,1.39,1.39,0,0,0-1.07.41,1.65,1.65,0,0,0-.38,1.16v.88h1.78v1.11h-1.78V183Z"/><path d="M385.76,178.75a5,5,0,0,1,.48-2.21,3.65,3.65,0,0,1,1.34-1.51,3.69,3.69,0,0,1,2-.53,3.51,3.51,0,0,1,2.76,1.18,4.55,4.55,0,0,1,1.05,3.14v.1a5,5,0,0,1-.46,2.19,3.55,3.55,0,0,1-1.34,1.5,3.66,3.66,0,0,1-2,.54,3.5,3.5,0,0,1-2.75-1.18,4.5,4.5,0,0,1-1.05-3.12Zm1.43.17a3.58,3.58,0,0,0,.65,2.23,2.18,2.18,0,0,0,3.45,0,4,4,0,0,0,.64-2.39,3.6,3.6,0,0,0-.65-2.23,2.11,2.11,0,0,0-1.74-.85,2,2,0,0,0-1.7.84A3.91,3.91,0,0,0,387.19,178.92Z"/><path d="M399.18,175.93a5.12,5.12,0,0,0-.7-.05,1.88,1.88,0,0,0-1.91,1.2V183h-1.43v-8.35h1.39l0,1a2.2,2.2,0,0,1,2-1.12,1.52,1.52,0,0,1,.63.11Z"/><path d="M403.81,183.15A3.66,3.66,0,0,1,401,182a4.13,4.13,0,0,1-1.06-3v-.26a5.1,5.1,0,0,1,.47-2.22,3.75,3.75,0,0,1,1.33-1.53,3.31,3.31,0,0,1,1.85-.55,3.14,3.14,0,0,1,2.53,1.07,4.66,4.66,0,0,1,.9,3.07v.6h-5.65a3,3,0,0,0,.72,2,2.24,2.24,0,0,0,1.75.76,2.43,2.43,0,0,0,1.28-.31,3.26,3.26,0,0,0,.92-.82l.87.68A3.49,3.49,0,0,1,403.81,183.15Zm-.18-7.48a1.89,1.89,0,0,0-1.45.63,3.13,3.13,0,0,0-.73,1.76h4.18V178a2.71,2.71,0,0,0-.58-1.69A1.8,1.8,0,0,0,403.63,175.67Z"/><path d="M413.57,180.79a1,1,0,0,0-.44-.9,4,4,0,0,0-1.52-.55,7.12,7.12,0,0,1-1.71-.56A2.51,2.51,0,0,1,409,178a1.87,1.87,0,0,1-.3-1.07,2.15,2.15,0,0,1,.87-1.73,3.39,3.39,0,0,1,2.21-.71,3.49,3.49,0,0,1,2.31.73,2.34,2.34,0,0,1,.88,1.88h-1.43a1.29,1.29,0,0,0-.5-1,1.84,1.84,0,0,0-1.26-.43,2,2,0,0,0-1.21.34,1.05,1.05,0,0,0-.44.89.88.88,0,0,0,.4.78,5.35,5.35,0,0,0,1.48.5,7.77,7.77,0,0,1,1.73.57,2.54,2.54,0,0,1,1,.8,2,2,0,0,1,.32,1.14,2.13,2.13,0,0,1-.9,1.79,3.74,3.74,0,0,1-2.32.67,4.11,4.11,0,0,1-1.77-.35,2.91,2.91,0,0,1-1.21-1,2.43,2.43,0,0,1-.44-1.38h1.43a1.49,1.49,0,0,0,.58,1.14,2.19,2.19,0,0,0,1.41.42,2.3,2.3,0,0,0,1.3-.33A1,1,0,0,0,413.57,180.79Z"/><path d="M418.79,172.63v2h1.56v1.11h-1.56v5.18a1.16,1.16,0,0,0,.21.75.88.88,0,0,0,.71.25,3.53,3.53,0,0,0,.68-.09V183a4.28,4.28,0,0,1-1.1.15,1.8,1.8,0,0,1-1.44-.57,2.53,2.53,0,0,1-.48-1.65v-5.17h-1.52v-1.11h1.52v-2Z"/><path d="M422,185.24l-.81-.56a3.74,3.74,0,0,0,.76-2.08v-1.29h1.39v1.12a3.45,3.45,0,0,1-.38,1.56A3.6,3.6,0,0,1,422,185.24Z"/><path d="M436.42,181l1.6-6.38h1.43L437,183h-1.16l-2-6.33-2,6.33H430.7l-2.42-8.35h1.42l1.64,6.25,2-6.25h1.14Z"/><path d="M442.32,175.66a3.07,3.07,0,0,1,2.47-1.16c1.77,0,2.66,1,2.67,3V183H446v-5.52a1.92,1.92,0,0,0-.41-1.34,1.64,1.64,0,0,0-1.26-.43,2,2,0,0,0-1.22.37,2.58,2.58,0,0,0-.82,1V183H440.9V171.15h1.42Z"/><path d="M449.61,172.44a.87.87,0,0,1,.21-.59.95.95,0,0,1,1.26,0,.88.88,0,0,1,.22.59.85.85,0,0,1-.22.58,1,1,0,0,1-1.26,0A.84.84,0,0,1,449.61,172.44ZM451.15,183h-1.43v-8.35h1.43Z"/><path d="M456.78,182a2.09,2.09,0,0,0,1.33-.46,1.69,1.69,0,0,0,.64-1.16h1.35a2.55,2.55,0,0,1-.5,1.36,3.23,3.23,0,0,1-1.21,1,3.74,3.74,0,0,1-4.32-.75,4.56,4.56,0,0,1-1-3.12v-.24a5,5,0,0,1,.45-2.16,3.37,3.37,0,0,1,1.28-1.48,3.66,3.66,0,0,1,2-.52,3.33,3.33,0,0,1,2.33.84,3,3,0,0,1,1,2.18h-1.35a2,2,0,0,0-.62-1.33,1.92,1.92,0,0,0-1.36-.52,2,2,0,0,0-1.68.78,3.7,3.7,0,0,0-.6,2.27V179a3.64,3.64,0,0,0,.59,2.22A2,2,0,0,0,456.78,182Z"/><path d="M463.13,175.66a3,3,0,0,1,2.47-1.16c1.76,0,2.65,1,2.66,3V183h-1.42v-5.52a2,2,0,0,0-.42-1.34,1.64,1.64,0,0,0-1.26-.43,2,2,0,0,0-1.22.37,2.56,2.56,0,0,0-.81,1V183H461.7V171.15h1.43Z"/><path d="M477.66,182a2.09,2.09,0,0,0,1.33-.46,1.69,1.69,0,0,0,.64-1.16H481a2.55,2.55,0,0,1-.5,1.36,3.23,3.23,0,0,1-1.21,1A3.74,3.74,0,0,1,475,182a4.56,4.56,0,0,1-1-3.12v-.24a5,5,0,0,1,.45-2.16,3.37,3.37,0,0,1,1.28-1.48,3.66,3.66,0,0,1,2-.52,3.33,3.33,0,0,1,2.33.84,3,3,0,0,1,1,2.18h-1.35a2,2,0,0,0-.62-1.33,1.92,1.92,0,0,0-1.36-.52,2,2,0,0,0-1.68.78,3.7,3.7,0,0,0-.6,2.27V179a3.64,3.64,0,0,0,.59,2.22A2,2,0,0,0,477.66,182Z"/><path d="M482.2,178.75a5,5,0,0,1,.48-2.21,3.56,3.56,0,0,1,3.31-2,3.51,3.51,0,0,1,2.76,1.18,4.55,4.55,0,0,1,1.05,3.14v.1a5,5,0,0,1-.47,2.19,3.53,3.53,0,0,1-1.33,1.5,3.69,3.69,0,0,1-2,.54,3.49,3.49,0,0,1-2.75-1.18,4.45,4.45,0,0,1-1.06-3.12Zm1.44.17a3.58,3.58,0,0,0,.64,2.23A2.06,2.06,0,0,0,486,182a2,2,0,0,0,1.72-.85,3.9,3.9,0,0,0,.64-2.39,3.54,3.54,0,0,0-.65-2.23,2.17,2.17,0,0,0-3.44,0A3.91,3.91,0,0,0,483.64,178.92Z"/><path d="M492.93,174.65l0,.93a3.09,3.09,0,0,1,2.48-1.08,2.39,2.39,0,0,1,2.38,1.34,3.26,3.26,0,0,1,1.08-1,3.18,3.18,0,0,1,1.58-.37q2.75,0,2.79,2.91V183h-1.43v-5.51a2,2,0,0,0-.4-1.34,1.84,1.84,0,0,0-1.38-.44,1.85,1.85,0,0,0-1.92,1.75V183h-1.44v-5.47a1.59,1.59,0,0,0-1.78-1.82,1.9,1.9,0,0,0-1.92,1.2V183h-1.43v-8.35Z"/><path d="M512.48,178.92a5,5,0,0,1-.87,3.07,2.78,2.78,0,0,1-2.36,1.16,3.07,3.07,0,0,1-2.39-1v4h-1.43V174.65h1.31l.07.93a2.93,2.93,0,0,1,2.42-1.08,2.87,2.87,0,0,1,2.38,1.13,5.09,5.09,0,0,1,.87,3.16Zm-1.42-.16a3.69,3.69,0,0,0-.6-2.23,2,2,0,0,0-1.66-.82,2.09,2.09,0,0,0-1.94,1.15v4a2.11,2.11,0,0,0,2,1.14,1.93,1.93,0,0,0,1.63-.81A4.07,4.07,0,0,0,511.06,178.76Z"/><path d="M518.33,175.93a5.12,5.12,0,0,0-.7-.05,1.89,1.89,0,0,0-1.91,1.2V183H514.3v-8.35h1.38l0,1a2.22,2.22,0,0,1,2-1.12,1.45,1.45,0,0,1,.63.11Z"/><path d="M519.65,172.44a.87.87,0,0,1,.21-.59.95.95,0,0,1,1.26,0,.83.83,0,0,1,.22.59.81.81,0,0,1-.22.58,1,1,0,0,1-1.26,0A.84.84,0,0,1,519.65,172.44ZM521.19,183h-1.42v-8.35h1.42Z"/><path d="M528.33,180.79a1,1,0,0,0-.43-.9,4,4,0,0,0-1.52-.55,7.21,7.21,0,0,1-1.72-.56,2.4,2.4,0,0,1-.94-.77,1.8,1.8,0,0,1-.31-1.07,2.15,2.15,0,0,1,.87-1.73,3.42,3.42,0,0,1,2.22-.71,3.48,3.48,0,0,1,2.3.73,2.34,2.34,0,0,1,.88,1.88h-1.43a1.29,1.29,0,0,0-.5-1,1.83,1.83,0,0,0-1.25-.43,2,2,0,0,0-1.22.34,1.08,1.08,0,0,0-.44.89.88.88,0,0,0,.41.78,5.11,5.11,0,0,0,1.48.5,7.77,7.77,0,0,1,1.73.57,2.51,2.51,0,0,1,1,.8,2,2,0,0,1,.32,1.14,2.15,2.15,0,0,1-.89,1.79,3.77,3.77,0,0,1-2.33.67,4.14,4.14,0,0,1-1.77-.35,3,3,0,0,1-1.21-1,2.42,2.42,0,0,1-.43-1.38h1.43a1.45,1.45,0,0,0,.57,1.14,2.23,2.23,0,0,0,1.41.42,2.28,2.28,0,0,0,1.3-.33A1,1,0,0,0,528.33,180.79Z"/><path d="M535.08,183.15a3.65,3.65,0,0,1-2.76-1.11,4.13,4.13,0,0,1-1.06-3v-.26a5.1,5.1,0,0,1,.47-2.22,3.75,3.75,0,0,1,1.33-1.53,3.31,3.31,0,0,1,1.85-.55,3.16,3.16,0,0,1,2.53,1.07,4.66,4.66,0,0,1,.9,3.07v.6h-5.65a3,3,0,0,0,.72,2,2.24,2.24,0,0,0,1.75.76,2.45,2.45,0,0,0,1.28-.31,3.26,3.26,0,0,0,.92-.82l.87.68A3.5,3.5,0,0,1,535.08,183.15Zm-.17-7.48a1.89,1.89,0,0,0-1.45.63,3,3,0,0,0-.73,1.76h4.18V178a2.71,2.71,0,0,0-.58-1.69A1.8,1.8,0,0,0,534.91,175.67Z"/><path d="M544.85,180.79a1,1,0,0,0-.44-.9,4,4,0,0,0-1.52-.55,7.37,7.37,0,0,1-1.72-.56,2.47,2.47,0,0,1-.94-.77,1.87,1.87,0,0,1-.3-1.07,2.17,2.17,0,0,1,.86-1.73,3.91,3.91,0,0,1,4.52,0,2.34,2.34,0,0,1,.89,1.88h-1.44a1.28,1.28,0,0,0-.49-1,1.85,1.85,0,0,0-1.26-.43,2,2,0,0,0-1.22.34,1.08,1.08,0,0,0-.44.89.88.88,0,0,0,.41.78,5.23,5.23,0,0,0,1.48.5,7.77,7.77,0,0,1,1.73.57,2.51,2.51,0,0,1,1,.8,1.91,1.91,0,0,1,.32,1.14,2.12,2.12,0,0,1-.89,1.79,3.76,3.76,0,0,1-2.32.67,4.19,4.19,0,0,1-1.78-.35,2.94,2.94,0,0,1-1.2-1,2.43,2.43,0,0,1-.44-1.38h1.43a1.48,1.48,0,0,0,.57,1.14,2.24,2.24,0,0,0,1.42.42,2.3,2.3,0,0,0,1.3-.33A1,1,0,0,0,544.85,180.79Z"/><path d="M300.6,191.59v2h1.55v1.1H300.6v5.18a1.23,1.23,0,0,0,.2.76.88.88,0,0,0,.71.25,3.53,3.53,0,0,0,.68-.09V202a4.2,4.2,0,0,1-1.09.15,1.75,1.75,0,0,1-1.44-.58,2.43,2.43,0,0,1-.49-1.64v-5.18h-1.52v-1.1h1.52v-2Z"/><path d="M305.25,194.62a3,3,0,0,1,2.47-1.16c1.76,0,2.65,1,2.66,3V202H309v-5.53a1.94,1.94,0,0,0-.42-1.33,1.64,1.64,0,0,0-1.26-.43,2,2,0,0,0-1.22.37,2.49,2.49,0,0,0-.81,1v6h-1.43V190.11h1.43Z"/><path d="M316.56,194.89a4,4,0,0,0-.71,0A1.87,1.87,0,0,0,314,196V202h-1.43v-8.35h1.39l0,1a2.23,2.23,0,0,1,2-1.11,1.56,1.56,0,0,1,.64.1Z"/><path d="M321.18,202.11a3.65,3.65,0,0,1-2.76-1.11,4.16,4.16,0,0,1-1.06-3v-.26a5.1,5.1,0,0,1,.47-2.22,3.66,3.66,0,0,1,1.33-1.52,3.31,3.31,0,0,1,1.85-.55,3.13,3.13,0,0,1,2.53,1.07,4.65,4.65,0,0,1,.9,3.07v.59h-5.66a3,3,0,0,0,.73,2,2.28,2.28,0,0,0,1.75.76,2.55,2.55,0,0,0,1.28-.31,3.26,3.26,0,0,0,.92-.82l.87.68A3.52,3.52,0,0,1,321.18,202.11Zm-.17-7.48a1.89,1.89,0,0,0-1.45.63,3,3,0,0,0-.73,1.76H323v-.11a2.74,2.74,0,0,0-.58-1.68A1.8,1.8,0,0,0,321,194.63Z"/><path d="M329.55,202.11a3.65,3.65,0,0,1-2.76-1.11,4.16,4.16,0,0,1-1.06-3v-.26a5,5,0,0,1,.47-2.22,3.66,3.66,0,0,1,1.33-1.52,3.3,3.3,0,0,1,1.84-.55,3.1,3.1,0,0,1,2.53,1.07,4.59,4.59,0,0,1,.91,3.07v.59h-5.66a3,3,0,0,0,.72,2,2.3,2.3,0,0,0,1.76.76,2.55,2.55,0,0,0,1.28-.31,3.4,3.4,0,0,0,.92-.82l.87.68A3.52,3.52,0,0,1,329.55,202.11Zm-.18-7.48a1.91,1.91,0,0,0-1.45.63,3,3,0,0,0-.72,1.76h4.18v-.11a2.69,2.69,0,0,0-.59-1.68A1.79,1.79,0,0,0,329.37,194.63Z"/><path d="M339.72,193.61l0,1a3,3,0,0,1,2.5-1.2c1.77,0,2.66,1,2.67,3V202H343.5v-5.53a1.89,1.89,0,0,0-.41-1.33,1.64,1.64,0,0,0-1.26-.43,2,2,0,0,0-1.22.37,2.51,2.51,0,0,0-.82,1v6h-1.42v-8.35Z"/><path d="M352.24,202a3,3,0,0,1-.21-.88,3.16,3.16,0,0,1-2.37,1,3,3,0,0,1-2-.7,2.26,2.26,0,0,1-.79-1.77,2.33,2.33,0,0,1,1-2,4.67,4.67,0,0,1,2.78-.72H352v-.66a1.58,1.58,0,0,0-.45-1.19,1.75,1.75,0,0,0-1.31-.45A2.05,2.05,0,0,0,349,195a1.13,1.13,0,0,0-.52.93H347a1.93,1.93,0,0,1,.45-1.2,2.88,2.88,0,0,1,1.2-.92,4,4,0,0,1,1.67-.34,3.3,3.3,0,0,1,2.26.72,2.57,2.57,0,0,1,.85,2V200a4.79,4.79,0,0,0,.29,1.83V202Zm-2.37-1.09a2.53,2.53,0,0,0,1.27-.35,2.09,2.09,0,0,0,.87-.9v-1.71h-1.12c-1.74,0-2.62.51-2.62,1.53a1.29,1.29,0,0,0,.45,1.05A1.73,1.73,0,0,0,349.87,200.87Z"/><path d="M357.61,191.59v2h1.56v1.1h-1.56v5.18a1.17,1.17,0,0,0,.21.76.88.88,0,0,0,.71.25,3.62,3.62,0,0,0,.68-.09V202a4.28,4.28,0,0,1-1.1.15,1.76,1.76,0,0,1-1.44-.58,2.49,2.49,0,0,1-.48-1.64v-5.18h-1.52v-1.1h1.52v-2Z"/><path d="M360.84,191.4a.82.82,0,0,1,.22-.59.79.79,0,0,1,.63-.24.82.82,0,0,1,.63.24.85.85,0,0,1,.21.59.8.8,0,0,1-.21.57.82.82,0,0,1-.63.24.79.79,0,0,1-.63-.24A.77.77,0,0,1,360.84,191.4ZM362.39,202H361v-8.35h1.43Z"/><path d="M364.29,197.71a5,5,0,0,1,.48-2.21,3.75,3.75,0,0,1,6.07-.86,4.53,4.53,0,0,1,1.05,3.14v.1a5,5,0,0,1-.47,2.18,3.5,3.5,0,0,1-1.33,1.51,3.72,3.72,0,0,1-2,.54,3.51,3.51,0,0,1-2.75-1.18,4.53,4.53,0,0,1-1-3.12Zm1.44.17a3.55,3.55,0,0,0,.64,2.22,2.06,2.06,0,0,0,1.72.85,2,2,0,0,0,1.73-.86,3.87,3.87,0,0,0,.64-2.38,3.6,3.6,0,0,0-.65-2.23,2.17,2.17,0,0,0-3.44,0A3.89,3.89,0,0,0,365.73,197.88Z"/><path d="M375,193.61l0,1a3.06,3.06,0,0,1,2.5-1.2c1.77,0,2.66,1,2.67,3V202h-1.42v-5.53a1.94,1.94,0,0,0-.42-1.33,1.64,1.64,0,0,0-1.26-.43,2,2,0,0,0-1.22.37,2.4,2.4,0,0,0-.81,1v6h-1.43v-8.35Z"/><path d="M387.55,202a3.1,3.1,0,0,1-.2-.88,3.2,3.2,0,0,1-2.38,1,2.91,2.91,0,0,1-2-.7,2.23,2.23,0,0,1-.79-1.77,2.35,2.35,0,0,1,1-2,4.68,4.68,0,0,1,2.79-.72h1.38v-.66a1.62,1.62,0,0,0-.44-1.19,1.79,1.79,0,0,0-1.32-.45,2.05,2.05,0,0,0-1.28.39,1.13,1.13,0,0,0-.52.93h-1.43a1.92,1.92,0,0,1,.44-1.2,3,3,0,0,1,1.2-.92,4,4,0,0,1,1.67-.34,3.3,3.3,0,0,1,2.26.72,2.57,2.57,0,0,1,.85,2V200a4.79,4.79,0,0,0,.29,1.83V202Zm-2.37-1.09a2.51,2.51,0,0,0,1.27-.35,2.09,2.09,0,0,0,.87-.9v-1.71h-1.11c-1.75,0-2.63.51-2.63,1.53a1.29,1.29,0,0,0,.45,1.05A1.73,1.73,0,0,0,385.18,200.87Z"/><path d="M392.54,202h-1.43V190.11h1.43Z"/><path d="M405.78,197.88a5,5,0,0,1-.87,3.07,2.81,2.81,0,0,1-2.36,1.16,3.07,3.07,0,0,1-2.39-1v4h-1.43V193.61H400l.07.93a3,3,0,0,1,2.43-1.08,2.81,2.81,0,0,1,2.37,1.13,5,5,0,0,1,.88,3.15Zm-1.43-.17a3.71,3.71,0,0,0-.6-2.23,1.94,1.94,0,0,0-1.65-.81,2.09,2.09,0,0,0-1.94,1.15v4a2.1,2.1,0,0,0,2,1.15,2,2,0,0,0,1.63-.82A4.05,4.05,0,0,0,404.35,197.71Z"/><path d="M412.75,202a3,3,0,0,1-.21-.88,3.16,3.16,0,0,1-2.37,1,3,3,0,0,1-2-.7,2.26,2.26,0,0,1-.79-1.77,2.33,2.33,0,0,1,1-2,4.67,4.67,0,0,1,2.78-.72h1.39v-.66a1.58,1.58,0,0,0-.45-1.19,1.75,1.75,0,0,0-1.31-.45,2.05,2.05,0,0,0-1.28.39,1.13,1.13,0,0,0-.52.93h-1.44a1.93,1.93,0,0,1,.45-1.2,2.88,2.88,0,0,1,1.2-.92,4,4,0,0,1,1.67-.34,3.3,3.3,0,0,1,2.26.72,2.57,2.57,0,0,1,.85,2V200a4.79,4.79,0,0,0,.29,1.83V202Zm-2.37-1.09a2.53,2.53,0,0,0,1.27-.35,2.09,2.09,0,0,0,.87-.9v-1.71H411.4c-1.75,0-2.62.51-2.62,1.53a1.29,1.29,0,0,0,.45,1.05A1.73,1.73,0,0,0,410.38,200.87Z"/><path d="M420.22,194.89a3.91,3.91,0,0,0-.7,0,1.88,1.88,0,0,0-1.91,1.19V202h-1.42v-8.35h1.38l0,1a2.22,2.22,0,0,1,2-1.11,1.5,1.5,0,0,1,.63.1Z"/><path d="M423.86,198.09,423,199V202h-1.43V190.11H423v7.16l.76-.91,2.6-2.75h1.73l-3.24,3.49,3.62,4.86h-1.67Z"/><path d="M434.4,199.74a1.07,1.07,0,0,0-.44-.9,4.4,4.4,0,0,0-1.52-.55,7.41,7.41,0,0,1-1.72-.55,2.56,2.56,0,0,1-.94-.77,1.89,1.89,0,0,1-.3-1.07,2.17,2.17,0,0,1,.86-1.73,3.36,3.36,0,0,1,2.22-.71,3.47,3.47,0,0,1,2.3.73,2.33,2.33,0,0,1,.89,1.87h-1.44a1.28,1.28,0,0,0-.5-1,1.87,1.87,0,0,0-1.25-.42,1.94,1.94,0,0,0-1.22.34,1.06,1.06,0,0,0-.44.88.86.86,0,0,0,.41.78,4.66,4.66,0,0,0,1.48.5,7.25,7.25,0,0,1,1.73.58,2.49,2.49,0,0,1,1,.79,1.94,1.94,0,0,1,.32,1.14,2.12,2.12,0,0,1-.89,1.79,3.76,3.76,0,0,1-2.32.68,4.35,4.35,0,0,1-1.78-.35,2.89,2.89,0,0,1-1.2-1,2.38,2.38,0,0,1-.44-1.37h1.43a1.43,1.43,0,0,0,.57,1.13,2.19,2.19,0,0,0,1.42.43,2.3,2.3,0,0,0,1.3-.33A1,1,0,0,0,434.4,199.74Z"/><path d="M446.75,202a3,3,0,0,1-.21-.88,3.16,3.16,0,0,1-2.37,1,3,3,0,0,1-2-.7,2.26,2.26,0,0,1-.79-1.77,2.33,2.33,0,0,1,1-2,4.67,4.67,0,0,1,2.78-.72h1.39v-.66a1.58,1.58,0,0,0-.45-1.19,1.75,1.75,0,0,0-1.31-.45,2.05,2.05,0,0,0-1.28.39,1.13,1.13,0,0,0-.52.93h-1.44a1.93,1.93,0,0,1,.45-1.2,2.88,2.88,0,0,1,1.2-.92,4,4,0,0,1,1.67-.34,3.3,3.3,0,0,1,2.26.72,2.57,2.57,0,0,1,.85,2V200a4.79,4.79,0,0,0,.29,1.83V202Zm-2.37-1.09a2.53,2.53,0,0,0,1.27-.35,2.09,2.09,0,0,0,.87-.9v-1.71H445.4c-1.75,0-2.62.51-2.62,1.53a1.29,1.29,0,0,0,.45,1.05A1.73,1.73,0,0,0,444.38,200.87Z"/><path d="M451.53,193.61l.05,1a3,3,0,0,1,2.5-1.2c1.76,0,2.65,1,2.67,3V202h-1.43v-5.53a1.89,1.89,0,0,0-.41-1.33,1.64,1.64,0,0,0-1.26-.43,2,2,0,0,0-1.22.37,2.51,2.51,0,0,0-.82,1v6h-1.42v-8.35Z"/><path d="M458.55,197.71a4.94,4.94,0,0,1,.91-3.09,3.11,3.11,0,0,1,4.71-.16v-4.35h1.43V202h-1.32l-.06-.9a2.93,2.93,0,0,1-2.39,1.05,2.85,2.85,0,0,1-2.36-1.19,4.93,4.93,0,0,1-.92-3.1Zm1.43.17a3.73,3.73,0,0,0,.59,2.22,1.9,1.9,0,0,0,1.62.8,2.09,2.09,0,0,0,2-1.22v-3.83a2.09,2.09,0,0,0-2-1.18,1.89,1.89,0,0,0-1.63.81A4.08,4.08,0,0,0,460,197.88Z"/><path d="M476.87,202a3.1,3.1,0,0,1-.2-.88,3.16,3.16,0,0,1-2.37,1,2.93,2.93,0,0,1-2-.7,2.23,2.23,0,0,1-.79-1.77,2.35,2.35,0,0,1,1-2,4.68,4.68,0,0,1,2.79-.72h1.39v-.66a1.58,1.58,0,0,0-.45-1.19,1.79,1.79,0,0,0-1.32-.45,2.07,2.07,0,0,0-1.28.39,1.15,1.15,0,0,0-.51.93h-1.44a2,2,0,0,1,.44-1.2,3,3,0,0,1,1.21-.92,4,4,0,0,1,1.67-.34,3.31,3.31,0,0,1,2.26.72,2.61,2.61,0,0,1,.85,2V200a4.61,4.61,0,0,0,.29,1.83V202Zm-2.37-1.09a2.54,2.54,0,0,0,1.28-.35,2.09,2.09,0,0,0,.87-.9v-1.71h-1.12c-1.75,0-2.62.51-2.62,1.53a1.32,1.32,0,0,0,.44,1.05A1.75,1.75,0,0,0,474.5,200.87Z"/><path d="M486.16,191.59v2h1.56v1.1h-1.56v5.18a1.17,1.17,0,0,0,.21.76.86.86,0,0,0,.71.25,3.62,3.62,0,0,0,.68-.09V202a4.28,4.28,0,0,1-1.1.15,1.75,1.75,0,0,1-1.44-.58,2.43,2.43,0,0,1-.49-1.64v-5.18h-1.52v-1.1h1.52v-2Z"/><path d="M488.85,197.71a5,5,0,0,1,.48-2.21,3.75,3.75,0,0,1,6.07-.86,4.53,4.53,0,0,1,1.05,3.14v.1a5,5,0,0,1-.47,2.18,3.5,3.5,0,0,1-1.33,1.51,3.72,3.72,0,0,1-2,.54,3.51,3.51,0,0,1-2.75-1.18,4.53,4.53,0,0,1-1-3.12Zm1.44.17a3.55,3.55,0,0,0,.64,2.22,2.17,2.17,0,0,0,3.45,0,3.87,3.87,0,0,0,.64-2.38,3.6,3.6,0,0,0-.65-2.23,2.17,2.17,0,0,0-3.44,0A3.89,3.89,0,0,0,490.29,197.88Z"/><path d="M500.17,191.59v2h1.56v1.1h-1.56v5.18a1.17,1.17,0,0,0,.21.76.88.88,0,0,0,.71.25,3.53,3.53,0,0,0,.68-.09V202a4.2,4.2,0,0,1-1.09.15,1.79,1.79,0,0,1-1.45-.58,2.49,2.49,0,0,1-.48-1.64v-5.18h-1.52v-1.1h1.52v-2Z"/><path d="M508.55,202a3.1,3.1,0,0,1-.2-.88,3.16,3.16,0,0,1-2.37,1,2.93,2.93,0,0,1-2-.7,2.23,2.23,0,0,1-.79-1.77,2.35,2.35,0,0,1,1-2,4.68,4.68,0,0,1,2.79-.72h1.39v-.66a1.58,1.58,0,0,0-.45-1.19,1.79,1.79,0,0,0-1.32-.45,2.07,2.07,0,0,0-1.28.39,1.16,1.16,0,0,0-.52.93h-1.43a2,2,0,0,1,.44-1.2,3,3,0,0,1,1.21-.92,4,4,0,0,1,1.67-.34,3.31,3.31,0,0,1,2.26.72,2.6,2.6,0,0,1,.84,2V200a4.59,4.59,0,0,0,.3,1.83V202Zm-2.37-1.09a2.54,2.54,0,0,0,1.28-.35,2.09,2.09,0,0,0,.87-.9v-1.71h-1.12c-1.75,0-2.62.51-2.62,1.53a1.32,1.32,0,0,0,.44,1.05A1.75,1.75,0,0,0,506.18,200.87Z"/><path d="M513.54,202h-1.43V190.11h1.43Z"/><path d="M519.36,197.71a5,5,0,0,1,.48-2.21,3.53,3.53,0,0,1,3.3-2,3.51,3.51,0,0,1,2.76,1.18,4.53,4.53,0,0,1,1.05,3.14v.1a5,5,0,0,1-.46,2.18,3.52,3.52,0,0,1-1.34,1.51,3.69,3.69,0,0,1-2,.54,3.5,3.5,0,0,1-2.75-1.18,4.53,4.53,0,0,1-1-3.12Zm1.43.17a3.55,3.55,0,0,0,.65,2.22,2.17,2.17,0,0,0,3.45,0,3.94,3.94,0,0,0,.64-2.38,3.6,3.6,0,0,0-.65-2.23,2.09,2.09,0,0,0-1.74-.85,2,2,0,0,0-1.7.84A3.89,3.89,0,0,0,520.79,197.88Z"/><path d="M529.45,202v-7.25h-1.32v-1.1h1.32v-.86a2.83,2.83,0,0,1,.71-2.07,2.72,2.72,0,0,1,2-.73,3.62,3.62,0,0,1,1,.13l-.08,1.15a3.74,3.74,0,0,0-.77-.07,1.39,1.39,0,0,0-1.07.4,1.66,1.66,0,0,0-.38,1.17v.88h1.78v1.1h-1.78V202Z"/><path d="M313,220.91h-7.36v-1l3.88-4.32a9.45,9.45,0,0,0,1.2-1.6,2.75,2.75,0,0,0,.32-1.27,2,2,0,0,0-.53-1.44,1.87,1.87,0,0,0-1.42-.56,2.2,2.2,0,0,0-1.65.6,2.31,2.31,0,0,0-.59,1.69h-1.43a3.31,3.31,0,0,1,1-2.51,3.74,3.74,0,0,1,2.67-.95,3.55,3.55,0,0,1,2.48.82,2.78,2.78,0,0,1,.91,2.18c0,1.11-.71,2.43-2.11,3.95l-3,3.27H313Z"/><path d="M314.71,220.16a.91.91,0,0,1,.22-.61.83.83,0,0,1,.66-.25.84.84,0,0,1,.67.25.87.87,0,0,1,.23.61.85.85,0,0,1-.23.6.87.87,0,0,1-.67.24.86.86,0,0,1-.66-.24A.89.89,0,0,1,314.71,220.16Z"/><path d="M319.35,215.28l.57-5.6h5.76V211h-4.55l-.34,3.06a3.68,3.68,0,0,1,1.88-.48,3.07,3.07,0,0,1,2.43,1,3.94,3.94,0,0,1,.91,2.74,3.88,3.88,0,0,1-.94,2.74,3.45,3.45,0,0,1-2.62,1,3.56,3.56,0,0,1-2.43-.83A3.29,3.29,0,0,1,319,218h1.35a2.28,2.28,0,0,0,.68,1.45,2.14,2.14,0,0,0,1.47.49,1.92,1.92,0,0,0,1.56-.68,2.82,2.82,0,0,0,.57-1.87,2.59,2.59,0,0,0-.61-1.81,2.08,2.08,0,0,0-1.63-.68,2.3,2.3,0,0,0-1.47.41l-.38.3Z"/><path d="M333,212.57l0,.92a3.09,3.09,0,0,1,2.48-1.08,2.38,2.38,0,0,1,2.38,1.34,3.19,3.19,0,0,1,1.09-1,3.14,3.14,0,0,1,1.57-.37c1.83,0,2.76,1,2.8,2.91v5.59h-1.43V215.4a1.91,1.91,0,0,0-.41-1.33,1.78,1.78,0,0,0-1.37-.45,1.86,1.86,0,0,0-1.93,1.75v5.54h-1.44v-5.47a1.59,1.59,0,0,0-1.78-1.82,1.92,1.92,0,0,0-1.92,1.2v6.09h-1.43v-8.34Z"/><path d="M345.48,210.35a.84.84,0,0,1,.21-.58.79.79,0,0,1,.63-.24.82.82,0,0,1,.63.24.84.84,0,0,1,.21.58.83.83,0,0,1-.21.58.85.85,0,0,1-.63.23.76.76,0,0,1-.84-.81ZM347,220.91h-1.43v-8.34H347Z"/><path d="M350.85,220.91h-1.43V209.06h1.43Z"/><path d="M354.68,220.91h-1.42V209.06h1.42Z"/><path d="M357,210.35a.84.84,0,0,1,.21-.58.79.79,0,0,1,.63-.24.82.82,0,0,1,.63.24.84.84,0,0,1,.21.58.83.83,0,0,1-.21.58.85.85,0,0,1-.63.23.76.76,0,0,1-.84-.81Zm1.54,10.56h-1.43v-8.34h1.43Z"/><path d="M360.42,216.66a4.9,4.9,0,0,1,.48-2.2,3.64,3.64,0,0,1,1.35-1.52,3.69,3.69,0,0,1,2-.53,3.51,3.51,0,0,1,2.76,1.18,4.55,4.55,0,0,1,1,3.14v.1a5,5,0,0,1-.47,2.19,3.55,3.55,0,0,1-1.33,1.51,3.69,3.69,0,0,1-2,.54,3.52,3.52,0,0,1-2.75-1.18,4.5,4.5,0,0,1-1.06-3.13Zm1.44.17a3.56,3.56,0,0,0,.64,2.23,2.07,2.07,0,0,0,1.73.84,2,2,0,0,0,1.72-.85,3.9,3.9,0,0,0,.64-2.39,3.51,3.51,0,0,0-.65-2.22,2.07,2.07,0,0,0-1.73-.86,2,2,0,0,0-1.7.84A3.86,3.86,0,0,0,361.86,216.83Z"/><path d="M371.16,212.57l0,1a3,3,0,0,1,2.49-1.2c1.77,0,2.66,1,2.67,3v5.51H375v-5.52a2,2,0,0,0-.42-1.34,1.68,1.68,0,0,0-1.26-.43,2.12,2.12,0,0,0-1.22.37,2.47,2.47,0,0,0-.81,1v5.95h-1.43v-8.34Z"/><path d="M383.86,213.58a3,3,0,0,1,2.47-1.17c1.76,0,2.65,1,2.67,3v5.51h-1.43v-5.52a1.92,1.92,0,0,0-.41-1.34,1.68,1.68,0,0,0-1.26-.43,2.12,2.12,0,0,0-1.22.37,2.58,2.58,0,0,0-.82,1v5.95h-1.42V209.06h1.42Z"/><path d="M394.6,221.07a3.66,3.66,0,0,1-2.76-1.12,4.14,4.14,0,0,1-1.07-3v-.26a5,5,0,0,1,.48-2.22,3.68,3.68,0,0,1,1.33-1.53,3.36,3.36,0,0,1,1.84-.55,3.13,3.13,0,0,1,2.53,1.07,4.66,4.66,0,0,1,.9,3.07v.6H392.2a3,3,0,0,0,.72,2,2.27,2.27,0,0,0,1.76.76,2.45,2.45,0,0,0,1.28-.31,3.24,3.24,0,0,0,.92-.82l.87.68A3.5,3.5,0,0,1,394.6,221.07Zm-.18-7.49a1.91,1.91,0,0,0-1.45.63,3.05,3.05,0,0,0-.72,1.76h4.18v-.1a2.72,2.72,0,0,0-.59-1.69A1.79,1.79,0,0,0,394.42,213.58Z"/><path d="M402.85,219.9a2.06,2.06,0,0,0,1.34-.46,1.64,1.64,0,0,0,.63-1.16h1.35a2.68,2.68,0,0,1-.49,1.37,3.33,3.33,0,0,1-1.22,1,3.48,3.48,0,0,1-1.61.39,3.44,3.44,0,0,1-2.71-1.14,4.54,4.54,0,0,1-1-3.11v-.24a5,5,0,0,1,.44-2.17,3.42,3.42,0,0,1,1.29-1.47,3.61,3.61,0,0,1,2-.53,3.35,3.35,0,0,1,2.33.84,3,3,0,0,1,1,2.19h-1.35a2,2,0,0,0-.61-1.34,1.94,1.94,0,0,0-1.36-.52,2,2,0,0,0-1.69.79,3.65,3.65,0,0,0-.6,2.26v.27a3.58,3.58,0,0,0,.6,2.22A2,2,0,0,0,402.85,219.9Z"/><path d="M409.71,210.54v2h1.56v1.1h-1.56v5.18a1.12,1.12,0,0,0,.21.75.86.86,0,0,0,.71.25,3.62,3.62,0,0,0,.68-.09v1.15a4.3,4.3,0,0,1-1.1.16,1.78,1.78,0,0,1-1.44-.58,2.48,2.48,0,0,1-.49-1.65v-5.17h-1.52v-1.1h1.52v-2Z"/><path d="M418.09,220.91a2.71,2.71,0,0,1-.2-.88,3.21,3.21,0,0,1-2.38,1,3,3,0,0,1-2-.7,2.29,2.29,0,0,1-.79-1.77,2.35,2.35,0,0,1,1-2,4.67,4.67,0,0,1,2.78-.72h1.39v-.65a1.66,1.66,0,0,0-.44-1.2,1.83,1.83,0,0,0-1.32-.44,2.05,2.05,0,0,0-1.28.39,1.11,1.11,0,0,0-.52.93h-1.44a2,2,0,0,1,.45-1.21,3,3,0,0,1,1.2-.92,4,4,0,0,1,1.67-.34,3.3,3.3,0,0,1,2.26.72,2.6,2.6,0,0,1,.85,2V219a4.79,4.79,0,0,0,.29,1.83v.12Zm-2.37-1.09a2.49,2.49,0,0,0,1.27-.34,2.11,2.11,0,0,0,.87-.91v-1.71h-1.12c-1.74,0-2.62.51-2.62,1.54a1.32,1.32,0,0,0,.45,1A1.73,1.73,0,0,0,415.72,219.82Z"/><path d="M425.56,213.85a3.88,3.88,0,0,0-.7-.06A1.89,1.89,0,0,0,423,215v5.92h-1.42v-8.34h1.38l0,1a2.22,2.22,0,0,1,2-1.12,1.45,1.45,0,0,1,.63.11Z"/><path d="M430.19,221.07a3.66,3.66,0,0,1-2.76-1.12,4.14,4.14,0,0,1-1.07-3v-.26a5,5,0,0,1,.48-2.22,3.73,3.73,0,0,1,1.32-1.53,3.42,3.42,0,0,1,1.85-.55,3.13,3.13,0,0,1,2.53,1.07,4.66,4.66,0,0,1,.9,3.07v.6h-5.65a3,3,0,0,0,.72,2,2.27,2.27,0,0,0,1.76.76,2.45,2.45,0,0,0,1.28-.31,3.08,3.08,0,0,0,.91-.82l.88.68A3.5,3.5,0,0,1,430.19,221.07Zm-.18-7.49a1.91,1.91,0,0,0-1.45.63,3.05,3.05,0,0,0-.72,1.76H432v-.1a2.72,2.72,0,0,0-.59-1.69A1.79,1.79,0,0,0,430,213.58Z"/><path d="M440,218.7a1,1,0,0,0-.43-.9,4.2,4.2,0,0,0-1.52-.55,7.21,7.21,0,0,1-1.72-.56,2.31,2.31,0,0,1-.94-.77,1.79,1.79,0,0,1-.31-1.06,2.16,2.16,0,0,1,.87-1.74,3.42,3.42,0,0,1,2.22-.71,3.54,3.54,0,0,1,2.3.73,2.34,2.34,0,0,1,.88,1.88h-1.43a1.29,1.29,0,0,0-.5-1,1.88,1.88,0,0,0-1.25-.43,2,2,0,0,0-1.22.34,1.09,1.09,0,0,0-.44.89.88.88,0,0,0,.41.78,5.11,5.11,0,0,0,1.48.5,8,8,0,0,1,1.73.57,2.51,2.51,0,0,1,1,.8,2,2,0,0,1,.32,1.14,2.15,2.15,0,0,1-.89,1.79,3.79,3.79,0,0,1-2.33.68,4.15,4.15,0,0,1-1.77-.36,3,3,0,0,1-1.21-1,2.37,2.37,0,0,1-.43-1.38h1.42a1.49,1.49,0,0,0,.58,1.14,2.23,2.23,0,0,0,1.41.42,2.28,2.28,0,0,0,1.3-.33A1,1,0,0,0,440,218.7Z"/><path d="M447.16,210.35a.84.84,0,0,1,.21-.58.95.95,0,0,1,1.26,0,.85.85,0,0,1,.22.58.83.83,0,0,1-.22.58.84.84,0,0,1-1.47-.58Zm1.54,10.56h-1.43v-8.34h1.43Z"/><path d="M452.33,212.57l.05,1a3,3,0,0,1,2.5-1.2c1.76,0,2.65,1,2.67,3v5.51h-1.43v-5.52a2,2,0,0,0-.41-1.34,1.68,1.68,0,0,0-1.26-.43,2.1,2.1,0,0,0-1.22.37,2.5,2.5,0,0,0-.82,1v5.95H451v-8.34Z"/><path d="M467.14,215.91a7.05,7.05,0,0,1-2.77-1.35,2.57,2.57,0,0,1-.87-2,2.71,2.71,0,0,1,1.06-2.2,4.27,4.27,0,0,1,2.76-.86,4.69,4.69,0,0,1,2.06.44,3.41,3.41,0,0,1,1.41,1.24,3.16,3.16,0,0,1,.49,1.72H469.8a2.07,2.07,0,0,0-.65-1.61,2.63,2.63,0,0,0-1.83-.58,2.72,2.72,0,0,0-1.71.48,1.6,1.6,0,0,0-.61,1.34,1.43,1.43,0,0,0,.58,1.16,5.63,5.63,0,0,0,2,.87,9.53,9.53,0,0,1,2.19.87,3.43,3.43,0,0,1,1.18,1.11,2.87,2.87,0,0,1,.38,1.49,2.61,2.61,0,0,1-1.07,2.18,4.52,4.52,0,0,1-2.84.83,5.22,5.22,0,0,1-2.16-.45,3.6,3.6,0,0,1-1.55-1.21,3,3,0,0,1-.54-1.75h1.49a1.91,1.91,0,0,0,.75,1.6,3.12,3.12,0,0,0,2,.59,2.87,2.87,0,0,0,1.79-.47,1.56,1.56,0,0,0,.63-1.31,1.5,1.5,0,0,0-.58-1.27A6.72,6.72,0,0,0,467.14,215.91Z"/><path d="M478.13,220.09a3,3,0,0,1-2.44,1,2.57,2.57,0,0,1-2-.78A3.31,3.31,0,0,1,473,218v-5.43h1.43V218c0,1.26.51,1.89,1.54,1.89a2.13,2.13,0,0,0,2.17-1.21v-6.07h1.43v8.34h-1.36Z"/><path d="M483,212.57l0,.92a3.09,3.09,0,0,1,2.48-1.08,2.39,2.39,0,0,1,2.38,1.34,3.26,3.26,0,0,1,1.08-1,3.18,3.18,0,0,1,1.58-.37q2.75,0,2.79,2.91v5.59H492V215.4a1.91,1.91,0,0,0-.4-1.33,1.8,1.8,0,0,0-1.38-.45,1.88,1.88,0,0,0-1.32.48,1.92,1.92,0,0,0-.61,1.27v5.54h-1.43v-5.47a1.59,1.59,0,0,0-1.78-1.82,1.9,1.9,0,0,0-1.92,1.2v6.09h-1.43v-8.34Z"/><path d="M500.69,220.91a2.71,2.71,0,0,1-.2-.88,3.21,3.21,0,0,1-2.38,1,3,3,0,0,1-2-.7,2.26,2.26,0,0,1-.79-1.77,2.37,2.37,0,0,1,1-2,4.67,4.67,0,0,1,2.78-.72h1.39v-.65A1.66,1.66,0,0,0,500,214a1.83,1.83,0,0,0-1.32-.44,2.05,2.05,0,0,0-1.28.39,1.11,1.11,0,0,0-.52.93h-1.43a1.94,1.94,0,0,1,.44-1.21,3,3,0,0,1,1.2-.92,4,4,0,0,1,1.67-.34,3.3,3.3,0,0,1,2.26.72,2.6,2.6,0,0,1,.85,2V219a4.79,4.79,0,0,0,.29,1.83v.12Zm-2.37-1.09a2.49,2.49,0,0,0,1.27-.34,2.11,2.11,0,0,0,.87-.91v-1.71h-1.11c-1.75,0-2.63.51-2.63,1.54a1.32,1.32,0,0,0,.45,1A1.73,1.73,0,0,0,498.32,219.82Z"/><path d="M506.06,210.54v2h1.56v1.1h-1.56v5.18a1.12,1.12,0,0,0,.21.75.88.88,0,0,0,.71.25,3.53,3.53,0,0,0,.68-.09v1.15a4.3,4.3,0,0,1-1.1.16,1.8,1.8,0,0,1-1.44-.58,2.53,2.53,0,0,1-.48-1.65v-5.17h-1.52v-1.1h1.52v-2Z"/><path d="M513.32,213.85a3.88,3.88,0,0,0-.7-.06,1.89,1.89,0,0,0-1.91,1.2v5.92h-1.42v-8.34h1.38l0,1a2.22,2.22,0,0,1,2-1.12,1.45,1.45,0,0,1,.63.11Z"/><path d="M519.48,220.91a2.94,2.94,0,0,1-.21-.88,3.17,3.17,0,0,1-2.37,1,3,3,0,0,1-2-.7,2.29,2.29,0,0,1-.79-1.77,2.35,2.35,0,0,1,1-2,4.67,4.67,0,0,1,2.78-.72h1.39v-.65a1.66,1.66,0,0,0-.44-1.2,1.83,1.83,0,0,0-1.32-.44,2.05,2.05,0,0,0-1.28.39,1.11,1.11,0,0,0-.52.93h-1.44a2,2,0,0,1,.45-1.21,3,3,0,0,1,1.2-.92,4,4,0,0,1,1.67-.34,3.3,3.3,0,0,1,2.26.72,2.6,2.6,0,0,1,.85,2V219a4.79,4.79,0,0,0,.29,1.83v.12Zm-2.37-1.09a2.49,2.49,0,0,0,1.27-.34,2.11,2.11,0,0,0,.87-.91v-1.71h-1.12c-1.74,0-2.62.51-2.62,1.54a1.32,1.32,0,0,0,.45,1A1.73,1.73,0,0,0,517.11,219.82Z"/><path d="M523,220.16a.86.86,0,0,1,.22-.61.8.8,0,0,1,.66-.25.83.83,0,0,1,.66.25.87.87,0,0,1,.23.61.85.85,0,0,1-.23.6.86.86,0,0,1-.66.24.8.8,0,0,1-.88-.84Z"/><path class="cls-1" d="M338.79,47.65h-6l-1.14,2.77H328.6l5.75-12.9h2.95l5.77,12.9h-3.14Zm-.94-2.27-2-4.93-2.05,4.93Z"/><path class="cls-1" d="M356.24,37.52v12.9h-2.45l-6.43-7.84v7.84h-2.95V37.52h2.47l6.41,7.83V37.52Z"/><path class="cls-1" d="M366,49.11a5.88,5.88,0,0,1-1.54-4.37V37.52h3v7.11q0,3.46,2.88,3.46a2.71,2.71,0,0,0,2.13-.83,3.88,3.88,0,0,0,.74-2.63V37.52h2.95v7.22A6.1,6.1,0,0,1,366,49.11Z"/><path class="cls-1" d="M390.87,37.52v12.9h-2.45L382,42.58v7.84H379V37.52h2.47l6.41,7.83V37.52Z"/><path class="cls-1" d="M393.54,42.73h5.22V45h-5.22Z"/><path class="cls-1" d="M401.41,37.52h5.86a8.21,8.21,0,0,1,3.72.8,5.94,5.94,0,0,1,2.5,2.25,6.85,6.85,0,0,1,0,6.79,5.94,5.94,0,0,1-2.5,2.25,8.21,8.21,0,0,1-3.72.81h-5.86ZM407.13,48a4.32,4.32,0,0,0,3.08-1.08,4.29,4.29,0,0,0,0-5.85A4.36,4.36,0,0,0,407.13,40H404.4v8Z"/><path class="cls-1" d="M426.62,48v2.4h-10V37.52h9.75v2.39H419.6v2.8h6V45h-6v3Z"/><path class="cls-1" d="M430.28,50.22A6.6,6.6,0,0,1,428,49.14l1-2.24a6.84,6.84,0,0,0,2,1,7.31,7.31,0,0,0,2.29.37,3.57,3.57,0,0,0,1.88-.38,1.14,1.14,0,0,0,.61-1,1,1,0,0,0-.36-.77,2.75,2.75,0,0,0-.92-.48c-.38-.13-.89-.26-1.53-.41a21.31,21.31,0,0,1-2.41-.7,3.92,3.92,0,0,1-1.61-1.12,3.05,3.05,0,0,1-.67-2.07,3.58,3.58,0,0,1,.6-2,4.14,4.14,0,0,1,1.84-1.45,7.37,7.37,0,0,1,3-.54,9.84,9.84,0,0,1,2.42.3,7.24,7.24,0,0,1,2.06.85l-.92,2.26a7.26,7.26,0,0,0-3.58-1,3.36,3.36,0,0,0-1.85.41,1.23,1.23,0,0,0-.6,1.06,1,1,0,0,0,.69,1,10.65,10.65,0,0,0,2.11.64,19.11,19.11,0,0,1,2.42.7,4,4,0,0,1,1.61,1.1,3,3,0,0,1,.67,2,3.53,3.53,0,0,1-.61,2,4.18,4.18,0,0,1-1.86,1.44,7.45,7.45,0,0,1-3,.54A10.43,10.43,0,0,1,430.28,50.22Z"/><path class="cls-1" d="M440.76,37.52h3v12.9h-3Z"/><path class="cls-1" d="M455.52,43.76h2.73V49a7.69,7.69,0,0,1-2.43,1.21,9.27,9.27,0,0,1-2.79.43,7.55,7.55,0,0,1-3.61-.86,6.35,6.35,0,0,1-2.52-2.38,6.94,6.94,0,0,1,0-6.87,6.41,6.41,0,0,1,2.54-2.38,7.71,7.71,0,0,1,3.65-.86,8,8,0,0,1,3.08.58,6.15,6.15,0,0,1,2.32,1.65l-1.92,1.77a4.42,4.42,0,0,0-3.33-1.45,4.61,4.61,0,0,0-2.2.51,3.74,3.74,0,0,0-1.49,1.46A4.24,4.24,0,0,0,449,44a4.18,4.18,0,0,0,.53,2.13A3.8,3.8,0,0,0,451,47.57a4.44,4.44,0,0,0,2.17.52,4.82,4.82,0,0,0,2.32-.55Z"/><path class="cls-1" d="M472.84,37.52v12.9h-2.45L464,42.58v7.84H461V37.52h2.47l6.41,7.83V37.52Z"/><path class="cls-1" d="M485.89,48v2.4h-10V37.52h9.75v2.39h-6.78v2.8h6V45h-6v3Z"/><path class="cls-1" d="M488.27,37.52h5.86a8.14,8.14,0,0,1,3.71.8,6,6,0,0,1,2.51,2.25,6.92,6.92,0,0,1,0,6.79,6,6,0,0,1-2.51,2.25,8.14,8.14,0,0,1-3.71.81h-5.86ZM494,48a4.34,4.34,0,0,0,3.09-1.08,4.29,4.29,0,0,0,0-5.85A4.38,4.38,0,0,0,494,40h-2.73v8Z"/><path class="cls-1" d="M286.83,65.88h2.73v5.23a7.71,7.71,0,0,1-2.43,1.22,9.58,9.58,0,0,1-2.79.42,7.54,7.54,0,0,1-3.61-.85,6.49,6.49,0,0,1-2.52-2.38,7,7,0,0,1,0-6.88,6.38,6.38,0,0,1,2.54-2.37,7.71,7.71,0,0,1,3.65-.86,8,8,0,0,1,3.08.57,6.07,6.07,0,0,1,2.32,1.66l-1.92,1.77A4.43,4.43,0,0,0,284.55,62a4.61,4.61,0,0,0-2.2.52,3.67,3.67,0,0,0-1.49,1.46,4.53,4.53,0,0,0,0,4.29,3.78,3.78,0,0,0,1.48,1.46,4.44,4.44,0,0,0,2.17.53,4.82,4.82,0,0,0,2.32-.55Z"/><path class="cls-1" d="M302.31,70.14v2.39h-10V59.63h9.75V62h-6.78v2.8h6v2.32h-6v3Z"/><path class="cls-1" d="M307.28,71.89a6.71,6.71,0,0,1-2.53-9.23,6.38,6.38,0,0,1,2.53-2.38,7.95,7.95,0,0,1,7.23,0A6.67,6.67,0,0,1,317,69.5a6.61,6.61,0,0,1-2.53,2.39,8,8,0,0,1-7.23,0ZM313,69.68a3.7,3.7,0,0,0,1.45-1.46,4.59,4.59,0,0,0,0-4.28A3.77,3.77,0,0,0,313,62.48,4.08,4.08,0,0,0,310.9,62a4.14,4.14,0,0,0-2.07.53,3.81,3.81,0,0,0-1.44,1.46,4.59,4.59,0,0,0,0,4.28,3.74,3.74,0,0,0,1.44,1.46,4.14,4.14,0,0,0,2.07.53A4.08,4.08,0,0,0,313,69.68Z"/><path class="cls-1" d="M328.92,65.88h2.73v5.23a7.71,7.71,0,0,1-2.43,1.22,9.53,9.53,0,0,1-2.79.42,7.57,7.57,0,0,1-3.61-.85,6.39,6.39,0,0,1-2.51-2.38,6.89,6.89,0,0,1,0-6.88,6.29,6.29,0,0,1,2.53-2.37,7.71,7.71,0,0,1,3.65-.86,8,8,0,0,1,3.08.57,6.07,6.07,0,0,1,2.32,1.66L330,63.41A4.43,4.43,0,0,0,326.64,62a4.61,4.61,0,0,0-2.2.52A3.67,3.67,0,0,0,323,63.93a4.61,4.61,0,0,0,0,4.29,3.78,3.78,0,0,0,1.48,1.46,4.44,4.44,0,0,0,2.17.53,4.82,4.82,0,0,0,2.32-.55Z"/><path class="cls-1" d="M342.63,72.53l-2.48-3.59H337.4v3.59h-3V59.63H340a7.15,7.15,0,0,1,3,.57,4.41,4.41,0,0,1,1.95,1.62,4.51,4.51,0,0,1,.68,2.49,4.37,4.37,0,0,1-.69,2.48,4.31,4.31,0,0,1-2,1.59l2.89,4.15Zm-.75-9.89a3.19,3.19,0,0,0-2.05-.58H337.4v4.5h2.43a3.13,3.13,0,0,0,2.05-.59,2.33,2.33,0,0,0,0-3.33Z"/><path class="cls-1" d="M356.46,69.77h-6l-1.15,2.76h-3.06L352,59.63H355l5.77,12.9H357.6Zm-.94-2.27-2-4.94-2.05,4.94Z"/><path class="cls-1" d="M370.64,60.2a4.39,4.39,0,0,1,1.94,1.62,4.88,4.88,0,0,1,0,5,4.26,4.26,0,0,1-1.94,1.62,7.24,7.24,0,0,1-3,.56h-2.6v3.56h-3V59.63h5.58A7.23,7.23,0,0,1,370.64,60.2ZM369.54,66a2,2,0,0,0,.7-1.65,2,2,0,0,0-.7-1.67,3.19,3.19,0,0,0-2.05-.58h-2.43v4.48h2.43A3.13,3.13,0,0,0,369.54,66Z"/><path class="cls-1" d="M387.21,59.63v12.9h-3V67.24h-5.86v5.29h-3V59.63h3v5.09h5.86V59.63Z"/><path class="cls-1" d="M390.27,59.63h3v12.9h-3Z"/><path class="cls-1" d="M398.93,71.9a6.46,6.46,0,0,1-2.51-2.38,7,7,0,0,1,0-6.88,6.37,6.37,0,0,1,2.51-2.37,7.43,7.43,0,0,1,3.58-.86,7.55,7.55,0,0,1,3,.59,6.1,6.1,0,0,1,2.28,1.7l-1.92,1.76A4.13,4.13,0,0,0,402.66,62a4.33,4.33,0,0,0-2.14.53,3.75,3.75,0,0,0-1.47,1.46,4.66,4.66,0,0,0,0,4.28,3.69,3.69,0,0,0,1.47,1.46,4.33,4.33,0,0,0,2.14.53,4.09,4.09,0,0,0,3.24-1.53l1.92,1.77a6,6,0,0,1-2.29,1.71,8,8,0,0,1-6.6-.26Z"/><path class="cls-1" d="M415,59.63h3v12.9h-3Z"/><path class="cls-1" d="M432.92,59.63v12.9h-2.45L424,64.7v7.83h-2.94V59.63h2.47L430,67.46V59.63Z"/><path class="cls-1" d="M439,62v3.41h6v2.39h-6v4.7h-3V59.63h9.75V62Z"/><path class="cls-1" d="M450.25,71.89a6.47,6.47,0,0,1-3.44-5.81,6.54,6.54,0,0,1,.92-3.42,6.35,6.35,0,0,1,2.52-2.38,7.95,7.95,0,0,1,7.23,0A6.67,6.67,0,0,1,460,69.5a6.61,6.61,0,0,1-2.53,2.39,8,8,0,0,1-7.23,0Zm5.69-2.21a3.74,3.74,0,0,0,1.44-1.46,4.59,4.59,0,0,0,0-4.28,3.81,3.81,0,0,0-1.44-1.46,4.14,4.14,0,0,0-2.07-.53,4.08,4.08,0,0,0-2.06.53,3.77,3.77,0,0,0-1.45,1.46,4.66,4.66,0,0,0,0,4.28,3.7,3.7,0,0,0,1.45,1.46,4.08,4.08,0,0,0,2.06.53A4.14,4.14,0,0,0,455.94,69.68Z"/><path class="cls-1" d="M471.4,72.53l-2.49-3.59h-2.75v3.59h-3V59.63h5.58a7.2,7.2,0,0,1,3,.57,4.26,4.26,0,0,1,2.62,4.11,4.19,4.19,0,0,1-2.65,4.07l2.89,4.15Zm-.76-9.89a3.16,3.16,0,0,0-2-.58h-2.44v4.5h2.44a3.1,3.1,0,0,0,2-.59,2.33,2.33,0,0,0,0-3.33Z"/><path class="cls-1" d="M488.46,72.53l0-7.74-3.79,6.38H483.3L479.52,65v7.57h-2.8V59.63h2.47l4.83,8,4.76-8h2.45l0,12.9Z"/><path class="cls-1" d="M502.82,69.77h-6l-1.14,2.76h-3.06l5.75-12.9h2.95l5.76,12.9H504Zm-.94-2.27-2.05-4.94-2,4.94Z"/><path class="cls-1" d="M510.47,62.06h-4.13V59.63h11.24v2.43h-4.13V72.53h-3Z"/><path class="cls-1" d="M519.18,59.63h3v12.9h-3Z"/><path class="cls-1" d="M527.85,71.89a6.71,6.71,0,0,1-2.52-9.23,6.42,6.42,0,0,1,2.52-2.38,7.55,7.55,0,0,1,3.63-.87,7.47,7.47,0,0,1,3.61.87,6.67,6.67,0,0,1,2.52,9.22,6.51,6.51,0,0,1-2.52,2.39,7.58,7.58,0,0,1-3.61.86A7.66,7.66,0,0,1,527.85,71.89Zm5.69-2.21A3.77,3.77,0,0,0,535,68.22a4.66,4.66,0,0,0,0-4.28,3.84,3.84,0,0,0-1.45-1.46,4.29,4.29,0,0,0-4.13,0A3.74,3.74,0,0,0,528,63.94a4.59,4.59,0,0,0,0,4.28,3.68,3.68,0,0,0,1.44,1.46,4.29,4.29,0,0,0,4.13,0Z"/><path class="cls-1" d="M552.61,59.63v12.9h-2.45l-6.43-7.83v7.83h-3V59.63h2.47l6.42,7.83V59.63Z"/><path class="cls-1" d="M354.31,94.45a6.74,6.74,0,0,1-2.3-1.08l1-2.24a6.84,6.84,0,0,0,2,1,7.27,7.27,0,0,0,2.29.37,3.6,3.6,0,0,0,1.88-.38,1.13,1.13,0,0,0,.6-1,1,1,0,0,0-.36-.77,2.66,2.66,0,0,0-.92-.48c-.37-.13-.88-.26-1.52-.41a20.7,20.7,0,0,1-2.41-.7,4,4,0,0,1-1.62-1.12,3.1,3.1,0,0,1-.67-2.07,3.59,3.59,0,0,1,.61-2,4.16,4.16,0,0,1,1.83-1.45,7.45,7.45,0,0,1,3-.54,9.7,9.7,0,0,1,2.41.3,7.19,7.19,0,0,1,2.07.85l-.92,2.26a7.29,7.29,0,0,0-3.58-1,3.33,3.33,0,0,0-1.85.41,1.23,1.23,0,0,0-.6,1.06,1,1,0,0,0,.69,1A10.44,10.44,0,0,0,358,87a19.62,19.62,0,0,1,2.42.7,4,4,0,0,1,1.61,1.1,3,3,0,0,1,.67,2.05,3.54,3.54,0,0,1-.62,2,4.15,4.15,0,0,1-1.85,1.44,7.45,7.45,0,0,1-3,.54A10.43,10.43,0,0,1,354.31,94.45Z"/><path class="cls-1" d="M370.7,90.08v4.57h-3V90l-5-8.29h3.17l3.45,5.73,3.44-5.73h2.93Z"/><path class="cls-1" d="M378,94.45a6.69,6.69,0,0,1-2.29-1.08l1-2.24a6.84,6.84,0,0,0,2,1,7.36,7.36,0,0,0,2.29.37,3.57,3.57,0,0,0,1.88-.38,1.14,1.14,0,0,0,.61-1,1,1,0,0,0-.36-.77,2.75,2.75,0,0,0-.92-.48c-.38-.13-.89-.26-1.52-.41a20.94,20.94,0,0,1-2.42-.7,3.92,3.92,0,0,1-1.61-1.12,3.05,3.05,0,0,1-.67-2.07,3.58,3.58,0,0,1,.6-2,4.14,4.14,0,0,1,1.84-1.45,7.37,7.37,0,0,1,3-.54,9.84,9.84,0,0,1,2.42.3,7.24,7.24,0,0,1,2.06.85l-.92,2.26a7.24,7.24,0,0,0-3.58-1,3.36,3.36,0,0,0-1.85.41,1.23,1.23,0,0,0-.6,1.06,1,1,0,0,0,.69,1,10.65,10.65,0,0,0,2.11.64,19.11,19.11,0,0,1,2.42.7,4,4,0,0,1,1.61,1.1,3,3,0,0,1,.67,2.05,3.53,3.53,0,0,1-.61,2,4.18,4.18,0,0,1-1.86,1.44,7.45,7.45,0,0,1-3,.54A10.43,10.43,0,0,1,378,94.45Z"/><path class="cls-1" d="M390.94,84.18h-4.13V81.75h11.24v2.43h-4.13V94.65h-3Z"/><path class="cls-1" d="M409.64,92.25v2.4h-10V81.75h9.75v2.39h-6.78v2.8h6v2.33h-6v3Z"/><path class="cls-1" d="M423.76,94.65l0-7.74-3.8,6.37H418.6l-3.78-6.21v7.58H412V81.75h2.47l4.83,8,4.75-8h2.45l0,12.9Z"/><path class="cls-1" d="M435.43,93.1a19,19,0,0,1,0-9.48,13,13,0,0,1,1.71-3.88h2.74a17,17,0,0,0-1.69,4.15,18.77,18.77,0,0,0,0,8.94A17.09,17.09,0,0,0,439.88,97h-2.74A13.38,13.38,0,0,1,435.43,93.1Z"/><path class="cls-1" d="M450.5,88h2.73v5.24a7.64,7.64,0,0,1-2.44,1.21,9.21,9.21,0,0,1-2.78.43A7.55,7.55,0,0,1,444.4,94a6.35,6.35,0,0,1-2.52-2.38,6.94,6.94,0,0,1,0-6.87,6.41,6.41,0,0,1,2.54-2.38,7.68,7.68,0,0,1,3.65-.86,8,8,0,0,1,3.07.58,6.11,6.11,0,0,1,2.33,1.65l-1.92,1.77a4.42,4.42,0,0,0-3.34-1.45,4.6,4.6,0,0,0-2.19.51A3.68,3.68,0,0,0,444.53,86,4.28,4.28,0,0,0,444,88.2a4.16,4.16,0,0,0,.54,2.13A3.74,3.74,0,0,0,446,91.8a4.41,4.41,0,0,0,2.17.52,4.82,4.82,0,0,0,2.32-.55Z"/><path class="cls-1" d="M456,81.75h3v12.9h-3Z"/><path class="cls-1" d="M463.32,94.45a6.65,6.65,0,0,1-2.3-1.08l1-2.24a6.84,6.84,0,0,0,2,1,7.25,7.25,0,0,0,2.28.37,3.55,3.55,0,0,0,1.88-.38,1.12,1.12,0,0,0,.61-1,1,1,0,0,0-.36-.77,2.75,2.75,0,0,0-.92-.48c-.37-.13-.88-.26-1.52-.41a20.7,20.7,0,0,1-2.41-.7A4,4,0,0,1,462,87.61a3.05,3.05,0,0,1-.67-2.07,3.52,3.52,0,0,1,.61-2,4.05,4.05,0,0,1,1.83-1.45,7.45,7.45,0,0,1,3-.54,9.7,9.7,0,0,1,2.41.3,7.19,7.19,0,0,1,2.07.85l-.93,2.26a7.23,7.23,0,0,0-3.57-1,3.33,3.33,0,0,0-1.85.41,1.23,1.23,0,0,0-.6,1.06,1,1,0,0,0,.69,1,10.44,10.44,0,0,0,2.11.64,18.9,18.9,0,0,1,2.41.7,4,4,0,0,1,1.62,1.1,3,3,0,0,1,.67,2.05,3.54,3.54,0,0,1-.62,2,4.15,4.15,0,0,1-1.85,1.44,7.5,7.5,0,0,1-3,.54A10.36,10.36,0,0,1,463.32,94.45Z"/><path class="cls-1" d="M472.63,97a16.77,16.77,0,0,0,1.71-4.16,18.77,18.77,0,0,0,0-8.94,16.71,16.71,0,0,0-1.71-4.15h2.75a12.51,12.51,0,0,1,1.72,3.86,18.2,18.2,0,0,1,.6,4.76,18.45,18.45,0,0,1-.59,4.75A12.6,12.6,0,0,1,475.38,97Z"/><rect class="cls-1" x="42.63" y="43.37" width="163.27" height="163.27" transform="translate(124.78 -51.25) rotate(45)"/><g class="cls-2"><path class="cls-3" d="M124.26,228.7,20.56,125,124.26,21.3,228,125ZM23.76,125l100.5,100.5L224.76,125,124.26,24.5Zm100.5,90.53L89.65,180.92l26.47-26.47L90.46,128.79,72.25,147l12,12,5-5-7-7,8.24-8.24,15.69,15.69L84.67,175.94,54.41,145.68,75.08,125,54.41,104.32,84.67,74.06l21.48,21.49L90.46,111.24,82.22,103l7-7-5-5-12,12,18.21,18.21,25.66-25.66L89.65,69.08l34.61-34.61,34.61,34.61L132.41,95.55l25.66,25.66L176.28,103l-12-12-5,5,7.05,7-8.24,8.24-15.7-15.69,21.49-21.49,30.26,30.26L173.44,125l20.68,20.68-30.26,30.26-21.49-21.49,15.7-15.69,8.24,8.24-7.05,7,5,5,12-12-18.21-18.21-25.66,25.66,26.46,26.47ZM92.85,180.92l31.41,31.41,31.41-31.41L129.2,154.45l28.87-28.86L179.48,147l-15.23,15.23L156.06,154l7-7-5-5-12.49,12.49,18.28,18.28,27-27L170.24,125l20.67-20.68-27-27L145.58,95.55,158.07,108l5-5-7-7,8.19-8.19L179.48,103l-21.41,21.41L129.2,95.55l26.47-26.47L124.26,37.67,92.85,69.08l26.47,26.47L90.46,124.41,69.05,103,84.28,87.77,92.47,96l-7,7,5,5L103,95.55,84.67,77.27,57.61,104.32,78.29,125,57.61,145.68l27.06,27L103,154.45,90.46,142l-5,5,7,7-8.19,8.19L69.05,147l21.41-21.41,28.86,28.86ZM199.1,140.69,183.41,125l15.69-15.69L214.79,125ZM186.61,125l12.49,12.49L211.59,125,199.1,112.51ZM49.42,140.69,33.73,125l15.69-15.69L65.12,125ZM36.94,125l12.48,12.49L61.91,125,49.42,112.51Z"/><path class="cls-3" d="M124.26,204.84,100,180.56l24.28-24.28,24.29,24.28Zm-21.08-24.28,21.08,21.08,21.08-21.08-21.08-21.08Z"/><path class="cls-3" d="M124.26,93.05,100,68.77l24.28-24.28,24.29,24.28ZM103.18,68.77l21.08,21.08,21.08-21.08L124.26,47.69Z"/></g><polygon class="cls-4" points="9.4 125 124.38 239.98 530.21 239.98 645.19 125 530.21 10.02 124.38 10.02 9.4 125"/><path class="cls-3" d="M63.68,127.82l10.37-9.15c-3.86-6.68-3.48-11.47,1.15-15.48,4.47-3.86,9.93-3.55,15.69.94L114.14,84c-2.14-5.32-1-10,3.06-13.24a11.18,11.18,0,0,1,13.41-.33C135,73.5,136.21,78,134.14,84l23.17,20.18c5.69-4.5,10.9-4.9,15.48-1.23a11.34,11.34,0,0,1,4,6.26c.94,3.68-.66,6.66-2.69,9.56l9.24,8c1.77,1.55,1.77,2.33,0,3.87l-57.5,50.09c-1.36,1.19-2,1.18-3.36,0q-8.36-7.31-16.7-14.62c-4.92-4.3-9.85-8.58-14.72-12.93a2.82,2.82,0,0,1-.88-2c.1-1.42,1.76-1.85,3-.81,1.74,1.47,3.44,3,5.19,4.52.17-.15.33-.26.46-.4q9.67-11.06,19.34-22.13a1.87,1.87,0,0,0,.44-1.15c0-3.39,0-6.77,0-10.16a1.45,1.45,0,0,0-.64-1.08q-11.77-6.6-23.6-13.12a1.28,1.28,0,0,0-1.1,0c-.19.12-.25.7-.14,1a9.79,9.79,0,0,1-1.07,9,41.71,41.71,0,0,1-7.8,9c-1.3,1.17-2.09,1.21-3.37,0-1.5-1.43-2.93-3-4.42-4.47l-8.22,7.13c.41.37.69.64,1,.89L85.76,144c1.31,1.14,1.57,2.08.81,3s-1.79.85-3.16-.34q-5.91-5.16-11.82-10.34c-2.65-2.33-5.27-4.69-7.91-7Zm116.43,1-8.39-7.31c-1.43,1.49-2.77,3-4.21,4.35s-2.11,1.24-3.45,0a42.85,42.85,0,0,1-7.68-8.77,10,10,0,0,1-1.19-9.11,1.24,1.24,0,0,0-.26-1.1c-3.18-2.82-6.4-5.59-9.71-8.47-.35.32-.7.61-1,.92q-10.66,10-21.32,20.08a2.28,2.28,0,0,0-.72,1.36c-.06,3.11,0,6.22,0,9.33a5.22,5.22,0,0,0,.09.71h1.3c4.88,0,9.76,0,14.64,0a4.81,4.81,0,0,1,3.13,1.06c6,4.52,12,9,17.93,13.47.31.24.63.46,1.05.76Zm-27.57,15.95c-4.34-3.26-8.67-6.53-13-9.75a3.35,3.35,0,0,0-1.82-.6q-7.78-.06-15.58,0a2.22,2.22,0,0,0-1.5.63q-9.57,10.85-19.07,21.74c-.13.15-.24.31-.46.6l23.06,20.18,33.39-29.08ZM132.3,87.13c-2.21,2.23-4.29,4.4-6.45,6.51-1.36,1.32-2.08,1.32-3.43,0-2.16-2.1-4.25-4.28-6.47-6.53Q106.38,95.39,96.5,104c.41.25.69.45,1,.61,7.21,4,14.43,8,21.63,12a1.19,1.19,0,0,0,1.71-.15c7.05-6.69,14.13-13.33,21.2-20,.12-.11.22-.23.45-.48ZM88.72,115.42a6.31,6.31,0,0,0,.1-8,7.28,7.28,0,0,0-7.8-3.21,7.45,7.45,0,0,0-6,5.66,5.85,5.85,0,0,0,.73,4.75,37.78,37.78,0,0,0,6.93,8.19C84.76,120.28,86.82,117.91,88.72,115.42Zm83.6-.43a6.34,6.34,0,0,0,0-7.31,7.3,7.3,0,0,0-7-3.6,7.49,7.49,0,0,0-7.15,7.37,6.79,6.79,0,0,0,.83,3,32.45,32.45,0,0,0,6.79,8.16A39.38,39.38,0,0,0,172.32,115Zm-41.89-31.9a6.59,6.59,0,0,0-.78-8.89,7.73,7.73,0,0,0-9.32-1.34c-2.83,1.59-5.39,5.92-2.7,10a42.36,42.36,0,0,0,6.73,7.74C126.47,88,128.64,85.69,130.43,83.09Z"/><path class="cls-3" d="M133.91,149.79a9.8,9.8,0,0,1-.36,10.82,42.91,42.91,0,0,1-8.13,9.14,1.69,1.69,0,0,1-2.71-.13,87.73,87.73,0,0,1-6.85-7.46,14.31,14.31,0,0,1-2.76-5.76c-1.22-6.26,4.35-12.32,11.88-12.33A10.64,10.64,0,0,1,133.91,149.79Zm-3.22,8.75c3-4.57-.63-10.18-5.38-10.86a7.6,7.6,0,0,0-8.78,7,6,6,0,0,0,.6,2.94c1.67,3.35,4.26,6,7,8.58A41.92,41.92,0,0,0,130.69,158.54Z"/><path class="cls-3" d="M82.52,117.27a5.54,5.54,0,0,1-5.6-5.5A5.55,5.55,0,1,1,88,111.7,5.49,5.49,0,0,1,82.52,117.27Zm2-5.62a2,2,0,0,0-2-1.92,2.06,2.06,0,0,0-2,2,2,2,0,0,0,2.07,1.94A1.94,1.94,0,0,0,84.47,111.65Z"/><path class="cls-3" d="M165.75,106.17a5.61,5.61,0,0,1,5.6,5.53,5.55,5.55,0,1,1-5.6-5.53Zm0,7.54a2,2,0,0,0,2-2,2,2,0,0,0-1.93-2,2,2,0,0,0-2.07,1.94A1.94,1.94,0,0,0,165.76,113.71Z"/><path class="cls-3" d="M118.58,79.63a5.56,5.56,0,1,1,5.63,5.47A5.59,5.59,0,0,1,118.58,79.63Zm3.57,0a2,2,0,0,0,4-.08,2,2,0,1,0-4,.08Z"/><path class="cls-3" d="M129.69,155.3a5.56,5.56,0,1,1-11.11,0,5.56,5.56,0,0,1,11.11,0Zm-7.54,0a2,2,0,1,0,4,0,2,2,0,1,0-4,0Z"/></svg>