<svg id="Layer_1" data-name="Layer 1" xmlns="http://www.w3.org/2000/svg" viewBox="0 0 654 250"><defs><style>.cls-1{fill:none;stroke:#49773d;stroke-miterlimit:10;stroke-width:2.6px;}.cls-2{fill:#49773d;}.cls-3{fill:#fff;}.cls-4{opacity:0.15;}</style></defs><polygon class="cls-1" points="9.4 125 124.38 239.98 530.21 239.98 645.19 125 530.21 10.02 124.38 10.02 9.4 125"/><path class="cls-2" d="M269.43,81.55a4.63,4.63,0,0,1,1.95,6.59,4.34,4.34,0,0,1-1.95,1.62,7.17,7.17,0,0,1-3,.57h-2.59v3.55h-3V81h5.58A7.17,7.17,0,0,1,269.43,81.55Zm-1.1,5.76a2,2,0,0,0,.7-1.65,2,2,0,0,0-.7-1.66,3.08,3.08,0,0,0-2-.58h-2.43v4.47h2.43A3.08,3.08,0,0,0,268.33,87.31Z"/><path class="cls-2" d="M282.4,93.88l-2.49-3.59h-2.75v3.59h-3V81h5.58a7.23,7.23,0,0,1,3,.57,4.62,4.62,0,0,1,1.93,6.59,4.34,4.34,0,0,1-2,1.6l2.89,4.14ZM281.64,84a3.12,3.12,0,0,0-2-.58h-2.44v4.49h2.44a3.06,3.06,0,0,0,2-.59,2.32,2.32,0,0,0,0-3.32Z"/><path class="cls-2" d="M290.35,93.24a6.47,6.47,0,0,1-2.53-2.39,6.88,6.88,0,0,1,0-6.84,6.45,6.45,0,0,1,2.53-2.38,7.95,7.95,0,0,1,7.23,0,6.42,6.42,0,0,1,3.45,5.8,6.49,6.49,0,0,1-.92,3.42,6.61,6.61,0,0,1-2.53,2.39,8,8,0,0,1-7.23,0ZM296,91a3.73,3.73,0,0,0,1.45-1.47,4.59,4.59,0,0,0,0-4.28A3.77,3.77,0,0,0,296,83.83a4.27,4.27,0,0,0-4.12,0,3.77,3.77,0,0,0-1.45,1.46,4.59,4.59,0,0,0,0,4.28A3.73,3.73,0,0,0,291.91,91,4.34,4.34,0,0,0,296,91Z"/><path class="cls-2" d="M304.56,93.69a7,7,0,0,1-2.3-1.08l1-2.25a6.85,6.85,0,0,0,2,1,7.25,7.25,0,0,0,2.28.37,3.65,3.65,0,0,0,1.88-.38,1.13,1.13,0,0,0,.61-1,1,1,0,0,0-.36-.77,3,3,0,0,0-.92-.49c-.37-.12-.88-.26-1.52-.4a22.88,22.88,0,0,1-2.41-.7,4,4,0,0,1-1.62-1.13,3,3,0,0,1-.67-2.06,3.57,3.57,0,0,1,.61-2A4,4,0,0,1,305,81.3a7.45,7.45,0,0,1,3-.54,9.7,9.7,0,0,1,2.41.3,7.18,7.18,0,0,1,2.07.84l-.93,2.27a7.23,7.23,0,0,0-3.57-1,3.34,3.34,0,0,0-1.85.4,1.24,1.24,0,0,0-.6,1.07,1.06,1.06,0,0,0,.69,1,11.26,11.26,0,0,0,2.11.63,22.88,22.88,0,0,1,2.41.7,4.12,4.12,0,0,1,1.62,1.11,3,3,0,0,1,.67,2,3.54,3.54,0,0,1-.62,2,4.17,4.17,0,0,1-1.85,1.45,7.49,7.49,0,0,1-3,.53A10.38,10.38,0,0,1,304.56,93.69Z"/><path class="cls-2" d="M325,91.49v2.39H315V81h9.75v2.4H318v2.8h6V88.5h-6v3Z"/><path class="cls-2" d="M330,93.25a6.46,6.46,0,0,1-2.51-2.38,6.94,6.94,0,0,1,0-6.87A6.39,6.39,0,0,1,330,81.62a7.47,7.47,0,0,1,3.59-.86,7.62,7.62,0,0,1,3,.59,6,6,0,0,1,2.27,1.7L337,84.82a4.15,4.15,0,0,0-3.25-1.52,4.33,4.33,0,0,0-2.14.53,3.79,3.79,0,0,0-1.46,1.46,4.59,4.59,0,0,0,0,4.28A3.75,3.75,0,0,0,331.56,91a4.32,4.32,0,0,0,2.14.52A4.12,4.12,0,0,0,337,90l1.91,1.77a5.87,5.87,0,0,1-2.28,1.71,7.5,7.5,0,0,1-3,.59A7.41,7.41,0,0,1,330,93.25Z"/><path class="cls-2" d="M342.19,92.57a5.86,5.86,0,0,1-1.54-4.36V81h3V88.1c0,2.31.95,3.46,2.87,3.46a2.7,2.7,0,0,0,2.14-.84,3.9,3.9,0,0,0,.74-2.62V81h2.94v7.23a5.33,5.33,0,0,1-5.84,5.89A5.82,5.82,0,0,1,342.19,92.57Z"/><path class="cls-2" d="M357.73,83.42h-4.12V81h11.24v2.44h-4.13V93.88h-3Z"/><path class="cls-2" d="M368.89,93.24a6.58,6.58,0,0,1,0-11.61,7.55,7.55,0,0,1,3.63-.87,7.47,7.47,0,0,1,3.61.87,6.44,6.44,0,0,1,3.44,5.8,6.4,6.4,0,0,1-.92,3.42,6.51,6.51,0,0,1-2.52,2.39,7.46,7.46,0,0,1-3.61.86A7.54,7.54,0,0,1,368.89,93.24Zm5.69-2.2A3.79,3.79,0,0,0,376,89.57a4.66,4.66,0,0,0,0-4.28,3.84,3.84,0,0,0-1.45-1.46,4.29,4.29,0,0,0-4.13,0A3.84,3.84,0,0,0,369,85.29a4.66,4.66,0,0,0,0,4.28A3.79,3.79,0,0,0,370.45,91a4.36,4.36,0,0,0,4.13,0Z"/><path class="cls-2" d="M390,93.88l-2.49-3.59h-2.74v3.59h-3V81h5.58a7.17,7.17,0,0,1,3,.57A4.28,4.28,0,0,1,393,85.66a4.21,4.21,0,0,1-2.66,4.08l2.9,4.14ZM389.28,84a3.08,3.08,0,0,0-2-.58h-2.43v4.49h2.43a3,3,0,0,0,2-.59,2.32,2.32,0,0,0,0-3.32Z"/><path class="cls-2" d="M396.65,93.69a7,7,0,0,1-2.3-1.08l1-2.25a6.85,6.85,0,0,0,2,1,7.25,7.25,0,0,0,2.28.37,3.65,3.65,0,0,0,1.88-.38,1.13,1.13,0,0,0,.61-1,1,1,0,0,0-.36-.77,3,3,0,0,0-.92-.49c-.37-.12-.88-.26-1.52-.4a22.88,22.88,0,0,1-2.41-.7,4,4,0,0,1-1.62-1.13,3,3,0,0,1-.67-2.06,3.57,3.57,0,0,1,.61-2,4,4,0,0,1,1.83-1.44,7.45,7.45,0,0,1,3-.54,9.7,9.7,0,0,1,2.41.3,7.18,7.18,0,0,1,2.07.84l-.93,2.27a7.23,7.23,0,0,0-3.57-1,3.34,3.34,0,0,0-1.85.4,1.24,1.24,0,0,0-.6,1.07,1.06,1.06,0,0,0,.69,1,11.26,11.26,0,0,0,2.11.63,22.88,22.88,0,0,1,2.41.7,4.12,4.12,0,0,1,1.62,1.11,3,3,0,0,1,.67,2,3.54,3.54,0,0,1-.62,2,4.17,4.17,0,0,1-1.85,1.45,7.51,7.51,0,0,1-3,.53A10.36,10.36,0,0,1,396.65,93.69Z"/><path class="cls-2" d="M409.67,90.94a1.73,1.73,0,0,1,.49,1.28,3.06,3.06,0,0,1-.09.74,7.54,7.54,0,0,1-.4,1.11l-1.05,2.65h-1.83l.81-2.93a1.53,1.53,0,0,1-.73-.6,1.8,1.8,0,0,1-.26-1,1.74,1.74,0,0,1,.5-1.28,1.8,1.8,0,0,1,1.28-.48A1.77,1.77,0,0,1,409.67,90.94Z"/><path class="cls-2" d="M417.54,81h3v12.9h-3Z"/><path class="cls-2" d="M435.41,81v12.9H433l-6.43-7.83v7.83h-2.95V81h2.47l6.41,7.83V81Z"/><path class="cls-2" d="M450.8,81l-5.58,12.9h-3L436.7,81h3.23l3.92,9.22,4-9.22Z"/><path class="cls-2" d="M461.86,91.49v2.39h-10V81h9.75v2.4h-6.78v2.8h6V88.5h-6v3Z"/><path class="cls-2" d="M465.52,93.69a7,7,0,0,1-2.3-1.08l1-2.25a6.91,6.91,0,0,0,2,1,7.25,7.25,0,0,0,2.28.37,3.65,3.65,0,0,0,1.88-.38,1.13,1.13,0,0,0,.61-1,1,1,0,0,0-.36-.77,3,3,0,0,0-.92-.49c-.38-.12-.88-.26-1.52-.4a22.88,22.88,0,0,1-2.41-.7,4,4,0,0,1-1.62-1.13,3,3,0,0,1-.67-2.06,3.57,3.57,0,0,1,.61-2,4,4,0,0,1,1.83-1.44,7.45,7.45,0,0,1,3-.54,9.76,9.76,0,0,1,2.41.3,7,7,0,0,1,2.06.84l-.92,2.27a7.23,7.23,0,0,0-3.57-1,3.32,3.32,0,0,0-1.85.4,1.24,1.24,0,0,0-.6,1.07,1.06,1.06,0,0,0,.69,1,11.26,11.26,0,0,0,2.11.63,22.88,22.88,0,0,1,2.41.7,4,4,0,0,1,1.61,1.11,3,3,0,0,1,.68,2,3.54,3.54,0,0,1-.62,2,4.17,4.17,0,0,1-1.85,1.45,7.54,7.54,0,0,1-3,.53A10.36,10.36,0,0,1,465.52,93.69Z"/><path class="cls-2" d="M478.48,83.42h-4.13V81h11.24v2.44h-4.12V93.88h-3Z"/><path class="cls-2" d="M487.2,81h3v12.9h-3Z"/><path class="cls-2" d="M502,87.23h2.73v5.23a7.71,7.71,0,0,1-2.43,1.22,9.58,9.58,0,0,1-2.79.42,7.54,7.54,0,0,1-3.61-.85,6.42,6.42,0,0,1-2.52-2.38,6.94,6.94,0,0,1,0-6.87,6.34,6.34,0,0,1,2.54-2.38,7.71,7.71,0,0,1,3.65-.86,8,8,0,0,1,3.07.57A6.13,6.13,0,0,1,504.93,83L503,84.76a4.43,4.43,0,0,0-3.33-1.46,4.61,4.61,0,0,0-2.2.52A3.67,3.67,0,0,0,496,85.28a4.53,4.53,0,0,0,0,4.29A3.8,3.8,0,0,0,497.47,91a4.41,4.41,0,0,0,2.17.52A4.82,4.82,0,0,0,502,91Z"/><path class="cls-2" d="M516,91.12h-6l-1.15,2.76h-3.05L511.51,81h2.94l5.77,12.9h-3.13ZM515,88.85l-2-4.94-2,4.94Z"/><path class="cls-2" d="M523.6,83.42h-4.13V81h11.24v2.44h-4.13V93.88h-3Z"/><path class="cls-2" d="M534.76,93.24a6.57,6.57,0,0,1,0-11.61,7.95,7.95,0,0,1,7.23,0,6.44,6.44,0,0,1,3.44,5.8,6.4,6.4,0,0,1-.92,3.42A6.51,6.51,0,0,1,542,93.24a8,8,0,0,1-7.23,0Zm5.68-2.2a3.79,3.79,0,0,0,1.45-1.47,4.66,4.66,0,0,0,0-4.28,3.84,3.84,0,0,0-1.45-1.46,4.29,4.29,0,0,0-4.13,0,3.81,3.81,0,0,0-1.44,1.46,4.59,4.59,0,0,0,0,4.28A3.77,3.77,0,0,0,536.31,91a4.36,4.36,0,0,0,4.13,0Z"/><path class="cls-2" d="M555.9,93.88l-2.49-3.59h-2.74v3.59h-3V81h5.59a7.15,7.15,0,0,1,3,.57,4.28,4.28,0,0,1,2.63,4.11,4.22,4.22,0,0,1-2.65,4.08l2.89,4.14ZM555.15,84a3.13,3.13,0,0,0-2-.58h-2.43v4.49h2.43a3.08,3.08,0,0,0,2-.59,2.32,2.32,0,0,0,0-3.32Z"/><path class="cls-2" d="M562.51,93.69a7.14,7.14,0,0,1-2.3-1.08l1-2.25a6.85,6.85,0,0,0,2,1,7.25,7.25,0,0,0,2.28.37,3.65,3.65,0,0,0,1.88-.38,1.13,1.13,0,0,0,.61-1,1,1,0,0,0-.36-.77,2.85,2.85,0,0,0-.92-.49c-.37-.12-.88-.26-1.52-.4a22.88,22.88,0,0,1-2.41-.7,4,4,0,0,1-1.62-1.13,3.06,3.06,0,0,1-.67-2.06,3.57,3.57,0,0,1,.61-2,4.08,4.08,0,0,1,1.83-1.44,7.45,7.45,0,0,1,3-.54,9.7,9.7,0,0,1,2.41.3,7.18,7.18,0,0,1,2.07.84l-.92,2.27a7.29,7.29,0,0,0-3.58-1,3.34,3.34,0,0,0-1.85.4,1.24,1.24,0,0,0-.6,1.07,1.06,1.06,0,0,0,.69,1,11.26,11.26,0,0,0,2.11.63,22.88,22.88,0,0,1,2.41.7,4.12,4.12,0,0,1,1.62,1.11,3,3,0,0,1,.67,2,3.54,3.54,0,0,1-.62,2,4.17,4.17,0,0,1-1.85,1.45,7.46,7.46,0,0,1-3,.53A10.43,10.43,0,0,1,562.51,93.69Z"/><path class="cls-2" d="M575.53,90.94a1.74,1.74,0,0,1,.5,1.28,3.07,3.07,0,0,1-.1.74,7.54,7.54,0,0,1-.4,1.11l-1,2.65h-1.83l.81-2.93a1.46,1.46,0,0,1-.72-.6,1.72,1.72,0,0,1-.27-1,1.74,1.74,0,0,1,.5-1.28,1.81,1.81,0,0,1,1.29-.48A1.76,1.76,0,0,1,575.53,90.94Z"/><path class="cls-2" d="M297.56,113.23h-6L290.43,116h-3.06l5.75-12.9h2.95l5.77,12.9h-3.13Zm-.94-2.26-2-4.94L292.53,111Z"/><path class="cls-2" d="M315,103.1V116h-2.46l-6.43-7.83V116h-2.95V103.1h2.47l6.42,7.83V103.1Z"/><path class="cls-2" d="M318.07,103.1h5.87a8.16,8.16,0,0,1,3.71.8,6,6,0,0,1,2.51,2.26,6.9,6.9,0,0,1,0,6.78,6.12,6.12,0,0,1-2.51,2.26,8.3,8.3,0,0,1-3.71.8h-5.87Zm5.72,10.45a4.34,4.34,0,0,0,3.09-1.08,4.28,4.28,0,0,0,0-5.84,4.34,4.34,0,0,0-3.09-1.08h-2.73v8Z"/><path class="cls-2" d="M341.5,105.49v3.41h6v2.4h-6V116h-3V103.1h9.75v2.39Z"/><path class="cls-2" d="M350.29,103.1h3V116h-3Z"/><path class="cls-2" d="M368.16,103.1V116h-2.45l-6.43-7.83V116h-2.95V103.1h2.47l6.42,7.83V103.1Z"/><path class="cls-2" d="M379.72,113.23h-6L372.59,116h-3.06l5.75-12.9h3L384,116h-3.14Zm-.94-2.26-2-4.94-2,4.94Z"/><path class="cls-2" d="M397.17,103.1V116h-2.45l-6.43-7.83V116h-3V103.1h2.47l6.41,7.83V103.1Z"/><path class="cls-2" d="M402.84,115.36a6.43,6.43,0,0,1-2.51-2.37,7,7,0,0,1,0-6.88,6.46,6.46,0,0,1,2.51-2.38,8,8,0,0,1,6.62-.26,6,6,0,0,1,2.27,1.69l-1.92,1.77a4.1,4.1,0,0,0-3.24-1.51,4.22,4.22,0,0,0-2.14.53,3.73,3.73,0,0,0-1.46,1.46,4.59,4.59,0,0,0,0,4.28,3.79,3.79,0,0,0,1.46,1.46,4.33,4.33,0,0,0,2.14.53,4.09,4.09,0,0,0,3.24-1.53l1.92,1.77a6,6,0,0,1-2.28,1.71,7.68,7.68,0,0,1-3.05.59A7.41,7.41,0,0,1,402.84,115.36Z"/><path class="cls-2" d="M413.74,103.1h3V116h-3Z"/><path class="cls-2" d="M428.28,113.23h-6L421.15,116h-3.06l5.75-12.9h3l5.77,12.9h-3.14Zm-.94-2.26-2-4.94-2,4.94Z"/><path class="cls-2" d="M433.9,103.1h3v10.47h6.46V116H433.9Z"/><path class="cls-2" d="M458.74,113.23h-6L451.61,116h-3.06l5.75-12.9h2.95L463,116h-3.13ZM457.8,111l-2-4.94L453.71,111Z"/><path class="cls-2" d="M476.2,103.1V116h-2.46l-6.43-7.83V116h-2.95V103.1h2.47l6.42,7.83V103.1Z"/><path class="cls-2" d="M487.75,113.23h-6L480.62,116h-3.06l5.75-12.9h2.95L492,116h-3.14Zm-.94-2.26-2-4.94-2,4.94Z"/><path class="cls-2" d="M493.37,103.1h3v10.47h6.47V116h-9.46Z"/><path class="cls-2" d="M509.37,111.43V116h-3v-4.61l-5-8.29h3.17l3.44,5.73,3.45-5.73h2.93Z"/><path class="cls-2" d="M516.64,115.8a6.93,6.93,0,0,1-2.3-1.07l1-2.25a7.11,7.11,0,0,0,2,1,7.54,7.54,0,0,0,2.28.36,3.66,3.66,0,0,0,1.88-.37,1.15,1.15,0,0,0,.61-1,.94.94,0,0,0-.36-.76,2.51,2.51,0,0,0-.92-.49c-.37-.12-.88-.26-1.52-.41a18.9,18.9,0,0,1-2.41-.7,4,4,0,0,1-1.62-1.12,3.1,3.1,0,0,1-.67-2.07,3.54,3.54,0,0,1,.61-2,4.16,4.16,0,0,1,1.83-1.45,7.46,7.46,0,0,1,3-.53,10.19,10.19,0,0,1,2.41.29,7.19,7.19,0,0,1,2.07.85l-.92,2.27a7.2,7.2,0,0,0-3.58-1,3.33,3.33,0,0,0-1.85.41,1.23,1.23,0,0,0-.6,1.07,1,1,0,0,0,.69,1,10.44,10.44,0,0,0,2.11.64,20.7,20.7,0,0,1,2.41.7,4,4,0,0,1,1.62,1.1,3,3,0,0,1,.67,2,3.54,3.54,0,0,1-.62,2,4.17,4.17,0,0,1-1.85,1.45,7.63,7.63,0,0,1-3,.53A10.43,10.43,0,0,1,516.64,115.8Z"/><path class="cls-2" d="M529.6,105.53h-4.13V103.1h11.25v2.43h-4.13V116h-3Z"/><path class="cls-2" d="M539.51,115.8a6.93,6.93,0,0,1-2.3-1.07l1-2.25a7.11,7.11,0,0,0,2,1,7.55,7.55,0,0,0,2.29.36,3.71,3.71,0,0,0,1.88-.37,1.16,1.16,0,0,0,.6-1,.94.94,0,0,0-.36-.76,2.51,2.51,0,0,0-.92-.49c-.37-.12-.88-.26-1.52-.41a18.9,18.9,0,0,1-2.41-.7,4,4,0,0,1-1.62-1.12,3.1,3.1,0,0,1-.67-2.07,3.62,3.62,0,0,1,.61-2,4.16,4.16,0,0,1,1.83-1.45,7.46,7.46,0,0,1,3-.53,10.19,10.19,0,0,1,2.41.29,7.19,7.19,0,0,1,2.07.85l-.92,2.27a7.2,7.2,0,0,0-3.58-1,3.36,3.36,0,0,0-1.85.41,1.23,1.23,0,0,0-.6,1.07,1,1,0,0,0,.69,1,10.44,10.44,0,0,0,2.11.64,21.55,21.55,0,0,1,2.42.7,4,4,0,0,1,1.61,1.1,3,3,0,0,1,.67,2,3.54,3.54,0,0,1-.62,2,4.17,4.17,0,0,1-1.85,1.45,7.63,7.63,0,0,1-3,.53A10.43,10.43,0,0,1,539.51,115.8Z"/><path class="cls-2" d="M411.57,46.23A9.45,9.45,0,0,1,414,52.86a10.49,10.49,0,0,1-1.6,5.62,11.16,11.16,0,0,1-4.88,4.13,18.73,18.73,0,0,1-8,1.55,27.58,27.58,0,0,1-7.28-1,18.68,18.68,0,0,1-6.07-2.78l3.15-6.2a15.19,15.19,0,0,0,4.62,2.32,17.88,17.88,0,0,0,5.38.83,8.44,8.44,0,0,0,4.8-1.18,3.76,3.76,0,0,0,1.75-3.32q0-4.3-6.55-4.31h-3.7V43.2l7.2-8.15h-14.9v-6.5h24.51V33.8l-7.91,9A11.79,11.79,0,0,1,411.57,46.23Z"/><path class="cls-2" d="M425,62a14.35,14.35,0,0,1-5.32-6.23,22.49,22.49,0,0,1-1.93-9.73,22.55,22.55,0,0,1,1.93-9.73A14.38,14.38,0,0,1,425,30.1a15.06,15.06,0,0,1,15.51,0,14.47,14.47,0,0,1,5.33,6.22,22.7,22.7,0,0,1,1.92,9.73,22.64,22.64,0,0,1-1.92,9.73A14.44,14.44,0,0,1,440.53,62,15.06,15.06,0,0,1,425,62Zm12.78-7.45c1.22-1.84,1.83-4.67,1.83-8.51s-.61-6.67-1.83-8.5a5.92,5.92,0,0,0-10,0c-1.22,1.83-1.83,4.67-1.83,8.5s.61,6.67,1.83,8.51a5.92,5.92,0,0,0,10,0Z"/><path d="M311.86,144a4.59,4.59,0,0,0-.76-.06,2,2,0,0,0-2.07,1.29v6.42h-1.54v-9H309l0,1a2.38,2.38,0,0,1,2.15-1.21,1.58,1.58,0,0,1,.69.12Z"/><path d="M316.87,151.86a4,4,0,0,1-3-1.21,4.49,4.49,0,0,1-1.16-3.23v-.28a5.5,5.5,0,0,1,.52-2.41,4,4,0,0,1,1.44-1.65,3.58,3.58,0,0,1,2-.6,3.4,3.4,0,0,1,2.74,1.16,5.07,5.07,0,0,1,1,3.33v.64h-6.13a3.2,3.2,0,0,0,.78,2.16,2.45,2.45,0,0,0,1.9.82,2.72,2.72,0,0,0,1.39-.33,3.34,3.34,0,0,0,1-.89l.95.74A3.82,3.82,0,0,1,316.87,151.86Zm-.19-8.11a2.06,2.06,0,0,0-1.57.68,3.28,3.28,0,0,0-.79,1.91h4.53v-.12a2.9,2.9,0,0,0-.64-1.82A1.93,1.93,0,0,0,316.68,143.75Z"/><path d="M325.81,150.59a2.22,2.22,0,0,0,1.45-.5,1.74,1.74,0,0,0,.68-1.25h1.46a2.72,2.72,0,0,1-.53,1.48,3.53,3.53,0,0,1-1.32,1.12,3.78,3.78,0,0,1-1.74.42,3.72,3.72,0,0,1-2.94-1.24,4.93,4.93,0,0,1-1.09-3.37V147a5.29,5.29,0,0,1,.49-2.34,3.62,3.62,0,0,1,1.39-1.6,3.93,3.93,0,0,1,2.14-.57,3.61,3.61,0,0,1,2.53.91,3.25,3.25,0,0,1,1.07,2.37h-1.46a2.1,2.1,0,0,0-2.14-2,2.15,2.15,0,0,0-1.82.85,3.91,3.91,0,0,0-.65,2.45v.29a3.89,3.89,0,0,0,.64,2.41A2.18,2.18,0,0,0,325.81,150.59Z"/><path d="M334.89,151.86a4,4,0,0,1-3-1.21,4.48,4.48,0,0,1-1.15-3.23v-.28a5.5,5.5,0,0,1,.51-2.41,4,4,0,0,1,1.44-1.65,3.58,3.58,0,0,1,2-.6,3.39,3.39,0,0,1,2.74,1.16,5.07,5.07,0,0,1,1,3.33v.64h-6.13a3.26,3.26,0,0,0,.79,2.16,2.43,2.43,0,0,0,1.9.82,2.71,2.71,0,0,0,1.38-.33,3.51,3.51,0,0,0,1-.89l.94.74A3.81,3.81,0,0,1,334.89,151.86Zm-.19-8.11a2.07,2.07,0,0,0-1.57.68,3.35,3.35,0,0,0-.79,1.91h4.53v-.12a2.9,2.9,0,0,0-.63-1.82A2,2,0,0,0,334.7,143.75Z"/><path d="M340.22,140.25a.92.92,0,0,1,.23-.64,1,1,0,0,1,1.36,0,.93.93,0,0,1,.24.64.88.88,0,0,1-.24.63,1,1,0,0,1-1.36,0A.88.88,0,0,1,340.22,140.25Zm1.67,11.44h-1.55v-9h1.55Z"/><path d="M347.34,149.59l2.24-6.94h1.58l-3.24,9h-1.18l-3.27-9h1.58Z"/><path d="M356.29,151.86a4,4,0,0,1-3-1.21,4.48,4.48,0,0,1-1.15-3.23v-.28a5.5,5.5,0,0,1,.51-2.41,4,4,0,0,1,1.44-1.65,3.58,3.58,0,0,1,2-.6,3.4,3.4,0,0,1,2.74,1.16,5.07,5.07,0,0,1,1,3.33v.64h-6.13a3.3,3.3,0,0,0,.78,2.16,2.47,2.47,0,0,0,1.91.82,2.71,2.71,0,0,0,1.38-.33,3.51,3.51,0,0,0,1-.89l.94.74A3.81,3.81,0,0,1,356.29,151.86Zm-.19-8.11a2.07,2.07,0,0,0-1.57.68,3.35,3.35,0,0,0-.79,1.91h4.53v-.12a2.9,2.9,0,0,0-.63-1.82A2,2,0,0,0,356.1,143.75Z"/><path d="M361.23,147.09a5.27,5.27,0,0,1,1-3.34,3.34,3.34,0,0,1,5.09-.18v-4.72h1.55v12.84h-1.42l-.08-1a3.12,3.12,0,0,1-2.58,1.14,3.08,3.08,0,0,1-2.56-1.29,5.37,5.37,0,0,1-1-3.36Zm1.55.18a4.06,4.06,0,0,0,.63,2.41,2.08,2.08,0,0,0,1.76.86,2.24,2.24,0,0,0,2.14-1.32v-4.15a2.27,2.27,0,0,0-2.13-1.28,2.09,2.09,0,0,0-1.77.88A4.45,4.45,0,0,0,362.78,147.27Z"/><path d="M377.59,140.46v2.19h1.69v1.19h-1.69v5.62a1.24,1.24,0,0,0,.23.81.94.94,0,0,0,.77.27,3.52,3.52,0,0,0,.73-.1v1.25a4.55,4.55,0,0,1-1.18.17,1.92,1.92,0,0,1-1.57-.63,2.7,2.7,0,0,1-.52-1.78v-5.61H374.4v-1.19h1.65v-2.19Z"/><path d="M385.45,144a4.42,4.42,0,0,0-.76-.06,2,2,0,0,0-2.06,1.29v6.42h-1.55v-9h1.51l0,1a2.41,2.41,0,0,1,2.16-1.21,1.5,1.5,0,0,1,.68.12Z"/><path d="M392.12,151.69a3.14,3.14,0,0,1-.21-.95,3.48,3.48,0,0,1-2.58,1.12,3.21,3.21,0,0,1-2.19-.76,2.44,2.44,0,0,1-.86-1.92,2.55,2.55,0,0,1,1.08-2.19,5.05,5.05,0,0,1,3-.78h1.5v-.71a1.74,1.74,0,0,0-.48-1.29,2,2,0,0,0-1.43-.48,2.31,2.31,0,0,0-1.39.41,1.25,1.25,0,0,0-.56,1h-1.55a2.12,2.12,0,0,1,.48-1.3,3.22,3.22,0,0,1,1.3-1,4.31,4.31,0,0,1,1.81-.37,3.58,3.58,0,0,1,2.45.78,2.85,2.85,0,0,1,.92,2.15v4.17a5.13,5.13,0,0,0,.31,2v.13Zm-2.56-1.18a2.66,2.66,0,0,0,1.38-.38,2.25,2.25,0,0,0,.94-1V147.3h-1.21c-1.9,0-2.84.56-2.84,1.67a1.4,1.4,0,0,0,.48,1.13A1.9,1.9,0,0,0,389.56,150.51Z"/><path d="M395.86,140.25a.92.92,0,0,1,.23-.64,1,1,0,0,1,1.36,0,.93.93,0,0,1,.24.64.88.88,0,0,1-.24.63,1,1,0,0,1-1.36,0A.88.88,0,0,1,395.86,140.25Zm1.67,11.44H396v-9h1.55Z"/><path d="M401.46,142.65l.06,1.13a3.31,3.31,0,0,1,2.7-1.3c1.91,0,2.88,1.08,2.89,3.23v6h-1.54v-6a2.11,2.11,0,0,0-.45-1.45,1.8,1.8,0,0,0-1.37-.47,2.29,2.29,0,0,0-1.32.4,2.77,2.77,0,0,0-.88,1.06v6.44H400v-9Z"/><path d="M409.45,140.25a1,1,0,0,1,.23-.64.88.88,0,0,1,.68-.25.9.9,0,0,1,.69.25,1,1,0,0,1,.23.64.92.92,0,0,1-.23.63.94.94,0,0,1-.69.25.83.83,0,0,1-.91-.88Zm1.67,11.44h-1.54v-9h1.54Z"/><path d="M415.06,142.65l.05,1.13a3.31,3.31,0,0,1,2.71-1.3q2.87,0,2.89,3.23v6h-1.55v-6a2.06,2.06,0,0,0-.44-1.45,1.82,1.82,0,0,0-1.37-.47,2.29,2.29,0,0,0-1.32.4,2.71,2.71,0,0,0-.89,1.06v6.44H413.6v-9Z"/><path d="M422.67,147.09a5.31,5.31,0,0,1,1-3.36,3.37,3.37,0,0,1,5.17-.08l.08-1h1.41v8.82a3.71,3.71,0,0,1-1,2.77,3.86,3.86,0,0,1-2.8,1,4.61,4.61,0,0,1-1.91-.42,3.36,3.36,0,0,1-1.43-1.14l.8-.93a3,3,0,0,0,2.43,1.23,2.33,2.33,0,0,0,1.76-.64,2.43,2.43,0,0,0,.64-1.79v-.77a3.21,3.21,0,0,1-2.54,1.07,3.1,3.1,0,0,1-2.57-1.28A5.63,5.63,0,0,1,422.67,147.09Zm1.56.18a4,4,0,0,0,.62,2.4,2,2,0,0,0,1.76.87,2.28,2.28,0,0,0,2.15-1.32v-4.13a2.3,2.3,0,0,0-2.14-1.3,2.06,2.06,0,0,0-1.76.88A4.45,4.45,0,0,0,424.23,147.27Z"/><path d="M436.47,147.09a5.28,5.28,0,0,1,.52-2.39,3.87,3.87,0,0,1,1.45-1.64,3.91,3.91,0,0,1,2.13-.58,3.83,3.83,0,0,1,3,1.28,4.92,4.92,0,0,1,1.14,3.4v.11a5.35,5.35,0,0,1-.51,2.37,3.81,3.81,0,0,1-1.44,1.63,4,4,0,0,1-2.16.59,3.81,3.81,0,0,1-3-1.28,4.9,4.9,0,0,1-1.14-3.39Zm1.55.18a3.81,3.81,0,0,0,.7,2.41,2.37,2.37,0,0,0,3.74,0,4.23,4.23,0,0,0,.69-2.58,3.88,3.88,0,0,0-.7-2.42,2.26,2.26,0,0,0-1.88-.92,2.22,2.22,0,0,0-1.85.91A4.27,4.27,0,0,0,438,147.27Z"/><path d="M448.1,142.65l0,1.13a3.31,3.31,0,0,1,2.71-1.3q2.86,0,2.89,3.23v6H452.2v-6a2.06,2.06,0,0,0-.44-1.45,1.82,1.82,0,0,0-1.37-.47,2.29,2.29,0,0,0-1.32.4,2.71,2.71,0,0,0-.89,1.06v6.44h-1.54v-9Z"/><path d="M460.32,140.25a1,1,0,0,1,.23-.64,1.06,1.06,0,0,1,1.37,0,.92.92,0,0,1,.23.64.88.88,0,0,1-.23.63.92.92,0,0,1-1.6-.63ZM462,151.69h-1.55v-9H462Z"/><path d="M465.92,142.65l0,1a3.36,3.36,0,0,1,2.69-1.17,2.6,2.6,0,0,1,2.58,1.45,3.49,3.49,0,0,1,1.17-1.05,3.43,3.43,0,0,1,1.71-.4q3,0,3,3.15v6.06h-1.55v-6a2.11,2.11,0,0,0-.44-1.45,2,2,0,0,0-1.49-.48,2,2,0,0,0-1.43.52,2.06,2.06,0,0,0-.66,1.38v6H470v-5.93a1.73,1.73,0,0,0-1.93-2,2.05,2.05,0,0,0-2.08,1.3v6.6h-1.55v-9Z"/><path d="M487.1,147.27a5.4,5.4,0,0,1-.94,3.32,3,3,0,0,1-2.56,1.27,3.32,3.32,0,0,1-2.59-1.05v4.36h-1.54V142.65h1.41l.07,1a3.2,3.2,0,0,1,2.63-1.17,3.1,3.1,0,0,1,2.58,1.23,5.5,5.5,0,0,1,.94,3.42Zm-1.54-.18a4,4,0,0,0-.65-2.41,2.11,2.11,0,0,0-1.79-.89A2.28,2.28,0,0,0,481,145v4.32a2.28,2.28,0,0,0,2.13,1.23,2.06,2.06,0,0,0,1.76-.88A4.32,4.32,0,0,0,485.56,147.09Z"/><path d="M488.66,147.09a5.28,5.28,0,0,1,.52-2.39,3.87,3.87,0,0,1,1.45-1.64,3.94,3.94,0,0,1,2.13-.58,3.83,3.83,0,0,1,3,1.28,4.92,4.92,0,0,1,1.14,3.4v.11a5.35,5.35,0,0,1-.51,2.37,3.81,3.81,0,0,1-1.44,1.63,4,4,0,0,1-2.16.59,3.81,3.81,0,0,1-3-1.28,4.9,4.9,0,0,1-1.14-3.39Zm1.55.18a3.81,3.81,0,0,0,.7,2.41,2.24,2.24,0,0,0,1.87.91,2.21,2.21,0,0,0,1.87-.92,4.23,4.23,0,0,0,.69-2.58,3.88,3.88,0,0,0-.7-2.42,2.26,2.26,0,0,0-1.88-.92,2.22,2.22,0,0,0-1.85.91A4.27,4.27,0,0,0,490.21,147.27Z"/><path d="M504.09,149.29a1.14,1.14,0,0,0-.47-1,4.55,4.55,0,0,0-1.65-.6,8.13,8.13,0,0,1-1.86-.6,2.65,2.65,0,0,1-1-.84,2,2,0,0,1-.33-1.15,2.33,2.33,0,0,1,.94-1.88,3.69,3.69,0,0,1,2.4-.77,3.84,3.84,0,0,1,2.5.79,2.55,2.55,0,0,1,.95,2H504a1.4,1.4,0,0,0-.54-1.1,2,2,0,0,0-1.36-.46,2.09,2.09,0,0,0-1.32.37,1.16,1.16,0,0,0-.47,1,.92.92,0,0,0,.44.84,5.57,5.57,0,0,0,1.6.55,8,8,0,0,1,1.87.62,2.63,2.63,0,0,1,1.07.86,2.15,2.15,0,0,1,.35,1.23,2.34,2.34,0,0,1-1,1.95,4.14,4.14,0,0,1-2.52.73,4.51,4.51,0,0,1-1.92-.39,3.09,3.09,0,0,1-1.31-1.07,2.63,2.63,0,0,1-.47-1.49H500a1.57,1.57,0,0,0,.62,1.23,2.91,2.91,0,0,0,2.94.1A1.1,1.1,0,0,0,504.09,149.29Z"/><path d="M507.66,140.25a1,1,0,0,1,.23-.64.86.86,0,0,1,.68-.25.9.9,0,0,1,.69.25,1,1,0,0,1,.23.64.92.92,0,0,1-.23.63.94.94,0,0,1-.69.25.9.9,0,0,1-.68-.25A.92.92,0,0,1,507.66,140.25Zm1.67,11.44h-1.54v-9h1.54Z"/><path d="M513.27,142.65l.05,1.13a3.31,3.31,0,0,1,2.7-1.3c1.91,0,2.88,1.08,2.89,3.23v6h-1.54v-6a2.11,2.11,0,0,0-.45-1.45,1.79,1.79,0,0,0-1.36-.47,2.24,2.24,0,0,0-1.32.4,2.71,2.71,0,0,0-.89,1.06v6.44H511.8v-9Z"/><path d="M520.88,147.09a5.25,5.25,0,0,1,1-3.36,3.37,3.37,0,0,1,5.17-.08l.07-1h1.42v8.82a3.71,3.71,0,0,1-1,2.77,3.88,3.88,0,0,1-2.8,1,4.61,4.61,0,0,1-1.91-.42,3.3,3.3,0,0,1-1.43-1.14l.8-.93a3,3,0,0,0,2.43,1.23,2.35,2.35,0,0,0,1.76-.64,2.43,2.43,0,0,0,.63-1.79v-.77a3.18,3.18,0,0,1-2.53,1.07,3.1,3.1,0,0,1-2.57-1.28A5.63,5.63,0,0,1,520.88,147.09Zm1.55.18a4,4,0,0,0,.63,2.4,2,2,0,0,0,1.75.87,2.26,2.26,0,0,0,2.15-1.32v-4.13a2.28,2.28,0,0,0-2.13-1.3,2.06,2.06,0,0,0-1.76.88A4.37,4.37,0,0,0,522.43,147.27Z"/><path d="M291.31,171.13a2.26,2.26,0,0,0,1.45-.5,1.76,1.76,0,0,0,.68-1.25h1.47a2.79,2.79,0,0,1-.54,1.47,3.44,3.44,0,0,1-1.32,1.12,4,4,0,0,1-4.67-.81,4.9,4.9,0,0,1-1.1-3.37v-.26a5.51,5.51,0,0,1,.49-2.35,3.74,3.74,0,0,1,1.39-1.6,4,4,0,0,1,2.14-.56,3.61,3.61,0,0,1,2.53.91,3.26,3.26,0,0,1,1.08,2.36h-1.47a2.11,2.11,0,0,0-.66-1.44,2.05,2.05,0,0,0-1.48-.56,2.17,2.17,0,0,0-1.82.84,4,4,0,0,0-.65,2.46v.29a4,4,0,0,0,.64,2.41A2.19,2.19,0,0,0,291.31,171.13Z"/><path d="M296.23,167.62a5.31,5.31,0,0,1,.53-2.39,3.87,3.87,0,0,1,1.45-1.64,4,4,0,0,1,2.13-.57,3.8,3.8,0,0,1,3,1.27,5,5,0,0,1,1.15,3.41v.1a5.35,5.35,0,0,1-.51,2.37,3.86,3.86,0,0,1-1.45,1.64,4,4,0,0,1-2.16.58,3.77,3.77,0,0,1-3-1.28,4.84,4.84,0,0,1-1.15-3.38Zm1.56.18a3.85,3.85,0,0,0,.7,2.42,2.2,2.2,0,0,0,1.86.91,2.25,2.25,0,0,0,1.88-.92,4.26,4.26,0,0,0,.69-2.59,3.88,3.88,0,0,0-.71-2.41,2.35,2.35,0,0,0-3.72,0A4.15,4.15,0,0,0,297.79,167.8Z"/><path d="M310.77,164.57a4.42,4.42,0,0,0-.76-.06,2,2,0,0,0-2.06,1.3v6.41H306.4v-9h1.51l0,1a2.41,2.41,0,0,1,2.16-1.21,1.68,1.68,0,0,1,.68.11Z"/><path d="M319.83,167.8a5.41,5.41,0,0,1-.94,3.33,3,3,0,0,1-2.56,1.26,3.33,3.33,0,0,1-2.59-1v4.35h-1.55V163.18h1.42l.07,1a3.18,3.18,0,0,1,2.63-1.17,3.09,3.09,0,0,1,2.57,1.22,5.43,5.43,0,0,1,.95,3.42Zm-1.54-.17a4,4,0,0,0-.66-2.42,2.09,2.09,0,0,0-1.78-.88,2.27,2.27,0,0,0-2.11,1.24v4.32a2.27,2.27,0,0,0,2.12,1.24,2.09,2.09,0,0,0,1.77-.88A4.34,4.34,0,0,0,318.29,167.63Z"/><path d="M321.39,167.62a5.31,5.31,0,0,1,.52-2.39,3.93,3.93,0,0,1,1.45-1.64,4,4,0,0,1,2.13-.57,3.8,3.8,0,0,1,3,1.27,5,5,0,0,1,1.15,3.41v.1a5.35,5.35,0,0,1-.51,2.37,3.86,3.86,0,0,1-1.45,1.64,4,4,0,0,1-2.16.58,3.77,3.77,0,0,1-3-1.28,4.89,4.89,0,0,1-1.14-3.38Zm1.55.18a3.85,3.85,0,0,0,.7,2.42,2.2,2.2,0,0,0,1.86.91,2.25,2.25,0,0,0,1.88-.92,4.26,4.26,0,0,0,.69-2.59,3.88,3.88,0,0,0-.71-2.41,2.35,2.35,0,0,0-3.72,0A4.15,4.15,0,0,0,322.94,167.8Z"/><path d="M335.92,164.57a4.42,4.42,0,0,0-.76-.06,2,2,0,0,0-2.06,1.3v6.41h-1.55v-9h1.51l0,1a2.41,2.41,0,0,1,2.16-1.21,1.68,1.68,0,0,1,.68.11Z"/><path d="M342.59,172.22a3,3,0,0,1-.21-.95,3.45,3.45,0,0,1-2.58,1.12,3.2,3.2,0,0,1-2.19-.75,2.47,2.47,0,0,1-.86-1.92,2.58,2.58,0,0,1,1.08-2.2,5.05,5.05,0,0,1,3-.78h1.5V166a1.74,1.74,0,0,0-.48-1.29,2,2,0,0,0-1.43-.48,2.25,2.25,0,0,0-1.39.42,1.23,1.23,0,0,0-.56,1h-1.55a2.14,2.14,0,0,1,.48-1.31,3.31,3.31,0,0,1,1.3-1,4.47,4.47,0,0,1,1.81-.36,3.58,3.58,0,0,1,2.45.78,2.85,2.85,0,0,1,.92,2.15v4.16a5.13,5.13,0,0,0,.31,2v.13ZM340,171.05a2.76,2.76,0,0,0,1.38-.38,2.27,2.27,0,0,0,.94-1v-1.85h-1.21c-1.9,0-2.84.55-2.84,1.66a1.42,1.42,0,0,0,.48,1.14A1.9,1.9,0,0,0,340,171.05Z"/><path d="M348.42,161v2.19h1.68v1.2h-1.68V170a1.27,1.27,0,0,0,.22.82,1,1,0,0,0,.77.27,3.6,3.6,0,0,0,.74-.1v1.25a4.59,4.59,0,0,1-1.19.16,1.94,1.94,0,0,1-1.56-.62,2.72,2.72,0,0,1-.53-1.78v-5.61h-1.65v-1.2h1.65V161Z"/><path d="M355.66,172.39a3.94,3.94,0,0,1-3-1.21,4.46,4.46,0,0,1-1.15-3.23v-.28a5.43,5.43,0,0,1,.51-2.4,4,4,0,0,1,1.44-1.66,3.65,3.65,0,0,1,2-.59,3.37,3.37,0,0,1,2.74,1.16,5,5,0,0,1,1,3.32v.65h-6.13a3.25,3.25,0,0,0,.78,2.16,2.46,2.46,0,0,0,1.9.82,2.72,2.72,0,0,0,1.39-.33,3.66,3.66,0,0,0,1-.89l.94.74A3.8,3.8,0,0,1,355.66,172.39Zm-.19-8.1a2,2,0,0,0-1.57.68,3.26,3.26,0,0,0-.79,1.91h4.53v-.12a2.93,2.93,0,0,0-.63-1.83A1.94,1.94,0,0,0,355.47,164.29Z"/><path d="M368.84,171.13a2.23,2.23,0,0,0,1.44-.5,1.73,1.73,0,0,0,.69-1.25h1.46a2.77,2.77,0,0,1-.53,1.47,3.44,3.44,0,0,1-1.32,1.12,3.78,3.78,0,0,1-1.74.42,3.74,3.74,0,0,1-2.94-1.23,4.9,4.9,0,0,1-1.09-3.37v-.26a5.37,5.37,0,0,1,.49-2.35,3.68,3.68,0,0,1,1.39-1.6,4,4,0,0,1,2.14-.56,3.62,3.62,0,0,1,2.53.91,3.22,3.22,0,0,1,1.07,2.36H371a2.16,2.16,0,0,0-.66-1.44,2.05,2.05,0,0,0-1.48-.56,2.2,2.2,0,0,0-1.83.84,4,4,0,0,0-.64,2.46v.29a3.93,3.93,0,0,0,.64,2.41A2.18,2.18,0,0,0,368.84,171.13Z"/><path d="M378.54,164.57a4.51,4.51,0,0,0-.76-.06,2,2,0,0,0-2.06,1.3v6.41h-1.55v-9h1.5l0,1a2.4,2.4,0,0,1,2.15-1.21,1.77,1.77,0,0,1,.69.11Z"/><path d="M380,160.79a.93.93,0,0,1,.23-.64,1,1,0,0,1,1.36,0,.89.89,0,0,1,.24.64,1,1,0,0,1-1.6.62A.9.9,0,0,1,380,160.79Zm1.67,11.43h-1.55v-9h1.55Z"/><path d="M385.57,163.18l0,1a3.34,3.34,0,0,1,2.68-1.17,2.57,2.57,0,0,1,2.58,1.45,3.33,3.33,0,0,1,1.18-1.05,3.43,3.43,0,0,1,1.71-.4q3,0,3,3.15v6.05h-1.55v-6a2,2,0,0,0-.44-1.45,1.94,1.94,0,0,0-1.49-.48,2,2,0,0,0-1.42.51,2.08,2.08,0,0,0-.66,1.39v6h-1.56V166.3a1.72,1.72,0,0,0-1.93-2,2.07,2.07,0,0,0-2.08,1.29v6.6H384.1v-9Z"/><path d="M399.12,160.79a.93.93,0,0,1,.23-.64.87.87,0,0,1,.68-.26.9.9,0,0,1,.69.26.93.93,0,0,1,.23.64.83.83,0,0,1-.92.87.86.86,0,0,1-.68-.25A.9.9,0,0,1,399.12,160.79Zm1.67,11.43h-1.54v-9h1.54Z"/><path d="M404.73,163.18l0,1.14a3.28,3.28,0,0,1,2.7-1.3c1.91,0,2.88,1.07,2.9,3.23v6h-1.55v-6a2.05,2.05,0,0,0-.45-1.44,1.74,1.74,0,0,0-1.36-.47,2.22,2.22,0,0,0-1.32.4,2.75,2.75,0,0,0-.89,1.05v6.44h-1.54v-9Z"/><path d="M418.29,172.22a3.22,3.22,0,0,1-.22-.95,3.43,3.43,0,0,1-2.57,1.12,3.2,3.2,0,0,1-2.19-.75,2.44,2.44,0,0,1-.86-1.92,2.59,2.59,0,0,1,1.07-2.2,5.07,5.07,0,0,1,3-.78h1.51V166a1.71,1.71,0,0,0-.49-1.29,2,2,0,0,0-1.43-.48,2.22,2.22,0,0,0-1.38.42,1.21,1.21,0,0,0-.56,1h-1.56a2.14,2.14,0,0,1,.48-1.31,3.34,3.34,0,0,1,1.31-1,4.42,4.42,0,0,1,1.8-.36,3.57,3.57,0,0,1,2.45.78,2.81,2.81,0,0,1,.92,2.15v4.16a5.11,5.11,0,0,0,.32,2v.13Zm-2.57-1.17a2.71,2.71,0,0,0,1.38-.38,2.29,2.29,0,0,0,.95-1v-1.85h-1.21c-1.9,0-2.85.55-2.85,1.66a1.43,1.43,0,0,0,.49,1.14A1.87,1.87,0,0,0,415.72,171.05Z"/><path d="M423.7,172.22h-1.55V159.39h1.55Z"/><path d="M432.08,172.22h-1.54V159.39h1.54Z"/><path d="M434.57,160.79a.88.88,0,0,1,.23-.64,1,1,0,0,1,1.36,0,.89.89,0,0,1,.24.64.92.92,0,1,1-1.83,0Zm1.67,11.43h-1.55v-9h1.55Z"/><path d="M444.29,172.22a3.22,3.22,0,0,1-.22-.95,3.41,3.41,0,0,1-2.57,1.12,3.2,3.2,0,0,1-2.19-.75,2.47,2.47,0,0,1-.86-1.92,2.59,2.59,0,0,1,1.07-2.2,5.1,5.1,0,0,1,3-.78h1.5V166a1.71,1.71,0,0,0-.49-1.29,1.92,1.92,0,0,0-1.42-.48,2.23,2.23,0,0,0-1.39.42,1.23,1.23,0,0,0-.56,1h-1.55a2.14,2.14,0,0,1,.48-1.31,3.31,3.31,0,0,1,1.3-1,4.47,4.47,0,0,1,1.81-.36,3.58,3.58,0,0,1,2.45.78,2.85,2.85,0,0,1,.92,2.15v4.16a5.13,5.13,0,0,0,.31,2v.13Zm-2.56-1.17a2.76,2.76,0,0,0,1.38-.38,2.33,2.33,0,0,0,.94-1v-1.85h-1.21c-1.9,0-2.84.55-2.84,1.66a1.42,1.42,0,0,0,.48,1.14A1.9,1.9,0,0,0,441.73,171.05Z"/><path d="M455.67,167.8a5.37,5.37,0,0,1-.95,3.33,3,3,0,0,1-2.56,1.26,3.13,3.13,0,0,1-2.64-1.21l-.08,1H448V159.39h1.54v4.79a3.14,3.14,0,0,1,2.59-1.16,3,3,0,0,1,2.58,1.24,5.52,5.52,0,0,1,.94,3.41Zm-1.54-.17a4.23,4.23,0,0,0-.61-2.44,2,2,0,0,0-1.76-.86,2.27,2.27,0,0,0-2.2,1.42v3.91a2.34,2.34,0,0,0,2.22,1.42,2,2,0,0,0,1.73-.86A4.46,4.46,0,0,0,454.13,167.63Z"/><path d="M457.63,160.79a.93.93,0,0,1,.23-.64,1,1,0,0,1,1.36,0,.89.89,0,0,1,.24.64,1,1,0,0,1-1.6.62A.9.9,0,0,1,457.63,160.79Zm1.67,11.43h-1.55v-9h1.55Z"/><path d="M463.45,172.22h-1.54V159.39h1.54Z"/><path d="M465.93,160.79a.93.93,0,0,1,.23-.64.92.92,0,0,1,1.6.64.85.85,0,0,1-.23.62,1.06,1.06,0,0,1-1.37,0A.9.9,0,0,1,465.93,160.79Zm1.68,11.43h-1.55v-9h1.55Z"/><path d="M472.18,161v2.19h1.68v1.2h-1.68V170a1.27,1.27,0,0,0,.22.82,1,1,0,0,0,.77.27,3.6,3.6,0,0,0,.74-.1v1.25a4.59,4.59,0,0,1-1.19.16,1.94,1.94,0,0,1-1.56-.62,2.72,2.72,0,0,1-.53-1.78v-5.61H469v-1.2h1.65V161Z"/><path d="M478.63,170l2.1-6.78h1.66l-3.64,10.44c-.56,1.5-1.46,2.26-2.68,2.26l-.29,0-.58-.11v-1.25l.42,0a2.06,2.06,0,0,0,1.22-.31,2.22,2.22,0,0,0,.72-1.17l.35-.92-3.23-8.94h1.69Z"/><path d="M488,160.79a.93.93,0,0,1,.23-.64.87.87,0,0,1,.68-.26.9.9,0,0,1,.69.26.93.93,0,0,1,.23.64.83.83,0,0,1-.92.87.86.86,0,0,1-.68-.25A.9.9,0,0,1,488,160.79Zm1.67,11.43h-1.54v-9h1.54Z"/><path d="M493.62,163.18l.05,1.14a3.28,3.28,0,0,1,2.7-1.3c1.91,0,2.88,1.07,2.9,3.23v6h-1.55v-6a2.1,2.1,0,0,0-.45-1.44,1.76,1.76,0,0,0-1.36-.47,2.2,2.2,0,0,0-1.32.4,2.75,2.75,0,0,0-.89,1.05v6.44h-1.55v-9Z"/><path d="M506.59,172.22v-7.84h-1.43v-1.2h1.43v-.92a3.08,3.08,0,0,1,.78-2.25,2.94,2.94,0,0,1,2.2-.8,3.82,3.82,0,0,1,1.06.15l-.08,1.24a4.53,4.53,0,0,0-.84-.07,1.48,1.48,0,0,0-1.16.44,1.78,1.78,0,0,0-.41,1.26v1h1.93v1.2h-1.93v7.84Z"/><path d="M511.37,167.62a5.31,5.31,0,0,1,.52-2.39,3.93,3.93,0,0,1,1.45-1.64,4,4,0,0,1,2.13-.57,3.83,3.83,0,0,1,3,1.27,5,5,0,0,1,1.14,3.41v.1a5.35,5.35,0,0,1-.51,2.37,3.86,3.86,0,0,1-1.45,1.64,4,4,0,0,1-2.16.58,3.77,3.77,0,0,1-3-1.28,4.89,4.89,0,0,1-1.14-3.38Zm1.55.18a3.85,3.85,0,0,0,.7,2.42,2.2,2.2,0,0,0,1.86.91,2.25,2.25,0,0,0,1.88-.92,4.26,4.26,0,0,0,.69-2.59,3.88,3.88,0,0,0-.71-2.41,2.35,2.35,0,0,0-3.72,0A4.15,4.15,0,0,0,512.92,167.8Z"/><path d="M525.9,164.57a4.42,4.42,0,0,0-.76-.06,2,2,0,0,0-2.06,1.3v6.41h-1.55v-9H523l0,1a2.41,2.41,0,0,1,2.16-1.21,1.68,1.68,0,0,1,.68.11Z"/><path d="M530.92,172.39a3.93,3.93,0,0,1-3-1.21,4.47,4.47,0,0,1-1.16-3.23v-.28a5.29,5.29,0,0,1,.52-2.4,4,4,0,0,1,1.43-1.66,3.71,3.71,0,0,1,2-.59,3.38,3.38,0,0,1,2.74,1.16,5,5,0,0,1,1,3.32v.65h-6.12a3.2,3.2,0,0,0,.78,2.16,2.45,2.45,0,0,0,1.9.82,2.72,2.72,0,0,0,1.39-.33,3.49,3.49,0,0,0,1-.89l1,.74A3.81,3.81,0,0,1,530.92,172.39Zm-.19-8.1a2.06,2.06,0,0,0-1.58.68,3.31,3.31,0,0,0-.78,1.91h4.53v-.12a3,3,0,0,0-.64-1.83A1.94,1.94,0,0,0,530.73,164.29Z"/><path d="M541.5,169.83a1.14,1.14,0,0,0-.48-1,4.4,4.4,0,0,0-1.64-.59,7.48,7.48,0,0,1-1.86-.61,2.63,2.63,0,0,1-1-.83,2,2,0,0,1-.33-1.15,2.32,2.32,0,0,1,.94-1.88,3.6,3.6,0,0,1,2.4-.77,3.77,3.77,0,0,1,2.49.79,2.52,2.52,0,0,1,1,2H541.4a1.4,1.4,0,0,0-.53-1.09,2,2,0,0,0-1.36-.46,2.16,2.16,0,0,0-1.32.36,1.17,1.17,0,0,0-.48,1,1,1,0,0,0,.44.85,5.44,5.44,0,0,0,1.6.54,8.09,8.09,0,0,1,1.88.62,2.72,2.72,0,0,1,1.07.87,2.1,2.1,0,0,1,.34,1.23,2.3,2.3,0,0,1-1,1.94,4,4,0,0,1-2.51.73,4.6,4.6,0,0,1-1.92-.38,3.12,3.12,0,0,1-1.31-1.08,2.53,2.53,0,0,1-.47-1.49h1.54a1.61,1.61,0,0,0,.62,1.23,2.39,2.39,0,0,0,1.54.46,2.5,2.5,0,0,0,1.41-.36A1.08,1.08,0,0,0,541.5,169.83Z"/><path d="M547.15,161v2.19h1.69v1.2h-1.69V170a1.27,1.27,0,0,0,.23.82,1,1,0,0,0,.77.27,3.44,3.44,0,0,0,.73-.1v1.25a4.46,4.46,0,0,1-1.18.16,2,2,0,0,1-1.57-.62,2.72,2.72,0,0,1-.52-1.78v-5.61H544v-1.2h1.65V161Z"/><path d="M331.78,181.53v2.19h1.68v1.19h-1.68v5.62a1.24,1.24,0,0,0,.22.81,1,1,0,0,0,.77.28,4.47,4.47,0,0,0,.74-.1v1.24a4.62,4.62,0,0,1-1.19.17,1.91,1.91,0,0,1-1.56-.63,2.7,2.7,0,0,1-.53-1.78v-5.61h-1.65v-1.19h1.65v-2.19Z"/><path d="M339.64,185.11a4.59,4.59,0,0,0-.76-.06,2,2,0,0,0-2.07,1.29v6.42h-1.54v-9h1.5l0,1a2.42,2.42,0,0,1,2.15-1.21,1.58,1.58,0,0,1,.69.12Z"/><path d="M346.31,192.76a3.4,3.4,0,0,1-.22-.95,3.48,3.48,0,0,1-2.57,1.12,3.18,3.18,0,0,1-2.2-.76,2.43,2.43,0,0,1-.85-1.92,2.54,2.54,0,0,1,1.07-2.19,5.07,5.07,0,0,1,3-.78h1.5v-.71a1.74,1.74,0,0,0-.48-1.29,2,2,0,0,0-1.43-.48,2.28,2.28,0,0,0-1.38.41,1.24,1.24,0,0,0-.57,1h-1.55a2.12,2.12,0,0,1,.48-1.31,3.29,3.29,0,0,1,1.3-1,4.34,4.34,0,0,1,1.81-.37,3.57,3.57,0,0,1,2.45.78,2.81,2.81,0,0,1,.92,2.15v4.17a5.11,5.11,0,0,0,.32,2v.13Zm-2.57-1.18a2.7,2.7,0,0,0,1.38-.37,2.21,2.21,0,0,0,.94-1v-1.86h-1.21c-1.89,0-2.84.56-2.84,1.67a1.38,1.38,0,0,0,.49,1.13A1.82,1.82,0,0,0,343.74,191.58Z"/><path d="M351.5,183.72l.05,1.14a3.29,3.29,0,0,1,2.7-1.31c1.91,0,2.88,1.08,2.89,3.24v6H355.6v-6a2.13,2.13,0,0,0-.45-1.45,1.79,1.79,0,0,0-1.36-.47,2.27,2.27,0,0,0-1.32.4,2.71,2.71,0,0,0-.89,1.06v6.44H350v-9Z"/><path d="M364.74,190.36a1.14,1.14,0,0,0-.47-1,4.7,4.7,0,0,0-1.65-.6,8.13,8.13,0,0,1-1.86-.6,2.56,2.56,0,0,1-1-.84,2,2,0,0,1-.33-1.15,2.33,2.33,0,0,1,.94-1.88,3.69,3.69,0,0,1,2.4-.77,3.79,3.79,0,0,1,2.5.8,2.53,2.53,0,0,1,.95,2h-1.55a1.4,1.4,0,0,0-.54-1.1,2.05,2.05,0,0,0-1.36-.46,2.09,2.09,0,0,0-1.32.37,1.17,1.17,0,0,0-.48,1,.92.92,0,0,0,.45.84,5.27,5.27,0,0,0,1.6.55,8.16,8.16,0,0,1,1.87.62,2.71,2.71,0,0,1,1.07.86,2.15,2.15,0,0,1,.35,1.23,2.34,2.34,0,0,1-1,1.95,4.14,4.14,0,0,1-2.52.73,4.51,4.51,0,0,1-1.92-.39,3.09,3.09,0,0,1-1.31-1.07,2.63,2.63,0,0,1-.47-1.49h1.55a1.55,1.55,0,0,0,.62,1.23,2.85,2.85,0,0,0,2.94.1A1.1,1.1,0,0,0,364.74,190.36Z"/><path d="M369.76,183.72l.05,1.14a3.31,3.31,0,0,1,2.71-1.31q2.87,0,2.89,3.24v6h-1.54v-6a2.13,2.13,0,0,0-.45-1.45,1.8,1.8,0,0,0-1.37-.47,2.29,2.29,0,0,0-1.32.4,2.69,2.69,0,0,0-.88,1.06v6.44H368.3v-9Z"/><path d="M383.32,192.76a3.14,3.14,0,0,1-.21-.95,3.48,3.48,0,0,1-2.58,1.12,3.16,3.16,0,0,1-2.19-.76,2.44,2.44,0,0,1-.86-1.92,2.55,2.55,0,0,1,1.08-2.19,5.05,5.05,0,0,1,3-.78h1.5v-.71a1.74,1.74,0,0,0-.48-1.29,2,2,0,0,0-1.43-.48,2.31,2.31,0,0,0-1.39.41,1.25,1.25,0,0,0-.56,1h-1.55a2.12,2.12,0,0,1,.48-1.31,3.22,3.22,0,0,1,1.3-1,4.31,4.31,0,0,1,1.81-.37,3.58,3.58,0,0,1,2.45.78,2.81,2.81,0,0,1,.92,2.15v4.17a4.93,4.93,0,0,0,.32,2v.13Zm-2.56-1.18a2.75,2.75,0,0,0,1.38-.37,2.27,2.27,0,0,0,.94-1v-1.86h-1.21c-1.89,0-2.84.56-2.84,1.67a1.4,1.4,0,0,0,.48,1.13A1.85,1.85,0,0,0,380.76,191.58Z"/><path d="M389.15,181.53v2.19h1.69v1.19h-1.69v5.62a1.24,1.24,0,0,0,.22.81,1,1,0,0,0,.77.28,4.34,4.34,0,0,0,.74-.1v1.24a4.56,4.56,0,0,1-1.19.17,1.91,1.91,0,0,1-1.56-.63,2.7,2.7,0,0,1-.53-1.78v-5.61H386v-1.19h1.64v-2.19Z"/><path d="M392.65,181.32a.92.92,0,0,1,.23-.63.83.83,0,0,1,.68-.26.87.87,0,0,1,.69.26,1,1,0,0,1,0,1.26.94.94,0,0,1-.69.25.9.9,0,0,1-.68-.25A.92.92,0,0,1,392.65,181.32Zm1.67,11.44h-1.55v-9h1.55Z"/><path d="M396.38,188.16a5.28,5.28,0,0,1,.53-2.39,3.81,3.81,0,0,1,1.45-1.64,3.91,3.91,0,0,1,2.13-.58,3.81,3.81,0,0,1,3,1.28,4.92,4.92,0,0,1,1.14,3.4v.11a5.35,5.35,0,0,1-.5,2.37,3.83,3.83,0,0,1-1.45,1.63,4,4,0,0,1-2.16.59,3.82,3.82,0,0,1-3-1.28,4.9,4.9,0,0,1-1.14-3.39Zm1.56.18a3.81,3.81,0,0,0,.7,2.41,2.35,2.35,0,0,0,3.74,0,4.23,4.23,0,0,0,.69-2.58,3.84,3.84,0,0,0-.71-2.41,2.34,2.34,0,0,0-3.72,0A4.2,4.2,0,0,0,397.94,188.34Z"/><path d="M408,183.72l.05,1.14a3.29,3.29,0,0,1,2.7-1.31c1.91,0,2.88,1.08,2.89,3.24v6h-1.54v-6a2.13,2.13,0,0,0-.45-1.45,1.79,1.79,0,0,0-1.36-.47,2.3,2.3,0,0,0-1.33.4,2.77,2.77,0,0,0-.88,1.06v6.44h-1.55v-9Z"/><path d="M421.58,192.76a3.4,3.4,0,0,1-.22-.95,3.48,3.48,0,0,1-2.57,1.12,3.17,3.17,0,0,1-2.2-.76,2.43,2.43,0,0,1-.85-1.92,2.54,2.54,0,0,1,1.07-2.19,5.07,5.07,0,0,1,3-.78h1.5v-.71a1.74,1.74,0,0,0-.48-1.29,2,2,0,0,0-1.43-.48,2.33,2.33,0,0,0-1.39.41,1.25,1.25,0,0,0-.56,1h-1.55a2.12,2.12,0,0,1,.48-1.31,3.29,3.29,0,0,1,1.3-1,4.34,4.34,0,0,1,1.81-.37,3.57,3.57,0,0,1,2.45.78,2.81,2.81,0,0,1,.92,2.15v4.17a5.11,5.11,0,0,0,.32,2v.13ZM419,191.58a2.7,2.7,0,0,0,1.38-.37,2.21,2.21,0,0,0,.94-1v-1.86h-1.21c-1.89,0-2.84.56-2.84,1.67a1.38,1.38,0,0,0,.49,1.13A1.82,1.82,0,0,0,419,191.58Z"/><path d="M427,192.76h-1.54V179.93H427Z"/><path d="M433.28,188.16a5.28,5.28,0,0,1,.53-2.39,3.81,3.81,0,0,1,1.45-1.64,3.91,3.91,0,0,1,2.13-.58,3.81,3.81,0,0,1,3,1.28,4.93,4.93,0,0,1,1.15,3.4v.11a5.35,5.35,0,0,1-.51,2.37,3.83,3.83,0,0,1-1.45,1.63,4,4,0,0,1-2.16.59,3.79,3.79,0,0,1-3-1.28,4.85,4.85,0,0,1-1.15-3.39Zm1.56.18a3.81,3.81,0,0,0,.7,2.41,2.35,2.35,0,0,0,3.74,0,4.23,4.23,0,0,0,.69-2.58,3.84,3.84,0,0,0-.71-2.41,2.34,2.34,0,0,0-3.72,0A4.2,4.2,0,0,0,434.84,188.34Z"/><path d="M447.82,185.11a4.42,4.42,0,0,0-.76-.06,2,2,0,0,0-2.06,1.29v6.42h-1.55v-9H445l0,1a2.43,2.43,0,0,1,2.16-1.21,1.5,1.5,0,0,1,.68.12Z"/><path d="M448.72,188.16a5.27,5.27,0,0,1,1-3.36,3.37,3.37,0,0,1,5.17-.08l.07-1h1.41v8.82a3.67,3.67,0,0,1-1,2.77,3.84,3.84,0,0,1-2.79,1,4.61,4.61,0,0,1-1.91-.42,3.3,3.3,0,0,1-1.43-1.14l.8-.93a3,3,0,0,0,2.43,1.23,2.35,2.35,0,0,0,1.76-.64,2.43,2.43,0,0,0,.63-1.79v-.77a3.18,3.18,0,0,1-2.53,1.07,3.09,3.09,0,0,1-2.57-1.28A5.55,5.55,0,0,1,448.72,188.16Zm1.55.18a4,4,0,0,0,.63,2.4,2,2,0,0,0,1.75.88,2.28,2.28,0,0,0,2.15-1.33v-4.13a2.29,2.29,0,0,0-2.13-1.3,2.06,2.06,0,0,0-1.76.88A4.37,4.37,0,0,0,450.27,188.34Z"/><path d="M464.27,192.76a3.4,3.4,0,0,1-.22-.95,3.48,3.48,0,0,1-2.57,1.12,3.18,3.18,0,0,1-2.2-.76,2.43,2.43,0,0,1-.85-1.92,2.54,2.54,0,0,1,1.07-2.19,5.07,5.07,0,0,1,3-.78H464v-.71a1.74,1.74,0,0,0-.48-1.29,2,2,0,0,0-1.43-.48,2.33,2.33,0,0,0-1.39.41,1.25,1.25,0,0,0-.56,1h-1.55a2.12,2.12,0,0,1,.48-1.31,3.29,3.29,0,0,1,1.3-1,4.34,4.34,0,0,1,1.81-.37,3.57,3.57,0,0,1,2.45.78,2.81,2.81,0,0,1,.92,2.15v4.17a5.11,5.11,0,0,0,.32,2v.13Zm-2.57-1.18a2.7,2.7,0,0,0,1.38-.37,2.21,2.21,0,0,0,.94-1v-1.86h-1.21c-1.89,0-2.84.56-2.84,1.67a1.38,1.38,0,0,0,.49,1.13A1.82,1.82,0,0,0,461.7,191.58Z"/><path d="M469.46,183.72l.05,1.14a3.29,3.29,0,0,1,2.7-1.31c1.91,0,2.88,1.08,2.89,3.24v6h-1.54v-6a2.13,2.13,0,0,0-.45-1.45,1.79,1.79,0,0,0-1.36-.47,2.27,2.27,0,0,0-1.32.4,2.71,2.71,0,0,0-.89,1.06v6.44H468v-9Z"/><path d="M477.44,181.32a.88.88,0,0,1,.24-.63,1,1,0,0,1,1.36,0,1,1,0,0,1,0,1.26,1,1,0,0,1-1.36,0A.88.88,0,0,1,477.44,181.32Zm1.68,11.44h-1.55v-9h1.55Z"/><path d="M483,191.5h5.29v1.26h-7.18v-1.14l5-6.62h-4.91v-1.28h6.85v1.09Z"/><path d="M493.69,192.93a4,4,0,0,1-3-1.21,4.49,4.49,0,0,1-1.16-3.23v-.28a5.5,5.5,0,0,1,.52-2.41,4,4,0,0,1,1.44-1.65,3.58,3.58,0,0,1,2-.6,3.4,3.4,0,0,1,2.74,1.16,5.07,5.07,0,0,1,1,3.33v.64h-6.13a3.2,3.2,0,0,0,.78,2.16,2.46,2.46,0,0,0,1.9.83,2.72,2.72,0,0,0,1.39-.34,3.45,3.45,0,0,0,1-.88l1,.73A3.8,3.8,0,0,1,493.69,192.93Zm-.19-8.11a2.06,2.06,0,0,0-1.57.68,3.28,3.28,0,0,0-.79,1.91h4.53v-.11a3,3,0,0,0-.64-1.83A1.94,1.94,0,0,0,493.5,184.82Z"/><path d="M498.63,188.16a5.33,5.33,0,0,1,1-3.34,3.35,3.35,0,0,1,5.1-.18v-4.71h1.55v12.83h-1.42l-.08-1a3.15,3.15,0,0,1-2.58,1.14,3.08,3.08,0,0,1-2.56-1.29,5.37,5.37,0,0,1-1-3.36Zm1.54.18a4.06,4.06,0,0,0,.64,2.41,2,2,0,0,0,1.75.87,2.26,2.26,0,0,0,2.15-1.32v-4.16a2.27,2.27,0,0,0-2.13-1.28,2.07,2.07,0,0,0-1.77.88A4.45,4.45,0,0,0,500.17,188.34Z"/><path d="M376.7,212.2a2.28,2.28,0,0,0,1.45-.5,1.74,1.74,0,0,0,.68-1.25h1.47a2.85,2.85,0,0,1-.54,1.48,3.51,3.51,0,0,1-1.32,1.11,3.75,3.75,0,0,1-1.74.42,3.7,3.7,0,0,1-2.93-1.23,4.9,4.9,0,0,1-1.1-3.37v-.26a5.51,5.51,0,0,1,.49-2.35,3.66,3.66,0,0,1,1.39-1.59,3.93,3.93,0,0,1,2.14-.57,3.61,3.61,0,0,1,2.53.91,3.28,3.28,0,0,1,1.08,2.36h-1.47a2.08,2.08,0,0,0-2.14-2,2.15,2.15,0,0,0-1.82.85,4,4,0,0,0-.65,2.45V209a3.93,3.93,0,0,0,.64,2.41A2.19,2.19,0,0,0,376.7,212.2Z"/><path d="M386.4,205.64a4.42,4.42,0,0,0-.76-.06,2,2,0,0,0-2.06,1.3v6.42H382v-9.05h1.51l0,1.05a2.41,2.41,0,0,1,2.16-1.21,1.68,1.68,0,0,1,.68.11Z"/><path d="M387.83,201.86a1,1,0,0,1,.23-.64.88.88,0,0,1,.68-.26.9.9,0,0,1,.69.26,1,1,0,0,1,.23.64.88.88,0,0,1-.23.62.9.9,0,0,1-.69.25.83.83,0,0,1-.91-.87Zm1.67,11.44H388v-9.05h1.54Z"/><path d="M393.43,204.25l0,1a3.35,3.35,0,0,1,2.68-1.17,2.59,2.59,0,0,1,2.59,1.45,3.49,3.49,0,0,1,1.17-1,3.43,3.43,0,0,1,1.71-.4q3,0,3,3.15v6.06H403.1v-6a2.09,2.09,0,0,0-.44-1.45,2,2,0,0,0-1.49-.48,2.05,2.05,0,0,0-1.43.51,2.11,2.11,0,0,0-.66,1.39v6h-1.56v-5.93a1.72,1.72,0,0,0-1.92-2,2.08,2.08,0,0,0-2.09,1.29v6.61H392v-9.05Z"/><path d="M410.73,213.46a4,4,0,0,1-3-1.2,4.5,4.5,0,0,1-1.16-3.23v-.29a5.29,5.29,0,0,1,.52-2.4,4,4,0,0,1,1.43-1.66,3.71,3.71,0,0,1,2-.59,3.38,3.38,0,0,1,2.74,1.16,5,5,0,0,1,1,3.32v.65h-6.12a3.2,3.2,0,0,0,.78,2.16,2.45,2.45,0,0,0,1.9.82,2.72,2.72,0,0,0,1.39-.33,3.49,3.49,0,0,0,1-.89l.95.74A3.81,3.81,0,0,1,410.73,213.46Zm-.19-8.1A2.06,2.06,0,0,0,409,206a3.31,3.31,0,0,0-.78,1.91h4.53v-.12a3,3,0,0,0-.64-1.82A1.91,1.91,0,0,0,410.54,205.36Z"/><path d="M423.9,212.2a2.24,2.24,0,0,0,1.45-.5,1.74,1.74,0,0,0,.68-1.25h1.47a2.85,2.85,0,0,1-.54,1.48,3.55,3.55,0,0,1-1.31,1.11,3.79,3.79,0,0,1-1.75.42,3.7,3.7,0,0,1-2.93-1.23,4.9,4.9,0,0,1-1.09-3.37v-.26a5.51,5.51,0,0,1,.48-2.35,3.66,3.66,0,0,1,1.39-1.59,4,4,0,0,1,2.15-.57,3.6,3.6,0,0,1,2.52.91,3.24,3.24,0,0,1,1.08,2.36H426a2.11,2.11,0,0,0-.66-1.44,2.09,2.09,0,0,0-1.47-.56,2.15,2.15,0,0,0-1.83.85,4,4,0,0,0-.65,2.45V209a3.93,3.93,0,0,0,.65,2.41A2.16,2.16,0,0,0,423.9,212.2Z"/><path d="M434.82,213.3a3.4,3.4,0,0,1-.22-1,3.44,3.44,0,0,1-2.57,1.12,3.23,3.23,0,0,1-2.2-.75,2.46,2.46,0,0,1-.85-1.92,2.54,2.54,0,0,1,1.07-2.19,5,5,0,0,1,3-.79h1.5v-.71a1.74,1.74,0,0,0-.48-1.29,2,2,0,0,0-1.43-.48,2.27,2.27,0,0,0-1.39.42,1.25,1.25,0,0,0-.56,1h-1.55a2.14,2.14,0,0,1,.48-1.31,3.27,3.27,0,0,1,1.3-1,4.34,4.34,0,0,1,1.81-.37,3.57,3.57,0,0,1,2.45.78,2.81,2.81,0,0,1,.92,2.15v4.16a5.11,5.11,0,0,0,.32,2v.14Zm-2.57-1.18a2.71,2.71,0,0,0,1.38-.38,2.21,2.21,0,0,0,.94-1v-1.85h-1.21c-1.89,0-2.84.55-2.84,1.66a1.39,1.39,0,0,0,.49,1.14A1.87,1.87,0,0,0,432.25,212.12Z"/><path d="M443.81,210.9a1.17,1.17,0,0,0-.47-1,4.54,4.54,0,0,0-1.65-.59,7.63,7.63,0,0,1-1.86-.61,2.63,2.63,0,0,1-1-.83,2,2,0,0,1-.33-1.15,2.33,2.33,0,0,1,.94-1.88,3.62,3.62,0,0,1,2.4-.77,3.74,3.74,0,0,1,2.49.79,2.52,2.52,0,0,1,1,2h-1.55a1.38,1.38,0,0,0-.54-1.09,2,2,0,0,0-1.36-.46,2.09,2.09,0,0,0-1.32.37,1.14,1.14,0,0,0-.48,1,.93.93,0,0,0,.45.84,5.22,5.22,0,0,0,1.6.54,8.67,8.67,0,0,1,1.87.62,2.72,2.72,0,0,1,1.07.87,2.1,2.1,0,0,1,.34,1.23,2.32,2.32,0,0,1-1,1.94,4.07,4.07,0,0,1-2.52.73,4.67,4.67,0,0,1-1.92-.38,3.19,3.19,0,0,1-1.31-1.08,2.58,2.58,0,0,1-.47-1.49h1.54a1.63,1.63,0,0,0,.63,1.24,2.4,2.4,0,0,0,1.53.45,2.58,2.58,0,0,0,1.41-.35A1.11,1.11,0,0,0,443.81,210.9Z"/><path d="M451.12,213.46a4,4,0,0,1-3-1.2A4.5,4.5,0,0,1,447,209v-.29a5.43,5.43,0,0,1,.52-2.4,4,4,0,0,1,1.44-1.66,3.65,3.65,0,0,1,2-.59,3.37,3.37,0,0,1,2.74,1.16,5,5,0,0,1,1,3.32v.65h-6.13a3.2,3.2,0,0,0,.78,2.16,2.45,2.45,0,0,0,1.9.82,2.72,2.72,0,0,0,1.39-.33,3.49,3.49,0,0,0,1-.89l.95.74A3.81,3.81,0,0,1,451.12,213.46Zm-.19-8.1a2,2,0,0,0-1.57.68,3.26,3.26,0,0,0-.79,1.91h4.53v-.12a2.9,2.9,0,0,0-.64-1.82A1.9,1.9,0,0,0,450.93,205.36Z"/><path d="M461.7,210.9a1.17,1.17,0,0,0-.47-1,4.54,4.54,0,0,0-1.65-.59,7.63,7.63,0,0,1-1.86-.61,2.63,2.63,0,0,1-1-.83,2,2,0,0,1-.33-1.15,2.33,2.33,0,0,1,.94-1.88,3.6,3.6,0,0,1,2.4-.77,3.75,3.75,0,0,1,2.49.79,2.52,2.52,0,0,1,1,2h-1.55a1.38,1.38,0,0,0-.54-1.09,2,2,0,0,0-1.36-.46,2.09,2.09,0,0,0-1.32.37,1.14,1.14,0,0,0-.48,1,.93.93,0,0,0,.45.84,5.22,5.22,0,0,0,1.6.54,8.67,8.67,0,0,1,1.87.62,2.72,2.72,0,0,1,1.07.87,2.1,2.1,0,0,1,.34,1.23,2.3,2.3,0,0,1-1,1.94,4,4,0,0,1-2.51.73,4.63,4.63,0,0,1-1.92-.38,3.19,3.19,0,0,1-1.31-1.08,2.58,2.58,0,0,1-.47-1.49h1.54a1.63,1.63,0,0,0,.63,1.24,2.4,2.4,0,0,0,1.53.45,2.58,2.58,0,0,0,1.41-.35A1.11,1.11,0,0,0,461.7,210.9Z"/><rect class="cls-2" x="42.6" y="43.44" width="163.11" height="163.11" transform="translate(125.12 -51.17) rotate(45.12)"/><path class="cls-3" d="M147.52,143.19a4.17,4.17,0,1,0,4.15-3.95A4.1,4.1,0,0,0,147.52,143.19Zm2.27,0a1.9,1.9,0,0,1,3.79,0,1.9,1.9,0,0,1-3.79,0Z"/><path class="cls-3" d="M67.49,153.06c0,.68.54,1.1,1.47,1.1h110.4c.9,0,1.43-.41,1.45-1.06s-.53-1.11-1.47-1.11c-1.57,0-3.14,0-4.7,0-.55,0-.67-.14-.65-.64.2-6.1.37-12.2.55-18.3a12.67,12.67,0,0,0-.34-4.59,8.32,8.32,0,0,0-5-5.14c-1.82-.76-3.64-1.55-5.47-2.3a5.58,5.58,0,0,1-1.51-1.07c1.82-.61,3.59-1.14,5.29-1.84.93-.38,1.86-.76,2.77-1.17a1,1,0,0,0,.64-1.49c-1.93-4.86-2.25-10-2.3-15.07a39.73,39.73,0,0,0-.25-6.72,15.92,15.92,0,0,0-7.72-11.16,17.08,17.08,0,0,0-6.78-2.34c-.14,0-.31,0-.39-.14H150c-.9.19-1.81.36-2.7.57A16.44,16.44,0,0,0,135,93.68c-.44,2.93-.17,5.88-.27,8.82a41.21,41.21,0,0,1-1.81,11.76c-.12.34-.26.68-.39,1-.35.92-.16,1.38.78,1.8a64,64,0,0,0,7.53,2.78l.27.1a2.83,2.83,0,0,1-1.22.92l-5.66,2.41c-3.88,1.64-5.67,4.39-5.54,8.45.2,6.51.37,13,.59,19.53,0,.6-.11.77-.76.75-1.44,0-2.88,0-4.32,0s-3.06,0-4.59,0c-.55,0-.66-.14-.65-.64.2-6.1.37-12.2.55-18.3a12.74,12.74,0,0,0-.34-4.6,8.33,8.33,0,0,0-5-5.13c-1.82-.77-3.64-1.55-5.46-2.3a4.4,4.4,0,0,1-1-.58s-2.12-2.11-2.8-2.11a2.37,2.37,0,0,0-1.67.38l-.47-2.69a13.74,13.74,0,0,0,2.3-1.22,18.79,18.79,0,0,0,9.1-15.47c.34-7.17-4.17-12.89-11.41-14.9a22.26,22.26,0,0,0-6-.7c-6.15.27-11.59,2.79-14.62,9a14.28,14.28,0,0,0-.73,10.36,19.68,19.68,0,0,0,8.06,11.47c.36.24.72.46,1.08.67L90,118.79a3.36,3.36,0,0,0-1.38-.64c-1-.07-3.14,2.31-3.14,2.31a3.19,3.19,0,0,1-.72.41l-5.66,2.41c-3.88,1.64-5.67,4.39-5.54,8.45.2,6.51.38,13,.59,19.53,0,.6-.11.77-.76.75-1.49,0-3,0-4.48,0C68,152,67.51,152.4,67.49,153.06Zm98.9-54.63c0,.39-.17.35-.46.29a3.56,3.56,0,0,0-2.94.56c-.25.19-.43.2-.64,0s-.64-.68-.93-1c-.65-.8-1.23-1-1.84-.59s-.62,1.06,0,1.91a8.54,8.54,0,0,0,1.83,1.82,1.74,1.74,0,0,0,2.66-.11,1.42,1.42,0,0,1,1.15-.44c.74.1,1.14.71,1.15,1.71,0,1.15-.35,1.75-1.13,1.87-.17,0-.35,0-.53,0a2.39,2.39,0,0,0-2.14,1.68c-.1.32-.18.65-.26,1a11,11,0,0,1-10.68,7.79c-5.26-.12-9.66-3.51-10.68-8.23-.63-2.92.23-4.47,3.12-5.59,1.82-.7,3.72-1.2,5.6-1.74a27.7,27.7,0,0,0,11-5.52c.68-.61.82-1.25.34-1.76a1.19,1.19,0,0,0-1.8.09,24.45,24.45,0,0,1-9.51,4.9,70.45,70.45,0,0,0-6.88,2.17c-3,1.27-4.49,3.28-4.35,6.06a11.36,11.36,0,0,0,4.54,8.65,3.06,3.06,0,0,1,1.42,3.08,1.48,1.48,0,0,1-1.64,1.18,63.2,63.2,0,0,1-7.47-2.55c-.36-.15-.44-.31-.32-.65.2-.59.4-1.19.56-1.79A50.36,50.36,0,0,0,137,99.59c0-1,0-2.08,0-3.11a13.89,13.89,0,0,1,4-9.86c6.39-6.62,18-5.57,23,2A16,16,0,0,1,166.39,98.43ZM152,126.33c-.31.48-.43.24-.64-.06a37.07,37.07,0,0,0-2.75-3.71,6.65,6.65,0,0,1-1.9-5.67c.08-.57.07-.79.78-.55a13.65,13.65,0,0,0,7.31.33c.61-.12,1.41-.7,1.73-.36s.07,1.18.07,1.81.32,1.54-.2,2.24C154.91,122.34,153.35,124.27,152,126.33Zm4-1.7c.67-.86,1.31-1.76,2-2.62.42-.53.73-1.47,1.28-1.48s1.09.77,1.63,1.2l.06,0c.27.16.26.35.12.61-.58,1.08-1.15,2.18-1.73,3.27a1.28,1.28,0,0,1-1.21.74c-.86-.07-1.37-.74-2-1.13C155.73,125.07,155.75,124.9,156,124.63Zm-8.39.42a7.15,7.15,0,0,1-2.18,1.33,1.37,1.37,0,0,1-1.35-.77c-.32-.59-.64-1.19-.95-1.79-1-1.86-1-1.86.72-3.15l.06,0c.23-.26.38-.18.57.07,1,1.34,2,2.66,3,4C147.51,124.78,147.65,124.87,147.57,125.05Zm13.23-7a1.39,1.39,0,0,1-1.88-1.32v-.61c-.19-.75.18-1.33,1-1.91a11.61,11.61,0,0,0,4.55-6.56c.2-.72.4-1.1,1.33-1.25s.86.16.91.71a33.9,33.9,0,0,0,1.59,7.7c.16.46,0,.62-.39.79A70.15,70.15,0,0,1,160.8,118.09Zm8.68,8.57q-1.71,2-3.36,4a1.16,1.16,0,0,1-1,.46c-4.51,0-9,0-13.51,0s-8.95,0-13.42,0a1.22,1.22,0,0,1-1.08-.48c-1.09-1.34-2.18-2.67-3.32-4-.45-.5-.29-.71.22-.93l4.61-2c1.56-.66,1.55-.65,2.33.79a14.51,14.51,0,0,0,1.58,2.79,3.79,3.79,0,0,0,5.4.2c1-.79,1-.74,1.75.23a2.41,2.41,0,0,0,3.87.2c.32-.36.48-1.07.9-1.06s.87.52,1.29.82a3.68,3.68,0,0,0,5.7-1.28c.52-1,1-1.93,1.52-2.89.11-.2.14-.46.54-.28,1.94.86,3.89,1.69,5.84,2.53C169.83,126,169.82,126.27,169.48,126.66Zm-1.16,4.85,3.09-3.68a6,6,0,0,1,.91,3.54c-.11,3.45-.2,6.9-.31,10.35-.09,3.25-.2,6.51-.28,9.76,0,.41-.12.54-.55.52-.86,0-1.71,0-2.57,0,.07-.58.17-1.08.2-1.58l.9-15.39a3.49,3.49,0,0,0-1.22-3.06C168.36,131.85,168.1,131.77,168.32,131.51Zm-30.56,1.78h27.93c1.35,0,1.82.49,1.74,1.76q-.45,7.56-.88,15.1c-.09,1.51-.45,1.84-2,1.84H140.22c-.65,0-1.31,0-2,0a1.26,1.26,0,0,1-1.35-1.12,9.83,9.83,0,0,1-.09-1.08c-.29-4.86-.56-9.73-.86-14.59C135.86,133.75,136.27,133.29,137.76,133.29Zm-6.84-2.06a5.47,5.47,0,0,1,.92-3.39c1,1.21,2,2.38,3,3.53.24.28.24.43-.06.7a3.39,3.39,0,0,0-1.1,2.88c.25,4.33.48,8.67.77,13a18.86,18.86,0,0,0,.39,4c-.91,0-1.77,0-2.63,0-.59,0-.69-.17-.7-.68-.05-2.92-.15-5.84-.24-8.75C131.14,138.79,131,135,130.92,131.23Zm-38.56-6.55c.08.1.22.19.14.37a7.15,7.15,0,0,1-2.18,1.33,1.37,1.37,0,0,1-1.35-.77c-.32-.59-.64-1.19-1-1.79-1-1.86-1-1.86.72-3.15l.06,0a.49.49,0,0,1,.18-.14h.14a.62.62,0,0,1,.25.22C90.36,122,91.36,123.35,92.36,124.68Zm-.12-4h0L93,116.3a13.43,13.43,0,0,0,7.34.51l.67,3.87a1.74,1.74,0,0,0-.41.6c-1.27,1.66-2.55,3.31-3.71,5-.31.48-.43.24-.64,0a37.52,37.52,0,0,0-2.74-3.72A7.84,7.84,0,0,1,92.24,120.72Zm-.3-8a16.62,16.62,0,0,1-8.1-13.27c-.12-1.18,0-1.2,1.17-1.08a11.24,11.24,0,0,0,8.25-2.17c.48-.37.68-.16,1,.13a16.12,16.12,0,0,0,8.45,4.15,20.17,20.17,0,0,0,8.55-.67,17.17,17.17,0,0,1-7.86,12.84A10.51,10.51,0,0,1,91.94,112.67Zm14,9.71c-.58,1.08-1.14,2.18-1.73,3.27a1.26,1.26,0,0,1-1.2.74c-.87-.07-1.38-.74-2.06-1.13-.32-.19-.3-.36-.09-.63.68-.86,1.31-1.76,2-2.62a10.49,10.49,0,0,1,.9-1.32l.38-.16c.53,0,1.08.77,1.62,1.2l.06,0C106.12,121.93,106.12,122.12,106,122.38Zm8.44,4.28q-1.71,2-3.36,4a1.16,1.16,0,0,1-1,.46c-4.5,0-9,0-13.5,0s-9,0-13.43,0a1.22,1.22,0,0,1-1.08-.48c-1.08-1.34-2.18-2.67-3.32-4-.45-.5-.29-.71.22-.93l4.61-2c1.56-.66,1.55-.65,2.33.79a15.06,15.06,0,0,0,1.58,2.79,3.79,3.79,0,0,0,5.4.2c1-.79,1-.74,1.75.23a2.42,2.42,0,0,0,3.87.21c.32-.37.48-1.08.91-1.07s.86.52,1.28.82a3.68,3.68,0,0,0,5.7-1.28c.52-1,1-1.93,1.53-2.9.1-.19.13-.45.53-.28,1.94.87,3.9,1.7,5.85,2.54C114.76,126,114.76,126.27,114.41,126.66Zm-1.16,4.85,3.09-3.68a5.92,5.92,0,0,1,.91,3.54c-.11,3.45-.2,6.9-.3,10.35-.1,3.25-.21,6.51-.29,9.76,0,.41-.12.54-.55.52-.85,0-1.71,0-2.57,0,.08-.58.17-1.08.2-1.59.31-5.12.6-10.25.9-15.38a3.49,3.49,0,0,0-1.22-3.06C113.29,131.85,113,131.77,113.25,131.51Zm-30.56,1.78h27.93c1.35,0,1.82.49,1.74,1.76q-.45,7.56-.88,15.1c-.09,1.51-.45,1.84-2,1.84H85.16c-.66,0-1.32,0-2,0a1.26,1.26,0,0,1-1.35-1.12,9.63,9.63,0,0,1-.09-1.08q-.42-7.29-.86-14.59C80.79,133.75,81.2,133.29,82.69,133.29Zm-6.84-2.06a5.48,5.48,0,0,1,.92-3.39c1,1.21,2,2.38,3,3.53.24.28.24.43-.06.7a3.39,3.39,0,0,0-1.1,2.88c.25,4.33.48,8.67.77,13a18.86,18.86,0,0,0,.39,4c-.91,0-1.77,0-2.62,0-.6,0-.7-.17-.71-.68,0-2.92-.15-5.84-.24-8.75C76.07,138.8,76,135,75.85,131.23Z"/><path class="cls-3" d="M92.45,143.19a4.17,4.17,0,1,0,4.15-3.95A4.11,4.11,0,0,0,92.45,143.19Zm2.27,0a1.9,1.9,0,0,1,3.79,0,1.9,1.9,0,0,1-3.79,0Z"/><g class="cls-4"><path class="cls-3" d="M123.94,228.6,20.55,124.78,124.37,21.4,227.76,125.22ZM23.75,124.79,123.94,225.4,224.56,125.21,124.36,24.6ZM124,215.45l-34.5-34.66L116,154.41,90.37,128.72,72.14,146.87l12,12,5-5-7-7.05,8.25-8.22L106,154.38,84.49,175.8,54.32,145.51,75,124.9,54.41,104.2,84.7,74l21.42,21.51L90.41,111.18l-8.22-8.25,7.06-7-5-5-12,12,18.15,18.23,25.69-25.58L89.69,69.06l34.65-34.51,34.51,34.66-26.5,26.38,25.58,25.69,18.23-18.15-12-12-5,5,7,7L158,111.33,142.31,95.61,163.82,74.2,194,104.49l-20.7,20.61,20.62,20.7L163.6,176l-21.42-21.51,15.71-15.64,8.22,8.25-7.05,7,5,5,12-12-18.15-18.23-25.69,25.58,26.38,26.5ZM92.66,180.8,124,212.24l31.44-31.31L129,154.43l28.9-28.77,21.35,21.43L164,162.28l-8.16-8.2,7-7-5-5-12.5,12.45,18.22,18.3,27.09-27-20.62-20.7,20.7-20.62-27-27.08-18.3,18.22L158,108.12l5-5-7-7,8.19-8.16,15.19,15.25-21.44,21.35-28.77-28.9L155.64,69.2,124.33,37.76,92.89,69.07l26.39,26.5-28.9,28.77L69,102.91,84.28,87.72l8.17,8.2-7.06,7,5,5,12.5-12.45L84.69,77.23l-27.08,27,20.61,20.7-20.7,20.62,27,27.08,18.3-18.22-12.45-12.5-5,5,7,7-8.2,8.16L68.94,146.86l21.44-21.35,28.78,28.9Zm106.23-40-15.65-15.71L199,109.48l15.65,15.71Zm-12.45-15.7,12.45,12.5,12.51-12.45-12.46-12.5ZM49.35,140.52,33.71,124.81l15.71-15.64,15.64,15.71Zm-12.44-15.7,12.45,12.5,12.5-12.45-12.45-12.5Z"/><path class="cls-3" d="M124,204.76,99.78,180.45l24.31-24.2,24.21,24.3Zm-21-24.3,21,21.1,21.1-21-21-21.1Z"/><path class="cls-3" d="M124.22,93.08,100,68.77l24.31-24.21,24.21,24.31Zm-21-24.3,21,21.1,21.11-21-21-21.1Z"/></g></svg>