<svg id="Layer_1" data-name="Layer 1" xmlns="http://www.w3.org/2000/svg" viewBox="0 0 654 250"><defs><style>.cls-1{fill:#49773d;}.cls-2{opacity:0.15;}.cls-3{fill:#fff;}.cls-4{fill:none;stroke:#49773d;stroke-miterlimit:10;stroke-width:2.6px;}</style></defs><path d="M299.65,152.7l1.72-6.85h1.53l-2.61,9h-1.24L296.87,148l-2.12,6.79h-1.24l-2.6-9h1.53l1.76,6.71,2.09-6.71h1.23Z"/><path d="M308.17,155a3.93,3.93,0,0,1-3-1.19,4.46,4.46,0,0,1-1.14-3.2v-.28a5.51,5.51,0,0,1,.5-2.38,4,4,0,0,1,1.43-1.64,3.53,3.53,0,0,1,2-.59,3.37,3.37,0,0,1,2.72,1.15,5,5,0,0,1,1,3.29v.64H305.6a3.21,3.21,0,0,0,.77,2.14,2.43,2.43,0,0,0,1.88.81,2.71,2.71,0,0,0,1.38-.33,3.51,3.51,0,0,0,1-.87l.94.72A3.75,3.75,0,0,1,308.17,155Zm-.19-8a2,2,0,0,0-1.55.68,3.28,3.28,0,0,0-.78,1.89h4.48v-.12a2.84,2.84,0,0,0-.63-1.8A1.91,1.91,0,0,0,308,146.94Z"/><path d="M317.76,147.23a4.38,4.38,0,0,0-.75-.06,2,2,0,0,0-2,1.28v6.36h-1.54v-9h1.49l0,1a2.38,2.38,0,0,1,2.13-1.2,1.68,1.68,0,0,1,.68.11Z"/><path d="M322.73,155a3.93,3.93,0,0,1-3-1.19,4.47,4.47,0,0,1-1.15-3.2v-.28a5.37,5.37,0,0,1,.51-2.38,4,4,0,0,1,1.43-1.64,3.53,3.53,0,0,1,2-.59,3.33,3.33,0,0,1,2.71,1.15,4.93,4.93,0,0,1,1,3.29v.64h-6.06a3.21,3.21,0,0,0,.77,2.14,2.43,2.43,0,0,0,1.88.81,2.71,2.71,0,0,0,1.38-.33,3.51,3.51,0,0,0,1-.87l.94.72A3.75,3.75,0,0,1,322.73,155Zm-.19-8a2.05,2.05,0,0,0-1.56.68,3.27,3.27,0,0,0-.77,1.89h4.48v-.12a2.84,2.84,0,0,0-.63-1.8A1.91,1.91,0,0,0,322.54,146.94Z"/><path d="M335.91,155a3.94,3.94,0,0,1-3-1.19,4.46,4.46,0,0,1-1.14-3.2v-.28a5.37,5.37,0,0,1,.51-2.38,3.93,3.93,0,0,1,1.42-1.64,3.54,3.54,0,0,1,2-.59,3.35,3.35,0,0,1,2.71,1.15,4.93,4.93,0,0,1,1,3.29v.64h-6.07a3.17,3.17,0,0,0,.78,2.14,2.43,2.43,0,0,0,1.88.81,2.65,2.65,0,0,0,1.37-.33,3.41,3.41,0,0,0,1-.87l.93.72A3.74,3.74,0,0,1,335.91,155Zm-.19-8a2.05,2.05,0,0,0-1.56.68,3.28,3.28,0,0,0-.78,1.89h4.49v-.12a3,3,0,0,0-.63-1.8A1.94,1.94,0,0,0,335.72,146.94Z"/><path d="M346.38,152.43a1.12,1.12,0,0,0-.46-1,4.48,4.48,0,0,0-1.63-.59,8,8,0,0,1-1.85-.6,2.6,2.6,0,0,1-1-.83,2,2,0,0,1-.33-1.14,2.33,2.33,0,0,1,.93-1.86,3.65,3.65,0,0,1,2.38-.76,3.8,3.8,0,0,1,2.48.78,2.51,2.51,0,0,1,.94,2h-1.54a1.37,1.37,0,0,0-.53-1.08,2,2,0,0,0-1.35-.46,2.09,2.09,0,0,0-1.3.37,1.13,1.13,0,0,0-.47.95.94.94,0,0,0,.43.84,5.72,5.72,0,0,0,1.59.53,8.76,8.76,0,0,1,1.86.62,2.69,2.69,0,0,1,1.05.85,2.11,2.11,0,0,1,.35,1.22,2.3,2.3,0,0,1-1,1.93,4.09,4.09,0,0,1-2.5.72,4.42,4.42,0,0,1-1.9-.38,3.08,3.08,0,0,1-1.29-1.06,2.52,2.52,0,0,1-.47-1.48h1.53a1.58,1.58,0,0,0,.62,1.22,2.38,2.38,0,0,0,1.51.45,2.44,2.44,0,0,0,1.4-.35A1.07,1.07,0,0,0,346.38,152.43Z"/><path d="M352,143.68v2.17h1.67V147H352v5.56a1.21,1.21,0,0,0,.22.8.94.94,0,0,0,.76.27,3.44,3.44,0,0,0,.73-.1v1.24a4.39,4.39,0,0,1-1.17.16,1.89,1.89,0,0,1-1.55-.62,2.64,2.64,0,0,1-.52-1.76V147h-1.63v-1.19h1.63v-2.17Z"/><path d="M361,154.81a3.31,3.31,0,0,1-.22-.95,3.41,3.41,0,0,1-2.55,1.11,3.15,3.15,0,0,1-2.17-.75,2.41,2.41,0,0,1-.85-1.9,2.55,2.55,0,0,1,1.06-2.17,5.08,5.08,0,0,1,3-.77h1.49v-.71a1.7,1.7,0,0,0-.48-1.27,1.94,1.94,0,0,0-1.42-.48,2.25,2.25,0,0,0-1.37.41,1.23,1.23,0,0,0-.56,1h-1.54a2.12,2.12,0,0,1,.48-1.3,3.23,3.23,0,0,1,1.29-1,4.37,4.37,0,0,1,1.79-.36,3.54,3.54,0,0,1,2.43.77,2.81,2.81,0,0,1,.91,2.13v4.12a5.08,5.08,0,0,0,.31,2v.13Zm-2.55-1.17a2.66,2.66,0,0,0,1.37-.37,2.3,2.3,0,0,0,.94-1v-1.84h-1.2q-2.82,0-2.82,1.65a1.42,1.42,0,0,0,.48,1.13A1.84,1.84,0,0,0,358.43,153.64Z"/><path d="M372.25,150.43a5.38,5.38,0,0,1-.94,3.3,3,3,0,0,1-2.54,1.24,3.12,3.12,0,0,1-2.62-1.2l-.08,1h-1.4V142.09h1.53v4.75a3.1,3.1,0,0,1,2.56-1.15,3,3,0,0,1,2.56,1.23,5.49,5.49,0,0,1,.93,3.38Zm-1.53-.17a4.08,4.08,0,0,0-.61-2.42,2,2,0,0,0-1.73-.85,2.26,2.26,0,0,0-2.18,1.4v3.88a2.32,2.32,0,0,0,2.19,1.4,2,2,0,0,0,1.72-.85A4.45,4.45,0,0,0,370.72,150.26Z"/><path d="M375.84,154.81h-1.53V142.09h1.53Z"/><path d="M378.3,143.48a.92.92,0,0,1,.23-.63.84.84,0,0,1,.67-.26.87.87,0,0,1,.68.26.92.92,0,0,1,.23.63.83.83,0,0,1-.91.87.87.87,0,0,1-.67-.25A.9.9,0,0,1,378.3,143.48ZM380,154.81h-1.53v-9H380Z"/><path d="M387.62,152.43a1.13,1.13,0,0,0-.47-1,4.34,4.34,0,0,0-1.63-.59,7.92,7.92,0,0,1-1.84-.6,2.52,2.52,0,0,1-1-.83,2,2,0,0,1-.33-1.14,2.33,2.33,0,0,1,.93-1.86,3.61,3.61,0,0,1,2.38-.76,3.77,3.77,0,0,1,2.47.78,2.52,2.52,0,0,1,.95,2h-1.54a1.38,1.38,0,0,0-.54-1.08,2,2,0,0,0-1.34-.46,2.12,2.12,0,0,0-1.31.37,1.15,1.15,0,0,0-.47.95.94.94,0,0,0,.44.84,5.63,5.63,0,0,0,1.58.53,8.38,8.38,0,0,1,1.86.62,2.66,2.66,0,0,1,1.06.85,2.11,2.11,0,0,1,.34,1.22,2.3,2.3,0,0,1-1,1.93,4,4,0,0,1-2.49.72,4.46,4.46,0,0,1-1.91-.38,3.08,3.08,0,0,1-1.29-1.06,2.6,2.6,0,0,1-.47-1.48h1.53a1.61,1.61,0,0,0,.62,1.22,2.86,2.86,0,0,0,2.91.1A1.08,1.08,0,0,0,387.62,152.43Z"/><path d="M392.68,146.94a3.22,3.22,0,0,1,2.64-1.25c1.9,0,2.85,1.06,2.87,3.2v5.92h-1.53v-5.93a2.09,2.09,0,0,0-.45-1.43,1.77,1.77,0,0,0-1.35-.46,2.25,2.25,0,0,0-1.31.39,2.79,2.79,0,0,0-.87,1.05v6.38h-1.54V142.09h1.54Z"/><path d="M404.2,155a4,4,0,0,1-3-1.19,4.46,4.46,0,0,1-1.14-3.2v-.28a5.37,5.37,0,0,1,.51-2.38,3.93,3.93,0,0,1,1.42-1.64,3.54,3.54,0,0,1,2-.59,3.33,3.33,0,0,1,2.71,1.15,4.93,4.93,0,0,1,1,3.29v.64h-6.07a3.17,3.17,0,0,0,.78,2.14,2.43,2.43,0,0,0,1.88.81,2.65,2.65,0,0,0,1.37-.33,3.41,3.41,0,0,0,1-.87l.93.72A3.74,3.74,0,0,1,404.2,155Zm-.19-8a2.05,2.05,0,0,0-1.56.68,3.28,3.28,0,0,0-.78,1.89h4.49v-.12a3,3,0,0,0-.63-1.8A1.92,1.92,0,0,0,404,146.94Z"/><path d="M409.09,150.26a5.26,5.26,0,0,1,1-3.32,3.33,3.33,0,0,1,5.05-.18v-4.67h1.53v12.72h-1.4l-.08-1a3.1,3.1,0,0,1-2.55,1.12,3.05,3.05,0,0,1-2.54-1.27,5.34,5.34,0,0,1-1-3.33Zm1.53.17a4,4,0,0,0,.63,2.38,2,2,0,0,0,1.74.86,2.21,2.21,0,0,0,2.12-1.3v-4.12A2.24,2.24,0,0,0,413,147a2,2,0,0,0-1.75.87A4.33,4.33,0,0,0,410.62,150.43Z"/><path d="M431.15,152.7l1.72-6.85h1.53l-2.61,9h-1.24L428.37,148l-2.12,6.79H425l-2.6-9h1.53l1.76,6.71,2.09-6.71H429Z"/><path d="M436,143.48a.92.92,0,0,1,.23-.63,1,1,0,0,1,1.35,0,.88.88,0,0,1,.24.63.86.86,0,0,1-.24.62.91.91,0,0,1-1.58-.62Zm1.66,11.33h-1.53v-9h1.53Z"/><path d="M442.15,143.68v2.17h1.67V147h-1.67v5.56a1.21,1.21,0,0,0,.22.8.94.94,0,0,0,.76.27,3.44,3.44,0,0,0,.73-.1v1.24a4.46,4.46,0,0,1-1.18.16,1.87,1.87,0,0,1-1.54-.62,2.64,2.64,0,0,1-.53-1.76V147H439v-1.19h1.63v-2.17Z"/><path d="M447.14,146.94a3.22,3.22,0,0,1,2.65-1.25c1.89,0,2.84,1.06,2.86,3.2v5.92h-1.53v-5.93a2.14,2.14,0,0,0-.44-1.43,1.79,1.79,0,0,0-1.36-.46,2.25,2.25,0,0,0-1.31.39,2.79,2.79,0,0,0-.87,1.05v6.38h-1.53V142.09h1.53Z"/><path d="M467.86,142.76V151a3.81,3.81,0,0,1-1.07,2.79A4.35,4.35,0,0,1,463.9,155h-.42a4.5,4.5,0,0,1-3.15-1.06,3.85,3.85,0,0,1-1.19-2.94v-8.21h1.57v8.16a2.51,2.51,0,0,0,2.77,2.75,2.8,2.8,0,0,0,2.07-.72,2.76,2.76,0,0,0,.71-2v-8.17Z"/><path d="M479.63,154.81H478L472,145.52v9.29h-1.6V142.76H472l6.08,9.32v-9.32h1.58Z"/><path d="M491.62,152.43a1.12,1.12,0,0,0-.46-1,4.48,4.48,0,0,0-1.63-.59,8,8,0,0,1-1.85-.6,2.6,2.6,0,0,1-1-.83,2,2,0,0,1-.33-1.14,2.33,2.33,0,0,1,.93-1.86,3.63,3.63,0,0,1,2.38-.76,3.75,3.75,0,0,1,2.47.78,2.49,2.49,0,0,1,.95,2h-1.54a1.4,1.4,0,0,0-.53-1.08,2,2,0,0,0-1.35-.46,2.09,2.09,0,0,0-1.3.37,1.14,1.14,0,0,0-.48.95.94.94,0,0,0,.44.84,5.6,5.6,0,0,0,1.59.53,8.76,8.76,0,0,1,1.86.62,2.69,2.69,0,0,1,1.05.85,2.11,2.11,0,0,1,.34,1.22,2.3,2.3,0,0,1-1,1.93,4,4,0,0,1-2.49.72,4.42,4.42,0,0,1-1.9-.38,3.18,3.18,0,0,1-1.3-1.06,2.59,2.59,0,0,1-.46-1.48h1.53a1.6,1.6,0,0,0,.61,1.22,2.41,2.41,0,0,0,1.52.45,2.44,2.44,0,0,0,1.4-.35A1.07,1.07,0,0,0,491.62,152.43Z"/><path d="M500.68,153.92a3.26,3.26,0,0,1-2.63,1.05,2.77,2.77,0,0,1-2.18-.83,3.55,3.55,0,0,1-.75-2.46v-5.83h1.53v5.79c0,1.36.55,2,1.65,2a2.3,2.3,0,0,0,2.34-1.3v-6.52h1.53v9h-1.46Z"/><path d="M512.06,150.43a5.31,5.31,0,0,1-.94,3.29,3,3,0,0,1-2.53,1.25,3.29,3.29,0,0,1-2.57-1v4.31h-1.53v-12.4h1.4l.08,1a3.13,3.13,0,0,1,2.6-1.16,3.06,3.06,0,0,1,2.55,1.21,5.4,5.4,0,0,1,.94,3.39Zm-1.53-.17a4,4,0,0,0-.65-2.4,2.08,2.08,0,0,0-1.77-.87,2.26,2.26,0,0,0-2.09,1.23v4.28a2.25,2.25,0,0,0,2.11,1.22,2.08,2.08,0,0,0,1.75-.87A4.34,4.34,0,0,0,510.53,150.26Z"/><path d="M521.57,150.43a5.31,5.31,0,0,1-.94,3.29A3,3,0,0,1,518.1,155a3.29,3.29,0,0,1-2.57-1v4.31H514v-12.4h1.4l.08,1a3.13,3.13,0,0,1,2.6-1.16,3.06,3.06,0,0,1,2.55,1.21,5.4,5.4,0,0,1,.94,3.39Zm-1.53-.17a4,4,0,0,0-.65-2.4,2.08,2.08,0,0,0-1.77-.87,2.26,2.26,0,0,0-2.09,1.23v4.28a2.25,2.25,0,0,0,2.11,1.22,2.08,2.08,0,0,0,1.75-.87A4.34,4.34,0,0,0,520,150.26Z"/><path d="M523.11,150.25a5.22,5.22,0,0,1,.52-2.37,3.79,3.79,0,0,1,1.44-1.62,3.89,3.89,0,0,1,2.1-.57,3.78,3.78,0,0,1,3,1.26,4.9,4.9,0,0,1,1.13,3.37v.11a5.43,5.43,0,0,1-.5,2.35,3.74,3.74,0,0,1-1.43,1.61,4,4,0,0,1-2.14.58,3.78,3.78,0,0,1-3-1.26,4.83,4.83,0,0,1-1.13-3.36Zm1.54.18a3.83,3.83,0,0,0,.69,2.39,2.22,2.22,0,0,0,1.85.9,2.19,2.19,0,0,0,1.85-.91,4.17,4.17,0,0,0,.69-2.56,3.81,3.81,0,0,0-.7-2.39,2.32,2.32,0,0,0-3.69,0A4.17,4.17,0,0,0,524.65,150.43Z"/><path d="M537.51,147.23a4.38,4.38,0,0,0-.75-.06,2,2,0,0,0-2,1.28v6.36h-1.53v-9h1.49l0,1a2.38,2.38,0,0,1,2.13-1.2,1.68,1.68,0,0,1,.68.11Z"/><path d="M541.41,143.68v2.17h1.67V147h-1.67v5.56a1.21,1.21,0,0,0,.22.8.94.94,0,0,0,.76.27,3.44,3.44,0,0,0,.73-.1v1.24A4.39,4.39,0,0,1,542,155a1.89,1.89,0,0,1-1.55-.62,2.64,2.64,0,0,1-.52-1.76V147h-1.63v-1.19h1.63v-2.17Z"/><path d="M277.35,164v2.17H279v1.19h-1.67v5.56a1.24,1.24,0,0,0,.22.81,1,1,0,0,0,.76.26,4.06,4.06,0,0,0,.73-.09v1.23a4.39,4.39,0,0,1-1.17.16,1.89,1.89,0,0,1-1.55-.62,2.64,2.64,0,0,1-.52-1.76v-5.55h-1.63v-1.19h1.63V164Z"/><path d="M280.24,170.59a5.35,5.35,0,0,1,.51-2.37A3.8,3.8,0,0,1,284.3,166a3.78,3.78,0,0,1,3,1.26,4.9,4.9,0,0,1,1.13,3.37v.11a5.43,5.43,0,0,1-.5,2.35,3.74,3.74,0,0,1-1.43,1.61,4,4,0,0,1-2.14.58,3.76,3.76,0,0,1-2.95-1.26,4.82,4.82,0,0,1-1.13-3.35Zm1.54.18a3.83,3.83,0,0,0,.69,2.39,2.34,2.34,0,0,0,3.7,0,4.17,4.17,0,0,0,.69-2.56,3.81,3.81,0,0,0-.7-2.39,2.23,2.23,0,0,0-1.86-.91,2.19,2.19,0,0,0-1.83.9A4.17,4.17,0,0,0,281.78,170.77Z"/><path d="M294.51,163.82a.92.92,0,0,1,.23-.63.87.87,0,0,1,.68-.26.9.9,0,0,1,.68.26.92.92,0,0,1,.23.63.9.9,0,0,1-.23.62.93.93,0,0,1-.68.25.83.83,0,0,1-.91-.87Zm1.66,11.33h-1.53v-9h1.53Z"/><path d="M300.06,166.19l0,1a3.29,3.29,0,0,1,2.66-1.16,2.55,2.55,0,0,1,2.55,1.44,3.31,3.31,0,0,1,2.86-1.44c2,0,3,1,3,3.12v6h-1.53v-5.91a2.08,2.08,0,0,0-.44-1.44,2.37,2.37,0,0,0-2.89,0,2.08,2.08,0,0,0-.66,1.37v5.94h-1.54v-5.87a1.7,1.7,0,0,0-1.91-1.95,2,2,0,0,0-2.06,1.28v6.54h-1.53v-9Z"/><path d="M321,170.77a5.31,5.31,0,0,1-.94,3.29,3,3,0,0,1-2.53,1.25,3.27,3.27,0,0,1-2.56-1v4.31h-1.53v-12.4h1.39l.08,1a3.13,3.13,0,0,1,2.6-1.16,3,3,0,0,1,2.55,1.21,5.42,5.42,0,0,1,.94,3.39Zm-1.53-.17a4,4,0,0,0-.65-2.4,2.08,2.08,0,0,0-1.77-.87,2.25,2.25,0,0,0-2.08,1.23v4.28a2.24,2.24,0,0,0,2.1,1.22,2.07,2.07,0,0,0,1.75-.87A4.34,4.34,0,0,0,319.51,170.6Z"/><path d="M327.31,167.57a4.38,4.38,0,0,0-.75-.06,2,2,0,0,0-2,1.28v6.36H323v-9h1.49l0,1a2.38,2.38,0,0,1,2.14-1.2,1.66,1.66,0,0,1,.67.11Z"/><path d="M328.15,170.59a5.22,5.22,0,0,1,.52-2.37,3.79,3.79,0,0,1,1.44-1.62,3.91,3.91,0,0,1,2.1-.57,3.78,3.78,0,0,1,3,1.26,4.86,4.86,0,0,1,1.13,3.37v.11a5.29,5.29,0,0,1-.5,2.35,3.74,3.74,0,0,1-1.43,1.61,3.92,3.92,0,0,1-2.14.58,3.78,3.78,0,0,1-3-1.26,4.87,4.87,0,0,1-1.13-3.35Zm1.54.18a3.83,3.83,0,0,0,.69,2.39,2.22,2.22,0,0,0,1.85.9,2.17,2.17,0,0,0,1.85-.91,4.17,4.17,0,0,0,.69-2.56,3.81,3.81,0,0,0-.7-2.39,2.32,2.32,0,0,0-3.68,0A4.11,4.11,0,0,0,329.69,170.77Z"/><path d="M341.05,173.07l2.22-6.88h1.57l-3.22,9h-1.16l-3.25-9h1.57Z"/><path d="M349.92,175.31a3.88,3.88,0,0,1-3-1.19,4.42,4.42,0,0,1-1.15-3.2v-.28a5.37,5.37,0,0,1,.51-2.38,4,4,0,0,1,1.43-1.64,3.51,3.51,0,0,1,2-.59,3.33,3.33,0,0,1,2.71,1.15,5,5,0,0,1,1,3.29v.64h-6.07a3.2,3.2,0,0,0,.78,2.14,2.43,2.43,0,0,0,1.88.81,2.71,2.71,0,0,0,1.38-.33,3.51,3.51,0,0,0,1-.87l.94.72A3.76,3.76,0,0,1,349.92,175.31Zm-.19-8a2,2,0,0,0-1.56.67,3.28,3.28,0,0,0-.78,1.89h4.49v-.11a2.85,2.85,0,0,0-.63-1.81A1.9,1.9,0,0,0,349.73,167.29Z"/><path d="M361,175.15h-1.53V162.44H361Z"/><path d="M363.09,170.59a5.35,5.35,0,0,1,.51-2.37,3.8,3.8,0,0,1,3.55-2.19,3.78,3.78,0,0,1,3,1.26,4.9,4.9,0,0,1,1.13,3.37v.11a5.43,5.43,0,0,1-.5,2.35,3.8,3.8,0,0,1-1.43,1.61,4,4,0,0,1-2.14.58,3.76,3.76,0,0,1-2.95-1.26,4.82,4.82,0,0,1-1.13-3.35Zm1.54.18a3.83,3.83,0,0,0,.69,2.39,2.34,2.34,0,0,0,3.7,0,4.17,4.17,0,0,0,.69-2.56,3.81,3.81,0,0,0-.7-2.39,2.23,2.23,0,0,0-1.86-.91,2.19,2.19,0,0,0-1.83.9A4.17,4.17,0,0,0,364.63,170.77Z"/><path d="M376.75,174.06a2.2,2.2,0,0,0,1.43-.49,1.74,1.74,0,0,0,.68-1.24h1.45a2.74,2.74,0,0,1-.53,1.46,3.61,3.61,0,0,1-1.3,1.11,3.73,3.73,0,0,1-1.73.41,3.67,3.67,0,0,1-2.91-1.22,4.84,4.84,0,0,1-1.08-3.34v-.25a5.42,5.42,0,0,1,.48-2.33,3.67,3.67,0,0,1,1.38-1.58,4,4,0,0,1,2.12-.56,3.61,3.61,0,0,1,2.51.9,3.22,3.22,0,0,1,1.06,2.34h-1.45a2.09,2.09,0,0,0-.66-1.43,2,2,0,0,0-1.46-.55,2.16,2.16,0,0,0-1.81.84,4,4,0,0,0-.64,2.43v.28a3.91,3.91,0,0,0,.64,2.39A2.13,2.13,0,0,0,376.75,174.06Z"/><path d="M387.56,175.15a3.06,3.06,0,0,1-.21-1,3.44,3.44,0,0,1-2.55,1.11,3.22,3.22,0,0,1-2.18-.74,2.46,2.46,0,0,1-.85-1.9,2.54,2.54,0,0,1,1.07-2.18,5,5,0,0,1,3-.77h1.49V169a1.7,1.7,0,0,0-.48-1.28,1.92,1.92,0,0,0-1.42-.48,2.27,2.27,0,0,0-1.37.41,1.22,1.22,0,0,0-.55,1H382a2.16,2.16,0,0,1,.47-1.3,3.23,3.23,0,0,1,1.29-1,4.42,4.42,0,0,1,1.8-.36,3.55,3.55,0,0,1,2.42.77,2.78,2.78,0,0,1,.91,2.13v4.12a5.06,5.06,0,0,0,.32,2v.13ZM385,174a2.71,2.71,0,0,0,1.37-.37,2.28,2.28,0,0,0,.93-1V170.8h-1.2c-1.88,0-2.81.55-2.81,1.65a1.4,1.4,0,0,0,.48,1.13A1.84,1.84,0,0,0,385,174Z"/><path d="M392.92,175.15h-1.54V162.44h1.54Z"/><path d="M403.15,174.06a2.22,2.22,0,0,0,1.44-.49,1.76,1.76,0,0,0,.67-1.24h1.45a2.74,2.74,0,0,1-.53,1.46,3.53,3.53,0,0,1-1.3,1.11,4,4,0,0,1-4.64-.81,4.84,4.84,0,0,1-1.08-3.34v-.25a5.42,5.42,0,0,1,.48-2.33,3.67,3.67,0,0,1,1.38-1.58,4,4,0,0,1,2.12-.56,3.61,3.61,0,0,1,2.51.9,3.22,3.22,0,0,1,1.06,2.34h-1.45a2.12,2.12,0,0,0-.65-1.43,2.06,2.06,0,0,0-1.47-.55,2.13,2.13,0,0,0-1.8.84,3.93,3.93,0,0,0-.64,2.43v.28a3.91,3.91,0,0,0,.63,2.39A2.15,2.15,0,0,0,403.15,174.06Z"/><path d="M414,175.15a3.39,3.39,0,0,1-.21-1,3.41,3.41,0,0,1-2.55,1.11,3.19,3.19,0,0,1-2.17-.74,2.42,2.42,0,0,1-.85-1.9,2.54,2.54,0,0,1,1.06-2.18,5.06,5.06,0,0,1,3-.77h1.49V169a1.7,1.7,0,0,0-.48-1.28,1.91,1.91,0,0,0-1.41-.48,2.28,2.28,0,0,0-1.38.41,1.22,1.22,0,0,0-.55,1h-1.54a2.12,2.12,0,0,1,.48-1.3,3.1,3.1,0,0,1,1.29-1,4.37,4.37,0,0,1,1.79-.36,3.55,3.55,0,0,1,2.42.77,2.78,2.78,0,0,1,.91,2.13v4.12a5.06,5.06,0,0,0,.32,2v.13ZM411.42,174a2.69,2.69,0,0,0,1.37-.37,2.22,2.22,0,0,0,.93-1V170.8h-1.2c-1.87,0-2.81.55-2.81,1.65a1.4,1.4,0,0,0,.48,1.13A1.84,1.84,0,0,0,411.42,174Z"/><path d="M425.22,170.77a5.31,5.31,0,0,1-.94,3.29,3,3,0,0,1-2.53,1.25,3.29,3.29,0,0,1-2.57-1v4.31h-1.53v-12.4h1.4l.08,1a3.13,3.13,0,0,1,2.6-1.16,3.06,3.06,0,0,1,2.55,1.21,5.42,5.42,0,0,1,.94,3.39Zm-1.53-.17a4,4,0,0,0-.65-2.4,2.08,2.08,0,0,0-1.77-.87,2.26,2.26,0,0,0-2.09,1.23v4.28a2.25,2.25,0,0,0,2.11,1.22,2.08,2.08,0,0,0,1.75-.87A4.34,4.34,0,0,0,423.69,170.6Z"/><path d="M432.69,175.15a3.06,3.06,0,0,1-.21-1,3.41,3.41,0,0,1-2.55,1.11,3.19,3.19,0,0,1-2.17-.74,2.42,2.42,0,0,1-.85-1.9,2.54,2.54,0,0,1,1.06-2.18,5.06,5.06,0,0,1,3-.77h1.49V169a1.7,1.7,0,0,0-.48-1.28,1.91,1.91,0,0,0-1.41-.48,2.28,2.28,0,0,0-1.38.41,1.22,1.22,0,0,0-.55,1h-1.54a2.12,2.12,0,0,1,.48-1.3,3.1,3.1,0,0,1,1.29-1,4.37,4.37,0,0,1,1.79-.36,3.55,3.55,0,0,1,2.42.77,2.78,2.78,0,0,1,.91,2.13v4.12a5.06,5.06,0,0,0,.32,2v.13ZM430.15,174a2.69,2.69,0,0,0,1.37-.37,2.22,2.22,0,0,0,.93-1V170.8h-1.2c-1.87,0-2.81.55-2.81,1.65a1.4,1.4,0,0,0,.48,1.13A1.84,1.84,0,0,0,430.15,174Z"/><path d="M440,174.06a2.22,2.22,0,0,0,1.43-.49,1.77,1.77,0,0,0,.68-1.24h1.45a2.83,2.83,0,0,1-.53,1.46,3.57,3.57,0,0,1-1.31,1.11,4,4,0,0,1-4.63-.81,4.84,4.84,0,0,1-1.08-3.34v-.25a5.42,5.42,0,0,1,.48-2.33,3.67,3.67,0,0,1,1.38-1.58A3.92,3.92,0,0,1,440,166a3.59,3.59,0,0,1,2.5.9,3.23,3.23,0,0,1,1.07,2.34h-1.45a2.18,2.18,0,0,0-.66-1.43,2.06,2.06,0,0,0-1.46-.55,2.15,2.15,0,0,0-1.81.84,3.93,3.93,0,0,0-.64,2.43v.28a3.84,3.84,0,0,0,.64,2.39A2.13,2.13,0,0,0,440,174.06Z"/><path d="M445.27,163.82a.91.91,0,0,1,.22-.63.87.87,0,0,1,.68-.26.88.88,0,0,1,.68.26.92.92,0,0,1,.23.63.9.9,0,0,1-.23.62.91.91,0,0,1-.68.25.9.9,0,0,1-.68-.25A.89.89,0,0,1,445.27,163.82Zm1.65,11.33h-1.53v-9h1.53Z"/><path d="M451.45,164v2.17h1.67v1.19h-1.67v5.56a1.24,1.24,0,0,0,.22.81,1,1,0,0,0,.76.26,4.06,4.06,0,0,0,.73-.09v1.23a4.39,4.39,0,0,1-1.17.16,1.89,1.89,0,0,1-1.55-.62,2.64,2.64,0,0,1-.52-1.76v-5.55h-1.63v-1.19h1.63V164Z"/><path d="M454.92,163.82a.91.91,0,0,1,.22-.63,1,1,0,0,1,1.36,0,.92.92,0,0,1,.23.63.9.9,0,0,1-.23.62,1,1,0,0,1-1.36,0A.89.89,0,0,1,454.92,163.82Zm1.65,11.33H455v-9h1.53Z"/><path d="M462.74,175.31a3.92,3.92,0,0,1-3-1.19,4.46,4.46,0,0,1-1.14-3.2v-.28a5.37,5.37,0,0,1,.51-2.38,4,4,0,0,1,1.42-1.64,3.56,3.56,0,0,1,2-.59,3.33,3.33,0,0,1,2.71,1.15,5,5,0,0,1,1,3.29v.64h-6.07a3.2,3.2,0,0,0,.78,2.14,2.43,2.43,0,0,0,1.88.81,2.65,2.65,0,0,0,1.37-.33,3.41,3.41,0,0,0,1-.87l.93.72A3.74,3.74,0,0,1,462.74,175.31Zm-.19-8A2,2,0,0,0,461,168a3.28,3.28,0,0,0-.78,1.89h4.49v-.11a2.91,2.91,0,0,0-.63-1.81A1.91,1.91,0,0,0,462.55,167.29Z"/><path d="M473.22,172.77a1.13,1.13,0,0,0-.47-1,4.41,4.41,0,0,0-1.63-.59,8,8,0,0,1-1.85-.6,2.67,2.67,0,0,1-1-.83,2,2,0,0,1-.32-1.14,2.33,2.33,0,0,1,.93-1.86,3.61,3.61,0,0,1,2.38-.76,3.77,3.77,0,0,1,2.47.78,2.52,2.52,0,0,1,.94,2h-1.53a1.38,1.38,0,0,0-.54-1.09,2,2,0,0,0-1.34-.45,2.1,2.1,0,0,0-1.31.36,1.13,1.13,0,0,0-.47.95.92.92,0,0,0,.44.84,5.56,5.56,0,0,0,1.58.54,8.26,8.26,0,0,1,1.86.61,2.7,2.7,0,0,1,1,.85,2.15,2.15,0,0,1,.35,1.23,2.28,2.28,0,0,1-1,1.92,4,4,0,0,1-2.49.72,4.43,4.43,0,0,1-1.91-.38,3,3,0,0,1-1.29-1.06,2.6,2.6,0,0,1-.47-1.48h1.53a1.56,1.56,0,0,0,.62,1.22,2.86,2.86,0,0,0,2.91.1A1.08,1.08,0,0,0,473.22,172.77Z"/><path d="M483,164v2.17h1.67v1.19H483v5.56a1.24,1.24,0,0,0,.22.81,1,1,0,0,0,.76.26,4.06,4.06,0,0,0,.73-.09v1.23a4.46,4.46,0,0,1-1.18.16,1.87,1.87,0,0,1-1.54-.62,2.64,2.64,0,0,1-.53-1.76v-5.55h-1.63v-1.19h1.63V164Z"/><path d="M485.9,170.59a5.36,5.36,0,0,1,.52-2.37A3.8,3.8,0,0,1,490,166a3.8,3.8,0,0,1,3,1.26,4.9,4.9,0,0,1,1.13,3.37v.11a5.43,5.43,0,0,1-.5,2.35,3.82,3.82,0,0,1-1.44,1.61,3.92,3.92,0,0,1-2.14.58,3.79,3.79,0,0,1-3-1.26,4.87,4.87,0,0,1-1.13-3.35Zm1.54.18a3.83,3.83,0,0,0,.69,2.39,2.23,2.23,0,0,0,1.85.9,2.2,2.2,0,0,0,1.86-.91,4.17,4.17,0,0,0,.69-2.56,3.88,3.88,0,0,0-.7-2.39,2.23,2.23,0,0,0-1.86-.91,2.19,2.19,0,0,0-1.83.9A4.17,4.17,0,0,0,487.44,170.77Z"/><path d="M501.61,166.19l0,1a3.3,3.3,0,0,1,2.66-1.16,2.56,2.56,0,0,1,2.56,1.44,3.28,3.28,0,0,1,2.85-1.44q3,0,3,3.12v6h-1.53v-5.91a2.08,2.08,0,0,0-.44-1.44,2,2,0,0,0-1.47-.47,2,2,0,0,0-1.42.51,2.07,2.07,0,0,0-.65,1.37v5.94h-1.54v-5.87a1.71,1.71,0,0,0-1.91-1.95,2,2,0,0,0-2.06,1.28v6.54h-1.54v-9Z"/><path d="M520.56,175.15a3.31,3.31,0,0,1-.22-1,3.41,3.41,0,0,1-2.55,1.11,3.21,3.21,0,0,1-2.17-.74,2.46,2.46,0,0,1-.85-1.9,2.54,2.54,0,0,1,1.07-2.18,5,5,0,0,1,3-.77h1.49V169a1.7,1.7,0,0,0-.48-1.28,1.92,1.92,0,0,0-1.42-.48,2.27,2.27,0,0,0-1.37.41,1.22,1.22,0,0,0-.55,1H515a2.1,2.1,0,0,1,.47-1.3,3.23,3.23,0,0,1,1.29-1,4.42,4.42,0,0,1,1.8-.36,3.57,3.57,0,0,1,2.42.77,2.81,2.81,0,0,1,.91,2.13v4.12a5.27,5.27,0,0,0,.31,2v.13ZM518,174a2.65,2.65,0,0,0,1.36-.37,2.25,2.25,0,0,0,.94-1V170.8h-1.2c-1.88,0-2.81.55-2.81,1.65a1.43,1.43,0,0,0,.47,1.13A1.87,1.87,0,0,0,518,174Z"/><path d="M525.7,166.19l0,1.13a3.26,3.26,0,0,1,2.68-1.29c1.89,0,2.85,1.07,2.86,3.2v5.92h-1.53v-5.93a2,2,0,0,0-.44-1.43,1.77,1.77,0,0,0-1.35-.46,2.23,2.23,0,0,0-1.31.39,2.73,2.73,0,0,0-.88,1.05v6.38h-1.53v-9Z"/><path d="M539.13,175.15a3.06,3.06,0,0,1-.21-1,3.44,3.44,0,0,1-2.55,1.11,3.22,3.22,0,0,1-2.18-.74,2.45,2.45,0,0,1-.84-1.9,2.54,2.54,0,0,1,1.06-2.18,5.06,5.06,0,0,1,3-.77h1.49V169a1.7,1.7,0,0,0-.48-1.28,1.91,1.91,0,0,0-1.41-.48,2.28,2.28,0,0,0-1.38.41,1.22,1.22,0,0,0-.55,1h-1.54a2.16,2.16,0,0,1,.47-1.3,3.2,3.2,0,0,1,1.3-1,4.37,4.37,0,0,1,1.79-.36,3.55,3.55,0,0,1,2.42.77,2.78,2.78,0,0,1,.91,2.13v4.12a5.06,5.06,0,0,0,.32,2v.13ZM536.59,174a2.69,2.69,0,0,0,1.37-.37,2.22,2.22,0,0,0,.93-1V170.8h-1.2c-1.88,0-2.81.55-2.81,1.65a1.4,1.4,0,0,0,.48,1.13A1.84,1.84,0,0,0,536.59,174Z"/><path d="M542.46,170.6a5.22,5.22,0,0,1,1-3.33,3.33,3.33,0,0,1,5.12-.08l.08-1H550v8.74a3.62,3.62,0,0,1-1,2.74,3.77,3.77,0,0,1-2.76,1,4.55,4.55,0,0,1-1.9-.41,3.31,3.31,0,0,1-1.42-1.13l.8-.92a3,3,0,0,0,2.41,1.21,2.16,2.16,0,0,0,2.36-2.4v-.77a3.12,3.12,0,0,1-2.5,1.06,3.07,3.07,0,0,1-2.55-1.26A5.54,5.54,0,0,1,542.46,170.6Zm1.54.17a4.05,4.05,0,0,0,.62,2.38,2,2,0,0,0,1.74.86,2.23,2.23,0,0,0,2.12-1.31v-4.09a2.25,2.25,0,0,0-2.11-1.28,2,2,0,0,0-1.74.87A4.35,4.35,0,0,0,544,170.77Z"/><path d="M556.05,175.31a3.9,3.9,0,0,1-3-1.19,4.42,4.42,0,0,1-1.15-3.2v-.28a5.37,5.37,0,0,1,.51-2.38,4,4,0,0,1,1.43-1.64,3.53,3.53,0,0,1,2-.59,3.33,3.33,0,0,1,2.71,1.15,5,5,0,0,1,1,3.29v.64h-6.06a3.19,3.19,0,0,0,.77,2.14,2.43,2.43,0,0,0,1.88.81,2.71,2.71,0,0,0,1.38-.33,3.51,3.51,0,0,0,1-.87l.94.72A3.75,3.75,0,0,1,556.05,175.31Zm-.19-8a2,2,0,0,0-1.56.67,3.28,3.28,0,0,0-.78,1.89H558v-.11a2.85,2.85,0,0,0-.63-1.81A1.9,1.9,0,0,0,555.86,167.29Z"/><path d="M314.92,190.94a5.26,5.26,0,0,1,1-3.32,3.33,3.33,0,0,1,5.05-.18v-4.66h1.53v12.71h-1.41l-.07-1a3.11,3.11,0,0,1-2.56,1.12,3,3,0,0,1-2.53-1.27,5.27,5.27,0,0,1-1-3.33Zm1.53.17a3.94,3.94,0,0,0,.63,2.38,2,2,0,0,0,1.73.87,2.25,2.25,0,0,0,2.13-1.31v-4.12a2.25,2.25,0,0,0-2.11-1.26,2,2,0,0,0-1.75.87A4.35,4.35,0,0,0,316.45,191.11Z"/><path d="M324.86,184.16a.91.91,0,0,1,.22-.63.87.87,0,0,1,.68-.26.88.88,0,0,1,.68.26.92.92,0,0,1,.23.63.9.9,0,0,1-.23.62.91.91,0,0,1-.68.25.9.9,0,0,1-.68-.25A.89.89,0,0,1,324.86,184.16Zm1.65,11.33H325v-9h1.53Z"/><path d="M334.18,193.11a1.13,1.13,0,0,0-.47-1,4.41,4.41,0,0,0-1.63-.59,8,8,0,0,1-1.85-.6,2.67,2.67,0,0,1-1-.83,2,2,0,0,1-.33-1.14,2.34,2.34,0,0,1,.94-1.86,3.61,3.61,0,0,1,2.38-.76,3.79,3.79,0,0,1,2.47.78,2.52,2.52,0,0,1,.94,2h-1.54a1.38,1.38,0,0,0-.53-1.09,2,2,0,0,0-1.34-.45,2.1,2.1,0,0,0-1.31.36,1.13,1.13,0,0,0-.47.95.94.94,0,0,0,.43.84,5.35,5.35,0,0,0,1.59.54,8.26,8.26,0,0,1,1.86.61,2.71,2.71,0,0,1,1.05.86,2.09,2.09,0,0,1,.35,1.22,2.28,2.28,0,0,1-1,1.92,4,4,0,0,1-2.49.72,4.43,4.43,0,0,1-1.91-.38,3,3,0,0,1-1.29-1.06,2.5,2.5,0,0,1-.47-1.48h1.53a1.56,1.56,0,0,0,.62,1.22,2.39,2.39,0,0,0,1.52.46,2.43,2.43,0,0,0,1.39-.36A1.07,1.07,0,0,0,334.18,193.11Z"/><path d="M343.23,195.49a3.05,3.05,0,0,1-.21-.94,3.43,3.43,0,0,1-2.55,1.1,3.17,3.17,0,0,1-2.18-.74,2.46,2.46,0,0,1-.85-1.9,2.54,2.54,0,0,1,1.07-2.18,5,5,0,0,1,3-.77H343v-.7a1.7,1.7,0,0,0-.48-1.28,1.92,1.92,0,0,0-1.42-.48,2.21,2.21,0,0,0-1.37.42,1.21,1.21,0,0,0-.55,1h-1.54a2.16,2.16,0,0,1,.47-1.3,3.42,3.42,0,0,1,1.29-1,4.42,4.42,0,0,1,1.8-.36,3.55,3.55,0,0,1,2.42.77,2.78,2.78,0,0,1,.91,2.13v4.13a5,5,0,0,0,.32,2v.13Zm-2.54-1.17a2.71,2.71,0,0,0,1.37-.37,2.28,2.28,0,0,0,.93-1v-1.84h-1.2c-1.88,0-2.81.55-2.81,1.65a1.4,1.4,0,0,0,.48,1.13A1.84,1.84,0,0,0,340.69,194.32Z"/><path d="M352.14,193.11a1.13,1.13,0,0,0-.47-1,4.41,4.41,0,0,0-1.63-.59,8,8,0,0,1-1.85-.6,2.67,2.67,0,0,1-1-.83,2,2,0,0,1-.32-1.14,2.33,2.33,0,0,1,.93-1.86,3.61,3.61,0,0,1,2.38-.76,3.77,3.77,0,0,1,2.47.78,2.52,2.52,0,0,1,.94,2h-1.53a1.4,1.4,0,0,0-.54-1.09,2,2,0,0,0-1.34-.45,2.1,2.1,0,0,0-1.31.36,1.13,1.13,0,0,0-.47.95.92.92,0,0,0,.44.84,5.26,5.26,0,0,0,1.58.54,8.26,8.26,0,0,1,1.86.61,2.64,2.64,0,0,1,1.05.86,2.09,2.09,0,0,1,.35,1.22,2.28,2.28,0,0,1-1,1.92,4,4,0,0,1-2.49.72,4.43,4.43,0,0,1-1.91-.38,3,3,0,0,1-1.29-1.06,2.57,2.57,0,0,1-.47-1.48h1.53a1.56,1.56,0,0,0,.62,1.22,2.8,2.8,0,0,0,2.91.1A1.07,1.07,0,0,0,352.14,193.11Z"/><path d="M357.74,184.37v2.16h1.67v1.19h-1.67v5.56a1.24,1.24,0,0,0,.22.81,1,1,0,0,0,.76.27,4.25,4.25,0,0,0,.73-.1v1.23a4.39,4.39,0,0,1-1.17.16,1.89,1.89,0,0,1-1.55-.62,2.64,2.64,0,0,1-.52-1.76v-5.55h-1.63v-1.19h1.63v-2.16Z"/><path d="M364.92,195.65a3.9,3.9,0,0,1-3-1.19,4.44,4.44,0,0,1-1.14-3.2V191a5.37,5.37,0,0,1,.51-2.38,3.93,3.93,0,0,1,1.42-1.64,3.62,3.62,0,0,1,2-.59,3.35,3.35,0,0,1,2.71,1.15,5,5,0,0,1,1,3.29v.64h-6.07a3.15,3.15,0,0,0,.78,2.14,2.44,2.44,0,0,0,1.88.82,2.65,2.65,0,0,0,1.37-.34,3.41,3.41,0,0,0,1-.87l.93.73A3.75,3.75,0,0,1,364.92,195.65Zm-.19-8a2,2,0,0,0-1.56.67,3.28,3.28,0,0,0-.78,1.89h4.49v-.11a3,3,0,0,0-.63-1.81A1.93,1.93,0,0,0,364.73,187.63Z"/><path d="M374.51,187.91a4.51,4.51,0,0,0-.76-.06,2,2,0,0,0-2,1.28v6.36h-1.53v-9h1.49l0,1a2.4,2.4,0,0,1,2.14-1.2,1.71,1.71,0,0,1,.68.11Z"/><path d="M384.44,187.91a4.38,4.38,0,0,0-.75-.06,2,2,0,0,0-2.05,1.28v6.36h-1.53v-9h1.49l0,1a2.38,2.38,0,0,1,2.13-1.2,1.68,1.68,0,0,1,.68.11Z"/><path d="M389.41,195.65a3.9,3.9,0,0,1-3-1.19,4.44,4.44,0,0,1-1.14-3.2V191a5.37,5.37,0,0,1,.51-2.38,3.93,3.93,0,0,1,1.42-1.64,3.62,3.62,0,0,1,2-.59,3.35,3.35,0,0,1,2.71,1.15,5,5,0,0,1,1,3.29v.64h-6.07a3.15,3.15,0,0,0,.78,2.14,2.44,2.44,0,0,0,1.88.82,2.65,2.65,0,0,0,1.37-.34,3.41,3.41,0,0,0,1-.87l.93.73A3.75,3.75,0,0,1,389.41,195.65Zm-.19-8a2,2,0,0,0-1.56.67,3.28,3.28,0,0,0-.78,1.89h4.49v-.11a3,3,0,0,0-.63-1.81A1.93,1.93,0,0,0,389.22,187.63Z"/><path d="M399.88,193.11a1.12,1.12,0,0,0-.46-1,4.48,4.48,0,0,0-1.63-.59,8,8,0,0,1-1.85-.6,2.6,2.6,0,0,1-1-.83,2,2,0,0,1-.33-1.14,2.33,2.33,0,0,1,.93-1.86,3.65,3.65,0,0,1,2.38-.76,3.8,3.8,0,0,1,2.48.78,2.52,2.52,0,0,1,.94,2h-1.54a1.38,1.38,0,0,0-.53-1.09,2,2,0,0,0-1.35-.45,2.09,2.09,0,0,0-1.3.36,1.13,1.13,0,0,0-.47.95.94.94,0,0,0,.43.84,5.35,5.35,0,0,0,1.59.54,8.26,8.26,0,0,1,1.86.61,2.71,2.71,0,0,1,1.05.86,2.09,2.09,0,0,1,.35,1.22,2.28,2.28,0,0,1-1,1.92,4.09,4.09,0,0,1-2.5.72,4.42,4.42,0,0,1-1.9-.38,3,3,0,0,1-1.29-1.06,2.5,2.5,0,0,1-.47-1.48h1.53a1.56,1.56,0,0,0,.62,1.22,2.38,2.38,0,0,0,1.51.46,2.44,2.44,0,0,0,1.4-.36A1.06,1.06,0,0,0,399.88,193.11Z"/><path d="M411,191.11a5.42,5.42,0,0,1-.94,3.3,3,3,0,0,1-2.53,1.24,3.28,3.28,0,0,1-2.57-1v4.31h-1.53v-12.4h1.4l.07,1a3.14,3.14,0,0,1,2.6-1.16,3,3,0,0,1,2.56,1.22A5.43,5.43,0,0,1,411,191Zm-1.54-.17a3.94,3.94,0,0,0-.64-2.39,2.07,2.07,0,0,0-1.77-.88,2.25,2.25,0,0,0-2.09,1.23v4.28a2.26,2.26,0,0,0,2.1,1.23,2.07,2.07,0,0,0,1.75-.88A4.27,4.27,0,0,0,409.44,190.94Z"/><path d="M412.51,190.93a5.36,5.36,0,0,1,.52-2.37,3.8,3.8,0,0,1,3.55-2.19,3.8,3.8,0,0,1,3,1.26,4.9,4.9,0,0,1,1.13,3.37v.11a5.4,5.4,0,0,1-.5,2.35,3.91,3.91,0,0,1-1.44,1.62,4,4,0,0,1-2.13.57,3.8,3.8,0,0,1-3-1.26,4.87,4.87,0,0,1-1.13-3.35Zm1.54.18a3.83,3.83,0,0,0,.69,2.39,2.24,2.24,0,0,0,1.86.91,2.21,2.21,0,0,0,1.85-.92,4.17,4.17,0,0,0,.69-2.56,3.88,3.88,0,0,0-.7-2.39,2.23,2.23,0,0,0-1.86-.91,2.19,2.19,0,0,0-1.83.9A4.17,4.17,0,0,0,414.05,191.11Z"/><path d="M424,186.53l0,1.13a3.25,3.25,0,0,1,2.68-1.29q2.84,0,2.86,3.2v5.92H428.1v-5.93a2.09,2.09,0,0,0-.44-1.43,1.78,1.78,0,0,0-1.36-.46,2.16,2.16,0,0,0-1.3.4,2.63,2.63,0,0,0-.88,1v6.38h-1.53v-9Z"/><path d="M437.15,193.11a1.12,1.12,0,0,0-.46-1,4.48,4.48,0,0,0-1.63-.59,8,8,0,0,1-1.85-.6,2.6,2.6,0,0,1-1-.83,2,2,0,0,1-.33-1.14,2.33,2.33,0,0,1,.93-1.86,3.65,3.65,0,0,1,2.38-.76,3.75,3.75,0,0,1,2.47.78,2.5,2.5,0,0,1,1,2h-1.54a1.38,1.38,0,0,0-.53-1.09,2,2,0,0,0-1.35-.45,2.09,2.09,0,0,0-1.3.36,1.14,1.14,0,0,0-.48.95.94.94,0,0,0,.44.84,5.35,5.35,0,0,0,1.59.54,8.26,8.26,0,0,1,1.86.61,2.71,2.71,0,0,1,1,.86,2.09,2.09,0,0,1,.34,1.22,2.3,2.3,0,0,1-.95,1.92,4.09,4.09,0,0,1-2.5.72,4.42,4.42,0,0,1-1.9-.38,3.1,3.1,0,0,1-1.3-1.06,2.56,2.56,0,0,1-.46-1.48h1.53a1.56,1.56,0,0,0,.62,1.22,2.36,2.36,0,0,0,1.51.46,2.44,2.44,0,0,0,1.4-.36A1.06,1.06,0,0,0,437.15,193.11Z"/><path d="M444.4,195.65a3.9,3.9,0,0,1-3-1.19,4.44,4.44,0,0,1-1.14-3.2V191a5.37,5.37,0,0,1,.51-2.38,3.93,3.93,0,0,1,1.42-1.64,3.62,3.62,0,0,1,2-.59,3.35,3.35,0,0,1,2.71,1.15,5,5,0,0,1,1,3.29v.64h-6.07a3.15,3.15,0,0,0,.78,2.14,2.44,2.44,0,0,0,1.88.82,2.65,2.65,0,0,0,1.37-.34,3.41,3.41,0,0,0,1-.87l.93.73A3.75,3.75,0,0,1,444.4,195.65Zm-.19-8a2,2,0,0,0-1.56.67,3.28,3.28,0,0,0-.78,1.89h4.49v-.11a3,3,0,0,0-.63-1.81A1.91,1.91,0,0,0,444.21,187.63Z"/><path d="M459.39,195.49a3.31,3.31,0,0,1-.22-.94,3.4,3.4,0,0,1-2.55,1.1,3.14,3.14,0,0,1-2.17-.74,2.42,2.42,0,0,1-.85-1.9,2.54,2.54,0,0,1,1.06-2.18,5.08,5.08,0,0,1,3-.77h1.48v-.7a1.74,1.74,0,0,0-.47-1.28,1.94,1.94,0,0,0-1.42-.48,2.19,2.19,0,0,0-1.37.42,1.22,1.22,0,0,0-.56,1h-1.54a2.12,2.12,0,0,1,.48-1.3,3.35,3.35,0,0,1,1.29-1,4.37,4.37,0,0,1,1.79-.36,3.59,3.59,0,0,1,2.43.77,2.85,2.85,0,0,1,.91,2.13v4.13a5.06,5.06,0,0,0,.31,2v.13Zm-2.55-1.17a2.69,2.69,0,0,0,1.37-.37,2.22,2.22,0,0,0,.93-1v-1.84h-1.2c-1.87,0-2.81.55-2.81,1.65a1.4,1.4,0,0,0,.48,1.13A1.84,1.84,0,0,0,456.84,194.32Z"/><path d="M466.67,194.41a2.21,2.21,0,0,0,1.43-.5,1.74,1.74,0,0,0,.68-1.24h1.45a2.83,2.83,0,0,1-.53,1.46,3.39,3.39,0,0,1-1.31,1.11,4,4,0,0,1-4.63-.81,4.84,4.84,0,0,1-1.08-3.34v-.25a5.42,5.42,0,0,1,.48-2.33,3.67,3.67,0,0,1,1.38-1.58,3.94,3.94,0,0,1,2.12-.56,3.57,3.57,0,0,1,2.5.9,3.23,3.23,0,0,1,1.07,2.34h-1.45a2,2,0,0,0-.66-1.42,2,2,0,0,0-1.46-.56,2.15,2.15,0,0,0-1.81.84,4,4,0,0,0-.64,2.43v.29a3.83,3.83,0,0,0,.64,2.38A2.14,2.14,0,0,0,466.67,194.41Z"/><path d="M474,184.37v2.16h1.67v1.19H474v5.56a1.24,1.24,0,0,0,.22.81.94.94,0,0,0,.76.27,4.25,4.25,0,0,0,.73-.1v1.23a4.41,4.41,0,0,1-1.18.16A1.87,1.87,0,0,1,473,195a2.64,2.64,0,0,1-.52-1.76v-5.55h-1.64v-1.19h1.64v-2.16Z"/><path d="M477.49,184.16a.92.92,0,0,1,.23-.63.87.87,0,0,1,.68-.26.9.9,0,0,1,.68.26.92.92,0,0,1,.23.63.9.9,0,0,1-.23.62.93.93,0,0,1-.68.25.83.83,0,0,1-.91-.87Zm1.66,11.33h-1.53v-9h1.53Z"/><path d="M484.56,193.41l2.21-6.88h1.57l-3.21,9H484l-3.24-9h1.56Z"/><path d="M489.82,184.16a.88.88,0,0,1,.23-.63.84.84,0,0,1,.67-.26.87.87,0,0,1,.68.26.92.92,0,0,1,.23.63.83.83,0,0,1-.91.87.87.87,0,0,1-.67-.25A.85.85,0,0,1,489.82,184.16Zm1.65,11.33h-1.53v-9h1.53Z"/><path d="M496,184.37v2.16h1.67v1.19H496v5.56a1.24,1.24,0,0,0,.23.81.92.92,0,0,0,.76.27,4.16,4.16,0,0,0,.72-.1v1.23a4.39,4.39,0,0,1-1.17.16A1.89,1.89,0,0,1,495,195a2.64,2.64,0,0,1-.52-1.76v-5.55h-1.63v-1.19h1.63v-2.16Z"/><path d="M499.47,184.16a.92.92,0,0,1,.23-.63.84.84,0,0,1,.67-.26.87.87,0,0,1,.68.26.92.92,0,0,1,.23.63.83.83,0,0,1-.91.87.87.87,0,0,1-.67-.25A.9.9,0,0,1,499.47,184.16Zm1.65,11.33h-1.53v-9h1.53Z"/><path d="M507.29,195.65a3.9,3.9,0,0,1-3-1.19,4.44,4.44,0,0,1-1.14-3.2V191a5.51,5.51,0,0,1,.5-2.38,4,4,0,0,1,1.43-1.64,3.61,3.61,0,0,1,2-.59,3.35,3.35,0,0,1,2.72,1.15,5,5,0,0,1,1,3.29v.64h-6.06a3.19,3.19,0,0,0,.77,2.14,2.44,2.44,0,0,0,1.88.82,2.71,2.71,0,0,0,1.38-.34,3.51,3.51,0,0,0,1-.87l.94.73A3.77,3.77,0,0,1,507.29,195.65Zm-.19-8a2,2,0,0,0-1.55.67,3.28,3.28,0,0,0-.78,1.89h4.48v-.11a2.87,2.87,0,0,0-.63-1.81A1.9,1.9,0,0,0,507.1,187.63Z"/><path d="M517.77,193.11a1.13,1.13,0,0,0-.47-1,4.34,4.34,0,0,0-1.63-.59,7.92,7.92,0,0,1-1.84-.6,2.52,2.52,0,0,1-1-.83,2,2,0,0,1-.33-1.14,2.33,2.33,0,0,1,.93-1.86,3.61,3.61,0,0,1,2.38-.76,3.77,3.77,0,0,1,2.47.78,2.53,2.53,0,0,1,1,2h-1.54a1.4,1.4,0,0,0-.54-1.09,2,2,0,0,0-1.34-.45,2.12,2.12,0,0,0-1.31.36,1.15,1.15,0,0,0-.47.95.94.94,0,0,0,.44.84,5.26,5.26,0,0,0,1.58.54,7.93,7.93,0,0,1,1.86.61,2.67,2.67,0,0,1,1.06.86,2.09,2.09,0,0,1,.34,1.22,2.28,2.28,0,0,1-1,1.92,4,4,0,0,1-2.49.72,4.46,4.46,0,0,1-1.91-.38,3,3,0,0,1-1.29-1.06,2.57,2.57,0,0,1-.47-1.48h1.53a1.59,1.59,0,0,0,.62,1.22,2.8,2.8,0,0,0,2.91.1A1.07,1.07,0,0,0,517.77,193.11Z"/><path class="cls-1" d="M343.74,82.68V95.45h-2.43l-6.37-7.75v7.75H332V82.68h2.45l6.35,7.75V82.68Z"/><path class="cls-1" d="M356.67,93.08v2.37h-9.9V82.68h9.66v2.37h-6.72v2.77h5.93v2.3h-5.93v3Z"/><path class="cls-1" d="M378.15,82.68,374,95.45H370.8L368,86.8l-2.9,8.65h-3.16l-4.19-12.77h3.06l2.89,9,3-9h2.74l2.92,9,3-9Z"/><path class="cls-1" d="M393.71,83.24a4.6,4.6,0,0,1,1.93,6.53,4.26,4.26,0,0,1-1.93,1.6,7,7,0,0,1-2.94.56h-2.58v3.52h-3V82.68h5.54A7.17,7.17,0,0,1,393.71,83.24ZM392.63,89a2.31,2.31,0,0,0,0-3.29,3.15,3.15,0,0,0-2-.57h-2.41v4.43h2.41A3.15,3.15,0,0,0,392.63,89Z"/><path class="cls-1" d="M406.56,95.45l-2.47-3.55h-2.72v3.55h-3V82.68h5.53a7.19,7.19,0,0,1,2.95.56,4.22,4.22,0,0,1,2.6,4.07,4.16,4.16,0,0,1-2.62,4l2.86,4.1Zm-.75-9.79a3.15,3.15,0,0,0-2-.57h-2.41v4.45h2.41a3.09,3.09,0,0,0,2-.58,2.32,2.32,0,0,0,0-3.3Z"/><path class="cls-1" d="M414.43,94.82a6.52,6.52,0,0,1,0-11.5,7.9,7.9,0,0,1,7.17,0,6.45,6.45,0,0,1,2.5,2.36,6.75,6.75,0,0,1,0,6.77,6.48,6.48,0,0,1-2.5,2.37,8,8,0,0,1-7.17,0Zm5.63-2.19a3.72,3.72,0,0,0,1.44-1.45,4.56,4.56,0,0,0,0-4.23,3.72,3.72,0,0,0-1.44-1.45,4.26,4.26,0,0,0-4.08,0A3.72,3.72,0,0,0,414.54,87a4.56,4.56,0,0,0,0,4.23A3.72,3.72,0,0,0,416,92.63a4.26,4.26,0,0,0,4.08,0Z"/><path class="cls-1" d="M439.1,82.68l-5.53,12.77h-2.92l-5.51-12.77h3.19l3.89,9.12,3.94-9.12Z"/><path class="cls-1" d="M440.16,82.68h3V95.45h-3Z"/><path class="cls-1" d="M457.87,82.68V95.45h-2.43l-6.37-7.75v7.75h-2.92V82.68h2.45L455,90.43V82.68Z"/><path class="cls-1" d="M463.48,94.82A6.3,6.3,0,0,1,461,92.47a6.89,6.89,0,0,1,0-6.81,6.3,6.3,0,0,1,2.48-2.35A7.93,7.93,0,0,1,470,83a6,6,0,0,1,2.26,1.68l-1.9,1.75A4.09,4.09,0,0,0,467.18,85a4.24,4.24,0,0,0-2.12.52A3.68,3.68,0,0,0,463.61,87a4.56,4.56,0,0,0,0,4.23,3.68,3.68,0,0,0,1.45,1.45,4.24,4.24,0,0,0,2.12.52,4,4,0,0,0,3.21-1.51l1.9,1.75a6,6,0,0,1-2.26,1.7,7.56,7.56,0,0,1-3,.58A7.28,7.28,0,0,1,463.48,94.82Z"/><path class="cls-1" d="M474.28,82.68h3V95.45h-3Z"/><path class="cls-1" d="M488.68,92.72h-5.93l-1.13,2.73h-3l5.69-12.77h2.92l5.72,12.77h-3.11Zm-.93-2.25-2-4.89-2,4.89Z"/><path class="cls-1" d="M494.25,82.68h3V93.05h6.4v2.4h-9.36Z"/><path class="cls-1" d="M292.35,116.73a6.4,6.4,0,0,1-2.49-2.35,6.89,6.89,0,0,1,0-6.81,6.36,6.36,0,0,1,2.49-2.36,7.88,7.88,0,0,1,6.55-.26,6,6,0,0,1,2.25,1.68l-1.89,1.75a4.1,4.1,0,0,0-3.22-1.5,4.31,4.31,0,0,0-2.11.52,3.77,3.77,0,0,0-1.46,1.45,4.58,4.58,0,0,0,0,4.24,3.77,3.77,0,0,0,1.46,1.45,4.21,4.21,0,0,0,2.11.52,4.08,4.08,0,0,0,3.22-1.51l1.89,1.75a5.88,5.88,0,0,1-2.26,1.7,7.66,7.66,0,0,1-3,.58A7.28,7.28,0,0,1,292.35,116.73Z"/><path class="cls-1" d="M305.47,116.72a6.39,6.39,0,0,1-2.5-2.36,6.83,6.83,0,0,1,0-6.78,6.39,6.39,0,0,1,2.5-2.36,7.9,7.9,0,0,1,7.17,0,6.52,6.52,0,0,1,2.5,2.36,6.77,6.77,0,0,1,0,6.78,6.52,6.52,0,0,1-2.5,2.36,7.9,7.9,0,0,1-7.17,0Zm5.63-2.18a3.78,3.78,0,0,0,1.44-1.45,4.58,4.58,0,0,0,0-4.24,3.78,3.78,0,0,0-1.44-1.45,4.28,4.28,0,0,0-4.09,0,3.76,3.76,0,0,0-1.43,1.45,4.58,4.58,0,0,0,0,4.24,3.76,3.76,0,0,0,1.43,1.45,4.28,4.28,0,0,0,4.09,0Z"/><path class="cls-1" d="M320.88,116.72a6.32,6.32,0,0,1-2.5-2.36,6.77,6.77,0,0,1,0-6.78,6.32,6.32,0,0,1,2.5-2.36,7.88,7.88,0,0,1,7.16,0,6.52,6.52,0,0,1,0,11.5,7.88,7.88,0,0,1-7.16,0Zm5.63-2.18a3.69,3.69,0,0,0,1.43-1.45,4.58,4.58,0,0,0,0-4.24,3.69,3.69,0,0,0-1.43-1.45,4.28,4.28,0,0,0-4.09,0,3.76,3.76,0,0,0-1.43,1.45,4.58,4.58,0,0,0,0,4.24,3.76,3.76,0,0,0,1.43,1.45,4.28,4.28,0,0,0,4.09,0Z"/><path class="cls-1" d="M341.82,117.36l-2.46-3.56h-2.72v3.56h-3V104.58h5.53a7,7,0,0,1,3,.57,4.38,4.38,0,0,1,1.93,1.6,4.46,4.46,0,0,1,.67,2.47,4.16,4.16,0,0,1-2.62,4l2.86,4.11Zm-.74-9.79a3.09,3.09,0,0,0-2-.58h-2.41v4.46h2.41a3.09,3.09,0,0,0,2-.59,2.31,2.31,0,0,0,0-3.29Z"/><path class="cls-1" d="M347.1,104.58h5.81a8.12,8.12,0,0,1,3.67.8,5.93,5.93,0,0,1,2.49,2.23,6.85,6.85,0,0,1,0,6.72,6,6,0,0,1-2.49,2.24,8.12,8.12,0,0,1-3.67.79H347.1Zm5.66,10.35a4.26,4.26,0,0,0,3.06-1.07,4.23,4.23,0,0,0,0-5.78,4.31,4.31,0,0,0-3.06-1.07h-2.7v7.92Z"/><path class="cls-1" d="M362.18,104.58h3v12.78h-3Z"/><path class="cls-1" d="M379.89,104.58v12.78h-2.43l-6.37-7.76v7.76h-2.92V104.58h2.44l6.35,7.76v-7.76Z"/><path class="cls-1" d="M391.33,114.62H385.4l-1.13,2.74h-3l5.69-12.78h2.92l5.72,12.78h-3.11Zm-.93-2.24-2-4.9-2,4.9Z"/><path class="cls-1" d="M398.91,107h-4.09v-2.41H406V107h-4.09v10.37h-2.95Z"/><path class="cls-1" d="M407.54,104.58h3v12.78h-3Z"/><path class="cls-1" d="M416.13,116.72a6.32,6.32,0,0,1-2.5-2.36,6.83,6.83,0,0,1,0-6.78,6.32,6.32,0,0,1,2.5-2.36,7.47,7.47,0,0,1,3.59-.86,7.39,7.39,0,0,1,3.57.86,6.51,6.51,0,0,1,0,11.5,7.39,7.39,0,0,1-3.57.86A7.47,7.47,0,0,1,416.13,116.72Zm5.63-2.18a3.69,3.69,0,0,0,1.43-1.45,4.58,4.58,0,0,0,0-4.24,3.69,3.69,0,0,0-1.43-1.45,4.28,4.28,0,0,0-4.09,0,3.76,3.76,0,0,0-1.43,1.45,4.58,4.58,0,0,0,0,4.24,3.76,3.76,0,0,0,1.43,1.45,4.28,4.28,0,0,0,4.09,0Z"/><path class="cls-1" d="M440.65,104.58v12.78h-2.42l-6.37-7.76v7.76h-2.93V104.58h2.45l6.35,7.76v-7.76Z"/><path class="cls-1" d="M451.43,116.73a6.38,6.38,0,0,1-2.48-2.35,6.89,6.89,0,0,1,0-6.81,6.33,6.33,0,0,1,2.48-2.36A7.9,7.9,0,0,1,458,105a6.06,6.06,0,0,1,2.25,1.68l-1.9,1.75a4.06,4.06,0,0,0-3.21-1.5,4.35,4.35,0,0,0-2.12.52,3.74,3.74,0,0,0-1.45,1.45,4.58,4.58,0,0,0,0,4.24,3.74,3.74,0,0,0,1.45,1.45,4.24,4.24,0,0,0,2.12.52,4,4,0,0,0,3.21-1.51l1.9,1.75A6,6,0,0,1,458,117a7.69,7.69,0,0,1-3,.58A7.32,7.32,0,0,1,451.43,116.73Z"/><path class="cls-1" d="M462.23,104.58h3V115h6.41v2.41h-9.37Z"/><path class="cls-1" d="M474.51,116.06a5.81,5.81,0,0,1-1.53-4.32v-7.16h3v7q0,3.44,2.85,3.43a2.7,2.7,0,0,0,2.12-.83,3.9,3.9,0,0,0,.73-2.6v-7h2.92v7.16a6,6,0,0,1-10.05,4.32Z"/><path class="cls-1" d="M488.75,117.17a7,7,0,0,1-2.28-1.07l1-2.23a6.47,6.47,0,0,0,1.95,1,7.42,7.42,0,0,0,2.26.37,3.66,3.66,0,0,0,1.87-.38,1.13,1.13,0,0,0,.6-1,.94.94,0,0,0-.36-.76,2.61,2.61,0,0,0-.91-.48,15.61,15.61,0,0,0-1.51-.41,21,21,0,0,1-2.39-.69,3.93,3.93,0,0,1-1.6-1.11,3,3,0,0,1-.66-2,3.54,3.54,0,0,1,.6-2,4.06,4.06,0,0,1,1.82-1.44,7.46,7.46,0,0,1,3-.53,10.11,10.11,0,0,1,2.4.29,7.4,7.4,0,0,1,2,.84l-.91,2.25a7.11,7.11,0,0,0-3.54-1,3.33,3.33,0,0,0-1.84.4,1.24,1.24,0,0,0-.59,1.06,1,1,0,0,0,.68,1,10.05,10.05,0,0,0,2.09.63,20.23,20.23,0,0,1,2.39.7,3.91,3.91,0,0,1,1.6,1.09,2.93,2.93,0,0,1,.67,2,3.57,3.57,0,0,1-.61,2,4.1,4.1,0,0,1-1.84,1.43,7.51,7.51,0,0,1-3,.53A10.58,10.58,0,0,1,488.75,117.17Z"/><path class="cls-1" d="M501.59,107H497.5v-2.41h11.13V107h-4.09v10.37h-3Z"/><path class="cls-1" d="M520.12,115v2.37h-9.9V104.58h9.66V107h-6.72v2.77h5.93V112h-5.93v3Z"/><path class="cls-1" d="M530.61,117.36l-2.46-3.56h-2.72v3.56h-3V104.58H528a7.06,7.06,0,0,1,3,.57,4.19,4.19,0,0,1,2.6,4.07,4.15,4.15,0,0,1-2.63,4l2.87,4.11Zm-.75-9.79a3,3,0,0,0-2-.58h-2.41v4.46h2.41a3,3,0,0,0,2-.59,2.28,2.28,0,0,0,0-3.29Z"/><path class="cls-1" d="M537.16,117.17a7,7,0,0,1-2.28-1.07l1-2.23a6.47,6.47,0,0,0,2,1,7.47,7.47,0,0,0,2.26.37,3.66,3.66,0,0,0,1.87-.38,1.13,1.13,0,0,0,.6-1,.94.94,0,0,0-.36-.76,2.61,2.61,0,0,0-.91-.48,15.61,15.61,0,0,0-1.51-.41,21,21,0,0,1-2.39-.69,3.83,3.83,0,0,1-1.59-1.11,3,3,0,0,1-.67-2,3.54,3.54,0,0,1,.6-2,4.06,4.06,0,0,1,1.82-1.44,7.46,7.46,0,0,1,3-.53,10.11,10.11,0,0,1,2.4.29,7.4,7.4,0,0,1,2,.84l-.91,2.25a7.11,7.11,0,0,0-3.54-1,3.33,3.33,0,0,0-1.84.4,1.24,1.24,0,0,0-.59,1.06,1,1,0,0,0,.68,1,10.05,10.05,0,0,0,2.09.63,20.23,20.23,0,0,1,2.39.7,3.91,3.91,0,0,1,1.6,1.09,2.93,2.93,0,0,1,.67,2,3.57,3.57,0,0,1-.61,2,4.1,4.1,0,0,1-1.84,1.43,7.51,7.51,0,0,1-3,.53A10.58,10.58,0,0,1,537.16,117.17Z"/><path class="cls-1" d="M430.39,58.88v6.54H404.18v-5.2l13.37-12.64a14.37,14.37,0,0,0,2.88-3.49,6.4,6.4,0,0,0,.74-2.9A3.82,3.82,0,0,0,419.76,38a6.53,6.53,0,0,0-4.14-1.12,9.45,9.45,0,0,0-4.11.87,7.83,7.83,0,0,0-3.07,2.6l-5.85-3.77a13.72,13.72,0,0,1,5.6-4.73,18.69,18.69,0,0,1,8.18-1.71,16.67,16.67,0,0,1,6.76,1.27A10.49,10.49,0,0,1,427.64,35a9.28,9.28,0,0,1,1.61,5.43,12.13,12.13,0,0,1-1.19,5.3,20.32,20.32,0,0,1-4.61,5.65l-8,7.53Z"/><rect class="cls-1" x="45.32" y="44.14" width="161.72" height="161.72" transform="translate(125.35 -52.61) rotate(45)"/><g class="cls-2"><path class="cls-3" d="M126.18,227.72,23.46,125,126.18,22.28,228.91,125ZM26.64,125l99.54,99.55L225.73,125,126.18,25.45Zm99.54,89.67L91.9,180.39l26.22-26.22L92.7,128.75l-18,18,11.91,11.92,4.94-4.94-7-7,8.16-8.16,15.54,15.54L87,175.45l-30-30L77.47,125,57,104.52l30-30,21.28,21.28L92.7,111.37l-8.16-8.16,7-7-4.94-4.94L74.67,103.21l18,18,25.42-25.42L91.9,69.61l34.28-34.28,34.29,34.28L134.25,95.83l25.42,25.42,18-18L165.79,91.29l-4.94,4.94,7,7-8.16,8.16L144.12,95.83l21.29-21.28,30,30L174.9,125l20.48,20.48-30,30-21.29-21.28,15.55-15.54,8.16,8.16-7,7,4.94,4.94,11.91-11.92-18-18-25.42,25.42,26.22,26.22ZM95.07,180.39l31.11,31.11,31.11-31.11-26.21-26.22,28.59-28.59,21.21,21.21-15.09,15.09-8.11-8.11,7-7-5-5L147.3,154.17l18.11,18.11,26.79-26.8L171.72,125l20.48-20.48-26.79-26.8L147.3,95.83l12.37,12.37,5-5-7-7,8.11-8.11,15.09,15.09-21.21,21.21L131.08,95.83l26.21-26.22L126.18,38.5,95.07,69.61l26.22,26.22L92.7,124.42,71.49,103.21,86.58,88.12l8.11,8.11-7,7,5,5,12.37-12.37L87,77.72l-26.79,26.8L80.65,125,60.17,145.48,87,172.28l18.11-18.11L92.7,141.8l-5,5,7,7-8.11,8.11L71.49,146.79,92.7,125.58l28.59,28.59Zm105.24-39.85L184.77,125l15.54-15.54L215.86,125ZM187.94,125l12.37,12.37L212.68,125l-12.37-12.37ZM52.05,140.54,36.51,125l15.54-15.54L67.6,125ZM39.68,125l12.37,12.37L64.42,125,52.05,112.63Z"/><path class="cls-3" d="M126.18,204.08,102.13,180,126.18,156,150.24,180ZM105.31,180l20.87,20.88L147.06,180l-20.88-20.88Z"/><path class="cls-3" d="M126.18,93.35l-24.05-24,24.05-24,24.06,24Zm-20.87-24,20.87,20.88L147.06,69.3,126.18,48.42Z"/></g><polygon class="cls-4" points="12.41 125 126.3 238.89 528.28 238.89 642.17 125 528.28 11.11 126.3 11.11 12.41 125"/><path class="cls-3" d="M168.77,97.55v64.71a.92.92,0,0,0-.13.21,6.58,6.58,0,0,1-6.6,5.11H90.12a6.21,6.21,0,0,1-6.51-6.3q0-31.35,0-62.69a6.58,6.58,0,0,1,.75-2.94,6.17,6.17,0,0,1,6-3.35q15.7,0,31.43,0h1c.07-.31.13-.52.18-.74a10.71,10.71,0,0,1,6.46-8.18,24.17,24.17,0,0,1,3.06-1h2.66a2.35,2.35,0,0,0,.37.14,10.92,10.92,0,0,1,9.17,8.86c.15.78.45.9,1.12.89q8.19,0,16.38,0a6.28,6.28,0,0,1,6.41,5A1.51,1.51,0,0,0,168.77,97.55ZM86.1,137.1l.23.11a7.93,7.93,0,0,1,.59-.71l19.93-19.93c1.21-1.21,1.6-1.21,2.8,0l24,24q12,12,24,24a1.65,1.65,0,0,0,1,.52c1.39.06,2.78.07,4.16,0a3.59,3.59,0,0,0,2.95-1.77c-.28-.23-.53-.4-.75-.62l-18.82-18.82L140,137.75c-.87-.88-.87-1.43,0-2.33l.41-.42q12.63-13.05,25.29-26.1a1.87,1.87,0,0,0,.58-1.46c0-2,0-4.1,0-6.15V99.06c-1.38,1.31-2.76,2.58-4.09,3.91-2.15,2.15-4.27,4.35-6.41,6.52-.72.73-1.54.73-2.05,0s-.24-1.23.29-1.77c2.53-2.56,5-5.14,7.57-7.72l3.79-3.86a3.64,3.64,0,0,0-2.9-1.35h-16.8c-.4,0-.79-.1-.87.56A34.74,34.74,0,0,1,140,109.05a15.81,15.81,0,0,1-3.64,4.5c-1.68,1.33-3.18,1.4-4.83.08a13.58,13.58,0,0,1-2.34-2.45,31.62,31.62,0,0,1-4.61-9.17c-.76-2.33-1.29-4.73-1.93-7.14H100.85l33.27,33.27a5.54,5.54,0,0,1,.47-.6q6.87-7,13.74-14a5.92,5.92,0,0,1,.73-.69,1.24,1.24,0,0,1,1.75,1.65,4,4,0,0,1-.54.62l-15,15.33c-1,1-1.52,1-2.57,0l-13.05-13q-11-11-22-22a1.8,1.8,0,0,0-1.11-.56c-2.16,0-4.33,0-6.49,0a15.18,15.18,0,0,0-1.82.27l.77.8,13.29,13.29c1.09,1.09,1.09,1.55,0,2.63-4.94,4.94-9.85,9.9-14.84,14.79a4,4,0,0,0-1.38,3.31C86.18,132.3,86.1,134.7,86.1,137.1Zm22.12-18.33c-.12.1-.23.19-.32.28q-10.71,10.7-21.39,21.41a1.56,1.56,0,0,0-.4,1q0,9.85,0,19.71A3.73,3.73,0,0,0,90,165.09h63.85c.19,0,.39-.05.61-.07Zm58,41.48V112l-23.76,24.53ZM125.3,93.68c0,.53,0,1.06.12,1.58a34.56,34.56,0,0,0,5,13.27,22.73,22.73,0,0,0,2.65,3.17,1.07,1.07,0,0,0,1.63,0,12.74,12.74,0,0,0,1.46-1.48,32.47,32.47,0,0,0,5.84-13,12.77,12.77,0,0,0,.24-5.6,8.57,8.57,0,0,0-16.93,2.05ZM99.85,110.51,86.58,96.82c-.51,1.09-.74,25.64-.39,27.34Z"/><path class="cls-3" d="M119.74,141.46a31.06,31.06,0,0,1-3,11.65,26.18,26.18,0,0,1-4.09,6.71,11.61,11.61,0,0,1-2.17,1.91,2.91,2.91,0,0,1-3.58,0,11.1,11.1,0,0,1-2.52-2.36,33.91,33.91,0,0,1-6.7-17.53c-.62-8.07,7.8-14,15.26-10.84,1,.41,1.28.94,1,1.69s-.92,1-1.92.64a8.52,8.52,0,0,0-11.79,9.05A31.82,31.82,0,0,0,106.45,158c1.76,2.37,2.65,2.38,4.42.06a30.84,30.84,0,0,0,6.35-16.16,8.25,8.25,0,0,0-.79-4.36,1.22,1.22,0,0,1,.57-1.8c.73-.31,1.31,0,1.72.82A10.67,10.67,0,0,1,119.74,141.46Z"/><path class="cls-3" d="M102.88,141.43a5.82,5.82,0,1,1,5.76,5.86A5.81,5.81,0,0,1,102.88,141.43Zm2.49,0a3.31,3.31,0,0,0,3.29,3.36,3.33,3.33,0,0,0,.06-6.66A3.31,3.31,0,0,0,105.37,141.44Z"/><path class="cls-3" d="M139.68,93.71a5.82,5.82,0,1,1-5.83-5.8A5.81,5.81,0,0,1,139.68,93.71Zm-5.84,3.36a3.34,3.34,0,0,0,.06-6.67,3.37,3.37,0,0,0-3.37,3.31A3.34,3.34,0,0,0,133.84,97.07Z"/></svg>