<svg id="Layer_1" data-name="Layer 1" xmlns="http://www.w3.org/2000/svg" viewBox="0 0 654 250"><defs><style>.cls-1{fill:none;stroke:#49773d;stroke-miterlimit:10;stroke-width:2.6px;}.cls-2{fill:#49773d;}.cls-3{opacity:0.15;}.cls-4{fill:#fff;}</style></defs><polygon class="cls-1" points="12.41 125 126.3 238.89 528.28 238.89 642.17 125 528.28 11.11 126.3 11.11 12.41 125"/><path class="cls-2" d="M311.53,78.79V91.57h-2.95V86.33h-5.81v5.24h-3V78.79h3v5h5.81v-5Z"/><path class="cls-2" d="M324.46,89.2v2.37h-9.9V78.79h9.66v2.38H317.5v2.77h5.94v2.3H317.5v3Z"/><path class="cls-2" d="M335.23,88.83H329.3l-1.14,2.74h-3l5.7-12.78h2.92l5.71,12.78h-3.1Zm-.93-2.24-2-4.89-2,4.89Z"/><path class="cls-2" d="M340.8,78.79h2.95V89.16h6.41v2.41H340.8Z"/><path class="cls-2" d="M353.28,81.2h-4.09V78.79h11.14V81.2h-4.09V91.57h-3Z"/><path class="cls-2" d="M373.64,78.79V91.57h-3V86.33h-5.81v5.24h-2.95V78.79h2.95v5h5.81v-5Z"/><path class="cls-2" d="M390.31,79.36A4.34,4.34,0,0,1,392.24,81a4.4,4.4,0,0,1,.67,2.46,4.45,4.45,0,0,1-.67,2.46,4.26,4.26,0,0,1-1.93,1.6,7.19,7.19,0,0,1-2.95.56h-2.57v3.52h-3V78.79h5.53A7,7,0,0,1,390.31,79.36Zm-1.08,5.7a2,2,0,0,0,.69-1.63,2,2,0,0,0-.69-1.65,3.09,3.09,0,0,0-2-.58h-2.41v4.44h2.41A3.09,3.09,0,0,0,389.23,85.06Z"/><path class="cls-2" d="M403.15,91.57,400.69,88H398v3.56h-3V78.79h5.53a7,7,0,0,1,2.95.57A4.34,4.34,0,0,1,405.42,81a4.36,4.36,0,0,1-2,6.49l2.87,4.11Zm-.74-9.79a3.09,3.09,0,0,0-2-.58H398v4.46h2.41a3.09,3.09,0,0,0,2-.59,2.31,2.31,0,0,0,0-3.29Z"/><path class="cls-2" d="M416.85,88.83h-5.94l-1.13,2.74h-3l5.7-12.78h2.92l5.71,12.78H418Zm-.94-2.24-2-4.89-2,4.89Z"/><path class="cls-2" d="M424.81,90.94a6.3,6.3,0,0,1-2.48-2.35,6.89,6.89,0,0,1,0-6.81,6.33,6.33,0,0,1,2.48-2.36,7.9,7.9,0,0,1,6.56-.26,6.06,6.06,0,0,1,2.25,1.68l-1.9,1.75a4.06,4.06,0,0,0-3.21-1.5,4.35,4.35,0,0,0-2.12.52,3.7,3.7,0,0,0-1.45,1.46,4.56,4.56,0,0,0,0,4.23,3.74,3.74,0,0,0,1.45,1.45,4.24,4.24,0,0,0,2.12.52,4,4,0,0,0,3.21-1.51l1.9,1.75a6,6,0,0,1-2.26,1.7,7.52,7.52,0,0,1-3,.58A7.3,7.3,0,0,1,424.81,90.94Z"/><path class="cls-2" d="M438.13,81.2H434V78.79h11.14V81.2h-4.09V91.57h-3Z"/><path class="cls-2" d="M446.76,78.79h3V91.57h-3Z"/><path class="cls-2" d="M455.4,81.2h-4.09V78.79h11.13V81.2h-4.09V91.57h-3Z"/><path class="cls-2" d="M464,78.79h3V91.57h-3Z"/><path class="cls-2" d="M472.62,90.93a6.39,6.39,0,0,1-2.5-2.36,6.82,6.82,0,0,1,0-6.77,6.34,6.34,0,0,1,2.5-2.37,7.9,7.9,0,0,1,7.17,0,6.52,6.52,0,0,1,0,11.5,7.9,7.9,0,0,1-7.17,0Zm5.63-2.18a3.69,3.69,0,0,0,1.43-1.45,4.49,4.49,0,0,0,0-4.23,3.65,3.65,0,0,0-1.43-1.46,4.28,4.28,0,0,0-4.09,0,3.72,3.72,0,0,0-1.43,1.46,4.56,4.56,0,0,0,0,4.23,3.76,3.76,0,0,0,1.43,1.45,4.28,4.28,0,0,0,4.09,0Z"/><path class="cls-2" d="M497.15,78.79V91.57h-2.43l-6.37-7.76v7.76h-2.92V78.79h2.44l6.35,7.76V78.79Z"/><path class="cls-2" d="M510.07,89.2v2.37h-9.89V78.79h9.65v2.38h-6.72v2.77h5.94v2.3h-5.94v3Z"/><path class="cls-2" d="M520.57,91.57,518.1,88h-2.72v3.56h-3V78.79H518a7,7,0,0,1,2.94.57A4.34,4.34,0,0,1,522.83,81a4.4,4.4,0,0,1,.68,2.46,4.16,4.16,0,0,1-2.63,4l2.86,4.11Zm-.75-9.79a3.09,3.09,0,0,0-2-.58h-2.41v4.46h2.41a3.09,3.09,0,0,0,2-.59,2.31,2.31,0,0,0,0-3.29Z"/><path class="cls-2" d="M527.11,91.38a6.76,6.76,0,0,1-2.27-1.07l1-2.22a6.76,6.76,0,0,0,2,1,7.09,7.09,0,0,0,2.26.37,3.59,3.59,0,0,0,1.86-.38,1.13,1.13,0,0,0,.6-1,1,1,0,0,0-.35-.76,2.66,2.66,0,0,0-.92-.48c-.37-.12-.87-.26-1.5-.4a22.34,22.34,0,0,1-2.39-.7,3.86,3.86,0,0,1-1.6-1.11,3,3,0,0,1-.67-2,3.48,3.48,0,0,1,.61-2,4,4,0,0,1,1.81-1.44,7.48,7.48,0,0,1,3-.53,9.6,9.6,0,0,1,2.39.3,6.72,6.72,0,0,1,2,.84L534,82a7.11,7.11,0,0,0-3.54-1,3.27,3.27,0,0,0-1.83.4,1.23,1.23,0,0,0-.6,1.06,1,1,0,0,0,.69,1,9.67,9.67,0,0,0,2.09.63,23.06,23.06,0,0,1,2.39.7,4,4,0,0,1,1.6,1.09,3,3,0,0,1,.66,2,3.47,3.47,0,0,1-.61,2A4.13,4.13,0,0,1,533,91.26a7.56,7.56,0,0,1-3,.53A10.58,10.58,0,0,1,527.11,91.38Z"/><path class="cls-2" d="M283,110.74h-5.93L276,113.48h-3l5.69-12.78h2.92l5.72,12.78h-3.11Zm-.93-2.25-2-4.89-2,4.89Z"/><path class="cls-2" d="M300.31,100.7v12.78h-2.43l-6.37-7.76v7.76h-2.92V100.7H291l6.36,7.76V100.7Z"/><path class="cls-2" d="M303.34,100.7h5.8a8.13,8.13,0,0,1,3.68.79,5.93,5.93,0,0,1,2.48,2.24,6.79,6.79,0,0,1,0,6.72,5.91,5.91,0,0,1-2.48,2.23,8.14,8.14,0,0,1-3.68.8h-5.8ZM309,111.05a4.28,4.28,0,0,0,3.05-1.07,4.22,4.22,0,0,0,0-5.79,4.27,4.27,0,0,0-3.05-1.06h-2.7v7.92Z"/><path class="cls-2" d="M332.22,106.89h2.7v5.18a7.91,7.91,0,0,1-2.41,1.21,9.34,9.34,0,0,1-2.76.42,7.5,7.5,0,0,1-3.57-.85,6.38,6.38,0,0,1-2.5-2.36,6.89,6.89,0,0,1,0-6.81,6.32,6.32,0,0,1,2.51-2.35,7.58,7.58,0,0,1,3.62-.85,7.89,7.89,0,0,1,3.05.57,6,6,0,0,1,2.3,1.64l-1.9,1.75A4.4,4.4,0,0,0,330,103a4.52,4.52,0,0,0-2.17.51A3.73,3.73,0,0,0,326.3,105a4.55,4.55,0,0,0,0,4.26,3.79,3.79,0,0,0,1.47,1.45,4.44,4.44,0,0,0,2.15.52,4.85,4.85,0,0,0,2.3-.55Z"/><path class="cls-2" d="M340.26,112.84a6.28,6.28,0,0,1-2.5-2.37,6.51,6.51,0,0,1,2.5-9.13,7.88,7.88,0,0,1,7.16,0,6.52,6.52,0,0,1,0,11.5,7.88,7.88,0,0,1-7.16,0Zm5.63-2.18a3.69,3.69,0,0,0,1.43-1.45,4.58,4.58,0,0,0,0-4.24,3.69,3.69,0,0,0-1.43-1.45,4.28,4.28,0,0,0-4.09,0,3.76,3.76,0,0,0-1.43,1.45,4.58,4.58,0,0,0,0,4.24,3.76,3.76,0,0,0,1.43,1.45,4.28,4.28,0,0,0,4.09,0Z"/><path class="cls-2" d="M364.93,100.7l-5.53,12.78h-2.92L351,100.7h3.19l3.89,9.13L362,100.7Z"/><path class="cls-2" d="M375.88,111.1v2.38H366V100.7h9.65v2.37h-6.71v2.78h5.93v2.3h-5.93v2.95Z"/><path class="cls-2" d="M386.38,113.48l-2.47-3.56h-2.72v3.56h-2.95V100.7h5.53a7.25,7.25,0,0,1,3,.56,4.26,4.26,0,0,1,2.6,4.08,4.18,4.18,0,0,1-2.63,4l2.86,4.11Zm-.75-9.8a3.13,3.13,0,0,0-2-.57h-2.41v4.45h2.41a3.07,3.07,0,0,0,2-.58,2.32,2.32,0,0,0,0-3.3Z"/><path class="cls-2" d="M403.37,100.7v12.78h-2.43l-6.37-7.76v7.76h-2.92V100.7h2.45l6.35,7.76V100.7Z"/><path class="cls-2" d="M418,113.48l0-7.67-3.76,6.32h-1.33L409.18,106v7.51H406.4V100.7h2.45l4.78,7.94,4.71-7.94h2.43l0,12.78Z"/><path class="cls-2" d="M433.73,111.1v2.38h-9.89V100.7h9.65v2.37h-6.72v2.78h5.94v2.3h-5.94v2.95Z"/><path class="cls-2" d="M447.8,100.7v12.78h-2.42L439,105.72v7.76h-2.93V100.7h2.45l6.35,7.76V100.7Z"/><path class="cls-2" d="M453.48,103.11h-4.09V100.7h11.14v2.41h-4.09v10.37h-3Z"/><path class="cls-2" d="M469.88,112.84a6.34,6.34,0,0,1-2.5-2.37,6.51,6.51,0,0,1,2.5-9.13,7.9,7.9,0,0,1,7.17,0,6.37,6.37,0,0,1,3.41,5.75,6.4,6.4,0,0,1-3.41,5.75,7.9,7.9,0,0,1-7.17,0Zm5.63-2.18a3.78,3.78,0,0,0,1.44-1.45,4.58,4.58,0,0,0,0-4.24,3.78,3.78,0,0,0-1.44-1.45,4.26,4.26,0,0,0-4.08,0A3.78,3.78,0,0,0,470,105a4.58,4.58,0,0,0,0,4.24,3.78,3.78,0,0,0,1.44,1.45,4.26,4.26,0,0,0,4.08,0Z"/><path class="cls-2" d="M485.65,103.07v3.38h5.91v2.37h-5.91v4.66h-3V100.7h9.66v2.37Z"/><path class="cls-2" d="M497.31,103.07v3.38h5.91v2.37h-5.91v4.66h-3V100.7H504v2.37Z"/><path class="cls-2" d="M506,100.7h3v12.78h-3Z"/><path class="cls-2" d="M514.59,112.85a6.36,6.36,0,0,1-2.49-2.36,6.89,6.89,0,0,1,0-6.81,6.33,6.33,0,0,1,2.49-2.35,7.31,7.31,0,0,1,3.55-.85,7.4,7.4,0,0,1,3,.58,6,6,0,0,1,2.26,1.68l-1.9,1.76a4.1,4.1,0,0,0-3.22-1.5,4.21,4.21,0,0,0-2.11.52,3.68,3.68,0,0,0-1.45,1.45,4.58,4.58,0,0,0,0,4.24,3.68,3.68,0,0,0,1.45,1.45,4.31,4.31,0,0,0,2.11.52,4.09,4.09,0,0,0,3.22-1.52l1.9,1.75a5.89,5.89,0,0,1-2.27,1.7,7.48,7.48,0,0,1-3,.59A7.4,7.4,0,0,1,514.59,112.85Z"/><path class="cls-2" d="M535.28,111.1v2.38h-9.9V100.7H535v2.37h-6.72v2.78h5.94v2.3h-5.94v2.95Z"/><path class="cls-2" d="M545.77,113.48l-2.46-3.56h-2.72v3.56h-3V100.7h5.53a7.19,7.19,0,0,1,3,.56,4.22,4.22,0,0,1,2.6,4.08,4.32,4.32,0,0,1-.68,2.45,4.36,4.36,0,0,1-1.94,1.58l2.86,4.11Zm-.74-9.8a3.15,3.15,0,0,0-2-.57h-2.41v4.45H543a3.09,3.09,0,0,0,2-.58,2.32,2.32,0,0,0,0-3.3Z"/><path class="cls-2" d="M552.32,113.29a7,7,0,0,1-2.27-1.07l1-2.23a7.11,7.11,0,0,0,2,1,7.47,7.47,0,0,0,2.27.36,3.6,3.6,0,0,0,1.86-.37,1.13,1.13,0,0,0,.6-1,1,1,0,0,0-.35-.75,2.77,2.77,0,0,0-.92-.49c-.37-.12-.87-.25-1.5-.4a20.45,20.45,0,0,1-2.39-.69,3.82,3.82,0,0,1-1.6-1.12,3,3,0,0,1-.67-2,3.58,3.58,0,0,1,.6-2,4.1,4.1,0,0,1,1.82-1.43,7.48,7.48,0,0,1,3-.53,10.09,10.09,0,0,1,2.39.29,7.27,7.27,0,0,1,2,.84l-.91,2.25a7.12,7.12,0,0,0-3.54-1,3.42,3.42,0,0,0-1.84.4,1.25,1.25,0,0,0-.59,1.06,1,1,0,0,0,.69,1,11,11,0,0,0,2.09.63,21,21,0,0,1,2.39.69,3.9,3.9,0,0,1,1.59,1.1,2.9,2.9,0,0,1,.67,2,3.45,3.45,0,0,1-.61,2,4.12,4.12,0,0,1-1.84,1.44,7.48,7.48,0,0,1-3,.53A10.58,10.58,0,0,1,552.32,113.29Z"/><path class="cls-2" d="M370.09,26.85V61.54h-8V33.3h-6.94V26.85Z"/><path class="cls-2" d="M384.16,53.64a4.6,4.6,0,0,1,1.34,3.44,8.39,8.39,0,0,1-.25,2,23.31,23.31,0,0,1-1.09,3l-2.82,7.14h-4.91l2.18-7.88a4.08,4.08,0,0,1-2-1.61,4.68,4.68,0,0,1-.72-2.6,4.55,4.55,0,0,1,1.37-3.44,4.74,4.74,0,0,1,3.44-1.32A4.66,4.66,0,0,1,384.16,53.64Z"/><path class="cls-2" d="M412.8,44.37a9.36,9.36,0,0,1,2.43,6.56,10.34,10.34,0,0,1-1.59,5.58,11.13,11.13,0,0,1-4.83,4.09,18.57,18.57,0,0,1-7.95,1.53,27.41,27.41,0,0,1-7.21-1,18.68,18.68,0,0,1-6-2.75l3.12-6.15a15.29,15.29,0,0,0,4.58,2.31,17.85,17.85,0,0,0,5.33.81,8.45,8.45,0,0,0,4.76-1.16,3.75,3.75,0,0,0,1.73-3.3q0-4.26-6.49-4.26H397v-5.3l7.14-8.07H389.36V26.85h24.28v5.21L405.81,41A11.64,11.64,0,0,1,412.8,44.37Z"/><path class="cls-2" d="M426.13,60a14.22,14.22,0,0,1-5.28-6.17,22.38,22.38,0,0,1-1.91-9.63,22.4,22.4,0,0,1,1.91-9.64,14.28,14.28,0,0,1,5.28-6.17,14.91,14.91,0,0,1,15.36,0,14.33,14.33,0,0,1,5.27,6.17,22.4,22.4,0,0,1,1.91,9.64,22.38,22.38,0,0,1-1.91,9.63A14.27,14.27,0,0,1,441.49,60a14.91,14.91,0,0,1-15.36,0Zm12.66-7.38q1.8-2.73,1.8-8.42t-1.8-8.43a5.69,5.69,0,0,0-5-2.72,5.62,5.62,0,0,0-4.93,2.72q-1.81,2.73-1.81,8.43t1.81,8.42a5.6,5.6,0,0,0,4.93,2.72A5.67,5.67,0,0,0,438.79,52.62Z"/><path class="cls-2" d="M475.28,44.37a9.36,9.36,0,0,1,2.43,6.56,10.34,10.34,0,0,1-1.59,5.58,11.13,11.13,0,0,1-4.83,4.09,18.57,18.57,0,0,1-8,1.53,27.41,27.41,0,0,1-7.21-1,18.58,18.58,0,0,1-6-2.75l3.12-6.15a15.29,15.29,0,0,0,4.58,2.31,17.85,17.85,0,0,0,5.33.81,8.39,8.39,0,0,0,4.75-1.16,3.74,3.74,0,0,0,1.74-3.3q0-4.26-6.49-4.26h-3.67v-5.3l7.14-8.07H451.84V26.85h24.28v5.21L468.29,41A11.64,11.64,0,0,1,475.28,44.37Z"/><path d="M321.33,142.53a2.21,2.21,0,0,0,1.43-.5,1.72,1.72,0,0,0,.68-1.24h1.45a2.86,2.86,0,0,1-.53,1.47,3.57,3.57,0,0,1-1.31,1.11,3.79,3.79,0,0,1-1.72.41,3.7,3.7,0,0,1-2.91-1.22,4.88,4.88,0,0,1-1.08-3.34V139a5.38,5.38,0,0,1,.48-2.32,3.61,3.61,0,0,1,1.38-1.58,3.86,3.86,0,0,1,2.12-.57,3.53,3.53,0,0,1,2.5.91,3.23,3.23,0,0,1,1.07,2.34h-1.45a2.07,2.07,0,0,0-.66-1.43,2,2,0,0,0-1.46-.56,2.15,2.15,0,0,0-1.81.84,4,4,0,0,0-.64,2.43v.29a3.81,3.81,0,0,0,.64,2.38A2.14,2.14,0,0,0,321.33,142.53Z"/><path d="M332.14,143.61a3.22,3.22,0,0,1-.22-.94,3.41,3.41,0,0,1-2.55,1.11,3.16,3.16,0,0,1-2.17-.75,2.44,2.44,0,0,1-.85-1.9,2.53,2.53,0,0,1,1.07-2.17,5,5,0,0,1,3-.78h1.49v-.7a1.74,1.74,0,0,0-.48-1.28,2,2,0,0,0-1.42-.47,2.21,2.21,0,0,0-1.37.41,1.22,1.22,0,0,0-.55,1h-1.54a2.05,2.05,0,0,1,.47-1.29,3.23,3.23,0,0,1,1.29-1,4.26,4.26,0,0,1,1.8-.37,3.52,3.52,0,0,1,2.42.78,2.78,2.78,0,0,1,.91,2.13v4.12a5.22,5.22,0,0,0,.31,2v.13Zm-2.54-1.16a2.66,2.66,0,0,0,1.36-.38,2.23,2.23,0,0,0,.94-1v-1.84h-1.2c-1.88,0-2.81.55-2.81,1.65a1.41,1.41,0,0,0,.47,1.12A1.87,1.87,0,0,0,329.6,142.45Z"/><path d="M343.39,139.24a5.37,5.37,0,0,1-.93,3.29,3,3,0,0,1-2.53,1.25,3.29,3.29,0,0,1-2.57-1v4.32h-1.53v-12.4h1.4l.07,1a3.17,3.17,0,0,1,2.6-1.16,3.07,3.07,0,0,1,2.56,1.22,5.46,5.46,0,0,1,.93,3.39Zm-1.53-.18a3.94,3.94,0,0,0-.64-2.39,2.09,2.09,0,0,0-1.77-.88,2.24,2.24,0,0,0-2.09,1.24v4.28a2.26,2.26,0,0,0,2.1,1.22,2.06,2.06,0,0,0,1.75-.87A4.3,4.3,0,0,0,341.86,139.06Z"/><path d="M350.87,143.61a3.22,3.22,0,0,1-.22-.94,3.41,3.41,0,0,1-2.55,1.11,3.16,3.16,0,0,1-2.17-.75,2.44,2.44,0,0,1-.85-1.9,2.53,2.53,0,0,1,1.07-2.17,5,5,0,0,1,3-.78h1.49v-.7a1.74,1.74,0,0,0-.48-1.28,2,2,0,0,0-1.42-.47,2.21,2.21,0,0,0-1.37.41,1.23,1.23,0,0,0-.56,1h-1.54a2.07,2.07,0,0,1,.48-1.29,3.23,3.23,0,0,1,1.29-1,4.25,4.25,0,0,1,1.79-.37,3.53,3.53,0,0,1,2.43.78,2.78,2.78,0,0,1,.91,2.13v4.12a5,5,0,0,0,.31,2v.13Zm-2.54-1.16a2.66,2.66,0,0,0,1.36-.38,2.28,2.28,0,0,0,.94-1v-1.84h-1.2q-2.82,0-2.82,1.65a1.38,1.38,0,0,0,.48,1.12A1.87,1.87,0,0,0,348.33,142.45Z"/><path d="M358.15,142.53a2.19,2.19,0,0,0,1.43-.5,1.72,1.72,0,0,0,.68-1.24h1.45a2.77,2.77,0,0,1-.53,1.47,3.53,3.53,0,0,1-1.3,1.11,3.86,3.86,0,0,1-1.73.41,3.7,3.7,0,0,1-2.91-1.22,4.88,4.88,0,0,1-1.08-3.34V139a5.38,5.38,0,0,1,.48-2.32,3.61,3.61,0,0,1,1.38-1.58,3.89,3.89,0,0,1,2.12-.57,3.57,3.57,0,0,1,2.51.91,3.22,3.22,0,0,1,1.06,2.34h-1.45a2.07,2.07,0,0,0-.66-1.43,2,2,0,0,0-1.46-.56,2.13,2.13,0,0,0-1.8.84,3.93,3.93,0,0,0-.65,2.43v.29a3.88,3.88,0,0,0,.64,2.38A2.15,2.15,0,0,0,358.15,142.53Z"/><path d="M363.44,132.28a.94.94,0,0,1,.23-.63.85.85,0,0,1,.67-.25.86.86,0,0,1,.68.25.89.89,0,0,1,.23.63.84.84,0,0,1-.23.62.86.86,0,0,1-.68.25.85.85,0,0,1-.67-.25A.88.88,0,0,1,363.44,132.28Zm1.66,11.33h-1.54v-9h1.54Z"/><path d="M369.62,132.49v2.17h1.68v1.18h-1.68v5.56a1.24,1.24,0,0,0,.23.81.94.94,0,0,0,.76.27,3.44,3.44,0,0,0,.73-.1v1.24a5,5,0,0,1-1.18.16,1.93,1.93,0,0,1-1.55-.62,2.71,2.71,0,0,1-.52-1.76v-5.56h-1.63v-1.18h1.63v-2.17Z"/><path d="M376,141.37l2.09-6.71h1.64L376.14,145c-.56,1.49-1.45,2.23-2.66,2.23l-.29,0-.57-.11v-1.24l.41,0a2.06,2.06,0,0,0,1.22-.31,2.32,2.32,0,0,0,.71-1.15l.34-.92-3.19-8.85h1.67Z"/><path d="M392.88,139.24a5.31,5.31,0,0,1-.94,3.29,3,3,0,0,1-2.54,1.25,3.12,3.12,0,0,1-2.62-1.2l-.07,1H385.3V130.9h1.53v4.74a3.13,3.13,0,0,1,2.56-1.15,3,3,0,0,1,2.56,1.24,5.46,5.46,0,0,1,.93,3.37Zm-1.53-.18a4.12,4.12,0,0,0-.6-2.41,2,2,0,0,0-1.74-.86,2.25,2.25,0,0,0-2.18,1.41v3.87a2.31,2.31,0,0,0,2.19,1.41,2,2,0,0,0,1.72-.85A4.41,4.41,0,0,0,391.35,139.06Z"/><path d="M400.34,142.73a3.26,3.26,0,0,1-2.63,1.05,2.8,2.8,0,0,1-2.18-.83,3.58,3.58,0,0,1-.75-2.46v-5.83h1.53v5.78q0,2,1.65,2a2.31,2.31,0,0,0,2.34-1.31v-6.51h1.53v9h-1.46Z"/><path d="M404.16,132.28a.94.94,0,0,1,.23-.63.85.85,0,0,1,.67-.25.86.86,0,0,1,.68.25.89.89,0,0,1,.23.63.84.84,0,0,1-.23.62.86.86,0,0,1-.68.25.85.85,0,0,1-.67-.25A.88.88,0,0,1,404.16,132.28Zm1.66,11.33h-1.53v-9h1.53Z"/><path d="M409.93,143.61H408.4V130.9h1.53Z"/><path d="M412,139.06a5.23,5.23,0,0,1,1-3.31,3.32,3.32,0,0,1,5-.18V130.9h1.53v12.71h-1.4l-.08-1a3.11,3.11,0,0,1-2.55,1.13A3.06,3.06,0,0,1,413,142.5a5.29,5.29,0,0,1-1-3.32Zm1.53.18a4,4,0,0,0,.63,2.38,2,2,0,0,0,1.74.86,2.22,2.22,0,0,0,2.12-1.31v-4.11a2.24,2.24,0,0,0-2.11-1.27,2,2,0,0,0-1.75.87A4.38,4.38,0,0,0,413.54,139.24Z"/><path d="M422,132.28a.94.94,0,0,1,.23-.63.84.84,0,0,1,.67-.25.86.86,0,0,1,.68.25.94.94,0,0,1,.23.63.88.88,0,0,1-.23.62.86.86,0,0,1-.68.25.84.84,0,0,1-.67-.25A.88.88,0,0,1,422,132.28Zm1.65,11.33h-1.53v-9h1.53Z"/><path d="M427.5,134.66l.05,1.12a3.27,3.27,0,0,1,2.68-1.29c1.9,0,2.85,1.07,2.87,3.21v5.91h-1.53v-5.92a2.07,2.07,0,0,0-.45-1.43,1.77,1.77,0,0,0-1.35-.47,2.26,2.26,0,0,0-1.31.4,2.69,2.69,0,0,0-.87,1v6.38h-1.54v-9Z"/><path d="M435,139.06a5.32,5.32,0,0,1,1-3.33,3.12,3.12,0,0,1,2.57-1.24,3.07,3.07,0,0,1,2.55,1.16l.08-1h1.4v8.74a3.67,3.67,0,0,1-1,2.74,3.8,3.8,0,0,1-2.77,1,4.71,4.71,0,0,1-1.9-.41,3.3,3.3,0,0,1-1.41-1.14l.79-.92a3,3,0,0,0,2.41,1.22,2.32,2.32,0,0,0,1.74-.63,2.39,2.39,0,0,0,.63-1.77v-.77a3.14,3.14,0,0,1-2.51,1.06,3.06,3.06,0,0,1-2.55-1.27A5.57,5.57,0,0,1,435,139.06Zm1.54.18a4.05,4.05,0,0,0,.62,2.38,2,2,0,0,0,1.74.86,2.24,2.24,0,0,0,2.13-1.32v-4.08a2.27,2.27,0,0,0-2.11-1.29,2,2,0,0,0-1.75.87A4.38,4.38,0,0,0,436.58,139.24Z"/><path d="M454.33,141.24a1.14,1.14,0,0,0-.47-1,4.8,4.8,0,0,0-1.63-.59,7.61,7.61,0,0,1-1.85-.59,2.67,2.67,0,0,1-1-.83,2,2,0,0,1-.32-1.14,2.33,2.33,0,0,1,.93-1.87,3.67,3.67,0,0,1,2.38-.76,3.77,3.77,0,0,1,2.47.79,2.49,2.49,0,0,1,.95,2h-1.54a1.36,1.36,0,0,0-.54-1.08,2,2,0,0,0-1.34-.46,2,2,0,0,0-1.31.37,1.15,1.15,0,0,0-.47.95.9.9,0,0,0,.44.83,5.26,5.26,0,0,0,1.58.54,8.43,8.43,0,0,1,1.86.61,2.72,2.72,0,0,1,1.05.86,2.09,2.09,0,0,1,.35,1.22,2.31,2.31,0,0,1-1,1.93,4,4,0,0,1-2.49.72,4.58,4.58,0,0,1-1.91-.38,3.08,3.08,0,0,1-1.29-1.06,2.6,2.6,0,0,1-.47-1.48h1.53a1.61,1.61,0,0,0,.62,1.22,2.39,2.39,0,0,0,1.52.45,2.49,2.49,0,0,0,1.39-.35A1.1,1.1,0,0,0,454.33,141.24Z"/><path d="M461.57,143.78a3.9,3.9,0,0,1-3-1.2,4.43,4.43,0,0,1-1.15-3.2v-.28a5.37,5.37,0,0,1,.51-2.38,4,4,0,0,1,1.43-1.63,3.54,3.54,0,0,1,2-.6,3.36,3.36,0,0,1,2.71,1.15,5,5,0,0,1,1,3.3v.64H459a3.16,3.16,0,0,0,.77,2.13,2.41,2.41,0,0,0,1.88.82,2.71,2.71,0,0,0,1.38-.33,3.4,3.4,0,0,0,1-.88l.94.73A3.77,3.77,0,0,1,461.57,143.78Zm-.19-8a2.05,2.05,0,0,0-1.56.68,3.21,3.21,0,0,0-.77,1.89h4.48v-.12a2.87,2.87,0,0,0-.63-1.81A1.93,1.93,0,0,0,461.38,135.75Z"/><path d="M468.27,134.66l.05,1a3.3,3.3,0,0,1,2.65-1.16,2.56,2.56,0,0,1,2.56,1.44,3.34,3.34,0,0,1,2.86-1.44q2.94,0,3,3.12v6h-1.53V137.7a2.06,2.06,0,0,0-.44-1.43,1.91,1.91,0,0,0-1.47-.48,2,2,0,0,0-1.42.51,2.09,2.09,0,0,0-.65,1.37v5.94h-1.54v-5.86a1.71,1.71,0,0,0-1.91-2,2,2,0,0,0-2.06,1.29v6.53h-1.53v-9Z"/><path d="M481.7,132.28a.89.89,0,0,1,.23-.63.84.84,0,0,1,.67-.25.86.86,0,0,1,.68.25.94.94,0,0,1,.23.63.88.88,0,0,1-.23.62.86.86,0,0,1-.68.25.83.83,0,0,1-.9-.87Zm1.65,11.33h-1.53v-9h1.53Z"/><path d="M487.25,134.66l.05,1.12a3.27,3.27,0,0,1,2.68-1.29c1.9,0,2.85,1.07,2.87,3.21v5.91h-1.53v-5.92a2.07,2.07,0,0,0-.45-1.43,1.77,1.77,0,0,0-1.35-.47,2.26,2.26,0,0,0-1.31.4,2.71,2.71,0,0,0-.88,1v6.38H485.8v-9Z"/><path d="M500.68,143.61a3.29,3.29,0,0,1-.21-.94,3.41,3.41,0,0,1-2.55,1.11,3.15,3.15,0,0,1-2.17-.75,2.41,2.41,0,0,1-.85-1.9A2.52,2.52,0,0,1,496,139a5,5,0,0,1,3-.78h1.48v-.7a1.77,1.77,0,0,0-.47-1.28,2,2,0,0,0-1.42-.47,2.19,2.19,0,0,0-1.37.41,1.23,1.23,0,0,0-.56,1h-1.54a2.07,2.07,0,0,1,.48-1.29,3.1,3.1,0,0,1,1.29-1,4.22,4.22,0,0,1,1.79-.37,3.55,3.55,0,0,1,2.43.78,2.82,2.82,0,0,1,.91,2.13v4.12a5,5,0,0,0,.31,2v.13Zm-2.54-1.16a2.7,2.7,0,0,0,1.37-.38,2.2,2.2,0,0,0,.93-1v-1.84h-1.2c-1.87,0-2.81.55-2.81,1.65a1.38,1.38,0,0,0,.48,1.12A1.84,1.84,0,0,0,498.14,142.45Z"/><path d="M508.71,136A4.59,4.59,0,0,0,508,136a2,2,0,0,0-2,1.29v6.35h-1.53v-9h1.49l0,1a2.39,2.39,0,0,1,2.14-1.2,1.56,1.56,0,0,1,.68.12Z"/><path d="M515.33,141.24a1.14,1.14,0,0,0-.47-1,4.8,4.8,0,0,0-1.63-.59,7.61,7.61,0,0,1-1.85-.59,2.67,2.67,0,0,1-1-.83,2,2,0,0,1-.32-1.14,2.33,2.33,0,0,1,.93-1.87,3.67,3.67,0,0,1,2.38-.76,3.77,3.77,0,0,1,2.47.79,2.48,2.48,0,0,1,.94,2h-1.53a1.36,1.36,0,0,0-.54-1.08,2,2,0,0,0-1.34-.46,2,2,0,0,0-1.31.37,1.13,1.13,0,0,0-.47.95.9.9,0,0,0,.44.83,5.26,5.26,0,0,0,1.58.54,8.8,8.8,0,0,1,1.86.61,2.72,2.72,0,0,1,1,.86,2.09,2.09,0,0,1,.35,1.22,2.31,2.31,0,0,1-1,1.93,4,4,0,0,1-2.49.72,4.58,4.58,0,0,1-1.91-.38,3.08,3.08,0,0,1-1.29-1.06,2.6,2.6,0,0,1-.47-1.48h1.53a1.58,1.58,0,0,0,.62,1.22,2.39,2.39,0,0,0,1.52.45,2.49,2.49,0,0,0,1.39-.35A1.1,1.1,0,0,0,515.33,141.24Z"/><path d="M297.45,159.39A5.35,5.35,0,0,1,298,157a3.92,3.92,0,0,1,1.44-1.62,3.87,3.87,0,0,1,2.11-.58,3.8,3.8,0,0,1,3,1.27,4.89,4.89,0,0,1,1.13,3.37v.11a5.36,5.36,0,0,1-.5,2.34,3.78,3.78,0,0,1-1.44,1.62,3.91,3.91,0,0,1-2.13.58,3.77,3.77,0,0,1-3-1.27,4.85,4.85,0,0,1-1.13-3.35Zm1.54.19a3.83,3.83,0,0,0,.69,2.39,2.23,2.23,0,0,0,1.86.9,2.2,2.2,0,0,0,1.85-.91,4.2,4.2,0,0,0,.69-2.57,3.85,3.85,0,0,0-.7-2.38,2.24,2.24,0,0,0-1.86-.92,2.19,2.19,0,0,0-1.83.9A4.22,4.22,0,0,0,299,159.58Z"/><path d="M309,155l0,1.13a3.23,3.23,0,0,1,2.68-1.3q2.84,0,2.86,3.21V164H313V158a2.07,2.07,0,0,0-.44-1.43,1.78,1.78,0,0,0-1.36-.47,2.23,2.23,0,0,0-1.3.4,2.7,2.7,0,0,0-.88,1V164h-1.53V155Z"/><path d="M322.61,156.08a3.27,3.27,0,0,1,2.65-1.25q2.83,0,2.86,3.21V164h-1.53V158a2.12,2.12,0,0,0-.44-1.43,1.79,1.79,0,0,0-1.36-.47,2.28,2.28,0,0,0-1.31.4,2.76,2.76,0,0,0-.87,1V164h-1.53V151.24h1.53Z"/><path d="M330,159.39a5.34,5.34,0,0,1,.51-2.36,3.88,3.88,0,0,1,1.45-1.62,4.09,4.09,0,0,1,5.06.69,4.89,4.89,0,0,1,1.13,3.37v.11a5.36,5.36,0,0,1-.5,2.34,3.76,3.76,0,0,1-1.43,1.62,4,4,0,0,1-2.14.58,3.74,3.74,0,0,1-2.95-1.27A4.8,4.8,0,0,1,330,159.5Zm1.54.19a3.83,3.83,0,0,0,.69,2.39,2.34,2.34,0,0,0,3.7,0,4.2,4.2,0,0,0,.69-2.57,3.78,3.78,0,0,0-.7-2.38,2.24,2.24,0,0,0-1.86-.92,2.21,2.21,0,0,0-1.83.9A4.22,4.22,0,0,0,331.55,159.58Z"/><path d="M348,161.84l1.72-6.84h1.53L348.65,164h-1.24l-2.17-6.78L343.12,164h-1.24l-2.6-8.95h1.52l1.76,6.7,2.09-6.7h1.23Z"/><path d="M359.09,152.83V155h1.67v1.18h-1.67v5.56a1.3,1.3,0,0,0,.22.81,1,1,0,0,0,.77.27,3.36,3.36,0,0,0,.72-.1V164a4.39,4.39,0,0,1-1.17.16,1.92,1.92,0,0,1-1.55-.62,2.64,2.64,0,0,1-.52-1.76v-5.56h-1.63V155h1.63v-2.17Z"/><path d="M362,159.39a5.21,5.21,0,0,1,.52-2.36,3.79,3.79,0,0,1,1.44-1.62,3.83,3.83,0,0,1,2.1-.58,3.79,3.79,0,0,1,3,1.27,4.84,4.84,0,0,1,1.13,3.37v.11a5.22,5.22,0,0,1-.5,2.34,3.76,3.76,0,0,1-1.43,1.62,3.92,3.92,0,0,1-2.14.58,3.75,3.75,0,0,1-2.95-1.27A4.85,4.85,0,0,1,362,159.5Zm1.54.19a3.83,3.83,0,0,0,.69,2.39,2.22,2.22,0,0,0,1.85.9,2.17,2.17,0,0,0,1.85-.91,4.2,4.2,0,0,0,.69-2.57,3.78,3.78,0,0,0-.7-2.38,2.21,2.21,0,0,0-1.86-.92,2.19,2.19,0,0,0-1.82.9A4.16,4.16,0,0,0,363.52,159.58Z"/><path d="M380,164.12a3.91,3.91,0,0,1-3-1.2,4.42,4.42,0,0,1-1.14-3.19v-.29a5.4,5.4,0,0,1,.51-2.38,4,4,0,0,1,1.42-1.63,3.54,3.54,0,0,1,2-.6,3.38,3.38,0,0,1,2.72,1.15,5,5,0,0,1,1,3.3v.64h-6.07a3.17,3.17,0,0,0,.78,2.14,2.43,2.43,0,0,0,1.88.81,2.65,2.65,0,0,0,1.37-.33,3.31,3.31,0,0,0,1-.88l.93.73A3.76,3.76,0,0,1,380,164.12Zm-.2-8a2,2,0,0,0-1.55.68,3.28,3.28,0,0,0-.78,1.89h4.49v-.12a3,3,0,0,0-.63-1.81A2,2,0,0,0,379.77,156.09Z"/><path d="M386.68,155l.05,1.13a3.23,3.23,0,0,1,2.68-1.3c1.89,0,2.85,1.07,2.86,3.21V164h-1.53V158a2,2,0,0,0-.44-1.43,1.77,1.77,0,0,0-1.35-.47,2.23,2.23,0,0,0-1.31.4,2.7,2.7,0,0,0-.88,1V164h-1.53V155Z"/><path d="M399.8,161.58a1.12,1.12,0,0,0-.47-1,4.57,4.57,0,0,0-1.63-.6,7.61,7.61,0,0,1-1.85-.59,2.67,2.67,0,0,1-1-.83,2,2,0,0,1-.32-1.14,2.3,2.3,0,0,1,.93-1.86,3.62,3.62,0,0,1,2.38-.77,3.77,3.77,0,0,1,2.47.79,2.5,2.5,0,0,1,.94,2h-1.53a1.36,1.36,0,0,0-.54-1.08,2,2,0,0,0-1.34-.46,2,2,0,0,0-1.31.37,1.13,1.13,0,0,0-.47.95.9.9,0,0,0,.44.83,5.26,5.26,0,0,0,1.58.54,8.8,8.8,0,0,1,1.86.61,2.72,2.72,0,0,1,1.05.86,2.11,2.11,0,0,1,.35,1.22,2.31,2.31,0,0,1-1,1.93,4,4,0,0,1-2.49.72,4.58,4.58,0,0,1-1.91-.38,3.08,3.08,0,0,1-1.29-1.06,2.6,2.6,0,0,1-.47-1.48h1.53a1.58,1.58,0,0,0,.62,1.22,2.39,2.39,0,0,0,1.52.45,2.49,2.49,0,0,0,1.39-.35A1.1,1.1,0,0,0,399.8,161.58Z"/><path d="M408.85,163.07a3.24,3.24,0,0,1-2.62,1.05,2.79,2.79,0,0,1-2.18-.83,3.59,3.59,0,0,1-.76-2.46V155h1.53v5.78c0,1.36.55,2,1.66,2a2.29,2.29,0,0,0,2.33-1.31V155h1.53V164h-1.46Z"/><path d="M417,156.37a4.62,4.62,0,0,0-.76-.05,2,2,0,0,0-2,1.28V164h-1.53V155h1.49l0,1a2.39,2.39,0,0,1,2.14-1.2,1.56,1.56,0,0,1,.68.12Z"/><path d="M422,164.12a3.9,3.9,0,0,1-3-1.2,4.42,4.42,0,0,1-1.14-3.19v-.29a5.54,5.54,0,0,1,.5-2.38,4,4,0,0,1,1.43-1.63,3.54,3.54,0,0,1,2-.6,3.4,3.4,0,0,1,2.72,1.15,5,5,0,0,1,1,3.3v.64h-6.06a3.21,3.21,0,0,0,.77,2.14,2.43,2.43,0,0,0,1.88.81,2.71,2.71,0,0,0,1.38-.33,3.4,3.4,0,0,0,1-.88l.94.73A3.77,3.77,0,0,1,422,164.12Zm-.19-8a2,2,0,0,0-1.55.68,3.28,3.28,0,0,0-.78,1.89h4.48v-.12a2.87,2.87,0,0,0-.63-1.81A1.93,1.93,0,0,0,421.77,156.09Z"/><path d="M433.5,152.83V155h1.67v1.18H433.5v5.56a1.24,1.24,0,0,0,.22.81,1,1,0,0,0,.76.27,3.44,3.44,0,0,0,.73-.1V164a4.39,4.39,0,0,1-1.17.16,1.92,1.92,0,0,1-1.55-.62,2.64,2.64,0,0,1-.52-1.76v-5.56h-1.63V155H432v-2.17Z"/><path d="M438.49,156.08a3.27,3.27,0,0,1,2.65-1.25c1.89,0,2.85,1.07,2.86,3.21V164h-1.53V158a2,2,0,0,0-.44-1.43,1.77,1.77,0,0,0-1.35-.47,2.23,2.23,0,0,0-1.31.4,2.7,2.7,0,0,0-.88,1V164H437V151.24h1.53Z"/><path d="M450,164.12a3.9,3.9,0,0,1-3-1.2,4.42,4.42,0,0,1-1.14-3.19v-.29a5.54,5.54,0,0,1,.5-2.38,4,4,0,0,1,1.43-1.63,3.54,3.54,0,0,1,2-.6,3.4,3.4,0,0,1,2.72,1.15,5,5,0,0,1,1,3.3v.64h-6.06a3.21,3.21,0,0,0,.77,2.14,2.43,2.43,0,0,0,1.88.81,2.71,2.71,0,0,0,1.38-.33,3.4,3.4,0,0,0,1-.88l.94.73A3.77,3.77,0,0,1,450,164.12Zm-.19-8a2.05,2.05,0,0,0-1.56.68,3.34,3.34,0,0,0-.77,1.89H452v-.12a2.87,2.87,0,0,0-.63-1.81A1.93,1.93,0,0,0,449.82,156.09Z"/><path d="M465,164a3,3,0,0,1-.21-.94,3.44,3.44,0,0,1-2.55,1.11,3.17,3.17,0,0,1-2.18-.75,2.43,2.43,0,0,1-.84-1.9,2.53,2.53,0,0,1,1.06-2.17,5,5,0,0,1,3-.77h1.49v-.71a1.74,1.74,0,0,0-.48-1.28,2,2,0,0,0-1.42-.47,2.27,2.27,0,0,0-1.37.41,1.22,1.22,0,0,0-.55,1H459.4a2.14,2.14,0,0,1,.47-1.29,3.23,3.23,0,0,1,1.29-1,4.42,4.42,0,0,1,1.8-.37,3.5,3.5,0,0,1,2.42.78,2.75,2.75,0,0,1,.91,2.13v4.12a5,5,0,0,0,.32,2V164Zm-2.54-1.16a2.82,2.82,0,0,0,1.37-.37,2.28,2.28,0,0,0,.93-1v-1.84h-1.2c-1.88,0-2.81.55-2.81,1.65a1.38,1.38,0,0,0,.48,1.12A1.84,1.84,0,0,0,462.46,162.79Z"/><path d="M471.52,161.88l2.22-6.88h1.56L472.09,164h-1.16L467.68,155h1.57Z"/><path d="M482.18,164A3,3,0,0,1,482,163a3.41,3.41,0,0,1-2.55,1.11,3.13,3.13,0,0,1-2.17-.75,2.41,2.41,0,0,1-.85-1.9,2.53,2.53,0,0,1,1.06-2.17,5,5,0,0,1,3-.77h1.49v-.71a1.74,1.74,0,0,0-.48-1.28,2,2,0,0,0-1.41-.47,2.28,2.28,0,0,0-1.38.41,1.22,1.22,0,0,0-.55,1h-1.54a2.14,2.14,0,0,1,.47-1.29,3.2,3.2,0,0,1,1.3-1,4.37,4.37,0,0,1,1.79-.37,3.5,3.5,0,0,1,2.42.78,2.75,2.75,0,0,1,.91,2.13v4.12a5,5,0,0,0,.32,2V164Zm-2.54-1.16a2.79,2.79,0,0,0,1.37-.37,2.28,2.28,0,0,0,.93-1v-1.84h-1.2c-1.87,0-2.81.55-2.81,1.65a1.38,1.38,0,0,0,.48,1.12A1.84,1.84,0,0,0,479.64,162.79Z"/><path d="M485.88,152.62a1,1,0,0,1,.23-.63.85.85,0,0,1,.67-.25.86.86,0,0,1,.68.25.91.91,0,0,1,.23.63.84.84,0,0,1-.23.62.86.86,0,0,1-.68.25.85.85,0,0,1-.67-.25A.88.88,0,0,1,485.88,152.62ZM487.54,164H486V155h1.53Z"/><path d="M491.65,164h-1.53V151.24h1.53Z"/><path d="M499.63,164a3.22,3.22,0,0,1-.22-.94,3.41,3.41,0,0,1-2.55,1.11,3.16,3.16,0,0,1-2.17-.75,2.44,2.44,0,0,1-.85-1.9,2.54,2.54,0,0,1,1.07-2.17,5,5,0,0,1,3-.77h1.49v-.71a1.74,1.74,0,0,0-.48-1.28,2,2,0,0,0-1.42-.47,2.27,2.27,0,0,0-1.37.41,1.22,1.22,0,0,0-.55,1H494a2.08,2.08,0,0,1,.47-1.29,3.23,3.23,0,0,1,1.29-1,4.42,4.42,0,0,1,1.8-.37,3.5,3.5,0,0,1,2.42.78,2.75,2.75,0,0,1,.91,2.13v4.12a5.22,5.22,0,0,0,.31,2V164Zm-2.54-1.16a2.75,2.75,0,0,0,1.36-.37,2.3,2.3,0,0,0,.94-1v-1.84h-1.2c-1.88,0-2.81.55-2.81,1.65a1.41,1.41,0,0,0,.47,1.12A1.89,1.89,0,0,0,497.09,162.79Z"/><path d="M510.9,159.58a5.29,5.29,0,0,1-.94,3.29,3,3,0,0,1-2.53,1.25,3.14,3.14,0,0,1-2.63-1.2l-.07,1h-1.41V151.24h1.53V156a3.13,3.13,0,0,1,2.56-1.15,3,3,0,0,1,2.56,1.24,5.46,5.46,0,0,1,.93,3.37Zm-1.53-.18a4.12,4.12,0,0,0-.6-2.41,2,2,0,0,0-1.74-.86,2.25,2.25,0,0,0-2.18,1.41v3.87a2.31,2.31,0,0,0,2.2,1.41,2,2,0,0,0,1.71-.85A4.41,4.41,0,0,0,509.37,159.4Z"/><path d="M512.84,152.62a1,1,0,0,1,.23-.63.84.84,0,0,1,.67-.25.86.86,0,0,1,.68.25,1,1,0,0,1,.23.63.88.88,0,0,1-.23.62.86.86,0,0,1-.68.25.84.84,0,0,1-.67-.25A.88.88,0,0,1,512.84,152.62ZM514.49,164H513V155h1.53Z"/><path d="M518.61,164h-1.53V151.24h1.53Z"/><path d="M521.07,152.62a1,1,0,0,1,.22-.63,1,1,0,0,1,1.36,0,1,1,0,0,1,.23.63.91.91,0,1,1-1.81,0ZM522.72,164h-1.53V155h1.53Z"/><path d="M527.25,152.83V155h1.67v1.18h-1.67v5.56a1.24,1.24,0,0,0,.22.81,1,1,0,0,0,.76.27,3.44,3.44,0,0,0,.73-.1V164a4.39,4.39,0,0,1-1.17.16,1.92,1.92,0,0,1-1.55-.62,2.64,2.64,0,0,1-.52-1.76v-5.56h-1.63V155h1.63v-2.17Z"/><path d="M533.64,161.71l2.08-6.71h1.64l-3.6,10.34c-.55,1.49-1.44,2.23-2.65,2.23l-.29,0-.57-.11V166.2l.41,0a2,2,0,0,0,1.21-.31,2.33,2.33,0,0,0,.72-1.15l.34-.91-3.2-8.86h1.67Z"/><path d="M300.31,179.74a5.22,5.22,0,0,1,.52-2.37,3.79,3.79,0,0,1,1.44-1.62,3.92,3.92,0,0,1,2.1-.58,3.79,3.79,0,0,1,3,1.27,4.86,4.86,0,0,1,1.13,3.37v.11a5.22,5.22,0,0,1-.5,2.34,3.71,3.71,0,0,1-1.43,1.62,3.92,3.92,0,0,1-2.14.58,3.75,3.75,0,0,1-2.95-1.27,4.85,4.85,0,0,1-1.13-3.35Zm1.54.18a3.83,3.83,0,0,0,.69,2.39,2.22,2.22,0,0,0,1.85.9,2.17,2.17,0,0,0,1.85-.91,4.19,4.19,0,0,0,.69-2.56,3.79,3.79,0,0,0-.7-2.39,2.21,2.21,0,0,0-1.86-.92,2.17,2.17,0,0,0-1.82.91A4.11,4.11,0,0,0,301.85,179.92Z"/><path d="M311.14,184.3v-7.78h-1.42v-1.18h1.42v-.92a3,3,0,0,1,.77-2.22,2.86,2.86,0,0,1,2.17-.79,4.09,4.09,0,0,1,1.05.14l-.08,1.23a4.35,4.35,0,0,0-.83-.07,1.5,1.5,0,0,0-1.15.43,1.77,1.77,0,0,0-.4,1.25v1h1.91v1.18h-1.91v7.78Z"/><path d="M324.06,183.21a2.17,2.17,0,0,0,1.43-.5,1.75,1.75,0,0,0,.68-1.24h1.44a2.76,2.76,0,0,1-.52,1.47,3.65,3.65,0,0,1-1.31,1.11,3.82,3.82,0,0,1-1.72.41,3.7,3.7,0,0,1-2.91-1.22,4.86,4.86,0,0,1-1.08-3.34v-.26a5.38,5.38,0,0,1,.48-2.32,3.66,3.66,0,0,1,1.37-1.58,3.9,3.9,0,0,1,2.13-.57,3.59,3.59,0,0,1,2.5.91,3.18,3.18,0,0,1,1.06,2.34h-1.44a2.16,2.16,0,0,0-.66-1.43,2.06,2.06,0,0,0-1.46-.56,2.15,2.15,0,0,0-1.81.84,3.93,3.93,0,0,0-.64,2.43V180a3.93,3.93,0,0,0,.63,2.39A2.19,2.19,0,0,0,324.06,183.21Z"/><path d="M328.93,179.74a5.22,5.22,0,0,1,.52-2.37,3.79,3.79,0,0,1,1.44-1.62,3.93,3.93,0,0,1,2.11-.58,3.78,3.78,0,0,1,2.95,1.27,4.86,4.86,0,0,1,1.13,3.37v.11a5.22,5.22,0,0,1-.5,2.34,3.71,3.71,0,0,1-1.43,1.62,3.92,3.92,0,0,1-2.14.58,3.75,3.75,0,0,1-2.95-1.27,4.85,4.85,0,0,1-1.13-3.35Zm1.54.18a3.83,3.83,0,0,0,.69,2.39,2.35,2.35,0,0,0,3.71,0,4.26,4.26,0,0,0,.68-2.56,3.79,3.79,0,0,0-.7-2.39,2.21,2.21,0,0,0-1.85-.92,2.18,2.18,0,0,0-1.83.91A4.11,4.11,0,0,0,330.47,179.92Z"/><path d="M340.45,175.34l.05,1.13a3.28,3.28,0,0,1,2.68-1.3c1.9,0,2.85,1.07,2.87,3.21v5.92h-1.53v-5.93a2.07,2.07,0,0,0-.45-1.43,1.77,1.77,0,0,0-1.35-.47,2.26,2.26,0,0,0-1.31.4,2.79,2.79,0,0,0-.88,1v6.39H339v-9Z"/><path d="M350.43,173.17v2.17h1.68v1.18h-1.68v5.56a1.24,1.24,0,0,0,.23.81.94.94,0,0,0,.76.27,3.44,3.44,0,0,0,.73-.1v1.24a4.52,4.52,0,0,1-1.18.16,1.93,1.93,0,0,1-1.55-.62,2.7,2.7,0,0,1-.52-1.76v-5.56h-1.63v-1.18h1.63v-2.17Z"/><path d="M358.22,176.71a5.78,5.78,0,0,0-.75-.05,2,2,0,0,0-2.05,1.28v6.36h-1.53v-9h1.49l0,1a2.4,2.4,0,0,1,2.13-1.2,1.5,1.5,0,0,1,.68.12Z"/><path d="M364.83,184.3a3.4,3.4,0,0,1-.22-1,3.41,3.41,0,0,1-2.55,1.11,3.16,3.16,0,0,1-2.17-.75,2.41,2.41,0,0,1-.85-1.9,2.55,2.55,0,0,1,1.06-2.17,5,5,0,0,1,3-.77h1.49v-.71a1.74,1.74,0,0,0-.48-1.28,2,2,0,0,0-1.42-.47,2.25,2.25,0,0,0-1.37.41,1.23,1.23,0,0,0-.56,1h-1.54a2.09,2.09,0,0,1,.48-1.29,3.23,3.23,0,0,1,1.29-1,4.37,4.37,0,0,1,1.79-.37,3.55,3.55,0,0,1,2.43.78,2.8,2.8,0,0,1,.91,2.13v4.12a5,5,0,0,0,.31,2v.14Zm-2.54-1.17a2.75,2.75,0,0,0,1.36-.37,2.3,2.3,0,0,0,.94-1V180h-1.2q-2.82,0-2.82,1.65a1.38,1.38,0,0,0,.48,1.12A1.85,1.85,0,0,0,362.29,183.13Z"/><path d="M372.11,183.21a2.15,2.15,0,0,0,1.43-.5,1.72,1.72,0,0,0,.68-1.24h1.45a2.77,2.77,0,0,1-.53,1.47,3.61,3.61,0,0,1-1.3,1.11,3.86,3.86,0,0,1-1.73.41,3.7,3.7,0,0,1-2.91-1.22,4.86,4.86,0,0,1-1.08-3.34v-.26a5.38,5.38,0,0,1,.48-2.32,3.61,3.61,0,0,1,1.38-1.58,3.89,3.89,0,0,1,2.12-.57,3.62,3.62,0,0,1,2.51.91,3.22,3.22,0,0,1,1.06,2.34h-1.45a2.07,2.07,0,0,0-.66-1.43,2,2,0,0,0-1.46-.56,2.15,2.15,0,0,0-1.81.84,4,4,0,0,0-.64,2.43V180a3.86,3.86,0,0,0,.64,2.39A2.16,2.16,0,0,0,372.11,183.21Z"/><path d="M381.11,184.46a4,4,0,0,1-3-1.19,4.46,4.46,0,0,1-1.14-3.2v-.29a5.32,5.32,0,0,1,.51-2.37,4,4,0,0,1,1.42-1.64,3.57,3.57,0,0,1,2-.6,3.34,3.34,0,0,1,2.71,1.16,4.93,4.93,0,0,1,1,3.29v.64h-6.07a3.22,3.22,0,0,0,.78,2.14,2.43,2.43,0,0,0,1.88.81,2.65,2.65,0,0,0,1.37-.33,3.31,3.31,0,0,0,1-.88l.93.73A3.76,3.76,0,0,1,381.11,184.46Zm-.19-8a2.05,2.05,0,0,0-1.56.68,3.28,3.28,0,0,0-.78,1.89h4.49v-.12a2.93,2.93,0,0,0-.63-1.81A2,2,0,0,0,380.92,176.43Z"/><path d="M393.94,179.92a5.37,5.37,0,0,1-.94,3.29,3,3,0,0,1-2.53,1.25,3.29,3.29,0,0,1-2.57-1v4.31h-1.53v-12.4h1.4l.07,1a3.17,3.17,0,0,1,2.6-1.16,3.07,3.07,0,0,1,2.56,1.22,5.47,5.47,0,0,1,.94,3.39Zm-1.54-.18a4,4,0,0,0-.64-2.39,2.09,2.09,0,0,0-1.77-.88,2.27,2.27,0,0,0-2.09,1.24V182a2.26,2.26,0,0,0,2.1,1.22,2.09,2.09,0,0,0,1.76-.87A4.35,4.35,0,0,0,392.4,179.74Z"/><path d="M398,173.17v2.17h1.67v1.18H398v5.56a1.24,1.24,0,0,0,.22.81.94.94,0,0,0,.76.27,3.44,3.44,0,0,0,.73-.1v1.24a4.39,4.39,0,0,1-1.17.16,1.92,1.92,0,0,1-1.55-.62,2.64,2.64,0,0,1-.52-1.76v-5.56H394.8v-1.18h1.63v-2.17Z"/><path d="M401.43,173a.91.91,0,0,1,.22-.62.83.83,0,0,1,.68-.26.85.85,0,0,1,.68.26.87.87,0,0,1-.68,1.49.89.89,0,0,1-.68-.24A.91.91,0,0,1,401.43,173Zm1.65,11.34h-1.53v-9h1.53Z"/><path d="M408.49,182.22l2.22-6.88h1.56l-3.21,9h-1.17l-3.24-9h1.56Z"/><path d="M417.35,184.46a3.93,3.93,0,0,1-3-1.19,4.46,4.46,0,0,1-1.14-3.2v-.29a5.46,5.46,0,0,1,.5-2.37,4,4,0,0,1,1.43-1.64,3.54,3.54,0,0,1,2-.6,3.37,3.37,0,0,1,2.72,1.16,5,5,0,0,1,1,3.29v.64h-6.06a3.21,3.21,0,0,0,.77,2.14,2.43,2.43,0,0,0,1.88.81,2.71,2.71,0,0,0,1.38-.33,3.4,3.4,0,0,0,1-.88l.94.73A3.77,3.77,0,0,1,417.35,184.46Zm-.19-8a2.05,2.05,0,0,0-1.56.68,3.27,3.27,0,0,0-.77,1.89h4.48v-.12a2.87,2.87,0,0,0-.63-1.81A1.93,1.93,0,0,0,417.16,176.43Z"/><path d="M427.83,181.92a1.13,1.13,0,0,0-.47-1,4.49,4.49,0,0,0-1.63-.6,7.51,7.51,0,0,1-1.84-.59,2.52,2.52,0,0,1-1-.83,2,2,0,0,1-.33-1.14,2.3,2.3,0,0,1,.93-1.86,3.62,3.62,0,0,1,2.38-.77,3.77,3.77,0,0,1,2.47.79,2.52,2.52,0,0,1,.95,2h-1.54a1.36,1.36,0,0,0-.54-1.08,2,2,0,0,0-1.34-.46,2.06,2.06,0,0,0-1.31.37,1.15,1.15,0,0,0-.47.95.92.92,0,0,0,.44.83,5.26,5.26,0,0,0,1.58.54,7.9,7.9,0,0,1,1.86.62,2.66,2.66,0,0,1,1.06.85,2.11,2.11,0,0,1,.34,1.22,2.31,2.31,0,0,1-1,1.93,4,4,0,0,1-2.49.72,4.54,4.54,0,0,1-1.9-.38,3.05,3.05,0,0,1-1.3-1.06,2.6,2.6,0,0,1-.47-1.48h1.53a1.61,1.61,0,0,0,.62,1.22,2.39,2.39,0,0,0,1.52.45,2.49,2.49,0,0,0,1.39-.35A1.08,1.08,0,0,0,427.83,181.92Z"/><path d="M435.18,179.74a5.18,5.18,0,0,1,1-3.31,3.3,3.3,0,0,1,5-.18v-4.67h1.54V184.3h-1.41l-.08-1a3.1,3.1,0,0,1-2.55,1.12,3.05,3.05,0,0,1-2.54-1.27,5.34,5.34,0,0,1-1-3.33Zm1.53.18a4,4,0,0,0,.63,2.38,2,2,0,0,0,1.74.86,2.21,2.21,0,0,0,2.12-1.31v-4.11a2.25,2.25,0,0,0-2.11-1.27,2,2,0,0,0-1.75.87A4.38,4.38,0,0,0,436.71,179.92Z"/><path d="M450.64,183.41a3.26,3.26,0,0,1-2.62,1.05,2.78,2.78,0,0,1-2.18-.83,3.57,3.57,0,0,1-.76-2.46v-5.83h1.53v5.79c0,1.35.55,2,1.65,2a2.29,2.29,0,0,0,2.34-1.31v-6.51h1.53v9h-1.46Z"/><path d="M458.78,176.71a5.78,5.78,0,0,0-.75-.05,2,2,0,0,0-2,1.28v6.36h-1.53v-9h1.48l0,1a2.4,2.4,0,0,1,2.13-1.2,1.5,1.5,0,0,1,.68.12Z"/><path d="M460.2,173a.91.91,0,0,1,.23-.62.81.81,0,0,1,.67-.26.83.83,0,0,1,.68.26,1,1,0,0,1,0,1.25.89.89,0,0,1-.68.24.87.87,0,0,1-.67-.24A.92.92,0,0,1,460.2,173Zm1.65,11.34h-1.53v-9h1.53Z"/><path d="M465.75,175.34l.05,1.13a3.28,3.28,0,0,1,2.68-1.3c1.9,0,2.85,1.07,2.87,3.21v5.92h-1.53v-5.93a2.07,2.07,0,0,0-.45-1.43,1.77,1.77,0,0,0-1.35-.47,2.26,2.26,0,0,0-1.31.4,2.76,2.76,0,0,0-.87,1v6.39H464.3v-9Z"/><path d="M473.29,179.74a5.32,5.32,0,0,1,1-3.33,3.12,3.12,0,0,1,2.57-1.24,3.07,3.07,0,0,1,2.55,1.16l.08-1h1.4v8.74a3.67,3.67,0,0,1-1,2.74,3.8,3.8,0,0,1-2.77,1,4.71,4.71,0,0,1-1.9-.41,3.3,3.3,0,0,1-1.41-1.14l.79-.91a3,3,0,0,0,2.41,1.21,2.32,2.32,0,0,0,1.74-.63,2.39,2.39,0,0,0,.63-1.77v-.77a3.14,3.14,0,0,1-2.51,1.06,3.06,3.06,0,0,1-2.55-1.27A5.57,5.57,0,0,1,473.29,179.74Zm1.54.18a4.05,4.05,0,0,0,.62,2.38,2,2,0,0,0,1.74.86,2.25,2.25,0,0,0,2.13-1.31v-4.09a2.27,2.27,0,0,0-2.11-1.29,2,2,0,0,0-1.75.87A4.38,4.38,0,0,0,474.83,179.92Z"/><path d="M491,183.21a2.17,2.17,0,0,0,1.43-.5,1.75,1.75,0,0,0,.68-1.24h1.44a2.69,2.69,0,0,1-.53,1.47,3.53,3.53,0,0,1-1.3,1.11,3.82,3.82,0,0,1-1.72.41,3.7,3.7,0,0,1-2.91-1.22A4.86,4.86,0,0,1,487,179.9v-.26a5.38,5.38,0,0,1,.48-2.32,3.59,3.59,0,0,1,1.37-1.58,3.9,3.9,0,0,1,2.13-.57,3.59,3.59,0,0,1,2.5.91,3.18,3.18,0,0,1,1.06,2.34h-1.44a2.16,2.16,0,0,0-.66-1.43,2.06,2.06,0,0,0-1.46-.56,2.15,2.15,0,0,0-1.81.84,3.93,3.93,0,0,0-.64,2.43V180a3.93,3.93,0,0,0,.63,2.39A2.19,2.19,0,0,0,491,183.21Z"/><path d="M500.56,176.71a5.78,5.78,0,0,0-.75-.05,2,2,0,0,0-2,1.28v6.36h-1.53v-9h1.49l0,1a2.41,2.41,0,0,1,2.14-1.2,1.49,1.49,0,0,1,.67.12Z"/><path d="M502,173a.91.91,0,0,1,.23-.62.81.81,0,0,1,.67-.26.83.83,0,0,1,.68.26,1,1,0,0,1,0,1.25.89.89,0,0,1-.68.24.87.87,0,0,1-.67-.24A.92.92,0,0,1,502,173Zm1.66,11.34H502.1v-9h1.54Z"/><path d="M511.3,181.92a1.13,1.13,0,0,0-.47-1,4.49,4.49,0,0,0-1.63-.6,7.51,7.51,0,0,1-1.84-.59,2.52,2.52,0,0,1-1-.83,2,2,0,0,1-.33-1.14,2.3,2.3,0,0,1,.93-1.86,3.62,3.62,0,0,1,2.38-.77,3.75,3.75,0,0,1,2.47.79,2.52,2.52,0,0,1,.95,2h-1.54a1.38,1.38,0,0,0-.53-1.08,2,2,0,0,0-1.35-.46,2.06,2.06,0,0,0-1.31.37,1.15,1.15,0,0,0-.47.95.92.92,0,0,0,.44.83,5.26,5.26,0,0,0,1.58.54,7.9,7.9,0,0,1,1.86.62,2.66,2.66,0,0,1,1.06.85,2.11,2.11,0,0,1,.34,1.22,2.31,2.31,0,0,1-1,1.93,4,4,0,0,1-2.49.72,4.54,4.54,0,0,1-1.9-.38,3.05,3.05,0,0,1-1.3-1.06,2.6,2.6,0,0,1-.47-1.48h1.53a1.61,1.61,0,0,0,.62,1.22,2.39,2.39,0,0,0,1.52.45,2.49,2.49,0,0,0,1.39-.35A1.06,1.06,0,0,0,511.3,181.92Z"/><path d="M518.54,184.46a3.93,3.93,0,0,1-3-1.19,4.46,4.46,0,0,1-1.14-3.2v-.29a5.32,5.32,0,0,1,.51-2.37,3.93,3.93,0,0,1,1.42-1.64,3.54,3.54,0,0,1,2-.6,3.36,3.36,0,0,1,2.72,1.16,5,5,0,0,1,1,3.29v.64H516a3.21,3.21,0,0,0,.77,2.14,2.45,2.45,0,0,0,1.89.81,2.67,2.67,0,0,0,1.37-.33,3.4,3.4,0,0,0,1-.88l.94.73A3.77,3.77,0,0,1,518.54,184.46Zm-.19-8a2,2,0,0,0-1.55.68A3.28,3.28,0,0,0,516,179h4.48v-.12a2.93,2.93,0,0,0-.62-1.81A2,2,0,0,0,518.35,176.43Z"/><path d="M529,181.92a1.13,1.13,0,0,0-.47-1,4.49,4.49,0,0,0-1.63-.6,7.51,7.51,0,0,1-1.84-.59,2.52,2.52,0,0,1-1-.83,2,2,0,0,1-.33-1.14,2.3,2.3,0,0,1,.93-1.86,3.62,3.62,0,0,1,2.38-.77,3.77,3.77,0,0,1,2.47.79,2.52,2.52,0,0,1,1,2h-1.54a1.36,1.36,0,0,0-.54-1.08,2,2,0,0,0-1.34-.46,2.06,2.06,0,0,0-1.31.37,1.15,1.15,0,0,0-.47.95.92.92,0,0,0,.44.83,5.26,5.26,0,0,0,1.58.54,7.9,7.9,0,0,1,1.86.62,2.66,2.66,0,0,1,1.06.85,2.11,2.11,0,0,1,.34,1.22,2.31,2.31,0,0,1-1,1.93,4,4,0,0,1-2.49.72,4.54,4.54,0,0,1-1.9-.38,3.05,3.05,0,0,1-1.3-1.06,2.6,2.6,0,0,1-.47-1.48H525a1.61,1.61,0,0,0,.62,1.22,2.39,2.39,0,0,0,1.52.45,2.49,2.49,0,0,0,1.39-.35A1.06,1.06,0,0,0,529,181.92Z"/><path d="M532.5,186.7l-.87-.6a4,4,0,0,0,.81-2.23v-1.39h1.5v1.2a3.85,3.85,0,0,1-.41,1.68A4.16,4.16,0,0,1,532.5,186.7Z"/><path d="M331.65,193.31a.92.92,0,0,1,.23-.63.84.84,0,0,1,.67-.26.87.87,0,0,1,.68.26,1,1,0,0,1,0,1.25.89.89,0,0,1-.68.24.87.87,0,0,1-.67-.24A.91.91,0,0,1,331.65,193.31Zm1.65,11.33h-1.53v-9h1.53Z"/><path d="M337.2,195.68l.05,1.13a3.27,3.27,0,0,1,2.68-1.29c1.9,0,2.85,1.06,2.87,3.2v5.92h-1.53v-5.93a2.07,2.07,0,0,0-.45-1.43,1.77,1.77,0,0,0-1.35-.46,2.25,2.25,0,0,0-1.31.39,2.72,2.72,0,0,0-.87,1v6.38h-1.53v-9Z"/><path d="M348.7,203.55a2.2,2.2,0,0,0,1.43-.49,1.76,1.76,0,0,0,.68-1.25h1.45a2.83,2.83,0,0,1-.53,1.47,3.61,3.61,0,0,1-1.3,1.11,3.86,3.86,0,0,1-1.73.41,3.67,3.67,0,0,1-2.91-1.22,4.86,4.86,0,0,1-1.08-3.34V200a5.38,5.38,0,0,1,.48-2.32,3.61,3.61,0,0,1,1.38-1.58,3.86,3.86,0,0,1,2.12-.56,3.57,3.57,0,0,1,2.5.9,3.23,3.23,0,0,1,1.07,2.34h-1.45a2.07,2.07,0,0,0-.66-1.43,2,2,0,0,0-1.46-.56,2.15,2.15,0,0,0-1.81.84,4,4,0,0,0-.64,2.43v.29a3.86,3.86,0,0,0,.64,2.39A2.16,2.16,0,0,0,348.7,203.55Z"/><path d="M355.64,204.64h-1.53V191.92h1.53Z"/><path d="M363.62,203.75A3.24,3.24,0,0,1,361,204.8a2.79,2.79,0,0,1-2.18-.83,3.6,3.6,0,0,1-.76-2.46v-5.83h1.53v5.79c0,1.35.55,2,1.66,2a2.28,2.28,0,0,0,2.33-1.31v-6.51h1.53v9h-1.45Z"/><path d="M367.07,200.08a5.25,5.25,0,0,1,1-3.31,3.33,3.33,0,0,1,5-.18v-4.67h1.53v12.72h-1.4l-.08-1a3.11,3.11,0,0,1-2.56,1.12,3,3,0,0,1-2.53-1.27,5.27,5.27,0,0,1-1-3.33Zm1.53.18a4,4,0,0,0,.63,2.38,2,2,0,0,0,1.73.86,2.23,2.23,0,0,0,2.13-1.31v-4.11a2.25,2.25,0,0,0-2.11-1.26,2,2,0,0,0-1.75.86A4.38,4.38,0,0,0,368.6,200.26Z"/><path d="M377,193.31a.91.91,0,0,1,.22-.63,1,1,0,0,1,1.36,0,1,1,0,0,1,0,1.25.9.9,0,0,1-1.58-.62Zm1.65,11.33h-1.53v-9h1.53Z"/><path d="M382.56,195.68l.05,1.13a3.26,3.26,0,0,1,2.68-1.29c1.89,0,2.85,1.06,2.86,3.2v5.92h-1.53v-5.93a2,2,0,0,0-.44-1.43,1.77,1.77,0,0,0-1.35-.46,2.23,2.23,0,0,0-1.31.39,2.66,2.66,0,0,0-.88,1v6.38h-1.53v-9Z"/><path d="M390.1,200.08a5.25,5.25,0,0,1,1-3.33,3.35,3.35,0,0,1,5.12-.08l.08-1h1.39v8.74a3.63,3.63,0,0,1-1,2.74,3.77,3.77,0,0,1-2.76,1,4.71,4.71,0,0,1-1.9-.41,3.33,3.33,0,0,1-1.42-1.14l.8-.91a3,3,0,0,0,2.41,1.21,2.35,2.35,0,0,0,1.74-.63,2.39,2.39,0,0,0,.63-1.77v-.77a3.15,3.15,0,0,1-2.51,1.06,3.07,3.07,0,0,1-2.55-1.26A5.55,5.55,0,0,1,390.1,200.08Zm1.54.18a4.05,4.05,0,0,0,.62,2.38,2,2,0,0,0,1.74.86,2.27,2.27,0,0,0,2.13-1.31V198.1a2.27,2.27,0,0,0-2.12-1.28,2,2,0,0,0-1.74.86A4.38,4.38,0,0,0,391.64,200.26Z"/><path d="M406.25,193.51v2.17h1.67v1.18h-1.67v5.57a1.23,1.23,0,0,0,.22.8.94.94,0,0,0,.76.27,3.44,3.44,0,0,0,.73-.1v1.24a4.39,4.39,0,0,1-1.17.16,1.89,1.89,0,0,1-1.55-.62,2.64,2.64,0,0,1-.52-1.76v-5.56h-1.63v-1.18h1.63v-2.17Z"/><path d="M411.24,196.77a3.24,3.24,0,0,1,2.65-1.25c1.89,0,2.84,1.06,2.86,3.2v5.92h-1.53v-5.93a2.07,2.07,0,0,0-.44-1.43,1.78,1.78,0,0,0-1.36-.46,2.22,2.22,0,0,0-1.3.39,2.66,2.66,0,0,0-.88,1v6.38h-1.53V191.92h1.53Z"/><path d="M422.76,204.8a3.93,3.93,0,0,1-3-1.19,4.47,4.47,0,0,1-1.15-3.2v-.28a5.34,5.34,0,0,1,.51-2.38,4,4,0,0,1,1.43-1.64,3.53,3.53,0,0,1,2-.59,3.33,3.33,0,0,1,2.71,1.15,4.93,4.93,0,0,1,1,3.29v.64h-6.06a3.21,3.21,0,0,0,.77,2.14,2.43,2.43,0,0,0,1.88.81,2.71,2.71,0,0,0,1.38-.33,3.4,3.4,0,0,0,1-.88l.94.73A3.75,3.75,0,0,1,422.76,204.8Zm-.19-8a2.05,2.05,0,0,0-1.56.68,3.27,3.27,0,0,0-.77,1.89h4.48v-.12a2.84,2.84,0,0,0-.63-1.8A1.91,1.91,0,0,0,422.57,196.77Z"/><path d="M441.32,200.81a4.38,4.38,0,0,1-1.41,2.95,4.57,4.57,0,0,1-3.15,1,4.26,4.26,0,0,1-3.43-1.53,6.16,6.16,0,0,1-1.28-4.1V198a6.89,6.89,0,0,1,.6-3,4.47,4.47,0,0,1,1.7-2,4.76,4.76,0,0,1,2.55-.68,4.35,4.35,0,0,1,3.07,1.07,4.45,4.45,0,0,1,1.35,3h-1.59a3.48,3.48,0,0,0-.9-2.09,2.73,2.73,0,0,0-1.93-.65,2.84,2.84,0,0,0-2.39,1.13,5.14,5.14,0,0,0-.87,3.2v1.17a5.34,5.34,0,0,0,.82,3.12,2.64,2.64,0,0,0,2.3,1.16,3.05,3.05,0,0,0,2-.6,3.35,3.35,0,0,0,.94-2.09Z"/><path d="M452.76,199a7.57,7.57,0,0,1-.59,3.09,4.57,4.57,0,0,1-1.69,2,4.68,4.68,0,0,1-2.55.69,4.48,4.48,0,0,1-4.23-2.69,7.11,7.11,0,0,1-.63-3v-.87a7.25,7.25,0,0,1,.61-3.07,4.45,4.45,0,0,1,4.23-2.75,4.66,4.66,0,0,1,2.56.7,4.57,4.57,0,0,1,1.7,2,7.57,7.57,0,0,1,.59,3.09Zm-1.58-.78a5.44,5.44,0,0,0-.86-3.29,3.08,3.08,0,0,0-4.78,0,5.31,5.31,0,0,0-.89,3.18V199a5.45,5.45,0,0,0,.87,3.27,2.84,2.84,0,0,0,2.41,1.18,2.79,2.79,0,0,0,2.38-1.12,5.29,5.29,0,0,0,.87-3.21Z"/><path d="M459,202.53l3.45-9.94h1.74l-4.47,12h-1.41l-4.46-12h1.73Z"/><path d="M467.45,204.64h-1.59v-12h1.59Z"/><path d="M470.36,204.64v-12h3.4a5.49,5.49,0,0,1,2.78.69,4.65,4.65,0,0,1,1.87,2,6.35,6.35,0,0,1,.66,3V199a6.54,6.54,0,0,1-.65,3,4.59,4.59,0,0,1-1.88,2,5.81,5.81,0,0,1-2.85.71ZM472,193.89v9.45h1.67a3.61,3.61,0,0,0,2.86-1.15,4.71,4.71,0,0,0,1-3.25v-.71a4.8,4.8,0,0,0-1-3.19,3.44,3.44,0,0,0-2.74-1.15Z"/><path d="M484.42,200.14h-4v-1.25h4Z"/><path d="M490.79,204.64h-1.54V194.43l-3.09,1.14v-1.4l4.39-1.64h.24Z"/><path d="M501.14,199.34a3.68,3.68,0,0,1-1.15.92,3.12,3.12,0,0,1-1.46.35,3.21,3.21,0,0,1-1.81-.52,3.29,3.29,0,0,1-1.2-1.44,5.33,5.33,0,0,1,0-4.24,3.42,3.42,0,0,1,1.3-1.48,3.73,3.73,0,0,1,2-.51,3.38,3.38,0,0,1,2.82,1.34,5.79,5.79,0,0,1,1,3.64v.45c0,2.34-.46,4.06-1.39,5.14a5.35,5.35,0,0,1-4.2,1.65h-.29v-1.29h.32a4.28,4.28,0,0,0,2.91-1A4.23,4.23,0,0,0,501.14,199.34Zm-2.36,0a2.37,2.37,0,0,0,1.42-.47,2.89,2.89,0,0,0,.95-1.17v-.61a4.17,4.17,0,0,0-.66-2.45,1.94,1.94,0,0,0-1.65-.95,2,2,0,0,0-1.62.78,3.16,3.16,0,0,0-.62,2,3.28,3.28,0,0,0,.6,2A1.87,1.87,0,0,0,498.78,199.34Z"/><path d="M388.63,220.6a5.31,5.31,0,0,1-.94,3.29,3,3,0,0,1-2.53,1.25,3.29,3.29,0,0,1-2.57-1v4.31h-1.53V216h1.4l.08,1a3.12,3.12,0,0,1,2.59-1.16,3.06,3.06,0,0,1,2.56,1.21,5.47,5.47,0,0,1,.94,3.39Zm-1.53-.17a4,4,0,0,0-.65-2.4,2.08,2.08,0,0,0-1.77-.87,2.26,2.26,0,0,0-2.09,1.23v4.28a2.27,2.27,0,0,0,2.11,1.22,2.08,2.08,0,0,0,1.75-.87A4.34,4.34,0,0,0,387.1,220.43Z"/><path d="M396.1,225a3.06,3.06,0,0,1-.21-.95,3.44,3.44,0,0,1-2.55,1.11,3.17,3.17,0,0,1-2.18-.75,2.43,2.43,0,0,1-.84-1.9,2.53,2.53,0,0,1,1.06-2.17,5.06,5.06,0,0,1,3-.77h1.49v-.71a1.7,1.7,0,0,0-.48-1.27,1.91,1.91,0,0,0-1.41-.48,2.28,2.28,0,0,0-1.38.41,1.22,1.22,0,0,0-.55,1H390.5a2.16,2.16,0,0,1,.47-1.29,3.23,3.23,0,0,1,1.29-1,4.45,4.45,0,0,1,1.8-.36,3.5,3.5,0,0,1,2.42.77,2.78,2.78,0,0,1,.91,2.13v4.12a5.06,5.06,0,0,0,.32,2V225Zm-2.54-1.17a2.69,2.69,0,0,0,1.37-.37,2.22,2.22,0,0,0,.93-1v-1.84h-1.2c-1.88,0-2.81.55-2.81,1.65a1.38,1.38,0,0,0,.48,1.12A1.79,1.79,0,0,0,393.56,223.81Z"/><path d="M401.24,216l.05,1.13a3.26,3.26,0,0,1,2.68-1.29c1.9,0,2.85,1.06,2.87,3.2V225H405.3v-5.93a2,2,0,0,0-.44-1.43,1.77,1.77,0,0,0-1.35-.46,2.25,2.25,0,0,0-1.31.39,2.82,2.82,0,0,0-.88,1V225h-1.53v-9Z"/><path d="M408.77,220.43a5.27,5.27,0,0,1,1-3.32,3.07,3.07,0,0,1,2.56-1.25,3.12,3.12,0,0,1,2.49,1.07v-4.67h1.53V225h-1.41l-.07-1a3.12,3.12,0,0,1-2.56,1.12,3.06,3.06,0,0,1-2.54-1.27,5.34,5.34,0,0,1-1-3.33Zm1.53.17a4,4,0,0,0,.63,2.38,2,2,0,0,0,1.74.86,2.24,2.24,0,0,0,2.13-1.3v-4.12a2.25,2.25,0,0,0-2.11-1.26,2.07,2.07,0,0,0-1.76.86A4.38,4.38,0,0,0,410.3,220.6Z"/><path d="M422.42,225.14a3.93,3.93,0,0,1-3-1.19,4.46,4.46,0,0,1-1.14-3.2v-.28a5.48,5.48,0,0,1,.5-2.38,4,4,0,0,1,1.43-1.64,3.53,3.53,0,0,1,2-.59A3.37,3.37,0,0,1,425,217a5,5,0,0,1,1,3.29v.64h-6.06a3.21,3.21,0,0,0,.77,2.14,2.43,2.43,0,0,0,1.88.81,2.71,2.71,0,0,0,1.38-.33,3.4,3.4,0,0,0,1-.88l.94.73A3.75,3.75,0,0,1,422.42,225.14Zm-.19-8a2,2,0,0,0-1.55.68,3.28,3.28,0,0,0-.78,1.89h4.48v-.12a2.84,2.84,0,0,0-.63-1.8A1.91,1.91,0,0,0,422.23,217.11Z"/><path d="M429.13,216l0,1a3.27,3.27,0,0,1,2.65-1.16,2.56,2.56,0,0,1,2.56,1.44,3.28,3.28,0,0,1,2.86-1.44q2.94,0,3,3.12v6H438.7v-5.91a2.08,2.08,0,0,0-.44-1.44,1.91,1.91,0,0,0-1.47-.47,2,2,0,0,0-2.07,1.87V225h-1.54v-5.87a1.71,1.71,0,0,0-1.91-2,2,2,0,0,0-2.06,1.28V225h-1.53v-9Z"/><path d="M442.55,213.65a.92.92,0,0,1,.23-.63.84.84,0,0,1,.67-.26.87.87,0,0,1,.68.26,1,1,0,0,1,0,1.25.9.9,0,0,1-.68.25.87.87,0,0,1-.67-.25A.91.91,0,0,1,442.55,213.65ZM444.21,225h-1.54v-9h1.54Z"/><path d="M450.25,223.89a2.22,2.22,0,0,0,1.43-.49,1.77,1.77,0,0,0,.68-1.24h1.45a2.83,2.83,0,0,1-.53,1.46,3.57,3.57,0,0,1-1.31,1.11,3.82,3.82,0,0,1-1.72.41,3.67,3.67,0,0,1-2.91-1.22,4.86,4.86,0,0,1-1.08-3.34v-.25a5.39,5.39,0,0,1,.48-2.33,3.61,3.61,0,0,1,1.38-1.58,3.83,3.83,0,0,1,2.12-.56,3.59,3.59,0,0,1,2.5.9,3.23,3.23,0,0,1,1.07,2.34h-1.45a2.18,2.18,0,0,0-.66-1.43,2.06,2.06,0,0,0-1.46-.56,2.15,2.15,0,0,0-1.81.84,3.93,3.93,0,0,0-.64,2.43v.29a3.84,3.84,0,0,0,.64,2.39A2.16,2.16,0,0,0,450.25,223.89Z"/><rect class="cls-2" x="45.29" y="44.22" width="161.57" height="161.57" transform="translate(125.68 -52.54) rotate(45.12)"/><g class="cls-3"><path class="cls-4" d="M125.86,227.62,23.45,124.79,126.29,22.38,228.7,125.21ZM26.62,124.79l99.25,99.66,99.66-99.24L126.28,25.55Zm99.27,89.8L91.71,180.27,118,154.13,92.62,128.68l-18.06,18,11.88,11.93,4.94-4.92-7-7,8.17-8.14,15.5,15.57-21.3,21.21-29.88-30,20.5-20.42L57,104.39,87,74.51l21.21,21.31-15.56,15.5-8.14-8.18,7-7-4.92-5L74.65,103.12l18,18.06,25.45-25.34L91.94,69.59l34.32-34.18,34.18,34.32L134.19,95.87l25.34,25.45,18.06-18L165.71,91.41l-4.94,4.92,7,7-8.18,8.14L144.06,95.89l21.3-21.21,29.88,30-20.5,20.42,20.42,20.51-30,29.88-21.21-21.31,15.56-15.5,8.14,8.18-7,6.95,4.92,4.95,11.93-11.88-18-18.06-25.45,25.34,26.14,26.25Zm-31-34.32,31,31.15,31.15-31L130.9,154.15l28.62-28.5,21.15,21.23-15.11,15.05-8.08-8.12,7-7-5-5-12.38,12.33,18,18.12L192,145.6l-20.42-20.51,20.5-20.41L165.36,77.85,147.23,95.9l12.33,12.38,5-5-7-7,8.12-8.08,15,15.1-21.23,21.15L131,95.87l26.25-26.14-31-31.15-31.14,31,26.14,26.25-28.63,28.5L71.48,103.12l15.1-15.05,8.09,8.12-7,7,5,5L105,95.81,87,77.68,60.16,104.4l20.42,20.51-20.5,20.41,26.71,26.83,18.13-18.05L92.59,141.72l-5,5,7,7-8.12,8.08-15-15.1,21.23-21.15,28.51,28.62ZM200.1,140.68l-15.5-15.56,15.57-15.49,15.49,15.56Zm-12.32-15.55,12.33,12.38,12.38-12.33L200.16,112.8ZM52,140.37,36.49,124.81l15.56-15.49,15.49,15.56ZM39.66,124.82,52,137.2l12.38-12.33L52,112.49Z"/><path class="cls-4" d="M125.91,204l-24-24.08L126,156,150,180ZM105.1,179.93l20.82,20.91L146.82,180,126,159.12Z"/><path class="cls-4" d="M126.14,93.39l-24-24.08,24.08-24,24,24.08ZM105.33,69.31l20.82,20.9,20.9-20.81L126.23,48.5Z"/></g><path class="cls-4" d="M174.88,154.62c-.5.6-1,1.17-1.91.82s-.95-1.08-.95-1.88q0-5.33,0-10.65c0-2.13-.76-3.15-2.78-3.74-1.82-.53-3.64-1.08-5.48-1.56a1.2,1.2,0,0,0-1,.25c-1,.88-1.88,1.79-2.75,2.76a1.86,1.86,0,0,0-.39,1.18c0,3.8,0,7.6,0,11.41,0,.22,0,.44,0,.66,0,1-.61,1.68-1.45,1.68s-1.4-.65-1.4-1.69c0-4,0-8,0-12a1.82,1.82,0,0,0-.62-1.5c-.68-.61-1.31-1.29-2-1.94-1.13-1.13-1.13-1.13-2.75-.45,2.22,2.25,2.14,5.08,2.1,7.92,0,2.47,0,4.94,0,7.41,0,.26,0,.51,0,.76a1.48,1.48,0,0,1-1.45,1.47,1.44,1.44,0,0,1-1.39-1.52c0-1.49,0-3,0-4.47,0-2.06,0-4.12,0-6.18a4.65,4.65,0,0,0-3.14-4.63c-3-1.14-6.06-2.22-9.19-3.36l-2.88,4.33c-.34.5-.65,1-1,1.49a2.92,2.92,0,0,1-4.49.41c-.73-.69-1.4-1.44-2.29-2.36,0,.61-.06.94-.06,1.27,0,4.28,0,8.56,0,12.84,0,1.45-.46,2.16-1.41,2.18s-1.44-.7-1.44-2.14V139.56l-.36-.25c-.58.68-1.12,1.41-1.76,2.05-1.67,1.68-3.64,1.48-5-.47-1.23-1.8-2.42-3.63-3.68-5.52-3.26,1.21-6.52,2.33-9.7,3.64-1.89.78-2.62,2.48-2.63,4.48v9.89a6,6,0,0,1,0,1,1.29,1.29,0,0,1-1.27,1.19,1.27,1.27,0,0,1-1.42-1,4,4,0,0,1-.12-1c0-3.3-.08-6.6,0-9.89a34,34,0,0,1,.8-4.53c-1.11-.8-1.11-.8-2.25.29-2.53,2.42-5.26,2.94-7.82,1.37a13.94,13.94,0,0,1-2.18-1.82.89.89,0,0,0-1.22-.21c-1.25.68-2.54,1.3-3.82,1.93a3.39,3.39,0,0,0-2,3.35c0,3.14,0,6.28,0,9.41,0,.26,0,.51,0,.76a1.47,1.47,0,0,1-1.42,1.4,1.42,1.42,0,0,1-1.4-1.41c0-.88,0-1.77,0-2.66v-7.61a6,6,0,0,1,3.5-5.74c1.15-.59,2.31-1.16,3.5-1.76-1.06-.68-2.07-1.29-3-2a11.72,11.72,0,0,1-1.33-1.22,3,3,0,0,1-.71-3.41,35.18,35.18,0,0,0,.91-6.17c.24-2.3.17-4.65.61-6.9a12.06,12.06,0,0,1,10.14-9.63,11.85,11.85,0,0,1,13,8.63,37.31,37.31,0,0,1,.81,6.19c.22,2.14.35,4.29.58,6.43a7.15,7.15,0,0,0,.53,1.91,2.2,2.2,0,0,1-.4,2.46,13.14,13.14,0,0,1-4.8,3.57,1.73,1.73,0,0,0,2.13.28c2.79-1.18,5.66-2.18,8.51-3.23a2.38,2.38,0,0,0,1.42-1.18,21.36,21.36,0,0,1,2.22-2.58,4.71,4.71,0,0,0,.55-1.32c0-.09,0-.19,0-.29a6.87,6.87,0,0,0-2.11-6.06,15.4,15.4,0,0,1-4-11,25.45,25.45,0,0,0-.93-5.94c-1-4.43-1.28-9,.81-13.2A12.71,12.71,0,0,1,121,84.14c7.25-.22,14.52-.07,21.77-.07a1.47,1.47,0,0,1,1.68,1.63c0,5.55,0,11.1-.14,16.64a11.24,11.24,0,0,1-.82,3.78,9.2,9.2,0,0,0-.55,3.62c.09,3.24-.24,6.44-1.92,9.27a59.7,59.7,0,0,1-3.63,4.83,4.9,4.9,0,0,0-.54,1.21c0,.08,0,.19,0,.28a5.94,5.94,0,0,0,2.39,6.21.43.43,0,0,1,.18.2c.36,1.43,1.65,1.56,2.73,2,1.66.61,3.34,1.19,5,1.83a2.69,2.69,0,0,0,2.1.08,11.09,11.09,0,0,1,1.28-.38c1.87-.54,2-.75,1.72-2.67a1.2,1.2,0,0,0-.43-.67,11,11,0,0,1-4.11-9,7.59,7.59,0,0,0-.77-3.55c-2.47-5.27,1.42-12,7.24-12.25,4.84-.24,9.69-.14,14.54-.15,1,0,1.61.5,1.61,1.38,0,3,0,6-.15,8.93a4.91,4.91,0,0,1-.61,2.07,6.83,6.83,0,0,0-.74,3.65,10.42,10.42,0,0,1-4.1,9c-.86.67-.4,1.59-.38,2.38,0,.26.65.59,1.05.72,1.57.5,3.16.93,4.74,1.37a6.08,6.08,0,0,1,4.64,4.66.8.8,0,0,0,.16.23ZM141.46,87a.66.66,0,0,0-.25-.07c-6.75,0-13.5-.11-20.25,0a10.38,10.38,0,0,0-9.78,8.28,18,18,0,0,0,.43,9.76,14.57,14.57,0,0,1,.76,5.29,15.74,15.74,0,0,0,1.43,6.92,13.81,13.81,0,0,0,14,7.93A13.66,13.66,0,0,0,139.5,115a47.71,47.71,0,0,0,.55-6.79,14.35,14.35,0,0,1,.35-1.94,24.36,24.36,0,0,0,1.06-4.59c.15-4.81.08-9.63.09-14.45C141.55,87.13,141.5,87.07,141.46,87Zm26,22.78c-3.43,0-6.65,0-9.88,0a32.19,32.19,0,0,0-3.41.13,6,6,0,0,0-4.71,8.25,9.5,9.5,0,0,1,1,4.83,7.24,7.24,0,0,0,.06,1.23c.36,3.87,4,7.23,7.63,7.11a7.71,7.71,0,0,0,7.72-8,12.74,12.74,0,0,1,1-5.32C168.07,115.47,167.23,112.64,167.5,109.78ZM102,121.55c0-3.11-.48-6.23-2.8-8.85a9,9,0,0,0-13.21.15c-2.31,2.7-2.72,5.88-2.67,8.93a9,9,0,0,1,1.49,1.46,4.12,4.12,0,0,1,.24,1.49,7.67,7.67,0,0,0,7.33,6.59,7.76,7.76,0,0,0,7.59-5.23,2.51,2.51,0,0,0-.35-2.47c-2.24-3.11-5.43-4.3-9.08-4.58a1.28,1.28,0,0,0-.78.4,17.09,17.09,0,0,1-1.84,1.78,1.8,1.8,0,0,1-1.55.13,1.7,1.7,0,0,1-.68-1.29c0-1,3.09-4,4-3.93a15.23,15.23,0,0,1,8.06,2.13A49.48,49.48,0,0,1,102,121.55Zm16.48,4.63a16.94,16.94,0,0,0,0,2,1.41,1.41,0,0,0,.48.91c2.23,1.57,4.47,3.11,6.74,4.61a1,1,0,0,0,1,0c2.27-1.5,4.52-3,6.75-4.6a1.12,1.12,0,0,0,.49-.72c.07-.68,0-1.37,0-2.19A16.89,16.89,0,0,1,118.48,126.18Zm10.16,9.71,3.59,3.58,3.4-5.09c1-1.48,1-1.48-.27-2.72-.06-.07-.15-.09-.28-.17Zm-8.38,3.69,3.62-3.62-6.59-4.5a14.58,14.58,0,0,0-1.11,1.13.77.77,0,0,0-.09.7C117.46,135.4,118.87,137.49,120.26,139.58ZM89.55,134c-.18,1.57-.57,3.3,1.46,4.29a3.5,3.5,0,0,0,3.42-.07c2-1,1.45-2.75,1.28-4.22Zm65.47-.2c0,.53-.11,1.17.14,1.47.93,1.09,2,2.07,3.08,3.17.87-.91,1.59-1.75,2.41-2.48a1.75,1.75,0,0,0,.61-2.13,26,26,0,0,1-3,.34A27.07,27.07,0,0,1,155,133.81Zm-72.19-5.57c-.17.65-.42,1.55-.62,2.47a.79.79,0,0,0,.14.66A10,10,0,0,0,86.72,134c-.09-.71,0-1.41-.28-1.77C85.28,130.8,84,129.49,82.83,128.24ZM98.72,134a10.37,10.37,0,0,0,4.19-2.54.78.78,0,0,0,.23-.57c-.22-1-.49-1.91-.69-2.67a38.12,38.12,0,0,1-3,3.48A2.15,2.15,0,0,0,98.72,134Z"/><path class="cls-4" d="M165.93,149.48c0-1.42,0-2.85,0-4.27,0-1,.58-1.65,1.44-1.63a1.44,1.44,0,0,1,1.4,1.59q0,4.37,0,8.73a1.49,1.49,0,0,1-1.46,1.65c-.83,0-1.37-.67-1.38-1.71C165.92,152.39,165.93,150.93,165.93,149.48Z"/><path class="cls-4" d="M86.44,150.54c0,1.13,0,2.27,0,3.41a1.43,1.43,0,1,1-2.84,0q0-3.47,0-6.93A1.42,1.42,0,0,1,85,145.47c.86,0,1.4.61,1.42,1.65S86.44,149.4,86.44,150.54Z"/><path class="cls-4" d="M141.57,151c0-1,0-1.91,0-2.86a1.41,1.41,0,0,1,1.36-1.52,1.39,1.39,0,0,1,1.46,1.43c0,2,0,4,0,6a1.44,1.44,0,0,1-1.42,1.5,1.45,1.45,0,0,1-1.4-1.6C141.56,153,141.57,152,141.57,151Z"/><path class="cls-4" d="M110.83,151.1c0,1,0,2,0,2.94a1.4,1.4,0,0,1-1.39,1.5,1.35,1.35,0,0,1-1.4-1.39q-.07-3.09,0-6.18a1.31,1.31,0,0,1,1.43-1.34,1.36,1.36,0,0,1,1.35,1.43c0,1,0,2,0,3Z"/><path class="cls-4" d="M117,100.43c0,1.08,0,2.06,0,3,0,1.15-.54,1.75-1.45,1.73s-1.37-.59-1.39-1.69,0-2.15,0-3.22a2.83,2.83,0,0,1,2.43-2.67,39.33,39.33,0,0,1,14.43.17,13.7,13.7,0,0,1,6.71,3.35,1.42,1.42,0,0,1,.25,2,1.36,1.36,0,0,1-2,.14c-2.68-2.41-6-3-9.39-3.29A43.21,43.21,0,0,0,117,100.43Z"/><path class="cls-4" d="M164.19,117.15c0,1.29-.85,2-1.76,1.69a30.18,30.18,0,0,0-8.83-1.45,1.31,1.31,0,0,1-1.36-1.4,1.33,1.33,0,0,1,1.47-1.39,24.45,24.45,0,0,1,9.28,1.51A4.55,4.55,0,0,1,164.19,117.15Z"/></svg>