<svg id="Layer_1" data-name="Layer 1" xmlns="http://www.w3.org/2000/svg" viewBox="0 0 654 250"><defs><style>.cls-1{fill:none;stroke:#49773d;stroke-miterlimit:10;stroke-width:2.6px;}.cls-2{fill:#49773d;}.cls-3{opacity:0.15;}.cls-4{fill:#fff;}</style></defs><polygon class="cls-1" points="12.41 125 126.3 238.89 528.28 238.89 642.17 125 528.28 11.11 126.3 11.11 12.41 125"/><path class="cls-2" d="M384.31,99.66l-5.54,12.77h-2.92l-5.51-12.77h3.2l3.88,9.12,3.95-9.12Z"/><path class="cls-2" d="M385.36,99.66h3v12.77h-3Z"/><path class="cls-2" d="M391.35,99.66h3V110h6.41v2.41h-9.37Z"/><path class="cls-2" d="M402.38,99.66h2.95V110h6.41v2.41h-9.36Z"/><path class="cls-2" d="M421.93,109.7H416l-1.14,2.73h-3l5.7-12.77h2.92l5.71,12.77h-3.1Zm-.93-2.25-2-4.89-2,4.89Z"/><path class="cls-2" d="M436,105.84h2.7V111a7.89,7.89,0,0,1-2.41,1.2,9.34,9.34,0,0,1-2.76.42,7.45,7.45,0,0,1-3.58-.85,6.33,6.33,0,0,1-2.49-2.35,6.89,6.89,0,0,1,0-6.81,6.25,6.25,0,0,1,2.51-2.35,7.58,7.58,0,0,1,3.62-.85,8.08,8.08,0,0,1,3,.56,6.16,6.16,0,0,1,2.3,1.65L437,103.4a4.42,4.42,0,0,0-3.31-1.44,4.52,4.52,0,0,0-2.17.51,3.73,3.73,0,0,0-1.48,1.44,4.27,4.27,0,0,0-.53,2.14,4.21,4.21,0,0,0,.53,2.11,3.73,3.73,0,0,0,1.47,1.45,4.33,4.33,0,0,0,2.15.52,4.88,4.88,0,0,0,2.3-.54Z"/><path class="cls-2" d="M451.28,110.06v2.37h-9.89V99.66H451V102h-6.71v2.77h5.93v2.3h-5.93v3Z"/><path class="cls-2" d="M454.9,112.24a6.76,6.76,0,0,1-2.27-1.07l1-2.22a6.84,6.84,0,0,0,1.95,1,7.41,7.41,0,0,0,2.26.36,3.6,3.6,0,0,0,1.86-.37,1.13,1.13,0,0,0,.61-1,1,1,0,0,0-.36-.76,2.7,2.7,0,0,0-.91-.48c-.37-.12-.87-.26-1.51-.4a19,19,0,0,1-2.39-.7,3.93,3.93,0,0,1-1.6-1.11,3,3,0,0,1-.66-2,3.55,3.55,0,0,1,.6-2,4,4,0,0,1,1.82-1.43,7.22,7.22,0,0,1,3-.53,9.48,9.48,0,0,1,2.39.29,6.89,6.89,0,0,1,2,.84l-.91,2.24a7.17,7.17,0,0,0-3.55-1,3.29,3.29,0,0,0-1.83.4,1.22,1.22,0,0,0-.59,1.06,1,1,0,0,0,.68,1,11.21,11.21,0,0,0,2.09.63,21,21,0,0,1,2.39.69,4,4,0,0,1,1.6,1.1,2.93,2.93,0,0,1,.67,2,3.48,3.48,0,0,1-.62,2,4.07,4.07,0,0,1-1.83,1.43,7.39,7.39,0,0,1-3,.53A10.27,10.27,0,0,1,454.9,112.24Z"/><path class="cls-2" d="M426,62a10.57,10.57,0,0,1,4.31,3.79,10.24,10.24,0,0,1,1.58,5.67,10.76,10.76,0,0,1-1.73,6.09,11.25,11.25,0,0,1-4.73,4A15.48,15.48,0,0,1,418.79,83q-7.28,0-11.39-4.45T403.28,65.8a21.44,21.44,0,0,1,2.23-10.11,15.28,15.28,0,0,1,6.22-6.39A19,19,0,0,1,421,47.12a22.68,22.68,0,0,1,5.33.62,14.22,14.22,0,0,1,4.34,1.76l-3,5.9a11.35,11.35,0,0,0-6.49-1.74,9.45,9.45,0,0,0-7,2.58c-1.71,1.72-2.64,4.21-2.77,7.48q3.07-3.07,8.57-3.07A13.46,13.46,0,0,1,426,62Zm-3.5,13.62a4.68,4.68,0,0,0,1.61-3.76,4.76,4.76,0,0,0-1.61-3.79,6.21,6.21,0,0,0-4.28-1.42,6.31,6.31,0,0,0-4.31,1.47,5,5,0,0,0-.05,7.45A6.5,6.5,0,0,0,418.35,77,6.15,6.15,0,0,0,422.53,75.61Z"/><path d="M329.76,140.11a.92.92,0,0,1,.23-.63,1,1,0,0,1,1.35,0,.88.88,0,0,1,.24.63.86.86,0,0,1-.24.62.91.91,0,0,1-1.58-.62Zm1.66,11.33h-1.53v-9h1.53Z"/><path d="M335.31,142.48l0,1a3.29,3.29,0,0,1,2.66-1.16,2.55,2.55,0,0,1,2.55,1.44,3.31,3.31,0,0,1,2.86-1.44q2.94,0,3,3.12v6h-1.54v-5.91a2.08,2.08,0,0,0-.43-1.44,2,2,0,0,0-1.48-.47,2,2,0,0,0-2.07,1.88v5.94h-1.54v-5.87a1.7,1.7,0,0,0-1.91-1.95,2,2,0,0,0-2.06,1.28v6.54h-1.53v-9Z"/><path d="M356.29,147.06a5.31,5.31,0,0,1-.94,3.29,3,3,0,0,1-2.53,1.25,3.26,3.26,0,0,1-2.56-1v4.31h-1.54v-12.4h1.4l.08,1a3.13,3.13,0,0,1,2.6-1.16,3.06,3.06,0,0,1,2.55,1.21,5.4,5.4,0,0,1,.94,3.39Zm-1.53-.17a4,4,0,0,0-.65-2.4,2.08,2.08,0,0,0-1.77-.87,2.24,2.24,0,0,0-2.08,1.23v4.28a2.23,2.23,0,0,0,2.1,1.22,2.07,2.07,0,0,0,1.75-.87A4.34,4.34,0,0,0,354.76,146.89Z"/><path d="M359.9,151.44h-1.53V138.72h1.53Z"/><path d="M366.06,151.6a3.93,3.93,0,0,1-3-1.19,4.46,4.46,0,0,1-1.14-3.2v-.28a5.37,5.37,0,0,1,.51-2.38,3.93,3.93,0,0,1,1.42-1.64,3.53,3.53,0,0,1,2-.59,3.35,3.35,0,0,1,2.72,1.15,5,5,0,0,1,1,3.29v.64h-6.07a3.21,3.21,0,0,0,.77,2.14,2.47,2.47,0,0,0,1.89.81,2.65,2.65,0,0,0,1.37-.33,3.43,3.43,0,0,0,1-.88l.93.73A3.74,3.74,0,0,1,366.06,151.6Zm-.19-8a2,2,0,0,0-1.55.68,3.28,3.28,0,0,0-.78,1.89H368V146a3,3,0,0,0-.63-1.8A1.94,1.94,0,0,0,365.87,143.57Z"/><path d="M372.77,142.48l0,1a3.29,3.29,0,0,1,2.66-1.16,2.55,2.55,0,0,1,2.55,1.44,3.31,3.31,0,0,1,2.86-1.44c2,0,3,1,3,3.12v6h-1.53v-5.91a2.08,2.08,0,0,0-.44-1.44,2,2,0,0,0-1.48-.47,2,2,0,0,0-1.41.51,2.06,2.06,0,0,0-.66,1.37v5.94h-1.54v-5.87a1.7,1.7,0,0,0-1.91-1.95,2,2,0,0,0-2.06,1.28v6.54h-1.53v-9Z"/><path d="M389.9,151.6a3.93,3.93,0,0,1-3-1.19,4.46,4.46,0,0,1-1.14-3.2v-.28a5.51,5.51,0,0,1,.5-2.38,4,4,0,0,1,1.43-1.64,3.53,3.53,0,0,1,2-.59,3.35,3.35,0,0,1,2.72,1.15,5,5,0,0,1,1,3.29v.64h-6.06a3.21,3.21,0,0,0,.77,2.14,2.44,2.44,0,0,0,1.88.81,2.71,2.71,0,0,0,1.38-.33,3.4,3.4,0,0,0,1-.88l.94.73A3.75,3.75,0,0,1,389.9,151.6Zm-.19-8a2,2,0,0,0-1.55.68,3.28,3.28,0,0,0-.78,1.89h4.48V146a2.84,2.84,0,0,0-.63-1.8A1.91,1.91,0,0,0,389.71,143.57Z"/><path d="M396.61,142.48l.05,1.13a3.28,3.28,0,0,1,2.69-1.29c1.89,0,2.84,1.06,2.86,3.2v5.92h-1.53v-5.93a2.14,2.14,0,0,0-.44-1.43,1.79,1.79,0,0,0-1.36-.46,2.27,2.27,0,0,0-1.31.39,2.79,2.79,0,0,0-.87,1.05v6.38h-1.53v-9Z"/><path d="M406.6,140.31v2.17h1.67v1.19H406.6v5.56a1.21,1.21,0,0,0,.22.8.94.94,0,0,0,.76.27,3.44,3.44,0,0,0,.73-.1v1.24a4.46,4.46,0,0,1-1.18.16,1.87,1.87,0,0,1-1.54-.62,2.64,2.64,0,0,1-.53-1.76v-5.55h-1.63v-1.19h1.63v-2.17Z"/><path d="M413.77,151.6a3.93,3.93,0,0,1-3-1.19,4.46,4.46,0,0,1-1.14-3.2v-.28a5.37,5.37,0,0,1,.51-2.38,3.86,3.86,0,0,1,1.42-1.64,3.53,3.53,0,0,1,2-.59,3.35,3.35,0,0,1,2.72,1.15,5,5,0,0,1,1,3.29v.64H411.2a3.21,3.21,0,0,0,.77,2.14,2.44,2.44,0,0,0,1.88.81,2.71,2.71,0,0,0,1.38-.33,3.4,3.4,0,0,0,1-.88l.94.73A3.75,3.75,0,0,1,413.77,151.6Zm-.19-8a2,2,0,0,0-1.55.68,3.28,3.28,0,0,0-.78,1.89h4.48V146a2.84,2.84,0,0,0-.63-1.8A1.91,1.91,0,0,0,413.58,143.57Z"/><path d="M418.66,146.89a5.27,5.27,0,0,1,1-3.32,3.07,3.07,0,0,1,2.56-1.25,3.12,3.12,0,0,1,2.49,1.07v-4.67h1.53v12.72h-1.41l-.07-1a3.12,3.12,0,0,1-2.56,1.12,3.06,3.06,0,0,1-2.54-1.27,5.34,5.34,0,0,1-1-3.33Zm1.53.17a4,4,0,0,0,.63,2.38,2,2,0,0,0,1.74.86,2.24,2.24,0,0,0,2.13-1.3v-4.12a2.25,2.25,0,0,0-2.11-1.26,2.05,2.05,0,0,0-1.76.87A4.33,4.33,0,0,0,420.19,147.06Z"/><path d="M438.32,151.44a3.06,3.06,0,0,1-.21-.95,3.44,3.44,0,0,1-2.55,1.11,3.17,3.17,0,0,1-2.18-.75,2.43,2.43,0,0,1-.84-1.9,2.53,2.53,0,0,1,1.06-2.17,5,5,0,0,1,3-.77h1.49v-.71a1.7,1.7,0,0,0-.48-1.27,1.92,1.92,0,0,0-1.42-.48,2.27,2.27,0,0,0-1.37.41,1.22,1.22,0,0,0-.55,1h-1.54a2.16,2.16,0,0,1,.47-1.3,3.23,3.23,0,0,1,1.29-1,4.45,4.45,0,0,1,1.8-.36,3.5,3.5,0,0,1,2.42.77,2.78,2.78,0,0,1,.91,2.13v4.12a5.06,5.06,0,0,0,.32,2v.13Zm-2.54-1.17a2.69,2.69,0,0,0,1.37-.37,2.22,2.22,0,0,0,.93-1v-1.84h-1.2c-1.88,0-2.81.55-2.81,1.65a1.42,1.42,0,0,0,.48,1.13A1.84,1.84,0,0,0,435.78,150.27Z"/><path d="M445.84,146.89a5.26,5.26,0,0,1,1-3.32,3.08,3.08,0,0,1,2.56-1.25,3.12,3.12,0,0,1,2.49,1.07v-4.67h1.53v12.72H452l-.07-1a3.11,3.11,0,0,1-2.56,1.12,3,3,0,0,1-2.53-1.27,5.27,5.27,0,0,1-1-3.33Zm1.53.17a4,4,0,0,0,.63,2.38,2,2,0,0,0,1.73.86,2.24,2.24,0,0,0,2.13-1.3v-4.12a2.25,2.25,0,0,0-2.11-1.26,2,2,0,0,0-1.75.87A4.33,4.33,0,0,0,447.37,147.06Z"/><path d="M455.78,140.11a.91.91,0,0,1,.22-.63.87.87,0,0,1,.68-.26.88.88,0,0,1,.68.26.92.92,0,0,1,.23.63.9.9,0,0,1-.23.62.91.91,0,0,1-.68.25.9.9,0,0,1-.68-.25A.89.89,0,0,1,455.78,140.11Zm1.65,11.33H455.9v-9h1.53Z"/><path d="M465.1,149.06a1.13,1.13,0,0,0-.47-1,4.41,4.41,0,0,0-1.63-.59,8,8,0,0,1-1.85-.6,2.67,2.67,0,0,1-1-.83,2,2,0,0,1-.33-1.14,2.34,2.34,0,0,1,.94-1.86,3.61,3.61,0,0,1,2.38-.76,3.79,3.79,0,0,1,2.47.78,2.51,2.51,0,0,1,.94,2H465a1.35,1.35,0,0,0-.53-1.08,2,2,0,0,0-1.34-.46,2.1,2.1,0,0,0-1.31.37,1.13,1.13,0,0,0-.47.95.94.94,0,0,0,.43.84,5.72,5.72,0,0,0,1.59.53,8.76,8.76,0,0,1,1.86.62,2.69,2.69,0,0,1,1,.85,2.11,2.11,0,0,1,.35,1.22,2.3,2.3,0,0,1-1,1.93,4,4,0,0,1-2.49.72,4.43,4.43,0,0,1-1.91-.38,3.08,3.08,0,0,1-1.29-1.06,2.52,2.52,0,0,1-.47-1.48H461a1.58,1.58,0,0,0,.62,1.22,2.39,2.39,0,0,0,1.52.45,2.43,2.43,0,0,0,1.39-.35A1.08,1.08,0,0,0,465.1,149.06Z"/><path d="M474.15,151.44a3.31,3.31,0,0,1-.22-.95,3.4,3.4,0,0,1-2.54,1.11,3.17,3.17,0,0,1-2.18-.75,2.44,2.44,0,0,1-.85-1.9,2.54,2.54,0,0,1,1.07-2.17,5,5,0,0,1,3-.77h1.49v-.71a1.7,1.7,0,0,0-.48-1.27,1.92,1.92,0,0,0-1.42-.48,2.27,2.27,0,0,0-1.37.41,1.22,1.22,0,0,0-.55,1h-1.54a2.16,2.16,0,0,1,.47-1.3,3.23,3.23,0,0,1,1.29-1,4.42,4.42,0,0,1,1.8-.36,3.5,3.5,0,0,1,2.42.77,2.78,2.78,0,0,1,.91,2.13v4.12a5.06,5.06,0,0,0,.32,2v.13Zm-2.54-1.17a2.65,2.65,0,0,0,1.36-.37,2.25,2.25,0,0,0,.94-1v-1.84h-1.2c-1.88,0-2.81.55-2.81,1.65a1.42,1.42,0,0,0,.48,1.13A1.84,1.84,0,0,0,471.61,150.27Z"/><path d="M483.06,149.06a1.13,1.13,0,0,0-.47-1,4.41,4.41,0,0,0-1.63-.59,8,8,0,0,1-1.85-.6,2.67,2.67,0,0,1-1-.83,2,2,0,0,1-.32-1.14,2.33,2.33,0,0,1,.93-1.86,3.61,3.61,0,0,1,2.38-.76,3.77,3.77,0,0,1,2.47.78,2.51,2.51,0,0,1,.94,2H483a1.36,1.36,0,0,0-.54-1.08,2,2,0,0,0-1.34-.46,2.1,2.1,0,0,0-1.31.37,1.13,1.13,0,0,0-.47.95.92.92,0,0,0,.44.84,5.63,5.63,0,0,0,1.58.53,8.76,8.76,0,0,1,1.86.62,2.69,2.69,0,0,1,1.05.85,2.11,2.11,0,0,1,.35,1.22,2.3,2.3,0,0,1-1,1.93,4,4,0,0,1-2.49.72,4.43,4.43,0,0,1-1.91-.38,3.08,3.08,0,0,1-1.29-1.06,2.6,2.6,0,0,1-.47-1.48H479a1.58,1.58,0,0,0,.62,1.22,2.86,2.86,0,0,0,2.91.1A1.08,1.08,0,0,0,483.06,149.06Z"/><path d="M488.66,140.31v2.17h1.67v1.19h-1.67v5.56a1.21,1.21,0,0,0,.22.8,1,1,0,0,0,.76.27,3.44,3.44,0,0,0,.73-.1v1.24a4.39,4.39,0,0,1-1.17.16,1.89,1.89,0,0,1-1.55-.62,2.64,2.64,0,0,1-.52-1.76v-5.55H485.5v-1.19h1.63v-2.17Z"/><path d="M495.84,151.6a3.94,3.94,0,0,1-3-1.19,4.46,4.46,0,0,1-1.14-3.2v-.28a5.37,5.37,0,0,1,.51-2.38,3.93,3.93,0,0,1,1.42-1.64,3.53,3.53,0,0,1,2-.59,3.35,3.35,0,0,1,2.72,1.15,4.93,4.93,0,0,1,1,3.29v.64h-6.07a3.17,3.17,0,0,0,.78,2.14,2.43,2.43,0,0,0,1.88.81,2.65,2.65,0,0,0,1.37-.33,3.31,3.31,0,0,0,1-.88l.93.73A3.74,3.74,0,0,1,495.84,151.6Zm-.2-8a2,2,0,0,0-1.55.68,3.28,3.28,0,0,0-.78,1.89h4.49V146a3,3,0,0,0-.63-1.8A1.94,1.94,0,0,0,495.64,143.57Z"/><path d="M505.43,143.86a4.38,4.38,0,0,0-.75-.06,2,2,0,0,0-2.05,1.28v6.36H501.1v-9h1.49l0,1a2.4,2.4,0,0,1,2.14-1.2,1.71,1.71,0,0,1,.68.11Z"/><path d="M291.83,164.2a4.51,4.51,0,0,0-.76-.06,2,2,0,0,0-2,1.28v6.36H287.5v-9H289l0,1a2.39,2.39,0,0,1,2.14-1.2,1.71,1.71,0,0,1,.68.11Z"/><path d="M293.24,160.45a.92.92,0,0,1,.23-.63,1,1,0,0,1,1.35,0,.88.88,0,0,1,.23.63.85.85,0,0,1-.23.62.91.91,0,0,1-1.58-.62Zm1.66,11.33h-1.53v-9h1.53Z"/><path d="M302.56,169.4a1.11,1.11,0,0,0-.47-1,4.34,4.34,0,0,0-1.63-.59,7.92,7.92,0,0,1-1.84-.6,2.6,2.6,0,0,1-1-.83,2,2,0,0,1-.33-1.14,2.33,2.33,0,0,1,.93-1.86,3.63,3.63,0,0,1,2.38-.76,3.75,3.75,0,0,1,2.47.78,2.52,2.52,0,0,1,.95,2h-1.54a1.4,1.4,0,0,0-.53-1.08,2,2,0,0,0-1.35-.45,2.12,2.12,0,0,0-1.31.36,1.15,1.15,0,0,0-.47.95.94.94,0,0,0,.44.84,5.54,5.54,0,0,0,1.59.54,8,8,0,0,1,1.85.61,2.74,2.74,0,0,1,1.06.85,2.14,2.14,0,0,1,.34,1.23,2.28,2.28,0,0,1-1,1.92,4,4,0,0,1-2.49.72,4.39,4.39,0,0,1-1.9-.38,3.11,3.11,0,0,1-1.3-1.06A2.6,2.6,0,0,1,297,169h1.54a1.55,1.55,0,0,0,.61,1.22,2.41,2.41,0,0,0,1.52.45,2.44,2.44,0,0,0,1.4-.35A1.07,1.07,0,0,0,302.56,169.4Z"/><path d="M308.59,167.63l-1,1v3.15H306.1V159.07h1.53v7.68l.82-1,2.79-3h1.86l-3.49,3.74,3.89,5.22h-1.79Z"/><path d="M323.2,164.2a4.38,4.38,0,0,0-.75-.06,2,2,0,0,0-2,1.28v6.36h-1.53v-9h1.48l0,1a2.38,2.38,0,0,1,2.13-1.2,1.68,1.68,0,0,1,.68.11Z"/><path d="M328.17,171.94a3.9,3.9,0,0,1-3-1.19,4.42,4.42,0,0,1-1.15-3.2v-.28a5.37,5.37,0,0,1,.51-2.38,4,4,0,0,1,1.43-1.64,3.53,3.53,0,0,1,2-.59,3.33,3.33,0,0,1,2.71,1.15,5,5,0,0,1,1,3.29v.64H325.6a3.19,3.19,0,0,0,.77,2.14,2.43,2.43,0,0,0,1.88.81,2.71,2.71,0,0,0,1.38-.33,3.51,3.51,0,0,0,1-.87l.94.72A3.75,3.75,0,0,1,328.17,171.94Zm-.19-8a2,2,0,0,0-1.56.67,3.28,3.28,0,0,0-.78,1.89h4.49v-.11a2.85,2.85,0,0,0-.63-1.81A1.9,1.9,0,0,0,328,163.92Z"/><path d="M333.06,167.23a5.27,5.27,0,0,1,1-3.32,3.1,3.1,0,0,1,2.56-1.25,3.14,3.14,0,0,1,2.49,1.07v-4.66h1.53v12.71h-1.41l-.07-1a3.13,3.13,0,0,1-2.56,1.12,3.06,3.06,0,0,1-2.54-1.27,5.34,5.34,0,0,1-1-3.33Zm1.53.17a3.94,3.94,0,0,0,.63,2.38,2,2,0,0,0,1.74.86,2.24,2.24,0,0,0,2.13-1.3v-4.12A2.25,2.25,0,0,0,337,164a2.05,2.05,0,0,0-1.76.87A4.35,4.35,0,0,0,334.59,167.4Z"/><path d="M348.52,170.89a3.24,3.24,0,0,1-2.62,1.05,2.76,2.76,0,0,1-2.18-.83,3.6,3.6,0,0,1-.76-2.46v-5.83h1.53v5.79c0,1.36.55,2,1.66,2a2.29,2.29,0,0,0,2.33-1.3v-6.52H350v9h-1.46Z"/><path d="M355.93,170.69a2.2,2.2,0,0,0,1.43-.49A1.74,1.74,0,0,0,358,169h1.45a2.83,2.83,0,0,1-.53,1.46,3.61,3.61,0,0,1-1.3,1.11,3.73,3.73,0,0,1-1.73.41,3.67,3.67,0,0,1-2.91-1.22,4.84,4.84,0,0,1-1.08-3.34v-.25a5.42,5.42,0,0,1,.48-2.33,3.67,3.67,0,0,1,1.38-1.58,3.94,3.94,0,0,1,2.12-.56,3.61,3.61,0,0,1,2.51.9,3.25,3.25,0,0,1,1.06,2.34H358a2.09,2.09,0,0,0-.66-1.43,2,2,0,0,0-1.46-.55,2.15,2.15,0,0,0-1.81.84,4,4,0,0,0-.64,2.42v.29a3.84,3.84,0,0,0,.64,2.39A2.13,2.13,0,0,0,355.93,170.69Z"/><path d="M363.29,160.65v2.17H365V164h-1.67v5.56a1.24,1.24,0,0,0,.22.81,1,1,0,0,0,.76.26,4.06,4.06,0,0,0,.73-.09v1.23a4.39,4.39,0,0,1-1.17.16,1.89,1.89,0,0,1-1.55-.62,2.64,2.64,0,0,1-.52-1.76V164h-1.63v-1.19h1.63v-2.17Z"/><path d="M366.76,160.45a.91.91,0,0,1,.22-.63.87.87,0,0,1,.68-.26.88.88,0,0,1,.68.26.92.92,0,0,1,.23.63.9.9,0,0,1-.23.62.91.91,0,0,1-.68.25.9.9,0,0,1-.68-.25A.89.89,0,0,1,366.76,160.45Zm1.65,11.33h-1.53v-9h1.53Z"/><path d="M370.46,167.22a5.35,5.35,0,0,1,.51-2.37,3.8,3.8,0,0,1,3.55-2.19,3.8,3.8,0,0,1,3,1.26,4.9,4.9,0,0,1,1.13,3.37v.11a5.43,5.43,0,0,1-.5,2.35,3.8,3.8,0,0,1-1.43,1.61,4,4,0,0,1-2.14.58,3.76,3.76,0,0,1-3-1.26,4.82,4.82,0,0,1-1.13-3.35Zm1.54.18a3.83,3.83,0,0,0,.69,2.39,2.34,2.34,0,0,0,3.7,0,4.17,4.17,0,0,0,.69-2.56,3.88,3.88,0,0,0-.7-2.39,2.23,2.23,0,0,0-1.86-.91,2.19,2.19,0,0,0-1.83.9A4.17,4.17,0,0,0,372,167.4Z"/><path d="M382,162.82l0,1.13a3.25,3.25,0,0,1,2.68-1.29q2.84,0,2.86,3.2v5.92H386v-5.93a2.09,2.09,0,0,0-.44-1.43,1.78,1.78,0,0,0-1.36-.46,2.22,2.22,0,0,0-1.3.39,2.73,2.73,0,0,0-.88,1.05v6.38h-1.53v-9Z"/><path d="M399.29,169.4a1.11,1.11,0,0,0-.47-1,4.34,4.34,0,0,0-1.63-.59,7.92,7.92,0,0,1-1.84-.6,2.6,2.6,0,0,1-1-.83,2,2,0,0,1-.33-1.14,2.33,2.33,0,0,1,.93-1.86,3.63,3.63,0,0,1,2.38-.76,3.75,3.75,0,0,1,2.47.78,2.52,2.52,0,0,1,.95,2H399.2a1.4,1.4,0,0,0-.53-1.08,2,2,0,0,0-1.35-.45,2.12,2.12,0,0,0-1.31.36,1.15,1.15,0,0,0-.47.95.94.94,0,0,0,.44.84,5.54,5.54,0,0,0,1.59.54,8,8,0,0,1,1.85.61,2.74,2.74,0,0,1,1.06.85,2.14,2.14,0,0,1,.34,1.23,2.28,2.28,0,0,1-1,1.92,4,4,0,0,1-2.49.72,4.39,4.39,0,0,1-1.9-.38,3.11,3.11,0,0,1-1.3-1.06,2.6,2.6,0,0,1-.47-1.48h1.54a1.55,1.55,0,0,0,.61,1.22,2.41,2.41,0,0,0,1.52.45,2.44,2.44,0,0,0,1.4-.35A1.07,1.07,0,0,0,399.29,169.4Z"/><path d="M404.89,160.65v2.17h1.68V164h-1.68v5.56a1.24,1.24,0,0,0,.23.81,1,1,0,0,0,.76.26,4.06,4.06,0,0,0,.73-.09v1.23a4.46,4.46,0,0,1-1.18.16,1.87,1.87,0,0,1-1.54-.62,2.64,2.64,0,0,1-.53-1.76V164h-1.63v-1.19h1.63v-2.17Z"/><path d="M412.68,164.2a4.38,4.38,0,0,0-.75-.06,2,2,0,0,0-2,1.28v6.36h-1.54v-9h1.49l0,1a2.38,2.38,0,0,1,2.13-1.2,1.68,1.68,0,0,1,.68.11Z"/><path d="M419.29,171.78a3.31,3.31,0,0,1-.22-.95,3.41,3.41,0,0,1-2.55,1.11,3.16,3.16,0,0,1-2.17-.75,2.39,2.39,0,0,1-.85-1.89,2.54,2.54,0,0,1,1.07-2.18,5,5,0,0,1,3-.77h1.49v-.7a1.7,1.7,0,0,0-.48-1.28,1.92,1.92,0,0,0-1.42-.48,2.27,2.27,0,0,0-1.37.41,1.23,1.23,0,0,0-.56,1h-1.54a2.12,2.12,0,0,1,.48-1.3,3.23,3.23,0,0,1,1.29-1,4.37,4.37,0,0,1,1.79-.36,3.59,3.59,0,0,1,2.43.77,2.81,2.81,0,0,1,.91,2.13v4.12a5.08,5.08,0,0,0,.31,2v.13Zm-2.54-1.17a2.65,2.65,0,0,0,1.36-.37,2.3,2.3,0,0,0,.94-1v-1.84h-1.2q-2.82,0-2.82,1.65a1.4,1.4,0,0,0,.48,1.13A1.85,1.85,0,0,0,416.75,170.61Z"/><path d="M425.06,160.65v2.17h1.67V164h-1.67v5.56a1.24,1.24,0,0,0,.22.81,1,1,0,0,0,.76.26,4.06,4.06,0,0,0,.73-.09v1.23a4.39,4.39,0,0,1-1.17.16,1.87,1.87,0,0,1-1.55-.62,2.64,2.64,0,0,1-.52-1.76V164h-1.64v-1.19h1.64v-2.17Z"/><path d="M432.23,171.94a3.9,3.9,0,0,1-3-1.19,4.46,4.46,0,0,1-1.14-3.2v-.28a5.37,5.37,0,0,1,.51-2.38,3.93,3.93,0,0,1,1.42-1.64,3.53,3.53,0,0,1,2-.59,3.35,3.35,0,0,1,2.72,1.15,5,5,0,0,1,1,3.29v.64h-6.07a3.19,3.19,0,0,0,.77,2.14,2.45,2.45,0,0,0,1.89.81,2.67,2.67,0,0,0,1.37-.33,3.51,3.51,0,0,0,1-.87l.94.72A3.75,3.75,0,0,1,432.23,171.94Zm-.19-8a2,2,0,0,0-1.55.67,3.28,3.28,0,0,0-.78,1.89h4.48v-.11a2.9,2.9,0,0,0-.62-1.81A1.94,1.94,0,0,0,432,163.92Z"/><path d="M437.13,167.23a5.33,5.33,0,0,1,1-3.34,3.11,3.11,0,0,1,2.57-1.23,3,3,0,0,1,2.55,1.16l.08-1h1.4v8.74a3.66,3.66,0,0,1-1,2.74,3.8,3.8,0,0,1-2.77,1,4.55,4.55,0,0,1-1.9-.41,3.28,3.28,0,0,1-1.41-1.13l.79-.92a3,3,0,0,0,2.41,1.21,2.36,2.36,0,0,0,1.74-.62,2.4,2.4,0,0,0,.63-1.78v-.77a3.14,3.14,0,0,1-2.51,1.06,3.07,3.07,0,0,1-2.55-1.26A5.61,5.61,0,0,1,437.13,167.23Zm1.54.17a4.05,4.05,0,0,0,.62,2.38,2,2,0,0,0,1.74.86,2.23,2.23,0,0,0,2.13-1.31v-4.09a2.26,2.26,0,0,0-2.11-1.28,2,2,0,0,0-1.75.87A4.35,4.35,0,0,0,438.67,167.4Z"/><path d="M449.94,169.54l2.08-6.72h1.64l-3.6,10.34c-.56,1.49-1.44,2.24-2.66,2.24l-.29,0-.57-.11V174l.42,0a2,2,0,0,0,1.21-.31,2.28,2.28,0,0,0,.72-1.15l.33-.91L446,162.82h1.67Z"/><path d="M461.3,160.65v2.17H463V164H461.3v5.56a1.24,1.24,0,0,0,.22.81,1,1,0,0,0,.76.26,4.06,4.06,0,0,0,.73-.09v1.23a4.39,4.39,0,0,1-1.17.16,1.89,1.89,0,0,1-1.55-.62,2.64,2.64,0,0,1-.52-1.76V164h-1.63v-1.19h1.63v-2.17Z"/><path d="M466.29,163.91a3.24,3.24,0,0,1,2.65-1.25c1.89,0,2.85,1.07,2.86,3.2v5.92h-1.53v-5.93a2,2,0,0,0-.44-1.43,1.77,1.77,0,0,0-1.35-.46,2.23,2.23,0,0,0-1.31.39,2.73,2.73,0,0,0-.88,1.05v6.38h-1.53V159.07h1.53Z"/><path d="M479.63,171.78a3.31,3.31,0,0,1-.22-.95,3.41,3.41,0,0,1-2.55,1.11,3.15,3.15,0,0,1-2.17-.75,2.39,2.39,0,0,1-.85-1.89,2.54,2.54,0,0,1,1.06-2.18,5.08,5.08,0,0,1,3-.77h1.49v-.7a1.74,1.74,0,0,0-.48-1.28,1.94,1.94,0,0,0-1.42-.48,2.25,2.25,0,0,0-1.37.41,1.23,1.23,0,0,0-.56,1H474a2.12,2.12,0,0,1,.48-1.3,3.17,3.17,0,0,1,1.29-1,4.37,4.37,0,0,1,1.79-.36,3.59,3.59,0,0,1,2.43.77,2.85,2.85,0,0,1,.91,2.13v4.12a5.08,5.08,0,0,0,.31,2v.13Zm-2.55-1.17a2.69,2.69,0,0,0,1.37-.37,2.3,2.3,0,0,0,.94-1v-1.84h-1.21c-1.87,0-2.81.55-2.81,1.65a1.4,1.4,0,0,0,.48,1.13A1.84,1.84,0,0,0,477.08,170.61Z"/><path d="M485.39,160.65v2.17h1.68V164h-1.68v5.56a1.24,1.24,0,0,0,.23.81,1,1,0,0,0,.76.26,4.17,4.17,0,0,0,.73-.09v1.23a4.52,4.52,0,0,1-1.18.16,1.9,1.9,0,0,1-1.55-.62,2.7,2.7,0,0,1-.52-1.76V164h-1.63v-1.19h1.63v-2.17Z"/><path d="M496.64,170.69a2.18,2.18,0,0,0,1.43-.49,1.74,1.74,0,0,0,.68-1.24h1.45a2.74,2.74,0,0,1-.53,1.46,3.53,3.53,0,0,1-1.3,1.11,3.73,3.73,0,0,1-1.73.41,3.67,3.67,0,0,1-2.91-1.22,4.84,4.84,0,0,1-1.08-3.34v-.25a5.42,5.42,0,0,1,.48-2.33,3.67,3.67,0,0,1,1.38-1.58,4,4,0,0,1,2.12-.56,3.61,3.61,0,0,1,2.51.9,3.22,3.22,0,0,1,1.06,2.34h-1.45a2.09,2.09,0,0,0-.66-1.43,2,2,0,0,0-1.46-.55,2.13,2.13,0,0,0-1.8.84,3.92,3.92,0,0,0-.65,2.42v.29a3.91,3.91,0,0,0,.64,2.39A2.15,2.15,0,0,0,496.64,170.69Z"/><path d="M505.64,171.94a3.9,3.9,0,0,1-3-1.19,4.42,4.42,0,0,1-1.15-3.2v-.28a5.37,5.37,0,0,1,.51-2.38,4,4,0,0,1,1.43-1.64,3.53,3.53,0,0,1,2-.59,3.33,3.33,0,0,1,2.71,1.15,5,5,0,0,1,1,3.29v.64h-6.07a3.25,3.25,0,0,0,.78,2.14,2.43,2.43,0,0,0,1.88.81,2.71,2.71,0,0,0,1.38-.33,3.51,3.51,0,0,0,1-.87l.94.72A3.76,3.76,0,0,1,505.64,171.94Zm-.19-8a2,2,0,0,0-1.56.67,3.28,3.28,0,0,0-.78,1.89h4.49v-.11a2.85,2.85,0,0,0-.63-1.81A1.9,1.9,0,0,0,505.45,163.92Z"/><path d="M512.35,162.82l0,1.13a3.26,3.26,0,0,1,2.68-1.29q2.83,0,2.87,3.2v5.92h-1.54v-5.93a2,2,0,0,0-.44-1.43,1.77,1.77,0,0,0-1.35-.46,2.25,2.25,0,0,0-1.31.39,2.82,2.82,0,0,0-.88,1.05v6.38H510.9v-9Z"/><path d="M522.33,160.65v2.17H524V164h-1.68v5.56a1.24,1.24,0,0,0,.23.81,1,1,0,0,0,.76.26,4.17,4.17,0,0,0,.73-.09v1.23a4.52,4.52,0,0,1-1.18.16,1.9,1.9,0,0,1-1.55-.62,2.7,2.7,0,0,1-.52-1.76V164h-1.63v-1.19h1.63v-2.17Z"/><path d="M530.12,164.2a4.38,4.38,0,0,0-.75-.06,2,2,0,0,0-2,1.28v6.36h-1.53v-9h1.49l0,1a2.38,2.38,0,0,1,2.13-1.2,1.68,1.68,0,0,1,.68.11Z"/><path d="M535.09,171.94a3.92,3.92,0,0,1-3-1.19,4.46,4.46,0,0,1-1.14-3.2v-.28a5.37,5.37,0,0,1,.51-2.38,3.93,3.93,0,0,1,1.42-1.64,3.54,3.54,0,0,1,2-.59,3.33,3.33,0,0,1,2.71,1.15,5,5,0,0,1,1,3.29v.64h-6.07a3.2,3.2,0,0,0,.78,2.14,2.43,2.43,0,0,0,1.88.81,2.65,2.65,0,0,0,1.37-.33,3.41,3.41,0,0,0,1-.87l.93.72A3.74,3.74,0,0,1,535.09,171.94Zm-.19-8a2,2,0,0,0-1.56.67,3.28,3.28,0,0,0-.78,1.89h4.49v-.11a2.91,2.91,0,0,0-.63-1.81A1.91,1.91,0,0,0,534.9,163.92Z"/><path d="M545.57,169.4a1.13,1.13,0,0,0-.47-1,4.41,4.41,0,0,0-1.63-.59,8,8,0,0,1-1.85-.6,2.67,2.67,0,0,1-1-.83,2,2,0,0,1-.32-1.14,2.33,2.33,0,0,1,.93-1.86,3.61,3.61,0,0,1,2.38-.76,3.79,3.79,0,0,1,2.47.78,2.51,2.51,0,0,1,.94,2h-1.54a1.37,1.37,0,0,0-.53-1.08,2,2,0,0,0-1.34-.45,2.1,2.1,0,0,0-1.31.36,1.13,1.13,0,0,0-.47.95.92.92,0,0,0,.44.84,5.56,5.56,0,0,0,1.58.54,8.26,8.26,0,0,1,1.86.61,2.78,2.78,0,0,1,1,.85,2.15,2.15,0,0,1,.35,1.23,2.28,2.28,0,0,1-1,1.92,4,4,0,0,1-2.49.72,4.43,4.43,0,0,1-1.91-.38,3.08,3.08,0,0,1-1.29-1.06A2.6,2.6,0,0,1,540,169h1.53a1.56,1.56,0,0,0,.62,1.22,2.39,2.39,0,0,0,1.52.45,2.43,2.43,0,0,0,1.39-.35A1.08,1.08,0,0,0,545.57,169.4Z"/><path d="M301.59,187.56a5.36,5.36,0,0,1,.52-2.37,3.8,3.8,0,0,1,3.55-2.19,3.8,3.8,0,0,1,3,1.26,4.9,4.9,0,0,1,1.13,3.37v.11a5.43,5.43,0,0,1-.5,2.35,3.91,3.91,0,0,1-1.44,1.62,4,4,0,0,1-2.14.57,3.79,3.79,0,0,1-2.95-1.26,4.87,4.87,0,0,1-1.13-3.35Zm1.54.18a3.83,3.83,0,0,0,.69,2.39,2.34,2.34,0,0,0,3.71,0,4.17,4.17,0,0,0,.69-2.56,3.82,3.82,0,0,0-.71-2.39,2.32,2.32,0,0,0-3.68,0A4.11,4.11,0,0,0,303.13,187.74Z"/><path d="M313.11,183.16l.05,1.13a3.28,3.28,0,0,1,2.69-1.29q2.83,0,2.86,3.2v5.92h-1.53v-5.93a2.14,2.14,0,0,0-.44-1.43,1.79,1.79,0,0,0-1.36-.46,2.27,2.27,0,0,0-1.31.39,2.79,2.79,0,0,0-.87,1.05v6.38h-1.53v-9Z"/><path d="M330.09,192.12h-1.54V181.91l-3.09,1.14v-1.39l4.39-1.65h.24Z"/><path d="M342.47,192.12h-7.89V191l4.17-4.64a10,10,0,0,0,1.28-1.71,2.87,2.87,0,0,0,.35-1.36,2.14,2.14,0,0,0-.57-1.54,2,2,0,0,0-1.53-.61,2.36,2.36,0,0,0-1.77.65,2.49,2.49,0,0,0-.63,1.81h-1.54a3.53,3.53,0,0,1,1.08-2.69,4,4,0,0,1,2.86-1,3.86,3.86,0,0,1,2.66.88,3,3,0,0,1,1,2.35q0,1.78-2.27,4.24l-3.23,3.5h6.05Z"/><path d="M350.53,181v2.16h1.67v1.19h-1.67v5.56a1.24,1.24,0,0,0,.22.81.94.94,0,0,0,.76.27,4.25,4.25,0,0,0,.73-.1v1.23a4.46,4.46,0,0,1-1.18.16,1.87,1.87,0,0,1-1.54-.62,2.64,2.64,0,0,1-.53-1.76v-5.55h-1.63v-1.19H349V181Z"/><path d="M359.2,189.74a1.13,1.13,0,0,0-.47-1,4.34,4.34,0,0,0-1.63-.59,7.92,7.92,0,0,1-1.84-.6,2.52,2.52,0,0,1-1-.83,2,2,0,0,1-.33-1.14,2.33,2.33,0,0,1,.93-1.86,3.61,3.61,0,0,1,2.38-.76,3.77,3.77,0,0,1,2.47.78,2.53,2.53,0,0,1,.95,2h-1.54a1.4,1.4,0,0,0-.54-1.09,2,2,0,0,0-1.34-.45,2.12,2.12,0,0,0-1.31.36,1.15,1.15,0,0,0-.47.95.94.94,0,0,0,.44.84,5.26,5.26,0,0,0,1.58.54,7.93,7.93,0,0,1,1.86.61,2.67,2.67,0,0,1,1.06.86,2.09,2.09,0,0,1,.34,1.22,2.28,2.28,0,0,1-1,1.92,4,4,0,0,1-2.49.72,4.39,4.39,0,0,1-1.9-.38,3,3,0,0,1-1.3-1.06,2.57,2.57,0,0,1-.47-1.48h1.53a1.59,1.59,0,0,0,.62,1.22,2.8,2.8,0,0,0,2.91.1A1.07,1.07,0,0,0,359.2,189.74Z"/><path d="M368.25,191.23a3.24,3.24,0,0,1-2.62,1.05,2.77,2.77,0,0,1-2.18-.83,3.6,3.6,0,0,1-.76-2.46v-5.83h1.53V189c0,1.36.56,2,1.66,2a2.28,2.28,0,0,0,2.33-1.31v-6.52h1.53v9h-1.45Z"/><path d="M373.52,183.16l.05,1.13a3.25,3.25,0,0,1,2.68-1.29c1.89,0,2.85,1.07,2.86,3.2v5.92h-1.53v-5.93a2,2,0,0,0-.44-1.43,1.77,1.77,0,0,0-1.35-.46,2.23,2.23,0,0,0-1.31.39,2.73,2.73,0,0,0-.88,1.05v6.38h-1.53v-9Z"/><path d="M387,192.12a3.05,3.05,0,0,1-.21-.94,3.43,3.43,0,0,1-2.55,1.1,3.17,3.17,0,0,1-2.18-.74,2.45,2.45,0,0,1-.84-1.9,2.54,2.54,0,0,1,1.06-2.18,5,5,0,0,1,3-.77h1.49V186a1.7,1.7,0,0,0-.48-1.28,1.92,1.92,0,0,0-1.42-.48,2.21,2.21,0,0,0-1.37.42,1.21,1.21,0,0,0-.55,1h-1.54a2.16,2.16,0,0,1,.47-1.3,3.33,3.33,0,0,1,1.29-1,4.45,4.45,0,0,1,1.8-.36,3.55,3.55,0,0,1,2.42.77,2.78,2.78,0,0,1,.91,2.13V190a5,5,0,0,0,.32,2v.13ZM384.41,191a2.69,2.69,0,0,0,1.37-.37,2.22,2.22,0,0,0,.93-1v-1.84h-1.2c-1.88,0-2.81.55-2.81,1.65a1.4,1.4,0,0,0,.48,1.13A1.84,1.84,0,0,0,384.41,191Z"/><path d="M392.08,183.16l0,1a3.3,3.3,0,0,1,2.66-1.16,2.56,2.56,0,0,1,2.56,1.44,3.33,3.33,0,0,1,1.16-1,3.38,3.38,0,0,1,1.69-.4q3,0,3,3.12v6h-1.53v-5.91a2.08,2.08,0,0,0-.44-1.44,2,2,0,0,0-1.47-.47,2,2,0,0,0-1.42.51,2.07,2.07,0,0,0-.65,1.37v5.94h-1.54v-5.87a1.71,1.71,0,0,0-1.91-1.95,2,2,0,0,0-2.06,1.28v6.54h-1.54v-9Z"/><path d="M405.51,180.79a.91.91,0,0,1,.22-.63,1,1,0,0,1,1.36,0,.92.92,0,0,1,.23.63.9.9,0,0,1-.23.62,1,1,0,0,1-1.36,0A.89.89,0,0,1,405.51,180.79Zm1.65,11.33h-1.53v-9h1.53Z"/><path d="M412.8,187.63h-4v-1.25h4Z"/><path d="M418.62,184.54a4.42,4.42,0,0,0-.76-.06,2,2,0,0,0-2,1.28v6.36h-1.53v-9h1.49l0,1a2.4,2.4,0,0,1,2.14-1.2,1.71,1.71,0,0,1,.68.11Z"/><path d="M423.58,192.28a3.9,3.9,0,0,1-3-1.19,4.44,4.44,0,0,1-1.14-3.2v-.28a5.37,5.37,0,0,1,.51-2.38,3.93,3.93,0,0,1,1.42-1.64,3.61,3.61,0,0,1,2-.59,3.35,3.35,0,0,1,2.72,1.15,5,5,0,0,1,1,3.29v.64H421a3.19,3.19,0,0,0,.77,2.14,2.46,2.46,0,0,0,1.89.82,2.67,2.67,0,0,0,1.37-.34,3.38,3.38,0,0,0,1-.87l.94.73A3.77,3.77,0,0,1,423.58,192.28Zm-.19-8a2,2,0,0,0-1.55.67,3.28,3.28,0,0,0-.78,1.89h4.49v-.11a3,3,0,0,0-.63-1.81A1.94,1.94,0,0,0,423.39,184.26Z"/><path d="M434.38,192.12a3.31,3.31,0,0,1-.22-.94,3.4,3.4,0,0,1-2.55,1.1,3.16,3.16,0,0,1-2.17-.74,2.42,2.42,0,0,1-.85-1.9,2.56,2.56,0,0,1,1.06-2.18,5.08,5.08,0,0,1,3-.77h1.49V186a1.7,1.7,0,0,0-.48-1.28,1.94,1.94,0,0,0-1.42-.48,2.19,2.19,0,0,0-1.37.42,1.22,1.22,0,0,0-.56,1h-1.54a2.12,2.12,0,0,1,.48-1.3,3.33,3.33,0,0,1,1.29-1,4.37,4.37,0,0,1,1.79-.36,3.59,3.59,0,0,1,2.43.77,2.81,2.81,0,0,1,.91,2.13V190a5.06,5.06,0,0,0,.31,2v.13ZM431.84,191a2.65,2.65,0,0,0,1.36-.37,2.3,2.3,0,0,0,.94-1v-1.84h-1.2q-2.82,0-2.82,1.65a1.4,1.4,0,0,0,.48,1.13A1.85,1.85,0,0,0,431.84,191Z"/><path d="M437.7,187.57a5.26,5.26,0,0,1,1-3.32,3.33,3.33,0,0,1,5.05-.18v-4.66h1.53v12.71h-1.4l-.08-1a3.11,3.11,0,0,1-2.56,1.12,3,3,0,0,1-2.53-1.27,5.27,5.27,0,0,1-1-3.33Zm1.53.17a3.94,3.94,0,0,0,.63,2.38,2,2,0,0,0,1.73.87,2.25,2.25,0,0,0,2.13-1.31v-4.12a2.25,2.25,0,0,0-2.11-1.26,2,2,0,0,0-1.75.87A4.35,4.35,0,0,0,439.23,187.74Z"/><path d="M450.56,189.88l2.08-6.72h1.64l-3.6,10.34c-.56,1.49-1.44,2.24-2.66,2.24l-.28,0-.58-.11v-1.24l.42,0a2,2,0,0,0,1.21-.32,2.28,2.28,0,0,0,.72-1.15l.34-.91-3.2-8.86h1.67Z"/><path d="M459.85,180.79a.92.92,0,0,1,.23-.63,1,1,0,0,1,1.35,0,.88.88,0,0,1,.23.63.85.85,0,0,1-.23.62.91.91,0,0,1-1.58-.62Zm1.66,11.33H460v-9h1.53Z"/><path d="M465.41,183.16l0,1.13a3.25,3.25,0,0,1,2.68-1.29q2.83,0,2.86,3.2v5.92h-1.53v-5.93a2.09,2.09,0,0,0-.44-1.43,1.78,1.78,0,0,0-1.36-.46,2.22,2.22,0,0,0-1.3.39,2.73,2.73,0,0,0-.88,1.05v6.38H464v-9Z"/><path d="M472.94,187.57a5.26,5.26,0,0,1,1-3.32,3.33,3.33,0,0,1,5-.18v-4.66h1.53v12.71h-1.4l-.08-1a3.1,3.1,0,0,1-2.55,1.12,3.05,3.05,0,0,1-2.54-1.27,5.27,5.27,0,0,1-1-3.33Zm1.53.17a3.94,3.94,0,0,0,.63,2.38,2,2,0,0,0,1.74.87,2.22,2.22,0,0,0,2.12-1.31v-4.12a2.24,2.24,0,0,0-2.11-1.26,2,2,0,0,0-1.75.87A4.35,4.35,0,0,0,474.47,187.74Z"/><path d="M482.88,180.79a.88.88,0,0,1,.23-.63.84.84,0,0,1,.67-.26.88.88,0,0,1,.68.26.92.92,0,0,1,.23.63.9.9,0,0,1-.23.62.91.91,0,0,1-.68.25.87.87,0,0,1-.67-.25A.85.85,0,0,1,482.88,180.79Zm1.65,11.33H483v-9h1.53Z"/><path d="M490.58,191a2.22,2.22,0,0,0,1.43-.5,1.77,1.77,0,0,0,.68-1.24h1.44a2.66,2.66,0,0,1-.53,1.46,3.36,3.36,0,0,1-1.3,1.11,4,4,0,0,1-4.63-.81,4.84,4.84,0,0,1-1.08-3.34v-.25a5.42,5.42,0,0,1,.48-2.33,3.71,3.71,0,0,1,1.37-1.58,4,4,0,0,1,2.13-.56,3.59,3.59,0,0,1,2.5.9,3.18,3.18,0,0,1,1.06,2.34h-1.44a2.13,2.13,0,0,0-.66-1.42,2,2,0,0,0-1.46-.56,2.15,2.15,0,0,0-1.81.84,3.93,3.93,0,0,0-.64,2.43v.29a3.9,3.9,0,0,0,.63,2.38A2.17,2.17,0,0,0,490.58,191Z"/><path d="M501.38,192.12a3.39,3.39,0,0,1-.21-.94,3.4,3.4,0,0,1-2.55,1.1,3.14,3.14,0,0,1-2.17-.74,2.42,2.42,0,0,1-.85-1.9,2.54,2.54,0,0,1,1.06-2.18,5.06,5.06,0,0,1,3-.77h1.49V186a1.7,1.7,0,0,0-.48-1.28,1.91,1.91,0,0,0-1.41-.48,2.17,2.17,0,0,0-1.37.42,1.22,1.22,0,0,0-.56,1h-1.54a2.12,2.12,0,0,1,.48-1.3,3.18,3.18,0,0,1,1.29-1,4.37,4.37,0,0,1,1.79-.36,3.55,3.55,0,0,1,2.42.77,2.82,2.82,0,0,1,.92,2.13V190a5.06,5.06,0,0,0,.31,2v.13ZM498.84,191a2.69,2.69,0,0,0,1.37-.37,2.22,2.22,0,0,0,.93-1v-1.84h-1.2c-1.87,0-2.81.55-2.81,1.65a1.4,1.4,0,0,0,.48,1.13A1.84,1.84,0,0,0,498.84,191Z"/><path d="M507.15,181v2.16h1.68v1.19h-1.68v5.56a1.24,1.24,0,0,0,.23.81.94.94,0,0,0,.76.27,4.38,4.38,0,0,0,.73-.1v1.23a4.52,4.52,0,0,1-1.18.16,1.9,1.9,0,0,1-1.55-.62,2.7,2.7,0,0,1-.52-1.76v-5.55H504v-1.19h1.63V181Z"/><path d="M510,187.56a5.22,5.22,0,0,1,.52-2.37,3.79,3.79,0,0,1,1.44-1.62,3.92,3.92,0,0,1,2.11-.57,3.78,3.78,0,0,1,2.95,1.26,4.86,4.86,0,0,1,1.13,3.37v.11a5.29,5.29,0,0,1-.5,2.35,3.82,3.82,0,0,1-1.43,1.62,4,4,0,0,1-2.14.57,3.78,3.78,0,0,1-2.95-1.26,4.87,4.87,0,0,1-1.13-3.35Zm1.54.18a3.83,3.83,0,0,0,.69,2.39,2.34,2.34,0,0,0,3.71,0,4.24,4.24,0,0,0,.68-2.56,3.81,3.81,0,0,0-.7-2.39,2.32,2.32,0,0,0-3.68,0A4.11,4.11,0,0,0,511.58,187.74Z"/><path d="M524.44,184.54a4.38,4.38,0,0,0-.75-.06,2,2,0,0,0-2,1.28v6.36h-1.53v-9h1.48l0,1a2.38,2.38,0,0,1,2.13-1.2,1.68,1.68,0,0,1,.68.11Z"/><path d="M531.06,189.74a1.12,1.12,0,0,0-.46-1,4.41,4.41,0,0,0-1.63-.59,8,8,0,0,1-1.85-.6,2.67,2.67,0,0,1-1-.83,2,2,0,0,1-.33-1.14,2.34,2.34,0,0,1,.94-1.86,3.61,3.61,0,0,1,2.38-.76,3.79,3.79,0,0,1,2.47.78,2.52,2.52,0,0,1,.94,2H531a1.38,1.38,0,0,0-.53-1.09,2,2,0,0,0-1.34-.45,2.1,2.1,0,0,0-1.31.36,1.13,1.13,0,0,0-.47.95.94.94,0,0,0,.43.84,5.35,5.35,0,0,0,1.59.54,8.26,8.26,0,0,1,1.86.61,2.71,2.71,0,0,1,1,.86,2.09,2.09,0,0,1,.35,1.22,2.28,2.28,0,0,1-1,1.92,4.05,4.05,0,0,1-2.5.72,4.42,4.42,0,0,1-1.9-.38,3,3,0,0,1-1.29-1.06,2.5,2.5,0,0,1-.47-1.48H527a1.56,1.56,0,0,0,.62,1.22,2.38,2.38,0,0,0,1.51.46,2.44,2.44,0,0,0,1.4-.36A1.06,1.06,0,0,0,531.06,189.74Z"/><rect class="cls-2" x="45.29" y="44.22" width="161.57" height="161.57" transform="translate(125.68 -52.54) rotate(45.12)"/><g class="cls-3"><path class="cls-4" d="M125.86,227.62,23.45,124.79,126.29,22.38,228.7,125.21ZM26.62,124.79l99.25,99.66,99.66-99.24L126.28,25.55Zm99.27,89.8L91.71,180.27,118,154.13,92.62,128.68l-18.06,18,11.88,11.93,4.94-4.92-7-7,8.17-8.14,15.5,15.57-21.3,21.21-29.88-30,20.5-20.42L57,104.39,87,74.51l21.21,21.31-15.56,15.5-8.14-8.18,7-7-4.92-5L74.65,103.12l18,18.06,25.45-25.34L91.94,69.59l34.32-34.18,34.18,34.32L134.19,95.87l25.34,25.45,18.06-18L165.71,91.41l-4.94,4.92,7,7-8.18,8.14L144.06,95.89l21.3-21.21,29.88,30-20.5,20.42,20.42,20.51-30,29.88-21.21-21.31,15.56-15.5,8.14,8.18-7,6.95,4.92,4.95,11.93-11.88-18-18.06-25.45,25.34,26.14,26.25Zm-31-34.32,31,31.15,31.15-31L130.9,154.15l28.62-28.5,21.15,21.23-15.11,15.05-8.08-8.12,7-7-5-5-12.38,12.33,18,18.12L192,145.6l-20.42-20.51,20.5-20.41L165.36,77.85,147.23,95.9l12.33,12.38,5-5-7-7,8.12-8.08,15,15.1-21.23,21.15L131,95.87l26.25-26.14-31-31.15-31.14,31,26.14,26.25-28.63,28.5L71.48,103.12l15.1-15.05,8.09,8.12-7,7,5,5L105,95.81,87,77.68,60.16,104.4l20.42,20.51-20.5,20.41,26.71,26.83,18.13-18.05L92.59,141.72l-5,5,7,7-8.12,8.08-15-15.1,21.23-21.15,28.51,28.62ZM200.1,140.68l-15.5-15.56,15.57-15.49,15.49,15.56Zm-12.32-15.55,12.33,12.38,12.38-12.33L200.16,112.8ZM52,140.37,36.49,124.81l15.56-15.49,15.49,15.56ZM39.66,124.82,52,137.2l12.38-12.33L52,112.49Z"/><path class="cls-4" d="M125.91,204l-24-24.08L126,156,150,180ZM105.1,179.93l20.82,20.91L146.82,180,126,159.12Z"/><path class="cls-4" d="M126.14,93.39l-24-24.08,24.08-24,24,24.08ZM105.33,69.31l20.82,20.9,20.9-20.81L126.23,48.5Z"/></g><path class="cls-4" d="M84.47,152.49v-38l-3.15,1.83c-.67.38-1.33.79-2,1.15a1.63,1.63,0,0,1-1.75-2.74,5.3,5.3,0,0,1,.71-.45q11.56-6.8,23.12-13.58a2.06,2.06,0,0,1,2.36,0c1.7,1,3.45,1.94,5.13,3a1.49,1.49,0,0,0,1.8,0c7-4.25,14-8.44,21-12.7a2.79,2.79,0,0,1,3.39,0c4,2.59,8.07,5.08,12.12,7.6l1,.63c.62-1.87,1.08-3.74,1.84-5.47a42.1,42.1,0,0,1,3.57-6.94c2.82-4.08,6.41-4,9.36,0,2.56,3.47,3.9,7.51,5,11.61a112.62,112.62,0,0,1,3.89,28.05A13.52,13.52,0,0,1,161,140.24c-.24,0-.47.13-.75.2.43.88.83,1.74,1.29,2.57a1,1,0,0,0,.67.33c5.49.37,8.47,3.32,8.82,8.74a2.23,2.23,0,0,0,.09.41c.72,0,1.45,0,2.18,0,1.18,0,1.93.68,2,1.65a1.73,1.73,0,0,1-1.89,1.71c-.25,0-.5,0-.75,0H79.1c-1.42,0-2.23-.63-2.21-1.71s.8-1.64,2.16-1.65C80.82,152.48,82.58,152.49,84.47,152.49Zm16.21-.11a1.53,1.53,0,0,0,.07-.32,11.92,11.92,0,0,1,12.37-13.31c.29,0,.69-.34.9-.62.77-1.09,1.52-2.21,2.21-3.35a2.88,2.88,0,0,0,.51-1.4c0-6.79,0-13.58,0-20.37a1.41,1.41,0,0,0-.79-1.43q-6.34-3.61-12.65-7.33a1.27,1.27,0,0,0-1.52,0q-6.46,3.82-13,7.58a1.63,1.63,0,0,0-1,1.64q0,18.89,0,37.76c0,.37,0,.75.06,1.15Zm59.49-15.31c.39-.08.73-.12,1.05-.22a10.37,10.37,0,0,0,7.48-10.27,111.83,111.83,0,0,0-3-24,48,48,0,0,0-4.07-11.89,17,17,0,0,0-2.16-3,1.34,1.34,0,0,0-2.21,0A10.79,10.79,0,0,0,155.44,90a59.07,59.07,0,0,0-2.82,6.73,96.43,96.43,0,0,0-4,20.33,63.9,63.9,0,0,0-.4,10.79c.24,3.31,1.58,6.29,5.4,7.24a18.08,18.08,0,0,1,3.11,1.42c0-2.14,0-4.15,0-6.16a2.27,2.27,0,0,0-.75-1.86c-1.84-1.77-3.62-3.58-5.41-5.4a1.63,1.63,0,0,1-.14-2.44,1.65,1.65,0,0,1,2.45.08c.54.5,1.05,1,1.58,1.57l2.25,2.24v-1.51q0-7.38,0-14.75a6.46,6.46,0,0,1,.07-1.16,1.64,1.64,0,0,1,3.23.11,7.52,7.52,0,0,1,0,1.06v10.11l.3.12c1.18-1.21,2.35-2.42,3.54-3.63a1.58,1.58,0,0,1,2.27-.27,1.66,1.66,0,0,1,0,2.66c-1.83,1.86-3.7,3.69-5.52,5.57a2.07,2.07,0,0,0-.58,1.26c0,4,0,8.06,0,12.09A6.32,6.32,0,0,0,160.17,137.07Zm-40-23v17.41c8.42-3.73,15.34-1.85,20.68,5.22l6-2.39a.75.75,0,0,0-.1-.27,14.5,14.5,0,0,1-2.06-8.19,122.07,122.07,0,0,1,2.69-22.38c.11-.52.19-.9-.38-1.25-4.33-2.66-8.64-5.36-13-8a1.29,1.29,0,0,0-1.12,0q-6.12,3.6-12.18,7.29a1.4,1.4,0,0,0-.58,1c-.05,2.34,0,4.67,0,7a1,1,0,0,0,.25.74c1.56,1,3.14,1.86,4.86,2.86,0-2.4,0-4.58,0-6.77,0-1.54.59-2.14,2.09-2.14h12.73c1.52,0,2.11.61,2.12,2.13v12.62c0,1.6-.59,2.19-2.16,2.19H128.57c-3.15,0-3.26-.13-3.34-3.26a1.43,1.43,0,0,0-.44-1C123.33,115.83,121.82,115,120.19,114Zm-15.87,38.45h1.07q15.33,0,30.65,0a1.88,1.88,0,0,0,1.79-1,12,12,0,1,0-20.39-12.62c-.15.26-.25.54-.4.85a8.24,8.24,0,0,1,1,.51,35.84,35.84,0,0,1,3,2.27,1.59,1.59,0,0,1,.13,2.51,1.69,1.69,0,0,1-2.45-.16l-.38-.37a8.54,8.54,0,0,0-14.06,3.86A6.42,6.42,0,0,0,104.32,152.49Zm63.35,0a5.09,5.09,0,0,0-3.6-5.53,5.4,5.4,0,0,0-5.12,1.26,1.67,1.67,0,0,1-2.52-.13,1.63,1.63,0,0,1,.4-2.42c.52-.46,1.1-.85,1.63-1.26a10.28,10.28,0,0,0-15.31-4.76,1.1,1.1,0,0,0-.5,1.4,15.06,15.06,0,0,1-.88,10.44c-.14.3-.27.62-.43,1Zm-39-41.61H132v-3.31h-3.32Zm6.79,0h3.29v-3.26h-3.29Zm-6.78,6.78H132v-3.28h-3.31Zm10.1,0v-3.32h-3.31v3.32ZM113.06,106l3.63,2.09v-4.21Z"/><path class="cls-4" d="M110.79,124.38c0,2.15,0,4.31,0,6.47,0,1.46-.61,2.08-2.05,2.08H95.92c-1.45,0-2.06-.61-2.06-2.07q0-6.42,0-12.83c0-1.4.61-2,2-2q6.47,0,12.93,0c1.38,0,2,.63,2,2C110.8,120.14,110.79,122.26,110.79,124.38Zm-13.51-5v3.32h3.29V119.4Zm10.09,3.34v-3.32h-3.31v3.32ZM97.26,129.5h3.3v-3.27h-3.3Zm10.11,0v-3.31h-3.31v3.31Z"/></svg>