<svg width="654" height="250" viewBox="0 0 654 250" fill="none" xmlns="http://www.w3.org/2000/svg">
<path d="M337.71 134.93V136.23H337.43C336.378 136.194 335.353 136.575 334.58 137.29C333.831 138.07 333.396 139.099 333.36 140.18C333.684 139.815 334.086 139.527 334.536 139.338C334.986 139.15 335.473 139.065 335.96 139.09C336.435 139.073 336.908 139.164 337.343 139.356C337.778 139.548 338.163 139.837 338.47 140.2C339.095 141.049 339.425 142.079 339.41 143.133C339.396 144.187 339.038 145.208 338.39 146.04C338.046 146.414 337.625 146.709 337.155 146.902C336.685 147.096 336.178 147.184 335.67 147.16C335.131 147.175 334.597 147.063 334.11 146.831C333.623 146.6 333.198 146.257 332.87 145.83C332.121 144.852 331.738 143.641 331.79 142.41V141.82C331.666 140.011 332.167 138.214 333.21 136.73C333.732 136.128 334.384 135.653 335.117 135.341C335.85 135.029 336.645 134.889 337.44 134.93H337.71ZM335.71 140.36C335.194 140.367 334.692 140.529 334.269 140.825C333.847 141.121 333.523 141.537 333.34 142.02V142.58C333.291 143.437 333.522 144.287 334 145C334.181 145.278 334.428 145.507 334.72 145.666C335.012 145.825 335.338 145.909 335.67 145.91C335.983 145.924 336.295 145.863 336.578 145.73C336.862 145.598 337.11 145.399 337.3 145.15C337.688 144.555 337.895 143.86 337.895 143.15C337.895 142.44 337.688 141.745 337.3 141.15C337.117 140.899 336.876 140.695 336.597 140.558C336.319 140.42 336.011 140.352 335.7 140.36H335.71Z" fill="black"/>
<path d="M349 135.8L344 147H342.4L347.4 136.21H340.88V134.95H349V135.8Z" fill="black"/>
<path d="M350.61 137.26C350.598 136.931 350.653 136.602 350.772 136.294C350.89 135.987 351.07 135.706 351.3 135.47C351.532 135.236 351.81 135.052 352.116 134.93C352.422 134.808 352.75 134.75 353.08 134.76C353.41 134.747 353.739 134.804 354.045 134.926C354.352 135.049 354.629 135.234 354.86 135.47C355.093 135.715 355.274 136.004 355.392 136.32C355.511 136.636 355.565 136.973 355.55 137.31V137.89C355.547 138.379 355.401 138.856 355.13 139.262C354.859 139.669 354.474 139.987 354.024 140.178C353.574 140.368 353.078 140.423 352.597 140.334C352.117 140.246 351.673 140.018 351.32 139.68C351.082 139.439 350.895 139.151 350.773 138.834C350.651 138.517 350.595 138.179 350.61 137.84V137.26ZM351.75 137.89C351.739 138.28 351.87 138.66 352.12 138.96C352.243 139.102 352.398 139.213 352.571 139.286C352.744 139.359 352.932 139.391 353.12 139.38C353.285 139.381 353.448 139.347 353.599 139.282C353.751 139.216 353.887 139.12 354 139C354.254 138.688 354.383 138.292 354.36 137.89V137.28C354.373 136.893 354.249 136.514 354.01 136.21C353.886 136.077 353.735 135.972 353.568 135.9C353.402 135.827 353.222 135.79 353.04 135.79C352.858 135.79 352.678 135.827 352.511 135.9C352.345 135.972 352.194 136.077 352.07 136.21C351.82 136.521 351.692 136.912 351.71 137.31L351.75 137.89ZM353.44 146.08L352.57 145.54L358.46 136.11L359.33 136.66L353.44 146.08ZM356.44 144.08C356.424 143.751 356.478 143.422 356.596 143.114C356.714 142.806 356.895 142.526 357.128 142.292C357.36 142.058 357.638 141.875 357.945 141.754C358.252 141.633 358.58 141.577 358.91 141.59C359.239 141.578 359.567 141.634 359.873 141.754C360.179 141.875 360.457 142.057 360.69 142.29C360.926 142.535 361.109 142.825 361.23 143.143C361.35 143.461 361.405 143.8 361.39 144.14V144.72C361.404 145.048 361.35 145.376 361.232 145.682C361.113 145.988 360.933 146.267 360.702 146.501C360.471 146.735 360.195 146.918 359.89 147.04C359.585 147.162 359.258 147.22 358.93 147.21C358.602 147.221 358.275 147.165 357.97 147.046C357.664 146.928 357.385 146.749 357.15 146.52C356.911 146.277 356.725 145.987 356.603 145.669C356.481 145.351 356.425 145.011 356.44 144.67V144.08ZM357.58 144.72C357.567 145.11 357.699 145.491 357.95 145.79C358.073 145.932 358.228 146.043 358.401 146.116C358.574 146.189 358.762 146.221 358.95 146.21C359.129 146.218 359.307 146.185 359.472 146.114C359.636 146.043 359.783 145.936 359.9 145.8C360.151 145.487 360.276 145.091 360.25 144.69V144C360.265 143.611 360.137 143.231 359.89 142.93C359.766 142.801 359.617 142.698 359.452 142.627C359.287 142.557 359.109 142.521 358.93 142.521C358.751 142.521 358.573 142.557 358.408 142.627C358.243 142.698 358.094 142.801 357.97 142.93C357.713 143.241 357.581 143.637 357.6 144.04L357.58 144.72Z" fill="black"/>
<path d="M367.12 142.43C367.107 141.611 367.281 140.801 367.63 140.06C367.944 139.389 368.447 138.823 369.078 138.434C369.709 138.045 370.439 137.849 371.18 137.87C371.743 137.843 372.305 137.943 372.825 138.163C373.344 138.383 373.807 138.717 374.18 139.14C374.968 140.081 375.371 141.284 375.31 142.51V142.61C375.323 143.421 375.152 144.224 374.81 144.96C374.499 145.626 374.003 146.189 373.38 146.58C372.736 146.971 371.994 147.172 371.24 147.16C370.677 147.186 370.115 147.086 369.596 146.866C369.077 146.646 368.613 146.313 368.24 145.89C367.459 144.954 367.059 143.758 367.12 142.54V142.43ZM368.66 142.61C368.618 143.464 368.861 144.309 369.35 145.01C369.569 145.292 369.849 145.521 370.17 145.678C370.491 145.835 370.843 145.917 371.2 145.917C371.557 145.917 371.91 145.835 372.23 145.678C372.551 145.521 372.831 145.292 373.05 145.01C373.552 144.254 373.795 143.356 373.74 142.45C373.783 141.572 373.522 140.707 373 140C372.787 139.709 372.506 139.475 372.182 139.316C371.858 139.158 371.501 139.08 371.14 139.09C370.785 139.08 370.433 139.157 370.114 139.314C369.795 139.471 369.519 139.703 369.31 139.99C368.809 140.767 368.58 141.689 368.66 142.61Z" fill="black"/>
<path d="M378 147V139.23H376.58V138H378V137.09C377.97 136.686 378.021 136.28 378.152 135.897C378.283 135.514 378.489 135.161 378.76 134.86C379.05 134.585 379.393 134.373 379.768 134.237C380.143 134.102 380.542 134.044 380.94 134.07C381.295 134.071 381.648 134.118 381.99 134.21L381.91 135.45C381.637 135.397 381.359 135.37 381.08 135.37C380.868 135.358 380.656 135.391 380.458 135.467C380.26 135.543 380.08 135.66 379.93 135.81C379.641 136.159 379.497 136.607 379.53 137.06V138H381.44V139.19H379.53V147H378Z" fill="black"/>
<path d="M389.35 135.86V138H391V139.19H389.32V144.75C389.3 145.039 389.381 145.325 389.55 145.56C389.649 145.659 389.768 145.734 389.899 145.781C390.031 145.827 390.171 145.844 390.31 145.83C390.556 145.823 390.801 145.789 391.04 145.73V147C390.656 147.109 390.259 147.166 389.86 147.17C389.572 147.189 389.283 147.144 389.014 147.036C388.746 146.929 388.505 146.763 388.31 146.55C387.936 146.038 387.753 145.413 387.79 144.78V139.23H386.16V138H387.79V135.83L389.35 135.86Z" fill="black"/>
<path d="M394.35 139.12C394.664 138.72 395.067 138.399 395.527 138.182C395.987 137.965 396.492 137.858 397 137.87C398.89 137.87 399.85 138.94 399.86 141.07V147H398.33V141.07C398.365 140.555 398.208 140.046 397.89 139.64C397.708 139.473 397.493 139.346 397.258 139.267C397.024 139.188 396.776 139.158 396.53 139.18C396.065 139.17 395.609 139.31 395.23 139.58C394.856 139.832 394.553 140.177 394.35 140.58V147H392.82V134.27H394.35V139.12Z" fill="black"/>
<path d="M405.87 147.16C405.313 147.186 404.757 147.092 404.24 146.885C403.722 146.678 403.255 146.363 402.87 145.96C402.081 145.086 401.671 143.935 401.73 142.76V142.48C401.716 141.658 401.89 140.844 402.24 140.1C402.553 139.433 403.045 138.865 403.66 138.46C404.254 138.071 404.95 137.865 405.66 137.87C406.173 137.835 406.687 137.919 407.162 138.115C407.637 138.311 408.061 138.614 408.4 139C409.114 139.946 409.468 141.116 409.4 142.3V143H403.3C403.283 143.784 403.557 144.546 404.07 145.14C404.306 145.406 404.598 145.617 404.924 145.759C405.251 145.901 405.604 145.969 405.96 145.96C406.438 145.976 406.911 145.861 407.33 145.63C407.715 145.401 408.054 145.103 408.33 144.75L409.26 145.48C408.894 146.034 408.387 146.482 407.792 146.777C407.196 147.072 406.533 147.204 405.87 147.16V147.16ZM405.68 139.16C405.388 139.152 405.099 139.207 404.831 139.323C404.563 139.439 404.324 139.612 404.13 139.83C403.675 140.361 403.402 141.023 403.35 141.72H407.84V141.61C407.834 140.954 407.612 140.318 407.21 139.8C407.021 139.581 406.785 139.408 406.521 139.292C406.256 139.176 405.969 139.121 405.68 139.13V139.16Z" fill="black"/>
<path d="M412.58 138V139C412.905 138.616 413.314 138.312 413.775 138.111C414.236 137.91 414.738 137.817 415.24 137.84C415.763 137.788 416.289 137.899 416.747 138.156C417.205 138.414 417.573 138.806 417.8 139.28C418.104 138.861 418.501 138.519 418.96 138.28C419.482 138.001 420.068 137.863 420.66 137.88C422.62 137.88 423.62 138.92 423.66 141V147H422.13V141.09C422.168 140.572 422.011 140.058 421.69 139.65C421.488 139.478 421.255 139.348 421.002 139.268C420.75 139.187 420.484 139.157 420.22 139.18C419.698 139.158 419.189 139.341 418.8 139.69C418.418 140.048 418.186 140.538 418.15 141.06V147H416.61V141.13C416.659 140.864 416.643 140.59 416.565 140.331C416.487 140.071 416.349 139.834 416.161 139.639C415.974 139.444 415.743 139.296 415.487 139.208C415.231 139.119 414.958 139.092 414.69 139.13C414.255 139.098 413.822 139.205 413.452 139.435C413.082 139.665 412.794 140.006 412.63 140.41V147H411.1V138H412.58Z" fill="black"/>
<path d="M438.13 144.88L439.86 138.03H441.39L438.78 147.03H437.54L435.36 140.24L433.24 147H432L429.4 138H430.92L432.69 144.71L434.77 138H436L438.13 144.88Z" fill="black"/>
<path d="M442.54 142.43C442.525 141.61 442.703 140.798 443.06 140.06C443.372 139.391 443.872 138.828 444.5 138.44C445.131 138.054 445.86 137.856 446.6 137.87C447.163 137.843 447.725 137.943 448.245 138.163C448.764 138.383 449.227 138.717 449.6 139.14C450.392 140.078 450.796 141.284 450.73 142.51V142.61C450.748 143.422 450.577 144.226 450.23 144.96C449.919 145.626 449.423 146.189 448.8 146.58C448.157 146.975 447.414 147.177 446.66 147.16C446.105 147.18 445.552 147.076 445.042 146.857C444.532 146.637 444.077 146.307 443.71 145.89C442.921 144.958 442.517 143.76 442.58 142.54L442.54 142.43ZM444.08 142.61C444.038 143.464 444.28 144.309 444.77 145.01C444.99 145.292 445.271 145.521 445.592 145.678C445.914 145.836 446.267 145.917 446.625 145.917C446.983 145.917 447.336 145.836 447.657 145.678C447.979 145.521 448.26 145.292 448.48 145.01C448.974 144.251 449.212 143.354 449.16 142.45C449.201 141.597 448.954 140.756 448.46 140.06C448.242 139.778 447.963 139.549 447.643 139.392C447.323 139.235 446.971 139.153 446.615 139.153C446.259 139.153 445.907 139.235 445.587 139.392C445.267 139.549 444.988 139.778 444.77 140.06C444.27 140.813 444.028 141.708 444.08 142.61V142.61Z" fill="black"/>
<path d="M454.06 138V139C454.385 138.615 454.794 138.311 455.255 138.11C455.716 137.908 456.217 137.816 456.72 137.84C457.242 137.789 457.766 137.9 458.222 138.157C458.679 138.415 459.044 138.807 459.27 139.28C459.591 138.822 460.02 138.451 460.519 138.2C461.018 137.948 461.571 137.825 462.13 137.84C464.13 137.84 465.13 138.84 465.13 140.96V146.96H463.6V141.05C463.638 140.532 463.481 140.018 463.16 139.61C462.957 139.437 462.722 139.306 462.468 139.225C462.213 139.145 461.946 139.115 461.68 139.14C461.158 139.121 460.649 139.307 460.262 139.658C459.875 140.009 459.641 140.498 459.61 141.02V147H458.07V141.13C458.12 140.864 458.107 140.59 458.03 140.331C457.953 140.072 457.816 139.834 457.629 139.639C457.443 139.443 457.212 139.295 456.956 139.206C456.701 139.118 456.428 139.092 456.16 139.13C455.725 139.098 455.292 139.204 454.922 139.434C454.552 139.664 454.264 140.006 454.1 140.41V147H452.57V138H454.06Z" fill="black"/>
<path d="M471.2 147.16C470.643 147.185 470.088 147.091 469.57 146.884C469.053 146.677 468.586 146.362 468.2 145.96C467.411 145.087 467.001 143.936 467.06 142.76V142.48C467.046 141.658 467.22 140.844 467.57 140.1C467.883 139.433 468.375 138.866 468.99 138.46C469.584 138.072 470.28 137.866 470.99 137.87C471.5 137.841 472.009 137.93 472.479 138.129C472.949 138.329 473.367 138.634 473.7 139.02C474.414 139.967 474.769 141.136 474.7 142.32V143H468.63C468.612 143.786 468.891 144.55 469.41 145.14C469.644 145.407 469.934 145.618 470.258 145.76C470.583 145.902 470.936 145.97 471.29 145.96C471.768 145.976 472.242 145.862 472.66 145.63C473.047 145.404 473.387 145.106 473.66 144.75L474.59 145.48C474.224 146.035 473.717 146.482 473.122 146.778C472.526 147.073 471.863 147.205 471.2 147.16V147.16ZM471.01 139.16C470.717 139.15 470.425 139.206 470.155 139.321C469.886 139.437 469.645 139.611 469.45 139.83C468.995 140.361 468.722 141.023 468.67 141.72H473.16V141.61C473.159 140.953 472.937 140.316 472.53 139.8C472.342 139.58 472.107 139.405 471.842 139.289C471.577 139.173 471.289 139.119 471 139.13L471.01 139.16Z" fill="black"/>
<path d="M477.91 138V139.13C478.223 138.718 478.629 138.387 479.095 138.162C479.561 137.938 480.073 137.828 480.59 137.84C482.49 137.84 483.44 138.91 483.46 141.04V147H482V141.07C482.032 140.554 481.872 140.044 481.55 139.64C481.369 139.474 481.156 139.347 480.923 139.268C480.691 139.189 480.445 139.159 480.2 139.18C479.732 139.17 479.273 139.31 478.89 139.58C478.518 139.835 478.216 140.178 478.01 140.58V147H476.48V138H477.91Z" fill="black"/>
<path d="M485.77 149.39L484.9 148.8C485.391 148.153 485.674 147.372 485.71 146.56V145.18H487.21V146.38C487.204 146.961 487.064 147.533 486.8 148.05C486.561 148.568 486.209 149.026 485.77 149.39V149.39Z" fill="black"/>
<path d="M310.29 163C310.35 164.174 310.019 165.334 309.35 166.3C309.062 166.701 308.68 167.026 308.237 167.244C307.794 167.462 307.304 167.567 306.81 167.55C306.309 167.575 305.809 167.48 305.353 167.271C304.897 167.062 304.498 166.746 304.19 166.35L304.11 167.35H302.71V154.62H304.24V159.37C304.546 158.991 304.938 158.689 305.382 158.489C305.827 158.289 306.313 158.197 306.8 158.22C307.295 158.198 307.788 158.298 308.235 158.513C308.681 158.728 309.068 159.05 309.36 159.45C310.031 160.445 310.358 161.632 310.29 162.83V163ZM308.76 162.83C308.811 161.981 308.601 161.137 308.16 160.41C307.966 160.133 307.704 159.909 307.4 159.76C307.095 159.612 306.758 159.543 306.42 159.56C305.955 159.541 305.496 159.666 305.106 159.919C304.716 160.171 304.413 160.539 304.24 160.97V164.84C304.421 165.268 304.727 165.632 305.117 165.883C305.508 166.135 305.965 166.263 306.43 166.25C306.765 166.264 307.098 166.193 307.399 166.045C307.699 165.896 307.957 165.675 308.15 165.4C308.619 164.614 308.832 163.702 308.76 162.79V162.83Z" fill="black"/>
<path d="M315.94 167.51C315.384 167.534 314.828 167.44 314.311 167.233C313.794 167.026 313.327 166.711 312.94 166.31C312.151 165.437 311.741 164.286 311.8 163.11V162.83C311.786 162.008 311.96 161.194 312.31 160.45C312.623 159.783 313.115 159.216 313.73 158.81C314.325 158.423 315.02 158.218 315.73 158.22C316.24 158.191 316.749 158.28 317.219 158.479C317.689 158.679 318.107 158.984 318.44 159.37C319.152 160.314 319.506 161.48 319.44 162.66V163.3H313.37C313.357 164.085 313.635 164.848 314.15 165.44C314.384 165.707 314.674 165.918 314.998 166.06C315.323 166.202 315.676 166.27 316.03 166.26C316.511 166.275 316.988 166.161 317.41 165.93C317.796 165.703 318.135 165.404 318.41 165.05L319.35 165.78C318.988 166.346 318.48 166.805 317.881 167.11C317.281 167.414 316.611 167.552 315.94 167.51V167.51ZM315.75 159.51C315.457 159.501 315.165 159.556 314.895 159.671C314.626 159.787 314.385 159.961 314.19 160.18C313.735 160.711 313.462 161.373 313.41 162.07H317.9V161.96C317.904 161.302 317.681 160.663 317.27 160.15C317.084 159.931 316.85 159.756 316.587 159.64C316.324 159.524 316.038 159.469 315.75 159.48V159.51Z" fill="black"/>
<path d="M322.65 158.38L322.7 159.51C323.014 159.097 323.422 158.765 323.89 158.541C324.357 158.317 324.872 158.207 325.39 158.22C327.28 158.22 328.24 159.29 328.25 161.42V167.34H326.72V161.41C326.755 160.895 326.598 160.386 326.28 159.98C326.098 159.813 325.883 159.686 325.648 159.607C325.414 159.527 325.166 159.498 324.92 159.52C324.452 159.511 323.993 159.651 323.61 159.92C323.241 160.175 322.942 160.519 322.74 160.92V167.3H321.2V158.3L322.65 158.38Z" fill="black"/>
<path d="M334.28 167.51C333.723 167.537 333.167 167.443 332.649 167.236C332.132 167.029 331.665 166.713 331.28 166.31C330.886 165.879 330.582 165.375 330.384 164.825C330.187 164.276 330.1 163.693 330.13 163.11V162.83C330.116 162.008 330.29 161.194 330.64 160.45C330.956 159.782 331.451 159.214 332.07 158.81C332.664 158.421 333.36 158.216 334.07 158.22C334.58 158.191 335.089 158.28 335.559 158.479C336.029 158.679 336.447 158.984 336.78 159.37C337.492 160.314 337.846 161.48 337.78 162.66V163.3H331.7C331.687 164.085 331.965 164.848 332.48 165.44C332.714 165.707 333.003 165.918 333.328 166.06C333.653 166.202 334.006 166.27 334.36 166.26C334.841 166.275 335.317 166.161 335.74 165.93C336.126 165.703 336.465 165.404 336.74 165.05L337.68 165.78C337.318 166.345 336.813 166.803 336.215 167.107C335.617 167.411 334.949 167.55 334.28 167.51V167.51ZM334.09 159.51C333.797 159.501 333.505 159.556 333.235 159.671C332.966 159.787 332.725 159.961 332.53 160.18C332.075 160.711 331.802 161.373 331.75 162.07H336.24V161.96C336.244 161.302 336.021 160.663 335.61 160.15C335.424 159.931 335.19 159.756 334.927 159.64C334.664 159.524 334.377 159.469 334.09 159.48V159.51Z" fill="black"/>
<path d="M340.3 167.34V159.57H338.88V158.38H340.3V157.46C340.272 157.057 340.326 156.653 340.458 156.271C340.591 155.89 340.799 155.539 341.07 155.24C341.359 154.965 341.702 154.753 342.077 154.617C342.452 154.481 342.852 154.424 343.25 154.45C343.604 154.452 343.957 154.499 344.3 154.59L344.22 155.82C343.945 155.776 343.668 155.752 343.39 155.75C343.178 155.737 342.966 155.77 342.767 155.846C342.569 155.922 342.389 156.039 342.24 156.19C341.947 156.538 341.8 156.986 341.83 157.44V158.38H343.74V159.57H341.83V167.34H340.3Z" fill="black"/>
<path d="M345.44 156C345.435 155.769 345.517 155.544 345.67 155.37C345.755 155.28 345.86 155.21 345.976 155.165C346.092 155.12 346.216 155.101 346.34 155.11C346.465 155.102 346.591 155.121 346.708 155.166C346.826 155.21 346.932 155.28 347.02 155.37C347.177 155.541 347.259 155.768 347.25 156C347.255 156.114 347.237 156.227 347.198 156.333C347.158 156.44 347.098 156.537 347.02 156.62C346.93 156.707 346.823 156.773 346.706 156.817C346.589 156.86 346.464 156.878 346.34 156.87C346.217 156.878 346.094 156.86 345.978 156.817C345.863 156.774 345.758 156.707 345.67 156.62C345.517 156.45 345.435 156.228 345.44 156V156ZM347.1 167.33H345.57V158.33H347.1V167.33Z" fill="black"/>
<path d="M351.63 156.21V158.38H353.3V159.57H351.63V165.13C351.607 165.417 351.685 165.704 351.85 165.94C351.949 166.039 352.068 166.114 352.2 166.161C352.331 166.207 352.471 166.224 352.61 166.21C352.856 166.203 353.101 166.169 353.34 166.11V167.34C352.956 167.449 352.559 167.506 352.16 167.51C351.873 167.53 351.585 167.484 351.319 167.377C351.052 167.27 350.813 167.103 350.62 166.89C350.238 166.382 350.05 165.754 350.09 165.12V159.57H348.46V158.38H350.09V156.21H351.63Z" fill="black"/>
<path d="M357.17 156.21V158.38H358.84V159.57H357.17V165.13C357.147 165.417 357.225 165.704 357.39 165.94C357.489 166.039 357.608 166.114 357.74 166.161C357.871 166.207 358.011 166.224 358.15 166.21C358.396 166.203 358.641 166.169 358.88 166.11V167.34C358.496 167.449 358.099 167.506 357.7 167.51C357.413 167.53 357.125 167.484 356.859 167.377C356.592 167.27 356.353 167.103 356.16 166.89C355.778 166.382 355.59 165.754 355.63 165.12V159.57H354V158.38H355.63V156.21H357.17Z" fill="black"/>
<path d="M364.34 167.51C363.783 167.536 363.227 167.442 362.71 167.235C362.192 167.028 361.725 166.713 361.34 166.31C360.551 165.437 360.141 164.286 360.2 163.11V162.83C360.186 162.008 360.36 161.194 360.71 160.45C361.02 159.781 361.512 159.213 362.13 158.81C362.724 158.421 363.42 158.216 364.13 158.22C364.641 158.191 365.152 158.28 365.624 158.479C366.095 158.679 366.515 158.983 366.85 159.37C367.562 160.314 367.916 161.48 367.85 162.66V163.3H361.78C361.763 164.084 362.037 164.847 362.55 165.44C362.786 165.706 363.078 165.918 363.404 166.059C363.731 166.201 364.084 166.27 364.44 166.26C364.918 166.276 365.391 166.162 365.81 165.93C366.197 165.705 366.537 165.406 366.81 165.05L367.74 165.78C367.379 166.346 366.873 166.804 366.276 167.108C365.678 167.413 365.009 167.551 364.34 167.51V167.51ZM364.15 159.51C363.858 159.502 363.569 159.558 363.301 159.674C363.033 159.789 362.794 159.962 362.6 160.18C362.145 160.711 361.872 161.373 361.82 162.07H366.31V161.96C366.303 161.304 366.082 160.668 365.68 160.15C365.491 159.932 365.255 159.758 364.991 159.642C364.726 159.526 364.439 159.471 364.15 159.48V159.51Z" fill="black"/>
<path d="M369.24 162.79C369.185 161.602 369.537 160.43 370.24 159.47C370.534 159.073 370.919 158.752 371.363 158.535C371.807 158.317 372.296 158.209 372.79 158.22C373.26 158.2 373.729 158.286 374.161 158.471C374.594 158.657 374.98 158.936 375.29 159.29V154.62H376.82V167.34H375.41L375.34 166.34C375.03 166.714 374.637 167.01 374.193 167.206C373.749 167.402 373.265 167.493 372.78 167.47C372.285 167.478 371.795 167.366 371.352 167.143C370.91 166.92 370.528 166.593 370.24 166.19C369.545 165.223 369.193 164.051 369.24 162.86V162.79ZM370.77 162.96C370.722 163.803 370.943 164.64 371.4 165.35C371.593 165.629 371.854 165.855 372.159 166.005C372.463 166.156 372.801 166.226 373.14 166.21C373.585 166.227 374.025 166.111 374.404 165.878C374.783 165.645 375.084 165.305 375.27 164.9V160.78C375.077 160.389 374.776 160.062 374.401 159.838C374.027 159.615 373.596 159.504 373.16 159.52C372.817 159.502 372.474 159.572 372.166 159.724C371.858 159.877 371.594 160.106 371.4 160.39C370.921 161.172 370.701 162.086 370.77 163V162.96Z" fill="black"/>
<path d="M384.13 167.34V159.57H382.71V158.38H384.13V157.46C384.102 157.057 384.156 156.653 384.289 156.272C384.421 155.89 384.629 155.539 384.9 155.24C385.187 154.965 385.528 154.752 385.902 154.616C386.275 154.48 386.673 154.424 387.07 154.45C387.425 154.451 387.778 154.498 388.12 154.59L388.04 155.82C387.766 155.775 387.488 155.752 387.21 155.75C386.998 155.739 386.786 155.772 386.588 155.848C386.39 155.923 386.21 156.04 386.06 156.19C385.77 156.54 385.627 156.988 385.66 157.44V158.38H387.57V159.57H385.66V167.34H384.13Z" fill="black"/>
<path d="M393.59 159.76C393.342 159.718 393.091 159.698 392.84 159.7C392.414 159.672 391.989 159.781 391.63 160.011C391.27 160.241 390.993 160.581 390.84 160.98V167.34H389.31V158.34H390.8V159.34C391.013 158.966 391.324 158.657 391.699 158.446C392.074 158.234 392.5 158.129 392.93 158.14C393.162 158.129 393.393 158.167 393.61 158.25L393.59 159.76Z" fill="black"/>
<path d="M394.43 162.78C394.416 161.961 394.591 161.151 394.94 160.41C395.254 159.739 395.757 159.174 396.388 158.784C397.018 158.395 397.749 158.199 398.49 158.22C399.052 158.193 399.613 158.293 400.132 158.511C400.651 158.729 401.115 159.06 401.49 159.48C402.279 160.42 402.682 161.624 402.62 162.85V163C402.632 163.811 402.461 164.614 402.12 165.35C401.809 166.016 401.313 166.579 400.69 166.97C400.046 167.361 399.304 167.562 398.55 167.55C397.995 167.571 397.442 167.468 396.932 167.248C396.421 167.028 395.966 166.698 395.6 166.28C394.811 165.348 394.407 164.15 394.47 162.93L394.43 162.78ZM396 163C395.958 163.854 396.2 164.699 396.69 165.4C396.903 165.688 397.182 165.921 397.504 166.077C397.827 166.234 398.182 166.31 398.54 166.3C398.9 166.312 399.258 166.234 399.581 166.073C399.904 165.913 400.182 165.674 400.39 165.38C400.892 164.625 401.135 163.726 401.08 162.82C401.121 161.967 400.874 161.126 400.38 160.43C400.162 160.148 399.883 159.919 399.563 159.762C399.243 159.605 398.891 159.523 398.535 159.523C398.179 159.523 397.827 159.605 397.507 159.762C397.187 159.919 396.908 160.148 396.69 160.43C396.185 161.188 395.943 162.091 396 163V163Z" fill="black"/>
<path d="M405.94 158.38L405.99 159.38C406.313 158.996 406.72 158.692 407.18 158.491C407.639 158.29 408.139 158.197 408.64 158.22C409.163 158.168 409.689 158.279 410.147 158.536C410.605 158.794 410.973 159.186 411.2 159.66C411.521 159.202 411.95 158.831 412.449 158.58C412.948 158.328 413.501 158.205 414.06 158.22C416.02 158.22 417.02 159.26 417.06 161.34V167.34H415.52V161.43C415.561 160.913 415.408 160.4 415.09 159.99C414.676 159.671 414.168 159.498 413.645 159.498C413.122 159.498 412.614 159.671 412.2 159.99C411.808 160.342 411.571 160.834 411.54 161.36V167.3H410V161.43C410.039 161.168 410.017 160.901 409.936 160.649C409.854 160.398 409.716 160.168 409.531 159.979C409.345 159.79 409.119 159.647 408.869 159.56C408.619 159.474 408.352 159.446 408.09 159.48C407.644 159.434 407.196 159.539 406.817 159.778C406.438 160.018 406.15 160.378 406 160.8V167.34H404.5V158.34L405.94 158.38Z" fill="black"/>
<path d="M429.1 167.34C428.98 167.04 428.906 166.723 428.88 166.4C428.557 166.754 428.163 167.036 427.723 167.227C427.284 167.418 426.809 167.515 426.33 167.51C425.538 167.542 424.763 167.274 424.16 166.76C423.885 166.527 423.666 166.236 423.519 165.907C423.372 165.578 423.301 165.22 423.31 164.86C423.292 164.437 423.379 164.017 423.564 163.636C423.749 163.256 424.026 162.927 424.37 162.68C425.265 162.118 426.314 161.848 427.37 161.91H428.86V161.21C428.872 160.974 428.835 160.739 428.751 160.518C428.666 160.298 428.536 160.098 428.37 159.93C428.179 159.76 427.956 159.63 427.714 159.547C427.471 159.465 427.215 159.432 426.96 159.45C426.466 159.433 425.98 159.581 425.58 159.87C425.413 159.979 425.276 160.127 425.18 160.301C425.084 160.476 425.032 160.671 425.03 160.87H423.49C423.5 160.395 423.669 159.938 423.97 159.57C424.306 159.13 424.75 158.786 425.26 158.57C425.825 158.326 426.435 158.203 427.05 158.21C427.927 158.161 428.791 158.435 429.48 158.98C429.774 159.25 430.008 159.58 430.165 159.947C430.322 160.314 430.398 160.711 430.39 161.11V165.24C430.358 165.921 430.463 166.601 430.7 167.24V167.37L429.1 167.34ZM426.55 166.18C427.032 166.178 427.505 166.047 427.92 165.8C428.328 165.57 428.656 165.221 428.86 164.8V163H427.66C425.78 163 424.84 163.54 424.84 164.64C424.829 164.853 424.866 165.065 424.949 165.261C425.033 165.456 425.159 165.631 425.32 165.77C425.667 166.052 426.104 166.197 426.55 166.18V166.18Z" fill="black"/>
<path d="M434.24 158.38L434.29 159.51C434.602 159.098 435.008 158.766 435.474 158.541C435.94 158.317 436.453 158.207 436.97 158.22C438.857 158.22 439.813 159.286 439.84 161.42V167.34H438.3V161.41C438.344 160.894 438.186 160.382 437.86 159.98C437.679 159.814 437.466 159.687 437.233 159.608C437.001 159.529 436.755 159.499 436.51 159.52C436.042 159.508 435.582 159.649 435.2 159.92C434.826 160.172 434.523 160.516 434.32 160.92V167.3H432.79V158.3L434.24 158.38Z" fill="black"/>
<path d="M446.35 156C446.345 155.769 446.427 155.544 446.58 155.37C446.764 155.201 447.005 155.108 447.255 155.108C447.505 155.108 447.746 155.201 447.93 155.37C448.087 155.541 448.17 155.768 448.16 156C448.165 156.114 448.147 156.227 448.108 156.333C448.068 156.44 448.008 156.537 447.93 156.62C447.806 156.755 447.644 156.85 447.465 156.891C447.286 156.932 447.099 156.918 446.928 156.851C446.757 156.784 446.61 156.667 446.507 156.515C446.404 156.363 446.349 156.184 446.35 156ZM448 167.34H446.47V158.34H448V167.34Z" fill="black"/>
<path d="M451.91 158.38V159.51C452.222 159.098 452.628 158.766 453.094 158.541C453.56 158.317 454.073 158.207 454.59 158.22C456.477 158.22 457.433 159.286 457.46 161.42V167.34H456V161.41C456.044 160.894 455.886 160.382 455.56 159.98C455.379 159.814 455.166 159.687 454.933 159.608C454.701 159.529 454.455 159.499 454.21 159.52C453.742 159.508 453.282 159.649 452.9 159.92C452.526 160.172 452.223 160.516 452.02 160.92V167.3H450.49V158.3L451.91 158.38Z" fill="black"/>
<path d="M463 162.85H459V161.6H463V162.85Z" fill="black"/>
<path d="M469.71 165C469.723 164.807 469.686 164.614 469.604 164.439C469.522 164.264 469.397 164.113 469.24 164C468.74 163.7 468.186 163.5 467.61 163.41C466.97 163.29 466.348 163.089 465.76 162.81C465.364 162.624 465.021 162.342 464.76 161.99C464.543 161.647 464.431 161.247 464.44 160.84C464.44 160.479 464.525 160.123 464.686 159.801C464.847 159.478 465.082 159.197 465.37 158.98C466.048 158.452 466.891 158.182 467.75 158.22C468.64 158.18 469.515 158.457 470.22 159C470.529 159.235 470.78 159.537 470.953 159.884C471.126 160.23 471.218 160.612 471.22 161H469.68C469.678 160.789 469.628 160.582 469.535 160.393C469.441 160.205 469.306 160.039 469.14 159.91C468.763 159.602 468.287 159.442 467.8 159.46C467.335 159.432 466.875 159.558 466.49 159.82C466.341 159.929 466.221 160.072 466.139 160.238C466.057 160.403 466.016 160.586 466.02 160.77C466.012 160.937 466.049 161.102 466.126 161.25C466.204 161.397 466.319 161.522 466.46 161.61C466.955 161.873 467.488 162.055 468.04 162.15C468.683 162.276 469.308 162.481 469.9 162.76C470.322 162.95 470.687 163.246 470.96 163.62C471.197 163.982 471.316 164.408 471.3 164.84C471.305 165.218 471.217 165.591 471.042 165.926C470.868 166.261 470.613 166.548 470.3 166.76C469.574 167.273 468.698 167.53 467.81 167.49C467.154 167.501 466.502 167.371 465.9 167.11C465.38 166.879 464.934 166.508 464.61 166.04C464.305 165.611 464.14 165.097 464.14 164.57H465.67C465.677 164.807 465.737 165.038 465.844 165.249C465.951 165.46 466.103 165.645 466.29 165.79C466.731 166.109 467.267 166.267 467.81 166.24C468.298 166.262 468.781 166.14 469.2 165.89C469.351 165.794 469.476 165.663 469.565 165.508C469.654 165.353 469.704 165.179 469.71 165Z" fill="black"/>
<path d="M477 167.51C476.443 167.536 475.887 167.442 475.37 167.235C474.852 167.028 474.385 166.713 474 166.31C473.211 165.437 472.801 164.286 472.86 163.11V162.83C472.846 162.008 473.02 161.194 473.37 160.45C473.68 159.781 474.172 159.213 474.79 158.81C475.384 158.421 476.08 158.216 476.79 158.22C477.301 158.191 477.812 158.28 478.284 158.479C478.755 158.679 479.175 158.983 479.51 159.37C480.222 160.314 480.576 161.48 480.51 162.66V163.3H474.44C474.423 164.084 474.697 164.847 475.21 165.44C475.446 165.706 475.738 165.918 476.064 166.059C476.391 166.201 476.744 166.27 477.1 166.26C477.578 166.276 478.051 166.162 478.47 165.93C478.857 165.705 479.197 165.406 479.47 165.05L480.4 165.78C480.039 166.346 479.534 166.804 478.936 167.108C478.338 167.413 477.67 167.551 477 167.51V167.51ZM476.81 159.51C476.518 159.502 476.229 159.558 475.961 159.674C475.693 159.789 475.454 159.962 475.26 160.18C474.805 160.711 474.532 161.373 474.48 162.07H478.97V161.96C478.964 161.304 478.742 160.668 478.34 160.15C478.147 159.924 477.903 159.745 477.629 159.629C477.355 159.513 477.057 159.462 476.76 159.48L476.81 159.51Z" fill="black"/>
<path d="M486.55 159.76C486.302 159.718 486.051 159.698 485.8 159.7C485.365 159.66 484.93 159.764 484.56 159.995C484.19 160.226 483.905 160.572 483.75 160.98V167.34H482.22V158.34H483.71V159.34C483.923 158.966 484.234 158.657 484.609 158.446C484.984 158.234 485.41 158.129 485.84 158.14C486.072 158.129 486.303 158.167 486.52 158.25L486.55 159.76Z" fill="black"/>
<path d="M491.06 165.26L493.28 158.38H494.85L491.64 167.38H490.47L487.22 158.38H488.79L491.06 165.26Z" fill="black"/>
<path d="M496.33 156C496.325 155.769 496.407 155.544 496.56 155.37C496.645 155.28 496.75 155.21 496.866 155.165C496.982 155.12 497.106 155.101 497.23 155.11C497.355 155.102 497.481 155.121 497.598 155.166C497.716 155.21 497.822 155.28 497.91 155.37C498.067 155.541 498.149 155.768 498.14 156C498.145 156.114 498.127 156.227 498.088 156.333C498.048 156.44 497.988 156.537 497.91 156.62C497.82 156.707 497.713 156.773 497.596 156.817C497.479 156.86 497.354 156.878 497.23 156.87C497.107 156.878 496.984 156.86 496.868 156.817C496.753 156.774 496.648 156.707 496.56 156.62C496.407 156.45 496.325 156.228 496.33 156V156ZM498 167.34H496.46V158.34H498V167.34Z" fill="black"/>
<path d="M504 166.26C504.521 166.267 505.027 166.09 505.43 165.76C505.625 165.613 505.786 165.427 505.903 165.213C506.021 164.999 506.091 164.763 506.11 164.52H507.56C507.528 165.048 507.344 165.555 507.03 165.98C506.7 166.456 506.252 166.838 505.73 167.09C505.196 167.367 504.602 167.511 504 167.51C503.455 167.534 502.912 167.437 502.408 167.226C501.905 167.015 501.455 166.695 501.09 166.29C500.336 165.364 499.949 164.193 500 163V162.74C499.985 161.938 500.149 161.142 500.48 160.41C500.777 159.76 501.256 159.211 501.86 158.83C502.501 158.45 503.235 158.256 503.98 158.27C504.901 158.239 505.799 158.561 506.49 159.17C506.818 159.467 507.081 159.827 507.263 160.23C507.446 160.632 507.543 161.068 507.55 161.51H506.1C506.091 161.241 506.028 160.977 505.915 160.733C505.801 160.489 505.64 160.27 505.44 160.09C505.247 159.904 505.018 159.758 504.767 159.662C504.516 159.565 504.249 159.521 503.98 159.53C503.633 159.513 503.287 159.581 502.972 159.727C502.656 159.874 502.381 160.094 502.17 160.37C501.701 161.09 501.477 161.942 501.53 162.8V163C501.475 163.842 501.7 164.679 502.17 165.38C502.378 165.667 502.655 165.897 502.974 166.051C503.293 166.205 503.646 166.276 504 166.26V166.26Z" fill="black"/>
<path d="M513 167.51C512.443 167.536 511.887 167.442 511.37 167.235C510.852 167.028 510.385 166.713 510 166.31C509.211 165.437 508.801 164.286 508.86 163.11V162.83C508.842 162.009 509.014 161.195 509.36 160.45C509.676 159.782 510.171 159.214 510.79 158.81C511.384 158.421 512.08 158.216 512.79 158.22C513.301 158.191 513.812 158.28 514.284 158.479C514.755 158.679 515.175 158.983 515.51 159.37C516.222 160.314 516.576 161.48 516.51 162.66V163.3H510.44C510.423 164.084 510.697 164.847 511.21 165.44C511.446 165.707 511.737 165.919 512.064 166.06C512.39 166.202 512.744 166.27 513.1 166.26C513.578 166.275 514.051 166.161 514.47 165.93C514.858 165.705 515.198 165.406 515.47 165.05L516.41 165.78C516.047 166.346 515.54 166.805 514.941 167.11C514.341 167.414 513.671 167.552 513 167.51V167.51ZM512.81 159.51C512.517 159.501 512.225 159.556 511.955 159.671C511.686 159.787 511.445 159.961 511.25 160.18C510.802 160.714 510.533 161.375 510.48 162.07H515V161.96C515.002 161.304 514.783 160.667 514.38 160.15C514.19 159.93 513.953 159.756 513.686 159.64C513.42 159.524 513.131 159.469 512.84 159.48L512.81 159.51Z" fill="black"/>
<path d="M305.93 187.69H298V186.59L302.2 182C302.69 181.48 303.119 180.906 303.48 180.29C303.712 179.875 303.833 179.406 303.83 178.93C303.851 178.359 303.646 177.802 303.26 177.38C303.063 177.179 302.826 177.021 302.564 176.918C302.302 176.814 302.021 176.768 301.74 176.78C301.415 176.761 301.089 176.809 300.783 176.921C300.477 177.033 300.197 177.206 299.96 177.43C299.741 177.675 299.572 177.962 299.464 178.272C299.356 178.583 299.31 178.912 299.33 179.24H297.8C297.778 178.742 297.862 178.244 298.047 177.78C298.231 177.317 298.512 176.897 298.87 176.55C299.258 176.202 299.712 175.934 300.205 175.762C300.697 175.591 301.219 175.519 301.74 175.55C302.706 175.497 303.656 175.811 304.4 176.43C304.729 176.724 304.99 177.087 305.163 177.493C305.335 177.9 305.417 178.339 305.4 178.78C305.4 179.967 304.647 181.38 303.14 183.02L299.91 186.52H305.96L305.93 187.69Z" fill="black"/>
<path d="M312.59 187.69H311.05V177.48L308 178.62V177.23L312.39 175.58H312.63L312.59 187.69Z" fill="black"/>
<path d="M322.45 185.32C322.463 185.127 322.426 184.934 322.344 184.759C322.262 184.584 322.137 184.433 321.98 184.32C321.481 184.017 320.927 183.817 320.35 183.73C319.711 183.606 319.09 183.404 318.5 183.13C318.103 182.94 317.76 182.655 317.5 182.3C317.277 181.962 317.162 181.565 317.17 181.16C317.17 180.798 317.255 180.441 317.418 180.118C317.582 179.795 317.818 179.515 318.11 179.3C318.788 178.771 319.631 178.502 320.49 178.54C321.38 178.5 322.255 178.776 322.96 179.32C323.26 179.559 323.501 179.864 323.665 180.21C323.83 180.557 323.914 180.936 323.91 181.32H322.37C322.369 181.109 322.32 180.901 322.227 180.712C322.133 180.523 321.997 180.358 321.83 180.23C321.453 179.922 320.976 179.762 320.49 179.78C320.025 179.751 319.565 179.878 319.18 180.14C319.03 180.248 318.909 180.391 318.827 180.556C318.745 180.722 318.705 180.905 318.71 181.09C318.701 181.255 318.736 181.42 318.812 181.568C318.887 181.715 319.001 181.84 319.14 181.93C319.639 182.191 320.175 182.373 320.73 182.47C321.372 182.597 321.997 182.802 322.59 183.08C323.009 183.27 323.371 183.567 323.64 183.94C323.88 184.3 324.003 184.727 323.99 185.16C323.995 185.538 323.907 185.911 323.732 186.246C323.558 186.581 323.303 186.868 322.99 187.08C322.264 187.593 321.388 187.85 320.5 187.81C319.843 187.822 319.192 187.692 318.59 187.43C318.07 187.198 317.624 186.828 317.3 186.36C316.99 185.929 316.826 185.411 316.83 184.88H318.36C318.364 185.118 318.421 185.353 318.529 185.566C318.636 185.779 318.79 185.965 318.98 186.11C319.421 186.428 319.957 186.587 320.5 186.56C320.988 186.582 321.471 186.46 321.89 186.21C322.05 186.12 322.185 185.992 322.283 185.836C322.381 185.681 322.438 185.503 322.45 185.32Z" fill="black"/>
<path d="M328.05 176.56V178.73H329.73V179.92H328.05V185.48C328.03 185.769 328.111 186.055 328.28 186.29C328.379 186.389 328.498 186.464 328.63 186.511C328.761 186.557 328.901 186.574 329.04 186.56C329.286 186.547 329.53 186.514 329.77 186.46V187.69C329.386 187.798 328.989 187.855 328.59 187.86C328.302 187.879 328.013 187.834 327.745 187.726C327.476 187.619 327.236 187.453 327.04 187.24C326.667 186.728 326.484 186.102 326.52 185.47V179.92H324.89V178.73H326.52V176.56H328.05Z" fill="black"/>
<path d="M334.7 183.2H330.7V182H334.7V183.2Z" fill="black"/>
<path d="M339.79 186.61C340.311 186.616 340.817 186.439 341.22 186.11C341.413 185.962 341.574 185.775 341.691 185.562C341.808 185.348 341.879 185.112 341.9 184.87H343.35C343.313 185.396 343.129 185.902 342.82 186.33C342.486 186.806 342.035 187.188 341.51 187.44C340.753 187.812 339.897 187.935 339.065 187.791C338.234 187.648 337.469 187.245 336.88 186.64C336.115 185.7 335.726 184.51 335.79 183.3V183C335.774 182.196 335.941 181.399 336.28 180.67C336.573 180.021 337.049 179.472 337.65 179.09C338.291 178.702 339.031 178.507 339.78 178.53C340.698 178.499 341.592 178.821 342.28 179.43C342.609 179.726 342.874 180.086 343.058 180.489C343.242 180.891 343.342 181.327 343.35 181.77H341.9C341.866 181.228 341.631 180.718 341.24 180.34C340.844 179.972 340.32 179.775 339.78 179.79C339.433 179.773 339.087 179.841 338.772 179.987C338.456 180.133 338.181 180.354 337.97 180.63C337.496 181.348 337.272 182.202 337.33 183.06V183.35C337.278 184.19 337.499 185.025 337.96 185.73C338.17 186.015 338.447 186.244 338.766 186.397C339.085 186.55 339.436 186.624 339.79 186.61V186.61Z" fill="black"/>
<path d="M348.79 187.86C348.233 187.885 347.678 187.791 347.16 187.584C346.643 187.377 346.176 187.062 345.79 186.66C345.001 185.786 344.591 184.635 344.65 183.46V183.18C344.636 182.358 344.81 181.544 345.16 180.8C345.47 180.131 345.962 179.562 346.58 179.16C347.172 178.767 347.869 178.561 348.58 178.57C349.09 178.541 349.599 178.63 350.069 178.829C350.539 179.028 350.957 179.333 351.29 179.72C352.002 180.664 352.356 181.829 352.29 183.01V183.65H346.22C346.204 184.435 346.482 185.199 347 185.79C347.234 186.056 347.523 186.268 347.848 186.41C348.173 186.551 348.526 186.62 348.88 186.61C349.358 186.625 349.831 186.511 350.25 186.28C350.637 186.054 350.977 185.755 351.25 185.4L352.18 186.13C351.82 186.694 351.316 187.151 350.72 187.455C350.124 187.759 349.458 187.899 348.79 187.86V187.86ZM348.6 179.86C348.307 179.85 348.015 179.905 347.745 180.021C347.476 180.137 347.235 180.31 347.04 180.53C346.585 181.061 346.312 181.723 346.26 182.42H350.75V182.31C350.749 181.653 350.527 181.015 350.12 180.5C349.933 180.281 349.7 180.107 349.437 179.991C349.173 179.875 348.887 179.82 348.6 179.83V179.86Z" fill="black"/>
<path d="M355.5 178.73L355.55 179.86C355.863 179.449 356.269 179.117 356.735 178.893C357.201 178.669 357.713 178.558 358.23 178.57C360.13 178.57 361.08 179.64 361.1 181.77V187.69H359.57V181.76C359.602 181.244 359.442 180.735 359.12 180.33C358.939 180.164 358.726 180.037 358.493 179.958C358.261 179.879 358.015 179.849 357.77 179.87C357.304 179.861 356.846 179.998 356.46 180.26C356.085 180.533 355.783 180.893 355.58 181.31V187.69H354.05V178.69L355.5 178.73Z" fill="black"/>
<path d="M365.49 176.56V178.73H367.16V179.92H365.49V185.48C365.467 185.767 365.545 186.054 365.71 186.29C365.809 186.389 365.928 186.464 366.06 186.511C366.191 186.557 366.331 186.574 366.47 186.56C366.716 186.548 366.96 186.514 367.2 186.46V187.69C366.819 187.799 366.426 187.856 366.03 187.86C365.742 187.881 365.452 187.836 365.184 187.728C364.915 187.621 364.675 187.454 364.48 187.24C364.104 186.73 363.919 186.103 363.96 185.47V179.92H362.32V178.73H364V176.56H365.49Z" fill="black"/>
<path d="M374.48 186.81C374.15 187.17 373.743 187.451 373.289 187.633C372.836 187.815 372.347 187.892 371.86 187.86C371.457 187.887 371.052 187.827 370.674 187.684C370.296 187.541 369.954 187.318 369.67 187.03C369.122 186.328 368.855 185.448 368.92 184.56V178.73H370.45V184.52C370.45 185.853 371 186.52 372.1 186.52C372.578 186.572 373.06 186.474 373.479 186.239C373.899 186.004 374.235 185.645 374.44 185.21V178.69H376V187.69H374.54L374.48 186.81Z" fill="black"/>
<path d="M382.63 180.11C382.379 180.068 382.125 180.048 381.87 180.05C381.444 180.022 381.019 180.131 380.66 180.361C380.3 180.591 380.023 180.931 379.87 181.33V187.69H378.3V178.69H379.79V179.69C380.005 179.315 380.318 179.006 380.694 178.794C381.071 178.583 381.498 178.478 381.93 178.49C382.162 178.48 382.393 178.517 382.61 178.6L382.63 180.11Z" fill="black"/>
<path d="M387.12 185.45L389.2 178.73H390.84L387.24 189.07C386.68 190.57 385.8 191.31 384.58 191.31H384.29L383.72 191.2V189.96H384.13C384.56 189.984 384.987 189.872 385.35 189.64C385.701 189.34 385.949 188.938 386.06 188.49L386.4 187.58L383.21 178.72H384.88L387.12 185.45Z" fill="black"/>
<path d="M398.07 187.69H396.54V175H398.07V187.69Z" fill="black"/>
<path d="M400.53 176.36C400.525 176.128 400.607 175.904 400.76 175.73C400.846 175.64 400.95 175.57 401.066 175.525C401.182 175.48 401.306 175.461 401.43 175.47C401.555 175.462 401.681 175.481 401.799 175.525C401.916 175.57 402.022 175.64 402.11 175.73C402.252 175.907 402.329 176.128 402.329 176.355C402.329 176.582 402.252 176.803 402.11 176.98C402.02 177.066 401.913 177.133 401.796 177.176C401.679 177.219 401.555 177.238 401.43 177.23C401.307 177.238 401.184 177.22 401.068 177.177C400.953 177.134 400.848 177.067 400.76 176.98C400.608 176.809 400.526 176.588 400.53 176.36V176.36ZM402.19 187.69H400.65V178.69H402.19V187.69Z" fill="black"/>
<path d="M405.39 187.69V179.92H404V178.73H405.42V177.81C405.392 177.407 405.446 177.003 405.579 176.622C405.711 176.24 405.919 175.889 406.19 175.59C406.479 175.315 406.822 175.103 407.197 174.967C407.572 174.831 407.972 174.774 408.37 174.8C408.724 174.802 409.077 174.849 409.42 174.94L409.34 176.17C409.066 176.121 408.788 176.097 408.51 176.1C408.298 176.087 408.086 176.12 407.887 176.196C407.689 176.272 407.509 176.389 407.36 176.54C407.067 176.888 406.92 177.336 406.95 177.79V178.73H408.86V179.92H406.95V187.69H405.39Z" fill="black"/>
<path d="M414 187.86C413.443 187.886 412.888 187.792 412.37 187.585C411.853 187.378 411.385 187.063 411 186.66C410.211 185.786 409.801 184.635 409.86 183.46V183.18C409.846 182.358 410.02 181.544 410.37 180.8C410.677 180.129 411.17 179.559 411.79 179.16C412.382 178.766 413.079 178.561 413.79 178.57C414.301 178.541 414.812 178.63 415.284 178.829C415.755 179.028 416.175 179.333 416.51 179.72C417.222 180.664 417.576 181.829 417.51 183.01V183.65H411.44C411.425 184.433 411.699 185.195 412.21 185.79C412.446 186.057 412.737 186.268 413.064 186.41C413.391 186.552 413.744 186.62 414.1 186.61C414.578 186.624 415.051 186.51 415.47 186.28C415.855 186.051 416.195 185.753 416.47 185.4L417.4 186.13C417.038 186.694 416.533 187.152 415.935 187.457C415.337 187.761 414.67 187.9 414 187.86V187.86ZM413.81 179.86C413.519 179.852 413.229 179.907 412.961 180.023C412.693 180.139 412.454 180.312 412.26 180.53C411.805 181.061 411.532 181.723 411.48 182.42H416V182.31C415.994 181.654 415.772 181.018 415.37 180.5C415.182 180.283 414.948 180.11 414.685 179.994C414.423 179.878 414.137 179.822 413.85 179.83L413.81 179.86Z" fill="black"/>
<path d="M428.72 185.32C428.735 185.128 428.701 184.935 428.62 184.76C428.54 184.585 428.416 184.434 428.26 184.32C427.757 184.018 427.2 183.817 426.62 183.73C425.985 183.606 425.367 183.405 424.78 183.13C424.382 182.943 424.038 182.657 423.78 182.3C423.557 181.962 423.442 181.565 423.45 181.16C423.45 180.799 423.535 180.444 423.696 180.121C423.857 179.798 424.092 179.517 424.38 179.3C425.059 178.773 425.902 178.504 426.76 178.54C427.65 178.499 428.526 178.775 429.23 179.32C429.531 179.558 429.774 179.862 429.939 180.209C430.103 180.556 430.186 180.936 430.18 181.32H428.64C428.639 181.11 428.591 180.904 428.499 180.715C428.407 180.526 428.274 180.361 428.11 180.23C427.73 179.92 427.25 179.76 426.76 179.78C426.296 179.755 425.836 179.881 425.45 180.14C425.301 180.249 425.181 180.393 425.099 180.558C425.017 180.723 424.977 180.906 424.98 181.09C424.972 181.257 425.009 181.422 425.086 181.57C425.164 181.717 425.279 181.842 425.42 181.93C425.918 182.195 426.455 182.377 427.01 182.47C427.652 182.599 428.276 182.804 428.87 183.08C429.287 183.273 429.649 183.569 429.92 183.94C430.157 184.302 430.276 184.728 430.26 185.16C430.266 185.538 430.177 185.911 430.003 186.246C429.828 186.582 429.573 186.868 429.26 187.08C428.534 187.594 427.658 187.85 426.77 187.81C426.117 187.822 425.469 187.692 424.87 187.43C424.347 187.199 423.898 186.829 423.57 186.36C423.265 185.927 423.1 185.41 423.1 184.88H424.64C424.642 185.118 424.698 185.352 424.804 185.565C424.909 185.779 425.062 185.965 425.25 186.11C425.692 186.427 426.227 186.586 426.77 186.56C427.261 186.583 427.748 186.461 428.17 186.21C428.329 186.12 428.463 185.991 428.559 185.836C428.655 185.68 428.71 185.503 428.72 185.32V185.32Z" fill="black"/>
<path d="M434.75 183.54L433.75 184.54V187.68H432.22V175H433.75V182.7L434.57 181.7L437.36 178.7H439.22L435.74 182.45L439.63 187.66H437.83L434.75 183.54Z" fill="black"/>
<path d="M440.85 176.36C440.845 176.129 440.927 175.904 441.08 175.73C441.168 175.64 441.274 175.571 441.392 175.526C441.509 175.481 441.635 175.462 441.76 175.47C441.885 175.464 442.01 175.484 442.128 175.528C442.245 175.573 442.351 175.642 442.44 175.73C442.567 175.857 442.651 176.019 442.683 176.195C442.715 176.371 442.693 176.552 442.619 176.715C442.545 176.878 442.423 177.015 442.27 177.107C442.116 177.199 441.939 177.242 441.76 177.23C441.636 177.238 441.511 177.22 441.394 177.177C441.277 177.134 441.17 177.067 441.08 176.98C440.928 176.81 440.846 176.588 440.85 176.36V176.36ZM442.51 187.69H441V178.69H442.53L442.51 187.69Z" fill="black"/>
<path d="M446.62 187.69H445.09V175H446.62V187.69Z" fill="black"/>
<path d="M450.74 187.69H449.21V175H450.74V187.69Z" fill="black"/>
<path d="M458.41 185.32C458.423 185.127 458.386 184.934 458.304 184.759C458.222 184.584 458.097 184.433 457.94 184.32C457.441 184.017 456.887 183.817 456.31 183.73C455.671 183.606 455.05 183.404 454.46 183.13C454.063 182.94 453.72 182.655 453.46 182.3C453.237 181.962 453.122 181.565 453.13 181.16C453.132 180.798 453.218 180.442 453.381 180.12C453.545 179.797 453.78 179.516 454.07 179.3C454.748 178.771 455.592 178.502 456.45 178.54C457.34 178.5 458.215 178.776 458.92 179.32C459.22 179.559 459.461 179.864 459.625 180.21C459.79 180.557 459.874 180.936 459.87 181.32H458.33C458.329 181.109 458.28 180.901 458.187 180.712C458.093 180.523 457.957 180.358 457.79 180.23C457.413 179.922 456.937 179.762 456.45 179.78C455.986 179.751 455.525 179.878 455.14 180.14C454.99 180.248 454.869 180.391 454.787 180.556C454.705 180.722 454.665 180.905 454.67 181.09C454.66 181.257 454.696 181.423 454.773 181.571C454.851 181.719 454.967 181.843 455.11 181.93C455.605 182.193 456.138 182.375 456.69 182.47C457.333 182.596 457.958 182.801 458.55 183.08C458.972 183.27 459.337 183.566 459.61 183.94C459.843 184.303 459.961 184.728 459.95 185.16C459.955 185.538 459.867 185.911 459.692 186.246C459.518 186.581 459.263 186.868 458.95 187.08C458.224 187.593 457.348 187.85 456.46 187.81C455.803 187.822 455.152 187.692 454.55 187.43C454.03 187.198 453.584 186.828 453.26 186.36C452.95 185.929 452.786 185.411 452.79 184.88H454.32C454.324 185.118 454.382 185.353 454.489 185.566C454.596 185.779 454.751 185.965 454.94 186.11C455.381 186.428 455.917 186.587 456.46 186.56C456.948 186.582 457.431 186.46 457.85 186.21C458.01 186.12 458.145 185.992 458.243 185.836C458.341 185.681 458.398 185.503 458.41 185.32V185.32Z" fill="black"/>
<path d="M468.21 176.56V178.73H469.88V179.92H468.21V185.48C468.19 185.769 468.271 186.055 468.44 186.29C468.538 186.39 468.657 186.466 468.789 186.513C468.921 186.56 469.061 186.576 469.2 186.56C469.446 186.547 469.69 186.514 469.93 186.46V187.69C469.546 187.798 469.149 187.855 468.75 187.86C468.462 187.879 468.173 187.834 467.905 187.726C467.636 187.619 467.396 187.453 467.2 187.24C466.824 186.73 466.639 186.103 466.68 185.47V179.92H465.05V178.73H466.68V176.56H468.21Z" fill="black"/>
<path d="M475.39 187.86C474.833 187.886 474.277 187.792 473.76 187.585C473.242 187.378 472.775 187.063 472.39 186.66C471.996 186.229 471.692 185.724 471.494 185.175C471.297 184.626 471.21 184.043 471.24 183.46V183.18C471.226 182.358 471.4 181.544 471.75 180.8C472.066 180.131 472.561 179.564 473.18 179.16C473.772 178.766 474.469 178.561 475.18 178.57C475.691 178.541 476.202 178.63 476.674 178.829C477.145 179.028 477.565 179.333 477.9 179.72C478.612 180.664 478.966 181.829 478.9 183.01V183.65H472.84C472.825 184.433 473.099 185.195 473.61 185.79C473.844 186.056 474.134 186.268 474.458 186.41C474.783 186.551 475.136 186.62 475.49 186.61C475.971 186.624 476.448 186.51 476.87 186.28C477.256 186.052 477.595 185.754 477.87 185.4L478.81 186.13C478.447 186.698 477.938 187.158 477.336 187.462C476.735 187.766 476.063 187.904 475.39 187.86V187.86ZM475.2 179.86C474.907 179.85 474.615 179.905 474.345 180.021C474.076 180.137 473.835 180.311 473.64 180.53C473.185 181.059 472.914 181.723 472.87 182.42H477.35V182.31C477.354 181.652 477.131 181.013 476.72 180.5C476.534 180.28 476.3 180.106 476.037 179.99C475.774 179.874 475.488 179.819 475.2 179.83V179.86Z" fill="black"/>
<path d="M486.19 187.69C486.07 187.389 485.996 187.072 485.97 186.75C485.647 187.104 485.253 187.385 484.813 187.577C484.374 187.768 483.899 187.864 483.42 187.86C482.628 187.891 481.854 187.623 481.25 187.11C480.975 186.877 480.756 186.585 480.609 186.256C480.462 185.927 480.391 185.57 480.4 185.21C480.381 184.787 480.468 184.366 480.653 183.985C480.838 183.604 481.116 183.276 481.46 183.03C482.355 182.467 483.404 182.198 484.46 182.26H486V181.56C486.013 181.325 485.977 181.09 485.894 180.869C485.812 180.649 485.684 180.448 485.52 180.28C485.328 180.109 485.103 179.978 484.859 179.895C484.615 179.813 484.357 179.78 484.1 179.8C483.611 179.785 483.131 179.929 482.73 180.21C482.564 180.32 482.426 180.468 482.329 180.642C482.231 180.816 482.177 181.011 482.17 181.21H480.63C480.64 180.735 480.809 180.277 481.11 179.91C481.447 179.472 481.891 179.127 482.4 178.91C482.965 178.665 483.575 178.542 484.19 178.55C485.067 178.5 485.932 178.774 486.62 179.32C486.914 179.59 487.148 179.919 487.305 180.287C487.462 180.654 487.538 181.05 487.53 181.45V185.58C487.498 186.261 487.603 186.941 487.84 187.58V187.71L486.19 187.69ZM483.65 186.52C484.128 186.521 484.598 186.394 485.01 186.15C485.418 185.92 485.746 185.571 485.95 185.15V183.31H484.75C482.87 183.31 481.93 183.86 481.93 184.96C481.919 185.172 481.956 185.384 482.04 185.58C482.123 185.776 482.249 185.95 482.41 186.09C482.757 186.38 483.198 186.533 483.65 186.52V186.52Z" fill="black"/>
<path d="M493.47 186.61C493.994 186.618 494.504 186.44 494.91 186.11C495.103 185.962 495.264 185.775 495.381 185.562C495.498 185.348 495.569 185.112 495.59 184.87H497C496.973 185.398 496.788 185.907 496.47 186.33C496.14 186.806 495.692 187.188 495.17 187.44C494.411 187.814 493.554 187.939 492.72 187.795C491.886 187.651 491.119 187.247 490.53 186.64C489.768 185.699 489.383 184.509 489.45 183.3V183C489.436 182.197 489.599 181.401 489.93 180.67C490.227 180.02 490.706 179.471 491.31 179.09C491.951 178.702 492.691 178.507 493.44 178.53C494.358 178.499 495.252 178.821 495.94 179.43C496.27 179.725 496.534 180.085 496.717 180.488C496.899 180.891 496.996 181.328 497 181.77H495.56C495.526 181.228 495.291 180.718 494.9 180.34C494.504 179.972 493.98 179.775 493.44 179.79C493.093 179.771 492.746 179.838 492.431 179.985C492.115 180.131 491.84 180.353 491.63 180.63C491.157 181.348 490.932 182.202 490.99 183.06V183.35C490.938 184.19 491.159 185.025 491.62 185.73C491.831 186.019 492.11 186.251 492.433 186.404C492.757 186.558 493.113 186.629 493.47 186.61V186.61Z" fill="black"/>
<path d="M500.29 179.82C500.602 179.418 501.005 179.096 501.466 178.878C501.926 178.661 502.431 178.556 502.94 178.57C504.83 178.57 505.79 179.64 505.8 181.77V187.69H504.27V181.76C504.314 181.244 504.156 180.732 503.83 180.33C503.648 180.163 503.433 180.036 503.198 179.957C502.964 179.878 502.716 179.848 502.47 179.87C502.007 179.861 501.552 179.997 501.17 180.26C500.792 180.53 500.489 180.891 500.29 181.31V187.69H498.76V175H500.29V179.82Z" fill="black"/>
<path d="M511.82 187.86C511.263 187.885 510.708 187.791 510.19 187.584C509.673 187.377 509.206 187.062 508.82 186.66C508.031 185.787 507.621 184.636 507.68 183.46V183.18C507.666 182.358 507.84 181.544 508.19 180.8C508.5 180.131 508.992 179.563 509.61 179.16C510.202 178.766 510.899 178.561 511.61 178.57C512.121 178.54 512.632 178.629 513.104 178.828C513.576 179.028 513.995 179.333 514.33 179.72C515.042 180.664 515.396 181.83 515.33 183.01V183.65H509.26C509.245 184.434 509.519 185.196 510.03 185.79C510.266 186.056 510.558 186.268 510.884 186.409C511.211 186.551 511.564 186.619 511.92 186.61C512.398 186.626 512.871 186.512 513.29 186.28C513.677 186.054 514.017 185.756 514.29 185.4L515.22 186.13C514.859 186.695 514.353 187.154 513.756 187.458C513.158 187.762 512.489 187.901 511.82 187.86V187.86ZM511.62 179.86C511.328 179.852 511.039 179.908 510.771 180.023C510.503 180.139 510.264 180.312 510.07 180.53C509.615 181.061 509.342 181.723 509.29 182.42H513.78V182.31C513.774 181.654 513.552 181.018 513.15 180.5C512.962 180.28 512.727 180.106 512.462 179.99C512.197 179.874 511.909 179.819 511.62 179.83V179.86Z" fill="black"/>
<path d="M521.41 180.11C521.162 180.069 520.911 180.049 520.66 180.05C520.234 180.022 519.809 180.131 519.449 180.361C519.09 180.591 518.813 180.931 518.66 181.33V187.69H517.13V178.69H518.62V179.69C518.833 179.316 519.144 179.007 519.519 178.796C519.894 178.584 520.32 178.479 520.75 178.49C520.982 178.479 521.213 178.517 521.43 178.6L521.41 180.11Z" fill="black"/>
<path d="M350.28 196.91V199.08H352V200.27H350.32V205.83C350.3 206.119 350.381 206.405 350.55 206.64C350.649 206.739 350.768 206.814 350.899 206.861C351.031 206.907 351.171 206.924 351.31 206.91C351.556 206.898 351.8 206.865 352.04 206.81V208C351.656 208.109 351.259 208.166 350.86 208.17C350.573 208.19 350.285 208.145 350.019 208.037C349.752 207.93 349.513 207.763 349.32 207.55C348.94 207.041 348.752 206.414 348.79 205.78V200.23H347.16V199.04H348.79V196.87L350.28 196.91Z" fill="black"/>
<path d="M358.08 200.46C357.829 200.419 357.575 200.399 357.32 200.4C356.894 200.372 356.469 200.481 356.11 200.711C355.75 200.941 355.473 201.281 355.32 201.68V208H353.79V199H355.28V200C355.495 199.625 355.807 199.316 356.184 199.104C356.561 198.893 356.988 198.788 357.42 198.8C357.652 198.79 357.883 198.827 358.1 198.91L358.08 200.46Z" fill="black"/>
<path d="M364.68 208C364.566 207.698 364.495 207.382 364.47 207.06C364.147 207.414 363.753 207.696 363.313 207.887C362.874 208.078 362.399 208.175 361.92 208.17C361.125 208.201 360.348 207.933 359.74 207.42C359.469 207.184 359.254 206.892 359.109 206.564C358.964 206.235 358.892 205.879 358.9 205.52C358.881 205.097 358.968 204.676 359.153 204.296C359.338 203.915 359.616 203.586 359.96 203.34C360.855 202.776 361.904 202.507 362.96 202.57H364.45V201.87C364.463 201.635 364.427 201.4 364.344 201.18C364.262 200.959 364.134 200.759 363.97 200.59C363.779 200.42 363.556 200.29 363.314 200.207C363.072 200.125 362.815 200.092 362.56 200.11C362.068 200.094 361.584 200.238 361.18 200.52C361.014 200.629 360.877 200.778 360.781 200.952C360.685 201.126 360.633 201.321 360.63 201.52H359.09C359.1 201.047 359.265 200.59 359.56 200.22C359.899 199.78 360.347 199.435 360.86 199.22C361.425 198.976 362.035 198.853 362.65 198.86C363.528 198.806 364.394 199.081 365.08 199.63C365.372 199.902 365.604 200.232 365.761 200.599C365.918 200.966 365.996 201.361 365.99 201.76V206C365.958 206.681 366.063 207.361 366.3 208V208H364.68ZM362.14 206.83C362.622 206.832 363.095 206.704 363.51 206.46C363.917 206.233 364.243 205.883 364.44 205.46V203.62H363.24C361.37 203.62 360.43 204.17 360.43 205.27C360.419 205.483 360.456 205.695 360.54 205.891C360.623 206.086 360.749 206.261 360.91 206.4C361.248 206.703 361.686 206.871 362.14 206.87V206.83Z" fill="black"/>
<path d="M368.39 196.71C368.381 196.479 368.46 196.254 368.61 196.08C368.795 195.908 369.038 195.813 369.29 195.813C369.542 195.813 369.785 195.908 369.97 196.08C370.104 196.264 370.165 196.492 370.142 196.718C370.119 196.945 370.013 197.155 369.846 197.309C369.678 197.463 369.46 197.551 369.232 197.554C369.004 197.558 368.783 197.478 368.61 197.33C368.462 197.158 368.384 196.937 368.39 196.71V196.71ZM370 208H368.47V199H370V208Z" fill="black"/>
<path d="M373.94 199.08L373.99 200.21C374.303 199.798 374.709 199.467 375.175 199.243C375.641 199.018 376.153 198.908 376.67 198.92C378.57 198.92 379.52 199.98 379.54 202.12V208H378V202.07C378.032 201.554 377.872 201.044 377.55 200.64C377.37 200.473 377.157 200.345 376.924 200.266C376.691 200.187 376.445 200.157 376.2 200.18C375.733 200.171 375.276 200.307 374.89 200.57C374.521 200.826 374.222 201.169 374.02 201.57V208H372.48V199L373.94 199.08Z" fill="black"/>
<path d="M381.86 196.71C381.851 196.478 381.933 196.251 382.09 196.08C382.176 195.99 382.28 195.92 382.396 195.875C382.512 195.83 382.636 195.811 382.76 195.82C382.885 195.812 383.011 195.832 383.128 195.876C383.245 195.921 383.352 195.991 383.44 196.08C383.566 196.207 383.651 196.369 383.683 196.545C383.715 196.721 383.693 196.902 383.619 197.065C383.545 197.228 383.423 197.365 383.27 197.457C383.116 197.549 382.939 197.592 382.76 197.58C382.642 197.59 382.523 197.575 382.411 197.535C382.299 197.495 382.197 197.432 382.112 197.35C382.027 197.267 381.96 197.168 381.917 197.057C381.873 196.947 381.854 196.829 381.86 196.71V196.71ZM383.51 208H382V199H383.53L383.51 208Z" fill="black"/>
<path d="M387.41 199.08V200.21C387.724 199.798 388.132 199.466 388.6 199.241C389.067 199.017 389.582 198.907 390.1 198.92C391.99 198.92 392.94 199.98 392.96 202.12V208H391.43V202.07C391.465 201.555 391.308 201.046 390.99 200.64C390.808 200.473 390.593 200.346 390.358 200.267C390.124 200.188 389.876 200.158 389.63 200.18C389.164 200.172 388.706 200.308 388.32 200.57C387.954 200.829 387.655 201.172 387.45 201.57V208H386V199L387.41 199.08Z" fill="black"/>
<path d="M395 203.49C394.945 202.295 395.297 201.118 396 200.15C396.297 199.755 396.685 199.437 397.13 199.223C397.576 199.009 398.066 198.905 398.56 198.92C399.048 198.894 399.536 198.986 399.982 199.187C400.427 199.389 400.818 199.695 401.12 200.08L401.2 199.08H402.6V207.83C402.631 208.331 402.559 208.833 402.386 209.304C402.214 209.776 401.947 210.207 401.6 210.57C401.227 210.912 400.791 211.176 400.315 211.348C399.84 211.519 399.335 211.595 398.83 211.57C398.177 211.567 397.533 211.424 396.94 211.15C396.369 210.916 395.876 210.524 395.52 210.02L396.32 209.1C396.598 209.478 396.961 209.785 397.38 209.996C397.798 210.208 398.261 210.319 398.73 210.32C399.048 210.338 399.366 210.292 399.665 210.183C399.964 210.075 400.238 209.907 400.47 209.69C400.689 209.453 400.858 209.174 400.966 208.869C401.075 208.565 401.12 208.242 401.1 207.92V207.15C400.786 207.501 400.398 207.779 399.964 207.962C399.53 208.146 399.061 208.23 398.59 208.21C398.094 208.219 397.603 208.109 397.159 207.887C396.715 207.666 396.331 207.341 396.04 206.94C395.317 205.939 394.951 204.724 395 203.49V203.49ZM396.54 203.66C396.492 204.499 396.709 205.331 397.16 206.04C397.352 206.321 397.613 206.548 397.917 206.701C398.222 206.853 398.56 206.925 398.9 206.91C399.346 206.925 399.786 206.807 400.165 206.572C400.544 206.337 400.845 205.995 401.03 205.59V201.5C400.839 201.104 400.536 200.773 400.16 200.545C399.784 200.318 399.349 200.205 398.91 200.22C398.57 200.205 398.232 200.277 397.927 200.429C397.623 200.581 397.362 200.809 397.17 201.09C396.684 201.856 396.45 202.754 396.5 203.66H396.54Z" fill="black"/>
<path d="M416.6 203.66C416.655 204.831 416.329 205.989 415.67 206.96C415.382 207.361 415 207.685 414.557 207.903C414.114 208.121 413.624 208.227 413.13 208.21C412.656 208.24 412.182 208.166 411.739 207.993C411.297 207.82 410.898 207.553 410.57 207.21V211.53H409V199.08H410.4L410.48 200.08C410.791 199.695 411.189 199.389 411.64 199.187C412.092 198.985 412.586 198.894 413.08 198.92C413.571 198.902 414.059 199.003 414.503 199.213C414.947 199.424 415.333 199.738 415.63 200.13C416.312 201.124 416.642 202.317 416.57 203.52L416.6 203.66ZM415.07 203.49C415.114 202.641 414.886 201.8 414.42 201.09C414.22 200.81 413.954 200.584 413.645 200.432C413.336 200.28 412.994 200.207 412.65 200.22C412.222 200.205 411.799 200.312 411.43 200.53C411.061 200.748 410.763 201.067 410.57 201.45V205.73C410.764 206.115 411.066 206.437 411.438 206.655C411.811 206.873 412.239 206.979 412.67 206.96C413.012 206.97 413.351 206.895 413.656 206.741C413.962 206.588 414.224 206.36 414.42 206.08C414.905 205.307 415.132 204.4 415.07 203.49V203.49Z" fill="black"/>
<path d="M422.88 200.46C422.629 200.418 422.375 200.398 422.12 200.4C421.694 200.372 421.269 200.481 420.91 200.711C420.55 200.941 420.273 201.281 420.12 201.68V208H418.59V199H420V200C420.215 199.625 420.528 199.316 420.904 199.104C421.281 198.893 421.708 198.788 422.14 198.8C422.372 198.79 422.603 198.827 422.82 198.91L422.88 200.46Z" fill="black"/>
<path d="M423.71 203.48C423.7 202.661 423.878 201.85 424.23 201.11C424.544 200.439 425.047 199.874 425.678 199.485C426.309 199.096 427.039 198.899 427.78 198.92C428.342 198.894 428.904 198.993 429.423 199.211C429.942 199.429 430.405 199.76 430.78 200.18C431.565 201.123 431.969 202.325 431.91 203.55V203.66C431.922 204.471 431.751 205.274 431.41 206.01C431.096 206.674 430.6 207.236 429.98 207.63C429.336 208.021 428.594 208.222 427.84 208.21C427.277 208.234 426.716 208.133 426.197 207.913C425.678 207.693 425.215 207.361 424.84 206.94C424.055 206.006 423.652 204.809 423.71 203.59V203.48ZM425.25 203.66C425.211 204.513 425.458 205.353 425.95 206.05C426.168 206.334 426.448 206.565 426.769 206.723C427.089 206.881 427.442 206.964 427.8 206.964C428.158 206.964 428.511 206.881 428.832 206.723C429.153 206.565 429.433 206.334 429.65 206.05C430.153 205.295 430.395 204.396 430.34 203.49C430.381 202.638 430.135 201.796 429.64 201.1C429.427 200.809 429.146 200.575 428.822 200.416C428.498 200.258 428.141 200.18 427.78 200.19C427.425 200.181 427.073 200.257 426.754 200.414C426.435 200.571 426.159 200.803 425.95 201.09C425.442 201.847 425.196 202.75 425.25 203.66Z" fill="black"/>
<path d="M433.43 203.49C433.375 202.295 433.727 201.118 434.43 200.15C434.727 199.755 435.115 199.437 435.56 199.223C436.006 199.009 436.496 198.905 436.99 198.92C437.478 198.894 437.966 198.986 438.411 199.187C438.857 199.389 439.247 199.695 439.55 200.08L439.63 199.08H441V207.83C441.032 208.331 440.959 208.833 440.787 209.305C440.615 209.776 440.347 210.207 440 210.57C439.627 210.912 439.191 211.176 438.715 211.348C438.24 211.519 437.735 211.595 437.23 211.57C436.577 211.567 435.932 211.424 435.34 211.15C434.769 210.916 434.276 210.524 433.92 210.02L434.72 209.1C434.998 209.478 435.361 209.785 435.78 209.996C436.198 210.208 436.661 210.319 437.13 210.32C437.447 210.338 437.765 210.292 438.065 210.183C438.364 210.075 438.638 209.907 438.87 209.69C439.087 209.452 439.254 209.172 439.361 208.868C439.467 208.564 439.511 208.241 439.49 207.92V207.15C439.179 207.502 438.793 207.78 438.36 207.963C437.927 208.146 437.459 208.231 436.99 208.21C436.494 208.219 436.003 208.109 435.559 207.887C435.115 207.666 434.731 207.341 434.44 206.94C433.728 205.935 433.372 204.72 433.43 203.49V203.49ZM434.97 203.66C434.921 204.499 435.138 205.331 435.59 206.04C435.782 206.321 436.043 206.548 436.347 206.701C436.651 206.853 436.99 206.925 437.33 206.91C437.774 206.925 438.213 206.808 438.591 206.573C438.968 206.338 439.268 205.995 439.45 205.59V201.5C439.261 201.104 438.961 200.772 438.586 200.545C438.211 200.317 437.778 200.204 437.34 200.22C437 200.205 436.661 200.277 436.357 200.429C436.052 200.581 435.792 200.809 435.6 201.09C435.139 201.864 434.929 202.762 435 203.66H434.97Z" fill="black"/>
<path d="M447.64 200.46C447.389 200.419 447.135 200.399 446.88 200.4C446.454 200.372 446.029 200.481 445.67 200.711C445.31 200.941 445.033 201.281 444.88 201.68V208H443.3V199H444.79V200C445.004 199.625 445.316 199.314 445.694 199.103C446.071 198.892 446.498 198.787 446.93 198.8C447.162 198.791 447.393 198.829 447.61 198.91L447.64 200.46Z" fill="black"/>
<path d="M454.24 208C454.121 207.7 454.05 207.382 454.03 207.06C453.707 207.414 453.313 207.696 452.873 207.887C452.434 208.078 451.959 208.175 451.48 208.17C450.685 208.202 449.907 207.935 449.3 207.42C449.028 207.185 448.811 206.893 448.664 206.564C448.517 206.236 448.444 205.88 448.45 205.52C448.432 205.096 448.521 204.675 448.708 204.294C448.894 203.913 449.174 203.585 449.52 203.34C450.415 202.776 451.464 202.507 452.52 202.57H454V201.87C454.013 201.635 453.977 201.4 453.894 201.18C453.812 200.959 453.684 200.759 453.52 200.59C453.329 200.42 453.106 200.289 452.864 200.207C452.621 200.124 452.365 200.092 452.11 200.11C451.618 200.094 451.134 200.238 450.73 200.52C450.564 200.629 450.427 200.777 450.331 200.952C450.235 201.126 450.183 201.321 450.18 201.52H448.64C448.65 201.047 448.815 200.59 449.11 200.22C449.449 199.779 449.897 199.435 450.41 199.22C450.975 198.975 451.585 198.853 452.2 198.86C453.075 198.805 453.938 199.079 454.62 199.63C454.916 199.899 455.15 200.228 455.307 200.596C455.464 200.963 455.54 201.36 455.53 201.76V206C455.499 206.682 455.608 207.362 455.85 208V208H454.24ZM451.7 206.83C452.182 206.832 452.655 206.704 453.07 206.46C453.477 206.233 453.803 205.883 454 205.46V203.62H452.8C450.93 203.62 449.99 204.17 449.99 205.27C449.979 205.482 450.016 205.695 450.1 205.89C450.183 206.086 450.309 206.261 450.47 206.4C450.808 206.703 451.246 206.87 451.7 206.87V206.83Z" fill="black"/>
<path d="M459.38 199.08V200.08C459.705 199.695 460.113 199.391 460.575 199.19C461.036 198.989 461.537 198.896 462.04 198.92C462.561 198.869 463.086 198.98 463.542 199.237C463.999 199.495 464.364 199.887 464.59 200.36C464.906 199.897 465.334 199.523 465.834 199.271C466.334 199.019 466.89 198.898 467.45 198.92C469.45 198.92 470.45 199.92 470.45 202.04V208.04H469V202.13C469.038 201.612 468.881 201.098 468.56 200.69C468.357 200.517 468.122 200.386 467.867 200.305C467.613 200.225 467.346 200.196 467.08 200.22C466.556 200.198 466.044 200.383 465.655 200.734C465.266 201.086 465.031 201.576 465 202.1V208H463.46V202.13C463.501 201.868 463.481 201.6 463.4 201.347C463.32 201.094 463.181 200.864 462.995 200.675C462.81 200.485 462.582 200.342 462.331 200.256C462.08 200.17 461.813 200.144 461.55 200.18C461.114 200.138 460.676 200.241 460.304 200.472C459.932 200.703 459.646 201.05 459.49 201.46V208H457.96V199L459.38 199.08Z" fill="black"/>
<path d="M362.1 103.33H358V100.92H369.14V103.33H365.05V113.71H362.05L362.1 103.33Z" fill="#C02134"/>
<path d="M380.64 111.33V113.71H370.74V100.92H380.4V103.3H373.68V106.07H379.61V108.37H373.68V111.37L380.64 111.33Z" fill="#C02134"/>
<path d="M391.41 111H385.48L384.34 113.74H381.34L387.04 100.95H389.96L395.68 113.74H392.57L391.41 111ZM390.48 108.75L388.48 103.86L386.48 108.75H390.48Z" fill="#C02134"/>
<path d="M399.38 113.08C398.352 112.536 397.494 111.72 396.9 110.72C396.304 109.684 395.991 108.51 395.991 107.315C395.991 106.12 396.304 104.946 396.9 103.91C397.494 102.911 398.352 102.094 399.38 101.55C400.391 101.039 401.5 100.751 402.632 100.706C403.764 100.662 404.892 100.861 405.94 101.29C406.811 101.666 407.582 102.242 408.19 102.97L406.29 104.72C405.903 104.244 405.413 103.861 404.857 103.601C404.301 103.342 403.694 103.211 403.08 103.22C402.341 103.21 401.611 103.389 400.96 103.74C400.351 104.083 399.849 104.588 399.51 105.2C399.168 105.853 398.99 106.578 398.99 107.315C398.99 108.052 399.168 108.777 399.51 109.43C399.849 110.042 400.351 110.547 400.96 110.89C401.611 111.241 402.341 111.42 403.08 111.41C403.695 111.417 404.304 111.284 404.861 111.021C405.417 110.757 405.906 110.371 406.29 109.89L408.19 111.64C407.587 112.383 406.811 112.966 405.93 113.34C404.981 113.74 403.96 113.941 402.93 113.93C401.694 113.947 400.474 113.655 399.38 113.08Z" fill="#C02134"/>
<path d="M421.91 100.92V113.71H418.91V108.47H413.1V113.71H410.1V100.92H413.1V105.92H419V100.92H421.91Z" fill="#C02134"/>
<path d="M434.84 111.33V113.71H424.94V100.92H434.6V103.3H427.88V106.07H433.82V108.37H427.88V111.37L434.84 111.33Z" fill="#C02134"/>
<path d="M445.34 113.71L442.87 110.15H440.15V113.71H437.15V100.92H442.69C443.703 100.897 444.709 101.091 445.64 101.49C446.22 101.766 446.735 102.161 447.152 102.65C447.568 103.139 447.877 103.711 448.057 104.327C448.237 104.944 448.285 105.591 448.198 106.228C448.111 106.864 447.89 107.475 447.55 108.02C447.074 108.727 446.399 109.277 445.61 109.6L448.48 113.71H445.34ZM444.59 103.91C444.009 103.494 443.303 103.289 442.59 103.33H440.18V107.79H442.59C443.304 107.835 444.011 107.63 444.59 107.21C444.825 107.007 445.01 106.753 445.13 106.466C445.249 106.18 445.301 105.869 445.28 105.56C445.301 105.25 445.249 104.94 445.13 104.653C445.01 104.367 444.825 104.112 444.59 103.91V103.91Z" fill="#C02134"/>
<path d="M451.89 113.51C451.071 113.299 450.299 112.94 449.61 112.45L450.61 110.22C451.203 110.654 451.861 110.991 452.56 111.22C453.29 111.456 454.052 111.578 454.82 111.58C455.465 111.625 456.11 111.497 456.69 111.21C456.871 111.114 457.023 110.97 457.129 110.794C457.235 110.617 457.29 110.416 457.29 110.21C457.289 110.065 457.256 109.922 457.194 109.79C457.131 109.659 457.041 109.543 456.93 109.45C456.661 109.231 456.352 109.068 456.02 108.97C455.65 108.85 455.15 108.71 454.51 108.57C453.699 108.389 452.9 108.156 452.12 107.87C451.502 107.64 450.952 107.259 450.52 106.76C450.065 106.195 449.831 105.485 449.86 104.76C449.855 104.048 450.064 103.352 450.46 102.76C450.914 102.113 451.546 101.613 452.28 101.32C453.233 100.939 454.254 100.759 455.28 100.79C456.089 100.789 456.896 100.89 457.68 101.09C458.388 101.26 459.063 101.544 459.68 101.93L458.77 104.17C457.698 103.532 456.477 103.187 455.23 103.17C454.591 103.124 453.952 103.263 453.39 103.57C453.209 103.682 453.06 103.837 452.956 104.023C452.853 104.209 452.799 104.418 452.8 104.63C452.788 104.848 452.849 105.064 452.972 105.245C453.094 105.425 453.273 105.561 453.48 105.63C454.155 105.906 454.855 106.117 455.57 106.26C456.383 106.442 457.185 106.672 457.97 106.95C458.584 107.178 459.131 107.556 459.56 108.05C460.026 108.609 460.266 109.323 460.23 110.05C460.237 110.764 460.024 111.462 459.62 112.05C459.158 112.698 458.519 113.198 457.78 113.49C456.827 113.871 455.806 114.051 454.78 114.02C453.797 113.99 452.824 113.818 451.89 113.51V113.51Z" fill="#C02134"/>
<path d="M348.18 63.2401C349.935 64.0735 351.426 65.3745 352.49 67.0001C353.567 68.6925 354.12 70.6648 354.08 72.6701C354.125 74.8319 353.519 76.9573 352.34 78.7701C351.166 80.5173 349.528 81.9025 347.61 82.7701C345.519 83.7299 343.241 84.2116 340.94 84.1801C336.08 84.1801 332.28 82.6935 329.54 79.7201C326.8 76.7468 325.43 72.5001 325.43 66.9801C325.331 63.4781 326.097 60.0057 327.66 56.8701C329.043 54.1629 331.211 51.9359 333.88 50.4801C336.724 48.9787 339.905 48.2283 343.12 48.3001C344.915 48.2919 346.704 48.4966 348.45 48.9101C349.983 49.2574 351.449 49.8518 352.79 50.6701L349.79 56.5701C347.849 55.3565 345.588 54.7538 343.3 54.8401C342.019 54.7726 340.738 54.9666 339.535 55.4101C338.331 55.8537 337.231 56.5376 336.3 57.4201C334.58 59.1301 333.66 61.6301 333.52 64.9001C335.567 62.8535 338.427 61.8301 342.1 61.8301C344.209 61.8173 346.292 62.3002 348.18 63.2401V63.2401ZM344.68 76.8701C345.216 76.4041 345.639 75.8229 345.918 75.1699C346.197 74.517 346.324 73.8093 346.29 73.1001C346.323 72.3882 346.195 71.678 345.916 71.022C345.637 70.366 345.215 69.781 344.68 69.3101C343.478 68.3251 341.952 67.8225 340.4 67.9001C338.829 67.8332 337.289 68.3537 336.08 69.3601C335.552 69.8256 335.127 70.3975 334.835 71.0384C334.543 71.6793 334.389 72.3746 334.385 73.0789C334.38 73.7832 334.524 74.4806 334.808 75.1253C335.091 75.77 335.508 76.3476 336.03 76.8201C337.287 77.8363 338.876 78.3495 340.49 78.2601C342.01 78.3256 343.501 77.831 344.68 76.8701V76.8701Z" fill="#C02134"/>
<path d="M365.53 75.7502C365.977 76.203 366.326 76.7431 366.554 77.3367C366.783 77.9302 366.887 78.5646 366.86 79.2002C366.861 79.8741 366.78 80.5456 366.62 81.2002C366.326 82.2239 365.961 83.2263 365.53 84.2002L362.7 91.3402H357.79L360 83.4102C359.177 83.104 358.475 82.5391 358 81.8002C357.51 81.023 357.26 80.1187 357.28 79.2002C357.254 78.5621 357.361 77.9255 357.595 77.3314C357.829 76.7372 358.185 76.1986 358.64 75.7502C359.1 75.315 359.642 74.9752 360.234 74.7504C360.826 74.5256 361.457 74.4201 362.09 74.4402C362.722 74.417 363.352 74.521 363.943 74.746C364.534 74.9711 365.074 75.3125 365.53 75.7502V75.7502Z" fill="#C02134"/>
<path d="M393.21 64.92C394.353 65.87 395.263 67.0703 395.868 68.4281C396.473 69.7858 396.758 71.2646 396.7 72.75C396.725 74.7866 396.178 76.7894 395.12 78.53C393.95 80.3579 392.271 81.8039 390.29 82.69C387.773 83.7999 385.04 84.3329 382.29 84.25C379.853 84.2387 377.428 83.9024 375.08 83.25C372.932 82.6988 370.9 81.7674 369.08 80.5L372.25 74.35C373.627 75.3717 375.17 76.1496 376.81 76.65C378.523 77.1978 380.311 77.4745 382.11 77.47C383.781 77.5646 385.441 77.1496 386.87 76.28C387.411 75.9242 387.852 75.4361 388.151 74.8621C388.45 74.2881 388.598 73.6471 388.58 73C388.61 72.3274 388.457 71.6592 388.139 71.0661C387.82 70.4729 387.347 69.9768 386.77 69.63C385.563 68.87 383.473 68.49 380.5 68.49H371.62L373.41 49H394.57V55.4H380.1L379.55 62H382.38C387.273 62 390.883 62.9733 393.21 64.92Z" fill="#C02134"/>
<path d="M407.16 82.1201C404.85 80.6282 403.017 78.5039 401.88 76.0001C400.542 72.9667 399.893 69.6744 399.98 66.3601C399.893 63.0458 400.542 59.7535 401.88 56.7201C403.006 54.1961 404.84 52.0529 407.16 50.5501C408.881 49.4399 410.822 48.7158 412.85 48.4274C414.877 48.139 416.943 48.2933 418.906 48.8796C420.868 49.466 422.68 50.4704 424.217 51.8239C425.754 53.1774 426.98 54.8477 427.81 56.7201C429.151 59.7527 429.804 63.0451 429.72 66.3601C429.804 69.6751 429.151 72.9675 427.81 76.0001C426.684 78.5244 424.85 80.6678 422.53 82.1701C420.209 83.5637 417.552 84.2999 414.845 84.2999C412.137 84.2999 409.481 83.5637 407.16 82.1701V82.1201ZM419.83 74.7401C421.03 72.9201 421.64 70.1101 421.64 66.3101C421.64 62.5101 421.03 59.7001 419.83 57.8801C419.299 57.0459 418.566 56.3591 417.699 55.8833C416.832 55.4075 415.859 55.1581 414.87 55.1581C413.881 55.1581 412.908 55.4075 412.041 55.8833C411.174 56.3591 410.441 57.0459 409.91 57.8801C408.71 59.7001 408.1 62.5101 408.1 66.3101C408.1 70.1101 408.71 72.9201 409.91 74.7401C410.441 75.5743 411.174 76.2611 412.041 76.7369C412.908 77.2127 413.881 77.4621 414.87 77.4621C415.859 77.4621 416.832 77.2127 417.699 76.7369C418.566 76.2611 419.299 75.5743 419.83 74.7401V74.7401Z" fill="#C02134"/>
<path d="M440.82 82.1198C438.507 80.6309 436.674 78.5057 435.54 75.9998C434.199 72.9672 433.546 69.6748 433.63 66.3598C433.546 63.0448 434.199 59.7524 435.54 56.7198C436.652 54.2092 438.469 52.0754 440.771 50.5777C443.072 49.08 445.759 48.2827 448.505 48.2827C451.251 48.2827 453.938 49.08 456.239 50.5777C458.541 52.0754 460.358 54.2092 461.47 56.7198C462.808 59.7532 463.457 63.0455 463.37 66.3598C463.457 69.6741 462.808 72.9664 461.47 75.9998C460.338 78.5201 458.505 80.6618 456.19 82.1698C453.869 83.5634 451.212 84.2996 448.505 84.2996C445.798 84.2996 443.141 83.5634 440.82 82.1698V82.1198ZM453.48 74.7398C454.687 72.9198 455.29 70.1098 455.29 66.3098C455.29 62.5098 454.687 59.6998 453.48 57.8798C452.95 57.0455 452.218 56.3585 451.352 55.8825C450.486 55.4066 449.513 55.157 448.525 55.157C447.537 55.157 446.564 55.4066 445.698 55.8825C444.832 56.3585 444.1 57.0455 443.57 57.8798C442.363 59.6998 441.76 62.5098 441.76 66.3098C441.76 70.1098 442.363 72.9198 443.57 74.7398C444.1 75.5741 444.832 76.2611 445.698 76.737C446.564 77.213 447.537 77.4626 448.525 77.4626C449.513 77.4626 450.486 77.213 451.352 76.737C452.218 76.2611 452.95 75.5741 453.48 74.7398V74.7398Z" fill="#C02134"/>
<path d="M492.22 69.3299H483.6V77.7599H477.2V69.3299H468.63V63.3299H477.2V54.8599H483.6V63.2899H492.22V69.3299Z" fill="#C02134"/>
<path d="M240.494 125.004L126.091 10.6016L11.688 125.004L126.091 239.407L240.494 125.004Z" fill="#C02134"/>
<g opacity="0.15">
<path d="M126.1 227.77L23.3301 125L126.1 22.23L228.86 125L126.1 227.77ZM26.5101 125L126.1 224.59L225.69 125L126.1 25.41L26.5101 125ZM126.1 214.71L91.8001 180.41L118 154.18L92.6001 128.76L74.6001 146.76L86.5201 158.68L91.4601 153.74L84.4601 146.74L92.6201 138.57L108.17 154.12L86.8601 175.47L56.8601 145.47L77.3701 125L56.8801 104.51L86.8801 74.51L108.17 95.8L92.6001 111.37L84.4401 103.2L91.4401 96.2L86.5001 91.26L74.5601 103.2L92.5601 121.2L118 95.82L91.8001 69.59L126.1 35.29L160.4 69.59L134.17 95.82L159.6 121.24L177.6 103.24L165.72 91.28L160.78 96.22L167.78 103.22L159.62 111.39L144.05 95.82L165.34 74.53L195.34 104.53L174.83 125L195.32 145.49L165.32 175.49L144.03 154.2L159.58 138.65L167.74 146.82L160.74 153.82L165.68 158.76L177.6 146.84L159.6 128.84L134.17 154.26L160.4 180.49L126.1 214.71ZM95.0001 180.41L126.12 211.54L157.24 180.41L131 154.18L159.61 125.58L180.83 146.8L165.73 161.9L157.62 153.78L164.62 146.78L159.62 141.78L147.24 154.15L165.36 172.27L192.17 145.46L171.66 125L192.15 104.51L165.34 77.7L147.22 95.82L159.6 108.19L164.6 103.19L157.6 96.19L165.71 88.07L180.81 103.17L159.6 124.42L131 95.82L157.23 69.59L126.1 38.46L95.0001 69.59L121.23 95.82L92.6001 124.42L71.3801 103.2L86.4801 88.1L94.5901 96.22L87.5901 103.22L92.5901 108.22L105 95.82L86.8601 77.7L60.0501 104.51L80.5401 125L60.0501 145.49L86.8601 172.3L105 154.18L92.6001 141.81L87.6001 146.81L94.6001 153.81L86.4901 161.92L71.3801 146.8L92.6001 125.58L121.21 154.18L95.0001 180.41ZM200.28 140.55L184.71 125L200.26 109.45L215.81 125L200.28 140.55ZM187.89 125L200.26 137.38L212.64 125L200.26 112.62L187.89 125ZM51.9401 140.55L36.3901 125L51.9401 109.45L67.4901 125L51.9401 140.55ZM39.5601 125L51.9401 137.37L64.3101 125L51.9401 112.62L39.5601 125Z" fill="white"/>
<path d="M126.1 204.12L102 180.05L126.1 156L150.16 180.06L126.1 204.12ZM105.21 180.05L126.1 200.94L147 180.05L126.1 159.17L105.21 180.05Z" fill="white"/>
<path d="M126.1 93.3402L102 69.2802L126.1 45.2202L150.16 69.2802L126.1 93.3402ZM105.21 69.2802L126.1 90.1702L147 69.2802L126.1 48.3902L105.21 69.2802Z" fill="white"/>
</g>
<path d="M12.28 125L126.21 238.94H528.37L642.3 125L528.37 11.0601H126.21L12.28 125Z" stroke="#C02134" stroke-width="2.6" stroke-miterlimit="10"/>
<path d="M113.73 129H106.33V125.7C109.019 124.573 111.328 122.698 112.984 120.298C114.639 117.898 115.572 115.074 115.67 112.16C116.739 112.039 117.752 111.615 118.587 110.936C119.423 110.258 120.046 109.355 120.384 108.333C120.722 107.311 120.759 106.214 120.493 105.171C120.226 104.129 119.667 103.184 118.88 102.45C119.09 101.45 119.08 99.4501 118.56 94.9901C117.48 85.9301 108.56 84.9901 108.49 84.9901H93.0001C86.6301 84.9901 84.3901 82.4601 84.3801 82.4401L82.6701 80.3301V102C81.7562 102.671 81.0656 103.601 80.6883 104.67C80.311 105.739 80.2645 106.896 80.5549 107.992C80.8453 109.088 81.4591 110.071 82.3162 110.812C83.1734 111.554 84.2341 112.02 85.3601 112.15C85.4587 115.064 86.391 117.888 88.0465 120.288C89.702 122.688 92.0112 124.563 94.7001 125.69V129H87.3001C84.4021 129.003 81.6236 130.155 79.5744 132.204C77.5252 134.254 76.3728 137.032 76.3701 139.93V153.93H124.68V139.93C124.679 138.493 124.395 137.071 123.844 135.744C123.293 134.417 122.486 133.212 121.469 132.197C120.452 131.182 119.245 130.378 117.917 129.829C116.59 129.28 115.167 128.999 113.73 129V129ZM115.73 102.86C116.595 103.017 117.377 103.472 117.94 104.146C118.503 104.821 118.812 105.671 118.812 106.55C118.812 107.429 118.503 108.28 117.94 108.954C117.377 109.628 116.595 110.084 115.73 110.24V102.86ZM117.13 101.27C117.07 101.27 116.97 101.27 116.9 101.21C116.83 101.15 116.5 101.1 116.3 101.05C116.113 100.99 115.923 100.939 115.73 100.9V97.4001V97.3201L115.19 97.1101L114.63 96.8001C114.2 96.563 113.792 96.2886 113.41 95.9801L113.24 95.8401C112.976 95.6175 112.738 95.3659 112.53 95.0901C112.188 94.6199 111.912 94.1051 111.71 93.5601C111.71 93.5601 111.65 93.3801 111.49 92.9601L110.72 90.8201L109.72 92.8201C108.08 96.2201 104.56 97.6101 100.72 98.0201L100 98.0801H99.8301C95.3545 98.1443 90.8917 97.5857 86.5701 96.4201L85.3501 96.0301V100.89C85.0896 100.928 84.8322 100.984 84.5801 101.06V85.0001C87.1555 86.4128 90.0646 87.1038 93.0001 87.0001H108.43C110.548 87.2197 112.526 88.1634 114.029 89.6719C115.532 91.1804 116.468 93.1612 116.68 95.2801C116.95 97.2686 117.084 99.2733 117.08 101.28L117.13 101.27ZM87.3001 102.6V98.6001C90.3359 99.3988 93.4454 99.8846 96.5801 100.05C101.78 100.3 105.84 99.2701 108.58 97.1301C108.77 96.9801 108.96 96.8301 109.13 96.6801L109.41 96.4401C109.777 96.0905 110.111 95.709 110.41 95.3001C110.578 95.5995 110.762 95.8899 110.96 96.1701C111.249 96.5718 111.585 96.9377 111.96 97.2601L112.13 97.4001C112.28 97.5201 112.45 97.6001 112.6 97.7101C112.963 98.0125 113.351 98.2835 113.76 98.5201V111.66C113.809 113.431 113.502 115.194 112.858 116.845C112.213 118.496 111.245 120.001 110.009 121.271C108.774 122.541 107.296 123.55 105.663 124.24C104.031 124.929 102.277 125.284 100.505 125.284C98.7331 125.284 96.9791 124.929 95.3467 124.24C93.7143 123.55 92.2367 122.541 91.001 121.271C89.7654 120.001 88.7968 118.496 88.1526 116.845C87.5083 115.194 87.2015 113.431 87.2501 111.66L87.3001 102.6ZM85.3801 103.06V110.24C84.6303 110.117 83.9358 109.769 83.389 109.241C82.8422 108.713 82.469 108.032 82.3192 107.287C82.1694 106.542 82.2499 105.769 82.5502 105.071C82.8505 104.373 83.3562 103.783 84.0001 103.38L85.3801 103.06ZM96.6401 126.34C99.2004 127.06 101.91 127.06 104.47 126.34V129H96.5901L96.6401 126.34ZM86.9601 135.92L90.5601 131.29L92.0001 136.43L86.9601 135.92ZM109.1 136.42L110.55 131.29L114.15 135.92L109.1 136.42ZM105.8 148.08L108.5 138.52L112.12 142.41L105.8 148.08ZM108.32 130.92C107.458 132.186 106.299 133.223 104.945 133.939C103.591 134.655 102.082 135.03 100.55 135.03C99.0181 135.03 97.5094 134.655 96.1552 133.939C94.8009 133.223 93.6423 132.186 92.7801 130.92H108.32ZM88.9401 142.42L92.5601 138.53L95.2601 148.09L88.9401 142.42ZM78.2601 152.05V139.94C78.2601 137.553 79.2083 135.264 80.8962 133.576C82.584 131.888 84.8732 130.94 87.2601 130.94H88.3601L83.2501 137.51L90.2501 138.19L86.1901 142.55L96.7901 152.06L78.2601 152.05ZM100.33 137H100.68C103.194 137.038 105.641 136.188 107.59 134.6L102.59 152.09H98.3701L93.3701 134.6C95.3328 136.199 97.7991 137.049 100.33 137V137ZM114.8 142.58L110.8 138.22L117.8 137.54L112.7 130.97H113.79C116.177 130.97 118.466 131.918 120.154 133.606C121.842 135.294 122.79 137.583 122.79 139.97V152.08H104.2L114.8 142.58Z" fill="white"/>
<path d="M99.1001 110H101.91C102.148 111.22 102.831 112.308 103.827 113.052C104.823 113.795 106.06 114.141 107.298 114.022C108.535 113.903 109.684 113.327 110.519 112.407C111.355 111.486 111.818 110.288 111.818 109.045C111.818 107.802 111.355 106.603 110.519 105.683C109.684 104.763 108.535 104.187 107.298 104.068C106.06 103.949 104.823 104.295 103.827 105.038C102.831 105.782 102.148 106.87 101.91 108.09H99.1001C98.8627 106.87 98.1793 105.782 97.1832 105.038C96.1871 104.295 94.9497 103.949 93.7124 104.068C92.4751 104.187 91.3266 104.763 90.4909 105.683C89.6552 106.603 89.1921 107.802 89.1921 109.045C89.1921 110.288 89.6552 111.486 90.4909 112.407C91.3266 113.327 92.4751 113.903 93.7124 114.022C94.9497 114.141 96.1871 113.795 97.1832 113.052C98.1793 112.308 98.8627 111.22 99.1001 110V110ZM91.0001 109C90.9981 108.38 91.1803 107.773 91.5234 107.257C91.8666 106.741 92.3553 106.338 92.9277 106.1C93.5 105.862 94.1302 105.799 94.7383 105.92C95.3463 106.04 95.905 106.338 96.3433 106.777C96.7817 107.215 97.08 107.774 97.2004 108.382C97.3209 108.99 97.258 109.62 97.0199 110.192C96.7818 110.765 96.379 111.253 95.8628 111.597C95.3465 111.94 94.74 112.122 94.1201 112.12C93.2934 112.117 92.5014 111.788 91.9168 111.203C91.3323 110.619 91.0027 109.827 91.0001 109ZM103.7 109C103.698 108.38 103.88 107.773 104.223 107.257C104.567 106.741 105.055 106.338 105.628 106.1C106.2 105.862 106.83 105.799 107.438 105.92C108.046 106.04 108.605 106.338 109.043 106.777C109.482 107.215 109.78 107.774 109.9 108.382C110.021 108.99 109.958 109.62 109.72 110.192C109.482 110.765 109.079 111.253 108.563 111.597C108.047 111.94 107.44 112.122 106.82 112.12C105.999 112.109 105.214 111.776 104.636 111.193C104.058 110.609 103.733 109.821 103.73 109H103.7Z" fill="white"/>
<path d="M100.9 120.37C100.896 120.513 100.851 120.652 100.77 120.77C100.691 120.824 100.595 120.849 100.5 120.84C100.24 120.84 100.11 120.64 100.11 120.25V118.25H98.19V120.25C98.1871 120.948 98.4437 121.621 98.91 122.14C99.3469 122.548 99.9223 122.774 100.52 122.774C101.118 122.774 101.693 122.548 102.13 122.14C102.565 121.66 102.811 121.038 102.82 120.39V118.29H100.9V120.37Z" fill="white"/>
<path d="M164.7 129H157.3V125.7C159.003 124.988 160.562 123.972 161.9 122.7C162.822 123.623 164.012 124.232 165.3 124.44C165.737 124.537 166.183 124.584 166.63 124.58C168.16 124.58 170.87 123.99 171.81 120C171.982 119.345 172.017 118.662 171.914 117.993C171.811 117.324 171.571 116.683 171.21 116.11C170.055 114.575 168.417 113.472 166.56 112.98C166.56 112.71 166.63 112.46 166.64 112.19C167.878 112.055 169.036 111.511 169.932 110.646C170.828 109.781 171.412 108.642 171.59 107.409C171.769 106.176 171.533 104.919 170.919 103.835C170.305 102.751 169.349 101.902 168.2 101.42V101.42L169.13 93.9901V93.8901C169.13 90.4423 167.76 87.1357 165.322 84.6977C162.884 82.2598 159.578 80.8901 156.13 80.8901H147.43C143.982 80.8901 140.676 82.2598 138.238 84.6977C135.8 87.1357 134.43 90.4423 134.43 93.8901L134.75 101.38C133.604 101.865 132.65 102.716 132.039 103.8C131.427 104.884 131.192 106.14 131.37 107.372C131.549 108.604 132.13 109.742 133.024 110.608C133.918 111.475 135.073 112.02 136.31 112.16C136.31 112.3 136.31 112.44 136.31 112.58C135.116 112.621 133.962 113.022 133 113.73C132 114.41 128.74 116.97 131.53 121.47C131.87 122.059 132.328 122.57 132.875 122.973C133.422 123.376 134.047 123.661 134.71 123.81C135.108 123.892 135.514 123.932 135.92 123.93C137.628 123.847 139.286 123.33 140.74 122.43C142.135 123.82 143.785 124.927 145.6 125.69V129H138.21C135.312 129.003 132.533 130.155 130.484 132.204C128.435 134.254 127.283 137.032 127.28 139.93V153.93H175.59V139.93C175.587 137.039 174.441 134.267 172.4 132.218C170.359 130.17 167.591 129.013 164.7 129ZM135.16 122C134.743 121.908 134.349 121.729 134.005 121.476C133.66 121.223 133.373 120.901 133.16 120.53C131.49 117.84 132.74 116.24 134.1 115.35C134.808 114.84 135.657 114.56 136.53 114.55C136.974 116.909 137.975 119.127 139.45 121.02C138.163 121.799 136.658 122.143 135.16 122V122ZM136.3 102.92V110.3C135.435 110.144 134.653 109.688 134.09 109.014C133.527 108.34 133.218 107.489 133.218 106.61C133.218 105.731 133.527 104.881 134.09 104.206C134.653 103.532 135.435 103.077 136.3 102.92ZM169.6 117.17C169.823 117.527 169.969 117.927 170.028 118.344C170.086 118.761 170.056 119.185 169.94 119.59C169.22 122.67 167.21 122.93 165.62 122.59C164.701 122.436 163.857 121.991 163.21 121.32C164.729 119.466 165.782 117.275 166.28 114.93C167.591 115.29 168.754 116.057 169.6 117.12V117.17ZM138.21 102.38V98.5801L138.32 98.5201C138.86 98.2357 139.373 97.9009 139.85 97.5201L140.02 97.3801C140.393 97.0554 140.729 96.6898 141.02 96.2901C141.218 96.01 141.402 95.7196 141.57 95.4201C144.13 98.8301 148.91 100.47 155.42 100.17C158.555 100.004 161.664 99.5181 164.7 98.7201V111.78C164.7 115.297 163.303 118.67 160.816 121.156C158.33 123.643 154.957 125.04 151.44 125.04C147.923 125.04 144.551 123.643 142.064 121.156C139.577 118.67 138.18 115.297 138.18 111.78L138.21 102.38ZM136.35 93.8801C136.35 90.938 137.518 88.1161 139.598 86.0348C141.677 83.9534 144.498 82.7828 147.44 82.7801H156.14C159.064 82.7853 161.868 83.943 163.944 86.0022C166.021 88.0615 167.201 90.8561 167.23 93.7801L166.65 98.4601V96.0801L165.4 96.4701C165.22 96.5301 146.79 102.14 142.31 92.8601L141.31 90.8601L140.55 93.0001C140.38 93.4601 140.33 93.5901 140.31 93.6301C140.114 94.1669 139.842 94.6722 139.5 95.1301C139.299 95.4081 139.063 95.66 138.8 95.8801L138.63 96.0201C138.248 96.3286 137.84 96.603 137.41 96.8401L136.49 97.3401L136.35 93.8801ZM155.35 129.06H147.52V126.4C150.08 127.12 152.79 127.12 155.35 126.4V129V129.06ZM166.61 110.3V102.92C167.475 103.077 168.257 103.532 168.82 104.206C169.383 104.881 169.692 105.731 169.692 106.61C169.692 107.489 169.383 108.34 168.82 109.014C168.257 109.688 167.475 110.144 166.61 110.3ZM137.84 135.98L141.44 131.35L142.89 136.48L137.84 135.98ZM159.98 136.48L161.43 131.35L165.03 135.98L159.98 136.48ZM156.68 148.14L159.38 138.58L163 142.47L156.68 148.14ZM151.48 135C149.948 134.993 148.44 134.616 147.086 133.9C145.731 133.185 144.569 132.152 143.7 130.89H159.24C158.377 132.153 157.22 133.187 155.868 133.904C154.516 134.62 153.01 134.996 151.48 135V135ZM139.91 142.38L143.52 138.49L146.23 148.05L139.91 142.38ZM129.23 152.01V139.94C129.23 137.553 130.178 135.264 131.866 133.576C133.554 131.888 135.843 130.94 138.23 130.94H139.32L134.22 137.51L141.22 138.19L137.22 142.55L147.82 152.06L129.23 152.01ZM151.3 137H151.65C154.164 137.038 156.611 136.188 158.56 134.6L153.61 152.09H149.34L144.34 134.6C146.303 136.199 148.769 137.049 151.3 137V137ZM165.76 142.58L161.76 138.22L168.76 137.54L163.66 130.97H164.76C167.147 130.97 169.436 131.918 171.124 133.606C172.812 135.294 173.76 137.583 173.76 139.97V152.08H155.17L165.76 142.58Z" fill="white"/>
<path d="M150.07 110H152.88C153.117 111.22 153.801 112.308 154.797 113.052C155.793 113.795 157.03 114.141 158.268 114.022C159.505 113.903 160.654 113.327 161.489 112.407C162.325 111.486 162.788 110.288 162.788 109.045C162.788 107.802 162.325 106.603 161.489 105.683C160.654 104.763 159.505 104.187 158.268 104.068C157.03 103.949 155.793 104.295 154.797 105.038C153.801 105.782 153.117 106.87 152.88 108.09H150.07C149.833 106.87 149.149 105.782 148.153 105.038C147.157 104.295 145.92 103.949 144.682 104.068C143.445 104.187 142.297 104.763 141.461 105.683C140.625 106.603 140.162 107.802 140.162 109.045C140.162 110.288 140.625 111.486 141.461 112.407C142.297 113.327 143.445 113.903 144.682 114.022C145.92 114.141 147.157 113.795 148.153 113.052C149.149 112.308 149.833 111.22 150.07 110V110ZM148.25 109C148.25 109.619 148.066 110.224 147.723 110.739C147.379 111.254 146.89 111.655 146.318 111.892C145.746 112.129 145.117 112.191 144.509 112.07C143.902 111.949 143.345 111.651 142.907 111.213C142.469 110.775 142.171 110.218 142.05 109.611C141.929 109.003 141.991 108.374 142.228 107.802C142.465 107.23 142.866 106.741 143.381 106.397C143.896 106.053 144.501 105.87 145.12 105.87C145.95 105.87 146.746 106.2 147.333 106.787C147.92 107.374 148.25 108.17 148.25 109ZM154.7 109C154.698 108.38 154.88 107.773 155.223 107.257C155.567 106.741 156.055 106.338 156.628 106.1C157.2 105.862 157.83 105.799 158.438 105.92C159.046 106.04 159.605 106.338 160.043 106.777C160.482 107.215 160.78 107.774 160.9 108.382C161.021 108.99 160.958 109.62 160.72 110.192C160.482 110.765 160.079 111.253 159.563 111.597C159.046 111.94 158.44 112.122 157.82 112.12C156.993 112.117 156.201 111.788 155.617 111.203C155.032 110.619 154.703 109.827 154.7 109Z" fill="white"/>
<path d="M151.87 120.25C151.87 120.52 151.8 120.84 151.48 120.84C151.384 120.852 151.288 120.827 151.21 120.77C151.129 120.652 151.084 120.513 151.08 120.37V118.26H149.16V120.36C149.158 121.01 149.405 121.636 149.85 122.11C150.287 122.518 150.862 122.744 151.46 122.744C152.058 122.744 152.633 122.518 153.07 122.11C153.538 121.597 153.792 120.924 153.78 120.23V118.23H151.87V120.25Z" fill="white"/>
</svg>
