<svg id="Layer_1" data-name="Layer 1" xmlns="http://www.w3.org/2000/svg" viewBox="0 0 654 250"><defs><style>.cls-1{fill:#e2243e;stroke:#e2243e;stroke-miterlimit:10;}.cls-2{fill:#fff;}.cls-3{fill:#e2243c;}.cls-4{opacity:0.15;}</style></defs><polygon class="cls-1" points="12.28 125 126.21 238.94 528.37 238.94 642.3 125 528.37 11.06 126.21 11.06 12.28 125"/><path class="cls-2" d="M286.14,101.26l0-7.67-3.76,6.31H281l-3.74-6.15v7.51H274.5V88.47H277l4.79,8,4.71-8h2.43l0,12.79Z"/><path class="cls-2" d="M292,88.47h2.95v12.79H292Z"/><path class="cls-2" d="M300.52,100.63A6.42,6.42,0,0,1,298,98.27a6.89,6.89,0,0,1,0-6.81,6.42,6.42,0,0,1,2.49-2.36,7.88,7.88,0,0,1,6.55-.26,6,6,0,0,1,2.26,1.68l-1.9,1.75a4.08,4.08,0,0,0-3.21-1.5,4.35,4.35,0,0,0-2.12.52,3.7,3.7,0,0,0-1.45,1.46,4.56,4.56,0,0,0,0,4.23,3.7,3.7,0,0,0,1.45,1.46,4.35,4.35,0,0,0,2.12.52,4.07,4.07,0,0,0,3.21-1.52l1.9,1.75a5.86,5.86,0,0,1-2.26,1.7,7.57,7.57,0,0,1-3,.59A7.4,7.4,0,0,1,300.52,100.63Z"/><path class="cls-2" d="M319.47,101.26,317,97.7h-2.72v3.56h-3V88.47h5.53a7,7,0,0,1,2.95.57,4.34,4.34,0,0,1,1.93,1.61,4.4,4.4,0,0,1,.68,2.46,4.18,4.18,0,0,1-2.63,4l2.86,4.11Zm-.75-9.8a3.15,3.15,0,0,0-2-.58h-2.41v4.46h2.41a3.15,3.15,0,0,0,2-.58,2,2,0,0,0,.69-1.65A2,2,0,0,0,318.72,91.46Z"/><path class="cls-2" d="M327.35,100.62a6.37,6.37,0,0,1-2.51-2.37,6.82,6.82,0,0,1,0-6.77,6.37,6.37,0,0,1,2.51-2.37,7.88,7.88,0,0,1,7.16,0,6.52,6.52,0,0,1,0,11.51,7.88,7.88,0,0,1-7.16,0ZM333,98.44A3.72,3.72,0,0,0,334.41,97a4.56,4.56,0,0,0,0-4.23A3.72,3.72,0,0,0,333,91.29a4.28,4.28,0,0,0-4.09,0,3.81,3.81,0,0,0-1.44,1.46,4.56,4.56,0,0,0,0,4.23,3.81,3.81,0,0,0,1.44,1.46,4.28,4.28,0,0,0,4.09,0Z"/><path class="cls-2" d="M353.74,98.52h-5.93l-1.13,2.74h-3l5.7-12.79h2.92L358,101.26h-3.1Zm-.93-2.25-2-4.89-2,4.89Z"/><path class="cls-2" d="M371,88.47v12.79h-2.43l-6.37-7.76v7.76h-2.93V88.47h2.45l6.36,7.76V88.47Z"/><path class="cls-2" d="M374.07,88.47h5.81a8.2,8.2,0,0,1,3.68.8A6,6,0,0,1,386,91.5a6.79,6.79,0,0,1,0,6.72,5.92,5.92,0,0,1-2.48,2.24,8.2,8.2,0,0,1-3.68.8h-5.81Zm5.66,10.36a4.31,4.31,0,0,0,3.06-1.07,4.25,4.25,0,0,0,0-5.79,4.31,4.31,0,0,0-3.06-1.07H377v7.93Z"/><path class="cls-2" d="M395.59,101.06a7,7,0,0,1-2.27-1.06l1-2.23a7,7,0,0,0,2,1,7.36,7.36,0,0,0,2.26.36,3.6,3.6,0,0,0,1.86-.37,1.14,1.14,0,0,0,.61-1,1,1,0,0,0-.36-.76,2.7,2.7,0,0,0-.91-.48c-.38-.12-.88-.26-1.51-.4a19,19,0,0,1-2.39-.7,3.86,3.86,0,0,1-1.6-1.11,3,3,0,0,1-.67-2,3.49,3.49,0,0,1,.61-2A4,4,0,0,1,396,88.78a7.48,7.48,0,0,1,3-.53,9.55,9.55,0,0,1,2.39.3,6.89,6.89,0,0,1,2,.84l-.92,2.24a7.11,7.11,0,0,0-3.54-1,3.27,3.27,0,0,0-1.83.4,1.23,1.23,0,0,0-.6,1.06,1,1,0,0,0,.69,1,11,11,0,0,0,2.09.63,21,21,0,0,1,2.39.69,4,4,0,0,1,1.6,1.1,3,3,0,0,1,.67,2,3.48,3.48,0,0,1-.62,2A4.16,4.16,0,0,1,401.5,101a7.56,7.56,0,0,1-3,.53A10.23,10.23,0,0,1,395.59,101.06Z"/><path class="cls-2" d="M417.61,101.26l0-7.67-3.77,6.31h-1.33l-3.74-6.15v7.51H406V88.47h2.45l4.78,8,4.72-8h2.43l0,12.79Z"/><path class="cls-2" d="M431.83,98.52H425.9l-1.14,2.74h-3l5.7-12.79h2.92l5.72,12.79H433Zm-.93-2.25-2-4.89-2,4.89Z"/><path class="cls-2" d="M437.4,88.47h3V98.85h6.41v2.41H437.4Z"/><path class="cls-2" d="M448.43,88.47h3V98.85h6.41v2.41h-9.37Z"/><path class="cls-2" d="M476.26,101.26l0-7.67-3.76,6.31h-1.33l-3.74-6.15v7.51h-2.78V88.47h2.45l4.78,8,4.71-8H479l0,12.79Z"/><path class="cls-2" d="M492,98.88v2.38h-9.9V88.47h9.66v2.38H485v2.77H491v2.3H485v3Z"/><path class="cls-2" d="M494.32,88.47h5.81a8.14,8.14,0,0,1,3.68.8,5.91,5.91,0,0,1,2.48,2.23,6.79,6.79,0,0,1,0,6.72,5.86,5.86,0,0,1-2.48,2.24,8.14,8.14,0,0,1-3.68.8h-5.81ZM500,98.83A4.3,4.3,0,0,0,503,97.76,4.22,4.22,0,0,0,503,92,4.3,4.3,0,0,0,500,90.9h-2.71v7.93Z"/><path class="cls-2" d="M509.41,88.47h3v12.79h-3Z"/><path class="cls-2" d="M516.81,100a5.86,5.86,0,0,1-1.52-4.33V88.47h3v7q0,3.44,2.85,3.44a2.64,2.64,0,0,0,2.11-.84,3.84,3.84,0,0,0,.74-2.6v-7h2.92v7.16A6,6,0,0,1,516.81,100Z"/><path class="cls-2" d="M541.42,101.26l0-7.67-3.76,6.31h-1.33l-3.74-6.15v7.51h-2.78V88.47h2.45l4.78,8,4.71-8h2.43l0,12.79Z"/><path class="cls-2" d="M311.39,120.8v2.37h-9.9V110.39h9.66v2.37h-6.72v2.78h5.93v2.3h-5.93v3Z"/><path class="cls-2" d="M325.47,110.39v12.78H323l-6.38-7.76v7.76h-2.92V110.39h2.45l6.35,7.76v-7.76Z"/><path class="cls-2" d="M331.15,112.8h-4.1v-2.41h11.14v2.41H334.1v10.37h-3Z"/><path class="cls-2" d="M349.68,120.8v2.37h-9.9V110.39h9.66v2.37h-6.72v2.78h5.94v2.3h-5.94v3Z"/><path class="cls-2" d="M360.18,123.17l-2.46-3.56H355v3.56h-3V110.39h5.53a7.22,7.22,0,0,1,2.95.56,4.22,4.22,0,0,1,2.6,4.08,4.37,4.37,0,0,1-.68,2.45,4.33,4.33,0,0,1-1.95,1.58l2.87,4.11Zm-.75-9.8a3.12,3.12,0,0,0-2-.57H355v4.45h2.41a3.06,3.06,0,0,0,2-.58,2.29,2.29,0,0,0,0-3.3Z"/><path class="cls-2" d="M373.94,111a4.6,4.6,0,0,1,1.93,6.53,4.28,4.28,0,0,1-1.93,1.61,7.22,7.22,0,0,1-2.95.56h-2.57v3.52h-3V110.39H371A7.22,7.22,0,0,1,373.94,111Zm-1.08,5.71a2,2,0,0,0,.69-1.63,2.05,2.05,0,0,0-.69-1.66,3.15,3.15,0,0,0-2-.57h-2.41v4.44h2.41A3.15,3.15,0,0,0,372.86,116.66Z"/><path class="cls-2" d="M386.79,123.17l-2.47-3.56H381.6v3.56h-3V110.39h5.54a7.25,7.25,0,0,1,2.95.56,4.26,4.26,0,0,1,2.6,4.08,4.3,4.3,0,0,1-.69,2.45,4.25,4.25,0,0,1-1.94,1.58l2.87,4.11Zm-.75-9.8a3.13,3.13,0,0,0-2-.57H381.6v4.45H384a3.07,3.07,0,0,0,2-.58,2.29,2.29,0,0,0,0-3.3Z"/><path class="cls-2" d="M392.07,110.39h3v12.78h-3Z"/><path class="cls-2" d="M399.33,123a6.72,6.72,0,0,1-2.28-1.07l1-2.23a6.71,6.71,0,0,0,1.95,1,7.49,7.49,0,0,0,2.27.37,3.59,3.59,0,0,0,1.86-.38,1.13,1.13,0,0,0,.6-1,.94.94,0,0,0-.36-.76,2.79,2.79,0,0,0-.91-.49c-.37-.12-.87-.25-1.51-.4a21,21,0,0,1-2.39-.69,3.86,3.86,0,0,1-1.6-1.12,3,3,0,0,1-.66-2,3.58,3.58,0,0,1,.6-2,4,4,0,0,1,1.82-1.43,7.31,7.31,0,0,1,3-.53,10.09,10.09,0,0,1,2.39.29,7.27,7.27,0,0,1,2,.84l-.91,2.25a7.12,7.12,0,0,0-3.54-1,3.42,3.42,0,0,0-1.84.4,1.25,1.25,0,0,0-.59,1.06,1,1,0,0,0,.68,1,11.46,11.46,0,0,0,2.09.63,20.69,20.69,0,0,1,2.4.69,4,4,0,0,1,1.59,1.1,2.93,2.93,0,0,1,.67,2,3.49,3.49,0,0,1-.61,2,4.1,4.1,0,0,1-1.84,1.43,7.48,7.48,0,0,1-3,.53A10.58,10.58,0,0,1,399.33,123Z"/><path class="cls-2" d="M419.61,120.8v2.37h-9.9V110.39h9.66v2.37h-6.72v2.78h5.93v2.3h-5.93v3Z"/><path class="cls-2" d="M423.23,123a6.76,6.76,0,0,1-2.27-1.07l1-2.23a6.77,6.77,0,0,0,2,1,7.42,7.42,0,0,0,2.26.37,3.59,3.59,0,0,0,1.86-.38,1.12,1.12,0,0,0,.61-1,.94.94,0,0,0-.36-.76,2.9,2.9,0,0,0-.91-.49c-.38-.12-.88-.25-1.51-.4a21,21,0,0,1-2.39-.69,3.79,3.79,0,0,1-1.6-1.12,3,3,0,0,1-.67-2,3.51,3.51,0,0,1,.61-2,4,4,0,0,1,1.81-1.43,7.31,7.31,0,0,1,3-.53,10,10,0,0,1,2.39.29,7.46,7.46,0,0,1,2.05.84l-.92,2.25a7.12,7.12,0,0,0-3.54-1,3.35,3.35,0,0,0-1.83.4,1.24,1.24,0,0,0-.6,1.06,1,1,0,0,0,.69,1,11,11,0,0,0,2.09.63,21,21,0,0,1,2.39.69,4,4,0,0,1,1.6,1.1,3,3,0,0,1,.67,2,3.5,3.5,0,0,1-.62,2,4.07,4.07,0,0,1-1.83,1.43,7.56,7.56,0,0,1-3,.53A10.58,10.58,0,0,1,423.23,123Z"/><path class="cls-2" d="M439.19,122.86a18.09,18.09,0,0,1-.59-4.69,18.3,18.3,0,0,1,.59-4.71,13.19,13.19,0,0,1,1.69-3.84h2.72a17,17,0,0,0-1.68,4.12,18.78,18.78,0,0,0,0,8.86,17.12,17.12,0,0,0,1.68,4.11h-2.72A13.25,13.25,0,0,1,439.19,122.86Z"/><path class="cls-2" d="M456.93,123.17V115.5l-3.77,6.32h-1.33l-3.74-6.15v7.5H445.3V110.39h2.45l4.78,7.94,4.71-7.94h2.43l0,12.78Z"/><path class="cls-2" d="M464,123a6.76,6.76,0,0,1-2.27-1.07l1-2.23a6.84,6.84,0,0,0,1.95,1A7.49,7.49,0,0,0,467,121a3.59,3.59,0,0,0,1.86-.38,1.13,1.13,0,0,0,.6-1,.93.93,0,0,0-.35-.76,2.9,2.9,0,0,0-.91-.49c-.38-.12-.88-.25-1.51-.4a20.45,20.45,0,0,1-2.39-.69,3.73,3.73,0,0,1-1.6-1.12,3,3,0,0,1-.67-2,3.58,3.58,0,0,1,.6-2,4.1,4.1,0,0,1,1.82-1.43,7.31,7.31,0,0,1,3-.53,10.09,10.09,0,0,1,2.39.29,7.46,7.46,0,0,1,2.05.84l-.92,2.25a7.12,7.12,0,0,0-3.54-1,3.35,3.35,0,0,0-1.83.4,1.24,1.24,0,0,0-.6,1.06,1,1,0,0,0,.69,1,11,11,0,0,0,2.09.63,21,21,0,0,1,2.39.69,4.1,4.1,0,0,1,1.6,1.1,3,3,0,0,1,.66,2,3.49,3.49,0,0,1-.61,2,4.13,4.13,0,0,1-1.83,1.43,7.56,7.56,0,0,1-3,.53A10.58,10.58,0,0,1,464,123Z"/><path class="cls-2" d="M486,123.17V115.5l-3.77,6.32h-1.33l-3.74-6.15v7.5h-2.78V110.39h2.45l4.78,7.94,4.71-7.94h2.43l0,12.78Z"/><path class="cls-2" d="M501.73,120.8v2.37h-9.9V110.39h9.66v2.37h-6.72v2.78h5.94v2.3h-5.94v3Z"/><path class="cls-2" d="M504.72,123a6.4,6.4,0,0,1-1.86-.76l.95-2.05a6.14,6.14,0,0,0,1.59.69,6.91,6.91,0,0,0,1.83.26c1.2,0,1.8-.3,1.8-.89a.64.64,0,0,0-.49-.61,7.75,7.75,0,0,0-1.51-.31,14.28,14.28,0,0,1-2-.42,3,3,0,0,1-1.36-.84,2.39,2.39,0,0,1-.57-1.71,2.73,2.73,0,0,1,.54-1.66,3.48,3.48,0,0,1,1.57-1.12,6.67,6.67,0,0,1,2.44-.4,9.73,9.73,0,0,1,2.07.23,5.67,5.67,0,0,1,1.71.63l-.95,2a5.67,5.67,0,0,0-2.83-.74,2.86,2.86,0,0,0-1.37.26.75.75,0,0,0-.46.66.66.66,0,0,0,.49.64,9.27,9.27,0,0,0,1.57.34,18.43,18.43,0,0,1,2,.43,3.06,3.06,0,0,1,1.33.83,2.37,2.37,0,0,1,.57,1.68,2.65,2.65,0,0,1-.55,1.63,3.55,3.55,0,0,1-1.6,1.1,6.92,6.92,0,0,1-2.49.4A9.62,9.62,0,0,1,504.72,123Z"/><path class="cls-2" d="M512.38,126.71a17.16,17.16,0,0,0,1.69-4.11,18.78,18.78,0,0,0,0-8.86,17.06,17.06,0,0,0-1.69-4.12h2.72a12.56,12.56,0,0,1,1.71,3.83,18.27,18.27,0,0,1,.59,4.72,18.06,18.06,0,0,1-.59,4.7,12.58,12.58,0,0,1-1.71,3.84Z"/><path class="cls-2" d="M388.73,64.66v6.55H362.51V66l13.38-12.64a14.06,14.06,0,0,0,2.87-3.49,6.32,6.32,0,0,0,.75-2.9,3.84,3.84,0,0,0-1.41-3.2A6.63,6.63,0,0,0,374,42.66a9.64,9.64,0,0,0-4.12.86,7.85,7.85,0,0,0-3.07,2.61l-5.85-3.77a13.66,13.66,0,0,1,5.6-4.74,18.73,18.73,0,0,1,8.18-1.71,16.89,16.89,0,0,1,6.77,1.27A10.44,10.44,0,0,1,386,40.75a9.24,9.24,0,0,1,1.61,5.43,12.13,12.13,0,0,1-1.19,5.3,20.32,20.32,0,0,1-4.61,5.65l-8,7.53Z"/><path class="cls-2" d="M399.14,69.67a14.28,14.28,0,0,1-5.28-6.17A22.43,22.43,0,0,1,392,53.86a22.4,22.4,0,0,1,1.91-9.64,14.22,14.22,0,0,1,5.28-6.17,14.85,14.85,0,0,1,15.36,0,14.22,14.22,0,0,1,5.28,6.17,22.4,22.4,0,0,1,1.91,9.64,22.43,22.43,0,0,1-1.91,9.64,14.28,14.28,0,0,1-5.28,6.17,14.91,14.91,0,0,1-15.36,0Zm12.66-7.38q1.81-2.73,1.81-8.43t-1.81-8.43a5.87,5.87,0,0,0-9.91,0q-1.81,2.73-1.81,8.43t1.81,8.43a5.87,5.87,0,0,0,9.91,0Z"/><path class="cls-2" d="M457.38,63.92h-5.65v7.29H443.9V63.92H425.21v-5.4l16.36-22H450L434.83,57.38h9.31v-6.5h7.59v6.5h5.65Z"/><path class="cls-2" d="M295.43,140.11a.84.84,0,0,1,.21-.58.78.78,0,0,1,.62-.24.79.79,0,0,1,.63.24.84.84,0,0,1,.21.58.8.8,0,0,1-.21.57.79.79,0,0,1-.63.23.78.78,0,0,1-.62-.23A.8.8,0,0,1,295.43,140.11ZM297,150.57h-1.42V142.3H297Z"/><path class="cls-2" d="M300.56,142.3l0,1a3,3,0,0,1,2.48-1.19c1.75,0,2.63,1,2.64,3v5.46h-1.41V145.1a1.85,1.85,0,0,0-.41-1.32,1.62,1.62,0,0,0-1.25-.43,2,2,0,0,0-1.21.37,2.54,2.54,0,0,0-.81,1v5.89h-1.41V142.3Z"/><path class="cls-2" d="M316.84,150.57a2.92,2.92,0,0,1-.2-.87,3.18,3.18,0,0,1-2.36,1,2.87,2.87,0,0,1-2-.7,2.24,2.24,0,0,1-.79-1.75,2.34,2.34,0,0,1,1-2,4.65,4.65,0,0,1,2.76-.71h1.38v-.65a1.57,1.57,0,0,0-.45-1.18,1.78,1.78,0,0,0-1.3-.44,2.08,2.08,0,0,0-1.27.38,1.14,1.14,0,0,0-.52.93h-1.42a2,2,0,0,1,.44-1.2,3,3,0,0,1,1.19-.91,4,4,0,0,1,1.66-.34,3.31,3.31,0,0,1,2.24.71,2.6,2.6,0,0,1,.84,2v3.81a4.72,4.72,0,0,0,.29,1.81v.12Zm-2.35-1.07a2.47,2.47,0,0,0,1.26-.35,2.12,2.12,0,0,0,.87-.89v-1.7h-1.11c-1.73,0-2.6.51-2.6,1.52a1.31,1.31,0,0,0,.44,1A1.72,1.72,0,0,0,314.49,149.5Z"/><path class="cls-2" d="M324.24,143.57a4.86,4.86,0,0,0-.69,0,1.86,1.86,0,0,0-1.89,1.18v5.87h-1.41V142.3h1.37l0,1a2.19,2.19,0,0,1,2-1.11,1.43,1.43,0,0,1,.62.11Z"/><path class="cls-2" d="M328.83,150.73a3.62,3.62,0,0,1-2.74-1.11,4.11,4.11,0,0,1-1-3v-.26a5,5,0,0,1,.47-2.2,3.65,3.65,0,0,1,1.31-1.51,3.3,3.3,0,0,1,1.83-.55,3.08,3.08,0,0,1,2.51,1.06,4.58,4.58,0,0,1,.9,3v.59h-5.61a2.92,2.92,0,0,0,.72,2,2.23,2.23,0,0,0,1.74.75,2.45,2.45,0,0,0,1.26-.3,3.34,3.34,0,0,0,.91-.81l.87.67A3.48,3.48,0,0,1,328.83,150.73Zm-.18-7.42a1.88,1.88,0,0,0-1.43.62,3,3,0,0,0-.72,1.75h4.14v-.11a2.7,2.7,0,0,0-.58-1.67A1.8,1.8,0,0,0,328.65,143.31Z"/><path class="cls-2" d="M338.8,150.57a2.64,2.64,0,0,1-.2-.87,3.18,3.18,0,0,1-2.36,1,2.87,2.87,0,0,1-2-.7,2.21,2.21,0,0,1-.79-1.75,2.34,2.34,0,0,1,1-2,4.65,4.65,0,0,1,2.76-.71h1.37v-.65a1.57,1.57,0,0,0-.44-1.18,1.79,1.79,0,0,0-1.31-.44,2.07,2.07,0,0,0-1.26.38,1.12,1.12,0,0,0-.52.93h-1.42a2,2,0,0,1,.44-1.2,2.9,2.9,0,0,1,1.19-.91,4,4,0,0,1,1.66-.34,3.31,3.31,0,0,1,2.24.71,2.6,2.6,0,0,1,.84,2v3.81a4.72,4.72,0,0,0,.29,1.81v.12Zm-2.35-1.07a2.5,2.5,0,0,0,1.26-.35,2,2,0,0,0,.86-.89v-1.7h-1.1c-1.74,0-2.6.51-2.6,1.52a1.31,1.31,0,0,0,.44,1A1.72,1.72,0,0,0,336.45,149.5Z"/><path class="cls-2" d="M347,148.38a1,1,0,0,0-.43-.89,4.33,4.33,0,0,0-1.51-.55,6.78,6.78,0,0,1-1.7-.55,2.42,2.42,0,0,1-.93-.76,1.79,1.79,0,0,1-.31-1.06,2.17,2.17,0,0,1,.86-1.72,3.37,3.37,0,0,1,2.2-.7,3.41,3.41,0,0,1,2.28.73,2.28,2.28,0,0,1,.88,1.85h-1.42a1.29,1.29,0,0,0-.5-1,1.83,1.83,0,0,0-1.24-.42,1.91,1.91,0,0,0-1.21.34,1.05,1.05,0,0,0-.43.88.85.85,0,0,0,.4.77,5.14,5.14,0,0,0,1.47.5,7.28,7.28,0,0,1,1.71.56,2.49,2.49,0,0,1,1,.79,2,2,0,0,1,.31,1.13,2.12,2.12,0,0,1-.88,1.78,3.76,3.76,0,0,1-2.3.67,4.07,4.07,0,0,1-1.76-.36,2.85,2.85,0,0,1-1.2-1,2.41,2.41,0,0,1-.43-1.36h1.42a1.41,1.41,0,0,0,.57,1.12,2.18,2.18,0,0,0,1.4.42,2.37,2.37,0,0,0,1.29-.32A1,1,0,0,0,347,148.38Z"/><path class="cls-2" d="M359.26,150.57a2.92,2.92,0,0,1-.2-.87,3.18,3.18,0,0,1-2.36,1,2.87,2.87,0,0,1-2-.7,2.24,2.24,0,0,1-.79-1.75,2.34,2.34,0,0,1,1-2,4.65,4.65,0,0,1,2.76-.71H359v-.65a1.57,1.57,0,0,0-.45-1.18,1.78,1.78,0,0,0-1.3-.44,2.08,2.08,0,0,0-1.27.38,1.14,1.14,0,0,0-.52.93h-1.42a2,2,0,0,1,.44-1.2,3,3,0,0,1,1.19-.91,4,4,0,0,1,1.66-.34,3.31,3.31,0,0,1,2.24.71,2.6,2.6,0,0,1,.84,2v3.81a4.72,4.72,0,0,0,.29,1.81v.12Zm-2.35-1.07a2.47,2.47,0,0,0,1.26-.35,2.12,2.12,0,0,0,.87-.89v-1.7h-1.11c-1.73,0-2.6.51-2.6,1.52a1.31,1.31,0,0,0,.44,1A1.72,1.72,0,0,0,356.91,149.5Z"/><path class="cls-2" d="M363.36,150.57V143.4h-1.3v-1.1h1.3v-.85a2.82,2.82,0,0,1,.71-2,2.68,2.68,0,0,1,2-.73,4,4,0,0,1,1,.13l-.07,1.14a4.69,4.69,0,0,0-.77-.07,1.37,1.37,0,0,0-1.06.41,1.61,1.61,0,0,0-.37,1.15v.87h1.76v1.1h-1.76v7.17Z"/><path class="cls-2" d="M368.8,150.57V143.4h-1.31v-1.1h1.31v-.85a2.78,2.78,0,0,1,.71-2,2.65,2.65,0,0,1,2-.73,4,4,0,0,1,1,.13l-.08,1.14a4.56,4.56,0,0,0-.76-.07,1.39,1.39,0,0,0-1.07.41,1.65,1.65,0,0,0-.37,1.15v.87H372v1.1h-1.77v7.17Z"/><path class="cls-2" d="M376.78,150.73a3.59,3.59,0,0,1-2.73-1.11,4.07,4.07,0,0,1-1.06-3v-.26a5,5,0,0,1,.47-2.2,3.67,3.67,0,0,1,1.32-1.51,3.25,3.25,0,0,1,1.83-.55,3.11,3.11,0,0,1,2.51,1.06,4.63,4.63,0,0,1,.89,3v.59h-5.6a3,3,0,0,0,.71,2,2.26,2.26,0,0,0,1.74.75,2.51,2.51,0,0,0,1.27-.3,3.34,3.34,0,0,0,.91-.81l.86.67A3.48,3.48,0,0,1,376.78,150.73Zm-.17-7.42a1.91,1.91,0,0,0-1.44.62,3,3,0,0,0-.72,1.75h4.15v-.11a2.76,2.76,0,0,0-.59-1.67A1.77,1.77,0,0,0,376.61,143.31Z"/><path class="cls-2" d="M385,149.57a2,2,0,0,0,1.32-.46,1.6,1.6,0,0,0,.63-1.14h1.34a2.62,2.62,0,0,1-.49,1.35,3.15,3.15,0,0,1-1.2,1,3.47,3.47,0,0,1-1.6.39,3.4,3.4,0,0,1-2.68-1.13,4.47,4.47,0,0,1-1-3.09v-.23a5.07,5.07,0,0,1,.44-2.15,3.42,3.42,0,0,1,1.27-1.46,3.61,3.61,0,0,1,2-.52,3.37,3.37,0,0,1,2.32.83,3,3,0,0,1,1,2.17h-1.34a1.91,1.91,0,0,0-.61-1.32,1.86,1.86,0,0,0-1.35-.52,2,2,0,0,0-1.67.78,3.65,3.65,0,0,0-.59,2.24v.27a3.58,3.58,0,0,0,.59,2.2A2,2,0,0,0,385,149.57Z"/><path class="cls-2" d="M391.76,140.3v2h1.54v1.1h-1.54v5.13a1.22,1.22,0,0,0,.2.75.9.9,0,0,0,.71.25,3,3,0,0,0,.67-.1v1.14a4.17,4.17,0,0,1-1.09.16,1.79,1.79,0,0,1-1.43-.58,2.46,2.46,0,0,1-.48-1.63V143.4h-1.5v-1.1h1.5v-2Z"/><path class="cls-2" d="M398.38,150.73a3.59,3.59,0,0,1-2.73-1.11,4.07,4.07,0,0,1-1.06-3v-.26a5,5,0,0,1,.47-2.2,3.67,3.67,0,0,1,1.32-1.51,3.25,3.25,0,0,1,1.83-.55,3.07,3.07,0,0,1,2.5,1.06,4.58,4.58,0,0,1,.9,3v.59H396a3,3,0,0,0,.71,2,2.26,2.26,0,0,0,1.74.75,2.51,2.51,0,0,0,1.27-.3,3.49,3.49,0,0,0,.91-.81l.86.67A3.48,3.48,0,0,1,398.38,150.73Zm-.17-7.42a1.91,1.91,0,0,0-1.44.62,3,3,0,0,0-.72,1.75h4.15v-.11a2.76,2.76,0,0,0-.59-1.67A1.77,1.77,0,0,0,398.21,143.31Z"/><path class="cls-2" d="M402.9,146.37a4.84,4.84,0,0,1,.9-3.06,3.07,3.07,0,0,1,4.66-.17v-4.31h1.42v11.74h-1.3l-.07-.88a2.88,2.88,0,0,1-2.36,1,2.83,2.83,0,0,1-2.34-1.18,4.87,4.87,0,0,1-.91-3.07Zm1.41.16a3.64,3.64,0,0,0,.59,2.2,1.87,1.87,0,0,0,1.6.8,2.06,2.06,0,0,0,2-1.21v-3.8a2.07,2.07,0,0,0-1.94-1.17,1.88,1.88,0,0,0-1.62.8A4,4,0,0,0,404.31,146.53Z"/><path class="cls-2" d="M423,146.53a5,5,0,0,1-.87,3.05,2.8,2.8,0,0,1-2.34,1.15,2.87,2.87,0,0,1-2.42-1.11l-.07.95H416V138.83h1.41v4.38a2.86,2.86,0,0,1,2.36-1.06,2.8,2.8,0,0,1,2.37,1.14,5.09,5.09,0,0,1,.86,3.12Zm-1.42-.16a3.83,3.83,0,0,0-.55-2.23,1.84,1.84,0,0,0-1.61-.79,2.08,2.08,0,0,0-2,1.3v3.58a2.14,2.14,0,0,0,2,1.3,1.85,1.85,0,0,0,1.58-.79A4.07,4.07,0,0,0,421.53,146.37Z"/><path class="cls-2" d="M427.35,148.5l1.93-6.2h1.51l-3.32,9.55c-.52,1.38-1.34,2.06-2.46,2.06l-.27,0-.52-.1v-1.15l.38,0a1.84,1.84,0,0,0,1.12-.29,2,2,0,0,0,.66-1.06l.31-.84-2.95-8.18h1.55Z"/><path class="cls-2" d="M439.36,150.73a3.62,3.62,0,0,1-2.74-1.11,4.11,4.11,0,0,1-1.05-3v-.26a4.87,4.87,0,0,1,.47-2.2,3.65,3.65,0,0,1,1.31-1.51,3.3,3.3,0,0,1,1.83-.55,3.1,3.1,0,0,1,2.51,1.06,4.58,4.58,0,0,1,.89,3v.59H437a2.92,2.92,0,0,0,.72,2,2.23,2.23,0,0,0,1.74.75,2.47,2.47,0,0,0,1.26-.3,3.34,3.34,0,0,0,.91-.81l.87.67A3.5,3.5,0,0,1,439.36,150.73Zm-.18-7.42a1.88,1.88,0,0,0-1.43.62,3,3,0,0,0-.72,1.75h4.14v-.11a2.7,2.7,0,0,0-.58-1.67A1.8,1.8,0,0,0,439.18,143.31Z"/><path class="cls-2" d="M449.33,150.57a2.64,2.64,0,0,1-.2-.87,3.18,3.18,0,0,1-2.36,1,2.87,2.87,0,0,1-2-.7,2.21,2.21,0,0,1-.79-1.75,2.34,2.34,0,0,1,1-2,4.65,4.65,0,0,1,2.76-.71h1.37v-.65a1.57,1.57,0,0,0-.44-1.18,1.79,1.79,0,0,0-1.31-.44,2.12,2.12,0,0,0-1.27.38,1.13,1.13,0,0,0-.51.93h-1.42a2,2,0,0,1,.44-1.2,2.9,2.9,0,0,1,1.19-.91,3.94,3.94,0,0,1,1.66-.34,3.31,3.31,0,0,1,2.24.71,2.6,2.6,0,0,1,.84,2v3.81a4.72,4.72,0,0,0,.29,1.81v.12ZM447,149.5a2.5,2.5,0,0,0,1.26-.35,2,2,0,0,0,.86-.89v-1.7H448c-1.74,0-2.6.51-2.6,1.52a1.28,1.28,0,0,0,.44,1A1.72,1.72,0,0,0,447,149.5Z"/><path class="cls-2" d="M456.73,143.57a4.86,4.86,0,0,0-.69,0,1.86,1.86,0,0,0-1.89,1.18v5.87h-1.41V142.3h1.37l0,1a2.21,2.21,0,0,1,2-1.11,1.43,1.43,0,0,1,.62.11Z"/><path class="cls-2" d="M460.33,140.3v2h1.55v1.1h-1.55v5.13a1.16,1.16,0,0,0,.21.75.89.89,0,0,0,.7.25,2.85,2.85,0,0,0,.67-.1v1.14a4.16,4.16,0,0,1-1.08.16,1.77,1.77,0,0,1-1.43-.58,2.46,2.46,0,0,1-.48-1.63V143.4h-1.51v-1.1h1.51v-2Z"/><path class="cls-2" d="M464.94,143.3a3,3,0,0,1,2.45-1.15c1.74,0,2.63,1,2.64,3v5.46h-1.41V145.1a1.89,1.89,0,0,0-.41-1.32,1.63,1.63,0,0,0-1.25-.43,2,2,0,0,0-1.21.37,2.37,2.37,0,0,0-.81,1v5.89h-1.41V138.83h1.41Z"/><path class="cls-2" d="M471.81,146.37a4.8,4.8,0,0,1,.89-3.08,2.9,2.9,0,0,1,2.4-1.14,2.87,2.87,0,0,1,2.31,1l.07-.84h1.3v11.45h-1.42v-3.94a3,3,0,0,1-2.28.92,2.83,2.83,0,0,1-2.38-1.17,4.93,4.93,0,0,1-.89-3.09Zm1.41.16a3.67,3.67,0,0,0,.6,2.23,1.91,1.91,0,0,0,1.62.81,2.11,2.11,0,0,0,1.92-1.11V144.4a2.13,2.13,0,0,0-1.91-1.09,1.93,1.93,0,0,0-1.63.82A4,4,0,0,0,473.22,146.53Z"/><path class="cls-2" d="M486.15,149.76a3,3,0,0,1-2.42,1,2.61,2.61,0,0,1-2-.77,3.36,3.36,0,0,1-.7-2.28V142.3h1.42v5.35c0,1.25.51,1.88,1.53,1.88a2.11,2.11,0,0,0,2.15-1.21v-6h1.42v8.27h-1.35Z"/><path class="cls-2" d="M494.78,150.57a2.92,2.92,0,0,1-.2-.87,3.17,3.17,0,0,1-2.35,1,2.88,2.88,0,0,1-2-.7,2.23,2.23,0,0,1-.78-1.75,2.34,2.34,0,0,1,1-2,4.65,4.65,0,0,1,2.76-.71h1.38v-.65a1.61,1.61,0,0,0-.44-1.18,1.82,1.82,0,0,0-1.31-.44,2.08,2.08,0,0,0-1.27.38,1.13,1.13,0,0,0-.51.93h-1.42a1.94,1.94,0,0,1,.43-1.2,3,3,0,0,1,1.2-.91,3.9,3.9,0,0,1,1.65-.34,3.31,3.31,0,0,1,2.24.71,2.6,2.6,0,0,1,.84,2v3.81a4.72,4.72,0,0,0,.29,1.81v.12Zm-2.35-1.07a2.51,2.51,0,0,0,1.27-.35,2.16,2.16,0,0,0,.86-.89v-1.7h-1.11c-1.73,0-2.6.51-2.6,1.52a1.31,1.31,0,0,0,.44,1A1.72,1.72,0,0,0,492.43,149.5Z"/><path class="cls-2" d="M500.5,146.74l-.89.93v2.9H498.2V138.83h1.41v7.1l.76-.91,2.57-2.72h1.72l-3.21,3.46,3.59,4.81h-1.66Z"/><path class="cls-2" d="M509.4,150.73a3.59,3.59,0,0,1-2.73-1.11,4.07,4.07,0,0,1-1.06-3v-.26a5,5,0,0,1,.47-2.2,3.6,3.6,0,0,1,1.32-1.51,3.25,3.25,0,0,1,1.83-.55,3.07,3.07,0,0,1,2.5,1.06,4.58,4.58,0,0,1,.9,3v.59H507a2.91,2.91,0,0,0,.71,2,2.26,2.26,0,0,0,1.74.75,2.51,2.51,0,0,0,1.27-.3,3.49,3.49,0,0,0,.91-.81l.86.67A3.48,3.48,0,0,1,509.4,150.73Zm-.17-7.42a1.91,1.91,0,0,0-1.44.62,3,3,0,0,0-.72,1.75h4.14v-.11a2.7,2.7,0,0,0-.58-1.67A1.77,1.77,0,0,0,509.23,143.31Z"/><path class="cls-2" d="M519.08,148.38a1.06,1.06,0,0,0-.43-.89,4.33,4.33,0,0,0-1.51-.55,6.64,6.64,0,0,1-1.7-.55,2.45,2.45,0,0,1-.94-.76,1.86,1.86,0,0,1-.3-1.06,2.17,2.17,0,0,1,.86-1.72,3.37,3.37,0,0,1,2.2-.7,3.41,3.41,0,0,1,2.28.73,2.31,2.31,0,0,1,.88,1.85H519a1.28,1.28,0,0,0-.49-1,1.84,1.84,0,0,0-1.24-.42,1.89,1.89,0,0,0-1.21.34,1.05,1.05,0,0,0-.43.88.85.85,0,0,0,.4.77,5.14,5.14,0,0,0,1.47.5,7.28,7.28,0,0,1,1.71.56,2.57,2.57,0,0,1,1,.79,2,2,0,0,1,.31,1.13,2.12,2.12,0,0,1-.88,1.78,3.78,3.78,0,0,1-2.3.67,4.07,4.07,0,0,1-1.76-.36,2.85,2.85,0,0,1-1.2-1,2.33,2.33,0,0,1-.43-1.36h1.41a1.47,1.47,0,0,0,.57,1.12,2.21,2.21,0,0,0,1.41.42,2.31,2.31,0,0,0,1.28-.32A1,1,0,0,0,519.08,148.38Z"/><path class="cls-2" d="M522.29,152.79l-.8-.55a3.85,3.85,0,0,0,.75-2.06V148.9h1.38V150a3.5,3.5,0,0,1-.38,1.54A3.56,3.56,0,0,1,522.29,152.79Z"/><path class="cls-2" d="M298.5,159.08v2h1.55v1.09H298.5v5.14a1.11,1.11,0,0,0,.21.74.85.85,0,0,0,.7.25,3.53,3.53,0,0,0,.68-.09v1.14a4.26,4.26,0,0,1-1.09.15,1.77,1.77,0,0,1-1.43-.57,2.49,2.49,0,0,1-.48-1.63v-5.13h-1.51v-1.09h1.51v-2Z"/><path class="cls-2" d="M306.52,167.16a1,1,0,0,0-.44-.89,4.17,4.17,0,0,0-1.5-.54,7.64,7.64,0,0,1-1.71-.55,2.43,2.43,0,0,1-.93-.77,1.83,1.83,0,0,1-.3-1,2.15,2.15,0,0,1,.86-1.72,3.34,3.34,0,0,1,2.2-.71,3.5,3.5,0,0,1,2.28.73,2.3,2.3,0,0,1,.87,1.86h-1.42a1.26,1.26,0,0,0-.49-1,1.84,1.84,0,0,0-1.24-.42,2,2,0,0,0-1.21.33,1.08,1.08,0,0,0-.44.88.86.86,0,0,0,.41.77,4.86,4.86,0,0,0,1.46.5,7.67,7.67,0,0,1,1.72.57,2.44,2.44,0,0,1,1,.79,1.94,1.94,0,0,1,.32,1.12,2.12,2.12,0,0,1-.89,1.78,3.69,3.69,0,0,1-2.3.67,4.25,4.25,0,0,1-1.76-.35,2.83,2.83,0,0,1-1.19-1,2.36,2.36,0,0,1-.43-1.37h1.41a1.49,1.49,0,0,0,.57,1.13,2.18,2.18,0,0,0,1.4.42A2.24,2.24,0,0,0,306,168,1,1,0,0,0,306.52,167.16Z"/><path class="cls-2" d="M314.88,168.54a3,3,0,0,1-2.43,1,2.57,2.57,0,0,1-2-.77,3.35,3.35,0,0,1-.7-2.27v-5.38h1.41v5.34c0,1.25.51,1.88,1.53,1.88a2.12,2.12,0,0,0,2.16-1.21v-6h1.41v8.27h-1.34Z"/><path class="cls-2" d="M319.74,161.09l0,1a3,3,0,0,1,2.48-1.2c1.75,0,2.63,1,2.64,3v5.47h-1.41v-5.48a1.88,1.88,0,0,0-.41-1.32,1.66,1.66,0,0,0-1.25-.43,2.09,2.09,0,0,0-1.21.37,2.7,2.7,0,0,0-.81,1v5.9H318.4v-8.27Z"/><path class="cls-2" d="M332.14,169.36a3.51,3.51,0,0,1-.2-.87,3.14,3.14,0,0,1-2.35,1,3,3,0,0,1-2-.69,2.25,2.25,0,0,1-.78-1.76,2.33,2.33,0,0,1,1-2,4.63,4.63,0,0,1,2.77-.72h1.37v-.65a1.62,1.62,0,0,0-.44-1.18,1.8,1.8,0,0,0-1.31-.44,2,2,0,0,0-1.27.39,1.12,1.12,0,0,0-.51.92H327a2,2,0,0,1,.44-1.2,3,3,0,0,1,1.19-.91,4.07,4.07,0,0,1,1.66-.34,3.23,3.23,0,0,1,2.23.72,2.59,2.59,0,0,1,.85,2v3.8a4.59,4.59,0,0,0,.29,1.82v.12Zm-2.34-1.08a2.59,2.59,0,0,0,1.26-.34,2.07,2.07,0,0,0,.86-.9v-1.7h-1.11c-1.73,0-2.6.51-2.6,1.53a1.25,1.25,0,0,0,.45,1A1.69,1.69,0,0,0,329.8,168.28Z"/><path class="cls-2" d="M336.88,161.09l0,.91a3.06,3.06,0,0,1,2.45-1.07,2.39,2.39,0,0,1,2.37,1.33,3.08,3.08,0,0,1,2.63-1.33c1.82,0,2.74,1,2.77,2.89v5.54h-1.42V163.9a1.92,1.92,0,0,0-.4-1.33,1.79,1.79,0,0,0-1.36-.44,1.9,1.9,0,0,0-1.31.47,1.93,1.93,0,0,0-.6,1.27v5.49h-1.42v-5.42a1.59,1.59,0,0,0-1.77-1.81,1.89,1.89,0,0,0-1.9,1.19v6h-1.42v-8.27Z"/><path class="cls-2" d="M349.28,158.89a.84.84,0,0,1,.21-.58.78.78,0,0,1,.62-.23.79.79,0,0,1,.63.23.91.91,0,0,1,0,1.16.82.82,0,0,1-.63.23.81.81,0,0,1-.62-.23A.84.84,0,0,1,349.28,158.89Zm1.53,10.47h-1.42v-8.27h1.42Z"/><path class="cls-2" d="M357.89,167.16a1,1,0,0,0-.44-.89,4.17,4.17,0,0,0-1.5-.54,7.64,7.64,0,0,1-1.71-.55,2.43,2.43,0,0,1-.93-.77,1.83,1.83,0,0,1-.3-1,2.15,2.15,0,0,1,.86-1.72,3.34,3.34,0,0,1,2.2-.71,3.5,3.5,0,0,1,2.28.73,2.3,2.3,0,0,1,.87,1.86H357.8a1.26,1.26,0,0,0-.49-1,1.84,1.84,0,0,0-1.24-.42,2,2,0,0,0-1.21.33,1.08,1.08,0,0,0-.44.88.86.86,0,0,0,.41.77,4.86,4.86,0,0,0,1.46.5,7.67,7.67,0,0,1,1.72.57,2.37,2.37,0,0,1,1,.79,1.94,1.94,0,0,1,.32,1.12,2.12,2.12,0,0,1-.89,1.78,3.69,3.69,0,0,1-2.3.67,4.25,4.25,0,0,1-1.76-.35,2.89,2.89,0,0,1-1.19-1,2.36,2.36,0,0,1-.43-1.37h1.41a1.49,1.49,0,0,0,.57,1.13,2.18,2.18,0,0,0,1.4.42,2.24,2.24,0,0,0,1.29-.33A1,1,0,0,0,357.89,167.16Z"/><path class="cls-2" d="M370.12,169.36a3.1,3.1,0,0,1-.2-.87,3.14,3.14,0,0,1-2.35,1,2.92,2.92,0,0,1-2-.69,2.25,2.25,0,0,1-.78-1.76,2.33,2.33,0,0,1,1-2,4.62,4.62,0,0,1,2.76-.72h1.38v-.65a1.62,1.62,0,0,0-.44-1.18,1.8,1.8,0,0,0-1.31-.44,2,2,0,0,0-1.27.39,1.12,1.12,0,0,0-.51.92H365a1.94,1.94,0,0,1,.44-1.2,3,3,0,0,1,1.19-.91,4.06,4.06,0,0,1,1.65-.34,3.24,3.24,0,0,1,2.24.72,2.58,2.58,0,0,1,.84,2v3.8a4.77,4.77,0,0,0,.29,1.82v.12Zm-2.34-1.08a2.59,2.59,0,0,0,1.26-.34,2.12,2.12,0,0,0,.86-.9v-1.7h-1.11c-1.73,0-2.6.51-2.6,1.53a1.25,1.25,0,0,0,.45,1A1.69,1.69,0,0,0,367.78,168.28Z"/><path class="cls-2" d="M374.87,161.09l0,1a3,3,0,0,1,2.48-1.2c1.75,0,2.63,1,2.64,3v5.47h-1.41v-5.48a1.88,1.88,0,0,0-.41-1.32,1.64,1.64,0,0,0-1.25-.43,2.09,2.09,0,0,0-1.21.37,2.58,2.58,0,0,0-.8,1v5.9h-1.42v-8.27Z"/><path class="cls-2" d="M381.82,165.15a4.79,4.79,0,0,1,.91-3.06,2.85,2.85,0,0,1,2.36-1.16,2.88,2.88,0,0,1,2.3,1v-4.31h1.41v11.74h-1.3l-.07-.89a2.88,2.88,0,0,1-2.36,1,2.8,2.8,0,0,1-2.34-1.18,4.91,4.91,0,0,1-.91-3.07Zm1.42.16a3.67,3.67,0,0,0,.58,2.21,1.87,1.87,0,0,0,1.6.79,2.06,2.06,0,0,0,2-1.21v-3.8a2.08,2.08,0,0,0-1.95-1.17,1.89,1.89,0,0,0-1.62.81A4,4,0,0,0,383.24,165.31Z"/><path class="cls-2" d="M403.28,165.83a4.11,4.11,0,0,1-1.3,2.72,4.3,4.3,0,0,1-2.92,1,3.91,3.91,0,0,1-3.16-1.41,5.73,5.73,0,0,1-1.19-3.79v-1.07a6.37,6.37,0,0,1,.55-2.73,4.19,4.19,0,0,1,1.57-1.8,4.41,4.41,0,0,1,2.36-.63,4,4,0,0,1,2.84,1,4.12,4.12,0,0,1,1.25,2.74H401.8a3.16,3.16,0,0,0-.83-1.94,2.49,2.49,0,0,0-1.78-.59,2.62,2.62,0,0,0-2.21,1,4.78,4.78,0,0,0-.79,3v1.08a4.94,4.94,0,0,0,.75,2.88,2.46,2.46,0,0,0,2.12,1.07,2.85,2.85,0,0,0,1.88-.55,3.11,3.11,0,0,0,.86-1.93Z"/><path class="cls-2" d="M413.84,164.15a6.88,6.88,0,0,1-.55,2.86,4.28,4.28,0,0,1-7.82,0,6.52,6.52,0,0,1-.58-2.77v-.8a6.85,6.85,0,0,1,.56-2.84,4.12,4.12,0,0,1,3.91-2.53,4.33,4.33,0,0,1,2.36.64,4.21,4.21,0,0,1,1.57,1.87,6.88,6.88,0,0,1,.55,2.86Zm-1.46-.72a5,5,0,0,0-.79-3,2.61,2.61,0,0,0-2.23-1.06,2.58,2.58,0,0,0-2.19,1.06,4.9,4.9,0,0,0-.82,2.93v.82a5,5,0,0,0,.81,3,2.83,2.83,0,0,0,4.42.06,4.93,4.93,0,0,0,.8-3Z"/><path class="cls-2" d="M419.56,167.41l3.18-9.18h1.6l-4.12,11.13h-1.3l-4.12-11.13h1.59Z"/><path class="cls-2" d="M427.41,169.36h-1.47V158.23h1.47Z"/><path class="cls-2" d="M430.09,169.36V158.23h3.14a5,5,0,0,1,2.57.64,4.35,4.35,0,0,1,1.72,1.83,5.93,5.93,0,0,1,.62,2.72v.71a5.91,5.91,0,0,1-.61,2.76,4.28,4.28,0,0,1-1.73,1.82,5.42,5.42,0,0,1-2.63.65Zm1.47-9.93v8.73h1.54a3.34,3.34,0,0,0,2.64-1.06,4.35,4.35,0,0,0,.95-3v-.65a4.43,4.43,0,0,0-.89-2.94,3.16,3.16,0,0,0-2.53-1.07Z"/><path class="cls-2" d="M443.08,165.21h-3.73v-1.16h3.73Z"/><path class="cls-2" d="M449,169.36h-1.42v-9.43l-2.85,1V159.7l4.05-1.53H449Z"/><path class="cls-2" d="M458.52,164.47a3.46,3.46,0,0,1-1.06.84,2.8,2.8,0,0,1-1.35.32,3,3,0,0,1-1.68-.47,3.08,3.08,0,0,1-1.1-1.33,4.58,4.58,0,0,1-.39-1.9,4.63,4.63,0,0,1,.42-2,3.12,3.12,0,0,1,1.21-1.37,3.35,3.35,0,0,1,1.81-.47,3.12,3.12,0,0,1,2.61,1.23,5.42,5.42,0,0,1,.95,3.37v.41q0,3.25-1.29,4.74a4.88,4.88,0,0,1-3.87,1.53h-.28v-1.2h.3a3.37,3.37,0,0,0,3.72-3.69Zm-2.18,0a2.2,2.2,0,0,0,1.31-.44,2.52,2.52,0,0,0,.87-1.08v-.56a3.93,3.93,0,0,0-.6-2.27,1.8,1.8,0,0,0-1.53-.87,1.82,1.82,0,0,0-1.5.72,3,3,0,0,0-.56,1.88,3.1,3.1,0,0,0,.54,1.88A1.76,1.76,0,0,0,456.34,164.47Z"/><path class="cls-2" d="M469.91,162.36a3.88,3.88,0,0,0-.7-.06,1.87,1.87,0,0,0-1.89,1.19v5.87h-1.41v-8.27h1.37l0,.95a2.19,2.19,0,0,1,2-1.11,1.52,1.52,0,0,1,.63.11Z"/><path class="cls-2" d="M474.49,169.51a3.65,3.65,0,0,1-2.74-1.1,4.14,4.14,0,0,1-1.05-3v-.26a5,5,0,0,1,.47-2.2,3.65,3.65,0,0,1,1.31-1.51,3.39,3.39,0,0,1,1.84-.55,3.08,3.08,0,0,1,2.5,1.07,4.56,4.56,0,0,1,.9,3v.59h-5.61a2.91,2.91,0,0,0,.72,2,2.21,2.21,0,0,0,1.74.76,2.51,2.51,0,0,0,1.27-.31,3.16,3.16,0,0,0,.91-.81l.86.67A3.46,3.46,0,0,1,474.49,169.51Zm-.17-7.41a1.86,1.86,0,0,0-1.44.62,3,3,0,0,0-.72,1.75h4.14v-.11a2.65,2.65,0,0,0-.58-1.67A1.75,1.75,0,0,0,474.32,162.1Z"/><path class="cls-2" d="M482.67,168.36a2.08,2.08,0,0,0,1.32-.46,1.62,1.62,0,0,0,.63-1.15H486a2.59,2.59,0,0,1-.49,1.35,3.3,3.3,0,0,1-1.21,1,3.51,3.51,0,0,1-1.59.38,3.42,3.42,0,0,1-2.69-1.13,4.51,4.51,0,0,1-1-3.08v-.24a5,5,0,0,1,.44-2.15,3.41,3.41,0,0,1,1.27-1.46,3.67,3.67,0,0,1,2-.52,3.28,3.28,0,0,1,2.31.84,3,3,0,0,1,1,2.16h-1.34a2,2,0,0,0-.61-1.32,1.89,1.89,0,0,0-1.35-.51,2,2,0,0,0-1.67.77,3.69,3.69,0,0,0-.59,2.24v.27a3.56,3.56,0,0,0,.59,2.2A2,2,0,0,0,482.67,168.36Z"/><path class="cls-2" d="M491,169.51a3.64,3.64,0,0,1-2.74-1.1,4.14,4.14,0,0,1-1.05-3v-.26a4.9,4.9,0,0,1,.47-2.2,3.65,3.65,0,0,1,1.31-1.51,3.33,3.33,0,0,1,1.83-.55,3.1,3.1,0,0,1,2.51,1.07,4.56,4.56,0,0,1,.89,3v.59h-5.6a2.91,2.91,0,0,0,.72,2,2.2,2.2,0,0,0,1.73.76,2.49,2.49,0,0,0,1.27-.31,3,3,0,0,0,.91-.81l.87.67A3.48,3.48,0,0,1,491,169.51Zm-.18-7.41a1.88,1.88,0,0,0-1.44.62,3.05,3.05,0,0,0-.71,1.75h4.14v-.11a2.71,2.71,0,0,0-.58-1.67A1.77,1.77,0,0,0,490.8,162.1Z"/><path class="cls-2" d="M495.85,158.89a.84.84,0,0,1,.21-.58.77.77,0,0,1,.62-.23.82.82,0,0,1,.63.23.91.91,0,0,1,0,1.16.85.85,0,0,1-.63.23.8.8,0,0,1-.62-.23A.84.84,0,0,1,495.85,158.89Zm1.52,10.47H496v-8.27h1.41Z"/><path class="cls-2" d="M502.37,167.44l2-6.35h1.45l-3,8.27h-1.07l-3-8.27h1.44Z"/><path class="cls-2" d="M510.55,169.51a3.62,3.62,0,0,1-2.73-1.1,4.1,4.1,0,0,1-1.06-3v-.26a5,5,0,0,1,.47-2.2,3.65,3.65,0,0,1,1.31-1.51,3.39,3.39,0,0,1,1.84-.55,3.08,3.08,0,0,1,2.5,1.07,4.56,4.56,0,0,1,.9,3v.59h-5.61a3,3,0,0,0,.72,2,2.22,2.22,0,0,0,1.74.76,2.51,2.51,0,0,0,1.27-.31,3.16,3.16,0,0,0,.91-.81l.86.67A3.46,3.46,0,0,1,510.55,169.51Zm-.17-7.41a1.86,1.86,0,0,0-1.44.62,3,3,0,0,0-.72,1.75h4.14v-.11a2.65,2.65,0,0,0-.58-1.67A1.74,1.74,0,0,0,510.38,162.1Z"/><path class="cls-2" d="M515.07,165.15a4.84,4.84,0,0,1,.9-3.06,3.06,3.06,0,0,1,4.66-.16v-4.31h1.42v11.74h-1.3l-.07-.89a2.89,2.89,0,0,1-2.36,1,2.83,2.83,0,0,1-2.35-1.18,4.91,4.91,0,0,1-.9-3.07Zm1.41.16a3.74,3.74,0,0,0,.58,2.21,1.89,1.89,0,0,0,1.61.79,2,2,0,0,0,2-1.21v-3.8a2.07,2.07,0,0,0-2-1.17,1.89,1.89,0,0,0-1.62.81A4.06,4.06,0,0,0,516.48,165.31Z"/><path class="cls-2" d="M300.58,183.94a4.84,4.84,0,0,1,.9-3.06,2.83,2.83,0,0,1,2.36-1.16,2.88,2.88,0,0,1,2.3,1V176.4h1.41v11.74h-1.29l-.07-.89a2.88,2.88,0,0,1-2.37,1,2.84,2.84,0,0,1-2.34-1.17,4.94,4.94,0,0,1-.9-3.08Zm1.41.16a3.64,3.64,0,0,0,.58,2.2,1.88,1.88,0,0,0,1.61.79,2.06,2.06,0,0,0,2-1.2v-3.8a2.07,2.07,0,0,0-1.95-1.17,1.9,1.9,0,0,0-1.62.8A4,4,0,0,0,302,184.1Z"/><path class="cls-2" d="M309.76,177.68a.83.83,0,0,1,.21-.58.77.77,0,0,1,.62-.24.77.77,0,0,1,.84.82.8.8,0,0,1-.21.57.85.85,0,0,1-.63.23.76.76,0,0,1-.83-.8Zm1.52,10.46h-1.41v-8.27h1.41Z"/><path class="cls-2" d="M318.36,186a1,1,0,0,0-.43-.89,4.13,4.13,0,0,0-1.51-.55,7.21,7.21,0,0,1-1.7-.55,2.42,2.42,0,0,1-.93-.76,1.86,1.86,0,0,1-.3-1.06,2.13,2.13,0,0,1,.86-1.72,3.33,3.33,0,0,1,2.19-.7,3.46,3.46,0,0,1,2.28.72,2.31,2.31,0,0,1,.88,1.86h-1.42a1.29,1.29,0,0,0-.49-1,2.17,2.17,0,0,0-2.45-.08,1,1,0,0,0-.44.88.85.85,0,0,0,.41.77,4.7,4.7,0,0,0,1.46.49,7.84,7.84,0,0,1,1.72.57,2.53,2.53,0,0,1,1,.79,2,2,0,0,1,.32,1.13,2.13,2.13,0,0,1-.89,1.78,3.76,3.76,0,0,1-2.3.66,4.1,4.1,0,0,1-1.76-.35,2.76,2.76,0,0,1-1.19-1,2.35,2.35,0,0,1-.44-1.36h1.42a1.41,1.41,0,0,0,.57,1.12,2.18,2.18,0,0,0,1.4.42,2.37,2.37,0,0,0,1.29-.32A1,1,0,0,0,318.36,186Z"/><path class="cls-2" d="M326.72,188.14a3,3,0,0,1-.19-.87,3.18,3.18,0,0,1-2.36,1,3,3,0,0,1-2-.69,2.23,2.23,0,0,1-.78-1.75,2.36,2.36,0,0,1,1-2,4.71,4.71,0,0,1,2.77-.71h1.37v-.65a1.55,1.55,0,0,0-.44-1.18,1.76,1.76,0,0,0-1.31-.44,2,2,0,0,0-1.27.38,1.12,1.12,0,0,0-.51.92h-1.42A2,2,0,0,1,322,181a3,3,0,0,1,1.19-.92,4.1,4.1,0,0,1,1.66-.33,3.31,3.31,0,0,1,2.24.71,2.6,2.6,0,0,1,.84,2v3.81a4.53,4.53,0,0,0,.29,1.81v.12Zm-2.34-1.08a2.49,2.49,0,0,0,1.26-.34,2.1,2.1,0,0,0,.86-.89v-1.7h-1.11c-1.73,0-2.59.51-2.59,1.52a1.28,1.28,0,0,0,.44,1A1.68,1.68,0,0,0,324.38,187.06Z"/><path class="cls-2" d="M335,186a1.06,1.06,0,0,0-.43-.89,4.13,4.13,0,0,0-1.51-.55,7.06,7.06,0,0,1-1.7-.55,2.45,2.45,0,0,1-.94-.76,1.86,1.86,0,0,1-.3-1.06,2.15,2.15,0,0,1,.86-1.72,3.37,3.37,0,0,1,2.2-.7,3.46,3.46,0,0,1,2.28.72,2.34,2.34,0,0,1,.88,1.86h-1.43a1.26,1.26,0,0,0-.49-1,1.84,1.84,0,0,0-1.24-.42,1.91,1.91,0,0,0-1.21.34,1,1,0,0,0-.43.88.86.86,0,0,0,.4.77,4.89,4.89,0,0,0,1.47.49,7.74,7.74,0,0,1,1.71.57,2.57,2.57,0,0,1,1,.79,2,2,0,0,1,.31,1.13,2.12,2.12,0,0,1-.88,1.78,3.78,3.78,0,0,1-2.3.66,4.07,4.07,0,0,1-1.76-.35,2.85,2.85,0,0,1-1.2-1,2.33,2.33,0,0,1-.43-1.36h1.41a1.47,1.47,0,0,0,.57,1.12,2.21,2.21,0,0,0,1.41.42,2.31,2.31,0,0,0,1.28-.32A1,1,0,0,0,335,186Z"/><path class="cls-2" d="M340.12,177.87v2h1.55V181h-1.55v5.14a1.16,1.16,0,0,0,.21.75.88.88,0,0,0,.7.24,3.35,3.35,0,0,0,.67-.09v1.14a4.13,4.13,0,0,1-1.08.15,1.77,1.77,0,0,1-1.43-.57,2.46,2.46,0,0,1-.48-1.63V181H337.2v-1.09h1.51v-2Z"/><path class="cls-2" d="M346.75,188.29a3.62,3.62,0,0,1-2.74-1.1,4.11,4.11,0,0,1-1.05-2.95V184a5,5,0,0,1,.47-2.2,3.67,3.67,0,0,1,1.31-1.52,3.37,3.37,0,0,1,1.83-.54,3.08,3.08,0,0,1,2.51,1.06,4.58,4.58,0,0,1,.9,3v.59h-5.61a2.92,2.92,0,0,0,.72,2,2.23,2.23,0,0,0,1.74.75,2.38,2.38,0,0,0,1.26-.31A3,3,0,0,0,349,186l.87.68A3.47,3.47,0,0,1,346.75,188.29Zm-.18-7.41a1.88,1.88,0,0,0-1.43.62,3,3,0,0,0-.72,1.75h4.14v-.11a2.68,2.68,0,0,0-.58-1.67A1.8,1.8,0,0,0,346.57,180.88Z"/><path class="cls-2" d="M355.61,181.14a3.91,3.91,0,0,0-.7,0,1.85,1.85,0,0,0-1.88,1.18v5.87h-1.42v-8.27H353l0,1a2.19,2.19,0,0,1,2-1.11,1.32,1.32,0,0,1,.63.11Z"/><path class="cls-2" d="M364.78,181.14a3.84,3.84,0,0,0-.7,0,1.85,1.85,0,0,0-1.88,1.18v5.87h-1.42v-8.27h1.38l0,1a2.21,2.21,0,0,1,2-1.11,1.32,1.32,0,0,1,.63.11Z"/><path class="cls-2" d="M369.37,188.29a3.59,3.59,0,0,1-2.74-1.1,4.12,4.12,0,0,1-1.06-2.95V184a5,5,0,0,1,.47-2.2,3.77,3.77,0,0,1,1.32-1.52,3.32,3.32,0,0,1,1.83-.54,3.1,3.1,0,0,1,2.51,1.06,4.63,4.63,0,0,1,.89,3v.59H367a3,3,0,0,0,.71,2,2.26,2.26,0,0,0,1.74.75,2.39,2.39,0,0,0,1.27-.31,3,3,0,0,0,.91-.81l.86.68A3.47,3.47,0,0,1,369.37,188.29Zm-.18-7.41a1.91,1.91,0,0,0-1.44.62,3.16,3.16,0,0,0-.72,1.75h4.15v-.11a2.74,2.74,0,0,0-.58-1.67A1.8,1.8,0,0,0,369.19,180.88Z"/><path class="cls-2" d="M377.54,187.14a2,2,0,0,0,1.33-.46,1.62,1.62,0,0,0,.62-1.15h1.34a2.54,2.54,0,0,1-.49,1.36,3.15,3.15,0,0,1-1.2,1,3.43,3.43,0,0,1-1.6.38,3.39,3.39,0,0,1-2.68-1.12,4.47,4.47,0,0,1-1-3.09v-.23a5,5,0,0,1,.44-2.15,3.32,3.32,0,0,1,1.28-1.46,3.56,3.56,0,0,1,2-.52,3.36,3.36,0,0,1,2.31.83,3,3,0,0,1,1,2.16h-1.34a1.94,1.94,0,0,0-.6-1.31,1.89,1.89,0,0,0-1.35-.52,2,2,0,0,0-1.67.78,3.58,3.58,0,0,0-.6,2.24v.27a3.6,3.6,0,0,0,.59,2.2A2,2,0,0,0,377.54,187.14Z"/><path class="cls-2" d="M382.05,183.93a4.89,4.89,0,0,1,.47-2.19,3.53,3.53,0,0,1,3.28-2,3.48,3.48,0,0,1,2.73,1.17,4.47,4.47,0,0,1,1,3.11v.1a4.86,4.86,0,0,1-.46,2.16,3.57,3.57,0,0,1-1.32,1.5,3.62,3.62,0,0,1-2,.53,3.46,3.46,0,0,1-2.72-1.17,4.45,4.45,0,0,1-1-3.09Zm1.42.17a3.52,3.52,0,0,0,.64,2.21,2.17,2.17,0,0,0,3.42,0,3.93,3.93,0,0,0,.63-2.37,3.5,3.5,0,0,0-.65-2.21,2.15,2.15,0,0,0-3.4,0A3.84,3.84,0,0,0,383.47,184.1Z"/><path class="cls-2" d="M394,186.22l2.05-6.35h1.44l-3,8.27h-1.08l-3-8.27h1.45Z"/><path class="cls-2" d="M402.15,188.29a3.6,3.6,0,0,1-2.74-1.1,4.11,4.11,0,0,1-1.05-2.95V184a4.87,4.87,0,0,1,.47-2.2,3.67,3.67,0,0,1,1.31-1.52,3.32,3.32,0,0,1,1.83-.54,3.1,3.1,0,0,1,2.51,1.06,4.63,4.63,0,0,1,.89,3v.59h-5.6a2.92,2.92,0,0,0,.72,2,2.23,2.23,0,0,0,1.73.75,2.39,2.39,0,0,0,1.27-.31,3,3,0,0,0,.91-.81l.87.68A3.49,3.49,0,0,1,402.15,188.29Zm-.18-7.41a1.91,1.91,0,0,0-1.44.62,3.08,3.08,0,0,0-.71,1.75H404v-.11a2.74,2.74,0,0,0-.58-1.67A1.8,1.8,0,0,0,402,180.88Z"/><path class="cls-2" d="M411,181.14a3.91,3.91,0,0,0-.7,0,1.86,1.86,0,0,0-1.89,1.18v5.87H407v-8.27h1.37l0,1a2.19,2.19,0,0,1,2-1.11,1.37,1.37,0,0,1,.63.11Z"/><path class="cls-2" d="M415.15,186.07l1.92-6.2h1.52l-3.33,9.55c-.51,1.37-1.33,2.06-2.45,2.06l-.27,0-.53-.1v-1.15l.39,0a1.84,1.84,0,0,0,1.12-.29,2.2,2.2,0,0,0,.66-1.06l.31-.84-2.95-8.18h1.54Z"/><path class="cls-2" d="M428.83,188.14a2.92,2.92,0,0,1-.2-.87,3.16,3.16,0,0,1-2.35,1,2.92,2.92,0,0,1-2-.69,2.23,2.23,0,0,1-.78-1.75,2.34,2.34,0,0,1,1-2,4.65,4.65,0,0,1,2.76-.71h1.38v-.65a1.56,1.56,0,0,0-.45-1.18,1.74,1.74,0,0,0-1.3-.44,2,2,0,0,0-1.27.38,1.12,1.12,0,0,0-.51.92h-1.42a1.94,1.94,0,0,1,.43-1.19,3,3,0,0,1,1.2-.92,4.05,4.05,0,0,1,1.65-.33,3.31,3.31,0,0,1,2.24.71,2.6,2.6,0,0,1,.84,2v3.81a4.72,4.72,0,0,0,.29,1.81v.12Zm-2.35-1.08a2.43,2.43,0,0,0,1.26-.34,2.12,2.12,0,0,0,.87-.89v-1.7H427.5c-1.73,0-2.6.51-2.6,1.52a1.31,1.31,0,0,0,.44,1A1.72,1.72,0,0,0,426.48,187.06Z"/><path class="cls-2" d="M433.58,179.87l0,1a3,3,0,0,1,2.48-1.19c1.75,0,2.63,1,2.64,3v5.46h-1.41v-5.47a1.89,1.89,0,0,0-.41-1.32,1.62,1.62,0,0,0-1.25-.43,2,2,0,0,0-1.21.37,2.54,2.54,0,0,0-.81,1v5.89h-1.41v-8.27Z"/><path class="cls-2" d="M440.53,183.94a4.84,4.84,0,0,1,.9-3.06,2.84,2.84,0,0,1,2.37-1.16,2.89,2.89,0,0,1,2.3,1V176.4h1.41v11.74h-1.3l-.07-.89a2.85,2.85,0,0,1-2.36,1,2.82,2.82,0,0,1-2.34-1.17,4.88,4.88,0,0,1-.91-3.08Zm1.42.16a3.64,3.64,0,0,0,.58,2.2,1.86,1.86,0,0,0,1.6.79,2.08,2.08,0,0,0,2-1.2v-3.8a2.09,2.09,0,0,0-2-1.17,1.88,1.88,0,0,0-1.62.8A4,4,0,0,0,442,184.1Z"/><path class="cls-2" d="M457.58,181.14a3.91,3.91,0,0,0-.7,0,1.86,1.86,0,0,0-1.89,1.18v5.87h-1.41v-8.27H455l0,1a2.19,2.19,0,0,1,2-1.11,1.37,1.37,0,0,1,.63.11Z"/><path class="cls-2" d="M462.16,188.29a3.58,3.58,0,0,1-2.73-1.1,4.07,4.07,0,0,1-1.06-2.95V184a5,5,0,0,1,.47-2.2,3.7,3.7,0,0,1,1.32-1.52,3.32,3.32,0,0,1,1.83-.54,3.07,3.07,0,0,1,2.5,1.06,4.58,4.58,0,0,1,.9,3v.59h-5.6a2.91,2.91,0,0,0,.71,2,2.26,2.26,0,0,0,1.74.75,2.42,2.42,0,0,0,1.27-.31,3.16,3.16,0,0,0,.91-.81l.86.68A3.47,3.47,0,0,1,462.16,188.29Zm-.17-7.41a1.91,1.91,0,0,0-1.44.62,3,3,0,0,0-.72,1.75H464v-.11a2.68,2.68,0,0,0-.58-1.67A1.77,1.77,0,0,0,462,180.88Z"/><path class="cls-2" d="M471.84,186a1,1,0,0,0-.43-.89,4.13,4.13,0,0,0-1.51-.55,7.21,7.21,0,0,1-1.7-.55,2.53,2.53,0,0,1-.94-.76,1.86,1.86,0,0,1-.3-1.06,2.15,2.15,0,0,1,.86-1.72,3.37,3.37,0,0,1,2.2-.7,3.46,3.46,0,0,1,2.28.72,2.34,2.34,0,0,1,.88,1.86h-1.43a1.26,1.26,0,0,0-.49-1,1.84,1.84,0,0,0-1.24-.42,1.91,1.91,0,0,0-1.21.34,1,1,0,0,0-.43.88.86.86,0,0,0,.4.77,4.89,4.89,0,0,0,1.47.49,7.74,7.74,0,0,1,1.71.57,2.57,2.57,0,0,1,1,.79,2,2,0,0,1,.31,1.13,2.12,2.12,0,0,1-.88,1.78,3.76,3.76,0,0,1-2.3.66,4.07,4.07,0,0,1-1.76-.35,2.85,2.85,0,0,1-1.2-1,2.33,2.33,0,0,1-.43-1.36h1.41a1.47,1.47,0,0,0,.57,1.12,2.23,2.23,0,0,0,1.41.42,2.31,2.31,0,0,0,1.28-.32A1,1,0,0,0,471.84,186Z"/><path class="cls-2" d="M475.1,177.68a.83.83,0,0,1,.21-.58.79.79,0,0,1,.63-.24.78.78,0,0,1,.62.24.83.83,0,0,1,.22.58.77.77,0,0,1-.84.8.82.82,0,0,1-.63-.23A.8.8,0,0,1,475.1,177.68Zm1.53,10.46h-1.41v-8.27h1.41Z"/><path class="cls-2" d="M480.43,188.14H479V176.4h1.41Z"/><path class="cls-2" d="M482.7,177.68a.83.83,0,0,1,.21-.58.78.78,0,0,1,.62-.24.79.79,0,0,1,.63.24.83.83,0,0,1,.21.58.8.8,0,0,1-.21.57.82.82,0,0,1-.63.23.81.81,0,0,1-.62-.23A.8.8,0,0,1,482.7,177.68Zm1.53,10.46h-1.42v-8.27h1.42Z"/><path class="cls-2" d="M489.92,188.29a3.58,3.58,0,0,1-2.73-1.1,4.07,4.07,0,0,1-1.06-2.95V184a5,5,0,0,1,.47-2.2,3.63,3.63,0,0,1,1.32-1.52,3.32,3.32,0,0,1,1.83-.54,3.07,3.07,0,0,1,2.5,1.06,4.58,4.58,0,0,1,.9,3v.59h-5.6a2.91,2.91,0,0,0,.71,2,2.26,2.26,0,0,0,1.74.75,2.42,2.42,0,0,0,1.27-.31,3.16,3.16,0,0,0,.91-.81l.86.68A3.47,3.47,0,0,1,489.92,188.29Zm-.17-7.41a1.91,1.91,0,0,0-1.44.62,3,3,0,0,0-.72,1.75h4.14v-.11a2.68,2.68,0,0,0-.58-1.67A1.77,1.77,0,0,0,489.75,180.88Z"/><path class="cls-2" d="M496.12,179.87l.05,1a3,3,0,0,1,2.47-1.19c1.75,0,2.63,1,2.65,3v5.46h-1.42v-5.47a1.89,1.89,0,0,0-.4-1.32,1.63,1.63,0,0,0-1.25-.43,2,2,0,0,0-1.21.37,2.37,2.37,0,0,0-.81,1v5.89h-1.42v-8.27Z"/><path class="cls-2" d="M506.74,187.14a2,2,0,0,0,1.32-.46,1.6,1.6,0,0,0,.63-1.15H510a2.46,2.46,0,0,1-.49,1.36,3.15,3.15,0,0,1-1.2,1,3.69,3.69,0,0,1-4.28-.74,4.52,4.52,0,0,1-1-3.09v-.23a4.89,4.89,0,0,1,.45-2.15,3.3,3.3,0,0,1,1.27-1.46,3.59,3.59,0,0,1,2-.52,3.32,3.32,0,0,1,2.31.83,3,3,0,0,1,1,2.16h-1.33a2,2,0,0,0-.61-1.31,1.87,1.87,0,0,0-1.35-.52,2,2,0,0,0-1.67.78,3.58,3.58,0,0,0-.59,2.24v.27a3.53,3.53,0,0,0,.59,2.2A2,2,0,0,0,506.74,187.14Z"/><path class="cls-2" d="M515.05,188.29a3.59,3.59,0,0,1-2.74-1.1,4.12,4.12,0,0,1-1.06-2.95V184a5,5,0,0,1,.47-2.2,3.77,3.77,0,0,1,1.32-1.52,3.32,3.32,0,0,1,1.83-.54,3.1,3.1,0,0,1,2.51,1.06,4.63,4.63,0,0,1,.89,3v.59h-5.6a3,3,0,0,0,.71,2,2.26,2.26,0,0,0,1.74.75,2.42,2.42,0,0,0,1.27-.31,3,3,0,0,0,.91-.81l.86.68A3.47,3.47,0,0,1,515.05,188.29Zm-.18-7.41a1.91,1.91,0,0,0-1.44.62,3.16,3.16,0,0,0-.72,1.75h4.15v-.11a2.74,2.74,0,0,0-.58-1.67A1.8,1.8,0,0,0,514.87,180.88Z"/><path class="cls-2" d="M377.88,206.92a2.92,2.92,0,0,1-.2-.87,3.13,3.13,0,0,1-2.35,1,2.92,2.92,0,0,1-2-.69,2.26,2.26,0,0,1-.78-1.76,2.31,2.31,0,0,1,1-2,4.58,4.58,0,0,1,2.76-.72h1.38v-.65a1.57,1.57,0,0,0-.45-1.18,1.78,1.78,0,0,0-1.3-.44,2.08,2.08,0,0,0-1.27.38,1.15,1.15,0,0,0-.51.93H372.7a2,2,0,0,1,.44-1.2,3,3,0,0,1,1.2-.91,3.9,3.9,0,0,1,1.65-.34,3.26,3.26,0,0,1,2.24.72,2.56,2.56,0,0,1,.84,2V205a4.72,4.72,0,0,0,.29,1.81v.12Zm-2.35-1.07a2.44,2.44,0,0,0,1.26-.35,2.07,2.07,0,0,0,.87-.89v-1.7h-1.11c-1.73,0-2.6.51-2.6,1.52a1.29,1.29,0,0,0,.44,1A1.72,1.72,0,0,0,375.53,205.85Z"/><path class="cls-2" d="M386.1,204.73a1,1,0,0,0-.43-.89,4.34,4.34,0,0,0-1.5-.55,6.73,6.73,0,0,1-1.71-.55,2.33,2.33,0,0,1-.93-.76,1.86,1.86,0,0,1-.3-1.06,2.11,2.11,0,0,1,.86-1.71,3.33,3.33,0,0,1,2.19-.71,3.46,3.46,0,0,1,2.29.73,2.3,2.3,0,0,1,.87,1.86H386a1.28,1.28,0,0,0-.49-1,1.87,1.87,0,0,0-1.25-.42,1.94,1.94,0,0,0-1.2.34,1.06,1.06,0,0,0-.44.88.86.86,0,0,0,.41.77,5,5,0,0,0,1.46.5,7.71,7.71,0,0,1,1.72.56,2.62,2.62,0,0,1,1,.79,2,2,0,0,1,.32,1.13,2.13,2.13,0,0,1-.89,1.78,3.69,3.69,0,0,1-2.3.67,4.25,4.25,0,0,1-1.76-.35,2.85,2.85,0,0,1-1.19-1,2.33,2.33,0,0,1-.43-1.36h1.41a1.44,1.44,0,0,0,.57,1.13,2.24,2.24,0,0,0,1.4.41,2.26,2.26,0,0,0,1.29-.32A1,1,0,0,0,386.1,204.73Z"/><path class="cls-2" d="M394.18,204.73a1,1,0,0,0-.44-.89,4.34,4.34,0,0,0-1.5-.55,6.73,6.73,0,0,1-1.71-.55,2.33,2.33,0,0,1-.93-.76,1.86,1.86,0,0,1-.3-1.06,2.14,2.14,0,0,1,.86-1.71,3.34,3.34,0,0,1,2.2-.71,3.45,3.45,0,0,1,2.28.73,2.3,2.3,0,0,1,.87,1.86h-1.42a1.28,1.28,0,0,0-.49-1,1.84,1.84,0,0,0-1.24-.42,2,2,0,0,0-1.21.34,1.06,1.06,0,0,0-.44.88.86.86,0,0,0,.41.77,5.16,5.16,0,0,0,1.46.5,7.71,7.71,0,0,1,1.72.56,2.54,2.54,0,0,1,1,.79,2,2,0,0,1,.32,1.13,2.13,2.13,0,0,1-.89,1.78,3.69,3.69,0,0,1-2.3.67,4.25,4.25,0,0,1-1.76-.35,2.91,2.91,0,0,1-1.19-1,2.33,2.33,0,0,1-.43-1.36h1.41a1.51,1.51,0,0,0,.57,1.13,2.67,2.67,0,0,0,2.69.09A1,1,0,0,0,394.18,204.73Z"/><path class="cls-2" d="M397.44,196.46a.84.84,0,0,1,.21-.58.78.78,0,0,1,.62-.24.79.79,0,0,1,.63.24.84.84,0,0,1,.21.58.8.8,0,0,1-.21.57.79.79,0,0,1-.63.23.78.78,0,0,1-.62-.23A.8.8,0,0,1,397.44,196.46ZM399,206.92h-1.42v-8.27H399Z"/><path class="cls-2" d="M406.05,204.73a1,1,0,0,0-.44-.89,4.34,4.34,0,0,0-1.5-.55,6.73,6.73,0,0,1-1.71-.55,2.33,2.33,0,0,1-.93-.76,1.86,1.86,0,0,1-.3-1.06,2.14,2.14,0,0,1,.86-1.71,3.34,3.34,0,0,1,2.2-.71,3.45,3.45,0,0,1,2.28.73,2.3,2.3,0,0,1,.87,1.86H406a1.28,1.28,0,0,0-.49-1,1.84,1.84,0,0,0-1.24-.42A2,2,0,0,0,403,200a1.06,1.06,0,0,0-.44.88.86.86,0,0,0,.41.77,5.16,5.16,0,0,0,1.46.5,7.71,7.71,0,0,1,1.72.56,2.54,2.54,0,0,1,1,.79,2,2,0,0,1,.32,1.13,2.13,2.13,0,0,1-.89,1.78,3.69,3.69,0,0,1-2.3.67,4.25,4.25,0,0,1-1.76-.35,2.91,2.91,0,0,1-1.19-1,2.33,2.33,0,0,1-.43-1.36h1.41a1.51,1.51,0,0,0,.57,1.13,2.67,2.67,0,0,0,2.69.09A1,1,0,0,0,406.05,204.73Z"/><path class="cls-2" d="M411.22,196.65v2h1.54v1.1h-1.54v5.13a1.16,1.16,0,0,0,.21.75.84.84,0,0,0,.7.25,3.44,3.44,0,0,0,.67-.09v1.14a4.13,4.13,0,0,1-1.08.15,1.73,1.73,0,0,1-1.43-.58,2.45,2.45,0,0,1-.48-1.62v-5.13H408.3v-1.1h1.51v-2Z"/><path class="cls-2" d="M419.52,206.92a2.92,2.92,0,0,1-.2-.87,3.13,3.13,0,0,1-2.35,1,2.92,2.92,0,0,1-2-.69,2.26,2.26,0,0,1-.78-1.76,2.31,2.31,0,0,1,1-2,4.6,4.6,0,0,1,2.76-.72h1.38v-.65a1.61,1.61,0,0,0-.44-1.18,1.82,1.82,0,0,0-1.31-.44,2.08,2.08,0,0,0-1.27.38,1.15,1.15,0,0,0-.51.93h-1.42a2,2,0,0,1,.43-1.2,3.09,3.09,0,0,1,1.2-.91,3.9,3.9,0,0,1,1.65-.34,3.26,3.26,0,0,1,2.24.72,2.56,2.56,0,0,1,.84,2V205a4.72,4.72,0,0,0,.29,1.81v.12Zm-2.35-1.07a2.51,2.51,0,0,0,1.27-.35,2.1,2.1,0,0,0,.86-.89v-1.7h-1.11c-1.73,0-2.6.51-2.6,1.52a1.29,1.29,0,0,0,.44,1A1.72,1.72,0,0,0,417.17,205.85Z"/><path class="cls-2" d="M424.27,198.65l0,1a3,3,0,0,1,2.48-1.19c1.75,0,2.63,1,2.64,3v5.46H428v-5.47a1.93,1.93,0,0,0-.41-1.32,1.62,1.62,0,0,0-1.25-.43,2,2,0,0,0-1.21.37,2.54,2.54,0,0,0-.81,1v5.89h-1.41v-8.27Z"/><path class="cls-2" d="M434.88,205.92a2,2,0,0,0,1.33-.46,1.6,1.6,0,0,0,.62-1.14h1.34a2.62,2.62,0,0,1-.49,1.35,3.26,3.26,0,0,1-1.2,1,3.59,3.59,0,0,1-1.6.38A3.4,3.4,0,0,1,432.2,206a4.46,4.46,0,0,1-1-3.08v-.24a5.07,5.07,0,0,1,.44-2.15,3.48,3.48,0,0,1,1.27-1.46,3.71,3.71,0,0,1,2-.52,3.32,3.32,0,0,1,2.31.84,3,3,0,0,1,1,2.16h-1.34a1.91,1.91,0,0,0-.61-1.32,1.89,1.89,0,0,0-1.34-.52,2,2,0,0,0-1.67.78,3.6,3.6,0,0,0-.6,2.24V203a3.58,3.58,0,0,0,.59,2.2A2,2,0,0,0,434.88,205.92Z"/><path class="cls-2" d="M443.19,207.08a3.62,3.62,0,0,1-2.74-1.11A4.09,4.09,0,0,1,439.4,203v-.26a5,5,0,0,1,.47-2.2,3.65,3.65,0,0,1,1.31-1.51,3.3,3.3,0,0,1,1.84-.55,3.1,3.1,0,0,1,2.5,1.06,4.61,4.61,0,0,1,.9,3.05v.58h-5.61a2.92,2.92,0,0,0,.72,2,2.25,2.25,0,0,0,1.74.75,2.51,2.51,0,0,0,1.27-.3,3.49,3.49,0,0,0,.91-.81l.86.67A3.46,3.46,0,0,1,443.19,207.08Zm-.17-7.42a1.87,1.87,0,0,0-1.44.63,3,3,0,0,0-.72,1.74H445v-.1a2.65,2.65,0,0,0-.58-1.67A1.76,1.76,0,0,0,443,199.66Z"/><rect class="cls-3" x="45.17" y="44.18" width="161.63" height="161.63" transform="translate(-51.49 125.7) rotate(-45)"/><g class="cls-4"><path class="cls-2" d="M126,227.67,23.32,125,126,22.33,228.66,125ZM26.5,125,126,224.49,225.48,125,126,25.51ZM126,214.63,91.72,180.36l26.21-26.2L92.52,128.75l-18,18,11.91,11.91,4.93-4.94-7-7,8.15-8.16,15.54,15.54L86.79,175.43l-30-30L77.3,125,56.83,104.53l30-30,21.27,21.27L92.52,111.38l-8.15-8.16,7-7-4.93-4.94L74.5,103.22l18,18,25.41-25.41L91.72,69.64,126,35.37l34.26,34.27-26.2,26.2,25.41,25.41,18-18L165.57,91.31l-4.93,4.94,7,7-8.15,8.16L143.92,95.84l21.27-21.27,30,30L174.68,125l20.47,20.47-30,30-21.27-21.27,15.54-15.54,8.15,8.16-7,7,4.93,4.94,11.91-11.91-18-18-25.41,25.41,26.21,26.2ZM94.9,180.36,126,211.45l31.09-31.09-26.2-26.2,28.58-28.58,21.19,21.2-15.08,15.08-8.1-8.11,7-7-5-5-12.37,12.37,18.1,18.09L192,145.47,171.5,125,192,104.53,165.19,77.75l-18.1,18.09,12.37,12.37,5-5-7-7,8.1-8.11,15.08,15.08-21.19,21.2L130.88,95.84l26.2-26.2L126,38.55,94.9,69.64l26.2,26.2L92.52,124.42l-21.19-21.2L86.41,88.14l8.1,8.11-7,7,5,5,12.37-12.37L86.79,77.75,60,104.53,80.48,125,60,145.47l26.78,26.78,18.1-18.09L92.52,141.79l-5,5,7,7-8.1,8.11L71.33,146.78l21.19-21.2,28.58,28.58Zm105.18-39.82L184.54,125l15.54-15.54L215.62,125ZM187.72,125l12.36,12.36L212.44,125l-12.36-12.36ZM51.9,140.54,36.36,125,51.9,109.46,67.44,125ZM39.54,125,51.9,137.36,64.26,125,51.9,112.64Z"/><path class="cls-2" d="M126,204l-24-24,24-24,24,24Zm-20.87-24L126,200.87,146.86,180,126,159.13Z"/><path class="cls-2" d="M126,93.37l-24-24,24-24,24,24Zm-20.87-24L126,90.2l20.87-20.87L126,48.47Z"/></g><path class="cls-2" d="M41.8,124.52a4.92,4.92,0,0,1-2.69.07,5.41,5.41,0,0,1-3.78-3.78,4.92,4.92,0,0,1,.07-2.69,5.8,5.8,0,0,1,1.5-2.45,5.91,5.91,0,0,1,2-1.34,4.68,4.68,0,0,1,2.18-.32L41,116a3.2,3.2,0,0,0-2.62.95,3.43,3.43,0,0,0-.89,1.47,2.85,2.85,0,0,0,0,1.61,3.31,3.31,0,0,0,.88,1.47,3.43,3.43,0,0,0,1.47.89,2.94,2.94,0,0,0,1.61,0,3.43,3.43,0,0,0,1.47-.89,3.2,3.2,0,0,0,.94-2.63l2-.08a4.63,4.63,0,0,1-.31,2.2,6.1,6.1,0,0,1-1.35,2A5.85,5.85,0,0,1,41.8,124.52Z"/><path class="cls-2" d="M49.09,117.22A5,5,0,0,1,44,115.91a5,5,0,0,1-1.31-5.08,5.85,5.85,0,0,1,1.52-2.48,5.92,5.92,0,0,1,2.46-1.51,5.14,5.14,0,0,1,6.4,6.4,5.92,5.92,0,0,1-1.51,2.46A5.85,5.85,0,0,1,49.09,117.22ZM51,112.88a2.94,2.94,0,0,0,0-1.61,3.63,3.63,0,0,0-2.35-2.35,2.94,2.94,0,0,0-1.61,0,3.4,3.4,0,0,0-2.27,2.27,3,3,0,0,0,0,1.6,3.6,3.6,0,0,0,2.36,2.36,3,3,0,0,0,1.6,0,3.31,3.31,0,0,0,1.43-.85A3.2,3.2,0,0,0,51,112.88Z"/><path class="cls-2" d="M56.06,96.76l4,10.17-1.62,1.63-10.17-4,1.77-1.78,7.24,2.91-2.88-7.26Z"/><path class="cls-2" d="M56.65,96.17l1.64-1.65,7.11,7.11-1.65,1.64Z"/><path class="cls-2" d="M60,92.84l3.22-3.23A6.42,6.42,0,0,1,65.69,88a4.7,4.7,0,0,1,2.62-.14,5.39,5.39,0,0,1,3.74,3.74,4.7,4.7,0,0,1-.14,2.62,6.42,6.42,0,0,1-1.6,2.49l-3.23,3.22Zm8.9,2.61a3.35,3.35,0,0,0,1.1-2.3,3,3,0,0,0-1-2.24,2.94,2.94,0,0,0-2.24-1,3.39,3.39,0,0,0-2.3,1.1L63,92.55,67.38,97Z"/><path class="cls-2" d="M82.86,84.16l-3.35-.61-.08.08L78,85.07l2,2-1.65,1.64-7.1-7.11,3.08-3.07a5.44,5.44,0,0,1,2-1.32,3.34,3.34,0,0,1,2-.18A3.57,3.57,0,0,1,80,78a3.33,3.33,0,0,1,1,1.75,3.44,3.44,0,0,1-.2,2l3.88.69Zm-5.86-5a2.48,2.48,0,0,0-1.44.81l-1.34,1.34,2.47,2.48L78,82.42a2.45,2.45,0,0,0,.8-1.45,1.59,1.59,0,0,0-.52-1.3A1.62,1.62,0,0,0,77,79.13Z"/><path class="cls-2" d="M88.71,73.74l-4.12,4.13a1.78,1.78,0,0,0,1.32.28,2.41,2.41,0,0,0,1.33-.75,2.67,2.67,0,0,0,.63-.88,2.53,2.53,0,0,0,.22-1l1.75.07a4,4,0,0,1-1.37,3.13,5.06,5.06,0,0,1-2,1.28,3.77,3.77,0,0,1-2.1.09A3.81,3.81,0,0,1,82.55,79a4,4,0,0,1-1.07-1.83,3.76,3.76,0,0,1,0-2,4.34,4.34,0,0,1,1.13-1.85,4.28,4.28,0,0,1,1.79-1.1,3.61,3.61,0,0,1,2,0,4.14,4.14,0,0,1,1.87,1.13Zm-5.45,2A1.78,1.78,0,0,0,83.64,77l2.69-2.69a1.83,1.83,0,0,0-1.27-.38,2,2,0,0,0-1.8,1.79Z"/><path class="cls-2" d="M92.5,74.35a4.86,4.86,0,0,1-1.45.61l-.61-1.66a4.63,4.63,0,0,0,1.26-.51,5.13,5.13,0,0,0,1.17-.86c.67-.67.83-1.18.5-1.51a.51.51,0,0,0-.61-.06,5.91,5.91,0,0,0-1,.67,13,13,0,0,1-1.34.88,2.46,2.46,0,0,1-1.22.28,1.9,1.9,0,0,1-1.28-.63,2.14,2.14,0,0,1-.62-1.22,2.82,2.82,0,0,1,.25-1.49,5.27,5.27,0,0,1,1.14-1.58,7.43,7.43,0,0,1,1.27-1,5.09,5.09,0,0,1,1.3-.6l.6,1.66a4.54,4.54,0,0,0-2,1.16,2.36,2.36,0,0,0-.62.91.6.6,0,0,0,.11.62.52.52,0,0,0,.63.08,7.13,7.13,0,0,0,1.07-.68,13.5,13.5,0,0,1,1.33-.86,2.37,2.37,0,0,1,1.21-.28,1.85,1.85,0,0,1,1.24.62,2,2,0,0,1,.6,1.21,2.77,2.77,0,0,1-.27,1.5A5.3,5.3,0,0,1,94,73.18,7,7,0,0,1,92.5,74.35Z"/><path class="cls-2" d="M96.89,59.75a3.66,3.66,0,0,1,2,0,4.57,4.57,0,0,1,3,3,3.53,3.53,0,0,1,0,2,3.93,3.93,0,0,1-1,1.73,3,3,0,0,1-2.3,1L101,69.94l-1.59,1.58L92,64.09l1.52-1.51.62.63a3,3,0,0,1,1-2.43A4,4,0,0,1,96.89,59.75ZM99.8,64a2.2,2.2,0,0,0-.71-1.49,2.16,2.16,0,0,0-1.5-.71,1.88,1.88,0,0,0-1.41.59,1.84,1.84,0,0,0-.58,1.41A2.47,2.47,0,0,0,97.8,66a1.88,1.88,0,0,0,1.41-.59A1.91,1.91,0,0,0,99.8,64Z"/><path class="cls-2" d="M105.25,61.22a3.75,3.75,0,0,1-2.07.07,3.81,3.81,0,0,1-1.84-1.07,3.77,3.77,0,0,1-1-3.9,4.75,4.75,0,0,1,1.19-1.91,4.65,4.65,0,0,1,1.9-1.18,3.84,3.84,0,0,1,2.07-.07,3.94,3.94,0,0,1,1.84,1.07,3.89,3.89,0,0,1,1.06,1.83,3.83,3.83,0,0,1-.06,2.07,5,5,0,0,1-3.09,3.09Zm1.19-3.9a2.16,2.16,0,0,0-.71-1.49,2.18,2.18,0,0,0-1.49-.71,2,2,0,0,0-2,2,2.44,2.44,0,0,0,2.2,2.21,1.86,1.86,0,0,0,1.41-.6A1.81,1.81,0,0,0,106.44,57.32Z"/><path class="cls-2" d="M111.15,46a3.45,3.45,0,0,1,2.43,1.18l3.12,3.13-1.58,1.58L112.24,49a2,2,0,0,0-1.26-.68,1.45,1.45,0,0,0-1.14.5,1.77,1.77,0,0,0-.58,1.32,2.16,2.16,0,0,0,.75,1.46l2.7,2.7-1.59,1.58-5.46-5.46,1.51-1.51.64.64a2.89,2.89,0,0,1,.25-1.31A4,4,0,0,1,108.9,47,3.22,3.22,0,0,1,111.15,46Z"/><path class="cls-2" d="M118.55,48.3a5,5,0,0,1-1.45.61l-.61-1.66a4.63,4.63,0,0,0,1.26-.51,4.86,4.86,0,0,0,1.16-.86c.68-.67.84-1.17.51-1.51a.5.5,0,0,0-.61,0,5.2,5.2,0,0,0-1,.66,13,13,0,0,1-1.34.88,2.47,2.47,0,0,1-1.22.29,1.9,1.9,0,0,1-1.28-.64,2.14,2.14,0,0,1-.62-1.22,2.82,2.82,0,0,1,.25-1.49,5.41,5.41,0,0,1,1.13-1.58,7.91,7.91,0,0,1,1.28-1,4.72,4.72,0,0,1,1.3-.59l.6,1.65a4.47,4.47,0,0,0-2,1.17,2.27,2.27,0,0,0-.62.9.6.6,0,0,0,.11.62A.51.51,0,0,0,116,44a7.13,7.13,0,0,0,1.07-.68,13.5,13.5,0,0,1,1.33-.86,2.37,2.37,0,0,1,1.21-.28,1.87,1.87,0,0,1,1.24.62,2,2,0,0,1,.6,1.21,2.77,2.77,0,0,1-.27,1.5,5.48,5.48,0,0,1-1.17,1.6A7,7,0,0,1,118.55,48.3Z"/><path class="cls-2" d="M126.56,35.9,122.43,40a1.77,1.77,0,0,0,1.32.27,2.39,2.39,0,0,0,1.33-.74,2.67,2.67,0,0,0,.63-.88,2.53,2.53,0,0,0,.22-1l1.75.07a4,4,0,0,1-1.37,3.13,5.06,5.06,0,0,1-2,1.28,3.77,3.77,0,0,1-2.1.09,3.81,3.81,0,0,1-1.83-1.06,4,4,0,0,1-1.07-1.83,3.86,3.86,0,0,1,0-2.05,4.34,4.34,0,0,1,1.13-1.85,4.28,4.28,0,0,1,1.79-1.1,3.44,3.44,0,0,1,2,0,4.21,4.21,0,0,1,1.87,1.12Zm-5.46,2a1.82,1.82,0,0,0,.38,1.28l2.69-2.69a1.83,1.83,0,0,0-1.27-.38,1.89,1.89,0,0,0-1.2.58A1.92,1.92,0,0,0,121.1,37.85Z"/><path class="cls-2" d="M80.49,142.83c.41-1.08.79-2.19,1.25-3.25.61-1.39,1.27-2.75,1.93-4.11a2.51,2.51,0,0,1,3.75-1.28c1.88.94,3.73,1.93,5.61,2.86a2.5,2.5,0,0,1,1.7,2.3A2.33,2.33,0,0,1,93,141.6a3,3,0,0,0-.41.25c.64,1.36,1.22,2.77,2,4.1a35.15,35.15,0,0,0,18.8,16.3c.26.1.52.19.77.3a1.39,1.39,0,0,1,.84,1.81,1.37,1.37,0,0,1-1.83.77c-.39-.12-.76-.26-1.13-.41a37.93,37.93,0,0,1-22.33-22.91c-.51-1.37-.32-1.71,1.3-2.54l-4.68-2-2.41,4.38c.23,0,.35,0,.46,0,1.4-.33,1.77-.13,2.28,1.24a37.89,37.89,0,0,0,4.35,8.76c9.73,13.91,23,20.18,40,18.58.82-.08,1.64-.24,2.57-.39-.13-.57-.23-1.08-.35-1.58s-.27-.94-.42-1.48a33.43,33.43,0,0,1-3.93.42c-3,0-5.9-.18-8.85-.32a1.24,1.24,0,0,1-1.35-1.24,2.15,2.15,0,0,1,.72-1.36c.25-.22.82-.16,1.23-.1a35.41,35.41,0,0,0,10.68,0c.7-.11,1.39-.26,2.09-.38a1.38,1.38,0,0,1,1.81,1.11q.75,2.73,1.38,5.47c.27,1.15-.08,1.68-1.24,1.94a42.08,42.08,0,0,1-20.5-.34,43.91,43.91,0,0,1-28-21.91c-.7-1.26-1.25-2.61-1.86-3.93-.22-.46-.42-.94-.67-1.49a2.63,2.63,0,0,1-3.37-.7Z"/><path class="cls-2" d="M116.2,119.53v-18.1c0-1.46.39-1.85,1.84-1.85,4.28,0,8.56,0,12.84,0,1.84,0,2.14.28,2.14,2.09v17.86h2.62c1.54,0,3.09,0,4.63,0,1,0,1.57.52,1.58,1.32a1.4,1.4,0,0,1-1.57,1.35c-2.76,0-5.53,0-8.29,0-1.19,0-1.64-.53-1.65-1.82V102.31H118.87v17.86c0,1.65-.39,2-2.06,2H99v11.46h17.83c1.66,0,2.05.39,2.05,2.05v17.86h11.47V135.66c0-1.59.41-2,2-2h17.88V122.2c-1.11,0-2.23,0-3.35,0s-1.85-1.07-1.28-1.94a1.77,1.77,0,0,1,1.22-.69c1.57-.09,3.14,0,4.72,0A1.29,1.29,0,0,1,153,121q0,6.91,0,13.82c0,1.07-.5,1.52-1.64,1.52H133v18c0,1.56-.37,1.92-2,1.92H118c-1.45,0-1.84-.4-1.84-1.85V136.34H98.13c-1.51,0-1.89-.37-1.89-1.89V121.34c0-1.4.41-1.81,1.8-1.81H116.2Z"/><path class="cls-2" d="M165.29,120.66l2.49-4.52c-.3,0-.48.07-.64.11-1.14.27-1.64,0-2-1.11a43.17,43.17,0,0,0-5.51-10.53,41,41,0,0,0-12-11.18,11,11,0,0,1-1.17-.74,1.27,1.27,0,0,1-.35-1.8,1.26,1.26,0,0,1,1.76-.52,13.32,13.32,0,0,1,1.68,1,44.06,44.06,0,0,1,17.31,20.5c.17.43.36.85.57,1.32l1-.21a2.21,2.21,0,0,1,2.57,2.91c-1,2.39-2.11,4.73-3.3,7a2.32,2.32,0,0,1-3.25.81c-2-1-4.06-2.07-6.1-3.11a2.27,2.27,0,0,1-1.38-2.21,2.22,2.22,0,0,1,1.48-2c.2-.08.38-.2.61-.32a27.36,27.36,0,0,0-3.46-6.74c-8.36-11.83-19.79-17-34.2-15.71-1,.1-2,.33-2.92.51s-1.67-.12-2-1.17q-.7-2.62-1.34-5.29c-.29-1.26,0-1.79,1.3-2.07a43.49,43.49,0,0,1,25.25,1.91,1.37,1.37,0,0,1,1,1.88c-.33.79-1.07,1-2.11.65a40.77,40.77,0,0,0-18.43-2.52c-1.3.12-2.6.33-4,.52l.75,3a75.79,75.79,0,0,1,7.73-.39c14.9.68,26,7.56,33.29,20.63a43.6,43.6,0,0,1,2.08,4.74c.57,1.4.38,1.81-1,2.46a2.92,2.92,0,0,0-.41.27Z"/><path class="cls-2" d="M158.91,162.89c0,1.52,0,2.87,0,4.22s-.48,1.76-1.71,1.78c-1.78,0-3.57,0-5.36,0-1.18,0-1.66-.5-1.67-1.7,0-1.38,0-2.76,0-4.28h-3.93c-1.69,0-2.08-.38-2.08-2.06s0-3.2,0-4.81c0-1.42.47-1.89,1.88-1.9l4.13,0c0-1.49,0-2.87,0-4.24s.47-1.71,1.74-1.72c1.79,0,3.58,0,5.36,0,1.14,0,1.62.49,1.64,1.63,0,1.39,0,2.77,0,4.32l3.78,0c1.86,0,2.2.34,2.21,2.2,0,1.48,0,3,0,4.44,0,1.81-.32,2.13-2.17,2.14ZM153,166.06h3.19c0-1.32,0-2.58,0-3.84,0-1.7.36-2.08,2-2.09H162v-3.23c-1.41,0-2.76,0-4.11,0s-1.8-.45-1.81-1.83,0-2.7,0-4.06H153a.64.64,0,0,0-.09.21c0,1.2,0,2.41,0,3.61,0,1.69-.37,2.08-2,2.09H147v3.23c1.42,0,2.79,0,4.17,0s1.77.48,1.78,1.79S153,164.64,153,166.06Z"/><path class="cls-2" d="M170.83,142.41c.8,0,1.51,0,2.21,0a1.42,1.42,0,0,1,1.52,1.4,1.41,1.41,0,0,1-1.55,1.36c-.67,0-1.34,0-2.18,0,0,.75,0,1.44,0,2.14,0,1-.55,1.6-1.4,1.59s-1.34-.55-1.37-1.61c0-.62,0-1.23,0-1.85,0,0-.06-.1-.14-.26-.64,0-1.34,0-2,0a1.37,1.37,0,0,1-1.51-1.38,1.4,1.4,0,0,1,1.52-1.39c.7,0,1.4,0,2.2,0,0-.8,0-1.5,0-2.2a1.38,1.38,0,0,1,1.38-1.52c.8,0,1.33.58,1.38,1.53,0,.34,0,.68,0,1S170.82,141.92,170.83,142.41Z"/><path class="cls-2" d="M93.07,95.9c0-1.51,0-2.86,0-4.21s.48-1.76,1.7-1.78c1.79,0,3.58,0,5.37,0,1.18,0,1.65.49,1.67,1.7,0,1.38,0,2.76,0,4.27h3.94c1.69,0,2.08.38,2.08,2.07s0,3.2,0,4.8c0,1.43-.47,1.9-1.88,1.91h-4.13c0,1.49,0,2.87,0,4.25s-.46,1.71-1.73,1.72c-1.79,0-3.58,0-5.36,0-1.14,0-1.62-.49-1.64-1.64,0-1.38,0-2.77,0-4.31H89.32c-1.86,0-2.2-.33-2.21-2.2,0-1.48,0-3,0-4.43,0-1.81.33-2.14,2.18-2.14Zm6-3.16H95.83c0,1.32,0,2.58,0,3.84,0,1.69-.37,2.08-2,2.09H89.94v3.23l4.1,0c1.36,0,1.81.46,1.82,1.84s0,2.69,0,4.06H99c.05-.11.09-.16.09-.22V104c0-1.69.38-2.08,2-2.09H105V98.64c-1.42,0-2.79,0-4.17,0s-1.77-.48-1.79-1.79S99,94.15,99,92.74Z"/><path class="cls-2" d="M81.15,116.39c-.81,0-1.51,0-2.21,0a1.39,1.39,0,1,1,0-2.77c.68,0,1.35,0,2.19,0,0-.74,0-1.44,0-2.13,0-1,.55-1.6,1.4-1.59s1.34.55,1.37,1.61c0,.61,0,1.23,0,1.85,0,.05,0,.1.13.25.65,0,1.35,0,2,0A1.37,1.37,0,0,1,87.65,115a1.41,1.41,0,0,1-1.52,1.4c-.7,0-1.4,0-2.2,0,0,.8,0,1.5,0,2.2a1.39,1.39,0,0,1-1.38,1.52c-.8,0-1.33-.58-1.38-1.53,0-.34,0-.68,0-1S81.16,116.88,81.15,116.39Z"/></svg>