<svg width="645" height="250" viewBox="0 0 645 250" fill="none" xmlns="http://www.w3.org/2000/svg">
<path d="M8.23999 125L122.01 238.77H523.57L637.34 125L523.57 11.23H122.01L8.23999 125Z" stroke="#2D9747" stroke-width="2.6" stroke-miterlimit="10"/>
<path d="M311.93 99.4501V102.82H317.83V105.19H311.93V109.84H308.93V97.0801H318.58V99.4501H311.93Z" fill="#2D9747"/>
<path d="M320.62 97.0801H323.62V109.84H320.62V97.0801Z" fill="#2D9747"/>
<path d="M327.87 109.65C327.056 109.436 326.287 109.077 325.6 108.59L326.6 106.36C327.195 106.792 327.852 107.13 328.55 107.36C329.284 107.597 330.049 107.718 330.82 107.72C331.462 107.763 332.104 107.635 332.68 107.35C332.862 107.254 333.013 107.11 333.119 106.934C333.225 106.757 333.28 106.556 333.28 106.35C333.282 106.206 333.25 106.063 333.188 105.933C333.125 105.803 333.034 105.689 332.92 105.6C332.649 105.384 332.34 105.218 332.01 105.11C331.64 104.99 331.14 104.86 330.51 104.71C329.7 104.529 328.902 104.298 328.12 104.02C327.502 103.79 326.952 103.409 326.52 102.91C326.066 102.345 325.831 101.635 325.86 100.91C325.855 100.198 326.064 99.5016 326.46 98.9102C326.91 98.2661 327.539 97.7688 328.27 97.4802C329.223 97.0996 330.244 96.9192 331.27 96.9502C332.072 96.9505 332.871 97.0478 333.65 97.2402C334.371 97.4166 335.062 97.6997 335.7 98.0802L334.79 100.32C333.716 99.6864 332.497 99.3418 331.25 99.3202C330.611 99.2737 329.972 99.4126 329.41 99.7202C329.229 99.8315 329.08 99.9875 328.977 100.173C328.873 100.359 328.819 100.568 328.82 100.78C328.809 101 328.871 101.216 328.996 101.397C329.121 101.578 329.301 101.712 329.51 101.78C330.178 102.067 330.875 102.279 331.59 102.41C332.399 102.599 333.197 102.833 333.98 103.11C334.595 103.337 335.144 103.711 335.58 104.2C336.035 104.765 336.269 105.476 336.24 106.2C336.248 106.914 336.035 107.612 335.63 108.2C335.172 108.844 334.536 109.341 333.8 109.63C332.848 110.016 331.826 110.196 330.8 110.16C329.804 110.134 328.817 109.962 327.87 109.65V109.65Z" fill="#2D9747"/>
<path d="M349.94 97.0801V109.84H347V104.61H341.2V109.84H338.25V97.0801H341.2V102.08H347V97.0801H349.94Z" fill="#2D9747"/>
<path d="M362.86 107.47V109.84H353V97.0801H362.65V99.4501H355.94V102.22H361.86V104.52H355.94V107.52L362.86 107.47Z" fill="#2D9747"/>
<path d="M373.34 109.84L370.88 106.29H368.16V109.84H365.16V97.0802H370.68C371.692 97.059 372.696 97.2497 373.63 97.6402C374.424 97.9757 375.098 98.5444 375.562 99.2712C376.027 99.9979 376.259 100.848 376.23 101.71C376.254 102.566 376.015 103.409 375.544 104.124C375.074 104.839 374.395 105.393 373.6 105.71L376.46 109.81L373.34 109.84ZM372.59 100.06C372.009 99.6456 371.302 99.4443 370.59 99.4902H368.18V103.94H370.59C371.306 103.989 372.015 103.78 372.59 103.35C372.812 103.137 372.988 102.882 373.109 102.599C373.229 102.317 373.291 102.013 373.291 101.705C373.291 101.398 373.229 101.094 373.109 100.811C372.988 100.528 372.812 100.273 372.59 100.06V100.06Z" fill="#2D9747"/>
<path d="M378.61 97.0801H381.56V109.84H378.61V97.0801Z" fill="#2D9747"/>
<path d="M394.47 107.47V109.84H384.59V97.0801H394.24V99.4501H387.53V102.22H393.45V104.52H387.53V107.52L394.47 107.47Z" fill="#2D9747"/>
<path d="M398.09 109.65C397.276 109.436 396.507 109.077 395.82 108.59L396.82 106.36C397.412 106.796 398.071 107.134 398.77 107.36C399.5 107.597 400.263 107.719 401.03 107.72C401.672 107.765 402.314 107.638 402.89 107.35C403.072 107.254 403.223 107.11 403.329 106.934C403.435 106.757 403.49 106.556 403.49 106.35C403.492 106.206 403.46 106.063 403.398 105.933C403.335 105.803 403.244 105.689 403.13 105.6C402.86 105.382 402.551 105.215 402.22 105.11C401.85 104.99 401.35 104.86 400.72 104.71C399.91 104.528 399.112 104.297 398.33 104.02C397.712 103.79 397.162 103.409 396.73 102.91C396.276 102.345 396.041 101.635 396.07 100.91C396.065 100.198 396.274 99.5016 396.67 98.9102C397.123 98.269 397.751 97.7723 398.48 97.4802C399.433 97.0996 400.454 96.9192 401.48 96.9502C402.285 96.9511 403.088 97.0485 403.87 97.2402C404.574 97.4204 405.248 97.7035 405.87 98.0802L404.96 100.32C403.886 99.6864 402.667 99.3418 401.42 99.3202C400.784 99.2722 400.148 99.4113 399.59 99.7202C399.407 99.8296 399.255 99.9848 399.15 100.171C399.044 100.357 398.989 100.567 398.99 100.78C398.979 101 399.041 101.216 399.166 101.397C399.29 101.578 399.471 101.712 399.68 101.78C400.351 102.068 401.052 102.28 401.77 102.41C402.578 102.602 403.376 102.835 404.16 103.11C404.773 103.334 405.32 103.709 405.75 104.2C406.208 104.764 406.446 105.474 406.42 106.2C406.423 106.913 406.21 107.61 405.81 108.2C405.348 108.845 404.709 109.342 403.97 109.63C403.018 110.016 401.996 110.196 400.97 110.16C399.991 110.128 399.021 109.957 398.09 109.65V109.65Z" fill="#2D9747"/>
<path d="M432.91 97.0801L428.74 109.84H425.57L422.76 101.2L419.86 109.84H416.7L412.51 97.0801H415.57L418.45 106.08L421.45 97.0801H424.19L427.11 106.08L430.11 97.0801H432.91Z" fill="#2D9747"/>
<path d="M437 109.21C435.964 108.666 435.099 107.846 434.5 106.84C433.911 105.811 433.601 104.646 433.601 103.46C433.601 102.274 433.911 101.109 434.5 100.08C435.099 99.0775 435.965 98.2606 437 97.72C438.109 97.1546 439.336 96.8599 440.58 96.8599C441.825 96.8599 443.051 97.1546 444.16 97.72C445.186 98.2695 446.046 99.0846 446.65 100.08C447.252 101.105 447.57 102.272 447.57 103.46C447.57 104.649 447.252 105.815 446.65 106.84C446.047 107.839 445.187 108.657 444.16 109.21C443.049 109.766 441.823 110.056 440.58 110.056C439.337 110.056 438.112 109.766 437 109.21V109.21ZM442.62 107.03C443.223 106.69 443.719 106.188 444.05 105.58C444.392 104.927 444.57 104.202 444.57 103.465C444.57 102.728 444.392 102.003 444.05 101.35C443.722 100.74 443.225 100.237 442.62 99.9C441.994 99.5587 441.293 99.3798 440.58 99.3798C439.867 99.3798 439.166 99.5587 438.54 99.9C437.935 100.237 437.439 100.74 437.11 101.35C436.768 102.003 436.59 102.728 436.59 103.465C436.59 104.202 436.768 104.927 437.11 105.58C437.441 106.188 437.937 106.69 438.54 107.03C439.166 107.371 439.867 107.55 440.58 107.55C441.293 107.55 441.994 107.371 442.62 107.03V107.03Z" fill="#2D9747"/>
<path d="M457.93 109.84L455.47 106.29H452.75V109.84H449.8V97.0799H455.32C456.332 97.0577 457.337 97.2485 458.27 97.6398C459.064 97.9754 459.738 98.5441 460.203 99.2708C460.667 99.9975 460.9 100.848 460.87 101.71C460.894 102.566 460.655 103.408 460.184 104.124C459.714 104.839 459.035 105.393 458.24 105.71L461.1 109.81L457.93 109.84ZM457.18 100.06C456.599 99.6452 455.892 99.4439 455.18 99.4898H452.77V103.94H455.18C455.896 103.989 456.605 103.779 457.18 103.35C457.402 103.137 457.578 102.882 457.699 102.599C457.819 102.316 457.881 102.012 457.881 101.705C457.881 101.398 457.819 101.093 457.699 100.811C457.578 100.528 457.402 100.273 457.18 100.06Z" fill="#2D9747"/>
<path d="M467.85 104.83L466.14 106.62V109.84H463.2V97.0801H466.14V103.08L471.79 97.0801H475.07L469.79 102.77L475.38 109.84H471.94L467.85 104.83Z" fill="#2D9747"/>
<path d="M486.58 107.47V109.84H476.7V97.0801H486.34V99.4501H479.63V102.22H485.56V104.52H479.63V107.52L486.58 107.47Z" fill="#2D9747"/>
<path d="M497.06 109.84L494.6 106.29H491.89V109.84H488.89V97.0799H494.42C495.428 97.0576 496.43 97.2485 497.36 97.6399C498.144 97.9804 498.814 98.5393 499.29 99.2499C499.751 99.9858 499.984 100.842 499.96 101.71C499.988 102.567 499.751 103.411 499.28 104.127C498.809 104.844 498.128 105.396 497.33 105.71L500.2 109.81L497.06 109.84ZM496.32 100.06C495.737 99.6489 495.032 99.448 494.32 99.4899H491.92V103.94H494.32C495.035 103.981 495.742 103.772 496.32 103.35C496.538 103.135 496.711 102.879 496.829 102.596C496.947 102.314 497.008 102.011 497.008 101.705C497.008 101.399 496.947 101.096 496.829 100.813C496.711 100.531 496.538 100.275 496.32 100.06V100.06Z" fill="#2D9747"/>
<path d="M503.6 109.65C502.786 109.436 502.017 109.077 501.33 108.59L502.33 106.36C502.939 106.798 503.614 107.136 504.33 107.36C505.06 107.597 505.822 107.718 506.59 107.72C507.232 107.764 507.874 107.636 508.45 107.35C508.631 107.253 508.783 107.109 508.889 106.933C508.995 106.757 509.05 106.555 509.05 106.35C509.052 106.206 509.02 106.063 508.957 105.933C508.895 105.803 508.804 105.689 508.69 105.6C508.42 105.381 508.111 105.215 507.78 105.11C507.41 104.99 506.91 104.86 506.28 104.71C505.47 104.529 504.672 104.298 503.89 104.02C503.272 103.79 502.722 103.408 502.29 102.91C501.836 102.345 501.601 101.634 501.63 100.91C501.625 100.198 501.834 99.5013 502.23 98.9099C502.656 98.2386 503.272 97.7094 504 97.3899C504.953 97.0093 505.974 96.8289 507 96.8599C507.802 96.8601 508.601 96.9575 509.38 97.1499C510.084 97.3309 510.758 97.6139 511.38 97.9899L510.47 100.23C509.396 99.5961 508.177 99.2515 506.93 99.2299C506.291 99.1834 505.652 99.3223 505.09 99.6299C504.909 99.7412 504.76 99.8972 504.656 100.083C504.553 100.268 504.499 100.477 504.5 100.69C504.489 100.909 504.551 101.126 504.676 101.307C504.8 101.487 504.981 101.622 505.19 101.69C505.858 101.977 506.555 102.188 507.27 102.32C508.079 102.509 508.877 102.742 509.66 103.02C510.275 103.247 510.824 103.621 511.26 104.11C511.714 104.675 511.949 105.385 511.92 106.11C511.928 106.823 511.715 107.522 511.31 108.11C510.852 108.754 510.216 109.251 509.48 109.54C508.528 109.925 507.506 110.106 506.48 110.07C505.505 110.068 504.535 109.927 503.6 109.65V109.65Z" fill="#2D9747"/>
<path d="M345.18 62.6899C346.802 64.483 347.669 66.8331 347.6 69.2499C347.605 71.2206 347.05 73.1521 346 74.8199C344.824 76.6233 343.145 78.0419 341.17 78.8999C338.669 79.992 335.958 80.5179 333.23 80.4399C330.796 80.4292 328.375 80.0929 326.03 79.4399C323.881 78.891 321.849 77.9594 320.03 76.6899L323.15 70.5599C324.536 71.5792 326.085 72.3568 327.73 72.8599C329.452 73.3989 331.246 73.672 333.05 73.6699C334.713 73.7635 336.367 73.3596 337.8 72.5099C338.352 72.1622 338.803 71.6749 339.107 71.0972C339.411 70.5196 339.557 69.872 339.53 69.2199C339.53 66.3799 337.37 64.9599 333.05 64.9599H329.39V59.6999L336.51 51.6299H321.76V45.1899H346V50.3899L338.2 59.2999C340.843 59.6069 343.304 60.8021 345.18 62.6899V62.6899Z" fill="#2D9747"/>
<path d="M364.68 45.1899V79.8399H356.68V51.6299H349.75V45.1899H364.68Z" fill="#2D9747"/>
<path d="M377.89 78.31C375.576 76.8041 373.746 74.6615 372.62 72.14C371.281 69.114 370.632 65.8279 370.72 62.52C370.633 59.209 371.282 55.92 372.62 52.89C373.746 50.3713 375.576 48.232 377.89 46.73C380.207 45.3361 382.861 44.5996 385.565 44.5996C388.269 44.5996 390.923 45.3361 393.24 46.73C395.554 48.232 397.384 50.3713 398.51 52.89C399.848 55.92 400.497 59.209 400.41 62.52C400.498 65.8279 399.849 69.114 398.51 72.14C397.385 74.6615 395.554 76.8041 393.24 78.31C390.923 79.704 388.269 80.4405 385.565 80.4405C382.861 80.4405 380.207 79.704 377.89 78.31V78.31ZM390.54 70.93C391.74 69.12 392.34 66.31 392.34 62.52C392.34 58.73 391.74 55.92 390.54 54.1C390.02 53.2469 389.283 52.5461 388.405 52.0685C387.527 51.591 386.539 51.3535 385.54 51.38C384.553 51.3615 383.579 51.6032 382.715 52.0806C381.852 52.5581 381.129 53.2546 380.62 54.1C379.41 55.92 378.81 58.72 378.81 62.52C378.81 66.32 379.41 69.12 380.62 70.93C381.128 71.7769 381.85 72.4745 382.714 72.9522C383.578 73.4298 384.553 73.6706 385.54 73.65C386.539 73.6787 387.529 73.4421 388.407 72.9643C389.285 72.4865 390.021 71.7846 390.54 70.93V70.93Z" fill="#2D9747"/>
<path d="M411.7 72C412.135 72.4473 412.475 72.9786 412.699 73.5614C412.922 74.1442 413.025 74.7664 413 75.39C413.001 76.0639 412.92 76.7355 412.76 77.39C412.466 78.4138 412.101 79.4161 411.67 80.39L408.85 87.5101H404L406.17 79.64C405.354 79.3192 404.663 78.7442 404.2 78C403.711 77.2224 403.461 76.3185 403.48 75.4001C403.458 74.77 403.568 74.1422 403.802 73.5569C404.036 72.9715 404.39 72.4413 404.84 72C405.297 71.5638 405.837 71.2232 406.428 70.9983C407.019 70.7733 407.648 70.6685 408.28 70.6901C408.909 70.6655 409.537 70.769 410.124 70.9942C410.712 71.2194 411.248 71.5616 411.7 72V72Z" fill="#2D9747"/>
<path d="M439.34 61.1299C440.489 62.0836 441.403 63.2903 442.008 64.6556C442.613 66.0209 442.895 67.5078 442.83 68.9999C442.85 71.0328 442.303 73.031 441.25 74.7699C440.08 76.5979 438.401 78.0438 436.42 78.9299C433.904 80.0428 431.17 80.5759 428.42 80.4899C425.983 80.4785 423.558 80.1422 421.21 79.4899C419.061 78.9401 417.029 78.0087 415.21 76.7399L418.38 70.6099C419.758 71.625 421.296 72.4024 422.93 72.9099C424.645 73.4497 426.432 73.7228 428.23 73.7199C429.905 73.8092 431.567 73.3909 433 72.5199C433.549 72.1615 433.997 71.6679 434.3 71.0864C434.603 70.5049 434.751 69.8553 434.73 69.1999C434.761 68.5283 434.61 67.8608 434.293 67.2678C433.976 66.6747 433.505 66.178 432.93 65.8299C431.717 65.0833 429.627 64.7066 426.66 64.6999H417.8L419.59 45.1899H440.7V51.6299H426.25L425.7 58.2099H428.53C433.41 58.2099 437.013 59.1833 439.34 61.1299Z" fill="#2D9747"/>
<path d="M468.81 59.4498C470.57 60.2888 472.063 61.6011 473.12 63.2398C474.193 64.9294 474.743 66.8986 474.7 68.8998C474.758 71.0576 474.166 73.183 473 74.9998C471.831 76.7473 470.196 78.1329 468.28 78.9998C466.195 79.9668 463.918 80.4521 461.62 80.4198C456.773 80.4198 452.977 78.9331 450.23 75.9598C447.483 72.9865 446.117 68.7465 446.13 63.2398C446.033 59.7422 446.795 56.2742 448.35 53.1398C449.738 50.442 451.901 48.2204 454.56 46.7598C457.406 45.263 460.585 44.5129 463.8 44.5798C465.592 44.5754 467.377 44.7835 469.12 45.1998C470.643 45.5581 472.096 46.1664 473.42 46.9998L470.42 52.8898C468.504 51.6746 466.268 51.0616 464 51.1298C462.719 51.0617 461.438 51.2554 460.234 51.699C459.031 52.1425 457.93 52.8267 457 53.7098C455.29 55.4198 454.36 57.9098 454.23 61.1798C456.28 59.1798 459.13 58.1098 462.8 58.1098C464.88 58.0868 466.937 58.5454 468.81 59.4498V59.4498ZM465.32 73.0598C465.855 72.5958 466.279 72.0163 466.557 71.365C466.836 70.7137 466.964 70.0075 466.93 69.2998C466.962 68.5879 466.834 67.878 466.555 67.2221C466.276 66.5663 465.854 65.9812 465.32 65.5098C464.108 64.5135 462.566 64.0101 461 64.0998C459.435 64.0379 457.903 64.5581 456.7 65.5598C456.173 66.0252 455.75 66.5966 455.459 67.2365C455.168 67.8764 455.015 68.5706 455.01 69.2736C455.005 69.9767 455.149 70.6728 455.432 71.3166C455.714 71.9604 456.129 72.5373 456.65 73.0098C457.903 74.0262 459.489 74.5396 461.1 74.4498C462.63 74.5256 464.134 74.0302 465.32 73.0598V73.0598Z" fill="#2D9747"/>
<path d="M500.79 62.6899C502.412 64.483 503.279 66.8331 503.21 69.2499C503.221 71.2187 502.673 73.15 501.63 74.8199C500.454 76.6233 498.775 78.0419 496.8 78.8999C494.299 79.992 491.588 80.5179 488.86 80.4399C486.426 80.4279 484.005 80.0916 481.66 79.4399C479.511 78.891 477.479 77.9594 475.66 76.6899L478.78 70.5599C480.166 71.5792 481.715 72.3568 483.36 72.8599C485.082 73.3981 486.876 73.6713 488.68 73.6699C490.343 73.7635 491.997 73.3596 493.43 72.5099C493.983 72.1627 494.436 71.6757 494.741 71.0982C495.047 70.5206 495.194 69.8728 495.17 69.2199C495.17 66.3799 493 64.9599 488.68 64.9599H485V59.6999L492.13 51.6299H477.38V45.1899H501.63V50.3899L493.81 59.2999C496.453 59.6069 498.914 60.8021 500.79 62.6899V62.6899Z" fill="#2D9747"/>
<path d="M311.84 152.25C311.894 153.42 311.564 154.575 310.9 155.54C310.613 155.94 310.232 156.263 309.791 156.481C309.35 156.699 308.862 156.805 308.37 156.79C307.869 156.816 307.369 156.721 306.913 156.512C306.456 156.303 306.058 155.987 305.75 155.59L305.67 156.59H304.26V143.89H305.8V148.63C306.104 148.25 306.493 147.948 306.936 147.748C307.38 147.548 307.864 147.456 308.35 147.48C308.845 147.458 309.338 147.558 309.785 147.773C310.232 147.988 310.618 148.31 310.91 148.71C311.58 149.702 311.906 150.885 311.84 152.08V152.25ZM310.31 152.07C310.361 151.224 310.151 150.383 309.71 149.66C309.516 149.383 309.254 149.159 308.95 149.01C308.645 148.862 308.308 148.793 307.97 148.81C307.508 148.791 307.051 148.915 306.663 149.166C306.274 149.417 305.973 149.781 305.8 150.21V154.08C305.979 154.51 306.284 154.875 306.675 155.127C307.066 155.379 307.525 155.505 307.99 155.49C308.323 155.502 308.654 155.431 308.953 155.282C309.252 155.134 309.508 154.913 309.7 154.64C310.156 153.864 310.369 152.969 310.31 152.07V152.07Z" fill="black"/>
<path d="M317.48 156.79C316.923 156.817 316.367 156.723 315.85 156.516C315.332 156.309 314.865 155.993 314.48 155.59C314.09 155.16 313.788 154.656 313.592 154.109C313.397 153.561 313.311 152.981 313.34 152.4V152.11C313.327 151.293 313.498 150.483 313.84 149.74C314.156 149.072 314.651 148.504 315.27 148.1C315.864 147.711 316.56 147.506 317.27 147.51C317.779 147.483 318.288 147.572 318.758 147.772C319.228 147.971 319.646 148.275 319.98 148.66C320.692 149.604 321.046 150.77 320.98 151.95V152.59H314.92C314.905 153.371 315.179 154.13 315.69 154.72C315.924 154.987 316.213 155.198 316.538 155.34C316.863 155.482 317.216 155.55 317.57 155.54C318.048 155.556 318.521 155.442 318.94 155.21C319.325 154.982 319.664 154.683 319.94 154.33L320.87 155.06C320.51 155.624 320.006 156.082 319.41 156.386C318.814 156.69 318.148 156.829 317.48 156.79V156.79ZM317.29 148.79C316.997 148.781 316.705 148.836 316.435 148.951C316.166 149.067 315.925 149.241 315.73 149.46C315.275 149.99 315.004 150.653 314.96 151.35H319.44V151.23C319.431 150.578 319.21 149.946 318.81 149.43C318.622 149.213 318.388 149.041 318.125 148.927C317.862 148.813 317.577 148.759 317.29 148.77V148.79Z" fill="black"/>
<path d="M324.18 147.68L324.23 148.8C324.543 148.389 324.949 148.057 325.415 147.833C325.881 147.609 326.393 147.498 326.91 147.51C328.8 147.51 329.76 148.58 329.77 150.71V156.62H328.24V150.7C328.284 150.185 328.126 149.672 327.8 149.27C327.619 149.104 327.406 148.977 327.173 148.898C326.941 148.819 326.695 148.789 326.45 148.81C325.983 148.801 325.526 148.937 325.14 149.2C324.765 149.47 324.465 149.832 324.27 150.25V156.62H322.74V147.68H324.18Z" fill="black"/>
<path d="M335.79 156.79C335.233 156.816 334.677 156.722 334.16 156.515C333.642 156.308 333.175 155.993 332.79 155.59C332.4 155.16 332.098 154.656 331.902 154.109C331.707 153.561 331.621 152.981 331.65 152.4V152.11C331.635 151.291 331.81 150.48 332.16 149.74C332.47 149.071 332.962 148.503 333.58 148.1C334.174 147.711 334.87 147.506 335.58 147.51C336.09 147.481 336.599 147.57 337.069 147.769C337.539 147.969 337.957 148.274 338.29 148.66C339.002 149.604 339.356 150.77 339.29 151.95V152.59H333.23C333.215 153.371 333.489 154.13 334 154.72C334.234 154.986 334.524 155.198 334.849 155.339C335.174 155.481 335.526 155.55 335.88 155.54C336.361 155.555 336.838 155.441 337.26 155.21C337.646 154.983 337.985 154.684 338.26 154.33L339.19 155.06C338.829 155.626 338.324 156.084 337.726 156.388C337.128 156.693 336.46 156.831 335.79 156.79V156.79ZM335.6 148.79C335.308 148.782 335.019 148.838 334.751 148.954C334.483 149.069 334.244 149.242 334.05 149.46C333.595 149.991 333.322 150.653 333.27 151.35H337.75V151.23C337.754 150.576 337.531 149.94 337.12 149.43C336.933 149.213 336.699 149.04 336.436 148.926C336.173 148.811 335.887 148.758 335.6 148.77V148.79Z" fill="black"/>
<path d="M341.8 156.62V148.86H340.39V147.68H341.8V146.76C341.776 146.356 341.831 145.951 341.963 145.568C342.095 145.186 342.302 144.833 342.57 144.53C342.861 144.258 343.205 144.049 343.579 143.915C343.954 143.781 344.353 143.725 344.75 143.75C345.105 143.747 345.458 143.795 345.8 143.89L345.71 145.12C345.44 145.071 345.165 145.047 344.89 145.05C344.679 145.036 344.467 145.067 344.269 145.141C344.07 145.215 343.89 145.331 343.74 145.48C343.449 145.829 343.302 146.276 343.33 146.73V147.73H345.24V148.91H343.33V156.67L341.8 156.62Z" fill="black"/>
<path d="M346.94 145.3C346.931 145.07 347.009 144.844 347.16 144.67C347.248 144.581 347.355 144.513 347.472 144.47C347.59 144.427 347.715 144.41 347.84 144.42C347.963 144.41 348.087 144.428 348.202 144.471C348.318 144.514 348.423 144.582 348.51 144.67C348.589 144.754 348.651 144.853 348.693 144.961C348.734 145.069 348.753 145.184 348.75 145.3C348.754 145.414 348.735 145.528 348.694 145.635C348.653 145.741 348.59 145.838 348.51 145.92C348.423 146.008 348.318 146.076 348.202 146.119C348.087 146.162 347.963 146.179 347.84 146.17C347.715 146.18 347.59 146.163 347.472 146.12C347.355 146.077 347.248 146.009 347.16 145.92C347.008 145.75 346.929 145.527 346.94 145.3V145.3ZM348.59 156.62H347.06V147.68H348.59V156.62Z" fill="black"/>
<path d="M353.11 145.51V147.68H354.78V148.86H353.11V154.41C353.09 154.698 353.171 154.985 353.34 155.22C353.438 155.32 353.557 155.396 353.689 155.442C353.821 155.489 353.961 155.505 354.1 155.49C354.342 155.477 354.583 155.443 354.82 155.39V156.62C354.439 156.729 354.046 156.786 353.65 156.79C353.362 156.809 353.073 156.763 352.805 156.656C352.536 156.549 352.295 156.383 352.1 156.17C351.727 155.661 351.543 155.039 351.58 154.41V148.86H350V147.68H351.63V145.51H353.11Z" fill="black"/>
<path d="M358.64 145.51V147.68H360.31V148.86H358.64V154.41C358.62 154.698 358.701 154.985 358.87 155.22C358.968 155.32 359.087 155.396 359.219 155.442C359.35 155.489 359.491 155.505 359.63 155.49C359.872 155.478 360.113 155.444 360.35 155.39V156.62C359.969 156.729 359.576 156.786 359.18 156.79C358.892 156.809 358.603 156.763 358.334 156.656C358.066 156.549 357.825 156.383 357.63 156.17C357.257 155.661 357.073 155.039 357.11 154.41V148.86H355.48V147.68H357.11V145.51H358.64Z" fill="black"/>
<path d="M365.81 156.79C365.253 156.816 364.697 156.722 364.18 156.515C363.662 156.308 363.195 155.993 362.81 155.59C362.42 155.16 362.118 154.656 361.922 154.109C361.727 153.561 361.641 152.981 361.67 152.4V152.11C361.655 151.291 361.83 150.48 362.18 149.74C362.49 149.071 362.982 148.503 363.6 148.1C364.194 147.711 364.89 147.506 365.6 147.51C366.11 147.481 366.619 147.57 367.089 147.769C367.559 147.969 367.977 148.274 368.31 148.66C369.022 149.604 369.376 150.77 369.31 151.95V152.59H363.25C363.235 153.371 363.509 154.13 364.02 154.72C364.254 154.986 364.544 155.198 364.869 155.339C365.194 155.481 365.546 155.55 365.9 155.54C366.381 155.555 366.858 155.441 367.28 155.21C367.666 154.983 368.005 154.684 368.28 154.33L369.21 155.06C368.849 155.626 368.344 156.084 367.746 156.388C367.148 156.693 366.48 156.831 365.81 156.79V156.79ZM365.62 148.79C365.328 148.782 365.039 148.838 364.771 148.954C364.503 149.069 364.264 149.242 364.07 149.46C363.615 149.991 363.342 150.653 363.29 151.35H367.77V151.23C367.774 150.576 367.551 149.94 367.14 149.43C366.953 149.213 366.719 149.04 366.456 148.926C366.193 148.811 365.907 148.758 365.62 148.77V148.79Z" fill="black"/>
<path d="M370.7 152.07C370.65 150.885 371.002 149.719 371.7 148.76C371.999 148.385 372.376 148.079 372.805 147.863C373.234 147.647 373.704 147.527 374.184 147.51C374.663 147.493 375.141 147.579 375.584 147.764C376.027 147.949 376.425 148.227 376.75 148.58V143.92H378.28V156.62H376.87L376.8 155.62C376.49 155.993 376.097 156.29 375.653 156.486C375.209 156.682 374.725 156.772 374.24 156.75C373.746 156.757 373.258 156.644 372.818 156.421C372.377 156.198 371.997 155.872 371.71 155.47C371.01 154.509 370.657 153.338 370.71 152.15L370.7 152.07ZM372.23 152.25C372.185 153.09 372.405 153.923 372.86 154.63C373.052 154.908 373.312 155.132 373.614 155.283C373.917 155.433 374.252 155.504 374.59 155.49C375.035 155.507 375.475 155.391 375.854 155.158C376.233 154.925 376.534 154.584 376.72 154.18V150.07C376.528 149.678 376.227 149.35 375.852 149.126C375.478 148.903 375.046 148.793 374.61 148.81C374.268 148.793 373.928 148.864 373.621 149.017C373.315 149.169 373.053 149.397 372.86 149.68C372.387 150.45 372.167 151.349 372.23 152.25V152.25Z" fill="black"/>
<path d="M385.56 156.62V148.86H384.15V147.68H385.56V146.76C385.535 146.356 385.591 145.951 385.723 145.568C385.855 145.186 386.061 144.833 386.33 144.53C386.621 144.258 386.964 144.049 387.339 143.915C387.714 143.781 388.113 143.725 388.51 143.75C388.865 143.747 389.218 143.795 389.56 143.89L389.47 145.12C389.199 145.07 388.925 145.047 388.65 145.05C388.439 145.036 388.227 145.067 388.029 145.141C387.83 145.215 387.65 145.331 387.5 145.48C387.209 145.829 387.062 146.276 387.09 146.73V147.73H389V148.91H387.09V156.67L385.56 156.62Z" fill="black"/>
<path d="M395 149.05C394.752 149.009 394.501 148.989 394.25 148.99C393.824 148.962 393.399 149.071 393.039 149.301C392.68 149.532 392.403 149.871 392.25 150.27V156.62H390.72V147.68H392.21V148.68C392.425 148.305 392.737 147.996 393.114 147.785C393.491 147.573 393.918 147.468 394.35 147.48C394.58 147.468 394.809 147.509 395.02 147.6L395 149.05Z" fill="black"/>
<path d="M395.85 152.07C395.835 151.25 396.013 150.438 396.37 149.7C396.681 149.034 397.178 148.471 397.8 148.08C398.437 147.698 399.167 147.5 399.91 147.51C400.464 147.489 401.016 147.592 401.526 147.81C402.036 148.027 402.492 148.355 402.86 148.77C403.649 149.71 404.052 150.914 403.99 152.14V152.25C404.007 153.058 403.836 153.859 403.49 154.59C403.179 155.256 402.683 155.819 402.06 156.21C401.418 156.599 400.68 156.8 399.93 156.79C399.375 156.808 398.823 156.704 398.313 156.485C397.803 156.265 397.348 155.936 396.98 155.52C396.195 154.585 395.792 153.389 395.85 152.17V152.07ZM397.39 152.25C397.348 153.101 397.59 153.942 398.08 154.64C398.299 154.922 398.579 155.151 398.9 155.308C399.22 155.465 399.573 155.547 399.93 155.547C400.287 155.547 400.64 155.465 400.96 155.308C401.281 155.151 401.561 154.922 401.78 154.64C402.273 153.884 402.512 152.991 402.46 152.09C402.503 151.237 402.256 150.395 401.76 149.7C401.543 149.418 401.265 149.189 400.946 149.032C400.627 148.875 400.276 148.793 399.92 148.793C399.564 148.793 399.213 148.875 398.894 149.032C398.575 149.189 398.297 149.418 398.08 149.7C397.58 150.453 397.338 151.348 397.39 152.25V152.25Z" fill="black"/>
<path d="M407.35 147.68V148.68C407.675 148.299 408.082 147.996 408.541 147.795C409.001 147.594 409.499 147.5 410 147.52C410.534 147.463 411.072 147.575 411.539 147.841C412.005 148.106 412.376 148.512 412.6 149C412.904 148.581 413.301 148.239 413.76 148C414.279 147.722 414.861 147.584 415.45 147.6C417.41 147.6 418.41 148.64 418.45 150.72V156.72H416.93V150.82C416.968 150.302 416.811 149.788 416.49 149.38C416.288 149.208 416.054 149.078 415.802 148.997C415.55 148.917 415.284 148.887 415.02 148.91C414.498 148.888 413.989 149.071 413.6 149.42C413.22 149.775 412.988 150.261 412.95 150.78V156.72H411.4V150.86C411.439 150.598 411.417 150.331 411.336 150.079C411.254 149.828 411.116 149.598 410.931 149.409C410.745 149.22 410.519 149.077 410.269 148.99C410.019 148.903 409.752 148.876 409.49 148.91C409.054 148.868 408.616 148.971 408.244 149.202C407.872 149.433 407.586 149.78 407.43 150.19V156.72H405.9V147.78L407.35 147.68Z" fill="black"/>
<path d="M427 145.51V147.68H428.67V148.86H427V154.41C426.977 154.697 427.055 154.984 427.22 155.22C427.319 155.318 427.438 155.394 427.57 155.44C427.701 155.487 427.841 155.504 427.98 155.49C428.226 155.478 428.47 155.444 428.71 155.39V156.62C428.329 156.729 427.936 156.786 427.54 156.79C427.252 156.81 426.963 156.764 426.694 156.657C426.426 156.55 426.185 156.383 425.99 156.17C425.613 155.663 425.429 155.04 425.47 154.41V148.86H423.84V147.68H425.47V145.51H427Z" fill="black"/>
<path d="M432 148.76C432.311 148.359 432.712 148.037 433.171 147.819C433.629 147.602 434.133 147.496 434.64 147.51C436.533 147.51 437.487 148.577 437.5 150.71V156.62H436V150.7C436.044 150.184 435.886 149.672 435.56 149.27C435.379 149.104 435.166 148.977 434.933 148.898C434.701 148.819 434.455 148.789 434.21 148.81C433.743 148.801 433.286 148.937 432.9 149.2C432.525 149.47 432.225 149.831 432.03 150.25V156.62H430.49V143.92H432V148.76Z" fill="black"/>
<path d="M443.51 156.79C442.953 156.816 442.397 156.723 441.88 156.516C441.362 156.309 440.895 155.993 440.51 155.59C440.12 155.16 439.818 154.656 439.622 154.109C439.427 153.561 439.341 152.981 439.37 152.4V152.11C439.355 151.292 439.53 150.48 439.88 149.74C440.19 149.071 440.682 148.503 441.3 148.1C441.894 147.711 442.59 147.506 443.3 147.51C443.811 147.481 444.322 147.57 444.794 147.769C445.265 147.969 445.685 148.273 446.02 148.66C446.732 149.604 447.086 150.77 447.02 151.95V152.59H440.96C440.944 153.373 441.222 154.133 441.74 154.72C441.974 154.987 442.263 155.198 442.588 155.34C442.913 155.482 443.266 155.55 443.62 155.54C444.098 155.555 444.571 155.441 444.99 155.21C445.376 154.983 445.715 154.684 445.99 154.33L446.93 155.06C446.567 155.628 446.058 156.088 445.456 156.392C444.855 156.697 444.183 156.834 443.51 156.79V156.79ZM443.32 148.79C443.028 148.782 442.739 148.838 442.471 148.954C442.203 149.069 441.964 149.242 441.77 149.46C441.315 149.991 441.042 150.653 440.99 151.35H445.47V151.23C445.474 150.576 445.251 149.94 444.84 149.43C444.653 149.213 444.419 149.04 444.156 148.926C443.893 148.811 443.607 148.758 443.32 148.77V148.79Z" fill="black"/>
<path d="M453 145.3C452.995 145.068 453.077 144.843 453.23 144.67C453.317 144.582 453.422 144.514 453.537 144.471C453.653 144.428 453.777 144.41 453.9 144.42C454.025 144.41 454.15 144.427 454.268 144.47C454.385 144.513 454.492 144.581 454.58 144.67C454.737 144.841 454.82 145.068 454.81 145.3C454.816 145.413 454.798 145.527 454.759 145.634C454.719 145.74 454.658 145.838 454.58 145.92C454.492 146.009 454.385 146.077 454.268 146.12C454.15 146.163 454.025 146.18 453.9 146.17C453.777 146.179 453.653 146.162 453.537 146.119C453.422 146.076 453.317 146.008 453.23 145.92C453.076 145.751 452.993 145.529 453 145.3ZM454.66 156.62H453.1V147.68H454.63L454.66 156.62Z" fill="black"/>
<path d="M458.51 147.68V148.68C458.837 148.298 459.246 147.995 459.707 147.794C460.167 147.593 460.668 147.499 461.17 147.52C461.692 147.469 462.216 147.58 462.672 147.837C463.129 148.095 463.494 148.487 463.72 148.96C464.026 148.543 464.423 148.201 464.88 147.96C465.399 147.682 465.981 147.544 466.57 147.56C468.57 147.56 469.57 148.56 469.57 150.68V156.68H468.04V150.78C468.078 150.262 467.921 149.748 467.6 149.34C467.398 149.168 467.165 149.038 466.912 148.957C466.66 148.877 466.394 148.847 466.13 148.87C465.608 148.848 465.099 149.031 464.71 149.38C464.33 149.735 464.098 150.221 464.06 150.74V156.68H462.52V150.82C462.561 150.558 462.541 150.29 462.46 150.037C462.38 149.784 462.241 149.554 462.055 149.365C461.87 149.175 461.642 149.032 461.391 148.946C461.14 148.86 460.873 148.834 460.61 148.87C460.174 148.828 459.736 148.931 459.364 149.162C458.992 149.393 458.706 149.74 458.55 150.15V156.68H457.02V147.74L458.51 147.68Z" fill="black"/>
<path d="M479.47 152.25C479.527 153.419 479.2 154.574 478.54 155.54C478.253 155.94 477.872 156.263 477.431 156.481C476.99 156.699 476.502 156.805 476.01 156.79C475.535 156.818 475.059 156.744 474.616 156.571C474.172 156.399 473.771 156.132 473.44 155.79V160.1H471.91V147.68H473.31L473.38 148.68C473.693 148.297 474.091 147.993 474.542 147.792C474.994 147.59 475.486 147.497 475.98 147.52C476.472 147.497 476.962 147.595 477.406 147.806C477.851 148.017 478.237 148.335 478.53 148.73C479.213 149.723 479.544 150.917 479.47 152.12V152.25ZM477.94 152.07C477.985 151.226 477.761 150.389 477.3 149.68C477.1 149.4 476.834 149.174 476.525 149.022C476.216 148.87 475.874 148.797 475.53 148.81C475.101 148.795 474.676 148.903 474.306 149.121C473.936 149.339 473.636 149.658 473.44 150.04V154.31C473.636 154.694 473.938 155.014 474.31 155.232C474.682 155.45 475.109 155.557 475.54 155.54C475.881 155.551 476.219 155.478 476.525 155.326C476.83 155.174 477.093 154.949 477.29 154.67C477.774 153.893 478.001 152.983 477.94 152.07V152.07Z" fill="black"/>
<path d="M485.74 149.05C485.495 149.012 485.248 148.996 485 149C484.565 148.96 484.13 149.064 483.76 149.295C483.39 149.526 483.105 149.872 482.95 150.28V156.63H481.42V147.69H482.91V148.69C483.123 148.316 483.434 148.007 483.809 147.796C484.184 147.584 484.61 147.479 485.04 147.49C485.273 147.478 485.505 147.519 485.72 147.61L485.74 149.05Z" fill="black"/>
<path d="M486.57 152.07C486.56 151.251 486.738 150.44 487.09 149.7C487.402 149.031 487.903 148.468 488.53 148.08C489.162 147.694 489.89 147.496 490.63 147.51C491.192 147.483 491.753 147.583 492.273 147.801C492.792 148.019 493.255 148.35 493.63 148.77C494.415 149.712 494.818 150.915 494.76 152.14V152.25C494.772 153.058 494.601 153.858 494.26 154.59C493.946 155.254 493.45 155.816 492.83 156.21C492.186 156.601 491.444 156.802 490.69 156.79C490.135 156.808 489.583 156.703 489.073 156.484C488.564 156.265 488.108 155.935 487.74 155.52C486.955 154.585 486.552 153.389 486.61 152.17L486.57 152.07ZM488.11 152.25C488.068 153.101 488.31 153.942 488.8 154.64C489.019 154.922 489.299 155.151 489.62 155.308C489.94 155.465 490.293 155.547 490.65 155.547C491.007 155.547 491.36 155.465 491.68 155.308C492.001 155.151 492.281 154.922 492.5 154.64C493.001 153.888 493.243 152.992 493.19 152.09C493.227 151.238 492.981 150.398 492.49 149.7C492.272 149.418 491.993 149.189 491.673 149.032C491.353 148.875 491.001 148.793 490.645 148.793C490.289 148.793 489.937 148.875 489.617 149.032C489.297 149.189 489.018 149.418 488.8 149.7C488.3 150.453 488.058 151.348 488.11 152.25V152.25Z" fill="black"/>
<path d="M499.46 154.55L501.68 147.68H503.24L500 156.62H498.84L495.6 147.68H497.16L499.46 154.55Z" fill="black"/>
<path d="M508.32 156.79C507.763 156.817 507.207 156.723 506.689 156.516C506.172 156.309 505.705 155.993 505.32 155.59C504.93 155.16 504.628 154.656 504.432 154.109C504.237 153.561 504.151 152.981 504.18 152.4V152.11C504.167 151.293 504.338 150.483 504.68 149.74C504.996 149.072 505.491 148.504 506.11 148.1C506.704 147.711 507.4 147.506 508.11 147.51C508.619 147.483 509.128 147.572 509.598 147.772C510.068 147.971 510.486 148.275 510.82 148.66C511.532 149.604 511.886 150.77 511.82 151.95V152.59H505.76C505.745 153.371 506.019 154.13 506.53 154.72C506.764 154.987 507.053 155.198 507.378 155.34C507.703 155.482 508.056 155.55 508.41 155.54C508.888 155.556 509.361 155.442 509.78 155.21C510.165 154.982 510.504 154.683 510.78 154.33L511.71 155.06C511.35 155.624 510.846 156.082 510.25 156.386C509.654 156.69 508.988 156.829 508.32 156.79V156.79ZM508.13 148.79C507.837 148.781 507.545 148.836 507.275 148.951C507.006 149.067 506.765 149.241 506.57 149.46C506.115 149.99 505.844 150.653 505.8 151.35H510.28V151.23C510.271 150.578 510.05 149.946 509.65 149.43C509.462 149.213 509.228 149.041 508.965 148.927C508.702 148.813 508.417 148.759 508.13 148.77V148.79Z" fill="black"/>
<path d="M513.2 152.07C513.15 150.885 513.502 149.719 514.2 148.76C514.499 148.392 514.872 148.092 515.297 147.88C515.721 147.669 516.185 147.55 516.659 147.533C517.133 147.516 517.605 147.601 518.043 147.781C518.481 147.962 518.876 148.234 519.2 148.58V143.92H520.73V156.62H519.33L519.25 155.62C518.942 155.994 518.551 156.291 518.109 156.487C517.666 156.683 517.184 156.773 516.7 156.75C516.205 156.757 515.715 156.645 515.273 156.422C514.83 156.199 514.449 155.872 514.16 155.47C513.464 154.507 513.112 153.337 513.16 152.15L513.2 152.07ZM514.73 152.25C514.684 153.09 514.905 153.923 515.36 154.63C515.553 154.909 515.814 155.135 516.119 155.285C516.423 155.436 516.761 155.506 517.1 155.49C517.544 155.509 517.983 155.394 518.361 155.16C518.739 154.927 519.038 154.585 519.22 154.18V150.07C519.028 149.678 518.727 149.35 518.352 149.126C517.978 148.903 517.546 148.793 517.11 148.81C516.768 148.793 516.428 148.864 516.121 149.017C515.815 149.169 515.553 149.397 515.36 149.68C514.887 150.45 514.667 151.349 514.73 152.25V152.25Z" fill="black"/>
<path d="M273.79 172.39C273.735 171.199 274.088 170.024 274.79 169.06C275.087 168.665 275.475 168.347 275.92 168.133C276.366 167.919 276.856 167.815 277.35 167.83C277.837 167.801 278.324 167.892 278.769 168.094C279.213 168.296 279.601 168.604 279.9 168.99L279.98 167.99H281.38V176.72C281.409 177.221 281.336 177.722 281.164 178.194C280.992 178.665 280.725 179.096 280.38 179.46C280.008 179.803 279.571 180.067 279.096 180.239C278.62 180.411 278.115 180.486 277.61 180.46C276.958 180.457 276.314 180.317 275.72 180.05C275.151 179.813 274.659 179.422 274.3 178.92L275.1 178C275.378 178.374 275.74 178.679 276.157 178.889C276.573 179.099 277.033 179.209 277.5 179.21C277.817 179.229 278.134 179.184 278.433 179.077C278.732 178.971 279.006 178.805 279.24 178.59C279.459 178.353 279.628 178.074 279.736 177.769C279.844 177.465 279.89 177.142 279.87 176.82V176.05C279.557 176.402 279.169 176.68 278.735 176.863C278.3 177.047 277.831 177.131 277.36 177.11C276.866 177.118 276.377 177.006 275.935 176.785C275.493 176.564 275.11 176.24 274.82 175.84C274.099 174.838 273.736 173.623 273.79 172.39V172.39ZM275.33 172.57C275.279 173.406 275.496 174.236 275.95 174.94C276.141 175.22 276.4 175.446 276.703 175.598C277.005 175.75 277.341 175.823 277.68 175.81C278.126 175.827 278.567 175.711 278.947 175.476C279.326 175.24 279.627 174.897 279.81 174.49V170.41C279.62 170.015 279.32 169.684 278.945 169.456C278.57 169.229 278.138 169.116 277.7 169.13C277.366 169.122 277.036 169.197 276.739 169.349C276.442 169.501 276.188 169.725 276 170C275.516 170.767 275.282 171.665 275.33 172.57V172.57Z" fill="black"/>
<path d="M283.25 172.38C283.238 171.565 283.412 170.758 283.76 170.02C284.074 169.349 284.577 168.784 285.208 168.395C285.839 168.005 286.569 167.809 287.31 167.83C287.864 167.81 288.416 167.912 288.926 168.13C289.436 168.348 289.892 168.676 290.26 169.09C291.049 170.031 291.452 171.235 291.39 172.46V172.57C291.402 173.378 291.231 174.178 290.89 174.91C290.579 175.577 290.083 176.139 289.46 176.53C288.816 176.921 288.074 177.122 287.32 177.11C286.767 177.128 286.216 177.023 285.708 176.804C285.2 176.584 284.746 176.255 284.38 175.84C283.591 174.908 283.187 173.71 283.25 172.49V172.38ZM284.79 172.57C284.748 173.421 284.991 174.263 285.48 174.96C285.699 175.243 285.979 175.471 286.3 175.628C286.621 175.786 286.973 175.867 287.33 175.867C287.687 175.867 288.04 175.786 288.36 175.628C288.681 175.471 288.961 175.243 289.18 174.96C289.674 174.201 289.913 173.304 289.86 172.4C289.901 171.551 289.655 170.712 289.16 170.02C288.943 169.738 288.665 169.51 288.346 169.352C288.027 169.195 287.676 169.113 287.32 169.113C286.964 169.113 286.613 169.195 286.294 169.352C285.975 169.51 285.697 169.738 285.48 170.02C284.98 170.773 284.738 171.668 284.79 172.57V172.57Z" fill="black"/>
<path d="M296.14 174.87L298.35 167.99H299.92L296.71 176.94H295.54L292.3 168H293.86L296.14 174.87Z" fill="black"/>
<path d="M305 177.11C304.443 177.136 303.887 177.042 303.37 176.835C302.852 176.628 302.385 176.313 302 175.91C301.212 175.039 300.802 173.892 300.86 172.72V172.43C300.845 171.611 301.02 170.8 301.37 170.06C301.68 169.391 302.172 168.822 302.79 168.42C303.384 168.031 304.08 167.825 304.79 167.83C305.3 167.8 305.809 167.889 306.28 168.088C306.75 168.287 307.167 168.593 307.5 168.98C308.217 169.921 308.572 171.089 308.5 172.27V172.91H302.44C302.425 173.691 302.699 174.449 303.21 175.04C303.444 175.306 303.734 175.517 304.059 175.659C304.384 175.801 304.736 175.869 305.09 175.86C305.571 175.874 306.048 175.76 306.47 175.53C306.856 175.302 307.195 175.004 307.47 174.65L308.41 175.38C308.048 175.946 307.54 176.405 306.941 176.709C306.341 177.013 305.671 177.152 305 177.11V177.11ZM304.81 169.11C304.519 169.102 304.229 169.157 303.961 169.273C303.693 169.389 303.454 169.562 303.26 169.78C302.805 170.311 302.532 170.973 302.48 171.67H307V171.55C307.004 170.895 306.781 170.259 306.37 169.75C306.178 169.525 305.936 169.349 305.663 169.234C305.391 169.119 305.095 169.07 304.8 169.09L304.81 169.11Z" fill="black"/>
<path d="M314.57 169.37C314.322 169.328 314.071 169.308 313.82 169.31C313.394 169.282 312.969 169.391 312.61 169.621C312.25 169.851 311.973 170.191 311.82 170.59V176.94H310.29V168H311.78V169C311.995 168.625 312.307 168.316 312.684 168.104C313.061 167.893 313.488 167.788 313.92 167.8C314.149 167.79 314.377 167.827 314.59 167.91L314.57 169.37Z" fill="black"/>
<path d="M317.43 168L317.48 169.13C317.792 168.717 318.198 168.385 318.664 168.16C319.13 167.936 319.643 167.826 320.16 167.84C322.047 167.84 323 168.907 323.02 171.04V176.95H321.49V171C321.522 170.484 321.362 169.975 321.04 169.57C320.86 169.403 320.647 169.276 320.414 169.196C320.181 169.117 319.935 169.088 319.69 169.11C319.227 169.101 318.772 169.238 318.39 169.5C318.019 169.756 317.716 170.099 317.51 170.5V176.87H316V168H317.43Z" fill="black"/>
<path d="M330.85 176.94C330.731 176.639 330.657 176.322 330.63 176C330.307 176.354 329.913 176.636 329.473 176.827C329.034 177.018 328.559 177.115 328.08 177.11C327.288 177.141 326.514 176.873 325.91 176.36C325.638 176.125 325.422 175.833 325.277 175.504C325.131 175.176 325.061 174.819 325.07 174.46C325.052 174.039 325.139 173.619 325.324 173.24C325.509 172.861 325.786 172.535 326.13 172.29C327.023 171.722 328.074 171.453 329.13 171.52H330.62V170.81C330.632 170.577 330.595 170.344 330.512 170.125C330.43 169.907 330.303 169.707 330.14 169.54C329.948 169.369 329.723 169.238 329.479 169.156C329.235 169.073 328.977 169.041 328.72 169.06C328.231 169.046 327.751 169.189 327.35 169.47C327.184 169.579 327.047 169.728 326.951 169.902C326.855 170.076 326.803 170.271 326.8 170.47H325.26C325.272 170 325.437 169.548 325.73 169.18C326.07 168.745 326.514 168.401 327.02 168.18C327.585 167.936 328.195 167.814 328.81 167.82C329.687 167.771 330.551 168.045 331.24 168.59C331.532 168.862 331.764 169.192 331.921 169.558C332.078 169.925 332.156 170.321 332.15 170.72V174.84C332.118 175.521 332.223 176.201 332.46 176.84V176.97L330.85 176.94ZM328.31 175.77C328.788 175.772 329.258 175.644 329.67 175.4C330.078 175.17 330.406 174.821 330.61 174.4V172.6H329.41C327.53 172.6 326.6 173.15 326.6 174.24C326.589 174.453 326.626 174.665 326.71 174.861C326.793 175.056 326.919 175.231 327.08 175.37C327.427 175.65 327.865 175.792 328.31 175.77V175.77Z" fill="black"/>
<path d="M336 168V169.13C336.312 168.718 336.718 168.386 337.184 168.161C337.65 167.937 338.163 167.827 338.68 167.84C340.573 167.84 341.527 168.907 341.54 171.04V176.95H340V171C340.035 170.485 339.878 169.976 339.56 169.57C339.379 169.404 339.166 169.277 338.933 169.198C338.701 169.119 338.455 169.089 338.21 169.11C337.743 169.1 337.285 169.236 336.9 169.5C336.529 169.755 336.226 170.099 336.02 170.5V176.87H334.49V168H336Z" fill="black"/>
<path d="M347.47 175.86C347.988 175.867 348.491 175.69 348.89 175.36C349.085 175.213 349.246 175.027 349.363 174.813C349.481 174.599 349.551 174.363 349.57 174.12H351C350.968 174.647 350.784 175.154 350.47 175.58C350.14 176.056 349.692 176.438 349.17 176.69C348.413 177.062 347.557 177.185 346.725 177.041C345.894 176.898 345.129 176.495 344.54 175.89C343.778 174.949 343.393 173.759 343.46 172.55V172.29C343.469 171.496 343.653 170.714 344 170C344.297 169.35 344.776 168.801 345.38 168.42C346.019 168.035 346.755 167.841 347.5 167.86C348.418 167.83 349.312 168.152 350 168.76C350.328 169.056 350.591 169.417 350.774 169.82C350.956 170.222 351.053 170.658 351.06 171.1H349.61C349.584 170.557 349.352 170.046 348.96 169.67C348.564 169.302 348.04 169.105 347.5 169.12C347.154 169.104 346.809 169.171 346.494 169.315C346.179 169.459 345.904 169.677 345.69 169.95C345.217 170.668 344.992 171.522 345.05 172.38V172.67C344.994 173.512 345.219 174.349 345.69 175.05C345.901 175.317 346.173 175.529 346.482 175.67C346.792 175.811 347.13 175.876 347.47 175.86V175.86Z" fill="black"/>
<path d="M356.45 177.11C355.893 177.136 355.337 177.042 354.82 176.835C354.302 176.628 353.835 176.313 353.45 175.91C352.662 175.04 352.252 173.892 352.31 172.72V172.43C352.295 171.611 352.47 170.8 352.82 170.06C353.13 169.391 353.622 168.822 354.24 168.42C354.834 168.031 355.53 167.825 356.24 167.83C356.76 167.795 357.28 167.882 357.76 168.086C358.239 168.289 358.664 168.602 359 169C359.717 169.941 360.072 171.109 360 172.29V172.93H353.94C353.925 173.711 354.199 174.469 354.71 175.06C354.944 175.326 355.234 175.537 355.559 175.679C355.884 175.821 356.236 175.889 356.59 175.88C357.071 175.894 357.548 175.78 357.97 175.55C358.356 175.322 358.695 175.024 358.97 174.67L359.91 175.4C359.541 175.97 359.024 176.43 358.415 176.731C357.806 177.032 357.127 177.163 356.45 177.11V177.11ZM356.26 169.11C355.968 169.102 355.679 169.157 355.411 169.273C355.143 169.389 354.904 169.562 354.71 169.78C354.255 170.311 353.982 170.973 353.93 171.67H358.41V171.55C358.414 170.895 358.191 170.259 357.78 169.75C357.593 169.532 357.359 169.36 357.096 169.245C356.833 169.131 356.547 169.078 356.26 169.09V169.11Z" fill="black"/>
<path d="M365.5 172.38C365.481 171.559 365.653 170.744 366 170C366.314 169.328 366.817 168.763 367.448 168.374C368.079 167.985 368.809 167.789 369.55 167.81C370.104 167.791 370.656 167.894 371.165 168.111C371.675 168.329 372.131 168.656 372.5 169.07C373.285 170.012 373.689 171.215 373.63 172.44V172.55C373.642 173.358 373.471 174.158 373.13 174.89C372.819 175.556 372.323 176.119 371.7 176.51C371.056 176.901 370.314 177.102 369.56 177.09C369.007 177.108 368.456 177.003 367.948 176.784C367.44 176.564 366.986 176.235 366.62 175.82C365.831 174.888 365.427 173.69 365.49 172.47L365.5 172.38ZM367.03 172.57C366.988 173.421 367.231 174.262 367.72 174.96C367.94 175.242 368.221 175.471 368.543 175.628C368.864 175.785 369.217 175.867 369.575 175.867C369.933 175.867 370.286 175.785 370.608 175.628C370.929 175.471 371.21 175.242 371.43 174.96C371.924 174.201 372.163 173.304 372.11 172.4C372.151 171.55 371.905 170.712 371.41 170.02C371.193 169.738 370.915 169.509 370.596 169.352C370.277 169.195 369.926 169.113 369.57 169.113C369.214 169.113 368.863 169.195 368.544 169.352C368.225 169.509 367.947 169.738 367.73 170.02C367.216 170.768 366.959 171.663 367 172.57H367.03Z" fill="black"/>
<path d="M376.31 176.94V169.18H374.9V168H376.31V167.09C376.285 166.686 376.341 166.281 376.473 165.899C376.605 165.516 376.811 165.163 377.08 164.86C377.371 164.588 377.714 164.379 378.089 164.245C378.464 164.111 378.863 164.055 379.26 164.08C379.598 164.081 379.935 164.128 380.26 164.22L380.18 165.45C379.909 165.401 379.635 165.377 379.36 165.38C379.149 165.366 378.937 165.397 378.739 165.471C378.54 165.545 378.36 165.661 378.21 165.81C377.919 166.159 377.772 166.606 377.8 167.06V168H379.71V169.19H377.8V176.95L376.31 176.94Z" fill="black"/>
<path d="M386.38 176.94V169.18H385V168H386.41V167.09C386.386 166.686 386.441 166.281 386.573 165.899C386.705 165.516 386.911 165.163 387.18 164.86C387.471 164.588 387.814 164.379 388.189 164.245C388.564 164.111 388.963 164.055 389.36 164.08C389.715 164.077 390.068 164.125 390.41 164.22L390.32 165.45C390.05 165.401 389.775 165.377 389.5 165.38C389.289 165.366 389.077 165.397 388.879 165.471C388.68 165.545 388.5 165.661 388.35 165.81C388.059 166.159 387.912 166.606 387.94 167.06V168H389.85V169.19H387.94V176.95L386.38 176.94Z" fill="black"/>
<path d="M391.52 165.62C391.511 165.39 391.59 165.165 391.74 164.99C391.828 164.902 391.935 164.833 392.052 164.79C392.17 164.747 392.295 164.73 392.42 164.74C392.543 164.731 392.667 164.748 392.783 164.791C392.898 164.835 393.003 164.902 393.09 164.99C393.169 165.074 393.232 165.173 393.273 165.281C393.314 165.389 393.333 165.505 393.33 165.62C393.334 165.734 393.315 165.848 393.274 165.955C393.233 166.062 393.17 166.159 393.09 166.24C393.003 166.328 392.898 166.396 392.783 166.439C392.667 166.482 392.543 166.5 392.42 166.49C392.295 166.501 392.17 166.483 392.052 166.44C391.935 166.397 391.828 166.329 391.74 166.24C391.588 166.07 391.509 165.848 391.52 165.62V165.62ZM393.17 176.94H391.64V168H393.17V176.94Z" fill="black"/>
<path d="M400.83 174.57C400.843 174.377 400.806 174.184 400.724 174.009C400.642 173.834 400.517 173.683 400.36 173.57C399.857 173.276 399.305 173.076 398.73 172.98C398.094 172.863 397.475 172.665 396.89 172.39C396.49 172.205 396.145 171.919 395.89 171.56C395.667 171.222 395.552 170.825 395.56 170.42C395.56 170.059 395.645 169.703 395.806 169.38C395.967 169.058 396.201 168.777 396.49 168.56C397.168 168.031 398.011 167.762 398.87 167.8C399.759 167.762 400.634 168.038 401.34 168.58C401.639 168.819 401.879 169.124 402.042 169.471C402.205 169.818 402.286 170.197 402.28 170.58H400.74C400.741 170.371 400.694 170.165 400.602 169.978C400.51 169.79 400.376 169.627 400.21 169.5C399.833 169.192 399.356 169.032 398.87 169.05C398.406 169.023 397.945 169.149 397.56 169.41C397.404 169.524 397.279 169.675 397.197 169.85C397.115 170.025 397.078 170.217 397.09 170.41C397.082 170.576 397.119 170.742 397.196 170.889C397.274 171.037 397.389 171.161 397.53 171.25C398.027 171.504 398.56 171.683 399.11 171.78C399.751 171.912 400.375 172.117 400.97 172.39C401.385 172.586 401.746 172.881 402.02 173.25C402.257 173.612 402.375 174.038 402.36 174.47C402.366 174.848 402.278 175.222 402.104 175.557C401.929 175.892 401.673 176.178 401.36 176.39C400.634 176.903 399.758 177.16 398.87 177.12C398.215 177.133 397.566 177 396.97 176.73C396.445 176.507 395.994 176.14 395.67 175.67C395.365 175.241 395.2 174.727 395.2 174.2H396.73C396.737 174.436 396.797 174.668 396.904 174.879C397.011 175.09 397.163 175.275 397.35 175.42C397.791 175.738 398.327 175.897 398.87 175.87C399.358 175.892 399.841 175.77 400.26 175.52C400.431 175.426 400.573 175.289 400.673 175.122C400.773 174.955 400.827 174.765 400.83 174.57V174.57Z" fill="black"/>
<path d="M405.88 169.08C406.191 168.679 406.592 168.357 407.051 168.139C407.509 167.922 408.013 167.816 408.52 167.83C410.41 167.83 411.37 168.9 411.38 171.03V176.94H409.85V171C409.894 170.484 409.736 169.972 409.41 169.57C409.229 169.404 409.016 169.277 408.783 169.198C408.551 169.119 408.305 169.089 408.06 169.11C407.594 169.101 407.136 169.237 406.75 169.5C406.384 169.759 406.086 170.102 405.88 170.5V176.87H404.35V164.17H405.88V169.08Z" fill="black"/>
<path d="M417.39 177.11C416.833 177.137 416.277 177.043 415.759 176.836C415.242 176.629 414.775 176.313 414.39 175.91C413.602 175.04 413.192 173.892 413.25 172.72V172.43C413.237 171.613 413.408 170.803 413.75 170.06C414.066 169.392 414.561 168.824 415.18 168.42C415.774 168.031 416.47 167.826 417.18 167.83C417.689 167.803 418.198 167.892 418.668 168.091C419.138 168.291 419.556 168.595 419.89 168.98C420.602 169.924 420.956 171.09 420.89 172.27V172.91H414.83C414.81 173.692 415.085 174.452 415.6 175.04C415.834 175.307 416.123 175.518 416.448 175.66C416.773 175.802 417.126 175.87 417.48 175.86C417.958 175.876 418.431 175.762 418.85 175.53C419.235 175.302 419.574 175.003 419.85 174.65L420.78 175.38C420.42 175.944 419.916 176.401 419.32 176.706C418.724 177.01 418.058 177.149 417.39 177.11V177.11ZM417.2 169.11C416.907 169.1 416.615 169.155 416.345 169.271C416.076 169.387 415.835 169.561 415.64 169.78C415.185 170.311 414.912 170.973 414.86 171.67H419.35V171.55C419.341 170.897 419.12 170.266 418.72 169.75C418.532 169.533 418.298 169.361 418.035 169.247C417.772 169.132 417.487 169.079 417.2 169.09V169.11Z" fill="black"/>
<path d="M427 169.37C426.752 169.328 426.501 169.308 426.25 169.31C425.824 169.282 425.399 169.391 425.039 169.621C424.68 169.851 424.403 170.191 424.25 170.59V176.94H422.71V168H424.2V169C424.413 168.626 424.724 168.317 425.099 168.105C425.474 167.894 425.9 167.789 426.33 167.8C426.562 167.79 426.793 167.827 427.01 167.91L427 169.37Z" fill="black"/>
<path d="M428.38 165.62C428.375 165.389 428.457 165.164 428.61 164.99C428.697 164.902 428.802 164.835 428.917 164.791C429.033 164.748 429.157 164.731 429.28 164.74C429.405 164.73 429.53 164.747 429.648 164.79C429.765 164.833 429.872 164.902 429.96 164.99C430.117 165.162 430.2 165.388 430.19 165.62C430.196 165.734 430.178 165.847 430.139 165.954C430.099 166.06 430.038 166.158 429.96 166.24C429.872 166.329 429.765 166.397 429.648 166.44C429.53 166.483 429.405 166.501 429.28 166.49C429.157 166.5 429.033 166.482 428.917 166.439C428.802 166.396 428.697 166.328 428.61 166.24C428.456 166.071 428.373 165.849 428.38 165.62ZM430 176.94H428.47V168H430V176.94Z" fill="black"/>
<path d="M436.2 177.11C435.643 177.137 435.087 177.043 434.57 176.836C434.052 176.629 433.585 176.313 433.2 175.91C432.41 175.041 431.996 173.894 432.05 172.72V172.43C432.035 171.611 432.21 170.8 432.56 170.06C432.876 169.392 433.371 168.824 433.99 168.42C434.584 168.03 435.28 167.824 435.99 167.83C436.5 167.803 437.009 167.892 437.478 168.091C437.948 168.291 438.366 168.595 438.7 168.98C439.412 169.924 439.766 171.09 439.7 172.27V172.91H433.65C433.63 173.692 433.905 174.452 434.42 175.04C434.654 175.307 434.944 175.518 435.268 175.66C435.593 175.802 435.946 175.87 436.3 175.86C436.778 175.876 437.252 175.762 437.67 175.53C438.058 175.305 438.398 175.006 438.67 174.65L439.61 175.38C439.248 175.947 438.741 176.407 438.141 176.711C437.542 177.015 436.871 177.153 436.2 177.11V177.11ZM436.01 169.11C435.717 169.1 435.425 169.155 435.155 169.271C434.886 169.387 434.645 169.561 434.45 169.78C433.995 170.311 433.722 170.973 433.67 171.67H438.16V171.55C438.151 170.897 437.93 170.266 437.53 169.75C437.341 169.532 437.106 169.359 436.841 169.244C436.576 169.13 436.288 169.077 436 169.09L436.01 169.11Z" fill="black"/>
<path d="M446.66 174.57C446.675 174.378 446.641 174.185 446.56 174.01C446.48 173.835 446.356 173.684 446.2 173.57C445.696 173.278 445.144 173.078 444.57 172.98C443.931 172.863 443.309 172.665 442.72 172.39C442.321 172.204 441.976 171.918 441.72 171.56C441.497 171.222 441.382 170.825 441.39 170.42C441.39 170.059 441.475 169.703 441.636 169.381C441.797 169.058 442.032 168.777 442.32 168.56C442.998 168.032 443.842 167.762 444.7 167.8C445.587 167.76 446.459 168.037 447.16 168.58C447.462 168.818 447.705 169.122 447.87 169.469C448.034 169.816 448.117 170.196 448.11 170.58H446.57C446.569 170.372 446.521 170.166 446.429 169.979C446.337 169.792 446.204 169.629 446.04 169.5C445.663 169.192 445.187 169.032 444.7 169.05C444.236 169.022 443.775 169.148 443.39 169.41C443.234 169.524 443.109 169.675 443.027 169.85C442.945 170.025 442.908 170.217 442.92 170.41C442.91 170.577 442.946 170.743 443.023 170.891C443.101 171.039 443.217 171.163 443.36 171.25C443.857 171.504 444.39 171.683 444.94 171.78C445.581 171.914 446.205 172.118 446.8 172.39C447.215 172.586 447.576 172.882 447.85 173.25C448.087 173.612 448.206 174.038 448.19 174.47C448.196 174.848 448.107 175.221 447.932 175.556C447.758 175.892 447.503 176.178 447.19 176.39C446.467 176.901 445.595 177.158 444.71 177.12C444.052 177.134 443.4 177 442.8 176.73C442.278 176.506 441.831 176.138 441.51 175.67C441.205 175.241 441.04 174.727 441.04 174.2H442.57C442.575 174.437 442.634 174.67 442.741 174.881C442.848 175.092 443.002 175.276 443.19 175.42C443.631 175.739 444.167 175.897 444.71 175.87C445.198 175.891 445.681 175.77 446.1 175.52C446.269 175.426 446.411 175.288 446.509 175.121C446.607 174.954 446.66 174.764 446.66 174.57V174.57Z" fill="black"/>
<path d="M458 175.86C458.521 175.866 459.027 175.689 459.43 175.36C459.622 175.211 459.781 175.024 459.896 174.811C460.012 174.597 460.081 174.362 460.1 174.12H461.55C461.518 174.648 461.334 175.155 461.02 175.58C460.69 176.056 460.242 176.438 459.72 176.69C458.963 177.062 458.107 177.185 457.275 177.041C456.444 176.898 455.679 176.495 455.09 175.89C454.328 174.949 453.943 173.759 454.01 172.55V172.29C453.996 171.491 454.16 170.698 454.49 169.97C454.786 169.32 455.266 168.771 455.87 168.39C456.509 168.005 457.244 167.811 457.99 167.83C458.908 167.8 459.802 168.122 460.49 168.73C460.818 169.026 461.081 169.387 461.263 169.79C461.446 170.192 461.543 170.628 461.55 171.07H460.1C460.074 170.528 459.842 170.016 459.45 169.64C459.054 169.272 458.53 169.075 457.99 169.09C457.644 169.074 457.299 169.141 456.984 169.285C456.669 169.43 456.394 169.647 456.18 169.92C455.706 170.638 455.482 171.492 455.54 172.35V172.64C455.484 173.482 455.709 174.32 456.18 175.02C456.392 175.298 456.668 175.52 456.986 175.666C457.303 175.813 457.651 175.879 458 175.86V175.86Z" fill="black"/>
<path d="M462.84 172.38C462.828 171.565 463.002 170.757 463.35 170.02C463.663 169.35 464.165 168.786 464.794 168.397C465.422 168.008 466.151 167.811 466.89 167.83C467.452 167.803 468.014 167.903 468.533 168.121C469.052 168.339 469.515 168.67 469.89 169.09C470.675 170.032 471.078 171.235 471.02 172.46V172.57C471.032 173.378 470.861 174.178 470.52 174.91C470.209 175.576 469.713 176.139 469.09 176.53C468.446 176.921 467.704 177.122 466.95 177.11C466.387 177.134 465.826 177.032 465.307 176.813C464.788 176.593 464.325 176.261 463.95 175.84C463.169 174.904 462.769 173.708 462.83 172.49L462.84 172.38ZM464.37 172.57C464.328 173.421 464.571 174.262 465.06 174.96C465.273 175.248 465.552 175.48 465.875 175.637C466.197 175.794 466.552 175.87 466.91 175.86C467.27 175.872 467.628 175.794 467.951 175.633C468.274 175.472 468.552 175.234 468.76 174.94C469.262 174.184 469.505 173.286 469.45 172.38C469.491 171.53 469.245 170.692 468.75 170C468.533 169.718 468.255 169.489 467.936 169.332C467.617 169.175 467.266 169.093 466.91 169.093C466.554 169.093 466.203 169.175 465.884 169.332C465.565 169.489 465.287 169.718 465.07 170C464.558 170.755 464.312 171.659 464.37 172.57V172.57Z" fill="black"/>
<path d="M474.34 168V169C474.663 168.616 475.07 168.312 475.53 168.111C475.989 167.91 476.489 167.817 476.99 167.84C477.513 167.79 478.038 167.901 478.496 168.158C478.954 168.416 479.322 168.807 479.55 169.28C479.851 168.859 480.249 168.516 480.71 168.28C481.228 168 481.811 167.862 482.4 167.88C484.36 167.88 485.36 168.92 485.4 171V177H483.9V171C483.947 170.481 483.789 169.964 483.46 169.56C483.258 169.388 483.025 169.258 482.772 169.177C482.52 169.097 482.254 169.067 481.99 169.09C481.471 169.073 480.966 169.259 480.582 169.608C480.197 169.957 479.963 170.442 479.93 170.96V176.9H478.39V171.04C478.438 170.775 478.423 170.502 478.345 170.243C478.268 169.985 478.13 169.749 477.944 169.554C477.758 169.359 477.528 169.211 477.274 169.121C477.019 169.032 476.747 169.004 476.48 169.04C476.044 168.998 475.606 169.101 475.234 169.332C474.862 169.563 474.576 169.91 474.42 170.32V176.85H472.89V168H474.34Z" fill="black"/>
<path d="M489.18 168V169C489.503 168.616 489.91 168.312 490.37 168.111C490.829 167.91 491.329 167.817 491.83 167.84C492.353 167.79 492.878 167.901 493.336 168.158C493.794 168.416 494.161 168.807 494.39 169.28C494.691 168.859 495.089 168.516 495.55 168.28C496.068 168 496.651 167.862 497.24 167.88C499.2 167.88 500.2 168.92 500.24 171V177H498.71V171C498.756 170.481 498.599 169.964 498.27 169.56C498.068 169.388 497.834 169.258 497.582 169.177C497.33 169.097 497.064 169.067 496.8 169.09C496.281 169.073 495.776 169.259 495.392 169.608C495.007 169.957 494.773 170.442 494.74 170.96V176.9H493.2V171.04C493.248 170.775 493.233 170.502 493.155 170.243C493.078 169.985 492.94 169.749 492.754 169.554C492.568 169.359 492.338 169.211 492.084 169.121C491.829 169.032 491.557 169.004 491.29 169.04C490.854 168.998 490.416 169.101 490.044 169.332C489.672 169.563 489.386 169.91 489.23 170.32V176.85H487.7V168H489.18Z" fill="black"/>
<path d="M502.17 172.38C502.161 171.564 502.339 170.757 502.69 170.02C503.002 169.351 503.503 168.788 504.13 168.4C504.762 168.014 505.49 167.816 506.23 167.83C506.792 167.803 507.353 167.903 507.873 168.121C508.392 168.339 508.855 168.67 509.23 169.09C510.015 170.032 510.418 171.235 510.36 172.46V172.57C510.372 173.378 510.201 174.178 509.86 174.91C509.546 175.574 509.05 176.136 508.43 176.53C507.786 176.921 507.044 177.122 506.29 177.11C505.735 177.128 505.183 177.023 504.673 176.804C504.164 176.584 503.708 176.255 503.34 175.84C502.555 174.905 502.152 173.709 502.21 172.49L502.17 172.38ZM503.71 172.57C503.668 173.421 503.91 174.262 504.4 174.96C504.619 175.242 504.899 175.471 505.22 175.628C505.54 175.785 505.893 175.867 506.25 175.867C506.607 175.867 506.96 175.785 507.28 175.628C507.601 175.471 507.881 175.242 508.1 174.96C508.602 174.204 508.845 173.306 508.79 172.4C508.826 171.551 508.58 170.714 508.09 170.02C507.877 169.729 507.597 169.493 507.273 169.335C506.948 169.176 506.591 169.099 506.23 169.11C505.877 169.102 505.526 169.18 505.209 169.336C504.892 169.493 504.618 169.724 504.41 170.01C503.9 170.762 503.654 171.663 503.71 172.57V172.57Z" fill="black"/>
<path d="M511.86 172.39C511.81 171.206 512.162 170.039 512.86 169.08C513.159 168.712 513.532 168.412 513.957 168.201C514.381 167.989 514.845 167.871 515.319 167.854C515.793 167.837 516.265 167.921 516.703 168.102C517.141 168.282 517.536 168.555 517.86 168.9V164.24H519.39V176.94H518L517.92 175.94C517.612 176.314 517.221 176.611 516.779 176.807C516.336 177.003 515.854 177.093 515.37 177.07C514.875 177.078 514.385 176.965 513.943 176.742C513.5 176.519 513.119 176.193 512.83 175.79C512.134 174.827 511.782 173.658 511.83 172.47L511.86 172.39ZM513.39 172.57C513.328 173.425 513.542 174.276 514 175C514.193 175.28 514.454 175.505 514.759 175.655C515.063 175.806 515.401 175.876 515.74 175.86C516.184 175.879 516.623 175.764 517.001 175.531C517.379 175.297 517.678 174.956 517.86 174.55V170.44C517.669 170.047 517.368 169.719 516.993 169.495C516.618 169.271 516.186 169.162 515.75 169.18C515.413 169.162 515.078 169.228 514.772 169.371C514.467 169.514 514.202 169.73 514 170C513.537 170.774 513.324 171.671 513.39 172.57V172.57Z" fill="black"/>
<path d="M521.79 165.62C521.782 165.395 521.856 165.174 522 165C522.088 164.911 522.195 164.843 522.312 164.8C522.43 164.757 522.555 164.74 522.68 164.75C522.803 164.74 522.927 164.758 523.043 164.801C523.158 164.844 523.263 164.912 523.35 165C523.507 165.171 523.589 165.398 523.58 165.63C523.586 165.744 523.568 165.857 523.529 165.964C523.489 166.07 523.428 166.168 523.35 166.25C523.263 166.338 523.158 166.406 523.043 166.449C522.927 166.492 522.803 166.509 522.68 166.5C522.555 166.51 522.43 166.493 522.312 166.45C522.195 166.407 522.088 166.339 522 166.25C521.85 166.075 521.775 165.849 521.79 165.62V165.62ZM523.45 176.94H521.92V168H523.45V176.94Z" fill="black"/>
<path d="M528 165.83V168H529.67V169.19H528V174.74C527.982 175.027 528.059 175.312 528.22 175.55C528.321 175.645 528.441 175.719 528.572 175.765C528.703 175.812 528.842 175.83 528.98 175.82C529.226 175.808 529.47 175.774 529.71 175.72V176.95C529.329 177.059 528.936 177.116 528.54 177.12C528.252 177.14 527.963 177.095 527.694 176.987C527.426 176.88 527.185 176.713 526.99 176.5C526.612 175.991 526.428 175.363 526.47 174.73V169.19H524.84V168H526.47V165.84L528 165.83Z" fill="black"/>
<path d="M531.43 165.62C531.425 165.389 531.507 165.164 531.66 164.99C531.748 164.902 531.855 164.833 531.973 164.79C532.09 164.747 532.215 164.73 532.34 164.74C532.463 164.731 532.587 164.748 532.703 164.791C532.818 164.835 532.923 164.902 533.01 164.99C533.09 165.074 533.152 165.173 533.193 165.281C533.234 165.389 533.253 165.505 533.25 165.62C533.254 165.734 533.235 165.848 533.194 165.955C533.153 166.062 533.09 166.159 533.01 166.24C532.923 166.328 532.818 166.396 532.703 166.439C532.587 166.482 532.463 166.5 532.34 166.49C532.215 166.501 532.09 166.483 531.973 166.44C531.855 166.397 531.748 166.329 531.66 166.24C531.506 166.071 531.423 165.849 531.43 165.62V165.62ZM533.09 176.94H531.56V168H533.09V176.94Z" fill="black"/>
<path d="M539.25 177.11C538.693 177.137 538.137 177.043 537.619 176.836C537.102 176.629 536.635 176.313 536.25 175.91C535.462 175.04 535.052 173.892 535.11 172.72V172.43C535.097 171.613 535.268 170.803 535.61 170.06C535.926 169.392 536.421 168.824 537.04 168.42C537.634 168.031 538.33 167.826 539.04 167.83C539.549 167.803 540.058 167.892 540.528 168.091C540.998 168.291 541.416 168.595 541.75 168.98C542.462 169.924 542.816 171.09 542.75 172.27V172.91H536.69C536.675 173.691 536.949 174.45 537.46 175.04C537.694 175.307 537.983 175.518 538.308 175.66C538.633 175.802 538.986 175.87 539.34 175.86C539.818 175.876 540.291 175.762 540.71 175.53C541.095 175.302 541.434 175.003 541.71 174.65L542.64 175.38C542.28 175.944 541.776 176.401 541.18 176.706C540.584 177.01 539.918 177.149 539.25 177.11V177.11ZM539.06 169.11C538.767 169.1 538.475 169.155 538.205 169.271C537.936 169.387 537.695 169.561 537.5 169.78C537.045 170.311 536.772 170.973 536.72 171.67H541.21V171.55C541.201 170.897 540.98 170.266 540.58 169.75C540.392 169.533 540.158 169.361 539.895 169.247C539.632 169.132 539.347 169.079 539.06 169.09V169.11Z" fill="black"/>
<path d="M549.71 174.57C549.725 174.378 549.691 174.185 549.61 174.01C549.53 173.835 549.406 173.684 549.25 173.57C548.747 173.276 548.195 173.076 547.62 172.98C546.981 172.863 546.359 172.665 545.77 172.39C545.371 172.204 545.026 171.918 544.77 171.56C544.547 171.222 544.432 170.825 544.44 170.42C544.44 170.059 544.525 169.703 544.686 169.381C544.847 169.058 545.082 168.777 545.37 168.56C546.048 168.032 546.892 167.762 547.75 167.8C548.637 167.76 549.509 168.037 550.21 168.58C550.512 168.818 550.755 169.122 550.92 169.469C551.084 169.816 551.167 170.196 551.16 170.58H549.62C549.621 170.371 549.574 170.165 549.482 169.978C549.39 169.791 549.256 169.627 549.09 169.5C548.713 169.192 548.237 169.032 547.75 169.05C547.286 169.022 546.825 169.148 546.44 169.41C546.284 169.524 546.159 169.675 546.077 169.85C545.995 170.025 545.958 170.217 545.97 170.41C545.96 170.577 545.996 170.743 546.073 170.891C546.151 171.039 546.267 171.163 546.41 171.25C546.907 171.504 547.44 171.683 547.99 171.78C548.631 171.914 549.255 172.118 549.85 172.39C550.247 172.593 550.59 172.888 550.85 173.25C551.087 173.612 551.206 174.038 551.19 174.47C551.196 174.848 551.107 175.221 550.932 175.556C550.758 175.892 550.503 176.178 550.19 176.39C549.467 176.901 548.595 177.158 547.71 177.12C547.052 177.133 546.4 176.999 545.8 176.73C545.278 176.506 544.831 176.138 544.51 175.67C544.205 175.241 544.04 174.727 544.04 174.2H545.57C545.577 174.437 545.637 174.668 545.744 174.879C545.851 175.09 546.003 175.275 546.19 175.42C546.631 175.739 547.167 175.897 547.71 175.87C548.198 175.892 548.681 175.771 549.1 175.52C549.279 175.433 549.43 175.298 549.538 175.13C549.645 174.963 549.705 174.769 549.71 174.57V174.57Z" fill="black"/>
<path d="M309.73 192.89C309.785 194.058 309.459 195.213 308.8 196.18C308.512 196.578 308.131 196.899 307.69 197.115C307.248 197.332 306.761 197.436 306.27 197.42C305.796 197.45 305.322 197.376 304.879 197.203C304.437 197.03 304.038 196.763 303.71 196.42V200.73H302.18V188.31H303.57L303.65 189.31C303.961 188.925 304.358 188.619 304.81 188.417C305.262 188.215 305.756 188.124 306.25 188.15C306.741 188.132 307.229 188.233 307.673 188.443C308.117 188.654 308.503 188.968 308.8 189.36C309.474 190.353 309.801 191.541 309.73 192.74V192.89ZM308.2 192.71C308.245 191.866 308.02 191.029 307.56 190.32C307.36 190.04 307.094 189.814 306.785 189.662C306.476 189.51 306.134 189.437 305.79 189.45C305.362 189.435 304.939 189.542 304.57 189.76C304.201 189.978 303.903 190.297 303.71 190.68V195C303.904 195.385 304.206 195.707 304.578 195.925C304.951 196.143 305.379 196.249 305.81 196.23C306.152 196.239 306.49 196.163 306.796 196.01C307.101 195.856 307.364 195.63 307.56 195.35C308.052 194.562 308.276 193.636 308.2 192.71V192.71Z" fill="black"/>
<path d="M316 189.69C315.752 189.649 315.501 189.629 315.25 189.63C314.824 189.602 314.399 189.711 314.039 189.941C313.68 190.172 313.403 190.511 313.25 190.91V197.26H311.72V188.31H313.21V189.31C313.423 188.936 313.734 188.627 314.109 188.416C314.484 188.204 314.91 188.099 315.34 188.11C315.572 188.099 315.803 188.137 316.02 188.22L316 189.69Z" fill="black"/>
<path d="M316.84 192.7C316.828 191.885 317.002 191.078 317.35 190.34C317.664 189.669 318.167 189.104 318.798 188.715C319.428 188.325 320.159 188.129 320.9 188.15C321.462 188.124 322.023 188.223 322.542 188.441C323.062 188.659 323.525 188.99 323.9 189.41C324.685 190.353 325.088 191.555 325.03 192.78V192.89C325.042 193.698 324.871 194.498 324.53 195.23C324.219 195.897 323.723 196.459 323.1 196.85C322.455 197.238 321.713 197.435 320.96 197.42C320.407 197.44 319.857 197.337 319.349 197.119C318.841 196.902 318.387 196.574 318.02 196.16C317.231 195.228 316.827 194.03 316.89 192.81L316.84 192.7ZM318.37 192.89C318.329 193.741 318.572 194.582 319.06 195.28C319.273 195.568 319.552 195.801 319.874 195.957C320.197 196.114 320.552 196.191 320.91 196.18C321.27 196.192 321.628 196.114 321.951 195.953C322.274 195.793 322.552 195.555 322.76 195.26C323.262 194.505 323.505 193.606 323.45 192.7C323.491 191.851 323.244 191.012 322.75 190.32C322.533 190.038 322.255 189.81 321.936 189.652C321.617 189.495 321.266 189.413 320.91 189.413C320.554 189.413 320.203 189.495 319.884 189.652C319.565 189.81 319.287 190.038 319.07 190.32C318.562 191.077 318.316 191.98 318.37 192.89V192.89Z" fill="black"/>
<path d="M326.53 192.71C326.48 191.525 326.833 190.359 327.53 189.4C327.826 189.002 328.213 188.681 328.658 188.464C329.103 188.246 329.594 188.139 330.09 188.15C330.559 188.131 331.026 188.217 331.456 188.403C331.887 188.588 332.271 188.867 332.58 189.22V184.56H334.1V197.26H332.7L332.62 196.26C332.312 196.633 331.921 196.928 331.478 197.123C331.035 197.317 330.553 197.405 330.07 197.38C329.576 197.393 329.087 197.284 328.646 197.062C328.205 196.841 327.825 196.514 327.54 196.11C326.84 195.149 326.487 193.978 326.54 192.79L326.53 192.71ZM328.06 192.89C328.012 193.729 328.229 194.562 328.68 195.27C328.873 195.549 329.134 195.775 329.439 195.925C329.743 196.076 330.081 196.146 330.42 196.13C330.865 196.147 331.305 196.031 331.684 195.798C332.063 195.565 332.364 195.225 332.55 194.82V190.71C332.357 190.319 332.056 189.992 331.681 189.768C331.307 189.545 330.876 189.434 330.44 189.45C330.099 189.437 329.759 189.509 329.452 189.659C329.145 189.809 328.88 190.033 328.68 190.31C328.212 191.086 327.996 191.987 328.06 192.89V192.89Z" fill="black"/>
<path d="M342 196.37C341.667 196.724 341.259 196.998 340.805 197.171C340.351 197.345 339.864 197.413 339.38 197.37C338.978 197.399 338.575 197.339 338.198 197.196C337.822 197.053 337.481 196.829 337.2 196.54C336.652 195.842 336.381 194.966 336.44 194.08V188.26H337.97V194.04C337.97 195.4 338.53 196.04 339.63 196.04C340.107 196.093 340.588 195.995 341.006 195.76C341.424 195.525 341.758 195.165 341.96 194.73V188.22H343.49V197.17H342V196.37Z" fill="black"/>
<path d="M349.37 196.18C349.891 196.187 350.397 196.01 350.8 195.68C350.993 195.532 351.154 195.345 351.271 195.131C351.388 194.918 351.459 194.682 351.48 194.44H352.93C352.893 194.966 352.709 195.472 352.4 195.9C352.066 196.376 351.615 196.758 351.09 197.01C350.334 197.38 349.48 197.501 348.65 197.358C347.821 197.214 347.058 196.812 346.47 196.21C345.708 195.269 345.323 194.078 345.39 192.87V192.61C345.376 191.81 345.54 191.018 345.87 190.29C346.159 189.638 346.636 189.088 347.24 188.71C347.881 188.329 348.615 188.135 349.36 188.15C350.278 188.117 351.173 188.439 351.86 189.05C352.189 189.346 352.454 189.706 352.638 190.109C352.822 190.511 352.921 190.947 352.93 191.39H351.48C351.451 190.846 351.215 190.335 350.82 189.96C350.626 189.775 350.397 189.631 350.146 189.537C349.895 189.442 349.628 189.399 349.36 189.41C349.015 189.391 348.671 189.457 348.357 189.601C348.043 189.746 347.77 189.965 347.56 190.24C347.086 190.958 346.862 191.812 346.92 192.67V193C346.868 193.84 347.089 194.675 347.55 195.38C347.767 195.65 348.045 195.863 348.362 196.003C348.679 196.142 349.025 196.203 349.37 196.18V196.18Z" fill="black"/>
<path d="M356.72 186.15V188.31H358.39V189.5H356.72V195.05C356.702 195.337 356.779 195.622 356.94 195.86C357.042 195.957 357.164 196.03 357.296 196.077C357.429 196.124 357.57 196.142 357.71 196.13C357.952 196.117 358.193 196.084 358.43 196.03V197.26C358.049 197.366 357.655 197.42 357.26 197.42C356.972 197.441 356.682 197.397 356.413 197.289C356.145 197.182 355.904 197.014 355.71 196.8C355.337 196.292 355.153 195.669 355.19 195.04V189.5H353.56V188.31H355.19V186.15H356.72Z" fill="black"/>
<path d="M360.18 185.94C360.175 185.709 360.257 185.484 360.41 185.31C360.498 185.221 360.605 185.153 360.722 185.11C360.84 185.067 360.965 185.05 361.09 185.06C361.213 185.051 361.337 185.068 361.453 185.111C361.568 185.154 361.673 185.222 361.76 185.31C361.84 185.394 361.902 185.493 361.943 185.601C361.984 185.709 362.003 185.824 362 185.94C362.004 186.054 361.985 186.168 361.944 186.275C361.903 186.381 361.84 186.478 361.76 186.56C361.673 186.648 361.568 186.716 361.453 186.759C361.337 186.802 361.213 186.82 361.09 186.81C360.965 186.82 360.84 186.803 360.722 186.76C360.605 186.717 360.498 186.649 360.41 186.56C360.256 186.391 360.173 186.169 360.18 185.94ZM361.84 197.26H360.31V188.31H361.84V197.26Z" fill="black"/>
<path d="M363.88 192.7C363.866 191.883 364.044 191.075 364.4 190.34C364.712 189.671 365.212 189.108 365.84 188.72C366.471 188.334 367.2 188.136 367.94 188.15C368.502 188.125 369.063 188.225 369.582 188.442C370.1 188.66 370.564 188.991 370.94 189.41C371.722 190.354 372.121 191.556 372.06 192.78V192.89C372.077 193.698 371.906 194.499 371.56 195.23C371.249 195.896 370.753 196.459 370.13 196.85C369.487 197.236 368.749 197.433 368 197.42C367.446 197.44 366.894 197.338 366.384 197.12C365.874 196.902 365.418 196.574 365.05 196.16C364.265 195.225 363.862 194.029 363.92 192.81L363.88 192.7ZM365.42 192.89C365.379 193.741 365.622 194.581 366.11 195.28C366.329 195.562 366.609 195.791 366.93 195.948C367.25 196.105 367.603 196.187 367.96 196.187C368.317 196.187 368.669 196.105 368.99 195.948C369.311 195.791 369.591 195.562 369.81 195.28C370.312 194.524 370.555 193.625 370.5 192.72C370.536 191.871 370.289 191.034 369.8 190.34C369.587 190.049 369.306 189.814 368.982 189.656C368.658 189.497 368.3 189.42 367.94 189.43C367.585 189.422 367.233 189.499 366.915 189.656C366.596 189.813 366.32 190.044 366.11 190.33C365.608 191.085 365.365 191.984 365.42 192.89V192.89Z" fill="black"/>
<path d="M375.39 188.31L375.44 189.44C375.752 189.028 376.158 188.696 376.624 188.472C377.09 188.247 377.603 188.137 378.12 188.15C380.01 188.15 380.96 189.21 380.98 191.35V197.26H379.45V191.34C379.487 190.825 379.33 190.315 379.01 189.91C378.829 189.744 378.616 189.617 378.383 189.538C378.151 189.459 377.905 189.429 377.66 189.45C377.193 189.44 376.735 189.576 376.35 189.84C375.977 190.093 375.674 190.437 375.47 190.84V197.21H373.94V188.26L375.39 188.31Z" fill="black"/>
<path d="M387.07 192.7C387.056 191.884 387.234 191.075 387.59 190.34C387.902 189.672 388.403 189.109 389.03 188.72C389.662 188.334 390.39 188.137 391.13 188.15C391.692 188.124 392.254 188.223 392.773 188.441C393.292 188.659 393.755 188.99 394.13 189.41C394.915 190.353 395.319 191.555 395.26 192.78V192.89C395.272 193.698 395.101 194.498 394.76 195.23C394.446 195.894 393.95 196.456 393.33 196.85C392.685 197.238 391.943 197.435 391.19 197.42C390.636 197.439 390.085 197.336 389.575 197.119C389.065 196.901 388.609 196.574 388.24 196.16C387.455 195.226 387.052 194.029 387.11 192.81L387.07 192.7ZM388.61 192.89C388.569 193.741 388.812 194.582 389.3 195.28C389.519 195.563 389.799 195.791 390.12 195.948C390.441 196.106 390.793 196.187 391.15 196.187C391.507 196.187 391.86 196.106 392.18 195.948C392.501 195.791 392.781 195.563 393 195.28C393.502 194.525 393.745 193.626 393.69 192.72C393.726 191.871 393.48 191.035 392.99 190.34C392.772 190.058 392.493 189.829 392.173 189.672C391.853 189.515 391.502 189.433 391.145 189.433C390.789 189.433 390.437 189.515 390.117 189.672C389.797 189.829 389.518 190.058 389.3 190.34C388.8 191.093 388.558 191.988 388.61 192.89V192.89Z" fill="black"/>
<path d="M398.58 188.31L398.63 189.44C398.942 189.028 399.348 188.696 399.814 188.472C400.28 188.247 400.793 188.137 401.31 188.15C403.2 188.15 404.15 189.21 404.17 191.35V197.26H402.64V191.34C402.677 190.825 402.52 190.315 402.2 189.91C402.019 189.744 401.806 189.617 401.573 189.538C401.341 189.459 401.095 189.429 400.85 189.45C400.383 189.441 399.926 189.577 399.54 189.84C399.169 190.096 398.866 190.439 398.66 190.84V197.21H397.13V188.26L398.58 188.31Z" fill="black"/>
<path d="M412.33 197.26H410.8V184.56H412.33V197.26Z" fill="black"/>
<path d="M420.3 197.26C420.181 196.96 420.11 196.643 420.09 196.32C419.766 196.673 419.372 196.953 418.932 197.142C418.493 197.332 418.018 197.427 417.54 197.42C416.749 197.456 415.974 197.192 415.37 196.68C415.095 196.447 414.876 196.155 414.729 195.827C414.582 195.498 414.511 195.14 414.52 194.78C414.503 194.359 414.591 193.94 414.776 193.561C414.961 193.182 415.237 192.856 415.58 192.61C416.473 192.042 417.524 191.773 418.58 191.84H420.07V191.13C420.082 190.897 420.045 190.664 419.962 190.445C419.88 190.227 419.753 190.028 419.59 189.86C419.399 189.69 419.176 189.56 418.934 189.477C418.691 189.395 418.435 189.362 418.18 189.38C417.691 189.363 417.209 189.507 416.81 189.79C416.642 189.899 416.504 190.047 416.406 190.221C416.309 190.395 416.255 190.591 416.25 190.79H414.7C414.711 190.319 414.88 189.864 415.18 189.5C415.517 189.062 415.961 188.718 416.47 188.5C417.035 188.255 417.645 188.133 418.26 188.14C419.134 188.09 419.996 188.364 420.68 188.91C420.974 189.18 421.208 189.51 421.365 189.877C421.522 190.244 421.598 190.641 421.59 191.04V195.16C421.563 195.841 421.668 196.52 421.9 197.16V197.29L420.3 197.26ZM417.76 196.09C418.242 196.092 418.715 195.964 419.13 195.72C419.537 195.493 419.863 195.143 420.06 194.72V192.89H418.86C416.99 192.89 416.05 193.44 416.05 194.53C416.039 194.743 416.076 194.955 416.159 195.151C416.243 195.346 416.369 195.521 416.53 195.66C416.874 195.949 417.311 196.102 417.76 196.09V196.09Z" fill="black"/>
<path d="M425.44 188.31L425.49 189.44C425.8 189.028 426.204 188.696 426.669 188.472C427.133 188.247 427.644 188.137 428.16 188.15C430.05 188.15 431.01 189.21 431.02 191.35V197.26H429.5V191.34C429.534 190.824 429.373 190.314 429.05 189.91C428.869 189.744 428.656 189.617 428.423 189.538C428.191 189.459 427.945 189.429 427.7 189.45C427.234 189.442 426.776 189.578 426.39 189.84C426.022 190.096 425.723 190.44 425.52 190.84V197.21H424V188.26L425.44 188.31Z" fill="black"/>
<path d="M433 192.71C432.95 191.525 433.302 190.359 434 189.4C434.299 189.025 434.676 188.719 435.105 188.503C435.534 188.288 436.004 188.167 436.484 188.15C436.963 188.133 437.441 188.22 437.884 188.404C438.327 188.589 438.725 188.867 439.05 189.22V184.56H440.58V197.26H439.1L439.03 196.26C438.72 196.633 438.327 196.928 437.882 197.123C437.438 197.317 436.954 197.405 436.47 197.38C435.976 197.393 435.487 197.284 435.046 197.062C434.604 196.841 434.225 196.514 433.94 196.11C433.244 195.147 432.892 193.978 432.94 192.79L433 192.71ZM434.53 192.89C434.484 193.73 434.705 194.563 435.16 195.27C435.352 195.548 435.612 195.772 435.914 195.923C436.217 196.073 436.552 196.144 436.89 196.13C437.335 196.147 437.775 196.031 438.154 195.798C438.533 195.565 438.834 195.225 439.02 194.82V190.71C438.828 190.318 438.527 189.99 438.152 189.767C437.778 189.543 437.346 189.433 436.91 189.45C436.57 189.437 436.232 189.509 435.926 189.659C435.621 189.809 435.357 190.033 435.16 190.31C434.674 191.08 434.44 191.981 434.49 192.89H434.53Z" fill="black"/>
<path d="M452.6 197.26C452.481 196.959 452.407 196.642 452.38 196.32C452.056 196.672 451.662 196.953 451.222 197.142C450.783 197.332 450.308 197.426 449.83 197.42C449.039 197.454 448.265 197.19 447.66 196.68C447.388 196.445 447.172 196.153 447.027 195.824C446.881 195.496 446.811 195.139 446.82 194.78C446.801 194.358 446.888 193.939 447.073 193.56C447.258 193.181 447.536 192.854 447.88 192.61C448.773 192.042 449.824 191.773 450.88 191.84H452.37V191.13C452.381 190.897 452.345 190.663 452.262 190.445C452.18 190.226 452.053 190.027 451.89 189.86C451.698 189.689 451.473 189.558 451.229 189.476C450.985 189.393 450.727 189.361 450.47 189.38C449.981 189.365 449.501 189.509 449.1 189.79C448.934 189.899 448.797 190.047 448.701 190.222C448.605 190.396 448.553 190.591 448.55 190.79H447C447.012 190.32 447.177 189.867 447.47 189.5C447.807 189.062 448.251 188.717 448.76 188.5C449.325 188.256 449.935 188.133 450.55 188.14C451.427 188.091 452.291 188.365 452.98 188.91C453.272 189.181 453.504 189.511 453.661 189.878C453.818 190.245 453.896 190.641 453.89 191.04V195.16C453.858 195.841 453.963 196.521 454.2 197.16V197.29L452.6 197.26ZM450.06 196.09C450.538 196.092 451.008 195.964 451.42 195.72C451.828 195.49 452.156 195.141 452.36 194.72V192.89H451.16C449.28 192.89 448.35 193.44 448.35 194.53C448.339 194.742 448.376 194.955 448.459 195.15C448.543 195.346 448.669 195.52 448.83 195.66C449.173 195.95 449.611 196.103 450.06 196.09Z" fill="black"/>
<path d="M457.73 188.31V189.44C458.042 189.028 458.448 188.696 458.914 188.472C459.38 188.247 459.893 188.137 460.41 188.15C462.3 188.15 463.25 189.21 463.27 191.35V197.26H461.74V191.34C461.777 190.825 461.62 190.315 461.3 189.91C461.119 189.744 460.906 189.617 460.673 189.538C460.441 189.459 460.195 189.429 459.95 189.45C459.483 189.44 459.025 189.576 458.64 189.84C458.267 190.093 457.964 190.437 457.76 190.84V197.21H456.23V188.26L457.73 188.31Z" fill="black"/>
<path d="M465.25 192.71C465.2 191.525 465.552 190.359 466.25 189.4C466.549 189.032 466.922 188.732 467.347 188.52C467.771 188.309 468.235 188.191 468.709 188.174C469.183 188.156 469.655 188.241 470.093 188.422C470.531 188.602 470.926 188.874 471.25 189.22V184.56H472.78V197.26H471.38L471.3 196.26C470.992 196.633 470.601 196.928 470.158 197.123C469.715 197.317 469.233 197.405 468.75 197.38C468.255 197.389 467.766 197.279 467.324 197.058C466.881 196.836 466.499 196.511 466.21 196.11C465.514 195.147 465.162 193.978 465.21 192.79L465.25 192.71ZM466.78 192.89C466.735 193.73 466.955 194.563 467.41 195.27C467.603 195.549 467.864 195.775 468.169 195.925C468.473 196.076 468.811 196.146 469.15 196.13C469.594 196.149 470.033 196.034 470.411 195.801C470.789 195.567 471.088 195.225 471.27 194.82V190.71C471.078 190.318 470.777 189.99 470.402 189.767C470.028 189.543 469.596 189.433 469.16 189.45C468.82 189.437 468.482 189.509 468.176 189.659C467.871 189.809 467.607 190.033 467.41 190.31C466.938 191.084 466.718 191.986 466.78 192.89V192.89Z" fill="black"/>
<path d="M484.89 197.26C484.771 196.96 484.7 196.643 484.68 196.32C484.355 196.671 483.96 196.95 483.521 197.14C483.082 197.329 482.608 197.425 482.13 197.42C481.339 197.456 480.564 197.192 479.96 196.68C479.685 196.447 479.466 196.155 479.319 195.827C479.172 195.498 479.101 195.14 479.11 194.78C479.091 194.359 479.178 193.939 479.363 193.56C479.548 193.181 479.826 192.854 480.17 192.61C481.063 192.042 482.114 191.773 483.17 191.84H484.66V191.13C484.672 190.897 484.635 190.664 484.552 190.445C484.47 190.227 484.343 190.028 484.18 189.86C483.989 189.69 483.766 189.56 483.524 189.477C483.282 189.395 483.025 189.362 482.77 189.38C482.278 189.364 481.794 189.508 481.39 189.79C481.224 189.899 481.087 190.048 480.991 190.222C480.895 190.396 480.843 190.591 480.84 190.79H479.3C479.311 190.319 479.48 189.864 479.78 189.5C480.113 189.058 480.558 188.712 481.07 188.5C481.635 188.255 482.245 188.133 482.86 188.14C483.734 188.09 484.596 188.364 485.28 188.91C485.574 189.18 485.808 189.51 485.965 189.877C486.122 190.244 486.198 190.641 486.19 191.04V195.16C486.158 195.841 486.263 196.521 486.5 197.16V197.29L484.89 197.26ZM482.35 196.09C482.832 196.092 483.305 195.964 483.72 195.72C484.127 195.493 484.453 195.143 484.65 194.72V192.89H483.45C481.58 192.89 480.64 193.44 480.64 194.53C480.629 194.743 480.666 194.955 480.75 195.151C480.833 195.346 480.959 195.521 481.12 195.66C481.464 195.949 481.901 196.102 482.35 196.09V196.09Z" fill="black"/>
<path d="M490.65 186.15V188.31H492.32V189.5H490.65V195.05C490.63 195.338 490.711 195.625 490.88 195.86C490.978 195.96 491.097 196.036 491.229 196.083C491.361 196.129 491.501 196.146 491.64 196.13C491.882 196.118 492.123 196.084 492.36 196.03V197.26C491.979 197.366 491.585 197.42 491.19 197.42C490.901 197.441 490.612 197.397 490.343 197.289C490.075 197.182 489.834 197.014 489.64 196.8C489.267 196.292 489.083 195.669 489.12 195.04V189.5H487.49V188.31H489.12V186.15H490.65Z" fill="black"/>
<path d="M503.51 194.89C503.523 194.697 503.487 194.504 503.404 194.329C503.322 194.154 503.197 194.003 503.04 193.89C502.54 193.59 501.986 193.389 501.41 193.3C500.774 193.183 500.155 192.985 499.57 192.71C499.172 192.522 498.828 192.237 498.57 191.88C498.347 191.542 498.232 191.144 498.24 190.74C498.24 190.379 498.325 190.023 498.486 189.7C498.647 189.378 498.882 189.097 499.17 188.88C499.848 188.353 500.692 188.084 501.55 188.12C502.44 188.078 503.315 188.355 504.02 188.9C504.32 189.139 504.562 189.443 504.726 189.79C504.891 190.137 504.974 190.516 504.97 190.9H503.43C503.429 190.69 503.38 190.484 503.286 190.297C503.193 190.109 503.057 189.946 502.89 189.82C502.513 189.512 502.037 189.352 501.55 189.37C501.086 189.343 500.625 189.469 500.24 189.73C500.091 189.839 499.971 189.982 499.889 190.147C499.807 190.313 499.766 190.495 499.77 190.68C499.762 190.845 499.799 191.009 499.876 191.155C499.954 191.301 500.069 191.424 500.21 191.51C500.708 191.774 501.244 191.956 501.8 192.05C502.438 192.182 503.059 192.386 503.65 192.66C504.07 192.853 504.434 193.149 504.71 193.52C504.943 193.883 505.061 194.308 505.05 194.74C505.055 195.118 504.967 195.491 504.792 195.826C504.618 196.161 504.363 196.448 504.05 196.66C503.323 197.17 502.447 197.423 501.56 197.38C500.906 197.396 500.257 197.266 499.66 197C499.157 196.787 498.721 196.442 498.4 196C498.09 195.573 497.926 195.057 497.93 194.53H499.46C499.466 194.766 499.523 194.997 499.629 195.208C499.734 195.419 499.885 195.604 500.07 195.75C500.511 196.067 501.047 196.226 501.59 196.2C502.078 196.222 502.561 196.1 502.98 195.85C503.145 195.75 503.28 195.609 503.373 195.441C503.466 195.272 503.513 195.082 503.51 194.89V194.89Z" fill="black"/>
<path d="M510.74 197.42C510.184 197.446 509.629 197.354 509.111 197.149C508.594 196.944 508.127 196.63 507.74 196.23C506.951 195.356 506.541 194.205 506.6 193.03V192.75C506.585 191.931 506.76 191.12 507.11 190.38C507.423 189.713 507.915 189.145 508.53 188.74C509.124 188.351 509.82 188.146 510.53 188.15C511.041 188.121 511.552 188.21 512.024 188.409C512.495 188.608 512.915 188.913 513.25 189.3C513.962 190.244 514.316 191.409 514.25 192.59V193.22H508.19C508.172 194.006 508.45 194.77 508.97 195.36C509.204 195.626 509.493 195.838 509.818 195.98C510.143 196.122 510.496 196.19 510.85 196.18C511.328 196.195 511.801 196.081 512.22 195.85C512.606 195.622 512.945 195.324 513.22 194.97L514.16 195.7C513.795 196.266 513.286 196.724 512.685 197.026C512.083 197.329 511.412 197.465 510.74 197.42ZM510.55 189.42C510.258 189.412 509.969 189.468 509.701 189.583C509.433 189.699 509.194 189.872 509 190.09C508.545 190.621 508.272 191.283 508.22 191.98H512.7V191.86C512.702 191.207 512.483 190.573 512.08 190.06C511.889 189.845 511.653 189.675 511.388 189.563C511.124 189.45 510.837 189.398 510.55 189.41V189.42Z" fill="black"/>
<path d="M521.53 197.26C521.411 196.959 521.337 196.642 521.31 196.32C520.986 196.672 520.592 196.953 520.152 197.142C519.713 197.332 519.239 197.426 518.76 197.42C517.97 197.454 517.195 197.19 516.59 196.68C516.318 196.445 516.102 196.153 515.957 195.824C515.812 195.496 515.741 195.139 515.75 194.78C515.731 194.358 515.818 193.939 516.003 193.56C516.188 193.181 516.466 192.854 516.81 192.61C517.703 192.042 518.754 191.773 519.81 191.84H521.3V191.13C521.312 190.897 521.275 190.663 521.192 190.445C521.11 190.226 520.983 190.027 520.82 189.86C520.627 189.69 520.402 189.56 520.158 189.477C519.914 189.395 519.657 189.362 519.4 189.38C518.911 189.365 518.431 189.509 518.03 189.79C517.864 189.899 517.727 190.047 517.631 190.222C517.535 190.396 517.483 190.591 517.48 190.79H515.94C515.952 190.32 516.117 189.867 516.41 189.5C516.747 189.062 517.192 188.717 517.7 188.5C518.265 188.256 518.875 188.133 519.49 188.14C520.367 188.091 521.231 188.365 521.92 188.91C522.212 189.181 522.444 189.511 522.601 189.878C522.758 190.245 522.836 190.641 522.83 191.04V195.16C522.798 195.841 522.903 196.521 523.14 197.16V197.29L521.53 197.26ZM519 196.09C519.478 196.092 519.948 195.964 520.36 195.72C520.768 195.49 521.096 195.141 521.3 194.72V192.89H520.1C518.22 192.89 517.29 193.44 517.29 194.53C517.279 194.742 517.316 194.955 517.4 195.15C517.483 195.346 517.609 195.52 517.77 195.66C518.113 195.95 518.551 196.103 519 196.09V196.09Z" fill="black"/>
<path d="M235.904 125.234L122.024 10.875L7.66495 124.756L121.546 239.114L235.904 125.234Z" fill="#2D9747"/>
<g opacity="0.15">
<path d="M121.57 227.51L19.27 124.79L122 22.4902L224.3 125.21L121.57 227.51ZM22.44 124.79L121.58 224.35L221.13 125.21L122 25.6502L22.44 124.79ZM121.6 214.49L87.46 180.21L113.68 154.1L88.36 128.68L70.36 146.68L82.22 158.6L87.16 153.68L80.21 146.68L88.37 138.55L103.85 154.09L82.57 175.29L52.72 145.29L73.2 124.89L52.78 104.42L82.78 74.5702L103.97 95.8502L88.4 111.33L80.27 103.17L87.27 96.1702L82.35 91.2302L70.42 103.15L88.42 121.15L113.8 95.8702L87.69 69.6502L122 35.5102L156.15 69.7902L129.9 95.9002L155.21 121.32L173.21 103.32L161.38 91.4402L156.44 96.3602L163.44 103.36L155.27 111.49L139.75 95.9202L161 74.7302L190.85 104.73L170.4 125.1L190.8 145.58L160.8 175.43L139.61 154.15L155.16 138.67L163.28 146.83L156.28 153.78L161.19 158.72L173.11 146.85L155.11 128.85L129.69 154.16L155.8 180.38L121.6 214.49ZM90.6 180.21L121.6 211.33L152.71 180.33L126.6 154.11L155.19 125.64L176.32 146.85L161.23 161.85L153.15 153.74L160.15 146.79L155.15 141.79L142.8 154.16L160.8 172.26L187.6 145.58L167.2 125.09L187.69 104.7L161 77.9002L142.89 95.9002L155.21 108.27L160.21 103.27L153.26 96.2702L161.37 88.2002L176.37 103.29L155.2 124.49L126.73 95.9002L153 69.7902L122 38.6702L90.89 69.6702L117 95.8802L88.4 124.35L67.25 103.14L82.34 88.1402L90.42 96.2502L83.42 103.25L88.42 108.25L100.79 95.9302L82.79 77.8202L55.99 104.51L76.39 125L55.86 145.3L82.55 172.1L100.66 154.1L88.34 141.7L83.34 146.7L90.34 153.7L82.23 161.77L67.23 146.68L88.44 125.56L116.92 154.15L90.6 180.21ZM195.72 140.67L180.24 125.12L195.78 109.64L211.26 125.19L195.72 140.67ZM183.4 125.13L195.72 137.5L208.09 125.18L195.77 112.81L183.4 125.13ZM47.78 140.36L32.3 124.81L47.84 109.33L63.32 124.88L47.78 140.36ZM35.46 124.82L47.78 137.19L60.15 124.87L47.83 112.5L35.46 124.82Z" fill="white"/>
<path d="M121.62 203.92L97.6201 179.92L121.62 155.92L145.62 179.97L121.62 203.92ZM100.84 179.92L121.63 200.8L142.51 180L121.72 159.12L100.84 179.92Z" fill="white"/>
<path d="M121.85 93.4204L97.8999 69.4204L121.9 45.4204L145.9 69.4804L121.85 93.4204ZM101.07 69.4204L121.86 90.3004L142.74 69.5104L122 48.5804L101.07 69.4204Z" fill="white"/>
</g>
<path d="M125.58 122.32V102C125.58 99.65 126.31 99 128.7 98.94H135.7V90.46H134.18C129.53 90.46 124.87 90.46 120.18 90.46C119.602 90.377 119.039 90.2085 118.51 89.96C118.743 89.4217 119.042 88.9144 119.4 88.45C120.86 87 122.35 85.55 124 84C122.3 82.33 120.74 80.84 119.24 79.3C118.96 78.8958 118.744 78.4505 118.6 77.98C119.051 77.7687 119.529 77.6207 120.02 77.54C125.25 77.54 130.48 77.54 135.71 77.54C137.06 77.54 137.45 78 137.44 79.29C137.44 85.19 137.44 91.09 137.44 96.99V98.92C139.72 98.92 141.91 99 144.09 98.92C144.873 98.8363 145.663 98.9959 146.351 99.377C147.04 99.7582 147.595 100.342 147.94 101.05C152.38 108.39 156.94 115.67 161.43 122.98C161.68 123.38 161.95 123.76 162.26 124.24C162.96 123.82 163.6 123.41 164.26 123.07C165.95 122.19 167.83 123.2 167.69 125.07C166.97 134.78 164.36 143.74 157.13 150.79C156.48 151.42 155.75 151.97 155.06 152.56C156.496 154.064 158.408 155.024 160.472 155.277C162.535 155.53 164.623 155.062 166.38 153.95C166.686 153.699 167.022 153.488 167.38 153.32C167.799 153.27 168.222 153.27 168.64 153.32C168.53 153.73 168.54 154.38 168.28 154.5C166.695 155.452 164.994 156.198 163.22 156.72C161.806 157.047 160.335 157.036 158.926 156.689C157.517 156.341 156.21 155.667 155.11 154.72C153.305 153.113 150.972 152.226 148.555 152.226C146.138 152.226 143.805 153.113 142 154.72C140.17 156.204 137.886 157.014 135.53 157.014C133.174 157.014 130.89 156.204 129.06 154.72C125.26 151.72 121.39 151.3 117.22 153.88C116.92 154.07 116.39 153.88 115.97 153.88C116.14 153.45 116.18 152.88 116.49 152.61C119.99 149.84 125.43 150.01 129.33 153.06C131.9 155.06 134.71 156.06 137.91 155.12C139.234 154.71 140.473 154.067 141.57 153.22C143.097 151.963 144.93 151.135 146.883 150.821C148.835 150.506 150.836 150.716 152.68 151.43C153.003 151.503 153.337 151.509 153.663 151.447C153.988 151.385 154.297 151.257 154.57 151.07C158.317 148.182 161.19 144.312 162.87 139.89C163.81 137.6 164.5 135.21 165.44 132.44C163.63 133.44 162.25 134.22 160.83 134.92C159.41 135.62 157.96 136.26 156.48 136.82C156.12 136.96 155.6 136.66 155.14 136.57C155.42 136.19 155.61 135.66 155.98 135.46C158.73 134 161.52 132.62 164.28 131.21C164.769 131.007 165.185 130.661 165.473 130.216C165.761 129.771 165.906 129.249 165.89 128.72C165.89 127.72 166.12 126.62 166.18 125.57C166.18 125.23 166.09 124.66 165.88 124.57C165.686 124.516 165.484 124.502 165.285 124.527C165.086 124.553 164.893 124.619 164.72 124.72C156.767 129.25 148.049 132.277 139 133.65C134.75 134.362 130.449 134.73 126.14 134.75C116.07 134.9 105.99 134.8 95.92 134.75C94.64 134.75 94.14 135.06 94.17 136.44C94.25 141.13 94.17 145.82 94.17 150.62C95.17 150.62 95.98 150.47 96.81 150.5C99.1808 150.582 101.458 151.443 103.29 152.95C104.535 154.055 106.054 154.805 107.689 155.122C109.323 155.438 111.012 155.31 112.58 154.75C113 154.61 113.58 154.92 114.04 155.01C113.71 155.4 113.45 156.01 113.04 156.13C109.44 157.38 105.9 157.05 103.04 154.58C101.22 152.996 98.8881 152.123 96.475 152.123C94.062 152.123 91.7303 152.996 89.91 154.58C88.1288 155.999 85.9281 156.79 83.6508 156.828C81.3735 156.866 79.1476 156.149 77.32 154.79C76.88 154.47 76.32 153.55 76.47 153.29C76.99 152.43 77.58 153.16 78.11 153.52C79.7331 154.704 81.7009 155.319 83.7091 155.272C85.7173 155.225 87.6541 154.518 89.22 153.26C89.6987 152.792 90.249 152.404 90.85 152.11C92.62 151.57 92.72 150.32 92.69 148.76C92.61 144.59 92.69 140.42 92.69 136.24C92.69 133.93 93.41 133.24 95.69 133.24C98.69 133.24 101.64 133.24 104.62 133.24H106.33V126.79C106.33 123.35 107.33 122.35 110.78 122.34H112.95L110.52 120.11C109.906 120.297 109.271 120.411 108.63 120.45C108.233 120.444 107.842 120.344 107.491 120.159C107.139 119.973 106.836 119.708 106.606 119.383C106.376 119.059 106.226 118.685 106.168 118.292C106.109 117.899 106.144 117.497 106.27 117.12C106.481 116.733 106.536 116.279 106.422 115.853C106.309 115.427 106.036 115.061 105.66 114.83C104.84 114.09 104.1 113.27 103.31 112.5C102.866 112.168 102.526 111.716 102.333 111.196C102.14 110.676 102.1 110.112 102.22 109.57C102.237 109.387 102.213 109.203 102.151 109.03C102.088 108.857 101.989 108.7 101.86 108.57C95.91 102.57 89.94 96.63 83.79 90.49C83.73 91.03 83.66 91.37 83.66 91.7C83.66 103.167 83.66 114.637 83.66 126.11C83.6212 126.453 83.6898 126.8 83.8563 127.103C84.0229 127.406 84.2792 127.649 84.59 127.8C85.3651 128.332 86.0121 129.03 86.4842 129.843C86.9564 130.656 87.2419 131.563 87.32 132.5C87.53 133.76 87.38 135.08 87.47 136.37C87.5146 136.868 87.661 137.351 87.9 137.79C88.32 138.59 88.9 139.31 89.28 140.13C90.35 142.61 89.28 144.2 86.57 144.2C85.99 144.2 85.4 144.28 84.81 144.32C85.1 144.93 85.36 145.55 85.68 146.14C86.23 147.14 86.86 148.14 87.36 149.14C87.4415 149.325 87.4777 149.527 87.4655 149.729C87.4533 149.93 87.3932 150.126 87.29 150.3C87.1222 150.404 86.9317 150.465 86.7349 150.479C86.5381 150.493 86.3408 150.459 86.16 150.38C85.1741 149.882 84.0848 149.622 82.98 149.622C81.8753 149.622 80.786 149.882 79.8 150.38C79.6183 150.461 79.4199 150.496 79.2215 150.484C79.0231 150.472 78.8305 150.412 78.66 150.31C78.5654 150.128 78.5159 149.925 78.5159 149.72C78.5159 149.515 78.5654 149.312 78.66 149.13C79.2562 147.982 79.9242 146.874 80.66 145.81C81.66 144.4 81.66 144.31 80.07 143.76C78.3205 143.182 76.8302 142.007 75.86 140.44C74.86 138.93 74.86 137.64 76.11 136.37C77.6307 134.86 78.7214 132.972 79.27 130.9C79.59 129.69 80.89 128.75 81.66 127.63C82.002 127.173 82.2066 126.629 82.25 126.06C82.25 113.967 82.25 101.873 82.25 89.78C82.2301 89.6374 82.2301 89.4927 82.25 89.35C82.38 88.83 82.54 88.35 82.69 87.81C83.1888 87.9835 83.6576 88.2332 84.08 88.55C90.28 94.7 96.43 100.9 102.64 107.04C103.07 107.46 103.85 107.51 104.45 107.77C105.335 108.023 106.172 108.418 106.93 108.94C111.02 112.79 115.07 116.68 119.03 120.66C119.523 121.266 120.161 121.737 120.885 122.031C121.608 122.325 122.394 122.431 123.17 122.34C123.972 122.291 124.777 122.284 125.58 122.32V122.32ZM127.09 133.32C139.15 133.32 150.09 129.9 160.86 125.06C155.86 117.06 151.06 109.14 146.14 101.3C145.911 101.057 145.633 100.864 145.325 100.735C145.016 100.606 144.684 100.543 144.35 100.55C139.22 100.49 134.09 100.55 128.96 100.55C127.09 100.55 127.09 100.55 127.09 102.55V133.4V133.32ZM135.73 84.78C133.73 84.78 131.83 84.84 129.97 84.78C129.391 84.642 128.837 84.4125 128.33 84.1C128.804 83.7592 129.336 83.5084 129.9 83.36C131.8 83.27 133.71 83.36 135.7 83.36V79.13H121.07C122.54 80.57 123.72 81.81 124.99 82.95C125.85 83.72 125.79 84.29 124.99 85.04C123.73 86.17 122.56 87.4 121.11 88.83H135.76L135.73 84.78ZM107.91 127.46V133.27C113.6 133.27 119.2 133.27 124.79 133.27C124.969 133.223 125.132 133.13 125.263 133C125.395 132.87 125.49 132.708 125.54 132.53C125.61 130.87 125.54 129.21 125.54 127.53L107.91 127.46ZM82.91 144.64C84.77 141.05 86.19 137.75 85.91 134.36C84.3 134.36 82.91 134.41 81.52 134.36C81.52 134.36 81.42 134.36 81.36 134.26C81.276 134.152 81.2206 134.024 81.1988 133.888C81.1771 133.753 81.1896 133.614 81.2354 133.485C81.2812 133.355 81.3587 133.239 81.4608 133.148C81.563 133.056 81.6865 132.992 81.82 132.96V132.96C82.1327 132.924 82.4432 132.87 82.75 132.8C83.63 132.52 84.52 132.42 85.37 132.07C85.1493 131.315 84.844 130.587 84.46 129.9C83.46 128.54 82.24 128.54 81.33 129.9C80.7504 130.776 80.34 131.753 80.12 132.78C79.31 136.92 80.92 140.59 82.9 144.59L82.91 144.64ZM107.83 125.82H125.52V124C125.373 123.935 125.218 123.888 125.06 123.86C119.94 123.86 114.817 123.86 109.69 123.86C108.52 123.87 108 124.53 107.82 125.77L107.83 125.82ZM118.34 122.2C113.94 117.92 109.69 113.79 105.4 109.7C105.15 109.46 104.49 109.64 104.02 109.62C104.02 110.12 103.87 110.8 104.13 111.11C105.037 112.199 106.041 113.203 107.13 114.11C107.72 114.608 108.425 114.951 109.18 115.11C109.826 115.218 110.416 115.54 110.857 116.024C111.298 116.509 111.563 117.127 111.61 117.78C111.705 118.329 111.924 118.849 112.25 119.3C112.82 120.01 113.6 120.54 114.15 121.3C115.21 122.61 116.61 122.42 118.33 122.15L118.34 122.2ZM78.34 136.29H77.92C77.48 137.19 76.7 138.13 76.82 138.94C77.04 140.47 78.36 141.4 79.9 142.2C79.3 140 78.81 138.11 78.31 136.24L78.34 136.29ZM85.17 148.22C84.52 147.42 84.34 145.88 82.91 146.22C82.05 146.42 81.38 147.39 80.38 148.22H85.17ZM87.35 139.4H86.85C86.49 140.46 86.12 141.51 85.61 142.96C86.61 142.64 87.95 142.42 87.95 142.2C87.8707 141.226 87.6587 140.267 87.32 139.35L87.35 139.4Z" fill="white"/>
<path d="M115.85 142.82H98.7301C98.3997 142.882 98.0605 142.882 97.7301 142.82C97.3246 142.589 96.9456 142.314 96.6001 142C96.9284 141.716 97.2954 141.48 97.6901 141.3C98.1176 141.234 98.5526 141.234 98.9801 141.3C109.62 141.3 120.27 141.38 130.91 141.3C137.54 141.21 143.91 139.39 150.15 137.44C150.585 137.244 151.042 137.099 151.51 137.01C151.932 137.071 152.342 137.203 152.72 137.4C152.47 137.75 152.29 138.29 151.96 138.4C150.15 139.04 148.32 139.59 146.48 140.14C138.734 142.39 130.667 143.339 122.61 142.95C120.37 142.75 118.11 142.82 115.85 142.82Z" fill="white"/>
<path d="M130.62 116.87C130.62 113.56 130.62 110.25 130.62 106.94C130.62 104.77 131.41 104.02 133.62 104.02C136.4 104.02 139.18 104.02 141.96 104.02C142.51 103.985 143.059 104.11 143.539 104.38C144.02 104.649 144.413 105.052 144.67 105.54C147.82 110.7 151.01 115.82 154.17 120.98C155.33 122.87 154.82 124.25 152.69 124.98C146.37 127.245 139.81 128.775 133.14 129.54C131.43 129.71 130.65 129.06 130.64 127.26C130.61 123.78 130.62 120.33 130.62 116.87ZM132.2 127.87C132.356 127.924 132.517 127.965 132.68 127.99C139.448 127.314 146.102 125.775 152.48 123.41C153.53 123.05 153.26 122.41 152.83 121.73C149.69 116.64 146.57 111.53 143.38 106.46C143.189 106.21 142.948 106.003 142.672 105.852C142.397 105.7 142.093 105.608 141.78 105.58C139.1 105.49 136.41 105.58 133.73 105.52C132.52 105.52 132.16 105.97 132.18 107.13C132.18 111.2 132.18 115.28 132.18 119.35L132.2 127.87Z" fill="white"/>
</svg>
