<svg id="Layer_1" data-name="Layer 1" xmlns="http://www.w3.org/2000/svg" viewBox="0 0 645 250"><defs><style>.cls-1{fill:#2d9747;}.cls-2{opacity:0.15;}.cls-3{fill:#fff;}.cls-4{fill:none;stroke:#2d9747;stroke-miterlimit:10;stroke-width:2.6px;}</style></defs><path d="M259,149.57V141.8h-1.41v-1.18H259v-.92a3,3,0,0,1,.77-2.22,2.94,2.94,0,0,1,2.18-.79,4.21,4.21,0,0,1,1.05.14l-.09,1.24a4.22,4.22,0,0,0-.82-.08,1.49,1.49,0,0,0-1.15.44,1.76,1.76,0,0,0-.41,1.25v.94h1.91v1.18h-1.91v7.77Z"/><path d="M263.77,145a5.31,5.31,0,0,1,.51-2.36,3.8,3.8,0,0,1,3.54-2.19,3.78,3.78,0,0,1,3,1.26,4.89,4.89,0,0,1,1.13,3.37v.1a5.4,5.4,0,0,1-.5,2.35,3.74,3.74,0,0,1-1.43,1.61,3.92,3.92,0,0,1-2.14.58,3.79,3.79,0,0,1-2.95-1.26,4.86,4.86,0,0,1-1.12-3.35Zm1.53.18a3.81,3.81,0,0,0,.69,2.39,2.22,2.22,0,0,0,1.85.9,2.17,2.17,0,0,0,1.85-.91,4.17,4.17,0,0,0,.69-2.56,3.78,3.78,0,0,0-.7-2.38,2.21,2.21,0,0,0-1.86-.92,2.19,2.19,0,0,0-1.82.9A4.11,4.11,0,0,0,265.3,145.19Z"/><path d="M278.15,142a5.78,5.78,0,0,0-.75-.05,2,2,0,0,0-2,1.28v6.35h-1.53v-8.95h1.48l0,1a2.39,2.39,0,0,1,2.13-1.19,1.52,1.52,0,0,1,.68.11Z"/><path d="M291.31,145.19a5.37,5.37,0,0,1-.94,3.29,3,3,0,0,1-2.53,1.25,3.27,3.27,0,0,1-2.56-1V153h-1.53V140.62h1.4l.07,1a3.15,3.15,0,0,1,2.6-1.15,3.06,3.06,0,0,1,2.55,1.21,5.45,5.45,0,0,1,.94,3.38Zm-1.53-.17a3.94,3.94,0,0,0-.65-2.39,2.09,2.09,0,0,0-1.77-.88,2.24,2.24,0,0,0-2.08,1.24v4.27a2.25,2.25,0,0,0,2.1,1.22,2.08,2.08,0,0,0,1.75-.87A4.32,4.32,0,0,0,289.78,145Z"/><path d="M297,149.73a3.93,3.93,0,0,1-3-1.19,4.44,4.44,0,0,1-1.14-3.2v-.28a5.37,5.37,0,0,1,.51-2.38,4,4,0,0,1,1.42-1.63,3.53,3.53,0,0,1,2-.59,3.36,3.36,0,0,1,2.71,1.14,5,5,0,0,1,1,3.3v.63h-6.06a3.19,3.19,0,0,0,.77,2.14,2.44,2.44,0,0,0,1.88.81,2.71,2.71,0,0,0,1.38-.33,3.51,3.51,0,0,0,1-.87l.93.72A3.74,3.74,0,0,1,297,149.73Zm-.19-8a2,2,0,0,0-1.55.68,3.28,3.28,0,0,0-.78,1.89h4.48v-.12a2.87,2.87,0,0,0-.63-1.81A1.93,1.93,0,0,0,296.77,141.71Z"/><path d="M307.74,149.57a3.06,3.06,0,0,1-.21-.95,3.41,3.41,0,0,1-2.55,1.11,3.16,3.16,0,0,1-2.17-.75,2.42,2.42,0,0,1-.85-1.89,2.53,2.53,0,0,1,1.07-2.17,4.94,4.94,0,0,1,3-.78h1.49v-.7a1.74,1.74,0,0,0-.48-1.28,2,2,0,0,0-1.41-.47,2.25,2.25,0,0,0-1.37.41,1.23,1.23,0,0,0-.56,1h-1.54a2.07,2.07,0,0,1,.48-1.29,3.23,3.23,0,0,1,1.29-1,4.37,4.37,0,0,1,1.79-.36,3.5,3.5,0,0,1,2.42.77,2.75,2.75,0,0,1,.91,2.13v4.12a5,5,0,0,0,.32,2v.14Zm-2.54-1.17a2.69,2.69,0,0,0,1.37-.37,2.22,2.22,0,0,0,.93-1v-1.83h-1.2c-1.87,0-2.81.54-2.81,1.64A1.4,1.4,0,0,0,304,148,1.84,1.84,0,0,0,305.2,148.4Z"/><path d="M313.5,138.45v2.17h1.68v1.18H313.5v5.56a1.24,1.24,0,0,0,.23.81,1,1,0,0,0,.76.26,3.52,3.52,0,0,0,.73-.1v1.24a4.52,4.52,0,0,1-1.18.16,1.87,1.87,0,0,1-1.54-.62,2.64,2.64,0,0,1-.53-1.76V141.8h-1.62v-1.18H312v-2.17Z"/><path d="M318.62,149.57h-1.53v-12.7h1.53Z"/><path d="M326.59,149.57a3.06,3.06,0,0,1-.21-.95,3.41,3.41,0,0,1-2.55,1.11,3.16,3.16,0,0,1-2.17-.75,2.42,2.42,0,0,1-.85-1.89,2.53,2.53,0,0,1,1.07-2.17,4.94,4.94,0,0,1,3-.78h1.49v-.7a1.74,1.74,0,0,0-.48-1.28,2,2,0,0,0-1.41-.47,2.25,2.25,0,0,0-1.37.41,1.23,1.23,0,0,0-.56,1H321a2.05,2.05,0,0,1,.47-1.29,3.23,3.23,0,0,1,1.29-1,4.37,4.37,0,0,1,1.79-.36,3.5,3.5,0,0,1,2.42.77,2.75,2.75,0,0,1,.91,2.13v4.12a5,5,0,0,0,.32,2v.14Zm-2.53-1.17a2.68,2.68,0,0,0,1.36-.37,2.22,2.22,0,0,0,.93-1v-1.83h-1.2c-1.87,0-2.81.54-2.81,1.64a1.4,1.4,0,0,0,.48,1.13A1.85,1.85,0,0,0,324.06,148.4Z"/><path d="M331.73,140.62l0,1.13a3.25,3.25,0,0,1,2.68-1.29c1.89,0,2.84,1.06,2.86,3.2v5.91h-1.53v-5.92a2.12,2.12,0,0,0-.44-1.43,1.79,1.79,0,0,0-1.36-.47,2.23,2.23,0,0,0-1.3.4,2.7,2.7,0,0,0-.88,1v6.38h-1.53v-8.95Z"/><path d="M339.25,145a5.24,5.24,0,0,1,1-3.31,3.32,3.32,0,0,1,5-.18v-4.66h1.53v12.7h-1.41l-.07-1a3.1,3.1,0,0,1-2.55,1.12,3.05,3.05,0,0,1-2.54-1.27,5.32,5.32,0,0,1-1-3.32Zm1.53.17a3.94,3.94,0,0,0,.63,2.38,2,2,0,0,0,1.74.86,2.22,2.22,0,0,0,2.12-1.3V143a2.26,2.26,0,0,0-2.11-1.27,2,2,0,0,0-1.75.87A4.37,4.37,0,0,0,340.78,145.19Z"/><path d="M352.36,145.08h-4v-1.25h4Z"/><path d="M354.6,149.57V141.8h-1.42v-1.18h1.42v-.92a3,3,0,0,1,.77-2.22,2.9,2.9,0,0,1,2.17-.79,4.21,4.21,0,0,1,1,.14l-.08,1.24a4.41,4.41,0,0,0-.83-.08,1.49,1.49,0,0,0-1.15.44,1.76,1.76,0,0,0-.4,1.25v.94H358v1.18h-1.91v7.77Z"/><path d="M364.05,142a6.06,6.06,0,0,0-.76-.05,2,2,0,0,0-2,1.28v6.35h-1.53v-8.95h1.49l0,1a2.39,2.39,0,0,1,2.13-1.19,1.55,1.55,0,0,1,.68.11Z"/><path d="M365.46,138.25a.92.92,0,0,1,.23-.63.84.84,0,0,1,.67-.26.87.87,0,0,1,.68.26.92.92,0,0,1,.23.63.83.83,0,0,1-.91.87.87.87,0,0,1-.67-.25A.9.9,0,0,1,365.46,138.25Zm1.65,11.32h-1.53v-8.95h1.53Z"/><path d="M373.27,149.73a3.93,3.93,0,0,1-3-1.19,4.44,4.44,0,0,1-1.14-3.2v-.28a5.37,5.37,0,0,1,.51-2.38,4,4,0,0,1,1.42-1.63,3.53,3.53,0,0,1,2-.59,3.38,3.38,0,0,1,2.72,1.14,5,5,0,0,1,1,3.3v.63H370.7a3.19,3.19,0,0,0,.77,2.14,2.47,2.47,0,0,0,1.89.81,2.67,2.67,0,0,0,1.37-.33,3.51,3.51,0,0,0,1-.87l.94.72A3.75,3.75,0,0,1,373.27,149.73Zm-.19-8a2,2,0,0,0-1.55.68,3.28,3.28,0,0,0-.78,1.89h4.48v-.12a2.87,2.87,0,0,0-.63-1.81A1.93,1.93,0,0,0,373.08,141.71Z"/><path d="M380,140.62l0,1.13a3.25,3.25,0,0,1,2.68-1.29c1.89,0,2.84,1.06,2.86,3.2v5.91H384v-5.92a2.07,2.07,0,0,0-.44-1.43,1.78,1.78,0,0,0-1.36-.47,2.23,2.23,0,0,0-1.3.4,2.7,2.7,0,0,0-.88,1v6.38h-1.53v-8.95Z"/><path d="M387.5,145a5.24,5.24,0,0,1,1-3.31,3.32,3.32,0,0,1,5-.18v-4.66h1.53v12.7h-1.4l-.08-1a3.1,3.1,0,0,1-2.55,1.12,3.06,3.06,0,0,1-2.54-1.27,5.32,5.32,0,0,1-1-3.32Zm1.53.17a3.94,3.94,0,0,0,.63,2.38,2,2,0,0,0,1.74.86,2.21,2.21,0,0,0,2.12-1.3V143a2.26,2.26,0,0,0-2.11-1.27,2,2,0,0,0-1.75.87A4.37,4.37,0,0,0,389,145.19Z"/><path d="M399.09,149.57h-1.53v-12.7h1.53Z"/><path d="M404.46,147.33l2.08-6.71h1.64L404.58,151c-.55,1.49-1.44,2.23-2.65,2.23l-.29,0-.57-.11v-1.24l.41,0a2.06,2.06,0,0,0,1.22-.31,2.39,2.39,0,0,0,.71-1.15l.34-.91-3.19-8.85h1.67Z"/><path d="M419.26,149.57a3.06,3.06,0,0,1-.21-.95,3.44,3.44,0,0,1-2.55,1.11,3.15,3.15,0,0,1-2.17-.75,2.39,2.39,0,0,1-.85-1.89,2.52,2.52,0,0,1,1.06-2.17,5,5,0,0,1,3-.78H419v-.7a1.74,1.74,0,0,0-.48-1.28,2,2,0,0,0-1.41-.47,2.28,2.28,0,0,0-1.38.41,1.24,1.24,0,0,0-.55,1h-1.54a2.07,2.07,0,0,1,.48-1.29,3.17,3.17,0,0,1,1.29-1,4.37,4.37,0,0,1,1.79-.36,3.5,3.5,0,0,1,2.42.77,2.78,2.78,0,0,1,.91,2.13v4.12a5,5,0,0,0,.31,2v.14Zm-2.54-1.17a2.69,2.69,0,0,0,1.37-.37,2.22,2.22,0,0,0,.93-1v-1.83h-1.2c-1.87,0-2.81.54-2.81,1.64a1.4,1.4,0,0,0,.48,1.13A1.84,1.84,0,0,0,416.72,148.4Z"/><path d="M422.58,145a5.32,5.32,0,0,1,1-3.33,3.35,3.35,0,0,1,5.12-.08l.07-1h1.4v8.73a3.63,3.63,0,0,1-1,2.74,3.79,3.79,0,0,1-2.76,1,4.71,4.71,0,0,1-1.9-.41,3.24,3.24,0,0,1-1.41-1.14l.79-.91a3,3,0,0,0,2.41,1.21,2.35,2.35,0,0,0,1.74-.63,2.43,2.43,0,0,0,.62-1.77v-.77a3.12,3.12,0,0,1-2.5,1.06,3,3,0,0,1-2.54-1.26A5.54,5.54,0,0,1,422.58,145Zm1.54.17a4.05,4.05,0,0,0,.62,2.38,2,2,0,0,0,1.74.86,2.23,2.23,0,0,0,2.12-1.31V143a2.27,2.27,0,0,0-2.11-1.29,2,2,0,0,0-1.74.87A4.37,4.37,0,0,0,424.12,145.19Z"/><path d="M436.77,142a5.78,5.78,0,0,0-.75-.05,2,2,0,0,0-2,1.28v6.35h-1.53v-8.95h1.48l0,1a2.39,2.39,0,0,1,2.13-1.19,1.52,1.52,0,0,1,.68.11Z"/><path d="M438.18,138.25a.92.92,0,0,1,.23-.63,1,1,0,0,1,1.35,0,.88.88,0,0,1,.24.63.86.86,0,0,1-.24.62.91.91,0,0,1-1.58-.62Zm1.66,11.32h-1.53v-8.95h1.53Z"/><path d="M445.87,148.48a2.18,2.18,0,0,0,1.43-.49,1.74,1.74,0,0,0,.68-1.24h1.45a2.83,2.83,0,0,1-.53,1.46,3.61,3.61,0,0,1-1.3,1.11,3.83,3.83,0,0,1-1.73.41,3.66,3.66,0,0,1-2.9-1.22,4.83,4.83,0,0,1-1.08-3.33v-.26a5.34,5.34,0,0,1,.48-2.32,3.61,3.61,0,0,1,1.38-1.58,3.83,3.83,0,0,1,2.12-.56,3.6,3.6,0,0,1,2.5.9,3.22,3.22,0,0,1,1.06,2.34H448a2.1,2.1,0,0,0-.65-1.43,2.08,2.08,0,0,0-1.46-.56,2.15,2.15,0,0,0-1.81.84,3.93,3.93,0,0,0-.64,2.43v.29a3.83,3.83,0,0,0,.64,2.38A2.13,2.13,0,0,0,445.87,148.48Z"/><path d="M456.67,148.68a3.24,3.24,0,0,1-2.62,1,2.77,2.77,0,0,1-2.18-.83,3.55,3.55,0,0,1-.75-2.46v-5.82h1.53v5.78c0,1.36.55,2,1.65,2a2.29,2.29,0,0,0,2.33-1.3v-6.51h1.53v8.95h-1.45Z"/><path d="M462.15,149.57h-1.53v-12.7h1.53Z"/><path d="M466.67,138.45v2.17h1.67v1.18h-1.67v5.56a1.24,1.24,0,0,0,.22.81,1,1,0,0,0,.76.26,3.44,3.44,0,0,0,.73-.1v1.24a4.39,4.39,0,0,1-1.17.16,1.89,1.89,0,0,1-1.55-.62,2.64,2.64,0,0,1-.52-1.76V141.8h-1.63v-1.18h1.63v-2.17Z"/><path d="M475.65,148.68a3.26,3.26,0,0,1-2.62,1,2.76,2.76,0,0,1-2.18-.83,3.6,3.6,0,0,1-.76-2.46v-5.82h1.53v5.78c0,1.36.55,2,1.65,2a2.28,2.28,0,0,0,2.33-1.3v-6.51h1.54v8.95h-1.46Z"/><path d="M483.78,142a5.78,5.78,0,0,0-.75-.05,2,2,0,0,0-2,1.28v6.35h-1.53v-8.95H481l0,1a2.39,2.39,0,0,1,2.13-1.19,1.52,1.52,0,0,1,.68.11Z"/><path d="M490.38,149.57a3.06,3.06,0,0,1-.21-.95,3.41,3.41,0,0,1-2.55,1.11,3.15,3.15,0,0,1-2.17-.75,2.39,2.39,0,0,1-.85-1.89,2.54,2.54,0,0,1,1.06-2.17,5,5,0,0,1,3-.78h1.49v-.7a1.74,1.74,0,0,0-.48-1.28,2,2,0,0,0-1.41-.47,2.23,2.23,0,0,0-1.37.41,1.23,1.23,0,0,0-.56,1h-1.54a2.07,2.07,0,0,1,.48-1.29,3.23,3.23,0,0,1,1.29-1,4.37,4.37,0,0,1,1.79-.36,3.5,3.5,0,0,1,2.42.77,2.75,2.75,0,0,1,.91,2.13v4.12a5.16,5.16,0,0,0,.31,2v.14Zm-2.54-1.17a2.69,2.69,0,0,0,1.37-.37,2.22,2.22,0,0,0,.93-1v-1.83h-1.2c-1.87,0-2.81.54-2.81,1.64a1.4,1.4,0,0,0,.48,1.13A1.84,1.84,0,0,0,487.84,148.4Z"/><path d="M495.73,149.57H494.2v-12.7h1.53Z"/><path d="M509.93,145.19a5.37,5.37,0,0,1-.94,3.29,3,3,0,0,1-2.53,1.25,3.27,3.27,0,0,1-2.56-1V153h-1.53V140.62h1.4l.07,1a3.15,3.15,0,0,1,2.6-1.15,3.06,3.06,0,0,1,2.55,1.21,5.45,5.45,0,0,1,.94,3.38ZM508.4,145a3.94,3.94,0,0,0-.65-2.39,2.09,2.09,0,0,0-1.77-.88A2.24,2.24,0,0,0,503.9,143v4.27a2.25,2.25,0,0,0,2.1,1.22,2.08,2.08,0,0,0,1.75-.87A4.32,4.32,0,0,0,508.4,145Z"/><path d="M516.19,142a5.78,5.78,0,0,0-.75-.05,2,2,0,0,0-2,1.28v6.35h-1.53v-8.95h1.49l0,1a2.39,2.39,0,0,1,2.14-1.19,1.5,1.5,0,0,1,.67.11Z"/><path d="M517,145a5.18,5.18,0,0,1,.52-2.36A3.83,3.83,0,0,1,519,141a4,4,0,0,1,2.11-.57,3.76,3.76,0,0,1,2.95,1.26,4.84,4.84,0,0,1,1.13,3.37v.1a5.26,5.26,0,0,1-.5,2.35,3.74,3.74,0,0,1-1.43,1.61,3.92,3.92,0,0,1-2.14.58,3.75,3.75,0,0,1-2.94-1.26,4.82,4.82,0,0,1-1.13-3.35Zm1.54.18a3.81,3.81,0,0,0,.69,2.39,2.34,2.34,0,0,0,3.7,0,4.24,4.24,0,0,0,.68-2.56,3.78,3.78,0,0,0-.7-2.38,2.32,2.32,0,0,0-3.68,0A4.17,4.17,0,0,0,518.57,145.19Z"/><path d="M526.72,145a5.23,5.23,0,0,1,1-3.31,3.33,3.33,0,0,1,5-.18v-4.66h1.53v12.7h-1.41l-.07-1a3.12,3.12,0,0,1-2.56,1.12,3,3,0,0,1-2.53-1.27,5.32,5.32,0,0,1-1-3.32Zm1.53.17a3.94,3.94,0,0,0,.63,2.38,2,2,0,0,0,1.73.86,2.24,2.24,0,0,0,2.13-1.3V143a2.26,2.26,0,0,0-2.11-1.27,2,2,0,0,0-1.75.87A4.37,4.37,0,0,0,528.25,145.19Z"/><path d="M542.16,148.68a3.24,3.24,0,0,1-2.62,1,2.77,2.77,0,0,1-2.18-.83,3.55,3.55,0,0,1-.75-2.46v-5.82h1.53v5.78c0,1.36.55,2,1.65,2a2.29,2.29,0,0,0,2.33-1.3v-6.51h1.53v8.95H542.2Z"/><path d="M549.56,148.48A2.18,2.18,0,0,0,551,148a1.74,1.74,0,0,0,.68-1.24h1.45a2.83,2.83,0,0,1-.53,1.46,3.61,3.61,0,0,1-1.3,1.11,3.86,3.86,0,0,1-1.73.41,3.65,3.65,0,0,1-2.9-1.22,4.83,4.83,0,0,1-1.08-3.33v-.26a5.34,5.34,0,0,1,.48-2.32,3.66,3.66,0,0,1,1.37-1.58,3.88,3.88,0,0,1,2.12-.56,3.61,3.61,0,0,1,2.51.9,3.25,3.25,0,0,1,1.06,2.34h-1.45a2.07,2.07,0,0,0-.66-1.43,2,2,0,0,0-1.46-.56,2.14,2.14,0,0,0-1.8.84,3.93,3.93,0,0,0-.64,2.43v.29a3.9,3.9,0,0,0,.63,2.38A2.15,2.15,0,0,0,549.56,148.48Z"/><path d="M556.91,138.45v2.17h1.67v1.18h-1.67v5.56a1.24,1.24,0,0,0,.23.81,1,1,0,0,0,.76.26,3.36,3.36,0,0,0,.72-.1v1.24a4.39,4.39,0,0,1-1.17.16,1.9,1.9,0,0,1-1.55-.62,2.7,2.7,0,0,1-.52-1.76V141.8h-1.63v-1.18h1.63v-2.17Z"/><path d="M565.58,147.19a1.13,1.13,0,0,0-.47-1,4.34,4.34,0,0,0-1.63-.59,7.47,7.47,0,0,1-1.84-.6,2.58,2.58,0,0,1-1-.82,2,2,0,0,1-.33-1.14,2.3,2.3,0,0,1,.93-1.86,3.61,3.61,0,0,1,2.38-.76,3.77,3.77,0,0,1,2.47.78,2.48,2.48,0,0,1,.94,2h-1.53a1.36,1.36,0,0,0-.54-1.08,2,2,0,0,0-1.34-.46,2.06,2.06,0,0,0-1.31.37,1.15,1.15,0,0,0-.47.95.93.93,0,0,0,.44.83,5.26,5.26,0,0,0,1.58.54,7.93,7.93,0,0,1,1.86.61,2.64,2.64,0,0,1,1,.86,2.09,2.09,0,0,1,.35,1.22,2.28,2.28,0,0,1-1,1.92,4,4,0,0,1-2.49.72,4.39,4.39,0,0,1-1.9-.38,3.11,3.11,0,0,1-1.3-1.06,2.59,2.59,0,0,1-.46-1.48h1.53a1.55,1.55,0,0,0,.61,1.22,2.86,2.86,0,0,0,2.91.1A1.07,1.07,0,0,0,565.58,147.19Z"/><path d="M315.33,167.78l1.72-6.84h1.53L316,169.89h-1.24l-2.17-6.78-2.12,6.78H309.2l-2.59-8.95h1.52l1.76,6.7,2.08-6.7h1.23Z"/><path d="M323.85,170.05a3.92,3.92,0,0,1-3-1.19,4.41,4.41,0,0,1-1.15-3.2v-.28a5.37,5.37,0,0,1,.51-2.38,4,4,0,0,1,1.42-1.63,3.54,3.54,0,0,1,2-.6,3.38,3.38,0,0,1,2.72,1.15,5,5,0,0,1,1,3.29v.64h-6.06a3.2,3.2,0,0,0,.78,2.14,2.43,2.43,0,0,0,1.88.81,2.65,2.65,0,0,0,1.37-.33,3.38,3.38,0,0,0,1-.87l.94.72A3.75,3.75,0,0,1,323.85,170.05Zm-.2-8a2,2,0,0,0-1.55.68,3.22,3.22,0,0,0-.78,1.88h4.48v-.11a2.93,2.93,0,0,0-.62-1.81A2,2,0,0,0,323.65,162Z"/><path d="M333.43,162.31a4.47,4.47,0,0,0-.75-.06,2,2,0,0,0-2.05,1.29v6.35H329.1v-8.95h1.49l0,1a2.38,2.38,0,0,1,2.13-1.2,1.53,1.53,0,0,1,.68.12Z"/><path d="M338.39,170.05a3.93,3.93,0,0,1-3-1.19,4.44,4.44,0,0,1-1.14-3.2v-.28a5.37,5.37,0,0,1,.51-2.38,3.89,3.89,0,0,1,1.42-1.63,3.54,3.54,0,0,1,2-.6,3.36,3.36,0,0,1,2.71,1.15,5,5,0,0,1,1,3.29v.64h-6.06a3.19,3.19,0,0,0,.77,2.14,2.43,2.43,0,0,0,1.88.81,2.65,2.65,0,0,0,1.37-.33,3.41,3.41,0,0,0,1-.87l.93.72A3.74,3.74,0,0,1,338.39,170.05Zm-.19-8a2.05,2.05,0,0,0-1.56.68,3.21,3.21,0,0,0-.77,1.88h4.48v-.11a3,3,0,0,0-.63-1.81A2,2,0,0,0,338.2,162Z"/><path d="M351.55,170.05a3.93,3.93,0,0,1-3-1.19,4.44,4.44,0,0,1-1.14-3.2v-.28A5.37,5.37,0,0,1,348,163a4,4,0,0,1,1.42-1.63,3.54,3.54,0,0,1,2-.6,3.36,3.36,0,0,1,2.71,1.15,5,5,0,0,1,1,3.29v.64H349a3.19,3.19,0,0,0,.77,2.14,2.43,2.43,0,0,0,1.88.81,2.71,2.71,0,0,0,1.38-.33,3.51,3.51,0,0,0,1-.87l.93.72A3.74,3.74,0,0,1,351.55,170.05Zm-.19-8a2,2,0,0,0-1.55.68,3.22,3.22,0,0,0-.78,1.88h4.48v-.11a2.87,2.87,0,0,0-.63-1.81A1.93,1.93,0,0,0,351.36,162Z"/><path d="M362,167.51a1.13,1.13,0,0,0-.47-1,4.34,4.34,0,0,0-1.63-.59,7.47,7.47,0,0,1-1.84-.6,2.58,2.58,0,0,1-1-.82,2,2,0,0,1-.33-1.14,2.3,2.3,0,0,1,.93-1.86,3.62,3.62,0,0,1,2.38-.77,3.77,3.77,0,0,1,2.47.79,2.48,2.48,0,0,1,.94,2h-1.53a1.36,1.36,0,0,0-.54-1.08,2,2,0,0,0-1.34-.46,2.06,2.06,0,0,0-1.31.37,1.15,1.15,0,0,0-.47.95.93.93,0,0,0,.44.83,5.26,5.26,0,0,0,1.58.54,7.93,7.93,0,0,1,1.86.61,2.71,2.71,0,0,1,1.05.86,2.09,2.09,0,0,1,.35,1.22,2.28,2.28,0,0,1-1,1.92,4,4,0,0,1-2.49.72,4.54,4.54,0,0,1-1.9-.38,3.11,3.11,0,0,1-1.3-1.06,2.59,2.59,0,0,1-.46-1.48H358a1.55,1.55,0,0,0,.61,1.22,2.86,2.86,0,0,0,2.91.1A1.08,1.08,0,0,0,362,167.51Z"/><path d="M367.61,158.77v2.17h1.68v1.18h-1.68v5.56a1.19,1.19,0,0,0,.23.8.94.94,0,0,0,.76.27,3.52,3.52,0,0,0,.73-.1v1.24a4.52,4.52,0,0,1-1.18.16,1.9,1.9,0,0,1-1.54-.62,2.64,2.64,0,0,1-.52-1.76v-5.55h-1.63v-1.18h1.63v-2.17Z"/><path d="M376.59,169.89a3.39,3.39,0,0,1-.21-.95,3.41,3.41,0,0,1-2.55,1.11,3.16,3.16,0,0,1-2.17-.75,2.43,2.43,0,0,1-.85-1.89,2.51,2.51,0,0,1,1.07-2.17,5,5,0,0,1,3-.78h1.48v-.7a1.74,1.74,0,0,0-.48-1.28,1.93,1.93,0,0,0-1.41-.47,2.21,2.21,0,0,0-1.37.41,1.23,1.23,0,0,0-.56,1H371a2.05,2.05,0,0,1,.47-1.29,3.23,3.23,0,0,1,1.29-1,4.41,4.41,0,0,1,1.79-.37,3.5,3.5,0,0,1,2.42.78,2.75,2.75,0,0,1,.91,2.13v4.11a5,5,0,0,0,.32,2v.14Zm-2.53-1.17a2.65,2.65,0,0,0,1.36-.37,2.22,2.22,0,0,0,.93-1v-1.83h-1.19c-1.88,0-2.82.54-2.82,1.64a1.4,1.4,0,0,0,.48,1.13A1.85,1.85,0,0,0,374.06,168.72Z"/><path d="M387.85,165.51a5.32,5.32,0,0,1-.94,3.3,3,3,0,0,1-2.53,1.24,3.12,3.12,0,0,1-2.62-1.2l-.07,1h-1.41v-12.7h1.53v4.73a3.13,3.13,0,0,1,2.56-1.15,3,3,0,0,1,2.55,1.24,5.46,5.46,0,0,1,.93,3.37Zm-1.53-.17a4.18,4.18,0,0,0-.6-2.42,2,2,0,0,0-1.74-.85,2.25,2.25,0,0,0-2.17,1.41v3.87a2.3,2.3,0,0,0,2.19,1.4,2,2,0,0,0,1.71-.85A4.38,4.38,0,0,0,386.32,165.34Z"/><path d="M391.44,169.89h-1.53v-12.7h1.53Z"/><path d="M393.9,158.57a.88.88,0,0,1,.23-.63.84.84,0,0,1,.67-.26.88.88,0,0,1,.68.26.92.92,0,0,1,.23.63.9.9,0,0,1-.23.62.91.91,0,0,1-.68.25.87.87,0,0,1-.67-.25A.85.85,0,0,1,393.9,158.57Zm1.65,11.32H394v-8.95h1.53Z"/><path d="M403.21,167.51a1.13,1.13,0,0,0-.47-1,4.34,4.34,0,0,0-1.63-.59,7.47,7.47,0,0,1-1.84-.6,2.58,2.58,0,0,1-1-.82,2,2,0,0,1-.33-1.14,2.3,2.3,0,0,1,.93-1.86,3.64,3.64,0,0,1,2.38-.77,3.75,3.75,0,0,1,2.47.79,2.49,2.49,0,0,1,1,2h-1.54a1.36,1.36,0,0,0-.54-1.08,2,2,0,0,0-1.34-.46,2.06,2.06,0,0,0-1.31.37,1.15,1.15,0,0,0-.47.95.93.93,0,0,0,.44.83,5.26,5.26,0,0,0,1.58.54,7.93,7.93,0,0,1,1.86.61,2.64,2.64,0,0,1,1.05.86,2.09,2.09,0,0,1,.35,1.22,2.28,2.28,0,0,1-1,1.92,4,4,0,0,1-2.49.72,4.54,4.54,0,0,1-1.9-.38,3.08,3.08,0,0,1-1.29-1.06,2.52,2.52,0,0,1-.47-1.48h1.53a1.55,1.55,0,0,0,.61,1.22,2.86,2.86,0,0,0,2.91.1A1.08,1.08,0,0,0,403.21,167.51Z"/><path d="M408.26,162a3.27,3.27,0,0,1,2.65-1.25q2.83,0,2.86,3.2v5.92h-1.53V164a2.05,2.05,0,0,0-.45-1.43,1.75,1.75,0,0,0-1.35-.47,2.23,2.23,0,0,0-1.3.4,2.63,2.63,0,0,0-.88,1v6.38h-1.53v-12.7h1.53Z"/><path d="M419.77,170.05a3.93,3.93,0,0,1-3-1.19,4.44,4.44,0,0,1-1.14-3.2v-.28a5.37,5.37,0,0,1,.51-2.38,4,4,0,0,1,1.42-1.63,3.54,3.54,0,0,1,2-.6,3.36,3.36,0,0,1,2.71,1.15,5,5,0,0,1,1,3.29v.64H417.2A3.19,3.19,0,0,0,418,168a2.43,2.43,0,0,0,1.88.81,2.65,2.65,0,0,0,1.37-.33,3.41,3.41,0,0,0,1-.87l.93.72A3.74,3.74,0,0,1,419.77,170.05Zm-.19-8a2.05,2.05,0,0,0-1.56.68,3.21,3.21,0,0,0-.77,1.88h4.48v-.11a3,3,0,0,0-.63-1.81A2,2,0,0,0,419.58,162Z"/><path d="M424.65,165.34a5.24,5.24,0,0,1,1-3.31,3.3,3.3,0,0,1,5-.18v-4.66h1.53v12.7h-1.4l-.08-1a3.1,3.1,0,0,1-2.55,1.12,3,3,0,0,1-2.53-1.27,5.28,5.28,0,0,1-1-3.33Zm1.53.17a3.94,3.94,0,0,0,.63,2.38,2,2,0,0,0,1.74.86,2.21,2.21,0,0,0,2.12-1.3v-4.11a2.23,2.23,0,0,0-2.1-1.27,2.05,2.05,0,0,0-1.76.87A4.37,4.37,0,0,0,426.18,165.51Z"/><path d="M438.78,158.57a.91.91,0,0,1,.22-.63.88.88,0,0,1,.68-.26.9.9,0,0,1,.68.26.92.92,0,0,1,.23.63.9.9,0,0,1-.23.62.93.93,0,0,1-.68.25.91.91,0,0,1-.68-.25A.89.89,0,0,1,438.78,158.57Zm1.65,11.32H438.9v-8.95h1.53Z"/><path d="M444.32,160.94l.05,1.12a3.27,3.27,0,0,1,2.68-1.29c1.89,0,2.85,1.07,2.86,3.2v5.92h-1.53V164a2,2,0,0,0-.44-1.43,1.77,1.77,0,0,0-1.35-.47,2.26,2.26,0,0,0-1.31.4,2.69,2.69,0,0,0-.87,1v6.38h-1.53v-8.95Z"/><path d="M460.2,164.52a7.45,7.45,0,0,1-3-1.44,2.76,2.76,0,0,1-.93-2.11,2.94,2.94,0,0,1,1.13-2.36,4.54,4.54,0,0,1,3-.93,4.92,4.92,0,0,1,2.21.48,3.63,3.63,0,0,1,1.51,1.33,3.4,3.4,0,0,1,.53,1.84H463a2.19,2.19,0,0,0-.69-1.72,2.82,2.82,0,0,0-2-.63,2.87,2.87,0,0,0-1.83.52,1.71,1.71,0,0,0-.66,1.44,1.56,1.56,0,0,0,.62,1.24,6.16,6.16,0,0,0,2.13.93A10.79,10.79,0,0,1,463,164a3.72,3.72,0,0,1,1.26,1.19,3.07,3.07,0,0,1,.4,1.6,2.82,2.82,0,0,1-1.14,2.34,4.83,4.83,0,0,1-3,.88,5.75,5.75,0,0,1-2.31-.47,3.86,3.86,0,0,1-1.66-1.31,3.14,3.14,0,0,1-.58-1.87h1.59a2.07,2.07,0,0,0,.81,1.72,3.39,3.39,0,0,0,2.15.63,3.15,3.15,0,0,0,1.93-.51,1.66,1.66,0,0,0,.67-1.4,1.62,1.62,0,0,0-.62-1.36A6.9,6.9,0,0,0,460.2,164.52Z"/><path d="M472,169a3.24,3.24,0,0,1-2.62,1.05,2.8,2.8,0,0,1-2.18-.83,3.6,3.6,0,0,1-.76-2.46v-5.82H468v5.78c0,1.36.56,2,1.66,2a2.29,2.29,0,0,0,2.33-1.3v-6.51h1.53v8.95H472Z"/><path d="M477.23,160.94l0,1a3.32,3.32,0,0,1,2.66-1.16,2.55,2.55,0,0,1,2.55,1.44,3.34,3.34,0,0,1,2.85-1.44c2,0,3,1,3,3.12v6H486.8V164a2.06,2.06,0,0,0-.44-1.43,1.91,1.91,0,0,0-1.47-.48,2,2,0,0,0-1.42.51,2.09,2.09,0,0,0-.65,1.37v5.94h-1.54V164a1.7,1.7,0,0,0-1.91-2,2.06,2.06,0,0,0-2.06,1.28v6.54h-1.53v-8.95Z"/><path d="M496.16,169.89a3.31,3.31,0,0,1-.22-.95,3.41,3.41,0,0,1-2.55,1.11,3.16,3.16,0,0,1-2.17-.75,2.43,2.43,0,0,1-.84-1.89,2.51,2.51,0,0,1,1.06-2.17,5,5,0,0,1,3-.78h1.49v-.7a1.74,1.74,0,0,0-.48-1.28A2,2,0,0,0,494,162a2.21,2.21,0,0,0-1.37.41,1.22,1.22,0,0,0-.55,1h-1.54a2.11,2.11,0,0,1,.47-1.29,3.23,3.23,0,0,1,1.29-1,4.41,4.41,0,0,1,1.79-.37,3.55,3.55,0,0,1,2.43.78,2.82,2.82,0,0,1,.91,2.13v4.11a5,5,0,0,0,.31,2v.14Zm-2.54-1.17a2.65,2.65,0,0,0,1.36-.37,2.3,2.3,0,0,0,.94-1v-1.83h-1.2c-1.88,0-2.81.54-2.81,1.64a1.4,1.4,0,0,0,.48,1.13A1.84,1.84,0,0,0,493.62,168.72Z"/><path d="M501.92,158.77v2.17h1.67v1.18h-1.67v5.56a1.19,1.19,0,0,0,.22.8.94.94,0,0,0,.76.27,3.44,3.44,0,0,0,.73-.1v1.24a4.39,4.39,0,0,1-1.17.16,1.92,1.92,0,0,1-1.55-.62,2.64,2.64,0,0,1-.52-1.76v-5.55h-1.63v-1.18h1.63v-2.17Z"/><path d="M509.7,162.31a4.38,4.38,0,0,0-.75-.06,2,2,0,0,0-2.05,1.29v6.35h-1.53v-8.95h1.49l0,1a2.38,2.38,0,0,1,2.13-1.2,1.53,1.53,0,0,1,.68.12Z"/><path d="M516.3,169.89a3.31,3.31,0,0,1-.22-.95,3.4,3.4,0,0,1-2.54,1.11,3.13,3.13,0,0,1-2.17-.75,2.4,2.4,0,0,1-.85-1.89,2.51,2.51,0,0,1,1.06-2.17,5,5,0,0,1,3-.78h1.49v-.7a1.74,1.74,0,0,0-.48-1.28,2,2,0,0,0-1.42-.47,2.21,2.21,0,0,0-1.37.41,1.22,1.22,0,0,0-.55,1H510.7a2.07,2.07,0,0,1,.48-1.29,3.1,3.1,0,0,1,1.29-1,4.34,4.34,0,0,1,1.79-.37,3.52,3.52,0,0,1,2.42.78,2.82,2.82,0,0,1,.91,2.13v4.11a5,5,0,0,0,.31,2v.14Zm-2.54-1.17a2.65,2.65,0,0,0,1.36-.37,2.3,2.3,0,0,0,.94-1v-1.83h-1.2c-1.88,0-2.81.54-2.81,1.64a1.4,1.4,0,0,0,.48,1.13A1.84,1.84,0,0,0,513.76,168.72Z"/><path d="M356,190.21a3.31,3.31,0,0,1-.22-1,3.41,3.41,0,0,1-2.55,1.11,3.16,3.16,0,0,1-2.17-.75,2.43,2.43,0,0,1-.84-1.89,2.54,2.54,0,0,1,1.06-2.18,5,5,0,0,1,3-.77h1.49v-.7a1.72,1.72,0,0,0-.48-1.28,1.93,1.93,0,0,0-1.42-.47,2.21,2.21,0,0,0-1.37.41,1.22,1.22,0,0,0-.55,1h-1.54a2.11,2.11,0,0,1,.47-1.29,3.23,3.23,0,0,1,1.29-1,4.41,4.41,0,0,1,1.79-.37,3.55,3.55,0,0,1,2.43.78,2.82,2.82,0,0,1,.91,2.13v4.11a5,5,0,0,0,.31,2v.14ZM353.45,189a2.65,2.65,0,0,0,1.36-.37,2.3,2.3,0,0,0,.94-1v-1.83h-1.2c-1.88,0-2.81.54-2.81,1.64a1.38,1.38,0,0,0,.48,1.12A1.83,1.83,0,0,0,353.45,189Z"/><path d="M361.12,181.26l.05,1.12a3.26,3.26,0,0,1,2.68-1.29q2.83,0,2.86,3.2v5.92h-1.53v-5.92a2.05,2.05,0,0,0-.44-1.43,1.77,1.77,0,0,0-1.35-.47,2.17,2.17,0,0,0-1.31.4,2.63,2.63,0,0,0-.88,1v6.38h-1.53v-9Z"/><path d="M368.64,185.66a5.24,5.24,0,0,1,1-3.31,3.3,3.3,0,0,1,5-.18v-4.66h1.53v12.7h-1.4l-.08-1a3.1,3.1,0,0,1-2.55,1.12,3.06,3.06,0,0,1-2.54-1.27,5.34,5.34,0,0,1-1-3.33Zm1.53.17a3.94,3.94,0,0,0,.63,2.38,2,2,0,0,0,1.74.86,2.21,2.21,0,0,0,2.12-1.3v-4.11a2.23,2.23,0,0,0-2.1-1.27,2.05,2.05,0,0,0-1.76.87A4.37,4.37,0,0,0,370.17,185.83Z"/><path d="M386.06,184.61l-1.48,1.53v4.07H383v-12h1.58v6l5.35-6h1.92l-4.74,5.31,5.11,6.73h-1.9Z"/><path d="M398.9,190.21a3.31,3.31,0,0,1-.22-1,3.41,3.41,0,0,1-2.55,1.11,3.16,3.16,0,0,1-2.17-.75,2.43,2.43,0,0,1-.84-1.89,2.54,2.54,0,0,1,1.06-2.18,5,5,0,0,1,3-.77h1.49v-.7a1.72,1.72,0,0,0-.48-1.28,1.92,1.92,0,0,0-1.42-.47,2.21,2.21,0,0,0-1.37.41,1.22,1.22,0,0,0-.55,1H393.3a2.11,2.11,0,0,1,.47-1.29,3.23,3.23,0,0,1,1.29-1,4.41,4.41,0,0,1,1.79-.37,3.55,3.55,0,0,1,2.43.78,2.82,2.82,0,0,1,.91,2.13v4.11a5,5,0,0,0,.31,2v.14ZM396.36,189a2.65,2.65,0,0,0,1.36-.37,2.3,2.3,0,0,0,.94-1v-1.83h-1.2c-1.88,0-2.81.54-2.81,1.64a1.38,1.38,0,0,0,.48,1.12A1.83,1.83,0,0,0,396.36,189Z"/><path d="M404.25,190.21h-1.53v-12.7h1.53Z"/><path d="M406.7,178.89a.92.92,0,0,1,.23-.63,1,1,0,0,1,1.35,0,1,1,0,0,1,0,1.25.89.89,0,0,1-.68.24.89.89,0,0,1-.67-.24A.91.91,0,0,1,406.7,178.89Zm1.65,11.32h-1.52v-9h1.52Z"/><path d="M412.24,181.26l0,1a3.31,3.31,0,0,1,2.65-1.16,2.56,2.56,0,0,1,2.56,1.44,3.34,3.34,0,0,1,2.85-1.44c2,0,3,1,3,3.12v6h-1.53V184.3a2,2,0,0,0-.44-1.43,1.91,1.91,0,0,0-1.47-.48,2,2,0,0,0-1.42.51,2.09,2.09,0,0,0-.65,1.37v5.94h-1.54v-5.87a1.71,1.71,0,0,0-1.91-2,2.06,2.06,0,0,0-2.06,1.28v6.54h-1.53v-9Z"/><path d="M431.17,190.21a3.31,3.31,0,0,1-.22-1,3.41,3.41,0,0,1-2.55,1.11,3.16,3.16,0,0,1-2.17-.75,2.43,2.43,0,0,1-.84-1.89,2.54,2.54,0,0,1,1.06-2.18,5,5,0,0,1,3-.77h1.49v-.7a1.72,1.72,0,0,0-.48-1.28,1.92,1.92,0,0,0-1.42-.47,2.21,2.21,0,0,0-1.37.41,1.22,1.22,0,0,0-.55,1h-1.54a2.11,2.11,0,0,1,.47-1.29,3.23,3.23,0,0,1,1.29-1,4.41,4.41,0,0,1,1.79-.37,3.55,3.55,0,0,1,2.43.78,2.82,2.82,0,0,1,.91,2.13v4.11a5,5,0,0,0,.31,2v.14ZM428.63,189a2.65,2.65,0,0,0,1.36-.37,2.3,2.3,0,0,0,.94-1v-1.83h-1.2c-1.88,0-2.81.54-2.81,1.64a1.38,1.38,0,0,0,.48,1.12A1.84,1.84,0,0,0,428.63,189Z"/><path d="M436.3,181.26l.05,1.12a3.26,3.26,0,0,1,2.68-1.29q2.84,0,2.86,3.2v5.92h-1.53v-5.92a2.05,2.05,0,0,0-.44-1.43,1.77,1.77,0,0,0-1.35-.47,2.17,2.17,0,0,0-1.31.4,2.63,2.63,0,0,0-.88,1v6.38h-1.53v-9Z"/><path d="M446.27,179.09v2.17h1.67v1.18h-1.67V188a1.27,1.27,0,0,0,.22.8,1,1,0,0,0,.77.27,3.44,3.44,0,0,0,.72-.1v1.24a4.39,4.39,0,0,1-1.17.16,1.93,1.93,0,0,1-1.55-.62,2.7,2.7,0,0,1-.52-1.76v-5.55h-1.63v-1.18h1.63v-2.17Z"/><path d="M455.25,190.21a3.06,3.06,0,0,1-.21-1,3.44,3.44,0,0,1-2.55,1.11,3.15,3.15,0,0,1-2.17-.75,2.4,2.4,0,0,1-.85-1.89,2.54,2.54,0,0,1,1.06-2.18,5.06,5.06,0,0,1,3-.77H455v-.7a1.72,1.72,0,0,0-.48-1.28,1.91,1.91,0,0,0-1.41-.47,2.22,2.22,0,0,0-1.38.41,1.24,1.24,0,0,0-.55,1h-1.54a2.07,2.07,0,0,1,.48-1.29,3.17,3.17,0,0,1,1.29-1,4.37,4.37,0,0,1,1.79-.37,3.5,3.5,0,0,1,2.42.78,2.78,2.78,0,0,1,.91,2.13v4.11a5,5,0,0,0,.31,2v.14ZM452.71,189a2.69,2.69,0,0,0,1.37-.37,2.22,2.22,0,0,0,.93-1v-1.83h-1.2c-1.87,0-2.81.54-2.81,1.64a1.38,1.38,0,0,0,.48,1.12A1.84,1.84,0,0,0,452.71,189Z"/><path d="M460.39,181.26l0,1.12a3.27,3.27,0,0,1,2.68-1.29c1.89,0,2.85,1.07,2.86,3.2v5.92h-1.53v-5.92a2,2,0,0,0-.44-1.43,1.77,1.77,0,0,0-1.35-.47,2.19,2.19,0,0,0-1.31.4,2.69,2.69,0,0,0-.87,1v6.38h-1.53v-9Z"/><path d="M468.31,189.4a1,1,0,0,1,.24-.66.92.92,0,0,1,.71-.26.94.94,0,0,1,.71.26,1,1,0,0,1,.25.66.9.9,0,0,1-.25.64.94.94,0,0,1-.71.26.92.92,0,0,1-.71-.26A.89.89,0,0,1,468.31,189.4Z"/><path class="cls-1" d="M274.61,84.92v2.75h-11V85.49l5.63-5.32a6,6,0,0,0,1.21-1.47,2.63,2.63,0,0,0,.31-1.22,1.62,1.62,0,0,0-.59-1.34,2.8,2.8,0,0,0-1.74-.47,4,4,0,0,0-1.73.36,3.26,3.26,0,0,0-1.29,1.1l-2.46-1.58a5.77,5.77,0,0,1,2.35-2,8,8,0,0,1,3.44-.71,7,7,0,0,1,2.85.53,4.31,4.31,0,0,1,1.89,1.5,3.87,3.87,0,0,1,.68,2.28,5.13,5.13,0,0,1-.5,2.23,8.59,8.59,0,0,1-1.94,2.38l-3.35,3.16Z"/><path class="cls-1" d="M281.63,73.09V87.67h-3.37V75.8h-2.92V73.09Z"/><path class="cls-1" d="M291,73.09h6.63a9.32,9.32,0,0,1,4.19.9,6.85,6.85,0,0,1,2.84,2.56,7.77,7.77,0,0,1,0,7.66,6.85,6.85,0,0,1-2.84,2.56,9.32,9.32,0,0,1-4.19.9H291Zm6.46,11.81a4.87,4.87,0,0,0,3.49-1.22,4.84,4.84,0,0,0,0-6.6,4.87,4.87,0,0,0-3.49-1.22h-3.09v9Z"/><path class="cls-1" d="M319.5,85v2.7H308.2V73.09h11V75.8h-7.67V79h6.77v2.63h-6.77V85Z"/><path class="cls-1" d="M335.46,87.67l0-8.75-4.29,7.21h-1.52l-4.28-7v8.56h-3.17V73.09H325l5.46,9.06,5.37-9.06h2.78l0,14.58Z"/><path class="cls-1" d="M345.06,86.94a7.27,7.27,0,0,1-2.86-2.69,7.79,7.79,0,0,1,0-7.74,7.27,7.27,0,0,1,2.86-2.69,9,9,0,0,1,8.18,0,7.43,7.43,0,0,1,0,13.12,9,9,0,0,1-8.18,0Zm6.43-2.49a4.17,4.17,0,0,0,1.63-1.65,5.18,5.18,0,0,0,0-4.84,4.17,4.17,0,0,0-1.63-1.65,4.63,4.63,0,0,0-2.34-.6,4.57,4.57,0,0,0-2.33.6A4.2,4.2,0,0,0,345.18,78a5.26,5.26,0,0,0,0,4.84,4.2,4.2,0,0,0,1.64,1.65,4.57,4.57,0,0,0,2.33.6A4.63,4.63,0,0,0,351.49,84.45Z"/><path class="cls-1" d="M373.06,73.09V87.67h-2.77L363,78.82v8.85h-3.33V73.09h2.79l7.25,8.85V73.09Z"/><path class="cls-1" d="M378,87.46a8,8,0,0,1-2.59-1.22l1.15-2.55a7.63,7.63,0,0,0,2.23,1.11,8.29,8.29,0,0,0,2.58.42,4.19,4.19,0,0,0,2.13-.43,1.31,1.31,0,0,0,.68-1.14,1.07,1.07,0,0,0-.4-.86,2.93,2.93,0,0,0-1-.55c-.43-.14-1-.3-1.72-.46a22.6,22.6,0,0,1-2.73-.8,4.37,4.37,0,0,1-1.83-1.27,3.46,3.46,0,0,1-.76-2.33,4,4,0,0,1,.69-2.3,4.62,4.62,0,0,1,2.07-1.64,8.57,8.57,0,0,1,3.39-.6,11.33,11.33,0,0,1,2.73.33,7.81,7.81,0,0,1,2.33,1l-1,2.56a8.16,8.16,0,0,0-4-1.14,3.88,3.88,0,0,0-2.1.45,1.4,1.4,0,0,0-.67,1.21,1.19,1.19,0,0,0,.78,1.12,12.65,12.65,0,0,0,2.38.72,21.09,21.09,0,0,1,2.73.79,4.51,4.51,0,0,1,1.83,1.25,3.33,3.33,0,0,1,.76,2.31,3.91,3.91,0,0,1-.7,2.28,4.62,4.62,0,0,1-2.09,1.64,8.62,8.62,0,0,1-3.4.6A12.1,12.1,0,0,1,378,87.46Z"/><path class="cls-1" d="M392.63,75.84H388V73.09h12.71v2.75H396V87.67h-3.37Z"/><path class="cls-1" d="M411.78,87.67,409,83.61h-3.1v4.06h-3.38V73.09h6.32a8.09,8.09,0,0,1,3.36.64,5,5,0,0,1,2.2,1.84,5,5,0,0,1,.77,2.81,4.77,4.77,0,0,1-3,4.61l3.27,4.68Zm-.86-11.18a3.59,3.59,0,0,0-2.31-.65h-2.75v5.08h2.75a3.53,3.53,0,0,0,2.31-.66,2.62,2.62,0,0,0,0-3.77Z"/><path class="cls-1" d="M427.41,84.55h-6.78l-1.29,3.12h-3.46l6.5-14.58h3.34l6.52,14.58H428.7ZM426.34,82,424,76.4,421.72,82Z"/><path class="cls-1" d="M436.06,75.84h-4.67V73.09H444.1v2.75h-4.67V87.67h-3.37Z"/><path class="cls-1" d="M445.91,73.09h3.38V87.67h-3.38Z"/><path class="cls-1" d="M455.72,86.94a7.27,7.27,0,0,1-2.86-2.69,7.79,7.79,0,0,1,0-7.74,7.27,7.27,0,0,1,2.86-2.69,9,9,0,0,1,8.18,0,7.43,7.43,0,0,1,0,13.12,9,9,0,0,1-8.18,0Zm6.43-2.49a4.17,4.17,0,0,0,1.63-1.65,5.18,5.18,0,0,0,0-4.84,4.17,4.17,0,0,0-1.63-1.65,4.84,4.84,0,0,0-4.67,0A4.2,4.2,0,0,0,455.84,78a5.26,5.26,0,0,0,0,4.84,4.2,4.2,0,0,0,1.64,1.65,4.84,4.84,0,0,0,4.67,0Z"/><path class="cls-1" d="M483.72,73.09V87.67H481l-7.28-8.85v8.85h-3.33V73.09h2.79l7.25,8.85V73.09Z"/><path class="cls-1" d="M502.75,73.73a4.89,4.89,0,0,1,2.2,1.84,5.49,5.49,0,0,1,0,5.61,4.89,4.89,0,0,1-2.2,1.84,8.26,8.26,0,0,1-3.36.63h-2.94v4h-3.38V73.09h6.32A8.09,8.09,0,0,1,502.75,73.73Zm-1.24,6.51a2.26,2.26,0,0,0,.8-1.86,2.32,2.32,0,0,0-.8-1.89,3.55,3.55,0,0,0-2.31-.65h-2.75V80.9h2.75A3.5,3.5,0,0,0,501.51,80.24Z"/><path class="cls-1" d="M508.12,73.09h3.38V84.92h7.31v2.75H508.12Z"/><path class="cls-1" d="M523.43,86.94a7.27,7.27,0,0,1-2.86-2.69,7.79,7.79,0,0,1,0-7.74,7.27,7.27,0,0,1,2.86-2.69,9,9,0,0,1,8.18,0,7.43,7.43,0,0,1,0,13.12,9,9,0,0,1-8.18,0Zm6.43-2.49a4.17,4.17,0,0,0,1.63-1.65,5.18,5.18,0,0,0,0-4.84,4.17,4.17,0,0,0-1.63-1.65,4.84,4.84,0,0,0-4.67,0A4.2,4.2,0,0,0,523.55,78a5.26,5.26,0,0,0,0,4.84,4.2,4.2,0,0,0,1.64,1.65,4.84,4.84,0,0,0,4.67,0Z"/><path class="cls-1" d="M540.86,75.84h-4.67V73.09h12.72v2.75h-4.67V87.67h-3.38Z"/><path class="cls-1" d="M552.06,87.46a8,8,0,0,1-2.59-1.22l1.14-2.55a7.88,7.88,0,0,0,2.23,1.11,8.4,8.4,0,0,0,2.59.42,4.13,4.13,0,0,0,2.12-.43,1.3,1.3,0,0,0,.69-1.14,1.07,1.07,0,0,0-.4-.86,3,3,0,0,0-1.05-.55,17.11,17.11,0,0,0-1.72-.46,23.76,23.76,0,0,1-2.73-.8,4.4,4.4,0,0,1-1.82-1.27,3.41,3.41,0,0,1-.76-2.33,4,4,0,0,1,.69-2.3,4.62,4.62,0,0,1,2.07-1.64,8.5,8.5,0,0,1,3.39-.6,11.33,11.33,0,0,1,2.73.33,7.81,7.81,0,0,1,2.33,1l-1,2.56a8.19,8.19,0,0,0-4-1.14,3.85,3.85,0,0,0-2.1.45,1.41,1.41,0,0,0-.68,1.21,1.2,1.2,0,0,0,.79,1.12,12.65,12.65,0,0,0,2.38.72,22.09,22.09,0,0,1,2.73.79,4.51,4.51,0,0,1,1.83,1.25,3.38,3.38,0,0,1,.76,2.31,4,4,0,0,1-.7,2.28,4.71,4.71,0,0,1-2.1,1.64,8.57,8.57,0,0,1-3.39.6A12,12,0,0,1,552.06,87.46Z"/><path class="cls-1" d="M346.11,110.93a21.46,21.46,0,0,1,0-10.72A14.65,14.65,0,0,1,348,95.82h3.1a19.12,19.12,0,0,0-1.91,4.7,21.25,21.25,0,0,0,0,10.11,19,19,0,0,0,1.91,4.7H348A14.94,14.94,0,0,1,346.11,110.93Z"/><path class="cls-1" d="M353.29,98.09h6.63a9.4,9.4,0,0,1,4.2.91,6.87,6.87,0,0,1,2.83,2.55,7.79,7.79,0,0,1,0,7.67,6.82,6.82,0,0,1-2.83,2.56,9.4,9.4,0,0,1-4.2.9h-6.63Zm6.46,11.82a4.91,4.91,0,0,0,3.49-1.22,4.84,4.84,0,0,0,0-6.6,4.87,4.87,0,0,0-3.49-1.22h-3.08v9Z"/><path class="cls-1" d="M381.8,110v2.71H370.5V98.09h11v2.71h-7.67V104h6.77v2.63h-6.77V110Z"/><path class="cls-1" d="M397.76,112.68l0-8.75-4.29,7.21h-1.52l-4.28-7v8.56h-3.16V98.09h2.79l5.46,9.07,5.38-9.07h2.77l0,14.59Z"/><path class="cls-1" d="M414.07,98.74a5,5,0,0,1,2.2,1.83,5.51,5.51,0,0,1,0,5.62,4.92,4.92,0,0,1-2.2,1.83,8.11,8.11,0,0,1-3.37.64h-2.93v4h-3.38V98.09h6.31A8.1,8.1,0,0,1,414.07,98.74Zm-1.24,6.51a2.27,2.27,0,0,0,.79-1.86,2.31,2.31,0,0,0-.79-1.89,3.53,3.53,0,0,0-2.31-.65h-2.75v5.06h2.75A3.53,3.53,0,0,0,412.83,105.25Z"/><path class="cls-1" d="M419.44,98.09h3.37v11.84h7.32v2.75H419.44Z"/><path class="cls-1" d="M434.74,112a7.27,7.27,0,0,1-3.88-6.56,7.27,7.27,0,0,1,3.88-6.57,8.57,8.57,0,0,1,4.1-1,8.46,8.46,0,0,1,4.08,1,7.51,7.51,0,0,1,2.86,2.7A7.44,7.44,0,0,1,442.92,112a8.35,8.35,0,0,1-4.08,1A8.45,8.45,0,0,1,434.74,112Zm6.43-2.49a4.26,4.26,0,0,0,1.64-1.65,5.26,5.26,0,0,0,0-4.84,4.29,4.29,0,0,0-1.64-1.66,4.9,4.9,0,0,0-4.66,0,4.29,4.29,0,0,0-1.64,1.66,5.18,5.18,0,0,0,0,4.84,4.26,4.26,0,0,0,1.64,1.65,4.82,4.82,0,0,0,4.66,0Z"/><path class="cls-1" d="M452.18,100.85h-4.67V98.09h12.71v2.76h-4.67v11.83h-3.37Z"/><path class="cls-1" d="M463.38,112.46a7.86,7.86,0,0,1-2.6-1.22l1.15-2.54a7.75,7.75,0,0,0,2.23,1.11,8.58,8.58,0,0,0,2.58.41,4.21,4.21,0,0,0,2.13-.42,1.3,1.3,0,0,0,.69-1.14,1.07,1.07,0,0,0-.41-.86,3.11,3.11,0,0,0-1-.56c-.43-.14-1-.29-1.72-.46a22.09,22.09,0,0,1-2.73-.79,4.27,4.27,0,0,1-1.82-1.27,3.41,3.41,0,0,1-.77-2.33,4.07,4.07,0,0,1,.69-2.31,4.64,4.64,0,0,1,2.08-1.63,8.47,8.47,0,0,1,3.38-.61,11.34,11.34,0,0,1,2.73.34,8,8,0,0,1,2.34,1l-1.05,2.56a8.14,8.14,0,0,0-4-1.15,3.83,3.83,0,0,0-2.09.46,1.41,1.41,0,0,0-.68,1.21,1.19,1.19,0,0,0,.78,1.12,12.19,12.19,0,0,0,2.39.71,23.76,23.76,0,0,1,2.73.8,4.48,4.48,0,0,1,1.82,1.25,3.33,3.33,0,0,1,.76,2.31,4,4,0,0,1-.7,2.28,4.62,4.62,0,0,1-2.09,1.64,8.58,8.58,0,0,1-3.4.6A11.62,11.62,0,0,1,463.38,112.46Z"/><path class="cls-1" d="M473.91,115.33a19,19,0,0,0,1.93-4.7,21.25,21.25,0,0,0,0-10.11,19.2,19.2,0,0,0-1.93-4.7H477a14.58,14.58,0,0,1,2,4.37,22.06,22.06,0,0,1,0,10.75,14.53,14.53,0,0,1-2,4.39Z"/><path class="cls-1" d="M306.37,45.69V60.27H303V48.4h-2.92V45.69Z"/><path class="cls-1" d="M311.94,59.63a5.94,5.94,0,0,1-2.22-2.6,10.53,10.53,0,0,1,0-8.1,5.94,5.94,0,0,1,2.22-2.6,6.31,6.31,0,0,1,6.46,0,6.07,6.07,0,0,1,2.22,2.6,10.65,10.65,0,0,1,0,8.1,6.07,6.07,0,0,1-2.22,2.6,6.31,6.31,0,0,1-6.46,0Zm5.32-3.11A6.46,6.46,0,0,0,318,53a6.46,6.46,0,0,0-.76-3.54,2.47,2.47,0,0,0-4.17,0,6.55,6.55,0,0,0-.76,3.54,6.55,6.55,0,0,0,.76,3.54,2.47,2.47,0,0,0,4.17,0Z"/><path class="cls-1" d="M326.09,59.63a5.94,5.94,0,0,1-2.22-2.6,10.53,10.53,0,0,1,0-8.1,5.94,5.94,0,0,1,2.22-2.6,6.31,6.31,0,0,1,6.46,0,6.07,6.07,0,0,1,2.22,2.6,10.65,10.65,0,0,1,0,8.1,6.07,6.07,0,0,1-2.22,2.6,6.31,6.31,0,0,1-6.46,0Zm5.32-3.11a6.46,6.46,0,0,0,.76-3.54,6.46,6.46,0,0,0-.76-3.54,2.47,2.47,0,0,0-4.17,0,6.55,6.55,0,0,0-.76,3.54,6.55,6.55,0,0,0,.76,3.54,2.47,2.47,0,0,0,4.17,0Z"/><path class="cls-1" d="M357.41,45.69V60.27H354v-6H347.4v6H344V45.69h3.37v5.75H354V45.69Z"/><path class="cls-1" d="M363.84,59.54A7.27,7.27,0,0,1,361,56.85a7.79,7.79,0,0,1,0-7.74,7.27,7.27,0,0,1,2.86-2.69,9,9,0,0,1,8.18,0,7.43,7.43,0,0,1,0,13.12,9,9,0,0,1-8.18,0Zm6.43-2.49a4.17,4.17,0,0,0,1.63-1.65,5.18,5.18,0,0,0,0-4.84,4.17,4.17,0,0,0-1.63-1.65,4.63,4.63,0,0,0-2.34-.6,4.57,4.57,0,0,0-2.33.6A4.2,4.2,0,0,0,364,50.56a5.26,5.26,0,0,0,0,4.84,4.2,4.2,0,0,0,1.64,1.65,4.57,4.57,0,0,0,2.33.6A4.63,4.63,0,0,0,370.27,57.05Z"/><path class="cls-1" d="M391.73,60.27l0-8.75-4.29,7.21H385.9l-4.28-7v8.56h-3.16V45.69h2.79l5.46,9.06,5.38-9.06h2.77l0,14.58Z"/><path class="cls-1" d="M409.65,57.56v2.71H398.36V45.69h11V48.4h-7.67v3.16h6.78v2.63h-6.78v3.37Z"/><path class="cls-1" d="M428.1,52.75h3.08v5.92A8.55,8.55,0,0,1,428.43,60a10.66,10.66,0,0,1-3.15.48,8.48,8.48,0,0,1-4.08-1,7.12,7.12,0,0,1-2.84-2.68,7.8,7.8,0,0,1,0-7.78,7.2,7.2,0,0,1,2.86-2.69,8.76,8.76,0,0,1,4.13-1,9,9,0,0,1,3.48.64A6.83,6.83,0,0,1,431.45,48l-2.16,2a5,5,0,0,0-3.78-1.65,5.16,5.16,0,0,0-2.48.59,4.08,4.08,0,0,0-1.68,1.64,5.15,5.15,0,0,0,0,4.86A4.21,4.21,0,0,0,423,57.05a5,5,0,0,0,2.45.6A5.47,5.47,0,0,0,428.1,57Z"/><path class="cls-1" d="M443.92,57.15h-6.78l-1.29,3.12h-3.46l6.5-14.58h3.34l6.52,14.58h-3.54Zm-1.07-2.57L440.54,49l-2.31,5.58Z"/><path class="cls-1" d="M459.57,60.27l-2.82-4.06h-3.1v4.06h-3.38V45.69h6.32a8.09,8.09,0,0,1,3.36.64,5,5,0,0,1,2.2,1.84,5.08,5.08,0,0,1,.77,2.81,5,5,0,0,1-.78,2.8,4.86,4.86,0,0,1-2.22,1.8l3.27,4.69Zm-.86-11.18a3.59,3.59,0,0,0-2.31-.65h-2.75v5.08h2.75a3.48,3.48,0,0,0,2.31-.67A2.29,2.29,0,0,0,459.5,51,2.31,2.31,0,0,0,458.71,49.09Z"/><path class="cls-1" d="M465.59,45.69h6.63a9.4,9.4,0,0,1,4.2.9,6.82,6.82,0,0,1,2.83,2.56,7.77,7.77,0,0,1,0,7.66,6.82,6.82,0,0,1-2.83,2.56,9.4,9.4,0,0,1-4.2.9h-6.63Zm6.46,11.81a4.87,4.87,0,0,0,3.49-1.22,4.84,4.84,0,0,0,0-6.6,4.87,4.87,0,0,0-3.49-1.22H469v9Z"/><path class="cls-1" d="M494.1,57.56v2.71H482.8V45.69h11V48.4h-7.67v3.16h6.77v2.63h-6.77v3.37Z"/><path class="cls-1" d="M510.17,45.69V60.27h-2.78l-7.27-8.85v8.85h-3.33V45.69h2.79l7.25,8.85V45.69Z"/><path class="cls-1" d="M515.07,60.06a8,8,0,0,1-2.59-1.22l1.15-2.55a7.63,7.63,0,0,0,2.23,1.11,8.28,8.28,0,0,0,2.58.41,4.21,4.21,0,0,0,2.13-.42,1.31,1.31,0,0,0,.68-1.14,1.07,1.07,0,0,0-.4-.86,3.11,3.11,0,0,0-1-.56c-.43-.13-1-.29-1.72-.45a22.6,22.6,0,0,1-2.73-.8,4.37,4.37,0,0,1-1.83-1.27,3.41,3.41,0,0,1-.76-2.33,4,4,0,0,1,.69-2.3A4.62,4.62,0,0,1,515.53,46a8.57,8.57,0,0,1,3.39-.6,11.33,11.33,0,0,1,2.73.33,7.81,7.81,0,0,1,2.33,1l-1,2.56a8.17,8.17,0,0,0-4-1.15,3.87,3.87,0,0,0-2.1.46,1.4,1.4,0,0,0-.67,1.21,1.19,1.19,0,0,0,.78,1.12,12.65,12.65,0,0,0,2.38.72,21.09,21.09,0,0,1,2.73.79,4.51,4.51,0,0,1,1.83,1.25,3.38,3.38,0,0,1,.76,2.31,3.91,3.91,0,0,1-.7,2.28,4.68,4.68,0,0,1-2.09,1.64,8.62,8.62,0,0,1-3.4.6A12.1,12.1,0,0,1,515.07,60.06Z"/><rect class="cls-1" x="41.12" y="44.23" width="161.55" height="161.55" transform="translate(124.09 -49.58) rotate(45)"/><g class="cls-2"><path class="cls-3" d="M121.9,227.61,19.28,125,121.9,22.39,224.51,125ZM22.45,125l99.45,99.44L221.34,125,121.9,25.56Zm99.45,89.58L87.65,180.33l26.19-26.19L88.45,128.75l-18,18,11.9,11.9,4.94-4.93-7-7,8.16-8.16L104,154.14,82.72,175.4,52.78,145.46,73.24,125,52.78,104.54,82.72,74.6,104,95.86,88.45,111.39l-8.16-8.16,7-7-4.94-4.93-11.9,11.9,18,18,25.39-25.39L87.65,69.67,121.9,35.42l34.24,34.25L130,95.86l25.4,25.39,18-18-11.9-11.9-4.93,4.93,7,7-8.15,8.16L139.82,95.86,161.08,74.6,191,104.54,170.56,125,191,145.46,161.08,175.4l-21.26-21.26,15.53-15.53,8.15,8.16-7,7,4.93,4.93,11.9-11.9-18-18L130,154.14l26.2,26.19ZM90.82,180.33l31.08,31.08L153,180.33l-26.19-26.19,28.57-28.56,21.18,21.19-15.07,15.07-8.1-8.1,7-7-5-5L143,154.14l18.09,18.09,26.77-26.77L167.39,125l20.46-20.46L161.08,77.77,143,95.86l12.36,12.36,5-5-7-7,8.1-8.1,15.07,15.07-21.18,21.19L126.78,95.86,153,69.67,121.9,38.59,90.82,69.67,117,95.86,88.45,124.42,67.26,103.23,82.33,88.16l8.11,8.1-7,7,5,5,12.36-12.36L82.72,77.77,56,104.54,76.41,125,56,145.46l26.77,26.77,18.09-18.09L88.45,141.78l-5,5,7,7-8.11,8.1L67.26,146.77l21.19-21.19L117,154.14ZM196,140.53,180.42,125,196,109.47,211.48,125ZM183.59,125,196,137.36,208.31,125,196,112.64ZM47.85,140.53,32.32,125l15.53-15.53L63.37,125ZM35.49,125l12.36,12.36L60.2,125,47.85,112.64Z"/><path class="cls-3" d="M121.9,204l-24-24,24-24,24,24ZM101,180l20.86,20.86L142.75,180,121.9,159.12Z"/><path class="cls-3" d="M121.9,93.39l-24-24,24-24,24,24ZM101,69.36,121.9,90.22l20.85-20.86L121.9,48.51Z"/></g><polygon class="cls-4" points="8.24 125 122.01 238.77 523.57 238.77 637.34 125 523.57 11.23 122.01 11.23 8.24 125"/><path class="cls-3" d="M176.47,130.34a2.76,2.76,0,0,1-1.86,2.6c-1.16.4-2.6.92-3.47,1.25-.46.17-.91.31-1.34.48q-23.45,9.35-46.9,18.68a3.15,3.15,0,0,1-1.94.1c-17.57-5.87-32.06-10.75-49.62-16.66l-1.59-.54a3.55,3.55,0,0,1-2.43-3.37h0a3.57,3.57,0,0,1,2.56-3.42L108.18,118a2.63,2.63,0,0,1,3.27,1.79l0,.06a2.71,2.71,0,0,1-1.83,3.36l-33,9.78,8.47,2.86q17.79,6,35.6,12a3.06,3.06,0,0,0,2.32-.07q20.47-8.25,41-16.43c.36-.15.7-.32,1.31-.6l-40.82-10.21v9.54a2.63,2.63,0,0,1-2.63,2.63h0a2.63,2.63,0,0,1-2.63-2.63v-18c-1.91,0-3.69,0-5.46,0-9-.23-15.79-4.15-20.29-11.94-2.48-4.29-3.11-9-2.78-13.89,0,0,.11-.14.16-.14,4.87.09,9.83-.36,14.58.41,9.06,1.48,15,7,18,15.75.07.23.15.46.29.86l.81-.92a22.61,22.61,0,0,1,17.57-8.33c3.61-.07,7.21,0,10.94,0,.54,11.64-4.26,19.92-15.09,24.75l36.43,9.1a2.76,2.76,0,0,1,2.08,2.67Zm-80.38-39a2.9,2.9,0,0,0,0,.59,17.83,17.83,0,0,0,5,9.69c5.05,5.14,11.39,5.65,18.07,5.07a4.47,4.47,0,0,0,0-.82,17.61,17.61,0,0,0-3.95-8.37C110.1,91.5,103.36,90.68,96.09,91.33Zm51.59,7.82c-11.13-2.21-23,5.73-22.92,15.34C136.56,116.22,148.25,108.4,147.68,99.15Z"/></svg>