<svg id="Layer_1" data-name="Layer 1" xmlns="http://www.w3.org/2000/svg" viewBox="0 0 645 250"><defs><style>.cls-1{fill:none;stroke:#2d9747;stroke-miterlimit:10;stroke-width:2.6px;}.cls-2{fill:#2d9747;}.cls-3{opacity:0.15;}.cls-4{fill:#fff;}</style></defs><polygon class="cls-1" points="8.24 125 122.01 238.77 523.57 238.77 637.34 125 523.57 11.23 122.01 11.23 8.24 125"/><path class="cls-2" d="M326,99.69v12.76h-2.95v-5.23h-5.8v5.23h-3V99.69h3v5h5.8v-5Z"/><path class="cls-2" d="M338.94,110.08v2.37h-9.88V99.69h9.64v2.37H332v2.77h5.93v2.3H332v3Z"/><path class="cls-2" d="M343.84,111.82a6.24,6.24,0,0,1-2.48-2.35,6.81,6.81,0,0,1,0-6.8,6.26,6.26,0,0,1,2.48-2.36,8,8,0,0,1,6.54-.26,5.9,5.9,0,0,1,2.25,1.68l-1.89,1.75a4.08,4.08,0,0,0-3.21-1.5,4.35,4.35,0,0,0-2.12.52A3.74,3.74,0,0,0,344,104a4.56,4.56,0,0,0,0,4.23,3.68,3.68,0,0,0,1.45,1.45,4.24,4.24,0,0,0,2.12.52,4.06,4.06,0,0,0,3.21-1.51l1.89,1.75a5.88,5.88,0,0,1-2.26,1.7,7.66,7.66,0,0,1-3,.58A7.24,7.24,0,0,1,343.84,111.82Z"/><path class="cls-2" d="M357.14,102.09h-4.09v-2.4h11.13v2.4h-4.09v10.36h-2.95Z"/><path class="cls-2" d="M373.53,109.71h-5.92l-1.13,2.74h-3l5.69-12.76h2.92l5.7,12.76h-3.1Zm-.93-2.24-2-4.89-2,4.89Z"/><path class="cls-2" d="M387.23,112.45l-2.47-3.56h-2.71v3.56h-3V99.69h5.53a7,7,0,0,1,2.94.56,4.34,4.34,0,0,1,1.93,1.61,4.38,4.38,0,0,1-1.95,6.49l2.86,4.1Zm-.75-9.78a3.06,3.06,0,0,0-2-.58h-2.41v4.45h2.41a3.06,3.06,0,0,0,2-.58,2.31,2.31,0,0,0,0-3.29Z"/><path class="cls-2" d="M402.38,110.08v2.37H392.5V99.69h9.64v2.37h-6.71v2.77h5.93v2.3h-5.93v3Z"/><path class="cls-2" d="M406,112.26a7,7,0,0,1-2.27-1.07l1-2.22a6.82,6.82,0,0,0,1.95,1,7.18,7.18,0,0,0,2.26.37,3.59,3.59,0,0,0,1.86-.38,1.11,1.11,0,0,0,.61-1,1,1,0,0,0-.36-.76,2.7,2.7,0,0,0-.91-.48c-.37-.12-.87-.25-1.51-.4a20.8,20.8,0,0,1-2.38-.69,3.88,3.88,0,0,1-1.6-1.12,3,3,0,0,1-.67-2,3.48,3.48,0,0,1,.61-2A4,4,0,0,1,406.4,100a7.29,7.29,0,0,1,3-.53,9.54,9.54,0,0,1,2.39.29,6.72,6.72,0,0,1,2,.84l-.91,2.24a7.11,7.11,0,0,0-3.54-1,3.31,3.31,0,0,0-1.83.4,1.24,1.24,0,0,0-.59,1.06,1,1,0,0,0,.68,1,11.46,11.46,0,0,0,2.09.63,21,21,0,0,1,2.39.69,4,4,0,0,1,1.6,1.1,2.94,2.94,0,0,1,.66,2,3.47,3.47,0,0,1-.61,2,4.13,4.13,0,0,1-1.83,1.43,7.55,7.55,0,0,1-3,.53A10.58,10.58,0,0,1,406,112.26Z"/><path class="cls-2" d="M424.13,111.81a6.37,6.37,0,0,1-3.41-5.74,6.43,6.43,0,0,1,.91-3.39,6.32,6.32,0,0,1,2.5-2.36,7.94,7.94,0,0,1,7.15,0,6.37,6.37,0,0,1,3.41,5.75,6.37,6.37,0,0,1-.91,3.38,6.45,6.45,0,0,1-2.5,2.36,7.86,7.86,0,0,1-7.15,0Zm5.62-2.18a3.63,3.63,0,0,0,1.43-1.45,4.56,4.56,0,0,0,0-4.23,3.69,3.69,0,0,0-1.43-1.45,4.13,4.13,0,0,0-2-.52,4.07,4.07,0,0,0-2,.52,3.78,3.78,0,0,0-1.44,1.45,4.64,4.64,0,0,0,0,4.23,3.72,3.72,0,0,0,1.44,1.45,4,4,0,0,0,2,.52A4,4,0,0,0,429.75,109.63Z"/><path class="cls-2" d="M439.87,102.06v3.37h5.91v2.37h-5.91v4.65h-2.95V99.69h9.64v2.37Z"/><path class="cls-2" d="M453.73,99.69h2.95V110h6.4v2.41h-9.35Z"/><path class="cls-2" d="M473.26,109.71h-5.93l-1.13,2.74h-3l5.68-12.76h2.92l5.71,12.76h-3.1Zm-.93-2.24-2-4.89-2,4.89Z"/><path class="cls-2" d="M490.53,99.69v12.76H488.1l-6.36-7.75v7.75h-2.92V99.69h2.44l6.35,7.75V99.69Z"/><path class="cls-2" d="M493.55,99.69h5.8a8.16,8.16,0,0,1,3.68.79,6,6,0,0,1,2.48,2.23,6.84,6.84,0,0,1,0,6.71,6,6,0,0,1-2.48,2.24,8.16,8.16,0,0,1-3.68.79h-5.8ZM499.21,110a4.29,4.29,0,0,0,3.05-1.06,4.23,4.23,0,0,0,0-5.78,4.3,4.3,0,0,0-3.05-1.07h-2.7V110Z"/><path class="cls-2" d="M354.31,62.05a10.55,10.55,0,0,1,4.3,3.79,10.17,10.17,0,0,1,1.59,5.67,10.77,10.77,0,0,1-1.74,6.09,11.34,11.34,0,0,1-4.72,4A15.46,15.46,0,0,1,347.08,83q-7.27,0-11.38-4.45t-4.11-12.73a21.35,21.35,0,0,1,2.22-10.09A15.22,15.22,0,0,1,340,49.38a18.94,18.94,0,0,1,9.23-2.18,22.6,22.6,0,0,1,5.32.62,14.41,14.41,0,0,1,4.33,1.76l-3,5.89a11.42,11.42,0,0,0-6.48-1.73,9.44,9.44,0,0,0-7,2.57q-2.58,2.58-2.77,7.48,3.06-3.07,8.56-3.07A13.55,13.55,0,0,1,354.31,62.05Zm-3.49,13.61a4.7,4.7,0,0,0,1.61-3.76,4.78,4.78,0,0,0-1.61-3.78,7.15,7.15,0,0,0-8.59,0,5,5,0,0,0-.05,7.45,6.54,6.54,0,0,0,4.45,1.43A6.18,6.18,0,0,0,350.82,75.66Z"/><path class="cls-2" d="M386.68,51.63q4.1,4.44,4.1,12.75a21.52,21.52,0,0,1-2.2,10.1,15,15,0,0,1-6.21,6.38A19.11,19.11,0,0,1,373.11,83a22.28,22.28,0,0,1-5.29-.62,14.14,14.14,0,0,1-4.31-1.76l3-5.89A11.2,11.2,0,0,0,373,76.51a9.37,9.37,0,0,0,7-2.6c1.72-1.73,2.64-4.23,2.78-7.5q-3.12,3.12-8.62,3.12a13.48,13.48,0,0,1-6-1.34,10.51,10.51,0,0,1-4.31-3.79,10.15,10.15,0,0,1-1.58-5.66,10.76,10.76,0,0,1,1.73-6.09,11.27,11.27,0,0,1,4.72-4,15.47,15.47,0,0,1,6.66-1.42Q382.56,47.2,386.68,51.63Zm-6.51,10.45a5.06,5.06,0,0,0,.05-7.45,6.42,6.42,0,0,0-4.43-1.44,6.23,6.23,0,0,0-4.19,1.39,4.71,4.71,0,0,0-1.6,3.76,4.78,4.78,0,0,0,1.6,3.79,7.12,7.12,0,0,0,8.57-.05Z"/><path class="cls-2" d="M402,74.55A4.62,4.62,0,0,1,403.36,78a8.39,8.39,0,0,1-.25,2,23.31,23.31,0,0,1-1.09,3l-2.82,7.13h-4.9l2.18-7.87a4.08,4.08,0,0,1-2-1.61,4.68,4.68,0,0,1-.72-2.6,4.56,4.56,0,0,1,1.37-3.44,4.75,4.75,0,0,1,3.43-1.31A4.69,4.69,0,0,1,402,74.55Z"/><path class="cls-2" d="M433.3,47.8V53L420.43,82.45h-8.71l12.42-28.12H412.66V60h-7.13V47.8Z"/><path class="cls-2" d="M459.68,65.3a9.32,9.32,0,0,1,2.43,6.55,10.31,10.31,0,0,1-1.59,5.57,11,11,0,0,1-4.82,4.09A18.52,18.52,0,0,1,447.76,83a27,27,0,0,1-7.21-1,18.4,18.4,0,0,1-6-2.74l3.12-6.14a14.93,14.93,0,0,0,4.58,2.3,17.44,17.44,0,0,0,5.32.82,8.49,8.49,0,0,0,4.75-1.16,3.76,3.76,0,0,0,1.73-3.3q0-4.25-6.48-4.25h-3.67V62.3L451,54.23H436.27V47.8h24.25V53l-7.82,8.91A11.58,11.58,0,0,1,459.68,65.3Z"/><path class="cls-2" d="M489.38,51.63q4.11,4.44,4.11,12.75a21.64,21.64,0,0,1-2.2,10.1,15,15,0,0,1-6.22,6.38A19.07,19.07,0,0,1,475.82,83a22.36,22.36,0,0,1-5.3-.62,14.08,14.08,0,0,1-4.3-1.76l3-5.89a11.16,11.16,0,0,0,6.48,1.74,9.39,9.39,0,0,0,7-2.6c1.71-1.73,2.64-4.23,2.77-7.5q-3.12,3.12-8.61,3.12a13.52,13.52,0,0,1-6-1.34,10.51,10.51,0,0,1-4.31-3.79,10.23,10.23,0,0,1-1.58-5.66,10.84,10.84,0,0,1,1.73-6.09,11.3,11.3,0,0,1,4.73-4A15.44,15.44,0,0,1,478,47.2Q485.28,47.2,489.38,51.63Zm-6.51,10.45a5.06,5.06,0,0,0,.05-7.45,6.4,6.4,0,0,0-4.43-1.44,6.18,6.18,0,0,0-4.18,1.39,4.71,4.71,0,0,0-1.61,3.76,4.79,4.79,0,0,0,1.61,3.79,7.1,7.1,0,0,0,8.56-.05Z"/><path d="M339.21,151.65a5.78,5.78,0,0,0-.75-.05,2,2,0,0,0-2,1.28v6.35h-1.53v-8.95h1.49l0,1a2.39,2.39,0,0,1,2.14-1.19,1.5,1.5,0,0,1,.67.11Z"/><path d="M344.17,159.39a3.93,3.93,0,0,1-3-1.19,4.44,4.44,0,0,1-1.14-3.2v-.28a5.37,5.37,0,0,1,.51-2.38,4,4,0,0,1,1.42-1.63,3.53,3.53,0,0,1,2-.59,3.35,3.35,0,0,1,2.72,1.15,5,5,0,0,1,1,3.29v.63H341.6a3.15,3.15,0,0,0,.78,2.14,2.43,2.43,0,0,0,1.88.81,2.67,2.67,0,0,0,1.37-.33,3.51,3.51,0,0,0,1-.87l.94.72A3.75,3.75,0,0,1,344.17,159.39Zm-.19-8a2,2,0,0,0-1.55.68,3.28,3.28,0,0,0-.78,1.89h4.48v-.12a2.93,2.93,0,0,0-.62-1.81A2,2,0,0,0,344,151.37Z"/><path d="M353,158.14a2.2,2.2,0,0,0,1.43-.49,1.77,1.77,0,0,0,.68-1.24h1.45a2.83,2.83,0,0,1-.53,1.46,3.57,3.57,0,0,1-1.31,1.11,3.79,3.79,0,0,1-1.72.41,3.67,3.67,0,0,1-2.91-1.22,4.83,4.83,0,0,1-1.07-3.33v-.26a5.52,5.52,0,0,1,.47-2.32,3.61,3.61,0,0,1,1.38-1.58,3.88,3.88,0,0,1,2.12-.56,3.59,3.59,0,0,1,2.5.9,3.23,3.23,0,0,1,1.07,2.34h-1.45a2.11,2.11,0,0,0-.66-1.43,2,2,0,0,0-1.46-.56,2.12,2.12,0,0,0-1.8.84,3.93,3.93,0,0,0-.65,2.43v.29a3.9,3.9,0,0,0,.64,2.38A2.15,2.15,0,0,0,353,158.14Z"/><path d="M362,159.39a3.93,3.93,0,0,1-3-1.19,4.44,4.44,0,0,1-1.14-3.2v-.28a5.37,5.37,0,0,1,.51-2.38,3.89,3.89,0,0,1,1.42-1.63,3.53,3.53,0,0,1,2-.59,3.35,3.35,0,0,1,2.71,1.15,5,5,0,0,1,1,3.29v.63h-6.06a3.19,3.19,0,0,0,.77,2.14,2.43,2.43,0,0,0,1.88.81,2.65,2.65,0,0,0,1.37-.33,3.41,3.41,0,0,0,1-.87l.93.72A3.74,3.74,0,0,1,362,159.39Zm-.19-8a2.05,2.05,0,0,0-1.56.68,3.27,3.27,0,0,0-.77,1.89H364v-.12a3,3,0,0,0-.63-1.81A2,2,0,0,0,361.82,151.37Z"/><path d="M367.27,147.91a.92.92,0,0,1,.23-.63,1,1,0,0,1,1.35,0,.88.88,0,0,1,.24.63.86.86,0,0,1-.24.62.91.91,0,0,1-1.58-.62Zm1.66,11.32H367.4v-8.95h1.53Z"/><path d="M374.33,157.15l2.21-6.87h1.57l-3.21,8.95h-1.17l-3.24-8.95h1.56Z"/><path d="M383.18,159.39a3.93,3.93,0,0,1-3-1.19,4.44,4.44,0,0,1-1.14-3.2v-.28a5.37,5.37,0,0,1,.51-2.38,4,4,0,0,1,1.42-1.63,3.53,3.53,0,0,1,2-.59,3.32,3.32,0,0,1,2.71,1.15,4.93,4.93,0,0,1,1,3.29v.63h-6.06a3.19,3.19,0,0,0,.77,2.14,2.44,2.44,0,0,0,1.88.81,2.71,2.71,0,0,0,1.38-.33,3.51,3.51,0,0,0,1-.87l.94.72A3.75,3.75,0,0,1,383.18,159.39Zm-.19-8a2,2,0,0,0-1.55.68,3.28,3.28,0,0,0-.78,1.89h4.48v-.12a2.87,2.87,0,0,0-.63-1.81A1.93,1.93,0,0,0,383,151.37Z"/><path d="M388.07,154.68a5.23,5.23,0,0,1,1-3.31,3.33,3.33,0,0,1,5-.18v-4.66h1.53v12.7h-1.41l-.07-1a3.12,3.12,0,0,1-2.56,1.12,3,3,0,0,1-2.53-1.27,5.32,5.32,0,0,1-1-3.32Zm1.53.17a3.94,3.94,0,0,0,.63,2.38,2,2,0,0,0,1.73.86,2.24,2.24,0,0,0,2.13-1.3v-4.11a2.26,2.26,0,0,0-2.11-1.27,2,2,0,0,0-1.75.87A4.37,4.37,0,0,0,389.6,154.85Z"/><path d="M405.77,158.14a2.2,2.2,0,0,0,1.43-.49,1.77,1.77,0,0,0,.68-1.24h1.45a2.83,2.83,0,0,1-.53,1.46,3.57,3.57,0,0,1-1.31,1.11,3.79,3.79,0,0,1-1.72.41,3.67,3.67,0,0,1-2.91-1.22,4.83,4.83,0,0,1-1.07-3.33v-.26a5.52,5.52,0,0,1,.47-2.32,3.61,3.61,0,0,1,1.38-1.58,3.88,3.88,0,0,1,2.12-.56,3.59,3.59,0,0,1,2.5.9,3.23,3.23,0,0,1,1.07,2.34h-1.45a2.11,2.11,0,0,0-.66-1.43,2,2,0,0,0-1.46-.56,2.12,2.12,0,0,0-1.8.84,3.93,3.93,0,0,0-.65,2.43v.29a3.9,3.9,0,0,0,.64,2.38A2.15,2.15,0,0,0,405.77,158.14Z"/><path d="M414.76,159.39a3.93,3.93,0,0,1-3-1.19,4.44,4.44,0,0,1-1.14-3.2v-.28a5.37,5.37,0,0,1,.51-2.38,3.89,3.89,0,0,1,1.42-1.63,3.53,3.53,0,0,1,2-.59,3.35,3.35,0,0,1,2.71,1.15,5,5,0,0,1,1,3.29v.63h-6.06a3.19,3.19,0,0,0,.77,2.14,2.43,2.43,0,0,0,1.88.81,2.65,2.65,0,0,0,1.37-.33,3.41,3.41,0,0,0,1-.87l.93.72A3.74,3.74,0,0,1,414.76,159.39Zm-.19-8a2.05,2.05,0,0,0-1.56.68,3.27,3.27,0,0,0-.77,1.89h4.48v-.12a3,3,0,0,0-.63-1.81A2,2,0,0,0,414.57,151.37Z"/><path d="M424.34,151.65a5.78,5.78,0,0,0-.75-.05,2,2,0,0,0-2,1.28v6.35H420v-8.95h1.48l0,1a2.39,2.39,0,0,1,2.13-1.19,1.52,1.52,0,0,1,.68.11Z"/><path d="M428.23,148.12v2.16h1.67v1.18h-1.67V157a1.24,1.24,0,0,0,.23.81,1,1,0,0,0,.76.26A4.17,4.17,0,0,0,430,158v1.23a4.52,4.52,0,0,1-1.18.16,1.9,1.9,0,0,1-1.55-.62,2.7,2.7,0,0,1-.52-1.76v-5.55h-1.62v-1.18h1.62v-2.16Z"/><path d="M431.7,147.91a.88.88,0,0,1,.23-.63.84.84,0,0,1,.67-.26.88.88,0,0,1,.68.26.92.92,0,0,1,.23.63.9.9,0,0,1-.23.62.91.91,0,0,1-.68.25.87.87,0,0,1-.67-.25A.85.85,0,0,1,431.7,147.91Zm1.65,11.32h-1.53v-8.95h1.53Z"/><path d="M436.55,159.23v-7.77h-1.41v-1.18h1.41v-.92a3,3,0,0,1,.77-2.22,2.93,2.93,0,0,1,2.18-.79,4.21,4.21,0,0,1,1.05.14l-.09,1.24a4.3,4.3,0,0,0-.82-.08,1.49,1.49,0,0,0-1.15.44,1.76,1.76,0,0,0-.41,1.25v.94H440v1.18h-1.91v7.77Z"/><path d="M441.69,147.91a.91.91,0,0,1,.22-.63,1,1,0,0,1,1.35,0,.88.88,0,0,1,.24.63.86.86,0,0,1-.24.62.9.9,0,0,1-1.57-.62Zm1.65,11.32h-1.53v-8.95h1.53Z"/><path d="M449.38,158.14a2.17,2.17,0,0,0,1.42-.49,1.74,1.74,0,0,0,.68-1.24h1.45a2.74,2.74,0,0,1-.53,1.46,3.53,3.53,0,0,1-1.3,1.11,3.82,3.82,0,0,1-1.72.41,3.67,3.67,0,0,1-2.91-1.22,4.83,4.83,0,0,1-1.08-3.33v-.26a5.38,5.38,0,0,1,.48-2.32,3.61,3.61,0,0,1,1.38-1.58,3.83,3.83,0,0,1,2.12-.56,3.6,3.6,0,0,1,2.5.9,3.22,3.22,0,0,1,1.06,2.34h-1.45a2.1,2.1,0,0,0-.65-1.43,2.06,2.06,0,0,0-1.46-.56,2.15,2.15,0,0,0-1.81.84,3.93,3.93,0,0,0-.64,2.43v.29a3.83,3.83,0,0,0,.64,2.38A2.13,2.13,0,0,0,449.38,158.14Z"/><path d="M460.17,159.23a3.06,3.06,0,0,1-.21-.95,3.41,3.41,0,0,1-2.55,1.11,3.16,3.16,0,0,1-2.17-.75,2.42,2.42,0,0,1-.85-1.89,2.53,2.53,0,0,1,1.07-2.17,4.94,4.94,0,0,1,3-.78h1.49v-.7a1.74,1.74,0,0,0-.48-1.28,2,2,0,0,0-1.41-.47,2.25,2.25,0,0,0-1.37.41,1.23,1.23,0,0,0-.56,1h-1.53a2.08,2.08,0,0,1,.47-1.29,3.23,3.23,0,0,1,1.29-1,4.37,4.37,0,0,1,1.79-.36,3.5,3.5,0,0,1,2.42.77,2.75,2.75,0,0,1,.91,2.13v4.12a5,5,0,0,0,.32,2v.14Zm-2.54-1.17a2.69,2.69,0,0,0,1.37-.37,2.22,2.22,0,0,0,.93-1v-1.83h-1.2c-1.87,0-2.81.54-2.81,1.64a1.4,1.4,0,0,0,.48,1.13A1.84,1.84,0,0,0,457.63,158.06Z"/><path d="M465.94,148.12v2.16h1.67v1.18h-1.67V157a1.24,1.24,0,0,0,.22.81,1,1,0,0,0,.76.26,4.06,4.06,0,0,0,.73-.09v1.23a4.46,4.46,0,0,1-1.18.16,1.87,1.87,0,0,1-1.54-.62,2.64,2.64,0,0,1-.52-1.76v-5.55h-1.63v-1.18h1.63v-2.16Z"/><path d="M469.4,147.91a.92.92,0,0,1,.23-.63.84.84,0,0,1,.67-.26.87.87,0,0,1,.68.26.92.92,0,0,1,.23.63.83.83,0,0,1-.91.87.87.87,0,0,1-.67-.25A.9.9,0,0,1,469.4,147.91Zm1.65,11.32h-1.53v-8.95h1.53Z"/><path d="M473.09,154.67a5.35,5.35,0,0,1,.52-2.36,3.8,3.8,0,0,1,3.54-2.19,3.78,3.78,0,0,1,3,1.26,4.89,4.89,0,0,1,1.13,3.37v.1a5.4,5.4,0,0,1-.5,2.35,3.74,3.74,0,0,1-1.43,1.61,3.92,3.92,0,0,1-2.14.58,3.79,3.79,0,0,1-2.95-1.26,4.87,4.87,0,0,1-1.13-3.35Zm1.54.18a3.81,3.81,0,0,0,.69,2.39,2.22,2.22,0,0,0,1.85.9,2.17,2.17,0,0,0,1.85-.91,4.17,4.17,0,0,0,.69-2.56,3.78,3.78,0,0,0-.7-2.38,2.21,2.21,0,0,0-1.86-.92,2.19,2.19,0,0,0-1.82.9A4.11,4.11,0,0,0,474.63,154.85Z"/><path d="M484.6,150.28l0,1.13a3.27,3.27,0,0,1,2.68-1.29c1.89,0,2.85,1.06,2.86,3.2v5.91h-1.53v-5.92a2,2,0,0,0-.44-1.43,1.77,1.77,0,0,0-1.35-.47,2.26,2.26,0,0,0-1.31.4,2.76,2.76,0,0,0-.87,1v6.38h-1.53v-8.95Z"/><path d="M283.31,179.55v-7.77H281.9V170.6h1.41v-.92a3,3,0,0,1,.77-2.22,2.93,2.93,0,0,1,2.18-.79,4.21,4.21,0,0,1,1.05.14l-.09,1.24a4.22,4.22,0,0,0-.82-.08,1.49,1.49,0,0,0-1.15.44,1.76,1.76,0,0,0-.41,1.25v.94h1.91v1.18h-1.91v7.77Z"/><path d="M292.76,172a4.43,4.43,0,0,0-.75-.05,2,2,0,0,0-2,1.28v6.35h-1.53v-9h1.49l0,1a2.38,2.38,0,0,1,2.14-1.19,1.5,1.5,0,0,1,.67.11Z"/><path d="M293.6,175a5.18,5.18,0,0,1,.52-2.36,3.83,3.83,0,0,1,1.43-1.62,4,4,0,0,1,2.11-.57,3.76,3.76,0,0,1,2.95,1.26,4.84,4.84,0,0,1,1.13,3.37v.1a5.26,5.26,0,0,1-.5,2.35,3.74,3.74,0,0,1-1.43,1.61,3.92,3.92,0,0,1-2.14.58,3.75,3.75,0,0,1-2.94-1.26,4.82,4.82,0,0,1-1.13-3.35Zm1.54.18a3.83,3.83,0,0,0,.69,2.39,2.34,2.34,0,0,0,3.7,0,4.24,4.24,0,0,0,.68-2.56,3.76,3.76,0,0,0-.7-2.38,2.32,2.32,0,0,0-3.68,0A4.17,4.17,0,0,0,295.14,175.17Z"/><path d="M305.1,170.6l0,1a3.31,3.31,0,0,1,2.65-1.15,2.55,2.55,0,0,1,2.56,1.43,3.43,3.43,0,0,1,1.16-1,3.49,3.49,0,0,1,1.69-.39c2,0,3,1,3,3.11v6h-1.52v-5.91a2.06,2.06,0,0,0-.44-1.43,1.94,1.94,0,0,0-1.47-.48,2,2,0,0,0-1.42.51,2.09,2.09,0,0,0-.65,1.37v5.94h-1.54v-5.87a1.71,1.71,0,0,0-1.91-2,2.06,2.06,0,0,0-2.06,1.28v6.54h-1.53v-9Z"/><path d="M324.77,168.43v2.17h1.67v1.18h-1.67v5.56a1.19,1.19,0,0,0,.22.8.94.94,0,0,0,.76.27,3.44,3.44,0,0,0,.73-.1v1.24a4.39,4.39,0,0,1-1.17.16,1.89,1.89,0,0,1-1.55-.62,2.64,2.64,0,0,1-.52-1.76v-5.55h-1.63V170.6h1.63v-2.17Z"/><path d="M329.76,171.68a3.22,3.22,0,0,1,2.64-1.24q2.84,0,2.86,3.19v5.92h-1.53v-5.92a2,2,0,0,0-.44-1.43,1.77,1.77,0,0,0-1.35-.47,2.26,2.26,0,0,0-1.31.4,2.6,2.6,0,0,0-.87,1v6.38h-1.54v-12.7h1.54Z"/><path d="M341.26,179.71a3.93,3.93,0,0,1-3-1.19,4.44,4.44,0,0,1-1.14-3.2V175a5.37,5.37,0,0,1,.51-2.38,4,4,0,0,1,1.42-1.63,3.53,3.53,0,0,1,2-.59,3.38,3.38,0,0,1,2.72,1.14,5,5,0,0,1,1,3.3v.63h-6.06a3.15,3.15,0,0,0,.78,2.14,2.43,2.43,0,0,0,1.88.81,2.67,2.67,0,0,0,1.37-.33,3.51,3.51,0,0,0,1-.87l.94.72A3.75,3.75,0,0,1,341.26,179.71Zm-.19-8a2,2,0,0,0-1.55.68,3.25,3.25,0,0,0-.78,1.88h4.48v-.11a2.87,2.87,0,0,0-.63-1.81A1.93,1.93,0,0,0,341.07,171.69Z"/><path d="M350.31,175a5.18,5.18,0,0,1,.52-2.36,3.83,3.83,0,0,1,1.43-1.62,4,4,0,0,1,2.11-.57,3.76,3.76,0,0,1,2.95,1.26,4.84,4.84,0,0,1,1.13,3.37v.1a5.26,5.26,0,0,1-.5,2.35,3.74,3.74,0,0,1-1.43,1.61,3.92,3.92,0,0,1-2.14.58,3.75,3.75,0,0,1-2.94-1.26,4.82,4.82,0,0,1-1.13-3.35Zm1.54.18a3.83,3.83,0,0,0,.69,2.39,2.34,2.34,0,0,0,3.7,0,4.24,4.24,0,0,0,.68-2.56,3.76,3.76,0,0,0-.7-2.38,2.32,2.32,0,0,0-3.68,0A4.17,4.17,0,0,0,351.85,175.17Z"/><path d="M364.69,172a4.43,4.43,0,0,0-.75-.05,2,2,0,0,0-2,1.28v6.35h-1.53v-9h1.49l0,1a2.38,2.38,0,0,1,2.14-1.19,1.5,1.5,0,0,1,.67.11Z"/><path d="M365.58,175a5.23,5.23,0,0,1,1-3.33,3.34,3.34,0,0,1,5.11-.08l.08-1h1.4v8.73a3.67,3.67,0,0,1-1,2.74,3.84,3.84,0,0,1-2.77,1,4.66,4.66,0,0,1-1.89-.41,3.33,3.33,0,0,1-1.42-1.14l.8-.92a3,3,0,0,0,2.4,1.22,2.32,2.32,0,0,0,1.74-.63,2.39,2.39,0,0,0,.63-1.77v-.77a3.14,3.14,0,0,1-2.51,1.06,3.07,3.07,0,0,1-2.54-1.26A5.54,5.54,0,0,1,365.58,175Zm1.54.17a4,4,0,0,0,.62,2.38,2,2,0,0,0,1.73.86,2.23,2.23,0,0,0,2.13-1.31V173a2.27,2.27,0,0,0-2.11-1.28,2,2,0,0,0-1.74.87A4.37,4.37,0,0,0,367.12,175.17Z"/><path d="M381,179.55a3.31,3.31,0,0,1-.22-1,3.41,3.41,0,0,1-2.55,1.11A3.16,3.16,0,0,1,376,179a2.43,2.43,0,0,1-.84-1.89,2.51,2.51,0,0,1,1.06-2.17,5,5,0,0,1,3-.78h1.49v-.7a1.74,1.74,0,0,0-.48-1.28,2,2,0,0,0-1.42-.47,2.27,2.27,0,0,0-1.37.41,1.22,1.22,0,0,0-.55,1h-1.54a2.11,2.11,0,0,1,.47-1.29,3.23,3.23,0,0,1,1.29-1,4.4,4.4,0,0,1,1.79-.36,3.54,3.54,0,0,1,2.43.77,2.82,2.82,0,0,1,.91,2.13v4.11a5,5,0,0,0,.31,2v.14Zm-2.54-1.17a2.65,2.65,0,0,0,1.36-.37,2.3,2.3,0,0,0,.94-1v-1.83h-1.2c-1.88,0-2.81.54-2.81,1.64a1.4,1.4,0,0,0,.48,1.13A1.82,1.82,0,0,0,378.43,178.38Z"/><path d="M386.1,170.6l0,1.12a3.28,3.28,0,0,1,2.68-1.28q2.84,0,2.86,3.19v5.92h-1.53v-5.92a2.05,2.05,0,0,0-.44-1.43,1.77,1.77,0,0,0-1.35-.47,2.23,2.23,0,0,0-1.31.4,2.63,2.63,0,0,0-.88,1v6.38h-1.53v-9Z"/><path d="M394,168.23a.91.91,0,0,1,.22-.63,1,1,0,0,1,1.35,0,.88.88,0,0,1,.24.63.86.86,0,0,1-.24.62.9.9,0,0,1-1.57-.62Zm1.65,11.32h-1.53v-9h1.53Z"/><path d="M401.69,178.46a2.18,2.18,0,0,0,1.43-.49,1.74,1.74,0,0,0,.68-1.24h1.45a2.83,2.83,0,0,1-.53,1.46,3.61,3.61,0,0,1-1.3,1.11,3.86,3.86,0,0,1-1.73.41,3.65,3.65,0,0,1-2.9-1.22,4.83,4.83,0,0,1-1.08-3.33v-.26a5.34,5.34,0,0,1,.48-2.32,3.66,3.66,0,0,1,1.37-1.58,3.88,3.88,0,0,1,2.12-.56,3.61,3.61,0,0,1,2.51.9,3.25,3.25,0,0,1,1.06,2.34H403.8a2.07,2.07,0,0,0-.66-1.43,2,2,0,0,0-1.46-.56,2.14,2.14,0,0,0-1.8.84,3.93,3.93,0,0,0-.64,2.43v.29a3.9,3.9,0,0,0,.63,2.38A2.15,2.15,0,0,0,401.69,178.46Z"/><path d="M414.75,178.46a2.22,2.22,0,0,0,1.43-.49,1.77,1.77,0,0,0,.68-1.24h1.44a2.66,2.66,0,0,1-.53,1.46,3.45,3.45,0,0,1-1.3,1.11,3.79,3.79,0,0,1-1.72.41,3.67,3.67,0,0,1-2.91-1.22,4.83,4.83,0,0,1-1.08-3.33v-.26a5.34,5.34,0,0,1,.48-2.32,3.61,3.61,0,0,1,1.38-1.58,3.88,3.88,0,0,1,2.12-.56,3.59,3.59,0,0,1,2.5.9,3.18,3.18,0,0,1,1.06,2.34h-1.44a2.16,2.16,0,0,0-.66-1.43,2,2,0,0,0-1.46-.56,2.15,2.15,0,0,0-1.81.84,4,4,0,0,0-.64,2.43v.29a3.9,3.9,0,0,0,.64,2.38A2.13,2.13,0,0,0,414.75,178.46Z"/><path d="M423.74,179.71a3.92,3.92,0,0,1-3-1.19,4.45,4.45,0,0,1-1.15-3.2V175a5.37,5.37,0,0,1,.51-2.38,4,4,0,0,1,1.43-1.63,3.53,3.53,0,0,1,2-.59,3.37,3.37,0,0,1,2.71,1.14,5,5,0,0,1,1,3.3v.63h-6.05a3.14,3.14,0,0,0,.77,2.14,2.43,2.43,0,0,0,1.88.81,2.65,2.65,0,0,0,1.37-.33,3.55,3.55,0,0,0,1-.87l.93.72A3.74,3.74,0,0,1,423.74,179.71Zm-.19-8a2.05,2.05,0,0,0-1.56.68,3.25,3.25,0,0,0-.78,1.88h4.49v-.11a3,3,0,0,0-.63-1.81A2,2,0,0,0,423.55,171.69Z"/><path d="M433.32,172a4.43,4.43,0,0,0-.75-.05,2,2,0,0,0-2.05,1.28v6.35H429v-9h1.49l0,1a2.37,2.37,0,0,1,2.13-1.19,1.55,1.55,0,0,1,.68.11Z"/><path d="M437.21,168.43v2.17h1.67v1.18h-1.67v5.56a1.19,1.19,0,0,0,.23.8.92.92,0,0,0,.76.27,3.36,3.36,0,0,0,.72-.1v1.24a4.39,4.39,0,0,1-1.17.16,1.9,1.9,0,0,1-1.55-.62,2.7,2.7,0,0,1-.52-1.76v-5.55h-1.63V170.6h1.63v-2.17Z"/><path d="M440.68,168.23a.91.91,0,0,1,.22-.63,1,1,0,0,1,1.36,0,.92.92,0,0,1,.23.63.9.9,0,0,1-.23.62,1,1,0,0,1-1.36,0A.89.89,0,0,1,440.68,168.23Zm1.65,11.32H440.8v-9h1.53Z"/><path d="M445.53,179.55v-7.77h-1.41V170.6h1.41v-.92a3,3,0,0,1,.77-2.22,2.92,2.92,0,0,1,2.17-.79,4.09,4.09,0,0,1,1,.14l-.08,1.24a4.33,4.33,0,0,0-.83-.08,1.47,1.47,0,0,0-1.14.44,1.71,1.71,0,0,0-.41,1.25v.94H449v1.18h-1.91v7.77Z"/><path d="M450.66,168.23a.92.92,0,0,1,.23-.63,1,1,0,0,1,1.35,0,.88.88,0,0,1,.23.63.85.85,0,0,1-.23.62.91.91,0,0,1-1.58-.62Zm1.66,11.32h-1.53v-9h1.53Z"/><path d="M458.35,178.46a2.18,2.18,0,0,0,1.43-.49,1.74,1.74,0,0,0,.68-1.24h1.45a2.83,2.83,0,0,1-.53,1.46,3.61,3.61,0,0,1-1.3,1.11,3.86,3.86,0,0,1-1.73.41,3.65,3.65,0,0,1-2.9-1.22,4.83,4.83,0,0,1-1.08-3.33v-.26a5.34,5.34,0,0,1,.48-2.32,3.66,3.66,0,0,1,1.37-1.58,3.88,3.88,0,0,1,2.12-.56,3.61,3.61,0,0,1,2.51.9,3.25,3.25,0,0,1,1.06,2.34h-1.45a2.07,2.07,0,0,0-.66-1.43,2,2,0,0,0-1.46-.56,2.14,2.14,0,0,0-1.8.84,3.93,3.93,0,0,0-.64,2.43v.29a3.9,3.9,0,0,0,.63,2.38A2.15,2.15,0,0,0,458.35,178.46Z"/><path d="M469.15,179.55a3.06,3.06,0,0,1-.21-1,3.41,3.41,0,0,1-2.55,1.11,3.15,3.15,0,0,1-2.17-.75,2.4,2.4,0,0,1-.85-1.89,2.53,2.53,0,0,1,1.06-2.17,5,5,0,0,1,3-.78h1.49v-.7a1.74,1.74,0,0,0-.48-1.28,2,2,0,0,0-1.41-.47,2.23,2.23,0,0,0-1.37.41,1.23,1.23,0,0,0-.56,1h-1.54a2.07,2.07,0,0,1,.48-1.29,3.23,3.23,0,0,1,1.29-1,4.37,4.37,0,0,1,1.79-.36,3.5,3.5,0,0,1,2.42.77,2.75,2.75,0,0,1,.91,2.13v4.11a5,5,0,0,0,.32,2v.14Zm-2.54-1.17A2.69,2.69,0,0,0,468,178a2.22,2.22,0,0,0,.93-1v-1.83h-1.2c-1.87,0-2.81.54-2.81,1.64a1.4,1.4,0,0,0,.48,1.13A1.84,1.84,0,0,0,466.61,178.38Z"/><path d="M474.91,168.43v2.17h1.68v1.18h-1.68v5.56a1.19,1.19,0,0,0,.23.8.94.94,0,0,0,.76.27,3.52,3.52,0,0,0,.73-.1v1.24a4.52,4.52,0,0,1-1.18.16,1.87,1.87,0,0,1-1.54-.62,2.64,2.64,0,0,1-.53-1.76v-5.55h-1.62V170.6h1.62v-2.17Z"/><path d="M478.38,168.23a.88.88,0,0,1,.23-.63.84.84,0,0,1,.67-.26.88.88,0,0,1,.68.26.92.92,0,0,1,.23.63.9.9,0,0,1-.23.62.91.91,0,0,1-.68.25.87.87,0,0,1-.67-.25A.85.85,0,0,1,478.38,168.23ZM480,179.55H478.5v-9H480Z"/><path d="M482.07,175a5.31,5.31,0,0,1,.52-2.36A3.79,3.79,0,0,1,484,171a3.89,3.89,0,0,1,2.1-.57,3.78,3.78,0,0,1,3,1.26,4.89,4.89,0,0,1,1.13,3.37v.1a5.4,5.4,0,0,1-.5,2.35,3.8,3.8,0,0,1-1.43,1.61,4,4,0,0,1-2.14.58,3.79,3.79,0,0,1-2.95-1.26,4.87,4.87,0,0,1-1.13-3.35Zm1.54.18a3.83,3.83,0,0,0,.69,2.39,2.22,2.22,0,0,0,1.85.9,2.19,2.19,0,0,0,1.85-.91,4.17,4.17,0,0,0,.69-2.56,3.76,3.76,0,0,0-.7-2.38,2.23,2.23,0,0,0-1.86-.92,2.19,2.19,0,0,0-1.82.9A4.11,4.11,0,0,0,483.61,175.17Z"/><path d="M493.58,170.6l.05,1.12a3.29,3.29,0,0,1,2.68-1.28c1.89,0,2.85,1.06,2.86,3.19v5.92h-1.53v-5.92a2,2,0,0,0-.44-1.43,1.77,1.77,0,0,0-1.35-.47,2.26,2.26,0,0,0-1.31.4,2.69,2.69,0,0,0-.87,1v6.38h-1.53v-9Z"/><path d="M513.24,175.17a5.32,5.32,0,0,1-.94,3.3,3,3,0,0,1-2.53,1.24,3.12,3.12,0,0,1-2.62-1.2l-.07,1h-1.41v-12.7h1.53v4.73a3.12,3.12,0,0,1,2.56-1.14,3,3,0,0,1,2.55,1.23,5.46,5.46,0,0,1,.93,3.37Zm-1.52-.17a4.18,4.18,0,0,0-.61-2.42,2,2,0,0,0-1.73-.85,2.25,2.25,0,0,0-2.18,1.41V177a2.3,2.3,0,0,0,2.19,1.4,2,2,0,0,0,1.71-.85A4.37,4.37,0,0,0,511.72,175Z"/><path d="M514.76,175a5.31,5.31,0,0,1,.52-2.36,3.8,3.8,0,0,1,3.54-2.19,3.78,3.78,0,0,1,3,1.26,4.89,4.89,0,0,1,1.13,3.37v.1a5.4,5.4,0,0,1-.5,2.35,3.74,3.74,0,0,1-1.43,1.61,3.92,3.92,0,0,1-2.14.58,3.79,3.79,0,0,1-3-1.26,4.87,4.87,0,0,1-1.13-3.35Zm1.54.18a3.83,3.83,0,0,0,.69,2.39,2.22,2.22,0,0,0,1.85.9,2.17,2.17,0,0,0,1.85-.91,4.17,4.17,0,0,0,.69-2.56,3.76,3.76,0,0,0-.7-2.38,2.21,2.21,0,0,0-1.86-.92,2.19,2.19,0,0,0-1.82.9A4.11,4.11,0,0,0,516.3,175.17Z"/><path d="M524.46,175a5.23,5.23,0,0,1,1-3.31,3.32,3.32,0,0,1,5-.18v-4.66H532v12.7h-1.4l-.08-1a3.1,3.1,0,0,1-2.55,1.12,3,3,0,0,1-2.53-1.27,5.27,5.27,0,0,1-1-3.33Zm1.53.17a3.94,3.94,0,0,0,.62,2.38,2,2,0,0,0,1.74.86,2.21,2.21,0,0,0,2.12-1.3V173a2.23,2.23,0,0,0-2.1-1.27,2.05,2.05,0,0,0-1.76.87A4.37,4.37,0,0,0,526,175.17Z"/><path d="M537.3,177.31l2.09-6.71H541l-3.59,10.33c-.56,1.49-1.44,2.23-2.66,2.23l-.29,0-.57-.1v-1.24l.42,0a2,2,0,0,0,1.21-.31,2.25,2.25,0,0,0,.71-1.15l.34-.91-3.19-8.85h1.67Z"/><path d="M541.45,181.94l-.86-.59a4,4,0,0,0,.81-2.23v-1.38h1.49v1.19a3.64,3.64,0,0,1-.41,1.67A3.72,3.72,0,0,1,541.45,181.94Z"/><path d="M384.17,199.87h-1.58v-12h1.58Z"/><path d="M396.33,199.87h-1.6l-6.06-9.28v9.28h-1.59v-12h1.59l6.08,9.32v-9.32h1.58Z"/><path d="M408.41,194.24a7.39,7.39,0,0,1-.6,3.08,4.55,4.55,0,0,1-1.68,2,4.68,4.68,0,0,1-2.55.69,4.51,4.51,0,0,1-4.23-2.69,7,7,0,0,1-.62-3v-.87a7.36,7.36,0,0,1,.6-3.06,4.48,4.48,0,0,1,4.23-2.75,4.69,4.69,0,0,1,2.55.7,4.44,4.44,0,0,1,1.7,2,7.39,7.39,0,0,1,.6,3.08Zm-1.58-.78a5.44,5.44,0,0,0-.86-3.29,2.86,2.86,0,0,0-2.41-1.14,2.82,2.82,0,0,0-2.37,1.14,5.36,5.36,0,0,0-.89,3.18v.89a5.42,5.42,0,0,0,.88,3.26,3.06,3.06,0,0,0,4.78.06,5.38,5.38,0,0,0,.87-3.21Z"/><path d="M417.43,194.55h-5.05v5.32h-1.59v-12h7.46v1.3h-5.87v4.12h5.05Z"/><path d="M421.85,199.87h-1.59v-12h1.59Z"/><path d="M433.61,196.05A4.42,4.42,0,0,1,432.2,199a4.58,4.58,0,0,1-3.16,1,4.22,4.22,0,0,1-3.41-1.53,6.13,6.13,0,0,1-1.29-4.09v-1.16a6.85,6.85,0,0,1,.6-2.95,4.47,4.47,0,0,1,1.7-2,4.75,4.75,0,0,1,2.54-.68,4.37,4.37,0,0,1,3.08,1.07,4.52,4.52,0,0,1,1.35,3H432a3.47,3.47,0,0,0-.89-2.09,2.76,2.76,0,0,0-1.94-.65,2.85,2.85,0,0,0-2.38,1.13,5.12,5.12,0,0,0-.86,3.2v1.16a5.34,5.34,0,0,0,.81,3.12,2.63,2.63,0,0,0,2.29,1.16,3,3,0,0,0,2-.6,3.24,3.24,0,0,0,.94-2.08Z"/><path d="M442.58,194.3h-5.22v4.27h6.06v1.3h-7.65v-12h7.57v1.3h-6V193h5.22Z"/><rect class="cls-2" x="41.09" y="44.3" width="161.39" height="161.39" transform="translate(124.42 -49.5) rotate(45.12)"/><g class="cls-3"><path class="cls-4" d="M121.57,227.51,19.27,124.79,122,22.49,224.3,125.21ZM22.44,124.79l99.14,99.56,99.55-99.14L122,25.65Zm99.16,89.7L87.46,180.21l26.22-26.11L88.36,128.68l-18,18,11.86,11.92,4.94-4.92-6.95-7,8.16-8.13,15.48,15.54-21.28,21.2-29.85-30,20.48-20.4L52.78,104.42l30-29.85,21.19,21.28L88.4,111.33l-8.13-8.16,7-7-4.92-4.94L70.42,103.15l18,18L113.8,95.87,87.69,69.65,122,35.51l34.15,34.28L129.9,95.9l25.31,25.42,18-18L161.38,91.44l-4.94,4.92,7,7-8.17,8.13L139.75,95.92,161,74.73l29.85,30L170.4,125.1l20.4,20.48-30,29.85-21.19-21.28,15.55-15.48,8.12,8.16-7,6.95,4.91,4.94,11.92-11.87-18-18-25.42,25.31,26.11,26.22Zm-31-34.28,31,31.12,31.11-31-26.11-26.22,28.59-28.47,21.13,21.21-15.09,15-8.08-8.11,7-6.95-5-5L142.8,154.16l18,18.1,26.8-26.68-20.4-20.49,20.49-20.39L161,77.9l-18.11,18,12.32,12.37,5-5-6.95-7,8.11-8.07,15,15.09L155.2,124.49,126.73,95.9,153,69.79,122,38.67l-31.11,31L117,95.88l-28.6,28.47L67.25,103.14l15.09-15,8.08,8.11-7,7,5,5,12.37-12.32-18-18.11-26.8,26.69,20.4,20.49L55.86,145.3l26.69,26.8,18.11-18L88.34,141.7l-5,5,7,7-8.11,8.07-15-15.09,21.21-21.12,28.48,28.59Zm105.12-39.54-15.48-15.55,15.54-15.48,15.48,15.55Zm-12.32-15.54,12.32,12.37,12.37-12.32-12.32-12.37ZM47.78,140.36,32.3,124.81l15.54-15.48,15.48,15.55ZM35.46,124.82l12.32,12.37,12.37-12.32L47.83,112.5Z"/><path class="cls-4" d="M121.62,203.92l-24-24,24-24,24,24.05Zm-20.78-24,20.79,20.88L142.51,180l-20.79-20.88Z"/><path class="cls-4" d="M121.85,93.42l-23.95-24,24-24,24,24.06Zm-20.78-24,20.79,20.88,20.88-20.79L122,48.58Z"/></g><path class="cls-4" d="M62,127.79l10.27-9.05c-3.82-6.61-3.45-11.35,1.14-15.32,4.41-3.82,9.82-3.52,15.52.93l23-19.95c-2.12-5.28-1-10,3-13.11A11.07,11.07,0,0,1,128.18,71c4.36,3.08,5.54,7.57,3.49,13.5l22.93,20c5.63-4.45,10.78-4.85,15.31-1.22a11.18,11.18,0,0,1,3.92,6.2c.93,3.63-.65,6.58-2.66,9.45l9.14,8c1.75,1.53,1.75,2.3,0,3.83l-56.9,49.57c-1.34,1.17-2,1.16-3.33,0l-16.52-14.46c-4.87-4.26-9.75-8.49-14.57-12.8a2.75,2.75,0,0,1-.86-2c.09-1.41,1.74-1.83,3-.81,1.72,1.45,3.4,3,5.13,4.47a3.61,3.61,0,0,0,.45-.39q9.59-10.93,19.14-21.9a1.9,1.9,0,0,0,.44-1.14c0-3.35,0-6.7,0-10a1.48,1.48,0,0,0-.63-1.07q-11.65-6.54-23.36-13a1.26,1.26,0,0,0-1.09,0,1.1,1.1,0,0,0-.14,1A9.73,9.73,0,0,1,90,117a41.62,41.62,0,0,1-7.73,8.86c-1.28,1.16-2.07,1.2-3.32,0-1.5-1.42-2.91-2.92-4.39-4.42l-8.12,7.05,1,.89L83.8,143.76c1.3,1.13,1.55,2.06.8,3s-1.77.84-3.13-.34q-5.85-5.1-11.69-10.23c-2.62-2.3-5.22-4.64-7.83-7Zm115.21,1-8.3-7.23c-1.42,1.47-2.75,2.94-4.17,4.3s-2.09,1.22-3.42,0a42.13,42.13,0,0,1-7.59-8.67,9.86,9.86,0,0,1-1.18-9,1.26,1.26,0,0,0-.26-1.09c-3.14-2.78-6.33-5.53-9.6-8.38-.36.31-.7.6-1,.91q-10.55,9.93-21.09,19.87a2.24,2.24,0,0,0-.71,1.35c-.06,3.07,0,6.15,0,9.23,0,.18,0,.37.09.7h1.29c4.83,0,9.66,0,14.49,0a4.81,4.81,0,0,1,3.1,1c5.89,4.47,11.82,8.89,17.74,13.33l1,.75Zm-27.28,15.78c-4.3-3.22-8.58-6.46-12.91-9.64a3.19,3.19,0,0,0-1.79-.59q-7.71-.07-15.42,0a2.2,2.2,0,0,0-1.49.63q-9.47,10.72-18.87,21.51c-.12.14-.23.3-.45.59l22.82,20,33-28.76Zm-20-57c-2.18,2.2-4.25,4.36-6.39,6.44-1.34,1.3-2,1.3-3.38,0-2.14-2.08-4.21-4.24-6.41-6.46q-9.47,8.19-19.24,16.68c.4.25.68.44,1,.6,7.13,4,14.27,7.92,21.4,11.91a1.19,1.19,0,0,0,1.69-.15c7-6.62,14-13.19,21-19.78l.45-.47Zm-43.13,28a6.23,6.23,0,0,0,.11-7.9,7.19,7.19,0,0,0-7.72-3.18,7.36,7.36,0,0,0-5.93,5.6,5.77,5.77,0,0,0,.71,4.7,37.55,37.55,0,0,0,6.86,8.1C82.81,120.33,84.85,118,86.72,115.52Zm82.73-.42a6.28,6.28,0,0,0,0-7.24,7.22,7.22,0,0,0-6.89-3.56,7.42,7.42,0,0,0-7.09,7.29,6.66,6.66,0,0,0,.83,3,32,32,0,0,0,6.71,8.07A38.55,38.55,0,0,0,169.45,115.1ZM128,83.53a6.51,6.51,0,0,0-.77-8.79A7.63,7.63,0,0,0,118,73.41c-2.8,1.58-5.34,5.86-2.68,9.91A42.64,42.64,0,0,0,122,91C124.08,88.41,126.23,86.1,128,83.53Z"/><path class="cls-4" d="M131.45,149.53a9.73,9.73,0,0,1-.36,10.71,42.23,42.23,0,0,1-8,9,1.67,1.67,0,0,1-2.68-.12,89.12,89.12,0,0,1-6.78-7.38,14.27,14.27,0,0,1-2.73-5.7c-1.2-6.19,4.31-12.19,11.76-12.2A10.55,10.55,0,0,1,131.45,149.53Zm-3.2,8.66c3-4.52-.61-10.08-5.31-10.75a7.51,7.51,0,0,0-8.69,6.89,5.86,5.86,0,0,0,.59,2.91c1.65,3.31,4.22,5.91,6.92,8.49A41.32,41.32,0,0,0,128.25,158.19Z"/><path class="cls-4" d="M80.59,117.35a5.49,5.49,0,0,1-5.54-5.44,5.5,5.5,0,1,1,11-.07A5.44,5.44,0,0,1,80.59,117.35Zm1.93-5.56a2,2,0,0,0-2-1.9,2,2,0,0,0-2,2,2,2,0,0,0,2.05,1.92A1.91,1.91,0,0,0,82.52,111.79Z"/><path class="cls-4" d="M163,106.36a5.57,5.57,0,0,1,5.54,5.48,5.5,5.5,0,1,1-5.54-5.48Zm0,7.47a2,2,0,0,0,2-2,2,2,0,0,0-1.9-2,2,2,0,0,0-2,1.92A1.93,1.93,0,0,0,163,113.83Z"/><path class="cls-4" d="M116.28,80.11a5.5,5.5,0,1,1,5.57,5.41A5.51,5.51,0,0,1,116.28,80.11Zm3.53,0a2,2,0,0,0,3.93-.08,2,2,0,1,0-3.93.08Z"/><path class="cls-4" d="M127.27,155a5.5,5.5,0,1,1-11,0,5.5,5.5,0,0,1,11,0Zm-7.46,0a2,2,0,0,0,2,2,2,2,0,0,0,1.92-2,2,2,0,1,0-3.93,0Z"/></svg>