<svg id="Layer_1" data-name="Layer 1" xmlns="http://www.w3.org/2000/svg" viewBox="0 0 654 250"><defs><style>.cls-1{fill:#49773d;}.cls-2{opacity:0.15;}.cls-3{fill:#fff;}.cls-4{fill:none;stroke:#49773d;stroke-miterlimit:10;stroke-width:2.6px;}</style></defs><path d="M360.7,136.81a5.78,5.78,0,0,0-.75-.05A2,2,0,0,0,357.9,138v6.37h-1.54v-9h1.5l0,1a2.38,2.38,0,0,1,2.14-1.21,1.53,1.53,0,0,1,.68.12Z"/><path d="M365.68,144.58a3.91,3.91,0,0,1-3-1.2,4.43,4.43,0,0,1-1.15-3.21v-.28a5.37,5.37,0,0,1,.51-2.38,4,4,0,0,1,1.43-1.64,3.54,3.54,0,0,1,2-.6,3.35,3.35,0,0,1,2.72,1.16,4.94,4.94,0,0,1,1,3.3v.63H363.1a3.22,3.22,0,0,0,.77,2.15,2.45,2.45,0,0,0,1.89.81,2.65,2.65,0,0,0,1.37-.33,3.31,3.31,0,0,0,1-.88l.94.73A3.76,3.76,0,0,1,365.68,144.58Zm-.2-8.05a2,2,0,0,0-1.55.68,3.28,3.28,0,0,0-.78,1.89h4.49V139a2.85,2.85,0,0,0-.63-1.81A1.93,1.93,0,0,0,365.48,136.53Z"/><path d="M374.55,143.32a2.2,2.2,0,0,0,1.43-.49,1.74,1.74,0,0,0,.68-1.25h1.45a2.67,2.67,0,0,1-.53,1.47,3.36,3.36,0,0,1-1.3,1.11,4,4,0,0,1-4.65-.81,4.86,4.86,0,0,1-1.08-3.34v-.26a5.42,5.42,0,0,1,.48-2.33,3.61,3.61,0,0,1,1.38-1.58,3.9,3.9,0,0,1,2.13-.57,3.57,3.57,0,0,1,2.51.91,3.18,3.18,0,0,1,1.06,2.34h-1.45a2.09,2.09,0,0,0-.66-1.43,2,2,0,0,0-1.46-.56,2.15,2.15,0,0,0-1.81.84,4,4,0,0,0-.64,2.44v.29a3.93,3.93,0,0,0,.63,2.39A2.16,2.16,0,0,0,374.55,143.32Z"/><path d="M383.56,144.58a3.94,3.94,0,0,1-3-1.2,4.47,4.47,0,0,1-1.14-3.21v-.28a5.37,5.37,0,0,1,.51-2.38,4,4,0,0,1,1.43-1.64,3.54,3.54,0,0,1,2-.6,3.35,3.35,0,0,1,2.72,1.16,4.94,4.94,0,0,1,1,3.3v.63H381a3.22,3.22,0,0,0,.78,2.15,2.44,2.44,0,0,0,1.89.81A2.65,2.65,0,0,0,385,143a3.31,3.31,0,0,0,1-.88l.94.73A3.78,3.78,0,0,1,383.56,144.58Zm-.19-8.05a2.05,2.05,0,0,0-1.56.68,3.28,3.28,0,0,0-.78,1.89h4.5V139a3,3,0,0,0-.63-1.81A1.94,1.94,0,0,0,383.37,136.53Z"/><path d="M388.85,133.06a.91.91,0,0,1,.22-.63.88.88,0,0,1,.68-.26.87.87,0,0,1,.68.26.92.92,0,0,1,.23.63.9.9,0,0,1-.23.62.86.86,0,0,1-.68.25.88.88,0,0,1-.68-.25A.89.89,0,0,1,388.85,133.06Zm1.65,11.35H389v-9h1.53Z"/><path d="M395.92,142.33l2.22-6.89h1.57l-3.22,9h-1.17l-3.25-9h1.57Z"/><path d="M404.8,144.58a3.91,3.91,0,0,1-3-1.2,4.47,4.47,0,0,1-1.14-3.21v-.28a5.37,5.37,0,0,1,.51-2.38,3.93,3.93,0,0,1,1.42-1.64,3.57,3.57,0,0,1,2-.6,3.36,3.36,0,0,1,2.72,1.16,4.94,4.94,0,0,1,1,3.3v.63h-6.08a3.17,3.17,0,0,0,.78,2.15,2.43,2.43,0,0,0,1.88.81,2.71,2.71,0,0,0,1.38-.33,3.43,3.43,0,0,0,1-.88l.93.73A3.76,3.76,0,0,1,404.8,144.58Zm-.19-8.05a2.05,2.05,0,0,0-1.56.68,3.28,3.28,0,0,0-.78,1.89h4.5V139a3,3,0,0,0-.63-1.81A1.94,1.94,0,0,0,404.61,136.53Z"/><path d="M409.7,139.85a5.27,5.27,0,0,1,1-3.32,3.09,3.09,0,0,1,2.56-1.26,3.13,3.13,0,0,1,2.5,1.08v-4.68h1.53v12.74h-1.41l-.07-1a3.14,3.14,0,0,1-2.56,1.13,3.09,3.09,0,0,1-2.55-1.28,5.34,5.34,0,0,1-1-3.33Zm1.54.17a4,4,0,0,0,.63,2.39,2,2,0,0,0,1.74.87,2.24,2.24,0,0,0,2.13-1.32v-4.12a2.28,2.28,0,0,0-2.12-1.27,2,2,0,0,0-1.75.88A4.37,4.37,0,0,0,411.24,140Z"/><path d="M425.94,133.27v2.17h1.67v1.18h-1.67v5.58a1.24,1.24,0,0,0,.22.81,1,1,0,0,0,.77.27,4.16,4.16,0,0,0,.72-.1v1.23a4.41,4.41,0,0,1-1.17.17,1.92,1.92,0,0,1-1.55-.62,2.69,2.69,0,0,1-.53-1.77v-5.57h-1.63v-1.18h1.63v-2.17Z"/><path d="M433.74,136.81a5.78,5.78,0,0,0-.75-.05,2,2,0,0,0-2.05,1.28v6.37H429.4v-9h1.5l0,1a2.39,2.39,0,0,1,2.14-1.21,1.5,1.5,0,0,1,.68.12Z"/><path d="M440.36,144.41a3.31,3.31,0,0,1-.22-.94,3.41,3.41,0,0,1-2.55,1.11,3.17,3.17,0,0,1-2.18-.75,2.46,2.46,0,0,1-.85-1.91,2.53,2.53,0,0,1,1.07-2.17,5,5,0,0,1,3-.78h1.49v-.7a1.7,1.7,0,0,0-.48-1.28,1.94,1.94,0,0,0-1.42-.48,2.28,2.28,0,0,0-1.38.41,1.22,1.22,0,0,0-.55,1h-1.55a2.12,2.12,0,0,1,.48-1.3,3.2,3.2,0,0,1,1.3-1,4.22,4.22,0,0,1,1.79-.37,3.55,3.55,0,0,1,2.43.78,2.76,2.76,0,0,1,.91,2.13v4.13a5.06,5.06,0,0,0,.32,2v.13Zm-2.55-1.17a2.69,2.69,0,0,0,1.37-.37,2.25,2.25,0,0,0,.94-1v-1.84h-1.2q-2.82,0-2.82,1.65a1.42,1.42,0,0,0,.48,1.13A1.84,1.84,0,0,0,437.81,143.24Z"/><path d="M444.07,133.06a.91.91,0,0,1,.22-.63.88.88,0,0,1,.68-.26.87.87,0,0,1,.68.26.88.88,0,0,1,.23.63.85.85,0,0,1-.23.62.86.86,0,0,1-.68.25.88.88,0,0,1-.68-.25A.89.89,0,0,1,444.07,133.06Zm1.66,11.35h-1.54v-9h1.54Z"/><path d="M449.63,135.44l.05,1.13a3.26,3.26,0,0,1,2.69-1.3q2.83,0,2.87,3.21v5.93H453.7v-5.94a2,2,0,0,0-.44-1.43,1.78,1.78,0,0,0-1.36-.47,2.26,2.26,0,0,0-1.31.4,2.82,2.82,0,0,0-.88,1.05v6.39h-1.53v-9Z"/><path d="M457.56,133.06a.88.88,0,0,1,.23-.63.84.84,0,0,1,.67-.26.87.87,0,0,1,.68.26.88.88,0,0,1,.23.63.85.85,0,0,1-.23.62.86.86,0,0,1-.68.25.84.84,0,0,1-.67-.25A.85.85,0,0,1,457.56,133.06Zm1.66,11.35h-1.54v-9h1.54Z"/><path d="M463.12,135.44l.05,1.13a3.26,3.26,0,0,1,2.69-1.3c1.9,0,2.85,1.07,2.87,3.21v5.93h-1.54v-5.94a2,2,0,0,0-.44-1.43,1.77,1.77,0,0,0-1.35-.47,2.29,2.29,0,0,0-1.32.4,2.79,2.79,0,0,0-.87,1.05v6.39h-1.54v-9Z"/><path d="M470.68,139.85a5.27,5.27,0,0,1,1-3.34,3.34,3.34,0,0,1,5.13-.08l.08-1h1.4v8.76a3.64,3.64,0,0,1-1,2.74,3.78,3.78,0,0,1-2.77,1,4.55,4.55,0,0,1-1.9-.41,3.33,3.33,0,0,1-1.42-1.14l.8-.92a3,3,0,0,0,2.41,1.22,2.36,2.36,0,0,0,1.75-.63,2.39,2.39,0,0,0,.62-1.77v-.77a3.17,3.17,0,0,1-2.51,1.06,3.08,3.08,0,0,1-2.55-1.27A5.55,5.55,0,0,1,470.68,139.85Zm1.54.17a4.06,4.06,0,0,0,.62,2.39,2,2,0,0,0,1.74.87,2.24,2.24,0,0,0,2.13-1.32v-4.1a2.27,2.27,0,0,0-2.11-1.29,2,2,0,0,0-1.75.88A4.37,4.37,0,0,0,472.22,140Z"/><path d="M330.61,160.22a5.35,5.35,0,0,1,.51-2.37,4,4,0,0,1,1.45-1.63,3.92,3.92,0,0,1,2.11-.57,3.79,3.79,0,0,1,3,1.27,4.86,4.86,0,0,1,1.13,3.38v.1a5.31,5.31,0,0,1-.5,2.36,3.82,3.82,0,0,1-1.43,1.62,4.07,4.07,0,0,1-2.15.58,3.78,3.78,0,0,1-2.95-1.27,4.85,4.85,0,0,1-1.13-3.36Zm1.54.18a3.84,3.84,0,0,0,.69,2.4,2.35,2.35,0,0,0,3.71,0,4.2,4.2,0,0,0,.69-2.57,3.81,3.81,0,0,0-.7-2.39,2.24,2.24,0,0,0-1.86-.92,2.21,2.21,0,0,0-1.84.91A4.17,4.17,0,0,0,332.15,160.4Z"/><path d="M342.15,155.82l.05,1.13a3.24,3.24,0,0,1,2.68-1.3q2.85,0,2.87,3.21v5.93h-1.53v-5.94a2.09,2.09,0,0,0-.44-1.43,1.79,1.79,0,0,0-1.36-.47,2.26,2.26,0,0,0-1.31.4,2.73,2.73,0,0,0-.88,1.05v6.39H340.7v-9Z"/><path d="M355.94,164.79H354.4V152.05h1.54Z"/><path d="M358,160.22a5.22,5.22,0,0,1,.52-2.37,3.88,3.88,0,0,1,1.44-1.63,4,4,0,0,1,2.11-.57,3.79,3.79,0,0,1,3,1.27,4.87,4.87,0,0,1,1.14,3.38v.1a5.31,5.31,0,0,1-.51,2.36,3.82,3.82,0,0,1-1.43,1.62,4,4,0,0,1-2.14.58,3.79,3.79,0,0,1-3-1.27,4.85,4.85,0,0,1-1.13-3.36Zm1.54.18a3.84,3.84,0,0,0,.69,2.4,2.22,2.22,0,0,0,1.86.9,2.19,2.19,0,0,0,1.85-.91,4.2,4.2,0,0,0,.69-2.57,3.81,3.81,0,0,0-.7-2.39,2.24,2.24,0,0,0-1.86-.92,2.18,2.18,0,0,0-1.83.91A4.11,4.11,0,0,0,359.53,160.4Z"/><path d="M367.71,160.23a5.27,5.27,0,0,1,1-3.34,3.34,3.34,0,0,1,5.13-.08l.07-1h1.4v8.76a3.63,3.63,0,0,1-1,2.74,3.8,3.8,0,0,1-2.77,1,4.55,4.55,0,0,1-1.9-.41,3.33,3.33,0,0,1-1.42-1.14l.8-.92a3,3,0,0,0,2.41,1.22,2.36,2.36,0,0,0,1.75-.63,2.43,2.43,0,0,0,.62-1.77v-.77a3.17,3.17,0,0,1-2.51,1.06,3.08,3.08,0,0,1-2.55-1.27A5.56,5.56,0,0,1,367.71,160.23Zm1.55.17a4,4,0,0,0,.62,2.39,2,2,0,0,0,1.74.87,2.24,2.24,0,0,0,2.13-1.32v-4.1a2.27,2.27,0,0,0-2.11-1.29,2,2,0,0,0-1.75.88A4.37,4.37,0,0,0,369.26,160.4Z"/><path d="M377.62,153.44a.91.91,0,0,1,.22-.63.88.88,0,0,1,.68-.26.87.87,0,0,1,.68.26.88.88,0,0,1,.23.63.85.85,0,0,1-.23.62.86.86,0,0,1-.68.25.88.88,0,0,1-.68-.25A.89.89,0,0,1,377.62,153.44Zm1.66,11.35h-1.54v-9h1.54Z"/><path d="M387,162.41a1.11,1.11,0,0,0-.46-1,4.64,4.64,0,0,0-1.64-.6,7.61,7.61,0,0,1-1.85-.59,2.77,2.77,0,0,1-1-.83,2,2,0,0,1-.33-1.15,2.3,2.3,0,0,1,.94-1.86,3.62,3.62,0,0,1,2.38-.77,3.75,3.75,0,0,1,2.47.79,2.5,2.5,0,0,1,.95,2h-1.54a1.4,1.4,0,0,0-.53-1.09,2.34,2.34,0,0,0-2.66-.09,1.13,1.13,0,0,0-.47.95.92.92,0,0,0,.44.84,5.26,5.26,0,0,0,1.58.54,8.19,8.19,0,0,1,1.87.61,2.8,2.8,0,0,1,1.05.86,2.09,2.09,0,0,1,.35,1.22,2.29,2.29,0,0,1-1,1.93,4,4,0,0,1-2.5.73,4.58,4.58,0,0,1-1.91-.38,3.2,3.2,0,0,1-1.3-1.07,2.59,2.59,0,0,1-.46-1.48h1.53a1.58,1.58,0,0,0,.62,1.22,2.39,2.39,0,0,0,1.52.45,2.44,2.44,0,0,0,1.4-.35A1.07,1.07,0,0,0,387,162.41Z"/><path d="M392.57,153.65v2.17h1.67V157h-1.67v5.58a1.24,1.24,0,0,0,.22.81,1,1,0,0,0,.77.27,4.16,4.16,0,0,0,.72-.1v1.23a4.41,4.41,0,0,1-1.17.17,1.91,1.91,0,0,1-1.55-.62,2.69,2.69,0,0,1-.53-1.77V157H389.4v-1.18H391v-2.17Z"/><path d="M396,153.44a.92.92,0,0,1,.23-.63.87.87,0,0,1,.68-.26.88.88,0,0,1,.68.26.92.92,0,0,1,.23.63.9.9,0,0,1-.23.62.88.88,0,0,1-.68.25.86.86,0,0,1-.68-.25A.9.9,0,0,1,396,153.44Zm1.66,11.35h-1.53v-9h1.53Z"/><path d="M403.75,163.7a2.22,2.22,0,0,0,1.44-.49,1.77,1.77,0,0,0,.68-1.25h1.45a2.75,2.75,0,0,1-.53,1.47,3.39,3.39,0,0,1-1.31,1.11,3.71,3.71,0,0,1-1.73.42,3.68,3.68,0,0,1-2.91-1.23,4.86,4.86,0,0,1-1.08-3.34v-.26a5.42,5.42,0,0,1,.48-2.33,3.61,3.61,0,0,1,1.38-1.58,3.9,3.9,0,0,1,2.13-.57,3.55,3.55,0,0,1,2.5.91,3.19,3.19,0,0,1,1.07,2.34h-1.45a2.13,2.13,0,0,0-.66-1.43,2,2,0,0,0-1.46-.56,2.17,2.17,0,0,0-1.82.84,4.05,4.05,0,0,0-.64,2.44v.29a3.86,3.86,0,0,0,.64,2.39A2.15,2.15,0,0,0,403.75,163.7Z"/><path d="M414.27,162.41a1.12,1.12,0,0,0-.47-1,4.57,4.57,0,0,0-1.63-.6,7.46,7.46,0,0,1-1.85-.59,2.68,2.68,0,0,1-1-.83,2,2,0,0,1-.33-1.15,2.31,2.31,0,0,1,.93-1.86,3.65,3.65,0,0,1,2.39-.77,3.77,3.77,0,0,1,2.47.79,2.53,2.53,0,0,1,1,2h-1.54a1.38,1.38,0,0,0-.54-1.09,2,2,0,0,0-1.34-.46,2,2,0,0,0-1.31.37,1.14,1.14,0,0,0-.48.95.94.94,0,0,0,.44.84,5.46,5.46,0,0,0,1.59.54,7.93,7.93,0,0,1,1.86.61,2.76,2.76,0,0,1,1.06.86,2.09,2.09,0,0,1,.34,1.22,2.29,2.29,0,0,1-1,1.93,4,4,0,0,1-2.49.73,4.58,4.58,0,0,1-1.91-.38,3.13,3.13,0,0,1-1.3-1.07,2.6,2.6,0,0,1-.47-1.48h1.54a1.57,1.57,0,0,0,.61,1.22,2.44,2.44,0,0,0,1.53.45,2.41,2.41,0,0,0,1.39-.35A1.08,1.08,0,0,0,414.27,162.41Z"/><path d="M427.55,164.79a3.31,3.31,0,0,1-.22-.94,3.41,3.41,0,0,1-2.55,1.11,3.17,3.17,0,0,1-2.18-.75,2.43,2.43,0,0,1-.85-1.91,2.53,2.53,0,0,1,1.07-2.17,5,5,0,0,1,3-.78h1.5v-.7a1.7,1.7,0,0,0-.48-1.28,2,2,0,0,0-1.42-.48,2.28,2.28,0,0,0-1.38.41,1.22,1.22,0,0,0-.55,1h-1.55a2.12,2.12,0,0,1,.48-1.3,3.23,3.23,0,0,1,1.29-1,4.3,4.3,0,0,1,1.8-.37,3.55,3.55,0,0,1,2.43.78,2.81,2.81,0,0,1,.91,2.13v4.13a5.06,5.06,0,0,0,.32,2v.13ZM425,163.62a2.69,2.69,0,0,0,1.37-.37,2.3,2.3,0,0,0,.94-1v-1.84H426.1q-2.82,0-2.82,1.65a1.42,1.42,0,0,0,.49,1.13A1.84,1.84,0,0,0,425,163.62Z"/><path d="M432.7,155.82l.05,1.13a3.24,3.24,0,0,1,2.68-1.3c1.9,0,2.85,1.07,2.87,3.21v5.93h-1.53v-5.94a2.09,2.09,0,0,0-.45-1.43A1.77,1.77,0,0,0,435,157a2.23,2.23,0,0,0-1.31.4,2.73,2.73,0,0,0-.88,1.05v6.39h-1.54v-9Z"/><path d="M440.24,160.23a5.27,5.27,0,0,1,1-3.32,3.33,3.33,0,0,1,5.06-.18v-4.68h1.53v12.74H446.4l-.07-1a3.13,3.13,0,0,1-2.56,1.13,3.06,3.06,0,0,1-2.54-1.28,5.28,5.28,0,0,1-1-3.33Zm1.54.17a4,4,0,0,0,.63,2.39,2,2,0,0,0,1.74.87,2.24,2.24,0,0,0,2.13-1.32v-4.12a2.27,2.27,0,0,0-2.12-1.27,2,2,0,0,0-1.75.88A4.37,4.37,0,0,0,441.78,160.4Z"/><path d="M459.62,162.41a1.1,1.1,0,0,0-.47-1,4.49,4.49,0,0,0-1.63-.6,7.61,7.61,0,0,1-1.85-.59,2.68,2.68,0,0,1-1-.83,2,2,0,0,1-.33-1.15,2.31,2.31,0,0,1,.93-1.86,3.67,3.67,0,0,1,2.39-.77,3.75,3.75,0,0,1,2.47.79,2.5,2.5,0,0,1,.95,2h-1.54a1.4,1.4,0,0,0-.53-1.09,2.34,2.34,0,0,0-2.66-.09,1.13,1.13,0,0,0-.47.95.92.92,0,0,0,.44.84,5.26,5.26,0,0,0,1.58.54,7.93,7.93,0,0,1,1.86.61,2.76,2.76,0,0,1,1.06.86,2.09,2.09,0,0,1,.35,1.22,2.29,2.29,0,0,1-1,1.93,4,4,0,0,1-2.5.73,4.58,4.58,0,0,1-1.91-.38,3.2,3.2,0,0,1-1.3-1.07A2.59,2.59,0,0,1,454,162h1.53a1.58,1.58,0,0,0,.62,1.22,2.39,2.39,0,0,0,1.52.45,2.46,2.46,0,0,0,1.4-.35A1.07,1.07,0,0,0,459.62,162.41Z"/><path d="M464.69,156.91a3.25,3.25,0,0,1,2.65-1.26q2.85,0,2.87,3.21v5.93h-1.53v-5.94a2.09,2.09,0,0,0-.45-1.43,1.77,1.77,0,0,0-1.35-.47,2.23,2.23,0,0,0-1.31.4,2.73,2.73,0,0,0-.88,1.05v6.39h-1.54V152.05h1.54Z"/><path d="M476.23,165a3.94,3.94,0,0,1-3-1.2,4.47,4.47,0,0,1-1.14-3.21v-.28a5.37,5.37,0,0,1,.51-2.38,4,4,0,0,1,1.43-1.64,3.54,3.54,0,0,1,2-.6,3.36,3.36,0,0,1,2.72,1.16,4.94,4.94,0,0,1,1,3.3v.63h-6.08a3.22,3.22,0,0,0,.78,2.15,2.44,2.44,0,0,0,1.89.81,2.65,2.65,0,0,0,1.37-.33,3.31,3.31,0,0,0,1-.88l.94.73A3.78,3.78,0,0,1,476.23,165Zm-.19-8.05a2.05,2.05,0,0,0-1.56.68,3.28,3.28,0,0,0-.78,1.89h4.5v-.11a3,3,0,0,0-.63-1.81A1.94,1.94,0,0,0,476,156.91Z"/><path d="M483.17,164.79h-1.53V152.05h1.53Z"/><path d="M487.71,153.65v2.17h1.68V157h-1.68v5.58a1.24,1.24,0,0,0,.22.81,1,1,0,0,0,.77.27,4.38,4.38,0,0,0,.73-.1v1.23a4.55,4.55,0,0,1-1.18.17,1.92,1.92,0,0,1-1.55-.62,2.69,2.69,0,0,1-.52-1.77V157h-1.64v-1.18h1.64v-2.17Z"/><path d="M494.9,165a3.91,3.91,0,0,1-3-1.2,4.47,4.47,0,0,1-1.14-3.21v-.28a5.37,5.37,0,0,1,.51-2.38,3.93,3.93,0,0,1,1.42-1.64,3.57,3.57,0,0,1,2-.6,3.36,3.36,0,0,1,2.72,1.16,4.94,4.94,0,0,1,1,3.3v.63h-6.08a3.17,3.17,0,0,0,.78,2.15,2.43,2.43,0,0,0,1.88.81,2.71,2.71,0,0,0,1.38-.33,3.43,3.43,0,0,0,1-.88l.93.73A3.76,3.76,0,0,1,494.9,165Zm-.19-8.05a2.05,2.05,0,0,0-1.56.68,3.28,3.28,0,0,0-.78,1.89h4.49v-.11a2.9,2.9,0,0,0-.62-1.81A1.94,1.94,0,0,0,494.71,156.91Z"/><path d="M504.51,157.2a4.38,4.38,0,0,0-.75-.06,2,2,0,0,0-2.05,1.28v6.37h-1.54v-9h1.5l0,1a2.38,2.38,0,0,1,2.14-1.21,1.5,1.5,0,0,1,.68.12Z"/><path d="M325,173.82a.88.88,0,0,1,.23-.63.84.84,0,0,1,.67-.26.87.87,0,0,1,.68.26.88.88,0,0,1,.23.63.85.85,0,0,1-.23.62.86.86,0,0,1-.68.25.84.84,0,0,1-.67-.25A.85.85,0,0,1,325,173.82Zm1.66,11.35H325.1v-9h1.54Z"/><path d="M330.54,176.2l0,1.13a3.26,3.26,0,0,1,2.69-1.3c1.9,0,2.85,1.07,2.87,3.21v5.93h-1.54v-5.94a2,2,0,0,0-.44-1.43,1.77,1.77,0,0,0-1.35-.47,2.29,2.29,0,0,0-1.32.4,2.79,2.79,0,0,0-.87,1.05v6.39h-1.54v-9Z"/><path d="M344.75,174v2.17h1.67v1.18h-1.67V183a1.24,1.24,0,0,0,.22.81,1,1,0,0,0,.77.27,4.29,4.29,0,0,0,.72-.1v1.23a4.41,4.41,0,0,1-1.17.17,1.91,1.91,0,0,1-1.55-.62,2.69,2.69,0,0,1-.53-1.77v-5.57h-1.63V176.2h1.63V174Z"/><path d="M349.75,177.29A3.25,3.25,0,0,1,352.4,176c1.9,0,2.85,1.07,2.87,3.21v5.93h-1.53v-5.94a2.09,2.09,0,0,0-.45-1.43,1.77,1.77,0,0,0-1.35-.47,2.23,2.23,0,0,0-1.31.4,2.73,2.73,0,0,0-.88,1.05v6.39h-1.54V172.43h1.54Z"/><path d="M361.29,185.34a3.94,3.94,0,0,1-3-1.2,4.47,4.47,0,0,1-1.14-3.21v-.28a5.37,5.37,0,0,1,.51-2.38,3.88,3.88,0,0,1,1.43-1.64,3.54,3.54,0,0,1,2-.6,3.36,3.36,0,0,1,2.72,1.16,4.94,4.94,0,0,1,1,3.3v.63h-6.08a3.22,3.22,0,0,0,.78,2.15,2.44,2.44,0,0,0,1.89.81,2.65,2.65,0,0,0,1.37-.33,3.31,3.31,0,0,0,1-.88l.94.73A3.78,3.78,0,0,1,361.29,185.34Zm-.19-8.05a2.05,2.05,0,0,0-1.56.68,3.28,3.28,0,0,0-.78,1.89h4.5v-.11a3,3,0,0,0-.63-1.81A1.94,1.94,0,0,0,361.1,177.29Z"/><path d="M374.37,184.08a2.18,2.18,0,0,0,1.43-.49,1.78,1.78,0,0,0,.69-1.25h1.45a2.76,2.76,0,0,1-.54,1.47,3.36,3.36,0,0,1-1.3,1.11,4,4,0,0,1-4.65-.81,4.86,4.86,0,0,1-1.08-3.34v-.26a5.42,5.42,0,0,1,.48-2.33,3.57,3.57,0,0,1,1.39-1.58,3.84,3.84,0,0,1,2.12-.57,3.57,3.57,0,0,1,2.51.91,3.23,3.23,0,0,1,1.07,2.34h-1.45a2.18,2.18,0,0,0-.66-1.43,2.09,2.09,0,0,0-1.47-.56,2.13,2.13,0,0,0-1.81.85,3.93,3.93,0,0,0-.64,2.43v.29a3.86,3.86,0,0,0,.64,2.39A2.13,2.13,0,0,0,374.37,184.08Z"/><path d="M379.25,180.6a5.36,5.36,0,0,1,.52-2.37,4,4,0,0,1,1.45-1.63,3.92,3.92,0,0,1,2.11-.57,3.79,3.79,0,0,1,3,1.27,4.86,4.86,0,0,1,1.13,3.38v.1a5.31,5.31,0,0,1-.5,2.36,3.82,3.82,0,0,1-1.43,1.62,4.07,4.07,0,0,1-2.15.58,3.78,3.78,0,0,1-2.95-1.27,4.85,4.85,0,0,1-1.14-3.36Zm1.55.18a3.84,3.84,0,0,0,.69,2.4,2.35,2.35,0,0,0,3.71,0,4.2,4.2,0,0,0,.69-2.57,3.88,3.88,0,0,0-.7-2.39,2.24,2.24,0,0,0-1.86-.92,2.21,2.21,0,0,0-1.84.91A4.17,4.17,0,0,0,380.8,180.78Z"/><path d="M390.8,176.2l.05,1.13a3.24,3.24,0,0,1,2.68-1.3q2.85,0,2.87,3.21v5.93h-1.53v-5.94a2.09,2.09,0,0,0-.44-1.43,1.79,1.79,0,0,0-1.36-.47,2.26,2.26,0,0,0-1.31.4,2.73,2.73,0,0,0-.88,1.05v6.39h-1.53v-9Z"/><path d="M400.8,174v2.17h1.67v1.18H400.8V183a1.24,1.24,0,0,0,.22.81,1,1,0,0,0,.77.27,4.38,4.38,0,0,0,.73-.1v1.23a4.55,4.55,0,0,1-1.18.17,1.92,1.92,0,0,1-1.55-.62,2.69,2.69,0,0,1-.53-1.77v-5.57h-1.63V176.2h1.63V174Z"/><path d="M408,185.34a3.91,3.91,0,0,1-3-1.2,4.47,4.47,0,0,1-1.14-3.21v-.28a5.37,5.37,0,0,1,.51-2.38,3.93,3.93,0,0,1,1.42-1.64,3.55,3.55,0,0,1,2-.6,3.37,3.37,0,0,1,2.72,1.16,5,5,0,0,1,1,3.3v.63h-6.08a3.17,3.17,0,0,0,.78,2.15,2.43,2.43,0,0,0,1.88.81,2.71,2.71,0,0,0,1.38-.33,3.57,3.57,0,0,0,1-.88l.93.73A3.76,3.76,0,0,1,408,185.34Zm-.19-8.05a2.05,2.05,0,0,0-1.56.68,3.28,3.28,0,0,0-.78,1.89H410v-.11a2.85,2.85,0,0,0-.63-1.81A1.91,1.91,0,0,0,407.8,177.29Z"/><path d="M416.27,179.47l2-3.27h1.79l-2.93,4.44,3,4.53h-1.78l-2.07-3.36-2.08,3.36h-1.78l3-4.53-2.94-4.44h1.78Z"/><path d="M423.76,174v2.17h1.68v1.18h-1.68V183a1.24,1.24,0,0,0,.23.81.92.92,0,0,0,.76.27,4.38,4.38,0,0,0,.73-.1v1.23a4.55,4.55,0,0,1-1.18.17,1.92,1.92,0,0,1-1.55-.62,2.69,2.69,0,0,1-.52-1.77v-5.57h-1.64V176.2h1.64V174Z"/><path d="M431,180.6a5.35,5.35,0,0,1,.51-2.37A4,4,0,0,1,433,176.6a3.92,3.92,0,0,1,2.11-.57,3.79,3.79,0,0,1,3,1.27,4.86,4.86,0,0,1,1.13,3.38v.1a5.31,5.31,0,0,1-.5,2.36,3.82,3.82,0,0,1-1.43,1.62,4,4,0,0,1-2.15.58,3.78,3.78,0,0,1-2.95-1.27,4.85,4.85,0,0,1-1.13-3.36Zm1.54.18a3.84,3.84,0,0,0,.69,2.4,2.35,2.35,0,0,0,3.71,0,4.2,4.2,0,0,0,.69-2.57,3.81,3.81,0,0,0-.7-2.39,2.24,2.24,0,0,0-1.86-.92,2.18,2.18,0,0,0-1.83.91A4.11,4.11,0,0,0,432.57,180.78Z"/><path d="M441.87,185.17v-7.79h-1.42V176.2h1.42v-.92a3.07,3.07,0,0,1,.77-2.23,2.9,2.9,0,0,1,2.18-.79,4.23,4.23,0,0,1,1.06.14l-.09,1.24a4.3,4.3,0,0,0-.82-.08,1.51,1.51,0,0,0-1.16.44,1.77,1.77,0,0,0-.4,1.25v.95h1.91v1.18h-1.91v7.79Z"/><path d="M450.85,180.61a5.26,5.26,0,0,1,1-3.32,3.33,3.33,0,0,1,5.06-.18v-4.68h1.54v12.74H457l-.08-1a3.13,3.13,0,0,1-2.56,1.13,3.06,3.06,0,0,1-2.54-1.28,5.27,5.27,0,0,1-1-3.33Zm1.53.17a4,4,0,0,0,.63,2.39,2,2,0,0,0,1.74.87,2.25,2.25,0,0,0,2.13-1.31V178.6a2.26,2.26,0,0,0-2.11-1.27,2.06,2.06,0,0,0-1.76.88A4.37,4.37,0,0,0,452.38,180.78Z"/><path d="M460.8,173.82a.92.92,0,0,1,.23-.63.87.87,0,0,1,.68-.26.88.88,0,0,1,.68.26.92.92,0,0,1,.23.63.9.9,0,0,1-.23.62.88.88,0,0,1-.68.25.86.86,0,0,1-.68-.25A.9.9,0,0,1,460.8,173.82Zm1.66,11.35h-1.53v-9h1.53Z"/><path d="M470.14,182.79a1.1,1.1,0,0,0-.47-1,4.49,4.49,0,0,0-1.63-.6,7.61,7.61,0,0,1-1.85-.59,2.68,2.68,0,0,1-1-.83,2,2,0,0,1-.33-1.15,2.31,2.31,0,0,1,.93-1.86,3.67,3.67,0,0,1,2.39-.77,3.75,3.75,0,0,1,2.47.79,2.5,2.5,0,0,1,.95,2h-1.54a1.4,1.4,0,0,0-.53-1.09,2,2,0,0,0-1.35-.46,2.1,2.1,0,0,0-1.31.37,1.13,1.13,0,0,0-.47,1,.94.94,0,0,0,.43.84,5.46,5.46,0,0,0,1.59.54,7.93,7.93,0,0,1,1.86.61,2.76,2.76,0,0,1,1.06.86,2.09,2.09,0,0,1,.35,1.22,2.27,2.27,0,0,1-1,1.93,4,4,0,0,1-2.49.73,4.58,4.58,0,0,1-1.91-.38,3.13,3.13,0,0,1-1.3-1.07,2.6,2.6,0,0,1-.47-1.48h1.54a1.58,1.58,0,0,0,.62,1.22,2.86,2.86,0,0,0,2.91.1A1.06,1.06,0,0,0,470.14,182.79Z"/><path d="M479.21,185.17a3.39,3.39,0,0,1-.21-.94,3.45,3.45,0,0,1-2.56,1.11,3.15,3.15,0,0,1-2.17-.75,2.43,2.43,0,0,1-.85-1.91,2.52,2.52,0,0,1,1.06-2.17,5,5,0,0,1,3-.78H479V179a1.7,1.7,0,0,0-.48-1.28,1.92,1.92,0,0,0-1.42-.48,2.27,2.27,0,0,0-1.37.41,1.23,1.23,0,0,0-.56,1H473.6a2.12,2.12,0,0,1,.48-1.3,3.17,3.17,0,0,1,1.29-1,4.23,4.23,0,0,1,1.8-.37,3.55,3.55,0,0,1,2.43.78,2.81,2.81,0,0,1,.91,2.13v4.13a5.08,5.08,0,0,0,.31,2v.13ZM476.67,184a2.69,2.69,0,0,0,1.37-.37,2.22,2.22,0,0,0,.93-1v-1.84h-1.2q-2.82,0-2.82,1.65a1.42,1.42,0,0,0,.48,1.13A1.85,1.85,0,0,0,476.67,184Z"/><path d="M488.14,182.79a1.12,1.12,0,0,0-.47-1,4.56,4.56,0,0,0-1.64-.6,7.51,7.51,0,0,1-1.84-.59,2.72,2.72,0,0,1-1-.83,2.07,2.07,0,0,1-.32-1.15,2.31,2.31,0,0,1,.93-1.86,3.64,3.64,0,0,1,2.38-.77,3.78,3.78,0,0,1,2.48.79,2.53,2.53,0,0,1,.95,2h-1.54a1.38,1.38,0,0,0-.54-1.09,2,2,0,0,0-1.35-.46,2.14,2.14,0,0,0-1.31.37,1.15,1.15,0,0,0-.47,1,.94.94,0,0,0,.44.84,5.24,5.24,0,0,0,1.59.54,8.26,8.26,0,0,1,1.86.61,2.84,2.84,0,0,1,1.06.86,2.09,2.09,0,0,1,.34,1.22,2.29,2.29,0,0,1-1,1.93,4,4,0,0,1-2.5.73,4.54,4.54,0,0,1-1.9-.38,3.07,3.07,0,0,1-1.3-1.07,2.6,2.6,0,0,1-.47-1.48h1.53a1.61,1.61,0,0,0,.62,1.22,2.41,2.41,0,0,0,1.52.45,2.44,2.44,0,0,0,1.4-.35A1.08,1.08,0,0,0,488.14,182.79Z"/><path d="M493.75,174v2.17h1.68v1.18h-1.68V183a1.24,1.24,0,0,0,.23.81.92.92,0,0,0,.76.27,4.38,4.38,0,0,0,.73-.1v1.23a4.55,4.55,0,0,1-1.18.17,1.92,1.92,0,0,1-1.55-.62,2.69,2.69,0,0,1-.52-1.77v-5.57h-1.64V176.2h1.64V174Z"/><path d="M500.94,185.34a3.93,3.93,0,0,1-3-1.2,4.47,4.47,0,0,1-1.14-3.21v-.28a5.37,5.37,0,0,1,.51-2.38,3.93,3.93,0,0,1,1.42-1.64,3.57,3.57,0,0,1,2-.6,3.36,3.36,0,0,1,2.72,1.16,4.94,4.94,0,0,1,1,3.3v.63h-6.08a3.17,3.17,0,0,0,.78,2.15,2.43,2.43,0,0,0,1.88.81,2.69,2.69,0,0,0,1.38-.33,3.31,3.31,0,0,0,1-.88l.93.73A3.76,3.76,0,0,1,500.94,185.34Zm-.19-8.05a2.05,2.05,0,0,0-1.56.68,3.28,3.28,0,0,0-.78,1.89h4.5v-.11a3,3,0,0,0-.63-1.81A1.94,1.94,0,0,0,500.75,177.29Z"/><path d="M510.55,177.58a4.38,4.38,0,0,0-.75-.06,2,2,0,0,0-2.05,1.28v6.37h-1.53v-9h1.49l0,1a2.39,2.39,0,0,1,2.14-1.21,1.5,1.5,0,0,1,.68.12Z"/><path d="M388,198a4.38,4.38,0,0,0-.75-.06,2,2,0,0,0-2,1.28v6.37h-1.54v-9h1.5l0,1a2.39,2.39,0,0,1,2.14-1.21,1.5,1.5,0,0,1,.68.12Z"/><path d="M392.94,205.72a3.91,3.91,0,0,1-3-1.2,4.43,4.43,0,0,1-1.15-3.21V201a5.37,5.37,0,0,1,.51-2.38,4,4,0,0,1,1.43-1.64,3.55,3.55,0,0,1,2-.6,3.37,3.37,0,0,1,2.72,1.16,5,5,0,0,1,1,3.3v.63h-6.08a3.22,3.22,0,0,0,.77,2.15,2.47,2.47,0,0,0,1.89.82,2.71,2.71,0,0,0,1.38-.34,3.4,3.4,0,0,0,1-.88l.94.73A3.76,3.76,0,0,1,392.94,205.72Zm-.19-8.05a2.05,2.05,0,0,0-1.56.68,3.28,3.28,0,0,0-.78,1.89h4.49v-.11a2.85,2.85,0,0,0-.63-1.81A1.91,1.91,0,0,0,392.75,197.67Z"/><path d="M403.44,203.17a1.12,1.12,0,0,0-.47-1,4.64,4.64,0,0,0-1.64-.6,7.76,7.76,0,0,1-1.85-.59,2.77,2.77,0,0,1-1-.83,2,2,0,0,1-.32-1.15,2.31,2.31,0,0,1,.93-1.86,3.62,3.62,0,0,1,2.38-.77,3.8,3.8,0,0,1,2.48.79,2.53,2.53,0,0,1,.95,2h-1.55a1.37,1.37,0,0,0-.53-1.09,2,2,0,0,0-1.35-.46,2.12,2.12,0,0,0-1.31.37,1.15,1.15,0,0,0-.47,1,.94.94,0,0,0,.44.84,5.24,5.24,0,0,0,1.59.54,8.26,8.26,0,0,1,1.86.61,2.84,2.84,0,0,1,1.06.86,2.11,2.11,0,0,1,.34,1.22,2.29,2.29,0,0,1-1,1.93,4,4,0,0,1-2.5.73,4.62,4.62,0,0,1-1.91-.38,3.1,3.1,0,0,1-1.29-1.07,2.52,2.52,0,0,1-.47-1.48h1.53A1.61,1.61,0,0,0,400,204a2.39,2.39,0,0,0,1.52.46,2.44,2.44,0,0,0,1.4-.36A1.08,1.08,0,0,0,403.44,203.17Z"/><path d="M414.55,201.16a5.37,5.37,0,0,1-.94,3.31,3,3,0,0,1-2.54,1.25,3.3,3.3,0,0,1-2.57-1V209H407V196.58h1.4l.07,1a3.19,3.19,0,0,1,2.61-1.16,3.07,3.07,0,0,1,2.56,1.22,5.49,5.49,0,0,1,.94,3.39ZM413,201a4,4,0,0,0-.64-2.4,2.11,2.11,0,0,0-1.78-.88A2.27,2.27,0,0,0,408.5,199v4.29a2.26,2.26,0,0,0,2.11,1.23,2.08,2.08,0,0,0,1.75-.88A4.28,4.28,0,0,0,413,201Z"/><path d="M416.09,201a5.22,5.22,0,0,1,.52-2.37,4,4,0,0,1,6.52-.93,4.91,4.91,0,0,1,1.13,3.38v.1a5.45,5.45,0,0,1-.5,2.36,3.91,3.91,0,0,1-1.44,1.62,4,4,0,0,1-2.14.58,3.8,3.8,0,0,1-3-1.27,4.89,4.89,0,0,1-1.13-3.36Zm1.54.18a3.84,3.84,0,0,0,.69,2.4,2.24,2.24,0,0,0,1.86.91,2.21,2.21,0,0,0,1.86-.92,4.27,4.27,0,0,0,.68-2.57,3.81,3.81,0,0,0-.7-2.39,2.21,2.21,0,0,0-1.86-.92,2.18,2.18,0,0,0-1.83.91A4.11,4.11,0,0,0,417.63,201.16Z"/><path d="M427.63,196.58l.05,1.13a3.27,3.27,0,0,1,2.69-1.3c1.9,0,2.85,1.07,2.87,3.21v5.93h-1.53v-5.94a2.09,2.09,0,0,0-.45-1.43,1.77,1.77,0,0,0-1.35-.47,2.23,2.23,0,0,0-1.31.4,2.73,2.73,0,0,0-.88,1v6.39h-1.54v-9Z"/><path d="M440.78,203.17a1.12,1.12,0,0,0-.47-1,4.57,4.57,0,0,0-1.63-.6,7.46,7.46,0,0,1-1.85-.59,2.72,2.72,0,0,1-1-.83,2.07,2.07,0,0,1-.32-1.15,2.31,2.31,0,0,1,.93-1.86,3.64,3.64,0,0,1,2.38-.77,3.78,3.78,0,0,1,2.48.79,2.53,2.53,0,0,1,1,2h-1.54a1.38,1.38,0,0,0-.54-1.09,2,2,0,0,0-1.35-.46,2.14,2.14,0,0,0-1.31.37,1.15,1.15,0,0,0-.47,1,.94.94,0,0,0,.44.84,5.24,5.24,0,0,0,1.59.54,8.09,8.09,0,0,1,1.86.61,2.76,2.76,0,0,1,1.06.86,2.11,2.11,0,0,1,.34,1.22,2.29,2.29,0,0,1-1,1.93,4,4,0,0,1-2.5.73,4.57,4.57,0,0,1-1.9-.38,3.07,3.07,0,0,1-1.3-1.07,2.6,2.6,0,0,1-.47-1.48h1.53a1.61,1.61,0,0,0,.62,1.22,2.41,2.41,0,0,0,1.52.46,2.44,2.44,0,0,0,1.4-.36A1.08,1.08,0,0,0,440.78,203.17Z"/><path d="M448,205.72a3.9,3.9,0,0,1-3-1.2,4.43,4.43,0,0,1-1.15-3.21V201a5.37,5.37,0,0,1,.51-2.38,4,4,0,0,1,1.43-1.64,3.54,3.54,0,0,1,2-.6,3.35,3.35,0,0,1,2.72,1.16,4.94,4.94,0,0,1,1,3.3v.63h-6.08a3.27,3.27,0,0,0,.78,2.15,2.44,2.44,0,0,0,1.89.82,2.65,2.65,0,0,0,1.37-.34,3.31,3.31,0,0,0,1-.88l.94.73A3.78,3.78,0,0,1,448,205.72Zm-.19-8.05a2.05,2.05,0,0,0-1.56.68,3.28,3.28,0,0,0-.78,1.89H450v-.11a3,3,0,0,0-.63-1.81A1.94,1.94,0,0,0,447.84,197.67Z"/><path class="cls-1" d="M313.35,98.07h-4.1V95.66h11.16v2.41h-4.1v10.39h-3Z"/><path class="cls-1" d="M329.79,105.72h-5.94l-1.14,2.74h-3l5.71-12.8h2.93l5.72,12.8h-3.11Zm-.93-2.25-2-4.9-2,4.9Z"/><path class="cls-1" d="M343.84,101.86h2.7v5.19a7.58,7.58,0,0,1-2.41,1.21,9.44,9.44,0,0,1-2.76.42,7.47,7.47,0,0,1-3.59-.85,6.38,6.38,0,0,1-2.5-2.36,6.91,6.91,0,0,1,0-6.82,6.37,6.37,0,0,1,2.52-2.36,7.58,7.58,0,0,1,3.62-.85,7.94,7.94,0,0,1,3.06.57,6,6,0,0,1,2.3,1.64l-1.9,1.76a4.62,4.62,0,0,0-5.49-.93,3.66,3.66,0,0,0-1.48,1.44,4.3,4.3,0,0,0-.53,2.14,4.25,4.25,0,0,0,.53,2.12,3.75,3.75,0,0,0,1.47,1.46,4.47,4.47,0,0,0,2.15.52,4.92,4.92,0,0,0,2.31-.55Z"/><path class="cls-1" d="M357.72,105.72h-6l-1.13,2.74h-3l5.71-12.8h2.93l5.72,12.8h-3.11Zm-.94-2.25-2-4.9-2,4.9Z"/><path class="cls-1" d="M375,95.66v12.8h-2.43l-6.39-7.77v7.77H363.3V95.66h2.45l6.36,7.77V95.66Z"/><path class="cls-1" d="M386.51,105.72h-5.95l-1.13,2.74h-3l5.71-12.8H385l5.73,12.8h-3.11Zm-.94-2.25-2-4.9-2,4.9Z"/><path class="cls-1" d="M409.57,95.66,404,108.46H401.1l-5.52-12.8h3.2l3.89,9.14,3.95-9.14Z"/><path class="cls-1" d="M413.09,107.82a6.37,6.37,0,0,1-2.51-2.37,6.83,6.83,0,0,1,0-6.78,6.37,6.37,0,0,1,2.51-2.37,7.92,7.92,0,0,1,7.18,0,6.54,6.54,0,0,1,0,11.52,7.92,7.92,0,0,1-7.18,0Zm5.64-2.18a3.81,3.81,0,0,0,1.44-1.46,4.58,4.58,0,0,0,0-4.24,3.81,3.81,0,0,0-1.44-1.46,4.28,4.28,0,0,0-4.09,0,3.81,3.81,0,0,0-1.44,1.46,4.58,4.58,0,0,0,0,4.24,3.81,3.81,0,0,0,1.44,1.46,4.28,4.28,0,0,0,4.09,0Z"/><path class="cls-1" d="M425.92,95.66h3v10.39h6.42v2.41h-9.38Z"/><path class="cls-1" d="M438.22,107.16a5.82,5.82,0,0,1-1.53-4.33V95.66h3v7.06c0,2.29,1,3.44,2.86,3.44a2.68,2.68,0,0,0,2.12-.83,3.89,3.89,0,0,0,.73-2.61V95.66h2.93v7.17a6.06,6.06,0,0,1-10.07,4.33Z"/><path class="cls-1" d="M463,95.66v12.8h-2.44l-6.38-7.77v7.77h-2.93V95.66h2.46l6.36,7.77V95.66Z"/><path class="cls-1" d="M468.64,98.07h-4.09V95.66H475.7v2.41h-4.09v10.39h-3Z"/><path class="cls-1" d="M487.21,106.08v2.38H477.3V95.66H487V98h-6.73v2.78h5.95v2.3h-5.95v3Z"/><path class="cls-1" d="M499.48,106.08v2.38h-9.91V95.66h9.67V98h-6.73v2.78h5.95v2.3h-5.95v3Z"/><path class="cls-1" d="M510,108.46l-2.47-3.56H504.8v3.56h-3V95.66h5.54a7.11,7.11,0,0,1,3,.57,4.4,4.4,0,0,1,0,8.12l2.87,4.11Zm-.75-9.81a3.15,3.15,0,0,0-2-.58H504.8v4.47h2.42a3.09,3.09,0,0,0,2-.59,2.32,2.32,0,0,0,0-3.3Z"/><path class="cls-1" d="M516.55,108.27a6.76,6.76,0,0,1-2.27-1.07l1-2.23a7,7,0,0,0,2,1,7.47,7.47,0,0,0,2.27.36,3.6,3.6,0,0,0,1.86-.37,1.12,1.12,0,0,0,.61-1,1,1,0,0,0-.36-.76,2.7,2.7,0,0,0-.91-.48c-.38-.12-.88-.26-1.51-.4a22.61,22.61,0,0,1-2.4-.7,3.93,3.93,0,0,1-1.6-1.11,3.06,3.06,0,0,1-.67-2,3.56,3.56,0,0,1,.61-2A4,4,0,0,1,517,96a7.48,7.48,0,0,1,3-.53,10,10,0,0,1,2.39.29,7.21,7.21,0,0,1,2,.84l-.91,2.25a7.14,7.14,0,0,0-3.55-1,3.33,3.33,0,0,0-1.84.4,1.24,1.24,0,0,0-.59,1.06,1,1,0,0,0,.68,1,11.36,11.36,0,0,0,2.1.63,21,21,0,0,1,2.39.69,4,4,0,0,1,1.6,1.1,2.93,2.93,0,0,1,.67,2,3.52,3.52,0,0,1-.61,2,4.1,4.1,0,0,1-1.84,1.43,7.56,7.56,0,0,1-3,.53A10.71,10.71,0,0,1,516.55,108.27Z"/><path class="cls-1" d="M397,57.91a10.63,10.63,0,0,1,4.32,3.8,10.26,10.26,0,0,1,1.59,5.69,10.8,10.8,0,0,1-1.74,6.1,11.3,11.3,0,0,1-4.74,4A15.52,15.52,0,0,1,389.7,79q-7.29,0-11.42-4.46t-4.12-12.76a21.37,21.37,0,0,1,2.24-10.13,15.15,15.15,0,0,1,6.23-6.4A19,19,0,0,1,391.89,43a22.68,22.68,0,0,1,5.33.62,14.44,14.44,0,0,1,4.35,1.76l-3,5.91a11.4,11.4,0,0,0-6.51-1.74,9.49,9.49,0,0,0-7,2.59q-2.58,2.58-2.77,7.49,3.07-3.07,8.58-3.08A13.61,13.61,0,0,1,397,57.91Zm-3.5,13.66a4.72,4.72,0,0,0,1.61-3.78A4.77,4.77,0,0,0,393.45,64a6.26,6.26,0,0,0-4.29-1.42,6.32,6.32,0,0,0-4.32,1.47,5,5,0,0,0,0,7.47A6.53,6.53,0,0,0,389.26,73,6.23,6.23,0,0,0,393.45,71.57Z"/><path class="cls-1" d="M428.55,59.6a9.73,9.73,0,0,1,3.5,7.85,10.9,10.9,0,0,1-1.59,5.78,11.06,11.06,0,0,1-4.84,4.17,18.47,18.47,0,0,1-8,1.56,27.48,27.48,0,0,1-7.22-1,18.65,18.65,0,0,1-6-2.76l3.17-6.16a15,15,0,0,0,4.57,2.31,17.32,17.32,0,0,0,5.31.82A8.29,8.29,0,0,0,422.17,71a3.8,3.8,0,0,0,1.74-3.33,3.74,3.74,0,0,0-1.82-3.37c-1.2-.76-3.3-1.14-6.28-1.14h-8.88l1.79-19.56h21.19v6.45H415.42l-.55,6.6h2.83Q425.05,56.67,428.55,59.6Z"/><path class="cls-1" d="M461,71.82v6.55H434.78V73.16l13.4-12.66a14.58,14.58,0,0,0,2.88-3.5,6.36,6.36,0,0,0,.75-2.91,3.86,3.86,0,0,0-1.42-3.2,6.59,6.59,0,0,0-4.14-1.12,9.54,9.54,0,0,0-4.13.87,7.85,7.85,0,0,0-3.07,2.61l-5.86-3.77a13.86,13.86,0,0,1,5.61-4.75A18.74,18.74,0,0,1,447,43a16.77,16.77,0,0,1,6.78,1.27,10.38,10.38,0,0,1,4.51,3.57,9.23,9.23,0,0,1,1.62,5.44,12.17,12.17,0,0,1-1.19,5.31,20.6,20.6,0,0,1-4.62,5.66l-8,7.55Z"/><rect class="cls-1" x="44.78" y="43.98" width="162.03" height="162.03" transform="translate(125.23 -52.34) rotate(45)"/><g class="cls-2"><path class="cls-3" d="M125.8,227.92,22.88,125,125.8,22.08,228.72,125ZM26.06,125l99.74,99.74L225.54,125,125.8,25.26Zm99.74,89.85L91.45,180.5l26.27-26.27L92.25,128.76,74.18,146.83l11.94,11.94,4.94-5-7-7,8.18-8.18,15.57,15.58L86.5,175.55l-30-30L77,125,56.47,104.48l30-30,21.32,21.32L92.25,111.35l-8.18-8.18,7-7-4.94-4.94L74.18,103.17l18.07,18.07,25.47-25.47L91.45,69.5,125.8,35.15,160.15,69.5,133.88,95.77l25.47,25.47,18.07-18.07L165.48,91.23l-4.95,5,7,7-8.17,8.18L143.77,95.77l21.32-21.32,30,30L174.6,125l20.52,20.52-30,30-21.32-21.32,15.58-15.58,8.17,8.18-7,7,4.95,5,11.94-11.94-18.07-18.07-25.47,25.47,26.27,26.27ZM94.63,180.5l31.17,31.17L157,180.5,130.7,154.23l28.65-28.65,21.25,21.25L165.48,162l-8.13-8.13,7-7-5-5L147,154.23l18.14,18.14,26.85-26.85L171.42,125l20.52-20.52L165.09,77.63,147,95.77l12.4,12.4,5-5-7-7,8.13-8.13,15.12,15.12-21.25,21.25L130.7,95.77,157,69.5,125.8,38.33,94.63,69.5,120.9,95.77,92.25,124.42,71,103.17,86.12,88.05l8.12,8.12-7,7,5,5,12.39-12.4L86.5,77.63,59.65,104.48,80.17,125,59.65,145.52,86.5,172.37l18.14-18.14-12.39-12.4-5,5,7,7L86.12,162,71,146.83l21.25-21.25,28.65,28.65Zm105.44-39.93L184.5,125l15.57-15.57L215.64,125ZM187.68,125l12.39,12.39L212.46,125l-12.39-12.39ZM51.52,140.57,36,125l15.57-15.57L67.1,125ZM39.13,125l12.39,12.39L63.92,125l-12.4-12.39Z"/><path class="cls-3" d="M125.8,204.24l-24.1-24.1L125.8,156l24.1,24.1Zm-20.92-24.1,20.92,20.92,20.92-20.92L125.8,159.22Z"/><path class="cls-3" d="M125.8,93.29l-24.1-24.1L125.8,45.1l24.1,24.09Zm-20.92-24.1L125.8,90.11l20.92-20.92L125.8,48.28Z"/></g><polygon class="cls-4" points="11.8 125 125.91 239.11 528.67 239.11 642.78 125 528.67 10.89 125.91 10.89 11.8 125"/><path class="cls-3" d="M174.58,152.06c-.49.6-1,1.17-1.91.82s-.95-1.08-.95-1.88c0-3.56,0-7.11,0-10.67,0-2.13-.76-3.15-2.79-3.75-1.82-.53-3.64-1.08-5.48-1.56a1.21,1.21,0,0,0-1,.25c-.95.88-1.89,1.8-2.75,2.76a2,2,0,0,0-.4,1.18c0,3.82,0,7.63,0,11.44,0,.22,0,.44,0,.66-.05,1-.6,1.69-1.44,1.68s-1.4-.65-1.41-1.69q0-6,0-12a1.82,1.82,0,0,0-.62-1.5c-.68-.61-1.31-1.29-2-1.94-1.13-1.13-1.13-1.13-2.75-.45,2.21,2.25,2.14,5.08,2.1,7.92,0,2.48,0,5,0,7.43,0,.26,0,.51,0,.77a1.46,1.46,0,0,1-1.45,1.46,1.44,1.44,0,0,1-1.39-1.52c0-1.49,0-3,0-4.48,0-2.06,0-4.13,0-6.19a4.64,4.64,0,0,0-3.15-4.63c-3-1.15-6.07-2.23-9.2-3.37-1,1.44-1.93,2.89-2.89,4.33-.34.5-.65,1-1,1.5a2.92,2.92,0,0,1-4.49.41c-.74-.69-1.41-1.45-2.3-2.37,0,.62-.06,1-.06,1.28v12.86c0,1.46-.47,2.17-1.42,2.18s-1.44-.69-1.44-2.14V137l-.36-.25c-.58.69-1.13,1.42-1.76,2.06a3,3,0,0,1-5-.47c-1.23-1.81-2.43-3.64-3.69-5.53-3.27,1.21-6.54,2.33-9.72,3.65-1.89.78-2.63,2.48-2.63,4.48,0,3.31,0,6.61,0,9.91a7.48,7.48,0,0,1,0,1,1.32,1.32,0,0,1-1.28,1.2,1.27,1.27,0,0,1-1.42-1,3.55,3.55,0,0,1-.12-1c0-3.3-.08-6.61,0-9.91a34.17,34.17,0,0,1,.8-4.54c-1.11-.79-1.11-.79-2.25.3-2.54,2.42-5.28,2.94-7.84,1.37A14,14,0,0,1,87,136.32a.89.89,0,0,0-1.23-.2c-1.25.68-2.54,1.3-3.82,1.92a3.42,3.42,0,0,0-2,3.36c0,3.15,0,6.29,0,9.44a6.43,6.43,0,0,1,0,.76,1.47,1.47,0,0,1-1.42,1.4,1.43,1.43,0,0,1-1.4-1.42c-.05-.88,0-1.77,0-2.66V141.3a6,6,0,0,1,3.51-5.76c1.15-.59,2.31-1.16,3.51-1.76-1.07-.69-2.08-1.29-3.05-2a11.8,11.8,0,0,1-1.32-1.23,3,3,0,0,1-.72-3.41,34.35,34.35,0,0,0,.91-6.19c.25-2.3.17-4.65.62-6.91a12.09,12.09,0,0,1,10.15-9.65,11.87,11.87,0,0,1,13,8.65,37.57,37.57,0,0,1,.81,6.2c.22,2.15.35,4.3.58,6.44a6.88,6.88,0,0,0,.54,1.92,2.22,2.22,0,0,1-.4,2.46,13.37,13.37,0,0,1-4.81,3.58,1.72,1.72,0,0,0,2.12.28c2.8-1.19,5.68-2.18,8.54-3.23a2.49,2.49,0,0,0,1.42-1.19,21.36,21.36,0,0,1,2.22-2.58,4.78,4.78,0,0,0,.55-1.33c0-.08,0-.19,0-.28a6.91,6.91,0,0,0-2.11-6.08,15.4,15.4,0,0,1-4-11,26,26,0,0,0-.93-5.95c-1-4.44-1.29-9,.81-13.22a12.74,12.74,0,0,1,11.55-7.62c7.27-.22,14.55-.08,21.82-.07A1.48,1.48,0,0,1,144.06,83c0,5.55,0,11.11-.14,16.66a11.49,11.49,0,0,1-.82,3.79,9.21,9.21,0,0,0-.56,3.62c.1,3.25-.23,6.46-1.92,9.29a56.13,56.13,0,0,1-3.64,4.84,5.51,5.51,0,0,0-.54,1.21c0,.08,0,.19,0,.29a6,6,0,0,0,2.39,6.22.39.39,0,0,1,.19.21c.36,1.43,1.65,1.56,2.74,2,1.66.62,3.34,1.2,5,1.84a2.67,2.67,0,0,0,2.11.07c.41-.16.85-.25,1.28-.37,1.87-.54,2-.76,1.73-2.67a1.3,1.3,0,0,0-.43-.68,10.94,10.94,0,0,1-4.12-9,7.84,7.84,0,0,0-.77-3.55c-2.48-5.28,1.41-12,7.25-12.28,4.84-.24,9.71-.14,14.56-.15,1,0,1.62.51,1.62,1.39,0,3,0,6-.16,8.94a4.68,4.68,0,0,1-.61,2.08,6.84,6.84,0,0,0-.73,3.66,10.48,10.48,0,0,1-4.11,9c-.86.68-.4,1.59-.38,2.39,0,.25.65.59,1.05.72,1.57.49,3.16.92,4.75,1.37a6.11,6.11,0,0,1,4.65,4.67.78.78,0,0,0,.15.22ZM141.1,84.31a.91.91,0,0,0-.25-.07c-6.76,0-13.53-.1-20.29.06a10.37,10.37,0,0,0-9.79,8.29,17.87,17.87,0,0,0,.43,9.78,15.07,15.07,0,0,1,.76,5.3,15.65,15.65,0,0,0,1.43,6.93,13.84,13.84,0,0,0,14,8,13.66,13.66,0,0,0,11.7-10.24,47.74,47.74,0,0,0,.56-6.8,14.35,14.35,0,0,1,.35-1.94A23.88,23.88,0,0,0,141.1,99c.15-4.82.08-9.65.09-14.47C141.19,84.44,141.14,84.39,141.1,84.31Zm26.09,22.83c-3.43,0-6.66,0-9.9,0a30,30,0,0,0-3.42.13,6,6,0,0,0-4.72,8.26,9.44,9.44,0,0,1,1,4.84,7.36,7.36,0,0,0,.06,1.24c.36,3.88,4,7.24,7.65,7.12a7.73,7.73,0,0,0,7.73-8,12.66,12.66,0,0,1,1-5.34C167.76,112.84,166.93,110,167.19,107.14Zm-65.63,11.79c0-3.12-.48-6.24-2.8-8.86a9,9,0,0,0-13.24.14c-2.31,2.71-2.72,5.9-2.68,9a8.06,8.06,0,0,1,1.5,1.46,3.69,3.69,0,0,1,.24,1.48,7.69,7.69,0,0,0,7.35,6.61,7.77,7.77,0,0,0,7.6-5.24,2.48,2.48,0,0,0-.35-2.47c-2.24-3.12-5.44-4.31-9.09-4.59a1.23,1.23,0,0,0-.79.4,18.11,18.11,0,0,1-1.84,1.78,1.8,1.8,0,0,1-1.55.13,1.7,1.7,0,0,1-.69-1.29c0-1,3.1-4,4-3.94a15.3,15.3,0,0,1,8.08,2.13A49.58,49.58,0,0,1,101.56,118.93Zm16.51,4.64a19.26,19.26,0,0,0,0,2,1.42,1.42,0,0,0,.49.92q3.35,2.35,6.75,4.61a1.07,1.07,0,0,0,1,0q3.4-2.27,6.76-4.61a1.22,1.22,0,0,0,.49-.72c.07-.68,0-1.37,0-2.21A16.89,16.89,0,0,1,118.07,123.57Zm10.19,9.73,3.59,3.58,3.41-5.1c1-1.48,1-1.48-.27-2.72-.06-.07-.15-.09-.28-.17Zm-8.4,3.7,3.62-3.63-6.6-4.51a12.77,12.77,0,0,0-1.1,1.13.78.78,0,0,0-.1.7C117.06,132.81,118.47,134.9,119.86,137Zm-30.77-5.59c-.18,1.58-.57,3.31,1.46,4.31a3.57,3.57,0,0,0,3.44-.08c2-1,1.45-2.75,1.27-4.23Zm65.6-.19c0,.53-.11,1.17.14,1.47.93,1.09,2,2.07,3.08,3.17.87-.91,1.59-1.75,2.42-2.48a1.77,1.77,0,0,0,.61-2.14,23.94,23.94,0,0,1-3,.35A31.9,31.9,0,0,1,154.69,131.22Zm-72.33-5.59c-.17.65-.42,1.56-.62,2.48a.8.8,0,0,0,.14.66,9.93,9.93,0,0,0,4.38,2.63c-.1-.7,0-1.41-.28-1.77C84.81,128.2,83.51,126.89,82.36,125.63Zm15.92,5.74a10.37,10.37,0,0,0,4.2-2.54.81.81,0,0,0,.23-.57c-.22-1-.49-1.92-.7-2.68a34.26,34.26,0,0,1-3,3.49A2.15,2.15,0,0,0,98.28,131.37Z"/><path class="cls-3" d="M165.62,146.91c0-1.42,0-2.85,0-4.27,0-1,.58-1.65,1.44-1.64a1.44,1.44,0,0,1,1.4,1.6c0,2.91,0,5.83,0,8.74A1.48,1.48,0,0,1,167,153c-.83,0-1.38-.66-1.39-1.71C165.61,149.83,165.62,148.37,165.62,146.91Z"/><path class="cls-3" d="M86,148c0,1.14,0,2.28,0,3.43a1.43,1.43,0,1,1-2.84,0c0-2.32,0-4.63,0-6.95a1.42,1.42,0,0,1,1.42-1.57c.86,0,1.41.61,1.43,1.65S86,146.83,86,148Z"/><path class="cls-3" d="M141.22,148.44c0-.95,0-1.9,0-2.86a1.42,1.42,0,1,1,2.83-.08c0,2,0,4,0,6a1.42,1.42,0,1,1-2.83-.1C141.2,150.41,141.22,149.43,141.22,148.44Z"/><path class="cls-3" d="M110.41,148.54c0,1,0,2,0,3A1.4,1.4,0,0,1,109,153a1.36,1.36,0,0,1-1.41-1.39c0-2.06,0-4.12,0-6.18a1.32,1.32,0,0,1,1.44-1.35,1.36,1.36,0,0,1,1.35,1.43c0,1,0,2,0,3Z"/><path class="cls-3" d="M116.55,97.77c0,1.08,0,2.06,0,3,0,1.15-.54,1.74-1.45,1.73s-1.37-.59-1.39-1.69,0-2.16,0-3.23a2.84,2.84,0,0,1,2.43-2.68,39.77,39.77,0,0,1,14.47.17,13.83,13.83,0,0,1,6.72,3.36,1.44,1.44,0,0,1,.24,2,1.36,1.36,0,0,1-2,.14c-2.69-2.42-6-3-9.42-3.3A43.3,43.3,0,0,0,116.55,97.77Z"/><path class="cls-3" d="M163.87,114.52c0,1.29-.84,2-1.75,1.7a30.06,30.06,0,0,0-8.86-1.46,1.31,1.31,0,0,1-1.36-1.4,1.34,1.34,0,0,1,1.47-1.4,24.81,24.81,0,0,1,9.31,1.52A4.66,4.66,0,0,1,163.87,114.52Z"/></svg>