<svg id="Layer_1" data-name="Layer 1" xmlns="http://www.w3.org/2000/svg" viewBox="0 0 654 250"><defs><style>.cls-1{fill:none;stroke:#49773d;stroke-miterlimit:10;stroke-width:2.6px;}.cls-2{fill:#49773d;}.cls-3{opacity:0.15;}.cls-4{fill:#fff;}</style></defs><polygon class="cls-1" points="11.8 125 125.91 239.11 528.67 239.11 642.78 125 528.67 10.89 125.91 10.89 11.8 125"/><path class="cls-2" d="M328.91,96.76v3.38h5.93v2.38h-5.93v4.66h-3V94.38h9.68v2.38Z"/><path class="cls-2" d="M345.54,104.44H339.6l-1.14,2.74h-3l5.7-12.8h2.93l5.72,12.8h-3.11Zm-.93-2.25-2-4.9-2,4.9Z"/><path class="cls-2" d="M359.28,107.18l-2.47-3.56h-2.73v3.56h-3V94.38h5.54a7.06,7.06,0,0,1,2.95.57,4.28,4.28,0,0,1,1.93,1.61,4.42,4.42,0,0,1,.68,2.47,4.33,4.33,0,0,1-.69,2.46,4.37,4.37,0,0,1-1.94,1.58l2.87,4.11Zm-.75-9.81a3.15,3.15,0,0,0-2-.58h-2.42v4.47h2.42a3.09,3.09,0,0,0,2-.59,2.32,2.32,0,0,0,0-3.3Z"/><path class="cls-2" d="M376.21,107.18l0-7.68-3.76,6.33h-1.34l-3.75-6.16v7.51h-2.78V94.38H367l4.79,8,4.72-8H379l0,12.8Z"/><path class="cls-2" d="M382,94.38h3v12.8h-3Z"/><path class="cls-2" d="M399.77,94.38v12.8h-2.43L391,99.41v7.77H388V94.38h2.45l6.36,7.77V94.38Z"/><path class="cls-2" d="M411.45,100.58h2.71v5.19a7.58,7.58,0,0,1-2.41,1.21,9.44,9.44,0,0,1-2.76.42,7.47,7.47,0,0,1-3.59-.85,6.38,6.38,0,0,1-2.5-2.36,6.91,6.91,0,0,1,0-6.82A6.37,6.37,0,0,1,405.42,95a7.58,7.58,0,0,1,3.62-.85,7.94,7.94,0,0,1,3.06.57,6.06,6.06,0,0,1,2.3,1.64l-1.9,1.76a4.43,4.43,0,0,0-3.31-1.45,4.53,4.53,0,0,0-2.18.52,3.66,3.66,0,0,0-1.48,1.44,4.3,4.3,0,0,0-.53,2.14,4.25,4.25,0,0,0,.53,2.12,3.75,3.75,0,0,0,1.47,1.46,4.47,4.47,0,0,0,2.15.52,4.74,4.74,0,0,0,2.3-.55Z"/><path class="cls-2" d="M425,96.76v3.38H431v2.38H425v4.66h-3V94.38h9.68v2.38Z"/><path class="cls-2" d="M441.67,104.44h-5.94l-1.14,2.74h-3l5.7-12.8h2.93l5.72,12.8H442.8Zm-.93-2.25-2-4.9-2,4.9Z"/><path class="cls-2" d="M458.9,107.18l0-7.68-3.77,6.33h-1.33L450,99.67v7.51h-2.78V94.38h2.45l4.79,8,4.72-8h2.43l0,12.8Z"/><path class="cls-2" d="M464.71,94.38h3v12.8h-3Z"/><path class="cls-2" d="M470.71,94.38h3v10.39h6.42v2.41h-9.39Z"/><path class="cls-2" d="M481.76,94.38h3v12.8h-3Z"/><path class="cls-2" d="M497.67,104.8v2.38h-9.91V94.38h9.67v2.38H490.7v2.78h5.95v2.3H490.7v3Z"/><path class="cls-2" d="M501.3,107a6.91,6.91,0,0,1-2.28-1.07l1-2.23a7,7,0,0,0,2,1,7.42,7.42,0,0,0,2.27.36,3.6,3.6,0,0,0,1.86-.37,1.14,1.14,0,0,0,.61-1,1,1,0,0,0-.36-.76,2.66,2.66,0,0,0-.92-.48c-.37-.12-.87-.26-1.51-.4a20.82,20.82,0,0,1-2.39-.7,3.86,3.86,0,0,1-1.6-1.11,3,3,0,0,1-.67-2,3.49,3.49,0,0,1,.61-2,4,4,0,0,1,1.81-1.44,7.56,7.56,0,0,1,3-.53,10.09,10.09,0,0,1,2.39.29,7.34,7.34,0,0,1,2.05.84l-.91,2.25a7.17,7.17,0,0,0-3.55-1,3.33,3.33,0,0,0-1.84.4,1.22,1.22,0,0,0-.59,1.06,1,1,0,0,0,.68,1,11.36,11.36,0,0,0,2.1.63,19,19,0,0,1,2.39.7,3.91,3.91,0,0,1,1.6,1.09,2.93,2.93,0,0,1,.67,2,3.52,3.52,0,0,1-.61,2,4.1,4.1,0,0,1-1.84,1.43,7.39,7.39,0,0,1-3,.53A10.71,10.71,0,0,1,501.3,107Z"/><path class="cls-2" d="M320.4,42.34V77.09h-8V48.79h-6.95V42.34Z"/><path class="cls-2" d="M334.5,69.17a4.64,4.64,0,0,1,1.34,3.45,8,8,0,0,1-.25,2,22.34,22.34,0,0,1-1.09,3l-2.83,7.14h-4.91l2.18-7.89a4.08,4.08,0,0,1-2-1.61,4.74,4.74,0,0,1-.72-2.61,4.58,4.58,0,0,1,1.36-3.45,4.75,4.75,0,0,1,3.45-1.31A4.68,4.68,0,0,1,334.5,69.17Z"/><path class="cls-2" d="M346,75.55a14.27,14.27,0,0,1-5.29-6.18,22.52,22.52,0,0,1-1.91-9.66,22.48,22.48,0,0,1,1.91-9.65A14.27,14.27,0,0,1,346,43.88a14.9,14.9,0,0,1,15.39,0,14.25,14.25,0,0,1,5.28,6.18,22.33,22.33,0,0,1,1.92,9.65,22.37,22.37,0,0,1-1.92,9.66,13.77,13.77,0,0,1-13,8.31A14.09,14.09,0,0,1,346,75.55Zm12.68-7.4q1.82-2.73,1.81-8.44c0-3.8-.6-6.62-1.81-8.44a5.88,5.88,0,0,0-9.93,0c-1.2,1.82-1.81,4.64-1.81,8.44s.61,6.62,1.81,8.44a5.88,5.88,0,0,0,9.93,0Z"/><path class="cls-2" d="M404.35,69.79h-5.66v7.3h-7.84v-7.3H372.13V64.38l16.38-22H397l-15.19,20.9h9.33V56.73h7.6v6.51h5.66Z"/><path class="cls-2" d="M430.16,46.19q4.13,4.44,4.12,12.78a21.52,21.52,0,0,1-2.21,10.13,15,15,0,0,1-6.23,6.4,19.08,19.08,0,0,1-9.28,2.18,21.94,21.94,0,0,1-5.31-.62,14.2,14.2,0,0,1-4.32-1.76l3-5.91a11.23,11.23,0,0,0,6.5,1.74,9.43,9.43,0,0,0,7-2.6Q426,65.92,426.19,61q-3.12,3.14-8.64,3.13a13.46,13.46,0,0,1-6.05-1.34,10.56,10.56,0,0,1-4.32-3.8,10.2,10.2,0,0,1-1.59-5.68,10.83,10.83,0,0,1,1.74-6.11,11.29,11.29,0,0,1,4.74-4,15.37,15.37,0,0,1,6.67-1.42Q426,41.74,430.16,46.19Zm-6.53,10.47a5.06,5.06,0,0,0,.05-7.47,6.41,6.41,0,0,0-4.44-1.44,6.16,6.16,0,0,0-4.19,1.39,4.71,4.71,0,0,0-1.62,3.77,4.79,4.79,0,0,0,1.62,3.8,7.13,7.13,0,0,0,8.58-.05Z"/><path class="cls-2" d="M445.55,69.17a4.6,4.6,0,0,1,1.34,3.45,8.46,8.46,0,0,1-.24,2,22.74,22.74,0,0,1-1.1,3l-2.83,7.14h-4.91L440,76.84a4.13,4.13,0,0,1-2-1.61,4.74,4.74,0,0,1-.72-2.61,4.59,4.59,0,0,1,1.37-3.45,4.75,4.75,0,0,1,3.45-1.31A4.65,4.65,0,0,1,445.55,69.17Z"/><path class="cls-2" d="M463.13,42.34V77.09h-8V48.79h-6.95V42.34Z"/><path class="cls-2" d="M496.91,62.2A8.57,8.57,0,0,1,498.27,67a9.08,9.08,0,0,1-1.83,5.64,11.83,11.83,0,0,1-5.17,3.72,23.17,23.17,0,0,1-15.36,0,11.57,11.57,0,0,1-5.11-3.72A9.13,9.13,0,0,1,469,67a8.58,8.58,0,0,1,1.37-4.81,9.9,9.9,0,0,1,3.9-3.38,8.47,8.47,0,0,1-3-3,8.12,8.12,0,0,1-1-4.15,8.5,8.5,0,0,1,1.68-5.26A10.79,10.79,0,0,1,476.63,43a18.57,18.57,0,0,1,6.95-1.22,18.93,18.93,0,0,1,7,1.22,10.8,10.8,0,0,1,4.74,3.45A8.5,8.5,0,0,1,497,51.67a8.12,8.12,0,0,1-1,4.15,8.3,8.3,0,0,1-3,3A9.85,9.85,0,0,1,496.91,62.2Zm-8.54,8.21a4.36,4.36,0,0,0,1.76-3.65,4.29,4.29,0,0,0-1.76-3.62,7.74,7.74,0,0,0-4.79-1.34,7.56,7.56,0,0,0-4.72,1.34,4.34,4.34,0,0,0-1.73,3.62,4.42,4.42,0,0,0,1.73,3.68,9,9,0,0,0,9.51,0Zm-8.69-21.59a3.87,3.87,0,0,0-1.46,3.2,3.78,3.78,0,0,0,1.44,3.13,6.16,6.16,0,0,0,3.92,1.14,6.37,6.37,0,0,0,4-1.14A3.74,3.74,0,0,0,489,52a3.84,3.84,0,0,0-1.49-3.2,6.25,6.25,0,0,0-4-1.17A6.08,6.08,0,0,0,479.68,48.82Z"/><path class="cls-2" d="M524.71,58.32a9.73,9.73,0,0,1,3.5,7.85A10.88,10.88,0,0,1,526.62,72a11.06,11.06,0,0,1-4.84,4.17,18.47,18.47,0,0,1-8,1.56,27.54,27.54,0,0,1-7.22-1,18.65,18.65,0,0,1-6-2.76l3.18-6.15a15,15,0,0,0,4.56,2.3,17.34,17.34,0,0,0,5.32.82,8.28,8.28,0,0,0,4.76-1.19,3.8,3.8,0,0,0,1.74-3.32A3.76,3.76,0,0,0,518.26,63c-1.21-.76-3.31-1.14-6.28-1.14h-8.89l1.79-19.56h21.2v6.45h-14.5l-.55,6.6h2.83Q521.21,55.39,524.71,58.32Z"/><path d="M277.28,133.15a3.25,3.25,0,0,1,2.65-1.25q2.85,0,2.87,3.2V141h-1.53V135.1a2.1,2.1,0,0,0-.44-1.44,1.79,1.79,0,0,0-1.36-.46,2.19,2.19,0,0,0-1.31.4,2.63,2.63,0,0,0-.88,1V141h-1.53V128.3h1.53Z"/><path d="M290.64,141a3,3,0,0,1-.21-.94,3.45,3.45,0,0,1-2.56,1.11,3.19,3.19,0,0,1-2.18-.75,2.46,2.46,0,0,1-.85-1.9,2.54,2.54,0,0,1,1.07-2.18,5,5,0,0,1,3-.78h1.49v-.7a1.72,1.72,0,0,0-.48-1.28,1.92,1.92,0,0,0-1.42-.48,2.22,2.22,0,0,0-1.38.42,1.21,1.21,0,0,0-.55,1H285a2.16,2.16,0,0,1,.47-1.3,3.2,3.2,0,0,1,1.3-1,4.37,4.37,0,0,1,1.79-.36,3.51,3.51,0,0,1,2.43.77,2.78,2.78,0,0,1,.91,2.14v4.13a5,5,0,0,0,.32,2V141Zm-2.55-1.17a2.66,2.66,0,0,0,1.37-.37,2.25,2.25,0,0,0,.94-1v-1.84h-1.2q-2.82,0-2.82,1.65a1.4,1.4,0,0,0,.48,1.13A1.84,1.84,0,0,0,288.09,139.86Z"/><path d="M294,136.47a5.28,5.28,0,0,1,1-3.32A3.34,3.34,0,0,1,300,133V128.3h1.54V141h-1.41l-.08-1a3.13,3.13,0,0,1-2.56,1.13,3.06,3.06,0,0,1-2.54-1.28,5.27,5.27,0,0,1-1-3.33Zm1.53.18a4,4,0,0,0,.63,2.39,2,2,0,0,0,1.74.86,2.25,2.25,0,0,0,2.13-1.31v-4.12a2.24,2.24,0,0,0-2.11-1.27,2.05,2.05,0,0,0-1.76.87A4.38,4.38,0,0,0,295.5,136.65Z"/><path d="M313.66,141a3,3,0,0,1-.21-.94,3.45,3.45,0,0,1-2.56,1.11,3.19,3.19,0,0,1-2.18-.75,2.46,2.46,0,0,1-.85-1.9,2.54,2.54,0,0,1,1.07-2.18,5,5,0,0,1,3-.78h1.49v-.7a1.72,1.72,0,0,0-.48-1.28,1.92,1.92,0,0,0-1.42-.48,2.19,2.19,0,0,0-1.37.42,1.19,1.19,0,0,0-.56,1h-1.54a2.16,2.16,0,0,1,.47-1.3,3.2,3.2,0,0,1,1.3-1,4.37,4.37,0,0,1,1.79-.36,3.51,3.51,0,0,1,2.43.77,2.78,2.78,0,0,1,.91,2.14v4.13a5,5,0,0,0,.32,2V141Zm-2.55-1.17a2.66,2.66,0,0,0,1.37-.37,2.25,2.25,0,0,0,.94-1v-1.84h-1.2q-2.82,0-2.82,1.65a1.4,1.4,0,0,0,.48,1.13A1.84,1.84,0,0,0,311.11,139.86Z"/><path d="M321,140a2.21,2.21,0,0,0,1.43-.5,1.74,1.74,0,0,0,.68-1.24h1.45a2.66,2.66,0,0,1-.53,1.46,3.47,3.47,0,0,1-1.3,1.12,3.86,3.86,0,0,1-1.73.41A3.72,3.72,0,0,1,318,140a4.89,4.89,0,0,1-1.08-3.35v-.26a5.42,5.42,0,0,1,.48-2.33,3.67,3.67,0,0,1,1.38-1.58,3.89,3.89,0,0,1,2.13-.56,3.61,3.61,0,0,1,2.51.9,3.22,3.22,0,0,1,1.06,2.35h-1.45a2.07,2.07,0,0,0-.66-1.43,2,2,0,0,0-1.46-.56,2.15,2.15,0,0,0-1.81.84,3.93,3.93,0,0,0-.65,2.43v.29a3.91,3.91,0,0,0,.64,2.39A2.17,2.17,0,0,0,321,140Z"/><path d="M329.85,140a2.21,2.21,0,0,0,1.43-.5,1.74,1.74,0,0,0,.68-1.24h1.45a2.66,2.66,0,0,1-.53,1.46,3.47,3.47,0,0,1-1.3,1.12,3.86,3.86,0,0,1-1.73.41,3.72,3.72,0,0,1-2.92-1.22,4.89,4.89,0,0,1-1.08-3.35v-.26a5.42,5.42,0,0,1,.48-2.33,3.67,3.67,0,0,1,1.38-1.58,3.89,3.89,0,0,1,2.13-.56,3.61,3.61,0,0,1,2.51.9,3.18,3.18,0,0,1,1.06,2.35H332a2.07,2.07,0,0,0-.66-1.43,2,2,0,0,0-1.46-.56A2.15,2.15,0,0,0,328,134a3.93,3.93,0,0,0-.64,2.43v.29a3.91,3.91,0,0,0,.63,2.39A2.17,2.17,0,0,0,329.85,140Z"/><path d="M338.86,141.2a3.94,3.94,0,0,1-3-1.2,4.46,4.46,0,0,1-1.14-3.2v-.29a5.37,5.37,0,0,1,.51-2.38,3.88,3.88,0,0,1,1.43-1.64,3.53,3.53,0,0,1,2-.59,3.35,3.35,0,0,1,2.72,1.15,5,5,0,0,1,1,3.3V137h-6.08a3.2,3.2,0,0,0,.78,2.14A2.41,2.41,0,0,0,339,140a2.65,2.65,0,0,0,1.37-.33,3.61,3.61,0,0,0,1-.88l.94.73A3.79,3.79,0,0,1,338.86,141.2Zm-.19-8a2,2,0,0,0-1.56.67,3.28,3.28,0,0,0-.78,1.9h4.5v-.12a3,3,0,0,0-.63-1.81A1.94,1.94,0,0,0,338.67,133.16Z"/><path d="M349.36,138.65a1.13,1.13,0,0,0-.47-1,4.41,4.41,0,0,0-1.63-.59,7.86,7.86,0,0,1-1.85-.6,2.6,2.6,0,0,1-1-.83,2,2,0,0,1-.33-1.15,2.33,2.33,0,0,1,.93-1.86,3.64,3.64,0,0,1,2.39-.76,3.77,3.77,0,0,1,2.47.78,2.5,2.5,0,0,1,.95,2h-1.54a1.4,1.4,0,0,0-.54-1.09,2,2,0,0,0-1.34-.45,2.1,2.1,0,0,0-1.31.36,1.14,1.14,0,0,0-.48.95.93.93,0,0,0,.44.84,5.46,5.46,0,0,0,1.59.54,8.43,8.43,0,0,1,1.86.61,2.76,2.76,0,0,1,1.06.86,2.15,2.15,0,0,1,.35,1.23,2.29,2.29,0,0,1-1,1.92,4,4,0,0,1-2.49.73,4.58,4.58,0,0,1-1.91-.38,3.13,3.13,0,0,1-1.3-1.07,2.57,2.57,0,0,1-.47-1.48h1.54a1.59,1.59,0,0,0,.61,1.23,2.44,2.44,0,0,0,1.53.45,2.49,2.49,0,0,0,1.39-.35A1.08,1.08,0,0,0,349.36,138.65Z"/><path d="M358.12,138.65a1.13,1.13,0,0,0-.47-1,4.41,4.41,0,0,0-1.63-.59,7.86,7.86,0,0,1-1.85-.6,2.63,2.63,0,0,1-1-.83,2,2,0,0,1-.32-1.15,2.33,2.33,0,0,1,.93-1.86,3.63,3.63,0,0,1,2.38-.76,3.78,3.78,0,0,1,2.48.78,2.53,2.53,0,0,1,.95,2H358a1.4,1.4,0,0,0-.54-1.09,2,2,0,0,0-1.35-.45,2.14,2.14,0,0,0-1.31.36,1.15,1.15,0,0,0-.47.95.93.93,0,0,0,.44.84,5.24,5.24,0,0,0,1.59.54,8.8,8.8,0,0,1,1.86.61,2.76,2.76,0,0,1,1.06.86,2.14,2.14,0,0,1,.34,1.23,2.28,2.28,0,0,1-1,1.92,4,4,0,0,1-2.5.73,4.57,4.57,0,0,1-1.9-.38,3.07,3.07,0,0,1-1.3-1.07,2.57,2.57,0,0,1-.47-1.48h1.53a1.63,1.63,0,0,0,.62,1.23,2.41,2.41,0,0,0,1.52.45,2.52,2.52,0,0,0,1.4-.35A1.1,1.1,0,0,0,358.12,138.65Z"/><path d="M367.94,129.89v2.17h1.67v1.19h-1.67v5.57a1.24,1.24,0,0,0,.22.81.94.94,0,0,0,.76.27,4.25,4.25,0,0,0,.73-.1V141a4.84,4.84,0,0,1-1.17.16,1.94,1.94,0,0,1-1.56-.62,2.74,2.74,0,0,1-.52-1.77v-5.56h-1.63v-1.19h1.63v-2.17Z"/><path d="M370.83,136.46a5.28,5.28,0,0,1,.52-2.37,3.86,3.86,0,0,1,1.44-1.62,4,4,0,0,1,2.11-.57,3.82,3.82,0,0,1,3,1.26,4.93,4.93,0,0,1,1.13,3.38v.11a5.43,5.43,0,0,1-.5,2.35,3.84,3.84,0,0,1-3.58,2.2,3.77,3.77,0,0,1-3-1.27,4.86,4.86,0,0,1-1.13-3.36Zm1.54.19a3.77,3.77,0,0,0,.7,2.39,2.34,2.34,0,0,0,3.71,0,4.25,4.25,0,0,0,.68-2.57,3.81,3.81,0,0,0-.7-2.39,2.33,2.33,0,0,0-3.69,0A4.2,4.2,0,0,0,372.37,136.65Z"/><path d="M391.45,137h1.67v1.25h-1.67V141H389.9v-2.8h-5.49v-.9l5.4-8.37h1.64Zm-5.3,0h3.75v-5.92l-.18.33Z"/><path d="M394.61,143.44l-.87-.6a4.06,4.06,0,0,0,.82-2.24v-1.38h1.5v1.2a3.85,3.85,0,0,1-.41,1.68A4,4,0,0,1,394.61,143.44Z"/><path d="M403.72,135.73a3.68,3.68,0,0,1-1.15.92,3.12,3.12,0,0,1-1.46.35,3.22,3.22,0,0,1-1.82-.52,3.26,3.26,0,0,1-1.2-1.45,4.93,4.93,0,0,1-.42-2.06,5,5,0,0,1,.46-2.18,3.36,3.36,0,0,1,1.3-1.48,3.77,3.77,0,0,1,2-.52,3.38,3.38,0,0,1,2.82,1.34,5.85,5.85,0,0,1,1,3.66v.44q0,3.53-1.39,5.15a5.37,5.37,0,0,1-4.21,1.66h-.29v-1.3h.32a3.65,3.65,0,0,0,4-4Zm-2.36,0a2.36,2.36,0,0,0,1.42-.48,2.76,2.76,0,0,0,1-1.17v-.61a4.2,4.2,0,0,0-.66-2.45,2,2,0,0,0-3.28-.17,3.16,3.16,0,0,0-.61,2,3.33,3.33,0,0,0,.59,2A1.87,1.87,0,0,0,401.36,135.73Z"/><path d="M415,135.88a7,7,0,0,1-.92,4,3.83,3.83,0,0,1-5.74,0,6.66,6.66,0,0,1-1-3.83V134a6.8,6.8,0,0,1,.92-3.95,3.29,3.29,0,0,1,2.88-1.3A3.33,3.33,0,0,1,414,130a6.6,6.6,0,0,1,.95,3.85Zm-1.54-2.09a5.67,5.67,0,0,0-.54-2.84,1.9,1.9,0,0,0-1.74-.9,1.85,1.85,0,0,0-1.71.89,5.46,5.46,0,0,0-.56,2.73v2.45a5.68,5.68,0,0,0,.57,2.89,2.05,2.05,0,0,0,3.41.06,5.54,5.54,0,0,0,.57-2.77Z"/><path d="M422,141h-1.54V130.81L417.32,132v-1.4l4.39-1.65H422Z"/><path d="M426.56,143.44l-.87-.6a4,4,0,0,0,.81-2.24v-1.38H428v1.2a3.85,3.85,0,0,1-.41,1.68A4,4,0,0,1,426.56,143.44Z"/><path d="M435.66,135.73a3.68,3.68,0,0,1-1.15.92,3.12,3.12,0,0,1-1.46.35,3.19,3.19,0,0,1-3-2,4.93,4.93,0,0,1-.42-2.06,5,5,0,0,1,.46-2.18,3.38,3.38,0,0,1,1.31-1.48,3.73,3.73,0,0,1,2-.52,3.38,3.38,0,0,1,2.82,1.34,5.85,5.85,0,0,1,1,3.66v.44q0,3.53-1.4,5.15a5.36,5.36,0,0,1-4.2,1.66h-.3v-1.3h.32a3.65,3.65,0,0,0,4-4Zm-2.36,0a2.34,2.34,0,0,0,1.42-.48,2.69,2.69,0,0,0,.95-1.17v-.61A4.27,4.27,0,0,0,435,131a2,2,0,0,0-3.29-.17,3.16,3.16,0,0,0-.61,2,3.4,3.4,0,0,0,.59,2A1.9,1.9,0,0,0,433.3,135.73Z"/><path d="M445.8,137h1.67v1.25H445.8V141h-1.55v-2.8h-5.49v-.9l5.4-8.37h1.64Zm-5.3,0h3.75v-5.92l-.18.33Z"/><path d="M453.9,141h-1.54V130.81l-3.1,1.14v-1.4l4.4-1.65h.24Z"/><path d="M458.58,140.23a.92.92,0,0,1,.24-.66.89.89,0,0,1,.71-.27.94.94,0,0,1,.72.27.92.92,0,0,1,.24.66.91.91,0,0,1-.24.64,1,1,0,0,1-.72.26.92.92,0,0,1-.71-.26A.91.91,0,0,1,458.58,140.23Z"/><path d="M468.88,129v1.3h-.28a4.06,4.06,0,0,0-2.85,1.07,4.39,4.39,0,0,0-1.23,2.89,3.28,3.28,0,0,1,2.6-1.1,3.14,3.14,0,0,1,2.52,1.12,4.26,4.26,0,0,1,.94,2.87,4.3,4.3,0,0,1-1,3,3.5,3.5,0,0,1-2.73,1.12,3.44,3.44,0,0,1-2.81-1.33,5.27,5.27,0,0,1-1.08-3.43v-.59a7.91,7.91,0,0,1,1.43-5.09,5.19,5.19,0,0,1,4.23-1.81Zm-2,5.44a2.46,2.46,0,0,0-1.45.47,2.42,2.42,0,0,0-.92,1.19v.56a4,4,0,0,0,.67,2.41,2,2,0,0,0,1.67.91,1.94,1.94,0,0,0,1.63-.76,3.62,3.62,0,0,0,0-4A1.92,1.92,0,0,0,466.87,134.39Z"/><path d="M478.88,137h1.67v1.25h-1.67V141h-1.55v-2.8h-5.49v-.9l5.4-8.37h1.64Zm-5.3,0h3.75v-5.92l-.18.33Z"/><path d="M487.83,133.15a3.26,3.26,0,0,1,2.66-1.25q2.83,0,2.87,3.2V141h-1.54V135.1a2.05,2.05,0,0,0-.44-1.44,1.78,1.78,0,0,0-1.36-.46,2.19,2.19,0,0,0-1.31.4,2.71,2.71,0,0,0-.88,1V141H486.3V128.3h1.53Z"/><path d="M501.19,141a3,3,0,0,1-.21-.94,3.45,3.45,0,0,1-2.56,1.11,3.19,3.19,0,0,1-2.18-.75,2.45,2.45,0,0,1-.84-1.9,2.54,2.54,0,0,1,1.06-2.18,5,5,0,0,1,3-.78H501v-.7a1.72,1.72,0,0,0-.48-1.28,1.92,1.92,0,0,0-1.42-.48,2.19,2.19,0,0,0-1.37.42,1.19,1.19,0,0,0-.56,1h-1.54a2.16,2.16,0,0,1,.47-1.3,3.2,3.2,0,0,1,1.3-1,4.37,4.37,0,0,1,1.79-.36,3.51,3.51,0,0,1,2.43.77,2.78,2.78,0,0,1,.91,2.14v4.13a5,5,0,0,0,.32,2V141Zm-2.54-1.17a2.65,2.65,0,0,0,1.36-.37,2.25,2.25,0,0,0,.94-1v-1.84h-1.2q-2.82,0-2.82,1.65a1.4,1.4,0,0,0,.48,1.13A1.85,1.85,0,0,0,498.65,139.86Z"/><path d="M508.69,136.46a5.28,5.28,0,0,1,.52-2.37,3.79,3.79,0,0,1,1.44-1.62,4,4,0,0,1,2.11-.57,3.78,3.78,0,0,1,3,1.26,4.89,4.89,0,0,1,1.14,3.38v.11a5.3,5.3,0,0,1-.51,2.35,3.82,3.82,0,0,1-1.43,1.62,4,4,0,0,1-2.14.58,3.76,3.76,0,0,1-3-1.27,4.86,4.86,0,0,1-1.13-3.36Zm1.54.19a3.83,3.83,0,0,0,.69,2.39,2.34,2.34,0,0,0,3.71,0,4.18,4.18,0,0,0,.69-2.57,3.81,3.81,0,0,0-.7-2.39,2.23,2.23,0,0,0-1.86-.91,2.19,2.19,0,0,0-1.83.9A4.14,4.14,0,0,0,510.23,136.65Z"/><path d="M519.54,141v-7.78h-1.42v-1.19h1.42v-.92a3,3,0,0,1,.77-2.23,2.89,2.89,0,0,1,2.18-.79,4.21,4.21,0,0,1,1,.14l-.08,1.24a4.41,4.41,0,0,0-.83-.08,1.49,1.49,0,0,0-1.15.44,1.73,1.73,0,0,0-.41,1.25v.95H523v1.19h-1.91V141Z"/><path d="M530.55,141H529V128.3h1.54Z"/><path d="M538.54,141a3,3,0,0,1-.21-.94,3.45,3.45,0,0,1-2.56,1.11,3.15,3.15,0,0,1-2.17-.75,2.42,2.42,0,0,1-.85-1.9,2.54,2.54,0,0,1,1.06-2.18,5,5,0,0,1,3-.78h1.49v-.7a1.72,1.72,0,0,0-.48-1.28,1.92,1.92,0,0,0-1.42-.48,2.21,2.21,0,0,0-1.37.42,1.19,1.19,0,0,0-.56,1h-1.54a2.16,2.16,0,0,1,.47-1.3,3.2,3.2,0,0,1,1.3-1,4.37,4.37,0,0,1,1.79-.36,3.51,3.51,0,0,1,2.43.77,2.83,2.83,0,0,1,.92,2.14v4.13a5,5,0,0,0,.31,2V141ZM536,139.86a2.65,2.65,0,0,0,1.36-.37,2.19,2.19,0,0,0,.94-1v-1.84h-1.2q-2.82,0-2.82,1.65a1.4,1.4,0,0,0,.48,1.13A1.85,1.85,0,0,0,536,139.86Z"/><path d="M543.69,132.06l0,1.13a3.28,3.28,0,0,1,2.69-1.29q2.84,0,2.87,3.2V141h-1.54V135.1a2.05,2.05,0,0,0-.44-1.44,1.78,1.78,0,0,0-1.36-.46,2.21,2.21,0,0,0-1.31.4,2.71,2.71,0,0,0-.88,1V141h-1.53v-9Z"/><path d="M551.24,136.47a5.22,5.22,0,0,1,1-3.32,3.07,3.07,0,0,1,2.56-1.25,3.12,3.12,0,0,1,2.49,1.07V128.3h1.54V141H557.4l-.08-1a3.11,3.11,0,0,1-2.56,1.13,3.07,3.07,0,0,1-2.54-1.28,5.34,5.34,0,0,1-1-3.33Zm1.53.18a4,4,0,0,0,.63,2.39,2,2,0,0,0,1.74.86,2.23,2.23,0,0,0,2.13-1.31v-4.12a2.24,2.24,0,0,0-2.11-1.27,2.05,2.05,0,0,0-1.76.87A4.38,4.38,0,0,0,552.77,136.65Z"/><path d="M270,160.33a2.21,2.21,0,0,0,1.43-.5,1.74,1.74,0,0,0,.68-1.24h1.45a2.66,2.66,0,0,1-.53,1.46,3.47,3.47,0,0,1-1.3,1.12,3.86,3.86,0,0,1-1.73.41,3.74,3.74,0,0,1-2.92-1.22A4.89,4.89,0,0,1,266,157v-.26a5.42,5.42,0,0,1,.48-2.33,3.67,3.67,0,0,1,1.38-1.58,3.89,3.89,0,0,1,2.13-.56,3.61,3.61,0,0,1,2.51.9,3.18,3.18,0,0,1,1.06,2.35h-1.45a2.07,2.07,0,0,0-.66-1.43,2,2,0,0,0-1.46-.56,2.15,2.15,0,0,0-1.81.84,3.93,3.93,0,0,0-.64,2.43v.29a3.91,3.91,0,0,0,.63,2.39A2.17,2.17,0,0,0,270,160.33Z"/><path d="M274.89,156.84a5.42,5.42,0,0,1,.52-2.37,3.8,3.8,0,0,1,3.55-2.19,3.8,3.8,0,0,1,3,1.26,4.93,4.93,0,0,1,1.13,3.38V157a5.43,5.43,0,0,1-.5,2.35,3.78,3.78,0,0,1-1.44,1.62,3.92,3.92,0,0,1-2.14.58,3.79,3.79,0,0,1-3-1.27,4.86,4.86,0,0,1-1.13-3.36Zm1.55.19a3.83,3.83,0,0,0,.69,2.39,2.34,2.34,0,0,0,3.71,0,4.18,4.18,0,0,0,.69-2.57,3.88,3.88,0,0,0-.7-2.39,2.34,2.34,0,0,0-3.7,0A4.2,4.2,0,0,0,276.44,157Z"/><path d="M287.82,159.33l2.22-6.89h1.57l-3.22,9h-1.17l-3.25-9h1.57Z"/><path d="M296.7,161.58a3.94,3.94,0,0,1-3-1.2,4.46,4.46,0,0,1-1.14-3.2v-.29a5.37,5.37,0,0,1,.51-2.38,3.88,3.88,0,0,1,1.43-1.64,3.53,3.53,0,0,1,2-.59,3.35,3.35,0,0,1,2.72,1.15,5,5,0,0,1,1,3.3v.64h-6.08a3.2,3.2,0,0,0,.78,2.14,2.41,2.41,0,0,0,1.89.82,2.65,2.65,0,0,0,1.37-.33,3.45,3.45,0,0,0,1-.88l.94.73A3.79,3.79,0,0,1,296.7,161.58Zm-.19-8a2,2,0,0,0-1.56.67,3.28,3.28,0,0,0-.78,1.9h4.5V156a3,3,0,0,0-.63-1.81A1.94,1.94,0,0,0,296.51,153.54Z"/><path d="M306.31,153.82a4.38,4.38,0,0,0-.75-.06,2,2,0,0,0-2.05,1.29v6.36H302v-9h1.49l0,1a2.4,2.4,0,0,1,2.14-1.2,1.52,1.52,0,0,1,.68.11Z"/><path d="M311.29,161.58a3.91,3.91,0,0,1-3-1.2,4.46,4.46,0,0,1-1.14-3.2v-.29a5.37,5.37,0,0,1,.51-2.38,3.93,3.93,0,0,1,1.42-1.64,3.56,3.56,0,0,1,2-.59,3.35,3.35,0,0,1,2.72,1.15,5,5,0,0,1,1,3.3v.64h-6.08a3.15,3.15,0,0,0,.78,2.14,2.41,2.41,0,0,0,1.88.82,2.71,2.71,0,0,0,1.38-.33,3.73,3.73,0,0,0,1-.88l.93.73A3.77,3.77,0,0,1,311.29,161.58Zm-.19-8a2,2,0,0,0-1.56.67,3.28,3.28,0,0,0-.78,1.9h4.49V156a2.87,2.87,0,0,0-.63-1.81A1.9,1.9,0,0,0,311.1,153.54Z"/><path d="M316.19,156.85a5.29,5.29,0,0,1,1-3.32,3.08,3.08,0,0,1,2.56-1.25,3.15,3.15,0,0,1,2.5,1.07v-4.67h1.53v12.73h-1.41l-.07-1a3.14,3.14,0,0,1-2.56,1.13,3.09,3.09,0,0,1-2.55-1.28,5.34,5.34,0,0,1-1-3.33Zm1.54.18a4,4,0,0,0,.63,2.39,2,2,0,0,0,1.74.86,2.25,2.25,0,0,0,2.13-1.31v-4.12a2.26,2.26,0,0,0-2.12-1.27,2,2,0,0,0-1.75.87A4.38,4.38,0,0,0,317.73,157Z"/><path d="M335.89,160.53a3.28,3.28,0,0,1-2.63,1.05,2.81,2.81,0,0,1-2.19-.83,3.65,3.65,0,0,1-.76-2.47v-5.84h1.54v5.8c0,1.36.55,2,1.66,2a2.28,2.28,0,0,0,2.33-1.31v-6.53h1.54v9h-1.46Z"/><path d="M341.16,152.44l0,1.13a3.28,3.28,0,0,1,2.69-1.29q2.84,0,2.87,3.21v5.92h-1.54v-5.93a2.05,2.05,0,0,0-.44-1.44,1.78,1.78,0,0,0-1.36-.46,2.19,2.19,0,0,0-1.31.4,2.71,2.71,0,0,0-.88,1v6.39h-1.53v-9Z"/><path d="M348.71,156.85a5.22,5.22,0,0,1,1-3.32,3.07,3.07,0,0,1,2.56-1.25,3.12,3.12,0,0,1,2.49,1.07v-4.67h1.54v12.73h-1.41l-.08-1a3.11,3.11,0,0,1-2.56,1.13,3.06,3.06,0,0,1-2.54-1.28,5.27,5.27,0,0,1-1-3.33Zm1.53.18a4,4,0,0,0,.63,2.39,2,2,0,0,0,1.74.86,2.23,2.23,0,0,0,2.13-1.31v-4.12a2.24,2.24,0,0,0-2.11-1.27,2.05,2.05,0,0,0-1.76.87A4.38,4.38,0,0,0,350.24,157Z"/><path d="M362.38,161.58a3.93,3.93,0,0,1-3-1.2,4.46,4.46,0,0,1-1.14-3.2v-.29a5.37,5.37,0,0,1,.51-2.38,3.93,3.93,0,0,1,1.42-1.64,3.59,3.59,0,0,1,2-.59,3.35,3.35,0,0,1,2.72,1.15,5,5,0,0,1,1,3.3v.64H359.8a3.15,3.15,0,0,0,.78,2.14,2.41,2.41,0,0,0,1.88.82,2.69,2.69,0,0,0,1.38-.33,3.45,3.45,0,0,0,1-.88l.93.73A3.77,3.77,0,0,1,362.38,161.58Zm-.19-8a2,2,0,0,0-1.56.67,3.28,3.28,0,0,0-.78,1.9h4.5V156a3,3,0,0,0-.63-1.81A1.94,1.94,0,0,0,362.19,153.54Z"/><path d="M372,153.82a4.38,4.38,0,0,0-.75-.06,2,2,0,0,0-2.05,1.29v6.36h-1.54v-9h1.5l0,1a2.4,2.4,0,0,1,2.14-1.2,1.52,1.52,0,0,1,.68.11Z"/><path d="M383.15,161.41a2.92,2.92,0,0,1-.22-.94,3.43,3.43,0,0,1-2.55,1.11,3.17,3.17,0,0,1-2.18-.75,2.41,2.41,0,0,1-.85-1.9,2.54,2.54,0,0,1,1.06-2.18,5,5,0,0,1,3-.78h1.49v-.7a1.72,1.72,0,0,0-.48-1.28,1.91,1.91,0,0,0-1.41-.48,2.22,2.22,0,0,0-1.38.42,1.22,1.22,0,0,0-.56,1h-1.54a2.12,2.12,0,0,1,.48-1.3,3.23,3.23,0,0,1,1.29-1,4.42,4.42,0,0,1,1.8-.36,3.54,3.54,0,0,1,2.43.77,2.82,2.82,0,0,1,.91,2.14v4.13a5,5,0,0,0,.31,2v.13Zm-2.55-1.16a2.7,2.7,0,0,0,1.37-.38,2.22,2.22,0,0,0,.93-1v-1.84h-1.2q-2.82,0-2.82,1.65a1.4,1.4,0,0,0,.48,1.13A1.87,1.87,0,0,0,380.6,160.25Z"/><path d="M393.35,149.34l3.94,9.85,3.95-9.85h2.07v12.07h-1.6v-4.7l.15-5.07-4,9.77h-1.22l-4-9.75.16,5.05v4.7h-1.59V149.34Z"/><path d="M405.88,150.06a.92.92,0,0,1,.23-.63.87.87,0,0,1,.68-.26.88.88,0,0,1,.68.26.92.92,0,0,1,.23.63.83.83,0,0,1-.91.87.86.86,0,0,1-.68-.25A.88.88,0,0,1,405.88,150.06Zm1.66,11.35H406v-9h1.53Z"/><path d="M411.45,152.44l.05,1.13a3.27,3.27,0,0,1,2.69-1.29c1.89,0,2.85,1.07,2.86,3.21v5.92h-1.53v-5.93a2.05,2.05,0,0,0-.44-1.44,1.79,1.79,0,0,0-1.36-.46,2.19,2.19,0,0,0-1.31.4,2.63,2.63,0,0,0-.88,1v6.39H410v-9Z"/><path d="M419.38,150.06a.88.88,0,0,1,.23-.63.84.84,0,0,1,.67-.26.87.87,0,0,1,.68.26.88.88,0,0,1,.23.63.84.84,0,0,1-.23.62.86.86,0,0,1-.68.25.83.83,0,0,1-.9-.87ZM421,161.41H419.5v-9H421Z"/><path d="M428.71,159a1.12,1.12,0,0,0-.46-1,4.47,4.47,0,0,0-1.64-.59,8.19,8.19,0,0,1-1.85-.6,2.67,2.67,0,0,1-1-.83,2,2,0,0,1-.33-1.15,2.31,2.31,0,0,1,.94-1.86,3.61,3.61,0,0,1,2.38-.76,3.8,3.8,0,0,1,2.48.78,2.53,2.53,0,0,1,.95,2h-1.55a1.42,1.42,0,0,0-.53-1.09,2,2,0,0,0-1.35-.45,2.12,2.12,0,0,0-1.31.36,1.13,1.13,0,0,0-.47.95.91.91,0,0,0,.44.84,5.26,5.26,0,0,0,1.58.54,8.72,8.72,0,0,1,1.87.61,2.8,2.8,0,0,1,1,.86,2.15,2.15,0,0,1,.35,1.23,2.28,2.28,0,0,1-1,1.92,4,4,0,0,1-2.5.73,4.62,4.62,0,0,1-1.91-.38,3.2,3.2,0,0,1-1.3-1.07,2.56,2.56,0,0,1-.46-1.48h1.53a1.6,1.6,0,0,0,.62,1.23,2.39,2.39,0,0,0,1.52.45,2.52,2.52,0,0,0,1.4-.35A1.09,1.09,0,0,0,428.71,159Z"/><path d="M434.33,150.27v2.17H436v1.19h-1.67v5.57a1.24,1.24,0,0,0,.22.81,1,1,0,0,0,.77.27,3.44,3.44,0,0,0,.72-.1v1.24a4.39,4.39,0,0,1-1.17.16,1.91,1.91,0,0,1-1.55-.62,2.69,2.69,0,0,1-.53-1.77v-5.56h-1.63v-1.19h1.63v-2.17Z"/><path d="M442.13,153.82a4.38,4.38,0,0,0-.75-.06,2,2,0,0,0-2.05,1.29v6.36h-1.54v-9h1.5l0,1a2.4,2.4,0,0,1,2.14-1.2,1.52,1.52,0,0,1,.68.11Z"/><path d="M446.63,159.17l2.09-6.73h1.64l-3.61,10.36c-.56,1.49-1.44,2.24-2.66,2.24l-.29,0-.57-.1v-1.25l.41,0a2.06,2.06,0,0,0,1.22-.31,2.21,2.21,0,0,0,.71-1.15l.34-.92-3.2-8.87h1.68Z"/><path d="M455.52,156.84a5.42,5.42,0,0,1,.52-2.37,3.88,3.88,0,0,1,1.45-1.62,3.92,3.92,0,0,1,2.11-.57,3.78,3.78,0,0,1,3,1.26,4.88,4.88,0,0,1,1.13,3.38V157a5.29,5.29,0,0,1-.5,2.35,3.82,3.82,0,0,1-1.43,1.62,4,4,0,0,1-2.15.58,3.75,3.75,0,0,1-2.95-1.27,4.82,4.82,0,0,1-1.14-3.36Zm1.55.19a3.83,3.83,0,0,0,.69,2.39,2.34,2.34,0,0,0,3.71,0,4.18,4.18,0,0,0,.69-2.57,3.81,3.81,0,0,0-.7-2.39,2.34,2.34,0,0,0-3.7,0A4.2,4.2,0,0,0,457.07,157Z"/><path d="M466.37,161.41v-7.78H465v-1.19h1.42v-.92a3.08,3.08,0,0,1,.77-2.23,2.94,2.94,0,0,1,2.18-.79,4.23,4.23,0,0,1,1.06.14l-.09,1.24a4.33,4.33,0,0,0-.83-.08,1.51,1.51,0,0,0-1.15.44,1.77,1.77,0,0,0-.4,1.25v.95h1.91v1.19h-1.91v7.78Z"/><path d="M482.78,155.83h-5.23v4.28h6.08v1.3H476V149.34h7.59v1.3h-6v3.89h5.23Z"/><path d="M486.82,152.44l.05,1.13a3.28,3.28,0,0,1,2.69-1.29q2.83,0,2.87,3.21v5.92h-1.54v-5.93a2.05,2.05,0,0,0-.44-1.44,1.78,1.78,0,0,0-1.36-.46,2.21,2.21,0,0,0-1.31.4,2.71,2.71,0,0,0-.88,1v6.39h-1.53v-9Z"/><path d="M497.7,159.33l2.22-6.89h1.57l-3.22,9H497.1l-3.25-9h1.57Z"/><path d="M503,150.06a.91.91,0,0,1,.22-.63,1,1,0,0,1,1.36,0,.92.92,0,0,1,.23.63.91.91,0,1,1-1.81,0Zm1.65,11.35H503.1v-9h1.53Z"/><path d="M511.43,153.82a4.59,4.59,0,0,0-.76-.06,2,2,0,0,0-2.05,1.29v6.36h-1.53v-9h1.49l0,1a2.38,2.38,0,0,1,2.14-1.2,1.58,1.58,0,0,1,.68.11Z"/><path d="M512.26,156.84a5.42,5.42,0,0,1,.52-2.37,3.8,3.8,0,0,1,3.55-2.19,3.8,3.8,0,0,1,3,1.26,4.93,4.93,0,0,1,1.13,3.38V157a5.43,5.43,0,0,1-.5,2.35,3.78,3.78,0,0,1-1.44,1.62,3.92,3.92,0,0,1-2.14.58,3.75,3.75,0,0,1-3-1.27,4.82,4.82,0,0,1-1.14-3.36Zm1.55.19a3.83,3.83,0,0,0,.69,2.39,2.34,2.34,0,0,0,3.71,0,4.18,4.18,0,0,0,.69-2.57,3.88,3.88,0,0,0-.7-2.39,2.34,2.34,0,0,0-3.7,0A4.2,4.2,0,0,0,513.81,157Z"/><path d="M523.81,152.44l.05,1.13a3.26,3.26,0,0,1,2.68-1.29q2.85,0,2.87,3.21v5.92h-1.53v-5.93a2.1,2.1,0,0,0-.45-1.44,1.77,1.77,0,0,0-1.35-.46,2.17,2.17,0,0,0-1.31.4,2.63,2.63,0,0,0-.88,1v6.39h-1.53v-9Z"/><path d="M533.17,152.44l0,1a3.3,3.3,0,0,1,2.66-1.16,2.58,2.58,0,0,1,2.57,1.44,3.36,3.36,0,0,1,1.16-1.05,3.5,3.5,0,0,1,1.7-.39q2.94,0,3,3.12v6h-1.54v-5.92a2,2,0,0,0-.44-1.44,2,2,0,0,0-1.47-.47,2,2,0,0,0-1.42.51,2.1,2.1,0,0,0-.66,1.37v5.95h-1.54v-5.88a1.71,1.71,0,0,0-1.91-1.95,2.06,2.06,0,0,0-2.07,1.28v6.55h-1.53v-9Z"/><path d="M550.34,161.58a3.91,3.91,0,0,1-3-1.2,4.42,4.42,0,0,1-1.15-3.2v-.29a5.37,5.37,0,0,1,.51-2.38,4,4,0,0,1,1.43-1.64,3.53,3.53,0,0,1,2-.59,3.34,3.34,0,0,1,2.72,1.15,5,5,0,0,1,1,3.3v.64h-6.07a3.19,3.19,0,0,0,.77,2.14,2.43,2.43,0,0,0,1.89.82,2.65,2.65,0,0,0,1.37-.33,3.45,3.45,0,0,0,1-.88l.94.73A3.77,3.77,0,0,1,550.34,161.58Zm-.2-8a2,2,0,0,0-1.55.67,3.28,3.28,0,0,0-.78,1.9h4.49V156a2.87,2.87,0,0,0-.63-1.81A1.92,1.92,0,0,0,550.14,153.54Z"/><path d="M557.06,152.44l.05,1.13a3.28,3.28,0,0,1,2.69-1.29q2.84,0,2.87,3.21v5.92h-1.54v-5.93a2.05,2.05,0,0,0-.44-1.44,1.78,1.78,0,0,0-1.36-.46,2.19,2.19,0,0,0-1.31.4,2.71,2.71,0,0,0-.88,1v6.39h-1.53v-9Z"/><path d="M567.06,150.27v2.17h1.68v1.19h-1.68v5.57a1.24,1.24,0,0,0,.23.81.92.92,0,0,0,.76.27,3.44,3.44,0,0,0,.73-.1v1.24a4.52,4.52,0,0,1-1.18.16,1.92,1.92,0,0,1-1.55-.62,2.69,2.69,0,0,1-.52-1.77v-5.56h-1.64v-1.19h1.64v-2.17Z"/><path d="M314.41,181.79a3,3,0,0,1-.21-.94,3.45,3.45,0,0,1-2.56,1.11,3.19,3.19,0,0,1-2.18-.75,2.44,2.44,0,0,1-.85-1.9,2.54,2.54,0,0,1,1.07-2.18,5,5,0,0,1,3-.78h1.49v-.7a1.72,1.72,0,0,0-.48-1.28,1.92,1.92,0,0,0-1.42-.48,2.19,2.19,0,0,0-1.37.42,1.19,1.19,0,0,0-.56,1H308.8a2.16,2.16,0,0,1,.47-1.3,3.2,3.2,0,0,1,1.3-1,4.37,4.37,0,0,1,1.79-.36,3.51,3.51,0,0,1,2.43.77,2.78,2.78,0,0,1,.91,2.14v4.13a5,5,0,0,0,.32,2v.13Zm-2.55-1.16a2.67,2.67,0,0,0,1.37-.38,2.25,2.25,0,0,0,.94-1v-1.84H313q-2.82,0-2.82,1.65a1.4,1.4,0,0,0,.48,1.13A1.84,1.84,0,0,0,311.86,180.63Z"/><path d="M319.56,172.82l.05,1.13a3.28,3.28,0,0,1,2.69-1.29q2.83,0,2.87,3.21v5.92h-1.54v-5.93a2.05,2.05,0,0,0-.44-1.44,1.78,1.78,0,0,0-1.36-.46,2.21,2.21,0,0,0-1.31.4,2.71,2.71,0,0,0-.88,1v6.39h-1.53v-9Z"/><path d="M327.11,177.23a5.22,5.22,0,0,1,1-3.32,3.07,3.07,0,0,1,2.56-1.25,3.12,3.12,0,0,1,2.49,1.07v-4.67h1.54v12.73h-1.41l-.08-1a3.11,3.11,0,0,1-2.56,1.13,3.06,3.06,0,0,1-2.54-1.28,5.27,5.27,0,0,1-1-3.33Zm1.53.18a4,4,0,0,0,.63,2.39,2,2,0,0,0,1.74.86,2.23,2.23,0,0,0,2.13-1.31v-4.12A2.24,2.24,0,0,0,331,174a2.05,2.05,0,0,0-1.76.87A4.38,4.38,0,0,0,328.64,177.41Z"/><path d="M348.16,176.46H343.1v5.33h-1.6V169.72H349V171H343.1v4.14h5.06Z"/><path d="M350.07,177.23a5.3,5.3,0,0,1,.52-2.38,3.79,3.79,0,0,1,1.44-1.62,4,4,0,0,1,2.11-.57,3.82,3.82,0,0,1,3,1.26,4.93,4.93,0,0,1,1.13,3.38v.11a5.43,5.43,0,0,1-.5,2.35,3.84,3.84,0,0,1-3.58,2.2,3.77,3.77,0,0,1-3-1.27,4.86,4.86,0,0,1-1.13-3.36Zm1.54.18a3.83,3.83,0,0,0,.69,2.39,2.35,2.35,0,0,0,3.72,0,4.24,4.24,0,0,0,.68-2.56,3.82,3.82,0,0,0-.7-2.4,2.33,2.33,0,0,0-3.69,0A4.14,4.14,0,0,0,351.61,177.41Z"/><path d="M364.5,174.2a4.42,4.42,0,0,0-.76-.06,2,2,0,0,0-2,1.29v6.36h-1.54v-9h1.49l0,1a2.39,2.39,0,0,1,2.14-1.2,1.55,1.55,0,0,1,.68.11Z"/><path d="M369.48,182a3.91,3.91,0,0,1-3-1.2,4.42,4.42,0,0,1-1.15-3.2v-.29a5.37,5.37,0,0,1,.51-2.38,4,4,0,0,1,1.43-1.64,3.53,3.53,0,0,1,2-.59,3.34,3.34,0,0,1,2.72,1.15,5,5,0,0,1,1,3.3v.64H366.9a3.19,3.19,0,0,0,.77,2.14,2.43,2.43,0,0,0,1.89.82,2.65,2.65,0,0,0,1.37-.33,3.45,3.45,0,0,0,1-.88l.94.73A3.77,3.77,0,0,1,369.48,182Zm-.2-8a2,2,0,0,0-1.55.67,3.28,3.28,0,0,0-.78,1.9h4.49v-.12a2.87,2.87,0,0,0-.63-1.81A1.92,1.92,0,0,0,369.28,173.92Z"/><path d="M380,179.41a1.11,1.11,0,0,0-.47-1,4.34,4.34,0,0,0-1.63-.59,8,8,0,0,1-1.85-.6,2.67,2.67,0,0,1-1-.83,2,2,0,0,1-.33-1.15,2.33,2.33,0,0,1,.93-1.86,3.66,3.66,0,0,1,2.39-.76,3.75,3.75,0,0,1,2.47.78,2.5,2.5,0,0,1,.95,2h-1.54a1.42,1.42,0,0,0-.53-1.09,2,2,0,0,0-1.35-.45,2.1,2.1,0,0,0-1.31.36,1.13,1.13,0,0,0-.47.95.91.91,0,0,0,.44.84,5.26,5.26,0,0,0,1.58.54,8.16,8.16,0,0,1,1.87.62,2.69,2.69,0,0,1,1.05.85,2.15,2.15,0,0,1,.35,1.23,2.28,2.28,0,0,1-1,1.92,4,4,0,0,1-2.5.73,4.58,4.58,0,0,1-1.91-.38,3.2,3.2,0,0,1-1.3-1.07,2.56,2.56,0,0,1-.46-1.48h1.53a1.6,1.6,0,0,0,.62,1.23,2.39,2.39,0,0,0,1.52.45,2.52,2.52,0,0,0,1.4-.35A1.09,1.09,0,0,0,380,179.41Z"/><path d="M385.59,170.65v2.17h1.67V174h-1.67v5.57a1.24,1.24,0,0,0,.22.81.94.94,0,0,0,.76.27,3.44,3.44,0,0,0,.73-.1v1.24a4.39,4.39,0,0,1-1.17.16,1.94,1.94,0,0,1-1.56-.62,2.74,2.74,0,0,1-.52-1.77V174h-1.63v-1.19h1.63v-2.17Z"/><path d="M393.39,174.2a4.38,4.38,0,0,0-.75-.06,2,2,0,0,0-2.05,1.29v6.36h-1.54v-9h1.5l0,1a2.39,2.39,0,0,1,2.14-1.2,1.55,1.55,0,0,1,.68.11Z"/><path d="M397.89,179.55l2.09-6.73h1.64L398,183.18c-.56,1.49-1.45,2.24-2.66,2.24l-.29,0-.58-.1V184l.42,0a2,2,0,0,0,1.21-.31,2.28,2.28,0,0,0,.72-1.15l.34-.92-3.2-8.87h1.68Z"/><path d="M406.18,177.29h-4.05V176h4.05Z"/><path d="M409.34,181.79H407.8V169.06h1.54Z"/><path d="M415.52,182a3.91,3.91,0,0,1-3-1.2,4.42,4.42,0,0,1-1.15-3.2v-.29a5.37,5.37,0,0,1,.51-2.38,4,4,0,0,1,1.43-1.64,3.53,3.53,0,0,1,2-.59,3.37,3.37,0,0,1,2.73,1.15,5,5,0,0,1,1,3.3v.64h-6.08a3.19,3.19,0,0,0,.77,2.14,2.44,2.44,0,0,0,1.89.82,2.71,2.71,0,0,0,1.38-.33,3.55,3.55,0,0,0,1-.88l.94.73A3.77,3.77,0,0,1,415.52,182Zm-.2-8a2,2,0,0,0-1.55.67,3.28,3.28,0,0,0-.78,1.9h4.49v-.12a2.87,2.87,0,0,0-.63-1.81A1.91,1.91,0,0,0,415.32,173.92Z"/><path d="M420.42,177.23a5.22,5.22,0,0,1,1-3.32,3.07,3.07,0,0,1,2.56-1.25,3.12,3.12,0,0,1,2.49,1.07v-4.67H428v12.73h-1.41l-.08-1a3.11,3.11,0,0,1-2.56,1.13,3.06,3.06,0,0,1-2.54-1.28,5.27,5.27,0,0,1-1-3.33Zm1.53.18a4,4,0,0,0,.63,2.39,2,2,0,0,0,1.74.86,2.23,2.23,0,0,0,2.13-1.31v-4.12a2.24,2.24,0,0,0-2.11-1.27,2.05,2.05,0,0,0-1.76.87A4.38,4.38,0,0,0,422,177.41Z"/><path d="M439.8,179.41a1.13,1.13,0,0,0-.47-1,4.4,4.4,0,0,0-1.64-.59,8.19,8.19,0,0,1-1.85-.6,2.67,2.67,0,0,1-1-.83,2,2,0,0,1-.32-1.15,2.33,2.33,0,0,1,.93-1.86,3.63,3.63,0,0,1,2.38-.76,3.8,3.8,0,0,1,2.48.78,2.53,2.53,0,0,1,.95,2H439.7a1.38,1.38,0,0,0-.53-1.09,2,2,0,0,0-1.35-.45,2.12,2.12,0,0,0-1.31.36,1.15,1.15,0,0,0-.47.95.93.93,0,0,0,.44.84,5.24,5.24,0,0,0,1.59.54,8.23,8.23,0,0,1,1.86.62,2.73,2.73,0,0,1,1.06.85,2.14,2.14,0,0,1,.34,1.23,2.28,2.28,0,0,1-1,1.92,4,4,0,0,1-2.5.73,4.62,4.62,0,0,1-1.91-.38,3.1,3.1,0,0,1-1.29-1.07,2.57,2.57,0,0,1-.47-1.48h1.53a1.63,1.63,0,0,0,.62,1.23,2.39,2.39,0,0,0,1.52.45,2.52,2.52,0,0,0,1.4-.35A1.1,1.1,0,0,0,439.8,179.41Z"/><path d="M442.92,177.23a5.43,5.43,0,0,1,.52-2.38,3.8,3.8,0,0,1,3.55-2.19,3.8,3.8,0,0,1,3,1.26,4.93,4.93,0,0,1,1.13,3.38v.11a5.43,5.43,0,0,1-.5,2.35,3.78,3.78,0,0,1-1.44,1.62A3.92,3.92,0,0,1,447,182a3.75,3.75,0,0,1-2.95-1.27,4.82,4.82,0,0,1-1.14-3.36Zm1.55.18a3.83,3.83,0,0,0,.69,2.39,2.34,2.34,0,0,0,3.71,0,4.17,4.17,0,0,0,.69-2.56,3.89,3.89,0,0,0-.7-2.4,2.34,2.34,0,0,0-3.7,0A4.2,4.2,0,0,0,444.47,177.41Z"/><path d="M456.61,180.71a2.23,2.23,0,0,0,1.44-.5,1.77,1.77,0,0,0,.68-1.24h1.45a2.74,2.74,0,0,1-.53,1.46,3.5,3.5,0,0,1-1.31,1.12,3.83,3.83,0,0,1-1.73.41,3.7,3.7,0,0,1-2.91-1.22,4.89,4.89,0,0,1-1.08-3.35v-.26a5.42,5.42,0,0,1,.48-2.33,3.67,3.67,0,0,1,1.38-1.58,3.89,3.89,0,0,1,2.13-.56,3.59,3.59,0,0,1,2.5.9,3.19,3.19,0,0,1,1.07,2.35h-1.45a2.16,2.16,0,0,0-.66-1.43,2,2,0,0,0-1.46-.56,2.17,2.17,0,0,0-1.82.84,4,4,0,0,0-.64,2.43v.29a3.84,3.84,0,0,0,.64,2.39A2.15,2.15,0,0,0,456.61,180.71Z"/><path d="M461.91,170.44a.92.92,0,0,1,.23-.63.87.87,0,0,1,.68-.26.88.88,0,0,1,.68.26.92.92,0,0,1,.23.63.83.83,0,0,1-.91.87.86.86,0,0,1-.68-.25A.88.88,0,0,1,461.91,170.44Zm1.66,11.35H462v-9h1.53Z"/><path d="M471.57,181.79a3.22,3.22,0,0,1-.22-.94A3.41,3.41,0,0,1,468.8,182a3.17,3.17,0,0,1-2.18-.75,2.41,2.41,0,0,1-.85-1.9,2.52,2.52,0,0,1,1.07-2.18,5,5,0,0,1,3-.78h1.5v-.7a1.72,1.72,0,0,0-.48-1.28,2,2,0,0,0-1.42-.48,2.22,2.22,0,0,0-1.38.42,1.22,1.22,0,0,0-.56,1H466a2.12,2.12,0,0,1,.48-1.3,3.23,3.23,0,0,1,1.29-1,4.45,4.45,0,0,1,1.8-.36,3.54,3.54,0,0,1,2.43.77,2.82,2.82,0,0,1,.91,2.14v4.13a4.83,4.83,0,0,0,.32,2v.13ZM469,180.63a2.7,2.7,0,0,0,1.37-.38,2.3,2.3,0,0,0,.94-1v-1.84h-1.21q-2.82,0-2.82,1.65a1.4,1.4,0,0,0,.48,1.13A1.89,1.89,0,0,0,469,180.63Z"/><path d="M476.93,181.79H475.4V169.06h1.53Z"/><path d="M484.35,181.79V174h-1.42v-1.19h1.42v-.92a3,3,0,0,1,.77-2.23,2.93,2.93,0,0,1,2.18-.79,4.21,4.21,0,0,1,1.05.14l-.08,1.24a4.41,4.41,0,0,0-.83-.08,1.49,1.49,0,0,0-1.15.44,1.73,1.73,0,0,0-.41,1.25v.95h1.91V174h-1.91v7.78Z"/><path d="M489.08,177.23a5.3,5.3,0,0,1,.52-2.38,3.86,3.86,0,0,1,1.44-1.62,4,4,0,0,1,2.11-.57,3.82,3.82,0,0,1,3,1.26,4.93,4.93,0,0,1,1.13,3.38v.11a5.43,5.43,0,0,1-.5,2.35,3.84,3.84,0,0,1-3.58,2.2,3.77,3.77,0,0,1-3-1.27,4.86,4.86,0,0,1-1.13-3.36Zm1.54.18a3.77,3.77,0,0,0,.7,2.39,2.34,2.34,0,0,0,3.71,0,4.24,4.24,0,0,0,.68-2.56,3.82,3.82,0,0,0-.7-2.4,2.33,2.33,0,0,0-3.69,0A4.2,4.2,0,0,0,490.62,177.41Z"/><path d="M503.51,174.2a4.42,4.42,0,0,0-.76-.06,2,2,0,0,0-2,1.29v6.36h-1.54v-9h1.49l0,1a2.39,2.39,0,0,1,2.14-1.2,1.55,1.55,0,0,1,.68.11Z"/><path d="M508.48,182a3.9,3.9,0,0,1-3-1.2,4.42,4.42,0,0,1-1.15-3.2v-.29a5.37,5.37,0,0,1,.51-2.38,4,4,0,0,1,1.43-1.64,3.53,3.53,0,0,1,2-.59,3.34,3.34,0,0,1,2.72,1.15,5,5,0,0,1,1,3.3v.64h-6.07a3.19,3.19,0,0,0,.77,2.14,2.43,2.43,0,0,0,1.89.82,2.65,2.65,0,0,0,1.37-.33,3.45,3.45,0,0,0,1-.88l.94.73A3.78,3.78,0,0,1,508.48,182Zm-.19-8a2,2,0,0,0-1.56.67,3.34,3.34,0,0,0-.77,1.9h4.49v-.12a2.87,2.87,0,0,0-.63-1.81A1.92,1.92,0,0,0,508.29,173.92Z"/><path d="M519,179.41a1.12,1.12,0,0,0-.46-1,4.47,4.47,0,0,0-1.64-.59,8.19,8.19,0,0,1-1.85-.6,2.67,2.67,0,0,1-1-.83,2,2,0,0,1-.33-1.15,2.31,2.31,0,0,1,.94-1.86,3.61,3.61,0,0,1,2.38-.76,3.75,3.75,0,0,1,2.47.78,2.51,2.51,0,0,1,1,2h-1.55a1.42,1.42,0,0,0-.53-1.09,2,2,0,0,0-1.35-.45,2.12,2.12,0,0,0-1.31.36,1.13,1.13,0,0,0-.47.95.91.91,0,0,0,.44.84,5.26,5.26,0,0,0,1.58.54,8.16,8.16,0,0,1,1.87.62,2.69,2.69,0,0,1,1,.85,2.15,2.15,0,0,1,.35,1.23,2.28,2.28,0,0,1-1,1.92,4,4,0,0,1-2.5.73,4.58,4.58,0,0,1-1.91-.38,3.2,3.2,0,0,1-1.3-1.07,2.56,2.56,0,0,1-.46-1.48h1.53a1.6,1.6,0,0,0,.62,1.23,2.39,2.39,0,0,0,1.52.45,2.52,2.52,0,0,0,1.4-.35A1.09,1.09,0,0,0,519,179.41Z"/><path d="M524.6,170.65v2.17h1.67V174H524.6v5.57a1.24,1.24,0,0,0,.22.81,1,1,0,0,0,.76.27,3.44,3.44,0,0,0,.73-.1v1.24a4.39,4.39,0,0,1-1.17.16,1.91,1.91,0,0,1-1.55-.62,2.69,2.69,0,0,1-.53-1.77V174h-1.63v-1.19h1.63v-2.17Z"/><path d="M306.1,193.2l0,1a3.31,3.31,0,0,1,2.67-1.16,2.57,2.57,0,0,1,2.56,1.44,3.28,3.28,0,0,1,2.86-1.44q3,0,3,3.12v6H315.7v-5.92a2.08,2.08,0,0,0-.44-1.44,2,2,0,0,0-1.48-.47,2,2,0,0,0-1.42.51,2.09,2.09,0,0,0-.65,1.37v5.95h-1.54v-5.88a1.71,1.71,0,0,0-1.92-1.95,2,2,0,0,0-2.06,1.28v6.55h-1.54v-9Z"/><path d="M325.08,202.17a3.29,3.29,0,0,1-.21-.94,3.43,3.43,0,0,1-2.55,1.11,3.16,3.16,0,0,1-2.18-.75,2.41,2.41,0,0,1-.85-1.9,2.54,2.54,0,0,1,1.06-2.18,5,5,0,0,1,3-.78h1.49V196a1.72,1.72,0,0,0-.48-1.28,1.92,1.92,0,0,0-1.42-.48,2.21,2.21,0,0,0-1.37.42,1.22,1.22,0,0,0-.56,1h-1.54a2.12,2.12,0,0,1,.48-1.3,3.23,3.23,0,0,1,1.29-1A4.42,4.42,0,0,1,323,193a3.54,3.54,0,0,1,2.43.77,2.82,2.82,0,0,1,.91,2.14v4.13a5,5,0,0,0,.31,2v.13ZM322.54,201a2.7,2.7,0,0,0,1.37-.38,2.22,2.22,0,0,0,.93-1v-1.84h-1.2q-2.82,0-2.82,1.65a1.4,1.4,0,0,0,.48,1.13A1.87,1.87,0,0,0,322.54,201Z"/><path d="M330.23,193.2l0,1.13A3.28,3.28,0,0,1,333,193c1.9,0,2.85,1.07,2.87,3.21v5.92h-1.53v-5.93a2.1,2.1,0,0,0-.45-1.44,1.77,1.77,0,0,0-1.35-.46,2.17,2.17,0,0,0-1.31.4,2.63,2.63,0,0,0-.88,1v6.39h-1.54v-9Z"/><path d="M343.69,202.17a3.29,3.29,0,0,1-.21-.94,3.45,3.45,0,0,1-2.56,1.11,3.15,3.15,0,0,1-2.17-.75,2.41,2.41,0,0,1-.85-1.9,2.54,2.54,0,0,1,1.06-2.18,5,5,0,0,1,3-.78h1.49V196a1.72,1.72,0,0,0-.48-1.28,1.92,1.92,0,0,0-1.42-.48,2.21,2.21,0,0,0-1.37.42,1.22,1.22,0,0,0-.56,1h-1.54a2.12,2.12,0,0,1,.48-1.3,3.17,3.17,0,0,1,1.29-1,4.38,4.38,0,0,1,1.8-.36,3.5,3.5,0,0,1,2.42.77A2.83,2.83,0,0,1,345,196v4.13a5,5,0,0,0,.31,2v.13ZM341.15,201a2.72,2.72,0,0,0,1.37-.38,2.22,2.22,0,0,0,.93-1v-1.84h-1.2q-2.82,0-2.82,1.65a1.4,1.4,0,0,0,.48,1.13A1.85,1.85,0,0,0,341.15,201Z"/><path d="M347,197.61a5.22,5.22,0,0,1,1-3.33,3.34,3.34,0,0,1,5.13-.08l.08-1h1.4V202a3.64,3.64,0,0,1-1,2.74,3.79,3.79,0,0,1-2.77,1,4.56,4.56,0,0,1-1.9-.42,3.24,3.24,0,0,1-1.42-1.13l.8-.92a3,3,0,0,0,2.41,1.22,2.19,2.19,0,0,0,2.37-2.41v-.77a3.14,3.14,0,0,1-2.51,1.06,3.06,3.06,0,0,1-2.55-1.27A5.54,5.54,0,0,1,347,197.61Zm1.54.18a4.05,4.05,0,0,0,.62,2.38,2,2,0,0,0,1.74.87,2.24,2.24,0,0,0,2.13-1.32v-4.1a2.27,2.27,0,0,0-2.11-1.28,2,2,0,0,0-1.75.87A4.38,4.38,0,0,0,348.57,197.79Z"/><path d="M360.64,202.34a3.9,3.9,0,0,1-3-1.2,4.42,4.42,0,0,1-1.15-3.2v-.28a5.38,5.38,0,0,1,.51-2.39,4,4,0,0,1,1.43-1.64,3.53,3.53,0,0,1,2-.59,3.34,3.34,0,0,1,2.72,1.15,5,5,0,0,1,1,3.3v.64h-6.07a3.19,3.19,0,0,0,.77,2.14,2.41,2.41,0,0,0,1.89.82,2.65,2.65,0,0,0,1.37-.33,3.45,3.45,0,0,0,1-.88l.94.73A3.79,3.79,0,0,1,360.64,202.34Zm-.19-8a2,2,0,0,0-1.56.67,3.28,3.28,0,0,0-.78,1.9h4.5v-.12a2.87,2.87,0,0,0-.63-1.81A1.94,1.94,0,0,0,360.45,194.3Z"/><path d="M367.36,193.2l0,1a3.3,3.3,0,0,1,2.66-1.16,2.58,2.58,0,0,1,2.57,1.44,3.36,3.36,0,0,1,1.16-1,3.5,3.5,0,0,1,1.7-.39q3,0,3,3.12v6H377v-5.92a2.08,2.08,0,0,0-.43-1.44,2,2,0,0,0-1.48-.47,2,2,0,0,0-1.42.51,2.09,2.09,0,0,0-.65,1.37v5.95h-1.55v-5.88a1.71,1.71,0,0,0-1.91-1.95,2.06,2.06,0,0,0-2.07,1.28v6.55h-1.53v-9Z"/><path d="M384.53,202.34a3.91,3.91,0,0,1-3-1.2,4.42,4.42,0,0,1-1.15-3.2v-.28a5.38,5.38,0,0,1,.51-2.39,4,4,0,0,1,1.43-1.64,3.54,3.54,0,0,1,2-.59,3.37,3.37,0,0,1,2.72,1.15,5,5,0,0,1,1,3.3v.64H382a3.19,3.19,0,0,0,.77,2.14,2.44,2.44,0,0,0,1.89.82,2.71,2.71,0,0,0,1.38-.33,3.55,3.55,0,0,0,1-.88l.94.73A3.77,3.77,0,0,1,384.53,202.34Zm-.19-8a2,2,0,0,0-1.56.67,3.28,3.28,0,0,0-.78,1.9h4.49v-.12a2.87,2.87,0,0,0-.63-1.81A1.9,1.9,0,0,0,384.34,194.3Z"/><path d="M391.25,193.2l.05,1.13A3.28,3.28,0,0,1,394,193q2.83,0,2.87,3.21v5.92h-1.54v-5.93a2.05,2.05,0,0,0-.44-1.44,1.78,1.78,0,0,0-1.36-.46,2.21,2.21,0,0,0-1.31.4,2.71,2.71,0,0,0-.88,1v6.39H389.8v-9Z"/><path d="M401.25,191v2.17h1.68v1.19h-1.68V200a1.24,1.24,0,0,0,.23.81.94.94,0,0,0,.76.27,3.44,3.44,0,0,0,.73-.1v1.24a4.46,4.46,0,0,1-1.18.16,1.93,1.93,0,0,1-1.55-.62,2.67,2.67,0,0,1-.52-1.77v-5.56h-1.64V193.2h1.64V191Z"/><path d="M408.93,190.82a.92.92,0,0,1,.23-.63.87.87,0,0,1,.68-.26.9.9,0,0,1,.68.26.92.92,0,0,1,.23.63.88.88,0,0,1-.23.62.89.89,0,0,1-.68.25.86.86,0,0,1-.68-.25A.88.88,0,0,1,408.93,190.82Zm1.66,11.35h-1.53v-9h1.53Z"/><path d="M414.5,193.2l.05,1.13a3.26,3.26,0,0,1,2.68-1.29q2.85,0,2.87,3.21v5.92h-1.53v-5.93a2.1,2.1,0,0,0-.45-1.44,1.77,1.77,0,0,0-1.35-.46,2.17,2.17,0,0,0-1.31.4,2.63,2.63,0,0,0-.88,1v6.39h-1.53v-9Z"/><path d="M422.42,190.82a.92.92,0,0,1,.23-.63.87.87,0,0,1,.68-.26.88.88,0,0,1,.68.26.92.92,0,0,1,.23.63.83.83,0,0,1-.91.87.86.86,0,0,1-.68-.25A.88.88,0,0,1,422.42,190.82Zm1.66,11.35h-1.53v-9h1.53Z"/><path d="M428.62,191v2.17h1.67v1.19h-1.67V200a1.24,1.24,0,0,0,.22.81,1,1,0,0,0,.77.27,3.52,3.52,0,0,0,.73-.1v1.24a4.52,4.52,0,0,1-1.18.16,1.92,1.92,0,0,1-1.55-.62,2.67,2.67,0,0,1-.53-1.77v-5.56h-1.63V193.2h1.63V191Z"/><path d="M432.09,190.82a.92.92,0,0,1,.23-.63.87.87,0,0,1,.68-.26.88.88,0,0,1,.68.26.92.92,0,0,1,.23.63.83.83,0,0,1-.91.87.86.86,0,0,1-.68-.25A.88.88,0,0,1,432.09,190.82Zm1.66,11.35h-1.53v-9h1.53Z"/><path d="M441.75,202.17a3.22,3.22,0,0,1-.22-.94,3.41,3.41,0,0,1-2.55,1.11,3.17,3.17,0,0,1-2.18-.75,2.41,2.41,0,0,1-.85-1.9,2.52,2.52,0,0,1,1.07-2.18,5,5,0,0,1,3-.78h1.5V196a1.69,1.69,0,0,0-.49-1.28,1.91,1.91,0,0,0-1.41-.48,2.22,2.22,0,0,0-1.38.42,1.22,1.22,0,0,0-.56,1h-1.54a2.12,2.12,0,0,1,.48-1.3,3.23,3.23,0,0,1,1.29-1,4.45,4.45,0,0,1,1.8-.36,3.54,3.54,0,0,1,2.43.77A2.82,2.82,0,0,1,443,196v4.13a4.83,4.83,0,0,0,.32,2v.13ZM439.2,201a2.7,2.7,0,0,0,1.37-.38,2.3,2.3,0,0,0,.94-1v-1.84H440.3q-2.82,0-2.82,1.65a1.4,1.4,0,0,0,.48,1.13A1.87,1.87,0,0,0,439.2,201Z"/><path d="M447.53,191v2.17h1.67v1.19h-1.67V200a1.24,1.24,0,0,0,.22.81.94.94,0,0,0,.76.27,3.44,3.44,0,0,0,.73-.1v1.24a4.39,4.39,0,0,1-1.17.16,1.94,1.94,0,0,1-1.56-.62A2.73,2.73,0,0,1,446,200v-5.56h-1.63V193.2H446V191Z"/><path d="M451,190.82a.92.92,0,0,1,.23-.63,1,1,0,0,1,1.35,0,.88.88,0,0,1,.24.63.84.84,0,0,1-.24.62.86.86,0,0,1-.68.25.85.85,0,0,1-.67-.25A.88.88,0,0,1,451,190.82Zm1.66,11.35h-1.53v-9h1.53Z"/><path d="M458.07,200.09l2.23-6.89h1.56l-3.21,9h-1.17l-3.25-9h1.56Z"/><path d="M467,202.34a3.91,3.91,0,0,1-3-1.2,4.42,4.42,0,0,1-1.15-3.2v-.28a5.38,5.38,0,0,1,.51-2.39,4,4,0,0,1,1.43-1.64,3.54,3.54,0,0,1,2-.59,3.37,3.37,0,0,1,2.72,1.15,5,5,0,0,1,1,3.3v.64h-6.08a3.19,3.19,0,0,0,.77,2.14,2.44,2.44,0,0,0,1.89.82,2.71,2.71,0,0,0,1.38-.33,3.55,3.55,0,0,0,1-.88l.94.73A3.77,3.77,0,0,1,467,202.34Zm-.19-8a2,2,0,0,0-1.56.67,3.28,3.28,0,0,0-.78,1.9h4.49v-.12a2.87,2.87,0,0,0-.63-1.81A1.9,1.9,0,0,0,466.77,194.3Z"/><path d="M476.44,190.82a.92.92,0,0,1,.23-.63.87.87,0,0,1,.68-.26.88.88,0,0,1,.68.26.92.92,0,0,1,.23.63.83.83,0,0,1-.91.87.86.86,0,0,1-.68-.25A.88.88,0,0,1,476.44,190.82Zm1.66,11.35h-1.53v-9h1.53Z"/><path d="M482,193.2l.05,1.13a3.26,3.26,0,0,1,2.68-1.29q2.85,0,2.87,3.21v5.92h-1.53v-5.93a2.1,2.1,0,0,0-.44-1.44,1.79,1.79,0,0,0-1.36-.46,2.19,2.19,0,0,0-1.31.4,2.63,2.63,0,0,0-.88,1v6.39h-1.53v-9Z"/><path d="M501.89,202.17H494v-1.1l4.18-4.64a9.89,9.89,0,0,0,1.28-1.71,2.83,2.83,0,0,0,.36-1.37,2.13,2.13,0,0,0-.58-1.55,2,2,0,0,0-1.52-.6,2.35,2.35,0,0,0-1.78.65,2.48,2.48,0,0,0-.63,1.81h-1.54a3.57,3.57,0,0,1,1.08-2.7,4,4,0,0,1,2.87-1,3.82,3.82,0,0,1,2.66.89,3,3,0,0,1,1,2.35q0,1.79-2.27,4.24l-3.24,3.51h6.07Z"/><path d="M511.08,197a7,7,0,0,1-.92,4,3.83,3.83,0,0,1-5.74,0,6.63,6.63,0,0,1-1-3.83v-2a6.87,6.87,0,0,1,.92-4,3.89,3.89,0,0,1,5.76,0,6.68,6.68,0,0,1,.94,3.85Zm-1.53-2.09a5.66,5.66,0,0,0-.55-2.84,2.12,2.12,0,0,0-3.45,0,5.57,5.57,0,0,0-.56,2.73v2.46a5.73,5.73,0,0,0,.57,2.89,1.88,1.88,0,0,0,1.72.93,1.85,1.85,0,0,0,1.69-.88,5.52,5.52,0,0,0,.58-2.77Z"/><path d="M521,202.17h-7.91v-1.1l4.18-4.64a10.45,10.45,0,0,0,1.28-1.71,2.94,2.94,0,0,0,.35-1.37,2.16,2.16,0,0,0-.57-1.55,2,2,0,0,0-1.53-.6,2.36,2.36,0,0,0-1.78.65,2.48,2.48,0,0,0-.63,1.81h-1.53a3.56,3.56,0,0,1,1.07-2.7,4,4,0,0,1,2.87-1,3.82,3.82,0,0,1,2.66.89,3,3,0,0,1,1,2.35c0,1.19-.75,2.6-2.27,4.24l-3.23,3.51H521Z"/><path d="M527.62,202.17h-1.54V192L523,193.09v-1.4l4.39-1.65h.24Z"/><rect class="cls-2" x="44.75" y="44.06" width="161.88" height="161.88" transform="translate(125.57 -52.26) rotate(45.12)"/><g class="cls-3"><path class="cls-4" d="M125.47,227.82l-102.61-103,103-102.61,102.61,103ZM26,124.79l99.44,99.85,99.85-99.43L125.89,25.36Zm99.46,90L91.25,180.37l26.3-26.19L92.16,128.69l-18.09,18,11.9,12,5-4.94-7-7,8.19-8.15,15.53,15.59L86.32,175.42,56.38,145.36,76.93,124.9,56.47,104.35,86.53,74.42l21.26,21.34L92.2,111.29,84,103.1l7-7-4.93-4.95-12,11.9,18,18.09,25.49-25.39L91.48,69.49l34.39-34.25,34.25,34.39-26.3,26.19,25.39,25.49,18.09-18-11.9-12-5,4.94,7,7-8.19,8.16L143.7,95.84l21.35-21.26L195,104.64,174.45,125.1l20.45,20.55-30.06,29.93-21.26-21.34,15.59-15.53,8.16,8.19-7,7,4.93,4.95,12-11.9-18-18.09L133.7,154.22l26.19,26.29ZM94.43,180.38l31.08,31.2,31.2-31.07-26.19-26.3,28.68-28.56,21.19,21.28L165.25,162l-8.1-8.14,7-7-5-5-12.41,12.35,18.09,18.17,26.88-26.77-20.46-20.55,20.54-20.45L165,77.76,146.88,95.84l12.36,12.41,5-5-7-7,8.14-8.1,15.07,15.13L159.2,124.49,130.64,95.81l26.3-26.19-31.07-31.2L94.66,69.49l26.19,26.3L92.17,124.35,71,103.07,86.12,88l8.1,8.14-7,7,5,5,12.4-12.35L86.53,77.59,59.65,104.36,80.1,124.91,59.56,145.36l26.77,26.88,18.16-18.08L92.14,141.75l-5,5,7,7L86,161.83,70.9,146.7l21.27-21.19,28.56,28.68Zm105.43-39.67-15.53-15.59,15.59-15.52,15.53,15.59Zm-12.35-15.58,12.35,12.41,12.41-12.36-12.36-12.41ZM51.45,140.4,35.93,124.81l15.59-15.52L67,124.88ZM39.1,124.82l12.36,12.41,12.41-12.36L51.51,112.46Z"/><path class="cls-4" d="M125.52,204.16,101.5,180l24.12-24,24,24.12ZM104.67,180,125.53,201l20.94-20.85-20.85-20.94Z"/><path class="cls-4" d="M125.75,93.32l-24-24.12,24.12-24,24,24.13ZM104.9,69.21l20.86,20.94L146.7,69.29,125.85,48.35Z"/></g><path class="cls-4" d="M111.12,89.76a9.2,9.2,0,1,1,9.2-9.21A9.22,9.22,0,0,1,111.12,89.76Zm0-16.44a7.24,7.24,0,1,0,7.24,7.23A7.24,7.24,0,0,0,111.12,73.32Z"/><path class="cls-4" d="M167.46,121.7a5.19,5.19,0,1,1,.44,0h-.44Zm0-8.6h-.27a3.32,3.32,0,1,0,.54,6.62h0a3.32,3.32,0,0,0,3-3.58A3.34,3.34,0,0,0,167.47,113.1Z"/><path class="cls-4" d="M137.66,157.74l-6.44-.27.87-21.08h-6.82l4.23-26.46a67.24,67.24,0,0,0-3.5,9.13l-.6,2.17-2.28-.6-3.05.76-.45-1.85-.41-.1.19-.74-2.94-11.84v21.48H115l1.2,28.89-6.45.27-1.21-29.16h-2.89l-1.22,29.4L98,157.47l1.21-29.13H98V106.61l-3.2,14.2-1.58,4.49a8.34,8.34,0,0,1-5.59,5.22l2.7,16.88H88.22l.41,10-5.7.23v.15l-6.45-.27.42-10.07H74.72l.88-5.55-4-1,2.51-10a7.51,7.51,0,0,1,4.54-5.51,5.27,5.27,0,1,1,8.92-3.8,5.65,5.65,0,0,1,0,.71l1.38-3.93,3.94-18a14.68,14.68,0,0,1,28.59-.41l2,7.89c.33-.71.66-1.41,1-2.08C129,96.46,134.5,92,140.58,92.53c13.66.14,20.86,22.41,21.63,25l.38,1.06c.56,1.31.92,2.22,5.41,2.12,5-.08,8.4,2.44,9.35,6.81l2.77,10.95L173.87,140l-.34-1.35v.59l.73,17.67-6.44.27-.42-10-.42,10-6.44-.27.87-21v-9.76A9.09,9.09,0,0,1,156.6,121l-2.45-7a53.91,53.91,0,0,0-3.52-6.84l4.68,29.25h-6.74l.86,20.84-6.44.27-.88-21.11h-3.56Zm-4.4-2.15,2.53.11.88-21.27H144l.88,21,2.52-.1-.87-20.92H153l-5.54-34.64,2.29,2.75A44.63,44.63,0,0,1,156,113.27l2.4,6.83a7.05,7.05,0,0,0,4.34,4.41l.66.23v13.15h-.08L162.58,155l2.53.1.63-15.2h3.32l.63,15.2,2.53-.1-.65-15.76V123.21a9.72,9.72,0,0,0-3.54-.59c-5.34.1-6.39-1.32-7.27-3.37l-.4-1.15c-.75-2.45-7.53-23.49-19.88-23.61-5.25-.47-10.1,3.63-14.38,12.14-.72,1.44-1.43,3-2.09,4.63l-1.13,2.79-3.4-13.63a12.72,12.72,0,0,0-24.77.34l-4,18.12-1.65,4.72c-.74,1.73-1.55,2.91-5.4,3l-2.41.09a5.72,5.72,0,0,0-5.3,4.65l-2,8.08,3.88,1L77,145.44h1.93l-.42,10.15,2.53.11.43-10.26h2.16l.42,10.14,2.53-.1-.42-10h1.89L85.44,129l.92-.19a6.48,6.48,0,0,0,5.06-4.24l1.77-5,.21-1,3.78-17.24a10.11,10.11,0,0,1,1-2.59L100,95.28v31.1h1.24L100,155.59l2.53.11,1.22-29.32h6.65l1.21,29.07,2.53-.1-1.21-29h1.56V95.17l1.87,4A11.07,11.07,0,0,1,117,101l4.47,18,1.64-.4.88.23.1-.34a62.62,62.62,0,0,1,6.42-14.56l2.53-3.94-5.5,34.43h6.57Zm38.39-32.35,3.64,14.38,2.45-.62-2.29-9.08A6.2,6.2,0,0,0,171.65,123.24Zm-89.4-5a3.31,3.31,0,0,0-.85,6.52l1,.26,1-.34a3.31,3.31,0,0,0-1.09-6.44Z"/><path class="cls-4" d="M135.47,92.67a9.2,9.2,0,1,1,9.2-9.2A9.21,9.21,0,0,1,135.47,92.67Zm0-16.44a7.24,7.24,0,1,0,7.24,7.24A7.25,7.25,0,0,0,135.47,76.23Z"/></svg>