<svg width="654" height="250" viewBox="0 0 654 250" fill="none" xmlns="http://www.w3.org/2000/svg">
<path d="M13.0901 125.18L126.63 238.72H527.38L640.91 125.18L527.38 11.64H126.63L13.0901 125.18Z" stroke="#CF9D2B" stroke-width="2.6" stroke-miterlimit="10"/>
<path d="M321.05 88.71V101.45H318.11V96.23H312.32V101.45H309.37V88.71H312.32V93.71H318.11V88.71H321.05Z" fill="#CF9D2B"/>
<path d="M333.94 99.08V101.45H324.08V88.71H333.7V91.07H327V93.84H332.91V96.13H327V99.13L333.94 99.08Z" fill="#CF9D2B"/>
<path d="M344.67 98.72H338.76L337.63 101.45H334.63L340.31 88.71H343.22L348.92 101.45H345.82L344.67 98.72ZM343.75 96.48L341.75 91.6L339.75 96.48H343.75Z" fill="#CF9D2B"/>
<path d="M350.23 88.71H353.17V99.05H359.56V101.45H350.23V88.71Z" fill="#CF9D2B"/>
<path d="M362.67 91.11H358.6V88.71H369.7V91.11H365.62V101.45H362.67V91.11Z" fill="#CF9D2B"/>
<path d="M383 88.71V101.45H380V96.23H374.21V101.45H371.21V88.71H374.21V93.71H380V88.71H383Z" fill="#CF9D2B"/>
<path d="M392.4 101.26C391.588 101.044 390.822 100.682 390.14 100.19L391.14 97.97C391.73 98.404 392.385 98.7416 393.08 98.97C393.81 99.2055 394.573 99.327 395.34 99.33C395.982 99.3751 396.624 99.2474 397.2 98.96C397.382 98.8636 397.533 98.7196 397.639 98.5434C397.745 98.3672 397.8 98.1655 397.8 97.96C397.803 97.8141 397.772 97.6694 397.71 97.5375C397.647 97.4056 397.555 97.29 397.44 97.2C397.172 96.9812 396.862 96.8181 396.53 96.72C396.16 96.6 395.66 96.46 395.03 96.32C394.224 96.1375 393.429 95.9071 392.65 95.63C392.034 95.4025 391.486 95.0203 391.06 94.52C390.602 93.9564 390.364 93.2458 390.39 92.52C390.384 91.8082 390.594 91.1112 390.99 90.52C391.43 89.8455 392.06 89.3165 392.8 89C393.753 88.6189 394.774 88.4384 395.8 88.47C396.602 88.4703 397.401 88.5677 398.18 88.76C398.886 88.9344 399.561 89.2178 400.18 89.6L399.27 91.84C398.202 91.2019 396.984 90.8569 395.74 90.84C395.104 90.7944 394.469 90.9333 393.91 91.24C393.736 91.3446 393.592 91.4907 393.489 91.6653C393.386 91.8399 393.328 92.0374 393.32 92.24C393.309 92.4581 393.369 92.6739 393.492 92.8545C393.615 93.035 393.793 93.1704 394 93.24C394.674 93.518 395.374 93.7257 396.09 93.86C396.898 94.0406 397.693 94.2744 398.47 94.56C399.083 94.7838 399.63 95.1587 400.06 95.65C400.527 96.209 400.766 96.9229 400.73 97.65C400.733 98.3629 400.52 99.06 400.12 99.65C399.659 100.292 399.024 100.788 398.29 101.08C397.337 101.461 396.316 101.641 395.29 101.61C394.315 101.627 393.343 101.51 392.4 101.26V101.26Z" fill="#CF9D2B"/>
<path d="M412.61 99.08V101.45H402.75V88.71H412.37V91.07H405.68V93.84H411.59V96.13H405.68V99.13L412.61 99.08Z" fill="#CF9D2B"/>
<path d="M423.07 101.45L420.62 97.9H417.9V101.45H415V88.71H420.51C421.518 88.6878 422.52 88.8786 423.45 89.27C424.239 89.6057 424.905 90.1747 425.361 90.9004C425.817 91.6261 426.04 92.4739 426 93.33C426.032 94.1861 425.797 95.031 425.328 95.7477C424.858 96.4644 424.178 97.0174 423.38 97.33L426.24 101.43L423.07 101.45ZM422.33 91.68C421.748 91.2669 421.042 91.0657 420.33 91.11H417.9V95.55H420.31C421.024 95.5964 421.732 95.3912 422.31 94.97C422.528 94.7551 422.701 94.499 422.819 94.2166C422.937 93.9342 422.998 93.6311 422.998 93.325C422.998 93.0189 422.937 92.7158 422.819 92.4334C422.701 92.151 422.528 91.8949 422.31 91.68H422.33Z" fill="#CF9D2B"/>
<path d="M440.58 88.71L435.07 101.45H432.16L426.66 88.71H429.84L433.72 97.81L437.65 88.71H440.58Z" fill="#CF9D2B"/>
<path d="M441.64 88.71H444.58V101.45H441.64V88.71Z" fill="#CF9D2B"/>
<path d="M450.18 100.82C449.155 100.277 448.298 99.4642 447.7 98.47C447.11 97.4358 446.8 96.2657 446.8 95.075C446.8 93.8843 447.11 92.7142 447.7 91.68C448.295 90.6862 449.153 89.8764 450.18 89.34C451.269 88.7622 452.487 88.4698 453.72 88.49C454.749 88.4771 455.77 88.6745 456.72 89.07C457.602 89.442 458.383 90.0178 459 90.75L457.11 92.49C456.722 92.0179 456.233 91.6389 455.68 91.381C455.126 91.1231 454.521 90.9929 453.91 91C453.171 90.9903 452.441 91.1693 451.79 91.52C451.165 91.8615 450.652 92.3752 450.31 93C449.968 93.6509 449.79 94.3749 449.79 95.11C449.79 95.8451 449.968 96.5691 450.31 97.22C450.645 97.8283 451.144 98.3306 451.75 98.67C452.401 99.0207 453.131 99.1997 453.87 99.19C454.484 99.1994 455.093 99.0672 455.648 98.8036C456.202 98.54 456.689 98.1521 457.07 97.67L459 99.39C458.393 100.129 457.618 100.711 456.74 101.09C455.789 101.483 454.769 101.681 453.74 101.67C452.501 101.691 451.276 101.399 450.18 100.82V100.82Z" fill="#CF9D2B"/>
<path d="M470.81 99.08V101.45H460.94V88.71H470.57V91.07H463.87V93.84H469.79V96.13H463.87V99.13L470.81 99.08Z" fill="#CF9D2B"/>
<path d="M343.24 111.11C343.816 111.388 344.327 111.783 344.741 112.27C345.155 112.758 345.462 113.326 345.643 113.939C345.824 114.553 345.874 115.197 345.791 115.831C345.708 116.465 345.493 117.074 345.16 117.62C344.693 118.332 344.025 118.89 343.24 119.22C342.31 119.611 341.308 119.802 340.3 119.78H337.73V123.29H334.73V110.55H340.25C341.275 110.521 342.295 110.712 343.24 111.11V111.11ZM342.16 116.8C342.392 116.599 342.575 116.348 342.695 116.065C342.815 115.783 342.868 115.476 342.85 115.17C342.871 114.86 342.819 114.55 342.7 114.264C342.58 113.977 342.395 113.723 342.16 113.52C341.577 113.109 340.872 112.908 340.16 112.95H337.76V117.37H340.16C340.872 117.412 341.577 117.211 342.16 116.8V116.8Z" fill="#CF9D2B"/>
<path d="M356 123.29L353.54 119.74H350.83V123.29H347.88V110.55H353.4C354.408 110.528 355.41 110.719 356.34 111.11C357.121 111.447 357.788 112.003 358.26 112.71C358.715 113.449 358.948 114.303 358.93 115.17C358.962 116.026 358.727 116.871 358.258 117.588C357.788 118.304 357.108 118.857 356.31 119.17L359.17 123.27L356 123.29ZM355.25 113.52C354.669 113.105 353.962 112.904 353.25 112.95H350.85V117.39H353.25C353.964 117.442 354.674 117.236 355.25 116.81C355.468 116.595 355.641 116.339 355.759 116.057C355.877 115.774 355.938 115.471 355.938 115.165C355.938 114.859 355.877 114.556 355.759 114.273C355.641 113.991 355.468 113.735 355.25 113.52V113.52Z" fill="#CF9D2B"/>
<path d="M363.89 122.65C362.851 122.101 361.984 121.275 361.385 120.264C360.787 119.253 360.481 118.095 360.5 116.92C360.479 115.743 360.784 114.584 361.383 113.57C361.981 112.557 362.849 111.729 363.89 111.18C364.999 110.621 366.223 110.33 367.465 110.33C368.707 110.33 369.931 110.621 371.04 111.18C372.064 111.732 372.924 112.547 373.53 113.54C374.126 114.565 374.441 115.729 374.441 116.915C374.441 118.101 374.126 119.265 373.53 120.29C372.926 121.285 372.066 122.101 371.04 122.65C369.933 123.215 368.708 123.51 367.465 123.51C366.222 123.51 364.997 123.215 363.89 122.65V122.65ZM369.51 120.48C370.111 120.137 370.606 119.636 370.94 119.03C371.282 118.379 371.46 117.655 371.46 116.92C371.46 116.185 371.282 115.461 370.94 114.81C370.606 114.204 370.111 113.703 369.51 113.36C368.884 113.019 368.183 112.84 367.47 112.84C366.757 112.84 366.056 113.019 365.43 113.36C364.829 113.703 364.334 114.204 364 114.81C363.658 115.461 363.48 116.185 363.48 116.92C363.48 117.655 363.658 118.379 364 119.03C364.334 119.636 364.829 120.137 365.43 120.48C366.058 120.815 366.758 120.991 367.47 120.991C368.182 120.991 368.882 120.815 369.51 120.48V120.48Z" fill="#CF9D2B"/>
<path d="M388.49 110.55L383 123.29H380.09L374.6 110.55H377.78L381.66 119.65L385.59 110.55H388.49Z" fill="#CF9D2B"/>
<path d="M389.54 110.55H392.49V123.29H389.54V110.55Z" fill="#CF9D2B"/>
<path d="M395.51 110.55H401.3C402.568 110.523 403.825 110.794 404.97 111.34C405.989 111.833 406.846 112.606 407.44 113.57C408.017 114.592 408.319 115.746 408.319 116.92C408.319 118.094 408.017 119.248 407.44 120.27C406.854 121.229 406.008 122.002 405 122.5C403.854 123.042 402.598 123.312 401.33 123.29H395.54L395.51 110.55ZM401.15 120.87C402.267 120.926 403.362 120.542 404.2 119.8C404.933 119.018 405.34 117.987 405.34 116.915C405.34 115.843 404.933 114.812 404.2 114.03C403.361 113.291 402.266 112.91 401.15 112.97H398.46V120.87H401.15Z" fill="#CF9D2B"/>
<path d="M420.41 120.92V123.29H410.54V110.55H420.17V112.91H413.47V115.68H419.39V118H413.47V121L420.41 120.92Z" fill="#CF9D2B"/>
<path d="M430.87 123.29L428.42 119.74H425.7V123.29H422.76V110.55H428.27C429.278 110.528 430.28 110.719 431.21 111.11C431.787 111.386 432.3 111.781 432.714 112.268C433.129 112.756 433.436 113.325 433.616 113.939C433.797 114.553 433.845 115.198 433.76 115.832C433.674 116.467 433.456 117.076 433.12 117.62C432.643 118.324 431.968 118.871 431.18 119.19L434.04 123.29H430.87ZM430.13 113.52C429.547 113.108 428.842 112.907 428.13 112.95H425.7V117.39H428.11C428.824 117.435 429.531 117.23 430.11 116.81C430.328 116.595 430.501 116.339 430.619 116.057C430.737 115.774 430.798 115.471 430.798 115.165C430.798 114.859 430.737 114.556 430.619 114.273C430.501 113.991 430.328 113.735 430.11 113.52H430.13Z" fill="#CF9D2B"/>
<path d="M437.4 123.1C436.585 122.883 435.816 122.521 435.13 122.03L436.13 119.81C436.724 120.242 437.382 120.579 438.08 120.81C438.81 121.047 439.572 121.169 440.34 121.17C440.978 121.214 441.617 121.086 442.19 120.8C442.371 120.704 442.523 120.56 442.629 120.383C442.735 120.207 442.79 120.006 442.79 119.8C442.79 119.656 442.759 119.513 442.698 119.382C442.638 119.25 442.55 119.134 442.44 119.04C442.17 118.823 441.861 118.66 441.53 118.56C441.16 118.44 440.66 118.3 440.03 118.16C439.22 117.977 438.422 117.747 437.64 117.47C437.025 117.239 436.479 116.857 436.05 116.36C435.592 115.796 435.354 115.086 435.38 114.36C435.378 113.647 435.59 112.95 435.99 112.36C436.44 111.716 437.069 111.219 437.8 110.93C438.737 110.553 439.741 110.373 440.75 110.4C441.555 110.4 442.358 110.497 443.14 110.69C443.846 110.864 444.521 111.148 445.14 111.53L444.24 113.77C443.168 113.132 441.947 112.787 440.7 112.77C440.067 112.723 439.435 112.862 438.88 113.17C438.697 113.277 438.545 113.43 438.439 113.615C438.334 113.799 438.279 114.008 438.28 114.22C438.269 114.439 438.331 114.656 438.456 114.837C438.58 115.018 438.761 115.152 438.97 115.22C439.64 115.498 440.337 115.706 441.05 115.84C441.861 116.021 442.659 116.255 443.44 116.54C444.051 116.768 444.597 117.142 445.03 117.63C445.49 118.192 445.725 118.905 445.69 119.63C445.698 120.344 445.485 121.042 445.08 121.63C444.622 122.274 443.986 122.771 443.25 123.06C442.297 123.441 441.276 123.622 440.25 123.59C439.282 123.559 438.323 123.395 437.4 123.1V123.1Z" fill="#CF9D2B"/>
<path d="M353 64.24H347.37V71.5H339.57V64.24H320.89V58.86L337.2 36.93H345.59L330.48 57.72H339.76V51.25H347.32V57.72H353V64.24Z" fill="#CF9D2B"/>
<path d="M364.31 63.63C364.758 64.0779 365.109 64.614 365.34 65.2044C365.57 65.7948 365.676 66.4267 365.65 67.06C365.649 67.7344 365.565 68.4061 365.4 69.06C365.11 70.0853 364.746 71.088 364.31 72.06L361.5 79.17H356.61L358.78 71.32C357.977 71.0022 357.294 70.4387 356.83 69.71C356.34 68.9366 356.089 68.0355 356.11 67.12C356.085 66.4851 356.193 65.852 356.428 65.2613C356.662 64.6706 357.017 64.1354 357.47 63.69C357.925 63.2536 358.463 62.9128 359.052 62.6878C359.641 62.4628 360.27 62.3582 360.9 62.38C361.523 62.3478 362.147 62.4419 362.733 62.6567C363.319 62.8715 363.855 63.2026 364.31 63.63V63.63Z" fill="#CF9D2B"/>
<path d="M395.53 36.93V42.11L382.69 71.5H374L386.39 43.5H374.93V49.13H367.82V36.93H395.53Z" fill="#CF9D2B"/>
<path d="M405.26 70C402.942 68.496 401.114 66.3481 400 63.82C398.662 60.8006 398.013 57.5213 398.1 54.22C398.013 50.9154 398.662 47.6328 400 44.61C401.122 42.0947 402.949 39.9586 405.26 38.46C407.572 37.0666 410.221 36.3302 412.92 36.3302C415.62 36.3302 418.268 37.0666 420.58 38.46C422.888 39.9616 424.714 42.0969 425.84 44.61C427.173 47.6343 427.822 50.9158 427.74 54.22C427.822 57.5209 427.173 60.7992 425.84 63.82C424.722 66.3459 422.895 68.4929 420.58 70C418.268 71.3934 415.62 72.1297 412.92 72.1297C410.221 72.1297 407.572 71.3934 405.26 70ZM417.88 62.64C419.087 60.8266 419.69 58.03 419.69 54.25C419.69 50.47 419.087 47.67 417.88 45.85C417.353 45.0176 416.625 44.332 415.762 43.8569C414.899 43.3818 413.93 43.1327 412.945 43.1327C411.96 43.1327 410.991 43.3818 410.128 43.8569C409.265 44.332 408.537 45.0176 408.01 45.85C406.803 47.6633 406.2 50.4633 406.2 54.25C406.2 58.0366 406.8 60.8233 408 62.61C408.527 63.4423 409.255 64.1279 410.118 64.603C410.981 65.0781 411.95 65.3272 412.935 65.3272C413.92 65.3272 414.889 65.0781 415.752 64.603C416.615 64.1279 417.343 63.4423 417.87 62.61L417.88 62.64Z" fill="#CF9D2B"/>
<path d="M458.51 36.93V42.11L445.67 71.5H437L449.39 43.5H437.92V49.13H430.8V36.93H458.51Z" fill="#CF9D2B"/>
<path d="M276.72 154.46C276.661 152.527 277.113 150.613 278.03 148.91C278.643 147.651 279.596 146.588 280.78 145.84H280.83L281.15 146.84C280.259 147.602 279.571 148.575 279.15 149.67C278.548 151.204 278.262 152.843 278.31 154.49V154.59C278.262 156.234 278.548 157.87 279.15 159.4C279.579 160.513 280.264 161.51 281.15 162.31L280.83 163.2H280.78C279.596 162.452 278.643 161.389 278.03 160.13C277.111 158.424 276.659 156.506 276.72 154.57V154.46Z" fill="black"/>
<path d="M290 148.6C288.728 150.021 287.688 151.634 286.92 153.38C286.369 154.868 286.098 156.444 286.12 158.03V159.34H284.5V158C284.472 156.31 284.814 154.634 285.5 153.09C286.278 151.471 287.252 149.953 288.4 148.57H282V147.29H290V148.6Z" fill="black"/>
<path d="M299.51 148.6C298.24 150.021 297.204 151.634 296.44 153.38C295.885 154.866 295.613 156.444 295.64 158.03V159.34H294V158C293.977 156.311 294.318 154.636 295 153.09C295.778 151.471 296.752 149.953 297.9 148.57H291.53V147.29H299.53L299.51 148.6Z" fill="black"/>
<path d="M301.11 149.63C301.097 148.977 301.341 148.345 301.79 147.87C302.023 147.628 302.305 147.439 302.617 147.315C302.929 147.19 303.264 147.134 303.6 147.15C303.934 147.137 304.268 147.193 304.579 147.315C304.891 147.437 305.174 147.623 305.41 147.86C305.858 148.339 306.098 148.975 306.08 149.63V150.27C306.089 150.593 306.035 150.915 305.92 151.217C305.805 151.519 305.632 151.795 305.41 152.03C305.178 152.267 304.899 152.453 304.59 152.575C304.282 152.697 303.951 152.754 303.62 152.74C303.289 152.758 302.958 152.707 302.648 152.59C302.337 152.473 302.055 152.293 301.819 152.06C301.583 151.827 301.397 151.548 301.275 151.24C301.153 150.932 301.097 150.601 301.11 150.27V149.63ZM302.32 150.27C302.319 150.63 302.434 150.981 302.65 151.27C302.771 151.415 302.925 151.529 303.099 151.602C303.273 151.675 303.462 151.705 303.65 151.69C303.827 151.699 304.004 151.666 304.166 151.593C304.328 151.52 304.47 151.409 304.58 151.27C304.797 150.982 304.913 150.631 304.91 150.27V149.63C304.911 149.268 304.791 148.916 304.57 148.63C304.461 148.487 304.318 148.373 304.154 148.298C303.99 148.223 303.81 148.189 303.63 148.2C303.441 148.181 303.249 148.21 303.074 148.285C302.899 148.361 302.746 148.479 302.63 148.63C302.416 148.919 302.3 149.27 302.3 149.63L302.32 150.27ZM304.03 158.43L303.14 157.88L309 148.49L309.9 149.04L304.03 158.43ZM306.93 156.43C306.915 155.776 307.159 155.144 307.61 154.67C308.1 154.214 308.745 153.96 309.415 153.96C310.085 153.96 310.73 154.214 311.22 154.67C311.671 155.144 311.915 155.776 311.9 156.43V157C311.909 157.324 311.853 157.646 311.736 157.948C311.619 158.25 311.444 158.526 311.22 158.76C310.988 158.997 310.709 159.183 310.4 159.305C310.092 159.427 309.761 159.484 309.43 159.47C309.094 159.484 308.759 159.428 308.446 159.306C308.132 159.184 307.848 158.998 307.61 158.76C307.386 158.526 307.211 158.25 307.094 157.948C306.977 157.646 306.921 157.324 306.93 157V156.43ZM308.14 157.08C308.137 157.441 308.253 157.792 308.47 158.08C308.588 158.229 308.741 158.346 308.916 158.421C309.09 158.496 309.281 158.526 309.47 158.51C309.648 158.518 309.826 158.484 309.988 158.409C310.149 158.334 310.291 158.221 310.4 158.08C310.617 157.792 310.733 157.441 310.73 157.08V156.43C310.731 156.07 310.616 155.719 310.4 155.43C310.283 155.294 310.138 155.186 309.974 155.111C309.811 155.037 309.634 154.998 309.455 154.998C309.276 154.998 309.099 155.037 308.936 155.111C308.772 155.186 308.627 155.294 308.51 155.43C308.294 155.719 308.179 156.07 308.18 156.43L308.14 157.08Z" fill="black"/>
<path d="M318.67 159.34V151.61H317.28V150.41H318.67V149.28C318.619 148.473 318.889 147.679 319.42 147.07C319.693 146.802 320.019 146.594 320.377 146.46C320.736 146.325 321.118 146.268 321.5 146.29C321.691 146.292 321.882 146.308 322.07 146.34C322.26 146.34 322.47 146.41 322.7 146.47L322.5 147.7H322.14C321.994 147.689 321.847 147.689 321.7 147.7C321.504 147.685 321.306 147.715 321.124 147.79C320.942 147.865 320.779 147.981 320.65 148.13C320.39 148.485 320.266 148.921 320.3 149.36V150.49H321.92V151.69H320.3V159.42L318.67 159.34Z" fill="black"/>
<path d="M327.06 159.51C326.5 159.542 325.94 159.448 325.421 159.235C324.901 159.022 324.437 158.696 324.06 158.28C323.31 157.375 322.925 156.224 322.98 155.05V154.68C322.938 153.518 323.334 152.383 324.09 151.5C324.421 151.103 324.836 150.785 325.304 150.567C325.773 150.349 326.283 150.238 326.8 150.24C327.304 150.206 327.81 150.289 328.277 150.484C328.743 150.678 329.159 150.978 329.49 151.36C330.127 152.226 330.441 153.287 330.38 154.36V155.22H324.67C324.636 155.99 324.842 156.752 325.26 157.4C325.468 157.682 325.744 157.907 326.062 158.054C326.38 158.201 326.73 158.265 327.08 158.24C327.57 158.247 328.057 158.17 328.52 158.01C328.915 157.864 329.279 157.644 329.59 157.36L330.23 158.36C329.864 158.699 329.436 158.964 328.97 159.14C328.364 159.389 327.715 159.515 327.06 159.51ZM326.8 151.51C326.53 151.504 326.262 151.561 326.018 151.676C325.774 151.79 325.559 151.959 325.39 152.17C325.002 152.65 324.765 153.235 324.71 153.85V153.85H328.71V153.72C328.733 153.145 328.564 152.578 328.23 152.11C328.053 151.908 327.832 151.75 327.584 151.647C327.336 151.545 327.068 151.501 326.8 151.52V151.51Z" fill="black"/>
<path d="M333.66 150.41L333.77 151.58C334.05 151.158 334.432 150.814 334.88 150.58C335.365 150.331 335.905 150.208 336.45 150.22C336.99 150.206 337.523 150.352 337.98 150.64C338.435 150.934 338.785 151.364 338.98 151.87C339.244 151.38 339.63 150.967 340.1 150.67C340.58 150.364 341.141 150.207 341.71 150.22C342.116 150.203 342.521 150.278 342.894 150.441C343.266 150.604 343.597 150.85 343.86 151.16C344.451 151.976 344.734 152.975 344.66 153.98V159.32H343V154C343.059 153.344 342.901 152.687 342.55 152.13C342.379 151.943 342.168 151.796 341.932 151.701C341.697 151.606 341.443 151.564 341.19 151.58C340.936 151.574 340.685 151.622 340.452 151.722C340.219 151.822 340.01 151.972 339.84 152.16C339.49 152.571 339.28 153.082 339.24 153.62V159.36H337.6V154C337.654 153.356 337.492 152.712 337.14 152.17C336.979 151.973 336.773 151.817 336.54 151.715C336.308 151.612 336.054 151.566 335.8 151.58C335.369 151.565 334.943 151.673 334.57 151.89C334.249 152.101 333.996 152.399 333.84 152.75V159.36H332.22V150.43L333.66 150.41Z" fill="black"/>
<path d="M352.46 159.34C352.413 159.067 352.373 158.827 352.34 158.62C352.31 158.414 352.29 158.208 352.28 158C351.967 158.439 351.565 158.807 351.1 159.08C350.626 159.365 350.083 159.514 349.53 159.51C348.755 159.558 347.991 159.303 347.4 158.8C347.146 158.536 346.949 158.222 346.823 157.877C346.698 157.533 346.645 157.166 346.67 156.8C346.652 156.409 346.734 156.02 346.909 155.67C347.084 155.319 347.346 155.02 347.67 154.8C348.511 154.278 349.492 154.026 350.48 154.08H352.24V153.19C352.251 152.961 352.214 152.733 352.131 152.519C352.049 152.306 351.922 152.112 351.76 151.95C351.387 151.627 350.903 151.462 350.41 151.49C349.95 151.472 349.498 151.613 349.13 151.89C348.975 152.005 348.85 152.156 348.766 152.331C348.683 152.505 348.643 152.697 348.65 152.89H347.1C347.097 152.539 347.18 152.194 347.34 151.882C347.5 151.57 347.733 151.302 348.02 151.1C348.731 150.542 349.617 150.255 350.52 150.29C351.405 150.217 352.287 150.469 353 151C353.315 151.273 353.564 151.616 353.725 152.001C353.886 152.386 353.956 152.803 353.93 153.22V157.52C353.909 157.826 353.909 158.134 353.93 158.44C353.96 158.739 354.02 159.033 354.11 159.32L352.46 159.34ZM349.76 158.15C350.325 158.154 350.88 157.998 351.36 157.7C351.765 157.473 352.088 157.123 352.28 156.7V155.2H350.46C349.893 155.172 349.336 155.349 348.89 155.7C348.709 155.835 348.561 156.009 348.458 156.211C348.356 156.412 348.302 156.634 348.3 156.86C348.29 157.034 348.318 157.208 348.382 157.37C348.446 157.533 348.544 157.679 348.67 157.8C348.974 158.053 349.365 158.179 349.76 158.15V158.15Z" fill="black"/>
<path d="M358 159.34H356.4V146.47H358V159.34Z" fill="black"/>
<path d="M364.22 159.51C363.66 159.54 363.1 159.446 362.582 159.233C362.063 159.02 361.598 158.695 361.22 158.28C360.471 157.375 360.086 156.224 360.14 155.05V154.68C360.098 153.518 360.494 152.383 361.25 151.5C361.582 151.104 361.996 150.786 362.465 150.568C362.933 150.35 363.444 150.238 363.96 150.24C364.465 150.205 364.97 150.288 365.437 150.483C365.904 150.677 366.319 150.977 366.65 151.36C367.291 152.224 367.607 153.286 367.54 154.36V155.22H361.84C361.804 155.992 362.014 156.755 362.44 157.4C362.646 157.682 362.92 157.907 363.237 158.054C363.553 158.201 363.902 158.265 364.25 158.24C364.743 158.247 365.234 158.17 365.7 158.01C366.093 157.86 366.456 157.64 366.77 157.36L367.4 158.36C367.034 158.699 366.606 158.964 366.14 159.14C365.532 159.392 364.879 159.518 364.22 159.51V159.51ZM363.96 151.51C363.692 151.506 363.426 151.563 363.184 151.678C362.941 151.792 362.728 151.961 362.56 152.17C362.172 152.65 361.935 153.235 361.88 153.85V153.85H365.88V153.72C365.903 153.145 365.735 152.578 365.4 152.11C365.227 151.912 365.01 151.756 364.768 151.654C364.525 151.552 364.263 151.506 364 151.52L363.96 151.51Z" fill="black"/>
<path d="M372.67 154.53C372.728 156.467 372.272 158.385 371.35 160.09C370.737 161.349 369.784 162.412 368.6 163.16H368.55L368.24 162.27C369.131 161.499 369.818 160.52 370.24 159.42C370.84 157.868 371.126 156.213 371.08 154.55V154.45C371.124 152.801 370.828 151.16 370.21 149.63C369.791 148.531 369.132 147.541 368.28 146.73L368.59 145.84H368.64C369.824 146.588 370.777 147.651 371.39 148.91C372.31 150.612 372.766 152.526 372.71 154.46L372.67 154.53Z" fill="black"/>
<path d="M383.46 151.85H382.63C382.248 151.837 381.871 151.941 381.55 152.15C381.248 152.368 381.012 152.666 380.87 153.01V159.39H379.24V150.46H380.69L380.85 151.76C381.072 151.332 381.39 150.963 381.78 150.68C382.159 150.419 382.61 150.283 383.07 150.29C383.183 150.279 383.297 150.279 383.41 150.29C383.505 150.304 383.599 150.327 383.69 150.36L383.46 151.85Z" fill="black"/>
<path d="M388.7 159.51C388.14 159.54 387.581 159.445 387.062 159.232C386.543 159.019 386.078 158.694 385.7 158.28C384.958 157.371 384.578 156.222 384.63 155.05V154.68C384.588 153.518 384.984 152.383 385.74 151.5C386.071 151.104 386.486 150.785 386.954 150.567C387.423 150.349 387.933 150.238 388.45 150.24C388.953 150.204 389.458 150.287 389.923 150.482C390.388 150.676 390.802 150.977 391.13 151.36C391.774 152.223 392.093 153.285 392.03 154.36V155.22H386.32C386.281 155.991 386.488 156.754 386.91 157.4C387.118 157.682 387.394 157.907 387.712 158.054C388.03 158.201 388.38 158.265 388.73 158.24C389.22 158.247 389.707 158.17 390.17 158.01C390.564 157.862 390.927 157.642 391.24 157.36L391.88 158.36C391.512 158.701 391.08 158.966 390.61 159.14C390.005 159.392 389.355 159.518 388.7 159.51V159.51ZM388.44 151.51C388.17 151.505 387.903 151.561 387.658 151.676C387.414 151.79 387.199 151.959 387.03 152.17C386.642 152.65 386.405 153.235 386.35 153.85V153.85H390.35V153.72C390.372 153.147 390.207 152.582 389.88 152.11C389.701 151.908 389.478 151.75 389.229 151.647C388.979 151.545 388.709 151.501 388.44 151.52V151.51Z" fill="black"/>
<path d="M397.39 158.24C397.874 158.245 398.343 158.067 398.7 157.74C398.88 157.591 399.024 157.402 399.121 157.189C399.218 156.976 399.266 156.744 399.26 156.51H400.73V156.57C400.731 156.965 400.641 157.356 400.468 157.711C400.294 158.066 400.042 158.377 399.73 158.62C398.973 159.257 397.997 159.573 397.011 159.5C396.024 159.427 395.105 158.971 394.45 158.23C393.758 157.318 393.404 156.194 393.45 155.05V154.7C393.406 153.559 393.76 152.439 394.45 151.53C394.798 151.102 395.241 150.762 395.745 150.537C396.249 150.313 396.799 150.211 397.35 150.24C397.8 150.224 398.248 150.297 398.669 150.457C399.09 150.617 399.474 150.859 399.8 151.17C400.108 151.46 400.349 151.813 400.508 152.205C400.666 152.596 400.739 153.018 400.72 153.44V153.49H399.24C399.248 153.235 399.205 152.98 399.114 152.742C399.023 152.503 398.886 152.285 398.71 152.1C398.542 151.913 398.335 151.764 398.103 151.664C397.872 151.563 397.622 151.514 397.37 151.52C397.022 151.496 396.674 151.571 396.367 151.735C396.059 151.9 395.804 152.147 395.63 152.45C395.245 153.136 395.055 153.914 395.08 154.7V155.05C395.055 155.841 395.242 156.625 395.62 157.32C395.799 157.624 396.06 157.871 396.373 158.034C396.686 158.197 397.038 158.268 397.39 158.24V158.24Z" fill="black"/>
<path d="M406.39 159.51C405.83 159.54 405.271 159.445 404.752 159.232C404.233 159.019 403.768 158.694 403.39 158.28C402.648 157.371 402.267 156.222 402.32 155.05V154.68C402.278 153.518 402.674 152.383 403.43 151.5C403.761 151.103 404.176 150.785 404.644 150.567C405.113 150.349 405.623 150.238 406.14 150.24C406.644 150.206 407.15 150.289 407.617 150.484C408.083 150.678 408.499 150.978 408.83 151.36C409.467 152.226 409.781 153.287 409.72 154.36V155.22H404C403.961 155.991 404.168 156.754 404.59 157.4C404.798 157.682 405.074 157.907 405.392 158.054C405.71 158.201 406.06 158.265 406.41 158.24C406.9 158.247 407.387 158.17 407.85 158.01C408.244 157.862 408.607 157.642 408.92 157.36L409.56 158.36C409.192 158.701 408.76 158.966 408.29 159.14C407.688 159.39 407.042 159.516 406.39 159.51V159.51ZM406.13 151.51C405.86 151.504 405.593 151.561 405.348 151.676C405.104 151.79 404.889 151.959 404.72 152.17C404.332 152.65 404.095 153.235 404.04 153.85V153.85H408.04V153.72C408.062 153.147 407.897 152.582 407.57 152.11C407.391 151.908 407.168 151.749 406.919 151.647C406.669 151.545 406.399 151.501 406.13 151.52V151.51Z" fill="black"/>
<path d="M413.29 148.12H411.67V146.47H413.29V148.12ZM413.29 159.34H411.67V150.41H413.29V159.34Z" fill="black"/>
<path d="M418.77 156.71L418.91 157.33L419.07 156.71L421.12 150.41H422.78L419.5 159.34H418.27L415 150.41H416.67L418.77 156.71Z" fill="black"/>
<path d="M427.88 159.51C427.32 159.54 426.76 159.446 426.241 159.233C425.723 159.02 425.258 158.695 424.88 158.28C424.131 157.375 423.745 156.224 423.8 155.05V154.68C423.758 153.518 424.154 152.383 424.91 151.5C425.242 151.104 425.656 150.786 426.125 150.568C426.593 150.35 427.104 150.238 427.62 150.24C428.125 150.205 428.63 150.288 429.097 150.483C429.564 150.677 429.979 150.977 430.31 151.36C430.951 152.224 431.267 153.286 431.2 154.36V155.22H425.5C425.466 155.99 425.672 156.752 426.09 157.4C426.298 157.682 426.574 157.907 426.892 158.054C427.21 158.201 427.56 158.265 427.91 158.24C428.403 158.247 428.894 158.17 429.36 158.01C429.753 157.86 430.116 157.64 430.43 157.36L431.06 158.36C430.694 158.699 430.266 158.964 429.8 159.14C429.192 159.392 428.539 159.518 427.88 159.51V159.51ZM427.62 151.51C427.352 151.506 427.086 151.563 426.844 151.678C426.601 151.792 426.388 151.961 426.22 152.17C425.832 152.65 425.595 153.235 425.54 153.85H429.54V153.72C429.563 153.145 429.394 152.578 429.06 152.11C428.882 151.907 428.66 151.747 428.41 151.645C428.16 151.543 427.889 151.5 427.62 151.52V151.51Z" fill="black"/>
<path d="M432.66 155C432.599 153.773 432.921 152.557 433.58 151.52C433.863 151.101 434.246 150.761 434.696 150.53C435.145 150.299 435.645 150.186 436.15 150.2C436.632 150.192 437.11 150.291 437.55 150.49C437.942 150.696 438.284 150.986 438.55 151.34V146.43H440.18V159.3H439L438.75 158.17C438.483 158.592 438.111 158.937 437.67 159.17C437.207 159.397 436.696 159.51 436.18 159.5C435.69 159.522 435.202 159.426 434.757 159.221C434.311 159.016 433.921 158.707 433.62 158.32C432.974 157.412 432.65 156.313 432.7 155.2L432.66 155ZM434.28 155.17C434.246 155.932 434.437 156.687 434.83 157.34C435.027 157.607 435.287 157.821 435.588 157.962C435.888 158.104 436.219 158.168 436.55 158.15C436.981 158.164 437.405 158.049 437.77 157.82C438.112 157.585 438.39 157.269 438.58 156.9V152.73C438.384 152.377 438.106 152.075 437.77 151.85C437.412 151.624 436.994 151.509 436.57 151.52C436.217 151.506 435.867 151.593 435.56 151.77C435.254 151.947 435.004 152.207 434.84 152.52C434.438 153.294 434.245 154.159 434.28 155.03V155.17Z" fill="black"/>
<path d="M449.09 148.26V150.41H450.79V151.61H449.09V157C449.074 157.157 449.09 157.316 449.137 157.467C449.183 157.618 449.259 157.759 449.36 157.88C449.45 157.967 449.557 158.035 449.674 158.079C449.79 158.124 449.915 158.145 450.04 158.14C450.147 158.149 450.254 158.149 450.36 158.14L450.65 158.06L450.87 159.17C450.708 159.288 450.525 159.373 450.33 159.42C450.101 159.479 449.866 159.51 449.63 159.51C449.341 159.524 449.052 159.478 448.782 159.375C448.512 159.272 448.266 159.113 448.06 158.91C447.624 158.389 447.412 157.717 447.47 157.04V151.61H446.05V150.41H447.47V148.26H449.09Z" fill="black"/>
<path d="M456.75 151.85H455.92C455.535 151.838 455.155 151.942 454.83 152.15C454.528 152.368 454.292 152.666 454.15 153.01V159.39H452.53V150.46H454L454.15 151.76C454.378 151.334 454.7 150.965 455.09 150.68C455.468 150.418 455.92 150.281 456.38 150.29C456.493 150.28 456.607 150.28 456.72 150.29C456.812 150.304 456.903 150.327 456.99 150.36L456.75 151.85Z" fill="black"/>
<path d="M463.93 159.34C463.87 159.07 463.83 158.83 463.8 158.62C463.768 158.415 463.751 158.208 463.75 158C463.433 158.439 463.028 158.807 462.56 159.08C462.086 159.365 461.543 159.514 460.99 159.51C460.607 159.537 460.223 159.488 459.859 159.366C459.496 159.244 459.16 159.052 458.87 158.8C458.616 158.536 458.419 158.222 458.294 157.877C458.168 157.533 458.116 157.166 458.14 156.8C458.123 156.409 458.206 156.02 458.381 155.67C458.556 155.32 458.817 155.021 459.14 154.8C459.981 154.279 460.962 154.028 461.95 154.08H463.72V153.19C463.731 152.961 463.694 152.733 463.611 152.519C463.529 152.306 463.402 152.112 463.24 151.95C462.867 151.627 462.383 151.462 461.89 151.49C461.43 151.472 460.978 151.613 460.61 151.89C460.452 152.003 460.324 152.153 460.239 152.328C460.153 152.503 460.112 152.696 460.12 152.89H458.58C458.576 152.54 458.656 152.195 458.814 151.883C458.973 151.571 459.205 151.302 459.49 151.1C460.205 150.542 461.094 150.255 462 150.29C462.881 150.248 463.747 150.525 464.44 151.07C464.753 151.345 464.998 151.689 465.158 152.073C465.317 152.458 465.386 152.874 465.36 153.29V157.59C465.361 157.897 465.378 158.204 465.41 158.51C465.445 158.808 465.505 159.102 465.59 159.39L463.93 159.34ZM461.23 158.15C461.793 158.158 462.345 158.002 462.82 157.7C463.228 157.473 463.553 157.123 463.75 156.7V155.2H461.92C461.354 155.174 460.797 155.352 460.35 155.7C460.17 155.836 460.024 156.011 459.922 156.212C459.82 156.413 459.764 156.635 459.76 156.86C459.752 157.034 459.781 157.207 459.845 157.369C459.909 157.531 460.006 157.678 460.13 157.8C460.44 158.051 460.832 158.176 461.23 158.15V158.15Z" fill="black"/>
<path d="M469.49 148.12H467.87V146.47H469.49V148.12ZM469.49 159.34H467.87V150.41H469.49V159.34Z" fill="black"/>
<path d="M473.44 150.41L473.56 151.74C473.836 151.285 474.221 150.907 474.68 150.64C475.145 150.372 475.673 150.234 476.21 150.24C476.621 150.216 477.032 150.279 477.416 150.426C477.801 150.572 478.149 150.799 478.44 151.09C479.028 151.827 479.314 152.76 479.24 153.7V159.34H477.61V153.73C477.67 153.134 477.502 152.537 477.14 152.06C476.951 151.882 476.727 151.746 476.483 151.66C476.238 151.574 475.978 151.54 475.72 151.56C475.277 151.549 474.839 151.656 474.45 151.87C474.101 152.067 473.813 152.358 473.62 152.71V159.34H472V150.41H473.44Z" fill="black"/>
<path d="M483.35 148.12H481.73V146.47H483.35V148.12ZM483.35 159.34H481.73V150.41H483.35V159.34Z" fill="black"/>
<path d="M487.31 150.41L487.42 151.74C487.696 151.286 488.081 150.907 488.54 150.64C489.005 150.372 489.534 150.234 490.07 150.24C490.482 150.22 490.893 150.285 491.279 150.432C491.664 150.578 492.015 150.802 492.31 151.09C492.89 151.831 493.172 152.762 493.1 153.7V159.34H491.47V153.73C491.528 153.136 491.364 152.541 491.01 152.06C490.819 151.882 490.594 151.746 490.348 151.66C490.102 151.574 489.84 151.54 489.58 151.56C489.137 151.549 488.699 151.656 488.31 151.87C487.961 152.067 487.673 152.358 487.48 152.71V159.34H485.85V150.41H487.31Z" fill="black"/>
<path d="M495.17 155C495.113 153.773 495.434 152.559 496.09 151.52C496.373 151.101 496.756 150.761 497.206 150.53C497.655 150.3 498.155 150.186 498.66 150.2C499.178 150.19 499.691 150.31 500.15 150.55C500.587 150.793 500.96 151.136 501.24 151.55L501.43 150.39H502.73V159.39C502.762 159.875 502.689 160.36 502.517 160.814C502.344 161.268 502.076 161.679 501.73 162.02C500.924 162.685 499.892 163.015 498.85 162.94C498.382 162.934 497.916 162.877 497.46 162.77C497 162.667 496.556 162.502 496.14 162.28L496.39 161.02C496.75 161.204 497.134 161.339 497.53 161.42C497.956 161.519 498.392 161.569 498.83 161.57C499.14 161.598 499.452 161.565 499.749 161.473C500.046 161.38 500.321 161.23 500.56 161.03C500.755 160.807 500.903 160.546 500.996 160.265C501.089 159.983 501.124 159.686 501.1 159.39V158.39C500.825 158.756 500.465 159.048 500.05 159.24C499.608 159.441 499.126 159.54 498.64 159.53C498.151 159.556 497.663 159.463 497.218 159.257C496.774 159.051 496.386 158.74 496.09 158.35C495.444 157.442 495.12 156.343 495.17 155.23V155ZM496.79 155.17C496.754 155.93 496.949 156.683 497.35 157.33C497.539 157.604 497.796 157.823 498.096 157.967C498.396 158.111 498.728 158.174 499.06 158.15C499.494 158.166 499.922 158.051 500.29 157.82C500.642 157.562 500.921 157.218 501.1 156.82V152.8C500.907 152.439 500.629 152.13 500.29 151.9C499.926 151.669 499.501 151.551 499.07 151.56C498.718 151.548 498.37 151.635 498.066 151.812C497.762 151.989 497.514 152.248 497.35 152.56C496.948 153.334 496.755 154.199 496.79 155.07V155.17Z" fill="black"/>
<path d="M273.74 175.07C273.694 173.89 274.074 172.733 274.81 171.81C275.165 171.386 275.613 171.048 276.12 170.825C276.626 170.601 277.177 170.497 277.73 170.52C278.283 170.497 278.835 170.6 279.343 170.822C279.85 171.044 280.301 171.378 280.66 171.8C281.405 172.723 281.789 173.885 281.74 175.07V175.25C281.789 176.435 281.405 177.597 280.66 178.52C280.286 178.92 279.834 179.238 279.331 179.456C278.829 179.674 278.287 179.786 277.74 179.786C277.193 179.786 276.651 179.674 276.149 179.456C275.646 179.238 275.194 178.92 274.82 178.52C274.075 177.601 273.691 176.442 273.74 175.26V175.07ZM275.37 175.25C275.338 176.071 275.542 176.883 275.96 177.59C276.159 177.877 276.424 178.111 276.733 178.273C277.042 178.435 277.386 178.519 277.735 178.519C278.084 178.519 278.428 178.435 278.737 178.273C279.046 178.111 279.311 177.877 279.51 177.59C279.935 176.886 280.144 176.072 280.11 175.25V175.07C280.143 174.25 279.931 173.439 279.5 172.74C279.304 172.451 279.04 172.215 278.731 172.052C278.423 171.888 278.079 171.803 277.73 171.803C277.381 171.803 277.037 171.888 276.729 172.052C276.42 172.215 276.156 172.451 275.96 172.74C275.545 173.444 275.34 174.253 275.37 175.07V175.25Z" fill="black"/>
<path d="M285.18 170.69L285.29 172.02C285.566 171.565 285.951 171.187 286.41 170.92C287.007 170.593 287.691 170.461 288.367 170.542C289.043 170.622 289.677 170.912 290.18 171.37C290.783 172.108 291.076 173.05 291 174V179.64H289.37V174C289.428 173.406 289.264 172.811 288.91 172.33C288.721 172.153 288.497 172.017 288.253 171.931C288.008 171.845 287.748 171.81 287.49 171.83C287.044 171.816 286.603 171.92 286.21 172.13C285.86 172.331 285.573 172.626 285.38 172.98V179.61H283.76V170.68L285.18 170.69Z" fill="black"/>
<path d="M299.79 168.53V170.69H301.48V171.89H299.79V177.31C299.758 177.629 299.851 177.948 300.05 178.2C300.142 178.286 300.251 178.353 300.369 178.396C300.488 178.439 300.614 178.457 300.74 178.45H301.05L301.34 178.37L301.56 179.48C301.402 179.597 301.222 179.679 301.03 179.72C300.799 179.788 300.56 179.821 300.32 179.82C300.031 179.834 299.742 179.788 299.472 179.685C299.202 179.582 298.956 179.423 298.75 179.22C298.314 178.695 298.102 178.02 298.16 177.34V171.92H296.75V170.72H298.16V168.56L299.79 168.53Z" fill="black"/>
<path d="M304.85 171.89C305.144 171.474 305.531 171.132 305.98 170.89C306.439 170.648 306.951 170.525 307.47 170.53C307.881 170.507 308.293 170.572 308.677 170.72C309.062 170.869 309.41 171.097 309.7 171.39C310.287 172.139 310.569 173.082 310.49 174.03V179.63H308.87V174C308.918 173.413 308.747 172.828 308.39 172.36C308.207 172.175 307.986 172.032 307.743 171.94C307.5 171.849 307.239 171.811 306.98 171.83C306.539 171.821 306.103 171.92 305.71 172.12C305.361 172.306 305.065 172.578 304.85 172.91V179.61H303.22V166.74H304.85V171.89Z" fill="black"/>
<path d="M316.53 179.79C315.97 179.82 315.41 179.725 314.892 179.512C314.373 179.299 313.908 178.974 313.53 178.56C312.788 177.651 312.407 176.502 312.46 175.33V175C312.418 173.838 312.814 172.703 313.57 171.82C313.899 171.421 314.313 171.101 314.782 170.883C315.251 170.665 315.763 170.555 316.28 170.56C316.785 170.524 317.291 170.606 317.758 170.801C318.225 170.995 318.64 171.296 318.97 171.68C319.606 172.546 319.921 173.607 319.86 174.68V175.54H314.15C314.113 176.311 314.319 177.073 314.74 177.72C314.948 178.002 315.224 178.227 315.542 178.374C315.86 178.521 316.21 178.585 316.56 178.56C317.051 178.569 317.539 178.488 318 178.32C318.395 178.179 318.759 177.962 319.07 177.68L319.71 178.73C319.342 179.071 318.91 179.336 318.44 179.51C317.827 179.727 317.179 179.822 316.53 179.79V179.79ZM316.27 171.79C316 171.785 315.732 171.841 315.488 171.956C315.243 172.07 315.029 172.239 314.86 172.45C314.47 172.929 314.233 173.514 314.18 174.13V174.13H318.18V174C318.202 173.427 318.037 172.862 317.71 172.39C317.533 172.186 317.31 172.026 317.06 171.924C316.81 171.821 316.539 171.779 316.27 171.8V171.79Z" fill="black"/>
<path d="M327.63 168.4H326V166.74H327.62L327.63 168.4ZM327.63 179.62H326V170.69H327.62L327.63 179.62Z" fill="black"/>
<path d="M331.58 170.69L331.7 172.02C331.973 171.563 332.358 171.184 332.82 170.92C333.282 170.645 333.812 170.507 334.35 170.52C334.76 170.497 335.171 170.56 335.556 170.707C335.94 170.853 336.289 171.079 336.58 171.37C337.167 172.107 337.449 173.041 337.37 173.98V179.62H335.75V174C335.806 173.404 335.638 172.809 335.28 172.33C335.091 172.152 334.867 172.016 334.623 171.93C334.378 171.844 334.118 171.81 333.86 171.83C333.417 171.815 332.979 171.919 332.59 172.13C332.24 172.331 331.953 172.626 331.76 172.98V179.61H330.13V170.68L331.58 170.69Z" fill="black"/>
<path d="M342 168.53V170.69H343.69V171.89H342V177.31C341.982 177.468 341.996 177.628 342.041 177.781C342.085 177.934 342.16 178.076 342.26 178.2C342.351 178.286 342.457 178.352 342.574 178.395C342.691 178.438 342.816 178.457 342.94 178.45H343.26L343.55 178.37L343.77 179.48C343.61 179.599 343.425 179.681 343.23 179.72C343.003 179.787 342.767 179.821 342.53 179.82C342.241 179.834 341.952 179.788 341.682 179.685C341.412 179.582 341.166 179.423 340.96 179.22C340.524 178.695 340.312 178.02 340.37 177.34V171.92H339V170.72H340.42V168.56L342 168.53Z" fill="black"/>
<path d="M349.12 179.79C348.56 179.82 348 179.726 347.481 179.513C346.963 179.3 346.497 178.975 346.12 178.56C345.378 177.651 344.997 176.502 345.05 175.33V175C345.008 173.838 345.404 172.703 346.16 171.82C346.489 171.421 346.903 171.101 347.372 170.883C347.841 170.665 348.353 170.555 348.87 170.56C349.373 170.523 349.878 170.605 350.344 170.8C350.81 170.994 351.223 171.296 351.55 171.68C352.194 172.543 352.513 173.605 352.45 174.68V175.54H346.74C346.706 176.312 346.916 177.075 347.34 177.72C347.546 178.001 347.821 178.226 348.137 178.372C348.454 178.519 348.802 178.584 349.15 178.56C349.644 178.57 350.136 178.489 350.6 178.32C350.995 178.179 351.359 177.962 351.67 177.68L352.31 178.73C351.942 179.071 351.51 179.336 351.04 179.51C350.424 179.728 349.772 179.823 349.12 179.79V179.79ZM348.87 171.79C348.6 171.784 348.333 171.841 348.088 171.956C347.844 172.07 347.629 172.239 347.46 172.45C347.07 172.929 346.833 173.514 346.78 174.13V174.13H350.78V174C350.802 173.427 350.637 172.862 350.31 172.39C350.133 172.186 349.91 172.026 349.66 171.924C349.41 171.821 349.139 171.779 348.87 171.8V171.79Z" fill="black"/>
<path d="M354 175.32C353.943 174.093 354.264 172.878 354.92 171.84C355.203 171.421 355.586 171.081 356.036 170.85C356.485 170.619 356.985 170.506 357.49 170.52C358.01 170.512 358.524 170.628 358.99 170.86C359.428 171.098 359.799 171.442 360.07 171.86L360.27 170.7H361.56V179.7C361.592 180.184 361.519 180.67 361.347 181.124C361.174 181.578 360.906 181.989 360.56 182.33C359.752 182.992 358.722 183.321 357.68 183.25C357.211 183.244 356.745 183.184 356.29 183.07C355.834 182.968 355.394 182.807 354.98 182.59L355.22 181.33C355.583 181.508 355.965 181.643 356.36 181.73C356.79 181.829 357.229 181.879 357.67 181.88C358.295 181.935 358.917 181.741 359.4 181.34C359.594 181.116 359.742 180.856 359.834 180.574C359.927 180.293 359.963 179.995 359.94 179.7V178.7C359.659 179.059 359.3 179.35 358.89 179.55C358.447 179.749 357.966 179.848 357.48 179.84C356.99 179.862 356.502 179.766 356.057 179.561C355.611 179.356 355.222 179.047 354.92 178.66C354.274 177.752 353.95 176.653 354 175.54V175.32ZM355.63 175.49C355.591 176.249 355.783 177.002 356.18 177.65C356.369 177.924 356.626 178.143 356.926 178.287C357.226 178.431 357.558 178.494 357.89 178.47C358.324 178.485 358.752 178.371 359.12 178.14C359.466 177.894 359.747 177.568 359.94 177.19V173.08C359.743 172.718 359.462 172.409 359.12 172.18C358.761 171.946 358.339 171.827 357.91 171.84C357.558 171.824 357.208 171.91 356.903 172.087C356.598 172.265 356.351 172.526 356.19 172.84C355.783 173.612 355.589 174.478 355.63 175.35V175.49Z" fill="black"/>
<path d="M368.1 172.12H367.27C366.888 172.107 366.51 172.211 366.19 172.42C365.881 172.631 365.644 172.931 365.51 173.28V179.66H363.88V170.73H365.33L365.49 172.03C365.711 171.602 366.03 171.233 366.42 170.95C366.799 170.689 367.25 170.553 367.71 170.56C367.823 170.55 367.937 170.55 368.05 170.56L368.33 170.62L368.1 172.12Z" fill="black"/>
<path d="M375.28 179.62C375.233 179.347 375.193 179.107 375.16 178.9C375.125 178.695 375.105 178.488 375.1 178.28C374.787 178.719 374.385 179.087 373.92 179.36C373.441 179.641 372.896 179.79 372.34 179.79C371.568 179.835 370.809 179.581 370.22 179.08C369.966 178.816 369.769 178.502 369.644 178.157C369.518 177.813 369.466 177.446 369.49 177.08C369.472 176.689 369.554 176.3 369.729 175.95C369.904 175.6 370.166 175.3 370.49 175.08C371.329 174.555 372.311 174.303 373.3 174.36H375.07V173.47C375.081 173.241 375.044 173.013 374.961 172.799C374.879 172.586 374.752 172.392 374.59 172.23C374.406 172.068 374.193 171.944 373.961 171.865C373.729 171.787 373.484 171.754 373.24 171.77C372.779 171.745 372.325 171.887 371.96 172.17C371.802 172.283 371.674 172.433 371.588 172.608C371.503 172.783 371.462 172.976 371.47 173.17H370C369.995 172.822 370.076 172.477 370.234 172.167C370.393 171.857 370.625 171.59 370.91 171.39C371.623 170.829 372.513 170.542 373.42 170.58C374.299 170.538 375.164 170.811 375.86 171.35C376.175 171.626 376.423 171.97 376.584 172.357C376.745 172.744 376.816 173.162 376.79 173.58V177.88C376.77 178.186 376.77 178.494 376.79 178.8C376.82 179.099 376.88 179.394 376.97 179.68L375.28 179.62ZM372.58 178.43C373.147 178.438 373.704 178.278 374.18 177.97C374.589 177.748 374.913 177.396 375.1 176.97V175.52H373.28C372.711 175.493 372.15 175.67 371.7 176.02C371.522 176.157 371.377 176.332 371.276 176.533C371.176 176.734 371.122 176.955 371.12 177.18C371.11 177.354 371.138 177.528 371.202 177.69C371.266 177.853 371.364 177.999 371.49 178.12C371.8 178.359 372.19 178.47 372.58 178.43Z" fill="black"/>
<path d="M381.35 168.53V170.69H383V171.89H381.31V177.31C381.292 177.468 381.306 177.628 381.351 177.781C381.395 177.934 381.47 178.076 381.57 178.2C381.661 178.286 381.768 178.352 381.884 178.395C382.001 178.438 382.126 178.457 382.25 178.45H382.57L382.86 178.37L383.08 179.48C382.92 179.599 382.735 179.681 382.54 179.72C382.313 179.787 382.077 179.821 381.84 179.82C381.551 179.834 381.262 179.788 380.992 179.685C380.722 179.582 380.476 179.423 380.27 179.22C379.834 178.695 379.622 178.02 379.68 177.34V171.92H378.3V170.72H379.72V168.56L381.35 168.53Z" fill="black"/>
<path d="M388.48 179.79C387.92 179.822 387.36 179.728 386.841 179.515C386.322 179.302 385.857 178.976 385.48 178.56C384.731 177.655 384.346 176.504 384.4 175.33V175C384.358 173.838 384.754 172.703 385.51 171.82C385.839 171.421 386.254 171.101 386.723 170.883C387.191 170.665 387.703 170.555 388.22 170.56C388.725 170.524 389.231 170.606 389.698 170.801C390.165 170.995 390.58 171.296 390.91 171.68C391.547 172.546 391.861 173.607 391.8 174.68V175.54H386.09C386.057 176.31 386.263 177.071 386.68 177.72C386.888 178.002 387.164 178.227 387.482 178.374C387.8 178.521 388.151 178.585 388.5 178.56C388.991 178.569 389.479 178.488 389.94 178.32C390.337 178.182 390.701 177.964 391.01 177.68L391.65 178.73C391.284 179.069 390.856 179.334 390.39 179.51C389.777 179.724 389.129 179.819 388.48 179.79ZM388.22 171.79C387.95 171.785 387.683 171.841 387.438 171.956C387.194 172.07 386.979 172.239 386.81 172.45C386.42 172.929 386.183 173.514 386.13 174.13H390.13V174C390.153 173.425 389.985 172.858 389.65 172.39C389.474 172.187 389.254 172.028 389.005 171.925C388.757 171.823 388.488 171.78 388.22 171.8V171.79Z" fill="black"/>
<path d="M393.25 175.32C393.193 174.093 393.514 172.878 394.17 171.84C394.454 171.42 394.839 171.079 395.29 170.848C395.741 170.617 396.244 170.504 396.75 170.52C397.229 170.512 397.704 170.611 398.14 170.81C398.533 171.011 398.875 171.298 399.14 171.65V166.74H400.76V179.62H399.52L399.27 178.49C399.003 178.912 398.631 179.257 398.19 179.49C397.727 179.717 397.216 179.83 396.7 179.82C396.21 179.844 395.721 179.749 395.276 179.543C394.83 179.338 394.44 179.028 394.14 178.64C393.484 177.736 393.156 176.635 393.21 175.52L393.25 175.32ZM394.88 175.49C394.841 176.252 395.032 177.009 395.43 177.66C395.623 177.931 395.883 178.148 396.184 178.29C396.485 178.432 396.818 178.494 397.15 178.47C397.581 178.484 398.005 178.369 398.37 178.14C398.714 177.903 398.993 177.583 399.18 177.21V173.05C398.984 172.697 398.706 172.395 398.37 172.17C398.008 171.943 397.587 171.828 397.16 171.84C396.808 171.824 396.458 171.91 396.153 172.087C395.848 172.265 395.601 172.526 395.44 172.84C395.038 173.614 394.845 174.479 394.88 175.35V175.49Z" fill="black"/>
<path d="M408.88 170.69L409 171.86C409.283 171.441 409.664 171.098 410.11 170.86C410.594 170.619 411.129 170.499 411.67 170.51C412.21 170.496 412.743 170.642 413.2 170.93C413.662 171.216 414.015 171.649 414.2 172.16C414.47 171.672 414.854 171.257 415.32 170.95C415.804 170.654 416.362 170.501 416.93 170.51C417.338 170.491 417.745 170.566 418.119 170.729C418.494 170.892 418.826 171.139 419.09 171.45C419.678 172.267 419.958 173.266 419.88 174.27V179.61H418.25V174.25C418.309 173.594 418.151 172.937 417.8 172.38C417.632 172.192 417.423 172.044 417.189 171.949C416.955 171.854 416.702 171.813 416.45 171.83C416.196 171.82 415.943 171.866 415.709 171.967C415.475 172.067 415.267 172.219 415.1 172.41C414.743 172.817 414.528 173.33 414.49 173.87V179.61H412.86V174.25C412.913 173.605 412.747 172.96 412.39 172.42C412.229 172.223 412.023 172.068 411.79 171.965C411.558 171.863 411.304 171.816 411.05 171.83C410.622 171.815 410.199 171.923 409.83 172.14C409.505 172.349 409.248 172.648 409.09 173V179.61H407.47V170.68L408.88 170.69Z" fill="black"/>
<path d="M427.68 179.62C427.633 179.347 427.593 179.107 427.56 178.9C427.53 178.694 427.51 178.488 427.5 178.28C427.19 178.721 426.787 179.09 426.32 179.36C425.844 179.64 425.302 179.788 424.75 179.79C423.975 179.838 423.211 179.583 422.62 179.08C422.366 178.816 422.169 178.502 422.044 178.157C421.918 177.813 421.866 177.446 421.89 177.08C421.873 176.689 421.956 176.3 422.131 175.95C422.306 175.6 422.567 175.301 422.89 175.08C423.729 174.554 424.711 174.302 425.7 174.36H427.46V173.47C427.471 173.241 427.434 173.013 427.351 172.799C427.269 172.586 427.142 172.392 426.98 172.23C426.796 172.068 426.583 171.944 426.351 171.865C426.119 171.787 425.874 171.754 425.63 171.77C425.169 171.747 424.716 171.889 424.35 172.17C424.195 172.285 424.07 172.436 423.986 172.611C423.903 172.785 423.863 172.977 423.87 173.17H422.32C422.314 172.821 422.393 172.477 422.552 172.166C422.711 171.856 422.944 171.589 423.23 171.39C423.939 170.828 424.826 170.541 425.73 170.58C426.609 170.538 427.474 170.811 428.17 171.35C428.485 171.626 428.733 171.97 428.894 172.357C429.055 172.744 429.126 173.162 429.1 173.58V177.88C429.096 178.187 429.113 178.495 429.15 178.8C429.18 179.099 429.241 179.394 429.33 179.68L427.68 179.62ZM425 178.43C425.564 178.438 426.118 178.278 426.59 177.97C426.999 177.748 427.323 177.396 427.51 176.97V175.52H425.69C425.124 175.492 424.566 175.669 424.12 176.02C423.939 176.155 423.791 176.329 423.689 176.531C423.586 176.732 423.532 176.954 423.53 177.18C423.52 177.354 423.548 177.528 423.612 177.69C423.676 177.853 423.774 177.999 423.9 178.12C424.213 178.361 424.607 178.472 425 178.43V178.43Z" fill="black"/>
<path d="M432.94 170.69L433.06 172.02C433.333 171.563 433.718 171.184 434.18 170.92C434.642 170.645 435.173 170.507 435.71 170.52C436.121 170.497 436.532 170.56 436.916 170.707C437.3 170.853 437.649 171.079 437.94 171.37C438.527 172.107 438.81 173.041 438.73 173.98V179.62H437.11V174C437.166 173.404 436.999 172.809 436.64 172.33C436.451 172.152 436.227 172.016 435.983 171.93C435.738 171.844 435.478 171.81 435.22 171.83C434.778 171.815 434.339 171.919 433.95 172.13C433.597 172.331 433.307 172.625 433.11 172.98V179.61H431.49V170.68L432.94 170.69Z" fill="black"/>
<path d="M446.58 179.62C446.53 179.35 446.48 179.11 446.45 178.9C446.42 178.69 446.45 178.49 446.4 178.28C446.087 178.719 445.685 179.087 445.22 179.36C444.74 179.64 444.195 179.788 443.64 179.79C442.867 179.843 442.105 179.588 441.52 179.08C441.266 178.816 441.069 178.502 440.944 178.157C440.818 177.813 440.766 177.446 440.79 177.08C440.772 176.689 440.854 176.3 441.029 175.95C441.204 175.599 441.466 175.3 441.79 175.08C442.63 174.555 443.611 174.303 444.6 174.36H446.37V173.47C446.381 173.241 446.344 173.013 446.261 172.799C446.179 172.586 446.052 172.392 445.89 172.23C445.706 172.068 445.493 171.944 445.261 171.865C445.029 171.787 444.784 171.754 444.54 171.77C444.079 171.745 443.625 171.887 443.26 172.17C443.102 172.283 442.974 172.433 442.888 172.608C442.803 172.783 442.762 172.976 442.77 173.17H441.23C441.225 172.822 441.306 172.477 441.464 172.167C441.623 171.857 441.855 171.59 442.14 171.39C442.853 170.829 443.743 170.542 444.65 170.58C445.529 170.539 446.394 170.812 447.09 171.35C447.405 171.626 447.653 171.97 447.814 172.357C447.975 172.744 448.046 173.162 448.02 173.58V177.88C448.005 178.186 448.005 178.494 448.02 178.8C448.058 179.098 448.122 179.393 448.21 179.68L446.58 179.62ZM443.88 178.43C444.444 178.439 444.998 178.279 445.47 177.97C445.884 177.751 446.212 177.399 446.4 176.97V175.52H444.58C444.011 175.493 443.45 175.67 443 176.02C442.82 176.156 442.674 176.331 442.572 176.532C442.469 176.733 442.414 176.955 442.41 177.18C442.402 177.355 442.431 177.529 442.497 177.692C442.562 177.854 442.662 178 442.79 178.12C443.1 178.359 443.49 178.47 443.88 178.43V178.43Z" fill="black"/>
<path d="M450.09 175.32C450.033 174.093 450.354 172.879 451.01 171.84C451.293 171.42 451.679 171.079 452.13 170.848C452.581 170.617 453.083 170.504 453.59 170.52C454.107 170.513 454.617 170.629 455.08 170.86C455.517 171.098 455.889 171.442 456.16 171.86L456.36 170.7H457.65V179.7C457.68 180.184 457.606 180.669 457.434 181.123C457.261 181.577 456.994 181.988 456.65 182.33C455.838 182.991 454.805 183.32 453.76 183.25C453.291 183.245 452.825 183.184 452.37 183.07C451.914 182.968 451.474 182.807 451.06 182.59L451.31 181.33C451.668 181.51 452.048 181.645 452.44 181.73C452.87 181.829 453.309 181.879 453.75 181.88C454.375 181.935 454.997 181.741 455.48 181.34C455.674 181.116 455.822 180.856 455.914 180.574C456.007 180.293 456.043 179.995 456.02 179.7V178.7C455.757 179.057 455.415 179.348 455.02 179.55C454.577 179.749 454.095 179.848 453.61 179.84C453.12 179.862 452.632 179.766 452.186 179.561C451.741 179.356 451.351 179.047 451.05 178.66C450.404 177.752 450.08 176.653 450.13 175.54L450.09 175.32ZM451.72 175.49C451.686 176.249 451.877 177 452.27 177.65C452.459 177.924 452.716 178.143 453.016 178.287C453.316 178.431 453.648 178.494 453.98 178.47C454.414 178.486 454.842 178.371 455.21 178.14C455.555 177.894 455.837 177.568 456.03 177.19V173.08C455.836 172.716 455.554 172.407 455.21 172.18C454.851 171.945 454.429 171.826 454 171.84C453.648 171.824 453.298 171.91 452.993 172.087C452.688 172.265 452.441 172.526 452.28 172.84C451.878 173.614 451.685 174.479 451.72 175.35V175.49Z" fill="black"/>
<path d="M463.69 179.79C463.13 179.82 462.57 179.726 462.052 179.513C461.533 179.3 461.068 178.975 460.69 178.56C459.941 177.655 459.556 176.504 459.61 175.33V175C459.568 173.838 459.964 172.703 460.72 171.82C461.05 171.422 461.465 171.103 461.933 170.885C462.402 170.667 462.913 170.556 463.43 170.56C463.935 170.524 464.441 170.606 464.908 170.801C465.375 170.995 465.79 171.296 466.12 171.68C466.757 172.546 467.071 173.607 467.01 174.68V175.54H461.3C461.267 176.31 461.473 177.071 461.89 177.72C462.098 178.002 462.374 178.227 462.692 178.374C463.01 178.521 463.361 178.585 463.71 178.56C464.204 178.57 464.696 178.489 465.16 178.32C465.553 178.179 465.913 177.962 466.22 177.68L466.86 178.73C466.494 179.069 466.066 179.334 465.6 179.51C464.987 179.724 464.339 179.819 463.69 179.79V179.79ZM463.43 171.79C463.161 171.787 462.894 171.844 462.65 171.959C462.405 172.073 462.19 172.241 462.02 172.45C461.634 172.932 461.398 173.516 461.34 174.13H465.34V174C465.363 173.425 465.195 172.858 464.86 172.39C464.684 172.187 464.463 172.028 464.215 171.925C463.967 171.823 463.698 171.78 463.43 171.8V171.79Z" fill="black"/>
<path d="M470.29 170.69L470.4 171.86C470.688 171.446 471.068 171.103 471.51 170.86C471.998 170.619 472.536 170.499 473.08 170.51C473.62 170.496 474.152 170.642 474.61 170.93C475.067 171.222 475.418 171.653 475.61 172.16C475.877 171.67 476.262 171.254 476.73 170.95C477.213 170.651 477.772 170.498 478.34 170.51C478.746 170.49 479.152 170.565 479.525 170.728C479.898 170.891 480.228 171.138 480.49 171.45C481.082 172.266 481.365 173.265 481.29 174.27V179.61H479.66V174.25C479.719 173.594 479.561 172.937 479.21 172.38C479.04 172.191 478.829 172.044 478.593 171.949C478.358 171.853 478.103 171.813 477.85 171.83C477.596 171.822 477.344 171.869 477.11 171.97C476.877 172.07 476.669 172.22 476.5 172.41C476.15 172.821 475.94 173.332 475.9 173.87V179.61H474.26V174.25C474.316 173.606 474.154 172.961 473.8 172.42C473.639 172.223 473.433 172.067 473.2 171.965C472.968 171.862 472.714 171.816 472.46 171.83C472.032 171.815 471.609 171.923 471.24 172.14C470.915 172.349 470.658 172.648 470.5 173V179.61H468.88V170.68L470.29 170.69Z" fill="black"/>
<path d="M487.3 179.79C486.74 179.82 486.18 179.726 485.662 179.513C485.143 179.3 484.678 178.975 484.3 178.56C483.555 177.653 483.17 176.503 483.22 175.33V175C483.183 173.839 483.578 172.706 484.33 171.82C484.662 171.422 485.079 171.103 485.549 170.885C486.019 170.667 486.532 170.556 487.05 170.56C487.553 170.524 488.058 170.606 488.524 170.801C488.989 170.995 489.402 171.296 489.73 171.68C490.374 172.543 490.693 173.605 490.63 174.68V175.54H484.92C484.886 176.312 485.096 177.075 485.52 177.72C485.726 178.002 486 178.227 486.317 178.374C486.633 178.521 486.982 178.585 487.33 178.56C487.824 178.57 488.316 178.489 488.78 178.32C489.176 178.179 489.539 177.962 489.85 177.68L490.48 178.73C490.116 179.071 489.688 179.336 489.22 179.51C488.605 179.728 487.952 179.823 487.3 179.79V179.79ZM487.05 171.79C486.78 171.784 486.513 171.841 486.268 171.956C486.024 172.07 485.809 172.239 485.64 172.45C485.25 172.929 485.013 173.514 484.96 174.13V174.13H488.96V174C488.983 173.425 488.815 172.858 488.48 172.39C488.305 172.186 488.084 172.027 487.836 171.924C487.587 171.822 487.318 171.779 487.05 171.8V171.79Z" fill="black"/>
<path d="M493.9 170.69L494 172C494.273 171.543 494.658 171.165 495.12 170.9C495.582 170.626 496.112 170.487 496.65 170.5C497.061 170.477 497.471 170.54 497.856 170.687C498.24 170.833 498.589 171.059 498.88 171.35C499.467 172.087 499.75 173.021 499.67 173.96V179.6H498.05V174C498.106 173.404 497.938 172.809 497.58 172.33C497.391 172.152 497.167 172.016 496.923 171.93C496.678 171.844 496.418 171.81 496.16 171.83C495.717 171.815 495.279 171.919 494.89 172.13C494.54 172.331 494.253 172.626 494.06 172.98V179.61H492.43V170.68L493.9 170.69Z" fill="black"/>
<path d="M504.31 168.53V170.69H506V171.89H504.3V177.31C504.284 177.469 504.299 177.629 504.345 177.782C504.392 177.935 504.468 178.077 504.57 178.2C504.661 178.286 504.767 178.352 504.884 178.395C505.001 178.438 505.126 178.457 505.25 178.45H505.57L505.86 178.37L506.08 179.48C505.92 179.599 505.735 179.681 505.54 179.72C505.313 179.787 505.077 179.821 504.84 179.82C504.551 179.834 504.262 179.788 503.992 179.685C503.722 179.582 503.476 179.423 503.27 179.22C502.834 178.695 502.622 178.02 502.68 177.34V171.92H501.26V170.72H502.68V168.56L504.31 168.53Z" fill="black"/>
<path d="M311.35 195.35C311.304 194.165 311.688 193.004 312.43 192.08C312.804 191.68 313.256 191.362 313.759 191.144C314.261 190.926 314.802 190.814 315.35 190.814C315.897 190.814 316.439 190.926 316.941 191.144C317.444 191.362 317.896 191.68 318.27 192.08C319.015 193.003 319.399 194.165 319.35 195.35V195.53C319.398 196.713 319.018 197.874 318.28 198.8C317.906 199.201 317.453 199.521 316.95 199.74C316.446 199.959 315.904 200.072 315.355 200.072C314.806 200.072 314.263 199.959 313.76 199.74C313.257 199.521 312.804 199.201 312.43 198.8C311.686 197.881 311.302 196.722 311.35 195.54V195.35ZM312.98 195.53C312.947 196.352 313.156 197.165 313.58 197.87C313.778 198.157 314.042 198.391 314.35 198.553C314.659 198.715 315.002 198.8 315.35 198.8C315.698 198.8 316.041 198.715 316.35 198.553C316.658 198.391 316.922 198.157 317.12 197.87C317.544 197.165 317.753 196.352 317.72 195.53V195.35C317.751 194.528 317.543 193.715 317.12 193.01C316.932 192.712 316.668 192.469 316.355 192.305C316.043 192.142 315.692 192.064 315.34 192.08C314.991 192.068 314.645 192.147 314.336 192.31C314.027 192.474 313.767 192.715 313.58 193.01C313.157 193.715 312.949 194.528 312.98 195.35V195.53Z" fill="black"/>
<path d="M322 199.89V192.17H320.61V191H322V189.86C321.972 189.462 322.024 189.062 322.153 188.684C322.282 188.307 322.485 187.958 322.75 187.66C323.024 187.391 323.352 187.183 323.712 187.049C324.072 186.914 324.456 186.857 324.84 186.88C325.026 186.865 325.213 186.865 325.4 186.88L326.03 187.01L325.83 188.25L325.47 188.19C325.323 188.179 325.176 188.179 325.03 188.19C324.834 188.175 324.638 188.205 324.456 188.278C324.274 188.351 324.111 188.464 323.98 188.61C323.728 188.969 323.604 189.402 323.63 189.84V191H325.25V192.2H323.63V199.92L322 199.89Z" fill="black"/>
<path d="M336.59 199.89C336.53 199.62 336.49 199.39 336.46 199.18C336.43 198.97 336.46 198.77 336.4 198.56C336.089 198.998 335.686 199.363 335.22 199.63C334.747 199.919 334.204 200.071 333.65 200.07C333.265 200.097 332.879 200.047 332.513 199.923C332.147 199.8 331.81 199.605 331.52 199.35C331.266 199.086 331.069 198.772 330.944 198.427C330.818 198.083 330.766 197.716 330.79 197.35C330.775 196.959 330.858 196.571 331.033 196.222C331.208 195.872 331.468 195.572 331.79 195.35C332.631 194.829 333.612 194.578 334.6 194.63H336.36V193.75C336.374 193.522 336.339 193.293 336.258 193.08C336.177 192.866 336.051 192.672 335.89 192.51C335.705 192.347 335.489 192.223 335.256 192.144C335.023 192.065 334.776 192.033 334.53 192.05C334.07 192.032 333.618 192.173 333.25 192.45C333.103 192.559 332.982 192.7 332.899 192.863C332.816 193.026 332.772 193.207 332.77 193.39H331.23V193.34C331.224 192.991 331.303 192.646 331.462 192.336C331.621 192.025 331.854 191.759 332.14 191.56C332.852 190.997 333.743 190.71 334.65 190.75C335.529 190.709 336.394 190.982 337.09 191.52C337.402 191.798 337.646 192.143 337.806 192.53C337.965 192.916 338.035 193.333 338.01 193.75V198.05C338.01 198.36 338.01 198.67 338.06 198.97C338.09 199.265 338.15 199.557 338.24 199.84L336.59 199.89ZM333.89 198.71C334.453 198.714 335.006 198.555 335.48 198.25C335.89 198.028 336.213 197.676 336.4 197.25V195.8H334.58C334.014 195.773 333.456 195.95 333.01 196.3C332.83 196.436 332.683 196.611 332.581 196.812C332.478 197.013 332.423 197.234 332.42 197.46C332.414 197.634 332.443 197.807 332.507 197.969C332.57 198.13 332.667 198.277 332.79 198.4C333.105 198.637 333.498 198.748 333.89 198.71Z" fill="black"/>
<path d="M343.94 198.8C344.424 198.805 344.892 198.627 345.25 198.3C345.427 198.148 345.569 197.96 345.666 197.747C345.763 197.535 345.812 197.303 345.81 197.07H347.28V197.12C347.279 197.508 347.188 197.891 347.015 198.238C346.841 198.585 346.59 198.887 346.28 199.12C345.632 199.708 344.785 200.03 343.91 200.02C343.359 200.049 342.808 199.948 342.303 199.726C341.797 199.504 341.351 199.166 341 198.74C340.311 197.823 339.957 196.697 340 195.55V195.21C339.953 194.066 340.307 192.941 341 192.03C341.349 191.604 341.793 191.266 342.297 191.044C342.801 190.822 343.35 190.721 343.9 190.75C344.347 190.734 344.793 190.807 345.212 190.965C345.631 191.123 346.014 191.363 346.34 191.67C346.65 191.958 346.892 192.311 347.051 192.703C347.21 193.095 347.282 193.517 347.26 193.94V193.94H345.78C345.789 193.426 345.599 192.928 345.25 192.55C345.081 192.364 344.873 192.217 344.642 192.119C344.411 192.021 344.161 191.973 343.91 191.98C343.561 191.958 343.212 192.033 342.903 192.197C342.594 192.361 342.337 192.608 342.16 192.91C341.779 193.598 341.59 194.374 341.61 195.16V195.5C341.586 196.292 341.776 197.077 342.16 197.77C342.324 198.097 342.579 198.369 342.896 198.552C343.212 198.735 343.575 198.821 343.94 198.8V198.8Z" fill="black"/>
<path d="M354.91 198.57C354.646 199.026 354.271 199.407 353.82 199.68C353.358 199.945 352.833 200.08 352.3 200.07C351.874 200.095 351.447 200.023 351.053 199.86C350.658 199.698 350.305 199.448 350.02 199.13C349.403 198.295 349.112 197.264 349.2 196.23V191H350.83V196.28C350.756 196.974 350.903 197.674 351.25 198.28C351.41 198.467 351.612 198.613 351.84 198.707C352.068 198.801 352.315 198.84 352.56 198.82C353.06 198.839 353.555 198.718 353.99 198.47C354.369 198.229 354.668 197.881 354.85 197.47V191H356.47V199.92H355L354.91 198.57Z" fill="black"/>
<path d="M361.1 188.81V191H362.79V192.2H361.1V197.62C361.069 197.936 361.162 198.252 361.36 198.5C361.452 198.588 361.56 198.656 361.678 198.7C361.797 198.745 361.923 198.765 362.05 198.76C362.153 198.773 362.257 198.773 362.36 198.76C362.459 198.745 362.557 198.718 362.65 198.68L362.87 199.8C362.714 199.919 362.532 200.001 362.34 200.04C362.113 200.107 361.877 200.14 361.64 200.14C361.35 200.154 361.059 200.108 360.787 200.005C360.515 199.902 360.268 199.743 360.06 199.54C359.629 199.013 359.421 198.338 359.48 197.66V192.24H358.06V191H359.48V188.84L361.1 188.81Z" fill="black"/>
<path d="M368.23 200.07C367.67 200.1 367.11 200.006 366.591 199.793C366.072 199.58 365.607 199.255 365.23 198.84C364.479 197.932 364.094 196.777 364.15 195.6V195.24C364.112 194.079 364.508 192.946 365.26 192.06C365.594 191.66 366.014 191.339 366.488 191.121C366.962 190.903 367.478 190.793 368 190.8C368.502 190.764 369.006 190.846 369.471 191.038C369.936 191.231 370.35 191.529 370.68 191.91C371.321 192.774 371.639 193.836 371.58 194.91V195.77H365.87C365.835 196.542 366.045 197.305 366.47 197.95C366.676 198.232 366.95 198.457 367.266 198.604C367.583 198.751 367.932 198.815 368.28 198.79C368.774 198.8 369.266 198.719 369.73 198.55C370.126 198.406 370.489 198.185 370.8 197.9L371.43 198.96C371.066 199.301 370.637 199.566 370.17 199.74C369.551 199.977 368.892 200.09 368.23 200.07V200.07ZM367.98 192.07C367.71 192.065 367.442 192.121 367.198 192.236C366.953 192.35 366.739 192.519 366.57 192.73C366.177 193.204 365.94 193.787 365.89 194.4V194.45H369.89V194.31C369.91 193.735 369.742 193.17 369.41 192.7C369.239 192.495 369.022 192.332 368.778 192.224C368.533 192.117 368.267 192.067 368 192.08L367.98 192.07Z" fill="black"/>
<path d="M379 191L379.12 192.17C379.4 191.748 379.781 191.404 380.23 191.17C380.714 190.93 381.249 190.81 381.79 190.82C382.329 190.808 382.86 190.95 383.32 191.23C383.781 191.522 384.132 191.958 384.32 192.47C384.59 191.982 384.974 191.567 385.44 191.26C385.924 190.964 386.482 190.811 387.05 190.82C387.458 190.801 387.865 190.876 388.239 191.039C388.614 191.202 388.946 191.449 389.21 191.76C389.797 192.574 390.077 193.569 390 194.57V199.91H388.37V194.56C388.429 193.904 388.271 193.247 387.92 192.69C387.752 192.502 387.542 192.354 387.308 192.259C387.075 192.164 386.822 192.123 386.57 192.14C386.316 192.13 386.063 192.176 385.829 192.277C385.595 192.377 385.387 192.529 385.22 192.72C384.861 193.126 384.647 193.639 384.61 194.18V199.91H383V194.56C383.051 193.912 382.886 193.264 382.53 192.72C382.366 192.526 382.16 192.373 381.928 192.273C381.695 192.172 381.443 192.127 381.19 192.14C380.762 192.121 380.337 192.228 379.97 192.45C379.645 192.659 379.388 192.958 379.23 193.31V199.91H377.61V191H379Z" fill="black"/>
<path d="M397.84 199.89C397.78 199.62 397.74 199.39 397.71 199.18C397.68 198.97 397.71 198.77 397.65 198.56C397.339 198.998 396.936 199.363 396.47 199.63C395.997 199.919 395.454 200.071 394.9 200.07C394.515 200.097 394.129 200.047 393.763 199.923C393.397 199.8 393.06 199.605 392.77 199.35C392.516 199.086 392.319 198.772 392.194 198.427C392.068 198.083 392.016 197.716 392.04 197.35C392.025 196.959 392.108 196.571 392.283 196.222C392.458 195.872 392.718 195.572 393.04 195.35C393.881 194.829 394.862 194.578 395.85 194.63H397.61V193.75C397.624 193.522 397.589 193.293 397.508 193.08C397.427 192.866 397.301 192.672 397.14 192.51C396.955 192.347 396.739 192.223 396.506 192.144C396.273 192.065 396.026 192.033 395.78 192.05C395.32 192.032 394.868 192.173 394.5 192.45C394.353 192.559 394.232 192.7 394.149 192.863C394.066 193.026 394.022 193.207 394.02 193.39H392.48V193.34C392.474 192.991 392.553 192.646 392.712 192.336C392.871 192.025 393.104 191.759 393.39 191.56C394.102 190.997 394.993 190.71 395.9 190.75C396.779 190.709 397.644 190.982 398.34 191.52C398.652 191.798 398.896 192.143 399.056 192.53C399.215 192.916 399.285 193.333 399.26 193.75V198.05C399.26 198.36 399.26 198.67 399.31 198.97C399.34 199.265 399.4 199.557 399.49 199.84L397.84 199.89ZM395.14 198.71C395.703 198.714 396.256 198.555 396.73 198.25C397.14 198.028 397.463 197.676 397.65 197.25V195.8H395.83C395.264 195.773 394.706 195.95 394.26 196.3C394.08 196.436 393.933 196.611 393.831 196.812C393.728 197.013 393.673 197.234 393.67 197.46C393.664 197.634 393.693 197.807 393.757 197.969C393.82 198.13 393.917 198.277 394.04 198.4C394.355 198.637 394.748 198.748 395.14 198.71V198.71Z" fill="black"/>
<path d="M403.4 199.89H401.77V187H403.4V199.89Z" fill="black"/>
<path d="M407.35 191L407.46 192.33C407.738 191.875 408.122 191.494 408.58 191.22C409.049 190.954 409.581 190.819 410.12 190.83C410.531 190.805 410.942 190.867 411.327 191.014C411.711 191.161 412.06 191.388 412.35 191.68C412.937 192.417 413.22 193.351 413.14 194.29V199.92H411.52V194.32C411.577 193.724 411.409 193.129 411.05 192.65C410.861 192.472 410.637 192.336 410.393 192.25C410.148 192.164 409.888 192.13 409.63 192.15C409.184 192.136 408.743 192.24 408.35 192.45C408 192.651 407.713 192.946 407.52 193.3V199.92H405.9V191H407.35Z" fill="black"/>
<path d="M421.17 198.57C420.913 199.028 420.541 199.411 420.09 199.68C419.624 199.944 419.096 200.079 418.56 200.07C418.135 200.094 417.711 200.022 417.318 199.859C416.925 199.696 416.573 199.447 416.29 199.13C415.673 198.295 415.382 197.264 415.47 196.23V191H417.09V196.28C417.014 196.976 417.164 197.677 417.52 198.28C417.68 198.468 417.882 198.615 418.11 198.708C418.338 198.802 418.584 198.841 418.83 198.82C419.33 198.838 419.825 198.717 420.26 198.47C420.639 198.231 420.936 197.882 421.11 197.47V191H422.74V199.92H421.28L421.17 198.57Z" fill="black"/>
<path d="M427.37 188.81V191H429.06V192.2H427.37V197.62C427.352 197.777 427.366 197.935 427.41 198.087C427.455 198.238 427.53 198.378 427.63 198.5C427.722 198.588 427.83 198.656 427.949 198.7C428.067 198.745 428.193 198.765 428.32 198.76C428.423 198.773 428.527 198.773 428.63 198.76C428.729 198.743 428.826 198.716 428.92 198.68L429.14 199.8C428.982 199.917 428.802 199.999 428.61 200.04C428.379 200.108 428.14 200.141 427.9 200.14C427.611 200.154 427.322 200.108 427.052 200.005C426.782 199.901 426.536 199.743 426.33 199.54C425.895 199.014 425.684 198.34 425.74 197.66V192.24H424.32V191H425.74V188.84L427.37 188.81Z" fill="black"/>
<path d="M435 192.4L434.17 192.35C433.783 192.336 433.402 192.445 433.08 192.66C432.778 192.878 432.542 193.176 432.4 193.52V199.89H430.8V191H432.25L432.41 192.3C432.632 191.872 432.95 191.503 433.34 191.22C433.719 190.959 434.17 190.823 434.63 190.83C434.743 190.82 434.857 190.82 434.97 190.83L435.25 190.89L435 192.4Z" fill="black"/>
<path d="M438.47 188.68H436.85V187H438.47V188.68ZM438.47 199.89H436.85V191H438.47V199.89Z" fill="black"/>
<path d="M443.23 188.81V191H444.93V192.2H443.23V197.62C443.213 197.777 443.228 197.936 443.275 198.088C443.321 198.239 443.398 198.379 443.5 198.5C443.59 198.587 443.697 198.655 443.813 198.699C443.93 198.744 444.055 198.765 444.18 198.76C444.286 198.773 444.394 198.773 444.5 198.76C444.599 198.742 444.696 198.715 444.79 198.68L445.01 199.8C444.85 199.919 444.665 200.001 444.47 200.04C444.243 200.107 444.007 200.141 443.77 200.14C443.481 200.154 443.192 200.108 442.922 200.005C442.652 199.901 442.406 199.743 442.2 199.54C441.765 199.014 441.553 198.34 441.61 197.66V192.24H440.19V191H441.61V188.84L443.23 188.81Z" fill="black"/>
<path d="M448.42 188.68H446.8V187H448.42V188.68ZM448.42 199.89H446.8V191H448.42V199.89Z" fill="black"/>
<path d="M450.54 195.35C450.494 194.165 450.878 193.004 451.62 192.08C451.994 191.68 452.446 191.362 452.949 191.144C453.451 190.926 453.993 190.814 454.54 190.814C455.088 190.814 455.629 190.926 456.131 191.144C456.634 191.362 457.086 191.68 457.46 192.08C458.206 193.003 458.589 194.165 458.54 195.35V195.53C458.588 196.713 458.208 197.874 457.47 198.8C457.096 199.201 456.643 199.521 456.14 199.74C455.637 199.959 455.094 200.072 454.545 200.072C453.996 200.072 453.454 199.959 452.95 199.74C452.447 199.521 451.994 199.201 451.62 198.8C450.876 197.881 450.492 196.722 450.54 195.54V195.35ZM452.17 195.53C452.137 196.352 452.346 197.165 452.77 197.87C452.968 198.157 453.232 198.391 453.54 198.553C453.849 198.715 454.192 198.8 454.54 198.8C454.888 198.8 455.231 198.715 455.54 198.553C455.848 198.391 456.112 198.157 456.31 197.87C456.734 197.165 456.943 196.352 456.91 195.53V195.35C456.941 194.528 456.733 193.715 456.31 193.01C456.122 192.712 455.858 192.469 455.545 192.305C455.233 192.142 454.882 192.064 454.53 192.08C454.181 192.068 453.835 192.147 453.526 192.31C453.217 192.474 452.957 192.715 452.77 193.01C452.347 193.715 452.139 194.528 452.17 195.35V195.53Z" fill="black"/>
<path d="M462 191L462.12 192.33C462.393 191.87 462.778 191.488 463.24 191.22C463.706 190.956 464.234 190.821 464.77 190.83C465.181 190.805 465.592 190.867 465.977 191.014C466.361 191.161 466.71 191.388 467 191.68C467.587 192.417 467.87 193.351 467.79 194.29V199.92H466.17V194.32C466.227 193.724 466.059 193.129 465.7 192.65C465.511 192.472 465.287 192.336 465.043 192.25C464.798 192.164 464.539 192.13 464.28 192.15C463.835 192.136 463.393 192.24 463 192.45C462.65 192.651 462.363 192.946 462.17 193.3V199.92H460.55V191H462Z" fill="black"/>
<path d="M241.392 125.178L127.237 11.0226L13.0813 125.178L127.237 239.333L241.392 125.178Z" fill="#CF9D2B"/>
<g opacity="0.15">
<path d="M127.24 227.72L24.7 125.18L127.24 22.64L229.79 125.18L127.24 227.72ZM27.87 125.18L127.24 224.56L226.62 125.18L127.24 25.81L27.87 125.18ZM127.24 214.7L93 180.47L119.17 154.3L93.8199 128.93L75.82 146.93L87.72 158.83L92.64 153.9L85.6399 146.9L93.7899 138.76L109.3 154.27L88.0899 175.55L58.1699 145.63L78.62 125.18L58.1699 104.74L88.0899 74.82L109.33 96.06L93.8199 111.58L85.6699 103.43L92.67 96.43L87.75 91.5L75.8499 103.4L93.8499 121.4L119.22 96.03L93 69.89L127.22 35.66L161.45 69.89L135.29 96.06L160.67 121.43L178.67 103.43L166.78 91.53L161.85 96.46L168.85 103.46L160.7 111.61L145.15 96.06L166.4 74.82L196.32 104.74L175.87 125.18L196.32 145.63L166.4 175.55L145.15 154.3L160.67 138.79L168.82 146.93L161.82 153.93L166.75 158.86L178.64 146.96L160.64 128.96L135.29 154.3L161.47 180.47L127.24 214.7ZM96.2399 180.47L127.29 211.53L158.35 180.47L132.13 154.3L160.67 125.76L181.84 146.93L166.78 162L158.68 153.9L165.68 146.9L160.68 141.9L148.32 154.3L166.4 172.38L193.15 145.63L172.7 125.18L193.15 104.74L166.4 78L148.32 96.06L160.67 108.41L165.67 103.41L158.67 96.41L166.77 88.31L181.83 103.38L160.67 124.6L132.13 96.06L158.3 69.89L127.24 38.83L96.2399 69.89L122.41 96.06L93.8199 124.6L72.6399 103.43L87.7099 88.37L95.8 96.46L88.8 103.46L93.8 108.46L106.15 96.11L88.0899 78L61.34 104.74L81.7799 125.18L61.34 145.63L88.0899 172.38L106.17 154.3L93.8199 142L88.8199 147L95.8199 154L87.7099 162L72.6399 146.93L93.8199 125.76L122.36 154.3L96.2399 180.47ZM201.24 140.7L185.73 125.18L201.24 109.66L216.76 125.18L201.24 140.7ZM188.9 125.18L201.24 137.53L213.59 125.18L201.24 112.83L188.9 125.18ZM53.24 140.7L37.72 125.18L53.24 109.66L68.76 125.18L53.24 140.7ZM40.8899 125.18L53.24 137.53L65.5899 125.18L53.24 112.83L40.8899 125.18Z" fill="white"/>
<path d="M127.24 204.13L103.24 180.13L127.24 156.13L151.24 180.13L127.24 204.13ZM106.4 180.13L127.24 201L148.08 180.16L127.24 159.31L106.4 180.13Z" fill="white"/>
<path d="M127.24 93.59L103.24 69.59L127.24 45.59L151.24 69.59L127.24 93.59ZM106.4 69.59L127.24 90.43L148.08 69.59L127.24 48.74L106.4 69.59Z" fill="white"/>
</g>
<path d="M158.31 105.41C158.351 104.541 158.133 103.679 157.682 102.934C157.231 102.19 156.569 101.597 155.78 101.23C146.967 96.75 138.15 92.28 129.33 87.82C128.682 87.4637 127.954 87.2769 127.215 87.2769C126.475 87.2769 125.748 87.4637 125.1 87.82C116.367 92.2867 107.607 96.7333 98.8199 101.16C97.9944 101.53 97.2993 102.14 96.8249 102.911C96.3505 103.681 96.1188 104.576 96.1599 105.48C96.1599 112.68 96.1599 119.88 96.1599 127.09C96.1106 131.506 96.9967 135.881 98.7599 139.93C103.09 149.78 110.54 156.48 120.23 160.86C122.23 161.76 124.3 162.35 126.35 163.07H128.13C128.18 162.93 128.32 162.95 128.43 162.92C138.204 160.302 146.718 154.272 152.43 145.92C156.176 140.59 158.207 134.244 158.25 127.73C158.35 120.25 158.32 112.83 158.31 105.41ZM155.31 127.25C155.24 135.54 152.05 142.6 146.48 148.62C141.505 153.993 135.145 157.893 128.1 159.89C127.67 160.069 127.196 160.114 126.74 160.02C117.691 157.584 109.807 152.003 104.5 144.28C100.975 139.209 99.0969 133.176 99.1199 127C99.1199 123.64 99.1199 120.29 99.1199 116.93C99.1199 113.21 99.1199 109.49 99.1199 105.76C99.0864 105.342 99.1852 104.924 99.4023 104.565C99.6195 104.206 99.944 103.924 100.33 103.76C108.997 99.38 117.663 94.9867 126.33 90.58C126.606 90.4231 126.918 90.3405 127.235 90.3405C127.552 90.3405 127.864 90.4231 128.14 90.58C136.847 95.0133 145.563 99.4333 154.29 103.84C154.629 103.987 154.914 104.235 155.107 104.55C155.301 104.865 155.392 105.231 155.37 105.6C155.35 112.8 155.4 120 155.34 127.25H155.31Z" fill="white"/>
<path d="M151.35 105.61C143.623 101.703 135.9 97.7834 128.18 93.85C127.891 93.688 127.566 93.6028 127.235 93.6028C126.904 93.6028 126.579 93.688 126.29 93.85C124.52 94.77 122.74 95.66 120.97 96.56C119.97 97.08 119.59 97.86 119.97 98.69C120.35 99.52 121.27 99.74 122.31 99.22C123.77 98.48 125.25 97.75 126.7 96.98C126.852 96.8923 127.025 96.846 127.2 96.846C127.376 96.846 127.548 96.8923 127.7 96.98C134.74 100.56 141.79 104.133 148.85 107.7C149.03 107.764 149.183 107.887 149.284 108.048C149.386 108.209 149.43 108.4 149.41 108.59C149.41 114.78 149.41 120.97 149.41 127.16C149.43 130.996 148.496 134.776 146.69 138.16C142.54 145.93 136.04 150.89 127.83 153.78C127.443 153.925 127.017 153.925 126.63 153.78C120.751 151.852 115.509 148.357 111.47 143.67C107.402 139.163 105.113 133.331 105.03 127.26C105.03 121.02 105.03 114.78 105.03 108.54C105.011 108.362 105.054 108.183 105.15 108.032C105.246 107.882 105.391 107.768 105.56 107.71C107.06 106.983 108.55 106.23 110.03 105.45C110.267 105.357 110.475 105.204 110.635 105.006C110.794 104.808 110.9 104.572 110.941 104.321C110.983 104.07 110.958 103.813 110.87 103.575C110.782 103.336 110.634 103.124 110.44 102.96C110.191 102.734 109.873 102.598 109.538 102.575C109.202 102.551 108.868 102.641 108.59 102.83C106.8 103.75 105.02 104.67 103.21 105.55C102.845 105.695 102.536 105.955 102.331 106.29C102.125 106.626 102.034 107.018 102.07 107.41C102.07 113.97 102.07 120.53 102.07 127.09C102.033 132.189 103.471 137.189 106.21 141.49C111.04 149.2 118.01 154.14 126.6 156.91C127.044 157.06 127.526 157.06 127.97 156.91C135.161 154.743 141.513 150.422 146.17 144.53C150.146 139.695 152.339 133.64 152.38 127.38C152.38 124.28 152.38 121.17 152.38 118.06C152.38 114.51 152.38 110.96 152.38 107.41C152.42 107.04 152.341 106.667 152.156 106.343C151.971 106.02 151.689 105.764 151.35 105.61Z" fill="white"/>
<path d="M116.88 101.06C116.88 101.458 116.722 101.839 116.441 102.121C116.159 102.402 115.778 102.56 115.38 102.56C114.982 102.56 114.601 102.402 114.319 102.121C114.038 101.839 113.88 101.458 113.88 101.06C113.88 100.662 114.038 100.281 114.319 99.9993C114.601 99.718 114.982 99.56 115.38 99.56C115.778 99.56 116.159 99.718 116.441 99.9993C116.722 100.281 116.88 100.662 116.88 101.06V101.06Z" fill="white"/>
<path d="M127.28 107.55C123.779 107.541 120.353 108.566 117.432 110.497C114.512 112.428 112.227 115.179 110.864 118.405C109.502 121.63 109.122 125.186 109.774 128.626C110.425 132.066 112.078 135.237 114.525 137.741C116.973 140.245 120.105 141.97 123.529 142.7C126.954 143.429 130.517 143.131 133.773 141.843C137.028 140.555 139.831 138.333 141.828 135.458C143.826 132.582 144.929 129.18 145 125.68C145.037 123.323 144.607 120.983 143.735 118.793C142.862 116.604 141.565 114.608 139.918 112.923C138.27 111.237 136.305 109.895 134.136 108.973C131.967 108.05 129.637 107.567 127.28 107.55V107.55ZM127.28 140.11C124.351 140.124 121.485 139.268 119.043 137.651C116.601 136.034 114.695 133.728 113.565 131.026C112.435 128.324 112.133 125.348 112.696 122.474C113.26 119.6 114.664 116.958 116.731 114.883C118.797 112.808 121.433 111.394 124.305 110.818C127.176 110.243 130.154 110.533 132.861 111.652C135.567 112.771 137.88 114.668 139.507 117.103C141.134 119.538 142.002 122.401 142 125.33C141.974 129.235 140.414 132.973 137.656 135.738C134.899 138.503 131.165 140.073 127.26 140.11H127.28Z" fill="white"/>
<path d="M134.55 120.47C133.961 120.43 133.369 120.43 132.78 120.47C132.16 120.53 132.03 120.28 132.07 119.73C132.105 119.137 132.105 118.543 132.07 117.95C132.07 117.551 131.99 117.156 131.836 116.788C131.681 116.42 131.455 116.087 131.17 115.807C130.885 115.528 130.547 115.308 130.176 115.161C129.805 115.014 129.409 114.942 129.01 114.95C128.41 114.95 127.82 114.95 127.23 114.95C126.56 114.95 125.9 114.95 125.23 114.95C124.574 114.972 123.946 115.215 123.446 115.64C122.947 116.065 122.606 116.646 122.48 117.29C122.354 118.07 122.327 118.863 122.4 119.65C122.4 120.26 122.32 120.56 121.62 120.47C121.054 120.425 120.486 120.425 119.92 120.47C119.513 120.463 119.109 120.539 118.733 120.693C118.356 120.847 118.015 121.076 117.73 121.366C117.444 121.656 117.221 122 117.073 122.379C116.925 122.758 116.856 123.163 116.87 123.57V127C116.847 127.418 116.912 127.835 117.06 128.226C117.209 128.617 117.437 128.973 117.731 129.27C118.024 129.568 118.377 129.801 118.766 129.954C119.155 130.107 119.572 130.177 119.99 130.16C120.61 130.16 121.23 130.16 121.84 130.16C122.25 130.16 122.41 130.25 122.39 130.69C122.39 131.33 122.39 131.97 122.39 132.61C122.374 133.024 122.445 133.437 122.597 133.823C122.749 134.209 122.979 134.559 123.273 134.851C123.567 135.143 123.919 135.371 124.306 135.521C124.692 135.67 125.106 135.738 125.52 135.72C126.73 135.72 127.94 135.72 129.15 135.72C129.82 135.708 130.466 135.468 130.98 135.038C131.495 134.609 131.848 134.017 131.98 133.36C132.097 132.478 132.123 131.587 132.06 130.7C132.06 130.28 132.19 130.15 132.61 130.17C133.399 130.215 134.191 130.215 134.98 130.17C135.698 130.102 136.364 129.768 136.847 129.233C137.331 128.698 137.596 128.001 137.59 127.28C137.59 126.07 137.59 124.86 137.59 123.65C137.615 123.238 137.554 122.825 137.412 122.437C137.27 122.049 137.049 121.695 136.764 121.397C136.478 121.098 136.135 120.862 135.754 120.702C135.373 120.543 134.963 120.464 134.55 120.47ZM134.65 126.59C134.65 127 134.56 127.16 134.13 127.13C133.54 127.13 132.94 127.13 132.35 127.13H130.8C130.565 127.105 130.328 127.132 130.105 127.211C129.883 127.289 129.68 127.417 129.514 127.584C129.347 127.751 129.219 127.953 129.141 128.175C129.062 128.398 129.035 128.635 129.06 128.87C129.06 129.95 129.06 131.04 129.06 132.12C129.06 132.54 129 132.75 128.51 132.72C127.65 132.72 126.78 132.72 125.92 132.72C125.53 132.72 125.41 132.61 125.42 132.22C125.42 131.14 125.42 130.05 125.42 128.97C125.42 127.7 124.83 127.13 123.55 127.13C122.49 127.13 121.43 127.13 120.37 127.13C119.97 127.13 119.81 127.06 119.83 126.62C119.83 125.727 119.83 124.837 119.83 123.95C119.83 123.55 119.97 123.46 120.34 123.47C121.34 123.47 122.41 123.47 123.45 123.47C124.92 123.47 125.45 122.96 125.45 121.47C125.45 120.47 125.45 119.47 125.45 118.47C125.45 118.11 125.52 117.95 125.93 117.97C126.79 117.97 127.65 117.97 128.52 117.97C128.96 117.97 129.11 118.05 129.09 118.53C129.09 119.59 129.09 120.65 129.09 121.71C129.09 122.96 129.65 123.51 130.9 123.52C131.98 123.52 133.07 123.52 134.15 123.52C134.58 123.52 134.7 123.65 134.69 124.06C134.62 124.87 134.62 125.73 134.65 126.59Z" fill="white"/>
</svg>
