<svg width="654" height="250" viewBox="0 0 654 250" fill="none" xmlns="http://www.w3.org/2000/svg">
<path d="M13.6499 125L127.09 238.44H527.49L640.93 125L527.49 11.56H127.09L13.6499 125Z" fill="#E2243E" stroke="#E2243E" stroke-width="2.6" stroke-miterlimit="10"/>
<path d="M360.89 101.86C361.672 102.19 362.34 102.743 362.81 103.45C363.265 104.188 363.498 105.043 363.48 105.91C363.497 106.771 363.264 107.618 362.81 108.35C362.341 109.063 361.673 109.622 360.89 109.96C359.959 110.348 358.958 110.535 357.95 110.51H355.39V114H352.44V101.29H358C358.993 101.273 359.978 101.467 360.89 101.86V101.86ZM359.81 107.54C360.029 107.327 360.203 107.072 360.322 106.79C360.44 106.508 360.502 106.206 360.502 105.9C360.502 105.594 360.44 105.292 360.322 105.01C360.203 104.728 360.029 104.473 359.81 104.26C359.228 103.847 358.522 103.646 357.81 103.69H355.41V108.11H357.81C358.522 108.154 359.228 107.953 359.81 107.54V107.54Z" fill="white"/>
<path d="M375.43 111.65V114H365.57V101.29H375.19V103.65H368.5V106.42H374.41V108.71H368.5V111.65H375.43Z" fill="white"/>
<path d="M380.33 113.38C379.3 112.84 378.439 112.027 377.84 111.03C377.251 110.003 376.94 108.839 376.94 107.655C376.94 106.471 377.251 105.307 377.84 104.28C378.439 103.283 379.3 102.47 380.33 101.93C381.434 101.365 382.655 101.07 383.895 101.07C385.135 101.07 386.357 101.365 387.46 101.93C388.5 102.481 389.37 103.306 389.977 104.314C390.584 105.323 390.905 106.478 390.905 107.655C390.905 108.832 390.584 109.987 389.977 110.996C389.37 112.004 388.5 112.829 387.46 113.38C386.357 113.945 385.135 114.24 383.895 114.24C382.655 114.24 381.434 113.945 380.33 113.38V113.38ZM385.94 111.21C386.538 110.867 387.03 110.365 387.36 109.76C387.702 109.111 387.88 108.388 387.88 107.655C387.88 106.922 387.702 106.199 387.36 105.55C387.03 104.945 386.538 104.443 385.94 104.1C385.314 103.759 384.613 103.58 383.9 103.58C383.187 103.58 382.486 103.759 381.86 104.1C381.262 104.443 380.77 104.945 380.44 105.55C380.099 106.199 379.92 106.922 379.92 107.655C379.92 108.388 380.099 109.111 380.44 109.76C380.77 110.365 381.262 110.867 381.86 111.21C382.486 111.551 383.187 111.73 383.9 111.73C384.613 111.73 385.314 111.551 385.94 111.21V111.21Z" fill="white"/>
<path d="M401.53 101.86C402.312 102.19 402.98 102.743 403.45 103.45C403.905 104.188 404.138 105.043 404.12 105.91C404.137 106.771 403.904 107.618 403.45 108.35C402.981 109.063 402.313 109.622 401.53 109.96C400.599 110.348 399.598 110.535 398.59 110.51H396V114H393.05V101.29H398.56C399.58 101.261 400.593 101.456 401.53 101.86V101.86ZM400.44 107.54C400.659 107.327 400.833 107.072 400.952 106.79C401.07 106.508 401.132 106.206 401.132 105.9C401.132 105.594 401.07 105.292 400.952 105.01C400.833 104.728 400.659 104.473 400.44 104.26C399.859 103.845 399.152 103.643 398.44 103.69H396V108.11H398.4C399.126 108.166 399.848 107.964 400.44 107.54V107.54Z" fill="white"/>
<path d="M406.21 101.29H409.21V111.62H415.59V114H406.26L406.21 101.29Z" fill="white"/>
<path d="M427.05 111.65V114H417.19V101.29H426.81V103.65H420.12V106.42H426V108.71H420.09V111.65H427.05Z" fill="white"/>
<path d="M310 49.55V84.1H302V56H295.09V49.55H310Z" fill="white"/>
<path d="M323.18 82.57C320.872 81.0728 319.045 78.9407 317.92 76.43C316.583 73.4069 315.934 70.1245 316.02 66.82C315.934 63.522 316.583 60.2461 317.92 57.23C319.042 54.7148 320.869 52.5786 323.18 51.08C325.49 49.6926 328.135 48.9596 330.83 48.9596C333.525 48.9596 336.169 49.6926 338.48 51.08C340.788 52.5792 342.611 54.7155 343.73 57.23C345.067 60.2461 345.716 63.522 345.63 66.82C345.716 70.1245 345.067 73.4069 343.73 76.43C342.608 78.9399 340.785 81.0722 338.48 82.57C336.169 83.9575 333.525 84.6904 330.83 84.6904C328.135 84.6904 325.49 83.9575 323.18 82.57ZM335.79 75.22C336.99 73.4067 337.59 70.6067 337.59 66.82C337.59 63.04 336.99 60.24 335.79 58.44C335.271 57.5854 334.535 56.8835 333.657 56.4058C332.778 55.928 331.789 55.6914 330.79 55.72C329.804 55.7012 328.832 55.9428 327.969 56.4204C327.107 56.898 326.386 57.5947 325.88 58.44C324.68 60.24 324.08 63.04 324.08 66.82C324.08 70.6 324.68 73.41 325.88 75.22C326.389 76.0628 327.11 76.7569 327.972 77.2326C328.834 77.7083 329.806 77.9488 330.79 77.93C331.788 77.9586 332.776 77.7231 333.654 77.2472C334.532 76.7714 335.269 76.072 335.79 75.22Z" fill="white"/>
<path d="M356.69 82.57C354.382 81.0728 352.555 78.9407 351.43 76.43C350.093 73.4069 349.444 70.1245 349.53 66.82C349.444 63.522 350.093 60.2461 351.43 57.23C352.552 54.7148 354.379 52.5786 356.69 51.08C359.001 49.6926 361.645 48.9596 364.34 48.9596C367.035 48.9596 369.679 49.6926 371.99 51.08C374.298 52.5792 376.122 54.7155 377.24 57.23C378.577 60.2461 379.226 63.522 379.14 66.82C379.226 70.1245 378.577 73.4069 377.24 76.43C376.121 78.9386 374.302 81.0707 372 82.57C369.69 83.9575 367.045 84.6904 364.35 84.6904C361.655 84.6904 359.011 83.9575 356.7 82.57H356.69ZM369.3 75.22C370.5 73.4067 371.1 70.6067 371.1 66.82C371.1 63.04 370.5 60.24 369.3 58.44C368.78 57.5861 368.044 56.8848 367.166 56.4071C366.288 55.9295 365.299 55.6924 364.3 55.72C363.315 55.7012 362.342 55.9428 361.48 56.4204C360.618 56.898 359.897 57.5947 359.39 58.44C358.18 60.24 357.59 63.04 357.59 66.82C357.59 70.6 358.18 73.41 359.39 75.22C359.899 76.0628 360.62 76.7569 361.482 77.2326C362.344 77.7083 363.316 77.9488 364.3 77.93C365.298 77.9576 366.286 77.7216 367.164 77.2459C368.041 76.7701 368.778 76.0713 369.3 75.22Z" fill="white"/>
<path d="M390.4 76.23C390.845 76.6798 391.193 77.2165 391.422 77.8066C391.651 78.3967 391.755 79.0276 391.73 79.66C391.733 80.3347 391.649 81.0069 391.48 81.66C391.196 82.6859 390.835 83.6888 390.4 84.66L387.58 91.77H382.7L384.87 83.92C384.067 83.606 383.384 83.0459 382.92 82.32C382.431 81.5459 382.181 80.6453 382.2 79.73C382.175 79.0951 382.283 78.462 382.517 77.8713C382.752 77.2806 383.107 76.7454 383.56 76.3C384.012 75.8516 384.549 75.4985 385.14 75.2614C385.731 75.0244 386.363 74.9083 387 74.92C387.625 74.8999 388.248 75.0055 388.832 75.2305C389.416 75.4556 389.949 75.7954 390.4 76.23Z" fill="white"/>
<path d="M418.92 67C420.545 68.783 421.413 71.1285 421.34 73.54C421.35 75.5024 420.803 77.4274 419.76 79.09C418.601 80.8792 416.947 82.2932 415 83.16C412.48 84.2593 409.747 84.782 407 84.69C404.573 84.6786 402.158 84.3423 399.82 83.69C397.672 83.1424 395.64 82.2144 393.82 80.95L397 74.87C398.381 75.8892 399.927 76.6638 401.57 77.16C403.283 77.707 405.071 77.9837 406.87 77.98C408.53 78.0691 410.179 77.6655 411.61 76.82C412.159 76.4716 412.608 75.9856 412.911 75.4102C413.215 74.8348 413.362 74.1901 413.34 73.54C413.34 70.7067 411.183 69.29 406.87 69.29H403.22V64L410.32 56H395.62V49.55H419.8V54.73L412 63.62C414.624 63.9257 417.065 65.1181 418.92 67V67Z" fill="white"/>
<path d="M451.64 49.55V54.73L438.81 84.1H430.13L442.51 56.1H431.06V61.72H424V49.55H451.64Z" fill="white"/>
<path d="M483.62 76.84H478V84.1H470.2V76.84H451.59V71.46L467.88 49.55H476.27L461.17 70.33H470.45V63.86H478V70.33H483.62V76.84Z" fill="white"/>
<path d="M340.24 156.55C340.294 157.662 339.966 158.76 339.31 159.66C339.011 160.048 338.624 160.358 338.18 160.566C337.736 160.773 337.249 160.87 336.76 160.85C336.226 160.862 335.697 160.742 335.22 160.5C334.777 160.265 334.402 159.921 334.13 159.5L333.87 160.71H332.62V147.81H334.25V152.81C334.505 152.43 334.848 152.118 335.25 151.9C335.706 151.683 336.206 151.577 336.71 151.59C337.215 151.576 337.715 151.689 338.164 151.92C338.614 152.151 338.997 152.491 339.28 152.91C339.934 153.946 340.255 155.157 340.2 156.38L340.24 156.55ZM338.62 156.38C338.656 155.508 338.459 154.641 338.05 153.87C337.888 153.558 337.64 153.298 337.335 153.121C337.031 152.944 336.682 152.857 336.33 152.87C335.883 152.855 335.442 152.981 335.07 153.23C334.719 153.491 334.437 153.834 334.25 154.23V158.1C334.437 158.496 334.719 158.839 335.07 159.1C335.447 159.356 335.895 159.485 336.35 159.47C336.682 159.491 337.013 159.427 337.312 159.283C337.612 159.14 337.869 158.922 338.06 158.65C338.461 158.003 338.656 157.25 338.62 156.49V156.38Z" fill="white"/>
<path d="M345.91 160.85C345.35 160.883 344.789 160.789 344.27 160.576C343.751 160.363 343.286 160.036 342.91 159.62C342.16 158.715 341.775 157.564 341.83 156.39V156C341.787 154.838 342.184 153.703 342.94 152.82C343.271 152.425 343.686 152.108 344.155 151.892C344.623 151.676 345.134 151.566 345.65 151.57C346.152 151.533 346.656 151.614 347.121 151.807C347.587 152 348.001 152.299 348.33 152.68C348.971 153.544 349.286 154.606 349.22 155.68V156.54H343.52C343.482 157.311 343.689 158.073 344.11 158.72C344.316 159.001 344.59 159.226 344.907 159.372C345.223 159.519 345.572 159.584 345.92 159.56C346.414 159.57 346.905 159.489 347.37 159.32C347.766 159.176 348.129 158.955 348.44 158.67L349.07 159.73C348.706 160.071 348.277 160.336 347.81 160.51C347.205 160.746 346.559 160.861 345.91 160.85ZM345.66 152.85C345.391 152.843 345.123 152.897 344.879 153.01C344.634 153.123 344.419 153.29 344.25 153.5C343.861 153.98 343.625 154.565 343.57 155.18V155.18H347.57V155.05C347.593 154.475 347.424 153.908 347.09 153.44C346.912 153.241 346.69 153.086 346.442 152.987C346.194 152.888 345.926 152.848 345.66 152.87V152.85Z" fill="white"/>
<path d="M352.51 151.75L352.62 153.08C352.899 152.628 353.283 152.25 353.74 151.98C354.206 151.716 354.734 151.581 355.27 151.59C355.68 151.564 356.091 151.626 356.475 151.77C356.86 151.915 357.209 152.14 357.5 152.43C358.088 153.167 358.374 154.1 358.3 155.04V160.67H356.67V155.07C356.728 154.476 356.564 153.881 356.21 153.4C356.019 153.224 355.793 153.089 355.546 153.005C355.3 152.921 355.039 152.888 354.78 152.91C354.338 152.898 353.9 153.001 353.51 153.21C353.161 153.407 352.873 153.698 352.68 154.05V160.67H351.06V151.75H352.51Z" fill="white"/>
<path d="M364.35 160.85C363.79 160.88 363.23 160.786 362.711 160.573C362.192 160.36 361.727 160.035 361.35 159.62C360.6 158.715 360.215 157.564 360.27 156.39V156C360.227 154.838 360.624 153.703 361.38 152.82C361.712 152.425 362.127 152.109 362.595 151.893C363.064 151.677 363.574 151.566 364.09 151.57C364.593 151.534 365.099 151.616 365.565 151.808C366.032 152.001 366.448 152.299 366.78 152.68C367.416 153.546 367.731 154.607 367.67 155.68V156.54H362C361.967 157.31 362.173 158.071 362.59 158.72C362.798 159.002 363.074 159.227 363.392 159.374C363.71 159.521 364.06 159.585 364.41 159.56C364.9 159.569 365.389 159.488 365.85 159.32C366.247 159.178 366.611 158.957 366.92 158.67L367.56 159.73C367.194 160.069 366.766 160.334 366.3 160.51C365.678 160.749 365.016 160.865 364.35 160.85V160.85ZM364.09 152.85C363.822 152.844 363.557 152.9 363.314 153.012C363.071 153.125 362.858 153.292 362.69 153.5C362.301 153.98 362.065 154.565 362.01 155.18V155.18H366.01V155.05C366.033 154.475 365.864 153.908 365.53 153.44C365.35 153.24 365.127 153.085 364.877 152.986C364.627 152.887 364.357 152.847 364.09 152.87V152.85Z" fill="white"/>
<path d="M370 160.67V153H368.59V151.79H370V150.79C369.974 150.362 370.038 149.934 370.187 149.533C370.337 149.131 370.57 148.766 370.87 148.46C371.546 147.88 372.421 147.586 373.31 147.64C373.677 147.638 374.043 147.682 374.4 147.77C374.76 147.85 375.18 147.98 375.66 148.14L375.38 149.46C375.076 149.341 374.766 149.24 374.45 149.16C374.122 149.081 373.787 149.041 373.45 149.04C373.201 149.017 372.951 149.043 372.712 149.117C372.474 149.19 372.252 149.311 372.06 149.47C371.751 149.837 371.6 150.312 371.64 150.79V151.79H373.41V153H371.64V160.71L370 160.67ZM376.45 160.67H374.82V151.75H376.45V160.67Z" fill="white"/>
<path d="M381.15 149.6V151.75H382.84V153H381.15V158.41C381.132 158.568 381.146 158.728 381.19 158.881C381.235 159.034 381.31 159.176 381.41 159.3C381.502 159.386 381.611 159.453 381.729 159.496C381.848 159.539 381.974 159.557 382.1 159.55C382.203 159.563 382.307 159.563 382.41 159.55C382.509 159.533 382.606 159.506 382.7 159.47L382.92 160.59C382.762 160.707 382.582 160.789 382.39 160.83C382.159 160.898 381.92 160.931 381.68 160.93C381.391 160.944 381.102 160.898 380.832 160.795C380.562 160.691 380.316 160.533 380.11 160.33C379.675 159.804 379.463 159.13 379.52 158.45V153H378.11V151.79H379.52V149.6H381.15Z" fill="white"/>
<path d="M386.84 149.6V151.75H388.53V153H386.84V158.41C386.822 158.568 386.836 158.728 386.88 158.881C386.925 159.034 387 159.176 387.1 159.3C387.192 159.386 387.301 159.453 387.419 159.496C387.538 159.539 387.664 159.557 387.79 159.55C387.893 159.563 387.997 159.563 388.1 159.55C388.199 159.533 388.296 159.506 388.39 159.47L388.61 160.59C388.452 160.707 388.272 160.789 388.08 160.83C387.849 160.898 387.61 160.931 387.37 160.93C387.081 160.944 386.792 160.898 386.522 160.795C386.252 160.691 386.006 160.533 385.8 160.33C385.365 159.804 385.153 159.13 385.21 158.45V153H383.8V151.79H385.21V149.6H386.84Z" fill="white"/>
<path d="M394 160.85C393.44 160.88 392.88 160.786 392.362 160.573C391.843 160.36 391.378 160.035 391 159.62C390.258 158.711 389.878 157.562 389.93 156.39V156C389.888 154.838 390.284 153.703 391.04 152.82C391.37 152.426 391.783 152.109 392.25 151.893C392.717 151.677 393.226 151.567 393.74 151.57C394.244 151.533 394.749 151.614 395.216 151.807C395.683 152 396.099 152.299 396.43 152.68C397.067 153.546 397.381 154.607 397.32 155.68V156.54H391.62C391.586 157.312 391.796 158.075 392.22 158.72C392.426 159.002 392.7 159.227 393.017 159.374C393.333 159.521 393.682 159.585 394.03 159.56C394.524 159.57 395.016 159.489 395.48 159.32C395.873 159.176 396.233 158.955 396.54 158.67L397.18 159.73C396.814 160.069 396.386 160.334 395.92 160.51C395.309 160.748 394.656 160.864 394 160.85V160.85ZM393.74 152.85C393.473 152.844 393.207 152.9 392.965 153.012C392.722 153.125 392.508 153.292 392.34 153.5C391.952 153.98 391.715 154.565 391.66 155.18V155.18H395.66V155.05C395.683 154.475 395.515 153.908 395.18 153.44C394.996 153.235 394.766 153.076 394.509 152.977C394.251 152.877 393.974 152.841 393.7 152.87L393.74 152.85Z" fill="white"/>
<path d="M398.73 156.38C398.675 155.157 398.996 153.946 399.65 152.91C399.934 152.49 400.319 152.149 400.77 151.918C401.221 151.687 401.724 151.574 402.23 151.59C402.71 151.579 403.185 151.678 403.62 151.88C404.016 152.076 404.358 152.364 404.62 152.72V147.81H406.25V160.67H405L404.75 159.54C404.482 159.961 404.11 160.305 403.67 160.54C403.208 160.769 402.696 160.883 402.18 160.87C401.69 160.895 401.201 160.8 400.757 160.593C400.312 160.385 399.925 160.072 399.63 159.68C398.974 158.78 398.646 157.682 398.7 156.57L398.73 156.38ZM400.36 156.55C400.321 157.309 400.513 158.062 400.91 158.71C401.099 158.984 401.356 159.203 401.656 159.347C401.956 159.491 402.288 159.554 402.62 159.53C403.054 159.545 403.482 159.431 403.85 159.2C404.194 158.966 404.47 158.645 404.65 158.27V154.11C404.457 153.754 404.179 153.452 403.84 153.23C403.481 153.005 403.063 152.894 402.64 152.91C402.286 152.895 401.936 152.981 401.629 153.158C401.323 153.335 401.073 153.596 400.91 153.91C400.511 154.684 400.322 155.55 400.36 156.42V156.55Z" fill="white"/>
<path d="M413.57 160.67V153H412.18V151.79H413.57V150.66C413.543 150.262 413.595 149.862 413.723 149.484C413.852 149.107 414.055 148.758 414.32 148.46C414.679 148.148 415.104 147.92 415.562 147.794C416.021 147.668 416.502 147.646 416.97 147.73L417.6 147.85L417.4 149.09L417 149C416.854 148.99 416.707 148.99 416.56 149C416.363 148.985 416.165 149.015 415.982 149.088C415.798 149.16 415.633 149.274 415.5 149.42C415.25 149.779 415.13 150.213 415.16 150.65V151.78H416.77V153H415.2V160.71L413.57 160.67Z" fill="white"/>
<path d="M422.68 153.19L421.84 153.14C421.458 153.128 421.081 153.232 420.76 153.44C420.458 153.658 420.222 153.956 420.08 154.3V160.67H418.45V151.75H419.91L420.06 153.06C420.287 152.638 420.608 152.275 421 152C421.378 151.746 421.825 151.614 422.28 151.62C422.397 151.61 422.514 151.61 422.63 151.62C422.722 151.631 422.812 151.651 422.9 151.68L422.68 153.19Z" fill="white"/>
<path d="M423.82 156.13C423.776 154.95 424.155 153.794 424.89 152.87C425.264 152.47 425.716 152.152 426.219 151.934C426.721 151.716 427.263 151.604 427.81 151.604C428.357 151.604 428.899 151.716 429.401 151.934C429.904 152.152 430.356 152.47 430.73 152.87C431.474 153.789 431.858 154.948 431.81 156.13V156.31C431.858 157.493 431.478 158.654 430.74 159.58C430.381 159.999 429.932 160.33 429.426 160.55C428.92 160.77 428.371 160.873 427.82 160.85C427.268 160.874 426.717 160.772 426.211 160.55C425.705 160.328 425.256 159.993 424.9 159.57C424.155 158.651 423.771 157.492 423.82 156.31V156.13ZM425.45 156.31C425.413 157.131 425.618 157.945 426.04 158.65C426.238 158.937 426.502 159.171 426.81 159.333C427.119 159.495 427.462 159.579 427.81 159.579C428.158 159.579 428.501 159.495 428.81 159.333C429.118 159.171 429.382 158.937 429.58 158.65C430.005 157.946 430.214 157.132 430.18 156.31V156.13C430.21 155.312 430.002 154.502 429.58 153.8C429.392 153.502 429.128 153.259 428.815 153.095C428.503 152.932 428.152 152.854 427.8 152.87C427.451 152.858 427.105 152.937 426.796 153.1C426.487 153.264 426.227 153.505 426.04 153.8C425.622 154.503 425.417 155.313 425.45 156.13V156.31Z" fill="white"/>
<path d="M435.25 151.75L435.36 152.92C435.64 152.498 436.021 152.154 436.47 151.92C436.954 151.68 437.489 151.56 438.03 151.57C438.569 151.555 439.101 151.697 439.56 151.98C440.023 152.269 440.375 152.706 440.56 153.22C440.827 152.73 441.212 152.314 441.68 152.01C442.161 151.708 442.721 151.555 443.29 151.57C443.695 151.551 444.1 151.624 444.473 151.786C444.845 151.947 445.176 152.191 445.44 152.5C446.029 153.317 446.313 154.315 446.24 155.32V160.65H444.61V155.3C444.667 154.648 444.509 153.994 444.16 153.44C443.992 153.251 443.783 153.103 443.549 153.008C443.315 152.913 443.062 152.872 442.81 152.89C442.557 152.88 442.304 152.926 442.071 153.024C441.838 153.123 441.629 153.271 441.46 153.46C441.103 153.867 440.888 154.38 440.85 154.92V160.65H439.22V155.3C439.271 154.655 439.106 154.011 438.75 153.47C438.589 153.274 438.383 153.119 438.15 153.018C437.917 152.917 437.663 152.873 437.41 152.89C436.983 152.873 436.56 152.977 436.19 153.19C435.871 153.403 435.618 153.701 435.46 154.05V160.65H433.8V151.73L435.25 151.75Z" fill="white"/>
<path d="M332.57 168.93V176.93C332.601 177.509 332.501 178.087 332.278 178.622C332.054 179.157 331.713 179.635 331.28 180.02C330.355 180.792 329.174 181.192 327.97 181.14C326.8 181.186 325.656 180.785 324.77 180.02C324.349 179.628 324.018 179.148 323.802 178.614C323.586 178.08 323.49 177.505 323.52 176.93V168.93H325.15V176.93C325.127 177.324 325.185 177.719 325.319 178.09C325.453 178.461 325.661 178.801 325.93 179.09C326.195 179.346 326.509 179.546 326.852 179.68C327.195 179.814 327.562 179.878 327.93 179.87C328.718 179.901 329.487 179.621 330.07 179.09C330.354 178.81 330.575 178.472 330.719 178.1C330.862 177.727 330.924 177.328 330.9 176.93V168.93H332.57Z" fill="white"/>
<path d="M344.22 180.93H342.59L336.81 171.77H336.76V180.92H335.14V168.92H336.76L342.54 178.08V168.94H344.17L344.22 180.93Z" fill="white"/>
<path d="M356.19 178.53C356.192 178.363 356.156 178.199 356.085 178.048C356.014 177.897 355.91 177.764 355.78 177.66C355.31 177.357 354.782 177.156 354.23 177.07C353.369 176.914 352.547 176.591 351.81 176.12C351.545 175.94 351.329 175.696 351.183 175.412C351.036 175.127 350.963 174.81 350.97 174.49C350.971 174.129 351.055 173.773 351.214 173.449C351.374 173.125 351.605 172.841 351.89 172.62C352.576 172.086 353.431 171.813 354.3 171.85C355.19 171.807 356.065 172.1 356.75 172.67C357.04 172.897 357.272 173.189 357.429 173.523C357.585 173.856 357.661 174.222 357.65 174.59V174.59H356.1C356.089 174.397 356.038 174.208 355.95 174.036C355.862 173.864 355.74 173.712 355.59 173.59C355.242 173.271 354.782 173.102 354.31 173.12C353.847 173.081 353.387 173.217 353.02 173.5C352.887 173.616 352.781 173.759 352.709 173.919C352.636 174.08 352.599 174.254 352.6 174.43C352.595 174.584 352.625 174.738 352.69 174.878C352.754 175.019 352.85 175.143 352.97 175.24C353.431 175.519 353.945 175.699 354.48 175.77C355.37 175.926 356.219 176.267 356.97 176.77C357.236 176.957 357.452 177.206 357.6 177.495C357.748 177.784 357.824 178.105 357.82 178.43C357.823 178.809 357.734 179.183 357.56 179.519C357.385 179.856 357.131 180.144 356.82 180.36C356.045 180.874 355.132 181.139 354.203 181.119C353.273 181.099 352.372 180.796 351.62 180.25C351.321 180.011 351.082 179.706 350.92 179.359C350.759 179.012 350.68 178.633 350.69 178.25V178.2H352.24C352.232 178.448 352.287 178.694 352.398 178.916C352.51 179.138 352.676 179.328 352.88 179.47C353.3 179.74 353.791 179.879 354.29 179.87C354.771 179.898 355.249 179.768 355.65 179.5C355.815 179.398 355.951 179.255 356.046 179.085C356.14 178.915 356.19 178.724 356.19 178.53V178.53Z" fill="white"/>
<path d="M365.49 179.61C365.233 180.068 364.861 180.451 364.41 180.72C363.949 180.987 363.423 181.122 362.89 181.11C362.464 181.133 362.038 181.061 361.643 180.898C361.249 180.736 360.896 180.487 360.61 180.17C360.002 179.331 359.714 178.302 359.8 177.27V172H361.42V177.28C361.346 177.974 361.493 178.674 361.84 179.28C362 179.467 362.202 179.613 362.43 179.707C362.658 179.801 362.905 179.84 363.15 179.82C363.65 179.839 364.145 179.718 364.58 179.47C364.959 179.229 365.258 178.881 365.44 178.47V172H367.06V180.92H365.6L365.49 179.61Z" fill="white"/>
<path d="M377 176.81C377.054 177.922 376.726 179.02 376.07 179.92C375.776 180.31 375.39 180.623 374.948 180.83C374.505 181.038 374.018 181.134 373.53 181.11C373.032 181.118 372.539 181.023 372.08 180.83C371.661 180.648 371.297 180.363 371.02 180V184.36H369.4V172H370.64L370.9 173.16C371.168 172.739 371.54 172.395 371.98 172.16C372.451 171.924 372.973 171.807 373.5 171.82C374.006 171.803 374.507 171.914 374.958 172.143C375.409 172.372 375.795 172.712 376.08 173.13C376.735 174.169 377.057 175.383 377 176.61V176.81ZM375.37 176.64C375.406 175.77 375.199 174.908 374.77 174.15C374.601 173.836 374.348 173.576 374.038 173.399C373.729 173.222 373.376 173.136 373.02 173.15C372.597 173.134 372.179 173.245 371.82 173.47C371.485 173.685 371.21 173.981 371.02 174.33V178.65C371.21 178.999 371.485 179.295 371.82 179.51C372.187 179.723 372.606 179.831 373.03 179.82C373.37 179.839 373.709 179.771 374.015 179.622C374.321 179.473 374.585 179.249 374.78 178.97C375.197 178.322 375.403 177.56 375.37 176.79V176.64Z" fill="white"/>
<path d="M386.62 176.81C386.677 177.921 386.352 179.019 385.7 179.92C385.405 180.312 385.018 180.625 384.573 180.833C384.129 181.04 383.64 181.135 383.15 181.11C382.656 181.118 382.165 181.022 381.71 180.83C381.292 180.648 380.927 180.363 380.65 180V184.36H379V172H380.25L380.5 173.16C380.771 172.738 381.147 172.394 381.59 172.16C382.061 171.923 382.583 171.806 383.11 171.82C383.614 171.805 384.114 171.917 384.563 172.146C385.012 172.375 385.396 172.713 385.68 173.13C386.34 174.166 386.662 175.383 386.6 176.61L386.62 176.81ZM385 176.64C385.036 175.77 384.829 174.908 384.4 174.15C384.229 173.836 383.973 173.576 383.662 173.399C383.352 173.223 382.997 173.136 382.64 173.15C382.22 173.133 381.805 173.244 381.45 173.47C381.115 173.685 380.84 173.981 380.65 174.33V178.65C380.84 178.999 381.115 179.295 381.45 179.51C381.816 179.725 382.236 179.832 382.66 179.82C383 179.839 383.339 179.771 383.645 179.622C383.952 179.473 384.215 179.249 384.41 178.97C384.827 178.322 385.033 177.56 385 176.79V176.64Z" fill="white"/>
<path d="M388.24 176.39C388.196 175.21 388.575 174.054 389.31 173.13C389.684 172.73 390.136 172.412 390.639 172.194C391.141 171.976 391.682 171.864 392.23 171.864C392.777 171.864 393.319 171.976 393.821 172.194C394.323 172.412 394.776 172.73 395.15 173.13C395.894 174.049 396.278 175.208 396.23 176.39V176.57C396.277 177.753 395.898 178.914 395.16 179.84C394.786 180.241 394.333 180.561 393.83 180.78C393.326 180.999 392.784 181.112 392.235 181.112C391.686 181.112 391.143 180.999 390.64 180.78C390.137 180.561 389.684 180.241 389.31 179.84C388.572 178.918 388.192 177.76 388.24 176.58V176.39ZM389.86 176.57C389.826 177.392 390.034 178.206 390.46 178.91C390.658 179.197 390.922 179.431 391.23 179.593C391.539 179.755 391.882 179.839 392.23 179.839C392.578 179.839 392.921 179.755 393.229 179.593C393.538 179.431 393.802 179.197 394 178.91C394.425 178.206 394.634 177.392 394.6 176.57V176.39C394.63 175.572 394.422 174.762 394 174.06C393.812 173.762 393.548 173.519 393.235 173.355C392.922 173.192 392.572 173.114 392.22 173.13C391.871 173.118 391.525 173.197 391.216 173.36C390.907 173.524 390.647 173.765 390.46 174.06C390.038 174.762 389.83 175.572 389.86 176.39V176.57Z" fill="white"/>
<path d="M402.44 173.45H401.6C401.218 173.438 400.841 173.543 400.52 173.75C400.218 173.968 399.982 174.266 399.84 174.61V180.98H398.21V172H399.67L399.82 173.31C400.042 172.879 400.364 172.509 400.76 172.23C401.135 171.969 401.583 171.833 402.04 171.84C402.156 171.83 402.274 171.83 402.39 171.84L402.66 171.9L402.44 173.45Z" fill="white"/>
<path d="M406.52 169.86V172H408.21V173.21H406.52V178.62C406.488 178.939 406.581 179.258 406.78 179.51C406.97 179.678 407.217 179.767 407.47 179.76C407.573 179.774 407.677 179.774 407.78 179.76C407.879 179.745 407.977 179.718 408.07 179.68L408.3 180.8C408.139 180.917 407.955 180.998 407.76 181.04C407.533 181.107 407.297 181.14 407.06 181.14C406.771 181.154 406.482 181.108 406.212 181.005C405.942 180.901 405.696 180.743 405.49 180.54C405.273 180.281 405.109 179.981 405.008 179.659C404.906 179.336 404.87 178.997 404.9 178.66V173.25H403.48V172H404.9V169.85L406.52 169.86Z" fill="white"/>
<path d="M419.81 179.61C419.553 180.068 419.181 180.451 418.73 180.72C418.268 180.987 417.743 181.122 417.21 181.11C416.784 181.133 416.358 181.061 415.963 180.898C415.569 180.736 415.216 180.487 414.93 180.17C414.322 179.331 414.034 178.302 414.12 177.27V172H415.74V177.28C415.666 177.974 415.813 178.674 416.16 179.28C416.32 179.467 416.522 179.613 416.75 179.707C416.978 179.801 417.224 179.84 417.47 179.82C417.97 179.839 418.465 179.718 418.9 179.47C419.279 179.229 419.578 178.881 419.76 178.47V172H421.38V180.92H419.92L419.81 179.61Z" fill="white"/>
<path d="M425.2 172L425.31 173.33C425.588 172.878 425.973 172.5 426.43 172.23C426.896 171.966 427.424 171.831 427.96 171.84C428.37 171.815 428.78 171.877 429.165 172.022C429.549 172.167 429.898 172.391 430.19 172.68C430.774 173.419 431.057 174.351 430.98 175.29V180.92H429.36V175.32C429.42 174.724 429.252 174.127 428.89 173.65C428.701 173.474 428.477 173.339 428.232 173.254C427.987 173.17 427.728 173.138 427.47 173.16C427.028 173.146 426.589 173.25 426.2 173.46C425.851 173.657 425.563 173.948 425.37 174.3V180.92H423.75V172H425.2Z" fill="white"/>
<path d="M433 176.64C432.945 175.417 433.266 174.206 433.92 173.17C434.203 172.75 434.589 172.409 435.04 172.178C435.491 171.947 435.993 171.834 436.5 171.85C436.979 171.839 437.455 171.938 437.89 172.14C438.283 172.339 438.626 172.627 438.89 172.98V168.07H440.51V180.93H439.27L439 179.8C438.732 180.221 438.36 180.565 437.92 180.8C437.457 181.028 436.946 181.141 436.43 181.13C435.939 181.151 435.45 181.054 435.005 180.847C434.559 180.64 434.17 180.329 433.87 179.94C433.222 179.036 432.898 177.941 432.95 176.83L433 176.64ZM434.63 176.81C434.592 177.572 434.784 178.328 435.18 178.98C435.371 179.25 435.629 179.467 435.929 179.609C436.228 179.751 436.559 179.813 436.89 179.79C437.32 179.805 437.746 179.69 438.11 179.46C438.454 179.223 438.733 178.904 438.92 178.53V174.37C438.723 174.017 438.446 173.715 438.11 173.49C437.749 173.27 437.332 173.159 436.91 173.17C436.556 173.155 436.206 173.241 435.899 173.418C435.593 173.595 435.343 173.856 435.18 174.17C434.781 174.944 434.591 175.81 434.63 176.68V176.81Z" fill="white"/>
<path d="M446.63 181.11C446.07 181.14 445.51 181.046 444.991 180.833C444.473 180.62 444.007 180.295 443.63 179.88C442.888 178.971 442.507 177.822 442.56 176.65V176.28C442.516 175.121 442.913 173.988 443.67 173.11C443.999 172.711 444.414 172.391 444.882 172.173C445.351 171.955 445.863 171.845 446.38 171.85C446.882 171.814 447.386 171.896 447.851 172.088C448.316 172.281 448.73 172.579 449.06 172.96C449.701 173.824 450.016 174.886 449.95 175.96V176.82H444.25C444.216 177.592 444.426 178.355 444.85 179C445.056 179.282 445.33 179.507 445.646 179.654C445.963 179.801 446.312 179.865 446.66 179.84C447.154 179.85 447.646 179.769 448.11 179.6C448.505 179.454 448.868 179.233 449.18 178.95L449.81 180.01C449.444 180.349 449.016 180.614 448.55 180.79C447.937 181.021 447.285 181.13 446.63 181.11V181.11ZM446.38 173.11C446.111 173.103 445.843 173.157 445.599 173.27C445.354 173.383 445.139 173.55 444.97 173.76C444.582 174.24 444.345 174.825 444.29 175.44V175.44H448.29V175.31C448.313 174.735 448.144 174.168 447.81 173.7C447.632 173.501 447.41 173.346 447.162 173.247C446.914 173.148 446.646 173.108 446.38 173.13V173.11Z" fill="white"/>
<path d="M456 173.45H455.16C454.778 173.438 454.401 173.543 454.08 173.75C453.777 173.968 453.542 174.266 453.4 174.61V180.98H451.78V172H453.23L453.38 173.31C453.601 172.879 453.924 172.509 454.32 172.23C454.695 171.969 455.143 171.833 455.6 171.84C455.716 171.83 455.833 171.83 455.95 171.84L456.22 171.9L456 173.45Z" fill="white"/>
<path d="M309 201.19C308.94 200.92 308.9 200.69 308.87 200.48C308.84 200.274 308.82 200.068 308.81 199.86C308.502 200.301 308.099 200.666 307.63 200.93C307.157 201.219 306.614 201.371 306.06 201.37C305.677 201.398 305.291 201.348 304.927 201.224C304.563 201.101 304.228 200.905 303.94 200.65C303.684 200.387 303.486 200.073 303.36 199.728C303.234 199.384 303.183 199.016 303.21 198.65C303.193 198.259 303.276 197.87 303.451 197.52C303.626 197.17 303.887 196.871 304.21 196.65C305.051 196.129 306.032 195.878 307.02 195.93H308.78V195.05C308.794 194.82 308.759 194.59 308.678 194.375C308.597 194.16 308.472 193.964 308.31 193.8C307.932 193.479 307.445 193.318 306.95 193.35C306.495 193.332 306.047 193.469 305.68 193.74C305.529 193.849 305.407 193.991 305.321 194.156C305.236 194.321 305.191 194.504 305.19 194.69H303.65V194.64C303.645 194.292 303.725 193.947 303.883 193.637C304.042 193.326 304.274 193.06 304.56 192.86C305.272 192.297 306.163 192.01 307.07 192.05C307.949 192.009 308.814 192.282 309.51 192.82C309.823 193.095 310.068 193.439 310.228 193.823C310.387 194.208 310.456 194.624 310.43 195.04V199.34C310.427 199.647 310.443 199.955 310.48 200.26C310.509 200.556 310.57 200.847 310.66 201.13L309 201.19ZM306.3 200.01C306.864 200.014 307.416 199.855 307.89 199.55C308.299 199.328 308.623 198.976 308.81 198.55V197.1H307C306.434 197.073 305.876 197.25 305.43 197.6C305.25 197.736 305.104 197.911 305.002 198.112C304.9 198.313 304.844 198.535 304.84 198.76C304.832 198.934 304.861 199.107 304.925 199.269C304.989 199.431 305.086 199.578 305.21 199.7C305.527 199.933 305.919 200.04 306.31 200L306.3 200.01Z" fill="white"/>
<path d="M318.45 192.27L318.57 193.6C318.848 193.148 319.233 192.77 319.69 192.5C320.156 192.236 320.684 192.101 321.22 192.11C321.63 192.085 322.04 192.147 322.425 192.292C322.809 192.437 323.158 192.661 323.45 192.95C324.034 193.689 324.317 194.621 324.24 195.56V201.19H322.62V195.6C322.677 195.001 322.509 194.403 322.15 193.92C321.961 193.744 321.737 193.609 321.492 193.524C321.247 193.44 320.988 193.408 320.73 193.43C320.288 193.415 319.849 193.519 319.46 193.73C319.111 193.927 318.823 194.218 318.63 194.57V201.19H317V192.27H318.45Z" fill="white"/>
<path d="M332.26 199.87C332.003 200.328 331.631 200.711 331.18 200.98C330.572 201.31 329.875 201.435 329.191 201.338C328.506 201.241 327.871 200.926 327.38 200.44C326.773 199.597 326.486 198.565 326.57 197.53V192.27H328.19V197.55C328.116 198.244 328.263 198.944 328.61 199.55C328.77 199.737 328.972 199.883 329.2 199.977C329.428 200.071 329.674 200.11 329.92 200.09C330.42 200.109 330.915 199.988 331.35 199.74C331.729 199.499 332.028 199.151 332.21 198.74V192.31H333.83V201.23H332.37L332.26 199.87Z" fill="white"/>
<path d="M338.45 190.12V192.27H340.15V193.48H338.45V198.89C338.434 199.049 338.449 199.209 338.495 199.362C338.542 199.515 338.618 199.657 338.72 199.78C338.811 199.866 338.918 199.932 339.035 199.975C339.151 200.018 339.276 200.037 339.4 200.03C339.503 200.044 339.607 200.044 339.71 200.03L340 199.96L340.23 201.07C340.07 201.189 339.886 201.271 339.69 201.31C339.463 201.377 339.227 201.411 338.99 201.41C338.701 201.424 338.412 201.378 338.142 201.275C337.872 201.171 337.626 201.013 337.42 200.81C336.984 200.285 336.773 199.61 336.83 198.93V193.52H335.41V192.31H336.83V190.16L338.45 190.12Z" fill="white"/>
<path d="M346.1 193.71L345.27 193.66C344.888 193.647 344.51 193.751 344.19 193.96C343.888 194.178 343.652 194.476 343.51 194.82V201.19H341.88V192.27H343.33L343.49 193.58C343.707 193.146 344.03 192.775 344.43 192.5C344.804 192.238 345.253 192.101 345.71 192.11C345.823 192.1 345.937 192.1 346.05 192.11L346.33 192.17L346.1 193.71Z" fill="white"/>
<path d="M349.55 190H347.93V188.34H349.55V190ZM349.55 201.2H347.93V192.28H349.55V201.2Z" fill="white"/>
<path d="M354.31 190.12V192.27H356V193.48H354.31V198.89C354.292 199.048 354.306 199.208 354.351 199.361C354.395 199.514 354.47 199.656 354.57 199.78C354.662 199.866 354.771 199.933 354.889 199.976C355.008 200.019 355.134 200.037 355.26 200.03C355.363 200.043 355.467 200.043 355.57 200.03L355.86 199.96L356.08 201.07C355.922 201.187 355.742 201.269 355.55 201.31C355.319 201.378 355.08 201.411 354.84 201.41C354.551 201.424 354.262 201.378 353.992 201.275C353.722 201.171 353.476 201.013 353.27 200.81C352.834 200.285 352.622 199.61 352.68 198.93V193.52H351.27V192.31H352.68V190.16L354.31 190.12Z" fill="white"/>
<path d="M359.49 190H357.87V188.34H359.49V190ZM359.49 201.2H357.87V192.28H359.49V201.2Z" fill="white"/>
<path d="M361.61 196.65C361.566 195.47 361.945 194.314 362.68 193.39C363.054 192.99 363.506 192.672 364.009 192.454C364.511 192.236 365.053 192.124 365.6 192.124C366.148 192.124 366.689 192.236 367.191 192.454C367.694 192.672 368.146 192.99 368.52 193.39C369.264 194.309 369.648 195.468 369.6 196.65V196.83C369.648 198.013 369.268 199.174 368.53 200.1C368.171 200.519 367.722 200.85 367.216 201.07C366.71 201.29 366.161 201.393 365.61 201.37C365.058 201.394 364.507 201.292 364.001 201.07C363.495 200.848 363.046 200.513 362.69 200.09C361.945 199.171 361.561 198.012 361.61 196.83V196.65ZM363.24 196.83C363.203 197.651 363.408 198.465 363.83 199.17C364.018 199.468 364.282 199.711 364.595 199.875C364.908 200.038 365.258 200.116 365.61 200.1C365.959 200.112 366.305 200.033 366.614 199.87C366.923 199.706 367.183 199.465 367.37 199.17C367.803 198.469 368.016 197.654 367.98 196.83V196.65C368.012 195.83 367.8 195.019 367.37 194.32C367.182 194.022 366.918 193.779 366.605 193.615C366.293 193.452 365.942 193.374 365.59 193.39C365.241 193.378 364.895 193.457 364.586 193.62C364.277 193.784 364.017 194.025 363.83 194.32C363.412 195.023 363.207 195.833 363.24 196.65V196.83Z" fill="white"/>
<path d="M373 192.27L373.11 193.6C373.388 193.148 373.773 192.77 374.23 192.5C374.696 192.236 375.224 192.101 375.76 192.11C376.175 192.089 376.59 192.158 376.977 192.311C377.363 192.465 377.712 192.7 378 193C378.584 193.739 378.866 194.671 378.79 195.61V201.24H377.2V195.6C377.261 195.001 377.094 194.4 376.73 193.92C376.541 193.743 376.317 193.608 376.072 193.524C375.827 193.439 375.568 193.407 375.31 193.43C374.867 193.416 374.429 193.52 374.04 193.73C373.691 193.927 373.403 194.218 373.21 194.57V201.19H371.59V192.27H373Z" fill="white"/>
<path d="M393 197.07C393.054 198.181 392.729 199.277 392.08 200.18C391.781 200.567 391.393 200.877 390.949 201.084C390.506 201.291 390.019 201.389 389.53 201.37C389.033 201.377 388.539 201.281 388.08 201.09C387.663 200.906 387.299 200.621 387.02 200.26V204.62H385.4V192.27H386.64L386.9 193.43C387.169 193.006 387.545 192.661 387.99 192.43C388.457 192.194 388.976 192.077 389.5 192.09C390.006 192.073 390.507 192.184 390.958 192.413C391.409 192.642 391.795 192.982 392.08 193.4C392.735 194.438 393.057 195.653 393 196.88V197.07ZM391.38 196.9C391.416 196.03 391.209 195.168 390.78 194.41C390.608 194.097 390.352 193.837 390.042 193.661C389.731 193.484 389.377 193.397 389.02 193.41C388.597 193.394 388.179 193.505 387.82 193.73C387.487 193.948 387.213 194.243 387.02 194.59V198.91C387.213 199.257 387.487 199.552 387.82 199.77C388.187 199.982 388.606 200.09 389.03 200.08C389.37 200.099 389.709 200.031 390.015 199.882C390.321 199.733 390.585 199.509 390.78 199.23C391.204 198.585 391.414 197.822 391.38 197.05V196.9Z" fill="white"/>
<path d="M399.2 193.71L398.36 193.66C397.978 193.648 397.601 193.752 397.28 193.96C396.978 194.178 396.742 194.476 396.6 194.82V201.19H395V192.27H396.45L396.6 193.58C396.822 193.149 397.144 192.779 397.54 192.5C397.915 192.239 398.363 192.103 398.82 192.11C398.936 192.1 399.054 192.1 399.17 192.11L399.44 192.17L399.2 193.71Z" fill="white"/>
<path d="M400.34 196.65C400.294 195.468 400.678 194.31 401.42 193.39C401.794 192.99 402.246 192.672 402.749 192.454C403.251 192.236 403.793 192.124 404.34 192.124C404.888 192.124 405.429 192.236 405.931 192.454C406.434 192.672 406.886 192.99 407.26 193.39C407.996 194.313 408.376 195.47 408.33 196.65V196.83C408.382 198.014 408.002 199.176 407.26 200.1C406.886 200.5 406.434 200.818 405.931 201.036C405.429 201.254 404.888 201.366 404.34 201.366C403.793 201.366 403.251 201.254 402.749 201.036C402.246 200.818 401.794 200.5 401.42 200.1C400.675 199.181 400.291 198.022 400.34 196.84V196.65ZM401.97 196.83C401.936 197.652 402.145 198.466 402.57 199.17C402.768 199.457 403.032 199.691 403.34 199.853C403.649 200.015 403.992 200.099 404.34 200.099C404.688 200.099 405.031 200.015 405.34 199.853C405.648 199.691 405.912 199.457 406.11 199.17C406.535 198.466 406.744 197.652 406.71 196.83V196.65C406.742 195.83 406.53 195.019 406.1 194.32C405.913 194.023 405.65 193.781 405.34 193.618C405.029 193.455 404.681 193.376 404.33 193.39C403.98 193.372 403.632 193.448 403.322 193.612C403.012 193.776 402.752 194.02 402.57 194.32C402.148 195.022 401.94 195.832 401.97 196.65V196.83Z" fill="white"/>
<path d="M410 196.9C409.945 195.677 410.267 194.466 410.92 193.43C411.203 193.011 411.587 192.671 412.036 192.44C412.485 192.209 412.985 192.096 413.49 192.11C414.007 192.098 414.519 192.215 414.98 192.45C415.418 192.688 415.789 193.032 416.06 193.45L416.26 192.28H417.55V201.28C417.582 201.766 417.51 202.253 417.337 202.709C417.165 203.164 416.896 203.577 416.55 203.92C415.742 204.582 414.712 204.911 413.67 204.84C413.205 204.835 412.741 204.774 412.29 204.66C411.832 204.555 411.389 204.394 410.97 204.18L411.22 202.92C411.58 203.096 411.96 203.23 412.35 203.32C412.78 203.419 413.219 203.469 413.66 203.47C414.285 203.525 414.907 203.331 415.39 202.93C415.585 202.704 415.733 202.442 415.826 202.159C415.918 201.876 415.954 201.577 415.93 201.28V200.28C415.664 200.634 415.322 200.924 414.93 201.13C414.487 201.329 414.006 201.428 413.52 201.42C413.03 201.445 412.542 201.35 412.097 201.143C411.652 200.935 411.265 200.622 410.97 200.23C410.321 199.327 409.996 198.231 410.05 197.12L410 196.9ZM411.62 197.07C411.586 197.829 411.777 198.58 412.17 199.23C412.359 199.504 412.616 199.723 412.916 199.867C413.216 200.011 413.548 200.074 413.88 200.05C414.315 200.067 414.745 199.948 415.11 199.71C415.458 199.47 415.74 199.147 415.93 198.77V194.66C415.733 194.298 415.452 193.989 415.11 193.76C414.748 193.533 414.327 193.418 413.9 193.43C413.548 193.416 413.199 193.502 412.894 193.679C412.59 193.856 412.342 194.117 412.18 194.43C411.778 195.204 411.585 196.069 411.62 196.94V197.07Z" fill="white"/>
<path d="M424.14 193.71L423.3 193.66C422.918 193.648 422.541 193.752 422.22 193.96C421.918 194.178 421.682 194.476 421.54 194.82V201.19H419.92V192.27H421.37L421.52 193.58C421.741 193.149 422.064 192.779 422.46 192.5C422.835 192.239 423.283 192.103 423.74 192.11C423.856 192.1 423.973 192.1 424.09 192.11L424.36 192.17L424.14 193.71Z" fill="white"/>
<path d="M431.31 201.19C431.25 200.92 431.21 200.69 431.18 200.48C431.148 200.275 431.132 200.068 431.13 199.86C430.816 200.299 430.41 200.664 429.94 200.93C429.468 201.219 428.924 201.371 428.37 201.37C427.987 201.396 427.602 201.346 427.238 201.223C426.874 201.099 426.538 200.905 426.25 200.65C425.994 200.387 425.796 200.073 425.67 199.728C425.544 199.384 425.493 199.016 425.52 198.65C425.503 198.259 425.586 197.87 425.761 197.52C425.936 197.17 426.197 196.871 426.52 196.65C427.361 196.129 428.342 195.878 429.33 195.93H431.1V195.05C431.112 194.82 431.075 194.589 430.993 194.374C430.91 194.159 430.783 193.963 430.62 193.8C430.245 193.481 429.761 193.319 429.27 193.35C428.811 193.329 428.359 193.467 427.99 193.74C427.84 193.849 427.717 193.991 427.631 194.156C427.546 194.321 427.501 194.504 427.5 194.69H425.96V194.64C425.957 194.292 426.038 193.948 426.197 193.638C426.355 193.328 426.586 193.061 426.87 192.86C427.583 192.299 428.474 192.012 429.38 192.05C430.259 192.009 431.124 192.282 431.82 192.82C432.133 193.095 432.378 193.439 432.538 193.823C432.697 194.208 432.766 194.624 432.74 195.04V199.34C432.74 199.65 432.74 199.96 432.79 200.26C432.819 200.556 432.88 200.847 432.97 201.13L431.31 201.19ZM428.61 200.01C429.174 200.014 429.726 199.855 430.2 199.55C430.612 199.328 430.939 198.977 431.13 198.55V197.1H429.3C428.734 197.074 428.177 197.252 427.73 197.6C427.552 197.737 427.407 197.912 427.306 198.113C427.206 198.314 427.152 198.535 427.15 198.76C427.141 198.934 427.169 199.108 427.232 199.27C427.296 199.433 427.394 199.579 427.52 199.7C427.832 199.935 428.222 200.043 428.61 200V200.01Z" fill="white"/>
<path d="M436.56 192.27L436.67 193.44C436.952 193.02 437.333 192.677 437.78 192.44C438.264 192.2 438.799 192.08 439.34 192.09C439.879 192.075 440.411 192.217 440.87 192.5C441.329 192.793 441.681 193.229 441.87 193.74C442.13 193.248 442.512 192.832 442.98 192.53C443.461 192.228 444.022 192.075 444.59 192.09C444.997 192.071 445.403 192.145 445.777 192.306C446.151 192.468 446.484 192.712 446.75 193.02C447.331 193.84 447.61 194.837 447.54 195.84V201.17H445.91V195.82C445.967 195.167 445.809 194.514 445.46 193.96C445.293 193.77 445.084 193.621 444.85 193.526C444.615 193.43 444.362 193.391 444.11 193.41C443.857 193.4 443.604 193.445 443.371 193.544C443.138 193.643 442.929 193.791 442.76 193.98C442.407 194.39 442.193 194.901 442.15 195.44V201.17H440.52V195.82C440.557 195.172 440.374 194.53 440 194C439.839 193.804 439.633 193.649 439.4 193.548C439.167 193.447 438.913 193.403 438.66 193.42C438.233 193.403 437.81 193.507 437.44 193.72C437.121 193.933 436.868 194.231 436.71 194.58V201.18H435.09V192.26L436.56 192.27Z" fill="white"/>
<path d="M451.32 192.27L451.43 193.44C451.71 193.018 452.092 192.674 452.54 192.44C453.025 192.2 453.56 192.08 454.1 192.09C454.639 192.075 455.171 192.217 455.63 192.5C456.093 192.789 456.446 193.226 456.63 193.74C456.897 193.25 457.282 192.834 457.75 192.53C458.232 192.228 458.792 192.075 459.36 192.09C459.766 192.071 460.17 192.144 460.543 192.306C460.916 192.467 461.247 192.711 461.51 193.02C462.1 193.837 462.383 194.835 462.31 195.84V201.17H460.68V195.82C460.737 195.168 460.579 194.514 460.23 193.96C460.062 193.771 459.853 193.623 459.619 193.528C459.385 193.432 459.132 193.392 458.88 193.41C458.627 193.4 458.375 193.446 458.141 193.544C457.908 193.643 457.699 193.791 457.53 193.98C457.173 194.387 456.959 194.9 456.92 195.44V201.17H455.29V195.82C455.34 195.175 455.175 194.531 454.82 193.99C454.659 193.794 454.453 193.639 454.22 193.538C453.987 193.437 453.734 193.393 453.48 193.41C453.053 193.393 452.631 193.497 452.26 193.71C451.942 193.923 451.689 194.221 451.53 194.57V201.17H449.91V192.25L451.32 192.27Z" fill="white"/>
<path d="M468.32 201.37C467.76 201.401 467.2 201.307 466.681 201.094C466.162 200.881 465.697 200.555 465.32 200.14C464.571 199.235 464.185 198.084 464.24 196.91V196.54C464.198 195.381 464.595 194.249 465.35 193.37C465.679 192.971 466.093 192.651 466.562 192.433C467.031 192.215 467.543 192.105 468.06 192.11C468.562 192.073 469.066 192.154 469.532 192.347C469.997 192.54 470.411 192.839 470.74 193.22C471.384 194.083 471.703 195.145 471.64 196.22V197H465.93C465.897 197.77 466.103 198.531 466.52 199.18C466.728 199.462 467.004 199.687 467.322 199.834C467.64 199.981 467.99 200.045 468.34 200.02C468.831 200.029 469.319 199.948 469.78 199.78C470.174 199.635 470.536 199.418 470.85 199.14L471.48 200.19C471.117 200.533 470.689 200.798 470.22 200.97C469.619 201.226 468.973 201.362 468.32 201.37V201.37ZM468.06 193.37C467.791 193.363 467.523 193.417 467.279 193.53C467.034 193.643 466.819 193.81 466.65 194.02C466.266 194.502 466.029 195.086 465.97 195.7V195.7H469.97V195.57C469.992 194.997 469.827 194.432 469.5 193.96C469.32 193.761 469.096 193.606 468.846 193.507C468.597 193.408 468.328 193.368 468.06 193.39V193.37Z" fill="white"/>
<path d="M241.382 125.004L127.227 10.8482L13.0717 125.004L127.227 239.159L241.382 125.004Z" fill="#E2243C"/>
<g opacity="0.15">
<path d="M127.23 227.54L24.6802 125L127.23 22.46L229.77 125L127.23 227.54ZM27.8502 125L127.23 224.38L226.6 125L127.23 25.62L27.8502 125ZM127.23 214.52L93.0002 180.29L119.17 154.12L93.8002 128.75L75.8002 146.75L87.6902 158.65L92.6202 153.72L85.6202 146.72L93.7702 138.57L109.29 154.09L88.0702 175.37L58.1502 145.44L78.6002 125L58.1502 104.55L88.0702 74.63L109.32 95.88L93.8002 111.4L85.6502 103.25L92.6502 96.25L87.7202 91.32L75.8002 103.25L93.8002 121.25L119.17 95.88L93.0002 69.71L127.23 35.48L161.45 69.71L135.28 95.88L160.65 121.25L178.65 103.25L166.75 91.35L161.82 96.28L168.82 103.28L160.67 111.43L145.14 95.88L166.38 74.63L196.3 104.55L175.85 125L196.3 145.45L166.38 175.36L145.14 154.12L160.65 138.6L168.8 146.75L161.8 153.75L166.73 158.68L178.63 146.78L160.63 128.78L135.26 154.15L161.43 180.32L127.23 214.52ZM96.1702 180.29L127.23 211.35L158.28 180.29L132.11 154.12L160.65 125.58L181.83 146.75L166.76 161.82L158.67 153.72L165.67 146.72L160.67 141.72L148.3 154.12L166.38 172.2L193.13 145.45L172.69 125L193.13 104.55L166.38 77.8L148.3 95.88L160.65 108.23L165.65 103.23L158.65 96.23L166.74 88.13L181.81 103.2L160.63 124.37L132.11 95.88L158.28 69.71L127.28 38.65L96.1702 69.71L122.34 95.88L93.8002 124.42L72.6302 103.25L87.6902 88.18L95.7902 96.28L88.7902 103.28L93.7902 108.28L106.14 95.93L88.0702 77.8L61.3202 104.55L81.7702 125L61.3202 145.44L88.0702 172.2L106.15 154.12L93.8002 141.77L88.8002 146.77L95.8002 153.77L87.7002 161.87L72.6302 146.75L93.8002 125.58L122.34 154.12L96.1702 180.29ZM201.23 140.52L185.71 125L201.23 109.48L216.74 125L201.23 140.52ZM188.88 125L201.23 137.35L213.58 125L201.23 112.65L188.88 125ZM53.2302 140.52L37.7102 125L53.2302 109.48L68.7402 125L53.2302 140.52ZM40.8802 125L53.2302 137.35L65.5702 125L53.2302 112.65L40.8802 125Z" fill="white"/>
<path d="M127.23 204L103.23 180L127.23 156L151.23 180L127.23 204ZM106.38 180L127.23 200.84L148.07 180L127.23 159.15L106.38 180Z" fill="white"/>
<path d="M127.23 93.41L103.23 69.41L127.23 45.41L151.23 69.41L127.23 93.41ZM106.38 69.41L127.23 90.25L148.07 69.4L127.23 48.56L106.38 69.41Z" fill="white"/>
</g>
<path d="M42.9999 124.16C42.1327 124.425 41.2098 124.449 40.3299 124.23C39.4258 123.988 38.6015 123.512 37.9397 122.85C37.2779 122.188 36.802 121.364 36.5599 120.46C36.3407 119.58 36.3649 118.657 36.6299 117.79C36.9171 116.866 37.4291 116.028 38.1199 115.35C38.6892 114.773 39.3696 114.317 40.1199 114.01C40.812 113.736 41.5583 113.627 42.2999 113.69L42.2199 115.69C41.4495 115.635 40.6836 115.846 40.049 116.286C39.4143 116.726 38.949 117.369 38.7299 118.11C38.5701 118.631 38.5701 119.189 38.7299 119.71C38.8894 120.266 39.193 120.769 39.6099 121.17C40.0128 121.586 40.5154 121.893 41.0699 122.06C41.5961 122.21 42.1537 122.21 42.6799 122.06C43.2334 121.89 43.7354 121.584 44.1399 121.17C44.4832 120.832 44.746 120.421 44.9087 119.967C45.0714 119.514 45.1299 119.029 45.0799 118.55L47.0799 118.47C47.1531 119.218 47.0433 119.973 46.7599 120.67C46.453 121.42 45.9971 122.101 45.4199 122.67C44.7512 123.362 43.9189 123.874 42.9999 124.16Z" fill="white"/>
<path d="M50.2999 116.89C49.4193 117.168 48.4784 117.193 47.584 116.964C46.6896 116.734 45.8776 116.258 45.2399 115.59C44.572 114.952 44.0961 114.14 43.8663 113.246C43.6365 112.352 43.662 111.411 43.9399 110.53C44.243 109.595 44.7636 108.744 45.4589 108.049C46.1542 107.354 47.0045 106.833 47.9399 106.53C48.6045 106.337 49.301 106.279 49.9884 106.359C50.6757 106.44 51.3398 106.658 51.9413 107.001C52.5428 107.343 53.0695 107.802 53.4901 108.352C53.9107 108.902 54.2167 109.53 54.3899 110.2C54.6035 111.091 54.5759 112.023 54.3099 112.9C54.0069 113.835 53.4863 114.686 52.791 115.381C52.0957 116.076 51.2454 116.597 50.3099 116.9L50.2999 116.89ZM52.2099 112.57C52.36 112.047 52.36 111.493 52.2099 110.97C52.0478 110.415 51.7446 109.912 51.3299 109.51C50.9251 109.098 50.4229 108.796 49.8699 108.63C49.3472 108.48 48.7927 108.48 48.2699 108.63C47.7296 108.777 47.239 109.067 46.8499 109.47C46.4539 109.864 46.1648 110.353 46.0099 110.89C45.8651 111.414 45.8651 111.967 46.0099 112.49C46.1757 113.043 46.4784 113.545 46.8899 113.95C47.2942 114.367 47.8012 114.671 48.3599 114.83C48.8794 114.98 49.4305 114.98 49.9499 114.83C50.4864 114.674 50.9747 114.385 51.3698 113.99C51.7649 113.595 52.0538 113.106 52.2099 112.57V112.57Z" fill="white"/>
<path d="M57.24 96.52L61.24 106.65L59.62 108.27L49.5 104.27L51.27 102.5L58.47 105.4L55.6 98.16L57.24 96.52Z" fill="white"/>
<path d="M57.8301 95.93L59.4601 94.3L66.5301 101.37L64.9001 103L57.8301 95.93Z" fill="white"/>
<path d="M61.1401 92.62L64.3501 89.41C65.0423 88.6924 65.8911 88.1448 66.8301 87.81C67.669 87.5153 68.5746 87.4667 69.4401 87.67C70.3306 87.8894 71.1436 88.3495 71.7901 89C72.4552 89.6417 72.9294 90.4551 73.1601 91.35C73.3649 92.2302 73.3093 93.1509 73.0001 94C72.6715 94.9397 72.1269 95.7892 71.4101 96.48L68.1901 99.69L61.1401 92.62ZM70.0001 95.22C70.6515 94.6294 71.0462 93.8076 71.1001 92.93C71.0703 92.0908 70.7236 91.2941 70.1298 90.7003C69.5361 90.1065 68.7393 89.7598 67.9001 89.73C67.025 89.7822 66.2057 90.1775 65.6201 90.83L64.1201 92.33L68.5101 96.71L70.0001 95.22Z" fill="white"/>
<path d="M83.9201 84L80.5901 83.39L80.5101 83.47L79.0801 84.9L81.0801 86.9L79.4501 88.54L72.3701 81.46L75.4401 78.4C75.9713 77.8043 76.6222 77.3273 77.3501 77C77.9846 76.744 78.6815 76.6847 79.3501 76.83C80.0146 76.9808 80.6178 77.3294 81.0801 77.83C81.5853 78.2886 81.9348 78.8934 82.0801 79.56C82.2147 80.2317 82.145 80.9283 81.8801 81.56L85.7401 82.24L83.9201 84ZM78.0901 79C77.5316 79.0975 77.0234 79.3833 76.6501 79.81L75.3201 81.14L77.7801 83.61L79.1201 82.27C79.546 81.8989 79.826 81.3885 79.9101 80.83C79.9277 80.5881 79.89 80.3453 79.7999 80.1201C79.7098 79.8949 79.5697 79.6931 79.3901 79.53C79.2271 79.3498 79.0255 79.2086 78.8005 79.1169C78.5755 79.0251 78.3327 78.9852 78.0901 79V79Z" fill="white"/>
<path d="M89.75 73.6L85.64 77.72C86.0385 77.9894 86.5275 78.09 87 78C87.5107 77.9008 87.9765 77.6416 88.33 77.26C88.5916 77.0073 88.8051 76.7091 88.96 76.38C89.0928 76.063 89.1641 75.7236 89.17 75.38L90.91 75.45C90.9267 76.038 90.8135 76.6226 90.5784 77.1618C90.3433 77.7011 89.9922 78.1819 89.55 78.57C88.9975 79.1509 88.3107 79.587 87.55 79.84C86.8779 80.076 86.1516 80.1107 85.46 79.94C84.7588 79.75 84.1203 79.378 83.6093 78.8617C83.0982 78.3454 82.7328 77.7031 82.55 77C82.3674 76.3458 82.3674 75.6542 82.55 75C82.7675 74.3145 83.1448 73.6904 83.6507 73.1793C84.1566 72.6682 84.7768 72.2845 85.46 72.06C86.1131 71.87 86.8069 71.87 87.46 72.06C88.1669 72.2651 88.808 72.6512 89.32 73.18L89.75 73.6ZM84.32 75.54C84.2799 75.9994 84.4158 76.4569 84.7 76.82L87.38 74.14C87.019 73.8591 86.566 73.7235 86.11 73.76C85.6529 73.8012 85.2263 74.0073 84.91 74.34C84.5815 74.6604 84.3732 75.0841 84.32 75.54V75.54Z" fill="white"/>
<path d="M93.53 74.21C93.0813 74.4874 92.5921 74.6932 92.08 74.82L91.47 73.16C91.9125 73.0568 92.3371 72.8882 92.73 72.66C93.1536 72.4268 93.5437 72.1375 93.89 71.8C94.55 71.13 94.72 70.63 94.39 70.3C94.3078 70.2267 94.2044 70.1814 94.0948 70.1706C93.9851 70.1598 93.8749 70.1841 93.78 70.24C93.4253 70.4297 93.0903 70.6541 92.78 70.91C92.3544 71.2262 91.9102 71.5167 91.45 71.78C91.0746 71.9778 90.6541 72.0743 90.23 72.06C89.7549 72.0138 89.3151 71.7885 89 71.43C88.6685 71.1052 88.454 70.6797 88.39 70.22C88.3252 69.7096 88.4122 69.1913 88.64 68.73C88.9111 68.1408 89.2911 67.6081 89.76 67.16C90.1464 66.7781 90.576 66.4425 91.04 66.16C91.434 65.8902 91.8699 65.6875 92.33 65.56L92.92 67.21C92.1615 67.4106 91.4707 67.8112 90.92 68.37C90.6419 68.6139 90.4288 68.9232 90.3 69.27C90.2567 69.373 90.244 69.4862 90.2635 69.5962C90.283 69.7062 90.3339 69.8082 90.41 69.89C90.4849 69.9671 90.5819 70.019 90.6875 70.0387C90.7932 70.0584 90.9023 70.0449 91 70C91.3713 69.8026 91.7258 69.5752 92.06 69.32C92.4818 69.0094 92.9227 68.7255 93.38 68.47C93.7463 68.2673 94.1618 68.1704 94.58 68.19C95.0616 68.2256 95.5102 68.4481 95.83 68.81C96.1585 69.1305 96.3668 69.5542 96.42 70.01C96.4712 70.5221 96.3777 71.0384 96.15 71.5C95.8598 72.0796 95.4706 72.6042 95 73.05C94.56 73.4961 94.0662 73.8857 93.53 74.21V74.21Z" fill="white"/>
<path d="M97.9 59.67C98.5369 59.4853 99.2131 59.4853 99.85 59.67C100.54 59.8875 101.168 60.2683 101.68 60.7801C102.192 61.2919 102.573 61.9196 102.79 62.61C102.975 63.2469 102.975 63.9231 102.79 64.56C102.606 65.2109 102.262 65.8056 101.79 66.29C101.501 66.6127 101.147 66.8692 100.75 67.0419C100.352 67.2145 99.9228 67.2991 99.49 67.29L102 69.82L100.42 71.39L93 64L94.5 62.49L95.13 63.12C95.1029 62.6673 95.1788 62.2143 95.352 61.7951C95.5252 61.376 95.7912 61.0015 96.13 60.7C96.618 60.2055 97.229 59.85 97.9 59.67V59.67ZM100.79 63.88C100.731 63.3166 100.48 62.7906 100.08 62.3901C99.6794 61.9895 99.1534 61.7388 98.59 61.68C98.3281 61.673 98.0677 61.722 97.8263 61.8237C97.5848 61.9255 97.3679 62.0776 97.19 62.27C96.9997 62.4494 96.8489 62.6667 96.7473 62.9077C96.6457 63.1488 96.5955 63.4084 96.6 63.67C96.6589 64.2333 96.9096 64.7594 97.3101 65.1599C97.7106 65.5604 98.2366 65.8111 98.8 65.87C99.3304 65.87 99.8391 65.6593 100.214 65.2842C100.589 64.9091 100.8 64.4004 100.8 63.87L100.79 63.88Z" fill="white"/>
<path d="M106.21 61.14C105.543 61.3527 104.83 61.3769 104.15 61.21C103.456 61.0272 102.824 60.6611 102.32 60.15C101.804 59.6496 101.437 59.0162 101.26 58.32C101.093 57.64 101.117 56.9271 101.33 56.26C101.562 55.5396 101.967 54.8871 102.51 54.36C103.035 53.8144 103.688 53.4087 104.41 53.18C105.085 52.9615 105.808 52.9395 106.495 53.1166C107.182 53.2936 107.805 53.6625 108.29 54.18C108.81 54.6726 109.178 55.3043 109.35 56C109.52 56.6791 109.499 57.392 109.29 58.06C109.042 58.7725 108.636 59.4196 108.103 59.953C107.57 60.4864 106.922 60.8922 106.21 61.14V61.14ZM107.4 57.26C107.371 56.6907 107.12 56.1554 106.7 55.77C106.314 55.3489 105.78 55.0943 105.21 55.06C104.679 55.06 104.171 55.2707 103.796 55.6458C103.421 56.0209 103.21 56.5296 103.21 57.06C103.263 57.6228 103.511 58.1494 103.911 58.5491C104.311 58.9488 104.837 59.1967 105.4 59.25C105.663 59.2559 105.925 59.2064 106.168 59.1048C106.41 59.0031 106.629 58.8516 106.81 58.66C107.003 58.4825 107.155 58.2657 107.257 58.0241C107.359 57.7826 107.408 57.522 107.4 57.26Z" fill="white"/>
<path d="M112.09 46C112.551 46.022 113.003 46.137 113.419 46.3381C113.835 46.5391 114.206 46.8221 114.51 47.17L117.62 50.28L116 51.86L113.17 49C112.851 48.6278 112.406 48.3858 111.92 48.32C111.706 48.3157 111.495 48.3582 111.299 48.4446C111.104 48.531 110.93 48.6591 110.79 48.82C110.606 48.987 110.459 49.1908 110.359 49.4183C110.259 49.6457 110.209 49.8916 110.21 50.14C110.261 50.7005 110.526 51.2197 110.95 51.59L113.64 54.28L112.06 55.85L106.63 50.42L108.13 48.91L108.77 49.55C108.75 49.0998 108.836 48.6512 109.02 48.24C109.215 47.7866 109.497 47.3756 109.85 47.03C110.136 46.7174 110.481 46.4652 110.866 46.2883C111.25 46.1114 111.667 46.0134 112.09 46V46Z" fill="white"/>
<path d="M119.46 48.27C119.013 48.5507 118.523 48.7568 118.01 48.88L117.41 47.22C117.85 47.1192 118.272 46.9505 118.66 46.72C119.088 46.4927 119.478 46.2028 119.82 45.86C120.487 45.1933 120.657 44.6933 120.33 44.36C120.243 44.2927 120.136 44.2562 120.025 44.2562C119.915 44.2562 119.808 44.2927 119.72 44.36C119.363 44.5407 119.027 44.7622 118.72 45.02C118.298 45.3409 117.853 45.6317 117.39 45.89C117.015 46.09 116.595 46.1899 116.17 46.18C115.68 46.1459 115.224 45.9194 114.9 45.55C114.567 45.2208 114.35 44.7929 114.28 44.33C114.226 43.8198 114.313 43.3047 114.53 42.84C114.808 42.252 115.191 41.7199 115.66 41.27C116.048 40.894 116.474 40.5589 116.93 40.27C117.329 40.0105 117.763 39.8117 118.22 39.68L118.82 41.32C118.064 41.5263 117.375 41.9261 116.82 42.48C116.545 42.7268 116.333 43.0353 116.2 43.38C116.161 43.4837 116.151 43.596 116.171 43.705C116.19 43.814 116.238 43.9159 116.31 44C116.404 44.0864 116.527 44.1344 116.655 44.1344C116.783 44.1344 116.906 44.0864 117 44C117.373 43.8093 117.728 43.585 118.06 43.33C118.484 43.014 118.928 42.7267 119.39 42.47C119.758 42.272 120.172 42.1754 120.59 42.19C121.068 42.2301 121.512 42.4521 121.83 42.81C122.162 43.129 122.374 43.5528 122.43 44.01C122.484 44.5265 122.386 45.0475 122.15 45.51C121.866 46.1079 121.476 46.6498 121 47.11C120.538 47.5608 120.021 47.9506 119.46 48.27V48.27Z" fill="white"/>
<path d="M127.43 35.93L123.32 40C123.709 40.2555 124.181 40.3522 124.64 40.27C125.146 40.1722 125.608 39.9166 125.96 39.54C126.223 39.289 126.437 38.9904 126.59 38.66C126.726 38.3441 126.797 38.004 126.8 37.66L128.55 37.73C128.566 38.3181 128.453 38.9026 128.218 39.4419C127.983 39.9812 127.632 40.462 127.19 40.85C126.629 41.421 125.945 41.8555 125.19 42.12C124.516 42.3487 123.791 42.38 123.1 42.21C122.405 42.0362 121.774 41.6686 121.28 41.15C120.763 40.6526 120.393 40.0231 120.21 39.33C120.028 38.6758 120.028 37.9842 120.21 37.33C120.421 36.6314 120.806 35.9981 121.33 35.49C121.828 34.9835 122.443 34.606 123.12 34.39C123.773 34.2 124.467 34.2 125.12 34.39C125.831 34.577 126.48 34.9498 127 35.47L127.43 35.93ZM122 37.87C121.964 38.3275 122.104 38.7814 122.39 39.14L125.06 36.46C124.702 36.1815 124.252 36.0493 123.8 36.09C123.342 36.1275 122.914 36.3343 122.6 36.67C122.258 36.982 122.044 37.4096 122 37.87V37.87Z" fill="white"/>
<path d="M156.46 145.23C155.01 145.23 153.57 145.23 152.12 145.23C150.962 145.285 149.819 144.943 148.881 144.261C147.943 143.58 147.266 142.599 146.96 141.48C146.425 139.421 146.425 137.259 146.96 135.2C147.295 134.024 148.04 133.008 149.06 132.334C150.08 131.661 151.307 131.376 152.52 131.53C153.721 131.656 154.841 132.195 155.688 133.056C156.535 133.918 157.055 135.047 157.16 136.25C157.25 137.44 157.16 138.64 157.22 139.84C157.22 140.007 157.253 140.172 157.317 140.326C157.38 140.48 157.474 140.62 157.592 140.738C157.71 140.856 157.85 140.95 158.004 141.013C158.158 141.077 158.323 141.11 158.49 141.11C158.657 141.11 158.822 141.077 158.976 141.013C159.13 140.95 159.27 140.856 159.388 140.738C159.506 140.62 159.599 140.48 159.663 140.326C159.727 140.172 159.76 140.007 159.76 139.84C159.76 138.57 159.76 137.29 159.7 136.03C159.536 134.199 158.731 132.485 157.427 131.19C156.122 129.895 154.402 129.102 152.57 128.951C150.738 128.801 148.912 129.302 147.414 130.366C145.915 131.431 144.841 132.991 144.38 134.77C144.134 136.22 144.046 137.692 144.12 139.16C144.043 140.233 144.18 141.311 144.524 142.331C144.867 143.35 145.41 144.292 146.12 145.1C146.12 145.1 146.12 145.18 146.12 145.24C144.793 145.418 143.522 145.889 142.398 146.616C141.274 147.344 140.325 148.312 139.62 149.45C139.556 149.404 139.499 149.351 139.45 149.29C138.591 147.948 137.389 146.86 135.969 146.139C134.548 145.418 132.96 145.091 131.37 145.19C130.03 145.19 128.68 145.19 127.37 145.19C126.657 145.204 125.949 145.073 125.289 144.804C124.629 144.534 124.03 144.133 123.53 143.625C123.03 143.117 122.64 142.512 122.382 141.847C122.124 141.183 122.004 140.472 122.03 139.76C122.03 138.76 122.03 137.76 122.03 136.7C122.03 135.308 122.583 133.972 123.568 132.988C124.552 132.003 125.888 131.45 127.28 131.45C128.672 131.45 130.008 132.003 130.992 132.988C131.977 133.972 132.53 135.308 132.53 136.7C132.53 137.7 132.53 138.7 132.53 139.7C132.53 140.7 133.03 141.23 133.79 141.24C134.55 141.25 135.07 140.68 135.07 139.74C135.07 138.8 135.07 137.64 135.07 136.6C135.061 135.437 134.786 134.292 134.266 133.252C133.746 132.212 132.995 131.305 132.07 130.6C131.79 130.36 131.48 130.16 131.16 129.92C132.16 129.191 133.362 128.789 134.6 128.77C136.2 128.77 137.79 128.77 139.39 128.77C141.251 128.801 143.062 128.165 144.495 126.976C145.928 125.788 146.887 124.125 147.2 122.29C147.408 120.682 147.442 119.056 147.3 117.44C147.25 115.745 146.641 114.115 145.569 112.802C144.497 111.489 143.02 110.567 141.37 110.18C140.81 110.05 140.68 109.79 140.56 109.33C140.233 107.996 139.597 106.757 138.702 105.714C137.807 104.672 136.68 103.855 135.41 103.33C134.649 103.033 133.862 102.805 133.06 102.65C134.74 100.01 135.06 99.22 135.06 97.04C135.06 95.97 135.06 94.9 135.06 93.83C134.994 92.1889 134.413 90.6101 133.401 89.3164C132.389 88.0227 130.997 87.0796 129.42 86.62C129.05 86.52 128.64 86.62 128.32 86.33H125.92C125.46 86.52 124.92 86.45 124.48 86.63C122.965 87.1866 121.654 88.1883 120.719 89.5036C119.784 90.8189 119.268 92.3864 119.24 94C119.24 95.1 119.24 96.2 119.24 97.29C119.216 98.9487 119.709 100.574 120.65 101.94C121.03 102.51 121.03 102.53 120.36 102.69C119.428 102.884 118.544 103.261 117.76 103.8C117.485 103.978 117.279 104.245 117.177 104.556C117.075 104.867 117.083 105.204 117.2 105.51C117.332 105.838 117.576 106.108 117.89 106.272C118.204 106.435 118.566 106.48 118.91 106.4C119.154 106.35 119.387 106.259 119.6 106.13C120.499 105.631 121.512 105.376 122.54 105.39C125.65 105.39 128.77 105.39 131.89 105.39C133.108 105.362 134.307 105.706 135.325 106.376C136.343 107.046 137.133 108.01 137.59 109.14C137.83 109.66 137.78 109.93 137.17 110.14C135.473 110.657 133.996 111.724 132.972 113.172C131.947 114.62 131.433 116.368 131.51 118.14C131.56 118.99 131.51 119.84 131.51 120.69C131.436 122.448 131.954 124.18 132.98 125.61C133.28 126.02 133.22 126.19 132.72 126.31C131.377 126.606 130.127 127.227 129.08 128.12C128.508 128.607 127.769 128.851 127.02 128.8C124.967 128.836 123.009 129.669 121.559 131.123C120.109 132.576 119.281 134.537 119.25 136.59C119.25 137.74 119.25 138.89 119.25 140.03C119.239 141.59 119.699 143.116 120.57 144.41C121.04 145.13 121.04 145.12 120.24 145.35C118.314 145.84 116.607 146.959 115.39 148.53C114.93 149.15 114.88 149.13 114.39 148.53C113.572 147.468 112.52 146.608 111.317 146.017C110.114 145.426 108.791 145.119 107.45 145.12C105.532 145.2 103.611 145.15 101.7 144.97C100.723 144.812 99.8139 144.368 99.0894 143.693C98.3648 143.018 97.8569 142.144 97.6299 141.18C97.2451 139.343 97.2451 137.447 97.6299 135.61C97.8035 134.756 98.2103 133.966 98.8051 133.329C99.4 132.692 100.16 132.232 101 132C101.758 131.76 102.561 131.702 103.346 131.83C104.13 131.958 104.874 132.268 105.516 132.736C106.158 133.204 106.682 133.817 107.044 134.525C107.406 135.232 107.596 136.015 107.6 136.81C107.6 137.81 107.6 138.81 107.6 139.81C107.566 140.164 107.658 140.518 107.86 140.81C108.018 141.052 108.246 141.241 108.514 141.35C108.783 141.459 109.078 141.483 109.36 141.42C109.676 141.339 109.958 141.159 110.167 140.908C110.375 140.657 110.499 140.346 110.52 140.02C110.59 139.02 110.52 138.02 110.52 137.1C110.559 135.81 110.286 134.53 109.724 133.368C109.161 132.207 108.326 131.199 107.29 130.43C106.87 130.1 106.89 129.9 107.35 129.71C108.136 129.327 108.995 129.115 109.87 129.09C111.5 129.09 113.12 129.09 114.74 129.09C116.615 129.068 118.425 128.4 119.865 127.2C121.306 126 122.289 124.34 122.65 122.5C122.823 121.09 122.867 119.668 122.78 118.25C122.874 116.426 122.34 114.625 121.269 113.146C120.197 111.667 118.652 110.599 116.89 110.12C116.687 110.073 116.501 109.97 116.353 109.823C116.205 109.677 116.1 109.492 116.05 109.29C115.647 107.669 114.795 106.195 113.593 105.036C112.39 103.878 110.885 103.082 109.25 102.74C108.65 102.6 108.72 102.4 109.02 102.02C109.761 101.012 110.232 99.8312 110.39 98.59C110.508 97.3003 110.552 96.0048 110.52 94.71C110.72 90.97 107.98 86.71 103.58 86.41H101.49C100.9 86.4653 100.315 86.5656 99.7399 86.71C98.3408 87.2227 97.1126 88.1159 96.1939 89.2891C95.2751 90.4623 94.7023 91.8688 94.5399 93.35C94.4099 94.23 94.5399 95.08 94.4699 95.95C94.216 98.0249 94.6973 100.123 95.8299 101.88C96.3099 102.6 96.3199 102.58 95.4499 102.88C93.6325 103.375 92.0143 104.424 90.8199 105.88C89.6941 107.192 89.027 108.835 88.9199 110.56V119.56C89.2299 120.45 89.6299 120.74 90.4299 120.63C90.6196 120.608 90.8029 120.548 90.9687 120.453C91.1344 120.358 91.2792 120.231 91.3942 120.079C91.5092 119.926 91.5921 119.752 91.6377 119.567C91.6834 119.381 91.691 119.188 91.6599 119C91.6599 118.75 91.6599 118.5 91.6599 118.25C91.6599 116.06 91.6599 113.87 91.6599 111.67C91.6504 110.838 91.8083 110.012 92.1242 109.242C92.4402 108.471 92.9079 107.773 93.4993 107.187C94.0908 106.601 94.794 106.14 95.5671 105.831C96.3403 105.523 97.1676 105.373 97.9999 105.39C101.12 105.39 104.23 105.39 107.34 105.39C108.446 105.364 109.537 105.657 110.481 106.236C111.424 106.814 112.181 107.652 112.66 108.65C113.27 109.82 113.26 109.82 111.98 110.26C110.5 110.808 109.217 111.787 108.298 113.07C107.378 114.353 106.863 115.882 106.82 117.46C106.865 118.229 106.865 119.001 106.82 119.77C106.565 121.816 107.082 123.884 108.27 125.57C108.63 126.04 108.49 126.17 107.98 126.29C106.638 126.594 105.393 127.23 104.36 128.14C103.868 128.566 103.231 128.788 102.58 128.76C100.599 128.749 98.6845 129.472 97.2066 130.791C95.7288 132.11 94.7928 133.931 94.5799 135.9C94.4999 136.55 94.6499 137.19 94.5799 137.83C94.3762 139.062 94.4189 140.322 94.7056 141.537C94.9922 142.753 95.5172 143.899 96.2499 144.91C96.2688 144.938 96.2789 144.971 96.2789 145.005C96.2789 145.039 96.2688 145.072 96.2499 145.1C92.2499 146.18 89.5999 148.5 88.9599 152.74V162C89.3399 162.6 89.8099 163.08 90.5999 162.83C91.3899 162.58 91.5199 161.97 91.5199 161.23C91.5199 158.93 91.5199 156.64 91.5199 154.35C91.4868 153.481 91.6322 152.615 91.9471 151.804C92.262 150.994 92.7397 150.257 93.3508 149.638C93.9618 149.02 94.6932 148.533 95.4997 148.208C96.3062 147.883 97.1708 147.728 98.0399 147.75C101.053 147.75 104.07 147.75 107.09 147.75C107.965 147.719 108.837 147.869 109.651 148.191C110.465 148.514 111.203 149.001 111.82 149.623C112.436 150.245 112.917 150.988 113.232 151.805C113.547 152.622 113.689 153.495 113.65 154.37C113.65 156.69 113.65 159.01 113.65 161.37C113.65 162.37 114.16 162.95 114.95 162.93C115.74 162.91 116.19 162.34 116.19 161.38C116.19 159.06 116.19 156.74 116.19 154.38C116.153 153.499 116.3 152.619 116.621 151.798C116.941 150.976 117.429 150.23 118.053 149.606C118.678 148.983 119.425 148.496 120.247 148.177C121.069 147.857 121.949 147.712 122.83 147.75C125.79 147.75 128.757 147.75 131.73 147.75C132.611 147.716 133.49 147.865 134.31 148.188C135.13 148.512 135.874 149.002 136.495 149.628C137.115 150.255 137.599 151.003 137.915 151.826C138.231 152.649 138.372 153.529 138.33 154.41V161.29C138.33 162.29 138.81 162.89 139.6 162.89C140.39 162.89 140.87 162.29 140.87 161.3C140.87 158.98 140.87 156.66 140.87 154.3C140.835 153.431 140.98 152.565 141.294 151.754C141.609 150.944 142.086 150.206 142.698 149.588C143.309 148.97 144.042 148.485 144.849 148.161C145.656 147.838 146.521 147.685 147.39 147.71C150.397 147.71 153.397 147.71 156.39 147.71C157.265 147.682 158.137 147.834 158.95 148.158C159.763 148.482 160.501 148.971 161.117 149.593C161.733 150.216 162.213 150.959 162.529 151.775C162.844 152.592 162.988 153.465 162.95 154.34C162.95 156.66 162.95 158.98 162.95 161.34C162.95 162.34 163.41 162.87 164.19 162.89C164.97 162.91 165.5 162.31 165.5 161.33V154.33C165.523 153.134 165.305 151.945 164.86 150.835C164.414 149.724 163.75 148.715 162.907 147.866C162.064 147.017 161.058 146.346 159.951 145.893C158.843 145.441 157.656 145.215 156.46 145.23ZM132.33 98.58C132.017 99.7993 131.276 100.865 130.242 101.584C129.209 102.303 127.951 102.626 126.699 102.495C125.447 102.364 124.284 101.788 123.421 100.871C122.559 99.9541 122.054 98.7577 122 97.5C122 96.3333 122 95.1633 122 93.99C122 92.5976 122.553 91.2623 123.538 90.2777C124.522 89.2931 125.858 88.74 127.25 88.74C128.642 88.74 129.978 89.2931 130.962 90.2777C131.947 91.2623 132.5 92.5976 132.5 93.99C132.5 94.58 132.5 95.18 132.5 95.99C132.529 96.8568 132.472 97.7244 132.33 98.58V98.58ZM134.33 116.64C134.596 115.392 135.309 114.285 136.334 113.525C137.359 112.765 138.626 112.405 139.898 112.513C141.169 112.621 142.357 113.19 143.24 114.111C144.122 115.033 144.638 116.245 144.69 117.52C144.69 118.14 144.69 118.76 144.69 119.39C144.745 120.356 144.694 121.325 144.54 122.28C144.187 123.473 143.422 124.502 142.381 125.183C141.34 125.864 140.091 126.154 138.857 126C137.623 125.846 136.483 125.259 135.641 124.344C134.799 123.428 134.31 122.243 134.26 121C134.152 119.546 134.192 118.086 134.38 116.64H134.33ZM107.75 96C107.781 96.7745 107.751 97.5503 107.66 98.32C107.433 99.5676 106.767 100.692 105.781 101.491C104.796 102.289 103.557 102.707 102.29 102.67C101.015 102.616 99.8035 102.099 98.8829 101.215C97.9624 100.331 97.3959 99.1417 97.2899 97.87C97.1799 96.5056 97.1799 95.1345 97.2899 93.77C97.3947 92.428 98.0118 91.1778 99.0135 90.2785C100.015 89.3793 101.324 88.9 102.67 88.94C103.997 88.9915 105.257 89.5406 106.198 90.4781C107.139 91.4155 107.693 92.6728 107.75 94C107.77 94.6 107.75 95.17 107.75 96ZM109.69 116.47C110.018 115.264 110.765 114.214 111.798 113.51C112.83 112.805 114.08 112.492 115.323 112.627C116.566 112.762 117.72 113.336 118.577 114.246C119.434 115.156 119.939 116.342 120 117.59C120.12 119.08 120.08 120.579 119.88 122.06C119.618 123.304 118.912 124.411 117.895 125.173C116.877 125.936 115.617 126.302 114.349 126.204C113.081 126.107 111.892 125.551 111.004 124.641C110.115 123.732 109.588 122.53 109.52 121.26C109.52 120.64 109.52 120.01 109.52 119.39C109.461 118.397 109.518 117.4 109.69 116.42V116.47Z" fill="white"/>
<path d="M144.58 105.74C145.398 105.365 146.29 105.177 147.19 105.19C150.19 105.19 153.27 105.19 156.31 105.19C157.197 105.15 158.083 105.296 158.91 105.617C159.737 105.939 160.489 106.43 161.116 107.059C161.742 107.688 162.231 108.44 162.55 109.269C162.87 110.097 163.013 110.983 162.97 111.87C162.97 114.21 162.97 116.55 162.97 118.87C162.97 119.77 163.47 120.3 164.24 120.3C164.422 120.303 164.602 120.267 164.769 120.194C164.936 120.121 165.085 120.013 165.206 119.877C165.328 119.742 165.419 119.581 165.473 119.408C165.527 119.234 165.543 119.051 165.52 118.87C165.52 116.35 165.52 113.87 165.52 111.32C165.474 109.388 164.801 107.524 163.604 106.007C162.406 104.49 160.748 103.403 158.88 102.91C158.52 102.81 158.1 102.91 157.78 102.6C159.104 101.069 159.816 99.1035 159.78 97.08C159.78 96.21 159.7 95.33 159.78 94.47C159.85 92.7156 159.33 90.9884 158.302 89.565C157.274 88.1416 155.798 87.1046 154.11 86.62C153.719 86.59 153.337 86.4918 152.98 86.33H150.74C150.69 86.54 150.5 86.46 150.37 86.49C148.895 86.7651 147.536 87.4747 146.467 88.5278C145.398 89.5808 144.667 90.9292 144.37 92.4C143.909 94.65 143.909 96.97 144.37 99.22C144.664 100.494 145.28 101.672 146.16 102.64C145.271 102.784 144.401 103.032 143.57 103.38C142.71 103.78 142.37 104.38 142.67 105.15C142.743 105.326 142.854 105.484 142.996 105.612C143.137 105.741 143.304 105.837 143.487 105.893C143.669 105.949 143.861 105.965 144.05 105.938C144.239 105.912 144.42 105.844 144.58 105.74V105.74ZM146.8 93.21C147.028 91.9665 147.697 90.8472 148.685 90.0585C149.674 89.2699 150.913 88.865 152.176 88.9186C153.44 88.9722 154.641 89.4806 155.558 90.3502C156.476 91.2197 157.048 92.3917 157.17 93.65C157.23 94.36 157.17 95.09 157.17 95.81C157.254 96.7765 157.197 97.75 157 98.7C156.685 99.9083 155.949 100.965 154.926 101.68C153.902 102.395 152.657 102.721 151.414 102.601C150.171 102.48 149.011 101.921 148.144 101.022C147.276 100.124 146.757 98.9464 146.68 97.7C146.553 96.2035 146.594 94.6976 146.8 93.21V93.21Z" fill="white"/>
</svg>
