<svg width="654" height="250" viewBox="0 0 654 250" fill="none" xmlns="http://www.w3.org/2000/svg">
<path d="M10.1499 125.18L123.84 238.87H525.13L638.82 125.18L525.13 11.49H123.84L10.1499 125.18Z" stroke="#CF9D2B" stroke-width="2.6" stroke-miterlimit="10"/>
<path d="M274.75 152.33V144.6H273.35V143.4H274.75V142.26C274.699 141.453 274.969 140.659 275.5 140.05C275.773 139.782 276.099 139.574 276.457 139.44C276.816 139.305 277.198 139.248 277.58 139.27C277.77 139.255 277.96 139.255 278.15 139.27L278.78 139.39L278.58 140.64C278.463 140.607 278.342 140.587 278.22 140.58C278.074 140.569 277.927 140.569 277.78 140.58C277.582 140.565 277.384 140.597 277.2 140.671C277.016 140.746 276.852 140.862 276.72 141.01C276.468 141.369 276.348 141.803 276.38 142.24V143.38H278V144.58H276.38V152.31L274.75 152.33Z" fill="black"/>
<path d="M279.26 147.78C279.219 146.598 279.598 145.439 280.33 144.51C280.704 144.107 281.158 143.786 281.662 143.566C282.166 143.346 282.71 143.233 283.26 143.233C283.81 143.233 284.354 143.346 284.858 143.566C285.362 143.786 285.816 144.107 286.19 144.51C286.935 145.433 287.319 146.595 287.27 147.78V148C287.321 149.188 286.937 150.354 286.19 151.28C285.816 151.681 285.363 152.001 284.86 152.22C284.357 152.439 283.814 152.552 283.265 152.552C282.716 152.552 282.174 152.439 281.67 152.22C281.167 152.001 280.714 151.681 280.34 151.28C279.595 150.357 279.211 149.195 279.26 148.01V147.78ZM280.89 147.96C280.858 148.785 281.066 149.602 281.49 150.31C281.689 150.597 281.954 150.831 282.263 150.993C282.572 151.155 282.916 151.239 283.265 151.239C283.614 151.239 283.958 151.155 284.267 150.993C284.576 150.831 284.841 150.597 285.04 150.31C285.464 149.602 285.673 148.785 285.64 147.96V147.78C285.671 146.957 285.458 146.143 285.03 145.44C284.842 145.142 284.578 144.899 284.265 144.735C283.953 144.572 283.602 144.494 283.25 144.51C282.901 144.498 282.555 144.577 282.246 144.74C281.937 144.904 281.677 145.145 281.49 145.44C281.07 146.146 280.861 146.959 280.89 147.78V147.96Z" fill="black"/>
<path d="M288.88 147.78C288.839 146.598 289.218 145.439 289.95 144.51C290.324 144.107 290.778 143.786 291.282 143.566C291.786 143.346 292.33 143.233 292.88 143.233C293.43 143.233 293.974 143.346 294.478 143.566C294.982 143.786 295.436 144.107 295.81 144.51C296.552 145.434 296.932 146.596 296.88 147.78V148C296.934 149.187 296.553 150.353 295.81 151.28C295.436 151.681 294.983 152.001 294.48 152.22C293.976 152.439 293.434 152.552 292.885 152.552C292.336 152.552 291.793 152.439 291.29 152.22C290.787 152.001 290.334 151.681 289.96 151.28C289.215 150.357 288.831 149.195 288.88 148.01V147.78ZM290.51 147.96C290.477 148.785 290.686 149.602 291.11 150.31C291.309 150.597 291.574 150.831 291.883 150.993C292.192 151.155 292.536 151.239 292.885 151.239C293.234 151.239 293.578 151.155 293.887 150.993C294.196 150.831 294.461 150.597 294.66 150.31C295.084 149.602 295.292 148.785 295.26 147.96V147.78C295.29 146.957 295.078 146.143 294.65 145.44C294.462 145.142 294.198 144.899 293.885 144.735C293.573 144.572 293.222 144.494 292.87 144.51C292.521 144.498 292.175 144.577 291.866 144.74C291.557 144.904 291.297 145.145 291.11 145.44C290.689 146.146 290.481 146.959 290.51 147.78V147.96Z" fill="black"/>
<path d="M298.5 148C298.443 146.773 298.764 145.559 299.42 144.52C299.705 144.099 300.091 143.756 300.545 143.525C300.998 143.294 301.502 143.183 302.01 143.2C302.49 143.189 302.965 143.288 303.4 143.49C303.793 143.69 304.135 143.977 304.4 144.33V139.41H306.02V152.3H304.78L304.53 151.17C304.259 151.592 303.883 151.936 303.44 152.17C302.977 152.398 302.466 152.511 301.95 152.5C301.459 152.522 300.97 152.425 300.525 152.218C300.079 152.011 299.69 151.699 299.39 151.31C298.734 150.406 298.406 149.306 298.46 148.19L298.5 148ZM300.13 148.17C300.089 148.932 300.281 149.689 300.68 150.34C300.871 150.614 301.13 150.833 301.432 150.977C301.733 151.121 302.067 151.184 302.4 151.16C302.835 151.177 303.265 151.058 303.63 150.82C303.976 150.59 304.256 150.273 304.44 149.9V145.73C304.243 145.374 303.961 145.072 303.62 144.85C303.262 144.622 302.844 144.507 302.42 144.52C302.066 144.504 301.715 144.589 301.408 144.766C301.102 144.944 300.852 145.205 300.69 145.52C300.288 146.294 300.095 147.159 300.13 148.03V148.17Z" fill="black"/>
<path d="M317.9 149.93C317.904 149.762 317.868 149.595 317.797 149.442C317.726 149.29 317.621 149.156 317.49 149.05C317.02 148.747 316.492 148.546 315.94 148.46C315.071 148.293 314.245 147.953 313.51 147.46C313.244 147.278 313.028 147.033 312.882 146.747C312.735 146.46 312.662 146.142 312.67 145.82C312.67 145.459 312.755 145.103 312.916 144.78C313.077 144.458 313.312 144.177 313.6 143.96C314.283 143.418 315.139 143.141 316.01 143.18C316.905 143.137 317.784 143.434 318.47 144.01C318.757 144.24 318.987 144.533 319.143 144.866C319.299 145.198 319.376 145.563 319.37 145.93V145.98H317.8C317.795 145.779 317.747 145.581 317.659 145.4C317.571 145.219 317.445 145.058 317.29 144.93C316.928 144.64 316.482 144.475 316.018 144.461C315.555 144.447 315.099 144.583 314.72 144.85C314.587 144.964 314.48 145.105 314.406 145.264C314.332 145.422 314.292 145.595 314.29 145.77C314.283 145.926 314.313 146.082 314.378 146.224C314.442 146.366 314.539 146.492 314.66 146.59C315.126 146.868 315.643 147.048 316.18 147.12C317.071 147.274 317.92 147.615 318.67 148.12C318.936 148.307 319.152 148.556 319.3 148.845C319.449 149.134 319.524 149.455 319.52 149.78C319.524 150.16 319.434 150.536 319.26 150.874C319.086 151.212 318.832 151.502 318.52 151.72C317.743 152.233 316.829 152.498 315.898 152.478C314.967 152.459 314.064 152.156 313.31 151.61C313.012 151.37 312.773 151.065 312.612 150.719C312.45 150.372 312.371 149.992 312.38 149.61V149.56H314C313.994 149.807 314.049 150.051 314.161 150.271C314.273 150.491 314.437 150.679 314.64 150.82C315.061 151.097 315.556 151.24 316.06 151.23C316.541 151.253 317.017 151.123 317.42 150.86C317.568 150.754 317.689 150.614 317.772 150.453C317.855 150.291 317.899 150.112 317.9 149.93V149.93Z" fill="black"/>
<path d="M325.25 152.51C324.69 152.539 324.131 152.444 323.612 152.231C323.093 152.018 322.628 151.694 322.25 151.28C321.507 150.368 321.126 149.215 321.18 148.04V147.67C321.138 146.508 321.534 145.373 322.29 144.49C322.619 144.091 323.033 143.771 323.502 143.553C323.971 143.335 324.483 143.225 325 143.23C325.504 143.193 326.009 143.274 326.476 143.467C326.943 143.66 327.359 143.959 327.69 144.34C328.331 145.204 328.649 146.266 328.59 147.34V148.2H322.87C322.831 148.974 323.038 149.74 323.46 150.39C323.668 150.672 323.944 150.897 324.262 151.044C324.58 151.191 324.93 151.255 325.28 151.23C325.774 151.24 326.266 151.159 326.73 150.99C327.125 150.844 327.488 150.623 327.8 150.34L328.43 151.4C328.066 151.741 327.637 152.006 327.17 152.18C326.558 152.415 325.905 152.527 325.25 152.51ZM324.99 144.51C324.72 144.506 324.453 144.563 324.209 144.678C323.965 144.792 323.75 144.96 323.58 145.17C323.185 145.647 322.948 146.233 322.9 146.85H326.9V146.72C326.922 146.142 326.753 145.573 326.42 145.1C326.244 144.899 326.025 144.742 325.779 144.64C325.532 144.537 325.266 144.493 325 144.51H324.99Z" fill="black"/>
<path d="M334 151.24C334.484 151.245 334.953 151.067 335.31 150.74C335.486 150.587 335.628 150.398 335.724 150.186C335.821 149.974 335.871 149.743 335.87 149.51H337.34V149.56C337.342 149.955 337.252 150.346 337.079 150.702C336.906 151.057 336.653 151.368 336.34 151.61C335.584 152.251 334.606 152.57 333.618 152.499C332.629 152.428 331.707 151.973 331.05 151.23C330.361 150.313 330.008 149.187 330.05 148.04V147.69C330.01 146.547 330.363 145.424 331.05 144.51C331.402 144.085 331.848 143.747 332.353 143.525C332.859 143.303 333.409 143.202 333.96 143.23C334.866 143.2 335.748 143.531 336.41 144.15C336.716 144.443 336.956 144.798 337.114 145.191C337.273 145.584 337.346 146.007 337.33 146.43H335.85C335.861 145.912 335.671 145.41 335.32 145.03C335.151 144.844 334.943 144.697 334.712 144.599C334.481 144.501 334.231 144.453 333.98 144.46C333.631 144.438 333.282 144.513 332.973 144.677C332.664 144.841 332.407 145.088 332.23 145.39C331.845 146.076 331.655 146.854 331.68 147.64V148C331.654 148.791 331.841 149.575 332.22 150.27C332.393 150.585 332.653 150.844 332.968 151.015C333.284 151.187 333.642 151.265 334 151.24V151.24Z" fill="black"/>
<path d="M344.94 151C344.686 151.466 344.307 151.853 343.847 152.118C343.386 152.383 342.861 152.515 342.33 152.5C341.904 152.525 341.477 152.453 341.083 152.29C340.688 152.128 340.335 151.878 340.05 151.56C339.435 150.724 339.144 149.694 339.23 148.66V143.4H340.86V148.68C340.789 149.374 340.936 150.073 341.28 150.68C341.44 150.868 341.642 151.015 341.87 151.108C342.097 151.202 342.344 151.241 342.59 151.22C343.091 151.241 343.588 151.116 344.02 150.86C344.405 150.626 344.706 150.276 344.88 149.86V143.4H346.51V152.33H345.05L344.94 151Z" fill="black"/>
<path d="M353.11 144.83L352.28 144.78C351.893 144.769 351.513 144.878 351.19 145.09C350.888 145.308 350.652 145.606 350.51 145.95V152.33H348.88V143.4H350.34L350.49 144.7C350.718 144.274 351.039 143.905 351.43 143.62C351.808 143.358 352.26 143.221 352.72 143.23C352.833 143.22 352.947 143.22 353.06 143.23L353.33 143.29L353.11 144.83Z" fill="black"/>
<path d="M356.56 141.11H354.94V139.44H356.56V141.11ZM356.56 152.33H354.94V143.4H356.56V152.33Z" fill="black"/>
<path d="M361.33 141.24V143.4H363V144.6H361.3V150C361.269 150.316 361.362 150.632 361.56 150.88C361.748 151.051 361.995 151.144 362.25 151.14C362.353 151.154 362.457 151.154 362.56 151.14C362.659 151.125 362.757 151.098 362.85 151.06L363.08 152.18C362.92 152.299 362.735 152.381 362.54 152.42C362.313 152.487 362.077 152.521 361.84 152.52C361.55 152.534 361.259 152.488 360.987 152.385C360.715 152.282 360.468 152.123 360.26 151.92C359.825 151.394 359.613 150.72 359.67 150.04V144.6H358.25V143.4H359.67V141.24H361.33Z" fill="black"/>
<path d="M367.5 149L367.79 150.13L369.99 143.38H371.8L368.04 153.69C367.813 154.274 367.473 154.807 367.04 155.26C366.817 155.484 366.55 155.658 366.255 155.772C365.961 155.886 365.645 155.936 365.33 155.92C365.164 155.932 364.996 155.932 364.83 155.92C364.672 155.899 364.515 155.869 364.36 155.83L364.52 154.55H364.82H365.25C365.419 154.551 365.586 154.51 365.734 154.43C365.883 154.349 366.009 154.232 366.1 154.09C366.325 153.781 366.509 153.445 366.65 153.09L367.04 152.15L363.72 143.4H365.54L367.5 149Z" fill="black"/>
<path d="M383 152.33C382.94 152.06 382.9 151.83 382.87 151.62C382.839 151.415 382.822 151.208 382.82 151C382.503 151.436 382.097 151.801 381.63 152.07C381.157 152.359 380.614 152.511 380.06 152.51C379.675 152.537 379.289 152.487 378.923 152.363C378.557 152.24 378.22 152.045 377.93 151.79C377.674 151.527 377.477 151.213 377.351 150.868C377.225 150.523 377.174 150.156 377.2 149.79C377.183 149.399 377.266 149.01 377.441 148.66C377.616 148.31 377.877 148.011 378.2 147.79C379.045 147.269 380.029 147.018 381.02 147.07H382.79V146.18C382.802 145.951 382.765 145.722 382.682 145.509C382.6 145.295 382.473 145.101 382.31 144.94C382.125 144.778 381.909 144.653 381.676 144.574C381.443 144.495 381.196 144.463 380.95 144.48C380.489 144.457 380.036 144.599 379.67 144.88C379.515 144.995 379.39 145.146 379.306 145.321C379.223 145.495 379.183 145.687 379.19 145.88H377.64V145.83C377.635 145.482 377.716 145.137 377.874 144.827C378.033 144.517 378.265 144.25 378.55 144.05C379.263 143.489 380.154 143.202 381.06 143.24C381.942 143.198 382.811 143.471 383.51 144.01C383.822 144.288 384.066 144.633 384.226 145.02C384.385 145.406 384.455 145.823 384.43 146.24V150.54C384.43 150.86 384.43 151.17 384.48 151.47C384.518 151.765 384.582 152.056 384.67 152.34L383 152.33ZM380.3 151.14C380.863 151.148 381.415 150.992 381.89 150.69C382.3 150.466 382.626 150.115 382.82 149.69V148.2H381C380.435 148.168 379.877 148.342 379.43 148.69C379.248 148.826 379.1 149.003 378.997 149.206C378.895 149.409 378.841 149.633 378.84 149.86C378.832 150.034 378.861 150.207 378.925 150.369C378.989 150.531 379.086 150.678 379.21 150.8C379.511 151.044 379.893 151.165 380.28 151.14H380.3Z" fill="black"/>
<path d="M388.24 143.4L388.36 144.73C388.633 144.27 389.018 143.888 389.48 143.62C389.946 143.356 390.474 143.221 391.01 143.23C391.422 143.205 391.835 143.267 392.222 143.414C392.608 143.56 392.958 143.787 393.25 144.08C393.837 144.817 394.12 145.751 394.04 146.69V152.33H392.41V146.72C392.47 146.124 392.302 145.527 391.94 145.05C391.751 144.872 391.527 144.736 391.283 144.65C391.038 144.564 390.778 144.53 390.52 144.55C390.078 144.535 389.639 144.639 389.25 144.85C388.897 145.051 388.607 145.345 388.41 145.7V152.33H386.79V143.4H388.24Z" fill="black"/>
<path d="M396 148C395.941 146.772 396.266 145.555 396.93 144.52C397.214 144.1 397.599 143.759 398.05 143.528C398.501 143.297 399.004 143.184 399.51 143.2C399.99 143.187 400.466 143.287 400.9 143.49C401.293 143.69 401.635 143.977 401.9 144.33V139.41H403.52V152.3H402.28L402.03 151.17C401.762 151.591 401.39 151.935 400.95 152.17C400.484 152.398 399.969 152.511 399.45 152.5C398.959 152.521 398.471 152.424 398.025 152.217C397.58 152.01 397.19 151.699 396.89 151.31C396.234 150.406 395.906 149.306 395.96 148.19L396 148ZM397.63 148.17C397.594 148.932 397.786 149.687 398.18 150.34C398.372 150.613 398.631 150.832 398.932 150.976C399.234 151.119 399.567 151.183 399.9 151.16C400.335 151.177 400.765 151.058 401.13 150.82C401.476 150.59 401.756 150.273 401.94 149.9V145.73C401.746 145.372 401.464 145.069 401.12 144.85C400.762 144.622 400.344 144.507 399.92 144.52C399.566 144.504 399.215 144.589 398.908 144.766C398.602 144.944 398.352 145.205 398.19 145.52C397.788 146.294 397.595 147.159 397.63 148.03V148.17Z" fill="black"/>
<path d="M413.21 149.7L413.35 150.33L413.51 149.7L415.57 143.4H417.23L414 152.33H412.77L409.44 143.4H411.11L413.21 149.7Z" fill="black"/>
<path d="M424.41 151C424.153 151.458 423.781 151.841 423.33 152.11C422.864 152.374 422.336 152.509 421.8 152.5C421.374 152.523 420.948 152.451 420.554 152.288C420.159 152.126 419.806 151.877 419.52 151.56C418.91 150.722 418.619 149.694 418.7 148.66V143.4H420.33V148.68C420.259 149.374 420.406 150.073 420.75 150.68C420.912 150.868 421.116 151.015 421.345 151.109C421.575 151.202 421.823 151.241 422.07 151.22C422.571 151.239 423.068 151.114 423.5 150.86C423.882 150.622 424.182 150.273 424.36 149.86V143.4H426V152.33H424.54L424.41 151Z" fill="black"/>
<path d="M430.11 152.33H428.49V139.44H430.11V152.33Z" fill="black"/>
<path d="M434.07 143.4L434.19 144.73C434.463 144.27 434.848 143.888 435.31 143.62C435.776 143.356 436.304 143.221 436.84 143.23C437.252 143.205 437.665 143.267 438.052 143.414C438.438 143.56 438.788 143.787 439.08 144.08C439.667 144.817 439.95 145.751 439.87 146.69V152.33H438.24V146.72C438.298 146.126 438.134 145.531 437.78 145.05C437.589 144.872 437.364 144.736 437.118 144.65C436.872 144.564 436.61 144.53 436.35 144.55C435.908 144.536 435.47 144.64 435.08 144.85C434.73 145.051 434.443 145.346 434.25 145.7V152.33H432.62V143.4H434.07Z" fill="black"/>
<path d="M445.94 152.51C445.38 152.54 444.821 152.445 444.302 152.232C443.783 152.019 443.318 151.694 442.94 151.28C442.193 150.37 441.809 149.216 441.86 148.04V147.67C441.821 146.507 442.221 145.372 442.98 144.49C443.309 144.091 443.724 143.771 444.192 143.553C444.661 143.335 445.173 143.225 445.69 143.23C446.194 143.193 446.699 143.274 447.166 143.467C447.633 143.66 448.049 143.959 448.38 144.34C449.021 145.204 449.339 146.266 449.28 147.34V148.2H443.56C443.524 148.975 443.734 149.742 444.16 150.39C444.368 150.672 444.644 150.897 444.962 151.044C445.28 151.191 445.63 151.255 445.98 151.23C446.474 151.24 446.966 151.159 447.43 150.99C447.825 150.844 448.188 150.623 448.5 150.34L449.13 151.4C448.764 151.739 448.336 152.004 447.87 152.18C447.254 152.414 446.599 152.526 445.94 152.51V152.51ZM445.68 144.51C445.41 144.505 445.143 144.561 444.898 144.676C444.654 144.79 444.439 144.959 444.27 145.17C443.876 145.647 443.638 146.233 443.59 146.85V146.85H447.59V146.72C447.612 146.142 447.443 145.573 447.11 145.1C446.933 144.898 446.712 144.74 446.464 144.637C446.216 144.535 445.948 144.491 445.68 144.51Z" fill="black"/>
<path d="M455.32 144.83L454.49 144.78C454.104 144.771 453.724 144.879 453.4 145.09C453.098 145.308 452.862 145.606 452.72 145.95V152.33H451.09V143.4H452.55L452.7 144.7C452.928 144.274 453.25 143.905 453.64 143.62C454.018 143.358 454.47 143.221 454.93 143.23C455.043 143.22 455.157 143.22 455.27 143.23L455.54 143.29L455.32 144.83Z" fill="black"/>
<path d="M462.51 152.33C462.46 152.06 462.42 151.83 462.39 151.62C462.36 151.41 462.34 151.21 462.33 151C462.016 151.436 461.614 151.8 461.15 152.07C460.673 152.358 460.127 152.51 459.57 152.51C459.185 152.537 458.798 152.487 458.433 152.363C458.067 152.24 457.73 152.045 457.44 151.79C457.186 151.526 456.99 151.211 456.864 150.867C456.739 150.522 456.686 150.156 456.71 149.79C456.694 149.399 456.777 149.011 456.952 148.661C457.127 148.311 457.388 148.011 457.71 147.79C458.551 147.269 459.532 147.018 460.52 147.07H462.29V146.18C462.302 145.951 462.265 145.722 462.182 145.509C462.099 145.295 461.973 145.101 461.81 144.94C461.626 144.778 461.412 144.654 461.181 144.575C460.949 144.497 460.704 144.464 460.46 144.48C459.999 144.455 459.545 144.597 459.18 144.88C459.022 144.993 458.894 145.143 458.808 145.318C458.723 145.493 458.682 145.686 458.69 145.88H457.14V145.83C457.134 145.481 457.213 145.136 457.372 144.826C457.531 144.515 457.764 144.249 458.05 144.05C458.762 143.487 459.653 143.2 460.56 143.24C461.438 143.195 462.303 143.465 463 144C463.315 144.276 463.563 144.62 463.724 145.007C463.885 145.394 463.956 145.812 463.93 146.23V150.53C463.926 150.841 463.943 151.151 463.98 151.46C464.01 151.755 464.07 152.047 464.16 152.33H462.51ZM459.81 151.14C460.372 151.148 460.925 150.992 461.4 150.69C461.812 150.469 462.139 150.117 462.33 149.69V148.2H460.5C459.935 148.17 459.378 148.344 458.93 148.69C458.749 148.828 458.603 149.004 458.5 149.207C458.398 149.41 458.343 149.633 458.34 149.86C458.334 150.034 458.364 150.207 458.427 150.368C458.491 150.53 458.587 150.677 458.71 150.8C459.021 151.048 459.414 151.169 459.81 151.14V151.14Z" fill="black"/>
<path d="M474 148.2C474.054 149.315 473.726 150.416 473.07 151.32C472.768 151.707 472.378 152.016 471.933 152.223C471.488 152.43 471 152.528 470.51 152.51C469.972 152.522 469.44 152.402 468.96 152.16C468.517 151.925 468.142 151.581 467.87 151.16L467.61 152.37H466.36V139.44H468V144.44C468.257 144.063 468.6 143.751 469 143.53C469.456 143.314 469.956 143.208 470.46 143.22C470.966 143.204 471.469 143.317 471.92 143.548C472.371 143.779 472.756 144.12 473.04 144.54C473.71 145.566 474.046 146.775 474 148V148.2ZM472.37 148.03C472.405 147.158 472.209 146.291 471.8 145.52C471.635 145.209 471.387 144.951 471.083 144.774C470.779 144.597 470.431 144.509 470.08 144.52C469.628 144.505 469.183 144.634 468.81 144.89C468.456 145.149 468.174 145.493 467.99 145.89V149.76C468.177 150.156 468.458 150.499 468.81 150.76C469.187 151.023 469.64 151.157 470.1 151.14C470.43 151.16 470.759 151.095 471.057 150.952C471.355 150.808 471.61 150.591 471.8 150.32C472.207 149.672 472.406 148.915 472.37 148.15V148.03Z" fill="black"/>
<path d="M477.7 141.11H476.07V139.44H477.7V141.11ZM477.7 152.33H476.07V143.4H477.7V152.33Z" fill="black"/>
<path d="M482 152.33H480.37V139.44H482V152.33Z" fill="black"/>
<path d="M486.22 141.11H484.6V139.44H486.22V141.11ZM486.22 152.33H484.6V143.4H486.22V152.33Z" fill="black"/>
<path d="M491 141.24V143.4H492.7V144.6H491V150C490.969 150.316 491.062 150.632 491.26 150.88C491.448 151.051 491.695 151.144 491.95 151.14C492.053 151.154 492.157 151.154 492.26 151.14C492.359 151.125 492.457 151.098 492.55 151.06L492.78 152.18C492.62 152.299 492.435 152.381 492.24 152.42C492.013 152.487 491.777 152.521 491.54 152.52C491.249 152.534 490.959 152.488 490.687 152.385C490.415 152.282 490.168 152.123 489.96 151.92C489.525 151.394 489.313 150.72 489.37 150.04V144.6H487.95V143.4H489.37V141.24H491Z" fill="black"/>
<path d="M497.16 149L497.45 150.13H497.5L499.7 143.38H501.51L497.75 153.69C497.523 154.274 497.183 154.807 496.75 155.26C496.527 155.484 496.26 155.658 495.965 155.772C495.671 155.886 495.355 155.936 495.04 155.92C494.874 155.932 494.706 155.932 494.54 155.92L494.07 155.83L494.24 154.55H494.53H494.96C495.129 154.551 495.296 154.51 495.444 154.43C495.593 154.349 495.719 154.232 495.81 154.09C496.034 153.779 496.222 153.444 496.37 153.09L496.76 152.15L493.43 143.4H495.25L497.16 149Z" fill="black"/>
<path d="M303.62 172.64C303.56 172.37 303.52 172.13 303.49 171.92C303.46 171.714 303.44 171.508 303.43 171.3C303.119 171.741 302.717 172.11 302.25 172.38C301.776 172.665 301.233 172.814 300.68 172.81C300.296 172.839 299.909 172.791 299.544 172.67C299.178 172.548 298.84 172.354 298.55 172.1C298.296 171.836 298.099 171.522 297.974 171.177C297.848 170.833 297.796 170.466 297.82 170.1C297.804 169.709 297.887 169.321 298.062 168.971C298.237 168.621 298.498 168.321 298.82 168.1C299.665 167.578 300.649 167.327 301.64 167.38H303.4V166.5C303.414 166.27 303.379 166.04 303.298 165.825C303.217 165.61 303.092 165.414 302.93 165.25C302.554 164.926 302.066 164.761 301.57 164.79C301.11 164.772 300.658 164.913 300.29 165.19C300.139 165.299 300.016 165.441 299.931 165.606C299.846 165.771 299.801 165.954 299.8 166.14H298.26V166.09C298.255 165.74 298.336 165.395 298.494 165.083C298.653 164.771 298.885 164.502 299.17 164.3C299.883 163.739 300.774 163.452 301.68 163.49C302.564 163.448 303.433 163.725 304.13 164.27C304.443 164.545 304.688 164.889 304.847 165.273C305.007 165.658 305.076 166.074 305.05 166.49V170.8C305.051 171.107 305.068 171.414 305.1 171.72C305.135 172.018 305.195 172.312 305.28 172.6L303.62 172.64ZM300.91 171.45C301.477 171.459 302.034 171.299 302.51 170.99C302.919 170.768 303.243 170.416 303.43 169.99V168.5H301.61C301.041 168.473 300.48 168.65 300.03 169C299.85 169.136 299.704 169.311 299.602 169.512C299.5 169.713 299.444 169.935 299.44 170.16C299.432 170.335 299.461 170.509 299.527 170.672C299.592 170.834 299.693 170.98 299.82 171.1C300.124 171.353 300.515 171.479 300.91 171.45V171.45Z" fill="black"/>
<path d="M309.69 161.54V163.7H311.39V164.91H309.69V170.33C309.658 170.649 309.752 170.968 309.95 171.22C310.042 171.306 310.151 171.373 310.269 171.416C310.388 171.459 310.514 171.477 310.64 171.47H310.95C311.048 171.45 311.145 171.423 311.24 171.39L311.47 172.5C311.308 172.618 311.125 172.703 310.93 172.75C310.701 172.809 310.466 172.839 310.23 172.84C309.94 172.854 309.649 172.808 309.377 172.705C309.106 172.602 308.858 172.444 308.65 172.24C308.212 171.716 308 171.04 308.06 170.36V164.94H306.64V163.7H308.06V161.54H309.69Z" fill="black"/>
<path d="M314.89 172.64H313.26V159.75H314.89V172.64Z" fill="black"/>
<path d="M322.88 172.64C322.827 172.373 322.787 172.133 322.76 171.92C322.73 171.714 322.71 171.508 322.7 171.3C322.387 171.739 321.985 172.107 321.52 172.38C321.043 172.667 320.496 172.816 319.94 172.81C319.557 172.839 319.172 172.791 318.808 172.669C318.444 172.547 318.108 172.354 317.82 172.1C317.564 171.836 317.366 171.522 317.239 171.178C317.112 170.834 317.057 170.467 317.08 170.1C317.065 169.709 317.148 169.321 317.323 168.972C317.498 168.622 317.758 168.322 318.08 168.1C318.921 167.579 319.902 167.328 320.89 167.38H322.66V166.5C322.672 166.27 322.635 166.039 322.552 165.824C322.47 165.609 322.343 165.413 322.18 165.25C321.807 164.927 321.323 164.762 320.83 164.79C320.37 164.772 319.918 164.913 319.55 165.19C319.399 165.299 319.276 165.441 319.191 165.606C319.106 165.771 319.061 165.954 319.06 166.14H317.52V166.09C317.515 165.74 317.596 165.395 317.754 165.083C317.913 164.771 318.145 164.502 318.43 164.3C319.143 163.739 320.033 163.452 320.94 163.49C321.824 163.448 322.693 163.725 323.39 164.27C323.702 164.545 323.948 164.889 324.107 165.273C324.267 165.658 324.336 166.074 324.31 166.49V170.8C324.311 171.107 324.328 171.414 324.36 171.72C324.39 172.019 324.45 172.314 324.54 172.6L322.88 172.64ZM320.18 171.45C320.747 171.458 321.304 171.298 321.78 170.99C322.189 170.768 322.513 170.416 322.7 169.99V168.5H320.88C320.31 168.473 319.75 168.65 319.3 169C319.12 169.136 318.974 169.311 318.872 169.512C318.769 169.713 318.714 169.935 318.71 170.16C318.702 170.334 318.731 170.507 318.795 170.669C318.859 170.831 318.956 170.978 319.08 171.1C319.389 171.351 319.782 171.476 320.18 171.45Z" fill="black"/>
<path d="M331.89 170.23C331.892 170.063 331.856 169.899 331.785 169.748C331.714 169.597 331.61 169.464 331.48 169.36C331.011 169.054 330.483 168.849 329.93 168.76C329.066 168.614 328.242 168.291 327.51 167.81C327.241 167.633 327.022 167.391 326.873 167.105C326.725 166.82 326.651 166.502 326.66 166.18C326.661 165.818 326.746 165.461 326.907 165.137C327.068 164.812 327.302 164.529 327.59 164.31C328.3 163.795 329.156 163.522 330.033 163.531C330.91 163.54 331.761 163.831 332.46 164.36C332.751 164.588 332.985 164.882 333.141 165.217C333.297 165.553 333.372 165.92 333.36 166.29V166.29H331.81C331.799 166.097 331.748 165.908 331.66 165.736C331.573 165.564 331.45 165.412 331.3 165.29C330.953 164.968 330.493 164.795 330.02 164.81C329.556 164.774 329.096 164.913 328.73 165.2C328.597 165.316 328.491 165.459 328.419 165.619C328.346 165.78 328.309 165.954 328.31 166.13C328.303 166.286 328.333 166.442 328.397 166.584C328.462 166.726 328.558 166.852 328.68 166.95C329.143 167.225 329.657 167.405 330.19 167.48C331.082 167.632 331.931 167.973 332.68 168.48C332.948 168.666 333.166 168.914 333.316 169.203C333.466 169.493 333.543 169.814 333.54 170.14C333.542 170.52 333.452 170.895 333.278 171.233C333.104 171.57 332.85 171.861 332.54 172.08C331.808 172.607 330.92 172.871 330.02 172.83C329.048 172.88 328.092 172.574 327.33 171.97C327.03 171.731 326.789 171.427 326.626 171.08C326.463 170.733 326.382 170.353 326.39 169.97H328C327.995 170.218 328.051 170.463 328.162 170.684C328.274 170.906 328.438 171.097 328.64 171.24C329.063 171.513 329.557 171.652 330.06 171.64C330.542 171.669 331.019 171.539 331.42 171.27C331.586 171.156 331.717 170.999 331.8 170.816C331.883 170.632 331.914 170.43 331.89 170.23Z" fill="black"/>
<path d="M339.24 172.81C338.68 172.84 338.12 172.746 337.601 172.533C337.082 172.32 336.617 171.995 336.24 171.58C335.489 170.672 335.104 169.517 335.16 168.34V168C335.12 166.836 335.516 165.698 336.27 164.81C336.601 164.411 337.017 164.091 337.488 163.873C337.958 163.655 338.471 163.545 338.99 163.55C339.494 163.516 340 163.599 340.467 163.794C340.933 163.988 341.349 164.288 341.68 164.67C342.316 165.536 342.63 166.597 342.57 167.67V168.53H336.86C336.825 169.302 337.035 170.065 337.46 170.71C337.666 170.992 337.94 171.217 338.256 171.364C338.573 171.511 338.922 171.575 339.27 171.55C339.764 171.56 340.256 171.479 340.72 171.31C341.116 171.172 341.481 170.954 341.79 170.67L342.43 171.72C342.064 172.059 341.636 172.324 341.17 172.5C340.554 172.731 339.897 172.836 339.24 172.81V172.81ZM338.99 164.81C338.72 164.804 338.452 164.861 338.208 164.976C337.963 165.09 337.749 165.259 337.58 165.47C337.191 165.95 336.955 166.535 336.9 167.15V167.15H340.9V167.02C340.922 166.447 340.757 165.882 340.43 165.41C340.253 165.207 340.032 165.048 339.785 164.944C339.537 164.84 339.268 164.794 339 164.81H338.99Z" fill="black"/>
<path d="M349.6 170.23C349.602 170.063 349.566 169.899 349.495 169.748C349.424 169.597 349.32 169.465 349.19 169.36C348.72 169.056 348.192 168.851 347.64 168.76C346.774 168.612 345.947 168.289 345.21 167.81C344.944 167.631 344.728 167.387 344.582 167.102C344.435 166.818 344.362 166.5 344.37 166.18C344.371 165.819 344.455 165.463 344.614 165.139C344.774 164.815 345.005 164.532 345.29 164.31C346.001 163.794 346.86 163.521 347.738 163.53C348.617 163.539 349.469 163.83 350.17 164.36C350.458 164.591 350.689 164.886 350.845 165.22C351.001 165.555 351.078 165.921 351.07 166.29V166.29H349.5C349.489 166.097 349.438 165.908 349.35 165.736C349.263 165.564 349.14 165.412 348.99 165.29C348.64 164.966 348.176 164.794 347.7 164.81C347.239 164.774 346.782 164.913 346.42 165.2C346.286 165.315 346.179 165.458 346.104 165.619C346.03 165.779 345.991 165.953 345.99 166.13C345.983 166.286 346.013 166.442 346.078 166.584C346.142 166.726 346.238 166.852 346.36 166.95C346.827 167.224 347.344 167.404 347.88 167.48C348.771 167.636 349.619 167.977 350.37 168.48C350.636 168.667 350.852 168.916 351 169.205C351.148 169.494 351.224 169.815 351.22 170.14C351.222 170.52 351.132 170.895 350.958 171.233C350.784 171.57 350.53 171.861 350.22 172.08C349.441 172.588 348.527 172.849 347.598 172.83C346.668 172.81 345.766 172.51 345.01 171.97C344.711 171.731 344.472 171.426 344.31 171.079C344.149 170.732 344.07 170.353 344.08 169.97V169.97H345.63C345.625 170.218 345.681 170.463 345.792 170.684C345.904 170.906 346.068 171.097 346.27 171.24C346.692 171.514 347.187 171.653 347.69 171.64C348.171 171.668 348.649 171.538 349.05 171.27C349.228 171.164 349.374 171.011 349.471 170.827C349.568 170.644 349.613 170.437 349.6 170.23V170.23Z" fill="black"/>
<path d="M359.74 169.39L359.95 170.53H360L360.21 169.39L362 163.7H363.3L365.1 169.39L365.33 170.66H365.38L365.64 169.39L367 163.7H368.71L366.11 172.64H364.8L363 167.19L362.66 165.77L362.35 167.19L360.61 172.64H359.3L356.7 163.7H358.4L359.74 169.39Z" fill="black"/>
<path d="M374 172.81C373.44 172.84 372.88 172.746 372.361 172.533C371.842 172.32 371.377 171.995 371 171.58C370.249 170.672 369.864 169.517 369.92 168.34V168C369.88 166.836 370.276 165.698 371.03 164.81C371.361 164.411 371.777 164.091 372.248 163.873C372.718 163.655 373.231 163.545 373.75 163.55C374.254 163.516 374.76 163.599 375.227 163.794C375.693 163.988 376.109 164.288 376.44 164.67C377.076 165.536 377.39 166.597 377.33 167.67V168.53H371.62C371.585 169.302 371.795 170.065 372.22 170.71C372.426 170.992 372.7 171.217 373.016 171.364C373.333 171.511 373.682 171.575 374.03 171.55C374.524 171.56 375.016 171.479 375.48 171.31C375.876 171.172 376.241 170.954 376.55 170.67L377.19 171.72C376.824 172.059 376.396 172.324 375.93 172.5C375.314 172.731 374.657 172.836 374 172.81V172.81ZM373.75 164.81C373.48 164.804 373.212 164.861 372.968 164.976C372.723 165.09 372.509 165.259 372.34 165.47C371.951 165.95 371.715 166.535 371.66 167.15H375.66V167.02C375.682 166.447 375.517 165.882 375.19 165.41C375.008 165.2 374.779 165.037 374.522 164.932C374.265 164.828 373.986 164.786 373.71 164.81H373.75Z" fill="black"/>
<path d="M383.35 165.14H382.51C382.128 165.128 381.751 165.233 381.43 165.44C381.128 165.658 380.892 165.956 380.75 166.3V172.69H379.12V163.7H380.57L380.73 165C380.956 164.572 381.277 164.202 381.67 163.92C382.045 163.659 382.493 163.523 382.95 163.53C383.067 163.52 383.184 163.52 383.3 163.53L383.57 163.59L383.35 165.14Z" fill="black"/>
<path d="M388.59 172.81C388.03 172.84 387.471 172.745 386.952 172.532C386.433 172.319 385.968 171.994 385.59 171.58C384.839 170.672 384.454 169.517 384.51 168.34V168C384.47 166.836 384.866 165.698 385.62 164.81C385.952 164.412 386.368 164.093 386.839 163.875C387.309 163.657 387.822 163.546 388.34 163.55C388.844 163.516 389.35 163.599 389.817 163.794C390.283 163.988 390.699 164.288 391.03 164.67C391.67 165.534 391.986 166.596 391.92 167.67V168.53H386.2C386.166 169.302 386.376 170.065 386.8 170.71C387.008 170.992 387.284 171.217 387.602 171.364C387.92 171.511 388.27 171.575 388.62 171.55C389.114 171.56 389.606 171.479 390.07 171.31C390.464 171.167 390.828 170.95 391.14 170.67L391.77 171.72C391.404 172.059 390.976 172.324 390.51 172.5C389.897 172.73 389.244 172.835 388.59 172.81V172.81ZM388.33 164.81C388.06 164.804 387.793 164.861 387.548 164.976C387.304 165.09 387.089 165.259 386.92 165.47C386.532 165.95 386.295 166.535 386.24 167.15H390.24V167.02C390.263 166.445 390.094 165.878 389.76 165.41C389.584 165.206 389.364 165.046 389.116 164.942C388.867 164.838 388.599 164.793 388.33 164.81Z" fill="black"/>
<path d="M397.57 168.34C397.514 167.109 397.839 165.89 398.5 164.85C398.784 164.43 399.169 164.089 399.62 163.858C400.071 163.627 400.574 163.514 401.08 163.53C401.559 163.522 402.034 163.621 402.47 163.82C402.862 164.026 403.204 164.316 403.47 164.67V159.75H405.09V172.64H403.85L403.6 171.51C403.334 171.932 402.961 172.277 402.52 172.51C402.054 172.738 401.539 172.851 401.02 172.84C400.53 172.862 400.042 172.766 399.597 172.561C399.151 172.356 398.762 172.047 398.46 171.66C397.804 170.756 397.476 169.655 397.53 168.54L397.57 168.34ZM399.2 168.51C399.166 169.272 399.357 170.027 399.75 170.68C399.947 170.947 400.207 171.161 400.508 171.302C400.808 171.444 401.139 171.508 401.47 171.49C401.904 171.505 402.332 171.391 402.7 171.16C403.044 170.923 403.323 170.603 403.51 170.23V166.06C403.313 165.704 403.032 165.402 402.69 165.18C402.332 164.952 401.914 164.837 401.49 164.85C401.137 164.836 400.787 164.923 400.48 165.1C400.174 165.277 399.924 165.537 399.76 165.85C399.359 166.627 399.166 167.496 399.2 168.37V168.51Z" fill="black"/>
<path d="M411.27 172.81C410.71 172.84 410.15 172.745 409.632 172.532C409.113 172.319 408.648 171.994 408.27 171.58C407.527 170.668 407.146 169.515 407.2 168.34V168C407.16 166.836 407.556 165.698 408.31 164.81C408.639 164.411 409.053 164.091 409.522 163.873C409.991 163.655 410.503 163.545 411.02 163.55C411.524 163.515 412.03 163.598 412.497 163.793C412.964 163.987 413.379 164.287 413.71 164.67C414.353 165.533 414.672 166.595 414.61 167.67V168.53H408.89C408.853 169.301 409.059 170.063 409.48 170.71C409.688 170.992 409.964 171.217 410.282 171.364C410.6 171.511 410.95 171.575 411.3 171.55C411.794 171.56 412.286 171.479 412.75 171.31C413.144 171.167 413.507 170.95 413.82 170.67L414.45 171.72C414.086 172.061 413.657 172.326 413.19 172.5C412.577 172.732 411.924 172.837 411.27 172.81V172.81ZM411.01 164.81C410.74 164.804 410.472 164.861 410.228 164.976C409.983 165.09 409.769 165.259 409.6 165.47C409.211 165.95 408.975 166.535 408.92 167.15H412.92V167.02C412.943 166.445 412.774 165.878 412.44 165.41C412.263 165.205 412.041 165.044 411.791 164.94C411.541 164.835 411.27 164.791 411 164.81H411.01Z" fill="black"/>
<path d="M419.3 170L419.44 170.63H419.49L419.64 170L421.7 163.7H423.36L420.08 172.64H418.84L415.51 163.7H417.18L419.3 170Z" fill="black"/>
<path d="M428.42 172.81C427.86 172.84 427.301 172.745 426.782 172.532C426.263 172.319 425.798 171.994 425.42 171.58C424.677 170.668 424.296 169.515 424.35 168.34V168C424.31 166.836 424.706 165.698 425.46 164.81C425.789 164.411 426.204 164.091 426.672 163.873C427.141 163.655 427.653 163.545 428.17 163.55C428.675 163.515 429.18 163.598 429.647 163.793C430.114 163.987 430.529 164.287 430.86 164.67C431.503 165.533 431.822 166.595 431.76 167.67V168.53H426C425.963 169.301 426.169 170.063 426.59 170.71C426.798 170.992 427.074 171.217 427.392 171.364C427.71 171.511 428.06 171.575 428.41 171.55C428.904 171.56 429.396 171.479 429.86 171.31C430.254 171.167 430.618 170.95 430.93 170.67L431.56 171.72C431.196 172.061 430.768 172.326 430.3 172.5C429.7 172.727 429.061 172.832 428.42 172.81V172.81ZM428.16 164.81C427.89 164.806 427.623 164.863 427.379 164.978C427.135 165.092 426.92 165.26 426.75 165.47C426.362 165.95 426.125 166.535 426.07 167.15H430.07V167.02C430.093 166.445 429.924 165.878 429.59 165.41C429.414 165.206 429.194 165.046 428.946 164.942C428.697 164.838 428.429 164.793 428.16 164.81Z" fill="black"/>
<path d="M435.33 172.64H433.71V159.75H435.33V172.64Z" fill="black"/>
<path d="M437.46 168.09C437.419 166.908 437.798 165.749 438.53 164.82C438.885 164.396 439.333 164.058 439.84 163.835C440.346 163.611 440.897 163.507 441.45 163.53C442.005 163.506 442.559 163.608 443.068 163.83C443.578 164.052 444.03 164.387 444.39 164.81C445.131 165.738 445.511 166.903 445.46 168.09V168.27C445.512 169.454 445.132 170.616 444.39 171.54C444.016 171.941 443.563 172.261 443.06 172.48C442.557 172.699 442.014 172.812 441.465 172.812C440.916 172.812 440.373 172.699 439.87 172.48C439.367 172.261 438.914 171.941 438.54 171.54C437.796 170.617 437.412 169.455 437.46 168.27V168.09ZM439.09 168.27C439.059 169.095 439.267 169.911 439.69 170.62C439.889 170.905 440.154 171.137 440.462 171.298C440.77 171.458 441.113 171.542 441.46 171.542C441.807 171.542 442.15 171.458 442.458 171.298C442.766 171.137 443.031 170.905 443.23 170.62C443.661 169.914 443.873 169.096 443.84 168.27V168.09C443.873 167.267 443.661 166.452 443.23 165.75C443.043 165.45 442.78 165.205 442.467 165.04C442.154 164.875 441.803 164.795 441.45 164.81C441.1 164.799 440.753 164.88 440.444 165.045C440.136 165.21 439.875 165.453 439.69 165.75C439.267 166.455 439.059 167.268 439.09 168.09V168.27Z" fill="black"/>
<path d="M455.07 168.51C455.12 169.623 454.796 170.722 454.15 171.63C453.849 172.017 453.459 172.326 453.013 172.531C452.568 172.736 452.08 172.832 451.59 172.81C451.093 172.82 450.6 172.728 450.14 172.54C449.728 172.347 449.366 172.063 449.08 171.71V176.08H447.46V163.7H448.7L448.96 164.85C449.234 164.431 449.609 164.087 450.05 163.85C450.522 163.617 451.043 163.501 451.57 163.51C452.077 163.494 452.579 163.607 453.03 163.838C453.481 164.069 453.866 164.41 454.15 164.83C454.808 165.871 455.129 167.09 455.07 168.32V168.51ZM453.44 168.34C453.476 167.467 453.268 166.601 452.84 165.84C452.669 165.526 452.413 165.266 452.102 165.089C451.791 164.913 451.437 164.826 451.08 164.84C450.656 164.827 450.238 164.942 449.88 165.17C449.548 165.388 449.273 165.683 449.08 166.03V170.36C449.27 170.709 449.545 171.005 449.88 171.22C450.248 171.438 450.672 171.546 451.1 171.53C451.44 171.549 451.779 171.481 452.085 171.332C452.392 171.183 452.655 170.959 452.85 170.68C453.271 170.033 453.477 169.271 453.44 168.5V168.34Z" fill="black"/>
<path d="M460.78 172.81C460.22 172.84 459.661 172.745 459.142 172.532C458.623 172.319 458.158 171.994 457.78 171.58C457.029 170.672 456.644 169.517 456.7 168.34V168C456.66 166.836 457.056 165.698 457.81 164.81C458.142 164.412 458.558 164.093 459.029 163.875C459.499 163.657 460.012 163.546 460.53 163.55C461.034 163.516 461.54 163.599 462.007 163.794C462.473 163.988 462.889 164.288 463.22 164.67C463.86 165.534 464.176 166.596 464.11 167.67V168.53H458.4C458.366 169.302 458.575 170.065 459 170.71C459.208 170.992 459.484 171.217 459.802 171.364C460.12 171.511 460.47 171.575 460.82 171.55C461.314 171.56 461.806 171.479 462.27 171.31C462.664 171.167 463.027 170.95 463.34 170.67L463.97 171.72C463.604 172.059 463.176 172.324 462.71 172.5C462.094 172.731 461.438 172.837 460.78 172.81V172.81ZM460.52 164.81C460.25 164.804 459.982 164.861 459.738 164.976C459.494 165.09 459.279 165.259 459.11 165.47C458.721 165.95 458.485 166.535 458.43 167.15V167.15H462.43V167.02C462.453 166.445 462.284 165.878 461.95 165.41C461.774 165.206 461.554 165.046 461.305 164.942C461.057 164.838 460.788 164.793 460.52 164.81Z" fill="black"/>
<path d="M465.56 168.34C465.501 167.11 465.823 165.891 466.48 164.85C466.764 164.43 467.149 164.089 467.6 163.858C468.051 163.627 468.554 163.514 469.06 163.53C469.539 163.521 470.014 163.62 470.45 163.82C470.843 164.024 471.185 164.315 471.45 164.67V159.75H473.08V172.64H471.83L471.58 171.51C471.314 171.932 470.941 172.277 470.5 172.51C470.037 172.737 469.526 172.85 469.01 172.84C468.519 172.862 468.029 172.766 467.582 172.561C467.135 172.356 466.744 172.047 466.44 171.66C465.794 170.752 465.47 169.653 465.52 168.54L465.56 168.34ZM467.19 168.51C467.151 169.272 467.342 170.029 467.74 170.68C467.933 170.951 468.193 171.168 468.494 171.31C468.795 171.452 469.128 171.514 469.46 171.49C469.891 171.504 470.315 171.389 470.68 171.16C471.024 170.923 471.303 170.603 471.49 170.23V166.06C471.294 165.707 471.016 165.405 470.68 165.18C470.322 164.954 469.904 164.839 469.48 164.85C469.125 164.836 468.774 164.923 468.466 165.1C468.159 165.277 467.907 165.537 467.74 165.85C467.342 166.628 467.153 167.497 467.19 168.37V168.51Z" fill="black"/>
<path d="M477 172.24L475.76 174.77H474.76L475.34 172.16V170.81H477V172.24Z" fill="black"/>
<path d="M312.47 188.81C312.524 189.926 312.196 191.026 311.54 191.93C311.24 192.319 310.85 192.63 310.405 192.837C309.96 193.044 309.471 193.141 308.98 193.12C308.446 193.132 307.917 193.012 307.44 192.77C306.995 192.538 306.619 192.193 306.35 191.77L306.09 192.98H304.84V180.06H306.46V185.06C306.734 184.679 307.094 184.367 307.51 184.15C307.966 183.933 308.466 183.827 308.97 183.84C309.477 183.824 309.979 183.937 310.43 184.168C310.881 184.399 311.267 184.74 311.55 185.16C312.206 186.199 312.527 187.413 312.47 188.64V188.81ZM310.84 188.64C310.875 187.769 310.682 186.904 310.28 186.13C310.115 185.818 309.865 185.558 309.559 185.381C309.253 185.204 308.903 185.117 308.55 185.13C308.101 185.113 307.659 185.243 307.29 185.5C306.934 185.758 306.648 186.102 306.46 186.5V190.37C306.651 190.766 306.936 191.11 307.29 191.37C307.664 191.633 308.113 191.767 308.57 191.75C308.901 191.771 309.233 191.707 309.532 191.563C309.832 191.42 310.089 191.202 310.28 190.93C310.684 190.281 310.88 189.524 310.84 188.76V188.64Z" fill="black"/>
<path d="M320 192.94C319.94 192.67 319.9 192.44 319.87 192.23C319.839 192.025 319.822 191.818 319.82 191.61C319.503 192.046 319.097 192.411 318.63 192.68C318.157 192.969 317.614 193.121 317.06 193.12C316.675 193.147 316.289 193.097 315.923 192.973C315.557 192.85 315.22 192.655 314.93 192.4C314.674 192.137 314.477 191.823 314.351 191.478C314.225 191.133 314.174 190.766 314.2 190.4C314.183 190.009 314.266 189.62 314.441 189.27C314.616 188.92 314.877 188.621 315.2 188.4C316.045 187.879 317.029 187.628 318.02 187.68H319.79V186.79C319.802 186.561 319.765 186.332 319.682 186.119C319.6 185.905 319.473 185.711 319.31 185.55C319.125 185.387 318.909 185.263 318.676 185.184C318.443 185.105 318.196 185.073 317.95 185.09C317.489 185.067 317.036 185.209 316.67 185.49C316.522 185.6 316.401 185.743 316.318 185.908C316.235 186.073 316.191 186.255 316.19 186.44H314.64C314.635 186.092 314.716 185.747 314.874 185.437C315.033 185.127 315.265 184.86 315.55 184.66C316.263 184.099 317.154 183.812 318.06 183.85C318.942 183.808 319.811 184.081 320.51 184.62C320.822 184.898 321.066 185.243 321.226 185.63C321.385 186.016 321.455 186.433 321.43 186.85V191.15C321.43 191.47 321.43 191.78 321.48 192.08C321.518 192.375 321.582 192.666 321.67 192.95L320 192.94ZM317.3 191.75C317.863 191.758 318.415 191.602 318.89 191.3C319.3 191.076 319.626 190.725 319.82 190.3V188.85H317.99C317.425 188.818 316.867 188.992 316.42 189.34C316.238 189.476 316.09 189.653 315.987 189.856C315.885 190.059 315.831 190.283 315.83 190.51C315.822 190.684 315.851 190.857 315.915 191.019C315.979 191.181 316.076 191.328 316.2 191.45C316.502 191.675 316.875 191.782 317.25 191.75H317.3Z" fill="black"/>
<path d="M329 190.54C329.004 190.372 328.969 190.205 328.897 190.052C328.826 189.9 328.721 189.766 328.59 189.66C328.119 189.36 327.592 189.159 327.04 189.07C326.175 188.918 325.349 188.595 324.61 188.12C324.344 187.938 324.128 187.693 323.982 187.407C323.835 187.12 323.762 186.802 323.77 186.48C323.771 186.12 323.854 185.765 324.014 185.443C324.173 185.12 324.405 184.839 324.69 184.62C325.374 184.08 326.229 183.803 327.1 183.84C327.996 183.793 328.876 184.09 329.56 184.67C329.85 184.898 330.082 185.19 330.24 185.523C330.398 185.856 330.477 186.221 330.47 186.59V186.59H328.92C328.908 186.397 328.857 186.209 328.769 186.037C328.681 185.865 328.559 185.713 328.41 185.59C328.048 185.3 327.602 185.135 327.138 185.121C326.675 185.107 326.219 185.243 325.84 185.51C325.707 185.624 325.6 185.765 325.526 185.924C325.452 186.082 325.412 186.255 325.41 186.43C325.403 186.586 325.433 186.742 325.498 186.884C325.562 187.026 325.659 187.152 325.78 187.25C326.246 187.528 326.763 187.708 327.3 187.78C328.191 187.936 329.039 188.277 329.79 188.78C330.056 188.967 330.272 189.216 330.42 189.505C330.569 189.794 330.644 190.115 330.64 190.44C330.644 190.82 330.554 191.196 330.38 191.534C330.206 191.872 329.952 192.162 329.64 192.38C328.863 192.893 327.949 193.158 327.018 193.138C326.087 193.119 325.184 192.816 324.43 192.27C324.13 192.032 323.89 191.727 323.728 191.38C323.567 191.033 323.489 190.653 323.5 190.27V190.27H325.06C325.054 190.517 325.109 190.761 325.221 190.981C325.333 191.201 325.497 191.389 325.7 191.53C326.118 191.805 326.61 191.948 327.11 191.94C327.591 191.966 328.068 191.836 328.47 191.57C328.642 191.461 328.782 191.309 328.876 191.127C328.969 190.946 329.012 190.743 329 190.54Z" fill="black"/>
<path d="M336.31 193.12C335.75 193.15 335.191 193.055 334.672 192.842C334.153 192.629 333.688 192.304 333.31 191.89C332.563 190.98 332.179 189.826 332.23 188.65V188.28C332.192 187.117 332.591 185.982 333.35 185.1C333.679 184.701 334.094 184.381 334.563 184.163C335.031 183.945 335.543 183.835 336.06 183.84C336.564 183.803 337.069 183.884 337.536 184.077C338.003 184.27 338.419 184.569 338.75 184.95C339.391 185.814 339.709 186.876 339.65 187.95V188.81H333.93C333.891 189.584 334.098 190.35 334.52 191C334.728 191.282 335.004 191.507 335.322 191.654C335.64 191.801 335.991 191.865 336.34 191.84C336.834 191.85 337.326 191.769 337.79 191.6C338.185 191.454 338.548 191.233 338.86 190.95L339.49 192.01C339.124 192.349 338.696 192.614 338.23 192.79C337.617 193.023 336.965 193.135 336.31 193.12ZM336.05 185.12C335.78 185.115 335.513 185.171 335.268 185.286C335.024 185.4 334.809 185.569 334.64 185.78C334.246 186.257 334.008 186.843 333.96 187.46V187.46H337.96V187.33C337.982 186.752 337.813 186.183 337.48 185.71C337.303 185.508 337.082 185.35 336.834 185.247C336.586 185.145 336.318 185.101 336.05 185.12V185.12Z" fill="black"/>
<path d="M341.09 188.64C341.033 187.413 341.354 186.199 342.01 185.16C342.293 184.74 342.679 184.399 343.13 184.168C343.581 183.937 344.083 183.824 344.59 183.84C345.073 183.827 345.552 183.927 345.99 184.13C346.385 184.326 346.728 184.614 346.99 184.97V180.06H348.62V192.94H347.4L347.16 191.81C346.886 192.229 346.511 192.573 346.07 192.81C345.607 193.037 345.096 193.15 344.58 193.14C344.089 193.162 343.6 193.065 343.154 192.858C342.709 192.651 342.32 192.339 342.02 191.95C341.364 191.046 341.036 189.946 341.09 188.83V188.64ZM342.72 188.81C342.679 189.572 342.871 190.329 343.27 190.98C343.46 191.255 343.719 191.475 344.021 191.618C344.323 191.762 344.657 191.825 344.99 191.8C345.422 191.817 345.849 191.698 346.21 191.46C346.559 191.233 346.839 190.915 347.02 190.54V186.37C346.826 186.015 346.548 185.712 346.21 185.49C345.852 185.262 345.434 185.147 345.01 185.16C344.656 185.142 344.304 185.227 343.997 185.405C343.69 185.582 343.441 185.844 343.28 186.16C342.873 186.932 342.679 187.798 342.72 188.67V188.81Z" fill="black"/>
<path d="M354.91 188.39C354.869 187.208 355.248 186.049 355.98 185.12C356.337 184.698 356.786 184.364 357.292 184.142C357.798 183.92 358.348 183.817 358.9 183.84C359.454 183.812 360.007 183.914 360.515 184.136C361.024 184.358 361.474 184.695 361.83 185.12C362.575 186.043 362.959 187.205 362.91 188.39V188.57C362.964 189.757 362.583 190.923 361.84 191.85C361.466 192.253 361.012 192.574 360.508 192.794C360.004 193.014 359.46 193.127 358.91 193.127C358.36 193.127 357.816 193.014 357.312 192.794C356.808 192.574 356.354 192.253 355.98 191.85C355.242 190.924 354.862 189.763 354.91 188.58V188.39ZM356.54 188.57C356.504 189.394 356.709 190.211 357.13 190.92C357.319 191.22 357.585 191.464 357.899 191.627C358.214 191.791 358.566 191.868 358.92 191.85C359.269 191.862 359.615 191.783 359.924 191.62C360.233 191.456 360.493 191.215 360.68 190.92C361.107 190.213 361.319 189.396 361.29 188.57V188.39C361.315 187.568 361.103 186.755 360.68 186.05C360.492 185.752 360.228 185.509 359.915 185.345C359.603 185.182 359.252 185.104 358.9 185.12C358.549 185.106 358.201 185.185 357.89 185.348C357.58 185.511 357.317 185.753 357.13 186.05C356.713 186.757 356.508 187.57 356.54 188.39V188.57Z" fill="black"/>
<path d="M366.36 184L366.47 185.33C366.745 184.873 367.13 184.491 367.59 184.22C368.059 183.954 368.591 183.819 369.13 183.83C369.541 183.805 369.952 183.868 370.337 184.014C370.721 184.161 371.07 184.388 371.36 184.68C371.95 185.416 372.237 186.35 372.16 187.29V192.93H370.53V187.32C370.586 186.724 370.418 186.129 370.06 185.65C369.871 185.472 369.647 185.336 369.403 185.25C369.158 185.164 368.898 185.13 368.64 185.15C368.194 185.136 367.753 185.24 367.36 185.45C367.01 185.651 366.723 185.946 366.53 186.3V192.93H364.9V184H366.36Z" fill="black"/>
<path d="M387.82 180.91V188.91C387.851 189.49 387.753 190.069 387.531 190.605C387.31 191.141 386.971 191.622 386.54 192.01C385.607 192.784 384.42 193.183 383.21 193.13C382.035 193.174 380.888 192.77 380 192C379.58 191.604 379.251 191.122 379.036 190.587C378.82 190.052 378.722 189.476 378.75 188.9V180.9H380.38V188.9C380.357 189.296 380.415 189.693 380.551 190.066C380.687 190.44 380.898 190.781 381.17 191.07C381.435 191.326 381.749 191.526 382.092 191.66C382.435 191.794 382.802 191.859 383.17 191.85C383.963 191.877 384.737 191.598 385.33 191.07C385.612 190.786 385.831 190.446 385.974 190.073C386.117 189.699 386.18 189.3 386.16 188.9V180.9L387.82 180.91Z" fill="black"/>
<path d="M399.5 192.94H397.87L392.08 183.76H392V192.93H390.4V180.93H392L397.79 190.11H397.84V180.94H399.47L399.5 192.94Z" fill="black"/>
<path d="M410.53 185.44L409.69 185.39C409.311 185.376 408.937 185.481 408.622 185.691C408.306 185.901 408.064 186.205 407.93 186.56V192.94H406.3V184H407.75L407.91 185.3C408.132 184.869 408.454 184.499 408.85 184.22C409.225 183.959 409.673 183.823 410.13 183.83C410.247 183.82 410.364 183.82 410.48 183.83L410.75 183.89L410.53 185.44Z" fill="black"/>
<path d="M415.77 193.12C415.21 193.15 414.65 193.055 414.132 192.842C413.613 192.629 413.148 192.304 412.77 191.89C412.027 190.978 411.646 189.825 411.7 188.65V188.28C411.658 187.118 412.054 185.983 412.81 185.1C413.139 184.701 413.553 184.381 414.022 184.163C414.491 183.945 415.003 183.835 415.52 183.84C416.026 183.811 416.532 183.901 416.997 184.102C417.463 184.303 417.875 184.611 418.2 185C418.841 185.864 419.159 186.926 419.1 188V188.86H413.38C413.36 189.62 413.577 190.368 414 191C414.208 191.282 414.484 191.507 414.802 191.654C415.12 191.801 415.47 191.865 415.82 191.84C416.314 191.85 416.805 191.769 417.27 191.6C417.665 191.454 418.028 191.233 418.34 190.95L418.97 192.01C418.606 192.351 418.177 192.616 417.71 192.79C417.091 193.027 416.432 193.14 415.77 193.12ZM415.51 185.12C415.24 185.114 414.972 185.171 414.728 185.286C414.483 185.4 414.269 185.569 414.1 185.78C413.705 186.256 413.468 186.843 413.42 187.46V187.46H417.42V187.33C417.442 186.752 417.273 186.183 416.94 185.71C416.763 185.508 416.542 185.35 416.294 185.247C416.046 185.145 415.778 185.101 415.51 185.12V185.12Z" fill="black"/>
<path d="M426.12 190.54C426.124 190.372 426.089 190.205 426.017 190.052C425.946 189.9 425.841 189.766 425.71 189.66C425.24 189.357 424.712 189.156 424.16 189.07C423.298 188.92 422.474 188.597 421.74 188.12C421.471 187.941 421.252 187.696 421.104 187.41C420.955 187.123 420.882 186.803 420.89 186.48C420.89 186.119 420.975 185.763 421.136 185.441C421.297 185.118 421.532 184.837 421.82 184.62C422.503 184.078 423.359 183.801 424.23 183.84C425.125 183.797 426.004 184.094 426.69 184.67C426.98 184.897 427.213 185.189 427.369 185.523C427.525 185.856 427.601 186.222 427.59 186.59H426C425.988 186.397 425.937 186.209 425.849 186.037C425.761 185.865 425.639 185.713 425.49 185.59C425.14 185.273 424.682 185.105 424.21 185.12C423.746 185.084 423.286 185.223 422.92 185.51C422.788 185.624 422.683 185.766 422.61 185.924C422.538 186.083 422.5 186.256 422.5 186.43C422.493 186.586 422.523 186.742 422.588 186.884C422.652 187.026 422.749 187.152 422.87 187.25C423.332 187.529 423.846 187.709 424.38 187.78C425.274 187.934 426.126 188.275 426.88 188.78C427.146 188.967 427.362 189.216 427.51 189.505C427.659 189.794 427.734 190.115 427.73 190.44C427.734 190.82 427.644 191.196 427.47 191.534C427.296 191.872 427.042 192.162 426.73 192.38C426 192.91 425.112 193.178 424.21 193.14C423.236 193.197 422.276 192.886 421.52 192.27C421.219 192.033 420.977 191.728 420.814 191.381C420.651 191.034 420.571 190.653 420.58 190.27V190.27H422.13C422.123 190.518 422.18 190.763 422.293 190.984C422.407 191.204 422.574 191.392 422.78 191.53C423.197 191.807 423.689 191.95 424.19 191.94C424.671 191.965 425.148 191.835 425.55 191.57C425.731 191.467 425.879 191.317 425.98 191.135C426.08 190.953 426.129 190.747 426.12 190.54Z" fill="black"/>
<path d="M433.47 193.12C432.91 193.15 432.35 193.056 431.832 192.843C431.313 192.63 430.848 192.305 430.47 191.89C429.719 190.982 429.334 189.827 429.39 188.65V188.28C429.348 187.118 429.744 185.983 430.5 185.1C430.831 184.701 431.247 184.381 431.718 184.163C432.188 183.945 432.702 183.835 433.22 183.84C433.724 183.804 434.229 183.886 434.696 184.078C435.163 184.271 435.578 184.569 435.91 184.95C436.543 185.818 436.857 186.877 436.8 187.95V188.81H431.09C431.054 189.585 431.264 190.351 431.69 191C431.896 191.282 432.17 191.507 432.487 191.654C432.803 191.801 433.152 191.865 433.5 191.84C433.994 191.85 434.486 191.769 434.95 191.6C435.335 191.469 435.691 191.265 436 191L436.64 192.06C436.272 192.401 435.841 192.666 435.37 192.84C434.761 193.055 434.116 193.15 433.47 193.12V193.12ZM433.22 185.12C432.95 185.114 432.683 185.171 432.438 185.286C432.194 185.4 431.979 185.569 431.81 185.78C431.416 186.256 431.178 186.843 431.13 187.46H435.13V187.33C435.15 186.754 434.986 186.186 434.66 185.71C434.482 185.507 434.259 185.348 434.009 185.246C433.759 185.144 433.489 185.101 433.22 185.12V185.12Z" fill="black"/>
<path d="M444.12 192.94C444.07 192.67 444.03 192.44 444 192.23C443.965 192.025 443.945 191.818 443.94 191.61C443.625 192.049 443.219 192.414 442.75 192.68C442.277 192.969 441.734 193.121 441.18 193.12C440.795 193.147 440.408 193.097 440.043 192.973C439.677 192.85 439.34 192.655 439.05 192.4C438.794 192.137 438.597 191.823 438.471 191.478C438.345 191.133 438.294 190.766 438.32 190.4C438.304 190.009 438.387 189.621 438.562 189.271C438.737 188.921 438.998 188.621 439.32 188.4C440.161 187.879 441.142 187.628 442.13 187.68H443.9V186.79C443.912 186.561 443.875 186.332 443.792 186.119C443.709 185.905 443.583 185.711 443.42 185.55C443.236 185.388 443.022 185.264 442.791 185.185C442.559 185.107 442.314 185.074 442.07 185.09C441.607 185.07 441.151 185.211 440.78 185.49C440.632 185.6 440.511 185.743 440.428 185.908C440.344 186.073 440.301 186.255 440.3 186.44H438.75C438.744 186.091 438.823 185.746 438.982 185.436C439.141 185.125 439.374 184.859 439.66 184.66C440.372 184.097 441.263 183.81 442.17 183.85C443.049 183.808 443.914 184.081 444.61 184.62C444.925 184.896 445.173 185.24 445.334 185.627C445.495 186.014 445.566 186.432 445.54 186.85V191.15C445.536 191.461 445.553 191.771 445.59 192.08C445.62 192.375 445.68 192.667 445.77 192.95L444.12 192.94ZM441.42 191.75C441.982 191.758 442.535 191.602 443.01 191.3C443.422 191.079 443.749 190.727 443.94 190.3V188.85H442.11C441.545 188.82 440.988 188.994 440.54 189.34C440.359 189.478 440.213 189.654 440.11 189.857C440.008 190.06 439.953 190.283 439.95 190.51C439.942 190.684 439.971 190.857 440.035 191.019C440.099 191.181 440.196 191.328 440.32 191.45C440.636 191.683 441.029 191.79 441.42 191.75Z" fill="black"/>
<path d="M452.16 185.44L451.33 185.39C450.944 185.381 450.564 185.489 450.24 185.7C449.938 185.918 449.702 186.216 449.56 186.56V192.94H447.93V184H449.39L449.54 185.3C449.768 184.874 450.09 184.505 450.48 184.22C450.858 183.958 451.31 183.821 451.77 183.83C451.883 183.82 451.997 183.82 452.11 183.83L452.38 183.89L452.16 185.44Z" fill="black"/>
<path d="M457.25 191.85C457.734 191.856 458.203 191.677 458.56 191.35C458.74 191.2 458.884 191.012 458.983 190.799C459.081 190.586 459.132 190.354 459.13 190.12H460.6C460.602 190.516 460.512 190.906 460.339 191.262C460.165 191.617 459.913 191.928 459.6 192.17C458.949 192.76 458.099 193.081 457.22 193.07C456.669 193.099 456.118 192.998 455.613 192.776C455.107 192.554 454.661 192.216 454.31 191.79C453.621 190.873 453.267 189.747 453.31 188.6V188.25C453.263 187.106 453.617 185.981 454.31 185.07C454.659 184.644 455.104 184.306 455.607 184.084C456.111 183.862 456.66 183.761 457.21 183.79C457.659 183.773 458.107 183.845 458.528 184.003C458.948 184.161 459.333 184.402 459.66 184.71C459.966 185.004 460.206 185.358 460.364 185.751C460.523 186.144 460.596 186.567 460.58 186.99V187.04H459.1C459.109 186.521 458.915 186.019 458.56 185.64C458.391 185.454 458.183 185.307 457.952 185.209C457.721 185.111 457.471 185.063 457.22 185.07C456.871 185.048 456.522 185.123 456.213 185.287C455.904 185.451 455.647 185.698 455.47 186C455.089 186.688 454.9 187.464 454.92 188.25V188.6C454.898 189.392 455.087 190.176 455.47 190.87C455.641 191.188 455.9 191.449 456.215 191.623C456.531 191.797 456.89 191.876 457.25 191.85Z" fill="black"/>
<path d="M464.18 185.2C464.477 184.783 464.868 184.44 465.32 184.2C465.779 183.958 466.291 183.835 466.81 183.84C467.221 183.817 467.633 183.882 468.017 184.031C468.402 184.179 468.75 184.407 469.04 184.7C469.627 185.449 469.909 186.392 469.83 187.34V192.94H468.21V187.33C468.259 186.743 468.088 186.158 467.73 185.69C467.546 185.506 467.326 185.364 467.082 185.272C466.839 185.181 466.579 185.143 466.32 185.16C465.879 185.151 465.443 185.25 465.05 185.45C464.696 185.633 464.396 185.905 464.18 186.24V192.94H462.56V180.06H464.18V185.2Z" fill="black"/>
<path d="M289.88 69.4201V73.5301H273.42V70.2601L281.82 62.3301C282.533 61.7007 283.141 60.9613 283.62 60.1401C283.923 59.5809 284.084 58.956 284.09 58.3201C284.11 57.941 284.041 57.5625 283.889 57.2151C283.736 56.8677 283.503 56.5611 283.21 56.3201C282.445 55.8056 281.53 55.5595 280.61 55.6201C279.719 55.6046 278.837 55.7927 278.03 56.1701C277.254 56.5342 276.589 57.0964 276.1 57.8001L272.43 55.4401C273.302 54.1364 274.516 53.0984 275.94 52.4401C277.546 51.697 279.3 51.3277 281.07 51.3601C282.527 51.3298 283.974 51.6022 285.32 52.1601C286.458 52.6212 287.44 53.3985 288.15 54.4001C288.83 55.401 289.18 56.5901 289.15 57.8001C289.156 58.9526 288.9 60.0914 288.4 61.1301C287.659 62.4757 286.68 63.6753 285.51 64.6701L280.51 69.4001L289.88 69.4201Z" fill="#CF9D2B"/>
<path d="M322.09 51.76V73.53H318L307.1 60.31V73.53H302.1V51.76H306.27L317.12 65V51.76H322.09Z" fill="#CF9D2B"/>
<path d="M341.59 68.86H331.49L329.56 73.53H324.4L334.1 51.76H339.1L348.83 73.53H343.54L341.59 68.86ZM340 65L336.55 56.66L333.1 65H340Z" fill="#CF9D2B"/>
<path d="M354.5 55.86H347.5V51.76H366.5V55.86H359.5V73.53H354.5V55.86Z" fill="#CF9D2B"/>
<path d="M369.21 51.76H374.21V73.53H369.21V51.76Z" fill="#CF9D2B"/>
<path d="M383.84 72.44C382.065 71.4919 380.58 70.0794 379.546 68.3534C378.511 66.6273 377.964 64.6526 377.964 62.64C377.964 60.6274 378.511 58.6527 379.546 56.9266C380.58 55.2006 382.065 53.7881 383.84 52.84C385.732 51.8799 387.824 51.3795 389.945 51.3795C392.067 51.3795 394.158 51.8799 396.05 52.84C397.802 53.7685 399.273 55.1498 400.31 56.84C401.326 58.5933 401.861 60.5837 401.861 62.61C401.861 64.6363 401.326 66.6267 400.31 68.38C399.273 70.0702 397.802 71.4515 396.05 72.38C394.158 73.3401 392.067 73.8405 389.945 73.8405C387.824 73.8405 385.732 73.3401 383.84 72.38V72.44ZM393.44 68.72C394.466 68.1385 395.311 67.2834 395.88 66.25C396.464 65.1364 396.77 63.8976 396.77 62.64C396.77 61.3824 396.464 60.1436 395.88 59.03C395.309 57.9985 394.465 57.144 393.44 56.56C392.366 55.9771 391.163 55.6718 389.94 55.6718C388.718 55.6718 387.515 55.9771 386.44 56.56C385.418 57.1334 384.573 57.9777 384 59C383.416 60.1136 383.111 61.3524 383.111 62.61C383.111 63.8676 383.416 65.1064 384 66.22C384.566 67.2556 385.411 68.1115 386.44 68.69C387.513 69.2791 388.716 69.588 389.94 69.588C391.164 69.588 392.368 69.2791 393.44 68.69V68.72Z" fill="#CF9D2B"/>
<path d="M425.62 51.76V73.53H421.49L410.63 60.31V73.53H405.63V51.76H409.79L420.65 65V51.76H425.62Z" fill="#CF9D2B"/>
<path d="M445.12 68.86H435L433.07 73.53H427.91L437.61 51.76H442.61L452.35 73.53H447.06L445.12 68.86ZM443.54 65L440.09 56.66L436.63 65H443.54Z" fill="#CF9D2B"/>
<path d="M454.61 51.76H459.61V69.42H470.52V73.53H454.61V51.76Z" fill="#CF9D2B"/>
<path d="M498.92 73.9L496.31 71.47C494.226 73.0985 491.644 73.957 489 73.9C487.544 73.9225 486.098 73.6645 484.74 73.14C483.569 72.7072 482.534 71.9724 481.74 71.01C481.043 70.1352 480.665 69.0486 480.67 67.93C480.647 66.6501 481.047 65.3984 481.81 64.37C482.803 63.141 484.047 62.1386 485.46 61.43C484.767 60.7553 484.189 59.9716 483.75 59.11C483.405 58.3993 483.224 57.6201 483.22 56.83C483.2 55.8318 483.494 54.8524 484.06 54.03C484.656 53.1877 485.482 52.535 486.44 52.15C487.567 51.6822 488.78 51.4541 490 51.48C491.623 51.3979 493.225 51.8744 494.54 52.83C495.095 53.2587 495.539 53.8135 495.836 54.4482C496.134 55.083 496.275 55.7795 496.25 56.48C496.267 57.5645 495.914 58.6224 495.25 59.48C494.363 60.526 493.275 61.383 492.05 62L496.05 65.7C496.554 64.6203 496.92 63.4813 497.14 62.31L501 63.51C500.648 65.2703 499.969 66.9492 499 68.46L501.55 70.82L498.92 73.9ZM493.45 68.83L488.19 63.92C487.401 64.333 486.696 64.8891 486.11 65.56C485.705 66.0877 485.487 66.7349 485.49 67.4C485.478 67.7967 485.57 68.1895 485.756 68.5402C485.941 68.8908 486.215 69.1871 486.55 69.4C487.392 69.937 488.382 70.1958 489.38 70.14C490.841 70.1474 492.267 69.6885 493.45 68.83V68.83ZM488.33 55.33C488.126 55.5076 487.964 55.7277 487.856 55.9748C487.747 56.222 487.694 56.49 487.7 56.76C487.683 57.1932 487.786 57.6227 488 58C488.382 58.5661 488.832 59.0833 489.34 59.54C490.148 59.1548 490.89 58.6453 491.54 58.03C491.931 57.6515 492.157 57.1342 492.17 56.59C492.178 56.344 492.132 56.0991 492.036 55.8727C491.939 55.6464 491.794 55.444 491.61 55.28C491.159 54.9247 490.593 54.7468 490.02 54.78C489.409 54.7548 488.809 54.95 488.33 55.33V55.33Z" fill="#CF9D2B"/>
<path d="M286.89 99.09C287.609 99.6847 288.181 100.437 288.563 101.288C288.944 102.14 289.125 103.068 289.09 104C289.101 105.279 288.754 106.537 288.09 107.63C287.36 108.769 286.319 109.675 285.09 110.24C283.518 110.94 281.81 111.282 280.09 111.24C278.563 111.242 277.042 111.037 275.57 110.63C274.218 110.285 272.938 109.703 271.79 108.91L273.79 105.05C274.657 105.688 275.623 106.178 276.65 106.5C277.727 106.84 278.85 107.012 279.98 107.01C281.033 107.072 282.08 106.81 282.98 106.26C283.322 106.027 283.603 105.714 283.796 105.348C283.99 104.982 284.091 104.574 284.091 104.16C284.091 103.746 283.99 103.338 283.796 102.972C283.603 102.606 283.322 102.293 282.98 102.06C281.748 101.493 280.392 101.249 279.04 101.35H273.48L274.6 89.1H287.88V93.1H278.8L278.45 97.23H280.23C283.16 97.25 285.43 97.87 286.89 99.09Z" fill="#CF9D2B"/>
<path d="M315.75 90C317.085 90.5846 318.216 91.5521 319 92.78C319.753 94.0481 320.15 95.4955 320.15 96.97C320.15 98.4446 319.753 99.892 319 101.16C318.204 102.378 317.062 103.329 315.72 103.89C314.143 104.574 312.439 104.915 310.72 104.89H306.33V110.89H301.33V89.08H310.75C312.463 89.0298 314.167 89.3433 315.75 90V90ZM313.9 99.72C314.274 99.3558 314.571 98.9203 314.774 98.4395C314.976 97.9586 315.081 97.4419 315.081 96.92C315.081 96.3981 314.976 95.8815 314.774 95.4006C314.571 94.9197 314.274 94.4843 313.9 94.12C312.901 93.3961 311.681 93.0425 310.45 93.12H306.34V100.68H310.45C311.672 100.781 312.891 100.456 313.9 99.76V99.72Z" fill="#CF9D2B"/>
<path d="M337.63 110.84L333.43 104.78H328.8V110.84H323.8V89.08H333.22C334.939 89.0541 336.643 89.395 338.22 90.08C339.563 90.6481 340.708 91.6016 341.51 92.82C342.285 94.0738 342.678 95.5264 342.64 97C342.698 98.4695 342.298 99.9208 341.495 101.153C340.693 102.386 339.527 103.338 338.16 103.88L343.04 110.88L337.63 110.84ZM336.35 94.16C335.352 93.4337 334.132 93.0799 332.9 93.16H328.8V100.75H332.9C334.133 100.84 335.357 100.485 336.35 99.75C336.727 99.3863 337.026 98.9505 337.231 98.4686C337.435 97.9866 337.54 97.4685 337.54 96.945C337.54 96.4215 337.435 95.9033 337.231 95.4214C337.026 94.9395 336.727 94.5037 336.35 94.14V94.16Z" fill="#CF9D2B"/>
<path d="M351.05 109.76C349.275 108.812 347.79 107.399 346.755 105.673C345.721 103.947 345.174 101.973 345.174 99.96C345.174 97.9474 345.721 95.9726 346.755 94.2466C347.79 92.5205 349.275 91.108 351.05 90.16C352.942 89.1998 355.034 88.6995 357.155 88.6995C359.277 88.6995 361.368 89.1998 363.26 90.16C365.012 91.0885 366.483 92.4698 367.52 94.16C368.536 95.9133 369.071 97.9037 369.071 99.93C369.071 101.956 368.536 103.947 367.52 105.7C366.483 107.39 365.012 108.771 363.26 109.7C361.368 110.66 359.277 111.16 357.155 111.16C355.034 111.16 352.942 110.66 351.05 109.7V109.76ZM360.64 106.04C361.666 105.458 362.511 104.603 363.08 103.57C363.664 102.456 363.97 101.218 363.97 99.96C363.97 98.7024 363.664 97.4636 363.08 96.35C362.514 95.3143 361.669 94.4585 360.64 93.88C359.568 93.2891 358.364 92.9792 357.14 92.9792C355.916 92.9792 354.712 93.2891 353.64 93.88C352.611 94.4585 351.766 95.3143 351.2 96.35C350.616 97.4636 350.311 98.7024 350.311 99.96C350.311 101.218 350.616 102.456 351.2 103.57C351.769 104.603 352.614 105.458 353.64 106.04C354.712 106.631 355.916 106.941 357.14 106.941C358.364 106.941 359.568 106.631 360.64 106.04V106.04Z" fill="#CF9D2B"/>
<path d="M393.08 89.08L383.66 110.84H378.66L369.27 89.08H374.71L381.34 104.62L388.05 89.08H393.08Z" fill="#CF9D2B"/>
<path d="M394.88 89.08H399.88V110.84H394.88V89.08Z" fill="#CF9D2B"/>
<path d="M425.05 89.08V110.84H420.91L410.06 97.63V110.84H405.06V89.08H409.23L420.05 102.29V89.08H425.05Z" fill="#CF9D2B"/>
<path d="M434.61 109.77C432.861 108.849 431.398 107.465 430.38 105.77C429.371 104.004 428.84 102.004 428.84 99.97C428.84 97.9356 429.371 95.9364 430.38 94.17C431.398 92.4749 432.861 91.0914 434.61 90.17C436.331 89.2991 438.219 88.8082 440.146 88.7305C442.073 88.6529 443.995 88.9903 445.78 89.72C447.269 90.3551 448.585 91.3355 449.62 92.58L446.38 95.58C445.722 94.7651 444.888 94.1096 443.941 93.6628C442.993 93.216 441.957 92.9894 440.91 93C439.65 92.9796 438.406 93.2863 437.3 93.89C436.258 94.4614 435.401 95.3183 434.83 96.36C434.246 97.4736 433.94 98.7124 433.94 99.97C433.94 101.228 434.246 102.466 434.83 103.58C435.412 104.601 436.267 105.439 437.3 106C438.406 106.604 439.65 106.91 440.91 106.89C441.958 106.903 442.995 106.677 443.942 106.23C444.89 105.783 445.723 105.127 446.38 104.31L449.62 107.31C448.584 108.569 447.26 109.56 445.76 110.2C444.138 110.887 442.391 111.227 440.63 111.2C438.535 111.238 436.464 110.746 434.61 109.77V109.77Z" fill="#CF9D2B"/>
<path d="M453 89.08H458V110.84H453V89.08Z" fill="#CF9D2B"/>
<path d="M477.54 106.18H467.44L465.51 110.84H460.35L470.05 89.08H475.05L484.78 110.84H479.49L477.54 106.18ZM476 102.35L472.51 94L469.05 102.33L476 102.35Z" fill="#CF9D2B"/>
<path d="M487 89.08H492V106.74H503V110.84H487V89.08Z" fill="#CF9D2B"/>
<path d="M238.47 125.176L124.315 11.0208L10.1596 125.176L124.315 239.331L238.47 125.176Z" fill="#CF9D2B"/>
<g opacity="0.15">
<path d="M124.31 227.72L21.77 125.18L124.31 22.64L226.85 125.18L124.31 227.72ZM24.94 125.18L124.31 224.56L223.69 125.18L124.31 25.81L24.94 125.18ZM124.31 214.7L90.09 180.47L116.26 154.3L90.89 128.93L72.89 146.93L84.79 158.83L89.71 153.9L82.71 146.9L90.86 138.76L106.4 154.3L85.16 175.55L55.24 145.63L75.68 125.18L55.24 104.74L85.16 74.82L106.4 96.06L90.89 111.58L82.74 103.43L89.74 96.43L84.82 91.5L72.92 103.4L90.92 121.4L116.29 96.03L90.09 69.89L124.31 35.66L158.53 69.89L132.36 96.06L157.74 121.43L175.74 103.43L163.85 91.53L158.92 96.46L165.92 103.46L157.77 111.61L142.22 96.06L163.46 74.82L193.38 104.74L172.94 125.18L193.38 145.63L163.46 175.55L142.22 154.3L157.74 138.79L165.89 146.93L158.89 153.93L163.82 158.86L175.71 146.96L157.71 128.96L132.36 154.3L158.54 180.47L124.31 214.7ZM93.25 180.47L124.31 211.53L155.37 180.47L129.19 154.3L157.74 125.76L178.91 146.93L163.85 162L155.75 153.9L162.75 146.9L157.75 141.9L145.39 154.3L163.46 172.38L190.22 145.63L169.77 125.18L190.22 104.74L163.46 78L145.39 96.06L157.74 108.41L162.74 103.41L155.74 96.41L163.84 88.31L178.9 103.38L157.74 124.6L129.19 96.06L155.37 69.89L124.31 38.83L93.25 69.89L119.43 96.06L90.89 124.6L69.71 103.43L84.78 88.37L92.87 96.46L85.87 103.46L90.87 108.46L103.21 96.11L85.16 78L58.41 104.74L78.85 125.18L58.41 145.63L85.16 172.38L103.23 154.3L90.89 142L85.89 147L92.89 154L84.78 162L69.71 146.93L90.89 125.76L119.43 154.3L93.25 180.47ZM198.31 140.7L182.8 125.18L198.31 109.66L213.83 125.18L198.31 140.7ZM186 125.18L198.35 137.53L210.7 125.18L198.35 112.83L186 125.18ZM50.31 140.7L34.79 125.18L50.31 109.66L65.83 125.18L50.31 140.7ZM38 125.18L50.35 137.53L62.7 125.18L50.31 112.83L38 125.18Z" fill="white"/>
<path d="M124.31 204.13L100.31 180.13L124.31 156.13L148.31 180.13L124.31 204.13ZM103.47 180.13L124.31 201L145.15 180.16L124.31 159.31L103.47 180.13Z" fill="white"/>
<path d="M124.31 93.59L100.31 69.59L124.31 45.59L148.31 69.59L124.31 93.59ZM103.47 69.59L124.31 90.43L145.15 69.59L124.31 48.74L103.47 69.59Z" fill="white"/>
</g>
<path d="M102.1 168.48C101.365 168.48 100.661 168.188 100.141 167.669C99.6219 167.149 99.3301 166.445 99.3301 165.71V81.55C99.3301 80.8154 99.6219 80.1108 100.141 79.5913C100.661 79.0719 101.365 78.78 102.1 78.78C102.835 78.78 103.539 79.0719 104.059 79.5913C104.578 80.1108 104.87 80.8154 104.87 81.55V165.71C104.87 166.445 104.578 167.149 104.059 167.669C103.539 168.188 102.835 168.48 102.1 168.48V168.48Z" fill="white"/>
<path d="M147.29 116H99.29V84.3101H147.29V116ZM104.87 110.47H141.75V89.8501H104.87V110.47Z" fill="white"/>
<path d="M158.49 127.29H121.35V111.16H142.1V96.35H158.49V127.29ZM126.18 122.46H153.65V101.18H146.93L147.29 115.25L126.18 114.9V122.46Z" fill="white"/>
<path d="M122.31 126.04L147.29 115.95V112.99H121.35V127.29" fill="white"/>
</svg>
