<svg id="Layer_1" data-name="Layer 1" xmlns="http://www.w3.org/2000/svg" viewBox="0 0 474.47 113.33"><defs><style>.cls-1{fill:#fff;}.cls-2{fill:#48773c;}.cls-3{fill:#19486a;}</style></defs><rect class="cls-1" width="474.47" height="113.33"/><polygon class="cls-2" points="0 113.33 0 0 113.33 0 0 113.33"/><path class="cls-1" d="M47.48,39.45h-4.1v5.29H37.69V39.45H24.12V35.53L36,19.54h6.12L31.1,34.7h6.77V30h5.51V34.7h4.1Z"/><path class="cls-3" d="M124.84,22.38a5.54,5.54,0,0,1-2.18-2.06,6,6,0,0,1,0-6,5.54,5.54,0,0,1,2.18-2.06,6.86,6.86,0,0,1,5.74-.23,5.19,5.19,0,0,1,2,1.47l-1.66,1.53a3.6,3.6,0,0,0-2.82-1.31,3.72,3.72,0,0,0-1.86.46A3.3,3.3,0,0,0,125,15.48a4,4,0,0,0,0,3.71,3.23,3.23,0,0,0,1.27,1.27,3.72,3.72,0,0,0,1.86.46,3.56,3.56,0,0,0,2.82-1.33l1.66,1.54a5.32,5.32,0,0,1-2,1.49,6.61,6.61,0,0,1-2.64.51A6.38,6.38,0,0,1,124.84,22.38Z"/><path class="cls-3" d="M134.13,11.06h2.49V22.94h-2.49Z"/><path class="cls-3" d="M139.07,12.73a1.37,1.37,0,0,1,0-2,1.79,1.79,0,0,1,2.24,0,1.21,1.21,0,0,1,.43,1,1.35,1.35,0,0,1-.43,1,1.58,1.58,0,0,1-1.12.41A1.61,1.61,0,0,1,139.07,12.73Zm-.13,1.6h2.5v8.61h-2.5Z"/><path class="cls-3" d="M157.35,15.15a3.87,3.87,0,0,1,1,2.86v4.93h-2.49V18.39a2.31,2.31,0,0,0-.43-1.53,1.49,1.49,0,0,0-1.2-.5,1.79,1.79,0,0,0-1.4.57,2.46,2.46,0,0,0-.51,1.69v4.32h-2.5V18.39c0-1.35-.54-2-1.63-2a1.75,1.75,0,0,0-1.37.57,2.46,2.46,0,0,0-.51,1.69v4.32h-2.5V14.33h2.38v1a3.2,3.2,0,0,1,1.18-.83,4,4,0,0,1,1.53-.29,3.69,3.69,0,0,1,1.64.36,2.88,2.88,0,0,1,1.19,1,3.45,3.45,0,0,1,1.34-1,4.08,4.08,0,0,1,1.76-.37A3.48,3.48,0,0,1,157.35,15.15Z"/><path class="cls-3" d="M167.09,15.15A3.66,3.66,0,0,1,168.16,18v4.92h-2.34V21.86a2.78,2.78,0,0,1-2.62,1.2,4.12,4.12,0,0,1-1.72-.33,2.57,2.57,0,0,1-1.11-.93,2.37,2.37,0,0,1-.39-1.34,2.23,2.23,0,0,1,.91-1.89,4.58,4.58,0,0,1,2.79-.69h2a1.61,1.61,0,0,0-.49-1.26,2.21,2.21,0,0,0-1.49-.44,4.44,4.44,0,0,0-1.35.22,3.54,3.54,0,0,0-1.13.58l-.9-1.74a5.48,5.48,0,0,1,1.69-.77,7.64,7.64,0,0,1,2-.27A4.51,4.51,0,0,1,167.09,15.15ZM165,21.09a1.64,1.64,0,0,0,.7-.87v-.88H164c-1,0-1.53.33-1.53,1a.89.89,0,0,0,.37.76,1.68,1.68,0,0,0,1,.28A2.15,2.15,0,0,0,165,21.09Z"/><path class="cls-3" d="M176,22.52a2.63,2.63,0,0,1-.91.41,4.52,4.52,0,0,1-1.12.13,3.36,3.36,0,0,1-2.38-.78,3,3,0,0,1-.84-2.3V16.44h-1.33V14.52h1.33v-2.1h2.5v2.1h2.14v1.92h-2.14v3.5a1.14,1.14,0,0,0,.28.84,1,1,0,0,0,.79.3,1.65,1.65,0,0,0,1-.32Z"/><path class="cls-3" d="M185.49,19.34H179a2,2,0,0,0,.83,1.26,2.73,2.73,0,0,0,1.63.46,3.16,3.16,0,0,0,1.19-.2,2.79,2.79,0,0,0,1-.63l1.33,1.44a4.47,4.47,0,0,1-3.56,1.39,5.72,5.72,0,0,1-2.57-.56,4.21,4.21,0,0,1-1.73-1.58,4.62,4.62,0,0,1,0-4.57,4.18,4.18,0,0,1,1.65-1.58,5.11,5.11,0,0,1,4.63,0A4.09,4.09,0,0,1,185,16.3a4.67,4.67,0,0,1,.58,2.36S185.52,18.92,185.49,19.34Zm-5.84-2.77a2.05,2.05,0,0,0-.71,1.31h4.24a2,2,0,0,0-.7-1.3,2.09,2.09,0,0,0-1.41-.49A2.14,2.14,0,0,0,179.65,16.57Z"/><path class="cls-3" d="M194.17,22.38A5.48,5.48,0,0,1,192,20.32a5.65,5.65,0,0,1-.79-3,5.69,5.69,0,0,1,.79-3,5.48,5.48,0,0,1,2.18-2.06,6.86,6.86,0,0,1,5.74-.23,5.35,5.35,0,0,1,2,1.47l-1.67,1.53a3.57,3.57,0,0,0-2.81-1.31,3.67,3.67,0,0,0-1.86.46,3.23,3.23,0,0,0-1.27,1.27,4,4,0,0,0,0,3.71,3.17,3.17,0,0,0,1.27,1.27,3.67,3.67,0,0,0,1.86.46,3.53,3.53,0,0,0,2.81-1.33l1.67,1.54a5.36,5.36,0,0,1-2,1.49,6.61,6.61,0,0,1-2.64.51A6.36,6.36,0,0,1,194.17,22.38Z"/><path class="cls-3" d="M211.27,15.16a3.79,3.79,0,0,1,1,2.85v4.93h-2.49V18.39a2.25,2.25,0,0,0-.45-1.53,1.67,1.67,0,0,0-1.3-.5,2,2,0,0,0-1.5.58,2.44,2.44,0,0,0-.56,1.74v4.26h-2.5V11.06H206v4.16a3.37,3.37,0,0,1,1.2-.76,4.48,4.48,0,0,1,1.54-.26A3.55,3.55,0,0,1,211.27,15.16Z"/><path class="cls-3" d="M221.05,15.15A3.63,3.63,0,0,1,222.13,18v4.92h-2.34V21.86a2.78,2.78,0,0,1-2.62,1.2,4.09,4.09,0,0,1-1.72-.33,2.66,2.66,0,0,1-1.12-.93,2.44,2.44,0,0,1-.38-1.34,2.25,2.25,0,0,1,.9-1.89,4.64,4.64,0,0,1,2.8-.69h2a1.62,1.62,0,0,0-.5-1.26,2.18,2.18,0,0,0-1.48-.44,4.55,4.55,0,0,0-1.36.22,3.59,3.59,0,0,0-1.12.58l-.9-1.74a5.37,5.37,0,0,1,1.69-.77,7.57,7.57,0,0,1,2-.27A4.48,4.48,0,0,1,221.05,15.15Zm-2.12,5.94a1.64,1.64,0,0,0,.7-.87v-.88h-1.71c-1,0-1.54.33-1.54,1a.89.89,0,0,0,.38.76,1.66,1.66,0,0,0,1,.28A2.15,2.15,0,0,0,218.93,21.09Z"/><path class="cls-3" d="M232.2,15.16a3.83,3.83,0,0,1,1,2.85v4.93h-2.49V18.39a2.25,2.25,0,0,0-.45-1.53,1.67,1.67,0,0,0-1.3-.5,2,2,0,0,0-1.5.58,2.44,2.44,0,0,0-.56,1.74v4.26h-2.5V14.33h2.39v1A3.14,3.14,0,0,1,228,14.5a4.23,4.23,0,0,1,1.61-.3A3.56,3.56,0,0,1,232.2,15.16Z"/><path class="cls-3" d="M244.41,14.33V21.5A4.62,4.62,0,0,1,243.18,25a5.12,5.12,0,0,1-3.6,1.15,8.75,8.75,0,0,1-2.37-.31,5.05,5.05,0,0,1-1.85-.88l1-1.79a3.9,3.9,0,0,0,1.38.71,5.34,5.34,0,0,0,1.66.27,2.7,2.7,0,0,0,1.91-.59,2.31,2.31,0,0,0,.62-1.76v-.37a3.51,3.51,0,0,1-2.72,1.07A4.55,4.55,0,0,1,237,22a3.92,3.92,0,0,1-1.56-1.46,4.39,4.39,0,0,1,0-4.36A4,4,0,0,1,237,14.72a4.55,4.55,0,0,1,2.17-.52,3.42,3.42,0,0,1,2.85,1.23v-1.1Zm-3.09,5.56a2.17,2.17,0,0,0,0-3.06,2.29,2.29,0,0,0-1.63-.58,2.32,2.32,0,0,0-1.63.58,2.15,2.15,0,0,0,0,3.06,2.32,2.32,0,0,0,1.63.58A2.29,2.29,0,0,0,241.32,19.89Z"/><path class="cls-3" d="M255.12,19.34h-6.51a2,2,0,0,0,.83,1.26,2.75,2.75,0,0,0,1.63.46,3.13,3.13,0,0,0,1.19-.2,2.79,2.79,0,0,0,1-.63l1.33,1.44A4.46,4.46,0,0,1,251,23.06a5.76,5.76,0,0,1-2.58-.56,4.21,4.21,0,0,1-1.73-1.58,4.62,4.62,0,0,1,0-4.57,4.18,4.18,0,0,1,1.65-1.58,5.11,5.11,0,0,1,4.63,0,4,4,0,0,1,1.61,1.56,4.67,4.67,0,0,1,.59,2.36S255.15,18.92,255.12,19.34Zm-5.84-2.77a2.05,2.05,0,0,0-.71,1.31h4.25a2.1,2.1,0,0,0-.71-1.3,2.07,2.07,0,0,0-1.41-.49A2.14,2.14,0,0,0,249.28,16.57Z"/><path class="cls-3" d="M268.91,20.54h-5.2l-1,2.4h-2.66l5-11.2h2.56l5,11.2H269.9Zm-.82-2-1.77-4.29-1.78,4.29Z"/><path class="cls-3" d="M282.3,11.06V22.94h-2.38v-1a3.29,3.29,0,0,1-2.69,1.12,4.51,4.51,0,0,1-2.2-.54A3.92,3.92,0,0,1,273.48,21a4.76,4.76,0,0,1-.55-2.34,4.75,4.75,0,0,1,.55-2.33A3.94,3.94,0,0,1,275,14.74a4.51,4.51,0,0,1,2.2-.54,3.29,3.29,0,0,1,2.58,1V11.06Zm-3.07,9.31a2.38,2.38,0,0,0,.62-1.74,2.37,2.37,0,0,0-.62-1.73,2.23,2.23,0,0,0-3.15,0,2.37,2.37,0,0,0-.63,1.73,2.38,2.38,0,0,0,.63,1.74,2.23,2.23,0,0,0,3.15,0Z"/><path class="cls-3" d="M291.15,15.15A3.66,3.66,0,0,1,292.22,18v4.92h-2.33V21.86a2.79,2.79,0,0,1-2.63,1.2,4.16,4.16,0,0,1-1.72-.33,2.69,2.69,0,0,1-1.11-.93,2.36,2.36,0,0,1-.38-1.34,2.25,2.25,0,0,1,.9-1.89,4.58,4.58,0,0,1,2.79-.69h2a1.62,1.62,0,0,0-.5-1.26,2.21,2.21,0,0,0-1.49-.44,4.44,4.44,0,0,0-1.35.22,3.65,3.65,0,0,0-1.13.58l-.89-1.74a5.31,5.31,0,0,1,1.68-.77,7.64,7.64,0,0,1,2-.27A4.5,4.5,0,0,1,291.15,15.15ZM289,21.09a1.66,1.66,0,0,0,.71-.87v-.88H288c-1,0-1.53.33-1.53,1a.89.89,0,0,0,.37.76,1.69,1.69,0,0,0,1,.28A2.14,2.14,0,0,0,289,21.09Z"/><path class="cls-3" d="M301.75,14.75a4,4,0,0,1,1.54,1.55,4.65,4.65,0,0,1,.56,2.33,4.62,4.62,0,0,1-.56,2.33,3.89,3.89,0,0,1-1.54,1.55,4.36,4.36,0,0,1-2.18.55,3.32,3.32,0,0,1-2.6-1v4h-2.49V14.33h2.38v1a3.31,3.31,0,0,1,2.71-1.12A4.36,4.36,0,0,1,301.75,14.75Zm-1,5.62a2.42,2.42,0,0,0,.62-1.74,2.41,2.41,0,0,0-.62-1.73,2.06,2.06,0,0,0-1.58-.65,2,2,0,0,0-1.57.65,2.41,2.41,0,0,0-.62,1.73,2.42,2.42,0,0,0,.62,1.74,2.07,2.07,0,0,0,1.57.65A2.1,2.1,0,0,0,300.71,20.37Z"/><path class="cls-3" d="M311.07,22.52a2.66,2.66,0,0,1-.9.41,4.66,4.66,0,0,1-1.13.13,3.36,3.36,0,0,1-2.38-.78,3,3,0,0,1-.84-2.3V16.44h-1.33V14.52h1.33v-2.1h2.5v2.1h2.14v1.92h-2.14v3.5a1.14,1.14,0,0,0,.28.84,1,1,0,0,0,.79.3,1.65,1.65,0,0,0,1-.32Z"/><path class="cls-3" d="M319,15.15A3.66,3.66,0,0,1,320.09,18v4.92h-2.33V21.86a2.79,2.79,0,0,1-2.63,1.2,4.16,4.16,0,0,1-1.72-.33,2.69,2.69,0,0,1-1.11-.93,2.36,2.36,0,0,1-.38-1.34,2.25,2.25,0,0,1,.9-1.89,4.58,4.58,0,0,1,2.79-.69h2a1.62,1.62,0,0,0-.5-1.26,2.21,2.21,0,0,0-1.49-.44,4.44,4.44,0,0,0-1.35.22,3.65,3.65,0,0,0-1.13.58l-.89-1.74a5.42,5.42,0,0,1,1.68-.77,7.7,7.7,0,0,1,2-.27A4.5,4.5,0,0,1,319,15.15Zm-2.13,5.94a1.66,1.66,0,0,0,.71-.87v-.88h-1.72c-1,0-1.53.33-1.53,1a.87.87,0,0,0,.38.76,1.66,1.66,0,0,0,1,.28A2.14,2.14,0,0,0,316.89,21.09Z"/><path class="cls-3" d="M327.9,22.52a2.58,2.58,0,0,1-.9.41,4.66,4.66,0,0,1-1.13.13,3.38,3.38,0,0,1-2.38-.78,3,3,0,0,1-.84-2.3V16.44h-1.33V14.52h1.33v-2.1h2.5v2.1h2.14v1.92h-2.14v3.5a1.14,1.14,0,0,0,.28.84,1,1,0,0,0,.79.3,1.62,1.62,0,0,0,1-.32Z"/><path class="cls-3" d="M329.44,12.73a1.35,1.35,0,0,1,0-2,1.79,1.79,0,0,1,2.24,0,1.24,1.24,0,0,1,.43,1,1.39,1.39,0,0,1-.43,1,1.58,1.58,0,0,1-1.12.41A1.61,1.61,0,0,1,329.44,12.73Zm-.13,1.6h2.5v8.61h-2.5Z"/><path class="cls-3" d="M335.78,22.5a4.29,4.29,0,0,1-1.69-1.58,4.38,4.38,0,0,1-.61-2.29,4.43,4.43,0,0,1,.61-2.29,4.27,4.27,0,0,1,1.69-1.57,5.14,5.14,0,0,1,2.44-.57,5.07,5.07,0,0,1,2.43.57,4.18,4.18,0,0,1,1.68,1.57,4.34,4.34,0,0,1,.61,2.29,4.29,4.29,0,0,1-.61,2.29,4.2,4.2,0,0,1-1.68,1.58,5.18,5.18,0,0,1-2.43.56A5.25,5.25,0,0,1,335.78,22.5Zm4-2.13a2.41,2.41,0,0,0,.61-1.74,2.41,2.41,0,0,0-.61-1.73,2.25,2.25,0,0,0-3.16,0,2.37,2.37,0,0,0-.63,1.73,2.38,2.38,0,0,0,.63,1.74,2.25,2.25,0,0,0,3.16,0Z"/><path class="cls-3" d="M352.42,15.16a3.79,3.79,0,0,1,1,2.85v4.93h-2.49V18.39a2.25,2.25,0,0,0-.45-1.53,1.67,1.67,0,0,0-1.3-.5,2,2,0,0,0-1.5.58,2.44,2.44,0,0,0-.56,1.74v4.26h-2.49V14.33H347v1a3.14,3.14,0,0,1,1.23-.84,4.25,4.25,0,0,1,1.62-.3A3.55,3.55,0,0,1,352.42,15.16Z"/><path class="cls-3" d="M366.73,15.15A3.63,3.63,0,0,1,367.8,18v4.92h-2.33V21.86a2.79,2.79,0,0,1-2.63,1.2,4.16,4.16,0,0,1-1.72-.33A2.69,2.69,0,0,1,360,21.8a2.44,2.44,0,0,1-.38-1.34,2.25,2.25,0,0,1,.9-1.89,4.62,4.62,0,0,1,2.79-.69h2a1.62,1.62,0,0,0-.5-1.26,2.19,2.19,0,0,0-1.49-.44,4.54,4.54,0,0,0-1.35.22,3.65,3.65,0,0,0-1.13.58L360,15.24a5.37,5.37,0,0,1,1.69-.77,7.57,7.57,0,0,1,2-.27A4.5,4.5,0,0,1,366.73,15.15Zm-2.12,5.94a1.64,1.64,0,0,0,.7-.87v-.88H363.6c-1,0-1.54.33-1.54,1a.89.89,0,0,0,.38.76,1.66,1.66,0,0,0,1,.28A2.17,2.17,0,0,0,364.61,21.09Z"/><path class="cls-3" d="M377.88,15.16a3.83,3.83,0,0,1,1,2.85v4.93h-2.5V18.39a2.25,2.25,0,0,0-.44-1.53,1.67,1.67,0,0,0-1.3-.5,2,2,0,0,0-1.5.58,2.4,2.4,0,0,0-.56,1.74v4.26h-2.5V14.33h2.38v1a3.18,3.18,0,0,1,1.24-.84,4.23,4.23,0,0,1,1.61-.3A3.56,3.56,0,0,1,377.88,15.16Z"/><path class="cls-3" d="M390,11.06V22.94H387.6v-1a3.29,3.29,0,0,1-2.69,1.12,4.48,4.48,0,0,1-2.2-.54A3.92,3.92,0,0,1,381.16,21a4.76,4.76,0,0,1-.56-2.34,4.75,4.75,0,0,1,.56-2.33,3.94,3.94,0,0,1,1.55-1.56,4.48,4.48,0,0,1,2.2-.54,3.26,3.26,0,0,1,2.57,1V11.06Zm-3.07,9.31a2.42,2.42,0,0,0,.62-1.74,2.41,2.41,0,0,0-.62-1.73,2.23,2.23,0,0,0-3.15,0,2.37,2.37,0,0,0-.63,1.73,2.38,2.38,0,0,0,.63,1.74,2.23,2.23,0,0,0,3.15,0Z"/><path class="cls-3" d="M132.77,42.14l0-6.72L129.46,41h-1.17L125,35.56v6.58h-2.43V30.94h2.14l4.19,7,4.13-7h2.13l0,11.2Z"/><path class="cls-3" d="M137.81,31.93a1.37,1.37,0,0,1,0-2,1.79,1.79,0,0,1,2.24,0,1.21,1.21,0,0,1,.43,1,1.35,1.35,0,0,1-.43,1,1.58,1.58,0,0,1-1.12.41A1.61,1.61,0,0,1,137.81,31.93Zm-.13,1.6h2.5v8.61h-2.5Z"/><path class="cls-3" d="M148.05,41.72a2.63,2.63,0,0,1-.91.41,4.52,4.52,0,0,1-1.12.13,3.36,3.36,0,0,1-2.38-.78,3,3,0,0,1-.84-2.3V35.64h-1.33V33.72h1.33v-2.1h2.5v2.1h2.14v1.92H145.3v3.5a1.14,1.14,0,0,0,.28.84,1,1,0,0,0,.79.3,1.65,1.65,0,0,0,1-.32Z"/><path class="cls-3" d="M149.58,31.93a1.37,1.37,0,0,1,0-2,1.61,1.61,0,0,1,1.12-.4,1.59,1.59,0,0,1,1.12.39,1.21,1.21,0,0,1,.44,1,1.36,1.36,0,0,1-.44,1,1.56,1.56,0,0,1-1.12.41A1.61,1.61,0,0,1,149.58,31.93Zm-.12,1.6H152v8.61h-2.49Z"/><path class="cls-3" d="M163.15,33.53V40.7a4.62,4.62,0,0,1-1.23,3.52,5.12,5.12,0,0,1-3.6,1.15,8.75,8.75,0,0,1-2.37-.31,5,5,0,0,1-1.85-.88l1-1.79a3.94,3.94,0,0,0,1.37.71,5.4,5.4,0,0,0,1.67.27,2.7,2.7,0,0,0,1.91-.59,2.3,2.3,0,0,0,.62-1.76v-.37a3.52,3.52,0,0,1-2.72,1.07,4.52,4.52,0,0,1-2.17-.52,3.92,3.92,0,0,1-1.56-1.46,4.39,4.39,0,0,1,0-4.36,4,4,0,0,1,1.56-1.46,4.52,4.52,0,0,1,2.17-.52,3.41,3.41,0,0,1,2.84,1.23v-1.1Zm-3.09,5.56a2.17,2.17,0,0,0,0-3.06,2.58,2.58,0,0,0-3.26,0,2.15,2.15,0,0,0,0,3.06,2.58,2.58,0,0,0,3.26,0Z"/><path class="cls-3" d="M172,34.35a3.66,3.66,0,0,1,1.07,2.87v4.92h-2.34V41.06a2.78,2.78,0,0,1-2.62,1.2,4.12,4.12,0,0,1-1.72-.33,2.59,2.59,0,0,1-1.12-.93,2.44,2.44,0,0,1-.38-1.34,2.23,2.23,0,0,1,.91-1.89,4.58,4.58,0,0,1,2.79-.69h2a1.61,1.61,0,0,0-.49-1.26,2.23,2.23,0,0,0-1.49-.44,4.55,4.55,0,0,0-1.36.22,3.59,3.59,0,0,0-1.12.58l-.9-1.74a5.37,5.37,0,0,1,1.69-.77,7.57,7.57,0,0,1,2-.27A4.52,4.52,0,0,1,172,34.35Zm-2.13,5.94a1.64,1.64,0,0,0,.7-.87v-.88h-1.71c-1,0-1.54.33-1.54,1a.89.89,0,0,0,.38.76,1.66,1.66,0,0,0,1,.28A2.15,2.15,0,0,0,169.89,40.29Z"/><path class="cls-3" d="M180.9,41.72a2.63,2.63,0,0,1-.91.41,4.6,4.6,0,0,1-1.13.13,3.35,3.35,0,0,1-2.37-.78,3,3,0,0,1-.84-2.3V35.64h-1.33V33.72h1.33v-2.1h2.49v2.1h2.15v1.92h-2.15v3.5a1.18,1.18,0,0,0,.28.84,1,1,0,0,0,.8.3,1.6,1.6,0,0,0,1-.32Z"/><path class="cls-3" d="M182.43,31.93a1.37,1.37,0,0,1,0-2,1.79,1.79,0,0,1,2.24,0,1.21,1.21,0,0,1,.43,1,1.35,1.35,0,0,1-.43,1,1.58,1.58,0,0,1-1.12.41A1.61,1.61,0,0,1,182.43,31.93Zm-.13,1.6h2.5v8.61h-2.5Z"/><path class="cls-3" d="M188.77,41.7a4.26,4.26,0,0,1-2.29-3.87,4.34,4.34,0,0,1,.61-2.29A4.24,4.24,0,0,1,188.77,34a5.21,5.21,0,0,1,2.45-.57,5.13,5.13,0,0,1,2.43.57,4.31,4.31,0,0,1,1.68,1.57,4.43,4.43,0,0,1,.61,2.29,4.38,4.38,0,0,1-.61,2.29,4.33,4.33,0,0,1-1.68,1.58,5.24,5.24,0,0,1-2.43.56A5.32,5.32,0,0,1,188.77,41.7Zm4-2.13a2.74,2.74,0,0,0,0-3.47,2,2,0,0,0-1.57-.65,2.1,2.1,0,0,0-1.59.65,2.74,2.74,0,0,0,0,3.47,2.13,2.13,0,0,0,1.59.65A2.07,2.07,0,0,0,192.79,39.57Z"/><path class="cls-3" d="M205.41,34.36a3.8,3.8,0,0,1,1,2.85v4.93h-2.5V37.59a2.25,2.25,0,0,0-.45-1.53,1.64,1.64,0,0,0-1.29-.5,2,2,0,0,0-1.51.58,2.44,2.44,0,0,0-.55,1.74v4.26h-2.5V33.53H200v1a3.14,3.14,0,0,1,1.23-.84,4.28,4.28,0,0,1,1.62-.3A3.52,3.52,0,0,1,205.41,34.36Z"/><path class="cls-3" d="M210.72,39.58a1.51,1.51,0,0,1,.43,1.12,2.87,2.87,0,0,1-.08.64,7.2,7.2,0,0,1-.35,1l-.91,2.3h-1.59l.71-2.54a1.36,1.36,0,0,1-.64-.52,1.55,1.55,0,0,1-.23-.84,1.51,1.51,0,0,1,.44-1.12,1.57,1.57,0,0,1,1.11-.42A1.53,1.53,0,0,1,210.72,39.58Z"/><path class="cls-3" d="M224.69,42.14,222.53,39h-2.39v3.12h-2.59V30.94h4.85a6.22,6.22,0,0,1,2.58.49,3.86,3.86,0,0,1,0,7.11l2.51,3.6ZM224,33.55a2.78,2.78,0,0,0-1.78-.5h-2.11V37h2.11a2.72,2.72,0,0,0,1.78-.51,2,2,0,0,0,0-2.89Z"/><path class="cls-3" d="M237.52,38.54H231a2,2,0,0,0,.83,1.26,2.73,2.73,0,0,0,1.63.46,3.13,3.13,0,0,0,1.19-.2,2.79,2.79,0,0,0,1-.63L237,40.87a4.46,4.46,0,0,1-3.55,1.39,5.76,5.76,0,0,1-2.58-.56,4.21,4.21,0,0,1-1.73-1.58,4.62,4.62,0,0,1,0-4.57A4.18,4.18,0,0,1,230.74,34a5.11,5.11,0,0,1,4.63,0A4,4,0,0,1,237,35.5a4.67,4.67,0,0,1,.59,2.36S237.55,38.12,237.52,38.54Zm-5.84-2.77a2.05,2.05,0,0,0-.71,1.31h4.24a2,2,0,0,0-.7-1.3,2.07,2.07,0,0,0-1.41-.49A2.14,2.14,0,0,0,231.68,35.77Z"/><path class="cls-3" d="M248,30.26V42.14h-2.39v-1a3.26,3.26,0,0,1-2.68,1.12,4.48,4.48,0,0,1-2.2-.54,3.92,3.92,0,0,1-1.55-1.55,5.15,5.15,0,0,1,0-4.67,3.94,3.94,0,0,1,1.55-1.56,4.48,4.48,0,0,1,2.2-.54,3.29,3.29,0,0,1,2.57,1V30.26Zm-3.07,9.31a2.74,2.74,0,0,0,0-3.47,2.07,2.07,0,0,0-1.57-.65,2.1,2.1,0,0,0-1.59.65,2.74,2.74,0,0,0,0,3.47,2.13,2.13,0,0,0,1.59.65A2.1,2.1,0,0,0,244.93,39.57Z"/><path class="cls-3" d="M259,33.53v8.61h-2.36v-1a3.36,3.36,0,0,1-1.19.86,4.11,4.11,0,0,1-4.17-.68,3.87,3.87,0,0,1-1-2.9V33.53h2.5V38c0,1.39.58,2.08,1.74,2.08a1.86,1.86,0,0,0,1.44-.58,2.44,2.44,0,0,0,.55-1.74V33.53Z"/><path class="cls-3" d="M263,41.7a4.25,4.25,0,0,1-2.33-3.87,4.34,4.34,0,0,1,.62-2.29A4.26,4.26,0,0,1,263,34a5.29,5.29,0,0,1,2.47-.57,4.79,4.79,0,0,1,2.38.57,3.37,3.37,0,0,1,1.48,1.62l-1.94,1a2.1,2.1,0,0,0-1.93-1.18,2.19,2.19,0,0,0-1.62.64,2.7,2.7,0,0,0,0,3.49,2.23,2.23,0,0,0,1.62.64A2.09,2.09,0,0,0,267.37,39l1.94,1.06a3.47,3.47,0,0,1-1.48,1.6,4.79,4.79,0,0,1-2.38.57A5.41,5.41,0,0,1,263,41.7Z"/><path class="cls-3" d="M279,38.54h-6.51a2,2,0,0,0,.83,1.26,2.75,2.75,0,0,0,1.63.46,3.21,3.21,0,0,0,1.2-.2,2.75,2.75,0,0,0,1-.63l1.33,1.44a4.45,4.45,0,0,1-3.55,1.39,5.76,5.76,0,0,1-2.58-.56,4.18,4.18,0,0,1-1.72-1.58,4.29,4.29,0,0,1-.61-2.29,4.41,4.41,0,0,1,.6-2.28A4.18,4.18,0,0,1,272.25,34a4.8,4.8,0,0,1,2.34-.57,4.87,4.87,0,0,1,2.29.54,4.09,4.09,0,0,1,1.61,1.56,4.67,4.67,0,0,1,.58,2.36S279.05,38.12,279,38.54Zm-5.84-2.77a2,2,0,0,0-.7,1.31h4.24a2.06,2.06,0,0,0-2.11-1.79A2.17,2.17,0,0,0,273.18,35.77Z"/><path class="cls-3" d="M289.5,30.26V42.14h-2.38v-1a3.29,3.29,0,0,1-2.69,1.12,4.51,4.51,0,0,1-2.2-.54,3.83,3.83,0,0,1-1.54-1.55,5.15,5.15,0,0,1,0-4.67,3.86,3.86,0,0,1,1.54-1.56,4.51,4.51,0,0,1,2.2-.54,3.29,3.29,0,0,1,2.58,1V30.26Zm-3.07,9.31a2.74,2.74,0,0,0,0-3.47,2.23,2.23,0,0,0-3.15,0,2.7,2.7,0,0,0,0,3.47,2.23,2.23,0,0,0,3.15,0Z"/><path class="cls-3" d="M305.18,40.06v2.08h-8.67V30.94H305V33h-5.88v2.43h5.19v2h-5.19v2.6Z"/><path class="cls-3" d="M314.89,34.36a3.83,3.83,0,0,1,1,2.85v4.93h-2.5V37.59a2.31,2.31,0,0,0-.44-1.53,1.68,1.68,0,0,0-1.3-.5,2,2,0,0,0-1.5.58,2.4,2.4,0,0,0-.56,1.74v4.26h-2.5V33.53h2.38v1a3.1,3.1,0,0,1,1.24-.84,4.2,4.2,0,0,1,1.61-.3A3.56,3.56,0,0,1,314.89,34.36Z"/><path class="cls-3" d="M326.51,33.53l-3.63,8.61H320.3l-3.61-8.61h2.57l2.39,5.85,2.46-5.85Z"/><path class="cls-3" d="M327.66,31.93a1.37,1.37,0,0,1,0-2,1.79,1.79,0,0,1,2.24,0,1.21,1.21,0,0,1,.43,1,1.35,1.35,0,0,1-.43,1,1.58,1.58,0,0,1-1.12.41A1.61,1.61,0,0,1,327.66,31.93Zm-.13,1.6H330v8.61h-2.5Z"/><path class="cls-3" d="M335.94,33.72a4.55,4.55,0,0,1,1.75-.32v2.3l-.56,0a2.3,2.3,0,0,0-1.68.6,2.44,2.44,0,0,0-.6,1.8v4.07h-2.5V33.53h2.38v1.13A2.78,2.78,0,0,1,335.94,33.72Z"/><path class="cls-3" d="M340.76,41.7a4.25,4.25,0,0,1-2.3-3.87,4.34,4.34,0,0,1,.61-2.29A4.27,4.27,0,0,1,340.76,34a5.49,5.49,0,0,1,4.87,0,4.38,4.38,0,0,1,0,7.73,5.57,5.57,0,0,1-4.87,0Zm4-2.13a2.74,2.74,0,0,0,0-3.47,2,2,0,0,0-1.57-.65,2.1,2.1,0,0,0-1.59.65,2.74,2.74,0,0,0,0,3.47,2.13,2.13,0,0,0,1.59.65A2.07,2.07,0,0,0,344.77,39.57Z"/><path class="cls-3" d="M357.4,34.36a3.83,3.83,0,0,1,1,2.85v4.93h-2.49V37.59a2.25,2.25,0,0,0-.45-1.53,1.67,1.67,0,0,0-1.3-.5,2,2,0,0,0-1.5.58,2.4,2.4,0,0,0-.56,1.74v4.26h-2.5V33.53H352v1a3.14,3.14,0,0,1,1.23-.84,4.23,4.23,0,0,1,1.61-.3A3.56,3.56,0,0,1,357.4,34.36Z"/><path class="cls-3" d="M374.23,34.35a3.92,3.92,0,0,1,.95,2.86v4.93h-2.49V37.59a2.37,2.37,0,0,0-.43-1.53,1.5,1.5,0,0,0-1.21-.5,1.78,1.78,0,0,0-1.39.57,2.46,2.46,0,0,0-.51,1.69v4.32h-2.5V37.59c0-1.35-.54-2-1.63-2a1.74,1.74,0,0,0-1.37.57,2.41,2.41,0,0,0-.52,1.69v4.32h-2.49V33.53H363v1a3.12,3.12,0,0,1,1.18-.83,4,4,0,0,1,1.53-.29,3.69,3.69,0,0,1,1.64.36,2.94,2.94,0,0,1,1.19,1.05,3.42,3.42,0,0,1,1.33-1,4.16,4.16,0,0,1,1.77-.37A3.5,3.5,0,0,1,374.23,34.35Z"/><path class="cls-3" d="M385.9,38.54h-6.51a2,2,0,0,0,.83,1.26,2.75,2.75,0,0,0,1.63.46,3.13,3.13,0,0,0,1.19-.2,2.79,2.79,0,0,0,1-.63l1.33,1.44a4.45,4.45,0,0,1-3.55,1.39,5.76,5.76,0,0,1-2.58-.56,4.27,4.27,0,0,1-1.73-1.58,4.65,4.65,0,0,1,0-4.57A4.22,4.22,0,0,1,379.12,34a5.13,5.13,0,0,1,4.64,0,4,4,0,0,1,1.6,1.56,4.67,4.67,0,0,1,.59,2.36S385.93,38.12,385.9,38.54Zm-5.84-2.77a2,2,0,0,0-.7,1.31h4.24a2.07,2.07,0,0,0-2.12-1.79A2.14,2.14,0,0,0,380.06,35.77Z"/><path class="cls-3" d="M395.43,34.36a3.79,3.79,0,0,1,1,2.85v4.93h-2.49V37.59a2.25,2.25,0,0,0-.45-1.53,1.67,1.67,0,0,0-1.3-.5,2,2,0,0,0-1.5.58,2.44,2.44,0,0,0-.56,1.74v4.26h-2.5V33.53H390v1a3.14,3.14,0,0,1,1.23-.84,4.25,4.25,0,0,1,1.62-.3A3.55,3.55,0,0,1,395.43,34.36Z"/><path class="cls-3" d="M404.22,41.72a2.58,2.58,0,0,1-.9.41,4.66,4.66,0,0,1-1.13.13,3.38,3.38,0,0,1-2.38-.78,3,3,0,0,1-.84-2.3V35.64h-1.32V33.72H399v-2.1h2.5v2.1h2.14v1.92h-2.14v3.5a1.14,1.14,0,0,0,.28.84,1,1,0,0,0,.79.3,1.62,1.62,0,0,0,1-.32Z"/><path class="cls-3" d="M412.17,34.35a3.63,3.63,0,0,1,1.07,2.87v4.92h-2.33V41.06a2.78,2.78,0,0,1-2.63,1.2,4.08,4.08,0,0,1-1.71-.33,2.59,2.59,0,0,1-1.12-.93,2.44,2.44,0,0,1-.38-1.34,2.25,2.25,0,0,1,.9-1.89,4.64,4.64,0,0,1,2.8-.69h2a1.62,1.62,0,0,0-.5-1.26,2.18,2.18,0,0,0-1.48-.44,4.55,4.55,0,0,0-1.36.22,3.65,3.65,0,0,0-1.13.58l-.89-1.74a5.37,5.37,0,0,1,1.69-.77,7.57,7.57,0,0,1,2-.27A4.5,4.5,0,0,1,412.17,34.35Zm-2.12,5.94a1.64,1.64,0,0,0,.7-.87v-.88H409c-1,0-1.54.33-1.54,1a.89.89,0,0,0,.38.76,1.66,1.66,0,0,0,1,.28A2.17,2.17,0,0,0,410.05,40.29Z"/><path class="cls-3" d="M415.5,30.26H418V42.14h-2.5Z"/><path class="cls-3" d="M122.58,50.14h5.08a7.24,7.24,0,0,1,3.23.69,5.23,5.23,0,0,1,2.17,2,5.53,5.53,0,0,1,.78,3,5.47,5.47,0,0,1-.78,2.94,5.16,5.16,0,0,1-2.17,2,7.24,7.24,0,0,1-3.23.7h-5.08Zm5,9.07a3.75,3.75,0,0,0,2.68-.94,3.71,3.71,0,0,0,0-5.07,3.79,3.79,0,0,0-2.68-.94h-2.37v7Z"/><path class="cls-3" d="M144,57.74h-6.51a2,2,0,0,0,.83,1.26,2.75,2.75,0,0,0,1.63.46,3.13,3.13,0,0,0,1.19-.2,2.79,2.79,0,0,0,1-.63l1.33,1.44a4.46,4.46,0,0,1-3.55,1.39,5.76,5.76,0,0,1-2.58-.56,4.27,4.27,0,0,1-1.73-1.58,4.65,4.65,0,0,1,0-4.57,4.15,4.15,0,0,1,1.64-1.58,5.13,5.13,0,0,1,4.64,0,4.07,4.07,0,0,1,1.6,1.56,4.67,4.67,0,0,1,.59,2.36S144,57.32,144,57.74ZM138.16,55a2,2,0,0,0-.7,1.31h4.24a2.07,2.07,0,0,0-2.12-1.79A2.14,2.14,0,0,0,138.16,55Z"/><path class="cls-3" d="M154.59,52.73V59.9a4.61,4.61,0,0,1-1.23,3.52,5.12,5.12,0,0,1-3.6,1.15,8.75,8.75,0,0,1-2.37-.31,5.1,5.1,0,0,1-1.86-.88l1-1.79a3.94,3.94,0,0,0,1.37.71,5.4,5.4,0,0,0,1.67.27,2.7,2.7,0,0,0,1.91-.59,2.3,2.3,0,0,0,.62-1.76v-.37a3.52,3.52,0,0,1-2.72,1.07,4.52,4.52,0,0,1-2.17-.52,3.92,3.92,0,0,1-1.56-1.46,4.39,4.39,0,0,1,0-4.36,4,4,0,0,1,1.56-1.46,4.52,4.52,0,0,1,2.17-.52,3.41,3.41,0,0,1,2.84,1.23v-1.1Zm-3.1,5.56a2.15,2.15,0,0,0,0-3.06,2.28,2.28,0,0,0-1.62-.58,2.32,2.32,0,0,0-1.63.58,2.15,2.15,0,0,0,0,3.06,2.32,2.32,0,0,0,1.63.58A2.28,2.28,0,0,0,151.49,58.29Z"/><path class="cls-3" d="M160.5,52.92a4.57,4.57,0,0,1,1.76-.32v2.3l-.57,0a2.26,2.26,0,0,0-1.67.6,2.41,2.41,0,0,0-.61,1.8v4.07h-2.5V52.73h2.39v1.13A2.75,2.75,0,0,1,160.5,52.92Z"/><path class="cls-3" d="M170.24,53.55a3.66,3.66,0,0,1,1.07,2.87v4.92H169V60.26a2.79,2.79,0,0,1-2.63,1.2,4.16,4.16,0,0,1-1.72-.33,2.62,2.62,0,0,1-1.11-.93,2.36,2.36,0,0,1-.38-1.34A2.25,2.25,0,0,1,164,57a4.58,4.58,0,0,1,2.79-.69h2a1.62,1.62,0,0,0-.5-1.26,2.21,2.21,0,0,0-1.49-.44,4.44,4.44,0,0,0-1.35.22,3.65,3.65,0,0,0-1.13.58l-.89-1.74a5.31,5.31,0,0,1,1.68-.77,7.64,7.64,0,0,1,2-.27A4.51,4.51,0,0,1,170.24,53.55Zm-2.13,5.94a1.66,1.66,0,0,0,.71-.87v-.88H167.1c-1,0-1.53.33-1.53,1a.89.89,0,0,0,.37.76,1.69,1.69,0,0,0,1,.28A2.14,2.14,0,0,0,168.11,59.49Z"/><path class="cls-3" d="M182.43,49.46V61.34h-2.38v-1a3.29,3.29,0,0,1-2.69,1.12,4.51,4.51,0,0,1-2.2-.54,3.92,3.92,0,0,1-1.55-1.55,5.23,5.23,0,0,1,0-4.67,3.94,3.94,0,0,1,1.55-1.56,4.51,4.51,0,0,1,2.2-.54,3.29,3.29,0,0,1,2.58,1V49.46Zm-3.07,9.31a2.74,2.74,0,0,0,0-3.47,2.23,2.23,0,0,0-3.15,0,2.7,2.7,0,0,0,0,3.47,2.23,2.23,0,0,0,3.15,0Z"/><path class="cls-3" d="M191.28,53.55a3.66,3.66,0,0,1,1.07,2.87v4.92H190V60.26a2.76,2.76,0,0,1-2.62,1.2,4.16,4.16,0,0,1-1.72-.33,2.62,2.62,0,0,1-1.11-.93,2.37,2.37,0,0,1-.39-1.34,2.26,2.26,0,0,1,.91-1.89,4.58,4.58,0,0,1,2.79-.69h2a1.62,1.62,0,0,0-.5-1.26,2.21,2.21,0,0,0-1.49-.44,4.44,4.44,0,0,0-1.35.22,3.65,3.65,0,0,0-1.13.58l-.9-1.74a5.48,5.48,0,0,1,1.69-.77,7.64,7.64,0,0,1,2-.27A4.51,4.51,0,0,1,191.28,53.55Zm-2.13,5.94a1.66,1.66,0,0,0,.71-.87v-.88h-1.72c-1,0-1.53.33-1.53,1a.89.89,0,0,0,.37.76,1.68,1.68,0,0,0,1,.28A2.15,2.15,0,0,0,189.15,59.49Z"/><path class="cls-3" d="M200.16,60.92a2.63,2.63,0,0,1-.91.41,4.52,4.52,0,0,1-1.12.13,3.36,3.36,0,0,1-2.38-.78,3,3,0,0,1-.84-2.3V54.84h-1.33V52.92h1.33v-2.1h2.5v2.1h2.14v1.92h-2.14v3.5a1.14,1.14,0,0,0,.28.84,1,1,0,0,0,.79.3,1.65,1.65,0,0,0,1-.32Z"/><path class="cls-3" d="M201.69,51.13a1.37,1.37,0,0,1,0-2,1.64,1.64,0,0,1,1.13-.4,1.58,1.58,0,0,1,1.11.39,1.21,1.21,0,0,1,.44,1,1.36,1.36,0,0,1-.44,1,1.55,1.55,0,0,1-1.11.41A1.59,1.59,0,0,1,201.69,51.13Zm-.12,1.6h2.49v8.61h-2.49Z"/><path class="cls-3" d="M208,60.9a4.29,4.29,0,0,1-1.69-1.58,4.38,4.38,0,0,1-.61-2.29,4.43,4.43,0,0,1,.61-2.29A4.27,4.27,0,0,1,208,53.17a5.14,5.14,0,0,1,2.44-.57,5.07,5.07,0,0,1,2.43.57,4.18,4.18,0,0,1,1.68,1.57A4.34,4.34,0,0,1,215.2,57a4.29,4.29,0,0,1-.61,2.29,4.2,4.2,0,0,1-1.68,1.58,5.18,5.18,0,0,1-2.43.56A5.25,5.25,0,0,1,208,60.9Zm4-2.13a2.77,2.77,0,0,0,0-3.47,2.25,2.25,0,0,0-3.16,0,2.7,2.7,0,0,0,0,3.47,2.25,2.25,0,0,0,3.16,0Z"/><path class="cls-3" d="M224.68,53.56a3.83,3.83,0,0,1,1,2.85v4.93h-2.49V56.79a2.25,2.25,0,0,0-.45-1.53,1.67,1.67,0,0,0-1.3-.5,2,2,0,0,0-1.5.58,2.44,2.44,0,0,0-.56,1.74v4.26h-2.5V52.73h2.39v1a3.14,3.14,0,0,1,1.23-.84,4.23,4.23,0,0,1,1.61-.3A3.56,3.56,0,0,1,224.68,53.56Z"/><path class="cls-3" d="M230,58.78a1.51,1.51,0,0,1,.43,1.12,2.39,2.39,0,0,1-.08.64,7.2,7.2,0,0,1-.35,1l-.91,2.3h-1.58l.7-2.54a1.29,1.29,0,0,1-.63-.52,1.65,1.65,0,0,1,.21-2,1.53,1.53,0,0,1,1.11-.42A1.51,1.51,0,0,1,230,58.78Z"/><path class="cls-3" d="M243.18,53.55a3.63,3.63,0,0,1,1.07,2.87v4.92h-2.33V60.26a2.79,2.79,0,0,1-2.63,1.2,4.16,4.16,0,0,1-1.72-.33,2.62,2.62,0,0,1-1.11-.93,2.44,2.44,0,0,1-.38-1.34A2.25,2.25,0,0,1,237,57a4.62,4.62,0,0,1,2.79-.69h2a1.62,1.62,0,0,0-.5-1.26,2.19,2.19,0,0,0-1.49-.44,4.54,4.54,0,0,0-1.35.22,3.65,3.65,0,0,0-1.13.58l-.89-1.74a5.37,5.37,0,0,1,1.69-.77,7.57,7.57,0,0,1,2-.27A4.5,4.5,0,0,1,243.18,53.55Zm-2.12,5.94a1.64,1.64,0,0,0,.7-.87v-.88h-1.71c-1,0-1.54.33-1.54,1a.89.89,0,0,0,.38.76,1.66,1.66,0,0,0,1,.28A2.17,2.17,0,0,0,241.06,59.49Z"/><path class="cls-3" d="M254.33,53.56a3.83,3.83,0,0,1,1,2.85v4.93h-2.5V56.79a2.31,2.31,0,0,0-.44-1.53,1.67,1.67,0,0,0-1.3-.5,2,2,0,0,0-1.5.58,2.4,2.4,0,0,0-.56,1.74v4.26h-2.5V52.73h2.38v1a3.18,3.18,0,0,1,1.24-.84,4.2,4.2,0,0,1,1.61-.3A3.56,3.56,0,0,1,254.33,53.56Z"/><path class="cls-3" d="M266.43,49.46V61.34h-2.38v-1a3.29,3.29,0,0,1-2.69,1.12,4.48,4.48,0,0,1-2.2-.54,3.92,3.92,0,0,1-1.55-1.55,5.15,5.15,0,0,1,0-4.67,3.94,3.94,0,0,1,1.55-1.56,4.48,4.48,0,0,1,2.2-.54,3.26,3.26,0,0,1,2.57,1V49.46Zm-3.07,9.31a2.74,2.74,0,0,0,0-3.47,2.23,2.23,0,0,0-3.15,0,2.7,2.7,0,0,0,0,3.47,2.23,2.23,0,0,0,3.15,0Z"/><path class="cls-3" d="M273.44,50.14H276v11.2h-2.59Z"/><path class="cls-3" d="M292.1,53.55a3.87,3.87,0,0,1,.95,2.86v4.93h-2.49V56.79a2.31,2.31,0,0,0-.43-1.53,1.49,1.49,0,0,0-1.2-.5,1.8,1.8,0,0,0-1.4.57A2.46,2.46,0,0,0,287,57v4.32h-2.49V56.79c0-1.35-.55-2-1.64-2a1.75,1.75,0,0,0-1.37.57A2.46,2.46,0,0,0,281,57v4.32h-2.5V52.73h2.38v1a3.2,3.2,0,0,1,1.18-.83,4,4,0,0,1,1.53-.29,3.7,3.7,0,0,1,1.65.36,2.92,2.92,0,0,1,1.18,1,3.45,3.45,0,0,1,1.34-1,4.08,4.08,0,0,1,1.76-.37A3.48,3.48,0,0,1,292.1,53.55Z"/><path class="cls-3" d="M302.57,53.15a4,4,0,0,1,1.54,1.55,5.13,5.13,0,0,1,0,4.66,4,4,0,0,1-1.54,1.55,4.4,4.4,0,0,1-2.19.55,3.3,3.3,0,0,1-2.59-1v4h-2.5V52.73h2.39v1a3.3,3.3,0,0,1,2.7-1.12A4.4,4.4,0,0,1,302.57,53.15Zm-1.05,5.62a2.74,2.74,0,0,0,0-3.47,2,2,0,0,0-1.57-.65,2.06,2.06,0,0,0-1.58.65,2.77,2.77,0,0,0,0,3.47,2.1,2.1,0,0,0,1.58.65A2.07,2.07,0,0,0,301.52,58.77Z"/><path class="cls-3" d="M309.93,52.92a4.52,4.52,0,0,1,1.75-.32v2.3l-.56,0a2.27,2.27,0,0,0-1.68.6,2.41,2.41,0,0,0-.61,1.8v4.07h-2.5V52.73h2.39v1.13A2.78,2.78,0,0,1,309.93,52.92Z"/><path class="cls-3" d="M314.74,60.9a4.29,4.29,0,0,1-1.69-1.58,4.38,4.38,0,0,1-.61-2.29,4.43,4.43,0,0,1,.61-2.29,4.27,4.27,0,0,1,1.69-1.57,5.14,5.14,0,0,1,2.44-.57,5.07,5.07,0,0,1,2.43.57,4.18,4.18,0,0,1,1.68,1.57A4.34,4.34,0,0,1,321.9,57a4.29,4.29,0,0,1-.61,2.29,4.2,4.2,0,0,1-1.68,1.58,5.18,5.18,0,0,1-2.43.56A5.25,5.25,0,0,1,314.74,60.9Zm4-2.13a2.77,2.77,0,0,0,0-3.47,2.25,2.25,0,0,0-3.16,0,2.7,2.7,0,0,0,0,3.47,2.25,2.25,0,0,0,3.16,0Z"/><path class="cls-3" d="M331.87,52.73l-3.63,8.61h-2.58l-3.61-8.61h2.57L327,58.58l2.46-5.85Z"/><path class="cls-3" d="M341,57.74h-6.51a2,2,0,0,0,.83,1.26,2.73,2.73,0,0,0,1.63.46,3.16,3.16,0,0,0,1.19-.2,2.79,2.79,0,0,0,1-.63l1.33,1.44a4.46,4.46,0,0,1-3.55,1.39,5.73,5.73,0,0,1-2.58-.56,4.21,4.21,0,0,1-1.73-1.58,4.62,4.62,0,0,1,0-4.57,4.18,4.18,0,0,1,1.65-1.58,5.11,5.11,0,0,1,4.63,0,4,4,0,0,1,1.61,1.56,4.67,4.67,0,0,1,.59,2.36S341.07,57.32,341,57.74ZM335.2,55a2.05,2.05,0,0,0-.71,1.31h4.24A2,2,0,0,0,338,55a2.07,2.07,0,0,0-1.41-.49A2.14,2.14,0,0,0,335.2,55Z"/><path class="cls-3" d="M351.52,49.46V61.34h-2.39v-1a3.28,3.28,0,0,1-2.69,1.12,4.44,4.44,0,0,1-2.19-.54,3.85,3.85,0,0,1-1.55-1.55,5.15,5.15,0,0,1,0-4.67,3.88,3.88,0,0,1,1.55-1.56,4.44,4.44,0,0,1,2.19-.54,3.29,3.29,0,0,1,2.58,1V49.46Zm-3.08,9.31a2.7,2.7,0,0,0,0-3.47,2,2,0,0,0-1.56-.65,2.1,2.1,0,0,0-1.59.65,2.74,2.74,0,0,0,0,3.47,2.13,2.13,0,0,0,1.59.65A2.07,2.07,0,0,0,348.44,58.77Z"/><path class="cls-3" d="M367.2,59.26v2.08h-8.68V50.14H367v2.08H361.1v2.43h5.2v2h-5.2v2.6Z"/><path class="cls-3" d="M375.57,53.55a3.66,3.66,0,0,1,1.07,2.87v4.92H374.3V60.26a2.78,2.78,0,0,1-2.62,1.2,4.12,4.12,0,0,1-1.72-.33,2.59,2.59,0,0,1-1.12-.93,2.44,2.44,0,0,1-.38-1.34,2.25,2.25,0,0,1,.9-1.89,4.64,4.64,0,0,1,2.8-.69h2a1.61,1.61,0,0,0-.49-1.26,2.23,2.23,0,0,0-1.49-.44,4.55,4.55,0,0,0-1.36.22,3.59,3.59,0,0,0-1.12.58l-.9-1.74a5.37,5.37,0,0,1,1.69-.77,7.57,7.57,0,0,1,2-.27A4.52,4.52,0,0,1,375.57,53.55Zm-2.13,5.94a1.64,1.64,0,0,0,.7-.87v-.88h-1.71c-1,0-1.54.33-1.54,1a.89.89,0,0,0,.38.76,1.66,1.66,0,0,0,1,.28A2.15,2.15,0,0,0,373.44,59.49Z"/><path class="cls-3" d="M382.48,52.92a4.6,4.6,0,0,1,1.76-.32v2.3l-.56,0a2.27,2.27,0,0,0-1.68.6,2.41,2.41,0,0,0-.61,1.8v4.07h-2.5V52.73h2.39v1.13A2.81,2.81,0,0,1,382.48,52.92Z"/><path class="cls-3" d="M385.73,49.46h2.49V61.34h-2.49Z"/><path class="cls-3" d="M399.08,52.73l-3.88,9.13a4.49,4.49,0,0,1-1.47,2.1,3.54,3.54,0,0,1-2.1.61,4.35,4.35,0,0,1-1.33-.21,2.88,2.88,0,0,1-1.07-.58l.91-1.77a2.14,2.14,0,0,0,1.41.54,1.28,1.28,0,0,0,.83-.25,2.11,2.11,0,0,0,.58-.82l0-.08-3.73-8.67h2.58l2.41,5.84,2.43-5.84Z"/><path class="cls-3" d="M139.5,69.34l-3.66,11.2h-2.78L130.59,73l-2.54,7.59h-2.77l-3.68-11.2h2.69l2.53,7.87,2.64-7.87h2.4l2.56,7.93,2.6-7.93Z"/><path class="cls-3" d="M146.67,72.75a3.63,3.63,0,0,1,1.07,2.87v4.92h-2.33V79.46a2.79,2.79,0,0,1-2.63,1.2,4.16,4.16,0,0,1-1.72-.33A2.69,2.69,0,0,1,140,79.4a2.36,2.36,0,0,1-.38-1.34,2.25,2.25,0,0,1,.9-1.89,4.58,4.58,0,0,1,2.79-.69h2a1.62,1.62,0,0,0-.5-1.26,2.21,2.21,0,0,0-1.49-.44,4.44,4.44,0,0,0-1.35.22,3.65,3.65,0,0,0-1.13.58l-.89-1.74a5.42,5.42,0,0,1,1.68-.77,7.7,7.7,0,0,1,2-.27A4.5,4.5,0,0,1,146.67,72.75Zm-2.13,5.94a1.66,1.66,0,0,0,.71-.87v-.88h-1.72c-1,0-1.53.33-1.53,1a.87.87,0,0,0,.38.76,1.66,1.66,0,0,0,1,.28A2.14,2.14,0,0,0,144.54,78.69Z"/><path class="cls-3" d="M153.59,72.12a4.55,4.55,0,0,1,1.75-.32v2.3l-.56,0a2.3,2.3,0,0,0-1.68.6,2.44,2.44,0,0,0-.6,1.8v4.07H150V71.93h2.38v1.13A2.78,2.78,0,0,1,153.59,72.12Z"/><path class="cls-3" d="M164.65,72.76a3.83,3.83,0,0,1,1,2.85v4.93h-2.49V76a2.25,2.25,0,0,0-.45-1.53,1.67,1.67,0,0,0-1.3-.5,2,2,0,0,0-1.5.58,2.4,2.4,0,0,0-.56,1.74v4.26h-2.5V71.93h2.39v1a3.14,3.14,0,0,1,1.23-.84,4.23,4.23,0,0,1,1.61-.3A3.56,3.56,0,0,1,164.65,72.76Z"/><path class="cls-3" d="M168,70.33a1.35,1.35,0,0,1,0-2,1.77,1.77,0,0,1,2.23,0,1.21,1.21,0,0,1,.44,1,1.36,1.36,0,0,1-.44,1,1.55,1.55,0,0,1-1.11.41A1.6,1.6,0,0,1,168,70.33Zm-.13,1.6h2.49v8.61h-2.49Z"/><path class="cls-3" d="M180.52,72.76a3.79,3.79,0,0,1,1,2.85v4.93H179V76a2.25,2.25,0,0,0-.45-1.53,1.67,1.67,0,0,0-1.3-.5,2,2,0,0,0-1.5.58,2.44,2.44,0,0,0-.56,1.74v4.26h-2.5V71.93h2.39v1a3.14,3.14,0,0,1,1.23-.84,4.25,4.25,0,0,1,1.62-.3A3.55,3.55,0,0,1,180.52,72.76Z"/><path class="cls-3" d="M192.74,71.93V79.1a4.62,4.62,0,0,1-1.24,3.52,5.12,5.12,0,0,1-3.6,1.15,8.63,8.63,0,0,1-2.36-.31,5,5,0,0,1-1.86-.88l1-1.79a3.9,3.9,0,0,0,1.38.71,5.34,5.34,0,0,0,1.66.27,2.68,2.68,0,0,0,1.91-.59,2.31,2.31,0,0,0,.62-1.76v-.37a3.51,3.51,0,0,1-2.72,1.07,4.55,4.55,0,0,1-2.17-.52,4.05,4.05,0,0,1-1.56-1.46,4.45,4.45,0,0,1,0-4.36,4.05,4.05,0,0,1,1.56-1.46,4.55,4.55,0,0,1,2.17-.52A3.42,3.42,0,0,1,190.37,73v-1.1Zm-3.1,5.56a2.17,2.17,0,0,0,0-3.06,2.28,2.28,0,0,0-1.62-.58,2.33,2.33,0,0,0-1.64.58,2.15,2.15,0,0,0,0,3.06,2.33,2.33,0,0,0,1.64.58A2.28,2.28,0,0,0,189.64,77.49Z"/><path class="cls-3" d="M200.87,80.37a5.85,5.85,0,0,1-2-.94l.88-2a6.21,6.21,0,0,0,1.71.85,6.52,6.52,0,0,0,2,.32,3.18,3.18,0,0,0,1.63-.33,1,1,0,0,0,.52-.87.84.84,0,0,0-.31-.67,2.41,2.41,0,0,0-.8-.42c-.32-.11-.76-.22-1.32-.35a18,18,0,0,1-2.09-.61,3.34,3.34,0,0,1-1.4-1,2.61,2.61,0,0,1-.59-1.79,3.15,3.15,0,0,1,.53-1.77,3.58,3.58,0,0,1,1.59-1.25,6.5,6.5,0,0,1,2.6-.47,8.63,8.63,0,0,1,2.1.26,6.17,6.17,0,0,1,1.79.74l-.8,2a6.3,6.3,0,0,0-3.1-.88,2.86,2.86,0,0,0-1.61.36,1.05,1.05,0,0,0-.52.92.91.91,0,0,0,.6.86,9.13,9.13,0,0,0,1.83.55,18.88,18.88,0,0,1,2.1.61,3.45,3.45,0,0,1,1.4,1,2.58,2.58,0,0,1,.58,1.78,3,3,0,0,1-.54,1.75,3.54,3.54,0,0,1-1.6,1.25,6.58,6.58,0,0,1-2.61.47A9.17,9.17,0,0,1,200.87,80.37Z"/><path class="cls-3" d="M218.18,71.93l-3.89,9.13a4.55,4.55,0,0,1-1.47,2.1,3.61,3.61,0,0,1-2.1.61,4.35,4.35,0,0,1-1.33-.21,2.88,2.88,0,0,1-1.07-.58l.91-1.77a2.13,2.13,0,0,0,.67.4,2.15,2.15,0,0,0,.74.14,1.28,1.28,0,0,0,.83-.25,2.11,2.11,0,0,0,.58-.82l0-.08-3.73-8.67h2.58l2.41,5.84,2.43-5.84Z"/><path class="cls-3" d="M219.87,80.4a5.73,5.73,0,0,1-1.63-.66l.83-1.8a4.94,4.94,0,0,0,1.39.6,5.7,5.7,0,0,0,1.6.24c1.06,0,1.59-.27,1.59-.79a.57.57,0,0,0-.44-.53,7.21,7.21,0,0,0-1.32-.27,11.64,11.64,0,0,1-1.75-.37,2.64,2.64,0,0,1-1.19-.73,2.09,2.09,0,0,1-.5-1.51,2.3,2.3,0,0,1,.47-1.44,3,3,0,0,1,1.37-1,6,6,0,0,1,2.14-.35,8.67,8.67,0,0,1,1.82.2,5.05,5.05,0,0,1,1.49.55l-.83,1.78a4.93,4.93,0,0,0-2.48-.64,2.54,2.54,0,0,0-1.2.22.65.65,0,0,0-.4.58.58.58,0,0,0,.43.56,7.87,7.87,0,0,0,1.38.3,14.16,14.16,0,0,1,1.73.38,2.47,2.47,0,0,1,1.16.73,2.06,2.06,0,0,1,.5,1.47,2.26,2.26,0,0,1-.48,1.42,3.06,3.06,0,0,1-1.4,1,6.2,6.2,0,0,1-2.18.34A8.17,8.17,0,0,1,219.87,80.4Z"/><path class="cls-3" d="M233.12,80.12a2.63,2.63,0,0,1-.91.41,4.52,4.52,0,0,1-1.12.13,3.36,3.36,0,0,1-2.38-.78,3,3,0,0,1-.84-2.3V74h-1.33V72.12h1.33V70h2.5v2.1h2.14V74h-2.14v3.5a1.14,1.14,0,0,0,.28.84,1,1,0,0,0,.79.3,1.65,1.65,0,0,0,1-.32Z"/><path class="cls-3" d="M242.64,76.94h-6.51A2,2,0,0,0,237,78.2a2.75,2.75,0,0,0,1.63.46,3.13,3.13,0,0,0,1.19-.2,2.79,2.79,0,0,0,1-.63l1.33,1.44a4.46,4.46,0,0,1-3.55,1.39A5.76,5.76,0,0,1,236,80.1a4.21,4.21,0,0,1-1.73-1.58,4.62,4.62,0,0,1,0-4.57,4.18,4.18,0,0,1,1.65-1.58,5.11,5.11,0,0,1,4.63,0,4,4,0,0,1,1.61,1.56,4.67,4.67,0,0,1,.59,2.36S242.67,76.52,242.64,76.94Zm-5.84-2.77a2.05,2.05,0,0,0-.71,1.31h4.24a2,2,0,0,0-.7-1.3,2.07,2.07,0,0,0-1.41-.49A2.14,2.14,0,0,0,236.8,74.17Z"/><path class="cls-3" d="M257.94,72.75a3.88,3.88,0,0,1,1,2.86v4.93h-2.5V76a2.37,2.37,0,0,0-.42-1.53,1.52,1.52,0,0,0-1.21-.5,1.8,1.8,0,0,0-1.4.57,2.46,2.46,0,0,0-.51,1.69v4.32h-2.49V76c0-1.35-.55-2-1.64-2a1.75,1.75,0,0,0-1.37.57,2.46,2.46,0,0,0-.51,1.69v4.32h-2.5V71.93h2.38v1a3.28,3.28,0,0,1,1.18-.83,4,4,0,0,1,1.53-.29,3.7,3.7,0,0,1,1.65.36,2.92,2.92,0,0,1,1.18,1,3.45,3.45,0,0,1,1.34-1,4.11,4.11,0,0,1,1.76-.37A3.48,3.48,0,0,1,257.94,72.75Z"/><path class="cls-3" d="M261.94,80.4a5.81,5.81,0,0,1-1.64-.66l.84-1.8a4.81,4.81,0,0,0,1.39.6,5.59,5.59,0,0,0,1.6.24c1.05,0,1.58-.27,1.58-.79a.56.56,0,0,0-.43-.53,7.36,7.36,0,0,0-1.33-.27,11.76,11.76,0,0,1-1.74-.37,2.59,2.59,0,0,1-1.19-.73,2.09,2.09,0,0,1-.51-1.51,2.37,2.37,0,0,1,.47-1.44,3.08,3.08,0,0,1,1.38-1,5.94,5.94,0,0,1,2.13-.35,8.6,8.6,0,0,1,1.82.2,5.23,5.23,0,0,1,1.5.55L267,74.33a5,5,0,0,0-2.49-.64,2.54,2.54,0,0,0-1.2.22.66.66,0,0,0-.39.58.58.58,0,0,0,.43.56,7.51,7.51,0,0,0,1.37.3,13.74,13.74,0,0,1,1.73.38,2.5,2.5,0,0,1,1.17.73,2.06,2.06,0,0,1,.5,1.47,2.21,2.21,0,0,1-.49,1.42,3,3,0,0,1-1.39,1,6.3,6.3,0,0,1-2.19.34A8.14,8.14,0,0,1,261.94,80.4Z"/><path class="cls-3" d="M276.89,72.12h2.21V74H277v6.5h-2.5V74h-1.33V72.12h1.33v-.38a3.15,3.15,0,0,1,.87-2.34,3.34,3.34,0,0,1,2.46-.86,4.53,4.53,0,0,1,1.06.12,2.5,2.5,0,0,1,.84.34L279,70.81a1.68,1.68,0,0,0-1-.31c-.76,0-1.14.42-1.14,1.25Z"/><path class="cls-3" d="M281.89,80.1a4.2,4.2,0,0,1-1.68-1.58,4.29,4.29,0,0,1-.61-2.29,4.34,4.34,0,0,1,.61-2.29,4.18,4.18,0,0,1,1.68-1.57,5.51,5.51,0,0,1,4.88,0,4.31,4.31,0,0,1,1.68,1.57,4.42,4.42,0,0,1,.6,2.29,4.23,4.23,0,0,1-2.28,3.87,5.6,5.6,0,0,1-4.88,0Zm4-2.13a2.74,2.74,0,0,0,0-3.47,2.25,2.25,0,0,0-3.16,0,2.74,2.74,0,0,0,0,3.47,2.25,2.25,0,0,0,3.16,0Z"/><path class="cls-3" d="M294.31,72.12a4.55,4.55,0,0,1,1.75-.32v2.3l-.56,0a2.3,2.3,0,0,0-1.68.6,2.45,2.45,0,0,0-.61,1.8v4.07h-2.49V71.93h2.38v1.13A2.78,2.78,0,0,1,294.31,72.12Z"/><path class="cls-3" d="M302.32,69.34h5.09a7.19,7.19,0,0,1,3.22.69,5.32,5.32,0,0,1,2.18,2,6,6,0,0,1,0,5.89,5.25,5.25,0,0,1-2.18,2,7.2,7.2,0,0,1-3.22.7h-5.09Zm5,9.07a3.75,3.75,0,0,0,2.68-.94,3.71,3.71,0,0,0,0-5.07,3.79,3.79,0,0,0-2.68-.94h-2.37v7Z"/><path class="cls-3" d="M315.49,70.33a1.35,1.35,0,0,1,0-2,1.6,1.6,0,0,1,1.12-.4,1.63,1.63,0,0,1,1.12.39,1.24,1.24,0,0,1,.43,1,1.39,1.39,0,0,1-.43,1,1.75,1.75,0,0,1-2.24,0Zm-.13,1.6h2.49v8.61h-2.49Z"/><path class="cls-3" d="M321,80.4a5.86,5.86,0,0,1-1.63-.66l.83-1.8a5,5,0,0,0,1.4.6,5.59,5.59,0,0,0,1.6.24c1.05,0,1.58-.27,1.58-.79a.56.56,0,0,0-.43-.53,7.36,7.36,0,0,0-1.33-.27,11.48,11.48,0,0,1-1.74-.37,2.67,2.67,0,0,1-1.2-.73,2.13,2.13,0,0,1-.5-1.51,2.37,2.37,0,0,1,.47-1.44,3.08,3.08,0,0,1,1.38-1,5.94,5.94,0,0,1,2.13-.35,8.6,8.6,0,0,1,1.82.2,5.23,5.23,0,0,1,1.5.55L326,74.33a4.9,4.9,0,0,0-2.48-.64,2.54,2.54,0,0,0-1.2.22.67.67,0,0,0-.4.58.59.59,0,0,0,.44.56,7.51,7.51,0,0,0,1.37.3,13.74,13.74,0,0,1,1.73.38,2.5,2.5,0,0,1,1.17.73,2.06,2.06,0,0,1,.49,1.47,2.26,2.26,0,0,1-.48,1.42,3,3,0,0,1-1.4,1,6.2,6.2,0,0,1-2.18.34A8.28,8.28,0,0,1,321,80.4Z"/><path class="cls-3" d="M335.21,72.75a3.63,3.63,0,0,1,1.08,2.87v4.92H334V79.46a2.78,2.78,0,0,1-2.62,1.2,4.09,4.09,0,0,1-1.72-.33,2.66,2.66,0,0,1-1.12-.93,2.44,2.44,0,0,1-.38-1.34,2.25,2.25,0,0,1,.9-1.89,4.64,4.64,0,0,1,2.8-.69h2a1.62,1.62,0,0,0-.5-1.26,2.18,2.18,0,0,0-1.48-.44,4.55,4.55,0,0,0-1.36.22,3.59,3.59,0,0,0-1.12.58l-.9-1.74a5.37,5.37,0,0,1,1.69-.77,7.57,7.57,0,0,1,2-.27A4.48,4.48,0,0,1,335.21,72.75Zm-2.12,5.94a1.64,1.64,0,0,0,.7-.87v-.88h-1.71c-1,0-1.54.33-1.54,1a.89.89,0,0,0,.38.76,1.66,1.66,0,0,0,1,.28A2.15,2.15,0,0,0,333.09,78.69Z"/><path class="cls-3" d="M339.34,80.4a5.73,5.73,0,0,1-1.63-.66l.83-1.8a5.07,5.07,0,0,0,1.39.6,5.7,5.7,0,0,0,1.6.24c1.06,0,1.59-.27,1.59-.79a.57.57,0,0,0-.43-.53,7.56,7.56,0,0,0-1.33-.27,11.64,11.64,0,0,1-1.75-.37,2.64,2.64,0,0,1-1.19-.73,2.13,2.13,0,0,1-.5-1.51,2.3,2.3,0,0,1,.47-1.44,3,3,0,0,1,1.38-1,5.94,5.94,0,0,1,2.13-.35,8.67,8.67,0,0,1,1.82.2,5.05,5.05,0,0,1,1.49.55l-.83,1.78a4.93,4.93,0,0,0-2.48-.64,2.54,2.54,0,0,0-1.2.22.65.65,0,0,0-.4.58.58.58,0,0,0,.43.56,7.87,7.87,0,0,0,1.38.3,14.16,14.16,0,0,1,1.73.38,2.55,2.55,0,0,1,1.17.73,2.06,2.06,0,0,1,.49,1.47,2.26,2.26,0,0,1-.48,1.42,3.06,3.06,0,0,1-1.4,1,6.2,6.2,0,0,1-2.18.34A8.17,8.17,0,0,1,339.34,80.4Z"/><path class="cls-3" d="M352.59,80.12a2.66,2.66,0,0,1-.9.41,4.66,4.66,0,0,1-1.13.13,3.36,3.36,0,0,1-2.38-.78,3,3,0,0,1-.84-2.3V74H346V72.12h1.33V70h2.5v2.1H352V74h-2.14v3.5a1.14,1.14,0,0,0,.28.84,1,1,0,0,0,.79.3,1.65,1.65,0,0,0,1-.32Z"/><path class="cls-3" d="M362.11,76.94H355.6a2,2,0,0,0,.83,1.26,2.75,2.75,0,0,0,1.63.46,3.13,3.13,0,0,0,1.19-.2,2.79,2.79,0,0,0,1-.63l1.33,1.44A4.46,4.46,0,0,1,358,80.66a5.76,5.76,0,0,1-2.58-.56,4.21,4.21,0,0,1-1.73-1.58,4.38,4.38,0,0,1-.61-2.29,4.33,4.33,0,0,1,.61-2.28,4.09,4.09,0,0,1,1.64-1.58,5.11,5.11,0,0,1,4.63,0,4,4,0,0,1,1.61,1.56,4.67,4.67,0,0,1,.59,2.36S362.14,76.52,362.11,76.94Zm-5.84-2.77a2,2,0,0,0-.7,1.31h4.24a2.1,2.1,0,0,0-.71-1.3,2.07,2.07,0,0,0-1.41-.49A2.14,2.14,0,0,0,356.27,74.17Z"/><path class="cls-3" d="M367.41,72.12a4.57,4.57,0,0,1,1.76-.32v2.3l-.56,0a2.27,2.27,0,0,0-1.68.6,2.41,2.41,0,0,0-.61,1.8v4.07h-2.5V71.93h2.39v1.13A2.75,2.75,0,0,1,367.41,72.12Z"/><path class="cls-3" d="M129.71,99.74l-2.16-3.12h-2.38v3.12h-2.59V88.54h4.84A6.24,6.24,0,0,1,130,89a3.86,3.86,0,0,1,1.69,1.41,3.93,3.93,0,0,1,.59,2.16A3.66,3.66,0,0,1,130,96.14l2.52,3.6Zm-.65-8.59a2.78,2.78,0,0,0-1.78-.5h-2.11v3.9h2.11a2.72,2.72,0,0,0,1.78-.51,2,2,0,0,0,0-2.89Z"/><path class="cls-3" d="M134.29,89.53a1.37,1.37,0,0,1,0-2,1.79,1.79,0,0,1,2.24,0,1.21,1.21,0,0,1,.43,1,1.35,1.35,0,0,1-.43,1,1.58,1.58,0,0,1-1.12.41A1.61,1.61,0,0,1,134.29,89.53Zm-.13,1.6h2.5v8.61h-2.5Z"/><path class="cls-3" d="M139.77,99.6a5.86,5.86,0,0,1-1.63-.66l.84-1.8a4.81,4.81,0,0,0,1.39.6A5.59,5.59,0,0,0,142,98c1.05,0,1.58-.27,1.58-.79a.56.56,0,0,0-.43-.53,7.36,7.36,0,0,0-1.33-.27,11.76,11.76,0,0,1-1.74-.37,2.59,2.59,0,0,1-1.19-.73,2.07,2.07,0,0,1-.51-1.51,2.37,2.37,0,0,1,.47-1.44,3.08,3.08,0,0,1,1.38-1,5.94,5.94,0,0,1,2.13-.35,8.6,8.6,0,0,1,1.82.2,5.23,5.23,0,0,1,1.5.55l-.83,1.78a5,5,0,0,0-2.49-.64,2.54,2.54,0,0,0-1.2.22.67.67,0,0,0-.4.58.59.59,0,0,0,.44.56,7.51,7.51,0,0,0,1.37.3,13.74,13.74,0,0,1,1.73.38,2.5,2.5,0,0,1,1.17.73,2.06,2.06,0,0,1,.5,1.47,2.27,2.27,0,0,1-.49,1.42,3,3,0,0,1-1.39,1,6.3,6.3,0,0,1-2.19.34A8.28,8.28,0,0,1,139.77,99.6Z"/><path class="cls-3" d="M151.17,96.36,150,97.54v2.2h-2.5V87.86H150v6.72l3.64-3.45h3L153,94.78l3.9,5h-3Z"/><path class="cls-3" d="M169.87,99.74l-2.16-3.12h-2.38v3.12h-2.6V88.54h4.85a6.27,6.27,0,0,1,2.59.49,3.86,3.86,0,0,1,1.69,1.41,3.93,3.93,0,0,1,.59,2.16,3.66,3.66,0,0,1-2.31,3.54l2.51,3.6Zm-.66-8.59a2.73,2.73,0,0,0-1.77-.5h-2.11v3.9h2.11a2.67,2.67,0,0,0,1.77-.51,2,2,0,0,0,0-2.89Z"/><path class="cls-3" d="M182.7,96.14h-6.51A2.07,2.07,0,0,0,177,97.4a2.75,2.75,0,0,0,1.63.46,3.21,3.21,0,0,0,1.2-.2,2.88,2.88,0,0,0,1-.63l1.32,1.44a4.45,4.45,0,0,1-3.55,1.39A5.76,5.76,0,0,1,176,99.3a4.18,4.18,0,0,1-1.72-1.58,4.29,4.29,0,0,1-.61-2.29,4.41,4.41,0,0,1,.6-2.28,4.18,4.18,0,0,1,1.65-1.58,5.11,5.11,0,0,1,4.63,0,4.09,4.09,0,0,1,1.61,1.56,4.67,4.67,0,0,1,.58,2.36S182.73,95.72,182.7,96.14Zm-5.84-2.77a2,2,0,0,0-.7,1.31h4.24a2.06,2.06,0,0,0-2.11-1.79A2.17,2.17,0,0,0,176.86,93.37Z"/><path class="cls-3" d="M193.18,87.86V99.74H190.8v-1a3.29,3.29,0,0,1-2.69,1.12,4.51,4.51,0,0,1-2.2-.54,3.83,3.83,0,0,1-1.54-1.55,5.15,5.15,0,0,1,0-4.67,3.86,3.86,0,0,1,1.54-1.56,4.51,4.51,0,0,1,2.2-.54,3.29,3.29,0,0,1,2.58,1V87.86Zm-3.07,9.31a2.74,2.74,0,0,0,0-3.47,2.23,2.23,0,0,0-3.15,0,2.7,2.7,0,0,0,0,3.47,2.23,2.23,0,0,0,3.15,0Z"/><path class="cls-3" d="M204.16,91.13v8.61h-2.37v-1a3.24,3.24,0,0,1-1.18.86,4.13,4.13,0,0,1-4.18-.68,3.9,3.9,0,0,1-1-2.9V91.13h2.49v4.49c0,1.39.59,2.08,1.75,2.08a1.86,1.86,0,0,0,1.44-.58,2.48,2.48,0,0,0,.54-1.74V91.13Z"/><path class="cls-3" d="M208.17,99.3a4.33,4.33,0,0,1,0-7.73,5.26,5.26,0,0,1,2.47-.57,4.79,4.79,0,0,1,2.38.57,3.35,3.35,0,0,1,1.47,1.62l-1.93,1a2.11,2.11,0,0,0-1.94-1.18,2.15,2.15,0,0,0-1.61.64,2.33,2.33,0,0,0-.64,1.74,2.36,2.36,0,0,0,.64,1.75,2.19,2.19,0,0,0,1.61.64,2.1,2.1,0,0,0,1.94-1.19l1.93,1.06a3.45,3.45,0,0,1-1.47,1.6,4.79,4.79,0,0,1-2.38.57A5.38,5.38,0,0,1,208.17,99.3Z"/><path class="cls-3" d="M221.61,99.32a2.49,2.49,0,0,1-.9.41,4.6,4.6,0,0,1-1.13.13,3.35,3.35,0,0,1-2.37-.78,3,3,0,0,1-.84-2.3V93.24H215V91.32h1.33v-2.1h2.49v2.1H221v1.92h-2.15v3.5a1.14,1.14,0,0,0,.28.84,1,1,0,0,0,.79.3,1.62,1.62,0,0,0,1-.32Z"/><path class="cls-3" d="M223.15,89.53a1.37,1.37,0,0,1,0-2,1.79,1.79,0,0,1,2.24,0,1.21,1.21,0,0,1,.43,1,1.35,1.35,0,0,1-.43,1,1.58,1.58,0,0,1-1.12.41A1.61,1.61,0,0,1,223.15,89.53Zm-.13,1.6h2.5v8.61H223Z"/><path class="cls-3" d="M229.49,99.3a4.2,4.2,0,0,1-1.68-1.58,4.29,4.29,0,0,1-.61-2.29,4.34,4.34,0,0,1,.61-2.29,4.18,4.18,0,0,1,1.68-1.57,5.51,5.51,0,0,1,4.88,0,4.31,4.31,0,0,1,1.68,1.57,4.42,4.42,0,0,1,.6,2.29,4.23,4.23,0,0,1-2.28,3.87,5.6,5.6,0,0,1-4.88,0Zm4-2.13a2.74,2.74,0,0,0,0-3.47,2.25,2.25,0,0,0-3.16,0,2.74,2.74,0,0,0,0,3.47,2.25,2.25,0,0,0,3.16,0Z"/><path class="cls-3" d="M246.13,92a3.8,3.8,0,0,1,1,2.85v4.93h-2.5V95.19a2.25,2.25,0,0,0-.45-1.53,1.66,1.66,0,0,0-1.29-.5,2,2,0,0,0-1.51.58,2.44,2.44,0,0,0-.56,1.74v4.26h-2.49V91.13h2.38v1a3.14,3.14,0,0,1,1.23-.84,4.25,4.25,0,0,1,1.62-.3A3.52,3.52,0,0,1,246.13,92Z"/></svg>