<svg id="Layer_1" data-name="Layer 1" xmlns="http://www.w3.org/2000/svg" viewBox="0 0 474.47 113.33"><defs><style>.cls-1{fill:#fff;}.cls-2{fill:#48773c;}.cls-3{fill:#19486a;}</style></defs><rect class="cls-1" width="474.47" height="113.33"/><polygon class="cls-2" points="0 113.33 0 0 113.33 0 0 113.33"/><path class="cls-1" d="M34.12,19.54v25.2H28.29V24.22h-5V19.54Z"/><path class="cls-3" d="M127.67,39.6l-2.84-4.09H121.7V39.6h-3.4V24.9h6.36a8.17,8.17,0,0,1,3.39.65,4.87,4.87,0,0,1,3,4.69,4.8,4.8,0,0,1-3,4.64l3.3,4.72Zm-.86-11.26a3.55,3.55,0,0,0-2.34-.67H121.7V32.8h2.77a3.61,3.61,0,0,0,2.34-.67,2.67,2.67,0,0,0,0-3.79Z"/><path class="cls-3" d="M144.51,34.88H136a2.71,2.71,0,0,0,1.09,1.66,3.68,3.68,0,0,0,2.15.6,4.26,4.26,0,0,0,1.56-.26,3.71,3.71,0,0,0,1.27-.83l1.74,1.89a5.83,5.83,0,0,1-4.66,1.83,7.35,7.35,0,0,1-3.38-.75A5.41,5.41,0,0,1,133.46,37a5.76,5.76,0,0,1-.8-3,5.83,5.83,0,0,1,.79-3,5.61,5.61,0,0,1,2.16-2.08,6.35,6.35,0,0,1,3.08-.74,6.21,6.21,0,0,1,3,.71,5.2,5.2,0,0,1,2.11,2,6,6,0,0,1,.77,3.09S144.55,34.33,144.51,34.88Zm-7.67-3.64a2.7,2.7,0,0,0-.92,1.73h5.56a2.73,2.73,0,0,0-.92-1.72,2.79,2.79,0,0,0-1.85-.64A2.84,2.84,0,0,0,136.84,31.24Z"/><path class="cls-3" d="M147.8,39.42a7.31,7.31,0,0,1-2.14-.87l1.09-2.35a7.36,7.36,0,0,0,1.83.79,7.83,7.83,0,0,0,2.1.3c1.39,0,2.08-.34,2.08-1a.73.73,0,0,0-.57-.69,8.25,8.25,0,0,0-1.74-.36,17.27,17.27,0,0,1-2.29-.48,3.46,3.46,0,0,1-1.56-1,2.74,2.74,0,0,1-.66-2,3,3,0,0,1,.62-1.9,4,4,0,0,1,1.8-1.29,7.7,7.7,0,0,1,2.81-.46,10.71,10.71,0,0,1,2.38.26,6.48,6.48,0,0,1,2,.72l-1.09,2.33a6.51,6.51,0,0,0-3.25-.84,3.25,3.25,0,0,0-1.58.3.85.85,0,0,0-.52.75.75.75,0,0,0,.56.74,10.4,10.4,0,0,0,1.81.4,20,20,0,0,1,2.27.49,3.46,3.46,0,0,1,1.53,1,2.71,2.71,0,0,1,.65,1.93,3,3,0,0,1-.63,1.87,4,4,0,0,1-1.84,1.27,8.18,8.18,0,0,1-2.86.45A11.11,11.11,0,0,1,147.8,39.42Z"/><path class="cls-3" d="M158.07,26.2a1.79,1.79,0,0,1,0-2.6,2.34,2.34,0,0,1,2.94,0,1.6,1.6,0,0,1,.57,1.26,1.77,1.77,0,0,1-.57,1.35,2,2,0,0,1-1.47.54A2.09,2.09,0,0,1,158.07,26.2Zm-.16,2.1h3.27V39.6h-3.27Z"/><path class="cls-3" d="M164.23,24h3.27V39.6h-3.27Z"/><path class="cls-3" d="M170.72,26.2a1.77,1.77,0,0,1,0-2.6,2.05,2.05,0,0,1,1.47-.53,2.12,2.12,0,0,1,1.47.51,1.62,1.62,0,0,1,.56,1.26,1.79,1.79,0,0,1-.56,1.35,2.29,2.29,0,0,1-2.94,0Zm-.17,2.1h3.27V39.6h-3.27Z"/><path class="cls-3" d="M187.87,34.88h-8.54a2.63,2.63,0,0,0,1.09,1.66,3.65,3.65,0,0,0,2.14.6,4.18,4.18,0,0,0,1.56-.26,3.62,3.62,0,0,0,1.27-.83l1.75,1.89a5.86,5.86,0,0,1-4.66,1.83,7.36,7.36,0,0,1-3.39-.75A5.38,5.38,0,0,1,176.83,37a5.67,5.67,0,0,1-.8-3,5.74,5.74,0,0,1,.79-3A5.47,5.47,0,0,1,179,28.88a6.74,6.74,0,0,1,6.08,0,5.27,5.27,0,0,1,2.11,2,6.11,6.11,0,0,1,.77,3.09S187.91,34.33,187.87,34.88Zm-7.66-3.64a2.71,2.71,0,0,0-.93,1.73h5.57a2.69,2.69,0,0,0-.93-1.72,3,3,0,0,0-3.71,0Z"/><path class="cls-3" d="M200.38,29.4a5,5,0,0,1,1.29,3.73V39.6h-3.28v-6a3,3,0,0,0-.58-2A2.18,2.18,0,0,0,196.1,31a2.61,2.61,0,0,0-2,.77A3.17,3.17,0,0,0,193.4,34V39.6h-3.28V28.3h3.13v1.33a4.26,4.26,0,0,1,1.62-1.11,5.59,5.59,0,0,1,2.12-.38A4.64,4.64,0,0,1,200.38,29.4Z"/><path class="cls-3" d="M207,39A5.54,5.54,0,0,1,204.72,37a5.76,5.76,0,0,1-.8-3,5.7,5.7,0,0,1,.8-3A5.63,5.63,0,0,1,207,28.88a6.92,6.92,0,0,1,3.25-.74,6.2,6.2,0,0,1,3.11.74A4.48,4.48,0,0,1,215.28,31l-2.54,1.37a2.78,2.78,0,0,0-2.54-1.56,2.89,2.89,0,0,0-2.13.84,3.54,3.54,0,0,0,0,4.58,2.89,2.89,0,0,0,2.13.84,2.76,2.76,0,0,0,2.54-1.55l2.54,1.38a4.5,4.5,0,0,1-1.95,2.1,6.1,6.1,0,0,1-3.11.76A6.92,6.92,0,0,1,207,39Z"/><path class="cls-3" d="M228,34.88h-8.54a2.67,2.67,0,0,0,1.09,1.66,3.65,3.65,0,0,0,2.14.6,4.27,4.27,0,0,0,1.57-.26,3.81,3.81,0,0,0,1.27-.83l1.74,1.89a5.85,5.85,0,0,1-4.66,1.83,7.32,7.32,0,0,1-3.38-.75A5.41,5.41,0,0,1,217,37a6.06,6.06,0,0,1,0-6,5.47,5.47,0,0,1,2.16-2.08,6.74,6.74,0,0,1,6.08,0,5.2,5.2,0,0,1,2.11,2,6.11,6.11,0,0,1,.77,3.09S228.07,34.33,228,34.88Zm-7.66-3.64a2.7,2.7,0,0,0-.92,1.73H225a2.73,2.73,0,0,0-.92-1.72,3,3,0,0,0-3.72,0Z"/><path class="cls-3" d="M243.5,39.06a3.52,3.52,0,0,1-1.19.53,5.88,5.88,0,0,1-1.48.18,4.36,4.36,0,0,1-3.11-1,3.92,3.92,0,0,1-1.11-3V31.08h-1.74V28.56h1.74V25.8h3.28v2.76h2.81v2.52h-2.81v4.59a1.54,1.54,0,0,0,.37,1.11,1.35,1.35,0,0,0,1,.39,2.12,2.12,0,0,0,1.32-.42Z"/><path class="cls-3" d="M247.17,39A5.46,5.46,0,0,1,245,37a5.76,5.76,0,0,1-.8-3,5.7,5.7,0,0,1,.8-3,5.55,5.55,0,0,1,2.22-2.07,7.27,7.27,0,0,1,6.39,0,5.54,5.54,0,0,1,3,5.07,5.76,5.76,0,0,1-.79,3A5.56,5.56,0,0,1,253.56,39a7.18,7.18,0,0,1-6.39,0Zm5.27-2.79a3.61,3.61,0,0,0,0-4.56,2.76,2.76,0,0,0-2.07-.85,2.8,2.8,0,0,0-2.08.85,3.58,3.58,0,0,0,0,4.56,2.76,2.76,0,0,0,2.08.85A2.72,2.72,0,0,0,252.44,36.23Z"/><path class="cls-3" d="M267.89,38.88A7.29,7.29,0,0,1,265,36.17a7.89,7.89,0,0,1,0-7.83,7.22,7.22,0,0,1,2.85-2.71,8.39,8.39,0,0,1,4.09-1,8.53,8.53,0,0,1,3.45.67A6.92,6.92,0,0,1,278,27.25l-2.18,2a4.69,4.69,0,0,0-3.7-1.72,4.86,4.86,0,0,0-2.43.6A4.26,4.26,0,0,0,268,29.82a4.86,4.86,0,0,0-.6,2.43,4.93,4.93,0,0,0,.6,2.44,4.32,4.32,0,0,0,1.67,1.67,4.86,4.86,0,0,0,2.43.6,4.69,4.69,0,0,0,3.7-1.75l2.18,2a6.82,6.82,0,0,1-2.6,2,8.61,8.61,0,0,1-3.46.67A8.47,8.47,0,0,1,267.89,38.88Z"/><path class="cls-3" d="M280.08,24h3.28V39.6h-3.28Z"/><path class="cls-3" d="M286.57,26.2a1.77,1.77,0,0,1,0-2.6,2.09,2.09,0,0,1,1.47-.53,2.12,2.12,0,0,1,1.47.51,1.6,1.6,0,0,1,.57,1.26,1.77,1.77,0,0,1-.57,1.35,2.05,2.05,0,0,1-1.47.54A2.09,2.09,0,0,1,286.57,26.2Zm-.17,2.1h3.28V39.6H286.4Z"/><path class="cls-3" d="M310.56,29.38a5.09,5.09,0,0,1,1.25,3.75V39.6h-3.27v-6a3.07,3.07,0,0,0-.56-2,2,2,0,0,0-1.59-.66,2.32,2.32,0,0,0-1.82.75,3.18,3.18,0,0,0-.67,2.21V39.6h-3.28v-6c0-1.78-.71-2.67-2.14-2.67a2.31,2.31,0,0,0-1.81.75,3.18,3.18,0,0,0-.67,2.21V39.6h-3.28V28.3h3.13v1.31a4.22,4.22,0,0,1,1.55-1.1,5.2,5.2,0,0,1,2-.37,4.76,4.76,0,0,1,2.16.47A3.76,3.76,0,0,1,303.12,30a4.71,4.71,0,0,1,1.75-1.36,5.57,5.57,0,0,1,2.32-.48A4.55,4.55,0,0,1,310.56,29.38Z"/><path class="cls-3" d="M323.34,29.38a4.79,4.79,0,0,1,1.41,3.77V39.6h-3.07V38.19a3.64,3.64,0,0,1-3.44,1.58,5.42,5.42,0,0,1-2.26-.44,3.4,3.4,0,0,1-1.46-1.22,3.2,3.2,0,0,1-.5-1.76,2.92,2.92,0,0,1,1.19-2.48,6,6,0,0,1,3.66-.9h2.6a2.06,2.06,0,0,0-.65-1.65,2.82,2.82,0,0,0-1.95-.58,5.75,5.75,0,0,0-1.78.28,4.82,4.82,0,0,0-1.48.77l-1.17-2.29a7.15,7.15,0,0,1,2.21-1,9.86,9.86,0,0,1,2.66-.35A5.89,5.89,0,0,1,323.34,29.38Zm-2.79,7.8a2.12,2.12,0,0,0,.92-1.15V34.88h-2.24c-1.35,0-2,.44-2,1.32a1.21,1.21,0,0,0,.49,1,2.26,2.26,0,0,0,1.36.36A2.83,2.83,0,0,0,320.55,37.18Z"/><path class="cls-3" d="M335,39.06a3.61,3.61,0,0,1-1.19.53,5.94,5.94,0,0,1-1.48.18,4.4,4.4,0,0,1-3.12-1,4,4,0,0,1-1.1-3V31.08h-1.74V28.56h1.74V25.8h3.27v2.76h2.82v2.52h-2.82v4.59a1.58,1.58,0,0,0,.37,1.11,1.36,1.36,0,0,0,1,.39,2.13,2.13,0,0,0,1.33-.42Z"/><path class="cls-3" d="M347.49,34.88h-8.55a2.69,2.69,0,0,0,1.1,1.66,3.63,3.63,0,0,0,2.14.6,4.18,4.18,0,0,0,1.56-.26,3.62,3.62,0,0,0,1.27-.83l1.75,1.89a5.87,5.87,0,0,1-4.67,1.83,7.35,7.35,0,0,1-3.38-.75A5.38,5.38,0,0,1,336.45,37a5.67,5.67,0,0,1-.8-3,5.74,5.74,0,0,1,.79-3,5.47,5.47,0,0,1,2.16-2.08,6.74,6.74,0,0,1,6.08,0,5.27,5.27,0,0,1,2.11,2,6.1,6.1,0,0,1,.76,3.09S347.53,34.33,347.49,34.88Zm-7.66-3.64A2.67,2.67,0,0,0,338.9,33h5.57a2.69,2.69,0,0,0-.93-1.72,3,3,0,0,0-3.71,0Z"/><path class="cls-3" d="M358.88,38.88A7.29,7.29,0,0,1,356,36.17a7.89,7.89,0,0,1,0-7.83,7.22,7.22,0,0,1,2.85-2.71,8.41,8.41,0,0,1,4.09-1,8.53,8.53,0,0,1,3.45.67,7,7,0,0,1,2.6,1.93l-2.19,2a4.67,4.67,0,0,0-3.69-1.72,4.93,4.93,0,0,0-2.44.6A4.26,4.26,0,0,0,359,29.82a4.86,4.86,0,0,0-.6,2.43,4.93,4.93,0,0,0,.6,2.44,4.32,4.32,0,0,0,1.67,1.67,4.93,4.93,0,0,0,2.44.6,4.67,4.67,0,0,0,3.69-1.75l2.19,2a6.85,6.85,0,0,1-2.61,2,8.58,8.58,0,0,1-3.46.67A8.47,8.47,0,0,1,358.88,38.88Z"/><path class="cls-3" d="M381.33,29.4a5,5,0,0,1,1.29,3.73V39.6h-3.27v-6a3,3,0,0,0-.59-2,2.16,2.16,0,0,0-1.7-.66,2.6,2.6,0,0,0-2,.77,3.17,3.17,0,0,0-.74,2.28V39.6h-3.28V24h3.28v5.46a4.36,4.36,0,0,1,1.58-1,5.65,5.65,0,0,1,2-.34A4.64,4.64,0,0,1,381.33,29.4Z"/><path class="cls-3" d="M394.17,29.38a4.79,4.79,0,0,1,1.41,3.77V39.6h-3.06V38.19a3.67,3.67,0,0,1-3.45,1.58,5.42,5.42,0,0,1-2.26-.44,3.46,3.46,0,0,1-1.46-1.22,3.2,3.2,0,0,1-.5-1.76A3,3,0,0,1,386,33.87a6,6,0,0,1,3.66-.9h2.61a2.06,2.06,0,0,0-.66-1.65,2.82,2.82,0,0,0-1.95-.58,5.65,5.65,0,0,0-1.77.28,4.7,4.7,0,0,0-1.48.77l-1.18-2.29a7.21,7.21,0,0,1,2.22-1,9.79,9.79,0,0,1,2.65-.35A5.87,5.87,0,0,1,394.17,29.38Zm-2.79,7.8a2.14,2.14,0,0,0,.93-1.15V34.88h-2.25c-1.35,0-2,.44-2,1.32a1.19,1.19,0,0,0,.5,1,2.23,2.23,0,0,0,1.35.36A2.83,2.83,0,0,0,391.38,37.18Z"/><path class="cls-3" d="M408.8,29.4a5,5,0,0,1,1.29,3.73V39.6h-3.27v-6a3,3,0,0,0-.59-2,2.16,2.16,0,0,0-1.7-.66,2.62,2.62,0,0,0-2,.77,3.17,3.17,0,0,0-.73,2.28V39.6h-3.28V28.3h3.13v1.33a4.34,4.34,0,0,1,1.62-1.11,5.59,5.59,0,0,1,2.12-.38A4.64,4.64,0,0,1,408.8,29.4Z"/><path class="cls-3" d="M424.83,28.3v9.41a6.07,6.07,0,0,1-1.61,4.62,6.69,6.69,0,0,1-4.73,1.51,11.68,11.68,0,0,1-3.11-.4A6.69,6.69,0,0,1,413,42.29l1.3-2.35a5.41,5.41,0,0,0,1.81.93,7.15,7.15,0,0,0,2.18.35,3.56,3.56,0,0,0,2.51-.77,3,3,0,0,0,.81-2.32v-.48A4.6,4.6,0,0,1,418,39.06a6,6,0,0,1-2.85-.69,5.19,5.19,0,0,1-2.05-1.92,5.81,5.81,0,0,1,0-5.71,5.19,5.19,0,0,1,2.05-1.92,5.94,5.94,0,0,1,2.85-.68,4.48,4.48,0,0,1,3.74,1.61V28.3Zm-4.06,7.3a2.84,2.84,0,0,0,0-4,3,3,0,0,0-2.13-.77,3.05,3.05,0,0,0-2.14.77,2.81,2.81,0,0,0,0,4,3.05,3.05,0,0,0,2.14.77A3,3,0,0,0,420.77,35.6Z"/><path class="cls-3" d="M438.88,34.88h-8.54a2.63,2.63,0,0,0,1.09,1.66,3.65,3.65,0,0,0,2.14.6,4.18,4.18,0,0,0,1.56-.26,3.75,3.75,0,0,0,1.28-.83l1.74,1.89a5.86,5.86,0,0,1-4.66,1.83,7.29,7.29,0,0,1-3.38-.75A5.35,5.35,0,0,1,427.84,37a5.67,5.67,0,0,1-.8-3,5.74,5.74,0,0,1,.79-3A5.47,5.47,0,0,1,430,28.88a6.74,6.74,0,0,1,6.08,0,5.27,5.27,0,0,1,2.11,2A6.11,6.11,0,0,1,439,34S438.92,34.33,438.88,34.88Zm-7.66-3.64a2.71,2.71,0,0,0-.93,1.73h5.57a2.73,2.73,0,0,0-.92-1.72,3,3,0,0,0-3.72,0Z"/><path class="cls-3" d="M126.66,54.59a4.75,4.75,0,0,1,1.41,3.76V64.8H125V63.39A3.65,3.65,0,0,1,121.56,65a5.39,5.39,0,0,1-2.26-.44,3.35,3.35,0,0,1-1.46-1.22,3.15,3.15,0,0,1-.51-1.76,3,3,0,0,1,1.19-2.48,6.06,6.06,0,0,1,3.67-.9h2.6a2.09,2.09,0,0,0-.65-1.65,2.86,2.86,0,0,0-2-.58,5.66,5.66,0,0,0-1.78.28,4.82,4.82,0,0,0-1.48.77l-1.18-2.29a7.32,7.32,0,0,1,2.22-1,9.86,9.86,0,0,1,2.66-.35A5.84,5.84,0,0,1,126.66,54.59Zm-2.79,7.79a2.12,2.12,0,0,0,.92-1.15V60.08h-2.25q-2,0-2,1.32a1.18,1.18,0,0,0,.49,1,2.26,2.26,0,0,0,1.36.36A3,3,0,0,0,123.87,62.38Z"/><path class="cls-3" d="M141.29,54.6a5,5,0,0,1,1.29,3.73V64.8H139.3v-6a3,3,0,0,0-.59-2,2.16,2.16,0,0,0-1.7-.66,2.61,2.61,0,0,0-2,.77,3.17,3.17,0,0,0-.74,2.28V64.8H131V53.5h3.13v1.33a4.3,4.3,0,0,1,1.61-1.11,5.63,5.63,0,0,1,2.12-.38A4.68,4.68,0,0,1,141.29,54.6Z"/><path class="cls-3" d="M157.17,49.22V64.8H154V63.5A4.32,4.32,0,0,1,150.51,65a5.91,5.91,0,0,1-2.88-.71,5.17,5.17,0,0,1-2-2,6.8,6.8,0,0,1,0-6.13,5.11,5.11,0,0,1,2-2,5.8,5.8,0,0,1,2.88-.71,4.31,4.31,0,0,1,3.39,1.36V49.22Zm-4,12.21a3.58,3.58,0,0,0,0-4.56,2.77,2.77,0,0,0-2.06-.85,2.8,2.8,0,0,0-2.08.85,3.58,3.58,0,0,0,0,4.56,2.76,2.76,0,0,0,2.08.85A2.73,2.73,0,0,0,153.14,61.43Z"/><path class="cls-3" d="M166.37,50.1h6.68a9.53,9.53,0,0,1,4.23.91,6.8,6.8,0,0,1,2.85,2.58,7.83,7.83,0,0,1,0,7.73,6.84,6.84,0,0,1-2.85,2.57,9.4,9.4,0,0,1-4.23.91h-6.68ZM172.88,62a5,5,0,0,0,3.52-1.23,4.89,4.89,0,0,0,0-6.66,5,5,0,0,0-3.52-1.23h-3.11V62Z"/><path class="cls-3" d="M183.65,51.4a1.77,1.77,0,0,1,0-2.6,2.09,2.09,0,0,1,1.47-.53,2.12,2.12,0,0,1,1.47.51,1.6,1.6,0,0,1,.57,1.26,1.77,1.77,0,0,1-.57,1.35,2.05,2.05,0,0,1-1.47.54A2.09,2.09,0,0,1,183.65,51.4Zm-.17,2.1h3.28V64.8h-3.28Z"/><path class="cls-3" d="M190.85,64.62a7.19,7.19,0,0,1-2.14-.87l1.09-2.35a7.36,7.36,0,0,0,1.83.79,7.72,7.72,0,0,0,2.1.3c1.39,0,2.08-.34,2.08-1a.73.73,0,0,0-.57-.69,8.4,8.4,0,0,0-1.74-.36,17.27,17.27,0,0,1-2.29-.48,3.46,3.46,0,0,1-1.56-1,2.74,2.74,0,0,1-.66-2,3.1,3.1,0,0,1,.61-1.9,4.08,4.08,0,0,1,1.81-1.29,7.68,7.68,0,0,1,2.8-.46,10.74,10.74,0,0,1,2.39.26,6.48,6.48,0,0,1,2,.72l-1.09,2.33a6.54,6.54,0,0,0-3.26-.84,3.23,3.23,0,0,0-1.57.3.86.86,0,0,0-.53.75.76.76,0,0,0,.57.74,10.4,10.4,0,0,0,1.81.4,19.26,19.26,0,0,1,2.26.49,3.43,3.43,0,0,1,1.54,1,2.71,2.71,0,0,1,.65,1.93,3,3,0,0,1-.63,1.87,4,4,0,0,1-1.84,1.27,8.18,8.18,0,0,1-2.86.45A11.11,11.11,0,0,1,190.85,64.62Z"/><path class="cls-3" d="M209.54,54.59A4.75,4.75,0,0,1,211,58.35V64.8h-3.06V63.39A3.67,3.67,0,0,1,204.44,65a5.42,5.42,0,0,1-2.26-.44,3.46,3.46,0,0,1-1.46-1.22,3.23,3.23,0,0,1-.5-1.76,3,3,0,0,1,1.19-2.48,6,6,0,0,1,3.66-.9h2.61a2.06,2.06,0,0,0-.66-1.65,2.82,2.82,0,0,0-2-.58,5.65,5.65,0,0,0-1.77.28,4.7,4.7,0,0,0-1.48.77l-1.18-2.29a7.32,7.32,0,0,1,2.22-1,9.79,9.79,0,0,1,2.65-.35A5.83,5.83,0,0,1,209.54,54.59Zm-2.79,7.79a2.14,2.14,0,0,0,.93-1.15V60.08h-2.25c-1.35,0-2,.44-2,1.32a1.19,1.19,0,0,0,.5,1,2.23,2.23,0,0,0,1.35.36A2.92,2.92,0,0,0,206.75,62.38Z"/><path class="cls-3" d="M215,64.62a7.19,7.19,0,0,1-2.14-.87l1.09-2.35a7.36,7.36,0,0,0,1.83.79,7.72,7.72,0,0,0,2.1.3c1.39,0,2.08-.34,2.08-1a.73.73,0,0,0-.57-.69,8.55,8.55,0,0,0-1.74-.36,16.93,16.93,0,0,1-2.29-.48,3.55,3.55,0,0,1-1.57-1,2.74,2.74,0,0,1-.66-2,3.11,3.11,0,0,1,.62-1.9,4.08,4.08,0,0,1,1.81-1.29,7.64,7.64,0,0,1,2.8-.46,10.74,10.74,0,0,1,2.39.26,6.48,6.48,0,0,1,2,.72l-1.09,2.33a6.54,6.54,0,0,0-3.26-.84,3.23,3.23,0,0,0-1.57.3.86.86,0,0,0-.53.75.76.76,0,0,0,.57.74,10.4,10.4,0,0,0,1.81.4,19.26,19.26,0,0,1,2.26.49,3.43,3.43,0,0,1,1.54,1,2.71,2.71,0,0,1,.65,1.93,3,3,0,0,1-.63,1.87,4.09,4.09,0,0,1-1.84,1.27,8.24,8.24,0,0,1-2.87.45A11.09,11.09,0,0,1,215,64.62Z"/><path class="cls-3" d="M232.35,64.26a3.52,3.52,0,0,1-1.19.53,5.94,5.94,0,0,1-1.48.18,4.4,4.4,0,0,1-3.12-1,4,4,0,0,1-1.1-3V56.28h-1.74V53.76h1.74V51h3.28v2.76h2.81v2.52h-2.81v4.59a1.54,1.54,0,0,0,.37,1.11,1.34,1.34,0,0,0,1,.39,2.13,2.13,0,0,0,1.33-.42Z"/><path class="cls-3" d="M244.84,60.08H236.3a2.67,2.67,0,0,0,1.09,1.66,3.65,3.65,0,0,0,2.14.6,4.27,4.27,0,0,0,1.57-.26,3.81,3.81,0,0,0,1.27-.83l1.74,1.89A5.85,5.85,0,0,1,239.45,65a7.32,7.32,0,0,1-3.38-.75,5.41,5.41,0,0,1-2.27-2.06,6.06,6.06,0,0,1,0-6A5.47,5.47,0,0,1,236,54.08a6.74,6.74,0,0,1,6.08,0,5.2,5.2,0,0,1,2.11,2.05,6.11,6.11,0,0,1,.77,3.09C244.91,59.24,244.89,59.53,244.84,60.08Zm-7.66-3.64a2.7,2.7,0,0,0-.92,1.73h5.56a2.73,2.73,0,0,0-.92-1.72,3,3,0,0,0-3.72,0Z"/><path class="cls-3" d="M251.81,53.76a5.86,5.86,0,0,1,2.3-.42v3c-.37,0-.61,0-.74,0a3,3,0,0,0-2.2.78,3.18,3.18,0,0,0-.8,2.37V64.8h-3.28V53.5h3.13V55A3.64,3.64,0,0,1,251.81,53.76Z"/><path class="cls-3" d="M257.15,64.62a7.08,7.08,0,0,1-2.14-.87l1.09-2.35a7,7,0,0,0,1.83.79,7.72,7.72,0,0,0,2.1.3c1.38,0,2.08-.34,2.08-1a.73.73,0,0,0-.57-.69,8.55,8.55,0,0,0-1.74-.36,16.93,16.93,0,0,1-2.29-.48,3.49,3.49,0,0,1-1.57-1,2.74,2.74,0,0,1-.66-2,3.11,3.11,0,0,1,.62-1.9,4,4,0,0,1,1.81-1.29,7.64,7.64,0,0,1,2.8-.46,10.65,10.65,0,0,1,2.38.26,6.45,6.45,0,0,1,2,.72l-1.09,2.33a6.54,6.54,0,0,0-3.26-.84,3.23,3.23,0,0,0-1.57.3.86.86,0,0,0-.53.75.76.76,0,0,0,.57.74,10.47,10.47,0,0,0,1.8.4,19.49,19.49,0,0,1,2.27.49,3.35,3.35,0,0,1,1.53,1,2.67,2.67,0,0,1,.66,1.93,3,3,0,0,1-.63,1.87,4.09,4.09,0,0,1-1.84,1.27,8.24,8.24,0,0,1-2.87.45A11,11,0,0,1,257.15,64.62Z"/><path class="cls-3" d="M281.78,54.59a4.75,4.75,0,0,1,1.41,3.76V64.8h-3.07V63.39A3.64,3.64,0,0,1,276.68,65a5.42,5.42,0,0,1-2.26-.44A3.46,3.46,0,0,1,273,63.31a3.23,3.23,0,0,1-.5-1.76,3,3,0,0,1,1.19-2.48,6,6,0,0,1,3.66-.9h2.61a2.06,2.06,0,0,0-.66-1.65,2.82,2.82,0,0,0-1.95-.58,5.65,5.65,0,0,0-1.77.28,4.7,4.7,0,0,0-1.48.77l-1.18-2.29a7.26,7.26,0,0,1,2.21-1,9.91,9.91,0,0,1,2.66-.35A5.83,5.83,0,0,1,281.78,54.59ZM279,62.38a2.18,2.18,0,0,0,.93-1.15V60.08h-2.25c-1.35,0-2,.44-2,1.32a1.19,1.19,0,0,0,.5,1,2.23,2.23,0,0,0,1.35.36A2.92,2.92,0,0,0,279,62.38Z"/><path class="cls-3" d="M296.41,54.6a5,5,0,0,1,1.29,3.73V64.8h-3.28v-6a3,3,0,0,0-.58-2,2.17,2.17,0,0,0-1.7-.66,2.62,2.62,0,0,0-2,.77,3.17,3.17,0,0,0-.73,2.28V64.8h-3.28V53.5h3.13v1.33a4.26,4.26,0,0,1,1.62-1.11,5.59,5.59,0,0,1,2.12-.38A4.64,4.64,0,0,1,296.41,54.6Z"/><path class="cls-3" d="M312.29,49.22V64.8h-3.12V63.5A4.33,4.33,0,0,1,305.64,65a5.92,5.92,0,0,1-2.89-.71,5.17,5.17,0,0,1-2-2,6.8,6.8,0,0,1,0-6.13,5.11,5.11,0,0,1,2-2,5.81,5.81,0,0,1,2.89-.71A4.29,4.29,0,0,1,309,54.7V49.22Zm-4,12.21a3.58,3.58,0,0,0,0-4.56,2.75,2.75,0,0,0-2.05-.85,2.78,2.78,0,0,0-2.08.85,3.58,3.58,0,0,0,0,4.56,2.74,2.74,0,0,0,2.08.85A2.71,2.71,0,0,0,308.26,61.43Z"/><path class="cls-3" d="M330.86,64.8,328,60.71h-3.13V64.8h-3.4V50.1h6.37a8.23,8.23,0,0,1,3.39.65,5,5,0,0,1,2.21,1.85,5.08,5.08,0,0,1,.78,2.84,4.94,4.94,0,0,1-.79,2.82,5,5,0,0,1-2.23,1.82l3.29,4.72ZM330,53.53a3.58,3.58,0,0,0-2.33-.66h-2.78V58h2.78a3.58,3.58,0,0,0,2.33-.67,2.66,2.66,0,0,0,0-3.8Z"/><path class="cls-3" d="M347.7,60.08h-8.55a2.69,2.69,0,0,0,1.1,1.66,3.63,3.63,0,0,0,2.14.6,4.18,4.18,0,0,0,1.56-.26,3.62,3.62,0,0,0,1.27-.83L347,63.14A5.87,5.87,0,0,1,342.3,65a7.35,7.35,0,0,1-3.38-.75,5.47,5.47,0,0,1-2.27-2.06,5.76,5.76,0,0,1-.79-3,5.83,5.83,0,0,1,.78-3,5.57,5.57,0,0,1,2.17-2.08,6.74,6.74,0,0,1,6.08,0A5.27,5.27,0,0,1,347,56.1a6.1,6.1,0,0,1,.76,3.09C347.76,59.24,347.74,59.53,347.7,60.08ZM340,56.44a2.67,2.67,0,0,0-.93,1.73h5.57a2.74,2.74,0,0,0-.93-1.72,3,3,0,0,0-3.71,0Z"/><path class="cls-3" d="M361.46,49.22V64.8h-3.13V63.5A4.33,4.33,0,0,1,354.8,65a5.92,5.92,0,0,1-2.89-.71,5.17,5.17,0,0,1-2-2,6.8,6.8,0,0,1,0-6.13,5.11,5.11,0,0,1,2-2,5.81,5.81,0,0,1,2.89-.71,4.29,4.29,0,0,1,3.38,1.36V49.22Zm-4,12.21a3.58,3.58,0,0,0,0-4.56,2.75,2.75,0,0,0-2.05-.85,2.78,2.78,0,0,0-2.08.85,3.58,3.58,0,0,0,0,4.56,2.74,2.74,0,0,0,2.08.85A2.71,2.71,0,0,0,357.42,61.43Z"/><path class="cls-3" d="M375.86,53.5V64.8h-3.11V63.46a4.32,4.32,0,0,1-1.55,1.12,5.35,5.35,0,0,1-5.48-.89,5.1,5.1,0,0,1-1.3-3.8V53.5h3.27v5.9c0,1.82.77,2.73,2.29,2.73a2.44,2.44,0,0,0,1.89-.76,3.22,3.22,0,0,0,.72-2.28V53.5Z"/><path class="cls-3" d="M381.12,64.22a5.45,5.45,0,0,1-2.24-2.06,5.68,5.68,0,0,1-.81-3,5.62,5.62,0,0,1,.81-3,5.54,5.54,0,0,1,2.24-2.07,6.92,6.92,0,0,1,3.25-.74,6.26,6.26,0,0,1,3.12.74,4.51,4.51,0,0,1,1.94,2.13l-2.54,1.37A2.78,2.78,0,0,0,384.35,56a2.89,2.89,0,0,0-2.13.84,3.54,3.54,0,0,0,0,4.58,2.89,2.89,0,0,0,2.13.84,2.76,2.76,0,0,0,2.54-1.55l2.54,1.38a4.53,4.53,0,0,1-1.94,2.1,6.16,6.16,0,0,1-3.12.76A6.92,6.92,0,0,1,381.12,64.22Z"/><path class="cls-3" d="M402.17,60.08h-8.54a2.63,2.63,0,0,0,1.09,1.66,3.65,3.65,0,0,0,2.14.6,4.27,4.27,0,0,0,1.57-.26,3.81,3.81,0,0,0,1.27-.83l1.74,1.89A5.85,5.85,0,0,1,396.78,65a7.32,7.32,0,0,1-3.38-.75,5.41,5.41,0,0,1-2.27-2.06,6.06,6.06,0,0,1,0-6,5.47,5.47,0,0,1,2.16-2.08,6.74,6.74,0,0,1,6.08,0,5.2,5.2,0,0,1,2.11,2.05,6.11,6.11,0,0,1,.77,3.09C402.24,59.24,402.22,59.53,402.17,60.08Zm-7.66-3.64a2.71,2.71,0,0,0-.93,1.73h5.57a2.73,2.73,0,0,0-.92-1.72,3,3,0,0,0-3.72,0Z"/><path class="cls-3" d="M415.93,49.22V64.8H412.8V63.5A4.32,4.32,0,0,1,409.27,65a6,6,0,0,1-2.89-.71,5.15,5.15,0,0,1-2-2,6.72,6.72,0,0,1,0-6.13,5.09,5.09,0,0,1,2-2,5.87,5.87,0,0,1,2.89-.71,4.29,4.29,0,0,1,3.38,1.36V49.22Zm-4,12.21a3.58,3.58,0,0,0,0-4.56,2.77,2.77,0,0,0-2.06-.85,2.8,2.8,0,0,0-2.08.85,3.58,3.58,0,0,0,0,4.56,2.76,2.76,0,0,0,2.08.85A2.73,2.73,0,0,0,411.9,61.43Z"/><path class="cls-3" d="M128.23,82.42h3.11v6a8.69,8.69,0,0,1-2.77,1.39,10.84,10.84,0,0,1-3.17.48,8.61,8.61,0,0,1-4.12-1,7.25,7.25,0,0,1-2.86-2.71,7.91,7.91,0,0,1,0-7.84A7.21,7.21,0,0,1,121.3,76a8.81,8.81,0,0,1,4.16-1,9.18,9.18,0,0,1,3.51.65,6.81,6.81,0,0,1,2.64,1.89l-2.18,2a5,5,0,0,0-3.8-1.66,5.1,5.1,0,0,0-2.5.59,4.22,4.22,0,0,0-1.7,1.65,4.88,4.88,0,0,0-.61,2.46,4.83,4.83,0,0,0,.61,2.44,4.37,4.37,0,0,0,1.69,1.67,5,5,0,0,0,2.47.6,5.48,5.48,0,0,0,2.64-.63Z"/><path class="cls-3" d="M139,79a5.86,5.86,0,0,1,2.3-.42v3l-.74,0a3,3,0,0,0-2.21.78,3.22,3.22,0,0,0-.79,2.37V90h-3.28V78.7h3.13v1.49A3.64,3.64,0,0,1,139,79Z"/><path class="cls-3" d="M154.13,85.28h-8.55a2.67,2.67,0,0,0,1.09,1.66,3.67,3.67,0,0,0,2.14.6,4.27,4.27,0,0,0,1.57-.26,3.71,3.71,0,0,0,1.27-.83l1.74,1.89a5.85,5.85,0,0,1-4.66,1.83,7.35,7.35,0,0,1-3.38-.75,5.41,5.41,0,0,1-2.27-2.06,6.06,6.06,0,0,1,0-6,5.54,5.54,0,0,1,2.16-2.08,6.35,6.35,0,0,1,3.08-.74,6.21,6.21,0,0,1,3,.71,5.2,5.2,0,0,1,2.11,2,6.11,6.11,0,0,1,.77,3.09S154.17,84.73,154.13,85.28Zm-7.67-3.64a2.7,2.7,0,0,0-.92,1.73h5.56a2.73,2.73,0,0,0-.92-1.72,2.81,2.81,0,0,0-1.85-.64A2.84,2.84,0,0,0,146.46,81.64Z"/><path class="cls-3" d="M167.38,85.28h-8.55a2.67,2.67,0,0,0,1.09,1.66,3.67,3.67,0,0,0,2.14.6,4.27,4.27,0,0,0,1.57-.26,3.71,3.71,0,0,0,1.27-.83l1.74,1.89A5.85,5.85,0,0,1,162,90.17a7.35,7.35,0,0,1-3.38-.75,5.41,5.41,0,0,1-2.27-2.06,5.76,5.76,0,0,1-.8-3,5.83,5.83,0,0,1,.79-3,5.61,5.61,0,0,1,2.16-2.08,6.35,6.35,0,0,1,3.08-.74,6.21,6.21,0,0,1,3,.71,5.2,5.2,0,0,1,2.11,2,6.11,6.11,0,0,1,.77,3.09S167.42,84.73,167.38,85.28Zm-7.67-3.64a2.7,2.7,0,0,0-.92,1.73h5.56a2.73,2.73,0,0,0-.92-1.72,2.79,2.79,0,0,0-1.85-.64A2.84,2.84,0,0,0,159.71,81.64Z"/><path class="cls-3" d="M179.88,79.8a5,5,0,0,1,1.29,3.73V90H177.9V84a3,3,0,0,0-.59-2,2.16,2.16,0,0,0-1.7-.66,2.58,2.58,0,0,0-2,.77,3.17,3.17,0,0,0-.74,2.28V90h-3.28V78.7h3.13V80a4.42,4.42,0,0,1,1.62-1.11,5.79,5.79,0,0,1,2.12-.38A4.64,4.64,0,0,1,179.88,79.8Z"/><path class="cls-3" d="M194.39,79.8a5,5,0,0,1,1.3,3.73V90h-3.28V84a3,3,0,0,0-.59-2,2.16,2.16,0,0,0-1.7-.66,2.6,2.6,0,0,0-2,.77,3.17,3.17,0,0,0-.74,2.28V90h-3.27V74.42h3.27v5.46a4.44,4.44,0,0,1,1.58-1,5.69,5.69,0,0,1,2-.34A4.64,4.64,0,0,1,194.39,79.8Z"/><path class="cls-3" d="M201,89.42a5.46,5.46,0,0,1-2.22-2.06,5.76,5.76,0,0,1-.8-3,5.7,5.7,0,0,1,.8-3A5.55,5.55,0,0,1,201,79.28a7.27,7.27,0,0,1,6.39,0,5.54,5.54,0,0,1,3,5.07,5.76,5.76,0,0,1-.79,3,5.56,5.56,0,0,1-2.21,2.06,7.18,7.18,0,0,1-6.39,0Zm5.27-2.79a3.61,3.61,0,0,0,0-4.56,2.76,2.76,0,0,0-2.07-.85,2.8,2.8,0,0,0-2.08.85,3.58,3.58,0,0,0,0,4.56,2.76,2.76,0,0,0,2.08.85A2.72,2.72,0,0,0,206.22,86.63Z"/><path class="cls-3" d="M223.91,78.7V90H220.8V88.66a4.32,4.32,0,0,1-1.55,1.12,4.9,4.9,0,0,1-2,.39,4.8,4.8,0,0,1-3.52-1.28,5.11,5.11,0,0,1-1.31-3.8V78.7h3.28v5.9c0,1.82.76,2.73,2.29,2.73a2.47,2.47,0,0,0,1.89-.76,3.21,3.21,0,0,0,.71-2.28V78.7Z"/><path class="cls-3" d="M228,89.82a7.19,7.19,0,0,1-2.14-.87L227,86.6a7.36,7.36,0,0,0,1.83.79,7.83,7.83,0,0,0,2.1.3c1.39,0,2.08-.34,2.08-1a.73.73,0,0,0-.57-.69,8.4,8.4,0,0,0-1.74-.36,17.27,17.27,0,0,1-2.29-.48,3.46,3.46,0,0,1-1.56-1,2.74,2.74,0,0,1-.66-2,3.1,3.1,0,0,1,.61-1.9A4.08,4.08,0,0,1,228.56,79a7.68,7.68,0,0,1,2.8-.46,10.74,10.74,0,0,1,2.39.26,6.48,6.48,0,0,1,2,.72l-1.09,2.33a6.54,6.54,0,0,0-3.26-.84,3.23,3.23,0,0,0-1.57.3.86.86,0,0,0-.53.75.76.76,0,0,0,.57.74,10.4,10.4,0,0,0,1.81.4,20,20,0,0,1,2.27.49,3.46,3.46,0,0,1,1.53,1,2.71,2.71,0,0,1,.65,1.93,3,3,0,0,1-.63,1.87,4,4,0,0,1-1.84,1.27,8.18,8.18,0,0,1-2.86.45A11.11,11.11,0,0,1,228,89.82Z"/><path class="cls-3" d="M249.11,85.28h-8.55a2.71,2.71,0,0,0,1.09,1.66,3.68,3.68,0,0,0,2.15.6,4.22,4.22,0,0,0,1.56-.26,3.62,3.62,0,0,0,1.27-.83l1.74,1.89a5.83,5.83,0,0,1-4.66,1.83,7.35,7.35,0,0,1-3.38-.75,5.41,5.41,0,0,1-2.27-2.06,5.76,5.76,0,0,1-.8-3,5.83,5.83,0,0,1,.79-3,5.61,5.61,0,0,1,2.16-2.08,6.35,6.35,0,0,1,3.08-.74,6.21,6.21,0,0,1,3,.71,5.29,5.29,0,0,1,2.12,2,6.1,6.1,0,0,1,.76,3.09S249.15,84.73,249.11,85.28Zm-7.67-3.64a2.7,2.7,0,0,0-.92,1.73h5.56a2.68,2.68,0,0,0-.92-1.72,2.79,2.79,0,0,0-1.85-.64A2.84,2.84,0,0,0,241.44,81.64Z"/><path class="cls-3" d="M267.46,82.42h3.11v6a8.69,8.69,0,0,1-2.77,1.39,10.84,10.84,0,0,1-3.17.48,8.61,8.61,0,0,1-4.12-1,7.25,7.25,0,0,1-2.86-2.71,7.91,7.91,0,0,1,0-7.84,7.21,7.21,0,0,1,2.88-2.7,8.78,8.78,0,0,1,4.16-1,9.18,9.18,0,0,1,3.51.65,6.81,6.81,0,0,1,2.64,1.89l-2.18,2a5,5,0,0,0-3.8-1.66,5.1,5.1,0,0,0-2.5.59,4.22,4.22,0,0,0-1.7,1.65,4.88,4.88,0,0,0-.61,2.46,4.83,4.83,0,0,0,.61,2.44,4.37,4.37,0,0,0,1.69,1.67,5,5,0,0,0,2.47.6,5.48,5.48,0,0,0,2.64-.63Z"/><path class="cls-3" d="M282.08,79.78a4.79,4.79,0,0,1,1.41,3.77V90h-3.07V88.59A3.65,3.65,0,0,1,277,90.17a5.39,5.39,0,0,1-2.26-.44,3.35,3.35,0,0,1-1.46-1.22,3.15,3.15,0,0,1-.51-1.76,3,3,0,0,1,1.19-2.48,6.06,6.06,0,0,1,3.67-.9h2.6a2.09,2.09,0,0,0-.65-1.65,2.86,2.86,0,0,0-1.95-.58,5.66,5.66,0,0,0-1.78.28,4.82,4.82,0,0,0-1.48.77l-1.18-2.29a7.32,7.32,0,0,1,2.22-1,9.86,9.86,0,0,1,2.66-.35A5.89,5.89,0,0,1,282.08,79.78Zm-2.79,7.8a2.12,2.12,0,0,0,.92-1.15V85.28H278q-2,0-2,1.32a1.18,1.18,0,0,0,.49,1,2.25,2.25,0,0,0,1.35.36A2.89,2.89,0,0,0,279.29,87.58Z"/><path class="cls-3" d="M287.5,89.82a7.26,7.26,0,0,1-2.15-.87l1.1-2.35a7.12,7.12,0,0,0,1.82.79,7.83,7.83,0,0,0,2.1.3c1.39,0,2.08-.34,2.08-1a.73.73,0,0,0-.56-.69,8.52,8.52,0,0,0-1.75-.36,17.62,17.62,0,0,1-2.29-.48,3.46,3.46,0,0,1-1.56-1,2.74,2.74,0,0,1-.66-2,3,3,0,0,1,.62-1.9,4,4,0,0,1,1.8-1.29,7.7,7.7,0,0,1,2.81-.46,10.71,10.71,0,0,1,2.38.26,6.38,6.38,0,0,1,2,.72l-1.09,2.33a6.51,6.51,0,0,0-3.25-.84,3.28,3.28,0,0,0-1.58.3.85.85,0,0,0-.52.75.76.76,0,0,0,.56.74,10.4,10.4,0,0,0,1.81.4,20,20,0,0,1,2.27.49,3.35,3.35,0,0,1,1.53,1,2.71,2.71,0,0,1,.65,1.93,3,3,0,0,1-.63,1.87,4,4,0,0,1-1.84,1.27,8.18,8.18,0,0,1-2.86.45A11,11,0,0,1,287.5,89.82Z"/><path class="cls-3" d="M315.15,87.27V90H303.77V75.3h11.11V78h-7.73v3.19H314v2.65h-6.83v3.4Z"/><path class="cls-3" d="M335.47,79.78a5.13,5.13,0,0,1,1.25,3.75V90h-3.28V84a3.07,3.07,0,0,0-.55-2,2,2,0,0,0-1.59-.66,2.3,2.3,0,0,0-1.82.75,3.18,3.18,0,0,0-.68,2.21V90h-3.27V84c0-1.78-.72-2.67-2.15-2.67a2.3,2.3,0,0,0-1.8.75,3.18,3.18,0,0,0-.67,2.21V90h-3.28V78.7h3.13V80a4.18,4.18,0,0,1,1.54-1.1,5.25,5.25,0,0,1,2-.37,4.76,4.76,0,0,1,2.16.47A3.82,3.82,0,0,1,328,80.38,4.63,4.63,0,0,1,329.78,79a5.57,5.57,0,0,1,2.32-.48A4.56,4.56,0,0,1,335.47,79.78Z"/><path class="cls-3" d="M339.83,76.6a1.77,1.77,0,0,1,0-2.6,2.09,2.09,0,0,1,1.47-.53,2.12,2.12,0,0,1,1.47.51,1.59,1.59,0,0,1,.56,1.26,1.76,1.76,0,0,1-.56,1.35,2.05,2.05,0,0,1-1.47.54A2.09,2.09,0,0,1,339.83,76.6Zm-.17,2.1h3.28V90h-3.28Z"/><path class="cls-3" d="M347,89.82a7.08,7.08,0,0,1-2.14-.87L346,86.6a7,7,0,0,0,1.83.79,7.72,7.72,0,0,0,2.1.3c1.38,0,2.08-.34,2.08-1a.73.73,0,0,0-.57-.69,8.55,8.55,0,0,0-1.74-.36,16.93,16.93,0,0,1-2.29-.48,3.49,3.49,0,0,1-1.57-1,2.74,2.74,0,0,1-.66-2,3.11,3.11,0,0,1,.62-1.9A4,4,0,0,1,347.59,79a7.64,7.64,0,0,1,2.8-.46,10.65,10.65,0,0,1,2.38.26,6.45,6.45,0,0,1,2,.72l-1.09,2.33a6.54,6.54,0,0,0-3.26-.84,3.23,3.23,0,0,0-1.57.3.86.86,0,0,0-.53.75.76.76,0,0,0,.57.74,10.47,10.47,0,0,0,1.8.4,19.49,19.49,0,0,1,2.27.49,3.35,3.35,0,0,1,1.53,1,2.67,2.67,0,0,1,.66,1.93,3,3,0,0,1-.63,1.87,4.09,4.09,0,0,1-1.84,1.27,8.24,8.24,0,0,1-2.87.45A11,11,0,0,1,347,89.82Z"/><path class="cls-3" d="M358.18,89.82A7.19,7.19,0,0,1,356,89l1.09-2.35a7,7,0,0,0,1.83.79,7.72,7.72,0,0,0,2.1.3c1.38,0,2.08-.34,2.08-1a.73.73,0,0,0-.57-.69,8.55,8.55,0,0,0-1.74-.36,16.93,16.93,0,0,1-2.29-.48,3.55,3.55,0,0,1-1.57-1,2.74,2.74,0,0,1-.66-2,3.11,3.11,0,0,1,.62-1.9A4,4,0,0,1,358.74,79a7.64,7.64,0,0,1,2.8-.46,10.65,10.65,0,0,1,2.38.26,6.45,6.45,0,0,1,2,.72l-1.09,2.33a6.54,6.54,0,0,0-3.26-.84,3.23,3.23,0,0,0-1.57.3.86.86,0,0,0-.53.75.76.76,0,0,0,.57.74,10.47,10.47,0,0,0,1.8.4,19.49,19.49,0,0,1,2.27.49,3.43,3.43,0,0,1,1.54,1,2.71,2.71,0,0,1,.65,1.93,3,3,0,0,1-.63,1.87,4.09,4.09,0,0,1-1.84,1.27,8.24,8.24,0,0,1-2.87.45A11,11,0,0,1,358.18,89.82Z"/><path class="cls-3" d="M368.45,76.6a1.77,1.77,0,0,1,0-2.6,2.09,2.09,0,0,1,1.47-.53,2.12,2.12,0,0,1,1.47.51,1.6,1.6,0,0,1,.57,1.26,1.77,1.77,0,0,1-.57,1.35,2.05,2.05,0,0,1-1.47.54A2.09,2.09,0,0,1,368.45,76.6Zm-.17,2.1h3.28V90h-3.28Z"/><path class="cls-3" d="M376.78,89.42a5.46,5.46,0,0,1-2.22-2.06,5.76,5.76,0,0,1-.8-3,5.7,5.7,0,0,1,.8-3,5.55,5.55,0,0,1,2.22-2.07,7.27,7.27,0,0,1,6.39,0,5.54,5.54,0,0,1,3,5.07,5.76,5.76,0,0,1-.79,3,5.56,5.56,0,0,1-2.21,2.06,7.18,7.18,0,0,1-6.39,0Zm5.27-2.79a3.61,3.61,0,0,0,0-4.56,2.76,2.76,0,0,0-2.07-.85,2.8,2.8,0,0,0-2.08.85,3.58,3.58,0,0,0,0,4.56,2.76,2.76,0,0,0,2.08.85A2.72,2.72,0,0,0,382.05,86.63Z"/><path class="cls-3" d="M398.62,79.8a5,5,0,0,1,1.29,3.73V90h-3.28V84a2.91,2.91,0,0,0-.59-2,2.16,2.16,0,0,0-1.7-.66,2.61,2.61,0,0,0-2,.77,3.17,3.17,0,0,0-.74,2.28V90h-3.27V78.7h3.13V80a4.3,4.3,0,0,1,1.61-1.11,5.87,5.87,0,0,1,2.12-.38A4.68,4.68,0,0,1,398.62,79.8Z"/><path class="cls-3" d="M403.92,89.82a7.08,7.08,0,0,1-2.14-.87l1.09-2.35a7,7,0,0,0,1.83.79,7.72,7.72,0,0,0,2.1.3c1.38,0,2.08-.34,2.08-1a.73.73,0,0,0-.57-.69,8.55,8.55,0,0,0-1.74-.36,16.93,16.93,0,0,1-2.29-.48,3.44,3.44,0,0,1-1.57-1,2.74,2.74,0,0,1-.66-2,3.11,3.11,0,0,1,.62-1.9A4,4,0,0,1,404.48,79a7.64,7.64,0,0,1,2.8-.46,10.65,10.65,0,0,1,2.38.26,6.55,6.55,0,0,1,2,.72l-1.1,2.33a6.48,6.48,0,0,0-3.25-.84,3.28,3.28,0,0,0-1.58.3.85.85,0,0,0-.52.75.76.76,0,0,0,.57.74,10.24,10.24,0,0,0,1.8.4,19.49,19.49,0,0,1,2.27.49,3.35,3.35,0,0,1,1.53,1,2.67,2.67,0,0,1,.65,1.93,3,3,0,0,1-.63,1.87,4.06,4.06,0,0,1-1.83,1.27,8.24,8.24,0,0,1-2.87.45A11,11,0,0,1,403.92,89.82Z"/></svg>