<svg id="Layer_1" data-name="Layer 1" xmlns="http://www.w3.org/2000/svg" viewBox="0 0 474.47 113.33"><defs><style>.cls-1{fill:#fff;}.cls-2{fill:#48773c;}.cls-3{fill:#19486a;}</style></defs><rect class="cls-1" width="474.47" height="113.33"/><polygon class="cls-2" points="0 113.33 0 0 113.33 0 0 113.33"/><path class="cls-1" d="M40.93,29.91a7.69,7.69,0,0,1,3.13,2.76,7.38,7.38,0,0,1,1.15,4.12A7.87,7.87,0,0,1,44,41.22a8.15,8.15,0,0,1-3.44,2.93,11.25,11.25,0,0,1-4.84,1,10.7,10.7,0,0,1-8.28-3.24q-3-3.24-3-9.26A15.51,15.51,0,0,1,26,25.34a11,11,0,0,1,4.52-4.64,13.74,13.74,0,0,1,6.72-1.59,16.4,16.4,0,0,1,3.87.45,10.54,10.54,0,0,1,3.15,1.28l-2.16,4.28a8.28,8.28,0,0,0-4.72-1.26,6.86,6.86,0,0,0-5.08,1.88,7.82,7.82,0,0,0-2,5.43,8.41,8.41,0,0,1,6.23-2.23A9.82,9.82,0,0,1,40.93,29.91Zm-2.54,9.9a3.41,3.41,0,0,0,1.17-2.73,3.49,3.49,0,0,0-1.17-2.76,4.57,4.57,0,0,0-3.11-1,4.61,4.61,0,0,0-3.14,1.06,3.65,3.65,0,0,0,0,5.42,4.76,4.76,0,0,0,3.24,1A4.5,4.5,0,0,0,38.39,39.81Z"/><path class="cls-3" d="M120.8,22.8h3.41V34.72h7.37V37.5H120.8Z"/><path class="cls-3" d="M142,27.28a4.77,4.77,0,0,1,1.41,3.77V37.5h-3.07V36.09c-.61,1-1.76,1.57-3.44,1.57a5.27,5.27,0,0,1-2.26-.44A3.34,3.34,0,0,1,133.15,36a3.18,3.18,0,0,1-.5-1.76,2.94,2.94,0,0,1,1.18-2.48,6.08,6.08,0,0,1,3.67-.9h2.6a2.08,2.08,0,0,0-.65-1.65,2.87,2.87,0,0,0-1.95-.58,5.77,5.77,0,0,0-1.78.29,4.8,4.8,0,0,0-1.48.76l-1.17-2.29a6.92,6.92,0,0,1,2.21-1,9.87,9.87,0,0,1,2.66-.36A5.89,5.89,0,0,1,142,27.28Zm-2.79,7.79a2.14,2.14,0,0,0,.92-1.14V32.77h-2.24c-1.35,0-2,.44-2,1.32a1.17,1.17,0,0,0,.49,1,2.2,2.2,0,0,0,1.36.37A2.86,2.86,0,0,0,139.18,35.07Z"/><path class="cls-3" d="M156.6,27.29A5,5,0,0,1,157.89,31V37.5h-3.28v-6a3,3,0,0,0-.58-2,2.15,2.15,0,0,0-1.71-.67,2.61,2.61,0,0,0-2,.77,3.17,3.17,0,0,0-.73,2.28V37.5h-3.28V26.2h3.13v1.32a4.24,4.24,0,0,1,1.62-1.1,5.59,5.59,0,0,1,2.12-.39A4.64,4.64,0,0,1,156.6,27.29Z"/><path class="cls-3" d="M172.48,21.91V37.5h-3.12V36.19a4.33,4.33,0,0,1-3.53,1.47,5.81,5.81,0,0,1-2.89-.71,5.17,5.17,0,0,1-2-2,6.8,6.8,0,0,1,0-6.13,5.17,5.17,0,0,1,2-2,5.92,5.92,0,0,1,2.89-.71,4.29,4.29,0,0,1,3.38,1.36V21.91Zm-4,12.21a3.1,3.1,0,0,0,.82-2.27,3.11,3.11,0,0,0-.82-2.28,2.93,2.93,0,0,0-4.13,0,3.11,3.11,0,0,0-.82,2.28,3.1,3.1,0,0,0,.82,2.27,2.91,2.91,0,0,0,4.13,0Z"/><path class="cls-3" d="M190,27.28a4.77,4.77,0,0,1,1.41,3.77V37.5h-3.07V36.09c-.61,1-1.76,1.57-3.44,1.57a5.27,5.27,0,0,1-2.26-.44A3.34,3.34,0,0,1,181.22,36a3.1,3.1,0,0,1-.5-1.76,2.94,2.94,0,0,1,1.18-2.48,6.06,6.06,0,0,1,3.67-.9h2.6a2.12,2.12,0,0,0-.65-1.65,2.87,2.87,0,0,0-2-.58,5.72,5.72,0,0,0-1.78.29,4.8,4.8,0,0,0-1.48.76l-1.17-2.29a6.92,6.92,0,0,1,2.21-1A9.87,9.87,0,0,1,186,26,5.89,5.89,0,0,1,190,27.28Zm-2.79,7.79a2.14,2.14,0,0,0,.92-1.14V32.77h-2.25q-2,0-2,1.32a1.17,1.17,0,0,0,.49,1,2.2,2.2,0,0,0,1.36.37A2.86,2.86,0,0,0,187.25,35.07Z"/><path class="cls-3" d="M204.67,27.29A5,5,0,0,1,206,31V37.5h-3.28v-6a2.9,2.9,0,0,0-.59-2,2.12,2.12,0,0,0-1.7-.67,2.61,2.61,0,0,0-2,.77,3.17,3.17,0,0,0-.74,2.28V37.5h-3.27V26.2h3.13v1.32a4.28,4.28,0,0,1,1.61-1.1,5.68,5.68,0,0,1,2.13-.39A4.66,4.66,0,0,1,204.67,27.29Z"/><path class="cls-3" d="M220.55,21.91V37.5h-3.13V36.19a4.3,4.3,0,0,1-3.52,1.47A5.81,5.81,0,0,1,211,37a5.17,5.17,0,0,1-2-2,6.8,6.8,0,0,1,0-6.13,5.17,5.17,0,0,1,2-2A5.92,5.92,0,0,1,213.9,26a4.31,4.31,0,0,1,3.38,1.36V21.91Zm-4,12.21a3.1,3.1,0,0,0,.82-2.27,3.11,3.11,0,0,0-.82-2.28,2.72,2.72,0,0,0-2.06-.85,2.76,2.76,0,0,0-2.08.85,3.15,3.15,0,0,0-.81,2.28,3.14,3.14,0,0,0,.81,2.27,2.77,2.77,0,0,0,2.08.86A2.72,2.72,0,0,0,216.52,34.12Z"/><path class="cls-3" d="M243.13,37.5l0-8.82-4.33,7.26h-1.53l-4.31-7.08V37.5h-3.19V22.8h2.81l5.51,9.13,5.41-9.13h2.8l0,14.7Z"/><path class="cls-3" d="M258.16,27.28a4.77,4.77,0,0,1,1.41,3.77V37.5H256.5V36.09c-.61,1-1.76,1.57-3.44,1.57a5.27,5.27,0,0,1-2.26-.44A3.39,3.39,0,0,1,249.34,36a3.18,3.18,0,0,1-.5-1.76A3,3,0,0,1,250,31.76a6,6,0,0,1,3.66-.9h2.6a2.08,2.08,0,0,0-.65-1.65,2.87,2.87,0,0,0-1.95-.58,5.66,5.66,0,0,0-1.77.29,4.58,4.58,0,0,0-1.48.76l-1.18-2.29a6.92,6.92,0,0,1,2.21-1,9.92,9.92,0,0,1,2.66-.36A5.88,5.88,0,0,1,258.16,27.28Zm-2.79,7.79a2.14,2.14,0,0,0,.92-1.14V32.77h-2.24c-1.35,0-2,.44-2,1.32a1.18,1.18,0,0,0,.5,1,2.17,2.17,0,0,0,1.35.37A2.83,2.83,0,0,0,255.37,35.07Z"/><path class="cls-3" d="M267.24,26.45a5.93,5.93,0,0,1,2.3-.42v3l-.73,0a3,3,0,0,0-2.21.79,3.17,3.17,0,0,0-.79,2.36V37.5h-3.28V26.2h3.13v1.49A3.62,3.62,0,0,1,267.24,26.45Z"/><path class="cls-3" d="M271.67,24.1a1.78,1.78,0,0,1,0-2.61,2,2,0,0,1,1.47-.52,2.16,2.16,0,0,1,1.47.5,1.65,1.65,0,0,1,.56,1.26,1.82,1.82,0,0,1-.56,1.36,2.09,2.09,0,0,1-1.47.53A2,2,0,0,1,271.67,24.1Zm-.17,2.1h3.27V37.5H271.5Z"/><path class="cls-3" d="M288.08,27.29A5,5,0,0,1,289.37,31V37.5h-3.28v-6a2.9,2.9,0,0,0-.59-2,2.12,2.12,0,0,0-1.7-.67,2.61,2.61,0,0,0-2,.77,3.17,3.17,0,0,0-.74,2.28V37.5h-3.27V26.2H281v1.32a4.28,4.28,0,0,1,1.61-1.1,5.68,5.68,0,0,1,2.13-.39A4.66,4.66,0,0,1,288.08,27.29Z"/><path class="cls-3" d="M303.46,32.77h-8.55A2.71,2.71,0,0,0,296,34.43a3.61,3.61,0,0,0,2.15.61,4.44,4.44,0,0,0,1.56-.26A3.92,3.92,0,0,0,301,34l1.74,1.89a5.86,5.86,0,0,1-4.66,1.82,7.34,7.34,0,0,1-3.38-.74,5.49,5.49,0,0,1-2.27-2.07,5.7,5.7,0,0,1-.8-3,5.84,5.84,0,0,1,.79-3,5.54,5.54,0,0,1,2.17-2.07,6.29,6.29,0,0,1,3.07-.75,6.4,6.4,0,0,1,3,.71,5.33,5.33,0,0,1,2.11,2.05,6.11,6.11,0,0,1,.76,3.1S303.5,32.22,303.46,32.77Zm-7.67-3.63a2.68,2.68,0,0,0-.92,1.72h5.57a2.7,2.7,0,0,0-2.78-2.35A2.84,2.84,0,0,0,295.79,29.14Z"/><path class="cls-3" d="M132.19,60V62.7H120.8V48h11.11v2.73h-7.72v3.19H131v2.64h-6.82V60Z"/><path class="cls-3" d="M136.8,62.12A5.81,5.81,0,0,1,134.55,54,5.54,5.54,0,0,1,136.8,52a6.88,6.88,0,0,1,3.24-.75,6.26,6.26,0,0,1,3.12.75,4.37,4.37,0,0,1,1.94,2.13l-2.54,1.36A2.79,2.79,0,0,0,140,53.92a2.86,2.86,0,0,0-2.12.84,3.54,3.54,0,0,0,0,4.58,2.86,2.86,0,0,0,2.12.84,2.74,2.74,0,0,0,2.54-1.56L145.1,60a4.58,4.58,0,0,1-1.94,2.1,6.26,6.26,0,0,1-3.12.75A6.87,6.87,0,0,1,136.8,62.12Z"/><path class="cls-3" d="M149,62.12a5.55,5.55,0,0,1-2.22-2.07,5.7,5.7,0,0,1-.8-3,5.76,5.76,0,0,1,.8-3A5.46,5.46,0,0,1,149,52a7.18,7.18,0,0,1,6.39,0A5.56,5.56,0,0,1,157.62,54a5.76,5.76,0,0,1,.79,3,5.54,5.54,0,0,1-3,5.07,7.27,7.27,0,0,1-6.39,0Zm5.27-2.79a3.18,3.18,0,0,0,.81-2.28,3.15,3.15,0,0,0-.81-2.28,2.72,2.72,0,0,0-2.07-.85,2.76,2.76,0,0,0-2.08.85,3.11,3.11,0,0,0-.82,2.28,3.14,3.14,0,0,0,.82,2.28,2.8,2.8,0,0,0,2.08.85A2.76,2.76,0,0,0,154.29,59.33Z"/><path class="cls-3" d="M161.65,62.52a7.08,7.08,0,0,1-2.14-.87l1.09-2.36a6.43,6.43,0,0,0,1.83.79,7.74,7.74,0,0,0,2.1.31c1.38,0,2.07-.35,2.07-1a.72.72,0,0,0-.56-.7,8,8,0,0,0-1.75-.35,15.49,15.49,0,0,1-2.28-.49,3.51,3.51,0,0,1-1.57-1,2.75,2.75,0,0,1-.66-2,3.13,3.13,0,0,1,.62-1.9,4,4,0,0,1,1.8-1.29,7.74,7.74,0,0,1,2.81-.46,11.27,11.27,0,0,1,2.38.26,6.82,6.82,0,0,1,2,.73l-1.1,2.33a6.51,6.51,0,0,0-3.25-.84,3.42,3.42,0,0,0-1.58.29.87.87,0,0,0-.52.76.75.75,0,0,0,.57.73,9.4,9.4,0,0,0,1.8.4,21.82,21.82,0,0,1,2.27.49,3.44,3.44,0,0,1,1.53,1,2.69,2.69,0,0,1,.65,1.93,3,3,0,0,1-.63,1.87,4,4,0,0,1-1.83,1.27,8.24,8.24,0,0,1-2.87.45A11,11,0,0,1,161.65,62.52Z"/><path class="cls-3" d="M182.75,51.4l-5.1,12a5.93,5.93,0,0,1-1.92,2.75,4.71,4.71,0,0,1-2.76.8,5.46,5.46,0,0,1-1.74-.28,3.78,3.78,0,0,1-1.41-.75l1.2-2.33a2.72,2.72,0,0,0,.87.52,2.61,2.61,0,0,0,1,.19A1.76,1.76,0,0,0,174,64a2.65,2.65,0,0,0,.76-1.09l0-.1L169.86,51.4h3.38l3.17,7.66,3.19-7.66Z"/><path class="cls-3" d="M185,62.52a7.08,7.08,0,0,1-2.14-.87l1.09-2.36a6.43,6.43,0,0,0,1.83.79,7.74,7.74,0,0,0,2.1.31c1.38,0,2.08-.35,2.08-1a.73.73,0,0,0-.57-.7,8,8,0,0,0-1.74-.35,15.37,15.37,0,0,1-2.29-.49,3.51,3.51,0,0,1-1.57-1,2.75,2.75,0,0,1-.66-2,3.13,3.13,0,0,1,.62-1.9,4,4,0,0,1,1.81-1.29,7.64,7.64,0,0,1,2.8-.46,11.27,11.27,0,0,1,2.38.26,6.82,6.82,0,0,1,2,.73l-1.1,2.33a6.48,6.48,0,0,0-3.25-.84,3.42,3.42,0,0,0-1.58.29.87.87,0,0,0-.52.76.75.75,0,0,0,.57.73,9.4,9.4,0,0,0,1.8.4,21.82,21.82,0,0,1,2.27.49,3.44,3.44,0,0,1,1.53,1,2.69,2.69,0,0,1,.66,1.93,3,3,0,0,1-.64,1.87,4,4,0,0,1-1.83,1.27,8.24,8.24,0,0,1-2.87.45A11,11,0,0,1,185,62.52Z"/><path class="cls-3" d="M202.37,62.15a3.35,3.35,0,0,1-1.19.54,6.45,6.45,0,0,1-1.48.17,4.4,4.4,0,0,1-3.12-1,3.94,3.94,0,0,1-1.1-3V54.17h-1.74V51.65h1.74V48.9h3.28v2.75h2.81v2.52h-2.81v4.6a1.57,1.57,0,0,0,.36,1.1,1.36,1.36,0,0,0,1,.39,2.13,2.13,0,0,0,1.33-.42Z"/><path class="cls-3" d="M214.86,58h-8.54a2.63,2.63,0,0,0,1.09,1.66,3.56,3.56,0,0,0,2.14.61,4.4,4.4,0,0,0,1.56-.26,3.92,3.92,0,0,0,1.27-.83L214.13,61a5.89,5.89,0,0,1-4.66,1.82,7.36,7.36,0,0,1-3.39-.74,5.47,5.47,0,0,1-2.26-2.07,5.61,5.61,0,0,1-.8-3,5.75,5.75,0,0,1,.79-3A5.45,5.45,0,0,1,206,52a6.7,6.7,0,0,1,6.08,0A5.27,5.27,0,0,1,214.16,54a6.12,6.12,0,0,1,.77,3.1S214.9,57.42,214.86,58Zm-7.66-3.63a2.69,2.69,0,0,0-.93,1.72h5.57a2.69,2.69,0,0,0-.93-1.71,2.73,2.73,0,0,0-1.84-.64A2.8,2.8,0,0,0,207.2,54.34Z"/><path class="cls-3" d="M235,52.48a5.1,5.1,0,0,1,1.25,3.75V62.7h-3.28v-6a3.06,3.06,0,0,0-.55-2,2,2,0,0,0-1.59-.67,2.34,2.34,0,0,0-1.83.75,3.27,3.27,0,0,0-.67,2.22V62.7H225v-6c0-1.78-.72-2.67-2.15-2.67a2.3,2.3,0,0,0-1.8.75,3.22,3.22,0,0,0-.67,2.22V62.7h-3.28V51.4h3.13v1.3a4,4,0,0,1,1.54-1.09,5.25,5.25,0,0,1,2-.38,4.89,4.89,0,0,1,2.16.47,3.9,3.9,0,0,1,1.55,1.38,4.67,4.67,0,0,1,1.76-1.37,5.54,5.54,0,0,1,2.32-.48A4.57,4.57,0,0,1,235,52.48Z"/><path class="cls-3" d="M240.19,62.52a7.08,7.08,0,0,1-2.14-.87l1.09-2.36a6.43,6.43,0,0,0,1.83.79,7.74,7.74,0,0,0,2.1.31c1.38,0,2.07-.35,2.07-1a.72.72,0,0,0-.56-.7,8,8,0,0,0-1.75-.35,15.49,15.49,0,0,1-2.28-.49,3.51,3.51,0,0,1-1.57-1,2.75,2.75,0,0,1-.66-2,3.13,3.13,0,0,1,.62-1.9,4,4,0,0,1,1.8-1.29,7.74,7.74,0,0,1,2.81-.46,11.27,11.27,0,0,1,2.38.26,6.82,6.82,0,0,1,2,.73l-1.1,2.33a6.51,6.51,0,0,0-3.25-.84A3.42,3.42,0,0,0,242,54a.87.87,0,0,0-.52.76.75.75,0,0,0,.57.73,9.4,9.4,0,0,0,1.8.4,21.82,21.82,0,0,1,2.27.49,3.44,3.44,0,0,1,1.53,1,2.69,2.69,0,0,1,.65,1.93,3,3,0,0,1-.63,1.87,4,4,0,0,1-1.83,1.27,8.24,8.24,0,0,1-2.87.45A11,11,0,0,1,240.19,62.52Z"/><path class="cls-3" d="M253,59.35a1.94,1.94,0,0,1,.57,1.46,3.46,3.46,0,0,1-.11.84,9.13,9.13,0,0,1-.46,1.26l-1.2,3h-2.08l.93-3.34a1.74,1.74,0,0,1-.83-.68,1.94,1.94,0,0,1-.31-1.1,1.91,1.91,0,0,1,.58-1.46,2,2,0,0,1,1.46-.56A2,2,0,0,1,253,59.35Z"/><path class="cls-3" d="M275.45,48V62.7h-3.4v-6h-6.68v6H262V48h3.4v5.79h6.68V48Z"/><path class="cls-3" d="M287.29,52.48a4.77,4.77,0,0,1,1.41,3.77V62.7h-3.07V61.29c-.61,1.05-1.76,1.57-3.44,1.57a5.27,5.27,0,0,1-2.26-.44,3.34,3.34,0,0,1-1.46-1.22,3.18,3.18,0,0,1-.5-1.76A2.94,2.94,0,0,1,279.15,57a6.08,6.08,0,0,1,3.67-.9h2.6a2.12,2.12,0,0,0-.65-1.65,2.87,2.87,0,0,0-1.95-.58,5.72,5.72,0,0,0-1.78.29,4.8,4.8,0,0,0-1.48.76l-1.17-2.29a6.92,6.92,0,0,1,2.21-1,9.87,9.87,0,0,1,2.66-.36A5.89,5.89,0,0,1,287.29,52.48Zm-2.79,7.79a2.14,2.14,0,0,0,.92-1.14V58h-2.24c-1.35,0-2,.44-2,1.32a1.17,1.17,0,0,0,.49,1,2.2,2.2,0,0,0,1.36.37A2.86,2.86,0,0,0,284.5,60.27Z"/><path class="cls-3" d="M301.2,52a5.24,5.24,0,0,1,2,2,6.68,6.68,0,0,1,0,6.11,5.11,5.11,0,0,1-2,2,5.76,5.76,0,0,1-2.86.72,4.34,4.34,0,0,1-3.55-1.47V62.7h-3.13V47.11h3.28v5.48a4.35,4.35,0,0,1,3.4-1.36A5.76,5.76,0,0,1,301.2,52Zm-1.36,7.38a3.18,3.18,0,0,0,.81-2.28,3.15,3.15,0,0,0-.81-2.28,2.95,2.95,0,0,0-4.14,0,3.15,3.15,0,0,0-.81,2.28,3.18,3.18,0,0,0,.81,2.28,2.95,2.95,0,0,0,4.14,0Z"/><path class="cls-3" d="M306.32,49.3a1.78,1.78,0,0,1,0-2.61,2,2,0,0,1,1.47-.52,2.16,2.16,0,0,1,1.47.5,1.65,1.65,0,0,1,.56,1.26,1.82,1.82,0,0,1-.56,1.36,2.09,2.09,0,0,1-1.47.53A2,2,0,0,1,306.32,49.3Zm-.17,2.1h3.27V62.7h-3.27Z"/><path class="cls-3" d="M319.76,62.15a3.43,3.43,0,0,1-1.19.54,6.45,6.45,0,0,1-1.48.17,4.4,4.4,0,0,1-3.12-1,3.94,3.94,0,0,1-1.1-3V54.17h-1.74V51.65h1.74V48.9h3.27v2.75H319v2.52h-2.82v4.6a1.57,1.57,0,0,0,.37,1.1,1.36,1.36,0,0,0,1,.39,2.08,2.08,0,0,0,1.32-.42Z"/><path class="cls-3" d="M330.19,52.48a4.77,4.77,0,0,1,1.41,3.77V62.7h-3.07V61.29c-.61,1.05-1.76,1.57-3.44,1.57a5.27,5.27,0,0,1-2.26-.44,3.39,3.39,0,0,1-1.46-1.22,3.18,3.18,0,0,1-.5-1.76A3,3,0,0,1,322.06,57a6,6,0,0,1,3.66-.9h2.6a2.08,2.08,0,0,0-.65-1.65,2.87,2.87,0,0,0-1.95-.58,5.66,5.66,0,0,0-1.77.29,4.58,4.58,0,0,0-1.48.76l-1.18-2.29a6.92,6.92,0,0,1,2.21-1,9.92,9.92,0,0,1,2.66-.36A5.88,5.88,0,0,1,330.19,52.48Zm-2.79,7.79a2.14,2.14,0,0,0,.92-1.14V58h-2.24c-1.35,0-2,.44-2,1.32a1.18,1.18,0,0,0,.5,1,2.17,2.17,0,0,0,1.35.37A2.83,2.83,0,0,0,327.4,60.27Z"/><path class="cls-3" d="M341.85,62.15a3.35,3.35,0,0,1-1.19.54,6.45,6.45,0,0,1-1.48.17,4.4,4.4,0,0,1-3.12-1,3.94,3.94,0,0,1-1.1-3V54.17h-1.74V51.65H335V48.9h3.28v2.75h2.81v2.52h-2.81v4.6a1.57,1.57,0,0,0,.36,1.1,1.36,1.36,0,0,0,1,.39,2.13,2.13,0,0,0,1.33-.42Z"/><path class="cls-3" d="M344.75,62.52a7.26,7.26,0,0,1-2.15-.87l1.1-2.36a6.49,6.49,0,0,0,1.82.79,7.85,7.85,0,0,0,2.1.31c1.39,0,2.08-.35,2.08-1a.73.73,0,0,0-.56-.7,8,8,0,0,0-1.75-.35,15.65,15.65,0,0,1-2.29-.49,3.53,3.53,0,0,1-1.56-1,2.75,2.75,0,0,1-.66-2,3.07,3.07,0,0,1,.62-1.9,4,4,0,0,1,1.8-1.29,7.7,7.7,0,0,1,2.81-.46,11.34,11.34,0,0,1,2.38.26,6.64,6.64,0,0,1,2,.73l-1.09,2.33a6.51,6.51,0,0,0-3.25-.84,3.42,3.42,0,0,0-1.58.29.87.87,0,0,0-.52.76.74.74,0,0,0,.56.73,9.54,9.54,0,0,0,1.81.4,22.41,22.41,0,0,1,2.27.49,3.44,3.44,0,0,1,1.53,1,2.73,2.73,0,0,1,.65,1.93,3,3,0,0,1-.63,1.87,4,4,0,0,1-1.84,1.27,8.18,8.18,0,0,1-2.86.45A11,11,0,0,1,344.75,62.52Z"/><path class="cls-3" d="M129.16,77.68a4.77,4.77,0,0,1,1.41,3.77V87.9H127.5V86.49c-.61,1.05-1.76,1.57-3.44,1.57a5.27,5.27,0,0,1-2.26-.44,3.34,3.34,0,0,1-1.46-1.22,3.18,3.18,0,0,1-.5-1.76A2.92,2.92,0,0,1,121,82.16a6,6,0,0,1,3.66-.9h2.6a2.08,2.08,0,0,0-.65-1.65,2.87,2.87,0,0,0-2-.58,5.77,5.77,0,0,0-1.78.29,4.8,4.8,0,0,0-1.48.76l-1.17-2.29a6.92,6.92,0,0,1,2.21-1,9.87,9.87,0,0,1,2.66-.36A5.89,5.89,0,0,1,129.16,77.68Zm-2.79,7.79a2.14,2.14,0,0,0,.92-1.14V83.17h-2.24c-1.35,0-2,.44-2,1.32a1.17,1.17,0,0,0,.49,1,2.2,2.2,0,0,0,1.36.37A2.83,2.83,0,0,0,126.37,85.47Z"/><path class="cls-3" d="M143.79,77.69a5,5,0,0,1,1.29,3.74V87.9H141.8v-6a3,3,0,0,0-.58-2,2.18,2.18,0,0,0-1.7-.67,2.62,2.62,0,0,0-2,.77,3.17,3.17,0,0,0-.73,2.28V87.9h-3.28V76.6h3.13v1.32a4.24,4.24,0,0,1,1.62-1.1,5.59,5.59,0,0,1,2.12-.39A4.64,4.64,0,0,1,143.79,77.69Z"/><path class="cls-3" d="M159.67,72.31V87.9h-3.12V86.59A4.33,4.33,0,0,1,153,88.06a5.81,5.81,0,0,1-2.89-.71,5.17,5.17,0,0,1-2-2,6.8,6.8,0,0,1,0-6.13,5.17,5.17,0,0,1,2-2,5.92,5.92,0,0,1,2.89-.71,4.29,4.29,0,0,1,3.38,1.36V72.31Zm-4,12.21a3.57,3.57,0,0,0,0-4.55,2.93,2.93,0,0,0-4.13,0,3.57,3.57,0,0,0,0,4.55,2.91,2.91,0,0,0,4.13,0Z"/><path class="cls-3" d="M170.33,87.67a7.92,7.92,0,0,1-2.61-1.22l1.15-2.57A7.64,7.64,0,0,0,171.12,85a8.46,8.46,0,0,0,2.6.42,4.28,4.28,0,0,0,2.15-.43,1.31,1.31,0,0,0,.69-1.15,1.1,1.1,0,0,0-.41-.87,3.07,3.07,0,0,0-1.05-.56c-.43-.14-1-.29-1.73-.46a21.82,21.82,0,0,1-2.75-.8,4.36,4.36,0,0,1-1.84-1.28,3.45,3.45,0,0,1-.77-2.35,4.1,4.1,0,0,1,.69-2.32,4.76,4.76,0,0,1,2.09-1.65,8.68,8.68,0,0,1,3.42-.61,11.57,11.57,0,0,1,2.75.34,8.05,8.05,0,0,1,2.35,1l-1.05,2.58a8.22,8.22,0,0,0-4.07-1.16,3.82,3.82,0,0,0-2.12.47,1.4,1.4,0,0,0-.68,1.21,1.19,1.19,0,0,0,.79,1.13,12.94,12.94,0,0,0,2.4.72,24.49,24.49,0,0,1,2.76.8,4.63,4.63,0,0,1,1.83,1.26,3.38,3.38,0,0,1,.77,2.33,4.07,4.07,0,0,1-.7,2.3,4.83,4.83,0,0,1-2.11,1.65,8.73,8.73,0,0,1-3.43.61A11.88,11.88,0,0,1,170.33,87.67Z"/><path class="cls-3" d="M191.58,77.15a5.31,5.31,0,0,1,2,2,6.68,6.68,0,0,1,0,6.11,5.17,5.17,0,0,1-2,2,5.76,5.76,0,0,1-2.86.72,4.35,4.35,0,0,1-3.4-1.36V92H182V76.6h3.13v1.3a4.34,4.34,0,0,1,3.55-1.47A5.76,5.76,0,0,1,191.58,77.15Zm-1.36,7.37a3.6,3.6,0,0,0,0-4.55,2.95,2.95,0,0,0-4.14,0,3.6,3.6,0,0,0,0,4.55,2.92,2.92,0,0,0,4.14,0Z"/><path class="cls-3" d="M207.53,83.17H199a2.63,2.63,0,0,0,1.09,1.66,3.56,3.56,0,0,0,2.14.61,4.4,4.4,0,0,0,1.56-.26,3.92,3.92,0,0,0,1.27-.83l1.75,1.89a5.89,5.89,0,0,1-4.66,1.82,7.36,7.36,0,0,1-3.39-.74,5.47,5.47,0,0,1-2.26-2.07,5.61,5.61,0,0,1-.8-3,5.75,5.75,0,0,1,.79-3,5.54,5.54,0,0,1,2.16-2.08,6.74,6.74,0,0,1,6.08,0,5.27,5.27,0,0,1,2.11,2,6.12,6.12,0,0,1,.77,3.1S207.57,82.62,207.53,83.17Zm-7.66-3.63a2.69,2.69,0,0,0-.93,1.72h5.57a2.69,2.69,0,0,0-.93-1.71,2.73,2.73,0,0,0-1.84-.64A2.8,2.8,0,0,0,199.87,79.54Z"/><path class="cls-3" d="M212,87.32a5.71,5.71,0,0,1,0-10.15,7,7,0,0,1,3.25-.74,6.37,6.37,0,0,1,3.12.74,4.44,4.44,0,0,1,1.94,2.14l-2.54,1.36a2.79,2.79,0,0,0-2.54-1.55,2.86,2.86,0,0,0-2.12.84,3.54,3.54,0,0,0,0,4.58,2.86,2.86,0,0,0,2.12.84,2.74,2.74,0,0,0,2.54-1.56l2.54,1.39a4.58,4.58,0,0,1-1.94,2.1,6.26,6.26,0,0,1-3.12.75A6.92,6.92,0,0,1,212,87.32Z"/><path class="cls-3" d="M222.36,74.5a1.78,1.78,0,0,1,0-2.61,2.08,2.08,0,0,1,1.47-.52,2.16,2.16,0,0,1,1.47.5,1.61,1.61,0,0,1,.56,1.26,1.78,1.78,0,0,1-.56,1.36,2.32,2.32,0,0,1-2.94,0Zm-.17,2.1h3.28V87.9h-3.28Z"/><path class="cls-3" d="M239.52,83.17H231a2.67,2.67,0,0,0,1.09,1.66,3.58,3.58,0,0,0,2.14.61,4.49,4.49,0,0,0,1.57-.26,4,4,0,0,0,1.27-.83l1.74,1.89a5.88,5.88,0,0,1-4.66,1.82,7.31,7.31,0,0,1-3.38-.74,5.49,5.49,0,0,1-2.27-2.07,6.06,6.06,0,0,1,0-6,5.54,5.54,0,0,1,2.16-2.08,6.46,6.46,0,0,1,3.08-.74,6.36,6.36,0,0,1,3,.71,5.2,5.2,0,0,1,2.11,2,6.12,6.12,0,0,1,.77,3.1S239.56,82.62,239.52,83.17Zm-7.67-3.63a2.68,2.68,0,0,0-.92,1.72h5.56a2.73,2.73,0,0,0-.92-1.71,2.76,2.76,0,0,0-1.85-.64A2.84,2.84,0,0,0,231.85,79.54Z"/><path class="cls-3" d="M242.81,87.72a7.19,7.19,0,0,1-2.14-.87l1.09-2.36a6.69,6.69,0,0,0,1.83.79,7.74,7.74,0,0,0,2.1.31c1.39,0,2.08-.35,2.08-1a.73.73,0,0,0-.57-.7,8,8,0,0,0-1.74-.35,15.37,15.37,0,0,1-2.29-.49,3.53,3.53,0,0,1-1.56-1,2.71,2.71,0,0,1-.67-2,3.13,3.13,0,0,1,.62-1.9,4.08,4.08,0,0,1,1.81-1.29,7.64,7.64,0,0,1,2.8-.46,11.36,11.36,0,0,1,2.39.26,6.75,6.75,0,0,1,2,.73l-1.09,2.33a6.54,6.54,0,0,0-3.26-.84,3.37,3.37,0,0,0-1.57.29.88.88,0,0,0-.53.76.75.75,0,0,0,.57.73,9.54,9.54,0,0,0,1.81.4,21.55,21.55,0,0,1,2.26.49,3.52,3.52,0,0,1,1.54,1,2.73,2.73,0,0,1,.65,1.93,3,3,0,0,1-.63,1.87,4,4,0,0,1-1.84,1.27,8.24,8.24,0,0,1-2.87.45A11.08,11.08,0,0,1,242.81,87.72Z"/><path class="cls-3" d="M268.84,73.85a5.07,5.07,0,0,1,2.22,1.84,5.59,5.59,0,0,1,0,5.66,4.9,4.9,0,0,1-2.22,1.85,8.24,8.24,0,0,1-3.39.64h-3V87.9h-3.4V73.2h6.36A8.07,8.07,0,0,1,268.84,73.85Zm-1.25,6.56a2.63,2.63,0,0,0,0-3.78,3.58,3.58,0,0,0-2.33-.66h-2.77v5.1h2.77A3.58,3.58,0,0,0,267.59,80.41Z"/><path class="cls-3" d="M278.73,76.85a5.9,5.9,0,0,1,2.3-.42v3l-.73,0a3,3,0,0,0-2.21.79,3.18,3.18,0,0,0-.8,2.36V87.9H274V76.6h3.13v1.49A3.62,3.62,0,0,1,278.73,76.85Z"/><path class="cls-3" d="M285.05,87.32a5.59,5.59,0,0,1-2.21-2.07,5.7,5.7,0,0,1-.8-3,5.76,5.76,0,0,1,.8-3,5.59,5.59,0,0,1,2.21-2.07,6.9,6.9,0,0,1,3.21-.74,6.79,6.79,0,0,1,3.19.74,5.56,5.56,0,0,1,2.2,2.07,5.76,5.76,0,0,1,.8,3,5.7,5.7,0,0,1-.8,3,5.56,5.56,0,0,1-2.2,2.07,6.67,6.67,0,0,1-3.19.74A6.78,6.78,0,0,1,285.05,87.32Zm5.27-2.8a3.6,3.6,0,0,0,0-4.55,2.7,2.7,0,0,0-2.06-.85,2.74,2.74,0,0,0-2.08.85,3.57,3.57,0,0,0,0,4.55,2.75,2.75,0,0,0,2.08.86A2.71,2.71,0,0,0,290.32,84.52Z"/><path class="cls-3" d="M303.92,87.35a3.2,3.2,0,0,1-1.18.53,6,6,0,0,1-1.49.18,4.36,4.36,0,0,1-3.11-1A3.9,3.9,0,0,1,297,84V79.37h-1.74V76.85H297V74.1h3.28v2.75h2.81v2.52h-2.81V84a1.53,1.53,0,0,0,.37,1.1,1.35,1.35,0,0,0,1,.39A2.1,2.1,0,0,0,303,85Z"/><path class="cls-3" d="M316.42,83.17h-8.55A2.67,2.67,0,0,0,309,84.83a3.6,3.6,0,0,0,2.14.61,4.49,4.49,0,0,0,1.57-.26,4,4,0,0,0,1.27-.83l1.74,1.89A5.88,5.88,0,0,1,311,88.06a7.34,7.34,0,0,1-3.38-.74,5.49,5.49,0,0,1-2.27-2.07,5.7,5.7,0,0,1-.8-3,5.84,5.84,0,0,1,.79-3,5.68,5.68,0,0,1,2.16-2.08,6.46,6.46,0,0,1,3.08-.74,6.33,6.33,0,0,1,3,.71,5.2,5.2,0,0,1,2.11,2,6.12,6.12,0,0,1,.77,3.1S316.46,82.62,316.42,83.17Zm-7.67-3.63a2.68,2.68,0,0,0-.92,1.72h5.56a2.68,2.68,0,0,0-2.77-2.35A2.84,2.84,0,0,0,308.75,79.54Z"/><path class="cls-3" d="M320.88,87.32a5.7,5.7,0,0,1,0-10.15,7,7,0,0,1,3.24-.74,6.37,6.37,0,0,1,3.12.74,4.46,4.46,0,0,1,1.95,2.14l-2.55,1.36a2.77,2.77,0,0,0-2.54-1.55A2.88,2.88,0,0,0,322,80a3.54,3.54,0,0,0,0,4.58,2.88,2.88,0,0,0,2.12.84,2.74,2.74,0,0,0,2.54-1.56l2.55,1.39a4.6,4.6,0,0,1-1.95,2.1,6.26,6.26,0,0,1-3.12.75A6.9,6.9,0,0,1,320.88,87.32Z"/><path class="cls-3" d="M338.53,87.35a3.17,3.17,0,0,1-1.19.53,5.94,5.94,0,0,1-1.48.18,4.4,4.4,0,0,1-3.12-1,3.94,3.94,0,0,1-1.1-3V79.37H329.9V76.85h1.74V74.1h3.28v2.75h2.81v2.52h-2.81V84a1.57,1.57,0,0,0,.36,1.1,1.38,1.38,0,0,0,1,.39,2.13,2.13,0,0,0,1.33-.42Z"/><path class="cls-3" d="M351,83.17h-8.54a2.63,2.63,0,0,0,1.09,1.66,3.58,3.58,0,0,0,2.14.61,4.49,4.49,0,0,0,1.57-.26,4.15,4.15,0,0,0,1.27-.83l1.74,1.89a5.88,5.88,0,0,1-4.66,1.82,7.31,7.31,0,0,1-3.38-.74A5.49,5.49,0,0,1,340,85.25a6.06,6.06,0,0,1,0-6,5.54,5.54,0,0,1,2.16-2.08,6.74,6.74,0,0,1,6.08,0,5.2,5.2,0,0,1,2.11,2,6.12,6.12,0,0,1,.77,3.1S351.07,82.62,351,83.17Zm-7.66-3.63a2.68,2.68,0,0,0-.92,1.72H348a2.73,2.73,0,0,0-.92-1.71,2.76,2.76,0,0,0-1.85-.64A2.82,2.82,0,0,0,343.36,79.54Z"/><path class="cls-3" d="M364.78,72.31V87.9h-3.13V86.59a4.32,4.32,0,0,1-3.53,1.47,5.8,5.8,0,0,1-2.88-.71,5.11,5.11,0,0,1-2-2,6.72,6.72,0,0,1,0-6.13,5.11,5.11,0,0,1,2-2,5.91,5.91,0,0,1,2.88-.71,4.29,4.29,0,0,1,3.38,1.36V72.31Zm-4,12.21a3.57,3.57,0,0,0,0-4.55,2.73,2.73,0,0,0-2.06-.85,2.76,2.76,0,0,0-2.08.85,3.57,3.57,0,0,0,0,4.55,2.77,2.77,0,0,0,2.08.86A2.74,2.74,0,0,0,360.75,84.52Z"/></svg>