<svg id="Layer_1" data-name="Layer 1" xmlns="http://www.w3.org/2000/svg" viewBox="0 0 474.47 113.33"><defs><style>.cls-1{fill:#fff;}.cls-2{fill:#48773c;}.cls-3{fill:#19486a;}</style></defs><rect class="cls-1" width="474.47" height="113.33"/><polygon class="cls-2" points="0 113.33 0 0 113.33 0 0 113.33"/><path class="cls-1" d="M41.25,32.27A6.77,6.77,0,0,1,43,37a7.54,7.54,0,0,1-1.16,4.05,7.89,7.89,0,0,1-3.51,3,13.46,13.46,0,0,1-5.77,1.12,19.71,19.71,0,0,1-5.24-.71,13.4,13.4,0,0,1-4.38-2L25.23,38a11.09,11.09,0,0,0,3.33,1.68,13,13,0,0,0,3.87.59,6.09,6.09,0,0,0,3.46-.85A2.71,2.71,0,0,0,37.15,37c0-2.06-1.57-3.1-4.72-3.1H29.77V30.09L35,24.22H24.22V19.54H41.86v3.78L36.18,29.8A8.5,8.5,0,0,1,41.25,32.27Z"/><path class="cls-3" d="M128,43.69a3.65,3.65,0,0,1,.72,2.3,3.39,3.39,0,0,1-1.5,3,7.7,7.7,0,0,1-4.38,1h-7.6V35.3h7.18a7,7,0,0,1,4.12,1A3.26,3.26,0,0,1,128,39.12a3.59,3.59,0,0,1-.51,1.91A3.63,3.63,0,0,1,126,42.36,3.82,3.82,0,0,1,128,43.69Zm-9.38-5.83v3.47H122a3.46,3.46,0,0,0,1.91-.44,1.49,1.49,0,0,0,.65-1.31,1.46,1.46,0,0,0-.65-1.29,3.55,3.55,0,0,0-1.91-.43Zm6,9.14a1.51,1.51,0,0,0,.68-1.37c0-1.22-.9-1.82-2.7-1.82h-4v3.63h4A3.78,3.78,0,0,0,124.61,47Z"/><path class="cls-3" d="M142.07,45.27h-8.54a2.58,2.58,0,0,0,1.09,1.66,3.58,3.58,0,0,0,2.14.61,4.27,4.27,0,0,0,1.57-.26,3.81,3.81,0,0,0,1.27-.83l1.74,1.89a5.85,5.85,0,0,1-4.66,1.83,7.32,7.32,0,0,1-3.38-.75A5.37,5.37,0,0,1,131,47.35a6,6,0,0,1,0-6,5.47,5.47,0,0,1,2.16-2.08,6.65,6.65,0,0,1,6.08,0,5.14,5.14,0,0,1,2.11,2,6.11,6.11,0,0,1,.77,3.09S142.12,44.73,142.07,45.27Zm-7.66-3.63a2.7,2.7,0,0,0-.92,1.72h5.56a2.73,2.73,0,0,0-.92-1.71,3,3,0,0,0-3.72,0Z"/><path class="cls-3" d="M151.61,49.45a3.35,3.35,0,0,1-1.19.54,5.94,5.94,0,0,1-1.48.18,4.4,4.4,0,0,1-3.12-1,4,4,0,0,1-1.1-3V41.47H143V39h1.74V36.2H148V39h2.81v2.52H148v4.6a1.58,1.58,0,0,0,.36,1.11,1.36,1.36,0,0,0,1,.38,2.13,2.13,0,0,0,1.33-.42Z"/><path class="cls-3" d="M160.49,49.45a3.35,3.35,0,0,1-1.19.54,5.88,5.88,0,0,1-1.48.18,4.36,4.36,0,0,1-3.11-1,3.93,3.93,0,0,1-1.11-3V41.47h-1.74V39h1.74V36.2h3.28V39h2.81v2.52h-2.81v4.6a1.54,1.54,0,0,0,.37,1.11,1.35,1.35,0,0,0,1,.38,2.1,2.1,0,0,0,1.32-.42Z"/><path class="cls-3" d="M173,45.27h-8.55a2.62,2.62,0,0,0,1.09,1.66,3.58,3.58,0,0,0,2.14.61,4.27,4.27,0,0,0,1.57-.26,3.71,3.71,0,0,0,1.27-.83l1.74,1.89a5.85,5.85,0,0,1-4.66,1.83,7.32,7.32,0,0,1-3.38-.75,5.37,5.37,0,0,1-2.27-2.07,6,6,0,0,1,0-6,5.47,5.47,0,0,1,2.16-2.08,6.35,6.35,0,0,1,3.08-.75,6.25,6.25,0,0,1,3,.72,5.14,5.14,0,0,1,2.11,2,6.11,6.11,0,0,1,.77,3.09S173,44.73,173,45.27Zm-7.67-3.63a2.7,2.7,0,0,0-.92,1.72H170a2.73,2.73,0,0,0-.92-1.71,2.81,2.81,0,0,0-1.85-.64A2.84,2.84,0,0,0,165.32,41.64Z"/><path class="cls-3" d="M180,39a5.86,5.86,0,0,1,2.3-.42v3c-.37,0-.61,0-.74,0a3,3,0,0,0-2.2.78,3.18,3.18,0,0,0-.8,2.37V50h-3.28V38.7h3.13v1.49A3.66,3.66,0,0,1,180,39Z"/><path class="cls-3" d="M200.21,36a5.26,5.26,0,0,1,2.22,7.51,5,5,0,0,1-2.22,1.85,8.4,8.4,0,0,1-3.39.64h-3v4h-3.4V35.3h6.36A8.23,8.23,0,0,1,200.21,36ZM199,42.51a2.27,2.27,0,0,0,.8-1.88,2.31,2.31,0,0,0-.8-1.9,3.58,3.58,0,0,0-2.33-.66h-2.77v5.11h2.77A3.58,3.58,0,0,0,199,42.51Z"/><path class="cls-3" d="M207.54,49.42a5.45,5.45,0,0,1-2.21-2.07,5.73,5.73,0,0,1,2.21-8.07,7.2,7.2,0,0,1,6.4,0,5.62,5.62,0,0,1,2.2,2.07,6,6,0,0,1,0,6,5.49,5.49,0,0,1-2.2,2.07,7.2,7.2,0,0,1-6.4,0Zm5.27-2.79a3.61,3.61,0,0,0,0-4.56,2.95,2.95,0,0,0-4.14,0,3.58,3.58,0,0,0,0,4.56,2.95,2.95,0,0,0,4.14,0Z"/><path class="cls-3" d="M219.12,34.42h3.28V50h-3.28Z"/><path class="cls-3" d="M225.61,36.6a1.77,1.77,0,0,1,0-2.6,2.09,2.09,0,0,1,1.47-.53,2.12,2.12,0,0,1,1.47.51,1.6,1.6,0,0,1,.57,1.26,1.78,1.78,0,0,1-.57,1.35,2.05,2.05,0,0,1-1.47.54A2.09,2.09,0,0,1,225.61,36.6Zm-.17,2.1h3.28V50h-3.28Z"/><path class="cls-3" d="M234,49.42a5.49,5.49,0,0,1-2.25-2.07A5.69,5.69,0,0,1,234,39.28a6.91,6.91,0,0,1,3.24-.75,6.24,6.24,0,0,1,3.12.75,4.48,4.48,0,0,1,1.95,2.13l-2.54,1.37a2.79,2.79,0,0,0-2.55-1.56,2.88,2.88,0,0,0-2.12.84,3.54,3.54,0,0,0,0,4.58,2.88,2.88,0,0,0,2.12.84,2.77,2.77,0,0,0,2.55-1.55l2.54,1.38a4.5,4.5,0,0,1-1.95,2.1,6.14,6.14,0,0,1-3.12.76A6.91,6.91,0,0,1,234,49.42Z"/><path class="cls-3" d="M244.34,36.6a1.79,1.79,0,0,1,0-2.6,2.34,2.34,0,0,1,2.94,0,1.6,1.6,0,0,1,.57,1.26,1.78,1.78,0,0,1-.57,1.35,2,2,0,0,1-1.47.54A2.09,2.09,0,0,1,244.34,36.6Zm-.17,2.1h3.28V50h-3.28Z"/><path class="cls-3" d="M261.5,45.27H253A2.66,2.66,0,0,0,254,46.93a3.61,3.61,0,0,0,2.15.61,4.18,4.18,0,0,0,1.56-.26,3.62,3.62,0,0,0,1.27-.83l1.75,1.89a5.87,5.87,0,0,1-4.67,1.83,7.35,7.35,0,0,1-3.38-.75,5.42,5.42,0,0,1-2.27-2.07,5.7,5.7,0,0,1-.79-3,5.83,5.83,0,0,1,.78-3,5.57,5.57,0,0,1,2.17-2.08,6.66,6.66,0,0,1,6.08,0,5.2,5.2,0,0,1,2.11,2,6.1,6.1,0,0,1,.76,3.09S261.54,44.73,261.5,45.27Zm-7.66-3.63a2.67,2.67,0,0,0-.93,1.72h5.57a2.74,2.74,0,0,0-.93-1.71,3,3,0,0,0-3.71,0Z"/><path class="cls-3" d="M264.8,49.82a7.08,7.08,0,0,1-2.14-.87l1.09-2.35a7.12,7.12,0,0,0,1.82.79,7.83,7.83,0,0,0,2.1.3c1.39,0,2.08-.34,2.08-1a.73.73,0,0,0-.56-.69,8.52,8.52,0,0,0-1.75-.36,17.62,17.62,0,0,1-2.29-.48,3.55,3.55,0,0,1-1.56-1,2.74,2.74,0,0,1-.66-2,3,3,0,0,1,.62-1.9,3.85,3.85,0,0,1,1.8-1.29,7.69,7.69,0,0,1,2.81-.47,10.66,10.66,0,0,1,2.38.27,6.38,6.38,0,0,1,2,.72l-1.09,2.33a6.51,6.51,0,0,0-3.25-.84,3.28,3.28,0,0,0-1.58.3.84.84,0,0,0-.52.75.76.76,0,0,0,.56.74,10.4,10.4,0,0,0,1.81.4,18,18,0,0,1,2.27.49,3.27,3.27,0,0,1,1.53,1,2.67,2.67,0,0,1,.65,1.93,3,3,0,0,1-.63,1.87,4.06,4.06,0,0,1-1.83,1.27,8.28,8.28,0,0,1-2.87.45A11,11,0,0,1,264.8,49.82Z"/><path class="cls-3" d="M284.43,39h2.9v2.52h-2.81V50h-3.28V41.47H279.5V39h1.74v-.5a4.14,4.14,0,0,1,1.14-3.07,4.43,4.43,0,0,1,3.23-1.13,5.69,5.69,0,0,1,1.39.16,3.22,3.22,0,0,1,1.11.45l-.86,2.37a2.3,2.3,0,0,0-1.33-.4c-1,0-1.49.55-1.49,1.64Z"/><path class="cls-3" d="M291,49.42a5.45,5.45,0,0,1-2.21-2.07,6,6,0,0,1,0-6A5.59,5.59,0,0,1,291,39.28a6.79,6.79,0,0,1,3.21-.75,6.68,6.68,0,0,1,3.19.75,5.86,5.86,0,0,1,2.2,8.07,5.42,5.42,0,0,1-2.2,2.07,6.68,6.68,0,0,1-3.19.75A6.79,6.79,0,0,1,291,49.42Zm5.27-2.79a3.61,3.61,0,0,0,0-4.56,2.72,2.72,0,0,0-2.06-.85,2.78,2.78,0,0,0-2.08.85,3.58,3.58,0,0,0,0,4.56,2.74,2.74,0,0,0,2.08.85A2.69,2.69,0,0,0,296.26,46.63Z"/><path class="cls-3" d="M307.29,39a5.9,5.9,0,0,1,2.3-.42v3c-.36,0-.61,0-.73,0a3,3,0,0,0-2.21.78,3.22,3.22,0,0,0-.8,2.37V50h-3.27V38.7h3.13v1.49A3.69,3.69,0,0,1,307.29,39Z"/><path class="cls-3" d="M115.24,60.5h6.67a9.41,9.41,0,0,1,4.24.91A6.86,6.86,0,0,1,129,64a7.81,7.81,0,0,1,0,7.72,6.86,6.86,0,0,1-2.85,2.58,9.41,9.41,0,0,1-4.24.91h-6.67Zm6.51,11.91a4.91,4.91,0,0,0,3.51-1.23,4.86,4.86,0,0,0,0-6.66,4.91,4.91,0,0,0-3.51-1.23h-3.11v9.12Z"/><path class="cls-3" d="M132.52,61.8a1.77,1.77,0,0,1,0-2.6,2.09,2.09,0,0,1,1.47-.53,2.12,2.12,0,0,1,1.47.51,1.6,1.6,0,0,1,.57,1.26,1.78,1.78,0,0,1-.57,1.35,2.05,2.05,0,0,1-1.47.54A2.09,2.09,0,0,1,132.52,61.8Zm-.17,2.1h3.28V75.2h-3.28Z"/><path class="cls-3" d="M139.72,75a7.19,7.19,0,0,1-2.14-.87l1.09-2.35a7.36,7.36,0,0,0,1.83.79,7.72,7.72,0,0,0,2.1.3c1.39,0,2.08-.34,2.08-1a.73.73,0,0,0-.57-.69,8.55,8.55,0,0,0-1.74-.36,16.93,16.93,0,0,1-2.29-.48,3.64,3.64,0,0,1-1.57-1,2.74,2.74,0,0,1-.66-2,3.09,3.09,0,0,1,.62-1.9,3.93,3.93,0,0,1,1.81-1.29,7.63,7.63,0,0,1,2.8-.47,10.81,10.81,0,0,1,2.39.27,6.48,6.48,0,0,1,2,.72l-1.09,2.33a6.54,6.54,0,0,0-3.26-.84,3.23,3.23,0,0,0-1.57.3.85.85,0,0,0-.53.75.76.76,0,0,0,.57.74,10.4,10.4,0,0,0,1.81.4,17.41,17.41,0,0,1,2.26.49,3.35,3.35,0,0,1,1.54,1,2.71,2.71,0,0,1,.65,1.93,3,3,0,0,1-.63,1.87,4.09,4.09,0,0,1-1.84,1.27,8.24,8.24,0,0,1-2.87.45A11.09,11.09,0,0,1,139.72,75Z"/><path class="cls-3" d="M158.41,65a4.79,4.79,0,0,1,1.41,3.77V75.2h-3.07V73.79a3.64,3.64,0,0,1-3.44,1.58,5.42,5.42,0,0,1-2.26-.44,3.4,3.4,0,0,1-1.46-1.22,3.24,3.24,0,0,1-.5-1.77,2.94,2.94,0,0,1,1.18-2.47,6.08,6.08,0,0,1,3.67-.91h2.6a2,2,0,0,0-.65-1.64,2.82,2.82,0,0,0-1.95-.58,5.75,5.75,0,0,0-1.78.28,4.82,4.82,0,0,0-1.48.77l-1.17-2.29a7.15,7.15,0,0,1,2.21-1,9.87,9.87,0,0,1,2.66-.36A5.89,5.89,0,0,1,158.41,65Zm-2.79,7.79a2.1,2.1,0,0,0,.92-1.14V70.48H154.3c-1.35,0-2,.44-2,1.32a1.18,1.18,0,0,0,.49,1,2.26,2.26,0,0,0,1.36.36A2.86,2.86,0,0,0,155.62,72.77Z"/><path class="cls-3" d="M163.83,75a7.08,7.08,0,0,1-2.14-.87l1.09-2.35a7,7,0,0,0,1.83.79,7.72,7.72,0,0,0,2.1.3c1.38,0,2.08-.34,2.08-1a.73.73,0,0,0-.57-.69,8.55,8.55,0,0,0-1.74-.36,16.93,16.93,0,0,1-2.29-.48,3.53,3.53,0,0,1-1.57-1,2.74,2.74,0,0,1-.66-2,3.09,3.09,0,0,1,.62-1.9,3.83,3.83,0,0,1,1.81-1.29,7.63,7.63,0,0,1,2.8-.47,10.66,10.66,0,0,1,2.38.27,6.55,6.55,0,0,1,2,.72l-1.1,2.33a6.48,6.48,0,0,0-3.25-.84,3.28,3.28,0,0,0-1.58.3.84.84,0,0,0-.52.75.76.76,0,0,0,.57.74,10.24,10.24,0,0,0,1.8.4,17.61,17.61,0,0,1,2.27.49,3.27,3.27,0,0,1,1.53,1,2.67,2.67,0,0,1,.66,1.93,3,3,0,0,1-.64,1.87,4.06,4.06,0,0,1-1.83,1.27,8.24,8.24,0,0,1-2.87.45A11,11,0,0,1,163.83,75Z"/><path class="cls-3" d="M181.22,74.65a3.43,3.43,0,0,1-1.19.54,5.94,5.94,0,0,1-1.48.18,4.45,4.45,0,0,1-3.12-1,4,4,0,0,1-1.1-3V66.67h-1.74V64.15h1.74V61.4h3.27v2.75h2.82v2.52H177.6v4.6a1.58,1.58,0,0,0,.37,1.11,1.4,1.4,0,0,0,1,.38,2.13,2.13,0,0,0,1.33-.42Z"/><path class="cls-3" d="M193.71,70.48h-8.54a2.59,2.59,0,0,0,1.09,1.65,3.56,3.56,0,0,0,2.14.61,4.18,4.18,0,0,0,1.56-.26,3.62,3.62,0,0,0,1.27-.83L193,73.54a5.86,5.86,0,0,1-4.66,1.83,7.36,7.36,0,0,1-3.39-.75,5.34,5.34,0,0,1-2.26-2.07,5.61,5.61,0,0,1-.8-3,5.71,5.71,0,0,1,.79-3,5.47,5.47,0,0,1,2.16-2.08,6.65,6.65,0,0,1,6.08,0,5.2,5.2,0,0,1,2.11,2,6.08,6.08,0,0,1,.77,3.09S193.75,69.93,193.71,70.48Zm-7.66-3.64a2.71,2.71,0,0,0-.93,1.72h5.57a2.69,2.69,0,0,0-.93-1.71,3,3,0,0,0-3.71,0Z"/><path class="cls-3" d="M200.67,64.15a5.93,5.93,0,0,1,2.3-.42v3c-.36,0-.61,0-.73,0a3,3,0,0,0-2.21.78,3.22,3.22,0,0,0-.79,2.37V75.2H196V63.9h3.13v1.49A3.69,3.69,0,0,1,200.67,64.15Z"/><path class="cls-3" d="M220.55,75.2l-2.84-4.1h-3.12v4.1h-3.41V60.5h6.37a8.23,8.23,0,0,1,3.39.65A4.94,4.94,0,0,1,223.15,63a5.07,5.07,0,0,1,.78,2.83,4.81,4.81,0,0,1-3,4.65l3.29,4.72Zm-.86-11.27a3.58,3.58,0,0,0-2.33-.66h-2.77V68.4h2.77a3.52,3.52,0,0,0,2.33-.68,2.64,2.64,0,0,0,0-3.79Z"/><path class="cls-3" d="M226.56,61.8a1.77,1.77,0,0,1,0-2.6,2.05,2.05,0,0,1,1.47-.53,2.12,2.12,0,0,1,1.47.51,1.62,1.62,0,0,1,.56,1.26,1.81,1.81,0,0,1-.56,1.35,2.29,2.29,0,0,1-2.94,0Zm-.17,2.1h3.27V75.2h-3.27Z"/><path class="cls-3" d="M233.76,75a7.08,7.08,0,0,1-2.14-.87l1.09-2.35a7,7,0,0,0,1.83.79,7.72,7.72,0,0,0,2.1.3c1.38,0,2.07-.34,2.07-1a.72.72,0,0,0-.56-.69,8.52,8.52,0,0,0-1.75-.36,17.08,17.08,0,0,1-2.28-.48,3.53,3.53,0,0,1-1.57-1,2.74,2.74,0,0,1-.66-2,3.09,3.09,0,0,1,.62-1.9,3.85,3.85,0,0,1,1.8-1.29,7.73,7.73,0,0,1,2.81-.47,10.66,10.66,0,0,1,2.38.27,6.38,6.38,0,0,1,2,.72l-1.09,2.33a6.51,6.51,0,0,0-3.25-.84,3.28,3.28,0,0,0-1.58.3.84.84,0,0,0-.52.75.76.76,0,0,0,.57.74,10.24,10.24,0,0,0,1.8.4,17.61,17.61,0,0,1,2.27.49,3.27,3.27,0,0,1,1.53,1,2.67,2.67,0,0,1,.65,1.93,3,3,0,0,1-.63,1.87,4.06,4.06,0,0,1-1.83,1.27,8.24,8.24,0,0,1-2.87.45A11,11,0,0,1,233.76,75Z"/><path class="cls-3" d="M248.71,70.77l-1.57,1.55V75.2h-3.28V59.62h3.28v8.82l4.78-4.54h3.91l-4.7,4.79,5.12,6.51h-4Z"/><path class="cls-3" d="M273.26,75.2l-2.84-4.1h-3.13v4.1h-3.4V60.5h6.37a8.23,8.23,0,0,1,3.39.65A5,5,0,0,1,275.86,63a5.07,5.07,0,0,1,.78,2.83,4.81,4.81,0,0,1-3,4.65l3.29,4.72Zm-.86-11.27a3.58,3.58,0,0,0-2.33-.66h-2.78V68.4h2.78a3.52,3.52,0,0,0,2.33-.68,2.64,2.64,0,0,0,0-3.79Z"/><path class="cls-3" d="M290.1,70.48h-8.55a2.64,2.64,0,0,0,1.1,1.65,3.56,3.56,0,0,0,2.14.61,4.18,4.18,0,0,0,1.56-.26,3.62,3.62,0,0,0,1.27-.83l1.75,1.89a5.87,5.87,0,0,1-4.67,1.83,7.35,7.35,0,0,1-3.38-.75,5.42,5.42,0,0,1-2.27-2.07,5.7,5.7,0,0,1-.79-3,5.8,5.8,0,0,1,.78-3,5.57,5.57,0,0,1,2.17-2.08,6.66,6.66,0,0,1,6.08,0,5.2,5.2,0,0,1,2.11,2,6.08,6.08,0,0,1,.76,3.09S290.14,69.93,290.1,70.48Zm-7.66-3.64a2.67,2.67,0,0,0-.93,1.72h5.57a2.74,2.74,0,0,0-.93-1.71,3,3,0,0,0-3.71,0Z"/><path class="cls-3" d="M303.85,59.62V75.2h-3.12V73.9a4.33,4.33,0,0,1-3.53,1.47,5.82,5.82,0,0,1-2.89-.72,5.08,5.08,0,0,1-2-2,6.82,6.82,0,0,1,0-6.14,5.08,5.08,0,0,1,2-2,5.82,5.82,0,0,1,2.89-.72,4.3,4.3,0,0,1,3.38,1.37V59.62Zm-4,12.21a3.58,3.58,0,0,0,0-4.56,2.93,2.93,0,0,0-4.13,0,3.58,3.58,0,0,0,0,4.56,2.93,2.93,0,0,0,4.13,0Z"/><path class="cls-3" d="M318.26,63.9V75.2h-3.11V73.86A4.32,4.32,0,0,1,313.6,75a5.35,5.35,0,0,1-5.48-.89,5.1,5.1,0,0,1-1.3-3.8V63.9h3.27v5.9c0,1.82.77,2.73,2.29,2.73a2.46,2.46,0,0,0,1.89-.76,3.22,3.22,0,0,0,.72-2.28V63.9Z"/><path class="cls-3" d="M323.52,74.62a5.49,5.49,0,0,1-2.25-2.07,6,6,0,0,1,0-6,5.63,5.63,0,0,1,2.25-2.07,6.92,6.92,0,0,1,3.25-.75,6.2,6.2,0,0,1,3.11.75,4.48,4.48,0,0,1,1.95,2.13L329.29,68a2.78,2.78,0,0,0-2.54-1.56,2.89,2.89,0,0,0-2.13.84,3.54,3.54,0,0,0,0,4.58,2.89,2.89,0,0,0,2.13.84,2.76,2.76,0,0,0,2.54-1.55l2.54,1.38a4.5,4.5,0,0,1-1.95,2.1,6.1,6.1,0,0,1-3.11.76A6.92,6.92,0,0,1,323.52,74.62Z"/><path class="cls-3" d="M341.17,74.65a3.38,3.38,0,0,1-1.18.54,6,6,0,0,1-1.49.18,4.4,4.4,0,0,1-3.11-1,3.93,3.93,0,0,1-1.11-3V66.67h-1.74V64.15h1.74V61.4h3.28v2.75h2.81v2.52h-2.81v4.6a1.54,1.54,0,0,0,.37,1.11,1.38,1.38,0,0,0,1,.38,2.1,2.1,0,0,0,1.32-.42Z"/><path class="cls-3" d="M343.19,61.8a1.77,1.77,0,0,1,0-2.6,2.09,2.09,0,0,1,1.47-.53,2.12,2.12,0,0,1,1.47.51,1.59,1.59,0,0,1,.56,1.26,1.77,1.77,0,0,1-.56,1.35,2.05,2.05,0,0,1-1.47.54A2.09,2.09,0,0,1,343.19,61.8ZM343,63.9h3.28V75.2H343Z"/><path class="cls-3" d="M351.51,74.62a5.45,5.45,0,0,1-2.21-2.07,6,6,0,0,1,0-6,5.59,5.59,0,0,1,2.21-2.07,6.79,6.79,0,0,1,3.21-.75,6.68,6.68,0,0,1,3.19.75,5.56,5.56,0,0,1,2.2,2.07,6,6,0,0,1,0,6,5.42,5.42,0,0,1-2.2,2.07,6.68,6.68,0,0,1-3.19.75A6.79,6.79,0,0,1,351.51,74.62Zm5.27-2.79a3.61,3.61,0,0,0,0-4.56,2.72,2.72,0,0,0-2.06-.85,2.78,2.78,0,0,0-2.08.85,3.58,3.58,0,0,0,0,4.56,2.74,2.74,0,0,0,2.08.85A2.69,2.69,0,0,0,356.78,71.83Z"/><path class="cls-3" d="M373.35,65a5,5,0,0,1,1.3,3.74V75.2h-3.28v-6a3,3,0,0,0-.59-2,2.16,2.16,0,0,0-1.7-.66,2.56,2.56,0,0,0-2,.77,3.16,3.16,0,0,0-.74,2.27V75.2H363.1V63.9h3.12v1.33a4.42,4.42,0,0,1,1.62-1.11,5.63,5.63,0,0,1,2.12-.39A4.64,4.64,0,0,1,373.35,65Z"/></svg>