<svg id="Layer_1" data-name="Layer 1" xmlns="http://www.w3.org/2000/svg" viewBox="0 0 474.47 113.33"><defs><style>.cls-1{fill:#fff;}.cls-2{fill:#f79b26;}.cls-3{fill:#19486a;}</style></defs><rect class="cls-1" width="474.47" height="113.33"/><polygon class="cls-2" points="0 113.33 0 0 113.33 0 0 113.33"/><path class="cls-1" d="M43.23,40v4.75h-19V41l9.72-9.18A10.45,10.45,0,0,0,36,29.25a4.63,4.63,0,0,0,.54-2.11,2.79,2.79,0,0,0-1-2.32,4.78,4.78,0,0,0-3-.81,6.85,6.85,0,0,0-3,.63,5.73,5.73,0,0,0-2.24,1.89L23,23.79a10,10,0,0,1,4.06-3.44A13.71,13.71,0,0,1,33,19.11,12.27,12.27,0,0,1,38,20a7.6,7.6,0,0,1,3.27,2.59,6.71,6.71,0,0,1,1.17,3.94,8.76,8.76,0,0,1-.86,3.86,14.89,14.89,0,0,1-3.35,4.1L32.4,40Z"/><path class="cls-3" d="M121.83,38.53v3.89h6.81v2.73h-6.81V50.5h-3.4V35.8h11.11v2.73Z"/><path class="cls-3" d="M131.58,37.1a1.77,1.77,0,0,1,0-2.6,2,2,0,0,1,1.47-.52,2.12,2.12,0,0,1,1.47.5,1.62,1.62,0,0,1,.56,1.26,1.79,1.79,0,0,1-.56,1.35,2.29,2.29,0,0,1-2.94,0Zm-.17,2.1h3.27V50.5h-3.27Z"/><path class="cls-3" d="M148,40.3A5,5,0,0,1,149.28,44V50.5H146v-6a3,3,0,0,0-.58-2,2.18,2.18,0,0,0-1.71-.66,2.61,2.61,0,0,0-2,.77,3.17,3.17,0,0,0-.73,2.28V50.5h-3.28V39.2h3.13v1.33a4.26,4.26,0,0,1,1.62-1.11A5.79,5.79,0,0,1,144.6,39,4.64,4.64,0,0,1,148,40.3Z"/><path class="cls-3" d="M160.83,40.29a4.77,4.77,0,0,1,1.41,3.77V50.5h-3.07V49.1c-.62,1-1.76,1.57-3.44,1.57a5.42,5.42,0,0,1-2.26-.44A3.34,3.34,0,0,1,152,49a3.12,3.12,0,0,1-.5-1.76,2.94,2.94,0,0,1,1.18-2.48,6.06,6.06,0,0,1,3.67-.9H159a2.09,2.09,0,0,0-.65-1.65,2.86,2.86,0,0,0-1.95-.58,5.66,5.66,0,0,0-1.78.28,4.82,4.82,0,0,0-1.48.77l-1.17-2.29a7.15,7.15,0,0,1,2.21-1A9.86,9.86,0,0,1,156.8,39,5.84,5.84,0,0,1,160.83,40.29ZM158,48.08a2.12,2.12,0,0,0,.92-1.15V45.78h-2.25q-2,0-2,1.32a1.18,1.18,0,0,0,.49,1,2.26,2.26,0,0,0,1.36.36A2.85,2.85,0,0,0,158,48.08Z"/><path class="cls-3" d="M175.45,40.3a5,5,0,0,1,1.3,3.73V50.5h-3.28v-6a3,3,0,0,0-.59-2,2.16,2.16,0,0,0-1.7-.66,2.61,2.61,0,0,0-2,.77,3.17,3.17,0,0,0-.74,2.28V50.5H165.2V39.2h3.12v1.33a4.42,4.42,0,0,1,1.62-1.11,5.83,5.83,0,0,1,2.12-.38A4.64,4.64,0,0,1,175.45,40.3Z"/><path class="cls-3" d="M182.05,49.92a5.54,5.54,0,0,1-2.25-2.06,5.68,5.68,0,0,1-.81-3,5.54,5.54,0,0,1,3.06-5.07,6.9,6.9,0,0,1,3.24-.74,6.26,6.26,0,0,1,3.12.74,4.48,4.48,0,0,1,2,2.13l-2.55,1.37a2.76,2.76,0,0,0-2.54-1.56,2.88,2.88,0,0,0-2.12.84,3.54,3.54,0,0,0,0,4.58,2.88,2.88,0,0,0,2.12.84,2.75,2.75,0,0,0,2.54-1.55l2.55,1.38a4.5,4.5,0,0,1-2,2.1,6.16,6.16,0,0,1-3.12.76A6.91,6.91,0,0,1,182.05,49.92Z"/><path class="cls-3" d="M192.41,37.1a1.79,1.79,0,0,1,0-2.6,2.08,2.08,0,0,1,1.47-.52,2.12,2.12,0,0,1,1.47.5,1.6,1.6,0,0,1,.57,1.26,1.77,1.77,0,0,1-.57,1.35,2.05,2.05,0,0,1-1.47.54A2.09,2.09,0,0,1,192.41,37.1Zm-.17,2.1h3.28V50.5h-3.28Z"/><path class="cls-3" d="M208.82,40.3A4.94,4.94,0,0,1,210.11,44V50.5h-3.27v-6a3,3,0,0,0-.59-2,2.16,2.16,0,0,0-1.7-.66,2.6,2.6,0,0,0-2,.77,3.17,3.17,0,0,0-.74,2.28V50.5h-3.28V39.2h3.13v1.33a4.42,4.42,0,0,1,1.62-1.11,5.79,5.79,0,0,1,2.12-.38A4.64,4.64,0,0,1,208.82,40.3Z"/><path class="cls-3" d="M224.86,39.2v9.41a6,6,0,0,1-1.62,4.62,6.66,6.66,0,0,1-4.72,1.51,12,12,0,0,1-3.11-.39A6.92,6.92,0,0,1,213,53.19l1.3-2.35a5.41,5.41,0,0,0,1.81.93,7.2,7.2,0,0,0,2.18.35,3.54,3.54,0,0,0,2.51-.77,3,3,0,0,0,.81-2.32v-.48A4.57,4.57,0,0,1,218,50a5.94,5.94,0,0,1-2.84-.69,5.06,5.06,0,0,1-2-1.92,5.74,5.74,0,0,1,0-5.71,5.06,5.06,0,0,1,2-1.92A5.93,5.93,0,0,1,218,39a4.47,4.47,0,0,1,3.74,1.61V39.2Zm-4.07,7.3a2.84,2.84,0,0,0,0-4,3,3,0,0,0-2.13-.77,3.05,3.05,0,0,0-2.14.77,2.81,2.81,0,0,0,0,4,3.05,3.05,0,0,0,2.14.77A3,3,0,0,0,220.79,46.5Z"/><path class="cls-3" d="M243.44,50.5l-2.83-4.09h-3.13V50.5h-3.4V35.8h6.36a8.23,8.23,0,0,1,3.39.65,5.09,5.09,0,0,1,2.22,1.85,5.16,5.16,0,0,1,.77,2.84A4.94,4.94,0,0,1,246,44a5,5,0,0,1-2.23,1.82l3.3,4.72Zm-.86-11.26a3.52,3.52,0,0,0-2.33-.67h-2.77V43.7h2.77a3.58,3.58,0,0,0,2.33-.67,2.64,2.64,0,0,0,0-3.79Z"/><path class="cls-3" d="M260.28,45.78h-8.54a2.63,2.63,0,0,0,1.09,1.66A3.65,3.65,0,0,0,255,48a4.18,4.18,0,0,0,1.56-.26,3.75,3.75,0,0,0,1.28-.83l1.74,1.89a5.86,5.86,0,0,1-4.66,1.83,7.29,7.29,0,0,1-3.38-.75,5.35,5.35,0,0,1-2.27-2.06,5.67,5.67,0,0,1-.8-3,5.74,5.74,0,0,1,.79-3,5.47,5.47,0,0,1,2.16-2.08,6.74,6.74,0,0,1,6.08,0,5.27,5.27,0,0,1,2.11,2,6.12,6.12,0,0,1,.77,3.1S260.32,45.23,260.28,45.78Zm-7.66-3.64a2.71,2.71,0,0,0-.93,1.73h5.57a2.73,2.73,0,0,0-.92-1.72,3,3,0,0,0-3.72,0Z"/><path class="cls-3" d="M272.79,40.3A5,5,0,0,1,274.08,44V50.5H270.8v-6a3,3,0,0,0-.58-2,2.17,2.17,0,0,0-1.7-.66,2.62,2.62,0,0,0-2,.77,3.17,3.17,0,0,0-.73,2.28V50.5h-3.28V39.2h3.13v1.33a4.26,4.26,0,0,1,1.62-1.11A5.79,5.79,0,0,1,269.4,39,4.64,4.64,0,0,1,272.79,40.3Z"/><path class="cls-3" d="M288.17,45.78h-8.55a2.69,2.69,0,0,0,1.1,1.66,3.63,3.63,0,0,0,2.14.6,4.18,4.18,0,0,0,1.56-.26,3.62,3.62,0,0,0,1.27-.83l1.75,1.89a5.87,5.87,0,0,1-4.67,1.83,7.35,7.35,0,0,1-3.38-.75,5.47,5.47,0,0,1-2.27-2.06,5.76,5.76,0,0,1-.79-3,5.83,5.83,0,0,1,.78-3,5.57,5.57,0,0,1,2.17-2.08,6.74,6.74,0,0,1,6.08,0,5.27,5.27,0,0,1,2.11,2,6.11,6.11,0,0,1,.76,3.1S288.21,45.23,288.17,45.78Zm-7.66-3.64a2.67,2.67,0,0,0-.93,1.73h5.57a2.74,2.74,0,0,0-.93-1.72,3,3,0,0,0-3.71,0Z"/><path class="cls-3" d="M308.35,39.2l-4.09,11.3h-3.15l-2.54-7-2.63,7h-3.15l-4.07-11.3h3.08l2.67,7.65,2.77-7.65H300l2.68,7.65,2.75-7.65Z"/><path class="cls-3" d="M318.1,40.29a4.8,4.8,0,0,1,1.4,3.77V50.5h-3.06V49.1c-.62,1-1.77,1.57-3.45,1.57a5.42,5.42,0,0,1-2.26-.44A3.31,3.31,0,0,1,309.28,49a3.13,3.13,0,0,1-.51-1.76A3,3,0,0,1,310,44.77a6,6,0,0,1,3.66-.9h2.61a2.09,2.09,0,0,0-.65-1.65,2.87,2.87,0,0,0-2-.58,5.65,5.65,0,0,0-1.77.28,4.7,4.7,0,0,0-1.48.77l-1.18-2.29a7.32,7.32,0,0,1,2.22-1,9.79,9.79,0,0,1,2.65-.35A5.87,5.87,0,0,1,318.1,40.29Zm-2.8,7.79a2.14,2.14,0,0,0,.93-1.15V45.78H314c-1.34,0-2,.44-2,1.32a1.19,1.19,0,0,0,.5,1,2.25,2.25,0,0,0,1.35.36A2.83,2.83,0,0,0,315.3,48.08Z"/><path class="cls-3" d="M332,39.76a5.15,5.15,0,0,1,2,2,6.68,6.68,0,0,1,0,6.11,5.28,5.28,0,0,1-2,2,5.8,5.8,0,0,1-2.87.72,4.35,4.35,0,0,1-3.55-1.47v1.3h-3.13V34.92h3.28V40.4a4.36,4.36,0,0,1,3.4-1.36A5.8,5.8,0,0,1,332,39.76Zm-1.37,7.37a3.61,3.61,0,0,0,0-4.56,2.93,2.93,0,0,0-4.13,0,3.61,3.61,0,0,0,0,4.56,2.93,2.93,0,0,0,4.13,0Z"/><path class="cls-3" d="M337,34.92h3.28V50.5H337Z"/><path class="cls-3" d="M354.28,45.78h-8.55a2.71,2.71,0,0,0,1.09,1.66A3.68,3.68,0,0,0,349,48a4.26,4.26,0,0,0,1.56-.26A3.71,3.71,0,0,0,351.8,47l1.74,1.89a5.83,5.83,0,0,1-4.66,1.83,7.35,7.35,0,0,1-3.38-.75,5.41,5.41,0,0,1-2.27-2.06,5.76,5.76,0,0,1-.8-3,5.83,5.83,0,0,1,.79-3,5.61,5.61,0,0,1,2.16-2.08,6.35,6.35,0,0,1,3.08-.74,6.21,6.21,0,0,1,3,.71,5.2,5.2,0,0,1,2.11,2,6,6,0,0,1,.77,3.1S354.32,45.23,354.28,45.78Zm-7.67-3.64a2.7,2.7,0,0,0-.92,1.73h5.56a2.73,2.73,0,0,0-.92-1.72,2.79,2.79,0,0,0-1.85-.64A2.84,2.84,0,0,0,346.61,42.14Z"/><path class="cls-3" d="M129.81,73V75.7H118.43V61h11.11v2.73h-7.73v3.19h6.83v2.65h-6.83V73Z"/><path class="cls-3" d="M142.55,65.5a5,5,0,0,1,1.29,3.73V75.7h-3.28v-6a3,3,0,0,0-.58-2,2.18,2.18,0,0,0-1.71-.66,2.61,2.61,0,0,0-2,.77,3.17,3.17,0,0,0-.73,2.28V75.7h-3.28V64.4h3.13v1.33A4.26,4.26,0,0,1,137,64.62a5.79,5.79,0,0,1,2.12-.38A4.64,4.64,0,0,1,142.55,65.5Z"/><path class="cls-3" d="M157.93,71h-8.55a2.69,2.69,0,0,0,1.1,1.66,3.63,3.63,0,0,0,2.14.6,4.18,4.18,0,0,0,1.56-.26,3.62,3.62,0,0,0,1.27-.83L157.2,74a5.87,5.87,0,0,1-4.67,1.83,7.35,7.35,0,0,1-3.38-.75,5.47,5.47,0,0,1-2.27-2.06,5.76,5.76,0,0,1-.79-3,5.83,5.83,0,0,1,.78-3A5.57,5.57,0,0,1,149,65a6.74,6.74,0,0,1,6.08,0,5.27,5.27,0,0,1,2.11,2,6.11,6.11,0,0,1,.76,3.1S158,70.43,157.93,71Zm-7.66-3.64a2.67,2.67,0,0,0-.93,1.73h5.57a2.74,2.74,0,0,0-.93-1.72,3,3,0,0,0-3.71,0Z"/><path class="cls-3" d="M164.89,64.66a5.9,5.9,0,0,1,2.3-.42v3c-.36,0-.61,0-.73,0a3,3,0,0,0-2.21.79,3.18,3.18,0,0,0-.8,2.36V75.7h-3.27V64.4h3.13v1.5A3.62,3.62,0,0,1,164.89,64.66Z"/><path class="cls-3" d="M180.69,64.4v9.41a6,6,0,0,1-1.61,4.62,6.69,6.69,0,0,1-4.73,1.51,11.73,11.73,0,0,1-3.11-.4,6.78,6.78,0,0,1-2.43-1.15l1.3-2.35a5.41,5.41,0,0,0,1.81.93,7.2,7.2,0,0,0,2.18.35,3.56,3.56,0,0,0,2.51-.77,3,3,0,0,0,.81-2.32v-.48a4.6,4.6,0,0,1-3.57,1.41,6,6,0,0,1-2.85-.69,5.1,5.1,0,0,1-2-1.92,5.74,5.74,0,0,1,0-5.71,5.1,5.1,0,0,1,2-1.92,5.94,5.94,0,0,1,2.85-.68,4.48,4.48,0,0,1,3.74,1.61V64.4Zm-4.06,7.3a2.84,2.84,0,0,0,0-4,3,3,0,0,0-2.13-.77,3.05,3.05,0,0,0-2.14.77,2.81,2.81,0,0,0,0,4,3.05,3.05,0,0,0,2.14.77A3,3,0,0,0,176.63,71.7Z"/><path class="cls-3" d="M195,64.4l-5.1,12a6,6,0,0,1-1.92,2.75,4.7,4.7,0,0,1-2.76.79,5.75,5.75,0,0,1-1.74-.27,3.65,3.65,0,0,1-1.41-.76l1.2-2.33a2.75,2.75,0,0,0,.87.53,2.83,2.83,0,0,0,1,.19,1.71,1.71,0,0,0,1.09-.33,2.54,2.54,0,0,0,.76-1.08l0-.1L182.06,64.4h3.38l3.17,7.67,3.19-7.67Z"/><path class="cls-3" d="M202.47,61h6.68a9.37,9.37,0,0,1,4.23.92,6.74,6.74,0,0,1,2.86,2.57,7.83,7.83,0,0,1,0,7.73,6.87,6.87,0,0,1-2.86,2.57,9.37,9.37,0,0,1-4.23.91h-6.68ZM209,72.91a5,5,0,0,0,3.52-1.23,4.89,4.89,0,0,0,0-6.66A5,5,0,0,0,209,63.79h-3.11v9.12Z"/><path class="cls-3" d="M230.59,71H222a2.71,2.71,0,0,0,1.09,1.66,3.68,3.68,0,0,0,2.15.6,4.22,4.22,0,0,0,1.56-.26,3.62,3.62,0,0,0,1.27-.83L229.86,74a5.87,5.87,0,0,1-4.67,1.83,7.35,7.35,0,0,1-3.38-.75,5.47,5.47,0,0,1-2.27-2.06,5.76,5.76,0,0,1-.79-3,5.83,5.83,0,0,1,.78-3A5.57,5.57,0,0,1,221.7,65a6.74,6.74,0,0,1,6.08,0,5.27,5.27,0,0,1,2.11,2,6.11,6.11,0,0,1,.76,3.1S230.63,70.43,230.59,71Zm-7.67-3.64a2.7,2.7,0,0,0-.92,1.73h5.57a2.74,2.74,0,0,0-.93-1.72,2.79,2.79,0,0,0-1.85-.64A2.84,2.84,0,0,0,222.92,67.34Z"/><path class="cls-3" d="M243.84,64.4l-4.77,11.3h-3.38L231,64.4h3.38l3.13,7.69,3.23-7.69Z"/><path class="cls-3" d="M255.87,71h-8.54a2.63,2.63,0,0,0,1.09,1.66,3.65,3.65,0,0,0,2.14.6,4.27,4.27,0,0,0,1.57-.26,3.81,3.81,0,0,0,1.27-.83L255.14,74a5.86,5.86,0,0,1-4.66,1.83,7.32,7.32,0,0,1-3.38-.75,5.41,5.41,0,0,1-2.27-2.06,6.06,6.06,0,0,1,0-6A5.47,5.47,0,0,1,247,65a6.74,6.74,0,0,1,6.08,0,5.2,5.2,0,0,1,2.11,2,6.12,6.12,0,0,1,.77,3.1S255.92,70.43,255.87,71Zm-7.66-3.64a2.71,2.71,0,0,0-.93,1.73h5.57a2.73,2.73,0,0,0-.92-1.72,3,3,0,0,0-3.72,0Z"/><path class="cls-3" d="M258.12,60.12h3.28V75.7h-3.28Z"/><path class="cls-3" d="M266.62,75.12a5.46,5.46,0,0,1-2.22-2.06,5.76,5.76,0,0,1-.8-3,5.7,5.7,0,0,1,.8-3A5.55,5.55,0,0,1,266.62,65,7.27,7.27,0,0,1,273,65a5.54,5.54,0,0,1,3,5.07,5.76,5.76,0,0,1-.79,3A5.56,5.56,0,0,1,273,75.12a7.18,7.18,0,0,1-6.39,0Zm5.27-2.79a3.65,3.65,0,0,0,0-4.56,2.76,2.76,0,0,0-2.07-.85,2.8,2.8,0,0,0-2.08.85,3.58,3.58,0,0,0,0,4.56,2.76,2.76,0,0,0,2.08.85A2.72,2.72,0,0,0,271.89,72.33Z"/><path class="cls-3" d="M287.74,65a5.17,5.17,0,0,1,2,2,6.76,6.76,0,0,1,0,6.11,5.31,5.31,0,0,1-2,2,5.76,5.76,0,0,1-2.86.72,4.34,4.34,0,0,1-3.41-1.37v5.28H278.2V64.4h3.13v1.31a4.34,4.34,0,0,1,3.55-1.47A5.76,5.76,0,0,1,287.74,65Zm-1.36,7.37a3.61,3.61,0,0,0,0-4.56,2.95,2.95,0,0,0-4.14,0,3.61,3.61,0,0,0,0,4.56,2.95,2.95,0,0,0,4.14,0Z"/><path class="cls-3" d="M310.53,65.49a5.08,5.08,0,0,1,1.24,3.74V75.7H308.5v-6a3.07,3.07,0,0,0-.56-2,2,2,0,0,0-1.58-.66,2.34,2.34,0,0,0-1.83.75,3.18,3.18,0,0,0-.67,2.21V75.7h-3.28v-6c0-1.78-.71-2.67-2.14-2.67a2.31,2.31,0,0,0-1.81.75A3.23,3.23,0,0,0,296,70V75.7h-3.27V64.4h3.12v1.31a4.22,4.22,0,0,1,1.55-1.1,5.23,5.23,0,0,1,2-.37,4.83,4.83,0,0,1,2.17.47,3.8,3.8,0,0,1,1.55,1.37,4.71,4.71,0,0,1,1.75-1.36,5.58,5.58,0,0,1,2.33-.48A4.54,4.54,0,0,1,310.53,65.49Z"/><path class="cls-3" d="M325.85,71H317.3a2.67,2.67,0,0,0,1.09,1.66,3.65,3.65,0,0,0,2.14.6A4.27,4.27,0,0,0,322.1,73a3.71,3.71,0,0,0,1.27-.83L325.11,74a5.85,5.85,0,0,1-4.66,1.83,7.32,7.32,0,0,1-3.38-.75,5.41,5.41,0,0,1-2.27-2.06,6.06,6.06,0,0,1,0-6A5.47,5.47,0,0,1,317,65a6.35,6.35,0,0,1,3.08-.74,6.24,6.24,0,0,1,3,.71,5.2,5.2,0,0,1,2.11,2,6.12,6.12,0,0,1,.77,3.1S325.89,70.43,325.85,71Zm-7.67-3.64a2.7,2.7,0,0,0-.92,1.73h5.56a2.73,2.73,0,0,0-.92-1.72,2.81,2.81,0,0,0-1.85-.64A2.84,2.84,0,0,0,318.18,67.34Z"/><path class="cls-3" d="M338.35,65.5a5,5,0,0,1,1.29,3.73V75.7h-3.27v-6a3,3,0,0,0-.59-2,2.16,2.16,0,0,0-1.7-.66,2.62,2.62,0,0,0-2,.77,3.17,3.17,0,0,0-.73,2.28V75.7h-3.28V64.4h3.13v1.33a4.34,4.34,0,0,1,1.62-1.11,5.79,5.79,0,0,1,2.12-.38A4.64,4.64,0,0,1,338.35,65.5Z"/><path class="cls-3" d="M349.89,75.16a3.52,3.52,0,0,1-1.19.53,5.94,5.94,0,0,1-1.48.18,4.36,4.36,0,0,1-3.11-1,3.92,3.92,0,0,1-1.11-3V67.18h-1.74V64.66H343V61.9h3.28v2.76h2.81v2.52h-2.81v4.59a1.54,1.54,0,0,0,.37,1.11,1.35,1.35,0,0,0,1,.39,2.12,2.12,0,0,0,1.32-.42Z"/></svg>