<svg id="Layer_1" data-name="Layer 1" xmlns="http://www.w3.org/2000/svg" viewBox="0 0 474.47 113.33"><defs><style>.cls-1{fill:#fff;}.cls-2{fill:#48773c;}.cls-3{fill:#19486a;}</style></defs><rect class="cls-1" width="474.47" height="113.33"/><polygon class="cls-2" points="0 113.33 0 0 113.33 0 0 113.33"/><path class="cls-1" d="M40.91,31.14a7,7,0,0,1,2.54,5.68A7.69,7.69,0,0,1,38.79,44,13.33,13.33,0,0,1,33,45.18a19.82,19.82,0,0,1-5.24-.71,13.44,13.44,0,0,1-4.37-2L25.66,38A11.15,11.15,0,0,0,29,39.69a12.79,12.79,0,0,0,3.85.59,6.07,6.07,0,0,0,3.45-.86A2.77,2.77,0,0,0,37.54,37a2.68,2.68,0,0,0-1.31-2.44,9,9,0,0,0-4.55-.83H25.23l1.3-14.19H41.9v4.68H31.39L31,29H33Q38.38,29,40.91,31.14Z"/><path class="cls-3" d="M134.11,22.88l-6.36,14.7h-3.36l-6.34-14.7h3.67l4.48,10.5,4.53-10.5Z"/><path class="cls-3" d="M146.1,26.29V37.58H143V36.24a4.44,4.44,0,0,1-1.56,1.12,5.35,5.35,0,0,1-5.48-.89,5.09,5.09,0,0,1-1.3-3.8V26.29h3.27v5.9c0,1.82.77,2.73,2.29,2.73a2.45,2.45,0,0,0,1.89-.77,3.22,3.22,0,0,0,.72-2.28V26.29Z"/><path class="cls-3" d="M149.15,22h3.27V37.58h-3.27Z"/><path class="cls-3" d="M165.73,27.38A5,5,0,0,1,167,31.12v6.46h-3.28v-6a3,3,0,0,0-.58-2,2.18,2.18,0,0,0-1.71-.66,2.61,2.61,0,0,0-2,.77,3.17,3.17,0,0,0-.73,2.28v5.58h-3.28V26.29h3.13v1.32a4.28,4.28,0,0,1,1.61-1.1,5.68,5.68,0,0,1,2.13-.39A4.64,4.64,0,0,1,165.73,27.38Z"/><path class="cls-3" d="M181.11,32.86h-8.55a2.71,2.71,0,0,0,1.09,1.66,3.69,3.69,0,0,0,2.15.61,4.22,4.22,0,0,0,1.56-.27,3.62,3.62,0,0,0,1.27-.83l1.75,1.89a5.87,5.87,0,0,1-4.67,1.83,7.47,7.47,0,0,1-3.38-.74,5.56,5.56,0,0,1-2.27-2.07,5.73,5.73,0,0,1-.79-3,5.83,5.83,0,0,1,.78-3,5.57,5.57,0,0,1,2.17-2.08,6.74,6.74,0,0,1,6.08,0,5.27,5.27,0,0,1,2.11,2.05,6.11,6.11,0,0,1,.76,3.1S181.15,32.31,181.11,32.86Zm-7.67-3.63a2.68,2.68,0,0,0-.92,1.72h5.57a2.69,2.69,0,0,0-.93-1.71,2.74,2.74,0,0,0-1.85-.64A2.84,2.84,0,0,0,173.44,29.23Z"/><path class="cls-3" d="M188.07,26.54a5.9,5.9,0,0,1,2.3-.42v3c-.36,0-.61,0-.73,0a3,3,0,0,0-2.21.79,3.18,3.18,0,0,0-.8,2.36v5.33h-3.27V26.29h3.13v1.49A3.62,3.62,0,0,1,188.07,26.54Z"/><path class="cls-3" d="M200.85,27.37a4.77,4.77,0,0,1,1.41,3.77v6.44h-3.07v-1.4c-.61,1-1.76,1.57-3.44,1.57a5.42,5.42,0,0,1-2.26-.44A3.34,3.34,0,0,1,192,36.09a3.12,3.12,0,0,1-.5-1.76,2.94,2.94,0,0,1,1.18-2.48,6.06,6.06,0,0,1,3.67-.9H199a2.09,2.09,0,0,0-.65-1.65,2.82,2.82,0,0,0-2-.58,6,6,0,0,0-1.78.28,4.82,4.82,0,0,0-1.48.77L192,27.48a7.15,7.15,0,0,1,2.21-1,10.27,10.27,0,0,1,2.66-.35A5.84,5.84,0,0,1,200.85,27.37Zm-2.79,7.79A2.12,2.12,0,0,0,199,34V32.86h-2.25q-2,0-2,1.32a1.18,1.18,0,0,0,.49,1,2.26,2.26,0,0,0,1.36.37A2.86,2.86,0,0,0,198.06,35.16Z"/><path class="cls-3" d="M214.76,26.84a5.24,5.24,0,0,1,2,2,6.76,6.76,0,0,1,0,6.11,5.24,5.24,0,0,1-2,2,5.76,5.76,0,0,1-2.86.72,4.34,4.34,0,0,1-3.55-1.47v1.3h-3.13V22h3.27v5.48a4.37,4.37,0,0,1,3.41-1.36A5.76,5.76,0,0,1,214.76,26.84Zm-1.36,7.37a3.15,3.15,0,0,0,.81-2.28,3.14,3.14,0,0,0-.81-2.27,2.95,2.95,0,0,0-4.14,0,3.14,3.14,0,0,0-.81,2.27,3.15,3.15,0,0,0,.81,2.28,2.95,2.95,0,0,0,4.14,0Z"/><path class="cls-3" d="M219.71,22H223V37.58h-3.27Z"/><path class="cls-3" d="M237,32.86h-8.54a2.63,2.63,0,0,0,1.09,1.66,3.65,3.65,0,0,0,2.14.61,4.18,4.18,0,0,0,1.56-.27,3.62,3.62,0,0,0,1.27-.83l1.75,1.89a5.86,5.86,0,0,1-4.66,1.83,7.41,7.41,0,0,1-3.38-.74A5.43,5.43,0,0,1,226,34.94a5.65,5.65,0,0,1-.8-3,5.74,5.74,0,0,1,.79-3,5.47,5.47,0,0,1,2.16-2.08,6.74,6.74,0,0,1,6.08,0,5.27,5.27,0,0,1,2.11,2.05,6.12,6.12,0,0,1,.77,3.1S237.07,32.31,237,32.86Zm-7.66-3.63a2.69,2.69,0,0,0-.93,1.72H234a2.68,2.68,0,0,0-.92-1.71,3,3,0,0,0-3.72,0Z"/><path class="cls-3" d="M248.42,36.86a7.29,7.29,0,0,1-2.85-2.71,7.89,7.89,0,0,1,0-7.83,7.22,7.22,0,0,1,2.85-2.71,8.53,8.53,0,0,1,4.09-1,8.7,8.7,0,0,1,3.45.67,7,7,0,0,1,2.6,1.94l-2.19,2a4.67,4.67,0,0,0-3.69-1.72,4.93,4.93,0,0,0-2.44.6,4.26,4.26,0,0,0-1.67,1.67,5.24,5.24,0,0,0,0,4.87,4.32,4.32,0,0,0,1.67,1.67,4.93,4.93,0,0,0,2.44.6,4.64,4.64,0,0,0,3.69-1.75l2.19,2A6.75,6.75,0,0,1,256,37.16a8.58,8.58,0,0,1-3.46.68A8.47,8.47,0,0,1,248.42,36.86Z"/><path class="cls-3" d="M262.39,37a5.61,5.61,0,0,1-2.22-2.07,6.11,6.11,0,0,1,0-6,5.61,5.61,0,0,1,2.22-2.07,6.86,6.86,0,0,1,3.2-.74,6.76,6.76,0,0,1,3.19.74A5.59,5.59,0,0,1,271,28.93a6,6,0,0,1,0,6A5.59,5.59,0,0,1,268.78,37a6.76,6.76,0,0,1-3.19.74A6.86,6.86,0,0,1,262.39,37Zm5.27-2.8a3.15,3.15,0,0,0,.81-2.28,3.14,3.14,0,0,0-.81-2.27,2.72,2.72,0,0,0-2.07-.85,2.76,2.76,0,0,0-2.08.85,3.57,3.57,0,0,0,0,4.55,2.76,2.76,0,0,0,2.08.85A2.72,2.72,0,0,0,267.66,34.21Z"/><path class="cls-3" d="M291.81,27.37a5.1,5.1,0,0,1,1.25,3.75v6.46h-3.28v-6a3.07,3.07,0,0,0-.55-2,2,2,0,0,0-1.59-.66,2.3,2.3,0,0,0-1.82.75,3.19,3.19,0,0,0-.68,2.21v5.67h-3.27v-6c0-1.78-.72-2.67-2.15-2.67a2.3,2.3,0,0,0-1.8.75,3.19,3.19,0,0,0-.67,2.21v5.67H274V26.29h3.13v1.3a4,4,0,0,1,1.54-1.09,5.07,5.07,0,0,1,2-.38,4.76,4.76,0,0,1,2.16.47A3.85,3.85,0,0,1,284.37,28a4.56,4.56,0,0,1,1.75-1.37,5.57,5.57,0,0,1,2.32-.48A4.53,4.53,0,0,1,291.81,27.37Z"/><path class="cls-3" d="M313.84,27.37a5.1,5.1,0,0,1,1.25,3.75v6.46h-3.28v-6a3.07,3.07,0,0,0-.55-2,2,2,0,0,0-1.59-.66,2.34,2.34,0,0,0-1.83.75,3.24,3.24,0,0,0-.67,2.21v5.67H303.9v-6c0-1.78-.72-2.67-2.15-2.67a2.3,2.3,0,0,0-1.8.75,3.19,3.19,0,0,0-.67,2.21v5.67H296V26.29h3.13v1.3a4,4,0,0,1,1.54-1.09,5.07,5.07,0,0,1,2-.38,4.76,4.76,0,0,1,2.16.47A3.85,3.85,0,0,1,306.4,28a4.56,4.56,0,0,1,1.75-1.37,5.57,5.57,0,0,1,2.32-.48A4.53,4.53,0,0,1,313.84,27.37Z"/><path class="cls-3" d="M329.41,26.29V37.58H326.3V36.24a4.32,4.32,0,0,1-1.55,1.12,5.35,5.35,0,0,1-5.48-.89,5.09,5.09,0,0,1-1.3-3.8V26.29h3.27v5.9c0,1.82.77,2.73,2.29,2.73a2.48,2.48,0,0,0,1.89-.77,3.21,3.21,0,0,0,.71-2.28V26.29Z"/><path class="cls-3" d="M342.71,27.38a5,5,0,0,1,1.3,3.74v6.46h-3.28v-6a3,3,0,0,0-.59-2,2.16,2.16,0,0,0-1.7-.66,2.6,2.6,0,0,0-2,.77,3.17,3.17,0,0,0-.74,2.28v5.58h-3.27V26.29h3.12v1.32a4.4,4.4,0,0,1,1.62-1.1,5.59,5.59,0,0,1,2.12-.39A4.64,4.64,0,0,1,342.71,27.38Z"/><path class="cls-3" d="M347.13,24.19a1.8,1.8,0,0,1,0-2.61,2.37,2.37,0,0,1,2.94,0,1.62,1.62,0,0,1,.57,1.26,1.75,1.75,0,0,1-.57,1.35,2,2,0,0,1-1.47.54A2.08,2.08,0,0,1,347.13,24.19Zm-.16,2.1h3.27V37.58H347Z"/><path class="cls-3" d="M360.57,37a3.29,3.29,0,0,1-1.18.53,6,6,0,0,1-1.48.18,4.37,4.37,0,0,1-3.12-1,3.9,3.9,0,0,1-1.1-3V29.06h-1.75V26.54h1.75V23.79H357v2.75h2.82v2.52H357v4.6a1.57,1.57,0,0,0,.37,1.1,1.35,1.35,0,0,0,1,.39,2.08,2.08,0,0,0,1.32-.42Z"/><path class="cls-3" d="M362.59,24.19a1.78,1.78,0,0,1,0-2.61,2.08,2.08,0,0,1,1.47-.52,2.12,2.12,0,0,1,1.47.5,1.62,1.62,0,0,1,.57,1.26,1.75,1.75,0,0,1-.57,1.35,2.05,2.05,0,0,1-1.47.54A2.08,2.08,0,0,1,362.59,24.19Zm-.17,2.1h3.28V37.58h-3.28Z"/><path class="cls-3" d="M379.75,32.86H371.2a2.67,2.67,0,0,0,1.09,1.66,3.68,3.68,0,0,0,2.14.61,4.27,4.27,0,0,0,1.57-.27,3.71,3.71,0,0,0,1.27-.83L379,35.92a5.85,5.85,0,0,1-4.66,1.83A7.47,7.47,0,0,1,371,37a5.49,5.49,0,0,1-2.27-2.07,5.74,5.74,0,0,1-.8-3,5.83,5.83,0,0,1,.79-3,5.61,5.61,0,0,1,2.16-2.08,6.46,6.46,0,0,1,3.08-.74,6.33,6.33,0,0,1,3,.71A5.2,5.2,0,0,1,379,28.88a6.12,6.12,0,0,1,.77,3.1S379.79,32.31,379.75,32.86Zm-7.67-3.63a2.68,2.68,0,0,0-.92,1.72h5.56a2.68,2.68,0,0,0-.92-1.71A2.74,2.74,0,0,0,374,28.6,2.84,2.84,0,0,0,372.08,29.23Z"/><path class="cls-3" d="M383,37.41a7.46,7.46,0,0,1-2.14-.88L382,34.18a7,7,0,0,0,1.83.79,7.83,7.83,0,0,0,2.1.3c1.39,0,2.08-.34,2.08-1a.73.73,0,0,0-.57-.69,8.4,8.4,0,0,0-1.74-.36,17.27,17.27,0,0,1-2.29-.48,3.53,3.53,0,0,1-1.56-1,2.77,2.77,0,0,1-.66-2,3,3,0,0,1,.62-1.9,4,4,0,0,1,1.8-1.29,7.68,7.68,0,0,1,2.8-.46,11.36,11.36,0,0,1,2.39.26,7.06,7.06,0,0,1,2,.72l-1.09,2.34a6.52,6.52,0,0,0-3.26-.84,3.25,3.25,0,0,0-1.57.29.88.88,0,0,0-.53.76.75.75,0,0,0,.57.73,10.4,10.4,0,0,0,1.81.4,20,20,0,0,1,2.27.49,3.55,3.55,0,0,1,1.53,1,2.71,2.71,0,0,1,.65,1.93A3,3,0,0,1,390.5,36a4,4,0,0,1-1.84,1.27,8.18,8.18,0,0,1-2.86.45A11.1,11.1,0,0,1,383,37.41Z"/><path class="cls-3" d="M132.75,56.47a3.73,3.73,0,0,1,.71,2.3,3.39,3.39,0,0,1-1.5,3,7.62,7.62,0,0,1-4.38,1H120V48.08h7.18a7.09,7.09,0,0,1,4.13,1,3.27,3.27,0,0,1,1.44,2.8,3.62,3.62,0,0,1-.52,1.91,3.54,3.54,0,0,1-1.44,1.32A4,4,0,0,1,132.75,56.47Zm-9.39-5.82v3.46h3.38a3.43,3.43,0,0,0,1.91-.44,1.45,1.45,0,0,0,.65-1.3,1.41,1.41,0,0,0-.65-1.29,3.44,3.44,0,0,0-1.91-.43Zm6,9.13a1.51,1.51,0,0,0,.68-1.36c0-1.22-.9-1.83-2.71-1.83h-4v3.63h4A3.82,3.82,0,0,0,129.36,59.78Z"/><path class="cls-3" d="M146.82,58.06h-8.55a2.67,2.67,0,0,0,1.09,1.66,3.69,3.69,0,0,0,2.15.61,4.25,4.25,0,0,0,1.56-.27,3.71,3.71,0,0,0,1.27-.83l1.74,1.89A5.85,5.85,0,0,1,141.42,63a7.47,7.47,0,0,1-3.38-.74,5.49,5.49,0,0,1-2.27-2.07,5.74,5.74,0,0,1-.8-3,5.83,5.83,0,0,1,.79-3,5.61,5.61,0,0,1,2.16-2.08,6.46,6.46,0,0,1,3.08-.74,6.33,6.33,0,0,1,3,.71,5.2,5.2,0,0,1,2.11,2,6,6,0,0,1,.77,3.1S146.86,57.51,146.82,58.06Zm-7.67-3.63a2.68,2.68,0,0,0-.92,1.72h5.56a2.68,2.68,0,0,0-.92-1.71A2.74,2.74,0,0,0,141,53.8,2.84,2.84,0,0,0,139.15,54.43Z"/><path class="cls-3" d="M156.35,62.24a3.37,3.37,0,0,1-1.18.53,6,6,0,0,1-1.49.18,4.36,4.36,0,0,1-3.11-1,3.9,3.9,0,0,1-1.11-3V54.26h-1.74V51.74h1.74V49h3.28v2.75h2.81v2.52h-2.81v4.6a1.53,1.53,0,0,0,.37,1.1,1.35,1.35,0,0,0,1,.39,2.1,2.1,0,0,0,1.32-.42Z"/><path class="cls-3" d="M165.23,62.24a3.29,3.29,0,0,1-1.18.53,5.94,5.94,0,0,1-1.48.18,4.37,4.37,0,0,1-3.12-1,3.9,3.9,0,0,1-1.1-3V54.26H156.6V51.74h1.75V49h3.27v2.75h2.82v2.52h-2.82v4.6A1.57,1.57,0,0,0,162,60a1.35,1.35,0,0,0,1,.39,2.08,2.08,0,0,0,1.32-.42Z"/><path class="cls-3" d="M177.73,58.06h-8.55a2.71,2.71,0,0,0,1.09,1.66,3.69,3.69,0,0,0,2.15.61,4.22,4.22,0,0,0,1.56-.27,3.62,3.62,0,0,0,1.27-.83L177,61.12A5.83,5.83,0,0,1,172.33,63a7.47,7.47,0,0,1-3.38-.74,5.49,5.49,0,0,1-2.27-2.07,5.74,5.74,0,0,1-.8-3,5.83,5.83,0,0,1,.79-3,5.57,5.57,0,0,1,2.17-2.08,6.74,6.74,0,0,1,6.08,0,5.33,5.33,0,0,1,2.11,2,6.11,6.11,0,0,1,.76,3.1S177.77,57.51,177.73,58.06Zm-7.67-3.63a2.68,2.68,0,0,0-.92,1.72h5.57a2.69,2.69,0,0,0-.93-1.71,2.74,2.74,0,0,0-1.85-.64A2.84,2.84,0,0,0,170.06,54.43Z"/><path class="cls-3" d="M184.69,51.74a5.9,5.9,0,0,1,2.3-.42v3c-.36,0-.61,0-.73,0a3,3,0,0,0-2.21.79,3.18,3.18,0,0,0-.8,2.36v5.33H180V51.49h3.12V53A3.7,3.7,0,0,1,184.69,51.74Z"/><path class="cls-3" d="M205,48.73a4.88,4.88,0,0,1,3,4.69,5.06,5.06,0,0,1-.78,2.82A5,5,0,0,1,205,58.09a8.25,8.25,0,0,1-3.4.64h-3v4.05h-3.4V48.08h6.36A8.25,8.25,0,0,1,205,48.73Zm-1.25,6.57a2.66,2.66,0,0,0,0-3.78,3.59,3.59,0,0,0-2.33-.66H198.6V56h2.78A3.59,3.59,0,0,0,203.71,55.3Z"/><path class="cls-3" d="M214.85,51.74a5.86,5.86,0,0,1,2.3-.42v3l-.74,0a3,3,0,0,0-2.2.79,3.14,3.14,0,0,0-.8,2.36v5.33h-3.28V51.49h3.13V53A3.59,3.59,0,0,1,214.85,51.74Z"/><path class="cls-3" d="M230,58.06h-8.55a2.71,2.71,0,0,0,1.09,1.66,3.69,3.69,0,0,0,2.15.61,4.22,4.22,0,0,0,1.56-.27,3.62,3.62,0,0,0,1.27-.83l1.74,1.89A5.83,5.83,0,0,1,224.6,63a7.47,7.47,0,0,1-3.38-.74A5.49,5.49,0,0,1,219,60.14a5.74,5.74,0,0,1-.8-3,5.83,5.83,0,0,1,.79-3,5.61,5.61,0,0,1,2.16-2.08,6.46,6.46,0,0,1,3.08-.74,6.33,6.33,0,0,1,3,.71,5.29,5.29,0,0,1,2.12,2,6.11,6.11,0,0,1,.76,3.1S230,57.51,230,58.06Zm-7.67-3.63a2.68,2.68,0,0,0-.92,1.72H227a2.68,2.68,0,0,0-.92-1.71,2.74,2.74,0,0,0-1.85-.64A2.84,2.84,0,0,0,222.33,54.43Z"/><path class="cls-3" d="M241.79,52a5.17,5.17,0,0,1,2,2,6.76,6.76,0,0,1,0,6.11,5.31,5.31,0,0,1-2,2,5.8,5.8,0,0,1-2.87.72,4.36,4.36,0,0,1-3.4-1.36v5.27h-3.27V51.49h3.12v1.3a4.36,4.36,0,0,1,3.55-1.47A5.8,5.8,0,0,1,241.79,52Zm-1.37,7.37a3.6,3.6,0,0,0,0-4.55,2.69,2.69,0,0,0-2.06-.85,2.72,2.72,0,0,0-2.07.85,3.6,3.6,0,0,0,0,4.55,2.72,2.72,0,0,0,2.07.85A2.69,2.69,0,0,0,240.42,59.41Z"/><path class="cls-3" d="M255.13,52.57a4.77,4.77,0,0,1,1.41,3.77v6.44h-3.06v-1.4c-.62,1-1.77,1.57-3.45,1.57a5.42,5.42,0,0,1-2.26-.44,3.31,3.31,0,0,1-1.45-1.22,3.13,3.13,0,0,1-.51-1.76A3,3,0,0,1,247,57.05a6,6,0,0,1,3.66-.9h2.61a2.09,2.09,0,0,0-.65-1.65,2.87,2.87,0,0,0-2-.58,5.66,5.66,0,0,0-1.77.29,4.49,4.49,0,0,0-1.48.76l-1.18-2.29a7.32,7.32,0,0,1,2.22-1,10.2,10.2,0,0,1,2.65-.35A5.83,5.83,0,0,1,255.13,52.57Zm-2.79,7.79a2.14,2.14,0,0,0,.93-1.15V58.06H251c-1.35,0-2,.44-2,1.32a1.19,1.19,0,0,0,.5,1,2.25,2.25,0,0,0,1.35.37A2.83,2.83,0,0,0,252.34,60.36Z"/><path class="cls-3" d="M264.22,51.74a5.86,5.86,0,0,1,2.3-.42v3l-.74,0a3,3,0,0,0-2.2.79,3.18,3.18,0,0,0-.8,2.36v5.33H259.5V51.49h3.13V53A3.59,3.59,0,0,1,264.22,51.74Z"/><path class="cls-3" d="M279.37,58.06h-8.55a2.71,2.71,0,0,0,1.09,1.66,3.69,3.69,0,0,0,2.15.61,4.22,4.22,0,0,0,1.56-.27,3.62,3.62,0,0,0,1.27-.83l1.74,1.89A5.83,5.83,0,0,1,274,63a7.47,7.47,0,0,1-3.38-.74,5.56,5.56,0,0,1-2.27-2.07,5.73,5.73,0,0,1-.79-3,5.83,5.83,0,0,1,.78-3,5.57,5.57,0,0,1,2.17-2.08,6.74,6.74,0,0,1,6.08,0,5.27,5.27,0,0,1,2.11,2,6.11,6.11,0,0,1,.76,3.1S279.41,57.51,279.37,58.06Zm-7.67-3.63a2.68,2.68,0,0,0-.92,1.72h5.57a2.69,2.69,0,0,0-.93-1.71,2.74,2.74,0,0,0-1.85-.64A2.84,2.84,0,0,0,271.7,54.43Z"/><path class="cls-3" d="M293.12,47.2V62.78H290v-1.3A4.33,4.33,0,0,1,286.47,63a5.92,5.92,0,0,1-2.89-.71,5.17,5.17,0,0,1-2-2,6.8,6.8,0,0,1,0-6.13,5.17,5.17,0,0,1,2-2,5.92,5.92,0,0,1,2.89-.71,4.29,4.29,0,0,1,3.38,1.36V47.2Zm-4,12.21a3.57,3.57,0,0,0,0-4.55,2.93,2.93,0,0,0-4.13,0,3.57,3.57,0,0,0,0,4.55,2.93,2.93,0,0,0,4.13,0Z"/><path class="cls-3" d="M305.68,51.74h2.9v2.52h-2.81v8.52h-3.28V54.26h-1.74V51.74h1.74v-.51a4.12,4.12,0,0,1,1.14-3.06A4.39,4.39,0,0,1,306.86,47a6.39,6.39,0,0,1,1.4.16,3.72,3.72,0,0,1,1.1.45L308.5,50a2.23,2.23,0,0,0-1.33-.4c-1,0-1.49.54-1.49,1.63Z"/><path class="cls-3" d="M312.24,62.21A5.59,5.59,0,0,1,310,60.14a6,6,0,0,1,0-6,5.59,5.59,0,0,1,2.21-2.07,6.9,6.9,0,0,1,3.21-.74,6.79,6.79,0,0,1,3.19.74,5.59,5.59,0,0,1,3,5.07,5.65,5.65,0,0,1-.8,3,5.56,5.56,0,0,1-2.2,2.07,6.79,6.79,0,0,1-3.19.74A6.9,6.9,0,0,1,312.24,62.21Zm5.27-2.8a3.6,3.6,0,0,0,0-4.55,2.69,2.69,0,0,0-2.06-.85,2.74,2.74,0,0,0-2.08.85,3.57,3.57,0,0,0,0,4.55,2.74,2.74,0,0,0,2.08.85A2.69,2.69,0,0,0,317.51,59.41Z"/><path class="cls-3" d="M328.54,51.74a5.9,5.9,0,0,1,2.3-.42v3c-.36,0-.61,0-.74,0a3,3,0,0,0-2.2.79,3.18,3.18,0,0,0-.8,2.36v5.33h-3.27V51.49H327V53A3.7,3.7,0,0,1,328.54,51.74Z"/><path class="cls-3" d="M342,62.06a7.29,7.29,0,0,1-2.85-2.71,7.89,7.89,0,0,1,0-7.83A7.22,7.22,0,0,1,342,48.81a8.5,8.5,0,0,1,4.09-1,8.7,8.7,0,0,1,3.45.67,6.94,6.94,0,0,1,2.59,1.94l-2.18,2a4.69,4.69,0,0,0-3.7-1.72,4.86,4.86,0,0,0-2.43.6A4.26,4.26,0,0,0,342.17,53a5.24,5.24,0,0,0,0,4.87,4.32,4.32,0,0,0,1.67,1.67,4.86,4.86,0,0,0,2.43.6,4.66,4.66,0,0,0,3.7-1.75l2.18,2a6.72,6.72,0,0,1-2.6,2,8.61,8.61,0,0,1-3.46.68A8.47,8.47,0,0,1,342,62.06Z"/><path class="cls-3" d="M354.21,47.2h3.28V62.78h-3.28Z"/><path class="cls-3" d="M360.7,49.39a1.78,1.78,0,0,1,0-2.61,2.08,2.08,0,0,1,1.47-.52,2.12,2.12,0,0,1,1.47.5,1.62,1.62,0,0,1,.57,1.26,1.79,1.79,0,0,1-.57,1.36,2.32,2.32,0,0,1-2.94,0Zm-.17,2.1h3.28V62.78h-3.28Z"/><path class="cls-3" d="M384.69,52.57a5.06,5.06,0,0,1,1.25,3.75v6.46h-3.27v-6a3.07,3.07,0,0,0-.56-2,2,2,0,0,0-1.59-.66,2.33,2.33,0,0,0-1.82.75,3.19,3.19,0,0,0-.67,2.21v5.67h-3.28v-6c0-1.78-.71-2.67-2.14-2.67a2.31,2.31,0,0,0-1.81.75,3.19,3.19,0,0,0-.67,2.21v5.67h-3.28V51.49H370v1.3a4.08,4.08,0,0,1,1.55-1.09,5,5,0,0,1,2-.38,4.76,4.76,0,0,1,2.16.47,3.72,3.72,0,0,1,1.56,1.38A4.63,4.63,0,0,1,379,51.8a5.57,5.57,0,0,1,2.32-.48A4.51,4.51,0,0,1,384.69,52.57Z"/><path class="cls-3" d="M397.47,52.57a4.77,4.77,0,0,1,1.41,3.77v6.44h-3.07v-1.4c-.61,1-1.76,1.57-3.44,1.57a5.42,5.42,0,0,1-2.26-.44,3.34,3.34,0,0,1-1.46-1.22,3.2,3.2,0,0,1-.5-1.76,2.92,2.92,0,0,1,1.19-2.48,6,6,0,0,1,3.66-.9h2.6A2.06,2.06,0,0,0,395,54.5a2.82,2.82,0,0,0-1.95-.58,5.77,5.77,0,0,0-1.78.29,4.59,4.59,0,0,0-1.48.76l-1.17-2.29a7.15,7.15,0,0,1,2.21-1,10.27,10.27,0,0,1,2.66-.35A5.84,5.84,0,0,1,397.47,52.57Zm-2.79,7.79a2.12,2.12,0,0,0,.92-1.15V58.06h-2.24c-1.35,0-2,.44-2,1.32a1.21,1.21,0,0,0,.49,1,2.26,2.26,0,0,0,1.36.37A2.83,2.83,0,0,0,394.68,60.36Z"/><path class="cls-3" d="M409.13,62.24a3.42,3.42,0,0,1-1.19.53,5.94,5.94,0,0,1-1.48.18,4.4,4.4,0,0,1-3.12-1,3.94,3.94,0,0,1-1.1-3V54.26H400.5V51.74h1.74V49h3.27v2.75h2.82v2.52h-2.82v4.6a1.57,1.57,0,0,0,.37,1.1,1.36,1.36,0,0,0,1,.39,2.13,2.13,0,0,0,1.33-.42Z"/><path class="cls-3" d="M421.62,58.06h-8.55a2.69,2.69,0,0,0,1.1,1.66,3.63,3.63,0,0,0,2.14.61,4.18,4.18,0,0,0,1.56-.27,3.62,3.62,0,0,0,1.27-.83l1.75,1.89A5.87,5.87,0,0,1,416.22,63a7.47,7.47,0,0,1-3.38-.74,5.47,5.47,0,0,1-2.26-2.07,5.65,5.65,0,0,1-.8-3,5.74,5.74,0,0,1,.79-3,5.47,5.47,0,0,1,2.16-2.08,6.74,6.74,0,0,1,6.08,0,5.27,5.27,0,0,1,2.11,2,6.11,6.11,0,0,1,.76,3.1S421.66,57.51,421.62,58.06ZM414,54.43a2.64,2.64,0,0,0-.93,1.72h5.57a2.64,2.64,0,0,0-.93-1.71,2.73,2.73,0,0,0-1.84-.64A2.8,2.8,0,0,0,414,54.43Z"/><path class="cls-3" d="M123,87.26a7.31,7.31,0,0,1-2.86-2.71,8,8,0,0,1,0-7.83A7.31,7.31,0,0,1,123,74,8.5,8.5,0,0,1,127,73a8.7,8.7,0,0,1,3.45.67,6.94,6.94,0,0,1,2.59,1.94l-2.18,2a4.69,4.69,0,0,0-3.7-1.72,4.86,4.86,0,0,0-2.43.6,4.19,4.19,0,0,0-1.67,1.67,5.24,5.24,0,0,0,0,4.87,4.26,4.26,0,0,0,1.67,1.67,4.86,4.86,0,0,0,2.43.6,4.66,4.66,0,0,0,3.7-1.75l2.18,2a6.72,6.72,0,0,1-2.6,2,8.63,8.63,0,0,1-3.47.68A8.46,8.46,0,0,1,123,87.26Z"/><path class="cls-3" d="M145.4,77.78a5,5,0,0,1,1.29,3.74V88h-3.27V82a3,3,0,0,0-.59-2,2.17,2.17,0,0,0-1.7-.66,2.62,2.62,0,0,0-2,.77,3.17,3.17,0,0,0-.73,2.28V88h-3.28V72.4h3.28v5.46a4.4,4.4,0,0,1,1.57-1,5.75,5.75,0,0,1,2-.34A4.64,4.64,0,0,1,145.4,77.78Z"/><path class="cls-3" d="M158.24,77.77a4.77,4.77,0,0,1,1.41,3.77V88h-3.07v-1.4c-.61,1-1.76,1.57-3.44,1.57a5.42,5.42,0,0,1-2.26-.44,3.34,3.34,0,0,1-1.46-1.22,3.2,3.2,0,0,1-.5-1.76,2.94,2.94,0,0,1,1.18-2.48,6.08,6.08,0,0,1,3.67-.9h2.6a2.09,2.09,0,0,0-.65-1.65,2.82,2.82,0,0,0-1.95-.58,6,6,0,0,0-1.78.28,4.82,4.82,0,0,0-1.48.77l-1.17-2.29a7.15,7.15,0,0,1,2.21-1,10.27,10.27,0,0,1,2.66-.35A5.84,5.84,0,0,1,158.24,77.77Zm-2.79,7.79a2.12,2.12,0,0,0,.92-1.15V83.26h-2.24c-1.35,0-2,.44-2,1.32a1.18,1.18,0,0,0,.49,1A2.26,2.26,0,0,0,154,86,2.86,2.86,0,0,0,155.45,85.56Z"/><path class="cls-3" d="M172.87,77.78a5,5,0,0,1,1.29,3.74V88h-3.28V82a3,3,0,0,0-.58-2,2.18,2.18,0,0,0-1.71-.66,2.61,2.61,0,0,0-2,.77,3.17,3.17,0,0,0-.74,2.28V88h-3.27V76.69h3.13V78a4.28,4.28,0,0,1,1.61-1.1,5.68,5.68,0,0,1,2.13-.39A4.64,4.64,0,0,1,172.87,77.78Z"/><path class="cls-3" d="M188.9,76.69v9.4a6,6,0,0,1-1.62,4.62,6.65,6.65,0,0,1-4.72,1.52,12.1,12.1,0,0,1-3.11-.4A6.84,6.84,0,0,1,177,90.67l1.31-2.35a5.26,5.26,0,0,0,1.8.93,7.26,7.26,0,0,0,2.19.35,3.56,3.56,0,0,0,2.51-.77,3.08,3.08,0,0,0,.8-2.32V86a4.57,4.57,0,0,1-3.57,1.41,5.94,5.94,0,0,1-2.84-.69,5.19,5.19,0,0,1-2.05-1.92,5.36,5.36,0,0,1-.75-2.85,5.42,5.42,0,0,1,.75-2.86,5.33,5.33,0,0,1,2.05-1.92,6,6,0,0,1,2.84-.68,4.5,4.5,0,0,1,3.74,1.61V76.69ZM184.84,84a2.84,2.84,0,0,0,0-4,3,3,0,0,0-2.13-.76,3.07,3.07,0,0,0-2.15.76,2.81,2.81,0,0,0,0,4,3.08,3.08,0,0,0,2.15.77A3,3,0,0,0,184.84,84Z"/><path class="cls-3" d="M203,83.26H194.4a2.71,2.71,0,0,0,1.09,1.66,3.69,3.69,0,0,0,2.15.61,4.22,4.22,0,0,0,1.56-.27,3.62,3.62,0,0,0,1.27-.83l1.74,1.89a5.83,5.83,0,0,1-4.66,1.83,7.47,7.47,0,0,1-3.38-.74,5.56,5.56,0,0,1-2.27-2.07,5.73,5.73,0,0,1-.79-3,5.83,5.83,0,0,1,.78-3,5.57,5.57,0,0,1,2.17-2.08,6.74,6.74,0,0,1,6.08,0,5.27,5.27,0,0,1,2.11,2,6.11,6.11,0,0,1,.76,3.1S203,82.71,203,83.26Zm-7.67-3.63a2.68,2.68,0,0,0-.92,1.72h5.57a2.69,2.69,0,0,0-.93-1.71,2.74,2.74,0,0,0-1.85-.64A2.84,2.84,0,0,0,195.28,79.63Z"/><path class="cls-3" d="M219.73,77.77a4.77,4.77,0,0,1,1.4,3.77V88h-3.06v-1.4a3.66,3.66,0,0,1-3.44,1.57,5.39,5.39,0,0,1-2.26-.44,3.28,3.28,0,0,1-1.46-1.22,3.13,3.13,0,0,1-.51-1.76,3,3,0,0,1,1.19-2.48,6.06,6.06,0,0,1,3.67-.9h2.6a2.09,2.09,0,0,0-.65-1.65,2.86,2.86,0,0,0-2-.58,6,6,0,0,0-1.78.28,4.82,4.82,0,0,0-1.48.77l-1.18-2.29a7.32,7.32,0,0,1,2.22-1,10.27,10.27,0,0,1,2.66-.35A5.84,5.84,0,0,1,219.73,77.77Zm-2.8,7.79a2.1,2.1,0,0,0,.93-1.15V83.26h-2.25q-2,0-2,1.32a1.18,1.18,0,0,0,.49,1,2.25,2.25,0,0,0,1.35.37A2.83,2.83,0,0,0,216.93,85.56Z"/><path class="cls-3" d="M234.35,77.78a5,5,0,0,1,1.3,3.74V88h-3.28V82a3,3,0,0,0-.59-2,2.16,2.16,0,0,0-1.7-.66,2.61,2.61,0,0,0-2,.77,3.17,3.17,0,0,0-.74,2.28V88H224.1V76.69h3.12V78a4.4,4.4,0,0,1,1.62-1.1,5.63,5.63,0,0,1,2.12-.39A4.64,4.64,0,0,1,234.35,77.78Z"/><path class="cls-3" d="M250.24,72.4V88h-3.13v-1.3a4.32,4.32,0,0,1-3.53,1.47,5.91,5.91,0,0,1-2.88-.71,5.17,5.17,0,0,1-2-2,6.72,6.72,0,0,1,0-6.13,5.17,5.17,0,0,1,2-2,5.91,5.91,0,0,1,2.88-.71A4.28,4.28,0,0,1,247,77.88V72.4Zm-4,12.21a3.57,3.57,0,0,0,0-4.55,2.73,2.73,0,0,0-2.06-.85,2.76,2.76,0,0,0-2.08.85,3.57,3.57,0,0,0,0,4.55,2.76,2.76,0,0,0,2.08.85A2.73,2.73,0,0,0,246.21,84.61Z"/><path class="cls-3" d="M259.44,73.28h6.68a9.4,9.4,0,0,1,4.23.92,6.83,6.83,0,0,1,2.85,2.57,7.83,7.83,0,0,1,0,7.73,6.9,6.9,0,0,1-2.85,2.57,9.4,9.4,0,0,1-4.23.91h-6.68ZM266,85.19A5,5,0,0,0,269.47,84a4.89,4.89,0,0,0,0-6.66A5,5,0,0,0,266,76.08h-3.11v9.11Z"/><path class="cls-3" d="M276.72,74.59a1.78,1.78,0,0,1,0-2.61,2.08,2.08,0,0,1,1.47-.52,2.12,2.12,0,0,1,1.47.5,1.62,1.62,0,0,1,.57,1.26,1.79,1.79,0,0,1-.57,1.36,2.32,2.32,0,0,1-2.94,0Zm-.17,2.1h3.28V88h-3.28Z"/><path class="cls-3" d="M283.92,87.8a7.19,7.19,0,0,1-2.14-.87l1.09-2.35a7,7,0,0,0,1.83.79,7.83,7.83,0,0,0,2.1.3c1.39,0,2.08-.34,2.08-1a.73.73,0,0,0-.57-.69,8.4,8.4,0,0,0-1.74-.36,17.27,17.27,0,0,1-2.29-.48,3.53,3.53,0,0,1-1.56-1,2.77,2.77,0,0,1-.66-2,3.1,3.1,0,0,1,.61-1.9A4.08,4.08,0,0,1,284.48,77a7.68,7.68,0,0,1,2.8-.46,10.74,10.74,0,0,1,2.39.26,7.06,7.06,0,0,1,2,.72l-1.09,2.34a6.52,6.52,0,0,0-3.26-.84,3.25,3.25,0,0,0-1.57.29.88.88,0,0,0-.53.76.75.75,0,0,0,.57.73,10.4,10.4,0,0,0,1.81.4,20,20,0,0,1,2.27.49,3.55,3.55,0,0,1,1.53,1,2.71,2.71,0,0,1,.65,1.93,3,3,0,0,1-.63,1.87,4,4,0,0,1-1.84,1.27,8.18,8.18,0,0,1-2.86.45A10.66,10.66,0,0,1,283.92,87.8Z"/><path class="cls-3" d="M302.61,77.77A4.77,4.77,0,0,1,304,81.54V88H301v-1.4c-.62,1-1.77,1.57-3.45,1.57a5.42,5.42,0,0,1-2.26-.44,3.39,3.39,0,0,1-1.46-1.22,3.2,3.2,0,0,1-.5-1.76,3,3,0,0,1,1.19-2.48,6,6,0,0,1,3.66-.9h2.61a2.06,2.06,0,0,0-.66-1.65,2.82,2.82,0,0,0-1.95-.58,6,6,0,0,0-1.77.28,4.7,4.7,0,0,0-1.48.77l-1.18-2.29a7.26,7.26,0,0,1,2.21-1,10.33,10.33,0,0,1,2.66-.35A5.83,5.83,0,0,1,302.61,77.77Zm-2.79,7.79a2.14,2.14,0,0,0,.93-1.15V83.26H298.5c-1.35,0-2,.44-2,1.32a1.19,1.19,0,0,0,.5,1,2.23,2.23,0,0,0,1.35.37A2.83,2.83,0,0,0,299.82,85.56Z"/><path class="cls-3" d="M308,87.8a7.19,7.19,0,0,1-2.14-.87L307,84.58a6.86,6.86,0,0,0,1.83.79,7.72,7.72,0,0,0,2.1.3c1.39,0,2.08-.34,2.08-1a.73.73,0,0,0-.57-.69,8.55,8.55,0,0,0-1.74-.36,16.93,16.93,0,0,1-2.29-.48,3.62,3.62,0,0,1-1.57-1,2.77,2.77,0,0,1-.66-2,3.11,3.11,0,0,1,.62-1.9A4.08,4.08,0,0,1,308.59,77a7.64,7.64,0,0,1,2.8-.46,10.8,10.8,0,0,1,2.39.26,7.06,7.06,0,0,1,2,.72l-1.09,2.34a6.54,6.54,0,0,0-3.26-.84,3.25,3.25,0,0,0-1.57.29.88.88,0,0,0-.53.76.75.75,0,0,0,.57.73,10.4,10.4,0,0,0,1.81.4,19.73,19.73,0,0,1,2.26.49,3.52,3.52,0,0,1,1.54,1,2.71,2.71,0,0,1,.65,1.93,3,3,0,0,1-.63,1.87,4,4,0,0,1-1.84,1.27,8.24,8.24,0,0,1-2.87.45A10.58,10.58,0,0,1,308,87.8Z"/><path class="cls-3" d="M325.42,87.44a3.34,3.34,0,0,1-1.19.53,5.94,5.94,0,0,1-1.48.18,4.4,4.4,0,0,1-3.12-1,3.94,3.94,0,0,1-1.1-3V79.46h-1.74V76.94h1.74V74.19h3.28v2.75h2.81v2.52h-2.81v4.6a1.57,1.57,0,0,0,.36,1.1,1.38,1.38,0,0,0,1,.39,2.13,2.13,0,0,0,1.33-.42Z"/><path class="cls-3" d="M337.91,83.26h-8.54a2.63,2.63,0,0,0,1.09,1.66,3.65,3.65,0,0,0,2.14.61,4.27,4.27,0,0,0,1.57-.27,3.81,3.81,0,0,0,1.27-.83l1.74,1.89a5.85,5.85,0,0,1-4.66,1.83,7.44,7.44,0,0,1-3.38-.74,5.49,5.49,0,0,1-2.27-2.07,6.06,6.06,0,0,1,0-6A5.47,5.47,0,0,1,329,77.26a6.74,6.74,0,0,1,6.08,0,5.2,5.2,0,0,1,2.11,2,6.12,6.12,0,0,1,.77,3.1S338,82.71,337.91,83.26Zm-7.66-3.63a2.68,2.68,0,0,0-.92,1.72h5.56a2.68,2.68,0,0,0-.92-1.71,2.76,2.76,0,0,0-1.85-.64A2.82,2.82,0,0,0,330.25,79.63Z"/><path class="cls-3" d="M344.88,76.94a5.86,5.86,0,0,1,2.3-.42v3c-.37,0-.61,0-.74,0a3,3,0,0,0-2.2.79,3.14,3.14,0,0,0-.8,2.36V88h-3.28V76.69h3.13v1.49A3.59,3.59,0,0,1,344.88,76.94Z"/><path class="cls-3" d="M350.22,87.8a7.08,7.08,0,0,1-2.14-.87l1.09-2.35a6.72,6.72,0,0,0,1.83.79,7.72,7.72,0,0,0,2.1.3c1.38,0,2.08-.34,2.08-1a.73.73,0,0,0-.57-.69,8.55,8.55,0,0,0-1.74-.36,16.93,16.93,0,0,1-2.29-.48,3.51,3.51,0,0,1-1.57-1,2.77,2.77,0,0,1-.66-2,3.11,3.11,0,0,1,.62-1.9A4,4,0,0,1,350.78,77a7.64,7.64,0,0,1,2.8-.46,10.65,10.65,0,0,1,2.38.26,7,7,0,0,1,2,.72l-1.09,2.34a6.54,6.54,0,0,0-3.26-.84,3.25,3.25,0,0,0-1.57.29.88.88,0,0,0-.53.76.75.75,0,0,0,.57.73,10.24,10.24,0,0,0,1.8.4,19.49,19.49,0,0,1,2.27.49,3.44,3.44,0,0,1,1.53,1,2.67,2.67,0,0,1,.66,1.93,3,3,0,0,1-.64,1.87,3.93,3.93,0,0,1-1.83,1.27,8.24,8.24,0,0,1-2.87.45A10.58,10.58,0,0,1,350.22,87.8Z"/></svg>