<svg id="Layer_1" data-name="Layer 1" xmlns="http://www.w3.org/2000/svg" viewBox="0 0 474.47 113.33"><defs><style>.cls-1{fill:#fff;}.cls-2{fill:#f16e24;}.cls-3{fill:#19486a;}</style></defs><rect class="cls-1" width="474.47" height="113.33"/><polygon class="cls-2" points="0 113.33 0 0 113.33 0 0 113.33"/><path class="cls-1" d="M44.13,19.54v3.78L34.77,44.74H28.44l9-20.44H29.12v4.1H23.94V19.54Z"/><path class="cls-3" d="M133.2,34.85v2.73H121.82V22.88h11.1v2.73H125.2v3.2H132v2.64H125.2v3.4Z"/><path class="cls-3" d="M146.78,26.29,142,37.58h-3.38l-4.75-11.29h3.38L140.4,34l3.23-7.68Z"/><path class="cls-3" d="M148.3,24.19a1.78,1.78,0,0,1,0-2.61,2,2,0,0,1,1.47-.52,2.12,2.12,0,0,1,1.47.5,1.65,1.65,0,0,1,.56,1.26,1.78,1.78,0,0,1-.56,1.35,2.3,2.3,0,0,1-2.94,0Zm-.17,2.1h3.27V37.58h-3.27Z"/><path class="cls-3" d="M166,22V37.58h-3.13v-1.3a4.33,4.33,0,0,1-3.53,1.47,6,6,0,0,1-2.89-.71,5.09,5.09,0,0,1-2-2,6.72,6.72,0,0,1,0-6.13,5.09,5.09,0,0,1,2-2,6,6,0,0,1,2.89-.71,4.29,4.29,0,0,1,3.38,1.36V22Zm-4,12.21a3.11,3.11,0,0,0,.82-2.28,3.1,3.1,0,0,0-.82-2.27,2.71,2.71,0,0,0-2-.85,2.74,2.74,0,0,0-2.08.85,3.1,3.1,0,0,0-.82,2.27,3.11,3.11,0,0,0,.82,2.28,2.74,2.74,0,0,0,2.08.85A2.71,2.71,0,0,0,161.92,34.21Z"/><path class="cls-3" d="M180,32.86h-8.54a2.63,2.63,0,0,0,1.09,1.66,3.65,3.65,0,0,0,2.14.61,4.27,4.27,0,0,0,1.57-.27,3.81,3.81,0,0,0,1.27-.83l1.74,1.89a5.86,5.86,0,0,1-4.66,1.83,7.44,7.44,0,0,1-3.38-.74,5.49,5.49,0,0,1-2.27-2.07,6.06,6.06,0,0,1,0-6,5.47,5.47,0,0,1,2.16-2.08,6.74,6.74,0,0,1,6.08,0,5.2,5.2,0,0,1,2.11,2.05,6.12,6.12,0,0,1,.77,3.1S180,32.31,180,32.86Zm-7.66-3.63A2.68,2.68,0,0,0,171.4,31H177a2.68,2.68,0,0,0-.92-1.71,2.76,2.76,0,0,0-1.85-.64A2.82,2.82,0,0,0,172.32,29.23Z"/><path class="cls-3" d="M192.49,27.38a5,5,0,0,1,1.29,3.74v6.46h-3.27v-6a3,3,0,0,0-.59-2,2.17,2.17,0,0,0-1.7-.66,2.62,2.62,0,0,0-2,.77,3.17,3.17,0,0,0-.73,2.28v5.58h-3.28V26.29h3.13v1.32a4.24,4.24,0,0,1,1.62-1.1,5.59,5.59,0,0,1,2.12-.39A4.64,4.64,0,0,1,192.49,27.38Z"/><path class="cls-3" d="M199.08,37a5.71,5.71,0,0,1,0-10.15,7,7,0,0,1,3.25-.74,6.37,6.37,0,0,1,3.12.74A4.46,4.46,0,0,1,207.39,29l-2.54,1.37a2.77,2.77,0,0,0-2.54-1.55,2.86,2.86,0,0,0-2.12.84,3.08,3.08,0,0,0-.84,2.28,3.09,3.09,0,0,0,.84,2.29,2.86,2.86,0,0,0,2.12.84,2.74,2.74,0,0,0,2.54-1.55l2.54,1.39a4.58,4.58,0,0,1-1.94,2.1,6.26,6.26,0,0,1-3.12.75A7,7,0,0,1,199.08,37Z"/><path class="cls-3" d="M220.14,32.86h-8.55a2.67,2.67,0,0,0,1.09,1.66,3.68,3.68,0,0,0,2.14.61,4.27,4.27,0,0,0,1.57-.27,3.81,3.81,0,0,0,1.27-.83l1.74,1.89a5.85,5.85,0,0,1-4.66,1.83,7.44,7.44,0,0,1-3.38-.74,5.49,5.49,0,0,1-2.27-2.07,6.06,6.06,0,0,1,0-6,5.54,5.54,0,0,1,2.16-2.08,6.74,6.74,0,0,1,6.08,0,5.2,5.2,0,0,1,2.11,2.05,6.12,6.12,0,0,1,.77,3.1S220.18,32.31,220.14,32.86Zm-7.67-3.63a2.68,2.68,0,0,0-.92,1.72h5.56a2.68,2.68,0,0,0-.92-1.71,2.76,2.76,0,0,0-1.85-.64A2.84,2.84,0,0,0,212.47,29.23Z"/><path class="cls-3" d="M222.17,30.36h6V33h-6Z"/><path class="cls-3" d="M243.7,31.27a3.73,3.73,0,0,1,.71,2.3,3.39,3.39,0,0,1-1.5,3,7.62,7.62,0,0,1-4.38,1h-7.6V22.88h7.18a7.09,7.09,0,0,1,4.13,1,3.27,3.27,0,0,1,1.44,2.8,3.54,3.54,0,0,1-2,3.23A4,4,0,0,1,243.7,31.27Zm-9.39-5.82v3.46h3.38a3.43,3.43,0,0,0,1.91-.44,1.45,1.45,0,0,0,.65-1.3,1.41,1.41,0,0,0-.65-1.29,3.44,3.44,0,0,0-1.91-.43Zm6,9.13a1.51,1.51,0,0,0,.68-1.36c0-1.22-.9-1.83-2.71-1.83h-4V35h4A3.85,3.85,0,0,0,240.31,34.58Z"/><path class="cls-3" d="M255.35,27.37a4.77,4.77,0,0,1,1.41,3.77v6.44h-3.07v-1.4c-.61,1-1.76,1.57-3.44,1.57a5.42,5.42,0,0,1-2.26-.44,3.34,3.34,0,0,1-1.46-1.22,3.2,3.2,0,0,1-.5-1.76,2.92,2.92,0,0,1,1.19-2.48,6,6,0,0,1,3.66-.9h2.6a2.06,2.06,0,0,0-.65-1.65,2.82,2.82,0,0,0-2-.58,6.07,6.07,0,0,0-1.78.28,4.82,4.82,0,0,0-1.48.77l-1.17-2.29a7.15,7.15,0,0,1,2.21-1,10.27,10.27,0,0,1,2.66-.35A5.83,5.83,0,0,1,255.35,27.37Zm-2.79,7.79a2.12,2.12,0,0,0,.92-1.15V32.86h-2.24c-1.35,0-2,.44-2,1.32a1.21,1.21,0,0,0,.49,1,2.29,2.29,0,0,0,1.36.37A2.83,2.83,0,0,0,252.56,35.16Z"/><path class="cls-3" d="M260.77,37.41a7.34,7.34,0,0,1-2.14-.88l1.09-2.35a6.72,6.72,0,0,0,1.83.79,7.72,7.72,0,0,0,2.1.3c1.38,0,2.08-.34,2.08-1a.73.73,0,0,0-.57-.69,8.55,8.55,0,0,0-1.74-.36,16.93,16.93,0,0,1-2.29-.48,3.56,3.56,0,0,1-1.57-1,2.77,2.77,0,0,1-.66-2,3.11,3.11,0,0,1,.62-1.9,4,4,0,0,1,1.81-1.29,7.64,7.64,0,0,1,2.8-.46,11.27,11.27,0,0,1,2.38.26,7,7,0,0,1,2,.72l-1.09,2.34a6.54,6.54,0,0,0-3.26-.84,3.25,3.25,0,0,0-1.57.29.88.88,0,0,0-.53.76.75.75,0,0,0,.57.73,10.47,10.47,0,0,0,1.8.4,19.49,19.49,0,0,1,2.27.49,3.44,3.44,0,0,1,1.53,1,2.67,2.67,0,0,1,.66,1.93,3,3,0,0,1-.63,1.87,4,4,0,0,1-1.84,1.27,8.24,8.24,0,0,1-2.87.45A11,11,0,0,1,260.77,37.41Z"/><path class="cls-3" d="M281.87,32.86h-8.54a2.63,2.63,0,0,0,1.09,1.66,3.65,3.65,0,0,0,2.14.61,4.27,4.27,0,0,0,1.57-.27A3.71,3.71,0,0,0,279.4,34l1.74,1.89a5.85,5.85,0,0,1-4.66,1.83A7.44,7.44,0,0,1,273.1,37a5.49,5.49,0,0,1-2.27-2.07,6.06,6.06,0,0,1,0-6A5.47,5.47,0,0,1,273,26.86a6.43,6.43,0,0,1,3.08-.74,6.36,6.36,0,0,1,3,.71,5.2,5.2,0,0,1,2.11,2.05,6.12,6.12,0,0,1,.77,3.1S281.92,32.31,281.87,32.86Zm-7.66-3.63a2.68,2.68,0,0,0-.92,1.72h5.56a2.68,2.68,0,0,0-.92-1.71,2.76,2.76,0,0,0-1.85-.64A2.82,2.82,0,0,0,274.21,29.23Z"/><path class="cls-3" d="M295.63,22V37.58H292.5v-1.3A4.32,4.32,0,0,1,289,37.75a5.91,5.91,0,0,1-2.88-.71,5.11,5.11,0,0,1-2-2,6.72,6.72,0,0,1,0-6.13,5.11,5.11,0,0,1,2-2,5.91,5.91,0,0,1,2.88-.71,4.28,4.28,0,0,1,3.38,1.36V22Zm-4,12.21a3.57,3.57,0,0,0,0-4.55,2.73,2.73,0,0,0-2.06-.85,2.76,2.76,0,0,0-2.08.85,3.57,3.57,0,0,0,0,4.55,2.76,2.76,0,0,0,2.08.85A2.73,2.73,0,0,0,291.6,34.21Z"/><path class="cls-3" d="M304.83,22.88h3.4V34.81h7.37v2.77H304.83Z"/><path class="cls-3" d="M326,27.37a4.8,4.8,0,0,1,1.4,3.77v6.44h-3.06v-1.4c-.62,1-1.77,1.57-3.45,1.57a5.42,5.42,0,0,1-2.26-.44,3.39,3.39,0,0,1-1.46-1.22,3.2,3.2,0,0,1-.5-1.76,3,3,0,0,1,1.19-2.48,6,6,0,0,1,3.66-.9h2.61a2.09,2.09,0,0,0-.65-1.65,2.87,2.87,0,0,0-2-.58,6,6,0,0,0-1.77.28,4.7,4.7,0,0,0-1.48.77l-1.18-2.29a7.32,7.32,0,0,1,2.22-1,10.2,10.2,0,0,1,2.65-.35A5.87,5.87,0,0,1,326,27.37Zm-2.8,7.79a2.14,2.14,0,0,0,.93-1.15V32.86h-2.25c-1.35,0-2,.44-2,1.32a1.19,1.19,0,0,0,.5,1,2.23,2.23,0,0,0,1.35.37A2.83,2.83,0,0,0,323.2,35.16Z"/><path class="cls-3" d="M340.62,27.38a5,5,0,0,1,1.29,3.74v6.46h-3.27v-6a3,3,0,0,0-.59-2,2.16,2.16,0,0,0-1.7-.66,2.62,2.62,0,0,0-2,.77,3.17,3.17,0,0,0-.73,2.28v5.58h-3.28V26.29h3.13v1.32a4.4,4.4,0,0,1,1.62-1.1,5.59,5.59,0,0,1,2.12-.39A4.64,4.64,0,0,1,340.62,27.38Z"/><path class="cls-3" d="M356.51,22V37.58h-3.13v-1.3a4.32,4.32,0,0,1-3.53,1.47A6,6,0,0,1,347,37a5.15,5.15,0,0,1-2-2,6.72,6.72,0,0,1,0-6.13,5.15,5.15,0,0,1,2-2,6,6,0,0,1,2.89-.71,4.29,4.29,0,0,1,3.38,1.36V22Zm-4,12.21a3.15,3.15,0,0,0,.81-2.28,3.14,3.14,0,0,0-.81-2.27,2.95,2.95,0,0,0-4.14,0,3.1,3.1,0,0,0-.82,2.27,3.11,3.11,0,0,0,.82,2.28,2.95,2.95,0,0,0,4.14,0Z"/><path class="cls-3" d="M135.19,62.78l0-8.82-4.33,7.27h-1.53L125,54.15v8.63h-3.19V48.08h2.81l5.5,9.14,5.42-9.14h2.79l0,14.7Z"/><path class="cls-3" d="M150.23,52.57a4.77,4.77,0,0,1,1.4,3.77v6.44h-3.06v-1.4c-.62,1-1.77,1.57-3.45,1.57a5.37,5.37,0,0,1-2.25-.44,3.28,3.28,0,0,1-1.46-1.22,3.13,3.13,0,0,1-.51-1.76,3,3,0,0,1,1.19-2.48,6.06,6.06,0,0,1,3.67-.9h2.6a2.09,2.09,0,0,0-.65-1.65,2.86,2.86,0,0,0-2-.58,5.67,5.67,0,0,0-1.78.29,4.59,4.59,0,0,0-1.48.76l-1.18-2.29a7.32,7.32,0,0,1,2.22-1,10.27,10.27,0,0,1,2.66-.35A5.84,5.84,0,0,1,150.23,52.57Zm-2.8,7.79a2.1,2.1,0,0,0,.93-1.15V58.06h-2.25c-1.34,0-2,.44-2,1.32a1.19,1.19,0,0,0,.5,1,2.25,2.25,0,0,0,1.35.37A2.83,2.83,0,0,0,147.43,60.36Z"/><path class="cls-3" d="M164.85,52.58a5,5,0,0,1,1.3,3.74v6.46h-3.28v-6a3,3,0,0,0-.59-2,2.16,2.16,0,0,0-1.7-.66,2.61,2.61,0,0,0-2,.77,3.17,3.17,0,0,0-.74,2.28v5.58h-3.28V51.49h3.13v1.32a4.28,4.28,0,0,1,1.62-1.1,5.63,5.63,0,0,1,2.12-.39A4.64,4.64,0,0,1,164.85,52.58Z"/><path class="cls-3" d="M177.69,52.57a4.77,4.77,0,0,1,1.41,3.77v6.44H176v-1.4c-.62,1-1.77,1.57-3.45,1.57a5.34,5.34,0,0,1-2.25-.44,3.28,3.28,0,0,1-1.46-1.22,3.13,3.13,0,0,1-.51-1.76,3,3,0,0,1,1.19-2.48,6,6,0,0,1,3.66-.9h2.61a2.06,2.06,0,0,0-.66-1.65,2.82,2.82,0,0,0-1.95-.58,5.66,5.66,0,0,0-1.77.29A4.49,4.49,0,0,0,170,55l-1.18-2.29a7.32,7.32,0,0,1,2.22-1,10.2,10.2,0,0,1,2.65-.35A5.83,5.83,0,0,1,177.69,52.57Zm-2.79,7.79a2.14,2.14,0,0,0,.93-1.15V58.06h-2.25c-1.34,0-2,.44-2,1.32a1.19,1.19,0,0,0,.5,1,2.25,2.25,0,0,0,1.35.37A2.83,2.83,0,0,0,174.9,60.36Z"/><path class="cls-3" d="M193.84,51.49v9.4a6,6,0,0,1-1.61,4.62A6.69,6.69,0,0,1,187.5,67a12.1,12.1,0,0,1-3.11-.4A6.78,6.78,0,0,1,182,65.47l1.3-2.35a5.41,5.41,0,0,0,1.81.93,6.86,6.86,0,0,0,2.18.35,3.56,3.56,0,0,0,2.51-.77,3,3,0,0,0,.81-2.32v-.48A4.6,4.6,0,0,1,187,62.24a6,6,0,0,1-2.85-.69,5.19,5.19,0,0,1-2.05-1.92,5.36,5.36,0,0,1-.75-2.85,5.42,5.42,0,0,1,.75-2.86A5.33,5.33,0,0,1,184.15,52a5.94,5.94,0,0,1,2.85-.68,4.51,4.51,0,0,1,3.74,1.61V51.49Zm-4.06,7.29a2.84,2.84,0,0,0,0-4,3,3,0,0,0-2.13-.76,3,3,0,0,0-2.14.76,2.81,2.81,0,0,0,0,4,3.05,3.05,0,0,0,2.14.77A3,3,0,0,0,189.78,58.78Z"/><path class="cls-3" d="M207.89,58.06h-8.55a2.69,2.69,0,0,0,1.1,1.66,3.65,3.65,0,0,0,2.14.61,4.18,4.18,0,0,0,1.56-.27,3.75,3.75,0,0,0,1.28-.83l1.74,1.89A5.86,5.86,0,0,1,202.5,63a7.48,7.48,0,0,1-3.39-.74,5.47,5.47,0,0,1-2.26-2.07,5.65,5.65,0,0,1-.8-3,5.74,5.74,0,0,1,.79-3A5.47,5.47,0,0,1,199,52.06a6.74,6.74,0,0,1,6.08,0,5.27,5.27,0,0,1,2.11,2,6.12,6.12,0,0,1,.77,3.1S207.93,57.51,207.89,58.06Zm-7.66-3.63a2.69,2.69,0,0,0-.93,1.72h5.57a2.64,2.64,0,0,0-.93-1.71,2.71,2.71,0,0,0-1.84-.64A2.8,2.8,0,0,0,200.23,54.43Z"/><path class="cls-3" d="M228,52.57a5.1,5.1,0,0,1,1.25,3.75v6.46H226v-6a3.07,3.07,0,0,0-.55-2,2,2,0,0,0-1.59-.66,2.34,2.34,0,0,0-1.83.75,3.24,3.24,0,0,0-.67,2.21v5.67H218v-6c0-1.78-.72-2.67-2.15-2.67a2.3,2.3,0,0,0-1.8.75,3.19,3.19,0,0,0-.67,2.21v5.67h-3.28V51.49h3.13v1.3a4,4,0,0,1,1.54-1.09,5.07,5.07,0,0,1,2-.38,4.76,4.76,0,0,1,2.16.47,3.75,3.75,0,0,1,1.55,1.38,4.67,4.67,0,0,1,1.76-1.37,5.57,5.57,0,0,1,2.32-.48A4.53,4.53,0,0,1,228,52.57Z"/><path class="cls-3" d="M243.3,58.06h-8.55a2.71,2.71,0,0,0,1.09,1.66,3.69,3.69,0,0,0,2.15.61,4.25,4.25,0,0,0,1.56-.27,3.62,3.62,0,0,0,1.27-.83l1.74,1.89A5.83,5.83,0,0,1,237.9,63a7.47,7.47,0,0,1-3.38-.74,5.49,5.49,0,0,1-2.27-2.07,5.74,5.74,0,0,1-.8-3,5.83,5.83,0,0,1,.79-3,5.57,5.57,0,0,1,2.17-2.08,6.74,6.74,0,0,1,6.08,0,5.18,5.18,0,0,1,2.1,2,6,6,0,0,1,.77,3.1S243.34,57.51,243.3,58.06Zm-7.67-3.63a2.68,2.68,0,0,0-.92,1.72h5.56a2.68,2.68,0,0,0-.92-1.71,2.74,2.74,0,0,0-1.85-.64A2.84,2.84,0,0,0,235.63,54.43Z"/><path class="cls-3" d="M255.8,52.58a5,5,0,0,1,1.29,3.74v6.46h-3.27v-6a3,3,0,0,0-.59-2,2.16,2.16,0,0,0-1.7-.66,2.6,2.6,0,0,0-2,.77,3.17,3.17,0,0,0-.74,2.28v5.58h-3.27V51.49h3.12v1.32a4.28,4.28,0,0,1,1.62-1.1,5.59,5.59,0,0,1,2.12-.39A4.64,4.64,0,0,1,255.8,52.58Z"/><path class="cls-3" d="M267.34,62.24a3.29,3.29,0,0,1-1.18.53,6,6,0,0,1-1.48.18,4.37,4.37,0,0,1-3.12-1,3.9,3.9,0,0,1-1.1-3V54.26h-1.75V51.74h1.75V49h3.27v2.75h2.82v2.52h-2.82v4.6a1.53,1.53,0,0,0,.37,1.1,1.35,1.35,0,0,0,1,.39,2.08,2.08,0,0,0,1.32-.42Z"/><path class="cls-3" d="M283.72,52.57a4.77,4.77,0,0,1,1.41,3.77v6.44h-3.06v-1.4c-.62,1-1.77,1.57-3.45,1.57a5.42,5.42,0,0,1-2.26-.44,3.39,3.39,0,0,1-1.46-1.22,3.2,3.2,0,0,1-.5-1.76,3,3,0,0,1,1.19-2.48,6,6,0,0,1,3.66-.9h2.6a2.06,2.06,0,0,0-.65-1.65,2.82,2.82,0,0,0-1.95-.58,5.66,5.66,0,0,0-1.77.29A4.49,4.49,0,0,0,276,55l-1.18-2.29a7.15,7.15,0,0,1,2.21-1,10.33,10.33,0,0,1,2.66-.35A5.83,5.83,0,0,1,283.72,52.57Zm-2.79,7.79a2.12,2.12,0,0,0,.92-1.15V58.06h-2.24c-1.35,0-2,.44-2,1.32a1.19,1.19,0,0,0,.5,1,2.23,2.23,0,0,0,1.35.37A2.83,2.83,0,0,0,280.93,60.36Z"/><path class="cls-3" d="M298.35,52.58a5,5,0,0,1,1.29,3.74v6.46h-3.28v-6a3,3,0,0,0-.58-2,2.17,2.17,0,0,0-1.7-.66,2.62,2.62,0,0,0-2,.77,3.17,3.17,0,0,0-.73,2.28v5.58h-3.28V51.49h3.13v1.32a4.13,4.13,0,0,1,1.62-1.1,5.59,5.59,0,0,1,2.12-.39A4.64,4.64,0,0,1,298.35,52.58Z"/><path class="cls-3" d="M314.24,47.2V62.78h-3.13v-1.3A4.33,4.33,0,0,1,307.58,63a5.92,5.92,0,0,1-2.89-.71,5.09,5.09,0,0,1-2-2,6.72,6.72,0,0,1,0-6.13,5.09,5.09,0,0,1,2-2,5.92,5.92,0,0,1,2.89-.71A4.29,4.29,0,0,1,311,52.68V47.2Zm-4,12.21a3.57,3.57,0,0,0,0-4.55,2.71,2.71,0,0,0-2.05-.85,2.74,2.74,0,0,0-2.08.85,3.57,3.57,0,0,0,0,4.55,2.74,2.74,0,0,0,2.08.85A2.71,2.71,0,0,0,310.2,59.41Z"/><path class="cls-3" d="M131.57,73.93a5,5,0,0,1,2.21,1.85,5.52,5.52,0,0,1,0,5.66,4.88,4.88,0,0,1-2.21,1.85,8.24,8.24,0,0,1-3.39.64h-3v4h-3.4V73.28h6.36A8.23,8.23,0,0,1,131.57,73.93Zm-1.25,6.57a2.63,2.63,0,0,0,0-3.78,3.58,3.58,0,0,0-2.33-.66h-2.77v5.1H128A3.58,3.58,0,0,0,130.32,80.5Z"/><path class="cls-3" d="M137,72.4h3.27V88H137Z"/><path class="cls-3" d="M151.86,77.77a4.77,4.77,0,0,1,1.41,3.77V88h-3.06v-1.4c-.62,1-1.77,1.57-3.45,1.57a5.34,5.34,0,0,1-2.25-.44,3.28,3.28,0,0,1-1.46-1.22,3.13,3.13,0,0,1-.51-1.76,3,3,0,0,1,1.19-2.48,6,6,0,0,1,3.66-.9H150a2.06,2.06,0,0,0-.66-1.65,2.82,2.82,0,0,0-2-.58,6,6,0,0,0-1.77.28,4.7,4.7,0,0,0-1.48.77L143,77.88a7.32,7.32,0,0,1,2.22-1,10.2,10.2,0,0,1,2.65-.35A5.83,5.83,0,0,1,151.86,77.77Zm-2.79,7.79a2.14,2.14,0,0,0,.93-1.15V83.26h-2.25c-1.34,0-2,.44-2,1.32a1.19,1.19,0,0,0,.5,1,2.25,2.25,0,0,0,1.35.37A2.83,2.83,0,0,0,149.07,85.56Z"/><path class="cls-3" d="M166.49,77.78a5,5,0,0,1,1.29,3.74V88h-3.27V82a3,3,0,0,0-.59-2,2.16,2.16,0,0,0-1.7-.66,2.58,2.58,0,0,0-2,.77,3.17,3.17,0,0,0-.74,2.28V88h-3.28V76.69h3.13V78a4.4,4.4,0,0,1,1.62-1.1,5.59,5.59,0,0,1,2.12-.39A4.64,4.64,0,0,1,166.49,77.78Z"/><path class="cls-3" d="M181,77.78a5,5,0,0,1,1.29,3.74V88H179V82a3,3,0,0,0-.59-2,2.16,2.16,0,0,0-1.7-.66,2.6,2.6,0,0,0-2,.77A3.13,3.13,0,0,0,174,82.4V88h-3.28V76.69h3.13V78a4.4,4.4,0,0,1,1.62-1.1,5.59,5.59,0,0,1,2.12-.39A4.64,4.64,0,0,1,181,77.78Z"/><path class="cls-3" d="M185.42,74.59a1.8,1.8,0,0,1,0-2.61,2.37,2.37,0,0,1,2.94,0,1.62,1.62,0,0,1,.57,1.26,1.79,1.79,0,0,1-.57,1.36,2.05,2.05,0,0,1-1.47.53A2.08,2.08,0,0,1,185.42,74.59Zm-.16,2.1h3.27V88h-3.27Z"/><path class="cls-3" d="M201.84,77.78a5,5,0,0,1,1.29,3.74V88h-3.28V82a3,3,0,0,0-.59-2,2.16,2.16,0,0,0-1.7-.66,2.61,2.61,0,0,0-2,.77,3.17,3.17,0,0,0-.74,2.28V88h-3.27V76.69h3.12V78a4.4,4.4,0,0,1,1.62-1.1,5.63,5.63,0,0,1,2.12-.39A4.68,4.68,0,0,1,201.84,77.78Z"/><path class="cls-3" d="M217.87,76.69v9.4a6,6,0,0,1-1.62,4.62,6.66,6.66,0,0,1-4.72,1.52,12,12,0,0,1-3.11-.4A6.84,6.84,0,0,1,206,90.67l1.3-2.35a5.41,5.41,0,0,0,1.81.93,7.25,7.25,0,0,0,2.18.35,3.54,3.54,0,0,0,2.51-.77,3,3,0,0,0,.81-2.32V86A4.57,4.57,0,0,1,211,87.44a5.94,5.94,0,0,1-2.84-.69,5.12,5.12,0,0,1-2.05-1.92,5.28,5.28,0,0,1-.76-2.85,5.34,5.34,0,0,1,.76-2.86,5.26,5.26,0,0,1,2.05-1.92,6,6,0,0,1,2.84-.68,4.5,4.5,0,0,1,3.74,1.61V76.69ZM213.8,84a2.84,2.84,0,0,0,0-4,3,3,0,0,0-2.13-.76,3,3,0,0,0-2.14.76,2.81,2.81,0,0,0,0,4,3.05,3.05,0,0,0,2.14.77A3,3,0,0,0,213.8,84Z"/></svg>