<svg id="Layer_1" data-name="Layer 1" xmlns="http://www.w3.org/2000/svg" viewBox="0 0 474.47 113.33"><defs><style>.cls-1{fill:#fff;}.cls-2{fill:#f16e24;}.cls-3{fill:#19486a;}</style></defs><rect class="cls-1" width="474.47" height="113.33"/><polygon class="cls-2" points="0 113.33 0 0 113.33 0 0 113.33"/><path class="cls-1" d="M41.54,22.33q3,3.23,3,9.27A15.76,15.76,0,0,1,42.93,39a10.89,10.89,0,0,1-4.52,4.64,13.86,13.86,0,0,1-6.73,1.59,16.2,16.2,0,0,1-3.86-.45,10.52,10.52,0,0,1-3.13-1.28l2.16-4.29a8.19,8.19,0,0,0,4.72,1.26,6.8,6.8,0,0,0,5.07-1.89,7.9,7.9,0,0,0,2-5.45,8.47,8.47,0,0,1-6.26,2.27,10,10,0,0,1-4.4-1,7.69,7.69,0,0,1-3.13-2.76,7.4,7.4,0,0,1-1.15-4.12A7.85,7.85,0,0,1,25,23.07a8.21,8.21,0,0,1,3.44-2.93,11.11,11.11,0,0,1,4.84-1A10.76,10.76,0,0,1,41.54,22.33Zm-4.73,7.6a3.69,3.69,0,0,0,0-5.42,4.69,4.69,0,0,0-3.22-1,4.45,4.45,0,0,0-3,1,3.41,3.41,0,0,0-1.17,2.73A3.5,3.5,0,0,0,30.58,30a4.57,4.57,0,0,0,3.11,1A4.56,4.56,0,0,0,36.81,29.93Z"/><path class="cls-3" d="M123.18,17.56a4.5,4.5,0,0,1,1.9,6.43,4.27,4.27,0,0,1-1.9,1.59,7.18,7.18,0,0,1-2.9.55h-2.54V29.6h-2.92V17h5.46A7,7,0,0,1,123.18,17.56Zm-1.07,5.62a2,2,0,0,0,.69-1.61,2,2,0,0,0-.69-1.63,3.1,3.1,0,0,0-2-.56h-2.37v4.37h2.37A3,3,0,0,0,122.11,23.18Z"/><path class="cls-3" d="M129.47,29.11a4.67,4.67,0,0,1-1.9-1.78,4.82,4.82,0,0,1-.69-2.57,4.88,4.88,0,0,1,.69-2.58,4.71,4.71,0,0,1,1.9-1.77,6.19,6.19,0,0,1,5.48,0,4.88,4.88,0,0,1,1.89,1.77,5,5,0,0,1,.68,2.58,4.91,4.91,0,0,1-.68,2.57A4.84,4.84,0,0,1,135,29.11a6.27,6.27,0,0,1-5.48,0Zm4.51-2.4a2.72,2.72,0,0,0,.7-1.95,2.71,2.71,0,0,0-.7-2,2.32,2.32,0,0,0-1.77-.73,2.35,2.35,0,0,0-1.78.73,2.66,2.66,0,0,0-.7,2,2.68,2.68,0,0,0,.7,1.95,2.35,2.35,0,0,0,1.78.73A2.32,2.32,0,0,0,134,26.71Z"/><path class="cls-3" d="M139.39,16.24h2.81V29.6h-2.81Z"/><path class="cls-3" d="M145,18.12a1.55,1.55,0,0,1,0-2.24,2,2,0,0,1,2.52,0A1.35,1.35,0,0,1,148,17a1.53,1.53,0,0,1-.49,1.16,1.77,1.77,0,0,1-1.26.46A1.8,1.8,0,0,1,145,18.12Zm-.14,1.8h2.81V29.6h-2.81Z"/><path class="cls-3" d="M152.13,29.11a4.75,4.75,0,0,1-1.93-1.78,4.82,4.82,0,0,1-.69-2.57,4.88,4.88,0,0,1,.69-2.58,4.79,4.79,0,0,1,1.93-1.77,6,6,0,0,1,2.78-.64,5.44,5.44,0,0,1,2.67.64,3.85,3.85,0,0,1,1.67,1.83l-2.18,1.17a2.38,2.38,0,0,0-2.18-1.33,2.47,2.47,0,0,0-1.82.72,2.64,2.64,0,0,0-.72,2,2.64,2.64,0,0,0,.72,2,2.47,2.47,0,0,0,1.82.72,2.36,2.36,0,0,0,2.18-1.33l2.18,1.19a4,4,0,0,1-1.67,1.8,5.33,5.33,0,0,1-2.67.64A6,6,0,0,1,152.13,29.11Z"/><path class="cls-3" d="M170.33,19.92,166,30.19a5,5,0,0,1-1.65,2.36,4,4,0,0,1-2.37.69,4.79,4.79,0,0,1-1.49-.24,3.13,3.13,0,0,1-1.2-.65l1-2a2.58,2.58,0,0,0,.75.45,2.49,2.49,0,0,0,.83.16,1.46,1.46,0,0,0,.94-.28,2.41,2.41,0,0,0,.65-.93l0-.09-4.19-9.75h2.9l2.72,6.57,2.73-6.57Z"/><path class="cls-3" d="M188.24,29.6l0-7.56-3.7,6.23H183.2l-3.69-6.07v7.4h-2.73V17h2.41l4.71,7.83L188.55,17h2.39l0,12.6Z"/><path class="cls-3" d="M201.13,20.84a4.12,4.12,0,0,1,1.21,3.23V29.6h-2.63V28.39a3.13,3.13,0,0,1-3,1.35,4.63,4.63,0,0,1-1.94-.37,3,3,0,0,1-1.25-1.05,2.69,2.69,0,0,1-.43-1.51,2.51,2.51,0,0,1,1-2.12,5.12,5.12,0,0,1,3.14-.78h2.23A1.79,1.79,0,0,0,199,22.5a2.45,2.45,0,0,0-1.67-.5,4.61,4.61,0,0,0-1.52.25,4,4,0,0,0-1.27.65l-1-2a6,6,0,0,1,1.9-.86,8.26,8.26,0,0,1,2.28-.31A5,5,0,0,1,201.13,20.84Zm-2.39,6.68a1.84,1.84,0,0,0,.79-1v-1H197.6c-1.15,0-1.72.38-1.72,1.13a1,1,0,0,0,.42.86,1.9,1.9,0,0,0,1.16.31A2.49,2.49,0,0,0,198.74,27.52Z"/><path class="cls-3" d="M209,25.8l-1.35,1.33V29.6h-2.81V16.24h2.81V23.8l4.11-3.88h3.34l-4,4.1,4.39,5.58h-3.4Z"/><path class="cls-3" d="M216.83,18.12a1.52,1.52,0,0,1,0-2.24,1.77,1.77,0,0,1,1.26-.45,1.84,1.84,0,0,1,1.26.44,1.37,1.37,0,0,1,.48,1.08,1.55,1.55,0,0,1-.48,1.16,1.81,1.81,0,0,1-1.26.46A1.77,1.77,0,0,1,216.83,18.12Zm-.15,1.8h2.81V29.6h-2.81Z"/><path class="cls-3" d="M230.89,20.85A4.28,4.28,0,0,1,232,24.06V29.6h-2.81V24.49a2.56,2.56,0,0,0-.5-1.72,1.85,1.85,0,0,0-1.46-.57,2.22,2.22,0,0,0-1.69.66,2.72,2.72,0,0,0-.63,1.95V29.6H222.1V19.92h2.68v1.13a3.68,3.68,0,0,1,1.39-.94,4.68,4.68,0,0,1,1.82-.34A4,4,0,0,1,230.89,20.85Z"/><path class="cls-3" d="M244.64,19.92V28a5.18,5.18,0,0,1-1.39,4,5.73,5.73,0,0,1-4.05,1.3,10,10,0,0,1-2.66-.35,5.56,5.56,0,0,1-2.09-1l1.11-2a4.81,4.81,0,0,0,1.55.8A6.14,6.14,0,0,0,239,31a3.05,3.05,0,0,0,2.16-.66,2.63,2.63,0,0,0,.69-2v-.41a3.93,3.93,0,0,1-3.06,1.2,5.14,5.14,0,0,1-2.44-.58,4.51,4.51,0,0,1-1.76-1.65,5,5,0,0,1,0-4.9,4.55,4.55,0,0,1,1.76-1.64,5.15,5.15,0,0,1,2.44-.59,3.82,3.82,0,0,1,3.2,1.39V19.92Zm-3.49,6.25a2.44,2.44,0,0,0,0-3.44,2.56,2.56,0,0,0-1.82-.65,2.61,2.61,0,0,0-1.84.65,2.41,2.41,0,0,0,0,3.44,2.61,2.61,0,0,0,1.84.66A2.56,2.56,0,0,0,241.15,26.17Z"/><path class="cls-3" d="M259.7,20.84a4.09,4.09,0,0,1,1.21,3.23V29.6h-2.63V28.39a3.13,3.13,0,0,1-2.95,1.35,4.63,4.63,0,0,1-1.94-.37,3,3,0,0,1-1.25-1.05,2.69,2.69,0,0,1-.43-1.51,2.51,2.51,0,0,1,1-2.12,5.12,5.12,0,0,1,3.14-.78h2.23a1.79,1.79,0,0,0-.56-1.41,2.45,2.45,0,0,0-1.67-.5,4.61,4.61,0,0,0-1.52.25,4.1,4.1,0,0,0-1.27.65l-1-2a6,6,0,0,1,1.9-.86,8.31,8.31,0,0,1,2.28-.31A5,5,0,0,1,259.7,20.84Zm-2.39,6.68a1.84,1.84,0,0,0,.79-1v-1h-1.93c-1.15,0-1.72.38-1.72,1.13a1,1,0,0,0,.42.86,1.9,1.9,0,0,0,1.16.31A2.46,2.46,0,0,0,257.31,27.52Z"/><path class="cls-3" d="M272.24,20.85a4.28,4.28,0,0,1,1.11,3.21V29.6h-2.81V24.49a2.51,2.51,0,0,0-.51-1.72,1.83,1.83,0,0,0-1.45-.57,2.24,2.24,0,0,0-1.7.66,2.72,2.72,0,0,0-.63,1.95V29.6h-2.8V19.92h2.68v1.13a3.64,3.64,0,0,1,1.38-.94,4.72,4.72,0,0,1,1.82-.34A4,4,0,0,1,272.24,20.85Z"/><path class="cls-3" d="M285.86,16.24V29.6h-2.69V28.48a3.69,3.69,0,0,1-3,1.26,5,5,0,0,1-2.48-.61,4.45,4.45,0,0,1-1.73-1.74,5.8,5.8,0,0,1,0-5.26,4.41,4.41,0,0,1,1.73-1.75,5.15,5.15,0,0,1,2.48-.61,3.69,3.69,0,0,1,2.9,1.17v-4.7ZM282.4,26.71a2.68,2.68,0,0,0,.7-1.95,2.66,2.66,0,0,0-.7-2,2.34,2.34,0,0,0-1.76-.73,2.37,2.37,0,0,0-1.79.73,2.71,2.71,0,0,0-.7,2,2.72,2.72,0,0,0,.7,1.95,2.37,2.37,0,0,0,1.79.73A2.34,2.34,0,0,0,282.4,26.71Z"/><path class="cls-3" d="M293.74,17h2.92V29.6h-2.92Z"/><path class="cls-3" d="M308.24,20.85a4.28,4.28,0,0,1,1.1,3.21V29.6h-2.8V24.49a2.51,2.51,0,0,0-.51-1.72,1.83,1.83,0,0,0-1.46-.57,2.24,2.24,0,0,0-1.69.66,2.72,2.72,0,0,0-.63,1.95V29.6h-2.81V19.92h2.69v1.13a3.64,3.64,0,0,1,1.38-.94,4.68,4.68,0,0,1,1.82-.34A4,4,0,0,1,308.24,20.85Z"/><path class="cls-3" d="M312.78,29.45A6.08,6.08,0,0,1,311,28.7l.93-2a5.67,5.67,0,0,0,1.57.68,6.69,6.69,0,0,0,1.8.26c1.19,0,1.78-.29,1.78-.88a.62.62,0,0,0-.49-.6,6.94,6.94,0,0,0-1.49-.3,13.58,13.58,0,0,1-2-.42,3,3,0,0,1-1.34-.82,2.36,2.36,0,0,1-.57-1.7,2.64,2.64,0,0,1,.53-1.62,3.33,3.33,0,0,1,1.55-1.11,6.49,6.49,0,0,1,2.4-.4,9.47,9.47,0,0,1,2,.23,5.67,5.67,0,0,1,1.68.62l-.94,2a5.58,5.58,0,0,0-2.79-.72,2.82,2.82,0,0,0-1.35.25.74.74,0,0,0-.45.65.64.64,0,0,0,.49.63,8.72,8.72,0,0,0,1.55.34,16.07,16.07,0,0,1,1.94.42,2.89,2.89,0,0,1,1.31.82,2.3,2.3,0,0,1,.56,1.66,2.56,2.56,0,0,1-.54,1.6,3.43,3.43,0,0,1-1.57,1.09,7,7,0,0,1-2.46.38A9.36,9.36,0,0,1,312.78,29.45Z"/><path class="cls-3" d="M327.69,29.13a2.81,2.81,0,0,1-1,.46,5.26,5.26,0,0,1-1.27.15,3.76,3.76,0,0,1-2.67-.88,3.38,3.38,0,0,1-1-2.59v-4h-1.49V20.13h1.49V17.77h2.81v2.36H327v2.16h-2.41v3.94a1.33,1.33,0,0,0,.32.95,1.16,1.16,0,0,0,.89.33,1.8,1.8,0,0,0,1.13-.36Z"/><path class="cls-3" d="M329.42,18.12a1.52,1.52,0,0,1,0-2.24,1.77,1.77,0,0,1,1.26-.45,1.8,1.8,0,0,1,1.25.44,1.35,1.35,0,0,1,.49,1.08,1.53,1.53,0,0,1-.49,1.16,2,2,0,0,1-2.51,0Zm-.15,1.8h2.81V29.6h-2.81Z"/><path class="cls-3" d="M340.93,29.13a2.69,2.69,0,0,1-1,.46,5.32,5.32,0,0,1-1.27.15,3.78,3.78,0,0,1-2.68-.88,3.37,3.37,0,0,1-.94-2.59v-4h-1.49V20.13H335V17.77h2.81v2.36h2.41v2.16h-2.41v3.94a1.33,1.33,0,0,0,.31.95,1.18,1.18,0,0,0,.89.33,1.81,1.81,0,0,0,1.14-.36Z"/><path class="cls-3" d="M352.27,19.92V29.6h-2.66V28.45a3.72,3.72,0,0,1-1.33,1,4.27,4.27,0,0,1-1.68.33,4.12,4.12,0,0,1-3-1.09,4.41,4.41,0,0,1-1.12-3.26V19.92h2.81v5c0,1.56.66,2.34,2,2.34a2.07,2.07,0,0,0,1.62-.65,2.78,2.78,0,0,0,.62-2V19.92Z"/><path class="cls-3" d="M361.13,29.13a2.81,2.81,0,0,1-1,.46,5.2,5.2,0,0,1-1.27.15,3.76,3.76,0,0,1-2.67-.88,3.37,3.37,0,0,1-.94-2.59v-4h-1.5V20.13h1.5V17.77H358v2.36h2.42v2.16H358v3.94a1.33,1.33,0,0,0,.32.95,1.18,1.18,0,0,0,.89.33,1.8,1.8,0,0,0,1.13-.36Z"/><path class="cls-3" d="M362.86,18.12a1.53,1.53,0,0,1,0-2.24,1.77,1.77,0,0,1,1.26-.45,1.84,1.84,0,0,1,1.26.44,1.37,1.37,0,0,1,.48,1.08,1.55,1.55,0,0,1-.48,1.16,1.81,1.81,0,0,1-1.26.46A1.77,1.77,0,0,1,362.86,18.12Zm-.15,1.8h2.81V29.6h-2.81Z"/><path class="cls-3" d="M370,29.11a4.67,4.67,0,0,1-1.9-1.78,4.82,4.82,0,0,1-.69-2.57,4.88,4.88,0,0,1,.69-2.58,4.71,4.71,0,0,1,1.9-1.77,6.19,6.19,0,0,1,5.48,0,4.88,4.88,0,0,1,1.89,1.77,5,5,0,0,1,.68,2.58,4.91,4.91,0,0,1-.68,2.57,4.84,4.84,0,0,1-1.89,1.78,6.27,6.27,0,0,1-5.48,0Zm4.51-2.4a2.72,2.72,0,0,0,.7-1.95,2.71,2.71,0,0,0-.7-2,2.32,2.32,0,0,0-1.77-.73,2.35,2.35,0,0,0-1.78.73,2.66,2.66,0,0,0-.7,2,2.68,2.68,0,0,0,.7,1.95,2.35,2.35,0,0,0,1.78.73A2.32,2.32,0,0,0,374.51,26.71Z"/><path class="cls-3" d="M388.72,20.85a4.32,4.32,0,0,1,1.1,3.21V29.6H387V24.49a2.51,2.51,0,0,0-.5-1.72,1.85,1.85,0,0,0-1.46-.57,2.22,2.22,0,0,0-1.69.66,2.72,2.72,0,0,0-.63,1.95V29.6h-2.81V19.92h2.68v1.13a3.76,3.76,0,0,1,1.39-.94,4.68,4.68,0,0,1,1.82-.34A4,4,0,0,1,388.72,20.85Z"/><path class="cls-3" d="M399.72,20.84a4.09,4.09,0,0,1,1.21,3.23V29.6H398.3V28.39a3.13,3.13,0,0,1-2.95,1.35,4.63,4.63,0,0,1-1.94-.37,3,3,0,0,1-1.25-1.05,2.69,2.69,0,0,1-.43-1.51,2.51,2.51,0,0,1,1-2.12,5.12,5.12,0,0,1,3.14-.78h2.23a1.79,1.79,0,0,0-.56-1.41,2.45,2.45,0,0,0-1.67-.5,4.61,4.61,0,0,0-1.52.25,4.1,4.1,0,0,0-1.27.65l-1-2a6,6,0,0,1,1.9-.86,8.31,8.31,0,0,1,2.28-.31A5,5,0,0,1,399.72,20.84Zm-2.39,6.68a1.84,1.84,0,0,0,.79-1v-1h-1.93c-1.15,0-1.72.38-1.72,1.13a1,1,0,0,0,.42.86,1.9,1.9,0,0,0,1.16.31A2.46,2.46,0,0,0,397.33,27.52Z"/><path class="cls-3" d="M403.47,16.24h2.8V29.6h-2.8Z"/><path class="cls-3" d="M117.37,50.58a6.22,6.22,0,0,1-2.45-2.32,6.79,6.79,0,0,1,0-6.72,6.22,6.22,0,0,1,2.45-2.32,7.24,7.24,0,0,1,3.5-.84,7.41,7.41,0,0,1,3,.58,5.9,5.9,0,0,1,2.22,1.66l-1.87,1.72A4,4,0,0,0,121,40.87a4.19,4.19,0,0,0-2.08.51,3.67,3.67,0,0,0-1.44,1.43,4.54,4.54,0,0,0,0,4.18,3.67,3.67,0,0,0,1.44,1.43,4.19,4.19,0,0,0,2.08.51,4,4,0,0,0,3.17-1.49l1.87,1.73a5.78,5.78,0,0,1-2.23,1.67,7.49,7.49,0,0,1-3,.58A7.22,7.22,0,0,1,117.37,50.58Z"/><path class="cls-3" d="M135.11,42.44a4.12,4.12,0,0,1,1.2,3.23V51.2h-2.62V50a3.15,3.15,0,0,1-3,1.35A4.58,4.58,0,0,1,128.8,51a2.9,2.9,0,0,1-1.25-1,2.69,2.69,0,0,1-.43-1.51,2.5,2.5,0,0,1,1-2.12,5.17,5.17,0,0,1,3.14-.78h2.24A1.79,1.79,0,0,0,133,44.1a2.46,2.46,0,0,0-1.68-.5,5,5,0,0,0-1.52.25,4.1,4.1,0,0,0-1.27.65l-1-2a6,6,0,0,1,1.89-.86,8.31,8.31,0,0,1,2.28-.31A5.08,5.08,0,0,1,135.11,42.44Zm-2.4,6.68a1.82,1.82,0,0,0,.8-1v-1h-1.93c-1.15,0-1.73.38-1.73,1.13a1,1,0,0,0,.42.86,1.93,1.93,0,0,0,1.17.31A2.43,2.43,0,0,0,132.71,49.12Z"/><path class="cls-3" d="M147,42a4.5,4.5,0,0,1,1.74,1.75,5.76,5.76,0,0,1,0,5.24A4.41,4.41,0,0,1,147,50.72a4.89,4.89,0,0,1-2.46.62,3.74,3.74,0,0,1-2.91-1.17v4.52h-2.81V41.52h2.68v1.11a3.73,3.73,0,0,1,3-1.26A5,5,0,0,1,147,42Zm-1.17,6.32a3.1,3.1,0,0,0,0-3.9,2.51,2.51,0,0,0-3.54,0,3.07,3.07,0,0,0,0,3.9,2.51,2.51,0,0,0,3.54,0Z"/><path class="cls-3" d="M158.47,42.44a4.12,4.12,0,0,1,1.21,3.23V51.2h-2.63V50a3.13,3.13,0,0,1-3,1.35,4.63,4.63,0,0,1-1.94-.37,3,3,0,0,1-1.25-1,2.69,2.69,0,0,1-.43-1.51,2.51,2.51,0,0,1,1-2.12,5.12,5.12,0,0,1,3.14-.78h2.23a1.79,1.79,0,0,0-.56-1.41,2.45,2.45,0,0,0-1.67-.5,4.89,4.89,0,0,0-1.52.25,4,4,0,0,0-1.27.65l-1-2a6,6,0,0,1,1.9-.86,8.24,8.24,0,0,1,2.27-.31A5.06,5.06,0,0,1,158.47,42.44Zm-2.39,6.68a1.84,1.84,0,0,0,.79-1v-1h-1.93c-1.15,0-1.72.38-1.72,1.13a1,1,0,0,0,.42.86,1.9,1.9,0,0,0,1.16.31A2.49,2.49,0,0,0,156.08,49.12Z"/><path class="cls-3" d="M164.22,50.71a4.89,4.89,0,0,1,0-8.7,6,6,0,0,1,2.78-.64,5.5,5.5,0,0,1,2.68.64,3.83,3.83,0,0,1,1.66,1.83L169.16,45A2.37,2.37,0,0,0,167,43.68a2.45,2.45,0,0,0-1.81.72,3,3,0,0,0,0,3.92A2.45,2.45,0,0,0,167,49a2.35,2.35,0,0,0,2.18-1.33l2.18,1.19a4,4,0,0,1-1.66,1.8,5.39,5.39,0,0,1-2.68.64A6,6,0,0,1,164.22,50.71Z"/><path class="cls-3" d="M173.1,39.72a1.55,1.55,0,0,1,0-2.24,2,2,0,0,1,2.52,0,1.35,1.35,0,0,1,.49,1.08,1.53,1.53,0,0,1-.49,1.16,1.77,1.77,0,0,1-1.26.46A1.8,1.8,0,0,1,173.1,39.72Zm-.14,1.8h2.81V51.2H173Z"/><path class="cls-3" d="M184.62,50.73a2.69,2.69,0,0,1-1,.46,5.26,5.26,0,0,1-1.27.15,3.76,3.76,0,0,1-2.67-.88,3.38,3.38,0,0,1-.95-2.59v-4h-1.49V41.73h1.49V39.37h2.81v2.36h2.41v2.16h-2.41v3.94a1.33,1.33,0,0,0,.31,1,1.18,1.18,0,0,0,.89.33,1.81,1.81,0,0,0,1.14-.36Z"/><path class="cls-3" d="M195.64,41.52l-4.37,10.27a5.09,5.09,0,0,1-1.65,2.36,4,4,0,0,1-2.37.69,4.79,4.79,0,0,1-1.49-.24,3.18,3.18,0,0,1-1.21-.65l1-2a2.34,2.34,0,0,0,.75.45,2.49,2.49,0,0,0,.83.16,1.46,1.46,0,0,0,.94-.28,2.52,2.52,0,0,0,.65-.93l0-.09-4.19-9.75h2.9l2.71,6.57,2.74-6.57Z"/><path class="cls-3" d="M213,45.79a3.15,3.15,0,0,1,.61,2,2.92,2.92,0,0,1-1.29,2.55,6.59,6.59,0,0,1-3.75.89h-6.52V38.6h6.16a6,6,0,0,1,3.54.88,2.8,2.8,0,0,1,1.23,2.4,3.08,3.08,0,0,1-.44,1.63,3.22,3.22,0,0,1-1.23,1.14A3.36,3.36,0,0,1,213,45.79Zm-8.05-5v3h2.9a2.94,2.94,0,0,0,1.64-.38,1.27,1.27,0,0,0,.56-1.12,1.23,1.23,0,0,0-.56-1.1,3,3,0,0,0-1.64-.37Zm5.14,7.83a1.32,1.32,0,0,0,.59-1.17c0-1.05-.78-1.57-2.33-1.57H205V49h3.4A3.26,3.26,0,0,0,210.12,48.63Z"/><path class="cls-3" d="M225.41,41.52V51.2h-2.66V50.05a3.72,3.72,0,0,1-1.33,1,4.27,4.27,0,0,1-1.68.33,4.12,4.12,0,0,1-3-1.09A4.37,4.37,0,0,1,215.6,47V41.52h2.81v5c0,1.56.65,2.34,2,2.34a2.1,2.1,0,0,0,1.62-.65,2.77,2.77,0,0,0,.61-2V41.52Z"/><path class="cls-3" d="M228.17,39.72a1.53,1.53,0,0,1,0-2.24,1.77,1.77,0,0,1,1.26-.45,1.84,1.84,0,0,1,1.26.44,1.37,1.37,0,0,1,.48,1.08,1.55,1.55,0,0,1-.48,1.16,1.81,1.81,0,0,1-1.26.46A1.77,1.77,0,0,1,228.17,39.72Zm-.15,1.8h2.81V51.2H228Z"/><path class="cls-3" d="M233.44,37.84h2.81V51.2h-2.81Z"/><path class="cls-3" d="M248.72,37.84V51.2H246V50.08a3.7,3.7,0,0,1-3,1.26,5,5,0,0,1-2.48-.61A4.41,4.41,0,0,1,238.8,49a5.8,5.8,0,0,1,0-5.26A4.37,4.37,0,0,1,240.54,42a5.12,5.12,0,0,1,2.48-.61,3.67,3.67,0,0,1,2.89,1.17v-4.7Zm-3.45,10.47a3.07,3.07,0,0,0,0-3.9,2.52,2.52,0,0,0-3.55,0,3.07,3.07,0,0,0,0,3.9,2.52,2.52,0,0,0,3.55,0Z"/><path class="cls-3" d="M251.46,39.72a1.53,1.53,0,0,1,0-2.24,1.77,1.77,0,0,1,1.26-.45,1.84,1.84,0,0,1,1.26.44,1.37,1.37,0,0,1,.48,1.08,1.55,1.55,0,0,1-.48,1.16,1.81,1.81,0,0,1-1.26.46A1.77,1.77,0,0,1,251.46,39.72Zm-.15,1.8h2.81V51.2h-2.81Z"/><path class="cls-3" d="M265.52,42.45a4.28,4.28,0,0,1,1.11,3.21V51.2h-2.81V46.09a2.51,2.51,0,0,0-.5-1.72,1.85,1.85,0,0,0-1.46-.57,2.22,2.22,0,0,0-1.69.66,2.72,2.72,0,0,0-.63,1.95V51.2h-2.81V41.52h2.68v1.13a3.76,3.76,0,0,1,1.39-.94,4.68,4.68,0,0,1,1.82-.34A4,4,0,0,1,265.52,42.45Z"/><path class="cls-3" d="M279.27,41.52v8.06a5.14,5.14,0,0,1-1.39,4,5.73,5.73,0,0,1-4.05,1.3,10,10,0,0,1-2.66-.35,5.56,5.56,0,0,1-2.09-1l1.12-2a4.66,4.66,0,0,0,1.54.8,6.15,6.15,0,0,0,1.88.3,3,3,0,0,0,2.15-.66,2.63,2.63,0,0,0,.69-2v-.41a3.93,3.93,0,0,1-3.06,1.2,5.14,5.14,0,0,1-2.44-.58,4.41,4.41,0,0,1-1.75-1.65,4.94,4.94,0,0,1,0-4.9A4.46,4.46,0,0,1,271,42a5.15,5.15,0,0,1,2.44-.59,3.82,3.82,0,0,1,3.2,1.39V41.52Zm-3.49,6.25a2.41,2.41,0,0,0,0-3.44,2.6,2.6,0,0,0-1.82-.65,2.65,2.65,0,0,0-1.84.65,2.41,2.41,0,0,0,0,3.44,2.61,2.61,0,0,0,1.84.66A2.56,2.56,0,0,0,275.78,47.77Z"/><path class="cls-3" d="M290.05,41.73h2.48v2.16h-2.41V51.2h-2.81V43.89h-1.49V41.73h1.49V41.3a3.56,3.56,0,0,1,1-2.63,3.77,3.77,0,0,1,2.77-1,5.63,5.63,0,0,1,1.19.13,3.09,3.09,0,0,1,.95.39l-.74,2a1.9,1.9,0,0,0-1.13-.35c-.86,0-1.28.47-1.28,1.41Z"/><path class="cls-3" d="M295.67,50.71a4.8,4.8,0,0,1-1.9-1.78,4.91,4.91,0,0,1-.68-2.57,5,5,0,0,1,.68-2.58,4.84,4.84,0,0,1,1.9-1.77,5.9,5.9,0,0,1,2.75-.64,5.79,5.79,0,0,1,2.73.64,4.84,4.84,0,0,1,1.9,1.77,5,5,0,0,1,.68,2.58,4.91,4.91,0,0,1-.68,2.57,4.8,4.8,0,0,1-1.9,1.78,5.78,5.78,0,0,1-2.73.63A5.9,5.9,0,0,1,295.67,50.71Zm4.52-2.4a3.07,3.07,0,0,0,0-3.9,2.52,2.52,0,0,0-3.55,0,3,3,0,0,0,0,3.9,2.52,2.52,0,0,0,3.55,0Z"/><path class="cls-3" d="M309.64,41.73a5.05,5.05,0,0,1,2-.36V44l-.63,0a2.58,2.58,0,0,0-1.89.67,2.76,2.76,0,0,0-.68,2V51.2H305.6V41.52h2.68v1.27A3.2,3.2,0,0,1,309.64,41.73Z"/><path class="cls-3" d="M318.65,38.6h2.92V51.2h-2.92Z"/><path class="cls-3" d="M333.15,42.45a4.28,4.28,0,0,1,1.11,3.21V51.2h-2.81V46.09a2.51,2.51,0,0,0-.51-1.72,1.83,1.83,0,0,0-1.45-.57,2.22,2.22,0,0,0-1.69.66,2.68,2.68,0,0,0-.64,1.95V51.2h-2.8V41.52H327v1.13a3.61,3.61,0,0,1,1.39-.94,4.63,4.63,0,0,1,1.81-.34A4,4,0,0,1,333.15,42.45Z"/><path class="cls-3" d="M338.8,50.71a4.89,4.89,0,0,1,0-8.7,6,6,0,0,1,2.78-.64,5.5,5.5,0,0,1,2.68.64,3.83,3.83,0,0,1,1.66,1.83L343.74,45a2.37,2.37,0,0,0-2.18-1.33,2.45,2.45,0,0,0-1.81.72,3,3,0,0,0,0,3.92,2.45,2.45,0,0,0,1.81.72,2.35,2.35,0,0,0,2.18-1.33l2.18,1.19a4,4,0,0,1-1.66,1.8,5.39,5.39,0,0,1-2.68.64A6,6,0,0,1,338.8,50.71Z"/><path class="cls-3" d="M347.47,37.84h2.81V51.2h-2.81Z"/><path class="cls-3" d="M362.64,41.52V51.2H360V50.05a3.72,3.72,0,0,1-1.33,1,4.27,4.27,0,0,1-1.68.33,4.12,4.12,0,0,1-3-1.09A4.37,4.37,0,0,1,352.83,47V41.52h2.81v5c0,1.56.65,2.34,2,2.34a2.1,2.1,0,0,0,1.62-.65,2.77,2.77,0,0,0,.61-2V41.52Z"/><path class="cls-3" d="M366.15,51.05a6.08,6.08,0,0,1-1.83-.75l.93-2a5.67,5.67,0,0,0,1.57.68,6.69,6.69,0,0,0,1.8.26c1.19,0,1.78-.29,1.78-.88a.62.62,0,0,0-.49-.6,6.94,6.94,0,0,0-1.49-.3,13.58,13.58,0,0,1-2-.42,3,3,0,0,1-1.34-.82,2.36,2.36,0,0,1-.57-1.7,2.64,2.64,0,0,1,.53-1.62,3.33,3.33,0,0,1,1.55-1.11,6.49,6.49,0,0,1,2.4-.4,9.47,9.47,0,0,1,2.05.23,5.67,5.67,0,0,1,1.68.62l-.94,2A5.58,5.58,0,0,0,369,43.5a2.82,2.82,0,0,0-1.35.25.74.74,0,0,0-.45.65.64.64,0,0,0,.49.63,8.72,8.72,0,0,0,1.55.34,16.07,16.07,0,0,1,1.94.42,2.89,2.89,0,0,1,1.31.82,2.3,2.3,0,0,1,.56,1.66,2.56,2.56,0,0,1-.54,1.6A3.43,3.43,0,0,1,371,51a7.23,7.23,0,0,1-2.46.38A9.36,9.36,0,0,1,366.15,51.05Z"/><path class="cls-3" d="M375,39.72a1.55,1.55,0,0,1,0-2.24,2,2,0,0,1,2.52,0,1.35,1.35,0,0,1,.49,1.08,1.53,1.53,0,0,1-.49,1.16,1.77,1.77,0,0,1-1.26.46A1.8,1.8,0,0,1,375,39.72Zm-.14,1.8h2.81V51.2h-2.81Z"/><path class="cls-3" d="M389.84,41.52l-4.09,9.68h-2.89l-4.07-9.68h2.9l2.68,6.58,2.77-6.58Z"/><path class="cls-3" d="M400.15,47.15h-7.32a2.27,2.27,0,0,0,.93,1.42,3.12,3.12,0,0,0,1.84.52,3.73,3.73,0,0,0,1.34-.22,3.35,3.35,0,0,0,1.09-.71l1.49,1.62a5,5,0,0,1-4,1.56,6.41,6.41,0,0,1-2.9-.63,4.65,4.65,0,0,1-1.94-1.78,4.82,4.82,0,0,1-.69-2.57,5,5,0,0,1,.68-2.57A4.8,4.8,0,0,1,392.53,42a5.54,5.54,0,0,1,2.64-.64,5.48,5.48,0,0,1,2.57.61,4.51,4.51,0,0,1,1.81,1.76,5.21,5.21,0,0,1,.66,2.65S400.19,46.68,400.15,47.15ZM393.58,44a2.32,2.32,0,0,0-.79,1.47h4.77a2.32,2.32,0,0,0-.79-1.47,2.38,2.38,0,0,0-1.58-.54A2.45,2.45,0,0,0,393.58,44Z"/><path class="cls-3" d="M122,64a4.12,4.12,0,0,1,1.2,3.23V72.8h-2.63V71.59a3.12,3.12,0,0,1-3,1.35,4.58,4.58,0,0,1-1.93-.37,2.84,2.84,0,0,1-1.25-1A2.7,2.7,0,0,1,114,70a2.51,2.51,0,0,1,1-2.12,5.17,5.17,0,0,1,3.14-.78h2.23a1.79,1.79,0,0,0-.55-1.41,2.48,2.48,0,0,0-1.68-.5,5,5,0,0,0-1.52.25,4.1,4.1,0,0,0-1.27.65l-1-2a6,6,0,0,1,1.9-.86,8.31,8.31,0,0,1,2.28-.31A5.08,5.08,0,0,1,122,64Zm-2.4,6.68a1.8,1.8,0,0,0,.79-1v-1h-1.92c-1.16,0-1.73.38-1.73,1.13a1,1,0,0,0,.42.86,1.9,1.9,0,0,0,1.16.31A2.46,2.46,0,0,0,119.59,70.72Z"/><path class="cls-3" d="M134.52,64.05a4.28,4.28,0,0,1,1.11,3.21V72.8h-2.81V67.69a2.56,2.56,0,0,0-.5-1.72,1.86,1.86,0,0,0-1.46-.57,2.22,2.22,0,0,0-1.69.66,2.72,2.72,0,0,0-.63,2V72.8h-2.81V63.12h2.68v1.13a3.74,3.74,0,0,1,1.39-1,4.82,4.82,0,0,1,1.81-.33A4,4,0,0,1,134.52,64.05Z"/><path class="cls-3" d="M148.14,59.44V72.8h-2.68V71.68a3.72,3.72,0,0,1-3,1.26,5,5,0,0,1-2.47-.61,4.41,4.41,0,0,1-1.74-1.74,5.8,5.8,0,0,1,0-5.26A4.37,4.37,0,0,1,140,63.58a5.11,5.11,0,0,1,2.47-.61,3.67,3.67,0,0,1,2.9,1.17v-4.7Zm-3.46,10.47a3,3,0,0,0,0-3.91,2.34,2.34,0,0,0-1.76-.72,2.37,2.37,0,0,0-1.78.72,3,3,0,0,0,0,3.91,2.34,2.34,0,0,0,1.78.73A2.31,2.31,0,0,0,144.68,69.91Z"/><path class="cls-3" d="M164.62,64.05a4.28,4.28,0,0,1,1.1,3.21V72.8h-2.8V67.69a2.51,2.51,0,0,0-.51-1.72A1.83,1.83,0,0,0,161,65.4a2.24,2.24,0,0,0-1.69.66,2.72,2.72,0,0,0-.63,2V72.8h-2.81V63.12h2.69v1.13a3.78,3.78,0,0,1,1.38-1,4.87,4.87,0,0,1,1.82-.33A4,4,0,0,1,164.62,64.05Z"/><path class="cls-3" d="M170.23,72.3a4.7,4.7,0,0,1-1.9-1.77,4.91,4.91,0,0,1-.68-2.57,5,5,0,0,1,.68-2.58,4.84,4.84,0,0,1,1.9-1.77A5.9,5.9,0,0,1,173,63a5.79,5.79,0,0,1,2.73.64,4.75,4.75,0,0,1,1.89,1.77,4.88,4.88,0,0,1,.69,2.58,4.82,4.82,0,0,1-.69,2.57,4.61,4.61,0,0,1-1.89,1.77,5.67,5.67,0,0,1-2.73.64A5.78,5.78,0,0,1,170.23,72.3Zm4.52-2.39a3.11,3.11,0,0,0,0-3.91,2.55,2.55,0,0,0-3.55,0,3,3,0,0,0,0,3.91,2.52,2.52,0,0,0,3.55,0Z"/><path class="cls-3" d="M189,64.05a4.28,4.28,0,0,1,1.11,3.21V72.8h-2.81V67.69a2.56,2.56,0,0,0-.5-1.72,1.85,1.85,0,0,0-1.46-.57,2.22,2.22,0,0,0-1.69.66,2.72,2.72,0,0,0-.63,2V72.8h-2.81V63.12h2.68v1.13a3.82,3.82,0,0,1,1.39-1,4.87,4.87,0,0,1,1.82-.33A4,4,0,0,1,189,64.05Z"/><path class="cls-3" d="M192.24,66.61h5.09v2.25h-5.09Z"/><path class="cls-3" d="M199.74,60.2h5.73a8,8,0,0,1,3.62.78,5.84,5.84,0,0,1,2.45,2.21,6.67,6.67,0,0,1,0,6.62A5.84,5.84,0,0,1,209.09,72a8,8,0,0,1-3.62.78h-5.73Zm5.58,10.21a4.26,4.26,0,0,0,3-1.06,4.19,4.19,0,0,0,0-5.7,4.26,4.26,0,0,0-3-1.06h-2.66v7.82Z"/><path class="cls-3" d="M214.56,61.32a1.53,1.53,0,0,1,0-2.24,1.77,1.77,0,0,1,1.26-.45,1.84,1.84,0,0,1,1.26.44,1.37,1.37,0,0,1,.48,1.08,1.55,1.55,0,0,1-.48,1.16,1.81,1.81,0,0,1-1.26.46A1.77,1.77,0,0,1,214.56,61.32Zm-.15,1.8h2.81V72.8h-2.81Z"/><path class="cls-3" d="M220.73,72.65a6.08,6.08,0,0,1-1.83-.75l.93-2a5.67,5.67,0,0,0,1.57.68,6.69,6.69,0,0,0,1.8.26c1.19,0,1.78-.29,1.78-.88a.62.62,0,0,0-.49-.6A6.94,6.94,0,0,0,223,69a13.58,13.58,0,0,1-2-.42,3,3,0,0,1-1.34-.82,2.36,2.36,0,0,1-.57-1.7,2.64,2.64,0,0,1,.53-1.62,3.33,3.33,0,0,1,1.55-1.11,6.49,6.49,0,0,1,2.4-.4,9.31,9.31,0,0,1,2,.23,5.64,5.64,0,0,1,1.69.62l-.94,2a5.58,5.58,0,0,0-2.79-.72,2.82,2.82,0,0,0-1.35.25.74.74,0,0,0-.45.65.64.64,0,0,0,.49.63,8.78,8.78,0,0,0,1.54.34,15.86,15.86,0,0,1,1.95.42,2.89,2.89,0,0,1,1.31.82,2.35,2.35,0,0,1,.56,1.66,2.56,2.56,0,0,1-.54,1.6,3.43,3.43,0,0,1-1.57,1.09,7.23,7.23,0,0,1-2.46.38A9.84,9.84,0,0,1,220.73,72.65Z"/><path class="cls-3" d="M231.29,72.3a4.72,4.72,0,0,1-1.93-1.77,4.82,4.82,0,0,1-.69-2.57,4.73,4.73,0,0,1,2.62-4.35,6,6,0,0,1,2.78-.64,5.44,5.44,0,0,1,2.67.64,3.8,3.8,0,0,1,1.67,1.83l-2.18,1.17a2.37,2.37,0,0,0-2.18-1.33,2.47,2.47,0,0,0-1.82.72,3,3,0,0,0,0,3.92,2.47,2.47,0,0,0,1.82.72,2.35,2.35,0,0,0,2.18-1.33l2.18,1.19a3.92,3.92,0,0,1-1.67,1.8,5.33,5.33,0,0,1-2.67.64A5.9,5.9,0,0,1,231.29,72.3Z"/><path class="cls-3" d="M244.07,63.33a5.05,5.05,0,0,1,2-.36v2.59l-.63,0a2.58,2.58,0,0,0-1.89.67,2.72,2.72,0,0,0-.68,2V72.8H240V63.12h2.68v1.27A3.2,3.2,0,0,1,244.07,63.33Z"/><path class="cls-3" d="M247.86,61.32a1.53,1.53,0,0,1,0-2.24,1.77,1.77,0,0,1,1.26-.45,1.84,1.84,0,0,1,1.26.44,1.37,1.37,0,0,1,.48,1.08,1.55,1.55,0,0,1-.48,1.16,1.81,1.81,0,0,1-1.26.46A1.77,1.77,0,0,1,247.86,61.32Zm-.15,1.8h2.81V72.8h-2.81Z"/><path class="cls-3" d="M268.42,64a4.36,4.36,0,0,1,1.07,3.22V72.8h-2.81V67.69a2.62,2.62,0,0,0-.47-1.72,1.68,1.68,0,0,0-1.36-.57,2,2,0,0,0-1.57.64,2.78,2.78,0,0,0-.57,1.9V72.8H259.9V67.69c0-1.53-.61-2.29-1.84-2.29a2,2,0,0,0-1.55.64,2.78,2.78,0,0,0-.57,1.9V72.8h-2.81V63.12h2.68v1.11a3.41,3.41,0,0,1,1.33-.93,4.34,4.34,0,0,1,1.71-.33,4.17,4.17,0,0,1,1.86.41A3.23,3.23,0,0,1,262,64.56a3.92,3.92,0,0,1,1.5-1.17,4.7,4.7,0,0,1,2-.42A3.9,3.9,0,0,1,268.42,64Z"/><path class="cls-3" d="M272.16,61.32a1.53,1.53,0,0,1,0-2.24,1.77,1.77,0,0,1,1.26-.45,1.84,1.84,0,0,1,1.26.44,1.37,1.37,0,0,1,.48,1.08,1.55,1.55,0,0,1-.48,1.16,1.81,1.81,0,0,1-1.26.46A1.77,1.77,0,0,1,272.16,61.32Zm-.15,1.8h2.81V72.8H272Z"/><path class="cls-3" d="M286.22,64.05a4.28,4.28,0,0,1,1.11,3.21V72.8h-2.81V67.69A2.56,2.56,0,0,0,284,66a1.85,1.85,0,0,0-1.46-.57,2.22,2.22,0,0,0-1.69.66,2.72,2.72,0,0,0-.63,2V72.8h-2.81V63.12h2.68v1.13a3.82,3.82,0,0,1,1.39-1,4.87,4.87,0,0,1,1.82-.33A4,4,0,0,1,286.22,64.05Z"/><path class="cls-3" d="M297.23,64a4.09,4.09,0,0,1,1.21,3.23V72.8h-2.63V71.59a3.13,3.13,0,0,1-2.95,1.35,4.63,4.63,0,0,1-1.94-.37,3,3,0,0,1-1.25-1,2.69,2.69,0,0,1-.43-1.51,2.51,2.51,0,0,1,1-2.12,5.12,5.12,0,0,1,3.14-.78h2.23a1.79,1.79,0,0,0-.56-1.41,2.45,2.45,0,0,0-1.67-.5,4.89,4.89,0,0,0-1.52.25,4.1,4.1,0,0,0-1.27.65l-1-2a6,6,0,0,1,1.9-.86,8.31,8.31,0,0,1,2.28-.31A5,5,0,0,1,297.23,64Zm-2.39,6.68a1.84,1.84,0,0,0,.79-1v-1H293.7c-1.15,0-1.72.38-1.72,1.13a1,1,0,0,0,.42.86,1.9,1.9,0,0,0,1.16.31A2.46,2.46,0,0,0,294.84,70.72Z"/><path class="cls-3" d="M307.22,72.33a2.74,2.74,0,0,1-1,.46,5.2,5.2,0,0,1-1.27.15,3.76,3.76,0,0,1-2.67-.88,3.37,3.37,0,0,1-.94-2.59v-4h-1.5V63.33h1.5V61h2.81v2.36h2.41v2.16h-2.41v3.94a1.33,1.33,0,0,0,.31.95,1.18,1.18,0,0,0,.89.33,1.85,1.85,0,0,0,1.14-.36Z"/><path class="cls-3" d="M310.36,72.3a4.7,4.7,0,0,1-1.9-1.77,4.91,4.91,0,0,1-.68-2.57,5,5,0,0,1,.68-2.58,4.84,4.84,0,0,1,1.9-1.77,5.9,5.9,0,0,1,2.75-.64,5.79,5.79,0,0,1,2.73.64,4.75,4.75,0,0,1,1.89,1.77,4.88,4.88,0,0,1,.69,2.58,4.82,4.82,0,0,1-.69,2.57,4.61,4.61,0,0,1-1.89,1.77,5.67,5.67,0,0,1-2.73.64A5.78,5.78,0,0,1,310.36,72.3Zm4.52-2.39a3.11,3.11,0,0,0,0-3.91,2.34,2.34,0,0,0-1.77-.72,2.4,2.4,0,0,0-1.79.72,3.08,3.08,0,0,0,0,3.91,2.37,2.37,0,0,0,1.79.73A2.32,2.32,0,0,0,314.88,69.91Z"/><path class="cls-3" d="M324.33,63.33a5.05,5.05,0,0,1,2-.36v2.59l-.63,0a2.58,2.58,0,0,0-1.89.67,2.72,2.72,0,0,0-.68,2V72.8h-2.81V63.12H323v1.27A3.2,3.2,0,0,1,324.33,63.33Z"/><path class="cls-3" d="M337.93,63.12l-4.38,10.27a5,5,0,0,1-1.64,2.36,4,4,0,0,1-2.37.69,4.79,4.79,0,0,1-1.49-.24,3.1,3.1,0,0,1-1.21-.65l1-2a2.41,2.41,0,0,0,.74.45,2.59,2.59,0,0,0,.84.16,1.48,1.48,0,0,0,.94-.28A2.4,2.4,0,0,0,331,73l0-.09-4.19-9.75h2.89l2.72,6.57,2.74-6.57Z"/><path class="cls-3" d="M133.87,81.8l-4.13,12.6h-3.13l-2.77-8.53L121,94.4h-3.12l-4.14-12.6h3l2.84,8.86,3-8.86h2.7l2.88,8.93,2.94-8.93Z"/><path class="cls-3" d="M136.43,93.91a4.8,4.8,0,0,1-1.9-1.78,4.91,4.91,0,0,1-.68-2.57,5,5,0,0,1,.68-2.58,4.84,4.84,0,0,1,1.9-1.77,5.9,5.9,0,0,1,2.75-.64,5.79,5.79,0,0,1,2.73.64A4.75,4.75,0,0,1,143.8,87a4.88,4.88,0,0,1,.69,2.58,4.82,4.82,0,0,1-.69,2.57,4.7,4.7,0,0,1-1.89,1.78,5.78,5.78,0,0,1-2.73.63A5.9,5.9,0,0,1,136.43,93.91Zm4.52-2.4a3.1,3.1,0,0,0,0-3.9,2.32,2.32,0,0,0-1.77-.73,2.37,2.37,0,0,0-1.79.73,3.07,3.07,0,0,0,0,3.9,2.37,2.37,0,0,0,1.79.73A2.32,2.32,0,0,0,141,91.51Z"/><path class="cls-3" d="M150.4,84.93a5.05,5.05,0,0,1,2-.36v2.59l-.63,0a2.58,2.58,0,0,0-1.89.67,2.72,2.72,0,0,0-.68,2V94.4h-2.81V84.72H149V86A3.2,3.2,0,0,1,150.4,84.93Z"/><path class="cls-3" d="M158.2,90.6l-1.35,1.33V94.4H154V81h2.81V88.6L161,84.72h3.34l-4,4.1,4.39,5.58h-3.4Z"/><path class="cls-3" d="M174,85.19a4.5,4.5,0,0,1,1.74,1.75,5.76,5.76,0,0,1,0,5.24A4.41,4.41,0,0,1,174,93.92a4.89,4.89,0,0,1-2.46.62,3.74,3.74,0,0,1-2.91-1.17v4.52h-2.81V84.72h2.68v1.11a3.73,3.73,0,0,1,3-1.26A5,5,0,0,1,174,85.19Zm-1.17,6.32a3.1,3.1,0,0,0,0-3.9,2.51,2.51,0,0,0-3.54,0,3.07,3.07,0,0,0,0,3.9,2.51,2.51,0,0,0,3.54,0Z"/><path class="cls-3" d="M178.27,81h2.81V94.4h-2.81Z"/><path class="cls-3" d="M191.05,85.64a4.12,4.12,0,0,1,1.21,3.23V94.4h-2.63V93.19a3.13,3.13,0,0,1-2.95,1.35,4.63,4.63,0,0,1-1.94-.37,3,3,0,0,1-1.25-1,2.69,2.69,0,0,1-.43-1.51,2.51,2.51,0,0,1,1-2.12,5.12,5.12,0,0,1,3.14-.78h2.23a1.79,1.79,0,0,0-.56-1.41,2.45,2.45,0,0,0-1.67-.5,4.89,4.89,0,0,0-1.52.25,4,4,0,0,0-1.27.65l-1-2a6,6,0,0,1,1.9-.86,8.24,8.24,0,0,1,2.27-.31A5.06,5.06,0,0,1,191.05,85.64Zm-2.39,6.68a1.84,1.84,0,0,0,.79-1v-1h-1.93c-1.15,0-1.72.38-1.72,1.13a1,1,0,0,0,.42.86,1.9,1.9,0,0,0,1.16.31A2.49,2.49,0,0,0,188.66,92.32Z"/><path class="cls-3" d="M196.8,93.91a4.89,4.89,0,0,1,0-8.7,6,6,0,0,1,2.78-.64,5.5,5.5,0,0,1,2.68.64A3.83,3.83,0,0,1,203.92,87l-2.18,1.17a2.37,2.37,0,0,0-2.18-1.33,2.45,2.45,0,0,0-1.81.72,3,3,0,0,0,0,3.92,2.45,2.45,0,0,0,1.81.72,2.35,2.35,0,0,0,2.18-1.33l2.18,1.19a4,4,0,0,1-1.66,1.8,5.39,5.39,0,0,1-2.68.64A6,6,0,0,1,196.8,93.91Z"/><path class="cls-3" d="M214.85,90.35h-7.33a2.25,2.25,0,0,0,.94,1.42,3.07,3.07,0,0,0,1.83.52,3.69,3.69,0,0,0,1.34-.22,3.25,3.25,0,0,0,1.09-.71l1.5,1.62a5.05,5.05,0,0,1-4,1.56,6.41,6.41,0,0,1-2.9-.63,4.65,4.65,0,0,1-1.94-1.78,4.82,4.82,0,0,1-.69-2.57,5,5,0,0,1,.68-2.57,4.8,4.8,0,0,1,1.85-1.78,5.54,5.54,0,0,1,2.64-.64,5.45,5.45,0,0,1,2.57.61,4.51,4.51,0,0,1,1.81,1.76,5.21,5.21,0,0,1,.66,2.65S214.88,89.88,214.85,90.35Zm-6.57-3.11a2.29,2.29,0,0,0-.8,1.47h4.77a2.27,2.27,0,0,0-.79-1.46,2.34,2.34,0,0,0-1.58-.55A2.4,2.4,0,0,0,208.28,87.24Z"/><path class="cls-3" d="M217.67,94.25a6.08,6.08,0,0,1-1.83-.75l.93-2a5.67,5.67,0,0,0,1.57.68,6.69,6.69,0,0,0,1.8.26c1.19,0,1.78-.29,1.78-.88a.62.62,0,0,0-.49-.6,6.94,6.94,0,0,0-1.49-.3,13.58,13.58,0,0,1-2-.42,3,3,0,0,1-1.34-.82,2.36,2.36,0,0,1-.57-1.7,2.64,2.64,0,0,1,.53-1.62A3.38,3.38,0,0,1,218.15,85a6.49,6.49,0,0,1,2.4-.4,9.47,9.47,0,0,1,2,.23,5.67,5.67,0,0,1,1.68.62l-.94,2a5.58,5.58,0,0,0-2.79-.72,2.82,2.82,0,0,0-1.35.25.74.74,0,0,0-.45.65.65.65,0,0,0,.49.63,8.72,8.72,0,0,0,1.55.34,16.07,16.07,0,0,1,1.94.42,3,3,0,0,1,1.32.82,2.34,2.34,0,0,1,.55,1.66,2.56,2.56,0,0,1-.54,1.6,3.43,3.43,0,0,1-1.57,1.09,7,7,0,0,1-2.46.38A9.36,9.36,0,0,1,217.67,94.25Z"/></svg>