<svg id="Layer_1" data-name="Layer 1" xmlns="http://www.w3.org/2000/svg" viewBox="0 0 474.47 113.33"><defs><style>.cls-1{fill:#fff;}.cls-2{fill:#c02034;}.cls-3{fill:#19486a;}</style></defs><rect class="cls-1" width="474.47" height="113.33"/><polygon class="cls-2" points="0 113.33 0 0 113.33 0 0 113.33"/><path class="cls-1" d="M47.48,39.45h-4.1v5.29H37.69V39.45H24.12V35.53L36,19.54h6.12L31.1,34.7h6.77V30h5.51V34.7h4.1Z"/><path class="cls-3" d="M131.37,47.56v2.73H120V35.59H131.1v2.73h-7.73v3.19h6.82v2.65h-6.82v3.4Z"/><path class="cls-3" d="M144.11,40.08a5,5,0,0,1,1.29,3.74v6.47h-3.28v-6a2.91,2.91,0,0,0-.59-2,2.14,2.14,0,0,0-1.7-.66,2.58,2.58,0,0,0-2,.77,3.16,3.16,0,0,0-.74,2.27v5.59h-3.27V39H137v1.32a4.4,4.4,0,0,1,1.61-1.1,5.68,5.68,0,0,1,2.13-.39A4.66,4.66,0,0,1,144.11,40.08Z"/><path class="cls-3" d="M157,40.07a4.79,4.79,0,0,1,1.41,3.77v6.45h-3.07V48.88a3.66,3.66,0,0,1-3.44,1.58,5.39,5.39,0,0,1-2.26-.44,3.35,3.35,0,0,1-1.46-1.22,3.15,3.15,0,0,1-.51-1.76,2.94,2.94,0,0,1,1.19-2.48,6.06,6.06,0,0,1,3.67-.91h2.6a2.08,2.08,0,0,0-.65-1.64,2.86,2.86,0,0,0-2-.58,5.66,5.66,0,0,0-1.78.28,4.82,4.82,0,0,0-1.48.77L148,40.19a7.09,7.09,0,0,1,2.22-1,9.87,9.87,0,0,1,2.66-.36A5.89,5.89,0,0,1,157,40.07Zm-2.8,7.79a2.07,2.07,0,0,0,.93-1.14V45.56h-2.25c-1.34,0-2,.45-2,1.33a1.18,1.18,0,0,0,.49,1,2.25,2.25,0,0,0,1.35.36A2.83,2.83,0,0,0,154.15,47.86Z"/><path class="cls-3" d="M170.86,39.55a5.21,5.21,0,0,1,2,2,6.78,6.78,0,0,1,0,6.12,5.21,5.21,0,0,1-2,2,5.7,5.7,0,0,1-2.87.73A4.36,4.36,0,0,1,164.44,49v1.3h-3.12V34.71h3.27v5.48a4.37,4.37,0,0,1,3.4-1.37A5.8,5.8,0,0,1,170.86,39.55Zm-1.36,7.37a3.65,3.65,0,0,0,0-4.56,2.95,2.95,0,0,0-4.14,0,3.61,3.61,0,0,0,0,4.56,2.95,2.95,0,0,0,4.14,0Z"/><path class="cls-3" d="M175.81,34.71h3.27V50.29h-3.27Z"/><path class="cls-3" d="M182.29,36.89a1.79,1.79,0,0,1,0-2.6,2.34,2.34,0,0,1,2.94,0,1.6,1.6,0,0,1,.57,1.26,1.78,1.78,0,0,1-.57,1.35,2,2,0,0,1-1.46.54A2.1,2.1,0,0,1,182.29,36.89Zm-.16,2.1h3.27v11.3h-3.27Z"/><path class="cls-3" d="M198.71,40.08A5,5,0,0,1,200,43.82v6.47h-3.28v-6a2.91,2.91,0,0,0-.59-2,2.14,2.14,0,0,0-1.7-.66,2.58,2.58,0,0,0-2,.77,3.16,3.16,0,0,0-.74,2.27v5.59h-3.27V39h3.13v1.32a4.4,4.4,0,0,1,1.61-1.1,5.68,5.68,0,0,1,2.13-.39A4.66,4.66,0,0,1,198.71,40.08Z"/><path class="cls-3" d="M214.74,39V48.4A6,6,0,0,1,213.12,53a6.66,6.66,0,0,1-4.72,1.51,11.68,11.68,0,0,1-3.11-.4A6.83,6.83,0,0,1,202.85,53l1.31-2.35a5.26,5.26,0,0,0,1.8.93,7.26,7.26,0,0,0,2.19.35,3.51,3.51,0,0,0,2.5-.77,3,3,0,0,0,.81-2.32v-.48a4.6,4.6,0,0,1-3.57,1.4,5.93,5.93,0,0,1-2.84-.68A5.12,5.12,0,0,1,203,47.14a5.74,5.74,0,0,1,0-5.71,5.12,5.12,0,0,1,2.05-1.92,5.94,5.94,0,0,1,2.84-.69,4.48,4.48,0,0,1,3.74,1.62V39Zm-4.06,7.3a2.84,2.84,0,0,0,0-4,3.36,3.36,0,0,0-4.28,0,2.81,2.81,0,0,0,0,4,3.36,3.36,0,0,0,4.28,0Z"/><path class="cls-3" d="M224,35.59h3.4V47.52h7.37v2.77H224Z"/><path class="cls-3" d="M238.5,49.71a5.54,5.54,0,0,1-2.22-2.07,5.72,5.72,0,0,1,2.22-8.07,7.2,7.2,0,0,1,6.4,0,5.62,5.62,0,0,1,2.2,2.07,6,6,0,0,1,0,6,5.49,5.49,0,0,1-2.2,2.07,7.2,7.2,0,0,1-6.4,0Zm5.27-2.79a3.61,3.61,0,0,0,0-4.56,2.76,2.76,0,0,0-2.07-.85,2.8,2.8,0,0,0-2.08.85,3.61,3.61,0,0,0,0,4.56,2.76,2.76,0,0,0,2.08.85A2.72,2.72,0,0,0,243.77,46.92Z"/><path class="cls-3" d="M252.3,49.71a5.49,5.49,0,0,1-2.25-2.07,5.69,5.69,0,0,1,2.25-8.07,6.91,6.91,0,0,1,3.24-.75,6.26,6.26,0,0,1,3.12.75,4.41,4.41,0,0,1,1.94,2.13l-2.54,1.37a2.77,2.77,0,0,0-2.54-1.56,2.88,2.88,0,0,0-2.12.84,3.54,3.54,0,0,0,0,4.58,2.88,2.88,0,0,0,2.12.84,2.75,2.75,0,0,0,2.54-1.55l2.54,1.38a4.43,4.43,0,0,1-1.94,2.1,6.16,6.16,0,0,1-3.12.76A6.91,6.91,0,0,1,252.3,49.71Z"/><path class="cls-3" d="M271.08,40.07a4.79,4.79,0,0,1,1.41,3.77v6.45h-3.07V48.88A3.64,3.64,0,0,1,266,50.46a5.42,5.42,0,0,1-2.26-.44,3.4,3.4,0,0,1-1.46-1.22,3.23,3.23,0,0,1-.5-1.76,2.93,2.93,0,0,1,1.18-2.48,6.08,6.08,0,0,1,3.67-.91h2.6a2,2,0,0,0-.65-1.64,2.82,2.82,0,0,0-1.95-.58,5.75,5.75,0,0,0-1.78.28,4.82,4.82,0,0,0-1.48.77l-1.17-2.29a6.93,6.93,0,0,1,2.21-1,9.87,9.87,0,0,1,2.66-.36A5.89,5.89,0,0,1,271.08,40.07Zm-2.79,7.79a2.1,2.1,0,0,0,.92-1.14V45.56H267c-1.35,0-2,.45-2,1.33a1.18,1.18,0,0,0,.49,1,2.26,2.26,0,0,0,1.36.36A2.83,2.83,0,0,0,268.29,47.86Z"/><path class="cls-3" d="M275.45,34.71h3.28V50.29h-3.28Z"/><path class="cls-3" d="M131.37,72.76v2.73H120V60.79H131.1v2.73h-7.73v3.19h6.82v2.65h-6.82v3.4Z"/><path class="cls-3" d="M136,74.91a5.49,5.49,0,0,1-2.25-2.07A5.69,5.69,0,0,1,136,64.77a6.91,6.91,0,0,1,3.24-.75,6.26,6.26,0,0,1,3.12.75,4.48,4.48,0,0,1,1.95,2.13l-2.55,1.37a2.76,2.76,0,0,0-2.54-1.56,2.88,2.88,0,0,0-2.12.84,3.54,3.54,0,0,0,0,4.58,2.88,2.88,0,0,0,2.12.84,2.75,2.75,0,0,0,2.54-1.55l2.55,1.38a4.5,4.5,0,0,1-1.95,2.1,6.16,6.16,0,0,1-3.12.76A6.91,6.91,0,0,1,136,74.91Z"/><path class="cls-3" d="M148.2,74.91A5.45,5.45,0,0,1,146,72.84a5.73,5.73,0,0,1,2.21-8.07,7.2,7.2,0,0,1,6.4,0,5.62,5.62,0,0,1,2.2,2.07,6,6,0,0,1,0,6,5.49,5.49,0,0,1-2.2,2.07,7.2,7.2,0,0,1-6.4,0Zm5.27-2.79a3.61,3.61,0,0,0,0-4.56,2.76,2.76,0,0,0-2.07-.85,2.8,2.8,0,0,0-2.08.85,3.61,3.61,0,0,0,0,4.56,2.76,2.76,0,0,0,2.08.85A2.72,2.72,0,0,0,153.47,72.12Z"/><path class="cls-3" d="M170,65.28A5,5,0,0,1,171.33,69v6.47h-3.27v-6a3,3,0,0,0-.59-2,2.16,2.16,0,0,0-1.7-.66,2.58,2.58,0,0,0-2,.77,3.16,3.16,0,0,0-.73,2.27v5.59h-3.28V64.19h3.13v1.32a4.52,4.52,0,0,1,1.62-1.1,5.59,5.59,0,0,1,2.12-.39A4.64,4.64,0,0,1,170,65.28Z"/><path class="cls-3" d="M176.59,74.91a5.45,5.45,0,0,1-2.21-2.07,6,6,0,0,1,0-6,5.59,5.59,0,0,1,2.21-2.07A6.79,6.79,0,0,1,179.8,64a6.68,6.68,0,0,1,3.19.75,5.86,5.86,0,0,1,2.2,8.07,5.42,5.42,0,0,1-2.2,2.07,6.68,6.68,0,0,1-3.19.75A6.79,6.79,0,0,1,176.59,74.91Zm5.27-2.79a3.61,3.61,0,0,0,0-4.56,2.72,2.72,0,0,0-2.06-.85,2.78,2.78,0,0,0-2.08.85,3.58,3.58,0,0,0,0,4.56,2.74,2.74,0,0,0,2.08.85A2.69,2.69,0,0,0,181.86,72.12Z"/><path class="cls-3" d="M206,65.27A5.13,5.13,0,0,1,207.26,69v6.47H204v-6a3.07,3.07,0,0,0-.56-2,2,2,0,0,0-1.58-.66,2.37,2.37,0,0,0-1.83.74,3.22,3.22,0,0,0-.67,2.22v5.67h-3.28v-6c0-1.78-.71-2.67-2.14-2.67a2.34,2.34,0,0,0-1.81.74,3.27,3.27,0,0,0-.67,2.22v5.67h-3.27V64.19h3.12v1.3a4.19,4.19,0,0,1,1.55-1.09,5.24,5.24,0,0,1,2-.38,4.84,4.84,0,0,1,2.17.48,3.8,3.8,0,0,1,1.55,1.37,4.61,4.61,0,0,1,1.75-1.36,5.44,5.44,0,0,1,2.33-.49A4.58,4.58,0,0,1,206,65.27Z"/><path class="cls-3" d="M210.37,62.09a1.79,1.79,0,0,1,0-2.6,2.09,2.09,0,0,1,1.47-.53,2.12,2.12,0,0,1,1.47.51,1.6,1.6,0,0,1,.57,1.26,1.78,1.78,0,0,1-.57,1.35,2.05,2.05,0,0,1-1.47.54A2.09,2.09,0,0,1,210.37,62.09Zm-.17,2.1h3.28v11.3H210.2Z"/><path class="cls-3" d="M218.74,74.91a5.49,5.49,0,0,1-2.25-2.07,5.69,5.69,0,0,1,2.25-8.07A6.91,6.91,0,0,1,222,64a6.24,6.24,0,0,1,3.12.75,4.48,4.48,0,0,1,2,2.13l-2.54,1.37A2.79,2.79,0,0,0,222,66.71a2.88,2.88,0,0,0-2.12.84,3.54,3.54,0,0,0,0,4.58A2.88,2.88,0,0,0,222,73a2.77,2.77,0,0,0,2.55-1.55l2.54,1.38a4.5,4.5,0,0,1-2,2.1,6.14,6.14,0,0,1-3.12.76A6.91,6.91,0,0,1,218.74,74.91Z"/><path class="cls-3" d="M235.11,60.79h6.68a9.4,9.4,0,0,1,4.23.91,6.88,6.88,0,0,1,2.86,2.58,7.88,7.88,0,0,1,0,7.72A6.88,6.88,0,0,1,246,74.58a9.4,9.4,0,0,1-4.23.91h-6.68Zm6.51,11.91a5,5,0,0,0,3.52-1.23,4.89,4.89,0,0,0,0-6.66,5,5,0,0,0-3.52-1.23h-3.11V72.7Z"/><path class="cls-3" d="M263.23,70.76h-8.55a2.69,2.69,0,0,0,1.09,1.66,3.61,3.61,0,0,0,2.15.61,4.26,4.26,0,0,0,1.56-.26,3.62,3.62,0,0,0,1.27-.83l1.74,1.89a5.83,5.83,0,0,1-4.66,1.83,7.35,7.35,0,0,1-3.38-.75,5.37,5.37,0,0,1-2.27-2.07,5.7,5.7,0,0,1-.8-3,5.81,5.81,0,0,1,.79-3,5.61,5.61,0,0,1,2.16-2.08,6.35,6.35,0,0,1,3.08-.75,6.22,6.22,0,0,1,3,.72,5.14,5.14,0,0,1,2.11,2.05,6,6,0,0,1,.77,3.09S263.27,70.22,263.23,70.76Zm-7.67-3.63a2.7,2.7,0,0,0-.92,1.72h5.56a2.73,2.73,0,0,0-.92-1.71,2.79,2.79,0,0,0-1.85-.64A2.84,2.84,0,0,0,255.56,67.13Z"/><path class="cls-3" d="M276.48,64.19l-4.77,11.3h-3.38l-4.74-11.3H267l3.13,7.69,3.23-7.69Z"/><path class="cls-3" d="M288.51,70.76H280a2.61,2.61,0,0,0,1.09,1.66,3.58,3.58,0,0,0,2.14.61,4.18,4.18,0,0,0,1.56-.26,3.62,3.62,0,0,0,1.27-.83l1.75,1.89a5.86,5.86,0,0,1-4.66,1.83,7.36,7.36,0,0,1-3.39-.75,5.34,5.34,0,0,1-2.26-2.07,5.61,5.61,0,0,1-.8-3,5.71,5.71,0,0,1,.79-3,5.47,5.47,0,0,1,2.16-2.08,6.65,6.65,0,0,1,6.08,0,5.2,5.2,0,0,1,2.11,2.05,6.08,6.08,0,0,1,.77,3.09S288.55,70.22,288.51,70.76Zm-7.66-3.63a2.71,2.71,0,0,0-.93,1.72h5.57a2.73,2.73,0,0,0-.92-1.71,3,3,0,0,0-3.72,0Z"/><path class="cls-3" d="M290.76,59.91H294V75.49h-3.28Z"/><path class="cls-3" d="M299.25,74.91A5.45,5.45,0,0,1,297,72.84a6,6,0,0,1,0-6,5.59,5.59,0,0,1,2.21-2.07,6.79,6.79,0,0,1,3.21-.75,6.68,6.68,0,0,1,3.19.75,5.56,5.56,0,0,1,2.2,2.07,6,6,0,0,1,0,6,5.42,5.42,0,0,1-2.2,2.07,6.68,6.68,0,0,1-3.19.75A6.79,6.79,0,0,1,299.25,74.91Zm5.27-2.79a3.61,3.61,0,0,0,0-4.56,2.74,2.74,0,0,0-2.06-.85,2.78,2.78,0,0,0-2.08.85,3.58,3.58,0,0,0,0,4.56,2.74,2.74,0,0,0,2.08.85A2.7,2.7,0,0,0,304.52,72.12Z"/><path class="cls-3" d="M320.38,64.75a5.17,5.17,0,0,1,2,2,6.12,6.12,0,0,1,.73,3,6.18,6.18,0,0,1-.73,3.06,5.21,5.21,0,0,1-2,2,5.7,5.7,0,0,1-2.87.73,4.37,4.37,0,0,1-3.4-1.37v5.27h-3.28V64.19H314v1.3A4.36,4.36,0,0,1,317.51,64,5.8,5.8,0,0,1,320.38,64.75ZM319,72.12a3.61,3.61,0,0,0,0-4.56,2.72,2.72,0,0,0-2.06-.85,2.76,2.76,0,0,0-2.07.85,3.61,3.61,0,0,0,0,4.56A2.72,2.72,0,0,0,317,73,2.69,2.69,0,0,0,319,72.12Z"/><path class="cls-3" d="M343.16,65.27A5.09,5.09,0,0,1,344.41,69v6.47h-3.27v-6a3.07,3.07,0,0,0-.56-2,2,2,0,0,0-1.58-.66,2.37,2.37,0,0,0-1.83.74,3.22,3.22,0,0,0-.67,2.22v5.67h-3.28v-6c0-1.78-.71-2.67-2.14-2.67a2.34,2.34,0,0,0-1.81.74,3.22,3.22,0,0,0-.67,2.22v5.67h-3.28V64.19h3.13v1.3A4.19,4.19,0,0,1,330,64.4a5.2,5.2,0,0,1,2-.38,4.84,4.84,0,0,1,2.17.48,3.8,3.8,0,0,1,1.55,1.37,4.61,4.61,0,0,1,1.75-1.36,5.42,5.42,0,0,1,2.32-.49A4.55,4.55,0,0,1,343.16,65.27Z"/><path class="cls-3" d="M358.48,70.76h-8.54A2.61,2.61,0,0,0,351,72.42a3.58,3.58,0,0,0,2.14.61,4.18,4.18,0,0,0,1.56-.26,3.75,3.75,0,0,0,1.28-.83l1.74,1.89a5.86,5.86,0,0,1-4.66,1.83,7.32,7.32,0,0,1-3.38-.75,5.37,5.37,0,0,1-2.27-2.07,5.61,5.61,0,0,1-.8-3,5.71,5.71,0,0,1,.79-3,5.47,5.47,0,0,1,2.16-2.08,6.65,6.65,0,0,1,6.08,0,5.14,5.14,0,0,1,2.11,2.05,6.08,6.08,0,0,1,.77,3.09S358.52,70.22,358.48,70.76Zm-7.66-3.63a2.71,2.71,0,0,0-.93,1.72h5.57a2.73,2.73,0,0,0-.92-1.71,3,3,0,0,0-3.72,0Z"/><path class="cls-3" d="M371,65.28A5,5,0,0,1,372.28,69v6.47H369v-6a3,3,0,0,0-.58-2,2.17,2.17,0,0,0-1.7-.66,2.58,2.58,0,0,0-2,.77A3.16,3.16,0,0,0,364,69.9v5.59h-3.28V64.19h3.13v1.32a4.35,4.35,0,0,1,1.62-1.1A5.59,5.59,0,0,1,367.6,64,4.64,4.64,0,0,1,371,65.28Z"/><path class="cls-3" d="M382.53,74.94a3.35,3.35,0,0,1-1.19.54,5.94,5.94,0,0,1-1.48.18,4.45,4.45,0,0,1-3.12-1,4,4,0,0,1-1.1-3V67H373.9V64.44h1.74V61.69h3.28v2.75h2.81V67h-2.81v4.6a1.58,1.58,0,0,0,.36,1.11,1.4,1.4,0,0,0,1,.38,2.13,2.13,0,0,0,1.33-.42Z"/></svg>