<svg id="Layer_1" data-name="Layer 1" xmlns="http://www.w3.org/2000/svg" viewBox="0 0 474.47 113.33"><defs><style>.cls-1{fill:#fff;}.cls-2{fill:#f79b26;}.cls-3{fill:#19486a;}</style></defs><rect class="cls-1" width="474.47" height="113.33"/><polygon class="cls-2" points="0 113.33 0 0 113.33 0 0 113.33"/><path class="cls-1" d="M40.91,31.14a7,7,0,0,1,2.54,5.68A7.69,7.69,0,0,1,38.79,44,13.33,13.33,0,0,1,33,45.18a19.82,19.82,0,0,1-5.24-.71,13.44,13.44,0,0,1-4.37-2L25.66,38A11.15,11.15,0,0,0,29,39.69a12.79,12.79,0,0,0,3.85.59,6.07,6.07,0,0,0,3.45-.86A2.77,2.77,0,0,0,37.54,37a2.68,2.68,0,0,0-1.31-2.44,9,9,0,0,0-4.55-.83H25.23l1.3-14.19H41.9v4.68H31.39L31,29H33Q38.38,29,40.91,31.14Z"/><path class="cls-3" d="M115.07,35.5h3.4V47.42h7.37v2.77H115.07Z"/><path class="cls-3" d="M129.61,49.62a5.57,5.57,0,0,1-3-5.07,5.65,5.65,0,0,1,.8-3,5.59,5.59,0,0,1,2.21-2.07,6.89,6.89,0,0,1,3.2-.74,6.8,6.8,0,0,1,3.2.74,5.62,5.62,0,0,1,2.2,2.07,6,6,0,0,1,0,6,5.62,5.62,0,0,1-2.2,2.07,6.8,6.8,0,0,1-3.2.74A6.89,6.89,0,0,1,129.61,49.62Zm5.27-2.8a3.6,3.6,0,0,0,0-4.55,2.95,2.95,0,0,0-4.14,0,3.57,3.57,0,0,0,0,4.55,2.95,2.95,0,0,0,4.14,0Z"/><path class="cls-3" d="M143.41,49.62a5.7,5.7,0,0,1,0-10.15,7,7,0,0,1,3.24-.74,6.37,6.37,0,0,1,3.12.74,4.39,4.39,0,0,1,1.94,2.14L149.17,43a2.75,2.75,0,0,0-2.54-1.55,2.88,2.88,0,0,0-2.12.84,3.53,3.53,0,0,0,0,4.57,2.84,2.84,0,0,0,2.12.84,2.73,2.73,0,0,0,2.54-1.55l2.54,1.39a4.53,4.53,0,0,1-1.94,2.1,6.26,6.26,0,0,1-3.12.75A7,7,0,0,1,143.41,49.62Z"/><path class="cls-3" d="M162.19,40a4.77,4.77,0,0,1,1.41,3.77v6.44h-3.06v-1.4c-.62,1.05-1.77,1.57-3.45,1.57a5.27,5.27,0,0,1-2.26-.44,3.39,3.39,0,0,1-1.46-1.22,3.18,3.18,0,0,1-.5-1.76,3,3,0,0,1,1.19-2.48,6,6,0,0,1,3.66-.9h2.61a2.08,2.08,0,0,0-.66-1.65,2.87,2.87,0,0,0-1.95-.58,5.66,5.66,0,0,0-1.77.29,4.69,4.69,0,0,0-1.48.76l-1.18-2.29a7,7,0,0,1,2.22-1,9.79,9.79,0,0,1,2.65-.36A5.88,5.88,0,0,1,162.19,40Zm-2.79,7.79a2.14,2.14,0,0,0,.93-1.15V45.47h-2.25c-1.35,0-2,.44-2,1.32a1.18,1.18,0,0,0,.5,1,2.17,2.17,0,0,0,1.35.37A2.83,2.83,0,0,0,159.4,47.77Z"/><path class="cls-3" d="M166.56,34.61h3.28V50.19h-3.28Z"/><path class="cls-3" d="M182.46,38.22v3.89h6.8v2.73h-6.8v5.35h-3.4V35.5h11.11v2.72Z"/><path class="cls-3" d="M192.2,36.8a1.8,1.8,0,0,1,0-2.61,2.08,2.08,0,0,1,1.47-.52,2.16,2.16,0,0,1,1.47.5,1.62,1.62,0,0,1,.57,1.26,1.79,1.79,0,0,1-.57,1.36,2.32,2.32,0,0,1-2.94,0ZM192,38.9h3.28V50.19H192Z"/><path class="cls-3" d="M203.07,39.15a5.86,5.86,0,0,1,2.3-.42v3c-.36,0-.61,0-.74,0a3,3,0,0,0-2.2.79,3.18,3.18,0,0,0-.8,2.36v5.33h-3.28V38.9h3.13v1.49A3.65,3.65,0,0,1,203.07,39.15Z"/><path class="cls-3" d="M225.16,40a5.1,5.1,0,0,1,1.25,3.75v6.46h-3.28v-6a3,3,0,0,0-.55-2,1.94,1.94,0,0,0-1.59-.67,2.3,2.3,0,0,0-1.82.75,3.19,3.19,0,0,0-.68,2.21v5.67h-3.27v-6c0-1.78-.72-2.67-2.14-2.67a2.31,2.31,0,0,0-1.81.75,3.19,3.19,0,0,0-.67,2.21v5.67h-3.28V38.9h3.13v1.3A4,4,0,0,1,212,39.11a5.07,5.07,0,0,1,2-.38,4.89,4.89,0,0,1,2.16.47,3.92,3.92,0,0,1,1.56,1.38,4.56,4.56,0,0,1,1.75-1.37,5.57,5.57,0,0,1,2.32-.48A4.57,4.57,0,0,1,225.16,40Z"/><path class="cls-3" d="M230.4,50a6.93,6.93,0,0,1-2.14-.88l1.09-2.35a6.43,6.43,0,0,0,1.83.79,7.72,7.72,0,0,0,2.1.3c1.38,0,2.08-.34,2.08-1a.73.73,0,0,0-.57-.7,8,8,0,0,0-1.74-.35,16.75,16.75,0,0,1-2.29-.49,3.56,3.56,0,0,1-1.57-1,2.77,2.77,0,0,1-.66-2,3.13,3.13,0,0,1,.62-1.9A4,4,0,0,1,231,39.19a7.64,7.64,0,0,1,2.8-.46,11.27,11.27,0,0,1,2.38.26,6.71,6.71,0,0,1,2,.73L237,42.05a6.54,6.54,0,0,0-3.26-.84,3.25,3.25,0,0,0-1.57.29.88.88,0,0,0-.53.76.75.75,0,0,0,.57.73,10.47,10.47,0,0,0,1.8.4,19.49,19.49,0,0,1,2.27.49,3.52,3.52,0,0,1,1.54,1,2.73,2.73,0,0,1,.65,1.93,3,3,0,0,1-.63,1.87A4,4,0,0,1,236,49.91a8.24,8.24,0,0,1-2.87.45A11,11,0,0,1,230.4,50Z"/><path class="cls-3" d="M258.06,47.46v2.73H246.68V35.5h11.1v2.72h-7.72v3.2h6.82v2.64h-6.82v3.4Z"/><path class="cls-3" d="M271.92,38.9V54.27h-3.28V49a4.29,4.29,0,0,1-3.38,1.36,6,6,0,0,1-2.89-.71,5.15,5.15,0,0,1-2-2,6.72,6.72,0,0,1,0-6.13,5.15,5.15,0,0,1,2-2,6,6,0,0,1,2.89-.71,4.32,4.32,0,0,1,3.53,1.47V38.9Zm-4,7.92a3.6,3.6,0,0,0,0-4.55,2.95,2.95,0,0,0-4.14,0,3.57,3.57,0,0,0,0,4.55,2.95,2.95,0,0,0,4.14,0Z"/><path class="cls-3" d="M286.32,38.9V50.19h-3.11V48.85A4.2,4.2,0,0,1,281.66,50a4.85,4.85,0,0,1-2,.39,4.79,4.79,0,0,1-3.53-1.28,5.09,5.09,0,0,1-1.3-3.8V38.9h3.27v5.9c0,1.82.77,2.73,2.29,2.73a2.45,2.45,0,0,0,1.89-.77,3.22,3.22,0,0,0,.72-2.28V38.9Z"/><path class="cls-3" d="M289.54,36.8a1.78,1.78,0,0,1,0-2.61,2,2,0,0,1,1.47-.52,2.16,2.16,0,0,1,1.47.5,1.65,1.65,0,0,1,.56,1.26,1.82,1.82,0,0,1-.56,1.36,2.09,2.09,0,0,1-1.47.53A2,2,0,0,1,289.54,36.8Zm-.17,2.1h3.27V50.19h-3.27Z"/><path class="cls-3" d="M305.23,39.45a5.31,5.31,0,0,1,2,2,6.68,6.68,0,0,1,0,6.11,5.17,5.17,0,0,1-2,2,5.76,5.76,0,0,1-2.86.72A4.37,4.37,0,0,1,299,49v5.27h-3.27V38.9h3.13v1.3a4.34,4.34,0,0,1,3.55-1.47A5.76,5.76,0,0,1,305.23,39.45Zm-1.36,7.37a3.6,3.6,0,0,0,0-4.55,2.95,2.95,0,0,0-4.14,0,3.6,3.6,0,0,0,0,4.55,2.95,2.95,0,0,0,4.14,0Z"/><path class="cls-3" d="M319.72,39.45a5.24,5.24,0,0,1,2,2,6.68,6.68,0,0,1,0,6.11,5.11,5.11,0,0,1-2,2,5.76,5.76,0,0,1-2.86.72,4.35,4.35,0,0,1-3.4-1.36v5.27h-3.28V38.9h3.13v1.3a4.34,4.34,0,0,1,3.55-1.47A5.76,5.76,0,0,1,319.72,39.45Zm-1.36,7.37a3.6,3.6,0,0,0,0-4.55,2.95,2.95,0,0,0-4.14,0,3.6,3.6,0,0,0,0,4.55,2.95,2.95,0,0,0,4.14,0Z"/><path class="cls-3" d="M335.67,45.47h-8.54a2.63,2.63,0,0,0,1.09,1.66,3.58,3.58,0,0,0,2.14.61,4.4,4.4,0,0,0,1.56-.26,3.92,3.92,0,0,0,1.27-.83l1.75,1.89a5.89,5.89,0,0,1-4.66,1.82,7.48,7.48,0,0,1-3.39-.74,5.47,5.47,0,0,1-2.26-2.07,5.61,5.61,0,0,1-.8-3,5.75,5.75,0,0,1,.79-3,5.47,5.47,0,0,1,2.16-2.08,6.74,6.74,0,0,1,6.08,0A5.27,5.27,0,0,1,335,41.49a6.12,6.12,0,0,1,.77,3.1S335.71,44.92,335.67,45.47ZM328,41.84a2.69,2.69,0,0,0-.93,1.72h5.57a2.64,2.64,0,0,0-.93-1.71,2.73,2.73,0,0,0-1.84-.64A2.8,2.8,0,0,0,328,41.84Z"/><path class="cls-3" d="M349.43,34.61V50.19H346.3v-1.3a4.32,4.32,0,0,1-3.53,1.47,6,6,0,0,1-2.89-.71,5.15,5.15,0,0,1-2-2,6.72,6.72,0,0,1,0-6.13,5.15,5.15,0,0,1,2-2,6,6,0,0,1,2.89-.71,4.29,4.29,0,0,1,3.38,1.36V34.61Zm-4,12.21a3.6,3.6,0,0,0,0-4.55,2.95,2.95,0,0,0-4.14,0,3.57,3.57,0,0,0,0,4.55,2.95,2.95,0,0,0,4.14,0Z"/><path class="cls-3" d="M118.43,64.35h2.9v2.52h-2.82v8.52h-3.27V66.87H113.5V64.35h1.74v-.51a4.12,4.12,0,0,1,1.14-3.06,4.39,4.39,0,0,1,3.23-1.14,6.23,6.23,0,0,1,1.39.16,3.78,3.78,0,0,1,1.11.45l-.87,2.38a2.2,2.2,0,0,0-1.32-.4c-1,0-1.49.54-1.49,1.64Z"/><path class="cls-3" d="M125,74.82a5.59,5.59,0,0,1-2.21-2.07,6,6,0,0,1,0-6A5.59,5.59,0,0,1,125,64.67a6.9,6.9,0,0,1,3.21-.74,6.79,6.79,0,0,1,3.19.74,5.56,5.56,0,0,1,2.2,2.07,6,6,0,0,1,0,6,5.56,5.56,0,0,1-2.2,2.07,6.79,6.79,0,0,1-3.19.74A6.9,6.9,0,0,1,125,74.82Zm5.27-2.8a3.6,3.6,0,0,0,0-4.55,2.7,2.7,0,0,0-2.06-.85,2.74,2.74,0,0,0-2.08.85,3.57,3.57,0,0,0,0,4.55,2.75,2.75,0,0,0,2.08.86A2.71,2.71,0,0,0,130.26,72Z"/><path class="cls-3" d="M141.29,64.35a5.86,5.86,0,0,1,2.3-.42v3c-.37,0-.61,0-.74,0a3,3,0,0,0-2.2.79,3.18,3.18,0,0,0-.8,2.36v5.33h-3.28V64.1h3.13v1.49A3.65,3.65,0,0,1,141.29,64.35Z"/><path class="cls-3" d="M158.85,74.85a3.12,3.12,0,0,1-1.18.53,5.94,5.94,0,0,1-1.48.18,4.37,4.37,0,0,1-3.12-1,3.9,3.9,0,0,1-1.1-3V66.87h-1.75V64.35H152V61.6h3.27v2.75h2.82v2.52h-2.82v4.6a1.57,1.57,0,0,0,.37,1.1,1.35,1.35,0,0,0,1,.39,2.08,2.08,0,0,0,1.32-.42Z"/><path class="cls-3" d="M171,65.19a5,5,0,0,1,1.29,3.74v6.46H169v-6a3,3,0,0,0-.59-2,2.13,2.13,0,0,0-1.7-.67,2.62,2.62,0,0,0-2,.77,3.17,3.17,0,0,0-.73,2.28v5.58H160.7V59.81H164v5.46a4.38,4.38,0,0,1,1.57-1,5.53,5.53,0,0,1,2-.35A4.64,4.64,0,0,1,171,65.19Z"/><path class="cls-3" d="M186.34,70.67H177.8a2.63,2.63,0,0,0,1.09,1.66,3.58,3.58,0,0,0,2.14.61,4.49,4.49,0,0,0,1.57-.26,4.15,4.15,0,0,0,1.27-.83l1.74,1.89A5.88,5.88,0,0,1,181,75.56a7.44,7.44,0,0,1-3.38-.74,5.49,5.49,0,0,1-2.27-2.07,6.06,6.06,0,0,1,0-6,5.47,5.47,0,0,1,2.16-2.08,6.74,6.74,0,0,1,6.08,0,5.2,5.2,0,0,1,2.11,2,6.12,6.12,0,0,1,.77,3.1S186.39,70.12,186.34,70.67ZM178.68,67a2.63,2.63,0,0,0-.92,1.72h5.56a2.68,2.68,0,0,0-.92-1.71,2.76,2.76,0,0,0-1.85-.64A2.82,2.82,0,0,0,178.68,67Z"/><path class="cls-3" d="M204.7,67.81h3.11v6A8.93,8.93,0,0,1,205,75.16a10.48,10.48,0,0,1-3.17.49,8.58,8.58,0,0,1-4.11-1A7.21,7.21,0,0,1,194.88,72a7.89,7.89,0,0,1,0-7.83,7.2,7.2,0,0,1,2.89-2.71,8.78,8.78,0,0,1,4.16-1,9.17,9.17,0,0,1,3.5.65A7.14,7.14,0,0,1,208.08,63l-2.19,2a5,5,0,0,0-3.8-1.66,5.24,5.24,0,0,0-2.5.59,4.24,4.24,0,0,0-1.7,1.66,5.21,5.21,0,0,0,0,4.89,4.37,4.37,0,0,0,1.69,1.67,5,5,0,0,0,2.47.6,5.55,5.55,0,0,0,2.65-.63Z"/><path class="cls-3" d="M210.72,59.81H214V75.39h-3.28Z"/><path class="cls-3" d="M219.22,74.82A5.61,5.61,0,0,1,217,72.75a6.11,6.11,0,0,1,0-6,5.61,5.61,0,0,1,2.22-2.07,7.27,7.27,0,0,1,6.39,0,5.59,5.59,0,0,1,2.21,2.07,6,6,0,0,1,0,6,5.59,5.59,0,0,1-2.21,2.07,7.27,7.27,0,0,1-6.39,0Zm5.27-2.8a3.6,3.6,0,0,0,0-4.55,2.72,2.72,0,0,0-2.07-.85,2.76,2.76,0,0,0-2.08.85,3.57,3.57,0,0,0,0,4.55,2.77,2.77,0,0,0,2.08.86A2.73,2.73,0,0,0,224.49,72Z"/><path class="cls-3" d="M240.34,64.65a5.24,5.24,0,0,1,2,2,6.68,6.68,0,0,1,0,6.11,5.11,5.11,0,0,1-2,2,5.76,5.76,0,0,1-2.86.72,4.34,4.34,0,0,1-3.55-1.47v1.3H230.8V59.81h3.28v5.48a4.35,4.35,0,0,1,3.4-1.36A5.76,5.76,0,0,1,240.34,64.65ZM239,72a3.6,3.6,0,0,0,0-4.55,2.95,2.95,0,0,0-4.14,0,3.6,3.6,0,0,0,0,4.55A2.92,2.92,0,0,0,239,72Z"/><path class="cls-3" d="M253.69,65.18A4.77,4.77,0,0,1,255.1,69v6.44H252V74c-.61,1.05-1.76,1.57-3.44,1.57a5.27,5.27,0,0,1-2.26-.44,3.34,3.34,0,0,1-1.46-1.22,3.1,3.1,0,0,1-.5-1.76,2.94,2.94,0,0,1,1.18-2.48,6.06,6.06,0,0,1,3.67-.9h2.6a2.1,2.1,0,0,0-.65-1.65,2.87,2.87,0,0,0-1.95-.58,5.72,5.72,0,0,0-1.78.29,4.8,4.8,0,0,0-1.48.76l-1.17-2.29a6.92,6.92,0,0,1,2.21-1,9.87,9.87,0,0,1,2.66-.36A5.89,5.89,0,0,1,253.69,65.18ZM250.9,73a2.12,2.12,0,0,0,.92-1.15V70.67h-2.25q-2,0-2,1.32a1.17,1.17,0,0,0,.49,1,2.2,2.2,0,0,0,1.36.37A2.86,2.86,0,0,0,250.9,73Z"/><path class="cls-3" d="M258.06,59.81h3.27V75.39h-3.27Z"/><path class="cls-3" d="M283.93,75.39l0-8.82-4.33,7.27h-1.53l-4.31-7.08v8.63h-3.19V60.69h2.82l5.5,9.14,5.42-9.14h2.79l0,14.7Z"/><path class="cls-3" d="M299,65.18A4.77,4.77,0,0,1,300.37,69v6.44h-3.06V74c-.62,1.05-1.77,1.57-3.45,1.57a5.27,5.27,0,0,1-2.26-.44,3.31,3.31,0,0,1-1.45-1.22,3.11,3.11,0,0,1-.51-1.76,3,3,0,0,1,1.19-2.48,6,6,0,0,1,3.66-.9h2.61a2.1,2.1,0,0,0-.65-1.65,2.92,2.92,0,0,0-2-.58,5.66,5.66,0,0,0-1.77.29,4.69,4.69,0,0,0-1.48.76l-1.18-2.29a7.07,7.07,0,0,1,2.22-1,9.79,9.79,0,0,1,2.65-.36A5.88,5.88,0,0,1,299,65.18ZM296.17,73a2.14,2.14,0,0,0,.93-1.15V70.67h-2.25c-1.34,0-2,.44-2,1.32a1.18,1.18,0,0,0,.5,1,2.19,2.19,0,0,0,1.35.37A2.83,2.83,0,0,0,296.17,73Z"/><path class="cls-3" d="M308.05,64.35a5.86,5.86,0,0,1,2.3-.42v3c-.37,0-.61,0-.74,0a3,3,0,0,0-2.2.79,3.18,3.18,0,0,0-.8,2.36v5.33h-3.28V64.1h3.13v1.49A3.59,3.59,0,0,1,308.05,64.35Z"/><path class="cls-3" d="M317.15,71l-1.57,1.56v2.87H312.3V59.81h3.28v8.82l4.78-4.53h3.91l-4.7,4.78,5.12,6.51h-4Z"/><path class="cls-3" d="M336.68,70.67h-8.55a2.69,2.69,0,0,0,1.1,1.66,3.56,3.56,0,0,0,2.14.61,4.4,4.4,0,0,0,1.56-.26,3.92,3.92,0,0,0,1.27-.83L336,73.74a5.9,5.9,0,0,1-4.67,1.82,7.47,7.47,0,0,1-3.38-.74,5.56,5.56,0,0,1-2.27-2.07,6.09,6.09,0,0,1,0-6,5.47,5.47,0,0,1,2.16-2.08,6.74,6.74,0,0,1,6.08,0,5.27,5.27,0,0,1,2.11,2,6.11,6.11,0,0,1,.76,3.1S336.72,70.12,336.68,70.67ZM329,67a2.64,2.64,0,0,0-.93,1.72h5.57a2.64,2.64,0,0,0-.93-1.71,2.74,2.74,0,0,0-1.85-.64A2.79,2.79,0,0,0,329,67Z"/><path class="cls-3" d="M346.21,74.85a3.12,3.12,0,0,1-1.18.53,5.94,5.94,0,0,1-1.48.18,4.37,4.37,0,0,1-3.12-1,3.9,3.9,0,0,1-1.1-3V66.87h-1.75V64.35h1.75V61.6h3.27v2.75h2.82v2.52H342.6v4.6a1.57,1.57,0,0,0,.37,1.1,1.35,1.35,0,0,0,1,.39,2.08,2.08,0,0,0,1.32-.42Z"/></svg>