<svg id="Layer_1" data-name="Layer 1" xmlns="http://www.w3.org/2000/svg" viewBox="0 0 474.47 113.33"><defs><style>.cls-1{fill:#fff;}.cls-2{fill:#8d1938;}.cls-3{fill:#19486a;}</style></defs><rect class="cls-1" width="474.47" height="113.33"/><polygon class="cls-2" points="0 113.33 0 0 113.33 0 0 113.33"/><path class="cls-1" d="M34.12,19.54v25.2H28.29V24.22h-5V19.54Z"/><path class="cls-3" d="M121.67,25.64v3.88h6.8v2.73h-6.8v5.36h-3.41V22.91h11.11v2.73Z"/><path class="cls-3" d="M142.54,26.31v11.3h-3.11V36.26a4.34,4.34,0,0,1-1.55,1.13,5.06,5.06,0,0,1-1.95.38,4.79,4.79,0,0,1-3.53-1.28,5.09,5.09,0,0,1-1.3-3.8V26.31h3.27v5.9c0,1.82.76,2.73,2.29,2.73a2.48,2.48,0,0,0,1.89-.77,3.21,3.21,0,0,0,.71-2.28V26.31Z"/><path class="cls-3" d="M152.87,37.06a3.38,3.38,0,0,1-1.18.54,6.54,6.54,0,0,1-1.49.17,4.36,4.36,0,0,1-3.11-1,3.9,3.9,0,0,1-1.11-3V29.08h-1.74V26.56H146V23.81h3.28v2.75h2.81v2.52h-2.81v4.6a1.53,1.53,0,0,0,.37,1.1,1.35,1.35,0,0,0,1,.39,2.1,2.1,0,0,0,1.32-.42Z"/><path class="cls-3" d="M166.1,26.31v11.3H163V36.26a4.34,4.34,0,0,1-1.55,1.13,5,5,0,0,1-1.95.38A4.79,4.79,0,0,1,156,36.49a5.09,5.09,0,0,1-1.3-3.8V26.31h3.27v5.9c0,1.82.77,2.73,2.29,2.73a2.45,2.45,0,0,0,1.89-.77,3.22,3.22,0,0,0,.72-2.28V26.31Z"/><path class="cls-3" d="M173.86,26.56a5.9,5.9,0,0,1,2.3-.42v3l-.73,0a3,3,0,0,0-2.21.79,3.18,3.18,0,0,0-.8,2.36v5.34h-3.27V26.31h3.13V27.8A3.62,3.62,0,0,1,173.86,26.56Z"/><path class="cls-3" d="M189,32.88h-8.54a2.63,2.63,0,0,0,1.09,1.66,3.58,3.58,0,0,0,2.14.61,4.4,4.4,0,0,0,1.56-.26,3.77,3.77,0,0,0,1.27-.83L188.28,36a5.86,5.86,0,0,1-4.66,1.82,7.36,7.36,0,0,1-3.39-.74A5.47,5.47,0,0,1,178,35a5.61,5.61,0,0,1-.8-3,5.75,5.75,0,0,1,.79-3,5.45,5.45,0,0,1,2.16-2.07,6.7,6.7,0,0,1,6.08,0,5.27,5.27,0,0,1,2.11,2,6.12,6.12,0,0,1,.77,3.1S189.05,32.33,189,32.88Zm-7.66-3.63a2.69,2.69,0,0,0-.93,1.72H186a2.69,2.69,0,0,0-.93-1.71,2.73,2.73,0,0,0-1.84-.64A2.8,2.8,0,0,0,181.35,29.25Z"/><path class="cls-3" d="M207.19,23.56a5,5,0,0,1,2.21,1.84,5.52,5.52,0,0,1,0,5.66,4.82,4.82,0,0,1-2.21,1.85,8.24,8.24,0,0,1-3.39.64h-3v4.06h-3.41V22.91h6.37A8.07,8.07,0,0,1,207.19,23.56Zm-1.25,6.56a2.63,2.63,0,0,0,0-3.78,3.58,3.58,0,0,0-2.33-.66h-2.77v5.1h2.77A3.58,3.58,0,0,0,205.94,30.12Z"/><path class="cls-3" d="M217.08,26.56a5.86,5.86,0,0,1,2.3-.42v3l-.74,0a3,3,0,0,0-2.2.79,3.18,3.18,0,0,0-.8,2.36v5.34h-3.28V26.31h3.13V27.8A3.65,3.65,0,0,1,217.08,26.56Z"/><path class="cls-3" d="M223.4,37a5.57,5.57,0,0,1-3-5.07,5.67,5.67,0,0,1,.8-3,5.49,5.49,0,0,1,2.21-2.06,7.2,7.2,0,0,1,6.4,0A5.53,5.53,0,0,1,232,29a5.76,5.76,0,0,1,.8,3,5.7,5.7,0,0,1-.8,3A5.62,5.62,0,0,1,229.8,37a7.29,7.29,0,0,1-6.4,0Zm5.27-2.79a3.61,3.61,0,0,0,0-4.56,2.72,2.72,0,0,0-2.07-.85,2.76,2.76,0,0,0-2.08.85,3.61,3.61,0,0,0,0,4.56,2.8,2.8,0,0,0,2.08.85A2.76,2.76,0,0,0,228.67,34.24Z"/><path class="cls-3" d="M237.16,37A5.55,5.55,0,0,1,234.94,35a5.7,5.7,0,0,1-.8-3,5.76,5.76,0,0,1,.8-3,5.46,5.46,0,0,1,2.22-2.06,7.18,7.18,0,0,1,6.39,0A5.56,5.56,0,0,1,245.76,29a5.76,5.76,0,0,1,.79,3,5.54,5.54,0,0,1-3,5.07,7.27,7.27,0,0,1-6.39,0Zm5.27-2.79a3.17,3.17,0,0,0,.8-2.28,3.17,3.17,0,0,0-.8-2.28,2.72,2.72,0,0,0-2.07-.85,2.76,2.76,0,0,0-2.08.85,3.58,3.58,0,0,0,0,4.56,2.8,2.8,0,0,0,2.08.85A2.76,2.76,0,0,0,242.43,34.24Z"/><path class="cls-3" d="M252.33,26.56h2.9v2.52h-2.82v8.53h-3.27V29.08h-1.75V26.56h1.75v-.5A4.14,4.14,0,0,1,250.28,23a4.36,4.36,0,0,1,3.22-1.13,6.33,6.33,0,0,1,1.4.15,3.61,3.61,0,0,1,1.1.45l-.86,2.38a2.22,2.22,0,0,0-1.32-.4c-1,0-1.49.54-1.49,1.64Zm6.38-2.35a1.8,1.8,0,0,1,0-2.61,2.08,2.08,0,0,1,1.47-.52,2.16,2.16,0,0,1,1.47.5,1.62,1.62,0,0,1,.57,1.26,1.79,1.79,0,0,1-.57,1.36,2.32,2.32,0,0,1-2.94,0Zm-.17,2.1h3.28v11.3h-3.28Z"/><path class="cls-3" d="M275.12,27.4a5,5,0,0,1,1.29,3.74v6.47h-3.27v-6a3,3,0,0,0-.59-2,2.16,2.16,0,0,0-1.7-.66,2.59,2.59,0,0,0-2,.76,3.17,3.17,0,0,0-.74,2.28v5.59h-3.28V26.31H268v1.32a4.52,4.52,0,0,1,1.62-1.1,5.59,5.59,0,0,1,2.12-.39A4.64,4.64,0,0,1,275.12,27.4Z"/><path class="cls-3" d="M291.16,26.31v9.41a6,6,0,0,1-1.62,4.62,6.72,6.72,0,0,1-4.73,1.51,12,12,0,0,1-3.1-.4,6.75,6.75,0,0,1-2.44-1.16l1.3-2.35a5.42,5.42,0,0,0,1.81.94,7.18,7.18,0,0,0,2.18.34,3.54,3.54,0,0,0,2.51-.76,3.06,3.06,0,0,0,.81-2.32v-.49a4.57,4.57,0,0,1-3.57,1.41,6,6,0,0,1-2.84-.68,5.2,5.2,0,0,1-2.05-1.92,5.76,5.76,0,0,1,0-5.72,5.2,5.2,0,0,1,2.05-1.92,6,6,0,0,1,2.84-.68,4.49,4.49,0,0,1,3.74,1.62V26.31Zm-4.07,7.3a2.85,2.85,0,0,0,0-4,3,3,0,0,0-2.13-.76,3,3,0,0,0-2.14.76,2.82,2.82,0,0,0,0,4,3,3,0,0,0,2.14.76A3,3,0,0,0,287.09,33.61Z"/><path class="cls-3" d="M296.91,34.26a1.94,1.94,0,0,1,.57,1.46,3.46,3.46,0,0,1-.11.84,9.13,9.13,0,0,1-.46,1.26l-1.2,3h-2.07l.92-3.34a1.74,1.74,0,0,1-.83-.68,2,2,0,0,1-.3-1.1,1.94,1.94,0,0,1,.57-1.46,2,2,0,0,1,1.46-.56A2,2,0,0,1,296.91,34.26Z"/><path class="cls-3" d="M118.26,48.11h3.41v14.7h-3.41Z"/><path class="cls-3" d="M135.18,52.6a5,5,0,0,1,1.29,3.74v6.47h-3.28v-6a3,3,0,0,0-.58-2,2.18,2.18,0,0,0-1.7-.67,2.62,2.62,0,0,0-2,.77,3.17,3.17,0,0,0-.73,2.28v5.59h-3.28V51.51h3.13v1.32a4.35,4.35,0,0,1,1.62-1.1,5.59,5.59,0,0,1,2.12-.39A4.64,4.64,0,0,1,135.18,52.6Z"/><path class="cls-3" d="M151.06,47.22V62.81h-3.12V61.5A4.33,4.33,0,0,1,144.41,63a5.81,5.81,0,0,1-2.89-.71,5.11,5.11,0,0,1-2-2,6.8,6.8,0,0,1,0-6.13,5.17,5.17,0,0,1,2-2,5.92,5.92,0,0,1,2.89-.71,4.29,4.29,0,0,1,3.38,1.36V47.22Zm-4,12.22a3.58,3.58,0,0,0,0-4.56A2.71,2.71,0,0,0,145,54a2.74,2.74,0,0,0-2.08.85,3.58,3.58,0,0,0,0,4.56,2.78,2.78,0,0,0,2.08.85A2.75,2.75,0,0,0,147,59.44Z"/><path class="cls-3" d="M165.47,51.51v11.3h-3.11V61.46a4.34,4.34,0,0,1-1.55,1.13,5,5,0,0,1-1.95.38,4.79,4.79,0,0,1-3.53-1.28,5.09,5.09,0,0,1-1.3-3.8V51.51h3.27v5.9c0,1.82.77,2.73,2.29,2.73a2.45,2.45,0,0,0,1.89-.77,3.22,3.22,0,0,0,.72-2.28V51.51Z"/><path class="cls-3" d="M169.57,62.63a7.26,7.26,0,0,1-2.15-.87l1.1-2.36a6.49,6.49,0,0,0,1.82.79,7.85,7.85,0,0,0,2.1.31c1.39,0,2.08-.35,2.08-1a.74.74,0,0,0-.56-.7,8.65,8.65,0,0,0-1.75-.35,15.65,15.65,0,0,1-2.29-.49,3.53,3.53,0,0,1-1.56-1,2.75,2.75,0,0,1-.66-2,3.07,3.07,0,0,1,.62-1.9,4,4,0,0,1,1.8-1.29,7.7,7.7,0,0,1,2.81-.46,11.34,11.34,0,0,1,2.38.26,6.64,6.64,0,0,1,2,.73l-1.09,2.33a6.51,6.51,0,0,0-3.25-.84,3.42,3.42,0,0,0-1.58.29.87.87,0,0,0-.52.76.75.75,0,0,0,.56.73,9.54,9.54,0,0,0,1.81.4,19.7,19.7,0,0,1,2.27.5,3.33,3.33,0,0,1,1.53,1,2.73,2.73,0,0,1,.65,1.93,3,3,0,0,1-.63,1.87,4,4,0,0,1-1.84,1.27,8.18,8.18,0,0,1-2.86.45A11,11,0,0,1,169.57,62.63Z"/><path class="cls-3" d="M187,62.26a3.3,3.3,0,0,1-1.18.54,6.52,6.52,0,0,1-1.48.17,4.37,4.37,0,0,1-3.12-1,3.9,3.9,0,0,1-1.1-3V54.28h-1.75V51.76h1.75V49h3.27v2.75h2.82v2.52h-2.82v4.6a1.51,1.51,0,0,0,.37,1.1,1.35,1.35,0,0,0,1,.39,2.08,2.08,0,0,0,1.32-.42Z"/><path class="cls-3" d="M193.52,51.76a5.86,5.86,0,0,1,2.3-.42v3l-.74,0a3,3,0,0,0-2.2.79,3.14,3.14,0,0,0-.8,2.36v5.34H188.8V51.51h3.13V53A3.59,3.59,0,0,1,193.52,51.76Z"/><path class="cls-3" d="M209.38,51.51l-5.1,12a5.93,5.93,0,0,1-1.92,2.75,4.75,4.75,0,0,1-2.76.8,5.57,5.57,0,0,1-1.75-.28,3.81,3.81,0,0,1-1.4-.75l1.19-2.33a3,3,0,0,0,.87.52,2.66,2.66,0,0,0,1,.19,1.76,1.76,0,0,0,1.09-.32,2.85,2.85,0,0,0,.76-1.09l0-.1-4.89-11.38h3.38L203,59.17l3.19-7.66Z"/><path class="cls-3" d="M229.44,59.72H227v3.09h-3.31V59.72h-7.92V57.43l6.93-9.32h3.57L219.88,57h4V54.2H227V57h2.4Z"/><path class="cls-3" d="M231.35,62.39a2,2,0,0,1-.59-1.47,1.91,1.91,0,0,1,.59-1.46,2,2,0,0,1,1.45-.56,2.06,2.06,0,0,1,1.45.56,1.91,1.91,0,0,1,.58,1.46,2,2,0,0,1-.58,1.47,2,2,0,0,1-1.45.58A2,2,0,0,1,231.35,62.39Z"/><path class="cls-3" d="M239.14,62.15a6.07,6.07,0,0,1-2.24-2.61,10.71,10.71,0,0,1,0-8.17,6.07,6.07,0,0,1,2.24-2.61,6.28,6.28,0,0,1,6.51,0,6,6,0,0,1,2.23,2.61,10.71,10.71,0,0,1,0,8.17,6,6,0,0,1-2.23,2.61,6.28,6.28,0,0,1-6.51,0ZM244.5,59a6.57,6.57,0,0,0,.77-3.57,6.57,6.57,0,0,0-.77-3.57,2.48,2.48,0,0,0-4.2,0,6.58,6.58,0,0,0-.76,3.57A6.58,6.58,0,0,0,240.3,59a2.49,2.49,0,0,0,4.2,0Z"/><path class="cls-3" d="M253.48,59.46a1.94,1.94,0,0,1,.57,1.46,3.46,3.46,0,0,1-.11.84,9.13,9.13,0,0,1-.46,1.26l-1.2,3h-2.07l.92-3.34a1.74,1.74,0,0,1-.83-.68,2,2,0,0,1-.3-1.1,1.94,1.94,0,0,1,.57-1.46A2,2,0,0,1,252,58.9,2,2,0,0,1,253.48,59.46Z"/><path class="cls-3" d="M270.81,52.59a4.8,4.8,0,0,1,1.4,3.77v6.45h-3.06V61.4c-.62,1.05-1.77,1.57-3.45,1.57a5.27,5.27,0,0,1-2.26-.44A3.31,3.31,0,0,1,262,61.31a3.11,3.11,0,0,1-.51-1.76,3,3,0,0,1,1.19-2.48,6,6,0,0,1,3.66-.9h2.61a2.12,2.12,0,0,0-.65-1.65,2.92,2.92,0,0,0-2-.58,5.66,5.66,0,0,0-1.77.29,4.69,4.69,0,0,0-1.48.76L261.9,52.7a7.31,7.31,0,0,1,2.22-1,9.79,9.79,0,0,1,2.65-.36A5.92,5.92,0,0,1,270.81,52.59ZM268,60.38a2.15,2.15,0,0,0,.93-1.14V58.08h-2.25c-1.34,0-2,.44-2,1.32a1.18,1.18,0,0,0,.5,1,2.19,2.19,0,0,0,1.35.37A2.83,2.83,0,0,0,268,60.38Z"/><path class="cls-3" d="M285.43,52.6a5,5,0,0,1,1.29,3.74v6.47h-3.27v-6a3,3,0,0,0-.59-2,2.16,2.16,0,0,0-1.7-.67,2.58,2.58,0,0,0-2,.77,3.13,3.13,0,0,0-.74,2.28v5.59h-3.28V51.51h3.13v1.32a4.52,4.52,0,0,1,1.62-1.1,5.59,5.59,0,0,1,2.12-.39A4.64,4.64,0,0,1,285.43,52.6Z"/><path class="cls-3" d="M301.32,47.22V62.81h-3.13V61.5A4.32,4.32,0,0,1,294.66,63a5.87,5.87,0,0,1-2.89-.71,5.09,5.09,0,0,1-2-2,6.72,6.72,0,0,1,0-6.13,5.15,5.15,0,0,1,2-2,6,6,0,0,1,2.89-.71A4.29,4.29,0,0,1,298,52.7V47.22Zm-4,12.22a3.61,3.61,0,0,0,0-4.56,2.95,2.95,0,0,0-4.14,0,3.58,3.58,0,0,0,0,4.56,2.95,2.95,0,0,0,4.14,0Z"/><path class="cls-3" d="M125.32,87.46a3.35,3.35,0,0,1-1.19.54,6.45,6.45,0,0,1-1.48.17,4.44,4.44,0,0,1-3.12-1,4,4,0,0,1-1.1-3V79.48h-1.74V77h1.74V74.21h3.28V77h2.81v2.52h-2.81v4.6a1.51,1.51,0,0,0,.37,1.1,1.34,1.34,0,0,0,1,.39,2.13,2.13,0,0,0,1.33-.42Z"/><path class="cls-3" d="M137.43,77.8a5,5,0,0,1,1.29,3.74V88h-3.28V82a2.9,2.9,0,0,0-.59-2,2.15,2.15,0,0,0-1.7-.67,2.61,2.61,0,0,0-2,.77,3.17,3.17,0,0,0-.74,2.28V88h-3.27V72.42h3.27v5.46a4.42,4.42,0,0,1,1.58-1,5.48,5.48,0,0,1,2-.35A4.68,4.68,0,0,1,137.43,77.8Z"/><path class="cls-3" d="M152.81,83.28h-8.55a2.71,2.71,0,0,0,1.09,1.66,3.61,3.61,0,0,0,2.15.61,4.48,4.48,0,0,0,1.56-.26,3.92,3.92,0,0,0,1.27-.83l1.74,1.89a5.86,5.86,0,0,1-4.66,1.82,7.34,7.34,0,0,1-3.38-.74,5.49,5.49,0,0,1-2.27-2.07,5.7,5.7,0,0,1-.8-3,5.84,5.84,0,0,1,.79-3,5.58,5.58,0,0,1,2.16-2.07,6.7,6.7,0,0,1,6.08,0,5.2,5.2,0,0,1,2.11,2,6,6,0,0,1,.77,3.1S152.85,82.73,152.81,83.28Zm-7.67-3.63a2.68,2.68,0,0,0-.92,1.72h5.56A2.68,2.68,0,0,0,147,79,2.84,2.84,0,0,0,145.14,79.65Z"/><path class="cls-3" d="M164.2,87.28a7.22,7.22,0,0,1-2.85-2.71,7.89,7.89,0,0,1,0-7.83A7.22,7.22,0,0,1,164.2,74a9.06,9.06,0,0,1,7.54-.3,6.81,6.81,0,0,1,2.59,1.93l-2.18,2a4.72,4.72,0,0,0-3.7-1.72,4.86,4.86,0,0,0-2.43.6,4.26,4.26,0,0,0-1.67,1.67,5.24,5.24,0,0,0,0,4.87A4.19,4.19,0,0,0,166,84.76a4.86,4.86,0,0,0,2.43.6,4.68,4.68,0,0,0,3.7-1.74l2.18,2a6.74,6.74,0,0,1-2.6,2,8.78,8.78,0,0,1-3.46.67A8.47,8.47,0,0,1,164.2,87.28Z"/><path class="cls-3" d="M176.56,74.61a1.78,1.78,0,0,1,0-2.61,2.08,2.08,0,0,1,1.47-.52,2.16,2.16,0,0,1,1.47.5,1.62,1.62,0,0,1,.57,1.26,1.79,1.79,0,0,1-.57,1.36,2.32,2.32,0,0,1-2.94,0Zm-.17,2.1h3.28V88h-3.28Z"/><path class="cls-3" d="M187.43,77a5.86,5.86,0,0,1,2.3-.42v3l-.74,0a3,3,0,0,0-2.2.79,3.14,3.14,0,0,0-.8,2.36V88h-3.28V76.71h3.13V78.2A3.59,3.59,0,0,1,187.43,77Z"/><path class="cls-3" d="M193.79,87.43a5.81,5.81,0,0,1-2.25-8.08,5.54,5.54,0,0,1,2.25-2.06,6.91,6.91,0,0,1,3.24-.75,6.26,6.26,0,0,1,3.12.75,4.39,4.39,0,0,1,1.95,2.13l-2.55,1.36A2.77,2.77,0,0,0,197,79.23a2.88,2.88,0,0,0-2.12.84,3.54,3.54,0,0,0,0,4.58,2.88,2.88,0,0,0,2.12.84,2.74,2.74,0,0,0,2.54-1.56l2.55,1.39a4.6,4.6,0,0,1-1.95,2.1,6.26,6.26,0,0,1-3.12.75A6.9,6.9,0,0,1,193.79,87.43Z"/><path class="cls-3" d="M215.37,76.71V88h-3.11V86.66a4.43,4.43,0,0,1-1.55,1.13,5.11,5.11,0,0,1-2,.38,4.8,4.8,0,0,1-3.53-1.28,5.13,5.13,0,0,1-1.3-3.8V76.71h3.28v5.9c0,1.82.76,2.73,2.29,2.73a2.48,2.48,0,0,0,1.89-.77,3.26,3.26,0,0,0,.71-2.28V76.71Z"/><path class="cls-3" d="M218.41,72.42h3.28V88h-3.28Z"/><path class="cls-3" d="M233.32,77.79a4.77,4.77,0,0,1,1.41,3.77V88h-3.07V86.6c-.61,1.05-1.76,1.57-3.44,1.57a5.27,5.27,0,0,1-2.26-.44,3.39,3.39,0,0,1-1.46-1.21,3.24,3.24,0,0,1-.5-1.77,2.94,2.94,0,0,1,1.19-2.48,6,6,0,0,1,3.66-.9h2.6a2.08,2.08,0,0,0-.65-1.65,2.87,2.87,0,0,0-2-.58,5.77,5.77,0,0,0-1.78.29,4.8,4.8,0,0,0-1.48.76l-1.17-2.29a7.14,7.14,0,0,1,2.21-1,9.87,9.87,0,0,1,2.66-.36A5.89,5.89,0,0,1,233.32,77.79Zm-2.79,7.79a2.14,2.14,0,0,0,.92-1.14V83.28h-2.24c-1.35,0-2,.44-2,1.32a1.17,1.17,0,0,0,.49,1A2.2,2.2,0,0,0,229,86,2.83,2.83,0,0,0,230.53,85.58Z"/><path class="cls-3" d="M242.4,77a5.93,5.93,0,0,1,2.3-.42v3l-.73,0a3,3,0,0,0-2.21.79,3.17,3.17,0,0,0-.79,2.36V88h-3.28V76.71h3.13V78.2A3.62,3.62,0,0,1,242.4,77Z"/><path class="cls-3" d="M264.3,85.28V88H252.91V73.31H264V76H256.3v3.19h6.82v2.64H256.3v3.41Z"/><path class="cls-3" d="M268.91,87.43a5.81,5.81,0,0,1-2.25-8.08,5.54,5.54,0,0,1,2.25-2.06,6.88,6.88,0,0,1,3.24-.75,6.26,6.26,0,0,1,3.12.75,4.32,4.32,0,0,1,1.94,2.13l-2.54,1.36a2.79,2.79,0,0,0-2.54-1.55,2.86,2.86,0,0,0-2.12.84,3.54,3.54,0,0,0,0,4.58,2.86,2.86,0,0,0,2.12.84,2.74,2.74,0,0,0,2.54-1.56l2.54,1.39a4.53,4.53,0,0,1-1.94,2.1,6.26,6.26,0,0,1-3.12.75A6.87,6.87,0,0,1,268.91,87.43Z"/><path class="cls-3" d="M281.13,87.43a5.55,5.55,0,0,1-2.22-2.07,5.7,5.7,0,0,1-.8-3,5.76,5.76,0,0,1,.8-3,5.46,5.46,0,0,1,2.22-2.06,7.18,7.18,0,0,1,6.39,0,5.56,5.56,0,0,1,2.21,2.06,5.76,5.76,0,0,1,.79,3,5.54,5.54,0,0,1-3,5.07,7.27,7.27,0,0,1-6.39,0Zm5.27-2.79a3.61,3.61,0,0,0,0-4.56,2.72,2.72,0,0,0-2.07-.85,2.76,2.76,0,0,0-2.08.85,3.58,3.58,0,0,0,0,4.56,2.8,2.8,0,0,0,2.08.85A2.76,2.76,0,0,0,286.4,84.64Z"/><path class="cls-3" d="M303,77.8a5,5,0,0,1,1.29,3.74V88H301V82a3,3,0,0,0-.58-2,2.18,2.18,0,0,0-1.71-.67,2.61,2.61,0,0,0-2,.77,3.17,3.17,0,0,0-.74,2.28V88h-3.27V76.71h3.13V78a4.4,4.4,0,0,1,1.61-1.1,5.68,5.68,0,0,1,2.13-.39A4.64,4.64,0,0,1,303,77.8Z"/><path class="cls-3" d="M309.52,87.43a5.61,5.61,0,0,1-2.22-2.07,5.7,5.7,0,0,1-.79-3,5.76,5.76,0,0,1,.79-3,5.52,5.52,0,0,1,2.22-2.06,6.75,6.75,0,0,1,3.2-.75,6.65,6.65,0,0,1,3.19.75,5.49,5.49,0,0,1,2.21,2.06,5.76,5.76,0,0,1,.8,3,5.7,5.7,0,0,1-.8,3,5.59,5.59,0,0,1-2.21,2.07,6.64,6.64,0,0,1-3.19.74A6.74,6.74,0,0,1,309.52,87.43Zm5.27-2.79a3.61,3.61,0,0,0,0-4.56,2.72,2.72,0,0,0-2.07-.85,2.76,2.76,0,0,0-2.08.85,3.58,3.58,0,0,0,0,4.56,2.8,2.8,0,0,0,2.08.85A2.76,2.76,0,0,0,314.79,84.64Z"/><path class="cls-3" d="M338.94,77.79a5.1,5.1,0,0,1,1.25,3.75V88h-3.28V82a3.06,3.06,0,0,0-.55-2,2,2,0,0,0-1.59-.67,2.3,2.3,0,0,0-1.82.75,3.22,3.22,0,0,0-.68,2.22V88H329V82c0-1.78-.72-2.67-2.15-2.67a2.3,2.3,0,0,0-1.8.75,3.22,3.22,0,0,0-.67,2.22V88H321.1V76.71h3.13V78a4,4,0,0,1,1.54-1.09,5.25,5.25,0,0,1,2-.38,4.89,4.89,0,0,1,2.16.47,3.92,3.92,0,0,1,1.56,1.38A4.65,4.65,0,0,1,333.25,77a5.57,5.57,0,0,1,2.32-.48A4.57,4.57,0,0,1,338.94,77.79Z"/><path class="cls-3" d="M354.13,76.71l-5.1,12a5.93,5.93,0,0,1-1.92,2.75,4.71,4.71,0,0,1-2.76.8A5.86,5.86,0,0,1,342.6,92a4,4,0,0,1-1.4-.76l1.2-2.33a2.72,2.72,0,0,0,.87.52,2.61,2.61,0,0,0,1,.19,1.76,1.76,0,0,0,1.09-.32,2.74,2.74,0,0,0,.76-1.09l0-.1-4.89-11.38h3.38l3.17,7.66L351,76.71Z"/></svg>