<svg id="Layer_1" data-name="Layer 1" xmlns="http://www.w3.org/2000/svg" viewBox="0 0 474.47 113.33"><defs><style>.cls-1{fill:#fff;}.cls-2{fill:#8d1938;}.cls-3{fill:#19486a;}</style></defs><rect class="cls-1" width="474.47" height="113.33"/><polygon class="cls-2" points="0 113.33 0 0 113.33 0 0 113.33"/><path class="cls-1" d="M40.93,29.91a7.69,7.69,0,0,1,3.13,2.76,7.38,7.38,0,0,1,1.15,4.12A7.87,7.87,0,0,1,44,41.22a8.15,8.15,0,0,1-3.44,2.93,11.25,11.25,0,0,1-4.84,1,10.7,10.7,0,0,1-8.28-3.24q-3-3.24-3-9.26A15.51,15.51,0,0,1,26,25.34a11,11,0,0,1,4.52-4.64,13.74,13.74,0,0,1,6.72-1.59,16.4,16.4,0,0,1,3.87.45,10.54,10.54,0,0,1,3.15,1.28l-2.16,4.28a8.28,8.28,0,0,0-4.72-1.26,6.86,6.86,0,0,0-5.08,1.88,7.82,7.82,0,0,0-2,5.43,8.41,8.41,0,0,1,6.23-2.23A9.82,9.82,0,0,1,40.93,29.91Zm-2.54,9.9a3.41,3.41,0,0,0,1.17-2.73,3.49,3.49,0,0,0-1.17-2.76,4.57,4.57,0,0,0-3.11-1,4.61,4.61,0,0,0-3.14,1.06,3.65,3.65,0,0,0,0,5.42,4.76,4.76,0,0,0,3.24,1A4.5,4.5,0,0,0,38.39,39.81Z"/><path class="cls-3" d="M136.72,33.08a3.55,3.55,0,0,1,.68,2.19A3.23,3.23,0,0,1,136,38.1a7.3,7.3,0,0,1-4.17,1h-7.24v-14h6.84a6.63,6.63,0,0,1,3.93,1,3.1,3.1,0,0,1,1.37,2.65,3.36,3.36,0,0,1-1.86,3.08A3.74,3.74,0,0,1,136.72,33.08Zm-8.94-5.54v3.29H131a3.25,3.25,0,0,0,1.82-.41,1.43,1.43,0,0,0,.62-1.25,1.37,1.37,0,0,0-.62-1.22,3.25,3.25,0,0,0-1.82-.41Zm5.71,8.69a1.42,1.42,0,0,0,.65-1.29c0-1.17-.86-1.74-2.58-1.74h-3.78v3.46h3.78A3.58,3.58,0,0,0,133.49,36.23Z"/><path class="cls-3" d="M150.48,28.33V39.09h-3V37.81A4,4,0,0,1,146,38.88a5.12,5.12,0,0,1-5.22-.84,4.88,4.88,0,0,1-1.24-3.62V28.33h3.12V34c0,1.73.73,2.59,2.18,2.59a2.35,2.35,0,0,0,1.8-.72,3.1,3.1,0,0,0,.68-2.17V28.33Z"/><path class="cls-3" d="M153.54,26.33a1.61,1.61,0,0,1-.54-1.24,1.64,1.64,0,0,1,.54-1.24,2,2,0,0,1,1.4-.5,2,2,0,0,1,1.4.48,1.56,1.56,0,0,1,.54,1.21,1.73,1.73,0,0,1-.54,1.29,2.21,2.21,0,0,1-2.8,0Zm-.16,2h3.12V39.09h-3.12Z"/><path class="cls-3" d="M159.4,24.25h3.12V39.09H159.4Z"/><path class="cls-3" d="M176.38,24.25V39.09h-3V37.85a4.09,4.09,0,0,1-3.36,1.4,5.63,5.63,0,0,1-2.75-.67,5,5,0,0,1-1.93-1.95,6.44,6.44,0,0,1,0-5.84,5,5,0,0,1,1.93-1.94,5.63,5.63,0,0,1,2.75-.68,4.12,4.12,0,0,1,3.22,1.3V24.25Zm-3.84,11.63a3.41,3.41,0,0,0,0-4.34,2.6,2.6,0,0,0-2-.81,2.63,2.63,0,0,0-2,.81,3.41,3.41,0,0,0,0,4.34,2.64,2.64,0,0,0,2,.82A2.61,2.61,0,0,0,172.54,35.88Z"/><path class="cls-3" d="M179.42,26.33a1.61,1.61,0,0,1-.54-1.24,1.64,1.64,0,0,1,.54-1.24,2,2,0,0,1,1.4-.5,2,2,0,0,1,1.4.48,1.56,1.56,0,0,1,.54,1.21,1.73,1.73,0,0,1-.54,1.29,2.21,2.21,0,0,1-2.8,0Zm-.16,2h3.12V39.09h-3.12Z"/><path class="cls-3" d="M195.05,29.38a4.73,4.73,0,0,1,1.23,3.56v6.15h-3.12V33.42a2.84,2.84,0,0,0-.56-1.92,2,2,0,0,0-1.62-.62,2.5,2.5,0,0,0-1.88.72,3,3,0,0,0-.7,2.17v5.32h-3.12V28.33h3v1.26a4.22,4.22,0,0,1,1.54-1.05,5.46,5.46,0,0,1,2-.37A4.44,4.44,0,0,1,195.05,29.38Z"/><path class="cls-3" d="M210.32,28.33v9a5.8,5.8,0,0,1-1.54,4.41,6.37,6.37,0,0,1-4.5,1.43,11,11,0,0,1-3-.38A6.49,6.49,0,0,1,199,41.66l1.24-2.24a5.06,5.06,0,0,0,1.72.88,6.8,6.8,0,0,0,2.08.33,3.42,3.42,0,0,0,2.39-.72,2.94,2.94,0,0,0,.77-2.21v-.47a4.36,4.36,0,0,1-3.4,1.35,5.63,5.63,0,0,1-2.71-.66,4.91,4.91,0,0,1-2-1.83,5.48,5.48,0,0,1,0-5.43,4.91,4.91,0,0,1,2-1.83,5.63,5.63,0,0,1,2.71-.66,4.3,4.3,0,0,1,3.56,1.54V28.33Zm-3.87,7a2.72,2.72,0,0,0,0-3.83,3.2,3.2,0,0,0-4.07,0,2.69,2.69,0,0,0,0,3.83,3.24,3.24,0,0,0,4.07,0Z"/><path class="cls-3" d="M228.56,31.88h3v5.67a8.4,8.4,0,0,1-2.64,1.33,10.48,10.48,0,0,1-3,.45,8.28,8.28,0,0,1-3.92-.92,7,7,0,0,1-2.73-2.58,7.16,7.16,0,0,1-1-3.74,7.06,7.06,0,0,1,1-3.72A6.78,6.78,0,0,1,222,25.79a8.33,8.33,0,0,1,4-.94,8.72,8.72,0,0,1,3.34.62,6.76,6.76,0,0,1,2.52,1.8L229.7,29.2a4.79,4.79,0,0,0-3.62-1.58,5,5,0,0,0-2.38.55,4,4,0,0,0-1.62,1.58,5,5,0,0,0,0,4.67A4.08,4.08,0,0,0,223.69,36a4.76,4.76,0,0,0,2.35.58,5.16,5.16,0,0,0,2.52-.61Z"/><path class="cls-3" d="M244.78,34.59h-8.14a2.47,2.47,0,0,0,1,1.58,3.39,3.39,0,0,0,2,.58,4,4,0,0,0,1.49-.25,3.46,3.46,0,0,0,1.21-.79l1.66,1.8a5.58,5.58,0,0,1-4.44,1.74,6.91,6.91,0,0,1-3.22-.71,5.14,5.14,0,0,1-2.16-2,5.78,5.78,0,0,1,0-5.71,5.26,5.26,0,0,1,2.06-2,6.38,6.38,0,0,1,5.79,0,5.09,5.09,0,0,1,2,1.95,5.89,5.89,0,0,1,.73,2.95S244.82,34.08,244.78,34.59Zm-7.3-3.46a2.56,2.56,0,0,0-.88,1.64h5.3a2.55,2.55,0,0,0-.88-1.62,2.62,2.62,0,0,0-1.76-.61A2.67,2.67,0,0,0,237.48,31.13Z"/><path class="cls-3" d="M256.69,29.38a4.73,4.73,0,0,1,1.23,3.56v6.15H254.8V33.42a2.84,2.84,0,0,0-.56-1.92,2.07,2.07,0,0,0-1.62-.62,2.49,2.49,0,0,0-1.88.72,3,3,0,0,0-.7,2.17v5.32h-3.12V28.33h3v1.26a4.13,4.13,0,0,1,1.54-1.05,5.46,5.46,0,0,1,2-.37A4.44,4.44,0,0,1,256.69,29.38Z"/><path class="cls-3" d="M271.82,24.25V39.09h-3V37.85a4.11,4.11,0,0,1-3.36,1.4,5.6,5.6,0,0,1-2.75-.67,4.89,4.89,0,0,1-1.93-1.95,6.44,6.44,0,0,1,0-5.84,4.93,4.93,0,0,1,1.93-1.94,5.61,5.61,0,0,1,2.75-.68,4.13,4.13,0,0,1,3.22,1.3V24.25ZM268,35.88a3.41,3.41,0,0,0,0-4.34,2.8,2.8,0,0,0-3.94,0,3.41,3.41,0,0,0,0,4.34,2.78,2.78,0,0,0,3.94,0Z"/><path class="cls-3" d="M285.18,34.59H277a2.47,2.47,0,0,0,1,1.58,3.39,3.39,0,0,0,2,.58,4.08,4.08,0,0,0,1.49-.25,3.46,3.46,0,0,0,1.21-.79l1.66,1.8A5.6,5.6,0,0,1,280,39.25a6.91,6.91,0,0,1-3.22-.71,5.08,5.08,0,0,1-2.16-2,5.78,5.78,0,0,1,0-5.71,5.26,5.26,0,0,1,2.06-2,6.38,6.38,0,0,1,5.79,0,5.09,5.09,0,0,1,2,1.95,5.89,5.89,0,0,1,.73,2.95S285.22,34.08,285.18,34.59Zm-7.3-3.46a2.56,2.56,0,0,0-.88,1.64h5.3a2.55,2.55,0,0,0-.88-1.62,2.62,2.62,0,0,0-1.76-.61A2.67,2.67,0,0,0,277.88,31.13Z"/><path class="cls-3" d="M291.81,28.58a5.52,5.52,0,0,1,2.19-.41v2.88l-.7,0a2.84,2.84,0,0,0-2.1.75,3,3,0,0,0-.76,2.25v5.08h-3.12V28.33h3v1.42A3.35,3.35,0,0,1,291.81,28.58Z"/><path class="cls-3" d="M312.66,36.5v2.59H301.82v-14H312.4V27.7H305v3h6.5v2.52H305V36.5Z"/><path class="cls-3" d="M325.86,28.33V43h-3.12V38a4.12,4.12,0,0,1-3.22,1.29,5.6,5.6,0,0,1-2.75-.67,4.89,4.89,0,0,1-1.93-1.95,6.44,6.44,0,0,1,0-5.84,4.93,4.93,0,0,1,1.93-1.94,5.61,5.61,0,0,1,2.75-.68,4.12,4.12,0,0,1,3.36,1.41V28.33ZM322,35.88a3.41,3.41,0,0,0,0-4.34,2.8,2.8,0,0,0-3.94,0,3.41,3.41,0,0,0,0,4.34,2.78,2.78,0,0,0,3.94,0Z"/><path class="cls-3" d="M339.58,28.33V39.09h-3V37.81a4.1,4.1,0,0,1-1.48,1.07,4.64,4.64,0,0,1-1.86.37A4.57,4.57,0,0,1,329.92,38a4.88,4.88,0,0,1-1.24-3.62V28.33h3.12V34c0,1.73.72,2.59,2.18,2.59a2.38,2.38,0,0,0,1.8-.72,3.1,3.1,0,0,0,.68-2.17V28.33Z"/><path class="cls-3" d="M350.66,29.37A4.55,4.55,0,0,1,352,33v6.13h-2.92V37.75a3.48,3.48,0,0,1-3.28,1.5,4.91,4.91,0,0,1-2.15-.42,3.14,3.14,0,0,1-1.39-1.16,3,3,0,0,1-.48-1.67,2.81,2.81,0,0,1,1.13-2.37,5.76,5.76,0,0,1,3.49-.86h2.48a2,2,0,0,0-.62-1.56,2.74,2.74,0,0,0-1.86-.55,5.68,5.68,0,0,0-1.69.26,4.28,4.28,0,0,0-1.41.74l-1.12-2.19a6.84,6.84,0,0,1,2.11-1,9.71,9.71,0,0,1,2.53-.34A5.59,5.59,0,0,1,350.66,29.37ZM348,36.79a2.12,2.12,0,0,0,.88-1.09V34.59h-2.14q-1.92,0-1.92,1.26a1.1,1.1,0,0,0,.47.95,2.06,2.06,0,0,0,1.29.36A2.81,2.81,0,0,0,348,36.79Z"/><path class="cls-3" d="M354.82,24.25h3.12V39.09h-3.12Z"/><path class="cls-3" d="M363.42,35.91a1.84,1.84,0,0,1,.54,1.38,3.58,3.58,0,0,1-.1.8,10.3,10.3,0,0,1-.44,1.2l-1.14,2.88h-2l.88-3.17a1.6,1.6,0,0,1-.79-.66,2,2,0,0,1,.26-2.43,1.88,1.88,0,0,1,1.39-.53A1.86,1.86,0,0,1,363.42,35.91Z"/><path class="cls-3" d="M127.39,62.41a7,7,0,0,1-2.72-2.58,7.16,7.16,0,0,1-1-3.74,7.06,7.06,0,0,1,1-3.72,6.89,6.89,0,0,1,2.72-2.58,8.58,8.58,0,0,1,7.18-.29A6.63,6.63,0,0,1,137,51.33L135,53.25a4.48,4.48,0,0,0-3.52-1.63,4.56,4.56,0,0,0-2.32.57,4,4,0,0,0-1.59,1.58,5,5,0,0,0,0,4.65A4.09,4.09,0,0,0,129.12,60a4.67,4.67,0,0,0,2.32.58A4.48,4.48,0,0,0,135,58.92L137,60.83a6.47,6.47,0,0,1-2.48,1.87,8.37,8.37,0,0,1-3.3.63A8.13,8.13,0,0,1,127.39,62.41Z"/><path class="cls-3" d="M148.77,53.38A4.73,4.73,0,0,1,150,56.94v6.15h-3.12V57.42a2.84,2.84,0,0,0-.56-1.92,2,2,0,0,0-1.62-.62,2.5,2.5,0,0,0-1.88.72,3,3,0,0,0-.7,2.17v5.32H139V48.25h3.12v5.21a4,4,0,0,1,1.5-1,5.69,5.69,0,0,1,1.92-.33A4.44,4.44,0,0,1,148.77,53.38Z"/><path class="cls-3" d="M153,50.33a1.61,1.61,0,0,1-.54-1.24,1.64,1.64,0,0,1,.54-1.24,2,2,0,0,1,1.4-.5,2,2,0,0,1,1.4.48,1.56,1.56,0,0,1,.54,1.21,1.73,1.73,0,0,1-.54,1.29,2.21,2.21,0,0,1-2.8,0Zm-.16,2h3.12V63.09h-3.12Z"/><path class="cls-3" d="M158.84,48.25H162V63.09h-3.12Z"/><path class="cls-3" d="M175.82,48.25V63.09h-3V61.85a4.1,4.1,0,0,1-3.36,1.4,5.63,5.63,0,0,1-2.75-.67,5,5,0,0,1-1.93-1.95,6.44,6.44,0,0,1,0-5.84,5,5,0,0,1,1.93-1.94,5.63,5.63,0,0,1,2.75-.68,4.12,4.12,0,0,1,3.22,1.3V48.25ZM172,59.88a3.41,3.41,0,0,0,0-4.34,2.6,2.6,0,0,0-2-.81,2.63,2.63,0,0,0-2,.81,3.41,3.41,0,0,0,0,4.34,2.64,2.64,0,0,0,2,.82A2.61,2.61,0,0,0,172,59.88Z"/><path class="cls-3" d="M178.3,56.21H184v2.5H178.3Z"/><path class="cls-3" d="M189.88,51.7v3.7h6.48V58h-6.48v5.09h-3.24v-14h10.58V51.7Z"/><path class="cls-3" d="M203.49,52.58a5.52,5.52,0,0,1,2.19-.41v2.88l-.7,0a2.84,2.84,0,0,0-2.1.75,3,3,0,0,0-.76,2.25v5.08H199V52.33h3v1.42A3.4,3.4,0,0,1,203.49,52.58Z"/><path class="cls-3" d="M207.7,50.33a1.61,1.61,0,0,1-.54-1.24,1.64,1.64,0,0,1,.54-1.24,2,2,0,0,1,1.4-.5,2,2,0,0,1,1.4.48A1.56,1.56,0,0,1,211,49a1.73,1.73,0,0,1-.54,1.29,2.21,2.21,0,0,1-2.8,0Zm-.16,2h3.12V63.09h-3.12Z"/><path class="cls-3" d="M224,58.59H215.9a2.47,2.47,0,0,0,1,1.58,3.39,3.39,0,0,0,2,.58,4.08,4.08,0,0,0,1.49-.25,3.46,3.46,0,0,0,1.21-.79l1.66,1.8a5.6,5.6,0,0,1-4.44,1.74,6.91,6.91,0,0,1-3.22-.71,5.08,5.08,0,0,1-2.16-2,5.78,5.78,0,0,1,0-5.71,5.26,5.26,0,0,1,2.06-2,6.38,6.38,0,0,1,5.79,0,5.09,5.09,0,0,1,2,1.95,5.89,5.89,0,0,1,.73,3S224.08,58.08,224,58.59Zm-7.3-3.46a2.56,2.56,0,0,0-.88,1.64h5.3a2.55,2.55,0,0,0-.88-1.62,2.62,2.62,0,0,0-1.76-.61A2.67,2.67,0,0,0,216.74,55.13Z"/><path class="cls-3" d="M236,53.38a4.73,4.73,0,0,1,1.23,3.56v6.15h-3.12V57.42a2.84,2.84,0,0,0-.56-1.92,2.07,2.07,0,0,0-1.62-.62,2.49,2.49,0,0,0-1.88.72,3,3,0,0,0-.7,2.17v5.32h-3.12V52.33h3v1.26a4.13,4.13,0,0,1,1.54-1.05,5.46,5.46,0,0,1,2-.37A4.44,4.44,0,0,1,236,53.38Z"/><path class="cls-3" d="M251.08,48.25V63.09h-3V61.85a4.11,4.11,0,0,1-3.36,1.4,5.6,5.6,0,0,1-2.75-.67,4.89,4.89,0,0,1-1.93-1.95,6.44,6.44,0,0,1,0-5.84A4.93,4.93,0,0,1,242,52.85a5.61,5.61,0,0,1,2.75-.68,4.13,4.13,0,0,1,3.22,1.3V48.25Zm-3.84,11.63a3.41,3.41,0,0,0,0-4.34,2.8,2.8,0,0,0-3.94,0,3.41,3.41,0,0,0,0,4.34,2.78,2.78,0,0,0,3.94,0Z"/><path class="cls-3" d="M254,48.25h3.12V63.09H254Z"/><path class="cls-3" d="M270.66,52.33,265.8,63.75A5.72,5.72,0,0,1,264,66.38a4.55,4.55,0,0,1-2.63.75,5.52,5.52,0,0,1-1.66-.25,3.78,3.78,0,0,1-1.34-.72l1.14-2.22a2.87,2.87,0,0,0,.83.5,2.79,2.79,0,0,0,.93.18,1.65,1.65,0,0,0,1-.32,2.72,2.72,0,0,0,.72-1l0-.1-4.66-10.84h3.22l3,7.3,3-7.3Z"/><path class="cls-3" d="M299,49.09l-4.58,14h-3.48l-3.08-9.47-3.18,9.47H281.2l-4.6-14H280l3.16,9.85,3.3-9.85h3l3.2,9.92,3.26-9.92Z"/><path class="cls-3" d="M301.83,62.54a5.19,5.19,0,0,1-2.11-2,5.78,5.78,0,0,1,0-5.73,5.28,5.28,0,0,1,2.11-2,6.88,6.88,0,0,1,6.09,0,5.39,5.39,0,0,1,2.1,2,5.78,5.78,0,0,1,0,5.73,5.29,5.29,0,0,1-2.1,2,6.88,6.88,0,0,1-6.09,0Zm5-2.66a3.44,3.44,0,0,0,0-4.34,2.81,2.81,0,0,0-4,0,3.41,3.41,0,0,0,0,4.34,2.79,2.79,0,0,0,4,0Z"/><path class="cls-3" d="M317.35,52.58a5.52,5.52,0,0,1,2.19-.41v2.88l-.7,0a2.84,2.84,0,0,0-2.1.75A3,3,0,0,0,316,58v5.08h-3.12V52.33h3v1.42A3.35,3.35,0,0,1,317.35,52.58Z"/><path class="cls-3" d="M326,58.88l-1.5,1.47v2.74H321.4V48.25h3.12v8.41l4.56-4.33h3.72l-4.48,4.57,4.88,6.19h-3.78Z"/><path class="cls-3" d="M343.61,52.87a5,5,0,0,1,1.93,1.93,6.4,6.4,0,0,1,0,5.82,4.93,4.93,0,0,1-1.93,1.94,5.48,5.48,0,0,1-2.73.69A4.15,4.15,0,0,1,337.64,62v5h-3.12V52.33h3v1.25a4.12,4.12,0,0,1,3.38-1.41A5.49,5.49,0,0,1,343.61,52.87Zm-1.3,7a3.44,3.44,0,0,0,0-4.34,2.8,2.8,0,0,0-3.94,0,3.44,3.44,0,0,0,0,4.34,2.78,2.78,0,0,0,3.94,0Z"/><path class="cls-3" d="M348.32,48.25h3.12V63.09h-3.12Z"/><path class="cls-3" d="M362.52,53.37A4.55,4.55,0,0,1,363.86,57v6.13h-2.92V61.75a3.48,3.48,0,0,1-3.28,1.5,4.91,4.91,0,0,1-2.15-.42,3.14,3.14,0,0,1-1.39-1.16,3,3,0,0,1-.48-1.67,2.81,2.81,0,0,1,1.13-2.37,5.76,5.76,0,0,1,3.49-.86h2.48a2,2,0,0,0-.62-1.56,2.74,2.74,0,0,0-1.86-.55,5.68,5.68,0,0,0-1.69.26,4.28,4.28,0,0,0-1.41.74L354,53.47a6.84,6.84,0,0,1,2.11-1,9.71,9.71,0,0,1,2.53-.34A5.59,5.59,0,0,1,362.52,53.37Zm-2.66,7.42a2.12,2.12,0,0,0,.88-1.09V58.59H358.6q-1.92,0-1.92,1.26a1.1,1.1,0,0,0,.47.95,2.06,2.06,0,0,0,1.29.36A2.81,2.81,0,0,0,359.86,60.79Z"/><path class="cls-3" d="M368.91,62.54a5.21,5.21,0,0,1-2.14-2,5.72,5.72,0,0,1,0-5.73,5.3,5.3,0,0,1,2.14-2,6.64,6.64,0,0,1,3.09-.71,6,6,0,0,1,3,.71,4.31,4.31,0,0,1,1.85,2l-2.42,1.29A2.66,2.66,0,0,0,372,54.73a2.7,2.7,0,0,0-2,.81,2.89,2.89,0,0,0-.8,2.17,3,3,0,0,0,.8,2.19,2.74,2.74,0,0,0,2,.8,2.63,2.63,0,0,0,2.42-1.49l2.42,1.33a4.41,4.41,0,0,1-1.85,2,6,6,0,0,1-3,.71A6.52,6.52,0,0,1,368.91,62.54Z"/><path class="cls-3" d="M389,58.59h-8.14a2.47,2.47,0,0,0,1,1.58,3.39,3.39,0,0,0,2,.58,4.08,4.08,0,0,0,1.49-.25,3.46,3.46,0,0,0,1.21-.79l1.66,1.8a5.6,5.6,0,0,1-4.44,1.74,6.91,6.91,0,0,1-3.22-.71,5.08,5.08,0,0,1-2.16-2,5.78,5.78,0,0,1,0-5.71,5.26,5.26,0,0,1,2.06-2,6.38,6.38,0,0,1,5.79,0,5.09,5.09,0,0,1,2,1.95,5.89,5.89,0,0,1,.73,3S389,58.08,389,58.59Zm-7.3-3.46a2.56,2.56,0,0,0-.88,1.64h5.3a2.55,2.55,0,0,0-.88-1.62,2.62,2.62,0,0,0-1.76-.61A2.67,2.67,0,0,0,381.66,55.13Z"/><path class="cls-3" d="M392.1,62.92a6.3,6.3,0,0,1-2-.83l1-2.24a6.34,6.34,0,0,0,1.74.75,7,7,0,0,0,2,.3c1.32,0,2-.33,2-1a.71.71,0,0,0-.54-.67,8.23,8.23,0,0,0-1.66-.33,17.56,17.56,0,0,1-2.18-.46,3.5,3.5,0,0,1-1.49-.92,2.64,2.64,0,0,1-.63-1.88,2.92,2.92,0,0,1,.59-1.82,3.75,3.75,0,0,1,1.72-1.22,7.17,7.17,0,0,1,2.67-.45,11,11,0,0,1,2.27.25,6.35,6.35,0,0,1,1.87.7l-1,2.21a6.24,6.24,0,0,0-3.1-.79,3.24,3.24,0,0,0-1.5.27.82.82,0,0,0-.5.73.7.7,0,0,0,.54.69,8.79,8.79,0,0,0,1.72.39,18.67,18.67,0,0,1,2.16.46,3.24,3.24,0,0,1,1.46.92,2.58,2.58,0,0,1,.62,1.83,2.88,2.88,0,0,1-.6,1.79,4,4,0,0,1-1.75,1.21,8,8,0,0,1-2.73.42A10,10,0,0,1,392.1,62.92Z"/><path class="cls-3" d="M132.52,77.37A4.55,4.55,0,0,1,133.86,81v6.13h-2.92V85.75a3.48,3.48,0,0,1-3.28,1.5,4.94,4.94,0,0,1-2.15-.42,3.14,3.14,0,0,1-1.39-1.16,3,3,0,0,1-.48-1.67,2.84,2.84,0,0,1,1.13-2.37,5.78,5.78,0,0,1,3.49-.86h2.48a2,2,0,0,0-.62-1.56,2.7,2.7,0,0,0-1.86-.55,5.73,5.73,0,0,0-1.69.26,4.49,4.49,0,0,0-1.41.74L124,77.47a7,7,0,0,1,2.11-1,9.71,9.71,0,0,1,2.53-.34A5.56,5.56,0,0,1,132.52,77.37Zm-2.66,7.42a2.07,2.07,0,0,0,.88-1.09V82.59H128.6q-1.92,0-1.92,1.26a1.13,1.13,0,0,0,.47,1,2.06,2.06,0,0,0,1.29.36A2.78,2.78,0,0,0,129.86,84.79Z"/><path class="cls-3" d="M146.45,77.38a4.73,4.73,0,0,1,1.23,3.56v6.15h-3.12V81.42A2.84,2.84,0,0,0,144,79.5a2,2,0,0,0-1.62-.62,2.5,2.5,0,0,0-1.88.72,3,3,0,0,0-.7,2.17v5.32h-3.12V76.33h3v1.26a4.22,4.22,0,0,1,1.54-1,5.5,5.5,0,0,1,2-.37A4.44,4.44,0,0,1,146.45,77.38Z"/><path class="cls-3" d="M161.58,72.25V87.09h-3V85.85a4.11,4.11,0,0,1-3.36,1.4,5.63,5.63,0,0,1-2.75-.67,5,5,0,0,1-1.93-2,6.44,6.44,0,0,1,0-5.84,5,5,0,0,1,1.93-1.94,5.63,5.63,0,0,1,2.75-.68,4.12,4.12,0,0,1,3.22,1.3V72.25Zm-3.84,11.63a3.41,3.41,0,0,0,0-4.34,2.6,2.6,0,0,0-2-.81,2.63,2.63,0,0,0-2,.81,3.41,3.41,0,0,0,0,4.34,2.64,2.64,0,0,0,2,.82A2.61,2.61,0,0,0,157.74,83.88Z"/><path class="cls-3" d="M179.63,73.71a5,5,0,0,1,2.11,7.16,4.75,4.75,0,0,1-2.11,1.75,7.86,7.86,0,0,1-3.23.61h-2.82v3.86h-3.24v-14h6.06A7.85,7.85,0,0,1,179.63,73.71ZM178.44,80a2.5,2.5,0,0,0,0-3.59,3.42,3.42,0,0,0-2.22-.64h-2.64v4.86h2.64A3.42,3.42,0,0,0,178.44,80Z"/><path class="cls-3" d="M189.05,76.58a5.52,5.52,0,0,1,2.19-.41v2.88l-.7,0a2.84,2.84,0,0,0-2.1.75,3,3,0,0,0-.76,2.25v5.08h-3.12V76.33h3v1.42A3.35,3.35,0,0,1,189.05,76.58Z"/><path class="cls-3" d="M195.07,86.54a5.19,5.19,0,0,1-2.11-2,5.78,5.78,0,0,1,0-5.73,5.28,5.28,0,0,1,2.11-2,6.5,6.5,0,0,1,3.05-.71,6.43,6.43,0,0,1,3,.71A5.3,5.3,0,0,1,204,81.71a5.45,5.45,0,0,1-.76,2.87,5.29,5.29,0,0,1-2.1,2,6.32,6.32,0,0,1-3,.71A6.38,6.38,0,0,1,195.07,86.54Zm5-2.66a3.44,3.44,0,0,0,0-4.34,2.81,2.81,0,0,0-4,0,3.41,3.41,0,0,0,0,4.34,2.79,2.79,0,0,0,4,0Z"/><path class="cls-3" d="M213,86.58a3.26,3.26,0,0,1-1.13.5,5.45,5.45,0,0,1-1.41.17,4.16,4.16,0,0,1-3-1,3.73,3.73,0,0,1-1.05-2.87V79h-1.66V76.58h1.66V74h3.12v2.62h2.68V79H209.6v4.38a1.5,1.5,0,0,0,.35,1.06,1.31,1.31,0,0,0,1,.36,2.05,2.05,0,0,0,1.26-.39Z"/><path class="cls-3" d="M224.94,82.59H216.8a2.47,2.47,0,0,0,1,1.58,3.41,3.41,0,0,0,2,.58,4,4,0,0,0,1.49-.25,3.46,3.46,0,0,0,1.21-.79l1.66,1.8a5.58,5.58,0,0,1-4.44,1.74,6.91,6.91,0,0,1-3.22-.71,5.14,5.14,0,0,1-2.16-2,5.78,5.78,0,0,1,0-5.71,5.26,5.26,0,0,1,2.06-2,6.38,6.38,0,0,1,5.79,0,5.09,5.09,0,0,1,2,2,5.89,5.89,0,0,1,.73,3S225,82.08,224.94,82.59Zm-7.3-3.46a2.56,2.56,0,0,0-.88,1.64h5.3a2.55,2.55,0,0,0-.88-1.62,2.62,2.62,0,0,0-1.76-.61A2.67,2.67,0,0,0,217.64,79.13Z"/><path class="cls-3" d="M229.19,86.54a5.27,5.27,0,0,1-2.14-2,5.43,5.43,0,0,1,2.14-7.7,6.64,6.64,0,0,1,3.09-.71,6,6,0,0,1,3,.71,4.26,4.26,0,0,1,1.85,2l-2.42,1.29a2.66,2.66,0,0,0-2.42-1.48,2.7,2.7,0,0,0-2,.81,2.89,2.89,0,0,0-.8,2.17,3,3,0,0,0,.8,2.19,2.74,2.74,0,0,0,2,.8,2.63,2.63,0,0,0,2.42-1.49l2.42,1.33a4.36,4.36,0,0,1-1.85,2,6,6,0,0,1-3,.71A6.52,6.52,0,0,1,229.19,86.54Z"/><path class="cls-3" d="M246,86.58a3.34,3.34,0,0,1-1.13.5,5.45,5.45,0,0,1-1.41.17,4.16,4.16,0,0,1-3-1,3.73,3.73,0,0,1-1.05-2.87V79h-1.66V76.58h1.66V74h3.12v2.62h2.68V79h-2.68v4.38a1.46,1.46,0,0,0,.35,1.06,1.31,1.31,0,0,0,1,.36,2.05,2.05,0,0,0,1.26-.39Z"/><path class="cls-3" d="M247.92,74.33a1.61,1.61,0,0,1-.54-1.24,1.64,1.64,0,0,1,.54-1.24,2,2,0,0,1,1.4-.5,2,2,0,0,1,1.4.48,1.56,1.56,0,0,1,.54,1.21,1.73,1.73,0,0,1-.54,1.29,2.21,2.21,0,0,1-2.8,0Zm-.16,2h3.12V87.09h-3.12Z"/><path class="cls-3" d="M263.55,77.38a4.73,4.73,0,0,1,1.23,3.56v6.15h-3.12V81.42a2.84,2.84,0,0,0-.56-1.92,2.07,2.07,0,0,0-1.62-.62,2.49,2.49,0,0,0-1.88.72,3,3,0,0,0-.7,2.17v5.32h-3.12V76.33h3v1.26a4.13,4.13,0,0,1,1.54-1,5.46,5.46,0,0,1,2-.37A4.44,4.44,0,0,1,263.55,77.38Z"/><path class="cls-3" d="M278.82,76.33v9a5.8,5.8,0,0,1-1.54,4.41,6.37,6.37,0,0,1-4.5,1.43,11,11,0,0,1-3-.38,6.49,6.49,0,0,1-2.32-1.09l1.24-2.24a5.06,5.06,0,0,0,1.72.88,6.8,6.8,0,0,0,2.08.33,3.42,3.42,0,0,0,2.39-.72,2.94,2.94,0,0,0,.77-2.21v-.47a4.36,4.36,0,0,1-3.4,1.35,5.63,5.63,0,0,1-2.71-.66,4.91,4.91,0,0,1-1.95-1.83,5.48,5.48,0,0,1,0-5.43,4.91,4.91,0,0,1,1.95-1.83,5.63,5.63,0,0,1,2.71-.66,4.3,4.3,0,0,1,3.56,1.54V76.33Zm-3.87,7a2.72,2.72,0,0,0,0-3.83,3.2,3.2,0,0,0-4.07,0,2.69,2.69,0,0,0,0,3.83,3.24,3.24,0,0,0,4.07,0Z"/><path class="cls-3" d="M308.76,73.09l-4.58,14H300.7l-3.08-9.47-3.18,9.47H291l-4.6-14h3.36l3.16,9.85,3.3-9.85h3L302.4,83l3.26-9.92Z"/><path class="cls-3" d="M311.61,86.54a5.19,5.19,0,0,1-2.11-2,5.78,5.78,0,0,1,0-5.73,5.28,5.28,0,0,1,2.11-2,6.88,6.88,0,0,1,6.09,0,5.39,5.39,0,0,1,2.1,2,5.78,5.78,0,0,1,0,5.73,5.29,5.29,0,0,1-2.1,2,6.88,6.88,0,0,1-6.09,0Zm5-2.66a3.44,3.44,0,0,0,0-4.34,2.81,2.81,0,0,0-3.95,0,3.41,3.41,0,0,0,0,4.34,2.79,2.79,0,0,0,3.95,0Z"/><path class="cls-3" d="M327.13,76.58a5.52,5.52,0,0,1,2.19-.41v2.88l-.7,0a2.84,2.84,0,0,0-2.1.75,3,3,0,0,0-.76,2.25v5.08h-3.12V76.33h3v1.42A3.35,3.35,0,0,1,327.13,76.58Z"/><path class="cls-3" d="M335.8,82.88l-1.5,1.47v2.74h-3.12V72.25h3.12v8.41l4.56-4.33h3.72L338.1,80.9,343,87.09H339.2Z"/><path class="cls-3" d="M354.4,82.59h-8.14a2.47,2.47,0,0,0,1,1.58,3.39,3.39,0,0,0,2,.58,4.08,4.08,0,0,0,1.49-.25,3.46,3.46,0,0,0,1.21-.79l1.66,1.8a5.6,5.6,0,0,1-4.44,1.74,6.91,6.91,0,0,1-3.22-.71,5.08,5.08,0,0,1-2.16-2,5.78,5.78,0,0,1,0-5.71,5.26,5.26,0,0,1,2.06-2,6.38,6.38,0,0,1,5.79,0,5.09,5.09,0,0,1,2,2,5.89,5.89,0,0,1,.73,3S354.44,82.08,354.4,82.59Zm-7.3-3.46a2.56,2.56,0,0,0-.88,1.64h5.3a2.55,2.55,0,0,0-.88-1.62,2.62,2.62,0,0,0-1.76-.61A2.67,2.67,0,0,0,347.1,79.13Z"/><path class="cls-3" d="M361,76.58a5.52,5.52,0,0,1,2.19-.41v2.88l-.7,0a2.84,2.84,0,0,0-2.1.75,3,3,0,0,0-.76,2.25v5.08h-3.12V76.33h3v1.42A3.35,3.35,0,0,1,361,76.58Z"/><path class="cls-3" d="M366.12,86.92a6.3,6.3,0,0,1-2-.83l1-2.24a6.34,6.34,0,0,0,1.74.75,7,7,0,0,0,2,.3c1.32,0,2-.33,2-1a.71.71,0,0,0-.54-.67,8.23,8.23,0,0,0-1.66-.33,17.56,17.56,0,0,1-2.18-.46,3.5,3.5,0,0,1-1.49-.92,2.64,2.64,0,0,1-.63-1.88,2.92,2.92,0,0,1,.59-1.82,3.75,3.75,0,0,1,1.72-1.22,7.17,7.17,0,0,1,2.67-.45,11,11,0,0,1,2.27.25,6.35,6.35,0,0,1,1.87.7l-1,2.21a6.24,6.24,0,0,0-3.1-.79,3.24,3.24,0,0,0-1.5.27.82.82,0,0,0-.5.73.7.7,0,0,0,.54.69,8.79,8.79,0,0,0,1.72.39,18.67,18.67,0,0,1,2.16.46,3.24,3.24,0,0,1,1.46.92,2.58,2.58,0,0,1,.62,1.83,2.88,2.88,0,0,1-.6,1.79,4,4,0,0,1-1.75,1.21,8,8,0,0,1-2.73.42A10,10,0,0,1,366.12,86.92Z"/><path class="cls-3" d="M378.32,72.62a1.88,1.88,0,0,1,.54,1.39,3.58,3.58,0,0,1-.1.8,11.31,11.31,0,0,1-.42,1.2l-1.16,2.89h-2l.86-3.17a1.62,1.62,0,0,1-.78-.65A1.94,1.94,0,0,1,375,74a1.85,1.85,0,0,1,.55-1.39,1.93,1.93,0,0,1,1.39-.53A1.9,1.9,0,0,1,378.32,72.62Z"/><path class="cls-3" d="M395.78,87.09l-2.7-3.89h-3v3.89h-3.24v-14h6.06a7.85,7.85,0,0,1,3.23.62A4.63,4.63,0,0,1,399,78.17a4.8,4.8,0,0,1-.75,2.7,4.69,4.69,0,0,1-2.13,1.72l3.14,4.5ZM395,76.37a3.42,3.42,0,0,0-2.22-.64H390.1v4.89h2.64A3.36,3.36,0,0,0,395,80a2.51,2.51,0,0,0,0-3.6Z"/><path class="cls-3" d="M401.5,74.33a1.61,1.61,0,0,1-.54-1.24,1.64,1.64,0,0,1,.54-1.24,2,2,0,0,1,1.4-.5,2,2,0,0,1,1.4.48,1.56,1.56,0,0,1,.54,1.21,1.73,1.73,0,0,1-.54,1.29,2.21,2.21,0,0,1-2.8,0Zm-.16,2h3.12V87.09h-3.12Z"/><path class="cls-3" d="M418.46,76.33v9a5.8,5.8,0,0,1-1.54,4.41,6.37,6.37,0,0,1-4.5,1.43,11,11,0,0,1-3-.38,6.49,6.49,0,0,1-2.32-1.09l1.24-2.24a5.06,5.06,0,0,0,1.72.88,6.8,6.8,0,0,0,2.08.33,3.42,3.42,0,0,0,2.39-.72,2.94,2.94,0,0,0,.77-2.21v-.47a4.36,4.36,0,0,1-3.4,1.35,5.63,5.63,0,0,1-2.71-.66,4.91,4.91,0,0,1-2-1.83,5.48,5.48,0,0,1,0-5.43,4.91,4.91,0,0,1,2-1.83,5.63,5.63,0,0,1,2.71-.66,4.3,4.3,0,0,1,3.56,1.54V76.33Zm-3.87,7a2.72,2.72,0,0,0,0-3.83,3.2,3.2,0,0,0-4.07,0,2.69,2.69,0,0,0,0,3.83,3.24,3.24,0,0,0,4.07,0Z"/><path class="cls-3" d="M431.13,77.38a4.73,4.73,0,0,1,1.23,3.56v6.15h-3.12V81.42a2.84,2.84,0,0,0-.56-1.92,2.07,2.07,0,0,0-1.62-.62,2.49,2.49,0,0,0-1.88.72,3,3,0,0,0-.7,2.17v5.32h-3.12V72.25h3.12v5.21a4,4,0,0,1,1.5-1,5.6,5.6,0,0,1,1.92-.33A4.44,4.44,0,0,1,431.13,77.38Z"/><path class="cls-3" d="M442.12,86.58a3.34,3.34,0,0,1-1.13.5,5.45,5.45,0,0,1-1.41.17,4.16,4.16,0,0,1-3-1,3.73,3.73,0,0,1-1.05-2.87V79H433.9V76.58h1.66V74h3.12v2.62h2.68V79h-2.68v4.38a1.46,1.46,0,0,0,.35,1.06,1.31,1.31,0,0,0,1,.36,2.05,2.05,0,0,0,1.26-.39Z"/><path class="cls-3" d="M444.88,86.92a6.3,6.3,0,0,1-2-.83l1-2.24a6.34,6.34,0,0,0,1.74.75,7,7,0,0,0,2,.3c1.32,0,2-.33,2-1a.71.71,0,0,0-.54-.67,8.23,8.23,0,0,0-1.66-.33,17.56,17.56,0,0,1-2.18-.46,3.5,3.5,0,0,1-1.49-.92,2.64,2.64,0,0,1-.63-1.88,2.92,2.92,0,0,1,.59-1.82,3.75,3.75,0,0,1,1.72-1.22,7.17,7.17,0,0,1,2.67-.45,11,11,0,0,1,2.27.25,6.35,6.35,0,0,1,1.87.7l-1,2.21a6.24,6.24,0,0,0-3.1-.79,3.24,3.24,0,0,0-1.5.27.82.82,0,0,0-.5.73.7.7,0,0,0,.54.69,8.79,8.79,0,0,0,1.72.39,18.67,18.67,0,0,1,2.16.46A3.24,3.24,0,0,1,452,82a2.58,2.58,0,0,1,.62,1.83,2.88,2.88,0,0,1-.6,1.79,4,4,0,0,1-1.75,1.21,8,8,0,0,1-2.73.42A10,10,0,0,1,444.88,86.92Z"/></svg>