<svg id="Layer_1" data-name="Layer 1" xmlns="http://www.w3.org/2000/svg" viewBox="0 0 474.47 113.33"><defs><style>.cls-1{fill:#fff;}.cls-2{fill:#2d9647;}.cls-3{fill:#19486a;}</style></defs><rect class="cls-1" width="474.47" height="113.33"/><polygon class="cls-2" points="0 113.33 0 0 113.33 0 0 113.33"/><path class="cls-1" d="M41.25,32.27A6.77,6.77,0,0,1,43,37a7.54,7.54,0,0,1-1.16,4.05,7.89,7.89,0,0,1-3.51,3,13.46,13.46,0,0,1-5.77,1.12,19.71,19.71,0,0,1-5.24-.71,13.4,13.4,0,0,1-4.38-2L25.23,38a11.09,11.09,0,0,0,3.33,1.68,13,13,0,0,0,3.87.59,6.09,6.09,0,0,0,3.46-.85A2.71,2.71,0,0,0,37.15,37c0-2.06-1.57-3.1-4.72-3.1H29.77V30.09L35,24.22H24.22V19.54H41.86v3.78L36.18,29.8A8.5,8.5,0,0,1,41.25,32.27Z"/><path class="cls-3" d="M124.75,47.05h-6.82l-1.3,3.15h-3.49l6.55-14.7h3.36l6.57,14.7h-3.57Zm-1.07-2.59-2.33-5.63L119,44.46Z"/><path class="cls-3" d="M142.48,38.9v9.41a6,6,0,0,1-1.62,4.62,6.72,6.72,0,0,1-4.73,1.51A12,12,0,0,1,133,54a6.75,6.75,0,0,1-2.44-1.16l1.3-2.35a5.61,5.61,0,0,0,1.81.94,7.18,7.18,0,0,0,2.18.34,3.54,3.54,0,0,0,2.51-.76,3.07,3.07,0,0,0,.81-2.32v-.49a4.57,4.57,0,0,1-3.57,1.41,6,6,0,0,1-2.84-.68,5.2,5.2,0,0,1-2-1.92,5.76,5.76,0,0,1,0-5.72,5.2,5.2,0,0,1,2-1.92,6,6,0,0,1,2.84-.68,4.49,4.49,0,0,1,3.74,1.62V38.9Zm-4.07,7.29a2.56,2.56,0,0,0,.83-2,2.6,2.6,0,0,0-.83-2,3,3,0,0,0-2.13-.76,3,3,0,0,0-2.14.76,2.6,2.6,0,0,0-.84,2,2.57,2.57,0,0,0,.84,2,3,3,0,0,0,2.14.77A3,3,0,0,0,138.41,46.19Z"/><path class="cls-3" d="M150.24,39.15a5.86,5.86,0,0,1,2.3-.42v3l-.74,0a3,3,0,0,0-2.21.79,3.17,3.17,0,0,0-.79,2.36V50.2h-3.28V38.9h3.13v1.49A3.59,3.59,0,0,1,150.24,39.15Z"/><path class="cls-3" d="M154.66,36.8a1.78,1.78,0,0,1,0-2.61,2,2,0,0,1,1.47-.52,2.16,2.16,0,0,1,1.47.5,1.65,1.65,0,0,1,.56,1.26,1.82,1.82,0,0,1-.56,1.36,2.09,2.09,0,0,1-1.47.53A2,2,0,0,1,154.66,36.8Zm-.17,2.1h3.27V50.2h-3.27Z"/><path class="cls-3" d="M163,49.62a5.71,5.71,0,0,1,0-10.15,7,7,0,0,1,3.25-.74,6.37,6.37,0,0,1,3.12.74,4.44,4.44,0,0,1,1.94,2.14L168.79,43a2.79,2.79,0,0,0-2.54-1.55,2.86,2.86,0,0,0-2.12.84,3.53,3.53,0,0,0,0,4.57,2.83,2.83,0,0,0,2.12.85,2.75,2.75,0,0,0,2.54-1.56l2.54,1.39a4.58,4.58,0,0,1-1.94,2.1,6.26,6.26,0,0,1-3.12.75A6.92,6.92,0,0,1,163,49.62Z"/><path class="cls-3" d="M184.6,38.9V50.2h-3.11V48.85A4.2,4.2,0,0,1,179.94,50a4.85,4.85,0,0,1-1.95.39,4.79,4.79,0,0,1-3.53-1.28,5.09,5.09,0,0,1-1.3-3.8V38.9h3.27v5.9c0,1.82.77,2.73,2.29,2.73a2.45,2.45,0,0,0,1.89-.77,3.22,3.22,0,0,0,.72-2.28V38.9Z"/><path class="cls-3" d="M187.65,34.61h3.27V50.2h-3.27Z"/><path class="cls-3" d="M202.07,49.65a3.12,3.12,0,0,1-1.18.53,6,6,0,0,1-1.48.18,4.37,4.37,0,0,1-3.12-1,3.9,3.9,0,0,1-1.1-3V41.67h-1.75V39.15h1.75V36.4h3.27v2.75h2.82v2.52h-2.82v4.6a1.53,1.53,0,0,0,.37,1.1,1.35,1.35,0,0,0,1,.39,2.08,2.08,0,0,0,1.32-.42Z"/><path class="cls-3" d="M215.3,38.9V50.2h-3.1V48.85A4.32,4.32,0,0,1,210.64,50a4.85,4.85,0,0,1-1.95.39,4.79,4.79,0,0,1-3.53-1.28,5.09,5.09,0,0,1-1.3-3.8V38.9h3.27v5.9c0,1.82.77,2.73,2.29,2.73a2.45,2.45,0,0,0,1.89-.77,3.22,3.22,0,0,0,.72-2.28V38.9Z"/><path class="cls-3" d="M223.06,39.15a5.9,5.9,0,0,1,2.3-.42v3l-.73,0a3,3,0,0,0-2.21.79,3.18,3.18,0,0,0-.8,2.36V50.2h-3.27V38.9h3.13v1.49A3.62,3.62,0,0,1,223.06,39.15Z"/><path class="cls-3" d="M238.21,45.47h-8.54a2.63,2.63,0,0,0,1.09,1.66,3.58,3.58,0,0,0,2.14.61,4.49,4.49,0,0,0,1.57-.26,4.15,4.15,0,0,0,1.27-.83l1.74,1.89a5.88,5.88,0,0,1-4.66,1.82,7.31,7.31,0,0,1-3.38-.74,5.49,5.49,0,0,1-2.27-2.07,6.06,6.06,0,0,1,0-6,5.54,5.54,0,0,1,2.16-2.08,6.74,6.74,0,0,1,6.08,0,5.2,5.2,0,0,1,2.11,2.05,6.12,6.12,0,0,1,.77,3.1S238.26,44.92,238.21,45.47Zm-7.66-3.63a2.63,2.63,0,0,0-.92,1.72h5.56a2.73,2.73,0,0,0-.92-1.71,2.76,2.76,0,0,0-1.85-.64A2.82,2.82,0,0,0,230.55,41.84Z"/><path class="cls-3" d="M255,40a4.77,4.77,0,0,1,1.41,3.77V50.2h-3.06V48.79c-.62,1.05-1.77,1.57-3.45,1.57a5.27,5.27,0,0,1-2.26-.44,3.39,3.39,0,0,1-1.46-1.22,3.18,3.18,0,0,1-.5-1.76,3,3,0,0,1,1.19-2.48,6,6,0,0,1,3.66-.9h2.61a2.09,2.09,0,0,0-.66-1.65,2.87,2.87,0,0,0-1.95-.58,5.66,5.66,0,0,0-1.77.29,4.69,4.69,0,0,0-1.48.76l-1.18-2.29a7,7,0,0,1,2.21-1,9.92,9.92,0,0,1,2.66-.36A5.88,5.88,0,0,1,255,40Zm-2.79,7.79a2.18,2.18,0,0,0,.93-1.15V45.47h-2.25c-1.35,0-2,.44-2,1.32a1.18,1.18,0,0,0,.5,1,2.17,2.17,0,0,0,1.35.37A2.83,2.83,0,0,0,252.2,47.77Z"/><path class="cls-3" d="M269.62,40a5,5,0,0,1,1.29,3.74V50.2h-3.28v-6a3,3,0,0,0-.58-2,2.18,2.18,0,0,0-1.7-.67,2.62,2.62,0,0,0-2,.77,3.17,3.17,0,0,0-.73,2.28V50.2h-3.28V38.9h3.13v1.32a4.24,4.24,0,0,1,1.62-1.1,5.59,5.59,0,0,1,2.12-.39A4.64,4.64,0,0,1,269.62,40Z"/><path class="cls-3" d="M285.5,34.61V50.2h-3.12V48.89a4.33,4.33,0,0,1-3.53,1.47,5.81,5.81,0,0,1-2.89-.71,5.17,5.17,0,0,1-2-2,6.8,6.8,0,0,1,0-6.13,5.17,5.17,0,0,1,2-2,5.92,5.92,0,0,1,2.89-.71,4.29,4.29,0,0,1,3.38,1.36V34.61Zm-4,12.21a3.57,3.57,0,0,0,0-4.55,2.71,2.71,0,0,0-2.05-.85,2.74,2.74,0,0,0-2.08.85,3.57,3.57,0,0,0,0,4.55,2.75,2.75,0,0,0,2.08.86A2.72,2.72,0,0,0,281.47,46.82Z"/><path class="cls-3" d="M118.47,63.43v3.88h6.81V70h-6.81V75.4h-3.4V60.7h11.11v2.73Z"/><path class="cls-3" d="M130.14,74.82a5.61,5.61,0,0,1-2.22-2.07,6.11,6.11,0,0,1,0-6,5.61,5.61,0,0,1,2.22-2.07,7.27,7.27,0,0,1,6.39,0,5.59,5.59,0,0,1,2.21,2.07,6,6,0,0,1,0,6,5.59,5.59,0,0,1-2.21,2.07,7.27,7.27,0,0,1-6.39,0Zm5.27-2.8a3.6,3.6,0,0,0,0-4.55,2.72,2.72,0,0,0-2.07-.85,2.76,2.76,0,0,0-2.08.85,3.57,3.57,0,0,0,0,4.55,2.77,2.77,0,0,0,2.08.86A2.73,2.73,0,0,0,135.41,72Z"/><path class="cls-3" d="M143.89,74.82a5.59,5.59,0,0,1-2.21-2.07,6,6,0,0,1,0-6,5.59,5.59,0,0,1,2.21-2.07,6.9,6.9,0,0,1,3.21-.74,6.79,6.79,0,0,1,3.19.74,5.56,5.56,0,0,1,2.2,2.07,6,6,0,0,1,0,6,5.56,5.56,0,0,1-2.2,2.07,6.79,6.79,0,0,1-3.19.74A6.9,6.9,0,0,1,143.89,74.82Zm5.27-2.8a3.6,3.6,0,0,0,0-4.55,2.69,2.69,0,0,0-2.06-.85,2.74,2.74,0,0,0-2.08.85A3.57,3.57,0,0,0,145,72a2.75,2.75,0,0,0,2.08.86A2.69,2.69,0,0,0,149.16,72Z"/><path class="cls-3" d="M167,59.81V75.4h-3.13V74.09a4.3,4.3,0,0,1-3.52,1.47,5.81,5.81,0,0,1-2.89-.71,5.17,5.17,0,0,1-2-2,6.8,6.8,0,0,1,0-6.13,5.17,5.17,0,0,1,2-2,5.92,5.92,0,0,1,2.89-.71,4.31,4.31,0,0,1,3.38,1.36V59.81ZM163,72a3.57,3.57,0,0,0,0-4.55,2.72,2.72,0,0,0-2.06-.85,2.76,2.76,0,0,0-2.08.85,3.6,3.6,0,0,0,0,4.55,2.77,2.77,0,0,0,2.08.86A2.72,2.72,0,0,0,163,72Z"/><path class="cls-3" d="M177.64,75.17A7.73,7.73,0,0,1,175,74l1.15-2.57a7.64,7.64,0,0,0,2.25,1.12,8.37,8.37,0,0,0,2.6.42,4.21,4.21,0,0,0,2.14-.43,1.3,1.3,0,0,0,.7-1.15,1.1,1.1,0,0,0-.41-.87,3.27,3.27,0,0,0-1.05-.56c-.43-.14-1-.29-1.74-.46a22.33,22.33,0,0,1-2.75-.8,4.39,4.39,0,0,1-1.83-1.28,3.45,3.45,0,0,1-.77-2.35A4.1,4.1,0,0,1,176,62.7a4.71,4.71,0,0,1,2.09-1.65,8.63,8.63,0,0,1,3.41-.61,11.59,11.59,0,0,1,2.76.34,8.05,8.05,0,0,1,2.35,1l-1.05,2.58a8.23,8.23,0,0,0-4.08-1.16,3.81,3.81,0,0,0-2.11.47,1.4,1.4,0,0,0-.68,1.21,1.19,1.19,0,0,0,.79,1.13,12.7,12.7,0,0,0,2.4.72,23.64,23.64,0,0,1,2.75.8,4.6,4.6,0,0,1,1.84,1.26,3.38,3.38,0,0,1,.77,2.33,4,4,0,0,1-.71,2.3A4.71,4.71,0,0,1,184.43,75a8.68,8.68,0,0,1-3.42.61A11.83,11.83,0,0,1,177.64,75.17Z"/><path class="cls-3" d="M200.35,64.1l-5.1,12a5.93,5.93,0,0,1-1.92,2.75,4.75,4.75,0,0,1-2.76.8,5.57,5.57,0,0,1-1.75-.28,3.81,3.81,0,0,1-1.4-.75l1.19-2.33a2.72,2.72,0,0,0,.87.52,2.66,2.66,0,0,0,1,.19,1.76,1.76,0,0,0,1.09-.32,2.85,2.85,0,0,0,.76-1.09l0-.1L187.46,64.1h3.38L194,71.76l3.19-7.66Z"/><path class="cls-3" d="M202.58,75.22a7.08,7.08,0,0,1-2.14-.87L201.53,72a6.49,6.49,0,0,0,1.82.79,7.85,7.85,0,0,0,2.11.3q2.07,0,2.07-1a.73.73,0,0,0-.56-.7,8,8,0,0,0-1.75-.35,16,16,0,0,1-2.29-.49,3.53,3.53,0,0,1-1.56-1,2.75,2.75,0,0,1-.66-2,3.13,3.13,0,0,1,.62-1.9,4,4,0,0,1,1.8-1.29,7.7,7.7,0,0,1,2.81-.46,11.27,11.27,0,0,1,2.38.26,6.64,6.64,0,0,1,2,.73l-1.09,2.33a6.51,6.51,0,0,0-3.25-.84,3.42,3.42,0,0,0-1.58.29.87.87,0,0,0-.52.76.75.75,0,0,0,.56.73,9.54,9.54,0,0,0,1.81.4,22.41,22.41,0,0,1,2.27.49A3.44,3.44,0,0,1,210,70a2.69,2.69,0,0,1,.65,1.93,3,3,0,0,1-.63,1.87,4,4,0,0,1-1.83,1.27,8.28,8.28,0,0,1-2.87.45A11,11,0,0,1,202.58,75.22Z"/><path class="cls-3" d="M220,74.85a3.12,3.12,0,0,1-1.18.53,5.94,5.94,0,0,1-1.48.18,4.37,4.37,0,0,1-3.12-1,3.9,3.9,0,0,1-1.1-3V66.87h-1.75V64.35h1.75V61.6h3.27v2.75h2.82v2.52h-2.82v4.6a1.57,1.57,0,0,0,.37,1.1,1.35,1.35,0,0,0,1,.39,2.08,2.08,0,0,0,1.32-.42Z"/><path class="cls-3" d="M232.46,70.67h-8.55A2.71,2.71,0,0,0,225,72.33a3.61,3.61,0,0,0,2.15.61,4.4,4.4,0,0,0,1.56-.26,3.92,3.92,0,0,0,1.27-.83l1.75,1.89a5.9,5.9,0,0,1-4.67,1.82,7.47,7.47,0,0,1-3.38-.74,5.56,5.56,0,0,1-2.27-2.07,5.7,5.7,0,0,1-.79-3,5.84,5.84,0,0,1,.78-3,5.64,5.64,0,0,1,2.17-2.08,6.74,6.74,0,0,1,6.08,0,5.27,5.27,0,0,1,2.11,2,6.11,6.11,0,0,1,.76,3.1S232.5,70.12,232.46,70.67ZM224.79,67a2.68,2.68,0,0,0-.92,1.72h5.57a2.71,2.71,0,0,0-.93-1.71,2.74,2.74,0,0,0-1.85-.64A2.84,2.84,0,0,0,224.79,67Z"/><path class="cls-3" d="M252.55,65.18a5.1,5.1,0,0,1,1.25,3.75V75.4h-3.28v-6a3,3,0,0,0-.56-2,1.93,1.93,0,0,0-1.58-.67,2.34,2.34,0,0,0-1.83.75,3.22,3.22,0,0,0-.67,2.22V75.4H242.6v-6c0-1.78-.71-2.67-2.14-2.67a2.29,2.29,0,0,0-1.8.75,3.22,3.22,0,0,0-.68,2.22V75.4h-3.27V64.1h3.13v1.3a4,4,0,0,1,1.54-1.09,5.25,5.25,0,0,1,2-.38,5,5,0,0,1,2.16.47,3.9,3.9,0,0,1,1.55,1.38,4.59,4.59,0,0,1,1.76-1.37,5.54,5.54,0,0,1,2.32-.48A4.58,4.58,0,0,1,252.55,65.18Z"/><path class="cls-3" d="M257.79,75.22a7.26,7.26,0,0,1-2.15-.87l1.1-2.36a6.49,6.49,0,0,0,1.82.79,7.83,7.83,0,0,0,2.1.3c1.39,0,2.08-.34,2.08-1a.73.73,0,0,0-.57-.7,7.76,7.76,0,0,0-1.74-.35,15.65,15.65,0,0,1-2.29-.49,3.53,3.53,0,0,1-1.56-1,2.75,2.75,0,0,1-.66-2,3.07,3.07,0,0,1,.62-1.9,4,4,0,0,1,1.8-1.29,7.7,7.7,0,0,1,2.81-.46,11.34,11.34,0,0,1,2.38.26,6.75,6.75,0,0,1,2,.73l-1.09,2.33a6.51,6.51,0,0,0-3.25-.84,3.42,3.42,0,0,0-1.58.29.87.87,0,0,0-.52.76.74.74,0,0,0,.56.73,9.54,9.54,0,0,0,1.81.4,22.41,22.41,0,0,1,2.27.49,3.49,3.49,0,0,1,1.53,1,2.73,2.73,0,0,1,.65,1.93,3,3,0,0,1-.63,1.87,4,4,0,0,1-1.84,1.27,8.18,8.18,0,0,1-2.86.45A11,11,0,0,1,257.79,75.22Z"/><path class="cls-3" d="M274.06,60.7h6.68a9.37,9.37,0,0,1,4.23.91,6.93,6.93,0,0,1,2.86,2.57,7.9,7.9,0,0,1,0,7.73A6.86,6.86,0,0,1,285,74.48a9.37,9.37,0,0,1-4.23.92h-6.68Zm6.51,11.9a5,5,0,0,0,3.52-1.23,4.87,4.87,0,0,0,0-6.65,5,5,0,0,0-3.52-1.23h-3.11V72.6Z"/><path class="cls-3" d="M302.18,70.67h-8.55a2.71,2.71,0,0,0,1.09,1.66,3.61,3.61,0,0,0,2.15.61,4.44,4.44,0,0,0,1.56-.26,3.92,3.92,0,0,0,1.27-.83l1.74,1.89a5.86,5.86,0,0,1-4.66,1.82,7.47,7.47,0,0,1-3.38-.74,5.56,5.56,0,0,1-2.27-2.07,5.7,5.7,0,0,1-.79-3,5.84,5.84,0,0,1,.78-3,5.64,5.64,0,0,1,2.17-2.08,6.74,6.74,0,0,1,6.08,0,5.33,5.33,0,0,1,2.11,2,6.11,6.11,0,0,1,.76,3.1S302.22,70.12,302.18,70.67ZM294.51,67a2.68,2.68,0,0,0-.92,1.72h5.57a2.71,2.71,0,0,0-.93-1.71,2.74,2.74,0,0,0-1.85-.64A2.84,2.84,0,0,0,294.51,67Z"/><path class="cls-3" d="M315.43,64.1l-4.77,11.3h-3.38l-4.74-11.3h3.38l3.13,7.68,3.23-7.68Z"/><path class="cls-3" d="M327.46,70.67h-8.54A2.63,2.63,0,0,0,320,72.33a3.58,3.58,0,0,0,2.14.61,4.4,4.4,0,0,0,1.56-.26,4.07,4.07,0,0,0,1.28-.83l1.74,1.89a5.89,5.89,0,0,1-4.66,1.82,7.44,7.44,0,0,1-3.38-.74,5.49,5.49,0,0,1-2.27-2.07,5.61,5.61,0,0,1-.8-3,5.75,5.75,0,0,1,.79-3,5.54,5.54,0,0,1,2.16-2.08,6.74,6.74,0,0,1,6.08,0,5.27,5.27,0,0,1,2.11,2,6.12,6.12,0,0,1,.77,3.1S327.5,70.12,327.46,70.67ZM319.8,67a2.69,2.69,0,0,0-.93,1.72h5.57a2.7,2.7,0,0,0-.92-1.71,2.76,2.76,0,0,0-1.85-.64A2.8,2.8,0,0,0,319.8,67Z"/><path class="cls-3" d="M329.71,59.81H333V75.4h-3.28Z"/><path class="cls-3" d="M338.2,74.82A5.59,5.59,0,0,1,336,72.75a6,6,0,0,1,0-6,5.59,5.59,0,0,1,2.21-2.07,6.9,6.9,0,0,1,3.21-.74,6.79,6.79,0,0,1,3.19.74,5.56,5.56,0,0,1,2.2,2.07,6,6,0,0,1,0,6,5.56,5.56,0,0,1-2.2,2.07,6.79,6.79,0,0,1-3.19.74A6.9,6.9,0,0,1,338.2,74.82Zm5.27-2.8a3.6,3.6,0,0,0,0-4.55,2.69,2.69,0,0,0-2.06-.85,2.74,2.74,0,0,0-2.08.85,3.57,3.57,0,0,0,0,4.55,2.75,2.75,0,0,0,2.08.86A2.69,2.69,0,0,0,343.47,72Z"/><path class="cls-3" d="M359.33,64.65a5.31,5.31,0,0,1,2,2,6.76,6.76,0,0,1,0,6.11,5.17,5.17,0,0,1-2,2,5.8,5.8,0,0,1-2.87.72,4.36,4.36,0,0,1-3.4-1.36v5.27h-3.27V64.1h3.13v1.3a4.33,4.33,0,0,1,3.54-1.47A5.8,5.8,0,0,1,359.33,64.65ZM358,72a3.63,3.63,0,0,0,0-4.55,2.95,2.95,0,0,0-4.14,0,3.6,3.6,0,0,0,0,4.55A2.92,2.92,0,0,0,358,72Z"/><path class="cls-3" d="M382.12,65.18a5.09,5.09,0,0,1,1.24,3.75V75.4h-3.27v-6a3.06,3.06,0,0,0-.56-2,1.93,1.93,0,0,0-1.58-.67,2.34,2.34,0,0,0-1.83.75,3.22,3.22,0,0,0-.67,2.22V75.4h-3.28v-6c0-1.78-.71-2.67-2.14-2.67a2.31,2.31,0,0,0-1.81.75,3.27,3.27,0,0,0-.67,2.22V75.4h-3.27V64.1h3.12v1.3A4.08,4.08,0,0,1,369,64.31a5.24,5.24,0,0,1,2-.38,5,5,0,0,1,2.17.47,3.9,3.9,0,0,1,1.55,1.38,4.63,4.63,0,0,1,1.75-1.37,5.58,5.58,0,0,1,2.33-.48A4.58,4.58,0,0,1,382.12,65.18Z"/><path class="cls-3" d="M397.43,70.67h-8.54A2.67,2.67,0,0,0,390,72.33a3.58,3.58,0,0,0,2.14.61,4.49,4.49,0,0,0,1.57-.26,4.15,4.15,0,0,0,1.27-.83l1.74,1.89A5.88,5.88,0,0,1,392,75.56a7.44,7.44,0,0,1-3.38-.74,5.49,5.49,0,0,1-2.27-2.07,6.06,6.06,0,0,1,0-6,5.54,5.54,0,0,1,2.16-2.08,6.74,6.74,0,0,1,6.08,0,5.2,5.2,0,0,1,2.11,2,6.12,6.12,0,0,1,.77,3.1S397.48,70.12,397.43,70.67ZM389.77,67a2.68,2.68,0,0,0-.92,1.72h5.56a2.7,2.7,0,0,0-.92-1.71,2.76,2.76,0,0,0-1.85-.64A2.82,2.82,0,0,0,389.77,67Z"/><path class="cls-3" d="M409.94,65.19a5,5,0,0,1,1.29,3.74V75.4H408v-6a3,3,0,0,0-.59-2,2.14,2.14,0,0,0-1.7-.67,2.62,2.62,0,0,0-2,.77,3.17,3.17,0,0,0-.73,2.28V75.4h-3.28V64.1h3.13v1.32a4.24,4.24,0,0,1,1.62-1.1,5.59,5.59,0,0,1,2.12-.39A4.64,4.64,0,0,1,409.94,65.19Z"/><path class="cls-3" d="M421.48,74.85a3.17,3.17,0,0,1-1.19.53,5.94,5.94,0,0,1-1.48.18,4.4,4.4,0,0,1-3.12-1,3.94,3.94,0,0,1-1.1-3V66.87h-1.74V64.35h1.74V61.6h3.28v2.75h2.81v2.52h-2.81v4.6a1.53,1.53,0,0,0,.37,1.1,1.34,1.34,0,0,0,1,.39,2.13,2.13,0,0,0,1.33-.42Z"/></svg>