<svg id="Layer_1" data-name="Layer 1" xmlns="http://www.w3.org/2000/svg" viewBox="0 0 474.47 113.33"><defs><style>.cls-1{fill:#fff;}.cls-2{fill:#dc1b80;}.cls-3{fill:#19486a;}</style></defs><rect class="cls-1" width="474.47" height="113.33"/><polygon class="cls-2" points="0 113.33 0 0 113.33 0 0 113.33"/><path class="cls-1" d="M44.13,19.54v3.78L34.77,44.74H28.44l9-20.44H29.12v4.1H23.94V19.54Z"/><path class="cls-3" d="M127.84,45.89a3.71,3.71,0,0,1,.71,2.3,3.39,3.39,0,0,1-1.5,3,7.7,7.7,0,0,1-4.38,1h-7.6V37.5h7.18a7,7,0,0,1,4.13,1,3.26,3.26,0,0,1,1.44,2.79,3.51,3.51,0,0,1-.52,1.91,3.63,3.63,0,0,1-1.44,1.33A3.89,3.89,0,0,1,127.84,45.89Zm-9.39-5.83v3.47h3.38a3.43,3.43,0,0,0,1.91-.44,1.47,1.47,0,0,0,.65-1.31,1.44,1.44,0,0,0-.65-1.29,3.53,3.53,0,0,0-1.91-.43Zm6,9.14a1.53,1.53,0,0,0,.68-1.37c0-1.22-.9-1.82-2.71-1.82h-4v3.63h4A3.82,3.82,0,0,0,124.45,49.2Z"/><path class="cls-3" d="M133.08,51.62a5.41,5.41,0,0,1-2.22-2.07,6,6,0,0,1,0-6,5.55,5.55,0,0,1,2.22-2.07,7.18,7.18,0,0,1,6.39,0,5.59,5.59,0,0,1,2.21,2.07,6,6,0,0,1,0,6,5.45,5.45,0,0,1-2.21,2.07,7.18,7.18,0,0,1-6.39,0Zm5.27-2.79a3.61,3.61,0,0,0,0-4.56,2.76,2.76,0,0,0-2.07-.85,2.8,2.8,0,0,0-2.08.85,3.58,3.58,0,0,0,0,4.56,2.76,2.76,0,0,0,2.08.85A2.72,2.72,0,0,0,138.35,48.83Z"/><path class="cls-3" d="M146.83,51.62a5.45,5.45,0,0,1-2.21-2.07,6,6,0,0,1,0-6,5.59,5.59,0,0,1,2.21-2.07,6.79,6.79,0,0,1,3.21-.75,6.68,6.68,0,0,1,3.19.75,5.56,5.56,0,0,1,2.2,2.07,6,6,0,0,1,0,6,5.42,5.42,0,0,1-2.2,2.07,6.68,6.68,0,0,1-3.19.75A6.79,6.79,0,0,1,146.83,51.62Zm5.27-2.79a3.61,3.61,0,0,0,0-4.56,2.74,2.74,0,0,0-2.06-.85,2.78,2.78,0,0,0-2.08.85,3.58,3.58,0,0,0,0,4.56,2.74,2.74,0,0,0,2.08.85A2.7,2.7,0,0,0,152.1,48.83Z"/><path class="cls-3" d="M159.46,52a7.19,7.19,0,0,1-2.14-.87l1.09-2.35a7.36,7.36,0,0,0,1.83.79,7.83,7.83,0,0,0,2.1.3c1.39,0,2.08-.34,2.08-1a.73.73,0,0,0-.57-.69,8.4,8.4,0,0,0-1.74-.36,17.27,17.27,0,0,1-2.29-.48,3.55,3.55,0,0,1-1.56-1,2.74,2.74,0,0,1-.66-2,3,3,0,0,1,.62-1.9A4,4,0,0,1,160,41.2a7.67,7.67,0,0,1,2.8-.47,10.75,10.75,0,0,1,2.39.27,6.48,6.48,0,0,1,2,.72l-1.09,2.33a6.52,6.52,0,0,0-3.26-.84,3.23,3.23,0,0,0-1.57.3.85.85,0,0,0-.53.75.76.76,0,0,0,.57.74,10.4,10.4,0,0,0,1.81.4,20,20,0,0,1,2.27.49,3.46,3.46,0,0,1,1.53,1,2.71,2.71,0,0,1,.65,1.93,3,3,0,0,1-.63,1.87,4,4,0,0,1-1.84,1.27,8.18,8.18,0,0,1-2.86.45A11.11,11.11,0,0,1,159.46,52Z"/><path class="cls-3" d="M176.85,51.65a3.38,3.38,0,0,1-1.18.54,6,6,0,0,1-1.49.18,4.36,4.36,0,0,1-3.11-1,3.92,3.92,0,0,1-1.11-3V43.68h-1.74V41.15H170V38.4h3.28v2.75h2.81v2.53h-2.81v4.59a1.54,1.54,0,0,0,.37,1.11,1.35,1.35,0,0,0,1,.38,2.1,2.1,0,0,0,1.32-.41Z"/><path class="cls-3" d="M178.87,38.8a1.77,1.77,0,0,1,0-2.6,2.09,2.09,0,0,1,1.47-.53,2.12,2.12,0,0,1,1.47.51,1.59,1.59,0,0,1,.56,1.26,1.76,1.76,0,0,1-.56,1.35,2.05,2.05,0,0,1-1.47.54A2.09,2.09,0,0,1,178.87,38.8Zm-.17,2.1H182V52.2H178.7Z"/><path class="cls-3" d="M195.28,42a5,5,0,0,1,1.29,3.74V52.2H193.3v-6a3,3,0,0,0-.59-2,2.17,2.17,0,0,0-1.7-.66,2.62,2.62,0,0,0-2,.77,3.16,3.16,0,0,0-.73,2.27V52.2H185V40.9h3.13v1.33a4.26,4.26,0,0,1,1.62-1.11,5.59,5.59,0,0,1,2.12-.39A4.64,4.64,0,0,1,195.28,42Z"/><path class="cls-3" d="M211.31,40.9v9.41a6.07,6.07,0,0,1-1.61,4.62A6.69,6.69,0,0,1,205,56.44a11.68,11.68,0,0,1-3.11-.4,6.69,6.69,0,0,1-2.43-1.15l1.3-2.35a5.36,5.36,0,0,0,1.8.93,7.26,7.26,0,0,0,2.19.35,3.56,3.56,0,0,0,2.51-.77,3,3,0,0,0,.81-2.32v-.48a4.59,4.59,0,0,1-3.57,1.4,5.94,5.94,0,0,1-2.85-.68,5.19,5.19,0,0,1-2.05-1.92,5.81,5.81,0,0,1,0-5.71,5.19,5.19,0,0,1,2.05-1.92,6,6,0,0,1,2.85-.69,4.47,4.47,0,0,1,3.73,1.62V40.9Zm-4.06,7.3a2.84,2.84,0,0,0,0-4,3,3,0,0,0-2.13-.77,3.05,3.05,0,0,0-2.14.77,2.81,2.81,0,0,0,0,4,3.05,3.05,0,0,0,2.14.77A3,3,0,0,0,207.25,48.2Z"/><path class="cls-3" d="M242.75,37.5l-4.81,14.7h-3.65l-3.24-10-3.34,10h-3.63l-4.83-14.7h3.53l3.32,10.33,3.46-10.33h3.15l3.36,10.42,3.42-10.42Z"/><path class="cls-3" d="M245.74,51.62a5.45,5.45,0,0,1-2.21-2.07,5.73,5.73,0,0,1,2.21-8.07,7.2,7.2,0,0,1,6.4,0,5.62,5.62,0,0,1,2.2,2.07,6,6,0,0,1,0,6,5.49,5.49,0,0,1-2.2,2.07,7.2,7.2,0,0,1-6.4,0ZM251,48.83a3.61,3.61,0,0,0,0-4.56,2.95,2.95,0,0,0-4.14,0,3.58,3.58,0,0,0,0,4.56,2.95,2.95,0,0,0,4.14,0Z"/><path class="cls-3" d="M275.16,42a5.09,5.09,0,0,1,1.25,3.75V52.2h-3.27v-6a3.07,3.07,0,0,0-.56-2,2,2,0,0,0-1.59-.66,2.32,2.32,0,0,0-1.82.75,3.18,3.18,0,0,0-.67,2.21V52.2h-3.28v-6c0-1.78-.71-2.67-2.14-2.67a2.31,2.31,0,0,0-1.81.75,3.18,3.18,0,0,0-.67,2.21V52.2h-3.28V40.9h3.13v1.3A4.19,4.19,0,0,1,262,41.11a5.2,5.2,0,0,1,2-.38,4.76,4.76,0,0,1,2.16.48,3.76,3.76,0,0,1,1.56,1.37,4.53,4.53,0,0,1,1.75-1.36,5.57,5.57,0,0,1,2.32-.49A4.55,4.55,0,0,1,275.16,42Z"/><path class="cls-3" d="M290.48,47.48h-8.55a2.69,2.69,0,0,0,1.1,1.66,3.63,3.63,0,0,0,2.14.6,4.18,4.18,0,0,0,1.56-.26,3.62,3.62,0,0,0,1.27-.83l1.75,1.89a5.86,5.86,0,0,1-4.66,1.83,7.36,7.36,0,0,1-3.39-.75,5.34,5.34,0,0,1-2.26-2.07,5.61,5.61,0,0,1-.8-3,5.74,5.74,0,0,1,.79-3,5.47,5.47,0,0,1,2.16-2.08,6.65,6.65,0,0,1,6.08,0,5.27,5.27,0,0,1,2.11,2,6.11,6.11,0,0,1,.77,3.09S290.52,46.93,290.48,47.48Zm-7.66-3.64a2.71,2.71,0,0,0-.93,1.72h5.57a2.69,2.69,0,0,0-.93-1.71,3,3,0,0,0-3.71,0Z"/><path class="cls-3" d="M303,42a5,5,0,0,1,1.29,3.74V52.2H301v-6a3,3,0,0,0-.58-2,2.18,2.18,0,0,0-1.71-.66,2.61,2.61,0,0,0-2,.77,3.16,3.16,0,0,0-.73,2.27V52.2h-3.28V40.9h3.13v1.33a4.3,4.3,0,0,1,1.61-1.11,5.68,5.68,0,0,1,2.13-.39A4.64,4.64,0,0,1,303,42Z"/><path class="cls-3" d="M115,64a1.77,1.77,0,0,1,0-2.6,2.07,2.07,0,0,1,1.47-.53,2.12,2.12,0,0,1,1.47.51,1.59,1.59,0,0,1,.56,1.26A1.76,1.76,0,0,1,118,64,2.29,2.29,0,0,1,115,64Zm-.17,2.1h3.28V77.4h-3.28Z"/><path class="cls-3" d="M131.42,67.19a5,5,0,0,1,1.29,3.74V77.4h-3.28v-6a3,3,0,0,0-.58-2,2.17,2.17,0,0,0-1.7-.66,2.62,2.62,0,0,0-2,.77,3.16,3.16,0,0,0-.73,2.27V77.4h-3.28V66.1h3.13v1.33a4.26,4.26,0,0,1,1.62-1.11,5.59,5.59,0,0,1,2.12-.39A4.64,4.64,0,0,1,131.42,67.19Z"/><path class="cls-3" d="M143.3,77.18A7.73,7.73,0,0,1,140.69,76l1.15-2.56a7.88,7.88,0,0,0,2.25,1.11,8.48,8.48,0,0,0,2.61.42,4.13,4.13,0,0,0,2.14-.43,1.29,1.29,0,0,0,.69-1.14,1.1,1.1,0,0,0-.41-.87,3.07,3.07,0,0,0-1.05-.56c-.43-.14-1-.29-1.73-.46a23.64,23.64,0,0,1-2.75-.8,4.45,4.45,0,0,1-1.84-1.28A3.46,3.46,0,0,1,141,67a4.09,4.09,0,0,1,.7-2.32,4.57,4.57,0,0,1,2.09-1.65,8.45,8.45,0,0,1,3.41-.61,11.5,11.5,0,0,1,2.75.33,8.22,8.22,0,0,1,2.35,1l-1.05,2.58a8.17,8.17,0,0,0-4.07-1.15,3.8,3.8,0,0,0-2.11.46,1.41,1.41,0,0,0-.69,1.22,1.2,1.2,0,0,0,.79,1.12,12.24,12.24,0,0,0,2.41.73,24.48,24.48,0,0,1,2.75.79,4.74,4.74,0,0,1,1.84,1.26,3.42,3.42,0,0,1,.76,2.34,4,4,0,0,1-.7,2.29A4.63,4.63,0,0,1,150.1,77a8.56,8.56,0,0,1-3.43.61A11.88,11.88,0,0,1,143.3,77.18Z"/><path class="cls-3" d="M158.08,65.47h-4.71V62.7h12.81v2.77h-4.7V77.4h-3.4Z"/><path class="cls-3" d="M179.39,74.67V77.4H168V62.7h11.11v2.73h-7.73v3.19h6.83v2.65h-6.83v3.4Z"/><path class="cls-3" d="M195.48,77.4l0-8.82-4.33,7.27H189.6l-4.31-7.08V77.4H182.1V62.7h2.82l5.5,9.14,5.42-9.14h2.79l0,14.7Z"/></svg>