<svg id="Layer_1" data-name="Layer 1" xmlns="http://www.w3.org/2000/svg" viewBox="0 0 474.47 113.33"><defs><style>.cls-1{fill:#fff;}.cls-2{fill:#c02034;}.cls-3{fill:#19486a;}</style></defs><rect class="cls-1" width="474.47" height="113.33"/><polygon class="cls-2" points="0 113.33 0 0 113.33 0 0 113.33"/><path class="cls-1" d="M43.23,40v4.75h-19V41l9.72-9.18A10.45,10.45,0,0,0,36,29.25a4.63,4.63,0,0,0,.54-2.11,2.79,2.79,0,0,0-1-2.32,4.78,4.78,0,0,0-3-.81,6.85,6.85,0,0,0-3,.63,5.73,5.73,0,0,0-2.24,1.89L23,23.79a10,10,0,0,1,4.06-3.44A13.71,13.71,0,0,1,33,19.11,12.27,12.27,0,0,1,38,20a7.6,7.6,0,0,1,3.27,2.59,6.71,6.71,0,0,1,1.17,3.94,8.76,8.76,0,0,1-.86,3.86,14.89,14.89,0,0,1-3.35,4.1L32.4,40Z"/><path class="cls-3" d="M121.13,24.56h-4.7V21.79h12.81v2.77h-4.71V36.49h-3.4Z"/><path class="cls-3" d="M135.3,25.45a5.86,5.86,0,0,1,2.3-.42v3c-.37,0-.61,0-.74,0a3,3,0,0,0-2.2.79,3.14,3.14,0,0,0-.8,2.36v5.33h-3.28V25.19h3.13v1.5A3.59,3.59,0,0,1,135.3,25.45Z"/><path class="cls-3" d="M148.07,26.28A4.76,4.76,0,0,1,149.48,30v6.45h-3.06V35.08c-.62,1.06-1.77,1.58-3.45,1.58a5.42,5.42,0,0,1-2.26-.44A3.31,3.31,0,0,1,139.26,35a3.13,3.13,0,0,1-.51-1.76,3,3,0,0,1,1.19-2.48,6,6,0,0,1,3.66-.9h2.61a2.09,2.09,0,0,0-.65-1.65,2.87,2.87,0,0,0-2-.58,5.65,5.65,0,0,0-1.77.28,4.7,4.7,0,0,0-1.48.77l-1.18-2.29a7.32,7.32,0,0,1,2.22-1A10.2,10.2,0,0,1,144,25,5.83,5.83,0,0,1,148.07,26.28Zm-2.79,7.79a2.14,2.14,0,0,0,.93-1.15V31.77H144c-1.35,0-2,.44-2,1.32a1.19,1.19,0,0,0,.5,1,2.25,2.25,0,0,0,1.35.37A2.83,2.83,0,0,0,145.28,34.07Z"/><path class="cls-3" d="M152.61,23.09a1.77,1.77,0,0,1,0-2.6,2.09,2.09,0,0,1,1.47-.53,2.12,2.12,0,0,1,1.47.51,1.62,1.62,0,0,1,.57,1.26,1.75,1.75,0,0,1-.57,1.35,2.05,2.05,0,0,1-1.47.54A2.09,2.09,0,0,1,152.61,23.09Zm-.17,2.1h3.28v11.3h-3.28Z"/><path class="cls-3" d="M169,26.29A5,5,0,0,1,170.31,30v6.47H167v-6a3,3,0,0,0-.59-2,2.16,2.16,0,0,0-1.7-.66,2.6,2.6,0,0,0-2,.77,3.17,3.17,0,0,0-.74,2.28v5.58h-3.28V25.19h3.13v1.33a4.28,4.28,0,0,1,1.62-1.1,5.59,5.59,0,0,1,2.12-.39A4.64,4.64,0,0,1,169,26.29Z"/><path class="cls-3" d="M173.44,23.09a1.79,1.79,0,0,1,0-2.6,2.34,2.34,0,0,1,2.94,0,1.62,1.62,0,0,1,.57,1.26,1.75,1.75,0,0,1-.57,1.35,2,2,0,0,1-1.47.54A2.09,2.09,0,0,1,173.44,23.09Zm-.16,2.1h3.27v11.3h-3.27Z"/><path class="cls-3" d="M189.85,26.29a5,5,0,0,1,1.3,3.73v6.47h-3.28v-6a3,3,0,0,0-.59-2,2.16,2.16,0,0,0-1.7-.66,2.6,2.6,0,0,0-2,.77,3.17,3.17,0,0,0-.74,2.28v5.58H179.6V25.19h3.12v1.33a4.28,4.28,0,0,1,1.62-1.1,5.63,5.63,0,0,1,2.12-.39A4.64,4.64,0,0,1,189.85,26.29Z"/><path class="cls-3" d="M205.89,25.19V34.6a6,6,0,0,1-1.62,4.62,6.66,6.66,0,0,1-4.72,1.51,11.68,11.68,0,0,1-3.11-.4A6.83,6.83,0,0,1,194,39.18l1.3-2.35a5.41,5.41,0,0,0,1.81.93,7.25,7.25,0,0,0,2.18.35,3.54,3.54,0,0,0,2.51-.77,3,3,0,0,0,.81-2.32v-.48A4.57,4.57,0,0,1,199,36a5.94,5.94,0,0,1-2.84-.69,5.12,5.12,0,0,1-2-1.92,5.74,5.74,0,0,1,0-5.71,5.12,5.12,0,0,1,2-1.92A5.93,5.93,0,0,1,199,25a4.5,4.5,0,0,1,3.74,1.61V25.19Zm-4.06,7.3a2.86,2.86,0,0,0,0-4,3.36,3.36,0,0,0-4.28,0,2.81,2.81,0,0,0,0,4,3.36,3.36,0,0,0,4.28,0Z"/><path class="cls-3" d="M211.64,33.14a2,2,0,0,1,.57,1.46,3.46,3.46,0,0,1-.11.84,9.13,9.13,0,0,1-.46,1.26l-1.19,3h-2.08l.92-3.34a1.7,1.7,0,0,1-.83-.69,2,2,0,0,1-.3-1.1,2,2,0,0,1,.57-1.46,2,2,0,0,1,1.46-.55A2,2,0,0,1,211.64,33.14Z"/><path class="cls-3" d="M119.55,61.47a7.7,7.7,0,0,1-2.62-1.23l1.16-2.56a8,8,0,0,0,2.24,1.11,8.48,8.48,0,0,0,2.61.42,4.13,4.13,0,0,0,2.14-.43,1.28,1.28,0,0,0,.69-1.14,1.07,1.07,0,0,0-.41-.87,3.07,3.07,0,0,0-1-.56c-.42-.14-1-.29-1.73-.46a23.64,23.64,0,0,1-2.75-.8A4.42,4.42,0,0,1,118,53.67a3.46,3.46,0,0,1-.76-2.35,4.08,4.08,0,0,1,.69-2.32A4.64,4.64,0,0,1,120,47.35a8.45,8.45,0,0,1,3.41-.61,11,11,0,0,1,2.75.34,7.93,7.93,0,0,1,2.35,1l-1.05,2.58a8.25,8.25,0,0,0-4.07-1.15,3.8,3.8,0,0,0-2.11.46,1.41,1.41,0,0,0-.68,1.22,1.18,1.18,0,0,0,.79,1.12,11.88,11.88,0,0,0,2.4.73,21.82,21.82,0,0,1,2.75.8,4.47,4.47,0,0,1,1.84,1.26,3.37,3.37,0,0,1,.76,2.33,4,4,0,0,1-.7,2.3,4.69,4.69,0,0,1-2.11,1.64,8.54,8.54,0,0,1-3.42.61A11.83,11.83,0,0,1,119.55,61.47Z"/><path class="cls-3" d="M136.11,57.26l-1.58,1.56v2.87h-3.28V46.11h3.28v8.82l4.79-4.54h3.9l-4.7,4.79,5.12,6.51h-4Z"/><path class="cls-3" d="M145.2,48.29a1.77,1.77,0,0,1,0-2.6,2.08,2.08,0,0,1,1.47-.52,2.12,2.12,0,0,1,1.47.5,1.6,1.6,0,0,1,.57,1.26,1.75,1.75,0,0,1-.57,1.35,2.05,2.05,0,0,1-1.47.54A2.09,2.09,0,0,1,145.2,48.29Zm-.17,2.1h3.28v11.3H145Z"/><path class="cls-3" d="M151.35,46.11h3.28V61.69h-3.28Z"/><path class="cls-3" d="M157.67,46.11H161V61.69h-3.28Z"/><path class="cls-3" d="M165,61.51a7.19,7.19,0,0,1-2.14-.87L164,58.29a7,7,0,0,0,1.83.79,7.72,7.72,0,0,0,2.1.3c1.39,0,2.08-.34,2.08-1a.73.73,0,0,0-.57-.69,8.55,8.55,0,0,0-1.74-.36,16.93,16.93,0,0,1-2.29-.48,3.55,3.55,0,0,1-1.57-1,2.74,2.74,0,0,1-.66-2,3.11,3.11,0,0,1,.62-1.9,4.08,4.08,0,0,1,1.81-1.29,7.64,7.64,0,0,1,2.8-.46,10.74,10.74,0,0,1,2.39.26,6.76,6.76,0,0,1,2,.72l-1.09,2.33a6.54,6.54,0,0,0-3.26-.84,3.23,3.23,0,0,0-1.57.3.86.86,0,0,0-.53.75.76.76,0,0,0,.57.74,10.4,10.4,0,0,0,1.81.4,19.26,19.26,0,0,1,2.26.49,3.52,3.52,0,0,1,1.54,1,2.71,2.71,0,0,1,.65,1.93,3,3,0,0,1-.63,1.87,4.09,4.09,0,0,1-1.84,1.27,8.24,8.24,0,0,1-2.87.45A11.09,11.09,0,0,1,165,61.51Z"/><path class="cls-3" d="M181.32,47H188a9.4,9.4,0,0,1,4.23.92,6.77,6.77,0,0,1,2.85,2.57,7.83,7.83,0,0,1,0,7.73,6.9,6.9,0,0,1-2.85,2.57,9.4,9.4,0,0,1-4.23.91h-6.68Zm6.51,11.91a4.91,4.91,0,0,0,3.51-1.23,4.86,4.86,0,0,0,0-6.66,4.9,4.9,0,0,0-3.51-1.22h-3.11V58.9Z"/><path class="cls-3" d="M209.44,57h-8.55A2.67,2.67,0,0,0,202,58.63a3.65,3.65,0,0,0,2.14.61,4.27,4.27,0,0,0,1.57-.27,3.71,3.71,0,0,0,1.27-.83L208.7,60A5.85,5.85,0,0,1,204,61.86a7.32,7.32,0,0,1-3.38-.75,5.41,5.41,0,0,1-2.27-2.06,6.06,6.06,0,0,1,0-6A5.54,5.54,0,0,1,200.54,51a6.35,6.35,0,0,1,3.08-.74,6.24,6.24,0,0,1,3,.71A5.2,5.2,0,0,1,208.73,53a6.11,6.11,0,0,1,.77,3.09C209.5,56.13,209.48,56.42,209.44,57Zm-7.67-3.64a2.7,2.7,0,0,0-.92,1.73h5.56a2.73,2.73,0,0,0-.92-1.72,2.81,2.81,0,0,0-1.85-.64A2.84,2.84,0,0,0,201.77,53.33Z"/><path class="cls-3" d="M222.69,50.39l-4.77,11.3h-3.38l-4.75-11.3h3.38l3.13,7.69,3.24-7.69Z"/><path class="cls-3" d="M234.72,57h-8.55a2.71,2.71,0,0,0,1.09,1.66,3.69,3.69,0,0,0,2.15.61A4.18,4.18,0,0,0,231,59a3.62,3.62,0,0,0,1.27-.83L234,60a5.87,5.87,0,0,1-4.67,1.83,7.35,7.35,0,0,1-3.38-.75,5.47,5.47,0,0,1-2.27-2.06,5.76,5.76,0,0,1-.79-3,5.83,5.83,0,0,1,.78-3A5.57,5.57,0,0,1,225.83,51a6.74,6.74,0,0,1,6.08,0A5.27,5.27,0,0,1,234,53a6.1,6.1,0,0,1,.76,3.09C234.78,56.13,234.76,56.42,234.72,57Zm-7.67-3.64a2.7,2.7,0,0,0-.92,1.73h5.57a2.74,2.74,0,0,0-.93-1.72,2.79,2.79,0,0,0-1.85-.64A2.84,2.84,0,0,0,227.05,53.33Z"/><path class="cls-3" d="M237,46.11h3.27V61.69H237Z"/><path class="cls-3" d="M245.46,61.11a5.49,5.49,0,0,1-2.21-2.06,5.67,5.67,0,0,1-.8-3,5.57,5.57,0,0,1,3-5.07,7.29,7.29,0,0,1,6.4,0,5.62,5.62,0,0,1,2.2,2.07,5.7,5.7,0,0,1,.8,3,5.76,5.76,0,0,1-.8,3,5.53,5.53,0,0,1-2.2,2.06,7.2,7.2,0,0,1-6.4,0Zm5.27-2.79a3.61,3.61,0,0,0,0-4.56,2.76,2.76,0,0,0-2.07-.85,2.8,2.8,0,0,0-2.08.85,3.61,3.61,0,0,0,0,4.56,2.76,2.76,0,0,0,2.08.85A2.72,2.72,0,0,0,250.73,58.32Z"/><path class="cls-3" d="M266.59,51a5.15,5.15,0,0,1,2,2,6.68,6.68,0,0,1,0,6.11,5.28,5.28,0,0,1-2,2,5.8,5.8,0,0,1-2.87.72,4.36,4.36,0,0,1-3.4-1.36v5.27H257V50.39h3.13V51.7a4.35,4.35,0,0,1,3.55-1.47A5.8,5.8,0,0,1,266.59,51Zm-1.37,7.37a3.61,3.61,0,0,0,0-4.56,2.93,2.93,0,0,0-4.13,0,3.61,3.61,0,0,0,0,4.56,2.93,2.93,0,0,0,4.13,0Z"/><path class="cls-3" d="M289.37,51.48a5,5,0,0,1,1.25,3.74v6.47h-3.27v-6a3.07,3.07,0,0,0-.56-2,2,2,0,0,0-1.59-.66,2.3,2.3,0,0,0-1.82.75A3.18,3.18,0,0,0,282.7,56v5.67h-3.27v-6c0-1.78-.72-2.67-2.14-2.67a2.31,2.31,0,0,0-1.81.75,3.18,3.18,0,0,0-.67,2.21v5.67h-3.28V50.39h3.13V51.7a4.22,4.22,0,0,1,1.55-1.1,5.16,5.16,0,0,1,2-.37,4.76,4.76,0,0,1,2.16.47,3.76,3.76,0,0,1,1.56,1.37,4.63,4.63,0,0,1,1.75-1.36,5.57,5.57,0,0,1,2.32-.48A4.51,4.51,0,0,1,289.37,51.48Z"/><path class="cls-3" d="M304.69,57h-8.55a2.69,2.69,0,0,0,1.1,1.66,3.63,3.63,0,0,0,2.14.61,4.18,4.18,0,0,0,1.56-.27,3.62,3.62,0,0,0,1.27-.83L304,60a5.87,5.87,0,0,1-4.67,1.83,7.35,7.35,0,0,1-3.38-.75,5.38,5.38,0,0,1-2.26-2.06,5.67,5.67,0,0,1-.8-3,5.74,5.74,0,0,1,.79-3A5.47,5.47,0,0,1,295.8,51a6.74,6.74,0,0,1,6.08,0A5.27,5.27,0,0,1,304,53a6.1,6.1,0,0,1,.76,3.09C304.75,56.13,304.73,56.42,304.69,57ZM297,53.33a2.67,2.67,0,0,0-.93,1.73h5.57a2.69,2.69,0,0,0-.93-1.72,3,3,0,0,0-3.71,0Z"/><path class="cls-3" d="M317.2,51.49a5,5,0,0,1,1.29,3.73v6.47h-3.28v-6a3,3,0,0,0-.58-2,2.18,2.18,0,0,0-1.71-.66,2.61,2.61,0,0,0-2,.77,3.17,3.17,0,0,0-.74,2.28v5.58h-3.27V50.39h3.13v1.33a4.3,4.3,0,0,1,1.61-1.11,5.89,5.89,0,0,1,2.13-.38A4.64,4.64,0,0,1,317.2,51.49Z"/><path class="cls-3" d="M328.74,61.15a3.61,3.61,0,0,1-1.19.53,5.94,5.94,0,0,1-1.48.18,4.4,4.4,0,0,1-3.12-1,3.94,3.94,0,0,1-1.1-3V53.17h-1.74V50.65h1.74V47.9h3.27v2.75h2.82v2.52h-2.82v4.6a1.57,1.57,0,0,0,.37,1.1,1.36,1.36,0,0,0,1,.39,2.08,2.08,0,0,0,1.32-.42Z"/><path class="cls-3" d="M333.5,58.34a2,2,0,0,1,.57,1.46,3,3,0,0,1-.11.84,9.13,9.13,0,0,1-.46,1.26l-1.19,3h-2.08l.92-3.34a1.7,1.7,0,0,1-.83-.69,2,2,0,0,1-.3-1.1,2,2,0,0,1,.57-1.46,2,2,0,0,1,1.46-.55A2,2,0,0,1,333.5,58.34Z"/><path class="cls-3" d="M350.83,51.48a4.77,4.77,0,0,1,1.4,3.77v6.44h-3.06v-1.4a3.68,3.68,0,0,1-3.45,1.57,5.37,5.37,0,0,1-2.25-.44A3.35,3.35,0,0,1,342,60.2a3.13,3.13,0,0,1-.51-1.76A3,3,0,0,1,342.69,56a6,6,0,0,1,3.66-.9H349a2.09,2.09,0,0,0-.65-1.65,2.87,2.87,0,0,0-2-.58,5.65,5.65,0,0,0-1.77.28,4.82,4.82,0,0,0-1.48.77l-1.18-2.29a7.32,7.32,0,0,1,2.22-1,10.27,10.27,0,0,1,2.66-.35A5.84,5.84,0,0,1,350.83,51.48ZM348,59.27a2.1,2.1,0,0,0,.93-1.15V57h-2.25q-2,0-2,1.32a1.18,1.18,0,0,0,.49,1,2.25,2.25,0,0,0,1.35.37A2.83,2.83,0,0,0,348,59.27Z"/><path class="cls-3" d="M365.45,51.49a5,5,0,0,1,1.3,3.73v6.47h-3.28v-6a3,3,0,0,0-.59-2,2.16,2.16,0,0,0-1.7-.66,2.6,2.6,0,0,0-2,.77,3.17,3.17,0,0,0-.74,2.28v5.58H355.2V50.39h3.12v1.33a4.42,4.42,0,0,1,1.62-1.11,5.79,5.79,0,0,1,2.12-.38A4.64,4.64,0,0,1,365.45,51.49Z"/><path class="cls-3" d="M381.34,46.11V61.69h-3.13v-1.3a4.32,4.32,0,0,1-3.53,1.47,5.91,5.91,0,0,1-2.88-.71,5.11,5.11,0,0,1-2-2,6.72,6.72,0,0,1,0-6.13,5.11,5.11,0,0,1,2-2,5.8,5.8,0,0,1,2.88-.71,4.28,4.28,0,0,1,3.38,1.36V46.11Zm-4,12.21a3.58,3.58,0,0,0,0-4.56,2.77,2.77,0,0,0-2.06-.85,2.8,2.8,0,0,0-2.08.85,3.58,3.58,0,0,0,0,4.56,2.76,2.76,0,0,0,2.08.85A2.73,2.73,0,0,0,377.31,58.32Z"/><path class="cls-3" d="M127.84,72.84a5.09,5.09,0,0,1,2.22,1.85,5.59,5.59,0,0,1,0,5.66,5,5,0,0,1-2.22,1.85,8.24,8.24,0,0,1-3.39.64h-3v4h-3.4V72.19h6.36A8.23,8.23,0,0,1,127.84,72.84Zm-1.25,6.57a2.33,2.33,0,0,0,.8-1.88,2.36,2.36,0,0,0-.8-1.91,3.58,3.58,0,0,0-2.33-.66h-2.77v5.11h2.77A3.58,3.58,0,0,0,126.59,79.41Z"/><path class="cls-3" d="M144.61,75.59v11.3H141.5V85.55A4.32,4.32,0,0,1,140,86.67a4.89,4.89,0,0,1-1.95.39,4.83,4.83,0,0,1-3.53-1.28,5.09,5.09,0,0,1-1.3-3.8V75.59h3.27V81.5c0,1.82.76,2.72,2.29,2.72a2.47,2.47,0,0,0,1.89-.76,3.21,3.21,0,0,0,.71-2.28V75.59Z"/><path class="cls-3" d="M157.2,76.15a5.17,5.17,0,0,1,2,2,6.76,6.76,0,0,1,0,6.11,5.31,5.31,0,0,1-2,2,5.8,5.8,0,0,1-2.87.72,4.36,4.36,0,0,1-3.55-1.47v1.3h-3.13V71.31h3.28v5.48a4.36,4.36,0,0,1,3.4-1.36A5.8,5.8,0,0,1,157.2,76.15Zm-1.37,7.37a3.15,3.15,0,0,0,.81-2.28,3.18,3.18,0,0,0-.81-2.28,2.72,2.72,0,0,0-2.06-.85,2.76,2.76,0,0,0-2.07.85,3.18,3.18,0,0,0-.81,2.28,3.15,3.15,0,0,0,.81,2.28,2.72,2.72,0,0,0,2.07.85A2.69,2.69,0,0,0,155.83,83.52Z"/><path class="cls-3" d="M162.14,71.31h3.28V86.89h-3.28Z"/><path class="cls-3" d="M168.63,73.49a1.79,1.79,0,0,1,0-2.6,2.37,2.37,0,0,1,2.94,0,1.61,1.61,0,0,1,.57,1.26,1.77,1.77,0,0,1-.57,1.35,2,2,0,0,1-1.47.54A2.09,2.09,0,0,1,168.63,73.49Zm-.16,2.1h3.27v11.3h-3.27Z"/><path class="cls-3" d="M177,86.31a5.45,5.45,0,0,1-2.24-2.06,5.68,5.68,0,0,1-.81-3,5.62,5.62,0,0,1,.81-3A5.54,5.54,0,0,1,177,76.17a6.92,6.92,0,0,1,3.25-.74,6.26,6.26,0,0,1,3.12.74,4.51,4.51,0,0,1,1.94,2.13l-2.54,1.37a2.78,2.78,0,0,0-2.54-1.56,2.86,2.86,0,0,0-2.12.84,3.54,3.54,0,0,0,0,4.58,2.86,2.86,0,0,0,2.12.84,2.76,2.76,0,0,0,2.54-1.55l2.54,1.38a4.53,4.53,0,0,1-1.94,2.1,6.16,6.16,0,0,1-3.12.76A6.92,6.92,0,0,1,177,86.31Z"/><path class="cls-3" d="M204.75,84.16v2.73H193.37V72.19h11.11v2.73h-7.73v3.19h6.83v2.65h-6.83v3.4Z"/><path class="cls-3" d="M218.66,71.31V86.89h-3.13v-1.3A4.33,4.33,0,0,1,212,87.06a5.92,5.92,0,0,1-2.89-.71,5.17,5.17,0,0,1-2-2,6.8,6.8,0,0,1,0-6.13,5.11,5.11,0,0,1,2-2,5.81,5.81,0,0,1,2.89-.71,4.29,4.29,0,0,1,3.38,1.36V71.31Zm-4,12.21a3.11,3.11,0,0,0,.82-2.28,3.14,3.14,0,0,0-.82-2.28,2.75,2.75,0,0,0-2.05-.85,2.78,2.78,0,0,0-2.08.85,3.14,3.14,0,0,0-.82,2.28,3.11,3.11,0,0,0,.82,2.28,2.74,2.74,0,0,0,2.08.85A2.71,2.71,0,0,0,214.62,83.52Z"/><path class="cls-3" d="M233.06,75.59v11.3H230V85.55a4.32,4.32,0,0,1-1.55,1.12,5.35,5.35,0,0,1-5.48-.89,5.09,5.09,0,0,1-1.3-3.8V75.59h3.27V81.5c0,1.82.77,2.72,2.29,2.72a2.47,2.47,0,0,0,1.89-.76,3.22,3.22,0,0,0,.72-2.28V75.59Z"/><path class="cls-3" d="M238.32,86.31a5.54,5.54,0,0,1-2.25-2.06,5.76,5.76,0,0,1-.8-3,5.7,5.7,0,0,1,.8-3,5.63,5.63,0,0,1,2.25-2.07,6.92,6.92,0,0,1,3.25-.74,6.22,6.22,0,0,1,3.11.74,4.48,4.48,0,0,1,1.95,2.13l-2.54,1.37a2.79,2.79,0,0,0-2.55-1.56,2.88,2.88,0,0,0-2.12.84,3.54,3.54,0,0,0,0,4.58,2.88,2.88,0,0,0,2.12.84,2.76,2.76,0,0,0,2.55-1.55l2.54,1.38a4.5,4.5,0,0,1-1.95,2.1,6.13,6.13,0,0,1-3.11.76A6.92,6.92,0,0,1,238.32,86.31Z"/><path class="cls-3" d="M257.11,76.68a4.8,4.8,0,0,1,1.4,3.77v6.44h-3.06v-1.4c-.62,1.05-1.77,1.57-3.45,1.57a5.34,5.34,0,0,1-2.25-.44,3.28,3.28,0,0,1-1.46-1.22,3.15,3.15,0,0,1-.51-1.76A3,3,0,0,1,249,81.16a6,6,0,0,1,3.66-.9h2.61a2.09,2.09,0,0,0-.65-1.65,2.87,2.87,0,0,0-2-.58,5.65,5.65,0,0,0-1.77.28,4.7,4.7,0,0,0-1.48.77l-1.18-2.29a7.32,7.32,0,0,1,2.22-1,9.79,9.79,0,0,1,2.65-.35A5.87,5.87,0,0,1,257.11,76.68Zm-2.8,7.79a2.14,2.14,0,0,0,.93-1.15V82.17H253c-1.34,0-2,.44-2,1.32a1.19,1.19,0,0,0,.5,1,2.25,2.25,0,0,0,1.35.37A2.83,2.83,0,0,0,254.31,84.47Z"/><path class="cls-3" d="M268.76,86.35a3.52,3.52,0,0,1-1.19.53,5.88,5.88,0,0,1-1.48.18A4.36,4.36,0,0,1,263,86a3.9,3.9,0,0,1-1.11-3V78.37h-1.74V75.85h1.74V73.09h3.28v2.76H268v2.52h-2.81V83a1.54,1.54,0,0,0,.37,1.11,1.35,1.35,0,0,0,1,.39,2.12,2.12,0,0,0,1.32-.42Z"/><path class="cls-3" d="M270.78,73.49a1.77,1.77,0,0,1,0-2.6,2,2,0,0,1,1.47-.52,2.12,2.12,0,0,1,1.47.5,1.63,1.63,0,0,1,.56,1.26,1.79,1.79,0,0,1-.56,1.35,2.29,2.29,0,0,1-2.94,0Zm-.17,2.1h3.27v11.3h-3.27Z"/><path class="cls-3" d="M279.1,86.31a5.49,5.49,0,0,1-2.21-2.06,5.67,5.67,0,0,1-.8-3,5.57,5.57,0,0,1,3-5.07,6.77,6.77,0,0,1,3.2-.74,6.68,6.68,0,0,1,3.2.74,5.62,5.62,0,0,1,2.2,2.07,5.7,5.7,0,0,1,.8,3,5.76,5.76,0,0,1-.8,3,5.53,5.53,0,0,1-2.2,2.06,6.69,6.69,0,0,1-3.2.75A6.77,6.77,0,0,1,279.1,86.31Zm5.27-2.79a3.15,3.15,0,0,0,.81-2.28,3.18,3.18,0,0,0-.81-2.28,2.95,2.95,0,0,0-4.14,0,3.14,3.14,0,0,0-.82,2.28,3.11,3.11,0,0,0,.82,2.28,2.95,2.95,0,0,0,4.14,0Z"/><path class="cls-3" d="M300.94,76.69a5,5,0,0,1,1.29,3.73v6.47H299v-6a3,3,0,0,0-.59-2,2.16,2.16,0,0,0-1.7-.66,2.6,2.6,0,0,0-2,.77,3.17,3.17,0,0,0-.74,2.28v5.58h-3.28V75.59h3.13v1.33a4.42,4.42,0,0,1,1.62-1.11,5.79,5.79,0,0,1,2.12-.38A4.64,4.64,0,0,1,300.94,76.69Z"/></svg>