<svg id="Layer_1" data-name="Layer 1" xmlns="http://www.w3.org/2000/svg" viewBox="0 0 474.47 113.33"><defs><style>.cls-1{fill:#fff;}.cls-2{fill:#e81c2c;}.cls-3{fill:#19486a;}</style></defs><rect class="cls-1" width="474.47" height="113.33"/><polygon class="cls-2" points="0 113.33 0 0 113.33 0 0 113.33"/><path class="cls-1" d="M44.51,33.94a6.26,6.26,0,0,1,1,3.5,6.51,6.51,0,0,1-1.33,4.08,8.43,8.43,0,0,1-3.75,2.7,15,15,0,0,1-5.58,1,14.89,14.89,0,0,1-5.56-1,8.36,8.36,0,0,1-3.71-2.7,6.61,6.61,0,0,1-1.31-4.08,6.26,6.26,0,0,1,1-3.5,7.17,7.17,0,0,1,2.83-2.44,6.17,6.17,0,0,1-2.16-2.18,5.88,5.88,0,0,1-.76-3,6.18,6.18,0,0,1,1.22-3.81A7.89,7.89,0,0,1,29.8,20a13.65,13.65,0,0,1,5-.88,13.9,13.9,0,0,1,5.1.88,7.89,7.89,0,0,1,3.44,2.51,6.18,6.18,0,0,1,1.22,3.81,5.88,5.88,0,0,1-.76,3,6.1,6.1,0,0,1-2.19,2.18A7.13,7.13,0,0,1,44.51,33.94Zm-6.19,6a3.18,3.18,0,0,0,1.28-2.64,3.13,3.13,0,0,0-1.28-2.63,5.6,5.6,0,0,0-3.48-1,5.45,5.45,0,0,0-3.42,1,3.14,3.14,0,0,0-1.26,2.63,3.19,3.19,0,0,0,1.26,2.66,5.45,5.45,0,0,0,3.42,1A5.54,5.54,0,0,0,38.32,39.9ZM32,24.24A2.81,2.81,0,0,0,31,26.56a2.72,2.72,0,0,0,1,2.27,4.46,4.46,0,0,0,2.84.83,4.63,4.63,0,0,0,2.88-.83,2.7,2.7,0,0,0,1.08-2.27,2.8,2.8,0,0,0-1.08-2.32,4.57,4.57,0,0,0-2.88-.84A4.42,4.42,0,0,0,32,24.24Z"/><path class="cls-3" d="M128.45,31.38a3.71,3.71,0,0,1,.71,2.3,3.39,3.39,0,0,1-1.5,3,7.7,7.7,0,0,1-4.38,1h-7.6V23h7.18A7,7,0,0,1,127,24a3.25,3.25,0,0,1,1.44,2.79,3.6,3.6,0,0,1-.52,1.91,3.63,3.63,0,0,1-1.44,1.33A3.89,3.89,0,0,1,128.45,31.38Zm-9.39-5.83V29h3.38a3.43,3.43,0,0,0,1.91-.44,1.47,1.47,0,0,0,.65-1.31,1.44,1.44,0,0,0-.65-1.29,3.53,3.53,0,0,0-1.91-.43Zm6,9.14a1.53,1.53,0,0,0,.68-1.37c0-1.22-.9-1.83-2.71-1.83h-4v3.64h4A3.82,3.82,0,0,0,125.06,34.69Z"/><path class="cls-3" d="M142.52,33H134a2.65,2.65,0,0,0,1.09,1.66,3.6,3.6,0,0,0,2.14.61,4.27,4.27,0,0,0,1.57-.26,3.71,3.71,0,0,0,1.27-.83L141.78,36a5.85,5.85,0,0,1-4.66,1.83,7.35,7.35,0,0,1-3.38-.75A5.37,5.37,0,0,1,131.47,35a5.7,5.7,0,0,1-.8-3,5.83,5.83,0,0,1,.79-3A5.61,5.61,0,0,1,133.62,27a6.35,6.35,0,0,1,3.08-.75,6.22,6.22,0,0,1,3,.72,5.18,5.18,0,0,1,2.11,2,6.14,6.14,0,0,1,.77,3.1S142.56,32.42,142.52,33Zm-7.67-3.63a2.7,2.7,0,0,0-.92,1.72h5.56a2.73,2.73,0,0,0-.92-1.71,2.79,2.79,0,0,0-1.85-.64A2.84,2.84,0,0,0,134.85,29.33Z"/><path class="cls-3" d="M152.05,37.14a3.35,3.35,0,0,1-1.19.54,5.88,5.88,0,0,1-1.48.18,4.36,4.36,0,0,1-3.11-1,3.93,3.93,0,0,1-1.11-3V29.16h-1.74V26.64h1.74V23.89h3.28v2.75h2.81v2.52h-2.81v4.6a1.54,1.54,0,0,0,.37,1.11,1.38,1.38,0,0,0,1,.38,2.12,2.12,0,0,0,1.32-.42Z"/><path class="cls-3" d="M160.93,37.14a3.3,3.3,0,0,1-1.18.54,6,6,0,0,1-1.48.18,4.37,4.37,0,0,1-3.12-1,3.92,3.92,0,0,1-1.1-3V29.16H152.3V26.64h1.75V23.89h3.27v2.75h2.82v2.52h-2.82v4.6a1.58,1.58,0,0,0,.37,1.11,1.38,1.38,0,0,0,1,.38,2.08,2.08,0,0,0,1.32-.42Z"/><path class="cls-3" d="M173.43,33h-8.55A2.69,2.69,0,0,0,166,34.62a3.61,3.61,0,0,0,2.15.61,4.22,4.22,0,0,0,1.56-.26,3.62,3.62,0,0,0,1.27-.83L172.69,36A5.83,5.83,0,0,1,168,37.86a7.35,7.35,0,0,1-3.38-.75A5.37,5.37,0,0,1,162.38,35a5.7,5.7,0,0,1-.8-3,5.83,5.83,0,0,1,.79-3A5.61,5.61,0,0,1,164.53,27a6.35,6.35,0,0,1,3.08-.75,6.22,6.22,0,0,1,3,.72,5.27,5.27,0,0,1,2.12,2,6.14,6.14,0,0,1,.76,3.1S173.47,32.42,173.43,33Zm-7.67-3.63a2.7,2.7,0,0,0-.92,1.72h5.56a2.68,2.68,0,0,0-.92-1.71,2.79,2.79,0,0,0-1.85-.64A2.84,2.84,0,0,0,165.76,29.33Z"/><path class="cls-3" d="M180.39,26.64a5.9,5.9,0,0,1,2.3-.42v3c-.36,0-.61,0-.74,0a3,3,0,0,0-2.2.78,3.22,3.22,0,0,0-.8,2.37v5.33h-3.27V26.39h3.12v1.49A3.78,3.78,0,0,1,180.39,26.64Z"/><path class="cls-3" d="M192.36,37.47a8,8,0,0,1-2.61-1.23l1.15-2.56a7.88,7.88,0,0,0,2.25,1.11,8.42,8.42,0,0,0,2.6.42,4.11,4.11,0,0,0,2.14-.43,1.3,1.3,0,0,0,.7-1.14,1.1,1.1,0,0,0-.41-.87,3.08,3.08,0,0,0-1.05-.56c-.43-.14-1-.3-1.73-.46a26.79,26.79,0,0,1-2.76-.8,4.48,4.48,0,0,1-1.83-1.28,3.46,3.46,0,0,1-.77-2.35,4.08,4.08,0,0,1,.69-2.32,4.63,4.63,0,0,1,2.09-1.65,8.47,8.47,0,0,1,3.42-.61,11.56,11.56,0,0,1,2.75.33,8.34,8.34,0,0,1,2.35,1l-1.05,2.58a8.21,8.21,0,0,0-4.08-1.15,3.82,3.82,0,0,0-2.11.46,1.42,1.42,0,0,0-.68,1.22,1.18,1.18,0,0,0,.79,1.12,11.88,11.88,0,0,0,2.4.73,23.87,23.87,0,0,1,2.75.79,4.6,4.6,0,0,1,1.84,1.26,3.39,3.39,0,0,1,.77,2.33,4,4,0,0,1-.71,2.3,4.58,4.58,0,0,1-2.11,1.65,8.5,8.5,0,0,1-3.42.61A12.24,12.24,0,0,1,192.36,37.47Z"/><path class="cls-3" d="M215.45,26.39v11.3h-3.11V36.35a4.32,4.32,0,0,1-1.55,1.12,4.9,4.9,0,0,1-2,.39,4.8,4.8,0,0,1-3.52-1.28,5.11,5.11,0,0,1-1.31-3.8V26.39h3.28v5.9c0,1.82.76,2.73,2.29,2.73a2.47,2.47,0,0,0,1.89-.76,3.21,3.21,0,0,0,.71-2.28V26.39Z"/><path class="cls-3" d="M228,27a5.28,5.28,0,0,1,2,2,6.78,6.78,0,0,1,0,6.12,5.28,5.28,0,0,1-2,2,5.7,5.7,0,0,1-2.87.73,4.37,4.37,0,0,1-3.4-1.37v5.27h-3.28V26.39h3.13v1.3a4.36,4.36,0,0,1,3.55-1.47A5.8,5.8,0,0,1,228,27Zm-1.37,7.37a3.61,3.61,0,0,0,0-4.56,2.93,2.93,0,0,0-4.13,0,3.61,3.61,0,0,0,0,4.56,2.93,2.93,0,0,0,4.13,0Z"/><path class="cls-3" d="M242.53,27a5.21,5.21,0,0,1,2,2,6.78,6.78,0,0,1,0,6.12,5.21,5.21,0,0,1-2,2,5.7,5.7,0,0,1-2.87.73,4.37,4.37,0,0,1-3.4-1.37v5.27H233V26.39h3.13v1.3a4.36,4.36,0,0,1,3.55-1.47A5.8,5.8,0,0,1,242.53,27Zm-1.37,7.37a3.61,3.61,0,0,0,0-4.56,2.93,2.93,0,0,0-4.13,0,3.61,3.61,0,0,0,0,4.56,2.93,2.93,0,0,0,4.13,0Z"/><path class="cls-3" d="M249.65,37.11A5.41,5.41,0,0,1,247.43,35a6,6,0,0,1,0-6A5.55,5.55,0,0,1,249.65,27,7.18,7.18,0,0,1,256,27,5.88,5.88,0,0,1,258.25,35,5.51,5.51,0,0,1,256,37.11a7.18,7.18,0,0,1-6.39,0Zm5.27-2.79a3.61,3.61,0,0,0,0-4.56,2.76,2.76,0,0,0-2.07-.85,2.8,2.8,0,0,0-2.08.85,3.58,3.58,0,0,0,0,4.56,2.76,2.76,0,0,0,2.08.85A2.72,2.72,0,0,0,254.92,34.32Z"/><path class="cls-3" d="M265.94,26.64a5.9,5.9,0,0,1,2.3-.42v3c-.36,0-.61,0-.73,0a3,3,0,0,0-2.21.78,3.22,3.22,0,0,0-.8,2.37v5.33h-3.27V26.39h3.13v1.49A3.69,3.69,0,0,1,265.94,26.64Z"/><path class="cls-3" d="M277.88,37.14a3.38,3.38,0,0,1-1.18.54,6,6,0,0,1-1.49.18,4.36,4.36,0,0,1-3.11-1,3.93,3.93,0,0,1-1.11-3V29.16h-1.74V26.64H271V23.89h3.28v2.75h2.81v2.52h-2.81v4.6a1.54,1.54,0,0,0,.37,1.11,1.38,1.38,0,0,0,1,.38,2.1,2.1,0,0,0,1.32-.42Z"/><path class="cls-3" d="M287.36,37.47a8.13,8.13,0,0,1-2.61-1.23l1.15-2.56a7.88,7.88,0,0,0,2.25,1.11,8.46,8.46,0,0,0,2.6.42,4.15,4.15,0,0,0,2.15-.43,1.3,1.3,0,0,0,.69-1.14,1.1,1.1,0,0,0-.41-.87,2.91,2.91,0,0,0-1.05-.56c-.43-.14-1-.3-1.73-.46a25.8,25.8,0,0,1-2.75-.8,4.45,4.45,0,0,1-1.84-1.28,3.46,3.46,0,0,1-.77-2.35,4,4,0,0,1,.7-2.32,4.55,4.55,0,0,1,2.08-1.65,8.5,8.5,0,0,1,3.42-.61,11.5,11.5,0,0,1,2.75.33,8.34,8.34,0,0,1,2.35,1l-1,2.58a8.2,8.2,0,0,0-4.07-1.15,3.77,3.77,0,0,0-2.11.46,1.41,1.41,0,0,0-.69,1.22,1.2,1.2,0,0,0,.79,1.12,12.24,12.24,0,0,0,2.41.73,24.48,24.48,0,0,1,2.75.79,4.63,4.63,0,0,1,1.83,1.26,3.34,3.34,0,0,1,.77,2.33,4,4,0,0,1-.7,2.3,4.69,4.69,0,0,1-2.11,1.65,8.56,8.56,0,0,1-3.43.61A12.24,12.24,0,0,1,287.36,37.47Z"/><path class="cls-3" d="M310.07,33h-8.54a2.61,2.61,0,0,0,1.09,1.66,3.58,3.58,0,0,0,2.14.61,4.27,4.27,0,0,0,1.57-.26,3.81,3.81,0,0,0,1.27-.83L309.34,36a5.85,5.85,0,0,1-4.66,1.83,7.32,7.32,0,0,1-3.38-.75A5.37,5.37,0,0,1,299,35a6,6,0,0,1,0-6A5.47,5.47,0,0,1,301.18,27a6.65,6.65,0,0,1,6.08,0,5.18,5.18,0,0,1,2.11,2,6.14,6.14,0,0,1,.77,3.1S310.12,32.42,310.07,33Zm-7.66-3.63a2.66,2.66,0,0,0-.92,1.72h5.56a2.73,2.73,0,0,0-.92-1.71,3,3,0,0,0-3.72,0Z"/><path class="cls-3" d="M317,26.64a5.86,5.86,0,0,1,2.3-.42v3c-.37,0-.61,0-.74,0a3,3,0,0,0-2.2.78,3.18,3.18,0,0,0-.8,2.37v5.33h-3.28V26.39h3.13v1.49A3.66,3.66,0,0,1,317,26.64Z"/><path class="cls-3" d="M332.9,26.39l-4.77,11.3h-3.38L320,26.39h3.38l3.13,7.69,3.23-7.69Z"/><path class="cls-3" d="M334.41,24.29a1.79,1.79,0,0,1,0-2.6,2.34,2.34,0,0,1,2.94,0,1.6,1.6,0,0,1,.57,1.26,1.78,1.78,0,0,1-.57,1.35,2,2,0,0,1-1.47.54A2.09,2.09,0,0,1,334.41,24.29Zm-.17,2.1h3.28v11.3h-3.28Z"/><path class="cls-3" d="M342.78,37.11A5.49,5.49,0,0,1,340.53,35a6,6,0,0,1,0-6A5.63,5.63,0,0,1,342.78,27a6.92,6.92,0,0,1,3.25-.75,6.26,6.26,0,0,1,3.12.75,4.51,4.51,0,0,1,1.94,2.13l-2.54,1.37A2.78,2.78,0,0,0,346,28.91a2.89,2.89,0,0,0-2.13.84A3.09,3.09,0,0,0,343,32a3.09,3.09,0,0,0,.84,2.29,2.89,2.89,0,0,0,2.13.84,2.76,2.76,0,0,0,2.54-1.55L351.09,35a4.53,4.53,0,0,1-1.94,2.1,6.16,6.16,0,0,1-3.12.76A6.92,6.92,0,0,1,342.78,37.11Z"/><path class="cls-3" d="M363.83,33h-8.54a2.61,2.61,0,0,0,1.09,1.66,3.58,3.58,0,0,0,2.14.61,4.27,4.27,0,0,0,1.57-.26,3.81,3.81,0,0,0,1.27-.83L363.1,36a5.86,5.86,0,0,1-4.66,1.83,7.32,7.32,0,0,1-3.38-.75A5.37,5.37,0,0,1,352.79,35a6,6,0,0,1,0-6A5.47,5.47,0,0,1,354.94,27a6.65,6.65,0,0,1,6.08,0,5.18,5.18,0,0,1,2.11,2,6.14,6.14,0,0,1,.77,3.1S363.88,32.42,363.83,33Zm-7.66-3.63a2.71,2.71,0,0,0-.93,1.72h5.57a2.73,2.73,0,0,0-.92-1.71,3,3,0,0,0-3.72,0Z"/><path class="cls-3" d="M367.13,37.51a7.19,7.19,0,0,1-2.14-.87l1.09-2.35a7,7,0,0,0,1.83.79,7.72,7.72,0,0,0,2.1.3c1.38,0,2.08-.34,2.08-1a.73.73,0,0,0-.57-.69,8.55,8.55,0,0,0-1.74-.36,16.93,16.93,0,0,1-2.29-.48,3.58,3.58,0,0,1-1.57-1,2.74,2.74,0,0,1-.66-2,3.09,3.09,0,0,1,.62-1.9,3.88,3.88,0,0,1,1.81-1.29,7.63,7.63,0,0,1,2.8-.47,10.66,10.66,0,0,1,2.38.27,6.45,6.45,0,0,1,2,.72l-1.09,2.33a6.54,6.54,0,0,0-3.26-.84,3.23,3.23,0,0,0-1.57.3.85.85,0,0,0-.53.75.76.76,0,0,0,.57.74,10.47,10.47,0,0,0,1.8.4,17.61,17.61,0,0,1,2.27.49,3.41,3.41,0,0,1,1.54.95,2.76,2.76,0,0,1,.65,1.94,3,3,0,0,1-.63,1.87,4.09,4.09,0,0,1-1.84,1.27,8.24,8.24,0,0,1-2.87.45A11,11,0,0,1,367.13,37.51Z"/><path class="cls-3" d="M119,51.84h2.9v2.52h-2.82v8.53h-3.27V54.36H114.1V51.84h1.75v-.5A4.14,4.14,0,0,1,117,48.27a4.41,4.41,0,0,1,3.23-1.13,5.75,5.75,0,0,1,1.39.16,3.17,3.17,0,0,1,1.1.45l-.86,2.37a2.27,2.27,0,0,0-1.32-.4c-1,0-1.49.55-1.49,1.64Z"/><path class="cls-3" d="M125.6,62.31a5.45,5.45,0,0,1-2.21-2.07,5.73,5.73,0,0,1,2.21-8.07,7.2,7.2,0,0,1,6.4,0,5.62,5.62,0,0,1,2.2,2.07,6,6,0,0,1,0,6,5.49,5.49,0,0,1-2.2,2.07,7.2,7.2,0,0,1-6.4,0Zm5.27-2.79a3.61,3.61,0,0,0,0-4.56,2.95,2.95,0,0,0-4.14,0,3.58,3.58,0,0,0,0,4.56,2.95,2.95,0,0,0,4.14,0Z"/><path class="cls-3" d="M141.9,51.84a5.86,5.86,0,0,1,2.3-.42v3l-.74,0a3,3,0,0,0-2.2.78,3.22,3.22,0,0,0-.8,2.37v5.33h-3.28V51.59h3.13v1.49A3.66,3.66,0,0,1,141.9,51.84Z"/><path class="cls-3" d="M161.77,62.89l-2.83-4.1h-3.13v4.1h-3.4V48.19h6.36a8.23,8.23,0,0,1,3.39.65,5,5,0,0,1,0,9.32l3.3,4.73Zm-.86-11.27a3.58,3.58,0,0,0-2.33-.66h-2.77v5.13h2.77a3.52,3.52,0,0,0,2.33-.68,2.64,2.64,0,0,0,0-3.79Z"/><path class="cls-3" d="M178.61,58.16h-8.54a2.65,2.65,0,0,0,1.09,1.66,3.58,3.58,0,0,0,2.14.61,4.27,4.27,0,0,0,1.57-.26,3.81,3.81,0,0,0,1.27-.83l1.74,1.89a5.85,5.85,0,0,1-4.66,1.83,7.32,7.32,0,0,1-3.38-.75,5.37,5.37,0,0,1-2.27-2.07,6,6,0,0,1,0-6,5.47,5.47,0,0,1,2.16-2.08,6.65,6.65,0,0,1,6.08,0,5.14,5.14,0,0,1,2.11,2,6.08,6.08,0,0,1,.77,3.09S178.66,57.62,178.61,58.16ZM171,54.53a2.7,2.7,0,0,0-.92,1.72h5.56a2.73,2.73,0,0,0-.92-1.71,3,3,0,0,0-3.72,0Z"/><path class="cls-3" d="M184.45,51.84h2.9v2.52h-2.81v8.53h-3.28V54.36h-1.74V51.84h1.74v-.5a4.11,4.11,0,0,1,1.15-3.07,4.39,4.39,0,0,1,3.22-1.13,5.83,5.83,0,0,1,1.4.16,3.25,3.25,0,0,1,1.1.45l-.86,2.37a2.3,2.3,0,0,0-1.33-.4c-1,0-1.49.55-1.49,1.64Z"/><path class="cls-3" d="M200.37,51.59v11.3h-3.11V61.55a4.32,4.32,0,0,1-1.55,1.12,5.35,5.35,0,0,1-5.48-.89,5.1,5.1,0,0,1-1.3-3.8V51.59h3.27v5.9c0,1.82.77,2.73,2.29,2.73a2.46,2.46,0,0,0,1.89-.76,3.22,3.22,0,0,0,.72-2.28V51.59Z"/><path class="cls-3" d="M215.07,51.59V61a6,6,0,0,1-1.62,4.62,6.64,6.64,0,0,1-4.72,1.51,11.68,11.68,0,0,1-3.11-.4,6.69,6.69,0,0,1-2.43-1.15l1.3-2.35a5.36,5.36,0,0,0,1.8.93,7.26,7.26,0,0,0,2.19.35,3.56,3.56,0,0,0,2.51-.77,3,3,0,0,0,.8-2.32v-.48a4.59,4.59,0,0,1-3.56,1.4,5.94,5.94,0,0,1-2.85-.68,5.19,5.19,0,0,1-2-1.92,5.81,5.81,0,0,1,0-5.71,5.19,5.19,0,0,1,2-1.92,6,6,0,0,1,2.85-.69A4.47,4.47,0,0,1,212,53V51.59ZM211,58.89a2.84,2.84,0,0,0,0-4,3,3,0,0,0-2.13-.77,3.08,3.08,0,0,0-2.15.77,2.81,2.81,0,0,0,0,4,3.08,3.08,0,0,0,2.15.77A3,3,0,0,0,211,58.89Z"/><path class="cls-3" d="M229.12,58.16h-8.55a2.69,2.69,0,0,0,1.09,1.66,3.61,3.61,0,0,0,2.15.61,4.18,4.18,0,0,0,1.56-.26,3.62,3.62,0,0,0,1.27-.83l1.75,1.89a5.87,5.87,0,0,1-4.67,1.83,7.35,7.35,0,0,1-3.38-.75,5.42,5.42,0,0,1-2.27-2.07,5.7,5.7,0,0,1-.79-3,5.8,5.8,0,0,1,.78-3,5.57,5.57,0,0,1,2.17-2.08,6.66,6.66,0,0,1,6.08,0,5.2,5.2,0,0,1,2.11,2,6.08,6.08,0,0,1,.76,3.09S229.16,57.62,229.12,58.16Zm-7.67-3.63a2.7,2.7,0,0,0-.92,1.72h5.57a2.74,2.74,0,0,0-.93-1.71,2.79,2.79,0,0,0-1.85-.64A2.84,2.84,0,0,0,221.45,54.53Z"/><path class="cls-3" d="M242.37,58.16h-8.55a2.66,2.66,0,0,0,1.1,1.66,3.56,3.56,0,0,0,2.14.61,4.18,4.18,0,0,0,1.56-.26,3.62,3.62,0,0,0,1.27-.83l1.75,1.89A5.87,5.87,0,0,1,237,63.06a7.35,7.35,0,0,1-3.38-.75,5.42,5.42,0,0,1-2.27-2.07,6.07,6.07,0,0,1,0-6,5.47,5.47,0,0,1,2.16-2.08,6.66,6.66,0,0,1,6.08,0,5.2,5.2,0,0,1,2.11,2,6.08,6.08,0,0,1,.76,3.09S242.41,57.62,242.37,58.16Zm-7.66-3.63a2.67,2.67,0,0,0-.93,1.72h5.57a2.69,2.69,0,0,0-.93-1.71,3,3,0,0,0-3.71,0Z"/><path class="cls-3" d="M245.67,62.71a7.08,7.08,0,0,1-2.14-.87l1.09-2.35a6.72,6.72,0,0,0,1.83.78,7.37,7.37,0,0,0,2.1.31c1.38,0,2.07-.34,2.07-1a.72.72,0,0,0-.56-.69,8.52,8.52,0,0,0-1.75-.36A17.08,17.08,0,0,1,246,58a3.53,3.53,0,0,1-1.57-1,2.74,2.74,0,0,1-.66-2,3.09,3.09,0,0,1,.62-1.9,3.85,3.85,0,0,1,1.8-1.29,7.73,7.73,0,0,1,2.81-.47,10.66,10.66,0,0,1,2.38.27,6.38,6.38,0,0,1,2,.72l-1.09,2.33A6.51,6.51,0,0,0,249,53.9a3.28,3.28,0,0,0-1.58.3.84.84,0,0,0-.52.75.76.76,0,0,0,.56.74,10.63,10.63,0,0,0,1.81.4,17.61,17.61,0,0,1,2.27.49,3.33,3.33,0,0,1,1.53,1,2.71,2.71,0,0,1,.65,1.94,3,3,0,0,1-.63,1.87,4.06,4.06,0,0,1-1.83,1.27,8.24,8.24,0,0,1-2.87.45A11,11,0,0,1,245.67,62.71Z"/><path class="cls-3" d="M258.48,59.54a2,2,0,0,1,.57,1.46,3.46,3.46,0,0,1-.11.84,9.13,9.13,0,0,1-.46,1.26l-1.2,3H255.2l.93-3.34a1.63,1.63,0,0,1-.83-.68A1.92,1.92,0,0,1,255,61a2,2,0,0,1,.58-1.46A2,2,0,0,1,257,59,2,2,0,0,1,258.48,59.54Z"/><path class="cls-3" d="M280.82,62.89l0-8.82-4.32,7.27h-1.54l-4.3-7.08v8.63h-3.19V48.19h2.81l5.5,9.13,5.42-9.13H284l0,14.7Z"/><path class="cls-3" d="M287.44,49.49a1.77,1.77,0,0,1,0-2.6,2.05,2.05,0,0,1,1.47-.53,2.12,2.12,0,0,1,1.47.51,1.62,1.62,0,0,1,.56,1.26,1.81,1.81,0,0,1-.56,1.35,2.29,2.29,0,0,1-2.94,0Zm-.17,2.1h3.27v11.3h-3.27Z"/><path class="cls-3" d="M305.24,51.59V61a6,6,0,0,1-1.61,4.62,6.69,6.69,0,0,1-4.73,1.51,11.73,11.73,0,0,1-3.11-.4,6.78,6.78,0,0,1-2.43-1.15l1.3-2.35a5.41,5.41,0,0,0,1.81.93,7.2,7.2,0,0,0,2.18.35,3.56,3.56,0,0,0,2.51-.77,3,3,0,0,0,.81-2.32v-.48a4.62,4.62,0,0,1-3.57,1.4,5.94,5.94,0,0,1-2.85-.68,5.1,5.1,0,0,1-2-1.92,5.74,5.74,0,0,1,0-5.71,5.1,5.1,0,0,1,2-1.92,6,6,0,0,1,2.85-.69A4.49,4.49,0,0,1,302.14,53V51.59Zm-4.06,7.3a2.84,2.84,0,0,0,0-4,3,3,0,0,0-2.13-.77,3.05,3.05,0,0,0-2.14.77,2.81,2.81,0,0,0,0,4,3.05,3.05,0,0,0,2.14.77A3,3,0,0,0,301.18,58.89Z"/><path class="cls-3" d="M313,51.84a5.93,5.93,0,0,1,2.3-.42v3c-.36,0-.61,0-.73,0a3,3,0,0,0-2.21.78,3.22,3.22,0,0,0-.79,2.37v5.33h-3.28V51.59h3.13v1.49A3.69,3.69,0,0,1,313,51.84Z"/><path class="cls-3" d="M325.78,52.67a4.79,4.79,0,0,1,1.41,3.77v6.45h-3.07V61.48a3.64,3.64,0,0,1-3.44,1.58,5.42,5.42,0,0,1-2.26-.44A3.4,3.4,0,0,1,317,61.4a3.24,3.24,0,0,1-.5-1.77,2.91,2.91,0,0,1,1.19-2.47,6,6,0,0,1,3.66-.91h2.6a2,2,0,0,0-.65-1.64,2.82,2.82,0,0,0-1.95-.58,5.75,5.75,0,0,0-1.78.28,4.82,4.82,0,0,0-1.48.77l-1.17-2.29a7.15,7.15,0,0,1,2.21-1,9.87,9.87,0,0,1,2.66-.36A5.89,5.89,0,0,1,325.78,52.67ZM323,60.46a2.1,2.1,0,0,0,.92-1.14V58.16h-2.24c-1.35,0-2,.45-2,1.33a1.18,1.18,0,0,0,.49,1,2.2,2.2,0,0,0,1.36.37A2.83,2.83,0,0,0,323,60.46Z"/><path class="cls-3" d="M340.41,52.68a5,5,0,0,1,1.29,3.74v6.47h-3.28v-6a3,3,0,0,0-.58-2,2.17,2.17,0,0,0-1.7-.66,2.61,2.61,0,0,0-2,.76,3.2,3.2,0,0,0-.73,2.28v5.59h-3.28V51.59h3.13v1.32a4.35,4.35,0,0,1,1.62-1.1,5.59,5.59,0,0,1,2.12-.39A4.64,4.64,0,0,1,340.41,52.68Z"/><path class="cls-3" d="M352,62.34a3.35,3.35,0,0,1-1.19.54,5.94,5.94,0,0,1-1.48.18,4.45,4.45,0,0,1-3.12-1,4,4,0,0,1-1.1-3V54.36h-1.74V51.84h1.74V49.09h3.28v2.75h2.81v2.52h-2.81V59a1.53,1.53,0,0,0,.36,1.1,1.36,1.36,0,0,0,1,.39,2.13,2.13,0,0,0,1.33-.42Z"/><path class="cls-3" d="M354.85,62.71a7.26,7.26,0,0,1-2.15-.87l1.1-2.35a6.79,6.79,0,0,0,1.82.78,7.47,7.47,0,0,0,2.1.31c1.39,0,2.08-.34,2.08-1a.73.73,0,0,0-.56-.69,8.52,8.52,0,0,0-1.75-.36A17.27,17.27,0,0,1,355.2,58a3.55,3.55,0,0,1-1.56-1,2.74,2.74,0,0,1-.66-2,3,3,0,0,1,.62-1.9,3.85,3.85,0,0,1,1.8-1.29,7.69,7.69,0,0,1,2.81-.47,10.73,10.73,0,0,1,2.38.27,6.48,6.48,0,0,1,2,.72l-1.09,2.33a6.51,6.51,0,0,0-3.25-.84,3.28,3.28,0,0,0-1.58.3.84.84,0,0,0-.52.75.75.75,0,0,0,.56.74,10.4,10.4,0,0,0,1.81.4,18,18,0,0,1,2.27.49,3.38,3.38,0,0,1,1.53,1,2.76,2.76,0,0,1,.65,1.94,3,3,0,0,1-.63,1.87,4,4,0,0,1-1.84,1.27,8.18,8.18,0,0,1-2.86.45A11,11,0,0,1,354.85,62.71Z"/><path class="cls-3" d="M367.66,59.54a2,2,0,0,1,.56,1.46,3.44,3.44,0,0,1-.1.84,10.71,10.71,0,0,1-.46,1.26l-1.2,3h-2.08l.92-3.34a1.67,1.67,0,0,1-.83-.68,2,2,0,0,1-.3-1.1,1.92,1.92,0,0,1,.58-1.46,2,2,0,0,1,1.46-.56A2,2,0,0,1,367.66,59.54Z"/><path class="cls-3" d="M124,77.87a4.78,4.78,0,0,1,1.4,3.77v6.45h-3.06V86.68a3.67,3.67,0,0,1-3.45,1.58,5.37,5.37,0,0,1-2.25-.44,3.35,3.35,0,0,1-1.46-1.22,3.16,3.16,0,0,1-.51-1.77,2.93,2.93,0,0,1,1.19-2.47,6,6,0,0,1,3.66-.91h2.61a2.08,2.08,0,0,0-.65-1.64,2.87,2.87,0,0,0-2-.58,5.65,5.65,0,0,0-1.77.28,4.82,4.82,0,0,0-1.48.77L115.13,78a7.32,7.32,0,0,1,2.22-1,9.87,9.87,0,0,1,2.66-.36A5.89,5.89,0,0,1,124,77.87Zm-2.8,7.79a2.07,2.07,0,0,0,.93-1.14V83.36h-2.25c-1.34,0-2,.45-2,1.33a1.19,1.19,0,0,0,.5,1,2.25,2.25,0,0,0,1.35.36A2.83,2.83,0,0,0,121.24,85.66Z"/><path class="cls-3" d="M138.66,77.88A5,5,0,0,1,140,81.62v6.47h-3.27v-6a3,3,0,0,0-.59-2,2.16,2.16,0,0,0-1.7-.66,2.56,2.56,0,0,0-2,.77,3.16,3.16,0,0,0-.74,2.27v5.59H128.4V76.79h3.13v1.32a4.52,4.52,0,0,1,1.62-1.1,5.59,5.59,0,0,1,2.12-.39A4.64,4.64,0,0,1,138.66,77.88Z"/><path class="cls-3" d="M154.55,72.51V88.09h-3.13v-1.3a4.32,4.32,0,0,1-3.53,1.47,5.81,5.81,0,0,1-2.88-.72,5,5,0,0,1-2-2,6.74,6.74,0,0,1,0-6.14,5,5,0,0,1,2-2,5.81,5.81,0,0,1,2.88-.72A4.3,4.3,0,0,1,151.27,78V72.51Zm-4,12.21a3.58,3.58,0,0,0,0-4.56,2.77,2.77,0,0,0-2.06-.85,2.8,2.8,0,0,0-2.08.85,3.58,3.58,0,0,0,0,4.56,2.76,2.76,0,0,0,2.08.85A2.73,2.73,0,0,0,150.52,84.72Z"/><path class="cls-3" d="M173.5,74a4.84,4.84,0,0,1,3,4.68,5.11,5.11,0,0,1-.77,2.83,5,5,0,0,1-2.22,1.85,8.4,8.4,0,0,1-3.39.64h-3v4h-3.4V73.39h6.36A8.23,8.23,0,0,1,173.5,74Zm-1.25,6.56a2.3,2.3,0,0,0,.8-1.88,2.34,2.34,0,0,0-.8-1.9,3.58,3.58,0,0,0-2.33-.66h-2.77v5.1h2.77A3.58,3.58,0,0,0,172.25,80.6Z"/><path class="cls-3" d="M189.66,83.36h-8.55a2.66,2.66,0,0,0,1.1,1.66,3.56,3.56,0,0,0,2.14.61,4.18,4.18,0,0,0,1.56-.26,3.62,3.62,0,0,0,1.27-.83l1.75,1.89a5.87,5.87,0,0,1-4.67,1.83,7.35,7.35,0,0,1-3.38-.75,5.42,5.42,0,0,1-2.27-2.07,6.07,6.07,0,0,1,0-6,5.47,5.47,0,0,1,2.16-2.08,6.66,6.66,0,0,1,6.08,0,5.2,5.2,0,0,1,2.11,2,6.08,6.08,0,0,1,.76,3.09S189.7,82.82,189.66,83.36ZM182,79.73a2.67,2.67,0,0,0-.93,1.72h5.57a2.69,2.69,0,0,0-.93-1.71,2.74,2.74,0,0,0-1.85-.64A2.79,2.79,0,0,0,182,79.73Z"/><path class="cls-3" d="M194.08,87.51a5.45,5.45,0,0,1-2.21-2.07,5.73,5.73,0,0,1,2.21-8.07,7.2,7.2,0,0,1,6.4,0,5.62,5.62,0,0,1,2.2,2.07,6,6,0,0,1,0,6,5.49,5.49,0,0,1-2.2,2.07,7.2,7.2,0,0,1-6.4,0Zm5.27-2.79a3.61,3.61,0,0,0,0-4.56,2.76,2.76,0,0,0-2.07-.85,2.8,2.8,0,0,0-2.08.85,3.61,3.61,0,0,0,0,4.56,2.76,2.76,0,0,0,2.08.85A2.72,2.72,0,0,0,199.35,84.72Z"/><path class="cls-3" d="M215.21,77.35a5.15,5.15,0,0,1,2,2,6.12,6.12,0,0,1,.74,3,6.19,6.19,0,0,1-.74,3.06,5.19,5.19,0,0,1-2,2,5.7,5.7,0,0,1-2.87.73,4.37,4.37,0,0,1-3.4-1.37v5.27h-3.28V76.79h3.13v1.3a4.35,4.35,0,0,1,3.55-1.47A5.7,5.7,0,0,1,215.21,77.35Zm-1.37,7.37a3.61,3.61,0,0,0,0-4.56,2.76,2.76,0,0,0-2.07-.85,2.72,2.72,0,0,0-2.06.85,3.61,3.61,0,0,0,0,4.56,2.69,2.69,0,0,0,2.06.85A2.72,2.72,0,0,0,213.84,84.72Z"/><path class="cls-3" d="M220.15,72.51h3.28V88.09h-3.28Z"/><path class="cls-3" d="M237.48,83.36h-8.55A2.65,2.65,0,0,0,230,85a3.6,3.6,0,0,0,2.14.61,4.27,4.27,0,0,0,1.57-.26,3.71,3.71,0,0,0,1.27-.83l1.74,1.89a5.85,5.85,0,0,1-4.66,1.83,7.35,7.35,0,0,1-3.38-.75,5.37,5.37,0,0,1-2.27-2.07,5.7,5.7,0,0,1-.8-3,5.81,5.81,0,0,1,.79-3,5.61,5.61,0,0,1,2.16-2.08,6.35,6.35,0,0,1,3.08-.75,6.22,6.22,0,0,1,3,.72,5.14,5.14,0,0,1,2.11,2,6.08,6.08,0,0,1,.77,3.09S237.52,82.82,237.48,83.36Zm-7.67-3.63a2.7,2.7,0,0,0-.92,1.72h5.56a2.68,2.68,0,0,0-2.77-2.35A2.84,2.84,0,0,0,229.81,79.73Z"/><path class="cls-3" d="M263.81,76.79l-4.09,11.3h-3.15l-2.54-7-2.63,7h-3.15l-4.07-11.3h3.08l2.67,7.65,2.77-7.65h2.78l2.68,7.65,2.75-7.65Z"/><path class="cls-3" d="M265.51,74.69a1.79,1.79,0,0,1,0-2.6,2.09,2.09,0,0,1,1.47-.53,2.12,2.12,0,0,1,1.47.51,1.6,1.6,0,0,1,.57,1.26,1.78,1.78,0,0,1-.57,1.35,2.05,2.05,0,0,1-1.47.54A2.09,2.09,0,0,1,265.51,74.69Zm-.17,2.1h3.28v11.3h-3.28Z"/><path class="cls-3" d="M279,87.54a3.3,3.3,0,0,1-1.18.54,6,6,0,0,1-1.48.18,4.41,4.41,0,0,1-3.12-1,3.94,3.94,0,0,1-1.1-3V79.56h-1.75V77h1.75V74.29h3.27V77h2.81v2.52h-2.81v4.6a1.54,1.54,0,0,0,.37,1.11,1.38,1.38,0,0,0,1,.38,2.08,2.08,0,0,0,1.32-.42Z"/><path class="cls-3" d="M291.06,77.88a5,5,0,0,1,1.29,3.74v6.47h-3.28v-6a3,3,0,0,0-.58-2,2.17,2.17,0,0,0-1.7-.66,2.58,2.58,0,0,0-2,.77,3.16,3.16,0,0,0-.73,2.27v5.59H280.8V72.51h3.28V78a4.27,4.27,0,0,1,1.57-1,5.75,5.75,0,0,1,2-.35A4.64,4.64,0,0,1,291.06,77.88Z"/><path class="cls-3" d="M301.49,73.39h6.67a9.34,9.34,0,0,1,4.23.91,6.82,6.82,0,0,1,2.86,2.58,7.81,7.81,0,0,1,0,7.72,6.82,6.82,0,0,1-2.86,2.58,9.34,9.34,0,0,1-4.23.91h-6.67ZM308,85.3a4.93,4.93,0,0,0,3.52-1.23,4.89,4.89,0,0,0,0-6.66A4.93,4.93,0,0,0,308,76.18h-3.1V85.3Z"/><path class="cls-3" d="M318.77,74.69a1.77,1.77,0,0,1,0-2.6,2.09,2.09,0,0,1,1.47-.53,2.12,2.12,0,0,1,1.47.51,1.59,1.59,0,0,1,.56,1.26,1.77,1.77,0,0,1-.56,1.35,2.05,2.05,0,0,1-1.47.54A2.09,2.09,0,0,1,318.77,74.69Zm-.17,2.1h3.28v11.3H318.6Z"/><path class="cls-3" d="M326,87.91a7.08,7.08,0,0,1-2.14-.87l1.09-2.35a7,7,0,0,0,1.83.79,7.72,7.72,0,0,0,2.1.3c1.38,0,2.08-.34,2.08-1a.73.73,0,0,0-.57-.69,8.55,8.55,0,0,0-1.74-.36,16.93,16.93,0,0,1-2.29-.48,3.58,3.58,0,0,1-1.57-1,2.74,2.74,0,0,1-.66-2,3.09,3.09,0,0,1,.62-1.9,3.88,3.88,0,0,1,1.81-1.29,7.63,7.63,0,0,1,2.8-.47,10.66,10.66,0,0,1,2.38.27,6.45,6.45,0,0,1,2,.72l-1.09,2.33a6.54,6.54,0,0,0-3.26-.84,3.23,3.23,0,0,0-1.57.3.85.85,0,0,0-.53.75.76.76,0,0,0,.57.74,10.47,10.47,0,0,0,1.8.4,17.61,17.61,0,0,1,2.27.49,3.33,3.33,0,0,1,1.53,1,2.72,2.72,0,0,1,.66,1.94,3,3,0,0,1-.63,1.87,4.09,4.09,0,0,1-1.84,1.27,8.24,8.24,0,0,1-2.87.45A11,11,0,0,1,326,87.91Z"/><path class="cls-3" d="M344.66,77.87a4.79,4.79,0,0,1,1.41,3.77v6.45H343V86.68a3.64,3.64,0,0,1-3.44,1.58,5.42,5.42,0,0,1-2.26-.44,3.4,3.4,0,0,1-1.46-1.22,3.15,3.15,0,0,1-.5-1.77,2.92,2.92,0,0,1,1.18-2.47,6,6,0,0,1,3.67-.91h2.6a2.08,2.08,0,0,0-.65-1.64,2.82,2.82,0,0,0-1.95-.58,5.71,5.71,0,0,0-1.78.28,4.82,4.82,0,0,0-1.48.77L335.76,78A7.15,7.15,0,0,1,338,77a9.87,9.87,0,0,1,2.66-.36A5.89,5.89,0,0,1,344.66,77.87Zm-2.79,7.79a2.1,2.1,0,0,0,.92-1.14V83.36h-2.25c-1.34,0-2,.45-2,1.33a1.18,1.18,0,0,0,.49,1,2.26,2.26,0,0,0,1.36.36A2.86,2.86,0,0,0,341.87,85.66Z"/><path class="cls-3" d="M358.57,77.35a5.17,5.17,0,0,1,2,2,6.12,6.12,0,0,1,.73,3,6.18,6.18,0,0,1-.73,3.06,5.21,5.21,0,0,1-2,2,5.66,5.66,0,0,1-2.86.73,4.34,4.34,0,0,1-3.55-1.47v1.3H349V72.51h3.27V78a4.38,4.38,0,0,1,3.41-1.37A5.66,5.66,0,0,1,358.57,77.35Zm-1.36,7.37a3.61,3.61,0,0,0,0-4.56,2.95,2.95,0,0,0-4.14,0,3.61,3.61,0,0,0,0,4.56,2.95,2.95,0,0,0,4.14,0Z"/><path class="cls-3" d="M363.69,74.69a1.77,1.77,0,0,1,0-2.6,2.05,2.05,0,0,1,1.47-.53,2.12,2.12,0,0,1,1.47.51,1.62,1.62,0,0,1,.56,1.26,1.81,1.81,0,0,1-.56,1.35,2.29,2.29,0,0,1-2.94,0Zm-.17,2.1h3.27v11.3h-3.27Z"/><path class="cls-3" d="M369.84,72.51h3.27V88.09h-3.27Z"/><path class="cls-3" d="M376.33,74.69a1.77,1.77,0,0,1,0-2.6,2.09,2.09,0,0,1,1.47-.53,2.12,2.12,0,0,1,1.47.51,1.59,1.59,0,0,1,.56,1.26,1.77,1.77,0,0,1-.56,1.35,2.05,2.05,0,0,1-1.47.54A2.09,2.09,0,0,1,376.33,74.69Zm-.17,2.1h3.28v11.3h-3.28Z"/><path class="cls-3" d="M389.77,87.54a3.35,3.35,0,0,1-1.19.54,5.94,5.94,0,0,1-1.48.18,4.45,4.45,0,0,1-3.12-1,4,4,0,0,1-1.1-3V79.56h-1.74V77h1.74V74.29h3.27V77H389v2.52h-2.82v4.6a1.58,1.58,0,0,0,.37,1.11,1.4,1.4,0,0,0,1,.38,2.13,2.13,0,0,0,1.33-.42Z"/><path class="cls-3" d="M391.78,74.69a1.79,1.79,0,0,1,0-2.6,2.34,2.34,0,0,1,2.94,0,1.6,1.6,0,0,1,.57,1.26,1.78,1.78,0,0,1-.57,1.35,2,2,0,0,1-1.47.54A2.09,2.09,0,0,1,391.78,74.69Zm-.17,2.1h3.28v11.3h-3.28Z"/><path class="cls-3" d="M408.94,83.36h-8.55a2.66,2.66,0,0,0,1.1,1.66,3.56,3.56,0,0,0,2.14.61,4.18,4.18,0,0,0,1.56-.26,3.62,3.62,0,0,0,1.27-.83l1.75,1.89a5.87,5.87,0,0,1-4.67,1.83,7.35,7.35,0,0,1-3.38-.75,5.42,5.42,0,0,1-2.27-2.07,5.7,5.7,0,0,1-.79-3,5.8,5.8,0,0,1,.78-3,5.57,5.57,0,0,1,2.17-2.08,6.66,6.66,0,0,1,6.08,0,5.2,5.2,0,0,1,2.11,2,6.08,6.08,0,0,1,.76,3.09S409,82.82,408.94,83.36Zm-7.66-3.63a2.67,2.67,0,0,0-.93,1.72h5.57a2.7,2.7,0,0,0-2.78-2.35A2.79,2.79,0,0,0,401.28,79.73Z"/><path class="cls-3" d="M412.24,87.91A7.08,7.08,0,0,1,410.1,87l1.09-2.35a7.12,7.12,0,0,0,1.82.79,7.83,7.83,0,0,0,2.1.3c1.39,0,2.08-.34,2.08-1a.73.73,0,0,0-.56-.69,8.52,8.52,0,0,0-1.75-.36,17.62,17.62,0,0,1-2.29-.48,3.55,3.55,0,0,1-1.56-1,2.74,2.74,0,0,1-.66-2,3,3,0,0,1,.62-1.9,3.85,3.85,0,0,1,1.8-1.29,7.69,7.69,0,0,1,2.81-.47,10.66,10.66,0,0,1,2.38.27,6.38,6.38,0,0,1,2,.72l-1.09,2.33a6.51,6.51,0,0,0-3.25-.84,3.28,3.28,0,0,0-1.58.3.84.84,0,0,0-.52.75.76.76,0,0,0,.56.74,10.4,10.4,0,0,0,1.81.4,18,18,0,0,1,2.27.49,3.33,3.33,0,0,1,1.53,1,2.71,2.71,0,0,1,.65,1.94,3,3,0,0,1-.63,1.87,4.06,4.06,0,0,1-1.83,1.27,8.28,8.28,0,0,1-2.87.45A11,11,0,0,1,412.24,87.91Z"/></svg>