<svg id="Layer_1" data-name="Layer 1" xmlns="http://www.w3.org/2000/svg" viewBox="0 0 654 250"><defs><style>.cls-1{fill:#f89c26;}.cls-2{opacity:0.15;}.cls-3{fill:#fff;}.cls-4{fill:none;stroke:#f89c26;stroke-miterlimit:10;stroke-width:2.5px;}</style></defs><path d="M329.61,149.42H328V136.6h1.62Z"/><path d="M333.85,138.25h-1.62V136.6h1.62Zm0,11.17h-1.62v-8.9h1.62Z"/><path d="M339.3,146.79l.14.63h.05l.16-.63,2-6.27h1.65l-3.27,8.9h-1.22l-3.31-8.9h1.66Z"/><path d="M346.55,138.25h-1.62V136.6h1.62Zm0,11.17h-1.62v-8.9h1.62Z"/><path d="M350.49,140.52l.11,1.33a3.33,3.33,0,0,1,1.11-1.1,3,3,0,0,1,1.53-.39,2.92,2.92,0,0,1,2.23.84,3.73,3.73,0,0,1,.79,2.6v5.62h-1.62v-5.58a2.4,2.4,0,0,0-.47-1.67,1.86,1.86,0,0,0-1.42-.5,2.47,2.47,0,0,0-1.26.3,2.19,2.19,0,0,0-.83.85v6.6H349v-8.9Z"/><path d="M358.32,145.13a6,6,0,0,1,.91-3.46,3,3,0,0,1,2.56-1.31,2.95,2.95,0,0,1,2.57,1.32l.19-1.16h1.29v8.95a3.4,3.4,0,0,1-1,2.62A4.09,4.09,0,0,1,362,153a5.82,5.82,0,0,1-1.38-.18,5.42,5.42,0,0,1-1.31-.48l.24-1.26a4.52,4.52,0,0,0,1.13.4,5.92,5.92,0,0,0,1.31.15,2.36,2.36,0,0,0,1.72-.54,2.19,2.19,0,0,0,.54-1.63v-1a2.77,2.77,0,0,1-1.05.85,3.24,3.24,0,0,1-1.4.29,3,3,0,0,1-2.55-1.18,4.92,4.92,0,0,1-.91-3.1Zm1.62.18a3.75,3.75,0,0,0,.55,2.15,1.9,1.9,0,0,0,1.7.81,2.16,2.16,0,0,0,1.22-.33,2.53,2.53,0,0,0,.82-.94v-4.09a2.46,2.46,0,0,0-.82-.9,2.15,2.15,0,0,0-1.21-.34,1.85,1.85,0,0,0-1.71,1,4.94,4.94,0,0,0-.55,2.49Z"/><path d="M374.1,138.25h-1.62V136.6h1.62Zm0,11.17h-1.62v-8.9h1.62Z"/><path d="M378,140.52l.12,1.33a3.16,3.16,0,0,1,1.11-1.1,3,3,0,0,1,1.52-.39,2.92,2.92,0,0,1,2.23.84,3.68,3.68,0,0,1,.79,2.6v5.62h-1.62v-5.58a2.45,2.45,0,0,0-.46-1.67,1.87,1.87,0,0,0-1.42-.5,2.51,2.51,0,0,0-1.27.3,2.26,2.26,0,0,0-.83.85v6.6h-1.62v-8.9Z"/><path d="M394.55,142l-.83,0a1.86,1.86,0,0,0-1.08.31,2,2,0,0,0-.68.85v6.36h-1.62v-8.9h1.45l.15,1.3a3.09,3.09,0,0,1,.94-1.07,2.16,2.16,0,0,1,1.28-.39,1.87,1.87,0,0,1,.34,0l.27.06Z"/><path d="M401.88,148.1a3,3,0,0,1-1.08,1.1,2.91,2.91,0,0,1-1.52.39,2.87,2.87,0,0,1-2.27-.93,4.32,4.32,0,0,1-.81-2.89v-5.25h1.62v5.26a3.32,3.32,0,0,0,.42,2,1.54,1.54,0,0,0,1.31.53,2.58,2.58,0,0,0,1.42-.35,2.12,2.12,0,0,0,.85-1v-6.41h1.62v8.9H402Z"/><path d="M410,142l-.83,0a1.86,1.86,0,0,0-1.08.31,1.93,1.93,0,0,0-.68.85v6.36H405.8v-8.9h1.44l.16,1.3a3,3,0,0,1,.93-1.07,2.18,2.18,0,0,1,1.28-.39,2,2,0,0,1,.35,0l.27.06Z"/><path d="M417.16,149.42c-.06-.27-.1-.51-.13-.72a6.2,6.2,0,0,1-.06-.62,3.8,3.8,0,0,1-1.17,1.08,3.12,3.12,0,0,1-1.57.43,2.93,2.93,0,0,1-2.12-.71,2.64,2.64,0,0,1-.72-2,2.3,2.3,0,0,1,1-2,4.9,4.9,0,0,1,2.8-.71H417v-.88a1.62,1.62,0,0,0-.47-1.24,1.9,1.9,0,0,0-1.35-.46,2,2,0,0,0-1.27.4,1.17,1.17,0,0,0-.49.94l-1.53,0,0-.05a2.09,2.09,0,0,1,.91-1.77,3.73,3.73,0,0,1,2.49-.81,3.67,3.67,0,0,1,2.43.77,2.7,2.7,0,0,1,.92,2.21v4.28a9,9,0,0,0,.05.92,6.54,6.54,0,0,0,.18.88Zm-2.69-1.19a2.88,2.88,0,0,0,1.58-.45,2.11,2.11,0,0,0,.92-1V145.3h-1.81a2.36,2.36,0,0,0-1.57.49A1.48,1.48,0,0,0,413,147a1.24,1.24,0,0,0,.36.94A1.58,1.58,0,0,0,414.47,148.23Z"/><path d="M422.7,149.42h-1.62V136.6h1.62Z"/><path d="M434.83,149.42c-.05-.27-.09-.51-.13-.72s0-.41-.05-.62a3.73,3.73,0,0,1-1.18,1.08,3.05,3.05,0,0,1-1.56.43,2.93,2.93,0,0,1-2.12-.71,2.65,2.65,0,0,1-.73-2,2.32,2.32,0,0,1,1-2,4.9,4.9,0,0,1,2.8-.71h1.76v-.88a1.63,1.63,0,0,0-.48-1.24,1.86,1.86,0,0,0-1.34-.46,2,2,0,0,0-1.28.4,1.18,1.18,0,0,0-.48.94l-1.54,0v-.05a2.1,2.1,0,0,1,.9-1.77,3.78,3.78,0,0,1,2.5-.81,3.67,3.67,0,0,1,2.43.77,2.73,2.73,0,0,1,.92,2.21v4.28a9,9,0,0,0,.05.92,4.44,4.44,0,0,0,.18.88Zm-2.68-1.19a2.88,2.88,0,0,0,1.58-.45,2.16,2.16,0,0,0,.92-1V145.3h-1.82a2.33,2.33,0,0,0-1.56.49,1.49,1.49,0,0,0-.59,1.16,1.24,1.24,0,0,0,.37.94A1.56,1.56,0,0,0,432.15,148.23Z"/><path d="M442.83,142l-.83,0a1.86,1.86,0,0,0-1.08.31,1.93,1.93,0,0,0-.68.85v6.36h-1.62v-8.9h1.45l.15,1.3a3,3,0,0,1,.94-1.07,2.15,2.15,0,0,1,1.27-.39,2,2,0,0,1,.35,0l.27.06Z"/><path d="M448,149.59a3.75,3.75,0,0,1-3-1.23,4.67,4.67,0,0,1-1.07-3.22v-.36a4.65,4.65,0,0,1,1.1-3.17,3.49,3.49,0,0,1,2.7-1.25,3.24,3.24,0,0,1,2.68,1.11,4.59,4.59,0,0,1,.89,2.95v.85h-5.69l0,0a3.64,3.64,0,0,0,.59,2.17,2.05,2.05,0,0,0,1.81.83,4.22,4.22,0,0,0,1.44-.23,3.15,3.15,0,0,0,1.06-.65l.64,1.06a4,4,0,0,1-1.26.77A5,5,0,0,1,448,149.59Zm-.26-8a1.76,1.76,0,0,0-1.4.66,3.12,3.12,0,0,0-.68,1.67l0,0h4v-.13a2.56,2.56,0,0,0-.48-1.6A1.69,1.69,0,0,0,447.78,141.63Z"/><path d="M458.63,149.42c-.06-.27-.1-.51-.13-.72a4.21,4.21,0,0,1-.05-.62,3.84,3.84,0,0,1-1.18,1.08,3.12,3.12,0,0,1-1.57.43,2.91,2.91,0,0,1-2.11-.71,2.61,2.61,0,0,1-.73-2,2.3,2.3,0,0,1,1-2,4.9,4.9,0,0,1,2.8-.71h1.76v-.88a1.63,1.63,0,0,0-.48-1.24,1.87,1.87,0,0,0-1.35-.46,2,2,0,0,0-1.27.4,1.18,1.18,0,0,0-.48.94l-1.54,0,0-.05a2.11,2.11,0,0,1,.91-1.77,3.76,3.76,0,0,1,2.5-.81,3.7,3.7,0,0,1,2.43.77,2.73,2.73,0,0,1,.92,2.21v4.28a6.81,6.81,0,0,0,.05.92,4.44,4.44,0,0,0,.18.88Zm-2.69-1.19a2.89,2.89,0,0,0,1.59-.45,2.16,2.16,0,0,0,.92-1V145.3h-1.82a2.33,2.33,0,0,0-1.56.49,1.49,1.49,0,0,0-.59,1.16,1.21,1.21,0,0,0,.37.94A1.55,1.55,0,0,0,455.94,148.23Z"/><path d="M467.59,147a1.1,1.1,0,0,0-.41-.87,4,4,0,0,0-1.54-.59,6.43,6.43,0,0,1-2.41-.94,1.92,1.92,0,0,1-.84-1.63,2.35,2.35,0,0,1,.92-1.86,3.63,3.63,0,0,1,2.39-.77,3.56,3.56,0,0,1,2.45.82,2.35,2.35,0,0,1,.9,1.92l0,.05h-1.54a1.39,1.39,0,0,0-.51-1.05,1.8,1.8,0,0,0-1.28-.47,1.82,1.82,0,0,0-1.27.39,1.22,1.22,0,0,0-.43.92,1,1,0,0,0,.37.81,3.91,3.91,0,0,0,1.51.53,6.43,6.43,0,0,1,2.48,1,2,2,0,0,1,.85,1.65,2.34,2.34,0,0,1-1,1.93,4.57,4.57,0,0,1-5.18-.11,2.46,2.46,0,0,1-.93-2l0-.05h1.54a1.49,1.49,0,0,0,.64,1.26,2.46,2.46,0,0,0,1.41.4,2.25,2.25,0,0,0,1.35-.36A1.15,1.15,0,0,0,467.59,147Z"/><path d="M290.19,169.61c-.05-.27-.09-.5-.12-.71a6.2,6.2,0,0,1-.06-.62,3.59,3.59,0,0,1-1.18,1.07,3,3,0,0,1-1.56.43,2.89,2.89,0,0,1-2.12-.71,2.62,2.62,0,0,1-.73-2,2.29,2.29,0,0,1,1-2,4.78,4.78,0,0,1,2.79-.72H290v-.88a1.63,1.63,0,0,0-.47-1.23,1.86,1.86,0,0,0-1.35-.46,2,2,0,0,0-1.28.39,1.2,1.2,0,0,0-.48.95l-1.54,0v-.05a2.13,2.13,0,0,1,.9-1.78,3.77,3.77,0,0,1,2.5-.8,3.66,3.66,0,0,1,2.43.76,2.75,2.75,0,0,1,.92,2.22v4.28a9.12,9.12,0,0,0,.05.92,4.2,4.2,0,0,0,.18.87Zm-2.68-1.18a2.88,2.88,0,0,0,1.58-.45,2.14,2.14,0,0,0,.92-1v-1.45H288.2a2.35,2.35,0,0,0-1.57.5,1.48,1.48,0,0,0-.59,1.16,1.23,1.23,0,0,0,.37.93A1.56,1.56,0,0,0,287.51,168.43Z"/><path d="M297.52,168.52a1.91,1.91,0,0,0,1.3-.5,1.58,1.58,0,0,0,.56-1.22h1.46l0,0a2.55,2.55,0,0,1-1,2,3.46,3.46,0,0,1-2.36.89,3.5,3.5,0,0,1-2.9-1.27,4.92,4.92,0,0,1-1-3.17V165a4.88,4.88,0,0,1,1-3.16,3.48,3.48,0,0,1,2.89-1.27,3.31,3.31,0,0,1,2.43.92,2.92,2.92,0,0,1,.92,2.26l0,0h-1.47a2,2,0,0,0-.53-1.39,1.74,1.74,0,0,0-1.33-.57,1.87,1.87,0,0,0-1.74.92,4.3,4.3,0,0,0-.55,2.24v.35a4.42,4.42,0,0,0,.54,2.26A1.88,1.88,0,0,0,297.52,168.52Z"/><path d="M306.32,168.52a1.91,1.91,0,0,0,1.31-.5,1.58,1.58,0,0,0,.56-1.22h1.46l0,0a2.55,2.55,0,0,1-1,2,3.78,3.78,0,0,1-5.26-.38,4.92,4.92,0,0,1-1-3.17V165a4.88,4.88,0,0,1,1-3.16,3.47,3.47,0,0,1,2.88-1.27,3.32,3.32,0,0,1,2.44.92,2.92,2.92,0,0,1,.92,2.26l0,0h-1.47a2,2,0,0,0-.53-1.39,1.75,1.75,0,0,0-1.34-.57,1.87,1.87,0,0,0-1.73.92A4.3,4.3,0,0,0,304,165v.35a4.42,4.42,0,0,0,.54,2.26A1.87,1.87,0,0,0,306.32,168.52Z"/><path d="M315.28,169.78a3.77,3.77,0,0,1-3-1.22,4.74,4.74,0,0,1-1.07-3.22V165a4.59,4.59,0,0,1,1.11-3.17,3.43,3.43,0,0,1,2.7-1.25,3.21,3.21,0,0,1,2.67,1.11,4.51,4.51,0,0,1,.89,3v.85h-5.68l0,0a3.69,3.69,0,0,0,.59,2.17,2.07,2.07,0,0,0,1.81.84,4,4,0,0,0,1.44-.24,3.18,3.18,0,0,0,1.07-.64l.63,1.05a3.87,3.87,0,0,1-1.26.78A5,5,0,0,1,315.28,169.78Zm-.25-7.95a1.76,1.76,0,0,0-1.4.65,3.11,3.11,0,0,0-.68,1.68v0h4v-.14a2.58,2.58,0,0,0-.48-1.6A1.73,1.73,0,0,0,315,161.83Z"/><path d="M325.58,167.22a1.07,1.07,0,0,0-.41-.87,3.81,3.81,0,0,0-1.54-.59,6.43,6.43,0,0,1-2.41-.95,1.9,1.9,0,0,1-.84-1.62,2.32,2.32,0,0,1,.92-1.86,4.1,4.1,0,0,1,4.85,0,2.35,2.35,0,0,1,.89,1.91l0,.05h-1.54a1.39,1.39,0,0,0-.51-1,1.8,1.8,0,0,0-1.27-.47,1.83,1.83,0,0,0-1.28.39,1.2,1.2,0,0,0-.43.92,1,1,0,0,0,.37.81,4.08,4.08,0,0,0,1.51.53,6.37,6.37,0,0,1,2.48,1,2,2,0,0,1,.85,1.66,2.35,2.35,0,0,1-1,1.93,3.93,3.93,0,0,1-2.5.74,3.87,3.87,0,0,1-2.68-.86,2.46,2.46,0,0,1-.93-2l0,0h1.54a1.51,1.51,0,0,0,.64,1.26,2.46,2.46,0,0,0,1.41.4,2.19,2.19,0,0,0,1.35-.37A1.12,1.12,0,0,0,325.58,167.22Z"/><path d="M334.38,167.22a1.07,1.07,0,0,0-.41-.87,3.81,3.81,0,0,0-1.54-.59,6.5,6.5,0,0,1-2.41-.95,1.9,1.9,0,0,1-.84-1.62,2.35,2.35,0,0,1,.92-1.86,4.1,4.1,0,0,1,4.85,0,2.35,2.35,0,0,1,.89,1.91v.05h-1.55a1.41,1.41,0,0,0-.5-1,2.12,2.12,0,0,0-2.56-.08,1.19,1.19,0,0,0-.42.92,1,1,0,0,0,.36.81,4.16,4.16,0,0,0,1.51.53,6.37,6.37,0,0,1,2.48,1,2,2,0,0,1,.85,1.66,2.35,2.35,0,0,1-1,1.93,3.93,3.93,0,0,1-2.5.74,3.89,3.89,0,0,1-2.68-.86,2.46,2.46,0,0,1-.93-2l0,0h1.54a1.51,1.51,0,0,0,.64,1.26,2.46,2.46,0,0,0,1.41.4,2.17,2.17,0,0,0,1.35-.37A1.1,1.1,0,0,0,334.38,167.22Z"/><path d="M341.69,169.78a3.73,3.73,0,0,1-3-1.22,4.7,4.7,0,0,1-1.08-3.22V165a4.59,4.59,0,0,1,1.11-3.17,3.46,3.46,0,0,1,2.7-1.25,3.21,3.21,0,0,1,2.67,1.11,4.51,4.51,0,0,1,.89,3v.85h-5.68l0,0a3.62,3.62,0,0,0,.6,2.17,2,2,0,0,0,1.8.84,4,4,0,0,0,1.45-.24,3.23,3.23,0,0,0,1.06-.64l.63,1.05a3.76,3.76,0,0,1-1.26.78A5,5,0,0,1,341.69,169.78Zm-.25-7.95a1.76,1.76,0,0,0-1.4.65,3.11,3.11,0,0,0-.68,1.68l0,0h4v-.14a2.58,2.58,0,0,0-.48-1.6A1.73,1.73,0,0,0,341.44,161.83Z"/><path d="M346.45,165.33a6,6,0,0,1,.92-3.46,2.93,2.93,0,0,1,2.57-1.31,3.18,3.18,0,0,1,1.38.28,2.88,2.88,0,0,1,1,.84v-4.89H354v12.82h-1.24l-.25-1.12a3,3,0,0,1-1.07,1,3.37,3.37,0,0,1-1.49.32,3.07,3.07,0,0,1-2.55-1.17,5,5,0,0,1-.92-3.11Zm1.62.17a3.76,3.76,0,0,0,.55,2.16,1.93,1.93,0,0,0,1.71.81,2.16,2.16,0,0,0,1.22-.33,2.58,2.58,0,0,0,.8-.92v-4.15a2.43,2.43,0,0,0-.81-.87,2.1,2.1,0,0,0-1.19-.33,1.86,1.86,0,0,0-1.73,1,5.09,5.09,0,0,0-.55,2.5Z"/><path d="M364.25,169.78a3.76,3.76,0,0,1-3-1.22,4.74,4.74,0,0,1-1.07-3.22V165a4.59,4.59,0,0,1,1.11-3.17,3.43,3.43,0,0,1,2.7-1.25,3.21,3.21,0,0,1,2.67,1.11,4.51,4.51,0,0,1,.89,3v.85h-5.68l0,0a3.69,3.69,0,0,0,.59,2.17,2.07,2.07,0,0,0,1.81.84,4,4,0,0,0,1.44-.24,3.18,3.18,0,0,0,1.07-.64l.63,1.05a3.87,3.87,0,0,1-1.26.78A5,5,0,0,1,364.25,169.78Zm-.25-7.95a1.75,1.75,0,0,0-1.4.65,3.11,3.11,0,0,0-.68,1.68v0h4v-.14a2.64,2.64,0,0,0-.47-1.6A1.73,1.73,0,0,0,364,161.83Z"/><path d="M371.13,169.61h-1.62V156.79h1.62Z"/><path d="M377.3,169.78a3.76,3.76,0,0,1-3-1.22,4.74,4.74,0,0,1-1.07-3.22V165a4.59,4.59,0,0,1,1.11-3.17,3.43,3.43,0,0,1,2.7-1.25,3.21,3.21,0,0,1,2.67,1.11,4.51,4.51,0,0,1,.89,3v.85h-5.68l0,0a3.69,3.69,0,0,0,.59,2.17,2.07,2.07,0,0,0,1.81.84,4,4,0,0,0,1.44-.24,3.18,3.18,0,0,0,1.07-.64l.63,1.05a3.87,3.87,0,0,1-1.26.78A5,5,0,0,1,377.3,169.78Zm-.25-7.95a1.75,1.75,0,0,0-1.4.65,3.11,3.11,0,0,0-.68,1.68v0h4v-.14a2.64,2.64,0,0,0-.47-1.6A1.73,1.73,0,0,0,377.05,161.83Z"/><path d="M386,168.52a1.91,1.91,0,0,0,1.31-.5,1.58,1.58,0,0,0,.56-1.22h1.46l0,0a2.51,2.51,0,0,1-1,2,3.78,3.78,0,0,1-5.26-.38,4.92,4.92,0,0,1-1-3.17V165a4.93,4.93,0,0,1,1-3.16,3.49,3.49,0,0,1,2.89-1.27,3.33,3.33,0,0,1,2.44.92,2.88,2.88,0,0,1,.91,2.26v0h-1.47a2,2,0,0,0-.53-1.39,1.76,1.76,0,0,0-1.34-.57,1.89,1.89,0,0,0-1.74.92,4.4,4.4,0,0,0-.54,2.24v.35a4.42,4.42,0,0,0,.54,2.26A1.86,1.86,0,0,0,386,168.52Z"/><path d="M393.49,158.58v2.14h1.68v1.2h-1.68v5.4a1.17,1.17,0,0,0,.26.88.92.92,0,0,0,.68.25l.32,0,.28-.08.23,1.11a1.36,1.36,0,0,1-.54.24,2.8,2.8,0,0,1-.7.09,2.1,2.1,0,0,1-1.57-.59,2.59,2.59,0,0,1-.58-1.87v-5.4h-1.41v-1.2h1.41v-2.14Z"/><path d="M401.11,162.15l-.83-.05a1.9,1.9,0,0,0-1.08.3,2,2,0,0,0-.67.86v6.35h-1.62v-8.89h1.44l.16,1.3a3.09,3.09,0,0,1,.93-1.08,2.17,2.17,0,0,1,1.28-.38l.35,0a1.5,1.5,0,0,1,.27.07Z"/><path d="M404.55,158.44h-1.62v-1.65h1.62Zm0,11.17h-1.62v-8.89h1.62Z"/><path d="M410.57,168.52a1.91,1.91,0,0,0,1.31-.5,1.58,1.58,0,0,0,.56-1.22h1.46l0,0a2.55,2.55,0,0,1-1,2,3.78,3.78,0,0,1-5.26-.38,4.92,4.92,0,0,1-1-3.17V165a4.88,4.88,0,0,1,1-3.16,3.47,3.47,0,0,1,2.88-1.27,3.32,3.32,0,0,1,2.44.92,2.92,2.92,0,0,1,.92,2.26l0,0h-1.47a2,2,0,0,0-.53-1.39,1.75,1.75,0,0,0-1.34-.57,1.87,1.87,0,0,0-1.73.92,4.3,4.3,0,0,0-.55,2.24v.35a4.42,4.42,0,0,0,.54,2.26A1.87,1.87,0,0,0,410.57,168.52Z"/><path d="M417.6,158.44H416v-1.65h1.62Zm0,11.17H416v-8.89h1.62Z"/><path d="M422.34,158.58v2.14H424v1.2h-1.69v5.4a1.22,1.22,0,0,0,.26.88.93.93,0,0,0,.69.25l.31,0,.29-.08.22,1.11a1.36,1.36,0,0,1-.54.24,2.72,2.72,0,0,1-.69.09,2.08,2.08,0,0,1-1.57-.59,2.59,2.59,0,0,1-.59-1.87v-5.4h-1.41v-1.2h1.41v-2.14Z"/><path d="M428.48,166.32l.29,1.11h.05l2.18-6.71h1.8L429.06,171a4.63,4.63,0,0,1-1,1.56,2.24,2.24,0,0,1-1.7.66,3.41,3.41,0,0,1-.5,0l-.47-.09.17-1.27h.29l.43,0a1,1,0,0,0,.84-.46,5,5,0,0,0,.56-1l.38-.93-3.3-8.71h1.81Z"/><path d="M438.12,165.33a6,6,0,0,1,.91-3.46,3,3,0,0,1,2.56-1.31,3.06,3.06,0,0,1,1.49.34,2.89,2.89,0,0,1,1.08,1l.2-1.16h1.29v8.94a3.41,3.41,0,0,1-1,2.63,4.09,4.09,0,0,1-2.87.91,6.49,6.49,0,0,1-1.38-.17,5.58,5.58,0,0,1-1.31-.48l.24-1.26a5,5,0,0,0,1.13.4,6,6,0,0,0,1.31.15,2.35,2.35,0,0,0,1.72-.54,2.22,2.22,0,0,0,.54-1.64v-1a2.86,2.86,0,0,1-1,.85,3.24,3.24,0,0,1-1.4.28,3.07,3.07,0,0,1-2.55-1.17,5,5,0,0,1-.91-3.11Zm1.62.17a3.78,3.78,0,0,0,.55,2.16,1.91,1.91,0,0,0,1.7.81,2.14,2.14,0,0,0,1.22-.33,2.7,2.7,0,0,0,.82-.94v-4.1a2.63,2.63,0,0,0-.82-.9,2.11,2.11,0,0,0-1.2-.33,1.85,1.85,0,0,0-1.72,1,5,5,0,0,0-.55,2.5Z"/><path d="M451.65,169.78a3.73,3.73,0,0,1-3-1.22,4.7,4.7,0,0,1-1.08-3.22V165a4.59,4.59,0,0,1,1.11-3.17,3.46,3.46,0,0,1,2.7-1.25,3.21,3.21,0,0,1,2.67,1.11,4.51,4.51,0,0,1,.89,3v.85h-5.68l0,0a3.62,3.62,0,0,0,.6,2.17,2,2,0,0,0,1.8.84,4,4,0,0,0,1.45-.24,3.23,3.23,0,0,0,1.06-.64l.63,1.05a3.76,3.76,0,0,1-1.26.78A5,5,0,0,1,451.65,169.78Zm-.25-7.95a1.76,1.76,0,0,0-1.4.65,3.11,3.11,0,0,0-.68,1.68l0,0h4v-.14a2.58,2.58,0,0,0-.48-1.6A1.73,1.73,0,0,0,451.4,161.83Z"/><path d="M458.23,160.72l.11,1.32a3.24,3.24,0,0,1,1.12-1.09,3.29,3.29,0,0,1,3.75.45A3.73,3.73,0,0,1,464,164v5.61h-1.62V164a2.41,2.41,0,0,0-.47-1.67,1.88,1.88,0,0,0-1.41-.49,2.49,2.49,0,0,0-1.27.3,2.16,2.16,0,0,0-.83.84v6.6h-1.62v-8.89Z"/><path d="M470,169.78a3.76,3.76,0,0,1-3-1.22,4.74,4.74,0,0,1-1.07-3.22V165a4.63,4.63,0,0,1,1.1-3.17,3.46,3.46,0,0,1,2.7-1.25,3.24,3.24,0,0,1,2.68,1.11,4.57,4.57,0,0,1,.89,3v.85h-5.69l0,0a3.69,3.69,0,0,0,.59,2.17,2.06,2.06,0,0,0,1.81.84,4,4,0,0,0,1.44-.24,3.13,3.13,0,0,0,1.06-.64l.64,1.05a3.87,3.87,0,0,1-1.26.78A5,5,0,0,1,470,169.78Zm-.26-7.95a1.78,1.78,0,0,0-1.4.65,3.19,3.19,0,0,0-.68,1.68l0,0h4v-.14a2.58,2.58,0,0,0-.48-1.6A1.71,1.71,0,0,0,469.77,161.83Z"/><path d="M479.36,162.15l-.83-.05a1.9,1.9,0,0,0-1.08.3,1.94,1.94,0,0,0-.67.86v6.35h-1.62v-8.89h1.44l.16,1.3a3.09,3.09,0,0,1,.93-1.08,2.17,2.17,0,0,1,1.28-.38l.34,0,.28.07Z"/><path d="M486.51,169.61c-.05-.27-.09-.5-.12-.71a6.2,6.2,0,0,1-.06-.62,3.59,3.59,0,0,1-1.18,1.07,3,3,0,0,1-1.56.43,2.89,2.89,0,0,1-2.12-.71,2.62,2.62,0,0,1-.73-2,2.29,2.29,0,0,1,1-2,4.78,4.78,0,0,1,2.79-.72h1.76v-.88a1.63,1.63,0,0,0-.47-1.23,1.86,1.86,0,0,0-1.35-.46,2,2,0,0,0-1.28.39,1.2,1.2,0,0,0-.48.95l-1.54,0v-.05a2.13,2.13,0,0,1,.9-1.78,3.77,3.77,0,0,1,2.5-.8,3.66,3.66,0,0,1,2.43.76,2.75,2.75,0,0,1,.92,2.22v4.28a9.12,9.12,0,0,0,.05.92,4.2,4.2,0,0,0,.18.87Zm-2.68-1.18a2.88,2.88,0,0,0,1.58-.45,2.14,2.14,0,0,0,.92-1v-1.45h-1.81a2.35,2.35,0,0,0-1.57.5,1.48,1.48,0,0,0-.59,1.16,1.23,1.23,0,0,0,.37.93A1.56,1.56,0,0,0,483.83,168.43Z"/><path d="M492.55,158.58v2.14h1.69v1.2h-1.69v5.4a1.22,1.22,0,0,0,.26.88.93.93,0,0,0,.69.25l.31,0,.29-.08.22,1.11a1.36,1.36,0,0,1-.54.24,2.72,2.72,0,0,1-.69.09,2.08,2.08,0,0,1-1.57-.59,2.59,2.59,0,0,1-.59-1.87v-5.4h-1.41v-1.2h1.41v-2.14Z"/><path d="M499.65,169.78a3.77,3.77,0,0,1-3-1.22,4.74,4.74,0,0,1-1.07-3.22V165a4.59,4.59,0,0,1,1.11-3.17,3.43,3.43,0,0,1,2.7-1.25,3.21,3.21,0,0,1,2.67,1.11,4.51,4.51,0,0,1,.89,3v.85h-5.68l0,0a3.69,3.69,0,0,0,.59,2.17,2.07,2.07,0,0,0,1.81.84,4,4,0,0,0,1.44-.24,3.18,3.18,0,0,0,1.07-.64l.63,1.05a3.87,3.87,0,0,1-1.26.78A5,5,0,0,1,499.65,169.78Zm-.25-7.95a1.76,1.76,0,0,0-1.4.65,3.11,3.11,0,0,0-.68,1.68v0h4v-.14a2.58,2.58,0,0,0-.48-1.6A1.73,1.73,0,0,0,499.4,161.83Z"/><path d="M504.41,165.33a6,6,0,0,1,.92-3.46,2.93,2.93,0,0,1,2.57-1.31,3.21,3.21,0,0,1,1.38.28,2.88,2.88,0,0,1,1,.84v-4.89h1.62v12.82h-1.24l-.25-1.12a3,3,0,0,1-1.07,1,3.37,3.37,0,0,1-1.49.32,3.05,3.05,0,0,1-2.55-1.17,5,5,0,0,1-.92-3.11Zm1.62.17a3.76,3.76,0,0,0,.55,2.16,1.93,1.93,0,0,0,1.71.81,2.16,2.16,0,0,0,1.22-.33,2.58,2.58,0,0,0,.8-.92v-4.15a2.43,2.43,0,0,0-.81-.87,2.1,2.1,0,0,0-1.19-.33,1.86,1.86,0,0,0-1.73,1,5,5,0,0,0-.55,2.5Z"/><path d="M281.88,189.81v-7.69H280.5v-1.2h1.38v-1.13a3,3,0,0,1,.75-2.2,2.72,2.72,0,0,1,2.07-.77,3.64,3.64,0,0,1,.57,0c.19,0,.39.07.63.13l-.2,1.23-.36-.06-.44,0a1.28,1.28,0,0,0-1,.42,1.9,1.9,0,0,0-.35,1.23v1.13h1.61v1.2H283.5v7.69Z"/><path d="M291,182.35l-.83,0a1.86,1.86,0,0,0-1.08.3,1.93,1.93,0,0,0-.68.85v6.36h-1.62v-8.89h1.45l.15,1.29a3.16,3.16,0,0,1,.93-1.07,2.2,2.2,0,0,1,1.28-.39,2,2,0,0,1,.35,0l.27.06Z"/><path d="M292.1,185.28a4.89,4.89,0,0,1,1.07-3.25,3.95,3.95,0,0,1,5.82,0,4.88,4.88,0,0,1,1.07,3.25v.18a4.81,4.81,0,0,1-1.07,3.25,4,4,0,0,1-5.82,0,4.89,4.89,0,0,1-1.07-3.25Zm1.62.18a4.26,4.26,0,0,0,.59,2.33,2.15,2.15,0,0,0,3.53,0,4.18,4.18,0,0,0,.6-2.33v-.18a4.22,4.22,0,0,0-.6-2.33,2.15,2.15,0,0,0-3.53,0,4.31,4.31,0,0,0-.59,2.33Z"/><path d="M303.49,180.92l.11,1.16a3,3,0,0,1,1.11-1,3.38,3.38,0,0,1,1.56-.35,2.76,2.76,0,0,1,1.52.41,2.55,2.55,0,0,1,1,1.23,3.38,3.38,0,0,1,1.11-1.2,3,3,0,0,1,1.61-.44,2.65,2.65,0,0,1,2.14.93,4.26,4.26,0,0,1,.79,2.81v5.32h-1.62v-5.34a3,3,0,0,0-.45-1.86,1.66,1.66,0,0,0-1.35-.54,1.72,1.72,0,0,0-1.34.57,2.54,2.54,0,0,0-.6,1.46v5.71h-1.63v-5.34a3,3,0,0,0-.46-1.82,1.61,1.61,0,0,0-1.34-.58,2.27,2.27,0,0,0-1.22.3,2,2,0,0,0-.73.85v6.59H302v-8.89Z"/><path d="M325.14,182.35l-.83,0a1.86,1.86,0,0,0-1.08.3,2,2,0,0,0-.68.85v6.36h-1.62v-8.89h1.45l.16,1.29a3.06,3.06,0,0,1,.93-1.07,2.18,2.18,0,0,1,1.28-.39,1.87,1.87,0,0,1,.34,0l.27.06Z"/><path d="M330.35,190a3.8,3.8,0,0,1-3-1.22,4.75,4.75,0,0,1-1.07-3.23v-.36A4.63,4.63,0,0,1,327.4,182a3.46,3.46,0,0,1,2.7-1.25,3.21,3.21,0,0,1,2.67,1.11,4.53,4.53,0,0,1,.89,2.95v.86H328l0,0a3.71,3.71,0,0,0,.59,2.17,2.07,2.07,0,0,0,1.81.83,4,4,0,0,0,1.44-.23,3.35,3.35,0,0,0,1.07-.64l.63,1a4,4,0,0,1-1.26.77A5,5,0,0,1,330.35,190ZM330.1,182a1.73,1.73,0,0,0-1.4.65,3,3,0,0,0-.68,1.67v0h4v-.13a2.56,2.56,0,0,0-.48-1.6A1.73,1.73,0,0,0,330.1,182Z"/><path d="M336.93,180.92l.11,1.32a3.27,3.27,0,0,1,1.12-1.1,3.29,3.29,0,0,1,3.75.45,3.74,3.74,0,0,1,.79,2.6v5.62h-1.62v-5.58a2.4,2.4,0,0,0-.47-1.67,1.84,1.84,0,0,0-1.41-.49,2.49,2.49,0,0,0-1.27.3,2.16,2.16,0,0,0-.83.84v6.6h-1.62v-8.89Z"/><path d="M348.73,190a3.77,3.77,0,0,1-3-1.22,4.75,4.75,0,0,1-1.07-3.23v-.36a4.67,4.67,0,0,1,1.1-3.17,3.49,3.49,0,0,1,2.7-1.25,3.24,3.24,0,0,1,2.68,1.11,4.59,4.59,0,0,1,.89,2.95v.86h-5.69l0,0a3.71,3.71,0,0,0,.59,2.17,2.05,2.05,0,0,0,1.81.83,4,4,0,0,0,1.44-.23,3.3,3.3,0,0,0,1.06-.64l.64,1a4,4,0,0,1-1.26.77A5,5,0,0,1,348.73,190Zm-.26-7.95a1.75,1.75,0,0,0-1.4.65,3.12,3.12,0,0,0-.68,1.67l0,0h4v-.13a2.56,2.56,0,0,0-.48-1.6A1.71,1.71,0,0,0,348.47,182Z"/><path d="M356.13,186.57l.21,1.14h.05l.21-1.14,1.77-5.65h1.3l1.79,5.65.23,1.27h.05l.26-1.27,1.31-5.65H365l-2.58,8.89h-1.31l-1.76-5.42L359,183h0l-.31,1.41-1.72,5.42h-1.31l-2.58-8.89h1.68Z"/><path d="M372.06,189.81c-.06-.27-.1-.51-.13-.71a4.44,4.44,0,0,1-.05-.62,4.06,4.06,0,0,1-1.18,1.07,3,3,0,0,1-1.57.43,2.89,2.89,0,0,1-2.11-.71,2.59,2.59,0,0,1-.73-2,2.28,2.28,0,0,1,1-2,4.82,4.82,0,0,1,2.8-.72h1.76v-.88a1.64,1.64,0,0,0-.48-1.24,1.9,1.9,0,0,0-1.35-.45,2,2,0,0,0-1.27.39,1.17,1.17,0,0,0-.49.94l-1.53,0,0,0a2.1,2.1,0,0,1,.91-1.77,3.73,3.73,0,0,1,2.49-.81,3.67,3.67,0,0,1,2.43.77,2.7,2.7,0,0,1,.92,2.21V188c0,.31,0,.62.05.92a6.72,6.72,0,0,0,.18.87Zm-2.69-1.19a2.92,2.92,0,0,0,1.59-.45,2.17,2.17,0,0,0,.92-1v-1.45h-1.82a2.38,2.38,0,0,0-1.57.49,1.48,1.48,0,0,0-.58,1.16,1.21,1.21,0,0,0,.37.94A1.53,1.53,0,0,0,369.37,188.62Z"/><path d="M383.44,185.7a4.87,4.87,0,0,1-.93,3.1A3,3,0,0,1,380,190a3.27,3.27,0,0,1-1.54-.35,2.8,2.8,0,0,1-1.08-1l-.26,1.21h-1.24V177h1.61v5a2.83,2.83,0,0,1,1-.91,3.33,3.33,0,0,1,1.45-.31,3,3,0,0,1,2.57,1.32,5.93,5.93,0,0,1,.92,3.46Zm-1.62-.17a5,5,0,0,0-.56-2.5,1.87,1.87,0,0,0-1.72-1,2.13,2.13,0,0,0-1.26.36,2.73,2.73,0,0,0-.82,1v3.86a2.76,2.76,0,0,0,.82,1,2.15,2.15,0,0,0,1.28.36,1.92,1.92,0,0,0,1.7-.81,3.75,3.75,0,0,0,.56-2.15Z"/><path d="M387.16,189.81h-1.62V177h1.62Z"/><path d="M393.33,190a3.77,3.77,0,0,1-3-1.22,4.71,4.71,0,0,1-1.08-3.23v-.36a4.63,4.63,0,0,1,1.11-3.17,3.48,3.48,0,0,1,2.7-1.25,3.21,3.21,0,0,1,2.67,1.11,4.53,4.53,0,0,1,.89,2.95v.86H391l0,0a3.64,3.64,0,0,0,.6,2.17,2,2,0,0,0,1.8.83,4,4,0,0,0,1.45-.23,3.41,3.41,0,0,0,1.06-.64l.63,1a3.92,3.92,0,0,1-1.26.77A5,5,0,0,1,393.33,190Zm-.25-7.95a1.73,1.73,0,0,0-1.4.65,3,3,0,0,0-.68,1.67l0,0h4v-.13a2.56,2.56,0,0,0-.48-1.6A1.73,1.73,0,0,0,393.08,182Z"/><path d="M406.32,190a3.77,3.77,0,0,1-3-1.22,4.71,4.71,0,0,1-1.08-3.23v-.36a4.63,4.63,0,0,1,1.11-3.17,3.49,3.49,0,0,1,2.7-1.25,3.21,3.21,0,0,1,2.67,1.11,4.54,4.54,0,0,1,.9,2.95v.86H404l0,0a3.64,3.64,0,0,0,.6,2.17,2,2,0,0,0,1.8.83,4,4,0,0,0,1.45-.23,3.41,3.41,0,0,0,1.06-.64l.63,1a3.86,3.86,0,0,1-1.25.77A5,5,0,0,1,406.32,190Zm-.25-7.95a1.73,1.73,0,0,0-1.4.65,3,3,0,0,0-.68,1.67l0,0h4v-.13a2.56,2.56,0,0,0-.48-1.6A1.73,1.73,0,0,0,406.07,182Z"/><path d="M412.9,180.92l.11,1.32a3.27,3.27,0,0,1,1.12-1.1,3.29,3.29,0,0,1,3.75.45,3.74,3.74,0,0,1,.79,2.6v5.62h-1.62v-5.58a2.4,2.4,0,0,0-.47-1.67,1.84,1.84,0,0,0-1.41-.49,2.49,2.49,0,0,0-1.27.3,2.16,2.16,0,0,0-.83.84v6.6h-1.62v-8.89Z"/><path d="M424.7,190a3.79,3.79,0,0,1-3-1.22,4.75,4.75,0,0,1-1.07-3.23v-.36a4.67,4.67,0,0,1,1.1-3.17,3.49,3.49,0,0,1,2.7-1.25,3.23,3.23,0,0,1,2.68,1.11,4.59,4.59,0,0,1,.89,2.95v.86h-5.69l0,0a3.71,3.71,0,0,0,.59,2.17,2.07,2.07,0,0,0,1.81.83,4,4,0,0,0,1.44-.23,3.35,3.35,0,0,0,1.07-.64l.63,1a4,4,0,0,1-1.26.77A5,5,0,0,1,424.7,190Zm-.26-7.95a1.75,1.75,0,0,0-1.4.65,3.12,3.12,0,0,0-.68,1.67l0,0h4v-.13a2.62,2.62,0,0,0-.47-1.6A1.74,1.74,0,0,0,424.44,182Z"/><path d="M434,182.35l-.83,0a1.9,1.9,0,0,0-1.08.3,2,2,0,0,0-.67.85v6.36h-1.62v-8.89h1.44l.16,1.29a3.06,3.06,0,0,1,.93-1.07,2.18,2.18,0,0,1,1.28-.39,2,2,0,0,1,.35,0l.27.06Z"/><path d="M435.28,185.53a5.93,5.93,0,0,1,.91-3.46,3,3,0,0,1,2.56-1.32,3.21,3.21,0,0,1,1.49.34,3.15,3.15,0,0,1,1.08,1l.19-1.15h1.29v8.94a3.39,3.39,0,0,1-1,2.62,4.09,4.09,0,0,1-2.87.92,5.82,5.82,0,0,1-1.38-.18,5.67,5.67,0,0,1-1.32-.48l.25-1.26a4.38,4.38,0,0,0,1.13.4,5.9,5.9,0,0,0,1.3.15,2.42,2.42,0,0,0,1.73-.53,2.28,2.28,0,0,0,.53-1.64v-1a2.89,2.89,0,0,1-1,.84,3.29,3.29,0,0,1-1.41.29,3,3,0,0,1-2.54-1.18,4.92,4.92,0,0,1-.91-3.1Zm1.61.17a3.83,3.83,0,0,0,.55,2.15,1.93,1.93,0,0,0,1.71.81,2.16,2.16,0,0,0,1.22-.33,2.42,2.42,0,0,0,.81-.94V183.3a2.44,2.44,0,0,0-.81-.9,2.15,2.15,0,0,0-1.21-.33,1.84,1.84,0,0,0-1.71,1,5,5,0,0,0-.56,2.5Z"/><path d="M447.85,186.51l.29,1.12h.05l2.18-6.71h1.8l-3.74,10.25a4.45,4.45,0,0,1-1,1.56,2.21,2.21,0,0,1-1.7.67,3.64,3.64,0,0,1-.5-.05l-.47-.08L445,192l.3,0,.43,0a1,1,0,0,0,.84-.46,4.27,4.27,0,0,0,.55-1l.39-.93-3.3-8.71H446Z"/><path d="M462.94,187.42a1.1,1.1,0,0,0-.4-.88A4,4,0,0,0,461,186a6.56,6.56,0,0,1-2.42-.94,1.92,1.92,0,0,1-.84-1.63,2.36,2.36,0,0,1,.93-1.86,4.08,4.08,0,0,1,4.84,0,2.38,2.38,0,0,1,.9,1.92l0,0h-1.54a1.41,1.41,0,0,0-.51-1,1.81,1.81,0,0,0-1.28-.46,1.85,1.85,0,0,0-1.28.38,1.22,1.22,0,0,0-.42.92,1,1,0,0,0,.37.82,4,4,0,0,0,1.51.52,6.5,6.5,0,0,1,2.48,1,2,2,0,0,1,.84,1.65,2.35,2.35,0,0,1-.95,1.93,4.59,4.59,0,0,1-5.19-.11,2.45,2.45,0,0,1-.92-2v0h1.55a1.49,1.49,0,0,0,.64,1.27,2.52,2.52,0,0,0,1.4.39,2.26,2.26,0,0,0,1.36-.36A1.14,1.14,0,0,0,462.94,187.42Z"/><path d="M466.2,185.28a4.84,4.84,0,0,1,1.07-3.25,3.59,3.59,0,0,1,2.9-1.28,3.63,3.63,0,0,1,2.92,1.28,4.88,4.88,0,0,1,1.07,3.25v.18a4.81,4.81,0,0,1-1.07,3.25,4,4,0,0,1-5.82,0,4.89,4.89,0,0,1-1.07-3.25Zm1.62.18a4.26,4.26,0,0,0,.59,2.33,2.15,2.15,0,0,0,3.53,0,4.18,4.18,0,0,0,.6-2.33v-.18a4.22,4.22,0,0,0-.6-2.33,2.15,2.15,0,0,0-3.53,0,4.31,4.31,0,0,0-.59,2.33Z"/><path d="M481.79,188.49a2.9,2.9,0,0,1-2.6,1.49,2.85,2.85,0,0,1-2.27-.93,4.32,4.32,0,0,1-.81-2.89v-5.24h1.62v5.26a3.31,3.31,0,0,0,.42,1.95,1.53,1.53,0,0,0,1.3.53,2.7,2.7,0,0,0,1.43-.34,2.28,2.28,0,0,0,.85-1v-6.41h1.62v8.89h-1.46Z"/><path d="M489.91,182.35l-.83,0a1.9,1.9,0,0,0-1.08.3,2,2,0,0,0-.67.85v6.36h-1.62v-8.89h1.44l.16,1.29a3.06,3.06,0,0,1,.93-1.07,2.18,2.18,0,0,1,1.28-.39,1.79,1.79,0,0,1,.34,0l.28.06Z"/><path d="M495,188.71a1.9,1.9,0,0,0,1.3-.49,1.55,1.55,0,0,0,.56-1.22h1.46l0,.05a2.57,2.57,0,0,1-1,2,3.77,3.77,0,0,1-5.26-.38,4.93,4.93,0,0,1-1-3.18v-.34a4.9,4.9,0,0,1,1-3.16,3.49,3.49,0,0,1,2.89-1.28,3.35,3.35,0,0,1,2.43.92,2.92,2.92,0,0,1,.92,2.26l0,0h-1.47a2,2,0,0,0-.53-1.38A1.74,1.74,0,0,0,495,182a1.85,1.85,0,0,0-1.74.92,4.28,4.28,0,0,0-.55,2.24v.34a4.37,4.37,0,0,0,.54,2.26A1.86,1.86,0,0,0,495,188.71Z"/><path d="M503.93,190a3.77,3.77,0,0,1-3-1.22,4.71,4.71,0,0,1-1.08-3.23v-.36A4.63,4.63,0,0,1,501,182a3.49,3.49,0,0,1,2.7-1.25,3.21,3.21,0,0,1,2.67,1.11,4.53,4.53,0,0,1,.89,2.95v.86h-5.68l0,0a3.64,3.64,0,0,0,.6,2.17,2,2,0,0,0,1.8.83,4,4,0,0,0,1.45-.23,3.41,3.41,0,0,0,1.06-.64l.63,1a4,4,0,0,1-1.25.77A5.08,5.08,0,0,1,503.93,190Zm-.25-7.95a1.73,1.73,0,0,0-1.4.65,3,3,0,0,0-.68,1.67l0,0h4v-.13a2.56,2.56,0,0,0-.48-1.6A1.73,1.73,0,0,0,503.68,182Z"/><path d="M514.23,187.42a1.1,1.1,0,0,0-.41-.88,4,4,0,0,0-1.54-.59,6.51,6.51,0,0,1-2.41-.94,1.92,1.92,0,0,1-.84-1.63,2.38,2.38,0,0,1,.92-1.86,4.1,4.1,0,0,1,4.85,0,2.37,2.37,0,0,1,.89,1.92v0h-1.55a1.43,1.43,0,0,0-.5-1,2.16,2.16,0,0,0-2.56-.08,1.22,1.22,0,0,0-.42.92,1,1,0,0,0,.36.82,4.2,4.2,0,0,0,1.51.52,6.36,6.36,0,0,1,2.48,1,2,2,0,0,1,.85,1.65,2.34,2.34,0,0,1-1,1.93,4.57,4.57,0,0,1-5.18-.11,2.49,2.49,0,0,1-.93-2l0,0h1.54a1.52,1.52,0,0,0,.64,1.27,2.53,2.53,0,0,0,1.41.39,2.23,2.23,0,0,0,1.35-.36A1.12,1.12,0,0,0,514.23,187.42Z"/><path d="M278.52,199v2.14h1.68v1.2h-1.68v5.4a1.22,1.22,0,0,0,.26.88.93.93,0,0,0,.69.25l.31,0,.29-.08.22,1.11a1.36,1.36,0,0,1-.54.24,2.82,2.82,0,0,1-.7.1,2.06,2.06,0,0,1-1.56-.6,2.59,2.59,0,0,1-.59-1.87v-5.4h-1.41v-1.2h1.41V199Z"/><path d="M283.56,202.3a3.28,3.28,0,0,1,1.13-1,3.17,3.17,0,0,1,1.48-.35,2.88,2.88,0,0,1,2.22.85,3.81,3.81,0,0,1,.79,2.63V210h-1.62v-5.58a2.4,2.4,0,0,0-.47-1.63,1.82,1.82,0,0,0-1.41-.53,2.66,2.66,0,0,0-1.26.29,2.18,2.18,0,0,0-.86.79V210h-1.62V197.18h1.62Z"/><path d="M295.71,202.54l-.83,0a1.79,1.79,0,0,0-1.08.31,1.94,1.94,0,0,0-.68.85V210H291.5v-8.89H293l.16,1.3a3.09,3.09,0,0,1,.93-1.08,2.22,2.22,0,0,1,1.28-.38,1.87,1.87,0,0,1,.34,0l.27.06Z"/><path d="M296.85,205.48a4.94,4.94,0,0,1,1.07-3.26,4,4,0,0,1,5.82,0,4.86,4.86,0,0,1,1.08,3.26v.18a4.88,4.88,0,0,1-1.07,3.25,4,4,0,0,1-5.82,0,4.85,4.85,0,0,1-1.08-3.25Zm1.62.18a4.18,4.18,0,0,0,.6,2.33,2.15,2.15,0,0,0,3.53,0,4.18,4.18,0,0,0,.6-2.33v-.18a4.12,4.12,0,0,0-.61-2.33,2,2,0,0,0-1.77-.93,2,2,0,0,0-1.75.93,4.2,4.2,0,0,0-.6,2.33Z"/><path d="M312.44,208.69a3.14,3.14,0,0,1-1.07,1.1,2.94,2.94,0,0,1-1.52.39,2.85,2.85,0,0,1-2.27-.93,4.29,4.29,0,0,1-.82-2.9v-5.24h1.62v5.26a3.32,3.32,0,0,0,.42,2,1.58,1.58,0,0,0,1.31.53,2.67,2.67,0,0,0,1.42-.35,2.12,2.12,0,0,0,.85-1v-6.41H314V210h-1.45Z"/><path d="M316.07,205.72a6,6,0,0,1,.92-3.46,3,3,0,0,1,2.56-1.31,3.12,3.12,0,0,1,1.49.34,2.94,2.94,0,0,1,1.07,1l.2-1.16h1.29v8.94a3.41,3.41,0,0,1-1,2.63,4.09,4.09,0,0,1-2.87.91,5.78,5.78,0,0,1-1.38-.17,5.67,5.67,0,0,1-1.32-.48l.25-1.26a4.79,4.79,0,0,0,1.13.4,5.9,5.9,0,0,0,1.3.15,2.38,2.38,0,0,0,1.73-.54,2.26,2.26,0,0,0,.53-1.64v-1a2.92,2.92,0,0,1-1,.85,3.29,3.29,0,0,1-1.41.29A3.06,3.06,0,0,1,317,209a4.94,4.94,0,0,1-.92-3.11Zm1.62.17a3.86,3.86,0,0,0,.55,2.16,1.93,1.93,0,0,0,1.71.81,2.16,2.16,0,0,0,1.22-.33,2.5,2.5,0,0,0,.81-.94v-4.1a2.6,2.6,0,0,0-.81-.9,2.15,2.15,0,0,0-1.21-.33,1.84,1.84,0,0,0-1.71,1,5,5,0,0,0-.56,2.5Z"/><path d="M327.55,202.3a3.28,3.28,0,0,1,1.13-1,3.17,3.17,0,0,1,1.48-.35,2.84,2.84,0,0,1,2.21.85,3.76,3.76,0,0,1,.8,2.63V210h-1.62v-5.58a2.4,2.4,0,0,0-.47-1.63,1.82,1.82,0,0,0-1.41-.53,2.63,2.63,0,0,0-1.26.29,2.18,2.18,0,0,0-.86.79V210h-1.62V197.18h1.62Z"/><path d="M341.93,199v2.14h1.68v1.2h-1.68v5.4a1.17,1.17,0,0,0,.26.88.92.92,0,0,0,.68.25l.31,0a2.24,2.24,0,0,0,.29-.08l.22,1.11a1.31,1.31,0,0,1-.53.24,2.88,2.88,0,0,1-.7.1,2.09,2.09,0,0,1-1.57-.6,2.59,2.59,0,0,1-.58-1.87v-5.4H338.9v-1.2h1.41V199Z"/><path d="M347,202.3a3.48,3.48,0,0,1,1.13-1,3.24,3.24,0,0,1,1.49-.35,2.86,2.86,0,0,1,2.21.85,3.76,3.76,0,0,1,.8,2.63V210H351v-5.58a2.35,2.35,0,0,0-.48-1.63,1.79,1.79,0,0,0-1.41-.53,2.59,2.59,0,0,0-1.25.29,2.21,2.21,0,0,0-.87.79V210h-1.61V197.18H347Z"/><path d="M358.59,210.18a3.74,3.74,0,0,1-3-1.23,4.7,4.7,0,0,1-1.08-3.22v-.36a4.61,4.61,0,0,1,1.11-3.17,3.48,3.48,0,0,1,2.7-1.25,3.21,3.21,0,0,1,2.67,1.11,4.53,4.53,0,0,1,.89,2.95v.85h-5.68l0,0a3.72,3.72,0,0,0,.59,2.18,2.09,2.09,0,0,0,1.81.83,4.18,4.18,0,0,0,1.44-.23,3.37,3.37,0,0,0,1.07-.65l.63,1.05a3.87,3.87,0,0,1-1.26.78A5,5,0,0,1,358.59,210.18Zm-.25-8a1.76,1.76,0,0,0-1.4.65,3.11,3.11,0,0,0-.68,1.68l0,0h4v-.13a2.61,2.61,0,0,0-.48-1.61A1.73,1.73,0,0,0,358.34,202.22Z"/><path d="M377,198V206a3.88,3.88,0,0,1-1.28,3.09,4.88,4.88,0,0,1-3.3,1.11,4.6,4.6,0,0,1-3.19-1.12,3.91,3.91,0,0,1-1.24-3.08V198h1.62V206a2.88,2.88,0,0,0,.78,2.15,2.75,2.75,0,0,0,2,.78,3,3,0,0,0,2.14-.78,2.79,2.79,0,0,0,.82-2.15V198Z"/><path d="M388.56,210h-1.62l-5.76-9.13h-.05V210h-1.61V198h1.61l5.76,9.13.05,0V198h1.62Z"/><path d="M392.91,199.62l-.83,2.85h-.8V198h1.62Z"/><path d="M400.21,207.61a1.1,1.1,0,0,0-.41-.87,4,4,0,0,0-1.54-.59,6.43,6.43,0,0,1-2.41-1,1.89,1.89,0,0,1-.84-1.62,2.32,2.32,0,0,1,.92-1.86,4.08,4.08,0,0,1,4.84.05,2.34,2.34,0,0,1,.9,1.91l0,0h-1.54a1.39,1.39,0,0,0-.51-1,1.8,1.8,0,0,0-1.28-.47,1.82,1.82,0,0,0-1.27.39,1.2,1.2,0,0,0-.43.92,1,1,0,0,0,.37.81,4.08,4.08,0,0,0,1.51.53,6.43,6.43,0,0,1,2.48,1,2,2,0,0,1,.85,1.66,2.34,2.34,0,0,1-1,1.93,3.94,3.94,0,0,1-2.5.75,3.88,3.88,0,0,1-2.68-.87,2.43,2.43,0,0,1-.93-2l0-.05h1.54a1.49,1.49,0,0,0,.64,1.26,2.46,2.46,0,0,0,1.41.4,2.19,2.19,0,0,0,1.35-.37A1.12,1.12,0,0,0,400.21,207.61Z"/><path d="M414.18,207.76h.05l3.82-9.72h2v12h-1.62v-9h-.05l-3.62,9h-1.13l-3.73-9.27h-.05V210h-1.62V198h2.13Z"/><path d="M431,199.31h-3.94V210h-1.62V199.31h-3.9V198H431Z"/><path d="M434.31,204.82V210h-1.62V198.05h4.09a4.55,4.55,0,0,1,3,.87,3.12,3.12,0,0,1,1,2.53,2.7,2.7,0,0,1-.48,1.6,3.25,3.25,0,0,1-1.4,1.09,2.42,2.42,0,0,1,1.41,1,3.34,3.34,0,0,1,.44,1.77v1.13a3.81,3.81,0,0,0,.12,1,1.46,1.46,0,0,0,.43.73V210h-1.67a1.29,1.29,0,0,1-.41-.82,6.77,6.77,0,0,1-.09-1.12V207a2.14,2.14,0,0,0-.57-1.56,2,2,0,0,0-1.52-.59Zm0-1.28h2.31a3,3,0,0,0,2-.52,2,2,0,0,0,.6-1.59,2,2,0,0,0-.59-1.56,2.59,2.59,0,0,0-1.83-.56h-2.47Z"/><path d="M449.93,204.46H445v4.28h5.75V210H443.4V198h7.28v1.27H445v3.87h4.91Z"/><path d="M456.05,203.2a1.89,1.89,0,0,0,1.53-.54,2.29,2.29,0,0,0,.45-1.51,2.16,2.16,0,0,0-.49-1.46,1.83,1.83,0,0,0-1.45-.55,2.14,2.14,0,0,0-1.55.58,1.9,1.9,0,0,0-.61,1.45h-1.55l0,0a2.85,2.85,0,0,1,1-2.3,3.91,3.91,0,0,1,2.72-.95,3.79,3.79,0,0,1,2.61.84,3.15,3.15,0,0,1,.95,2.48,2.81,2.81,0,0,1-.44,1.52,3.08,3.08,0,0,1-1.23,1.08,2.8,2.8,0,0,1,1.37,1.1,3.18,3.18,0,0,1,.48,1.78,3.29,3.29,0,0,1-1,2.57,3.93,3.93,0,0,1-2.7.94,4.26,4.26,0,0,1-2.69-.9,2.78,2.78,0,0,1-1.13-2.38l0-.05h1.55a1.91,1.91,0,0,0,.62,1.46,2.26,2.26,0,0,0,1.63.6,2,2,0,0,0,1.55-.61,2.25,2.25,0,0,0,.57-1.6,2.46,2.46,0,0,0-.52-1.69,2.17,2.17,0,0,0-1.64-.55h-1.34V203.2Z"/><path d="M473.7,205.89a4.94,4.94,0,0,1-.92,3.11,3.07,3.07,0,0,1-2.54,1.18,3.56,3.56,0,0,1-1.44-.28,2.67,2.67,0,0,1-1.06-.83v4.35h-1.62V201.11h1.24l.26,1.15a3,3,0,0,1,1.08-1,3.29,3.29,0,0,1,1.51-.33,2.93,2.93,0,0,1,2.57,1.31,5.93,5.93,0,0,1,.92,3.46Zm-1.62-.17a4.65,4.65,0,0,0-.6-2.48,1.92,1.92,0,0,0-1.75-1,2.16,2.16,0,0,0-1.19.32,2.32,2.32,0,0,0-.8.87v4.29a2.22,2.22,0,0,0,.8.86,2.19,2.19,0,0,0,1.2.31,2,2,0,0,0,1.75-.84,3.74,3.74,0,0,0,.59-2.18Z"/><path d="M479.89,202.54l-.83,0a1.83,1.83,0,0,0-1.08.31,1.94,1.94,0,0,0-.68.85V210h-1.61v-8.89h1.44l.16,1.3a3.09,3.09,0,0,1,.93-1.08,2.24,2.24,0,0,1,1.28-.38,1.87,1.87,0,0,1,.34,0l.27.06Z"/><path d="M481,205.48a4.93,4.93,0,0,1,1.06-3.26,4,4,0,0,1,5.83,0,4.9,4.9,0,0,1,1.07,3.26v.18a4.88,4.88,0,0,1-1.07,3.25,4,4,0,0,1-5.82,0,4.84,4.84,0,0,1-1.07-3.25Zm1.62.18a4.18,4.18,0,0,0,.59,2.33,2.15,2.15,0,0,0,3.53,0,4.18,4.18,0,0,0,.6-2.33v-.18a4.2,4.2,0,0,0-.6-2.33,2,2,0,0,0-1.77-.93,2,2,0,0,0-1.76.93,4.2,4.2,0,0,0-.59,2.33Z"/><path d="M492.85,201.11v9.62a3,3,0,0,1-.71,2.12,2.57,2.57,0,0,1-2,.74,3.23,3.23,0,0,1-.46,0c-.14,0-.29-.06-.45-.11l.12-1.28a1.4,1.4,0,0,0,.33.07l.35,0a1.08,1.08,0,0,0,.85-.36,1.77,1.77,0,0,0,.32-1.18v-9.62Zm-.05-2.31h-1.62v-1.62h1.62Z"/><path d="M499,210.18a3.75,3.75,0,0,1-3-1.23,4.69,4.69,0,0,1-1.07-3.22v-.36a4.6,4.6,0,0,1,1.1-3.17,3.49,3.49,0,0,1,2.7-1.25,3.24,3.24,0,0,1,2.68,1.11,4.59,4.59,0,0,1,.89,2.95v.85h-5.69l0,0a3.65,3.65,0,0,0,.59,2.18,2.07,2.07,0,0,0,1.81.83,4.26,4.26,0,0,0,1.44-.23,3.32,3.32,0,0,0,1.06-.65l.64,1.05a3.87,3.87,0,0,1-1.26.78A5,5,0,0,1,499,210.18Zm-.26-8a1.78,1.78,0,0,0-1.4.65,3.11,3.11,0,0,0-.68,1.68l0,0h4v-.13a2.61,2.61,0,0,0-.48-1.61A1.73,1.73,0,0,0,498.76,202.22Z"/><path d="M507.68,208.91a1.89,1.89,0,0,0,1.3-.5,1.55,1.55,0,0,0,.56-1.22H511l0,.05a2.55,2.55,0,0,1-1,2,3.45,3.45,0,0,1-2.36.9,3.51,3.51,0,0,1-2.9-1.28,5,5,0,0,1-1-3.17v-.35a4.93,4.93,0,0,1,1-3.16,3.48,3.48,0,0,1,2.89-1.27,3.31,3.31,0,0,1,2.43.92,2.89,2.89,0,0,1,.92,2.26l0,.05h-1.47a1.93,1.93,0,0,0-.53-1.39,1.74,1.74,0,0,0-1.33-.57,1.86,1.86,0,0,0-1.74.93,4.24,4.24,0,0,0-.55,2.23v.35a4.4,4.4,0,0,0,.54,2.26A1.88,1.88,0,0,0,507.68,208.91Z"/><path d="M515.2,199v2.14h1.69v1.2H515.2v5.4a1.22,1.22,0,0,0,.26.88,1,1,0,0,0,.69.25l.31,0,.29-.08.22,1.11a1.38,1.38,0,0,1-.53.24,2.88,2.88,0,0,1-.7.1,2.09,2.09,0,0,1-1.57-.6,2.59,2.59,0,0,1-.58-1.87v-5.4h-1.42v-1.2h1.42V199Z"/><path class="cls-1" d="M369.94,101.66a4.44,4.44,0,0,1,1.91,1.6,4.78,4.78,0,0,1,0,4.88,4.31,4.31,0,0,1-1.91,1.6,7.16,7.16,0,0,1-2.93.55h-2.56v3.5h-2.93V101.1H367A7.16,7.16,0,0,1,369.94,101.66Zm-1.08,5.67a2.27,2.27,0,0,0,0-3.26,3,3,0,0,0-2-.58h-2.4v4.41h2.4A3.09,3.09,0,0,0,368.86,107.33Z"/><path class="cls-1" d="M384.43,111.43v2.36H374.6V101.1h9.59v2.36h-6.67v2.75h5.89v2.29h-5.89v2.93Z"/><path class="cls-1" d="M389.31,113.15a6.28,6.28,0,0,1-2.48-2.34,6.74,6.74,0,0,1,0-6.73,6.28,6.28,0,0,1,2.48-2.34,7.78,7.78,0,0,1,7.11,0,6.45,6.45,0,0,1,0,11.41,7.78,7.78,0,0,1-7.11,0ZM394.9,111a3.71,3.71,0,0,0,1.42-1.44,4.52,4.52,0,0,0,0-4.21,3.71,3.71,0,0,0-1.42-1.44,4.3,4.3,0,0,0-4.06,0,3.78,3.78,0,0,0-1.42,1.44,4.52,4.52,0,0,0,0,4.21,3.78,3.78,0,0,0,1.42,1.44,4.22,4.22,0,0,0,4.06,0Z"/><path class="cls-1" d="M410.44,101.66a4.55,4.55,0,0,1,1.92,6.48,4.28,4.28,0,0,1-1.92,1.6,7.08,7.08,0,0,1-2.92.55H405v3.5H402V101.1h5.5A7.07,7.07,0,0,1,410.44,101.66Zm-1.08,5.67a2.27,2.27,0,0,0,0-3.26,3,3,0,0,0-2-.58H405v4.41h2.39A3.05,3.05,0,0,0,409.36,107.33Z"/><path class="cls-1" d="M415.11,101.1h2.94v10.3h6.36v2.39h-9.3Z"/><path class="cls-1" d="M435.88,111.43v2.36h-9.82V101.1h9.59v2.36H429v2.75h5.89v2.29H429v2.93Z"/><path class="cls-1" d="M325.58,65.37a9.64,9.64,0,0,1,3.47,7.77,10.85,10.85,0,0,1-1.58,5.74A11.08,11.08,0,0,1,322.68,83a18.32,18.32,0,0,1-7.95,1.55,27.09,27.09,0,0,1-7.16-1,18.47,18.47,0,0,1-6-2.73l3.14-6.1a15.44,15.44,0,0,0,4.53,2.29,17.3,17.3,0,0,0,5.26.81,8.34,8.34,0,0,0,4.73-1.18,3.8,3.8,0,0,0,1.72-3.3,3.68,3.68,0,0,0-1.8-3.34c-1.19-.76-3.27-1.14-6.22-1.14h-8.81l1.77-19.38h21v6.4H312.57L312,62.47h2.81Q322.11,62.47,325.58,65.37Z"/><path class="cls-1" d="M354.87,63.7a10.43,10.43,0,0,1,4.28,3.76,10.16,10.16,0,0,1,1.58,5.64A10.73,10.73,0,0,1,359,79.15a11.28,11.28,0,0,1-4.69,4,15.42,15.42,0,0,1-6.62,1.4q-7.23,0-11.31-4.43t-4.09-12.64a21.14,21.14,0,0,1,2.22-10,15,15,0,0,1,6.17-6.34,18.76,18.76,0,0,1,9.18-2.17,22.32,22.32,0,0,1,5.28.62,14.28,14.28,0,0,1,4.31,1.74l-2.95,5.86a11.31,11.31,0,0,0-6.45-1.73A9.41,9.41,0,0,0,343.11,58c-1.7,1.71-2.62,4.18-2.75,7.43q3-3,8.51-3.05A13.35,13.35,0,0,1,354.87,63.7ZM351.4,77.23a5.19,5.19,0,0,0,0-7.5,6.18,6.18,0,0,0-4.25-1.41,6.32,6.32,0,0,0-4.28,1.45,5,5,0,0,0-.05,7.41,6.48,6.48,0,0,0,4.43,1.42A6.11,6.11,0,0,0,351.4,77.23Z"/><path class="cls-1" d="M387.05,53.34q4.08,4.41,4.08,12.67a21.41,21.41,0,0,1-2.19,10,14.93,14.93,0,0,1-6.17,6.34,18.92,18.92,0,0,1-9.2,2.17,22.11,22.11,0,0,1-5.27-.62A14.3,14.3,0,0,1,364,82.2l3-5.86a11.16,11.16,0,0,0,6.45,1.72,9.34,9.34,0,0,0,6.94-2.58q2.55-2.58,2.75-7.45c-2.07,2.06-4.92,3.1-8.56,3.1a13.48,13.48,0,0,1-6-1.33A10.5,10.5,0,0,1,364.27,66a10.16,10.16,0,0,1-1.57-5.64,10.72,10.72,0,0,1,1.72-6,11.21,11.21,0,0,1,4.69-4,15.42,15.42,0,0,1,6.62-1.4Q383,48.94,387.05,53.34Zm-6.47,10.38a5,5,0,0,0,.05-7.4,6.41,6.41,0,0,0-4.41-1.43,6.12,6.12,0,0,0-4.15,1.38,4.68,4.68,0,0,0-1.6,3.74,4.73,4.73,0,0,0,1.6,3.76,7.07,7.07,0,0,0,8.51-.05Z"/><path class="cls-1" d="M402.3,76.12a4.6,4.6,0,0,1,1.33,3.42,8.31,8.31,0,0,1-.25,2,24.53,24.53,0,0,1-1.08,2.95l-2.81,7.08h-4.87l2.17-7.82a4.08,4.08,0,0,1-2-1.6,4.71,4.71,0,0,1-.71-2.58,4.54,4.54,0,0,1,1.35-3.42,4.75,4.75,0,0,1,3.42-1.3A4.65,4.65,0,0,1,402.3,76.12Z"/><path class="cls-1" d="M430.73,66.92a9.29,9.29,0,0,1,2.41,6.52A10.24,10.24,0,0,1,431.57,79a10.92,10.92,0,0,1-4.8,4.06,18.33,18.33,0,0,1-7.9,1.53,27,27,0,0,1-7.15-1,18.43,18.43,0,0,1-6-2.73l3.1-6.1a15.31,15.31,0,0,0,4.55,2.29,17.54,17.54,0,0,0,5.29.81,8.38,8.38,0,0,0,4.72-1.16,3.71,3.71,0,0,0,1.72-3.27q0-4.23-6.44-4.23H415V63.94l7.08-8H407.46v-6.4h24.11V54.7l-7.78,8.85A11.62,11.62,0,0,1,430.73,66.92Z"/><path class="cls-1" d="M463.35,49.53V54.7L450.56,84H441.9L454.25,56H442.83v5.61h-7.08V49.53Z"/><path class="cls-1" d="M495.23,76.74h-5.61V84h-7.78V76.74H463.3V71.37l16.23-21.84h8.37L472.84,70.24h9.25V63.8h7.53v6.44h5.61Z"/><rect class="cls-1" x="47.33" y="44.72" width="160.57" height="160.57" transform="translate(125.77 -53.63) rotate(45)"/><g class="cls-2"><path class="cls-3" d="M127.62,227l-102-102,102-102,102,102ZM28.78,125l98.84,98.84L226.45,125,127.62,26.16Zm98.84,89-34-34,26-26L94.37,128.73l-17.9,17.9L88.3,158.47l4.9-4.91-6.93-6.93,8.1-8.1L109.81,154,88.68,175.09,58.92,145.33,79.25,125,58.92,104.67,88.68,74.91,109.81,96,94.37,111.47l-8.1-8.11,6.93-6.92-4.9-4.91L76.47,103.36l17.9,17.91L119.61,96l-26-26,34-34,34,34-26,26,25.23,25.23,17.91-17.91L166.94,91.53,162,96.44l6.93,6.92-8.11,8.11L145.43,96l21.13-21.13,29.76,29.76L176,125l20.34,20.33-29.76,29.76L145.43,154l15.43-15.43,8.11,8.1L162,153.56l4.9,4.91,11.83-11.84-17.91-17.9L135.63,154l26,26ZM96.73,180l30.89,30.89L158.51,180l-26-26,28.39-28.38,21.06,21-15,15-8.05-8.06,6.93-6.93-5-4.95L148.58,154l18,18,26.61-26.61L172.83,125l20.34-20.33L166.56,78.06l-18,18,12.28,12.28,5-5-6.93-6.92,8.05-8.06,15,15-21.06,21.06L132.47,96l26-26L127.62,39.12,96.73,70l26,26L94.37,124.42,73.31,103.36l15-15,8,8.06-6.93,6.92,5,5L106.65,96l-18-18L62.07,104.67,82.4,125,62.07,145.33l26.61,26.61,18-18L94.37,141.68l-5,4.95,6.93,6.93-8,8.06-15-15,21.06-21L122.76,154Zm104.49-39.56L185.79,125l15.43-15.43L216.65,125ZM188.94,125l12.28,12.28L213.5,125l-12.28-12.28ZM54,140.43,38.58,125,54,109.57,69.45,125ZM41.74,125,54,137.28,66.3,125,54,112.72Z"/><path class="cls-3" d="M127.62,203.52l-23.88-23.88,23.88-23.88,23.88,23.88Zm-20.73-23.88,20.73,20.73,20.73-20.73-20.73-20.73Z"/><path class="cls-3" d="M127.62,93.58,103.74,69.7l23.88-23.88L151.5,69.7ZM106.89,69.7l20.73,20.73L148.35,69.7,127.62,49Z"/></g><polygon class="cls-4" points="14.65 125 127.73 238.07 526.85 238.07 639.92 125 526.85 11.93 127.73 11.93 14.65 125"/><path class="cls-3" d="M160.59,148.2c-1.63,0-3.26,0-4.89,0a5.74,5.74,0,0,1-5.81-4.22,14.15,14.15,0,0,1,0-7.08,5.78,5.78,0,0,1,6.27-4.13,5.86,5.86,0,0,1,5.22,5.32c.11,1.34,0,2.69.07,4a1.43,1.43,0,1,0,2.86,0c0-1.43.05-2.87-.06-4.29A8.78,8.78,0,0,0,147,136.46a22.1,22.1,0,0,0-.3,4.94,9.14,9.14,0,0,0,2.22,6.69s0,.09,0,.16a10.27,10.27,0,0,0-7.33,4.75c-.07-.08-.14-.12-.19-.19a10.1,10.1,0,0,0-9.09-4.62c-1.52,0-3,0-4.55,0a5.92,5.92,0,0,1-6-6.12c0-1.15,0-2.3,0-3.45a5.92,5.92,0,0,1,11.83,0c0,1.12,0,2.24,0,3.37s.57,1.72,1.43,1.73,1.44-.63,1.44-1.69,0-2.36,0-3.54a8.61,8.61,0,0,0-3.33-6.7c-.32-.27-.67-.5-1-.77A6.78,6.78,0,0,1,136,129.7c1.79,0,3.59,0,5.39,0a8.77,8.77,0,0,0,8.8-7.31,25.54,25.54,0,0,0,.11-5.46,8.63,8.63,0,0,0-6.68-8.17,1.08,1.08,0,0,1-.92-1,9.85,9.85,0,0,0-5.79-6.78,14.9,14.9,0,0,0-2.65-.76c1.89-3,2.21-3.86,2.23-6.31,0-1.21,0-2.42,0-3.63a8.82,8.82,0,0,0-6.36-8.11c-.41-.12-.87,0-1.24-.33h-2.69c-.53.21-1.1.14-1.64.33a9,9,0,0,0-5.84,8.3c0,1.23,0,2.47,0,3.7a9,9,0,0,0,1.59,5.24c.43.65.43.66-.33.85a8.26,8.26,0,0,0-2.93,1.24,1.61,1.61,0,0,0-.62,1.93,1.65,1.65,0,0,0,1.92,1,2.77,2.77,0,0,0,.78-.31,6.79,6.79,0,0,1,3.31-.84c3.51,0,7,0,10.53,0a6.73,6.73,0,0,1,6.42,4.23c.28.59.21.89-.47,1.1a9,9,0,0,0-6.38,9c.06,1,0,1.91,0,2.86a8.8,8.8,0,0,0,1.65,5.55c.33.46.27.66-.29.79a9.48,9.48,0,0,0-4.11,2,3.26,3.26,0,0,1-2.31.77,8.91,8.91,0,0,0-8.76,8.78c0,1.29,0,2.58,0,3.87a8.66,8.66,0,0,0,1.49,4.92c.52.82.53.8-.38,1.06a10,10,0,0,0-5.45,3.6c-.52.69-.59.67-1.16-.05a9.8,9.8,0,0,0-7.81-3.83,50.09,50.09,0,0,1-6.48-.17,5.62,5.62,0,0,1-4.59-4.27,15.23,15.23,0,0,1,0-6.27,5.35,5.35,0,0,1,3.78-4.07,5.71,5.71,0,0,1,7.44,5.42c0,1.13,0,2.25,0,3.37a1.69,1.69,0,0,0,.29,1.12,1.6,1.6,0,0,0,1.69.69,1.76,1.76,0,0,0,1.31-1.59c.07-1.09,0-2.19,0-3.28a9.05,9.05,0,0,0-3.64-7.52c-.47-.36-.45-.59.07-.81a7.16,7.16,0,0,1,2.84-.7c1.83,0,3.65,0,5.48,0a9.2,9.2,0,0,0,8.91-7.43,25.53,25.53,0,0,0,.15-4.79,9,9,0,0,0-6.64-9.16,1.24,1.24,0,0,1-.94-.93,10,10,0,0,0-7.66-7.38c-.68-.16-.6-.38-.26-.81a8.43,8.43,0,0,0,1.55-3.86,40.06,40.06,0,0,0,.14-4.38c.23-4.2-2.86-9-7.82-9.34H98.66a13.18,13.18,0,0,0-2,.34,8.94,8.94,0,0,0-5.86,7.48c-.15,1,0,1.95-.08,2.93a10.09,10.09,0,0,0,1.53,6.67c.55.82.55.8-.43,1.07a10.23,10.23,0,0,0-5.21,3.38A8.89,8.89,0,0,0,84.51,109V119.1c.34,1,.8,1.33,1.69,1.2a1.59,1.59,0,0,0,1.39-1.64c0-.28,0-.56,0-.84,0-2.47,0-4.94,0-7.41a7,7,0,0,1,7.11-7.09c3.51,0,7,0,10.53,0a6.5,6.5,0,0,1,6,3.68c.68,1.32.67,1.32-.76,1.81a8.93,8.93,0,0,0-5.82,8.11,25.25,25.25,0,0,1,0,2.61,9.33,9.33,0,0,0,1.64,6.54c.39.52.24.67-.33.8a9.32,9.32,0,0,0-4.09,2.08,2.84,2.84,0,0,1-2,.71,9,9,0,0,0-9,8c-.09.74.07,1.46,0,2.18a10.65,10.65,0,0,0,1.89,8,.18.18,0,0,1,0,.21c-4.48,1.22-7.48,3.83-8.2,8.61v10.45c.42.68.95,1.22,1.84.94s1.05-1,1-1.81c0-2.58,0-5.17,0-7.75a7.15,7.15,0,0,1,7.34-7.43c3.4,0,6.8,0,10.2,0a7.14,7.14,0,0,1,7.39,7.46c0,2.61,0,5.22,0,7.84,0,1.1.57,1.78,1.47,1.76s1.39-.67,1.39-1.76c0-2.61,0-5.22,0-7.83a7.16,7.16,0,0,1,7.47-7.47q5,0,10,0a7.16,7.16,0,0,1,7.44,7.51c0,2.58,0,5.16,0,7.75,0,1.13.54,1.8,1.43,1.8s1.44-.68,1.44-1.8c0-2.61,0-5.22,0-7.84a7.15,7.15,0,0,1,7.35-7.42c3.4,0,6.8,0,10.19,0a7.15,7.15,0,0,1,7.39,7.47c0,2.61,0,5.22,0,7.83,0,1.09.52,1.73,1.39,1.75s1.47-.65,1.48-1.75v-7.92A10.06,10.06,0,0,0,160.59,148.2ZM133.41,95.65a5.92,5.92,0,0,1-11.67-1.22c0-1.32,0-2.63,0-4a5.91,5.91,0,0,1,11.82,0c0,.67,0,1.34,0,2.31A14.29,14.29,0,0,1,133.41,95.65ZM135.72,116a5.9,5.9,0,0,1,11.67,1c0,.7,0,1.4,0,2.1a14.8,14.8,0,0,1-.17,3.26,5.92,5.92,0,0,1-11.65-1.4A24.09,24.09,0,0,1,135.72,116Zm-30-23.3a18.77,18.77,0,0,1-.1,2.61,6,6,0,0,1-6.05,4.89,5.89,5.89,0,0,1-5.67-5.4,27.53,27.53,0,0,1,0-4.63,5.92,5.92,0,0,1,11.82.35C105.74,91.16,105.72,91.8,105.72,92.69Zm2.19,23a5.91,5.91,0,0,1,11.63,1.32,23.59,23.59,0,0,1-.13,5,5.91,5.91,0,0,1-11.68-.91c0-.7,0-1.4,0-2.1A13.94,13.94,0,0,1,107.91,115.74Z"/><path class="cls-3" d="M147.21,103.71a6.82,6.82,0,0,1,2.94-.62c3.42,0,6.84,0,10.27,0a7.18,7.18,0,0,1,7.5,7.52c0,2.64,0,5.28,0,7.92a1.44,1.44,0,1,0,2.86,0c0-2.83,0-5.67,0-8.5a10.07,10.07,0,0,0-7.47-9.48c-.41-.11-.88,0-1.25-.34A9.23,9.23,0,0,0,164.34,94c0-1-.09-2,0-3a8.85,8.85,0,0,0-6.4-8.84,3.9,3.9,0,0,1-1.26-.32h-2.53c-.06.23-.26.14-.41.18-3.54.9-5.94,3.07-6.72,6.65a19.52,19.52,0,0,0,0,7.69,8.75,8.75,0,0,0,2,3.85,12.32,12.32,0,0,0-2.91.83c-1,.45-1.36,1.18-1,2A1.47,1.47,0,0,0,147.21,103.71Zm2.5-14.12a5.9,5.9,0,0,1,11.68.5c.07.8,0,1.62,0,2.43a11.14,11.14,0,0,1-.17,3.26,5.91,5.91,0,0,1-11.62-1.15A23,23,0,0,1,149.71,89.59Z"/></svg>