<svg width="654" height="250" viewBox="0 0 654 250" fill="none" xmlns="http://www.w3.org/2000/svg">
<path d="M329.22 147.17C328.97 147.154 328.72 147.154 328.47 147.17C328.044 147.142 327.619 147.251 327.26 147.481C326.9 147.711 326.623 148.051 326.47 148.45V154.79H324.9V145.8H326.39V146.8C326.603 146.426 326.914 146.117 327.289 145.906C327.664 145.694 328.09 145.589 328.52 145.6C328.752 145.589 328.983 145.627 329.2 145.71L329.22 147.17Z" fill="black"/>
<path d="M334.17 154.9C333.622 154.922 333.076 154.827 332.567 154.622C332.059 154.417 331.599 154.106 331.22 153.71C330.83 153.279 330.528 152.776 330.332 152.229C330.137 151.681 330.051 151.101 330.08 150.52V150.24C330.066 149.418 330.24 148.604 330.59 147.86C330.905 147.197 331.396 146.633 332.01 146.23C332.604 145.841 333.3 145.636 334.01 145.64C334.518 145.611 335.026 145.7 335.494 145.899C335.963 146.099 336.379 146.404 336.71 146.79C337.426 147.728 337.781 148.892 337.71 150.07V150.71H331.66C331.645 151.491 331.919 152.25 332.43 152.84C332.664 153.107 332.953 153.318 333.278 153.46C333.603 153.602 333.956 153.67 334.31 153.66C334.788 153.675 335.261 153.561 335.68 153.33C336.066 153.102 336.405 152.804 336.68 152.45L337.61 153.18C337.246 153.751 336.734 154.213 336.128 154.516C335.522 154.819 334.845 154.952 334.17 154.9ZM333.99 146.9C333.696 146.895 333.405 146.953 333.136 147.071C332.867 147.188 332.626 147.362 332.43 147.58C331.978 148.108 331.708 148.767 331.66 149.46H336.13V149.35C336.132 148.694 335.913 148.057 335.51 147.54C335.319 147.331 335.085 147.165 334.825 147.053C334.565 146.941 334.283 146.885 334 146.89L333.99 146.9Z" fill="black"/>
<path d="M343 153.66C343.521 153.667 344.027 153.49 344.43 153.16C344.623 153.012 344.784 152.825 344.901 152.612C345.018 152.398 345.089 152.163 345.11 151.92H346.55C346.518 152.448 346.334 152.955 346.02 153.38C345.692 153.858 345.244 154.241 344.72 154.49C343.964 154.86 343.11 154.982 342.28 154.838C341.451 154.694 340.688 154.293 340.1 153.69C339.338 152.749 338.953 151.559 339.02 150.35V150.1C339.004 149.3 339.168 148.508 339.5 147.78C339.793 147.131 340.269 146.582 340.87 146.2C341.511 145.819 342.245 145.626 342.99 145.64C343.908 145.607 344.804 145.929 345.49 146.54C345.818 146.836 346.081 147.197 346.263 147.6C346.446 148.002 346.543 148.438 346.55 148.88H345.11C345.078 148.337 344.842 147.827 344.45 147.45C344.257 147.263 344.028 147.118 343.777 147.021C343.526 146.925 343.258 146.88 342.99 146.89C342.644 146.874 342.3 146.942 341.987 147.088C341.673 147.235 341.4 147.455 341.19 147.73C340.716 148.448 340.492 149.302 340.55 150.16V150.44C340.496 151.281 340.717 152.116 341.18 152.82C341.392 153.097 341.669 153.319 341.986 153.465C342.303 153.611 342.651 153.678 343 153.66V153.66Z" fill="black"/>
<path d="M352 154.9C351.444 154.927 350.889 154.835 350.371 154.63C349.854 154.425 349.386 154.111 349 153.71C348.61 153.279 348.308 152.776 348.112 152.229C347.917 151.681 347.831 151.101 347.86 150.52V150.24C347.846 149.418 348.02 148.604 348.37 147.86C348.685 147.197 349.176 146.633 349.79 146.23C350.384 145.841 351.08 145.636 351.79 145.64C352.3 145.613 352.808 145.702 353.278 145.901C353.748 146.101 354.166 146.405 354.5 146.79C355.21 147.731 355.564 148.893 355.5 150.07V150.71H349.45C349.435 151.491 349.709 152.25 350.22 152.84C350.454 153.107 350.743 153.318 351.068 153.46C351.393 153.602 351.746 153.67 352.1 153.66C352.578 153.676 353.052 153.562 353.47 153.33C353.856 153.102 354.195 152.804 354.47 152.45L355.41 153.18C355.047 153.745 354.539 154.203 353.94 154.505C353.34 154.808 352.67 154.944 352 154.9V154.9ZM351.81 146.9C351.516 146.895 351.225 146.953 350.956 147.071C350.687 147.188 350.446 147.362 350.25 147.58C349.803 148.111 349.533 148.768 349.48 149.46H353.95V149.35C353.952 148.694 353.733 148.057 353.33 147.54C353.137 147.328 352.9 147.161 352.636 147.049C352.372 146.936 352.087 146.882 351.8 146.89L351.81 146.9Z" fill="black"/>
<path d="M357.25 143.43C357.243 143.203 357.322 142.982 357.47 142.81C357.558 142.721 357.665 142.651 357.782 142.606C357.899 142.562 358.025 142.542 358.15 142.55C358.274 142.542 358.398 142.562 358.513 142.607C358.629 142.652 358.734 142.721 358.82 142.81C358.978 142.977 359.064 143.2 359.06 143.43C359.064 143.544 359.045 143.658 359.004 143.765C358.963 143.871 358.9 143.968 358.82 144.05C358.733 144.138 358.628 144.206 358.513 144.249C358.397 144.292 358.273 144.309 358.15 144.3C358.031 144.314 357.911 144.301 357.797 144.262C357.684 144.224 357.58 144.161 357.494 144.078C357.408 143.994 357.342 143.893 357.299 143.781C357.257 143.669 357.24 143.549 357.25 143.43V143.43ZM358.9 154.74H357.37V145.8H358.9V154.74Z" fill="black"/>
<path d="M364.29 152.67L366.5 145.8H368.06L364.86 154.74H363.7L360.46 145.8H362L364.29 152.67Z" fill="black"/>
<path d="M373.13 154.9C372.582 154.922 372.036 154.827 371.527 154.622C371.018 154.417 370.559 154.106 370.18 153.71C369.789 153.279 369.488 152.776 369.292 152.228C369.097 151.681 369.011 151.1 369.04 150.52V150.24C369.026 149.418 369.2 148.604 369.55 147.86C369.86 147.193 370.352 146.628 370.97 146.23C371.563 145.839 372.26 145.634 372.97 145.64C373.48 145.61 373.989 145.699 374.459 145.898C374.929 146.098 375.347 146.403 375.68 146.79C376.396 147.728 376.751 148.892 376.68 150.07V150.71H370.63C370.615 151.491 370.889 152.249 371.4 152.84C371.634 153.106 371.923 153.318 372.248 153.46C372.573 153.602 372.926 153.67 373.28 153.66C373.758 153.675 374.231 153.561 374.65 153.33C375.036 153.102 375.375 152.804 375.65 152.45L376.58 153.18C376.215 153.753 375.701 154.216 375.094 154.519C374.486 154.822 373.807 154.953 373.13 154.9V154.9ZM372.94 146.9C372.648 146.893 372.357 146.95 372.089 147.068C371.822 147.185 371.583 147.36 371.39 147.58C370.938 148.108 370.668 148.767 370.62 149.46H375.09V149.35C375.094 148.692 374.871 148.053 374.46 147.54C374.271 147.326 374.036 147.156 373.773 147.044C373.51 146.931 373.226 146.879 372.94 146.89V146.9Z" fill="black"/>
<path d="M378 150.2C377.949 149.015 378.302 147.848 379 146.89C379.299 146.522 379.672 146.222 380.097 146.01C380.521 145.799 380.985 145.681 381.459 145.664C381.933 145.646 382.405 145.731 382.843 145.912C383.281 146.092 383.676 146.364 384 146.71V142.06H385.52V154.74H384.12L384.05 153.74C383.74 154.113 383.347 154.408 382.902 154.603C382.458 154.797 381.974 154.885 381.49 154.86C380.997 154.868 380.51 154.756 380.069 154.535C379.629 154.314 379.248 153.99 378.96 153.59C378.264 152.627 377.912 151.458 377.96 150.27L378 150.2ZM379.53 150.37C379.485 151.21 379.705 152.043 380.16 152.75C380.352 153.028 380.612 153.252 380.914 153.403C381.217 153.553 381.552 153.624 381.89 153.61C382.331 153.623 382.767 153.505 383.142 153.273C383.517 153.04 383.816 152.701 384 152.3V148.2C383.808 147.808 383.507 147.48 383.132 147.257C382.758 147.033 382.326 146.923 381.89 146.94C381.549 146.922 381.209 146.992 380.903 147.142C380.597 147.293 380.334 147.519 380.14 147.8C379.68 148.574 379.47 149.472 379.54 150.37H379.53Z" fill="black"/>
<path d="M393.56 145.8V146.93C393.873 146.518 394.279 146.187 394.745 145.963C395.211 145.738 395.723 145.628 396.24 145.64C398.133 145.64 399.087 146.703 399.1 148.83V154.74H397.57V148.83C397.607 148.315 397.45 147.805 397.13 147.4C396.949 147.234 396.736 147.107 396.503 147.028C396.271 146.949 396.025 146.919 395.78 146.94C395.314 146.931 394.856 147.067 394.47 147.33C394.103 147.588 393.805 147.931 393.6 148.33V154.7H392.07V145.8H393.56Z" fill="black"/>
<path d="M405.15 154.9C404.594 154.927 404.039 154.835 403.521 154.63C403.004 154.425 402.536 154.111 402.15 153.71C401.76 153.279 401.458 152.776 401.262 152.229C401.067 151.681 400.981 151.101 401.01 150.52V150.24C400.996 149.418 401.17 148.604 401.52 147.86C401.835 147.197 402.326 146.633 402.94 146.23C403.534 145.841 404.23 145.636 404.94 145.64C405.45 145.613 405.958 145.702 406.428 145.901C406.898 146.101 407.316 146.405 407.65 146.79C408.36 147.731 408.714 148.893 408.65 150.07V150.71H402.6C402.585 151.491 402.859 152.25 403.37 152.84C403.604 153.106 403.894 153.317 404.219 153.459C404.544 153.601 404.896 153.669 405.25 153.66C405.728 153.676 406.202 153.562 406.62 153.33C407.005 153.102 407.345 152.803 407.62 152.45L408.55 153.18C408.189 153.744 407.683 154.202 407.085 154.504C406.487 154.807 405.819 154.943 405.15 154.9ZM404.96 146.9C404.668 146.893 404.377 146.951 404.11 147.068C403.842 147.186 403.603 147.36 403.41 147.58C402.955 148.107 402.682 148.766 402.63 149.46H407.11V149.35C407.104 148.694 406.882 148.058 406.48 147.54C406.292 147.335 406.063 147.171 405.809 147.059C405.554 146.947 405.278 146.889 405 146.89L404.96 146.9Z" fill="black"/>
<path d="M418.31 152.63L420 145.8H421.53L418.93 154.74H417.69L415.55 148L413.43 154.77H412.19L409.6 145.83H411.12L412.88 152.52L415 145.8H416.23L418.31 152.63Z" fill="black"/>
<path d="M431.61 147.17C431.36 147.154 431.11 147.154 430.86 147.17C430.434 147.142 430.009 147.251 429.65 147.481C429.29 147.712 429.013 148.051 428.86 148.45V154.79H427.3V145.8H428.78V146.8C428.993 146.426 429.304 146.117 429.679 145.906C430.054 145.694 430.48 145.589 430.91 145.6C431.139 145.59 431.367 145.628 431.58 145.71L431.61 147.17Z" fill="black"/>
<path d="M436.57 154.9C436.014 154.927 435.459 154.835 434.941 154.63C434.424 154.425 433.956 154.111 433.57 153.71C433.18 153.279 432.878 152.776 432.682 152.229C432.487 151.681 432.401 151.101 432.43 150.52V150.24C432.416 149.418 432.59 148.604 432.94 147.86C433.255 147.197 433.746 146.633 434.36 146.23C434.954 145.841 435.65 145.636 436.36 145.64C436.869 145.613 437.378 145.702 437.848 145.901C438.318 146.101 438.736 146.405 439.07 146.79C439.78 147.731 440.134 148.893 440.07 150.07V150.71H434C433.985 151.491 434.259 152.25 434.77 152.84C435.004 153.106 435.294 153.317 435.619 153.459C435.944 153.601 436.296 153.669 436.65 153.66C437.128 153.676 437.601 153.562 438.02 153.33C438.405 153.102 438.744 152.803 439.02 152.45L439.95 153.18C439.59 153.741 439.088 154.197 438.493 154.499C437.899 154.801 437.235 154.94 436.57 154.9V154.9ZM436.38 146.9C436.088 146.893 435.797 146.951 435.529 147.068C435.262 147.186 435.023 147.36 434.83 147.58C434.375 148.107 434.102 148.766 434.05 149.46H438.53V149.35C438.524 148.694 438.302 148.058 437.9 147.54C437.708 147.33 437.472 147.163 437.21 147.051C436.948 146.939 436.665 146.884 436.38 146.89V146.9Z" fill="black"/>
<path d="M441.46 150.2C441.409 149.009 441.761 147.836 442.46 146.87C442.769 146.492 443.156 146.187 443.595 145.974C444.034 145.762 444.514 145.648 445.001 145.641C445.489 145.633 445.972 145.732 446.418 145.93C446.863 146.129 447.26 146.422 447.58 146.79L447.65 145.79H449V154.51C449.029 155.011 448.956 155.512 448.784 155.984C448.612 156.455 448.345 156.886 448 157.25C447.628 157.59 447.193 157.853 446.72 158.025C446.246 158.197 445.743 158.273 445.24 158.25C444.584 158.248 443.936 158.105 443.34 157.83C442.773 157.593 442.285 157.202 441.93 156.7L442.73 155.79C443.008 156.164 443.37 156.469 443.787 156.679C444.204 156.889 444.663 156.999 445.13 157C445.448 157.018 445.766 156.972 446.065 156.863C446.364 156.755 446.638 156.587 446.87 156.37C447.085 156.131 447.251 155.851 447.358 155.547C447.464 155.243 447.509 154.921 447.49 154.6V153.84C447.178 154.19 446.791 154.466 446.359 154.648C445.926 154.829 445.459 154.912 444.99 154.89C444.496 154.9 444.008 154.791 443.565 154.572C443.123 154.353 442.74 154.029 442.45 153.63C441.747 152.629 441.399 151.422 441.46 150.2ZM442.99 150.37C442.944 151.205 443.161 152.034 443.61 152.74C443.802 153.021 444.063 153.249 444.367 153.401C444.672 153.553 445.01 153.625 445.35 153.61C445.795 153.625 446.234 153.508 446.611 153.273C446.989 153.038 447.288 152.696 447.47 152.29V148.22C447.28 147.825 446.98 147.494 446.605 147.267C446.231 147.039 445.798 146.926 445.36 146.94C445.021 146.924 444.683 146.994 444.379 147.145C444.074 147.295 443.813 147.521 443.62 147.8C443.153 148.572 442.936 149.47 443 150.37H442.99Z" fill="black"/>
<path d="M456.83 153.86C456.494 154.21 456.085 154.481 455.632 154.654C455.179 154.827 454.693 154.897 454.21 154.86C453.808 154.889 453.405 154.829 453.028 154.686C452.652 154.542 452.311 154.319 452.03 154.03C451.483 153.336 451.215 152.462 451.28 151.58V145.8H452.8V151.58C452.8 152.93 453.35 153.58 454.46 153.58C454.935 153.632 455.415 153.534 455.831 153.299C456.248 153.064 456.579 152.704 456.78 152.27V145.77H458.31V154.71H456.86L456.83 153.86Z" fill="black"/>
<path d="M462.29 154.74H460.76V142.06H462.29V154.74Z" fill="black"/>
<path d="M470.25 154.74C470.131 154.44 470.06 154.122 470.04 153.8C469.716 154.152 469.322 154.433 468.882 154.622C468.443 154.812 467.968 154.906 467.49 154.9C466.703 154.931 465.932 154.667 465.33 154.16C465.055 153.927 464.836 153.635 464.689 153.306C464.542 152.978 464.471 152.62 464.48 152.26C464.462 151.839 464.549 151.419 464.734 151.04C464.919 150.661 465.196 150.335 465.54 150.09C466.433 149.522 467.484 149.253 468.54 149.32H470V148.62C470.01 148.385 469.973 148.151 469.891 147.931C469.808 147.711 469.682 147.51 469.52 147.34C469.328 147.172 469.104 147.044 468.862 146.964C468.62 146.883 468.364 146.851 468.11 146.87C467.621 146.855 467.14 146.999 466.74 147.28C466.574 147.389 466.437 147.537 466.341 147.712C466.245 147.886 466.193 148.081 466.19 148.28H464.65C464.66 147.808 464.829 147.353 465.13 146.99C465.461 146.55 465.903 146.205 466.41 145.99C466.975 145.746 467.585 145.623 468.2 145.63C469.074 145.579 469.936 145.854 470.62 146.4C470.917 146.668 471.152 146.997 471.309 147.365C471.466 147.733 471.542 148.13 471.53 148.53V152.64C471.497 153.321 471.603 154.001 471.84 154.64V154.77L470.25 154.74ZM467.72 153.57C468.198 153.572 468.668 153.444 469.08 153.2C469.488 152.974 469.814 152.623 470.01 152.2V150.4H468.82C466.94 150.4 466.01 150.95 466.01 152.05C465.999 152.261 466.036 152.472 466.12 152.666C466.203 152.86 466.329 153.032 466.49 153.17C466.838 153.448 467.275 153.59 467.72 153.57Z" fill="black"/>
<path d="M476 143.64V145.8H477.66V147H476V152.55C475.977 152.838 476.055 153.124 476.22 153.36C476.319 153.459 476.438 153.534 476.57 153.581C476.701 153.627 476.841 153.644 476.98 153.63C477.226 153.618 477.47 153.585 477.71 153.53V154.76C477.326 154.865 476.929 154.919 476.53 154.92C476.243 154.942 475.955 154.897 475.688 154.789C475.421 154.682 475.182 154.514 474.99 154.3C474.612 153.798 474.427 153.177 474.47 152.55V147H472.84V145.8H474.47V143.64H476Z" fill="black"/>
<path d="M479.47 143.43C479.463 143.203 479.542 142.982 479.69 142.81C479.778 142.721 479.884 142.651 480.002 142.606C480.119 142.562 480.245 142.542 480.37 142.55C480.494 142.542 480.618 142.562 480.733 142.607C480.849 142.652 480.954 142.721 481.04 142.81C481.198 142.977 481.284 143.2 481.28 143.43C481.284 143.544 481.265 143.658 481.224 143.765C481.183 143.871 481.12 143.968 481.04 144.05C480.953 144.138 480.848 144.206 480.732 144.249C480.617 144.292 480.493 144.309 480.37 144.3C480.251 144.314 480.131 144.301 480.017 144.262C479.904 144.224 479.8 144.161 479.714 144.078C479.628 143.994 479.562 143.893 479.519 143.781C479.477 143.669 479.46 143.549 479.47 143.43V143.43ZM481.12 154.74H479.59V145.8H481.12V154.74Z" fill="black"/>
<path d="M483.16 150.19C483.146 149.375 483.321 148.567 483.67 147.83C483.983 147.16 484.485 146.596 485.113 146.207C485.742 145.818 486.471 145.621 487.21 145.64C487.772 145.615 488.333 145.715 488.852 145.933C489.37 146.151 489.834 146.481 490.21 146.9C490.993 147.839 491.392 149.039 491.33 150.26V150.37C491.347 151.178 491.175 151.979 490.83 152.71C490.519 153.376 490.023 153.939 489.4 154.33C488.757 154.716 488.019 154.913 487.27 154.9C486.717 154.92 486.167 154.817 485.659 154.599C485.151 154.381 484.697 154.054 484.33 153.64C483.542 152.711 483.138 151.517 483.2 150.3L483.16 150.19ZM484.69 150.37C484.648 151.221 484.89 152.062 485.38 152.76C485.599 153.042 485.879 153.271 486.2 153.428C486.52 153.585 486.873 153.667 487.23 153.667C487.587 153.667 487.939 153.585 488.26 153.428C488.581 153.271 488.861 153.042 489.08 152.76C489.579 152.007 489.817 151.111 489.76 150.21C489.801 149.362 489.558 148.525 489.07 147.83C488.857 147.538 488.577 147.302 488.253 147.142C487.929 146.981 487.571 146.902 487.21 146.91C486.856 146.902 486.506 146.98 486.189 147.136C485.872 147.293 485.598 147.524 485.39 147.81C484.884 148.564 484.638 149.463 484.69 150.37Z" fill="black"/>
<path d="M494.65 145.8L494.7 146.93C495.012 146.518 495.418 146.186 495.884 145.962C496.35 145.737 496.863 145.627 497.38 145.64C499.267 145.64 500.22 146.704 500.24 148.83V154.74H498.71V148.83C498.742 148.316 498.586 147.808 498.27 147.4C498.089 147.234 497.876 147.107 497.643 147.028C497.411 146.949 497.165 146.919 496.92 146.94C496.453 146.931 495.996 147.067 495.61 147.33C495.241 147.585 494.941 147.929 494.74 148.33V154.7H493.21V145.8H494.65Z" fill="black"/>
<path d="M507.74 152.37C507.756 152.177 507.721 151.983 507.638 151.807C507.556 151.632 507.429 151.481 507.27 151.37C506.775 151.067 506.224 150.866 505.65 150.78C505.014 150.658 504.396 150.456 503.81 150.18C503.412 149.996 503.068 149.714 502.81 149.36C502.587 149.022 502.472 148.625 502.48 148.22C502.479 147.859 502.562 147.502 502.724 147.179C502.885 146.856 503.12 146.576 503.41 146.36C504.088 145.831 504.931 145.562 505.79 145.6C506.677 145.56 507.548 145.836 508.25 146.38C508.55 146.619 508.792 146.923 508.956 147.27C509.121 147.617 509.204 147.996 509.2 148.38H507.66C507.659 148.172 507.611 147.966 507.519 147.779C507.427 147.592 507.294 147.428 507.13 147.3C506.754 146.988 506.278 146.825 505.79 146.84C505.324 146.816 504.864 146.946 504.48 147.21C504.324 147.324 504.199 147.475 504.117 147.65C504.035 147.825 503.998 148.017 504.01 148.21C504.003 148.375 504.04 148.539 504.117 148.685C504.195 148.831 504.31 148.953 504.45 149.04C504.944 149.303 505.478 149.485 506.03 149.58C506.669 149.707 507.29 149.912 507.88 150.19C508.299 150.38 508.664 150.672 508.94 151.04C509.171 151.404 509.289 151.829 509.28 152.26C509.285 152.638 509.197 153.011 509.022 153.346C508.848 153.681 508.593 153.968 508.28 154.18C507.556 154.688 506.683 154.941 505.8 154.9C505.146 154.916 504.497 154.787 503.9 154.52C503.375 154.297 502.924 153.93 502.6 153.46C502.298 153.03 502.137 152.516 502.14 151.99H503.67C503.673 152.226 503.73 152.458 503.836 152.67C503.941 152.881 504.093 153.066 504.28 153.21C504.721 153.529 505.257 153.687 505.8 153.66C506.287 153.681 506.77 153.559 507.19 153.31C507.356 153.215 507.494 153.079 507.591 152.914C507.687 152.749 507.739 152.561 507.74 152.37V152.37Z" fill="black"/>
<path d="M332.43 170.48C332.421 169.664 332.599 168.857 332.95 168.12C333.262 167.452 333.762 166.888 334.39 166.5C335.021 166.114 335.75 165.917 336.49 165.93C337.045 165.91 337.598 166.014 338.108 166.233C338.618 166.453 339.073 166.783 339.44 167.2C340.226 168.138 340.63 169.338 340.57 170.56V170.66C340.581 171.471 340.41 172.274 340.07 173.01C339.756 173.672 339.26 174.23 338.64 174.62C337.996 175.011 337.254 175.212 336.5 175.2C335.946 175.22 335.395 175.116 334.887 174.897C334.378 174.677 333.925 174.347 333.56 173.93C332.775 173 332.371 171.806 332.43 170.59V170.48ZM333.97 170.66C333.928 171.511 334.17 172.352 334.66 173.05C334.871 173.338 335.148 173.571 335.469 173.727C335.789 173.884 336.143 173.961 336.5 173.95C336.86 173.964 337.217 173.888 337.54 173.729C337.863 173.57 338.141 173.333 338.35 173.04C338.852 172.285 339.095 171.386 339.04 170.48C339.081 169.631 338.834 168.792 338.34 168.1C338.123 167.818 337.845 167.59 337.526 167.432C337.207 167.275 336.856 167.193 336.5 167.193C336.144 167.193 335.793 167.275 335.474 167.432C335.155 167.59 334.877 167.818 334.66 168.1C334.167 168.859 333.936 169.758 334 170.66H333.97Z" fill="black"/>
<path d="M343.93 166.1L343.98 167.22C344.29 166.808 344.694 166.476 345.159 166.251C345.623 166.027 346.134 165.917 346.65 165.93C348.543 165.93 349.497 166.996 349.51 169.13V175H348V169.09C348.044 168.574 347.886 168.062 347.56 167.66C347.379 167.494 347.166 167.367 346.933 167.288C346.701 167.209 346.455 167.179 346.21 167.2C345.742 167.19 345.283 167.33 344.9 167.6C344.531 167.855 344.232 168.199 344.03 168.6V175H342.5V166.1H343.93Z" fill="black"/>
<path d="M358.07 163.93V166.1H359.74V167.28H358.07V172.83C358.051 173.115 358.133 173.398 358.3 173.63C358.396 173.729 358.514 173.805 358.644 173.852C358.774 173.898 358.913 173.915 359.05 173.9C359.296 173.893 359.541 173.86 359.78 173.8V175C359.399 175.109 359.006 175.166 358.61 175.17C358.323 175.19 358.035 175.145 357.769 175.037C357.502 174.93 357.263 174.763 357.07 174.55C356.692 174.045 356.507 173.42 356.55 172.79V167.25H354.92V166.1H356.55V163.93H358.07Z" fill="black"/>
<path d="M363.05 167.18C363.363 166.781 363.764 166.46 364.222 166.243C364.68 166.026 365.183 165.919 365.69 165.93C367.58 165.93 368.54 167 368.55 169.13V175H367V169.09C367.044 168.574 366.886 168.062 366.56 167.66C366.379 167.494 366.166 167.367 365.933 167.288C365.701 167.209 365.455 167.179 365.21 167.2C364.745 167.19 364.289 167.33 363.91 167.6C363.536 167.852 363.233 168.197 363.03 168.6V175H361.5V162.35H363.03L363.05 167.18Z" fill="black"/>
<path d="M374.55 175.2C373.993 175.226 373.437 175.132 372.92 174.925C372.402 174.718 371.935 174.403 371.55 174C371.159 173.57 370.856 173.066 370.661 172.519C370.465 171.971 370.38 171.391 370.41 170.81V170.53C370.395 169.711 370.57 168.9 370.92 168.16C371.233 167.493 371.725 166.925 372.34 166.52C372.934 166.131 373.63 165.925 374.34 165.93C374.848 165.903 375.355 165.993 375.823 166.192C376.291 166.392 376.707 166.695 377.04 167.08C377.752 168.024 378.106 169.189 378.04 170.37V171H372.04C372.025 171.784 372.299 172.545 372.81 173.14C373.046 173.404 373.336 173.613 373.661 173.752C373.985 173.892 374.337 173.96 374.69 173.95C375.168 173.966 375.641 173.851 376.06 173.62C376.446 173.396 376.785 173.101 377.06 172.75L378 173.47C377.634 174.042 377.12 174.505 376.513 174.81C375.906 175.114 375.228 175.249 374.55 175.2V175.2ZM374.36 167.2C374.067 167.19 373.775 167.245 373.505 167.361C373.236 167.477 372.995 167.651 372.8 167.87C372.352 168.404 372.083 169.065 372.03 169.76H376.5V169.64C376.502 168.987 376.283 168.353 375.88 167.84C375.691 167.625 375.457 167.454 375.194 167.342C374.931 167.229 374.646 167.177 374.36 167.19V167.2Z" fill="black"/>
<path d="M385.42 166.1V167.1C385.745 166.719 386.153 166.416 386.612 166.215C387.071 166.014 387.569 165.92 388.07 165.94C388.593 165.89 389.118 166.001 389.576 166.258C390.034 166.516 390.402 166.907 390.63 167.38C390.931 166.959 391.329 166.616 391.79 166.38C392.305 166.102 392.885 165.964 393.47 165.98C395.43 165.98 396.43 167.02 396.47 169.1V175.1H395V169.21C395.038 168.692 394.881 168.178 394.56 167.77C394.358 167.598 394.125 167.468 393.872 167.388C393.62 167.307 393.354 167.277 393.09 167.3C392.572 167.281 392.066 167.464 391.68 167.81C391.291 168.16 391.054 168.648 391.02 169.17V175H389.49V169.15C389.538 168.885 389.523 168.612 389.445 168.353C389.368 168.095 389.23 167.859 389.044 167.664C388.858 167.469 388.628 167.321 388.374 167.231C388.119 167.142 387.847 167.114 387.58 167.15C387.145 167.111 386.71 167.214 386.34 167.445C385.97 167.676 385.685 168.022 385.53 168.43V175H384V166.1H385.42Z" fill="black"/>
<path d="M404.32 175C404.204 174.699 404.133 174.382 404.11 174.06C403.788 174.413 403.396 174.695 402.958 174.886C402.521 175.077 402.048 175.174 401.57 175.17C400.778 175.204 400.002 174.936 399.4 174.42C399.126 174.189 398.908 173.899 398.76 173.572C398.613 173.245 398.541 172.889 398.55 172.53C398.532 172.109 398.619 171.69 398.804 171.311C398.989 170.932 399.266 170.605 399.61 170.36C400.503 169.792 401.554 169.523 402.61 169.59H404.09V168.88C404.101 168.648 404.065 168.416 403.984 168.197C403.904 167.979 403.78 167.779 403.62 167.61C403.428 167.439 403.203 167.308 402.959 167.226C402.715 167.143 402.457 167.111 402.2 167.13C401.709 167.114 401.227 167.262 400.83 167.55C400.662 167.657 400.523 167.805 400.427 167.98C400.331 168.155 400.281 168.351 400.28 168.55H398.74C398.751 168.079 398.92 167.624 399.22 167.26C399.555 166.82 400 166.475 400.51 166.26C401.069 166.007 401.677 165.881 402.29 165.89C403.164 165.84 404.026 166.114 404.71 166.66C405.006 166.929 405.24 167.258 405.397 167.626C405.554 167.993 405.63 168.391 405.62 168.79V172.9C405.589 173.582 405.698 174.262 405.94 174.9V175H404.32ZM401.79 173.84C402.268 173.837 402.736 173.71 403.15 173.47C403.557 173.243 403.883 172.893 404.08 172.47V170.7H402.89C401.01 170.7 400.08 171.25 400.08 172.34C400.069 172.551 400.106 172.762 400.19 172.956C400.273 173.15 400.4 173.323 400.56 173.46C400.907 173.742 401.344 173.887 401.79 173.87V173.84Z" fill="black"/>
<path d="M409.45 166.1L409.5 167.22C409.812 166.808 410.218 166.476 410.684 166.252C411.15 166.027 411.663 165.917 412.18 165.93C414.06 165.93 415.02 167 415.03 169.13V175H413.51V169.09C413.542 168.574 413.382 168.065 413.06 167.66C412.88 167.493 412.667 167.365 412.434 167.286C412.202 167.206 411.955 167.177 411.71 167.2C411.245 167.19 410.789 167.33 410.41 167.6C410.038 167.855 409.736 168.199 409.53 168.6V175H408V166.1H409.45Z" fill="black"/>
<path d="M422.85 175C422.734 174.699 422.664 174.382 422.64 174.06C422.318 174.413 421.926 174.695 421.488 174.886C421.051 175.077 420.578 175.174 420.1 175.17C419.308 175.202 418.533 174.934 417.93 174.42C417.656 174.189 417.438 173.899 417.291 173.572C417.143 173.245 417.071 172.889 417.08 172.53C417.062 172.109 417.149 171.69 417.334 171.311C417.519 170.932 417.796 170.605 418.14 170.36C419.033 169.792 420.084 169.523 421.14 169.59H422.62V168.88C422.631 168.648 422.595 168.416 422.514 168.197C422.434 167.979 422.31 167.779 422.15 167.61C421.958 167.439 421.733 167.308 421.489 167.226C421.245 167.143 420.987 167.111 420.73 167.13C420.239 167.114 419.757 167.262 419.36 167.55C419.192 167.657 419.053 167.805 418.957 167.98C418.861 168.155 418.811 168.351 418.81 168.55H417.27C417.281 168.079 417.45 167.624 417.75 167.26C418.085 166.82 418.53 166.475 419.04 166.26C419.599 166.007 420.207 165.881 420.82 165.89C421.694 165.84 422.556 166.114 423.24 166.66C423.536 166.929 423.77 167.258 423.927 167.626C424.084 167.993 424.16 168.391 424.15 168.79V172.9C424.119 173.582 424.228 174.262 424.47 174.9V175H422.85ZM420.32 173.84C420.798 173.837 421.267 173.71 421.68 173.47C422.087 173.243 422.413 172.893 422.61 172.47V170.7H421.42C419.55 170.7 418.61 171.25 418.61 172.34C418.599 172.551 418.636 172.762 418.72 172.956C418.803 173.15 418.93 173.323 419.09 173.46C419.437 173.742 419.874 173.887 420.32 173.87V173.84Z" fill="black"/>
<path d="M426.17 170.49C426.119 169.302 426.472 168.132 427.17 167.17C427.476 166.789 427.861 166.481 428.3 166.267C428.738 166.052 429.218 165.937 429.706 165.93C430.194 165.922 430.678 166.022 431.123 166.223C431.568 166.423 431.963 166.719 432.28 167.09L432.35 166.09H433.75V174.81C433.781 175.309 433.707 175.81 433.535 176.279C433.363 176.749 433.096 177.178 432.75 177.54C432.381 177.883 431.946 178.149 431.472 178.32C430.998 178.492 430.494 178.567 429.99 178.54C429.338 178.536 428.695 178.396 428.1 178.13C427.534 177.892 427.046 177.5 426.69 177L427.48 176.08C427.758 176.454 428.12 176.759 428.537 176.969C428.954 177.179 429.413 177.289 429.88 177.29C430.2 177.322 430.524 177.281 430.827 177.172C431.13 177.063 431.404 176.887 431.63 176.658C431.857 176.429 432.029 176.152 432.134 175.848C432.24 175.544 432.276 175.22 432.24 174.9V174.13C431.93 174.484 431.544 174.763 431.111 174.946C430.679 175.13 430.21 175.213 429.74 175.19C429.245 175.2 428.756 175.09 428.313 174.868C427.871 174.647 427.489 174.322 427.2 173.92C426.488 172.921 426.126 171.715 426.17 170.49V170.49ZM427.71 170.66C427.665 171.498 427.882 172.33 428.33 173.04C428.522 173.318 428.782 173.542 429.084 173.693C429.387 173.843 429.723 173.914 430.06 173.9C430.504 173.917 430.942 173.802 431.32 173.569C431.698 173.335 431.997 172.994 432.18 172.59V168.51C431.991 168.116 431.692 167.786 431.319 167.559C430.947 167.332 430.516 167.218 430.08 167.23C429.74 167.215 429.402 167.287 429.097 167.439C428.793 167.591 428.532 167.819 428.34 168.1C427.868 168.866 427.648 169.762 427.71 170.66V170.66Z" fill="black"/>
<path d="M439.73 175.2C439.173 175.227 438.617 175.134 438.099 174.927C437.581 174.72 437.115 174.404 436.73 174C436.339 173.57 436.036 173.067 435.841 172.519C435.645 171.971 435.56 171.391 435.59 170.81V170.53C435.577 169.712 435.748 168.902 436.09 168.16C436.406 167.495 436.897 166.928 437.51 166.52C438.104 166.131 438.8 165.926 439.51 165.93C440.019 165.903 440.528 165.993 440.998 166.192C441.467 166.392 441.885 166.695 442.22 167.08C442.932 168.024 443.286 169.189 443.22 170.37V171H437.16C437.149 171.785 437.426 172.546 437.94 173.14C438.174 173.403 438.462 173.612 438.785 173.752C439.108 173.892 439.458 173.96 439.81 173.95C440.291 173.964 440.768 173.85 441.19 173.62C441.576 173.396 441.915 173.101 442.19 172.75L443.12 173.47C442.76 174.034 442.256 174.491 441.66 174.795C441.064 175.1 440.398 175.239 439.73 175.2V175.2ZM439.54 167.2C439.248 167.192 438.959 167.248 438.691 167.363C438.423 167.479 438.184 167.652 437.99 167.87C437.535 168.401 437.262 169.063 437.21 169.76H441.69V169.64C441.689 168.986 441.467 168.352 441.06 167.84C440.872 167.624 440.638 167.453 440.374 167.341C440.111 167.228 439.826 167.177 439.54 167.19V167.2Z" fill="black"/>
<path d="M446.42 166.1V167.1C446.745 166.719 447.153 166.416 447.612 166.215C448.071 166.014 448.569 165.92 449.07 165.94C449.592 165.889 450.116 166 450.572 166.257C451.029 166.515 451.394 166.907 451.62 167.38C451.926 166.963 452.323 166.621 452.78 166.38C453.299 166.102 453.881 165.964 454.47 165.98C456.43 165.98 457.43 167.02 457.47 169.1V175.1H456V169.21C456.041 168.693 455.888 168.18 455.57 167.77C455.368 167.598 455.135 167.468 454.882 167.387C454.63 167.307 454.364 167.277 454.1 167.3C453.578 167.278 453.069 167.461 452.68 167.81C452.3 168.165 452.068 168.651 452.03 169.17V175H450.5V169.15C450.548 168.885 450.533 168.612 450.455 168.353C450.378 168.095 450.24 167.859 450.054 167.664C449.868 167.469 449.638 167.32 449.384 167.231C449.129 167.142 448.857 167.114 448.59 167.15C448.155 167.118 447.722 167.225 447.352 167.455C446.981 167.685 446.694 168.026 446.53 168.43V175H445V166.1H446.42Z" fill="black"/>
<path d="M463.51 175.2C462.961 175.22 462.415 175.124 461.906 174.917C461.398 174.71 460.939 174.397 460.56 174C460.169 173.57 459.866 173.067 459.671 172.519C459.475 171.972 459.39 171.391 459.42 170.81V170.53C459.405 169.711 459.58 168.9 459.93 168.16C460.24 167.491 460.732 166.922 461.35 166.52C461.943 166.129 462.64 165.924 463.35 165.93C463.859 165.903 464.368 165.992 464.838 166.191C465.308 166.391 465.726 166.695 466.06 167.08C466.772 168.024 467.126 169.19 467.06 170.37V171H461C460.985 171.784 461.259 172.546 461.77 173.14C462.006 173.404 462.296 173.613 462.621 173.753C462.945 173.893 463.297 173.96 463.65 173.95C464.128 173.965 464.601 173.851 465.02 173.62C465.406 173.396 465.745 173.101 466.02 172.75L466.95 173.47C466.586 174.042 466.074 174.504 465.468 174.809C464.863 175.113 464.186 175.249 463.51 175.2V175.2ZM463.32 167.2C463.028 167.192 462.739 167.248 462.471 167.363C462.203 167.479 461.964 167.652 461.77 167.87C461.315 168.4 461.044 169.063 461 169.76H465.47V169.64C465.474 168.985 465.251 168.35 464.84 167.84C464.652 167.624 464.418 167.454 464.154 167.341C463.891 167.229 463.606 167.177 463.32 167.19V167.2Z" fill="black"/>
<path d="M470.21 166.1L470.26 167.22C470.572 166.807 470.978 166.475 471.444 166.25C471.91 166.026 472.423 165.916 472.94 165.93C474.82 165.93 475.78 167 475.79 169.13V175H474.26V169.09C474.304 168.574 474.146 168.062 473.82 167.66C473.639 167.494 473.426 167.367 473.193 167.288C472.961 167.209 472.715 167.179 472.47 167.2C472.005 167.19 471.549 167.33 471.17 167.6C470.796 167.852 470.493 168.197 470.29 168.6V175H468.77V166.1H470.21Z" fill="black"/>
<path d="M480.17 163.93V166.1H481.84V167.28H480.17V172.83C480.148 173.114 480.226 173.397 480.39 173.63C480.489 173.729 480.608 173.804 480.74 173.851C480.871 173.898 481.011 173.914 481.15 173.9C481.396 173.893 481.641 173.86 481.88 173.8V175C481.499 175.109 481.106 175.166 480.71 175.17C480.422 175.19 480.132 175.145 479.864 175.037C479.596 174.93 479.355 174.764 479.16 174.55C478.782 174.045 478.597 173.42 478.64 172.79V167.25H477V166.1H478.63V163.93H480.17Z" fill="black"/>
<path d="M487.4 170.48C487.391 169.664 487.569 168.856 487.92 168.12C488.232 167.451 488.733 166.888 489.36 166.5C489.992 166.114 490.72 165.916 491.46 165.93C492.023 165.902 492.586 166.002 493.105 166.222C493.625 166.442 494.088 166.776 494.46 167.2C495.246 168.138 495.65 169.337 495.59 170.56V170.66C495.571 171.474 495.37 172.274 495 173C494.686 173.661 494.19 174.22 493.57 174.61C492.926 175.001 492.184 175.202 491.43 175.19C490.877 175.21 490.325 175.106 489.817 174.886C489.308 174.667 488.855 174.336 488.49 173.92C487.705 172.989 487.301 171.796 487.36 170.58L487.4 170.48ZM488.94 170.66C488.898 171.511 489.141 172.352 489.63 173.05C489.841 173.338 490.118 173.57 490.439 173.727C490.76 173.884 491.113 173.96 491.47 173.95C491.83 173.963 492.187 173.887 492.51 173.729C492.833 173.57 493.111 173.333 493.32 173.04C493.823 172.284 494.065 171.385 494.01 170.48C494.051 169.63 493.805 168.792 493.31 168.1C493.093 167.818 492.815 167.589 492.496 167.432C492.177 167.275 491.826 167.193 491.47 167.193C491.114 167.193 490.763 167.275 490.444 167.432C490.125 167.589 489.847 167.818 489.63 168.1C489.127 168.855 488.885 169.754 488.94 170.66V170.66Z" fill="black"/>
<path d="M498.2 175V167.25H496.79V166.1H498.2V165.18C498.182 164.782 498.243 164.384 498.381 164.009C498.518 163.635 498.729 163.292 499 163C499.29 162.729 499.631 162.52 500.004 162.386C500.378 162.252 500.774 162.195 501.17 162.22C501.524 162.218 501.877 162.262 502.22 162.35L502.14 163.59C501.867 163.537 501.589 163.51 501.31 163.51C501.1 163.498 500.889 163.531 500.693 163.607C500.496 163.683 500.318 163.8 500.17 163.95C499.878 164.295 499.732 164.739 499.76 165.19V166.14H501.67V167.32H499.76V175H498.2Z" fill="black"/>
<path d="M323.29 190.62V195.33H321.7V183.33H326.14C327.259 183.264 328.362 183.621 329.23 184.33C329.938 185.042 330.336 186.006 330.336 187.01C330.336 188.014 329.938 188.978 329.23 189.69C328.339 190.393 327.223 190.748 326.09 190.69L323.29 190.62ZM323.29 189.32H326.14C326.842 189.367 327.536 189.153 328.09 188.72C328.322 188.499 328.502 188.229 328.618 187.93C328.734 187.631 328.782 187.31 328.76 186.99C328.776 186.672 328.724 186.355 328.609 186.058C328.493 185.762 328.316 185.493 328.09 185.27C327.577 184.82 326.912 184.58 326.23 184.6H323.29V189.32Z" fill="black"/>
<path d="M331.62 190.78C331.605 189.96 331.783 189.148 332.14 188.41C332.455 187.749 332.951 187.19 333.57 186.8C334.203 186.416 334.93 186.219 335.67 186.23C336.232 186.203 336.794 186.303 337.313 186.52C337.832 186.738 338.295 187.07 338.67 187.49C339.453 188.429 339.853 189.629 339.79 190.85V191C339.805 191.807 339.637 192.607 339.3 193.34C338.989 194.003 338.492 194.562 337.87 194.95C337.227 195.345 336.484 195.546 335.73 195.53C335.177 195.55 334.627 195.447 334.119 195.229C333.611 195.011 333.157 194.684 332.79 194.27C332.005 193.335 331.602 192.139 331.66 190.92L331.62 190.78ZM333.16 190.96C333.118 191.808 333.361 192.646 333.85 193.34C334.068 193.622 334.347 193.851 334.667 194.008C334.987 194.165 335.339 194.247 335.695 194.247C336.051 194.247 336.403 194.165 336.723 194.008C337.043 193.851 337.322 193.622 337.54 193.34C338.041 192.587 338.283 191.692 338.23 190.79C338.266 189.938 338.02 189.098 337.53 188.4C337.316 188.11 337.035 187.875 336.712 187.717C336.388 187.559 336.03 187.481 335.67 187.49C335.317 187.482 334.966 187.559 334.649 187.716C334.333 187.873 334.058 188.104 333.85 188.39C333.337 189.159 333.094 190.077 333.16 191V190.96Z" fill="black"/>
<path d="M343.33 195.33H341.8V182.64H343.33V195.33Z" fill="black"/>
<path d="M348.7 193.09L350.78 186.39H352.41L348.82 196.71C348.27 198.19 347.38 198.93 346.17 198.93H345.88L345.31 198.82V197.58H345.72C346.147 197.606 346.571 197.493 346.93 197.26C347.279 196.961 347.53 196.564 347.65 196.12L347.99 195.21L344.8 186.37H346.47L348.7 193.09Z" fill="black"/>
<path d="M357.25 194.24C357.77 194.251 358.276 194.077 358.68 193.75C358.873 193.602 359.034 193.415 359.151 193.202C359.268 192.988 359.339 192.752 359.36 192.51H360.8C360.768 193.037 360.584 193.544 360.27 193.97C359.937 194.443 359.49 194.825 358.97 195.08C358.437 195.35 357.848 195.491 357.25 195.49C356.706 195.515 356.164 195.418 355.662 195.207C355.161 194.996 354.712 194.676 354.35 194.27C353.586 193.334 353.201 192.146 353.27 190.94V190.69C353.254 189.89 353.418 189.097 353.75 188.37C354.043 187.718 354.524 187.168 355.13 186.79C355.764 186.402 356.497 186.207 357.24 186.23C358.158 186.197 359.054 186.519 359.74 187.13C360.067 187.425 360.33 187.784 360.512 188.185C360.695 188.585 360.793 189.02 360.8 189.46H359.36C359.326 188.92 359.091 188.413 358.7 188.04C358.507 187.853 358.278 187.707 358.027 187.611C357.776 187.515 357.508 187.47 357.24 187.48C356.894 187.464 356.55 187.532 356.237 187.678C355.923 187.825 355.65 188.045 355.44 188.32C354.968 189.035 354.743 189.885 354.8 190.74V191C354.748 191.84 354.969 192.675 355.43 193.38C355.64 193.661 355.916 193.886 356.233 194.036C356.55 194.186 356.899 194.256 357.25 194.24V194.24Z" fill="black"/>
<path d="M364.05 187.47C364.362 187.071 364.764 186.752 365.223 186.536C365.681 186.321 366.184 186.216 366.69 186.23C368.577 186.23 369.53 187.293 369.55 189.42V195.33H368V189.41C368.041 188.898 367.884 188.389 367.56 187.99C367.38 187.822 367.167 187.694 366.935 187.613C366.702 187.532 366.455 187.5 366.21 187.52C365.742 187.51 365.283 187.65 364.9 187.92C364.531 188.176 364.232 188.519 364.03 188.92V195.29H362.5V182.64H364.03L364.05 187.47Z" fill="black"/>
<path d="M373.49 195.33H372V182.64H373.52L373.49 195.33Z" fill="black"/>
<path d="M375.53 190.78C375.52 189.96 375.698 189.15 376.05 188.41C376.365 187.746 376.865 187.187 377.49 186.8C378.121 186.414 378.85 186.216 379.59 186.23C380.152 186.202 380.714 186.3 381.233 186.518C381.753 186.737 382.216 187.068 382.59 187.49C383.376 188.428 383.78 189.627 383.72 190.85V191C383.732 191.807 383.561 192.607 383.22 193.34C382.911 194.005 382.414 194.565 381.79 194.95C381.15 195.344 380.411 195.545 379.66 195.53C379.106 195.55 378.554 195.448 378.044 195.23C377.534 195.012 377.078 194.684 376.71 194.27C375.925 193.335 375.522 192.139 375.58 190.92L375.53 190.78ZM377.07 190.96C377.028 191.808 377.27 192.646 377.76 193.34C377.979 193.622 378.259 193.851 378.58 194.008C378.9 194.165 379.253 194.247 379.61 194.247C379.967 194.247 380.32 194.165 380.64 194.008C380.961 193.851 381.241 193.622 381.46 193.34C381.953 192.584 382.192 191.691 382.14 190.79C382.181 189.937 381.934 189.096 381.44 188.4C381.223 188.118 380.945 187.889 380.626 187.732C380.307 187.575 379.956 187.493 379.6 187.493C379.244 187.493 378.893 187.575 378.574 187.732C378.255 187.889 377.977 188.118 377.76 188.4C377.249 189.166 377.006 190.081 377.07 191V190.96Z" fill="black"/>
<path d="M389.9 187.76C389.652 187.718 389.401 187.698 389.15 187.7C388.724 187.672 388.299 187.781 387.939 188.011C387.58 188.241 387.303 188.581 387.15 188.98V195.33H385.62V186.39H387.11V187.39C387.328 187.018 387.641 186.712 388.018 186.503C388.394 186.293 388.82 186.189 389.25 186.2C389.479 186.19 389.707 186.227 389.92 186.31L389.9 187.76Z" fill="black"/>
<path d="M391.31 184C391.305 183.769 391.387 183.544 391.54 183.37C391.628 183.281 391.735 183.213 391.852 183.17C391.97 183.127 392.095 183.11 392.22 183.12C392.343 183.111 392.467 183.128 392.583 183.171C392.698 183.214 392.803 183.282 392.89 183.37C393.047 183.542 393.129 183.768 393.12 184C393.126 184.114 393.108 184.227 393.069 184.334C393.029 184.44 392.968 184.538 392.89 184.62C392.803 184.708 392.698 184.776 392.583 184.819C392.467 184.862 392.343 184.88 392.22 184.87C392.095 184.88 391.97 184.863 391.852 184.82C391.735 184.777 391.628 184.709 391.54 184.62C391.386 184.451 391.303 184.229 391.31 184V184ZM393 195.33H391.47V186.39H393V195.33Z" fill="black"/>
<path d="M396.86 186.39V187.51C397.175 187.101 397.582 186.773 398.047 186.55C398.513 186.328 399.024 186.218 399.54 186.23C401.433 186.23 402.387 187.293 402.4 189.42V195.33H400.87V189.41C400.911 188.898 400.754 188.389 400.43 187.99C400.25 187.822 400.037 187.693 399.805 187.613C399.572 187.532 399.325 187.5 399.08 187.52C398.612 187.51 398.153 187.65 397.77 187.92C397.401 188.175 397.102 188.519 396.9 188.92V195.29H395.37V186.35L396.86 186.39Z" fill="black"/>
<path d="M410.26 195.33C410.135 195.01 410.061 194.673 410.04 194.33C409.718 194.683 409.326 194.964 408.888 195.156C408.451 195.347 407.978 195.444 407.5 195.44C406.708 195.471 405.934 195.203 405.33 194.69C405.059 194.457 404.842 194.167 404.697 193.84C404.552 193.513 404.481 193.158 404.49 192.8C404.472 192.379 404.559 191.959 404.744 191.58C404.93 191.201 405.206 190.875 405.55 190.63C406.443 190.062 407.494 189.793 408.55 189.86H410V189.16C410.012 188.925 409.975 188.691 409.893 188.47C409.81 188.25 409.683 188.049 409.52 187.88C409.128 187.548 408.623 187.38 408.11 187.41C407.62 187.39 407.138 187.534 406.74 187.82C406.573 187.929 406.434 188.077 406.336 188.251C406.239 188.425 406.185 188.621 406.18 188.82H404.65C404.659 188.35 404.824 187.896 405.12 187.53C405.457 187.092 405.902 186.748 406.41 186.53C406.975 186.285 407.585 186.163 408.2 186.17C409.074 186.117 409.937 186.391 410.62 186.94C410.913 187.209 411.146 187.537 411.303 187.902C411.46 188.268 411.537 188.662 411.53 189.06V193.18C411.503 193.844 411.608 194.507 411.84 195.13V195.27L410.26 195.33ZM407.72 194.16C408.202 194.162 408.675 194.034 409.09 193.79C409.495 193.56 409.819 193.211 410.02 192.79V191H408.82C406.95 191 406.01 191.55 406.01 192.64C405.999 192.853 406.036 193.065 406.12 193.261C406.203 193.456 406.329 193.631 406.49 193.77C406.84 194.044 407.276 194.183 407.72 194.16V194.16Z" fill="black"/>
<path d="M416 184.23V186.39H417.67V187.57H416V193.12C415.98 193.409 416.061 193.695 416.23 193.93C416.328 194.03 416.447 194.106 416.579 194.153C416.71 194.199 416.851 194.216 416.99 194.2C417.232 194.187 417.473 194.154 417.71 194.1V195.33C417.329 195.436 416.935 195.49 416.54 195.49C416.253 195.512 415.965 195.468 415.697 195.36C415.43 195.253 415.192 195.085 415 194.87C414.622 194.364 414.437 193.74 414.48 193.11V187.57H412.85V186.39H414.48V184.23H416Z" fill="black"/>
<path d="M423.17 195.49C422.622 195.51 422.077 195.414 421.569 195.209C421.06 195.004 420.601 194.694 420.22 194.3C419.432 193.43 419.022 192.282 419.08 191.11V190.83C419.067 190.009 419.238 189.196 419.58 188.45C419.898 187.785 420.392 187.221 421.01 186.82C421.601 186.424 422.299 186.218 423.01 186.23C423.519 186.202 424.027 186.29 424.496 186.488C424.966 186.685 425.384 186.987 425.72 187.37C426.432 188.314 426.786 189.48 426.72 190.66V191.3H420.6C420.588 192.082 420.866 192.841 421.38 193.43C421.616 193.694 421.906 193.903 422.231 194.043C422.555 194.183 422.907 194.25 423.26 194.24C423.738 194.253 424.211 194.139 424.63 193.91C425.016 193.686 425.355 193.391 425.63 193.04L426.56 193.77C426.2 194.333 425.695 194.789 425.099 195.091C424.503 195.394 423.837 195.532 423.17 195.49ZM422.98 187.49C422.689 187.487 422.401 187.544 422.134 187.66C421.867 187.775 421.627 187.946 421.43 188.16C420.975 188.691 420.702 189.353 420.65 190.05H425.13V189.94C425.134 189.282 424.911 188.643 424.5 188.13C424.313 187.919 424.081 187.751 423.822 187.638C423.563 187.526 423.282 187.472 423 187.48L422.98 187.49Z" fill="black"/>
<path d="M428.05 190.78C427.999 189.599 428.352 188.435 429.05 187.48C429.348 187.111 429.721 186.809 430.145 186.597C430.57 186.384 431.035 186.265 431.509 186.248C431.983 186.231 432.455 186.316 432.894 186.498C433.332 186.679 433.727 186.953 434.05 187.3V182.64H435.58V195.33H434.18L434.1 194.33C433.792 194.703 433.401 194.998 432.958 195.193C432.515 195.387 432.033 195.475 431.55 195.45C431.056 195.463 430.567 195.354 430.126 195.132C429.684 194.911 429.305 194.584 429.02 194.18C428.324 193.217 427.972 192.048 428.02 190.86L428.05 190.78ZM429.58 190.96C429.535 191.8 429.755 192.633 430.21 193.34C430.402 193.618 430.662 193.843 430.964 193.993C431.267 194.143 431.602 194.215 431.94 194.2C432.384 194.219 432.823 194.104 433.201 193.871C433.579 193.637 433.878 193.296 434.06 192.89V188.79C433.873 188.396 433.574 188.066 433.2 187.84C432.827 187.615 432.396 187.503 431.96 187.52C431.618 187.503 431.278 187.575 430.972 187.727C430.665 187.879 430.403 188.108 430.21 188.39C429.73 189.172 429.51 190.085 429.58 191V190.96Z" fill="black"/>
<path d="M442.39 195.33V183.33H446.32C447.364 183.255 448.402 183.541 449.26 184.14C449.601 184.436 449.868 184.806 450.042 185.223C450.215 185.639 450.29 186.09 450.26 186.54C450.268 187.076 450.099 187.6 449.78 188.03C449.443 188.473 448.995 188.818 448.48 189.03C449.091 189.18 449.634 189.533 450.02 190.03C450.399 190.56 450.596 191.199 450.58 191.85C450.605 192.325 450.523 192.799 450.342 193.239C450.16 193.678 449.883 194.071 449.53 194.39C448.683 195.067 447.611 195.399 446.53 195.32L442.39 195.33ZM443.97 188.43H446.37C446.968 188.463 447.558 188.278 448.03 187.91C448.237 187.738 448.402 187.52 448.511 187.274C448.62 187.028 448.671 186.759 448.66 186.49C448.682 186.222 448.641 185.952 448.541 185.702C448.44 185.451 448.282 185.228 448.08 185.05C447.558 184.712 446.94 184.554 446.32 184.6H444L443.97 188.43ZM443.97 189.7V194H446.59C447.224 194.036 447.848 193.832 448.34 193.43C448.555 193.227 448.723 192.979 448.833 192.705C448.944 192.431 448.994 192.136 448.98 191.84C448.98 190.4 448.19 189.67 446.62 189.67L443.97 189.7Z" fill="black"/>
<path d="M452.68 184C452.675 183.769 452.757 183.544 452.91 183.37C452.998 183.281 453.105 183.213 453.222 183.17C453.34 183.127 453.465 183.11 453.59 183.12C453.713 183.111 453.837 183.128 453.953 183.171C454.068 183.214 454.173 183.282 454.26 183.37C454.417 183.542 454.5 183.768 454.49 184C454.496 184.114 454.478 184.227 454.439 184.334C454.399 184.44 454.338 184.538 454.26 184.62C454.173 184.708 454.068 184.776 453.953 184.819C453.837 184.862 453.713 184.88 453.59 184.87C453.465 184.88 453.34 184.863 453.222 184.82C453.105 184.777 452.998 184.709 452.91 184.62C452.756 184.451 452.673 184.229 452.68 184V184ZM454.34 195.31H452.81V186.37H454.34V195.31Z" fill="black"/>
<path d="M464.33 191C464.388 192.167 464.058 193.321 463.39 194.28C463.104 194.678 462.725 195.001 462.286 195.218C461.846 195.436 461.36 195.543 460.87 195.53C460.396 195.56 459.922 195.485 459.479 195.313C459.037 195.14 458.638 194.873 458.31 194.53V198.83H456.78V186.39H458.18L458.25 187.39C458.561 187.009 458.958 186.706 459.408 186.506C459.858 186.306 460.348 186.215 460.84 186.24C461.332 186.217 461.822 186.315 462.266 186.526C462.711 186.737 463.097 187.054 463.39 187.45C464.067 188.442 464.398 189.63 464.33 190.83V191ZM462.8 190.82C462.847 189.978 462.623 189.144 462.16 188.44C461.962 188.157 461.696 187.929 461.387 187.775C461.078 187.621 460.735 187.547 460.39 187.56C459.962 187.545 459.539 187.652 459.17 187.87C458.801 188.088 458.503 188.407 458.31 188.79V193C458.505 193.384 458.807 193.704 459.179 193.921C459.552 194.137 459.98 194.241 460.41 194.22C460.749 194.23 461.086 194.156 461.39 194.004C461.694 193.852 461.955 193.628 462.15 193.35C462.631 192.582 462.858 191.683 462.8 190.78V190.82Z" fill="black"/>
<path d="M467.8 187.47C468.111 187.07 468.513 186.75 468.972 186.534C469.43 186.319 469.933 186.214 470.44 186.23C472.327 186.23 473.28 187.293 473.3 189.42V195.33H471.77V189.41C471.811 188.898 471.654 188.389 471.33 187.99C471.15 187.822 470.937 187.694 470.705 187.613C470.472 187.532 470.225 187.5 469.98 187.52C469.512 187.51 469.053 187.65 468.67 187.92C468.301 188.176 468.002 188.519 467.8 188.92V195.29H466.27V182.64H467.8V187.47Z" fill="black"/>
<path d="M479.29 195.49C478.734 195.515 478.179 195.422 477.662 195.217C477.145 195.012 476.677 194.7 476.29 194.3C475.502 193.43 475.092 192.282 475.15 191.11V190.83C475.135 190.008 475.31 189.194 475.66 188.45C475.975 187.787 476.466 187.223 477.08 186.82C477.672 186.427 478.369 186.221 479.08 186.23C479.588 186.202 480.097 186.29 480.566 186.488C481.036 186.685 481.454 186.987 481.79 187.37C482.502 188.314 482.856 189.48 482.79 190.66V191.3H476.73C476.715 192.081 476.989 192.84 477.5 193.43C477.736 193.693 478.026 193.902 478.351 194.042C478.675 194.182 479.027 194.249 479.38 194.24C479.858 194.256 480.331 194.142 480.75 193.91C481.137 193.688 481.477 193.393 481.75 193.04L482.68 193.77C482.319 194.333 481.815 194.789 481.219 195.091C480.623 195.394 479.957 195.532 479.29 195.49V195.49ZM479.1 187.49C478.809 187.486 478.52 187.544 478.253 187.659C477.986 187.774 477.746 187.945 477.55 188.16C477.095 188.691 476.822 189.353 476.77 190.05H481.25V189.94C481.243 189.284 481.022 188.648 480.62 188.13C480.43 187.916 480.196 187.747 479.933 187.634C479.67 187.522 479.386 187.469 479.1 187.48V187.49Z" fill="black"/>
<path d="M486 186.39L486.05 187.51C486.362 187.101 486.767 186.772 487.231 186.549C487.695 186.327 488.206 186.217 488.72 186.23C490.613 186.23 491.567 187.293 491.58 189.42V195.33H490V189.41C490.041 188.898 489.884 188.389 489.56 187.99C489.38 187.822 489.167 187.694 488.935 187.613C488.702 187.532 488.455 187.5 488.21 187.52C487.742 187.51 487.283 187.65 486.9 187.92C486.531 188.176 486.232 188.519 486.03 188.92V195.29H484.5V186.35L486 186.39Z" fill="black"/>
<path d="M496.8 193.09L498.88 186.39H500.51L496.92 196.71C496.36 198.19 495.48 198.93 494.27 198.93H493.98L493.41 198.82V197.58H493.82C494.247 197.606 494.671 197.493 495.03 197.26C495.379 196.961 495.63 196.564 495.75 196.12L496.09 195.21L492.9 186.37H494.57L496.8 193.09Z" fill="black"/>
<path d="M503.53 195.33H502V182.64H503.52L503.53 195.33Z" fill="black"/>
<path d="M511.18 193C511.195 192.808 511.16 192.615 511.08 192.44C510.999 192.265 510.875 192.114 510.72 192C510.216 191.708 509.664 191.508 509.09 191.41C508.453 191.295 507.835 191.097 507.25 190.82C506.852 190.633 506.508 190.347 506.25 189.99C506.027 189.652 505.912 189.255 505.92 188.85C505.92 188.491 506.003 188.136 506.165 187.815C506.326 187.493 506.561 187.214 506.85 187C507.527 186.472 508.371 186.202 509.23 186.24C510.116 186.2 510.988 186.477 511.69 187.02C511.992 187.258 512.235 187.562 512.399 187.909C512.564 188.256 512.647 188.636 512.64 189.02H511.1C511.099 188.812 511.051 188.606 510.959 188.419C510.867 188.232 510.734 188.068 510.57 187.94C510.194 187.628 509.718 187.465 509.23 187.48C508.766 187.453 508.305 187.58 507.92 187.84C507.772 187.95 507.653 188.094 507.571 188.259C507.489 188.424 507.448 188.606 507.45 188.79C507.442 188.957 507.479 189.122 507.556 189.27C507.634 189.417 507.749 189.542 507.89 189.63C508.386 189.889 508.919 190.071 509.47 190.17C510.109 190.297 510.73 190.502 511.32 190.78C511.741 190.967 512.106 191.26 512.38 191.63C512.613 191.994 512.731 192.419 512.72 192.85C512.725 193.228 512.637 193.601 512.462 193.936C512.288 194.272 512.033 194.558 511.72 194.77C510.996 195.278 510.123 195.531 509.24 195.49C508.587 195.502 507.938 195.372 507.34 195.11C506.818 194.883 506.368 194.516 506.04 194.05C505.738 193.62 505.577 193.106 505.58 192.58H507.11C507.113 192.815 507.17 193.046 507.276 193.255C507.381 193.465 507.533 193.648 507.72 193.79C508.161 194.109 508.697 194.267 509.24 194.24C509.728 194.266 510.212 194.144 510.63 193.89C510.791 193.802 510.926 193.674 511.022 193.518C511.119 193.362 511.173 193.183 511.18 193V193Z" fill="black"/>
<path d="M391.73 210.74C391.727 209.529 391.896 208.324 392.23 207.16C392.548 206.04 393.052 204.982 393.72 204.03C394.248 203.217 394.952 202.533 395.78 202.03L396.09 203.03C395.188 203.779 394.499 204.751 394.09 205.85C393.562 207.209 393.278 208.651 393.25 210.11V210.81C393.205 212.718 393.602 214.611 394.41 216.34C394.807 217.181 395.376 217.931 396.08 218.54L395.77 219.47C394.926 218.952 394.208 218.251 393.67 217.42C392.347 215.448 391.67 213.114 391.73 210.74V210.74Z" fill="black"/>
<path d="M399.39 210.91V215.62H397.81V203.62H402.24C403.362 203.552 404.469 203.909 405.34 204.62C405.707 204.959 405.996 205.373 406.187 205.833C406.379 206.294 406.469 206.791 406.45 207.29C406.482 207.793 406.4 208.296 406.212 208.764C406.023 209.231 405.732 209.65 405.36 209.99C404.465 210.672 403.353 211.007 402.23 210.93L399.39 210.91ZM399.39 209.62H402.24C402.942 209.668 403.637 209.455 404.19 209.02C404.424 208.797 404.605 208.526 404.723 208.225C404.84 207.925 404.891 207.602 404.87 207.28C404.883 206.962 404.829 206.644 404.712 206.348C404.595 206.052 404.417 205.783 404.19 205.56C403.678 205.108 403.013 204.868 402.33 204.89H399.39V209.62Z" fill="black"/>
<path d="M417.32 211.81C417.242 212.934 416.738 213.985 415.91 214.75C415.019 215.46 413.897 215.816 412.76 215.75C412.112 215.773 411.468 215.647 410.877 215.382C410.286 215.117 409.763 214.719 409.35 214.22C408.442 213.056 407.984 211.604 408.06 210.13V209C408.039 207.988 408.244 206.983 408.66 206.06C409.017 205.24 409.609 204.545 410.36 204.06C411.126 203.599 412.006 203.363 412.9 203.38C414.04 203.334 415.152 203.736 416 204.5C416.81 205.294 417.289 206.366 417.34 207.5H415.75C415.691 206.722 415.374 205.987 414.85 205.41C414.314 204.954 413.622 204.725 412.92 204.77C412.462 204.751 412.007 204.843 411.593 205.038C411.178 205.233 410.817 205.525 410.54 205.89C409.913 206.835 409.611 207.958 409.68 209.09V210.26C409.622 211.357 409.909 212.444 410.5 213.37C410.75 213.741 411.09 214.043 411.489 214.246C411.888 214.449 412.333 214.547 412.78 214.53C413.496 214.571 414.205 214.359 414.78 213.93C415.327 213.368 415.66 212.632 415.72 211.85L417.32 211.81Z" fill="black"/>
<path d="M419.48 215.62V203.62H423.42C424.464 203.544 425.502 203.83 426.36 204.43C426.701 204.723 426.968 205.092 427.142 205.507C427.315 205.922 427.39 206.371 427.36 206.82C427.368 207.356 427.199 207.879 426.88 208.31C426.542 208.756 426.089 209.101 425.57 209.31C426.18 209.463 426.722 209.815 427.11 210.31C427.493 210.838 427.693 211.477 427.68 212.13C427.704 212.606 427.622 213.082 427.441 213.522C427.259 213.963 426.982 214.359 426.63 214.68C425.778 215.346 424.709 215.674 423.63 215.6L419.48 215.62ZM421.07 208.73H423.47C424.069 208.758 424.658 208.57 425.13 208.2C425.32 208.014 425.472 207.791 425.575 207.546C425.679 207.3 425.732 207.036 425.732 206.77C425.732 206.503 425.679 206.24 425.575 205.994C425.472 205.748 425.32 205.526 425.13 205.34C424.612 205.002 423.997 204.844 423.38 204.89H421.03L421.07 208.73ZM421.07 210V214.32H423.69C424.321 214.355 424.942 214.151 425.43 213.75C425.646 213.55 425.816 213.305 425.927 213.031C426.037 212.758 426.086 212.464 426.07 212.17C426.07 210.72 425.29 210 423.71 210H421.07Z" fill="black"/>
<path d="M435 213.25C435.014 213.057 434.978 212.864 434.896 212.689C434.813 212.513 434.687 212.362 434.53 212.25C434.032 211.946 433.477 211.745 432.9 211.66C432.265 211.534 431.647 211.333 431.06 211.06C430.664 210.873 430.32 210.592 430.06 210.24C429.841 209.901 429.729 209.503 429.74 209.1C429.74 208.739 429.825 208.383 429.986 208.06C430.147 207.738 430.381 207.457 430.67 207.24C431.344 206.713 432.185 206.443 433.04 206.48C433.927 206.44 434.798 206.716 435.5 207.26C435.802 207.497 436.045 207.802 436.209 208.148C436.374 208.495 436.457 208.876 436.45 209.26H434.91C434.911 209.051 434.864 208.845 434.772 208.658C434.68 208.47 434.546 208.307 434.38 208.18C434.003 207.872 433.526 207.712 433.04 207.73C432.579 207.701 432.121 207.828 431.74 208.09C431.581 208.202 431.454 208.353 431.37 208.528C431.286 208.703 431.248 208.896 431.26 209.09C431.252 209.255 431.289 209.419 431.366 209.565C431.443 209.711 431.559 209.834 431.7 209.92C432.195 210.183 432.728 210.365 433.28 210.46C433.922 210.587 434.547 210.792 435.14 211.07C435.555 211.263 435.915 211.555 436.19 211.92C436.426 212.282 436.544 212.708 436.53 213.14C436.539 213.513 436.458 213.883 436.292 214.217C436.127 214.552 435.882 214.841 435.58 215.06C434.854 215.573 433.978 215.83 433.09 215.79C432.437 215.801 431.789 215.672 431.19 215.41C430.67 215.178 430.224 214.808 429.9 214.34C429.595 213.911 429.43 213.397 429.43 212.87H430.96C430.965 213.107 431.024 213.339 431.131 213.551C431.238 213.762 431.392 213.946 431.58 214.09C432.017 214.408 432.55 214.567 433.09 214.54C433.578 214.562 434.061 214.44 434.48 214.19C434.64 214.091 434.771 213.952 434.862 213.788C434.954 213.623 435.001 213.438 435 213.25V213.25Z" fill="black"/>
<path d="M442 210.82C442.005 212.013 441.844 213.201 441.52 214.35C441.204 215.465 440.704 216.519 440.04 217.47C439.505 218.287 438.79 218.971 437.95 219.47L437.63 218.54C438.578 217.749 439.287 216.71 439.68 215.54C440.206 214.081 440.47 212.541 440.46 210.99V210.72C440.468 209.636 440.347 208.555 440.1 207.5C439.886 206.57 439.55 205.672 439.1 204.83C438.737 204.128 438.241 203.503 437.64 202.99L437.96 202.05C438.795 202.551 439.506 203.235 440.04 204.05C440.701 204.998 441.201 206.049 441.52 207.16C441.853 208.351 442.015 209.583 442 210.82V210.82Z" fill="black"/>
<path d="M382.92 98.1302L380.46 94.5802H377.74V98.1302H374.79V85.3802H380.31C381.319 85.3579 382.32 85.5488 383.25 85.9402C384.043 86.2751 384.716 86.8422 385.18 87.567C385.644 88.2917 385.877 89.14 385.85 90.0002C385.874 90.856 385.635 91.6986 385.164 92.4139C384.694 93.1293 384.015 93.683 383.22 94.0002L386.08 98.1002L382.92 98.1302ZM382.17 88.3602C381.592 87.939 380.884 87.7337 380.17 87.7802H377.76V92.2302H380.17C380.885 92.2737 381.593 92.0649 382.17 91.6402C382.389 91.4268 382.563 91.1718 382.682 90.8901C382.801 90.6085 382.862 90.3059 382.862 90.0002C382.862 89.6945 382.801 89.3919 382.682 89.1102C382.563 88.8285 382.389 88.5735 382.17 88.3602V88.3602Z" fill="#49773D"/>
<path d="M398.05 95.7599V98.1299H388.18V85.3799H397.81V87.7499H391.11V90.5099H397V92.8099H391.08V95.8099L398.05 95.7599Z" fill="#49773D"/>
<path d="M409 91.5501H411.69V96.7301C410.966 97.2671 410.154 97.6732 409.29 97.93C408.4 98.2068 407.473 98.3484 406.54 98.35C405.308 98.363 404.092 98.071 403 97.5C401.97 96.9599 401.109 96.1469 400.51 95.15C399.92 94.1159 399.609 92.9457 399.609 91.755C399.609 90.5643 399.92 89.3942 400.51 88.36C401.101 87.3545 401.964 86.5364 403 86C404.11 85.4206 405.348 85.1284 406.6 85.15C407.627 85.1425 408.645 85.3326 409.6 85.71C410.483 86.0715 411.27 86.6329 411.9 87.35L410 89.11C409.585 88.6512 409.076 88.2856 408.509 88.0373C407.942 87.7891 407.329 87.6639 406.71 87.67C405.955 87.6549 405.209 87.8303 404.54 88.18C403.922 88.5087 403.411 89.0087 403.07 89.62C402.722 90.2744 402.541 91.0041 402.541 91.745C402.541 92.486 402.722 93.2157 403.07 93.8701C403.413 94.4767 403.919 94.9754 404.53 95.31C405.186 95.6653 405.924 95.8445 406.67 95.83C407.469 95.8424 408.26 95.6569 408.97 95.29L409 91.5501Z" fill="#49773D"/>
<path d="M414.4 85.3799H417.4V98.1299H414.4V85.3799Z" fill="#49773D"/>
<path d="M423 97.4902C421.969 96.9465 421.108 96.1301 420.51 95.1302C419.921 94.1012 419.61 92.936 419.61 91.7502C419.61 90.5644 419.921 89.3992 420.51 88.3702C421.106 87.366 421.968 86.5458 423 86.0002C424.107 85.4349 425.332 85.1401 426.575 85.1401C427.818 85.1401 429.043 85.4349 430.15 86.0002C431.189 86.5547 432.058 87.3811 432.664 88.3913C433.271 89.4014 433.591 90.5572 433.591 91.7352C433.591 92.9132 433.271 94.069 432.664 95.0792C432.058 96.0893 431.189 96.9158 430.15 97.4702C429.043 98.0355 427.818 98.3303 426.575 98.3303C425.332 98.3303 424.107 98.0355 423 97.4702V97.4902ZM428.62 95.3102C429.202 94.9644 429.679 94.4666 430 93.8702C430.342 93.2176 430.52 92.4919 430.52 91.7552C430.52 91.0185 430.342 90.2928 430 89.6402C429.666 89.0345 429.171 88.5328 428.57 88.1902C427.944 87.8489 427.243 87.67 426.53 87.67C425.817 87.67 425.116 87.8489 424.49 88.1902C423.889 88.5328 423.394 89.0345 423.06 89.6402C422.718 90.2928 422.54 91.0185 422.54 91.7552C422.54 92.4919 422.718 93.2176 423.06 93.8702C423.394 94.4732 423.889 94.9716 424.49 95.3102C425.116 95.6516 425.817 95.8304 426.53 95.8304C427.243 95.8304 427.944 95.6516 428.57 95.3102H428.62Z" fill="#49773D"/>
<path d="M447.44 85.3799V98.1299H445L438.64 90.3899V98.1299H435.73V85.3799H438.17L444.51 93.1199V85.3799H447.44Z" fill="#49773D"/>
<path d="M451.73 97.94C450.915 97.723 450.146 97.3605 449.46 96.87L450.46 94.65C451.067 95.0911 451.743 95.429 452.46 95.65C453.189 95.8935 453.952 96.0184 454.72 96.02C455.363 96.0626 456.005 95.9313 456.58 95.64C456.763 95.5454 456.916 95.4018 457.022 95.2252C457.128 95.0486 457.183 94.846 457.18 94.64C457.182 94.4958 457.15 94.3531 457.087 94.2231C457.025 94.093 456.934 93.979 456.82 93.89C456.55 93.6715 456.241 93.5053 455.91 93.4C455.54 93.28 455.04 93.15 454.41 93C453.603 92.8189 452.808 92.5885 452.03 92.31C451.412 92.0801 450.862 91.6984 450.43 91.2C449.975 90.635 449.741 89.9246 449.77 89.2C449.764 88.4882 449.973 87.7912 450.37 87.2C450.82 86.556 451.449 86.0586 452.18 85.77C453.133 85.3881 454.154 85.2076 455.18 85.24C455.985 85.241 456.788 85.3383 457.57 85.53C458.275 85.7077 458.949 85.9909 459.57 86.37L458.65 88.61C457.583 87.9688 456.365 87.6236 455.12 87.61C454.484 87.5644 453.849 87.7033 453.29 88.01C453.117 88.1153 452.972 88.2616 452.87 88.436C452.767 88.6105 452.708 88.8077 452.7 89.01C452.689 89.2281 452.749 89.4439 452.872 89.6245C452.994 89.805 453.173 89.9405 453.38 90.01C454.054 90.2875 454.754 90.4985 455.47 90.64C456.276 90.8225 457.071 91.053 457.85 91.33C458.465 91.5569 459.014 91.9312 459.45 92.42C459.909 92.9823 460.144 93.6947 460.11 94.42C460.117 95.1336 459.904 95.832 459.5 96.42C459.042 97.0643 458.406 97.5612 457.67 97.85C456.717 98.2306 455.696 98.411 454.67 98.38C453.674 98.3734 452.684 98.2253 451.73 97.94V97.94Z" fill="#49773D"/>
<path d="M350.72 107.23H353.67V120H350.72V107.23Z" fill="#49773D"/>
<path d="M368.39 107.23V120H366L359.64 112.26V120H356.7V107.23H359.14L365.48 114.97V107.23H368.39Z" fill="#49773D"/>
<path d="M376.57 107.23H379.52V120H376.57V107.23Z" fill="#49773D"/>
<path d="M394.23 107.23V120H391.81L385.46 112.26V120H382.54V107.23H385L391.34 114.97V107.23H394.23Z" fill="#49773D"/>
<path d="M397.26 107.23H403.05C404.319 107.206 405.576 107.48 406.72 108.03C407.744 108.519 408.605 109.294 409.2 110.26C409.777 111.282 410.079 112.436 410.079 113.61C410.079 114.784 409.777 115.938 409.2 116.96C408.601 117.923 407.741 118.696 406.72 119.19C405.575 119.736 404.318 120.007 403.05 119.98H397.26V107.23ZM402.9 117.56C404.017 117.616 405.112 117.232 405.95 116.49C406.683 115.708 407.09 114.676 407.09 113.605C407.09 112.533 406.683 111.502 405.95 110.72C405.111 109.981 404.016 109.6 402.9 109.66H400.21V117.56H402.9Z" fill="#49773D"/>
<path d="M414.89 119.34C413.862 118.803 413 117.993 412.4 117C411.811 115.971 411.5 114.806 411.5 113.62C411.5 112.434 411.811 111.269 412.4 110.24C412.998 109.24 413.86 108.424 414.89 107.88C415.993 107.3 417.224 107.004 418.47 107.02C419.714 107 420.942 107.296 422.04 107.88C423.072 108.426 423.936 109.242 424.54 110.24C425.136 111.267 425.45 112.433 425.45 113.62C425.45 114.807 425.136 115.973 424.54 117C423.935 117.995 423.071 118.808 422.04 119.35C420.944 119.938 419.714 120.234 418.47 120.21C417.222 120.228 415.99 119.928 414.89 119.34V119.34ZM420.51 117.17C421.113 116.83 421.609 116.328 421.94 115.72C422.282 115.069 422.46 114.345 422.46 113.61C422.46 112.875 422.282 112.151 421.94 111.5C421.611 110.89 421.115 110.387 420.51 110.05C419.9 109.704 419.211 109.525 418.51 109.53C417.809 109.525 417.12 109.704 416.51 110.05C415.88 110.381 415.356 110.883 415 111.5C414.665 112.153 414.49 112.876 414.49 113.61C414.49 114.344 414.665 115.067 415 115.72C415.337 116.323 415.831 116.825 416.43 117.17C417.042 117.51 417.73 117.689 418.43 117.69C419.157 117.706 419.876 117.526 420.51 117.17V117.17Z" fill="#49773D"/>
<path d="M439.36 107.23V120H436.94L430.59 112.26V120H427.67V107.23H430.11L436.45 114.97V107.23H439.36Z" fill="#49773D"/>
<path d="M452.26 117.61V120H442.39V107.23H452V109.6H445.3V112.37H451.22V114.66H445.3V117.66L452.26 117.61Z" fill="#49773D"/>
<path d="M455.87 119.79C455.056 119.576 454.287 119.217 453.6 118.73L454.6 116.5C455.187 116.938 455.843 117.276 456.54 117.5C457.27 117.735 458.033 117.857 458.8 117.86C459.442 117.905 460.084 117.777 460.66 117.49C460.842 117.394 460.993 117.25 461.099 117.073C461.205 116.897 461.26 116.695 461.26 116.49C461.26 116.346 461.229 116.203 461.168 116.072C461.108 115.94 461.02 115.824 460.91 115.73C460.64 115.513 460.331 115.35 460 115.25C459.63 115.13 459.12 114.99 458.49 114.85C457.684 114.667 456.889 114.437 456.11 114.16C455.493 113.927 454.944 113.546 454.51 113.05C454.056 112.485 453.821 111.774 453.85 111.05C453.845 110.338 454.054 109.641 454.45 109.05C454.906 108.411 455.533 107.916 456.26 107.62C457.213 107.239 458.234 107.058 459.26 107.09C460.066 107.089 460.869 107.189 461.65 107.39C462.355 107.563 463.03 107.843 463.65 108.22L462.74 110.46C461.666 109.826 460.447 109.482 459.2 109.46C458.565 109.419 457.931 109.558 457.37 109.86C457.189 109.971 457.04 110.127 456.937 110.313C456.833 110.498 456.779 110.708 456.78 110.92C456.769 111.138 456.829 111.354 456.952 111.534C457.075 111.715 457.253 111.85 457.46 111.92C458.132 112.205 458.833 112.416 459.55 112.55C460.36 112.733 461.158 112.963 461.94 113.24C462.554 113.467 463.101 113.846 463.53 114.34C463.99 114.902 464.225 115.615 464.19 116.34C464.199 117.054 463.986 117.753 463.58 118.34C463.125 118.987 462.488 119.485 461.75 119.77C460.797 120.151 459.776 120.332 458.75 120.3C457.771 120.264 456.802 120.092 455.87 119.79V119.79Z" fill="#49773D"/>
<path d="M466.23 107.23H469.18V120H466.23V107.23Z" fill="#49773D"/>
<path d="M480.59 117.25H474.68L473.55 120H470.55L476.24 107.25H479.15L484.85 120H481.75L480.59 117.25ZM479.67 115.01L477.67 110.13L475.67 115.01H479.67Z" fill="#49773D"/>
<path d="M400 60.8901H394.36V68.1601H386.55V60.8901H367.89V55.5101L384.2 33.5601H392.6L377.48 54.3701H386.77V47.8901H394.33V54.3701H400V60.8901Z" fill="#49773D"/>
<path d="M409.51 66.6302C407.196 65.1282 405.366 62.9889 404.24 60.4702C402.907 57.4459 402.258 54.1644 402.34 50.8602C402.259 47.5529 402.908 44.2684 404.24 41.2402C405.369 38.7261 407.198 36.5908 409.51 35.0902C411.822 33.6968 414.47 32.9604 417.17 32.9604C419.869 32.9604 422.518 33.6968 424.83 35.0902C427.141 36.5908 428.971 38.7261 430.1 41.2402C431.437 44.2669 432.086 47.5525 432 50.8602C432.087 54.1648 431.438 57.4474 430.1 60.4702C428.974 62.9889 427.144 65.1282 424.83 66.6302C422.516 68.0173 419.868 68.75 417.17 68.75C414.472 68.75 411.824 68.0173 409.51 66.6302ZM422.14 59.2602C423.34 57.4535 423.94 54.6536 423.94 50.8602C423.94 47.0669 423.34 44.2669 422.14 42.4602C421.613 41.6258 420.882 40.9384 420.018 40.462C419.153 39.9856 418.182 39.7358 417.195 39.7358C416.208 39.7358 415.237 39.9856 414.372 40.462C413.507 40.9384 412.777 41.6258 412.25 42.4602C411.05 44.2735 410.45 47.0736 410.45 50.8602C410.45 54.6469 411.05 57.4469 412.25 59.2602C412.777 60.0947 413.507 60.7821 414.372 61.2584C415.237 61.7348 416.208 61.9846 417.195 61.9846C418.182 61.9846 419.153 61.7348 420.018 61.2584C420.882 60.7821 421.613 60.0947 422.14 59.2602V59.2602Z" fill="#49773D"/>
<path d="M443.07 66.6299C440.759 65.1273 438.932 62.9879 437.81 60.4699C436.472 57.4471 435.823 54.1645 435.91 50.8599C435.824 47.5522 436.473 44.2666 437.81 41.2399C438.935 38.7265 440.761 36.5911 443.07 35.0899C445.384 33.6966 448.034 32.9604 450.735 32.9604C453.436 32.9604 456.086 33.6966 458.4 35.0899C460.708 36.5911 462.535 38.7265 463.66 41.2399C465 44.2658 465.653 47.5514 465.57 50.8599C465.654 54.1652 465.002 57.4479 463.66 60.4699C462.538 62.9879 460.711 65.1273 458.4 66.6299C456.084 68.0168 453.435 68.7493 450.735 68.7493C448.035 68.7493 445.386 68.0168 443.07 66.6299V66.6299ZM455.7 59.2599C456.913 57.4532 457.517 54.6532 457.51 50.8599C457.503 47.0665 456.9 44.2665 455.7 42.4599C455.172 41.6276 454.442 40.9422 453.579 40.4673C452.715 39.9924 451.746 39.7434 450.76 39.7434C449.774 39.7434 448.805 39.9924 447.941 40.4673C447.078 40.9422 446.348 41.6276 445.82 42.4599C444.607 44.2732 444 47.0732 444 50.8599C444 54.6465 444.603 57.4465 445.81 59.2599C446.338 60.0922 447.068 60.7776 447.931 61.2525C448.795 61.7274 449.764 61.9764 450.75 61.9764C451.736 61.9764 452.705 61.7274 453.569 61.2525C454.432 60.7776 455.162 60.0922 455.69 59.2599H455.7Z" fill="#49773D"/>
<path d="M240.731 125.003L126.64 10.9116L12.548 125.003L126.64 239.095L240.731 125.003Z" fill="#49773D"/>
<path d="M169.09 97.62V162.17C169.043 162.235 169.002 162.306 168.97 162.38C168.631 163.861 167.789 165.179 166.587 166.108C165.385 167.038 163.899 167.523 162.38 167.48H90.62C89.7737 167.521 88.928 167.388 88.1352 167.089C87.3424 166.79 86.6195 166.332 86.0111 165.742C85.4027 165.153 84.9218 164.444 84.5982 163.661C84.2747 162.878 84.1153 162.037 84.13 161.19C84.13 140.343 84.13 119.497 84.13 98.65C84.1523 97.6288 84.4089 96.6263 84.88 95.72C85.4315 94.642 86.2876 93.7499 87.3418 93.1543C88.3961 92.5588 89.602 92.286 90.81 92.37C101.27 92.37 111.723 92.37 122.17 92.37H123.17C123.25 92.06 123.31 91.84 123.35 91.63C123.641 89.8331 124.385 88.14 125.511 86.7105C126.638 85.281 128.111 84.1623 129.79 83.46C130.771 83.0726 131.773 82.7388 132.79 82.46H135.45C135.571 82.5228 135.699 82.5731 135.83 82.61C138.088 82.9388 140.186 83.9694 141.826 85.5558C143.466 87.1422 144.566 89.2041 144.97 91.45C145.12 92.23 145.42 92.34 146.09 92.34C151.53 92.34 156.977 92.34 162.43 92.34C163.917 92.2785 165.376 92.7477 166.549 93.6637C167.721 94.5797 168.53 95.8827 168.83 97.34C168.907 97.4417 168.994 97.5355 169.09 97.62V97.62ZM86.61 137.08L86.84 137.18C87.04 136.94 87.22 136.69 87.43 136.48L107.32 116.59C108.52 115.38 108.91 115.38 110.11 116.59L134.05 140.53C142.05 148.53 150.03 156.507 157.99 164.46C158.239 164.735 158.574 164.918 158.94 164.98C160.32 165.04 161.71 165.04 163.09 164.98C163.688 164.957 164.271 164.783 164.785 164.476C165.299 164.168 165.727 163.736 166.03 163.22C165.771 163.028 165.524 162.821 165.29 162.6L146.51 143.83L140.41 137.73C139.54 136.86 139.55 136.3 140.41 135.4L140.82 134.99C149.233 126.323 157.643 117.657 166.05 108.99C166.246 108.803 166.4 108.575 166.5 108.323C166.6 108.071 166.644 107.801 166.63 107.53C166.63 105.53 166.63 103.44 166.63 101.39V99.12C165.25 100.43 163.88 101.7 162.55 103.02C160.4 105.17 158.29 107.36 156.15 109.53C155.43 110.26 154.62 110.25 154.15 109.53C153.68 108.81 153.91 108.31 154.44 107.77C156.96 105.21 159.477 102.643 161.99 100.07L165.77 96.22C165.422 95.7903 164.981 95.4454 164.481 95.2115C163.98 94.9776 163.433 94.8608 162.88 94.87C161.88 94.87 160.94 94.87 159.98 94.87H146.05C145.65 94.87 145.26 94.77 145.18 95.43C144.562 100.268 142.926 104.92 140.38 109.08C139.462 110.791 138.231 112.314 136.75 113.57C135.08 114.91 133.57 114.98 131.93 113.66C131.056 112.941 130.274 112.119 129.6 111.21C127.58 108.434 126.026 105.347 125 102.07C124.24 99.74 123.71 97.34 123.07 94.94H101.33L134.52 128.13C134.665 127.921 134.822 127.721 134.99 127.53L148.71 113.53C148.93 113.283 149.171 113.056 149.43 112.85C149.661 112.699 149.936 112.631 150.211 112.655C150.486 112.68 150.744 112.796 150.945 112.985C151.146 113.175 151.277 113.426 151.318 113.699C151.359 113.972 151.307 114.25 151.17 114.49C151.015 114.72 150.834 114.932 150.63 115.12L135.63 130.4C134.63 131.4 134.12 131.4 133.07 130.4L120.07 117.4C112.737 110.067 105.403 102.753 98.07 95.46C97.7879 95.1545 97.4108 94.9536 97 94.89C94.84 94.89 92.69 94.89 90.53 94.89C89.9191 94.9442 89.3116 95.031 88.71 95.15C89.07 95.53 89.27 95.75 89.48 95.96L102.74 109.22C103.83 110.31 103.83 110.76 102.74 111.84C97.81 116.77 92.91 121.72 87.93 126.6C87.4571 127.003 87.0864 127.512 86.8482 128.085C86.6101 128.659 86.5113 129.281 86.56 129.9C86.7 132.28 86.61 134.68 86.61 137.08ZM108.69 118.78C108.57 118.89 108.46 118.97 108.36 119.07C101.24 126.183 94.12 133.303 87 140.43C86.7558 140.707 86.6176 141.061 86.61 141.43C86.61 147.977 86.61 154.53 86.61 161.09C86.5825 161.61 86.6649 162.13 86.8518 162.617C87.0387 163.103 87.3259 163.544 87.6948 163.912C88.0636 164.28 88.5059 164.566 88.9926 164.752C89.4794 164.938 89.9998 165.019 90.52 164.99H154.23C154.42 164.99 154.62 164.99 154.84 164.93L108.69 118.78ZM166.54 160.16V112L142.84 136.47L166.54 160.16ZM125.73 93.76C125.73 94.28 125.73 94.76 125.85 95.33C126.587 100.041 128.289 104.548 130.85 108.57C131.641 109.697 132.528 110.755 133.5 111.73C133.599 111.848 133.723 111.943 133.863 112.008C134.003 112.073 134.156 112.106 134.31 112.106C134.464 112.106 134.617 112.073 134.757 112.008C134.896 111.943 135.02 111.848 135.12 111.73C135.649 111.28 136.137 110.785 136.58 110.25C139.468 106.407 141.457 101.964 142.4 97.25C142.902 95.4325 142.988 93.5251 142.65 91.67C142.185 89.6023 140.969 87.7809 139.237 86.5592C137.506 85.3374 135.382 84.8023 133.278 85.0577C131.174 85.313 129.24 86.3406 127.851 87.9412C126.462 89.5417 125.717 91.6011 125.76 93.72L125.73 93.76ZM100.33 110.54L87.09 96.89C86.59 97.98 86.36 122.47 86.7 124.16L100.33 110.54Z" fill="white"/>
<path d="M120.18 141.42C119.955 145.453 118.935 149.402 117.18 153.04C116.167 155.464 114.795 157.723 113.11 159.74C112.466 160.462 111.738 161.103 110.94 161.65C110.428 162.043 109.801 162.256 109.155 162.256C108.509 162.256 107.882 162.043 107.37 161.65C106.414 160.997 105.564 160.201 104.85 159.29C101.027 154.202 98.7117 148.141 98.1699 141.8C98.0613 139.939 98.4274 138.081 99.2337 136.4C100.04 134.72 101.26 133.271 102.78 132.192C104.3 131.112 106.069 130.436 107.921 130.228C109.773 130.019 111.648 130.285 113.37 131C114.37 131.41 114.65 131.93 114.37 132.68C114.09 133.43 113.46 133.68 112.46 133.32C111.074 132.728 109.556 132.515 108.061 132.702C106.565 132.89 105.147 133.471 103.949 134.386C102.752 135.302 101.82 136.519 101.247 137.912C100.674 139.306 100.482 140.827 100.69 142.32C101.332 147.978 103.484 153.359 106.92 157.9C108.67 160.26 109.56 160.28 111.33 157.96C114.94 153.303 117.137 147.708 117.66 141.84C117.798 140.346 117.528 138.843 116.88 137.49C116.781 137.339 116.717 137.169 116.693 136.99C116.669 136.812 116.684 136.631 116.739 136.459C116.793 136.288 116.886 136.131 117.009 135.999C117.132 135.868 117.282 135.766 117.45 135.7C118.17 135.38 118.75 135.7 119.16 136.51C119.886 138.042 120.236 139.725 120.18 141.42V141.42Z" fill="white"/>
<path d="M103.36 141.4C103.366 140.249 103.714 139.126 104.359 138.173C105.004 137.22 105.918 136.481 106.984 136.048C108.05 135.615 109.221 135.508 110.348 135.741C111.475 135.975 112.507 136.537 113.314 137.358C114.12 138.179 114.665 139.22 114.879 140.351C115.093 141.482 114.966 142.651 114.514 143.709C114.063 144.768 113.308 145.669 112.344 146.297C111.38 146.926 110.251 147.254 109.1 147.24C108.339 147.235 107.587 147.08 106.887 146.783C106.186 146.486 105.551 146.055 105.018 145.512C104.484 144.969 104.063 144.327 103.779 143.621C103.494 142.916 103.352 142.161 103.36 141.4V141.4ZM105.85 141.4C105.841 141.836 105.918 142.269 106.078 142.675C106.238 143.08 106.478 143.449 106.782 143.761C107.087 144.073 107.45 144.321 107.852 144.491C108.253 144.661 108.684 144.749 109.12 144.75C109.556 144.754 109.989 144.672 110.393 144.509C110.797 144.346 111.165 144.105 111.476 143.799C111.788 143.493 112.035 143.13 112.206 142.728C112.376 142.327 112.466 141.896 112.47 141.46C112.474 141.024 112.392 140.592 112.229 140.187C112.066 139.783 111.824 139.415 111.519 139.104C111.213 138.793 110.85 138.545 110.448 138.374C110.047 138.204 109.616 138.114 109.18 138.11C108.744 138.104 108.312 138.184 107.907 138.346C107.503 138.509 107.135 138.75 106.825 139.057C106.515 139.363 106.269 139.728 106.102 140.13C105.934 140.533 105.849 140.964 105.85 141.4V141.4Z" fill="white"/>
<path d="M140.07 93.7799C140.102 94.5625 139.976 95.3436 139.699 96.0762C139.422 96.8089 139 97.4779 138.458 98.0431C137.915 98.6083 137.264 99.0581 136.544 99.3653C135.823 99.6726 135.048 99.8309 134.265 99.8309C133.482 99.8309 132.707 99.6726 131.986 99.3653C131.266 99.0581 130.615 98.6083 130.072 98.0431C129.53 97.4779 129.108 96.8089 128.831 96.0762C128.554 95.3436 128.427 94.5625 128.46 93.7799C128.522 92.2821 129.161 90.8662 130.243 89.8283C131.325 88.7904 132.766 88.2109 134.265 88.2109C135.764 88.2109 137.205 88.7904 138.287 89.8283C139.369 90.8662 140.008 92.2821 140.07 93.7799V93.7799ZM134.24 97.1299C134.676 97.1379 135.109 97.059 135.514 96.8977C135.918 96.7364 136.287 96.4961 136.598 96.1907C136.909 95.8854 137.156 95.5211 137.325 95.1192C137.493 94.7173 137.58 94.2858 137.58 93.8499C137.588 93.4136 137.509 92.98 137.349 92.5741C137.189 92.1681 136.95 91.7979 136.646 91.4847C136.342 91.1715 135.979 90.9215 135.578 90.749C135.177 90.5766 134.746 90.4852 134.31 90.4799C133.429 90.4798 132.583 90.8256 131.955 91.4428C131.327 92.06 130.966 92.8993 130.95 93.7799C130.946 94.2159 131.028 94.6484 131.191 95.0528C131.354 95.4571 131.596 95.8253 131.901 96.1364C132.207 96.4474 132.57 96.6953 132.972 96.8658C133.373 97.0363 133.804 97.126 134.24 97.1299Z" fill="white"/>
<g opacity="0.15">
<path d="M126.65 227.48L24.16 125L126.65 22.52L229.13 125L126.65 227.48ZM27.33 125L126.65 224.32L226 125L126.65 25.68L27.33 125ZM126.65 214.47L92.44 180.26L118.6 154.1L93.24 128.75L75.24 146.75L87.13 158.64L92.05 153.71L85.05 146.71L93.19 138.57L108.7 154.07L87.52 175.34L57.62 145.43L78.05 125L57.62 104.57L87.52 74.66L108.75 95.9L93.24 111.4L85.1 103.26L92.1 96.26L87.18 91.33L75.25 103.26L93.25 121.26L118.6 95.9L92.44 69.74L126.65 35.53L160.85 69.74L134.7 95.9L160.06 121.25L178.06 103.25L166.16 91.37L161.24 96.3L168.24 103.3L160.1 111.44L144.55 95.9L165.78 74.66L195.68 104.57L175.25 125L195.68 145.43L165.78 175.34L144.55 154.1L160.06 138.6L168.2 146.74L161.2 153.74L166.12 158.67L178.01 146.78L160.01 128.78L134.7 154.1L160.85 180.26L126.65 214.47ZM95.65 180.26L126.65 211.26L157.65 180.26L131.53 154.1L160.06 125.58L181.22 146.74L166.16 161.74L158.07 153.65L165.07 146.65L160.07 141.65L147.71 154.1L165.78 172.17L192.52 145.43L172.08 125L192.52 104.57L165.78 77.83L147.71 95.9L160.06 108.24L165.06 103.24L158.06 96.24L166.15 88.14L181.21 103.2L160.05 124.36L131.53 95.9L157.69 69.74L126.69 38.74L95.69 69.74L121.77 95.9L93.24 124.42L72.08 103.26L87.14 88.21L95.23 96.3L88.23 103.3L93.23 108.3L105.58 95.9L87.52 77.83L60.78 104.57L81.22 125L60.78 145.43L87.52 172.17L105.58 154.1L93.24 141.76L88.24 146.76L95.24 153.76L87.15 161.85L72.09 146.85L93.25 125.69L121.78 154.21L95.65 180.26ZM200.65 140.51L185.1 125L200.61 109.49L216.12 125L200.65 140.51ZM188.27 125L200.61 137.34L213 125L200.66 112.66L188.27 125ZM52.69 140.51L37.18 125L52.69 109.49L68.2 125L52.69 140.51ZM40.35 125L52.69 137.34L65 125L52.69 112.66L40.35 125Z" fill="white"/>
<path d="M126.65 203.9L102.65 179.9L126.65 155.9L150.65 179.9L126.65 203.9ZM105.82 179.9L126.65 200.73L147.48 179.9L126.65 159.07L105.82 179.9Z" fill="white"/>
<path d="M126.65 93.4302L102.65 69.4302L126.65 45.4302L150.65 69.4302L126.65 93.4302ZM105.82 69.4302L126.65 90.2602L147.48 69.4302L126.65 48.6002L105.82 69.4302Z" fill="white"/>
</g>
<path d="M13.14 125L126.76 238.62H527.82L641.44 125L527.82 11.3799H126.76L13.14 125Z" stroke="#49773D" stroke-width="2.5" stroke-miterlimit="10"/>
</svg>
