<svg id="Layer_1" data-name="Layer 1" xmlns="http://www.w3.org/2000/svg" viewBox="0 0 654 250"><defs><style>.cls-1{fill:#e2243e;}.cls-2{opacity:0.15;}.cls-3{fill:#fff;}.cls-4{fill:none;stroke:#e2243e;stroke-miterlimit:10;stroke-width:2.6px;}</style></defs><path d="M344,144.55a1.1,1.1,0,0,0-.41-.88,4,4,0,0,0-1.55-.59,6.79,6.79,0,0,1-2.43-1,2,2,0,0,1-.85-1.64,2.37,2.37,0,0,1,.94-1.87,4.09,4.09,0,0,1,4.87,0,2.38,2.38,0,0,1,.9,1.93l0,.05h-1.55a1.39,1.39,0,0,0-.51-1.05,1.8,1.8,0,0,0-1.29-.47,1.88,1.88,0,0,0-1.28.38,1.24,1.24,0,0,0-.43.93,1,1,0,0,0,.37.82,4.15,4.15,0,0,0,1.52.53,6.42,6.42,0,0,1,2.49,1,2,2,0,0,1,.85,1.66,2.34,2.34,0,0,1-1,1.94,4.58,4.58,0,0,1-5.21-.11,2.45,2.45,0,0,1-.93-2v0H340a1.51,1.51,0,0,0,.64,1.27,2.49,2.49,0,0,0,1.42.4,2.23,2.23,0,0,0,1.35-.36A1.14,1.14,0,0,0,344,144.55Z"/><path d="M349.86,135.85V138h1.7v1.21h-1.7v5.43a1.22,1.22,0,0,0,.26.88,1,1,0,0,0,.7.26,2,2,0,0,0,.31,0,1.71,1.71,0,0,0,.29-.08l.22,1.12a1.36,1.36,0,0,1-.54.24,2.82,2.82,0,0,1-.7.1,2.11,2.11,0,0,1-1.58-.6,2.61,2.61,0,0,1-.58-1.88v-5.43h-1.43V138h1.43v-2.16Z"/><path d="M358.8,147c-.06-.27-.1-.51-.13-.71a4.46,4.46,0,0,1-.05-.63,3.87,3.87,0,0,1-1.19,1.08,3,3,0,0,1-1.57.44,2.92,2.92,0,0,1-2.13-.72,2.62,2.62,0,0,1-.73-2,2.3,2.3,0,0,1,1-2,4.81,4.81,0,0,1,2.82-.73h1.77v-.88a1.65,1.65,0,0,0-.48-1.25,1.91,1.91,0,0,0-1.36-.45,2,2,0,0,0-1.28.39,1.21,1.21,0,0,0-.49.95l-1.54,0,0-.05a2.16,2.16,0,0,1,.91-1.79,3.8,3.8,0,0,1,2.51-.81,3.67,3.67,0,0,1,2.45.78,2.72,2.72,0,0,1,.93,2.22v4.31c0,.32,0,.63,0,.93a5.19,5.19,0,0,0,.19.87Zm-2.7-1.19a2.89,2.89,0,0,0,1.59-.45,2.21,2.21,0,0,0,.93-1v-1.46h-1.83a2.35,2.35,0,0,0-1.57.5,1.47,1.47,0,0,0-.6,1.16,1.25,1.25,0,0,0,.38.95A1.54,1.54,0,0,0,356.1,145.76Z"/><path d="M364.06,138l.12,1.33a3.27,3.27,0,0,1,1.12-1.1,3,3,0,0,1,1.53-.4,2.93,2.93,0,0,1,2.24.85,3.73,3.73,0,0,1,.8,2.62V147h-1.63v-5.61a2.43,2.43,0,0,0-.47-1.68,1.87,1.87,0,0,0-1.42-.49,2.53,2.53,0,0,0-1.28.3,2.12,2.12,0,0,0-.83.85V147h-1.63V138Z"/><path d="M371.86,142.65a5.92,5.92,0,0,1,.92-3.48,3,3,0,0,1,2.58-1.33,3.2,3.2,0,0,1,1.39.29,2.85,2.85,0,0,1,1,.85v-4.92h1.63V147h-1.25l-.25-1.13a2.89,2.89,0,0,1-1.08,1,3.24,3.24,0,0,1-1.49.33,3.08,3.08,0,0,1-2.57-1.19,5,5,0,0,1-.92-3.12Zm1.63.17A3.79,3.79,0,0,0,374,145a1.94,1.94,0,0,0,1.72.81,2.16,2.16,0,0,0,1.22-.33,2.51,2.51,0,0,0,.81-.92v-4.18a2.55,2.55,0,0,0-.81-.88,2.24,2.24,0,0,0-1.2-.32,1.88,1.88,0,0,0-1.74,1,5.06,5.06,0,0,0-.55,2.52Z"/><path d="M388.32,135.85V138H390v1.21h-1.7v5.43a1.22,1.22,0,0,0,.26.88,1,1,0,0,0,.69.26,2,2,0,0,0,.32,0,1.71,1.71,0,0,0,.29-.08l.22,1.12a1.36,1.36,0,0,1-.54.24,2.88,2.88,0,0,1-.7.1,2.11,2.11,0,0,1-1.58-.6,2.61,2.61,0,0,1-.59-1.88v-5.43h-1.42V138h1.42v-2.16Z"/><path d="M391.38,142.4a5,5,0,0,1,1.07-3.27,4,4,0,0,1,5.86,0,4.88,4.88,0,0,1,1.08,3.27v.18a4.88,4.88,0,0,1-1.08,3.27,4,4,0,0,1-5.85,0,4.88,4.88,0,0,1-1.08-3.27Zm1.63.18a4.25,4.25,0,0,0,.6,2.35,2.17,2.17,0,0,0,3.55,0,4.25,4.25,0,0,0,.6-2.35v-.18a4.16,4.16,0,0,0-.61-2.34,2,2,0,0,0-1.78-.93,2,2,0,0,0-1.76.93,4.24,4.24,0,0,0-.6,2.34Z"/><path d="M413.22,142.82a4.91,4.91,0,0,1-.93,3.12,3.06,3.06,0,0,1-2.55,1.19,3.17,3.17,0,0,1-1.55-.36,2.82,2.82,0,0,1-1.09-1l-.26,1.21h-1.25V134.06h1.63v5a2.83,2.83,0,0,1,1-.91,3.2,3.2,0,0,1,1.46-.32,3,3,0,0,1,2.58,1.33,5.92,5.92,0,0,1,.92,3.48Zm-1.62-.17a4.91,4.91,0,0,0-.57-2.51,1.86,1.86,0,0,0-1.72-1,2.16,2.16,0,0,0-1.27.36,2.57,2.57,0,0,0-.82,1v3.88a2.66,2.66,0,0,0,.82,1,2.11,2.11,0,0,0,1.28.37A1.93,1.93,0,0,0,411,145a3.74,3.74,0,0,0,.57-2.17Z"/><path d="M418.91,147.13a3.76,3.76,0,0,1-3-1.24,4.73,4.73,0,0,1-1.08-3.24v-.36a4.68,4.68,0,0,1,1.11-3.19,3.49,3.49,0,0,1,2.71-1.26,3.24,3.24,0,0,1,2.69,1.12,4.58,4.58,0,0,1,.9,3v.86h-5.72l0,0a3.7,3.7,0,0,0,.59,2.18,2.09,2.09,0,0,0,1.82.84,4.28,4.28,0,0,0,1.45-.23,3.37,3.37,0,0,0,1.07-.65l.64,1.06a3.82,3.82,0,0,1-1.27.78A5,5,0,0,1,418.91,147.13Zm-.26-8a1.78,1.78,0,0,0-1.41.65,3.19,3.19,0,0,0-.68,1.68l0,0h4v-.14a2.61,2.61,0,0,0-.48-1.61A1.74,1.74,0,0,0,418.65,139.13Z"/><path d="M425.52,138l.12,1.33a3.27,3.27,0,0,1,1.12-1.1,3,3,0,0,1,1.53-.4,2.93,2.93,0,0,1,2.24.85,3.73,3.73,0,0,1,.79,2.62V147H429.7v-5.61a2.43,2.43,0,0,0-.47-1.68,1.88,1.88,0,0,0-1.43-.49,2.51,2.51,0,0,0-1.27.3,2.12,2.12,0,0,0-.83.85V147h-1.63V138Z"/><path d="M437.39,147.13a3.76,3.76,0,0,1-3-1.24,4.73,4.73,0,0,1-1.08-3.24v-.36a4.68,4.68,0,0,1,1.11-3.19,3.49,3.49,0,0,1,2.72-1.26,3.23,3.23,0,0,1,2.68,1.12,4.58,4.58,0,0,1,.9,3v.86H435l0,0a3.7,3.7,0,0,0,.59,2.18,2.09,2.09,0,0,0,1.82.84,4.24,4.24,0,0,0,1.45-.23,3.37,3.37,0,0,0,1.07-.65l.64,1.06a3.82,3.82,0,0,1-1.27.78A5,5,0,0,1,437.39,147.13Zm-.25-8a1.75,1.75,0,0,0-1.41.65,3.12,3.12,0,0,0-.69,1.68l0,0h4v-.14a2.61,2.61,0,0,0-.48-1.61A1.73,1.73,0,0,0,437.14,139.13Z"/><path d="M443,147v-7.73h-1.4V138H443v-1a3.07,3.07,0,0,1,.88-2.33,3.44,3.44,0,0,1,2.45-.82,5.06,5.06,0,0,1,1.09.12c.36.09.78.21,1.26.38l-.28,1.32q-.43-.17-.93-.3a4.31,4.31,0,0,0-1-.12,1.88,1.88,0,0,0-1.39.43,1.79,1.79,0,0,0-.43,1.32v1h1.78v1.21h-1.78V147Zm6.48,0h-1.64V138h1.64Z"/><path d="M454.24,135.85V138h1.69v1.21h-1.69v5.43a1.17,1.17,0,0,0,.26.88.94.94,0,0,0,.69.26,2,2,0,0,0,.31,0,1.48,1.48,0,0,0,.29-.08l.22,1.12a1.38,1.38,0,0,1-.53.24,3,3,0,0,1-.71.1,2.11,2.11,0,0,1-1.58-.6,2.61,2.61,0,0,1-.58-1.88v-5.43h-1.42V138h1.42v-2.16Z"/><path d="M462.56,147v-7.73h-1.4V138h1.4v-1.13a3,3,0,0,1,.75-2.21,2.74,2.74,0,0,1,2.08-.78,3.64,3.64,0,0,1,.57,0c.19,0,.4.07.63.13l-.2,1.24-.36-.06a3.1,3.1,0,0,0-.44,0,1.31,1.31,0,0,0-1.06.42,2,2,0,0,0-.34,1.24V138h1.62v1.21h-1.62V147Z"/><path d="M471.68,139.45l-.83,0a1.91,1.91,0,0,0-1.09.3,2,2,0,0,0-.68.86V147h-1.63V138h1.46l.15,1.31a3.17,3.17,0,0,1,.94-1.09,2.19,2.19,0,0,1,1.29-.39,1.87,1.87,0,0,1,.34,0l.28.07Z"/><path d="M472.83,142.4a4.92,4.92,0,0,1,1.08-3.27,3.59,3.59,0,0,1,2.91-1.29,3.63,3.63,0,0,1,2.94,1.29,4.88,4.88,0,0,1,1.08,3.27v.18a4.93,4.93,0,0,1-1.07,3.27,4,4,0,0,1-5.86,0,4.88,4.88,0,0,1-1.08-3.27Zm1.63.18a4.25,4.25,0,0,0,.6,2.35,2.17,2.17,0,0,0,3.55,0,4.25,4.25,0,0,0,.6-2.35v-.18a4.24,4.24,0,0,0-.6-2.34,2,2,0,0,0-1.79-.93,2,2,0,0,0-1.76.93,4.24,4.24,0,0,0-.6,2.34Z"/><path d="M484.29,138l.11,1.17a3,3,0,0,1,1.12-1,3.24,3.24,0,0,1,1.56-.36,2.7,2.7,0,0,1,1.53.42,2.5,2.5,0,0,1,1,1.24,3.27,3.27,0,0,1,1.12-1.21,2.89,2.89,0,0,1,1.61-.45,2.7,2.7,0,0,1,2.16.94,4.3,4.3,0,0,1,.79,2.83V147h-1.62v-5.36a3,3,0,0,0-.46-1.87,1.64,1.64,0,0,0-1.36-.55,1.73,1.73,0,0,0-1.35.58,2.51,2.51,0,0,0-.6,1.46V147h-1.64v-5.36a2.94,2.94,0,0,0-.47-1.84,1.61,1.61,0,0,0-1.34-.58,2.25,2.25,0,0,0-1.22.3,2,2,0,0,0-.74.86V147h-1.63V138Z"/><path d="M261.08,167.26c-.06-.27-.1-.5-.13-.71a4.32,4.32,0,0,1-.05-.62,3.72,3.72,0,0,1-1.19,1.07,3,3,0,0,1-1.58.44,2.88,2.88,0,0,1-2.12-.72,2.6,2.6,0,0,1-.73-2,2.3,2.3,0,0,1,1-2,4.86,4.86,0,0,1,2.82-.73h1.77v-.88a1.63,1.63,0,0,0-.48-1.24,1.88,1.88,0,0,0-1.36-.46,2,2,0,0,0-1.28.39,1.2,1.2,0,0,0-.49,1h-1.54l0-.05a2.14,2.14,0,0,1,.91-1.78,3.8,3.8,0,0,1,2.51-.81,3.67,3.67,0,0,1,2.45.77,2.75,2.75,0,0,1,.92,2.23v4.3c0,.32,0,.63.05.93a5,5,0,0,0,.19.87Zm-2.71-1.19a2.93,2.93,0,0,0,1.6-.45,2.22,2.22,0,0,0,.93-1v-1.46h-1.83a2.39,2.39,0,0,0-1.58.5,1.5,1.5,0,0,0-.59,1.17,1.23,1.23,0,0,0,.38.94A1.53,1.53,0,0,0,258.37,166.07Z"/><path d="M266.34,158.32l.12,1.33a3.27,3.27,0,0,1,1.12-1.1,3,3,0,0,1,1.53-.39,2.94,2.94,0,0,1,2.24.84,3.73,3.73,0,0,1,.79,2.62v5.64h-1.62v-5.61a2.4,2.4,0,0,0-.47-1.67,1.84,1.84,0,0,0-1.43-.5,2.51,2.51,0,0,0-1.27.3,2.12,2.12,0,0,0-.83.85v6.63h-1.63v-8.94Z"/><path d="M287.81,155.23v8a3.89,3.89,0,0,1-1.28,3.1,4.88,4.88,0,0,1-3.33,1.12,4.59,4.59,0,0,1-3.2-1.12,3.93,3.93,0,0,1-1.25-3.1v-8h1.63v8a2.89,2.89,0,0,0,.79,2.16,2.72,2.72,0,0,0,2,.79,3,3,0,0,0,2.16-.79,2.83,2.83,0,0,0,.83-2.16v-8Z"/><path d="M299.49,167.26h-1.63l-5.79-9.19-.05,0v9.17h-1.63v-12H292l5.8,9.18h0v-9.17h1.63Z"/><path d="M307.16,162.82h-4.87v-1.27h4.87Z"/><path d="M314.92,164.86a1.1,1.1,0,0,0-.41-.88,4.1,4.1,0,0,0-1.55-.59,6.54,6.54,0,0,1-2.43-.95,2,2,0,0,1-.85-1.64,2.36,2.36,0,0,1,.93-1.87,3.68,3.68,0,0,1,2.41-.77,3.61,3.61,0,0,1,2.47.82,2.42,2.42,0,0,1,.9,1.93l0,.05h-1.55a1.39,1.39,0,0,0-.51-1.05,1.8,1.8,0,0,0-1.29-.47,1.83,1.83,0,0,0-1.28.39,1.18,1.18,0,0,0-.43.92,1,1,0,0,0,.37.82,4.08,4.08,0,0,0,1.52.53,6.48,6.48,0,0,1,2.49,1,2,2,0,0,1,.85,1.66,2.36,2.36,0,0,1-1,1.95,4,4,0,0,1-2.52.75,3.92,3.92,0,0,1-2.69-.87,2.44,2.44,0,0,1-.93-2v-.05H311a1.48,1.48,0,0,0,.64,1.26,2.46,2.46,0,0,0,1.41.41,2.24,2.24,0,0,0,1.36-.37A1.14,1.14,0,0,0,314.92,164.86Z"/><path d="M324.25,165.94a3,3,0,0,1-1.09,1.11,2.94,2.94,0,0,1-1.52.39,2.87,2.87,0,0,1-2.29-.94,4.35,4.35,0,0,1-.81-2.9v-5.28h1.62v5.29a3.35,3.35,0,0,0,.43,2,1.56,1.56,0,0,0,1.31.54,2.59,2.59,0,0,0,1.43-.36,2.14,2.14,0,0,0,.86-1v-6.45h1.63v8.94h-1.46Z"/><path d="M335.81,163.13a4.91,4.91,0,0,1-.93,3.12,3,3,0,0,1-2.55,1.19,3.47,3.47,0,0,1-1.45-.28,2.67,2.67,0,0,1-1.06-.83v4.37h-1.63V158.32h1.25l.25,1.16a3,3,0,0,1,1.09-1,3.25,3.25,0,0,1,1.53-.34,3,3,0,0,1,2.58,1.32,6,6,0,0,1,.92,3.48Zm-1.63-.17a4.72,4.72,0,0,0-.6-2.5,2,2,0,0,0-1.76-1,2.19,2.19,0,0,0-1.2.32,2.32,2.32,0,0,0-.8.87V165a2.14,2.14,0,0,0,2,1.18,2,2,0,0,0,1.76-.85,3.8,3.8,0,0,0,.59-2.19Z"/><path d="M345.43,163.13a4.91,4.91,0,0,1-.93,3.12,3,3,0,0,1-2.55,1.19,3.47,3.47,0,0,1-1.45-.28,2.67,2.67,0,0,1-1.06-.83v4.37h-1.63V158.32h1.25l.25,1.16a3,3,0,0,1,1.09-1,3.25,3.25,0,0,1,1.53-.34,3,3,0,0,1,2.58,1.32,6,6,0,0,1,.92,3.48ZM343.8,163a4.72,4.72,0,0,0-.6-2.5,2,2,0,0,0-1.76-1,2.19,2.19,0,0,0-1.2.32,2.32,2.32,0,0,0-.8.87V165a2.14,2.14,0,0,0,2,1.18,2,2,0,0,0,1.76-.85,3.8,3.8,0,0,0,.59-2.19Z"/><path d="M347.05,162.71a5,5,0,0,1,1.07-3.27,4,4,0,0,1,5.86,0,4.88,4.88,0,0,1,1.08,3.27v.18a4.94,4.94,0,0,1-1.07,3.28,3.67,3.67,0,0,1-2.93,1.27,3.63,3.63,0,0,1-2.93-1.28,4.88,4.88,0,0,1-1.08-3.27Zm1.63.18a4.25,4.25,0,0,0,.6,2.35,2.16,2.16,0,0,0,3.55,0,4.25,4.25,0,0,0,.6-2.35v-.18a4.16,4.16,0,0,0-.61-2.34,2,2,0,0,0-1.78-.93,2,2,0,0,0-1.76.93,4.24,4.24,0,0,0-.6,2.34Z"/><path d="M361.28,159.76l-.83,0a1.84,1.84,0,0,0-1.09.31,2,2,0,0,0-.68.86v6.38h-1.63v-8.94h1.46l.15,1.31a3.13,3.13,0,0,1,.94-1.08,2.19,2.19,0,0,1,1.29-.39,1.87,1.87,0,0,1,.34,0l.28.06Z"/><path d="M365.38,156.17v2.15h1.7v1.21h-1.7V165a1.22,1.22,0,0,0,.26.88,1,1,0,0,0,.69.26,1.27,1.27,0,0,0,.32,0,1.71,1.71,0,0,0,.29-.08l.22,1.12a1.36,1.36,0,0,1-.54.24,2.47,2.47,0,0,1-.7.1,2.11,2.11,0,0,1-1.58-.6,2.61,2.61,0,0,1-.59-1.88v-5.43h-1.42v-1.21h1.42v-2.15Z"/><path d="M372.52,167.44a3.78,3.78,0,0,1-3-1.23,4.73,4.73,0,0,1-1.08-3.24v-.37a4.63,4.63,0,0,1,1.11-3.18,3.49,3.49,0,0,1,2.72-1.26,3.26,3.26,0,0,1,2.69,1.11,4.67,4.67,0,0,1,.89,3v.86h-5.72l0,0a3.75,3.75,0,0,0,.59,2.19,2.09,2.09,0,0,0,1.82.84,4,4,0,0,0,1.45-.24,3.1,3.1,0,0,0,1.07-.65l.64,1.06a3.87,3.87,0,0,1-1.26.78A5.14,5.14,0,0,1,372.52,167.44Zm-.25-8a1.78,1.78,0,0,0-1.41.65,3.11,3.11,0,0,0-.68,1.69v0h4v-.13a2.64,2.64,0,0,0-.48-1.62A1.75,1.75,0,0,0,372.27,159.44Z"/><path d="M377.31,163a6,6,0,0,1,.92-3.48,3,3,0,0,1,2.58-1.32,3.13,3.13,0,0,1,1.4.29,2.77,2.77,0,0,1,1,.84v-4.92h1.63v12.89h-1.25l-.24-1.13a3,3,0,0,1-1.09,1,3.24,3.24,0,0,1-1.49.33,3.09,3.09,0,0,1-2.57-1.19,5,5,0,0,1-.92-3.12Zm1.63.17a3.77,3.77,0,0,0,.55,2.17,1.94,1.94,0,0,0,1.72.82,2.16,2.16,0,0,0,1.22-.33,2.47,2.47,0,0,0,.81-.93v-4.17a2.46,2.46,0,0,0-.81-.88,2.14,2.14,0,0,0-1.2-.33,1.87,1.87,0,0,0-1.74,1,5,5,0,0,0-.55,2.51Z"/><path d="M396.71,164.86a1.1,1.1,0,0,0-.41-.88,4,4,0,0,0-1.55-.59,6.54,6.54,0,0,1-2.43-.95,2,2,0,0,1-.85-1.64,2.36,2.36,0,0,1,.93-1.87,3.68,3.68,0,0,1,2.41-.77,3.61,3.61,0,0,1,2.47.82,2.42,2.42,0,0,1,.9,1.93l0,.05h-1.55a1.39,1.39,0,0,0-.51-1.05,1.8,1.8,0,0,0-1.29-.47,1.83,1.83,0,0,0-1.28.39,1.18,1.18,0,0,0-.43.92,1,1,0,0,0,.37.82,4.15,4.15,0,0,0,1.52.53,6.42,6.42,0,0,1,2.49,1,2,2,0,0,1,.85,1.66,2.36,2.36,0,0,1-1,1.95,4.6,4.6,0,0,1-5.21-.12,2.44,2.44,0,0,1-.93-2v-.05h1.56a1.48,1.48,0,0,0,.64,1.26,2.5,2.5,0,0,0,1.42.41,2.23,2.23,0,0,0,1.35-.37A1.14,1.14,0,0,0,396.71,164.86Z"/><path d="M403.91,166.17a2,2,0,0,0,1.32-.5,1.62,1.62,0,0,0,.56-1.23h1.47l0,.05a2.56,2.56,0,0,1-1,2,3.48,3.48,0,0,1-2.38.9,3.54,3.54,0,0,1-2.91-1.28,5,5,0,0,1-1-3.19v-.35a4.92,4.92,0,0,1,1-3.18,3.51,3.51,0,0,1,2.9-1.28,3.38,3.38,0,0,1,2.45.92,3,3,0,0,1,.93,2.28l0,0h-1.48a2,2,0,0,0-.53-1.4,1.78,1.78,0,0,0-1.35-.57,1.86,1.86,0,0,0-1.74.93,4.31,4.31,0,0,0-.55,2.25V163a4.44,4.44,0,0,0,.54,2.27A1.87,1.87,0,0,0,403.91,166.17Z"/><path d="M414.72,167.26c-.06-.27-.1-.5-.13-.71s0-.41-.06-.62a3.59,3.59,0,0,1-1.18,1.07,3,3,0,0,1-1.58.44,2.88,2.88,0,0,1-2.12-.72,2.61,2.61,0,0,1-.74-2,2.31,2.31,0,0,1,1-2,4.86,4.86,0,0,1,2.82-.73h1.76v-.88a1.63,1.63,0,0,0-.48-1.24,1.84,1.84,0,0,0-1.35-.46,2,2,0,0,0-1.28.39,1.2,1.2,0,0,0-.49,1h-1.54l0-.05a2.12,2.12,0,0,1,.91-1.78,3.8,3.8,0,0,1,2.51-.81,3.69,3.69,0,0,1,2.45.77,2.75,2.75,0,0,1,.92,2.23v4.3c0,.32,0,.63,0,.93a5,5,0,0,0,.18.87ZM412,166.07a3,3,0,0,0,1.6-.45,2.14,2.14,0,0,0,.92-1v-1.46h-1.82a2.39,2.39,0,0,0-1.58.5,1.5,1.5,0,0,0-.59,1.17,1.26,1.26,0,0,0,.37.94A1.58,1.58,0,0,0,412,166.07Z"/><path d="M420.29,167.26h-1.63V154.37h1.63Z"/><path d="M426.49,167.44a3.78,3.78,0,0,1-3-1.23,4.73,4.73,0,0,1-1.08-3.24v-.37a4.63,4.63,0,0,1,1.11-3.18,3.49,3.49,0,0,1,2.72-1.26,3.26,3.26,0,0,1,2.69,1.11,4.61,4.61,0,0,1,.89,3v.86h-5.71l0,0a3.68,3.68,0,0,0,.6,2.19,2.06,2.06,0,0,0,1.81.84,4,4,0,0,0,1.45-.24,3.1,3.1,0,0,0,1.07-.65l.64,1.06a3.87,3.87,0,0,1-1.26.78A5.14,5.14,0,0,1,426.49,167.44Zm-.25-8a1.78,1.78,0,0,0-1.41.65,3.11,3.11,0,0,0-.68,1.69v0h4v-.13a2.64,2.64,0,0,0-.48-1.62A1.75,1.75,0,0,0,426.24,159.44Z"/><path d="M436.73,162.82h-4.88v-1.27h4.88Z"/><path d="M445,165.94a3,3,0,0,1-1.08,1.11,3,3,0,0,1-1.53.39,2.84,2.84,0,0,1-2.28-.94,4.29,4.29,0,0,1-.82-2.9v-5.28h1.63v5.29a3.36,3.36,0,0,0,.42,2,1.56,1.56,0,0,0,1.31.54,2.59,2.59,0,0,0,1.43-.36,2.14,2.14,0,0,0,.86-1v-6.45h1.63v8.94h-1.46Z"/><path d="M456.52,163.13a5,5,0,0,1-.92,3.12,3.07,3.07,0,0,1-2.56,1.19,3.47,3.47,0,0,1-1.45-.28,2.67,2.67,0,0,1-1.06-.83v4.37H448.9V158.32h1.25l.25,1.16a2.94,2.94,0,0,1,1.1-1,3.19,3.19,0,0,1,1.52-.34,3,3,0,0,1,2.58,1.32,6,6,0,0,1,.92,3.48Zm-1.63-.17a4.72,4.72,0,0,0-.6-2.5,1.94,1.94,0,0,0-1.76-1,2.19,2.19,0,0,0-1.2.32,2.32,2.32,0,0,0-.8.87V165a2.14,2.14,0,0,0,2,1.18,2,2,0,0,0,1.75-.85,3.8,3.8,0,0,0,.59-2.19Z"/><path d="M462.35,162.71a5,5,0,0,1,1.07-3.27,4,4,0,0,1,5.86,0,4.88,4.88,0,0,1,1.08,3.27v.18a4.89,4.89,0,0,1-1.08,3.28,4,4,0,0,1-5.85,0,4.88,4.88,0,0,1-1.08-3.27Zm1.63.18a4.33,4.33,0,0,0,.59,2.35,2,2,0,0,0,1.79.93,2,2,0,0,0,1.76-.93,4.17,4.17,0,0,0,.61-2.35v-.18a4.16,4.16,0,0,0-.61-2.34,2.16,2.16,0,0,0-3.55,0,4.32,4.32,0,0,0-.59,2.34Z"/><path d="M473,167.26v-7.73h-1.4v-1.21H473v-1.13a3.11,3.11,0,0,1,.74-2.21,2.77,2.77,0,0,1,2.09-.78,3.64,3.64,0,0,1,.57,0l.63.13-.2,1.24-.36-.06-.44,0A1.3,1.3,0,0,0,475,156a2,2,0,0,0-.35,1.24v1.13h1.62v1.21h-1.62v7.73Z"/><path d="M481.75,162.71a4.91,4.91,0,0,1,1.07-3.27,4,4,0,0,1,5.86,0,4.88,4.88,0,0,1,1.07,3.27v.18a4.89,4.89,0,0,1-1.07,3.28,4,4,0,0,1-5.86,0,4.93,4.93,0,0,1-1.07-3.27Zm1.62.18a4.25,4.25,0,0,0,.6,2.35,2.16,2.16,0,0,0,3.55,0,4.17,4.17,0,0,0,.61-2.35v-.18a4.24,4.24,0,0,0-.61-2.34,2,2,0,0,0-1.78-.93,2,2,0,0,0-1.77.93,4.24,4.24,0,0,0-.6,2.34Z"/><path d="M495.3,166.17a1.91,1.91,0,0,0,1.31-.5,1.59,1.59,0,0,0,.57-1.23h1.47l0,.05a2.58,2.58,0,0,1-1,2,3.79,3.79,0,0,1-5.29-.38,5,5,0,0,1-1-3.19v-.35a4.92,4.92,0,0,1,1-3.18,3.51,3.51,0,0,1,2.9-1.28,3.4,3.4,0,0,1,2.45.92,3,3,0,0,1,.92,2.28v0h-1.48a2,2,0,0,0-.54-1.4,1.75,1.75,0,0,0-1.34-.57,1.89,1.89,0,0,0-1.75.93,4.41,4.41,0,0,0-.55,2.25V163a4.44,4.44,0,0,0,.54,2.27A1.88,1.88,0,0,0,495.3,166.17Z"/><path d="M504.16,166.17a1.91,1.91,0,0,0,1.31-.5,1.59,1.59,0,0,0,.57-1.23h1.47l0,.05a2.58,2.58,0,0,1-1,2,3.79,3.79,0,0,1-5.29-.38,5,5,0,0,1-1-3.19v-.35a4.92,4.92,0,0,1,1-3.18,3.51,3.51,0,0,1,2.9-1.28,3.4,3.4,0,0,1,2.45.92,3,3,0,0,1,.92,2.28v0H506a2,2,0,0,0-.54-1.4,1.75,1.75,0,0,0-1.34-.57,1.89,1.89,0,0,0-1.75.93,4.41,4.41,0,0,0-.55,2.25V163a4.44,4.44,0,0,0,.54,2.27A1.89,1.89,0,0,0,504.16,166.17Z"/><path d="M515.15,165.94a3.14,3.14,0,0,1-1.09,1.11,3,3,0,0,1-1.53.39,2.86,2.86,0,0,1-2.28-.94,4.35,4.35,0,0,1-.82-2.9v-5.28h1.63v5.29a3.36,3.36,0,0,0,.42,2,1.57,1.57,0,0,0,1.32.54,2.62,2.62,0,0,0,1.43-.36,2.2,2.2,0,0,0,.86-1v-6.45h1.63v8.94h-1.47Z"/><path d="M526.71,163.13a4.91,4.91,0,0,1-.93,3.12,3.07,3.07,0,0,1-2.55,1.19,3.44,3.44,0,0,1-1.45-.28,2.67,2.67,0,0,1-1.06-.83v4.37h-1.63V158.32h1.24l.26,1.16a2.91,2.91,0,0,1,1.09-1,3.21,3.21,0,0,1,1.52-.34,3,3,0,0,1,2.59,1.32,6,6,0,0,1,.92,3.48Zm-1.63-.17a4.72,4.72,0,0,0-.6-2.5,2,2,0,0,0-1.76-1,2.19,2.19,0,0,0-1.2.32,2.32,2.32,0,0,0-.8.87V165a2.32,2.32,0,0,0,.8.87,2.29,2.29,0,0,0,1.21.31,2,2,0,0,0,1.75-.85,3.73,3.73,0,0,0,.6-2.19Z"/><path d="M534.2,167.26c-.05-.27-.09-.5-.12-.71s-.05-.41-.06-.62a3.69,3.69,0,0,1-1.18,1.07,3.06,3.06,0,0,1-1.58.44,2.92,2.92,0,0,1-2.13-.72,2.64,2.64,0,0,1-.73-2,2.31,2.31,0,0,1,1-2,4.85,4.85,0,0,1,2.81-.73H534v-.88a1.63,1.63,0,0,0-.48-1.24,1.86,1.86,0,0,0-1.35-.46,2,2,0,0,0-1.28.39,1.2,1.2,0,0,0-.49,1h-1.55v-.05a2.12,2.12,0,0,1,.91-1.78,3.78,3.78,0,0,1,2.51-.81,3.69,3.69,0,0,1,2.45.77,2.75,2.75,0,0,1,.92,2.23v4.3c0,.32,0,.63.05.93a4.2,4.2,0,0,0,.18.87Zm-2.7-1.19a3,3,0,0,0,1.6-.45,2.14,2.14,0,0,0,.92-1v-1.46H532.2a2.39,2.39,0,0,0-1.58.5,1.5,1.5,0,0,0-.59,1.17,1.22,1.22,0,0,0,.37.94A1.58,1.58,0,0,0,531.5,166.07Z"/><path d="M540.28,156.17v2.15H542v1.21h-1.69V165a1.17,1.17,0,0,0,.26.88.94.94,0,0,0,.69.26,1.2,1.2,0,0,0,.31,0,1.48,1.48,0,0,0,.29-.08l.23,1.12a1.51,1.51,0,0,1-.54.24,2.47,2.47,0,0,1-.7.1,2.1,2.1,0,0,1-1.58-.6,2.61,2.61,0,0,1-.59-1.88v-5.43h-1.42v-1.21h1.42v-2.15Z"/><path d="M545.48,156h-1.63v-1.66h1.63Zm0,11.23h-1.63v-8.94h1.63Z"/><path d="M547.6,162.71a4.92,4.92,0,0,1,1.08-3.27,4,4,0,0,1,5.85,0,4.88,4.88,0,0,1,1.08,3.27v.18a4.94,4.94,0,0,1-1.07,3.28,4,4,0,0,1-5.86,0,4.88,4.88,0,0,1-1.08-3.27Zm1.63.18a4.25,4.25,0,0,0,.6,2.35,2.16,2.16,0,0,0,3.55,0,4.25,4.25,0,0,0,.6-2.35v-.18a4.16,4.16,0,0,0-.61-2.34,2.15,2.15,0,0,0-3.54,0,4.24,4.24,0,0,0-.6,2.34Z"/><path d="M559.06,158.32l.11,1.33a3.27,3.27,0,0,1,1.12-1.1,3,3,0,0,1,1.54-.39,2.94,2.94,0,0,1,2.24.84,3.78,3.78,0,0,1,.79,2.62v5.64h-1.63v-5.61a2.4,2.4,0,0,0-.47-1.67,1.82,1.82,0,0,0-1.42-.5,2.55,2.55,0,0,0-1.28.3,2.12,2.12,0,0,0-.83.85v6.63H557.6v-8.94Z"/><path d="M572.72,167.26c-.06-.27-.1-.5-.13-.71a4.32,4.32,0,0,1-.05-.62,3.72,3.72,0,0,1-1.19,1.07,3,3,0,0,1-1.57.44,2.92,2.92,0,0,1-2.13-.72,2.6,2.6,0,0,1-.73-2,2.3,2.3,0,0,1,1-2,4.89,4.89,0,0,1,2.82-.73h1.77v-.88a1.63,1.63,0,0,0-.48-1.24,1.87,1.87,0,0,0-1.36-.46,2,2,0,0,0-1.28.39,1.23,1.23,0,0,0-.49,1h-1.54l0-.05a2.14,2.14,0,0,1,.91-1.78,3.8,3.8,0,0,1,2.51-.81,3.67,3.67,0,0,1,2.45.77,2.73,2.73,0,0,1,.93,2.23v4.3c0,.32,0,.63,0,.93a5,5,0,0,0,.19.87Zm-2.7-1.19a2.89,2.89,0,0,0,1.59-.45,2.16,2.16,0,0,0,.93-1v-1.46h-1.83a2.35,2.35,0,0,0-1.57.5,1.48,1.48,0,0,0-.6,1.17,1.23,1.23,0,0,0,.38.94A1.54,1.54,0,0,0,570,166.07Z"/><path d="M578.29,167.26h-1.63V154.37h1.63Z"/><path d="M317.44,179.83a3.19,3.19,0,0,1,1.13-1,3.14,3.14,0,0,1,1.5-.36,2.88,2.88,0,0,1,2.22.86,3.77,3.77,0,0,1,.8,2.64v5.61h-1.63V182a2.43,2.43,0,0,0-.47-1.64,1.83,1.83,0,0,0-1.42-.53,2.68,2.68,0,0,0-1.27.29,2.33,2.33,0,0,0-.86.79v6.71h-1.63v-12.9h1.63Z"/><path d="M329.13,187.75a3.78,3.78,0,0,1-3-1.23,4.73,4.73,0,0,1-1.08-3.24v-.36a4.64,4.64,0,0,1,1.11-3.19,3.49,3.49,0,0,1,2.72-1.26,3.26,3.26,0,0,1,2.69,1.11,4.67,4.67,0,0,1,.89,3v.86h-5.72l0,0a3.75,3.75,0,0,0,.59,2.19,2.09,2.09,0,0,0,1.82.84,4,4,0,0,0,1.45-.24,3.1,3.1,0,0,0,1.07-.65l.64,1.06a3.82,3.82,0,0,1-1.27.78A5,5,0,0,1,329.13,187.75Zm-.25-8a1.76,1.76,0,0,0-1.41.66,3.09,3.09,0,0,0-.69,1.68l0,0h4V182a2.59,2.59,0,0,0-.48-1.61A1.71,1.71,0,0,0,328.88,179.75Z"/><path d="M339.78,187.58q-.07-.41-.12-.72a6.2,6.2,0,0,1-.06-.62,3.84,3.84,0,0,1-1.18,1.08,3.05,3.05,0,0,1-1.58.43,3,3,0,0,1-2.13-.71,2.68,2.68,0,0,1-.73-2,2.31,2.31,0,0,1,1-2,4.85,4.85,0,0,1,2.81-.72h1.77v-.89a1.63,1.63,0,0,0-.48-1.24,1.86,1.86,0,0,0-1.35-.46,1.92,1.92,0,0,0-1.28.4,1.17,1.17,0,0,0-.49.95h-1.55v-.05a2.12,2.12,0,0,1,.91-1.78,3.78,3.78,0,0,1,2.51-.81,3.74,3.74,0,0,1,2.45.77,2.77,2.77,0,0,1,.92,2.23v4.31c0,.31,0,.62,0,.92a4.44,4.44,0,0,0,.18.88Zm-2.7-1.19a2.88,2.88,0,0,0,1.6-.46,2.14,2.14,0,0,0,.92-1v-1.45h-1.82a2.39,2.39,0,0,0-1.58.49,1.5,1.5,0,0,0-.59,1.17,1.26,1.26,0,0,0,.37.94A1.58,1.58,0,0,0,337.08,186.39Z"/><path d="M345.36,187.58h-1.63v-12.9h1.63Z"/><path d="M350.12,176.48v2.15h1.7v1.21h-1.7v5.43a1.21,1.21,0,0,0,.27.89.93.93,0,0,0,.69.25,1.25,1.25,0,0,0,.31,0l.29-.07.22,1.11a1.51,1.51,0,0,1-.54.25,2.8,2.8,0,0,1-.7.09,2.11,2.11,0,0,1-1.58-.6,2.6,2.6,0,0,1-.58-1.88v-5.43h-1.43v-1.21h1.43v-2.15Z"/><path d="M355.19,179.83a3.3,3.3,0,0,1,1.14-1,3.1,3.1,0,0,1,1.49-.36,2.91,2.91,0,0,1,2.23.86,3.77,3.77,0,0,1,.8,2.64v5.61h-1.63V182a2.38,2.38,0,0,0-.48-1.64,1.83,1.83,0,0,0-1.42-.53,2.66,2.66,0,0,0-1.26.29,2.28,2.28,0,0,0-.87.79v6.71h-1.63v-12.9h1.63Z"/><path d="M372.59,185.17a1.07,1.07,0,0,0-.41-.87,3.85,3.85,0,0,0-1.55-.6,6.61,6.61,0,0,1-2.43-.95,1.93,1.93,0,0,1-.84-1.64,2.34,2.34,0,0,1,.93-1.86,3.62,3.62,0,0,1,2.41-.78,3.56,3.56,0,0,1,2.46.83,2.35,2.35,0,0,1,.9,1.92l0,.05h-1.55a1.43,1.43,0,0,0-.51-1.05,2.14,2.14,0,0,0-2.57-.08,1.22,1.22,0,0,0-.42.92,1,1,0,0,0,.36.82,4,4,0,0,0,1.52.53,6.47,6.47,0,0,1,2.5,1,2,2,0,0,1,.85,1.67,2.34,2.34,0,0,1-1,1.94,4.6,4.6,0,0,1-5.21-.12,2.49,2.49,0,0,1-.93-2l0-.05h1.55a1.52,1.52,0,0,0,.64,1.27,2.59,2.59,0,0,0,1.42.4,2.26,2.26,0,0,0,1.36-.37A1.13,1.13,0,0,0,372.59,185.17Z"/><path d="M379.94,187.75a3.78,3.78,0,0,1-3-1.23,4.73,4.73,0,0,1-1.08-3.24v-.36a4.64,4.64,0,0,1,1.11-3.19,3.49,3.49,0,0,1,2.72-1.26,3.26,3.26,0,0,1,2.69,1.11,4.61,4.61,0,0,1,.9,3v.86h-5.72l0,0a3.68,3.68,0,0,0,.6,2.19,2.06,2.06,0,0,0,1.81.84,4.06,4.06,0,0,0,1.46-.24,3.3,3.3,0,0,0,1.07-.65l.63,1.06a3.87,3.87,0,0,1-1.26.78A5.14,5.14,0,0,1,379.94,187.75Zm-.25-8a1.76,1.76,0,0,0-1.41.66,3.08,3.08,0,0,0-.68,1.68v0h4V182a2.59,2.59,0,0,0-.48-1.61A1.72,1.72,0,0,0,379.69,179.75Z"/><path d="M389.33,180.07l-.83,0a1.84,1.84,0,0,0-1.09.31,2,2,0,0,0-.68.86v6.39H385.1v-9h1.46l.15,1.31a3.22,3.22,0,0,1,.94-1.08,2.19,2.19,0,0,1,1.29-.39,1.87,1.87,0,0,1,.34,0l.28.06Z"/><path d="M394.16,184.94l.14.63h.05l.16-.63,2.06-6.31h1.66l-3.29,9h-1.23l-3.33-9h1.67Z"/><path d="M401.45,176.34h-1.63v-1.66h1.63Zm0,11.24h-1.63v-9h1.63Z"/><path d="M407.51,186.48a1.91,1.91,0,0,0,1.31-.5,1.58,1.58,0,0,0,.57-1.23h1.47l0,.05a2.57,2.57,0,0,1-1,2,3.79,3.79,0,0,1-5.29-.38,5,5,0,0,1-1-3.19v-.35a5,5,0,0,1,1-3.18,3.54,3.54,0,0,1,2.91-1.28,3.4,3.4,0,0,1,2.45.92,3,3,0,0,1,.92,2.28l0,.05h-1.47a2,2,0,0,0-.54-1.4,1.75,1.75,0,0,0-1.34-.57,1.89,1.89,0,0,0-1.75.93,4.31,4.31,0,0,0-.55,2.25v.35a4.44,4.44,0,0,0,.54,2.27A1.88,1.88,0,0,0,407.51,186.48Z"/><path d="M416.52,187.75a3.79,3.79,0,0,1-3-1.23,4.73,4.73,0,0,1-1.07-3.24v-.36a4.64,4.64,0,0,1,1.11-3.19,3.47,3.47,0,0,1,2.71-1.26,3.25,3.25,0,0,1,2.69,1.11,4.61,4.61,0,0,1,.9,3v.86h-5.72l0,0a3.68,3.68,0,0,0,.59,2.19,2.08,2.08,0,0,0,1.82.84,4,4,0,0,0,1.45-.24,3.3,3.3,0,0,0,1.07-.65l.64,1.06a3.92,3.92,0,0,1-1.27.78A5,5,0,0,1,416.52,187.75Zm-.26-8a1.76,1.76,0,0,0-1.41.66,3.08,3.08,0,0,0-.68,1.68l0,0h4V182a2.59,2.59,0,0,0-.48-1.61A1.72,1.72,0,0,0,416.26,179.75Z"/><path d="M426.87,185.17a1.06,1.06,0,0,0-.4-.87,3.91,3.91,0,0,0-1.55-.6,6.47,6.47,0,0,1-2.43-.95,1.91,1.91,0,0,1-.85-1.64,2.34,2.34,0,0,1,.93-1.86,3.64,3.64,0,0,1,2.41-.78,3.52,3.52,0,0,1,2.46.83,2.39,2.39,0,0,1,.91,1.92l0,.05h-1.55a1.43,1.43,0,0,0-.51-1.05,2.14,2.14,0,0,0-2.57-.08,1.2,1.2,0,0,0-.43.92,1,1,0,0,0,.37.82,3.91,3.91,0,0,0,1.51.53,6.47,6.47,0,0,1,2.5,1,2,2,0,0,1,.85,1.67,2.36,2.36,0,0,1-1,1.94,4,4,0,0,1-2.52.75,3.9,3.9,0,0,1-2.69-.87,2.44,2.44,0,0,1-.93-2v-.05H423a1.49,1.49,0,0,0,.64,1.27,2.53,2.53,0,0,0,1.41.4,2.26,2.26,0,0,0,1.36-.37A1.13,1.13,0,0,0,426.87,185.17Z"/><path d="M435.41,187.58v-7.74H434v-1.21h1.39V177.5a3.07,3.07,0,0,1,.75-2.21,2.75,2.75,0,0,1,2.09-.78,3.64,3.64,0,0,1,.56.05l.63.12-.19,1.24-.36,0a3.19,3.19,0,0,0-.45,0,1.26,1.26,0,0,0-1.05.43,1.9,1.9,0,0,0-.35,1.23v1.13h1.62v1.21H437v7.74Z"/><path d="M439.92,183a4.92,4.92,0,0,1,1.08-3.27,4,4,0,0,1,5.86,0,5,5,0,0,1,1.07,3.27v.18a4.94,4.94,0,0,1-1.07,3.28,4,4,0,0,1-5.86,0,4.88,4.88,0,0,1-1.08-3.27Zm1.63.18a4.25,4.25,0,0,0,.6,2.35,2.16,2.16,0,0,0,3.55,0,4.25,4.25,0,0,0,.61-2.35V183a4.29,4.29,0,0,0-.61-2.34,2,2,0,0,0-1.78-.93,2,2,0,0,0-1.77.93,4.28,4.28,0,0,0-.6,2.34Z"/><path d="M454.16,180.07l-.84,0a1.79,1.79,0,0,0-1.08.31,1.92,1.92,0,0,0-.69.86v6.39h-1.62v-9h1.45l.16,1.31a3,3,0,0,1,.94-1.08,2.18,2.18,0,0,1,1.28-.39,2,2,0,0,1,.35,0l.27.06Z"/><path d="M462.35,184.32l.2,1.15h.05l.22-1.15,1.78-5.69h1.31l1.79,5.69.24,1.28H468l.26-1.28,1.32-5.69h1.7l-2.59,9h-1.32l-1.76-5.45-.34-1.42h-.05l-.32,1.42-1.73,5.45h-1.32l-2.59-9h1.69Z"/><path d="M472.49,183a5,5,0,0,1,1.07-3.27,4,4,0,0,1,5.86,0A4.9,4.9,0,0,1,480.5,183v.18a4.89,4.89,0,0,1-1.08,3.28,4,4,0,0,1-5.85,0,4.88,4.88,0,0,1-1.08-3.27Zm1.63.18a4.25,4.25,0,0,0,.6,2.35,2.16,2.16,0,0,0,3.55,0,4.25,4.25,0,0,0,.6-2.35V183a4.2,4.2,0,0,0-.61-2.34,2,2,0,0,0-1.78-.93,2,2,0,0,0-1.76.93,4.28,4.28,0,0,0-.6,2.34Z"/><path d="M486.72,180.07l-.83,0a1.82,1.82,0,0,0-1.09.31,1.9,1.9,0,0,0-.68.86v6.39h-1.63v-9h1.45l.16,1.31a3.12,3.12,0,0,1,.94-1.08,2.18,2.18,0,0,1,1.28-.39,2,2,0,0,1,.35,0l.27.06Z"/><path d="M490.89,183.45h-.84v4.13h-1.63v-12.9h1.63v7.48h.82l2.69-3.53h1.95l-3.25,4.13,3.53,4.82h-1.93Z"/><path d="M500.63,187.75a3.78,3.78,0,0,1-3-1.23,4.73,4.73,0,0,1-1.08-3.24v-.36a4.64,4.64,0,0,1,1.11-3.19,3.49,3.49,0,0,1,2.72-1.26,3.26,3.26,0,0,1,2.69,1.11,4.67,4.67,0,0,1,.89,3v.86h-5.72l0,0a3.75,3.75,0,0,0,.59,2.19,2.09,2.09,0,0,0,1.82.84,4,4,0,0,0,1.45-.24,3.1,3.1,0,0,0,1.07-.65l.64,1.06a3.82,3.82,0,0,1-1.27.78A5,5,0,0,1,500.63,187.75Zm-.25-8a1.76,1.76,0,0,0-1.41.66,3.09,3.09,0,0,0-.69,1.68l0,0h4V182a2.59,2.59,0,0,0-.48-1.61A1.71,1.71,0,0,0,500.38,179.75Z"/><path d="M510,180.07l-.83,0a1.82,1.82,0,0,0-1.09.31,1.9,1.9,0,0,0-.68.86v6.39h-1.63v-9h1.45l.16,1.31a3.12,3.12,0,0,1,.94-1.08,2.18,2.18,0,0,1,1.28-.39,2,2,0,0,1,.35,0l.27.06Z"/><path d="M516.91,185.17a1,1,0,0,0-.41-.87,3.79,3.79,0,0,0-1.55-.6,6.48,6.48,0,0,1-2.42-.95,1.91,1.91,0,0,1-.85-1.64,2.34,2.34,0,0,1,.93-1.86,3.62,3.62,0,0,1,2.41-.78,3.54,3.54,0,0,1,2.46.83,2.35,2.35,0,0,1,.9,1.92v.05h-1.56a1.41,1.41,0,0,0-.5-1.05,2.14,2.14,0,0,0-2.57-.08,1.2,1.2,0,0,0-.43.92,1,1,0,0,0,.37.82,3.91,3.91,0,0,0,1.51.53,6.47,6.47,0,0,1,2.5,1,2,2,0,0,1,.85,1.67,2.36,2.36,0,0,1-1,1.94,4,4,0,0,1-2.52.75,3.9,3.9,0,0,1-2.69-.87,2.47,2.47,0,0,1-.94-2l0-.05H513a1.53,1.53,0,0,0,.65,1.27,2.53,2.53,0,0,0,1.41.4,2.26,2.26,0,0,0,1.36-.37A1.13,1.13,0,0,0,516.91,185.17Z"/><path d="M339,196.66h-1.63V195H339Zm0,11.23h-1.63V199H339Z"/><path d="M343,199l.11,1.33a3.3,3.3,0,0,1,1.12-1.11,3,3,0,0,1,1.54-.39,2.91,2.91,0,0,1,2.24.85,3.75,3.75,0,0,1,.79,2.61v5.65h-1.63v-5.61a2.38,2.38,0,0,0-.47-1.68,1.86,1.86,0,0,0-1.42-.5,2.45,2.45,0,0,0-1.28.31,2.16,2.16,0,0,0-.83.84v6.64h-1.63V199Z"/><path d="M357.6,196.79V199h1.7v1.2h-1.7v5.43a1.24,1.24,0,0,0,.26.89,1,1,0,0,0,.7.25l.31,0,.29-.08.22,1.11a1.51,1.51,0,0,1-.54.25,2.8,2.8,0,0,1-.7.09,2.11,2.11,0,0,1-1.58-.6,2.6,2.6,0,0,1-.58-1.88v-5.43h-1.43V199H356v-2.16Z"/><path d="M362.67,200.14a3.41,3.41,0,0,1,1.14-1,3.1,3.1,0,0,1,1.49-.36,2.92,2.92,0,0,1,2.23.86,3.8,3.8,0,0,1,.79,2.65v5.6H366.7v-5.62a2.4,2.4,0,0,0-.48-1.64,1.83,1.83,0,0,0-1.42-.53,2.66,2.66,0,0,0-1.26.29,2.23,2.23,0,0,0-.87.8v6.7H361V195h1.63Z"/><path d="M374.37,208.06a3.79,3.79,0,0,1-3-1.23,4.73,4.73,0,0,1-1.08-3.24v-.36A4.6,4.6,0,0,1,371.4,200a3.47,3.47,0,0,1,2.71-1.26,3.23,3.23,0,0,1,2.69,1.12,4.57,4.57,0,0,1,.9,3v.86H372l0,0a3.68,3.68,0,0,0,.6,2.19,2.07,2.07,0,0,0,1.82.84,4,4,0,0,0,1.45-.24,3.28,3.28,0,0,0,1.07-.64l.63,1.05a3.87,3.87,0,0,1-1.26.78A4.85,4.85,0,0,1,374.37,208.06Zm-.26-8a1.76,1.76,0,0,0-1.41.66,3.11,3.11,0,0,0-.68,1.68l0,0h4v-.13a2.59,2.59,0,0,0-.48-1.61A1.72,1.72,0,0,0,374.11,200.06Z"/><path d="M385.49,196.66h-1.63V195h1.63Zm0,11.23h-1.63V199h1.63Z"/><path d="M389.45,199l.12,1.33a3.21,3.21,0,0,1,1.12-1.11,3,3,0,0,1,1.53-.39,2.91,2.91,0,0,1,2.24.85,3.7,3.7,0,0,1,.79,2.61v5.65h-1.63v-5.61a2.43,2.43,0,0,0-.46-1.68,1.88,1.88,0,0,0-1.43-.5,2.45,2.45,0,0,0-1.28.31,2.23,2.23,0,0,0-.83.84v6.64H388V199Z"/><path d="M398.29,207.89v-7.74H396.9V199h1.39v-1.14a3.07,3.07,0,0,1,.75-2.21,2.77,2.77,0,0,1,2.09-.78,3.53,3.53,0,0,1,.56.05,6.06,6.06,0,0,1,.64.13l-.2,1.24a1.68,1.68,0,0,0-.36-.06,3.15,3.15,0,0,0-.44,0,1.26,1.26,0,0,0-1.06.43,1.9,1.9,0,0,0-.35,1.23V199h1.62v1.2h-1.62v7.74Z"/><path d="M402.81,203.34a4.88,4.88,0,0,1,1.07-3.27,3.61,3.61,0,0,1,2.92-1.29,3.65,3.65,0,0,1,2.94,1.28,4.93,4.93,0,0,1,1.08,3.28v.18a4.88,4.88,0,0,1-1.08,3.27,4,4,0,0,1-5.86,0,5,5,0,0,1-1.07-3.27Zm1.62.18a4.21,4.21,0,0,0,.6,2.34,2,2,0,0,0,1.79.93,2,2,0,0,0,1.76-.93,4.13,4.13,0,0,0,.61-2.34v-.18a4.24,4.24,0,0,0-.61-2.34,2,2,0,0,0-1.78-.94A2,2,0,0,0,405,201a4.24,4.24,0,0,0-.6,2.34Z"/><path d="M417,200.38l-.84,0a1.86,1.86,0,0,0-1.08.31,1.84,1.84,0,0,0-.68.86v6.39h-1.63V199h1.45l.16,1.3a3,3,0,0,1,.94-1.08,2.18,2.18,0,0,1,1.28-.39,2,2,0,0,1,.35,0l.27.06Z"/><path d="M420.19,199l.11,1.17a3.22,3.22,0,0,1,1.12-1,3.35,3.35,0,0,1,1.56-.35,2.77,2.77,0,0,1,1.53.41,2.55,2.55,0,0,1,1,1.24,3.35,3.35,0,0,1,1.12-1.21,3,3,0,0,1,1.61-.44,2.67,2.67,0,0,1,2.16.94,4.27,4.27,0,0,1,.79,2.82v5.35h-1.62v-5.36a3,3,0,0,0-.46-1.88,1.66,1.66,0,0,0-1.35-.55,1.77,1.77,0,0,0-1.36.58,2.57,2.57,0,0,0-.6,1.47v5.74h-1.64v-5.36a2.92,2.92,0,0,0-.47-1.84,1.62,1.62,0,0,0-1.34-.59,2.25,2.25,0,0,0-1.22.31,2,2,0,0,0-.74.86v6.62h-1.63V199Z"/><path d="M439,207.89q-.07-.4-.12-.72a4.2,4.2,0,0,1-.06-.62,3.84,3.84,0,0,1-1.18,1.08,3.05,3.05,0,0,1-1.58.43,3,3,0,0,1-2.13-.71,2.67,2.67,0,0,1-.73-2,2.32,2.32,0,0,1,1-2,4.85,4.85,0,0,1,2.81-.72h1.77v-.89a1.64,1.64,0,0,0-.48-1.24,1.9,1.9,0,0,0-1.35-.46,1.92,1.92,0,0,0-1.28.4,1.17,1.17,0,0,0-.49.95l-1.55,0v-.05a2.13,2.13,0,0,1,.91-1.79,3.78,3.78,0,0,1,2.51-.81,3.7,3.7,0,0,1,2.44.77,2.74,2.74,0,0,1,.93,2.23v4.31a9,9,0,0,0,0,.92,4.44,4.44,0,0,0,.18.88Zm-2.7-1.19a2.88,2.88,0,0,0,1.6-.46,2.14,2.14,0,0,0,.92-1v-1.45H437a2.37,2.37,0,0,0-1.58.49,1.5,1.5,0,0,0-.59,1.17,1.21,1.21,0,0,0,.37.94A1.58,1.58,0,0,0,436.32,206.7Z"/><path d="M444.59,207.89H443V195h1.62Z"/><path d="M456.5,205.48a1.08,1.08,0,0,0-.4-.87,3.91,3.91,0,0,0-1.55-.6,6.31,6.31,0,0,1-2.43-.95,1.91,1.91,0,0,1-.85-1.63,2.36,2.36,0,0,1,.93-1.87,3.64,3.64,0,0,1,2.41-.78,3.57,3.57,0,0,1,2.46.83,2.39,2.39,0,0,1,.91,1.92l0,.05H456.4a1.41,1.41,0,0,0-.5-1.05,2.14,2.14,0,0,0-2.57-.08,1.2,1.2,0,0,0-.43.93,1,1,0,0,0,.37.81,3.91,3.91,0,0,0,1.51.53,6.31,6.31,0,0,1,2.5,1,2,2,0,0,1,.85,1.66,2.36,2.36,0,0,1-1,1.94,4,4,0,0,1-2.52.75,3.9,3.9,0,0,1-2.69-.87,2.42,2.42,0,0,1-.93-2v0h1.56a1.49,1.49,0,0,0,.64,1.27,2.46,2.46,0,0,0,1.41.4,2.2,2.2,0,0,0,1.36-.37A1.11,1.11,0,0,0,456.5,205.48Z"/><path d="M463.86,208.06a3.77,3.77,0,0,1-3-1.23,4.73,4.73,0,0,1-1.08-3.24v-.36a4.64,4.64,0,0,1,1.11-3.19,3.47,3.47,0,0,1,2.71-1.26,3.21,3.21,0,0,1,2.69,1.12,4.57,4.57,0,0,1,.9,3v.86h-5.72l0,0A3.75,3.75,0,0,0,462,206a2.08,2.08,0,0,0,1.82.84,4,4,0,0,0,1.45-.24,3.18,3.18,0,0,0,1.07-.64L467,207a3.82,3.82,0,0,1-1.27.78A4.85,4.85,0,0,1,463.86,208.06Zm-.26-8a1.79,1.79,0,0,0-1.41.66,3.19,3.19,0,0,0-.68,1.68l0,0h4v-.13a2.59,2.59,0,0,0-.48-1.61A1.72,1.72,0,0,0,463.6,200.06Z"/><path d="M472.57,206.79a2,2,0,0,0,1.32-.5,1.59,1.59,0,0,0,.56-1.23h1.47l0,.05a2.54,2.54,0,0,1-1,2.06,3.8,3.8,0,0,1-5.29-.39,5,5,0,0,1-1-3.19v-.35a4.87,4.87,0,0,1,1-3.17,3.49,3.49,0,0,1,2.9-1.29,3.35,3.35,0,0,1,2.45.93,2.88,2.88,0,0,1,.92,2.27V202h-1.48a1.94,1.94,0,0,0-.54-1.39,1.72,1.72,0,0,0-1.34-.58,1.89,1.89,0,0,0-1.75.93,4.41,4.41,0,0,0-.55,2.25v.35a4.31,4.31,0,0,0,.55,2.27A1.87,1.87,0,0,0,472.57,206.79Z"/><path d="M480.14,196.79V199h1.7v1.2h-1.7v5.43a1.24,1.24,0,0,0,.26.89,1,1,0,0,0,.69.25l.32,0,.29-.08.22,1.11a1.51,1.51,0,0,1-.54.25,2.8,2.8,0,0,1-.7.09,2.11,2.11,0,0,1-1.58-.6,2.6,2.6,0,0,1-.59-1.88v-5.43h-1.42V199h1.42v-2.16Z"/><path d="M483.2,203.34a4.88,4.88,0,0,1,1.08-3.27,3.57,3.57,0,0,1,2.91-1.29,3.65,3.65,0,0,1,2.94,1.28,4.93,4.93,0,0,1,1.08,3.28v.18a4.93,4.93,0,0,1-1.07,3.27,4,4,0,0,1-5.86,0,4.92,4.92,0,0,1-1.08-3.27Zm1.63.18a4.21,4.21,0,0,0,.6,2.34,2.16,2.16,0,0,0,3.55,0,4.21,4.21,0,0,0,.6-2.34v-.18A4.16,4.16,0,0,0,489,201a2.14,2.14,0,0,0-3.54,0,4.24,4.24,0,0,0-.6,2.34Z"/><path d="M497.43,200.38l-.83,0a1.92,1.92,0,0,0-1.09.31,2,2,0,0,0-.68.86v6.39H493.2V199h1.46l.15,1.3a3.22,3.22,0,0,1,.94-1.08,2.19,2.19,0,0,1,1.29-.39,1.87,1.87,0,0,1,.34,0l.28.06Z"/><path class="cls-1" d="M282.37,113.73l0-7.66-3.75,6.31h-1.33l-3.74-6.15v7.5h-2.77V101h2.44L278,108.9l4.7-7.93h2.42l0,12.76Z"/><path class="cls-1" d="M288.17,101h2.95v12.76h-2.95Z"/><path class="cls-1" d="M294.14,101h3v10.35h6.4v2.41h-9.36Z"/><path class="cls-1" d="M305.15,101h3v10.35h6.4v2.41h-9.36Z"/><path class="cls-1" d="M316.16,101h3v12.76h-3Z"/><path class="cls-1" d="M324.74,113.09a6.52,6.52,0,0,1,0-11.49,8,8,0,0,1,7.16,0,6.45,6.45,0,0,1,2.49,2.37,6.51,6.51,0,0,1-2.49,9.12,7.88,7.88,0,0,1-7.16,0Zm5.62-2.18a3.78,3.78,0,0,0,1.44-1.45,4.56,4.56,0,0,0,0-4.23,3.78,3.78,0,0,0-1.44-1.45,4.07,4.07,0,0,0-2-.52,4.13,4.13,0,0,0-2,.52,3.76,3.76,0,0,0-1.43,1.45,4.56,4.56,0,0,0,0,4.23,3.76,3.76,0,0,0,1.43,1.45,4,4,0,0,0,2,.52A4,4,0,0,0,330.36,110.91Z"/><path class="cls-1" d="M349.23,101v12.76h-2.42L340.45,106v7.75h-2.92V101H340l6.35,7.74V101Z"/><path class="cls-1" d="M357.42,101h2.95v12.76h-2.95Z"/><path class="cls-1" d="M375.1,101v12.76h-2.43L366.31,106v7.75H363.4V101h2.44l6.34,7.74V101Z"/><path class="cls-1" d="M381.08,103.34v3.37H387v2.37h-5.9v4.65h-3V101h9.65v2.37Z"/><path class="cls-1" d="M392.24,113.09a6.52,6.52,0,0,1,0-11.49,8,8,0,0,1,7.16,0,6.45,6.45,0,0,1,2.49,2.37,6.51,6.51,0,0,1-2.49,9.12,7.88,7.88,0,0,1-7.16,0Zm5.63-2.18a3.83,3.83,0,0,0,1.43-1.45,4.56,4.56,0,0,0,0-4.23,3.83,3.83,0,0,0-1.43-1.45,4.28,4.28,0,0,0-4.09,0,3.76,3.76,0,0,0-1.43,1.45,4.56,4.56,0,0,0,0,4.23,3.76,3.76,0,0,0,1.43,1.45,4.28,4.28,0,0,0,4.09,0Z"/><path class="cls-1" d="M413.16,113.73l-2.46-3.56H408v3.56h-3V101h5.52a7.25,7.25,0,0,1,2.95.56,4.26,4.26,0,0,1,2.6,4.07,4.18,4.18,0,0,1-2.63,4l2.86,4.1Zm-.75-9.78a3,3,0,0,0-2-.58H408v4.45h2.41a3,3,0,0,0,2-.58,2.28,2.28,0,0,0,0-3.29Z"/><path class="cls-1" d="M430,113.73l0-7.66-3.75,6.31h-1.33l-3.74-6.15v7.5h-2.77V101h2.44l4.78,7.93,4.7-7.93h2.42l0,12.76Z"/><path class="cls-1" d="M444.24,111h-5.92l-1.13,2.74h-3L439.85,101h2.91l5.71,12.76h-3.1Zm-.93-2.24-2-4.89-2,4.89Z"/><path class="cls-1" d="M449.8,101h2.95v10.35h6.4v2.41H449.8Z"/><path class="cls-1" d="M485.25,101l-4.17,12.76h-3.17l-2.81-8.64-2.9,8.64h-3.15L464.86,101h3.06l2.88,9,3-9h2.73l2.92,9,3-9Z"/><path class="cls-1" d="M489.35,113.09a6.32,6.32,0,0,1-2.5-2.36,6.8,6.8,0,0,1,0-6.76,6.34,6.34,0,0,1,2.5-2.37,7.94,7.94,0,0,1,7.15,0A6.48,6.48,0,0,1,499,104a6.73,6.73,0,0,1,0,6.76,6.45,6.45,0,0,1-2.5,2.36,7.86,7.86,0,0,1-7.15,0Zm5.62-2.18a3.76,3.76,0,0,0,1.43-1.45,4.56,4.56,0,0,0,0-4.23,3.76,3.76,0,0,0-1.43-1.45,4.13,4.13,0,0,0-2-.52,4.07,4.07,0,0,0-2,.52,3.69,3.69,0,0,0-1.43,1.45,4.56,4.56,0,0,0,0,4.23,3.69,3.69,0,0,0,1.43,1.45,4,4,0,0,0,2,.52A4,4,0,0,0,495,110.91Z"/><path class="cls-1" d="M510.26,113.73l-2.46-3.56h-2.71v3.56h-3V101h5.53a7.17,7.17,0,0,1,2.94.56,4.39,4.39,0,0,1,0,8.1l2.87,4.1Zm-.74-9.78a3.09,3.09,0,0,0-2-.58h-2.4v4.45h2.4a3.09,3.09,0,0,0,2-.58,2.31,2.31,0,0,0,0-3.29Z"/><path class="cls-1" d="M520.18,108.71l-1.71,1.79v3.23h-2.94V101h2.94v6l5.65-6h3.28l-5.29,5.68,5.6,7.08h-3.45Z"/><path class="cls-1" d="M538.9,111.36v2.37H529V101h9.64v2.37H532v2.77h5.92v2.29H532v3Z"/><path class="cls-1" d="M549.38,113.73l-2.46-3.56H544.2v3.56h-3V101h5.53a7.17,7.17,0,0,1,2.94.56,4.26,4.26,0,0,1,2.6,4.07,4.18,4.18,0,0,1-2.63,4l2.86,4.1Zm-.75-9.78a3,3,0,0,0-2-.58H544.2v4.45h2.41a3,3,0,0,0,2-.58,2.28,2.28,0,0,0,0-3.29Z"/><path class="cls-1" d="M555.92,113.54a7,7,0,0,1-2.27-1.07l1-2.22a6.82,6.82,0,0,0,2,1,7.42,7.42,0,0,0,2.26.37,3.59,3.59,0,0,0,1.86-.38,1.13,1.13,0,0,0,.6-1,1,1,0,0,0-.35-.76,2.7,2.7,0,0,0-.91-.48c-.38-.12-.88-.26-1.51-.4a21,21,0,0,1-2.39-.69,4,4,0,0,1-1.59-1.12,3,3,0,0,1-.67-2,3.54,3.54,0,0,1,.6-2,4.1,4.1,0,0,1,1.82-1.43,7.26,7.26,0,0,1,3-.53,10.09,10.09,0,0,1,2.39.29,6.72,6.72,0,0,1,2,.84l-.91,2.24a7.11,7.11,0,0,0-3.54-1,3.29,3.29,0,0,0-1.83.4,1.22,1.22,0,0,0-.59,1.06,1,1,0,0,0,.68,1,11.21,11.21,0,0,0,2.09.63,21,21,0,0,1,2.39.69,3.9,3.9,0,0,1,1.59,1.1,2.93,2.93,0,0,1,.67,2,3.57,3.57,0,0,1-.61,2,4.17,4.17,0,0,1-1.84,1.43,7.48,7.48,0,0,1-3,.53A10.51,10.51,0,0,1,555.92,113.54Z"/><path class="cls-1" d="M414.83,49.1v5.19L402,83.73h-8.7l12.41-28.1H394.19v5.64h-7.12V49.1Z"/><path class="cls-1" d="M445.18,68.89a8.56,8.56,0,0,1,1.36,4.8,9,9,0,0,1-1.83,5.62A11.71,11.71,0,0,1,439.57,83a23.05,23.05,0,0,1-15.32,0,11.55,11.55,0,0,1-5.09-3.71,9.07,9.07,0,0,1-1.81-5.62,8.56,8.56,0,0,1,1.36-4.8,9.83,9.83,0,0,1,3.89-3.36,8.44,8.44,0,0,1-3-3,8,8,0,0,1-1-4.13,8.44,8.44,0,0,1,1.68-5.24,10.71,10.71,0,0,1,4.7-3.44,18.43,18.43,0,0,1,6.93-1.21,18.77,18.77,0,0,1,7,1.21,10.66,10.66,0,0,1,4.72,3.44,8.45,8.45,0,0,1,1.69,5.24,8.15,8.15,0,0,1-1,4.13,8.43,8.43,0,0,1-3,3A9.82,9.82,0,0,1,445.18,68.89Zm-8.51,8.19a4.38,4.38,0,0,0,1.76-3.64,4.31,4.31,0,0,0-1.76-3.61,7.7,7.7,0,0,0-4.77-1.33,7.5,7.5,0,0,0-4.7,1.33,4.68,4.68,0,0,0,0,7.27,9,9,0,0,0,9.47,0ZM428,55.56a3.86,3.86,0,0,0-1.46,3.19A3.73,3.73,0,0,0,428,61.86,6.11,6.11,0,0,0,431.9,63a6.34,6.34,0,0,0,4-1.14,3.68,3.68,0,0,0,1.48-3.11,3.82,3.82,0,0,0-1.48-3.19,6.22,6.22,0,0,0-4-1.17A6.05,6.05,0,0,0,428,55.56Z"/><rect class="cls-1" x="45.72" y="44.25" width="161.49" height="161.49" transform="translate(125.43 -52.81) rotate(45)"/><g class="cls-2"><path class="cls-3" d="M126.47,227.58,23.89,125,126.47,22.42,229,125ZM27.06,125l99.41,99.41L225.88,125,126.47,25.59Zm99.41,89.55L92.23,180.31l26.18-26.18L93,128.75l-18,18,11.9,11.9,4.93-4.93-7-7L93,138.61l15.52,15.52L87.3,175.38,57.37,145.45,77.82,125,57.37,104.55,87.3,74.62l21.25,21.25L93,111.39l-8.15-8.15,7-7-4.93-4.93L75,103.24l18,18,25.38-25.38L92.23,69.69l34.24-34.24L160.7,69.69,134.52,95.87l25.38,25.38,18-18L166,91.34l-4.93,4.93,7,7-8.16,8.15L144.38,95.87l21.25-21.25,29.93,29.93L175.11,125l20.45,20.45-29.93,29.93-21.25-21.25,15.52-15.52,8.16,8.15-7,7,4.93,4.93,11.9-11.9-18-18-25.38,25.38,26.18,26.18ZM95.4,180.31l31.07,31.07,31.06-31.07-26.18-26.18,28.55-28.55,21.18,21.18L166,161.83l-8.1-8.1,7-7-5-5-12.35,12.35,18.08,18.08,26.76-26.76L171.94,125l20.45-20.45L165.63,77.79,147.55,95.87l12.35,12.35,5-5-7-7,8.1-8.1,15.06,15.07L159.9,124.42,131.35,95.87l26.18-26.18L126.47,38.62,95.4,69.69l26.18,26.18L93,124.42,71.85,103.24,86.92,88.17l8.1,8.1-7,7,5,5,12.35-12.35L87.3,77.79,60.54,104.55,81,125,60.54,145.45,87.3,172.21l18.08-18.08L93,141.78l-5,5,7,7-8.1,8.1L71.85,146.76,93,125.58l28.55,28.55Zm105.09-39.79L185,125l15.52-15.52L216,125ZM188.14,125l12.35,12.35L212.85,125l-12.36-12.35ZM52.44,140.52,36.92,125l15.52-15.52L68,125ZM40.09,125l12.35,12.35L64.79,125,52.44,112.65Z"/><path class="cls-3" d="M126.47,204l-24-24,24-24,24,24Zm-20.85-24,20.85,20.85L147.32,180,126.47,159.1Z"/><path class="cls-3" d="M126.47,93.4l-24-24,24-24,24,24Zm-20.85-24,20.85,20.85,20.85-20.85L126.47,48.53Z"/></g><polygon class="cls-4" points="12.85 125 126.58 238.73 528 238.73 641.73 125 528 11.27 126.58 11.27 12.85 125"/><path class="cls-3" d="M175.09,152c-.5.6-1,1.17-1.9.82s-.95-1.08-.95-1.88c0-3.54,0-7.09,0-10.63,0-2.13-.76-3.14-2.78-3.73-1.82-.54-3.63-1.08-5.47-1.56a1.16,1.16,0,0,0-1,.25c-.95.87-1.88,1.79-2.75,2.75a2,2,0,0,0-.39,1.18c0,3.8,0,7.59,0,11.39,0,.22,0,.44,0,.67-.05,1-.6,1.67-1.44,1.67s-1.4-.65-1.4-1.69c0-4,0-8,0-12a1.78,1.78,0,0,0-.62-1.49c-.68-.61-1.3-1.29-1.95-1.94-1.13-1.13-1.13-1.13-2.75-.45,2.21,2.25,2.14,5.07,2.1,7.9,0,2.47,0,4.94,0,7.41,0,.25,0,.51,0,.76a1.46,1.46,0,0,1-1.45,1.46,1.44,1.44,0,0,1-1.38-1.52c0-1.49,0-3,0-4.46,0-2.06,0-4.12,0-6.17a4.63,4.63,0,0,0-3.14-4.62c-3-1.14-6-2.22-9.17-3.36l-2.88,4.32c-.34.5-.65,1-1,1.5a2.92,2.92,0,0,1-4.48.4c-.74-.69-1.4-1.44-2.29-2.36,0,.62-.06,1-.06,1.27v12.82c0,1.46-.47,2.16-1.42,2.18s-1.43-.69-1.43-2.14c0-4.27,0-8.54,0-12.82v-1l-.36-.25c-.58.69-1.13,1.42-1.76,2-1.67,1.68-3.64,1.48-5-.47-1.22-1.8-2.42-3.62-3.67-5.5-3.26,1.2-6.52,2.31-9.69,3.63-1.88.78-2.62,2.47-2.62,4.47,0,3.29,0,6.58,0,9.88a7.39,7.39,0,0,1,0,.94,1.31,1.31,0,0,1-1.27,1.2,1.28,1.28,0,0,1-1.42-1,3.93,3.93,0,0,1-.12-1c0-3.29-.08-6.58,0-9.87a32,32,0,0,1,.79-4.52c-1.11-.8-1.11-.8-2.25.29-2.52,2.42-5.25,2.93-7.81,1.37a13.49,13.49,0,0,1-2.17-1.83.89.89,0,0,0-1.22-.2c-1.25.68-2.53,1.29-3.81,1.92a3.41,3.41,0,0,0-2,3.35c0,3.13,0,6.27,0,9.4,0,.25,0,.51,0,.76a1.46,1.46,0,0,1-1.42,1.39,1.42,1.42,0,0,1-1.4-1.4c-.05-.89,0-1.78,0-2.66v-7.6a6,6,0,0,1,3.5-5.73c1.14-.6,2.3-1.16,3.5-1.76-1.07-.68-2.08-1.29-3-2a11.64,11.64,0,0,1-1.32-1.22,3,3,0,0,1-.71-3.4,35,35,0,0,0,.91-6.17c.24-2.29.17-4.63.61-6.88a12,12,0,0,1,10.12-9.62,11.84,11.84,0,0,1,13,8.62,38.27,38.27,0,0,1,.8,6.18c.22,2.14.35,4.29.58,6.42a6.82,6.82,0,0,0,.54,1.91,2.22,2.22,0,0,1-.4,2.45,13.31,13.31,0,0,1-4.8,3.57,1.72,1.72,0,0,0,2.12.28c2.79-1.18,5.66-2.18,8.51-3.22a2.39,2.39,0,0,0,1.41-1.18,22.29,22.29,0,0,1,2.22-2.58,4.7,4.7,0,0,0,.54-1.32,1.38,1.38,0,0,0,0-.29,6.86,6.86,0,0,0-2.11-6,15.3,15.3,0,0,1-4-11,25.73,25.73,0,0,0-.93-5.93c-1-4.43-1.28-9,.8-13.18a12.7,12.7,0,0,1,11.52-7.59c7.24-.23,14.5-.08,21.74-.08a1.48,1.48,0,0,1,1.68,1.64c0,5.53,0,11.07-.14,16.61a11.43,11.43,0,0,1-.82,3.77,9.15,9.15,0,0,0-.55,3.61c.09,3.24-.24,6.44-1.92,9.26a60,60,0,0,1-3.62,4.82,5.08,5.08,0,0,0-.54,1.21c0,.08,0,.19,0,.28a5.93,5.93,0,0,0,2.38,6.2c.08.06.17.13.19.21.35,1.43,1.64,1.56,2.72,2,1.66.62,3.33,1.19,5,1.84a2.73,2.73,0,0,0,2.1.07,11.09,11.09,0,0,1,1.28-.38c1.87-.54,2-.75,1.72-2.66a1.22,1.22,0,0,0-.43-.67,10.94,10.94,0,0,1-4.11-9,7.64,7.64,0,0,0-.76-3.54c-2.47-5.27,1.41-12,7.23-12.24,4.83-.24,9.67-.14,14.51-.15,1,0,1.61.5,1.61,1.38,0,3,0,5.94-.15,8.91a4.91,4.91,0,0,1-.61,2.08,6.78,6.78,0,0,0-.73,3.64,10.43,10.43,0,0,1-4.1,9c-.86.67-.4,1.58-.38,2.37,0,.26.65.59,1,.72,1.57.5,3.15.93,4.74,1.37a6.1,6.1,0,0,1,4.63,4.65,1,1,0,0,0,.15.23ZM141.72,84.45a.66.66,0,0,0-.25-.07c-6.74,0-13.48-.11-20.22.05a10.34,10.34,0,0,0-9.76,8.27,17.82,17.82,0,0,0,.43,9.74,15,15,0,0,1,.76,5.29,15.51,15.51,0,0,0,1.42,6.9,13.78,13.78,0,0,0,14,7.93,13.63,13.63,0,0,0,11.67-10.2,47.58,47.58,0,0,0,.56-6.78,13,13,0,0,1,.35-1.94,24.41,24.41,0,0,0,1.05-4.58c.15-4.81.08-9.62.09-14.43C141.81,84.58,141.76,84.52,141.72,84.45Zm26,22.75c-3.42,0-6.64,0-9.86,0a29.82,29.82,0,0,0-3.41.13,5.94,5.94,0,0,0-4.7,8.23,9.5,9.5,0,0,1,1,4.83,7.24,7.24,0,0,0,.06,1.23c.35,3.87,4,7.22,7.62,7.1a7.72,7.72,0,0,0,7.71-7.94,12.44,12.44,0,0,1,1-5.32C168.29,112.88,167.46,110.05,167.72,107.2ZM102.31,119c0-3.11-.48-6.22-2.79-8.83a9,9,0,0,0-13.19.14c-2.31,2.7-2.72,5.87-2.67,8.92a9,9,0,0,1,1.49,1.46,4.11,4.11,0,0,1,.24,1.48,7.66,7.66,0,0,0,7.32,6.59,7.76,7.76,0,0,0,7.58-5.22,2.5,2.5,0,0,0-.35-2.47c-2.23-3.11-5.42-4.29-9.07-4.57a1.23,1.23,0,0,0-.78.4,16.94,16.94,0,0,1-1.83,1.77,1.8,1.8,0,0,1-1.55.13,1.7,1.7,0,0,1-.68-1.29c0-.95,3.09-3.94,4-3.93a15.21,15.21,0,0,1,8,2.14A47.3,47.3,0,0,1,102.31,119Zm16.46,4.62a19.23,19.23,0,0,0,0,2,1.45,1.45,0,0,0,.48.91c2.23,1.57,4.47,3.1,6.74,4.6a1.06,1.06,0,0,0,.95,0c2.27-1.5,4.51-3,6.74-4.6a1.12,1.12,0,0,0,.49-.72c.07-.67,0-1.36,0-2.19A16.85,16.85,0,0,1,118.77,123.57Zm10.15,9.7,3.58,3.57,3.4-5.08c1-1.48,1-1.48-.27-2.72a1.3,1.3,0,0,0-.28-.16ZM120.56,137l3.6-3.62-6.58-4.49a12.73,12.73,0,0,0-1.1,1.12.76.76,0,0,0-.09.71C117.76,132.78,119.16,134.87,120.56,137Zm-30.68-5.57c-.18,1.57-.57,3.3,1.46,4.29a3.53,3.53,0,0,0,3.42-.08c2-1,1.45-2.73,1.28-4.21Zm65.39-.2c0,.53-.12,1.18.14,1.47.92,1.09,2,2.07,3.06,3.16.87-.9,1.59-1.74,2.41-2.47a1.75,1.75,0,0,0,.61-2.13,21.87,21.87,0,0,1-3,.34A26.76,26.76,0,0,1,155.27,131.19Zm-72.1-5.56c-.16.65-.41,1.55-.61,2.47a.84.84,0,0,0,.13.66,10.09,10.09,0,0,0,4.37,2.62c-.09-.7,0-1.41-.28-1.77C85.62,128.19,84.32,126.88,83.17,125.63ZM99,131.35a10.23,10.23,0,0,0,4.18-2.54.74.74,0,0,0,.24-.56c-.22-1-.49-1.91-.7-2.67a35.23,35.23,0,0,1-3,3.47A2.15,2.15,0,0,0,99,131.35Z"/><path class="cls-3" d="M166.16,146.84c0-1.42,0-2.84,0-4.26,0-1,.59-1.65,1.44-1.63a1.43,1.43,0,0,1,1.4,1.59c0,2.9,0,5.81,0,8.71a1.48,1.48,0,0,1-1.45,1.65c-.84,0-1.38-.67-1.39-1.7C166.15,149.75,166.16,148.29,166.16,146.84Z"/><path class="cls-3" d="M86.78,147.9c0,1.13,0,2.27,0,3.41a1.42,1.42,0,1,1-2.83,0c0-2.31,0-4.61,0-6.92a1.43,1.43,0,0,1,1.42-1.57c.86,0,1.4.61,1.42,1.64S86.78,146.76,86.78,147.9Z"/><path class="cls-3" d="M141.84,148.36c0-1,0-1.9,0-2.84A1.42,1.42,0,0,1,143.2,144a1.4,1.4,0,0,1,1.46,1.44c.05,2,0,4,0,6a1.42,1.42,0,1,1-2.82-.1C141.82,150.33,141.84,149.35,141.84,148.36Z"/><path class="cls-3" d="M111.14,148.46c0,1,0,2,0,2.94a1.39,1.39,0,0,1-1.39,1.49,1.35,1.35,0,0,1-1.4-1.39c0-2.05-.06-4.11,0-6.16a1.3,1.3,0,0,1,1.43-1.34,1.34,1.34,0,0,1,1.34,1.42c0,1,0,2,0,3Z"/><path class="cls-3" d="M117.25,97.86c0,1.08,0,2,0,3,0,1.15-.54,1.74-1.44,1.72s-1.37-.59-1.39-1.68,0-2.15,0-3.22A2.84,2.84,0,0,1,116.87,95a39.49,39.49,0,0,1,14.42.17,13.71,13.71,0,0,1,6.7,3.35,1.43,1.43,0,0,1,.25,2,1.37,1.37,0,0,1-2,.14c-2.68-2.41-6-3-9.38-3.29A43,43,0,0,0,117.25,97.86Z"/><path class="cls-3" d="M164.42,114.56c0,1.28-.85,2-1.75,1.69a29.53,29.53,0,0,0-8.83-1.45,1.31,1.31,0,0,1-1.36-1.4A1.34,1.34,0,0,1,154,112a24.37,24.37,0,0,1,9.27,1.51A4.22,4.22,0,0,1,164.42,114.56Z"/></svg>