<svg id="Layer_1" data-name="Layer 1" xmlns="http://www.w3.org/2000/svg" viewBox="0 0 654 250"><defs><style>.cls-1{fill:none;stroke:#e2243e;stroke-miterlimit:10;stroke-width:2.6px;}.cls-2{fill:#e2243e;}.cls-3{opacity:0.15;}.cls-4{fill:#fff;}</style></defs><polygon class="cls-1" points="12.85 125 126.58 238.73 528 238.73 641.73 125 528 11.27 126.58 11.27 12.85 125"/><path class="cls-2" d="M295.69,112.45l0-7.65-3.75,6.3h-1.33L286.85,105v7.49h-2.77V99.69h2.44l4.78,7.93,4.7-7.93h2.43l0,12.76Z"/><path class="cls-2" d="M301.49,99.69h2.95v12.76h-2.95Z"/><path class="cls-2" d="M307.47,99.69h2.95v10.36h6.4v2.4h-9.35Z"/><path class="cls-2" d="M318.48,99.69h2.95v10.36h6.4v2.4h-9.35Z"/><path class="cls-2" d="M329.49,99.69h2.95v12.76h-2.95Z"/><path class="cls-2" d="M338.06,111.81a6.29,6.29,0,0,1-2.49-2.36,6.73,6.73,0,0,1,0-6.76,6.36,6.36,0,0,1,2.49-2.36,7.5,7.5,0,0,1,3.59-.86,7.42,7.42,0,0,1,3.57.86,6.6,6.6,0,0,1,2.5,9.12,6.38,6.38,0,0,1-2.5,2.36,7.31,7.31,0,0,1-3.57.86A7.39,7.39,0,0,1,338.06,111.81Zm5.63-2.17a3.76,3.76,0,0,0,1.43-1.45,4.56,4.56,0,0,0,0-4.23,3.69,3.69,0,0,0-1.43-1.45,4,4,0,0,0-2-.52,4,4,0,0,0-2,.52,3.72,3.72,0,0,0-1.44,1.45,4.56,4.56,0,0,0,0,4.23,3.78,3.78,0,0,0,1.44,1.45,4.07,4.07,0,0,0,2,.52A4.13,4.13,0,0,0,343.69,109.64Z"/><path class="cls-2" d="M362.56,99.69v12.76h-2.43l-6.36-7.75v7.75h-2.92V99.69h2.45l6.34,7.75V99.69Z"/><path class="cls-2" d="M382.44,99.69v12.76h-2.95v-5.23h-5.8v5.23h-2.95V99.69h2.95v5h5.8v-5Z"/><path class="cls-2" d="M395.35,110.08v2.37h-9.88V99.69h9.64v2.37H388.4v2.77h5.93v2.3H388.4v3Z"/><path class="cls-2" d="M406.1,109.72h-5.92l-1.13,2.73h-3l5.69-12.76h2.92l5.7,12.76h-3.1Zm-.93-2.24-2-4.89-2,4.89Z"/><path class="cls-2" d="M411.66,99.69h3v10.36H421v2.4h-9.35Z"/><path class="cls-2" d="M424.13,102.1h-4.08V99.69h11.12v2.41h-4.09v10.35h-2.95Z"/><path class="cls-2" d="M444.46,99.69v12.76h-3v-5.23h-5.79v5.23h-3V99.69h3v5h5.79v-5Z"/><path class="cls-2" d="M471.93,99.69l-4.18,12.76h-3.17l-2.81-8.64-2.89,8.64h-3.16l-4.19-12.76h3.06l2.88,9,3-9h2.73l2.92,9,3-9Z"/><path class="cls-2" d="M476,111.81a6.32,6.32,0,0,1-2.5-2.36,6.5,6.5,0,0,1,2.5-9.12,7.46,7.46,0,0,1,3.58-.86,7.36,7.36,0,0,1,3.57.86,6.45,6.45,0,0,1,2.5,2.36,6.5,6.5,0,0,1-2.5,9.12,7.25,7.25,0,0,1-3.57.86A7.35,7.35,0,0,1,476,111.81Zm5.62-2.17a3.69,3.69,0,0,0,1.43-1.45,4.56,4.56,0,0,0,0-4.23,3.63,3.63,0,0,0-1.43-1.45,4.26,4.26,0,0,0-4.08,0,3.69,3.69,0,0,0-1.43,1.45,4.56,4.56,0,0,0,0,4.23,3.76,3.76,0,0,0,1.43,1.45,4.26,4.26,0,0,0,4.08,0Z"/><path class="cls-2" d="M496.94,112.45l-2.46-3.55h-2.72v3.55h-2.95V99.69h5.52a7.09,7.09,0,0,1,2.95.57,4.35,4.35,0,0,1,1.92,1.6,4.4,4.4,0,0,1,.67,2.46,4.35,4.35,0,0,1-.68,2.45,4.3,4.3,0,0,1-1.94,1.58l2.86,4.1Zm-.75-9.78a3.12,3.12,0,0,0-2-.57h-2.41v4.45h2.41a3.06,3.06,0,0,0,2-.59,2,2,0,0,0,.69-1.64A2,2,0,0,0,496.19,102.67Z"/><path class="cls-2" d="M506.85,107.44l-1.71,1.79v3.22H502.2V99.69h2.94v6l5.65-6h3.28l-5.28,5.69,5.59,7.07h-3.44Z"/><path class="cls-2" d="M525.57,110.08v2.37h-9.88V99.69h9.65v2.37h-6.71v2.77h5.92v2.3h-5.92v3Z"/><path class="cls-2" d="M536.06,112.45l-2.46-3.55h-2.72v3.55h-3V99.69h5.52a7,7,0,0,1,2.94.57,4.32,4.32,0,0,1,1.93,1.6,4.4,4.4,0,0,1,.67,2.46,4.16,4.16,0,0,1-2.62,4l2.86,4.1Zm-.75-9.78a3.13,3.13,0,0,0-2-.57h-2.4v4.45h2.4a3.07,3.07,0,0,0,2-.59,2,2,0,0,0,.69-1.64A2,2,0,0,0,535.31,102.67Z"/><path class="cls-2" d="M542.59,112.26a6.76,6.76,0,0,1-2.27-1.07l1-2.22a7,7,0,0,0,2,1,7.35,7.35,0,0,0,2.25.36,3.6,3.6,0,0,0,1.86-.37,1.12,1.12,0,0,0,.61-1,.94.94,0,0,0-.36-.75,2.9,2.9,0,0,0-.91-.49c-.37-.12-.87-.25-1.5-.4a20.45,20.45,0,0,1-2.39-.69,3.93,3.93,0,0,1-1.6-1.11,3,3,0,0,1-.66-2,3.58,3.58,0,0,1,.6-2A4,4,0,0,1,543,100a7.46,7.46,0,0,1,3-.53,10,10,0,0,1,2.39.29,7.27,7.27,0,0,1,2,.84l-.91,2.25a7.12,7.12,0,0,0-3.53-1,3.42,3.42,0,0,0-1.84.4,1.24,1.24,0,0,0-.59,1.06,1,1,0,0,0,.68,1,11.46,11.46,0,0,0,2.09.63,21,21,0,0,1,2.39.69,4,4,0,0,1,1.6,1.09,3,3,0,0,1,.66,2,3.46,3.46,0,0,1-.61,2,4.13,4.13,0,0,1-1.83,1.43,7.55,7.55,0,0,1-3,.53A10.58,10.58,0,0,1,542.59,112.26Z"/><path class="cls-2" d="M401.4,47.83V82.46h-8V54.26h-6.92V47.83Z"/><path class="cls-2" d="M408.57,81.47A4.7,4.7,0,0,1,407.19,78a4.52,4.52,0,0,1,1.38-3.44,5.11,5.11,0,0,1,6.83,0A4.53,4.53,0,0,1,416.79,78a4.71,4.71,0,0,1-1.39,3.46,4.89,4.89,0,0,1-6.83,0Z"/><path class="cls-2" d="M443.08,63.76a9.65,9.65,0,0,1,3.49,7.81A10.9,10.9,0,0,1,445,77.34a11,11,0,0,1-4.83,4.15,18.33,18.33,0,0,1-8,1.56,27.39,27.39,0,0,1-7.2-1,18.41,18.41,0,0,1-6-2.75l3.17-6.13a15.34,15.34,0,0,0,4.55,2.3,17.56,17.56,0,0,0,5.3.81,8.33,8.33,0,0,0,4.75-1.18,3.81,3.81,0,0,0,1.73-3.32,3.73,3.73,0,0,0-1.81-3.36q-1.8-1.14-6.26-1.14h-8.86l1.79-19.49h21.12v6.43H430l-.55,6.58h2.82Q439.59,60.84,443.08,63.76Z"/><path d="M334.88,150.3a1.91,1.91,0,0,0,1.31-.5,1.55,1.55,0,0,0,.56-1.23h1.47l0,.05a2.6,2.6,0,0,1-1,2.06,3.55,3.55,0,0,1-2.38.89,3.49,3.49,0,0,1-2.91-1.28,4.91,4.91,0,0,1-1-3.19v-.35a4.87,4.87,0,0,1,1-3.17,3.52,3.52,0,0,1,2.91-1.29,3.38,3.38,0,0,1,2.45.93,2.94,2.94,0,0,1,.92,2.27l0,0h-1.48a2,2,0,0,0-.53-1.39,1.74,1.74,0,0,0-1.34-.58,1.88,1.88,0,0,0-1.75.93,4.31,4.31,0,0,0-.55,2.25v.35a4.41,4.41,0,0,0,.54,2.27A1.88,1.88,0,0,0,334.88,150.3Z"/><path d="M339.8,146.85a4.88,4.88,0,0,1,1.08-3.27,3.59,3.59,0,0,1,2.91-1.29,3.65,3.65,0,0,1,2.94,1.28,4.93,4.93,0,0,1,1.08,3.28V147a4.93,4.93,0,0,1-1.07,3.27,4,4,0,0,1-5.86,0A4.92,4.92,0,0,1,339.8,147Zm1.63.18a4.21,4.21,0,0,0,.6,2.34,2.16,2.16,0,0,0,3.55,0,4.21,4.21,0,0,0,.6-2.34v-.18a4.24,4.24,0,0,0-.6-2.34,2,2,0,0,0-1.79-.94,2,2,0,0,0-1.76.94,4.24,4.24,0,0,0-.6,2.34Z"/><path d="M355.48,150.08a2.9,2.9,0,0,1-2.61,1.49,2.86,2.86,0,0,1-2.28-.93,4.3,4.3,0,0,1-.82-2.91v-5.27h1.63v5.29a3.32,3.32,0,0,0,.42,2,1.56,1.56,0,0,0,1.31.54,2.74,2.74,0,0,0,1.44-.35,2.25,2.25,0,0,0,.85-1v-6.44h1.63v8.94h-1.46Z"/><path d="M361.18,151.4h-1.62V138.51h1.62Z"/><path d="M363.32,147.09a5.92,5.92,0,0,1,.92-3.48,3,3,0,0,1,2.58-1.32,3.23,3.23,0,0,1,1.39.29,2.81,2.81,0,0,1,1,.84v-4.91h1.63V151.4h-1.25l-.25-1.13a2.86,2.86,0,0,1-1.08,1,3.25,3.25,0,0,1-1.5.33,3.07,3.07,0,0,1-2.56-1.18,4.91,4.91,0,0,1-.92-3.12Zm1.62.18a3.82,3.82,0,0,0,.56,2.17,1.94,1.94,0,0,0,1.72.81,2.16,2.16,0,0,0,1.22-.33,2.47,2.47,0,0,0,.81-.93v-4.17a2.55,2.55,0,0,0-.81-.88,2.17,2.17,0,0,0-1.21-.33,1.87,1.87,0,0,0-1.73,1,5,5,0,0,0-.56,2.51Z"/><path d="M385.15,147.27a4.91,4.91,0,0,1-.93,3.12,3.07,3.07,0,0,1-2.56,1.18,3.19,3.19,0,0,1-1.55-.35,2.83,2.83,0,0,1-1.08-1l-.27,1.22h-1.24V138.51h1.62v5a2.75,2.75,0,0,1,1.05-.9,3.2,3.2,0,0,1,1.46-.32,3,3,0,0,1,2.58,1.32,6,6,0,0,1,.92,3.48Zm-1.63-.18a4.94,4.94,0,0,0-.56-2.51,1.88,1.88,0,0,0-1.72-1A2.14,2.14,0,0,0,380,144a2.69,2.69,0,0,0-.83,1v3.88a2.68,2.68,0,0,0,.83,1,2.09,2.09,0,0,0,1.28.37,1.91,1.91,0,0,0,1.71-.82,3.7,3.7,0,0,0,.56-2.16Z"/><path d="M390.84,151.57a3.79,3.79,0,0,1-3-1.23,4.73,4.73,0,0,1-1.07-3.24v-.36a4.64,4.64,0,0,1,1.11-3.19,3.47,3.47,0,0,1,2.71-1.26,3.23,3.23,0,0,1,2.69,1.12,4.57,4.57,0,0,1,.9,3v.86h-5.72l0,0a3.68,3.68,0,0,0,.59,2.19,2.08,2.08,0,0,0,1.82.84,4,4,0,0,0,1.45-.24,3.28,3.28,0,0,0,1.07-.64l.64,1.05a3.92,3.92,0,0,1-1.27.78A4.85,4.85,0,0,1,390.84,151.57Zm-.26-8a1.76,1.76,0,0,0-1.41.66,3.11,3.11,0,0,0-.68,1.68l0,0h4v-.13a2.59,2.59,0,0,0-.48-1.61A1.72,1.72,0,0,0,390.58,143.57Z"/><path d="M397.45,142.46l.12,1.33a3.21,3.21,0,0,1,1.12-1.11,3,3,0,0,1,1.53-.39,2.91,2.91,0,0,1,2.24.85,3.7,3.7,0,0,1,.79,2.61v5.65h-1.63v-5.61a2.43,2.43,0,0,0-.46-1.68,1.88,1.88,0,0,0-1.43-.5,2.45,2.45,0,0,0-1.28.31,2.31,2.31,0,0,0-.83.84v6.64H396v-8.94Z"/><path d="M409.32,151.57a3.77,3.77,0,0,1-3-1.23,4.73,4.73,0,0,1-1.08-3.24v-.36a4.64,4.64,0,0,1,1.11-3.19,3.47,3.47,0,0,1,2.71-1.26,3.21,3.21,0,0,1,2.69,1.12,4.57,4.57,0,0,1,.9,3v.86h-5.72l0,0a3.75,3.75,0,0,0,.59,2.19,2.08,2.08,0,0,0,1.82.84,4,4,0,0,0,1.45-.24,3.18,3.18,0,0,0,1.07-.64l.64,1.05a3.82,3.82,0,0,1-1.27.78A4.85,4.85,0,0,1,409.32,151.57Zm-.26-8a1.79,1.79,0,0,0-1.41.66,3.19,3.19,0,0,0-.68,1.68l0,0h4v-.13a2.59,2.59,0,0,0-.48-1.61A1.72,1.72,0,0,0,409.06,143.57Z"/><path d="M414.93,151.4v-7.74h-1.4v-1.2h1.4v-1a3,3,0,0,1,.88-2.33,3.44,3.44,0,0,1,2.44-.83,4.4,4.4,0,0,1,1.09.13c.36.09.78.21,1.27.38l-.28,1.32a6.09,6.09,0,0,0-.94-.3,4.29,4.29,0,0,0-1-.12,1.87,1.87,0,0,0-1.39.43,1.76,1.76,0,0,0-.43,1.32v1h1.78v1.2h-1.78v7.74Zm6.47,0h-1.63v-8.94h1.63Z"/><path d="M426.16,140.3v2.16h1.7v1.2h-1.7v5.43a1.24,1.24,0,0,0,.26.89,1,1,0,0,0,.69.25l.32,0,.29-.08.22,1.11a1.51,1.51,0,0,1-.54.25,2.8,2.8,0,0,1-.7.09,2.11,2.11,0,0,1-1.58-.6,2.6,2.6,0,0,1-.58-1.88v-5.43h-1.43v-1.2h1.43V140.3Z"/><path d="M434.49,151.4v-7.74h-1.4v-1.2h1.4v-1.14a3.11,3.11,0,0,1,.74-2.21,2.77,2.77,0,0,1,2.09-.78,3.66,3.66,0,0,1,.57,0c.19,0,.4.07.63.13l-.2,1.24a1.68,1.68,0,0,0-.36-.06,3.15,3.15,0,0,0-.44,0,1.28,1.28,0,0,0-1.06.43,1.9,1.9,0,0,0-.35,1.23v1.14h1.62v1.2h-1.62v7.74Z"/><path d="M443.61,143.89l-.83,0a1.92,1.92,0,0,0-1.09.31,2,2,0,0,0-.68.86v6.39h-1.63v-8.94h1.45l.16,1.3a3.12,3.12,0,0,1,.94-1.08,2.18,2.18,0,0,1,1.28-.39,1.9,1.9,0,0,1,.35,0l.27.06Z"/><path d="M444.76,146.85a4.93,4.93,0,0,1,1.07-3.27,3.61,3.61,0,0,1,2.92-1.29,3.65,3.65,0,0,1,2.94,1.28,4.93,4.93,0,0,1,1.08,3.28V147a4.88,4.88,0,0,1-1.08,3.27,4,4,0,0,1-5.85,0,4.92,4.92,0,0,1-1.08-3.27Zm1.63.18a4.21,4.21,0,0,0,.6,2.34,2.16,2.16,0,0,0,3.55,0,4.21,4.21,0,0,0,.6-2.34v-.18a4.16,4.16,0,0,0-.61-2.34,2,2,0,0,0-1.78-.94,2,2,0,0,0-1.76.94,4.24,4.24,0,0,0-.6,2.34Z"/><path d="M456.22,142.46l.11,1.17a3.11,3.11,0,0,1,1.11-1,3.4,3.4,0,0,1,1.57-.35,2.82,2.82,0,0,1,1.53.41,2.48,2.48,0,0,1,1,1.24,3.44,3.44,0,0,1,1.12-1.21,3,3,0,0,1,1.62-.44,2.67,2.67,0,0,1,2.16.94,4.27,4.27,0,0,1,.79,2.82v5.35h-1.63V146a3,3,0,0,0-.45-1.87,1.68,1.68,0,0,0-1.36-.55,1.76,1.76,0,0,0-1.35.58,2.65,2.65,0,0,0-.61,1.46v5.75h-1.63V146a2.91,2.91,0,0,0-.47-1.83,1.62,1.62,0,0,0-1.34-.59,2.29,2.29,0,0,0-1.23.31,2,2,0,0,0-.73.86v6.62h-1.63v-8.94Z"/><path d="M475.22,142.46l.11,1.33a3.3,3.3,0,0,1,1.12-1.11,3,3,0,0,1,1.54-.39,2.91,2.91,0,0,1,2.24.85,3.75,3.75,0,0,1,.79,2.61v5.65h-1.63v-5.61a2.43,2.43,0,0,0-.47-1.68,1.86,1.86,0,0,0-1.42-.5,2.45,2.45,0,0,0-1.28.31,2.16,2.16,0,0,0-.83.84v6.64h-1.63v-8.94Z"/><path d="M487.09,151.57a3.79,3.79,0,0,1-3-1.23A4.73,4.73,0,0,1,483,147.1v-.36a4.64,4.64,0,0,1,1.11-3.19,3.51,3.51,0,0,1,2.72-1.26,3.23,3.23,0,0,1,2.69,1.12,4.57,4.57,0,0,1,.9,3v.86H484.7l0,0a3.68,3.68,0,0,0,.6,2.19,2.07,2.07,0,0,0,1.82.84,4,4,0,0,0,1.45-.24,3.28,3.28,0,0,0,1.07-.64l.63,1.05a3.87,3.87,0,0,1-1.26.78A4.92,4.92,0,0,1,487.09,151.57Zm-.26-8a1.76,1.76,0,0,0-1.41.66,3.11,3.11,0,0,0-.68,1.68v0h4v-.13a2.59,2.59,0,0,0-.48-1.61A1.72,1.72,0,0,0,486.83,143.57Z"/><path d="M494.53,148.14l.21,1.15h.05l.21-1.15,1.79-5.68h1.3l1.8,5.68.23,1.28h.05l.26-1.28,1.33-5.68h1.7l-2.6,8.94h-1.31L497.78,146l-.34-1.42h-.05l-.31,1.42-1.74,5.45H494l-2.6-8.94h1.7Z"/><path d="M332,159.68v8a3.88,3.88,0,0,1-1.29,3.1,4.92,4.92,0,0,1-3.32,1.11,4.6,4.6,0,0,1-3.21-1.12,3.93,3.93,0,0,1-1.25-3.09v-8h1.63v8a2.89,2.89,0,0,0,.79,2.16,2.76,2.76,0,0,0,2,.78,3,3,0,0,0,2.15-.78,2.83,2.83,0,0,0,.83-2.16v-8Z"/><path d="M343.65,171.71H342l-5.8-9.19-.05,0v9.17h-1.62v-12h1.62l5.8,9.18,0,0v-9.16h1.63Z"/><path d="M351.32,167.26h-4.88V166h4.88Z"/><path d="M359.07,169.31a1.1,1.1,0,0,0-.41-.88,3.87,3.87,0,0,0-1.55-.59,6.61,6.61,0,0,1-2.43-1,1.91,1.91,0,0,1-.84-1.63,2.36,2.36,0,0,1,.93-1.87,4.09,4.09,0,0,1,4.87.05,2.35,2.35,0,0,1,.9,1.93l0,0H359a1.39,1.39,0,0,0-.51-1,1.8,1.8,0,0,0-1.28-.48,1.84,1.84,0,0,0-1.29.39,1.24,1.24,0,0,0-.43.93,1,1,0,0,0,.37.82,4.15,4.15,0,0,0,1.52.53,6.26,6.26,0,0,1,2.49,1,2,2,0,0,1,.86,1.66,2.36,2.36,0,0,1-1,1.94,4.62,4.62,0,0,1-5.21-.11,2.51,2.51,0,0,1-.93-2v-.05h1.56a1.52,1.52,0,0,0,.64,1.27,2.51,2.51,0,0,0,1.42.4,2.22,2.22,0,0,0,1.36-.37A1.12,1.12,0,0,0,359.07,169.31Z"/><path d="M368.4,170.39a3,3,0,0,1-1.08,1.11,3,3,0,0,1-1.53.38,2.86,2.86,0,0,1-2.28-.93,4.3,4.3,0,0,1-.82-2.91v-5.27h1.63v5.29a3.36,3.36,0,0,0,.42,2,1.58,1.58,0,0,0,1.31.53,2.65,2.65,0,0,0,1.44-.35,2.18,2.18,0,0,0,.85-1v-6.45H370v8.94h-1.46Z"/><path d="M380,167.58a5,5,0,0,1-.92,3.12,3.07,3.07,0,0,1-2.56,1.18,3.64,3.64,0,0,1-1.45-.27,2.84,2.84,0,0,1-1.06-.83v4.37h-1.63V162.77h1.25l.26,1.16a3,3,0,0,1,1.09-1,3.31,3.31,0,0,1,1.52-.34,3,3,0,0,1,2.58,1.32,6,6,0,0,1,.92,3.49Zm-1.63-.17a4.79,4.79,0,0,0-.59-2.5,2,2,0,0,0-1.77-1,2.19,2.19,0,0,0-1.2.31,2.43,2.43,0,0,0-.8.88v4.32a2.15,2.15,0,0,0,2,1.17,2,2,0,0,0,1.75-.85,3.67,3.67,0,0,0,.59-2.18Z"/><path d="M389.58,167.58a5,5,0,0,1-.92,3.12,3.07,3.07,0,0,1-2.56,1.18,3.64,3.64,0,0,1-1.45-.27,2.84,2.84,0,0,1-1.06-.83v4.37H382V162.77h1.25l.26,1.16a3,3,0,0,1,1.09-1,3.31,3.31,0,0,1,1.52-.34,3,3,0,0,1,2.58,1.32,5.93,5.93,0,0,1,.92,3.49Zm-1.63-.17a4.79,4.79,0,0,0-.59-2.5,2,2,0,0,0-1.77-1,2.19,2.19,0,0,0-1.2.31,2.43,2.43,0,0,0-.8.88v4.32a2.15,2.15,0,0,0,2,1.17,2,2,0,0,0,1.75-.85,3.67,3.67,0,0,0,.59-2.18Z"/><path d="M391.2,167.16a4.9,4.9,0,0,1,1.08-3.27,3.59,3.59,0,0,1,2.91-1.29,3.65,3.65,0,0,1,2.94,1.28,4.93,4.93,0,0,1,1.08,3.28v.18a4.93,4.93,0,0,1-1.07,3.27,4,4,0,0,1-5.86,0,4.88,4.88,0,0,1-1.08-3.27Zm1.63.18a4.25,4.25,0,0,0,.6,2.35,2.17,2.17,0,0,0,3.55,0,4.25,4.25,0,0,0,.6-2.35v-.18a4.24,4.24,0,0,0-.6-2.34,2,2,0,0,0-1.79-.94,2,2,0,0,0-1.76.94,4.24,4.24,0,0,0-.6,2.34Z"/><path d="M405.44,164.21l-.84-.05a1.91,1.91,0,0,0-1.09.3,2,2,0,0,0-.68.86v6.39H401.2v-8.94h1.46l.16,1.3a3.09,3.09,0,0,1,.93-1.08,2.19,2.19,0,0,1,1.29-.39,2,2,0,0,1,.35,0l.27.06Z"/><path d="M409.53,160.61v2.16h1.7V164h-1.7v5.43a1.23,1.23,0,0,0,.26.88,1,1,0,0,0,.7.26,2,2,0,0,0,.31,0l.29-.08.22,1.12a1.36,1.36,0,0,1-.54.24,2.8,2.8,0,0,1-.7.09,2.1,2.1,0,0,1-1.58-.59,2.61,2.61,0,0,1-.58-1.88V164h-1.43v-1.21h1.43v-2.16Z"/><path d="M416.68,171.88a3.79,3.79,0,0,1-3-1.23,4.73,4.73,0,0,1-1.08-3.24v-.36a4.66,4.66,0,0,1,1.11-3.19,3.49,3.49,0,0,1,2.72-1.26,3.27,3.27,0,0,1,2.69,1.12,4.58,4.58,0,0,1,.9,3v.86h-5.72l0,0a3.65,3.65,0,0,0,.6,2.18,2.07,2.07,0,0,0,1.82.84,4.28,4.28,0,0,0,1.45-.23,3.48,3.48,0,0,0,1.07-.65l.63,1.06a4.24,4.24,0,0,1-1.26.78A5.13,5.13,0,0,1,416.68,171.88Zm-.26-8a1.76,1.76,0,0,0-1.41.66,3.11,3.11,0,0,0-.68,1.68v0h4v-.13a2.61,2.61,0,0,0-.48-1.61A1.74,1.74,0,0,0,416.42,163.88Z"/><path d="M421.46,167.41a6,6,0,0,1,.92-3.48A3,3,0,0,1,425,162.6a3.26,3.26,0,0,1,1.39.29,3,3,0,0,1,1,.85v-4.92H429v12.89h-1.24l-.25-1.13a2.89,2.89,0,0,1-1.09,1,3.18,3.18,0,0,1-1.49.33,3.05,3.05,0,0,1-2.56-1.18,4.91,4.91,0,0,1-.93-3.12Zm1.63.17a3.79,3.79,0,0,0,.55,2.17,2,2,0,0,0,1.72.81,2.19,2.19,0,0,0,1.23-.33,2.51,2.51,0,0,0,.81-.92v-4.18a2.57,2.57,0,0,0-.82-.88,2.11,2.11,0,0,0-1.2-.32,1.86,1.86,0,0,0-1.73,1,5,5,0,0,0-.56,2.52Z"/><path d="M435.37,167.41a6,6,0,0,1,.92-3.48,3,3,0,0,1,2.58-1.33,3.12,3.12,0,0,1,1.49.35,3,3,0,0,1,1.09,1l.19-1.16h1.3v9a3.39,3.39,0,0,1-1,2.64,4.07,4.07,0,0,1-2.88.92,6.59,6.59,0,0,1-1.4-.17,5.32,5.32,0,0,1-1.31-.49l.24-1.26a5.05,5.05,0,0,0,1.14.4A5.92,5.92,0,0,0,439,174a2.38,2.38,0,0,0,1.73-.54,2.25,2.25,0,0,0,.54-1.65v-1a2.89,2.89,0,0,1-1.05.86,3.29,3.29,0,0,1-1.41.28,3.07,3.07,0,0,1-2.56-1.18,5,5,0,0,1-.92-3.12Zm1.63.17a3.76,3.76,0,0,0,.55,2.16,1.91,1.91,0,0,0,1.71.82,2.17,2.17,0,0,0,1.23-.33,2.47,2.47,0,0,0,.82-.95v-4.11a2.49,2.49,0,0,0-.82-.91,2.15,2.15,0,0,0-1.21-.33,1.85,1.85,0,0,0-1.72,1,5,5,0,0,0-.56,2.52Z"/><path d="M451,170.39a3,3,0,0,1-1.08,1.11,3,3,0,0,1-1.53.38,2.86,2.86,0,0,1-2.28-.93,4.3,4.3,0,0,1-.82-2.91v-5.27h1.63v5.29a3.36,3.36,0,0,0,.42,2,1.58,1.58,0,0,0,1.31.53,2.59,2.59,0,0,0,1.43-.35,2.14,2.14,0,0,0,.86-1v-6.45h1.63v8.94h-1.46Z"/><path d="M456.66,160.48H455v-1.66h1.63Zm0,11.23H455v-8.94h1.63Z"/><path d="M458.79,167.41a5.92,5.92,0,0,1,.93-3.48,2.94,2.94,0,0,1,2.58-1.33,3.23,3.23,0,0,1,1.39.29,2.94,2.94,0,0,1,1,.85v-4.92h1.63v12.89h-1.25l-.25-1.13a2.86,2.86,0,0,1-1.08,1,3.25,3.25,0,0,1-1.5.33,3.07,3.07,0,0,1-2.56-1.18,4.91,4.91,0,0,1-.93-3.12Zm1.63.17a3.79,3.79,0,0,0,.56,2.17,1.93,1.93,0,0,0,1.71.81,2.17,2.17,0,0,0,1.23-.33,2.51,2.51,0,0,0,.81-.92v-4.18a2.48,2.48,0,0,0-.82-.88,2.11,2.11,0,0,0-1.2-.32,1.86,1.86,0,0,0-1.73,1,5,5,0,0,0-.56,2.52Z"/><path d="M472.49,171.88a3.79,3.79,0,0,1-3-1.23,4.78,4.78,0,0,1-1.07-3.24v-.36a4.66,4.66,0,0,1,1.11-3.19,3.47,3.47,0,0,1,2.71-1.26,3.26,3.26,0,0,1,2.69,1.12,4.58,4.58,0,0,1,.9,3v.86H470.1l0,0a3.65,3.65,0,0,0,.59,2.18,2.08,2.08,0,0,0,1.82.84,4.28,4.28,0,0,0,1.45-.23,3.37,3.37,0,0,0,1.07-.65l.64,1.06a4.3,4.3,0,0,1-1.27.78A5.06,5.06,0,0,1,472.49,171.88Zm-.26-8a1.76,1.76,0,0,0-1.41.66,3.11,3.11,0,0,0-.68,1.68l0,0h4v-.13a2.61,2.61,0,0,0-.48-1.61A1.74,1.74,0,0,0,472.23,163.88Z"/><path d="M479.41,171.71h-1.63V158.82h1.63Z"/><path d="M483.67,160.48H482v-1.66h1.63Zm0,11.23H482v-8.94h1.63Z"/><path d="M487.63,162.77l.12,1.33a3.18,3.18,0,0,1,1.12-1.1,2.91,2.91,0,0,1,1.53-.4,3,3,0,0,1,2.24.85,3.73,3.73,0,0,1,.79,2.62v5.64H491.8V166.1a2.43,2.43,0,0,0-.46-1.68,1.88,1.88,0,0,0-1.43-.49,2.55,2.55,0,0,0-1.28.3,2.23,2.23,0,0,0-.83.84v6.64h-1.62v-8.94Z"/><path d="M499.5,171.88a3.8,3.8,0,0,1-3-1.23,4.78,4.78,0,0,1-1.07-3.24v-.36a4.66,4.66,0,0,1,1.11-3.19,3.47,3.47,0,0,1,2.71-1.26,3.24,3.24,0,0,1,2.69,1.12,4.58,4.58,0,0,1,.9,3v.86h-5.72l0,0a3.65,3.65,0,0,0,.59,2.18,2.08,2.08,0,0,0,1.82.84,4.28,4.28,0,0,0,1.45-.23,3.37,3.37,0,0,0,1.07-.65l.64,1.06a4.17,4.17,0,0,1-1.27.78A5.06,5.06,0,0,1,499.5,171.88Zm-.26-8a1.79,1.79,0,0,0-1.41.66,3.19,3.19,0,0,0-.68,1.68l0,0h4v-.13a2.61,2.61,0,0,0-.48-1.61A1.74,1.74,0,0,0,499.24,163.88Z"/><path d="M509.86,169.31a1.1,1.1,0,0,0-.41-.88,3.94,3.94,0,0,0-1.55-.59,6.53,6.53,0,0,1-2.43-1,1.92,1.92,0,0,1-.85-1.63,2.36,2.36,0,0,1,.93-1.87,4.1,4.1,0,0,1,4.88.05,2.41,2.41,0,0,1,.9,1.93l0,0h-1.55a1.39,1.39,0,0,0-.51-1,1.81,1.81,0,0,0-1.29-.48,1.83,1.83,0,0,0-1.28.39,1.2,1.2,0,0,0-.43.93,1,1,0,0,0,.37.82,4.08,4.08,0,0,0,1.52.53,6.26,6.26,0,0,1,2.49,1,2,2,0,0,1,.85,1.66,2.36,2.36,0,0,1-1,1.94,4,4,0,0,1-2.52.75,3.92,3.92,0,0,1-2.69-.86,2.45,2.45,0,0,1-.93-2v-.05H506a1.49,1.49,0,0,0,.64,1.27,2.46,2.46,0,0,0,1.41.4,2.18,2.18,0,0,0,1.36-.37A1.11,1.11,0,0,0,509.86,169.31Z"/><path d="M341.48,187.47a4.91,4.91,0,0,1,1.07-3.27,4,4,0,0,1,5.86,0,4.93,4.93,0,0,1,1.07,3.27v.18a4.86,4.86,0,0,1-1.07,3.27,4,4,0,0,1-5.86,0,4.88,4.88,0,0,1-1.07-3.27Zm1.62.18a4.25,4.25,0,0,0,.6,2.35,2.17,2.17,0,0,0,3.55,0,4.25,4.25,0,0,0,.61-2.35v-.18a4.24,4.24,0,0,0-.61-2.34,2,2,0,0,0-1.78-.93,2,2,0,0,0-1.77.93,4.24,4.24,0,0,0-.6,2.34Z"/><path d="M352.93,183.08l.12,1.33a3.18,3.18,0,0,1,1.12-1.1,3,3,0,0,1,1.53-.39,2.94,2.94,0,0,1,2.24.84,3.73,3.73,0,0,1,.79,2.62V192H357.1v-5.61a2.43,2.43,0,0,0-.46-1.68,1.88,1.88,0,0,0-1.43-.49,2.55,2.55,0,0,0-1.28.3,2.19,2.19,0,0,0-.83.85V192h-1.62v-8.94Z"/><path d="M366.93,184.28a3.33,3.33,0,0,1,1.14-1,3.09,3.09,0,0,1,1.49-.35,2.9,2.9,0,0,1,2.23.85,3.82,3.82,0,0,1,.8,2.65V192H371V186.4a2.35,2.35,0,0,0-.48-1.63,1.79,1.79,0,0,0-1.42-.53,2.66,2.66,0,0,0-1.26.28,2.31,2.31,0,0,0-.87.8V192H365.3V179.13h1.63Z"/><path d="M378.63,192.2a3.79,3.79,0,0,1-3-1.23,4.77,4.77,0,0,1-1.08-3.24v-.37a4.63,4.63,0,0,1,1.11-3.18,3.51,3.51,0,0,1,2.72-1.26,3.25,3.25,0,0,1,2.69,1.11,4.58,4.58,0,0,1,.9,3v.86h-5.72l0,0a3.68,3.68,0,0,0,.6,2.19,2.09,2.09,0,0,0,1.82.83,4,4,0,0,0,1.45-.23,3.3,3.3,0,0,0,1.07-.65l.63,1.06a3.87,3.87,0,0,1-1.26.78A5.08,5.08,0,0,1,378.63,192.2Zm-.26-8a1.78,1.78,0,0,0-1.41.65,3.11,3.11,0,0,0-.68,1.69l0,0h4v-.14a2.61,2.61,0,0,0-.48-1.61A1.74,1.74,0,0,0,378.37,184.2Z"/><path d="M389.28,192c0-.27-.1-.51-.13-.71a4.46,4.46,0,0,1,0-.63,3.76,3.76,0,0,1-1.19,1.08,3,3,0,0,1-1.57.44,2.92,2.92,0,0,1-2.13-.72,2.6,2.6,0,0,1-.73-2,2.29,2.29,0,0,1,1-2,4.78,4.78,0,0,1,2.81-.73h1.77v-.88a1.66,1.66,0,0,0-.48-1.25,1.91,1.91,0,0,0-1.36-.45,2,2,0,0,0-1.28.39,1.21,1.21,0,0,0-.49.95l-1.54,0,0-.05a2.13,2.13,0,0,1,.92-1.78,3.76,3.76,0,0,1,2.5-.81,3.67,3.67,0,0,1,2.45.77,2.73,2.73,0,0,1,.93,2.23v4.3a7.06,7.06,0,0,0,0,.93,4.34,4.34,0,0,0,.18.87Zm-2.7-1.19a2.89,2.89,0,0,0,1.59-.45,2.16,2.16,0,0,0,.93-1v-1.46h-1.83a2.36,2.36,0,0,0-1.57.5,1.46,1.46,0,0,0-.59,1.16,1.24,1.24,0,0,0,.37,1A1.56,1.56,0,0,0,386.58,190.83Z"/><path d="M394.85,192h-1.63V179.13h1.63Z"/><path d="M399.62,180.92v2.16h1.69v1.21h-1.69v5.43a1.22,1.22,0,0,0,.26.88.94.94,0,0,0,.69.26,1.2,1.2,0,0,0,.31,0,1.3,1.3,0,0,0,.29-.08l.23,1.12a1.36,1.36,0,0,1-.54.24,2.47,2.47,0,0,1-.7.1,2.11,2.11,0,0,1-1.58-.6,2.61,2.61,0,0,1-.59-1.88v-5.43h-1.42v-1.21H398v-2.16Z"/><path d="M404.69,184.28a3.21,3.21,0,0,1,1.13-1,3.13,3.13,0,0,1,1.5-.35,2.88,2.88,0,0,1,2.22.85,3.82,3.82,0,0,1,.8,2.65V192h-1.63V186.4a2.4,2.4,0,0,0-.47-1.63,1.79,1.79,0,0,0-1.42-.53,2.67,2.67,0,0,0-1.27.28,2.36,2.36,0,0,0-.86.8V192h-1.63V179.13h1.63Z"/><path d="M424.51,187.89a4.91,4.91,0,0,1-.93,3.12A3.07,3.07,0,0,1,421,192.2a3.6,3.6,0,0,1-1.45-.28,2.77,2.77,0,0,1-1.07-.83v4.37h-1.62V183.08h1.24l.26,1.16a3,3,0,0,1,1.09-1,3.34,3.34,0,0,1,1.52-.33,3,3,0,0,1,2.58,1.31,5.93,5.93,0,0,1,.93,3.49Zm-1.63-.17a4.7,4.7,0,0,0-.6-2.5,1.93,1.93,0,0,0-1.77-1,2.1,2.1,0,0,0-1.19.32,2.43,2.43,0,0,0-.81.87v4.32a2.32,2.32,0,0,0,.81.86,2.2,2.2,0,0,0,1.21.31,2,2,0,0,0,1.75-.84,3.73,3.73,0,0,0,.6-2.19Z"/><path d="M430.74,184.52l-.84-.05a1.86,1.86,0,0,0-1.08.3,2,2,0,0,0-.69.86V192h-1.62v-8.94H428l.16,1.31a3,3,0,0,1,.94-1.09,2.17,2.17,0,0,1,1.28-.38,2,2,0,0,1,.35,0,1.31,1.31,0,0,1,.27.07Z"/><path d="M431.89,187.47A4.91,4.91,0,0,1,433,184.2a4,4,0,0,1,5.86,0,4.88,4.88,0,0,1,1.08,3.27v.18a4.87,4.87,0,0,1-1.08,3.27,4,4,0,0,1-5.86,0,4.93,4.93,0,0,1-1.07-3.27Zm1.62.18a4.25,4.25,0,0,0,.6,2.35,2,2,0,0,0,1.79.92,2,2,0,0,0,1.76-.92,4.17,4.17,0,0,0,.61-2.35v-.18a4.24,4.24,0,0,0-.61-2.34,2,2,0,0,0-1.78-.93,2,2,0,0,0-1.77.93,4.24,4.24,0,0,0-.6,2.34Z"/><path d="M444.15,180.92v2.16h1.7v1.21h-1.7v5.43a1.22,1.22,0,0,0,.26.88,1,1,0,0,0,.69.26,1.27,1.27,0,0,0,.32,0,1.71,1.71,0,0,0,.29-.08l.22,1.12a1.36,1.36,0,0,1-.54.24,2.47,2.47,0,0,1-.7.1,2.11,2.11,0,0,1-1.58-.6,2.61,2.61,0,0,1-.59-1.88v-5.43H441.1v-1.21h1.42v-2.16Z"/><path d="M451.29,192.2a3.78,3.78,0,0,1-3-1.23,4.77,4.77,0,0,1-1.08-3.24v-.37a4.63,4.63,0,0,1,1.11-3.18,3.49,3.49,0,0,1,2.72-1.26,3.26,3.26,0,0,1,2.69,1.11,4.63,4.63,0,0,1,.89,3v.86H448.9l0,0a3.75,3.75,0,0,0,.59,2.19,2.11,2.11,0,0,0,1.82.83,4,4,0,0,0,1.45-.23,3.1,3.1,0,0,0,1.07-.65l.64,1.06a3.87,3.87,0,0,1-1.26.78A5.14,5.14,0,0,1,451.29,192.2Zm-.25-8a1.78,1.78,0,0,0-1.41.65,3.2,3.2,0,0,0-.69,1.69l0,0h4v-.14a2.6,2.6,0,0,0-.47-1.61A1.75,1.75,0,0,0,451,184.2Z"/><path d="M460,190.92a1.89,1.89,0,0,0,1.32-.5,1.58,1.58,0,0,0,.56-1.22h1.47l0,.05a2.56,2.56,0,0,1-1,2.05,3.48,3.48,0,0,1-2.38.9,3.54,3.54,0,0,1-2.91-1.28,5,5,0,0,1-1-3.19v-.35a4.92,4.92,0,0,1,1-3.18,3.48,3.48,0,0,1,2.9-1.28,3.34,3.34,0,0,1,2.45.92,3,3,0,0,1,.93,2.27l0,0h-1.48a2,2,0,0,0-.53-1.39,1.78,1.78,0,0,0-1.35-.57,1.86,1.86,0,0,0-1.74.93,4.31,4.31,0,0,0-.55,2.25v.35a4.46,4.46,0,0,0,.54,2.27A1.86,1.86,0,0,0,460,190.92Z"/><path d="M467.57,180.92v2.16h1.7v1.21h-1.7v5.43a1.17,1.17,0,0,0,.27.88.94.94,0,0,0,.69.26,1.25,1.25,0,0,0,.31,0,1.48,1.48,0,0,0,.29-.08l.22,1.12a1.38,1.38,0,0,1-.53.24,2.53,2.53,0,0,1-.71.1,2.11,2.11,0,0,1-1.58-.6,2.61,2.61,0,0,1-.58-1.88v-5.43h-1.42v-1.21H466v-2.16Z"/><path d="M472.77,180.79h-1.62v-1.66h1.62Zm0,11.23h-1.62v-8.94h1.62Z"/><path d="M474.9,187.47A5,5,0,0,1,476,184.2a4,4,0,0,1,5.86,0,4.88,4.88,0,0,1,1.08,3.27v.18a4.87,4.87,0,0,1-1.08,3.27,4,4,0,0,1-5.85,0,4.88,4.88,0,0,1-1.08-3.27Zm1.63.18a4.25,4.25,0,0,0,.6,2.35,2.17,2.17,0,0,0,3.55,0,4.25,4.25,0,0,0,.6-2.35v-.18a4.16,4.16,0,0,0-.61-2.34,2,2,0,0,0-1.78-.93,2,2,0,0,0-1.76.93,4.24,4.24,0,0,0-.6,2.34Z"/><path d="M486.35,183.08l.12,1.33a3.27,3.27,0,0,1,1.12-1.1,3,3,0,0,1,1.53-.39,2.93,2.93,0,0,1,2.24.84,3.73,3.73,0,0,1,.79,2.62V192h-1.62v-5.61a2.43,2.43,0,0,0-.47-1.68,1.88,1.88,0,0,0-1.43-.49,2.51,2.51,0,0,0-1.27.3,2.12,2.12,0,0,0-.83.85V192H484.9v-8.94Z"/><path d="M333.76,212.34V204.6h-1.4v-1.21h1.4v-1.13a3.07,3.07,0,0,1,.75-2.21,2.74,2.74,0,0,1,2.08-.78,3.64,3.64,0,0,1,.57,0l.63.13-.2,1.24-.35-.06-.45,0a1.28,1.28,0,0,0-1.05.42,1.89,1.89,0,0,0-.35,1.24v1.13H337v1.21h-1.62v7.74Z"/><path d="M338.27,207.78a4.92,4.92,0,0,1,1.08-3.27,4,4,0,0,1,5.85,0,4.88,4.88,0,0,1,1.08,3.27V208a4.94,4.94,0,0,1-1.07,3.28,4,4,0,0,1-5.86,0,4.88,4.88,0,0,1-1.08-3.27Zm1.63.18a4.25,4.25,0,0,0,.6,2.35,2.16,2.16,0,0,0,3.55,0,4.25,4.25,0,0,0,.6-2.35v-.18a4.26,4.26,0,0,0-.6-2.34,2,2,0,0,0-1.79-.93,2,2,0,0,0-1.76.93,4.26,4.26,0,0,0-.6,2.34Z"/><path d="M352.51,204.83l-.84-.05a1.84,1.84,0,0,0-1.09.31,2,2,0,0,0-.68.86v6.39h-1.63v-9h1.46l.16,1.31a3.09,3.09,0,0,1,.93-1.08,2.19,2.19,0,0,1,1.29-.39,2,2,0,0,1,.35,0l.27.06Z"/><path d="M360,204.59a3.3,3.3,0,0,1,1.14-1,3.13,3.13,0,0,1,1.49-.36,2.86,2.86,0,0,1,2.23.86,3.77,3.77,0,0,1,.8,2.64v5.61h-1.63v-5.62a2.38,2.38,0,0,0-.48-1.64,1.8,1.8,0,0,0-1.41-.53,2.56,2.56,0,0,0-1.27.29,2.21,2.21,0,0,0-.87.79v6.71h-1.62v-12.9H360Z"/><path d="M371.73,212.51a3.79,3.79,0,0,1-3-1.23,4.78,4.78,0,0,1-1.07-3.24v-.37a4.63,4.63,0,0,1,1.11-3.18,3.47,3.47,0,0,1,2.71-1.26,3.24,3.24,0,0,1,2.69,1.11,4.61,4.61,0,0,1,.9,3v.86h-5.72l0,0a3.68,3.68,0,0,0,.59,2.19,2.08,2.08,0,0,0,1.82.84,4,4,0,0,0,1.45-.24,3.2,3.2,0,0,0,1.07-.65l.64,1.06a3.82,3.82,0,0,1-1.27.78A5,5,0,0,1,371.73,212.51Zm-.26-8a1.78,1.78,0,0,0-1.41.66,3,3,0,0,0-.68,1.68l0,0h4v-.13a2.64,2.64,0,0,0-.48-1.62A1.74,1.74,0,0,0,371.47,204.51Z"/><path d="M382.38,212.34c-.05-.27-.1-.51-.13-.72s0-.41-.05-.62a3.84,3.84,0,0,1-1.18,1.08,3.15,3.15,0,0,1-1.58.43,2.92,2.92,0,0,1-2.13-.72,2.6,2.6,0,0,1-.73-2,2.31,2.31,0,0,1,1-2,4.85,4.85,0,0,1,2.81-.72h1.77v-.89a1.63,1.63,0,0,0-.48-1.24,1.86,1.86,0,0,0-1.35-.46,1.92,1.92,0,0,0-1.28.4,1.17,1.17,0,0,0-.49,1h-1.55v-.05A2.12,2.12,0,0,1,378,204a3.78,3.78,0,0,1,2.51-.81,3.7,3.7,0,0,1,2.44.77,2.74,2.74,0,0,1,.93,2.23v4.3c0,.32,0,.63.05.93a4.44,4.44,0,0,0,.18.88Zm-2.7-1.19a3,3,0,0,0,1.6-.46,2.14,2.14,0,0,0,.92-1v-1.46h-1.83a2.36,2.36,0,0,0-1.57.5,1.5,1.5,0,0,0-.59,1.17,1.22,1.22,0,0,0,.37.94A1.56,1.56,0,0,0,379.68,211.15Z"/><path d="M388,212.34h-1.62v-12.9H388Z"/><path d="M392.72,201.24v2.15h1.7v1.21h-1.7V210a1.22,1.22,0,0,0,.26.88,1,1,0,0,0,.69.26,1.27,1.27,0,0,0,.32,0,1.71,1.71,0,0,0,.29-.08l.22,1.12a1.36,1.36,0,0,1-.54.24,2.42,2.42,0,0,1-.7.1,2.11,2.11,0,0,1-1.58-.6,2.61,2.61,0,0,1-.59-1.88V204.6h-1.42v-1.21h1.42v-2.15Z"/><path d="M397.79,204.59a3.3,3.3,0,0,1,1.14-1,3.07,3.07,0,0,1,1.49-.36,2.89,2.89,0,0,1,2.23.86,3.77,3.77,0,0,1,.79,2.64v5.61h-1.63v-5.62a2.38,2.38,0,0,0-.47-1.64,1.83,1.83,0,0,0-1.42-.53,2.55,2.55,0,0,0-1.26.29,2.21,2.21,0,0,0-.87.79v6.71h-1.63v-12.9h1.63Z"/><path d="M409.34,211.24a1.93,1.93,0,0,0,1.31-.5,1.62,1.62,0,0,0,.56-1.23h1.47l0,.05a2.58,2.58,0,0,1-1,2.05,3.79,3.79,0,0,1-5.29-.38,4.93,4.93,0,0,1-1-3.19v-.35a4.92,4.92,0,0,1,1-3.18,3.53,3.53,0,0,1,2.91-1.28,3.42,3.42,0,0,1,2.45.92,3,3,0,0,1,.92,2.28l0,0h-1.48a2,2,0,0,0-.53-1.4,1.78,1.78,0,0,0-1.34-.57,1.88,1.88,0,0,0-1.75.93,4.31,4.31,0,0,0-.55,2.25V208a4.44,4.44,0,0,0,.54,2.27A1.88,1.88,0,0,0,409.34,211.24Z"/><path d="M420.14,212.34c-.06-.27-.1-.51-.13-.72A4.32,4.32,0,0,1,420,211a3.87,3.87,0,0,1-1.19,1.08,3.12,3.12,0,0,1-1.58.43,2.88,2.88,0,0,1-2.12-.72,2.6,2.6,0,0,1-.73-2,2.3,2.3,0,0,1,1-2,4.87,4.87,0,0,1,2.82-.72H420v-.89a1.63,1.63,0,0,0-.48-1.24,1.88,1.88,0,0,0-1.36-.46,1.92,1.92,0,0,0-1.28.4,1.2,1.2,0,0,0-.49,1h-1.54l0-.05a2.14,2.14,0,0,1,.91-1.78,3.8,3.8,0,0,1,2.51-.81,3.72,3.72,0,0,1,2.45.77,2.74,2.74,0,0,1,.92,2.23v4.3c0,.32,0,.63.05.93a5.31,5.31,0,0,0,.19.88Zm-2.7-1.19a2.9,2.9,0,0,0,1.59-.46,2.22,2.22,0,0,0,.93-1v-1.46h-1.83a2.35,2.35,0,0,0-1.57.5,1.48,1.48,0,0,0-.6,1.17,1.23,1.23,0,0,0,.38.94A1.54,1.54,0,0,0,417.44,211.15Z"/><path d="M428.18,204.83l-.83-.05a1.82,1.82,0,0,0-1.09.31,1.9,1.9,0,0,0-.68.86v6.39H424v-9h1.45l.16,1.31a3.12,3.12,0,0,1,.94-1.08,2.18,2.18,0,0,1,1.28-.39,2,2,0,0,1,.35,0l.27.06Z"/><path d="M433.42,212.51a3.8,3.8,0,0,1-3-1.23,4.78,4.78,0,0,1-1.07-3.24v-.37a4.63,4.63,0,0,1,1.11-3.18,3.47,3.47,0,0,1,2.71-1.26,3.24,3.24,0,0,1,2.69,1.11,4.61,4.61,0,0,1,.9,3v.86H431l0,0a3.68,3.68,0,0,0,.59,2.19,2.08,2.08,0,0,0,1.82.84,4,4,0,0,0,1.45-.24,3.2,3.2,0,0,0,1.07-.65l.64,1.06a3.82,3.82,0,0,1-1.27.78A5,5,0,0,1,433.42,212.51Zm-.26-8a1.79,1.79,0,0,0-1.41.66,3,3,0,0,0-.68,1.68l0,0h4v-.13a2.64,2.64,0,0,0-.48-1.62A1.74,1.74,0,0,0,433.16,204.51Z"/><path d="M445.07,209.08l.21,1.15h.05l.21-1.15,1.79-5.69h1.31l1.79,5.69.23,1.28h0l.27-1.28,1.32-5.69H454l-2.6,9h-1.31l-1.77-5.45-.34-1.42h-.05l-.31,1.42-1.74,5.45h-1.31l-2.6-9h1.7Z"/><path d="M455.21,207.78a4.92,4.92,0,0,1,1.08-3.27,4,4,0,0,1,5.86,0,4.93,4.93,0,0,1,1.07,3.27V208a4.94,4.94,0,0,1-1.07,3.28,4,4,0,0,1-5.86,0,4.88,4.88,0,0,1-1.08-3.27Zm1.63.18a4.25,4.25,0,0,0,.6,2.35,2.16,2.16,0,0,0,3.55,0,4.25,4.25,0,0,0,.61-2.35v-.18a4.26,4.26,0,0,0-.61-2.34,2,2,0,0,0-1.78-.93,2,2,0,0,0-1.77.93,4.26,4.26,0,0,0-.6,2.34Z"/><path d="M469.45,204.83l-.84-.05a1.79,1.79,0,0,0-1.08.31,1.92,1.92,0,0,0-.69.86v6.39h-1.63v-9h1.46l.16,1.31a3.09,3.09,0,0,1,.93-1.08,2.23,2.23,0,0,1,1.29-.39,2,2,0,0,1,.35,0l.27.06Z"/><path d="M473.61,208.21h-.83v4.13h-1.63v-12.9h1.63v7.47h.82l2.68-3.52h2L475,207.52l3.52,4.82h-1.92Z"/><path d="M483.36,212.51a3.79,3.79,0,0,1-3-1.23,4.73,4.73,0,0,1-1.08-3.24v-.37a4.59,4.59,0,0,1,1.12-3.18,3.47,3.47,0,0,1,2.71-1.26,3.25,3.25,0,0,1,2.69,1.11,4.61,4.61,0,0,1,.9,3v.86H481l0,0a3.68,3.68,0,0,0,.6,2.19,2.08,2.08,0,0,0,1.82.84,4,4,0,0,0,1.45-.24,3.3,3.3,0,0,0,1.07-.65l.63,1.06a3.87,3.87,0,0,1-1.26.78A5,5,0,0,1,483.36,212.51Zm-.26-8a1.76,1.76,0,0,0-1.41.66,3,3,0,0,0-.68,1.68l0,0h4v-.13a2.64,2.64,0,0,0-.48-1.62A1.74,1.74,0,0,0,483.1,204.51Z"/><path d="M492.75,204.83l-.84-.05a1.84,1.84,0,0,0-1.09.31,2,2,0,0,0-.68.86v6.39h-1.63v-9H490l.16,1.31a3.09,3.09,0,0,1,.93-1.08,2.21,2.21,0,0,1,1.29-.39,2,2,0,0,1,.35,0l.27.06Z"/><path d="M499.64,209.93a1.1,1.1,0,0,0-.41-.88,4,4,0,0,0-1.55-.59,6.61,6.61,0,0,1-2.43-1,1.93,1.93,0,0,1-.84-1.64,2.36,2.36,0,0,1,.93-1.87,3.67,3.67,0,0,1,2.41-.77,3.6,3.6,0,0,1,2.46.82,2.38,2.38,0,0,1,.9,1.93l0,.05h-1.55A1.39,1.39,0,0,0,499,205a2.14,2.14,0,0,0-2.57-.08,1.21,1.21,0,0,0-.42.92,1,1,0,0,0,.36.82,4.15,4.15,0,0,0,1.52.53,6.47,6.47,0,0,1,2.5,1,2,2,0,0,1,.85,1.66,2.34,2.34,0,0,1-1,1.95,4.6,4.6,0,0,1-5.21-.12,2.49,2.49,0,0,1-.93-2l0-.05h1.55a1.52,1.52,0,0,0,.64,1.27,2.59,2.59,0,0,0,1.42.4,2.26,2.26,0,0,0,1.36-.37A1.13,1.13,0,0,0,499.64,209.93Z"/><rect class="cls-2" x="45.69" y="44.33" width="161.34" height="161.34" transform="translate(125.77 -52.74) rotate(45.12)"/><g class="cls-3"><path class="cls-4" d="M126.14,227.48,23.88,124.79,126.57,22.52,228.84,125.21ZM27,124.79l99.11,99.52,99.52-99.1L126.56,25.69Zm99.13,89.67L92,180.19l26.21-26.1L93,128.68l-18,17.95,11.86,11.91,4.93-4.91-6.95-7,8.17-8.12,15.47,15.53L87.12,175.25l-29.83-30L77.76,124.9,57.37,104.42l30-29.83,21.19,21.27L93,111.33l-8.13-8.16,7-6.94-4.91-4.94L75,103.15l17.95,18,25.41-25.31L92.27,69.67l34.27-34.13,34.13,34.27-26.2,26.1,25.3,25.41,18-17.95L165.94,91.46,161,96.37l6.95,7-8.16,8.12L144.32,95.93l21.27-21.18,29.84,30L175,125.1l20.39,20.48-30,29.83-21.19-21.27,15.54-15.47,8.13,8.16-7,6.94,4.92,4.94,11.91-11.86-18-18-25.41,25.31,26.11,26.21Zm-31-34.27,31,31.11,31.1-31-26.1-26.21,28.58-28.46,21.12,21.2-15.09,15-8.07-8.1,7-7-5-5-12.37,12.32,18,18.1,26.79-26.68-20.39-20.48,20.47-20.39L165.58,77.91l-18.1,18,12.32,12.37,5-5-6.94-7L166,88.29l15,15.08-21.21,21.12L131.3,95.91l26.21-26.1-31-31.11-31.1,31,26.1,26.21L93,124.35l-21.11-21.2,15.08-15L95,96.23l-7,7,5,5,12.36-12.32-18-18.1L60.54,104.43l20.39,20.48L60.45,145.29l26.68,26.8,18.1-18L92.92,141.69l-5,5,6.95,7-8.11,8.07-15-15.08L93,125.51l28.47,28.58Zm105.07-39.53L184.8,125.12l15.54-15.47,15.48,15.54ZM188,125.13l12.32,12.37,12.36-12.32-12.31-12.37ZM52.37,140.35,36.9,124.81l15.54-15.47,15.47,15.54ZM40.06,124.82l12.32,12.37,12.36-12.32L52.43,112.5Z"/><path class="cls-4" d="M126.19,203.9l-23.94-24.05,24-23.94,24,24Zm-20.78-24,20.79,20.87,20.87-20.79-20.78-20.87Z"/><path class="cls-4" d="M126.42,93.43,102.48,69.38l24-23.94,24,24Zm-20.78-24,20.79,20.87L147.3,69.48,126.52,48.61Z"/></g><path class="cls-4" d="M168.44,155.39c-1.2-3.29-2.63-6.43-5.7-8.49-1.15-.77-2.3-1.54-3.51-2.23a115.39,115.39,0,0,0-15.16-7c-.36-.15-.67-.23-.71-.8-.2-2.65.11-5.13,2-7.19a7.8,7.8,0,0,0,.72-1.08,27.66,27.66,0,0,0,4.61-15.21c0-5.51,0-11,0-16.53a19.71,19.71,0,0,0-.35-4c-2-9.94-7.9-16.38-17.57-19.42-1.32-.41-2.7-.47-4-.85h-5a.27.27,0,0,1-.27.17,23,23,0,0,0-6.27,1.6A24.28,24.28,0,0,0,102,96.54c-.06,5.27,0,10.55,0,15.83a29,29,0,0,0,5.2,17.13c2.61,3.85,2.1,2.55,2.17,7.13a1,1,0,0,1-.77,1.11,116,116,0,0,0-14.87,6.81c-2.34,1.31-4.77,2.61-6.39,4.84a22.66,22.66,0,0,0-4.09,10.27c-.24,1.67.16,2.07,1.85,2.07h83.09a1.31,1.31,0,0,0,1.4-1.63A19.47,19.47,0,0,0,168.44,155.39ZM86,159.1a21.73,21.73,0,0,1,3.31-8,12.26,12.26,0,0,1,4.08-3.31A106.4,106.4,0,0,1,110.13,140c1.83-.72,1.87-.73,1.87-2.69,0-1,0-2,0-3a7.06,7.06,0,0,0-1.3-4.23,35,35,0,0,1-4.61-8.31,26.48,26.48,0,0,1-1.49-8.59q0-8,0-16.09a21.75,21.75,0,0,1,43.12-4,22.17,22.17,0,0,1,.38,4.15c0,5.16,0,10.32,0,15.48a26.25,26.25,0,0,1-4.52,15c-3.09,4.61-2.89,3.73-2.88,9.56v.53c0,1.34.17,1.58,1.4,2a124.07,124.07,0,0,1,15.07,6.77c.48.26.94.57,1.44.8,4.64,2.22,6.76,6.26,7.93,11,.06.22.1.44.16.76Z"/><path class="cls-4" d="M143.19,112.65a1.07,1.07,0,0,1,.5-1,4.89,4.89,0,0,0,2.14-4.15c0-2.58,0-5.16,0-7.74a4.65,4.65,0,0,0-3.35-4.57,4.69,4.69,0,0,1-3.18-2.29,3.88,3.88,0,0,0-.69-.77c-.34-.29-.35-.52,0-.83a14.21,14.21,0,0,0,1.1-1.23,1.32,1.32,0,0,0-.15-1.87,1.34,1.34,0,0,0-1.81.13,17.47,17.47,0,0,0-1.22,1.35c-.23.29-.41.28-.7.07a12.81,12.81,0,0,0-2.25-1.28c-.53-.24-1.28-.34-1.52-.74s.29-1.1.4-1.69a.85.85,0,0,0,0-.17,1.29,1.29,0,0,0-.85-1.58,1.25,1.25,0,0,0-1.62.77,13.58,13.58,0,0,0-.52,1.56c-.11.36-.28.5-.69.41a13,13,0,0,0-3.12-.14c-.66,0-1.46.36-1.94.09s-.49-1.23-.74-1.87a1.32,1.32,0,0,0-1.63-.92,1.35,1.35,0,0,0-.9,1.72,12,12,0,0,0,.43,1.32c.14.36.1.58-.31.72a14.47,14.47,0,0,0-3.45,1.78.46.46,0,0,1-.73-.09,12.85,12.85,0,0,0-1.11-1.22,1.26,1.26,0,0,0-1.86-.08,1.29,1.29,0,0,0-.07,1.86,8.63,8.63,0,0,0,1,1.1c.35.32.25.5,0,.81a16.32,16.32,0,0,0-1.59,1.95,1.58,1.58,0,0,1-1.29.81,5,5,0,0,0-4.58,5.17c0,2.47,0,4.93,0,7.4a4.9,4.9,0,0,0,2.3,4.31,1.05,1.05,0,0,1,.56,1,43.93,43.93,0,0,0,.13,5.74A16.69,16.69,0,0,0,124.38,133c.55.06.78.21.77.83,0,2.73,0,5.45,0,8.18v8.35a1.29,1.29,0,0,0,1.15,1.4,1.22,1.22,0,0,0,1.39-.81,2.9,2.9,0,0,0,.09-1c0-5.3,0-10.61,0-15.91,0-.7.2-.93.88-1a16.66,16.66,0,0,0,14.11-12.68A33.6,33.6,0,0,0,143.19,112.65Zm-5.85-17.89H115.59A13.94,13.94,0,0,1,137.34,94.76Zm2.57,25.89a14.07,14.07,0,0,1-26.86.07.8.8,0,0,1,.41-1.11,24.76,24.76,0,0,1,26,0A.76.76,0,0,1,139.91,120.65Zm.6-3.62c-9.38-5.07-18.69-5.06-28.1,0,0-1.32,0-2.57,0-3.81,0-.54.21-.6.66-.59,2.55,0,5.1,0,7.65,0a5.49,5.49,0,0,0,5-2.5c.57-.83.65-.84,1.21,0a5.57,5.57,0,0,0,5.12,2.51c2.58-.07,5.16,0,7.74,0,.55,0,.74.13.72.71C140.48,114.54,140.51,115.76,140.51,117Zm-.19-7.08c-2.87,0-5.74,0-8.6,0a2.61,2.61,0,0,1-2.5-1.24,7.64,7.64,0,0,0-.75-1,2.58,2.58,0,0,0-4.2,0c-1.23,1.94-2.87,2.3-5,2.18-2.31-.13-4.63,0-6.95,0-2,0-2.86-.91-2.87-2.87q0-3.35,0-6.69c0-2,.9-2.88,2.84-2.88h27.91c2.07,0,2.93.87,2.93,3s0,4.4,0,6.6C143.18,109,142.29,109.94,140.32,110Z"/></svg>