<svg width="654" height="250" viewBox="0 0 654 250" fill="none" xmlns="http://www.w3.org/2000/svg">
<g clip-path="url(#clip0_67_691)">
<g opacity="0.3">
<g opacity="0.4">
<path d="M-64.4901 1060.08L23.7799 971.8L362.36 633.22L23.7799 294.64L-64.4901 206.36L-491.35 633.22L-64.4901 1060.08ZM-377.37 574.31L-318.47 633.22L-377.37 692.13L-436.28 633.22L-377.37 574.31ZM248.38 692.13L189.48 633.22L248.38 574.31L307.29 633.22L248.38 692.13ZM-3.75009 944.27L-64.4901 1005L-202.49 867L-91.8401 756.34L-205.84 642.34L-288.66 725.16L-231.66 782.16L-204.13 754.63L-233.58 725.17L-205.83 697.42L-146.92 756.32L-230 839.47L-349.84 719.66L-263.39 633.22L-349.84 546.78L-230 427L-146.88 510.13L-205.82 569L-233.57 541.25L-204.12 511.79L-231.65 484.26L-288.65 541.26L-205.83 624.08L-91.8301 510.08L-202.5 399.44L-125.24 322.18L-64.4901 261.44L-3.75009 322.18L73.5099 399.44L-37.1501 510.1L76.8499 624.1L159.68 541.28L102.68 484.28L75.1299 511.79L104.59 541.25L76.8299 569L17.9199 510.1L101.05 427L220.85 546.81L134.41 633.25L220.85 719.69L101.05 839.47L17.9199 756.34L76.8299 697.44L104.59 725.19L75.1299 754.64L102.67 782.18L159.67 725.18L76.8299 642.37L-37.1701 756.37L73.5099 867L-3.75009 944.27Z" stroke="#2681D6" stroke-width="1.62" stroke-miterlimit="10"/>
</g>
</g>
<path d="M12.6499 125L126.45 238.8H528.13L641.93 125L528.13 11.2H126.45L12.6499 125Z" stroke="#E2243E" stroke-width="2.61" stroke-miterlimit="10"/>
<path d="M332.8 85.58L328.62 98.35H325.45L322.64 89.71L319.74 98.35H316.58L312.39 85.58H315.45L318.34 94.58L321.34 85.58H324.07L326.99 94.58L329.99 85.58H332.8Z" fill="#E2243C"/>
<path d="M336.89 97.71C335.851 97.1526 334.983 96.324 334.378 95.3123C333.773 94.3007 333.453 93.1439 333.453 91.965C333.453 90.7862 333.773 89.6294 334.378 88.6178C334.983 87.6061 335.851 86.7775 336.89 86.2201C337.996 85.6388 339.23 85.3431 340.48 85.3601C341.723 85.3418 342.951 85.6376 344.05 86.2201C345.092 86.7751 345.963 87.6029 346.57 88.6149C347.177 89.6268 347.498 90.7848 347.498 91.965C347.498 93.1453 347.177 94.3033 346.57 95.3152C345.963 96.3272 345.092 97.155 344.05 97.71C342.951 98.2925 341.723 98.5883 340.48 98.57C339.23 98.587 337.996 98.2913 336.89 97.71V97.71ZM342.52 95.53C343.144 95.2008 343.658 94.6969 344 94.0801C344.342 93.4274 344.52 92.7017 344.52 91.965C344.52 91.2284 344.342 90.5027 344 89.85C343.669 89.2421 343.173 88.7397 342.57 88.4001C341.944 88.0587 341.243 87.8798 340.53 87.8798C339.817 87.8798 339.116 88.0587 338.49 88.4001C337.868 88.7346 337.351 89.2369 337 89.85C336.658 90.5027 336.48 91.2284 336.48 91.965C336.48 92.7017 336.658 93.4274 337 94.0801C337.335 94.6883 337.834 95.1906 338.44 95.53C339.066 95.8714 339.767 96.0503 340.48 96.0503C341.193 96.0503 341.894 95.8714 342.52 95.53V95.53Z" fill="#E2243C"/>
<path d="M361.31 98.35V90.69L357.53 97H356.2L352.46 90.85V98.35H349.69V85.58H352.14L356.91 93.52L361.62 85.58H364.05V98.35H361.31Z" fill="#E2243C"/>
<path d="M377 96V98.37H367.11V85.58H376.76V88H370.05V90.78H376V93H370.07V96H377Z" fill="#E2243C"/>
<path d="M391.06 85.58V98.35H388.63L382.27 90.6V98.35H379.35V85.58H381.79L388.14 93.34V85.58H391.06Z" fill="#E2243C"/>
<path d="M410.87 98.35V90.69L407.09 97H405.76L402 90.85V98.35H399.23V85.58H401.67L406.45 93.52L411.16 85.58H413.58V98.35H410.87Z" fill="#E2243C"/>
<path d="M416.67 85.58H419.62V98.35H416.67V85.58Z" fill="#E2243C"/>
<path d="M431.28 91.7699H434V96.9999C433.272 97.537 432.457 97.943 431.59 98.1999C430.699 98.4767 429.772 98.6183 428.84 98.6199C427.594 98.6412 426.363 98.3489 425.26 97.7699C424.228 97.2328 423.366 96.4191 422.77 95.4199C422.18 94.3839 421.87 93.2122 421.87 92.0199C421.87 90.8277 422.18 89.6559 422.77 88.6199C423.37 87.6147 424.24 86.7972 425.28 86.2599C426.396 85.6852 427.635 85.3933 428.89 85.4099C429.934 85.3954 430.971 85.5892 431.94 85.9799C432.825 86.3378 433.613 86.8997 434.24 87.6199L432.34 89.3699C431.923 88.9098 431.414 88.5434 430.845 88.2952C430.276 88.0469 429.661 87.9224 429.04 87.9299C428.285 87.9148 427.539 88.0902 426.87 88.4399C426.247 88.7651 425.732 89.2657 425.39 89.8799C425.029 90.5346 424.846 91.2725 424.86 92.0199C424.849 92.7576 425.032 93.4852 425.39 94.1299C425.731 94.7443 426.241 95.2477 426.86 95.5799C427.516 95.9365 428.254 96.1158 429 96.0999C429.799 96.1123 430.59 95.9268 431.3 95.5599L431.28 91.7699Z" fill="#E2243C"/>
<path d="M444.85 98.3499L442.39 94.7899H439.67V98.3499H436.72V85.5799H442.24C443.253 85.557 444.259 85.7514 445.19 86.1499C445.971 86.487 446.638 87.0426 447.11 87.7499C447.573 88.4891 447.81 89.3478 447.79 90.2199C447.814 91.0758 447.575 91.9183 447.104 92.6337C446.634 93.3491 445.955 93.9028 445.16 94.2199L448.02 98.3199L444.85 98.3499ZM444.1 88.5699C443.522 88.1487 442.814 87.9435 442.1 87.9899H439.69V92.4399H442.1C442.814 92.4864 443.522 92.2811 444.1 91.8599C444.322 91.6472 444.498 91.3918 444.619 91.1091C444.739 90.8264 444.801 90.5222 444.801 90.2149C444.801 89.9076 444.739 89.6035 444.619 89.3208C444.498 89.0381 444.322 88.7827 444.1 88.5699Z" fill="#E2243C"/>
<path d="M458.53 95.62H452.6L451.47 98.35H448.47L454.16 85.58H457.08L462.79 98.35H459.69L458.53 95.62ZM457.6 93.37L455.6 88.48L453.6 93.37H457.6Z" fill="#E2243C"/>
<path d="M475.8 85.58V98.35H473.38L467 90.6V98.35H464.08V85.58H466.53L472.88 93.34V85.58H475.8Z" fill="#E2243C"/>
<path d="M481.48 88H477.39V85.58H488.52V88H484.43V98.35H481.48V88Z" fill="#E2243C"/>
<path d="M370.91 107.47L366.74 120.24H363.56L360.75 111.59L357.85 120.24H354.7L350.5 107.47H353.57L356.45 116.47L359.45 107.47H362.18L365.1 116.47L368.1 107.47H370.91Z" fill="#E2243C"/>
<path d="M375 119.6C373.965 119.06 373.099 118.243 372.5 117.24C371.911 116.209 371.601 115.042 371.601 113.855C371.601 112.668 371.911 111.501 372.5 110.47C373.099 109.467 373.965 108.651 375 108.11C376.109 107.545 377.335 107.25 378.58 107.25C379.824 107.25 381.051 107.545 382.16 108.11C383.201 108.665 384.073 109.493 384.68 110.505C385.287 111.517 385.608 112.675 385.608 113.855C385.608 115.035 385.287 116.193 384.68 117.205C384.073 118.217 383.201 119.045 382.16 119.6C381.051 120.165 379.824 120.46 378.58 120.46C377.335 120.46 376.109 120.165 375 119.6V119.6ZM380.63 117.42C381.231 117.077 381.726 116.576 382.06 115.97C382.402 115.317 382.58 114.592 382.58 113.855C382.58 113.118 382.402 112.393 382.06 111.74C381.723 111.137 381.229 110.635 380.63 110.29C380.002 109.949 379.299 109.77 378.585 109.77C377.871 109.77 377.168 109.949 376.54 110.29C375.937 110.63 375.441 111.132 375.11 111.74C374.768 112.393 374.59 113.118 374.59 113.855C374.59 114.592 374.768 115.317 375.11 115.97C375.438 116.58 375.935 117.083 376.54 117.42C377.168 117.761 377.871 117.94 378.585 117.94C379.299 117.94 380.002 117.761 380.63 117.42V117.42Z" fill="#E2243C"/>
<path d="M395.94 120.24L393.48 116.68H390.76V120.24H387.76V107.47H393.29C394.303 107.447 395.309 107.641 396.24 108.04C397.023 108.374 397.69 108.93 398.16 109.64C398.622 110.376 398.858 111.231 398.84 112.1C398.864 112.956 398.625 113.798 398.154 114.514C397.684 115.229 397.005 115.783 396.21 116.1L399.07 120.2L395.94 120.24ZM395.19 110.45C394.608 110.037 393.902 109.836 393.19 109.88H390.78V114.33H393.19C393.904 114.376 394.612 114.171 395.19 113.75C395.408 113.534 395.582 113.277 395.7 112.994C395.818 112.711 395.879 112.407 395.879 112.1C395.879 111.793 395.818 111.489 395.7 111.206C395.582 110.923 395.408 110.666 395.19 110.45V110.45Z" fill="#E2243C"/>
<path d="M405.86 115.22L404.15 117V120.23H401.21V107.47H404.15V113.47L409.8 107.47H413.08L407.79 113.16L413.39 120.24H410L405.86 115.22Z" fill="#E2243C"/>
<path d="M424.59 117.87V120.24H414.71V107.47H424.36V109.84H417.65V112.62H423.57V114.91H417.65V117.91L424.59 117.87Z" fill="#E2243C"/>
<path d="M435.08 120.24L432.62 116.68H429.9V120.24H427V107.47H432.52C433.533 107.446 434.539 107.641 435.47 108.04C436.253 108.374 436.92 108.93 437.39 109.64C437.852 110.376 438.088 111.231 438.07 112.1C438.098 112.957 437.861 113.801 437.39 114.517C436.919 115.234 436.238 115.786 435.44 116.1L438.31 120.2L435.08 120.24ZM434.33 110.45C433.749 110.035 433.042 109.834 432.33 109.88H429.9V114.33H432.31C433.025 114.382 433.734 114.176 434.31 113.75C434.532 113.536 434.709 113.28 434.829 112.997C434.95 112.713 435.012 112.408 435.012 112.1C435.012 111.792 434.95 111.487 434.829 111.203C434.709 110.92 434.532 110.664 434.31 110.45H434.33Z" fill="#E2243C"/>
<path d="M441.62 120.05C440.805 119.833 440.036 119.47 439.35 118.98L440.35 116.76C440.957 117.202 441.633 117.54 442.35 117.76C443.078 118.005 443.842 118.13 444.61 118.13C445.253 118.172 445.895 118.041 446.47 117.75C446.652 117.654 446.803 117.51 446.909 117.333C447.015 117.157 447.07 116.955 447.07 116.75C447.069 116.605 447.036 116.462 446.974 116.33C446.912 116.199 446.822 116.083 446.71 115.99C446.442 115.771 446.132 115.608 445.8 115.51C445.43 115.39 444.93 115.25 444.3 115.11C443.489 114.931 442.69 114.697 441.91 114.41C441.292 114.18 440.742 113.798 440.31 113.3C439.856 112.735 439.621 112.024 439.65 111.3C439.648 110.589 439.857 109.893 440.25 109.3C440.7 108.656 441.329 108.159 442.06 107.87C443.013 107.489 444.034 107.309 445.06 107.34C445.865 107.341 446.668 107.438 447.45 107.63C448.154 107.81 448.828 108.093 449.45 108.47L448.54 110.72C447.468 110.082 446.247 109.737 445 109.72C444.363 109.674 443.727 109.817 443.17 110.13C442.994 110.233 442.847 110.378 442.742 110.553C442.637 110.728 442.578 110.926 442.57 111.13C442.559 111.349 442.621 111.566 442.746 111.747C442.871 111.927 443.051 112.062 443.26 112.13C443.934 112.409 444.634 112.62 445.35 112.76C446.156 112.942 446.951 113.173 447.73 113.45C448.347 113.677 448.897 114.055 449.33 114.55C449.794 115.11 450.033 115.823 450 116.55C450.003 117.263 449.79 117.96 449.39 118.55C448.928 119.195 448.289 119.691 447.55 119.98C446.597 120.361 445.576 120.541 444.55 120.51C443.557 120.495 442.57 120.34 441.62 120.05V120.05Z" fill="#E2243C"/>
<path d="M358.33 51.1901C359.96 52.9788 360.831 55.331 360.76 57.7501C360.772 59.7204 360.22 61.653 359.17 63.3201C357.997 65.1219 356.321 66.5404 354.35 67.4001C351.83 68.4968 349.097 69.0194 346.35 68.9301C343.916 68.9181 341.495 68.5818 339.15 67.9301C337.001 67.3811 334.969 66.4495 333.15 65.1801L336.27 59.0401C337.653 60.0638 339.203 60.8418 340.85 61.3401C342.57 61.8864 344.365 62.163 346.17 62.1601C347.86 62.2629 349.541 61.859 351 61.0001C351.549 60.6493 351.998 60.1614 352.301 59.5845C352.605 59.0076 352.752 58.3615 352.73 57.7101C352.73 54.8701 350.567 53.4501 346.24 53.4501H342.58V48.1501L349.71 40.0801H334.91V33.6801H359.17V38.8801L351.35 47.7901C353.997 48.0912 356.461 49.2913 358.33 51.1901V51.1901Z" fill="#E2243C"/>
<path d="M372.49 60.4401C372.937 60.8909 373.287 61.4289 373.518 62.0207C373.748 62.6125 373.855 63.2454 373.83 63.8801C373.832 64.5546 373.748 65.2268 373.58 65.8801C373.29 66.9053 372.926 67.908 372.49 68.8801L369.67 76.0001H364.77L367 68.0901C366.175 67.7877 365.472 67.2219 365 66.4801C364.509 65.7033 364.258 64.7988 364.28 63.8801C364.256 63.2429 364.366 62.6078 364.602 62.0154C364.838 61.4231 365.195 60.8865 365.65 60.4401C366.108 60.0043 366.648 59.664 367.238 59.4391C367.829 59.2142 368.458 59.1091 369.09 59.1301C369.716 59.11 370.339 59.2156 370.923 59.4406C371.507 59.6656 372.04 60.0055 372.49 60.4401V60.4401Z" fill="#E2243C"/>
<path d="M403.83 61.8099V68.3399H377.64V63.1399L391 50.5199C392.139 49.5056 393.111 48.3177 393.88 46.9999C394.356 46.1066 394.61 45.112 394.62 44.0999C394.655 43.4945 394.546 42.8893 394.3 42.3346C394.055 41.7799 393.681 41.2916 393.21 40.9099C391.999 40.0826 390.544 39.688 389.08 39.7899C387.662 39.7679 386.257 40.0652 384.97 40.6599C383.738 41.2444 382.679 42.1407 381.9 43.2599L376.06 39.4999C377.456 37.4422 379.39 35.8063 381.65 34.7699C384.21 33.591 387.003 33.0064 389.82 33.0599C392.136 33.0108 394.437 33.4397 396.58 34.3199C398.387 35.0615 399.947 36.2992 401.08 37.8899C402.175 39.4816 402.738 41.3787 402.69 43.3099C402.704 45.1443 402.297 46.9575 401.5 48.6099C400.32 50.7524 398.762 52.6633 396.9 54.2499L388.9 61.7799L403.83 61.8099Z" fill="#E2243C"/>
<path d="M429.85 49.63C430.994 50.577 431.905 51.7753 432.51 53.1317C433.115 54.4881 433.399 55.9659 433.34 57.45C433.36 59.4843 432.809 61.4834 431.75 63.22C430.589 65.0515 428.912 66.4988 426.93 67.38C424.411 68.4833 421.679 69.0127 418.93 68.93C416.496 68.9181 414.075 68.5818 411.73 67.93C409.581 67.3811 407.549 66.4495 405.73 65.18L408.9 59.04C410.277 60.0617 411.82 60.8397 413.46 61.34C415.17 61.8878 416.955 62.1645 418.75 62.16C420.411 62.2596 422.063 61.8553 423.49 61C424.04 60.6447 424.488 60.153 424.791 59.5729C425.094 58.9929 425.242 58.3442 425.22 57.69C425.252 57.0171 425.1 56.3481 424.781 55.7546C424.463 55.161 423.989 54.6652 423.41 54.32C422.21 53.56 420.123 53.18 417.15 53.18H408.29L410.07 33.67H431.21V40.11H416.75L416.21 46.7H419C423.9 46.7067 427.517 47.6834 429.85 49.63Z" fill="#E2243C"/>
<path d="M464.26 53.49C465.177 54.921 465.65 56.5909 465.62 58.29C465.66 60.3159 465.015 62.2961 463.79 63.91C462.449 65.5987 460.666 66.8829 458.64 67.62C453.679 69.3666 448.271 69.3666 443.31 67.62C441.3 66.8826 439.537 65.5974 438.22 63.91C437.002 62.2935 436.364 60.3136 436.41 58.29C436.375 56.5903 436.849 54.919 437.77 53.49C438.745 52.0418 440.088 50.8788 441.66 50.12C440.42 49.3928 439.387 48.36 438.66 47.12C437.964 45.8538 437.619 44.4245 437.66 42.98C437.621 41.0919 438.212 39.2445 439.34 37.73C440.552 36.1837 442.163 34.9978 444 34.3C446.233 33.4485 448.61 33.0376 451 33.09C453.389 33.0456 455.765 33.4562 458 34.3C459.864 34.9884 461.501 36.179 462.73 37.74C463.85 39.261 464.43 41.112 464.38 43C464.417 44.444 464.072 45.872 463.38 47.14C462.656 48.3822 461.622 49.4157 460.38 50.14C461.948 50.8927 463.287 52.0489 464.26 53.49V53.49ZM455.74 61.68C456.31 61.2554 456.768 60.6985 457.075 60.0574C457.381 59.4163 457.527 58.7102 457.5 58C457.522 57.3006 457.373 56.6065 457.066 55.9775C456.76 55.3485 456.304 54.8037 455.74 54.39C454.344 53.4512 452.68 52.9946 451 53.09C449.328 53.0009 447.674 53.4725 446.3 54.43C445.739 54.8387 445.286 55.3767 444.978 55.9982C444.67 56.6197 444.516 57.3064 444.53 58C444.5 58.706 444.642 59.4088 444.943 60.048C445.245 60.6872 445.696 61.2437 446.26 61.67C447.684 62.5521 449.325 63.0194 451 63.0194C452.675 63.0194 454.316 62.5521 455.74 61.67V61.68ZM447.08 40.15C446.6 40.527 446.217 41.0131 445.963 41.568C445.709 42.1229 445.592 42.7304 445.62 43.34C445.594 43.9362 445.71 44.5302 445.958 45.0727C446.207 45.6152 446.581 46.0908 447.05 46.46C448.196 47.2834 449.591 47.686 451 47.6C452.424 47.6806 453.833 47.279 455 46.46C455.484 46.1006 455.872 45.6285 456.132 45.0848C456.392 44.541 456.514 43.9421 456.49 43.34C456.517 42.7275 456.396 42.1175 456.137 41.562C455.877 41.0066 455.487 40.5221 455 40.15C453.838 39.3187 452.426 38.9127 451 39C449.599 38.913 448.212 39.32 447.08 40.15V40.15Z" fill="#E2243C"/>
<path d="M267 151.8L267.21 152.95L267.43 151.8L269.22 146.11H270.52L272.32 151.8L272.55 153.08H272.6L272.86 151.8L274.19 146.11H275.89L273.29 155.06H272L270.23 149.61L269.89 148.18H269.84L269.53 149.61L267.79 155.06H266.47L263.88 146.11H265.57L267 151.8Z" fill="black"/>
<path d="M281.2 155.23C280.64 155.259 280.081 155.164 279.562 154.951C279.043 154.738 278.578 154.414 278.2 154C277.456 153.085 277.075 151.928 277.13 150.75V150.39C277.088 149.225 277.484 148.087 278.24 147.2C278.57 146.802 278.985 146.483 279.453 146.265C279.922 146.047 280.433 145.936 280.95 145.94C281.456 145.903 281.964 145.985 282.433 146.179C282.902 146.374 283.319 146.675 283.65 147.06C284.286 147.926 284.6 148.987 284.54 150.06V150.92H278.82C278.786 151.693 278.992 152.458 279.41 153.11C279.619 153.391 279.895 153.616 280.213 153.762C280.531 153.909 280.88 153.974 281.23 153.95C281.724 153.96 282.216 153.879 282.68 153.71C283.077 153.568 283.441 153.347 283.75 153.06L284.39 154.12C284.024 154.459 283.596 154.724 283.13 154.9C282.514 155.133 281.858 155.245 281.2 155.23ZM280.94 147.23C280.67 147.227 280.404 147.284 280.159 147.399C279.915 147.513 279.7 147.681 279.53 147.89C279.146 148.372 278.909 148.956 278.85 149.57V149.62H282.85V149.48C282.869 148.905 282.7 148.34 282.37 147.87C282.198 147.658 281.98 147.489 281.731 147.377C281.483 147.264 281.212 147.21 280.94 147.22V147.23Z" fill="black"/>
<path d="M290.6 147.55L289.76 147.5C289.375 147.488 288.995 147.592 288.67 147.8C288.368 148.018 288.132 148.316 287.99 148.66V155.06H286.36V146.11H287.82L287.97 147.41C288.198 146.984 288.519 146.615 288.91 146.33C289.289 146.069 289.74 145.933 290.2 145.94C290.316 145.93 290.433 145.93 290.55 145.94L290.82 146L290.6 147.55Z" fill="black"/>
<path d="M295.84 155.23C295.28 155.26 294.721 155.165 294.202 154.952C293.683 154.739 293.218 154.414 292.84 154C292.089 153.088 291.704 151.93 291.76 150.75V150.39C291.717 149.223 292.117 148.084 292.88 147.2C293.209 146.801 293.623 146.481 294.092 146.263C294.561 146.045 295.073 145.935 295.59 145.94C296.096 145.903 296.604 145.985 297.073 146.179C297.542 146.374 297.959 146.675 298.29 147.06C298.926 147.926 299.24 148.987 299.18 150.06V150.92H293.46C293.424 151.695 293.634 152.461 294.06 153.11C294.268 153.392 294.544 153.617 294.862 153.764C295.18 153.911 295.53 153.975 295.88 153.95C296.374 153.96 296.866 153.879 297.33 153.71C297.726 153.566 298.09 153.345 298.4 153.06L299.04 154.12C298.672 154.461 298.24 154.726 297.77 154.9C297.155 155.136 296.499 155.248 295.84 155.23ZM295.58 147.23C295.31 147.227 295.044 147.284 294.799 147.399C294.555 147.513 294.34 147.681 294.17 147.89C293.782 148.37 293.545 148.955 293.49 149.57V149.62H297.49V149.48C297.513 148.905 297.344 148.338 297.01 147.87C296.839 147.657 296.621 147.487 296.372 147.374C296.124 147.262 295.853 147.209 295.58 147.22V147.23Z" fill="black"/>
<path d="M312.84 150.92C312.894 152.035 312.566 153.136 311.91 154.04C311.61 154.429 311.22 154.74 310.775 154.947C310.329 155.154 309.841 155.251 309.35 155.23C308.852 155.242 308.358 155.146 307.9 154.95C307.483 154.766 307.119 154.48 306.84 154.12V158.5H305.21V146.11H306.46L306.72 147.26C306.991 146.839 307.367 146.494 307.81 146.26C308.281 146.023 308.803 145.906 309.33 145.92C309.836 145.904 310.339 146.017 310.79 146.248C311.241 146.479 311.626 146.82 311.91 147.24C312.575 148.278 312.9 149.498 312.84 150.73V150.92ZM311.21 150.75C311.245 149.874 311.037 149.005 310.61 148.24C310.431 147.93 310.173 147.674 309.862 147.498C309.55 147.322 309.197 147.233 308.84 147.24C308.417 147.229 308.001 147.34 307.64 147.56C307.305 147.783 307.03 148.085 306.84 148.44V152.76C307.024 153.128 307.311 153.436 307.666 153.645C308.021 153.854 308.428 153.957 308.84 153.94C309.18 153.959 309.519 153.891 309.825 153.742C310.132 153.593 310.395 153.369 310.59 153.09C311.013 152.44 311.222 151.675 311.19 150.9L311.21 150.75Z" fill="black"/>
<path d="M319.07 147.55L318.24 147.5C317.855 147.486 317.474 147.591 317.15 147.8C316.848 148.018 316.612 148.316 316.47 148.66V155.06H314.84V146.11H316.29L316.45 147.41C316.675 146.982 316.997 146.612 317.39 146.33C317.765 146.069 318.213 145.933 318.67 145.94C318.787 145.929 318.904 145.929 319.02 145.94L319.29 146L319.07 147.55Z" fill="black"/>
<path d="M320.22 150.5C320.172 149.315 320.556 148.153 321.3 147.23C321.653 146.806 322.1 146.469 322.604 146.245C323.109 146.021 323.658 145.917 324.21 145.94C324.775 145.907 325.34 146.005 325.86 146.227C326.381 146.449 326.843 146.789 327.21 147.22C327.945 148.152 328.324 149.314 328.28 150.5V150.68C328.332 151.867 327.952 153.032 327.21 153.96C326.836 154.363 326.382 154.684 325.878 154.904C325.374 155.124 324.83 155.237 324.28 155.237C323.73 155.237 323.186 155.124 322.682 154.904C322.178 154.684 321.724 154.363 321.35 153.96C320.605 153.037 320.221 151.875 320.27 150.69L320.22 150.5ZM321.85 150.68C321.817 151.505 322.026 152.322 322.45 153.03C322.649 153.317 322.914 153.551 323.223 153.713C323.532 153.875 323.876 153.959 324.225 153.959C324.574 153.959 324.918 153.875 325.227 153.713C325.536 153.551 325.801 153.317 326 153.03C326.424 152.322 326.633 151.505 326.6 150.68V150.5C326.631 149.678 326.423 148.865 326 148.16C325.812 147.858 325.547 147.612 325.233 147.447C324.918 147.282 324.565 147.204 324.21 147.22C323.86 147.209 323.513 147.29 323.204 147.455C322.896 147.62 322.635 147.863 322.45 148.16C322.027 148.865 321.819 149.678 321.85 150.5V150.68Z" fill="black"/>
<path d="M333.09 152.42L333.23 153.05L333.39 152.42L335.45 146.11H337.11L333.82 155.06H332.58L329.25 146.11H331L333.09 152.42Z" fill="black"/>
<path d="M340.38 143.82H338.75V142.15H340.38V143.82ZM340.38 155.06H338.75V146.11H340.38V155.06Z" fill="black"/>
<path d="M342.52 150.75C342.461 149.52 342.783 148.301 343.44 147.26C343.724 146.84 344.109 146.499 344.56 146.268C345.011 146.037 345.514 145.924 346.02 145.94C346.502 145.932 346.981 146.031 347.42 146.23C347.816 146.426 348.158 146.714 348.42 147.07V142.15H350.05V155.06H348.81L348.56 153.92C348.289 154.342 347.913 154.686 347.47 154.92C347.007 155.147 346.496 155.26 345.98 155.25C345.488 155.271 344.998 155.174 344.551 154.967C344.104 154.76 343.713 154.449 343.41 154.06C342.764 153.152 342.44 152.054 342.49 150.94L342.52 150.75ZM344.15 150.92C344.111 151.682 344.302 152.439 344.7 153.09C344.892 153.363 345.151 153.582 345.452 153.726C345.754 153.869 346.087 153.933 346.42 153.91C346.852 153.927 347.279 153.808 347.64 153.57C347.989 153.343 348.269 153.025 348.45 152.65V148.47C348.257 148.114 347.979 147.812 347.64 147.59C347.282 147.362 346.864 147.247 346.44 147.26C346.085 147.247 345.734 147.333 345.426 147.51C345.119 147.687 344.867 147.947 344.7 148.26C344.302 149.038 344.113 149.907 344.15 150.78V150.92Z" fill="black"/>
<path d="M356.22 155.23C355.66 155.259 355.101 155.164 354.582 154.951C354.063 154.738 353.598 154.414 353.22 154C352.476 153.085 352.095 151.928 352.15 150.75V150.39C352.108 149.225 352.504 148.087 353.26 147.2C353.589 146.801 354.003 146.481 354.472 146.263C354.941 146.045 355.453 145.935 355.97 145.94C356.476 145.903 356.984 145.985 357.453 146.179C357.922 146.374 358.339 146.675 358.67 147.06C359.306 147.926 359.62 148.987 359.56 150.06V150.92H353.84C353.801 151.694 354.008 152.46 354.43 153.11C354.638 153.392 354.914 153.617 355.232 153.764C355.55 153.911 355.9 153.975 356.25 153.95C356.744 153.96 357.236 153.879 357.7 153.71C358.097 153.568 358.461 153.347 358.77 153.06L359.41 154.12C359.042 154.461 358.61 154.726 358.14 154.9C357.528 155.135 356.875 155.247 356.22 155.23V155.23ZM355.96 147.23C355.69 147.227 355.424 147.284 355.179 147.399C354.935 147.513 354.72 147.681 354.55 147.89C354.162 148.37 353.925 148.955 353.87 149.57V149.62H357.87V149.48C357.892 148.907 357.727 148.342 357.4 147.87C357.231 147.662 357.018 147.496 356.775 147.383C356.532 147.271 356.267 147.215 356 147.22L355.96 147.23Z" fill="black"/>
<path d="M361 150.75C360.941 149.52 361.262 148.301 361.92 147.26C362.205 146.839 362.591 146.496 363.045 146.265C363.498 146.034 364.002 145.923 364.51 145.94C364.989 145.933 365.464 146.032 365.9 146.23C366.293 146.43 366.635 146.717 366.9 147.07V142.15H368.53V155.06H367.28L367.03 153.92C366.762 154.341 366.39 154.685 365.95 154.92C365.484 155.148 364.969 155.261 364.45 155.25C363.959 155.272 363.47 155.175 363.025 154.968C362.579 154.761 362.19 154.449 361.89 154.06C361.234 153.156 360.906 152.056 360.96 150.94L361 150.75ZM362.63 150.92C362.591 151.682 362.782 152.439 363.18 153.09C363.376 153.359 363.636 153.575 363.936 153.718C364.236 153.861 364.568 153.927 364.9 153.91C365.335 153.927 365.765 153.808 366.13 153.57C366.474 153.338 366.753 153.021 366.94 152.65V148.47C366.743 148.114 366.461 147.812 366.12 147.59C365.762 147.362 365.344 147.247 364.92 147.26C364.567 147.246 364.217 147.333 363.91 147.51C363.604 147.687 363.354 147.947 363.19 148.26C362.786 149.037 362.593 149.905 362.63 150.78V150.92Z" fill="black"/>
<path d="M377.51 151.8L377.72 152.95L377.93 151.8L379.72 146.11H381.02L382.82 151.8L383.05 153.08L383.31 151.8L384.64 146.11H386.34L383.74 155.06H382.43L380.66 149.61L380.32 148.18H380.27L379.96 149.61L378.22 155.06H377L374.41 146.11H376.1L377.51 151.8Z" fill="black"/>
<path d="M389.8 143.82H388.17V142.15H389.8V143.82ZM389.8 155.06H388.17V146.11H389.8V155.06Z" fill="black"/>
<path d="M394.57 144V146.16H396.27V147.36H394.57V152.8C394.539 153.116 394.632 153.432 394.83 153.68C394.922 153.768 395.03 153.836 395.148 153.88C395.267 153.925 395.393 153.945 395.52 153.94C395.626 153.953 395.734 153.953 395.84 153.94C395.936 153.923 396.03 153.897 396.12 153.86L396.35 154.98C396.19 155.099 396.005 155.181 395.81 155.22C395.583 155.287 395.347 155.32 395.11 155.32C394.82 155.334 394.529 155.288 394.257 155.185C393.985 155.082 393.738 154.924 393.53 154.72C393.095 154.194 392.884 153.52 392.94 152.84V147.4H391.52V146.2H392.94V144H394.57Z" fill="black"/>
<path d="M399.64 147.31C399.938 146.893 400.328 146.551 400.78 146.31C401.239 146.067 401.751 145.943 402.27 145.95C402.681 145.927 403.093 145.992 403.477 146.141C403.862 146.289 404.21 146.517 404.5 146.81C405.089 147.562 405.374 148.508 405.3 149.46V155.07H403.67V149.44C403.717 148.853 403.546 148.269 403.19 147.8C403.006 147.614 402.783 147.471 402.538 147.379C402.293 147.288 402.031 147.25 401.77 147.27C401.333 147.262 400.9 147.361 400.51 147.56C400.156 147.747 399.856 148.022 399.64 148.36V155.07H398V142.15H399.63L399.64 147.31Z" fill="black"/>
<path d="M413.61 155.06H412V142.15H413.63L413.61 155.06Z" fill="black"/>
<path d="M419.82 155.23C419.26 155.26 418.701 155.165 418.182 154.952C417.663 154.739 417.198 154.414 416.82 154C416.069 153.088 415.684 151.93 415.74 150.75V150.39C415.697 149.223 416.097 148.084 416.86 147.2C417.189 146.801 417.603 146.481 418.072 146.263C418.541 146.045 419.053 145.935 419.57 145.94C420.076 145.903 420.584 145.985 421.053 146.179C421.522 146.374 421.939 146.675 422.27 147.06C422.906 147.926 423.22 148.987 423.16 150.06V150.92H417.44C417.404 151.695 417.614 152.461 418.04 153.11C418.248 153.392 418.524 153.617 418.842 153.764C419.16 153.911 419.51 153.975 419.86 153.95C420.354 153.96 420.846 153.879 421.31 153.71C421.706 153.566 422.07 153.345 422.38 153.06L423.02 154.12C422.652 154.461 422.22 154.726 421.75 154.9C421.135 155.136 420.479 155.248 419.82 155.23ZM419.56 147.23C419.29 147.226 419.023 147.283 418.779 147.398C418.535 147.512 418.32 147.68 418.15 147.89C417.761 148.37 417.525 148.955 417.47 149.57V149.62H421.47V149.48C421.493 148.905 421.324 148.338 420.99 147.87C420.819 147.657 420.601 147.487 420.352 147.374C420.104 147.262 419.833 147.209 419.56 147.22V147.23Z" fill="black"/>
<path d="M424.69 150.75C424.631 149.52 424.952 148.301 425.61 147.26C425.893 146.84 426.279 146.499 426.73 146.268C427.181 146.037 427.683 145.924 428.19 145.94C428.71 145.932 429.224 146.048 429.69 146.28C430.127 146.518 430.499 146.862 430.77 147.28L430.97 146.12H432.27V155.12C432.3 155.607 432.226 156.095 432.054 156.552C431.881 157.009 431.614 157.424 431.27 157.77C430.458 158.431 429.425 158.76 428.38 158.69C427.911 158.686 427.444 158.625 426.99 158.51C426.532 158.405 426.088 158.244 425.67 158.03L425.91 156.76C426.271 156.943 426.654 157.077 427.05 157.16C427.479 157.266 427.918 157.32 428.36 157.32C428.672 157.348 428.987 157.314 429.285 157.22C429.584 157.126 429.861 156.973 430.1 156.77C430.295 156.544 430.443 156.282 430.535 155.999C430.628 155.716 430.664 155.417 430.64 155.12V154.12C430.359 154.479 430 154.77 429.59 154.97C429.144 155.17 428.659 155.269 428.17 155.26C427.679 155.281 427.191 155.184 426.745 154.977C426.3 154.77 425.91 154.459 425.61 154.07C424.964 153.162 424.64 152.063 424.69 150.95V150.75ZM426.32 150.92C426.282 151.682 426.474 152.438 426.87 153.09C427.062 153.363 427.321 153.582 427.622 153.726C427.924 153.869 428.257 153.933 428.59 153.91C429.025 153.923 429.453 153.804 429.82 153.57C430.168 153.326 430.449 153 430.64 152.62V148.51C430.446 148.143 430.165 147.831 429.82 147.6C429.456 147.369 429.031 147.251 428.6 147.26C428.248 147.246 427.899 147.332 427.594 147.509C427.289 147.686 427.042 147.947 426.88 148.26C426.479 149.037 426.286 149.906 426.32 150.78V150.92Z" fill="black"/>
<path d="M440.11 155.06C440.05 154.79 440.01 154.55 439.98 154.34C439.95 154.13 439.93 153.93 439.92 153.72C439.612 154.161 439.208 154.526 438.74 154.79C438.263 155.078 437.717 155.23 437.16 155.23C436.775 155.257 436.388 155.207 436.023 155.083C435.657 154.96 435.32 154.765 435.03 154.51C434.774 154.247 434.577 153.933 434.451 153.588C434.325 153.243 434.274 152.876 434.3 152.51C434.284 152.119 434.367 151.731 434.542 151.381C434.717 151.031 434.978 150.731 435.3 150.51C436.138 149.981 437.12 149.726 438.11 149.78H439.88V148.9C439.892 148.67 439.855 148.439 439.772 148.224C439.69 148.009 439.563 147.813 439.4 147.65C439.027 147.327 438.543 147.162 438.05 147.19C437.59 147.172 437.138 147.313 436.77 147.59C436.619 147.699 436.496 147.841 436.411 148.006C436.326 148.171 436.281 148.354 436.28 148.54H434.73V148.49C434.723 148.14 434.802 147.793 434.961 147.481C435.119 147.169 435.353 146.901 435.64 146.7C436.352 146.137 437.243 145.85 438.15 145.89C439.032 145.849 439.9 146.122 440.6 146.66C440.912 146.938 441.156 147.283 441.315 147.67C441.475 148.056 441.545 148.473 441.52 148.89V153.2C441.52 153.52 441.52 153.83 441.57 154.13C441.61 154.427 441.67 154.721 441.75 155.01L440.11 155.06ZM437.4 153.86C437.965 153.864 438.52 153.708 439 153.41C439.407 153.185 439.73 152.834 439.92 152.41V150.95H438.1C437.53 150.921 436.969 151.099 436.52 151.45C436.34 151.586 436.194 151.761 436.092 151.962C435.989 152.163 435.934 152.385 435.93 152.61C435.913 152.794 435.937 152.979 436.001 153.152C436.065 153.325 436.167 153.482 436.3 153.61C436.623 153.826 437.015 153.915 437.4 153.86V153.86Z" fill="black"/>
<path d="M445.68 155.06H444.05V142.15H445.68V155.06Z" fill="black"/>
<path d="M457.9 155.06C457.84 154.79 457.8 154.55 457.77 154.34C457.74 154.13 457.77 153.93 457.71 153.72C457.399 154.158 456.997 154.523 456.53 154.79C456.053 155.078 455.507 155.23 454.95 155.23C454.565 155.257 454.178 155.207 453.813 155.083C453.447 154.96 453.11 154.765 452.82 154.51C452.564 154.247 452.367 153.933 452.241 153.588C452.115 153.243 452.064 152.876 452.09 152.51C452.074 152.119 452.157 151.731 452.332 151.381C452.507 151.031 452.768 150.731 453.09 150.51C453.928 149.981 454.91 149.726 455.9 149.78H457.67V148.9C457.682 148.67 457.645 148.439 457.562 148.224C457.48 148.009 457.353 147.813 457.19 147.65C456.817 147.327 456.333 147.162 455.84 147.19C455.38 147.172 454.928 147.313 454.56 147.59C454.409 147.699 454.286 147.841 454.201 148.006C454.116 148.171 454.071 148.354 454.07 148.54H452.52V148.49C452.513 148.14 452.592 147.793 452.751 147.481C452.91 147.169 453.143 146.901 453.43 146.7C454.142 146.137 455.033 145.85 455.94 145.89C456.822 145.849 457.69 146.122 458.39 146.66C458.702 146.938 458.946 147.283 459.105 147.67C459.265 148.056 459.335 148.473 459.31 148.89V153.2C459.31 153.52 459.31 153.83 459.36 154.13C459.4 154.427 459.46 154.721 459.54 155.01L457.9 155.06ZM455.19 153.86C455.755 153.864 456.31 153.708 456.79 153.41C457.197 153.185 457.52 152.834 457.71 152.41V150.95H455.89C455.32 150.921 454.759 151.099 454.31 151.45C454.13 151.586 453.984 151.761 453.882 151.962C453.779 152.163 453.724 152.385 453.72 152.61C453.703 152.794 453.727 152.979 453.791 153.152C453.855 153.325 453.957 153.482 454.09 153.61C454.413 153.826 454.805 153.915 455.19 153.86V153.86Z" fill="black"/>
<path d="M466.91 152.65C466.913 152.482 466.878 152.315 466.807 152.162C466.736 152.01 466.631 151.876 466.5 151.77C466.03 151.467 465.502 151.266 464.95 151.18C464.082 151.008 463.257 150.668 462.52 150.18C462.255 149.998 462.039 149.752 461.893 149.466C461.746 149.18 461.673 148.862 461.68 148.54C461.681 148.178 461.765 147.821 461.927 147.496C462.088 147.172 462.322 146.889 462.61 146.67C463.32 146.155 464.176 145.882 465.053 145.891C465.93 145.9 466.781 146.191 467.48 146.72C467.771 146.948 468.005 147.242 468.161 147.577C468.317 147.913 468.392 148.28 468.38 148.65V148.7H466.82C466.815 148.497 466.767 148.298 466.679 148.115C466.591 147.932 466.465 147.77 466.31 147.64C465.948 147.35 465.502 147.185 465.038 147.171C464.575 147.157 464.119 147.293 463.74 147.56C463.606 147.675 463.498 147.818 463.424 147.978C463.35 148.139 463.311 148.313 463.31 148.49C463.303 148.646 463.333 148.802 463.397 148.944C463.462 149.086 463.558 149.212 463.68 149.31C464.147 149.584 464.663 149.764 465.2 149.84C466.094 149.994 466.946 150.335 467.7 150.84C467.966 151.027 468.182 151.276 468.33 151.565C468.478 151.854 468.554 152.175 468.55 152.5C468.552 152.881 468.463 153.258 468.289 153.597C468.115 153.937 467.861 154.229 467.55 154.45C466.818 154.977 465.93 155.241 465.03 155.2C464.054 155.25 463.093 154.94 462.33 154.33C462.03 154.091 461.791 153.787 461.629 153.44C461.468 153.092 461.389 152.713 461.4 152.33V152.28H463C462.994 152.528 463.049 152.774 463.161 152.995C463.273 153.217 463.437 153.407 463.64 153.55C464.062 153.825 464.556 153.968 465.06 153.96C465.541 153.985 466.018 153.855 466.42 153.59C466.572 153.485 466.697 153.345 466.782 153.181C466.867 153.017 466.911 152.835 466.91 152.65Z" fill="black"/>
<path d="M475.77 152.65C475.773 152.482 475.738 152.315 475.667 152.162C475.596 152.01 475.491 151.876 475.36 151.77C474.89 151.467 474.362 151.266 473.81 151.18C472.942 151.01 472.116 150.67 471.38 150.18C471.117 149.995 470.902 149.75 470.754 149.464C470.606 149.179 470.529 148.862 470.53 148.54C470.531 148.178 470.616 147.821 470.777 147.497C470.938 147.172 471.172 146.889 471.46 146.67C472.171 146.154 473.03 145.881 473.908 145.89C474.787 145.899 475.639 146.19 476.34 146.72C476.631 146.948 476.865 147.242 477.021 147.577C477.177 147.913 477.252 148.28 477.24 148.65V148.7H475.69C475.685 148.497 475.637 148.298 475.549 148.115C475.461 147.932 475.335 147.77 475.18 147.64C474.818 147.35 474.372 147.185 473.908 147.171C473.445 147.157 472.989 147.293 472.61 147.56C472.474 147.674 472.365 147.816 472.291 147.977C472.216 148.138 472.178 148.313 472.18 148.49C472.173 148.646 472.203 148.802 472.267 148.944C472.332 149.086 472.428 149.212 472.55 149.31C473.017 149.584 473.534 149.764 474.07 149.84C474.964 149.996 475.815 150.337 476.57 150.84C476.836 151.027 477.052 151.276 477.2 151.565C477.348 151.854 477.424 152.175 477.42 152.5C477.423 152.882 477.334 153.259 477.16 153.598C476.986 153.938 476.732 154.23 476.42 154.45C475.641 154.959 474.726 155.22 473.796 155.199C472.866 155.178 471.964 154.875 471.21 154.33C470.909 154.092 470.668 153.788 470.505 153.441C470.342 153.093 470.261 152.713 470.27 152.33V152.28H471.83C471.821 152.528 471.876 152.775 471.987 152.997C472.099 153.219 472.265 153.409 472.47 153.55C472.891 153.827 473.386 153.97 473.89 153.96C474.371 153.983 474.847 153.853 475.25 153.59C475.407 153.487 475.536 153.348 475.626 153.184C475.717 153.021 475.766 152.837 475.77 152.65V152.65Z" fill="black"/>
<path d="M481.18 143.82H479.56V142.15H481.18V143.82ZM481.18 155.06H479.56V146.11H481.18V155.06Z" fill="black"/>
<path d="M488.89 152.65C488.895 152.481 488.861 152.314 488.789 152.161C488.718 152.008 488.612 151.874 488.48 151.77C488.01 151.467 487.482 151.266 486.93 151.18C486.065 151.01 485.243 150.67 484.51 150.18C484.242 150 484.023 149.756 483.875 149.469C483.726 149.182 483.652 148.863 483.66 148.54C483.661 148.178 483.746 147.821 483.907 147.496C484.068 147.172 484.302 146.889 484.59 146.67C485.3 146.155 486.156 145.882 487.033 145.891C487.91 145.9 488.761 146.191 489.46 146.72C489.751 146.948 489.985 147.242 490.141 147.577C490.298 147.913 490.372 148.28 490.36 148.65V148.7H488.8C488.795 148.498 488.748 148.3 488.662 148.117C488.576 147.935 488.452 147.772 488.3 147.64C487.947 147.323 487.485 147.154 487.01 147.17C486.547 147.136 486.087 147.275 485.72 147.56C485.587 147.676 485.481 147.819 485.409 147.979C485.337 148.14 485.299 148.314 485.3 148.49C485.292 148.645 485.321 148.8 485.383 148.943C485.446 149.085 485.54 149.211 485.66 149.31C486.128 149.582 486.644 149.762 487.18 149.84C488.074 149.994 488.926 150.335 489.68 150.84C489.946 151.027 490.162 151.276 490.31 151.565C490.458 151.854 490.534 152.175 490.53 152.5C490.533 152.881 490.443 153.258 490.269 153.597C490.095 153.937 489.841 154.229 489.53 154.45C488.749 154.959 487.833 155.22 486.901 155.198C485.97 155.177 485.066 154.874 484.31 154.33C484.012 154.09 483.774 153.785 483.612 153.438C483.451 153.091 483.372 152.712 483.38 152.33V152.28H485C484.993 152.529 485.05 152.776 485.163 152.998C485.277 153.22 485.444 153.41 485.65 153.55C486.046 153.83 486.515 153.986 487 154C487.481 154.025 487.958 153.895 488.36 153.63C488.525 153.526 488.661 153.382 488.754 153.21C488.847 153.038 488.894 152.845 488.89 152.65Z" fill="black"/>
<path d="M494.81 144V146.16H496.51V147.36H494.81V152.8C494.779 153.116 494.872 153.432 495.07 153.68C495.261 153.854 495.512 153.947 495.77 153.94C495.873 153.953 495.977 153.953 496.08 153.94C496.179 153.923 496.276 153.896 496.37 153.86L496.59 154.98C496.43 155.099 496.245 155.181 496.05 155.22C495.823 155.287 495.587 155.321 495.35 155.32C495.06 155.334 494.769 155.288 494.497 155.185C494.225 155.082 493.978 154.924 493.77 154.72C493.339 154.193 493.131 153.518 493.19 152.84V147.4H491.76V146.2H493.19V144H494.81Z" fill="black"/>
<path d="M503.75 155.06C503.697 154.787 503.657 154.547 503.63 154.34C503.63 154.13 503.58 153.93 503.57 153.72C503.259 154.158 502.857 154.523 502.39 154.79C501.913 155.078 501.367 155.23 500.81 155.23C500.425 155.257 500.039 155.207 499.673 155.083C499.307 154.96 498.97 154.765 498.68 154.51C498.424 154.247 498.227 153.933 498.101 153.588C497.975 153.243 497.924 152.876 497.95 152.51C497.934 152.119 498.017 151.731 498.192 151.381C498.367 151.031 498.628 150.731 498.95 150.51C499.788 149.981 500.77 149.726 501.76 149.78H503.53V148.9C503.542 148.67 503.505 148.439 503.423 148.224C503.34 148.009 503.213 147.813 503.05 147.65C502.677 147.327 502.193 147.162 501.7 147.19C501.24 147.172 500.788 147.313 500.42 147.59C500.269 147.699 500.146 147.841 500.061 148.006C499.976 148.171 499.931 148.354 499.93 148.54H498.38V148.49C498.376 148.139 498.457 147.793 498.618 147.481C498.778 147.169 499.012 146.901 499.3 146.7C500.012 146.137 500.903 145.85 501.81 145.89C502.692 145.849 503.56 146.122 504.26 146.66C504.572 146.938 504.816 147.283 504.976 147.67C505.135 148.056 505.205 148.473 505.18 148.89V153.2C505.18 153.52 505.18 153.83 505.23 154.13C505.265 154.428 505.325 154.722 505.41 155.01L503.75 155.06ZM501.05 153.86C501.615 153.864 502.17 153.708 502.65 153.41C503.057 153.185 503.38 152.834 503.57 152.41V150.95H501.74C501.174 150.923 500.616 151.1 500.17 151.45C499.99 151.586 499.844 151.761 499.742 151.962C499.64 152.163 499.584 152.385 499.58 152.61C499.563 152.794 499.587 152.979 499.651 153.152C499.715 153.325 499.817 153.482 499.95 153.61C500.273 153.828 500.665 153.917 501.05 153.86V153.86Z" fill="black"/>
<path d="M509 146.11L509.12 147.44C509.398 146.985 509.783 146.604 510.24 146.33C510.706 146.066 511.234 145.931 511.77 145.94C512.183 145.913 512.596 145.974 512.983 146.121C513.369 146.268 513.72 146.496 514.01 146.79C514.6 147.53 514.886 148.467 514.81 149.41V155.06H513.2V149.44C513.257 148.841 513.089 148.242 512.73 147.76C512.541 147.582 512.317 147.446 512.073 147.36C511.828 147.274 511.569 147.24 511.31 147.26C510.864 147.248 510.422 147.355 510.03 147.57C509.681 147.767 509.393 148.058 509.2 148.41V155.06H507.57V146.11H509Z" fill="black"/>
<path d="M520.75 154C521.234 154.005 521.702 153.827 522.06 153.5C522.24 153.35 522.384 153.161 522.483 152.949C522.581 152.736 522.631 152.504 522.63 152.27H524.1V152.32C524.106 152.716 524.019 153.108 523.845 153.465C523.671 153.821 523.416 154.131 523.1 154.37C522.344 155.011 521.366 155.33 520.377 155.259C519.388 155.188 518.467 154.733 517.81 153.99C517.113 153.073 516.759 151.941 516.81 150.79V150.45C516.764 149.306 517.117 148.182 517.81 147.27C518.16 146.841 518.605 146.501 519.111 146.277C519.616 146.053 520.168 145.951 520.72 145.98C521.17 145.962 521.619 146.036 522.04 146.195C522.461 146.355 522.845 146.598 523.17 146.91C523.48 147.198 523.723 147.55 523.882 147.943C524.041 148.335 524.112 148.757 524.09 149.18V149.23H522.61C522.616 148.714 522.422 148.216 522.07 147.84C521.902 147.653 521.695 147.504 521.463 147.404C521.232 147.303 520.982 147.254 520.73 147.26C520.381 147.238 520.032 147.313 519.723 147.477C519.414 147.641 519.157 147.888 518.98 148.19C518.595 148.879 518.405 149.661 518.43 150.45V150.79C518.426 151.564 518.622 152.325 519 153C519.167 153.316 519.42 153.577 519.73 153.754C520.04 153.931 520.393 154.017 520.75 154V154Z" fill="black"/>
<path d="M529.76 155.23C529.2 155.26 528.64 155.166 528.122 154.953C527.603 154.74 527.138 154.415 526.76 154C526.009 153.088 525.624 151.93 525.68 150.75V150.39C525.638 149.225 526.034 148.087 526.79 147.2C527.121 146.801 527.537 146.481 528.008 146.263C528.478 146.045 528.992 145.935 529.51 145.94C530.015 145.904 530.521 145.986 530.988 146.181C531.455 146.375 531.87 146.676 532.2 147.06C532.843 147.923 533.162 148.985 533.1 150.06V150.92H527.37C527.334 151.695 527.544 152.461 527.97 153.11C528.176 153.392 528.45 153.617 528.767 153.764C529.083 153.911 529.432 153.975 529.78 153.95C530.277 153.96 530.772 153.879 531.24 153.71C531.635 153.564 531.998 153.343 532.31 153.06L532.94 154.12C532.574 154.459 532.146 154.724 531.68 154.9C531.067 155.131 530.415 155.243 529.76 155.23V155.23ZM529.51 147.23C529.24 147.225 528.973 147.281 528.728 147.396C528.484 147.51 528.269 147.679 528.1 147.89C527.712 148.37 527.475 148.955 527.42 149.57V149.62H531.42V149.48C531.443 148.905 531.275 148.338 530.94 147.87C530.768 147.658 530.55 147.489 530.302 147.377C530.053 147.264 529.783 147.21 529.51 147.22V147.23Z" fill="black"/>
<path d="M536.35 154.66L535.11 157.19H534.11L534.69 154.58V153.23H536.32L536.35 154.66Z" fill="black"/>
<path d="M263.23 171.24C263.288 172.358 262.964 173.462 262.31 174.37C262.009 174.757 261.619 175.066 261.174 175.271C260.728 175.476 260.24 175.572 259.75 175.55C259.253 175.56 258.76 175.468 258.3 175.28C257.884 175.095 257.52 174.81 257.24 174.45V178.82H255.61V166.43H256.86L257.11 167.59C257.385 167.168 257.764 166.824 258.21 166.59C258.681 166.353 259.203 166.236 259.73 166.25C260.237 166.234 260.739 166.347 261.19 166.578C261.641 166.809 262.027 167.15 262.31 167.57C262.971 168.606 263.292 169.823 263.23 171.05V171.24ZM261.6 171.07C261.635 170.197 261.428 169.332 261 168.57C260.827 168.257 260.571 167.999 260.261 167.822C259.95 167.646 259.597 167.559 259.24 167.57C258.818 167.559 258.401 167.67 258.04 167.89C257.703 168.106 257.427 168.406 257.24 168.76V173.09C257.427 173.441 257.703 173.738 258.04 173.95C258.409 174.168 258.832 174.276 259.26 174.26C259.6 174.279 259.939 174.211 260.245 174.062C260.552 173.913 260.815 173.689 261.01 173.41C261.432 172.76 261.639 171.994 261.6 171.22V171.07Z" fill="black"/>
<path d="M270.44 173C270.443 172.833 270.407 172.668 270.336 172.517C270.265 172.366 270.16 172.234 270.03 172.13C269.562 171.821 269.034 171.617 268.48 171.53C267.613 171.386 266.785 171.062 266.05 170.58C265.781 170.401 265.562 170.156 265.414 169.87C265.265 169.583 265.191 169.263 265.2 168.94C265.203 168.578 265.288 168.222 265.449 167.898C265.61 167.573 265.843 167.29 266.13 167.07C266.817 166.537 267.671 166.264 268.54 166.3C269.437 166.257 270.317 166.549 271.01 167.12C271.3 167.349 271.533 167.643 271.689 167.978C271.845 168.313 271.921 168.68 271.91 169.05H270.36C270.349 168.857 270.298 168.668 270.21 168.496C270.123 168.324 270 168.172 269.85 168.05C269.488 167.76 269.042 167.595 268.578 167.581C268.115 167.567 267.659 167.703 267.28 167.97C267.145 168.083 267.037 168.223 266.963 168.382C266.889 168.541 266.85 168.715 266.85 168.89C266.843 169.046 266.873 169.202 266.938 169.344C267.002 169.486 267.099 169.612 267.22 169.71C267.684 169.99 268.202 170.171 268.74 170.24C269.632 170.389 270.482 170.731 271.23 171.24C271.498 171.426 271.716 171.674 271.866 171.963C272.016 172.253 272.093 172.574 272.09 172.9C272.092 173.28 272.002 173.655 271.828 173.993C271.654 174.33 271.401 174.621 271.09 174.84C270.311 175.348 269.398 175.609 268.468 175.59C267.538 175.57 266.636 175.27 265.88 174.73C265.58 174.491 265.339 174.187 265.176 173.84C265.013 173.493 264.932 173.113 264.94 172.73V172.73H266.5C266.492 172.978 266.547 173.224 266.659 173.446C266.77 173.668 266.936 173.858 267.14 174C267.558 174.273 268.05 174.413 268.55 174.4C269.032 174.431 269.51 174.3 269.91 174.03C270.084 173.923 270.225 173.77 270.318 173.589C270.412 173.407 270.454 173.204 270.44 173Z" fill="black"/>
<path d="M276.83 172.06L277.12 173.19H277.17L279.37 166.43H281.18L277.42 176.75C277.196 177.335 276.856 177.869 276.42 178.32C276.198 178.546 275.931 178.722 275.637 178.837C275.342 178.953 275.026 179.005 274.71 178.99C274.54 179.002 274.37 179.002 274.2 178.99L273.73 178.9L273.9 177.62H274.19H274.63C274.799 177.621 274.966 177.58 275.114 177.5C275.263 177.419 275.389 177.302 275.48 177.16C275.702 176.85 275.887 176.514 276.03 176.16L276.42 175.23L273.1 166.46H274.91L276.83 172.06Z" fill="black"/>
<path d="M286.06 174.28C286.544 174.285 287.012 174.107 287.37 173.78C287.551 173.631 287.697 173.443 287.796 173.23C287.894 173.017 287.944 172.785 287.94 172.55H289.41C289.416 172.948 289.329 173.341 289.155 173.699C288.982 174.057 288.726 174.369 288.41 174.61C287.754 175.191 286.906 175.508 286.03 175.5C285.478 175.532 284.927 175.433 284.421 175.211C283.915 174.988 283.469 174.649 283.12 174.22C282.424 173.306 282.07 172.178 282.12 171.03V170.68C282.08 169.537 282.433 168.414 283.12 167.5C283.472 167.075 283.918 166.737 284.423 166.515C284.928 166.293 285.479 166.192 286.03 166.22C286.479 166.203 286.927 166.275 287.348 166.433C287.768 166.591 288.153 166.831 288.48 167.14C288.79 167.43 289.034 167.784 289.193 168.178C289.351 168.572 289.422 168.996 289.4 169.42V169.47H287.92C287.928 168.951 287.735 168.449 287.38 168.07C287.211 167.884 287.003 167.737 286.772 167.639C286.541 167.541 286.291 167.493 286.04 167.5C285.691 167.478 285.342 167.553 285.033 167.717C284.724 167.881 284.467 168.128 284.29 168.43C283.905 169.116 283.714 169.894 283.74 170.68V171.03C283.713 171.821 283.899 172.606 284.28 173.3C284.452 173.617 284.711 173.877 285.026 174.051C285.342 174.225 285.701 174.304 286.06 174.28V174.28Z" fill="black"/>
<path d="M293 167.63C293.297 167.213 293.688 166.87 294.14 166.63C294.598 166.386 295.111 166.262 295.63 166.27C296.042 166.245 296.454 166.308 296.839 166.457C297.224 166.605 297.572 166.835 297.86 167.13C298.451 167.877 298.737 168.821 298.66 169.77V175.38H297V169.76C297.049 169.173 296.878 168.588 296.52 168.12C296.335 167.935 296.112 167.792 295.868 167.701C295.623 167.61 295.361 167.572 295.1 167.59C294.662 167.575 294.228 167.675 293.84 167.88C293.486 168.063 293.186 168.335 292.97 168.67V175.38H291.34V162.48H293V167.63Z" fill="black"/>
<path d="M300.62 170.82C300.571 169.637 300.951 168.475 301.69 167.55C302.064 167.147 302.518 166.826 303.022 166.606C303.526 166.386 304.07 166.273 304.62 166.273C305.17 166.273 305.714 166.386 306.218 166.606C306.722 166.826 307.176 167.147 307.55 167.55C308.295 168.473 308.679 169.635 308.63 170.82V171C308.679 172.185 308.295 173.347 307.55 174.27C307.193 174.691 306.744 175.024 306.238 175.244C305.731 175.465 305.181 175.566 304.63 175.54C304.076 175.566 303.523 175.465 303.013 175.245C302.504 175.025 302.051 174.691 301.69 174.27C300.958 173.341 300.579 172.182 300.62 171V170.82ZM302.24 171.01C302.207 171.832 302.416 172.645 302.84 173.35C303.04 173.637 303.306 173.871 303.616 174.033C303.926 174.194 304.27 174.279 304.62 174.279C304.97 174.279 305.314 174.194 305.624 174.033C305.934 173.871 306.2 173.637 306.4 173.35C306.826 172.642 307.035 171.825 307 171V170.81C307.03 169.987 306.818 169.173 306.39 168.47C306.191 168.183 305.926 167.949 305.617 167.787C305.308 167.625 304.964 167.541 304.615 167.541C304.266 167.541 303.922 167.625 303.613 167.787C303.304 167.949 303.039 168.183 302.84 168.47C302.419 169.176 302.211 169.989 302.24 170.81V171.01Z" fill="black"/>
<path d="M315.82 173C315.825 172.833 315.791 172.667 315.719 172.516C315.648 172.365 315.542 172.232 315.41 172.13C314.944 171.818 314.415 171.613 313.86 171.53C312.996 171.384 312.172 171.061 311.44 170.58C311.171 170.401 310.952 170.156 310.804 169.87C310.655 169.583 310.582 169.263 310.59 168.94C310.593 168.578 310.678 168.222 310.839 167.898C311 167.573 311.233 167.29 311.52 167.07C312.207 166.536 313.061 166.263 313.93 166.3C314.824 166.256 315.701 166.549 316.39 167.12C316.68 167.35 316.914 167.643 317.071 167.978C317.229 168.313 317.308 168.68 317.3 169.05V169.05H315.74C315.731 168.858 315.682 168.669 315.596 168.497C315.51 168.325 315.389 168.173 315.24 168.05C314.887 167.733 314.425 167.564 313.95 167.58C313.487 167.546 313.027 167.685 312.66 167.97C312.528 168.084 312.423 168.226 312.35 168.384C312.278 168.543 312.24 168.716 312.24 168.89C312.233 169.046 312.263 169.202 312.328 169.344C312.392 169.486 312.489 169.612 312.61 169.71C313.071 169.989 313.586 170.169 314.12 170.24C315.016 170.39 315.868 170.731 316.62 171.24C316.886 171.427 317.102 171.676 317.25 171.965C317.399 172.254 317.474 172.575 317.47 172.9C317.472 173.28 317.382 173.655 317.208 173.993C317.034 174.33 316.781 174.621 316.47 174.84C315.691 175.348 314.778 175.609 313.848 175.59C312.919 175.57 312.017 175.27 311.26 174.73C310.96 174.491 310.719 174.187 310.556 173.84C310.393 173.493 310.312 173.113 310.32 172.73V172.73H311.87C311.864 172.979 311.921 173.225 312.034 173.447C312.148 173.669 312.315 173.859 312.52 174C312.939 174.273 313.43 174.413 313.93 174.4C314.412 174.429 314.89 174.299 315.29 174.03C315.465 173.924 315.607 173.771 315.7 173.59C315.794 173.408 315.835 173.204 315.82 173V173Z" fill="black"/>
<path d="M319.1 170.82C319.059 169.638 319.438 168.479 320.17 167.55C320.544 167.147 320.998 166.826 321.502 166.606C322.006 166.386 322.55 166.273 323.1 166.273C323.65 166.273 324.194 166.386 324.698 166.606C325.202 166.826 325.656 167.147 326.03 167.55C326.776 168.473 327.159 169.635 327.11 170.82V171C327.162 172.184 326.782 173.346 326.04 174.27C325.666 174.673 325.212 174.994 324.708 175.214C324.204 175.434 323.66 175.547 323.11 175.547C322.56 175.547 322.016 175.434 321.512 175.214C321.008 174.994 320.554 174.673 320.18 174.27C319.438 173.346 319.054 172.185 319.1 171V170.82ZM320.73 171.01C320.697 171.832 320.906 172.645 321.33 173.35C321.529 173.637 321.794 173.871 322.103 174.033C322.412 174.195 322.756 174.279 323.105 174.279C323.454 174.279 323.798 174.195 324.107 174.033C324.416 173.871 324.681 173.637 324.88 173.35C325.304 172.645 325.513 171.832 325.48 171.01V170.82C325.509 169.999 325.301 169.186 324.88 168.48C324.691 168.18 324.425 167.936 324.111 167.773C323.796 167.609 323.444 167.533 323.09 167.55C322.741 167.538 322.395 167.617 322.086 167.78C321.777 167.944 321.517 168.185 321.33 168.48C320.91 169.186 320.701 169.999 320.73 170.82V171.01Z" fill="black"/>
<path d="M332.66 174.28C333.146 174.279 333.615 174.102 333.98 173.78C334.158 173.629 334.3 173.44 334.397 173.227C334.494 173.015 334.543 172.784 334.54 172.55H336C336.002 172.947 335.912 173.339 335.739 173.696C335.566 174.053 335.313 174.366 335 174.61C334.34 175.192 333.489 175.509 332.61 175.5C332.058 175.531 331.507 175.431 331.002 175.208C330.496 174.986 330.05 174.647 329.7 174.22C329.01 173.303 328.657 172.177 328.7 171.03V170.68C328.653 169.536 329.007 168.411 329.7 167.5C330.049 167.074 330.493 166.736 330.997 166.514C331.501 166.292 332.05 166.191 332.6 166.22C333.049 166.203 333.497 166.275 333.918 166.433C334.338 166.591 334.723 166.831 335.05 167.14C335.357 167.433 335.599 167.787 335.76 168.18C335.92 168.573 335.995 168.996 335.98 169.42V169.47H334.5C334.511 168.952 334.321 168.45 333.97 168.07C333.798 167.885 333.589 167.738 333.356 167.64C333.124 167.541 332.872 167.494 332.62 167.5C332.271 167.478 331.922 167.553 331.613 167.717C331.304 167.881 331.047 168.128 330.87 168.43C330.489 169.118 330.3 169.894 330.32 170.68V171.03C330.291 171.823 330.481 172.608 330.87 173.3C331.041 173.619 331.302 173.882 331.619 174.056C331.937 174.23 332.299 174.308 332.66 174.28V174.28Z" fill="black"/>
<path d="M339.73 164.14H338.1V162.48H339.73V164.14ZM339.73 175.38H338.1V166.43H339.73V175.38Z" fill="black"/>
<path d="M347.74 175.38C347.68 175.11 347.64 174.87 347.61 174.66C347.578 174.455 347.561 174.248 347.56 174.04C347.243 174.479 346.838 174.847 346.37 175.12C345.896 175.405 345.353 175.554 344.8 175.55C344.416 175.58 344.029 175.532 343.663 175.41C343.297 175.288 342.96 175.094 342.67 174.84C342.414 174.576 342.217 174.262 342.089 173.918C341.962 173.574 341.907 173.206 341.93 172.84C341.915 172.449 341.998 172.061 342.173 171.712C342.348 171.362 342.608 171.062 342.93 170.84C343.775 170.318 344.759 170.067 345.75 170.12H347.52V169.23C347.532 169.001 347.495 168.772 347.412 168.559C347.33 168.345 347.203 168.151 347.04 167.99C346.855 167.828 346.639 167.703 346.406 167.624C346.173 167.545 345.926 167.513 345.68 167.53C345.219 167.505 344.765 167.647 344.4 167.93C344.242 168.043 344.114 168.193 344.028 168.368C343.943 168.543 343.902 168.736 343.91 168.93H342.37C342.364 168.581 342.443 168.236 342.602 167.926C342.761 167.615 342.994 167.349 343.28 167.15C343.993 166.589 344.883 166.302 345.79 166.34C346.673 166.293 347.543 166.567 348.24 167.11C348.555 167.386 348.803 167.73 348.964 168.117C349.125 168.504 349.196 168.922 349.17 169.34V173.65C349.166 173.957 349.183 174.265 349.22 174.57C349.25 174.869 349.31 175.163 349.4 175.45L347.74 175.38ZM345.04 174.19C345.604 174.199 346.158 174.039 346.63 173.73C347.04 173.506 347.366 173.155 347.56 172.73V171.28H345.73C345.162 171.25 344.602 171.424 344.15 171.77C343.97 171.908 343.823 172.084 343.721 172.287C343.618 172.49 343.563 172.713 343.56 172.94C343.552 173.115 343.581 173.289 343.647 173.452C343.712 173.614 343.812 173.76 343.94 173.88C344.243 174.111 344.621 174.221 345 174.19H345.04Z" fill="black"/>
<path d="M353.31 175.38H351.68V162.48H353.31V175.38Z" fill="black"/>
<path d="M357.24 175L356 177.51H355L355.58 174.9V173.55H357.21L357.24 175Z" fill="black"/>
<path d="M365 167.63C365.297 167.213 365.688 166.87 366.14 166.63C366.599 166.387 367.111 166.263 367.63 166.27C368.042 166.245 368.454 166.308 368.839 166.457C369.224 166.605 369.572 166.835 369.86 167.13C370.451 167.877 370.737 168.821 370.66 169.77V175.38H369V169.76C369.049 169.173 368.878 168.588 368.52 168.12C368.335 167.935 368.112 167.792 367.868 167.701C367.623 167.61 367.361 167.572 367.1 167.59C366.662 167.577 366.228 167.677 365.84 167.88C365.486 168.063 365.186 168.335 364.97 168.67V175.38H363.34V162.48H365V167.63Z" fill="black"/>
<path d="M376.7 175.55C376.14 175.58 375.58 175.486 375.062 175.273C374.543 175.06 374.078 174.735 373.7 174.32C372.949 173.412 372.564 172.257 372.62 171.08V170.72C372.576 169.555 372.973 168.416 373.73 167.53C374.061 167.131 374.477 166.811 374.948 166.593C375.418 166.375 375.932 166.265 376.45 166.27C376.954 166.234 377.459 166.316 377.926 166.508C378.393 166.701 378.808 166.999 379.14 167.38C379.777 168.246 380.092 169.307 380.03 170.38V171.24H374.31C374.276 172.013 374.482 172.778 374.9 173.43C375.109 173.711 375.385 173.936 375.703 174.082C376.021 174.229 376.371 174.294 376.72 174.27C377.214 174.28 377.706 174.199 378.17 174.03C378.567 173.892 378.931 173.674 379.24 173.39L379.88 174.39C379.512 174.729 379.085 174.996 378.62 175.18C378.01 175.425 377.358 175.55 376.7 175.55V175.55ZM376.45 167.55C376.18 167.545 375.913 167.601 375.668 167.716C375.424 167.83 375.209 167.999 375.04 168.21C374.647 168.688 374.407 169.274 374.35 169.89V169.89H378.35V169.76C378.373 169.185 378.205 168.618 377.87 168.15C377.696 167.947 377.477 167.787 377.231 167.683C376.984 167.579 376.717 167.533 376.45 167.55V167.55Z" fill="black"/>
<path d="M387.36 175.38C387.31 175.11 387.26 174.87 387.23 174.66C387.2 174.45 387.23 174.25 387.18 174.04C386.866 174.482 386.46 174.85 385.99 175.12C385.516 175.405 384.973 175.554 384.42 175.55C384.036 175.578 383.65 175.53 383.284 175.408C382.919 175.286 382.581 175.093 382.29 174.84C382.036 174.576 381.839 174.262 381.714 173.917C381.588 173.573 381.536 173.206 381.56 172.84C381.544 172.449 381.627 172.061 381.802 171.711C381.977 171.361 382.238 171.061 382.56 170.84C383.405 170.319 384.389 170.068 385.38 170.12H387.15V169.23C387.162 169.001 387.125 168.772 387.042 168.559C386.96 168.345 386.833 168.151 386.67 167.99C386.485 167.828 386.269 167.703 386.036 167.624C385.803 167.545 385.556 167.513 385.31 167.53C384.849 167.507 384.396 167.649 384.03 167.93C383.874 168.045 383.747 168.196 383.662 168.37C383.577 168.544 383.535 168.736 383.54 168.93H382C381.996 168.581 382.077 168.235 382.238 167.925C382.398 167.615 382.632 167.348 382.92 167.15C383.629 166.588 384.516 166.301 385.42 166.34C386.303 166.291 387.174 166.565 387.87 167.11C388.185 167.386 388.433 167.73 388.594 168.117C388.755 168.504 388.826 168.922 388.8 169.34V173.65C388.801 173.957 388.818 174.264 388.85 174.57C388.88 174.869 388.94 175.163 389.03 175.45L387.36 175.38ZM384.66 174.19C385.224 174.199 385.778 174.039 386.25 173.73C386.662 173.509 386.989 173.157 387.18 172.73V171.28H385.35C384.785 171.25 384.228 171.424 383.78 171.77C383.598 171.906 383.45 172.083 383.347 172.286C383.245 172.489 383.191 172.713 383.19 172.94C383.18 173.114 383.208 173.288 383.272 173.45C383.336 173.613 383.434 173.759 383.56 173.88C383.874 174.119 384.267 174.23 384.66 174.19V174.19Z" fill="black"/>
<path d="M392.94 175.38H391.31V162.48H392.94V175.38Z" fill="black"/>
<path d="M397.71 164.27V166.43H399.4V167.64H397.71V173.07C397.692 173.228 397.706 173.388 397.75 173.541C397.795 173.694 397.87 173.836 397.97 173.96C398.062 174.046 398.171 174.113 398.289 174.156C398.408 174.199 398.534 174.217 398.66 174.21H398.97C399.068 174.19 399.165 174.163 399.26 174.13L399.49 175.24C399.331 175.362 399.146 175.448 398.95 175.49C398.721 175.549 398.486 175.579 398.25 175.58C397.959 175.595 397.669 175.549 397.397 175.446C397.125 175.343 396.877 175.184 396.67 174.98C396.452 174.721 396.288 174.422 396.187 174.099C396.086 173.776 396.049 173.437 396.08 173.1V167.67H394.66V166.46H396.08V164.3L397.71 164.27Z" fill="black"/>
<path d="M402.78 167.63C403.077 167.213 403.467 166.87 403.92 166.63C404.378 166.386 404.891 166.262 405.41 166.27C405.822 166.245 406.234 166.308 406.619 166.457C407.004 166.605 407.352 166.835 407.64 167.13C408.227 167.879 408.509 168.822 408.43 169.77V175.38H406.81V169.76C406.858 169.173 406.687 168.588 406.33 168.12C406.145 167.935 405.922 167.792 405.677 167.701C405.432 167.61 405.171 167.572 404.91 167.59C404.472 167.575 404.038 167.675 403.65 167.88C403.296 168.063 402.996 168.335 402.78 168.67V175.38H401.15V162.48H402.78V167.63Z" fill="black"/>
<path d="M414.6 170.82C414.554 169.635 414.938 168.474 415.68 167.55C416.054 167.147 416.508 166.826 417.012 166.606C417.516 166.386 418.06 166.273 418.61 166.273C419.16 166.273 419.704 166.386 420.208 166.606C420.712 166.826 421.166 167.147 421.54 167.55C422.286 168.473 422.669 169.635 422.62 170.82V171C422.669 172.185 422.286 173.347 421.54 174.27C421.183 174.691 420.734 175.024 420.228 175.244C419.721 175.465 419.172 175.566 418.62 175.54C418.066 175.566 417.513 175.465 417.003 175.245C416.494 175.025 416.041 174.691 415.68 174.27C414.938 173.346 414.554 172.185 414.6 171V170.82ZM416.23 171.01C416.197 171.832 416.406 172.645 416.83 173.35C417.03 173.637 417.296 173.871 417.606 174.033C417.916 174.194 418.261 174.279 418.61 174.279C418.96 174.279 419.304 174.194 419.614 174.033C419.924 173.871 420.19 173.637 420.39 173.35C420.82 172.644 421.032 171.826 421 171V170.81C421.031 169.987 420.818 169.173 420.39 168.47C420.191 168.183 419.926 167.949 419.617 167.787C419.308 167.625 418.964 167.541 418.615 167.541C418.266 167.541 417.922 167.625 417.613 167.787C417.304 167.949 417.039 168.183 416.84 168.47C416.42 169.176 416.211 169.989 416.24 170.81L416.23 171.01Z" fill="black"/>
<path d="M428.85 167.87L428.01 167.82C427.623 167.806 427.242 167.915 426.92 168.13C426.618 168.348 426.382 168.646 426.24 168.99V175.38H424.61V166.43H426.07L426.22 167.74C426.446 167.312 426.767 166.943 427.16 166.66C427.538 166.398 427.99 166.261 428.45 166.27C428.566 166.26 428.683 166.26 428.8 166.27C428.892 166.281 428.982 166.301 429.07 166.33L428.85 167.87Z" fill="black"/>
<path d="M440 173C440.005 172.833 439.971 172.667 439.899 172.516C439.828 172.365 439.722 172.232 439.59 172.13C439.123 171.82 438.594 171.615 438.04 171.53C437.176 171.384 436.352 171.061 435.62 170.58C435.351 170.401 435.132 170.156 434.984 169.87C434.835 169.583 434.761 169.263 434.77 168.94C434.773 168.578 434.858 168.222 435.019 167.898C435.18 167.573 435.413 167.29 435.7 167.07C436.387 166.536 437.241 166.263 438.11 166.3C439.003 166.258 439.88 166.551 440.57 167.12C440.86 167.349 441.093 167.643 441.249 167.978C441.405 168.313 441.481 168.68 441.47 169.05H439.91C439.899 168.858 439.849 168.671 439.763 168.499C439.677 168.327 439.557 168.174 439.41 168.05C439.057 167.733 438.595 167.564 438.12 167.58C437.657 167.546 437.197 167.685 436.83 167.97C436.698 168.084 436.593 168.226 436.52 168.384C436.448 168.543 436.41 168.716 436.41 168.89C436.403 169.046 436.433 169.202 436.498 169.344C436.562 169.486 436.659 169.612 436.78 169.71C437.241 169.989 437.756 170.169 438.29 170.24C439.186 170.39 440.038 170.731 440.79 171.24C441.056 171.427 441.272 171.676 441.42 171.965C441.568 172.254 441.644 172.575 441.64 172.9C441.642 173.28 441.552 173.655 441.378 173.993C441.204 174.33 440.951 174.621 440.64 174.84C439.859 175.348 438.944 175.609 438.013 175.589C437.082 175.569 436.179 175.27 435.42 174.73C435.123 174.489 434.885 174.184 434.724 173.838C434.562 173.491 434.482 173.112 434.49 172.73V172.73H436C435.994 172.979 436.051 173.226 436.164 173.447C436.278 173.669 436.445 173.859 436.65 174C437.068 174.274 437.56 174.413 438.06 174.4C438.542 174.429 439.02 174.299 439.42 174.03C439.604 173.93 439.756 173.781 439.859 173.599C439.961 173.416 440.01 173.209 440 173V173Z" fill="black"/>
<path d="M443.23 170.82C443.189 169.638 443.568 168.479 444.3 167.55C444.674 167.147 445.128 166.826 445.632 166.606C446.136 166.386 446.68 166.273 447.23 166.273C447.78 166.273 448.324 166.386 448.828 166.606C449.332 166.826 449.786 167.147 450.16 167.55C450.905 168.473 451.289 169.635 451.24 170.82V171C451.288 172.183 450.908 173.344 450.17 174.27C449.796 174.673 449.342 174.994 448.838 175.214C448.334 175.434 447.79 175.547 447.24 175.547C446.69 175.547 446.146 175.434 445.642 175.214C445.138 174.994 444.684 174.673 444.31 174.27C443.568 173.346 443.184 172.185 443.23 171V170.82ZM444.86 171.01C444.827 171.832 445.036 172.645 445.46 173.35C445.659 173.637 445.924 173.871 446.233 174.033C446.542 174.195 446.886 174.279 447.235 174.279C447.584 174.279 447.928 174.195 448.237 174.033C448.546 173.871 448.811 173.637 449.01 173.35C449.434 172.645 449.643 171.832 449.61 171.01V170.82C449.64 169.997 449.428 169.183 449 168.48C448.802 168.193 448.538 167.959 448.23 167.797C447.921 167.635 447.578 167.55 447.23 167.55C446.882 167.55 446.539 167.635 446.23 167.797C445.922 167.959 445.658 168.193 445.46 168.48C445.039 169.186 444.831 169.999 444.86 170.82V171.01Z" fill="black"/>
<path d="M456.79 174.28C457.276 174.279 457.745 174.102 458.11 173.78C458.288 173.629 458.431 173.44 458.527 173.227C458.624 173.015 458.673 172.784 458.67 172.55H460.14C460.143 172.947 460.055 173.34 459.881 173.697C459.708 174.054 459.454 174.367 459.14 174.61C458.382 175.248 457.404 175.564 456.416 175.491C455.428 175.418 454.507 174.962 453.85 174.22C453.161 173.303 452.808 172.177 452.85 171.03V170.68C452.81 169.537 453.163 168.414 453.85 167.5C454.202 167.075 454.648 166.737 455.153 166.515C455.659 166.293 456.209 166.192 456.76 166.22C457.209 166.203 457.657 166.275 458.078 166.433C458.498 166.591 458.883 166.831 459.21 167.14C459.518 167.433 459.76 167.787 459.92 168.18C460.08 168.573 460.155 168.996 460.14 169.42V169.47H458.66C458.671 168.952 458.481 168.45 458.13 168.07C457.958 167.885 457.749 167.738 457.517 167.64C457.284 167.541 457.033 167.494 456.78 167.5C456.431 167.478 456.082 167.553 455.773 167.717C455.464 167.881 455.207 168.128 455.03 168.43C454.65 169.118 454.46 169.894 454.48 170.68V171.03C454.453 171.821 454.64 172.606 455.02 173.3C455.192 173.614 455.45 173.873 455.763 174.047C456.076 174.22 456.433 174.301 456.79 174.28V174.28Z" fill="black"/>
<path d="M463.86 164.14H462.23V162.48H463.86V164.14ZM463.86 175.38H462.23V166.43H463.86V175.38Z" fill="black"/>
<path d="M471.87 175.38C471.81 175.11 471.77 174.87 471.74 174.66C471.708 174.455 471.691 174.248 471.69 174.04C471.373 174.479 470.968 174.847 470.5 175.12C470.023 175.407 469.476 175.556 468.92 175.55C468.536 175.578 468.15 175.53 467.784 175.408C467.418 175.286 467.081 175.093 466.79 174.84C466.538 174.575 466.343 174.26 466.217 173.916C466.091 173.572 466.038 173.206 466.06 172.84C466.045 172.449 466.128 172.061 466.303 171.712C466.478 171.362 466.738 171.062 467.06 170.84C467.905 170.318 468.889 170.067 469.88 170.12H471.65V169.23C471.662 169.001 471.625 168.772 471.542 168.559C471.459 168.345 471.333 168.151 471.17 167.99C470.795 167.663 470.306 167.497 469.81 167.53C469.349 167.505 468.895 167.647 468.53 167.93C468.372 168.043 468.244 168.193 468.158 168.368C468.073 168.543 468.032 168.736 468.04 168.93H466.49C466.484 168.581 466.563 168.236 466.722 167.926C466.881 167.615 467.114 167.349 467.4 167.15C468.113 166.589 469.003 166.302 469.91 166.34C470.793 166.293 471.663 166.567 472.36 167.11C472.673 167.387 472.919 167.732 473.079 168.118C473.238 168.505 473.307 168.923 473.28 169.34V173.65C473.281 173.957 473.298 174.264 473.33 174.57C473.368 174.868 473.432 175.163 473.52 175.45L471.87 175.38ZM469.16 174.19C469.727 174.199 470.284 174.039 470.76 173.73C471.167 173.503 471.493 173.153 471.69 172.73V171.28H469.86C469.292 171.25 468.732 171.424 468.28 171.77C468.1 171.908 467.953 172.084 467.85 172.287C467.748 172.49 467.693 172.713 467.69 172.94C467.682 173.114 467.711 173.287 467.775 173.449C467.839 173.611 467.936 173.758 468.06 173.88C468.375 174.117 468.768 174.228 469.16 174.19Z" fill="black"/>
<path d="M477.44 175.38H475.81V162.48H477.44V175.38Z" fill="black"/>
<path d="M489.36 173C489.363 172.833 489.327 172.668 489.256 172.517C489.185 172.367 489.08 172.234 488.95 172.13C488.483 171.82 487.954 171.615 487.4 171.53C486.534 171.382 485.707 171.059 484.97 170.58C484.703 170.399 484.485 170.155 484.336 169.868C484.188 169.582 484.113 169.263 484.12 168.94C484.123 168.578 484.208 168.222 484.369 167.898C484.53 167.573 484.763 167.29 485.05 167.07C485.74 166.535 486.598 166.262 487.47 166.3C488.364 166.258 489.24 166.551 489.93 167.12C490.22 167.349 490.453 167.643 490.609 167.978C490.765 168.313 490.841 168.68 490.83 169.05H489.28C489.269 168.857 489.218 168.668 489.131 168.496C489.043 168.324 488.92 168.172 488.77 168.05C488.408 167.76 487.962 167.595 487.498 167.581C487.035 167.567 486.579 167.703 486.2 167.97C486.067 168.084 485.96 168.225 485.886 168.384C485.812 168.542 485.772 168.715 485.77 168.89C485.763 169.046 485.793 169.202 485.858 169.344C485.922 169.486 486.019 169.612 486.14 169.71C486.606 169.988 487.123 170.168 487.66 170.24C488.556 170.39 489.408 170.731 490.16 171.24C490.426 171.427 490.642 171.676 490.79 171.965C490.939 172.254 491.014 172.575 491.01 172.9C491.012 173.28 490.922 173.655 490.748 173.993C490.574 174.33 490.321 174.621 490.01 174.84C489.229 175.348 488.314 175.609 487.383 175.589C486.452 175.569 485.549 175.27 484.79 174.73C484.49 174.493 484.249 174.188 484.087 173.841C483.926 173.493 483.848 173.113 483.86 172.73V172.73H485.42C485.415 172.978 485.471 173.223 485.582 173.444C485.694 173.666 485.858 173.857 486.06 174C486.483 174.273 486.977 174.412 487.48 174.4C487.962 174.429 488.44 174.299 488.84 174.03C489.013 173.922 489.153 173.77 489.244 173.588C489.336 173.406 489.376 173.203 489.36 173V173Z" fill="black"/>
<path d="M496.72 175.55C496.16 175.579 495.601 175.484 495.082 175.271C494.564 175.058 494.098 174.734 493.72 174.32C492.969 173.412 492.584 172.257 492.64 171.08V170.72C492.6 169.554 493 168.415 493.76 167.53C494.089 167.131 494.504 166.811 494.973 166.593C495.441 166.375 495.953 166.265 496.47 166.27C496.975 166.233 497.482 166.314 497.951 166.507C498.419 166.7 498.837 166.998 499.17 167.38C499.803 168.248 500.117 169.307 500.06 170.38V171.24H494.34C494.301 172.014 494.508 172.78 494.93 173.43C495.138 173.712 495.414 173.937 495.732 174.084C496.05 174.231 496.401 174.295 496.75 174.27C497.244 174.28 497.736 174.199 498.2 174.03C498.597 173.892 498.961 173.674 499.27 173.39L499.91 174.39C499.54 174.731 499.109 174.999 498.64 175.18C498.03 175.427 497.378 175.553 496.72 175.55ZM496.46 167.55C496.191 167.547 495.924 167.604 495.68 167.719C495.435 167.833 495.22 168.001 495.05 168.21C494.66 168.689 494.423 169.274 494.37 169.89V169.89H498.37V169.76C498.393 169.185 498.225 168.618 497.89 168.15C497.715 167.945 497.495 167.784 497.247 167.68C496.998 167.575 496.729 167.531 496.46 167.55Z" fill="black"/>
<path d="M506.12 167.87L505.28 167.82C504.893 167.806 504.512 167.915 504.19 168.13C503.888 168.348 503.652 168.646 503.51 168.99V175.38H501.88V166.43H503.34L503.49 167.74C503.716 167.312 504.037 166.943 504.43 166.66C504.808 166.398 505.26 166.261 505.72 166.27C505.836 166.26 505.953 166.26 506.07 166.27C506.162 166.281 506.252 166.301 506.34 166.33L506.12 167.87Z" fill="black"/>
<path d="M510.94 172.74L511.09 173.37L511.25 172.74L513.31 166.43H515L511.71 175.38H510.48L507.15 166.43H508.82L510.94 172.74Z" fill="black"/>
<path d="M518.24 164.14H516.61V162.48H518.24V164.14ZM518.24 175.38H516.61V166.43H518.24V175.38Z" fill="black"/>
<path d="M524.3 174.28C524.786 174.279 525.255 174.102 525.62 173.78C525.798 173.629 525.94 173.44 526.037 173.227C526.134 173.015 526.183 172.784 526.18 172.55H527.65C527.653 172.947 527.564 173.34 527.391 173.697C527.218 174.054 526.964 174.367 526.65 174.61C525.891 175.248 524.914 175.564 523.926 175.491C522.937 175.418 522.017 174.962 521.36 174.22C520.67 173.303 520.317 172.177 520.36 171.03V170.68C520.32 169.537 520.673 168.414 521.36 167.5C521.712 167.075 522.158 166.737 522.663 166.515C523.168 166.293 523.719 166.192 524.27 166.22C524.719 166.203 525.167 166.275 525.588 166.433C526.008 166.591 526.393 166.831 526.72 167.14C527.027 167.433 527.269 167.787 527.43 168.18C527.59 168.573 527.665 168.996 527.65 169.42V169.47H526.17C526.181 168.952 525.991 168.45 525.64 168.07C525.468 167.885 525.259 167.738 525.026 167.64C524.794 167.541 524.542 167.494 524.29 167.5C523.941 167.478 523.592 167.553 523.283 167.717C522.974 167.881 522.717 168.128 522.54 168.43C522.159 169.118 521.969 169.894 521.99 170.68V171.03C521.963 171.821 522.149 172.606 522.53 173.3C522.702 173.614 522.959 173.873 523.273 174.047C523.586 174.22 523.942 174.301 524.3 174.28V174.28Z" fill="black"/>
<path d="M533.32 175.55C532.76 175.58 532.201 175.485 531.682 175.272C531.163 175.059 530.698 174.734 530.32 174.32C529.569 173.412 529.184 172.257 529.24 171.08V170.72C529.196 169.555 529.592 168.416 530.35 167.53C530.681 167.131 531.097 166.811 531.568 166.593C532.038 166.375 532.551 166.265 533.07 166.27C533.574 166.233 534.079 166.314 534.546 166.507C535.013 166.7 535.429 166.999 535.76 167.38C536.401 168.244 536.719 169.306 536.66 170.38V171.24H530.94C530.904 172.015 531.114 172.781 531.54 173.43C531.747 173.713 532.023 173.938 532.342 174.085C532.66 174.232 533.01 174.296 533.36 174.27C533.854 174.28 534.346 174.199 534.81 174.03C535.204 173.887 535.568 173.67 535.88 173.39L536.52 174.39C536.149 174.729 535.718 174.997 535.25 175.18C534.637 175.428 533.981 175.554 533.32 175.55ZM533.06 167.55C532.79 167.544 532.523 167.601 532.278 167.716C532.034 167.83 531.819 167.999 531.65 168.21C531.26 168.689 531.023 169.274 530.97 169.89H534.97V169.76C534.993 169.185 534.824 168.618 534.49 168.15C534.315 167.945 534.095 167.784 533.846 167.68C533.598 167.575 533.329 167.531 533.06 167.55V167.55Z" fill="black"/>
<path d="M543.68 173C543.683 172.833 543.647 172.668 543.576 172.517C543.505 172.366 543.4 172.234 543.27 172.13C542.803 171.82 542.274 171.615 541.72 171.53C540.854 171.382 540.027 171.059 539.29 170.58C539.022 170.399 538.805 170.155 538.656 169.868C538.508 169.582 538.433 169.263 538.44 168.94C538.443 168.578 538.528 168.222 538.689 167.898C538.85 167.573 539.083 167.29 539.37 167.07C540.057 166.537 540.911 166.264 541.78 166.3C542.677 166.257 543.557 166.549 544.25 167.12C544.54 167.349 544.773 167.643 544.929 167.978C545.085 168.313 545.161 168.68 545.15 169.05H543.6C543.589 168.857 543.538 168.668 543.45 168.496C543.363 168.324 543.24 168.172 543.09 168.05C542.728 167.76 542.282 167.595 541.818 167.581C541.355 167.567 540.899 167.703 540.52 167.97C540.385 168.083 540.277 168.223 540.203 168.382C540.129 168.541 540.09 168.715 540.09 168.89C540.083 169.046 540.113 169.202 540.178 169.344C540.242 169.486 540.339 169.612 540.46 169.71C540.925 169.988 541.443 170.168 541.98 170.24C542.876 170.39 543.728 170.731 544.48 171.24C544.746 171.427 544.962 171.676 545.11 171.965C545.258 172.254 545.334 172.575 545.33 172.9C545.333 173.28 545.244 173.656 545.07 173.994C544.896 174.332 544.642 174.622 544.33 174.84C543.551 175.348 542.637 175.609 541.708 175.59C540.778 175.57 539.876 175.27 539.12 174.73C538.819 174.493 538.579 174.188 538.417 173.841C538.256 173.493 538.178 173.113 538.19 172.73V172.73H539.75C539.742 172.978 539.797 173.224 539.909 173.446C540.02 173.668 540.186 173.858 540.39 174C540.812 174.274 541.307 174.413 541.81 174.4C542.291 174.428 542.769 174.298 543.17 174.03C543.339 173.919 543.475 173.765 543.564 173.584C543.654 173.403 543.694 173.201 543.68 173Z" fill="black"/>
<path d="M344.29 195.71C344.243 195.437 344.203 195.197 344.17 194.99C344.17 194.78 344.12 194.58 344.11 194.37C343.797 194.809 343.395 195.177 342.93 195.45C342.451 195.73 341.905 195.878 341.35 195.88C340.965 195.907 340.579 195.857 340.213 195.733C339.847 195.61 339.51 195.415 339.22 195.16C338.964 194.897 338.767 194.583 338.641 194.238C338.515 193.893 338.464 193.526 338.49 193.16C338.474 192.769 338.557 192.381 338.732 192.031C338.907 191.681 339.168 191.381 339.49 191.16C340.328 190.631 341.31 190.376 342.3 190.43H344.07V189.55C344.082 189.32 344.045 189.089 343.963 188.874C343.88 188.659 343.753 188.463 343.59 188.3C343.217 187.977 342.733 187.812 342.24 187.84C341.78 187.822 341.328 187.963 340.96 188.24C340.809 188.349 340.687 188.491 340.601 188.656C340.516 188.821 340.471 189.004 340.47 189.19H338.92V189.14C338.918 188.789 339 188.444 339.16 188.132C339.32 187.82 339.554 187.552 339.84 187.35C340.552 186.787 341.443 186.5 342.35 186.54C343.232 186.499 344.1 186.772 344.8 187.31C345.112 187.588 345.356 187.933 345.516 188.32C345.675 188.706 345.745 189.123 345.72 189.54V193.85C345.72 194.17 345.72 194.48 345.77 194.78C345.805 195.078 345.865 195.372 345.95 195.66L344.29 195.71ZM341.59 194.51C342.155 194.514 342.71 194.358 343.19 194.06C343.597 193.835 343.92 193.484 344.11 193.06V191.6H342.29C341.72 191.571 341.159 191.749 340.71 192.1C340.53 192.236 340.384 192.411 340.282 192.612C340.18 192.813 340.124 193.035 340.12 193.26C340.11 193.436 340.138 193.611 340.202 193.775C340.266 193.939 340.364 194.087 340.49 194.21C340.807 194.443 341.199 194.55 341.59 194.51V194.51Z" fill="black"/>
<path d="M349.56 186.76L349.68 188.09C349.961 187.642 350.345 187.268 350.8 187C351.266 186.736 351.794 186.601 352.33 186.61C352.742 186.583 353.156 186.644 353.542 186.791C353.929 186.938 354.279 187.166 354.57 187.46C355.16 188.2 355.446 189.137 355.37 190.08V195.73H353.74V190.11C353.797 189.511 353.629 188.912 353.27 188.43C353.081 188.252 352.857 188.116 352.613 188.03C352.368 187.944 352.108 187.91 351.85 187.93C351.403 187.918 350.962 188.025 350.57 188.24C350.221 188.437 349.933 188.728 349.74 189.08V195.73H348.11V186.73L349.56 186.76Z" fill="black"/>
<path d="M357.36 191.4C357.301 190.17 357.622 188.951 358.28 187.91C358.564 187.488 358.951 187.146 359.404 186.915C359.857 186.684 360.362 186.572 360.87 186.59C361.349 186.582 361.824 186.681 362.26 186.88C362.653 187.081 362.995 187.368 363.26 187.72V182.8H364.89V195.71H363.64L363.39 194.57C363.122 194.991 362.75 195.335 362.31 195.57C361.843 195.798 361.329 195.911 360.81 195.9C360.319 195.921 359.83 195.824 359.385 195.617C358.94 195.41 358.55 195.099 358.25 194.71C357.594 193.806 357.266 192.705 357.32 191.59L357.36 191.4ZM358.99 191.57C358.954 192.333 359.149 193.09 359.55 193.74C359.741 194.014 360 194.233 360.302 194.377C360.603 194.521 360.937 194.584 361.27 194.56C361.7 194.574 362.125 194.459 362.49 194.23C362.832 193.991 363.11 193.672 363.3 193.3V189.12C363.103 188.767 362.826 188.465 362.49 188.24C362.128 188.013 361.707 187.898 361.28 187.91C360.926 187.896 360.576 187.983 360.27 188.16C359.964 188.337 359.714 188.597 359.55 188.91C359.149 189.687 358.956 190.556 358.99 191.43V191.57Z" fill="black"/>
<path d="M373.33 184.47H371.7V182.8H373.33V184.47ZM373.33 195.71H371.7V186.71H373.33V195.71Z" fill="black"/>
<path d="M377.29 186.76L377.41 188.09C377.688 187.635 378.073 187.254 378.53 186.98C378.996 186.716 379.524 186.581 380.06 186.59C380.474 186.564 380.889 186.626 381.277 186.773C381.665 186.919 382.017 187.147 382.31 187.44C382.893 188.183 383.175 189.118 383.1 190.06V195.71H381.47V190.09C381.527 189.491 381.359 188.893 381 188.41C380.811 188.232 380.587 188.096 380.343 188.01C380.098 187.924 379.839 187.89 379.58 187.91C379.134 187.899 378.692 188.005 378.3 188.22C377.951 188.417 377.663 188.708 377.47 189.06V195.71H375.84V186.71L377.29 186.76Z" fill="black"/>
<path d="M386.14 195.71V188H384.75V186.8H386.14V185.66C386.089 184.853 386.359 184.059 386.89 183.45C387.165 183.182 387.493 182.975 387.853 182.84C388.213 182.706 388.597 182.648 388.98 182.67C389.171 182.672 389.362 182.688 389.55 182.72L390.18 182.84L390 184H389.64C389.494 183.99 389.346 183.99 389.2 184C389.002 183.983 388.803 184.013 388.618 184.088C388.434 184.163 388.27 184.28 388.14 184.43C387.885 184.787 387.761 185.222 387.79 185.66V186.8H389.41V188H387.79V195.75L386.14 195.71Z" fill="black"/>
<path d="M390.66 191.15C390.619 189.968 390.998 188.809 391.73 187.88C392.085 187.455 392.533 187.118 393.04 186.895C393.546 186.671 394.097 186.567 394.65 186.59C395.205 186.565 395.759 186.668 396.268 186.89C396.778 187.112 397.23 187.447 397.59 187.87C398.334 188.797 398.717 189.962 398.67 191.15V191.33C398.714 192.516 398.335 193.678 397.6 194.61C397.239 195.029 396.788 195.36 396.28 195.58C395.773 195.8 395.223 195.903 394.67 195.88C394.116 195.904 393.564 195.802 393.056 195.58C392.549 195.358 392.098 195.023 391.74 194.6C390.995 193.677 390.611 192.515 390.66 191.33V191.15ZM392.29 191.33C392.257 192.155 392.466 192.972 392.89 193.68C393.089 193.967 393.354 194.201 393.663 194.363C393.972 194.525 394.316 194.609 394.665 194.609C395.014 194.609 395.358 194.525 395.667 194.363C395.976 194.201 396.241 193.967 396.44 193.68C396.864 192.972 397.073 192.155 397.04 191.33V191.15C397.073 190.327 396.861 189.512 396.43 188.81C396.243 188.51 395.98 188.265 395.667 188.1C395.354 187.935 395.003 187.855 394.65 187.87C394.3 187.859 393.953 187.94 393.644 188.105C393.336 188.27 393.075 188.513 392.89 188.81C392.467 189.515 392.259 190.328 392.29 191.15V191.33Z" fill="black"/>
<path d="M404.9 188.2H404.06C403.678 188.187 403.301 188.291 402.98 188.5C402.674 188.716 402.435 189.014 402.29 189.36V195.76H400.67V186.76H402.12L402.28 188.06C402.501 187.629 402.824 187.259 403.22 186.98C403.595 186.719 404.043 186.583 404.5 186.59C404.616 186.58 404.733 186.58 404.85 186.59L405.12 186.65L404.9 188.2Z" fill="black"/>
<path d="M408.05 186.76L408.17 187.93C408.453 187.511 408.834 187.168 409.28 186.93C409.768 186.689 410.306 186.569 410.85 186.58C411.39 186.566 411.923 186.712 412.38 187C412.845 187.287 413.198 187.724 413.38 188.24C413.647 187.747 414.032 187.328 414.5 187.02C414.987 186.722 415.549 186.57 416.12 186.58C416.528 186.561 416.935 186.636 417.309 186.799C417.684 186.962 418.016 187.209 418.28 187.52C418.866 188.338 419.146 189.336 419.07 190.34V195.7H417.4V190.33C417.462 189.671 417.303 189.01 416.95 188.45C416.78 188.261 416.569 188.114 416.333 188.019C416.098 187.923 415.844 187.883 415.59 187.9C415.337 187.894 415.085 187.942 414.852 188.042C414.619 188.143 414.41 188.292 414.24 188.48C413.887 188.893 413.673 189.408 413.63 189.95V195.7H412V190.33C412.051 189.682 411.886 189.034 411.53 188.49C411.367 188.293 411.16 188.136 410.926 188.034C410.691 187.931 410.436 187.885 410.18 187.9C409.752 187.886 409.329 187.994 408.96 188.21C408.636 188.419 408.379 188.718 408.22 189.07V195.7H406.59V186.7L408.05 186.76Z" fill="black"/>
<path d="M426.9 195.71C426.84 195.44 426.8 195.2 426.77 194.99C426.755 194.784 426.755 194.576 426.77 194.37C426.453 194.809 426.048 195.177 425.58 195.45C425.101 195.731 424.556 195.88 424 195.88C423.615 195.907 423.229 195.857 422.863 195.733C422.497 195.61 422.16 195.415 421.87 195.16C421.616 194.896 421.42 194.581 421.295 194.237C421.169 193.892 421.116 193.526 421.14 193.16C421.124 192.769 421.207 192.381 421.382 192.031C421.557 191.681 421.818 191.381 422.14 191.16C422.982 190.63 423.967 190.375 424.96 190.43H426.73V189.55C426.742 189.32 426.705 189.089 426.623 188.874C426.54 188.659 426.413 188.463 426.25 188.3C425.874 187.976 425.386 187.811 424.89 187.84C424.43 187.822 423.978 187.963 423.61 188.24C423.459 188.349 423.336 188.491 423.251 188.656C423.166 188.821 423.121 189.004 423.12 189.19H421.57V189.14C421.563 188.79 421.642 188.443 421.801 188.131C421.96 187.819 422.193 187.551 422.48 187.35C423.193 186.789 424.084 186.502 424.99 186.54C425.872 186.498 426.741 186.771 427.44 187.31C427.755 187.586 428.003 187.93 428.164 188.317C428.325 188.704 428.396 189.122 428.37 189.54V193.85C428.35 194.16 428.35 194.47 428.37 194.78C428.4 195.079 428.46 195.373 428.55 195.66L426.9 195.71ZM424.19 194.51C424.756 194.518 425.311 194.361 425.79 194.06C426.197 193.833 426.523 193.483 426.72 193.06V191.6H424.89C424.321 191.573 423.76 191.75 423.31 192.1C423.13 192.236 422.984 192.411 422.882 192.612C422.78 192.813 422.724 193.035 422.72 193.26C422.712 193.435 422.741 193.61 422.805 193.774C422.868 193.938 422.966 194.086 423.09 194.21C423.407 194.443 423.799 194.55 424.19 194.51V194.51Z" fill="black"/>
<path d="M433 184.6V186.76H434.69V188H433V193.44C432.982 193.597 432.995 193.755 433.04 193.907C433.085 194.058 433.16 194.198 433.26 194.32C433.351 194.408 433.46 194.476 433.578 194.52C433.697 194.565 433.823 194.585 433.95 194.58C434.053 194.593 434.157 194.593 434.26 194.58C434.359 194.563 434.456 194.536 434.55 194.5L434.78 195.62C434.618 195.735 434.434 195.816 434.24 195.86C434.013 195.927 433.777 195.96 433.54 195.96C433.249 195.975 432.959 195.929 432.687 195.826C432.415 195.723 432.167 195.564 431.96 195.36C431.743 195.101 431.579 194.801 431.478 194.479C431.376 194.156 431.34 193.817 431.37 193.48V188H429.95V186.8H431.37V184.6H433Z" fill="black"/>
<path d="M438.18 184.47H436.55V182.8H438.18V184.47ZM438.18 195.71H436.55V186.71H438.18V195.71Z" fill="black"/>
<path d="M440.3 191.15C440.254 189.965 440.638 188.804 441.38 187.88C441.735 187.455 442.183 187.118 442.69 186.895C443.196 186.671 443.747 186.567 444.3 186.59C444.855 186.565 445.408 186.668 445.918 186.89C446.427 187.112 446.88 187.447 447.24 187.87C447.984 188.797 448.367 189.962 448.32 191.15V191.33C448.369 192.518 447.985 193.683 447.24 194.61C446.866 195.013 446.412 195.334 445.908 195.554C445.404 195.774 444.86 195.887 444.31 195.887C443.76 195.887 443.216 195.774 442.712 195.554C442.208 195.334 441.754 195.013 441.38 194.61C440.634 193.687 440.251 192.525 440.3 191.34V191.15ZM441.93 191.33C441.897 192.155 442.106 192.972 442.53 193.68C442.73 193.967 442.996 194.201 443.306 194.363C443.616 194.524 443.96 194.609 444.31 194.609C444.659 194.609 445.004 194.524 445.314 194.363C445.624 194.201 445.89 193.967 446.09 193.68C446.514 192.972 446.722 192.155 446.69 191.33V191.15C446.723 190.327 446.51 189.512 446.08 188.81C445.883 188.521 445.618 188.285 445.308 188.122C444.999 187.959 444.655 187.873 444.305 187.873C443.955 187.873 443.611 187.959 443.301 188.122C442.992 188.285 442.727 188.521 442.53 188.81C442.107 189.515 441.899 190.328 441.93 191.15V191.33Z" fill="black"/>
<path d="M451.77 186.76L451.88 188.09C452.161 187.642 452.545 187.268 453 187C453.469 186.734 454.001 186.599 454.54 186.61C454.952 186.585 455.365 186.647 455.752 186.794C456.138 186.94 456.488 187.167 456.78 187.46C457.367 188.201 457.649 189.138 457.57 190.08V195.73H455.94V190.11C456 189.512 455.836 188.914 455.48 188.43C455.289 188.253 455.063 188.117 454.817 188.031C454.571 187.945 454.31 187.911 454.05 187.93C453.604 187.919 453.162 188.026 452.77 188.24C452.421 188.437 452.133 188.728 451.94 189.08V195.73H450.31V186.73L451.77 186.76Z" fill="black"/>
<path d="M240.385 124.996L126.23 10.8411L12.0744 124.996L126.23 239.152L240.385 124.996Z" fill="#E71F2E"/>
<g opacity="0.15">
<path d="M126.23 227.54L23.6899 125L126.23 22.46L228.77 125L126.23 227.54ZM26.8499 125L126.23 224.38L225.61 125L126.23 25.62L26.8499 125ZM126.23 214.52L91.9999 180.29L118.17 154.12L92.8099 128.75L74.8099 146.75L86.6999 158.65L91.6299 153.72L84.6299 146.72L92.7799 138.57L108.29 154.09L87.0799 175.37L57.1599 145.44L77.5999 125L57.1599 104.55L87.0799 74.63L108.32 95.88L92.8099 111.4L84.6599 103.25L91.6599 96.25L86.7299 91.32L74.7999 103.25L92.7999 121.25L118.17 95.88L91.9999 69.71L126.22 35.48L160.44 69.71L134.28 95.88L159.66 121.25L177.66 103.25L165.77 91.35L160.84 96.28L167.84 103.28L159.7 111.43L144.14 95.88L165.38 74.63L195.3 104.55L174.86 125L195.3 145.45L165.38 175.36L144.14 154.12L159.66 138.6L167.8 146.75L160.8 153.75L165.73 158.68L177.62 146.78L159.62 128.78L134.24 154.15L160.42 180.32L126.23 214.52ZM95.1699 180.29L126.23 211.35L157.29 180.29L131.11 154.12L159.66 125.58L180.83 146.75L165.77 161.82L157.67 153.72L164.67 146.72L159.67 141.72L147.32 154.07L165.39 172.15L192.14 145.4L171.69 125L192.13 104.55L165.38 77.8L147.31 95.88L159.66 108.23L164.66 103.23L157.66 96.23L165.76 88.13L180.82 103.2L159.65 124.37L131.11 95.88L157.29 69.71L126.23 38.65L95.1699 69.71L121.35 95.88L92.8099 124.42L71.6299 103.25L86.6899 88.18L94.7899 96.28L87.7899 103.28L92.7899 108.28L105.13 95.93L87.0799 77.8L60.3299 104.55L80.7699 125L60.3299 145.44L87.0799 172.2L105.15 154.12L92.8099 141.77L87.8099 146.77L94.8099 153.77L86.7099 161.87L71.6299 146.75L92.8099 125.58L121.35 154.12L95.1699 180.29ZM200.23 140.52L184.72 125L200.23 109.48L215.75 125L200.23 140.52ZM187.88 125L200.23 137.35L212.58 125L200.23 112.65L187.88 125ZM52.2299 140.52L36.7099 125L52.2299 109.48L67.7499 125L52.2299 140.52ZM39.8799 125L52.2299 137.35L64.5799 125L52.2299 112.65L39.8799 125Z" fill="white"/>
<path d="M126.23 204L102.23 180L126.23 156L150.23 180L126.23 204ZM105.39 180L126.23 200.84L147.07 180L126.23 159.15L105.39 180Z" fill="white"/>
<path d="M126.23 93.4099L102.23 69.4099L126.23 45.4099L150.23 69.4099L126.23 93.4099ZM105.39 69.4099L126.23 90.2499L147.07 69.3999L126.23 48.5599L105.39 69.4099Z" fill="white"/>
</g>
<path d="M162.36 154.22C161.23 148.94 157.46 137.78 153.36 135.99C154.99 118.65 155.54 103.42 146.93 91.83C138.32 80.24 126.33 80.61 126.33 80.61C126.33 80.61 108.24 79.44 101.7 99.88C95.5 119.27 98.7 134.52 98.99 136.03C95.7731 137.318 93.0823 139.649 91.35 142.65C89.98 144.65 90.05 154.55 90.05 154.55C90.0362 154.846 90.0883 155.141 90.2024 155.414C90.3165 155.687 90.4899 155.932 90.71 156.13C103.1 167.34 120.43 171.45 136.44 168.46C137.13 168.33 137.81 168.19 138.49 168.04C147.144 166.132 155.159 162.023 161.76 156.11C162.016 155.874 162.206 155.576 162.311 155.245C162.416 154.913 162.433 154.56 162.36 154.22ZM110.94 106.08C115.63 102.5 124.53 97.16 135.99 96.88C136.24 97.08 136.47 97.29 136.71 97.51C137.856 102.327 139.533 107.002 141.71 111.45C141.253 115.889 139.892 120.187 137.71 124.08C135 128.74 131.25 131.94 126.24 131.94C121.23 131.94 117.48 128.74 114.77 124.08C112.198 119.49 110.787 114.34 110.66 109.08C110.653 108.073 110.747 107.068 110.94 106.08V106.08ZM138.49 132.08C138.886 132.286 139.302 132.453 139.73 132.58C139.368 132.501 139.01 132.401 138.66 132.28C138.66 132.28 138.59 132.31 138.49 132.12V132.08ZM102.91 138.81C107.41 137.88 112.04 137.25 115.22 136.04C116.345 135.584 117.265 134.735 117.81 133.65L117.94 133.38C120.407 135.047 123.319 135.932 126.296 135.92C129.273 135.907 132.177 134.998 134.63 133.31V133.31C134.63 133.37 134.68 133.43 134.71 133.5C135.187 134.64 136.092 135.548 137.23 136.03C140.42 137.24 145.43 136.79 149.55 138.8C155.55 141.74 156.84 150 158.13 153.91C140.4 169.07 112.06 169.07 94.33 153.91C95.62 150.05 92.43 141 102.91 138.85V138.81Z" fill="white"/>
</g>
<defs>
<clipPath id="clip0_67_691">
<rect width="654" height="250" fill="white"/>
</clipPath>
</defs>
</svg>
