<svg id="Layer_1" data-name="Layer 1" xmlns="http://www.w3.org/2000/svg" viewBox="0 0 654 250"><defs><style>.cls-1{fill:#e2243e;stroke:#e2243e;stroke-width:2.6px;}.cls-1,.cls-6{stroke-miterlimit:10;}.cls-2{fill:#fff;}.cls-3{fill:#e2243c;}.cls-4{opacity:0.15;}.cls-5,.cls-6{fill:none;}.cls-6{stroke:#fff;stroke-linecap:round;stroke-width:2.32px;}</style></defs><polygon class="cls-1" points="13.15 125 126.77 238.62 527.81 238.62 641.43 125 527.81 11.38 126.77 11.38 13.15 125"/><path class="cls-2" d="M360.9,114.6a7,7,0,0,1-2.27-1.07l1-2.22a6.82,6.82,0,0,0,1.95,1,7.13,7.13,0,0,0,2.26.37,3.59,3.59,0,0,0,1.86-.38,1.12,1.12,0,0,0,.6-1,.94.94,0,0,0-.36-.75A2.71,2.71,0,0,0,365,110c-.37-.12-.87-.25-1.5-.4a21,21,0,0,1-2.39-.69,3.83,3.83,0,0,1-1.59-1.11,3,3,0,0,1-.67-2,3.48,3.48,0,0,1,.61-2,4,4,0,0,1,1.81-1.43,7.39,7.39,0,0,1,3-.53,9.94,9.94,0,0,1,2.38.29,7,7,0,0,1,2,.84l-.91,2.24a7.07,7.07,0,0,0-3.53-1,3.27,3.27,0,0,0-1.83.4,1.2,1.2,0,0,0-.59,1,1,1,0,0,0,.68,1,11.06,11.06,0,0,0,2.08.63,20.45,20.45,0,0,1,2.39.69,3.88,3.88,0,0,1,1.59,1.09,2.9,2.9,0,0,1,.67,2,3.47,3.47,0,0,1-.61,2,4.2,4.2,0,0,1-1.83,1.43,7.49,7.49,0,0,1-3,.52A10.5,10.5,0,0,1,360.9,114.6Z"/><path class="cls-2" d="M373.71,104.44h-4.08V102h11.11v2.4h-4.08v10.35h-3Z"/><path class="cls-2" d="M383.52,113.49a5.77,5.77,0,0,1-1.53-4.31V102h3v7c0,2.28.94,3.42,2.84,3.42a2.64,2.64,0,0,0,2.11-.83,3.87,3.87,0,0,0,.73-2.59v-7h2.91v7.14a5.81,5.81,0,0,1-1.52,4.31,6.74,6.74,0,0,1-8.5,0Z"/><path class="cls-2" d="M396.46,102h5.79a8.15,8.15,0,0,1,3.67.79,5.94,5.94,0,0,1,2.47,2.23,6.75,6.75,0,0,1,0,6.7,5.87,5.87,0,0,1-2.47,2.23,8.15,8.15,0,0,1-3.67.8h-5.79Zm5.64,10.32a4.29,4.29,0,0,0,3-1.06,4.22,4.22,0,0,0,0-5.77,4.25,4.25,0,0,0-3-1.07h-2.69v7.9Z"/><path class="cls-2" d="M421.37,112.42v2.37H411.5V102h9.63v2.37h-6.7v2.76h5.92v2.3h-5.92v3Z"/><path class="cls-2" d="M435.41,102v12.75H433l-6.36-7.74v7.74h-2.91V102h2.44l6.34,7.74V102Z"/><path class="cls-2" d="M441.07,104.44H437V102H448.1v2.4H444v10.35h-2.95Z"/><path class="cls-2" d="M450.86,114.6a7,7,0,0,1-2.27-1.07l1-2.22a6.64,6.64,0,0,0,1.94,1,7.18,7.18,0,0,0,2.26.37,3.59,3.59,0,0,0,1.86-.38,1.12,1.12,0,0,0,.6-1,1,1,0,0,0-.35-.75A2.71,2.71,0,0,0,455,110c-.38-.12-.88-.25-1.51-.4a20.8,20.8,0,0,1-2.38-.69,3.93,3.93,0,0,1-1.6-1.11,3,3,0,0,1-.66-2,3.54,3.54,0,0,1,.6-2,4,4,0,0,1,1.81-1.43,7.46,7.46,0,0,1,3-.53,10.09,10.09,0,0,1,2.39.29,7.22,7.22,0,0,1,2,.84l-.91,2.24a7.11,7.11,0,0,0-3.54-1,3.31,3.31,0,0,0-1.83.4,1.22,1.22,0,0,0-.59,1,1,1,0,0,0,.68,1,11.21,11.21,0,0,0,2.09.63,20.21,20.21,0,0,1,2.38.69,4,4,0,0,1,1.6,1.09,2.94,2.94,0,0,1,.66,2,3.47,3.47,0,0,1-.61,2,4.09,4.09,0,0,1-1.83,1.43,7.49,7.49,0,0,1-3,.52A10.56,10.56,0,0,1,450.86,114.6Z"/><path class="cls-2" d="M362.62,77.55H357v7.27h-7.81V77.55H330.54V72.16l16.31-21.94h8.4L340.13,71h9.29V64.55H357V71h5.64Z"/><path class="cls-2" d="M387.56,66.13A9.68,9.68,0,0,1,391,73.94a10.89,10.89,0,0,1-1.58,5.76,11.1,11.1,0,0,1-4.82,4.16,18.46,18.46,0,0,1-8,1.55,27.26,27.26,0,0,1-7.19-1,18.41,18.41,0,0,1-6-2.75l3.16-6.12a15.32,15.32,0,0,0,4.55,2.29,17.2,17.2,0,0,0,5.29.82,8.27,8.27,0,0,0,4.74-1.19,3.77,3.77,0,0,0,1.73-3.31,3.73,3.73,0,0,0-1.8-3.36c-1.2-.76-3.29-1.14-6.25-1.14H366l1.78-19.47h21.11v6.42H374.48l-.54,6.58h2.82Q384.07,63.22,387.56,66.13Z"/><path class="cls-2" d="M402.31,76.94a4.58,4.58,0,0,1,1.34,3.43,8.39,8.39,0,0,1-.25,2,22.75,22.75,0,0,1-1.09,3l-2.82,7.12H394.6l2.18-7.86a4.06,4.06,0,0,1-2-1.6,4.7,4.7,0,0,1-.71-2.6,4.52,4.52,0,0,1,1.36-3.43,4.71,4.71,0,0,1,3.43-1.31A4.64,4.64,0,0,1,402.31,76.94Z"/><path class="cls-2" d="M429.3,64.45a10.53,10.53,0,0,1,4.3,3.78,10.17,10.17,0,0,1,1.58,5.66A10.7,10.7,0,0,1,433.45,80a11.21,11.21,0,0,1-4.72,4,15.39,15.39,0,0,1-6.65,1.41q-7.26,0-11.37-4.45t-4.1-12.7a21.19,21.19,0,0,1,2.23-10.08A15.1,15.1,0,0,1,415,51.8a18.92,18.92,0,0,1,9.22-2.18,22.57,22.57,0,0,1,5.31.62A14.16,14.16,0,0,1,433.9,52l-3,5.88a11.36,11.36,0,0,0-6.47-1.73,9.42,9.42,0,0,0-7,2.57q-2.58,2.56-2.77,7.46,3.06-3.06,8.55-3.06A13.48,13.48,0,0,1,429.3,64.45Zm-3.48,13.6a4.71,4.71,0,0,0,1.6-3.76,4.78,4.78,0,0,0-1.6-3.78,7.13,7.13,0,0,0-8.58,0,5,5,0,0,0-.05,7.44,6.54,6.54,0,0,0,4.45,1.43A6.22,6.22,0,0,0,425.82,78.05Z"/><path class="cls-2" d="M445.27,83.29A14.3,14.3,0,0,1,440,77.13a22.29,22.29,0,0,1-1.9-9.61A22.34,22.34,0,0,1,440,57.9a14.33,14.33,0,0,1,5.27-6.15,14.84,14.84,0,0,1,15.32,0,14.33,14.33,0,0,1,5.27,6.15,22.49,22.49,0,0,1,1.9,9.62,22.44,22.44,0,0,1-1.9,9.61,14.3,14.3,0,0,1-5.27,6.16,14.9,14.9,0,0,1-15.32,0Zm12.63-7.37q1.8-2.72,1.8-8.4t-1.8-8.41a5.67,5.67,0,0,0-5-2.71A5.61,5.61,0,0,0,448,59.11q-1.8,2.73-1.8,8.41t1.8,8.4a5.62,5.62,0,0,0,4.92,2.72A5.68,5.68,0,0,0,457.9,75.92Z"/><path class="cls-2" d="M484.71,50.22v34.6h-8V56.64h-6.92V50.22Z"/><rect class="cls-3" x="46.06" y="44.15" width="161.7" height="161.7" transform="translate(125.56 -53.13) rotate(45)"/><g class="cls-4"><path class="cls-2" d="M126.91,227.71,24.2,125,126.91,22.29,229.62,125ZM27.38,125l99.53,99.53L226.44,125,126.91,25.47Zm99.53,89.66L92.63,180.38l26.21-26.21L93.43,128.75l-18,18L87.31,158.7l4.94-4.94-7-7,8.16-8.16L109,154.17,87.69,175.45l-30-30L78.2,125,57.73,104.52l30-30L109,95.83,93.43,111.37l-8.16-8.16,7-7L87.31,91.3,75.4,103.21l18,18,25.41-25.42L92.63,69.62l34.28-34.28,34.28,34.28L135,95.83l25.42,25.42,18-18L166.51,91.3l-4.94,4.94,7,7-8.16,8.16L144.85,95.83l21.27-21.28,30,30L175.61,125l20.48,20.48-30,30-21.27-21.27,15.54-15.54,8.16,8.16-7,7,4.94,4.94,11.91-11.91-18-18L135,154.17l26.22,26.21ZM95.8,180.38l31.11,31.11L158,180.38,131.8,154.17l28.59-28.59,21.21,21.21-15.09,15.08-8.11-8.11,7-7-5-5L148,154.17l18.1,18.1,26.8-26.79L172.44,125l20.48-20.48-26.8-26.79L148,95.83l12.37,12.37,5-5-7-7,8.11-8.12,15.09,15.09-21.21,21.21L131.8,95.83,158,69.62l-31.1-31.11L95.8,69.62,122,95.83,93.43,124.42,72.22,103.21,87.31,88.13l8.11,8.1-7,7,5,5L105.8,95.83,87.69,77.73,60.9,104.52,81.38,125,60.9,145.48l26.79,26.79,18.11-18.1L93.43,141.8l-5,5,7,7-8.11,8.11L72.22,146.79l21.21-21.21L122,154.17ZM201,140.54,185.49,125,201,109.46,216.57,125ZM188.66,125,201,137.37,213.4,125,201,112.63ZM52.79,140.54,37.25,125l15.54-15.54L68.33,125ZM40.42,125l12.37,12.37L65.16,125,52.79,112.63Z"/><path class="cls-2" d="M126.91,204.07l-24-24,24-24.05L151,180ZM106,180l20.88,20.88L147.78,180l-20.87-20.87Z"/><path class="cls-2" d="M126.91,93.36l-24-24,24-24.05L151,69.31ZM106,69.31l20.88,20.88,20.87-20.88L126.91,48.44Z"/></g><path class="cls-2" d="M278.58,142H277V140.3h1.62Zm0,11.22H277v-8.93h1.62Z"/><path class="cls-2" d="M282.54,144.25l.12,1.33a3.16,3.16,0,0,1,1.11-1.1,3.28,3.28,0,0,1,3.77.45,3.69,3.69,0,0,1,.8,2.61v5.64h-1.63v-5.6a2.43,2.43,0,0,0-.47-1.68,1.86,1.86,0,0,0-1.42-.5,2.45,2.45,0,0,0-1.28.31,2.23,2.23,0,0,0-.83.84v6.63h-1.62v-8.93Z"/><path class="cls-2" d="M294.25,152.08a1.87,1.87,0,0,0,1.31-.5,1.55,1.55,0,0,0,.56-1.22h1.47l0,0a2.58,2.58,0,0,1-1,2.05,3.79,3.79,0,0,1-5.29-.38,5,5,0,0,1-1-3.19v-.35a4.87,4.87,0,0,1,1-3.17,3.49,3.49,0,0,1,2.9-1.29,3.37,3.37,0,0,1,2.45.93,2.94,2.94,0,0,1,.92,2.27l0,.05h-1.48a1.93,1.93,0,0,0-.53-1.39,1.72,1.72,0,0,0-1.34-.58,1.89,1.89,0,0,0-1.75.93,4.41,4.41,0,0,0-.55,2.25v.35a4.44,4.44,0,0,0,.54,2.27A1.87,1.87,0,0,0,294.25,152.08Z"/><path class="cls-2" d="M301.31,153.18h-1.63V140.3h1.63Z"/><path class="cls-2" d="M309.48,151.86A3,3,0,0,1,308.4,153a3,3,0,0,1-1.53.39,2.9,2.9,0,0,1-2.28-.94,4.35,4.35,0,0,1-.81-2.9v-5.27h1.62v5.28a3.25,3.25,0,0,0,.43,2,1.54,1.54,0,0,0,1.31.53,2.61,2.61,0,0,0,1.43-.35,2.2,2.2,0,0,0,.86-1v-6.44h1.62v8.93h-1.46Z"/><path class="cls-2" d="M313.05,148.88a6,6,0,0,1,.92-3.48,3,3,0,0,1,2.58-1.32,3.23,3.23,0,0,1,1.39.29,2.91,2.91,0,0,1,1,.84V140.3h1.63v12.88h-1.25l-.25-1.13a2.89,2.89,0,0,1-1.08,1,3.25,3.25,0,0,1-1.5.33,3.07,3.07,0,0,1-2.56-1.19,5,5,0,0,1-.92-3.12Zm1.63.17a3.77,3.77,0,0,0,.55,2.17A1.94,1.94,0,0,0,317,152a2.16,2.16,0,0,0,1.22-.33,2.43,2.43,0,0,0,.81-.92v-4.17a2.55,2.55,0,0,0-.81-.88,2.17,2.17,0,0,0-1.21-.33,1.88,1.88,0,0,0-1.73,1,5,5,0,0,0-.55,2.51Z"/><path class="cls-2" d="M324.79,142h-1.62V140.3h1.62Zm0,11.22h-1.62v-8.93h1.62Z"/><path class="cls-2" d="M328.75,144.25l.11,1.33a3.18,3.18,0,0,1,1.12-1.1,3.27,3.27,0,0,1,3.77.45,3.69,3.69,0,0,1,.79,2.61v5.64h-1.62v-5.6a2.43,2.43,0,0,0-.47-1.68,1.87,1.87,0,0,0-1.42-.5,2.43,2.43,0,0,0-1.28.31,2.16,2.16,0,0,0-.83.84v6.63h-1.63v-8.93Z"/><path class="cls-2" d="M336.62,148.88a5.92,5.92,0,0,1,.92-3.48,3,3,0,0,1,2.57-1.32,3.09,3.09,0,0,1,1.49.35,3,3,0,0,1,1.09,1l.19-1.16h1.3v9a3.39,3.39,0,0,1-1,2.64,4.13,4.13,0,0,1-2.88.92,6,6,0,0,1-1.39-.18,5.67,5.67,0,0,1-1.32-.48l.25-1.26a4.79,4.79,0,0,0,1.13.4,6,6,0,0,0,1.31.15,2.36,2.36,0,0,0,1.73-.54,2.25,2.25,0,0,0,.54-1.65v-1a3,3,0,0,1-1.05.85,3.25,3.25,0,0,1-1.41.29,3,3,0,0,1-2.55-1.19,4.91,4.91,0,0,1-.92-3.12Zm1.62.17a3.82,3.82,0,0,0,.56,2.17,1.92,1.92,0,0,0,1.71.81,2.17,2.17,0,0,0,1.23-.33,2.5,2.5,0,0,0,.81-.94v-4.12a2.53,2.53,0,0,0-.81-.9,2.19,2.19,0,0,0-1.22-.34,1.87,1.87,0,0,0-1.72,1,5,5,0,0,0-.56,2.51Z"/><path class="cls-2" d="M358.24,153.18h-7.46v-1.11l3.77-4.5a11.81,11.81,0,0,0,1.37-1.95,3.2,3.2,0,0,0,.36-1.45,2,2,0,0,0-.49-1.37,1.72,1.72,0,0,0-1.35-.53,2,2,0,0,0-1.62.65,2.43,2.43,0,0,0-.56,1.63H350.7l0-.05a3.24,3.24,0,0,1,1-2.49,3.76,3.76,0,0,1,2.78-1,3.48,3.48,0,0,1,2.54.89,3,3,0,0,1,.92,2.3,3.66,3.66,0,0,1-.52,1.86,19.54,19.54,0,0,1-1.6,2.28l-3,3.55,0,0h5.47Z"/><path class="cls-2" d="M367.4,144.23a2.74,2.74,0,0,1-.53,1.66,3.27,3.27,0,0,1-1.4,1.07,3.44,3.44,0,0,1,1.64,1.13,2.8,2.8,0,0,1,.62,1.79,3.18,3.18,0,0,1-1.08,2.57,4.13,4.13,0,0,1-2.74.91,4.48,4.48,0,0,1-2.89-.91,3.11,3.11,0,0,1-1.12-2.57,2.76,2.76,0,0,1,.63-1.79,3.6,3.6,0,0,1,1.71-1.14,3.14,3.14,0,0,1-1.46-1.06,2.69,2.69,0,0,1-.54-1.66,3,3,0,0,1,1-2.41,4,4,0,0,1,2.64-.83,3.81,3.81,0,0,1,2.52.83A3,3,0,0,1,367.4,144.23Zm-1.29,5.62a2.16,2.16,0,0,0-.64-1.62,2.13,2.13,0,0,0-1.58-.64,2.32,2.32,0,0,0-1.69.64,2.31,2.31,0,0,0,0,3.24,2.45,2.45,0,0,0,1.72.61,2.12,2.12,0,0,0,2.2-2.23Zm-.34-5.59a2,2,0,0,0-.54-1.43,1.77,1.77,0,0,0-1.34-.56,2,2,0,0,0-1.45.54,1.9,1.9,0,0,0-.57,1.45,2,2,0,0,0,2,2.05,1.74,1.74,0,0,0,1.33-.57A2.05,2.05,0,0,0,365.77,144.26Z"/><path class="cls-2" d="M376.92,144.23a2.74,2.74,0,0,1-.53,1.66A3.27,3.27,0,0,1,375,147a3.44,3.44,0,0,1,1.64,1.13,2.8,2.8,0,0,1,.62,1.79,3.18,3.18,0,0,1-1.08,2.57,4.13,4.13,0,0,1-2.74.91,4.48,4.48,0,0,1-2.89-.91,3.14,3.14,0,0,1-1.12-2.57,2.76,2.76,0,0,1,.63-1.79,3.65,3.65,0,0,1,1.71-1.14,3.19,3.19,0,0,1-1.46-1.06,2.69,2.69,0,0,1-.54-1.66,3,3,0,0,1,1-2.41,4,4,0,0,1,2.64-.83,3.77,3.77,0,0,1,2.52.83A3,3,0,0,1,376.92,144.23Zm-1.29,5.62a2.16,2.16,0,0,0-.64-1.62,2.12,2.12,0,0,0-1.58-.64,2.32,2.32,0,0,0-1.69.64,2.31,2.31,0,0,0,0,3.24,2.45,2.45,0,0,0,1.72.61,2.12,2.12,0,0,0,2.2-2.23Zm-.34-5.59a2,2,0,0,0-.54-1.43,1.75,1.75,0,0,0-1.34-.56,2,2,0,0,0-1.45.54,1.9,1.9,0,0,0-.57,1.45,2,2,0,0,0,2,2.05,1.74,1.74,0,0,0,1.33-.57A2.05,2.05,0,0,0,375.29,144.26Z"/><path class="cls-2" d="M386.88,142.44a17.85,17.85,0,0,0-3.08,4.78,12.67,12.67,0,0,0-.8,4.65v1.31h-1.63v-1.31a11.62,11.62,0,0,1,1-4.91,21.4,21.4,0,0,1,2.91-4.52H378.9v-1.28h8Z"/><path class="cls-2" d="M396.56,152.08a1.89,1.89,0,0,0,1.31-.5,1.58,1.58,0,0,0,.56-1.22h1.47l0,0a2.56,2.56,0,0,1-1,2.05,3.47,3.47,0,0,1-2.37.9,3.51,3.51,0,0,1-2.91-1.28,5,5,0,0,1-1-3.19v-.35a4.92,4.92,0,0,1,1-3.17,3.52,3.52,0,0,1,2.91-1.29A3.34,3.34,0,0,1,399,145a2.92,2.92,0,0,1,.93,2.27l0,.05h-1.48a2,2,0,0,0-.53-1.39,1.74,1.74,0,0,0-1.34-.58,1.89,1.89,0,0,0-1.75.93,4.31,4.31,0,0,0-.55,2.25v.35a4.44,4.44,0,0,0,.54,2.27A1.87,1.87,0,0,0,396.56,152.08Z"/><path class="cls-2" d="M403.48,145.45a3.33,3.33,0,0,1,1.14-1,3.1,3.1,0,0,1,1.49-.36,2.88,2.88,0,0,1,2.22.86,3.74,3.74,0,0,1,.8,2.64v5.6H407.5v-5.61a2.38,2.38,0,0,0-.47-1.64,1.83,1.83,0,0,0-1.42-.53,2.66,2.66,0,0,0-1.26.29,2.23,2.23,0,0,0-.87.8v6.69h-1.62V140.3h1.62Z"/><path class="cls-2" d="M413.23,142H411.6V140.3h1.63Zm0,11.22H411.6v-8.93h1.63Z"/><path class="cls-2" d="M417.49,153.18h-1.63V140.3h1.63Z"/><path class="cls-2" d="M419.62,148.88a5.92,5.92,0,0,1,.92-3.48,3,3,0,0,1,2.58-1.32,3.23,3.23,0,0,1,1.39.29,3,3,0,0,1,1,.84V140.3h1.62v12.88h-1.24l-.25-1.13a2.89,2.89,0,0,1-1.08,1,3.25,3.25,0,0,1-1.5.33,3.07,3.07,0,0,1-2.56-1.19,5,5,0,0,1-.92-3.12Zm1.62.17a3.77,3.77,0,0,0,.56,2.17,1.94,1.94,0,0,0,1.72.81,2.16,2.16,0,0,0,1.22-.33,2.43,2.43,0,0,0,.81-.92v-4.17a2.48,2.48,0,0,0-.82-.88,2.11,2.11,0,0,0-1.2-.33,1.87,1.87,0,0,0-1.73,1,5,5,0,0,0-.56,2.51Z"/><path class="cls-2" d="M433.83,145.68l-.84,0a1.86,1.86,0,0,0-1.08.3,1.9,1.9,0,0,0-.68.86v6.38H429.6v-8.93h1.45l.16,1.3a3.12,3.12,0,0,1,.94-1.08,2.18,2.18,0,0,1,1.28-.39,2,2,0,0,1,.35,0l.27.06Z"/><path class="cls-2" d="M439.06,153.36a3.78,3.78,0,0,1-3-1.23,4.73,4.73,0,0,1-1.08-3.24v-.36a4.6,4.6,0,0,1,1.12-3.19,3.47,3.47,0,0,1,2.71-1.26,3.24,3.24,0,0,1,2.69,1.12,4.62,4.62,0,0,1,.89,3V149h-5.71l0,0a3.68,3.68,0,0,0,.6,2.19,2.08,2.08,0,0,0,1.81.83,4,4,0,0,0,1.45-.23,3.2,3.2,0,0,0,1.07-.65l.64,1.06A3.82,3.82,0,0,1,441,153,5,5,0,0,1,439.06,153.36Zm-.25-8a1.76,1.76,0,0,0-1.41.66,3.11,3.11,0,0,0-.68,1.68l0,0h4v-.13a2.58,2.58,0,0,0-.47-1.61A1.73,1.73,0,0,0,438.81,145.36Z"/><path class="cls-2" d="M445.67,144.25l.12,1.33a3.16,3.16,0,0,1,1.11-1.1,3.28,3.28,0,0,1,3.77.45,3.69,3.69,0,0,1,.8,2.61v5.64h-1.63v-5.6a2.43,2.43,0,0,0-.47-1.68,1.86,1.86,0,0,0-1.42-.5,2.45,2.45,0,0,0-1.28.31,2.23,2.23,0,0,0-.83.84v6.63h-1.62v-8.93Z"/><path class="cls-2" d="M457.65,148.63a4.92,4.92,0,0,1,1.07-3.26,4,4,0,0,1,5.85,0,4.92,4.92,0,0,1,1.08,3.27v.18a4.89,4.89,0,0,1-1.07,3.27,4,4,0,0,1-5.85,0,4.88,4.88,0,0,1-1.08-3.27Zm1.63.18a4.25,4.25,0,0,0,.6,2.35,2.16,2.16,0,0,0,3.54,0,4.25,4.25,0,0,0,.61-2.35v-.18a4.23,4.23,0,0,0-.61-2.33,2,2,0,0,0-1.78-.94,1.93,1.93,0,0,0-1.76.94,4.22,4.22,0,0,0-.6,2.33Z"/><path class="cls-2" d="M468.32,153.18v-7.73h-1.4v-1.2h1.4v-1.13a3,3,0,0,1,.75-2.21,2.73,2.73,0,0,1,2.08-.78,3.64,3.64,0,0,1,.57,0l.63.13-.2,1.24-.36-.06-.44,0a1.3,1.3,0,0,0-1.06.42,2,2,0,0,0-.34,1.24v1.13h1.61v1.2H470v7.73Z"/><path class="cls-2" d="M481.64,145.68l-.84,0a1.86,1.86,0,0,0-1.08.3,1.9,1.9,0,0,0-.68.86v6.38h-1.63v-8.93h1.45l.16,1.3a3.12,3.12,0,0,1,.94-1.08,2.18,2.18,0,0,1,1.28-.39,2,2,0,0,1,.35,0l.27.06Z"/><path class="cls-2" d="M486.87,153.36a3.78,3.78,0,0,1-3-1.23,4.73,4.73,0,0,1-1.08-3.24v-.36a4.64,4.64,0,0,1,1.11-3.19,3.49,3.49,0,0,1,2.72-1.26,3.21,3.21,0,0,1,2.68,1.12,4.57,4.57,0,0,1,.9,3V149h-5.71l0,0a3.68,3.68,0,0,0,.6,2.19,2.08,2.08,0,0,0,1.81.83,4,4,0,0,0,1.45-.23,3.2,3.2,0,0,0,1.07-.65l.64,1.06a3.82,3.82,0,0,1-1.27.78A5,5,0,0,1,486.87,153.36Zm-.25-8a1.76,1.76,0,0,0-1.41.66,3.11,3.11,0,0,0-.68,1.68v0h4v-.13a2.59,2.59,0,0,0-.48-1.61A1.7,1.7,0,0,0,486.62,145.36Z"/><path class="cls-2" d="M492.7,153.18v-7.73h-1.39v-1.2h1.39v-1.13a3,3,0,0,1,.75-2.21,2.74,2.74,0,0,1,2.08-.78,3.64,3.64,0,0,1,.57,0l.63.13-.2,1.24-.36-.06-.44,0a1.28,1.28,0,0,0-1.05.42,1.89,1.89,0,0,0-.35,1.24v1.13H496v1.2h-1.62v7.73Z"/><path class="cls-2" d="M503.26,151.86a3,3,0,0,1-1.08,1.11,3,3,0,0,1-1.53.39,2.9,2.9,0,0,1-2.28-.94,4.35,4.35,0,0,1-.81-2.9v-5.27h1.62v5.28a3.25,3.25,0,0,0,.43,2,1.54,1.54,0,0,0,1.31.53,2.61,2.61,0,0,0,1.43-.35,2.2,2.2,0,0,0,.86-1v-6.44h1.62v8.93h-1.46Z"/><path class="cls-2" d="M506.91,148.88a6,6,0,0,1,.92-3.48,3,3,0,0,1,2.58-1.32,3.12,3.12,0,0,1,1.49.35,2.89,2.89,0,0,1,1.08,1l.2-1.16h1.3v9a3.42,3.42,0,0,1-1,2.64,4.13,4.13,0,0,1-2.88.92,6,6,0,0,1-1.4-.18,5.76,5.76,0,0,1-1.31-.48l.25-1.26a4.79,4.79,0,0,0,1.13.4,5.92,5.92,0,0,0,1.31.15,2.38,2.38,0,0,0,1.73-.54,2.25,2.25,0,0,0,.54-1.65v-1a3,3,0,0,1-1.05.85,3.32,3.32,0,0,1-1.41.29,3.07,3.07,0,0,1-2.56-1.19,5,5,0,0,1-.92-3.12Zm1.63.17a3.82,3.82,0,0,0,.55,2.17,1.93,1.93,0,0,0,1.71.81,2.17,2.17,0,0,0,1.23-.33,2.52,2.52,0,0,0,.82-.94v-4.12a2.46,2.46,0,0,0-.82-.9,2.15,2.15,0,0,0-1.21-.34,1.85,1.85,0,0,0-1.72,1,5,5,0,0,0-.56,2.51Z"/><path class="cls-2" d="M520.51,153.36a3.78,3.78,0,0,1-3-1.23,4.73,4.73,0,0,1-1.08-3.24v-.36a4.6,4.6,0,0,1,1.12-3.19,3.47,3.47,0,0,1,2.71-1.26,3.21,3.21,0,0,1,2.68,1.12,4.57,4.57,0,0,1,.9,3V149h-5.71l0,0a3.68,3.68,0,0,0,.6,2.19,2.08,2.08,0,0,0,1.81.83,4,4,0,0,0,1.45-.23,3.2,3.2,0,0,0,1.07-.65l.64,1.06a3.82,3.82,0,0,1-1.27.78A5,5,0,0,1,520.51,153.36Zm-.25-8a1.76,1.76,0,0,0-1.41.66,3.11,3.11,0,0,0-.68,1.68l0,0h4v-.13a2.65,2.65,0,0,0-.47-1.61A1.73,1.73,0,0,0,520.26,145.36Z"/><path class="cls-2" d="M529.36,153.36a3.78,3.78,0,0,1-3-1.23,4.73,4.73,0,0,1-1.07-3.24v-.36a4.64,4.64,0,0,1,1.11-3.19,3.47,3.47,0,0,1,2.71-1.26,3.24,3.24,0,0,1,2.69,1.12,4.62,4.62,0,0,1,.89,3V149H527l0,0a3.68,3.68,0,0,0,.6,2.19,2.08,2.08,0,0,0,1.81.83,4,4,0,0,0,1.45-.23,3.1,3.1,0,0,0,1.07-.65l.64,1.06a3.87,3.87,0,0,1-1.26.78A5.14,5.14,0,0,1,529.36,153.36Zm-.25-8a1.76,1.76,0,0,0-1.41.66,3.11,3.11,0,0,0-.68,1.68l0,0h4v-.13a2.59,2.59,0,0,0-.48-1.61A1.73,1.73,0,0,0,529.11,145.36Z"/><path class="cls-2" d="M539.71,150.78a1.08,1.08,0,0,0-.41-.88,4,4,0,0,0-1.55-.59,6.48,6.48,0,0,1-2.42-.95,1.93,1.93,0,0,1-.85-1.63,2.36,2.36,0,0,1,.93-1.87,4.09,4.09,0,0,1,4.87,0,2.35,2.35,0,0,1,.9,1.92l0,0h-1.55a1.43,1.43,0,0,0-.51-1,1.8,1.8,0,0,0-1.28-.47,1.83,1.83,0,0,0-1.28.39,1.2,1.2,0,0,0-.43.93,1,1,0,0,0,.37.81A3.91,3.91,0,0,0,538,148a6.47,6.47,0,0,1,2.5,1,2,2,0,0,1,.85,1.66,2.34,2.34,0,0,1-1,1.94,4.58,4.58,0,0,1-5.21-.11,2.44,2.44,0,0,1-.93-2v-.05h1.56a1.48,1.48,0,0,0,.64,1.26,2.46,2.46,0,0,0,1.41.4,2.26,2.26,0,0,0,1.36-.36A1.13,1.13,0,0,0,539.71,150.78Z"/><path class="cls-2" d="M277.38,173.48c-.06-.27-.1-.51-.13-.72a4.21,4.21,0,0,1-.05-.62,3.76,3.76,0,0,1-1.19,1.08,3.09,3.09,0,0,1-1.57.43,2.92,2.92,0,0,1-2.13-.72,2.63,2.63,0,0,1-.73-2,2.32,2.32,0,0,1,1-2,4.85,4.85,0,0,1,2.81-.72h1.77v-.88a1.65,1.65,0,0,0-.48-1.25,1.91,1.91,0,0,0-1.36-.45,2,2,0,0,0-1.28.39,1.2,1.2,0,0,0-.48.95l-1.55,0V167a2.11,2.11,0,0,1,.91-1.78,3.78,3.78,0,0,1,2.51-.81,3.66,3.66,0,0,1,2.44.77,2.7,2.7,0,0,1,.92,2.22v4.31c0,.31,0,.62.05.92a6.54,6.54,0,0,0,.18.88Zm-2.7-1.19a2.82,2.82,0,0,0,1.59-.46,2.16,2.16,0,0,0,.93-1v-1.45h-1.83a2.36,2.36,0,0,0-1.57.49,1.5,1.5,0,0,0-.59,1.17,1.22,1.22,0,0,0,.37.94A1.56,1.56,0,0,0,274.68,172.29Z"/><path class="cls-2" d="M282.64,164.54l.11,1.33a3.27,3.27,0,0,1,1.12-1.1,3,3,0,0,1,1.53-.39,2.93,2.93,0,0,1,2.24.84,3.73,3.73,0,0,1,.8,2.62v5.64h-1.63v-5.61a2.43,2.43,0,0,0-.47-1.68,1.85,1.85,0,0,0-1.42-.49,2.55,2.55,0,0,0-1.28.3,2.23,2.23,0,0,0-.83.84v6.64h-1.62v-8.94Z"/><path class="cls-2" d="M290.43,169.17a5.91,5.91,0,0,1,.92-3.47,3,3,0,0,1,2.58-1.32,3.26,3.26,0,0,1,1.39.28,2.9,2.9,0,0,1,1,.85v-4.92H298v12.89h-1.25l-.24-1.14a3,3,0,0,1-1.08,1,3.25,3.25,0,0,1-1.5.33,3.07,3.07,0,0,1-2.56-1.19,4.88,4.88,0,0,1-.92-3.11Zm1.62.18a3.76,3.76,0,0,0,.56,2.16,1.9,1.9,0,0,0,1.71.82,2.17,2.17,0,0,0,1.23-.33,2.36,2.36,0,0,0,.8-.93V166.9a2.45,2.45,0,0,0-.81-.88,2.19,2.19,0,0,0-1.2-.32,1.86,1.86,0,0,0-1.73,1,5,5,0,0,0-.56,2.51Z"/><path class="cls-2" d="M310.1,173.48c-.05-.27-.1-.51-.13-.72s0-.41-.05-.62a3.84,3.84,0,0,1-1.18,1.08,3.15,3.15,0,0,1-1.58.43,2.88,2.88,0,0,1-2.12-.72,2.59,2.59,0,0,1-.73-2,2.31,2.31,0,0,1,1-2,4.85,4.85,0,0,1,2.81-.72h1.77v-.88a1.65,1.65,0,0,0-.48-1.25,1.9,1.9,0,0,0-1.35-.45,2,2,0,0,0-1.28.39,1.18,1.18,0,0,0-.49.95l-1.54,0,0-.05a2.13,2.13,0,0,1,.91-1.78,3.78,3.78,0,0,1,2.51-.81,3.64,3.64,0,0,1,2.44.77,2.71,2.71,0,0,1,.93,2.22v4.31a7,7,0,0,0,.05.92,4.44,4.44,0,0,0,.18.88Zm-2.7-1.19a2.88,2.88,0,0,0,1.6-.46,2.14,2.14,0,0,0,.92-1v-1.45H308.1a2.39,2.39,0,0,0-1.58.49,1.5,1.5,0,0,0-.59,1.17,1.26,1.26,0,0,0,.37.94A1.58,1.58,0,0,0,307.4,172.29Z"/><path class="cls-2" d="M319.1,171.07a1.06,1.06,0,0,0-.41-.87,3.79,3.79,0,0,0-1.54-.6,6.37,6.37,0,0,1-2.43-.95,1.91,1.91,0,0,1-.84-1.63,2.36,2.36,0,0,1,.93-1.87,4.11,4.11,0,0,1,4.86,0,2.35,2.35,0,0,1,.9,1.93v.05H319a1.42,1.42,0,0,0-.5-1.05,1.8,1.8,0,0,0-1.29-.47,1.88,1.88,0,0,0-1.28.38,1.2,1.2,0,0,0-.43.93,1,1,0,0,0,.37.82,4,4,0,0,0,1.52.52,6.48,6.48,0,0,1,2.49,1,2,2,0,0,1,.85,1.66,2.36,2.36,0,0,1-1,1.94,4,4,0,0,1-2.52.75,3.92,3.92,0,0,1-2.69-.87,2.49,2.49,0,0,1-.93-2l0,0h1.55a1.49,1.49,0,0,0,.64,1.27,2.53,2.53,0,0,0,1.41.4,2.2,2.2,0,0,0,1.36-.37A1.11,1.11,0,0,0,319.1,171.07Z"/><path class="cls-2" d="M325.49,170.16l.29,1.13h.05l2.19-6.75h1.81l-3.76,10.31a4.47,4.47,0,0,1-1,1.56,2.21,2.21,0,0,1-1.7.67,3.64,3.64,0,0,1-.51,0l-.47-.09.17-1.28.29,0,.43,0a1,1,0,0,0,.86-.46,5,5,0,0,0,.55-1l.39-.94-3.32-8.75h1.81Z"/><path class="cls-2" d="M333,173.48h-1.63V160.59H333Z"/><path class="cls-2" d="M341.19,172.15a3,3,0,0,1-1.08,1.11,3,3,0,0,1-1.53.39,2.89,2.89,0,0,1-2.28-.93,4.38,4.38,0,0,1-.81-2.91v-5.27h1.62v5.29a3.32,3.32,0,0,0,.42,2,1.57,1.57,0,0,0,1.32.54,2.73,2.73,0,0,0,1.43-.35,2.19,2.19,0,0,0,.85-1v-6.44h1.63v8.94H341.3Z"/><path class="cls-2" d="M346.58,164.54l.12,1.17a3,3,0,0,1,1.11-1,3.26,3.26,0,0,1,1.56-.35,2.75,2.75,0,0,1,1.54.41,2.54,2.54,0,0,1,1,1.24,3.27,3.27,0,0,1,1.12-1.21,2.84,2.84,0,0,1,1.61-.44,2.66,2.66,0,0,1,2.15.93,4.29,4.29,0,0,1,.8,2.82v5.35h-1.63v-5.36a3,3,0,0,0-.45-1.87,1.67,1.67,0,0,0-1.36-.55,1.73,1.73,0,0,0-1.35.58,2.51,2.51,0,0,0-.6,1.46v5.74h-1.64v-5.36a2.88,2.88,0,0,0-.47-1.84,1.6,1.6,0,0,0-1.34-.58,2.27,2.27,0,0,0-1.22.3,2,2,0,0,0-.73.86v6.62h-1.63v-8.94Z"/><path class="cls-2" d="M369.31,171.07a1.09,1.09,0,0,0-.41-.87,3.85,3.85,0,0,0-1.55-.6,6.32,6.32,0,0,1-2.42-.95,1.89,1.89,0,0,1-.85-1.63,2.36,2.36,0,0,1,.93-1.87,4.13,4.13,0,0,1,4.87,0,2.41,2.41,0,0,1,.9,1.93l0,.05h-1.55a1.39,1.39,0,0,0-.51-1.05,1.79,1.79,0,0,0-1.28-.47,1.91,1.91,0,0,0-1.29.38,1.23,1.23,0,0,0-.42.93,1,1,0,0,0,.36.82,4,4,0,0,0,1.52.52,6.34,6.34,0,0,1,2.49,1,2,2,0,0,1,.85,1.66,2.36,2.36,0,0,1-1,1.94,4,4,0,0,1-2.51.75,3.9,3.9,0,0,1-2.69-.87,2.47,2.47,0,0,1-.94-2l0,0h1.55a1.5,1.5,0,0,0,.65,1.27,2.53,2.53,0,0,0,1.41.4,2.2,2.2,0,0,0,1.36-.37A1.14,1.14,0,0,0,369.31,171.07Z"/><path class="cls-2" d="M376.65,173.65a3.78,3.78,0,0,1-3-1.23,4.78,4.78,0,0,1-1.07-3.24v-.36a4.62,4.62,0,0,1,1.11-3.18,3.47,3.47,0,0,1,2.71-1.26,3.26,3.26,0,0,1,2.69,1.11,4.63,4.63,0,0,1,.89,3v.85h-5.71l0,.05a3.67,3.67,0,0,0,.6,2.18,2.07,2.07,0,0,0,1.81.84,4,4,0,0,0,1.45-.24,3,3,0,0,0,1.07-.65l.64,1.06a3.87,3.87,0,0,1-1.26.78A5.14,5.14,0,0,1,376.65,173.65Zm-.25-8a1.75,1.75,0,0,0-1.41.65,3.11,3.11,0,0,0-.68,1.68l0,0h4v-.13a2.61,2.61,0,0,0-.48-1.61A1.75,1.75,0,0,0,376.4,165.66Z"/><path class="cls-2" d="M385.51,173.65a3.76,3.76,0,0,1-3-1.23,4.73,4.73,0,0,1-1.08-3.24v-.36a4.62,4.62,0,0,1,1.11-3.18,3.47,3.47,0,0,1,2.71-1.26,3.25,3.25,0,0,1,2.69,1.11,4.58,4.58,0,0,1,.9,3v.85h-5.72l0,.05a3.67,3.67,0,0,0,.59,2.18,2.08,2.08,0,0,0,1.82.84,4,4,0,0,0,1.45-.24,3.14,3.14,0,0,0,1.07-.65l.63,1.06a3.87,3.87,0,0,1-1.26.78A5,5,0,0,1,385.51,173.65Zm-.26-8a1.77,1.77,0,0,0-1.41.65,3.19,3.19,0,0,0-.68,1.68l0,0h4v-.13a2.61,2.61,0,0,0-.48-1.61A1.74,1.74,0,0,0,385.25,165.66Z"/><path class="cls-2" d="M393.13,169.36h-.83v4.12h-1.63V160.59h1.63v7.47h.81l2.69-3.52h1.95l-3.25,4.12,3.53,4.82H396.1Z"/><path class="cls-2" d="M402.86,173.65a3.78,3.78,0,0,1-3-1.23,4.73,4.73,0,0,1-1.07-3.24v-.36a4.62,4.62,0,0,1,1.11-3.18,3.47,3.47,0,0,1,2.71-1.26,3.26,3.26,0,0,1,2.69,1.11,4.63,4.63,0,0,1,.89,3v.85h-5.71l0,.05a3.67,3.67,0,0,0,.6,2.18,2.06,2.06,0,0,0,1.81.84,4,4,0,0,0,1.45-.24,3,3,0,0,0,1.07-.65l.64,1.06a3.82,3.82,0,0,1-1.27.78A5,5,0,0,1,402.86,173.65Zm-.25-8a1.75,1.75,0,0,0-1.41.65,3.11,3.11,0,0,0-.68,1.68l0,0h4v-.13a2.6,2.6,0,0,0-.47-1.61A1.75,1.75,0,0,0,402.61,165.66Z"/><path class="cls-2" d="M412.24,166l-.83,0a1.91,1.91,0,0,0-1.09.3,2,2,0,0,0-.68.86v6.39H408v-8.94h1.45l.16,1.31a3,3,0,0,1,.93-1.09,2.28,2.28,0,0,1,1.29-.38l.34,0a1.42,1.42,0,0,1,.28.07Z"/><path class="cls-2" d="M419.13,171.07a1.06,1.06,0,0,0-.41-.87,3.85,3.85,0,0,0-1.55-.6,6.32,6.32,0,0,1-2.42-.95,1.92,1.92,0,0,1-.85-1.63,2.36,2.36,0,0,1,.93-1.87,4.13,4.13,0,0,1,4.87,0,2.35,2.35,0,0,1,.9,1.93l0,.05H419a1.39,1.39,0,0,0-.51-1.05,1.76,1.76,0,0,0-1.28-.47A1.88,1.88,0,0,0,416,166a1.2,1.2,0,0,0-.43.93,1,1,0,0,0,.37.82,3.94,3.94,0,0,0,1.51.52,6.46,6.46,0,0,1,2.5,1,2,2,0,0,1,.85,1.66,2.36,2.36,0,0,1-1,1.94,4,4,0,0,1-2.52.75,3.9,3.9,0,0,1-2.69-.87,2.44,2.44,0,0,1-.93-2v0h1.56a1.49,1.49,0,0,0,.64,1.27,2.53,2.53,0,0,0,1.41.4,2.2,2.2,0,0,0,1.36-.37A1.11,1.11,0,0,0,419.13,171.07Z"/><path class="cls-2" d="M424.2,173.08,423,175.61h-1l.57-2.61v-1.35h1.63Z"/><path class="cls-2" d="M432.61,170.22l.2,1.15h.05l.22-1.15,1.78-5.68h1.31l1.79,5.68.23,1.28h.05l.26-1.28,1.32-5.68h1.7l-2.59,8.94h-1.31L435.85,168l-.34-1.42h-.05l-.31,1.42-1.73,5.45H432.1l-2.59-8.94h1.69Z"/><path class="cls-2" d="M446.82,173.65a3.76,3.76,0,0,1-3-1.23,4.73,4.73,0,0,1-1.08-3.24v-.36a4.62,4.62,0,0,1,1.11-3.18,3.47,3.47,0,0,1,2.71-1.26,3.25,3.25,0,0,1,2.69,1.11,4.57,4.57,0,0,1,.89,3v.85h-5.71l0,.05a3.67,3.67,0,0,0,.59,2.18,2.08,2.08,0,0,0,1.82.84,4,4,0,0,0,1.45-.24,3.14,3.14,0,0,0,1.07-.65l.63,1.06a3.87,3.87,0,0,1-1.26.78A5,5,0,0,1,446.82,173.65Zm-.26-8a1.77,1.77,0,0,0-1.41.65,3.19,3.19,0,0,0-.68,1.68l0,0h4v-.13a2.61,2.61,0,0,0-.48-1.61A1.74,1.74,0,0,0,446.56,165.66Z"/><path class="cls-2" d="M456.2,166l-.84,0a1.86,1.86,0,0,0-1.08.3,2,2,0,0,0-.68.86v6.39H452v-8.94h1.45l.16,1.31a3.07,3.07,0,0,1,.94-1.09,2.24,2.24,0,0,1,1.28-.38l.35,0a1.31,1.31,0,0,1,.27.07Z"/><path class="cls-2" d="M461.43,173.65a3.78,3.78,0,0,1-3-1.23,4.73,4.73,0,0,1-1.08-3.24v-.36a4.62,4.62,0,0,1,1.11-3.18,3.49,3.49,0,0,1,2.72-1.26,3.23,3.23,0,0,1,2.68,1.11,4.58,4.58,0,0,1,.9,3v.85h-5.71l0,.05a3.67,3.67,0,0,0,.6,2.18,2.06,2.06,0,0,0,1.81.84,4,4,0,0,0,1.45-.24,3,3,0,0,0,1.07-.65l.64,1.06a3.82,3.82,0,0,1-1.27.78A5,5,0,0,1,461.43,173.65Zm-.25-8a1.75,1.75,0,0,0-1.41.65,3.11,3.11,0,0,0-.68,1.68v0h4v-.13a2.61,2.61,0,0,0-.48-1.61A1.72,1.72,0,0,0,461.18,165.66Z"/><path class="cls-2" d="M476,171.07a1.06,1.06,0,0,0-.41-.87,3.85,3.85,0,0,0-1.55-.6,6.39,6.39,0,0,1-2.42-.95,1.91,1.91,0,0,1-.84-1.63,2.35,2.35,0,0,1,.92-1.87,4.13,4.13,0,0,1,4.87,0,2.35,2.35,0,0,1,.9,1.93l0,.05h-1.55a1.39,1.39,0,0,0-.51-1.05,1.76,1.76,0,0,0-1.28-.47,1.88,1.88,0,0,0-1.28.38,1.2,1.2,0,0,0-.43.93,1,1,0,0,0,.37.82,3.94,3.94,0,0,0,1.51.52,6.46,6.46,0,0,1,2.5,1,2,2,0,0,1,.85,1.66,2.36,2.36,0,0,1-1,1.94,4,4,0,0,1-2.52.75,3.92,3.92,0,0,1-2.69-.87,2.46,2.46,0,0,1-.93-2v0h1.56a1.49,1.49,0,0,0,.64,1.27,2.53,2.53,0,0,0,1.41.4,2.2,2.2,0,0,0,1.36-.37A1.11,1.11,0,0,0,476,171.07Z"/><path class="cls-2" d="M485.3,172.15a3,3,0,0,1-1.08,1.11,3,3,0,0,1-1.53.39,2.85,2.85,0,0,1-2.27-.93,4.32,4.32,0,0,1-.82-2.91v-5.27h1.63v5.29a3.32,3.32,0,0,0,.42,2,1.55,1.55,0,0,0,1.31.54,2.7,2.7,0,0,0,1.43-.35,2.28,2.28,0,0,0,.86-1v-6.44h1.62v8.94h-1.46Z"/><path class="cls-2" d="M496.86,169.35a4.88,4.88,0,0,1-.93,3.11,3.06,3.06,0,0,1-2.55,1.19,3.47,3.47,0,0,1-1.45-.28,2.74,2.74,0,0,1-1.06-.83v4.37h-1.63V164.54h1.25l.26,1.16a3,3,0,0,1,1.09-1,3.31,3.31,0,0,1,1.52-.33,3,3,0,0,1,2.58,1.31,6,6,0,0,1,.92,3.48Zm-1.63-.18a4.68,4.68,0,0,0-.6-2.49,1.93,1.93,0,0,0-1.76-1,2.11,2.11,0,0,0-1.2.32,2.32,2.32,0,0,0-.8.87v4.31a2.14,2.14,0,0,0,2,1.18,2,2,0,0,0,1.76-.85,3.74,3.74,0,0,0,.59-2.18Z"/><path class="cls-2" d="M506.47,169.35a4.88,4.88,0,0,1-.93,3.11,3.06,3.06,0,0,1-2.55,1.19,3.47,3.47,0,0,1-1.45-.28,2.74,2.74,0,0,1-1.06-.83v4.37h-1.63V164.54h1.25l.26,1.16a3,3,0,0,1,1.09-1,3.31,3.31,0,0,1,1.52-.33,3,3,0,0,1,2.58,1.31,6,6,0,0,1,.92,3.48Zm-1.63-.18a4.68,4.68,0,0,0-.6-2.49,1.93,1.93,0,0,0-1.76-1,2.11,2.11,0,0,0-1.2.32,2.32,2.32,0,0,0-.8.87v4.31a2.14,2.14,0,0,0,2,1.18,2,2,0,0,0,1.76-.85,3.74,3.74,0,0,0,.59-2.18Z"/><path class="cls-2" d="M508.09,168.93a4.9,4.9,0,0,1,1.07-3.27,3.58,3.58,0,0,1,2.91-1.28,3.62,3.62,0,0,1,2.94,1.28,4.88,4.88,0,0,1,1.08,3.27v.18a4.88,4.88,0,0,1-1.08,3.27,3.61,3.61,0,0,1-2.92,1.27,3.65,3.65,0,0,1-2.93-1.28,4.87,4.87,0,0,1-1.07-3.26Zm1.62.18a4.21,4.21,0,0,0,.6,2.34,2.16,2.16,0,0,0,3.55,0,4.21,4.21,0,0,0,.6-2.34v-.18a4.16,4.16,0,0,0-.61-2.34,2.15,2.15,0,0,0-3.54,0,4.24,4.24,0,0,0-.6,2.34Z"/><path class="cls-2" d="M522.3,166l-.83,0a1.86,1.86,0,0,0-1.08.3,2,2,0,0,0-.69.86v6.39h-1.62v-8.94h1.45l.16,1.31a3,3,0,0,1,.93-1.09,2.28,2.28,0,0,1,1.29-.38l.34,0a1.42,1.42,0,0,1,.28.07Z"/><path class="cls-2" d="M526.4,162.39v2.15h1.69v1.21H526.4v5.42a1.26,1.26,0,0,0,.26.89.93.93,0,0,0,.69.25,1.2,1.2,0,0,0,.31,0l.29-.07.23,1.11a1.43,1.43,0,0,1-.54.24,2.47,2.47,0,0,1-.7.1,2.11,2.11,0,0,1-1.58-.6,2.6,2.6,0,0,1-.59-1.88v-5.42h-1.42v-1.21h1.42v-2.15Z"/><path class="cls-2" d="M533.53,173.65a3.78,3.78,0,0,1-3-1.23,4.73,4.73,0,0,1-1.07-3.24v-.36a4.62,4.62,0,0,1,1.11-3.18,3.47,3.47,0,0,1,2.71-1.26,3.26,3.26,0,0,1,2.69,1.11,4.63,4.63,0,0,1,.89,3v.85h-5.71l0,.05a3.67,3.67,0,0,0,.6,2.18,2.06,2.06,0,0,0,1.81.84,4,4,0,0,0,1.45-.24,3,3,0,0,0,1.07-.65l.64,1.06a3.87,3.87,0,0,1-1.26.78A5.14,5.14,0,0,1,533.53,173.65Zm-.25-8a1.75,1.75,0,0,0-1.41.65,3.11,3.11,0,0,0-.68,1.68l0,0h4v-.13a2.61,2.61,0,0,0-.48-1.61A1.75,1.75,0,0,0,533.28,165.66Z"/><path class="cls-2" d="M538.32,169.17a5.91,5.91,0,0,1,.92-3.47,3,3,0,0,1,2.58-1.32,3.26,3.26,0,0,1,1.39.28,2.9,2.9,0,0,1,1,.85v-4.92h1.63v12.89h-1.25l-.24-1.14a3,3,0,0,1-1.08,1,3.25,3.25,0,0,1-1.5.33,3.07,3.07,0,0,1-2.56-1.19,4.88,4.88,0,0,1-.92-3.11Zm1.62.18a3.76,3.76,0,0,0,.56,2.16,1.9,1.9,0,0,0,1.71.82,2.17,2.17,0,0,0,1.23-.33,2.36,2.36,0,0,0,.8-.93V166.9a2.45,2.45,0,0,0-.81-.88,2.19,2.19,0,0,0-1.2-.32,1.86,1.86,0,0,0-1.73,1,5,5,0,0,0-.56,2.51Z"/><path class="cls-2" d="M309.73,190.51l.2,1.15H310l.22-1.15,1.78-5.68h1.31l1.79,5.68.23,1.28h.05l.26-1.28,1.32-5.68h1.7l-2.59,8.94h-1.31L313,188.33l-.34-1.42h-.05l-.31,1.42-1.73,5.44h-1.32l-2.59-8.94h1.69Z"/><path class="cls-2" d="M322,182.55h-1.63v-1.66H322Zm0,11.22h-1.63v-8.94H322Z"/><path class="cls-2" d="M326.76,182.68v2.15h1.69V186h-1.69v5.42a1.24,1.24,0,0,0,.26.89.93.93,0,0,0,.69.25l.31,0a2.24,2.24,0,0,0,.29-.08l.23,1.11a1.51,1.51,0,0,1-.54.25,2.86,2.86,0,0,1-.7.09,2.11,2.11,0,0,1-1.58-.6,2.6,2.6,0,0,1-.58-1.88V186h-1.43v-1.21h1.43v-2.15Z"/><path class="cls-2" d="M331.82,186a3.3,3.3,0,0,1,1.14-1,3.1,3.1,0,0,1,1.49-.36,2.88,2.88,0,0,1,2.22.86,3.72,3.72,0,0,1,.8,2.64v5.6h-1.63v-5.62a2.37,2.37,0,0,0-.47-1.63A1.83,1.83,0,0,0,334,186a2.66,2.66,0,0,0-1.26.29,2.21,2.21,0,0,0-.87.79v6.7H330.2V180.89h1.62Z"/><path class="cls-2" d="M343.64,189.47a6,6,0,0,1,.92-3.48,3,3,0,0,1,2.58-1.32,3.23,3.23,0,0,1,1.39.29,2.81,2.81,0,0,1,1,.84v-4.91h1.63v12.88H350l-.25-1.13a2.86,2.86,0,0,1-1.08,1,3.25,3.25,0,0,1-1.5.33,3.07,3.07,0,0,1-2.56-1.18,5,5,0,0,1-.92-3.12Zm1.63.17a3.82,3.82,0,0,0,.55,2.17,1.94,1.94,0,0,0,1.72.81,2.16,2.16,0,0,0,1.22-.33,2.51,2.51,0,0,0,.81-.92V187.2a2.46,2.46,0,0,0-.81-.88,2.17,2.17,0,0,0-1.21-.33,1.86,1.86,0,0,0-1.73,1,5,5,0,0,0-.55,2.51Z"/><path class="cls-2" d="M355.38,182.55h-1.63v-1.66h1.63Zm0,11.22h-1.63v-8.94h1.63Z"/><path class="cls-2" d="M363.08,191.37a1.1,1.1,0,0,0-.41-.88,3.87,3.87,0,0,0-1.55-.59,6.66,6.66,0,0,1-2.42-1,1.92,1.92,0,0,1-.85-1.64,2.33,2.33,0,0,1,.93-1.86,4.11,4.11,0,0,1,4.87,0,2.44,2.44,0,0,1,.9,1.93l0,.05H363a1.39,1.39,0,0,0-.51-1.05,2.14,2.14,0,0,0-2.57-.08,1.21,1.21,0,0,0-.42.92,1,1,0,0,0,.36.82,4.15,4.15,0,0,0,1.52.53,6.42,6.42,0,0,1,2.49,1,2,2,0,0,1,.85,1.66,2.36,2.36,0,0,1-1,1.94,4.6,4.6,0,0,1-5.21-.12,2.48,2.48,0,0,1-.93-2l0-.05h1.55a1.52,1.52,0,0,0,.64,1.27,2.51,2.51,0,0,0,1.42.4,2.22,2.22,0,0,0,1.36-.37A1.12,1.12,0,0,0,363.08,191.37Z"/><path class="cls-2" d="M369,182.68v2.15h1.69V186H369v5.42a1.24,1.24,0,0,0,.26.89.93.93,0,0,0,.69.25l.31,0,.29-.08.22,1.11a1.54,1.54,0,0,1-.53.25,2.86,2.86,0,0,1-.7.09,2.11,2.11,0,0,1-1.58-.6,2.6,2.6,0,0,1-.59-1.88V186h-1.42v-1.21h1.42v-2.15Z"/><path class="cls-2" d="M377.91,193.77q-.07-.41-.12-.72a6.2,6.2,0,0,1-.06-.62,3.73,3.73,0,0,1-1.18,1.08,3,3,0,0,1-1.57.43,3,3,0,0,1-2.13-.71,2.63,2.63,0,0,1-.73-2,2.28,2.28,0,0,1,1-2,4.76,4.76,0,0,1,2.81-.73h1.76v-.88a1.63,1.63,0,0,0-.48-1.24,1.86,1.86,0,0,0-1.35-.46,1.94,1.94,0,0,0-1.28.4,1.2,1.2,0,0,0-.49.94l-1.54,0,0-.05a2.13,2.13,0,0,1,.92-1.78,3.76,3.76,0,0,1,2.5-.81,3.7,3.7,0,0,1,2.44.77,2.74,2.74,0,0,1,.93,2.23V192a9,9,0,0,0,.05.92,4.44,4.44,0,0,0,.18.88Zm-2.69-1.19a2.87,2.87,0,0,0,1.59-.46,2.1,2.1,0,0,0,.92-1v-1.45h-1.82a2.35,2.35,0,0,0-1.57.5,1.46,1.46,0,0,0-.59,1.16,1.21,1.21,0,0,0,.37.94A1.54,1.54,0,0,0,375.22,192.58Z"/><path class="cls-2" d="M383.17,184.83l.12,1.33a3.27,3.27,0,0,1,1.12-1.1,3,3,0,0,1,1.53-.39,2.91,2.91,0,0,1,2.24.85,3.69,3.69,0,0,1,.79,2.61v5.64h-1.63v-5.61a2.4,2.4,0,0,0-.46-1.67,1.88,1.88,0,0,0-1.43-.5,2.51,2.51,0,0,0-1.27.3,2.12,2.12,0,0,0-.83.85v6.63h-1.63v-8.94Z"/><path class="cls-2" d="M394.88,192.67a2,2,0,0,0,1.32-.5,1.59,1.59,0,0,0,.56-1.23h1.47l0,.05a2.57,2.57,0,0,1-1,2.06,3.52,3.52,0,0,1-2.38.89,3.48,3.48,0,0,1-2.9-1.28,4.89,4.89,0,0,1-1-3.19v-.34a5,5,0,0,1,1-3.18,3.52,3.52,0,0,1,2.9-1.28,3.38,3.38,0,0,1,2.45.92,2.9,2.9,0,0,1,.92,2.27v0h-1.48a2,2,0,0,0-.53-1.39,1.78,1.78,0,0,0-1.35-.57,1.87,1.87,0,0,0-1.74.93,4.31,4.31,0,0,0-.55,2.25v.34a4.47,4.47,0,0,0,.54,2.28A1.88,1.88,0,0,0,394.88,192.67Z"/><path class="cls-2" d="M403.88,193.94a3.78,3.78,0,0,1-3-1.23,4.73,4.73,0,0,1-1.07-3.24v-.36a4.63,4.63,0,0,1,1.11-3.18,3.47,3.47,0,0,1,2.71-1.26,3.26,3.26,0,0,1,2.69,1.11,4.67,4.67,0,0,1,.89,3v.86H401.5l0,0a3.65,3.65,0,0,0,.6,2.18,2.06,2.06,0,0,0,1.81.84,4,4,0,0,0,1.45-.24,3.18,3.18,0,0,0,1.07-.64l.64,1.05a3.82,3.82,0,0,1-1.27.78A4.85,4.85,0,0,1,403.88,193.94Zm-.25-8a1.76,1.76,0,0,0-1.41.66,3,3,0,0,0-.68,1.68l0,0h4v-.14a2.62,2.62,0,0,0-.47-1.61A1.75,1.75,0,0,0,403.63,186Z"/><path class="cls-2" d="M409.37,194.8H408l5-13.05h1.38Z"/><path class="cls-2" d="M417.68,186a3.3,3.3,0,0,1,1.14-1,3.1,3.1,0,0,1,1.49-.36,2.88,2.88,0,0,1,2.22.86,3.77,3.77,0,0,1,.8,2.64v5.6H421.7v-5.62a2.37,2.37,0,0,0-.47-1.63,1.83,1.83,0,0,0-1.42-.53,2.66,2.66,0,0,0-1.26.29,2.21,2.21,0,0,0-.87.79v6.7h-1.62V180.89h1.62Z"/><path class="cls-2" d="M425.29,189.22a4.91,4.91,0,0,1,1.07-3.27,4,4,0,0,1,5.85,0,4.88,4.88,0,0,1,1.08,3.27v.18a4.88,4.88,0,0,1-1.08,3.27,4,4,0,0,1-5.85,0,4.93,4.93,0,0,1-1.07-3.27Zm1.62.18a4.25,4.25,0,0,0,.6,2.35,2.17,2.17,0,0,0,3.55,0,4.25,4.25,0,0,0,.6-2.35v-.18a4.16,4.16,0,0,0-.61-2.34,2.15,2.15,0,0,0-3.54,0,4.24,4.24,0,0,0-.6,2.34Z"/><path class="cls-2" d="M436.73,184.83l.12,1.18a2.93,2.93,0,0,1,1.11-1,3.38,3.38,0,0,1,1.56-.35,2.77,2.77,0,0,1,1.53.41,2.55,2.55,0,0,1,1,1.24,3.32,3.32,0,0,1,1.11-1.21,3,3,0,0,1,1.62-.44,2.64,2.64,0,0,1,2.15.94,4.26,4.26,0,0,1,.8,2.82v5.34h-1.63v-5.36a3,3,0,0,0-.45-1.87,1.67,1.67,0,0,0-1.36-.55,1.73,1.73,0,0,0-1.35.58,2.59,2.59,0,0,0-.61,1.46v5.74h-1.63v-5.36a2.94,2.94,0,0,0-.47-1.84,1.61,1.61,0,0,0-1.34-.58,2.19,2.19,0,0,0-1.22.31,2,2,0,0,0-.74.85v6.62h-1.62v-8.94Z"/><path class="cls-2" d="M453.76,193.94a3.76,3.76,0,0,1-3-1.23,4.73,4.73,0,0,1-1.08-3.24v-.36a4.63,4.63,0,0,1,1.11-3.18,3.47,3.47,0,0,1,2.71-1.26,3.25,3.25,0,0,1,2.69,1.11,4.61,4.61,0,0,1,.89,3v.86h-5.71l0,0a3.65,3.65,0,0,0,.59,2.18,2.08,2.08,0,0,0,1.82.84,4,4,0,0,0,1.45-.24,3.28,3.28,0,0,0,1.07-.64l.63,1.05a3.87,3.87,0,0,1-1.26.78A4.92,4.92,0,0,1,453.76,193.94Zm-.26-8a1.76,1.76,0,0,0-1.41.66,3,3,0,0,0-.68,1.68l0,0h4v-.14a2.63,2.63,0,0,0-.48-1.61A1.74,1.74,0,0,0,453.5,186Z"/><path class="cls-2" d="M464,189.33h-4.87v-1.28H464Z"/><path class="cls-2" d="M474.16,189.64a4.91,4.91,0,0,1-.93,3.12,3.06,3.06,0,0,1-2.55,1.18,3.28,3.28,0,0,1-1.55-.35,2.85,2.85,0,0,1-1.09-1l-.26,1.22h-1.25V180.89h1.63v5a2.83,2.83,0,0,1,1-.91,3.2,3.2,0,0,1,1.46-.31,3,3,0,0,1,2.58,1.32,6,6,0,0,1,.92,3.48Zm-1.63-.17A4.91,4.91,0,0,0,472,187a1.86,1.86,0,0,0-1.72-1,2.1,2.1,0,0,0-1.27.37,2.55,2.55,0,0,0-.82,1v3.88a2.66,2.66,0,0,0,.82,1,2.11,2.11,0,0,0,1.28.37,1.91,1.91,0,0,0,1.71-.82,3.68,3.68,0,0,0,.56-2.16Z"/><path class="cls-2" d="M481.63,193.77q-.08-.41-.12-.72a6.2,6.2,0,0,1-.06-.62,3.84,3.84,0,0,1-1.18,1.08,3,3,0,0,1-1.58.43,2.92,2.92,0,0,1-2.12-.71,2.63,2.63,0,0,1-.73-2,2.29,2.29,0,0,1,1-2,4.78,4.78,0,0,1,2.81-.73h1.77v-.88a1.63,1.63,0,0,0-.48-1.24,1.86,1.86,0,0,0-1.35-.46,1.92,1.92,0,0,0-1.28.4,1.17,1.17,0,0,0-.49.94l-1.54,0,0-.05a2.14,2.14,0,0,1,.91-1.78,3.8,3.8,0,0,1,2.51-.81,3.7,3.7,0,0,1,2.44.77,2.74,2.74,0,0,1,.93,2.23V192a9,9,0,0,0,.05.92,4.44,4.44,0,0,0,.18.88Zm-2.7-1.19a2.88,2.88,0,0,0,1.6-.46,2.1,2.1,0,0,0,.92-1v-1.45h-1.82a2.39,2.39,0,0,0-1.58.5,1.49,1.49,0,0,0-.59,1.16,1.21,1.21,0,0,0,.38.94A1.53,1.53,0,0,0,478.93,192.58Z"/><path class="cls-2" d="M490.63,191.37a1.1,1.1,0,0,0-.4-.88,3.94,3.94,0,0,0-1.55-.59,6.79,6.79,0,0,1-2.43-1,1.94,1.94,0,0,1-.84-1.64,2.33,2.33,0,0,1,.93-1.86,3.61,3.61,0,0,1,2.4-.78,3.57,3.57,0,0,1,2.46.82,2.38,2.38,0,0,1,.9,1.93v.05h-1.55a1.39,1.39,0,0,0-.51-1.05,2.14,2.14,0,0,0-2.57-.08,1.22,1.22,0,0,0-.43.92,1,1,0,0,0,.37.82,4.15,4.15,0,0,0,1.52.53,6.48,6.48,0,0,1,2.49,1,2,2,0,0,1,.85,1.66,2.36,2.36,0,0,1-1,1.94,4,4,0,0,1-2.52.75,3.94,3.94,0,0,1-2.69-.87,2.48,2.48,0,0,1-.93-2l0-.05h1.55a1.52,1.52,0,0,0,.64,1.27,2.48,2.48,0,0,0,1.41.4,2.18,2.18,0,0,0,1.36-.37A1.1,1.1,0,0,0,490.63,191.37Z"/><path class="cls-2" d="M498,193.94a3.78,3.78,0,0,1-3-1.23,4.73,4.73,0,0,1-1.08-3.24v-.36a4.59,4.59,0,0,1,1.12-3.18,3.47,3.47,0,0,1,2.71-1.26,3.23,3.23,0,0,1,2.68,1.11,4.61,4.61,0,0,1,.9,3v.86H495.6l0,0a3.65,3.65,0,0,0,.6,2.18,2.06,2.06,0,0,0,1.81.84,4,4,0,0,0,1.45-.24,3.18,3.18,0,0,0,1.07-.64l.64,1.05a3.82,3.82,0,0,1-1.27.78A4.85,4.85,0,0,1,498,193.94Zm-.25-8a1.76,1.76,0,0,0-1.41.66,3,3,0,0,0-.68,1.68l0,0h4v-.14a2.63,2.63,0,0,0-.48-1.61A1.72,1.72,0,0,0,497.73,186Z"/><path class="cls-2" d="M502.76,189.47a6,6,0,0,1,.92-3.48,3,3,0,0,1,2.58-1.32,3.27,3.27,0,0,1,1.4.29,2.77,2.77,0,0,1,1,.84v-4.91h1.63v12.88h-1.25l-.25-1.13a2.86,2.86,0,0,1-1.08,1,3.21,3.21,0,0,1-1.49.33,3.07,3.07,0,0,1-2.56-1.18,4.91,4.91,0,0,1-.93-3.12Zm1.63.17a3.82,3.82,0,0,0,.55,2.17,2,2,0,0,0,1.72.81,2.14,2.14,0,0,0,1.22-.33,2.51,2.51,0,0,0,.81-.92V187.2a2.46,2.46,0,0,0-.81-.88,2.11,2.11,0,0,0-1.2-.33,1.85,1.85,0,0,0-1.73,1,5,5,0,0,0-.56,2.51Z"/><path class="cls-2" d="M381.14,214.06h-1.63V201.18h1.63Z"/><path class="cls-2" d="M387.34,214.23a3.78,3.78,0,0,1-3-1.23,4.71,4.71,0,0,1-1.08-3.23v-.37a4.63,4.63,0,0,1,1.11-3.18,3.49,3.49,0,0,1,2.71-1.26,3.21,3.21,0,0,1,2.69,1.12,4.57,4.57,0,0,1,.9,3v.86H385l0,0a3.75,3.75,0,0,0,.59,2.19,2.11,2.11,0,0,0,1.82.83,4.28,4.28,0,0,0,1.45-.23,3.37,3.37,0,0,0,1.07-.65l.64,1.06a4.3,4.3,0,0,1-1.27.78A5.06,5.06,0,0,1,387.34,214.23Zm-.26-8a1.76,1.76,0,0,0-1.4.66,3.11,3.11,0,0,0-.68,1.68v0h4v-.13a2.59,2.59,0,0,0-.48-1.61A1.72,1.72,0,0,0,387.08,206.24Z"/><path class="cls-2" d="M398,214.06c-.05-.27-.09-.51-.12-.71s-.05-.42-.06-.63a3.73,3.73,0,0,1-1.18,1.08,3,3,0,0,1-1.58.43,2.89,2.89,0,0,1-2.12-.71,2.62,2.62,0,0,1-.73-2,2.3,2.3,0,0,1,1-2,4.87,4.87,0,0,1,2.82-.72h1.76v-.89a1.64,1.64,0,0,0-.48-1.24,1.86,1.86,0,0,0-1.35-.46,1.92,1.92,0,0,0-1.28.4,1.17,1.17,0,0,0-.49,1h-1.54l0,0a2.16,2.16,0,0,1,.91-1.78,3.8,3.8,0,0,1,2.51-.81,3.7,3.7,0,0,1,2.44.77,2.74,2.74,0,0,1,.93,2.23v4.3c0,.32,0,.63.05.93a4.34,4.34,0,0,0,.18.87Zm-2.7-1.19a3,3,0,0,0,1.6-.45,2.14,2.14,0,0,0,.92-1v-1.46H396a2.39,2.39,0,0,0-1.58.5,1.49,1.49,0,0,0-.59,1.16,1.25,1.25,0,0,0,.38.95A1.53,1.53,0,0,0,395.28,212.87Z"/><path class="cls-2" d="M406,206.56l-.84-.05a1.86,1.86,0,0,0-1.08.31,1.9,1.9,0,0,0-.68.86v6.38h-1.63v-8.93h1.45l.16,1.3a3.12,3.12,0,0,1,.94-1.08,2.18,2.18,0,0,1,1.28-.39,2,2,0,0,1,.35,0l.27.06Z"/><path class="cls-2" d="M409.16,205.13l.12,1.33a3.3,3.3,0,0,1,1.12-1.11,3,3,0,0,1,1.53-.39,2.91,2.91,0,0,1,2.24.85,3.69,3.69,0,0,1,.79,2.61v5.64h-1.63v-5.61a2.42,2.42,0,0,0-.46-1.67,1.88,1.88,0,0,0-1.43-.5,2.51,2.51,0,0,0-1.27.3,2.26,2.26,0,0,0-.83.85v6.63h-1.63v-8.93Z"/><path class="cls-2" d="M419.08,202.84h-1.63v-1.66h1.63Zm0,11.22h-1.63v-8.93h1.63Z"/><path class="cls-2" d="M423,205.13l.11,1.33a3.3,3.3,0,0,1,1.12-1.11,3,3,0,0,1,1.53-.39,2.9,2.9,0,0,1,2.24.85,3.69,3.69,0,0,1,.79,2.61v5.64h-1.62v-5.61a2.41,2.41,0,0,0-.47-1.67,1.88,1.88,0,0,0-1.43-.5,2.51,2.51,0,0,0-1.27.3,2.26,2.26,0,0,0-.83.85v6.63h-1.63v-8.93Z"/><path class="cls-2" d="M430.91,209.76a5.92,5.92,0,0,1,.92-3.48A3,3,0,0,1,434.4,205a3.21,3.21,0,0,1,1.49.34,3,3,0,0,1,1.08,1l.2-1.16h1.3v9a3.39,3.39,0,0,1-1,2.64,4.13,4.13,0,0,1-2.88.92,5.89,5.89,0,0,1-1.39-.18,5.67,5.67,0,0,1-1.32-.48l.25-1.26a5.29,5.29,0,0,0,1.13.4,6,6,0,0,0,1.31.15,2.38,2.38,0,0,0,1.73-.54,2.25,2.25,0,0,0,.54-1.65v-1a3,3,0,0,1-1,.85,3.26,3.26,0,0,1-1.41.28,3,3,0,0,1-2.55-1.18,4.91,4.91,0,0,1-.92-3.12Zm1.62.17a3.82,3.82,0,0,0,.56,2.17,1.9,1.9,0,0,0,1.7.81,2.23,2.23,0,0,0,1.24-.33,2.46,2.46,0,0,0,.81-1v-4.11a2.53,2.53,0,0,0-.81-.9,2.13,2.13,0,0,0-1.22-.34,1.85,1.85,0,0,0-1.72,1,5,5,0,0,0-.56,2.51Z"/><path class="cls-5" d="M86.55,144.78H83.4a6.54,6.54,0,0,0,6.3,5.88A9.94,9.94,0,0,1,86.55,144.78Z"/><path class="cls-5" d="M93.16,106.07a4.19,4.19,0,0,1,4.18-4.19h59.14a4.19,4.19,0,0,1,4.18,4.19v34.87h2.88V105.46a6.13,6.13,0,0,0-6.13-6.14h-61a6.13,6.13,0,0,0-6.13,6.14v35.48h2.88Z"/><path class="cls-5" d="M156.48,105.73H97.34a.34.34,0,0,0-.34.34v34.87h59.81V106.07A.33.33,0,0,0,156.48,105.73Z"/><path class="cls-2" d="M173.27,142.2a3.84,3.84,0,0,0-2.86-1.26h-3V105.46a10,10,0,0,0-10-10h-61a10,10,0,0,0-10,10v35.48h-3a3.83,3.83,0,0,0-3.82,4.23,10.36,10.36,0,0,0,10.32,9.35h74a10.35,10.35,0,0,0,10.32-9.36A3.87,3.87,0,0,0,173.27,142.2Zm-83-36.74a6.13,6.13,0,0,1,6.13-6.14h61a6.13,6.13,0,0,1,6.13,6.14v35.48h-2.88V106.07a4.19,4.19,0,0,0-4.18-4.19H97.34a4.19,4.19,0,0,0-4.18,4.19v34.87H90.28Zm66.53,35.48H97V106.07a.34.34,0,0,1,.34-.34h59.14a.33.33,0,0,1,.33.34Zm7.31,9.72-.2,0h-74l-.2,0a6.54,6.54,0,0,1-6.3-5.88h87A6.52,6.52,0,0,1,164.12,150.66Z"/><path class="cls-2" d="M131,149.15h-8.26a1.67,1.67,0,1,1,0-3.34H131a1.67,1.67,0,1,1,0,3.34Z"/><line class="cls-6" x1="125.76" y1="113.97" x2="117.06" y2="122.68"/><line class="cls-6" x1="134.48" y1="122.69" x2="125.77" y2="131.4"/><line class="cls-6" x1="137.07" y1="111.36" x2="114.44" y2="133.98"/><path class="cls-2" d="M42.59,124.16a5,5,0,0,1-2.68.07,5.38,5.38,0,0,1-3.77-3.77,4.89,4.89,0,0,1,.07-2.68,5.71,5.71,0,0,1,1.5-2.44,5.65,5.65,0,0,1,2-1.34,4.54,4.54,0,0,1,2.18-.32l-.09,2a3.21,3.21,0,0,0-2.61,1,3.41,3.41,0,0,0-.88,1.47,2.9,2.9,0,0,0,0,1.6,3.52,3.52,0,0,0,2.35,2.35,2.9,2.9,0,0,0,1.6,0,3.41,3.41,0,0,0,1.47-.88,3.2,3.2,0,0,0,.94-2.63l2-.08a4.63,4.63,0,0,1-.31,2.2,6.24,6.24,0,0,1-3.78,3.48Z"/><path class="cls-2" d="M49.86,116.88a5,5,0,0,1-2.69.08,5.35,5.35,0,0,1-3.76-3.76,5.06,5.06,0,0,1,.08-2.7,6.2,6.2,0,0,1,4-4,5.06,5.06,0,0,1,2.7-.07,5.28,5.28,0,0,1,3.75,3.75,5.06,5.06,0,0,1-.07,2.7,6.19,6.19,0,0,1-4,4Zm1.92-4.33a3,3,0,0,0,0-1.6,3.31,3.31,0,0,0-.89-1.46,3.36,3.36,0,0,0-1.46-.89,3,3,0,0,0-1.6,0,3.4,3.4,0,0,0-2.27,2.27,2.9,2.9,0,0,0,0,1.6,3.54,3.54,0,0,0,2.34,2.34,2.9,2.9,0,0,0,1.6,0,3.4,3.4,0,0,0,2.27-2.27Z"/><path class="cls-2" d="M56.81,96.47l4,10.15-1.62,1.62-10.14-4,1.77-1.77,7.22,2.91L55.18,98.1Z"/><path class="cls-2" d="M57.4,95.89,59,94.25l7.08,7.08L64.48,103Z"/><path class="cls-2" d="M60.72,92.57l3.22-3.22a6.36,6.36,0,0,1,2.47-1.6A4.7,4.7,0,0,1,69,87.61a5.41,5.41,0,0,1,3.73,3.73A4.76,4.76,0,0,1,72.62,94,6.39,6.39,0,0,1,71,96.43L67.8,99.65Zm8.87,2.6a3.38,3.38,0,0,0,1.11-2.29,3.34,3.34,0,0,0-3.21-3.21,3.38,3.38,0,0,0-2.29,1.11l-1.5,1.49,4.4,4.4Z"/><path class="cls-2" d="M83.54,83.91l-3.34-.6-.08.08-1.43,1.43,2,2L79,88.43l-7.08-7.09L75,78.28A5.36,5.36,0,0,1,77,77a3.3,3.3,0,0,1,3.69.81,3.24,3.24,0,0,1,.78,3.7l3.87.68Zm-5.85-5a2.43,2.43,0,0,0-1.44.8L74.92,81l2.47,2.47,1.33-1.34a2.4,2.4,0,0,0,.8-1.44,1.79,1.79,0,0,0-1.83-1.83Z"/><path class="cls-2" d="M89.38,73.52l-4.12,4.12a1.77,1.77,0,0,0,1.32.27,2.42,2.42,0,0,0,1.33-.74,3.09,3.09,0,0,0,.63-.87,2.81,2.81,0,0,0,.21-1l1.75.08a4,4,0,0,1-1.37,3.12,5,5,0,0,1-2,1.27,3.74,3.74,0,0,1-2.09.1,3.87,3.87,0,0,1-1.84-1.06A4,4,0,0,1,82.16,77a3.82,3.82,0,0,1,0-2,4.32,4.32,0,0,1,1.12-1.84,4.21,4.21,0,0,1,1.8-1.1,3.49,3.49,0,0,1,2,0A4.16,4.16,0,0,1,89,73.07Zm-5.45,2a1.82,1.82,0,0,0,.39,1.27L87,74.06a1.83,1.83,0,0,0-1.27-.38,1.89,1.89,0,0,0-1.2.58A1.92,1.92,0,0,0,83.93,75.47Z"/><path class="cls-2" d="M93.16,74.13a5.08,5.08,0,0,1-1.45.61l-.61-1.66a5.22,5.22,0,0,0,1.26-.5,5.67,5.67,0,0,0,1.16-.87c.66-.67.83-1.17.5-1.5a.51.51,0,0,0-.61-.06,6.81,6.81,0,0,0-1,.67,11.27,11.27,0,0,1-1.33.87,2.47,2.47,0,0,1-1.22.29,1.86,1.86,0,0,1-1.27-.63A2.11,2.11,0,0,1,88,70.13a2.63,2.63,0,0,1,.25-1.49,5.08,5.08,0,0,1,1.13-1.57,7.43,7.43,0,0,1,1.27-1,4.72,4.72,0,0,1,1.3-.59l.59,1.65a4.41,4.41,0,0,0-2,1.16,2.34,2.34,0,0,0-.62.9.6.6,0,0,0,.11.62.52.52,0,0,0,.63.08,7.15,7.15,0,0,0,1.06-.68A12.54,12.54,0,0,1,93,68.33a2.26,2.26,0,0,1,1.2-.28,1.83,1.83,0,0,1,1.25.62,2,2,0,0,1,.6,1.2,2.7,2.7,0,0,1-.28,1.5A5.53,5.53,0,0,1,94.65,73,7.61,7.61,0,0,1,93.16,74.13Z"/><path class="cls-2" d="M97.53,59.57a3.62,3.62,0,0,1,2,0,4.58,4.58,0,0,1,3,3,3.62,3.62,0,0,1,0,2,4,4,0,0,1-1,1.73,3,3,0,0,1-2.3,1l2.54,2.54-1.58,1.58-7.4-7.41,1.5-1.51.63.63a3,3,0,0,1,1-2.42A3.92,3.92,0,0,1,97.53,59.57Zm2.9,4.21a2.47,2.47,0,0,0-2.2-2.2,1.88,1.88,0,0,0-1.41.59,1.84,1.84,0,0,0-.58,1.41,2.47,2.47,0,0,0,2.19,2.19,2,2,0,0,0,2-2Z"/><path class="cls-2" d="M105.86,61A3.91,3.91,0,0,1,101,56.15a4.64,4.64,0,0,1,1.19-1.91,4.53,4.53,0,0,1,1.89-1.17,3.74,3.74,0,0,1,2.07-.07A4.11,4.11,0,0,1,109,55.89a3.8,3.8,0,0,1-.07,2.06,4.42,4.42,0,0,1-1.18,1.9A4.65,4.65,0,0,1,105.86,61Zm1.2-3.89a2.47,2.47,0,0,0-2.2-2.2,2,2,0,0,0-2,2,2.45,2.45,0,0,0,2.2,2.2,2,2,0,0,0,2-2Z"/><path class="cls-2" d="M111.74,45.87a3.41,3.41,0,0,1,2.43,1.18l3.12,3.12-1.58,1.57-2.88-2.87a2,2,0,0,0-1.25-.68,1.45,1.45,0,0,0-1.13.5,1.78,1.78,0,0,0-.59,1.32,2.14,2.14,0,0,0,.75,1.45l2.69,2.69-1.58,1.58-5.44-5.44,1.5-1.51.64.64a2.89,2.89,0,0,1,.25-1.31,3.85,3.85,0,0,1,.83-1.21A3.17,3.17,0,0,1,111.74,45.87Z"/><path class="cls-2" d="M119.13,48.15a4.86,4.86,0,0,1-1.45.61l-.61-1.66a4.58,4.58,0,0,0,1.26-.5,5.14,5.14,0,0,0,1.16-.86q1-1,.51-1.5a.49.49,0,0,0-.61-.06,5.2,5.2,0,0,0-1,.66,10.53,10.53,0,0,1-1.34.87,2.32,2.32,0,0,1-1.22.29,1.88,1.88,0,0,1-1.27-.63,2.07,2.07,0,0,1-.61-1.21,2.73,2.73,0,0,1,.24-1.5,5.38,5.38,0,0,1,1.13-1.57,7,7,0,0,1,1.28-1,4.33,4.33,0,0,1,1.29-.6l.6,1.65a4.45,4.45,0,0,0-2,1.16,2.23,2.23,0,0,0-.62.9.58.58,0,0,0,.11.62.51.51,0,0,0,.63.08,6.9,6.9,0,0,0,1.06-.67,11.87,11.87,0,0,1,1.33-.86,2.36,2.36,0,0,1,1.2-.28,1.89,1.89,0,0,1,1.25.62,2.07,2.07,0,0,1,.59,1.2,2.77,2.77,0,0,1-.27,1.5,5.57,5.57,0,0,1-1.16,1.6A7.62,7.62,0,0,1,119.13,48.15Z"/><path class="cls-2" d="M127.11,35.79,123,39.9a1.81,1.81,0,0,0,1.33.28,2.46,2.46,0,0,0,1.32-.74,2.77,2.77,0,0,0,.63-.88,2.53,2.53,0,0,0,.22-1l1.75.07a4,4,0,0,1-1.37,3.13,5.14,5.14,0,0,1-2,1.27,3.74,3.74,0,0,1-2.09.09,4.12,4.12,0,0,1-2.89-2.88,3.67,3.67,0,0,1,0-2,4.54,4.54,0,0,1,2.91-2.94,3.61,3.61,0,0,1,2,0,4.23,4.23,0,0,1,1.86,1.12Zm-5.44,1.94a1.85,1.85,0,0,0,.38,1.27l2.68-2.68a1.87,1.87,0,0,0-1.27-.38,2.07,2.07,0,0,0-1.79,1.79Z"/></svg>