<svg id="Layer_1" data-name="Layer 1" xmlns="http://www.w3.org/2000/svg" xmlns:xlink="http://www.w3.org/1999/xlink" viewBox="0 0 654 250"><defs><style>.cls-1,.cls-3,.cls-4,.cls-8{fill:none;}.cls-2{clip-path:url(#clip-path);}.cls-3{stroke:#2681d6;}.cls-3,.cls-4,.cls-8{stroke-miterlimit:10;}.cls-4{stroke:#c02134;stroke-width:2.61px;}.cls-5{fill:#c02134;}.cls-6{opacity:0.15;}.cls-7{fill:#fff;}.cls-8{stroke:#fff;stroke-width:2.24px;}</style><clipPath id="clip-path"><rect class="cls-1" x="-2027.15" width="1920" height="142.18"/></clipPath></defs><g class="cls-2"><path class="cls-3" d="M-107.15,334.28l54.41-54.41h0L156,71.16-52.74-137.55h0L-107.15-192-370.27,71.16ZM-300,34.85l36.31,36.31L-300,107.47l-36.31-36.31ZM85.71,107.47,49.4,71.16,85.71,34.85,122,71.16ZM-69.71,262.89h0l-37.44,37.45-85.07-85.07L-124,147.06-194.26,76.8l-51.06,51.05L-210.19,163l17-17-18.15-18.16,17.11-17.11,36.31,36.32-51.24,51.23L-283,124.45l53.29-53.29L-283,17.88-209.19-56l51.24,51.24-36.31,36.31-17.11-17.11,18.15-18.16-17-17-35.13,35.13,51.06,51.05L-124-4.73l-68.21-68.22,47.63-47.62h0L-107.15-158l37.44,37.45h0l47.63,47.62L-90.29-4.73-20,65.52,31,14.47-4.11-20.66l-17,17L-2.93,14.47-20,31.58-56.35-4.73-5.11-56,68.74,17.88,15.46,71.16l53.28,53.29L-5.11,198.29l-51.24-51.23L-20,110.74l17.11,17.11L-21.08,146l17,17L31,127.85-20,76.8l-70.25,70.26,68.21,68.21Z"/></g><polygon class="cls-4" points="12.17 125 126.04 238.87 527.96 238.87 641.83 125 527.96 11.13 126.04 11.13 12.17 125"/><path d="M320.73,151.27c-.06-.27-.1-.51-.13-.72a4.21,4.21,0,0,1-.05-.62,3.87,3.87,0,0,1-1.19,1.08,3.05,3.05,0,0,1-1.58.43,2.92,2.92,0,0,1-2.13-.71,2.64,2.64,0,0,1-.73-2,2.31,2.31,0,0,1,1-2,4.78,4.78,0,0,1,2.81-.73h1.78v-.88a1.65,1.65,0,0,0-.48-1.25,1.93,1.93,0,0,0-1.36-.46,2,2,0,0,0-1.28.4,1.17,1.17,0,0,0-.49.95l-1.55,0,0-.05a2.17,2.17,0,0,1,.92-1.79,3.78,3.78,0,0,1,2.51-.81,3.74,3.74,0,0,1,2.45.77,2.74,2.74,0,0,1,.93,2.23v4.32a6.9,6.9,0,0,0,.05.92,4.44,4.44,0,0,0,.18.88ZM318,150.08a2.88,2.88,0,0,0,1.6-.46,2.22,2.22,0,0,0,.93-1v-1.46h-1.83a2.37,2.37,0,0,0-1.58.5,1.5,1.5,0,0,0-.59,1.17,1.22,1.22,0,0,0,.37.94A1.58,1.58,0,0,0,318,150.08Z"/><path d="M326,142.32l.12,1.33a3.21,3.21,0,0,1,1.12-1.11,3,3,0,0,1,1.53-.39A2.9,2.9,0,0,1,331,143a3.72,3.72,0,0,1,.8,2.62v5.65h-1.63v-5.62a2.43,2.43,0,0,0-.47-1.68,1.88,1.88,0,0,0-1.43-.5,2.58,2.58,0,0,0-1.28.31,2.23,2.23,0,0,0-.83.84v6.65h-1.63v-9Z"/><path d="M333.8,147a6,6,0,0,1,.93-3.49,3,3,0,0,1,2.58-1.32,3.27,3.27,0,0,1,1.4.29,2.77,2.77,0,0,1,1,.84v-4.92h1.64v12.91h-1.25l-.25-1.13a3,3,0,0,1-1.09,1,3.24,3.24,0,0,1-1.49.33,3.07,3.07,0,0,1-2.57-1.18,5,5,0,0,1-.93-3.13Zm1.63.17a3.77,3.77,0,0,0,.56,2.17,1.92,1.92,0,0,0,1.72.82,2.16,2.16,0,0,0,1.22-.33,2.38,2.38,0,0,0,.81-.93v-4.18a2.45,2.45,0,0,0-.81-.88,2.14,2.14,0,0,0-1.2-.33,1.88,1.88,0,0,0-1.74,1,5.06,5.06,0,0,0-.56,2.52Z"/><path d="M352.71,151.27h-1.64V140.73l-2.62,0v-1.26l4.26-.44Z"/><path d="M359,150.87l-1.25,2.53h-1l.58-2.61v-1.35H359Z"/><path d="M367.11,147.21h1.67v1.28h-1.67v2.78h-1.62v-2.78h-5.17v-.92l5.07-8.35h1.72Zm-5.05,0h3.43v-5.65h-.05l-.16.42Z"/><path d="M373.41,150.17a2.43,2.43,0,0,0,1.9-.81,3.35,3.35,0,0,0,.72-2.3v-1a2.56,2.56,0,0,1-1,.89,2.79,2.79,0,0,1-1.29.3,3.51,3.51,0,0,1-2.73-1.07,4.2,4.2,0,0,1-1-3,4.25,4.25,0,0,1,1.05-3,3.39,3.39,0,0,1,2.6-1.15,3.82,3.82,0,0,1,2.9,1.13,4.42,4.42,0,0,1,1.09,3.2V147a4.32,4.32,0,0,1-1.19,3.24,4.19,4.19,0,0,1-3.07,1.16,6.44,6.44,0,0,1-1.3-.13,6.08,6.08,0,0,1-1.25-.39l.25-1.24a4.74,4.74,0,0,0,1.07.38A6.31,6.31,0,0,0,373.41,150.17Zm.34-4.22a2.48,2.48,0,0,0,1.43-.39,2.25,2.25,0,0,0,.85-1v-1.43a3.2,3.2,0,0,0-.6-2.08,2.07,2.07,0,0,0-1.7-.73,1.76,1.76,0,0,0-1.47.79,3.32,3.32,0,0,0-.6,2.06,3.4,3.4,0,0,0,.55,2A1.78,1.78,0,0,0,373.75,146Z"/><path d="M384.11,139.05a6.74,6.74,0,0,1,1.41.14,5.25,5.25,0,0,1,1.15.35l-.35,1.25a6.76,6.76,0,0,0-1-.33,5,5,0,0,0-1.22-.13,2.16,2.16,0,0,0-1.84,1,4,4,0,0,0-.71,2.45v.93a3.8,3.8,0,0,1,1.2-.79,3.65,3.65,0,0,1,1.48-.29,3.09,3.09,0,0,1,2.46,1,4,4,0,0,1,.91,2.74,4.23,4.23,0,0,1-1,3,3.53,3.53,0,0,1-2.74,1.1,3.59,3.59,0,0,1-2.8-1.27,5,5,0,0,1-1.12-3.47v-2.77a5.15,5.15,0,0,1,1.2-3.5A3.81,3.81,0,0,1,384.11,139.05Zm-.39,5.76a2.54,2.54,0,0,0-1.32.33,2.15,2.15,0,0,0-.84.88v.84a3.91,3.91,0,0,0,.67,2.42,2,2,0,0,0,1.63.89,1.83,1.83,0,0,0,1.57-.77,3.4,3.4,0,0,0,.55-2,2.81,2.81,0,0,0-.59-1.87A2.09,2.09,0,0,0,383.72,144.81Z"/><path d="M397.3,150.17a2,2,0,0,0,1.32-.5,1.6,1.6,0,0,0,.56-1.23h1.47l0,.05a2.58,2.58,0,0,1-1,2.06,3.8,3.8,0,0,1-5.29-.39,4.91,4.91,0,0,1-1-3.19v-.35a5,5,0,0,1,1-3.18,3.52,3.52,0,0,1,2.91-1.29,3.35,3.35,0,0,1,2.45.93,2.92,2.92,0,0,1,.93,2.27l0,.05h-1.48a2,2,0,0,0-.53-1.39,1.76,1.76,0,0,0-1.35-.58,1.89,1.89,0,0,0-1.75.93,4.35,4.35,0,0,0-.55,2.26V147a4.44,4.44,0,0,0,.54,2.27A1.88,1.88,0,0,0,397.3,150.17Z"/><path d="M404.24,143.52a3.33,3.33,0,0,1,1.14-1,3.14,3.14,0,0,1,1.5-.36,2.92,2.92,0,0,1,2.23.86,3.8,3.8,0,0,1,.79,2.65v5.61h-1.63v-5.63a2.4,2.4,0,0,0-.47-1.64,1.83,1.83,0,0,0-1.42-.53,2.68,2.68,0,0,0-1.27.29,2.31,2.31,0,0,0-.87.8v6.71h-1.63V138.36h1.63Z"/><path d="M414,140h-1.63v-1.66H414Zm0,11.25h-1.63v-9H414Z"/><path d="M418.28,151.27h-1.63V138.36h1.63Z"/><path d="M420.41,147a6,6,0,0,1,.93-3.49,3,3,0,0,1,2.58-1.32,3.27,3.27,0,0,1,1.4.29,2.89,2.89,0,0,1,1,.84v-4.92H428v12.91h-1.25l-.25-1.13a3,3,0,0,1-1.09,1,3.24,3.24,0,0,1-1.49.33,3.07,3.07,0,0,1-2.57-1.18,5,5,0,0,1-.93-3.13Zm1.63.17a3.77,3.77,0,0,0,.56,2.17,1.92,1.92,0,0,0,1.72.82,2.16,2.16,0,0,0,1.22-.33,2.4,2.4,0,0,0,.82-.93v-4.18a2.57,2.57,0,0,0-.82-.88,2.14,2.14,0,0,0-1.2-.33,1.88,1.88,0,0,0-1.74,1A5.06,5.06,0,0,0,422,147Z"/><path d="M434.66,143.76l-.84,0a1.91,1.91,0,0,0-1.09.3,2,2,0,0,0-.68.86v6.4h-1.63v-9h1.46l.15,1.3a3.22,3.22,0,0,1,.94-1.08,2.19,2.19,0,0,1,1.29-.39,2,2,0,0,1,.35,0l.27.06Z"/><path d="M439.9,151.44a3.77,3.77,0,0,1-3-1.23,4.69,4.69,0,0,1-1.09-3.24v-.37a4.67,4.67,0,0,1,1.12-3.19,3.49,3.49,0,0,1,2.72-1.26,3.24,3.24,0,0,1,2.69,1.12,4.58,4.58,0,0,1,.9,3v.86h-5.73l0,0a3.68,3.68,0,0,0,.59,2.19,2.09,2.09,0,0,0,1.82.84,4,4,0,0,0,1.45-.24,3.09,3.09,0,0,0,1.08-.65l.63,1.06a3.87,3.87,0,0,1-1.26.78A4.94,4.94,0,0,1,439.9,151.44Zm-.25-8a1.8,1.8,0,0,0-1.42.66,3.19,3.19,0,0,0-.68,1.68l0,0h4v-.14a2.61,2.61,0,0,0-.48-1.61A1.76,1.76,0,0,0,439.65,143.43Z"/><path d="M446.52,142.32l.12,1.33a3.3,3.3,0,0,1,1.12-1.11,3,3,0,0,1,1.53-.39,2.92,2.92,0,0,1,2.25.85,3.72,3.72,0,0,1,.79,2.62v5.65H450.7v-5.62a2.38,2.38,0,0,0-.47-1.68,1.86,1.86,0,0,0-1.42-.5,2.53,2.53,0,0,0-1.28.31,2.16,2.16,0,0,0-.83.84v6.65h-1.63v-9Z"/><path d="M464.41,151.27q-.07-.41-.12-.72a6.2,6.2,0,0,1-.06-.62A3.76,3.76,0,0,1,463,151a3,3,0,0,1-1.57.43,2.92,2.92,0,0,1-2.13-.71,2.65,2.65,0,0,1-.74-2,2.31,2.31,0,0,1,1-2,4.83,4.83,0,0,1,2.82-.73h1.77v-.88a1.65,1.65,0,0,0-.48-1.25,1.9,1.9,0,0,0-1.35-.46,2,2,0,0,0-1.29.4,1.2,1.2,0,0,0-.49.95l-1.54,0,0-.05A2.16,2.16,0,0,1,460,143a3.81,3.81,0,0,1,2.52-.81,3.74,3.74,0,0,1,2.45.77,2.77,2.77,0,0,1,.92,2.23v4.32a9.12,9.12,0,0,0,.05.92,6.54,6.54,0,0,0,.18.88Zm-2.7-1.19a2.88,2.88,0,0,0,1.6-.46,2.14,2.14,0,0,0,.92-1v-1.46H462.4a2.36,2.36,0,0,0-1.57.5,1.47,1.47,0,0,0-.59,1.17,1.22,1.22,0,0,0,.37.94A1.56,1.56,0,0,0,461.71,150.08Z"/><path d="M470.5,140.16v2.16h1.69v1.2H470.5V149a1.2,1.2,0,0,0,.26.89.93.93,0,0,0,.69.25l.31,0,.29-.08.23,1.11a1.51,1.51,0,0,1-.54.25,2.88,2.88,0,0,1-.71.09,2.13,2.13,0,0,1-1.58-.6,2.6,2.6,0,0,1-.58-1.88v-5.44h-1.43v-1.2h1.43v-2.16Z"/><path d="M482.39,143.76l-.84,0a1.86,1.86,0,0,0-1.08.3,2,2,0,0,0-.69.86v6.4h-1.63v-9h1.46l.16,1.3a3.09,3.09,0,0,1,.93-1.08,2.23,2.23,0,0,1,1.29-.39,2,2,0,0,1,.35,0l.27.06Z"/><path d="M485.85,140h-1.63v-1.66h1.63Zm0,11.25h-1.63v-9h1.63Z"/><path d="M493.56,148.86a1.1,1.1,0,0,0-.41-.88,4,4,0,0,0-1.55-.59,6.54,6.54,0,0,1-2.43-.95,1.92,1.92,0,0,1-.85-1.64,2.36,2.36,0,0,1,.93-1.87,3.65,3.65,0,0,1,2.42-.78,3.61,3.61,0,0,1,2.46.83,2.35,2.35,0,0,1,.9,1.93V145h-1.56a1.43,1.43,0,0,0-.51-1.06,2.14,2.14,0,0,0-2.57-.08,1.2,1.2,0,0,0-.43.93,1,1,0,0,0,.37.82,4.15,4.15,0,0,0,1.52.53,6.47,6.47,0,0,1,2.5,1,2,2,0,0,1,.85,1.67,2.36,2.36,0,0,1-1,1.94,4,4,0,0,1-2.52.75,4,4,0,0,1-2.7-.87,2.46,2.46,0,0,1-.94-2l0-.05h1.56a1.49,1.49,0,0,0,.64,1.27,2.49,2.49,0,0,0,1.42.4,2.2,2.2,0,0,0,1.36-.37A1.11,1.11,0,0,0,493.56,148.86Z"/><path d="M499.69,147.14h-.83v4.13h-1.63V138.36h1.63v7.48h.82l2.69-3.52h1.95l-3.25,4.13,3.53,4.82h-1.93Z"/><path d="M254.4,167.05a4.93,4.93,0,0,1,1.08-3.28,4,4,0,0,1,5.86,0,4.93,4.93,0,0,1,1.08,3.28v.18a4.89,4.89,0,0,1-1.07,3.28,4,4,0,0,1-5.87,0,4.88,4.88,0,0,1-1.08-3.27Zm1.64.18a4.25,4.25,0,0,0,.59,2.35,2,2,0,0,0,1.79.93,2,2,0,0,0,1.77-.93,4.25,4.25,0,0,0,.6-2.35v-.18a4.16,4.16,0,0,0-.61-2.34,2.15,2.15,0,0,0-3.55,0,4.23,4.23,0,0,0-.59,2.34Z"/><path d="M265.1,171.61v-7.75h-1.4v-1.21h1.4v-1.13a3.07,3.07,0,0,1,.75-2.21,2.7,2.7,0,0,1,2.08-.79,3.66,3.66,0,0,1,.57,0c.19,0,.4.07.64.13l-.2,1.24-.36-.06a3.24,3.24,0,0,0-.45,0,1.31,1.31,0,0,0-1.06.42,2,2,0,0,0-.34,1.24v1.13h1.62v1.21h-1.62v7.75Z"/><path d="M273.83,167.3a6,6,0,0,1,.93-3.49,3,3,0,0,1,2.58-1.32,3.13,3.13,0,0,1,1.4.29,2.89,2.89,0,0,1,1,.84V158.7h1.63v12.91h-1.25l-.25-1.14a2.89,2.89,0,0,1-1.08,1,3.28,3.28,0,0,1-1.5.33,3.05,3.05,0,0,1-2.57-1.19,4.91,4.91,0,0,1-.93-3.12Zm1.64.17a3.79,3.79,0,0,0,.55,2.17,1.92,1.92,0,0,0,1.72.82,2.19,2.19,0,0,0,1.23-.33,2.47,2.47,0,0,0,.81-.93V165a2.48,2.48,0,0,0-.82-.88,2.11,2.11,0,0,0-1.2-.33,1.89,1.89,0,0,0-1.74,1,5,5,0,0,0-.55,2.52Z"/><path d="M288.08,164.09l-.84-.05a1.92,1.92,0,0,0-1.09.31,2,2,0,0,0-.68.86v6.4h-1.63v-9h1.46l.15,1.31a3.22,3.22,0,0,1,.94-1.08,2.21,2.21,0,0,1,1.29-.39,2,2,0,0,1,.35,0l.27.06Z"/><path d="M289.23,167.05a5,5,0,0,1,1.07-3.28,4,4,0,0,1,5.87,0,4.93,4.93,0,0,1,1.08,3.28v.18a4.89,4.89,0,0,1-1.08,3.28,4,4,0,0,1-5.86,0,4.88,4.88,0,0,1-1.08-3.27Zm1.63.18a4.25,4.25,0,0,0,.6,2.35,2.16,2.16,0,0,0,3.55,0,4.17,4.17,0,0,0,.61-2.35v-.18a4.24,4.24,0,0,0-.61-2.34,2,2,0,0,0-1.79-.94,2,2,0,0,0-1.76.94,4.24,4.24,0,0,0-.6,2.34Z"/><path d="M306.87,167.47a4.91,4.91,0,0,1-.93,3.12,3,3,0,0,1-2.55,1.19,3.44,3.44,0,0,1-1.45-.28,2.7,2.7,0,0,1-1.07-.83v4.38h-1.63v-12.4h1.25l.26,1.16a2.84,2.84,0,0,1,1.09-1,3.21,3.21,0,0,1,1.52-.34,3,3,0,0,1,2.59,1.32,6,6,0,0,1,.92,3.49Zm-1.63-.17a4.76,4.76,0,0,0-.6-2.51,2,2,0,0,0-1.77-1,2.24,2.24,0,0,0-1.2.32,2.4,2.4,0,0,0-.8.87v4.33a2.4,2.4,0,0,0,.8.87,2.35,2.35,0,0,0,1.22.31,2,2,0,0,0,1.76-.85,3.8,3.8,0,0,0,.59-2.19Z"/><path d="M316.5,167.47a5,5,0,0,1-.92,3.12,3,3,0,0,1-2.56,1.19,3.44,3.44,0,0,1-1.45-.28,2.77,2.77,0,0,1-1.07-.83v4.38h-1.63v-12.4h1.25l.26,1.16a2.91,2.91,0,0,1,1.09-1,3.21,3.21,0,0,1,1.52-.34,3,3,0,0,1,2.59,1.32,5.93,5.93,0,0,1,.92,3.49Zm-1.63-.17a4.76,4.76,0,0,0-.6-2.51,2,2,0,0,0-1.76-1,2.19,2.19,0,0,0-1.2.32,2.34,2.34,0,0,0-.81.87v4.33a2.34,2.34,0,0,0,.81.87,2.29,2.29,0,0,0,1.21.31,2,2,0,0,0,1.76-.85,3.8,3.8,0,0,0,.59-2.19Z"/><path d="M320.27,160.36h-1.63V158.7h1.63Zm0,11.25h-1.63v-9h1.63Z"/><path d="M324.23,162.65l.12,1.34a3.21,3.21,0,0,1,1.12-1.11,3,3,0,0,1,1.53-.39,2.92,2.92,0,0,1,2.25.85A3.7,3.7,0,0,1,330,166v5.65h-1.63V166a2.38,2.38,0,0,0-.47-1.68,1.86,1.86,0,0,0-1.42-.5,2.53,2.53,0,0,0-1.28.3,2.26,2.26,0,0,0-.83.85v6.65h-1.63v-9Z"/><path d="M332.12,167.3a6,6,0,0,1,.92-3.49,3,3,0,0,1,2.58-1.32,3.13,3.13,0,0,1,1.5.34,3,3,0,0,1,1.08,1l.2-1.17h1.3v9a3.4,3.4,0,0,1-1,2.64,4.1,4.1,0,0,1-2.89.92,6.42,6.42,0,0,1-1.39-.17,5.25,5.25,0,0,1-1.32-.49l.24-1.26a5.05,5.05,0,0,0,1.14.4,6,6,0,0,0,1.31.15,2.39,2.39,0,0,0,1.74-.54,2.25,2.25,0,0,0,.54-1.65v-1a2.86,2.86,0,0,1-1.05.85,3.33,3.33,0,0,1-1.42.29,3,3,0,0,1-2.56-1.19,5,5,0,0,1-.92-3.12Zm1.63.17a3.82,3.82,0,0,0,.55,2.17,1.94,1.94,0,0,0,1.72.82,2.1,2.1,0,0,0,1.23-.34,2.57,2.57,0,0,0,.82-1v-4.12a2.46,2.46,0,0,0-.82-.9,2.11,2.11,0,0,0-1.22-.34,1.87,1.87,0,0,0-1.72,1,5,5,0,0,0-.56,2.52Z"/><path d="M345.87,167.05a4.93,4.93,0,0,1,1.08-3.28,4,4,0,0,1,5.86,0,4.93,4.93,0,0,1,1.08,3.28v.18a4.94,4.94,0,0,1-1.07,3.28,4,4,0,0,1-5.87,0,4.88,4.88,0,0,1-1.08-3.27Zm1.63.18a4.25,4.25,0,0,0,.6,2.35,2.17,2.17,0,0,0,3.56,0,4.25,4.25,0,0,0,.6-2.35v-.18a4.16,4.16,0,0,0-.61-2.34,2.15,2.15,0,0,0-3.55,0,4.24,4.24,0,0,0-.6,2.34Z"/><path d="M361.57,170.28a3,3,0,0,1-1.08,1.11,3,3,0,0,1-1.53.39,2.9,2.9,0,0,1-2.29-.93,4.41,4.41,0,0,1-.82-2.92v-5.28h1.63V168a3.27,3.27,0,0,0,.43,2,1.56,1.56,0,0,0,1.31.54,2.74,2.74,0,0,0,1.44-.35,2.25,2.25,0,0,0,.85-1v-6.46h1.63v9h-1.46Z"/><path d="M367.79,160.49v2.16h1.69v1.21h-1.69v5.44a1.17,1.17,0,0,0,.26.88.9.9,0,0,0,.69.26,1.2,1.2,0,0,0,.31,0,1.48,1.48,0,0,0,.29-.08l.23,1.12a1.7,1.7,0,0,1-.54.25,2.88,2.88,0,0,1-.71.09,2.13,2.13,0,0,1-1.58-.6,2.61,2.61,0,0,1-.58-1.88v-5.44h-1.43v-1.21h1.43v-2.16Z"/><path d="M375.06,167.05a4.93,4.93,0,0,1,1.08-3.28,3.61,3.61,0,0,1,2.92-1.28,3.65,3.65,0,0,1,2.94,1.28,4.93,4.93,0,0,1,1.08,3.28v.18a4.89,4.89,0,0,1-1.08,3.28,4,4,0,0,1-5.86,0,4.88,4.88,0,0,1-1.08-3.27Zm1.63.18a4.25,4.25,0,0,0,.6,2.35,2.16,2.16,0,0,0,3.55,0,4.17,4.17,0,0,0,.61-2.35v-.18a4.16,4.16,0,0,0-.61-2.34,2,2,0,0,0-1.78-.94,2,2,0,0,0-1.77.94,4.24,4.24,0,0,0-.6,2.34Z"/><path d="M385.75,171.61v-7.75h-1.4v-1.21h1.4v-1.13a3.07,3.07,0,0,1,.75-2.21,2.74,2.74,0,0,1,2.09-.79,3.66,3.66,0,0,1,.57,0c.19,0,.4.07.63.13l-.2,1.24-.36-.06a3.17,3.17,0,0,0-.44,0,1.29,1.29,0,0,0-1.06.42,2,2,0,0,0-.35,1.24v1.13H389v1.21h-1.62v7.75Z"/><path d="M400.07,169.2a1.1,1.1,0,0,0-.41-.88,4,4,0,0,0-1.55-.59,6.46,6.46,0,0,1-2.43-1,1.89,1.89,0,0,1-.85-1.63,2.35,2.35,0,0,1,.93-1.87,3.64,3.64,0,0,1,2.41-.78,3.57,3.57,0,0,1,2.47.83,2.35,2.35,0,0,1,.9,1.92v0H400a1.43,1.43,0,0,0-.51-1,2.14,2.14,0,0,0-2.57-.08,1.2,1.2,0,0,0-.43.93,1,1,0,0,0,.37.82,4.08,4.08,0,0,0,1.52.53,6.47,6.47,0,0,1,2.5,1,2,2,0,0,1,.85,1.66,2.36,2.36,0,0,1-1,1.95,4,4,0,0,1-2.52.75,3.91,3.91,0,0,1-2.7-.87,2.47,2.47,0,0,1-.94-2l0,0h1.55a1.54,1.54,0,0,0,.65,1.27,2.57,2.57,0,0,0,1.42.4,2.29,2.29,0,0,0,1.36-.37A1.13,1.13,0,0,0,400.07,169.2Z"/><path d="M407.28,170.51a1.92,1.92,0,0,0,1.32-.5,1.58,1.58,0,0,0,.56-1.23h1.48l0,.05a2.58,2.58,0,0,1-1,2,3.8,3.8,0,0,1-5.3-.38,5,5,0,0,1-1-3.2V167a4.93,4.93,0,0,1,1-3.19,3.51,3.51,0,0,1,2.9-1.28,3.42,3.42,0,0,1,2.46.92,3,3,0,0,1,.92,2.28l0,.05h-1.48a1.93,1.93,0,0,0-.53-1.39,1.74,1.74,0,0,0-1.35-.58,1.89,1.89,0,0,0-1.75.93A4.42,4.42,0,0,0,405,167v.34a4.38,4.38,0,0,0,.55,2.28A1.87,1.87,0,0,0,407.28,170.51Z"/><path d="M414.23,163.85a3.3,3.3,0,0,1,1.14-1,3.1,3.1,0,0,1,1.49-.36,2.91,2.91,0,0,1,2.23.86,3.8,3.8,0,0,1,.8,2.65v5.61h-1.63V166a2.38,2.38,0,0,0-.48-1.64,1.81,1.81,0,0,0-1.42-.53,2.66,2.66,0,0,0-1.26.29,2.23,2.23,0,0,0-.87.8v6.71H412.6V158.7h1.63Z"/><path d="M421.85,167.05a5,5,0,0,1,1.07-3.28,4,4,0,0,1,5.87,0,4.93,4.93,0,0,1,1.08,3.28v.18a4.89,4.89,0,0,1-1.08,3.28,4,4,0,0,1-5.86,0,4.88,4.88,0,0,1-1.08-3.27Zm1.63.18a4.25,4.25,0,0,0,.6,2.35,2.16,2.16,0,0,0,3.55,0,4.17,4.17,0,0,0,.61-2.35v-.18a4.16,4.16,0,0,0-.61-2.34,2,2,0,0,0-1.78-.94,2,2,0,0,0-1.77.94,4.24,4.24,0,0,0-.6,2.34Z"/><path d="M431.48,167.05a4.93,4.93,0,0,1,1.08-3.28,4,4,0,0,1,5.86,0,4.93,4.93,0,0,1,1.08,3.28v.18a4.94,4.94,0,0,1-1.07,3.28,4,4,0,0,1-5.87,0,4.88,4.88,0,0,1-1.08-3.27Zm1.63.18a4.25,4.25,0,0,0,.6,2.35,2.17,2.17,0,0,0,3.56,0,4.25,4.25,0,0,0,.6-2.35v-.18a4.16,4.16,0,0,0-.61-2.34,2.15,2.15,0,0,0-3.55,0,4.24,4.24,0,0,0-.6,2.34Z"/><path d="M443.26,171.61h-1.63V158.7h1.63Z"/><path d="M457.62,167.47a4.91,4.91,0,0,1-.93,3.12,3,3,0,0,1-2.56,1.19,3.31,3.31,0,0,1-1.55-.35,2.85,2.85,0,0,1-1.09-1l-.26,1.22H450V158.7h1.63v5a2.87,2.87,0,0,1,1.05-.91,3.17,3.17,0,0,1,1.46-.31,3,3,0,0,1,2.58,1.32,6,6,0,0,1,.92,3.49ZM456,167.3a5.06,5.06,0,0,0-.56-2.52,1.89,1.89,0,0,0-1.73-1,2.19,2.19,0,0,0-1.27.37,2.66,2.66,0,0,0-.82,1v3.88a2.59,2.59,0,0,0,.82,1,2.12,2.12,0,0,0,1.29.38,1.94,1.94,0,0,0,1.71-.82,3.74,3.74,0,0,0,.56-2.17Z"/><path d="M463.32,171.78a3.79,3.79,0,0,1-3-1.23,4.74,4.74,0,0,1-1.08-3.25v-.36a4.64,4.64,0,0,1,1.11-3.19,3.51,3.51,0,0,1,2.72-1.26,3.25,3.25,0,0,1,2.7,1.12,4.63,4.63,0,0,1,.89,3v.86h-5.72l0,0a3.68,3.68,0,0,0,.6,2.19,2.08,2.08,0,0,0,1.82.84,4,4,0,0,0,1.45-.24,3.2,3.2,0,0,0,1.07-.65l.64,1.06a3.82,3.82,0,0,1-1.27.78A4.85,4.85,0,0,1,463.32,171.78Zm-.26-8a1.76,1.76,0,0,0-1.41.66,3.11,3.11,0,0,0-.68,1.68l0,0h4V166a2.59,2.59,0,0,0-.48-1.61A1.72,1.72,0,0,0,463.06,163.77Z"/><path d="M469.94,162.65l.11,1.34a3.24,3.24,0,0,1,1.13-1.11,3,3,0,0,1,1.53-.39,2.9,2.9,0,0,1,2.24.85,3.7,3.7,0,0,1,.8,2.62v5.65h-1.63V166a2.43,2.43,0,0,0-.47-1.68,1.88,1.88,0,0,0-1.43-.5,2.55,2.55,0,0,0-1.28.3,2.33,2.33,0,0,0-.83.85v6.65h-1.63v-9Z"/><path d="M481.82,171.78a3.8,3.8,0,0,1-3-1.23,4.74,4.74,0,0,1-1.08-3.25v-.36a4.65,4.65,0,0,1,1.12-3.19,3.49,3.49,0,0,1,2.72-1.26,3.24,3.24,0,0,1,2.69,1.12,4.58,4.58,0,0,1,.9,3v.86h-5.73l0,0a3.68,3.68,0,0,0,.59,2.19,2.09,2.09,0,0,0,1.82.84,4,4,0,0,0,1.45-.24,3.24,3.24,0,0,0,1.08-.65l.63,1.06a3.87,3.87,0,0,1-1.26.78A4.94,4.94,0,0,1,481.82,171.78Zm-.25-8a1.8,1.8,0,0,0-1.42.66,3.19,3.19,0,0,0-.68,1.68l0,0h4V166a2.59,2.59,0,0,0-.48-1.61A1.73,1.73,0,0,0,481.57,163.77Z"/><path d="M487.44,171.61v-7.75H486v-1.21h1.41v-1a3,3,0,0,1,.88-2.34,3.46,3.46,0,0,1,2.45-.83,5,5,0,0,1,1.09.13c.36.09.78.21,1.27.38l-.29,1.32a7.81,7.81,0,0,0-.93-.29,3.86,3.86,0,0,0-1-.13,1.88,1.88,0,0,0-1.39.43,1.8,1.8,0,0,0-.43,1.33v1h1.78v1.21h-1.78v7.75Zm6.48,0h-1.64v-9h1.64Z"/><path d="M498.69,160.49v2.16h1.69v1.21h-1.69v5.44a1.17,1.17,0,0,0,.26.88.9.9,0,0,0,.69.26,1.2,1.2,0,0,0,.31,0,1.3,1.3,0,0,0,.29-.08l.23,1.12a1.51,1.51,0,0,1-.54.25,2.88,2.88,0,0,1-.71.09,2.13,2.13,0,0,1-1.58-.6,2.61,2.61,0,0,1-.58-1.88v-5.44h-1.43v-1.21h1.43v-2.16Z"/><path d="M504.4,160.49v2.16h1.69v1.21H504.4v5.44a1.17,1.17,0,0,0,.26.88.9.9,0,0,0,.69.26,1.2,1.2,0,0,0,.31,0,1.3,1.3,0,0,0,.29-.08l.23,1.12a1.51,1.51,0,0,1-.54.25,2.86,2.86,0,0,1-.7.09,2.13,2.13,0,0,1-1.59-.6,2.61,2.61,0,0,1-.58-1.88v-5.44h-1.43v-1.21h1.43v-2.16Z"/><path d="M511.55,171.78a3.79,3.79,0,0,1-3-1.23,4.74,4.74,0,0,1-1.08-3.25v-.36a4.64,4.64,0,0,1,1.11-3.19,3.49,3.49,0,0,1,2.72-1.26,3.21,3.21,0,0,1,2.69,1.12,4.58,4.58,0,0,1,.9,3v.86h-5.72l0,0a3.68,3.68,0,0,0,.6,2.19,2.07,2.07,0,0,0,1.82.84,4,4,0,0,0,1.45-.24,3.2,3.2,0,0,0,1.07-.65l.64,1.06a3.82,3.82,0,0,1-1.27.78A4.85,4.85,0,0,1,511.55,171.78Zm-.26-8a1.76,1.76,0,0,0-1.41.66,3.11,3.11,0,0,0-.68,1.68v0h4V166a2.59,2.59,0,0,0-.48-1.61A1.72,1.72,0,0,0,511.29,163.77Z"/><path d="M516.34,167.3a6,6,0,0,1,.92-3.49,3,3,0,0,1,2.59-1.32,3.09,3.09,0,0,1,1.39.29,2.81,2.81,0,0,1,1,.84V158.7h1.63v12.91h-1.25l-.25-1.14a2.89,2.89,0,0,1-1.08,1,3.25,3.25,0,0,1-1.5.33,3,3,0,0,1-2.56-1.19,4.91,4.91,0,0,1-.93-3.12Zm1.63.17a3.79,3.79,0,0,0,.55,2.17,1.94,1.94,0,0,0,1.73.82,2.16,2.16,0,0,0,1.22-.33,2.47,2.47,0,0,0,.81-.93V165a2.55,2.55,0,0,0-.81-.88,2.17,2.17,0,0,0-1.21-.33,1.87,1.87,0,0,0-1.73,1,5,5,0,0,0-.56,2.52Z"/><path d="M531.23,171.61v-7.75h-1.39v-1.21h1.39v-1.13a3.07,3.07,0,0,1,.75-2.21,2.74,2.74,0,0,1,2.09-.79,3.66,3.66,0,0,1,.57,0c.19,0,.4.07.63.13l-.2,1.24-.36-.06a3.1,3.1,0,0,0-.44,0,1.3,1.3,0,0,0-1.06.42,2,2,0,0,0-.34,1.24v1.13h1.62v1.21h-1.62v7.75Z"/><path d="M540.37,164.09l-.84-.05a1.86,1.86,0,0,0-1.08.31,1.92,1.92,0,0,0-.69.86v6.4h-1.63v-9h1.46l.16,1.31a3,3,0,0,1,.94-1.08,2.18,2.18,0,0,1,1.28-.39,2,2,0,0,1,.35,0l.27.06Z"/><path d="M541.52,167.05a4.93,4.93,0,0,1,1.08-3.28,3.61,3.61,0,0,1,2.92-1.28,3.65,3.65,0,0,1,2.94,1.28,4.93,4.93,0,0,1,1.08,3.28v.18a4.89,4.89,0,0,1-1.08,3.28,4,4,0,0,1-5.86,0,4.88,4.88,0,0,1-1.08-3.27Zm1.63.18a4.25,4.25,0,0,0,.6,2.35,2.17,2.17,0,0,0,3.56,0,4.25,4.25,0,0,0,.6-2.35v-.18a4.16,4.16,0,0,0-.61-2.34,2.15,2.15,0,0,0-3.55,0,4.24,4.24,0,0,0-.6,2.34Z"/><path d="M553,162.65l.12,1.18a2.93,2.93,0,0,1,1.11-1,3.4,3.4,0,0,1,1.57-.35,2.8,2.8,0,0,1,1.53.41,2.55,2.55,0,0,1,1,1.24,3.35,3.35,0,0,1,1.12-1.21,3,3,0,0,1,1.62-.44,2.67,2.67,0,0,1,2.16.94,4.27,4.27,0,0,1,.79,2.82v5.36h-1.63v-5.37a3,3,0,0,0-.45-1.88,1.7,1.7,0,0,0-1.36-.55,1.73,1.73,0,0,0-1.35.58,2.51,2.51,0,0,0-.61,1.47v5.75h-1.64v-5.37a2.92,2.92,0,0,0-.47-1.84,1.62,1.62,0,0,0-1.34-.59,2.2,2.2,0,0,0-1.23.31,1.93,1.93,0,0,0-.73.86v6.63h-1.64v-9Z"/><path d="M271.34,190.84a1.91,1.91,0,0,0,1.32-.5,1.58,1.58,0,0,0,.56-1.22h1.47l0,0a2.57,2.57,0,0,1-1,2.06,3.79,3.79,0,0,1-5.29-.38,4.93,4.93,0,0,1-1-3.2v-.35a4.92,4.92,0,0,1,1-3.18,3.51,3.51,0,0,1,2.91-1.28,3.34,3.34,0,0,1,2.45.92,3,3,0,0,1,.93,2.28l0,.05h-1.48a2,2,0,0,0-.54-1.4,1.75,1.75,0,0,0-1.34-.57,1.89,1.89,0,0,0-1.75.93,4.31,4.31,0,0,0-.55,2.25v.35a4.47,4.47,0,0,0,.54,2.28A1.87,1.87,0,0,0,271.34,190.84Z"/><path d="M278.28,184.19a3.3,3.3,0,0,1,1.14-1,3.13,3.13,0,0,1,1.49-.36,2.86,2.86,0,0,1,2.23.86,3.72,3.72,0,0,1,.8,2.64V192h-1.63v-5.63a2.43,2.43,0,0,0-.47-1.64,1.83,1.83,0,0,0-1.42-.53,2.68,2.68,0,0,0-1.27.29,2.28,2.28,0,0,0-.87.79V192h-1.63V179h1.63Z"/><path d="M288.05,180.7h-1.63V179h1.63Zm0,11.25h-1.63v-9h1.63Z"/><path d="M292.32,192h-1.63V179h1.63Z"/><path d="M294.45,187.63a5.92,5.92,0,0,1,.93-3.48,3,3,0,0,1,2.58-1.32,3.13,3.13,0,0,1,1.4.29,2.77,2.77,0,0,1,1,.84V179H302V192h-1.25l-.25-1.14a3,3,0,0,1-1.09,1,3.24,3.24,0,0,1-1.49.33,3.08,3.08,0,0,1-2.57-1.19,4.91,4.91,0,0,1-.93-3.12Zm1.63.18a3.79,3.79,0,0,0,.56,2.17,1.94,1.94,0,0,0,1.72.81,2.16,2.16,0,0,0,1.22-.33,2.42,2.42,0,0,0,.81-.92v-4.18a2.37,2.37,0,0,0-.81-.88,2.14,2.14,0,0,0-1.2-.33,1.86,1.86,0,0,0-1.74,1,5,5,0,0,0-.56,2.51Z"/><path d="M309.54,187.49h-4.88v-1.27h4.88Z"/><path d="M315.65,190.84a1.89,1.89,0,0,0,1.32-.5,1.55,1.55,0,0,0,.56-1.22H319l0,0a2.58,2.58,0,0,1-1,2.06,3.8,3.8,0,0,1-5.3-.38,5,5,0,0,1-1-3.2v-.35a4.92,4.92,0,0,1,1-3.18,3.48,3.48,0,0,1,2.9-1.28,3.38,3.38,0,0,1,2.46.92A3,3,0,0,1,319,186l0,.05h-1.48a2,2,0,0,0-.53-1.4,1.77,1.77,0,0,0-1.35-.57,1.89,1.89,0,0,0-1.75.93,4.41,4.41,0,0,0-.55,2.25v.35a4.38,4.38,0,0,0,.55,2.28A1.86,1.86,0,0,0,315.65,190.84Z"/><path d="M324.67,192.12a3.78,3.78,0,0,1-3-1.23,4.78,4.78,0,0,1-1.08-3.25v-.36a4.64,4.64,0,0,1,1.11-3.19,3.49,3.49,0,0,1,2.72-1.26,3.25,3.25,0,0,1,2.69,1.11,4.61,4.61,0,0,1,.9,3v.86h-5.73l0,0a3.72,3.72,0,0,0,.59,2.18,2.09,2.09,0,0,0,1.82.84,4.07,4.07,0,0,0,1.46-.23,3.48,3.48,0,0,0,1.07-.65l.64,1.06a3.92,3.92,0,0,1-1.27.78A5.1,5.1,0,0,1,324.67,192.12Zm-.25-8a1.76,1.76,0,0,0-1.41.66,3.09,3.09,0,0,0-.69,1.68l0,0h4v-.13a2.59,2.59,0,0,0-.48-1.61A1.72,1.72,0,0,0,324.42,184.11Z"/><path d="M331.29,183l.12,1.33a3.27,3.27,0,0,1,1.12-1.1,3,3,0,0,1,1.54-.39,2.94,2.94,0,0,1,2.24.84,3.73,3.73,0,0,1,.79,2.62V192h-1.63v-5.62a2.43,2.43,0,0,0-.46-1.68,1.88,1.88,0,0,0-1.43-.5,2.55,2.55,0,0,0-1.28.3,2.19,2.19,0,0,0-.83.85V192h-1.63v-9Z"/><path d="M341.74,180.83V183h1.69v1.21h-1.69v5.44a1.22,1.22,0,0,0,.26.88.94.94,0,0,0,.69.26,1.33,1.33,0,0,0,.32,0,1.36,1.36,0,0,0,.28-.08l.23,1.12a1.36,1.36,0,0,1-.54.24,2.47,2.47,0,0,1-.7.1,2.11,2.11,0,0,1-1.58-.6,2.57,2.57,0,0,1-.59-1.88V184.2h-1.43V183h1.43v-2.16Z"/><path d="M349.42,184.43l-.84-.05a1.84,1.84,0,0,0-1.09.31,2,2,0,0,0-.68.86V192h-1.63v-9h1.46l.16,1.31a3.13,3.13,0,0,1,.93-1.09,2.3,2.3,0,0,1,1.29-.38l.35,0a1.31,1.31,0,0,1,.27.07Z"/><path d="M354.67,192.12a3.79,3.79,0,0,1-3-1.23,4.78,4.78,0,0,1-1.08-3.25v-.36a4.64,4.64,0,0,1,1.11-3.19,3.49,3.49,0,0,1,2.72-1.26,3.25,3.25,0,0,1,2.69,1.11,4.61,4.61,0,0,1,.9,3v.86h-5.73l0,0a3.65,3.65,0,0,0,.6,2.18,2.07,2.07,0,0,0,1.82.84,4,4,0,0,0,1.45-.23,3.48,3.48,0,0,0,1.07-.65l.64,1.06a3.92,3.92,0,0,1-1.27.78A5.08,5.08,0,0,1,354.67,192.12Zm-.26-8a1.76,1.76,0,0,0-1.41.66,3.08,3.08,0,0,0-.68,1.68v0h4v-.13a2.59,2.59,0,0,0-.48-1.61A1.72,1.72,0,0,0,354.41,184.11Z"/><path d="M359.46,187.63a5.92,5.92,0,0,1,.92-3.48,3,3,0,0,1,2.59-1.32,3.12,3.12,0,0,1,1.39.29,2.81,2.81,0,0,1,1,.84V179H367V192h-1.25l-.25-1.14a2.89,2.89,0,0,1-1.08,1,3.25,3.25,0,0,1-1.5.33,3.09,3.09,0,0,1-2.57-1.19,5,5,0,0,1-.92-3.12Zm1.63.18a3.79,3.79,0,0,0,.55,2.17,2,2,0,0,0,1.72.81,2.17,2.17,0,0,0,1.23-.33,2.51,2.51,0,0,0,.81-.92v-4.18a2.4,2.4,0,0,0-.82-.88,2.11,2.11,0,0,0-1.2-.33,1.85,1.85,0,0,0-1.73,1,4.89,4.89,0,0,0-.56,2.51Z"/><path d="M381.3,187.81a4.91,4.91,0,0,1-.92,3.12,3.07,3.07,0,0,1-2.56,1.19,3.44,3.44,0,0,1-1.45-.28,2.77,2.77,0,0,1-1.07-.83v4.38h-1.63V183h1.25l.26,1.16a3,3,0,0,1,1.09-1,3.38,3.38,0,0,1,1.53-.33,3,3,0,0,1,2.58,1.32,5.92,5.92,0,0,1,.92,3.48Zm-1.63-.18a4.72,4.72,0,0,0-.6-2.5,2,2,0,0,0-1.76-1,2.19,2.19,0,0,0-1.2.32,2.43,2.43,0,0,0-.81.87v4.33a2.32,2.32,0,0,0,.81.86,2.2,2.2,0,0,0,1.21.31,2,2,0,0,0,1.76-.84,3.8,3.8,0,0,0,.59-2.19Z"/><path d="M385.07,192h-1.63V179h1.63Z"/><path d="M393.08,192c-.06-.27-.1-.51-.13-.72a4.46,4.46,0,0,1-.05-.63,3.87,3.87,0,0,1-1.19,1.08,3,3,0,0,1-1.58.44,2.92,2.92,0,0,1-2.13-.72,2.6,2.6,0,0,1-.73-2,2.33,2.33,0,0,1,1-2,4.87,4.87,0,0,1,2.82-.72h1.77v-.89a1.63,1.63,0,0,0-.48-1.24,1.87,1.87,0,0,0-1.36-.46,1.92,1.92,0,0,0-1.28.4,1.17,1.17,0,0,0-.49,1h-1.55l0-.05a2.16,2.16,0,0,1,.92-1.78,3.78,3.78,0,0,1,2.51-.81,3.67,3.67,0,0,1,2.45.77,2.74,2.74,0,0,1,.93,2.23v4.31a7.06,7.06,0,0,0,.05.93,4.44,4.44,0,0,0,.18.88Zm-2.71-1.2a2.93,2.93,0,0,0,1.6-.45,2.26,2.26,0,0,0,.93-1V187.8h-1.83a2.34,2.34,0,0,0-1.58.5,1.49,1.49,0,0,0-.59,1.16,1.24,1.24,0,0,0,.37.95A1.58,1.58,0,0,0,390.37,190.75Z"/><path d="M398.35,183l.12,1.33a3.18,3.18,0,0,1,1.12-1.1,3,3,0,0,1,1.53-.39,3,3,0,0,1,2.25.84,3.73,3.73,0,0,1,.79,2.62V192h-1.63v-5.62a2.43,2.43,0,0,0-.47-1.68,1.88,1.88,0,0,0-1.43-.5,2.51,2.51,0,0,0-1.27.3,2.19,2.19,0,0,0-.83.85V192h-1.64v-9Z"/><path d="M408,183l.12,1.33a3.27,3.27,0,0,1,1.12-1.1,3,3,0,0,1,1.54-.39,2.94,2.94,0,0,1,2.24.84,3.73,3.73,0,0,1,.79,2.62V192h-1.63v-5.62a2.43,2.43,0,0,0-.46-1.68,1.9,1.9,0,0,0-1.43-.5,2.55,2.55,0,0,0-1.28.3,2.19,2.19,0,0,0-.83.85V192h-1.63v-9Z"/><path d="M417.92,180.7h-1.63V179h1.63Zm0,11.25h-1.63v-9h1.63Z"/><path d="M421.89,183l.11,1.33a3.27,3.27,0,0,1,1.12-1.1,3,3,0,0,1,1.54-.39,2.94,2.94,0,0,1,2.24.84,3.73,3.73,0,0,1,.8,2.62V192h-1.63v-5.62a2.43,2.43,0,0,0-.47-1.68,1.88,1.88,0,0,0-1.43-.5,2.55,2.55,0,0,0-1.28.3,2.19,2.19,0,0,0-.83.85V192h-1.63v-9Z"/><path d="M429.77,187.63a5.92,5.92,0,0,1,.93-3.48,3,3,0,0,1,2.57-1.32,3,3,0,0,1,2.59,1.33l.19-1.17h1.3v9a3.42,3.42,0,0,1-1,2.65,4.14,4.14,0,0,1-2.89.92,6,6,0,0,1-1.39-.18,5.67,5.67,0,0,1-1.32-.48l.25-1.27a4.33,4.33,0,0,0,1.14.4,5.4,5.4,0,0,0,1.31.16,2.38,2.38,0,0,0,1.73-.54,2.29,2.29,0,0,0,.54-1.66v-1a2.86,2.86,0,0,1-1.05.85,3.32,3.32,0,0,1-1.41.29,3,3,0,0,1-2.56-1.19,4.91,4.91,0,0,1-.93-3.12Zm1.63.18A3.82,3.82,0,0,0,432,190a1.93,1.93,0,0,0,1.71.81,2.17,2.17,0,0,0,1.23-.33,2.4,2.4,0,0,0,.82-1v-4.12a2.46,2.46,0,0,0-.82-.9,2.08,2.08,0,0,0-1.21-.34,1.86,1.86,0,0,0-1.73,1,5,5,0,0,0-.56,2.51Z"/><path d="M449.41,192c-.06-.27-.1-.51-.13-.72a4.46,4.46,0,0,1,0-.63,3.76,3.76,0,0,1-1.19,1.08,3,3,0,0,1-1.58.44,2.92,2.92,0,0,1-2.13-.72,2.64,2.64,0,0,1-.73-2,2.33,2.33,0,0,1,1-2,4.87,4.87,0,0,1,2.82-.72h1.77v-.89a1.63,1.63,0,0,0-.48-1.24,1.87,1.87,0,0,0-1.36-.46,1.92,1.92,0,0,0-1.28.4,1.17,1.17,0,0,0-.49,1h-1.55v-.05a2.12,2.12,0,0,1,.91-1.78,3.8,3.8,0,0,1,2.51-.81,3.67,3.67,0,0,1,2.45.77,2.74,2.74,0,0,1,.93,2.23v4.31c0,.32,0,.63.05.93a4.44,4.44,0,0,0,.18.88Zm-2.71-1.2a2.93,2.93,0,0,0,1.6-.45,2.21,2.21,0,0,0,.93-1V187.8H447.4a2.34,2.34,0,0,0-1.58.5,1.49,1.49,0,0,0-.59,1.16,1.28,1.28,0,0,0,.37.95A1.58,1.58,0,0,0,446.7,190.75Z"/><path d="M454.68,183l.12,1.33a3.27,3.27,0,0,1,1.12-1.1,3,3,0,0,1,1.53-.39,3,3,0,0,1,2.25.84,3.73,3.73,0,0,1,.79,2.62V192h-1.63v-5.62a2.38,2.38,0,0,0-.47-1.68,1.86,1.86,0,0,0-1.42-.5,2.53,2.53,0,0,0-1.28.3,2.19,2.19,0,0,0-.83.85V192h-1.63v-9Z"/><path d="M462.49,187.63a5.92,5.92,0,0,1,.92-3.48,3,3,0,0,1,2.58-1.32,3.13,3.13,0,0,1,1.4.29,2.89,2.89,0,0,1,1,.84V179h1.63V192h-1.25l-.25-1.14a2.89,2.89,0,0,1-1.08,1,3.25,3.25,0,0,1-1.5.33,3.09,3.09,0,0,1-2.57-1.19,4.91,4.91,0,0,1-.92-3.12Zm1.63.18a3.79,3.79,0,0,0,.55,2.17,1.94,1.94,0,0,0,1.72.81,2.17,2.17,0,0,0,1.23-.33,2.51,2.51,0,0,0,.81-.92v-4.18a2.4,2.4,0,0,0-.82-.88,2.11,2.11,0,0,0-1.2-.33,1.88,1.88,0,0,0-1.74,1,5,5,0,0,0-.55,2.51Z"/><path d="M484.35,187.81a4.91,4.91,0,0,1-.93,3.12,3.09,3.09,0,0,1-2.56,1.19,3.25,3.25,0,0,1-1.55-.35,2.86,2.86,0,0,1-1.09-1L478,192H476.7V179h1.63v5a2.78,2.78,0,0,1,1.05-.91,3.2,3.2,0,0,1,1.46-.31,3,3,0,0,1,2.58,1.32,5.92,5.92,0,0,1,.93,3.48Zm-1.63-.18a4.93,4.93,0,0,0-.57-2.51,1.86,1.86,0,0,0-1.72-1,2.1,2.1,0,0,0-1.27.37,2.54,2.54,0,0,0-.83,1v3.88a2.68,2.68,0,0,0,.83,1,2.11,2.11,0,0,0,1.28.37,2,2,0,0,0,1.72-.81,3.82,3.82,0,0,0,.56-2.17Z"/><path d="M492,190.62a3,3,0,0,1-1.08,1.11,3,3,0,0,1-1.53.39,2.87,2.87,0,0,1-2.29-.94,4.36,4.36,0,0,1-.82-2.91V183h1.63v5.3a3.27,3.27,0,0,0,.43,2,1.54,1.54,0,0,0,1.31.53,2.65,2.65,0,0,0,1.44-.35,2.18,2.18,0,0,0,.85-1V183h1.63v9h-1.46Z"/><path d="M495.6,187.63a5.92,5.92,0,0,1,.92-3.48,3,3,0,0,1,2.58-1.32,3.13,3.13,0,0,1,1.4.29,2.89,2.89,0,0,1,1,.84V179h1.63V192h-1.25l-.25-1.14a2.89,2.89,0,0,1-1.08,1,3.25,3.25,0,0,1-1.5.33,3.09,3.09,0,0,1-2.57-1.19,4.91,4.91,0,0,1-.92-3.12Zm1.63.18a3.79,3.79,0,0,0,.55,2.17,1.94,1.94,0,0,0,1.72.81,2.17,2.17,0,0,0,1.23-.33,2.51,2.51,0,0,0,.81-.92v-4.18a2.4,2.4,0,0,0-.82-.88,2.11,2.11,0,0,0-1.2-.33,1.88,1.88,0,0,0-1.74,1,5,5,0,0,0-.55,2.51Z"/><path d="M505.31,187.63a6,6,0,0,1,.92-3.48,3,3,0,0,1,2.58-1.32,3.13,3.13,0,0,1,1.5.34,3,3,0,0,1,1.08,1l.2-1.17h1.3v9a3.42,3.42,0,0,1-1,2.65,4.14,4.14,0,0,1-2.89.92,6,6,0,0,1-1.39-.18,5.67,5.67,0,0,1-1.32-.48l.25-1.27a4.38,4.38,0,0,0,1.13.4,5.54,5.54,0,0,0,1.32.16,2.38,2.38,0,0,0,1.73-.54,2.29,2.29,0,0,0,.54-1.66v-1a2.86,2.86,0,0,1-1.05.85,3.32,3.32,0,0,1-1.41.29,3.08,3.08,0,0,1-2.57-1.19,5,5,0,0,1-.92-3.12Zm1.63.18a3.82,3.82,0,0,0,.56,2.17,1.93,1.93,0,0,0,1.71.81,2.17,2.17,0,0,0,1.23-.33,2.48,2.48,0,0,0,.82-1v-4.12a2.46,2.46,0,0,0-.82-.9,2.08,2.08,0,0,0-1.21-.34,1.85,1.85,0,0,0-1.73,1,5,5,0,0,0-.56,2.51Z"/><path d="M518.94,192.12a3.79,3.79,0,0,1-3-1.23,4.78,4.78,0,0,1-1.08-3.25v-.36a4.6,4.6,0,0,1,1.12-3.19,3.47,3.47,0,0,1,2.71-1.26,3.27,3.27,0,0,1,2.7,1.11,4.61,4.61,0,0,1,.9,3v.86h-5.73l0,0a3.65,3.65,0,0,0,.6,2.18,2.08,2.08,0,0,0,1.82.84,4,4,0,0,0,1.45-.23,3.26,3.26,0,0,0,1.07-.65l.64,1.06a3.87,3.87,0,0,1-1.26.78A5.14,5.14,0,0,1,518.94,192.12Zm-.26-8a1.79,1.79,0,0,0-1.41.66,3.08,3.08,0,0,0-.68,1.68l0,0h4v-.13a2.59,2.59,0,0,0-.48-1.61A1.74,1.74,0,0,0,518.68,184.11Z"/><path d="M526.37,180.83V183h1.7v1.21h-1.7v5.44a1.22,1.22,0,0,0,.26.88,1,1,0,0,0,.69.26,1.27,1.27,0,0,0,.32,0,1.71,1.71,0,0,0,.29-.08l.22,1.12a1.36,1.36,0,0,1-.54.24,2.42,2.42,0,0,1-.7.1,2.11,2.11,0,0,1-1.58-.6,2.61,2.61,0,0,1-.59-1.88V184.2h-1.42V183h1.42v-2.16Z"/><path d="M531.58,180.7H530V179h1.63Zm0,11.25H530v-9h1.63Z"/><path d="M535.54,183l.12,1.33a3.27,3.27,0,0,1,1.12-1.1,3,3,0,0,1,1.53-.39,3,3,0,0,1,2.25.84,3.73,3.73,0,0,1,.79,2.62V192h-1.63v-5.62a2.43,2.43,0,0,0-.47-1.68,1.86,1.86,0,0,0-1.42-.5,2.53,2.53,0,0,0-1.28.3,2.19,2.19,0,0,0-.83.85V192h-1.63v-9Z"/><path d="M543.43,187.63a6,6,0,0,1,.92-3.48,3,3,0,0,1,2.58-1.32,3.13,3.13,0,0,1,1.5.34,3,3,0,0,1,1.08,1l.2-1.17H551v9a3.46,3.46,0,0,1-1,2.65,4.14,4.14,0,0,1-2.89.92,6.39,6.39,0,0,1-2.72-.66l.25-1.27a4.6,4.6,0,0,0,1.14.4,5.4,5.4,0,0,0,1.31.16,2.39,2.39,0,0,0,1.74-.54,2.29,2.29,0,0,0,.54-1.66v-1a2.86,2.86,0,0,1-1,.85,3.33,3.33,0,0,1-1.42.29,3.07,3.07,0,0,1-2.56-1.19,5,5,0,0,1-.92-3.12Zm1.63.18a3.82,3.82,0,0,0,.55,2.17,1.94,1.94,0,0,0,1.72.81,2.17,2.17,0,0,0,1.23-.33,2.57,2.57,0,0,0,.82-1v-4.12a2.46,2.46,0,0,0-.82-.9,2.11,2.11,0,0,0-1.22-.34,1.84,1.84,0,0,0-1.72,1,4.89,4.89,0,0,0-.56,2.51Z"/><path d="M310.69,212.28v-7.74H309.3v-1.21h1.39V202.2a3.07,3.07,0,0,1,.75-2.22,2.77,2.77,0,0,1,2.09-.78,3.64,3.64,0,0,1,.57,0l.63.13-.2,1.24-.36-.05a3,3,0,0,0-.44,0,1.28,1.28,0,0,0-1.06.43,1.91,1.91,0,0,0-.35,1.24v1.13H314v1.21h-1.63v7.74Z"/><path d="M315.21,207.72a4.92,4.92,0,0,1,1.08-3.27,4,4,0,0,1,5.86,0,4.88,4.88,0,0,1,1.08,3.27v.19a4.93,4.93,0,0,1-1.07,3.27,4,4,0,0,1-5.87,0,4.88,4.88,0,0,1-1.08-3.27Zm1.63.19a4.27,4.27,0,0,0,.6,2.35,2.18,2.18,0,0,0,3.56,0,4.27,4.27,0,0,0,.6-2.35v-.19a4.2,4.2,0,0,0-.61-2.34,2.16,2.16,0,0,0-3.55,0,4.28,4.28,0,0,0-.6,2.34Z"/><path d="M329.46,204.77l-.83-.05a1.82,1.82,0,0,0-1.09.31,1.9,1.9,0,0,0-.68.86v6.39h-1.63v-8.95h1.45l.16,1.31a3.07,3.07,0,0,1,.94-1.09,2.18,2.18,0,0,1,1.28-.39,1.9,1.9,0,0,1,.35,0l.28.06Z"/><path d="M335,207.72a4.92,4.92,0,0,1,1.08-3.27,3.59,3.59,0,0,1,2.92-1.29,3.63,3.63,0,0,1,2.94,1.29,4.88,4.88,0,0,1,1.08,3.27v.19a4.88,4.88,0,0,1-1.08,3.27,4,4,0,0,1-5.86,0,4.88,4.88,0,0,1-1.08-3.27Zm1.63.19a4.27,4.27,0,0,0,.6,2.35,2.18,2.18,0,0,0,3.56,0,4.27,4.27,0,0,0,.6-2.35v-.19a4.2,4.2,0,0,0-.61-2.34,2.16,2.16,0,0,0-3.55,0,4.28,4.28,0,0,0-.6,2.34Z"/><path d="M350.69,211a2.88,2.88,0,0,1-2.62,1.5,2.86,2.86,0,0,1-2.28-.94,4.3,4.3,0,0,1-.82-2.91v-5.28h1.63v5.3a3.3,3.3,0,0,0,.42,2,1.57,1.57,0,0,0,1.32.54,2.59,2.59,0,0,0,1.43-.35,2.16,2.16,0,0,0,.86-1v-6.45h1.63v8.95H350.8Z"/><path d="M356.9,201.17v2.16h1.7v1.21h-1.7V210a1.2,1.2,0,0,0,.27.89.94.94,0,0,0,.69.26,2,2,0,0,0,.31,0l.29-.08.22,1.12a1.38,1.38,0,0,1-.53.24,3,3,0,0,1-.71.1,2.11,2.11,0,0,1-1.58-.6,2.63,2.63,0,0,1-.59-1.89v-5.43h-1.42v-1.21h1.42v-2.16Z"/><path d="M365.43,207.83h-4.89v-1.27h4.89Z"/><path d="M367.6,207.72a4.92,4.92,0,0,1,1.08-3.27,4,4,0,0,1,5.86,0,4.88,4.88,0,0,1,1.08,3.27v.19a4.93,4.93,0,0,1-1.07,3.27,4,4,0,0,1-5.87,0,4.88,4.88,0,0,1-1.08-3.27Zm1.63.19a4.27,4.27,0,0,0,.6,2.35,2,2,0,0,0,1.79.92,2,2,0,0,0,1.77-.92,4.27,4.27,0,0,0,.6-2.35v-.19a4.2,4.2,0,0,0-.61-2.34,2.16,2.16,0,0,0-3.55,0,4.28,4.28,0,0,0-.6,2.34Z"/><path d="M378.3,212.28v-7.74h-1.4v-1.21h1.4V202.2A3.12,3.12,0,0,1,379,200a2.77,2.77,0,0,1,2.09-.78,3.64,3.64,0,0,1,.57,0l.64.13-.2,1.24-.36-.05a3.19,3.19,0,0,0-.45,0,1.29,1.29,0,0,0-1.06.43,1.91,1.91,0,0,0-.34,1.24v1.13h1.62v1.21h-1.62v7.74Z"/><path d="M388.28,207.83h-4.89v-1.27h4.89Z"/><path d="M396,209.87a1.09,1.09,0,0,0-.41-.87,3.85,3.85,0,0,0-1.55-.6,6.31,6.31,0,0,1-2.43-1,1.91,1.91,0,0,1-.85-1.64,2.36,2.36,0,0,1,.93-1.87,4.1,4.1,0,0,1,4.88.05,2.37,2.37,0,0,1,.9,1.93l0,.05h-1.55a1.39,1.39,0,0,0-.51-1.05,1.8,1.8,0,0,0-1.29-.47,1.83,1.83,0,0,0-1.28.39,1.17,1.17,0,0,0-.43.92,1,1,0,0,0,.37.82,4.08,4.08,0,0,0,1.52.53,6.31,6.31,0,0,1,2.5,1,2,2,0,0,1,.85,1.66,2.36,2.36,0,0,1-1,1.94,4,4,0,0,1-2.53.76,3.9,3.9,0,0,1-2.69-.87,2.49,2.49,0,0,1-.94-2l0-.05h1.55a1.53,1.53,0,0,0,.65,1.27,2.46,2.46,0,0,0,1.41.4,2.23,2.23,0,0,0,1.37-.37A1.13,1.13,0,0,0,396,209.87Z"/><path d="M403.26,211.18a1.87,1.87,0,0,0,1.31-.5,1.55,1.55,0,0,0,.56-1.23h1.48l0,.05a2.58,2.58,0,0,1-1,2.06,3.79,3.79,0,0,1-5.3-.39,5,5,0,0,1-1-3.19v-.35a4.92,4.92,0,0,1,1-3.18,3.49,3.49,0,0,1,2.91-1.29,3.38,3.38,0,0,1,2.45.93,3,3,0,0,1,.92,2.28l0,0h-1.48a2,2,0,0,0-.53-1.4,1.76,1.76,0,0,0-1.34-.57,1.89,1.89,0,0,0-1.76.93,4.41,4.41,0,0,0-.55,2.25V208a4.38,4.38,0,0,0,.55,2.28A1.88,1.88,0,0,0,403.26,211.18Z"/><path d="M410.2,204.53a3.33,3.33,0,0,1,1.14-1,3.1,3.1,0,0,1,1.49-.36,2.91,2.91,0,0,1,2.23.86,3.82,3.82,0,0,1,.8,2.65v5.61h-1.63v-5.62a2.38,2.38,0,0,0-.48-1.64,1.78,1.78,0,0,0-1.42-.53,2.63,2.63,0,0,0-1.26.28,2.31,2.31,0,0,0-.87.8v6.71h-1.63V199.37h1.63Z"/><path d="M417.82,207.72a4.92,4.92,0,0,1,1.08-3.27,3.59,3.59,0,0,1,2.92-1.29,3.63,3.63,0,0,1,2.94,1.29,4.88,4.88,0,0,1,1.08,3.27v.19a4.88,4.88,0,0,1-1.08,3.27,4,4,0,0,1-5.86,0,4.88,4.88,0,0,1-1.08-3.27Zm1.63.19a4.27,4.27,0,0,0,.6,2.35,2.17,2.17,0,0,0,3.55,0,4.19,4.19,0,0,0,.61-2.35v-.19a4.2,4.2,0,0,0-.61-2.34,2,2,0,0,0-1.78-.93,2,2,0,0,0-1.77.93,4.28,4.28,0,0,0-.6,2.34Z"/><path d="M427.45,207.72a4.92,4.92,0,0,1,1.08-3.27,4,4,0,0,1,5.86,0,4.88,4.88,0,0,1,1.08,3.27v.19a4.93,4.93,0,0,1-1.07,3.27,4,4,0,0,1-5.87,0,4.88,4.88,0,0,1-1.08-3.27Zm1.63.19a4.27,4.27,0,0,0,.6,2.35,2.18,2.18,0,0,0,3.56,0,4.27,4.27,0,0,0,.6-2.35v-.19a4.2,4.2,0,0,0-.61-2.34,2.16,2.16,0,0,0-3.55,0,4.28,4.28,0,0,0-.6,2.34Z"/><path d="M439.23,212.28H437.6V199.37h1.63Z"/><path d="M449.51,211.18a1.87,1.87,0,0,0,1.31-.5,1.56,1.56,0,0,0,.57-1.23h1.47l0,.05a2.56,2.56,0,0,1-1,2.06,3.79,3.79,0,0,1-5.3-.39,5,5,0,0,1-1-3.19v-.35a4.92,4.92,0,0,1,1-3.18,3.49,3.49,0,0,1,2.91-1.29,3.37,3.37,0,0,1,2.45.93,2.91,2.91,0,0,1,.92,2.28v0h-1.48a2,2,0,0,0-.54-1.4,1.75,1.75,0,0,0-1.34-.57,1.88,1.88,0,0,0-1.75.93,4.31,4.31,0,0,0-.55,2.25V208a4.47,4.47,0,0,0,.54,2.28A1.89,1.89,0,0,0,449.51,211.18Z"/><path d="M456.45,204.53a3.33,3.33,0,0,1,1.14-1,3.1,3.1,0,0,1,1.49-.36,2.89,2.89,0,0,1,2.23.86,3.82,3.82,0,0,1,.8,2.65v5.61h-1.63v-5.62A2.38,2.38,0,0,0,460,205a1.78,1.78,0,0,0-1.42-.53,2.66,2.66,0,0,0-1.26.28,2.31,2.31,0,0,0-.87.8v6.71h-1.63V199.37h1.63Z"/><path d="M466.21,201h-1.63v-1.67h1.63Zm0,11.24h-1.63v-8.95h1.63Z"/><path d="M470.48,212.28h-1.63V199.37h1.63Z"/><path d="M472.62,208a6,6,0,0,1,.92-3.48,3,3,0,0,1,2.59-1.33,3.23,3.23,0,0,1,1.39.29,2.94,2.94,0,0,1,1,.85v-4.93h1.63v12.91h-1.25l-.25-1.13a2.89,2.89,0,0,1-1.08,1,3.25,3.25,0,0,1-1.5.33,3.06,3.06,0,0,1-2.56-1.19,4.91,4.91,0,0,1-.93-3.12Zm1.63.18a3.82,3.82,0,0,0,.55,2.17,2,2,0,0,0,1.73.81,2.16,2.16,0,0,0,1.22-.33,2.47,2.47,0,0,0,.81-.93V205.7a2.58,2.58,0,0,0-.81-.89,2.25,2.25,0,0,0-1.21-.32,1.85,1.85,0,0,0-1.73,1,5,5,0,0,0-.56,2.51Z"/><path d="M486.86,204.77l-.83-.05a1.81,1.81,0,0,0-1.77,1.17v6.39h-1.64v-8.95h1.46l.16,1.31a3.07,3.07,0,0,1,.94-1.09,2.18,2.18,0,0,1,1.28-.39,1.9,1.9,0,0,1,.35,0l.28.06Z"/><path d="M492.11,212.46a3.76,3.76,0,0,1-3-1.24A4.73,4.73,0,0,1,488,208v-.36a4.64,4.64,0,0,1,1.11-3.19,3.49,3.49,0,0,1,2.72-1.27,3.28,3.28,0,0,1,2.7,1.12,4.67,4.67,0,0,1,.89,3v.86h-5.72l0,0a3.68,3.68,0,0,0,.6,2.19,2.08,2.08,0,0,0,1.82.84,4.28,4.28,0,0,0,1.45-.23,3.37,3.37,0,0,0,1.07-.65l.64,1.06a3.82,3.82,0,0,1-1.27.78A5,5,0,0,1,492.11,212.46Zm-.26-8a1.78,1.78,0,0,0-1.41.65,3.11,3.11,0,0,0-.68,1.69l0,0h4v-.13a2.64,2.64,0,0,0-.48-1.62A1.74,1.74,0,0,0,491.85,204.45Z"/><path d="M498.73,203.33l.11,1.33a3.3,3.3,0,0,1,1.13-1.1,3.27,3.27,0,0,1,3.77.45,3.73,3.73,0,0,1,.8,2.62v5.65h-1.63v-5.62a2.46,2.46,0,0,0-.47-1.68,1.88,1.88,0,0,0-1.43-.49,2.55,2.55,0,0,0-1.28.3,2.19,2.19,0,0,0-.83.85v6.64h-1.63v-8.95Z"/><rect class="cls-5" x="45.66" y="44.15" width="161.7" height="161.7" transform="translate(125.44 -52.84) rotate(45)"/><g class="cls-6"><path class="cls-7" d="M126.51,227.71,23.8,125,126.51,22.29,229.21,125ZM27,125l99.54,99.53L226,125,126.51,25.47Zm99.54,89.66L92.23,180.38l26.21-26.21L93,128.75l-18,18L86.91,158.7l4.93-4.94-7-7L93,138.63l15.54,15.54L87.29,175.45l-30-30L77.8,125,57.32,104.52l30-30,21.28,21.28L93,111.37l-8.17-8.16,7-7L86.91,91.3,75,103.21l18,18,25.41-25.42L92.23,69.62l34.28-34.28,34.27,34.28L134.57,95.83,160,121.25l18-18L166.1,91.3l-4.93,4.94,7,7L160,111.37,144.44,95.83l21.28-21.28,30,30L175.21,125l20.48,20.48-30,30-21.28-21.27L160,138.63l8.17,8.16-7,7,4.93,4.94L178,146.79l-18-18-25.41,25.42,26.21,26.21ZM95.4,180.38l31.11,31.11,31.1-31.11L131.4,154.17,160,125.58l21.21,21.21L166.1,161.87,158,153.76l7-7-5-5-12.36,12.37,18.1,18.1,26.79-26.79L172,125l20.47-20.48L165.72,77.73l-18.1,18.1L160,108.2l5-5-7-7,8.11-8.12,15.09,15.09L160,124.42,131.4,95.83l26.21-26.21-31.1-31.11L95.4,69.62l26.21,26.21L93,124.42,71.82,103.21,86.91,88.13,95,96.23l-7,7,5,5,12.36-12.37-18.1-18.1L60.5,104.52,81,125,60.5,145.48l26.79,26.79,18.1-18.1L93,141.8l-5,5,7,7-8.11,8.11L71.82,146.79,93,125.58l28.58,28.59Zm105.22-39.84L185.08,125l15.54-15.54L216.17,125ZM188.26,125l12.36,12.37L213,125l-12.37-12.37ZM52.39,140.54,36.85,125l15.54-15.54L67.93,125ZM40,125l12.37,12.37L64.75,125,52.39,112.63Z"/><path class="cls-7" d="M126.51,204.07l-24.05-24L126.51,156l24,24.05Zm-20.88-24,20.88,20.88L147.38,180l-20.87-20.87Z"/><path class="cls-7" d="M126.51,93.36l-24.05-24,24.05-24.05,24,24.05Zm-20.88-24,20.88,20.88,20.87-20.88L126.51,48.44Z"/></g><path class="cls-5" d="M392.37,59.09h-5.65v7.28h-7.83V59.09H360.22v-5.4l16.35-22H385L369.83,52.55h9.31V46.06h7.58v6.49h5.65Z"/><path class="cls-5" d="M401.93,64.84a14.28,14.28,0,0,1-5.28-6.17,22.4,22.4,0,0,1-1.9-9.64,22.39,22.39,0,0,1,1.9-9.63,14.28,14.28,0,0,1,5.28-6.17,14.91,14.91,0,0,1,15.36,0,14.33,14.33,0,0,1,5.27,6.17A22.38,22.38,0,0,1,424.47,49a22.4,22.4,0,0,1-1.91,9.64,14.33,14.33,0,0,1-5.27,6.17,14.91,14.91,0,0,1-15.36,0Zm12.66-7.39c1.2-1.81,1.81-4.62,1.81-8.42s-.61-6.6-1.81-8.42a5.69,5.69,0,0,0-5-2.72,5.63,5.63,0,0,0-4.93,2.72q-1.81,2.73-1.81,8.42t1.81,8.42a5.62,5.62,0,0,0,4.93,2.73A5.68,5.68,0,0,0,414.59,57.45Z"/><path class="cls-5" d="M435.57,64.84a14.28,14.28,0,0,1-5.28-6.17A22.4,22.4,0,0,1,428.38,49a22.38,22.38,0,0,1,1.91-9.63,14.28,14.28,0,0,1,5.28-6.17,14.91,14.91,0,0,1,15.36,0,14.33,14.33,0,0,1,5.27,6.17A22.38,22.38,0,0,1,458.11,49a22.4,22.4,0,0,1-1.91,9.64,14.33,14.33,0,0,1-5.27,6.17,14.91,14.91,0,0,1-15.36,0Zm12.66-7.39Q450,54.74,450,49t-1.8-8.42a5.69,5.69,0,0,0-5-2.72,5.63,5.63,0,0,0-4.93,2.72q-1.81,2.73-1.81,8.42t1.81,8.42a5.62,5.62,0,0,0,4.93,2.73A5.68,5.68,0,0,0,448.23,57.45Z"/><path class="cls-5" d="M333.58,93.89a6.51,6.51,0,0,1,0-11.49,7.88,7.88,0,0,1,7.16,0,6.45,6.45,0,0,1,2.5,2.36,6.75,6.75,0,0,1,0,6.77,6.45,6.45,0,0,1-2.5,2.36,7.88,7.88,0,0,1-7.16,0Zm5.63-2.18a3.69,3.69,0,0,0,1.43-1.45,4.56,4.56,0,0,0,0-4.23,3.69,3.69,0,0,0-1.43-1.45,4.28,4.28,0,0,0-4.09,0A3.63,3.63,0,0,0,333.69,86a4.56,4.56,0,0,0,0,4.23,3.63,3.63,0,0,0,1.43,1.45,4.28,4.28,0,0,0,4.09,0Z"/><path class="cls-5" d="M347.8,93.24a5.82,5.82,0,0,1-1.53-4.33V81.76h3v7q0,3.44,2.85,3.43a2.63,2.63,0,0,0,2.11-.83,3.85,3.85,0,0,0,.73-2.6v-7h2.92v7.15a5.28,5.28,0,0,1-5.78,5.84A5.76,5.76,0,0,1,347.8,93.24Z"/><path class="cls-5" d="M363.19,84.17H359.1V81.76h11.14v2.41h-4.09V94.53h-3Z"/><path class="cls-5" d="M379.59,93.89a6.32,6.32,0,0,1-2.5-2.36,6.82,6.82,0,0,1,0-6.77,6.32,6.32,0,0,1,2.5-2.36,7.36,7.36,0,0,1,3.59-.86,7.28,7.28,0,0,1,3.57.86,6.51,6.51,0,0,1,0,11.49,7.28,7.28,0,0,1-3.57.86A7.36,7.36,0,0,1,379.59,93.89Zm5.63-2.18a3.63,3.63,0,0,0,1.43-1.45,4.56,4.56,0,0,0,0-4.23,3.63,3.63,0,0,0-1.43-1.45,4.28,4.28,0,0,0-4.09,0A3.69,3.69,0,0,0,379.7,86a4.56,4.56,0,0,0,0,4.23,3.69,3.69,0,0,0,1.43,1.45,4.28,4.28,0,0,0,4.09,0Z"/><path class="cls-5" d="M395.35,84.13v3.38h5.91v2.37h-5.91v4.65h-3V81.76h9.66v2.37Z"/><path class="cls-5" d="M410.49,94.34a6.76,6.76,0,0,1-2.27-1.07l1-2.22a6.82,6.82,0,0,0,1.95,1,7.19,7.19,0,0,0,2.27.37A3.71,3.71,0,0,0,415.3,92a1.14,1.14,0,0,0,.6-1,1,1,0,0,0-.35-.76,2.75,2.75,0,0,0-.92-.48c-.37-.12-.87-.26-1.5-.4a18.48,18.48,0,0,1-2.39-.7,3.86,3.86,0,0,1-1.6-1.11,3,3,0,0,1-.67-2,3.49,3.49,0,0,1,.61-2,4,4,0,0,1,1.81-1.43,7.31,7.31,0,0,1,3-.53,10.09,10.09,0,0,1,2.39.29,6.72,6.72,0,0,1,2,.84l-.91,2.24a7.21,7.21,0,0,0-3.54-1,3.27,3.27,0,0,0-1.83.4,1.23,1.23,0,0,0-.6,1.06,1,1,0,0,0,.69,1,11,11,0,0,0,2.09.63,21,21,0,0,1,2.39.69,3.9,3.9,0,0,1,1.59,1.1,2.88,2.88,0,0,1,.67,2,3.47,3.47,0,0,1-.61,2,4.1,4.1,0,0,1-1.84,1.43,7.31,7.31,0,0,1-3,.53A10.22,10.22,0,0,1,410.49,94.34Z"/><path class="cls-5" d="M423.45,93.9A6.3,6.3,0,0,1,421,91.55a6.83,6.83,0,0,1,0-6.81,6.3,6.3,0,0,1,2.48-2.35,7.31,7.31,0,0,1,3.55-.85,7.4,7.4,0,0,1,3,.58,5.9,5.9,0,0,1,2.25,1.68l-1.89,1.75a4.12,4.12,0,0,0-3.22-1.49,4.21,4.21,0,0,0-2.11.52A3.61,3.61,0,0,0,423.58,86a4.56,4.56,0,0,0,0,4.23A3.61,3.61,0,0,0,425,91.71a4.21,4.21,0,0,0,2.11.52,4.08,4.08,0,0,0,3.22-1.51l1.89,1.75a5.88,5.88,0,0,1-2.26,1.7,7.48,7.48,0,0,1-3,.58A7.28,7.28,0,0,1,423.45,93.9Z"/><path class="cls-5" d="M446,81.76V94.53H443V89.29H437.2v5.24h-3V81.76h3v5H443v-5Z"/><path class="cls-5" d="M451.59,93.89a6.39,6.39,0,0,1-2.5-2.36,6.82,6.82,0,0,1,0-6.77,6.39,6.39,0,0,1,2.5-2.36,7.9,7.9,0,0,1,7.17,0,6.51,6.51,0,0,1,0,11.49,7.9,7.9,0,0,1-7.17,0Zm5.63-2.18a3.72,3.72,0,0,0,1.44-1.45,4.56,4.56,0,0,0,0-4.23,3.72,3.72,0,0,0-1.44-1.45,4,4,0,0,0-2-.52,4,4,0,0,0-2,.52A3.72,3.72,0,0,0,451.7,86a4.56,4.56,0,0,0,0,4.23,3.72,3.72,0,0,0,1.44,1.45,4,4,0,0,0,2,.52A4,4,0,0,0,457.22,91.71Z"/><path class="cls-5" d="M467,93.89a6.51,6.51,0,0,1,0-11.49,7.88,7.88,0,0,1,7.16,0,6.45,6.45,0,0,1,2.5,2.36,6.75,6.75,0,0,1,0,6.77,6.45,6.45,0,0,1-2.5,2.36,7.88,7.88,0,0,1-7.16,0Zm5.63-2.18a3.69,3.69,0,0,0,1.43-1.45,4.56,4.56,0,0,0,0-4.23,3.69,3.69,0,0,0-1.43-1.45,4.28,4.28,0,0,0-4.09,0A3.63,3.63,0,0,0,467.11,86a4.56,4.56,0,0,0,0,4.23,3.63,3.63,0,0,0,1.43,1.45,4.28,4.28,0,0,0,4.09,0Z"/><path class="cls-5" d="M479.8,81.76h3V92.12h6.4v2.41H479.8Z"/><path class="cls-5" d="M363.17,115.81a6.33,6.33,0,0,1-2.48-2.36,6.89,6.89,0,0,1,0-6.81,6.3,6.3,0,0,1,2.48-2.35,7.93,7.93,0,0,1,6.55-.27A6,6,0,0,1,372,105.7l-1.9,1.76a4.06,4.06,0,0,0-3.21-1.5,4.24,4.24,0,0,0-2.12.52,3.74,3.74,0,0,0-1.45,1.45,4.56,4.56,0,0,0,0,4.23,3.7,3.7,0,0,0,1.45,1.46,4.35,4.35,0,0,0,2.12.52,4.05,4.05,0,0,0,3.21-1.52l1.9,1.75a5.86,5.86,0,0,1-2.26,1.7,7.56,7.56,0,0,1-3,.58A7.39,7.39,0,0,1,363.17,115.81Z"/><path class="cls-5" d="M385.69,103.66v12.78h-3V111.2h-5.81v5.24H374V103.66h2.95v5h5.81v-5Z"/><path class="cls-5" d="M388.72,103.66h2.95v12.78h-2.95Z"/><path class="cls-5" d="M394.7,103.66h3V114h6.41v2.41H394.7Z"/><path class="cls-5" d="M405.73,103.66h5.8a8.16,8.16,0,0,1,3.68.79,6,6,0,0,1,2.48,2.24,6.85,6.85,0,0,1,0,6.72,6,6,0,0,1-2.48,2.23,8.17,8.17,0,0,1-3.68.8h-5.8ZM411.38,114a4.31,4.31,0,0,0,3.06-1.07,4.25,4.25,0,0,0,0-5.79,4.3,4.3,0,0,0-3.06-1.06h-2.7V114Z"/><path class="cls-5" d="M428.94,116.44l-2.46-3.56h-2.72v3.56h-3V103.66h5.53a7.06,7.06,0,0,1,2.95.57,4.39,4.39,0,0,1,0,8.1l2.87,4.11Zm-.75-9.8a3.1,3.1,0,0,0-2-.57h-2.41v4.45h2.41a3,3,0,0,0,2-.58,2.29,2.29,0,0,0,0-3.3Z"/><path class="cls-5" d="M444.11,114.06v2.38h-9.89V103.66h9.65V106h-6.72v2.78h5.94v2.3h-5.94v3Z"/><path class="cls-5" d="M458.18,103.66v12.78h-2.43l-6.37-7.76v7.76h-2.92V103.66h2.45l6.35,7.76v-7.76Z"/><rect class="cls-8" x="110.09" y="82.3" width="32.83" height="71.08"/><rect class="cls-8" x="142.92" y="108.74" width="25.85" height="44.64"/><rect class="cls-7" x="114.61" y="86.58" width="9.46" height="9.46"/><rect class="cls-7" x="128.94" y="86.58" width="9.46" height="9.46"/><rect class="cls-7" x="114.61" y="100.03" width="9.46" height="9.46"/><rect class="cls-7" x="128.94" y="100.03" width="9.46" height="9.46"/><rect class="cls-7" x="114.61" y="113.48" width="9.46" height="9.46"/><rect class="cls-7" x="128.94" y="113.48" width="9.46" height="9.46"/><rect class="cls-7" x="114.61" y="126.93" width="9.46" height="9.46"/><rect class="cls-7" x="128.94" y="126.93" width="9.46" height="9.46"/><rect class="cls-7" x="151.12" y="113.48" width="9.46" height="9.46"/><rect class="cls-7" x="151.12" y="126.93" width="9.46" height="9.46"/><rect class="cls-8" x="84.24" y="108.74" width="25.85" height="44.64"/><rect class="cls-7" x="92.44" y="113.48" width="9.46" height="9.46"/><rect class="cls-7" x="92.44" y="126.93" width="9.46" height="9.46"/><rect class="cls-7" x="151.12" y="140.39" width="9.46" height="9.46"/><rect class="cls-7" x="92.44" y="140.39" width="9.46" height="9.46"/><rect class="cls-7" x="121.78" y="140.39" width="9.46" height="12.99"/><line class="cls-8" x1="126.5" y1="82.3" x2="126.5" y2="65.33"/><rect class="cls-7" x="126.5" y="65.33" width="11.7" height="7.21"/></svg>