<svg id="Layer_1" data-name="Layer 1" xmlns="http://www.w3.org/2000/svg" viewBox="0 0 654 250"><defs><style>.cls-1{fill:#e2243e;stroke:#e2243e;stroke-miterlimit:10;stroke-width:2.6px;}.cls-2{fill:#fff;}.cls-3{fill:#e2243c;}.cls-4{opacity:0.15;}</style></defs><polygon class="cls-1" points="13.15 125 126.77 238.62 527.81 238.62 641.43 125 527.81 11.38 126.77 11.38 13.15 125"/><path class="cls-2" d="M327.94,114.52v-7.65l-3.75,6.3h-1.33L319.11,107v7.48h-2.77V101.77h2.44l4.78,7.93,4.69-7.93h2.43l0,12.75Z"/><path class="cls-2" d="M333.74,101.77h2.95v12.75h-2.95Z"/><path class="cls-2" d="M339.71,101.77h3v10.35h6.39v2.4h-9.34Z"/><path class="cls-2" d="M350.71,101.77h3v10.35h6.39v2.4h-9.34Z"/><path class="cls-2" d="M361.71,101.77h3v12.75h-3Z"/><path class="cls-2" d="M370.28,113.88a6.3,6.3,0,0,1-2.5-2.35,6.8,6.8,0,0,1,0-6.76,6.32,6.32,0,0,1,2.5-2.36,7.43,7.43,0,0,1,3.58-.86,7.35,7.35,0,0,1,3.56.86,6.45,6.45,0,0,1,2.5,2.36,6.73,6.73,0,0,1,0,6.76,6.43,6.43,0,0,1-2.5,2.35,7.35,7.35,0,0,1-3.56.86A7.43,7.43,0,0,1,370.28,113.88Zm5.61-2.17a3.69,3.69,0,0,0,1.43-1.45,4.56,4.56,0,0,0,0-4.23,3.67,3.67,0,0,0-1.43-1.44,4.24,4.24,0,0,0-4.07,0,3.67,3.67,0,0,0-1.43,1.44,4.56,4.56,0,0,0,0,4.23,3.69,3.69,0,0,0,1.43,1.45,4.24,4.24,0,0,0,4.07,0Z"/><path class="cls-2" d="M394.74,101.77v12.75h-2.42L386,106.78v7.74h-2.92V101.77h2.44l6.34,7.74v-7.74Z"/><path class="cls-2" d="M404.19,114.33a6.66,6.66,0,0,1-2.27-1.07l1-2.22a6.84,6.84,0,0,0,1.95,1,7.36,7.36,0,0,0,2.26.36A3.59,3.59,0,0,0,409,112a1.12,1.12,0,0,0,.61-1,.94.94,0,0,0-.36-.76,2.7,2.7,0,0,0-.91-.48c-.37-.12-.87-.26-1.5-.4a21,21,0,0,1-2.39-.69,3.85,3.85,0,0,1-1.59-1.12,3,3,0,0,1-.67-2,3.54,3.54,0,0,1,.6-2,4.17,4.17,0,0,1,1.82-1.43,7.39,7.39,0,0,1,3-.53,9.53,9.53,0,0,1,2.38.3,7,7,0,0,1,2,.83l-.91,2.24a7.18,7.18,0,0,0-3.53-1,3.35,3.35,0,0,0-1.83.4,1.22,1.22,0,0,0-.59,1.06,1,1,0,0,0,.68,1,9.73,9.73,0,0,0,2.08.63,20.45,20.45,0,0,1,2.39.69,3.9,3.9,0,0,1,1.59,1.1,2.88,2.88,0,0,1,.67,2,3.51,3.51,0,0,1-.61,2,4.13,4.13,0,0,1-1.83,1.43,7.55,7.55,0,0,1-3,.53A10.51,10.51,0,0,1,404.19,114.33Z"/><path class="cls-2" d="M417,104.18h-4.08v-2.41H424v2.41H420v10.34H417Z"/><path class="cls-2" d="M426.8,113.23a5.85,5.85,0,0,1-1.52-4.32v-7.14h3v7q0,3.44,2.85,3.43a2.68,2.68,0,0,0,2.11-.83,3.9,3.9,0,0,0,.73-2.6v-7h2.91v7.14a5.85,5.85,0,0,1-1.52,4.32,6.75,6.75,0,0,1-8.51,0Z"/><path class="cls-2" d="M439.74,101.77h5.8a8.08,8.08,0,0,1,3.66.8,5.84,5.84,0,0,1,2.48,2.23,6.82,6.82,0,0,1,0,6.7,5.91,5.91,0,0,1-2.48,2.23,8.08,8.08,0,0,1-3.66.79h-5.8Zm5.65,10.33a4.3,4.3,0,0,0,3.05-1.07,4.22,4.22,0,0,0,0-5.77,4.29,4.29,0,0,0-3.05-1.06h-2.7v7.9Z"/><path class="cls-2" d="M464.66,112.15v2.37h-9.87V101.77h9.63v2.37h-6.7v2.77h5.92v2.29h-5.92v3Z"/><path class="cls-2" d="M478.7,101.77v12.75h-2.42l-6.36-7.74v7.74H467V101.77h2.44l6.33,7.74v-7.74Z"/><path class="cls-2" d="M484.36,104.18h-4.08v-2.41h11.11v2.41h-4.08v10.34h-2.95Z"/><path class="cls-2" d="M494.15,114.33a6.85,6.85,0,0,1-2.27-1.07l1-2.22a6.65,6.65,0,0,0,1.94,1,7.46,7.46,0,0,0,2.26.36A3.6,3.6,0,0,0,499,112a1.13,1.13,0,0,0,.6-1,1,1,0,0,0-.35-.76,2.7,2.7,0,0,0-.91-.48c-.38-.12-.88-.26-1.51-.4a20.8,20.8,0,0,1-2.38-.69,4,4,0,0,1-1.6-1.12,3,3,0,0,1-.66-2,3.54,3.54,0,0,1,.6-2,4.08,4.08,0,0,1,1.81-1.43,7.46,7.46,0,0,1,3-.53,9.6,9.6,0,0,1,2.39.3,7.21,7.21,0,0,1,2,.83l-.91,2.24a7.21,7.21,0,0,0-3.54-1,3.4,3.4,0,0,0-1.83.4,1.24,1.24,0,0,0-.59,1.06,1,1,0,0,0,.68,1,9.86,9.86,0,0,0,2.09.63,20.21,20.21,0,0,1,2.38.69,4,4,0,0,1,1.6,1.1,2.93,2.93,0,0,1,.66,2,3.44,3.44,0,0,1-.61,2,4,4,0,0,1-1.83,1.43,7.48,7.48,0,0,1-3,.53A10.56,10.56,0,0,1,494.15,114.33Z"/><path class="cls-2" d="M397.39,65.87a9.65,9.65,0,0,1,3.49,7.81,10.89,10.89,0,0,1-1.58,5.76,11.08,11.08,0,0,1-4.82,4.15,18.33,18.33,0,0,1-8,1.56,27.38,27.38,0,0,1-7.19-1,18.55,18.55,0,0,1-6-2.74l3.16-6.13a15.22,15.22,0,0,0,4.55,2.3,17.45,17.45,0,0,0,5.29.81A8.27,8.27,0,0,0,391,77.24a3.78,3.78,0,0,0,1.73-3.31,3.73,3.73,0,0,0-1.8-3.37c-1.21-.75-3.29-1.13-6.26-1.13h-8.84L377.65,50h21.1v6.43H384.32L383.78,63h2.81Q393.91,63,397.39,65.87Z"/><path class="cls-2" d="M405.28,83.56a4.66,4.66,0,0,1-1.39-3.46,4.48,4.48,0,0,1,1.39-3.43,5.09,5.09,0,0,1,6.82,0,4.51,4.51,0,0,1,1.38,3.43,4.69,4.69,0,0,1-1.38,3.46,4.88,4.88,0,0,1-6.82,0Z"/><path class="cls-2" d="M443.39,50v5.19L430.54,84.55h-8.7l12.4-28.07H422.78v5.63h-7.12V50Z"/><rect class="cls-3" x="46.06" y="44.15" width="161.7" height="161.7" transform="translate(125.56 -53.13) rotate(45)"/><g class="cls-4"><path class="cls-2" d="M126.91,227.71,24.2,125,126.91,22.29,229.62,125ZM27.38,125l99.53,99.53L226.44,125,126.91,25.47Zm99.53,89.66L92.63,180.38l26.21-26.21L93.43,128.75l-18,18L87.31,158.7l4.94-4.94-7-7,8.16-8.16L109,154.17,87.69,175.45l-30-30L78.2,125,57.73,104.52l30-30L109,95.83,93.43,111.37l-8.16-8.16,7-7L87.31,91.3,75.4,103.21l18,18,25.41-25.42L92.63,69.62l34.28-34.28,34.28,34.28L135,95.83l25.42,25.42,18-18L166.51,91.3l-4.94,4.94,7,7-8.16,8.16L144.85,95.83l21.27-21.28,30,30L175.61,125l20.48,20.48-30,30-21.27-21.27,15.54-15.54,8.16,8.16-7,7,4.94,4.94,11.91-11.91-18-18L135,154.17l26.22,26.21ZM95.8,180.38l31.11,31.11L158,180.38,131.8,154.17l28.59-28.59,21.21,21.21-15.09,15.08-8.11-8.11,7-7-5-5L148,154.17l18.1,18.1,26.8-26.79L172.44,125l20.48-20.48-26.8-26.79L148,95.83l12.37,12.37,5-5-7-7,8.11-8.12,15.09,15.09-21.21,21.21L131.8,95.83,158,69.62l-31.1-31.11L95.8,69.62,122,95.83,93.43,124.42,72.22,103.21,87.31,88.13l8.11,8.1-7,7,5,5L105.8,95.83,87.69,77.73,60.9,104.52,81.38,125,60.9,145.48l26.79,26.79,18.11-18.1L93.43,141.8l-5,5,7,7-8.11,8.11L72.22,146.79l21.21-21.21L122,154.17ZM201,140.54,185.49,125,201,109.46,216.57,125ZM188.66,125,201,137.37,213.4,125,201,112.63ZM52.79,140.54,37.25,125l15.54-15.54L68.33,125ZM40.42,125l12.37,12.37L65.16,125,52.79,112.63Z"/><path class="cls-2" d="M126.91,204.07l-24-24,24-24.05L151,180ZM106,180l20.88,20.88L147.78,180l-20.87-20.87Z"/><path class="cls-2" d="M126.91,93.36l-24-24,24-24.05L151,69.31ZM106,69.31l20.88,20.88,20.87-20.88L126.91,48.44Z"/></g><path class="cls-2" d="M311.26,147.06l.21,1.15h0l.21-1.15,1.79-5.68h1.3l1.79,5.68.23,1.28h.05l.27-1.28,1.32-5.68h1.7l-2.59,8.93h-1.32l-1.76-5.44-.34-1.42h-.05l-.31,1.42-1.74,5.44h-1.31l-2.59-8.93h1.69Z"/><path class="cls-2" d="M325.47,150.49a3.78,3.78,0,0,1-3-1.23,4.73,4.73,0,0,1-1.08-3.24v-.36a4.64,4.64,0,0,1,1.11-3.19,3.49,3.49,0,0,1,2.72-1.26,3.23,3.23,0,0,1,2.68,1.12,4.57,4.57,0,0,1,.9,3v.86h-5.71l0,0a3.68,3.68,0,0,0,.6,2.19,2.06,2.06,0,0,0,1.81.84,4,4,0,0,0,1.45-.24,3.2,3.2,0,0,0,1.07-.65l.64,1.06a3.82,3.82,0,0,1-1.27.78A5,5,0,0,1,325.47,150.49Zm-.25-8a1.76,1.76,0,0,0-1.41.66,3.11,3.11,0,0,0-.68,1.68v0h4v-.13a2.59,2.59,0,0,0-.48-1.61A1.72,1.72,0,0,0,325.22,142.49Z"/><path class="cls-2" d="M334.85,142.82l-.83,0a1.91,1.91,0,0,0-1.09.3,2,2,0,0,0-.68.86v6.38h-1.63v-8.93h1.46l.15,1.3a3.22,3.22,0,0,1,.94-1.08,2.19,2.19,0,0,1,1.29-.39,1.87,1.87,0,0,1,.34,0,1.63,1.63,0,0,1,.28.07Z"/><path class="cls-2" d="M340.09,150.49a3.76,3.76,0,0,1-3-1.23A4.73,4.73,0,0,1,336,146v-.36a4.64,4.64,0,0,1,1.11-3.19,3.47,3.47,0,0,1,2.71-1.26,3.26,3.26,0,0,1,2.69,1.12,4.57,4.57,0,0,1,.9,3v.86H337.7l0,0a3.68,3.68,0,0,0,.59,2.19,2.08,2.08,0,0,0,1.82.84,4,4,0,0,0,1.45-.24,3.3,3.3,0,0,0,1.07-.65l.63,1.06a3.87,3.87,0,0,1-1.26.78A5,5,0,0,1,340.09,150.49Zm-.26-8a1.78,1.78,0,0,0-1.41.66,3.19,3.19,0,0,0-.68,1.68l0,0h4v-.13a2.59,2.59,0,0,0-.48-1.61A1.74,1.74,0,0,0,339.83,142.49Z"/><path class="cls-2" d="M354.93,150.31c-.05-.27-.09-.5-.12-.71s-.05-.41-.06-.62a3.81,3.81,0,0,1-1.18,1.07,3,3,0,0,1-1.58.44,2.9,2.9,0,0,1-2.12-.72,2.6,2.6,0,0,1-.73-2,2.3,2.3,0,0,1,1-2,4.85,4.85,0,0,1,2.81-.72h1.77v-.88a1.65,1.65,0,0,0-.48-1.25,1.9,1.9,0,0,0-1.35-.46,2,2,0,0,0-1.28.4,1.17,1.17,0,0,0-.49,1l-1.54,0,0-.05a2.16,2.16,0,0,1,.91-1.79,3.8,3.8,0,0,1,2.51-.81,3.65,3.65,0,0,1,2.44.78,2.71,2.71,0,0,1,.93,2.22v4.3c0,.32,0,.63.05.93a4.2,4.2,0,0,0,.18.87Zm-2.7-1.19a3,3,0,0,0,1.6-.45,2.14,2.14,0,0,0,.92-1v-1.45h-1.82a2.39,2.39,0,0,0-1.58.49,1.5,1.5,0,0,0-.59,1.17,1.23,1.23,0,0,0,.38.94A1.53,1.53,0,0,0,352.23,149.12Z"/><path class="cls-2" d="M366.37,146.19a4.9,4.9,0,0,1-.93,3.11,3.07,3.07,0,0,1-2.55,1.19,3.25,3.25,0,0,1-1.55-.35,2.93,2.93,0,0,1-1.09-1l-.26,1.21h-1.25V137.43h1.63v5a2.83,2.83,0,0,1,1-.91,3.2,3.2,0,0,1,1.46-.32,3,3,0,0,1,2.58,1.33,6,6,0,0,1,.92,3.47Zm-1.63-.18a5,5,0,0,0-.56-2.5,1.86,1.86,0,0,0-1.72-1,2.16,2.16,0,0,0-1.27.36,2.57,2.57,0,0,0-.82,1v3.87a2.59,2.59,0,0,0,.82,1,2.11,2.11,0,0,0,1.28.38,1.94,1.94,0,0,0,1.71-.82,3.73,3.73,0,0,0,.56-2.16Z"/><path class="cls-2" d="M370.11,150.31h-1.63V137.43h1.63Z"/><path class="cls-2" d="M376.31,150.49a3.78,3.78,0,0,1-3-1.23,4.73,4.73,0,0,1-1.08-3.24v-.36a4.64,4.64,0,0,1,1.11-3.19,3.49,3.49,0,0,1,2.72-1.26,3.23,3.23,0,0,1,2.68,1.12,4.57,4.57,0,0,1,.9,3v.86h-5.71l0,0a3.68,3.68,0,0,0,.6,2.19,2.06,2.06,0,0,0,1.81.84,4,4,0,0,0,1.45-.24,3.2,3.2,0,0,0,1.07-.65l.64,1.06a3.82,3.82,0,0,1-1.27.78A5,5,0,0,1,376.31,150.49Zm-.25-8a1.76,1.76,0,0,0-1.41.66,3.11,3.11,0,0,0-.68,1.68v0h4v-.13a2.59,2.59,0,0,0-.48-1.61A1.74,1.74,0,0,0,376.06,142.49Z"/><path class="cls-2" d="M387.93,139.22v2.16h1.69v1.21h-1.69V148a1.22,1.22,0,0,0,.26.88.94.94,0,0,0,.69.26,1.2,1.2,0,0,0,.31,0,1.3,1.3,0,0,0,.29-.08l.23,1.12a1.43,1.43,0,0,1-.54.24,2.47,2.47,0,0,1-.7.1,2.11,2.11,0,0,1-1.58-.6,2.61,2.61,0,0,1-.59-1.88v-5.42h-1.42v-1.21h1.42v-2.16Z"/><path class="cls-2" d="M391,145.76a4.87,4.87,0,0,1,1.07-3.26,3.59,3.59,0,0,1,2.91-1.29,3.65,3.65,0,0,1,2.94,1.28,4.92,4.92,0,0,1,1.08,3.27V146a4.88,4.88,0,0,1-1.08,3.27,4,4,0,0,1-5.85,0A4.87,4.87,0,0,1,391,146Zm1.62.19a4.24,4.24,0,0,0,.6,2.34,2.16,2.16,0,0,0,3.55,0,4.24,4.24,0,0,0,.6-2.34v-.19a4.14,4.14,0,0,0-.61-2.33,2.14,2.14,0,0,0-3.54,0,4.22,4.22,0,0,0-.6,2.33Z"/><path class="cls-2" d="M410.37,147.91A1,1,0,0,0,410,147a3.79,3.79,0,0,0-1.54-.6,6.37,6.37,0,0,1-2.43-.95,1.92,1.92,0,0,1-.84-1.63,2.36,2.36,0,0,1,.93-1.87,4.07,4.07,0,0,1,4.86,0,2.35,2.35,0,0,1,.9,1.92v0h-1.56a1.41,1.41,0,0,0-.5-1,1.81,1.81,0,0,0-1.29-.48,1.83,1.83,0,0,0-1.28.39,1.2,1.2,0,0,0-.43.93,1,1,0,0,0,.37.81,4,4,0,0,0,1.52.53,6.32,6.32,0,0,1,2.49,1,2,2,0,0,1,.85,1.66,2.37,2.37,0,0,1-1,1.94,4,4,0,0,1-2.52.75,3.92,3.92,0,0,1-2.69-.87,2.49,2.49,0,0,1-.93-2l0,0h1.55a1.49,1.49,0,0,0,.64,1.27,2.53,2.53,0,0,0,1.41.4,2.26,2.26,0,0,0,1.36-.37A1.13,1.13,0,0,0,410.37,147.91Z"/><path class="cls-2" d="M419.51,150.31c-.05-.27-.09-.5-.12-.71s-.05-.41-.06-.62a3.7,3.7,0,0,1-1.18,1.07,3,3,0,0,1-1.58.44,2.9,2.9,0,0,1-2.12-.72,2.6,2.6,0,0,1-.73-2,2.3,2.3,0,0,1,1-2,4.87,4.87,0,0,1,2.82-.72h1.76v-.88a1.65,1.65,0,0,0-.48-1.25,1.9,1.9,0,0,0-1.35-.46,2,2,0,0,0-1.28.4,1.17,1.17,0,0,0-.49,1l-1.54,0,0-.05a2.16,2.16,0,0,1,.91-1.79,3.8,3.8,0,0,1,2.51-.81A3.65,3.65,0,0,1,420,142a2.71,2.71,0,0,1,.93,2.22v4.3c0,.32,0,.63.05.93a4.2,4.2,0,0,0,.18.87Zm-2.7-1.19a3,3,0,0,0,1.6-.45,2.14,2.14,0,0,0,.92-1v-1.45h-1.82a2.39,2.39,0,0,0-1.58.49,1.5,1.5,0,0,0-.59,1.17,1.23,1.23,0,0,0,.38.94A1.53,1.53,0,0,0,416.81,149.12Z"/><path class="cls-2" d="M424,150.31v-7.72h-1.4v-1.21H424v-1.13a3.11,3.11,0,0,1,.74-2.21,2.77,2.77,0,0,1,2.09-.78,3.64,3.64,0,0,1,.57,0l.63.13-.2,1.24-.36-.06-.44,0A1.29,1.29,0,0,0,426,139a2,2,0,0,0-.35,1.24v1.13h1.62v1.21h-1.62v7.72Z"/><path class="cls-2" d="M432.39,150.49a3.76,3.76,0,0,1-3-1.23,4.73,4.73,0,0,1-1.08-3.24v-.36a4.64,4.64,0,0,1,1.11-3.19,3.47,3.47,0,0,1,2.71-1.26,3.26,3.26,0,0,1,2.69,1.12,4.56,4.56,0,0,1,.89,3v.86H430l0,0a3.68,3.68,0,0,0,.59,2.19,2.08,2.08,0,0,0,1.82.84,4,4,0,0,0,1.45-.24,3.3,3.3,0,0,0,1.07-.65l.63,1.06a3.87,3.87,0,0,1-1.26.78A5.12,5.12,0,0,1,432.39,150.49Zm-.26-8a1.76,1.76,0,0,0-1.41.66,3.11,3.11,0,0,0-.68,1.68l0,0h4v-.13a2.59,2.59,0,0,0-.48-1.61A1.74,1.74,0,0,0,432.13,142.49Z"/><path class="cls-2" d="M439.3,150.31h-1.63V137.43h1.63Z"/><path class="cls-2" d="M444.53,147l.29,1.13h.05l2.2-6.75h1.81l-3.76,10.3a4.66,4.66,0,0,1-1,1.57,2.22,2.22,0,0,1-1.71.67,3.41,3.41,0,0,1-.5,0l-.47-.09.17-1.28.29,0,.43,0a1,1,0,0,0,.85-.46,5,5,0,0,0,.56-1l.38-.94-3.32-8.75h1.82Z"/><path class="cls-2" d="M458.74,142.82l-.84,0a1.86,1.86,0,0,0-1.08.3,2,2,0,0,0-.69.86v6.38h-1.62v-8.93H456l.16,1.3a3.09,3.09,0,0,1,.93-1.08,2.21,2.21,0,0,1,1.29-.39,2,2,0,0,1,.35,0,1.31,1.31,0,0,1,.27.07Z"/><path class="cls-2" d="M464,150.49a3.78,3.78,0,0,1-3-1.23,4.73,4.73,0,0,1-1.08-3.24v-.36a4.64,4.64,0,0,1,1.11-3.19,3.49,3.49,0,0,1,2.71-1.26,3.24,3.24,0,0,1,2.69,1.12,4.57,4.57,0,0,1,.9,3v.86h-5.72l0,0a3.75,3.75,0,0,0,.59,2.19,2.09,2.09,0,0,0,1.82.84,4,4,0,0,0,1.45-.24,3.2,3.2,0,0,0,1.07-.65l.64,1.06a3.92,3.92,0,0,1-1.27.78A5,5,0,0,1,464,150.49Zm-.26-8a1.76,1.76,0,0,0-1.4.66,3.11,3.11,0,0,0-.68,1.68v0h4v-.13a2.59,2.59,0,0,0-.48-1.61A1.74,1.74,0,0,0,463.71,142.49Z"/><path class="cls-2" d="M474.32,147.91a1.07,1.07,0,0,0-.41-.87,3.85,3.85,0,0,0-1.55-.6,6.32,6.32,0,0,1-2.42-.95,1.91,1.91,0,0,1-.85-1.63A2.36,2.36,0,0,1,470,142a4.09,4.09,0,0,1,4.87,0,2.41,2.41,0,0,1,.9,1.92l0,0h-1.55a1.39,1.39,0,0,0-.51-1,1.8,1.8,0,0,0-1.28-.48,1.86,1.86,0,0,0-1.29.39,1.23,1.23,0,0,0-.42.93,1,1,0,0,0,.36.81,4,4,0,0,0,1.52.53,6.26,6.26,0,0,1,2.49,1,2,2,0,0,1,.85,1.66,2.37,2.37,0,0,1-1,1.94,4,4,0,0,1-2.51.75,3.9,3.9,0,0,1-2.69-.87,2.47,2.47,0,0,1-.94-2l0,0h1.55a1.5,1.5,0,0,0,.65,1.27,2.53,2.53,0,0,0,1.41.4,2.26,2.26,0,0,0,1.36-.37A1.15,1.15,0,0,0,474.32,147.91Z"/><path class="cls-2" d="M483.64,149a3,3,0,0,1-1.08,1.11,3,3,0,0,1-1.53.39,2.86,2.86,0,0,1-2.28-.94,4.35,4.35,0,0,1-.82-2.9v-5.27h1.63v5.28a3.34,3.34,0,0,0,.42,2,1.56,1.56,0,0,0,1.31.54,2.74,2.74,0,0,0,1.44-.35,2.25,2.25,0,0,0,.85-1v-6.44h1.63v8.93h-1.46Z"/><path class="cls-2" d="M489,141.38l.12,1.17a3,3,0,0,1,1.11-1,3.27,3.27,0,0,1,1.56-.36,2.7,2.7,0,0,1,1.53.42,2.5,2.5,0,0,1,1,1.24,3.2,3.2,0,0,1,1.12-1.21,2.84,2.84,0,0,1,1.61-.45,2.67,2.67,0,0,1,2.15.94A4.29,4.29,0,0,1,500,145v5.34h-1.63V145a3,3,0,0,0-.45-1.88,1.69,1.69,0,0,0-1.36-.54,1.75,1.75,0,0,0-1.35.57,2.57,2.57,0,0,0-.6,1.47v5.73H493V145a2.94,2.94,0,0,0-.47-1.84,1.6,1.6,0,0,0-1.34-.58,2.27,2.27,0,0,0-1.22.3,1.93,1.93,0,0,0-.73.86v6.61h-1.63v-8.93Z"/><path class="cls-2" d="M506.06,150.49a3.76,3.76,0,0,1-3-1.23A4.73,4.73,0,0,1,502,146v-.36a4.64,4.64,0,0,1,1.11-3.19,3.47,3.47,0,0,1,2.71-1.26,3.26,3.26,0,0,1,2.69,1.12,4.57,4.57,0,0,1,.9,3v.86h-5.72l0,0a3.68,3.68,0,0,0,.59,2.19,2.08,2.08,0,0,0,1.82.84,4,4,0,0,0,1.45-.24,3.3,3.3,0,0,0,1.07-.65l.63,1.06a3.87,3.87,0,0,1-1.26.78A5,5,0,0,1,506.06,150.49Zm-.26-8a1.78,1.78,0,0,0-1.41.66,3.19,3.19,0,0,0-.68,1.68l0,0h4v-.13a2.59,2.59,0,0,0-.48-1.61A1.74,1.74,0,0,0,505.8,142.49Z"/><path class="cls-2" d="M272.57,170.61v-7.73h-1.39v-1.21h1.39v-1.13a3.07,3.07,0,0,1,.75-2.21,2.75,2.75,0,0,1,2.09-.78,3.64,3.64,0,0,1,.56,0c.19,0,.4.07.63.13l-.2,1.23a2.43,2.43,0,0,0-.35-.05,3.19,3.19,0,0,0-.45,0,1.26,1.26,0,0,0-1.05.43,1.9,1.9,0,0,0-.35,1.23v1.13h1.62v1.21H274.2v7.73Z"/><path class="cls-2" d="M283,170.61c-.05-.27-.1-.51-.13-.72s0-.41-.05-.62a3.84,3.84,0,0,1-1.18,1.08,3.05,3.05,0,0,1-1.58.43,2.92,2.92,0,0,1-2.12-.71,2.63,2.63,0,0,1-.73-2,2.32,2.32,0,0,1,1-2,4.85,4.85,0,0,1,2.81-.72h1.77v-.88a1.63,1.63,0,0,0-.48-1.24,1.86,1.86,0,0,0-1.35-.46,2,2,0,0,0-1.28.39,1.18,1.18,0,0,0-.49.95l-1.54,0,0-.05a2.14,2.14,0,0,1,.91-1.78,3.78,3.78,0,0,1,2.51-.81,3.64,3.64,0,0,1,2.44.77,2.72,2.72,0,0,1,.93,2.22v4.31a6.9,6.9,0,0,0,.05.92,4.44,4.44,0,0,0,.18.88Zm-2.7-1.19a2.88,2.88,0,0,0,1.6-.46,2.14,2.14,0,0,0,.92-1v-1.45H281a2.39,2.39,0,0,0-1.58.5,1.48,1.48,0,0,0-.59,1.16,1.24,1.24,0,0,0,.37.94A1.58,1.58,0,0,0,280.25,169.42Z"/><path class="cls-2" d="M290.31,169.51a1.91,1.91,0,0,0,1.31-.5,1.55,1.55,0,0,0,.56-1.23h1.47l0,.05a2.57,2.57,0,0,1-1,2,3.79,3.79,0,0,1-5.29-.38,5,5,0,0,1-1-3.19V166a4.92,4.92,0,0,1,1-3.18,3.51,3.51,0,0,1,2.9-1.28,3.4,3.4,0,0,1,2.45.92,3,3,0,0,1,.92,2.27l0,.05h-1.48a2,2,0,0,0-.53-1.39,1.75,1.75,0,0,0-1.34-.57,1.89,1.89,0,0,0-1.75.93A4.41,4.41,0,0,0,288,166v.34a4.31,4.31,0,0,0,.55,2.27A1.87,1.87,0,0,0,290.31,169.51Z"/><path class="cls-2" d="M299.31,170.78a3.78,3.78,0,0,1-3-1.23,4.73,4.73,0,0,1-1.08-3.24V166a4.63,4.63,0,0,1,1.11-3.18,3.49,3.49,0,0,1,2.71-1.26,3.24,3.24,0,0,1,2.69,1.11,4.59,4.59,0,0,1,.9,3v.86h-5.72l0,0a3.74,3.74,0,0,0,.59,2.18,2.09,2.09,0,0,0,1.82.84,4,4,0,0,0,1.45-.24,3.18,3.18,0,0,0,1.07-.64l.64,1.05a3.92,3.92,0,0,1-1.27.78A5,5,0,0,1,299.31,170.78Zm-.26-8a1.78,1.78,0,0,0-1.4.65,3.11,3.11,0,0,0-.68,1.68v0h4V165a2.61,2.61,0,0,0-.48-1.61A1.74,1.74,0,0,0,299.05,162.79Z"/><path class="cls-2" d="M309.53,166.16h-4.87v-1.27h4.87Z"/><path class="cls-2" d="M314.35,159.52v2.15H316v1.21h-1.69v5.42a1.2,1.2,0,0,0,.26.89.93.93,0,0,0,.69.25l.31,0,.29-.08.22,1.11a1.54,1.54,0,0,1-.53.25,2.94,2.94,0,0,1-.71.09,2.09,2.09,0,0,1-1.57-.6,2.6,2.6,0,0,1-.59-1.88v-5.42H311.3v-1.21h1.42v-2.15Z"/><path class="cls-2" d="M317.4,166.06a5,5,0,0,1,1.07-3.27,4,4,0,0,1,5.86,0,4.93,4.93,0,0,1,1.07,3.27v.18a4.88,4.88,0,0,1-1.07,3.27,4,4,0,0,1-5.85,0,4.86,4.86,0,0,1-1.08-3.26Zm1.63.18a4.19,4.19,0,0,0,.6,2.34,2.15,2.15,0,0,0,3.54,0,4.11,4.11,0,0,0,.61-2.34v-.18a4.24,4.24,0,0,0-.61-2.34,2,2,0,0,0-1.78-.93,2,2,0,0,0-1.76.93,4.24,4.24,0,0,0-.6,2.34Z"/><path class="cls-2" d="M332.46,166.16h-4.87v-1.27h4.87Z"/><path class="cls-2" d="M335.69,170.61v-7.73H334.3v-1.21h1.39v-1.13a3.07,3.07,0,0,1,.75-2.21,2.74,2.74,0,0,1,2.08-.78,3.66,3.66,0,0,1,.57,0c.19,0,.4.07.63.13l-.2,1.23-.36-.05a3,3,0,0,0-.44,0,1.26,1.26,0,0,0-1.05.43,1.84,1.84,0,0,0-.35,1.23v1.13h1.62v1.21h-1.62v7.73Z"/><path class="cls-2" d="M346.07,170.61c-.05-.27-.1-.51-.13-.72a4.21,4.21,0,0,1-.05-.62,3.76,3.76,0,0,1-1.19,1.08,3,3,0,0,1-1.57.43,3,3,0,0,1-2.13-.71,2.67,2.67,0,0,1-.73-2,2.33,2.33,0,0,1,1-2,4.85,4.85,0,0,1,2.81-.72h1.77v-.88a1.63,1.63,0,0,0-.48-1.24,1.86,1.86,0,0,0-1.35-.46,2,2,0,0,0-1.28.39,1.18,1.18,0,0,0-.49.95l-1.55,0v-.05a2.12,2.12,0,0,1,.91-1.78,3.78,3.78,0,0,1,2.51-.81,3.66,3.66,0,0,1,2.44.77,2.72,2.72,0,0,1,.93,2.22v4.31a6.9,6.9,0,0,0,.05.92,4.44,4.44,0,0,0,.18.88Zm-2.7-1.19A2.82,2.82,0,0,0,345,169a2.11,2.11,0,0,0,.93-1v-1.45h-1.83a2.36,2.36,0,0,0-1.57.5,1.48,1.48,0,0,0-.59,1.16,1.21,1.21,0,0,0,.37.94A1.58,1.58,0,0,0,343.37,169.42Z"/><path class="cls-2" d="M353.43,169.51a1.91,1.91,0,0,0,1.31-.5,1.59,1.59,0,0,0,.56-1.23h1.47l0,.05a2.57,2.57,0,0,1-1,2,3.79,3.79,0,0,1-5.29-.38,5,5,0,0,1-1-3.19V166a4.92,4.92,0,0,1,1-3.18,3.51,3.51,0,0,1,2.9-1.28,3.42,3.42,0,0,1,2.45.92,3,3,0,0,1,.92,2.27l0,.05H355.3a2,2,0,0,0-.53-1.39,1.76,1.76,0,0,0-1.34-.57,1.89,1.89,0,0,0-1.75.93,4.41,4.41,0,0,0-.55,2.25v.34a4.41,4.41,0,0,0,.54,2.27A1.88,1.88,0,0,0,353.43,169.51Z"/><path class="cls-2" d="M362.43,170.78a3.76,3.76,0,0,1-3-1.23,4.73,4.73,0,0,1-1.08-3.24V166a4.63,4.63,0,0,1,1.11-3.18,3.47,3.47,0,0,1,2.71-1.26,3.25,3.25,0,0,1,2.69,1.11,4.59,4.59,0,0,1,.9,3v.86H360l0,0a3.67,3.67,0,0,0,.59,2.18,2.08,2.08,0,0,0,1.82.84,4,4,0,0,0,1.45-.24,3.28,3.28,0,0,0,1.07-.64l.63,1.05a3.87,3.87,0,0,1-1.26.78A5,5,0,0,1,362.43,170.78Zm-.26-8a1.8,1.8,0,0,0-1.41.65,3.19,3.19,0,0,0-.68,1.68l0,0h4V165a2.61,2.61,0,0,0-.48-1.61A1.74,1.74,0,0,0,362.17,162.79Z"/><path class="cls-2" d="M373.54,170.61h-1.62V157.73h1.62Z"/><path class="cls-2" d="M379.74,170.78a3.78,3.78,0,0,1-3-1.23,4.73,4.73,0,0,1-1.08-3.24V166a4.63,4.63,0,0,1,1.11-3.18,3.49,3.49,0,0,1,2.72-1.26,3.23,3.23,0,0,1,2.68,1.11,4.59,4.59,0,0,1,.9,3v.86h-5.71l0,0a3.67,3.67,0,0,0,.6,2.18,2.06,2.06,0,0,0,1.81.84,4,4,0,0,0,1.45-.24,3.18,3.18,0,0,0,1.07-.64l.64,1.05a3.82,3.82,0,0,1-1.27.78A5,5,0,0,1,379.74,170.78Zm-.25-8a1.78,1.78,0,0,0-1.41.65,3.11,3.11,0,0,0-.68,1.68v0h4V165a2.61,2.61,0,0,0-.48-1.61A1.72,1.72,0,0,0,379.49,162.79Z"/><path class="cls-2" d="M390.39,170.61c-.06-.27-.1-.51-.13-.72a4.21,4.21,0,0,1-.05-.62,3.87,3.87,0,0,1-1.19,1.08,3,3,0,0,1-1.57.43,3,3,0,0,1-2.13-.71,2.63,2.63,0,0,1-.73-2,2.33,2.33,0,0,1,1-2,4.85,4.85,0,0,1,2.81-.72h1.77v-.88a1.63,1.63,0,0,0-.48-1.24,1.87,1.87,0,0,0-1.36-.46,2,2,0,0,0-1.28.39,1.2,1.2,0,0,0-.48.95l-1.55,0,0-.05a2.16,2.16,0,0,1,.92-1.78,3.76,3.76,0,0,1,2.5-.81,3.67,3.67,0,0,1,2.45.77,2.75,2.75,0,0,1,.92,2.22v4.31a9.12,9.12,0,0,0,.05.92,6.54,6.54,0,0,0,.18.88Zm-2.7-1.19a2.82,2.82,0,0,0,1.59-.46,2.22,2.22,0,0,0,.93-1v-1.45h-1.83a2.36,2.36,0,0,0-1.57.5,1.45,1.45,0,0,0-.59,1.16,1.21,1.21,0,0,0,.37.94A1.56,1.56,0,0,0,387.69,169.42Z"/><path class="cls-2" d="M398.42,163.11l-.83-.05a1.84,1.84,0,0,0-1.09.31,2,2,0,0,0-.68.85v6.39h-1.63v-8.94h1.46l.15,1.31a3,3,0,0,1,.94-1.08,2.19,2.19,0,0,1,1.29-.39,1.87,1.87,0,0,1,.34,0l.28.06Z"/><path class="cls-2" d="M401.57,161.67l.11,1.33a3.27,3.27,0,0,1,1.12-1.1,3,3,0,0,1,1.53-.39,2.93,2.93,0,0,1,2.24.84,3.73,3.73,0,0,1,.79,2.62v5.64h-1.62V165a2.43,2.43,0,0,0-.47-1.68,1.87,1.87,0,0,0-1.42-.49,2.53,2.53,0,0,0-1.28.3,2.12,2.12,0,0,0-.83.85v6.63h-1.63v-8.94Z"/><path class="cls-2" d="M411.48,159.39h-1.62v-1.66h1.62Zm0,11.22h-1.62v-8.94h1.62Z"/><path class="cls-2" d="M415.44,161.67l.12,1.33a3.24,3.24,0,0,1,1.11-1.1,3,3,0,0,1,1.54-.39,2.9,2.9,0,0,1,2.23.84,3.73,3.73,0,0,1,.8,2.62v5.64h-1.63V165a2.43,2.43,0,0,0-.47-1.68,1.85,1.85,0,0,0-1.42-.49,2.55,2.55,0,0,0-1.28.3,2.19,2.19,0,0,0-.83.85v6.63H414v-8.94Z"/><path class="cls-2" d="M423.31,166.31a6,6,0,0,1,.92-3.48,3,3,0,0,1,2.57-1.32,3.13,3.13,0,0,1,1.5.34,3,3,0,0,1,1.08,1l.2-1.17h1.29v9a3.38,3.38,0,0,1-1,2.63,4.06,4.06,0,0,1-2.88.93,6,6,0,0,1-1.39-.18,5.25,5.25,0,0,1-1.32-.49l.25-1.26a4.33,4.33,0,0,0,1.14.4,5.9,5.9,0,0,0,1.3.15,2.36,2.36,0,0,0,1.73-.54,2.2,2.2,0,0,0,.55-1.64v-1a2.93,2.93,0,0,1-1.05.85,3.33,3.33,0,0,1-1.42.29,3,3,0,0,1-2.55-1.18,5,5,0,0,1-.92-3.12Zm1.63.17a3.76,3.76,0,0,0,.55,2.16,1.91,1.91,0,0,0,1.71.82,2.17,2.17,0,0,0,1.23-.33,2.65,2.65,0,0,0,.82-.95v-4.11a2.67,2.67,0,0,0-.82-.91,2.18,2.18,0,0,0-1.22-.33,1.86,1.86,0,0,0-1.72,1,5.06,5.06,0,0,0-.55,2.52Z"/><path class="cls-2" d="M443.37,159.39h-1.62v-1.66h1.62Zm0,11.22h-1.62v-8.94h1.62Z"/><path class="cls-2" d="M447.33,161.67l.12,1.33a3.24,3.24,0,0,1,1.11-1.1,3,3,0,0,1,1.53-.39,2.93,2.93,0,0,1,2.24.84,3.73,3.73,0,0,1,.8,2.62v5.64H451.5V165a2.43,2.43,0,0,0-.47-1.68,1.85,1.85,0,0,0-1.42-.49,2.55,2.55,0,0,0-1.28.3,2.19,2.19,0,0,0-.83.85v6.63h-1.62v-8.94Z"/><path class="cls-2" d="M465.18,170.61c-.05-.27-.1-.51-.13-.72a4.21,4.21,0,0,1-.05-.62,3.76,3.76,0,0,1-1.19,1.08,3,3,0,0,1-1.57.43,3,3,0,0,1-2.13-.71,2.67,2.67,0,0,1-.73-2,2.33,2.33,0,0,1,1-2,4.85,4.85,0,0,1,2.81-.72H465v-.88a1.63,1.63,0,0,0-.48-1.24,1.86,1.86,0,0,0-1.35-.46,2,2,0,0,0-1.28.39,1.18,1.18,0,0,0-.49.95l-1.55,0v-.05a2.12,2.12,0,0,1,.91-1.78,3.78,3.78,0,0,1,2.51-.81,3.66,3.66,0,0,1,2.44.77,2.72,2.72,0,0,1,.93,2.22v4.31a6.9,6.9,0,0,0,.05.92,4.44,4.44,0,0,0,.18.88Zm-2.7-1.19a2.82,2.82,0,0,0,1.59-.46,2.11,2.11,0,0,0,.93-1v-1.45h-1.83a2.36,2.36,0,0,0-1.57.5,1.48,1.48,0,0,0-.59,1.16,1.21,1.21,0,0,0,.37.94A1.58,1.58,0,0,0,462.48,169.42Z"/><path class="cls-2" d="M472.54,169.51a1.91,1.91,0,0,0,1.31-.5,1.59,1.59,0,0,0,.56-1.23h1.47l0,.05a2.57,2.57,0,0,1-1,2,3.79,3.79,0,0,1-5.29-.38,5,5,0,0,1-1-3.19V166a4.92,4.92,0,0,1,1-3.18,3.51,3.51,0,0,1,2.9-1.28,3.42,3.42,0,0,1,2.45.92,3,3,0,0,1,.92,2.27l0,.05h-1.48a2,2,0,0,0-.53-1.39,1.76,1.76,0,0,0-1.34-.57,1.89,1.89,0,0,0-1.75.93,4.41,4.41,0,0,0-.55,2.25v.34a4.41,4.41,0,0,0,.54,2.27A1.88,1.88,0,0,0,472.54,169.51Z"/><path class="cls-2" d="M481.39,169.51a1.91,1.91,0,0,0,1.31-.5,1.55,1.55,0,0,0,.56-1.23h1.47l0,.05a2.57,2.57,0,0,1-1,2,3.79,3.79,0,0,1-5.29-.38,5,5,0,0,1-1-3.19V166a4.92,4.92,0,0,1,1-3.18,3.51,3.51,0,0,1,2.9-1.28,3.4,3.4,0,0,1,2.45.92,3,3,0,0,1,.92,2.27l0,.05h-1.48a2,2,0,0,0-.53-1.39,1.75,1.75,0,0,0-1.34-.57,1.89,1.89,0,0,0-1.75.93,4.41,4.41,0,0,0-.55,2.25v.34a4.31,4.31,0,0,0,.55,2.27A1.87,1.87,0,0,0,481.39,169.51Z"/><path class="cls-2" d="M486.31,166.06a5,5,0,0,1,1.07-3.27,4,4,0,0,1,5.86,0,4.93,4.93,0,0,1,1.07,3.27v.18a4.88,4.88,0,0,1-1.07,3.27,4,4,0,0,1-5.85,0,4.86,4.86,0,0,1-1.08-3.26Zm1.63.18a4.19,4.19,0,0,0,.6,2.34,2.15,2.15,0,0,0,3.54,0,4.11,4.11,0,0,0,.61-2.34v-.18a4.24,4.24,0,0,0-.61-2.34,2,2,0,0,0-1.78-.93,2,2,0,0,0-1.76.93,4.24,4.24,0,0,0-.6,2.34Z"/><path class="cls-2" d="M500.53,163.11l-.83-.05a1.82,1.82,0,0,0-1.09.31,1.93,1.93,0,0,0-.68.85v6.39H496.3v-8.94h1.45l.16,1.31a3,3,0,0,1,.94-1.08,2.18,2.18,0,0,1,1.28-.39,2,2,0,0,1,.35,0l.27.06Z"/><path class="cls-2" d="M501.69,166.31a6,6,0,0,1,.92-3.48,3,3,0,0,1,2.58-1.32,3.13,3.13,0,0,1,1.4.29,2.77,2.77,0,0,1,1,.84v-4.91h1.63v12.88H508l-.25-1.13a2.86,2.86,0,0,1-1.08,1,3.21,3.21,0,0,1-1.49.33,3.07,3.07,0,0,1-2.56-1.18,4.91,4.91,0,0,1-.93-3.12Zm1.63.17a3.82,3.82,0,0,0,.55,2.17,2,2,0,0,0,1.72.81,2.14,2.14,0,0,0,1.22-.33,2.47,2.47,0,0,0,.81-.93V164a2.64,2.64,0,0,0-.81-.88,2.19,2.19,0,0,0-1.2-.32,1.86,1.86,0,0,0-1.73,1,5.06,5.06,0,0,0-.56,2.52Z"/><path class="cls-2" d="M517.17,170.61c-.06-.27-.1-.51-.13-.72a4.21,4.21,0,0,1,0-.62,3.87,3.87,0,0,1-1.19,1.08,3,3,0,0,1-1.57.43,3,3,0,0,1-2.13-.71,2.67,2.67,0,0,1-.73-2,2.33,2.33,0,0,1,1-2,4.85,4.85,0,0,1,2.81-.72H517v-.88a1.63,1.63,0,0,0-.48-1.24,1.87,1.87,0,0,0-1.36-.46,2,2,0,0,0-1.28.39,1.2,1.2,0,0,0-.48.95l-1.55,0v-.05a2.12,2.12,0,0,1,.91-1.78,3.78,3.78,0,0,1,2.5-.81,3.67,3.67,0,0,1,2.45.77,2.72,2.72,0,0,1,.92,2.22v4.31a9.12,9.12,0,0,0,0,.92,6.54,6.54,0,0,0,.18.88Zm-2.7-1.19a2.82,2.82,0,0,0,1.59-.46,2.16,2.16,0,0,0,.93-1v-1.45h-1.83a2.36,2.36,0,0,0-1.57.5,1.48,1.48,0,0,0-.59,1.16,1.21,1.21,0,0,0,.37.94A1.56,1.56,0,0,0,514.47,169.42Z"/><path class="cls-2" d="M522.43,161.67l.11,1.33a3.27,3.27,0,0,1,1.12-1.1,3,3,0,0,1,1.53-.39,2.93,2.93,0,0,1,2.24.84,3.73,3.73,0,0,1,.79,2.62v5.64H526.6V165a2.43,2.43,0,0,0-.47-1.68,1.85,1.85,0,0,0-1.42-.49,2.55,2.55,0,0,0-1.28.3,2.12,2.12,0,0,0-.83.85v6.63H521v-8.94Z"/><path class="cls-2" d="M534.14,169.51a1.91,1.91,0,0,0,1.31-.5,1.59,1.59,0,0,0,.56-1.23h1.47l0,.05a2.57,2.57,0,0,1-1,2,3.79,3.79,0,0,1-5.29-.38,5,5,0,0,1-1-3.19V166a5,5,0,0,1,1-3.18,3.54,3.54,0,0,1,2.91-1.28,3.42,3.42,0,0,1,2.45.92,3,3,0,0,1,.92,2.27l0,.05H536a2,2,0,0,0-.53-1.39,1.76,1.76,0,0,0-1.34-.57,1.89,1.89,0,0,0-1.75.93,4.31,4.31,0,0,0-.55,2.25v.34a4.41,4.41,0,0,0,.54,2.27A1.88,1.88,0,0,0,534.14,169.51Z"/><path class="cls-2" d="M543.14,170.78a3.76,3.76,0,0,1-3-1.23,4.73,4.73,0,0,1-1.08-3.24V166a4.63,4.63,0,0,1,1.11-3.18,3.47,3.47,0,0,1,2.71-1.26,3.25,3.25,0,0,1,2.69,1.11,4.59,4.59,0,0,1,.89,3v.86h-5.71l0,0a3.67,3.67,0,0,0,.59,2.18,2.08,2.08,0,0,0,1.82.84,4,4,0,0,0,1.45-.24,3.28,3.28,0,0,0,1.07-.64l.63,1.05a3.87,3.87,0,0,1-1.26.78A5,5,0,0,1,543.14,170.78Zm-.26-8a1.8,1.8,0,0,0-1.41.65,3.19,3.19,0,0,0-.68,1.68l0,0h4V165a2.61,2.61,0,0,0-.48-1.61A1.74,1.74,0,0,0,542.88,162.79Z"/><path class="cls-2" d="M290.38,187.65l.2,1.14h.05l.22-1.14,1.78-5.68h1.3l1.8,5.68.23,1.28H296l.26-1.28,1.32-5.68h1.7l-2.59,8.93h-1.31l-1.77-5.44-.34-1.42h0l-.31,1.42-1.74,5.44h-1.31L287.28,182H289Z"/><path class="cls-2" d="M302.65,179.68H301V178h1.63Zm0,11.22H301V182h1.63Z"/><path class="cls-2" d="M307.41,179.81V182h1.69v1.2h-1.69v5.43a1.23,1.23,0,0,0,.26.88.94.94,0,0,0,.69.26,1.88,1.88,0,0,0,.31,0,2.24,2.24,0,0,0,.29-.08l.23,1.11a1.6,1.6,0,0,1-.54.25,2.86,2.86,0,0,1-.7.09,2.11,2.11,0,0,1-1.58-.6,2.57,2.57,0,0,1-.59-1.87v-5.43h-1.42V182h1.42v-2.16Z"/><path class="cls-2" d="M312.47,183.16a3.3,3.3,0,0,1,1.14-1,3.1,3.1,0,0,1,1.49-.36,2.88,2.88,0,0,1,2.22.86,3.77,3.77,0,0,1,.8,2.64v5.6h-1.63v-5.62a2.37,2.37,0,0,0-.47-1.63,1.83,1.83,0,0,0-1.42-.53,2.66,2.66,0,0,0-1.26.29,2.28,2.28,0,0,0-.87.79v6.7h-1.62V178h1.62Z"/><path class="cls-2" d="M333.46,187.05l0,0a3.63,3.63,0,0,1-1.19,2.83,4.55,4.55,0,0,1-3.23,1.14,4.23,4.23,0,0,1-3.32-1.44,5.32,5.32,0,0,1-1.29-3.67v-2.14a5.32,5.32,0,0,1,1.29-3.67,4.24,4.24,0,0,1,3.32-1.45,4.71,4.71,0,0,1,3.25,1.09,3.6,3.6,0,0,1,1.17,2.88l0,.05H331.9a2.69,2.69,0,0,0-.74-2,2.88,2.88,0,0,0-2.1-.74,2.56,2.56,0,0,0-2.17,1.1,4.46,4.46,0,0,0-.81,2.73V186a4.47,4.47,0,0,0,.81,2.74,2.54,2.54,0,0,0,2.17,1.1,2.87,2.87,0,0,0,2.1-.73,2.73,2.73,0,0,0,.74-2Z"/><path class="cls-2" d="M344.77,186a5.14,5.14,0,0,1-1.36,3.66,4.65,4.65,0,0,1-3.55,1.45,4.4,4.4,0,0,1-3.42-1.45,5.24,5.24,0,0,1-1.32-3.66v-2.14a5.23,5.23,0,0,1,1.32-3.65,4.38,4.38,0,0,1,3.42-1.47,4.66,4.66,0,0,1,3.55,1.46,5.14,5.14,0,0,1,1.36,3.66Zm-1.62-2.15a4.08,4.08,0,0,0-.89-2.71,3,3,0,0,0-2.4-1.06,2.75,2.75,0,0,0-2.27,1.06,4.22,4.22,0,0,0-.84,2.71V186a4.28,4.28,0,0,0,.84,2.73,2.77,2.77,0,0,0,2.27,1.05,3,3,0,0,0,2.4-1.05,4.09,4.09,0,0,0,.89-2.73Z"/><path class="cls-2" d="M350.59,187.75l.27,1h.05l.27-1,3.11-8.87h1.76l-4.47,12h-1.4l-4.46-12h1.76Z"/><path class="cls-2" d="M359.43,190.9H357.8v-12h1.63Z"/><path class="cls-2" d="M362.41,190.9v-12h3.78a4.94,4.94,0,0,1,5.22,5.19v1.64a4.93,4.93,0,0,1-5.22,5.19ZM364,180.16v9.47h2.15a3.31,3.31,0,0,0,2.63-1.1,4.13,4.13,0,0,0,1-2.82v-1.66a4.08,4.08,0,0,0-1-2.79,3.28,3.28,0,0,0-2.63-1.1Z"/><path class="cls-2" d="M378.71,186.46h-4.87v-1.27h4.87Z"/><path class="cls-2" d="M385.94,190.9h-1.63V180.38l-2.62,0v-1.25l4.25-.45Z"/><path class="cls-2" d="M393.74,189.8a2.41,2.41,0,0,0,1.89-.81,3.28,3.28,0,0,0,.73-2.29v-1a2.71,2.71,0,0,1-1,.89,2.79,2.79,0,0,1-1.29.3,3.48,3.48,0,0,1-2.72-1.07,4.82,4.82,0,0,1,.06-5.93A3.36,3.36,0,0,1,394,178.7a3.8,3.8,0,0,1,2.89,1.14A4.38,4.38,0,0,1,398,183v3.65a4.27,4.27,0,0,1-1.19,3.23,4.16,4.16,0,0,1-3.06,1.16,6.51,6.51,0,0,1-1.3-.13,6,6,0,0,1-1.24-.39l.24-1.24a4.44,4.44,0,0,0,1.07.38A6.31,6.31,0,0,0,393.74,189.8Zm.34-4.21a2.51,2.51,0,0,0,1.43-.39,2.31,2.31,0,0,0,.85-1v-1.42a3.15,3.15,0,0,0-.61-2.08,2.08,2.08,0,0,0-1.69-.73,1.78,1.78,0,0,0-1.47.79,3.3,3.3,0,0,0-.59,2,3.41,3.41,0,0,0,.54,2A1.79,1.79,0,0,0,394.08,185.59Z"/><path class="cls-2" d="M406.13,183.16a3.3,3.3,0,0,1,1.14-1,3.1,3.1,0,0,1,1.49-.36,2.88,2.88,0,0,1,2.22.86,3.72,3.72,0,0,1,.8,2.64v5.6h-1.63v-5.62a2.37,2.37,0,0,0-.47-1.63,1.83,1.83,0,0,0-1.42-.53,2.66,2.66,0,0,0-1.26.29,2.28,2.28,0,0,0-.87.79v6.7h-1.62V178h1.62Z"/><path class="cls-2" d="M417.82,191.07a3.76,3.76,0,0,1-3-1.23,4.72,4.72,0,0,1-1.08-3.23v-.37a4.63,4.63,0,0,1,1.11-3.18,3.47,3.47,0,0,1,2.71-1.26,3.23,3.23,0,0,1,2.69,1.12,4.57,4.57,0,0,1,.9,3v.86h-5.72l0,0A3.65,3.65,0,0,0,416,189a2.08,2.08,0,0,0,1.82.84,4.28,4.28,0,0,0,1.45-.23,3.48,3.48,0,0,0,1.07-.65L421,190a4.06,4.06,0,0,1-1.26.79A5.06,5.06,0,0,1,417.82,191.07Zm-.26-8a1.78,1.78,0,0,0-1.41.66,3.12,3.12,0,0,0-.68,1.68l0,0h4v-.13a2.59,2.59,0,0,0-.48-1.61A1.72,1.72,0,0,0,417.56,183.08Z"/><path class="cls-2" d="M428.46,190.9c0-.27-.1-.51-.13-.71a4.46,4.46,0,0,1-.05-.63,3.76,3.76,0,0,1-1.19,1.08,3,3,0,0,1-1.57.43,2.88,2.88,0,0,1-2.12-.71,2.62,2.62,0,0,1-.74-2,2.31,2.31,0,0,1,1-2,4.85,4.85,0,0,1,2.81-.73h1.77v-.88a1.63,1.63,0,0,0-.48-1.24,1.86,1.86,0,0,0-1.35-.46,1.92,1.92,0,0,0-1.28.4,1.17,1.17,0,0,0-.49,1h-1.54l0-.05a2.12,2.12,0,0,1,.91-1.78,3.78,3.78,0,0,1,2.51-.81,3.71,3.71,0,0,1,2.44.77,2.74,2.74,0,0,1,.93,2.23v4.3a6.81,6.81,0,0,0,0,.92,4.44,4.44,0,0,0,.18.88Zm-2.7-1.19a2.89,2.89,0,0,0,1.59-.45,2.16,2.16,0,0,0,.93-1v-1.46h-1.83a2.36,2.36,0,0,0-1.57.5,1.49,1.49,0,0,0-.59,1.16,1.24,1.24,0,0,0,.37.94A1.53,1.53,0,0,0,425.76,189.71Z"/><path class="cls-2" d="M434,190.9H432.4V178H434Z"/><path class="cls-2" d="M438.79,179.81V182h1.69v1.2h-1.69v5.43a1.23,1.23,0,0,0,.26.88.94.94,0,0,0,.69.26,1.88,1.88,0,0,0,.31,0,2.24,2.24,0,0,0,.29-.08l.23,1.11a1.51,1.51,0,0,1-.54.25,2.86,2.86,0,0,1-.7.09,2.11,2.11,0,0,1-1.58-.6,2.57,2.57,0,0,1-.59-1.87v-5.43h-1.42V182h1.42v-2.16Z"/><path class="cls-2" d="M443.85,183.16a3.3,3.3,0,0,1,1.14-1,3.1,3.1,0,0,1,1.49-.36,2.88,2.88,0,0,1,2.22.86,3.77,3.77,0,0,1,.8,2.64v5.6h-1.63v-5.62a2.37,2.37,0,0,0-.47-1.63,1.83,1.83,0,0,0-1.42-.53,2.66,2.66,0,0,0-1.26.29,2.28,2.28,0,0,0-.87.79v6.7h-1.62V178h1.62Z"/><path class="cls-2" d="M463.65,186.77a4.91,4.91,0,0,1-.92,3.12,3.06,3.06,0,0,1-2.55,1.18,3.61,3.61,0,0,1-1.45-.27,2.76,2.76,0,0,1-1.06-.83v4.36H456V182h1.25l.25,1.15a2.91,2.91,0,0,1,1.09-1,3.21,3.21,0,0,1,1.52-.34,3,3,0,0,1,2.58,1.32,5.92,5.92,0,0,1,.92,3.48ZM462,186.6a4.7,4.7,0,0,0-.6-2.5,2,2,0,0,0-1.76-1,2.19,2.19,0,0,0-1.2.32,2.32,2.32,0,0,0-.8.87v4.32a2.15,2.15,0,0,0,2,1.17,2,2,0,0,0,1.75-.84,3.73,3.73,0,0,0,.6-2.19Z"/><path class="cls-2" d="M469.88,183.4l-.83-.05a1.82,1.82,0,0,0-1.09.31,1.9,1.9,0,0,0-.68.86v6.38h-1.63V182h1.45l.16,1.3a3.12,3.12,0,0,1,.94-1.08,2.18,2.18,0,0,1,1.28-.39,2,2,0,0,1,.35,0l.27.06Z"/><path class="cls-2" d="M471,186.35a5,5,0,0,1,1.07-3.27,4,4,0,0,1,5.85,0,4.88,4.88,0,0,1,1.08,3.27v.18A4.88,4.88,0,0,1,478,189.8a4,4,0,0,1-5.84,0,4.88,4.88,0,0,1-1.08-3.27Zm1.62.18a4.25,4.25,0,0,0,.6,2.35,2.17,2.17,0,0,0,3.55,0,4.25,4.25,0,0,0,.6-2.35v-.18a4.18,4.18,0,0,0-.61-2.34,2.15,2.15,0,0,0-3.54,0,4.26,4.26,0,0,0-.6,2.34Z"/><path class="cls-2" d="M483.28,179.81V182H485v1.2h-1.69v5.43a1.23,1.23,0,0,0,.26.88.94.94,0,0,0,.69.26,1.88,1.88,0,0,0,.31,0,2.24,2.24,0,0,0,.29-.08l.23,1.11a1.51,1.51,0,0,1-.54.25,2.86,2.86,0,0,1-.7.09,2.11,2.11,0,0,1-1.58-.6,2.57,2.57,0,0,1-.59-1.87v-5.43h-1.42V182h1.42v-2.16Z"/><path class="cls-2" d="M486.34,186.35a4.91,4.91,0,0,1,1.07-3.27,3.61,3.61,0,0,1,2.91-1.28,3.65,3.65,0,0,1,2.94,1.28,4.88,4.88,0,0,1,1.08,3.27v.18a4.88,4.88,0,0,1-1.08,3.27,4,4,0,0,1-5.85,0,4.88,4.88,0,0,1-1.07-3.27Zm1.62.18a4.25,4.25,0,0,0,.6,2.35,2.17,2.17,0,0,0,3.55,0,4.25,4.25,0,0,0,.6-2.35v-.18a4.18,4.18,0,0,0-.61-2.34,2.15,2.15,0,0,0-3.54,0,4.26,4.26,0,0,0-.6,2.34Z"/><path class="cls-2" d="M499.88,189.8a1.87,1.87,0,0,0,1.31-.5,1.58,1.58,0,0,0,.56-1.22h1.47l0,0a2.58,2.58,0,0,1-1,2.05,3.55,3.55,0,0,1-2.38.89,3.49,3.49,0,0,1-2.91-1.28,4.93,4.93,0,0,1-1-3.18v-.35a4.92,4.92,0,0,1,1-3.18,3.51,3.51,0,0,1,2.9-1.28,3.38,3.38,0,0,1,2.45.93,2.94,2.94,0,0,1,.92,2.27l0,.05h-1.48a2,2,0,0,0-.53-1.4,1.76,1.76,0,0,0-1.34-.57,1.89,1.89,0,0,0-1.75.93,4.31,4.31,0,0,0-.55,2.25v.35a4.46,4.46,0,0,0,.54,2.27A1.89,1.89,0,0,0,499.88,189.8Z"/><path class="cls-2" d="M504.8,186.35a5,5,0,0,1,1.07-3.27,4,4,0,0,1,5.85,0,4.88,4.88,0,0,1,1.08,3.27v.18a4.93,4.93,0,0,1-1.07,3.27,4,4,0,0,1-5.85,0,4.88,4.88,0,0,1-1.08-3.27Zm1.63.18a4.25,4.25,0,0,0,.59,2.35,2.17,2.17,0,0,0,3.55,0,4.25,4.25,0,0,0,.6-2.35v-.18a4.26,4.26,0,0,0-.6-2.34,2,2,0,0,0-1.78-.93A2,2,0,0,0,507,184a4.26,4.26,0,0,0-.59,2.34Z"/><path class="cls-2" d="M516.55,190.9h-1.63V178h1.63Z"/><path class="cls-2" d="M524.24,188.5a1.1,1.1,0,0,0-.4-.88,4.1,4.1,0,0,0-1.55-.59,6.79,6.79,0,0,1-2.43-.95,1.93,1.93,0,0,1-.84-1.64,2.34,2.34,0,0,1,.93-1.86,4.07,4.07,0,0,1,4.86,0,2.35,2.35,0,0,1,.9,1.92v0h-1.55a1.39,1.39,0,0,0-.51-1,2.14,2.14,0,0,0-2.57-.08,1.22,1.22,0,0,0-.42.92,1,1,0,0,0,.36.82,4.15,4.15,0,0,0,1.52.53,6.48,6.48,0,0,1,2.49,1,2,2,0,0,1,.85,1.66,2.36,2.36,0,0,1-1,1.94,4.62,4.62,0,0,1-5.21-.11,2.51,2.51,0,0,1-.93-2l0-.05h1.55a1.52,1.52,0,0,0,.64,1.27,2.5,2.5,0,0,0,1.41.4,2.18,2.18,0,0,0,1.36-.37A1.1,1.1,0,0,0,524.24,188.5Z"/><path class="cls-2" d="M170.61,131.37a9.45,9.45,0,0,0-4.8-6.91c-.4-.23-.31-.42-.2-.74a5.87,5.87,0,0,0-.76-5.52c-.12-.18-.36-.33-.27-.59a12,12,0,0,0,.15-3.23,18.51,18.51,0,0,0-.86-6.4c-.3-.9-.92-1.3-1.66-1.08a1.28,1.28,0,0,0-.81,1.79,19.32,19.32,0,0,1,.78,6.41c0,.58-.21.64-.69.63-2.45,0-4.91,0-7.36,0a6.68,6.68,0,0,1-6.38-5,14.31,14.31,0,0,1-.28-1.95,1.17,1.17,0,0,0-1.09-1,1.15,1.15,0,0,0-1.3.75,3,3,0,0,0-.17,1,6.69,6.69,0,0,1-6.36,6.23c-2.57.07-5.14,0-7.7,0-.48,0-.57-.17-.55-.59,0-.71,0-1.42,0-2.14a14.44,14.44,0,0,1,13.83-14.12c.48,0,.79,0,.91.6a1.1,1.1,0,0,0,1.16.83,1.08,1.08,0,0,0,1.17-.81c.12-.68.49-.63,1-.61a14.3,14.3,0,0,1,10.08,4.76c.67.73,1.43.81,2,.25s.51-1.26-.12-2a13.12,13.12,0,0,0-2.66-2.39c-3.46-2.26-7.09-3.87-11.38-2.88-.12,0-.27-.06-.39-.12a3.17,3.17,0,0,0-1.42-.23A17.09,17.09,0,0,0,128.59,108a23.4,23.4,0,0,0-.8,8.72,3.49,3.49,0,0,1-.86,2.51,6.7,6.7,0,0,0-2.33-4.26c-.28-.23-.22-.51-.22-.78,0-1.6,0-3.2,0-4.8a17.47,17.47,0,0,0-12-16.08,24.86,24.86,0,0,0-9.48-.72,14.67,14.67,0,0,0-11.54,6.22.65.65,0,0,1-.85.28c-1-.36-2.11-.69-3.17-1a1.3,1.3,0,0,0-1.85,1.32,57.64,57.64,0,0,0,1,14.12.71.71,0,0,1-.36.94,6.21,6.21,0,0,0-3,6.42,6.29,6.29,0,0,0,5,5.44.89.89,0,0,1,.77.72,16.6,16.6,0,0,0,6.91,9.55c.13.09.31.13.35.39H93.88a8.06,8.06,0,0,0-8.2,8.17c0,3.59,0,7.19,0,10.78a1.81,1.81,0,0,0,.25,1.07c.56.82,3.69.81,4.24,0a1.28,1.28,0,0,0-1.2-2c-.62,0-.74-.2-.73-.77,0-3,0-6.05,0-9.08a5.39,5.39,0,0,1,4.62-5.51,37.94,37.94,0,0,1,4.27-.1c.39,0,.38.27.45.5,1.11,3.69,3.89,5.88,7.46,5.87a7.58,7.58,0,0,0,7.44-5.89c.11-.39.25-.49.62-.48,1,0,1.94,0,2.91,0a5.45,5.45,0,0,1,5.78,5.78c0,2.91,0,5.82,0,8.73,0,.72-.12.94-.9.94-8.39,0-16.78,0-25.17,0a3.58,3.58,0,0,0-.93.06,1.26,1.26,0,0,0-.67,2.09,1.68,1.68,0,0,0,1.42.42h27c1.4,0,1.8-.37,1.76-1.77-.14-4.59.37-9.2-.38-13.79a13.44,13.44,0,0,0,5.53-.72,9.38,9.38,0,0,0-1.27,5.42c0,3,0,6.11,0,9.16,0,1.3.38,1.7,1.66,1.7h32.7c1.23,0,1.64-.41,1.64-1.64,0-3,0-5.93,0-8.9a9.62,9.62,0,0,0-1.26-5.73c2.11.89,4.08.66,6,.72a1.62,1.62,0,0,0,1.68-.91v-9.58S170.61,131.41,170.61,131.37Zm-40.34-12.29a3.32,3.32,0,0,1,2.2-.79c1.54,0,3.08-.06,4.61,0a9.62,9.62,0,0,0,9.1-4.5,1.12,1.12,0,0,1,.22.17A9.41,9.41,0,0,0,155,118.3c1.62,0,3.25,0,4.88,0a3.41,3.41,0,0,1,.31,6.81c-1.26.11-1.43.29-1.73,1.55,0,.11-.07.2-.09.3-14.67-2.49-24.27.08-24.27.08,0-.16-.08-.33-.12-.5-.26-1.16-.45-1.33-1.63-1.43a3.51,3.51,0,0,1-3.14-2.38A3.41,3.41,0,0,1,130.27,119.08Zm4.95,15.32a19.15,19.15,0,0,0,4,3.11c-1.83.24-3.67-.1-5.58.52A10.85,10.85,0,0,0,135.22,134.4Zm6.63,4.11a15.13,15.13,0,0,0,8.79,0c.21,2.18,0,4.13-2,5.37a4.18,4.18,0,0,1-4.68,0C141.91,142.62,141.64,140.67,141.85,138.51Zm15.32-4.07a12,12,0,0,0,1.66,3.57c-1.93-.57-3.73-.29-5.56-.49A19.42,19.42,0,0,0,157.17,134.44ZM89.51,123.9a4,4,0,0,1-3.86-4A3.92,3.92,0,0,1,89.5,116c1.12-.07,1.41-.34,1.64-1.46a13.67,13.67,0,0,1,2.13-5.1,11.27,11.27,0,0,0,7.35,6.16,12.72,12.72,0,0,0,3.47.4h16.34a3.9,3.9,0,0,1,3.89,3.2,3.94,3.94,0,0,1-2.55,4.42,4.87,4.87,0,0,1-1.25.25c-1.15.1-1.44.33-1.65,1.44-.07.38-.19.73-.29,1.09-16.13-2.76-26.76,0-27.11.07-.11-.38-.23-.75-.32-1.15C90.89,124.2,90.67,124,89.51,123.9Zm18,18.79a5.1,5.1,0,0,1-7.45-3.56c-.07-.38,0-.6.45-.46a16.83,16.83,0,0,0,9.66-.15A5,5,0,0,1,107.47,142.69Zm14.28-10.14c0,2.08,0,4.17,0,6.41a9.45,9.45,0,0,0-3.76-1.85,28.3,28.3,0,0,0-4.13-.19c.06-.3.34-.36.53-.48a16.59,16.59,0,0,0,6.72-9.38.92.92,0,0,1,.81-.79,6.49,6.49,0,0,0,4.51-3.71c.91,1.27.22,1.87-.83,2.63A9,9,0,0,0,121.75,132.55Zm4.19,6.83c-1.64.05-1.64.05-1.64-1.54v-2.71a20.83,20.83,0,0,1,.19-3.94,7,7,0,0,1,3.47-4.55.94.94,0,0,1,1.22,0,2.64,2.64,0,0,0,1.2.61c1,.14,1.31.76,1.61,1.63.5,1.51,1.16,2.91.81,4.6A7.05,7.05,0,0,1,125.94,139.38Zm35,15.56h-14.8c-4.85,0-9.7,0-14.54,0-.62,0-.82-.11-.81-.77.05-2.83,0-5.65,0-8.47a5.27,5.27,0,0,1,5.47-5.51h.26a6.17,6.17,0,0,1,2.36.07c.72.32.41,1.38.66,2.09a7.09,7.09,0,0,0,7.34,4.71,6.84,6.84,0,0,0,6.17-5.79c.13-.87.37-1.21,1.29-1.1s2.1-.07,3.15.16a5.16,5.16,0,0,1,4.14,4.89c0,3.05,0,6.11,0,9.16C161.73,155.07,161.34,154.94,161,154.94Zm6.88-15.55c-3.72.31-6.73-1.41-7.88-4.79A6.63,6.63,0,0,1,160,130a4.58,4.58,0,0,1,2.82-3.14,2,2,0,0,1,2.26.21,7,7,0,0,1,3,5.74c0,.94,0,1.88,0,2.82,0,1.09,0,2.17,0,3.25C168.16,139.07,168.27,139.35,167.84,139.39Z"/><path class="cls-2" d="M112.48,123.77a1.26,1.26,0,0,0,1.34-1.26c0-.48,0-1,0-1.45h0c0-.49,0-1,0-1.46a1.23,1.23,0,0,0-1.3-1.2,1.21,1.21,0,0,0-1.23,1.26q-.06,1.41,0,2.82A1.21,1.21,0,0,0,112.48,123.77Z"/><path class="cls-2" d="M97.37,123.76a1.12,1.12,0,0,0,1.33-.94,11,11,0,0,0,0-3.49,1.25,1.25,0,0,0-2.44.18c0,.51,0,1,0,1.54h0c0,.52,0,1,0,1.54A1.14,1.14,0,0,0,97.37,123.76Z"/><path class="cls-2" d="M137.85,122.53a.51.51,0,0,1,.36.57c0,.26,0,.51,0,.77a1.32,1.32,0,0,0,1.27,1.42,1.31,1.31,0,0,0,1.29-1.4c0-.39,0-.79,0-1.19s0-.74,0-1.1a1.3,1.3,0,0,0-1.44-1.49c-.28,0-.57,0-.85,0a1.22,1.22,0,0,0-1.33,1A1.16,1.16,0,0,0,137.85,122.53Z"/><path class="cls-2" d="M151.69,122.72h0c0,.43,0,.86,0,1.29a1.26,1.26,0,0,0,2.52.15,2.21,2.21,0,0,0,0-.68c0-.47,0-.84.55-1.08a1.07,1.07,0,0,0,.51-1.33,1.12,1.12,0,0,0-1.08-.93c-1.66-.08-2.71-.24-2.54,2.16C151.7,122.44,151.69,122.58,151.69,122.72Z"/><path class="cls-2" d="M42.59,124.16a5,5,0,0,1-2.68.07,5.38,5.38,0,0,1-3.77-3.77,4.89,4.89,0,0,1,.07-2.68,5.71,5.71,0,0,1,1.5-2.44,5.65,5.65,0,0,1,2-1.34,4.54,4.54,0,0,1,2.18-.32l-.09,2a3.21,3.21,0,0,0-2.61,1,3.41,3.41,0,0,0-.88,1.47,2.9,2.9,0,0,0,0,1.6,3.52,3.52,0,0,0,2.35,2.35,2.9,2.9,0,0,0,1.6,0,3.41,3.41,0,0,0,1.47-.88,3.2,3.2,0,0,0,.94-2.63l2-.08a4.63,4.63,0,0,1-.31,2.2,6.24,6.24,0,0,1-3.78,3.48Z"/><path class="cls-2" d="M49.86,116.88a5,5,0,0,1-2.69.08,5.35,5.35,0,0,1-3.76-3.76,5.06,5.06,0,0,1,.08-2.7,6.2,6.2,0,0,1,4-4,5.06,5.06,0,0,1,2.7-.07,5.28,5.28,0,0,1,3.75,3.75,5.06,5.06,0,0,1-.07,2.7,6.19,6.19,0,0,1-4,4Zm1.92-4.33a3,3,0,0,0,0-1.6,3.31,3.31,0,0,0-.89-1.46,3.36,3.36,0,0,0-1.46-.89,3,3,0,0,0-1.6,0,3.4,3.4,0,0,0-2.27,2.27,2.9,2.9,0,0,0,0,1.6,3.54,3.54,0,0,0,2.34,2.34,2.9,2.9,0,0,0,1.6,0,3.4,3.4,0,0,0,2.27-2.27Z"/><path class="cls-2" d="M56.81,96.47l4,10.15-1.62,1.62-10.14-4,1.77-1.77,7.22,2.91L55.18,98.1Z"/><path class="cls-2" d="M57.4,95.89,59,94.25l7.08,7.08L64.48,103Z"/><path class="cls-2" d="M60.72,92.57l3.22-3.22a6.36,6.36,0,0,1,2.47-1.6A4.7,4.7,0,0,1,69,87.61a5.41,5.41,0,0,1,3.73,3.73A4.76,4.76,0,0,1,72.62,94,6.39,6.39,0,0,1,71,96.43L67.8,99.65Zm8.87,2.6a3.38,3.38,0,0,0,1.11-2.29,3.34,3.34,0,0,0-3.21-3.21,3.38,3.38,0,0,0-2.29,1.11l-1.5,1.49,4.4,4.4Z"/><path class="cls-2" d="M83.54,83.91l-3.34-.6-.08.08-1.43,1.43,2,2L79,88.43l-7.08-7.09L75,78.28A5.36,5.36,0,0,1,77,77a3.3,3.3,0,0,1,3.69.81,3.24,3.24,0,0,1,.78,3.7l3.87.68Zm-5.85-5a2.43,2.43,0,0,0-1.44.8L74.92,81l2.47,2.47,1.33-1.34a2.4,2.4,0,0,0,.8-1.44,1.79,1.79,0,0,0-1.83-1.83Z"/><path class="cls-2" d="M89.38,73.52l-4.12,4.12a1.77,1.77,0,0,0,1.32.27,2.42,2.42,0,0,0,1.33-.74,3.09,3.09,0,0,0,.63-.87,2.81,2.81,0,0,0,.21-1l1.75.08a4,4,0,0,1-1.37,3.12,5,5,0,0,1-2,1.27,3.74,3.74,0,0,1-2.09.1,3.87,3.87,0,0,1-1.84-1.06A4,4,0,0,1,82.16,77a3.82,3.82,0,0,1,0-2,4.32,4.32,0,0,1,1.12-1.84,4.21,4.21,0,0,1,1.8-1.1,3.49,3.49,0,0,1,2,0A4.16,4.16,0,0,1,89,73.07Zm-5.45,2a1.82,1.82,0,0,0,.39,1.27L87,74.06a1.83,1.83,0,0,0-1.27-.38,1.89,1.89,0,0,0-1.2.58A1.92,1.92,0,0,0,83.93,75.47Z"/><path class="cls-2" d="M93.16,74.13a5.08,5.08,0,0,1-1.45.61l-.61-1.66a5.22,5.22,0,0,0,1.26-.5,5.67,5.67,0,0,0,1.16-.87c.66-.67.83-1.17.5-1.5a.51.51,0,0,0-.61-.06,6.81,6.81,0,0,0-1,.67,11.27,11.27,0,0,1-1.33.87,2.47,2.47,0,0,1-1.22.29,1.86,1.86,0,0,1-1.27-.63A2.11,2.11,0,0,1,88,70.13a2.63,2.63,0,0,1,.25-1.49,5.08,5.08,0,0,1,1.13-1.57,7.43,7.43,0,0,1,1.27-1,4.72,4.72,0,0,1,1.3-.59l.59,1.65a4.41,4.41,0,0,0-2,1.16,2.34,2.34,0,0,0-.62.9.6.6,0,0,0,.11.62.52.52,0,0,0,.63.08,7.15,7.15,0,0,0,1.06-.68A12.54,12.54,0,0,1,93,68.33a2.26,2.26,0,0,1,1.2-.28,1.83,1.83,0,0,1,1.25.62,2,2,0,0,1,.6,1.2,2.7,2.7,0,0,1-.28,1.5A5.53,5.53,0,0,1,94.65,73,7.61,7.61,0,0,1,93.16,74.13Z"/><path class="cls-2" d="M97.53,59.57a3.62,3.62,0,0,1,2,0,4.58,4.58,0,0,1,3,3,3.62,3.62,0,0,1,0,2,4,4,0,0,1-1,1.73,3,3,0,0,1-2.3,1l2.54,2.54-1.58,1.58-7.4-7.41,1.5-1.51.63.63a3,3,0,0,1,1-2.42A3.92,3.92,0,0,1,97.53,59.57Zm2.9,4.21a2.47,2.47,0,0,0-2.2-2.2,1.88,1.88,0,0,0-1.41.59,1.84,1.84,0,0,0-.58,1.41,2.47,2.47,0,0,0,2.19,2.19,2,2,0,0,0,2-2Z"/><path class="cls-2" d="M105.86,61A3.91,3.91,0,0,1,101,56.15a4.64,4.64,0,0,1,1.19-1.91,4.53,4.53,0,0,1,1.89-1.17,3.74,3.74,0,0,1,2.07-.07A4.11,4.11,0,0,1,109,55.89a3.8,3.8,0,0,1-.07,2.06,4.42,4.42,0,0,1-1.18,1.9A4.65,4.65,0,0,1,105.86,61Zm1.2-3.89a2.47,2.47,0,0,0-2.2-2.2,2,2,0,0,0-2,2,2.45,2.45,0,0,0,2.2,2.2,2,2,0,0,0,2-2Z"/><path class="cls-2" d="M111.74,45.87a3.41,3.41,0,0,1,2.43,1.18l3.12,3.12-1.58,1.57-2.88-2.87a2,2,0,0,0-1.25-.68,1.45,1.45,0,0,0-1.13.5,1.78,1.78,0,0,0-.59,1.32,2.14,2.14,0,0,0,.75,1.45l2.69,2.69-1.58,1.58-5.44-5.44,1.5-1.51.64.64a2.89,2.89,0,0,1,.25-1.31,3.85,3.85,0,0,1,.83-1.21A3.17,3.17,0,0,1,111.74,45.87Z"/><path class="cls-2" d="M119.13,48.15a4.86,4.86,0,0,1-1.45.61l-.61-1.66a4.58,4.58,0,0,0,1.26-.5,5.14,5.14,0,0,0,1.16-.86q1-1,.51-1.5a.49.49,0,0,0-.61-.06,5.2,5.2,0,0,0-1,.66,10.53,10.53,0,0,1-1.34.87,2.32,2.32,0,0,1-1.22.29,1.88,1.88,0,0,1-1.27-.63,2.07,2.07,0,0,1-.61-1.21,2.73,2.73,0,0,1,.24-1.5,5.38,5.38,0,0,1,1.13-1.57,7,7,0,0,1,1.28-1,4.33,4.33,0,0,1,1.29-.6l.6,1.65a4.45,4.45,0,0,0-2,1.16,2.23,2.23,0,0,0-.62.9.58.58,0,0,0,.11.62.51.51,0,0,0,.63.08,6.9,6.9,0,0,0,1.06-.67,11.87,11.87,0,0,1,1.33-.86,2.36,2.36,0,0,1,1.2-.28,1.89,1.89,0,0,1,1.25.62,2.07,2.07,0,0,1,.59,1.2,2.77,2.77,0,0,1-.27,1.5,5.57,5.57,0,0,1-1.16,1.6A7.62,7.62,0,0,1,119.13,48.15Z"/><path class="cls-2" d="M127.11,35.79,123,39.9a1.81,1.81,0,0,0,1.33.28,2.46,2.46,0,0,0,1.32-.74,2.77,2.77,0,0,0,.63-.88,2.53,2.53,0,0,0,.22-1l1.75.07a4,4,0,0,1-1.37,3.13,5.14,5.14,0,0,1-2,1.27,3.74,3.74,0,0,1-2.09.09,4.12,4.12,0,0,1-2.89-2.88,3.67,3.67,0,0,1,0-2,4.54,4.54,0,0,1,2.91-2.94,3.61,3.61,0,0,1,2,0,4.23,4.23,0,0,1,1.86,1.12Zm-5.44,1.94a1.85,1.85,0,0,0,.38,1.27l2.68-2.68a1.87,1.87,0,0,0-1.27-.38,2.07,2.07,0,0,0-1.79,1.79Z"/></svg>