<svg id="Layer_1" data-name="Layer 1" xmlns="http://www.w3.org/2000/svg" viewBox="0 0 654 250"><defs><style>.cls-1{fill:none;stroke:#c02134;stroke-miterlimit:10;stroke-width:2.6px;}.cls-2{fill:#c02134;}.cls-3{opacity:0.15;}.cls-4{fill:#fff;}</style></defs><polygon class="cls-1" points="12.59 125 126.31 238.72 527.69 238.72 641.41 125 527.69 11.28 126.31 11.28 12.59 125"/><path class="cls-2" d="M362.12,91.14H358v-2.4h11.12v2.4h-4.08v10.35h-3Z"/><path class="cls-2" d="M380.62,99.13v2.36h-9.87V88.74h9.64v2.37h-6.71v2.77h5.92v2.29h-5.92v3Z"/><path class="cls-2" d="M391.38,98.76h-5.93l-1.13,2.73h-3L387,88.74h2.91l5.71,12.75h-3.1Zm-.93-2.24-2-4.89-2,4.89Z"/><path class="cls-2" d="M399.34,100.87a6.26,6.26,0,0,1-2.48-2.36,6.79,6.79,0,0,1,0-6.79,6.26,6.26,0,0,1,2.48-2.36,8,8,0,0,1,6.54-.26,6.06,6.06,0,0,1,2.25,1.68l-1.9,1.75A4.06,4.06,0,0,0,403,91a4.35,4.35,0,0,0-2.12.52A3.74,3.74,0,0,0,399.46,93a4.56,4.56,0,0,0,0,4.23,3.74,3.74,0,0,0,1.45,1.45,4.35,4.35,0,0,0,2.12.52,4,4,0,0,0,3.2-1.52l1.9,1.75a5.86,5.86,0,0,1-2.26,1.7,7.48,7.48,0,0,1-3,.58A7.35,7.35,0,0,1,399.34,100.87Z"/><path class="cls-2" d="M421.82,88.74v12.75h-2.95V96.26h-5.8v5.23h-2.95V88.74h2.95v5h5.8v-5Z"/><path class="cls-2" d="M434.72,99.13v2.36h-9.88V88.74h9.65v2.37h-6.71v2.77h5.92v2.29h-5.92v3Z"/><path class="cls-2" d="M445.2,101.49l-2.46-3.55H440v3.55h-3V88.74h5.53a7,7,0,0,1,2.94.56,4.41,4.41,0,0,1,1.92,1.6,4.46,4.46,0,0,1,.68,2.47,4.12,4.12,0,0,1-2.63,4l2.86,4.1Zm-.74-9.77a3.09,3.09,0,0,0-2-.58H440v4.45h2.4a3.15,3.15,0,0,0,2-.58,2.31,2.31,0,0,0,0-3.29Z"/><path class="cls-2" d="M451.74,101.3a7,7,0,0,1-2.27-1.06l1-2.23a6.84,6.84,0,0,0,1.95,1,7.41,7.41,0,0,0,2.26.36,3.6,3.6,0,0,0,1.86-.37,1.13,1.13,0,0,0,.6-1,1,1,0,0,0-.35-.76,2.7,2.7,0,0,0-.91-.48c-.38-.12-.88-.26-1.51-.4a20.82,20.82,0,0,1-2.39-.7,3.83,3.83,0,0,1-1.59-1.11,3,3,0,0,1-.67-2,3.48,3.48,0,0,1,.61-2,4,4,0,0,1,1.81-1.43,7.26,7.26,0,0,1,3-.53,9.54,9.54,0,0,1,2.39.29,6.72,6.72,0,0,1,2,.84l-.91,2.24a7.11,7.11,0,0,0-3.54-1,3.31,3.31,0,0,0-1.83.4,1.22,1.22,0,0,0-.59,1,1,1,0,0,0,.68,1,11.21,11.21,0,0,0,2.09.63,21,21,0,0,1,2.39.69,4,4,0,0,1,1.59,1.09,2.93,2.93,0,0,1,.67,2,3.51,3.51,0,0,1-.61,2,4,4,0,0,1-1.84,1.43,7.31,7.31,0,0,1-3,.53A10.2,10.2,0,0,1,451.74,101.3Z"/><path class="cls-2" d="M398.69,36.87v5.2L385.82,71.5h-8.71l12.42-28.1H378.06V49h-7.13V36.87Z"/><path class="cls-2" d="M428.12,65V71.5H402V66.31l13.36-12.62a14.28,14.28,0,0,0,2.87-3.48,6.44,6.44,0,0,0,.74-2.9,3.83,3.83,0,0,0-1.41-3.19A6.58,6.58,0,0,0,413.38,43a9.6,9.6,0,0,0-4.11.86,7.88,7.88,0,0,0-3.06,2.6l-5.84-3.76A13.59,13.59,0,0,1,406,38a18.64,18.64,0,0,1,8.16-1.71,16.81,16.81,0,0,1,6.76,1.26,10.4,10.4,0,0,1,4.5,3.56A9.25,9.25,0,0,1,427,46.52a12.09,12.09,0,0,1-1.19,5.29,20.42,20.42,0,0,1-4.6,5.64l-8,7.52Z"/><path class="cls-2" d="M444.8,36.87V71.5h-8V43.3h-6.93V36.87Z"/><path d="M309.16,132.44a11.1,11.1,0,0,1,1.31-5.56,7.65,7.65,0,0,1,2.76-3.08h0l.31,1a7.09,7.09,0,0,0-2,2.83,12.21,12.21,0,0,0-.84,4.82v.11a12.21,12.21,0,0,0,.84,4.82,7.72,7.72,0,0,0,2,2.91l-.31.89h0a7.68,7.68,0,0,1-2.76-3.07,11.14,11.14,0,0,1-1.31-5.57Z"/><path d="M319.55,137.32h-1.64V126.79l-2.62,0v-1.26l4.26-.44Z"/><path d="M328,130.48a1.9,1.9,0,0,0,1.54-.54,2.32,2.32,0,0,0,.45-1.52,2.16,2.16,0,0,0-.49-1.47,1.84,1.84,0,0,0-1.46-.55,2.19,2.19,0,0,0-1.56.58,1.92,1.92,0,0,0-.61,1.46h-1.55l0-.05a2.86,2.86,0,0,1,1-2.32,4,4,0,0,1,2.72-.95,3.83,3.83,0,0,1,2.63.84,3.19,3.19,0,0,1,.95,2.49,2.82,2.82,0,0,1-.44,1.54,3,3,0,0,1-1.24,1.08,2.87,2.87,0,0,1,1.39,1.11,3.29,3.29,0,0,1,.47,1.79,3.33,3.33,0,0,1-1,2.59,3.94,3.94,0,0,1-2.72.94,4.31,4.31,0,0,1-2.7-.91,2.76,2.76,0,0,1-1.13-2.39v0h1.56a2,2,0,0,0,.63,1.47,2.28,2.28,0,0,0,1.63.6,2,2,0,0,0,1.56-.61,2.29,2.29,0,0,0,.58-1.61,2.39,2.39,0,0,0-.53-1.69,2.14,2.14,0,0,0-1.65-.57h-1.34v-1.26Z"/><path d="M341.08,128.36a2.68,2.68,0,0,1-.53,1.66,3.19,3.19,0,0,1-1.4,1.07,3.59,3.59,0,0,1,1.64,1.13,2.77,2.77,0,0,1,.62,1.8,3.19,3.19,0,0,1-1.08,2.57,4.13,4.13,0,0,1-2.74.91,4.46,4.46,0,0,1-2.89-.91,3.13,3.13,0,0,1-1.12-2.57,2.78,2.78,0,0,1,.63-1.8,3.74,3.74,0,0,1,1.71-1.14,3.15,3.15,0,0,1-1.47-1.06,2.74,2.74,0,0,1-.53-1.66,2.93,2.93,0,0,1,1-2.41,4,4,0,0,1,2.64-.83,3.77,3.77,0,0,1,2.52.83A3,3,0,0,1,341.08,128.36ZM339.79,134a2.19,2.19,0,0,0-.64-1.62,2.15,2.15,0,0,0-1.58-.63,2.36,2.36,0,0,0-1.69.63,2.14,2.14,0,0,0-.67,1.62,2.12,2.12,0,0,0,.66,1.63,2.45,2.45,0,0,0,1.72.61,2.12,2.12,0,0,0,2.2-2.24Zm-.34-5.59a2,2,0,0,0-.54-1.43,1.77,1.77,0,0,0-1.34-.56,2.06,2.06,0,0,0-1.46.54,1.89,1.89,0,0,0-.56,1.45,2,2,0,0,0,2,2.06,1.74,1.74,0,0,0,1.33-.57A2.08,2.08,0,0,0,339.45,128.39Z"/><path d="M353.84,135.07h.05l3.84-9.78h2v12h-1.63v-9h-.05l-3.64,9h-1.13L349.55,128h-.05v9.31h-1.62v-12H350Z"/><path d="M367.85,137.32c-.05-.27-.1-.51-.13-.71a4.46,4.46,0,0,1-.05-.63,3.76,3.76,0,0,1-1.19,1.08,3,3,0,0,1-1.57.44,2.92,2.92,0,0,1-2.13-.72,2.62,2.62,0,0,1-.73-2,2.29,2.29,0,0,1,1-2,4.78,4.78,0,0,1,2.81-.73h1.77v-.88a1.65,1.65,0,0,0-.48-1.25,1.91,1.91,0,0,0-1.36-.45,2,2,0,0,0-1.28.39,1.2,1.2,0,0,0-.48,1l-1.55,0,0-.05a2.15,2.15,0,0,1,.92-1.79,3.76,3.76,0,0,1,2.5-.81,3.67,3.67,0,0,1,2.45.78,2.72,2.72,0,0,1,.93,2.22v4.31a7.06,7.06,0,0,0,.05.93,4.34,4.34,0,0,0,.18.87Zm-2.7-1.19a2.89,2.89,0,0,0,1.59-.45,2.21,2.21,0,0,0,.93-1v-1.46h-1.83a2.36,2.36,0,0,0-1.57.5,1.46,1.46,0,0,0-.59,1.16,1.24,1.24,0,0,0,.37.95A1.56,1.56,0,0,0,365.15,136.13Z"/><path d="M373.42,137.32h-1.63V124.43h1.63Z"/><path d="M379.63,137.5a3.76,3.76,0,0,1-3-1.24,4.73,4.73,0,0,1-1.08-3.24v-.36a4.59,4.59,0,0,1,1.12-3.18,3.48,3.48,0,0,1,2.71-1.27,3.26,3.26,0,0,1,2.69,1.12,4.58,4.58,0,0,1,.9,3v.86h-5.72l0,0a3.63,3.63,0,0,0,.6,2.18,2.08,2.08,0,0,0,1.82.84,4.28,4.28,0,0,0,1.45-.23,3.48,3.48,0,0,0,1.07-.65l.63,1.06a3.87,3.87,0,0,1-1.26.78A5,5,0,0,1,379.63,137.5Zm-.26-8a1.75,1.75,0,0,0-1.41.65,3.11,3.11,0,0,0-.68,1.68l0,0h4v-.14a2.61,2.61,0,0,0-.48-1.61A1.74,1.74,0,0,0,379.37,129.5Z"/><path d="M394.49,137.32c-.06-.27-.1-.51-.13-.71s-.05-.42-.06-.63a3.73,3.73,0,0,1-1.18,1.08,3,3,0,0,1-1.58.44,2.88,2.88,0,0,1-2.12-.72,2.62,2.62,0,0,1-.74-2,2.31,2.31,0,0,1,1-2,4.79,4.79,0,0,1,2.82-.73h1.76v-.88a1.64,1.64,0,0,0-.47-1.25,1.92,1.92,0,0,0-1.36-.45,2,2,0,0,0-1.28.39,1.18,1.18,0,0,0-.49,1l-1.54,0,0-.05a2.16,2.16,0,0,1,.91-1.79,3.8,3.8,0,0,1,2.51-.81A3.69,3.69,0,0,1,395,129a2.75,2.75,0,0,1,.92,2.22v4.31c0,.32,0,.63.05.93a6.39,6.39,0,0,0,.18.87Zm-2.71-1.19a3,3,0,0,0,1.6-.45,2.18,2.18,0,0,0,.92-1v-1.46h-1.82a2.39,2.39,0,0,0-1.58.5,1.49,1.49,0,0,0-.59,1.16,1.25,1.25,0,0,0,.38.95A1.53,1.53,0,0,0,391.78,136.13Z"/><path d="M399.75,128.38l.12,1.33a3.18,3.18,0,0,1,1.12-1.1,3,3,0,0,1,1.53-.4,3,3,0,0,1,2.24.85,3.73,3.73,0,0,1,.79,2.62v5.64h-1.63v-5.61a2.43,2.43,0,0,0-.46-1.68,1.88,1.88,0,0,0-1.43-.49,2.55,2.55,0,0,0-1.28.3,2.26,2.26,0,0,0-.83.85v6.63H398.3v-8.94Z"/><path d="M407.54,133a5.92,5.92,0,0,1,.93-3.48,3,3,0,0,1,2.58-1.33,3.23,3.23,0,0,1,1.39.29,2.94,2.94,0,0,1,1,.85v-4.92h1.63v12.89h-1.25l-.25-1.13a3,3,0,0,1-1.08,1,3.25,3.25,0,0,1-1.5.33,3.07,3.07,0,0,1-2.56-1.19,4.91,4.91,0,0,1-.93-3.12Zm1.63.17a3.79,3.79,0,0,0,.56,2.17,1.94,1.94,0,0,0,1.72.81,2.16,2.16,0,0,0,1.22-.33,2.51,2.51,0,0,0,.81-.92v-4.18a2.48,2.48,0,0,0-.82-.88,2.19,2.19,0,0,0-1.2-.32,1.86,1.86,0,0,0-1.73,1,5.06,5.06,0,0,0-.56,2.52Z"/><path d="M422,132l.69-6.69h6v1.45h-4.66l-.39,3.46a4.23,4.23,0,0,1,.86-.48,3.06,3.06,0,0,1,1.08-.19,3.29,3.29,0,0,1,2.61,1,4.91,4.91,0,0,1,0,5.83,3.59,3.59,0,0,1-2.83,1.1,3.88,3.88,0,0,1-2.55-.84,2.9,2.9,0,0,1-1-2.45v-.05h1.48a2,2,0,0,0,.56,1.52,2.05,2.05,0,0,0,1.47.54,1.92,1.92,0,0,0,1.6-.72,3.17,3.17,0,0,0,.57-2,2.91,2.91,0,0,0-.57-1.86,2,2,0,0,0-1.6-.71,2.59,2.59,0,0,0-1.39.29,1.71,1.71,0,0,0-.64.9Z"/><path d="M438.44,128.36a2.74,2.74,0,0,1-.53,1.66,3.22,3.22,0,0,1-1.41,1.07,3.62,3.62,0,0,1,1.65,1.13,2.83,2.83,0,0,1,.62,1.8,3.19,3.19,0,0,1-1.08,2.57,4.16,4.16,0,0,1-2.75.91,4.48,4.48,0,0,1-2.89-.91,3.16,3.16,0,0,1-1.12-2.57,2.74,2.74,0,0,1,.64-1.8,3.71,3.71,0,0,1,1.7-1.14,3.12,3.12,0,0,1-1.46-1.06,2.69,2.69,0,0,1-.54-1.66,3,3,0,0,1,1-2.41,4,4,0,0,1,2.64-.83,3.82,3.82,0,0,1,2.53.83A3,3,0,0,1,438.44,128.36ZM437.15,134a2.23,2.23,0,0,0-.64-1.62,2.19,2.19,0,0,0-1.59-.63,2.38,2.38,0,0,0-1.69.63,2.14,2.14,0,0,0-.67,1.62,2.09,2.09,0,0,0,.67,1.63,2.4,2.4,0,0,0,1.71.61,2.13,2.13,0,0,0,2.21-2.24Zm-.34-5.59a2,2,0,0,0-.54-1.43,1.77,1.77,0,0,0-1.35-.56,2,2,0,0,0-1.45.54,1.9,1.9,0,0,0-.57,1.45,2,2,0,0,0,2,2.06,1.76,1.76,0,0,0,1.34-.57A2.12,2.12,0,0,0,436.81,128.39Z"/><path d="M444.4,130.48a1.9,1.9,0,0,0,1.54-.54,2.26,2.26,0,0,0,.46-1.52,2.16,2.16,0,0,0-.5-1.47,1.83,1.83,0,0,0-1.46-.55,2.16,2.16,0,0,0-1.55.58,1.93,1.93,0,0,0-.62,1.46h-1.55l0-.05a2.92,2.92,0,0,1,1-2.32,4,4,0,0,1,2.72-.95,3.83,3.83,0,0,1,2.63.84,3.15,3.15,0,0,1,.95,2.49,2.74,2.74,0,0,1-.44,1.54,2.94,2.94,0,0,1-1.23,1.08,2.89,2.89,0,0,1,1.38,1.11,3.21,3.21,0,0,1,.48,1.79,3.3,3.3,0,0,1-1,2.59,3.94,3.94,0,0,1-2.72.94,4.31,4.31,0,0,1-2.7-.91,2.76,2.76,0,0,1-1.13-2.39l0,0h1.55a2,2,0,0,0,.63,1.47,2.28,2.28,0,0,0,1.63.6,2,2,0,0,0,1.57-.61,2.28,2.28,0,0,0,.57-1.61,2.39,2.39,0,0,0-.53-1.69,2.14,2.14,0,0,0-1.65-.57h-1.34v-1.26Z"/><path d="M455.21,137.32v-7.73h-1.39v-1.21h1.39v-1.13A3,3,0,0,1,456,125a2.77,2.77,0,0,1,2.09-.78,3.52,3.52,0,0,1,.56,0c.19,0,.4.07.64.13l-.2,1.24-.36-.06-.44,0a1.29,1.29,0,0,0-1.06.42,2,2,0,0,0-.35,1.24v1.13h1.62v1.21h-1.62v7.73Z"/><path d="M463.61,137.5a3.74,3.74,0,0,1-3-1.24,4.73,4.73,0,0,1-1.08-3.24v-.36a4.63,4.63,0,0,1,1.11-3.18,3.48,3.48,0,0,1,2.71-1.27,3.24,3.24,0,0,1,2.69,1.12,4.58,4.58,0,0,1,.9,3v.86h-5.72l0,0a3.63,3.63,0,0,0,.59,2.18,2.08,2.08,0,0,0,1.82.84,4.28,4.28,0,0,0,1.45-.23,3.37,3.37,0,0,0,1.07-.65l.64,1.06a3.82,3.82,0,0,1-1.27.78A5,5,0,0,1,463.61,137.5Zm-.26-8a1.78,1.78,0,0,0-1.41.65,3.19,3.19,0,0,0-.68,1.68l0,0h4v-.14a2.61,2.61,0,0,0-.48-1.61A1.74,1.74,0,0,0,463.35,129.5Z"/><path d="M470.22,128.38l.12,1.17a3,3,0,0,1,1.11-1,3.27,3.27,0,0,1,1.56-.36,2.75,2.75,0,0,1,1.54.42,2.49,2.49,0,0,1,1,1.24,3.35,3.35,0,0,1,1.12-1.21,2.9,2.9,0,0,1,1.62-.45,2.68,2.68,0,0,1,2.15.94,4.3,4.3,0,0,1,.8,2.83v5.34h-1.63V132a2.91,2.91,0,0,0-.46-1.87,1.63,1.63,0,0,0-1.35-.55,1.7,1.7,0,0,0-1.35.58,2.46,2.46,0,0,0-.61,1.46v5.74h-1.64V132a3,3,0,0,0-.46-1.84,1.63,1.63,0,0,0-1.35-.58,2.27,2.27,0,0,0-1.22.3,2,2,0,0,0-.73.86v6.62h-1.63v-8.94Z"/><path d="M489.06,137.32c-.06-.27-.1-.51-.13-.71s-.05-.42-.06-.63a3.73,3.73,0,0,1-1.18,1.08,3,3,0,0,1-1.58.44,2.88,2.88,0,0,1-2.12-.72,2.62,2.62,0,0,1-.74-2,2.31,2.31,0,0,1,1-2,4.78,4.78,0,0,1,2.81-.73h1.77v-.88a1.68,1.68,0,0,0-.47-1.25,1.94,1.94,0,0,0-1.36-.45,2,2,0,0,0-1.28.39,1.18,1.18,0,0,0-.49,1l-1.54,0,0-.05a2.13,2.13,0,0,1,.91-1.79,3.8,3.8,0,0,1,2.51-.81,3.69,3.69,0,0,1,2.45.78,2.75,2.75,0,0,1,.92,2.22v4.31c0,.32,0,.63.05.93a4.34,4.34,0,0,0,.18.87Zm-2.71-1.19a3,3,0,0,0,1.6-.45,2.18,2.18,0,0,0,.92-1v-1.46h-1.82a2.39,2.39,0,0,0-1.58.5,1.49,1.49,0,0,0-.59,1.16,1.28,1.28,0,0,0,.37.95A1.58,1.58,0,0,0,486.35,136.13Z"/><path d="M494.63,137.32H493V124.43h1.63Z"/><path d="M500.83,137.5a3.76,3.76,0,0,1-3-1.24,4.73,4.73,0,0,1-1.08-3.24v-.36a4.63,4.63,0,0,1,1.11-3.18,3.5,3.5,0,0,1,2.72-1.27,3.27,3.27,0,0,1,2.69,1.12,4.63,4.63,0,0,1,.89,3v.86h-5.72l0,0a3.7,3.7,0,0,0,.59,2.18,2.09,2.09,0,0,0,1.82.84,4.24,4.24,0,0,0,1.45-.23,3.26,3.26,0,0,0,1.07-.65l.64,1.06a3.82,3.82,0,0,1-1.27.78A5,5,0,0,1,500.83,137.5Zm-.25-8a1.75,1.75,0,0,0-1.41.65,3.11,3.11,0,0,0-.68,1.68v0h4v-.14a2.6,2.6,0,0,0-.47-1.61A1.75,1.75,0,0,0,500.58,129.5Z"/><path d="M509.3,132.51a11,11,0,0,1-1.32,5.57,7.68,7.68,0,0,1-2.76,3.07h-.05l-.31-.89a7.12,7.12,0,0,0,2-2.86,12.49,12.49,0,0,0,.85-4.87v-.11a12,12,0,0,0-.87-4.82,8.16,8.16,0,0,0-1.94-2.91l.31-.89h.05a7.65,7.65,0,0,1,2.76,3.08,11,11,0,0,1,1.32,5.56Z"/><path d="M323.22,157.63V149.9h-1.39v-1.21h1.39v-1.13a3.07,3.07,0,0,1,.75-2.21,2.75,2.75,0,0,1,2.09-.78,3.6,3.6,0,0,1,.56,0l.64.13-.2,1.24-.36-.06-.45,0a1.28,1.28,0,0,0-1.05.42,2,2,0,0,0-.35,1.24v1.13h1.62v1.21h-1.62v7.73Z"/><path d="M332.35,150.13l-.84,0a1.79,1.79,0,0,0-1.08.31,1.94,1.94,0,0,0-.69.85v6.39h-1.62v-8.94h1.45l.16,1.31a3,3,0,0,1,.93-1.09,2.3,2.3,0,0,1,1.29-.38l.35,0a1.31,1.31,0,0,1,.27.07Z"/><path d="M333.49,153.08a4.92,4.92,0,0,1,1.08-3.27,4,4,0,0,1,5.85,0,4.88,4.88,0,0,1,1.08,3.27v.18a4.86,4.86,0,0,1-1.07,3.27,4,4,0,0,1-5.86,0,4.88,4.88,0,0,1-1.08-3.27Zm1.63.18a4.25,4.25,0,0,0,.6,2.35,2.17,2.17,0,0,0,3.55,0,4.25,4.25,0,0,0,.61-2.35v-.18a4.24,4.24,0,0,0-.61-2.34,2,2,0,0,0-1.78-.93,2,2,0,0,0-1.77.93,4.24,4.24,0,0,0-.6,2.34Z"/><path d="M345,148.69l.12,1.17a3,3,0,0,1,1.11-1,3.26,3.26,0,0,1,1.56-.35,2.75,2.75,0,0,1,1.54.41,2.54,2.54,0,0,1,1,1.24,3.27,3.27,0,0,1,1.12-1.21,2.88,2.88,0,0,1,1.61-.44,2.69,2.69,0,0,1,2.16.93,4.3,4.3,0,0,1,.79,2.83v5.34H354.3v-5.36a3,3,0,0,0-.46-1.87,1.63,1.63,0,0,0-1.35-.55,1.7,1.7,0,0,0-1.35.58,2.46,2.46,0,0,0-.61,1.46v5.74h-1.64v-5.36a2.88,2.88,0,0,0-.47-1.84,1.6,1.6,0,0,0-1.34-.58,2.27,2.27,0,0,0-1.22.3,2,2,0,0,0-.74.86v6.62H343.5v-8.94Z"/><path d="M366.2,157.81a3.79,3.79,0,0,1-3-1.23,4.77,4.77,0,0,1-1.08-3.24V153a4.59,4.59,0,0,1,1.12-3.18,3.47,3.47,0,0,1,2.71-1.26,3.25,3.25,0,0,1,2.69,1.11,4.59,4.59,0,0,1,.9,3v.86h-5.72l0,0a3.68,3.68,0,0,0,.6,2.19,2.1,2.1,0,0,0,1.82.83,4,4,0,0,0,1.45-.23,3.3,3.3,0,0,0,1.07-.65l.63,1.06a3.87,3.87,0,0,1-1.26.78A5,5,0,0,1,366.2,157.81Zm-.26-8a1.78,1.78,0,0,0-1.41.65,3.11,3.11,0,0,0-.68,1.69l0,0h4v-.14a2.61,2.61,0,0,0-.48-1.61A1.74,1.74,0,0,0,365.94,149.81Z"/><path d="M376.85,157.63c-.06-.27-.1-.51-.13-.71a4.46,4.46,0,0,1-.05-.63,3.76,3.76,0,0,1-1.19,1.08,3,3,0,0,1-1.57.44,2.92,2.92,0,0,1-2.13-.72,2.6,2.6,0,0,1-.73-2,2.29,2.29,0,0,1,1-2,4.78,4.78,0,0,1,2.81-.73h1.77v-.88a1.63,1.63,0,0,0-.48-1.24,1.87,1.87,0,0,0-1.36-.46,2,2,0,0,0-1.28.39,1.21,1.21,0,0,0-.49,1l-1.54,0,0,0a2.13,2.13,0,0,1,.92-1.78,3.76,3.76,0,0,1,2.5-.81,3.67,3.67,0,0,1,2.45.77,2.73,2.73,0,0,1,.93,2.23v4.3a7.06,7.06,0,0,0,.05.93,4.34,4.34,0,0,0,.18.87Zm-2.7-1.19a2.89,2.89,0,0,0,1.59-.45,2.16,2.16,0,0,0,.93-1v-1.46h-1.83a2.36,2.36,0,0,0-1.57.5,1.46,1.46,0,0,0-.59,1.16,1.24,1.24,0,0,0,.37.95A1.56,1.56,0,0,0,374.15,156.44Z"/><path d="M385.86,155.23a1.1,1.1,0,0,0-.41-.88,4,4,0,0,0-1.55-.59,6.79,6.79,0,0,1-2.43-.95,1.94,1.94,0,0,1-.84-1.64,2.36,2.36,0,0,1,.93-1.87,4.13,4.13,0,0,1,4.87,0,2.37,2.37,0,0,1,.9,1.93l0,.05h-1.55a1.39,1.39,0,0,0-.51-1.05,1.79,1.79,0,0,0-1.28-.47,1.89,1.89,0,0,0-1.29.38,1.23,1.23,0,0,0-.42.93,1,1,0,0,0,.36.82,4.15,4.15,0,0,0,1.52.53,6.35,6.35,0,0,1,2.49,1,2,2,0,0,1,.86,1.66,2.33,2.33,0,0,1-1,1.94,4.58,4.58,0,0,1-5.21-.11,2.5,2.5,0,0,1-.93-2l0,0H382a1.51,1.51,0,0,0,.64,1.27,2.51,2.51,0,0,0,1.42.4,2.26,2.26,0,0,0,1.36-.36A1.15,1.15,0,0,0,385.86,155.23Z"/><path d="M391.78,146.53v2.16h1.69v1.21h-1.69v5.43a1.17,1.17,0,0,0,.26.88.94.94,0,0,0,.69.26,1.25,1.25,0,0,0,.31,0,1.48,1.48,0,0,0,.29-.08l.22,1.12a1.38,1.38,0,0,1-.53.24,3,3,0,0,1-.71.1,2.13,2.13,0,0,1-1.58-.6,2.61,2.61,0,0,1-.58-1.88V149.9h-1.42v-1.21h1.42v-2.16Z"/><path d="M398.92,157.81a3.79,3.79,0,0,1-3-1.23,4.77,4.77,0,0,1-1.08-3.24V153a4.59,4.59,0,0,1,1.12-3.18,3.47,3.47,0,0,1,2.71-1.26,3.25,3.25,0,0,1,2.69,1.11,4.59,4.59,0,0,1,.9,3v.86h-5.72l0,0a3.68,3.68,0,0,0,.6,2.19,2.09,2.09,0,0,0,1.82.83,4,4,0,0,0,1.45-.23,3.3,3.3,0,0,0,1.07-.65l.63,1.06a3.87,3.87,0,0,1-1.26.78A5.08,5.08,0,0,1,398.92,157.81Zm-.26-8a1.78,1.78,0,0,0-1.41.65,3.11,3.11,0,0,0-.68,1.69l0,0h4v-.14a2.61,2.61,0,0,0-.48-1.61A1.74,1.74,0,0,0,398.66,149.81Z"/><path d="M408.3,150.13l-.83,0a1.84,1.84,0,0,0-1.09.31,2,2,0,0,0-.68.85v6.39h-1.63v-8.94h1.46l.15,1.31a3.17,3.17,0,0,1,.94-1.09,2.25,2.25,0,0,1,1.29-.38l.34,0a1.42,1.42,0,0,1,.28.07Z"/><path d="M411.45,148.69l.12,1.33a3.27,3.27,0,0,1,1.12-1.1,3,3,0,0,1,1.53-.39,2.93,2.93,0,0,1,2.24.84,3.73,3.73,0,0,1,.79,2.62v5.64h-1.62V152a2.43,2.43,0,0,0-.47-1.68,1.88,1.88,0,0,0-1.43-.49,2.51,2.51,0,0,0-1.27.3,2.12,2.12,0,0,0-.83.85v6.63H410v-8.94Z"/><path d="M425.85,157.63h-1.64v-12h1.64Z"/><path d="M430.06,148.69l.12,1.33a3.27,3.27,0,0,1,1.12-1.1,3,3,0,0,1,1.53-.39,2.93,2.93,0,0,1,2.24.84,3.73,3.73,0,0,1,.8,2.62v5.64h-1.63V152a2.43,2.43,0,0,0-.47-1.68,1.88,1.88,0,0,0-1.43-.49,2.51,2.51,0,0,0-1.27.3,2.12,2.12,0,0,0-.83.85v6.63h-1.63v-8.94Z"/><path d="M437.86,153.33a5.92,5.92,0,0,1,.92-3.48,3,3,0,0,1,2.58-1.32,3.23,3.23,0,0,1,1.39.28,2.94,2.94,0,0,1,1,.85v-4.92h1.63v12.89h-1.25l-.25-1.13a2.89,2.89,0,0,1-1.08,1,3.24,3.24,0,0,1-1.49.33,3.08,3.08,0,0,1-2.57-1.19,5,5,0,0,1-.92-3.12Zm1.63.17a3.79,3.79,0,0,0,.55,2.17,1.94,1.94,0,0,0,1.72.81,2.16,2.16,0,0,0,1.22-.33,2.51,2.51,0,0,0,.81-.92v-4.18a2.64,2.64,0,0,0-.81-.88,2.25,2.25,0,0,0-1.21-.32,1.87,1.87,0,0,0-1.73,1,5.06,5.06,0,0,0-.55,2.52Z"/><path d="M447.47,153.08a5,5,0,0,1,1.07-3.27,4,4,0,0,1,5.86,0,4.88,4.88,0,0,1,1.08,3.27v.18a4.87,4.87,0,0,1-1.08,3.27,4,4,0,0,1-5.85,0,4.88,4.88,0,0,1-1.08-3.27Zm1.63.18a4.25,4.25,0,0,0,.6,2.35,2.17,2.17,0,0,0,3.55,0,4.25,4.25,0,0,0,.6-2.35v-.18a4.16,4.16,0,0,0-.61-2.34,2,2,0,0,0-1.78-.93,2,2,0,0,0-1.76.93,4.24,4.24,0,0,0-.6,2.34Z"/><path d="M458.92,148.69,459,150a3.27,3.27,0,0,1,1.12-1.1,3,3,0,0,1,1.53-.39,2.93,2.93,0,0,1,2.24.84,3.73,3.73,0,0,1,.8,2.62v5.64H463.1V152a2.43,2.43,0,0,0-.47-1.68,1.88,1.88,0,0,0-1.43-.49,2.51,2.51,0,0,0-1.27.3,2.12,2.12,0,0,0-.83.85v6.63h-1.63v-8.94Z"/><path d="M470.79,157.81a3.78,3.78,0,0,1-3-1.23,4.77,4.77,0,0,1-1.08-3.24V153a4.63,4.63,0,0,1,1.11-3.18,3.49,3.49,0,0,1,2.72-1.26,3.26,3.26,0,0,1,2.69,1.11,4.65,4.65,0,0,1,.89,3v.86H468.4l0,0a3.75,3.75,0,0,0,.59,2.19,2.11,2.11,0,0,0,1.82.83,4,4,0,0,0,1.45-.23,3.2,3.2,0,0,0,1.07-.65l.64,1.06a3.82,3.82,0,0,1-1.27.78A5,5,0,0,1,470.79,157.81Zm-.25-8a1.78,1.78,0,0,0-1.41.65,3.12,3.12,0,0,0-.69,1.69l0,0h4v-.14a2.61,2.61,0,0,0-.48-1.61A1.72,1.72,0,0,0,470.54,149.81Z"/><path d="M481.15,155.23a1.1,1.1,0,0,0-.41-.88,4,4,0,0,0-1.55-.59,6.79,6.79,0,0,1-2.43-.95,1.94,1.94,0,0,1-.84-1.64,2.33,2.33,0,0,1,.93-1.87,4.13,4.13,0,0,1,4.87,0,2.37,2.37,0,0,1,.9,1.93l0,.05h-1.55a1.39,1.39,0,0,0-.51-1.05,1.8,1.8,0,0,0-1.29-.47,1.88,1.88,0,0,0-1.28.38,1.24,1.24,0,0,0-.43.93,1,1,0,0,0,.37.82,4.15,4.15,0,0,0,1.52.53,6.42,6.42,0,0,1,2.49,1,2,2,0,0,1,.86,1.66,2.35,2.35,0,0,1-1,1.94,4.58,4.58,0,0,1-5.21-.11,2.47,2.47,0,0,1-.93-2v0h1.56a1.48,1.48,0,0,0,.64,1.27,2.49,2.49,0,0,0,1.42.4,2.29,2.29,0,0,0,1.36-.36A1.15,1.15,0,0,0,481.15,155.23Z"/><path d="M486.56,146.4h-1.63v-1.66h1.63Zm0,11.23h-1.63v-8.94h1.63Z"/><path d="M494.56,157.63c-.06-.27-.1-.51-.13-.71a4.46,4.46,0,0,1-.05-.63,3.87,3.87,0,0,1-1.19,1.08,3,3,0,0,1-1.57.44,2.92,2.92,0,0,1-2.13-.72,2.6,2.6,0,0,1-.73-2,2.29,2.29,0,0,1,1-2,4.76,4.76,0,0,1,2.81-.73h1.77v-.88a1.63,1.63,0,0,0-.48-1.24,1.87,1.87,0,0,0-1.36-.46,2,2,0,0,0-1.28.39,1.21,1.21,0,0,0-.49,1l-1.54,0,0,0a2.13,2.13,0,0,1,.92-1.78,3.76,3.76,0,0,1,2.5-.81,3.67,3.67,0,0,1,2.45.77,2.73,2.73,0,0,1,.93,2.23v4.3a7.06,7.06,0,0,0,.05.93,4.34,4.34,0,0,0,.18.87Zm-2.7-1.19a2.89,2.89,0,0,0,1.59-.45,2.16,2.16,0,0,0,.93-1v-1.46h-1.83a2.35,2.35,0,0,0-1.57.5,1.46,1.46,0,0,0-.59,1.16,1.24,1.24,0,0,0,.37.95A1.56,1.56,0,0,0,491.86,156.44Z"/><path d="M293.12,173.81a4.91,4.91,0,0,1-.93,3.12,3.07,3.07,0,0,1-2.56,1.19,3.31,3.31,0,0,1-1.55-.35,2.83,2.83,0,0,1-1.08-1l-.27,1.21h-1.25V165.05h1.63v5a2.78,2.78,0,0,1,1.05-.91,3.17,3.17,0,0,1,1.46-.31,3,3,0,0,1,2.57,1.32,5.92,5.92,0,0,1,.93,3.48Zm-1.63-.17a4.91,4.91,0,0,0-.57-2.51,1.85,1.85,0,0,0-1.72-1,2.12,2.12,0,0,0-1.27.37,2.55,2.55,0,0,0-.82,1v3.88a2.66,2.66,0,0,0,.82,1,2.12,2.12,0,0,0,1.29.37,2,2,0,0,0,1.71-.81,3.82,3.82,0,0,0,.56-2.17Z"/><path d="M298.81,178.12a3.79,3.79,0,0,1-3-1.23,4.77,4.77,0,0,1-1.08-3.24v-.37a4.63,4.63,0,0,1,1.11-3.18,3.51,3.51,0,0,1,2.72-1.26,3.26,3.26,0,0,1,2.69,1.11,4.59,4.59,0,0,1,.9,3v.86h-5.72l0,0A3.68,3.68,0,0,0,297,176a2.09,2.09,0,0,0,1.82.83,4,4,0,0,0,1.45-.23,3.3,3.3,0,0,0,1.07-.65L302,177a3.87,3.87,0,0,1-1.26.78A5.12,5.12,0,0,1,298.81,178.12Zm-.26-8a1.78,1.78,0,0,0-1.41.65,3.11,3.11,0,0,0-.68,1.69l0,0h4v-.14a2.61,2.61,0,0,0-.48-1.61A1.74,1.74,0,0,0,298.55,170.12Z"/><path d="M305.42,169l.11,1.33a3.27,3.27,0,0,1,1.12-1.1,3,3,0,0,1,1.53-.39,2.91,2.91,0,0,1,2.24.84,3.73,3.73,0,0,1,.8,2.62v5.64h-1.63v-5.61a2.43,2.43,0,0,0-.47-1.68,1.85,1.85,0,0,0-1.42-.49,2.55,2.55,0,0,0-1.28.3,2.12,2.12,0,0,0-.83.85v6.63H304V169Z"/><path d="M317.28,178.12a3.78,3.78,0,0,1-3-1.23,4.77,4.77,0,0,1-1.08-3.24v-.37a4.63,4.63,0,0,1,1.11-3.18,3.49,3.49,0,0,1,2.72-1.26,3.26,3.26,0,0,1,2.69,1.11,4.59,4.59,0,0,1,.9,3v.86H314.9l0,0a3.68,3.68,0,0,0,.6,2.19,2.08,2.08,0,0,0,1.81.83,4,4,0,0,0,1.45-.23,3.24,3.24,0,0,0,1.08-.65l.63,1.06a3.87,3.87,0,0,1-1.26.78A5.14,5.14,0,0,1,317.28,178.12Zm-.25-8a1.78,1.78,0,0,0-1.41.65,3.11,3.11,0,0,0-.68,1.69v0h4v-.14a2.61,2.61,0,0,0-.48-1.61A1.75,1.75,0,0,0,317,170.12Z"/><path d="M322.9,177.94v-7.73h-1.41V169h1.41v-1a3,3,0,0,1,.88-2.33,3.41,3.41,0,0,1,2.44-.82,4.45,4.45,0,0,1,1.09.13c.36.08.78.21,1.26.37l-.28,1.32a7.81,7.81,0,0,0-.93-.29,3.86,3.86,0,0,0-1-.13,1.93,1.93,0,0,0-1.39.43,1.84,1.84,0,0,0-.43,1.32v1h1.78v1.21h-1.78v7.73Zm6.47,0h-1.64V169h1.64Z"/><path d="M334.13,166.84V169h1.69v1.21h-1.69v5.43a1.17,1.17,0,0,0,.26.88.94.94,0,0,0,.69.26,1.2,1.2,0,0,0,.31,0,1.48,1.48,0,0,0,.29-.08l.22,1.12a1.38,1.38,0,0,1-.53.24,2.53,2.53,0,0,1-.71.1,2.09,2.09,0,0,1-1.57-.6,2.57,2.57,0,0,1-.59-1.88v-5.43h-1.42V169h1.42v-2.16Z"/><path d="M339.83,166.84V169h1.69v1.21h-1.69v5.43a1.22,1.22,0,0,0,.26.88.94.94,0,0,0,.69.26,1.2,1.2,0,0,0,.31,0,1.3,1.3,0,0,0,.29-.08l.23,1.12a1.36,1.36,0,0,1-.54.24,2.47,2.47,0,0,1-.7.1,2.11,2.11,0,0,1-1.58-.6,2.61,2.61,0,0,1-.59-1.88v-5.43h-1.42V169h1.42v-2.16Z"/><path d="M347,178.12a3.78,3.78,0,0,1-3-1.23,4.77,4.77,0,0,1-1.08-3.24v-.37A4.63,4.63,0,0,1,344,170.1a3.47,3.47,0,0,1,2.71-1.26A3.24,3.24,0,0,1,349.4,170a4.59,4.59,0,0,1,.9,3v.86h-5.72l0,0a3.75,3.75,0,0,0,.59,2.19,2.1,2.1,0,0,0,1.82.83,4,4,0,0,0,1.45-.23,3.2,3.2,0,0,0,1.07-.65l.64,1.06a3.82,3.82,0,0,1-1.27.78A5,5,0,0,1,347,178.12Zm-.26-8a1.81,1.81,0,0,0-1.41.65,3.19,3.19,0,0,0-.68,1.69l0,0h4v-.14a2.61,2.61,0,0,0-.48-1.61A1.74,1.74,0,0,0,346.71,170.12Z"/><path d="M351.75,173.64a5.92,5.92,0,0,1,.93-3.48,3,3,0,0,1,2.58-1.32,3.09,3.09,0,0,1,1.39.29,2.81,2.81,0,0,1,1,.84v-4.92h1.63v12.89h-1.25l-.25-1.13a2.89,2.89,0,0,1-1.08,1,3.25,3.25,0,0,1-1.5.33,3.07,3.07,0,0,1-2.56-1.19,4.91,4.91,0,0,1-.93-3.12Zm1.63.17a3.79,3.79,0,0,0,.56,2.17,1.94,1.94,0,0,0,1.72.81,2.16,2.16,0,0,0,1.22-.33,2.43,2.43,0,0,0,.81-.92v-4.18a2.64,2.64,0,0,0-.81-.88,2.25,2.25,0,0,0-1.21-.32,1.85,1.85,0,0,0-1.73,1,5,5,0,0,0-.56,2.51Z"/><path d="M366.63,177.94v-7.73h-1.4V169h1.4v-1.13a3.07,3.07,0,0,1,.75-2.21,2.75,2.75,0,0,1,2.09-.78,3.6,3.6,0,0,1,.56,0l.63.13-.19,1.24-.36-.06-.45,0a1.28,1.28,0,0,0-1.05.42,1.89,1.89,0,0,0-.35,1.24V169h1.62v1.21h-1.62v7.73Z"/><path d="M375.75,170.44l-.83-.05a1.84,1.84,0,0,0-1.09.31,2,2,0,0,0-.68.86v6.38h-1.63V169H373l.15,1.31a3.17,3.17,0,0,1,.94-1.09,2.25,2.25,0,0,1,1.29-.38l.34,0a1.42,1.42,0,0,1,.28.07Z"/><path d="M376.9,173.39a4.92,4.92,0,0,1,1.08-3.27,4,4,0,0,1,5.85,0,4.88,4.88,0,0,1,1.08,3.27v.18a4.91,4.91,0,0,1-1.07,3.27,4,4,0,0,1-5.86,0,4.88,4.88,0,0,1-1.08-3.27Zm1.63.18a4.25,4.25,0,0,0,.6,2.35,2.17,2.17,0,0,0,3.55,0,4.25,4.25,0,0,0,.6-2.35v-.18a4.24,4.24,0,0,0-.6-2.34,2,2,0,0,0-1.78-.93,2,2,0,0,0-1.77.93,4.24,4.24,0,0,0-.6,2.34Z"/><path d="M388.36,169l.11,1.17a3.1,3.1,0,0,1,1.12-1,3.24,3.24,0,0,1,1.56-.35,2.69,2.69,0,0,1,1.53.41,2.5,2.5,0,0,1,1,1.24,3.27,3.27,0,0,1,1.12-1.21,2.88,2.88,0,0,1,1.61-.44,2.69,2.69,0,0,1,2.16.93,4.3,4.3,0,0,1,.79,2.83v5.34H397.7v-5.36a3,3,0,0,0-.45-1.87,1.63,1.63,0,0,0-1.35-.55,1.73,1.73,0,0,0-1.36.58,2.51,2.51,0,0,0-.6,1.46v5.74H392.3v-5.36a2.94,2.94,0,0,0-.47-1.84,1.61,1.61,0,0,0-1.34-.58,2.25,2.25,0,0,0-1.22.3,2,2,0,0,0-.74.86v6.62H386.9V169Z"/><path d="M409.46,176.84a1.87,1.87,0,0,0,1.31-.5,1.55,1.55,0,0,0,.56-1.22h1.47l0,0a2.58,2.58,0,0,1-1,2.05,3.79,3.79,0,0,1-5.29-.38,4.93,4.93,0,0,1-1-3.19v-.35a5,5,0,0,1,1-3.18,3.51,3.51,0,0,1,2.91-1.28,3.37,3.37,0,0,1,2.45.92,3,3,0,0,1,.92,2.27l0,.05h-1.48a2,2,0,0,0-.53-1.39,1.76,1.76,0,0,0-1.34-.57,1.89,1.89,0,0,0-1.75.93,4.31,4.31,0,0,0-.55,2.25v.35a4.46,4.46,0,0,0,.54,2.27A1.87,1.87,0,0,0,409.46,176.84Z"/><path d="M420.26,177.94c-.06-.27-.1-.5-.13-.71a4.46,4.46,0,0,1-.05-.63,3.87,3.87,0,0,1-1.19,1.08,3,3,0,0,1-1.57.44,2.92,2.92,0,0,1-2.13-.72,2.6,2.6,0,0,1-.73-2,2.3,2.3,0,0,1,1-2,4.81,4.81,0,0,1,2.82-.73h1.77v-.88a1.63,1.63,0,0,0-.48-1.24,1.87,1.87,0,0,0-1.36-.46,2,2,0,0,0-1.28.39,1.23,1.23,0,0,0-.49,1l-1.54,0,0,0a2.14,2.14,0,0,1,.91-1.78,3.8,3.8,0,0,1,2.51-.81,3.67,3.67,0,0,1,2.45.77,2.72,2.72,0,0,1,.92,2.23v4.3c0,.32,0,.63.05.93a5.19,5.19,0,0,0,.19.87Zm-2.7-1.19a2.89,2.89,0,0,0,1.59-.45,2.16,2.16,0,0,0,.93-1V173.8h-1.83a2.35,2.35,0,0,0-1.57.5,1.46,1.46,0,0,0-.59,1.16,1.24,1.24,0,0,0,.37.95A1.54,1.54,0,0,0,417.56,176.75Z"/><path d="M431.69,173.81a4.91,4.91,0,0,1-.93,3.12,3.06,3.06,0,0,1-2.55,1.19,3.6,3.6,0,0,1-1.45-.28,2.67,2.67,0,0,1-1.06-.83v4.37h-1.63V169h1.25l.25,1.16a3,3,0,0,1,1.09-1,3.37,3.37,0,0,1,1.52-.33,3,3,0,0,1,2.59,1.31,6,6,0,0,1,.92,3.49Zm-1.63-.17a4.7,4.7,0,0,0-.6-2.5,1.93,1.93,0,0,0-1.76-1,2.11,2.11,0,0,0-1.2.32,2.32,2.32,0,0,0-.8.87v4.32a2.15,2.15,0,0,0,2,1.17,2,2,0,0,0,1.76-.84,3.8,3.8,0,0,0,.59-2.19Z"/><path d="M439.18,177.94c-.05-.27-.09-.5-.12-.71s-.05-.42-.06-.63a3.84,3.84,0,0,1-1.18,1.08,3.06,3.06,0,0,1-1.58.44,2.92,2.92,0,0,1-2.13-.72,2.64,2.64,0,0,1-.73-2,2.31,2.31,0,0,1,1-2,4.78,4.78,0,0,1,2.81-.73H439v-.88a1.63,1.63,0,0,0-.48-1.24,1.86,1.86,0,0,0-1.35-.46,2,2,0,0,0-1.28.39,1.2,1.2,0,0,0-.49,1l-1.55,0v0a2.12,2.12,0,0,1,.91-1.78,3.78,3.78,0,0,1,2.51-.81,3.64,3.64,0,0,1,2.44.77,2.73,2.73,0,0,1,.93,2.23v4.3c0,.32,0,.63.05.93a4.34,4.34,0,0,0,.18.87Zm-2.7-1.19a3,3,0,0,0,1.6-.45,2.14,2.14,0,0,0,.92-1V173.8h-1.82a2.39,2.39,0,0,0-1.58.5,1.49,1.49,0,0,0-.59,1.16,1.24,1.24,0,0,0,.37.95A1.58,1.58,0,0,0,436.48,176.75Z"/><path d="M446.55,176.84a1.87,1.87,0,0,0,1.31-.5,1.55,1.55,0,0,0,.56-1.22h1.48l0,0a2.58,2.58,0,0,1-1,2.05,3.79,3.79,0,0,1-5.29-.38,5,5,0,0,1-1-3.19v-.35a5,5,0,0,1,1-3.18,3.51,3.51,0,0,1,2.91-1.28,3.36,3.36,0,0,1,2.45.92,3,3,0,0,1,.92,2.27l0,.05h-1.48a2,2,0,0,0-.53-1.39,1.75,1.75,0,0,0-1.34-.57,1.89,1.89,0,0,0-1.75.93,4.31,4.31,0,0,0-.55,2.25v.35a4.46,4.46,0,0,0,.54,2.27A1.87,1.87,0,0,0,446.55,176.84Z"/><path d="M453.61,166.71H452v-1.66h1.62Zm0,11.23H452V169h1.62Z"/><path d="M458.38,166.84V169h1.7v1.21h-1.7v5.43a1.22,1.22,0,0,0,.26.88,1,1,0,0,0,.69.26,1.27,1.27,0,0,0,.32,0,1.71,1.71,0,0,0,.29-.08l.22,1.12a1.36,1.36,0,0,1-.54.24,2.42,2.42,0,0,1-.7.1,2.11,2.11,0,0,1-1.58-.6,2.61,2.61,0,0,1-.59-1.88v-5.43h-1.42V169h1.42v-2.16Z"/><path d="M464.56,174.63l.28,1.12h.05l2.2-6.75h1.81l-3.76,10.32a4.61,4.61,0,0,1-1,1.57,2.25,2.25,0,0,1-1.71.66,3.41,3.41,0,0,1-.5,0l-.47-.09.16-1.28.3,0,.43,0a1,1,0,0,0,.85-.46,5,5,0,0,0,.56-1l.39-.94L460.85,169h1.82Z"/><path d="M482.18,173.81a4.91,4.91,0,0,1-.93,3.12,3.09,3.09,0,0,1-2.56,1.19,3.28,3.28,0,0,1-1.55-.35,2.93,2.93,0,0,1-1.09-1l-.26,1.21h-1.25V165.05h1.63v5a2.83,2.83,0,0,1,1-.91,3.23,3.23,0,0,1,1.46-.31,3,3,0,0,1,2.58,1.32,5.92,5.92,0,0,1,.93,3.48Zm-1.63-.17a4.91,4.91,0,0,0-.57-2.51,1.86,1.86,0,0,0-1.72-1,2.1,2.1,0,0,0-1.27.37,2.55,2.55,0,0,0-.82,1v3.88a2.66,2.66,0,0,0,.82,1,2.11,2.11,0,0,0,1.28.37A2,2,0,0,0,480,176a3.82,3.82,0,0,0,.56-2.17Z"/><path d="M489.84,176.62a3.06,3.06,0,0,1-1.09,1.11,2.94,2.94,0,0,1-1.52.39,2.87,2.87,0,0,1-2.29-.94,4.36,4.36,0,0,1-.81-2.91V169h1.62v5.29a3.27,3.27,0,0,0,.43,2,1.54,1.54,0,0,0,1.31.53,2.59,2.59,0,0,0,1.43-.35,2.14,2.14,0,0,0,.86-1V169h1.63v8.94h-1.47Z"/><path d="M495.54,166.71h-1.63v-1.66h1.63Zm0,11.23h-1.63V169h1.63Z"/><path d="M499.8,177.94h-1.62V165.05h1.62Z"/><path d="M501.94,173.64a5.92,5.92,0,0,1,.92-3.48,3,3,0,0,1,2.58-1.32,3.09,3.09,0,0,1,1.39.29,2.81,2.81,0,0,1,1,.84v-4.92h1.63v12.89h-1.25l-.25-1.13a2.89,2.89,0,0,1-1.08,1,3.25,3.25,0,0,1-1.5.33,3.07,3.07,0,0,1-2.56-1.19,4.91,4.91,0,0,1-.92-3.12Zm1.62.17a3.79,3.79,0,0,0,.56,2.17,1.94,1.94,0,0,0,1.72.81,2.16,2.16,0,0,0,1.22-.33,2.43,2.43,0,0,0,.81-.92v-4.18a2.64,2.64,0,0,0-.81-.88,2.25,2.25,0,0,0-1.21-.32,1.85,1.85,0,0,0-1.73,1,5,5,0,0,0-.56,2.51Z"/><path d="M513.69,166.71h-1.63v-1.66h1.63Zm0,11.23h-1.63V169h1.63Z"/><path d="M517.65,169l.11,1.33a3.27,3.27,0,0,1,1.12-1.1,3,3,0,0,1,1.53-.39,2.91,2.91,0,0,1,2.24.84,3.73,3.73,0,0,1,.8,2.62v5.64h-1.63v-5.61a2.43,2.43,0,0,0-.47-1.68,1.85,1.85,0,0,0-1.42-.49,2.55,2.55,0,0,0-1.28.3,2.12,2.12,0,0,0-.83.85v6.63h-1.63V169Z"/><path d="M525.52,173.64a6,6,0,0,1,.92-3.48,3,3,0,0,1,2.58-1.32,3,3,0,0,1,2.58,1.33l.19-1.17h1.3v9a3.39,3.39,0,0,1-1,2.64,4.07,4.07,0,0,1-2.88.92,5.86,5.86,0,0,1-1.39-.17,5.25,5.25,0,0,1-1.32-.49l.25-1.26a4.79,4.79,0,0,0,1.13.4,6,6,0,0,0,1.31.15,2.36,2.36,0,0,0,1.73-.54,2.25,2.25,0,0,0,.54-1.65v-1a2.86,2.86,0,0,1-1.05.85,3.25,3.25,0,0,1-1.41.29,3.07,3.07,0,0,1-2.56-1.19,5,5,0,0,1-.92-3.12Zm1.63.17a3.9,3.9,0,0,0,.55,2.17,1.94,1.94,0,0,0,1.72.81,2.17,2.17,0,0,0,1.23-.33,2.46,2.46,0,0,0,.81-1V171.4a2.55,2.55,0,0,0-.81-.91,2.18,2.18,0,0,0-1.22-.33,1.84,1.84,0,0,0-1.72,1,5,5,0,0,0-.56,2.51Z"/><path d="M324.43,187H322.8v-1.66h1.63Zm0,11.23H322.8v-8.94h1.63Z"/><path d="M328.39,189.31l.11,1.33a3.27,3.27,0,0,1,1.12-1.1,3,3,0,0,1,1.54-.39,2.94,2.94,0,0,1,2.24.84,3.73,3.73,0,0,1,.79,2.62v5.64h-1.63v-5.61a2.35,2.35,0,0,0-.47-1.67,1.82,1.82,0,0,0-1.42-.5,2.55,2.55,0,0,0-1.28.3,2.12,2.12,0,0,0-.83.85v6.63h-1.63v-8.94Z"/><path d="M338.82,187.16v2.15h1.69v1.21h-1.69V196a1.17,1.17,0,0,0,.26.88.94.94,0,0,0,.69.26,1.2,1.2,0,0,0,.31,0,1.48,1.48,0,0,0,.29-.08l.22,1.12a1.38,1.38,0,0,1-.53.24,2.48,2.48,0,0,1-.71.1,2.09,2.09,0,0,1-1.57-.6,2.61,2.61,0,0,1-.59-1.88v-5.43h-1.42v-1.21h1.42v-2.15Z"/><path d="M346,198.43a3.79,3.79,0,0,1-3-1.23,4.73,4.73,0,0,1-1.08-3.24v-.37a4.64,4.64,0,0,1,1.12-3.18,3.47,3.47,0,0,1,2.71-1.26,3.25,3.25,0,0,1,2.69,1.11,4.61,4.61,0,0,1,.9,3v.86h-5.72l0,0a3.68,3.68,0,0,0,.6,2.19,2.07,2.07,0,0,0,1.82.83,4,4,0,0,0,1.45-.23,3.3,3.3,0,0,0,1.07-.65l.63,1.06a3.87,3.87,0,0,1-1.26.78A5,5,0,0,1,346,198.43Zm-.26-8a1.78,1.78,0,0,0-1.41.65,3.11,3.11,0,0,0-.68,1.69l0,0h4v-.13a2.64,2.64,0,0,0-.48-1.62A1.74,1.74,0,0,0,345.7,190.43Z"/><path d="M355.35,190.75l-.84-.05a1.84,1.84,0,0,0-1.09.31,2,2,0,0,0-.68.86v6.38h-1.63v-8.94h1.46l.16,1.31a3,3,0,0,1,.93-1.08,2.21,2.21,0,0,1,1.29-.39,2,2,0,0,1,.35,0l.27.06Z"/><path d="M360.17,195.62l.14.63h.05l.16-.63,2.06-6.31h1.66L361,198.25h-1.23l-3.33-8.94h1.67Z"/><path d="M369.3,198.43a3.79,3.79,0,0,1-3-1.23,4.73,4.73,0,0,1-1.08-3.24v-.37a4.59,4.59,0,0,1,1.12-3.18,3.47,3.47,0,0,1,2.71-1.26,3.25,3.25,0,0,1,2.69,1.11,4.61,4.61,0,0,1,.9,3v.86h-5.72l0,0a3.68,3.68,0,0,0,.6,2.19,2.07,2.07,0,0,0,1.82.83,4,4,0,0,0,1.45-.23,3.3,3.3,0,0,0,1.07-.65l.63,1.06a3.87,3.87,0,0,1-1.26.78A5,5,0,0,1,369.3,198.43Zm-.26-8a1.78,1.78,0,0,0-1.41.65,3.11,3.11,0,0,0-.68,1.69l0,0h4v-.13a2.64,2.64,0,0,0-.48-1.62A1.74,1.74,0,0,0,369,190.43Z"/><path d="M375.91,189.31l.11,1.33a3.27,3.27,0,0,1,1.12-1.1,3,3,0,0,1,1.54-.39,2.94,2.94,0,0,1,2.24.84,3.73,3.73,0,0,1,.79,2.62v5.64h-1.63v-5.61a2.35,2.35,0,0,0-.47-1.67,1.82,1.82,0,0,0-1.42-.5,2.55,2.55,0,0,0-1.28.3,2.19,2.19,0,0,0-.83.85v6.63h-1.63v-8.94Z"/><path d="M386.34,187.16v2.15H388v1.21h-1.69V196a1.17,1.17,0,0,0,.26.88.94.94,0,0,0,.69.26,1.2,1.2,0,0,0,.31,0,1.48,1.48,0,0,0,.29-.08l.23,1.12a1.51,1.51,0,0,1-.54.24,2.48,2.48,0,0,1-.71.1,2.09,2.09,0,0,1-1.57-.6,2.61,2.61,0,0,1-.59-1.88v-5.43h-1.42v-1.21h1.42v-2.15Z"/><path d="M391.54,187h-1.63v-1.66h1.63Zm0,11.23h-1.63v-8.94h1.63Z"/><path d="M393.66,193.7a5,5,0,0,1,1.07-3.27,4,4,0,0,1,5.86,0,4.88,4.88,0,0,1,1.08,3.27v.18a4.85,4.85,0,0,1-1.08,3.27,4,4,0,0,1-5.85,0,4.88,4.88,0,0,1-1.08-3.27Zm1.63.18a4.25,4.25,0,0,0,.6,2.35,2.17,2.17,0,0,0,3.55,0,4.25,4.25,0,0,0,.6-2.35v-.18a4.16,4.16,0,0,0-.61-2.34,2,2,0,0,0-1.78-.93,2,2,0,0,0-1.76.93,4.24,4.24,0,0,0-.6,2.34Z"/><path d="M405.11,189.31l.12,1.33a3.27,3.27,0,0,1,1.12-1.1,3,3,0,0,1,1.53-.39,2.93,2.93,0,0,1,2.24.84,3.73,3.73,0,0,1,.8,2.62v5.64h-1.63v-5.61a2.4,2.4,0,0,0-.47-1.67,1.84,1.84,0,0,0-1.43-.5,2.51,2.51,0,0,0-1.27.3,2.12,2.12,0,0,0-.83.85v6.63h-1.63v-8.94Z"/><path d="M418.48,195.85a1.1,1.1,0,0,0-.41-.88,4,4,0,0,0-1.55-.59,6.61,6.61,0,0,1-2.43-.95,1.94,1.94,0,0,1-.84-1.64,2.36,2.36,0,0,1,.93-1.87,3.67,3.67,0,0,1,2.41-.77,3.6,3.6,0,0,1,2.46.82,2.37,2.37,0,0,1,.9,1.93l0,0h-1.55a1.39,1.39,0,0,0-.51-1,1.79,1.79,0,0,0-1.28-.47,1.84,1.84,0,0,0-1.29.39,1.21,1.21,0,0,0-.42.92,1,1,0,0,0,.36.82,4.15,4.15,0,0,0,1.52.53,6.35,6.35,0,0,1,2.49,1,2,2,0,0,1,.86,1.66,2.36,2.36,0,0,1-1,2,4.6,4.6,0,0,1-5.21-.12,2.49,2.49,0,0,1-.93-2l0,0h1.55a1.5,1.5,0,0,0,.64,1.26,2.51,2.51,0,0,0,1.42.4,2.26,2.26,0,0,0,1.36-.36A1.15,1.15,0,0,0,418.48,195.85Z"/><path d="M430.57,190.75l-.84-.05a1.79,1.79,0,0,0-1.08.31,1.9,1.9,0,0,0-.68.86v6.38h-1.63v-8.94h1.45l.16,1.31a3,3,0,0,1,.94-1.08,2.18,2.18,0,0,1,1.28-.39,2,2,0,0,1,.35,0l.27.06Z"/><path d="M435.81,198.43a3.79,3.79,0,0,1-3-1.23,4.73,4.73,0,0,1-1.07-3.24v-.37a4.63,4.63,0,0,1,1.11-3.18,3.47,3.47,0,0,1,2.71-1.26,3.25,3.25,0,0,1,2.69,1.11,4.61,4.61,0,0,1,.9,3v.86h-5.72l0,0a3.68,3.68,0,0,0,.6,2.19,2.07,2.07,0,0,0,1.82.83,4,4,0,0,0,1.45-.23,3.3,3.3,0,0,0,1.07-.65l.64,1.06a4,4,0,0,1-1.27.78A5,5,0,0,1,435.81,198.43Zm-.26-8a1.78,1.78,0,0,0-1.41.65,3.11,3.11,0,0,0-.68,1.69l0,0h4v-.13a2.64,2.64,0,0,0-.48-1.62A1.74,1.74,0,0,0,435.55,190.43Z"/><path d="M442.73,198.25H441.1V185.36h1.63Z"/><path d="M450.72,198.25c-.05-.27-.09-.5-.12-.71s-.05-.42-.06-.62a3.82,3.82,0,0,1-1.18,1.07,3.06,3.06,0,0,1-1.58.44,2.92,2.92,0,0,1-2.13-.72,2.64,2.64,0,0,1-.73-2,2.31,2.31,0,0,1,1-2,4.85,4.85,0,0,1,2.81-.73h1.77v-.88a1.63,1.63,0,0,0-.48-1.24,1.86,1.86,0,0,0-1.35-.46,2,2,0,0,0-1.28.39,1.2,1.2,0,0,0-.49,1l-1.55,0v0a2.12,2.12,0,0,1,.91-1.78,3.78,3.78,0,0,1,2.51-.81,3.69,3.69,0,0,1,2.45.77,2.75,2.75,0,0,1,.92,2.23v4.3c0,.32,0,.63.05.93a4.2,4.2,0,0,0,.18.87Zm-2.7-1.19a3,3,0,0,0,1.6-.45,2.14,2.14,0,0,0,.92-1v-1.46h-1.82a2.39,2.39,0,0,0-1.58.5,1.49,1.49,0,0,0-.59,1.16,1.26,1.26,0,0,0,.37.95A1.58,1.58,0,0,0,448,197.06Z"/><path d="M456.8,187.16v2.15h1.69v1.21H456.8V196a1.22,1.22,0,0,0,.26.88.94.94,0,0,0,.69.26,1.2,1.2,0,0,0,.31,0,1.3,1.3,0,0,0,.29-.08l.23,1.12a1.36,1.36,0,0,1-.54.24,2.47,2.47,0,0,1-.7.1,2.11,2.11,0,0,1-1.58-.6,2.61,2.61,0,0,1-.59-1.88v-5.43h-1.42v-1.21h1.42v-2.15Z"/><path d="M463.94,198.43a3.77,3.77,0,0,1-3-1.23,4.73,4.73,0,0,1-1.08-3.24v-.37a4.63,4.63,0,0,1,1.11-3.18,3.47,3.47,0,0,1,2.71-1.26,3.24,3.24,0,0,1,2.69,1.11,4.61,4.61,0,0,1,.9,3v.86h-5.72l0,0a3.68,3.68,0,0,0,.59,2.19,2.07,2.07,0,0,0,1.82.83,4,4,0,0,0,1.45-.23,3.2,3.2,0,0,0,1.07-.65l.64,1.06a3.82,3.82,0,0,1-1.27.78A5,5,0,0,1,463.94,198.43Zm-.26-8a1.81,1.81,0,0,0-1.41.65,3.19,3.19,0,0,0-.68,1.69l0,0h4v-.13a2.64,2.64,0,0,0-.48-1.62A1.74,1.74,0,0,0,463.68,190.43Z"/><path d="M468.72,194a5.92,5.92,0,0,1,.93-3.48,3,3,0,0,1,2.58-1.32,3.09,3.09,0,0,1,1.39.29,2.81,2.81,0,0,1,1,.84v-4.92h1.63v12.89H475l-.25-1.13a2.89,2.89,0,0,1-1.08,1,3.25,3.25,0,0,1-1.5.33,3.07,3.07,0,0,1-2.56-1.19,4.91,4.91,0,0,1-.93-3.12Zm1.63.17a3.77,3.77,0,0,0,.56,2.17,1.94,1.94,0,0,0,1.72.82,2.16,2.16,0,0,0,1.22-.33,2.54,2.54,0,0,0,.81-.93v-4.17a2.46,2.46,0,0,0-.81-.88,2.17,2.17,0,0,0-1.21-.33,1.85,1.85,0,0,0-1.73,1,5,5,0,0,0-.56,2.51Z"/><path d="M485.19,187.16v2.15h1.69v1.21h-1.69V196a1.17,1.17,0,0,0,.26.88.94.94,0,0,0,.69.26,1.2,1.2,0,0,0,.31,0,1.48,1.48,0,0,0,.29-.08l.22,1.12a1.38,1.38,0,0,1-.53.24,2.48,2.48,0,0,1-.71.1,2.09,2.09,0,0,1-1.57-.6,2.61,2.61,0,0,1-.59-1.88v-5.43h-1.42v-1.21h1.42v-2.15Z"/><path d="M488.25,193.7a4.91,4.91,0,0,1,1.07-3.27,4,4,0,0,1,5.86,0,4.93,4.93,0,0,1,1.07,3.27v.18a4.84,4.84,0,0,1-1.07,3.27,4,4,0,0,1-5.86,0,4.93,4.93,0,0,1-1.07-3.27Zm1.62.18a4.25,4.25,0,0,0,.6,2.35,2.17,2.17,0,0,0,3.55,0,4.17,4.17,0,0,0,.61-2.35v-.18a4.24,4.24,0,0,0-.61-2.34,2,2,0,0,0-1.78-.93,2,2,0,0,0-1.77.93,4.24,4.24,0,0,0-.6,2.34Z"/><path d="M337.4,218.74a3.78,3.78,0,0,1-3-1.23,4.73,4.73,0,0,1-1.08-3.24v-.37a4.63,4.63,0,0,1,1.11-3.18,3.49,3.49,0,0,1,2.72-1.26,3.26,3.26,0,0,1,2.69,1.11,4.61,4.61,0,0,1,.89,3v.86H335l0,0a3.68,3.68,0,0,0,.6,2.19,2.06,2.06,0,0,0,1.81.84,4,4,0,0,0,1.45-.24,3.24,3.24,0,0,0,1.08-.65l.63,1.06a3.87,3.87,0,0,1-1.26.78A5.14,5.14,0,0,1,337.4,218.74Zm-.25-8a1.76,1.76,0,0,0-1.41.66,3,3,0,0,0-.68,1.68v0h4V213a2.64,2.64,0,0,0-.48-1.62A1.75,1.75,0,0,0,337.15,210.74Z"/><path d="M348.06,218.56c-.06-.27-.1-.5-.13-.71s-.05-.41-.06-.62a3.59,3.59,0,0,1-1.18,1.07,3,3,0,0,1-1.58.44A2.88,2.88,0,0,1,343,218a2.6,2.6,0,0,1-.73-2,2.3,2.3,0,0,1,1-2,4.86,4.86,0,0,1,2.82-.73h1.76v-.88a1.62,1.62,0,0,0-.47-1.24,1.88,1.88,0,0,0-1.36-.46,2,2,0,0,0-1.28.39,1.2,1.2,0,0,0-.49,1h-1.54l0,0a2.14,2.14,0,0,1,.91-1.78,3.8,3.8,0,0,1,2.51-.81,3.67,3.67,0,0,1,2.45.77,2.77,2.77,0,0,1,.92,2.23v4.3c0,.32,0,.63.05.93a6.09,6.09,0,0,0,.18.87Zm-2.71-1.19a2.93,2.93,0,0,0,1.6-.45,2.14,2.14,0,0,0,.92-1v-1.46h-1.82a2.39,2.39,0,0,0-1.58.5,1.5,1.5,0,0,0-.59,1.17,1.23,1.23,0,0,0,.38.94A1.53,1.53,0,0,0,345.35,217.37Z"/><path d="M356.1,211.06l-.84-.05a1.79,1.79,0,0,0-1.08.31,1.84,1.84,0,0,0-.68.86v6.38h-1.63v-8.94h1.45l.16,1.31a2.94,2.94,0,0,1,.94-1.08,2.18,2.18,0,0,1,1.28-.39,2,2,0,0,1,.35,0l.27.06Z"/><path d="M359.55,218.56h-1.62V205.67h1.62Z"/><path d="M364.79,215.25l.29,1.12h.05l2.2-6.75h1.81l-3.76,10.32a4.77,4.77,0,0,1-1,1.57,2.26,2.26,0,0,1-1.71.67,3.64,3.64,0,0,1-.5-.05,4,4,0,0,1-.47-.09l.16-1.28.3,0,.43,0a1,1,0,0,0,.85-.46,5,5,0,0,0,.55-1l.39-.94-3.32-8.76h1.82Z"/><path d="M375.64,214.12h-4.87v-1.27h4.87Z"/><path d="M377.91,214.26a6,6,0,0,1,.92-3.48,3,3,0,0,1,2.57-1.32,3.13,3.13,0,0,1,1.5.34,3,3,0,0,1,1.08,1l.2-1.17h1.3v9a3.39,3.39,0,0,1-1,2.64,4.1,4.1,0,0,1-2.89.93,6,6,0,0,1-1.39-.18,5.67,5.67,0,0,1-1.32-.48l.25-1.27a4.46,4.46,0,0,0,1.14.4,5.92,5.92,0,0,0,1.31.15,2.38,2.38,0,0,0,1.73-.54,2.25,2.25,0,0,0,.54-1.65v-1a2.86,2.86,0,0,1-1.05.85,3.32,3.32,0,0,1-1.41.29,3.06,3.06,0,0,1-2.56-1.19,5,5,0,0,1-.92-3.12Zm1.63.17a3.82,3.82,0,0,0,.55,2.17,1.94,1.94,0,0,0,1.71.82,2.17,2.17,0,0,0,1.23-.34,2.52,2.52,0,0,0,.82-.94V212a2.58,2.58,0,0,0-.82-.91,2.15,2.15,0,0,0-1.21-.33,1.86,1.86,0,0,0-1.73,1,5,5,0,0,0-.55,2.51Z"/><path d="M392.05,211.06l-.84-.05a1.79,1.79,0,0,0-1.08.31,1.84,1.84,0,0,0-.68.86v6.38h-1.63v-8.94h1.45l.16,1.31a2.94,2.94,0,0,1,.94-1.08,2.18,2.18,0,0,1,1.28-.39,2,2,0,0,1,.35,0l.27.06Z"/><path d="M399.24,218.56c-.06-.27-.1-.5-.13-.71a4.32,4.32,0,0,1-.05-.62,3.72,3.72,0,0,1-1.19,1.07,3,3,0,0,1-1.57.44,2.92,2.92,0,0,1-2.13-.72,2.6,2.6,0,0,1-.73-2,2.3,2.3,0,0,1,1-2,4.86,4.86,0,0,1,2.82-.73h1.77v-.88a1.63,1.63,0,0,0-.48-1.24,1.87,1.87,0,0,0-1.36-.46,2,2,0,0,0-1.28.39,1.23,1.23,0,0,0-.49,1h-1.54l0,0a2.14,2.14,0,0,1,.91-1.78,3.8,3.8,0,0,1,2.51-.81,3.67,3.67,0,0,1,2.45.77,2.74,2.74,0,0,1,.92,2.23v4.3c0,.32,0,.63.05.93a5,5,0,0,0,.19.87Zm-2.7-1.19a2.89,2.89,0,0,0,1.59-.45,2.22,2.22,0,0,0,.93-1v-1.46h-1.83a2.35,2.35,0,0,0-1.57.5,1.48,1.48,0,0,0-.6,1.17,1.23,1.23,0,0,0,.38.94A1.54,1.54,0,0,0,396.54,217.37Z"/><path d="M402.68,214.26a5.92,5.92,0,0,1,.92-3.48,3,3,0,0,1,2.58-1.32,3.09,3.09,0,0,1,1.39.29,2.81,2.81,0,0,1,1,.84v-4.92h1.63v12.89H409l-.25-1.13a2.89,2.89,0,0,1-1.08,1,3.25,3.25,0,0,1-1.5.33,3.07,3.07,0,0,1-2.56-1.19,4.91,4.91,0,0,1-.92-3.12Zm1.62.17a3.77,3.77,0,0,0,.56,2.17,1.94,1.94,0,0,0,1.72.82,2.16,2.16,0,0,0,1.22-.33,2.47,2.47,0,0,0,.81-.93V212a2.46,2.46,0,0,0-.81-.88,2.17,2.17,0,0,0-1.21-.33,1.85,1.85,0,0,0-1.73,1,5,5,0,0,0-.56,2.51Z"/><path d="M416.37,218.74a3.78,3.78,0,0,1-3-1.23,4.73,4.73,0,0,1-1.08-3.24v-.37a4.63,4.63,0,0,1,1.11-3.18,3.49,3.49,0,0,1,2.71-1.26,3.24,3.24,0,0,1,2.69,1.11,4.61,4.61,0,0,1,.9,3v.86H414l0,0a3.75,3.75,0,0,0,.59,2.19,2.08,2.08,0,0,0,1.82.84,4,4,0,0,0,1.45-.24,3.2,3.2,0,0,0,1.07-.65l.64,1.06a3.82,3.82,0,0,1-1.27.78A5,5,0,0,1,416.37,218.74Zm-.26-8a1.76,1.76,0,0,0-1.4.66,3.06,3.06,0,0,0-.69,1.68l0,0h4V213a2.64,2.64,0,0,0-.48-1.62A1.74,1.74,0,0,0,416.11,210.74Z"/><path d="M427.49,218.56h-1.62V205.67h1.62Z"/><path d="M433.7,218.74a3.78,3.78,0,0,1-3-1.23,4.73,4.73,0,0,1-1.08-3.24v-.37a4.63,4.63,0,0,1,1.11-3.18,3.49,3.49,0,0,1,2.71-1.26,3.24,3.24,0,0,1,2.69,1.11,4.61,4.61,0,0,1,.9,3v.86h-5.72l0,0a3.75,3.75,0,0,0,.59,2.19,2.09,2.09,0,0,0,1.82.84,4,4,0,0,0,1.45-.24,3.2,3.2,0,0,0,1.07-.65l.64,1.06a3.82,3.82,0,0,1-1.27.78A5,5,0,0,1,433.7,218.74Zm-.26-8a1.76,1.76,0,0,0-1.4.66,3.06,3.06,0,0,0-.69,1.68l0,0h4V213a2.64,2.64,0,0,0-.48-1.62A1.74,1.74,0,0,0,433.44,210.74Z"/><path d="M444.35,218.56c-.05-.27-.09-.5-.12-.71s-.05-.41-.06-.62A3.69,3.69,0,0,1,443,218.3a3.06,3.06,0,0,1-1.58.44,2.92,2.92,0,0,1-2.13-.72,2.64,2.64,0,0,1-.73-2,2.31,2.31,0,0,1,1-2,4.85,4.85,0,0,1,2.81-.73h1.77v-.88a1.63,1.63,0,0,0-.48-1.24,1.86,1.86,0,0,0-1.35-.46,2,2,0,0,0-1.28.39,1.2,1.2,0,0,0-.49,1H439v0a2.12,2.12,0,0,1,.91-1.78,3.78,3.78,0,0,1,2.51-.81,3.64,3.64,0,0,1,2.44.77,2.74,2.74,0,0,1,.93,2.23v4.3c0,.32,0,.63.05.93a4.2,4.2,0,0,0,.18.87Zm-2.7-1.19a3,3,0,0,0,1.6-.45,2.14,2.14,0,0,0,.92-1v-1.46h-1.82a2.37,2.37,0,0,0-1.58.5,1.5,1.5,0,0,0-.59,1.17,1.22,1.22,0,0,0,.37.94A1.58,1.58,0,0,0,441.65,217.37Z"/><path d="M452.4,211.06l-.84-.05a1.84,1.84,0,0,0-1.09.31,2,2,0,0,0-.68.86v6.38h-1.63v-8.94h1.46l.16,1.31a3,3,0,0,1,.93-1.08,2.21,2.21,0,0,1,1.29-.39,2,2,0,0,1,.35,0l.27.06Z"/><path d="M455.54,209.62l.12,1.33a3.27,3.27,0,0,1,1.12-1.1,3,3,0,0,1,1.53-.39,2.93,2.93,0,0,1,2.24.84,3.73,3.73,0,0,1,.8,2.62v5.64h-1.63V213a2.41,2.41,0,0,0-.47-1.67,1.84,1.84,0,0,0-1.43-.5,2.51,2.51,0,0,0-1.27.3,2.12,2.12,0,0,0-.83.85v6.63h-1.63v-8.94Z"/><path d="M465.47,207.33h-1.63v-1.66h1.63Zm0,11.23h-1.63v-8.94h1.63Z"/><path d="M469.43,209.62l.11,1.33a3.27,3.27,0,0,1,1.12-1.1,3,3,0,0,1,1.54-.39,2.94,2.94,0,0,1,2.24.84,3.78,3.78,0,0,1,.79,2.62v5.64H473.6V213a2.37,2.37,0,0,0-.47-1.67,1.82,1.82,0,0,0-1.42-.5,2.55,2.55,0,0,0-1.28.3,2.12,2.12,0,0,0-.83.85v6.63H468v-8.94Z"/><path d="M477.3,214.26a5.92,5.92,0,0,1,.93-3.48,3,3,0,0,1,2.57-1.32,3.13,3.13,0,0,1,1.5.34,3,3,0,0,1,1.08,1l.2-1.17h1.29v9a3.39,3.39,0,0,1-1,2.64,4.06,4.06,0,0,1-2.88.93,6,6,0,0,1-1.39-.18,5.67,5.67,0,0,1-1.32-.48l.25-1.27a4.38,4.38,0,0,0,1.13.4,6,6,0,0,0,1.31.15,2.36,2.36,0,0,0,1.73-.54,2.21,2.21,0,0,0,.55-1.65v-1a3,3,0,0,1-1.05.85,3.33,3.33,0,0,1-1.42.29,3,3,0,0,1-2.55-1.19,4.91,4.91,0,0,1-.93-3.12Zm1.63.17a3.82,3.82,0,0,0,.56,2.17,1.91,1.91,0,0,0,1.71.82,2.17,2.17,0,0,0,1.23-.34,2.61,2.61,0,0,0,.82-.94V212a2.67,2.67,0,0,0-.82-.91,2.18,2.18,0,0,0-1.22-.33,1.85,1.85,0,0,0-1.72,1,5,5,0,0,0-.56,2.51Z"/><rect class="cls-2" x="46.08" y="44.15" width="161.7" height="161.7" transform="translate(125.56 -53.14) rotate(45)"/><g class="cls-3"><path class="cls-4" d="M126.93,227.71,24.22,125,126.93,22.29,229.63,125ZM27.39,125l99.54,99.53L226.46,125,126.93,25.47Zm99.54,89.66L92.65,180.38l26.21-26.21L93.45,128.75l-18,18L87.33,158.7l4.93-4.94-7-7,8.16-8.16L109,154.17,87.71,175.45l-30-30L78.22,125,57.74,104.52l30-30L109,95.83,93.45,111.37l-8.16-8.16,7-7L87.33,91.3,75.41,103.21l18,18,25.41-25.42L92.65,69.62l34.28-34.28L161.2,69.62,135,95.83l25.41,25.42,18-18L166.52,91.3l-4.93,4.94,7,7-8.17,8.16L144.86,95.83l21.28-21.28,30,30L175.63,125l20.48,20.48-30,30-21.28-21.27,15.54-15.54,8.17,8.16-7,7,4.93,4.94,11.92-11.91-18-18L135,154.17l26.21,26.21ZM95.82,180.38l31.11,31.11L158,180.38l-26.21-26.21,28.58-28.59,21.21,21.21-15.09,15.08-8.11-8.11,7-7-5-5L148,154.17l18.1,18.1,26.79-26.79L172.46,125l20.47-20.48L166.14,77.73,148,95.83,160.4,108.2l5-5-7-7,8.11-8.12,15.09,15.09L160.4,124.42,131.82,95.83,158,69.62l-31.1-31.11L95.82,69.62,122,95.83,93.45,124.42,72.24,103.21,87.33,88.13l8.11,8.1-7,7,5,5,12.36-12.37-18.1-18.1L60.92,104.52,81.39,125,60.92,145.48l26.79,26.79,18.1-18.1L93.45,141.8l-5,5,7,7-8.11,8.11L72.24,146.79l21.21-21.21L122,154.17ZM201,140.54,185.5,125,201,109.46,216.59,125ZM188.68,125,201,137.37,213.41,125,201,112.63ZM52.81,140.54,37.27,125l15.54-15.54L68.35,125ZM40.44,125l12.37,12.37L65.17,125,52.81,112.63Z"/><path class="cls-4" d="M126.93,204.07l-24.05-24L126.93,156,151,180Zm-20.88-24,20.88,20.88L147.8,180l-20.87-20.87Z"/><path class="cls-4" d="M126.93,93.36l-24.05-24,24.05-24.05,24,24.05Zm-20.88-24,20.88,20.88L147.8,69.31,126.93,48.44Z"/></g><path class="cls-4" d="M114.69,136.6h-7.38v-3.3a15.2,15.2,0,0,0,9.31-13.51,5.61,5.61,0,0,0,3.21-9.69c.2-1,.2-3-.32-7.46-1.07-9-9.94-9.93-10.05-9.94H94c-6.36,0-8.59-2.51-8.61-2.53l-1.7-2.11v21.59a5.63,5.63,0,0,0,2.68,10.14,15.22,15.22,0,0,0,9.32,13.51v3.3H88.29a10.92,10.92,0,0,0-10.91,10.91v14H125.6v-14A10.92,10.92,0,0,0,114.69,136.6Zm1.94-26.1a3.74,3.74,0,0,1,0,7.37Zm1.4-1.58a1.55,1.55,0,0,0-.23-.06,5.87,5.87,0,0,0-.6-.16,4.74,4.74,0,0,0-.57-.15V105h0V105l-.55-.22-.56-.3a8.3,8.3,0,0,1-1.21-.82l-.17-.14a4.15,4.15,0,0,1-.7-.75,6,6,0,0,1-.82-1.53s-.07-.18-.22-.6l-.78-2.13-1,2c-1.64,3.4-5.16,4.78-9,5.19-.24,0-.46,0-.71.06h-.17a48.09,48.09,0,0,1-13.24-1.66l-1.21-.38v4.85a6.17,6.17,0,0,0-.77.16v-16a16.34,16.34,0,0,0,8.4,1.9h15.4a9.23,9.23,0,0,1,8.23,8.26A40.58,40.58,0,0,1,118,108.92Zm-29.77,1.32v-3.95a45.87,45.87,0,0,0,9.26,1.45c5.19.24,9.25-.78,12-2.92.2-.15.39-.3.56-.45a3.08,3.08,0,0,0,.27-.24,8.6,8.6,0,0,0,1-1.13,7,7,0,0,0,.55.86,5.58,5.58,0,0,0,1,1.09l.17.14c.14.12.31.2.46.31a8.33,8.33,0,0,0,1.16.81v13.12a13.23,13.23,0,0,1-26.46,0Zm-1.91.46v7.17A3.72,3.72,0,0,1,85.06,111Zm11.23,23.24a14.69,14.69,0,0,0,7.82,0v2.65H97.58Zm-9.66,9.56,3.59-4.62L93,144Zm22.1.5,1.45-5.12,3.59,4.62Zm-3.29,11.64,2.69-9.54L113,150Zm2.51-17.13a9.38,9.38,0,0,1-15.51,0ZM90,150l3.61-3.88,2.69,9.54Zm-10.66,9.61V147.51a9,9,0,0,1,9-9h1.09l-5.09,6.55,7,.69-4,4.35,10.58,9.49Zm22-15.06h.35a10.67,10.67,0,0,0,6.9-2.4l-4.94,17.46H99.35l-4.93-17.46A10.66,10.66,0,0,0,101.31,144.53Zm14.44,5.57-4-4.35,7-.69-5.09-6.55h1.09a9,9,0,0,1,9,9v12.08H105.17Z"/><path class="cls-4" d="M100.09,117.59h2.8a5,5,0,1,0,0-1.91h-2.8a5,5,0,1,0,0,1.91Zm-8.06-1a3.12,3.12,0,1,1,3.12,3.12A3.12,3.12,0,0,1,92,116.64Zm12.68,0a3.12,3.12,0,1,1,3.12,3.12A3.12,3.12,0,0,1,104.71,116.64Z"/><path class="cls-4" d="M101.89,128a.77.77,0,0,1-.14.4.37.37,0,0,1-.26.07c-.26,0-.4-.2-.4-.59v-2H99.18v2a2.81,2.81,0,0,0,.72,1.89,2.35,2.35,0,0,0,3.21,0,2.66,2.66,0,0,0,.69-1.75v-2.09h-1.91Z"/><path class="cls-4" d="M165.56,136.6h-7.38v-3.31a15.22,15.22,0,0,0,4.59-3,6.17,6.17,0,0,0,3.39,1.73,5.91,5.91,0,0,0,1.33.14c1.53,0,4.23-.59,5.17-4.57a4.94,4.94,0,0,0-.6-3.89,8.57,8.57,0,0,0-4.64-3.12c0-.26.07-.51.08-.78A5.61,5.61,0,0,0,169.06,109V109h0l.93-7.41v-.1a13,13,0,0,0-13-13h-8.68a13,13,0,0,0-13,13l.32,7.48h0v0a5.62,5.62,0,0,0,1.56,10.76c0,.14,0,.27,0,.41a6.07,6.07,0,0,0-3.31,1.15c-1.05.68-4.25,3.24-1.46,7.73a4.88,4.88,0,0,0,3.17,2.33,5.9,5.9,0,0,0,1.21.13,10.06,10.06,0,0,0,4.81-1.51,15.11,15.11,0,0,0,4.85,3.26v3.31h-7.38a10.92,10.92,0,0,0-10.91,10.91v14h48.22v-14A10.92,10.92,0,0,0,165.56,136.6Zm-29.48-7.06a3,3,0,0,1-2-1.46c-1.66-2.69-.42-4.28.94-5.17a4.14,4.14,0,0,1,2.42-.79,15.17,15.17,0,0,0,2.92,6.45A6.91,6.91,0,0,1,136.08,129.54Zm1.14-19v7.37a3.74,3.74,0,0,1,0-7.37Zm33.23,14.23a3,3,0,0,1,.35,2.41c-.72,3.08-2.73,3.33-4.32,3a4.45,4.45,0,0,1-2.41-1.27,14.87,14.87,0,0,0,3.07-6.38A6.39,6.39,0,0,1,170.45,124.73ZM139.13,110v-3.79l.11-.06a9.53,9.53,0,0,0,1.51-1l.18-.14a6.17,6.17,0,0,0,1-1.09,6,6,0,0,0,.55-.86c2.57,3.4,7.33,5,13.83,4.74a45.87,45.87,0,0,0,9.26-1.45v13a13.23,13.23,0,1,1-26.46,0Zm-1.87-8.48a11.08,11.08,0,0,1,11.08-11.07H157a11.08,11.08,0,0,1,11.07,11l-.59,4.67v-2.34l-1.23.39c-.19,0-18.59,5.65-23.06-3.61l-1-2-.78,2.13c-.16.46-.21.59-.23.63a5.87,5.87,0,0,1-.81,1.5,4.15,4.15,0,0,1-.7.75l-.17.14a7.79,7.79,0,0,1-1.21.82l-.92.49Zm19,35.11h-7.82v-2.66a14.43,14.43,0,0,0,7.82,0v2.66Zm11.23-18.72V110.5a3.74,3.74,0,0,1,0,7.37ZM138.79,143.5l3.59-4.62,1.45,5.12Zm22.1.5,1.45-5.12,3.59,4.62Zm-3.29,11.64,2.69-9.54,3.62,3.88Zm-5.23-13a9.49,9.49,0,0,1-7.77-4.1h15.52A9.46,9.46,0,0,1,152.37,142.61ZM140.82,150l3.61-3.88,2.69,9.54Zm-10.66,9.61V147.51a9,9,0,0,1,9-9h1.09l-5.09,6.55,7,.69-4,4.35,10.58,9.49Zm22-15.06h.34a10.67,10.67,0,0,0,6.9-2.4l-4.93,17.46h-4.27l-4.94-17.46A10.67,10.67,0,0,0,152.19,144.53Zm14.43,5.57-4-4.35,7-.69-5.09-6.55h1.09a9,9,0,0,1,9,9v12.08H156.05Z"/><path class="cls-4" d="M151,117.59h2.8a5,5,0,1,0,0-1.91H151a5,5,0,1,0,0,1.91Zm-1.82-1a3.12,3.12,0,1,1-3.12-3.12A3.12,3.12,0,0,1,149.14,116.64Zm6.44,0a3.12,3.12,0,1,1,3.12,3.12A3.12,3.12,0,0,1,155.58,116.64Z"/><path class="cls-4" d="M152.76,127.85c0,.27-.07.59-.4.59-.13,0-.22,0-.26-.07a.77.77,0,0,1-.14-.4v-2.1h-1.91V128a2.55,2.55,0,0,0,.69,1.75,2.35,2.35,0,0,0,3.21,0,2.81,2.81,0,0,0,.72-1.88v-2h-1.91Z"/></svg>