<svg width="48" height="48" viewBox="0 0 48 48" fill="none" xmlns="http://www.w3.org/2000/svg">
<g opacity="0.1">
<path d="M47.61 47.61V37.97V0.98999H10.63H0.98999V47.61H47.61ZM3.98999 38.17H10.42V44.6H3.98999V38.17ZM44.6 10.43H38.17V3.99999H44.6V10.43ZM44.6 37.97V44.6H29.53V32.51H17.08V41.56H23.3V38.55H20.08V35.52H26.51V44.6H13.42V35.16H3.97999V22.07H13.06V28.5H10.03V25.28H7.01999V31.5H16.07V19.05H3.98999V10.61V3.97999H10.62H19.06V16.07H31.51V7.01999H25.29V10.03H28.51V13.06H22.08V3.97999H35.17V13.42H44.61V26.51H35.53V20.08H38.56V23.3H41.57V17.08H32.52V29.53H44.61L44.6 37.97Z" stroke="#2684D9" stroke-width="0.3864" stroke-miterlimit="10"/>
<path d="M42.1635 42.16L42.1635 31.8L31.8035 31.8L31.8035 42.16L42.1635 42.16Z" stroke="#2684D9" stroke-width="0.3864" stroke-miterlimit="10"/>
<path d="M16.6358 16.64L16.6358 6.28003L6.2758 6.28003L6.2758 16.64L16.6358 16.64Z" stroke="#2684D9" stroke-width="0.3864" stroke-miterlimit="10"/>
</g>
</svg>
