<svg id="Layer_1" data-name="Layer 1" xmlns="http://www.w3.org/2000/svg" xmlns:xlink="http://www.w3.org/1999/xlink" viewBox="0 0 504.01 277.74"><defs><style>.cls-1,.cls-29{fill:none;}.cls-2{fill:#fff;}.cls-3{opacity:0.2;}.cls-4{fill:#017db9;}.cls-5{font-size:9px;font-family:Roboto-Regular, Roboto;}.cls-6{fill:#ed4328;}.cls-7{fill:#41ac49;}.cls-8{font-size:14px;}.cls-17,.cls-8{font-family:Montserrat-Bold, Montserrat;font-weight:700;}.cls-9{letter-spacing:0em;}.cls-10{letter-spacing:0.01em;}.cls-11{letter-spacing:-0.02em;}.cls-12{letter-spacing:-0.01em;}.cls-13{letter-spacing:-0.02em;}.cls-14{letter-spacing:0.01em;}.cls-15{letter-spacing:0.01em;}.cls-16{letter-spacing:0em;}.cls-17{font-size:8px;}.cls-18{letter-spacing:0.01em;}.cls-19{letter-spacing:-0.01em;}.cls-20{letter-spacing:-0.02em;}.cls-21{letter-spacing:0.01em;}.cls-22{letter-spacing:-0.01em;}.cls-23{letter-spacing:0em;}.cls-24{letter-spacing:-0.05em;}.cls-25{letter-spacing:0.01em;}.cls-26{letter-spacing:-0.01em;}.cls-27{clip-path:url(#clip-path);}.cls-28{opacity:0.07;}.cls-29{stroke:#2681d6;stroke-miterlimit:10;stroke-width:2.59px;}.cls-30{clip-path:url(#clip-path-2);}</style><clipPath id="clip-path"><rect class="cls-1" x="-116.21" y="297.34" width="1467.58" height="1107.32"/></clipPath><clipPath id="clip-path-2"><rect class="cls-1" x="-1603.79" y="297.34" width="1467.58" height="1033.63"/></clipPath></defs><rect class="cls-2" width="504.01" height="277.74"/><g class="cls-3"><rect x="21.17" y="55.82" width="461.66" height="0.5"/></g><g class="cls-3"><rect x="21.17" y="101.46" width="461.66" height="0.5"/></g><g class="cls-3"><rect x="21.17" y="149.46" width="461.66" height="0.5"/></g><g class="cls-3"><rect x="21.17" y="165.46" width="461.66" height="0.5"/></g><g class="cls-3"><rect x="21.17" y="182.2" width="461.66" height="0.5"/></g><g class="cls-3"><rect x="21.17" y="198.45" width="461.66" height="0.5"/></g><g class="cls-3"><rect x="21.17" y="215.47" width="461.66" height="0.5"/></g><g class="cls-3"><rect x="21.17" y="85.46" width="461.66" height="0.5"/></g><g class="cls-3"><rect x="21.17" y="70.46" width="461.66" height="0.5"/></g><g class="cls-3"><rect x="21.17" y="133.46" width="461.66" height="0.5"/></g><g class="cls-3"><rect x="21.17" y="117.46" width="461.66" height="0.5"/></g><path class="cls-4" d="M175.11,255.91l1.13-1.13h0l4.33-4.33-4.33-4.33h0L175.11,245l-5.46,5.46Zm-4-6.21.75.75-.75.75-.75-.75Zm8,1.5-.76-.75.76-.75.75.75Zm-3.23,3.23h0l-.78.78-1.76-1.77,1.41-1.42-1.46-1.45-1.06,1.06.73.73.36-.36-.38-.37.35-.36.76.75L173,253.09l-1.53-1.53,1.11-1.11-1.11-1.11,1.53-1.53,1.07,1.06-.76.76-.35-.36.38-.37-.36-.36-.73.73,1.06,1.06,1.46-1.46-1.41-1.41,1-1h0l.77-.78.78.78h0l1,1-1.42,1.41,1.46,1.46,1.06-1.06-.73-.73-.35.36.38.37-.36.36-.75-.76,1.06-1.06,1.53,1.53-1.1,1.11,1.1,1.11-1.53,1.53L176.17,252l.75-.75.36.36-.38.37.35.36.73-.73-1.06-1.06L175.46,252l1.42,1.42Z"/><rect class="cls-4" x="174.25" y="252.56" width="1.72" height="1.72" transform="translate(478.13 308.79) rotate(135)"/><rect class="cls-4" x="174.25" y="246.58" width="1.72" height="1.72" transform="translate(473.9 298.58) rotate(135)"/><text class="cls-5" transform="translate(186.34 253)">2019</text><path class="cls-6" d="M240.86,255.91l1.13-1.13h0l4.33-4.33L242,246.12h0L240.86,245l-5.46,5.46Zm-4-6.21.75.75-.75.75-.76-.75Zm8,1.5-.76-.75.76-.75.75.75Zm-3.23,3.23h0l-.78.78-1.76-1.77,1.41-1.42-1.46-1.45L238,251.63l.73.73.36-.36-.38-.37.35-.36.76.75-1.07,1.07-1.53-1.53,1.11-1.11-1.11-1.11,1.53-1.53,1.07,1.06-.76.76-.35-.36.38-.37-.36-.36-.73.73,1.06,1.06,1.46-1.46-1.41-1.41,1-1h0l.78-.78.78.78h0l1,1-1.42,1.41,1.46,1.46,1.06-1.06-.73-.73-.35.36.38.37-.36.36-.75-.76,1.06-1.06,1.53,1.53-1.1,1.11,1.1,1.11L243,253.09,241.92,252l.75-.75.36.36-.38.37.35.36.73-.73-1.06-1.06L241.21,252l1.42,1.42Z"/><rect class="cls-6" x="240" y="252.56" width="1.72" height="1.72" transform="translate(590.37 262.3) rotate(135)"/><rect class="cls-6" x="240" y="246.58" width="1.72" height="1.72" transform="translate(586.14 252.09) rotate(135)"/><text class="cls-5" transform="translate(252.09 253)">2020</text><path class="cls-7" d="M302.86,255.91l1.13-1.13h0l4.33-4.33L304,246.12h0L302.86,245l-5.46,5.46Zm-4-6.21.75.75-.75.75-.76-.75Zm8,1.5-.76-.75.76-.75.75.75Zm-3.23,3.23h0l-.78.78-1.76-1.77,1.41-1.42-1.46-1.45L300,251.63l.73.73.36-.36-.38-.37.35-.36.76.75-1.07,1.07-1.53-1.53,1.11-1.11-1.11-1.11,1.53-1.53,1.07,1.06-.76.76-.35-.36.38-.37-.36-.36-.73.73,1.06,1.06,1.46-1.46-1.41-1.41,1-1h0l.78-.78.78.78h0l1,1-1.42,1.41,1.46,1.46,1.06-1.06-.73-.73-.35.36.38.37-.36.36-.75-.76,1.06-1.06,1.53,1.53-1.1,1.11,1.1,1.11L305,253.09,303.92,252l.75-.75.36.36-.38.37.35.36.73-.73-1.06-1.06L303.21,252l1.42,1.42Z"/><rect class="cls-7" x="302" y="252.56" width="1.72" height="1.72" transform="translate(696.21 218.46) rotate(135)"/><rect class="cls-7" x="302" y="246.58" width="1.72" height="1.72" transform="translate(691.98 208.25) rotate(135)"/><text class="cls-5" transform="translate(314.09 253)">2021</text><text class="cls-8" transform="translate(159.97 33.73)">S<tspan class="cls-9" x="8.93" y="0">c</tspan><tspan class="cls-10" x="17.15" y="0">h</tspan><tspan x="26.91" y="0">ool </tspan><tspan class="cls-11" x="53.42" y="0">C</tspan><tspan x="63.42" y="0">ompletion </tspan><tspan class="cls-12" x="143.09" y="0">R</tspan><tspan x="153.31" y="0">a</tspan><tspan class="cls-13" x="161.95" y="0">t</tspan><tspan x="167.8" y="0">es</tspan></text><rect class="cls-4" x="195.31" y="79.57" width="30.95" height="136.4"/><rect class="cls-6" x="236.02" y="75.02" width="30.95" height="140.95"/><rect class="cls-7" x="277.74" y="73.27" width="30.95" height="142.7"/><rect class="cls-4" x="349.28" y="121.57" width="30.95" height="94.4"/><rect class="cls-6" x="389.99" y="112.02" width="30.95" height="103.95"/><rect class="cls-7" x="431.71" y="108.27" width="30.95" height="107.7"/><rect class="cls-4" x="42.17" y="63.96" width="30.95" height="152.01"/><rect class="cls-6" x="82.89" y="63.36" width="30.95" height="152.6"/><rect class="cls-7" x="124.61" y="60.36" width="30.95" height="155.6"/><text class="cls-5" transform="translate(83.01 229.53)">Prima<tspan class="cls-14" x="23.96" y="0">r</tspan><tspan x="27.18" y="0">y</tspan></text><text class="cls-5" transform="translate(215.43 229.53)"><tspan xml:space="preserve">Junior  Seconda</tspan><tspan class="cls-15" x="65.39" y="0">r</tspan><tspan class="cls-16" x="68.62" y="0">y</tspan></text><text class="cls-5" transform="translate(370.44 229.53)">Senior Seconda<tspan class="cls-15" x="63.32" y="0">r</tspan><tspan class="cls-16" x="66.55" y="0">y</tspan></text><text class="cls-17" transform="translate(42.77 60.76)">95.<tspan class="cls-18" x="11.95" y="0">4</tspan><tspan class="cls-19" x="17.54" y="0">8</tspan><tspan x="22.74" y="0">%</tspan></text><text class="cls-17" transform="translate(89.84 60.16)">9<tspan class="cls-20" x="5.1" y="0">6</tspan><tspan x="10.03" y="0">%</tspan></text><text class="cls-17" transform="translate(131.43 57.16)">9<tspan class="cls-19" x="5.1" y="0">8</tspan><tspan x="10.3" y="0">%</tspan></text><text class="cls-17" transform="translate(196.49 76.37)">85<tspan class="cls-21" x="10.04" y="0">.</tspan><tspan x="12.22" y="0">2</tspan><tspan class="cls-22" x="16.94" y="0">3</tspan><tspan class="cls-23" x="21.59" y="0">%</tspan></text><text class="cls-17" transform="translate(236.79 71.82)">8<tspan class="cls-24" x="5.28" y="0">7</tspan><tspan class="cls-25" x="9.85" y="0">.</tspan><tspan x="12.02" y="0">89%</tspan></text><text class="cls-17" transform="translate(284.53 70.07)">89%</text><text class="cls-17" transform="translate(350.43 118.37)">5<tspan class="cls-25" x="4.76" y="0">8.</tspan><tspan class="cls-26" x="12.3" y="0">3</tspan><tspan class="cls-19" x="16.99" y="0">3</tspan><tspan x="21.65" y="0">%</tspan></text><text class="cls-17" transform="translate(391.11 108.82)">63.9<tspan class="cls-19" x="17.02" y="0">5</tspan><tspan x="21.7" y="0">%</tspan></text><text class="cls-17" transform="translate(438.67 105.07)">6<tspan class="cls-20" x="5.1" y="0">6</tspan><tspan x="10.03" y="0">%</tspan></text><g class="cls-27"><g class="cls-28"><path class="cls-29" d="M1178.28,1479.79,1319,1339h0l539.87-539.87L1319,259.29h0L1178.28,118.53,497.65,799.16ZM679.39,705.23l93.93,93.93-93.93,93.93-93.92-93.93Zm997.78,187.86-93.93-93.93,93.93-93.93,93.93,93.93Zm-402,402h0L1178.28,1392l-220-220,176.45-176.45L952.94,813.74,820.88,945.81l90.87,90.87,43.9-43.9-47-47,44.26-44.26,93.93,93.93L914.33,1128l-191-191L861.14,799.16,723.3,661.33l191-191,132.54,132.55L952.94,706.77l-44.26-54.26,47-47-43.9-43.9-90.87,90.87L952.94,784.58l181.74-181.74L958.24,426.39l123.19-123.2h0l96.85-96.85,96.85,96.85h0l123.2,123.2L1221.89,602.84l181.74,181.74,132.06-132.07-90.87-90.88-43.9,43.91,47,47-44.25,44.26-93.93-93.93L1442.24,470.3l191,191L1495.43,799.16,1633.27,937l-191,191L1309.7,995.48l93.93-93.93,44.25,44.26-47,47,43.9,43.91,90.87-90.87L1403.63,813.74,1221.89,995.48l176.44,176.45Z"/></g></g><g class="cls-30"><g class="cls-28"><path class="cls-29" d="M-309.3,1479.79-168.54,1339h0L371.33,799.16-168.54,259.29h0L-309.3,118.53-989.93,799.16ZM-808.18,705.23l93.92,93.93-93.92,93.93-93.93-93.93ZM189.59,893.09,95.67,799.16l93.92-93.93,93.94,93.93Zm-402,402h0L-309.3,1392l-220-220,176.45-176.45L-534.64,813.74-666.7,945.81l90.87,90.87,43.9-43.9-47-47,44.25-44.26,93.93,93.93L-573.25,1128l-191-191,137.84-137.83L-764.28,661.33l191-191,132.54,132.55-93.93,103.93-44.25-54.26,47-47-43.9-43.9-90.87,90.87,132.06,132.07,181.75-181.74L-529.34,426.39l123.19-123.2h0l96.85-96.85,96.86,96.85h0l123.19,123.2L-265.69,602.84-83.95,784.58,48.11,652.51l-90.86-90.88-43.91,43.91,47,47-44.26,44.26-93.93-93.93L-45.34,470.3l191,191L7.86,799.16,145.69,937l-191,191L-177.88,995.48l93.93-93.93,44.26,44.26-47,47,43.91,43.91,90.86-90.87L-83.95,813.74-265.69,995.48l176.44,176.45Z"/></g></g></svg>