<svg id="Layer_1" data-name="Layer 1" xmlns="http://www.w3.org/2000/svg" viewBox="0 0 449.08 277.74"><defs><style>.cls-1,.cls-14{fill:#fff;}.cls-2{font-size:14px;}.cls-14,.cls-2{font-family:Montserrat-Bold, Montserrat;font-weight:700;}.cls-3{letter-spacing:-0.01em;}.cls-4{letter-spacing:0.04em;}.cls-5{letter-spacing:0em;}.cls-6{letter-spacing:-0.01em;}.cls-7{letter-spacing:0.01em;}.cls-8{letter-spacing:-0.01em;}.cls-9{letter-spacing:-0.02em;}.cls-10{letter-spacing:0em;}.cls-11{letter-spacing:-0.02em;}.cls-12{fill:#e2243c;}.cls-13{opacity:0.15;}.cls-14{font-size:43.92px;}.cls-15{letter-spacing:0.01em;}.cls-16{letter-spacing:-0.02em;}.cls-17{letter-spacing:-0.01em;}.cls-18{letter-spacing:0em;}.cls-19{letter-spacing:0.01em;}.cls-20,.cls-21,.cls-22,.cls-23{fill:none;stroke:#e2243c;stroke-linejoin:round;stroke-width:0.5px;}.cls-21{stroke-dasharray:9.99 9.99;}.cls-22{stroke-dasharray:10.15 10.15;}.cls-23{stroke-dasharray:12 12;}</style></defs><rect class="cls-1" width="449.08" height="277.74"/><text class="cls-2" transform="translate(79.14 32.52)">National H<tspan class="cls-3" x="77.22" y="0">e</tspan><tspan x="85.85" y="0">a</tspan><tspan class="cls-4" x="94.48" y="0">l</tspan><tspan class="cls-5" x="99.24" y="0">th Insu</tspan><tspan class="cls-6" x="150.29" y="0">r</tspan><tspan x="156.22" y="0">a</tspan><tspan class="cls-7" x="164.86" y="0">n</tspan><tspan class="cls-8" x="174.62" y="0">c</tspan><tspan x="182.8" y="0">e </tspan><tspan class="cls-9" x="195.59" y="0">C</tspan><tspan class="cls-3" x="205.59" y="0">ov</tspan><tspan class="cls-10" x="222.71" y="0">e</tspan><tspan class="cls-8" x="231.54" y="0">r</tspan><tspan class="cls-7" x="237.48" y="0">a</tspan><tspan x="246.2" y="0">ge (</tspan><tspan class="cls-11" x="273.79" y="0">%</tspan><tspan x="285.79" y="0">)</tspan></text><rect class="cls-12" x="27.68" y="52.54" width="95.93" height="95.93"/><g class="cls-13"><path class="cls-1" d="M118.73,143.6H32.56V57.42h86.17Zm-84.84-1.34H117.4V58.75H33.89Zm79.37-4.14H84.5v-22H63.18v15.13h10v-4.14H67.32v-6.85h13v17.85H55.21V120.94H38V95.8H55.88v13H49V103H44.9v10H60V91.66H38V62.9H66.79v22H88.12V69.76h-10V73.9H84v6.85h-13V62.9H96.08V80.08h17.18v25.14H95.41v-13h6.84V98h4.15V88H91.26v21.32h22Zm-27.43-1.33h26.1v-26.1h-22v-24h17.8V99.37h-6.81V93.51H96.74v10.38h15.19V81.41H94.75V64.23H72.27V79.42H82.64V75.23H76.79v-6.8H89.45V86.22h-24v-22H39.36v26.1h22v24H43.56V101.65h6.81v5.86h4.18V97.13H39.36v22.48H56.54v17.18H79V121.6H68.65v4.19H74.5v6.8H61.84V114.8h24Zm27.43-60.85h-13v-13h13ZM101.55,74.6h10.38V64.23H101.55ZM51.07,138.12H38v-13h13Zm-11.71-1.33H49.74V126.41H39.36Z"/><path class="cls-1" d="M108.82,133.68H88.64V113.5h20.18ZM90,132.35h17.52V114.83H90Z"/><path class="cls-1" d="M62.37,87.24H42.19V67.06H62.37ZM43.53,85.9H61V68.39H43.53Z"/></g><rect class="cls-12" x="123.61" y="52.54" width="95.93" height="95.93"/><g class="cls-13"><path class="cls-1" d="M214.66,143.6H128.49V57.42h86.17Zm-84.84-1.34h83.51V58.75H129.82Zm79.37-4.14H180.43v-22H159.11v15.13h10v-4.14h-5.85v-6.85h13v17.85H151.14V120.94H134V95.8h17.85v13H145V103h-4.14v10H156V91.66H134V62.9h28.76v22h21.33V69.76h-10V73.9h5.85v6.85h-13V62.9H192V80.08h17.18v25.14H191.34v-13h6.84V98h4.15V88H187.19v21.32h22Zm-27.43-1.33h26.1v-26.1h-22v-24h17.8V99.37h-6.81V93.51h-4.18v10.38h15.19V81.41H190.68V64.23H168.2V79.42h10.37V75.23h-5.85v-6.8h12.66V86.22h-24v-22h-26.1v26.1h22v24h-17.8V101.65h6.81v5.86h4.18V97.13H135.29v22.48h17.18v17.18H175V121.6H164.58v4.19h5.85v6.8H157.77V114.8h24Zm27.43-60.85h-13v-13h13ZM197.48,74.6h10.38V64.23H197.48ZM147,138.12H134v-13h13Zm-11.71-1.33h10.38V126.41H135.29Z"/><path class="cls-1" d="M204.75,133.68H184.57V113.5h20.18Zm-18.85-1.33h17.52V114.83H185.9Z"/><path class="cls-1" d="M158.3,87.24H138.12V67.06H158.3ZM139.46,85.9H157V68.39H139.46Z"/></g><text class="cls-14" transform="translate(42.36 113.33)">8<tspan class="cls-15" x="28.99" y="0">6</tspan><tspan x="57.41" y="0">.9</tspan><tspan class="cls-16" x="96.89" y="0">6</tspan><tspan x="123.99" y="0">%</tspan></text><rect class="cls-12" x="229.54" y="158.47" width="95.93" height="95.93"/><g class="cls-13"><path class="cls-1" d="M320.59,249.53H234.42V163.35h86.17Zm-84.84-1.34h83.51V164.68H235.75Zm79.37-4.14H286.36v-22H265v15.13h10v-4.14h-5.85V226.2h13v17.85H257.07V226.87H239.89V201.73h17.85v13H250.9v-5.86h-4.14v10h15.13V197.59h-22V168.83h28.76v22H290V175.69H280v4.14h5.85v6.85h-13V168.83h25.15V186h17.18v25.14H297.27v-13h6.84V204h4.15V194H293.12v21.32h22Zm-27.43-1.33h26.1v-26.1h-22v-24h17.8V205.3h-6.81v-5.86H298.6v10.38h15.19V187.34H296.61V170.16H274.13v15.19H284.5v-4.19h-5.85v-6.8h12.66v17.79h-24v-22h-26.1v26.1h22v24h-17.8V207.58h6.81v5.86h4.18V203.06H241.22v22.48H258.4v17.18h22.49V227.53H270.51v4.19h5.85v6.8H263.7V220.73h24Zm27.43-60.85h-13v-13h13Zm-11.71-1.34h10.38V170.16H303.41Zm-50.48,63.52h-13V231h13Zm-11.71-1.33H251.6V232.34H241.22Z"/><path class="cls-1" d="M310.68,239.61H290.5V219.43h20.18Zm-18.85-1.33h17.52V220.76H291.83Z"/><path class="cls-1" d="M264.23,193.17H244.05V173h20.18Zm-18.84-1.34H262.9V174.32H245.39Z"/></g><rect class="cls-12" x="325.47" y="158.47" width="95.93" height="95.93"/><g class="cls-13"><path class="cls-1" d="M416.52,249.53H330.35V163.35h86.17Zm-84.84-1.34h83.51V164.68H331.68Zm79.37-4.14H382.29v-22H361v15.13h10v-4.14h-5.85V226.2h13v17.85H353V226.87H335.82V201.73h17.85v13h-6.85v-5.86h-4.14v10h15.13V197.59h-22V168.83h28.76v22h21.33V175.69h-10v4.14h5.85v6.85h-13V168.83h25.15V186h17.18v25.14H393.2v-13H400V204h4.15V194H389.05v21.32h22Zm-27.43-1.33h26.1v-26.1h-22v-24h17.8V205.3h-6.81v-5.86h-4.18v10.38h15.19V187.34H392.54V170.16H370.06v15.19h10.37v-4.19h-5.85v-6.8h12.66v17.79h-24v-22h-26.1v26.1h22v24h-17.8V207.58h6.81v5.86h4.18V203.06H337.15v22.48h17.18v17.18h22.49V227.53H366.44v4.19h5.85v6.8H359.63V220.73h24Zm27.43-60.85H398v-13h13Zm-11.71-1.34h10.38V170.16H399.34Zm-50.48,63.52h-13V231h13Zm-11.71-1.33h10.38V232.34H337.15Z"/><path class="cls-1" d="M406.61,239.61H386.43V219.43h20.18Zm-18.85-1.33h17.52V220.76H387.76Z"/><path class="cls-1" d="M360.16,193.17H340V173h20.18Zm-18.84-1.34h17.51V174.32H341.32Z"/></g><text class="cls-14" transform="translate(244.5 219.26)">8<tspan class="cls-15" x="28.99" y="0">2</tspan><tspan class="cls-17" x="55.34" y="0">.</tspan><tspan class="cls-18" x="66.28" y="0">0</tspan><tspan class="cls-19" x="95.92" y="0">7</tspan><tspan x="123.42" y="0">%</tspan></text><path d="M279.06,86.34a2.8,2.8,0,0,1-1.14-1.07,3.12,3.12,0,0,1,0-3.09,2.8,2.8,0,0,1,1.14-1.07,3.46,3.46,0,0,1,1.65-.38,3.39,3.39,0,0,1,1.64.38,2.8,2.8,0,0,1,1.14,1.07,3.12,3.12,0,0,1,0,3.09,2.8,2.8,0,0,1-1.14,1.07,3.39,3.39,0,0,1-1.64.38A3.46,3.46,0,0,1,279.06,86.34Zm2.72-1.44a1.89,1.89,0,0,0,0-2.35,1.52,1.52,0,0,0-2.14,0,1.85,1.85,0,0,0,0,2.35,1.52,1.52,0,0,0,2.14,0Z"/><path d="M286.88,80.94h1.49v1.3h-1.45v4.4h-1.69v-4.4h-.89v-1.3h.89v-.26a2.14,2.14,0,0,1,.59-1.58,2.28,2.28,0,0,1,1.67-.58,3.38,3.38,0,0,1,.72.08,1.69,1.69,0,0,1,.56.23l-.44,1.23a1.14,1.14,0,0,0-.68-.21c-.51,0-.77.28-.77.84Z"/><path d="M292.4,79.06h1.75v7.58H292.4Z"/><path d="M301.12,81.38a2.57,2.57,0,0,1,.67,1.92v3.34H300.1V83.56a1.53,1.53,0,0,0-.31-1,1.09,1.09,0,0,0-.87-.34,1.35,1.35,0,0,0-1,.39,1.67,1.67,0,0,0-.38,1.18v2.88h-1.69V80.81h1.61v.69a2.24,2.24,0,0,1,.84-.57,2.75,2.75,0,0,1,1.09-.2A2.37,2.37,0,0,1,301.12,81.38Z"/><path d="M309.31,78.61v8h-1.62V86a2.21,2.21,0,0,1-1.81.75,3.07,3.07,0,0,1-1.49-.36,2.72,2.72,0,0,1-1.05-1,3.5,3.5,0,0,1,0-3.17,2.72,2.72,0,0,1,1.05-1,3.07,3.07,0,0,1,1.49-.36,2.21,2.21,0,0,1,1.74.7V78.61Zm-2.08,6.29a1.85,1.85,0,0,0,0-2.35,1.51,1.51,0,0,0-2.13,0,1.82,1.82,0,0,0,0,2.35,1.51,1.51,0,0,0,2.13,0Z"/><path d="M312,86.34a2.9,2.9,0,0,1-1.15-1.07,3.12,3.12,0,0,1,0-3.09A2.9,2.9,0,0,1,312,81.11a3.75,3.75,0,0,1,3.29,0,2.87,2.87,0,0,1,1.14,1.07,3.12,3.12,0,0,1,0,3.09,2.87,2.87,0,0,1-1.14,1.07,3.75,3.75,0,0,1-3.29,0Zm2.71-1.44a1.85,1.85,0,0,0,0-2.35,1.39,1.39,0,0,0-1.06-.44,1.42,1.42,0,0,0-1.07.44,1.82,1.82,0,0,0,0,2.35,1.42,1.42,0,0,0,1.07.44A1.39,1.39,0,0,0,314.7,84.9Z"/><path d="M323.24,81.38a2.53,2.53,0,0,1,.67,1.92v3.34h-1.69V83.56a1.53,1.53,0,0,0-.3-1,1.11,1.11,0,0,0-.88-.34,1.38,1.38,0,0,0-1,.39,1.67,1.67,0,0,0-.37,1.18v2.88H318V80.81h1.61v.69a2.13,2.13,0,0,1,.83-.57,2.8,2.8,0,0,1,1.1-.2A2.35,2.35,0,0,1,323.24,81.38Z"/><path d="M331.17,84.2h-4.4a1.37,1.37,0,0,0,.56.86,1.85,1.85,0,0,0,1.1.31,2,2,0,0,0,.81-.14,2,2,0,0,0,.66-.42l.89,1a3,3,0,0,1-2.4.94,3.72,3.72,0,0,1-1.74-.38,2.76,2.76,0,0,1-1.17-1.07,3.15,3.15,0,0,1,0-3.09,2.88,2.88,0,0,1,1.12-1.07,3.21,3.21,0,0,1,1.58-.38,3.31,3.31,0,0,1,1.55.36,2.71,2.71,0,0,1,1.09,1.06,3.19,3.19,0,0,1,.4,1.6S331.19,83.92,331.17,84.2Zm-3.95-1.87a1.34,1.34,0,0,0-.47.89h2.86a1.37,1.37,0,0,0-.47-.89,1.43,1.43,0,0,0-.95-.33A1.44,1.44,0,0,0,327.22,82.33Z"/><path d="M332.87,86.55a3.68,3.68,0,0,1-1.1-.45l.56-1.22a3.7,3.7,0,0,0,.94.41,4.17,4.17,0,0,0,1.09.16c.71,0,1.07-.18,1.07-.53a.38.38,0,0,0-.29-.36,5.39,5.39,0,0,0-.9-.19,9,9,0,0,1-1.18-.24,1.9,1.9,0,0,1-.81-.5,1.41,1.41,0,0,1-.34-1,1.62,1.62,0,0,1,.32-1,2.08,2.08,0,0,1,.93-.67,4.18,4.18,0,0,1,1.44-.23,5.58,5.58,0,0,1,1.23.13,3.45,3.45,0,0,1,1,.38l-.57,1.2A3.34,3.34,0,0,0,334.6,82a1.59,1.59,0,0,0-.81.16.44.44,0,0,0-.27.39.38.38,0,0,0,.29.37,5,5,0,0,0,.94.21,10.19,10.19,0,0,1,1.16.25,1.7,1.7,0,0,1,.79.5,1.37,1.37,0,0,1,.34,1,1.61,1.61,0,0,1-.32,1,2.09,2.09,0,0,1-1,.65,4.15,4.15,0,0,1-1.48.23A6.13,6.13,0,0,1,332.87,86.55Z"/><path d="M338.17,79.73a.9.9,0,0,1,0-1.34,1,1,0,0,1,.75-.27,1.06,1.06,0,0,1,.76.26A.81.81,0,0,1,340,79a.91.91,0,0,1-.29.7,1.07,1.07,0,0,1-.76.27A1,1,0,0,1,338.17,79.73Zm-.09,1.08h1.69v5.83h-1.69Z"/><path d="M345.76,81.37a2.45,2.45,0,0,1,.73,1.94v3.33h-1.58v-.73a1.89,1.89,0,0,1-1.78.81A2.79,2.79,0,0,1,342,86.5a1.74,1.74,0,0,1-.75-.63A1.67,1.67,0,0,1,341,85a1.52,1.52,0,0,1,.61-1.28,3.13,3.13,0,0,1,1.89-.46h1.34a1.09,1.09,0,0,0-.33-.85,1.49,1.49,0,0,0-1-.3,2.91,2.91,0,0,0-.92.15,2.18,2.18,0,0,0-.76.39l-.6-1.18a3.53,3.53,0,0,1,1.14-.52,5.2,5.2,0,0,1,1.37-.18A3,3,0,0,1,345.76,81.37Zm-1.43,4a1.11,1.11,0,0,0,.47-.59v-.6h-1.16c-.69,0-1,.23-1,.68a.62.62,0,0,0,.26.52,1.19,1.19,0,0,0,.7.19A1.52,1.52,0,0,0,344.33,85.39Z"/><path d="M349.37,78.81a1,1,0,0,1,.29.75,2.1,2.1,0,0,1-.05.43,5.36,5.36,0,0,1-.23.65l-.63,1.56h-1.07l.47-1.71a1,1,0,0,1-.43-.36,1.05,1.05,0,0,1-.15-.57,1,1,0,0,1,.3-.75,1,1,0,0,1,.75-.29A1,1,0,0,1,349.37,78.81Z"/><path d="M351.16,86.55a3.76,3.76,0,0,1-1.11-.45l.56-1.22a3.62,3.62,0,0,0,.95.41,4.09,4.09,0,0,0,1.08.16c.71,0,1.07-.18,1.07-.53a.38.38,0,0,0-.29-.36,5.39,5.39,0,0,0-.9-.19,9,9,0,0,1-1.18-.24,1.9,1.9,0,0,1-.81-.5,1.46,1.46,0,0,1-.34-1,1.62,1.62,0,0,1,.32-1,2.08,2.08,0,0,1,.93-.67,4.2,4.2,0,0,1,1.45-.23,5.71,5.71,0,0,1,1.23.13,3.49,3.49,0,0,1,1,.38l-.56,1.2a3.4,3.4,0,0,0-1.68-.44,1.59,1.59,0,0,0-.81.16.44.44,0,0,0-.27.39.37.37,0,0,0,.29.37,4.69,4.69,0,0,0,.93.21,11,11,0,0,1,1.17.25,1.8,1.8,0,0,1,.79.5,1.41,1.41,0,0,1,.33,1,1.55,1.55,0,0,1-.32,1,2,2,0,0,1-.95.65,4.11,4.11,0,0,1-1.48.23A6,6,0,0,1,351.16,86.55Z"/><path d="M364.57,79.4a2.5,2.5,0,0,1,1.14.95,2.8,2.8,0,0,1,0,2.92,2.5,2.5,0,0,1-1.14,1,4.24,4.24,0,0,1-1.75.33H361.3v2.09h-1.76V79.06h3.28A4.08,4.08,0,0,1,364.57,79.4Zm-.64,3.38a1.36,1.36,0,0,0,0-2,1.84,1.84,0,0,0-1.2-.34H361.3v2.63h1.43A1.84,1.84,0,0,0,363.93,82.78Z"/><path d="M368.35,86.34a2.8,2.8,0,0,1-1.14-1.07,3.12,3.12,0,0,1,0-3.09,2.8,2.8,0,0,1,1.14-1.07,3.77,3.77,0,0,1,3.3,0,2.84,2.84,0,0,1,1.13,1.07,3.12,3.12,0,0,1,0,3.09,2.84,2.84,0,0,1-1.13,1.07,3.77,3.77,0,0,1-3.3,0Zm2.72-1.44a1.89,1.89,0,0,0,0-2.35,1.52,1.52,0,0,0-2.14,0,1.85,1.85,0,0,0,0,2.35,1.52,1.52,0,0,0,2.14,0Z"/><path d="M379.24,81.1a2.69,2.69,0,0,1,1,1.05,3.45,3.45,0,0,1,0,3.15,2.69,2.69,0,0,1-1,1,3,3,0,0,1-1.48.37A2.23,2.23,0,0,1,376,86v2.72h-1.69V80.81h1.61v.67a2.26,2.26,0,0,1,1.83-.75A3,3,0,0,1,379.24,81.1Zm-.7,3.8a1.89,1.89,0,0,0,0-2.35,1.52,1.52,0,0,0-2.14,0,1.89,1.89,0,0,0,0,2.35,1.52,1.52,0,0,0,2.14,0Z"/><path d="M387.66,80.81v5.83h-1.61v-.7a2.09,2.09,0,0,1-.8.58,2.38,2.38,0,0,1-1,.2,2.48,2.48,0,0,1-1.82-.66,2.62,2.62,0,0,1-.67-2V80.81h1.69v3c0,.93.39,1.4,1.18,1.4a1.28,1.28,0,0,0,1-.39,1.72,1.72,0,0,0,.37-1.18V80.81Z"/><path d="M389.23,78.61h1.68v8h-1.68Z"/><path d="M396.91,81.37a2.48,2.48,0,0,1,.73,1.94v3.33h-1.58v-.73a1.89,1.89,0,0,1-1.78.81,2.76,2.76,0,0,1-1.16-.22,1.83,1.83,0,0,1-.76-.63,1.67,1.67,0,0,1-.26-.91,1.52,1.52,0,0,1,.62-1.28,3.09,3.09,0,0,1,1.89-.46H396a1.06,1.06,0,0,0-.34-.85,1.46,1.46,0,0,0-1-.3,2.86,2.86,0,0,0-.92.15,2.18,2.18,0,0,0-.76.39l-.61-1.18a3.74,3.74,0,0,1,1.14-.52,5.26,5.26,0,0,1,1.37-.18A3,3,0,0,1,396.91,81.37Zm-1.44,4a1.13,1.13,0,0,0,.48-.59v-.6h-1.16c-.69,0-1,.23-1,.68a.64.64,0,0,0,.25.52,1.21,1.21,0,0,0,.7.19A1.5,1.5,0,0,0,395.47,85.39Z"/><path d="M402.92,86.36a1.8,1.8,0,0,1-.61.27,3.19,3.19,0,0,1-.77.09,2.23,2.23,0,0,1-1.6-.53,2,2,0,0,1-.57-1.56V82.24h-.9v-1.3h.9V79.53h1.69v1.41h1.45v1.3h-1.45v2.37a.77.77,0,0,0,.19.57.69.69,0,0,0,.53.2,1,1,0,0,0,.68-.22Z"/><path d="M404,79.73a.92.92,0,0,1,0-1.34,1.07,1.07,0,0,1,.76-.27,1,1,0,0,1,.75.26.82.82,0,0,1,.3.65.92.92,0,0,1-.3.7,1,1,0,0,1-.75.27A1.07,1.07,0,0,1,404,79.73Zm-.09,1.08h1.69v5.83h-1.69Z"/><path d="M408.25,86.34a2.8,2.8,0,0,1-1.14-1.07,3.12,3.12,0,0,1,0-3.09,2.8,2.8,0,0,1,1.14-1.07,3.77,3.77,0,0,1,3.3,0,2.84,2.84,0,0,1,1.13,1.07,3.12,3.12,0,0,1,0,3.09,2.84,2.84,0,0,1-1.13,1.07,3.77,3.77,0,0,1-3.3,0ZM411,84.9a1.89,1.89,0,0,0,0-2.35,1.52,1.52,0,0,0-2.14,0,1.85,1.85,0,0,0,0,2.35,1.52,1.52,0,0,0,2.14,0Z"/><path d="M419.51,81.38a2.57,2.57,0,0,1,.66,1.92v3.34h-1.69V83.56a1.53,1.53,0,0,0-.3-1,1.1,1.1,0,0,0-.88-.34,1.34,1.34,0,0,0-1,.39,1.63,1.63,0,0,0-.38,1.18v2.88h-1.69V80.81h1.61v.69a2.16,2.16,0,0,1,.84-.57,2.75,2.75,0,0,1,1.09-.2A2.39,2.39,0,0,1,419.51,81.38Z"/><path d="M278.64,98.48a3.59,3.59,0,0,1,0-5.23,4.16,4.16,0,0,1,3-1.06,4.29,4.29,0,0,1,2.95,1,3.25,3.25,0,0,1,1.14,2.53,3.6,3.6,0,0,1-1.14,2.73,4.15,4.15,0,0,1-2.95,1.07A4.2,4.2,0,0,1,278.64,98.48Zm-.33,4.21h6.58v22.7h-6.58Z"/><path d="M311.61,104.89q2.59,2.53,2.6,7.51v13h-6.59v-12a5.91,5.91,0,0,0-1.18-4,4.33,4.33,0,0,0-3.41-1.33,5.26,5.26,0,0,0-4,1.54,6.42,6.42,0,0,0-1.48,4.58v11.22H291v-22.7h6.29v2.66a8.73,8.73,0,0,1,3.25-2.21,11.29,11.29,0,0,1,4.26-.78A9.33,9.33,0,0,1,311.61,104.89Z"/><path d="M352.76,119.82v5.57H330.45V121l11.39-10.76a12.15,12.15,0,0,0,2.44-3,5.42,5.42,0,0,0,.63-2.47,3.27,3.27,0,0,0-1.2-2.72,5.59,5.59,0,0,0-3.52-1,8.12,8.12,0,0,0-3.5.74,6.62,6.62,0,0,0-2.61,2.22l-5-3.21a11.64,11.64,0,0,1,4.76-4,16,16,0,0,1,7-1.45,14.23,14.23,0,0,1,5.76,1.07,8.84,8.84,0,0,1,3.84,3,7.9,7.9,0,0,1,1.37,4.62,10.23,10.23,0,0,1-1,4.51,17.22,17.22,0,0,1-3.92,4.81l-6.8,6.41Z"/><path d="M361.62,124.08a12.12,12.12,0,0,1-4.49-5.25,21.47,21.47,0,0,1,0-16.41,12.18,12.18,0,0,1,4.49-5.25,12.72,12.72,0,0,1,13.08,0,12.18,12.18,0,0,1,4.49,5.25,21.47,21.47,0,0,1,0,16.41,12.12,12.12,0,0,1-4.49,5.25,12.66,12.66,0,0,1-13.08,0Zm10.78-6.28q1.55-2.33,1.54-7.17t-1.54-7.17a5,5,0,0,0-8.44,0q-1.54,2.31-1.54,7.17T364,117.8a5,5,0,0,0,8.44,0Z"/><path d="M406,119.82v5.57H383.64V121L395,110.2a12.23,12.23,0,0,0,2.45-3,5.42,5.42,0,0,0,.63-2.47,3.27,3.27,0,0,0-1.2-2.72,5.61,5.61,0,0,0-3.52-1,8.14,8.14,0,0,0-3.51.74,6.62,6.62,0,0,0-2.61,2.22l-5-3.21a11.6,11.6,0,0,1,4.77-4,15.89,15.89,0,0,1,7-1.45,14.3,14.3,0,0,1,5.76,1.07,8.86,8.86,0,0,1,3.83,3,7.83,7.83,0,0,1,1.38,4.62,10.24,10.24,0,0,1-1,4.51,17.22,17.22,0,0,1-3.92,4.81l-6.79,6.41Z"/><path d="M420.17,95.86v29.53h-6.83v-24h-5.91V95.86Z"/><polyline class="cls-20" points="223.54 146.19 223.54 151.19 218.54 151.19"/><line class="cls-21" x1="208.55" y1="151.19" x2="33.67" y2="151.19"/><polyline class="cls-20" points="28.68 151.19 23.68 151.19 23.68 146.19"/><line class="cls-22" x1="23.68" y1="136.04" x2="23.68" y2="59.9"/><polyline class="cls-20" points="23.68 54.83 23.68 49.83 28.68 49.83"/><line class="cls-21" x1="38.67" y1="49.83" x2="213.55" y2="49.83"/><polyline class="cls-20" points="218.54 49.83 223.54 49.83 223.54 54.83"/><line class="cls-22" x1="223.54" y1="64.98" x2="223.54" y2="141.11"/><line class="cls-23" x1="223.54" y1="135.8" x2="418.61" y2="135.8"/><rect class="cls-12" x="416.87" y="134.15" width="3.3" height="3.3"/><polyline class="cls-20" points="225.54 252.12 225.54 257.12 230.54 257.12"/><line class="cls-21" x1="240.53" y1="257.12" x2="415.41" y2="257.12"/><polyline class="cls-20" points="420.4 257.12 425.4 257.12 425.4 252.12"/><line class="cls-22" x1="425.4" y1="241.97" x2="425.4" y2="165.83"/><polyline class="cls-20" points="425.4 160.76 425.4 155.76 420.4 155.76"/><line class="cls-21" x1="410.41" y1="155.76" x2="235.53" y2="155.76"/><polyline class="cls-20" points="230.54 155.76 225.54 155.76 225.54 160.76"/><line class="cls-22" x1="225.54" y1="170.91" x2="225.54" y2="247.04"/><line class="cls-23" x1="225.78" y1="241.73" x2="29.25" y2="241.73"/><rect class="cls-12" x="27.68" y="240.08" width="3.3" height="3.3"/><path d="M30.69,186.82v6.23H29v-.74a2.43,2.43,0,0,1-.86.62,2.72,2.72,0,0,1-1.07.21,2.63,2.63,0,0,1-1.95-.71,2.8,2.8,0,0,1-.72-2.09v-3.52h1.81v3.25c0,1,.42,1.51,1.26,1.51a1.33,1.33,0,0,0,1-.43,1.74,1.74,0,0,0,.4-1.25v-3.08Z"/><path d="M37.63,187.12a2.9,2.9,0,0,1,1.12,1.13,3.37,3.37,0,0,1,.4,1.68,3.41,3.41,0,0,1-.4,1.69,2.94,2.94,0,0,1-1.12,1.12,3.15,3.15,0,0,1-1.58.4,2.42,2.42,0,0,1-1.88-.75v2.9H32.36v-8.47h1.73v.71a2.4,2.4,0,0,1,2-.81A3.25,3.25,0,0,1,37.63,187.12Zm-.75,4.07a1.77,1.77,0,0,0,.44-1.26,1.81,1.81,0,0,0-.44-1.26,1.66,1.66,0,0,0-2.29,0,1.81,1.81,0,0,0-.44,1.26,1.77,1.77,0,0,0,.44,1.26,1.63,1.63,0,0,0,2.29,0Z"/><path d="M45.62,187h1.59v1.38H45.66v4.71H43.85v-4.71h-1V187h1v-.28a2.27,2.27,0,0,1,.64-1.69,2.39,2.39,0,0,1,1.77-.63,3.19,3.19,0,0,1,.77.09,1.81,1.81,0,0,1,.61.25L47.17,186a1.22,1.22,0,0,0-.73-.23c-.55,0-.82.31-.82.91Z"/><path d="M51.64,187a3.16,3.16,0,0,1,1.27-.24v1.67l-.4,0a1.65,1.65,0,0,0-1.22.43,1.79,1.79,0,0,0-.44,1.31v2.94H49v-6.23h1.73v.82A2,2,0,0,1,51.64,187Z"/><path d="M55.13,192.73a3.12,3.12,0,0,1-1.22-1.14,3.19,3.19,0,0,1-.44-1.66,3.13,3.13,0,0,1,.44-1.65,3.07,3.07,0,0,1,1.22-1.15,4,4,0,0,1,3.53,0,3.11,3.11,0,0,1,1.65,2.8,3.08,3.08,0,0,1-1.65,2.8,4,4,0,0,1-3.53,0ZM58,191.19a1.73,1.73,0,0,0,.44-1.26,1.76,1.76,0,0,0-.44-1.26,1.66,1.66,0,0,0-2.29,0,1.77,1.77,0,0,0-.45,1.26,1.74,1.74,0,0,0,.45,1.26,1.63,1.63,0,0,0,2.29,0Z"/><path d="M71.36,187.41a2.81,2.81,0,0,1,.69,2.07v3.57H70.24v-3.29a1.67,1.67,0,0,0-.31-1.11,1.07,1.07,0,0,0-.87-.36,1.28,1.28,0,0,0-1,.41,1.75,1.75,0,0,0-.37,1.22v3.13H65.87v-3.29c0-1-.39-1.47-1.18-1.47a1.24,1.24,0,0,0-1,.41,1.75,1.75,0,0,0-.37,1.22v3.13H61.52v-6.23h1.73v.71a2.26,2.26,0,0,1,.85-.6,2.94,2.94,0,0,1,2.3,0,2.15,2.15,0,0,1,.85.76,2.67,2.67,0,0,1,1-.75,3,3,0,0,1,1.28-.27A2.51,2.51,0,0,1,71.36,187.41Z"/><path d="M49.55,226.19v5.45H27.7v-4.33l11.15-10.54a12.21,12.21,0,0,0,2.4-2.91,5.35,5.35,0,0,0,.61-2.42,3.19,3.19,0,0,0-1.17-2.66,5.5,5.5,0,0,0-3.45-.93,8,8,0,0,0-3.43.72,6.59,6.59,0,0,0-2.56,2.17l-4.88-3.14A11.55,11.55,0,0,1,31,203.65a15.6,15.6,0,0,1,6.82-1.42,14.12,14.12,0,0,1,5.64,1.05,8.73,8.73,0,0,1,3.76,3,7.71,7.71,0,0,1,1.34,4.52,10.1,10.1,0,0,1-1,4.42,16.91,16.91,0,0,1-3.84,4.71l-6.66,6.28Z"/><path d="M58.22,230.36a11.93,11.93,0,0,1-4.4-5.14,21.1,21.1,0,0,1,0-16.07,12,12,0,0,1,4.4-5.15A12.47,12.47,0,0,1,71,204a12,12,0,0,1,4.4,5.15,21.1,21.1,0,0,1,0,16.07,11.93,11.93,0,0,1-4.4,5.14,12.41,12.41,0,0,1-12.81,0Zm10.56-6.15c1-1.52,1.51-3.86,1.51-7s-.51-5.5-1.51-7a4.74,4.74,0,0,0-4.15-2.27,4.69,4.69,0,0,0-4.11,2.27q-1.52,2.28-1.51,7t1.51,7a4.69,4.69,0,0,0,4.11,2.27A4.74,4.74,0,0,0,68.78,224.21Z"/><path d="M101.64,226.19v5.45H79.79v-4.33l11.15-10.54a11.73,11.73,0,0,0,2.4-2.91,5.37,5.37,0,0,0,.62-2.42,3.17,3.17,0,0,0-1.18-2.66,5.48,5.48,0,0,0-3.45-.93,8,8,0,0,0-3.43.72,6.59,6.59,0,0,0-2.56,2.17l-4.87-3.14a11.49,11.49,0,0,1,4.67-3.95A15.56,15.56,0,0,1,90,202.23a14,14,0,0,1,5.64,1.05,8.67,8.67,0,0,1,3.76,3,7.71,7.71,0,0,1,1.34,4.52,10.1,10.1,0,0,1-1,4.42,16.91,16.91,0,0,1-3.84,4.71l-6.65,6.28Z"/><path d="M110.32,230.36a11.86,11.86,0,0,1-4.4-5.14,21.1,21.1,0,0,1,0-16.07,12,12,0,0,1,4.4-5.15,12.46,12.46,0,0,1,12.8,0,12,12,0,0,1,4.4,5.15,21.1,21.1,0,0,1,0,16.07,11.93,11.93,0,0,1-4.4,5.14,12.4,12.4,0,0,1-12.8,0Zm10.55-6.15q1.51-2.28,1.51-7t-1.51-7a4.89,4.89,0,0,0-8.26,0q-1.52,2.28-1.51,7t1.51,7a4.89,4.89,0,0,0,8.26,0Z"/><path d="M139.07,201.76a3.83,3.83,0,0,1,1.12,2.87,6.67,6.67,0,0,1-.21,1.65,21.42,21.42,0,0,1-.87,2.47l-2.4,6h-4.08l1.77-6.53a3.6,3.6,0,0,1-1.61-1.37,3.92,3.92,0,0,1-.58-2.18,3.77,3.77,0,0,1,1.14-2.87,4,4,0,0,1,2.87-1.1A3.89,3.89,0,0,1,139.07,201.76Z"/><path d="M145.89,231.29a14.25,14.25,0,0,1-4.22-1.71l2.15-4.63a13.6,13.6,0,0,0,3.6,1.55,15,15,0,0,0,4.13.6c2.72,0,4.09-.67,4.09-2a1.43,1.43,0,0,0-1.12-1.36,16.72,16.72,0,0,0-3.43-.7,33.21,33.21,0,0,1-4.5-.95,7,7,0,0,1-3.08-1.9,5.43,5.43,0,0,1-1.3-3.88,6,6,0,0,1,1.22-3.74A7.79,7.79,0,0,1,147,210a15.09,15.09,0,0,1,5.52-.91,21.94,21.94,0,0,1,4.69.51,13.21,13.21,0,0,1,3.86,1.43l-2.15,4.58a12.85,12.85,0,0,0-6.4-1.65,6.46,6.46,0,0,0-3.1.58,1.71,1.71,0,0,0-1,1.49,1.47,1.47,0,0,0,1.12,1.44,19.43,19.43,0,0,0,3.55.79,35.94,35.94,0,0,1,4.46,1,6.63,6.63,0,0,1,3,1.88,5.34,5.34,0,0,1,1.28,3.8,5.86,5.86,0,0,1-1.24,3.68,7.88,7.88,0,0,1-3.61,2.49,16,16,0,0,1-5.64.89A21.28,21.28,0,0,1,145.89,231.29Z"/></svg>