<svg id="Layer_1" data-name="Layer 1" xmlns="http://www.w3.org/2000/svg" xmlns:xlink="http://www.w3.org/1999/xlink" viewBox="0 0 504.01 277.74"><defs><style>.cls-1,.cls-41{fill:none;}.cls-2{fill:#fff;}.cls-3{opacity:0.2;}.cls-4{fill:#017db9;}.cls-5{font-size:9px;font-family:Roboto-Regular, Roboto;}.cls-6{fill:#ed4328;}.cls-7{letter-spacing:-0.01em;}.cls-8{fill:#41ac49;}.cls-9{letter-spacing:-0.01em;}.cls-10{letter-spacing:-0.01em;}.cls-11{letter-spacing:-0.06em;}.cls-12{letter-spacing:-0.01em;}.cls-13{font-size:14px;}.cls-13,.cls-31,.cls-32{font-family:Montserrat-Bold, Montserrat;font-weight:700;}.cls-14{letter-spacing:-0.01em;}.cls-15{letter-spacing:0.01em;}.cls-16{letter-spacing:0em;}.cls-17{letter-spacing:0em;}.cls-18{letter-spacing:-0.01em;}.cls-19{letter-spacing:-0.01em;}.cls-20{letter-spacing:-0.01em;}.cls-21{letter-spacing:0em;}.cls-22{letter-spacing:-0.01em;}.cls-23{letter-spacing:-0.01em;}.cls-24{letter-spacing:0.01em;}.cls-25{letter-spacing:0.01em;}.cls-26{letter-spacing:-0.02em;}.cls-27{letter-spacing:-0.01em;}.cls-28{letter-spacing:0em;}.cls-29{letter-spacing:-0.01em;}.cls-30{letter-spacing:-0.02em;}.cls-31,.cls-32{font-size:8px;}.cls-32{letter-spacing:0em;}.cls-33{letter-spacing:0.01em;}.cls-34{letter-spacing:0em;}.cls-35{letter-spacing:0em;}.cls-36{letter-spacing:-0.01em;}.cls-37{letter-spacing:-0.01em;}.cls-38{letter-spacing:-0.02em;}.cls-39{clip-path:url(#clip-path);}.cls-40{opacity:0.07;}.cls-41{stroke:#2681d6;stroke-miterlimit:10;stroke-width:2.59px;}</style><clipPath id="clip-path"><rect class="cls-1" x="-1079.78" y="297.34" width="1467.58" height="1033.63"/></clipPath></defs><rect class="cls-2" width="504.01" height="277.74"/><g class="cls-3"><rect x="21.17" y="78.5" width="461.66" height="0.5"/></g><g class="cls-3"><rect x="21.17" y="105.5" width="461.66" height="0.5"/></g><g class="cls-3"><rect x="21.17" y="131.5" width="461.66" height="0.5"/></g><g class="cls-3"><rect x="21.17" y="158.24" width="461.66" height="0.5"/></g><g class="cls-3"><rect x="21.17" y="184.88" width="461.66" height="0.5"/></g><g class="cls-3"><rect x="21.17" y="211.5" width="461.66" height="0.5"/></g><path class="cls-4" d="M109.43,242l1.13-1.13h0l4.33-4.33-4.33-4.34h0L109.43,231,104,236.49Zm-4-6.22.75.76-.75.75-.76-.75Zm8,1.51-.75-.75.75-.76.76.76Zm-3.22,3.23h0l-.78.77-1.76-1.76,1.41-1.42-1.46-1.46-1.06,1.06.73.73.35-.35-.37-.38.35-.35.76.75-1.07,1.07-1.53-1.54,1.11-1.1-1.11-1.11,1.53-1.53,1.07,1.06-.76.76-.35-.36.37-.38-.35-.35-.73.73,1.06,1.06,1.46-1.46-1.41-1.41,1-1h0l.78-.78.78.78h0l1,1-1.42,1.41,1.46,1.46,1.06-1.06-.73-.73-.35.35.37.38-.35.36-.75-.76,1.06-1.06,1.53,1.53-1.1,1.11,1.1,1.1-1.53,1.54-1.06-1.07.75-.75.35.35-.37.38.35.35.73-.73-1.06-1.06-1.46,1.46,1.42,1.42Z"/><rect class="cls-4" x="108.57" y="238.6" width="1.72" height="1.72" transform="translate(356.13 331.4) rotate(135)"/><rect class="cls-4" x="108.57" y="232.62" width="1.72" height="1.72" transform="translate(351.91 321.19) rotate(135)"/><text class="cls-5" transform="translate(120.66 239.04)">PLHIV who know their status</text><path class="cls-6" d="M254.48,242l1.13-1.13h0l4.33-4.33-4.33-4.34h0L254.48,231,249,236.49Zm-4-6.22.75.76-.75.75-.76-.75Zm8,1.51-.75-.75.75-.76.76.76Zm-3.22,3.23h0l-.78.77-1.77-1.76,1.42-1.42-1.46-1.46-1.06,1.06.73.73.35-.35-.37-.38.35-.35.75.75-1.06,1.07-1.53-1.54,1.1-1.1-1.1-1.11,1.53-1.53,1.06,1.06-.75.76-.35-.36.37-.38-.35-.35-.73.73,1.06,1.06,1.46-1.46-1.42-1.41,1-1h0l.78-.78.78.78h0l1,1-1.41,1.41,1.46,1.46,1.06-1.06-.73-.73-.35.35.37.38-.35.36-.76-.76,1.07-1.06,1.53,1.53L257,236.49l1.11,1.1-1.53,1.54-1.07-1.07.76-.75.35.35-.37.38.35.35.73-.73-1.06-1.06-1.46,1.46,1.41,1.42Z"/><rect class="cls-6" x="253.62" y="238.6" width="1.72" height="1.72" transform="translate(603.75 228.84) rotate(135)"/><rect class="cls-6" x="253.62" y="232.62" width="1.72" height="1.72" transform="translate(599.52 218.63) rotate(135)"/><text class="cls-5" transform="translate(265.71 239.04)">PLHIV who access the t<tspan class="cls-7" x="95.61" y="0">r</tspan><tspan x="98.68" y="0">eatment</tspan></text><path class="cls-8" d="M167.25,259.87l1.13-1.13h0l4.33-4.33-4.33-4.33h0L167.25,249l-5.46,5.46Zm-4-6.21.75.75-.75.75-.76-.75Zm8,1.5-.75-.75.75-.75.76.75ZM168,258.39h0l-.78.78-1.77-1.77L166.9,256l-1.46-1.46-1.06,1.06.73.73.35-.36-.37-.37.35-.36.76.76-1.07,1.06-1.53-1.53,1.11-1.11-1.11-1.11,1.53-1.53,1.07,1.07-.76.75-.35-.36.37-.37-.35-.36-.73.73,1.06,1.06,1.46-1.45-1.42-1.42,1-1h0l.78-.78.78.78h0l1,1-1.42,1.42,1.46,1.45,1.06-1.06-.73-.73-.35.36.37.37-.35.36-.75-.75,1.06-1.07,1.53,1.53-1.1,1.11,1.1,1.11-1.53,1.53L168.31,256l.75-.76.35.36L169,256l.35.36.73-.73-1.06-1.06L167.6,256,169,257.4Z"/><rect class="cls-8" x="166.39" y="256.53" width="1.72" height="1.72" transform="translate(467.51 321.12) rotate(135)"/><rect class="cls-8" x="166.39" y="250.54" width="1.72" height="1.72" transform="translate(463.28 310.91) rotate(135)"/><text class="cls-5" transform="translate(178.48 256.96)">PLHIV who h<tspan class="cls-9" x="51.87" y="0">a</tspan><tspan class="cls-10" x="56.75" y="0">v</tspan><tspan x="61.22" y="0">e a supp</tspan><tspan class="cls-7" x="95.41" y="0">r</tspan><tspan x="98.47" y="0">essed viral load</tspan></text><text class="cls-5" transform="translate(181.66 224.04)">2020</text><rect class="cls-4" x="383.74" y="87.59" width="23.46" height="124.17"/><rect class="cls-6" x="414.6" y="95.53" width="23.46" height="116.22"/><rect class="cls-8" x="445.32" y="101.53" width="23.46" height="110.22"/><text class="cls-5" transform="translate(300.36 224.04)">2021</text><text class="cls-5" transform="translate(399.13 224.04)"><tspan class="cls-11">T</tspan><tspan x="4.89" y="0">a</tspan><tspan class="cls-12" x="9.83" y="0">r</tspan><tspan x="12.9" y="0">get (2025)</tspan></text><text class="cls-5" transform="translate(73.28 224.04)">2019</text><text class="cls-13" transform="translate(29.53 29.77)"><tspan class="cls-14">P</tspan><tspan x="10.09" y="0">eople Livi</tspan><tspan class="cls-15" x="80.02" y="0">n</tspan><tspan x="89.78" y="0">g </tspan><tspan class="cls-16" x="103.54" y="0">W</tspan><tspan x="119.75" y="0">ith H</tspan><tspan class="cls-17" x="155.01" y="0">I</tspan><tspan x="159.54" y="0">V in I</tspan><tspan class="cls-15" x="196.39" y="0">n</tspan><tspan x="206.15" y="0">do</tspan><tspan class="cls-15" x="225.01" y="0">n</tspan><tspan x="234.76" y="0">esia W</tspan><tspan class="cls-15" x="284.13" y="0">h</tspan><tspan x="293.88" y="0">o </tspan><tspan class="cls-18" x="307.02" y="0">K</tspan><tspan class="cls-15" x="317.24" y="0">n</tspan><tspan class="cls-19" x="326.99" y="0">o</tspan><tspan x="335.95" y="0">w T</tspan><tspan class="cls-15" x="361.69" y="0">h</tspan><tspan x="371.44" y="0">eir Status,</tspan><tspan x="-10.12" y="16.8">a</tspan><tspan class="cls-20" x="-1.48" y="16.8">r</tspan><tspan x="4.42" y="16.8">e </tspan><tspan class="cls-21" x="17.22" y="16.8">A</tspan><tspan class="cls-22" x="27.87" y="16.8">cc</tspan><tspan x="44.23" y="16.8">essi</tspan><tspan class="cls-15" x="72.14" y="16.8">n</tspan><tspan x="81.9" y="16.8">g </tspan><tspan class="cls-23" x="95.66" y="16.8">T</tspan><tspan class="cls-20" x="104.15" y="16.8">r</tspan><tspan class="cls-19" x="110.05" y="16.8">e</tspan><tspan x="118.68" y="16.8">at</tspan><tspan class="cls-24" x="133.41" y="16.8">m</tspan><tspan x="148.17" y="16.8">en</tspan><tspan class="cls-25" x="166.68" y="16.8">t</tspan><tspan x="172.91" y="16.8">, a</tspan><tspan class="cls-15" x="189.18" y="16.8">n</tspan><tspan x="198.94" y="16.8">d H</tspan><tspan class="cls-18" x="223.9" y="16.8">a</tspan><tspan class="cls-26" x="232.4" y="16.8">v</tspan><tspan x="240.56" y="16.8">e a Supp</tspan><tspan class="cls-20" x="303.82" y="16.8">r</tspan><tspan x="309.73" y="16.8">essed </tspan><tspan class="cls-21" x="355.92" y="16.8">V</tspan><tspan x="366.29" y="16.8">i</tspan><tspan class="cls-27" x="370.51" y="16.8">r</tspan><tspan x="376.44" y="16.8">al </tspan><tspan class="cls-28" x="393.26" y="16.8">L</tspan><tspan class="cls-29" x="401.66" y="16.8">o</tspan><tspan class="cls-15" x="410.7" y="16.8">a</tspan><tspan x="419.42" y="16.8">d (</tspan><tspan class="cls-30" x="438.07" y="16.8">%</tspan><tspan x="450.07" y="16.8">)</tspan></text><rect class="cls-4" x="40.89" y="139.67" width="23.46" height="72.08"/><rect class="cls-6" x="71.75" y="185.38" width="23.46" height="26.37"/><rect class="cls-8" x="102.47" y="210.53" width="23.46" height="1.22"/><text class="cls-31" transform="translate(108.29 207.33)"><tspan class="cls-25">2</tspan><tspan x="4.8" y="0">%</tspan></text><text class="cls-32" transform="translate(44.35 136.47)">5<tspan class="cls-33" x="4.72" y="0">2</tspan><tspan class="cls-34" x="9.52" y="0">%</tspan></text><text class="cls-31" transform="translate(74.9 182.18)"><tspan class="cls-35">2</tspan><tspan x="4.7" y="0">0%</tspan></text><text class="cls-31" transform="translate(417.56 92.33)">90%</text><text class="cls-31" transform="translate(387.08 84.39)">9<tspan class="cls-36" x="5.1" y="0">5</tspan><tspan x="9.78" y="0">%</tspan></text><rect class="cls-4" x="267.98" y="122.59" width="23.46" height="89.17"/><rect class="cls-6" x="298.84" y="173.53" width="23.46" height="38.22"/><rect class="cls-8" x="329.56" y="203.53" width="23.46" height="8.22"/><text class="cls-31" transform="translate(271.05 119.39)">6<tspan class="cls-36" x="5.1" y="0">8</tspan><tspan x="10.3" y="0">%</tspan></text><text class="cls-31" transform="translate(302.1 170.33)">2<tspan class="cls-37" x="4.72" y="0">8</tspan><tspan x="9.92" y="0">%</tspan></text><text class="cls-31" transform="translate(335.18 200.33)"><tspan class="cls-36">8</tspan><tspan x="5.2" y="0">%</tspan></text><rect class="cls-4" x="149.27" y="125.59" width="23.46" height="86.17"/><rect class="cls-6" x="180.13" y="178.53" width="23.46" height="33.22"/><rect class="cls-8" x="210.85" y="206.53" width="23.46" height="5.22"/><text class="cls-31" transform="translate(152.48 122.39)">6<tspan class="cls-30" x="5.1" y="0">6</tspan><tspan x="10.03" y="0">%</tspan></text><text class="cls-31" transform="translate(183.53 175.33)"><tspan class="cls-35">2</tspan><tspan class="cls-38" x="4.7" y="0">6</tspan><tspan x="9.64" y="0">%</tspan></text><text class="cls-31" transform="translate(216.61 203.33)"><tspan class="cls-30">6</tspan><tspan x="4.94" y="0">%</tspan></text><text class="cls-31" transform="translate(448.44 98.33)">8<tspan class="cls-30" x="5.28" y="0">6</tspan><tspan x="10.22" y="0">%</tspan></text><g class="cls-39"><g class="cls-40"><path class="cls-41" d="M214.72,1479.79,355.47,1339h0L895.35,799.16,355.48,259.29h0L214.72,118.53-465.92,799.16ZM-284.17,705.23l93.92,93.93-93.92,93.93-93.93-93.93ZM713.61,893.09l-93.93-93.93,93.93-93.93,93.93,93.93Zm-402,402h0L214.72,1392l-220-220L171.12,995.48-10.63,813.74l-132,132.07,90.86,90.87,43.9-43.9-47-47,44.25-44.26L83.3,995.48-49.24,1128l-191-191,137.84-137.83L-240.27,661.33l191-191L83.3,602.84-10.63,706.77l-44.25-54.26,47-47-43.9-43.9-90.86,90.87L-10.63,784.58,171.12,602.84-5.33,426.39l123.19-123.2h0l96.86-96.85,96.85,96.85h0l123.19,123.2L258.32,602.84,440.06,784.58,572.13,652.51l-90.87-90.88-43.91,43.91,47,47-44.26,44.26-93.93-93.93L478.67,470.3l191,191L531.87,799.16,669.7,937l-191,191L346.13,995.48l93.93-93.93,44.26,44.26-47,47,43.91,43.91,90.87-90.87L440.06,813.74,258.32,995.48l176.44,176.45Z"/><rect class="cls-41" x="107.81" y="317.41" width="213.81" height="213.81" transform="translate(666.58 572.53) rotate(135)"/></g></g></svg>