<svg id="Layer_1" data-name="Layer 1" xmlns="http://www.w3.org/2000/svg" xmlns:xlink="http://www.w3.org/1999/xlink" viewBox="0 0 504.01 277.74"><defs><style>.cls-1,.cls-41{fill:none;}.cls-2{fill:#fff;}.cls-3{font-size:14px;}.cls-21,.cls-3,.cls-31,.cls-37{font-family:Montserrat-Bold, Montserrat;font-weight:700;}.cls-4{letter-spacing:-0.01em;}.cls-5{letter-spacing:0.01em;}.cls-6{letter-spacing:0em;}.cls-7{letter-spacing:-0.02em;}.cls-8{letter-spacing:-0.01em;}.cls-9{letter-spacing:-0.06em;}.cls-10{letter-spacing:0.01em;}.cls-11{letter-spacing:0em;}.cls-12{font-size:9px;font-family:Roboto-Regular, Roboto;}.cls-13{letter-spacing:-0.01em;}.cls-14{letter-spacing:-0.05em;}.cls-15{letter-spacing:-0.06em;}.cls-16{letter-spacing:-0.01em;}.cls-17{opacity:0.2;}.cls-18{fill:#017db9;}.cls-19{fill:#ed4328;}.cls-20{fill:#41ac49;}.cls-21,.cls-31,.cls-37{font-size:8px;}.cls-22{letter-spacing:0.01em;}.cls-23{letter-spacing:0em;}.cls-24{letter-spacing:-0.01em;}.cls-25{letter-spacing:-0.01em;}.cls-26{letter-spacing:0em;}.cls-27,.cls-31{letter-spacing:-0.01em;}.cls-28{letter-spacing:0em;}.cls-29{letter-spacing:0em;}.cls-30{letter-spacing:0.01em;}.cls-32{letter-spacing:0em;}.cls-33{letter-spacing:0.01em;}.cls-34{letter-spacing:-0.01em;}.cls-35{letter-spacing:-0.01em;}.cls-36{letter-spacing:-0.02em;}.cls-37{letter-spacing:-0.02em;}.cls-38{letter-spacing:-0.02em;}.cls-39{clip-path:url(#clip-path);}.cls-40{opacity:0.07;}.cls-41{stroke:#2681d6;stroke-miterlimit:10;stroke-width:2.59px;}</style><clipPath id="clip-path"><rect class="cls-1" x="-640.22" y="297.34" width="1467.58" height="1107.32"/></clipPath></defs><rect class="cls-2" width="504.01" height="277.74"/><text class="cls-3" transform="translate(88.12 33.73)">G<tspan class="cls-4" x="10.79" y="0">r</tspan><tspan x="16.7" y="0">oss En</tspan><tspan class="cls-4" x="63.77" y="0">r</tspan><tspan x="69.68" y="0">oll</tspan><tspan class="cls-5" x="87.28" y="0">m</tspan><tspan x="102.05" y="0">ent </tspan><tspan class="cls-6" x="130.6" y="0">R</tspan><tspan x="140.83" y="0">a</tspan><tspan class="cls-7" x="149.46" y="0">t</tspan><tspan x="155.31" y="0">e </tspan><tspan class="cls-8" x="168.11" y="0">f</tspan><tspan x="173.43" y="0">or </tspan><tspan class="cls-9" x="192.6" y="0">T</tspan><tspan x="200.48" y="0">e</tspan><tspan class="cls-10" x="209.31" y="0">r</tspan><tspan x="215.56" y="0">tia</tspan><tspan class="cls-10" x="234.5" y="0">r</tspan><tspan x="240.74" y="0">y </tspan><tspan class="cls-11" x="253.08" y="0">E</tspan><tspan x="262.41" y="0">ducation</tspan></text><text class="cls-12" transform="translate(66.45 229.53)">Male</text><text class="cls-12" transform="translate(179.4 229.53)"><tspan class="cls-13">F</tspan><tspan x="4.87" y="0">emale</tspan></text><text class="cls-12" transform="translate(302.7 229.53)"><tspan class="cls-14">T</tspan><tspan x="4.95" y="0">otal</tspan></text><text class="cls-12" transform="translate(398.36 229.53)">RPJMN <tspan class="cls-15" x="32.77" y="0">T</tspan><tspan x="37.66" y="0">a</tspan><tspan class="cls-16" x="42.61" y="0">r</tspan><tspan x="45.68" y="0">get</tspan><tspan x="19.13" y="10.8">2024</tspan></text><g class="cls-17"><rect x="21.17" y="87.46" width="461.66" height="0.5"/></g><g class="cls-17"><rect x="21.17" y="141.46" width="461.66" height="0.5"/></g><g class="cls-17"><rect x="21.17" y="159.46" width="461.66" height="0.5"/></g><g class="cls-17"><rect x="21.17" y="178.2" width="461.66" height="0.5"/></g><g class="cls-17"><rect x="21.17" y="196.45" width="461.66" height="0.5"/></g><g class="cls-17"><rect x="21.17" y="215.47" width="461.66" height="0.5"/></g><g class="cls-17"><rect x="21.17" y="69.46" width="461.66" height="0.5"/></g><g class="cls-17"><rect x="21.17" y="52.46" width="461.66" height="0.5"/></g><g class="cls-17"><rect x="21.17" y="123.46" width="461.66" height="0.5"/></g><g class="cls-17"><rect x="21.17" y="105.46" width="461.66" height="0.5"/></g><rect class="cls-18" x="30.8" y="110.8" width="23.46" height="105.17"/><rect class="cls-19" x="64.66" y="107.74" width="23.46" height="108.22"/><rect class="cls-20" x="98.38" y="109.74" width="23.46" height="106.22"/><rect class="cls-18" x="148.57" y="99.8" width="23.46" height="116.17"/><rect class="cls-19" x="182.43" y="97.74" width="23.46" height="118.22"/><rect class="cls-20" x="216.15" y="92.74" width="23.46" height="123.22"/><rect class="cls-18" x="267.34" y="104.88" width="23.46" height="111.08"/><rect class="cls-19" x="301.19" y="102.59" width="23.46" height="113.37"/><rect class="cls-20" x="334.92" y="100.98" width="23.46" height="114.99"/><rect class="cls-18" x="382.11" y="63.8" width="23.46" height="152.17"/><rect class="cls-19" x="415.96" y="63.8" width="23.46" height="152.17"/><rect class="cls-20" x="449.68" y="63.8" width="23.46" height="152.17"/><path class="cls-18" d="M175.11,255.91l1.13-1.13h0l4.33-4.33-4.33-4.33h0L175.11,245l-5.46,5.46Zm-4-6.21.75.75-.75.75-.75-.75Zm8,1.5-.76-.75.76-.75.75.75Zm-3.23,3.23h0l-.78.78-1.76-1.77,1.41-1.42-1.46-1.45-1.06,1.06.73.73.36-.36-.38-.37.35-.36.76.75L173,253.09l-1.53-1.53,1.11-1.11-1.11-1.11,1.53-1.53,1.07,1.06-.76.76-.35-.36.38-.37-.36-.36-.73.73,1.06,1.06,1.46-1.46-1.41-1.41,1-1h0l.77-.78.78.78h0l1,1-1.42,1.41,1.46,1.46,1.06-1.06-.73-.73-.35.36.38.37-.36.36-.75-.76,1.06-1.06,1.53,1.53-1.1,1.11,1.1,1.11-1.53,1.53L176.17,252l.75-.75.36.36-.38.37.35.36.73-.73-1.06-1.06L175.46,252l1.42,1.42Z"/><rect class="cls-18" x="174.25" y="252.56" width="1.72" height="1.72" transform="translate(478.13 308.79) rotate(135)"/><rect class="cls-18" x="174.25" y="246.58" width="1.72" height="1.72" transform="translate(473.9 298.58) rotate(135)"/><text class="cls-12" transform="translate(186.34 253)">2019</text><path class="cls-19" d="M240.86,255.91l1.13-1.13h0l4.33-4.33L242,246.12h0L240.86,245l-5.46,5.46Zm-4-6.21.75.75-.75.75-.76-.75Zm8,1.5-.76-.75.76-.75.75.75Zm-3.23,3.23h0l-.78.78-1.76-1.77,1.41-1.42-1.46-1.45L238,251.63l.73.73.36-.36-.38-.37.35-.36.76.75-1.07,1.07-1.53-1.53,1.11-1.11-1.11-1.11,1.53-1.53,1.07,1.06-.76.76-.35-.36.38-.37-.36-.36-.73.73,1.06,1.06,1.46-1.46-1.41-1.41,1-1h0l.78-.78.78.78h0l1,1-1.42,1.41,1.46,1.46,1.06-1.06-.73-.73-.35.36.38.37-.36.36-.75-.76,1.06-1.06,1.53,1.53-1.1,1.11,1.1,1.11L243,253.09,241.92,252l.75-.75.36.36-.38.37.35.36.73-.73-1.06-1.06L241.21,252l1.42,1.42Z"/><rect class="cls-19" x="240" y="252.56" width="1.72" height="1.72" transform="translate(590.37 262.3) rotate(135)"/><rect class="cls-19" x="240" y="246.58" width="1.72" height="1.72" transform="translate(586.14 252.09) rotate(135)"/><text class="cls-12" transform="translate(252.09 253)">2020</text><path class="cls-20" d="M302.86,255.91l1.13-1.13h0l4.33-4.33L304,246.12h0L302.86,245l-5.46,5.46Zm-4-6.21.75.75-.75.75-.76-.75Zm8,1.5-.76-.75.76-.75.75.75Zm-3.23,3.23h0l-.78.78-1.76-1.77,1.41-1.42-1.46-1.45L300,251.63l.73.73.36-.36-.38-.37.35-.36.76.75-1.07,1.07-1.53-1.53,1.11-1.11-1.11-1.11,1.53-1.53,1.07,1.06-.76.76-.35-.36.38-.37-.36-.36-.73.73,1.06,1.06,1.46-1.46-1.41-1.41,1-1h0l.78-.78.78.78h0l1,1-1.42,1.41,1.46,1.46,1.06-1.06-.73-.73-.35.36.38.37-.36.36-.75-.76,1.06-1.06,1.53,1.53-1.1,1.11,1.1,1.11L305,253.09,303.92,252l.75-.75.36.36-.38.37.35.36.73-.73-1.06-1.06L303.21,252l1.42,1.42Z"/><rect class="cls-20" x="302" y="252.56" width="1.72" height="1.72" transform="translate(696.21 218.46) rotate(135)"/><rect class="cls-20" x="302" y="246.58" width="1.72" height="1.72" transform="translate(691.98 208.25) rotate(135)"/><text class="cls-12" transform="translate(314.09 253)">2021</text><text class="cls-21" transform="translate(28.1 107.6)">2<tspan class="cls-22" x="4.72" y="0">8</tspan><tspan class="cls-23" x="10.08" y="0">.</tspan><tspan class="cls-24" x="12.18" y="0">93</tspan><tspan x="21.85" y="0">%</tspan></text><text class="cls-21" transform="translate(62.28 104.54)">2<tspan class="cls-25" x="4.72" y="0">9</tspan><tspan class="cls-26" x="9.71" y="0">.</tspan><tspan class="cls-27" x="11.81" y="0">5</tspan><tspan class="cls-24" x="16.53" y="0">5</tspan><tspan x="21.21" y="0">%</tspan></text><text class="cls-21" transform="translate(101.7 106.54)">29%</text><text class="cls-21" transform="translate(213.46 89.54)"><tspan class="cls-28">3</tspan><tspan x="4.7" y="0">3.</tspan><tspan class="cls-29" x="11.53" y="0">4</tspan><tspan class="cls-30" x="17.02" y="0">2</tspan><tspan x="21.82" y="0">%</tspan></text><text class="cls-31" transform="translate(180.89 94.54)">3<tspan class="cls-22" x="4.7" y="0">2.</tspan><tspan class="cls-26" x="11.67" y="0">21%</tspan></text><text class="cls-21" transform="translate(146.83 96.6)">31<tspan class="cls-25" x="7.87" y="0">.</tspan><tspan class="cls-32" x="9.86" y="0">6</tspan><tspan class="cls-33" x="14.93" y="0">7</tspan><tspan class="cls-23" x="19.94" y="0">%</tspan></text><text class="cls-21" transform="translate(264.48 101.68)">3<tspan class="cls-25" x="4.74" y="0">0</tspan><tspan class="cls-30" x="10.06" y="0">.</tspan><tspan class="cls-26" x="12.24" y="0">2</tspan><tspan class="cls-34" x="16.96" y="0">8</tspan><tspan x="22.16" y="0">%</tspan></text><text class="cls-21" transform="translate(298.32 99.39)">3<tspan class="cls-35" x="4.74" y="0">0</tspan><tspan class="cls-30" x="10.06" y="0">.</tspan><tspan class="cls-26" x="12.24" y="0">8</tspan><tspan class="cls-34" x="17.52" y="0">5</tspan><tspan x="22.2" y="0">%</tspan></text><text class="cls-21" transform="translate(334.1 97.78)">31<tspan class="cls-36" x="7.87" y="0">.</tspan><tspan class="cls-26" x="9.84" y="0">19%</tspan></text><text class="cls-37" transform="translate(380.01 60.6)">4<tspan class="cls-26" x="5.31" y="0">1</tspan><tspan class="cls-36" x="8.45" y="0">.</tspan><tspan class="cls-38" x="10.42" y="0">7</tspan><tspan class="cls-26" x="15.22" y="0">0%</tspan></text><text class="cls-37" transform="translate(413.86 60.6)">4<tspan class="cls-26" x="5.31" y="0">1</tspan><tspan class="cls-36" x="8.45" y="0">.</tspan><tspan class="cls-38" x="10.42" y="0">7</tspan><tspan class="cls-26" x="15.22" y="0">0%</tspan></text><text class="cls-37" transform="translate(447.58 60.6)">4<tspan class="cls-26" x="5.31" y="0">1</tspan><tspan class="cls-36" x="8.45" y="0">.</tspan><tspan class="cls-38" x="10.42" y="0">7</tspan><tspan class="cls-26" x="15.22" y="0">0%</tspan></text><g class="cls-39"><g class="cls-40"><path class="cls-41" d="M654.27,1479.79,795,1339h0L1334.9,799.16,795,259.29h0L654.27,118.53-26.36,799.16ZM155.38,705.23l93.93,93.93-93.93,93.93L61.46,799.16Zm997.78,187.86-93.93-93.93,93.93-93.93,93.93,93.93Zm-402,402h0L654.27,1392l-220-220L610.67,995.48,428.93,813.74,296.87,945.81l90.86,90.87,43.9-43.9-47-47,44.26-44.26,93.92,93.93L390.32,1128l-191-191L337.12,799.16,199.29,661.33l191-191L522.85,602.84,428.93,706.77l-44.26-54.26,47-47-43.9-43.9-90.86,90.87L428.93,784.58,610.67,602.84,434.22,426.39l123.2-123.2h0l96.85-96.85,96.85,96.85h0l123.2,123.2L697.87,602.84,879.61,784.58l132.07-132.07-90.87-90.88L876.9,605.54l47,47-44.26,44.26-93.93-93.93L918.22,470.3l191,191L971.42,799.16,1109.26,937l-191,191L785.68,995.48l93.93-93.93,44.26,44.26-47,47,43.91,43.91,90.87-90.87L879.61,813.74,697.87,995.48l176.45,176.45Z"/><rect class="cls-41" x="547.36" y="317.41" width="213.81" height="213.81" transform="translate(1416.95 261.72) rotate(135)"/></g></g></svg>