<svg id="Layer_1" data-name="Layer 1" xmlns="http://www.w3.org/2000/svg" xmlns:xlink="http://www.w3.org/1999/xlink" viewBox="0 0 504.01 277.74"><defs><style>.cls-1,.cls-5{fill:none;}.cls-2{fill:#fff;}.cls-3{clip-path:url(#clip-path);}.cls-4{opacity:0.07;}.cls-5{stroke:#2681d6;stroke-miterlimit:10;stroke-width:2.59px;}.cls-6{opacity:0.2;}.cls-7{fill:#017db9;}.cls-8{font-size:9px;font-family:Roboto-Regular, Roboto;}.cls-9{fill:#ed4328;}.cls-10{letter-spacing:-0.02em;}.cls-11{font-size:14px;}.cls-11,.cls-23{font-family:Montserrat-Bold, Montserrat;font-weight:700;}.cls-12{letter-spacing:-0.01em;}.cls-13{letter-spacing:-0.01em;}.cls-14{letter-spacing:-0.02em;}.cls-15{letter-spacing:0em;}.cls-16{letter-spacing:0.01em;}.cls-17{letter-spacing:-0.01em;}.cls-18{letter-spacing:0.01em;}.cls-19{letter-spacing:0em;}.cls-20{letter-spacing:-0.05em;}.cls-21{letter-spacing:-0.06em;}.cls-22{letter-spacing:-0.01em;}.cls-23{font-size:8px;}.cls-24{letter-spacing:0em;}.cls-25{letter-spacing:-0.05em;}.cls-26{letter-spacing:-0.02em;}.cls-27{letter-spacing:-0.02em;}.cls-28{letter-spacing:-0.01em;}.cls-29{letter-spacing:0.02em;}.cls-30{letter-spacing:-0.02em;}.cls-31{letter-spacing:0.01em;}.cls-32{letter-spacing:-0.03em;}.cls-33{letter-spacing:0em;}</style><clipPath id="clip-path"><rect class="cls-1" x="-1164.24" y="297.34" width="1467.58" height="1107.32"/></clipPath></defs><rect class="cls-2" width="504.01" height="277.74"/><g class="cls-3"><g class="cls-4"><path class="cls-5" d="M130.26,1479.79,271,1339h0L810.89,799.16,271,259.29h0L130.26,118.53-550.37,799.16ZM-368.63,705.23l93.93,93.93-93.93,93.93-93.93-93.93ZM629.15,893.09l-93.93-93.93,93.93-93.93,93.93,93.93Zm-402,402h0L130.26,1392l-220-220L86.66,995.48-95.08,813.74-227.14,945.81l90.86,90.87,43.9-43.9-47-47,44.26-44.26,93.92,93.93L-133.7,1128l-191-191,137.83-137.83L-324.72,661.33l191-191L-1.16,602.84-95.08,706.77l-44.26-54.26,47-47-43.9-43.9-90.86,90.87L-95.08,784.58,86.66,602.84-89.79,426.39l123.2-123.2h0l96.86-96.85,96.85,96.85h0l123.2,123.2L173.86,602.84,355.6,784.58,487.67,652.51,396.8,561.63l-43.91,43.91,47,47L355.6,696.77l-93.93-93.93L394.21,470.3l191,191L447.41,799.16,585.24,937l-191,191L261.67,995.48l93.93-93.93,44.26,44.26-47,47,43.91,43.91,90.87-90.87L355.6,813.74,173.86,995.48l176.45,176.45Z"/><rect class="cls-5" x="23.35" y="317.41" width="213.81" height="213.81" transform="translate(522.4 632.25) rotate(135)"/></g></g><g class="cls-6"><rect x="41.17" y="55.82" width="421.66" height="0.5"/></g><g class="cls-6"><rect x="41.17" y="82.46" width="421.66" height="0.5"/></g><g class="cls-6"><rect x="41.17" y="109.46" width="421.66" height="0.5"/></g><g class="cls-6"><rect x="41.17" y="135.46" width="421.66" height="0.5"/></g><g class="cls-6"><rect x="41.17" y="162.2" width="421.66" height="0.5"/></g><g class="cls-6"><rect x="41.17" y="188.84" width="421.66" height="0.5"/></g><g class="cls-6"><rect x="41.17" y="215.47" width="421.66" height="0.5"/></g><path class="cls-7" d="M199.85,255.91l1.13-1.13h0l4.34-4.33L201,246.12h0L199.85,245l-5.46,5.46Zm-4-6.21.75.75-.75.75-.75-.75Zm8,1.5-.76-.75.76-.75.75.75Zm-3.23,3.23h0l-.78.78-1.76-1.77L199.5,252,198,250.57,197,251.63l.73.73.36-.36-.38-.37.35-.36.76.75-1.07,1.07-1.53-1.53,1.11-1.11-1.11-1.11,1.53-1.53,1.07,1.06-.76.76-.35-.36.38-.37-.36-.36-.73.73,1.06,1.06,1.46-1.46-1.41-1.41,1-1h0l.77-.78.78.78h0l1,1-1.42,1.41,1.46,1.46,1.06-1.06-.73-.73-.35.36.38.37-.36.36-.75-.76,1.06-1.06,1.53,1.53-1.1,1.11,1.1,1.11L202,253.09,200.91,252l.75-.75.36.36-.38.37.35.36.73-.73-1.06-1.06L200.2,252l1.42,1.42Z"/><rect class="cls-7" x="199" y="252.56" width="1.72" height="1.72" transform="translate(520.37 291.3) rotate(135)"/><rect class="cls-7" x="199" y="246.58" width="1.72" height="1.72" transform="translate(516.14 281.09) rotate(135)"/><text class="cls-8" transform="translate(211.08 253)">Stunting</text><path class="cls-9" d="M265.6,255.91l1.13-1.13h0l4.33-4.33-4.33-4.33h0L265.6,245l-5.46,5.46Zm-4-6.21.75.75-.75.75-.76-.75Zm8,1.5-.76-.75.76-.75.75.75Zm-3.23,3.23h0l-.78.78-1.76-1.77,1.41-1.42-1.46-1.45-1.06,1.06.73.73.36-.36-.38-.37.35-.36.76.75-1.07,1.07L262,251.56l1.11-1.11L262,249.34l1.53-1.53,1.07,1.06-.76.76-.35-.36.38-.37-.36-.36-.73.73,1.06,1.06,1.46-1.46-1.41-1.41,1-1h0l.78-.78.78.78h0l1,1L266,248.87l1.46,1.46,1.06-1.06-.73-.73-.35.36.38.37-.36.36-.75-.76,1.06-1.06,1.53,1.53-1.1,1.11,1.1,1.11-1.53,1.53L266.66,252l.75-.75.36.36-.38.37.35.36.73-.73-1.06-1.06L266,252l1.42,1.42Z"/><rect class="cls-9" x="264.74" y="252.56" width="1.72" height="1.72" transform="translate(632.61 244.81) rotate(135)"/><rect class="cls-9" x="264.74" y="246.58" width="1.72" height="1.72" transform="translate(628.38 234.6) rotate(135)"/><text class="cls-8" transform="translate(276.83 253)"><tspan class="cls-10">W</tspan><tspan x="7.6" y="0">asting</tspan></text><text class="cls-11" transform="translate(119.29 33.73)"><tspan class="cls-12">P</tspan><tspan class="cls-13" x="10.11" y="0">r</tspan><tspan class="cls-12" x="16.02" y="0">e</tspan><tspan class="cls-14" x="24.71" y="0">v</tspan><tspan class="cls-15" x="32.83" y="0">ale</tspan><tspan class="cls-16" x="54.52" y="0">n</tspan><tspan class="cls-17" x="64.27" y="0">c</tspan><tspan x="72.45" y="0">e of Stunti</tspan><tspan class="cls-18" x="148.41" y="0">n</tspan><tspan x="158.17" y="0">g a</tspan><tspan class="cls-16" x="180.57" y="0">n</tspan><tspan class="cls-19" x="190.33" y="0">d </tspan><tspan class="cls-20" x="203.98" y="0">W</tspan><tspan x="219.49" y="0">asti</tspan><tspan class="cls-16" x="245.87" y="0">n</tspan><tspan class="cls-19" x="255.62" y="0">g</tspan></text><rect class="cls-7" x="67.94" y="67.71" width="31.99" height="148.01"/><rect class="cls-9" x="110.01" y="176.11" width="31.99" height="39.6"/><rect class="cls-7" x="218.49" y="85.65" width="31.99" height="130.06"/><rect class="cls-9" x="260.56" y="177.92" width="31.99" height="37.79"/><rect class="cls-7" x="358.53" y="141.09" width="31.99" height="74.63"/><rect class="cls-9" x="400.6" y="178.55" width="31.99" height="37.17"/><text class="cls-8" transform="translate(245.38 228)">2021</text><text class="cls-8" transform="translate(94.79 228)">2019</text><text class="cls-8" transform="translate(355.04 228)">RPJMN <tspan class="cls-21" x="32.77" y="0">T</tspan><tspan x="37.66" y="0">a</tspan><tspan class="cls-22" x="42.61" y="0">r</tspan><tspan x="45.68" y="0">get 2024</tspan></text><text class="cls-23" transform="translate(69.68 65.51)"><tspan class="cls-24">2</tspan><tspan class="cls-25" x="4.7" y="0">7</tspan><tspan class="cls-26" x="9.27" y="0">.</tspan><tspan class="cls-27" x="11.24" y="0">7</tspan><tspan x="16.04" y="0">0%</tspan></text><text class="cls-23" transform="translate(113.69 173.91)"><tspan class="cls-25">7</tspan><tspan x="4.57" y="0">.40%</tspan></text><text class="cls-23" transform="translate(219.3 83.45)"><tspan class="cls-28">2</tspan><tspan class="cls-29" x="4.64" y="0">4</tspan><tspan x="10.31" y="0">.40%</tspan></text><text class="cls-23" transform="translate(265.49 175.72)"><tspan class="cls-25">7</tspan><tspan class="cls-30" x="4.57" y="0">.</tspan><tspan x="6.54" y="0">10%</tspan></text><text class="cls-23" transform="translate(410.58 176.35)"><tspan class="cls-31">7</tspan><tspan x="5.01" y="0">%</tspan></text><text class="cls-23" transform="translate(366.81 138.89)">1<tspan class="cls-32" x="3.14" y="0">4</tspan><tspan class="cls-33" x="8.41" y="0">%</tspan></text></svg>