<svg width="319" height="88" viewBox="0 0 319 88" fill="none" xmlns="http://www.w3.org/2000/svg">
<path d="M116.778 34.256V50.2292H114.844V34.256H116.778Z" fill="#0099D6"/>
<path d="M133.323 34.256V50.2292H131.451L122.747 37.6878H122.591V50.2292H120.656V34.256H122.528L131.264 46.8287H131.419V34.256H133.323Z" fill="#0099D6"/>
<path d="M142.122 50.2292H137.193V34.256H142.341C143.89 34.256 145.216 34.5758 146.318 35.2154C147.421 35.8497 148.266 36.7622 148.853 37.9529C149.441 39.1385 149.734 40.5579 149.734 42.2114C149.734 43.8753 149.438 45.3078 148.845 46.5089C148.253 47.7048 147.389 48.6251 146.256 49.2699C145.122 49.9094 143.744 50.2292 142.122 50.2292ZM139.127 48.5133H141.997C143.318 48.5133 144.413 48.2585 145.281 47.749C146.149 47.2394 146.797 46.5141 147.223 45.573C147.649 44.6318 147.863 43.5113 147.863 42.2114C147.863 40.9219 147.652 39.8118 147.231 38.8811C146.81 37.9451 146.18 37.2276 145.343 36.7284C144.506 36.2241 143.464 35.9719 142.216 35.9719H139.127V48.5133Z" fill="#0099D6"/>
<path d="M166.456 42.2426C166.456 43.9273 166.152 45.3832 165.544 46.6103C164.935 47.8374 164.101 48.7837 163.04 49.4493C161.979 50.1148 160.768 50.4476 159.406 50.4476C158.043 50.4476 156.832 50.1148 155.771 49.4493C154.71 48.7837 153.876 47.8374 153.268 46.6103C152.659 45.3832 152.355 43.9273 152.355 42.2426C152.355 40.5579 152.659 39.1021 153.268 37.875C153.876 36.6478 154.71 35.7015 155.771 35.036C156.832 34.3704 158.043 34.0376 159.406 34.0376C160.768 34.0376 161.979 34.3704 163.04 35.036C164.101 35.7015 164.935 36.6478 165.544 37.875C166.152 39.1021 166.456 40.5579 166.456 42.2426ZM164.584 42.2426C164.584 40.8595 164.353 39.6922 163.89 38.7407C163.433 37.7892 162.811 37.069 162.026 36.5803C161.246 36.0915 160.373 35.8471 159.406 35.8471C158.439 35.8471 157.562 36.0915 156.777 36.5803C155.997 37.069 155.376 37.7892 154.913 38.7407C154.456 39.6922 154.227 40.8595 154.227 42.2426C154.227 43.6257 154.456 44.793 154.913 45.7445C155.376 46.6961 155.997 47.4162 156.777 47.905C157.562 48.3937 158.439 48.6381 159.406 48.6381C160.373 48.6381 161.246 48.3937 162.026 47.905C162.811 47.4162 163.433 46.6961 163.89 45.7445C164.353 44.793 164.584 43.6257 164.584 42.2426Z" fill="#0099D6"/>
<path d="M182.375 34.256V50.2292H180.503L171.799 37.6878H171.643V50.2292H169.709V34.256H171.581L180.316 46.8287H180.472V34.256H182.375Z" fill="#0099D6"/>
<path d="M186.245 50.2292V34.256H195.885V35.9719H188.18V41.3691H195.386V43.0849H188.18V48.5133H196.01V50.2292H186.245Z" fill="#0099D6"/>
<path d="M208.107 38.2493C208.013 37.459 207.634 36.8454 206.968 36.4087C206.303 35.9719 205.486 35.7535 204.519 35.7535C203.812 35.7535 203.193 35.8679 202.663 36.0967C202.138 36.3255 201.727 36.64 201.431 37.0404C201.14 37.4408 200.994 37.8958 200.994 38.4053C200.994 38.8317 201.095 39.1983 201.298 39.505C201.506 39.8066 201.771 40.0588 202.094 40.2616C202.416 40.4592 202.754 40.6229 203.108 40.7529C203.461 40.8777 203.786 40.9791 204.083 41.0571L205.705 41.4939C206.121 41.6031 206.584 41.7539 207.093 41.9462C207.608 42.1386 208.099 42.4012 208.567 42.734C209.04 43.0615 209.43 43.4827 209.737 43.9975C210.044 44.5122 210.197 45.144 210.197 45.8927C210.197 46.7559 209.971 47.5358 209.519 48.2326C209.072 48.9293 208.416 49.4831 207.553 49.8938C206.695 50.3046 205.653 50.51 204.426 50.51C203.282 50.51 202.291 50.3254 201.454 49.9562C200.622 49.587 199.967 49.0723 199.489 48.4119C199.016 47.7516 198.748 46.9846 198.685 46.1111H200.682C200.734 46.7143 200.937 47.2134 201.29 47.6086C201.649 47.9986 202.102 48.2897 202.647 48.4821C203.199 48.6693 203.791 48.7629 204.426 48.7629C205.164 48.7629 205.827 48.6433 206.415 48.4041C207.002 48.1598 207.467 47.8218 207.811 47.3902C208.154 46.9535 208.325 46.4439 208.325 45.8615C208.325 45.3312 208.177 44.8996 207.881 44.5668C207.584 44.2341 207.195 43.9637 206.711 43.7557C206.227 43.5477 205.705 43.3657 205.143 43.2097L203.178 42.6482C201.93 42.2894 200.942 41.7773 200.214 41.1117C199.486 40.4462 199.122 39.5752 199.122 38.4989C199.122 37.6046 199.364 36.8246 199.847 36.1591C200.336 35.4883 200.991 34.9684 201.813 34.5992C202.64 34.2248 203.563 34.0376 204.582 34.0376C205.611 34.0376 206.526 34.2222 207.327 34.5914C208.128 34.9554 208.762 35.4545 209.23 36.0889C209.703 36.7232 209.953 37.4434 209.979 38.2493H208.107Z" fill="#0099D6"/>
<path d="M215.312 34.256V50.2292H213.377V34.256H215.312Z" fill="#0099D6"/>
<path d="M219.845 50.2292H217.817L223.682 34.256H225.679L231.544 50.2292H229.516L224.743 36.783H224.618L219.845 50.2292ZM220.594 43.9897H228.768V45.7055H220.594V43.9897Z" fill="#0099D6"/>
<path d="M96.65 42.77C95.91 44.6 96.21 46.93 95.1 48.52C95.03 47.61 95.54 46.73 95.61 45.75C96.45 39.63 91.15 36.01 89.93 30.84C89.86 32.23 89.96 33.54 90.17 34.79C90.47 41.25 94.7 46.49 93.48 53.21C94.7 51.62 95.61 50 97.06 48.44C101.93 43.37 103.18 34.89 100.37 28.4C101.31 33.88 98 38.01 96.65 42.77Z" fill="#0099D6"/>
<path d="M95.6 28.3C95.7 30.36 96.04 32.42 95.9 34.48C95.6 33.67 95.53 32.79 95.32 31.95C94.31 27.32 88.86 25.05 86.67 21.17C87.01 22.49 87.25 23.81 87.72 25.06C89.61 30.54 95.29 34.22 96.07 40.17C96.58 34.49 100.57 29.96 99.08 23.78C98.3 20.67 97.02 17.63 94.69 15.26C97.19 18.91 95.77 24.04 95.6 28.3Z" fill="#0099D6"/>
<path d="M22.18 68.46C20.25 63.15 18.56 57.61 14.37 53.32L15.35 55.82C16.3 61.43 16.74 67.62 21.84 71.17L21.77 71.24C20.11 70.53 18.86 69.14 17.38 68.23C12.58 65.12 5.94997 63.74 3.24997 57.79C3.98997 62.15 6.96997 66.04 10.55 68.74C14.84 72.53 20.83 72.22 26.06 73.74C24.15 72.24 23.06 70.55 22.18 68.46Z" fill="#0099D6"/>
<path d="M16 65.62C12.18 59.03 14.21 50.07 11.13 43.18C11.54 45.41 10.83 47.37 10.49 49.4C9.33997 53.29 9.91997 57.85 12.18 61.03C11.44 60.66 10.96 59.78 10.49 59C7.68997 53.63 0.619969 50.58 0.00996862 44.13C-0.0200314 46.46 -0.0200313 48.93 0.689969 51.03C2.64997 58.25 10.62 61.97 16 65.62Z" fill="#0099D6"/>
<path d="M39.22 76.1C31.72 75.76 27.66 67.58 21.61 64.1C24.21 67.14 24.31 71.16 27.93 73.67C29.32 74.89 31.18 75.12 32.73 75.77C31.01 75.94 29.42 75.23 27.69 75.13C21.88 74.42 15.22 75.16 10.96 70.43C12.89 73.81 16.3 76.75 19.88 77.9C26.65 80.46 32.76 76.67 39.22 76.1Z" fill="#0099D6"/>
<path d="M75.05 74.71C73.12 74.95 71.23 75.52 69.3 75.52C69.37 75.45 69.43 75.32 69.54 75.35C75.86 74.81 77.65 67.95 80.25 63.69C76.36 66.22 73.02 70.55 69.47 73.32C67.51 74.81 65.18 75.25 62.88 75.92C67.95 76.29 72.18 78.69 77.48 78.35C83.16 78.11 88.36 74.8 91.03 69.76C87.12 74.44 80.83 74.17 75.05 74.71Z" fill="#0099D6"/>
<path d="M70.28 79.92C64.5 77.28 57.81 74.34 51.05 76.84C47.64 75.73 43.18 75.73 39.76 76.84C33.81 79.54 25.7 83.63 19.41 79.1C20.59 80.52 21.88 81.2 23.23 82.18C27.29 84.82 33.13 84.55 37.32 82.42C41.17 80.8 44.11 75.96 49.02 77.48C44.86 79.58 41.04 82.08 37.59 85.66L39.69 87.45C42.73 83.43 46.82 80.08 51.22 78.12C55.48 80.18 59.37 83.73 62.58 87.28L64.68 85.49C61.3 82.21 57.38 79.58 53.32 77.48C54.37 77.21 55.65 77.28 56.73 77.38C61.12 79.31 64.5 83.16 69.47 83.74C74.74 84.59 79.44 82.46 82.69 78.6L80.19 79.92C77.25 81.24 73.29 80.9 70.28 79.92Z" fill="#0099D6"/>
<path d="M92.59 63.46C88.4 65.42 84.14 67.65 80.59 70.76H80.18L80.42 70.42C86.54 66.36 84.88 58.52 87.48 52.74L84.64 56.46C80.82 61.73 81.26 68.93 75.95 73.43C78.69 72.55 81.7 72.18 84.54 71.57C90.93 69.95 97.66 63.66 98.57 57.1C97.43 59.84 95.02 61.87 92.59 63.46Z" fill="#0099D6"/>
<path d="M89.65 17.22C88.87 15.6 88.7 13.7 87.89 12.08C86.27 7.54999 81.23 5.34999 77.07 3.96999L79.67 6.56999C82.32 10.63 86 14.65 89.65 17.22Z" fill="#0099D6"/>
<path d="M14.78 21.75C12.58 25.77 7.23997 28.11 6.25997 32.87C6.25997 33.65 6.01997 34.39 5.84997 35.14L5.67997 34.97L5.94997 31.89C6.86997 26.38 3.65997 20.7 6.49997 16C4.53997 18.33 3.21997 21.14 2.54997 24.11C1.22997 30.33 4.97997 35.13 5.78997 40.81C6.86997 33.68 14.38 29.18 14.78 21.75Z" fill="#0099D6"/>
<path d="M100.6 47.13C97.63 51.76 92.56 55.55 90.05 60.35C89.98 60.52 89.74 60.62 89.64 60.45L90.15 59.81C93.73 54.64 90.52 48.28 90.72 42.5C87.51 49.43 89.84 58.62 85.92 65.21L86.56 64.67C94.16 60.51 103.32 53.52 101.8 43.31C101.68 44.7 101.25 45.95 100.6 47.13Z" fill="#0099D6"/>
<path d="M25.97 13.46L26.14 13.97L29.79 17.52C25.87 21.31 23.67 26.14 22.49 31.24C22.29 32.96 21.81 34.65 22.02 36.41L16.51 36.34C16.94 27.7 20.19 19.75 25.97 13.46ZM49.6 2.84999C49.5 4.56999 49.4 6.49999 49.67 8.18999C42.61 8.42999 36.18 11.2 31.18 16.06L27.19 12.24C33.54 6.56999 41.01 3.31999 49.6 2.84999ZM49.66 22.49C46.52 22.59 43.51 23.88 41.24 26.04C39.92 24.82 38.81 23.4 37.42 22.49C41.04 19.68 44.92 17.62 49.59 17.35L49.76 17.21C49.5 18.87 49.56 20.94 49.66 22.49ZM48.28 27.66C47.77 27.66 47.67 28.27 47.47 28.64C47.71 29.11 47.13 29.45 47 29.86C46.63 29.83 46.15 30.3 45.85 29.79C45.28 30.09 44.9 29.79 44.5 29.38C44.06 29.48 44.03 30.26 43.59 29.62C43.62 29.42 44.1 29.38 43.93 29.05C43.42 28.58 42.75 28.31 42.07 28.17C44.1 25.97 46.77 24.92 49.61 24.52C49.81 25.67 49.47 27.26 49.91 28.41C49.46 27.66 47.97 29.25 48.28 27.66ZM50.71 31.01C50.68 31.13 50.78 31.19 50.85 31.27C50.67 31.2 49.85 31.12 49.77 31.55C49.77 32.26 50.65 32.46 50.99 32.94C52.41 32.36 52.68 34.19 53.83 34.39C53.19 34.97 54.74 35.57 53.73 35.94C53.76 36.28 53.36 36.45 53.49 36.82C54.17 36.89 54.13 37.63 54.47 38.04C54.5 38.51 54.3 39.09 54.88 39.36C54.78 39.93 54.74 40.54 54.47 41.05C53.83 41.22 53.32 41.08 52.75 41.15C51.77 41.69 52.41 43.41 51.06 43.31C49.64 43.41 48.49 42.94 47.41 42.19C48.25 41.99 48.96 42.29 49.61 41.62C49.61 41.25 50.02 40.98 49.85 40.64C50.22 40.13 50.73 39.46 50.43 38.85C50.53 38.48 50.06 38.41 49.85 38.21C49.07 38.31 48.2 37.94 47.48 38.55C47.55 39.06 47.48 39.7 46.94 39.83C46.33 39.93 46.43 40.78 45.96 40.81L45.55 40.07H45.72C45.65 40.24 45.79 40.37 45.96 40.34C46.74 40.37 46.37 39.46 46.67 39.12L47.25 38.31C46.98 38.17 46.74 37.9 46.84 37.57C46.53 37.37 46.13 37.57 46.03 37.91C46.06 38.25 46.03 38.55 45.79 38.79H45.62C45.72 38.59 45.45 38.52 45.38 38.38C44.3 38.41 43.39 39.02 42.3 38.79C43.25 38.59 42.94 36.05 44.5 37.24L44.74 36.93C45.21 37.34 44.84 38.55 45.86 38.32C46.37 37.1 45.76 35.14 47.35 34.67C47.55 33.59 49.01 33.76 49.61 32.95C50.08 32.61 49.71 31.83 49.61 31.33L49.51 31.26C49.77 31.01 50.27 30.97 50.71 31.01ZM55.51 10.63C57.98 11.14 60.34 11.81 62.57 12.89C63.96 13.57 63.48 15.09 64.5 15.9C64.87 16.54 64.13 17.15 64.84 17.69C64.81 18.2 65.08 18.91 65.72 18.5C66.02 18.23 66.43 17.93 66.87 18.16C67.65 18.77 67.71 19.78 67.75 20.59C67.92 21.3 68.36 21.6 68.97 21.91C70.12 21.67 69.68 23.4 70.86 23.36C71.4 23.7 71.87 24.24 72.55 24.24C73.36 24.88 73.84 25.83 74.41 26.61C74.82 26.85 75.25 26.58 75.63 26.44C77.08 29.41 77.79 32.73 78.16 36.17L72.95 36.27C72.78 35.36 72.98 34.28 72.48 33.5C72.55 32.96 72.62 32.22 72.72 31.54C72.52 31.03 72.21 31.54 71.98 31.64C71.51 33.09 70.02 34.65 71.17 36.27L69.14 36.17C69.41 35.8 68.97 35.26 69.24 34.78C70.39 35.09 70.49 33.73 71.1 33.16C71.27 32.28 72.25 31.33 71.4 30.42C72.01 29.51 71.7 28.29 71.33 27.48C71.09 27.14 70.25 27.55 70.45 26.84C70.65 26.6 70.96 26.43 70.86 26.03C70.62 25.66 70.35 26.1 70.05 25.96C69.95 25.52 70.76 25.28 70.29 24.91C69.75 24.13 68.77 25.72 68.57 24.51C68.67 23.8 68 23.33 67.46 22.89C66.82 22.96 67.36 22.11 66.95 21.91C65.19 21.06 66.54 18.29 64.21 18.33C63.77 17.72 63.16 16.61 62.35 16.54C62.05 17.15 62.96 17.42 62.89 18.03H62.75C62.68 18.47 63.09 19.15 63.39 19.31C60.04 16.81 55.99 15.49 51.69 15.42C51.79 13.76 51.89 11.74 51.62 10.05C52.84 10.39 54.23 10.42 55.51 10.63ZM51.69 2.67999C53.41 3.14999 55.37 3.04999 57.13 3.41999C63.59 4.59999 69.5 7.57999 74.33 12.17C72.98 12.88 71.76 14.1 70.98 15.48V15.58C70.71 14.97 69.97 14.6 70.03 13.79C69.42 13.22 68.95 12.34 68.07 12.17C67.73 11.06 66.62 11.73 65.97 11.02C63.67 12.51 61.64 9.69999 59.31 9.39999C57.11 8.72999 54.81 8.13999 52.41 8.27999C52.55 7.86999 52.54 7.29999 52.07 7.12999C51.93 7.22999 51.7 7.22999 51.66 7.46999C51.83 5.92999 51.83 4.02999 51.69 2.67999ZM85.29 35.94L85.46 36.11C83.77 36.08 81.78 36.14 80.02 36.35C79.82 32.43 79.01 28.41 77.25 24.99C77.25 23.57 76.03 22.83 75.56 21.68C74.31 20.56 73.63 19.08 72.15 18.03C71.85 17.83 71.98 17.29 71.51 17.29L72.08 17.22L75.63 13.4C81.37 19.65 84.95 27.15 85.29 35.94ZM84.78 43.18C83.7 49.77 80.62 55.58 76.13 60.76C74.95 59.51 73.49 58.02 72.21 56.87C76.77 52.04 79.71 45.51 80.02 38.38L79.85 38.04L80.09 38.31C81.92 38.21 83.88 38.51 85.53 38.04C85.05 39.66 85.15 41.49 84.78 43.18ZM52.03 71.64L51.79 71.81V66.13C53.65 66.43 55.54 65.93 57.37 65.62C58.59 65.89 59.37 67.65 60.72 67.11C64.17 65.83 64.51 61.9 68.02 60.69C69.1 60.05 70.12 59.1 70.86 58.09C71.87 59.41 73.36 60.76 74.75 62.08C68.63 67.82 60.75 71.26 52.03 71.64ZM54.13 60.28C54.16 60.85 53.49 61.56 53.96 62.24C54.23 63.25 55.24 63.19 55.92 63.86C54.77 64.06 53.05 64.03 51.8 64.5L51.87 60.21L51.53 59.64C52.1 60.38 53.32 59.91 54.13 60.28ZM57.71 46.01C57.54 46.62 56.66 46.52 56.26 47.06C56.15 46.42 56.97 45.88 57.71 46.01ZM60.55 25.97C58.29 23.91 54.94 22.62 51.8 22.39C51.9 20.73 51.97 18.87 51.7 17.28C56.5 17.62 60.66 19.44 64.38 22.39C63.05 23.13 61.73 24.75 60.55 25.97ZM70.35 41.79C70.25 40.57 68.63 40.2 68.66 39.02L67.75 37.97C68.63 38.54 69.95 38.21 71 38.31C70.65 39.42 70.69 40.67 70.35 41.79ZM58.52 43.08C58.82 43.08 58.82 43.82 59.4 43.82C59.74 44.09 59.7 44.5 59.8 44.87C59.7 45.01 59.5 44.94 59.33 44.94C59.23 44.05 57.78 44.12 58.52 43.08ZM63.15 50.71C64.57 50.88 64.37 49.22 64.84 48.45C64.81 48.01 64.81 47.57 65.18 47.3C65.21 46.66 65.11 45.98 64.77 45.44C64.16 45.2 63.38 45.44 63.22 46.08C63.08 46.25 63.15 46.52 62.88 46.65C62.54 46.45 61.87 47.16 61.66 46.55C63.21 47.02 62.81 44.83 64.36 45.27C64.8 44.66 65.41 44.09 65.48 43.31C65.51 43.61 65.58 43.99 65.89 44.05C66.74 44.15 66.53 42.73 67.51 43.47C68.42 43.61 69.06 43.1 69.94 43.17C69.33 45.94 67.78 48.1 65.98 50.37C65.71 49.96 65.84 49.15 65.24 49.09C64.8 49.6 64.53 50.21 64.43 50.88C63.72 51.42 62.54 51.18 61.59 51.29C60.71 50.48 59.49 50.48 58.41 50.07V49.73C60.04 49.77 61.66 50.17 63.15 50.71ZM66.23 59C65.38 58.12 66.74 57.38 67.11 56.63C67.04 55.08 63.29 55.01 65.83 53.22V53.15C66.47 54.37 68.3 55.04 68.26 56.56C68.5 56.97 69.04 57.17 69.48 56.86L66 59.8C66.09 59.54 66.5 59.3 66.23 59ZM72.72 40.17C72.69 39.46 73.09 38.82 72.89 38.14C74.55 38.41 76.47 38.31 78.23 38.21C77.59 39.56 77.79 41.45 77.42 43.01C76.34 47.67 74.21 51.97 70.76 55.58C70.66 54.73 70.56 52.91 69.24 52.5C69.04 52.4 68.97 52.64 68.83 52.74V53.21C68.15 53.04 67.71 52.2 67.11 51.82H67.35C69.72 49.18 71.37 46.14 72.22 42.83C72.59 42.97 72.9 43 73.2 42.76C73.63 41.66 72.01 41.35 72.72 40.17ZM69.78 30.26C69.98 31.41 71 32.63 69.71 33.57C69.57 33.81 69.24 33.98 68.9 33.91C68.63 33.3 69.37 33.1 69.24 32.46C69.48 32.32 69.92 31.99 69.65 31.65C69.07 31.55 68.91 30.64 68.26 30.6C67.62 30.43 67.14 30.84 66.81 31.14C66.74 31 66.61 30.87 66.47 30.73C66.61 30.49 66.98 30.22 66.71 29.92C66.1 29.58 66 28.77 65.32 28.4C64.1 28.27 63.12 28.37 62 28C60.89 27.73 61.19 29.01 60.78 29.52C60.75 29.62 60.48 29.35 60.37 29.11C61.89 27.35 63.92 25.43 65.48 23.6C66.29 24.85 67.81 25.87 67.85 27.35C67.58 27.52 67.38 27.89 67.34 28.23C68.19 29.01 69.27 29.22 69.78 30.26ZM55.58 27.59C55.38 27.42 55.38 26.88 54.94 27.08C54.47 27.69 53.72 27.86 53.32 28.57L51.93 28.06L51.79 24.41C54.39 24.82 56.79 25.73 58.99 27.08C58.69 27.39 58.04 27.69 57.94 28.16C58.24 28.26 58.41 28.63 58.75 28.3C58.31 29.69 56.35 29.52 56.15 30.9C55.07 32.02 54.46 29.58 53.41 30.66H53C54.02 29.99 55.85 29.25 55.58 27.59ZM49.6 50.61C49.67 50.27 50.31 50.44 50.48 49.97C51.26 50.07 51.29 49.09 51.7 48.75C52.24 48.85 52.82 47.84 53.15 48.68C53.93 48.34 54.47 50.23 54.7 48.75C55.14 48.88 55.54 49.56 55.98 49.09C56.35 48.85 56.05 48.45 55.91 48.28C56.32 48.48 56.86 49.09 57.3 48.52C57.5 48.08 57.81 48.08 58.18 47.88C58.62 48.05 58.42 48.69 58.28 48.99C57.7 49.8 56.62 50.44 55.58 50.61C55.38 50.98 55.38 51.49 54.87 51.52C54.43 50.78 53.01 51.69 53.08 50.47C52.34 50.57 51.53 50.2 50.88 50.78C50.48 50.85 49.97 51.05 49.6 50.61ZM27.19 62.31L30.94 58.42C36.01 63.42 42.57 66.09 49.77 66.29L49.84 66.19C49.54 67.81 49.74 69.6 49.67 71.29L49.91 71.7C41.28 71.16 33.61 68.05 27.19 62.31ZM29.15 38.31C28.93 38.98 28.92 39.84 29.25 40.5C29.1 40.33 28.91 40.19 28.75 40.07C27.6 39.97 27.57 41.42 26.49 41.46C25.75 42.47 25.58 43.79 25.44 44.94C25.03 44.94 25.24 45.48 24.93 45.68C24.73 43.35 24.05 40.98 23.88 38.55L23.71 38.31C25.43 38.55 27.46 38.55 29.15 38.31ZM34.76 22.39C31.18 26.18 29.32 30.94 28.98 36.18L29.15 36.42C27.49 36.28 25.57 36.39 23.81 36.35C24.25 29.73 26.65 23.81 30.94 18.91V18.57C32.02 19.92 33.34 21.24 34.76 22.39ZM38.07 28.98C37.09 29.49 36.79 30.57 35.64 30.74C35.03 31.05 35.84 31.65 35.07 31.82C33.45 31.72 33.24 33.65 32.74 34.73C32.74 35.3 32.67 35.91 33.04 36.35L30.84 36.42C31.35 33.65 31.72 30.84 33.04 28.41C33.85 26.75 34.97 25.2 36.12 23.78C37.51 25.06 38.55 26.42 40.11 27.5C39.19 27.59 38.98 28.88 38.07 28.98ZM45.37 54.67C45.94 55.62 46.45 56.87 47.74 57.04C44.22 56.46 40.47 54.67 37.5 52.1H37.26C38.54 51.02 39.83 49.77 40.91 48.45C42.46 50.28 44.63 51.22 46.76 51.93C47.17 51.83 47.57 51.76 47.98 51.69C47.13 51.79 46.46 52.2 46.02 52.91C46.22 53.72 45.03 53.89 45.37 54.67ZM33.85 38.38C34.22 38.11 34.86 38.62 35 37.97C35.07 37.19 33.82 36.01 35.07 35.6C35.61 35.63 36.35 35.5 36.45 36.17C36.72 37.02 36.28 38.23 36.52 39.01L35.71 39.42C35.41 39.22 35.24 38.74 34.83 38.78C34.36 39.12 35 39.39 34.9 39.76C34.87 40.03 34.8 40.33 34.83 40.64C34.56 40.67 34.25 40.44 34.09 40.81C34.09 41.38 34.7 41.52 35 41.79C35.58 41.55 35.54 40.64 35.64 40L36.22 40.34C36.69 42.88 37.94 45.31 39.53 47.14L35 51.84C35 51.5 34.43 51.7 34.76 51.3C35.03 51.13 35.5 51 35.47 50.56C35.5 49.71 35.2 48.9 34.66 48.36C34.49 47.18 34.66 45.79 34.02 44.88C34.19 43.6 33.48 42.48 32.57 41.57C32.94 40.89 32.16 40.56 32.4 39.85C33.14 39.63 34.01 39.42 33.85 38.38ZM31.26 41.96C31.51 40.66 31.12 39.38 30.77 38.21C31.31 38.51 31.78 38.51 32.39 38.38C31.61 38.45 31.92 39.73 31.51 40.34C32.48 40.84 31.43 41.4 31.26 41.96ZM49.83 64.5L49.42 64.26C42.76 63.95 36.98 61.12 32.05 56.86C32.62 56.79 33.47 57.97 34.48 57.43C35.6 56.58 36.98 57.09 38.13 56.38C38.43 55.67 37.66 55.64 37.66 55.06C41.14 57.66 45.23 59.56 49.76 59.29C49.66 60.99 49.56 62.88 49.83 64.5ZM43.34 43.08C43.61 42.71 43.98 42.34 44.08 41.86L44.62 42.2C44.09 42.16 43.82 42.87 43.34 43.08ZM45.78 43.41C45.92 44.19 46.83 44.29 47.33 44.69C48.24 44.99 49.19 45.7 50.24 45.2C49.8 45.37 50.21 45.91 50.07 46.15C50 46.46 49.8 46.89 50 47.37C50.17 47.64 50.37 47.64 50.41 47.95C50.11 48.29 49.6 47.98 49.26 48.19C48.92 48.7 48.92 49.34 48.96 49.98C46.56 49.61 44.4 48.49 42.54 47.07L45.78 43.41ZM42.06 42.91C42.26 42.61 41.82 42.4 41.96 42.03C42.37 42.27 42.16 43.01 42.47 43.42C42.61 43.56 42.5 43.79 42.54 44L40.99 45.62C40.14 44.1 39.13 42.68 38.73 40.99L38.43 40.48C38.8 40.99 39.85 40.44 39.88 41.29C40.29 41.66 40.86 41.09 40.76 41.86C41.01 42.47 41.55 42.7 42.06 42.91ZM49.66 15.43C44.49 15.5 39.69 17.63 36.11 21.11C34.99 19.89 33.68 18.41 32.32 17.46C37.22 13.1 43.1 10.73 49.66 10.23C49.56 11.91 49.56 13.73 49.66 15.43ZM16.57 38.38C18.33 38.48 20.29 38.55 22.01 38.31C21.91 40.64 22.38 43.18 23.12 45.34C22.61 44.77 22.17 43.68 21.26 44.46C20.92 44.6 21.33 45.34 20.68 45.1C20.55 44.86 19.84 44.59 19.46 44.93C18.89 45.78 18.55 46.79 18.82 47.87C19.53 48.44 19.02 50.17 20.27 49.8C20.61 50.17 21.05 50.92 21.66 50.95L22 50.37C22.34 51.28 23.22 51.21 23.69 51.99C24.5 51.58 24.13 52.67 24.6 52.9C25.11 53.2 25.34 54.15 26.12 53.78C26.19 53.71 26.32 53.64 26.29 53.54C26.49 54.25 27.07 55.06 27.91 55.23C28.59 55.8 29.03 56.58 29.7 57.02C28.35 58.1 26.96 59.59 25.71 60.91C20.12 54.53 16.94 47 16.57 38.38ZM14.88 41.62C16.13 55.61 27.18 68.56 40.74 72.11C55.65 76.23 70.76 71 79.91 58.89C88.19 48.68 89.61 31.44 82.75 20.12C79.54 13.93 73.39 7.84999 67.27 4.87999C57.2 -0.770006 42.3 -0.0900054 32.63 5.85999C20.09 13.26 13.19 26.78 14.88 41.62Z" fill="#0099D6"/>
<path d="M68.96 11.67L68.72 10.62C68.45 9.93999 67.54 10.28 67.1 10.05C66.83 10.12 66.93 10.56 67.03 10.73C67.92 10.8 67.92 12.28 68.96 11.67Z" fill="#0099D6"/>
<path d="M53.96 7.78999C55.48 7.10999 57.31 8.22999 58.59 6.80999C58.22 5.79999 56.87 5.75999 55.85 5.58999L53.42 6.66999C53.15 6.79999 52.3 6.35999 52.44 7.07999C52.91 7.37999 53.38 7.71999 53.96 7.78999Z" fill="#0099D6"/>
<path d="M7.17997 28.41C8.15997 26.45 10.05 24.59 11.71 23.2C15.53 20.73 18.94 16.81 19.08 12.42C17.05 17.63 10.36 18.3 8.69997 23.85H8.52997C11 19.25 9.60997 12.76 14.31 9.34999C11.84 10.06 9.74997 11.89 8.45997 14.05C5.71997 18.06 7.94997 23.64 7.17997 28.41Z" fill="#0099D6"/>
<path d="M14.48 15.49C18.81 12.48 19.92 7.57999 24.11 4.46999C20.9 5.74999 17.42 6.79999 15.02 9.80999C13.16 12.24 12.59 15.15 11.64 17.92L14.48 15.49Z" fill="#0099D6"/>
<path d="M91.54 18.97C91.88 20.46 92.79 21.81 92.89 23.3C90.96 17.72 84.47 17.12 82.11 11.84L82.85 14.92C84.68 20.9 91.81 22.36 94.51 27.76C93.67 23.84 95.15 19.75 93.97 15.9C92.99 12.59 90.25 9.68 86.91 8.7C90.5 11.07 90.26 15.43 91.54 18.97Z" fill="#0099D6"/>
<path d="M8.45997 53.96C8.08997 52.37 8.15997 50.38 8.38997 48.75C9.80997 43.1 12.04 37.66 11.7 31.41C10.86 35.9 6.82997 39.08 6.35997 43.71C6.05997 45.6 6.52997 47.46 6.76997 49.15C6.32997 48.3 5.91997 47.32 5.85997 46.24C5.17997 40.16 0.279969 35.69 1.32997 29.1C-0.430031 33.16 -0.330031 38.53 0.989969 42.75C2.13997 47.13 6.29997 50.17 8.45997 53.96Z" fill="#0099D6"/>
<path d="M118.4 74.86C116.58 74.86 115.1 73.38 115.1 71.56C115.1 69.74 116.58 68.26 118.4 68.26C120.22 68.26 121.7 69.73 121.7 71.56C121.69 73.39 120.22 74.86 118.4 74.86Z" fill="#E0243B"/>
<path d="M141.89 74.86C140.07 74.86 138.59 73.38 138.59 71.56C138.59 69.74 140.07 68.26 141.89 68.26C143.71 68.26 145.19 69.73 145.19 71.56C145.19 73.39 143.71 74.86 141.89 74.86Z" fill="#4C9A38"/>
<path d="M165.39 74.86C163.57 74.86 162.09 73.38 162.09 71.56C162.09 69.74 163.57 68.26 165.39 68.26C167.21 68.26 168.69 69.73 168.69 71.56C168.69 73.39 167.21 74.86 165.39 74.86Z" fill="#FF3A21"/>
<path d="M188.89 74.86C187.07 74.86 185.59 73.38 185.59 71.56C185.59 69.74 187.07 68.26 188.89 68.26C190.71 68.26 192.19 69.73 192.19 71.56C192.18 73.39 190.71 74.86 188.89 74.86Z" fill="#F7BE0B"/>
<path d="M212.38 74.86C210.56 74.86 209.08 73.38 209.08 71.56C209.08 69.74 210.56 68.26 212.38 68.26C214.2 68.26 215.68 69.73 215.68 71.56C215.68 73.39 214.2 74.86 212.38 74.86Z" fill="#F86925"/>
<path d="M235.88 74.86C234.06 74.86 232.58 73.38 232.58 71.56C232.58 69.74 234.06 68.26 235.88 68.26C237.7 68.26 239.18 69.73 239.18 71.56C239.18 73.39 237.7 74.86 235.88 74.86Z" fill="#F89824"/>
<path d="M259.38 74.86C257.56 74.86 256.08 73.38 256.08 71.56C256.08 69.74 257.56 68.26 259.38 68.26C261.2 68.26 262.68 69.73 262.68 71.56C262.67 73.39 261.2 74.86 259.38 74.86Z" fill="#3F7E44"/>
<path d="M130.14 74.86C128.32 74.86 126.84 73.38 126.84 71.56C126.84 69.74 128.32 68.26 130.14 68.26C131.96 68.26 133.44 69.73 133.44 71.56C133.44 73.39 131.97 74.86 130.14 74.86Z" fill="#D8A13A"/>
<path d="M153.64 74.86C151.82 74.86 150.34 73.38 150.34 71.56C150.34 69.74 151.82 68.26 153.64 68.26C155.46 68.26 156.94 69.73 156.94 71.56C156.94 73.39 155.46 74.86 153.64 74.86Z" fill="#C0192D"/>
<path d="M177.14 74.86C175.32 74.86 173.84 73.38 173.84 71.56C173.84 69.74 175.32 68.26 177.14 68.26C178.96 68.26 180.44 69.73 180.44 71.56C180.44 73.39 178.96 74.86 177.14 74.86Z" fill="#2688DD"/>
<path d="M200.63 74.86C198.81 74.86 197.33 73.38 197.33 71.56C197.33 69.74 198.81 68.26 200.63 68.26C202.45 68.26 203.93 69.73 203.93 71.56C203.93 73.39 202.46 74.86 200.63 74.86Z" fill="#9D1942"/>
<path d="M224.13 74.86C222.31 74.86 220.83 73.38 220.83 71.56C220.83 69.74 222.31 68.26 224.13 68.26C225.95 68.26 227.43 69.73 227.43 71.56C227.43 73.39 225.95 74.86 224.13 74.86Z" fill="#D81367"/>
<path d="M247.63 74.86C245.81 74.86 244.33 73.38 244.33 71.56C244.33 69.74 245.81 68.26 247.63 68.26C249.45 68.26 250.93 69.73 250.93 71.56C250.93 73.39 249.45 74.86 247.63 74.86Z" fill="#BA862E"/>
<path d="M271.12 74.86C269.3 74.86 267.82 73.38 267.82 71.56C267.82 69.74 269.3 68.26 271.12 68.26C272.94 68.26 274.42 69.73 274.42 71.56C274.42 73.39 272.95 74.86 271.12 74.86Z" fill="#0A92D4"/>
<path d="M294.62 74.86C292.8 74.86 291.32 73.38 291.32 71.56C291.32 69.74 292.8 68.26 294.62 68.26C296.44 68.26 297.92 69.73 297.92 71.56C297.92 73.39 296.44 74.86 294.62 74.86Z" fill="#006898"/>
<path d="M282.87 74.86C281.05 74.86 279.57 73.38 279.57 71.56C279.57 69.74 281.05 68.26 282.87 68.26C284.69 68.26 286.17 69.73 286.17 71.56C286.17 73.39 284.7 74.86 282.87 74.86Z" fill="#56BB2B"/>
<path d="M306.37 74.86C304.55 74.86 303.07 73.38 303.07 71.56C303.07 69.74 304.55 68.26 306.37 68.26C308.19 68.26 309.67 69.73 309.67 71.56C309.67 73.39 308.19 74.86 306.37 74.86Z" fill="#19486A"/>
<path d="M126.34 12.6291H128.274V23.2051C128.274 24.297 128.017 25.272 127.502 26.1299C126.992 26.9826 126.272 27.656 125.341 28.1499C124.411 28.6387 123.319 28.8831 122.066 28.8831C120.813 28.8831 119.721 28.6387 118.79 28.1499C117.859 27.656 117.137 26.9826 116.622 26.1299C116.112 25.272 115.857 24.297 115.857 23.2051V12.6291H117.792V23.0491C117.792 23.8291 117.963 24.5232 118.306 25.1316C118.65 25.7347 119.138 26.2105 119.773 26.5589C120.412 26.902 121.177 27.0736 122.066 27.0736C122.955 27.0736 123.719 26.902 124.359 26.5589C124.998 26.2105 125.487 25.7347 125.825 25.1316C126.168 24.5232 126.34 23.8291 126.34 23.0491V12.6291Z" fill="#0099D6"/>
<path d="M144.803 12.6291V28.6023H142.931L134.227 16.0609H134.071V28.6023H132.137V12.6291H134.009L142.744 25.2018H142.9V12.6291H144.803Z" fill="#0099D6"/>
<path d="M150.608 12.6291V28.6023H148.673V12.6291H150.608Z" fill="#0099D6"/>
<path d="M153.612 14.345V12.6291H165.592V14.345H160.569V28.6023H158.635V14.345H153.612Z" fill="#0099D6"/>
<path d="M168.577 28.6023V12.6291H178.217V14.345H170.512V19.7422H177.718V21.458H170.512V26.8864H178.342V28.6023H168.577Z" fill="#0099D6"/>
<path d="M186.633 28.6023H181.704V12.6291H186.851C188.401 12.6291 189.727 12.9489 190.829 13.5885C191.931 14.2228 192.776 15.1353 193.364 16.326C193.951 17.5116 194.245 18.931 194.245 20.5845C194.245 22.2484 193.949 23.6809 193.356 24.882C192.763 26.0779 191.9 26.9982 190.767 27.643C189.633 28.2825 188.255 28.6023 186.633 28.6023ZM183.638 26.8864H186.508C187.829 26.8864 188.923 26.6316 189.792 26.1221C190.66 25.6125 191.307 24.8872 191.734 23.9461C192.16 23.0049 192.373 21.8844 192.373 20.5845C192.373 19.295 192.163 18.1849 191.742 17.2542C191.32 16.3182 190.691 15.6007 189.854 15.1015C189.017 14.5972 187.975 14.345 186.727 14.345H183.638V26.8864Z" fill="#0099D6"/>
<path d="M216.333 12.6291V28.6023H214.461L205.757 16.0609H205.601V28.6023H203.667V12.6291H205.539L214.274 25.2018H214.43V12.6291H216.333Z" fill="#0099D6"/>
<path d="M220.859 28.6023H218.831L224.696 12.6291H226.693L232.558 28.6023H230.53L225.757 15.1561H225.632L220.859 28.6023ZM221.607 22.3628H229.781V24.0786H221.607V22.3628Z" fill="#0099D6"/>
<path d="M232.306 14.345V12.6291H244.286V14.345H239.263V28.6023H237.329V14.345H232.306Z" fill="#0099D6"/>
<path d="M249.206 12.6291V28.6023H247.271V12.6291H249.206Z" fill="#0099D6"/>
<path d="M266.561 20.6157C266.561 22.3004 266.257 23.7563 265.649 24.9834C265.04 26.2105 264.206 27.1568 263.145 27.8224C262.084 28.4879 260.873 28.8207 259.511 28.8207C258.148 28.8207 256.937 28.4879 255.876 27.8224C254.815 27.1568 253.981 26.2105 253.372 24.9834C252.764 23.7563 252.46 22.3004 252.46 20.6157C252.46 18.931 252.764 17.4752 253.372 16.2481C253.981 15.0209 254.815 14.0746 255.876 13.4091C256.937 12.7435 258.148 12.4107 259.511 12.4107C260.873 12.4107 262.084 12.7435 263.145 13.4091C264.206 14.0746 265.04 15.0209 265.649 16.2481C266.257 17.4752 266.561 18.931 266.561 20.6157ZM264.689 20.6157C264.689 19.2326 264.458 18.0653 263.995 17.1138C263.538 16.1623 262.916 15.4421 262.131 14.9534C261.351 14.4646 260.478 14.2202 259.511 14.2202C258.543 14.2202 257.667 14.4646 256.882 14.9534C256.102 15.4421 255.481 16.1623 255.018 17.1138C254.561 18.0653 254.332 19.2326 254.332 20.6157C254.332 21.9988 254.561 23.1661 255.018 24.1176C255.481 25.0692 256.102 25.7893 256.882 26.2781C257.667 26.7668 258.543 27.0112 259.511 27.0112C260.478 27.0112 261.351 26.7668 262.131 26.2781C262.916 25.7893 263.538 25.0692 263.995 24.1176C264.458 23.1661 264.689 21.9988 264.689 20.6157Z" fill="#0099D6"/>
<path d="M282.48 12.6291V28.6023H280.608L271.904 16.0609H271.748V28.6023H269.814V12.6291H271.685L280.421 25.2018H280.577V12.6291H282.48Z" fill="#0099D6"/>
<path d="M295.086 16.6224C294.992 15.8321 294.612 15.2185 293.947 14.7818C293.281 14.345 292.465 14.1266 291.498 14.1266C290.791 14.1266 290.172 14.241 289.642 14.4698C289.116 14.6986 288.706 15.0131 288.409 15.4135C288.118 15.8139 287.973 16.2688 287.973 16.7784C287.973 17.2048 288.074 17.5713 288.277 17.8781C288.485 18.1797 288.75 18.4319 289.072 18.6347C289.395 18.8323 289.733 18.996 290.086 19.126C290.44 19.2508 290.765 19.3522 291.061 19.4302L292.683 19.867C293.099 19.9762 293.562 20.127 294.072 20.3193C294.586 20.5117 295.078 20.7743 295.546 21.1071C296.019 21.4346 296.409 21.8558 296.716 22.3706C297.022 22.8853 297.176 23.5171 297.176 24.2658C297.176 25.129 296.95 25.9089 296.497 26.6056C296.05 27.3024 295.395 27.8562 294.532 28.2669C293.674 28.6777 292.631 28.8831 291.404 28.8831C290.26 28.8831 289.27 28.6985 288.433 28.3293C287.601 27.9601 286.946 27.4454 286.467 26.785C285.994 26.1247 285.726 25.3577 285.664 24.4842H287.661C287.713 25.0874 287.915 25.5865 288.269 25.9817C288.628 26.3717 289.08 26.6628 289.626 26.8552C290.177 27.0424 290.77 27.136 291.404 27.136C292.143 27.136 292.806 27.0164 293.393 26.7772C293.981 26.5329 294.446 26.1949 294.789 25.7633C295.132 25.3265 295.304 24.817 295.304 24.2346C295.304 23.7043 295.156 23.2727 294.859 22.9399C294.563 22.6072 294.173 22.3368 293.69 22.1288C293.206 21.9208 292.683 21.7388 292.122 21.5828L290.156 21.0213C288.908 20.6625 287.921 20.1503 287.193 19.4848C286.465 18.8193 286.101 17.9483 286.101 16.872C286.101 15.9777 286.342 15.1977 286.826 14.5322C287.315 13.8614 287.97 13.3415 288.792 12.9723C289.618 12.5979 290.541 12.4107 291.56 12.4107C292.59 12.4107 293.505 12.5953 294.306 12.9645C295.106 13.3285 295.741 13.8276 296.209 14.462C296.682 15.0963 296.931 15.8165 296.957 16.6224H295.086Z" fill="#0099D6"/>
</svg>
