<svg width="83" height="131" viewBox="0 0 83 131" fill="none" xmlns="http://www.w3.org/2000/svg">
<g clip-path="url(#clip0_50_194)">
<path d="M71.4188 31.0496C70.8831 32.41 71.1035 34.141 70.3 35.3226C70.2481 34.6468 70.6153 33.9928 70.6628 33.2646C71.2719 28.7168 67.4489 26.0265 66.5763 22.1808C66.5304 23.1636 66.5869 24.1487 66.7448 25.1196C66.9608 29.9159 70.0062 33.8401 69.1293 38.8152C69.9933 37.6336 70.6628 36.4302 71.7212 35.2703C75.2245 31.503 76.1273 25.1981 74.1057 20.3713C74.7882 24.4438 72.3994 27.509 71.4274 31.0496" fill="white"/>
<path d="M70.6672 20.2971C70.7363 21.832 70.9825 23.3493 70.8831 24.8929C70.7035 24.2739 70.5593 23.6449 70.4512 23.0092C69.7384 19.569 65.8204 17.8772 64.235 14.9951C64.4363 15.9686 64.6886 16.9307 64.991 17.8772C66.356 21.9453 70.4468 24.6836 71.0041 29.1093C71.3713 24.8842 74.2439 21.518 73.164 16.9223C72.6024 14.6113 71.678 12.3484 69.9976 10.5912C71.7989 13.3033 70.7751 17.1316 70.6585 20.2884" fill="white"/>
<path d="M17.7802 50.1432C16.3893 46.1972 15.1884 42.0767 12.1646 38.885L12.8687 40.7468C13.5512 44.9196 13.8665 49.5153 17.5427 52.1533L17.4951 52.2056C16.3029 51.678 15.4001 50.6446 14.3288 49.9688C10.8729 47.6579 6.1212 46.6245 4.15139 42.2032C4.68704 45.4472 6.82964 48.3337 9.41286 50.3438C12.5015 53.1605 16.8126 52.9338 20.5881 54.0631C19.3167 53.0384 18.3484 51.6809 17.7889 50.1388" fill="white"/>
<path d="M13.3223 48.0372C10.5706 43.1362 12.0263 36.4781 9.8146 31.3548C10.1083 33.0117 9.59861 34.468 9.35239 35.9767C8.52731 38.8675 8.94201 42.2598 10.5706 44.6187C10.0349 44.344 9.70661 43.69 9.35239 43.1144C7.34369 39.1161 2.24637 36.8575 1.80575 32.0568C1.77983 33.8009 1.77983 35.6235 2.29389 37.1845C3.70645 42.5607 9.45174 45.3469 13.3223 48.0372Z" fill="white"/>
<path d="M30.0527 55.8116C24.6444 55.5587 21.7242 49.4761 17.3656 46.8904C19.2403 49.1491 19.3138 52.1228 21.9186 54.002C22.9165 54.9046 24.2556 55.079 25.3744 55.5587C24.1346 55.6851 22.9899 55.1575 21.7458 55.079C17.5599 54.5514 12.765 55.1052 9.69365 51.5908C11.0846 54.1067 13.5426 56.2912 16.1215 57.1458C20.9942 59.0687 25.4003 56.2476 30.0527 55.8116Z" fill="white"/>
<path d="M55.859 54.7956C54.4723 54.9744 53.1073 55.4017 51.7207 55.4017C51.7682 55.3494 51.8157 55.2491 51.8934 55.2752C56.4465 54.8741 57.7338 49.7726 59.6086 46.607C56.8093 48.4907 54.3989 51.7085 51.833 53.7666C50.4204 54.8741 48.74 55.2011 47.0812 55.7026C50.7358 55.9773 53.7769 57.7606 57.5999 57.5121C59.6427 57.4079 61.6225 56.7632 63.3406 55.6428C65.0587 54.5224 66.4547 52.9656 67.3884 51.1286C64.5676 54.595 60.0448 54.3945 55.872 54.7956" fill="white"/>
<path d="M52.4291 58.6675C48.2648 56.7054 43.444 54.5209 38.5713 56.3784C35.9235 55.5499 33.0893 55.5499 30.4415 56.3784C26.1563 58.3885 20.3116 61.432 15.7802 58.0615C16.6442 59.121 17.5599 59.6224 18.5319 60.3506C21.4564 62.3084 25.6681 62.0947 28.6877 60.525C31.461 59.3216 33.582 55.7287 37.1112 56.858C34.0472 58.389 31.2701 60.4456 28.9037 62.9362L30.4112 64.2705C32.5675 61.2986 35.4221 58.9146 38.7182 57.3333C41.7852 58.8681 44.5844 61.5061 46.8998 64.144L48.4074 62.8142C45.9782 60.4322 43.214 58.4252 40.2042 56.858C41.0135 56.6945 41.8441 56.668 42.6621 56.7795C45.8285 58.2141 48.2778 61.0788 51.8416 61.5061C55.643 62.134 59.0254 60.5512 61.3451 57.6865L59.5438 58.6675C57.4271 59.6486 54.576 59.3957 52.4118 58.6675" fill="white"/>
<path d="M68.4986 46.4283C65.4748 47.8846 62.4121 49.5459 59.8591 51.8568H59.5654L59.7381 51.6039C64.1443 48.5909 62.9521 42.7613 64.8268 38.4664L62.7793 41.2265C60.0276 45.1507 60.3429 50.5008 56.5242 53.8407C58.4941 53.191 60.6626 52.912 62.7058 52.4585C67.3107 51.2551 72.1532 46.5809 72.8141 41.7061C71.9847 43.7423 70.2525 45.2466 68.4943 46.4283" fill="white"/>
<path d="M66.3776 12.0562C65.8204 10.8484 65.6994 9.44007 65.1119 8.23663C63.9456 4.8705 60.317 3.2354 57.3364 2.20638L59.1809 4.14234C61.0837 7.19417 63.5157 9.87497 66.3603 12.0562" fill="white"/>
<path d="M12.4453 15.4224C10.8643 18.4135 7.01539 20.1445 6.31127 23.7069C6.27434 24.277 6.17584 24.8414 6.01753 25.3899L5.89657 25.2679L6.09096 22.9787C6.74757 18.8801 4.43649 14.6593 6.47974 11.1667C5.07775 12.9185 4.10269 14.978 3.63301 17.1796C2.68267 21.8014 5.38684 25.3725 5.97001 29.5932C6.74757 24.2912 12.1559 20.9512 12.4497 15.4224" fill="white"/>
<path d="M74.2698 34.2936C72.11 37.7339 68.4727 40.5506 66.6714 44.1173C66.6238 44.2438 66.4511 44.3179 66.3776 44.1958L66.7448 43.7162C69.3367 39.8704 67.0126 35.1482 67.1768 30.849C64.8614 36.0028 66.5418 42.8354 63.721 47.7363L64.1875 47.3352C69.6606 44.2438 76.2828 39.0507 75.1683 31.4551C75.0692 32.4496 74.7755 33.4144 74.3044 34.2936" fill="white"/>
<path d="M20.506 9.26566L20.627 9.645L23.2577 12.283C20.4326 15.0953 18.8516 18.6882 17.9962 22.4816C17.8494 23.7636 17.5124 25.0193 17.6593 26.3274L13.6894 26.2751C13.9372 19.9799 16.3472 13.9679 20.506 9.27002V9.26566ZM37.5259 1.37792C37.4076 2.69871 37.4236 4.02825 37.5734 5.34577C32.5548 5.50329 27.7876 7.59943 24.2556 11.2016L21.3829 8.36308C25.9576 4.14234 31.34 1.74419 37.5259 1.37792ZM37.5821 15.9761C35.314 16.0585 33.1577 16.9913 31.5344 18.5923C30.584 17.6897 29.7806 16.6302 28.7827 15.9761C31.3746 13.8919 34.1867 12.3571 37.5475 12.1565L37.6685 12.0562C37.5106 13.3583 37.4859 14.6733 37.595 15.9805L37.5821 15.9761ZM36.5972 19.8262C36.2343 19.8262 36.1652 20.2623 36.014 20.5544C36.1825 20.9032 35.7678 21.1561 35.6727 21.457C35.4049 21.4308 35.0636 21.784 34.8433 21.409C34.4114 21.6314 34.1608 21.409 33.8714 21.1038C33.556 21.1823 33.5301 21.7578 33.2148 21.2826C33.2148 21.13 33.5776 21.1038 33.4567 20.8465C33.0797 20.5064 32.6157 20.2799 32.1176 20.1925C33.5776 18.5574 35.5043 17.7813 37.5475 17.4804C37.6944 18.3525 37.4481 19.5123 37.7678 20.3669C37.4481 19.8175 36.3768 20.9948 36.5972 19.8175V19.8262ZM38.351 22.3029C38.351 22.3901 38.3985 22.438 38.4503 22.4991C38.3164 22.4468 37.7289 22.3901 37.6685 22.704C37.6685 23.2316 38.3035 23.3842 38.5324 23.7374C39.5562 23.3014 39.7506 24.6661 40.58 24.8144C40.1178 25.2504 41.2366 25.6864 40.5065 25.9699C40.5065 26.2228 40.2387 26.3492 40.3338 26.6239C40.8219 26.6762 40.796 27.23 41.0379 27.5308C41.0638 27.8797 40.9212 28.307 41.3316 28.5075C41.2994 28.9419 41.2003 29.3685 41.0379 29.772C40.6272 29.8302 40.2127 29.855 39.7981 29.8461C39.094 30.2473 39.5562 31.5292 38.5799 31.4551C37.6342 31.5069 36.7017 31.2128 35.9535 30.6266C36.5583 30.474 37.0723 30.7008 37.5345 30.1906C37.5345 29.9115 37.824 29.711 37.703 29.4581C37.9708 29.0831 38.338 28.586 38.135 28.15C38.2084 27.8753 37.8672 27.823 37.703 27.6747C37.1501 27.7358 36.5021 27.4698 35.9924 27.9058C36.0399 28.2808 35.9924 28.7779 35.6036 28.8607C35.2148 28.9436 35.2364 29.5627 34.8952 29.5889L34.6014 29.0395H34.7267C34.7147 29.0646 34.7102 29.0926 34.7137 29.1202C34.7172 29.1478 34.7285 29.1738 34.7464 29.195C34.7642 29.2163 34.7877 29.2318 34.8142 29.2398C34.8406 29.2478 34.8687 29.2479 34.8952 29.2401C35.4567 29.2662 35.1889 28.5904 35.4049 28.3375L35.8369 27.7358C35.7309 27.6938 35.6434 27.6148 35.5903 27.5131C35.5372 27.4115 35.522 27.294 35.5475 27.182C35.494 27.1512 35.4342 27.1333 35.3728 27.1298C35.3114 27.1263 35.25 27.1372 35.1934 27.1617C35.1369 27.1863 35.0868 27.2237 35.047 27.2711C35.0072 27.3185 34.9789 27.3746 34.9643 27.4349C34.9863 27.55 34.9822 27.6687 34.9522 27.7819C34.9223 27.8952 34.8674 28.0002 34.7915 28.089H34.6705C34.744 27.9363 34.5496 27.884 34.4977 27.7837C33.7202 27.8099 33.0636 28.2634 32.2817 28.089C32.9642 27.9363 32.7482 26.0527 33.8671 26.9335L34.0355 26.7067C34.3768 27.0076 34.109 27.9102 34.839 27.7358C35.2062 26.8288 34.7656 25.3725 35.9103 25.0193C36.0572 24.217 37.1026 24.3435 37.5432 23.7418C37.8844 23.4889 37.6166 22.9089 37.5432 22.534L37.4697 22.4816C37.7275 22.3202 38.0343 22.2583 38.3337 22.3072L38.351 22.3029ZM41.7895 7.15528C43.5493 7.49728 45.2591 8.0628 46.8782 8.83835C47.8761 9.33978 47.5348 10.4735 48.2692 11.0752C48.537 11.5548 48.0013 12.0039 48.5111 12.4051C48.4895 12.7844 48.6839 13.312 49.1461 13.0111C49.3621 12.8106 49.6558 12.5751 49.9712 12.7582C50.5327 13.1943 50.5802 13.966 50.6062 14.5677C50.6601 14.7899 50.767 14.9955 50.9176 15.1665C51.0681 15.3374 51.2578 15.4687 51.4701 15.5488C52.2952 15.37 51.9798 16.652 52.8308 16.6302C53.2239 16.8787 53.5609 17.2798 54.049 17.2798C54.6322 17.7595 54.9734 18.4615 55.3881 19.0239C55.6819 19.1984 55.9972 18.9978 56.2521 18.8975C57.2741 21.1948 57.8994 23.6516 58.101 26.1617L54.3514 26.2358C54.2304 25.5556 54.3773 24.7533 54.0101 24.1778C54.0577 23.7723 54.1052 23.2185 54.1786 22.7171C54.0317 22.3421 53.8157 22.7171 53.643 22.7956C53.3017 23.8726 52.2304 25.028 53.0598 26.2358L51.5997 26.1617C51.7941 25.8827 51.4788 25.4815 51.6731 25.1283C52.5025 25.3551 52.5717 24.3522 53.0123 23.9249C53.1332 23.2708 53.8417 22.5688 53.2326 21.8886C53.6646 21.2128 53.4486 20.3059 53.1807 19.7085C53.0123 19.4556 52.4032 19.7565 52.5501 19.2289C52.6969 19.0545 52.9129 18.928 52.8395 18.6272C52.671 18.3525 52.4766 18.6751 52.2563 18.5748C52.1829 18.2522 52.766 18.0734 52.4248 17.7987C52.036 17.2188 51.3319 18.4004 51.185 17.4978C51.2584 16.9703 50.753 16.6258 50.3815 16.2901C49.9193 16.3424 50.3081 15.7101 50.0187 15.5619C48.7487 14.934 49.7249 12.8716 48.0445 12.8978C47.7292 12.4617 47.2886 11.6158 46.7054 11.5679C46.4851 12.0039 47.1374 12.2176 47.0942 12.671H46.9992C46.9973 12.8555 47.0381 13.0379 47.1184 13.2037C47.1986 13.3694 47.3161 13.514 47.4614 13.6259C45.0351 11.7679 42.079 10.7508 39.0335 10.7263C39.1515 9.39536 39.1355 8.05573 38.986 6.72798C39.9103 6.9258 40.8448 7.07137 41.7852 7.16401L41.7895 7.15528ZM39.0335 1.25148C40.2776 1.6003 41.6902 1.52617 42.9559 1.80523C47.6354 2.68317 51.9499 4.94793 55.3493 8.31076C54.3325 8.88711 53.4971 9.74089 52.9388 10.7743V10.8484C52.7444 10.4124 52.2088 10.1203 52.2563 9.51855C51.8243 9.08253 51.4788 8.4372 50.8437 8.31076C50.6018 7.48231 49.7984 7.98374 49.3361 7.4387C47.6774 8.54621 46.2173 6.462 44.5369 6.23527C42.9559 5.7382 41.2971 5.29345 39.5735 5.40246C39.6685 5.1016 39.6685 4.67429 39.3272 4.5304C39.2322 4.60889 39.0594 4.60889 39.0335 4.7833C39.133 3.59652 39.133 2.40338 39.0335 1.21659V1.25148ZM63.2242 25.9393L63.3452 26.0658C62.0368 26.0379 60.728 26.0961 59.4271 26.2402C59.2803 23.3275 58.6971 20.3364 57.4314 17.7987C57.4314 16.7435 56.5674 16.1898 56.2132 15.3352C55.3104 14.5067 54.8266 13.4036 53.7553 12.6231C53.535 12.4748 53.63 12.0693 53.2887 12.0693L53.7207 12.0213L56.278 9.18281C60.4163 13.8309 62.9996 19.4076 63.2415 25.9393H63.2242ZM62.8786 31.3199C62.0967 36.2165 59.885 40.5419 56.6452 44.4007C55.7812 43.472 54.7445 42.3645 53.8201 41.5142C57.2421 37.745 59.2315 32.8746 59.4358 27.7663L59.3148 27.5178L59.4833 27.7183C60.7792 27.6442 62.2091 27.8666 63.4056 27.5178C63.0644 28.7212 63.1378 30.0816 62.87 31.3374L62.8786 31.3199ZM39.2797 52.5108L39.1069 52.6373V48.3991C40.4461 48.6258 41.8111 48.2508 43.1243 48.0241C43.9883 48.2247 44.5628 49.5328 45.5348 49.1316C48.0229 48.1767 48.2648 45.2597 50.7962 44.3571C51.5954 43.8518 52.2894 43.1943 52.8395 42.4212C53.7011 43.4758 54.6366 44.4667 55.6387 45.3861C51.2375 49.7064 45.4135 52.2382 39.2797 52.4978V52.5108ZM40.7873 44.0563C40.8132 44.4923 40.3251 45.0112 40.6664 45.5126C40.8608 46.2669 41.5908 46.2146 42.0789 46.716C41.2495 46.8686 40.0098 46.8425 39.1069 47.1957L39.1545 44.0039L38.9126 43.5679C39.3445 44.1217 40.2085 43.7685 40.7873 44.0475V44.0563ZM43.3792 33.4434C43.2539 33.8794 42.6232 33.8184 42.3295 34.2195C42.256 33.7442 42.8435 33.3474 43.3792 33.4434ZM45.4224 18.54C43.6621 16.9856 41.4482 16.052 39.1156 15.8802C39.2277 14.6153 39.2031 13.3419 39.0421 12.0824C42.4054 12.3505 45.6 13.679 48.1741 15.8802C47.2238 16.4296 46.2778 17.6243 45.4224 18.54ZM52.4853 30.3127C52.4118 29.4101 51.2412 29.1354 51.2671 28.2546L50.6018 27.4698C51.2325 27.9058 52.1829 27.6486 52.9388 27.7227C52.6969 28.5511 52.7185 29.4668 52.4766 30.3083L52.4853 30.3127ZM43.9537 31.2632C44.174 31.2632 44.174 31.817 44.5887 31.817C44.8306 32.0176 44.8047 32.3184 44.8781 32.5975C44.8047 32.6978 44.6622 32.6454 44.5369 32.6454C44.4634 31.9914 43.4181 32.0437 43.9537 31.2632ZM47.2886 36.9316C48.3124 37.058 48.1525 35.8241 48.5068 35.2485C48.4674 35.0945 48.469 34.9328 48.5115 34.7797C48.554 34.6265 48.6358 34.4874 48.7487 34.3765C48.7903 33.8969 48.6895 33.4158 48.4592 32.9943C48.3557 32.9451 48.243 32.9184 48.1286 32.916C48.0141 32.9136 47.9005 32.9356 47.795 32.9804C47.6895 33.0252 47.5945 33.0919 47.5162 33.1762C47.4379 33.2604 47.378 33.3604 47.3404 33.4695C47.2411 33.596 47.2886 33.7965 47.0942 33.9056C46.8523 33.7573 46.3641 34.2849 46.2302 33.8314C47.3534 34.1846 47.0596 32.5495 48.1784 32.8765C48.4981 32.4405 48.9344 32.0045 48.9819 31.4202C49.0078 31.6469 49.0554 31.9216 49.2757 31.9696C49.8848 32.0481 49.7379 30.9929 50.442 31.5336C51.1029 31.6382 51.5651 31.2589 52.1958 31.3112C51.7639 33.3692 50.6364 34.9782 49.3491 36.6612C49.1547 36.3604 49.2498 35.7587 48.8135 35.7063C48.4974 36.0866 48.2938 36.549 48.226 37.0406C47.7162 37.4417 46.8652 37.2673 46.1827 37.3414C45.5477 36.7354 44.6751 36.7354 43.8932 36.4345V36.186C45.0616 36.2353 46.2136 36.4814 47.3015 36.9141L47.2886 36.9316ZM49.5176 43.0708C48.9085 42.4168 49.8848 41.8631 50.1526 41.3267C50.1007 40.1713 47.4009 40.1233 49.2238 38.7891V38.7411C49.6774 39.6786 50.9733 40.1713 50.9733 41.3049C51.0131 41.3794 51.0676 41.4448 51.1335 41.497C51.1994 41.5492 51.2753 41.5872 51.3563 41.6084C51.4374 41.6297 51.522 41.6339 51.6047 41.6207C51.6875 41.6075 51.7667 41.5772 51.8373 41.5317L49.3318 43.7118C49.4053 43.5112 49.6947 43.3368 49.5003 43.1101L49.5176 43.0708ZM54.1743 29.1136C54.1743 28.586 54.4421 28.1064 54.2996 27.605C55.5756 27.7602 56.8644 27.7777 58.1442 27.6573C57.6819 28.6601 57.8288 30.0685 57.561 31.224C56.8179 34.7171 55.1606 37.9454 52.7617 40.5724C52.6926 39.9402 52.6192 38.5841 51.6688 38.2833C51.5219 38.2091 51.4744 38.3836 51.3751 38.4577V38.8065C50.8869 38.6844 50.5716 38.0522 50.1353 37.7775H50.3038C51.9872 35.8656 53.1903 33.573 53.8114 31.0932C53.9212 31.1541 54.0462 31.1816 54.1712 31.1723C54.2961 31.163 54.4158 31.1174 54.5155 31.0409C54.8352 30.2124 53.6516 29.9857 54.1743 29.1093V29.1136ZM52.0576 21.7448C52.2045 22.6168 52.9216 23.4889 52.0101 24.2083C51.9484 24.3048 51.8594 24.3805 51.7547 24.4256C51.65 24.4706 51.5343 24.4831 51.4226 24.4612C51.2282 24.0252 51.7639 23.8551 51.6688 23.3799C51.8373 23.2796 52.157 23.0267 51.9626 22.7781C51.5306 22.6997 51.4226 22.0238 50.9604 21.9977C50.7665 21.9642 50.5673 21.9838 50.3835 22.0543C50.1997 22.1249 50.0379 22.2438 49.915 22.3988C49.8491 22.2873 49.7677 22.1859 49.6731 22.0979C49.7681 21.9235 50.0359 21.7186 49.8416 21.4962C49.4096 21.2433 49.3318 20.6242 48.8437 20.3625C47.9797 20.2623 47.2627 20.3625 46.4592 20.0617C45.6557 19.8611 45.8717 20.816 45.5952 21.1954C45.5693 21.2695 45.3749 21.0689 45.3015 20.8901C46.3987 19.5821 47.8588 18.1519 48.9776 16.7958C49.5608 17.7246 50.658 18.4789 50.7055 19.5864C50.6028 19.6629 50.5171 19.7602 50.4539 19.8721C50.3907 19.984 50.3513 20.108 50.3383 20.2361C50.9474 20.816 51.725 20.9686 52.0922 21.7448H52.0576ZM41.837 19.7696C41.6902 19.6431 41.6902 19.242 41.3705 19.3902C41.0292 19.8262 40.5065 19.9701 40.2042 20.4977L39.2063 20.1227L39.1069 17.4063C40.9498 17.7075 42.7132 18.3824 44.2907 19.3902C44.0704 19.6213 43.6081 19.8262 43.5347 20.1969C43.755 20.271 43.876 20.55 44.1222 20.2971C43.8025 21.3262 42.3943 21.2041 42.2431 22.2331C41.4655 23.0616 41.0249 21.252 40.2733 22.0587H39.9795C40.7096 21.5529 42.0271 20.9991 41.8327 19.7696H41.837ZM37.5129 36.8793C37.5605 36.6307 38.0227 36.7572 38.148 36.404C38.7052 36.4781 38.7311 35.7499 39.0119 35.5014C39.405 35.5755 39.8197 34.8212 40.0616 35.4491C40.6189 35.1962 41.0076 36.6046 41.1804 35.5014C41.4958 35.5973 41.7895 36.1031 42.1049 35.7499C42.3727 35.5755 42.1567 35.2747 42.0573 35.1482C42.3727 35.3183 42.7658 35.7543 43.0768 35.3183C43.2237 34.9913 43.444 34.9913 43.7118 34.843C44.0272 34.9695 43.8803 35.4447 43.7852 35.6715C43.312 36.3091 42.6149 36.7398 41.837 36.8749C41.6902 37.154 41.6902 37.5289 41.323 37.5551C41.0076 37.0013 39.9839 37.6815 40.0271 36.7746C39.4914 36.8531 38.9082 36.574 38.446 37.0013C38.1566 37.0537 37.7894 37.2019 37.5216 36.8749L37.5129 36.8793ZM21.3829 45.5736L24.0871 42.6871C27.6752 46.3522 32.5428 48.4527 37.6469 48.5386L37.6944 48.4645C37.4784 49.6723 37.6253 51.0022 37.5734 52.2579L37.7462 52.5588C31.652 52.2334 25.8629 49.7652 21.3829 45.5824V45.5736ZM22.7955 27.7445C22.617 28.2764 22.6417 28.8564 22.8646 29.3709C22.7523 29.2538 22.631 29.1459 22.5018 29.0482C21.6724 28.9741 21.6378 30.0554 20.8732 30.0816C20.3376 30.8359 20.2123 31.8257 20.1172 32.6672C19.8235 32.6672 19.9704 33.0727 19.7501 33.221C19.6032 31.4769 19.1194 29.7328 18.9941 27.9189L18.8732 27.7445C20.1749 27.9189 21.4938 27.9189 22.7955 27.7445ZM26.8388 15.9107C24.2469 18.7231 22.9165 22.268 22.6745 26.1617L22.7955 26.3361C21.6032 26.2358 20.2036 26.31 18.9466 26.2838C19.1978 21.509 21.005 16.9518 24.0871 13.3207V13.0809C24.9009 14.1252 25.8234 15.0783 26.8388 15.9238V15.9107ZM29.2233 20.7986C28.5192 21.1779 28.2989 21.9802 27.4695 22.1067C27.0375 22.3334 27.6164 22.7869 27.0375 22.9089C25.8712 22.8348 25.7416 24.2694 25.3571 25.0891C25.2895 25.5039 25.3674 25.9295 25.5774 26.2925L23.9964 26.3448C24.3593 24.2868 24.6271 22.1982 25.5774 20.3887C26.1878 19.1628 26.931 18.009 27.7935 16.9485C28.8086 17.8772 29.5646 18.8888 30.6704 19.6954C30.0138 19.7696 29.867 20.7245 29.2104 20.7986H29.2233ZM34.4805 39.8966C34.9124 40.5986 35.2623 41.5317 36.2084 41.6407C33.4655 41.1123 30.9158 39.8436 28.8302 37.9693H28.6401C29.5946 37.1468 30.4736 36.2391 31.2666 35.2572C32.3897 36.6133 33.9448 37.3153 35.4827 37.8429C35.7721 37.7688 36.0658 37.7164 36.3466 37.6685C36.0577 37.6985 35.78 37.7976 35.5366 37.9576C35.2932 38.1176 35.0911 38.3339 34.947 38.5885C35.0896 39.1946 34.2386 39.3167 34.4805 39.8966ZM26.1779 27.7837C26.4457 27.5832 26.9079 27.9625 27.0073 27.4829C27.0548 26.9073 26.1433 26.0265 27.0548 25.7388C27.4436 25.7649 27.9835 25.6603 28.0527 26.1748C28.247 26.8027 27.9317 27.7052 28.1045 28.2852L27.517 28.586C27.301 28.4334 27.1757 28.0846 26.8863 28.1108C26.5451 28.3593 27.0073 28.5468 26.9338 28.8389C26.8912 29.0526 26.8753 29.2709 26.8863 29.4886C26.6919 29.5148 26.4543 29.3403 26.3507 29.615C26.3507 30.0511 26.7826 30.1426 27.0073 30.3432C27.4392 30.1688 27.3961 29.4712 27.4695 29.0133L27.9015 29.2619C28.2532 31.1251 29.0744 32.8655 30.286 34.3154L27.0246 37.8036C27.0246 37.5507 26.5926 37.7034 26.8561 37.4025C27.0505 37.276 27.3917 37.1758 27.3658 36.8487C27.3847 36.5478 27.3427 36.2461 27.2425 35.962C27.1422 35.6779 26.9858 35.4173 26.7826 35.1962C26.6574 34.3241 26.7826 33.2864 26.3204 32.6106C26.4414 31.6557 25.9273 30.8272 25.2707 30.147C25.5386 29.6456 24.977 29.3927 25.1498 28.8651C25.6854 28.7168 26.3204 28.5642 26.1952 27.7837H26.1779ZM24.3377 30.4479C24.4405 29.5035 24.3175 28.5481 23.9791 27.6616C24.1558 27.7611 24.3507 27.8233 24.552 27.8443C24.7533 27.8653 24.9567 27.8447 25.1498 27.7837C24.5882 27.8361 24.8085 28.791 24.5148 29.2401C25.2146 29.615 24.4543 30.0293 24.3377 30.4479ZM37.7289 47.2087L37.4395 47.0343C32.6402 46.8076 28.4803 44.6972 24.9122 41.5317C25.3442 41.4793 25.936 42.3601 26.666 41.9677C27.4695 41.3355 28.4717 41.7148 29.2967 41.1872C29.5171 40.6596 28.9555 40.6335 28.9555 40.2061C31.4653 42.1421 34.4114 43.5505 37.6728 43.3499C37.5544 44.6372 37.5703 45.9335 37.7203 47.2175L37.7289 47.2087ZM33.0204 31.2763C33.2586 31.0159 33.441 30.7086 33.556 30.3737L33.9448 30.6266C33.556 30.6005 33.3617 31.1281 33.0204 31.2763ZM34.7742 31.5292C34.8692 32.1091 35.5302 32.1832 35.893 32.4841C36.5496 32.7108 37.2322 33.2384 37.9881 32.8591C37.6728 32.9855 37.9622 33.3867 37.8672 33.5655C37.7491 33.8517 37.7309 34.1699 37.8153 34.468C37.9406 34.6686 38.0875 34.6686 38.1091 34.9041C37.8931 35.157 37.5259 34.9302 37.284 35.0828C37.076 35.4846 36.9989 35.9423 37.0637 36.3909C35.3631 36.0728 33.7708 35.3225 32.4372 34.2108L34.7742 31.5292ZM32.096 31.1499C32.2428 30.9275 31.9275 30.7749 32.0225 30.5002C32.3163 30.6746 32.1694 31.2283 32.3897 31.5292C32.4847 31.6295 32.3897 31.8039 32.4372 31.9652L31.3184 33.1643C30.7093 32.0306 29.9793 30.9842 29.6855 29.7197L29.4652 29.3447C29.733 29.7197 30.489 29.3185 30.5149 29.9464C30.8043 30.2211 31.219 29.7938 31.1456 30.3825C31.2424 30.571 31.3768 30.7373 31.5404 30.8709C31.7039 31.0044 31.8931 31.1024 32.096 31.1586V31.1499ZM37.5821 10.7263C33.9075 10.7965 30.405 12.3107 27.8194 14.9471C27.0055 13.9496 26.0921 13.0393 25.0936 12.2306C28.5322 9.06127 32.9358 7.16554 37.5821 6.85443C37.5086 8.144 37.5086 9.43677 37.5821 10.7263ZM13.7369 27.7837C15.0429 27.8943 16.3564 27.8783 17.6593 27.7358C17.6157 29.5139 17.8863 31.2857 18.4585 32.9681C18.0956 32.5321 17.7803 31.7385 17.1236 32.3184C16.8774 32.4187 17.1712 32.9681 16.6917 32.7937C16.5859 32.6726 16.441 32.5933 16.2827 32.5702C16.1244 32.547 15.9632 32.5814 15.8277 32.6672C15.6023 32.9769 15.4445 33.3314 15.3648 33.7072C15.2851 34.0831 15.2854 34.4717 15.3655 34.8474C15.8752 35.2834 15.5081 36.5566 16.4109 36.2775C16.6528 36.5566 16.9725 37.106 17.4088 37.1496L17.655 36.7136C17.8969 37.3938 18.5189 37.3414 18.8688 37.9214C19.4563 37.6205 19.1885 38.4228 19.5254 38.5972C19.8624 38.7716 20.0611 39.5303 20.6227 39.2512C20.6702 39.2033 20.7695 39.151 20.7436 39.0768C20.8142 39.3706 20.9592 39.6408 21.1644 39.861C21.3697 40.0811 21.6281 40.2436 21.9143 40.3326C22.4024 40.7686 22.7177 41.3355 23.2102 41.6668C22.1901 42.5634 21.2304 43.5277 20.3376 44.5533C16.2885 39.8983 13.9568 33.9744 13.7369 27.7837ZM12.5274 30.1993C13.4302 40.5986 21.3916 50.2261 31.1543 52.8727C41.8932 55.9249 52.7747 52.0443 59.3753 43.049C65.3409 35.4622 66.3647 22.6473 61.4229 14.2276C59.1075 9.63192 54.6754 5.11032 50.2692 2.89094C43.0034 -1.308 32.2644 -0.810932 25.301 3.61474C16.2683 9.11741 11.3006 19.1853 12.5274 30.1993Z" fill="white"/>
<path d="M51.4788 7.93577L51.306 7.15528C51.1116 6.65385 50.442 6.90675 50.1396 6.71926C49.9452 6.77158 50.0187 7.09424 50.0921 7.22069C50.7228 7.27301 50.7228 8.38052 51.4788 7.92705" fill="white"/>
<path d="M40.6664 5.04491C41.7636 4.54348 43.0768 5.37193 44.0012 4.31675C43.7334 3.56242 42.7658 3.53626 42.0314 3.40981L40.2776 4.21646C40.0832 4.31675 39.4741 3.98973 39.5692 4.51732C39.8897 4.77626 40.2652 4.95684 40.6664 5.04491Z" fill="white"/>
<path d="M6.96787 20.3713C7.672 18.9149 9.03704 17.5327 10.2293 16.5037C12.981 14.668 15.4433 11.7728 15.5513 8.48953C14.0912 12.3571 9.27031 12.8498 8.07805 16.979H7.95278C9.71957 13.5649 8.7217 8.72062 12.0954 6.20039C10.3077 6.78867 8.80438 8.03374 7.88366 9.6886C5.91385 12.6797 7.5208 16.8264 6.95923 20.3669" fill="white"/>
<path d="M12.225 10.7743C15.3439 8.53749 16.1474 4.8923 19.1669 2.58136C16.8472 3.53626 14.346 4.31675 12.6181 6.54049C11.279 8.35 10.8643 10.5083 10.1818 12.5707L12.225 10.7743Z" fill="white"/>
<path d="M67.7427 13.36C67.9846 14.4675 68.6412 15.4703 68.7146 16.5778C67.328 12.4312 62.6669 11.9821 60.939 8.06222L61.4704 10.347C62.7663 14.7945 67.9241 15.8758 69.8723 19.896C69.2632 16.979 70.3345 13.9399 69.4835 11.0752C69.1297 9.83532 68.4829 8.70071 67.5988 7.76882C66.7147 6.83692 65.6197 6.13561 64.4078 5.72512C66.9997 7.46922 66.8182 10.722 67.7427 13.36Z" fill="white"/>
<path d="M7.8923 39.369C7.65615 38.0921 7.64007 36.7838 7.84479 35.5014C8.86857 31.3025 10.4755 27.2561 10.2293 22.6081C9.62021 25.9524 6.72597 28.3113 6.38471 31.7647C6.1644 33.173 6.50566 34.5552 6.67413 35.811C6.30917 35.1375 6.08565 34.3954 6.01753 33.6309C5.52939 29.1093 2.00014 25.7824 2.7561 20.8901C1.49041 23.9162 1.56385 27.9058 2.50988 31.0496C3.33927 34.2936 6.33287 36.5566 7.8923 39.369Z" fill="white"/>
<path d="M2.83805 131C2.56002 131.006 2.28651 130.928 2.0524 130.777C1.8183 130.625 1.63421 130.407 1.52362 130.149C1.41304 129.892 1.38097 129.607 1.43151 129.331C1.48205 129.055 1.61291 128.8 1.80739 128.6C2.00187 128.399 2.25116 128.261 2.52345 128.204C2.79574 128.147 3.07868 128.173 3.33619 128.279C3.59371 128.385 3.8141 128.566 3.96927 128.799C4.12444 129.032 4.20735 129.306 4.20741 129.587C4.21087 129.958 4.06867 130.314 3.81198 130.579C3.5553 130.844 3.20506 130.995 2.83805 131Z" fill="#E2243C"/>
<path d="M11.7065 131C11.4285 131.006 11.155 130.928 10.9209 130.777C10.6868 130.625 10.5027 130.407 10.3921 130.149C10.2815 129.892 10.2495 129.607 10.3 129.331C10.3505 129.055 10.4814 128.8 10.6759 128.6C10.8704 128.399 11.1196 128.261 11.3919 128.204C11.6642 128.147 11.9472 128.173 12.2047 128.279C12.4622 128.385 12.6826 128.566 12.8378 128.799C12.9929 129.032 13.0758 129.306 13.0759 129.587C13.0794 129.958 12.9372 130.314 12.6805 130.579C12.4238 130.844 12.0735 130.995 11.7065 131Z" fill="#4B9D46"/>
<path d="M20.575 131C20.297 131.006 20.0235 130.928 19.7894 130.777C19.5553 130.625 19.3712 130.407 19.2606 130.149C19.15 129.892 19.1179 129.607 19.1685 129.331C19.219 129.055 19.3499 128.8 19.5444 128.6C19.7388 128.399 19.9881 128.261 20.2604 128.204C20.5327 128.147 20.8156 128.173 21.0732 128.279C21.3307 128.385 21.5511 128.566 21.7062 128.799C21.8614 129.032 21.9443 129.306 21.9444 129.587C21.9478 129.958 21.8056 130.314 21.5489 130.579C21.2923 130.844 20.942 130.995 20.575 131Z" fill="#ED3F2C"/>
<path d="M29.4435 131C29.1653 131.007 28.8914 130.93 28.6567 130.779C28.4221 130.628 28.2373 130.41 28.1261 130.152C28.0148 129.895 27.9821 129.61 28.0321 129.334C28.0822 129.057 28.2127 128.802 28.407 128.601C28.6013 128.4 28.8505 128.262 29.1229 128.205C29.3953 128.147 29.6785 128.173 29.9362 128.279C30.194 128.385 30.4147 128.566 30.57 128.799C30.7254 129.032 30.8085 129.306 30.8085 129.587C30.812 129.957 30.6704 130.313 30.4146 130.578C30.1589 130.842 29.8098 130.994 29.4435 131Z" fill="#F8C113"/>
<path d="M38.3076 131C38.0296 131.006 37.7561 130.928 37.522 130.777C37.2879 130.625 37.1038 130.407 36.9932 130.149C36.8826 129.892 36.8506 129.607 36.9011 129.331C36.9517 129.055 37.0825 128.8 37.277 128.6C37.4715 128.399 37.7208 128.261 37.9931 128.204C38.2653 128.147 38.5483 128.173 38.8058 128.279C39.0633 128.385 39.2837 128.566 39.4389 128.799C39.594 129.032 39.677 129.306 39.677 129.587C39.6793 129.771 39.6457 129.953 39.578 130.123C39.5104 130.294 39.4101 130.449 39.2829 130.58C39.1557 130.712 39.004 130.816 38.8367 130.888C38.6693 130.96 38.4895 130.998 38.3076 131Z" fill="#F06A2C"/>
<path d="M47.1761 131C46.8981 131.006 46.6246 130.928 46.3905 130.777C46.1564 130.625 45.9723 130.407 45.8617 130.149C45.7511 129.892 45.7191 129.607 45.7696 129.331C45.8201 129.055 45.951 128.8 46.1455 128.6C46.34 128.399 46.5892 128.261 46.8615 128.204C47.1338 128.147 47.4168 128.173 47.6743 128.279C47.9318 128.385 48.1522 128.566 48.3074 128.799C48.4625 129.032 48.5454 129.306 48.5455 129.587C48.5478 129.771 48.5141 129.953 48.4465 130.123C48.3789 130.294 48.2786 130.449 48.1513 130.58C48.0241 130.712 47.8725 130.816 47.7052 130.888C47.5378 130.96 47.358 130.998 47.1761 131Z" fill="#F79B28"/>
<path d="M56.0446 131C55.7666 131.006 55.4931 130.928 55.259 130.777C55.0249 130.625 54.8408 130.407 54.7302 130.149C54.6196 129.892 54.5875 129.607 54.6381 129.331C54.6886 129.055 54.8195 128.8 55.014 128.6C55.2084 128.399 55.4577 128.261 55.73 128.204C56.0023 128.147 56.2853 128.173 56.5428 128.279C56.8003 128.385 57.0207 128.566 57.1758 128.799C57.331 129.032 57.4139 129.306 57.414 129.587C57.4174 129.958 57.2752 130.314 57.0185 130.579C56.7619 130.844 56.4116 130.995 56.0446 131Z" fill="#3F7E44"/>
<path d="M7.27445 131C6.99626 131.007 6.72234 130.93 6.48768 130.779C6.25302 130.628 6.06826 130.41 5.95701 130.152C5.84576 129.895 5.81306 129.61 5.8631 129.334C5.91314 129.057 6.04364 128.802 6.23793 128.601C6.43222 128.4 6.68148 128.262 6.95388 128.205C7.22628 128.147 7.50944 128.173 7.76721 128.279C8.02497 128.385 8.24563 128.566 8.401 128.799C8.55638 129.032 8.63941 129.306 8.63949 129.587C8.64296 129.957 8.50135 130.313 8.2456 130.578C7.98984 130.842 7.64071 130.994 7.27445 131Z" fill="#DCA539"/>
<path d="M16.1386 131C15.8606 131.006 15.5871 130.928 15.353 130.777C15.1189 130.625 14.9348 130.407 14.8242 130.149C14.7136 129.892 14.6815 129.607 14.7321 129.331C14.7826 129.055 14.9135 128.8 15.108 128.6C15.3024 128.399 15.5517 128.261 15.824 128.204C16.0963 128.147 16.3792 128.173 16.6368 128.279C16.8943 128.385 17.1147 128.566 17.2698 128.799C17.425 129.032 17.5079 129.306 17.508 129.587C17.5103 129.771 17.4766 129.953 17.409 130.123C17.3413 130.294 17.241 130.449 17.1138 130.58C16.9866 130.712 16.835 130.816 16.6676 130.888C16.5003 130.96 16.3205 130.998 16.1386 131Z" fill="#C3202E"/>
<path d="M25.0071 131C24.7291 131.006 24.4556 130.928 24.2214 130.777C23.9873 130.625 23.8033 130.407 23.6927 130.149C23.5821 129.892 23.55 129.607 23.6006 129.331C23.6511 129.055 23.782 128.8 23.9764 128.6C24.1709 128.399 24.4202 128.261 24.6925 128.204C24.9648 128.147 25.2477 128.173 25.5052 128.279C25.7627 128.385 25.9831 128.566 26.1383 128.799C26.2935 129.032 26.3764 129.306 26.3765 129.587C26.3799 129.958 26.2377 130.314 25.981 130.579C25.7243 130.844 25.3741 130.995 25.0071 131Z" fill="#3E87C7"/>
<path d="M33.8756 131C33.5975 131.006 33.324 130.928 33.0899 130.777C32.8558 130.625 32.6717 130.407 32.5611 130.149C32.4506 129.892 32.4185 129.607 32.469 129.331C32.5196 129.055 32.6504 128.8 32.8449 128.6C33.0394 128.399 33.2887 128.261 33.561 128.204C33.8333 128.147 34.1162 128.173 34.3737 128.279C34.6312 128.385 34.8516 128.566 35.0068 128.799C35.162 129.032 35.2449 129.306 35.2449 129.587C35.2484 129.958 35.1062 130.314 34.8495 130.579C34.5928 130.844 34.2426 130.995 33.8756 131Z" fill="#A01C43"/>
<path d="M42.7656 131C42.4876 131.006 42.2141 130.928 41.98 130.777C41.7459 130.625 41.5618 130.407 41.4512 130.149C41.3406 129.892 41.3086 129.607 41.3591 129.331C41.4097 129.055 41.5405 128.8 41.735 128.6C41.9295 128.399 42.1788 128.261 42.451 128.204C42.7233 128.147 43.0063 128.173 43.2638 128.279C43.5213 128.385 43.7417 128.566 43.8969 128.799C44.052 129.032 44.1349 129.306 44.135 129.587C44.1385 129.958 43.9963 130.314 43.7396 130.579C43.4829 130.844 43.1327 130.995 42.7656 131Z" fill="#DB1768"/>
<path d="M51.6125 131C51.3345 131.006 51.061 130.928 50.8269 130.777C50.5928 130.625 50.4087 130.407 50.2981 130.149C50.1875 129.892 50.1555 129.607 50.206 129.331C50.2565 129.055 50.3874 128.8 50.5819 128.6C50.7764 128.399 51.0256 128.261 51.2979 128.204C51.5702 128.147 51.8532 128.173 52.1107 128.279C52.3682 128.385 52.5886 128.566 52.7438 128.799C52.8989 129.032 52.9818 129.306 52.9819 129.587C52.9854 129.958 52.8432 130.314 52.5865 130.579C52.3298 130.844 51.9795 130.995 51.6125 131Z" fill="#BD892C"/>
<path d="M60.4767 131C60.1985 131.007 59.9246 130.93 59.6899 130.779C59.4553 130.628 59.2705 130.41 59.1593 130.152C59.048 129.895 59.0153 129.61 59.0654 129.334C59.1154 129.057 59.2459 128.802 59.4402 128.601C59.6345 128.4 59.8837 128.262 60.1561 128.205C60.4285 128.147 60.7117 128.173 60.9695 128.279C61.2272 128.385 61.4479 128.566 61.6033 128.799C61.7586 129.032 61.8417 129.306 61.8417 129.587C61.8452 129.957 61.7036 130.313 61.4478 130.578C61.1921 130.842 60.843 130.994 60.4767 131Z" fill="#1994D2"/>
<path d="M69.3452 131C69.0672 131.006 68.7936 130.928 68.5595 130.777C68.3254 130.625 68.1413 130.407 68.0308 130.149C67.9202 129.892 67.8881 129.607 67.9386 129.331C67.9892 129.055 68.12 128.8 68.3145 128.6C68.509 128.399 68.7583 128.261 69.0306 128.204C69.3029 128.147 69.5858 128.173 69.8433 128.279C70.1008 128.385 70.3212 128.566 70.4764 128.799C70.6316 129.032 70.7145 129.306 70.7145 129.587C70.7168 129.771 70.6832 129.953 70.6155 130.123C70.5479 130.294 70.4476 130.449 70.3204 130.58C70.1932 130.712 70.0415 130.816 69.8742 130.888C69.7069 130.96 69.5271 130.998 69.3452 131Z" fill="#00699B"/>
<path d="M64.9131 131C64.6351 131.006 64.3616 130.928 64.1275 130.777C63.8933 130.625 63.7093 130.407 63.5987 130.149C63.4881 129.892 63.456 129.607 63.5066 129.331C63.5571 129.055 63.688 128.8 63.8824 128.6C64.0769 128.399 64.3262 128.261 64.5985 128.204C64.8708 128.147 65.1537 128.173 65.4112 128.279C65.6688 128.385 65.8892 128.566 66.0443 128.799C66.1995 129.032 66.2824 129.306 66.2825 129.587C66.2859 129.958 66.1437 130.314 65.887 130.579C65.6303 130.844 65.2801 130.995 64.9131 131Z" fill="#5BB847"/>
<path d="M73.7816 131C73.504 131.003 73.2318 130.923 72.9993 130.77C72.7669 130.617 72.5848 130.398 72.4762 130.14C72.3677 129.882 72.3375 129.598 72.3895 129.322C72.4415 129.047 72.5735 128.794 72.7685 128.595C72.9635 128.395 73.2129 128.259 73.4848 128.203C73.7568 128.147 74.0391 128.174 74.2958 128.28C74.5526 128.387 74.7722 128.568 74.9268 128.801C75.0813 129.033 75.1639 129.307 75.1639 129.587C75.1674 129.958 75.0252 130.314 74.7685 130.579C74.5118 130.844 74.1615 130.995 73.7945 131" fill="#17486A"/>
<path d="M8.87141 72.3835H11.6543V79.9941C11.6543 80.9011 11.4666 81.6694 11.0914 82.2989C10.7161 82.9231 10.1902 83.3953 9.5136 83.7154C8.83705 84.0355 8.04157 84.1956 7.12716 84.1956C6.22333 84.1956 5.42785 84.0355 4.74072 83.7154C4.05888 83.3953 3.52504 82.9231 3.13919 82.2989C2.75863 81.6694 2.56835 80.9011 2.56835 79.9941V72.3835H5.35914V79.9941C5.35914 80.4743 5.42785 80.8664 5.56527 81.1705C5.7027 81.4693 5.90355 81.688 6.16783 81.8267C6.43211 81.9655 6.75189 82.0348 7.12716 82.0348C7.50773 82.0348 7.8275 81.9655 8.0865 81.8267C8.34549 81.688 8.54106 81.4693 8.6732 81.1705C8.80534 80.8664 8.87141 80.4743 8.87141 79.9941V72.3835Z" fill="white"/>
<path d="M23.0473 72.3835V84.0355H20.2724L16.1893 76.785V84.0355H13.4064V72.3835H16.1893L20.2724 79.634V72.3835H23.0473Z" fill="white"/>
<path d="M27.7647 72.3835V84.0355H24.9898V72.3835H27.7647Z" fill="white"/>
<path d="M35.0747 72.3835V84.0355H32.2918V72.3835H35.0747ZM38.5473 72.3835V74.5523H28.8985V72.3835H38.5473Z" fill="white"/>
<path d="M47.6729 81.8748V84.0355H41.5204V81.8748H47.6729ZM42.5115 72.3835V84.0355H39.7286V72.3835H42.5115ZM46.88 77.0091V79.0978H41.5204V77.0091H46.88ZM47.6966 72.3835V74.5523H41.5204V72.3835H47.6966Z" fill="white"/>
<path d="M52.5647 84.0355H50.0038L50.0197 81.8748H52.5647C53.0932 81.8748 53.5399 81.7467 53.9046 81.4906C54.2746 81.2345 54.5547 80.8531 54.745 80.3462C54.9405 79.8341 55.0383 79.2045 55.0383 78.4576V77.9534C55.0383 77.3932 54.9828 76.9024 54.8718 76.4809C54.7661 76.0541 54.6075 75.6993 54.3961 75.4166C54.1847 75.1285 53.9204 74.9124 53.6033 74.7684C53.2914 74.6243 52.932 74.5523 52.525 74.5523H49.9562V72.3835H52.525C53.3073 72.3835 54.0235 72.5196 54.6736 72.7917C55.329 73.0584 55.8946 73.4426 56.3703 73.9441C56.8513 74.4402 57.2213 75.0298 57.4803 75.7127C57.7445 76.3902 57.8767 77.1425 57.8767 77.9694V78.4576C57.8767 79.2792 57.7445 80.0315 57.4803 80.7144C57.2213 81.3973 56.8539 81.9868 56.3782 82.483C55.9025 82.9791 55.3396 83.3633 54.6895 83.6354C54.0446 83.9021 53.3364 84.0355 52.5647 84.0355ZM51.5974 72.3835V84.0355H48.8145V72.3835H51.5974Z" fill="white"/>
<path d="M11.359 89.2011V100.853H8.58409L4.50098 93.6026V100.853H1.71812V89.2011H4.50098L8.58409 96.4516V89.2011H11.359Z" fill="white"/>
<path d="M18.1536 91.65L15.3391 100.853H12.3501L16.5917 89.2011H18.4866L18.1536 91.65ZM20.4846 100.853L17.6621 91.65L17.2974 89.2011H19.216L23.4815 100.853H20.4846ZM20.3736 96.5076V98.6763H14.4511V96.5076H20.3736Z" fill="white"/>
<path d="M28.9679 89.2011V100.853H26.1851V89.2011H28.9679ZM32.4406 89.2011V91.3699H22.7917V89.2011H32.4406Z" fill="white"/>
<path d="M36.5792 89.2011V100.853H33.8042V89.2011H36.5792Z" fill="white"/>
<path d="M48.3052 94.795V95.2672C48.3052 96.1581 48.181 96.9584 47.9326 97.668C47.6895 98.3722 47.3433 98.9751 46.894 99.4766C46.4447 99.9728 45.9135 100.354 45.3004 100.621C44.6873 100.882 44.0107 101.013 43.2707 101.013C42.5255 101.013 41.8436 100.882 41.2252 100.621C40.6121 100.354 40.0782 99.9728 39.6237 99.4766C39.1744 98.9751 38.8255 98.3722 38.5771 97.668C38.334 96.9584 38.2124 96.1581 38.2124 95.2672V94.795C38.2124 93.9041 38.334 93.1038 38.5771 92.3942C38.8255 91.6846 39.1718 91.0818 39.6157 90.5856C40.065 90.0841 40.5962 89.7026 41.2093 89.4412C41.8278 89.1744 42.5096 89.0411 43.2549 89.0411C43.9948 89.0411 44.6714 89.1744 45.2845 89.4412C45.9029 89.7026 46.4368 90.0841 46.8861 90.5856C47.3353 91.0818 47.6842 91.6846 47.9326 92.3942C48.181 93.1038 48.3052 93.9041 48.3052 94.795ZM45.4827 95.2672V94.779C45.4827 94.2028 45.4325 93.696 45.3321 93.2585C45.237 92.8157 45.0942 92.4449 44.904 92.1461C44.7137 91.8474 44.4785 91.6233 44.1983 91.4739C43.9235 91.3192 43.609 91.2418 43.2549 91.2418C42.8849 91.2418 42.5625 91.3192 42.2876 91.4739C42.0128 91.6233 41.7828 91.8474 41.5978 92.1461C41.4128 92.4449 41.2728 92.8157 41.1776 93.2585C41.0878 93.696 41.0428 94.2028 41.0428 94.779V95.2672C41.0428 95.838 41.0878 96.3449 41.1776 96.7877C41.2728 97.2252 41.4128 97.596 41.5978 97.9001C41.7881 98.2042 42.0207 98.4336 42.2955 98.5883C42.5757 98.743 42.9007 98.8204 43.2707 98.8204C43.6249 98.8204 43.9393 98.743 44.2142 98.5883C44.489 98.4336 44.719 98.2042 44.904 97.9001C45.0942 97.596 45.237 97.2252 45.3321 96.7877C45.4325 96.3449 45.4827 95.838 45.4827 95.2672Z" fill="white"/>
<path d="M59.3891 89.2011V100.853H56.6142L52.5311 93.6026V100.853H49.7482V89.2011H52.5311L56.6142 96.4516V89.2011H59.3891Z" fill="white"/>
<path d="M67.0955 97.756C67.0955 97.5746 67.0691 97.4119 67.0162 97.2679C66.9633 97.1185 66.8656 96.9798 66.7228 96.8517C66.5801 96.7237 66.374 96.5956 66.1044 96.4676C65.8402 96.3342 65.4913 96.1955 65.0579 96.0514C64.5505 95.8807 64.0616 95.6887 63.5911 95.4753C63.1207 95.2565 62.7005 95.0031 62.3305 94.715C61.9605 94.4216 61.6672 94.0801 61.4505 93.6906C61.2338 93.2958 61.1254 92.837 61.1254 92.3142C61.1254 91.8127 61.2364 91.3619 61.4584 90.9617C61.6804 90.5562 61.9896 90.2121 62.386 89.9294C62.7877 89.6413 63.2581 89.4225 63.7973 89.2731C64.3364 89.1184 64.9258 89.0411 65.5653 89.0411C66.411 89.0411 67.1563 89.1905 67.8011 89.4892C68.4512 89.7827 68.9586 90.2015 69.3234 90.7456C69.6933 91.2845 69.8783 91.922 69.8783 92.6583H67.1113C67.1113 92.3649 67.0506 92.1061 66.929 91.882C66.8127 91.658 66.6356 91.4819 66.3978 91.3539C66.1599 91.2258 65.8613 91.1618 65.5019 91.1618C65.153 91.1618 64.8597 91.2151 64.6218 91.3218C64.384 91.4285 64.2043 91.5726 64.0827 91.754C63.9611 91.93 63.9003 92.1248 63.9003 92.3382C63.9003 92.5142 63.9479 92.6743 64.0431 92.8183C64.1435 92.9571 64.2835 93.0878 64.4633 93.2105C64.6483 93.3332 64.8703 93.4506 65.1292 93.5626C65.3935 93.6746 65.6895 93.784 66.0172 93.8907C66.6304 94.0881 67.1748 94.3095 67.6505 94.5549C68.1315 94.795 68.5358 95.0698 68.8635 95.3792C69.1965 95.6833 69.4476 96.0301 69.6167 96.4196C69.7911 96.809 69.8783 97.2492 69.8783 97.74C69.8783 98.2629 69.7779 98.727 69.5771 99.1325C69.3762 99.538 69.0881 99.8821 68.7129 100.165C68.3376 100.442 67.8883 100.653 67.365 100.797C66.8418 100.941 66.2577 101.013 65.6129 101.013C65.0209 101.013 64.4368 100.938 63.8607 100.789C63.2899 100.634 62.7719 100.4 62.3067 100.085C61.8416 99.7647 61.469 99.3566 61.1888 98.8604C60.914 98.3589 60.7766 97.764 60.7766 97.0758H63.5674C63.5674 97.4172 63.6123 97.7053 63.7021 97.9401C63.792 98.1748 63.9241 98.3642 64.0986 98.5083C64.273 98.647 64.487 98.7484 64.7408 98.8124C64.9945 98.8711 65.2852 98.9004 65.6129 98.9004C65.967 98.9004 66.2524 98.8497 66.4691 98.7484C66.6858 98.6417 66.8444 98.5029 66.9448 98.3322C67.0453 98.1562 67.0955 97.9641 67.0955 97.756Z" fill="white"/>
<path d="M2.9811 105.522V117.174H1.45093V105.522H2.9811Z" fill="white"/>
<path d="M14.6437 105.522V117.174H13.1056L7.29414 108.187V117.174H5.76396V105.522H7.29414L13.1294 114.533V105.522H14.6437Z" fill="white"/>
<path d="M20.479 117.174H18.0688L18.0847 115.917H20.479C21.3036 115.917 21.9907 115.744 22.5404 115.397C23.0901 115.045 23.5024 114.554 23.7772 113.924C24.0574 113.29 24.1974 112.548 24.1974 111.7V110.987C24.1974 110.321 24.1181 109.728 23.9596 109.211C23.801 108.688 23.5684 108.248 23.2619 107.89C22.9553 107.528 22.58 107.253 22.1361 107.066C21.6973 106.879 21.1926 106.786 20.6217 106.786H18.0212V105.522H20.6217C21.3776 105.522 22.0673 105.65 22.691 105.906C23.3147 106.156 23.8512 106.522 24.3005 107.002C24.7551 107.477 25.1039 108.053 25.347 108.731C25.5902 109.403 25.7117 110.161 25.7117 111.003V111.7C25.7117 112.543 25.5902 113.303 25.347 113.98C25.1039 114.653 24.7524 115.226 24.2926 115.701C23.838 116.176 23.2883 116.541 22.6435 116.797C22.0039 117.048 21.2824 117.174 20.479 117.174ZM18.8854 105.522V117.174H17.3552V105.522H18.8854Z" fill="white"/>
<path d="M36.8987 110.979V111.716C36.8987 112.591 36.7903 113.375 36.5736 114.069C36.3569 114.762 36.0451 115.352 35.6381 115.837C35.2311 116.323 34.7422 116.693 34.1713 116.949C33.6058 117.206 32.9715 117.334 32.2685 117.334C31.5867 117.334 30.9603 117.206 30.3895 116.949C29.8239 116.693 29.3324 116.323 28.9148 115.837C28.5025 115.352 28.1828 114.762 27.9555 114.069C27.7282 113.375 27.6146 112.591 27.6146 111.716V110.979C27.6146 110.104 27.7256 109.323 27.9475 108.635C28.1748 107.941 28.4946 107.352 28.9069 106.866C29.3192 106.375 29.8081 106.002 30.3736 105.746C30.9445 105.49 31.5708 105.362 32.2527 105.362C32.9556 105.362 33.5899 105.49 34.1555 105.746C34.7263 106.002 35.2152 106.375 35.6222 106.866C36.0345 107.352 36.349 107.941 36.5657 108.635C36.7877 109.323 36.8987 110.104 36.8987 110.979ZM35.3844 111.716V110.963C35.3844 110.27 35.313 109.656 35.1703 109.123C35.0329 108.589 34.8294 108.141 34.5598 107.778C34.2902 107.416 33.9599 107.141 33.5688 106.954C33.1829 106.767 32.7442 106.674 32.2527 106.674C31.777 106.674 31.3462 106.767 30.9603 106.954C30.5798 107.141 30.2521 107.416 29.9772 107.778C29.7076 108.141 29.4989 108.589 29.3509 109.123C29.2029 109.656 29.1289 110.27 29.1289 110.963V111.716C29.1289 112.415 29.2029 113.033 29.3509 113.572C29.4989 114.106 29.7103 114.557 29.9851 114.925C30.2653 115.288 30.5956 115.562 30.9762 115.749C31.362 115.936 31.7928 116.029 32.2685 116.029C32.7654 116.029 33.2067 115.936 33.5926 115.749C33.9784 115.562 34.3035 115.288 34.5677 114.925C34.8373 114.557 35.0408 114.106 35.1782 113.572C35.3156 113.033 35.3844 112.415 35.3844 111.716Z" fill="white"/>
<path d="M48.0698 105.522V117.174H46.5317L40.7202 108.187V117.174H39.19V105.522H40.7202L46.5554 114.533V105.522H48.0698Z" fill="white"/>
<path d="M58.115 115.917V117.174H52.0022V115.917H58.115ZM52.3114 105.522V117.174H50.7813V105.522H52.3114ZM57.3063 110.531V111.788H52.0022V110.531H57.3063ZM58.0357 105.522V106.786H52.0022V105.522H58.0357Z" fill="white"/>
<path d="M66.1623 114.229C66.1623 113.956 66.12 113.716 66.0354 113.508C65.9562 113.295 65.8135 113.103 65.6073 112.932C65.4065 112.761 65.1263 112.599 64.7669 112.444C64.4128 112.289 63.9635 112.132 63.4191 111.972C62.8482 111.801 62.3329 111.612 61.8731 111.404C61.4132 111.19 61.0194 110.947 60.6917 110.675C60.364 110.403 60.113 110.091 59.9385 109.739C59.7641 109.387 59.6769 108.984 59.6769 108.531C59.6769 108.077 59.7694 107.658 59.9544 107.274C60.1394 106.89 60.4037 106.557 60.7472 106.274C61.0961 105.986 61.511 105.762 61.992 105.602C62.473 105.442 63.0095 105.362 63.6014 105.362C64.4683 105.362 65.203 105.53 65.8055 105.866C66.4134 106.197 66.8759 106.631 67.193 107.17C67.5101 107.704 67.6687 108.275 67.6687 108.883H66.1464C66.1464 108.445 66.054 108.058 65.869 107.722C65.684 107.381 65.4038 107.114 65.0285 106.922C64.6533 106.725 64.1776 106.626 63.6014 106.626C63.057 106.626 62.6077 106.709 62.2536 106.874C61.8995 107.039 61.6352 107.264 61.4608 107.546C61.2916 107.829 61.2071 108.152 61.2071 108.515C61.2071 108.76 61.2573 108.984 61.3577 109.187C61.4634 109.384 61.6246 109.568 61.8413 109.739C62.0633 109.91 62.3435 110.067 62.6817 110.211C63.0253 110.355 63.4349 110.494 63.9106 110.627C64.5661 110.814 65.1316 111.022 65.6073 111.252C66.083 111.481 66.4742 111.74 66.7807 112.028C67.0926 112.311 67.3225 112.633 67.4705 112.996C67.6238 113.354 67.7004 113.759 67.7004 114.213C67.7004 114.687 67.6053 115.117 67.415 115.501C67.2247 115.885 66.9525 116.213 66.5984 116.485C66.2442 116.757 65.8187 116.968 65.3219 117.118C64.8303 117.262 64.2806 117.334 63.6728 117.334C63.1389 117.334 62.613 117.259 62.095 117.11C61.5823 116.96 61.1146 116.736 60.6917 116.437C60.2742 116.139 59.9385 115.77 59.6848 115.333C59.4364 114.89 59.3122 114.378 59.3122 113.796H60.8344C60.8344 114.197 60.9111 114.541 61.0644 114.829C61.2176 115.112 61.4264 115.346 61.6907 115.533C61.9603 115.72 62.2642 115.858 62.6025 115.949C62.946 116.035 63.3028 116.077 63.6728 116.077C64.2066 116.077 64.6586 116.002 65.0285 115.853C65.3985 115.704 65.6787 115.49 65.869 115.213C66.0645 114.935 66.1623 114.607 66.1623 114.229Z" fill="white"/>
<path d="M71.292 105.522V117.174H69.7618V105.522H71.292Z" fill="white"/>
<path d="M78.4909 106.554L74.6694 117.174H73.1076L77.5078 105.522H78.5147L78.4909 106.554ZM81.694 117.174L77.8646 106.554L77.8408 105.522H78.8477L83.2638 117.174H81.694ZM81.4958 112.86V114.125H75.0104V112.86H81.4958Z" fill="white"/>
<path d="M89.0832 106.554L85.2618 117.174H83.6999L88.1001 105.522H89.107L89.0832 106.554ZM92.2863 117.174L88.4569 106.554L88.4331 105.522H89.44L93.8561 117.174H92.2863ZM92.0881 112.86V114.125H85.6027V112.86H92.0881Z" fill="white"/>
</g>
<defs>
<clipPath id="clip0_50_194">
<rect width="83" height="131" fill="white"/>
</clipPath>
</defs>
</svg>
