<svg id="Layer_1" data-name="Layer 1" xmlns="http://www.w3.org/2000/svg" xmlns:xlink="http://www.w3.org/1999/xlink" viewBox="0 0 67.99 67.99"><defs><style>.cls-1,.cls-5{fill:none;}.cls-2{clip-path:url(#clip-path);}.cls-3{opacity:0.3;}.cls-4{opacity:0.4;}.cls-5{stroke:#2684d9;stroke-miterlimit:10;stroke-width:1.62px;}.cls-6{fill:#56bc2b;}</style><clipPath id="clip-path"><rect class="cls-1" x="-2291.97" width="1920" height="1080"/></clipPath></defs><g class="cls-2"><g class="cls-3"><g class="cls-4"><path class="cls-5" d="M-373.61,579l88.27-88.28h0L53.25,152.18-285.33-186.4h0l-88.27-88.28L-800.47,152.18ZM-686.49,93.27l58.91,58.91-58.91,58.91-58.91-58.91ZM-60.73,211.09l-58.91-58.91,58.91-58.91,58.91,58.91ZM-312.87,463.23h0L-373.61,524l-138-138,110.67-110.65-114-114-82.82,82.82,57,57,27.53-27.53-29.45-29.46,27.75-27.75L-456,275.31l-83.12,83.12-119.8-119.81,86.44-86.44-86.44-86.44,119.8-119.81L-456,29.06-514.94,88l-27.75-27.76,29.45-29.46L-540.77,3.22l-57,57L-514.94,143l114-114L-511.61-81.6l77.26-77.26h0l60.74-60.75,60.74,60.75h0l77.26,77.26L-346.27,29.06l114,114,82.83-82.83-57-57L-234,30.76l29.46,29.45L-232.29,88-291.2,29.06l83.13-83.12,119.8,119.8-86.44,86.44,86.44,86.44-119.8,119.81-83.13-83.12,58.91-58.91,27.76,27.75L-234,273.61l27.54,27.53,57-57-82.83-82.82-114,114L-235.61,386Z"/></g></g></g><path class="cls-6" d="M34,68l7-7h0L68,34,41,7h0L34,0,0,34ZM9.08,29.3,13.77,34,9.08,38.69,4.39,34Zm49.83,9.39L54.22,34l4.69-4.7,4.7,4.7ZM38.83,58.77h0L34,63.61l-11-11,8.81-8.82-9.08-9.08-6.6,6.6,4.54,4.54,2.2-2.19-2.35-2.35,2.21-2.21,4.69,4.69-6.62,6.62-9.54-9.54L18.16,34l-6.89-6.89,9.54-9.54,6.62,6.62-4.69,4.69-2.21-2.21,2.35-2.34-2.2-2.2-4.54,4.54,6.6,6.6,9.08-9.08L23,15.38l6.15-6.16h0L34,4.39l4.83,4.83h0L45,15.38l-8.82,8.81,9.08,9.08,6.6-6.6-4.54-4.54-2.19,2.2,2.34,2.34-2.21,2.21-4.69-4.69,6.62-6.62,9.54,9.54L49.84,34l6.88,6.88-9.54,9.54L40.56,43.8l4.69-4.69,2.21,2.21-2.34,2.35,2.19,2.19,4.54-4.54-6.6-6.6L36.17,43.8,45,52.62Z"/><rect class="cls-6" x="28.66" y="47.15" width="10.68" height="10.68" transform="translate(95.15 65.57) rotate(135)"/><rect class="cls-6" x="28.66" y="9.93" width="10.68" height="10.68" transform="translate(68.84 2.03) rotate(135)"/></svg>