<svg id="Layer_1" data-name="Layer 1" xmlns="http://www.w3.org/2000/svg" xmlns:xlink="http://www.w3.org/1999/xlink" viewBox="0 0 67.99 67.99"><defs><style>.cls-1,.cls-5,.cls-7{fill:none;}.cls-2{clip-path:url(#clip-path);}.cls-3{opacity:0.3;}.cls-4{opacity:0.4;}.cls-5,.cls-7{stroke:#2684d9;stroke-miterlimit:10;}.cls-5{stroke-width:1.62px;}.cls-6{clip-path:url(#clip-path-2);}.cls-8{fill:#f8bf0b;}</style><clipPath id="clip-path"><rect class="cls-1" x="-2115.98" width="1920" height="1080"/></clipPath><clipPath id="clip-path-2"><rect class="cls-1" x="-2115.98" width="1920" height="142.18"/></clipPath></defs><g class="cls-2"><g class="cls-3"><g class="cls-4"><path class="cls-5" d="M-197.63,579l88.28-88.28h0L229.23,152.18-109.35-186.4h0l-88.28-88.28L-624.49,152.18ZM-510.5,93.27l58.9,58.91-58.9,58.91-58.91-58.91ZM115.25,211.09,56.34,152.18l58.91-58.91,58.91,58.91ZM-136.89,463.23h0L-197.63,524l-138-138L-225,275.31l-114-114-82.82,82.82,57,57,27.54-27.53-29.46-29.46,27.76-27.75L-280,275.31l-83.13,83.12L-483,238.62l86.44-86.44L-483,65.74l119.8-119.81L-280,29.06-338.95,88l-27.76-27.76,29.46-29.46L-364.79,3.22l-57,57L-338.95,143l114-114L-335.63-81.6l77.26-77.26h0l60.74-60.75,60.74,60.75h0L-59.63-81.6-170.28,29.06l114,114L26.52,60.21l-57-57L-58,30.76l29.45,29.45L-56.3,88l-58.91-58.91,83.12-83.12L87.72,65.74,1.27,152.18l86.45,86.44L-32.09,358.43l-83.12-83.12L-56.3,216.4l27.75,27.75L-58,273.61l27.53,27.53,57-57L-56.3,161.33l-114,114L-59.62,386Z"/></g></g></g><g class="cls-6"><path class="cls-7" d="M-196,334.28l54.41-54.41h0L67.14,71.16-141.57-137.55h0L-196-192-459.1,71.16ZM-388.84,34.85l36.3,36.31-36.3,36.31-36.32-36.31ZM-3.12,107.47-39.43,71.16-3.12,34.85,33.19,71.16ZM-158.54,262.89h0L-196,300.34-281,215.27l68.21-68.21L-283.1,76.8l-51,51.05L-299,163l17-17-18.16-18.16,17.11-17.11,36.31,36.32L-298,198.29l-73.85-73.84,53.28-53.29-53.28-53.28L-298-56l51.23,51.24L-283.1,31.58l-17.11-17.11L-282-3.69l-17-17-35.13,35.13,51,51.05,70.26-70.25L-281-72.95l47.63-47.62h0L-196-158l37.44,37.45h0l47.62,47.62L-179.13-4.73l70.26,70.25,51.06-51L-92.94-20.66l-17,17,18.16,18.16-17.11,17.11L-145.18-4.73-93.94-56l73.85,73.85L-73.38,71.16l53.29,53.29-73.85,73.84-51.24-51.23,36.31-36.32,17.11,17.11L-109.92,146l17,17,35.13-35.13-51.06-51-70.26,70.26,68.22,68.21Z"/></g><path class="cls-8" d="M34,68l7-7h0L68,34,41,7h0L34,0,0,34ZM9.08,29.3,13.77,34,9.08,38.69,4.39,34Zm49.83,9.39L54.22,34l4.69-4.7,4.7,4.7ZM38.83,58.77h0L34,63.61l-11-11,8.81-8.82-9.08-9.08-6.6,6.6,4.54,4.54,2.2-2.19-2.35-2.35,2.21-2.21,4.69,4.69-6.62,6.62-9.54-9.54L18.16,34l-6.89-6.89,9.54-9.54,6.62,6.62-4.69,4.69-2.21-2.21,2.35-2.34-2.2-2.2-4.54,4.54,6.6,6.6,9.08-9.08L23,15.38l6.15-6.16h0L34,4.39l4.83,4.83h0L45,15.38l-8.82,8.81,9.08,9.08,6.6-6.6-4.54-4.54-2.19,2.2,2.34,2.34-2.21,2.21-4.69-4.69,6.62-6.62,9.54,9.54L49.84,34l6.88,6.88-9.54,9.54L40.56,43.8l4.69-4.69,2.21,2.21-2.34,2.35,2.19,2.19,4.54-4.54-6.6-6.6L36.17,43.8,45,52.62Z"/><rect class="cls-8" x="28.66" y="47.15" width="10.68" height="10.68" transform="translate(95.15 65.57) rotate(135)"/><rect class="cls-8" x="28.66" y="9.93" width="10.68" height="10.68" transform="translate(68.84 2.03) rotate(135)"/></svg>