<svg width="20" height="20" viewBox="0 0 20 20" fill="none" xmlns="http://www.w3.org/2000/svg">
<path d="M9.66003 19.32L11.66 17.32L19.32 9.66L11.66 2L9.66003 0L0 9.66L9.66003 19.32ZM2.58002 8.32999L3.91003 9.66L2.58002 10.99L1.25 9.66L2.58002 8.32999ZM16.7401 11L15.41 9.66998L16.7401 8.34L18.07 9.66998L16.7401 11ZM11.04 16.7L9.67004 18.07L6.55005 14.95L9.05005 12.45L6.47003 9.87L4.60004 11.74L5.89001 13.03L6.51001 12.41L5.84003 11.74L6.47003 11.11L7.80005 12.44L5.92004 14.32L3.21002 11.61L5.17004 9.64999L3.21002 7.69L5.92004 4.98001L7.80005 6.85999L6.47003 8.19L5.84003 7.56L6.51001 6.88998L5.89001 6.26999L4.60004 7.56L6.47003 9.42999L9.05005 6.85001L6.55005 4.35001L8.30005 2.60001L9.67004 1.23001L11.04 2.60001L12.79 4.35001L10.29 6.85001L12.8701 9.42999L14.7401 7.56L13.45 6.26999L12.83 6.88998L13.5 7.56L12.8701 8.19L11.54 6.85999L13.42 4.98001L16.13 7.69L14.17 9.64999L16.13 11.61L13.42 14.32L11.54 12.44L12.8701 11.11L13.5 11.74L12.83 12.41L13.45 13.03L14.7401 11.74L12.8701 9.87L10.29 12.45L12.79 14.95L11.04 16.7Z" fill="#278DE1"/>
<path d="M9.679 17.0584L11.8215 14.9158L9.67902 12.7733L7.53649 14.9159L9.679 17.0584Z" fill="#278DE1"/>
<path d="M9.67497 6.47896L11.8175 4.33643L9.67499 2.19391L7.53246 4.33645L9.67497 6.47896Z" fill="#278DE1"/>
</svg>
