<svg width="99" height="99" viewBox="0 0 99 99" fill="none" xmlns="http://www.w3.org/2000/svg">
<g clip-path="url(#clip0_95_2)">
<path d="M49.13 98.26L59.29 88.1L98.29 49.1L59.29 10.1L49.13 0L0 49.13L49.13 98.26ZM13.13 42.35L19.91 49.13L13.13 55.91L6.34 49.13L13.13 42.35ZM85.13 55.91L78.35 49.13L85.13 42.35L91.91 49.13L85.13 55.91ZM56.13 84.91L49.13 91.91L33.25 76L46 63.3L32.87 50.19L23.33 59.72L29.89 66.28L33.06 63.11L29.67 59.72L32.87 56.52L39.65 63.3L30.08 72.87L16.29 59.08L26.29 49.13L16.34 39.13L30.08 25.39L39.65 35L32.87 41.78L29.67 38.59L33.06 35.2L29.89 32L23.33 38.56L32.87 48.09L46 35L33.25 22.22L42.14 13.33L49.14 6.33L56.14 13.33L65 22.22L52.28 35L65.4 48.08L74.93 38.55L68.37 32L65.2 35.16L68.59 38.55L65.4 41.74L58.62 35L68.19 25.43L82 39.18L72 49.18L82 59.13L68.19 72.87L58.62 63.3L65.4 56.52L68.59 59.72L65.2 63.11L68.37 66.28L74.93 59.72L65.4 50.19L52.28 63.3L65 76L56.13 84.91Z" fill="white" fill-opacity="0.1"/>
<path d="M49.1284 64.9502L38.2178 75.8608L49.1284 86.7715L60.0391 75.8608L49.1284 64.9502Z" fill="white" fill-opacity="0.1"/>
<path d="M49.1333 11.165L38.2227 22.0757L49.1333 32.9863L60.044 22.0757L49.1333 11.165Z" fill="white" fill-opacity="0.1"/>
<g opacity="0.15">
<path d="M102.59 512.88L157 458.47L365.71 249.76L157 41.0501L102.59 -13.3599L-160.54 249.76L102.59 512.88ZM-90.28 213.45L-54 249.76L-90.31 286.07L-126.62 249.76L-90.28 213.45ZM295.45 286.07L259.14 249.76L295.45 213.45L331.76 249.76L295.45 286.07ZM140 441.49L102.56 478.93L17.52 393.87L85.7299 325.66L15.47 255.4L-35.53 306.4L-0.450043 341.58L16.55 324.58L-1.64005 306.45L15.47 289.34L51.78 325.66L0.549957 376.89L-73.3 303L-20 249.76L-73.3 196.48L0.549957 122.63L51.78 173.86L15.47 210.18L-1.64005 193.07L16.52 174.91L-0.480042 157.91L-35.61 193.04L15.44 244.09L85.7 173.83L17.52 105.65L65.14 58.0001L102.59 20.5501L140 58.0001L187.62 105.62L119.41 173.83L189.67 244.09L240.73 193.04L205.6 157.91L188.6 174.91L206.76 193.07L189.7 210.18L153.39 173.86L204.63 122.63L278.48 196.48L225.19 249.76L278.48 303L204.63 376.85L153.39 325.62L189.7 289.3L206.81 306.41L188.65 324.57L205.65 341.57L240.78 306.44L189.72 255.44L119.46 325.7L187.67 393.91L140 441.49Z" stroke="white" stroke-opacity="0.1" stroke-miterlimit="10"/>
<path d="M102.588 163.301L161.037 104.852L102.588 46.4026L44.1382 104.852L102.588 163.301Z" stroke="white" stroke-opacity="0.1" stroke-miterlimit="10"/>
</g>
</g>
<defs>
<clipPath id="clip0_95_2">
<rect width="98.26" height="98.26" fill="white"/>
</clipPath>
</defs>
</svg>
