<?xml version="1.0" encoding="utf-8"?>
<!-- Generator: Adobe Illustrator 24.1.0, SVG Export Plug-In . SVG Version: 6.00 Build 0)  -->
<svg version="1.1" id="Layer_1" xmlns="http://www.w3.org/2000/svg" xmlns:xlink="http://www.w3.org/1999/xlink" x="0px" y="0px"
	 viewBox="0 0 193.41 64.47" style="enable-background:new 0 0 193.41 64.47;" xml:space="preserve">
<style type="text/css">
	.st0{fill:#FFFFFF;}
	.st1{fill:#0099D6;}
	.st2{display:none;}
	.st3{display:inline;fill:#E73225;}
	.st4{display:inline;fill:#0DAB4B;}
	.st5{display:inline;fill:#EA4E37;}
	.st6{display:inline;fill:#FFBC0E;}
	.st7{display:inline;fill:#EE8020;}
	.st8{display:inline;fill:#F4A033;}
	.st9{display:inline;fill:#387C46;}
	.st10{display:inline;fill:#D5A13C;}
	.st11{display:inline;fill:#CC2333;}
	.st12{display:inline;fill:#44C2EF;}
	.st13{display:inline;fill:#A11D44;}
	.st14{display:inline;fill:#E8408F;}
	.st15{display:inline;fill:#B6842C;}
	.st16{display:inline;fill:#00A8E9;}
	.st17{display:inline;fill:#006CB1;}
	.st18{display:inline;fill:#86C03F;}
	.st19{display:inline;fill:#174B6E;}
	.st20{display:none;fill:#508AC7;}
	.st21{display:inline;fill:#508AC7;}
	.st22{fill:#E0243B;}
	.st23{fill:#4C9A38;}
	.st24{fill:#FF3A21;}
	.st25{fill:#F7BE0B;}
	.st26{fill:#F86925;}
	.st27{fill:#F89824;}
	.st28{fill:#3F7E44;}
	.st29{fill:#D8A13A;}
	.st30{fill:#C0192D;}
	.st31{fill:#2688DD;}
	.st32{fill:#9D1942;}
	.st33{fill:#D81367;}
	.st34{fill:#BA862E;}
	.st35{fill:#0A92D4;}
	.st36{fill:#006898;}
	.st37{fill:#56BB2B;}
	.st38{fill:#19486A;}
	.st39{clip-path:url(#SVGID_2_);}
	.st40{fill:none;stroke:#2683D8;stroke-miterlimit:10;}
	.st41{opacity:0.3;}
	.st42{clip-path:url(#SVGID_6_);}
	.st43{fill:none;stroke:#FFFFFF;stroke-width:0.5863;stroke-miterlimit:10;}
	.st44{clip-path:url(#SVGID_8_);}
	.st45{clip-path:url(#SVGID_10_);}
	.st46{clip-path:url(#SVGID_12_);}
	.st47{clip-path:url(#SVGID_14_);}
	.st48{clip-path:url(#SVGID_16_);}
	.st49{fill:url(#SVGID_17_);}
	.st50{opacity:0.4;}
	.st51{fill:#2684D9;}
	.st52{opacity:0.1;}
	.st53{fill:none;stroke:#2684D9;stroke-width:0.3864;stroke-miterlimit:10;}
	.st54{fill:none;stroke:#1C1C1C;stroke-width:3.4447;stroke-miterlimit:10;}
</style>
<g>
	<g>
		<path class="st51" d="M161.18,64.47l6.67-6.67l0,0l25.57-25.57L167.84,6.67l0,0L161.18,0l-32.24,32.24L161.18,64.47z
			 M137.55,27.79l4.45,4.45l-4.45,4.45l-4.45-4.45L137.55,27.79z M184.8,36.68l-4.45-4.45l4.45-4.45l4.45,4.45L184.8,36.68z
			 M165.76,55.72L165.76,55.72l-4.59,4.59l-10.42-10.42l8.36-8.36l-8.61-8.61l-6.25,6.25l4.3,4.3l2.08-2.08l-2.22-2.22l2.1-2.1
			l4.45,4.45l-6.28,6.28l-9.05-9.05l6.53-6.53l-6.53-6.53l9.05-9.05l6.28,6.28l-4.45,4.45l-2.1-2.1l2.22-2.22l-2.08-2.08l-4.3,4.3
			l6.25,6.25l8.61-8.61l-8.36-8.36l5.83-5.83l0,0l4.59-4.59l4.59,4.59l0,0l5.83,5.83l-8.36,8.36l8.61,8.61l6.25-6.25l-4.3-4.3
			l-2.08,2.08l2.22,2.22l-2.1,2.1l-4.45-4.45l6.28-6.28l9.05,9.05l-6.53,6.53l6.53,6.53l-9.05,9.05l-6.28-6.28l4.45-4.45l2.1,2.1
			l-2.22,2.22l2.08,2.08l4.3-4.3l-6.25-6.25l-8.61,8.61l8.36,8.36L165.76,55.72z"/>
		
			<rect x="156.11" y="44.71" transform="matrix(-0.7071 0.7071 -0.7071 -0.7071 310.3421 -28.9967)" class="st51" width="10.13" height="10.13"/>
		
			<rect x="156.11" y="9.42" transform="matrix(-0.7071 0.7071 -0.7071 -0.7071 285.3861 -89.2458)" class="st51" width="10.13" height="10.13"/>
	</g>
	<g>
		<path class="st51" d="M96.71,64.47l6.67-6.67l0,0l25.57-25.57L103.37,6.67l0,0L96.71,0L64.47,32.24L96.71,64.47z M73.08,27.79
			l4.45,4.45l-4.45,4.45l-4.45-4.45L73.08,27.79z M120.33,36.68l-4.45-4.45l4.45-4.45l4.45,4.45L120.33,36.68z M101.29,55.72
			L101.29,55.72l-4.59,4.59L86.28,49.89l8.36-8.36l-8.61-8.61l-6.25,6.25l4.3,4.3l2.08-2.08l-2.22-2.22l2.1-2.1l4.45,4.45
			l-6.28,6.28l-9.05-9.05l6.53-6.53l-6.53-6.53l9.05-9.05l6.28,6.28l-4.45,4.45l-2.1-2.1l2.22-2.22l-2.08-2.08l-4.3,4.3l6.25,6.25
			l8.61-8.61l-8.36-8.36l5.83-5.83l0,0l4.59-4.59l4.59,4.59l0,0l5.83,5.83l-8.36,8.36l8.61,8.61l6.25-6.25l-4.3-4.3l-2.08,2.08
			l2.22,2.22l-2.1,2.1l-4.45-4.45l6.28-6.28l9.05,9.05l-6.53,6.53l6.53,6.53l-9.05,9.05l-6.28-6.28l4.45-4.45l2.1,2.1l-2.22,2.22
			l2.08,2.08l4.3-4.3l-6.25-6.25l-8.61,8.61l8.36,8.36L101.29,55.72z"/>
		
			<rect x="91.64" y="44.71" transform="matrix(-0.7071 0.7071 -0.7071 -0.7071 200.284 16.5909)" class="st51" width="10.13" height="10.13"/>
		
			<rect x="91.64" y="9.42" transform="matrix(-0.7071 0.7071 -0.7071 -0.7071 175.328 -43.6582)" class="st51" width="10.13" height="10.13"/>
	</g>
	<g>
		<path class="st51" d="M32.24,64.47l6.67-6.67l0,0l25.57-25.57L38.9,6.67l0,0L32.24,0L0,32.24L32.24,64.47z M8.61,27.79l4.45,4.45
			l-4.45,4.45l-4.45-4.45L8.61,27.79z M55.86,36.68l-4.45-4.45l4.45-4.45l4.45,4.45L55.86,36.68z M36.82,55.72L36.82,55.72
			l-4.59,4.59L21.81,49.89l8.36-8.36l-8.61-8.61l-6.25,6.25l4.3,4.3l2.08-2.08l-2.22-2.22l2.1-2.1l4.45,4.45l-6.28,6.28l-9.05-9.05
			l6.53-6.53l-6.53-6.53l9.05-9.05l6.28,6.28l-4.45,4.45l-2.1-2.1l2.22-2.22l-2.08-2.08l-4.3,4.3l6.25,6.25l8.61-8.61l-8.36-8.36
			l5.83-5.83l0,0l4.59-4.59l4.59,4.59l0,0l5.83,5.83l-8.36,8.36l8.61,8.61l6.25-6.25l-4.3-4.3l-2.08,2.08L45,25.29l-2.1,2.1
			l-4.45-4.45l6.28-6.28l9.05,9.05l-6.53,6.53l6.53,6.53l-9.05,9.05l-6.28-6.28l4.45-4.45l2.1,2.1l-2.22,2.22l2.08,2.08l4.3-4.3
			l-6.25-6.25l-8.61,8.61l8.36,8.36L36.82,55.72z"/>
		
			<rect x="27.17" y="44.71" transform="matrix(-0.7071 0.7071 -0.7071 -0.7071 90.2258 62.1785)" class="st51" width="10.13" height="10.13"/>
		
			<rect x="27.17" y="9.42" transform="matrix(-0.7071 0.7071 -0.7071 -0.7071 65.2698 1.9294)" class="st51" width="10.13" height="10.13"/>
	</g>
</g>
</svg>
