<svg width="43" height="43" viewBox="0 0 43 43" fill="none" xmlns="http://www.w3.org/2000/svg">
<path d="M21.43 42.84L25.89 38.44L42.89 21.44L25.89 4.44L21.45 0L0 21.46L21.43 42.84ZM5.71002 18.43L8.71002 21.43L5.71002 24.43L2.71002 21.43L5.71002 18.43ZM37.16 24.35L34.16 21.35L37.16 18.35L40.16 21.35L37.16 24.35ZM24.49 37.05L21.43 40.05L14.5 33.12L20.06 27.56L14.33 21.84L10.17 26L13.03 28.87L14.42 27.48L12.94 26L14.33 24.61L17.33 27.61L13.15 31.78L7.15002 25.78L11.5 21.44L7.15002 17.09L13.15 11.09L17.33 15.27L14.33 18.27L12.94 16.84L14.42 15.36L13.03 13.97L10.17 16.84L14.33 21L20.06 15.27L14.5 9.70999L18.38 5.83L21.43 2.76999L24.49 5.84L28.37 9.72L22.81 15.28L28.54 21.01L32.7 16.85L29.89 13.93L28.5 15.32L29.89 16.84L28.5 18.23L25.5 15.23L29.67 11.05L35.67 17.05L31.32 21.4L35.67 25.74L29.67 31.74L25.5 27.57L28.5 24.57L29.89 26.04L28.41 27.52L29.8 28.91L32.66 26.04L28.54 21.84L22.81 27.57L28.37 33.13L24.49 37.05Z" fill="#2681D6"/>
<path d="M21.4348 37.8517L26.2007 33.0858L21.4348 28.3199L16.6689 33.0858L21.4348 37.8517Z" fill="#2681D6"/>
<path d="M21.4447 14.3717L26.2106 9.60583L21.4447 4.83993L16.6788 9.60582L21.4447 14.3717Z" fill="#2681D6"/>
</svg>
