<svg width="266" height="1081" viewBox="0 0 266 1081" fill="none" xmlns="http://www.w3.org/2000/svg">
<mask id="mask0_57_20" style="mask-type:alpha" maskUnits="userSpaceOnUse" x="0" y="0" width="266" height="1081">
<rect width="266" height="1081" fill="white"/>
</mask>
<g mask="url(#mask0_57_20)">
<g clip-path="url(#clip0_57_20)">
<path d="M265.98 2.84L318.53 55.66L319.73 56.86L524.14 262.32L319.84 467.66L318.53 468.98L265.98 521.8L7.82 262.32L265.98 2.84ZM246.44 186.66L179.57 253.87L131.75 205.81L163.77 173.62L177.78 187.7L159.78 205.8L179.57 225.7L180.99 224.27L217.01 188.07L218.41 186.66L217.01 185.25L164.77 132.74L90.1 207.79L88.7 209.2L90.1 210.61L141.55 262.32L90.1 314.03L88.7 315.44L90.1 316.85L164.77 391.9L217.01 339.39L218.41 337.98L179.58 298.94L159.79 318.84L177.79 336.94L163.78 351.02L131.76 318.83L179.58 270.77L246.45 337.98L180.2 404.57L178.8 405.98L180.2 407.39L266 493.63L351.8 407.39L353.2 405.98L285.55 337.98L352.42 270.77L400.24 318.83L368.22 351.02L354.2 336.93L370.81 320.24L372.21 318.83L352.42 298.93L351 300.36L314.98 336.56L313.58 337.97L365.8 390.46L367.22 391.88L441.89 316.83L443.29 315.42L441.89 314.01L390.44 262.3L441.89 210.59L443.29 209.18L441.89 207.77L367.22 132.72L313.58 186.64L314.98 188.05L351 224.25L352.42 225.68L372.21 205.78L370.81 204.37L354.2 187.68L368.22 173.59L400.24 205.78L352.42 253.84L285.55 186.63L353.2 118.63L351.8 117.22L267.4 32.43L265.98 31L180.18 117.24L178.78 118.65L180.18 120.06L246.44 186.66ZM457.28 301.36L458.7 299.93L494.72 263.73L496.12 262.32L494.72 260.91L458.7 224.71L457.28 223.28L455.86 224.71L419.84 260.91L418.44 262.32L419.84 263.73L455.86 299.93L457.28 301.36ZM74.69 301.36L76.11 299.93L112.13 263.73L113.53 262.32L112.13 260.91L76.11 224.71L74.69 223.28L73.27 224.71L37.25 260.91L35.85 262.32L37.25 263.73L73.27 299.93L74.69 301.36ZM265.98 0L5 262.32L265.98 524.64L526.96 262.32L265.98 0ZM179.58 256.7L249.27 186.66L181.61 118.66L265.99 33.85L350.37 118.66L282.71 186.66L352.4 256.7L403.04 205.8L368.2 170.78L351.36 187.7L369.37 205.8L352.4 222.86L316.38 186.66L367.2 135.58L440.45 209.2L387.6 262.32L440.45 315.44L367.2 389.06L316.38 337.98L352.4 301.78L369.37 318.84L351.36 336.94L368.2 353.86L403.04 318.84L352.4 267.94L282.71 337.98L350.37 405.98L265.99 490.79L181.61 405.98L249.27 337.98L179.58 267.94L128.94 318.84L163.78 353.86L180.61 336.94L162.6 318.84L179.57 301.78L215.59 337.98L164.77 389.06L91.52 315.44L144.37 262.32L91.52 209.2L164.77 135.58L215.59 186.66L179.57 222.86L162.6 205.8L180.61 187.7L163.78 170.78L128.94 205.8L179.58 256.7ZM457.28 298.52L421.26 262.32L457.28 226.12L493.3 262.32L457.28 298.52ZM74.69 298.52L38.67 262.32L74.69 226.12L110.71 262.32L74.69 298.52Z" fill="#2684D9" fill-opacity="0.1"/>
<path d="M265.98 349.62L321.13 405.05L265.98 460.48L210.83 405.05L265.98 349.62ZM265.98 346.79L208.01 405.06L265.98 463.33L323.95 405.06L265.98 346.79Z" fill="#2684D9" fill-opacity="0.1"/>
<path d="M265.98 62.42L321.13 117.85L265.98 173.28L210.83 117.85L265.98 62.42ZM265.98 59.58L208.01 117.85L265.98 176.12L323.95 117.85L265.98 59.58Z" fill="#2684D9" fill-opacity="0.1"/>
<path d="M265.98 558.2L318.53 611.02L319.73 612.22L524.14 817.68L319.81 1023.06L318.54 1024.34L265.99 1077.16L7.82 817.68L265.98 558.2ZM246.44 742.02L179.57 809.23L131.75 761.17L163.77 728.98L177.78 743.06L159.78 761.16L179.57 781.06L180.99 779.63L217.01 743.43L218.41 742.02L217.01 740.61L164.77 688.1L163.35 689.53L90.1 763.15L88.7 764.56L90.1 765.97L141.55 817.68L90.1 869.39L88.7 870.8L90.1 872.21L164.77 947.26L218.41 893.34L179.58 854.3L159.79 874.2L177.79 892.3L163.78 906.38L131.76 874.19L179.58 826.13L246.45 893.34L180.2 959.93L178.8 961.34L180.2 962.75L266 1048.99L351.8 962.75L353.2 961.34L351.8 959.93L285.55 893.34L352.42 826.13L400.24 874.19L368.22 906.38L354.2 892.29L370.81 875.6L372.21 874.19L352.42 854.29L351 855.72L314.98 891.92L313.58 893.33L367.22 947.25L441.89 872.2L443.29 870.79L441.89 869.38L390.44 817.67L441.89 765.96L443.29 764.55L441.89 763.14L367.22 688.09L314.98 740.6L313.58 742.01L314.98 743.42L351 779.62L352.42 781.05L372.21 761.15L370.81 759.74L354.2 743.05L368.22 728.96L400.24 761.15L352.42 809.22L285.55 742.01L353.2 674.01L351.8 672.6L267.4 587.8L265.98 586.37L180.18 672.61L178.78 674.02L180.18 675.43L246.44 742.02ZM457.28 856.72L458.7 855.3L494.72 819.1L496.12 817.69L494.72 816.28L458.7 780.08L457.28 778.66L455.86 780.09L419.84 816.29L418.44 817.7L419.84 819.11L455.86 855.31L457.28 856.72ZM74.69 856.72L76.11 855.29L112.13 819.09L113.53 817.68L112.13 816.27L76.11 780.07L74.69 778.64L73.27 780.07L37.25 816.27L35.85 817.68L37.25 819.09L73.27 855.29L74.69 856.72ZM265.98 555.36L5 817.68L265.98 1080L526.96 817.68L265.98 555.36ZM179.58 812.06L249.27 742.02L181.61 674.02L265.99 589.21L350.37 674.02L282.71 742.02L352.4 812.06L403.04 761.16L368.2 726.14L351.36 743.06L369.37 761.16L352.4 778.22L316.38 742.02L367.2 690.94L440.45 764.56L387.6 817.68L440.45 870.8L367.2 944.42L316.38 893.34L352.4 857.14L369.37 874.2L351.36 892.3L368.2 909.22L403.04 874.2L352.4 823.3L282.71 893.34L350.37 961.34L265.99 1046.15L181.61 961.34L249.27 893.34L179.58 823.3L128.94 874.2L163.78 909.22L180.61 892.3L162.6 874.2L179.57 857.14L215.59 893.34L164.77 944.42L91.52 870.8L144.37 817.68L91.52 764.56L164.77 690.94L215.59 742.02L179.57 778.22L162.6 761.16L180.61 743.06L163.78 726.14L128.94 761.16L179.58 812.06ZM457.28 853.88L421.26 817.68L457.28 781.48L493.3 817.68L457.28 853.88ZM74.69 853.88L38.67 817.68L74.69 781.48L110.71 817.68L74.69 853.88Z" fill="#2684D9" fill-opacity="0.1"/>
<path d="M265.98 904.99L321.13 960.42L265.98 1015.85L210.83 960.42L265.98 904.99ZM265.98 902.15L208.01 960.42L265.98 1018.69L323.95 960.42L265.98 902.15Z" fill="#2684D9" fill-opacity="0.1"/>
<path d="M265.98 617.78L321.13 673.21L265.98 728.64L210.83 673.21L265.98 617.78ZM265.98 614.95L208.01 673.22L265.98 731.49L323.95 673.22L265.98 614.95Z" fill="#2684D9" fill-opacity="0.1"/>
</g>
</g>
<defs>
<clipPath id="clip0_57_20">
<rect width="521.97" height="1080" fill="white" transform="translate(5)"/>
</clipPath>
</defs>
</svg>
