<svg width="795" height="500" viewBox="0 0 795 500" fill="none" xmlns="http://www.w3.org/2000/svg">
<g opacity="0.15">
<path d="M530.57 512.88L585 458.47L793.69 249.76L585 41.05L530.57 -13.36L267.44 249.76L530.57 512.88ZM337.7 213.45L374 249.76L337.7 286.07L301.39 249.76L337.7 213.45ZM723.43 286.07L687.12 249.76L723.43 213.45L759.74 249.76L723.43 286.07ZM568 441.49L530.56 478.93L445.5 393.87L513.71 325.66L443.45 255.4L392.4 306.4L427.53 341.53L444.53 324.53L426.37 306.37L443.48 289.26L479.79 325.58L428.56 376.81L354.68 303L408 249.76L354.72 196.48L428.57 122.63L479.8 173.86L443.49 210.18L426.38 193.07L444.54 174.91L427.54 157.91L392.4 193.07L443.45 244.12L513.71 173.86L445.5 105.65L493.12 58L530.57 20.55L568 58L615.62 105.62L547.41 173.83L617.67 244.09L668.73 193.04L633.6 157.91L616.6 174.91L634.76 193.07L617.65 210.18L581.34 173.86L632.58 122.63L706.43 196.48L653.14 249.76L706.46 303L632.61 376.85L581.37 325.62L617.68 289.3L634.79 306.41L616.63 324.57L633.63 341.57L668.76 306.44L617.7 255.44L547.44 325.7L615.65 393.91L568 441.49Z" stroke="white" stroke-miterlimit="10"/>
<path d="M530.567 451.386L589.017 392.936L530.567 334.487L472.118 392.936L530.567 451.386Z" stroke="white" stroke-miterlimit="10"/>
<path d="M530.56 163.309L589.01 104.859L530.56 46.4101L472.111 104.86L530.56 163.309Z" stroke="white" stroke-miterlimit="10"/>
<path d="M-15.6798 512.88L38.7402 458.47L247.44 249.76L38.7402 41.05L-15.6798 -13.36L-278.8 249.76L-15.6798 512.88ZM-208.54 213.45L-172.23 249.76L-208.54 286.07L-244.85 249.76L-208.54 213.45ZM177.19 286.07L140.87 249.76L177.19 213.45L213.5 249.76L177.19 286.07ZM21.7602 441.49L-15.6798 478.93L-100.75 393.87L-32.5298 325.66L-102.79 255.4L-153.79 306.4L-118.67 341.53L-101.67 324.53L-119.82 306.37L-102.71 289.26L-66.3998 325.58L-117.64 376.81L-191.57 303L-138.28 249.72L-191.57 196.44L-117.72 122.59L-66.4798 173.82L-102.79 210.14L-119.9 193.03L-101.75 174.87L-118.75 157.87L-153.87 193L-102.82 244.05L-32.5598 173.79L-100.77 105.58L-53.1198 58L-15.6798 20.55L21.7602 58L69.3902 105.62L1.18018 173.86L71.4402 244.12L122.49 193.07L87.3602 157.94L70.3602 174.94L88.5202 193.1L71.4402 210.18L35.1202 173.86L86.3602 122.63L160.21 196.48L106.93 249.76L160.21 303L86.3602 376.89L35.1202 325.66L71.4402 289.34L88.5502 306.45L70.3902 324.61L87.3902 341.61L122.52 306.48L71.5202 255.48L1.18018 325.66L69.3902 393.87L21.7602 441.49Z" stroke="white" stroke-miterlimit="10"/>
<path d="M-15.676 451.388L42.7734 392.939L-15.676 334.49L-74.1255 392.939L-15.676 451.388Z" stroke="white" stroke-miterlimit="10"/>
<path d="M-15.6726 163.302L42.7769 104.852L-15.6726 46.403L-74.122 104.852L-15.6726 163.302Z" stroke="white" stroke-miterlimit="10"/>
<path d="M257.52 795.86L311.93 741.45L520.64 532.74L311.93 324L257.52 269.59L-5.60986 532.74L257.52 795.86ZM64.6501 496.43L101 532.74L64.6501 569.05L28.3401 532.74L64.6501 496.43ZM450.38 569.05L414.07 532.74L450.38 496.43L486.69 532.74L450.38 569.05ZM295 724.47L257.56 761.92L172.49 676.85L240.7 608.64L170.4 538.38L119.35 589.38L154.48 624.51L171.48 607.51L153.32 589.35L170.43 572.25L206.74 608.56L155.5 659.8L81.6301 586L134.91 532.71L81.6301 479.46L155.48 405.61L206.71 456.85L170.4 493.16L153.29 476.05L171.45 457.89L154.45 440.89L119.32 476.02L170.4 527.1L240.66 456.85L172.45 388.63L220.07 341L257.52 303.56L295 341L342.62 388.62L274.41 456.84L344.67 527.09L395.73 476.04L360.6 440.91L343.6 457.91L361.76 476.07L344.65 493.18L308.34 456.87L359.58 405.63L433.43 479.48L380.14 532.76L433.41 586L359.56 659.84L308.32 608.61L344.63 572.3L361.74 589.4L343.58 607.56L360.58 624.56L395.71 589.43L344.65 538.43L274.39 608.69L342.6 676.9L295 724.47Z" stroke="white" stroke-miterlimit="10"/>
<path d="M257.511 446.279L315.961 387.83L257.511 329.38L199.062 387.83L257.511 446.279Z" stroke="white" stroke-miterlimit="10"/>
<path d="M257.52 229.76L311.93 175.35L520.64 -33.36L311.93 -242.07L257.52 -296.48L-5.60986 -33.36L257.52 229.76ZM64.6501 -69.67L101 -33.36L64.6501 3L28.3401 -33.36L64.6501 -69.67ZM450.38 3L414.07 -33.36L450.38 -69.67L486.69 -33.36L450.38 3ZM295 158.37L257.56 195.81L172.49 110.75L240.7 42.53L170.4 -27.72L119.35 23.33L154.48 58.46L171.48 41.46L153.29 23.33L170.4 6.22L206.71 42.53L155.47 93.77L81.6301 19.92L134.91 -33.36L81.6301 -86.65L155.48 -160.5L206.71 -109.26L170.4 -72.94L153.29 -90L171.45 -108.16L154.45 -125.16L119.35 -90L170.4 -39L240.66 -109.26L172.45 -177.47L220.07 -225.09L257.52 -262.54L295 -225.09L342.62 -177.47L274.41 -109.26L344.63 -39L395.69 -90L360.56 -125.13L343.56 -108.13L361.74 -90L344.63 -72.94L308.32 -109.26L359.56 -160.49L433.41 -86.65L380.12 -33.36L433.41 19.92L359.56 93.77L308.32 42.53L344.63 6.22L361.74 23.33L343.58 41.49L360.58 58.49L395.71 23.36L344.65 -27.64L274.37 42.53L342.58 110.75L295 158.37Z" stroke="white" stroke-miterlimit="10"/>
<path d="M257.519 168.266L315.968 109.817L257.519 51.3673L199.069 109.817L257.519 168.266Z" stroke="white" stroke-miterlimit="10"/>
</g>
</svg>
