<svg width="162" height="161" viewBox="0 0 162 161" fill="none" xmlns="http://www.w3.org/2000/svg">
<mask id="mask0_33_45" style="mask-type:alpha" maskUnits="userSpaceOnUse" x="0" y="0" width="162" height="161">
<rect width="162" height="161" fill="#D9D9D9"/>
</mask>
<g mask="url(#mask0_33_45)">
<g opacity="0.3">
<g opacity="0.4">
<path d="M152.611 9.14626L152.538 37.6352L152.538 38.2841L152.254 149.101L41.4991 149.382L40.7881 149.385L12.2991 149.458L12.656 9.50314L152.611 9.14626ZM97.628 53.5627L61.3768 53.6546L61.4417 27.7315L78.8021 27.6856L78.7832 35.2803L69.7826 35.3046L69.0228 35.3073L69.0201 36.067L68.9958 45.2677L68.9931 46.0383L69.7637 46.0356L89.2898 45.9869L90.0495 45.9842L90.0522 45.2245L90.1225 17.6737L90.1252 16.9032L89.3547 16.9059L49.6454 17.0059L48.8857 17.0086L48.883 17.7684L48.8127 45.6598L20.9212 45.7301L20.1615 45.7328L20.1588 46.4925L20.0588 86.2018L20.0561 86.9724L20.8266 86.9697L48.3774 86.8994L49.1371 86.8967L49.1398 86.1369L49.1912 66.6135L49.1939 65.8429L48.4233 65.8456L39.2226 65.87L38.4629 65.8727L38.4602 66.6324L38.4358 75.633L30.8411 75.652L30.8871 58.2915L56.8102 58.2266L56.7183 94.4779L20.8023 94.5698L20.0425 94.5725L20.0398 95.3322L19.9236 141.076L19.9209 141.847L20.6914 141.844L40.8259 141.793L66.4354 141.728L67.1951 141.725L67.1978 140.965L67.2898 105.049L103.541 104.957L103.476 130.881L86.1157 130.926L86.1346 123.326L95.1379 123.305L95.8977 123.302L95.9004 122.542L95.9247 113.342L95.9274 112.571L95.1568 112.574L75.6307 112.622L74.8709 112.625L74.8683 113.385L74.798 140.936L74.798 141.703L75.5685 141.701L115.278 141.601L116.038 141.598L116.04 140.838L116.111 112.947L144.002 112.877L144.762 112.874L144.764 112.114L144.864 72.4048L144.867 71.6343L144.097 71.637L116.546 71.7073L115.786 71.71L115.783 72.4697L115.735 91.9959L115.732 92.7664L116.503 92.7637L125.703 92.7394L126.463 92.7367L126.466 91.9769L126.487 82.9736L134.087 82.9547L134.042 100.315L108.118 100.38L108.21 64.1288L144.126 64.0368L144.886 64.0341L144.889 63.2744L144.954 37.6649L144.994 17.5304L144.997 16.7599L144.226 16.7626L124.092 16.814L98.4824 16.8788L97.7227 16.8816L97.72 17.6413L97.628 53.5627ZM123.621 141.579L124.392 141.576L143.918 141.528L144.678 141.525L144.681 140.765L144.729 121.239L144.732 120.469L143.961 120.471L124.435 120.52L123.676 120.523L123.673 121.282L123.624 140.809L123.621 141.579ZM20.1804 38.1381L20.951 38.1354L40.4771 38.0867L41.2369 38.084L41.2396 37.3243L41.2882 17.7981L41.291 17.0276L40.5204 17.0303L20.9942 17.0789L20.2345 17.0816L20.2318 17.8414L20.1831 37.3675L20.1804 38.1381ZM153.378 8.3784L11.8936 8.7407L11.5313 150.226L40.7908 150.15L153.016 149.863L153.305 37.6406L153.378 8.3784ZM60.6143 54.4225L98.3932 54.3279L98.4851 17.6494L124.095 17.5845L144.229 17.5331L144.178 37.6676L144.113 63.2771L107.434 63.369L107.34 101.148L134.793 101.078L134.842 82.1895L125.714 82.2111L125.69 91.9742L116.489 91.9986L116.538 72.4724L144.088 72.4021L143.988 112.111L115.337 112.184L115.264 140.836L75.555 140.936L75.6253 113.385L95.1514 113.336L95.1271 122.537L85.364 122.561L85.3424 131.689L104.23 131.64L104.301 104.187L66.5219 104.281L66.43 140.96L40.8205 141.025L20.686 141.076L20.8023 95.3322L57.4807 95.2403L57.5754 57.4614L30.122 57.5317L30.0733 76.4198L39.1983 76.3955L39.2226 66.6324L48.4233 66.6081L48.3747 86.1342L20.8239 86.2045L20.9239 46.4952L49.5751 46.4222L49.6481 17.7711L89.3574 17.671L89.2871 45.2218L69.761 45.2704L69.7853 36.0697L79.5484 36.0454L79.5727 26.9204L60.6846 26.9691L60.6143 54.4225ZM124.389 140.811L124.438 121.285L143.964 121.236L143.915 140.763L124.389 140.811ZM20.9483 37.3702L20.9969 17.8441L40.5231 17.7954L40.4744 37.3216L20.9483 37.3702Z" fill="white"/>
<path d="M58.8515 102.905L58.7758 132.803L28.8782 132.879L28.9539 102.981L58.8515 102.905ZM59.6166 102.14L28.1888 102.221L28.1077 133.649L59.5355 133.568L59.6166 102.14Z" fill="white"/>
<path d="M136.502 25.2549L136.426 55.1524L106.529 55.2281L106.604 25.3306L136.502 25.2549ZM137.27 24.487L105.842 24.5681L105.761 55.996L137.189 55.9149L137.27 24.487Z" fill="white"/>
</g>
<g opacity="0.4">
<path d="M2.45759 159.299L2.38459 187.788L2.3846 188.437L2.10071 299.254L-108.673 299.538L-109.362 299.54L-137.851 299.613L-137.497 159.656L2.45759 159.299ZM-52.5249 203.716L-88.7762 203.807L-88.7113 177.884L-71.3508 177.838L-71.3697 185.433L-80.3704 185.457L-81.1301 185.46L-81.1328 186.22L-81.1572 195.421L-81.1599 196.191L-80.3893 196.188L-60.8632 196.14L-60.1034 196.137L-60.1007 195.377L-60.0304 167.827L-60.0277 167.056L-60.7983 167.059L-100.508 167.159L-101.267 167.161L-101.27 167.921L-101.34 195.813L-129.232 195.883L-129.991 195.886L-129.994 196.645L-130.094 236.355L-130.097 237.125L-129.326 237.123L-101.776 237.052L-101.016 237.05L-101.013 236.29L-100.962 216.766L-100.959 215.996L-101.73 215.998L-110.93 216.023L-111.69 216.026L-111.693 216.785L-111.717 225.786L-119.312 225.805L-119.266 208.444L-93.3427 208.379L-93.4347 244.631L-129.351 244.723L-130.11 244.725L-130.113 245.485L-130.229 291.229L-130.232 292L-129.462 291.997L-109.327 291.945L-83.7176 291.881L-82.9578 291.878L-82.9551 291.118L-82.8632 255.202L-46.6119 255.11L-46.6768 281.033L-64.0373 281.079L-64.0184 273.479L-55.015 273.458L-54.2553 273.455L-54.2526 272.695L-54.2283 263.494L-54.2255 262.724L-54.9961 262.727L-74.5223 262.775L-75.282 262.778L-75.2847 263.538L-75.355 291.088L-75.3577 291.859L-74.5872 291.856L-34.8779 291.756L-34.1181 291.754L-34.1154 290.994L-34.0451 263.102L-6.15371 263.032L-5.39396 263.029L-5.39126 262.27L-5.29122 222.56L-5.28853 221.79L-6.05908 221.793L-33.6098 221.863L-34.3696 221.865L-34.3723 222.625L-34.4209 242.151L-34.4236 242.922L-33.6531 242.919L-24.4524 242.895L-23.6926 242.892L-23.6899 242.132L-23.6683 233.129L-16.0682 233.11L-16.1142 250.471L-42.04 250.538L-41.948 214.287L-6.03204 214.195L-5.2723 214.192L-5.26959 213.433L-5.2047 187.823L-5.16144 167.686L-5.15874 166.915L-5.92929 166.918L-26.0638 166.969L-51.6733 167.034L-52.433 167.037L-52.4357 167.797L-52.5249 203.716ZM-26.5315 291.732L-25.7637 291.732L-6.23751 291.683L-5.47778 291.681L-5.47508 290.921L-5.42641 271.395L-5.4264 270.627L-6.19698 270.63L-25.7231 270.678L-26.4829 270.681L-26.4856 271.441L-26.5342 290.967L-26.5315 291.732ZM-129.973 188.291L-129.202 188.288L-109.676 188.24L-108.916 188.237L-108.913 187.477L-108.865 167.951L-108.862 167.18L-109.633 167.183L-129.159 167.232L-129.918 167.234L-129.921 167.994L-129.97 187.52L-129.973 188.291ZM3.22545 158.531L-138.259 158.894L-138.622 300.378L-109.362 300.303L2.86316 300.016L3.15245 187.793L3.22545 158.531ZM-89.5386 204.575L-51.7598 204.481L-51.6679 167.802L-26.0584 167.737L-5.9239 167.686L-5.97525 187.82L-6.04016 213.43L-42.7186 213.522L-42.8132 251.301L-15.3598 251.23L-15.3112 232.342L-24.4389 232.364L-24.4632 242.127L-33.6639 242.151L-33.6152 222.625L-6.06448 222.555L-6.16452 262.264L-34.8157 262.337L-34.8887 290.988L-74.598 291.088L-74.5277 263.538L-55.0015 263.489L-55.0259 272.69L-64.7889 272.714L-64.8105 281.842L-45.9225 281.793L-45.8522 254.34L-83.6311 254.434L-83.723 291.113L-109.332 291.178L-129.467 291.229L-129.351 245.485L-92.6722 245.393L-92.5776 207.614L-120.031 207.685L-120.08 226.573L-110.955 226.548L-110.93 216.785L-101.73 216.761L-101.778 236.287L-129.329 236.357L-129.229 196.648L-100.578 196.575L-100.505 167.924L-60.7956 167.824L-60.8659 195.375L-80.392 195.423L-80.3677 186.223L-70.6046 186.198L-70.5803 177.073L-89.4683 177.122L-89.5386 204.575ZM-25.7637 290.964L-25.715 271.438L-6.18885 271.389L-6.23752 290.915L-25.7637 290.964ZM-129.205 187.523L-129.156 167.997L-109.63 167.948L-109.679 187.474L-129.205 187.523Z" fill="white"/>
<path d="M-13.6511 175.408L-13.7268 205.305L-43.6244 205.381L-43.5487 175.484L-13.6511 175.408ZM-12.886 174.643L-44.3138 174.724L-44.3949 206.152L-12.9671 206.071L-12.886 174.643Z" fill="white"/>
</g>
</g>
</g>
</svg>
