<svg id="Layer_1" data-name="Layer 1" xmlns="http://www.w3.org/2000/svg" xmlns:xlink="http://www.w3.org/1999/xlink" viewBox="0 0 67.99 67.99"><defs><style>.cls-1,.cls-5{fill:none;}.cls-2{clip-path:url(#clip-path);}.cls-3{opacity:0.3;}.cls-4{opacity:0.4;}.cls-5{stroke:#2684d9;stroke-miterlimit:10;stroke-width:1.62px;}.cls-6{fill:#f99924;}</style><clipPath id="clip-path"><rect class="cls-1" x="-2203.98" width="1920" height="1080"/></clipPath></defs><g class="cls-2"><g class="cls-3"><g class="cls-4"><path class="cls-5" d="M-285.62,579l88.28-88.28h0L141.24,152.18-197.34-186.4h0l-88.28-88.28L-712.48,152.18ZM-598.5,93.27l58.91,58.91-58.91,58.91-58.9-58.91ZM27.26,211.09l-58.91-58.91L27.26,93.27l58.91,58.91ZM-224.88,463.23h0L-285.62,524l-138-138L-313,275.31l-114-114-82.82,82.82,57,57,27.53-27.53-29.45-29.46,27.76-27.75,58.9,58.91-83.12,83.12L-571,238.62l86.44-86.44L-571,65.74l119.8-119.81L-368,29.06-426.94,88-454.7,60.21l29.45-29.46L-452.78,3.22l-57,57L-426.94,143l114-114L-423.62-81.6l77.26-77.26h0l60.74-60.75,60.74,60.75h0l77.26,77.26L-258.27,29.06l114,114,82.83-82.83-57-57L-146,30.76l29.45,29.45L-144.3,88l-58.9-58.91,83.12-83.12L-.28,65.74l-86.44,86.44L-.28,238.62l-119.8,119.81-83.12-83.12,58.9-58.91,27.76,27.75L-146,273.61l27.53,27.53,57-57-82.83-82.82-114,114L-147.62,386Z"/></g></g></g><path class="cls-6" d="M34,68l7-7h0L68,34,41,7h0L34,0,0,34ZM9.08,29.3,13.77,34,9.08,38.69,4.39,34Zm49.83,9.39L54.22,34l4.69-4.7,4.7,4.7ZM38.83,58.77h0L34,63.61l-11-11,8.81-8.82-9.08-9.08-6.6,6.6,4.54,4.54,2.2-2.19-2.35-2.35,2.21-2.21,4.69,4.69-6.62,6.62-9.54-9.54L18.16,34l-6.89-6.89,9.54-9.54,6.62,6.62-4.69,4.69-2.21-2.21,2.35-2.34-2.2-2.2-4.54,4.54,6.6,6.6,9.08-9.08L23,15.38l6.15-6.16h0L34,4.39l4.83,4.83h0L45,15.38l-8.82,8.81,9.08,9.08,6.6-6.6-4.54-4.54-2.19,2.2,2.34,2.34-2.21,2.21-4.69-4.69,6.62-6.62,9.54,9.54L49.84,34l6.88,6.88-9.54,9.54L40.56,43.8l4.69-4.69,2.21,2.21-2.34,2.35,2.19,2.19,4.54-4.54-6.6-6.6L36.17,43.8,45,52.62Z"/><rect class="cls-6" x="28.66" y="47.15" width="10.68" height="10.68" transform="translate(95.15 65.57) rotate(135)"/><rect class="cls-6" x="28.66" y="9.93" width="10.68" height="10.68" transform="translate(68.84 2.03) rotate(135)"/></svg>