<svg id="Layer_1" data-name="Layer 1" xmlns="http://www.w3.org/2000/svg" viewBox="0 0 67.99 67.99"><defs><style>.cls-1{fill:#3f7e44;}</style></defs><path class="cls-1" d="M34,68l7-7h0L68,34,41,7h0L34,0,0,34ZM9.08,29.3,13.77,34,9.08,38.69,4.39,34Zm49.83,9.39L54.22,34l4.69-4.7,4.7,4.7ZM38.83,58.77h0L34,63.61l-11-11,8.81-8.82-9.08-9.08-6.6,6.6,4.54,4.54,2.2-2.19-2.35-2.35,2.21-2.21,4.69,4.69-6.62,6.62-9.54-9.54L18.16,34l-6.89-6.89,9.54-9.54,6.62,6.62-4.69,4.69-2.21-2.21,2.35-2.34-2.2-2.2-4.54,4.54,6.6,6.6,9.08-9.08L23,15.38l6.15-6.16h0L34,4.39l4.83,4.83h0L45,15.38l-8.82,8.81,9.08,9.08,6.6-6.6-4.54-4.54-2.19,2.2,2.34,2.34-2.21,2.21-4.69-4.69,6.62-6.62,9.54,9.54L49.84,34l6.88,6.88-9.54,9.54L40.56,43.8l4.69-4.69,2.21,2.21-2.34,2.35,2.19,2.19,4.54-4.54-6.6-6.6L36.17,43.8,45,52.62Z"/><rect class="cls-1" x="28.66" y="47.15" width="10.68" height="10.68" transform="translate(95.15 65.57) rotate(135)"/><rect class="cls-1" x="28.66" y="9.93" width="10.68" height="10.68" transform="translate(68.84 2.03) rotate(135)"/></svg>