<svg width="66" height="68" viewBox="0 0 66 68" fill="none" xmlns="http://www.w3.org/2000/svg">
<path d="M-11.15 58L-6.15002 53L13.21 33.58L-6.11002 14.25L-11.11 9.25L-35.52 33.58L-11.15 58ZM-29 30.22L-25.64 33.58L-29 36.94L-32.37 33.58L-29 30.22ZM6.70998 36.94L3.34998 33.58L6.70998 30.22L10.07 33.58L6.70998 36.94ZM-7.69002 51.34L-11.15 54.81L-19 46.93L-12.68 40.61L-19.19 34.1L-23.92 38.83L-20.67 42.08L-19.09 40.51L-20.78 38.83L-19.19 37.25L-15.83 40.61L-20.57 45.35L-27.41 38.52L-22.48 33.58L-27.41 28.65L-20.57 21.81L-15.83 26.55L-19.19 29.91L-20.78 28.33L-19.09 26.65L-20.67 25.08L-23.92 28.33L-19.19 33.06L-12.68 26.55L-19 20.23L-14.59 15.82L-11.12 12.36L-7.66002 15.82L-3.25002 20.23L-9.56002 26.55L-3.06002 33.06L1.66998 28.33L-1.58002 25.08L-3.15002 26.65L-1.47002 28.33L-3.06002 29.91L-6.42002 26.55L-1.67002 21.81L5.16998 28.65L0.199982 33.58L5.13998 38.52L-1.70002 45.35L-6.45002 40.61L-3.09002 37.25L-1.50002 38.83L-3.18002 40.51L-1.61002 42.08L1.63998 38.83L-3.09002 34.1L-9.59002 40.61L-3.28002 46.93L-7.69002 51.34Z" stroke="white" stroke-width="0.3" stroke-miterlimit="10"/>
<path d="M15.0702 31.56L20.0702 26.56L39.4402 7.18999L20.1102 -12.14L15.1102 -17.14L-9.2998 7.18999L15.0702 31.56ZM-2.7898 3.82998L0.570195 7.18999L-2.7898 10.55L-6.1598 7.18999L-2.7898 3.82998ZM32.9302 10.55L29.5702 7.18999L32.9302 3.82998L36.2902 7.18999L32.9302 10.55ZM18.5302 25L15.0702 28.46L7.1902 20.54L13.5102 14.22L7.00019 7.70998L2.2702 12.44L5.5202 15.69L7.10019 14.12L5.4102 12.44L7.00019 10.86L10.3602 14.22L5.6202 19L-1.2198 12.16L3.7102 7.18999L-1.2198 2.24998L5.6202 -4.58002L10.3602 0.159985L7.00019 3.51999L5.4102 1.93999L7.10019 0.259985L5.5202 -1.31001L2.2702 1.93999L7.00019 6.66998L13.5102 0.159985L7.1902 -6.16002L11.6002 -10.57L15.0702 -14L18.5302 -10.54L23.0002 -6.16002L16.6302 0.159985L23.1402 6.66998L27.8602 1.93999L24.6102 -1.31001L23.0002 0.259985L24.6802 1.93999L23.1402 3.51999L19.7702 0.159985L24.5202 -4.58002L31.3602 2.24998L26.4202 7.18999L31.3602 12.12L24.5202 19L19.7702 14.26L23.1402 10.9L24.7202 12.48L23.0002 14.12L24.5702 15.69L27.8202 12.44L23.1402 7.70998L16.6302 14.22L23.0002 20.54L18.5302 25Z" stroke="white" stroke-width="0.3" stroke-miterlimit="10"/>
<path d="M15.0635 25.8722L20.48 20.4557L15.0635 15.0393L9.6471 20.4557L15.0635 25.8722Z" stroke="white" stroke-width="0.3" stroke-miterlimit="10"/>
<path d="M15.0702 84.34L20.0702 79.34L39.4402 60L20.1102 40.64L15.1102 35.64L-9.2998 60L15.0702 84.34ZM-2.7898 56.61L0.570195 60L-2.7898 63.37L-6.1598 60L-2.7898 56.61ZM32.9302 63.34L29.5702 60L32.9302 56.64L36.2902 60L32.9302 63.34ZM18.5302 77.73L15.0702 81.2L7.1902 73.32L13.5102 67L7.00019 60.5L2.2702 65.22L5.5202 68.48L7.10019 66.91L5.4102 65.22L7.00019 63.64L10.3602 67L5.6202 71.75L-1.2198 64.91L3.7102 60L-1.2198 55L5.6202 48.2L10.3602 52.94L7.00019 56.31L5.4102 54.72L7.10019 53L5.5202 51.47L2.2702 54.72L7.00019 59.45L13.5102 52.94L7.1902 46.63L11.6002 42.22L15.0702 38.75L18.5302 42.22L23.0002 46.63L16.6802 52.94L23.1902 59.45L27.9102 54.72L24.6602 51.47L23.0002 53L24.6802 54.68L23.1002 56.27L19.7302 52.9L24.4802 48.16L31.3602 55L26.4202 60L31.3602 64.94L24.5202 71.78L19.7702 67L23.1402 63.64L24.7202 65.22L23.0002 66.91L24.5702 68.48L27.8202 65.22L23.1402 60.5L16.6302 67L23.0002 73.32L18.5302 77.73Z" stroke="white" stroke-width="0.3" stroke-miterlimit="10"/>
<path d="M15.0611 51.9697L20.4775 46.5532L15.0611 41.1368L9.64466 46.5532L15.0611 51.9697Z" stroke="white" stroke-width="0.3" stroke-miterlimit="10"/>
<path d="M41.2098 58L46.2098 53L65.5798 33.58L46.2498 14.25L41.2498 9.25L16.8398 33.58L41.2098 58ZM23.3498 30.22L26.7098 33.58L23.3498 36.94L19.9998 33.58L23.3498 30.22ZM59.0698 36.94L55.7098 33.58L59.0698 30.22L62.4298 33.58L59.0698 36.94ZM44.6798 51.34L41.2098 54.81L33.3298 46.93L39.6498 40.61L33.1398 34.1L28.4098 38.83L31.6698 42.08L33.2398 40.51L31.5598 38.83L33.1398 37.25L36.4998 40.61L31.7598 45.35L24.9198 38.52L29.8498 33.58L24.9198 28.65L31.7598 21.81L36.4998 26.55L33.1398 29.91L31.5598 28.33L33.2398 26.65L31.6698 25.08L28.4098 28.33L33.1398 33.06L39.6498 26.55L33.3298 20.23L37.7398 15.82L41.2098 12.36L44.6798 15.82L49.0898 20.23L42.7698 26.55L49.2798 33.06L53.9998 28.33L50.7398 25.08L49.1698 26.65L50.8498 28.33L49.2698 29.91L45.8998 26.55L50.6498 21.81L57.4898 28.65L52.5498 33.58L57.4898 38.52L50.6498 45.35L45.8998 40.61L49.2698 37.25L50.8498 38.83L49.1698 40.51L50.7398 42.08L53.9998 38.83L49.2798 34.1L42.7698 40.61L49.0898 46.93L44.6798 51.34Z" fill="white"/>
<path d="M41.2091 52.2554L46.6255 46.839L41.2091 41.4226L35.7926 46.839L41.2091 52.2554Z" fill="white"/>
<path d="M41.2047 25.581L46.6211 20.1646L41.2047 14.7481L35.7882 20.1646L41.2047 25.581Z" fill="white"/>
</svg>
