<svg width="99" height="99" viewBox="0 0 99 99" fill="none" xmlns="http://www.w3.org/2000/svg">
<g clip-path="url(#clip0_32_20)">
<path d="M49.13 98.26L59.29 88.1L98.29 49.1L59.29 10.1L49.13 0L0 49.13L49.13 98.26ZM13.13 42.35L19.91 49.13L13.13 55.91L6.34 49.13L13.13 42.35ZM85.13 55.91L78.35 49.13L85.13 42.35L91.91 49.13L85.13 55.91ZM56.13 84.91L49.13 91.91L33.25 76L46 63.3L32.87 50.19L23.33 59.72L29.89 66.28L33.06 63.11L29.67 59.72L32.87 56.52L39.65 63.3L30.08 72.87L16.29 59.08L26.29 49.13L16.34 39.13L30.08 25.39L39.65 35L32.87 41.78L29.67 38.59L33.06 35.2L29.89 32L23.33 38.56L32.87 48.09L46 35L33.25 22.22L42.14 13.33L49.14 6.33L56.14 13.33L65 22.22L52.28 35L65.4 48.08L74.93 38.55L68.37 32L65.2 35.16L68.59 38.55L65.4 41.74L58.62 35L68.19 25.43L82 39.18L72 49.18L82 59.13L68.19 72.87L58.62 63.3L65.4 56.52L68.59 59.72L65.2 63.11L68.37 66.28L74.93 59.72L65.4 50.19L52.28 63.3L65 76L56.13 84.91Z" fill="white"/>
<path d="M49.1284 64.9503L38.2177 75.861L49.1284 86.7716L60.039 75.861L49.1284 64.9503Z" fill="white"/>
<path d="M49.1331 11.165L38.2224 22.0757L49.1331 32.9863L60.0437 22.0757L49.1331 11.165Z" fill="white"/>
</g>
<defs>
<clipPath id="clip0_32_20">
<rect width="98.26" height="98.26" fill="white"/>
</clipPath>
</defs>
</svg>
