<svg id="Layer_1" data-name="Layer 1" xmlns="http://www.w3.org/2000/svg" xmlns:xlink="http://www.w3.org/1999/xlink" viewBox="0 0 67.99 67.99"><defs><style>.cls-1,.cls-5,.cls-7{fill:none;}.cls-2{clip-path:url(#clip-path);}.cls-3{opacity:0.3;}.cls-4{opacity:0.4;}.cls-5,.cls-7{stroke:#2684d9;stroke-miterlimit:10;}.cls-5{stroke-width:1.62px;}.cls-6{clip-path:url(#clip-path-2);}.cls-8{fill:#e1243b;}</style><clipPath id="clip-path"><rect class="cls-1" x="-2027.99" width="1920" height="1080"/></clipPath><clipPath id="clip-path-2"><rect class="cls-1" x="-2027.99" width="1920" height="142.18"/></clipPath></defs><g class="cls-2"><g class="cls-3"><g class="cls-4"><path class="cls-5" d="M-109.64,579l88.28-88.28h0L317.22,152.18-21.36-186.4h0l-88.28-88.28L-536.49,152.18ZM-422.51,93.27l58.9,58.91-58.9,58.91-58.91-58.91ZM203.24,211.09l-58.9-58.91,58.9-58.91,58.91,58.91ZM-48.9,463.23h0L-109.64,524l-138-138L-137,275.31l-114-114-82.82,82.82,57,57,27.53-27.53-29.45-29.46L-251,216.4-192,275.31l-83.12,83.12L-395,238.62l86.45-86.44L-395,65.74-275.17-54.07-192,29.06-251,88l-27.75-27.76,29.45-29.46L-276.79,3.22l-57,57L-251,143l114-114L-247.64-81.6l77.26-77.26h0l60.74-60.75,60.75,60.75h0L28.37-81.6-82.29,29.06l114,114,82.82-82.83-57-57L30,30.76,59.44,60.21,31.69,88-27.22,29.06,55.9-54.06,175.71,65.74,89.27,152.18l86.44,86.44L55.9,358.43l-83.12-83.12L31.69,216.4l27.75,27.75L30,273.61l27.54,27.53,57-57L31.69,161.33l-114,114L28.37,386Z"/></g></g></g><g class="cls-6"><path class="cls-7" d="M-108,334.28l54.41-54.41h0L155.13,71.16-53.57-137.55h0L-108-192-371.11,71.16ZM-300.85,34.85l36.31,36.31-36.31,36.31-36.31-36.31ZM84.87,107.47,48.56,71.16,84.87,34.85l36.32,36.31ZM-70.55,262.89h0L-108,300.34l-85.07-85.07,68.22-68.21L-195.1,76.8l-51.06,51.05L-211,163l17-17-18.15-18.16,17.11-17.11,36.31,36.32L-210,198.29l-73.85-73.84,53.29-53.29-53.29-53.28L-210-56l51.24,51.24L-195.1,31.58l-17.11-17.11,18.15-18.16-17-17-35.13,35.13,51.06,51.05,70.26-70.25-68.22-68.22,47.63-47.62h0L-108-158l37.44,37.45h0l47.63,47.62L-91.13-4.73l70.25,70.25,51.06-51L-4.95-20.66l-17,17L-3.77,14.47-20.88,31.58-57.19-4.73-5.95-56,67.9,17.88,14.62,71.16,67.9,124.45-5.95,198.29l-51.24-51.23,36.31-36.32,17.11,17.11L-21.92,146l17,17,35.13-35.13-51.06-51-70.25,70.26,68.21,68.21Z"/></g><path class="cls-8" d="M34,68l7-7h0L68,34,41,7h0L34,0,0,34ZM9.08,29.3,13.77,34,9.08,38.69,4.39,34Zm49.83,9.39L54.22,34l4.69-4.7,4.7,4.7ZM38.83,58.77h0L34,63.61l-11-11,8.81-8.82-9.08-9.08-6.6,6.6,4.54,4.54,2.2-2.19-2.35-2.35,2.21-2.21,4.69,4.69-6.62,6.62-9.54-9.54L18.16,34l-6.89-6.89,9.54-9.54,6.62,6.62-4.69,4.69-2.21-2.21,2.35-2.34-2.2-2.2-4.54,4.54,6.6,6.6,9.08-9.08L23,15.38l6.15-6.16h0L34,4.39l4.83,4.83h0L45,15.38l-8.82,8.81,9.08,9.08,6.6-6.6-4.54-4.54-2.19,2.2,2.34,2.34-2.21,2.21-4.69-4.69,6.62-6.62,9.54,9.54L49.84,34l6.88,6.88-9.54,9.54L40.56,43.8l4.69-4.69,2.21,2.21-2.34,2.35,2.19,2.19,4.54-4.54-6.6-6.6L36.17,43.8,45,52.62Z"/><rect class="cls-8" x="28.66" y="47.15" width="10.68" height="10.68" transform="translate(95.15 65.57) rotate(135)"/><rect class="cls-8" x="28.66" y="9.93" width="10.68" height="10.68" transform="translate(68.84 2.03) rotate(135)"/></svg>