<svg width="256" height="336" viewBox="0 0 256 336" fill="none" xmlns="http://www.w3.org/2000/svg">
<g opacity="0.2">
<path d="M256.45 414.89L309.27 362.06L511.89 159.44L309.27 -43.18L256.45 -96L1 159.44L256.45 414.89ZM69.21 124.19L104.51 159.44L69.21 194.7L33.96 159.44L69.21 124.19ZM443.69 194.7L408.43 159.44L443.69 124.19L478.94 159.44L443.69 194.7ZM292.8 345.55L256.45 381.9L173.86 299.35L240.08 233.12L171.87 164.92L122.31 214.48L156.41 248.55L172.89 232.07L155.26 214.44L171.87 197.83L207.12 233.08L157.38 282.83L85.69 211.13L137.42 159.4L85.69 107.71L157.38 36.02L207.12 85.76L171.87 121.01L155.26 104.4L172.89 86.78L156.41 70.3L122.31 104.4L171.87 153.97L240.08 85.76L173.86 19.55L220.1 -26.69L256.45 -63.05L292.8 -26.7L339.03 19.55L272.81 85.76L341.02 153.97L390.59 104.4L356.51 70.3L340 86.78L357.63 104.4L341.02 121.01L305.77 85.76L355.51 36.02L427.21 107.71L375.51 159.44L427.24 211.17L355.51 282.87L305.77 233.12L341.02 197.87L357.63 214.48L340 232.11L356.51 248.55L390.62 214.44L341.05 164.88L272.84 233.08L339.06 299.31L292.8 345.55Z" stroke="#2681D6" stroke-width="0.97" stroke-miterlimit="10"/>
<path d="M256.442 355.187L313.187 298.442L256.442 241.697L199.696 298.442L256.442 355.187Z" stroke="#2681D6" stroke-width="0.97" stroke-miterlimit="10"/>
<path d="M256.445 75.5008L313.191 18.7555L256.445 -37.9898L199.7 18.7555L256.445 75.5008Z" stroke="#2681D6" stroke-width="0.97" stroke-miterlimit="10"/>
</g>
</svg>
