<svg id="Layer_1" data-name="Layer 1" xmlns="http://www.w3.org/2000/svg" xmlns:xlink="http://www.w3.org/1999/xlink" viewBox="0 0 1006.87 964.23"><defs><style>.cls-1,.cls-4{fill:none;}.cls-2{opacity:0.05;}.cls-3{clip-path:url(#clip-path);}.cls-4{stroke:#2684d9;stroke-miterlimit:10;stroke-width:4px;}</style><clipPath id="clip-path"><rect class="cls-1" width="1006.87" height="965.95" transform="translate(1006.87 965.95) rotate(180)"/></clipPath></defs><g class="cls-2"><g class="cls-3"><path class="cls-4" d="M-.83-227.81l-146.95,147h0L-711.43,482.79l563.64,563.64h0l147,147,710.6-710.59ZM520,580.85,422,482.79,520,384.72l98.06,98.07ZM-521.69,384.72l98.07,98.07-98.07,98.06-98.06-98.06ZM-101.95-35h0L-.83-136.13,228.91,93.61,44.69,277.82,234.43,467.56,372.3,329.68l-94.86-94.87-45.83,45.84,49,49-46.21,46.21-98.06-98.07L274.74,139.44,474.18,338.88,330.28,482.79l143.9,143.9L274.74,826.13,136.37,687.75l98.06-98.06,46.21,46.21-49,49,45.83,45.84L372.3,635.9,234.43,498,44.69,687.75,228.9,872,100.29,1000.59h0L-.83,1101.71l-101.12-101.12h0L-230.57,872-46.36,687.75-236.1,498-374,635.9l94.87,94.87,45.84-45.84-49-49,46.2-46.21L-138,687.75-276.41,826.13-475.85,626.69l143.9-143.9-143.9-143.91,199.44-199.43L-138,277.82l-98.07,98.07-46.2-46.21,49-49-45.84-45.84L-374,329.68-236.1,467.56-46.36,277.82-230.57,93.61Z"/><rect class="cls-4" x="-112.44" y="-15.49" width="223.23" height="223.23" transform="translate(-68.21 27.57) rotate(-45)"/><rect class="cls-4" x="-112.44" y="762.52" width="223.23" height="223.23" transform="translate(-618.35 255.44) rotate(-45)"/></g></g></svg>