<svg width="111" height="74" viewBox="0 0 111 74" fill="none" xmlns="http://www.w3.org/2000/svg">
<mask id="mask0_14_166" style="mask-type:alpha" maskUnits="userSpaceOnUse" x="0" y="0" width="111" height="74">
<rect width="111" height="74" fill="#0099D6"/>
</mask>
<g mask="url(#mask0_14_166)">
<path d="M115.015 0.974606L122.361 8.33174L122.447 8.41666L150.807 36.822L115.014 72.6721L79.2236 36.8234L115.015 0.974606ZM112.517 26.4267L103.101 35.8563L96.3119 29.0566L100.922 24.4391L103.05 26.5705L100.567 29.058L103.101 31.5962L108.261 26.428L101.059 19.2147L90.7649 29.5251L98.0529 36.8247L90.7649 44.1243L101.059 54.4347L108.261 47.2214L103.101 42.0532L100.567 44.5914L103.05 47.079L100.922 49.2104L96.3119 44.5928L103.101 37.7932L112.517 47.2228L103.187 56.5661L115.015 68.4134L126.844 56.5661L117.515 47.2228L126.93 37.7932L133.719 44.5928L129.109 49.2117L126.981 47.0803L129.464 44.5928L126.93 42.0546L121.77 47.2228L128.972 54.4361L139.266 44.1257L131.978 36.8261L139.266 29.5265L128.972 19.2161L121.77 26.4294L126.93 31.5976L129.464 29.0594L126.981 26.5718L129.109 24.4405L133.719 29.0594L126.93 35.859L117.514 26.4267L126.842 17.082L115.015 5.23602L103.188 17.0833L112.517 26.4267ZM141.391 41.9916L146.551 36.8234L141.391 31.6551L136.231 36.8234L141.391 41.9916ZM88.6382 41.9916L93.7982 36.8234L88.6382 31.6551L83.4782 36.8234L88.6382 41.9916ZM115.015 0.781464L79.0294 36.8234L115.014 72.8652L150.999 36.8234L115.015 0.781464ZM103.101 36.0508L112.71 26.4267L103.381 17.0833L115.014 5.43053L126.648 17.0833L117.32 26.4267L126.929 36.0508L133.91 29.0566L129.106 24.2446L126.785 26.5691L129.269 29.0566L126.929 31.4004L121.963 26.4267L128.97 19.4079L139.07 29.5237L131.784 36.822L139.07 44.1202L128.97 54.2361L121.963 47.2173L126.929 42.2436L129.269 44.5873L126.785 47.0749L129.106 49.3994L133.91 44.5873L126.929 37.5945L117.32 47.2187L126.648 56.562L115.014 68.2148L103.38 56.562L112.708 47.2187L103.099 37.5945L96.1177 44.5873L100.922 49.3994L103.243 47.0749L100.759 44.5873L103.099 42.2436L108.065 47.2173L101.058 54.2361L90.9577 44.1202L98.2457 36.822L90.9577 29.5237L101.058 19.4079L108.067 26.4267L103.101 31.4004L100.761 29.0566L103.244 26.5691L100.924 24.2446L96.1191 29.0566L103.101 36.0508ZM141.391 41.7971L136.425 36.8234L141.391 31.8496L146.357 36.8234L141.391 41.7971ZM88.6382 41.7971L83.6724 36.8234L88.6382 31.8496L93.604 36.8234L88.6382 41.7971Z" fill="white"/>
<path d="M115.015 48.6227L122.815 56.4346L115.015 64.2465L107.216 56.4346L115.015 48.6227ZM115.015 48.4296L107.022 56.436L115.015 64.4424L123.009 56.436L115.015 48.4296Z" fill="white"/>
<path d="M115.015 9.16183L122.815 16.9737L115.015 24.7856L107.216 16.9737L115.015 9.16183ZM115.015 8.96732L107.022 16.9737L115.015 24.9802L123.009 16.9737L115.015 8.96732Z" fill="white"/>
<path d="M37.9846 0.974606L73.7764 36.8234L37.9846 72.6721L2.19283 36.8234L37.9846 0.974606ZM35.486 26.4267L26.07 35.8563L19.2811 29.0566L23.8914 24.4391L26.0194 26.5705L23.5358 29.058L26.07 31.5962L31.23 26.428L24.0281 19.2147L13.7341 29.5251L21.0221 36.8247L13.7341 44.1243L24.0281 54.4347L31.23 47.2214L26.07 42.0532L23.5358 44.5914L26.0194 47.079L23.8914 49.2104L19.2811 44.5928L26.07 37.7932L35.486 47.2228L26.1561 56.5661L37.9846 68.4134L49.8131 56.5661L40.4846 47.2228L49.8993 37.7932L56.6881 44.5928L52.0779 49.2117L49.9499 47.0803L52.4334 44.5928L49.8993 42.0546L44.7393 47.2228L51.9411 54.4361L62.2351 44.1257L54.9471 36.8261L62.2351 29.5265L51.9411 19.2161L44.7393 26.4294L49.8993 31.5976L52.4334 29.0594L49.9499 26.5718L52.0779 24.4405L56.6881 29.0594L49.8993 35.859L40.4832 26.4267L49.8117 17.082L37.9846 5.23465L26.1575 17.082L35.486 26.4267ZM64.3618 41.9916L69.5204 36.8234L64.3604 31.6551L59.2004 36.8234L64.2633 41.8943L64.3618 41.9916ZM11.6088 41.9916L16.7688 36.8234L11.6088 31.6551L6.44884 36.8234L11.6088 41.9916ZM37.9846 0.781464L2 36.8234L37.9846 72.8652L73.9692 36.8234L37.9846 0.781464ZM26.0713 36.0508L35.6802 26.4267L26.3517 17.0833L37.9846 5.43053L49.6189 17.0833L40.2904 26.4267L49.8993 36.0508L56.8823 29.0566L52.0779 24.2446L49.757 26.5691L52.2406 29.0566L49.9006 31.4004L44.9321 26.4267L51.9397 19.4079L62.0396 29.5237L54.7529 36.822L62.0396 44.1202L51.9397 54.2361L44.9321 47.2173L49.8979 42.2436L52.2379 44.5873L49.7543 47.0749L52.0751 49.3994L56.8795 44.5873L49.8965 37.5945L40.2877 47.2187L49.6162 56.562L37.9819 68.2148L26.3476 56.562L35.6761 47.2187L26.0672 37.5945L19.0856 44.5873L23.89 49.3994L26.2108 47.0749L23.7273 44.5873L26.0672 42.2436L31.033 47.2173L24.0254 54.2361L13.9256 44.1202L21.2136 36.822L13.9256 29.5237L24.0254 19.4079L31.0371 26.4267L26.0713 31.4004L23.7314 29.0566L26.2149 26.5691L23.8941 24.2446L19.0897 29.0566L26.0713 36.0508ZM64.3618 41.7971L59.396 36.8234L64.3618 31.8496L69.3276 36.8234L64.3618 41.7971ZM11.6088 41.7971L6.64304 36.8234L11.6088 31.8496L16.5746 36.8234L11.6088 41.7971Z" fill="white"/>
<path d="M37.9846 48.6227L45.7841 56.4346L37.9846 64.2465L30.1851 56.4346L37.9846 48.6227ZM37.9846 48.4296L29.9909 56.436L37.9846 64.4424L45.9783 56.436L37.9846 48.4296Z" fill="white"/>
<path d="M37.9846 9.16183L45.7841 16.9737L37.9846 24.7856L30.1851 16.9737L37.9846 9.16183ZM37.9846 8.96732L29.9909 16.9737L37.9846 24.9802L45.9783 16.9737L37.9846 8.96732Z" fill="white"/>
<path d="M76.4419 39.7369L83.7873 47.094L83.8735 47.179L112.234 75.5843L76.4419 111.433L40.6501 75.5856L76.4419 39.7369ZM71.1055 49.3446L64.6134 55.847L73.9433 65.1917L64.5272 74.6213L57.7384 67.8217L62.3486 63.2041L64.4766 65.3355L61.9931 67.8231L64.5272 70.3613L69.6872 65.1931L62.4854 57.9797L52.1914 68.2901L59.4794 75.5897L52.1914 82.8894L62.4854 93.1998L69.6872 85.9865L64.5272 80.8182L61.9931 83.3565L64.4766 85.844L62.3486 87.9754L57.7384 83.3578L64.5272 76.5582L73.9433 85.9878L64.6134 95.3311L76.4419 107.178L88.2704 95.3311L78.9419 85.9878L88.3565 76.5582L95.1454 83.3578L90.5351 87.9768L88.4071 85.8454L90.8907 83.3578L88.3565 80.8196L83.1965 85.9878L90.3984 93.2011L100.692 82.8907L93.4044 75.5911L100.692 68.2915L90.3984 57.9811L83.1965 65.1944L88.3565 70.3626L90.8907 67.8244L88.4071 65.3369L90.5351 63.2055L95.1454 67.8244L88.3565 74.624L78.9419 65.1944L88.2704 55.8497L76.4405 43.9997L71.2231 49.2254L71.1055 49.3446ZM102.818 80.7539L107.978 75.5856L102.818 70.4174L97.6577 75.5856L102.818 80.7539ZM50.0647 80.7539L55.2247 75.5856L50.0647 70.4174L44.9047 75.5856L50.0647 80.7539ZM76.4419 39.5438L40.4559 75.5856L76.4419 111.628L112.426 75.5856L76.4419 39.5438ZM64.5272 74.8131L74.1361 65.1889L64.8076 55.8456L76.4419 44.1928L88.0762 55.8456L78.7477 65.1889L88.3565 74.8131L95.3396 67.8189L90.5351 63.0069L88.2143 65.3314L90.6979 67.8189L88.3579 70.1626L83.3921 65.1889L90.3997 58.1701L100.5 68.286L93.2129 75.5843L100.5 82.8825L90.3997 92.9984L83.3921 85.9796L88.3579 81.0059L90.6979 83.3496L88.2143 85.8371L90.5351 88.1617L95.3396 83.3496L88.3565 76.3568L78.7477 85.981L88.0762 95.3243L76.4419 106.977L64.8076 95.3243L74.1361 85.981L64.5272 76.3568L57.5456 83.3496L62.35 88.1617L64.6708 85.8371L62.1873 83.3496L64.5272 81.0059L69.493 85.9796L62.4854 92.9984L52.3856 82.8825L59.6736 75.5843L52.3856 68.286L62.4854 58.1701L69.493 65.1889L64.5272 70.164L62.1873 67.8203L64.6708 65.3328L62.35 63.0082L57.5456 67.8203L64.5272 74.8131ZM102.818 80.5593L97.8519 75.5856L102.818 70.6119L107.783 75.5856L102.818 80.5593ZM50.0647 80.5593L45.0989 75.5856L50.0647 70.6119L55.0305 75.5856L50.0647 80.5593Z" fill="white"/>
<path d="M76.4419 87.385L84.2414 95.1969L76.4419 103.009L68.6424 95.1969L76.4419 87.385ZM76.4419 87.1919L68.4482 95.1983L76.4419 103.205L84.4356 95.1983L76.4419 87.1919Z" fill="white"/>
<path d="M76.4419 47.9241L84.2414 55.736L76.4419 63.5479L68.6424 55.736L76.4419 47.9241ZM76.4419 47.731L68.4482 55.7374L76.4419 63.7438L84.4356 55.7374L76.4419 47.731Z" fill="white"/>
<path d="M76.4419 -37.8069L83.7873 -30.4497L83.8735 -30.3648L112.234 -1.95948L76.4405 33.8906L40.6501 -1.95811L76.4419 -37.8069ZM64.6134 -21.6981L73.9433 -12.3534L64.5272 -2.92381L57.7384 -9.72345L62.3486 -14.341L64.4766 -12.2096L61.9931 -9.72208L64.5272 -7.18386L69.6872 -12.3521L62.4854 -19.5654L52.1914 -9.25498L59.4794 -1.95538L52.1914 5.34423L62.4854 15.6546L69.6872 8.44133L64.5272 3.27311L61.9931 5.81133L64.4766 8.29887L62.3486 10.4303L57.7384 5.8127L64.5272 -0.986935L73.9433 8.44269L64.6134 17.786L76.4419 29.6333L88.2704 17.786L78.9419 8.44269L88.3565 -0.986935L95.1454 5.8127L90.5351 10.4316L88.4071 8.30024L90.8907 5.8127L88.3565 3.27448L83.1965 8.44269L90.3984 15.656L100.692 5.3456L93.4044 -1.95401L100.692 -9.25361L90.3984 -19.564L83.1965 -12.3507L88.3565 -7.18249L90.8907 -9.72071L88.4071 -12.2082L90.5351 -14.3396L95.1454 -9.72071L88.3565 -2.92107L78.9419 -12.3507L88.2704 -21.6954L76.4405 -33.5441L64.6134 -21.6981ZM102.818 3.2101L107.978 -1.95811L102.818 -7.12633L97.6577 -1.95811L102.818 3.2101ZM50.0647 3.20873L55.2247 -1.95948L50.0647 -7.1277L44.9047 -1.95948L50.0647 3.20873ZM76.4419 -38L40.4559 -1.95811L76.4419 34.0838L112.426 -1.95811L76.4419 -38ZM64.5272 -2.73067L74.1361 -12.3548L64.8076 -21.6981L76.4419 -33.3509L88.0762 -21.6981L78.7477 -12.3548L88.3565 -2.73067L95.3396 -9.72482L90.5351 -14.5369L88.2143 -12.2124L90.6979 -9.72482L88.3579 -7.38111L83.3921 -12.3548L90.3997 -19.3736L100.5 -9.25772L93.2129 -1.95948L100.5 5.33875L90.3997 15.4546L83.3921 8.43584L88.3579 3.46214L90.6979 5.80585L88.2143 8.29338L90.5351 10.6179L95.3396 5.80585L88.3565 -1.18692L78.7477 8.43722L88.0762 17.7805L76.4419 29.4333L64.8076 17.7805L74.1361 8.43722L64.5272 -1.18692L57.5456 5.80585L62.35 10.6179L64.6708 8.29338L62.1873 5.80585L64.5272 3.46214L69.493 8.43584L62.4854 15.4546L52.3856 5.33875L59.6736 -1.95948L52.3856 -9.25772L62.4854 -19.3736L69.493 -12.3548L64.5272 -7.37974L62.1873 -9.72345L64.6708 -12.211L62.35 -14.5355L57.5456 -9.72345L64.5272 -2.73067ZM102.818 3.01559L97.8519 -1.95811L102.818 -6.93182L107.783 -1.95811L102.818 3.01559ZM50.0647 3.01559L45.0989 -1.95811L50.0647 -6.93182L55.0305 -1.95811L50.0647 3.01559Z" fill="white"/>
<path d="M76.4419 9.84125L84.2414 17.6532L76.4419 25.4651L68.6424 17.6532L76.4419 9.84125ZM76.4419 9.64811L68.4482 17.6545L76.4419 25.6609L84.4356 17.6545L76.4419 9.64811Z" fill="white"/>
<path d="M76.4419 -29.6196L84.2414 -21.8077L76.4419 -13.9958L68.6424 -21.8077L76.4419 -29.6196ZM76.4419 -29.8141L68.4482 -21.8077L76.4419 -13.8013L84.4356 -21.8077L76.4419 -29.8141Z" fill="white"/>
</g>
</svg>
