<svg width="493" height="146" viewBox="0 0 493 146" fill="none" xmlns="http://www.w3.org/2000/svg">
<mask id="mask0_9_118" style="mask-type:alpha" maskUnits="userSpaceOnUse" x="0" y="0" width="493" height="146">
<rect width="493" height="146" fill="#D9D9D9"/>
</mask>
<g mask="url(#mask0_9_118)">
<path d="M546.674 -93.9262L581.035 -59.5566L581.438 -59.1599L714.104 73.5384L546.668 241.016L379.244 73.5448L546.674 -93.9262ZM534.986 24.9756L490.939 69.027L459.181 37.2618L480.747 15.6904L490.702 25.6474L479.084 37.2682L490.939 49.1258L515.077 24.982L481.387 -8.71573L433.233 39.4503L467.325 73.5511L433.233 107.652L481.387 155.818L515.077 122.12L490.939 97.9766L479.084 109.834L490.702 121.455L480.747 131.412L459.181 109.84L490.939 78.0753L534.986 122.127L491.342 165.775L546.674 221.121L602.007 165.775L558.369 122.127L602.41 78.0753L634.167 109.84L612.601 131.418L602.646 121.461L614.264 109.84L602.41 97.983L578.272 122.127L611.961 155.824L660.115 107.658L626.023 73.5575L660.115 39.4567L611.961 -8.70935L578.272 24.9883L602.41 49.1322L614.264 37.2746L602.646 25.6538L612.601 15.6969L634.167 37.2746L602.41 69.0398L558.363 24.9756L602 -18.6792L546.674 -74.0186L491.348 -18.6728L534.986 24.9756ZM670.057 97.6886L694.195 73.5448L670.057 49.4009L645.919 73.5448L670.057 97.6886ZM423.285 97.6886L447.423 73.5448L423.285 49.4009L399.147 73.5448L423.285 97.6886ZM546.674 -94.8285L378.335 73.5448L546.668 241.918L715 73.5448L546.674 -94.8285ZM490.939 69.9357L535.888 24.9756L492.25 -18.6728L546.668 -73.1099L601.092 -18.6728L557.454 24.9756L602.403 69.9357L635.063 37.2618L612.588 14.7818L601.731 25.6411L613.349 37.2618L602.403 48.2107L579.174 24.9756L611.955 -7.81345L659.201 39.4439L625.115 73.5384L659.201 107.633L611.955 154.89L579.174 122.101L602.403 98.866L613.349 109.815L601.731 121.436L612.588 132.295L635.063 109.815L602.403 77.1475L557.454 122.108L601.092 165.756L546.668 220.193L492.244 165.756L535.881 122.108L490.932 77.1475L458.273 109.815L480.747 132.295L491.604 121.436L479.986 109.815L490.932 98.866L514.162 122.101L481.381 154.89L434.135 107.633L468.227 73.5384L434.135 39.4439L481.381 -7.81345L514.168 24.9756L490.939 48.2107L479.993 37.2618L491.61 25.6411L480.754 14.7818L458.279 37.2618L490.939 69.9357ZM670.057 96.7799L646.828 73.5448L670.057 50.3096L693.287 73.5448L670.057 96.7799ZM423.285 96.7799L400.055 73.5448L423.285 50.3096L446.514 73.5448L423.285 96.7799Z" fill="#2683D8"/>
<path d="M546.674 128.667L583.159 165.161L546.674 201.655L510.189 165.161L546.674 128.667ZM546.674 127.764L509.28 165.167L546.674 202.57L584.068 165.167L546.674 127.764Z" fill="#2683D8"/>
<path d="M546.674 -55.6788L583.159 -19.1847L546.674 17.3094L510.189 -19.1847L546.674 -55.6788ZM546.674 -56.5875L509.28 -19.1847L546.674 18.2181L584.068 -19.1847L546.674 -56.5875Z" fill="#2683D8"/>
<path d="M186.332 -93.9262L353.763 73.5448L186.332 241.016L18.9021 73.5448L186.332 -93.9262ZM174.644 24.9756L130.597 69.027L98.8394 37.2618L120.406 15.6904L130.36 25.6474L118.742 37.2682L130.597 49.1258L154.735 24.982L121.045 -8.71573L72.891 39.4503L106.983 73.5511L72.891 107.652L121.045 155.818L154.735 122.12L130.597 97.9766L118.742 109.834L130.36 121.455L120.406 131.412L98.8394 109.84L130.597 78.0753L174.644 122.127L131 165.775L186.332 221.121L241.665 165.775L198.027 122.127L242.068 78.0753L273.825 109.84L252.259 131.418L242.304 121.461L253.922 109.84L242.068 97.983L217.93 122.127L251.619 155.824L299.774 107.658L265.681 73.5575L299.774 39.4567L251.619 -8.70935L217.93 24.9883L242.068 49.1322L253.922 37.2746L242.304 25.6538L252.259 15.6969L273.825 37.2746L242.068 69.0398L198.021 24.9756L241.658 -18.6792L186.332 -74.025L131.006 -18.6792L174.644 24.9756ZM309.722 97.6886L333.853 73.5448L309.715 49.4009L285.577 73.5448L309.261 97.2342L309.722 97.6886ZM62.9492 97.6886L87.0871 73.5448L62.9492 49.4009L38.8112 73.5448L62.9492 97.6886ZM186.332 -94.8285L18 73.5448L186.332 241.918L354.665 73.5448L186.332 -94.8285ZM130.603 69.9357L175.552 24.9756L131.915 -18.6728L186.332 -73.1099L240.756 -18.6728L197.119 24.9756L242.068 69.9357L274.734 37.2618L252.259 14.7818L241.402 25.6411L253.02 37.2618L242.074 48.2107L218.832 24.9756L251.613 -7.81345L298.859 39.4439L264.773 73.5384L298.859 107.633L251.613 154.89L218.832 122.101L242.061 98.866L253.008 109.815L241.39 121.436L252.246 132.295L274.721 109.815L242.055 77.1475L197.106 122.108L240.743 165.756L186.319 220.193L131.896 165.756L175.533 122.108L130.584 77.1475L97.9246 109.815L120.399 132.295L131.256 121.436L119.638 109.815L130.584 98.866L153.814 122.101L121.033 154.89L73.7866 107.633L107.879 73.5384L73.7866 39.4439L121.033 -7.81345L153.833 24.9756L130.603 48.2107L119.657 37.2618L131.275 25.6411L120.418 14.7818L97.9438 37.2618L130.603 69.9357ZM309.722 96.7799L286.492 73.5448L309.722 50.3096L332.951 73.5448L309.722 96.7799ZM62.9492 96.7799L39.7197 73.5448L62.9492 50.3096L86.1787 73.5448L62.9492 96.7799Z" fill="#2683D8"/>
<path d="M186.332 128.667L222.817 165.161L186.332 201.655L149.847 165.161L186.332 128.667ZM186.332 127.764L148.939 165.167L186.332 202.57L223.726 165.167L186.332 127.764Z" fill="#2683D8"/>
<path d="M186.332 -55.6788L222.817 -19.1847L186.332 17.3094L149.847 -19.1847L186.332 -55.6788ZM186.332 -56.5875L148.939 -19.1847L186.332 18.2181L223.726 -19.1847L186.332 -56.5875Z" fill="#2683D8"/>
<path d="M366.231 87.1557L400.593 121.525L400.996 121.922L533.662 254.62L366.231 422.091L198.801 254.627L366.231 87.1557ZM341.268 132.039L310.899 162.416L354.543 206.07L310.496 250.122L278.738 218.357L300.305 196.785L310.259 206.742L298.641 218.363L310.496 230.22L334.634 206.077L300.944 172.379L252.79 220.545L286.883 254.646L252.79 288.747L300.944 336.913L334.634 303.215L310.496 279.071L298.641 290.929L310.259 302.55L300.305 312.507L278.738 290.935L310.496 259.17L354.543 303.221L310.899 346.87L366.231 402.216L421.564 346.87L377.926 303.221L421.967 259.17L453.724 290.935L432.158 312.513L422.203 302.556L433.821 290.935L421.967 279.078L397.829 303.221L431.518 336.919L479.673 288.753L445.58 254.652L479.673 220.551L431.518 172.385L397.829 206.083L421.967 230.227L433.821 218.369L422.203 206.749L432.158 196.792L453.724 218.369L421.967 250.135L377.926 206.083L421.564 162.428L366.225 107.07L341.818 131.482L341.268 132.039ZM489.614 278.771L513.752 254.627L489.614 230.483L465.477 254.627L489.614 278.771ZM242.842 278.771L266.98 254.627L242.842 230.483L218.704 254.627L242.842 278.771ZM366.231 86.2534L197.893 254.627L366.231 423L534.564 254.627L366.231 86.2534ZM310.496 251.018L355.445 206.057L311.807 162.409L366.231 107.972L420.655 162.409L377.018 206.057L421.967 251.018L454.633 218.344L432.158 195.864L421.301 206.723L432.919 218.344L421.973 229.293L398.744 206.057L431.525 173.268L478.771 220.526L444.684 254.62L478.771 288.715L431.525 335.972L398.744 303.183L421.973 279.948L432.919 290.897L421.301 302.518L432.158 313.377L454.633 290.897L421.967 258.229L377.018 303.19L420.655 346.838L366.231 401.275L311.807 346.838L355.445 303.19L310.496 258.229L277.836 290.897L300.311 313.377L311.168 302.518L299.55 290.897L310.496 279.948L333.725 303.183L300.944 335.972L253.698 288.715L287.791 254.62L253.698 220.526L300.944 173.268L333.725 206.057L310.496 229.299L299.55 218.35L311.168 206.729L300.311 195.87L277.836 218.35L310.496 251.018ZM489.614 277.862L466.385 254.627L489.614 231.392L512.844 254.627L489.614 277.862ZM242.842 277.862L219.612 254.627L242.842 231.392L266.071 254.627L242.842 277.862Z" fill="#2683D8"/>
<path d="M366.231 309.749L402.717 346.243L366.231 382.737L329.746 346.243L366.231 309.749ZM366.231 308.846L328.838 346.249L366.231 383.652L403.625 346.249L366.231 308.846Z" fill="#2683D8"/>
<path d="M366.231 125.403L402.717 161.897L366.231 198.391L329.746 161.897L366.231 125.403ZM366.231 124.501L328.838 161.904L366.231 199.306L403.625 161.904L366.231 124.501Z" fill="#2683D8"/>
<path d="M366.231 -275.098L400.593 -240.728L400.996 -240.331L533.662 -107.633L366.225 59.8443L198.801 -107.627L366.231 -275.098ZM310.899 -199.844L354.543 -156.19L310.496 -112.138L278.738 -143.903L300.305 -165.475L310.259 -155.518L298.641 -143.897L310.496 -132.039L334.634 -156.183L300.944 -189.881L252.79 -141.715L286.883 -107.614L252.79 -73.5131L300.944 -25.347L334.634 -59.0447L310.496 -83.1885L298.641 -71.331L310.259 -59.7102L300.305 -49.7532L278.738 -71.3246L310.496 -103.09L354.543 -59.0383L310.899 -15.39L366.231 39.9558L421.564 -15.39L377.926 -59.0383L421.967 -103.09L453.724 -71.3246L432.158 -49.7468L422.203 -59.7038L433.821 -71.3246L421.967 -83.1821L397.829 -59.0383L431.518 -25.3406L479.673 -73.5067L445.58 -107.608L479.673 -141.708L431.518 -189.874L397.829 -156.177L421.967 -132.033L433.821 -143.89L422.203 -155.511L432.158 -165.468L453.724 -143.89L421.967 -112.125L377.926 -156.177L421.564 -199.831L366.225 -255.184L310.899 -199.844ZM489.614 -83.4829L513.752 -107.627L489.614 -131.771L465.477 -107.627L489.614 -83.4829ZM242.842 -83.4893L266.98 -107.633L242.842 -131.777L218.704 -107.633L242.842 -83.4893ZM366.231 -276L197.893 -107.627L366.231 60.7466L534.564 -107.627L366.231 -276ZM310.496 -111.236L355.445 -156.196L311.807 -199.844L366.231 -254.281L420.655 -199.844L377.018 -156.196L421.967 -111.236L454.633 -143.91L432.158 -166.39L421.301 -155.53L432.919 -143.91L421.973 -132.961L398.744 -156.196L431.525 -188.985L478.771 -141.728L444.684 -107.633L478.771 -73.5387L431.525 -26.2813L398.744 -59.0703L421.973 -82.3055L432.919 -71.3566L421.301 -59.7358L432.158 -48.8765L454.633 -71.3566L421.967 -104.024L377.018 -59.0639L420.655 -15.4156L366.231 39.0216L311.807 -15.4156L355.445 -59.0639L310.496 -104.024L277.836 -71.3566L300.311 -48.8765L311.168 -59.7358L299.55 -71.3566L310.496 -82.3055L333.725 -59.0703L300.944 -26.2813L253.698 -73.5387L287.791 -107.633L253.698 -141.728L300.944 -188.985L333.725 -156.196L310.496 -132.954L299.55 -143.903L311.168 -155.524L300.311 -166.383L277.836 -143.903L310.496 -111.236ZM489.614 -84.3916L466.385 -107.627L489.614 -130.862L512.844 -107.627L489.614 -84.3916ZM242.842 -84.3916L219.612 -107.627L242.842 -130.862L266.071 -107.627L242.842 -84.3916Z" fill="#2683D8"/>
<path d="M366.231 -52.5048L402.717 -16.0107L366.231 20.4834L329.746 -16.0107L366.231 -52.5048ZM366.231 -53.4071L328.838 -16.0043L366.231 21.3985L403.625 -16.0043L366.231 -53.4071Z" fill="#2683D8"/>
<path d="M366.231 -236.85L402.717 -200.356L366.231 -163.862L329.746 -200.356L366.231 -236.85ZM366.231 -237.759L328.838 -200.356L366.231 -162.953L403.625 -200.356L366.231 -237.759Z" fill="#2683D8"/>
</g>
</svg>
