<svg width="567" height="122" viewBox="0 0 567 122" fill="none" xmlns="http://www.w3.org/2000/svg">
<mask id="mask0_90_33" style="mask-type:alpha" maskUnits="userSpaceOnUse" x="0" y="0" width="567" height="122">
<path d="M567 0H0V122H567V0Z" fill="black"/>
</mask>
<g mask="url(#mask0_90_33)">
<g opacity="0.6">
<g opacity="0.4">
<path d="M337.79 389.28L405.72 321.35L666.25 60.8199L405.72 -199.72L337.79 -267.64L9.33008 60.8199L337.79 389.28ZM97.0001 15.4899L142.32 60.8199L97.0001 106.15L51.7101 60.8199L97.0001 15.4899ZM578.51 106.15L533.18 60.8199L578.51 15.4899L623.84 60.8199L578.51 106.15ZM384.51 300.15L337.77 346.89L231.6 240.71L316.75 155.56L229.05 67.8599L165.32 131.59L209.16 175.44L230.35 154.25L207.69 131.59L229.05 110.23L274.37 155.56L210.37 219.56L118.18 127.37L184.7 60.8599L118.22 -5.70013L210.41 -97.8901L274.41 -33.8901L229.05 11.3999L207.69 -9.95013L230.35 -32.6201L209.16 -53.8101L165.32 -9.95013L229.05 53.7799L316.75 -33.9201L231.6 -119.08L291.05 -178.53L337.79 -225.27L384.53 -178.53L444 -119.08L358.85 -33.9201L446.56 53.7799L510.29 -9.95013L466.44 -53.8101L445.25 -32.6201L467.9 -9.95013L446.54 11.3999L401.21 -33.9201L465.21 -97.9201L557.36 -5.70013L490.84 60.8199L557.36 127.33L465.17 219.52L401.17 155.52L446.5 110.19L467.86 131.55L445.19 154.21L466.38 175.4L510.23 131.55L446.5 67.8199L358.79 155.52L444 240.71L384.51 300.15Z" stroke="white" stroke-width="1.25" stroke-miterlimit="10"/>
</g>
</g>
</g>
</svg>
