<svg width="433" height="143" viewBox="0 0 433 143" fill="none" xmlns="http://www.w3.org/2000/svg">
<path d="M142.619 207.232L171.904 179.05L284.238 70.9464L171.904 -37.1573L142.619 -65.3604L1 70.9464L142.619 207.232ZM38.816 52.1392L58.3591 70.9464L38.816 89.7536L19.2675 70.9464L38.816 52.1392ZM246.422 89.7536L226.879 70.9464L246.422 52.1392L265.965 70.9464L246.422 89.7536ZM162.77 170.255L142.619 189.653L96.8317 145.59L133.544 110.26L95.7284 73.8677L68.2518 100.31L87.1598 118.516L96.3097 109.711L86.5355 100.304L95.7446 91.4422L115.298 110.26L87.7249 136.795L47.9767 98.5486L76.6535 70.9464L47.9767 43.3494L87.698 5.08242L115.298 31.6383L95.7553 50.4455L86.5462 41.5832L96.3204 32.177L87.1705 23.3716L68.2625 41.5676L95.7392 68.0096L133.544 31.6383L96.8317 -3.69703L122.468 -28.3624L142.619 -47.7497L162.77 -28.352L188.401 -3.68667L151.688 31.6383L189.504 68.0251L216.986 41.6091L198.078 23.3872L188.928 32.1925L198.724 41.5832L189.515 50.4455L169.961 31.6383L197.54 5.08242L237.288 43.3339L208.606 70.9309L237.288 98.533L197.54 136.779L169.961 110.244L189.504 91.4318L198.724 100.31L188.944 109.711L198.094 118.516L217.002 100.32L189.52 73.904L151.704 110.296L188.422 145.626L162.77 170.255Z" stroke="#2682D7" stroke-miterlimit="10"/>
<path d="M289.685 353.805L318.975 325.623L431.304 217.519L318.975 109.415L289.685 81.2227L148.039 217.519L289.685 353.805ZM185.855 198.712L205.398 217.519L185.855 236.326L166.312 217.519L185.855 198.712ZM393.466 236.326L373.918 217.519L393.466 198.712L413.01 217.519L393.466 236.326ZM309.809 316.833L289.685 336.225L243.898 292.163L280.589 256.812L242.773 220.42L215.323 246.867L234.199 265.099L243.349 256.294L233.58 246.893L242.789 238.03L262.316 256.812L234.737 283.352L194.989 245.101L223.671 217.498L194.989 189.901L234.737 151.665L262.316 178.206L242.773 197.013L233.564 188.151L243.333 178.744L234.183 169.939L215.28 188.135L242.73 214.577L280.546 178.19L243.871 142.86L269.507 118.195L289.685 98.8333L309.836 118.226L335.434 142.86L298.722 178.195L336.538 214.582L363.988 188.14L345.123 169.96L335.973 178.765L345.747 188.171L336.538 197.034L316.989 178.226L344.584 151.665L384.333 189.917L355.656 217.514L384.333 245.116L344.584 283.373L317 256.812L336.549 238.004L345.758 246.867L335.973 256.294L345.123 265.099L364.031 246.908L336.581 220.461L298.733 256.812L335.434 292.163L309.809 316.833Z" stroke="#2682D7" stroke-miterlimit="10"/>
<path d="M289.685 60.5872L318.975 32.4049L431.277 -75.7195L318.948 -183.823L289.685 -211.985L148.039 -75.7195L289.685 60.5872ZM185.855 -94.506L205.398 -75.7195L185.855 -56.9124L166.312 -75.7195L185.855 -94.506ZM393.466 -56.8916L373.918 -75.7195L393.466 -94.5267L413.009 -75.7195L393.466 -56.8916ZM309.809 23.6099L289.685 43.0024L243.898 -1.05539L280.616 -36.3855L242.8 -72.7775L215.35 -46.3615L234.253 -28.1655L243.403 -36.9708L233.634 -46.377L242.843 -55.2393L262.386 -36.427L234.807 -9.89181L195.059 -48.1433L223.671 -75.7195L194.989 -103.317L234.737 -141.568L262.316 -115.033L242.773 -96.2205L233.564 -105.083L243.333 -114.489L234.183 -123.294L215.28 -105.098L242.73 -78.6823L280.546 -115.074L243.828 -150.404L269.464 -175.07L289.685 -194.405L309.836 -175.008L335.434 -150.342L298.722 -115.012L336.538 -78.6201L363.988 -105.036L345.123 -123.258L335.973 -114.453L345.747 -105.047L336.538 -96.1842L316.989 -114.997L344.584 -141.547L384.333 -103.296L355.65 -75.7195L384.327 -48.1226L344.584 -9.85036L317.005 -36.3855L336.554 -55.1979L345.763 -46.3356L335.973 -36.9294L345.123 -28.1241L364.031 -46.3201L336.581 -72.7361L298.765 -36.3441L335.434 -1.05539L309.809 23.6099Z" stroke="#2682D7" stroke-miterlimit="10"/>
</svg>
