<svg width="701" height="143" viewBox="0 0 701 143" fill="none" xmlns="http://www.w3.org/2000/svg">
<path d="M264.76 334.28L319.17 279.87L527.88 71.16L319.17 -137.55L264.76 -192L1.64014 71.16L264.76 334.28ZM71.9001 34.85L108.21 71.16L71.9001 107.47L35.5801 71.16L71.9001 34.85ZM457.62 107.47L421.31 71.16L457.62 34.85L493.93 71.16L457.62 107.47ZM302.2 262.89L264.76 300.34L179.69 215.27L247.9 147.06L177.64 76.8L126.59 127.85L161.72 163L178.72 146L160.56 127.84L177.67 110.73L214 147.06L162.77 198.29L88.9202 124.45L142.2 71.16L88.9202 17.88L162.72 -56L214 -4.73L177.69 31.58L160.58 14.47L178.74 -3.69L161.74 -20.69L126.61 14.44L177.66 65.49L247.9 -4.73L179.69 -72.95L227.32 -120.57L264.76 -158L302.2 -120.55L349.82 -72.93L281.61 -4.73L351.87 65.52L402.93 14.52L367.8 -20.66L350.8 -3.66L369 14.47L351.89 31.58L315.56 -4.73L366.8 -56L440.65 17.85L387.36 71.13L440.65 124.42L366.8 198.26L315.56 147.03L351.87 110.71L369 127.85L350.83 146L367.83 163L402.96 127.87L351.9 76.87L281.64 147.13L349.86 215.34L302.2 262.89Z" stroke="#2682D7" stroke-miterlimit="10"/>
<path d="M538 617.26L592.42 562.85L801.12 354.14L592.42 145.43L538 91L274.83 354.14L538 617.26ZM345.09 317.83L381.4 354.14L345.09 390.45L308.78 354.14L345.09 317.83ZM730.82 390.45L694.5 354.14L730.82 317.83L767.13 354.14L730.82 390.45ZM575.39 545.88L538 583.32L452.93 498.25L521.1 430L450.84 359.74L399.84 410.8L434.91 446L451.91 429L433.76 410.85L450.87 393.74L487.15 430L435.91 481.24L362.06 407.39L415.35 354.1L362.06 300.82L435.91 227L487.15 278.24L450.84 314.55L433.73 297.44L451.88 279.28L434.88 262.28L399.76 297.41L450.76 348.46L521.02 278.21L452.88 210L500.51 162.38L538 125L575.44 162.44L623 210L554.79 278.22L625.05 348.47L676.05 297.42L641 262.32L624 279.32L642.16 297.48L625.05 314.59L588.73 278.28L640 227L713.85 300.85L660.57 354.13L713.85 407.42L640 481.28L588.75 430L625.07 393.69L642.18 410.8L624 429L641 446L676.13 410.88L625.13 359.82L554.81 430L623 498.25L575.39 545.88Z" stroke="#2682D7" stroke-miterlimit="10"/>
<path d="M538 51.1599L592.42 -3.25009L801.07 -212L592.37 -420.71L538 -475.08L274.83 -212L538 51.1599ZM345.09 -248.27L381.4 -212L345.09 -175.69L308.78 -212L345.09 -248.27ZM730.82 -175.65L694.5 -212L730.82 -248.31L767.13 -212L730.82 -175.65ZM575.39 -20.2301L538 17.2099L452.93 -67.8501L521.15 -136.06L450.89 -206.32L399.89 -155.32L435.01 -120.19L452.01 -137.19L433.86 -155.35L450.97 -172.46L487.28 -136.14L436.04 -84.9101L362.19 -158.76L415.35 -212L362.06 -265.28L435.91 -339.13L487.15 -287.9L450.84 -251.58L433.73 -268.69L451.88 -286.85L434.88 -303.85L399.76 -268.72L450.76 -217.72L521.02 -287.98L452.8 -356.19L500.43 -403.81L538 -441.14L575.44 -403.69L623 -356.07L554.79 -287.86L625.05 -217.6L676.05 -268.6L641 -303.78L624 -286.78L642.16 -268.62L625.05 -251.51L588.73 -287.83L640 -339.09L713.85 -265.24L660.56 -212L713.84 -158.72L640 -84.8301L588.76 -136.06L625.08 -172.38L642.19 -155.27L624 -137.11L641 -120.11L676.13 -155.24L625.13 -206.24L554.87 -135.98L623 -67.8501L575.39 -20.2301Z" stroke="#2682D7" stroke-miterlimit="10"/>
</svg>
