<svg width="570" height="122" viewBox="0 0 570 122" fill="none" xmlns="http://www.w3.org/2000/svg">
<mask id="mask0_90_13" style="mask-type:alpha" maskUnits="userSpaceOnUse" x="0" y="0" width="570" height="122">
<path d="M570 0H0V122H570V0Z" fill="white"/>
</mask>
<g mask="url(#mask0_90_13)">
<g opacity="0.6">
<g opacity="0.4">
<path d="M340.79 389.28L408.72 321.35L669.25 60.8199L408.72 -199.72L340.79 -267.64L12.3301 60.8199L340.79 389.28ZM100 15.4899L145.32 60.8199L100 106.15L54.7101 60.8199L100 15.4899ZM581.51 106.15L536.18 60.8199L581.51 15.4899L626.84 60.8199L581.51 106.15ZM387.51 300.15L340.77 346.89L234.6 240.71L319.75 155.56L232.05 67.8599L168.32 131.59L212.16 175.44L233.35 154.25L210.69 131.59L232.05 110.23L277.37 155.56L213.37 219.56L121.18 127.37L187.7 60.8599L121.22 -5.70013L213.41 -97.8901L277.41 -33.8901L232.05 11.3999L210.69 -9.95013L233.35 -32.6201L212.16 -53.8101L168.32 -9.95013L232.05 53.7799L319.75 -33.9201L234.6 -119.08L294.05 -178.53L340.79 -225.27L387.53 -178.53L447 -119.08L361.85 -33.9201L449.56 53.7799L513.29 -9.95013L469.44 -53.8101L448.25 -32.6201L470.9 -9.95013L449.54 11.3999L404.21 -33.9201L468.21 -97.9201L560.36 -5.70013L493.84 60.8199L560.36 127.33L468.17 219.52L404.17 155.52L449.5 110.19L470.86 131.55L448.19 154.21L469.38 175.4L513.23 131.55L449.5 67.8199L361.79 155.52L447 240.71L387.51 300.15Z" stroke="#2680D2" stroke-width="1.25" stroke-miterlimit="10"/>
</g>
</g>
</g>
</svg>
