<svg id="Layer_1" data-name="Layer 1" xmlns="http://www.w3.org/2000/svg" viewBox="0 0 474.47 113.33"><defs><style>.cls-1{fill:#fff;}.cls-2{fill:#ea412a;}.cls-3{fill:#19486a;}</style></defs><rect class="cls-1" width="474.47" height="113.33"/><polygon class="cls-2" points="0 113.33 0 0 113.33 0 0 113.33"/><path class="cls-1" d="M44.13,19.54v3.78L34.77,44.74H28.44l9-20.44H29.12v4.1H23.94V19.54Z"/><path class="cls-3" d="M130.66,36.57h-6.17l-1.18,2.85h-3.15l5.92-13.3h3l5.95,13.3h-3.23Zm-1-2.34-2.1-5.09-2.11,5.09Z"/><path class="cls-3" d="M146.57,25.32v14.1h-2.83V38.24a3.91,3.91,0,0,1-3.2,1.33,5.31,5.31,0,0,1-2.61-.64,4.59,4.59,0,0,1-1.83-1.85,6.06,6.06,0,0,1,0-5.54,4.59,4.59,0,0,1,1.83-1.85,5.31,5.31,0,0,1,2.61-.64,3.88,3.88,0,0,1,3.06,1.23v-5Zm-3.65,11a3.24,3.24,0,0,0,0-4.12,2.5,2.5,0,0,0-1.86-.77,2.54,2.54,0,0,0-1.89.77,3.24,3.24,0,0,0,0,4.12,2.54,2.54,0,0,0,1.89.77A2.5,2.5,0,0,0,142.92,36.37Z"/><path class="cls-3" d="M159.45,29.2l-4.32,10.22h-3l-4.3-10.22h3.06l2.83,7,2.93-6.95Z"/><path class="cls-3" d="M168.09,30.18a4.32,4.32,0,0,1,1.28,3.41v5.83h-2.78V38.15a3.29,3.29,0,0,1-3.11,1.42,4.81,4.81,0,0,1-2-.4,3.06,3.06,0,0,1-1.32-1.1,2.89,2.89,0,0,1-.45-1.59,2.67,2.67,0,0,1,1.07-2.25,5.52,5.52,0,0,1,3.32-.81h2.35a1.85,1.85,0,0,0-.59-1.49,2.57,2.57,0,0,0-1.76-.53,5.22,5.22,0,0,0-1.61.26,4.34,4.34,0,0,0-1.34.69L160,30.28a6.47,6.47,0,0,1,2-.91,9.21,9.21,0,0,1,2.41-.32A5.27,5.27,0,0,1,168.09,30.18Zm-2.52,7a1.92,1.92,0,0,0,.83-1v-1h-2c-1.22,0-1.82.4-1.82,1.19a1.08,1.08,0,0,0,.44.91,2,2,0,0,0,1.23.33A2.66,2.66,0,0,0,165.57,37.23Z"/><path class="cls-3" d="M181.33,30.19a4.5,4.5,0,0,1,1.16,3.38v5.85h-3V34a2.69,2.69,0,0,0-.53-1.82,2,2,0,0,0-1.54-.6,2.35,2.35,0,0,0-1.79.7,2.88,2.88,0,0,0-.66,2.06v5.05h-3V29.2h2.83v1.2a3.88,3.88,0,0,1,1.46-1,5,5,0,0,1,1.92-.35A4.22,4.22,0,0,1,181.33,30.19Z"/><path class="cls-3" d="M187.29,38.9a5,5,0,0,1-2-1.87,5.16,5.16,0,0,1,2-7.31,6.3,6.3,0,0,1,2.94-.67,5.71,5.71,0,0,1,2.82.67,4,4,0,0,1,1.76,1.93l-2.3,1.24a2.51,2.51,0,0,0-2.3-1.41,2.6,2.6,0,0,0-1.92.76,3.2,3.2,0,0,0,0,4.14,2.6,2.6,0,0,0,1.92.76,2.5,2.5,0,0,0,2.3-1.4l2.3,1.25a4.14,4.14,0,0,1-1.76,1.9,5.61,5.61,0,0,1-2.82.68A6.3,6.3,0,0,1,187.29,38.9Z"/><path class="cls-3" d="M196.67,27.3a1.62,1.62,0,0,1,0-2.36,1.89,1.89,0,0,1,1.33-.47,2,2,0,0,1,1.33.45,1.48,1.48,0,0,1,.51,1.14,1.61,1.61,0,0,1-.51,1.23,1.87,1.87,0,0,1-1.33.48A1.85,1.85,0,0,1,196.67,27.3Zm-.15,1.9h3V39.42h-3Z"/><path class="cls-3" d="M211.52,30.19a4.5,4.5,0,0,1,1.16,3.38v5.85h-3V34a2.69,2.69,0,0,0-.53-1.82,2,2,0,0,0-1.54-.6,2.35,2.35,0,0,0-1.79.7,2.88,2.88,0,0,0-.66,2.06v5.05h-3V29.2h2.83v1.2a3.88,3.88,0,0,1,1.46-1,5,5,0,0,1,1.92-.35A4.21,4.21,0,0,1,211.52,30.19Z"/><path class="cls-3" d="M226,29.2v8.51a5.43,5.43,0,0,1-1.46,4.18,6.06,6.06,0,0,1-4.28,1.37,10.77,10.77,0,0,1-2.81-.36,6.09,6.09,0,0,1-2.2-1l1.18-2.12a4.9,4.9,0,0,0,1.63.84,6.49,6.49,0,0,0,2,.31,3.23,3.23,0,0,0,2.27-.69,2.79,2.79,0,0,0,.73-2.1v-.44a4.14,4.14,0,0,1-3.23,1.28,5.46,5.46,0,0,1-2.58-.62,4.76,4.76,0,0,1-1.85-1.74,4.91,4.91,0,0,1,1.85-6.91,5.46,5.46,0,0,1,2.58-.61,4.07,4.07,0,0,1,3.38,1.46V29.2Zm-3.67,6.6a2.57,2.57,0,0,0,0-3.63,3.06,3.06,0,0,0-3.87,0,2.55,2.55,0,0,0,0,3.63,3,3,0,0,0,3.87,0Z"/><path class="cls-3" d="M246.56,26.12v13.3h-3.08V34h-6v5.45h-3.08V26.12h3.08v5.25h6V26.12Z"/><path class="cls-3" d="M259.8,29.2V39.42H257V38.21a3.9,3.9,0,0,1-1.4,1,4.37,4.37,0,0,1-1.77.35,4.32,4.32,0,0,1-3.19-1.16A4.58,4.58,0,0,1,249.45,35V29.2h3v5.34c0,1.64.69,2.47,2.07,2.47a2.2,2.2,0,0,0,1.71-.7,2.86,2.86,0,0,0,.65-2.06V29.2Z"/><path class="cls-3" d="M278.7,30.18a4.61,4.61,0,0,1,1.13,3.39v5.85h-3V34a2.75,2.75,0,0,0-.51-1.82,1.75,1.75,0,0,0-1.43-.6,2.1,2.1,0,0,0-1.65.68,2.87,2.87,0,0,0-.61,2v5.13h-3V34c0-1.61-.64-2.42-1.93-2.42a2.1,2.1,0,0,0-1.64.68,2.92,2.92,0,0,0-.61,2v5.13h-3V29.2h2.83v1.18a3.8,3.8,0,0,1,1.4-1,4.63,4.63,0,0,1,1.81-.34,4.47,4.47,0,0,1,2,.42A3.54,3.54,0,0,1,272,30.72a4.22,4.22,0,0,1,1.58-1.24,5,5,0,0,1,2.1-.43A4.09,4.09,0,0,1,278.7,30.18Z"/><path class="cls-3" d="M290.26,30.18a4.31,4.31,0,0,1,1.27,3.41v5.83h-2.77V38.15a3.31,3.31,0,0,1-3.12,1.42,4.79,4.79,0,0,1-2-.4,3.06,3.06,0,0,1-1.32-1.1,2.89,2.89,0,0,1-.45-1.59,2.67,2.67,0,0,1,1.07-2.25,5.49,5.49,0,0,1,3.31-.81h2.36a1.88,1.88,0,0,0-.59-1.49,2.58,2.58,0,0,0-1.77-.53,5.15,5.15,0,0,0-1.6.26,4.23,4.23,0,0,0-1.34.69l-1.06-2.07a6.47,6.47,0,0,1,2-.91,9.2,9.2,0,0,1,2.4-.32A5.28,5.28,0,0,1,290.26,30.18Zm-2.53,7a1.89,1.89,0,0,0,.84-1v-1h-2c-1.22,0-1.83.4-1.83,1.19a1.09,1.09,0,0,0,.45.91,2,2,0,0,0,1.23.33A2.6,2.6,0,0,0,287.73,37.23Z"/><path class="cls-3" d="M303.49,30.19a4.5,4.5,0,0,1,1.17,3.38v5.85h-3V34a2.69,2.69,0,0,0-.53-1.82,2,2,0,0,0-1.54-.6,2.35,2.35,0,0,0-1.79.7,2.88,2.88,0,0,0-.66,2.06v5.05h-3V29.2H297v1.2a3.92,3.92,0,0,1,1.47-1,5,5,0,0,1,1.92-.35A4.18,4.18,0,0,1,303.49,30.19Z"/><path class="cls-3" d="M321.4,39.42l-2.56-3.7H316v3.7h-3.08V26.12h5.75a7.41,7.41,0,0,1,3.07.59,4.75,4.75,0,0,1,2,6.79,4.51,4.51,0,0,1-2,1.65l3,4.27Zm-.78-10.19a3.22,3.22,0,0,0-2.11-.6H316v4.64h2.5a3.22,3.22,0,0,0,2.11-.61,2.4,2.4,0,0,0,0-3.43Z"/><path class="cls-3" d="M326.84,27.3a1.6,1.6,0,0,1,0-2.36,1.89,1.89,0,0,1,1.33-.47,2,2,0,0,1,1.33.45,1.48,1.48,0,0,1,.51,1.14,1.61,1.61,0,0,1-.51,1.23,1.89,1.89,0,0,1-1.33.48A1.85,1.85,0,0,1,326.84,27.3Zm-.16,1.9h3V39.42h-3Z"/><path class="cls-3" d="M343,29.2v8.51a5.44,5.44,0,0,1-1.47,4.18,6,6,0,0,1-4.27,1.37,10.66,10.66,0,0,1-2.81-.36,6.14,6.14,0,0,1-2.21-1l1.18-2.12a5,5,0,0,0,1.64.84,6.38,6.38,0,0,0,2,.31,3.21,3.21,0,0,0,2.27-.69,2.75,2.75,0,0,0,.73-2.1v-.44a4.14,4.14,0,0,1-3.23,1.28,5.45,5.45,0,0,1-2.57-.62,4.63,4.63,0,0,1-1.85-1.74,5.19,5.19,0,0,1,0-5.17,4.77,4.77,0,0,1,1.85-1.74,5.44,5.44,0,0,1,2.57-.61,4.09,4.09,0,0,1,3.39,1.46V29.2Zm-3.68,6.6a2.57,2.57,0,0,0,0-3.63,2.73,2.73,0,0,0-1.93-.69,2.79,2.79,0,0,0-1.94.69,2.55,2.55,0,0,0,0,3.63,2.8,2.8,0,0,0,1.94.7A2.74,2.74,0,0,0,339.27,35.8Z"/><path class="cls-3" d="M355,30.19a4.5,4.5,0,0,1,1.17,3.38v5.85h-3V34a2.69,2.69,0,0,0-.53-1.82,2,2,0,0,0-1.54-.6,2.34,2.34,0,0,0-1.79.7,2.88,2.88,0,0,0-.66,2.06v5.05h-3V25.32h3v4.94a3.92,3.92,0,0,1,1.42-.9,5.17,5.17,0,0,1,1.83-.31A4.18,4.18,0,0,1,355,30.19Z"/><path class="cls-3" d="M365.42,38.93a3.19,3.19,0,0,1-1.07.48,5.29,5.29,0,0,1-1.34.16,4,4,0,0,1-2.82-.93,3.54,3.54,0,0,1-1-2.73v-4.2h-1.57V29.43h1.57V26.94h3v2.49h2.54v2.28h-2.54v4.16a1.42,1.42,0,0,0,.33,1,1.24,1.24,0,0,0,.94.35,1.93,1.93,0,0,0,1.2-.38Z"/><path class="cls-3" d="M368.05,39.26a6.45,6.45,0,0,1-1.94-.79l1-2.13a6.3,6.3,0,0,0,1.65.72,7.09,7.09,0,0,0,1.9.27c1.25,0,1.88-.31,1.88-.93a.67.67,0,0,0-.51-.63,8.38,8.38,0,0,0-1.58-.32,14.58,14.58,0,0,1-2.07-.44,3.14,3.14,0,0,1-1.42-.87,2.48,2.48,0,0,1-.59-1.79,2.77,2.77,0,0,1,.56-1.72,3.48,3.48,0,0,1,1.63-1.16,7,7,0,0,1,2.54-.42,10.4,10.4,0,0,1,2.15.23,6,6,0,0,1,1.78.66l-1,2.11a5.86,5.86,0,0,0-2.94-.76,3,3,0,0,0-1.43.27.76.76,0,0,0-.47.68.67.67,0,0,0,.51.66,9.21,9.21,0,0,0,1.63.37,15.93,15.93,0,0,1,2.06.44,3.07,3.07,0,0,1,1.38.87,2.4,2.4,0,0,1,.59,1.74,2.72,2.72,0,0,1-.57,1.7,3.62,3.62,0,0,1-1.66,1.14,7.22,7.22,0,0,1-2.59.41A9.88,9.88,0,0,1,368.05,39.26Z"/><path class="cls-3" d="M379.64,36.39a1.79,1.79,0,0,1,.51,1.32,2.84,2.84,0,0,1-.1.76,8.91,8.91,0,0,1-.41,1.14l-1.09,2.74h-1.88l.84-3a1.58,1.58,0,0,1-.75-.62,1.92,1.92,0,0,1,.25-2.32,2,2,0,0,1,2.63,0Z"/><path class="cls-3" d="M121.9,48.92H125v13.3H121.9Z"/><path class="cls-3" d="M144.07,53a4.61,4.61,0,0,1,1.13,3.39v5.85h-3V56.83a2.75,2.75,0,0,0-.5-1.82,1.77,1.77,0,0,0-1.43-.6,2.13,2.13,0,0,0-1.66.68,2.92,2.92,0,0,0-.6,2v5.13h-3V56.83c0-1.61-.65-2.42-1.94-2.42a2.08,2.08,0,0,0-1.63.68,2.87,2.87,0,0,0-.61,2v5.13h-3V52h2.83v1.18a3.76,3.76,0,0,1,1.39-1,4.72,4.72,0,0,1,1.82-.34,4.5,4.5,0,0,1,2,.42,3.45,3.45,0,0,1,1.4,1.25,4.34,4.34,0,0,1,1.59-1.24,5,5,0,0,1,2.1-.43A4.11,4.11,0,0,1,144.07,53Z"/><path class="cls-3" d="M156.49,52.5a4.74,4.74,0,0,1,1.84,1.85,6.1,6.1,0,0,1,0,5.52,4.74,4.74,0,0,1-1.84,1.85,5.27,5.27,0,0,1-2.59.65,4,4,0,0,1-3.08-1.23v4.77h-3V52h2.83v1.18a3.91,3.91,0,0,1,3.21-1.33A5.27,5.27,0,0,1,156.49,52.5Zm-1.23,6.67a3.27,3.27,0,0,0,0-4.12,2.67,2.67,0,0,0-3.75,0,3.27,3.27,0,0,0,0,4.12,2.67,2.67,0,0,0,3.75,0Z"/><path class="cls-3" d="M165.23,52.23a5.22,5.22,0,0,1,2.08-.38v2.73l-.66,0a2.7,2.7,0,0,0-2,.71,2.87,2.87,0,0,0-.72,2.13v4.83h-3V52h2.83v1.35A3.2,3.2,0,0,1,165.23,52.23Z"/><path class="cls-3" d="M171,61.7a5.08,5.08,0,0,1-2-1.87,5.5,5.5,0,0,1,0-5.44,5.08,5.08,0,0,1,2-1.87,6.14,6.14,0,0,1,2.9-.67,6.07,6.07,0,0,1,2.89.67,5.05,5.05,0,0,1,2,1.87,5.5,5.5,0,0,1,0,5.44,5.05,5.05,0,0,1-2,1.87,6.07,6.07,0,0,1-2.89.67A6.14,6.14,0,0,1,171,61.7Zm4.77-2.53a3.27,3.27,0,0,0,0-4.12,2.67,2.67,0,0,0-3.75,0,3.24,3.24,0,0,0,0,4.12,2.67,2.67,0,0,0,3.75,0Z"/><path class="cls-3" d="M191.29,52,187,62.22h-3.06L179.63,52h3.05l2.84,7,2.92-7Z"/><path class="cls-3" d="M192.66,50.1a1.62,1.62,0,0,1,0-2.36,1.89,1.89,0,0,1,1.33-.47,2,2,0,0,1,1.33.45,1.48,1.48,0,0,1,.51,1.14,1.61,1.61,0,0,1-.51,1.23,1.87,1.87,0,0,1-1.33.48A1.85,1.85,0,0,1,192.66,50.1Zm-.15,1.9h3V62.22h-3Z"/><path class="cls-3" d="M207.51,53a4.5,4.5,0,0,1,1.17,3.38v5.85h-3V56.83a2.69,2.69,0,0,0-.53-1.82,2,2,0,0,0-1.54-.6,2.31,2.31,0,0,0-1.78.7,2.84,2.84,0,0,0-.67,2.06v5h-3V52h2.83v1.2a3.88,3.88,0,0,1,1.46-1,5,5,0,0,1,1.92-.35A4.21,4.21,0,0,1,207.51,53Z"/><path class="cls-3" d="M222,52v8.51a5.43,5.43,0,0,1-1.46,4.18,6,6,0,0,1-4.27,1.37,10.79,10.79,0,0,1-2.82-.36,6.09,6.09,0,0,1-2.2-1l1.18-2.12a4.9,4.9,0,0,0,1.63.84,6.49,6.49,0,0,0,2,.31,3.23,3.23,0,0,0,2.27-.69,2.75,2.75,0,0,0,.73-2.1v-.44a4.14,4.14,0,0,1-3.23,1.28,5.39,5.39,0,0,1-2.57-.62,4.72,4.72,0,0,1-1.86-1.74,5.25,5.25,0,0,1,0-5.17,4.87,4.87,0,0,1,1.86-1.74,5.39,5.39,0,0,1,2.57-.61,4,4,0,0,1,3.38,1.46V52Zm-3.67,6.6a2.57,2.57,0,0,0,0-3.63,3.06,3.06,0,0,0-3.87,0,2.55,2.55,0,0,0,0,3.63,3,3,0,0,0,3.87,0Z"/><path class="cls-3" d="M239.11,59.37h-6.17l-1.18,2.85h-3.15l5.93-13.3h3l5.94,13.3h-3.23Zm-1-2.34L236,51.94,233.93,57Z"/><path class="cls-3" d="M246.61,61.7a5,5,0,0,1-2-1.87,5.37,5.37,0,0,1,0-5.44,5,5,0,0,1,2-1.87,6.3,6.3,0,0,1,2.94-.67,5.71,5.71,0,0,1,2.82.67,4,4,0,0,1,1.75,1.93l-2.29,1.23a2.53,2.53,0,0,0-2.3-1.4,2.57,2.57,0,0,0-1.92.76,3.2,3.2,0,0,0,0,4.14,2.57,2.57,0,0,0,1.92.76,2.5,2.5,0,0,0,2.3-1.4l2.29,1.25a4.07,4.07,0,0,1-1.75,1.9,5.71,5.71,0,0,1-2.82.68A6.3,6.3,0,0,1,246.61,61.7Z"/><path class="cls-3" d="M257.71,61.7a5.15,5.15,0,0,1,0-9.18,6.23,6.23,0,0,1,2.93-.67,5.66,5.66,0,0,1,2.82.67,4,4,0,0,1,1.76,1.93l-2.3,1.23a2.52,2.52,0,0,0-2.3-1.4,2.6,2.6,0,0,0-1.92.76,3.2,3.2,0,0,0,0,4.14,2.6,2.6,0,0,0,1.92.76,2.5,2.5,0,0,0,2.3-1.4l2.3,1.25a4.09,4.09,0,0,1-1.76,1.9,5.66,5.66,0,0,1-2.82.68A6.23,6.23,0,0,1,257.71,61.7Z"/><path class="cls-3" d="M276.75,58H269a2.43,2.43,0,0,0,1,1.5A3.32,3.32,0,0,0,272,60a3.86,3.86,0,0,0,1.41-.24,3.46,3.46,0,0,0,1.15-.75l1.58,1.71a5.3,5.3,0,0,1-4.22,1.65,6.69,6.69,0,0,1-3.06-.67,5,5,0,0,1-2.05-1.87,5.51,5.51,0,0,1,0-5.43,5,5,0,0,1,2-1.88,6.1,6.1,0,0,1,5.5,0,4.75,4.75,0,0,1,1.91,1.86,5.51,5.51,0,0,1,.69,2.8S276.79,57.45,276.75,58Zm-6.93-3.29a2.41,2.41,0,0,0-.84,1.56h5a2.43,2.43,0,0,0-.84-1.55,2.48,2.48,0,0,0-1.67-.58A2.54,2.54,0,0,0,269.82,54.66Z"/><path class="cls-3" d="M279.74,62.06a6.34,6.34,0,0,1-1.94-.79l1-2.13a6.3,6.3,0,0,0,1.65.72,7.09,7.09,0,0,0,1.9.27c1.25,0,1.88-.31,1.88-.93a.67.67,0,0,0-.51-.63,8.38,8.38,0,0,0-1.58-.32,14.58,14.58,0,0,1-2.07-.44,3.14,3.14,0,0,1-1.42-.87,2.48,2.48,0,0,1-.59-1.79,2.77,2.77,0,0,1,.56-1.72,3.48,3.48,0,0,1,1.63-1.16,7,7,0,0,1,2.54-.42,10.4,10.4,0,0,1,2.15.23,6,6,0,0,1,1.78.66l-1,2.11a5.86,5.86,0,0,0-2.94-.76,3.11,3.11,0,0,0-1.43.26.78.78,0,0,0-.47.69.67.67,0,0,0,.51.66,9.21,9.21,0,0,0,1.63.37,15.93,15.93,0,0,1,2.06.44,3.07,3.07,0,0,1,1.38.87,2.44,2.44,0,0,1,.59,1.74,2.72,2.72,0,0,1-.57,1.7A3.62,3.62,0,0,1,284.82,62a7.24,7.24,0,0,1-2.6.41A9.86,9.86,0,0,1,279.74,62.06Z"/><path class="cls-3" d="M289.82,62.06a6.38,6.38,0,0,1-1.93-.79l1-2.13a6.3,6.3,0,0,0,1.65.72,7,7,0,0,0,1.9.27c1.25,0,1.88-.31,1.88-.93a.67.67,0,0,0-.51-.63,8.38,8.38,0,0,0-1.58-.32,14.58,14.58,0,0,1-2.07-.44,3.14,3.14,0,0,1-1.42-.87,2.48,2.48,0,0,1-.6-1.79,2.83,2.83,0,0,1,.56-1.72,3.56,3.56,0,0,1,1.64-1.16,6.91,6.91,0,0,1,2.53-.42,10.43,10.43,0,0,1,2.16.23,6,6,0,0,1,1.78.66l-1,2.11a5.87,5.87,0,0,0-2.95-.76,3.09,3.09,0,0,0-1.42.26A.78.78,0,0,0,291,55a.67.67,0,0,0,.51.66,9,9,0,0,0,1.63.37,15.37,15.37,0,0,1,2.05.44,3,3,0,0,1,1.39.87,2.44,2.44,0,0,1,.59,1.74,2.72,2.72,0,0,1-.57,1.7A3.62,3.62,0,0,1,294.91,62a7.28,7.28,0,0,1-2.6.41A9.93,9.93,0,0,1,289.82,62.06Z"/><path class="cls-3" d="M310.93,61.73a3.19,3.19,0,0,1-1.07.48,5.29,5.29,0,0,1-1.34.16,4,4,0,0,1-2.82-.93,3.54,3.54,0,0,1-1-2.73v-4.2h-1.58V52.23h1.58V49.74h3v2.49h2.54v2.28h-2.54v4.16a1.42,1.42,0,0,0,.33,1,1.24,1.24,0,0,0,.94.35,1.93,1.93,0,0,0,1.2-.38Z"/><path class="cls-3" d="M314.25,61.7a5.11,5.11,0,0,1-2-1.87,5.5,5.5,0,0,1,0-5.44,5.11,5.11,0,0,1,2-1.87,6.11,6.11,0,0,1,2.9-.67,6,6,0,0,1,2.88.67,5.08,5.08,0,0,1,2,1.87,5.5,5.5,0,0,1,0,5.44,5.08,5.08,0,0,1-2,1.87,6,6,0,0,1-2.88.67A6.11,6.11,0,0,1,314.25,61.7ZM319,59.17a3.27,3.27,0,0,0,0-4.12,2.67,2.67,0,0,0-3.75,0,3.2,3.2,0,0,0,0,4.12,2.67,2.67,0,0,0,3.75,0Z"/><path class="cls-3" d="M330.28,62a4.81,4.81,0,0,1-1.85-1.44l1.71-2a3.09,3.09,0,0,0,2.47,1.46c1.26,0,1.88-.73,1.88-2.2V51.39h-4.67V48.92h7.73v8.63a5,5,0,0,1-1.21,3.67,4.81,4.81,0,0,1-3.58,1.23A6.14,6.14,0,0,1,330.28,62Z"/><path class="cls-3" d="M350.68,52V62.22h-2.81V61a3.85,3.85,0,0,1-1.41,1,4.29,4.29,0,0,1-1.76.35,4.34,4.34,0,0,1-3.2-1.16,4.61,4.61,0,0,1-1.17-3.43V52h3v5.34c0,1.64.69,2.47,2.07,2.47a2.2,2.2,0,0,0,1.71-.7,2.91,2.91,0,0,0,.65-2.06V52Z"/><path class="cls-3" d="M354.39,62.06a6.45,6.45,0,0,1-1.94-.79l1-2.13a6.3,6.3,0,0,0,1.65.72,7,7,0,0,0,1.9.27c1.25,0,1.88-.31,1.88-.93a.67.67,0,0,0-.51-.63,8.38,8.38,0,0,0-1.58-.32,14.58,14.58,0,0,1-2.07-.44,3.14,3.14,0,0,1-1.42-.87,2.48,2.48,0,0,1-.6-1.79,2.78,2.78,0,0,1,.57-1.72,3.48,3.48,0,0,1,1.63-1.16,6.93,6.93,0,0,1,2.54-.42,10.4,10.4,0,0,1,2.15.23,6,6,0,0,1,1.78.66l-1,2.11a5.86,5.86,0,0,0-2.94-.76,3.11,3.11,0,0,0-1.43.26.78.78,0,0,0-.47.69.67.67,0,0,0,.51.66,9,9,0,0,0,1.63.37,15.37,15.37,0,0,1,2.05.44,3,3,0,0,1,1.39.87,2.44,2.44,0,0,1,.59,1.74,2.72,2.72,0,0,1-.57,1.7A3.62,3.62,0,0,1,359.47,62a7.22,7.22,0,0,1-2.59.41A9.88,9.88,0,0,1,354.39,62.06Z"/><path class="cls-3" d="M370.12,61.73a3.16,3.16,0,0,1-1.08.48,5.29,5.29,0,0,1-1.34.16,4,4,0,0,1-2.82-.93,3.57,3.57,0,0,1-1-2.73v-4.2h-1.58V52.23h1.58V49.74h3v2.49h2.55v2.28h-2.55v4.16a1.42,1.42,0,0,0,.33,1,1.25,1.25,0,0,0,.94.35,1.93,1.93,0,0,0,1.2-.38Z"/><path class="cls-3" d="M371.94,50.1a1.62,1.62,0,0,1,0-2.36,2.15,2.15,0,0,1,2.66,0,1.48,1.48,0,0,1,.51,1.14,1.61,1.61,0,0,1-.51,1.23,2.1,2.1,0,0,1-2.66,0Zm-.15,1.9h3V62.22h-3Z"/><path class="cls-3" d="M379.51,61.7a5.16,5.16,0,0,1-2-1.87,5.43,5.43,0,0,1,0-5.44,5.16,5.16,0,0,1,2-1.87,6.3,6.3,0,0,1,2.94-.67,5.68,5.68,0,0,1,2.82.67A4,4,0,0,1,387,54.45l-2.3,1.23a2.52,2.52,0,0,0-2.3-1.4,2.6,2.6,0,0,0-1.92.76,3.2,3.2,0,0,0,0,4.14,2.6,2.6,0,0,0,1.92.76,2.5,2.5,0,0,0,2.3-1.4l2.3,1.25a4.14,4.14,0,0,1-1.76,1.9,5.69,5.69,0,0,1-2.82.68A6.3,6.3,0,0,1,379.51,61.7Z"/><path class="cls-3" d="M398.56,58h-7.73a2.43,2.43,0,0,0,1,1.5,3.31,3.31,0,0,0,1.93.55,3.88,3.88,0,0,0,1.42-.24,3.56,3.56,0,0,0,1.15-.75l1.58,1.71a5.32,5.32,0,0,1-4.22,1.65,6.66,6.66,0,0,1-3.06-.67,5,5,0,0,1-2.05-1.87,5.45,5.45,0,0,1,0-5.43,5,5,0,0,1,1.95-1.88,5.75,5.75,0,0,1,2.79-.67,5.68,5.68,0,0,1,2.71.64,4.62,4.62,0,0,1,1.91,1.86,5.42,5.42,0,0,1,.7,2.8S398.6,57.45,398.56,58Zm-6.93-3.29a2.41,2.41,0,0,0-.84,1.56h5a2.47,2.47,0,0,0-.83-1.55,2.5,2.5,0,0,0-1.67-.58A2.54,2.54,0,0,0,391.63,54.66Z"/><path class="cls-3" d="M403,59.19a1.76,1.76,0,0,1,.52,1.32,2.84,2.84,0,0,1-.1.76,7.9,7.9,0,0,1-.42,1.14L402,65.15h-1.88l.84-3a1.58,1.58,0,0,1-.75-.62,1.93,1.93,0,0,1,.24-2.32,1.81,1.81,0,0,1,1.32-.5A1.76,1.76,0,0,1,403,59.19Z"/><path class="cls-3" d="M129.47,75.78a4.35,4.35,0,0,1,1.27,3.41V85H128V83.75a3.31,3.31,0,0,1-3.12,1.42,4.73,4.73,0,0,1-2-.4,3,3,0,0,1-1.32-1.1,2.82,2.82,0,0,1-.46-1.59,2.7,2.7,0,0,1,1.07-2.25,5.52,5.52,0,0,1,3.32-.81h2.36a1.88,1.88,0,0,0-.59-1.49,2.62,2.62,0,0,0-1.77-.53,5.22,5.22,0,0,0-1.61.26,4.34,4.34,0,0,0-1.34.69l-1.06-2.07a6.69,6.69,0,0,1,2-.91,9.21,9.21,0,0,1,2.41-.32A5.3,5.3,0,0,1,129.47,75.78Zm-2.53,7a2,2,0,0,0,.84-1v-1h-2c-1.21,0-1.82.4-1.82,1.19a1.1,1.1,0,0,0,.44.91,2,2,0,0,0,1.23.33A2.61,2.61,0,0,0,126.94,82.83Z"/><path class="cls-3" d="M142.7,75.79a4.5,4.5,0,0,1,1.17,3.38V85h-3V79.63a2.64,2.64,0,0,0-.53-1.82,2,2,0,0,0-1.54-.6,2.33,2.33,0,0,0-1.78.7,2.84,2.84,0,0,0-.67,2.06v5h-3V74.8h2.83V76a3.88,3.88,0,0,1,1.46-1,5,5,0,0,1,1.92-.35A4.21,4.21,0,0,1,142.7,75.79Z"/><path class="cls-3" d="M157.07,70.92V85h-2.83V83.84a3.89,3.89,0,0,1-3.19,1.33,5.31,5.31,0,0,1-2.61-.64,4.68,4.68,0,0,1-1.84-1.85,6.14,6.14,0,0,1,0-5.54,4.68,4.68,0,0,1,1.84-1.85,5.31,5.31,0,0,1,2.61-.64,3.91,3.91,0,0,1,3.06,1.23v-5Zm-3.65,11a3.2,3.2,0,0,0,0-4.12,2.47,2.47,0,0,0-1.86-.77,2.52,2.52,0,0,0-1.88.77,3.24,3.24,0,0,0,0,4.12,2.52,2.52,0,0,0,1.88.77A2.47,2.47,0,0,0,153.42,82Z"/><path class="cls-3" d="M175.69,82.55V85h-10.3V71.72h10.06v2.47h-7v2.89h6.18v2.39h-6.18v3.08Z"/><path class="cls-3" d="M187.22,75.79a4.54,4.54,0,0,1,1.16,3.38V85h-3V79.63a2.69,2.69,0,0,0-.53-1.82,2,2,0,0,0-1.54-.6,2.35,2.35,0,0,0-1.79.7A2.88,2.88,0,0,0,180.9,80v5h-3V74.8h2.83V76a3.92,3.92,0,0,1,1.47-1,5,5,0,0,1,1.92-.35A4.22,4.22,0,0,1,187.22,75.79Z"/><path class="cls-3" d="M200.34,75.79a4.5,4.5,0,0,1,1.17,3.38V85h-3V79.63a2.69,2.69,0,0,0-.53-1.82,2,2,0,0,0-1.54-.6,2.34,2.34,0,0,0-1.79.7A2.88,2.88,0,0,0,194,80v5h-3V70.92h3v4.94a3.92,3.92,0,0,1,1.42-.9,5.17,5.17,0,0,1,1.83-.31A4.18,4.18,0,0,1,200.34,75.79Z"/><path class="cls-3" d="M212,75.78a4.32,4.32,0,0,1,1.28,3.41V85h-2.78V83.75a3.29,3.29,0,0,1-3.11,1.42,4.81,4.81,0,0,1-2-.4,3.06,3.06,0,0,1-1.32-1.1,2.89,2.89,0,0,1-.45-1.59,2.67,2.67,0,0,1,1.07-2.25,5.52,5.52,0,0,1,3.32-.81h2.35a1.85,1.85,0,0,0-.59-1.49,2.57,2.57,0,0,0-1.76-.53,5.22,5.22,0,0,0-1.61.26A4.23,4.23,0,0,0,205,78l-1.06-2.07a6.47,6.47,0,0,1,2-.91,9.2,9.2,0,0,1,2.4-.32A5.28,5.28,0,0,1,212,75.78Zm-2.52,7a1.92,1.92,0,0,0,.83-1v-1h-2c-1.22,0-1.83.4-1.83,1.19a1.09,1.09,0,0,0,.45.91,2,2,0,0,0,1.23.33A2.66,2.66,0,0,0,209.44,82.83Z"/><path class="cls-3" d="M225.2,75.79a4.5,4.5,0,0,1,1.16,3.38V85h-3V79.63a2.69,2.69,0,0,0-.53-1.82,2,2,0,0,0-1.54-.6,2.35,2.35,0,0,0-1.79.7,2.88,2.88,0,0,0-.66,2.06v5h-3V74.8h2.83V76a3.88,3.88,0,0,1,1.46-1,5,5,0,0,1,1.92-.35A4.22,4.22,0,0,1,225.2,75.79Z"/><path class="cls-3" d="M231.16,84.5a5,5,0,0,1-2-1.87,5.16,5.16,0,0,1,2-7.31,6.3,6.3,0,0,1,2.94-.67,5.71,5.71,0,0,1,2.82.67,4,4,0,0,1,1.76,1.93l-2.3,1.24a2.51,2.51,0,0,0-2.3-1.41,2.6,2.6,0,0,0-1.92.76,3.2,3.2,0,0,0,0,4.14,2.6,2.6,0,0,0,1.92.76,2.5,2.5,0,0,0,2.3-1.4l2.3,1.25a4.14,4.14,0,0,1-1.76,1.9,5.61,5.61,0,0,1-2.82.68A6.3,6.3,0,0,1,231.16,84.5Z"/><path class="cls-3" d="M240.54,72.9a1.6,1.6,0,0,1,0-2.36,1.89,1.89,0,0,1,1.33-.47,2,2,0,0,1,1.33.45,1.48,1.48,0,0,1,.51,1.14,1.61,1.61,0,0,1-.51,1.23,1.87,1.87,0,0,1-1.33.48A1.85,1.85,0,0,1,240.54,72.9Zm-.15,1.9h3V85h-3Z"/><path class="cls-3" d="M255.39,75.79a4.5,4.5,0,0,1,1.16,3.38V85h-3V79.63a2.69,2.69,0,0,0-.53-1.82,2,2,0,0,0-1.54-.6,2.35,2.35,0,0,0-1.79.7,2.88,2.88,0,0,0-.66,2.06v5h-3V74.8h2.83V76a3.88,3.88,0,0,1,1.46-1,5,5,0,0,1,1.92-.35A4.21,4.21,0,0,1,255.39,75.79Z"/><path class="cls-3" d="M269.89,74.8v8.51a5.43,5.43,0,0,1-1.46,4.18,6.06,6.06,0,0,1-4.28,1.37,10.77,10.77,0,0,1-2.81-.36,6.09,6.09,0,0,1-2.2-1l1.18-2.12a4.9,4.9,0,0,0,1.63.84,6.49,6.49,0,0,0,2,.31,3.23,3.23,0,0,0,2.27-.69,2.79,2.79,0,0,0,.73-2.1v-.44a4.14,4.14,0,0,1-3.23,1.28,5.46,5.46,0,0,1-2.58-.62,4.76,4.76,0,0,1-1.85-1.74,5.25,5.25,0,0,1,0-5.17,4.81,4.81,0,0,1,1.85-1.73,5.35,5.35,0,0,1,2.58-.62,4.07,4.07,0,0,1,3.38,1.46V74.8Zm-3.67,6.6a2.57,2.57,0,0,0,0-3.63,3.06,3.06,0,0,0-3.87,0,2.55,2.55,0,0,0,0,3.63,3,3,0,0,0,3.87,0Z"/><path class="cls-3" d="M287.22,78.16H290v5.4a8.09,8.09,0,0,1-2.51,1.25,9.74,9.74,0,0,1-2.86.44,7.87,7.87,0,0,1-3.73-.88,6.59,6.59,0,0,1-2.59-2.46,7.14,7.14,0,0,1,0-7.08A6.56,6.56,0,0,1,281,72.38a7.94,7.94,0,0,1,3.76-.89,8.3,8.3,0,0,1,3.18.59,6.35,6.35,0,0,1,2.39,1.71l-2,1.83a4.56,4.56,0,0,0-3.44-1.5,4.66,4.66,0,0,0-2.26.53,3.77,3.77,0,0,0-1.54,1.5,4.74,4.74,0,0,0,0,4.43,4,4,0,0,0,1.53,1.51,4.58,4.58,0,0,0,2.24.54,5,5,0,0,0,2.39-.57Z"/><path class="cls-3" d="M302.63,80.75H294.9a2.45,2.45,0,0,0,1,1.5,3.27,3.27,0,0,0,1.94.55,3.91,3.91,0,0,0,1.42-.24,3.56,3.56,0,0,0,1.15-.75L302,83.52a5.32,5.32,0,0,1-4.22,1.65,6.63,6.63,0,0,1-3.06-.67,4.9,4.9,0,0,1-2.05-1.87,5.11,5.11,0,0,1-.73-2.72,5.21,5.21,0,0,1,.72-2.71,5,5,0,0,1,1.95-1.88,5.75,5.75,0,0,1,2.79-.67,5.68,5.68,0,0,1,2.71.64A4.68,4.68,0,0,1,302,77.15a5.42,5.42,0,0,1,.7,2.8S302.67,80.25,302.63,80.75Zm-6.94-3.29a2.44,2.44,0,0,0-.83,1.56h5a2.47,2.47,0,0,0-.83-1.55,2.5,2.5,0,0,0-1.67-.58A2.57,2.57,0,0,0,295.69,77.46Z"/><path class="cls-3" d="M313.94,75.79a4.5,4.5,0,0,1,1.17,3.38V85h-3V79.63a2.69,2.69,0,0,0-.53-1.82,2,2,0,0,0-1.54-.6,2.34,2.34,0,0,0-1.79.7,2.88,2.88,0,0,0-.66,2.06v5h-3V74.8h2.83V76A3.92,3.92,0,0,1,309,75a5,5,0,0,1,1.92-.35A4.18,4.18,0,0,1,313.94,75.79Z"/><path class="cls-3" d="M328.32,70.92V85h-2.83V83.84a3.91,3.91,0,0,1-3.2,1.33,5.31,5.31,0,0,1-2.61-.64,4.59,4.59,0,0,1-1.83-1.85,6.06,6.06,0,0,1,0-5.54,4.59,4.59,0,0,1,1.83-1.85,5.31,5.31,0,0,1,2.61-.64,3.88,3.88,0,0,1,3.06,1.23v-5Zm-3.65,11a3.24,3.24,0,0,0,0-4.12,2.66,2.66,0,0,0-3.74,0,3.24,3.24,0,0,0,0,4.12,2.66,2.66,0,0,0,3.74,0Z"/><path class="cls-3" d="M341,80.75h-7.73a2.41,2.41,0,0,0,1,1.5,3.27,3.27,0,0,0,1.94.55,3.91,3.91,0,0,0,1.42-.24,3.56,3.56,0,0,0,1.15-.75l1.57,1.71a5.3,5.3,0,0,1-4.21,1.65,6.63,6.63,0,0,1-3.06-.67A5,5,0,0,1,331,82.63a5.48,5.48,0,0,1,0-5.43A5,5,0,0,1,333,75.32a5.75,5.75,0,0,1,2.79-.67,5.68,5.68,0,0,1,2.71.64,4.68,4.68,0,0,1,1.91,1.86,5.42,5.42,0,0,1,.7,2.8S341.05,80.25,341,80.75Zm-6.94-3.29a2.44,2.44,0,0,0-.83,1.56h5a2.47,2.47,0,0,0-.83-1.55,2.51,2.51,0,0,0-1.68-.58A2.56,2.56,0,0,0,334.07,77.46Z"/><path class="cls-3" d="M347.31,75a5.18,5.18,0,0,1,2.08-.38v2.73l-.67,0a2.68,2.68,0,0,0-2,.71A2.88,2.88,0,0,0,346,80.2V85h-3V74.8h2.83v1.35A3.28,3.28,0,0,1,347.31,75Z"/><path class="cls-3" d="M367.11,82.55V85H356.82V71.72h10.05v2.47h-7v2.89h6.17v2.39h-6.17v3.08Z"/><path class="cls-3" d="M379.65,74.8V88.71h-3V83.94a3.88,3.88,0,0,1-3.06,1.23,5.31,5.31,0,0,1-2.61-.64,4.59,4.59,0,0,1-1.83-1.85,6.06,6.06,0,0,1,0-5.54A4.59,4.59,0,0,1,371,75.29a5.31,5.31,0,0,1,2.61-.64A3.89,3.89,0,0,1,376.82,76V74.8ZM376,82a3.24,3.24,0,0,0,0-4.12,2.67,2.67,0,0,0-3.75,0,3.24,3.24,0,0,0,0,4.12A2.67,2.67,0,0,0,376,82Z"/><path class="cls-3" d="M392.69,74.8V85h-2.81V83.81a4,4,0,0,1-1.41,1,4.86,4.86,0,0,1-5-.81,4.62,4.62,0,0,1-1.18-3.43V74.8h3v5.34c0,1.65.69,2.47,2.07,2.47a2.2,2.2,0,0,0,1.71-.7,2.91,2.91,0,0,0,.64-2.06v-5Z"/><path class="cls-3" d="M403.22,75.78a4.35,4.35,0,0,1,1.27,3.41V85h-2.78V83.75a3.28,3.28,0,0,1-3.11,1.42,4.81,4.81,0,0,1-2.05-.4,3.06,3.06,0,0,1-1.32-1.1,2.89,2.89,0,0,1-.45-1.59,2.7,2.7,0,0,1,1.07-2.25,5.52,5.52,0,0,1,3.32-.81h2.35a1.85,1.85,0,0,0-.59-1.49,2.57,2.57,0,0,0-1.76-.53,5.22,5.22,0,0,0-1.61.26,4.34,4.34,0,0,0-1.34.69l-1.06-2.07a6.58,6.58,0,0,1,2-.91,9.21,9.21,0,0,1,2.41-.32A5.3,5.3,0,0,1,403.22,75.78Zm-2.53,7a1.92,1.92,0,0,0,.83-1v-1h-2c-1.22,0-1.82.4-1.82,1.19a1.1,1.1,0,0,0,.44.91,2,2,0,0,0,1.23.33A2.64,2.64,0,0,0,400.69,82.83Z"/><path class="cls-3" d="M407.17,70.92h3V85h-3Z"/><path class="cls-3" d="M413,72.9a1.6,1.6,0,0,1,0-2.36,1.89,1.89,0,0,1,1.33-.47,2,2,0,0,1,1.33.45,1.48,1.48,0,0,1,.51,1.14,1.61,1.61,0,0,1-.51,1.23,1.89,1.89,0,0,1-1.33.48A1.85,1.85,0,0,1,413,72.9Zm-.16,1.9h3V85h-3Z"/><path class="cls-3" d="M425.2,84.53a3.16,3.16,0,0,1-1.08.48,5.29,5.29,0,0,1-1.34.16,4,4,0,0,1-2.82-.93,3.57,3.57,0,0,1-1-2.73v-4.2h-1.58V75H419V72.54h3V75h2.54v2.28h-2.54v4.16a1.42,1.42,0,0,0,.33,1,1.25,1.25,0,0,0,.94.35,1.93,1.93,0,0,0,1.2-.38Z"/><path class="cls-3" d="M436.83,74.8l-4.62,10.85a5.34,5.34,0,0,1-1.74,2.49,4.26,4.26,0,0,1-2.5.72,5.06,5.06,0,0,1-1.58-.25,3.41,3.41,0,0,1-1.27-.68l1.08-2.11a2.51,2.51,0,0,0,.79.47,2.36,2.36,0,0,0,.89.18,1.53,1.53,0,0,0,1-.3,2.52,2.52,0,0,0,.69-1l0-.09-4.43-10.3h3.06l2.87,6.93L434,74.8Z"/></svg>