<svg id="Layer_1" data-name="Layer 1" xmlns="http://www.w3.org/2000/svg" viewBox="0 0 474.47 113.33"><defs><style>.cls-1{fill:#fff;}.cls-2{fill:#dc1b80;}.cls-3{fill:#19486a;}</style></defs><rect class="cls-1" width="474.47" height="113.33"/><polygon class="cls-2" points="0 113.33 0 0 113.33 0 0 113.33"/><path class="cls-1" d="M31.12,19.54v25.2H25.29V24.22h-5V19.54Z"/><path class="cls-1" d="M45.24,19.54v25.2H39.4V24.22h-5V19.54Z"/><path class="cls-3" d="M131.86,34.58v2.73H120.47V22.61h11.11v2.73h-7.73v3.19h6.83v2.65h-6.83v3.4Z"/><path class="cls-3" d="M144.59,27.1a5,5,0,0,1,1.29,3.74v6.47h-3.27v-6a3,3,0,0,0-.59-2,2.16,2.16,0,0,0-1.7-.66,2.58,2.58,0,0,0-2,.76,3.13,3.13,0,0,0-.74,2.28v5.59h-3.28V26h3.13v1.32a4.52,4.52,0,0,1,1.62-1.1,5.59,5.59,0,0,1,2.12-.39A4.64,4.64,0,0,1,144.59,27.1Z"/><path class="cls-3" d="M160.48,21.73V37.31h-3.13V36a4.32,4.32,0,0,1-3.53,1.47,5.87,5.87,0,0,1-2.89-.72,5,5,0,0,1-2-2,6.72,6.72,0,0,1,0-6.13,5.06,5.06,0,0,1,2-2,5.87,5.87,0,0,1,2.89-.72,4.3,4.3,0,0,1,3.38,1.37V21.73Zm-4,12.21a3.61,3.61,0,0,0,0-4.56,2.95,2.95,0,0,0-4.14,0,3.14,3.14,0,0,0-.82,2.28,3.14,3.14,0,0,0,.82,2.28,2.95,2.95,0,0,0,4.14,0Z"/><path class="cls-3" d="M163.67,23.91a1.77,1.77,0,0,1,0-2.6,2.09,2.09,0,0,1,1.47-.53,2.12,2.12,0,0,1,1.47.51,1.6,1.6,0,0,1,.57,1.26,1.78,1.78,0,0,1-.57,1.35,2,2,0,0,1-1.47.53A2.08,2.08,0,0,1,163.67,23.91ZM163.5,26h3.28v11.3H163.5Z"/><path class="cls-3" d="M180.08,27.1a5,5,0,0,1,1.29,3.74v6.47H178.1v-6a3,3,0,0,0-.59-2,2.16,2.16,0,0,0-1.7-.66,2.61,2.61,0,0,0-2,.76,3.17,3.17,0,0,0-.73,2.28v5.59h-3.28V26H173v1.32a4.52,4.52,0,0,1,1.62-1.1,5.59,5.59,0,0,1,2.12-.39A4.64,4.64,0,0,1,180.08,27.1Z"/><path class="cls-3" d="M196.11,26v9.41A6,6,0,0,1,194.5,40a6.69,6.69,0,0,1-4.73,1.51,11.68,11.68,0,0,1-3.11-.4A6.69,6.69,0,0,1,184.23,40l1.3-2.36a5.25,5.25,0,0,0,1.81.94,7.15,7.15,0,0,0,2.18.35,3.56,3.56,0,0,0,2.51-.77,3.06,3.06,0,0,0,.81-2.32v-.48a4.62,4.62,0,0,1-3.57,1.4,6.06,6.06,0,0,1-2.85-.68,5.24,5.24,0,0,1-2-1.92,5.34,5.34,0,0,1-.76-2.86,5.28,5.28,0,0,1,.76-2.85,5.19,5.19,0,0,1,2-1.93,6.06,6.06,0,0,1,2.85-.68A4.49,4.49,0,0,1,193,27.46V26Zm-4.06,7.3a2.84,2.84,0,0,0,0-4,3,3,0,0,0-2.13-.77,3.05,3.05,0,0,0-2.14.77,2.81,2.81,0,0,0,0,4,3,3,0,0,0,2.14.76A3,3,0,0,0,192.05,33.31Z"/><path class="cls-3" d="M219.47,22.61l-6.37,14.7h-3.36l-6.34-14.7h3.68l4.47,10.5,4.54-10.5Z"/><path class="cls-3" d="M220.83,23.91a1.77,1.77,0,0,1,0-2.6,2.09,2.09,0,0,1,1.47-.53,2.12,2.12,0,0,1,1.47.51,1.6,1.6,0,0,1,.57,1.26,1.78,1.78,0,0,1-.57,1.35,2,2,0,0,1-1.47.53A2.08,2.08,0,0,1,220.83,23.91Zm-.17,2.1h3.28v11.3h-3.28Z"/><path class="cls-3" d="M229.16,36.73a5.55,5.55,0,0,1-2.22-2.07,6,6,0,0,1,0-6,5.41,5.41,0,0,1,2.22-2.07,7.18,7.18,0,0,1,6.39,0,5.51,5.51,0,0,1,2.21,2.07,5.73,5.73,0,0,1-2.21,8.07,7.18,7.18,0,0,1-6.39,0Zm5.27-2.79a3.61,3.61,0,0,0,0-4.56,2.72,2.72,0,0,0-2.07-.85,2.76,2.76,0,0,0-2.08.85,3.14,3.14,0,0,0-.82,2.28,3.14,3.14,0,0,0,.82,2.28,2.8,2.8,0,0,0,2.08.85A2.76,2.76,0,0,0,234.43,33.94Z"/><path class="cls-3" d="M240.74,21.73H244V37.31h-3.27Z"/><path class="cls-3" d="M258.06,32.58h-8.54a2.61,2.61,0,0,0,1.09,1.66,3.58,3.58,0,0,0,2.14.61,4.49,4.49,0,0,0,1.57-.26,4,4,0,0,0,1.27-.83l1.74,1.89a5.86,5.86,0,0,1-4.66,1.83,7.32,7.32,0,0,1-3.38-.75A5.49,5.49,0,0,1,247,34.66a6,6,0,0,1,0-6,5.41,5.41,0,0,1,2.16-2.08,6.65,6.65,0,0,1,6.08,0,5.12,5.12,0,0,1,2.11,2,6.14,6.14,0,0,1,.77,3.1S258.11,32,258.06,32.58ZM250.4,29a2.69,2.69,0,0,0-.93,1.72H255a2.73,2.73,0,0,0-.92-1.71,2.76,2.76,0,0,0-1.85-.64A2.82,2.82,0,0,0,250.4,29Z"/><path class="cls-3" d="M270.57,27.1a5,5,0,0,1,1.29,3.74v6.47h-3.27v-6a3,3,0,0,0-.59-2,2.17,2.17,0,0,0-1.7-.66,2.61,2.61,0,0,0-2,.76,3.17,3.17,0,0,0-.73,2.28v5.59h-3.28V26h3.13v1.32a4.35,4.35,0,0,1,1.62-1.1,5.59,5.59,0,0,1,2.12-.39A4.64,4.64,0,0,1,270.57,27.1Z"/><path class="cls-3" d="M277.16,36.73a5.81,5.81,0,0,1-2.24-8.07,5.47,5.47,0,0,1,2.24-2.07,6.92,6.92,0,0,1,3.25-.75,6.26,6.26,0,0,1,3.12.75,4.41,4.41,0,0,1,1.94,2.13l-2.54,1.36a2.79,2.79,0,0,0-2.54-1.55,2.86,2.86,0,0,0-2.12.84,3.09,3.09,0,0,0-.84,2.29,3.09,3.09,0,0,0,.84,2.29,2.86,2.86,0,0,0,2.12.84,2.75,2.75,0,0,0,2.54-1.56l2.54,1.39a4.48,4.48,0,0,1-1.94,2.1,6.27,6.27,0,0,1-3.12.76A6.92,6.92,0,0,1,277.16,36.73Z"/><path class="cls-3" d="M298.22,32.58h-8.55a2.65,2.65,0,0,0,1.09,1.66,3.58,3.58,0,0,0,2.14.61,4.49,4.49,0,0,0,1.57-.26,3.87,3.87,0,0,0,1.27-.83l1.74,1.89a5.85,5.85,0,0,1-4.66,1.83,7.32,7.32,0,0,1-3.38-.75,5.49,5.49,0,0,1-2.27-2.07,6,6,0,0,1,0-6,5.41,5.41,0,0,1,2.16-2.08,6.33,6.33,0,0,1,3.08-.75,6.25,6.25,0,0,1,3,.72,5.12,5.12,0,0,1,2.11,2,6.14,6.14,0,0,1,.77,3.1S298.26,32,298.22,32.58ZM290.55,29a2.68,2.68,0,0,0-.92,1.72h5.56a2.73,2.73,0,0,0-.92-1.71,2.76,2.76,0,0,0-1.85-.64A2.82,2.82,0,0,0,290.55,29Z"/><path class="cls-3" d="M315,27.09a4.79,4.79,0,0,1,1.41,3.77v6.45h-3.06V35.9a3.67,3.67,0,0,1-3.45,1.58,5.42,5.42,0,0,1-2.26-.44,3.38,3.38,0,0,1-1.45-1.22,3.16,3.16,0,0,1-.51-1.77,2.93,2.93,0,0,1,1.19-2.47,6,6,0,0,1,3.66-.91h2.61a2.09,2.09,0,0,0-.66-1.65,2.87,2.87,0,0,0-2-.57,5.65,5.65,0,0,0-1.77.28,4.51,4.51,0,0,0-1.48.77l-1.18-2.29a7.09,7.09,0,0,1,2.22-1,9.79,9.79,0,0,1,2.65-.36A5.88,5.88,0,0,1,315,27.09Zm-2.79,7.79a2.15,2.15,0,0,0,.93-1.14V32.58h-2.25c-1.35,0-2,.44-2,1.33a1.16,1.16,0,0,0,.5,1,2.17,2.17,0,0,0,1.35.37A2.83,2.83,0,0,0,312.2,34.88Z"/><path class="cls-3" d="M331.14,26v9.41A6.07,6.07,0,0,1,329.53,40a6.69,6.69,0,0,1-4.73,1.51,11.68,11.68,0,0,1-3.11-.4A6.69,6.69,0,0,1,319.26,40l1.3-2.36a5.2,5.2,0,0,0,1.8.94,7.26,7.26,0,0,0,2.19.35,3.56,3.56,0,0,0,2.51-.77,3.06,3.06,0,0,0,.81-2.32v-.48a4.62,4.62,0,0,1-3.57,1.4,6.06,6.06,0,0,1-2.85-.68,5.33,5.33,0,0,1-2.05-1.92,5.42,5.42,0,0,1-.75-2.86,5.36,5.36,0,0,1,.75-2.85,5.28,5.28,0,0,1,2.05-1.93,6.06,6.06,0,0,1,2.85-.68A4.47,4.47,0,0,1,328,27.46V26Zm-4.06,7.3a2.84,2.84,0,0,0,0-4,3,3,0,0,0-2.13-.77,3.05,3.05,0,0,0-2.14.77,2.81,2.81,0,0,0,0,4,3,3,0,0,0,2.14.76A3,3,0,0,0,327.08,33.31Z"/><path class="cls-3" d="M342.78,27.09a4.78,4.78,0,0,1,1.4,3.77v6.45h-3.06V35.9a3.67,3.67,0,0,1-3.45,1.58,5.37,5.37,0,0,1-2.25-.44A3.35,3.35,0,0,1,334,35.82a3.16,3.16,0,0,1-.51-1.77,2.93,2.93,0,0,1,1.19-2.47,6,6,0,0,1,3.66-.91h2.61a2.12,2.12,0,0,0-.65-1.65,2.92,2.92,0,0,0-2-.57,5.65,5.65,0,0,0-1.77.28,4.61,4.61,0,0,0-1.48.77l-1.18-2.29a7.09,7.09,0,0,1,2.22-1,9.87,9.87,0,0,1,2.66-.36A5.89,5.89,0,0,1,342.78,27.09ZM340,34.88a2.11,2.11,0,0,0,.93-1.14V32.58h-2.25c-1.34,0-2,.44-2,1.33a1.16,1.16,0,0,0,.5,1,2.19,2.19,0,0,0,1.35.37A2.83,2.83,0,0,0,340,34.88Z"/><path class="cls-3" d="M347.31,23.91a1.79,1.79,0,0,1,0-2.6,2.34,2.34,0,0,1,2.94,0,1.6,1.6,0,0,1,.57,1.26,1.78,1.78,0,0,1-.57,1.35,2,2,0,0,1-1.47.53A2.08,2.08,0,0,1,347.31,23.91Zm-.17,2.1h3.28v11.3h-3.28Z"/><path class="cls-3" d="M363.72,27.1a5,5,0,0,1,1.3,3.74v6.47h-3.28v-6a3,3,0,0,0-.59-2,2.16,2.16,0,0,0-1.7-.66,2.61,2.61,0,0,0-2,.76,3.17,3.17,0,0,0-.74,2.28v5.59h-3.27V26h3.13v1.32a4.4,4.4,0,0,1,1.61-1.1,5.63,5.63,0,0,1,2.12-.39A4.64,4.64,0,0,1,363.72,27.1Z"/><path class="cls-3" d="M369,37.13a7.08,7.08,0,0,1-2.14-.87L368,33.91a6.79,6.79,0,0,0,1.82.78,7.47,7.47,0,0,0,2.1.31c1.39,0,2.08-.34,2.08-1a.73.73,0,0,0-.56-.69,8.52,8.52,0,0,0-1.75-.36,17.62,17.62,0,0,1-2.29-.48,3.64,3.64,0,0,1-1.56-1,2.74,2.74,0,0,1-.66-2,3,3,0,0,1,.62-1.9,3.93,3.93,0,0,1,1.8-1.3,7.92,7.92,0,0,1,2.81-.46,11.34,11.34,0,0,1,2.38.26,6.64,6.64,0,0,1,2,.73l-1.09,2.33a6.51,6.51,0,0,0-3.25-.84,3.42,3.42,0,0,0-1.58.29.87.87,0,0,0-.52.76.76.76,0,0,0,.56.74,9.71,9.71,0,0,0,1.81.39,19.7,19.7,0,0,1,2.27.5,3.33,3.33,0,0,1,1.53.95,2.76,2.76,0,0,1,.65,1.94,3,3,0,0,1-.63,1.86A4,4,0,0,1,374.64,37a7.94,7.94,0,0,1-2.86.46A11,11,0,0,1,369,37.13Z"/><path class="cls-3" d="M386.41,36.76a3.3,3.3,0,0,1-1.18.54,6,6,0,0,1-1.48.18,4.41,4.41,0,0,1-3.12-1,3.94,3.94,0,0,1-1.1-3V28.78h-1.75V26.26h1.75V23.51h3.27v2.75h2.82v2.52H382.8v4.6a1.55,1.55,0,0,0,.37,1.1,1.35,1.35,0,0,0,1,.39,2.08,2.08,0,0,0,1.32-.42Z"/><path class="cls-3" d="M142.69,47.81l-4.81,14.7h-3.65l-3.24-10-3.33,10H124l-4.83-14.7h3.53L126,58.14l3.46-10.33h3.15L136,58.22l3.43-10.41Z"/><path class="cls-3" d="M145.68,61.93a5.59,5.59,0,0,1-2.21-2.07,6,6,0,0,1,0-6,5.45,5.45,0,0,1,2.21-2.07,6.79,6.79,0,0,1,3.21-.75,6.68,6.68,0,0,1,3.19.75,5.42,5.42,0,0,1,2.2,2.07,6,6,0,0,1,0,6,5.56,5.56,0,0,1-2.2,2.07,6.68,6.68,0,0,1-3.19.75A6.79,6.79,0,0,1,145.68,61.93ZM151,59.14a3.61,3.61,0,0,0,0-4.56,2.69,2.69,0,0,0-2.06-.85,2.74,2.74,0,0,0-2.08.85,3.58,3.58,0,0,0,0,4.56,2.78,2.78,0,0,0,2.08.85A2.72,2.72,0,0,0,151,59.14Z"/><path class="cls-3" d="M175.11,52.29A5.09,5.09,0,0,1,176.35,56v6.47h-3.27v-6a3.06,3.06,0,0,0-.56-2,2,2,0,0,0-1.58-.66,2.37,2.37,0,0,0-1.83.74,3.22,3.22,0,0,0-.67,2.22v5.67h-3.28v-6c0-1.77-.71-2.66-2.14-2.66a2.34,2.34,0,0,0-1.81.74,3.27,3.27,0,0,0-.67,2.22v5.67h-3.27V51.21h3.12v1.3a4.19,4.19,0,0,1,1.55-1.09,5.24,5.24,0,0,1,2-.38,5,5,0,0,1,2.17.47,3.9,3.9,0,0,1,1.55,1.38,4.61,4.61,0,0,1,1.75-1.36,5.44,5.44,0,0,1,2.33-.49A4.58,4.58,0,0,1,175.11,52.29Z"/><path class="cls-3" d="M190.42,57.78h-8.54A2.61,2.61,0,0,0,183,59.44a3.58,3.58,0,0,0,2.14.61,4.49,4.49,0,0,0,1.57-.26A4,4,0,0,0,188,59l1.74,1.89A5.85,5.85,0,0,1,185,62.68a7.32,7.32,0,0,1-3.38-.75,5.49,5.49,0,0,1-2.27-2.07,6,6,0,0,1,0-6,5.41,5.41,0,0,1,2.16-2.08,6.65,6.65,0,0,1,6.08,0,5.12,5.12,0,0,1,2.11,2,6.12,6.12,0,0,1,.77,3.1S190.47,57.24,190.42,57.78Zm-7.66-3.63a2.68,2.68,0,0,0-.92,1.72h5.56a2.73,2.73,0,0,0-.92-1.71,2.76,2.76,0,0,0-1.85-.64A2.82,2.82,0,0,0,182.76,54.15Z"/><path class="cls-3" d="M202.93,52.3A5,5,0,0,1,204.22,56v6.47H201v-6a3,3,0,0,0-.59-2,2.16,2.16,0,0,0-1.7-.66,2.61,2.61,0,0,0-2,.76,3.17,3.17,0,0,0-.73,2.28v5.59h-3.28V51.21h3.13v1.32a4.35,4.35,0,0,1,1.62-1.1,5.59,5.59,0,0,1,2.12-.39A4.64,4.64,0,0,1,202.93,52.3Z"/><path class="cls-3" d="M209.89,59.16a2,2,0,0,1,.57,1.46,3.46,3.46,0,0,1-.11.84,9.13,9.13,0,0,1-.46,1.26l-1.2,3h-2.07l.92-3.34a1.68,1.68,0,0,1-.83-.68,2,2,0,0,1-.3-1.1,2,2,0,0,1,.57-1.46,2,2,0,0,1,1.46-.56A2,2,0,0,1,209.89,59.16Z"/><path class="cls-3" d="M222.77,61.78a7.22,7.22,0,0,1-2.85-2.71,7.89,7.89,0,0,1,0-7.83,7.29,7.29,0,0,1,2.85-2.71,9.16,9.16,0,0,1,7.54-.3,6.92,6.92,0,0,1,2.59,1.93l-2.18,2a4.7,4.7,0,0,0-3.7-1.73,4.86,4.86,0,0,0-2.43.6,4.32,4.32,0,0,0-1.67,1.67,4.93,4.93,0,0,0-.6,2.44,4.86,4.86,0,0,0,.6,2.43,4.26,4.26,0,0,0,1.67,1.67,4.86,4.86,0,0,0,2.43.6,4.68,4.68,0,0,0,3.7-1.74l2.18,2a6.82,6.82,0,0,1-2.6,2,8.61,8.61,0,0,1-3.46.67A8.47,8.47,0,0,1,222.77,61.78Z"/><path class="cls-3" d="M245.22,52.3A5,5,0,0,1,246.51,56v6.47h-3.27v-6a3,3,0,0,0-.59-2,2.16,2.16,0,0,0-1.7-.66,2.61,2.61,0,0,0-2,.76,3.17,3.17,0,0,0-.73,2.28v5.59H235V46.93h3.28v5.46a4.27,4.27,0,0,1,1.57-1,5.75,5.75,0,0,1,2-.35A4.64,4.64,0,0,1,245.22,52.3Z"/><path class="cls-3" d="M249.64,49.11a1.77,1.77,0,0,1,0-2.6,2.09,2.09,0,0,1,1.47-.53,2.12,2.12,0,0,1,1.47.51,1.6,1.6,0,0,1,.57,1.26,1.78,1.78,0,0,1-.57,1.35,2.05,2.05,0,0,1-1.47.54A2.09,2.09,0,0,1,249.64,49.11Zm-.17,2.1h3.28v11.3h-3.28Z"/><path class="cls-3" d="M255.79,46.93h3.28V62.51h-3.28Z"/><path class="cls-3" d="M273.62,46.93V62.51h-3.13v-1.3A4.3,4.3,0,0,1,267,62.68a5.82,5.82,0,0,1-2.89-.72,5.08,5.08,0,0,1-2-2,6.82,6.82,0,0,1,0-6.14,5.08,5.08,0,0,1,2-2A5.82,5.82,0,0,1,267,51a4.31,4.31,0,0,1,3.38,1.37V46.93Zm-4,12.21a3.58,3.58,0,0,0,0-4.56,2.72,2.72,0,0,0-2.06-.85,2.76,2.76,0,0,0-2.08.85,3.61,3.61,0,0,0,0,4.56,2.8,2.8,0,0,0,2.08.85A2.75,2.75,0,0,0,269.59,59.14Z"/><path class="cls-3" d="M281.36,51.46a5.9,5.9,0,0,1,2.3-.42v3l-.73,0a3,3,0,0,0-2.21.79,3.19,3.19,0,0,0-.8,2.36v5.34h-3.27V51.21h3.13V52.7A3.69,3.69,0,0,1,281.36,51.46Z"/><path class="cls-3" d="M296.51,57.78H288a2.61,2.61,0,0,0,1.09,1.66,3.58,3.58,0,0,0,2.14.61,4.4,4.4,0,0,0,1.56-.26A3.9,3.9,0,0,0,294,59l1.74,1.89a5.86,5.86,0,0,1-4.66,1.83,7.32,7.32,0,0,1-3.38-.75,5.49,5.49,0,0,1-2.27-2.07,5.61,5.61,0,0,1-.8-3,5.71,5.71,0,0,1,.79-3,5.41,5.41,0,0,1,2.16-2.08,6.65,6.65,0,0,1,6.08,0,5.12,5.12,0,0,1,2.11,2,6.12,6.12,0,0,1,.77,3.1S296.55,57.24,296.51,57.78Zm-7.66-3.63a2.69,2.69,0,0,0-.93,1.72h5.57a2.73,2.73,0,0,0-.92-1.71,2.76,2.76,0,0,0-1.85-.64A2.8,2.8,0,0,0,288.85,54.15Z"/><path class="cls-3" d="M309,52.3A5,5,0,0,1,310.31,56v6.47H307v-6a3,3,0,0,0-.58-2,2.17,2.17,0,0,0-1.7-.66,2.61,2.61,0,0,0-2,.76,3.17,3.17,0,0,0-.73,2.28v5.59h-3.28V51.21h3.13v1.32a4.35,4.35,0,0,1,1.62-1.1,5.59,5.59,0,0,1,2.12-.39A4.64,4.64,0,0,1,309,52.3Z"/><path class="cls-3" d="M327.8,52.29a4.77,4.77,0,0,1,1.41,3.77v6.45h-3.07V61.1a3.64,3.64,0,0,1-3.44,1.58,5.42,5.42,0,0,1-2.26-.44A3.4,3.4,0,0,1,319,61a3.24,3.24,0,0,1-.5-1.77,2.91,2.91,0,0,1,1.19-2.47,6,6,0,0,1,3.66-.91h2.6a2.08,2.08,0,0,0-.65-1.65,2.87,2.87,0,0,0-1.95-.57,5.75,5.75,0,0,0-1.78.28,4.61,4.61,0,0,0-1.48.77l-1.17-2.29a6.93,6.93,0,0,1,2.21-1,9.87,9.87,0,0,1,2.66-.36A5.89,5.89,0,0,1,327.8,52.29ZM325,60.08a2.14,2.14,0,0,0,.92-1.14V57.78h-2.24c-1.35,0-2,.44-2,1.33a1.18,1.18,0,0,0,.49,1,2.2,2.2,0,0,0,1.36.37A2.83,2.83,0,0,0,325,60.08Z"/><path class="cls-3" d="M342.43,52.3A5,5,0,0,1,343.72,56v6.47h-3.28v-6a3,3,0,0,0-.58-2,2.17,2.17,0,0,0-1.7-.66,2.61,2.61,0,0,0-2,.76,3.17,3.17,0,0,0-.73,2.28v5.59h-3.28V51.21h3.13v1.32a4.35,4.35,0,0,1,1.62-1.1A5.59,5.59,0,0,1,339,51,4.64,4.64,0,0,1,342.43,52.3Z"/><path class="cls-3" d="M358.31,46.93V62.51h-3.12v-1.3a4.33,4.33,0,0,1-3.53,1.47,5.82,5.82,0,0,1-2.89-.72,5.08,5.08,0,0,1-2-2,6.82,6.82,0,0,1,0-6.14,5.08,5.08,0,0,1,2-2,5.82,5.82,0,0,1,2.89-.72A4.3,4.3,0,0,1,355,52.41V46.93Zm-4,12.21a3.58,3.58,0,0,0,0-4.56,2.93,2.93,0,0,0-4.13,0,3.58,3.58,0,0,0,0,4.56,2.93,2.93,0,0,0,4.13,0Z"/><path class="cls-3" d="M123.47,87a7.19,7.19,0,0,1-2.88-2.72,7.81,7.81,0,0,1,0-7.79,7.33,7.33,0,0,1,2.88-2.72,9.15,9.15,0,0,1,8.24,0,7.35,7.35,0,0,1,3.93,6.62A7.35,7.35,0,0,1,131.71,87a9.07,9.07,0,0,1-8.24,0Zm6.47-2.51a4.27,4.27,0,0,0,1.65-1.67,4.86,4.86,0,0,0,.6-2.43,4.93,4.93,0,0,0-.6-2.44,4.34,4.34,0,0,0-1.65-1.67,4.9,4.9,0,0,0-4.7,0,4.34,4.34,0,0,0-1.65,1.67,4.93,4.93,0,0,0-.6,2.44,4.86,4.86,0,0,0,.6,2.43,4.27,4.27,0,0,0,1.65,1.67,4.9,4.9,0,0,0,4.7,0Z"/><path class="cls-3" d="M145.36,87.16a3.35,3.35,0,0,1-1.19.54,5.94,5.94,0,0,1-1.48.18,4.45,4.45,0,0,1-3.12-1,4,4,0,0,1-1.1-3V79.18h-1.74V76.66h1.74V73.91h3.28v2.75h2.81v2.52h-2.81v4.6a1.55,1.55,0,0,0,.36,1.1,1.38,1.38,0,0,0,1,.39,2.13,2.13,0,0,0,1.33-.42Z"/><path class="cls-3" d="M157.47,77.5a5,5,0,0,1,1.29,3.74v6.47h-3.28v-6a3,3,0,0,0-.59-2,2.16,2.16,0,0,0-1.7-.66,2.61,2.61,0,0,0-2,.76,3.17,3.17,0,0,0-.74,2.28v5.59h-3.27V72.13h3.27v5.46a4.31,4.31,0,0,1,1.58-1,5.7,5.7,0,0,1,2-.35A4.68,4.68,0,0,1,157.47,77.5Z"/><path class="cls-3" d="M172.85,83H164.3a2.65,2.65,0,0,0,1.09,1.66,3.6,3.6,0,0,0,2.14.61A4.49,4.49,0,0,0,169.1,85a3.87,3.87,0,0,0,1.27-.83l1.74,1.89a5.85,5.85,0,0,1-4.66,1.83,7.35,7.35,0,0,1-3.38-.75,5.49,5.49,0,0,1-2.27-2.07,5.7,5.7,0,0,1-.8-3,5.81,5.81,0,0,1,.79-3A5.54,5.54,0,0,1,164,77a6.35,6.35,0,0,1,3.08-.75,6.22,6.22,0,0,1,3,.72,5.12,5.12,0,0,1,2.11,2,6.14,6.14,0,0,1,.77,3.1S172.89,82.44,172.85,83Zm-7.67-3.63a2.68,2.68,0,0,0-.92,1.72h5.56a2.68,2.68,0,0,0-2.77-2.35A2.84,2.84,0,0,0,165.18,79.35Z"/><path class="cls-3" d="M179.81,76.66a5.86,5.86,0,0,1,2.3-.42v3l-.74,0a3,3,0,0,0-2.2.79,3.19,3.19,0,0,0-.8,2.36v5.34h-3.28V76.41h3.13V77.9A3.65,3.65,0,0,1,179.81,76.66Z"/><path class="cls-3" d="M203.8,73v14.7h-3.4v-6h-6.68v6h-3.4V73h3.4V78.8h6.68V73Z"/><path class="cls-3" d="M215.64,77.49a4.77,4.77,0,0,1,1.41,3.77v6.45H214V86.3a3.67,3.67,0,0,1-3.45,1.58,5.27,5.27,0,0,1-2.26-.45,3.29,3.29,0,0,1-1.45-1.21,3.16,3.16,0,0,1-.51-1.77A3,3,0,0,1,207.51,82a6,6,0,0,1,3.66-.9h2.61a2.12,2.12,0,0,0-.65-1.65,2.92,2.92,0,0,0-2-.57,5.65,5.65,0,0,0-1.77.28,4.51,4.51,0,0,0-1.48.77l-1.18-2.29a7.09,7.09,0,0,1,2.22-1,9.79,9.79,0,0,1,2.65-.36A5.88,5.88,0,0,1,215.64,77.49Zm-2.79,7.79a2.15,2.15,0,0,0,.93-1.14V83h-2.25c-1.35,0-2,.44-2,1.33a1.16,1.16,0,0,0,.5,1,2.19,2.19,0,0,0,1.35.37A2.83,2.83,0,0,0,212.85,85.28Z"/><path class="cls-3" d="M224.73,76.66a5.86,5.86,0,0,1,2.3-.42v3l-.74,0a3,3,0,0,0-2.2.79,3.15,3.15,0,0,0-.8,2.36v5.34H220V76.41h3.13V77.9A3.59,3.59,0,0,1,224.73,76.66Z"/><path class="cls-3" d="M246.82,77.49a5.1,5.1,0,0,1,1.25,3.75v6.47h-3.28v-6a3.06,3.06,0,0,0-.55-2,2,2,0,0,0-1.59-.66,2.37,2.37,0,0,0-1.83.74,3.27,3.27,0,0,0-.67,2.22v5.67h-3.27v-6c0-1.77-.72-2.66-2.15-2.66a2.33,2.33,0,0,0-1.8.74,3.22,3.22,0,0,0-.67,2.22v5.67H229V76.41h3.13v1.3a4.15,4.15,0,0,1,1.54-1.09,5.25,5.25,0,0,1,2-.38,4.89,4.89,0,0,1,2.16.47,3.92,3.92,0,0,1,1.56,1.38,4.65,4.65,0,0,1,1.75-1.37,5.57,5.57,0,0,1,2.32-.48A4.57,4.57,0,0,1,246.82,77.49Z"/><path class="cls-3" d="M254.6,76.66h2.9v2.52h-2.82v8.53h-3.27V79.18h-1.75V76.66h1.75v-.5a4.14,4.14,0,0,1,1.14-3.07A4.41,4.41,0,0,1,255.78,72a5.75,5.75,0,0,1,1.39.16,3.17,3.17,0,0,1,1.1.45l-.86,2.37a2.2,2.2,0,0,0-1.32-.4c-1,0-1.49.55-1.49,1.64Z"/><path class="cls-3" d="M270.52,76.41v11.3h-3.11V86.36a4.43,4.43,0,0,1-1.55,1.13,4.93,4.93,0,0,1-2,.39,4.81,4.81,0,0,1-3.53-1.29,5.13,5.13,0,0,1-1.3-3.8V76.41h3.28v5.9c0,1.82.76,2.73,2.29,2.73a2.44,2.44,0,0,0,1.89-.77,3.25,3.25,0,0,0,.71-2.27V76.41Z"/><path class="cls-3" d="M273.56,72.13h3.28V87.71h-3.28Z"/><path class="cls-3" d="M295.81,73.66A5,5,0,0,1,298,75.51a5.12,5.12,0,0,1,.77,2.83,5.19,5.19,0,0,1-.77,2.83A4.94,4.94,0,0,1,295.81,83a8.23,8.23,0,0,1-3.39.65h-3v4h-3.4V73h6.36A8.23,8.23,0,0,1,295.81,73.66Zm-1.25,6.56a2.31,2.31,0,0,0,.8-1.88,2.34,2.34,0,0,0-.8-1.9,3.58,3.58,0,0,0-2.33-.66h-2.77v5.1h2.77A3.58,3.58,0,0,0,294.56,80.22Z"/><path class="cls-3" d="M305.7,76.66a5.9,5.9,0,0,1,2.3-.42v3l-.73,0a3,3,0,0,0-2.21.79,3.19,3.19,0,0,0-.8,2.36v5.34H301V76.41h3.13V77.9A3.62,3.62,0,0,1,305.7,76.66Z"/><path class="cls-3" d="M318.48,77.49a4.77,4.77,0,0,1,1.41,3.77v6.45h-3.07V86.3a3.64,3.64,0,0,1-3.44,1.58,5.27,5.27,0,0,1-2.26-.45,3.32,3.32,0,0,1-1.46-1.21,3.24,3.24,0,0,1-.5-1.77A3,3,0,0,1,310.34,82a6.08,6.08,0,0,1,3.67-.9h2.6a2.12,2.12,0,0,0-.65-1.65,2.87,2.87,0,0,0-1.95-.57,5.71,5.71,0,0,0-1.78.28,4.61,4.61,0,0,0-1.48.77l-1.17-2.29a6.93,6.93,0,0,1,2.21-1,9.87,9.87,0,0,1,2.66-.36A5.89,5.89,0,0,1,318.48,77.49Zm-2.79,7.79a2.14,2.14,0,0,0,.92-1.14V83h-2.24c-1.35,0-2,.44-2,1.33a1.15,1.15,0,0,0,.49,1,2.2,2.2,0,0,0,1.36.37A2.86,2.86,0,0,0,315.69,85.28Z"/><path class="cls-3" d="M325.19,87.13a5.83,5.83,0,0,1-2.25-8.07A5.49,5.49,0,0,1,325.19,77a6.91,6.91,0,0,1,3.24-.75,6.24,6.24,0,0,1,3.12.75,4.43,4.43,0,0,1,1.95,2.13L331,80.48a2.8,2.8,0,0,0-2.55-1.55,2.88,2.88,0,0,0-2.12.84,3.54,3.54,0,0,0,0,4.58,2.88,2.88,0,0,0,2.12.84A2.77,2.77,0,0,0,331,83.63L333.5,85a4.5,4.5,0,0,1-1.95,2.1,6.24,6.24,0,0,1-3.12.76A6.91,6.91,0,0,1,325.19,87.13Z"/><path class="cls-3" d="M342.84,87.16a3.35,3.35,0,0,1-1.19.54,5.94,5.94,0,0,1-1.48.18,4.45,4.45,0,0,1-3.12-1,4,4,0,0,1-1.1-3V79.18h-1.74V76.66H336V73.91h3.28v2.75H342v2.52h-2.81v4.6a1.51,1.51,0,0,0,.37,1.1,1.35,1.35,0,0,0,1,.39,2.12,2.12,0,0,0,1.32-.42Z"/><path class="cls-3" d="M344.86,74.31a1.77,1.77,0,0,1,0-2.6,2.05,2.05,0,0,1,1.47-.53,2.16,2.16,0,0,1,1.47.5,1.62,1.62,0,0,1,.56,1.27,1.77,1.77,0,0,1-.56,1.35,2.29,2.29,0,0,1-2.94,0Zm-.17,2.1H348v11.3h-3.28Z"/><path class="cls-3" d="M353.22,87.13A5.81,5.81,0,0,1,351,79.06,5.53,5.53,0,0,1,353.22,77a6.92,6.92,0,0,1,3.25-.75,6.26,6.26,0,0,1,3.12.75,4.41,4.41,0,0,1,1.94,2.13L359,80.48a2.79,2.79,0,0,0-2.54-1.55,2.86,2.86,0,0,0-2.12.84,3.54,3.54,0,0,0,0,4.58,2.86,2.86,0,0,0,2.12.84A2.74,2.74,0,0,0,359,83.63L361.53,85a4.48,4.48,0,0,1-1.94,2.1,6.27,6.27,0,0,1-3.12.76A6.92,6.92,0,0,1,353.22,87.13Z"/><path class="cls-3" d="M374.28,83h-8.55a2.65,2.65,0,0,0,1.09,1.66,3.6,3.6,0,0,0,2.14.61,4.49,4.49,0,0,0,1.57-.26,3.87,3.87,0,0,0,1.27-.83l1.74,1.89a5.85,5.85,0,0,1-4.66,1.83,7.35,7.35,0,0,1-3.38-.75,5.49,5.49,0,0,1-2.27-2.07,5.7,5.7,0,0,1-.8-3,5.81,5.81,0,0,1,.79-3A5.54,5.54,0,0,1,365.38,77a6.35,6.35,0,0,1,3.08-.75,6.22,6.22,0,0,1,3,.72,5.12,5.12,0,0,1,2.11,2,6.14,6.14,0,0,1,.77,3.1S374.32,82.44,374.28,83Zm-7.67-3.63a2.68,2.68,0,0,0-.92,1.72h5.56a2.68,2.68,0,0,0-2.77-2.35A2.84,2.84,0,0,0,366.61,79.35Z"/><path class="cls-3" d="M377.57,87.53a7.19,7.19,0,0,1-2.14-.87l1.09-2.35a7,7,0,0,0,1.83.78,7.37,7.37,0,0,0,2.1.31c1.39,0,2.08-.35,2.08-1a.73.73,0,0,0-.57-.69,8.4,8.4,0,0,0-1.74-.36,17.27,17.27,0,0,1-2.29-.48,3.64,3.64,0,0,1-1.56-1,2.74,2.74,0,0,1-.66-2,3.08,3.08,0,0,1,.61-1.9,4,4,0,0,1,1.81-1.3,7.9,7.9,0,0,1,2.8-.46,11.36,11.36,0,0,1,2.39.26,6.75,6.75,0,0,1,2,.73l-1.09,2.33a6.54,6.54,0,0,0-3.26-.84,3.37,3.37,0,0,0-1.57.29.88.88,0,0,0-.53.76.76.76,0,0,0,.57.74,10.61,10.61,0,0,0,1.81.39,19,19,0,0,1,2.26.5,3.41,3.41,0,0,1,1.54.95,2.73,2.73,0,0,1,.65,1.93,3,3,0,0,1-.63,1.87,4,4,0,0,1-1.84,1.27,7.94,7.94,0,0,1-2.86.46A11.11,11.11,0,0,1,377.57,87.53Z"/></svg>