<svg id="Layer_1" data-name="Layer 1" xmlns="http://www.w3.org/2000/svg" viewBox="0 0 474.47 113.33"><defs><style>.cls-1{fill:#fff;}.cls-2{fill:#0097d4;}.cls-3{fill:#19486a;}</style></defs><rect class="cls-1" width="474.47" height="113.33"/><polygon class="cls-2" points="0 113.33 0 0 113.33 0 0 113.33"/><path class="cls-1" d="M41.54,22.33q3,3.23,3,9.27A15.76,15.76,0,0,1,42.93,39a10.89,10.89,0,0,1-4.52,4.64,13.86,13.86,0,0,1-6.73,1.59,16.2,16.2,0,0,1-3.86-.45,10.52,10.52,0,0,1-3.13-1.28l2.16-4.29a8.19,8.19,0,0,0,4.72,1.26,6.8,6.8,0,0,0,5.07-1.89,7.9,7.9,0,0,0,2-5.45,8.47,8.47,0,0,1-6.26,2.27,10,10,0,0,1-4.4-1,7.69,7.69,0,0,1-3.13-2.76,7.4,7.4,0,0,1-1.15-4.12A7.85,7.85,0,0,1,25,23.07a8.21,8.21,0,0,1,3.44-2.93,11.11,11.11,0,0,1,4.84-1A10.76,10.76,0,0,1,41.54,22.33Zm-4.73,7.6a3.69,3.69,0,0,0,0-5.42,4.69,4.69,0,0,0-3.22-1,4.45,4.45,0,0,0-3,1,3.41,3.41,0,0,0-1.17,2.73A3.5,3.5,0,0,0,30.58,30a4.57,4.57,0,0,0,3.11,1A4.56,4.56,0,0,0,36.81,29.93Z"/><path class="cls-3" d="M135.1,25.59a3.13,3.13,0,0,1,.62,2,2.9,2.9,0,0,1-1.29,2.54,6.54,6.54,0,0,1-3.76.9h-6.51V18.39h6.15a6,6,0,0,1,3.54.89,2.79,2.79,0,0,1,1.23,2.39,3,3,0,0,1-.44,1.64,3,3,0,0,1-1.23,1.13A3.31,3.31,0,0,1,135.1,25.59Zm-8-5v3H130a2.93,2.93,0,0,0,1.63-.38,1.38,1.38,0,0,0,0-2.22,2.94,2.94,0,0,0-1.63-.37Zm5.14,7.83a1.29,1.29,0,0,0,.58-1.17c0-1-.77-1.57-2.32-1.57h-3.4V28.8h3.4A3.26,3.26,0,0,0,132.2,28.42Z"/><path class="cls-3" d="M147.49,21.31V31h-2.67V29.84a3.78,3.78,0,0,1-1.33,1,4.22,4.22,0,0,1-1.67.33,4.16,4.16,0,0,1-3-1.1,4.39,4.39,0,0,1-1.11-3.26V21.31h2.8v5.06c0,1.56.66,2.34,2,2.34a2.11,2.11,0,0,0,1.62-.66,2.81,2.81,0,0,0,.61-1.95V21.31Z"/><path class="cls-3" d="M150.24,19.51a1.51,1.51,0,0,1,0-2.23,1.77,1.77,0,0,1,1.26-.45,1.8,1.8,0,0,1,1.26.43,1.41,1.41,0,0,1,.49,1.08,1.53,1.53,0,0,1-.49,1.16,1.73,1.73,0,0,1-1.26.46A1.77,1.77,0,0,1,150.24,19.51Zm-.14,1.8h2.8V31h-2.8Z"/><path class="cls-3" d="M155.51,17.64h2.81V31h-2.81Z"/><path class="cls-3" d="M170.8,17.64V31h-2.69V29.88a3.69,3.69,0,0,1-3,1.26,5.08,5.08,0,0,1-2.47-.61,4.37,4.37,0,0,1-1.74-1.75,5.8,5.8,0,0,1,0-5.26,4.41,4.41,0,0,1,1.74-1.74,5,5,0,0,1,2.47-.61,3.69,3.69,0,0,1,2.9,1.17v-4.7Zm-3.46,10.47a2.7,2.7,0,0,0,.7-2,2.7,2.7,0,0,0-.7-1.95,2.51,2.51,0,0,0-3.54,0,3,3,0,0,0,0,3.91,2.54,2.54,0,0,0,3.54,0Z"/><path class="cls-3" d="M173.53,19.51a1.54,1.54,0,0,1,0-2.23,2,2,0,0,1,2.52,0,1.38,1.38,0,0,1,.49,1.08,1.5,1.5,0,0,1-.49,1.16,1.73,1.73,0,0,1-1.26.46A1.8,1.8,0,0,1,173.53,19.51Zm-.14,1.8h2.81V31h-2.81Z"/><path class="cls-3" d="M187.6,22.25a4.28,4.28,0,0,1,1.11,3.2V31H185.9V25.88a2.52,2.52,0,0,0-.51-1.72,1.85,1.85,0,0,0-1.45-.56,2.28,2.28,0,0,0-1.7.65,2.73,2.73,0,0,0-.63,2V31h-2.8V21.31h2.68v1.14a3.67,3.67,0,0,1,1.38-.95,4.91,4.91,0,0,1,1.82-.33A4,4,0,0,1,187.6,22.25Z"/><path class="cls-3" d="M201.34,21.31v8.07A5.17,5.17,0,0,1,200,33.33a5.72,5.72,0,0,1-4.05,1.3,10.07,10.07,0,0,1-2.67-.34,6,6,0,0,1-2.09-1l1.12-2a4.36,4.36,0,0,0,1.55.8,6.09,6.09,0,0,0,1.87.3,3,3,0,0,0,2.15-.66,2.6,2.6,0,0,0,.69-2v-.42a3.94,3.94,0,0,1-3.06,1.21,5.11,5.11,0,0,1-2.43-.59,4.44,4.44,0,0,1-1.76-1.65,4.92,4.92,0,0,1,0-4.89A4.44,4.44,0,0,1,193,21.75a5.1,5.1,0,0,1,2.43-.58,3.85,3.85,0,0,1,3.21,1.38V21.31Zm-3.48,6.26a2.44,2.44,0,0,0,0-3.44,2.57,2.57,0,0,0-1.83-.66,2.6,2.6,0,0,0-1.83.66,2.41,2.41,0,0,0,0,3.44,2.64,2.64,0,0,0,1.83.65A2.61,2.61,0,0,0,197.86,27.57Z"/><path class="cls-3" d="M211.79,30.37a6.22,6.22,0,0,1-2.45-2.32,6.77,6.77,0,0,1,0-6.71A6.22,6.22,0,0,1,211.79,19a7.27,7.27,0,0,1,3.5-.84,7.41,7.41,0,0,1,3,.57,6,6,0,0,1,2.23,1.66l-1.88,1.73a4,4,0,0,0-3.16-1.48,4.13,4.13,0,0,0-2.09.52,3.64,3.64,0,0,0-1.43,1.43,4.44,4.44,0,0,0,0,4.17,3.64,3.64,0,0,0,1.43,1.43,4.13,4.13,0,0,0,2.09.52,4,4,0,0,0,3.16-1.5L220.48,29a5.82,5.82,0,0,1-2.24,1.67,7.75,7.75,0,0,1-6.45-.26Z"/><path class="cls-3" d="M223.76,30.5a4.84,4.84,0,0,1-1.9-1.77,5,5,0,0,1-.68-2.58,4.91,4.91,0,0,1,.68-2.57,4.7,4.7,0,0,1,1.9-1.77,5.78,5.78,0,0,1,2.75-.64,5.67,5.67,0,0,1,2.73.64,4.61,4.61,0,0,1,1.89,1.77,4.82,4.82,0,0,1,.69,2.57,4.88,4.88,0,0,1-.69,2.58,4.75,4.75,0,0,1-1.89,1.77,5.67,5.67,0,0,1-2.73.64A5.78,5.78,0,0,1,223.76,30.5Zm4.52-2.39a2.74,2.74,0,0,0,.69-2,2.73,2.73,0,0,0-.69-1.95,2.32,2.32,0,0,0-1.77-.73,2.37,2.37,0,0,0-1.79.73,3.08,3.08,0,0,0,0,3.91,2.4,2.4,0,0,0,1.79.72A2.34,2.34,0,0,0,228.28,28.11Z"/><path class="cls-3" d="M249,22.24a4.36,4.36,0,0,1,1.07,3.21V31h-2.81V25.88a2.63,2.63,0,0,0-.48-1.72,1.68,1.68,0,0,0-1.35-.56,2,2,0,0,0-1.57.64,2.74,2.74,0,0,0-.58,1.89V31h-2.8V25.88c0-1.52-.62-2.28-1.84-2.28a2,2,0,0,0-1.55.64,2.74,2.74,0,0,0-.57,1.89V31h-2.81V21.31h2.68v1.12a3.58,3.58,0,0,1,1.32-.94,4.43,4.43,0,0,1,1.72-.32,4.19,4.19,0,0,1,1.86.4,3.36,3.36,0,0,1,1.33,1.18,4,4,0,0,1,1.5-1.17,4.7,4.7,0,0,1,2-.41A3.89,3.89,0,0,1,249,22.24Z"/><path class="cls-3" d="M267.86,22.24a4.36,4.36,0,0,1,1.07,3.21V31h-2.81V25.88a2.63,2.63,0,0,0-.47-1.72,1.7,1.7,0,0,0-1.36-.56,2,2,0,0,0-1.57.64,2.74,2.74,0,0,0-.57,1.89V31h-2.81V25.88c0-1.52-.61-2.28-1.84-2.28a2,2,0,0,0-1.55.64,2.74,2.74,0,0,0-.57,1.89V31h-2.81V21.31h2.68v1.12a3.58,3.58,0,0,1,1.32-.94,4.43,4.43,0,0,1,1.72-.32,4.16,4.16,0,0,1,1.86.4,3.36,3.36,0,0,1,1.33,1.18,4.12,4.12,0,0,1,1.5-1.17,4.7,4.7,0,0,1,2-.41A3.88,3.88,0,0,1,267.86,22.24Z"/><path class="cls-3" d="M281.21,21.31V31h-2.67V29.84a3.78,3.78,0,0,1-1.33,1,4.61,4.61,0,0,1-4.7-.77,4.39,4.39,0,0,1-1.11-3.26V21.31h2.81v5.06c0,1.56.65,2.34,2,2.34a2.11,2.11,0,0,0,1.62-.66,2.76,2.76,0,0,0,.61-1.95V21.31Z"/><path class="cls-3" d="M292.61,22.25a4.28,4.28,0,0,1,1.11,3.2V31h-2.81V25.88a2.52,2.52,0,0,0-.51-1.72A1.85,1.85,0,0,0,289,23.6a2.25,2.25,0,0,0-1.69.65,2.73,2.73,0,0,0-.63,2V31h-2.81V21.31h2.68v1.14a3.63,3.63,0,0,1,1.39-.95,4.82,4.82,0,0,1,1.81-.33A4,4,0,0,1,292.61,22.25Z"/><path class="cls-3" d="M296.4,19.51a1.51,1.51,0,0,1,0-2.23,1.77,1.77,0,0,1,1.26-.45,1.8,1.8,0,0,1,1.26.43,1.4,1.4,0,0,1,.48,1.08,1.52,1.52,0,0,1-.48,1.16,1.73,1.73,0,0,1-1.26.46A1.77,1.77,0,0,1,296.4,19.51Zm-.14,1.8h2.8V31h-2.8Z"/><path class="cls-3" d="M307.92,30.53a3.19,3.19,0,0,1-1,.46,5.2,5.2,0,0,1-1.27.15,3.8,3.8,0,0,1-2.67-.88,3.39,3.39,0,0,1-.94-2.59v-4h-1.5V21.53H302V19.17h2.8v2.36h2.41v2.16h-2.41v3.94a1.3,1.3,0,0,0,.32.94,1.13,1.13,0,0,0,.89.34,1.8,1.8,0,0,0,1.13-.36Z"/><path class="cls-3" d="M318.94,21.31l-4.38,10.28A5,5,0,0,1,312.91,34a4.05,4.05,0,0,1-2.36.68,5.15,5.15,0,0,1-1.5-.23,3.43,3.43,0,0,1-1.2-.65l1-2a2.58,2.58,0,0,0,.75.45,2.28,2.28,0,0,0,.84.16,1.45,1.45,0,0,0,.93-.28,2.29,2.29,0,0,0,.65-.92l0-.09-4.2-9.76h2.9l2.72,6.57,2.73-6.57Z"/><path class="cls-3" d="M333.41,31,331,27.49H328.3V31h-2.92V18.39h5.45a7,7,0,0,1,2.91.56,4.17,4.17,0,0,1,2.56,4,4.29,4.29,0,0,1-.67,2.42A4.33,4.33,0,0,1,333.71,27L336.54,31Zm-.74-9.66a3.06,3.06,0,0,0-2-.57H328.3v4.39h2.37a3.06,3.06,0,0,0,2-.57,2,2,0,0,0,.68-1.62A2,2,0,0,0,332.67,21.34Z"/><path class="cls-3" d="M347.84,27h-7.32a2.3,2.3,0,0,0,.93,1.42,3.17,3.17,0,0,0,1.84.52,3.73,3.73,0,0,0,1.34-.23,3.2,3.2,0,0,0,1.09-.71l1.49,1.62a5,5,0,0,1-4,1.57,6.26,6.26,0,0,1-2.9-.64,4.79,4.79,0,0,1-1.95-1.77,5.2,5.2,0,0,1,0-5.14,4.66,4.66,0,0,1,1.85-1.78,5.74,5.74,0,0,1,5.21,0,4.48,4.48,0,0,1,1.81,1.75,5.25,5.25,0,0,1,.66,2.66S347.88,26.48,347.84,27Zm-6.57-3.12a2.32,2.32,0,0,0-.79,1.48h4.77a2.3,2.3,0,0,0-2.38-2A2.42,2.42,0,0,0,341.27,23.83Z"/><path class="cls-3" d="M350.67,30.84a6.26,6.26,0,0,1-1.84-.75l.94-2a5.6,5.6,0,0,0,1.56.67,6.44,6.44,0,0,0,1.81.26c1.18,0,1.78-.29,1.78-.88a.63.63,0,0,0-.49-.59,7.48,7.48,0,0,0-1.49-.31,15.48,15.48,0,0,1-2-.41,3.09,3.09,0,0,1-1.34-.83,2.39,2.39,0,0,1-.56-1.69,2.61,2.61,0,0,1,.53-1.63,3.49,3.49,0,0,1,1.54-1.11,6.73,6.73,0,0,1,2.41-.39,9.44,9.44,0,0,1,2,.22,5.74,5.74,0,0,1,1.68.62l-.93,2a5.58,5.58,0,0,0-2.79-.72,2.94,2.94,0,0,0-1.35.25.75.75,0,0,0-.45.65.64.64,0,0,0,.48.63,8.94,8.94,0,0,0,1.55.34,16.5,16.5,0,0,1,2,.43,2.89,2.89,0,0,1,1.31.82,2.3,2.3,0,0,1,.56,1.65,2.54,2.54,0,0,1-.54,1.6,3.47,3.47,0,0,1-1.58,1.09,7,7,0,0,1-2.45.39A9.31,9.31,0,0,1,350.67,30.84Z"/><path class="cls-3" d="M359.47,19.51a1.51,1.51,0,0,1,0-2.23,2,2,0,0,1,2.52,0,1.41,1.41,0,0,1,.49,1.08A1.53,1.53,0,0,1,362,19.5a1.73,1.73,0,0,1-1.26.46A1.8,1.8,0,0,1,359.47,19.51Zm-.14,1.8h2.81V31h-2.81Z"/><path class="cls-3" d="M364.74,17.64h2.81V31h-2.81Z"/><path class="cls-3" d="M370.31,19.51a1.51,1.51,0,0,1,0-2.23,1.77,1.77,0,0,1,1.26-.45,1.84,1.84,0,0,1,1.26.43,1.4,1.4,0,0,1,.48,1.08,1.52,1.52,0,0,1-.48,1.16,2,2,0,0,1-2.52,0Zm-.15,1.8H373V31h-2.81Z"/><path class="cls-3" d="M385,27h-7.32a2.3,2.3,0,0,0,.93,1.42,3.17,3.17,0,0,0,1.84.52,3.73,3.73,0,0,0,1.34-.23,3.2,3.2,0,0,0,1.09-.71l1.49,1.62a5,5,0,0,1-4,1.57,6.26,6.26,0,0,1-2.9-.64,4.79,4.79,0,0,1-1.95-1.77,5,5,0,0,1-.68-2.58,4.86,4.86,0,0,1,.68-2.56,4.6,4.6,0,0,1,1.85-1.78,5.74,5.74,0,0,1,5.21,0,4.48,4.48,0,0,1,1.81,1.75,5.25,5.25,0,0,1,.66,2.66S385.05,26.48,385,27Zm-6.57-3.12a2.32,2.32,0,0,0-.79,1.48h4.77a2.3,2.3,0,0,0-2.38-2A2.42,2.42,0,0,0,378.44,23.83Z"/><path class="cls-3" d="M395.73,22.25a4.28,4.28,0,0,1,1.11,3.2V31H394V25.88a2.58,2.58,0,0,0-.5-1.72,1.89,1.89,0,0,0-1.46-.56,2.25,2.25,0,0,0-1.69.65,2.73,2.73,0,0,0-.63,2V31h-2.81V21.31h2.68v1.14A3.63,3.63,0,0,1,391,21.5a4.82,4.82,0,0,1,1.81-.33A4,4,0,0,1,395.73,22.25Z"/><path class="cls-3" d="M401.38,30.5a4.77,4.77,0,0,1-2.62-4.35,4.74,4.74,0,0,1,.7-2.57,4.69,4.69,0,0,1,1.92-1.77,5.9,5.9,0,0,1,2.78-.64,5.39,5.39,0,0,1,2.68.64,3.77,3.77,0,0,1,1.66,1.82l-2.18,1.17a2.39,2.39,0,0,0-2.17-1.33,2.46,2.46,0,0,0-1.82.72,2.66,2.66,0,0,0-.72,2,2.68,2.68,0,0,0,.72,2,2.49,2.49,0,0,0,1.82.71,2.34,2.34,0,0,0,2.17-1.33l2.18,1.19a3.86,3.86,0,0,1-1.66,1.8,5.4,5.4,0,0,1-2.68.65A5.9,5.9,0,0,1,401.38,30.5Z"/><path class="cls-3" d="M419.43,27H412.1a2.32,2.32,0,0,0,.94,1.42,3.14,3.14,0,0,0,1.83.52,3.78,3.78,0,0,0,1.35-.23A3.16,3.16,0,0,0,417.3,28l1.5,1.62a5,5,0,0,1-4,1.57,6.29,6.29,0,0,1-2.9-.64A4.76,4.76,0,0,1,410,28.73a4.88,4.88,0,0,1-.68-2.58,4.94,4.94,0,0,1,.67-2.56,4.73,4.73,0,0,1,1.85-1.78,5.76,5.76,0,0,1,5.22,0,4.46,4.46,0,0,1,1.8,1.75,5.25,5.25,0,0,1,.66,2.66S419.46,26.48,419.43,27Zm-6.57-3.12a2.27,2.27,0,0,0-.79,1.48h4.77a2.32,2.32,0,0,0-2.38-2A2.4,2.4,0,0,0,412.86,23.83Z"/><path class="cls-3" d="M131.32,43.84a4.07,4.07,0,0,1,1.21,3.23v5.52H129.9v-1.2a3.13,3.13,0,0,1-3,1.35,4.66,4.66,0,0,1-1.94-.38,2.94,2.94,0,0,1-1.25-1,2.73,2.73,0,0,1-.43-1.52,2.53,2.53,0,0,1,1-2.12,5.22,5.22,0,0,1,3.14-.77h2.23a1.8,1.8,0,0,0-.56-1.42,2.45,2.45,0,0,0-1.67-.49,4.93,4.93,0,0,0-1.52.24,3.91,3.91,0,0,0-1.27.66l-1-2a6.28,6.28,0,0,1,1.9-.87,8.7,8.7,0,0,1,2.28-.3A5,5,0,0,1,131.32,43.84Zm-2.39,6.68a1.88,1.88,0,0,0,.79-1v-1H127.8c-1.16,0-1.73.38-1.73,1.14a1,1,0,0,0,.42.85,1.9,1.9,0,0,0,1.16.32A2.46,2.46,0,0,0,128.93,50.52Z"/><path class="cls-3" d="M143.86,43.85a4.26,4.26,0,0,1,1.11,3.2v5.54h-2.81V47.48a2.51,2.51,0,0,0-.51-1.72,1.85,1.85,0,0,0-1.45-.56,2.28,2.28,0,0,0-1.7.65,2.73,2.73,0,0,0-.62,2v4.78h-2.81V42.91h2.68V44a3.72,3.72,0,0,1,1.39-.94,4.82,4.82,0,0,1,1.81-.33A4,4,0,0,1,143.86,43.85Z"/><path class="cls-3" d="M157.48,39.24V52.59H154.8V51.48a3.72,3.72,0,0,1-3,1.26,5,5,0,0,1-2.47-.61,4.37,4.37,0,0,1-1.74-1.75,5.8,5.8,0,0,1,0-5.26,4.41,4.41,0,0,1,1.74-1.74,5,5,0,0,1,2.47-.61,3.69,3.69,0,0,1,2.9,1.17v-4.7ZM154,49.71a3.08,3.08,0,0,0,0-3.91,2.32,2.32,0,0,0-1.76-.73,2.37,2.37,0,0,0-1.79.73,3.08,3.08,0,0,0,0,3.91,2.4,2.4,0,0,0,1.79.72A2.35,2.35,0,0,0,154,49.71Z"/><path class="cls-3" d="M175.12,50.25v2.34h-9.76V40h9.52v2.33h-6.62v2.74h5.85v2.27h-5.85v2.91Z"/><path class="cls-3" d="M186,43.85a4.26,4.26,0,0,1,1.11,3.2v5.54h-2.81V47.48a2.56,2.56,0,0,0-.5-1.72,1.88,1.88,0,0,0-1.46-.56,2.25,2.25,0,0,0-1.69.65,2.73,2.73,0,0,0-.63,2v4.78h-2.81V42.91h2.68V44a3.8,3.8,0,0,1,1.39-.94,4.87,4.87,0,0,1,1.82-.33A4,4,0,0,1,186,43.85Z"/><path class="cls-3" d="M190.58,52.44a6.27,6.27,0,0,1-1.84-.74l.94-2a5.6,5.6,0,0,0,1.56.67,6.45,6.45,0,0,0,1.8.27c1.19,0,1.79-.3,1.79-.89a.63.63,0,0,0-.49-.59,7.48,7.48,0,0,0-1.49-.31,13.91,13.91,0,0,1-2-.41,3.09,3.09,0,0,1-1.34-.83A2.33,2.33,0,0,1,189,45.9a2.61,2.61,0,0,1,.53-1.63,3.49,3.49,0,0,1,1.54-1.11,6.73,6.73,0,0,1,2.41-.39,9.44,9.44,0,0,1,2,.22,5.74,5.74,0,0,1,1.68.62l-.93,2a5.6,5.6,0,0,0-2.79-.72,2.82,2.82,0,0,0-1.35.25.75.75,0,0,0-.45.65.64.64,0,0,0,.48.63,8.08,8.08,0,0,0,1.55.34,18.79,18.79,0,0,1,1.95.43A3,3,0,0,1,197,48a2.35,2.35,0,0,1,.56,1.66,2.56,2.56,0,0,1-.54,1.6,3.47,3.47,0,0,1-1.58,1.09,7,7,0,0,1-2.45.39A9.31,9.31,0,0,1,190.58,52.44Z"/><path class="cls-3" d="M209,42.91v9.68h-2.66V51.44a3.87,3.87,0,0,1-1.33,1,4.27,4.27,0,0,1-1.68.33,4.12,4.12,0,0,1-3-1.1,4.36,4.36,0,0,1-1.12-3.26V42.91H202V48c0,1.56.65,2.34,2,2.34a2.11,2.11,0,0,0,1.62-.66,2.76,2.76,0,0,0,.61-1.95V42.91Z"/><path class="cls-3" d="M215.64,43.13a5.05,5.05,0,0,1,2-.36v2.59c-.31,0-.52,0-.63,0a2.59,2.59,0,0,0-1.89.68,2.74,2.74,0,0,0-.68,2v4.57H211.6V42.91h2.68v1.28A3.13,3.13,0,0,1,215.64,43.13Z"/><path class="cls-3" d="M219.43,41.11a1.54,1.54,0,0,1,0-2.23,2,2,0,0,1,2.52,0,1.38,1.38,0,0,1,.49,1.08A1.5,1.5,0,0,1,222,41.1a1.73,1.73,0,0,1-1.26.46A1.8,1.8,0,0,1,219.43,41.11Zm-.14,1.8h2.81v9.68h-2.81Z"/><path class="cls-3" d="M233.5,43.85a4.26,4.26,0,0,1,1.11,3.2v5.54H231.8V47.48a2.51,2.51,0,0,0-.51-1.72,1.85,1.85,0,0,0-1.45-.56,2.28,2.28,0,0,0-1.7.65,2.73,2.73,0,0,0-.63,2v4.78h-2.8V42.91h2.68V44a3.76,3.76,0,0,1,1.38-.94,4.91,4.91,0,0,1,1.82-.33A4,4,0,0,1,233.5,43.85Z"/><path class="cls-3" d="M247.24,42.91V51a5.18,5.18,0,0,1-1.38,4,5.73,5.73,0,0,1-4.06,1.3,10,10,0,0,1-2.66-.34,6,6,0,0,1-2.09-1l1.12-2a4.36,4.36,0,0,0,1.55.8,6.09,6.09,0,0,0,1.87.3,3,3,0,0,0,2.15-.66,2.61,2.61,0,0,0,.69-2v-.41a3.94,3.94,0,0,1-3.06,1.21,5.15,5.15,0,0,1-2.44-.59,4.48,4.48,0,0,1-1.75-1.65,4.92,4.92,0,0,1,0-4.89,4.48,4.48,0,0,1,1.75-1.65,5.14,5.14,0,0,1,2.44-.58,3.85,3.85,0,0,1,3.21,1.38V42.91Zm-3.48,6.26a2.44,2.44,0,0,0,0-3.44,2.87,2.87,0,0,0-3.66,0,2.41,2.41,0,0,0,0,3.44,2.9,2.9,0,0,0,3.66,0Z"/><path class="cls-3" d="M262.31,43.84a4.1,4.1,0,0,1,1.2,3.23v5.52h-2.62v-1.2a3.15,3.15,0,0,1-3,1.35,4.58,4.58,0,0,1-1.93-.38,2.88,2.88,0,0,1-1.25-1,2.73,2.73,0,0,1-.44-1.52,2.53,2.53,0,0,1,1-2.12,5.24,5.24,0,0,1,3.14-.77h2.24a1.8,1.8,0,0,0-.56-1.42,2.46,2.46,0,0,0-1.68-.49,5,5,0,0,0-1.52.24,3.91,3.91,0,0,0-1.27.66l-1-2a6.22,6.22,0,0,1,1.89-.87,8.7,8.7,0,0,1,2.28-.3A5,5,0,0,1,262.31,43.84Zm-2.4,6.68a1.85,1.85,0,0,0,.8-1v-1h-1.93c-1.15,0-1.73.38-1.73,1.14a1,1,0,0,0,.42.85,1.93,1.93,0,0,0,1.17.32A2.43,2.43,0,0,0,259.91,50.52Z"/><path class="cls-3" d="M279.86,46.1h2.66v5.11a7.7,7.7,0,0,1-2.38,1.19,9.38,9.38,0,0,1-2.71.41A7.34,7.34,0,0,1,273.9,52a6.18,6.18,0,0,1-2.46-2.32,6.77,6.77,0,0,1,0-6.71,6.17,6.17,0,0,1,2.48-2.32,7.46,7.46,0,0,1,3.56-.84,7.69,7.69,0,0,1,3,.56A5.87,5.87,0,0,1,282.75,42l-1.87,1.72a4.34,4.34,0,0,0-3.25-1.42,4.44,4.44,0,0,0-2.15.51A3.63,3.63,0,0,0,274,44.19a4.48,4.48,0,0,0,0,4.19,3.69,3.69,0,0,0,1.45,1.43,4.24,4.24,0,0,0,2.12.52,4.76,4.76,0,0,0,2.27-.54Z"/><path class="cls-3" d="M294.46,48.54h-7.33a2.27,2.27,0,0,0,.93,1.43,3.12,3.12,0,0,0,1.84.52,3.73,3.73,0,0,0,1.34-.23,3.2,3.2,0,0,0,1.09-.71l1.49,1.62a5,5,0,0,1-4,1.57,6.29,6.29,0,0,1-2.9-.64A4.7,4.7,0,0,1,285,50.33a5.16,5.16,0,0,1,0-5.14,4.73,4.73,0,0,1,1.85-1.78,5.43,5.43,0,0,1,2.64-.64,5.36,5.36,0,0,1,2.57.61,4.48,4.48,0,0,1,1.81,1.75,5.25,5.25,0,0,1,.66,2.66S294.49,48.08,294.46,48.54Zm-6.57-3.11a2.28,2.28,0,0,0-.8,1.48h4.77a2.3,2.3,0,0,0-.79-1.47,2.34,2.34,0,0,0-1.58-.55A2.4,2.4,0,0,0,287.89,45.43Z"/><path class="cls-3" d="M305.17,43.85a4.26,4.26,0,0,1,1.11,3.2v5.54h-2.81V47.48a2.56,2.56,0,0,0-.5-1.72,1.88,1.88,0,0,0-1.46-.56,2.25,2.25,0,0,0-1.69.65,2.73,2.73,0,0,0-.63,2v4.78h-2.81V42.91h2.68V44a3.8,3.8,0,0,1,1.39-.94,4.87,4.87,0,0,1,1.82-.33A4,4,0,0,1,305.17,43.85Z"/><path class="cls-3" d="M318.79,39.24V52.59h-2.68V51.48a3.72,3.72,0,0,1-3,1.26,5,5,0,0,1-2.47-.61,4.37,4.37,0,0,1-1.74-1.75,5.8,5.8,0,0,1,0-5.26,4.41,4.41,0,0,1,1.74-1.74,5,5,0,0,1,2.47-.61,3.67,3.67,0,0,1,2.9,1.17v-4.7Zm-3.46,10.47a3,3,0,0,0,0-3.91,2.31,2.31,0,0,0-1.76-.73,2.35,2.35,0,0,0-1.78.73,3.08,3.08,0,0,0,0,3.91,2.38,2.38,0,0,0,1.78.72A2.34,2.34,0,0,0,315.33,49.71Z"/><path class="cls-3" d="M330.81,48.54h-7.32a2.27,2.27,0,0,0,.93,1.43,3.12,3.12,0,0,0,1.84.52,3.73,3.73,0,0,0,1.34-.23,3.2,3.2,0,0,0,1.09-.71l1.49,1.62a5,5,0,0,1-4,1.57,6.29,6.29,0,0,1-2.9-.64,4.7,4.7,0,0,1-1.94-1.77,5.16,5.16,0,0,1,0-5.14,4.66,4.66,0,0,1,1.85-1.78,5.43,5.43,0,0,1,2.64-.64,5.36,5.36,0,0,1,2.57.61,4.48,4.48,0,0,1,1.81,1.75,5.25,5.25,0,0,1,.66,2.66S330.85,48.08,330.81,48.54Zm-6.57-3.11a2.32,2.32,0,0,0-.79,1.48h4.77a2.3,2.3,0,0,0-.79-1.47,2.34,2.34,0,0,0-1.58-.55A2.45,2.45,0,0,0,324.24,45.43Z"/><path class="cls-3" d="M336.78,43.13a5.05,5.05,0,0,1,2-.36v2.59c-.31,0-.52,0-.63,0a2.59,2.59,0,0,0-1.89.68,2.74,2.74,0,0,0-.68,2v4.57h-2.81V42.91h2.68v1.28A3.13,3.13,0,0,1,336.78,43.13Z"/><path class="cls-3" d="M353.82,52.59l-2.43-3.51h-2.68v3.51h-2.92V40h5.45a7,7,0,0,1,2.91.55,4.27,4.27,0,0,1,1.9,1.59,4.38,4.38,0,0,1,.67,2.43A4.29,4.29,0,0,1,356,47a4.25,4.25,0,0,1-1.92,1.55L357,52.59Zm-.74-9.65a3.06,3.06,0,0,0-2-.57h-2.37v4.39h2.37a3.06,3.06,0,0,0,2-.57,2.28,2.28,0,0,0,0-3.25Z"/><path class="cls-3" d="M368.25,48.54h-7.32a2.27,2.27,0,0,0,.93,1.43,3.12,3.12,0,0,0,1.84.52,3.73,3.73,0,0,0,1.34-.23,3.2,3.2,0,0,0,1.09-.71l1.49,1.62a5,5,0,0,1-4,1.57,6.29,6.29,0,0,1-2.9-.64,4.7,4.7,0,0,1-1.94-1.77,5.16,5.16,0,0,1,0-5.14,4.66,4.66,0,0,1,1.85-1.78,5.43,5.43,0,0,1,2.64-.64,5.36,5.36,0,0,1,2.57.61,4.48,4.48,0,0,1,1.81,1.75,5.25,5.25,0,0,1,.66,2.66S368.29,48.08,368.25,48.54Zm-6.57-3.11a2.32,2.32,0,0,0-.79,1.48h4.77a2.3,2.3,0,0,0-.79-1.47,2.34,2.34,0,0,0-1.58-.55A2.45,2.45,0,0,0,361.68,45.43Z"/><path class="cls-3" d="M371.08,52.44a6.27,6.27,0,0,1-1.84-.74l.94-2a5.54,5.54,0,0,0,1.57.67,6.34,6.34,0,0,0,1.8.27c1.18,0,1.78-.3,1.78-.89a.62.62,0,0,0-.49-.59,7.48,7.48,0,0,0-1.49-.31,13.44,13.44,0,0,1-2-.41,3,3,0,0,1-1.34-.83,2.34,2.34,0,0,1-.57-1.69,2.61,2.61,0,0,1,.53-1.63,3.47,3.47,0,0,1,1.55-1.11,6.67,6.67,0,0,1,2.4-.39,9.44,9.44,0,0,1,2,.22,5.92,5.92,0,0,1,1.69.62l-.94,2a5.58,5.58,0,0,0-2.79-.72,2.82,2.82,0,0,0-1.35.25.75.75,0,0,0-.45.65.64.64,0,0,0,.49.63,7.94,7.94,0,0,0,1.54.34,18.21,18.21,0,0,1,1.95.43,3,3,0,0,1,1.31.81,2.35,2.35,0,0,1,.56,1.66,2.56,2.56,0,0,1-.54,1.6,3.47,3.47,0,0,1-1.58,1.09,6.92,6.92,0,0,1-2.45.39A9.31,9.31,0,0,1,371.08,52.44Z"/><path class="cls-3" d="M387.92,43.39a4.39,4.39,0,0,1,1.73,1.74,5.68,5.68,0,0,1,0,5.24,4.48,4.48,0,0,1-1.73,1.75,5,5,0,0,1-2.46.62,3.71,3.71,0,0,1-2.91-1.17v4.52h-2.81V42.91h2.68V44a3.73,3.73,0,0,1,3-1.26A4.89,4.89,0,0,1,387.92,43.39Zm-1.17,6.32a3.11,3.11,0,0,0,0-3.91,2.52,2.52,0,0,0-3.55,0,3.11,3.11,0,0,0,0,3.91,2.55,2.55,0,0,0,3.55,0Z"/><path class="cls-3" d="M394,52.1a5,5,0,0,1-1.9-6.92,4.7,4.7,0,0,1,1.9-1.77,6.19,6.19,0,0,1,5.48,0,4.74,4.74,0,0,1,1.89,1.77,4.82,4.82,0,0,1,.68,2.57,4.75,4.75,0,0,1-2.57,4.35,6.19,6.19,0,0,1-5.48,0Zm4.52-2.39a3.11,3.11,0,0,0,0-3.91,2.34,2.34,0,0,0-1.78-.73,2.37,2.37,0,0,0-1.78.73,3.08,3.08,0,0,0,0,3.91,2.4,2.4,0,0,0,1.78.72A2.37,2.37,0,0,0,398.54,49.71Z"/><path class="cls-3" d="M412.74,43.85a4.26,4.26,0,0,1,1.11,3.2v5.54H411V47.48a2.56,2.56,0,0,0-.5-1.72,1.89,1.89,0,0,0-1.46-.56,2.24,2.24,0,0,0-1.69.65,2.73,2.73,0,0,0-.63,2v4.78H404V42.91h2.68V44A3.76,3.76,0,0,1,408,43.1a4.91,4.91,0,0,1,1.82-.33A4,4,0,0,1,412.74,43.85Z"/><path class="cls-3" d="M417.29,52.44a6.16,6.16,0,0,1-1.84-.74l.94-2a5.6,5.6,0,0,0,1.56.67,6.34,6.34,0,0,0,1.8.27c1.19,0,1.78-.3,1.78-.89a.62.62,0,0,0-.48-.59,7.78,7.78,0,0,0-1.5-.31,14,14,0,0,1-2-.41,3,3,0,0,1-1.34-.83,2.34,2.34,0,0,1-.57-1.69,2.67,2.67,0,0,1,.53-1.63,3.53,3.53,0,0,1,1.55-1.11,6.73,6.73,0,0,1,2.41-.39,9.44,9.44,0,0,1,2,.22,5.74,5.74,0,0,1,1.68.62l-.93,2a5.63,5.63,0,0,0-2.79-.72,2.86,2.86,0,0,0-1.36.25.74.74,0,0,0-.44.65.64.64,0,0,0,.48.63,8.08,8.08,0,0,0,1.55.34,18,18,0,0,1,1.94.43,2.93,2.93,0,0,1,1.32.81,2.35,2.35,0,0,1,.56,1.66,2.56,2.56,0,0,1-.54,1.6,3.52,3.52,0,0,1-1.58,1.09,7,7,0,0,1-2.46.39A9.23,9.23,0,0,1,417.29,52.44Z"/><path class="cls-3" d="M426.09,41.11a1.51,1.51,0,0,1,0-2.23,1.77,1.77,0,0,1,1.26-.45,1.84,1.84,0,0,1,1.26.43,1.4,1.4,0,0,1,.48,1.08,1.52,1.52,0,0,1-.48,1.16,2,2,0,0,1-2.52,0Zm-.15,1.8h2.81v9.68h-2.81Z"/><path class="cls-3" d="M441,42.91l-4.08,9.68H434l-4.07-9.68h2.9l2.68,6.59,2.77-6.59Z"/><path class="cls-3" d="M451.29,48.54H444A2.24,2.24,0,0,0,444.9,50a3.07,3.07,0,0,0,1.83.52,3.69,3.69,0,0,0,1.34-.23,3.1,3.1,0,0,0,1.09-.71l1.5,1.62a5,5,0,0,1-4,1.57,6.29,6.29,0,0,1-2.9-.64,4.7,4.7,0,0,1-1.94-1.77,5.23,5.23,0,0,1,0-5.14,4.73,4.73,0,0,1,1.85-1.78,5.76,5.76,0,0,1,5.22,0,4.46,4.46,0,0,1,1.8,1.75,5.25,5.25,0,0,1,.66,2.66S451.32,48.08,451.29,48.54Zm-6.57-3.11a2.27,2.27,0,0,0-.79,1.48h4.77a2.32,2.32,0,0,0-2.38-2A2.4,2.4,0,0,0,444.72,45.43Z"/><path class="cls-3" d="M132.46,71.5h-5.85l-1.12,2.7h-3l5.62-12.61H131l5.63,12.61h-3.06Zm-.92-2.22-2-4.82-2,4.82Z"/><path class="cls-3" d="M145.93,65a4.41,4.41,0,0,1,1.74,1.74,5.76,5.76,0,0,1,0,5.24,4.5,4.5,0,0,1-1.74,1.75,5,5,0,0,1-2.46.62,3.72,3.72,0,0,1-2.91-1.17v4.52h-2.81V64.51h2.68v1.12a3.73,3.73,0,0,1,3-1.26A4.89,4.89,0,0,1,145.93,65Zm-1.17,6.32a3.11,3.11,0,0,0,0-3.91,2.32,2.32,0,0,0-1.77-.73,2.35,2.35,0,0,0-1.78.73,3.11,3.11,0,0,0,0,3.91A2.39,2.39,0,0,0,143,72,2.35,2.35,0,0,0,144.76,71.31Z"/><path class="cls-3" d="M158.35,65a4.41,4.41,0,0,1,1.74,1.74,5.76,5.76,0,0,1,0,5.24,4.5,4.5,0,0,1-1.74,1.75,5,5,0,0,1-2.46.62A3.72,3.72,0,0,1,153,73.17v4.52h-2.81V64.51h2.68v1.12a3.73,3.73,0,0,1,3-1.26A4.89,4.89,0,0,1,158.35,65Zm-1.17,6.32a3.11,3.11,0,0,0,0-3.91,2.52,2.52,0,0,0-3.55,0,3.11,3.11,0,0,0,0,3.91,2.52,2.52,0,0,0,3.55,0Z"/><path class="cls-3" d="M166.63,64.73a5.05,5.05,0,0,1,2-.36V67l-.63,0a2.59,2.59,0,0,0-1.89.68,2.7,2.7,0,0,0-.68,2V74.2h-2.81V64.51h2.68v1.28A3.13,3.13,0,0,1,166.63,64.73Z"/><path class="cls-3" d="M172.05,73.7a4.78,4.78,0,0,1-1.9-1.77,5.22,5.22,0,0,1,0-5.15,4.64,4.64,0,0,1,1.9-1.77,6.19,6.19,0,0,1,5.48,0,4.74,4.74,0,0,1,1.89,1.77,5.22,5.22,0,0,1,0,5.15,4.88,4.88,0,0,1-1.89,1.77,6.19,6.19,0,0,1-5.48,0Zm4.51-2.39a3.08,3.08,0,0,0,0-3.91,2.32,2.32,0,0,0-1.77-.73,2.35,2.35,0,0,0-1.78.73,3.08,3.08,0,0,0,0,3.91,2.39,2.39,0,0,0,1.78.73A2.35,2.35,0,0,0,176.56,71.31Z"/><path class="cls-3" d="M189.18,65.44a4.1,4.1,0,0,1,1.2,3.23V74.2h-2.63V73a3.13,3.13,0,0,1-2.95,1.35,4.58,4.58,0,0,1-1.93-.38,2.82,2.82,0,0,1-1.25-1,2.72,2.72,0,0,1-.44-1.51,2.52,2.52,0,0,1,1-2.13,5.22,5.22,0,0,1,3.14-.77h2.23a1.78,1.78,0,0,0-.56-1.42,2.45,2.45,0,0,0-1.67-.49,4.93,4.93,0,0,0-1.52.24,3.91,3.91,0,0,0-1.27.66l-1-2a6.28,6.28,0,0,1,1.9-.87,8.7,8.7,0,0,1,2.28-.3A5,5,0,0,1,189.18,65.44Zm-2.4,6.68a1.82,1.82,0,0,0,.79-1v-1h-1.92c-1.16,0-1.73.37-1.73,1.13a1,1,0,0,0,.42.85,1.9,1.9,0,0,0,1.16.32A2.46,2.46,0,0,0,186.78,72.12Z"/><path class="cls-3" d="M194.93,73.7A4.79,4.79,0,0,1,193,71.93a5.15,5.15,0,0,1,0-5.15A4.66,4.66,0,0,1,194.93,65a5.87,5.87,0,0,1,2.78-.64,5.33,5.33,0,0,1,2.67.64A3.72,3.72,0,0,1,202,66.83L199.87,68a2.4,2.4,0,0,0-2.18-1.33,2.47,2.47,0,0,0-1.82.72,3,3,0,0,0,0,3.93,2.51,2.51,0,0,0,1.82.72,2.37,2.37,0,0,0,2.18-1.34L202,71.89a3.81,3.81,0,0,1-1.66,1.8,5.33,5.33,0,0,1-2.67.65A5.87,5.87,0,0,1,194.93,73.7Z"/><path class="cls-3" d="M212.39,65.45a4.31,4.31,0,0,1,1.1,3.2V74.2h-2.81V69.08a2.52,2.52,0,0,0-.5-1.72,1.88,1.88,0,0,0-1.46-.56,2.25,2.25,0,0,0-1.69.65,2.73,2.73,0,0,0-.63,2V74.2h-2.81V60.84h2.81v4.68a3.77,3.77,0,0,1,1.35-.86,5.06,5.06,0,0,1,1.73-.29A4,4,0,0,1,212.39,65.45Z"/><path class="cls-3" d="M227.37,73.73a3.19,3.19,0,0,1-1,.46,5.2,5.2,0,0,1-1.27.15,3.8,3.8,0,0,1-2.67-.88,3.39,3.39,0,0,1-.94-2.59v-4H220V64.73h1.5V62.37h2.8v2.36h2.42v2.16h-2.42v3.94a1.3,1.3,0,0,0,.32.94,1.15,1.15,0,0,0,.89.34,1.8,1.8,0,0,0,1.13-.36Z"/><path class="cls-3" d="M230.51,73.7a4.84,4.84,0,0,1-1.9-1.77,5.22,5.22,0,0,1,0-5.15,4.7,4.7,0,0,1,1.9-1.77,5.78,5.78,0,0,1,2.75-.64A5.67,5.67,0,0,1,236,65a4.61,4.61,0,0,1,1.89,1.77,5.15,5.15,0,0,1,0,5.15A4.75,4.75,0,0,1,236,73.7a5.67,5.67,0,0,1-2.73.64A5.78,5.78,0,0,1,230.51,73.7ZM235,71.31a3.11,3.11,0,0,0,0-3.91,2.32,2.32,0,0,0-1.77-.73,2.37,2.37,0,0,0-1.79.73,3.08,3.08,0,0,0,0,3.91,2.41,2.41,0,0,0,1.79.73A2.35,2.35,0,0,0,235,71.31Z"/><path class="cls-3" d="M254.09,62.15a4.34,4.34,0,0,1,1.9,1.59,4.72,4.72,0,0,1,0,4.85,4.19,4.19,0,0,1-1.9,1.58,7,7,0,0,1-2.91.55h-2.53V74.2h-2.92V61.59h5.45A7,7,0,0,1,254.09,62.15ZM253,67.78a2.27,2.27,0,0,0,0-3.24,3.06,3.06,0,0,0-2-.57h-2.37v4.37H251A3.06,3.06,0,0,0,253,67.78Z"/><path class="cls-3" d="M262.57,64.73a5.05,5.05,0,0,1,2-.36V67l-.63,0a2.59,2.59,0,0,0-1.89.68,2.7,2.7,0,0,0-.68,2V74.2h-2.81V64.51h2.68v1.28A3.13,3.13,0,0,1,262.57,64.73Z"/><path class="cls-3" d="M275.56,70.15h-7.33a2.25,2.25,0,0,0,.94,1.42,3.07,3.07,0,0,0,1.83.52,3.69,3.69,0,0,0,1.34-.23,3.1,3.1,0,0,0,1.09-.71l1.5,1.62a5,5,0,0,1-4,1.57,6.29,6.29,0,0,1-2.9-.64,4.7,4.7,0,0,1-1.94-1.77,4.88,4.88,0,0,1-.69-2.58,5,5,0,0,1,.68-2.56A4.73,4.73,0,0,1,267.93,65a5.43,5.43,0,0,1,2.64-.64,5.33,5.33,0,0,1,2.57.61A4.48,4.48,0,0,1,275,66.73a5.25,5.25,0,0,1,.66,2.66S275.59,69.68,275.56,70.15ZM269,67a2.28,2.28,0,0,0-.8,1.48H273a2.3,2.3,0,0,0-2.37-2A2.4,2.4,0,0,0,269,67Z"/><path class="cls-3" d="M286.91,64.51l-4.08,9.69h-2.9l-4.07-9.69h2.9l2.68,6.59,2.77-6.59Z"/><path class="cls-3" d="M297.23,70.15H289.9a2.29,2.29,0,0,0,.94,1.42,3.07,3.07,0,0,0,1.83.52,3.65,3.65,0,0,0,1.34-.23,3.1,3.1,0,0,0,1.09-.71l1.5,1.62a5,5,0,0,1-4,1.57,6.29,6.29,0,0,1-2.9-.64,4.76,4.76,0,0,1-1.94-1.77,4.88,4.88,0,0,1-.68-2.58,4.94,4.94,0,0,1,.67-2.56A4.73,4.73,0,0,1,289.6,65a5.76,5.76,0,0,1,5.22,0,4.55,4.55,0,0,1,1.81,1.75,5.35,5.35,0,0,1,.65,2.66S297.26,69.68,297.23,70.15ZM290.66,67a2.27,2.27,0,0,0-.79,1.48h4.77a2.32,2.32,0,0,0-2.38-2A2.4,2.4,0,0,0,290.66,67Z"/><path class="cls-3" d="M308,65.45a4.31,4.31,0,0,1,1.1,3.2V74.2h-2.8V69.08a2.52,2.52,0,0,0-.51-1.72,1.86,1.86,0,0,0-1.46-.56,2.27,2.27,0,0,0-1.69.65,2.73,2.73,0,0,0-.63,2V74.2h-2.81V64.51h2.69v1.14a3.67,3.67,0,0,1,1.38-1,4.87,4.87,0,0,1,1.82-.33A4,4,0,0,1,308,65.45Z"/><path class="cls-3" d="M317.84,73.73a3.19,3.19,0,0,1-1,.46,5.2,5.2,0,0,1-1.27.15,3.8,3.8,0,0,1-2.67-.88,3.39,3.39,0,0,1-.95-2.59v-4h-1.49V64.73h1.49V62.37h2.81v2.36h2.41v2.16h-2.41v3.94a1.3,1.3,0,0,0,.32.94,1.13,1.13,0,0,0,.89.34,1.8,1.8,0,0,0,1.13-.36Z"/><path class="cls-3" d="M319.57,62.71a1.51,1.51,0,0,1,0-2.23,1.77,1.77,0,0,1,1.26-.45,1.84,1.84,0,0,1,1.26.43,1.4,1.4,0,0,1,.48,1.08,1.52,1.52,0,0,1-.48,1.16,2,2,0,0,1-2.52,0Zm-.15,1.8h2.81V74.2h-2.81Z"/><path class="cls-3" d="M333.63,65.45a4.28,4.28,0,0,1,1.11,3.2V74.2h-2.81V69.08a2.58,2.58,0,0,0-.5-1.72A1.88,1.88,0,0,0,330,66.8a2.25,2.25,0,0,0-1.69.65,2.73,2.73,0,0,0-.63,2V74.2h-2.81V64.51h2.68v1.14a3.7,3.7,0,0,1,1.39-1,4.87,4.87,0,0,1,1.82-.33A4,4,0,0,1,333.63,65.45Z"/><path class="cls-3" d="M347.38,64.51v8.07a5.21,5.21,0,0,1-1.39,4,5.74,5.74,0,0,1-4.05,1.29,10,10,0,0,1-2.66-.34,5.8,5.8,0,0,1-2.09-1l1.11-2a4.45,4.45,0,0,0,1.55.8,6.09,6.09,0,0,0,1.87.3,3,3,0,0,0,2.15-.66,2.57,2.57,0,0,0,.7-2v-.42a3.92,3.92,0,0,1-3.06,1.21,5.15,5.15,0,0,1-2.44-.59,4.48,4.48,0,0,1-1.76-1.64,5,5,0,0,1,0-4.9A4.44,4.44,0,0,1,339.07,65a5.14,5.14,0,0,1,2.44-.58,3.85,3.85,0,0,1,3.2,1.38V64.51Zm-3.49,6.26a2.44,2.44,0,0,0,0-3.44,2.57,2.57,0,0,0-1.83-.66,2.6,2.6,0,0,0-1.83.66,2.41,2.41,0,0,0,0,3.44,2.64,2.64,0,0,0,1.83.65A2.61,2.61,0,0,0,343.89,70.77Z"/><path class="cls-3" d="M367.39,61.59,361.94,74.2h-2.88l-5.44-12.61h3.15l3.83,9,3.89-9Z"/><path class="cls-3" d="M368.56,62.71a1.51,1.51,0,0,1,0-2.23,2,2,0,0,1,2.52,0,1.41,1.41,0,0,1,.49,1.08,1.53,1.53,0,0,1-.49,1.16,1.73,1.73,0,0,1-1.26.46A1.78,1.78,0,0,1,368.56,62.71Zm-.14,1.8h2.8V74.2h-2.8Z"/><path class="cls-3" d="M375.7,73.7a4.78,4.78,0,0,1-1.9-1.77,5.22,5.22,0,0,1,0-5.15A4.64,4.64,0,0,1,375.7,65a6.19,6.19,0,0,1,5.48,0,4.74,4.74,0,0,1,1.89,1.77,5.22,5.22,0,0,1,0,5.15,4.88,4.88,0,0,1-1.89,1.77,6.19,6.19,0,0,1-5.48,0Zm4.52-2.39a3.11,3.11,0,0,0,0-3.91,2.54,2.54,0,0,0-3.56,0,3.08,3.08,0,0,0,0,3.91,2.54,2.54,0,0,0,3.56,0Z"/><path class="cls-3" d="M385.63,60.84h2.8V74.2h-2.8Z"/><path class="cls-3" d="M400.47,70.15h-7.32a2.27,2.27,0,0,0,.93,1.42,3.12,3.12,0,0,0,1.84.52,3.69,3.69,0,0,0,1.34-.23,3.2,3.2,0,0,0,1.09-.71l1.49,1.62a5,5,0,0,1-4,1.57,6.29,6.29,0,0,1-2.9-.64A4.7,4.7,0,0,1,391,71.93a4.88,4.88,0,0,1-.69-2.58,5,5,0,0,1,.68-2.56A4.73,4.73,0,0,1,392.85,65a5.43,5.43,0,0,1,2.64-.64,5.33,5.33,0,0,1,2.57.61,4.48,4.48,0,0,1,1.81,1.75,5.25,5.25,0,0,1,.66,2.66S400.51,69.68,400.47,70.15ZM393.9,67a2.32,2.32,0,0,0-.79,1.48h4.77a2.3,2.3,0,0,0-2.37-2A2.45,2.45,0,0,0,393.9,67Z"/><path class="cls-3" d="M411.19,65.45a4.28,4.28,0,0,1,1.11,3.2V74.2h-2.81V69.08a2.58,2.58,0,0,0-.5-1.72,1.88,1.88,0,0,0-1.46-.56,2.25,2.25,0,0,0-1.69.65,2.73,2.73,0,0,0-.63,2V74.2H402.4V64.51h2.68v1.14a3.7,3.7,0,0,1,1.39-1,4.87,4.87,0,0,1,1.82-.33A4,4,0,0,1,411.19,65.45Z"/><path class="cls-3" d="M421.08,73.73a3,3,0,0,1-1,.46,5.26,5.26,0,0,1-1.27.15,3.8,3.8,0,0,1-2.67-.88,3.39,3.39,0,0,1-.95-2.59v-4h-1.49V64.73h1.49V62.37H418v2.36h2.41v2.16H418v3.94a1.3,1.3,0,0,0,.31.94,1.15,1.15,0,0,0,.89.34,1.81,1.81,0,0,0,1.14-.36Z"/><path class="cls-3" d="M133.91,93.46v2.33h-9.75V83.19h9.52v2.35h-6.62v2.73h5.85v2.27h-5.85v2.92Z"/><path class="cls-3" d="M142.07,95.79l-2.12-3-2.2,3h-3.06l3.72-4.87-3.6-4.81H138L140,88.94l2.1-2.83h3l-3.6,4.73,3.75,5Z"/><path class="cls-3" d="M152.87,95.33a3.19,3.19,0,0,1-1,.46,5.2,5.2,0,0,1-1.27.15,3.8,3.8,0,0,1-2.67-.88,3.39,3.39,0,0,1-.94-2.6v-4h-1.5V86.33H147V84h2.8v2.36h2.41v2.16h-2.41v3.94a1.3,1.3,0,0,0,.32.94,1.13,1.13,0,0,0,.89.34,1.8,1.8,0,0,0,1.13-.36Z"/><path class="cls-3" d="M158.49,86.33a5.07,5.07,0,0,1,2-.36v2.59l-.64,0a2.59,2.59,0,0,0-1.89.68,2.74,2.74,0,0,0-.68,2v4.57h-2.81V86.11h2.69v1.28A3,3,0,0,1,158.49,86.33Z"/><path class="cls-3" d="M171.48,91.75h-7.33a2.36,2.36,0,0,0,.94,1.42,3.15,3.15,0,0,0,1.84.52,3.73,3.73,0,0,0,1.34-.23,3.2,3.2,0,0,0,1.09-.71l1.49,1.62a5,5,0,0,1-4,1.57A6.24,6.24,0,0,1,164,95.3a4.79,4.79,0,0,1-2-1.77,5,5,0,0,1-.68-2.58,4.92,4.92,0,0,1,.67-2.56,4.69,4.69,0,0,1,1.86-1.78,5.74,5.74,0,0,1,5.21,0,4.48,4.48,0,0,1,1.81,1.75,5.25,5.25,0,0,1,.66,2.66S171.52,91.28,171.48,91.75Zm-6.57-3.12a2.32,2.32,0,0,0-.79,1.48h4.77a2.3,2.3,0,0,0-2.38-2A2.42,2.42,0,0,0,164.91,88.63Z"/><path class="cls-3" d="M188.7,87a4.36,4.36,0,0,1,1.07,3.21v5.54H187V90.68a2.63,2.63,0,0,0-.48-1.72,1.68,1.68,0,0,0-1.35-.56,2,2,0,0,0-1.57.64,2.69,2.69,0,0,0-.58,1.89v4.86h-2.81V90.68q0-2.28-1.83-2.28a2,2,0,0,0-1.55.64,2.74,2.74,0,0,0-.57,1.89v4.86h-2.81V86.11h2.68v1.12a3.58,3.58,0,0,1,1.32-.94,4.39,4.39,0,0,1,1.72-.32,4.15,4.15,0,0,1,1.85.4,3.33,3.33,0,0,1,1.34,1.18,4,4,0,0,1,1.5-1.17,4.7,4.7,0,0,1,2-.41A3.89,3.89,0,0,1,188.7,87Z"/><path class="cls-3" d="M192.43,84.31a1.54,1.54,0,0,1,0-2.23,2,2,0,0,1,2.52,0,1.38,1.38,0,0,1,.49,1.08A1.5,1.5,0,0,1,195,84.3a1.73,1.73,0,0,1-1.26.46A1.8,1.8,0,0,1,192.43,84.31Zm-.14,1.8h2.81v9.68h-2.81Z"/><path class="cls-3" d="M198.61,95.64a6.26,6.26,0,0,1-1.84-.75l.94-2a5.6,5.6,0,0,0,1.56.67,6.37,6.37,0,0,0,1.8.26c1.19,0,1.78-.29,1.78-.88a.62.62,0,0,0-.48-.59,7.61,7.61,0,0,0-1.5-.31,15.66,15.66,0,0,1-2-.41,3.09,3.09,0,0,1-1.34-.83A2.35,2.35,0,0,1,197,89.1a2.62,2.62,0,0,1,.54-1.63,3.49,3.49,0,0,1,1.54-1.11,6.73,6.73,0,0,1,2.41-.39,9.44,9.44,0,0,1,2,.22,5.74,5.74,0,0,1,1.68.62l-.93,2a5.63,5.63,0,0,0-2.79-.72,2.82,2.82,0,0,0-1.35.25.75.75,0,0,0-.45.65.64.64,0,0,0,.48.63,8.94,8.94,0,0,0,1.55.34,15.83,15.83,0,0,1,1.94.43,2.87,2.87,0,0,1,1.32.82,2.3,2.3,0,0,1,.56,1.65,2.54,2.54,0,0,1-.54,1.6,3.47,3.47,0,0,1-1.58,1.09,7,7,0,0,1-2.45.39A9.25,9.25,0,0,1,198.61,95.64Z"/><path class="cls-3" d="M222.55,87a4.32,4.32,0,0,1,1.08,3.21v5.54h-2.81V90.68a2.63,2.63,0,0,0-.48-1.72A1.7,1.7,0,0,0,219,88.4a2,2,0,0,0-1.56.64,2.69,2.69,0,0,0-.58,1.89v4.86H214V90.68q0-2.28-1.83-2.28a2,2,0,0,0-1.55.64,2.69,2.69,0,0,0-.58,1.89v4.86h-2.81V86.11H210v1.12a3.58,3.58,0,0,1,1.32-.94A4.36,4.36,0,0,1,213,86a4.15,4.15,0,0,1,1.85.4,3.3,3.3,0,0,1,1.33,1.18,4.08,4.08,0,0,1,1.51-1.17,4.66,4.66,0,0,1,2-.41A3.86,3.86,0,0,1,222.55,87Z"/></svg>