<svg id="Layer_1" data-name="Layer 1" xmlns="http://www.w3.org/2000/svg" viewBox="0 0 474.47 113.33"><defs><style>.cls-1{fill:#fff;}.cls-2{fill:#cd9b2b;}.cls-3{fill:#19486a;}</style></defs><rect class="cls-1" width="474.47" height="113.33"/><polygon class="cls-2" points="0 113.33 0 0 113.33 0 0 113.33"/><path class="cls-1" d="M43.23,40v4.75h-19V41l9.72-9.18A10.45,10.45,0,0,0,36,29.25a4.63,4.63,0,0,0,.54-2.11,2.79,2.79,0,0,0-1-2.32,4.78,4.78,0,0,0-3-.81,6.85,6.85,0,0,0-3,.63,5.73,5.73,0,0,0-2.24,1.89L23,23.79a10,10,0,0,1,4.06-3.44A13.71,13.71,0,0,1,33,19.11,12.27,12.27,0,0,1,38,20a7.6,7.6,0,0,1,3.27,2.59,6.71,6.71,0,0,1,1.17,3.94,8.76,8.76,0,0,1-.86,3.86,14.89,14.89,0,0,1-3.35,4.1L32.4,40Z"/><path class="cls-3" d="M121.06,37.93v3.89h6.8v2.73h-6.8V49.9h-3.4V35.2h11.11v2.73Z"/><path class="cls-3" d="M132.72,49.32a5.49,5.49,0,0,1-2.21-2.06,5.76,5.76,0,0,1-.8-3,5.7,5.7,0,0,1,.8-3,5.59,5.59,0,0,1,2.21-2.07,6.78,6.78,0,0,1,3.21-.74,6.67,6.67,0,0,1,3.19.74,5.59,5.59,0,0,1,3,5.07,5.67,5.67,0,0,1-.8,3,5.47,5.47,0,0,1-2.2,2.06,6.68,6.68,0,0,1-3.19.75A6.79,6.79,0,0,1,132.72,49.32ZM138,46.53a3.15,3.15,0,0,0,.81-2.28A3.18,3.18,0,0,0,138,42a2.72,2.72,0,0,0-2.06-.85,2.78,2.78,0,0,0-2.08.85,3.14,3.14,0,0,0-.82,2.28,3.11,3.11,0,0,0,.82,2.28,2.74,2.74,0,0,0,2.08.85A2.69,2.69,0,0,0,138,46.53Z"/><path class="cls-3" d="M146.48,49.32a5.52,5.52,0,0,1-2.22-2.06,5.76,5.76,0,0,1-.79-3,5.7,5.7,0,0,1,.79-3,5.61,5.61,0,0,1,2.22-2.07,6.71,6.71,0,0,1,3.2-.74,6.64,6.64,0,0,1,3.19.74,5.59,5.59,0,0,1,2.21,2.07,5.7,5.7,0,0,1,.8,3,5.76,5.76,0,0,1-.8,3,5.49,5.49,0,0,1-2.21,2.06,6.65,6.65,0,0,1-3.19.75A6.72,6.72,0,0,1,146.48,49.32Zm5.27-2.79a3.15,3.15,0,0,0,.81-2.28,3.18,3.18,0,0,0-.81-2.28,2.76,2.76,0,0,0-2.07-.85,2.8,2.8,0,0,0-2.08.85,3.18,3.18,0,0,0-.82,2.28,3.15,3.15,0,0,0,.82,2.28,2.76,2.76,0,0,0,2.08.85A2.72,2.72,0,0,0,151.75,46.53Z"/><path class="cls-3" d="M169.57,34.32V49.9h-3.13V48.6a4.32,4.32,0,0,1-3.53,1.47,6,6,0,0,1-2.89-.71,5.15,5.15,0,0,1-2-2,6.72,6.72,0,0,1,0-6.13,5.15,5.15,0,0,1,2-2,5.87,5.87,0,0,1,2.89-.71,4.29,4.29,0,0,1,3.38,1.36V34.32Zm-4,12.21a3.15,3.15,0,0,0,.82-2.28,3.18,3.18,0,0,0-.82-2.28,2.95,2.95,0,0,0-4.14,0,3.14,3.14,0,0,0-.82,2.28,3.11,3.11,0,0,0,.82,2.28,2.95,2.95,0,0,0,4.14,0Z"/><path class="cls-3" d="M180.23,49.68a7.7,7.7,0,0,1-2.62-1.23l1.16-2.56A8,8,0,0,0,181,47a8.48,8.48,0,0,0,2.61.42,4.13,4.13,0,0,0,2.14-.43,1.28,1.28,0,0,0,.69-1.14A1.07,1.07,0,0,0,186,45a3.07,3.07,0,0,0-1-.56c-.43-.14-1-.29-1.73-.46a23.64,23.64,0,0,1-2.75-.8,4.42,4.42,0,0,1-1.84-1.28,3.46,3.46,0,0,1-.77-2.35,4.09,4.09,0,0,1,.7-2.32,4.64,4.64,0,0,1,2.09-1.65A8.45,8.45,0,0,1,184.1,35a11,11,0,0,1,2.75.34,7.93,7.93,0,0,1,2.35,1l-1,2.59a8.19,8.19,0,0,0-4.07-1.16,3.8,3.8,0,0,0-2.11.46,1.41,1.41,0,0,0-.68,1.22,1.19,1.19,0,0,0,.78,1.12,12.24,12.24,0,0,0,2.41.73,21.82,21.82,0,0,1,2.75.8,4.47,4.47,0,0,1,1.84,1.26,3.37,3.37,0,0,1,.76,2.33,4,4,0,0,1-.7,2.3A4.77,4.77,0,0,1,187,49.55a8.72,8.72,0,0,1-3.42.6A11.78,11.78,0,0,1,180.23,49.68Z"/><path class="cls-3" d="M202.94,45.18h-8.55a2.67,2.67,0,0,0,1.09,1.66,3.68,3.68,0,0,0,2.14.61,4.27,4.27,0,0,0,1.57-.27,3.71,3.71,0,0,0,1.27-.83l1.74,1.89a5.85,5.85,0,0,1-4.66,1.83,7.35,7.35,0,0,1-3.38-.75,5.41,5.41,0,0,1-2.27-2.06,5.76,5.76,0,0,1-.8-3,5.83,5.83,0,0,1,.79-3A5.54,5.54,0,0,1,194,39.18a6.35,6.35,0,0,1,3.08-.74,6.21,6.21,0,0,1,3,.71,5.2,5.2,0,0,1,2.11,2.05,6.12,6.12,0,0,1,.77,3.1S203,44.63,202.94,45.18Zm-7.67-3.64a2.7,2.7,0,0,0-.92,1.73h5.56a2.73,2.73,0,0,0-.92-1.72,2.81,2.81,0,0,0-1.85-.64A2.84,2.84,0,0,0,195.27,41.54Z"/><path class="cls-3" d="M207.4,49.32a5.54,5.54,0,0,1-2.25-2.06,5.68,5.68,0,0,1-.81-3,5.54,5.54,0,0,1,3.06-5.07,6.9,6.9,0,0,1,3.24-.74,6.26,6.26,0,0,1,3.12.74,4.41,4.41,0,0,1,1.94,2.13l-2.54,1.37a2.76,2.76,0,0,0-2.54-1.56,2.88,2.88,0,0,0-2.12.84,3.54,3.54,0,0,0,0,4.58,2.88,2.88,0,0,0,2.12.84,2.75,2.75,0,0,0,2.54-1.55l2.54,1.38a4.43,4.43,0,0,1-1.94,2.1,6.16,6.16,0,0,1-3.12.76A6.91,6.91,0,0,1,207.4,49.32Z"/><path class="cls-3" d="M229,38.6V49.9h-3.11V48.56a4.35,4.35,0,0,1-1.56,1.12,5.35,5.35,0,0,1-5.48-.89,5.13,5.13,0,0,1-1.3-3.8V38.6h3.28v5.91c0,1.82.76,2.73,2.29,2.73a2.48,2.48,0,0,0,1.89-.77,3.26,3.26,0,0,0,.71-2.28V38.6Z"/><path class="cls-3" d="M236.74,38.86a5.86,5.86,0,0,1,2.3-.42v3l-.74,0a3,3,0,0,0-2.2.79,3.14,3.14,0,0,0-.8,2.36V49.9H232V38.6h3.13v1.5A3.59,3.59,0,0,1,236.74,38.86Z"/><path class="cls-3" d="M241.16,36.5a1.77,1.77,0,0,1,0-2.6,2,2,0,0,1,1.47-.52,2.12,2.12,0,0,1,1.47.5,1.65,1.65,0,0,1,.56,1.26,1.78,1.78,0,0,1-.56,1.35,2.29,2.29,0,0,1-2.94,0ZM241,38.6h3.27V49.9H241Z"/><path class="cls-3" d="M254.6,49.36a3.61,3.61,0,0,1-1.19.53,5.94,5.94,0,0,1-1.48.18,4.4,4.4,0,0,1-3.12-1,3.94,3.94,0,0,1-1.1-3V41.38H246V38.86h1.74V36.11H251v2.75h2.82v2.52H251V46a1.57,1.57,0,0,0,.37,1.1,1.36,1.36,0,0,0,1,.39,2.08,2.08,0,0,0,1.32-.42Z"/><path class="cls-3" d="M267.45,38.6l-5.1,12a5.92,5.92,0,0,1-1.93,2.75,4.7,4.7,0,0,1-2.76.79,5.75,5.75,0,0,1-1.74-.27,3.94,3.94,0,0,1-1.41-.75l1.2-2.34a2.75,2.75,0,0,0,.87.53,2.63,2.63,0,0,0,1,.19,1.71,1.71,0,0,0,1.09-.33,2.62,2.62,0,0,0,.75-1.08l.05-.1-4.9-11.39h3.39l3.17,7.67,3.19-7.67Z"/><path class="cls-3" d="M283.32,39.69a4.77,4.77,0,0,1,1.41,3.77V49.9h-3.06V48.5c-.62,1-1.77,1.57-3.45,1.57a5.42,5.42,0,0,1-2.26-.44,3.39,3.39,0,0,1-1.46-1.22,3.2,3.2,0,0,1-.5-1.76,3,3,0,0,1,1.19-2.48,6,6,0,0,1,3.66-.9h2.61a2.06,2.06,0,0,0-.66-1.65,2.82,2.82,0,0,0-1.95-.58,6,6,0,0,0-1.77.28,4.7,4.7,0,0,0-1.48.77l-1.18-2.29a7.21,7.21,0,0,1,2.22-1,10.2,10.2,0,0,1,2.65-.35A5.83,5.83,0,0,1,283.32,39.69Zm-2.79,7.79a2.14,2.14,0,0,0,.93-1.15V45.18h-2.25c-1.35,0-2,.44-2,1.32a1.19,1.19,0,0,0,.5,1,2.23,2.23,0,0,0,1.35.37A2.83,2.83,0,0,0,280.53,47.48Z"/><path class="cls-3" d="M298,39.7a5,5,0,0,1,1.29,3.73V49.9H296v-6a3,3,0,0,0-.59-2,2.17,2.17,0,0,0-1.7-.66,2.62,2.62,0,0,0-2,.77,3.17,3.17,0,0,0-.73,2.28V49.9h-3.28V38.6h3.13v1.33a4.26,4.26,0,0,1,1.62-1.11,5.79,5.79,0,0,1,2.12-.38A4.64,4.64,0,0,1,298,39.7Z"/><path class="cls-3" d="M313.84,34.32V49.9h-3.13V48.6a4.32,4.32,0,0,1-3.53,1.47,6,6,0,0,1-2.89-.71,5.15,5.15,0,0,1-2-2,6.72,6.72,0,0,1,0-6.13,5.15,5.15,0,0,1,2-2,5.84,5.84,0,0,1,2.89-.71,4.29,4.29,0,0,1,3.38,1.36V34.32Zm-4,12.21a3.15,3.15,0,0,0,.81-2.28,3.18,3.18,0,0,0-.81-2.28,2.95,2.95,0,0,0-4.14,0,3.14,3.14,0,0,0-.82,2.28,3.11,3.11,0,0,0,.82,2.28,2.95,2.95,0,0,0,4.14,0Z"/><path class="cls-3" d="M130.42,68.79a3.65,3.65,0,0,1,.72,2.3,3.39,3.39,0,0,1-1.5,3,7.62,7.62,0,0,1-4.38,1h-7.6V60.4h7.18a7.09,7.09,0,0,1,4.13,1,3.28,3.28,0,0,1,1.43,2.79,3.63,3.63,0,0,1-.51,1.92,3.54,3.54,0,0,1-1.44,1.32A3.82,3.82,0,0,1,130.42,68.79ZM121,63v3.47h3.38a3.43,3.43,0,0,0,1.91-.44,1.49,1.49,0,0,0,.65-1.3,1.46,1.46,0,0,0-.65-1.3,3.53,3.53,0,0,0-1.91-.43Zm6,9.14a1.52,1.52,0,0,0,.69-1.37c0-1.21-.91-1.82-2.71-1.82h-4v3.63h4A3.78,3.78,0,0,0,127,72.1Z"/><path class="cls-3" d="M144.49,70.38H136A2.67,2.67,0,0,0,137,72a3.65,3.65,0,0,0,2.14.61,4.27,4.27,0,0,0,1.57-.27,3.81,3.81,0,0,0,1.27-.83l1.74,1.89a5.85,5.85,0,0,1-4.66,1.83,7.32,7.32,0,0,1-3.38-.75,5.41,5.41,0,0,1-2.27-2.06,6.06,6.06,0,0,1,0-6,5.47,5.47,0,0,1,2.16-2.08,6.43,6.43,0,0,1,3.08-.74,6.27,6.27,0,0,1,3,.71,5.2,5.2,0,0,1,2.11,2.05,6.12,6.12,0,0,1,.77,3.1S144.54,69.83,144.49,70.38Zm-7.66-3.64a2.7,2.7,0,0,0-.92,1.73h5.56a2.68,2.68,0,0,0-.92-1.71,2.77,2.77,0,0,0-1.85-.65A2.82,2.82,0,0,0,136.83,66.74Z"/><path class="cls-3" d="M154,74.56a3.52,3.52,0,0,1-1.19.53,5.94,5.94,0,0,1-1.48.18,4.4,4.4,0,0,1-3.12-1,3.94,3.94,0,0,1-1.1-3V66.58H145.4V64.06h1.74V61.3h3.28v2.76h2.81v2.52h-2.81v4.6a1.57,1.57,0,0,0,.36,1.1,1.38,1.38,0,0,0,1,.39,2.13,2.13,0,0,0,1.33-.42Z"/><path class="cls-3" d="M162.91,74.56a3.56,3.56,0,0,1-1.18.53,6,6,0,0,1-1.49.18,4.36,4.36,0,0,1-3.11-1,3.9,3.9,0,0,1-1.11-3V66.58h-1.74V64.06H156V61.3h3.28v2.76h2.81v2.52H159.3v4.6a1.53,1.53,0,0,0,.37,1.1,1.35,1.35,0,0,0,1,.39,2.1,2.1,0,0,0,1.32-.42Z"/><path class="cls-3" d="M175.41,70.38h-8.55A2.67,2.67,0,0,0,168,72a3.65,3.65,0,0,0,2.14.61,4.27,4.27,0,0,0,1.57-.27,3.71,3.71,0,0,0,1.27-.83l1.74,1.89A5.85,5.85,0,0,1,170,75.27a7.32,7.32,0,0,1-3.38-.75,5.41,5.41,0,0,1-2.27-2.06,6.06,6.06,0,0,1,0-6,5.54,5.54,0,0,1,2.16-2.08,6.46,6.46,0,0,1,3.08-.74,6.24,6.24,0,0,1,3,.71,5.2,5.2,0,0,1,2.11,2.05,6.12,6.12,0,0,1,.77,3.1S175.45,69.83,175.41,70.38Zm-7.67-3.64a2.7,2.7,0,0,0-.92,1.73h5.56a2.68,2.68,0,0,0-.92-1.71,2.77,2.77,0,0,0-1.85-.65A2.84,2.84,0,0,0,167.74,66.74Z"/><path class="cls-3" d="M182.37,64.06a5.86,5.86,0,0,1,2.3-.42v3c-.37,0-.61,0-.74,0a3,3,0,0,0-2.2.79,3.14,3.14,0,0,0-.8,2.36V75.1h-3.28V63.8h3.13v1.5A3.59,3.59,0,0,1,182.37,64.06Z"/><path class="cls-3" d="M206.36,60.4V75.1h-2.79l-7.33-8.92V75.1h-3.36V60.4h2.81L203,69.33V60.4Z"/><path class="cls-3" d="M221,63.8V75.1h-3.11V73.76a4.4,4.4,0,0,1-1.55,1.12,4.93,4.93,0,0,1-2,.39A4.84,4.84,0,0,1,210.85,74a5.13,5.13,0,0,1-1.3-3.8V63.8h3.28v5.91c0,1.82.76,2.73,2.29,2.73a2.48,2.48,0,0,0,1.89-.77,3.26,3.26,0,0,0,.71-2.28V63.8Z"/><path class="cls-3" d="M231.33,74.56a3.52,3.52,0,0,1-1.19.53,5.94,5.94,0,0,1-1.48.18,4.4,4.4,0,0,1-3.12-1,3.94,3.94,0,0,1-1.1-3V66.58H222.7V64.06h1.74V61.3h3.28v2.76h2.81v2.52h-2.81v4.6a1.57,1.57,0,0,0,.36,1.1,1.38,1.38,0,0,0,1,.39,2.13,2.13,0,0,0,1.33-.42Z"/><path class="cls-3" d="M237.89,64.06a5.9,5.9,0,0,1,2.3-.42v3c-.36,0-.61,0-.73,0a3,3,0,0,0-2.21.79,3.18,3.18,0,0,0-.8,2.36V75.1h-3.27V63.8h3.13v1.5A3.62,3.62,0,0,1,237.89,64.06Z"/><path class="cls-3" d="M242.31,61.7a1.79,1.79,0,0,1,0-2.6,2.08,2.08,0,0,1,1.47-.52,2.12,2.12,0,0,1,1.47.5,1.62,1.62,0,0,1,.57,1.26,1.75,1.75,0,0,1-.57,1.35,2.05,2.05,0,0,1-1.47.54A2.09,2.09,0,0,1,242.31,61.7Zm-.17,2.1h3.28V75.1h-3.28Z"/><path class="cls-3" d="M255.75,74.56a3.52,3.52,0,0,1-1.19.53,5.88,5.88,0,0,1-1.48.18,4.36,4.36,0,0,1-3.11-1,3.9,3.9,0,0,1-1.11-3V66.58h-1.74V64.06h1.74V61.3h3.28v2.76H255v2.52h-2.81v4.6a1.53,1.53,0,0,0,.37,1.1,1.35,1.35,0,0,0,1,.39,2.1,2.1,0,0,0,1.32-.42Z"/><path class="cls-3" d="M257.77,61.7a1.77,1.77,0,0,1,0-2.6,2.08,2.08,0,0,1,1.47-.52,2.12,2.12,0,0,1,1.47.5,1.61,1.61,0,0,1,.56,1.26,1.74,1.74,0,0,1-.56,1.35,2.05,2.05,0,0,1-1.47.54A2.09,2.09,0,0,1,257.77,61.7Zm-.17,2.1h3.28V75.1H257.6Z"/><path class="cls-3" d="M266.09,74.52a5.49,5.49,0,0,1-2.21-2.06,5.76,5.76,0,0,1-.8-3,5.7,5.7,0,0,1,.8-3,5.59,5.59,0,0,1,2.21-2.07,6.9,6.9,0,0,1,3.21-.74,6.79,6.79,0,0,1,3.19.74,5.59,5.59,0,0,1,3,5.07,5.67,5.67,0,0,1-.8,3,5.47,5.47,0,0,1-2.2,2.06,6.68,6.68,0,0,1-3.19.75A6.79,6.79,0,0,1,266.09,74.52Zm5.27-2.79a3.6,3.6,0,0,0,0-4.55,2.69,2.69,0,0,0-2.06-.86,2.75,2.75,0,0,0-2.08.86,3.57,3.57,0,0,0,0,4.55,2.74,2.74,0,0,0,2.08.85A2.69,2.69,0,0,0,271.36,71.73Z"/><path class="cls-3" d="M287.93,64.9a5,5,0,0,1,1.3,3.73V75.1H286v-6a3,3,0,0,0-.59-2,2.16,2.16,0,0,0-1.7-.66,2.6,2.6,0,0,0-2,.77,3.17,3.17,0,0,0-.74,2.28V75.1h-3.27V63.8h3.12v1.33A4.42,4.42,0,0,1,282.42,64a5.79,5.79,0,0,1,2.12-.38A4.64,4.64,0,0,1,287.93,64.9Z"/></svg>