<svg id="Layer_1" data-name="Layer 1" xmlns="http://www.w3.org/2000/svg" viewBox="0 0 474.47 113.33"><defs><style>.cls-1{fill:#fff;}.cls-2{fill:#be2034;}.cls-3{fill:#19486a;}</style></defs><rect class="cls-1" width="474.47" height="113.33"/><polygon class="cls-2" points="0 113.33 0 0 113.33 0 0 113.33"/><path class="cls-1" d="M28.12,19.54v25.2H22.29V24.22h-5V19.54Z"/><path class="cls-1" d="M37.74,43.63a10.4,10.4,0,0,1-3.84-4.48,16.35,16.35,0,0,1-1.38-7,16.34,16.34,0,0,1,1.38-7,10.4,10.4,0,0,1,3.84-4.48,10.82,10.82,0,0,1,11.16,0,10.38,10.38,0,0,1,3.83,4.48,16.34,16.34,0,0,1,1.39,7,16.35,16.35,0,0,1-1.39,7,10.38,10.38,0,0,1-3.83,4.48,10.82,10.82,0,0,1-11.16,0Zm9.19-5.37q1.32-2,1.32-6.12T46.93,26a4.26,4.26,0,0,0-7.2,0q-1.3,2-1.31,6.12t1.31,6.12a4.26,4.26,0,0,0,7.2,0Z"/><path class="cls-3" d="M130.76,50.19l0-8.82-4.33,7.27h-1.53l-4.31-7.08v8.63h-3.19V35.49h2.82l5.5,9.14,5.42-9.14h2.79l0,14.7Z"/><path class="cls-3" d="M137.37,36.8a1.8,1.8,0,0,1,0-2.61,2.37,2.37,0,0,1,2.94,0,1.62,1.62,0,0,1,.57,1.26,1.75,1.75,0,0,1-.57,1.35,2,2,0,0,1-1.47.54A2.08,2.08,0,0,1,137.37,36.8Zm-.17,2.1h3.28V50.19H137.2Z"/><path class="cls-3" d="M155.18,38.9v9.4a6,6,0,0,1-1.62,4.62,6.65,6.65,0,0,1-4.72,1.52,12.1,12.1,0,0,1-3.11-.4,6.7,6.7,0,0,1-2.43-1.16l1.3-2.35a5.36,5.36,0,0,0,1.8.93,7,7,0,0,0,2.19.35A3.56,3.56,0,0,0,151.1,51a3,3,0,0,0,.81-2.32v-.48a4.6,4.6,0,0,1-3.57,1.41,6,6,0,0,1-2.85-.69A5.19,5.19,0,0,1,143.44,47a5.36,5.36,0,0,1-.75-2.85,5.42,5.42,0,0,1,.75-2.86,5.26,5.26,0,0,1,2.05-1.92,5.94,5.94,0,0,1,2.85-.68,4.49,4.49,0,0,1,3.73,1.61V38.9Zm-4.06,7.29a2.84,2.84,0,0,0,0-4,3,3,0,0,0-2.13-.76,3.07,3.07,0,0,0-2.15.76,2.81,2.81,0,0,0,0,4A3.08,3.08,0,0,0,149,47,3,3,0,0,0,151.12,46.19Z"/><path class="cls-3" d="M162.94,39.15a5.9,5.9,0,0,1,2.3-.42v3c-.36,0-.61,0-.74,0a3,3,0,0,0-2.2.79,3.18,3.18,0,0,0-.8,2.36v5.33h-3.27V38.9h3.12v1.49A3.7,3.7,0,0,1,162.94,39.15Z"/><path class="cls-3" d="M175.72,40a4.77,4.77,0,0,1,1.41,3.77v6.44h-3.07v-1.4c-.62,1.05-1.76,1.57-3.44,1.57a5.39,5.39,0,0,1-2.26-.44,3.34,3.34,0,0,1-1.46-1.22,3.12,3.12,0,0,1-.5-1.76,2.94,2.94,0,0,1,1.18-2.48,6.06,6.06,0,0,1,3.67-.9h2.6a2.09,2.09,0,0,0-.65-1.65,2.86,2.86,0,0,0-1.95-.58,6,6,0,0,0-1.78.28,4.82,4.82,0,0,0-1.48.77l-1.17-2.29a7.15,7.15,0,0,1,2.21-1,10.27,10.27,0,0,1,2.66-.35A5.84,5.84,0,0,1,175.72,40Zm-2.79,7.79a2.12,2.12,0,0,0,.92-1.15V45.47H171.6q-2,0-2,1.32a1.18,1.18,0,0,0,.49,1,2.26,2.26,0,0,0,1.36.37A2.88,2.88,0,0,0,172.93,47.77Z"/><path class="cls-3" d="M187.37,49.65a3.29,3.29,0,0,1-1.18.53,6,6,0,0,1-1.48.18,4.37,4.37,0,0,1-3.12-1,3.9,3.9,0,0,1-1.1-3V41.67h-1.75V39.15h1.75V36.4h3.27v2.75h2.82v2.52h-2.82v4.6a1.53,1.53,0,0,0,.37,1.1,1.35,1.35,0,0,0,1,.39,2.08,2.08,0,0,0,1.32-.42Z"/><path class="cls-3" d="M189.39,36.8a1.78,1.78,0,0,1,0-2.61,2.08,2.08,0,0,1,1.47-.52,2.12,2.12,0,0,1,1.47.5,1.62,1.62,0,0,1,.57,1.26,1.75,1.75,0,0,1-.57,1.35,2.05,2.05,0,0,1-1.47.54A2.08,2.08,0,0,1,189.39,36.8Zm-.17,2.1h3.28V50.19h-3.28Z"/><path class="cls-3" d="M197.72,49.62a5.55,5.55,0,0,1-2.22-2.07,6,6,0,0,1,0-6,5.55,5.55,0,0,1,2.22-2.07,7.27,7.27,0,0,1,6.39,0,5.54,5.54,0,0,1,3,5.07,5.73,5.73,0,0,1-.79,3,5.65,5.65,0,0,1-2.21,2.07,7.27,7.27,0,0,1-6.39,0Zm5.27-2.8a3.6,3.6,0,0,0,0-4.55,2.72,2.72,0,0,0-2.07-.85,2.76,2.76,0,0,0-2.08.85,3.57,3.57,0,0,0,0,4.55,2.76,2.76,0,0,0,2.08.85A2.72,2.72,0,0,0,203,46.82Z"/><path class="cls-3" d="M219.56,40a5,5,0,0,1,1.29,3.74v6.46h-3.28v-6a2.91,2.91,0,0,0-.59-2,2.14,2.14,0,0,0-1.7-.66,2.61,2.61,0,0,0-2,.77,3.17,3.17,0,0,0-.74,2.28v5.58H209.3V38.9h3.13v1.32a4.17,4.17,0,0,1,1.61-1.1,5.67,5.67,0,0,1,2.12-.39A4.67,4.67,0,0,1,219.56,40Z"/><path class="cls-3" d="M238.34,40a4.77,4.77,0,0,1,1.41,3.77v6.44h-3.07v-1.4c-.61,1.05-1.76,1.57-3.44,1.57a5.42,5.42,0,0,1-2.26-.44,3.34,3.34,0,0,1-1.46-1.22,3.12,3.12,0,0,1-.5-1.76,2.94,2.94,0,0,1,1.18-2.48,6.06,6.06,0,0,1,3.67-.9h2.6a2.09,2.09,0,0,0-.65-1.65,2.82,2.82,0,0,0-1.95-.58,6,6,0,0,0-1.78.28,4.82,4.82,0,0,0-1.48.77l-1.17-2.29a7.15,7.15,0,0,1,2.21-1,10.27,10.27,0,0,1,2.66-.35A5.84,5.84,0,0,1,238.34,40Zm-2.79,7.79a2.12,2.12,0,0,0,.92-1.15V45.47h-2.25q-2,0-2,1.32a1.18,1.18,0,0,0,.49,1,2.26,2.26,0,0,0,1.36.37A2.86,2.86,0,0,0,235.55,47.77Z"/><path class="cls-3" d="M253,40a5,5,0,0,1,1.29,3.74v6.46H251v-6a2.91,2.91,0,0,0-.59-2,2.14,2.14,0,0,0-1.7-.66,2.61,2.61,0,0,0-2,.77,3.17,3.17,0,0,0-.74,2.28v5.58h-3.27V38.9h3.13v1.32a4.17,4.17,0,0,1,1.61-1.1,5.67,5.67,0,0,1,2.12-.39A4.67,4.67,0,0,1,253,40Z"/><path class="cls-3" d="M268.85,34.61V50.19h-3.13v-1.3a4.3,4.3,0,0,1-3.52,1.47,5.92,5.92,0,0,1-2.89-.71,5.17,5.17,0,0,1-2-2,6.8,6.8,0,0,1,0-6.13,5.17,5.17,0,0,1,2-2,5.92,5.92,0,0,1,2.89-.71,4.31,4.31,0,0,1,3.38,1.36V34.61Zm-4,12.21a3.57,3.57,0,0,0,0-4.55,2.72,2.72,0,0,0-2.06-.85,2.76,2.76,0,0,0-2.08.85,3.6,3.6,0,0,0,0,4.55,2.76,2.76,0,0,0,2.08.85A2.72,2.72,0,0,0,264.82,46.82Z"/><path class="cls-3" d="M127.06,72.24h-6.82l-1.3,3.15h-3.49L122,60.69h3.36l6.57,14.7h-3.57ZM126,69.66,123.66,64l-2.33,5.63Z"/><path class="cls-3" d="M134.18,75.21a7.19,7.19,0,0,1-2.14-.87L133.13,72a6.86,6.86,0,0,0,1.83.79,7.72,7.72,0,0,0,2.1.3c1.39,0,2.08-.34,2.08-1a.73.73,0,0,0-.57-.69,8.55,8.55,0,0,0-1.74-.36,16.93,16.93,0,0,1-2.29-.48,3.62,3.62,0,0,1-1.57-1,2.77,2.77,0,0,1-.66-2,3.11,3.11,0,0,1,.62-1.9,4.08,4.08,0,0,1,1.81-1.29,7.64,7.64,0,0,1,2.8-.46,10.8,10.8,0,0,1,2.39.26,6.76,6.76,0,0,1,2,.72l-1.09,2.34a6.54,6.54,0,0,0-3.26-.84,3.25,3.25,0,0,0-1.57.29.88.88,0,0,0-.53.76.75.75,0,0,0,.57.73,10.4,10.4,0,0,0,1.81.4,19.73,19.73,0,0,1,2.26.49,3.52,3.52,0,0,1,1.54,1,2.71,2.71,0,0,1,.65,1.93,3,3,0,0,1-.63,1.87,4,4,0,0,1-1.84,1.27,8.24,8.24,0,0,1-2.87.45A10.58,10.58,0,0,1,134.18,75.21Z"/><path class="cls-3" d="M155.29,64.1l-5.11,12a5.86,5.86,0,0,1-1.92,2.75,4.71,4.71,0,0,1-2.76.8,5.76,5.76,0,0,1-1.74-.28,3.78,3.78,0,0,1-1.41-.75l1.2-2.33a2.92,2.92,0,0,0,.87.52,2.63,2.63,0,0,0,1,.19,1.73,1.73,0,0,0,1.09-.33,2.62,2.62,0,0,0,.75-1.08l0-.1L142.39,64.1h3.38l3.17,7.66,3.2-7.66Z"/><path class="cls-3" d="M156.63,59.81h3.28V75.39h-3.28Z"/><path class="cls-3" d="M174.33,64.1V75.39h-3.1V74.05a4.44,4.44,0,0,1-1.56,1.12,5.35,5.35,0,0,1-5.48-.89,5.09,5.09,0,0,1-1.3-3.8V64.1h3.27V70c0,1.82.77,2.73,2.29,2.73a2.45,2.45,0,0,0,1.89-.77,3.22,3.22,0,0,0,.72-2.28V64.1Z"/><path class="cls-3" d="M195.22,65.18a5.1,5.1,0,0,1,1.25,3.75v6.46h-3.28v-6a3,3,0,0,0-.56-2,1.94,1.94,0,0,0-1.58-.66,2.34,2.34,0,0,0-1.83.75,3.18,3.18,0,0,0-.67,2.21v5.67h-3.28v-6c0-1.78-.71-2.67-2.14-2.67a2.29,2.29,0,0,0-1.8.75,3.18,3.18,0,0,0-.68,2.21v5.67h-3.27V64.1h3.13v1.3a4,4,0,0,1,1.54-1.09,5.07,5.07,0,0,1,2-.38,4.82,4.82,0,0,1,2.16.47,3.75,3.75,0,0,1,1.55,1.38,4.67,4.67,0,0,1,1.76-1.37,5.54,5.54,0,0,1,2.32-.48A4.54,4.54,0,0,1,195.22,65.18Z"/><path class="cls-3" d="M215.33,61.34a5.26,5.26,0,0,1,2.22,7.51,5,5,0,0,1-2.22,1.85,8.17,8.17,0,0,1-3.39.64h-3v4h-3.4V60.69h6.36A8.17,8.17,0,0,1,215.33,61.34Zm-1.24,6.57a2.66,2.66,0,0,0,0-3.78,3.61,3.61,0,0,0-2.34-.66H209v5.1h2.77A3.61,3.61,0,0,0,214.09,67.91Z"/><path class="cls-3" d="M222.66,74.82a5.59,5.59,0,0,1-2.21-2.07,5.76,5.76,0,0,1-.8-3,5.7,5.7,0,0,1,.8-3,5.59,5.59,0,0,1,2.21-2.07,6.9,6.9,0,0,1,3.21-.74,6.79,6.79,0,0,1,3.19.74,5.59,5.59,0,0,1,3,5.07,5.67,5.67,0,0,1-.8,3,5.56,5.56,0,0,1-2.2,2.07,6.79,6.79,0,0,1-3.19.74A6.9,6.9,0,0,1,222.66,74.82Zm5.28-2.8a3.63,3.63,0,0,0,0-4.55,2.93,2.93,0,0,0-4.15,0,3.57,3.57,0,0,0,0,4.55,3,3,0,0,0,4.15,0Z"/><path class="cls-3" d="M234.25,59.81h3.27V75.39h-3.27Z"/><path class="cls-3" d="M240.73,62a1.8,1.8,0,0,1,0-2.61,2.37,2.37,0,0,1,2.94,0,1.62,1.62,0,0,1,.57,1.26,1.79,1.79,0,0,1-.57,1.36,2.05,2.05,0,0,1-1.47.53A2.08,2.08,0,0,1,240.73,62Zm-.16,2.1h3.27V75.39h-3.27Z"/><path class="cls-3" d="M249.1,74.82a5.6,5.6,0,0,1-2.24-2.07,5.68,5.68,0,0,1-.81-3,5.56,5.56,0,0,1,3-5.07,7,7,0,0,1,3.25-.74,6.37,6.37,0,0,1,3.12.74,4.46,4.46,0,0,1,1.94,2.13l-2.54,1.37a2.78,2.78,0,0,0-2.54-1.56,2.87,2.87,0,0,0-2.12.85,3.53,3.53,0,0,0,0,4.57,2.86,2.86,0,0,0,2.12.84,2.74,2.74,0,0,0,2.54-1.55l2.54,1.39a4.58,4.58,0,0,1-1.94,2.1,6.26,6.26,0,0,1-3.12.75A7,7,0,0,1,249.1,74.82Z"/><path class="cls-3" d="M259.47,62a1.78,1.78,0,0,1,0-2.61,2,2,0,0,1,1.47-.52,2.12,2.12,0,0,1,1.47.5,1.65,1.65,0,0,1,.56,1.26,1.82,1.82,0,0,1-.56,1.36,2.09,2.09,0,0,1-1.47.53A2,2,0,0,1,259.47,62Zm-.17,2.1h3.27V75.39H259.3Z"/><path class="cls-3" d="M276.62,70.67h-8.54a2.63,2.63,0,0,0,1.09,1.66,3.65,3.65,0,0,0,2.14.61,4.18,4.18,0,0,0,1.56-.27,3.75,3.75,0,0,0,1.28-.83l1.74,1.89a5.86,5.86,0,0,1-4.66,1.83,7.41,7.41,0,0,1-3.38-.74,5.49,5.49,0,0,1-2.27-2.07,5.67,5.67,0,0,1-.8-3,5.74,5.74,0,0,1,.79-3,5.47,5.47,0,0,1,2.16-2.08,6.74,6.74,0,0,1,6.08,0,5.27,5.27,0,0,1,2.11,2,6.12,6.12,0,0,1,.77,3.1S276.66,70.12,276.62,70.67ZM269,67a2.69,2.69,0,0,0-.93,1.72h5.57a2.68,2.68,0,0,0-.92-1.71A3,3,0,0,0,269,67Z"/><path class="cls-3" d="M279.92,75.21a7.08,7.08,0,0,1-2.14-.87L278.87,72a6.72,6.72,0,0,0,1.83.79,7.72,7.72,0,0,0,2.1.3c1.38,0,2.08-.34,2.08-1a.73.73,0,0,0-.57-.69,8.55,8.55,0,0,0-1.74-.36,16.93,16.93,0,0,1-2.29-.48,3.51,3.51,0,0,1-1.57-1,2.77,2.77,0,0,1-.66-2,3.11,3.11,0,0,1,.62-1.9,4,4,0,0,1,1.81-1.29,7.64,7.64,0,0,1,2.8-.46,10.65,10.65,0,0,1,2.38.26,6.83,6.83,0,0,1,2,.72l-1.1,2.34a6.48,6.48,0,0,0-3.25-.84,3.32,3.32,0,0,0-1.58.29.88.88,0,0,0-.52.76.75.75,0,0,0,.57.73,10.24,10.24,0,0,0,1.8.4,19.49,19.49,0,0,1,2.27.49,3.44,3.44,0,0,1,1.53,1A2.67,2.67,0,0,1,288,72a3,3,0,0,1-.64,1.87,4,4,0,0,1-1.83,1.27,8.24,8.24,0,0,1-2.87.45A10.58,10.58,0,0,1,279.92,75.21Z"/></svg>