<svg id="Layer_1" data-name="Layer 1" xmlns="http://www.w3.org/2000/svg" viewBox="0 0 474.47 113.33"><defs><style>.cls-1{fill:#fff;}.cls-2{fill:#be2034;}.cls-3{fill:#19486a;}</style></defs><rect class="cls-1" width="474.47" height="113.33"/><polygon class="cls-2" points="0 113.33 0 0 113.33 0 0 113.33"/><path class="cls-1" d="M40.93,29.91a7.69,7.69,0,0,1,3.13,2.76,7.38,7.38,0,0,1,1.15,4.12A7.87,7.87,0,0,1,44,41.22a8.15,8.15,0,0,1-3.44,2.93,11.25,11.25,0,0,1-4.84,1,10.7,10.7,0,0,1-8.28-3.24q-3-3.24-3-9.26A15.51,15.51,0,0,1,26,25.34a11,11,0,0,1,4.52-4.64,13.74,13.74,0,0,1,6.72-1.59,16.4,16.4,0,0,1,3.87.45,10.54,10.54,0,0,1,3.15,1.28l-2.16,4.28a8.28,8.28,0,0,0-4.72-1.26,6.86,6.86,0,0,0-5.08,1.88,7.82,7.82,0,0,0-2,5.43,8.41,8.41,0,0,1,6.23-2.23A9.82,9.82,0,0,1,40.93,29.91Zm-2.54,9.9a3.41,3.41,0,0,0,1.17-2.73,3.49,3.49,0,0,0-1.17-2.76,4.57,4.57,0,0,0-3.11-1,4.61,4.61,0,0,0-3.14,1.06,3.65,3.65,0,0,0,0,5.42,4.76,4.76,0,0,0,3.24,1A4.5,4.5,0,0,0,38.39,39.81Z"/><path class="cls-3" d="M129,59.77V62.5H117.66V47.8h11.11v2.73H121v3.19h6.82v2.65H121v3.4Z"/><path class="cls-3" d="M142.94,46.92V62.5h-3.13V61.2a4.32,4.32,0,0,1-3.53,1.47A5.91,5.91,0,0,1,133.4,62a5.11,5.11,0,0,1-2-2,6.72,6.72,0,0,1,0-6.13,5.11,5.11,0,0,1,2-2,5.8,5.8,0,0,1,2.88-.71,4.28,4.28,0,0,1,3.38,1.36V46.92Zm-4,12.21a3.58,3.58,0,0,0,0-4.56,2.77,2.77,0,0,0-2.06-.85,2.8,2.8,0,0,0-2.08.85,3.58,3.58,0,0,0,0,4.56,2.76,2.76,0,0,0,2.08.85A2.73,2.73,0,0,0,138.91,59.13Z"/><path class="cls-3" d="M157.35,51.2V62.5h-3.11V61.16a4.35,4.35,0,0,1-1.56,1.12,5.35,5.35,0,0,1-5.48-.89,5.09,5.09,0,0,1-1.3-3.8V51.2h3.28v5.91c0,1.82.76,2.73,2.29,2.73a2.48,2.48,0,0,0,1.89-.77,3.26,3.26,0,0,0,.71-2.28V51.2Z"/><path class="cls-3" d="M162.61,61.93a5.7,5.7,0,0,1,0-10.15,7,7,0,0,1,3.24-.74,6.37,6.37,0,0,1,3.12.74,4.41,4.41,0,0,1,1.94,2.13l-2.54,1.37a2.77,2.77,0,0,0-2.54-1.56,2.88,2.88,0,0,0-2.12.84,3.54,3.54,0,0,0,0,4.58,2.88,2.88,0,0,0,2.12.84,2.75,2.75,0,0,0,2.54-1.55l2.54,1.38a4.43,4.43,0,0,1-1.94,2.1,6.16,6.16,0,0,1-3.12.76A7,7,0,0,1,162.61,61.93Z"/><path class="cls-3" d="M181.39,52.29a4.77,4.77,0,0,1,1.41,3.77V62.5h-3.07V61.1c-.61,1-1.76,1.57-3.44,1.57a5.42,5.42,0,0,1-2.26-.44A3.34,3.34,0,0,1,172.57,61a3.2,3.2,0,0,1-.5-1.76,2.94,2.94,0,0,1,1.18-2.48,6.08,6.08,0,0,1,3.67-.9h2.6a2.09,2.09,0,0,0-.65-1.65,2.82,2.82,0,0,0-2-.58,5.71,5.71,0,0,0-1.78.28,4.82,4.82,0,0,0-1.48.77l-1.17-2.29a7.15,7.15,0,0,1,2.21-1,10.27,10.27,0,0,1,2.66-.35A5.84,5.84,0,0,1,181.39,52.29Zm-2.79,7.79a2.12,2.12,0,0,0,.92-1.15V57.78h-2.24c-1.35,0-2,.44-2,1.32a1.18,1.18,0,0,0,.49,1,2.26,2.26,0,0,0,1.36.37A2.86,2.86,0,0,0,178.6,60.08Z"/><path class="cls-3" d="M193.05,62a3.61,3.61,0,0,1-1.19.53,5.94,5.94,0,0,1-1.48.18,4.37,4.37,0,0,1-3.12-1,3.94,3.94,0,0,1-1.1-3V54h-1.75V51.46h1.75V48.71h3.27v2.75h2.82V54h-2.82v4.6a1.57,1.57,0,0,0,.37,1.1,1.36,1.36,0,0,0,1,.39,2.08,2.08,0,0,0,1.32-.42Z"/><path class="cls-3" d="M195.06,49.1a1.77,1.77,0,0,1,0-2.6,2.08,2.08,0,0,1,1.47-.52,2.12,2.12,0,0,1,1.47.5,1.62,1.62,0,0,1,.57,1.26,1.75,1.75,0,0,1-.57,1.35,2.05,2.05,0,0,1-1.47.54A2.09,2.09,0,0,1,195.06,49.1Zm-.17,2.1h3.28V62.5h-3.28Z"/><path class="cls-3" d="M203.39,61.93a5.55,5.55,0,0,1-2.22-2.07,5.76,5.76,0,0,1-.8-3,5.7,5.7,0,0,1,.8-3,5.55,5.55,0,0,1,2.22-2.07,7.27,7.27,0,0,1,6.39,0A5.59,5.59,0,0,1,212,53.85a5.7,5.7,0,0,1,.8,3,5.76,5.76,0,0,1-.8,3,5.59,5.59,0,0,1-2.21,2.07,7.27,7.27,0,0,1-6.39,0Zm5.27-2.8a3.61,3.61,0,0,0,0-4.56,2.76,2.76,0,0,0-2.07-.85,2.8,2.8,0,0,0-2.08.85,3.58,3.58,0,0,0,0,4.56,2.76,2.76,0,0,0,2.08.85A2.72,2.72,0,0,0,208.66,59.13Z"/><path class="cls-3" d="M225.23,52.3A5,5,0,0,1,226.52,56V62.5h-3.28v-6a3,3,0,0,0-.58-2,2.18,2.18,0,0,0-1.71-.66,2.61,2.61,0,0,0-2,.77,3.17,3.17,0,0,0-.73,2.28V62.5H215V51.2h3.13v1.33a4.13,4.13,0,0,1,1.62-1.1,5.59,5.59,0,0,1,2.12-.39A4.64,4.64,0,0,1,225.23,52.3Z"/></svg>