<svg id="Layer_1" data-name="Layer 1" xmlns="http://www.w3.org/2000/svg" viewBox="0 0 474.47 113.33"><defs><style>.cls-1{fill:#fff;}.cls-2{fill:#0097d4;}.cls-3{fill:#19486a;}</style></defs><rect class="cls-1" width="474.47" height="113.33"/><polygon class="cls-2" points="0 113.33 0 0 113.33 0 0 113.33"/><path class="cls-1" d="M40.91,31.14a7,7,0,0,1,2.54,5.68A7.69,7.69,0,0,1,38.79,44,13.33,13.33,0,0,1,33,45.18a19.82,19.82,0,0,1-5.24-.71,13.44,13.44,0,0,1-4.37-2L25.66,38A11.15,11.15,0,0,0,29,39.69a12.79,12.79,0,0,0,3.85.59,6.07,6.07,0,0,0,3.45-.86A2.77,2.77,0,0,0,37.54,37a2.68,2.68,0,0,0-1.31-2.44,9,9,0,0,0-4.55-.83H25.23l1.3-14.19H41.9v4.68H31.39L31,29H33Q38.38,29,40.91,31.14Z"/><path class="cls-3" d="M139.69,47.92l-4.81,14.7h-3.65L128,52.67l-3.33,9.95H121l-4.83-14.7h3.53L123,58.25l3.46-10.33h3.15L133,58.34l3.43-10.42Z"/><path class="cls-3" d="M150.78,59.47H144l-1.3,3.15h-3.48l6.55-14.7h3.36l6.57,14.7h-3.57Zm-1.07-2.58-2.33-5.63-2.33,5.63Z"/><path class="cls-3" d="M158.64,62.4A7.73,7.73,0,0,1,156,61.17l1.15-2.56a7.88,7.88,0,0,0,2.25,1.11,8.48,8.48,0,0,0,2.61.42,4.13,4.13,0,0,0,2.14-.43,1.29,1.29,0,0,0,.69-1.14,1.1,1.1,0,0,0-.41-.87,3.07,3.07,0,0,0-1.05-.56c-.43-.14-1-.29-1.73-.46a23.64,23.64,0,0,1-2.75-.8,4.45,4.45,0,0,1-1.84-1.28,3.46,3.46,0,0,1-.77-2.35,4,4,0,0,1,.7-2.32,4.52,4.52,0,0,1,2.09-1.65,8.42,8.42,0,0,1,3.41-.61,11.5,11.5,0,0,1,2.75.33,8.22,8.22,0,0,1,2.35,1l-1.05,2.58a8.17,8.17,0,0,0-4.07-1.15,3.8,3.8,0,0,0-2.11.46,1.42,1.42,0,0,0-.69,1.22,1.2,1.2,0,0,0,.79,1.12,12.24,12.24,0,0,0,2.41.73,22.33,22.33,0,0,1,2.75.8A4.53,4.53,0,0,1,167.49,56a3.37,3.37,0,0,1,.76,2.33,4,4,0,0,1-.7,2.3,4.69,4.69,0,0,1-2.11,1.64,8.56,8.56,0,0,1-3.43.61A11.88,11.88,0,0,1,158.64,62.4Z"/><path class="cls-3" d="M184.06,47.92v14.7h-3.4v-6H174v6h-3.4V47.92H174v5.8h6.68v-5.8Z"/></svg>