<svg id="Layer_1" data-name="Layer 1" xmlns="http://www.w3.org/2000/svg" viewBox="0 0 474.47 113.33"><defs><style>.cls-1{fill:#fff;}.cls-2{fill:#0097d4;}.cls-3{fill:#19486a;}</style></defs><rect class="cls-1" width="474.47" height="113.33"/><polygon class="cls-2" points="0 113.33 0 0 113.33 0 0 113.33"/><path class="cls-1" d="M34.12,19.54v25.2H28.29V24.22h-5V19.54Z"/><path class="cls-3" d="M119,62.29a8.13,8.13,0,0,1-2.61-1.23l1.15-2.56a7.88,7.88,0,0,0,2.25,1.11,8.42,8.42,0,0,0,2.6.42,4.17,4.17,0,0,0,2.15-.43,1.3,1.3,0,0,0,.69-1.14,1.12,1.12,0,0,0-.41-.88,3.06,3.06,0,0,0-1-.55c-.43-.14-1-.3-1.73-.46a25.8,25.8,0,0,1-2.75-.8,4.54,4.54,0,0,1-1.84-1.28,3.49,3.49,0,0,1-.77-2.36,4.13,4.13,0,0,1,.69-2.32,4.68,4.68,0,0,1,2.09-1.64,8.47,8.47,0,0,1,3.42-.61,11.56,11.56,0,0,1,2.75.33,8.34,8.34,0,0,1,2.35,1l-1.05,2.58a8.21,8.21,0,0,0-4.08-1.15,3.82,3.82,0,0,0-2.11.46A1.42,1.42,0,0,0,120,52a1.18,1.18,0,0,0,.79,1.12,11.56,11.56,0,0,0,2.4.72,26.79,26.79,0,0,1,2.76.8,4.63,4.63,0,0,1,1.83,1.26,3.39,3.39,0,0,1,.77,2.33,4.07,4.07,0,0,1-.7,2.3,4.69,4.69,0,0,1-2.11,1.65,8.56,8.56,0,0,1-3.43.61A12.24,12.24,0,0,1,119,62.29Z"/><path class="cls-3" d="M132.83,61.93a5.85,5.85,0,0,1-2.21-8.07,5.52,5.52,0,0,1,2.21-2.07,7.2,7.2,0,0,1,6.4,0,5.55,5.55,0,0,1,2.2,2.07,6,6,0,0,1,0,6,5.62,5.62,0,0,1-2.2,2.07,7.2,7.2,0,0,1-6.4,0Zm5.27-2.79a3.61,3.61,0,0,0,0-4.56,2.95,2.95,0,0,0-4.14,0,3.58,3.58,0,0,0,0,4.56,2.95,2.95,0,0,0,4.14,0Z"/><path class="cls-3" d="M146.63,61.93a5.8,5.8,0,0,1-2.25-8.07,5.56,5.56,0,0,1,2.25-2.07,6.91,6.91,0,0,1,3.24-.75,6.26,6.26,0,0,1,3.12.75,4.41,4.41,0,0,1,1.94,2.13l-2.54,1.36a2.77,2.77,0,0,0-2.54-1.55,2.88,2.88,0,0,0-2.12.84,3.54,3.54,0,0,0,0,4.58,2.88,2.88,0,0,0,2.12.84,2.74,2.74,0,0,0,2.54-1.56l2.54,1.39a4.43,4.43,0,0,1-1.94,2.1,6.27,6.27,0,0,1-3.12.76A6.91,6.91,0,0,1,146.63,61.93Z"/><path class="cls-3" d="M157,49.11a1.79,1.79,0,0,1,0-2.6,2.09,2.09,0,0,1,1.47-.53,2.12,2.12,0,0,1,1.47.51,1.6,1.6,0,0,1,.57,1.26,1.78,1.78,0,0,1-.57,1.35,2.05,2.05,0,0,1-1.47.54A2.09,2.09,0,0,1,157,49.11Zm-.17,2.1h3.28v11.3h-3.28Z"/><path class="cls-3" d="M171.73,52.29a4.79,4.79,0,0,1,1.41,3.77v6.45h-3.06V61.1a3.67,3.67,0,0,1-3.45,1.58,5.42,5.42,0,0,1-2.26-.44A3.38,3.38,0,0,1,162.92,61a3.16,3.16,0,0,1-.51-1.77,2.93,2.93,0,0,1,1.19-2.47,6,6,0,0,1,3.66-.91h2.61a2.09,2.09,0,0,0-.66-1.65,2.87,2.87,0,0,0-2-.57,5.65,5.65,0,0,0-1.77.28,4.51,4.51,0,0,0-1.48.77l-1.18-2.29a7.09,7.09,0,0,1,2.22-1A9.79,9.79,0,0,1,167.7,51,5.88,5.88,0,0,1,171.73,52.29Zm-2.79,7.79a2.15,2.15,0,0,0,.93-1.14V57.78h-2.25c-1.35,0-2,.44-2,1.33a1.16,1.16,0,0,0,.5,1,2.17,2.17,0,0,0,1.35.37A2.83,2.83,0,0,0,168.94,60.08Z"/><path class="cls-3" d="M176.1,46.93h3.28V62.51H176.1Z"/><path class="cls-3" d="M198.35,48.46a5,5,0,0,1,2.22,1.85,5.59,5.59,0,0,1,0,5.66,4.94,4.94,0,0,1-2.22,1.84,8.23,8.23,0,0,1-3.39.65h-3v4h-3.4V47.81H195A8.23,8.23,0,0,1,198.35,48.46ZM197.1,55a2.31,2.31,0,0,0,.8-1.88,2.34,2.34,0,0,0-.8-1.9,3.58,3.58,0,0,0-2.33-.66H192v5.1h2.77A3.58,3.58,0,0,0,197.1,55Z"/><path class="cls-3" d="M208.24,51.46a5.9,5.9,0,0,1,2.3-.42v3l-.73,0a3,3,0,0,0-2.21.79,3.19,3.19,0,0,0-.8,2.36v5.34h-3.27V51.21h3.13V52.7A3.69,3.69,0,0,1,208.24,51.46Z"/><path class="cls-3" d="M214.56,61.93a5.59,5.59,0,0,1-2.21-2.07,6,6,0,0,1,0-6,5.52,5.52,0,0,1,2.21-2.07,6.79,6.79,0,0,1,3.21-.75,6.68,6.68,0,0,1,3.19.75,5.49,5.49,0,0,1,2.2,2.07,6,6,0,0,1,0,6,5.56,5.56,0,0,1-2.2,2.07,6.68,6.68,0,0,1-3.19.75A6.79,6.79,0,0,1,214.56,61.93Zm5.27-2.79a3.61,3.61,0,0,0,0-4.56,2.7,2.7,0,0,0-2.06-.85,2.74,2.74,0,0,0-2.08.85,3.58,3.58,0,0,0,0,4.56,2.78,2.78,0,0,0,2.08.85A2.74,2.74,0,0,0,219.83,59.14Z"/><path class="cls-3" d="M233.43,62a3.38,3.38,0,0,1-1.18.54,6,6,0,0,1-1.49.18,4.4,4.4,0,0,1-3.11-1,3.94,3.94,0,0,1-1.11-3V54H224.8V51.46h1.74V48.71h3.28v2.75h2.81V54h-2.81v4.6a1.51,1.51,0,0,0,.37,1.1,1.35,1.35,0,0,0,1,.39,2.1,2.1,0,0,0,1.32-.42Z"/><path class="cls-3" d="M245.93,57.78h-8.55a2.65,2.65,0,0,0,1.09,1.66,3.6,3.6,0,0,0,2.14.61,4.49,4.49,0,0,0,1.57-.26,3.87,3.87,0,0,0,1.27-.83l1.74,1.89a5.85,5.85,0,0,1-4.66,1.83,7.35,7.35,0,0,1-3.38-.75,5.49,5.49,0,0,1-2.27-2.07,5.7,5.7,0,0,1-.8-3,5.81,5.81,0,0,1,.79-3A5.61,5.61,0,0,1,237,51.79a6.35,6.35,0,0,1,3.08-.75,6.22,6.22,0,0,1,3,.72,5.18,5.18,0,0,1,2.11,2,6.14,6.14,0,0,1,.77,3.1S246,57.24,245.93,57.78Zm-7.67-3.63a2.7,2.7,0,0,0-.92,1.72h5.56a2.68,2.68,0,0,0-2.77-2.35A2.84,2.84,0,0,0,238.26,54.15Z"/><path class="cls-3" d="M250.39,61.93a5.8,5.8,0,0,1-2.25-8.07,5.56,5.56,0,0,1,2.25-2.07,6.91,6.91,0,0,1,3.24-.75,6.26,6.26,0,0,1,3.12.75,4.48,4.48,0,0,1,1.95,2.13l-2.55,1.36a2.77,2.77,0,0,0-2.54-1.55,2.88,2.88,0,0,0-2.12.84,3.54,3.54,0,0,0,0,4.58,2.88,2.88,0,0,0,2.12.84,2.74,2.74,0,0,0,2.54-1.56l2.55,1.39a4.5,4.5,0,0,1-1.95,2.1,6.27,6.27,0,0,1-3.12.76A6.91,6.91,0,0,1,250.39,61.93Z"/><path class="cls-3" d="M268,62a3.35,3.35,0,0,1-1.19.54,5.94,5.94,0,0,1-1.48.18,4.45,4.45,0,0,1-3.12-1,4,4,0,0,1-1.1-3V54h-1.74V51.46h1.74V48.71h3.28v2.75h2.81V54h-2.81v4.6a1.55,1.55,0,0,0,.36,1.1,1.38,1.38,0,0,0,1,.39,2.13,2.13,0,0,0,1.33-.42Z"/><path class="cls-3" d="M270.06,49.11a1.77,1.77,0,0,1,0-2.6,2.05,2.05,0,0,1,1.47-.53,2.12,2.12,0,0,1,1.47.51,1.62,1.62,0,0,1,.56,1.26A1.81,1.81,0,0,1,273,49.1a2.29,2.29,0,0,1-2.94,0Zm-.17,2.1h3.27v11.3h-3.27Z"/><path class="cls-3" d="M278.38,61.93a5.85,5.85,0,0,1-2.21-8.07,5.52,5.52,0,0,1,2.21-2.07,7.2,7.2,0,0,1,6.4,0,5.55,5.55,0,0,1,2.2,2.07,6,6,0,0,1,0,6,5.62,5.62,0,0,1-2.2,2.07,7.2,7.2,0,0,1-6.4,0Zm5.27-2.79a3.61,3.61,0,0,0,0-4.56,2.72,2.72,0,0,0-2.07-.85,2.76,2.76,0,0,0-2.08.85,3.61,3.61,0,0,0,0,4.56,2.8,2.8,0,0,0,2.08.85A2.76,2.76,0,0,0,283.65,59.14Z"/><path class="cls-3" d="M300.22,52.3A5,5,0,0,1,301.51,56v6.47h-3.27v-6a3,3,0,0,0-.59-2,2.16,2.16,0,0,0-1.7-.66,2.61,2.61,0,0,0-2,.76,3.19,3.19,0,0,0-.73,2.28v5.59H290V51.21h3.13v1.32a4.52,4.52,0,0,1,1.62-1.1,5.59,5.59,0,0,1,2.12-.39A4.64,4.64,0,0,1,300.22,52.3Z"/></svg>