<svg id="Layer_1" data-name="Layer 1" xmlns="http://www.w3.org/2000/svg" viewBox="0 0 474.47 113.33"><defs><style>.cls-1{fill:#fff;}.cls-2{fill:#dc1b80;}.cls-3{fill:#19486a;}</style></defs><rect class="cls-1" width="474.47" height="113.33"/><polygon class="cls-2" points="0 113.33 0 0 113.33 0 0 113.33"/><path class="cls-1" d="M44.51,33.94a6.26,6.26,0,0,1,1,3.5,6.51,6.51,0,0,1-1.33,4.08,8.43,8.43,0,0,1-3.75,2.7,15,15,0,0,1-5.58,1,14.89,14.89,0,0,1-5.56-1,8.36,8.36,0,0,1-3.71-2.7,6.61,6.61,0,0,1-1.31-4.08,6.26,6.26,0,0,1,1-3.5,7.17,7.17,0,0,1,2.83-2.44,6.17,6.17,0,0,1-2.16-2.18,5.88,5.88,0,0,1-.76-3,6.18,6.18,0,0,1,1.22-3.81A7.89,7.89,0,0,1,29.8,20a13.65,13.65,0,0,1,5-.88,13.9,13.9,0,0,1,5.1.88,7.89,7.89,0,0,1,3.44,2.51,6.18,6.18,0,0,1,1.22,3.81,5.88,5.88,0,0,1-.76,3,6.1,6.1,0,0,1-2.19,2.18A7.13,7.13,0,0,1,44.51,33.94Zm-6.19,6a3.18,3.18,0,0,0,1.28-2.64,3.13,3.13,0,0,0-1.28-2.63,5.6,5.6,0,0,0-3.48-1,5.45,5.45,0,0,0-3.42,1,3.14,3.14,0,0,0-1.26,2.63,3.19,3.19,0,0,0,1.26,2.66,5.45,5.45,0,0,0,3.42,1A5.54,5.54,0,0,0,38.32,39.9ZM32,24.24A2.81,2.81,0,0,0,31,26.56a2.72,2.72,0,0,0,1,2.27,4.46,4.46,0,0,0,2.84.83,4.63,4.63,0,0,0,2.88-.83,2.7,2.7,0,0,0,1.08-2.27,2.8,2.8,0,0,0-1.08-2.32,4.57,4.57,0,0,0-2.88-.84A4.42,4.42,0,0,0,32,24.24Z"/><path class="cls-3" d="M127.06,46.75h-6.82l-1.3,3.15h-3.49L122,35.2h3.36l6.57,14.7h-3.57ZM126,44.17l-2.33-5.63-2.33,5.63Z"/><path class="cls-3" d="M144.64,34.32V49.9h-3.13V48.6A4.32,4.32,0,0,1,138,50.07a5.91,5.91,0,0,1-2.88-.71,5.11,5.11,0,0,1-2-2,6.72,6.72,0,0,1,0-6.13,5.11,5.11,0,0,1,2-2,5.8,5.8,0,0,1,2.88-.71,4.29,4.29,0,0,1,3.38,1.36V34.32Zm-4,12.21a3.57,3.57,0,0,0,0-4.55,2.74,2.74,0,0,0-2.06-.86,2.77,2.77,0,0,0-2.08.86,3.57,3.57,0,0,0,0,4.55,2.76,2.76,0,0,0,2.08.85A2.73,2.73,0,0,0,140.61,46.53Z"/><path class="cls-3" d="M158.88,38.6l-4.77,11.3h-3.38L146,38.6h3.38l3.13,7.69,3.24-7.69Z"/><path class="cls-3" d="M168.43,39.69a4.77,4.77,0,0,1,1.41,3.77V49.9h-3.07V48.5c-.61,1-1.76,1.57-3.44,1.57a5.42,5.42,0,0,1-2.26-.44,3.34,3.34,0,0,1-1.46-1.22,3.2,3.2,0,0,1-.5-1.76,2.94,2.94,0,0,1,1.18-2.48,6.08,6.08,0,0,1,3.67-.9h2.6a2.06,2.06,0,0,0-.65-1.65A2.82,2.82,0,0,0,164,41a5.75,5.75,0,0,0-1.78.28,4.82,4.82,0,0,0-1.48.77l-1.17-2.29a7.15,7.15,0,0,1,2.21-1,10.27,10.27,0,0,1,2.66-.35A5.84,5.84,0,0,1,168.43,39.69Zm-2.79,7.79a2.12,2.12,0,0,0,.92-1.15V45.18h-2.24c-1.35,0-2,.44-2,1.32a1.18,1.18,0,0,0,.49,1,2.26,2.26,0,0,0,1.36.37A2.86,2.86,0,0,0,165.64,47.48Z"/><path class="cls-3" d="M183.06,39.7a5,5,0,0,1,1.29,3.73V49.9h-3.28v-6a3,3,0,0,0-.58-2,2.18,2.18,0,0,0-1.71-.66,2.61,2.61,0,0,0-2,.77,3.17,3.17,0,0,0-.73,2.28V49.9H172.8V38.6h3.13v1.33a4.26,4.26,0,0,1,1.62-1.11,5.79,5.79,0,0,1,2.12-.38A4.64,4.64,0,0,1,183.06,39.7Z"/><path class="cls-3" d="M189.65,49.32a5.54,5.54,0,0,1-2.25-2.06,5.76,5.76,0,0,1-.8-3,5.7,5.7,0,0,1,.8-3,5.63,5.63,0,0,1,2.25-2.07,7,7,0,0,1,3.25-.74,6.37,6.37,0,0,1,3.12.74A4.51,4.51,0,0,1,198,41.31l-2.54,1.37a2.78,2.78,0,0,0-2.54-1.56,2.89,2.89,0,0,0-2.13.84,3.54,3.54,0,0,0,0,4.58,2.89,2.89,0,0,0,2.13.84,2.76,2.76,0,0,0,2.54-1.55L198,47.21a4.53,4.53,0,0,1-1.94,2.1,6.16,6.16,0,0,1-3.12.76A6.92,6.92,0,0,1,189.65,49.32Z"/><path class="cls-3" d="M200,36.5a1.77,1.77,0,0,1,0-2.6,2,2,0,0,1,1.47-.52,2.12,2.12,0,0,1,1.47.5,1.65,1.65,0,0,1,.56,1.26,1.78,1.78,0,0,1-.56,1.35,2.29,2.29,0,0,1-2.94,0Zm-.17,2.1h3.27V49.9h-3.27Z"/><path class="cls-3" d="M216.43,39.7a5,5,0,0,1,1.29,3.73V49.9h-3.28v-6a2.91,2.91,0,0,0-.59-2,2.14,2.14,0,0,0-1.7-.66,2.61,2.61,0,0,0-2,.77,3.17,3.17,0,0,0-.74,2.28V49.9h-3.27V38.6h3.13v1.33a4.3,4.3,0,0,1,1.61-1.11,5.87,5.87,0,0,1,2.12-.38A4.67,4.67,0,0,1,216.43,39.7Z"/><path class="cls-3" d="M232.46,38.6V48a6,6,0,0,1-1.62,4.62,6.64,6.64,0,0,1-4.72,1.51,12.1,12.1,0,0,1-3.11-.39,7,7,0,0,1-2.44-1.16l1.31-2.35a5.26,5.26,0,0,0,1.8.93,7.26,7.26,0,0,0,2.19.35,3.56,3.56,0,0,0,2.51-.77,3.08,3.08,0,0,0,.8-2.32V48a4.57,4.57,0,0,1-3.57,1.41,5.94,5.94,0,0,1-2.84-.69,5.19,5.19,0,0,1-2.05-1.92,5.81,5.81,0,0,1,0-5.71,5.19,5.19,0,0,1,2.05-1.92,5.93,5.93,0,0,1,2.84-.68,4.5,4.5,0,0,1,3.74,1.61V38.6Zm-4.06,7.3a2.84,2.84,0,0,0,0-4,3,3,0,0,0-2.13-.77,3.08,3.08,0,0,0-2.15.77,2.81,2.81,0,0,0,0,4,3.08,3.08,0,0,0,2.15.77A3,3,0,0,0,228.4,45.9Z"/><path class="cls-3" d="M251.43,35.85a5.26,5.26,0,0,1,2.22,7.51,5,5,0,0,1-2.22,1.85,8.24,8.24,0,0,1-3.39.64h-3v4h-3.4V35.2H248A8.23,8.23,0,0,1,251.43,35.85Zm-1.25,6.57a2.63,2.63,0,0,0,0-3.78,3.52,3.52,0,0,0-2.33-.67h-2.77v5.11h2.77A3.58,3.58,0,0,0,250.18,42.42Z"/><path class="cls-3" d="M258.76,49.32a5.49,5.49,0,0,1-2.21-2.06,5.67,5.67,0,0,1-.8-3,5.57,5.57,0,0,1,3-5.07,7.29,7.29,0,0,1,6.4,0,5.62,5.62,0,0,1,2.2,2.07,5.7,5.7,0,0,1,.8,3,5.76,5.76,0,0,1-.8,3,5.53,5.53,0,0,1-2.2,2.06,7.2,7.2,0,0,1-6.4,0ZM264,46.53A3.6,3.6,0,0,0,264,42a2.92,2.92,0,0,0-4.14,0,3.57,3.57,0,0,0,0,4.55,2.95,2.95,0,0,0,4.14,0Z"/><path class="cls-3" d="M270.34,34.32h3.28V49.9h-3.28Z"/><path class="cls-3" d="M276.83,36.5a1.79,1.79,0,0,1,0-2.6,2.37,2.37,0,0,1,2.94,0,1.62,1.62,0,0,1,.57,1.26,1.75,1.75,0,0,1-.57,1.35,2,2,0,0,1-1.47.54A2.09,2.09,0,0,1,276.83,36.5Zm-.17,2.1h3.28V49.9h-3.28Z"/><path class="cls-3" d="M285.2,49.32A5.54,5.54,0,0,1,283,47.26a5.76,5.76,0,0,1-.8-3,5.7,5.7,0,0,1,.8-3,5.63,5.63,0,0,1,2.25-2.07,7,7,0,0,1,3.25-.74,6.37,6.37,0,0,1,3.12.74,4.51,4.51,0,0,1,1.94,2.13L291,42.68a2.78,2.78,0,0,0-2.54-1.56,2.89,2.89,0,0,0-2.13.84,3.54,3.54,0,0,0,0,4.58,2.89,2.89,0,0,0,2.13.84A2.76,2.76,0,0,0,291,45.83l2.54,1.38a4.53,4.53,0,0,1-1.94,2.1,6.16,6.16,0,0,1-3.12.76A6.92,6.92,0,0,1,285.2,49.32Z"/><path class="cls-3" d="M295.56,36.5a1.79,1.79,0,0,1,0-2.6,2.37,2.37,0,0,1,2.94,0,1.62,1.62,0,0,1,.57,1.26,1.75,1.75,0,0,1-.57,1.35A2,2,0,0,1,297,37,2.09,2.09,0,0,1,295.56,36.5Zm-.16,2.1h3.27V49.9H295.4Z"/><path class="cls-3" d="M312.72,45.18h-8.55a2.69,2.69,0,0,0,1.1,1.66,3.63,3.63,0,0,0,2.14.61,4.18,4.18,0,0,0,1.56-.27,3.62,3.62,0,0,0,1.27-.83L312,48.24a5.87,5.87,0,0,1-4.67,1.83,7.35,7.35,0,0,1-3.38-.75,5.38,5.38,0,0,1-2.26-2.06,5.67,5.67,0,0,1-.8-3,5.74,5.74,0,0,1,.79-3,5.47,5.47,0,0,1,2.16-2.08,6.39,6.39,0,0,1,3.07-.74,6.28,6.28,0,0,1,3,.71A5.27,5.27,0,0,1,312,41.2a6.11,6.11,0,0,1,.76,3.1S312.76,44.63,312.72,45.18Zm-7.66-3.64a2.67,2.67,0,0,0-.93,1.73h5.57a2.64,2.64,0,0,0-.93-1.71,2.74,2.74,0,0,0-1.84-.65A2.8,2.8,0,0,0,305.06,41.54Z"/><path class="cls-3" d="M316,49.72a7.08,7.08,0,0,1-2.14-.87L315,46.5a7,7,0,0,0,1.83.79,7.72,7.72,0,0,0,2.1.3c1.38,0,2.07-.34,2.07-1a.72.72,0,0,0-.56-.69,8.52,8.52,0,0,0-1.75-.36,17.08,17.08,0,0,1-2.28-.48,3.44,3.44,0,0,1-1.57-1,2.74,2.74,0,0,1-.66-2,3.11,3.11,0,0,1,.62-1.9,4,4,0,0,1,1.8-1.29,7.74,7.74,0,0,1,2.81-.46,10.65,10.65,0,0,1,2.38.26,6.83,6.83,0,0,1,2,.72l-1.1,2.33a6.51,6.51,0,0,0-3.25-.84,3.28,3.28,0,0,0-1.58.3.85.85,0,0,0-.52.75.76.76,0,0,0,.57.74,10.24,10.24,0,0,0,1.8.4,19.49,19.49,0,0,1,2.27.49,3.44,3.44,0,0,1,1.53,1,2.67,2.67,0,0,1,.65,1.93,3,3,0,0,1-.63,1.87,4.06,4.06,0,0,1-1.83,1.27,8.24,8.24,0,0,1-2.87.45A11,11,0,0,1,316,49.72Z"/><path class="cls-3" d="M339.35,49.36a3.52,3.52,0,0,1-1.19.53,5.94,5.94,0,0,1-1.48.18,4.4,4.4,0,0,1-3.12-1,3.94,3.94,0,0,1-1.1-3V41.38h-1.74V38.86h1.74V36.1h3.28v2.76h2.81v2.52h-2.81V46a1.57,1.57,0,0,0,.36,1.1,1.38,1.38,0,0,0,1,.39,2.13,2.13,0,0,0,1.33-.42Z"/><path class="cls-3" d="M343,49.32a5.49,5.49,0,0,1-2.21-2.06,5.76,5.76,0,0,1-.8-3,5.7,5.7,0,0,1,.8-3A5.59,5.59,0,0,1,343,39.18a6.9,6.9,0,0,1,3.21-.74,6.79,6.79,0,0,1,3.19.74,5.56,5.56,0,0,1,2.2,2.07,5.7,5.7,0,0,1,.8,3,5.76,5.76,0,0,1-.8,3,5.47,5.47,0,0,1-2.2,2.06,6.68,6.68,0,0,1-3.19.75A6.79,6.79,0,0,1,343,49.32Zm5.27-2.79a3.6,3.6,0,0,0,0-4.55,2.71,2.71,0,0,0-2.06-.86,2.75,2.75,0,0,0-2.08.86,3.57,3.57,0,0,0,0,4.55,2.74,2.74,0,0,0,2.08.85A2.7,2.7,0,0,0,348.28,46.53Z"/><path class="cls-3" d="M127.14,61.05a5.27,5.27,0,0,1,2.21,7.51,5,5,0,0,1-2.21,1.85,8.25,8.25,0,0,1-3.4.64h-3v4h-3.4V60.4h6.36A8.25,8.25,0,0,1,127.14,61.05Zm-1.25,6.57a2.66,2.66,0,0,0,0-3.78,3.59,3.59,0,0,0-2.33-.67h-2.78v5.11h2.78A3.59,3.59,0,0,0,125.89,67.62Z"/><path class="cls-3" d="M137,64.06a5.86,5.86,0,0,1,2.3-.42v3c-.37,0-.61,0-.74,0a3,3,0,0,0-2.2.79,3.14,3.14,0,0,0-.8,2.36V75.1h-3.28V63.8h3.13v1.5A3.59,3.59,0,0,1,137,64.06Z"/><path class="cls-3" d="M152.18,70.38h-8.55A2.71,2.71,0,0,0,144.72,72a3.69,3.69,0,0,0,2.15.61,4.22,4.22,0,0,0,1.56-.27,3.62,3.62,0,0,0,1.27-.83l1.74,1.89a5.83,5.83,0,0,1-4.66,1.83,7.35,7.35,0,0,1-3.38-.75,5.41,5.41,0,0,1-2.27-2.06,5.76,5.76,0,0,1-.8-3,5.83,5.83,0,0,1,.79-3,5.61,5.61,0,0,1,2.16-2.08,6.46,6.46,0,0,1,3.08-.74,6.21,6.21,0,0,1,3,.71,5.29,5.29,0,0,1,2.12,2.05,6.11,6.11,0,0,1,.76,3.1S152.22,69.83,152.18,70.38Zm-7.67-3.64a2.7,2.7,0,0,0-.92,1.73h5.56a2.68,2.68,0,0,0-.92-1.72,2.79,2.79,0,0,0-1.85-.64A2.84,2.84,0,0,0,144.51,66.74Z"/><path class="cls-3" d="M165.43,63.8l-4.77,11.3h-3.38l-4.74-11.3h3.38l3.13,7.69,3.23-7.69Z"/><path class="cls-3" d="M177.46,70.38h-8.54A2.63,2.63,0,0,0,170,72a3.65,3.65,0,0,0,2.14.61,4.18,4.18,0,0,0,1.56-.27,3.75,3.75,0,0,0,1.28-.83l1.74,1.89a5.86,5.86,0,0,1-4.66,1.83,7.29,7.29,0,0,1-3.38-.75,5.35,5.35,0,0,1-2.27-2.06,5.67,5.67,0,0,1-.8-3,5.74,5.74,0,0,1,.79-3,5.47,5.47,0,0,1,2.16-2.08,6.43,6.43,0,0,1,3.08-.74,6.27,6.27,0,0,1,3,.71,5.27,5.27,0,0,1,2.11,2.05,6.12,6.12,0,0,1,.77,3.1S177.5,69.83,177.46,70.38Zm-7.66-3.64a2.71,2.71,0,0,0-.93,1.73h5.57a2.73,2.73,0,0,0-.92-1.72,3,3,0,0,0-3.72,0Z"/><path class="cls-3" d="M190,64.9a5,5,0,0,1,1.29,3.73V75.1H188v-6a3,3,0,0,0-.58-2,2.17,2.17,0,0,0-1.7-.66,2.62,2.62,0,0,0-2,.77,3.17,3.17,0,0,0-.73,2.28V75.1h-3.28V63.8h3.13v1.33A4.26,4.26,0,0,1,184.46,64a5.79,5.79,0,0,1,2.12-.38A4.64,4.64,0,0,1,190,64.9Z"/><path class="cls-3" d="M201.51,74.56a3.52,3.52,0,0,1-1.19.53,5.94,5.94,0,0,1-1.48.18,4.4,4.4,0,0,1-3.12-1,3.94,3.94,0,0,1-1.1-3V66.58h-1.74V64.06h1.74V61.31h3.28v2.75h2.81v2.52H197.9v4.6a1.57,1.57,0,0,0,.36,1.1,1.36,1.36,0,0,0,1,.39,2.13,2.13,0,0,0,1.33-.42Z"/><path class="cls-3" d="M223.66,60.4,217.3,75.1h-3.36L207.6,60.4h3.67l4.47,10.5,4.54-10.5Z"/><path class="cls-3" d="M225,61.7a1.77,1.77,0,0,1,0-2.6,2.06,2.06,0,0,1,1.47-.52,2.12,2.12,0,0,1,1.47.5,1.61,1.61,0,0,1,.56,1.26,1.74,1.74,0,0,1-.56,1.35,2.29,2.29,0,0,1-2.94,0Zm-.17,2.1h3.28V75.1h-3.28Z"/><path class="cls-3" d="M233.35,74.52a5.49,5.49,0,0,1-2.21-2.06,5.76,5.76,0,0,1-.8-3,5.7,5.7,0,0,1,.8-3,5.59,5.59,0,0,1,2.21-2.07,6.9,6.9,0,0,1,3.21-.74,6.79,6.79,0,0,1,3.19.74,5.56,5.56,0,0,1,2.2,2.07,5.7,5.7,0,0,1,.8,3,5.76,5.76,0,0,1-.8,3,5.47,5.47,0,0,1-2.2,2.06,6.68,6.68,0,0,1-3.19.75A6.79,6.79,0,0,1,233.35,74.52Zm5.27-2.79a3.61,3.61,0,0,0,0-4.56,2.74,2.74,0,0,0-2.06-.85,2.78,2.78,0,0,0-2.08.85,3.58,3.58,0,0,0,0,4.56,2.74,2.74,0,0,0,2.08.85A2.7,2.7,0,0,0,238.62,71.73Z"/><path class="cls-3" d="M244.93,59.52h3.28V75.1h-3.28Z"/><path class="cls-3" d="M262.26,70.38h-8.55A2.71,2.71,0,0,0,254.8,72a3.69,3.69,0,0,0,2.15.61,4.22,4.22,0,0,0,1.56-.27,3.62,3.62,0,0,0,1.27-.83l1.75,1.89a5.87,5.87,0,0,1-4.67,1.83,7.35,7.35,0,0,1-3.38-.75,5.47,5.47,0,0,1-2.27-2.06,5.76,5.76,0,0,1-.79-3,5.83,5.83,0,0,1,.78-3,5.57,5.57,0,0,1,2.17-2.08,6.39,6.39,0,0,1,3.07-.74,6.28,6.28,0,0,1,3,.71,5.27,5.27,0,0,1,2.11,2.05,6.11,6.11,0,0,1,.76,3.1S262.3,69.83,262.26,70.38Zm-7.67-3.64a2.7,2.7,0,0,0-.92,1.73h5.57a2.74,2.74,0,0,0-.93-1.72,2.79,2.79,0,0,0-1.85-.64A2.84,2.84,0,0,0,254.59,66.74Z"/><path class="cls-3" d="M274.77,64.9a5,5,0,0,1,1.29,3.73V75.1h-3.28v-6a3,3,0,0,0-.59-2,2.16,2.16,0,0,0-1.7-.66,2.61,2.61,0,0,0-2,.77,3.17,3.17,0,0,0-.74,2.28V75.1h-3.27V63.8h3.13v1.33A4.3,4.3,0,0,1,269.25,64a5.83,5.83,0,0,1,2.12-.38A4.68,4.68,0,0,1,274.77,64.9Z"/><path class="cls-3" d="M286.3,74.56a3.47,3.47,0,0,1-1.18.53,6,6,0,0,1-1.48.18,4.37,4.37,0,0,1-3.12-1,3.9,3.9,0,0,1-1.1-3V66.58h-1.75V64.06h1.75V61.31h3.27v2.75h2.82v2.52h-2.82v4.6a1.57,1.57,0,0,0,.37,1.1,1.35,1.35,0,0,0,1,.39,2.08,2.08,0,0,0,1.32-.42Z"/><path class="cls-3" d="M305.71,72.37V75.1H294.33V60.4h11.11v2.73h-7.73v3.19h6.82V69h-6.82v3.4Z"/><path class="cls-3" d="M315.22,75.1l-2.48-3.46-2.56,3.46h-3.57L311,69.41l-4.2-5.61h3.67l2.4,3.3,2.45-3.3h3.49l-4.2,5.53,4.37,5.77Z"/><path class="cls-3" d="M327.82,74.56a3.52,3.52,0,0,1-1.19.53,5.88,5.88,0,0,1-1.48.18,4.36,4.36,0,0,1-3.11-1,3.9,3.9,0,0,1-1.11-3V66.58h-1.74V64.06h1.74V61.31h3.28v2.75H327v2.52h-2.81v4.6a1.53,1.53,0,0,0,.37,1.1,1.35,1.35,0,0,0,1,.39,2.12,2.12,0,0,0,1.32-.42Z"/><path class="cls-3" d="M334.38,64.06a5.93,5.93,0,0,1,2.3-.42v3c-.36,0-.61,0-.73,0a3,3,0,0,0-2.21.79,3.17,3.17,0,0,0-.79,2.36V75.1h-3.28V63.8h3.13v1.5A3.62,3.62,0,0,1,334.38,64.06Z"/><path class="cls-3" d="M349.53,70.38H341A2.67,2.67,0,0,0,342.08,72a3.65,3.65,0,0,0,2.14.61,4.27,4.27,0,0,0,1.57-.27,3.81,3.81,0,0,0,1.27-.83l1.74,1.89a5.85,5.85,0,0,1-4.66,1.83,7.32,7.32,0,0,1-3.38-.75,5.41,5.41,0,0,1-2.27-2.06,6.06,6.06,0,0,1,0-6,5.47,5.47,0,0,1,2.16-2.08,6.43,6.43,0,0,1,3.08-.74,6.27,6.27,0,0,1,3,.71,5.2,5.2,0,0,1,2.11,2.05,6.12,6.12,0,0,1,.77,3.1S349.58,69.83,349.53,70.38Zm-7.66-3.64a2.7,2.7,0,0,0-.92,1.73h5.56a2.73,2.73,0,0,0-.92-1.72,3,3,0,0,0-3.72,0Z"/><path class="cls-3" d="M369.62,64.89a5.09,5.09,0,0,1,1.25,3.74V75.1H367.6v-6a3.07,3.07,0,0,0-.56-2,2,2,0,0,0-1.59-.66,2.3,2.3,0,0,0-1.82.75,3.18,3.18,0,0,0-.68,2.21V75.1h-3.27v-6c0-1.78-.72-2.67-2.14-2.67a2.31,2.31,0,0,0-1.81.75,3.18,3.18,0,0,0-.67,2.21V75.1h-3.28V63.8h3.13v1.31a4.26,4.26,0,0,1,1.54-1.1,5.25,5.25,0,0,1,2-.37,4.76,4.76,0,0,1,2.16.47,3.82,3.82,0,0,1,1.56,1.37,4.63,4.63,0,0,1,1.75-1.36,5.57,5.57,0,0,1,2.32-.48A4.53,4.53,0,0,1,369.62,64.89Z"/><path class="cls-3" d="M374,61.7a1.77,1.77,0,0,1,0-2.6,2.08,2.08,0,0,1,1.47-.52,2.12,2.12,0,0,1,1.47.5,1.62,1.62,0,0,1,.57,1.26,1.75,1.75,0,0,1-.57,1.35,2.05,2.05,0,0,1-1.47.54A2.09,2.09,0,0,1,374,61.7Zm-.17,2.1h3.28V75.1h-3.28Z"/><path class="cls-3" d="M381.18,74.92a7.19,7.19,0,0,1-2.14-.87l1.09-2.35a7.2,7.2,0,0,0,1.83.79,7.72,7.72,0,0,0,2.1.3c1.39,0,2.08-.34,2.08-1a.73.73,0,0,0-.57-.69,8.55,8.55,0,0,0-1.74-.36,16.93,16.93,0,0,1-2.29-.48,3.55,3.55,0,0,1-1.57-1,2.74,2.74,0,0,1-.66-2,3.11,3.11,0,0,1,.62-1.9,4.08,4.08,0,0,1,1.81-1.29,7.64,7.64,0,0,1,2.8-.46,10.8,10.8,0,0,1,2.39.26,6.76,6.76,0,0,1,2,.72L387.8,67a6.54,6.54,0,0,0-3.26-.84,3.23,3.23,0,0,0-1.57.3.86.86,0,0,0-.53.75.76.76,0,0,0,.57.74,10.4,10.4,0,0,0,1.81.4,19.73,19.73,0,0,1,2.26.49,3.52,3.52,0,0,1,1.54,1,2.71,2.71,0,0,1,.65,1.93,3,3,0,0,1-.63,1.87,4.09,4.09,0,0,1-1.84,1.27,8.24,8.24,0,0,1-2.87.45A11,11,0,0,1,381.18,74.92Z"/><path class="cls-3" d="M409.12,64.89a5,5,0,0,1,1.25,3.74V75.1H407.1v-6a3.07,3.07,0,0,0-.56-2,2,2,0,0,0-1.59-.66,2.3,2.3,0,0,0-1.82.75,3.18,3.18,0,0,0-.68,2.21V75.1h-3.27v-6c0-1.78-.71-2.67-2.14-2.67a2.31,2.31,0,0,0-1.81.75,3.18,3.18,0,0,0-.67,2.21V75.1h-3.28V63.8h3.13v1.31A4.22,4.22,0,0,1,396,64a5.2,5.2,0,0,1,2-.37,4.76,4.76,0,0,1,2.16.47,3.76,3.76,0,0,1,1.56,1.37,4.63,4.63,0,0,1,1.75-1.36,5.57,5.57,0,0,1,2.32-.48A4.51,4.51,0,0,1,409.12,64.89Z"/></svg>