<svg id="Layer_1" data-name="Layer 1" xmlns="http://www.w3.org/2000/svg" viewBox="0 0 474.47 113.33"><defs><style>.cls-1{fill:#fff;}.cls-2{fill:#2d9647;}.cls-3{fill:#19486a;}</style></defs><rect class="cls-1" width="474.47" height="113.33"/><polygon class="cls-2" points="0 113.33 0 0 113.33 0 0 113.33"/><path class="cls-1" d="M41.25,32.27A6.77,6.77,0,0,1,43,37a7.54,7.54,0,0,1-1.16,4.05,7.89,7.89,0,0,1-3.51,3,13.46,13.46,0,0,1-5.77,1.12,19.71,19.71,0,0,1-5.24-.71,13.4,13.4,0,0,1-4.38-2L25.23,38a11.09,11.09,0,0,0,3.33,1.68,13,13,0,0,0,3.87.59,6.09,6.09,0,0,0,3.46-.85A2.71,2.71,0,0,0,37.15,37c0-2.06-1.57-3.1-4.72-3.1H29.77V30.09L35,24.22H24.22V19.54H41.86v3.78L36.18,29.8A8.5,8.5,0,0,1,41.25,32.27Z"/><path class="cls-3" d="M119.54,62.11a7.7,7.7,0,0,1-2.62-1.23l1.16-2.56a7.89,7.89,0,0,0,2.25,1.12,8.37,8.37,0,0,0,2.6.42,4.1,4.1,0,0,0,2.14-.44,1.27,1.27,0,0,0,.7-1.14,1.1,1.1,0,0,0-.41-.87,3.27,3.27,0,0,0-1-.56c-.43-.14-1-.29-1.74-.46a24.24,24.24,0,0,1-2.75-.8A4.39,4.39,0,0,1,118,54.31a3.41,3.41,0,0,1-.77-2.35,4.1,4.1,0,0,1,.69-2.32A4.71,4.71,0,0,1,120,48a8.45,8.45,0,0,1,3.41-.61,11.1,11.1,0,0,1,2.76.34,8.16,8.16,0,0,1,2.35,1l-1.05,2.59a8.23,8.23,0,0,0-4.08-1.16,3.91,3.91,0,0,0-2.11.46,1.43,1.43,0,0,0-.68,1.22,1.18,1.18,0,0,0,.79,1.12,11.88,11.88,0,0,0,2.4.73,23.64,23.64,0,0,1,2.75.8,4.4,4.4,0,0,1,1.84,1.26,3.38,3.38,0,0,1,.77,2.33,4,4,0,0,1-.71,2.3A4.77,4.77,0,0,1,126.33,62a8.72,8.72,0,0,1-3.42.6A11.83,11.83,0,0,1,119.54,62.11Z"/><path class="cls-3" d="M138.53,61.79a3.29,3.29,0,0,1-1.18.53,6,6,0,0,1-1.48.18,4.37,4.37,0,0,1-3.12-1,3.9,3.9,0,0,1-1.1-3V53.81H129.9V51.29h1.75V48.54h3.27v2.75h2.82v2.52h-2.82v4.6a1.53,1.53,0,0,0,.37,1.1,1.35,1.35,0,0,0,1,.39,2.08,2.08,0,0,0,1.32-.42Z"/><path class="cls-3" d="M145.1,51.29a5.86,5.86,0,0,1,2.3-.42v3c-.37,0-.61,0-.74,0a3,3,0,0,0-2.2.79,3.14,3.14,0,0,0-.8,2.36v5.33h-3.28V51h3.13v1.49A3.59,3.59,0,0,1,145.1,51.29Z"/><path class="cls-3" d="M151.42,61.76a5.55,5.55,0,0,1-2.22-2.07,5.76,5.76,0,0,1-.8-3,5.7,5.7,0,0,1,.8-3,5.55,5.55,0,0,1,2.22-2.07,7.27,7.27,0,0,1,6.39,0,5.54,5.54,0,0,1,3,5.07,5.76,5.76,0,0,1-.79,3,5.65,5.65,0,0,1-2.21,2.07,7.27,7.27,0,0,1-6.39,0Zm5.27-2.8a3.6,3.6,0,0,0,0-4.55,2.73,2.73,0,0,0-2.07-.86,2.77,2.77,0,0,0-2.08.86,3.57,3.57,0,0,0,0,4.55,2.76,2.76,0,0,0,2.08.85A2.72,2.72,0,0,0,156.69,59Z"/><path class="cls-3" d="M173.26,52.13a5,5,0,0,1,1.29,3.74v6.46h-3.28v-6a2.91,2.91,0,0,0-.59-2,2.14,2.14,0,0,0-1.7-.66,2.61,2.61,0,0,0-2,.77,3.17,3.17,0,0,0-.74,2.28v5.58H163V51h3.13v1.32a4.17,4.17,0,0,1,1.61-1.1,5.68,5.68,0,0,1,2.13-.39A4.66,4.66,0,0,1,173.26,52.13Z"/><path class="cls-3" d="M189.29,51v9.4a6,6,0,0,1-1.62,4.62A6.65,6.65,0,0,1,183,66.58a12.1,12.1,0,0,1-3.11-.4A6.87,6.87,0,0,1,177.41,65l1.3-2.35a5.36,5.36,0,0,0,1.8.93,7.26,7.26,0,0,0,2.19.35,3.56,3.56,0,0,0,2.51-.77,3,3,0,0,0,.8-2.32v-.48a4.56,4.56,0,0,1-3.56,1.41,6,6,0,0,1-2.85-.69,5.19,5.19,0,0,1-2-1.92,5.36,5.36,0,0,1-.75-2.85,5.42,5.42,0,0,1,.75-2.86,5.26,5.26,0,0,1,2-1.92,5.94,5.94,0,0,1,2.85-.68,4.49,4.49,0,0,1,3.73,1.61V51Zm-4.06,7.29a2.84,2.84,0,0,0,0-4,3,3,0,0,0-2.13-.77,3.08,3.08,0,0,0-2.15.77,2.81,2.81,0,0,0,0,4,3.08,3.08,0,0,0,2.15.77A3,3,0,0,0,185.23,58.33Z"/><path class="cls-3" d="M203.34,57.61h-8.55a2.71,2.71,0,0,0,1.09,1.66,3.69,3.69,0,0,0,2.15.61,4.22,4.22,0,0,0,1.56-.27,3.62,3.62,0,0,0,1.27-.83l1.74,1.89a5.83,5.83,0,0,1-4.66,1.83,7.47,7.47,0,0,1-3.38-.74,5.56,5.56,0,0,1-2.27-2.07,5.76,5.76,0,0,1-.79-3,5.83,5.83,0,0,1,.78-3,5.57,5.57,0,0,1,2.17-2.08,6.74,6.74,0,0,1,6.08,0,5.27,5.27,0,0,1,2.11,2.05,6.11,6.11,0,0,1,.76,3.1S203.38,57.06,203.34,57.61ZM195.67,54a2.68,2.68,0,0,0-.92,1.72h5.57a2.69,2.69,0,0,0-.93-1.71,2.75,2.75,0,0,0-1.85-.65A2.79,2.79,0,0,0,195.67,54Z"/><path class="cls-3" d="M210.3,51.29a5.9,5.9,0,0,1,2.3-.42v3c-.36,0-.61,0-.73,0a3,3,0,0,0-2.21.79,3.18,3.18,0,0,0-.8,2.36v5.33h-3.27V51h3.12v1.49A3.7,3.7,0,0,1,210.3,51.29Z"/><path class="cls-3" d="M234.29,47.63v14.7h-3.4v-6h-6.68v6h-3.4V47.63h3.4v5.8h6.68v-5.8Z"/><path class="cls-3" d="M248.55,57.61H240a2.69,2.69,0,0,0,1.1,1.66,3.63,3.63,0,0,0,2.14.61,4.18,4.18,0,0,0,1.56-.27,3.62,3.62,0,0,0,1.27-.83l1.75,1.89a5.86,5.86,0,0,1-4.66,1.83,7.48,7.48,0,0,1-3.39-.74,5.47,5.47,0,0,1-2.26-2.07,5.67,5.67,0,0,1-.8-3,5.74,5.74,0,0,1,.79-3,5.47,5.47,0,0,1,2.16-2.08,6.74,6.74,0,0,1,6.08,0,5.27,5.27,0,0,1,2.11,2.05,6.12,6.12,0,0,1,.77,3.1S248.59,57.06,248.55,57.61ZM240.89,54A2.69,2.69,0,0,0,240,55.7h5.57A2.64,2.64,0,0,0,244.6,54a3,3,0,0,0-3.71,0Z"/><path class="cls-3" d="M259.07,52.12a4.77,4.77,0,0,1,1.41,3.77v6.44h-3.07v-1.4c-.61,1-1.76,1.57-3.44,1.57a5.42,5.42,0,0,1-2.26-.44,3.39,3.39,0,0,1-1.46-1.22,3.2,3.2,0,0,1-.5-1.76,2.92,2.92,0,0,1,1.19-2.48,6,6,0,0,1,3.66-.9h2.6a2.06,2.06,0,0,0-.65-1.65,2.82,2.82,0,0,0-2-.58,6,6,0,0,0-1.77.28,4.76,4.76,0,0,0-1.49.77l-1.17-2.29a7.15,7.15,0,0,1,2.21-1,10.33,10.33,0,0,1,2.66-.35A5.84,5.84,0,0,1,259.07,52.12Zm-2.79,7.79a2.12,2.12,0,0,0,.92-1.15V57.61H255c-1.35,0-2,.44-2,1.32a1.21,1.21,0,0,0,.49,1,2.26,2.26,0,0,0,1.36.37A2.83,2.83,0,0,0,256.28,59.91Z"/><path class="cls-3" d="M263.44,46.75h3.28V62.33h-3.28Z"/><path class="cls-3" d="M277.87,61.79a3.42,3.42,0,0,1-1.19.53,5.94,5.94,0,0,1-1.48.18,4.4,4.4,0,0,1-3.12-1,3.94,3.94,0,0,1-1.1-3V53.81h-1.74V51.29H271V48.54h3.27v2.75h2.82v2.52h-2.82v4.6a1.57,1.57,0,0,0,.37,1.1,1.36,1.36,0,0,0,1,.39,2.13,2.13,0,0,0,1.33-.42Z"/><path class="cls-3" d="M290,52.13a5,5,0,0,1,1.29,3.74v6.46H288v-6a3,3,0,0,0-.59-2,2.16,2.16,0,0,0-1.7-.66,2.6,2.6,0,0,0-2,.77,3.17,3.17,0,0,0-.74,2.28v5.58h-3.28V46.75H283v5.46a4.36,4.36,0,0,1,1.58-1,5.65,5.65,0,0,1,2-.34A4.64,4.64,0,0,1,290,52.13Z"/><path class="cls-3" d="M301.86,62.11a7.55,7.55,0,0,1-2.61-1.23l1.15-2.56a7.89,7.89,0,0,0,2.25,1.12,8.37,8.37,0,0,0,2.6.42,4.1,4.1,0,0,0,2.14-.44,1.27,1.27,0,0,0,.7-1.14,1.1,1.1,0,0,0-.41-.87,3.27,3.27,0,0,0-1.05-.56c-.43-.14-1-.29-1.74-.46a24.24,24.24,0,0,1-2.75-.8,4.39,4.39,0,0,1-1.83-1.28,3.41,3.41,0,0,1-.77-2.35,4.1,4.1,0,0,1,.69-2.32A4.71,4.71,0,0,1,302.32,48a8.45,8.45,0,0,1,3.41-.61,11.1,11.1,0,0,1,2.76.34,8,8,0,0,1,2.35,1l-1,2.59a8.23,8.23,0,0,0-4.08-1.16,3.91,3.91,0,0,0-2.11.46,1.43,1.43,0,0,0-.68,1.22,1.18,1.18,0,0,0,.79,1.12,11.88,11.88,0,0,0,2.4.73,23.64,23.64,0,0,1,2.75.8,4.4,4.4,0,0,1,1.84,1.26,3.38,3.38,0,0,1,.77,2.33,4,4,0,0,1-.71,2.3A4.77,4.77,0,0,1,308.65,62a8.72,8.72,0,0,1-3.42.6A11.83,11.83,0,0,1,301.86,62.11Z"/><path class="cls-3" d="M324.57,51l-5.1,12a5.93,5.93,0,0,1-1.92,2.75,4.75,4.75,0,0,1-2.76.8A5.87,5.87,0,0,1,313,66.3a3.94,3.94,0,0,1-1.41-.75l1.2-2.34a2.75,2.75,0,0,0,.87.53,2.66,2.66,0,0,0,1,.19,1.71,1.71,0,0,0,1.09-.33,2.72,2.72,0,0,0,.76-1.08l0-.1L311.68,51h3.38l3.17,7.66L321.42,51Z"/><path class="cls-3" d="M326.8,62.15a7.26,7.26,0,0,1-2.15-.87l1.1-2.35a6.79,6.79,0,0,0,1.82.79,7.83,7.83,0,0,0,2.1.3c1.39,0,2.08-.34,2.08-1a.73.73,0,0,0-.56-.69,8.52,8.52,0,0,0-1.75-.36,17.27,17.27,0,0,1-2.29-.48,3.53,3.53,0,0,1-1.56-1,2.77,2.77,0,0,1-.66-2,3,3,0,0,1,.62-1.9,4,4,0,0,1,1.8-1.29,7.7,7.7,0,0,1,2.81-.46,10.71,10.71,0,0,1,2.38.26,6.65,6.65,0,0,1,2,.72l-1.09,2.34a6.51,6.51,0,0,0-3.25-.85,3.28,3.28,0,0,0-1.58.3.86.86,0,0,0-.52.76.75.75,0,0,0,.56.73,10.4,10.4,0,0,0,1.81.4,20,20,0,0,1,2.27.49,3.44,3.44,0,0,1,1.53,1,2.71,2.71,0,0,1,.65,1.93,3,3,0,0,1-.63,1.87,4,4,0,0,1-1.84,1.27,8.18,8.18,0,0,1-2.86.45A10.53,10.53,0,0,1,326.8,62.15Z"/><path class="cls-3" d="M344.18,61.79a3.29,3.29,0,0,1-1.18.53,5.94,5.94,0,0,1-1.48.18,4.37,4.37,0,0,1-3.12-1,3.9,3.9,0,0,1-1.1-3V53.81h-1.75V51.29h1.75V48.54h3.27v2.75h2.82v2.52h-2.82v4.6a1.57,1.57,0,0,0,.37,1.1,1.35,1.35,0,0,0,1,.39,2.08,2.08,0,0,0,1.32-.42Z"/><path class="cls-3" d="M356.68,57.61h-8.55a2.71,2.71,0,0,0,1.09,1.66,3.69,3.69,0,0,0,2.15.61,4.18,4.18,0,0,0,1.56-.27,3.62,3.62,0,0,0,1.27-.83L356,60.67a5.87,5.87,0,0,1-4.67,1.83,7.47,7.47,0,0,1-3.38-.74,5.56,5.56,0,0,1-2.27-2.07,5.76,5.76,0,0,1-.79-3,5.83,5.83,0,0,1,.78-3,5.57,5.57,0,0,1,2.17-2.08,6.74,6.74,0,0,1,6.08,0A5.27,5.27,0,0,1,356,53.63a6.11,6.11,0,0,1,.76,3.1S356.72,57.06,356.68,57.61ZM349,54a2.68,2.68,0,0,0-.92,1.72h5.57a2.69,2.69,0,0,0-.93-1.71,2.75,2.75,0,0,0-1.85-.65A2.79,2.79,0,0,0,349,54Z"/><path class="cls-3" d="M376.77,52.12A5.1,5.1,0,0,1,378,55.87v6.46h-3.28v-6a3.07,3.07,0,0,0-.56-2,2,2,0,0,0-1.58-.66,2.34,2.34,0,0,0-1.83.75,3.18,3.18,0,0,0-.67,2.21v5.67h-3.28v-6c0-1.78-.71-2.67-2.14-2.67a2.27,2.27,0,0,0-1.8.75,3.18,3.18,0,0,0-.68,2.21v5.67h-3.27V51h3.13v1.3a4,4,0,0,1,1.54-1.09,5.07,5.07,0,0,1,2-.38,4.82,4.82,0,0,1,2.16.47,3.8,3.8,0,0,1,1.55,1.37,4.67,4.67,0,0,1,1.76-1.36,5.54,5.54,0,0,1,2.32-.48A4.54,4.54,0,0,1,376.77,52.12Z"/><path class="cls-3" d="M382,62.15a7.31,7.31,0,0,1-2.14-.87l1.1-2.35a6.79,6.79,0,0,0,1.82.79,7.83,7.83,0,0,0,2.1.3c1.39,0,2.08-.34,2.08-1a.73.73,0,0,0-.57-.69,8.25,8.25,0,0,0-1.74-.36,17.27,17.27,0,0,1-2.29-.48,3.53,3.53,0,0,1-1.56-1,2.77,2.77,0,0,1-.66-2,3,3,0,0,1,.62-1.9,4,4,0,0,1,1.8-1.29,7.7,7.7,0,0,1,2.81-.46,10.71,10.71,0,0,1,2.38.26,6.76,6.76,0,0,1,2,.72l-1.09,2.34a6.51,6.51,0,0,0-3.25-.85,3.28,3.28,0,0,0-1.58.3.86.86,0,0,0-.52.76.74.74,0,0,0,.56.73,10.4,10.4,0,0,0,1.81.4,20,20,0,0,1,2.27.49,3.55,3.55,0,0,1,1.53,1,2.71,2.71,0,0,1,.65,1.93,3,3,0,0,1-.63,1.87,4,4,0,0,1-1.84,1.27,8.18,8.18,0,0,1-2.86.45A10.66,10.66,0,0,1,382,62.15Z"/></svg>