<svg id="Layer_1" data-name="Layer 1" xmlns="http://www.w3.org/2000/svg" viewBox="0 0 474.47 113.33"><defs><style>.cls-1{fill:#fff;}.cls-2{fill:#2d9647;}.cls-3{fill:#19486a;}</style></defs><rect class="cls-1" width="474.47" height="113.33"/><polygon class="cls-2" points="0 113.33 0 0 113.33 0 0 113.33"/><path class="cls-1" d="M47.48,39.45h-4.1v5.29H37.69V39.45H24.12V35.53L36,19.54h6.12L31.1,34.7h6.77V30h5.51V34.7h4.1Z"/><path class="cls-3" d="M130.42,45.46a3.65,3.65,0,0,1,.72,2.3,3.39,3.39,0,0,1-1.5,3,7.7,7.7,0,0,1-4.38,1h-7.6V37.07h7.18a7,7,0,0,1,4.13,1,3.28,3.28,0,0,1,1.43,2.79,3.54,3.54,0,0,1-2,3.24A3.82,3.82,0,0,1,130.42,45.46ZM121,39.63V43.1h3.38a3.43,3.43,0,0,0,1.91-.44,1.49,1.49,0,0,0,.65-1.31,1.46,1.46,0,0,0-.65-1.29,3.53,3.53,0,0,0-1.91-.43Zm6,9.14a1.52,1.52,0,0,0,.69-1.37c0-1.22-.91-1.82-2.71-1.82h-4v3.63h4A3.78,3.78,0,0,0,127,48.77Z"/><path class="cls-3" d="M144.49,47.05H136A2.62,2.62,0,0,0,137,48.7a3.58,3.58,0,0,0,2.14.61,4.27,4.27,0,0,0,1.57-.26,3.81,3.81,0,0,0,1.27-.83l1.74,1.89a5.85,5.85,0,0,1-4.66,1.83,7.32,7.32,0,0,1-3.38-.75,5.37,5.37,0,0,1-2.27-2.07,6,6,0,0,1,0-6,5.47,5.47,0,0,1,2.16-2.08,6.65,6.65,0,0,1,6.08,0,5.14,5.14,0,0,1,2.11,2,6.11,6.11,0,0,1,.77,3.09C144.56,46.21,144.54,46.5,144.49,47.05Zm-7.66-3.64a2.7,2.7,0,0,0-.92,1.72h5.56a2.73,2.73,0,0,0-.92-1.71,3,3,0,0,0-3.72,0Z"/><path class="cls-3" d="M154,51.22a3.35,3.35,0,0,1-1.19.54,5.94,5.94,0,0,1-1.48.18,4.4,4.4,0,0,1-3.12-1,4,4,0,0,1-1.1-3V43.24H145.4V40.72h1.74V38h3.28v2.75h2.81v2.52h-2.81v4.6a1.58,1.58,0,0,0,.36,1.11,1.36,1.36,0,0,0,1,.38,2.13,2.13,0,0,0,1.33-.42Z"/><path class="cls-3" d="M162.91,51.22a3.38,3.38,0,0,1-1.18.54,6,6,0,0,1-1.49.18,4.36,4.36,0,0,1-3.11-1,3.92,3.92,0,0,1-1.11-3V43.24h-1.74V40.72H156V38h3.28v2.75h2.81v2.52H159.3v4.6a1.54,1.54,0,0,0,.37,1.11,1.35,1.35,0,0,0,1,.38,2.1,2.1,0,0,0,1.32-.42Z"/><path class="cls-3" d="M175.41,47.05h-8.55A2.62,2.62,0,0,0,168,48.7a3.58,3.58,0,0,0,2.14.61,4.27,4.27,0,0,0,1.57-.26,3.71,3.71,0,0,0,1.27-.83l1.74,1.89A5.85,5.85,0,0,1,170,51.94a7.32,7.32,0,0,1-3.38-.75,5.37,5.37,0,0,1-2.27-2.07,6,6,0,0,1,0-6,5.54,5.54,0,0,1,2.16-2.08,6.35,6.35,0,0,1,3.08-.75,6.25,6.25,0,0,1,3,.72,5.14,5.14,0,0,1,2.11,2,6.11,6.11,0,0,1,.77,3.09C175.47,46.21,175.45,46.5,175.41,47.05Zm-7.67-3.64a2.7,2.7,0,0,0-.92,1.72h5.56a2.73,2.73,0,0,0-.92-1.71,2.81,2.81,0,0,0-1.85-.64A2.84,2.84,0,0,0,167.74,43.41Z"/><path class="cls-3" d="M182.37,40.72a5.86,5.86,0,0,1,2.3-.42v3c-.37,0-.61,0-.74,0a3,3,0,0,0-2.2.78,3.18,3.18,0,0,0-.8,2.37v5.33h-3.28V40.47h3.13V42A3.66,3.66,0,0,1,182.37,40.72Z"/><path class="cls-3" d="M206.26,51.77l0-8.82-4.32,7.27h-1.53l-4.31-7.08v8.63h-3.19V37.07h2.81l5.5,9.14,5.42-9.14h2.79l0,14.7Z"/><path class="cls-3" d="M221.29,41.55a4.79,4.79,0,0,1,1.41,3.77v6.45h-3.07V50.36a3.64,3.64,0,0,1-3.44,1.58,5.42,5.42,0,0,1-2.26-.44,3.4,3.4,0,0,1-1.46-1.22,3.23,3.23,0,0,1-.5-1.76A2.94,2.94,0,0,1,213.15,46a6.08,6.08,0,0,1,3.67-.91h2.6a2.08,2.08,0,0,0-.65-1.64,2.82,2.82,0,0,0-2-.58,5.71,5.71,0,0,0-1.78.28,4.82,4.82,0,0,0-1.48.77l-1.17-2.29a7.15,7.15,0,0,1,2.21-1,9.87,9.87,0,0,1,2.66-.36A5.89,5.89,0,0,1,221.29,41.55Zm-2.79,7.8a2.16,2.16,0,0,0,.92-1.15V47.05h-2.24c-1.35,0-2,.44-2,1.32a1.18,1.18,0,0,0,.49,1,2.26,2.26,0,0,0,1.36.36A3,3,0,0,0,218.5,49.35Z"/><path class="cls-3" d="M233,51.22a3.43,3.43,0,0,1-1.19.54,5.94,5.94,0,0,1-1.48.18,4.4,4.4,0,0,1-3.12-1,4,4,0,0,1-1.1-3V43.24h-1.74V40.72h1.74V38h3.27v2.75h2.82v2.52h-2.82v4.6A1.58,1.58,0,0,0,229.7,49a1.36,1.36,0,0,0,1,.38,2.08,2.08,0,0,0,1.32-.42Z"/><path class="cls-3" d="M245.44,47.05h-8.55A2.66,2.66,0,0,0,238,48.7a3.61,3.61,0,0,0,2.15.61,4.18,4.18,0,0,0,1.56-.26,3.62,3.62,0,0,0,1.27-.83l1.75,1.89A5.87,5.87,0,0,1,240,51.94a7.35,7.35,0,0,1-3.38-.75,5.42,5.42,0,0,1-2.27-2.07,5.7,5.7,0,0,1-.79-3,5.83,5.83,0,0,1,.78-3,5.57,5.57,0,0,1,2.17-2.08,6.66,6.66,0,0,1,6.08,0,5.2,5.2,0,0,1,2.11,2,6.1,6.1,0,0,1,.76,3.09C245.5,46.21,245.48,46.5,245.44,47.05Zm-7.67-3.64a2.7,2.7,0,0,0-.92,1.72h5.57a2.74,2.74,0,0,0-.93-1.71,2.79,2.79,0,0,0-1.85-.64A2.84,2.84,0,0,0,237.77,43.41Z"/><path class="cls-3" d="M252.4,40.72a5.9,5.9,0,0,1,2.3-.42v3c-.36,0-.61,0-.73,0a3,3,0,0,0-2.21.78,3.22,3.22,0,0,0-.8,2.37v5.33h-3.27V40.47h3.13V42A3.69,3.69,0,0,1,252.4,40.72Z"/><path class="cls-3" d="M266.91,41.56a5,5,0,0,1,1.29,3.74v6.47h-3.27v-6a3,3,0,0,0-.59-2,2.16,2.16,0,0,0-1.7-.66,2.56,2.56,0,0,0-2,.77,3.16,3.16,0,0,0-.74,2.27v5.59h-3.28V40.47h3.13V41.8a4.42,4.42,0,0,1,1.62-1.11,5.59,5.59,0,0,1,2.12-.39A4.64,4.64,0,0,1,266.91,41.56Z"/><path class="cls-3" d="M279.75,41.55a4.79,4.79,0,0,1,1.41,3.77v6.45H278.1V50.36a3.67,3.67,0,0,1-3.45,1.58,5.42,5.42,0,0,1-2.26-.44,3.38,3.38,0,0,1-1.45-1.22,3.15,3.15,0,0,1-.51-1.76A3,3,0,0,1,271.62,46a6,6,0,0,1,3.66-.91h2.61a2.05,2.05,0,0,0-.66-1.64,2.82,2.82,0,0,0-2-.58,5.65,5.65,0,0,0-1.77.28A4.7,4.7,0,0,0,272,44l-1.18-2.29a7.32,7.32,0,0,1,2.22-1,9.79,9.79,0,0,1,2.65-.36A5.88,5.88,0,0,1,279.75,41.55ZM277,49.35a2.18,2.18,0,0,0,.93-1.15V47.05h-2.25c-1.35,0-2,.44-2,1.32a1.19,1.19,0,0,0,.5,1,2.23,2.23,0,0,0,1.35.36A2.92,2.92,0,0,0,277,49.35Z"/><path class="cls-3" d="M284.12,36.19h3.28V51.77h-3.28Z"/><path class="cls-3" d="M305,41.55a4.82,4.82,0,0,1,1.4,3.77v6.45h-3.06V50.36a3.67,3.67,0,0,1-3.45,1.58,5.42,5.42,0,0,1-2.26-.44,3.38,3.38,0,0,1-1.45-1.22,3.15,3.15,0,0,1-.51-1.76A3,3,0,0,1,296.84,46a6,6,0,0,1,3.66-.91h2.61a2.08,2.08,0,0,0-.65-1.64,2.87,2.87,0,0,0-2-.58,5.65,5.65,0,0,0-1.77.28,4.7,4.7,0,0,0-1.48.77l-1.18-2.29a7.32,7.32,0,0,1,2.22-1,9.79,9.79,0,0,1,2.65-.36A5.92,5.92,0,0,1,305,41.55Zm-2.8,7.8a2.18,2.18,0,0,0,.93-1.15V47.05h-2.25c-1.34,0-2,.44-2,1.32a1.19,1.19,0,0,0,.5,1,2.25,2.25,0,0,0,1.35.36A2.92,2.92,0,0,0,302.18,49.35Z"/><path class="cls-3" d="M319.6,41.56a5,5,0,0,1,1.29,3.74v6.47h-3.27v-6a3,3,0,0,0-.59-2,2.16,2.16,0,0,0-1.7-.66,2.58,2.58,0,0,0-2,.77,3.16,3.16,0,0,0-.73,2.27v5.59h-3.28V40.47h3.13V41.8a4.34,4.34,0,0,1,1.62-1.11,5.59,5.59,0,0,1,2.12-.39A4.64,4.64,0,0,1,319.6,41.56Z"/><path class="cls-3" d="M335.49,36.19V51.77h-3.13v-1.3a4.32,4.32,0,0,1-3.53,1.47,5.85,5.85,0,0,1-2.89-.72,5.06,5.06,0,0,1-2-2,6.72,6.72,0,0,1,0-6.13,5,5,0,0,1,2-2,5.85,5.85,0,0,1,2.89-.72,4.3,4.3,0,0,1,3.38,1.37V36.19Zm-4,12.21a3.61,3.61,0,0,0,0-4.56,2.95,2.95,0,0,0-4.14,0,3.58,3.58,0,0,0,0,4.56,2.95,2.95,0,0,0,4.14,0Z"/><path class="cls-3" d="M131.14,62.27V77h-2.79L121,68.05V77h-3.36V62.27h2.81l7.31,8.93V62.27Z"/><path class="cls-3" d="M145.4,72.25h-8.55a2.62,2.62,0,0,0,1.09,1.65,3.6,3.6,0,0,0,2.14.61,4.27,4.27,0,0,0,1.57-.26,3.71,3.71,0,0,0,1.27-.83l1.74,1.89A5.85,5.85,0,0,1,140,77.14a7.35,7.35,0,0,1-3.38-.75,5.37,5.37,0,0,1-2.27-2.07,5.7,5.7,0,0,1-.8-3,5.83,5.83,0,0,1,.79-3,5.61,5.61,0,0,1,2.16-2.08,6.35,6.35,0,0,1,3.08-.75,6.22,6.22,0,0,1,3,.72,5.14,5.14,0,0,1,2.11,2,6.11,6.11,0,0,1,.77,3.09S145.44,71.7,145.4,72.25Zm-7.67-3.64a2.7,2.7,0,0,0-.92,1.72h5.56a2.73,2.73,0,0,0-.92-1.71A2.79,2.79,0,0,0,139.6,68,2.84,2.84,0,0,0,137.73,68.61Z"/><path class="cls-3" d="M165.58,65.67,161.48,77h-3.15l-2.54-7-2.62,7H150l-4.08-11.3H149l2.67,7.65,2.77-7.65h2.77l2.69,7.65,2.75-7.65Z"/><path class="cls-3" d="M176.66,66.23a5.15,5.15,0,0,1,2,2,6.12,6.12,0,0,1,.74,3,6.19,6.19,0,0,1-.74,3.06,5.19,5.19,0,0,1-2,2,5.73,5.73,0,0,1-2.87.73,4.34,4.34,0,0,1-3.55-1.47V77h-3.13V61.39h3.28v5.48a4.36,4.36,0,0,1,3.4-1.37A5.83,5.83,0,0,1,176.66,66.23Zm-1.37,7.37a3.61,3.61,0,0,0,0-4.56,2.95,2.95,0,0,0-4.14,0,3.65,3.65,0,0,0,0,4.56,2.95,2.95,0,0,0,4.14,0Z"/><path class="cls-3" d="M183.77,76.39a5.45,5.45,0,0,1-2.21-2.07,6,6,0,0,1,0-6,5.59,5.59,0,0,1,2.21-2.07A6.79,6.79,0,0,1,187,65.5a6.68,6.68,0,0,1,3.19.75,5.86,5.86,0,0,1,2.2,8.07,5.42,5.42,0,0,1-2.2,2.07,6.68,6.68,0,0,1-3.19.75A6.79,6.79,0,0,1,183.77,76.39Zm5.28-2.79a3.65,3.65,0,0,0,0-4.56,3,3,0,0,0-4.15,0,3.58,3.58,0,0,0,0,4.56,3,3,0,0,0,4.15,0Z"/><path class="cls-3" d="M200.07,65.92a5.9,5.9,0,0,1,2.3-.42v3c-.36,0-.61,0-.73,0a3,3,0,0,0-2.21.78,3.22,3.22,0,0,0-.8,2.37V77h-3.27V65.67h3.12v1.49A3.78,3.78,0,0,1,200.07,65.92Z"/><path class="cls-3" d="M214.58,66.76a5,5,0,0,1,1.29,3.74V77H212.6V71a3,3,0,0,0-.59-2,2.16,2.16,0,0,0-1.7-.66,2.62,2.62,0,0,0-2,.77,3.16,3.16,0,0,0-.73,2.27V77h-3.28V65.67h3.13V67a4.42,4.42,0,0,1,1.62-1.11,5.59,5.59,0,0,1,2.12-.39A4.64,4.64,0,0,1,214.58,66.76Z"/><path class="cls-3" d="M238.49,62.27V77h-3.4v-6h-6.68v6H225V62.27h3.4v5.8h6.68v-5.8Z"/><path class="cls-3" d="M252.75,72.25H244.2a2.66,2.66,0,0,0,1.09,1.65,3.61,3.61,0,0,0,2.15.61,4.22,4.22,0,0,0,1.56-.26,3.62,3.62,0,0,0,1.27-.83L252,75.31a5.83,5.83,0,0,1-4.66,1.83,7.35,7.35,0,0,1-3.38-.75,5.37,5.37,0,0,1-2.27-2.07,5.7,5.7,0,0,1-.8-3,5.83,5.83,0,0,1,.79-3,5.57,5.57,0,0,1,2.17-2.08,6.66,6.66,0,0,1,6.08,0,5.26,5.26,0,0,1,2.11,2,6.1,6.1,0,0,1,.76,3.09S252.79,71.7,252.75,72.25Zm-7.67-3.64a2.7,2.7,0,0,0-.92,1.72h5.57a2.74,2.74,0,0,0-.93-1.71A2.79,2.79,0,0,0,247,68,2.84,2.84,0,0,0,245.08,68.61Z"/><path class="cls-3" d="M263.27,66.75a4.79,4.79,0,0,1,1.41,3.77V77h-3.07V75.56a3.65,3.65,0,0,1-3.44,1.58,5.42,5.42,0,0,1-2.26-.44,3.4,3.4,0,0,1-1.46-1.22,3.15,3.15,0,0,1-.5-1.76,2.94,2.94,0,0,1,1.18-2.48,6.06,6.06,0,0,1,3.67-.91h2.6a2.08,2.08,0,0,0-.65-1.64,2.84,2.84,0,0,0-1.95-.58,5.66,5.66,0,0,0-1.78.28,4.82,4.82,0,0,0-1.48.77l-1.17-2.29a7.15,7.15,0,0,1,2.21-1,9.87,9.87,0,0,1,2.66-.36A5.89,5.89,0,0,1,263.27,66.75Zm-2.79,7.8a2.16,2.16,0,0,0,.92-1.15V72.25h-2.25q-2,0-2,1.32a1.18,1.18,0,0,0,.49,1,2.26,2.26,0,0,0,1.36.36A3,3,0,0,0,260.48,74.55Z"/><path class="cls-3" d="M267.64,61.39h3.27V77h-3.27Z"/><path class="cls-3" d="M282.06,76.42a3.3,3.3,0,0,1-1.18.54,6,6,0,0,1-1.48.18,4.37,4.37,0,0,1-3.12-1,3.91,3.91,0,0,1-1.1-3V68.44h-1.75V65.92h1.75V63.17h3.27v2.75h2.82v2.52h-2.82V73a1.54,1.54,0,0,0,.37,1.11,1.35,1.35,0,0,0,1,.38,2.08,2.08,0,0,0,1.32-.42Z"/><path class="cls-3" d="M294.17,66.76a5,5,0,0,1,1.29,3.74V77h-3.27V71a3,3,0,0,0-.59-2,2.16,2.16,0,0,0-1.7-.66,2.62,2.62,0,0,0-2,.77,3.16,3.16,0,0,0-.73,2.27V77h-3.28V61.39h3.28v5.46a4.27,4.27,0,0,1,1.57-1,5.75,5.75,0,0,1,2-.35A4.64,4.64,0,0,1,294.17,66.76Z"/></svg>