<svg id="Layer_1" data-name="Layer 1" xmlns="http://www.w3.org/2000/svg" viewBox="0 0 654 250"><defs><style>.cls-1{fill:#bf2134;}.cls-2{opacity:0.15;}.cls-3{fill:#fff;}.cls-4{fill:none;stroke:#bf2134;stroke-miterlimit:10;stroke-width:2.6px;}</style></defs><path class="cls-1" d="M378.69,101v12.77h-2.43L369.89,106v7.75H367V101h2.45l6.35,7.75V101Z"/><path class="cls-1" d="M391.6,111.4v2.37h-9.89V101h9.66v2.37h-6.72v2.77h5.93v2.3h-5.93v3Z"/><path class="cls-1" d="M413.08,101l-4.18,12.77h-3.17l-2.81-8.65-2.9,8.65h-3.16L392.66,101h3.07l2.88,9,3-9h2.74l2.92,9,3-9Z"/><path class="cls-1" d="M421.43,113.58a6.76,6.76,0,0,1-2.27-1.07l1-2.22a6.82,6.82,0,0,0,1.95,1,7.19,7.19,0,0,0,2.27.37,3.71,3.71,0,0,0,1.86-.37,1.14,1.14,0,0,0,.6-1,1,1,0,0,0-.36-.76,2.61,2.61,0,0,0-.91-.48c-.37-.12-.87-.26-1.5-.4a18.48,18.48,0,0,1-2.39-.7,3.8,3.8,0,0,1-1.6-1.11,3,3,0,0,1-.67-2,3.58,3.58,0,0,1,.6-2,4.1,4.1,0,0,1,1.82-1.43,7.48,7.48,0,0,1,3-.53,10.09,10.09,0,0,1,2.39.29,7.4,7.4,0,0,1,2,.84l-.91,2.25a7.12,7.12,0,0,0-3.54-1,3.42,3.42,0,0,0-1.84.4,1.24,1.24,0,0,0-.59,1.06,1,1,0,0,0,.69,1,11.06,11.06,0,0,0,2.08.63,20.45,20.45,0,0,1,2.39.69,3.93,3.93,0,0,1,1.6,1.1,2.9,2.9,0,0,1,.67,2,3.54,3.54,0,0,1-.61,2,4.1,4.1,0,0,1-1.84,1.43,7.48,7.48,0,0,1-3,.53A10.58,10.58,0,0,1,421.43,113.58Z"/><path class="cls-1" d="M434.4,113.13a6.34,6.34,0,0,1-3.4-5.74,6.46,6.46,0,0,1,.9-3.39,6.39,6.39,0,0,1,2.5-2.36,7.5,7.5,0,0,1,3.59-.86,7.39,7.39,0,0,1,3.57.86,6.51,6.51,0,0,1,0,11.49A7.28,7.28,0,0,1,438,114,7.39,7.39,0,0,1,434.4,113.13ZM440,111a3.63,3.63,0,0,0,1.43-1.45,4.56,4.56,0,0,0,0-4.23,3.69,3.69,0,0,0-1.43-1.45,4.28,4.28,0,0,0-4.09,0,3.83,3.83,0,0,0-1.43,1.45,4.56,4.56,0,0,0,0,4.23,3.76,3.76,0,0,0,1.43,1.45,4.28,4.28,0,0,0,4.09,0Z"/><path class="cls-1" d="M455.68,101.57a4.35,4.35,0,0,1,1.92,1.6,4.79,4.79,0,0,1,0,4.92,4.28,4.28,0,0,1-1.92,1.6,7.06,7.06,0,0,1-2.95.56h-2.57v3.52h-3V101h5.53A7.06,7.06,0,0,1,455.68,101.57Zm-1.09,5.7a2,2,0,0,0,.7-1.64,2,2,0,0,0-.7-1.65,3.12,3.12,0,0,0-2-.57h-2.41v4.43h2.41A3.12,3.12,0,0,0,454.59,107.27Z"/><path class="cls-1" d="M461.27,113.62a6.28,6.28,0,0,1-1.86-.76l.95-2a6.14,6.14,0,0,0,1.59.68,6.47,6.47,0,0,0,1.82.27c1.21,0,1.81-.3,1.81-.9a.63.63,0,0,0-.5-.6,6.92,6.92,0,0,0-1.51-.31,14.1,14.1,0,0,1-2-.42,3.18,3.18,0,0,1-1.36-.84,2.4,2.4,0,0,1-.57-1.72,2.68,2.68,0,0,1,.54-1.65,3.44,3.44,0,0,1,1.56-1.12,6.67,6.67,0,0,1,2.44-.4,9.73,9.73,0,0,1,2.07.23,5.67,5.67,0,0,1,1.71.63l-1,2a5.74,5.74,0,0,0-2.83-.73,2.89,2.89,0,0,0-1.37.26.75.75,0,0,0-.45.65.64.64,0,0,0,.49.64,8,8,0,0,0,1.57.35,16.49,16.49,0,0,1,2,.43,3,3,0,0,1,1.33.83,2.34,2.34,0,0,1,.57,1.68,2.6,2.6,0,0,1-.55,1.62,3.56,3.56,0,0,1-1.6,1.11,7.15,7.15,0,0,1-2.49.39A9.6,9.6,0,0,1,461.27,113.62Z"/><path class="cls-1" d="M408,49.08V83.75h-8V55.52H393V49.08Z"/><path class="cls-1" d="M436.71,65a9.67,9.67,0,0,1,3.49,7.82,10.9,10.9,0,0,1-1.58,5.77,11.06,11.06,0,0,1-4.83,4.16,18.4,18.4,0,0,1-8,1.56,27.46,27.46,0,0,1-7.21-1,18.62,18.62,0,0,1-6-2.75l3.17-6.14a15.1,15.1,0,0,0,4.55,2.3,17.31,17.31,0,0,0,5.3.82,8.34,8.34,0,0,0,4.76-1.19,3.81,3.81,0,0,0,1.73-3.32,3.72,3.72,0,0,0-1.81-3.37q-1.8-1.14-6.26-1.14h-8.87l1.78-19.51h21.15v6.44H423.61l-.54,6.59h2.82Q433.23,62.11,436.71,65Z"/><path d="M322.28,148a3.65,3.65,0,0,1-1.71,1.31,6.88,6.88,0,0,1-2.55.44,4.94,4.94,0,0,1-2.61-.69,4.65,4.65,0,0,1-1.77-2,6.71,6.71,0,0,1-.64-3v-1a6.31,6.31,0,0,1,1.27-4.22,4.43,4.43,0,0,1,3.57-1.5,4.59,4.59,0,0,1,3,1,4.25,4.25,0,0,1,1.4,2.74h-1.59a2.62,2.62,0,0,0-2.84-2.4,2.8,2.8,0,0,0-2.42,1.12,5.43,5.43,0,0,0-.83,3.25v1a5.17,5.17,0,0,0,.92,3.22,3,3,0,0,0,2.51,1.2,5.58,5.58,0,0,0,1.56-.2,2.41,2.41,0,0,0,1.11-.67v-2.7h-2.79v-1.3h4.37Z"/><path d="M324.28,145a5.35,5.35,0,0,1,.52-2.36,4,4,0,0,1,1.44-1.63,4,4,0,0,1,2.11-.57,3.77,3.77,0,0,1,2.95,1.27,4.84,4.84,0,0,1,1.13,3.37v.1a5.23,5.23,0,0,1-.5,2.35,3.82,3.82,0,0,1-1.43,1.62,4,4,0,0,1-2.14.58,3.8,3.8,0,0,1-2.95-1.27,4.85,4.85,0,0,1-1.13-3.35Zm1.54.18a3.86,3.86,0,0,0,.69,2.4,2.35,2.35,0,0,0,3.71,0,4.24,4.24,0,0,0,.68-2.56,3.78,3.78,0,0,0-.7-2.38,2.32,2.32,0,0,0-3.68,0A4.11,4.11,0,0,0,325.82,145.2Z"/><path d="M334,145a5.34,5.34,0,0,1,.51-2.36A4,4,0,0,1,335.9,141a4,4,0,0,1,2.11-.57,3.8,3.8,0,0,1,3,1.27,4.89,4.89,0,0,1,1.13,3.37v.1a5.37,5.37,0,0,1-.5,2.35,3.84,3.84,0,0,1-1.44,1.62,4,4,0,0,1-2.13.58,3.77,3.77,0,0,1-2.95-1.27,4.8,4.8,0,0,1-1.13-3.35Zm1.54.18a3.86,3.86,0,0,0,.69,2.4,2.34,2.34,0,0,0,3.7,0,4.17,4.17,0,0,0,.69-2.56,3.85,3.85,0,0,0-.7-2.38,2.24,2.24,0,0,0-1.86-.92,2.19,2.19,0,0,0-1.83.9A4.17,4.17,0,0,0,335.49,145.2Z"/><path d="M343.64,145a5.24,5.24,0,0,1,1-3.31,3.08,3.08,0,0,1,2.56-1.26,3.12,3.12,0,0,1,2.49,1.08v-4.67h1.53v12.71h-1.41l-.07-1a3.14,3.14,0,0,1-2.56,1.13,3.07,3.07,0,0,1-2.54-1.28,5.32,5.32,0,0,1-1-3.32Zm1.53.17a4,4,0,0,0,.63,2.39,2,2,0,0,0,1.74.86,2.25,2.25,0,0,0,2.13-1.31V143a2.24,2.24,0,0,0-2.11-1.27,2.05,2.05,0,0,0-1.76.87A4.37,4.37,0,0,0,345.17,145.2Z"/><path d="M364.66,146.43h-5.05l-1.13,3.15h-1.64l4.6-12h1.39l4.61,12h-1.63Zm-4.57-1.3h4.1l-2.06-5.63Z"/><path d="M368.45,145a5.29,5.29,0,0,1,1-3.34,3.42,3.42,0,0,1,5.11-.16l.07-.9H376V153h-1.53v-4.27a3.19,3.19,0,0,1-2.46,1,3.07,3.07,0,0,1-2.59-1.27,5.36,5.36,0,0,1-1-3.34Zm1.53.17a3.93,3.93,0,0,0,.65,2.42,2,2,0,0,0,1.75.88,2.3,2.3,0,0,0,2.08-1.21V142.9a2.3,2.3,0,0,0-2.07-1.18,2.1,2.1,0,0,0-1.76.88A4.39,4.39,0,0,0,370,145.2Z"/><path d="M384,148.7a3.26,3.26,0,0,1-2.63,1.05,2.77,2.77,0,0,1-2.18-.84,3.55,3.55,0,0,1-.75-2.46v-5.82H380v5.78q0,2,1.65,2a2.31,2.31,0,0,0,2.34-1.31v-6.51h1.53v9H384Z"/><path d="M393.32,149.58a3.31,3.31,0,0,1-.22-.94,3.41,3.41,0,0,1-2.55,1.11,3.16,3.16,0,0,1-2.17-.75,2.44,2.44,0,0,1-.85-1.9,2.53,2.53,0,0,1,1.07-2.17,5,5,0,0,1,3-.78h1.49v-.7a1.74,1.74,0,0,0-.48-1.28,2,2,0,0,0-1.42-.47,2.21,2.21,0,0,0-1.37.41,1.22,1.22,0,0,0-.55,1h-1.54a2.05,2.05,0,0,1,.47-1.29,3.23,3.23,0,0,1,1.29-1,4.41,4.41,0,0,1,1.79-.37,3.53,3.53,0,0,1,2.43.78,2.78,2.78,0,0,1,.91,2.13v4.12a5.06,5.06,0,0,0,.31,2v.13Zm-2.54-1.17a2.65,2.65,0,0,0,1.36-.37,2.3,2.3,0,0,0,.94-1v-1.83h-1.2c-1.88,0-2.81.55-2.81,1.64a1.4,1.4,0,0,0,.47,1.13A1.88,1.88,0,0,0,390.78,148.41Z"/><path d="M400.6,148.5A2.22,2.22,0,0,0,402,148a1.75,1.75,0,0,0,.68-1.24h1.45a2.83,2.83,0,0,1-.53,1.46,3.39,3.39,0,0,1-1.31,1.11,4,4,0,0,1-4.63-.8,4.88,4.88,0,0,1-1.08-3.34v-.26a5.34,5.34,0,0,1,.48-2.32,3.61,3.61,0,0,1,1.38-1.58,3.86,3.86,0,0,1,2.12-.57,3.55,3.55,0,0,1,2.5.91,3.23,3.23,0,0,1,1.07,2.34h-1.45a2.16,2.16,0,0,0-.66-1.43,2,2,0,0,0-1.46-.56,2.15,2.15,0,0,0-1.81.84,3.93,3.93,0,0,0-.64,2.43v.29a3.83,3.83,0,0,0,.64,2.38A2.14,2.14,0,0,0,400.6,148.5Z"/><path d="M411.4,148.7a3.24,3.24,0,0,1-2.62,1.05,2.77,2.77,0,0,1-2.18-.84,3.6,3.6,0,0,1-.76-2.46v-5.82h1.53v5.78c0,1.36.55,2,1.66,2a2.28,2.28,0,0,0,2.33-1.31v-6.51h1.53v9h-1.45Z"/><path d="M416.88,149.58h-1.53V136.87h1.53Z"/><path d="M421.41,138.46v2.17h1.67v1.18h-1.67v5.56a1.24,1.24,0,0,0,.22.81.94.94,0,0,0,.76.27,4.25,4.25,0,0,0,.73-.1v1.23a4.55,4.55,0,0,1-1.18.17,1.9,1.9,0,0,1-1.54-.62,2.69,2.69,0,0,1-.53-1.77v-5.55h-1.63v-1.18h1.63v-2.17Z"/><path d="M430.39,148.7a3.26,3.26,0,0,1-2.62,1.05,2.76,2.76,0,0,1-2.18-.84,3.6,3.6,0,0,1-.76-2.46v-5.82h1.53v5.78c0,1.36.55,2,1.66,2a2.3,2.3,0,0,0,2.33-1.31v-6.51h1.53v9h-1.46Z"/><path d="M438.53,142a4.38,4.38,0,0,0-.75-.06,2,2,0,0,0-2,1.29v6.35H434.2v-9h1.49l0,1a2.38,2.38,0,0,1,2.13-1.2,1.5,1.5,0,0,1,.68.12Z"/><path d="M443.5,149.75a3.91,3.91,0,0,1-3-1.2,4.44,4.44,0,0,1-1.14-3.2v-.28a5.37,5.37,0,0,1,.51-2.38,4,4,0,0,1,1.42-1.63,3.54,3.54,0,0,1,2-.6,3.38,3.38,0,0,1,2.72,1.15,5,5,0,0,1,1,3.3v.63h-6.07a3.13,3.13,0,0,0,.78,2.14,2.41,2.41,0,0,0,1.88.82,2.65,2.65,0,0,0,1.37-.33,3.59,3.59,0,0,0,1-.88l.93.73A3.76,3.76,0,0,1,443.5,149.75Zm-.2-8a2,2,0,0,0-1.55.68,3.28,3.28,0,0,0-.78,1.89h4.49v-.12a3,3,0,0,0-.63-1.81A1.94,1.94,0,0,0,443.3,141.72Z"/><path d="M454.78,144.87v4.71h-1.59v-12h4.44a4.46,4.46,0,0,1,3.1,1,3.44,3.44,0,0,1,1.12,2.68,3.37,3.37,0,0,1-1.09,2.7,4.68,4.68,0,0,1-3.14,1Zm0-1.3h2.85a2.89,2.89,0,0,0,2-.6,2.22,2.22,0,0,0,.67-1.74,2.26,2.26,0,0,0-.67-1.72,2.69,2.69,0,0,0-1.87-.68h-2.94Z"/><path d="M468,142a4.42,4.42,0,0,0-.76-.06,2,2,0,0,0-2,1.29v6.35h-1.53v-9h1.49l0,1a2.4,2.4,0,0,1,2.14-1.2,1.53,1.53,0,0,1,.68.12Z"/><path d="M474.57,149.58a3.31,3.31,0,0,1-.22-.94,3.4,3.4,0,0,1-2.54,1.11,3.17,3.17,0,0,1-2.18-.75,2.43,2.43,0,0,1-.84-1.9,2.52,2.52,0,0,1,1.06-2.17,5,5,0,0,1,3-.78h1.49v-.7a1.74,1.74,0,0,0-.48-1.28,2,2,0,0,0-1.41-.47,2.22,2.22,0,0,0-1.38.41,1.22,1.22,0,0,0-.55,1H469a2.11,2.11,0,0,1,.47-1.29,3.2,3.2,0,0,1,1.3-1,4.34,4.34,0,0,1,1.79-.37,3.5,3.5,0,0,1,2.42.78,2.75,2.75,0,0,1,.91,2.13v4.12a5.06,5.06,0,0,0,.31,2v.13ZM472,148.41a2.65,2.65,0,0,0,1.36-.37,2.19,2.19,0,0,0,.94-1v-1.83h-1.2c-1.88,0-2.81.55-2.81,1.64a1.4,1.4,0,0,0,.48,1.13A1.84,1.84,0,0,0,472,148.41Z"/><path d="M481.85,148.5a2.21,2.21,0,0,0,1.43-.5,1.72,1.72,0,0,0,.68-1.24h1.45a2.83,2.83,0,0,1-.53,1.46,3.43,3.43,0,0,1-1.3,1.11,3.74,3.74,0,0,1-1.73.42,3.7,3.7,0,0,1-2.91-1.22,4.88,4.88,0,0,1-1.08-3.34v-.26a5.34,5.34,0,0,1,.48-2.32,3.61,3.61,0,0,1,1.38-1.58,3.89,3.89,0,0,1,2.12-.57,3.53,3.53,0,0,1,2.5.91,3.23,3.23,0,0,1,1.07,2.34H484a2.07,2.07,0,0,0-.66-1.43,2,2,0,0,0-1.46-.56,2.15,2.15,0,0,0-1.81.84,4,4,0,0,0-.64,2.43v.29a3.9,3.9,0,0,0,.64,2.38A2.14,2.14,0,0,0,481.85,148.5Z"/><path d="M489.21,138.46v2.17h1.67v1.18h-1.67v5.56a1.24,1.24,0,0,0,.22.81.94.94,0,0,0,.76.27,4.25,4.25,0,0,0,.73-.1v1.23a4.49,4.49,0,0,1-1.18.17,1.9,1.9,0,0,1-1.54-.62,2.69,2.69,0,0,1-.53-1.77v-5.55H486v-1.18h1.63v-2.17Z"/><path d="M492.67,138.25a.91.91,0,0,1,.23-.62,1,1,0,0,1,1.35,0,1,1,0,0,1,0,1.25.89.89,0,0,1-.68.24.89.89,0,0,1-.67-.24A.92.92,0,0,1,492.67,138.25Zm1.66,11.33H492.8v-9h1.53Z"/><path d="M500.37,148.5a2.22,2.22,0,0,0,1.43-.5,1.79,1.79,0,0,0,.68-1.24h1.44a2.66,2.66,0,0,1-.53,1.46,3.36,3.36,0,0,1-1.3,1.11,4,4,0,0,1-4.63-.8,4.88,4.88,0,0,1-1.08-3.34v-.26a5.34,5.34,0,0,1,.48-2.32,3.61,3.61,0,0,1,1.38-1.58,3.84,3.84,0,0,1,2.12-.57,3.55,3.55,0,0,1,2.5.91,3.18,3.18,0,0,1,1.06,2.34h-1.44a2.16,2.16,0,0,0-.66-1.43,2.06,2.06,0,0,0-1.46-.56,2.15,2.15,0,0,0-1.81.84,3.93,3.93,0,0,0-.64,2.43v.29a3.83,3.83,0,0,0,.64,2.38A2.14,2.14,0,0,0,500.37,148.5Z"/><path d="M509.36,149.75a3.9,3.9,0,0,1-3-1.2,4.44,4.44,0,0,1-1.14-3.2v-.28a5.51,5.51,0,0,1,.5-2.38,4,4,0,0,1,1.43-1.63,3.54,3.54,0,0,1,2-.6,3.36,3.36,0,0,1,2.71,1.15,5,5,0,0,1,1,3.3v.63h-6.06a3.17,3.17,0,0,0,.77,2.14,2.41,2.41,0,0,0,1.88.82,2.71,2.71,0,0,0,1.38-.33,3.55,3.55,0,0,0,1-.88l.94.73A3.78,3.78,0,0,1,509.36,149.75Zm-.19-8a2.05,2.05,0,0,0-1.56.68,3.27,3.27,0,0,0-.77,1.89h4.48v-.12a2.87,2.87,0,0,0-.63-1.81A1.9,1.9,0,0,0,509.17,141.72Z"/><path d="M519.83,147.21a1.13,1.13,0,0,0-.46-1,4.68,4.68,0,0,0-1.63-.59,7.61,7.61,0,0,1-1.85-.59,2.77,2.77,0,0,1-1-.83,2,2,0,0,1-.33-1.14,2.34,2.34,0,0,1,.94-1.87,3.66,3.66,0,0,1,2.37-.76,3.75,3.75,0,0,1,2.47.79,2.46,2.46,0,0,1,.95,2h-1.54a1.38,1.38,0,0,0-.53-1.08,2,2,0,0,0-1.35-.46,2,2,0,0,0-1.3.37,1.13,1.13,0,0,0-.47.95.92.92,0,0,0,.43.83,5.35,5.35,0,0,0,1.59.54A8.8,8.8,0,0,1,520,145a2.8,2.8,0,0,1,1,.86,2.09,2.09,0,0,1,.34,1.22,2.28,2.28,0,0,1-1,1.92,4,4,0,0,1-2.49.73,4.57,4.57,0,0,1-1.9-.38,3.1,3.1,0,0,1-1.29-1.07,2.47,2.47,0,0,1-.47-1.47h1.53a1.58,1.58,0,0,0,.62,1.22,2.38,2.38,0,0,0,1.51.45,2.52,2.52,0,0,0,1.4-.35A1.09,1.09,0,0,0,519.83,147.21Z"/><path d="M312.56,167.8l1.72-6.84h1.53l-2.61,8.95H312l-2.17-6.78-2.12,6.78h-1.24l-2.6-8.95h1.52l1.76,6.7,2.09-6.7h1.23Z"/><path d="M317.37,158.59a.92.92,0,0,1,.23-.63,1,1,0,0,1,1.35,0,.88.88,0,0,1,.23.63.85.85,0,0,1-.23.62.91.91,0,0,1-1.58-.62ZM319,169.91H317.5V161H319Z"/><path d="M323.14,169.91h-1.53v-12.7h1.53Z"/><path d="M327.25,169.91h-1.53v-12.7h1.53Z"/><path d="M335.42,162.05a3.25,3.25,0,0,1,2.65-1.25c1.89,0,2.85,1.06,2.86,3.2v5.91H339.4V164a2,2,0,0,0-.44-1.43,1.77,1.77,0,0,0-1.35-.46,2.25,2.25,0,0,0-1.31.39,2.79,2.79,0,0,0-.88,1v6.38h-1.53v-12.7h1.53Z"/><path d="M346.94,170.08a3.9,3.9,0,0,1-3-1.2,4.42,4.42,0,0,1-1.14-3.19v-.29a5.32,5.32,0,0,1,.51-2.37,3.86,3.86,0,0,1,1.42-1.64,3.53,3.53,0,0,1,2-.59,3.33,3.33,0,0,1,2.71,1.15,4.93,4.93,0,0,1,1,3.29v.64h-6.06a3.16,3.16,0,0,0,.77,2.13,2.41,2.41,0,0,0,1.88.82,2.71,2.71,0,0,0,1.38-.33,3.4,3.4,0,0,0,1-.88l.94.73A3.77,3.77,0,0,1,346.94,170.08Zm-.19-8a2.05,2.05,0,0,0-1.56.68,3.34,3.34,0,0,0-.77,1.89h4.48v-.12a2.84,2.84,0,0,0-.63-1.8A1.91,1.91,0,0,0,346.75,162.05Z"/><path d="M353.87,169.91h-1.54v-12.7h1.54Z"/><path d="M363.88,165.54a5.37,5.37,0,0,1-.94,3.29,3,3,0,0,1-2.53,1.25,3.3,3.3,0,0,1-2.57-1v4.32h-1.53V161h1.4l.08,1a3.14,3.14,0,0,1,2.59-1.15,3.06,3.06,0,0,1,2.56,1.21,5.47,5.47,0,0,1,.94,3.39Zm-1.53-.18a4,4,0,0,0-.65-2.39,2.08,2.08,0,0,0-1.77-.87,2.26,2.26,0,0,0-2.09,1.23v4.28a2.27,2.27,0,0,0,2.11,1.22,2.08,2.08,0,0,0,1.75-.87A4.37,4.37,0,0,0,362.35,165.36Z"/><path d="M370.77,169.91v-7.77h-1.42V161h1.42V160a3,3,0,0,1,.77-2.22,2.88,2.88,0,0,1,2.17-.79,4.09,4.09,0,0,1,1.05.14l-.08,1.24a4.33,4.33,0,0,0-.83-.08,1.51,1.51,0,0,0-1.15.44,1.76,1.76,0,0,0-.4,1.25V161h1.91v1.18H372.3v7.77Z"/><path d="M381.42,169.91a3.29,3.29,0,0,1-.21-.94,3.41,3.41,0,0,1-2.55,1.11,3.15,3.15,0,0,1-2.17-.75,2.41,2.41,0,0,1-.85-1.9,2.55,2.55,0,0,1,1.06-2.17,5,5,0,0,1,3-.77h1.48v-.71a1.74,1.74,0,0,0-.48-1.28,2,2,0,0,0-1.41-.47,2.25,2.25,0,0,0-1.37.41,1.23,1.23,0,0,0-.56,1h-1.54a2.11,2.11,0,0,1,.48-1.29,3.23,3.23,0,0,1,1.29-1,4.37,4.37,0,0,1,1.79-.36,3.5,3.5,0,0,1,2.42.77,2.78,2.78,0,0,1,.91,2.13v4.12a5,5,0,0,0,.32,2v.13Zm-2.54-1.16a2.7,2.7,0,0,0,1.37-.38,2.2,2.2,0,0,0,.93-1v-1.84H380c-1.87,0-2.81.55-2.81,1.65a1.38,1.38,0,0,0,.48,1.12A1.84,1.84,0,0,0,378.88,168.75Z"/><path d="M389.44,162.34a4.38,4.38,0,0,0-.75-.06,2,2,0,0,0-2.05,1.28v6.35h-1.53V161h1.49l0,1a2.38,2.38,0,0,1,2.13-1.2,1.52,1.52,0,0,1,.68.11Z"/><path d="M392.29,161l0,1A3.31,3.31,0,0,1,395,160.8a2.56,2.56,0,0,1,2.56,1.44,3.55,3.55,0,0,1,1.16-1.05,3.5,3.5,0,0,1,1.7-.39q2.94,0,3,3.12v6h-1.53V164a2.08,2.08,0,0,0-.44-1.44,1.91,1.91,0,0,0-1.47-.47,2,2,0,0,0-1.42.5,2.09,2.09,0,0,0-.65,1.37v5.94h-1.54v-5.86a1.71,1.71,0,0,0-1.91-2,2,2,0,0,0-2.06,1.28v6.53h-1.53V161Z"/><path d="M409.41,170.08a3.9,3.9,0,0,1-3-1.2,4.42,4.42,0,0,1-1.14-3.19v-.29a5.32,5.32,0,0,1,.51-2.37,3.93,3.93,0,0,1,1.42-1.64,3.53,3.53,0,0,1,2-.59,3.35,3.35,0,0,1,2.72,1.15,5,5,0,0,1,1,3.29v.64h-6.06a3.16,3.16,0,0,0,.77,2.13,2.43,2.43,0,0,0,1.89.82,2.67,2.67,0,0,0,1.37-.33,3.4,3.4,0,0,0,1-.88l.94.73A3.77,3.77,0,0,1,409.41,170.08Zm-.19-8a2,2,0,0,0-1.55.68,3.28,3.28,0,0,0-.78,1.89h4.48v-.12a2.9,2.9,0,0,0-.62-1.8A1.94,1.94,0,0,0,409.22,162.05Z"/><path d="M419,162.34a4.38,4.38,0,0,0-.75-.06,2,2,0,0,0-2.05,1.28v6.35h-1.53V161h1.49l0,1a2.38,2.38,0,0,1,2.13-1.2,1.52,1.52,0,0,1,.68.11Z"/><path d="M425.62,167.54a1.12,1.12,0,0,0-.47-1,4.49,4.49,0,0,0-1.63-.6,7.51,7.51,0,0,1-1.84-.59,2.6,2.6,0,0,1-1-.83,2,2,0,0,1-.33-1.14,2.31,2.31,0,0,1,.93-1.86,3.63,3.63,0,0,1,2.38-.76,3.75,3.75,0,0,1,2.47.78,2.52,2.52,0,0,1,.95,2h-1.54a1.38,1.38,0,0,0-.53-1.08,2,2,0,0,0-1.35-.46,2.12,2.12,0,0,0-1.31.37,1.15,1.15,0,0,0-.47,1,.94.94,0,0,0,.44.84,5.6,5.6,0,0,0,1.59.53,8.5,8.5,0,0,1,1.85.61,2.76,2.76,0,0,1,1.06.86,2.09,2.09,0,0,1,.34,1.22,2.31,2.31,0,0,1-1,1.93,4,4,0,0,1-2.49.72,4.54,4.54,0,0,1-1.9-.38,3.26,3.26,0,0,1-1.3-1.06,2.59,2.59,0,0,1-.46-1.48h1.53a1.57,1.57,0,0,0,.61,1.22,2.41,2.41,0,0,0,1.52.45,2.46,2.46,0,0,0,1.39-.35A1.07,1.07,0,0,0,425.62,167.54Z"/><path d="M433.35,158.59a.88.88,0,0,1,.23-.63.84.84,0,0,1,.67-.26.88.88,0,0,1,.68.26.92.92,0,0,1,.23.63.9.9,0,0,1-.23.62.91.91,0,0,1-.68.25.87.87,0,0,1-.67-.25A.85.85,0,0,1,433.35,158.59ZM435,169.91h-1.53V161H435Z"/><path d="M438.89,161l0,1a3.31,3.31,0,0,1,2.66-1.15,2.55,2.55,0,0,1,2.55,1.44A3.31,3.31,0,0,1,447,160.8q2.94,0,3,3.12v6h-1.53V164a2,2,0,0,0-.44-1.44,1.91,1.91,0,0,0-1.47-.47,2,2,0,0,0-1.41.5,2.06,2.06,0,0,0-.66,1.37v5.94h-1.54v-5.86a1.7,1.7,0,0,0-1.91-2,2,2,0,0,0-2.06,1.28v6.53h-1.53V161Z"/><path d="M459.86,165.54a5.37,5.37,0,0,1-.93,3.29,3,3,0,0,1-2.53,1.25,3.3,3.3,0,0,1-2.57-1v4.32H452.3V161h1.4l.07,1a3.16,3.16,0,0,1,2.6-1.15,3,3,0,0,1,2.55,1.21,5.4,5.4,0,0,1,.94,3.39Zm-1.53-.18a4,4,0,0,0-.64-2.39,2.08,2.08,0,0,0-1.77-.87,2.26,2.26,0,0,0-2.09,1.23v4.28a2.26,2.26,0,0,0,2.1,1.22,2.06,2.06,0,0,0,1.75-.87A4.3,4.3,0,0,0,458.33,165.36Z"/><path d="M466.13,162.34a4.38,4.38,0,0,0-.75-.06,2,2,0,0,0-2,1.28v6.35h-1.53V161h1.49l0,1a2.39,2.39,0,0,1,2.14-1.2,1.5,1.5,0,0,1,.67.11Z"/><path d="M467,165.35a5.21,5.21,0,0,1,.52-2.36,3.79,3.79,0,0,1,1.44-1.62,3.89,3.89,0,0,1,2.1-.57,3.78,3.78,0,0,1,3,1.26,4.9,4.9,0,0,1,1.13,3.37v.11a5.36,5.36,0,0,1-.5,2.34,3.82,3.82,0,0,1-1.43,1.62,4,4,0,0,1-2.14.58,3.75,3.75,0,0,1-2.95-1.27,4.85,4.85,0,0,1-1.13-3.35Zm1.54.19a3.83,3.83,0,0,0,.69,2.39,2.22,2.22,0,0,0,1.85.9,2.19,2.19,0,0,0,1.85-.91,4.2,4.2,0,0,0,.69-2.57,3.78,3.78,0,0,0-.7-2.38,2.24,2.24,0,0,0-1.86-.92,2.2,2.2,0,0,0-1.83.91A4.17,4.17,0,0,0,468.51,165.54Z"/><path d="M479.87,167.84l2.22-6.88h1.56l-3.21,8.95h-1.17L476,161h1.56Z"/><path d="M488.73,170.08a3.9,3.9,0,0,1-3-1.2,4.42,4.42,0,0,1-1.14-3.19v-.29a5.46,5.46,0,0,1,.5-2.37,4,4,0,0,1,1.43-1.64,3.53,3.53,0,0,1,2-.59,3.33,3.33,0,0,1,2.71,1.15,4.93,4.93,0,0,1,1,3.29v.64h-6.06a3.16,3.16,0,0,0,.77,2.13,2.41,2.41,0,0,0,1.88.82,2.71,2.71,0,0,0,1.38-.33,3.4,3.4,0,0,0,1-.88l.94.73A3.78,3.78,0,0,1,488.73,170.08Zm-.19-8a2.05,2.05,0,0,0-1.56.68,3.27,3.27,0,0,0-.77,1.89h4.48v-.12a2.84,2.84,0,0,0-.63-1.8A1.91,1.91,0,0,0,488.54,162.05Z"/><path d="M500.26,158.79V161h1.67v1.18h-1.67v5.56a1.24,1.24,0,0,0,.23.81.92.92,0,0,0,.76.27,3.36,3.36,0,0,0,.72-.1v1.23a4.41,4.41,0,0,1-1.17.17,1.93,1.93,0,0,1-1.55-.62,2.71,2.71,0,0,1-.52-1.76v-5.56H497.1V161h1.63v-2.17Z"/><path d="M505.25,162.05a3.24,3.24,0,0,1,2.65-1.25c1.89,0,2.85,1.06,2.86,3.2v5.91h-1.53V164a2,2,0,0,0-.44-1.43,1.77,1.77,0,0,0-1.35-.46,2.23,2.23,0,0,0-1.31.39,2.7,2.7,0,0,0-.88,1v6.38h-1.53v-12.7h1.53Z"/><path d="M516.77,170.08a3.89,3.89,0,0,1-3-1.2,4.38,4.38,0,0,1-1.15-3.19v-.29a5.32,5.32,0,0,1,.51-2.37,4,4,0,0,1,1.43-1.64,3.51,3.51,0,0,1,2-.59,3.33,3.33,0,0,1,2.71,1.15,4.93,4.93,0,0,1,1,3.29v.64h-6.07A3.17,3.17,0,0,0,515,168a2.41,2.41,0,0,0,1.88.82,2.65,2.65,0,0,0,1.37-.33,3.31,3.31,0,0,0,1-.88l.93.73A3.76,3.76,0,0,1,516.77,170.08Zm-.19-8a2.05,2.05,0,0,0-1.56.68,3.28,3.28,0,0,0-.78,1.89h4.49v-.12a3,3,0,0,0-.63-1.8A1.92,1.92,0,0,0,516.58,162.05Z"/><path d="M522,158.59a.88.88,0,0,1,.23-.63.84.84,0,0,1,.67-.26.88.88,0,0,1,.68.26.92.92,0,0,1,.23.63.9.9,0,0,1-.23.62.91.91,0,0,1-.68.25.87.87,0,0,1-.67-.25A.85.85,0,0,1,522,158.59Zm1.65,11.32h-1.53V161h1.53Z"/><path d="M530.47,162.34a4.38,4.38,0,0,0-.75-.06,2,2,0,0,0-2.05,1.28v6.35h-1.53V161h1.49l0,1a2.38,2.38,0,0,1,2.13-1.2,1.55,1.55,0,0,1,.68.11Z"/><path d="M308.58,185.87a5.37,5.37,0,0,1-.93,3.29,3,3,0,0,1-2.53,1.25,3.28,3.28,0,0,1-2.57-1v4.31H301v-12.4h1.4l.07,1a3.17,3.17,0,0,1,2.6-1.16,3,3,0,0,1,2.55,1.22,5.37,5.37,0,0,1,.94,3.38Zm-1.53-.17a4,4,0,0,0-.64-2.4,2.1,2.1,0,0,0-1.78-.87,2.25,2.25,0,0,0-2.08,1.23v4.28a2.26,2.26,0,0,0,2.1,1.22,2.07,2.07,0,0,0,1.75-.87A4.34,4.34,0,0,0,307.05,185.7Z"/><path d="M314.85,182.67a4.38,4.38,0,0,0-.75-.06,2,2,0,0,0-2,1.28v6.36h-1.53v-9H312l0,1a2.38,2.38,0,0,1,2.13-1.2,1.68,1.68,0,0,1,.68.11Z"/><path d="M315.69,185.69a5.35,5.35,0,0,1,.51-2.37,3.83,3.83,0,0,1,3.55-2.19,3.8,3.8,0,0,1,3,1.26,4.9,4.9,0,0,1,1.13,3.37v.11a5.43,5.43,0,0,1-.5,2.35,3.8,3.8,0,0,1-1.43,1.61,4,4,0,0,1-2.14.58,3.76,3.76,0,0,1-2.95-1.26,4.82,4.82,0,0,1-1.13-3.35Zm1.54.18a3.83,3.83,0,0,0,.69,2.39,2.34,2.34,0,0,0,3.7,0,4.17,4.17,0,0,0,.69-2.56,3.88,3.88,0,0,0-.7-2.39,2.33,2.33,0,0,0-3.69,0A4.17,4.17,0,0,0,317.23,185.87Z"/><path d="M325.38,185.7a5.27,5.27,0,0,1,1-3.32,3.1,3.1,0,0,1,2.56-1.25,3.14,3.14,0,0,1,2.49,1.07v-4.66h1.53v12.71h-1.41l-.07-1a3.13,3.13,0,0,1-2.56,1.12,3,3,0,0,1-2.53-1.27,5.28,5.28,0,0,1-1-3.33Zm1.53.17a4,4,0,0,0,.63,2.38,2,2,0,0,0,1.74.86,2.24,2.24,0,0,0,2.13-1.3v-4.12a2.25,2.25,0,0,0-2.11-1.26,2.05,2.05,0,0,0-1.76.87A4.35,4.35,0,0,0,326.91,185.87Z"/><path d="M340.84,189.36a3.26,3.26,0,0,1-2.62,1,2.79,2.79,0,0,1-2.18-.83,3.6,3.6,0,0,1-.76-2.46v-5.83h1.53v5.79c0,1.35.55,2,1.65,2a2.3,2.3,0,0,0,2.34-1.3v-6.52h1.53v9h-1.46Z"/><path d="M348.24,189.16a2.22,2.22,0,0,0,1.44-.49,1.76,1.76,0,0,0,.67-1.25h1.45a2.75,2.75,0,0,1-.53,1.47A3.53,3.53,0,0,1,350,190a3.83,3.83,0,0,1-1.73.41,3.66,3.66,0,0,1-2.9-1.22,4.84,4.84,0,0,1-1.08-3.34v-.25a5.42,5.42,0,0,1,.48-2.33,3.65,3.65,0,0,1,1.37-1.58,4,4,0,0,1,2.13-.56,3.6,3.6,0,0,1,2.5.9,3.22,3.22,0,0,1,1.06,2.34h-1.45a2.08,2.08,0,0,0-.65-1.42,2,2,0,0,0-1.46-.56,2.15,2.15,0,0,0-1.81.84,3.92,3.92,0,0,0-.64,2.42v.29a3.91,3.91,0,0,0,.63,2.39A2.17,2.17,0,0,0,348.24,189.16Z"/><path d="M355.6,179.13v2.16h1.67v1.19H355.6V188a1.23,1.23,0,0,0,.22.8.94.94,0,0,0,.76.27,3.44,3.44,0,0,0,.73-.1v1.24a4.39,4.39,0,0,1-1.17.16,1.89,1.89,0,0,1-1.55-.62,2.64,2.64,0,0,1-.52-1.76v-5.55h-1.63v-1.19h1.63v-2.16Z"/><path d="M359.07,178.92a.91.91,0,0,1,.22-.63A.87.87,0,0,1,360,178a.9.9,0,0,1,.68.26.92.92,0,0,1,.23.63.88.88,0,0,1-.23.62.89.89,0,0,1-.68.25.86.86,0,0,1-.68-.25A.87.87,0,0,1,359.07,178.92Zm1.65,11.33h-1.53v-9h1.53Z"/><path d="M366.12,188.17l2.22-6.88h1.56l-3.21,9h-1.16l-3.25-9h1.57Z"/><path d="M371.38,178.92a.92.92,0,0,1,.23-.63,1,1,0,0,1,1.35,0,.88.88,0,0,1,.24.63.84.84,0,0,1-.24.62.85.85,0,0,1-.67.25.86.86,0,0,1-.68-.25A.88.88,0,0,1,371.38,178.92ZM373,190.25h-1.53v-9H373Z"/><path d="M377.57,179.13v2.16h1.67v1.19h-1.67V188a1.23,1.23,0,0,0,.22.8.94.94,0,0,0,.76.27,3.44,3.44,0,0,0,.73-.1v1.24a4.52,4.52,0,0,1-1.18.16,1.87,1.87,0,0,1-1.54-.62A2.64,2.64,0,0,1,376,188v-5.55H374.4v-1.19H376v-2.16Z"/><path d="M384,188l2.09-6.71h1.63l-3.59,10.34c-.56,1.49-1.45,2.23-2.66,2.23l-.29,0-.57-.11v-1.24l.41,0a2,2,0,0,0,1.21-.31,2.33,2.33,0,0,0,.72-1.15l.34-.91-3.19-8.86h1.67Z"/><path d="M398.76,190.25a3.06,3.06,0,0,1-.21-.95,3.43,3.43,0,0,1-2.55,1.11,3.15,3.15,0,0,1-2.17-.75,2.41,2.41,0,0,1-.85-1.9,2.53,2.53,0,0,1,1.06-2.17,5.06,5.06,0,0,1,3-.77h1.49v-.7a1.7,1.7,0,0,0-.48-1.28,1.91,1.91,0,0,0-1.41-.48,2.22,2.22,0,0,0-1.38.42,1.19,1.19,0,0,0-.55,1h-1.54a2.12,2.12,0,0,1,.48-1.3,3.27,3.27,0,0,1,1.29-1,4.37,4.37,0,0,1,1.79-.36,3.55,3.55,0,0,1,2.42.77,2.78,2.78,0,0,1,.91,2.13v4.12a5,5,0,0,0,.32,2v.14Zm-2.54-1.17a2.69,2.69,0,0,0,1.37-.37,2.22,2.22,0,0,0,.93-1V185.9h-1.2c-1.87,0-2.81.55-2.81,1.65a1.38,1.38,0,0,0,.48,1.12A1.84,1.84,0,0,0,396.22,189.08Z"/><path d="M403.9,181.29l.05,1.13a3.26,3.26,0,0,1,2.68-1.29c1.89,0,2.85,1.07,2.86,3.2v5.92H408v-5.93a2,2,0,0,0-.44-1.43,1.77,1.77,0,0,0-1.35-.46,2.17,2.17,0,0,0-1.31.4,2.63,2.63,0,0,0-.88,1v6.38h-1.53v-9Z"/><path d="M411.43,185.7a5.26,5.26,0,0,1,1-3.32,3.33,3.33,0,0,1,5.05-.18v-4.66H419v12.71h-1.41l-.07-1a3.11,3.11,0,0,1-2.56,1.12,3,3,0,0,1-2.53-1.27,5.27,5.27,0,0,1-1-3.33Zm1.53.17a4,4,0,0,0,.63,2.38,2,2,0,0,0,1.73.86,2.24,2.24,0,0,0,2.13-1.3v-4.12a2.25,2.25,0,0,0-2.11-1.26,2,2,0,0,0-1.75.87A4.35,4.35,0,0,0,413,185.87Z"/><path d="M427.08,182.38a3.27,3.27,0,0,1,2.65-1.25q2.83,0,2.86,3.2v5.92h-1.53v-5.93a2.09,2.09,0,0,0-.44-1.43,1.78,1.78,0,0,0-1.36-.46,2.16,2.16,0,0,0-1.3.4,2.63,2.63,0,0,0-.88,1v6.38h-1.53V177.54h1.53Z"/><path d="M440.41,190.25a3.31,3.31,0,0,1-.22-.95,3.4,3.4,0,0,1-2.54,1.11,3.17,3.17,0,0,1-2.18-.75,2.44,2.44,0,0,1-.85-1.9,2.54,2.54,0,0,1,1.07-2.17,5,5,0,0,1,3-.77h1.49v-.7a1.7,1.7,0,0,0-.48-1.28,1.92,1.92,0,0,0-1.42-.48,2.21,2.21,0,0,0-1.37.42,1.19,1.19,0,0,0-.55,1h-1.54a2.16,2.16,0,0,1,.47-1.3,3.42,3.42,0,0,1,1.29-1,4.42,4.42,0,0,1,1.8-.36,3.57,3.57,0,0,1,2.42.77,2.81,2.81,0,0,1,.91,2.13v4.12a5,5,0,0,0,.31,2v.14Zm-2.54-1.17a2.65,2.65,0,0,0,1.36-.37,2.25,2.25,0,0,0,.94-1V185.9H439c-1.88,0-2.81.55-2.81,1.65a1.38,1.38,0,0,0,.48,1.12A1.84,1.84,0,0,0,437.87,189.08Z"/><path d="M448.43,182.67a4.59,4.59,0,0,0-.76-.06,2,2,0,0,0-2,1.28v6.36H444.1v-9h1.49l0,1a2.39,2.39,0,0,1,2.14-1.2,1.75,1.75,0,0,1,.68.11Z"/><path d="M452.94,188.17l2.21-6.88h1.57l-3.21,9h-1.17l-3.24-9h1.56Z"/><path d="M461.8,190.41a3.94,3.94,0,0,1-3-1.19,4.46,4.46,0,0,1-1.14-3.2v-.28a5.37,5.37,0,0,1,.51-2.38,3.93,3.93,0,0,1,1.42-1.64,3.62,3.62,0,0,1,2-.59,3.35,3.35,0,0,1,2.71,1.15,5,5,0,0,1,1,3.29v.64h-6.07a3.22,3.22,0,0,0,.78,2.14,2.43,2.43,0,0,0,1.88.81,2.65,2.65,0,0,0,1.37-.33,3.43,3.43,0,0,0,1-.88l.93.73A3.74,3.74,0,0,1,461.8,190.41Zm-.19-8a2,2,0,0,0-1.56.67,3.28,3.28,0,0,0-.78,1.89h4.49v-.11a3,3,0,0,0-.63-1.81A1.91,1.91,0,0,0,461.61,182.39Z"/><path d="M472.27,187.87a1.13,1.13,0,0,0-.47-1,4.34,4.34,0,0,0-1.63-.59,7.92,7.92,0,0,1-1.84-.6,2.6,2.6,0,0,1-1-.83,2,2,0,0,1-.33-1.14,2.33,2.33,0,0,1,.93-1.86,3.63,3.63,0,0,1,2.38-.76,3.75,3.75,0,0,1,2.47.78,2.53,2.53,0,0,1,1,2h-1.54a1.4,1.4,0,0,0-.53-1.09,2,2,0,0,0-1.35-.45,2.12,2.12,0,0,0-1.31.36,1.15,1.15,0,0,0-.47.95.94.94,0,0,0,.44.84,5.56,5.56,0,0,0,1.58.54,7.93,7.93,0,0,1,1.86.61,2.66,2.66,0,0,1,1.06.85,2.11,2.11,0,0,1,.34,1.22,2.3,2.3,0,0,1-1,1.93,4,4,0,0,1-2.49.72,4.54,4.54,0,0,1-1.9-.38,3.11,3.11,0,0,1-1.3-1.06,2.59,2.59,0,0,1-.46-1.48h1.53a1.57,1.57,0,0,0,.61,1.22,2.86,2.86,0,0,0,2.91.1A1.08,1.08,0,0,0,472.27,187.87Z"/><path d="M477.87,179.13v2.16h1.67v1.19h-1.67V188a1.29,1.29,0,0,0,.22.8,1,1,0,0,0,.77.27,3.44,3.44,0,0,0,.72-.1v1.24a4.39,4.39,0,0,1-1.17.16,1.89,1.89,0,0,1-1.55-.62,2.64,2.64,0,0,1-.52-1.76v-5.55h-1.63v-1.19h1.63v-2.16Z"/><path d="M485.15,185.7a5.23,5.23,0,0,1,1-3.34,3.13,3.13,0,0,1,2.6-1.23,3.09,3.09,0,0,1,2.5,1.07l.07-.91h1.41v12.4h-1.53v-4.27a3.22,3.22,0,0,1-2.47,1,3.08,3.08,0,0,1-2.58-1.26,5.33,5.33,0,0,1-1-3.35Zm1.53.17a4,4,0,0,0,.65,2.42,2.07,2.07,0,0,0,1.75.87,2.29,2.29,0,0,0,2.09-1.21v-4.38a2.31,2.31,0,0,0-2.07-1.18,2.09,2.09,0,0,0-1.77.88A4.37,4.37,0,0,0,486.68,185.87Z"/><path d="M500.68,189.36a3.26,3.26,0,0,1-2.62,1,2.79,2.79,0,0,1-2.18-.83,3.6,3.6,0,0,1-.76-2.46v-5.83h1.53v5.79c0,1.35.55,2,1.66,2a2.3,2.3,0,0,0,2.33-1.3v-6.52h1.53v9h-1.46Z"/><path d="M510,190.25a3.06,3.06,0,0,1-.21-.95,3.43,3.43,0,0,1-2.55,1.11,3.13,3.13,0,0,1-2.17-.75,2.41,2.41,0,0,1-.85-1.9,2.53,2.53,0,0,1,1.06-2.17,5.06,5.06,0,0,1,3-.77h1.49v-.7a1.7,1.7,0,0,0-.48-1.28,1.91,1.91,0,0,0-1.41-.48,2.22,2.22,0,0,0-1.38.42,1.19,1.19,0,0,0-.55,1h-1.54a2.12,2.12,0,0,1,.48-1.3,3.27,3.27,0,0,1,1.29-1,4.37,4.37,0,0,1,1.79-.36,3.55,3.55,0,0,1,2.42.77,2.78,2.78,0,0,1,.91,2.13v4.12a5,5,0,0,0,.32,2v.14Zm-2.54-1.17a2.69,2.69,0,0,0,1.37-.37,2.22,2.22,0,0,0,.93-1V185.9h-1.2c-1.87,0-2.81.55-2.81,1.65a1.38,1.38,0,0,0,.48,1.12A1.84,1.84,0,0,0,507.48,189.08Z"/><path d="M515.37,190.25h-1.53V177.54h1.53Z"/><path d="M517.83,178.92a.92.92,0,0,1,.23-.63.84.84,0,0,1,.67-.26.87.87,0,0,1,.68.26.88.88,0,0,1,.23.63.84.84,0,0,1-.23.62.86.86,0,0,1-.68.25.84.84,0,0,1-.67-.25A.88.88,0,0,1,517.83,178.92Zm1.66,11.33H518v-9h1.54Z"/><path d="M524,179.13v2.16h1.67v1.19H524V188a1.29,1.29,0,0,0,.22.8,1,1,0,0,0,.77.27,3.44,3.44,0,0,0,.72-.1v1.24a4.39,4.39,0,0,1-1.17.16,1.9,1.9,0,0,1-1.55-.62,2.64,2.64,0,0,1-.52-1.76v-5.55h-1.63v-1.19h1.63v-2.16Z"/><path d="M530.4,188l2.08-6.71h1.64l-3.6,10.34c-.55,1.49-1.44,2.23-2.65,2.23l-.29,0-.57-.11v-1.24l.41,0a2,2,0,0,0,1.21-.31,2.33,2.33,0,0,0,.72-1.15l.34-.91-3.2-8.86h1.67Z"/><rect class="cls-1" x="45.44" y="44.17" width="161.66" height="161.66" transform="translate(125.37 -52.67) rotate(45)"/><g class="cls-2"><path class="cls-3" d="M126.27,227.68,23.58,125,126.27,22.32,229,125ZM26.76,125l99.51,99.51L225.77,125l-99.5-99.51Zm99.51,89.64L92,180.37l26.2-26.21L92.8,128.75l-18,18,11.91,11.91,4.93-4.93-7-7,8.16-8.16,15.53,15.54L87.06,175.43l-30-30L77.57,125,57.1,104.53l30-30,21.27,21.27L92.8,111.38l-8.16-8.16,7-7-4.93-4.93L74.77,103.22l18,18,25.4-25.41L92,69.63l34.27-34.27,34.27,34.27L134.33,95.84l25.41,25.41,18-18L165.86,91.31l-4.94,4.93,7,7-8.16,8.16L144.2,95.84l21.27-21.27,30,30L175,125l20.47,20.47-30,30L144.2,154.16l15.54-15.54,8.16,8.16-7,7,4.94,4.93,11.91-11.91-18-18-25.41,25.41,26.21,26.21Zm-31.1-34.27,31.1,31.1,31.09-31.1-26.2-26.21,28.58-28.58,21.2,21.2-15.08,15.09-8.11-8.11,7-7-5-5-12.37,12.37,18.1,18.1,26.79-26.79L171.79,125l20.47-20.47L165.47,77.74l-18.1,18.1,12.37,12.37,5-5-7-7,8.11-8.11,15.08,15.09-21.2,21.2L131.16,95.84l26.2-26.21-31.09-31.1-31.1,31.1,26.21,26.21L92.8,124.42l-21.21-21.2L86.68,88.13l8.1,8.11-7,7,5,5,12.36-12.37-18.1-18.1L60.27,104.53,80.75,125,60.27,145.47l26.79,26.79,18.1-18.1L92.8,141.79l-5,5,7,7-8.1,8.1L71.59,146.78l21.21-21.2,28.58,28.58Zm105.2-39.83L184.83,125l15.54-15.54L215.9,125ZM188,125l12.37,12.37L212.73,125l-12.36-12.37ZM52.17,140.54,36.63,125l15.54-15.54L67.7,125ZM39.8,125l12.37,12.36L64.53,125,52.17,112.63Z"/><path class="cls-3" d="M126.27,204.05l-24-24,24-24,24,24ZM105.4,180l20.87,20.87L147.14,180l-20.87-20.87Z"/><path class="cls-3" d="M126.27,93.37l-24-24.05,24-24,24,24ZM105.4,69.32,126.27,90.2l20.87-20.88L126.27,48.45Z"/></g><polygon class="cls-4" points="12.54 125 126.38 238.84 528.2 238.84 642.04 125 528.2 11.16 126.38 11.16 12.54 125"/><path class="cls-3" d="M147.65,77.35c.39.36.79.69,1.16,1.06q7.71,7.7,15.41,15.39a2.87,2.87,0,0,1,.91,2.22c0,19.6-.06,39.2,0,58.8,0,4-2.55,6.59-6.15,6.43a3.76,3.76,0,0,0-.38.06,6.32,6.32,0,0,1-1.65,4.82,6.22,6.22,0,0,1-4.9,1.64c-.07.25-.12.45-.17.65a5.47,5.47,0,0,1-5.35,4.21c-3.07,0-6.14,0-9.21,0H93.5c-3.89,0-6.12-2.22-6.12-6.11V148a4.23,4.23,0,0,1,.06-1,1.37,1.37,0,0,1,2.72.16c0,.3,0,.62,0,.93v18.42c0,2.35,1,3.34,3.33,3.34h52.59a2.71,2.71,0,0,0,3-2.08h-1.09c-2.24,0-4.47,0-6.71,0-1.1,0-1.71-.52-1.71-1.4s.56-1.38,1.61-1.38H152.5c2.37,0,3.46-1.21,3.22-3.68-.37,0-.75,0-1.14,0H106.83a10.87,10.87,0,0,1-2.21-.18,5.38,5.38,0,0,1-4.09-4.55,10.81,10.81,0,0,1-.09-1.39v-54a5.14,5.14,0,0,1,.08-1.11A1.27,1.27,0,0,1,102,99a1.26,1.26,0,0,1,1.23,1.18,9.63,9.63,0,0,1,0,1.2v53.41a8.23,8.23,0,0,0,.1,1.49,2.46,2.46,0,0,0,1.91,2.05,6,6,0,0,0,1.47.13h52.12a7.61,7.61,0,0,0,.83,0,2.76,2.76,0,0,0,2.66-2.71c0-.25,0-.5,0-.75V96.74c-.39,0-.72,0-1,0H152c-4,0-6.18-2.19-6.18-6.13,0-3.1,0-6.21,0-9.31V80.15H144.7q-19.06,0-38.15,0c-2.35,0-3.31,1-3.32,3.35v9.86c0,.28,0,.56,0,.84-.06.92-.55,1.43-1.36,1.44a1.34,1.34,0,0,1-1.4-1.42c0-1.71,0-3.41,0-5.12V86.81c-2.15-.48-3.65.65-3.74,2.74v.65q0,35.64,0,71.27a5.65,5.65,0,0,0,.21,1.74A2.68,2.68,0,0,0,99.7,165c3,0,6,0,9,0h25.41a7.22,7.22,0,0,1,.93,0,1.26,1.26,0,0,1,1.21,1.2,1.24,1.24,0,0,1-.91,1.43,3.69,3.69,0,0,1-1.1.13q-17.18,0-34.34,0c-3.76,0-6-2.27-6-6v-70a2.81,2.81,0,0,0-3.73,3c0,5.62,0,11.23,0,16.85v28.93c0,.4.1.91-.1,1.18a2,2,0,0,1-1.25.87,2,2,0,0,1-1.27-.82c-.22-.27-.16-.77-.16-1.17q0-22.84,0-45.69c0-3.69,2.14-5.88,5.84-6.06a1,1,0,0,0,.79-.47c1-3,2.68-4.31,5.79-4.39.18,0,.36,0,.6,0,0-.37,0-.7,0-1a5.5,5.5,0,0,1,4-5.24,2.05,2.05,0,0,0,.39-.2Zm.93,5.08c0,2.82,0,5.69,0,8.56a2.71,2.71,0,0,0,2.91,2.9c2,0,4,0,5.95,0h2.61Z"/><path class="cls-3" d="M132.87,117.9h17.76a7.07,7.07,0,0,1,.92,0,1.3,1.3,0,0,1,1.23,1.3,1.26,1.26,0,0,1-1,1.38,4.1,4.1,0,0,1-1.11.09H114.88a4.8,4.8,0,0,1-.93,0,1.31,1.31,0,0,1-1.17-1.44,1.26,1.26,0,0,1,1.31-1.3c1.21,0,2.42,0,3.62,0Z"/><path class="cls-3" d="M132.74,110.33H115a8.63,8.63,0,0,1-1,0,1.37,1.37,0,0,1-.23-2.66,4,4,0,0,1,1.1-.1h35.88c.22,0,.44,0,.65,0a1.43,1.43,0,0,1,1.43,1.42,1.35,1.35,0,0,1-1.46,1.35c-1.92,0-3.84,0-5.76,0Z"/><path class="cls-3" d="M132.76,131H114.89a7,7,0,0,1-1,0,1.23,1.23,0,0,1-1.08-1.21,1.24,1.24,0,0,1,.94-1.42,4,4,0,0,1,1.1-.11h35.92c.37,0,.85-.07,1.08.13a2.55,2.55,0,0,1,.91,1.34,1.14,1.14,0,0,1-1.09,1.27,6.91,6.91,0,0,1-1,0Z"/></svg>