<svg id="Layer_1" data-name="Layer 1" xmlns="http://www.w3.org/2000/svg" viewBox="0 0 654 250"><defs><style>.cls-1{fill:none;stroke:#bf2134;stroke-miterlimit:10;stroke-width:2.6px;}.cls-2{fill:#bf2134;}.cls-3{opacity:0.15;}.cls-4{fill:#fff;}</style></defs><polygon class="cls-1" points="12.54 125 126.38 238.84 528.2 238.84 642.04 125 528.2 11.16 126.38 11.16 12.54 125"/><path class="cls-2" d="M321.84,109.64a6.81,6.81,0,0,1-2.28-1.07l1-2.22a6.82,6.82,0,0,0,1.95,1,7.13,7.13,0,0,0,2.26.37,3.71,3.71,0,0,0,1.86-.37,1.13,1.13,0,0,0,.61-1,1,1,0,0,0-.36-.76,2.7,2.7,0,0,0-.91-.48c-.37-.12-.87-.26-1.51-.4a21,21,0,0,1-2.39-.69,4,4,0,0,1-1.59-1.12,3,3,0,0,1-.67-2,3.58,3.58,0,0,1,.6-2,4,4,0,0,1,1.82-1.43,7.43,7.43,0,0,1,3-.53,10,10,0,0,1,2.39.29,7.46,7.46,0,0,1,2.05.84l-.92,2.25a7.12,7.12,0,0,0-3.54-1,3.4,3.4,0,0,0-1.83.4,1.22,1.22,0,0,0-.59,1.06,1,1,0,0,0,.68,1,11.21,11.21,0,0,0,2.09.63,21,21,0,0,1,2.39.69,4,4,0,0,1,1.6,1.1,2.94,2.94,0,0,1,.66,2,3.47,3.47,0,0,1-.61,2,4.13,4.13,0,0,1-1.83,1.43,7.39,7.39,0,0,1-3,.53A10.51,10.51,0,0,1,321.84,109.64Z"/><path class="cls-2" d="M342.1,107.46v2.37h-9.89V97.06h9.65v2.37h-6.71v2.78h5.93v2.29h-5.93v3Z"/><path class="cls-2" d="M352.87,107.1h-5.94l-1.13,2.73h-3l5.7-12.77h2.92l5.71,12.77H354Zm-.94-2.25-2-4.89-2,4.89Z"/><path class="cls-2" d="M377,97.06l-4.18,12.77h-3.17l-2.81-8.65-2.9,8.65h-3.16l-4.2-12.77h3.07l2.88,9,3-9h2.74l2.92,9,3-9Z"/><path class="cls-2" d="M388.57,107.46v2.37h-9.88V97.06h9.65v2.37h-6.72v2.78h5.93v2.29h-5.93v3Z"/><path class="cls-2" d="M400.82,107.46v2.37h-9.89V97.06h9.65v2.37h-6.71v2.78h5.93v2.29h-5.93v3Z"/><path class="cls-2" d="M403.17,97.06H409a8.12,8.12,0,0,1,3.67.79,5.93,5.93,0,0,1,2.48,2.24,6.77,6.77,0,0,1,0,6.71,5.93,5.93,0,0,1-2.48,2.24,8.12,8.12,0,0,1-3.67.79h-5.81Zm5.66,10.35a4.32,4.32,0,0,0,3.06-1.07,4.25,4.25,0,0,0,0-5.79,4.32,4.32,0,0,0-3.06-1.06h-2.7v7.92Z"/><path class="cls-2" d="M426.36,99.43v3.38h5.92v2.37h-5.92v4.65h-2.95V97.06h9.65v2.37Z"/><path class="cls-2" d="M443,107.1H437l-1.13,2.73h-3l5.69-12.77h2.92l5.71,12.77h-3.1Zm-.93-2.25L440,100l-2,4.89Z"/><path class="cls-2" d="M456.65,109.83l-2.46-3.56h-2.72v3.56h-3V97.06H454a7,7,0,0,1,2.95.57,4.37,4.37,0,0,1,1.93,1.6,4.38,4.38,0,0,1-2,6.5l2.87,4.1Zm-.74-9.79a3.15,3.15,0,0,0-2-.57h-2.41v4.45h2.41a3.09,3.09,0,0,0,2-.58,2.32,2.32,0,0,0,0-3.3Z"/><path class="cls-2" d="M473.55,109.83l0-7.66-3.76,6.31h-1.33l-3.74-6.15v7.5h-2.77V97.06h2.44l4.78,7.94,4.71-7.94h2.43l0,12.77Z"/><path class="cls-2" d="M489.24,107.46v2.37h-9.89V97.06H489v2.37h-6.72v2.78h5.93v2.29h-5.93v3Z"/><path class="cls-2" d="M499.73,109.83l-2.46-3.56h-2.72v3.56H491.6V97.06h5.52a7,7,0,0,1,2.95.57,4.32,4.32,0,0,1,1.93,1.6,4.38,4.38,0,0,1-2,6.5l2.87,4.1ZM499,100a3.15,3.15,0,0,0-2-.57h-2.41v4.45H497a3.09,3.09,0,0,0,2-.58,2.32,2.32,0,0,0,0-3.3Z"/><path class="cls-2" d="M506.28,109.64a6.81,6.81,0,0,1-2.28-1.07l1-2.22a6.82,6.82,0,0,0,1.95,1,7.13,7.13,0,0,0,2.26.37,3.71,3.71,0,0,0,1.86-.37,1.13,1.13,0,0,0,.61-1,1,1,0,0,0-.36-.76,2.7,2.7,0,0,0-.91-.48c-.37-.12-.87-.26-1.51-.4a21,21,0,0,1-2.39-.69,4,4,0,0,1-1.59-1.12,3,3,0,0,1-.67-2,3.58,3.58,0,0,1,.6-2,4,4,0,0,1,1.82-1.43,7.46,7.46,0,0,1,3-.53,10,10,0,0,1,2.39.29,7.46,7.46,0,0,1,2.05.84l-.92,2.25a7.09,7.09,0,0,0-3.54-1,3.4,3.4,0,0,0-1.83.4,1.24,1.24,0,0,0-.59,1.06,1,1,0,0,0,.68,1,11.21,11.21,0,0,0,2.09.63,20.45,20.45,0,0,1,2.39.69,4,4,0,0,1,1.6,1.1,2.94,2.94,0,0,1,.66,2,3.47,3.47,0,0,1-.61,2,4.07,4.07,0,0,1-1.83,1.43,7.39,7.39,0,0,1-3,.53A10.56,10.56,0,0,1,506.28,109.64Z"/><path class="cls-2" d="M375.94,73.27v6.54h-26.2v-5.2L363.11,62A14.06,14.06,0,0,0,366,58.49a6.32,6.32,0,0,0,.75-2.9,3.82,3.82,0,0,0-1.41-3.19,6.57,6.57,0,0,0-4.14-1.12,9.45,9.45,0,0,0-4.11.87,7.83,7.83,0,0,0-3.07,2.6L348.15,51a13.78,13.78,0,0,1,5.6-4.73,18.68,18.68,0,0,1,8.17-1.7,16.81,16.81,0,0,1,6.76,1.26,10.38,10.38,0,0,1,4.51,3.56,9.28,9.28,0,0,1,1.61,5.43,12.13,12.13,0,0,1-1.19,5.3A20.31,20.31,0,0,1,369,65.74l-8,7.53Z"/><path class="cls-2" d="M387.78,71.91a4.6,4.6,0,0,1,1.33,3.44,8.38,8.38,0,0,1-.24,2,23.31,23.31,0,0,1-1.09,3L385,87.44h-4.9l2.18-7.88a4.08,4.08,0,0,1-2-1.61,4.68,4.68,0,0,1-.72-2.6,4.55,4.55,0,0,1,1.37-3.44,4.76,4.76,0,0,1,3.44-1.31A4.71,4.71,0,0,1,387.78,71.91Z"/><path class="cls-2" d="M419.13,73.27v6.54h-26.2v-5.2L406.3,62a14.06,14.06,0,0,0,2.87-3.49,6.31,6.31,0,0,0,.74-2.9,3.82,3.82,0,0,0-1.41-3.19,6.52,6.52,0,0,0-4.13-1.12,9.45,9.45,0,0,0-4.11.87,7.76,7.76,0,0,0-3.07,2.6L391.34,51a13.78,13.78,0,0,1,5.6-4.73,18.68,18.68,0,0,1,8.17-1.7,16.81,16.81,0,0,1,6.76,1.26,10.49,10.49,0,0,1,4.51,3.56A9.28,9.28,0,0,1,418,54.8a12.13,12.13,0,0,1-1.19,5.3,20.31,20.31,0,0,1-4.61,5.64l-8,7.53Z"/><path class="cls-2" d="M445.08,59.4a10.72,10.72,0,0,1,4.31,3.79A10.29,10.29,0,0,1,451,68.86a10.85,10.85,0,0,1-1.73,6.1,11.3,11.3,0,0,1-4.73,4,15.46,15.46,0,0,1-6.66,1.41q-7.29,0-11.39-4.45t-4.11-12.73a21.44,21.44,0,0,1,2.22-10.11,15.28,15.28,0,0,1,6.22-6.39A19,19,0,0,1,440,44.55a22.6,22.6,0,0,1,5.32.61,14.48,14.48,0,0,1,4.34,1.76l-3,5.9a11.32,11.32,0,0,0-6.48-1.74,9.45,9.45,0,0,0-7,2.58q-2.58,2.58-2.77,7.48c2-2,4.9-3.07,8.57-3.07A13.55,13.55,0,0,1,445.08,59.4ZM441.59,73a4.71,4.71,0,0,0,1.61-3.76,4.8,4.8,0,0,0-1.61-3.79,6.28,6.28,0,0,0-4.29-1.41A6.37,6.37,0,0,0,433,65.52a5,5,0,0,0-.05,7.45,6.52,6.52,0,0,0,4.46,1.44A6.18,6.18,0,0,0,441.59,73Z"/><path class="cls-2" d="M485.64,72.53H480v7.28h-7.83V72.53H453.5v-5.4l16.34-22h8.42L463.11,66h9.31V59.5H480V66h5.64Z"/><path d="M262.06,136.63a.8.8,0,0,1,.19-.53.71.71,0,0,1,.57-.22.72.72,0,0,1,.58.22.76.76,0,0,1,.2.53.73.73,0,0,1-.2.52.75.75,0,0,1-.58.21.74.74,0,0,1-.57-.21A.77.77,0,0,1,262.06,136.63Zm1.4,9.58h-1.29v-7.57h1.29Z"/><path d="M266.76,138.64l0,1a2.76,2.76,0,0,1,2.27-1.09c1.6,0,2.41.9,2.42,2.71v5H270.2v-5a1.73,1.73,0,0,0-.38-1.21,1.48,1.48,0,0,0-1.14-.39,1.91,1.91,0,0,0-1.11.33,2.35,2.35,0,0,0-.74.88v5.4h-1.3v-7.57Z"/><path d="M277.2,146.21V136h3.33a3.92,3.92,0,0,1,2.5.68,2.51,2.51,0,0,1,.83,2,2.08,2.08,0,0,1-.4,1.26,2.59,2.59,0,0,1-1.11.85,2.37,2.37,0,0,1,1.31.88,2.5,2.5,0,0,1,.48,1.54,2.73,2.73,0,0,1-.89,2.16,3.71,3.71,0,0,1-2.52.78Zm1.34-5.84h2a2.09,2.09,0,0,0,1.41-.45,1.48,1.48,0,0,0,.53-1.2,1.45,1.45,0,0,0-.49-1.22,2.44,2.44,0,0,0-1.49-.38h-2Zm0,1.07v3.67h2.22a2.14,2.14,0,0,0,1.48-.48,1.73,1.73,0,0,0,.54-1.34c0-1.23-.66-1.85-2-1.85Z"/><path d="M290.6,146.21a2.57,2.57,0,0,1-.19-.8,2.87,2.87,0,0,1-2.15.94,2.69,2.69,0,0,1-1.84-.63,2,2,0,0,1-.72-1.61,2.15,2.15,0,0,1,.9-1.84,4.3,4.3,0,0,1,2.53-.65h1.26V141a1.46,1.46,0,0,0-.4-1.08,1.63,1.63,0,0,0-1.2-.4,1.9,1.9,0,0,0-1.16.35,1,1,0,0,0-.47.85h-1.3a1.78,1.78,0,0,1,.4-1.1,2.71,2.71,0,0,1,1.09-.83,3.63,3.63,0,0,1,1.52-.31,3,3,0,0,1,2.05.65,2.39,2.39,0,0,1,.77,1.8v3.49a4.4,4.4,0,0,0,.26,1.66v.11Zm-2.15-1a2.26,2.26,0,0,0,1.15-.31,1.83,1.83,0,0,0,.79-.82v-1.55h-1c-1.59,0-2.38.46-2.38,1.39a1.17,1.17,0,0,0,.4.95A1.56,1.56,0,0,0,288.45,145.22Z"/><path d="M295.12,146.21h-1.29V135.46h1.29Z"/><path d="M297.2,136.63a.76.76,0,0,1,.2-.53.85.85,0,0,1,1.14,0,.76.76,0,0,1,.2.53.77.77,0,1,1-1.54,0Zm1.4,9.58h-1.29v-7.57h1.29Z"/><path d="M310.64,142.51a4.51,4.51,0,0,1-.8,2.79,2.55,2.55,0,0,1-2.14,1,2.65,2.65,0,0,1-2.22-1l-.06.87h-1.19V135.46h1.29v4a2.61,2.61,0,0,1,2.16-1,2.55,2.55,0,0,1,2.17,1,4.63,4.63,0,0,1,.79,2.86Zm-1.3-.15a3.49,3.49,0,0,0-.51-2,1.69,1.69,0,0,0-1.47-.72,1.89,1.89,0,0,0-1.84,1.19v3.27a2,2,0,0,0,1.86,1.19,1.66,1.66,0,0,0,1.44-.72A3.68,3.68,0,0,0,309.34,142.36Z"/><path d="M315.41,146.35a3.31,3.31,0,0,1-2.5-1,3.73,3.73,0,0,1-1-2.71v-.23a4.54,4.54,0,0,1,.43-2,3.32,3.32,0,0,1,1.21-1.38,3,3,0,0,1,1.67-.5,2.84,2.84,0,0,1,2.3,1,4.26,4.26,0,0,1,.82,2.79v.54h-5.13a2.61,2.61,0,0,0,.65,1.8,2.06,2.06,0,0,0,1.59.69,2.25,2.25,0,0,0,1.17-.28,2.9,2.9,0,0,0,.83-.74l.79.62A3.2,3.2,0,0,1,315.41,146.35Zm-.16-6.79a1.71,1.71,0,0,0-1.31.57,2.73,2.73,0,0,0-.66,1.6h3.79v-.1a2.51,2.51,0,0,0-.53-1.53A1.64,1.64,0,0,0,315.25,139.56Z"/><path d="M321.09,138.64l0,1a2.76,2.76,0,0,1,2.27-1.09c1.6,0,2.41.9,2.42,2.71v5h-1.29v-5a1.73,1.73,0,0,0-.38-1.21,1.48,1.48,0,0,0-1.14-.39,1.91,1.91,0,0,0-1.11.33,2.44,2.44,0,0,0-.74.88v5.4h-1.29v-7.57Z"/><path d="M330.92,146.35a3.34,3.34,0,0,1-2.51-1,3.77,3.77,0,0,1-1-2.71v-.23a4.54,4.54,0,0,1,.43-2,3.3,3.3,0,0,1,1.2-1.38,3,3,0,0,1,1.68-.5,2.82,2.82,0,0,1,2.29,1,4.2,4.2,0,0,1,.82,2.79v.54h-5.13a2.66,2.66,0,0,0,.66,1.8,2,2,0,0,0,1.59.69,2.22,2.22,0,0,0,1.16-.28,2.66,2.66,0,0,0,.83-.74l.8.62A3.2,3.2,0,0,1,330.92,146.35Zm-.16-6.79a1.75,1.75,0,0,0-1.32.57,2.87,2.87,0,0,0-.66,1.6h3.8v-.1a2.57,2.57,0,0,0-.53-1.53A1.64,1.64,0,0,0,330.76,139.56Z"/><path d="M336,146.21v-6.57h-1.2v-1H336v-.78a2.59,2.59,0,0,1,.65-1.88,2.43,2.43,0,0,1,1.84-.67,3.35,3.35,0,0,1,.89.12l-.07,1a3.88,3.88,0,0,0-.7-.06,1.23,1.23,0,0,0-1,.37,1.5,1.5,0,0,0-.35,1.06v.8h1.62v1H337.3v6.57Z"/><path d="M340.36,136.63a.75.75,0,0,1,.19-.53.85.85,0,0,1,1.14,0,.76.76,0,0,1,.2.53.8.8,0,0,1-1.34.52A.73.73,0,0,1,340.36,136.63Zm1.4,9.58h-1.3v-7.57h1.3Z"/><path d="M345.59,136.8v1.84H347v1h-1.41v4.7a1.06,1.06,0,0,0,.18.68.79.79,0,0,0,.65.23,3.51,3.51,0,0,0,.61-.08v1a3.48,3.48,0,0,1-1,.14,1.62,1.62,0,0,1-1.31-.52,2.28,2.28,0,0,1-.44-1.49v-4.7h-1.38v-1h1.38V136.8Z"/><path d="M350.27,136.8v1.84h1.41v1h-1.41v4.7a1,1,0,0,0,.19.68.76.76,0,0,0,.64.23,3.6,3.6,0,0,0,.62-.08v1a3.5,3.5,0,0,1-1,.14,1.63,1.63,0,0,1-1.31-.52,2.28,2.28,0,0,1-.44-1.49v-4.7H347.6v-1H349V136.8Z"/><path d="M356.34,146.35a3.34,3.34,0,0,1-2.51-1,3.77,3.77,0,0,1-1-2.71v-.23a4.54,4.54,0,0,1,.43-2,3.23,3.23,0,0,1,1.2-1.38,3,3,0,0,1,1.68-.5,2.82,2.82,0,0,1,2.29,1,4.2,4.2,0,0,1,.82,2.79v.54h-5.13a2.66,2.66,0,0,0,.66,1.8,2,2,0,0,0,1.59.69,2.22,2.22,0,0,0,1.16-.28,2.77,2.77,0,0,0,.83-.74l.79.62A3.17,3.17,0,0,1,356.34,146.35Zm-.16-6.79a1.73,1.73,0,0,0-1.32.57,2.87,2.87,0,0,0-.66,1.6H358v-.1a2.51,2.51,0,0,0-.54-1.53A1.6,1.6,0,0,0,356.18,139.56Z"/><path d="M360.48,142.36a4.42,4.42,0,0,1,.82-2.8,2.81,2.81,0,0,1,4.27-.15v-3.95h1.3v10.75h-1.19l-.07-.81a2.64,2.64,0,0,1-2.16.95,2.6,2.6,0,0,1-2.15-1.08,4.49,4.49,0,0,1-.82-2.81Zm1.29.15a3.36,3.36,0,0,0,.53,2,1.72,1.72,0,0,0,1.47.73,1.9,1.9,0,0,0,1.8-1.1v-3.48a1.89,1.89,0,0,0-1.78-1.07,1.73,1.73,0,0,0-1.49.73A3.75,3.75,0,0,0,361.77,142.51Z"/><path d="M373.06,146.21v-6.57h-1.19v-1h1.19v-.78a2.59,2.59,0,0,1,.65-1.88,2.45,2.45,0,0,1,1.84-.67,3.35,3.35,0,0,1,.89.12l-.07,1a3.88,3.88,0,0,0-.7-.06,1.24,1.24,0,0,0-1,.37,1.5,1.5,0,0,0-.34,1.06v.8H376v1h-1.61v6.57Z"/><path d="M381.06,139.8a4,4,0,0,0-.63-.05,1.7,1.7,0,0,0-1.73,1.09v5.37h-1.3v-7.57h1.26l0,.87a2,2,0,0,1,1.81-1,1.41,1.41,0,0,1,.57.09Z"/><path d="M381.77,142.35a4.52,4.52,0,0,1,.44-2,3.26,3.26,0,0,1,1.22-1.37,3.32,3.32,0,0,1,1.78-.48,3.17,3.17,0,0,1,2.5,1.07,4.1,4.1,0,0,1,1,2.85v.09a4.37,4.37,0,0,1-.43,2,3.16,3.16,0,0,1-1.21,1.37,3.32,3.32,0,0,1-1.81.49,3.19,3.19,0,0,1-2.49-1.07,4.08,4.08,0,0,1-1-2.83Zm1.3.16a3.23,3.23,0,0,0,.59,2,2,2,0,0,0,3.13,0,3.52,3.52,0,0,0,.58-2.17,3.27,3.27,0,0,0-.59-2,2,2,0,0,0-3.12,0A3.55,3.55,0,0,0,383.07,142.51Z"/><path d="M391.51,138.64l0,.84a2.79,2.79,0,0,1,2.25-1,2.15,2.15,0,0,1,2.16,1.22,2.8,2.8,0,0,1,2.42-1.22c1.66,0,2.5.88,2.53,2.64v5.07h-1.29v-5a1.77,1.77,0,0,0-.37-1.21,1.65,1.65,0,0,0-1.25-.4,1.72,1.72,0,0,0-1.2.43,1.75,1.75,0,0,0-.55,1.16v5h-1.3v-5a1.45,1.45,0,0,0-1.62-1.65,1.73,1.73,0,0,0-1.74,1.08v5.53h-1.3v-7.57Z"/><path d="M411.08,146.21a3,3,0,0,1-.18-.8,2.87,2.87,0,0,1-2.16.94,2.66,2.66,0,0,1-1.83-.63,2,2,0,0,1-.72-1.61,2.15,2.15,0,0,1,.9-1.84,4.28,4.28,0,0,1,2.53-.65h1.26V141a1.46,1.46,0,0,0-.41-1.08,1.62,1.62,0,0,0-1.19-.4,1.93,1.93,0,0,0-1.17.35,1,1,0,0,0-.47.85h-1.3a1.84,1.84,0,0,1,.4-1.1,2.74,2.74,0,0,1,1.1-.83,3.58,3.58,0,0,1,1.51-.31,3,3,0,0,1,2,.65,2.32,2.32,0,0,1,.77,1.8v3.49a4.19,4.19,0,0,0,.27,1.66v.11Zm-2.15-1a2.29,2.29,0,0,0,1.16-.31,1.89,1.89,0,0,0,.79-.82v-1.55h-1c-1.58,0-2.38.46-2.38,1.39a1.18,1.18,0,0,0,.41.95A1.55,1.55,0,0,0,408.93,145.22Z"/><path d="M415.43,138.64l0,1a2.76,2.76,0,0,1,2.27-1.09c1.6,0,2.41.9,2.42,2.71v5h-1.29v-5a1.73,1.73,0,0,0-.38-1.21,1.48,1.48,0,0,0-1.14-.39,1.91,1.91,0,0,0-1.11.33,2.35,2.35,0,0,0-.74.88v5.4h-1.3v-7.57Z"/><path d="M433,136V143a3.23,3.23,0,0,1-.9,2.36,3.7,3.7,0,0,1-2.44,1h-.36a3.82,3.82,0,0,1-2.67-.9,3.24,3.24,0,0,1-1-2.49V136H427v6.9a2.47,2.47,0,0,0,4.1,1.72,2.31,2.31,0,0,0,.6-1.71V136Z"/><path d="M443,146.21h-1.35l-5.13-7.85v7.85h-1.36V136h1.36l5.14,7.89V136H443Z"/><path d="M447.88,142.41h-3.42v-1.06h3.42Z"/><path d="M455.55,142.51a4.51,4.51,0,0,1-.8,2.79,2.54,2.54,0,0,1-2.14,1,2.65,2.65,0,0,1-2.22-1l-.06.87h-1.19V135.46h1.29v4a2.63,2.63,0,0,1,2.17-1,2.54,2.54,0,0,1,2.16,1,4.63,4.63,0,0,1,.79,2.86Zm-1.3-.15a3.49,3.49,0,0,0-.51-2,1.69,1.69,0,0,0-1.47-.72,1.9,1.9,0,0,0-1.84,1.19v3.27a2,2,0,0,0,1.86,1.19,1.69,1.69,0,0,0,1.45-.72A3.76,3.76,0,0,0,454.25,142.36Z"/><path d="M461.86,146.21a2.36,2.36,0,0,1-.18-.8,2.9,2.9,0,0,1-2.16.94,2.69,2.69,0,0,1-1.84-.63,2,2,0,0,1-.72-1.61,2.15,2.15,0,0,1,.9-1.84,4.3,4.3,0,0,1,2.53-.65h1.26V141a1.46,1.46,0,0,0-.4-1.08,1.63,1.63,0,0,0-1.2-.4,1.9,1.9,0,0,0-1.16.35,1,1,0,0,0-.47.85h-1.3a1.78,1.78,0,0,1,.4-1.1,2.71,2.71,0,0,1,1.09-.83,3.63,3.63,0,0,1,1.52-.31,3,3,0,0,1,2.05.65A2.39,2.39,0,0,1,463,141v3.49a4.19,4.19,0,0,0,.27,1.66v.11Zm-2.15-1a2.26,2.26,0,0,0,1.15-.31,1.83,1.83,0,0,0,.79-.82v-1.55h-1c-1.59,0-2.38.46-2.38,1.39a1.17,1.17,0,0,0,.4.95A1.58,1.58,0,0,0,459.71,145.22Z"/><path d="M468,145.29a1.88,1.88,0,0,0,1.21-.42,1.47,1.47,0,0,0,.57-1.05H471a2.35,2.35,0,0,1-.45,1.24,2.88,2.88,0,0,1-1.1.94,3.24,3.24,0,0,1-1.46.35,3.12,3.12,0,0,1-2.46-1,4.12,4.12,0,0,1-.92-2.83v-.21a4.56,4.56,0,0,1,.41-2,3.12,3.12,0,0,1,1.17-1.34,3.34,3.34,0,0,1,1.79-.47,3,3,0,0,1,2.12.76,2.75,2.75,0,0,1,.9,2H469.8a1.74,1.74,0,0,0-1.79-1.68,1.82,1.82,0,0,0-1.53.71,3.37,3.37,0,0,0-.54,2.06v.24a3.28,3.28,0,0,0,.54,2A1.82,1.82,0,0,0,468,145.29Z"/><path d="M474.6,142.7l-.81.85v2.66h-1.3V135.46h1.3V142l.69-.83,2.36-2.49h1.57l-2.94,3.16,3.29,4.41h-1.52Z"/><path d="M482.75,146.35a3.31,3.31,0,0,1-2.5-1,3.73,3.73,0,0,1-1-2.71v-.23a4.68,4.68,0,0,1,.43-2,3.32,3.32,0,0,1,1.21-1.38,3,3,0,0,1,1.67-.5,2.84,2.84,0,0,1,2.3,1,4.2,4.2,0,0,1,.82,2.79v.54h-5.13a2.65,2.65,0,0,0,.65,1.8,2.06,2.06,0,0,0,1.59.69A2.25,2.25,0,0,0,484,145a2.9,2.9,0,0,0,.83-.74l.79.62A3.19,3.19,0,0,1,482.75,146.35Zm-.16-6.79a1.71,1.71,0,0,0-1.31.57,2.73,2.73,0,0,0-.66,1.6h3.79v-.1a2.44,2.44,0,0,0-.53-1.53A1.64,1.64,0,0,0,482.59,139.56Z"/><path d="M486.89,142.36a4.42,4.42,0,0,1,.83-2.8,2.81,2.81,0,0,1,4.27-.15v-3.95h1.29v10.75h-1.19l-.06-.81a2.65,2.65,0,0,1-2.16.95,2.59,2.59,0,0,1-2.15-1.08,4.49,4.49,0,0,1-.83-2.81Zm1.3.15a3.29,3.29,0,0,0,.53,2,1.7,1.7,0,0,0,1.47.73,1.9,1.9,0,0,0,1.8-1.1v-3.48a1.9,1.9,0,0,0-1.79-1.07,1.72,1.72,0,0,0-1.48.73A3.67,3.67,0,0,0,488.19,142.51Z"/><path d="M498.85,136.63a.75.75,0,0,1,.19-.53.71.71,0,0,1,.57-.22.71.71,0,0,1,.77.75.73.73,0,0,1-.19.52.78.78,0,0,1-.58.21.74.74,0,0,1-.57-.21A.73.73,0,0,1,498.85,136.63Zm1.4,9.58H499v-7.57h1.3Z"/><path d="M503.55,138.64l0,1a2.75,2.75,0,0,1,2.27-1.09c1.6,0,2.4.9,2.42,2.71v5H507v-5a1.73,1.73,0,0,0-.37-1.21,1.52,1.52,0,0,0-1.15-.39,1.88,1.88,0,0,0-1.1.33,2.26,2.26,0,0,0-.74.88v5.4h-1.3v-7.57Z"/><path d="M512,136.8v1.84h1.41v1H512v4.7a1,1,0,0,0,.19.68.76.76,0,0,0,.64.23,3.6,3.6,0,0,0,.62-.08v1a3.5,3.5,0,0,1-1,.14,1.62,1.62,0,0,1-1.31-.52,2.28,2.28,0,0,1-.44-1.49v-4.7h-1.38v-1h1.38V136.8Z"/><path d="M518.06,146.35a3.34,3.34,0,0,1-2.51-1,3.77,3.77,0,0,1-1-2.71v-.23a4.54,4.54,0,0,1,.43-2,3.23,3.23,0,0,1,1.2-1.38,3,3,0,0,1,1.68-.5,2.82,2.82,0,0,1,2.29,1,4.2,4.2,0,0,1,.82,2.79v.54h-5.13a2.7,2.7,0,0,0,.65,1.8,2.07,2.07,0,0,0,1.6.69,2.24,2.24,0,0,0,1.16-.28,2.77,2.77,0,0,0,.83-.74l.79.62A3.17,3.17,0,0,1,518.06,146.35Zm-.16-6.79a1.73,1.73,0,0,0-1.32.57,2.87,2.87,0,0,0-.66,1.6h3.8v-.1a2.51,2.51,0,0,0-.54-1.53A1.6,1.6,0,0,0,517.9,139.56Z"/><path d="M526.17,139.8a4.16,4.16,0,0,0-.64-.05,1.7,1.7,0,0,0-1.72,1.09v5.37h-1.3v-7.57h1.26l0,.87a2,2,0,0,1,1.81-1,1.41,1.41,0,0,1,.57.09Z"/><path d="M530,144.45l1.87-5.81h1.33l-2.72,7.57h-1l-2.74-7.57h1.32Z"/><path d="M537.48,146.35a3.31,3.31,0,0,1-2.5-1,3.73,3.73,0,0,1-1-2.71v-.23a4.68,4.68,0,0,1,.43-2,3.32,3.32,0,0,1,1.21-1.38,3,3,0,0,1,1.67-.5,2.84,2.84,0,0,1,2.3,1,4.26,4.26,0,0,1,.82,2.79v.54h-5.13a2.61,2.61,0,0,0,.65,1.8,2.06,2.06,0,0,0,1.59.69,2.25,2.25,0,0,0,1.17-.28,2.9,2.9,0,0,0,.83-.74l.79.62A3.2,3.2,0,0,1,537.48,146.35Zm-.16-6.79a1.71,1.71,0,0,0-1.31.57,2.73,2.73,0,0,0-.66,1.6h3.79v-.1a2.44,2.44,0,0,0-.53-1.53A1.64,1.64,0,0,0,537.32,139.56Z"/><path d="M543.16,138.64l0,1a2.76,2.76,0,0,1,2.27-1.09c1.6,0,2.41.9,2.42,2.71v5H546.6v-5a1.73,1.73,0,0,0-.38-1.21,1.48,1.48,0,0,0-1.14-.39,1.91,1.91,0,0,0-1.11.33,2.44,2.44,0,0,0-.74.88v5.4h-1.29v-7.57Z"/><path d="M551.6,136.8v1.84H553v1H551.6v4.7a1.06,1.06,0,0,0,.19.68.78.78,0,0,0,.65.23,3.51,3.51,0,0,0,.61-.08v1a3.48,3.48,0,0,1-1,.14,1.61,1.61,0,0,1-1.31-.52,2.28,2.28,0,0,1-.44-1.49v-4.7h-1.38v-1h1.38V136.8Z"/><path d="M554.54,136.63a.75.75,0,0,1,.19-.53.77.77,0,0,1,1.34.53.69.69,0,0,1-.2.52.88.88,0,0,1-1.14,0A.73.73,0,0,1,554.54,136.63Zm1.4,9.58h-1.3v-7.57h1.3Z"/><path d="M557.67,142.35a4.51,4.51,0,0,1,.43-2,3.22,3.22,0,0,1,3-1.85,3.2,3.2,0,0,1,2.51,1.07,4.14,4.14,0,0,1,.95,2.85v.09a4.5,4.5,0,0,1-.42,2,3.23,3.23,0,0,1-1.21,1.37,3.34,3.34,0,0,1-1.81.49,3.21,3.21,0,0,1-2.5-1.07,4.12,4.12,0,0,1-1-2.83Zm1.3.16a3.23,3.23,0,0,0,.58,2,2,2,0,0,0,3.14,0,3.59,3.59,0,0,0,.58-2.17,3.21,3.21,0,0,0-.6-2,2,2,0,0,0-3.11,0A3.48,3.48,0,0,0,559,142.51Z"/><path d="M567.41,138.64l0,1a2.76,2.76,0,0,1,2.27-1.09c1.6,0,2.41.9,2.42,2.71v5h-1.29v-5a1.73,1.73,0,0,0-.38-1.21,1.48,1.48,0,0,0-1.14-.39,1.91,1.91,0,0,0-1.11.33,2.44,2.44,0,0,0-.74.88v5.4h-1.29v-7.57Z"/><path d="M273.61,154v1.83H275v1h-1.41v4.71a1.08,1.08,0,0,0,.18.68.81.81,0,0,0,.65.23,2.88,2.88,0,0,0,.61-.09v1a3.87,3.87,0,0,1-1,.14,1.61,1.61,0,0,1-1.31-.53,2.28,2.28,0,0,1-.44-1.49v-4.7h-1.38v-1h1.38V154Z"/><path d="M277.83,156.76a2.73,2.73,0,0,1,2.24-1.06c1.6,0,2.41.9,2.42,2.71v5h-1.3v-5a1.75,1.75,0,0,0-.37-1.21,1.52,1.52,0,0,0-1.15-.39,1.82,1.82,0,0,0-1.1.34,2.12,2.12,0,0,0-.74.88v5.4h-1.3V152.66h1.3Z"/><path d="M289.1,163.42a3.09,3.09,0,0,1-.18-.8,2.9,2.9,0,0,1-2.15.94,2.64,2.64,0,0,1-1.84-.64,2,2,0,0,1-.72-1.6,2.14,2.14,0,0,1,.9-1.84,4.21,4.21,0,0,1,2.53-.66h1.26v-.59a1.46,1.46,0,0,0-.4-1.08,1.65,1.65,0,0,0-1.2-.41,1.9,1.9,0,0,0-1.16.35,1,1,0,0,0-.47.85h-1.3a1.75,1.75,0,0,1,.4-1.09,2.73,2.73,0,0,1,1.09-.84,3.59,3.59,0,0,1,1.52-.31,3,3,0,0,1,2.05.66,2.36,2.36,0,0,1,.77,1.8v3.49a4.19,4.19,0,0,0,.26,1.65v.12Zm-2.15-1a2.28,2.28,0,0,0,1.16-.32,1.92,1.92,0,0,0,.79-.81v-1.56h-1c-1.59,0-2.38.47-2.38,1.39a1.19,1.19,0,0,0,.4,1A1.6,1.6,0,0,0,287,162.43Z"/><path d="M294,154v1.83h1.42v1H294v4.71a1.08,1.08,0,0,0,.19.68.81.81,0,0,0,.65.23,2.88,2.88,0,0,0,.61-.09v1a3.87,3.87,0,0,1-1,.14,1.61,1.61,0,0,1-1.31-.53,2.28,2.28,0,0,1-.44-1.49v-4.7h-1.38v-1h1.38V154Z"/><path d="M300.47,153.83a.77.77,0,0,1,.19-.53.85.85,0,0,1,1.14,0,.78.78,0,0,1,.2.53.76.76,0,0,1-.2.53.88.88,0,0,1-1.14,0A.75.75,0,0,1,300.47,153.83Zm1.4,9.59h-1.3v-7.58h1.3Z"/><path d="M305.16,155.84l0,.95a2.76,2.76,0,0,1,2.26-1.09c1.6,0,2.41.9,2.43,2.71v5h-1.3v-5a1.75,1.75,0,0,0-.37-1.21,1.52,1.52,0,0,0-1.15-.39,1.8,1.8,0,0,0-1.1.34,2.22,2.22,0,0,0-.75.88v5.4h-1.29v-7.58Z"/><path d="M314.89,162.5a1.88,1.88,0,0,0,1.21-.42,1.5,1.5,0,0,0,.57-1.05h1.23a2.47,2.47,0,0,1-.45,1.24,3.06,3.06,0,0,1-1.1.94,3.24,3.24,0,0,1-1.46.35,3.12,3.12,0,0,1-2.46-1,4.09,4.09,0,0,1-.92-2.82v-.22a4.59,4.59,0,0,1,.41-2,3.14,3.14,0,0,1,1.16-1.33,3.32,3.32,0,0,1,1.8-.48,3.08,3.08,0,0,1,2.12.76,2.75,2.75,0,0,1,.9,2h-1.23a1.8,1.8,0,0,0-.55-1.21,1.73,1.73,0,0,0-1.24-.47,1.79,1.79,0,0,0-1.53.71,3.34,3.34,0,0,0-.54,2.05v.25a3.25,3.25,0,0,0,.54,2A1.82,1.82,0,0,0,314.89,162.5Z"/><path d="M323,157a4.26,4.26,0,0,0-.64-.05,1.71,1.71,0,0,0-1.73,1.09v5.38h-1.3v-7.58h1.26l0,.88a2,2,0,0,1,1.81-1,1.31,1.31,0,0,1,.58.1Z"/><path d="M327.21,163.56a3.29,3.29,0,0,1-2.5-1,3.71,3.71,0,0,1-1-2.7v-.24a4.64,4.64,0,0,1,.43-2,3.42,3.42,0,0,1,1.21-1.39,3,3,0,0,1,1.67-.5,2.87,2.87,0,0,1,2.3,1,4.2,4.2,0,0,1,.82,2.79V160H325a2.68,2.68,0,0,0,.65,1.81,2.06,2.06,0,0,0,1.59.69,2.25,2.25,0,0,0,1.17-.28,3.05,3.05,0,0,0,.83-.74l.79.61A3.18,3.18,0,0,1,327.21,163.56Zm-.16-6.79a1.71,1.71,0,0,0-1.31.57,2.7,2.7,0,0,0-.66,1.6h3.79v-.1a2.4,2.4,0,0,0-.53-1.53A1.63,1.63,0,0,0,327.05,156.77Z"/><path d="M336.34,163.42a3.09,3.09,0,0,1-.18-.8,2.9,2.9,0,0,1-2.15.94,2.64,2.64,0,0,1-1.84-.64,2,2,0,0,1-.72-1.6,2.14,2.14,0,0,1,.9-1.84,4.21,4.21,0,0,1,2.53-.66h1.26v-.59a1.46,1.46,0,0,0-.4-1.08,1.65,1.65,0,0,0-1.2-.41,1.9,1.9,0,0,0-1.16.35,1,1,0,0,0-.47.85H331.6a1.76,1.76,0,0,1,.41-1.09,2.73,2.73,0,0,1,1.09-.84,3.59,3.59,0,0,1,1.52-.31,3,3,0,0,1,2.05.66,2.36,2.36,0,0,1,.77,1.8v3.49a4.19,4.19,0,0,0,.26,1.65v.12Zm-2.15-1a2.28,2.28,0,0,0,1.16-.32,1.92,1.92,0,0,0,.79-.81v-1.56h-1c-1.59,0-2.38.47-2.38,1.39a1.19,1.19,0,0,0,.4,1A1.6,1.6,0,0,0,334.19,162.43Z"/><path d="M343.88,161.41a1,1,0,0,0-.4-.82,3.82,3.82,0,0,0-1.38-.5,7,7,0,0,1-1.56-.5,2.25,2.25,0,0,1-.85-.7,1.65,1.65,0,0,1-.28-1,2,2,0,0,1,.79-1.57,3.05,3.05,0,0,1,2-.65,3.12,3.12,0,0,1,2.09.67,2.12,2.12,0,0,1,.8,1.7h-1.3a1.17,1.17,0,0,0-.45-.92,1.67,1.67,0,0,0-1.14-.38,1.83,1.83,0,0,0-1.11.3,1,1,0,0,0-.4.81.8.8,0,0,0,.38.71,4.59,4.59,0,0,0,1.34.45,7.37,7.37,0,0,1,1.57.52,2.27,2.27,0,0,1,.89.72,1.84,1.84,0,0,1,.29,1,1.92,1.92,0,0,1-.81,1.62,3.39,3.39,0,0,1-2.11.62,3.77,3.77,0,0,1-1.61-.33,2.55,2.55,0,0,1-1.09-.9,2.11,2.11,0,0,1-.4-1.25h1.3a1.33,1.33,0,0,0,.52,1,2,2,0,0,0,1.28.38,2.06,2.06,0,0,0,1.18-.3A.91.91,0,0,0,343.88,161.41Z"/><path d="M350,163.56a3.29,3.29,0,0,1-2.5-1,3.71,3.71,0,0,1-1-2.7v-.24a4.5,4.5,0,0,1,.43-2,3.47,3.47,0,0,1,1.2-1.39,3.08,3.08,0,0,1,1.68-.5,2.87,2.87,0,0,1,2.3,1,4.26,4.26,0,0,1,.82,2.79V160h-5.14a2.69,2.69,0,0,0,.66,1.81,2.06,2.06,0,0,0,1.59.69,2.19,2.19,0,0,0,1.16-.28,3,3,0,0,0,.84-.74l.79.61A3.19,3.19,0,0,1,350,163.56Zm-.16-6.79a1.71,1.71,0,0,0-1.31.57,2.7,2.7,0,0,0-.66,1.6h3.79v-.1a2.46,2.46,0,0,0-.53-1.53A1.64,1.64,0,0,0,349.84,156.77Z"/><path d="M354.14,159.57a4.39,4.39,0,0,1,.83-2.81,2.81,2.81,0,0,1,4.27-.15v-4h1.29v10.76h-1.19l-.06-.82a2.63,2.63,0,0,1-2.16,1,2.59,2.59,0,0,1-2.15-1.08,4.52,4.52,0,0,1-.83-2.82Zm1.29.14a3.34,3.34,0,0,0,.54,2,1.72,1.72,0,0,0,1.47.73,1.89,1.89,0,0,0,1.8-1.11v-3.48a1.92,1.92,0,0,0-1.79-1.07,1.73,1.73,0,0,0-1.48.74A3.64,3.64,0,0,0,355.43,159.71Z"/><path d="M367.85,154v1.83h1.41v1h-1.41v4.71a1.08,1.08,0,0,0,.18.68.83.83,0,0,0,.65.23,3,3,0,0,0,.62-.09v1a4,4,0,0,1-1,.14A1.62,1.62,0,0,1,367,163a2.28,2.28,0,0,1-.44-1.49v-4.7h-1.38v-1h1.38V154Z"/><path d="M372.07,156.76a2.73,2.73,0,0,1,2.24-1.06c1.6,0,2.41.9,2.42,2.71v5h-1.29v-5a1.75,1.75,0,0,0-.38-1.21,1.5,1.5,0,0,0-1.14-.39,1.85,1.85,0,0,0-1.11.34,2.12,2.12,0,0,0-.74.88v5.4h-1.3V152.66h1.3Z"/><path d="M381.81,163.56a3.29,3.29,0,0,1-2.5-1,3.71,3.71,0,0,1-1-2.7v-.24a4.5,4.5,0,0,1,.43-2A3.42,3.42,0,0,1,380,156.2a3,3,0,0,1,1.67-.5,2.87,2.87,0,0,1,2.3,1,4.26,4.26,0,0,1,.82,2.79V160h-5.13a2.63,2.63,0,0,0,.65,1.81,2.06,2.06,0,0,0,1.59.69,2.19,2.19,0,0,0,1.16-.28,3,3,0,0,0,.84-.74l.79.61A3.19,3.19,0,0,1,381.81,163.56Zm-.16-6.79a1.71,1.71,0,0,0-1.31.57,2.7,2.7,0,0,0-.66,1.6h3.79v-.1a2.46,2.46,0,0,0-.53-1.53A1.64,1.64,0,0,0,381.65,156.77Z"/><path d="M394.49,163.42a3.09,3.09,0,0,1-.18-.8,2.91,2.91,0,0,1-2.16.94,2.66,2.66,0,0,1-1.84-.64,2.07,2.07,0,0,1-.71-1.6,2.14,2.14,0,0,1,.9-1.84,4.21,4.21,0,0,1,2.53-.66h1.26v-.59a1.46,1.46,0,0,0-.41-1.08,1.63,1.63,0,0,0-1.2-.41,1.9,1.9,0,0,0-1.16.35,1.06,1.06,0,0,0-.47.85h-1.3a1.75,1.75,0,0,1,.4-1.09,2.76,2.76,0,0,1,1.1-.84,3.55,3.55,0,0,1,1.51-.31,3,3,0,0,1,2.05.66,2.33,2.33,0,0,1,.77,1.8v3.49a4.17,4.17,0,0,0,.27,1.65v.12Zm-2.15-1a2.3,2.3,0,0,0,1.16-.32,2,2,0,0,0,.79-.81v-1.56h-1c-1.58,0-2.38.47-2.38,1.39a1.2,1.2,0,0,0,.41,1A1.6,1.6,0,0,0,392.34,162.43Z"/><path d="M401.27,157a4,4,0,0,0-.63-.05,1.71,1.71,0,0,0-1.73,1.09v5.38h-1.3v-7.58h1.26l0,.88a2,2,0,0,1,1.81-1,1.24,1.24,0,0,1,.57.1Z"/><path d="M405.47,163.56a3.29,3.29,0,0,1-2.5-1,3.71,3.71,0,0,1-1-2.7v-.24a4.64,4.64,0,0,1,.43-2,3.42,3.42,0,0,1,1.21-1.39,3,3,0,0,1,1.67-.5,2.87,2.87,0,0,1,2.3,1,4.2,4.2,0,0,1,.82,2.79V160H403.3a2.68,2.68,0,0,0,.65,1.81,2.06,2.06,0,0,0,1.59.69,2.25,2.25,0,0,0,1.17-.28,3.05,3.05,0,0,0,.83-.74l.79.61A3.18,3.18,0,0,1,405.47,163.56Zm-.16-6.79a1.71,1.71,0,0,0-1.31.57,2.7,2.7,0,0,0-.66,1.6h3.79v-.1a2.4,2.4,0,0,0-.53-1.53A1.64,1.64,0,0,0,405.31,156.77Z"/><path d="M414.6,163.42a3.09,3.09,0,0,1-.18-.8,2.91,2.91,0,0,1-2.16.94,2.64,2.64,0,0,1-1.83-.64,2,2,0,0,1-.72-1.6,2.14,2.14,0,0,1,.9-1.84,4.21,4.21,0,0,1,2.53-.66h1.26v-.59a1.46,1.46,0,0,0-.41-1.08,1.62,1.62,0,0,0-1.19-.41,1.93,1.93,0,0,0-1.17.35,1.06,1.06,0,0,0-.47.85h-1.3a1.76,1.76,0,0,1,.41-1.09,2.66,2.66,0,0,1,1.09-.84,3.58,3.58,0,0,1,1.51-.31,3,3,0,0,1,2.05.66,2.29,2.29,0,0,1,.77,1.8v3.49a4.17,4.17,0,0,0,.27,1.65v.12Zm-2.15-1a2.3,2.3,0,0,0,1.16-.32,1.92,1.92,0,0,0,.79-.81v-1.56h-1c-1.58,0-2.38.47-2.38,1.39a1.2,1.2,0,0,0,.41,1A1.6,1.6,0,0,0,412.45,162.43Z"/><path d="M420.93,159.56a4.49,4.49,0,0,1,.44-2,3.29,3.29,0,0,1,1.22-1.38,3.32,3.32,0,0,1,1.78-.48,3.19,3.19,0,0,1,2.5,1.07,4.13,4.13,0,0,1,1,2.85v.09a4.44,4.44,0,0,1-.43,2,3.22,3.22,0,0,1-1.21,1.37,3.41,3.41,0,0,1-1.81.49,3.19,3.19,0,0,1-2.49-1.07,4.1,4.1,0,0,1-1-2.84Zm1.3.15a3.26,3.26,0,0,0,.59,2,2,2,0,0,0,3.13,0,3.54,3.54,0,0,0,.58-2.17,3.27,3.27,0,0,0-.59-2,2,2,0,0,0-3.12,0A3.53,3.53,0,0,0,422.23,159.71Z"/><path d="M430.09,163.42v-6.58h-1.2v-1h1.2v-.78a2.54,2.54,0,0,1,.65-1.88,2.47,2.47,0,0,1,1.84-.66,3.87,3.87,0,0,1,.89.11l-.07,1.05a3.88,3.88,0,0,0-.7-.06,1.26,1.26,0,0,0-1,.36,1.5,1.5,0,0,0-.35,1.06v.8H433v1h-1.62v6.58Z"/><path d="M442.39,161.41a1,1,0,0,0-.4-.82,3.82,3.82,0,0,0-1.38-.5,7,7,0,0,1-1.56-.5,2.25,2.25,0,0,1-.85-.7,1.65,1.65,0,0,1-.28-1,2,2,0,0,1,.79-1.57,3.07,3.07,0,0,1,2-.65,3.12,3.12,0,0,1,2.09.67,2.09,2.09,0,0,1,.8,1.7h-1.3a1.17,1.17,0,0,0-.45-.92,1.67,1.67,0,0,0-1.14-.38,1.78,1.78,0,0,0-1.1.3,1,1,0,0,0-.4.81.79.79,0,0,0,.37.71,4.7,4.7,0,0,0,1.34.45,7.37,7.37,0,0,1,1.57.52,2.27,2.27,0,0,1,.89.72,1.77,1.77,0,0,1,.29,1,1.92,1.92,0,0,1-.81,1.62,3.39,3.39,0,0,1-2.11.62,3.77,3.77,0,0,1-1.61-.33,2.55,2.55,0,0,1-1.09-.9,2.11,2.11,0,0,1-.4-1.25H439a1.36,1.36,0,0,0,.52,1,2,2,0,0,0,1.28.38,2.06,2.06,0,0,0,1.18-.3A.91.91,0,0,0,442.39,161.41Z"/><path d="M448.51,163.56a3.29,3.29,0,0,1-2.5-1,3.71,3.71,0,0,1-1-2.7v-.24a4.64,4.64,0,0,1,.43-2,3.42,3.42,0,0,1,1.21-1.39,3,3,0,0,1,1.67-.5,2.87,2.87,0,0,1,2.3,1,4.2,4.2,0,0,1,.82,2.79V160h-5.13a2.68,2.68,0,0,0,.65,1.81,2.06,2.06,0,0,0,1.59.69,2.25,2.25,0,0,0,1.17-.28,3.05,3.05,0,0,0,.83-.74l.79.61A3.18,3.18,0,0,1,448.51,163.56Zm-.16-6.79a1.71,1.71,0,0,0-1.31.57,2.7,2.7,0,0,0-.66,1.6h3.79v-.1a2.4,2.4,0,0,0-.53-1.53A1.64,1.64,0,0,0,448.35,156.77Z"/><path d="M457.64,163.42a3.09,3.09,0,0,1-.18-.8,2.91,2.91,0,0,1-2.16.94,2.64,2.64,0,0,1-1.83-.64,2,2,0,0,1-.72-1.6,2.14,2.14,0,0,1,.9-1.84,4.21,4.21,0,0,1,2.53-.66h1.26v-.59a1.46,1.46,0,0,0-.41-1.08,1.62,1.62,0,0,0-1.19-.41,1.93,1.93,0,0,0-1.17.35,1.06,1.06,0,0,0-.47.85h-1.3a1.76,1.76,0,0,1,.41-1.09,2.66,2.66,0,0,1,1.09-.84,3.58,3.58,0,0,1,1.51-.31,3,3,0,0,1,2,.66,2.29,2.29,0,0,1,.77,1.8v3.49a4.17,4.17,0,0,0,.27,1.65v.12Zm-2.15-1a2.3,2.3,0,0,0,1.16-.32,1.92,1.92,0,0,0,.79-.81v-1.56h-1c-1.58,0-2.38.47-2.38,1.39a1.2,1.2,0,0,0,.41,1A1.6,1.6,0,0,0,455.49,162.43Z"/><path d="M467.47,161.63l1.46-5.79h1.29l-2.2,7.58h-1l-1.84-5.74-1.8,5.74h-1.05l-2.2-7.58h1.29l1.49,5.67,1.77-5.67h1Z"/><path d="M474.68,163.56a3.29,3.29,0,0,1-2.5-1,3.71,3.71,0,0,1-1-2.7v-.24a4.5,4.5,0,0,1,.43-2,3.47,3.47,0,0,1,1.2-1.39,3.08,3.08,0,0,1,1.68-.5,2.87,2.87,0,0,1,2.3,1,4.26,4.26,0,0,1,.82,2.79V160H472.5a2.69,2.69,0,0,0,.66,1.81,2.06,2.06,0,0,0,1.59.69,2.19,2.19,0,0,0,1.16-.28,3,3,0,0,0,.84-.74l.79.61A3.19,3.19,0,0,1,474.68,163.56Zm-.16-6.79a1.75,1.75,0,0,0-1.32.57,2.76,2.76,0,0,0-.65,1.6h3.79v-.1a2.46,2.46,0,0,0-.53-1.53A1.64,1.64,0,0,0,474.52,156.77Z"/><path d="M482.28,163.56a3.29,3.29,0,0,1-2.51-1,3.75,3.75,0,0,1-1-2.7v-.24a4.5,4.5,0,0,1,.43-2,3.32,3.32,0,0,1,1.2-1.39,3.06,3.06,0,0,1,1.68-.5,2.85,2.85,0,0,1,2.29,1,4.2,4.2,0,0,1,.82,2.79V160H480.1a2.73,2.73,0,0,0,.65,1.81,2.07,2.07,0,0,0,1.6.69,2.24,2.24,0,0,0,1.16-.28,2.91,2.91,0,0,0,.83-.74l.79.61A3.16,3.16,0,0,1,482.28,163.56Zm-.16-6.79a1.73,1.73,0,0,0-1.32.57,2.83,2.83,0,0,0-.66,1.6h3.8v-.1a2.46,2.46,0,0,0-.54-1.53A1.6,1.6,0,0,0,482.12,156.77Z"/><path d="M486.41,159.57a4.45,4.45,0,0,1,.83-2.81,2.81,2.81,0,0,1,4.27-.15v-4h1.3v10.76h-1.19l-.07-.82a2.63,2.63,0,0,1-2.16,1,2.6,2.6,0,0,1-2.15-1.08,4.52,4.52,0,0,1-.83-2.82Zm1.3.14a3.41,3.41,0,0,0,.53,2,1.75,1.75,0,0,0,1.47.73,1.89,1.89,0,0,0,1.8-1.11v-3.48a1.91,1.91,0,0,0-1.78-1.07,1.74,1.74,0,0,0-1.49.74A3.71,3.71,0,0,0,487.71,159.71Z"/><path d="M501.4,162.5a1.84,1.84,0,0,0,1.21-.42,1.48,1.48,0,0,0,.58-1.05h1.22a2.29,2.29,0,0,1-.45,1.24,3,3,0,0,1-1.1.94,3.21,3.21,0,0,1-1.46.35,3.12,3.12,0,0,1-2.46-1,4.09,4.09,0,0,1-.91-2.82v-.22a4.59,4.59,0,0,1,.4-2,3.09,3.09,0,0,1,1.17-1.33,3.29,3.29,0,0,1,1.8-.48,3.07,3.07,0,0,1,2.11.76,2.68,2.68,0,0,1,.9,2h-1.22a1.81,1.81,0,0,0-.56-1.21,1.69,1.69,0,0,0-1.23-.47,1.79,1.79,0,0,0-1.53.71,3.27,3.27,0,0,0-.55,2.05v.25a3.25,3.25,0,0,0,.54,2A1.84,1.84,0,0,0,501.4,162.5Z"/><path d="M510.54,162.67a2.74,2.74,0,0,1-2.21.89,2.36,2.36,0,0,1-1.85-.71,3.08,3.08,0,0,1-.64-2.08v-4.93h1.3v4.9c0,1.14.46,1.72,1.4,1.72a1.93,1.93,0,0,0,2-1.11v-5.51h1.3v7.58h-1.24Z"/><path d="M515.18,163.42h-1.3V152.66h1.3Z"/><path d="M519,154v1.83h1.41v1H519v4.71a1,1,0,0,0,.19.68.79.79,0,0,0,.64.23,3,3,0,0,0,.62-.09v1a3.89,3.89,0,0,1-1,.14,1.62,1.62,0,0,1-1.31-.53,2.28,2.28,0,0,1-.44-1.49v-4.7h-1.38v-1h1.38V154Z"/><path d="M521.94,153.83a.82.82,0,0,1,.19-.53.74.74,0,0,1,.57-.22.75.75,0,0,1,.58.22.78.78,0,0,1,.2.53.76.76,0,0,1-.2.53.75.75,0,0,1-.58.21.74.74,0,0,1-.57-.21A.8.8,0,0,1,521.94,153.83Zm1.4,9.59h-1.29v-7.58h1.29Z"/><path d="M527.91,161.66l1.88-5.82h1.32l-2.71,7.58h-1l-2.74-7.58H526Z"/><path d="M536.93,163.42a3.09,3.09,0,0,1-.18-.8,2.91,2.91,0,0,1-2.16.94,2.66,2.66,0,0,1-1.84-.64,2.07,2.07,0,0,1-.71-1.6,2.14,2.14,0,0,1,.9-1.84,4.21,4.21,0,0,1,2.53-.66h1.26v-.59a1.46,1.46,0,0,0-.41-1.08,1.63,1.63,0,0,0-1.2-.41,1.92,1.92,0,0,0-1.16.35,1.06,1.06,0,0,0-.47.85h-1.3a1.75,1.75,0,0,1,.4-1.09,2.76,2.76,0,0,1,1.1-.84,3.58,3.58,0,0,1,1.51-.31,3,3,0,0,1,2,.66,2.33,2.33,0,0,1,.77,1.8v3.49a4.17,4.17,0,0,0,.27,1.65v.12Zm-2.15-1a2.3,2.3,0,0,0,1.16-.32,2,2,0,0,0,.79-.81v-1.56h-1c-1.58,0-2.38.47-2.38,1.39a1.2,1.2,0,0,0,.41,1A1.6,1.6,0,0,0,534.78,162.43Z"/><path d="M541.81,154v1.83h1.41v1h-1.41v4.71a1,1,0,0,0,.19.68.79.79,0,0,0,.64.23,3,3,0,0,0,.62-.09v1a3.89,3.89,0,0,1-1,.14A1.64,1.64,0,0,1,541,163a2.28,2.28,0,0,1-.44-1.49v-4.7h-1.37v-1h1.37V154Z"/><path d="M544.74,153.83a.78.78,0,0,1,.2-.53.72.72,0,0,1,.57-.22.74.74,0,0,1,.57.22.78.78,0,0,1,.2.53.76.76,0,0,1-.2.53.74.74,0,0,1-.57.21.71.71,0,0,1-.57-.21A.76.76,0,0,1,544.74,153.83Zm1.4,9.59h-1.29v-7.58h1.29Z"/><path d="M547.87,159.56a4.49,4.49,0,0,1,.44-2,3.29,3.29,0,0,1,1.22-1.38,3.32,3.32,0,0,1,1.78-.48,3.19,3.19,0,0,1,2.5,1.07,4.13,4.13,0,0,1,1,2.85v.09a4.44,4.44,0,0,1-.43,2,3.22,3.22,0,0,1-1.21,1.37,3.41,3.41,0,0,1-1.81.49,3.19,3.19,0,0,1-2.49-1.07,4.1,4.1,0,0,1-1-2.84Zm1.3.15a3.26,3.26,0,0,0,.59,2,2,2,0,0,0,3.13,0,3.54,3.54,0,0,0,.58-2.17,3.21,3.21,0,0,0-.59-2,2,2,0,0,0-3.12,0A3.53,3.53,0,0,0,549.17,159.71Z"/><path d="M557.62,155.84l0,.95a2.78,2.78,0,0,1,2.27-1.09c1.6,0,2.41.9,2.42,2.71v5h-1.3v-5a1.75,1.75,0,0,0-.37-1.21,1.52,1.52,0,0,0-1.15-.39,1.84,1.84,0,0,0-1.1.34,2.12,2.12,0,0,0-.74.88v5.4h-1.3v-7.58Z"/><path d="M270.74,180.62a2.36,2.36,0,0,1-.18-.8,2.89,2.89,0,0,1-2.16.94,2.69,2.69,0,0,1-1.84-.63,2.05,2.05,0,0,1-.71-1.61,2.15,2.15,0,0,1,.9-1.84,4.28,4.28,0,0,1,2.53-.65h1.26v-.6a1.46,1.46,0,0,0-.41-1.08,1.63,1.63,0,0,0-1.2-.4,1.9,1.9,0,0,0-1.16.35,1,1,0,0,0-.47.85H266a1.78,1.78,0,0,1,.4-1.1,2.82,2.82,0,0,1,1.09-.84,3.78,3.78,0,0,1,1.52-.3,3,3,0,0,1,2.05.65,2.36,2.36,0,0,1,.77,1.8v3.49a4.23,4.23,0,0,0,.27,1.66v.11Zm-2.15-1a2.23,2.23,0,0,0,1.15-.31,1.91,1.91,0,0,0,.8-.82V177h-1c-1.59,0-2.38.46-2.38,1.39a1.19,1.19,0,0,0,.41.95A1.55,1.55,0,0,0,268.59,179.63Z"/><path d="M275.09,173.05l0,.95a2.75,2.75,0,0,1,2.27-1.09c1.6,0,2.41.9,2.42,2.71v5h-1.3v-5a1.73,1.73,0,0,0-.37-1.21A1.52,1.52,0,0,0,277,174a1.88,1.88,0,0,0-1.1.33,2.26,2.26,0,0,0-.74.88v5.4h-1.3v-7.57Z"/><path d="M281.46,176.77a4.42,4.42,0,0,1,.82-2.8,2.81,2.81,0,0,1,4.27-.15v-3.95h1.3v10.75h-1.19l-.06-.81a2.66,2.66,0,0,1-2.17.95,2.57,2.57,0,0,1-2.14-1.08,4.43,4.43,0,0,1-.83-2.81Zm1.29.15a3.36,3.36,0,0,0,.53,2,1.72,1.72,0,0,0,1.47.73,1.89,1.89,0,0,0,1.8-1.1v-3.48a1.88,1.88,0,0,0-1.78-1.07,1.73,1.73,0,0,0-1.49.73A3.75,3.75,0,0,0,282.75,176.92Z"/><path d="M293.41,171a.8.8,0,0,1,.2-.54.71.71,0,0,1,.57-.21.74.74,0,0,1,.57.21.8.8,0,0,1,.2.54.71.71,0,0,1-.77.73.71.71,0,0,1-.57-.21A.73.73,0,0,1,293.41,171Zm1.4,9.58h-1.29v-7.57h1.29Z"/><path d="M298.11,173.05l0,.95a2.76,2.76,0,0,1,2.27-1.09c1.6,0,2.41.9,2.42,2.71v5h-1.29v-5a1.73,1.73,0,0,0-.38-1.21A1.48,1.48,0,0,0,300,174a1.91,1.91,0,0,0-1.11.33,2.44,2.44,0,0,0-.74.88v5.4h-1.29v-7.57Z"/><path d="M306.55,171.21v1.84H308v1h-1.42v4.7a1.08,1.08,0,0,0,.19.68.78.78,0,0,0,.65.23,3.51,3.51,0,0,0,.61-.08v1a3.87,3.87,0,0,1-1,.14,1.61,1.61,0,0,1-1.31-.52,2.29,2.29,0,0,1-.44-1.5v-4.69h-1.38v-1h1.38v-1.84Z"/><path d="M313.14,174.21a4.16,4.16,0,0,0-.64-.05,1.7,1.7,0,0,0-1.72,1.08v5.38h-1.3v-7.57h1.26l0,.87a2,2,0,0,1,1.81-1,1.41,1.41,0,0,1,.57.09Z"/><path d="M313.85,176.76a4.36,4.36,0,0,1,.44-2,3.24,3.24,0,0,1,1.21-1.37,3.38,3.38,0,0,1,1.79-.48,3.17,3.17,0,0,1,2.5,1.07,4.09,4.09,0,0,1,.95,2.85v.09a4.53,4.53,0,0,1-.42,2,3.23,3.23,0,0,1-1.21,1.37,3.34,3.34,0,0,1-1.81.49,3.21,3.21,0,0,1-2.5-1.07,4.13,4.13,0,0,1-.95-2.84Zm1.3.16a3.23,3.23,0,0,0,.59,2,2,2,0,0,0,3.13,0,3.54,3.54,0,0,0,.58-2.17,3.27,3.27,0,0,0-.59-2,1.9,1.9,0,0,0-1.57-.77,1.86,1.86,0,0,0-1.55.76A3.55,3.55,0,0,0,315.15,176.92Z"/><path d="M322.05,176.77a4.42,4.42,0,0,1,.83-2.8,2.81,2.81,0,0,1,4.27-.15v-3.95h1.3v10.75h-1.2l-.06-.81a2.65,2.65,0,0,1-2.16.95,2.6,2.6,0,0,1-2.15-1.08,4.49,4.49,0,0,1-.83-2.81Zm1.3.15a3.36,3.36,0,0,0,.53,2,1.72,1.72,0,0,0,1.47.73,1.9,1.9,0,0,0,1.8-1.1v-3.48a1.89,1.89,0,0,0-1.78-1.07,1.73,1.73,0,0,0-1.49.73A3.75,3.75,0,0,0,323.35,176.92Z"/><path d="M335.13,179.87a2.75,2.75,0,0,1-2.22.89,2.33,2.33,0,0,1-1.84-.7,3,3,0,0,1-.64-2.09v-4.92h1.29v4.89c0,1.15.47,1.72,1.4,1.72a1.93,1.93,0,0,0,2-1.1v-5.51h1.3v7.57h-1.23Z"/><path d="M341.4,179.7a1.88,1.88,0,0,0,1.21-.42,1.5,1.5,0,0,0,.57-1.05h1.23a2.43,2.43,0,0,1-.45,1.24,3,3,0,0,1-1.1.94,3.24,3.24,0,0,1-1.46.35,3.1,3.1,0,0,1-2.46-1,4.12,4.12,0,0,1-.92-2.83v-.21a4.56,4.56,0,0,1,.41-2,3.16,3.16,0,0,1,1.16-1.34,3.31,3.31,0,0,1,1.8-.47,3,3,0,0,1,2.12.76,2.75,2.75,0,0,1,.9,2h-1.23a1.79,1.79,0,0,0-.56-1.21,1.73,1.73,0,0,0-1.23-.47,1.82,1.82,0,0,0-1.53.71,3.35,3.35,0,0,0-.54,2.06V177a3.28,3.28,0,0,0,.54,2A1.82,1.82,0,0,0,341.4,179.7Z"/><path d="M349,180.76a3.31,3.31,0,0,1-2.5-1,3.75,3.75,0,0,1-1-2.71v-.23a4.65,4.65,0,0,1,.43-2,3.32,3.32,0,0,1,1.21-1.38,3,3,0,0,1,1.67-.5,2.84,2.84,0,0,1,2.3,1,4.2,4.2,0,0,1,.82,2.79v.53h-5.13a2.68,2.68,0,0,0,.65,1.81,2.06,2.06,0,0,0,1.59.69,2.25,2.25,0,0,0,1.17-.28,2.9,2.9,0,0,0,.83-.74l.79.62A3.19,3.19,0,0,1,349,180.76Zm-.16-6.79a1.71,1.71,0,0,0-1.31.57,2.7,2.7,0,0,0-.66,1.6h3.79V176a2.4,2.4,0,0,0-.53-1.53A1.63,1.63,0,0,0,348.84,174Z"/><path d="M353.14,176.77A4.42,4.42,0,0,1,354,174a2.81,2.81,0,0,1,4.27-.15v-3.95h1.29v10.75h-1.19l-.06-.81a2.65,2.65,0,0,1-2.16.95,2.6,2.6,0,0,1-2.15-1.08,4.49,4.49,0,0,1-.83-2.81Zm1.3.15a3.36,3.36,0,0,0,.53,2,1.7,1.7,0,0,0,1.47.73,1.9,1.9,0,0,0,1.8-1.1v-3.48a1.9,1.9,0,0,0-1.79-1.07,1.72,1.72,0,0,0-1.48.73A3.75,3.75,0,0,0,354.44,176.92Z"/><path d="M371.64,180.62H365v-.93l3.53-3.92a8.52,8.52,0,0,0,1.08-1.45,2.38,2.38,0,0,0,.3-1.15,1.8,1.8,0,0,0-.49-1.31,1.68,1.68,0,0,0-1.28-.51,2,2,0,0,0-1.51.55,2.14,2.14,0,0,0-.53,1.53h-1.3a3,3,0,0,1,.91-2.27,3.35,3.35,0,0,1,2.43-.87,3.25,3.25,0,0,1,2.24.74,2.56,2.56,0,0,1,.83,2c0,1-.64,2.2-1.92,3.58l-2.73,3h5.12Z"/><path d="M379.19,173.09a2.36,2.36,0,0,1-.4,1.36,2.84,2.84,0,0,1-1.09.93,2.92,2.92,0,0,1,1.26,1,2.51,2.51,0,0,1,.47,1.49,2.7,2.7,0,0,1-.89,2.11,3.45,3.45,0,0,1-2.35.78,3.4,3.4,0,0,1-2.36-.79,2.65,2.65,0,0,1-.88-2.1,2.59,2.59,0,0,1,.45-1.49,2.85,2.85,0,0,1,1.25-1,2.62,2.62,0,0,1-1.07-.93,2.42,2.42,0,0,1-.39-1.35A2.65,2.65,0,0,1,374,171a3.53,3.53,0,0,1,4.35,0A2.66,2.66,0,0,1,379.19,173.09Zm-1.06,4.75a1.88,1.88,0,0,0-.54-1.39,1.94,1.94,0,0,0-3.35,1.39,1.79,1.79,0,0,0,.52,1.37,2.31,2.31,0,0,0,2.86,0A1.8,1.8,0,0,0,378.13,177.84Zm-1.94-6.49a1.71,1.71,0,0,0-1.24.47,1.78,1.78,0,0,0-.47,1.29,1.74,1.74,0,0,0,.47,1.26,1.84,1.84,0,0,0,2.48,0,1.74,1.74,0,0,0,.47-1.26,1.71,1.71,0,0,0-.49-1.27A1.67,1.67,0,0,0,376.19,171.35Z"/><path d="M389.42,180.62a2.36,2.36,0,0,1-.18-.8,2.89,2.89,0,0,1-2.16.94,2.69,2.69,0,0,1-1.84-.63,2.05,2.05,0,0,1-.71-1.61,2.12,2.12,0,0,1,.9-1.84A4.28,4.28,0,0,1,388,176h1.26v-.6a1.46,1.46,0,0,0-.41-1.08,1.63,1.63,0,0,0-1.2-.4,1.9,1.9,0,0,0-1.16.35,1,1,0,0,0-.47.85h-1.3a1.78,1.78,0,0,1,.4-1.1,2.82,2.82,0,0,1,1.09-.84,3.78,3.78,0,0,1,1.52-.3,3,3,0,0,1,2.05.65,2.36,2.36,0,0,1,.77,1.8v3.49a4.23,4.23,0,0,0,.27,1.66v.11Zm-2.15-1a2.23,2.23,0,0,0,1.15-.31,1.91,1.91,0,0,0,.8-.82V177h-1c-1.59,0-2.38.46-2.38,1.39a1.19,1.19,0,0,0,.41.95A1.55,1.55,0,0,0,387.27,179.63Z"/><path d="M392.23,176.77a4.42,4.42,0,0,1,.82-2.8,2.81,2.81,0,0,1,4.27-.15v-3.95h1.3v10.75h-1.19l-.06-.81a2.66,2.66,0,0,1-2.17.95,2.57,2.57,0,0,1-2.14-1.08,4.43,4.43,0,0,1-.83-2.81Zm1.29.15a3.36,3.36,0,0,0,.53,2,1.72,1.72,0,0,0,1.47.73,1.89,1.89,0,0,0,1.8-1.1v-3.48a1.88,1.88,0,0,0-1.78-1.07,1.73,1.73,0,0,0-1.49.73A3.75,3.75,0,0,0,393.52,176.92Z"/><path d="M400.31,176.77a4.42,4.42,0,0,1,.83-2.8,2.81,2.81,0,0,1,4.27-.15v-3.95h1.29v10.75h-1.19l-.06-.81a2.65,2.65,0,0,1-2.16.95,2.6,2.6,0,0,1-2.15-1.08,4.49,4.49,0,0,1-.83-2.81Zm1.3.15a3.29,3.29,0,0,0,.53,2,1.7,1.7,0,0,0,1.47.73,1.9,1.9,0,0,0,1.8-1.1v-3.48a1.9,1.9,0,0,0-1.79-1.07,1.72,1.72,0,0,0-1.48.73A3.67,3.67,0,0,0,401.61,176.92Z"/><path d="M408.72,171a.79.79,0,0,1,.19-.54.74.74,0,0,1,.57-.21.76.76,0,0,1,.58.21.79.79,0,0,1,.19.54.73.73,0,0,1-.19.52.76.76,0,0,1-.58.21.74.74,0,0,1-.57-.21A.73.73,0,0,1,408.72,171Zm1.4,9.58h-1.3v-7.57h1.3Z"/><path d="M414,171.21v1.84h1.41v1H414v4.7a1,1,0,0,0,.19.68.76.76,0,0,0,.64.23,3.6,3.6,0,0,0,.62-.08v1a3.89,3.89,0,0,1-1,.14,1.62,1.62,0,0,1-1.31-.52,2.29,2.29,0,0,1-.44-1.5v-4.69h-1.37v-1h1.37v-1.84Z"/><path d="M416.88,171a.85.85,0,0,1,.19-.54.75.75,0,0,1,.58-.21.74.74,0,0,1,.57.21.8.8,0,0,1,.2.54.71.71,0,0,1-.77.73.75.75,0,0,1-.58-.21A.77.77,0,0,1,416.88,171Zm1.4,9.58H417v-7.57h1.29Z"/><path d="M420,176.76a4.49,4.49,0,0,1,.44-2,3.26,3.26,0,0,1,1.22-1.37,3.32,3.32,0,0,1,1.78-.48A3.16,3.16,0,0,1,426,174a4.1,4.1,0,0,1,1,2.85v.09a4.4,4.4,0,0,1-.43,2,3.16,3.16,0,0,1-1.21,1.37,3.32,3.32,0,0,1-1.81.49,3.19,3.19,0,0,1-2.49-1.07,4.09,4.09,0,0,1-1-2.84Zm1.3.16a3.23,3.23,0,0,0,.59,2,2,2,0,0,0,3.13,0,3.54,3.54,0,0,0,.58-2.17,3.27,3.27,0,0,0-.59-2,1.89,1.89,0,0,0-1.57-.77,1.86,1.86,0,0,0-1.55.76A3.55,3.55,0,0,0,421.31,176.92Z"/><path d="M429.76,173.05l0,.95a2.75,2.75,0,0,1,2.27-1.09c1.6,0,2.41.9,2.42,2.71v5h-1.3v-5a1.73,1.73,0,0,0-.37-1.21,1.52,1.52,0,0,0-1.15-.39,1.88,1.88,0,0,0-1.1.33,2.26,2.26,0,0,0-.74.88v5.4h-1.3v-7.57Z"/><path d="M441.12,180.62a2.36,2.36,0,0,1-.18-.8,2.89,2.89,0,0,1-2.16.94,2.69,2.69,0,0,1-1.84-.63,2.06,2.06,0,0,1-.72-1.61,2.15,2.15,0,0,1,.9-1.84,4.31,4.31,0,0,1,2.54-.65h1.25v-.6a1.46,1.46,0,0,0-.4-1.08,1.63,1.63,0,0,0-1.2-.4,1.9,1.9,0,0,0-1.16.35,1,1,0,0,0-.47.85h-1.3a1.78,1.78,0,0,1,.4-1.1,2.82,2.82,0,0,1,1.09-.84,3.78,3.78,0,0,1,1.52-.3,3,3,0,0,1,2.05.65,2.39,2.39,0,0,1,.77,1.8v3.49a4.23,4.23,0,0,0,.27,1.66v.11Zm-2.15-1a2.26,2.26,0,0,0,1.15-.31,1.83,1.83,0,0,0,.79-.82V177h-1c-1.59,0-2.38.46-2.38,1.39a1.19,1.19,0,0,0,.41.95A1.53,1.53,0,0,0,439,179.63Z"/><path d="M445.65,180.62h-1.3V169.87h1.3Z"/><path d="M451.28,171a.79.79,0,0,1,.19-.54.88.88,0,0,1,1.14,0,.8.8,0,0,1,.2.54.8.8,0,0,1-1.34.52A.73.73,0,0,1,451.28,171Zm1.4,9.58h-1.3v-7.57h1.3Z"/><path d="M456,173.05l0,.95a2.73,2.73,0,0,1,2.26-1.09c1.6,0,2.41.9,2.43,2.71v5h-1.3v-5a1.73,1.73,0,0,0-.37-1.21,1.52,1.52,0,0,0-1.15-.39,1.86,1.86,0,0,0-1.1.33,2.37,2.37,0,0,0-.75.88v5.4h-1.29v-7.57Z"/><path d="M465.7,179.7a1.88,1.88,0,0,0,1.21-.42,1.5,1.5,0,0,0,.57-1.05h1.23a2.43,2.43,0,0,1-.45,1.24,3,3,0,0,1-1.1.94,3.24,3.24,0,0,1-1.46.35,3.12,3.12,0,0,1-2.46-1,4.12,4.12,0,0,1-.92-2.83v-.21a4.56,4.56,0,0,1,.41-2,3.16,3.16,0,0,1,1.16-1.34,3.31,3.31,0,0,1,1.8-.47,3,3,0,0,1,2.12.76,2.75,2.75,0,0,1,.9,2h-1.23a1.82,1.82,0,0,0-.55-1.21,1.77,1.77,0,0,0-1.24-.47,1.82,1.82,0,0,0-1.53.71,3.35,3.35,0,0,0-.54,2.06V177a3.28,3.28,0,0,0,.54,2A1.82,1.82,0,0,0,465.7,179.7Z"/><path d="M469.82,176.76a4.49,4.49,0,0,1,.44-2,3.26,3.26,0,0,1,1.22-1.37,3.32,3.32,0,0,1,1.78-.48,3.17,3.17,0,0,1,2.5,1.07,4.1,4.1,0,0,1,1,2.85v.09a4.53,4.53,0,0,1-.43,2,3.16,3.16,0,0,1-1.21,1.37,3.32,3.32,0,0,1-1.81.49,3.17,3.17,0,0,1-2.49-1.07,4.09,4.09,0,0,1-1-2.84Zm1.3.16a3.23,3.23,0,0,0,.59,2,2,2,0,0,0,3.13,0,3.54,3.54,0,0,0,.58-2.17,3.27,3.27,0,0,0-.59-2,1.89,1.89,0,0,0-1.57-.77,1.86,1.86,0,0,0-1.55.76A3.55,3.55,0,0,0,471.12,176.92Z"/><path d="M479.56,173.05l0,.84a2.79,2.79,0,0,1,2.25-1,2.16,2.16,0,0,1,2.16,1.21,3,3,0,0,1,1-.88,2.93,2.93,0,0,1,1.43-.33c1.66,0,2.5.88,2.53,2.64v5.07h-1.29v-5a1.77,1.77,0,0,0-.37-1.21A1.65,1.65,0,0,0,486,174a1.72,1.72,0,0,0-1.2.43,1.75,1.75,0,0,0-.55,1.15v5H483v-5a1.45,1.45,0,0,0-1.62-1.65,1.73,1.73,0,0,0-1.74,1.08v5.53h-1.3v-7.57Z"/><path d="M494.05,180.76a3.34,3.34,0,0,1-2.51-1,3.79,3.79,0,0,1-1-2.71v-.23a4.51,4.51,0,0,1,.43-2,3.3,3.3,0,0,1,1.2-1.38,3,3,0,0,1,1.68-.5,2.82,2.82,0,0,1,2.29,1,4.2,4.2,0,0,1,.82,2.79v.53h-5.13a2.69,2.69,0,0,0,.66,1.81,2,2,0,0,0,1.59.69,2.22,2.22,0,0,0,1.16-.28,2.66,2.66,0,0,0,.83-.74l.8.62A3.2,3.2,0,0,1,494.05,180.76Zm-.16-6.79a1.75,1.75,0,0,0-1.32.57,2.83,2.83,0,0,0-.66,1.6h3.8V176a2.52,2.52,0,0,0-.53-1.53A1.64,1.64,0,0,0,493.89,174Z"/><path d="M501.2,176.82h-3.42v-1.06h3.42Z"/><path d="M502.15,176.77A4.44,4.44,0,0,1,503,174a2.83,2.83,0,0,1,4.33-.06l.06-.84h1.19v7.39a3.1,3.1,0,0,1-.87,2.32,3.27,3.27,0,0,1-2.35.84,3.79,3.79,0,0,1-1.6-.35,2.76,2.76,0,0,1-1.2-1l.68-.77a2.53,2.53,0,0,0,2,1,2,2,0,0,0,1.48-.54,2,2,0,0,0,.52-1.49v-.66a2.64,2.64,0,0,1-2.12.9,2.6,2.6,0,0,1-2.15-1.07A4.67,4.67,0,0,1,502.15,176.77Zm1.3.15a3.4,3.4,0,0,0,.53,2,1.7,1.7,0,0,0,1.47.73,1.89,1.89,0,0,0,1.79-1.11v-3.46a1.91,1.91,0,0,0-1.78-1.08,1.73,1.73,0,0,0-1.48.73A3.75,3.75,0,0,0,503.45,176.92Z"/><path d="M513.64,180.76a3.31,3.31,0,0,1-2.5-1,3.75,3.75,0,0,1-1-2.71v-.23a4.65,4.65,0,0,1,.43-2,3.32,3.32,0,0,1,1.21-1.38,3,3,0,0,1,1.67-.5,2.84,2.84,0,0,1,2.3,1,4.26,4.26,0,0,1,.82,2.79v.53h-5.13a2.68,2.68,0,0,0,.65,1.81,2.06,2.06,0,0,0,1.59.69,2.25,2.25,0,0,0,1.17-.28,2.9,2.9,0,0,0,.83-.74l.79.62A3.19,3.19,0,0,1,513.64,180.76Zm-.16-6.79a1.71,1.71,0,0,0-1.31.57,2.7,2.7,0,0,0-.66,1.6h3.79V176a2.4,2.4,0,0,0-.53-1.53A1.64,1.64,0,0,0,513.48,174Z"/><path d="M519.32,173.05l0,.95a2.76,2.76,0,0,1,2.27-1.09c1.6,0,2.41.9,2.42,2.71v5h-1.29v-5a1.73,1.73,0,0,0-.38-1.21,1.48,1.48,0,0,0-1.14-.39,1.91,1.91,0,0,0-1.11.33,2.44,2.44,0,0,0-.74.88v5.4H518.1v-7.57Z"/><path d="M529.15,180.76a3.34,3.34,0,0,1-2.51-1,3.79,3.79,0,0,1-1-2.71v-.23a4.51,4.51,0,0,1,.43-2,3.3,3.3,0,0,1,1.2-1.38,3,3,0,0,1,1.68-.5,2.82,2.82,0,0,1,2.29,1,4.2,4.2,0,0,1,.82,2.79v.53H527a2.69,2.69,0,0,0,.66,1.81,2,2,0,0,0,1.59.69,2.22,2.22,0,0,0,1.16-.28,2.66,2.66,0,0,0,.83-.74l.8.62A3.2,3.2,0,0,1,529.15,180.76ZM529,174a1.75,1.75,0,0,0-1.32.57,2.83,2.83,0,0,0-.66,1.6h3.8V176a2.52,2.52,0,0,0-.53-1.53A1.64,1.64,0,0,0,529,174Z"/><path d="M537.26,174.21a4,4,0,0,0-.63-.05,1.7,1.7,0,0,0-1.73,1.08v5.38h-1.3v-7.57h1.26l0,.87a2,2,0,0,1,1.81-1,1.41,1.41,0,0,1,.57.09Z"/><path d="M542.85,180.62a2.63,2.63,0,0,1-.18-.8,2.87,2.87,0,0,1-2.16.94,2.69,2.69,0,0,1-1.84-.63,2.09,2.09,0,0,1-.71-1.61,2.15,2.15,0,0,1,.9-1.84,4.28,4.28,0,0,1,2.53-.65h1.26v-.6a1.46,1.46,0,0,0-.41-1.08,1.63,1.63,0,0,0-1.2-.4,1.9,1.9,0,0,0-1.16.35,1,1,0,0,0-.47.85h-1.3a1.78,1.78,0,0,1,.4-1.1,2.86,2.86,0,0,1,1.1-.84,3.7,3.7,0,0,1,1.51-.3,3,3,0,0,1,2,.65,2.36,2.36,0,0,1,.77,1.8v3.49a4.23,4.23,0,0,0,.27,1.66v.11Zm-2.15-1a2.29,2.29,0,0,0,1.16-.31,2,2,0,0,0,.79-.82V177h-1c-1.59,0-2.38.46-2.38,1.39a1.19,1.19,0,0,0,.41.95A1.55,1.55,0,0,0,540.7,179.63Z"/><path d="M547.73,171.21v1.84h1.41v1h-1.41v4.7a1,1,0,0,0,.19.68.76.76,0,0,0,.64.23,3.6,3.6,0,0,0,.62-.08v1a3.89,3.89,0,0,1-1,.14,1.63,1.63,0,0,1-1.31-.52,2.29,2.29,0,0,1-.44-1.5v-4.69h-1.37v-1h1.37v-1.84Z"/><path d="M550.66,171a.8.8,0,0,1,.2-.54.71.71,0,0,1,.57-.21.74.74,0,0,1,.57.21.8.8,0,0,1,.2.54.71.71,0,0,1-.77.73.71.71,0,0,1-.57-.21A.73.73,0,0,1,550.66,171Zm1.4,9.58h-1.29v-7.57h1.29Z"/><path d="M555.36,173.05l0,.95a2.76,2.76,0,0,1,2.27-1.09c1.6,0,2.41.9,2.42,2.71v5H558.8v-5a1.73,1.73,0,0,0-.38-1.21,1.48,1.48,0,0,0-1.14-.39,1.91,1.91,0,0,0-1.11.33,2.44,2.44,0,0,0-.74.88v5.4h-1.29v-7.57Z"/><path d="M561.74,176.77a4.44,4.44,0,0,1,.82-2.82,2.83,2.83,0,0,1,4.33-.06l.06-.84h1.19v7.39a3.07,3.07,0,0,1-.88,2.32,3.23,3.23,0,0,1-2.34.84,3.79,3.79,0,0,1-1.6-.35,2.76,2.76,0,0,1-1.2-1l.67-.77a2.57,2.57,0,0,0,2,1,2,2,0,0,0,1.48-.54,2,2,0,0,0,.52-1.49v-.66a2.64,2.64,0,0,1-2.12.9,2.6,2.6,0,0,1-2.15-1.07A4.67,4.67,0,0,1,561.74,176.77Zm1.3.15a3.4,3.4,0,0,0,.52,2,1.7,1.7,0,0,0,1.47.73,1.89,1.89,0,0,0,1.8-1.11v-3.46a1.91,1.91,0,0,0-1.78-1.08,1.73,1.73,0,0,0-1.48.73A3.75,3.75,0,0,0,563,176.92Z"/><path d="M315.19,197.83a3.09,3.09,0,0,1-.18-.8,2.91,2.91,0,0,1-2.16.94,2.67,2.67,0,0,1-1.83-.64,2,2,0,0,1-.72-1.6,2.14,2.14,0,0,1,.9-1.84,4.21,4.21,0,0,1,2.53-.66H315v-.59a1.45,1.45,0,0,0-.41-1.08,1.62,1.62,0,0,0-1.19-.41,1.93,1.93,0,0,0-1.17.35,1.06,1.06,0,0,0-.47.85h-1.3a1.76,1.76,0,0,1,.41-1.09,2.58,2.58,0,0,1,1.09-.84,3.58,3.58,0,0,1,1.51-.31,3,3,0,0,1,2.05.66,2.29,2.29,0,0,1,.77,1.8v3.48a4.19,4.19,0,0,0,.27,1.66v.12Zm-2.15-1a2.3,2.3,0,0,0,1.16-.32,1.89,1.89,0,0,0,.79-.82v-1.55h-1c-1.58,0-2.38.46-2.38,1.39a1.2,1.2,0,0,0,.41,1A1.6,1.6,0,0,0,313,196.84Z"/><path d="M321.35,196.91a1.84,1.84,0,0,0,1.21-.42,1.48,1.48,0,0,0,.58-1.05h1.22a2.29,2.29,0,0,1-.45,1.24,3,3,0,0,1-1.1.94,3.21,3.21,0,0,1-1.46.35,3.12,3.12,0,0,1-2.46-1,4.1,4.1,0,0,1-.91-2.82v-.22a4.59,4.59,0,0,1,.4-2,3.1,3.1,0,0,1,1.17-1.33,3.32,3.32,0,0,1,1.8-.48,3,3,0,0,1,2.11.76,2.68,2.68,0,0,1,.9,2h-1.22a1.79,1.79,0,0,0-.56-1.2,1.7,1.7,0,0,0-1.23-.48,1.8,1.8,0,0,0-1.53.72,3.25,3.25,0,0,0-.55,2.05v.24a3.26,3.26,0,0,0,.54,2A1.84,1.84,0,0,0,321.35,196.91Z"/><path d="M327.58,188.42v1.83H329v1h-1.41V196a1.08,1.08,0,0,0,.18.68.83.83,0,0,0,.65.23,3,3,0,0,0,.62-.09v1.05a4,4,0,0,1-1,.14,1.62,1.62,0,0,1-1.31-.53,2.28,2.28,0,0,1-.44-1.49v-4.7H324.9v-1h1.38v-1.83Z"/><path d="M330.51,188.24a.75.75,0,0,1,.19-.53.71.71,0,0,1,.57-.22.73.73,0,0,1,.58.22.83.83,0,0,1,0,1.06.76.76,0,0,1-.58.21.74.74,0,0,1-.57-.21A.75.75,0,0,1,330.51,188.24Zm1.4,9.59h-1.3v-7.58h1.3Z"/><path d="M336.48,196.07l1.88-5.82h1.32L337,197.83h-1l-2.75-7.58h1.33Z"/><path d="M340.93,188.24a.76.76,0,0,1,.2-.53.68.68,0,0,1,.57-.22.71.71,0,0,1,.57.22.8.8,0,0,1,0,1.06.74.74,0,0,1-.57.21.71.71,0,0,1-.57-.21A.76.76,0,0,1,340.93,188.24Zm1.4,9.59H341v-7.58h1.29Z"/><path d="M346.16,188.42v1.83h1.42v1h-1.42V196a1.08,1.08,0,0,0,.19.68.81.81,0,0,0,.65.23,2.88,2.88,0,0,0,.61-.09v1.05a3.87,3.87,0,0,1-1,.14,1.61,1.61,0,0,1-1.31-.53,2.23,2.23,0,0,1-.44-1.49v-4.7h-1.38v-1h1.38v-1.83Z"/><path d="M349.1,188.24a.75.75,0,0,1,.19-.53.85.85,0,0,1,1.14,0,.8.8,0,0,1,0,1.06.88.88,0,0,1-1.14,0A.75.75,0,0,1,349.1,188.24Zm1.4,9.59h-1.3v-7.58h1.3Z"/><path d="M355.71,198a3.31,3.31,0,0,1-2.51-1,3.75,3.75,0,0,1-1-2.7V194a4.5,4.5,0,0,1,.43-2,3.4,3.4,0,0,1,1.2-1.39,3.08,3.08,0,0,1,1.68-.5,2.88,2.88,0,0,1,2.3,1,4.26,4.26,0,0,1,.81,2.79v.54h-5.13a2.69,2.69,0,0,0,.66,1.81,2.06,2.06,0,0,0,1.59.69,2.29,2.29,0,0,0,1.16-.28,3.11,3.11,0,0,0,.84-.74l.79.61A3.19,3.19,0,0,1,355.71,198Zm-.16-6.8a1.72,1.72,0,0,0-1.32.58,2.76,2.76,0,0,0-.65,1.59h3.79v-.09a2.46,2.46,0,0,0-.53-1.53A1.65,1.65,0,0,0,355.55,191.17Z"/><path d="M364.57,195.82a1,1,0,0,0-.39-.82,4,4,0,0,0-1.38-.5,6.66,6.66,0,0,1-1.56-.5,2.29,2.29,0,0,1-.86-.7,1.72,1.72,0,0,1-.27-1,2,2,0,0,1,.79-1.58,3.1,3.1,0,0,1,2-.64,3.14,3.14,0,0,1,2.09.67,2.12,2.12,0,0,1,.8,1.7h-1.3a1.17,1.17,0,0,0-.45-.92,1.7,1.7,0,0,0-1.14-.39,1.83,1.83,0,0,0-1.11.31,1,1,0,0,0-.4.81.78.78,0,0,0,.37.7,4.46,4.46,0,0,0,1.34.46,7,7,0,0,1,1.58.52,2.35,2.35,0,0,1,.89.72,1.82,1.82,0,0,1,.29,1,1.94,1.94,0,0,1-.81,1.62A3.41,3.41,0,0,1,363,198a3.73,3.73,0,0,1-1.61-.33,2.58,2.58,0,0,1-1.1-.9,2.17,2.17,0,0,1-.39-1.25h1.29a1.39,1.39,0,0,0,.52,1,2.42,2.42,0,0,0,2.47.08A.9.9,0,0,0,364.57,195.82Z"/><path d="M372.86,188.42v1.83h1.42v1h-1.42V196a1.08,1.08,0,0,0,.19.68.81.81,0,0,0,.65.23,2.88,2.88,0,0,0,.61-.09v1.05a3.87,3.87,0,0,1-1,.14,1.61,1.61,0,0,1-1.31-.53,2.23,2.23,0,0,1-.44-1.49v-4.7h-1.38v-1h1.38v-1.83Z"/><path d="M377.08,191.17a2.75,2.75,0,0,1,2.24-1.06c1.6,0,2.41.9,2.43,2.71v5h-1.3v-5a1.75,1.75,0,0,0-.37-1.21,1.52,1.52,0,0,0-1.15-.39,1.8,1.8,0,0,0-1.1.34,2.22,2.22,0,0,0-.75.88v5.4h-1.29V187.07h1.29Z"/><path d="M388.36,197.83a3.09,3.09,0,0,1-.18-.8A2.91,2.91,0,0,1,386,198a2.67,2.67,0,0,1-1.83-.64,2,2,0,0,1-.72-1.6,2.14,2.14,0,0,1,.9-1.84,4.21,4.21,0,0,1,2.53-.66h1.26v-.59a1.45,1.45,0,0,0-.41-1.08,1.62,1.62,0,0,0-1.19-.41,1.93,1.93,0,0,0-1.17.35,1.06,1.06,0,0,0-.47.85h-1.3a1.76,1.76,0,0,1,.41-1.09,2.58,2.58,0,0,1,1.09-.84,3.58,3.58,0,0,1,1.51-.31,3,3,0,0,1,2.05.66,2.29,2.29,0,0,1,.77,1.8v3.48a4.19,4.19,0,0,0,.27,1.66v.12Zm-2.15-1a2.3,2.3,0,0,0,1.16-.32,1.89,1.89,0,0,0,.79-.82v-1.55h-1c-1.58,0-2.38.46-2.38,1.39a1.2,1.2,0,0,0,.41,1A1.6,1.6,0,0,0,386.21,196.84Z"/><path d="M393.24,188.42v1.83h1.42v1h-1.42V196a1,1,0,0,0,.19.68.8.8,0,0,0,.64.23,3,3,0,0,0,.62-.09v1.05a3.87,3.87,0,0,1-1,.14,1.61,1.61,0,0,1-1.31-.53A2.23,2.23,0,0,1,392,196v-4.7h-1.38v-1H392v-1.83Z"/><path d="M399.72,188.24a.76.76,0,0,1,.2-.53.7.7,0,0,1,.57-.22.71.71,0,0,1,.57.22.8.8,0,0,1,0,1.06.74.74,0,0,1-.57.21.73.73,0,0,1-.57-.21A.76.76,0,0,1,399.72,188.24Zm1.4,9.59h-1.29v-7.58h1.29Z"/><path d="M404.42,190.25l0,.95a2.76,2.76,0,0,1,2.27-1.09c1.6,0,2.41.9,2.42,2.71v5h-1.29v-5a1.75,1.75,0,0,0-.38-1.21,1.48,1.48,0,0,0-1.14-.39,1.85,1.85,0,0,0-1.11.34,2.28,2.28,0,0,0-.74.88v5.4H403.2v-7.58Z"/><path d="M410.79,194a4.44,4.44,0,0,1,.83-2.8,2.81,2.81,0,0,1,4.27-.15v-4h1.29v10.76H416l-.06-.82a2.63,2.63,0,0,1-2.16,1,2.59,2.59,0,0,1-2.15-1.08,4.52,4.52,0,0,1-.83-2.82Zm1.3.15a3.34,3.34,0,0,0,.53,2,1.72,1.72,0,0,0,1.47.73,1.89,1.89,0,0,0,1.8-1.11v-3.48a1.91,1.91,0,0,0-1.79-1.07,1.72,1.72,0,0,0-1.48.73A3.67,3.67,0,0,0,412.09,194.12Z"/><path d="M419.2,188.24a.75.75,0,0,1,.19-.53.71.71,0,0,1,.57-.22.73.73,0,0,1,.58.22.83.83,0,0,1,0,1.06.76.76,0,0,1-.58.21.74.74,0,0,1-.57-.21A.75.75,0,0,1,419.2,188.24Zm1.4,9.59h-1.3v-7.58h1.3Z"/><path d="M426.33,191.41a4.13,4.13,0,0,0-.63,0,1.71,1.71,0,0,0-1.73,1.09v5.38h-1.3v-7.58h1.26l0,.88a2,2,0,0,1,1.81-1,1.24,1.24,0,0,1,.57.1Z"/><path d="M430.53,198a3.29,3.29,0,0,1-2.5-1,3.71,3.71,0,0,1-1-2.7V194a4.5,4.5,0,0,1,.43-2,3.35,3.35,0,0,1,1.21-1.39,3,3,0,0,1,1.67-.5,2.87,2.87,0,0,1,2.3,1,4.26,4.26,0,0,1,.82,2.79v.54h-5.13a2.63,2.63,0,0,0,.65,1.81,2.06,2.06,0,0,0,1.59.69,2.35,2.35,0,0,0,1.17-.28,3.23,3.23,0,0,0,.83-.74l.79.61A3.19,3.19,0,0,1,430.53,198Zm-.16-6.8a1.69,1.69,0,0,0-1.31.58,2.7,2.7,0,0,0-.66,1.59h3.79v-.09a2.4,2.4,0,0,0-.53-1.53A1.65,1.65,0,0,0,430.37,191.17Z"/><path d="M438,196.91a1.88,1.88,0,0,0,1.22-.42,1.5,1.5,0,0,0,.57-1.05H441a2.36,2.36,0,0,1-.44,1.24,3.1,3.1,0,0,1-1.11.94A3.21,3.21,0,0,1,438,198a3.12,3.12,0,0,1-2.46-1,4.1,4.1,0,0,1-.91-2.82v-.22a4.45,4.45,0,0,1,.41-2,3,3,0,0,1,1.16-1.33,3.32,3.32,0,0,1,1.8-.48,3,3,0,0,1,2.11.76,2.68,2.68,0,0,1,.9,2h-1.22a1.74,1.74,0,0,0-.56-1.2,1.7,1.7,0,0,0-1.23-.48,1.8,1.8,0,0,0-1.53.72,3.32,3.32,0,0,0-.54,2.05v.24a3.26,3.26,0,0,0,.53,2A1.84,1.84,0,0,0,438,196.91Z"/><path d="M444.25,188.42v1.83h1.41v1h-1.41V196a1,1,0,0,0,.19.68.79.79,0,0,0,.64.23,3,3,0,0,0,.62-.09v1.05a4,4,0,0,1-1,.14,1.62,1.62,0,0,1-1.31-.53A2.28,2.28,0,0,1,443,196v-4.7h-1.38v-1H443v-1.83Z"/><path d="M448.58,197.83h-1.3V187.07h1.3Z"/><path d="M453.13,195.93l1.77-5.68h1.38l-3,8.74c-.48,1.26-1.22,1.89-2.25,1.89l-.25,0-.48-.09v-1.05l.35,0a1.73,1.73,0,0,0,1-.27,1.93,1.93,0,0,0,.6-1l.29-.77-2.7-7.49h1.41Z"/><path d="M467.4,194.12a4.51,4.51,0,0,1-.8,2.79,2.56,2.56,0,0,1-2.14,1.06,2.63,2.63,0,0,1-2.22-1l-.06.88H461V187.07h1.29v4a2.64,2.64,0,0,1,2.16-1,2.58,2.58,0,0,1,2.17,1,4.63,4.63,0,0,1,.79,2.86Zm-1.3-.15a3.49,3.49,0,0,0-.51-2,1.69,1.69,0,0,0-1.47-.72,1.91,1.91,0,0,0-1.84,1.19v3.28a2,2,0,0,0,1.86,1.19,1.66,1.66,0,0,0,1.44-.72A3.73,3.73,0,0,0,466.1,194Z"/><path d="M472.17,198a3.29,3.29,0,0,1-2.5-1,3.71,3.71,0,0,1-1-2.7V194a4.5,4.5,0,0,1,.43-2,3.4,3.4,0,0,1,1.2-1.39,3.08,3.08,0,0,1,1.68-.5,2.87,2.87,0,0,1,2.3,1,4.26,4.26,0,0,1,.82,2.79v.54H470a2.69,2.69,0,0,0,.66,1.81,2.06,2.06,0,0,0,1.59.69,2.29,2.29,0,0,0,1.16-.28,3.11,3.11,0,0,0,.84-.74l.79.61A3.19,3.19,0,0,1,472.17,198Zm-.16-6.8a1.69,1.69,0,0,0-1.31.58,2.7,2.7,0,0,0-.66,1.59h3.79v-.09a2.46,2.46,0,0,0-.53-1.53A1.65,1.65,0,0,0,472,191.17Z"/><path d="M477.85,190.25l0,.95a2.76,2.76,0,0,1,2.27-1.09c1.6,0,2.41.9,2.42,2.71v5h-1.29v-5a1.75,1.75,0,0,0-.38-1.21,1.48,1.48,0,0,0-1.14-.39,1.85,1.85,0,0,0-1.11.34,2.2,2.2,0,0,0-.74.88v5.4h-1.3v-7.58Z"/><path d="M487.68,198a3.31,3.31,0,0,1-2.51-1,3.75,3.75,0,0,1-1-2.7V194a4.5,4.5,0,0,1,.43-2,3.26,3.26,0,0,1,1.2-1.39,3.08,3.08,0,0,1,1.68-.5,2.85,2.85,0,0,1,2.29,1,4.2,4.2,0,0,1,.82,2.79v.54H485.5a2.69,2.69,0,0,0,.66,1.81,2,2,0,0,0,1.59.69,2.32,2.32,0,0,0,1.16-.28,2.93,2.93,0,0,0,.83-.74l.79.61A3.16,3.16,0,0,1,487.68,198Zm-.16-6.8a1.71,1.71,0,0,0-1.32.58,2.83,2.83,0,0,0-.66,1.59h3.8v-.09a2.52,2.52,0,0,0-.53-1.53A1.65,1.65,0,0,0,487.52,191.17Z"/><path d="M492.77,197.83v-6.58h-1.2v-1h1.2v-.78a2.54,2.54,0,0,1,.65-1.88,2.47,2.47,0,0,1,1.84-.66,3.39,3.39,0,0,1,.89.11l-.07,1.05a3.86,3.86,0,0,0-.7-.07,1.27,1.27,0,0,0-1,.37,1.5,1.5,0,0,0-.35,1.06v.8h1.62v1h-1.62v6.58Z"/><path d="M497.12,188.24a.75.75,0,0,1,.19-.53.85.85,0,0,1,1.14,0,.8.8,0,0,1,0,1.06.88.88,0,0,1-1.14,0A.75.75,0,0,1,497.12,188.24Zm1.39,9.59h-1.29v-7.58h1.29Z"/><path d="M502.34,188.42v1.83h1.42v1h-1.42V196a1.08,1.08,0,0,0,.19.68.81.81,0,0,0,.65.23,2.88,2.88,0,0,0,.61-.09v1.05a3.87,3.87,0,0,1-1,.14,1.61,1.61,0,0,1-1.31-.53,2.28,2.28,0,0,1-.44-1.49v-4.7h-1.38v-1h1.38v-1.83Z"/><path d="M507,188.42v1.83h1.41v1H507V196a1,1,0,0,0,.19.68.79.79,0,0,0,.64.23,3,3,0,0,0,.62-.09v1.05a3.89,3.89,0,0,1-1,.14,1.62,1.62,0,0,1-1.31-.53,2.28,2.28,0,0,1-.44-1.49v-4.7h-1.38v-1h1.38v-1.83Z"/><path d="M513.1,198a3.31,3.31,0,0,1-2.51-1,3.75,3.75,0,0,1-1-2.7V194a4.5,4.5,0,0,1,.43-2,3.26,3.26,0,0,1,1.2-1.39,3.06,3.06,0,0,1,1.68-.5,2.85,2.85,0,0,1,2.29,1,4.2,4.2,0,0,1,.82,2.79v.54h-5.13a2.73,2.73,0,0,0,.65,1.81,2.07,2.07,0,0,0,1.6.69,2.34,2.34,0,0,0,1.16-.28,3.07,3.07,0,0,0,.83-.74l.79.61A3.16,3.16,0,0,1,513.1,198Zm-.16-6.8a1.71,1.71,0,0,0-1.32.58,2.83,2.83,0,0,0-.66,1.59h3.8v-.09a2.46,2.46,0,0,0-.54-1.53A1.61,1.61,0,0,0,512.94,191.17Z"/><path d="M517.23,194a4.44,4.44,0,0,1,.83-2.8,2.81,2.81,0,0,1,4.27-.15v-4h1.3v10.76h-1.19l-.07-.82a2.63,2.63,0,0,1-2.16,1,2.6,2.6,0,0,1-2.15-1.08,4.52,4.52,0,0,1-.83-2.82Zm1.3.15a3.41,3.41,0,0,0,.53,2,1.75,1.75,0,0,0,1.47.73,1.89,1.89,0,0,0,1.8-1.11v-3.48a1.91,1.91,0,0,0-1.78-1.07,1.73,1.73,0,0,0-1.49.73A3.75,3.75,0,0,0,518.53,194.12Z"/><path d="M326.39,215a2.71,2.71,0,0,1-.18-.8,2.87,2.87,0,0,1-2.16.94,2.69,2.69,0,0,1-1.84-.63,2.09,2.09,0,0,1-.71-1.61,2.15,2.15,0,0,1,.9-1.84,4.28,4.28,0,0,1,2.53-.65h1.26v-.6a1.46,1.46,0,0,0-.41-1.08,1.63,1.63,0,0,0-1.2-.4,1.9,1.9,0,0,0-1.16.35,1,1,0,0,0-.47.85h-1.3a1.78,1.78,0,0,1,.4-1.1,2.86,2.86,0,0,1,1.1-.84,3.7,3.7,0,0,1,1.51-.3,3,3,0,0,1,2,.65,2.36,2.36,0,0,1,.77,1.8v3.49a4.23,4.23,0,0,0,.27,1.66V215Zm-2.15-1a2.29,2.29,0,0,0,1.16-.31,2,2,0,0,0,.79-.82v-1.56h-1c-1.59,0-2.38.47-2.38,1.4a1.19,1.19,0,0,0,.41.95A1.55,1.55,0,0,0,324.24,214Z"/><path d="M336.1,214.11a1.88,1.88,0,0,0,1.21-.42,1.43,1.43,0,0,0,.57-1.05h1.23a2.27,2.27,0,0,1-.45,1.24,2.89,2.89,0,0,1-1.1.94,3.24,3.24,0,0,1-1.46.35,3.12,3.12,0,0,1-2.46-1,4.11,4.11,0,0,1-.91-2.83v-.21a4.56,4.56,0,0,1,.4-2,3.06,3.06,0,0,1,1.17-1.34,3.25,3.25,0,0,1,1.79-.47,3,3,0,0,1,2.12.76,2.75,2.75,0,0,1,.9,2h-1.23a1.74,1.74,0,0,0-1.79-1.68,1.82,1.82,0,0,0-1.53.71,3.34,3.34,0,0,0-.54,2v.25a3.3,3.3,0,0,0,.54,2A1.82,1.82,0,0,0,336.1,214.11Z"/><path d="M340.22,211.17a4.49,4.49,0,0,1,.44-2,3.26,3.26,0,0,1,1.22-1.37,3.32,3.32,0,0,1,1.78-.48,3.16,3.16,0,0,1,2.5,1.07,4.1,4.1,0,0,1,1,2.85v.09a4.53,4.53,0,0,1-.42,2,3.25,3.25,0,0,1-1.22,1.37,3.29,3.29,0,0,1-1.81.49,3.2,3.2,0,0,1-2.49-1.07,4.1,4.1,0,0,1-1-2.84Zm1.31.16a3.23,3.23,0,0,0,.58,2,2,2,0,0,0,3.13,0,3.54,3.54,0,0,0,.58-2.17,3.21,3.21,0,0,0-.59-2,1.89,1.89,0,0,0-1.57-.77,1.86,1.86,0,0,0-1.55.76A3.55,3.55,0,0,0,341.53,211.33Z"/><path d="M350,207.46l0,.84a2.76,2.76,0,0,1,2.24-1,2.18,2.18,0,0,1,2.17,1.21,3,3,0,0,1,1-.88,2.93,2.93,0,0,1,1.43-.33c1.66,0,2.51.88,2.54,2.63V215h-1.3v-5a1.72,1.72,0,0,0-.37-1.21,1.63,1.63,0,0,0-1.25-.41,1.72,1.72,0,0,0-1.19.43,1.76,1.76,0,0,0-.56,1.16v5h-1.3v-5a1.45,1.45,0,0,0-1.62-1.66A1.73,1.73,0,0,0,350,209.5V215h-1.29v-7.57Z"/><path d="M362.53,207.46l0,.84a2.79,2.79,0,0,1,2.25-1,2.16,2.16,0,0,1,2.16,1.21,2.79,2.79,0,0,1,2.42-1.21c1.66,0,2.5.88,2.53,2.63V215h-1.29v-5a1.72,1.72,0,0,0-.38-1.21,1.61,1.61,0,0,0-1.24-.41,1.67,1.67,0,0,0-1.75,1.59v5H366v-5a1.45,1.45,0,0,0-1.62-1.66,1.73,1.73,0,0,0-1.74,1.09V215h-1.3v-7.57Z"/><path d="M378.55,214.28a2.75,2.75,0,0,1-2.22.89,2.33,2.33,0,0,1-1.84-.7,3,3,0,0,1-.64-2.09v-4.92h1.29v4.89c0,1.15.47,1.72,1.4,1.72a2,2,0,0,0,2-1.11v-5.5h1.29V215h-1.23Z"/><path d="M383,207.46l0,.95a2.76,2.76,0,0,1,2.27-1.09q2.4,0,2.43,2.7v5h-1.3v-5a1.73,1.73,0,0,0-.37-1.21,1.49,1.49,0,0,0-1.15-.4,1.87,1.87,0,0,0-1.1.34,2.29,2.29,0,0,0-.75.88V215h-1.29v-7.57Z"/><path d="M389.7,205.45a.79.79,0,0,1,.19-.54.88.88,0,0,1,1.14,0,.8.8,0,0,1,.2.54.8.8,0,0,1-1.34.52A.73.73,0,0,1,389.7,205.45Zm1.4,9.58h-1.3v-7.57h1.3Z"/><path d="M394.92,205.62v1.84h1.42v1h-1.42v4.7a1.08,1.08,0,0,0,.19.68.81.81,0,0,0,.65.23,3.51,3.51,0,0,0,.61-.08v1a3.87,3.87,0,0,1-1,.14,1.61,1.61,0,0,1-1.31-.53,2.26,2.26,0,0,1-.44-1.49v-4.69h-1.38v-1h1.38v-1.84Z"/><path d="M400.33,213.13l1.76-5.67h1.39l-3.05,8.74c-.47,1.26-1.22,1.89-2.24,1.89l-.25,0-.48-.09v-1l.35,0a1.67,1.67,0,0,0,1-.26,1.91,1.91,0,0,0,.61-1l.29-.77-2.7-7.49h1.41Z"/><path d="M407.84,211.17a4.49,4.49,0,0,1,.44-2,3.26,3.26,0,0,1,1.22-1.37,3.32,3.32,0,0,1,1.78-.48,3.17,3.17,0,0,1,2.5,1.07,4.1,4.1,0,0,1,1,2.85v.09a4.4,4.4,0,0,1-.43,2,3.16,3.16,0,0,1-1.21,1.37,3.32,3.32,0,0,1-1.81.49,3.19,3.19,0,0,1-2.49-1.07,4.1,4.1,0,0,1-1-2.84Zm1.3.16a3.23,3.23,0,0,0,.59,2,2,2,0,0,0,3.13,0,3.54,3.54,0,0,0,.58-2.17,3.27,3.27,0,0,0-.59-2,1.89,1.89,0,0,0-1.57-.77,1.86,1.86,0,0,0-1.55.76A3.55,3.55,0,0,0,409.14,211.33Z"/><path d="M417,215v-6.57h-1.2v-1H417v-.78a2.58,2.58,0,0,1,.65-1.89,2.47,2.47,0,0,1,1.84-.66,3.41,3.41,0,0,1,.89.12l-.07,1a3.88,3.88,0,0,0-.7-.06,1.23,1.23,0,0,0-1,.37,1.48,1.48,0,0,0-.35,1.05v.81h1.62v1h-1.62V215Z"/><path d="M429.72,210.55a3.34,3.34,0,0,1-1,.78,2.73,2.73,0,0,1-1.24.29,2.67,2.67,0,0,1-1.53-.43,2.83,2.83,0,0,1-1-1.23,4.52,4.52,0,0,1,0-3.58,2.8,2.8,0,0,1,1.1-1.25,3.11,3.11,0,0,1,1.66-.43,2.84,2.84,0,0,1,2.39,1.13,4.92,4.92,0,0,1,.87,3.08v.38a6.54,6.54,0,0,1-1.18,4.34,4.5,4.5,0,0,1-3.55,1.41H426v-1.1h.28a3.09,3.09,0,0,0,3.4-3.39Zm-2,0a2,2,0,0,0,1.2-.4,2.25,2.25,0,0,0,.8-1v-.51a3.6,3.6,0,0,0-.55-2.08,1.7,1.7,0,0,0-2.77-.14,2.68,2.68,0,0,0-.52,1.73,2.82,2.82,0,0,0,.5,1.71A1.6,1.6,0,0,0,427.72,210.55Z"/><path d="M438.27,211.61h1.42v1h-1.42V215H437v-2.37h-4.64v-.76l4.56-7.06h1.38Zm-4.47,0H437v-5l-.15.28Z"/><path d="M441,217.06l-.74-.5a3.43,3.43,0,0,0,.69-1.89V213.5h1.26v1a3.45,3.45,0,0,1-1.21,2.55Z"/><path d="M445.55,209.3h1a2.15,2.15,0,0,0,1.44-.48,1.6,1.6,0,0,0,.52-1.27,1.58,1.58,0,0,0-1.78-1.79,1.85,1.85,0,0,0-1.34.48,1.65,1.65,0,0,0-.5,1.27h-1.3a2.59,2.59,0,0,1,.89-2,3.65,3.65,0,0,1,4.51,0,2.79,2.79,0,0,1,.82,2.12,2.31,2.31,0,0,1-.43,1.29,2.67,2.67,0,0,1-1.18.93,2.5,2.5,0,0,1,1.3.88,2.42,2.42,0,0,1,.46,1.51,2.78,2.78,0,0,1-.89,2.17,3.36,3.36,0,0,1-2.34.81,3.44,3.44,0,0,1-2.33-.78,2.58,2.58,0,0,1-.9-2h1.3a1.67,1.67,0,0,0,.53,1.29,2,2,0,0,0,1.4.48,2,2,0,0,0,1.44-.49,1.87,1.87,0,0,0,.5-1.4,1.73,1.73,0,0,0-.55-1.37,2.36,2.36,0,0,0-1.57-.49h-1Z"/><path d="M458.4,215h-6.68v-.93l3.53-3.92a8.52,8.52,0,0,0,1.08-1.45,2.38,2.38,0,0,0,.3-1.15,1.8,1.8,0,0,0-.49-1.31,1.68,1.68,0,0,0-1.28-.51,2,2,0,0,0-1.51.55,2.14,2.14,0,0,0-.53,1.53h-1.3a3,3,0,0,1,.91-2.27,3.35,3.35,0,0,1,2.43-.87,3.25,3.25,0,0,1,2.24.74,2.56,2.56,0,0,1,.83,2c0,1-.64,2.2-1.92,3.58l-2.73,3h5.12Z"/><path d="M466,207.5a2.36,2.36,0,0,1-.4,1.36,2.84,2.84,0,0,1-1.09.93,2.92,2.92,0,0,1,1.26,1,2.51,2.51,0,0,1,.47,1.49,2.7,2.7,0,0,1-.89,2.11,3.45,3.45,0,0,1-2.35.78,3.4,3.4,0,0,1-2.36-.79,2.65,2.65,0,0,1-.88-2.1,2.59,2.59,0,0,1,.45-1.49,2.79,2.79,0,0,1,1.25-1,2.62,2.62,0,0,1-1.07-.93,2.42,2.42,0,0,1-.39-1.35,2.65,2.65,0,0,1,.82-2.05,3.53,3.53,0,0,1,4.35,0A2.63,2.63,0,0,1,466,207.5Zm-1.05,4.75a1.88,1.88,0,0,0-.55-1.39,1.94,1.94,0,0,0-3.35,1.39,1.81,1.81,0,0,0,.52,1.37,2,2,0,0,0,1.43.49,2,2,0,0,0,1.43-.5A1.82,1.82,0,0,0,464.9,212.25ZM463,205.76a1.71,1.71,0,0,0-1.24.47,1.78,1.78,0,0,0-.47,1.29,1.7,1.7,0,0,0,.47,1.25,1.84,1.84,0,0,0,2.48,0,1.89,1.89,0,0,0,0-2.52A1.63,1.63,0,0,0,463,205.76Z"/><path d="M477.9,211.33a4.49,4.49,0,0,1-.79,2.78,2.53,2.53,0,0,1-2.14,1.06,2.76,2.76,0,0,1-2.17-.88v3.65h-1.3V207.46h1.19l.06.84a2.65,2.65,0,0,1,2.2-1,2.59,2.59,0,0,1,2.16,1,4.6,4.6,0,0,1,.79,2.87Zm-1.29-.15a3.36,3.36,0,0,0-.55-2,1.74,1.74,0,0,0-1.5-.75,1.9,1.9,0,0,0-1.76,1.05v3.62a1.91,1.91,0,0,0,1.78,1,1.74,1.74,0,0,0,1.48-.74A3.68,3.68,0,0,0,476.61,211.18Z"/><path d="M482.69,215.17a3.34,3.34,0,0,1-2.51-1,3.79,3.79,0,0,1-1-2.71v-.24a4.5,4.5,0,0,1,.43-2,3.37,3.37,0,0,1,1.2-1.38,3,3,0,0,1,1.68-.5,2.85,2.85,0,0,1,2.3,1,4.25,4.25,0,0,1,.81,2.78v.54h-5.13a2.69,2.69,0,0,0,.66,1.81,2.06,2.06,0,0,0,1.59.69,2.19,2.19,0,0,0,1.16-.28,2.8,2.8,0,0,0,.84-.74l.79.62A3.2,3.2,0,0,1,482.69,215.17Zm-.16-6.79a1.75,1.75,0,0,0-1.32.57,2.76,2.76,0,0,0-.65,1.6h3.79v-.1a2.52,2.52,0,0,0-.53-1.53A1.64,1.64,0,0,0,482.53,208.38Z"/><path d="M486.8,211.17a4.49,4.49,0,0,1,.44-2,3.26,3.26,0,0,1,1.22-1.37,3.32,3.32,0,0,1,1.78-.48,3.17,3.17,0,0,1,2.5,1.07,4.1,4.1,0,0,1,1,2.85v.09a4.53,4.53,0,0,1-.43,2,3.16,3.16,0,0,1-1.21,1.37,3.32,3.32,0,0,1-1.81.49,3.17,3.17,0,0,1-2.49-1.07,4.1,4.1,0,0,1-1-2.84Zm1.3.16a3.23,3.23,0,0,0,.59,2,2,2,0,0,0,3.13,0,3.54,3.54,0,0,0,.58-2.17,3.27,3.27,0,0,0-.59-2,1.9,1.9,0,0,0-1.57-.77,1.86,1.86,0,0,0-1.55.76A3.55,3.55,0,0,0,488.1,211.33Z"/><path d="M501.72,211.33a4.56,4.56,0,0,1-.79,2.78,2.53,2.53,0,0,1-2.15,1.06,2.74,2.74,0,0,1-2.16-.88v3.65h-1.3V207.46h1.18l.07.84a2.63,2.63,0,0,1,2.19-1,2.59,2.59,0,0,1,2.16,1,4.6,4.6,0,0,1,.8,2.87Zm-1.3-.15a3.36,3.36,0,0,0-.54-2,1.77,1.77,0,0,0-1.5-.75,1.89,1.89,0,0,0-1.76,1.05v3.62a1.88,1.88,0,0,0,1.77,1,1.73,1.73,0,0,0,1.48-.74A3.61,3.61,0,0,0,500.42,211.18Z"/><path d="M504.77,215h-1.3V204.28h1.3Z"/><path d="M510,215.17a3.32,3.32,0,0,1-2.51-1,3.75,3.75,0,0,1-1-2.71v-.24a4.64,4.64,0,0,1,.43-2,3.32,3.32,0,0,1,1.21-1.38,3,3,0,0,1,1.67-.5,2.84,2.84,0,0,1,2.3,1,4.19,4.19,0,0,1,.82,2.78v.54h-5.13a2.68,2.68,0,0,0,.65,1.81,2.07,2.07,0,0,0,1.6.69,2.24,2.24,0,0,0,1.16-.28,2.9,2.9,0,0,0,.83-.74l.79.62A3.18,3.18,0,0,1,510,215.17Zm-.17-6.79a1.71,1.71,0,0,0-1.31.57,2.7,2.7,0,0,0-.66,1.6h3.79v-.1a2.4,2.4,0,0,0-.53-1.53A1.63,1.63,0,0,0,509.82,208.38Z"/><rect class="cls-2" x="45.41" y="44.25" width="161.5" height="161.5" transform="translate(125.71 -52.59) rotate(45.12)"/><g class="cls-3"><path class="cls-4" d="M125.94,227.58,23.57,124.79,126.37,22.42,228.74,125.21ZM26.74,124.79,126,224.41l99.62-99.2L126.36,25.59ZM126,214.55,91.8,180.24,118,154.11,92.71,128.68l-18,18,11.88,11.93,4.93-4.92-7-7,8.17-8.13,15.49,15.55L86.88,175.3,57,145.31l20.5-20.41L57.1,104.4l30-29.87,21.21,21.3L92.75,111.32l-8.14-8.17,7-7-4.91-4.94L74.75,103.13l18,18.05,25.43-25.33L92,69.61l34.31-34.16,34.17,34.31L134.27,95.88l25.33,25.44,18.05-18L165.78,91.42l-4.94,4.92,6.95,7-8.17,8.13L144.13,95.91l21.3-21.21,29.87,30L174.8,125.1l20.41,20.5-30,29.86L144,154.17l15.56-15.49,8.13,8.17-7,7,4.92,4.94,11.92-11.87-18-18.05-25.44,25.33,26.13,26.24Zm-31-34.3,31,31.13,31.13-31L131,154.14l28.61-28.49,21.14,21.22-15.1,15-8.08-8.12,7-6.95-5-5-12.38,12.33,18,18.12L192,145.59l-20.41-20.5,20.5-20.41L165.42,77.87l-18.12,18,12.33,12.38,5-5-7-7,8.11-8.09,15,15.1L159.6,124.49,131.1,95.88l26.24-26.13-31-31.13-31.14,31,26.13,26.24L92.72,124.35,71.58,103.12l15.1-15,8.08,8.11-7,7,5,5,12.38-12.33-18-18.12L60.27,104.41l20.41,20.5-20.5,20.41,26.71,26.81,18.12-18L92.68,141.71l-5,5,7,7-8.11,8.09-15-15.1,21.23-21.14,28.49,28.61Zm105.18-39.57-15.49-15.56,15.56-15.49,15.49,15.56Zm-12.32-15.55,12.33,12.38,12.38-12.33L200.21,112.8ZM52.09,140.37,36.6,124.81l15.56-15.49,15.49,15.56ZM39.77,124.82,52.1,137.2l12.38-12.33L52.15,112.49Z"/><path class="cls-4" d="M126,204l-24-24.07,24.07-24,24,24.07Zm-20.8-24.07L126,200.81,146.89,180l-20.81-20.89Z"/><path class="cls-4" d="M126.22,93.4l-24-24.07,24.07-24,24,24.07Zm-20.8-24.06,20.81,20.89,20.89-20.81L126.31,48.53Z"/></g><path class="cls-4" d="M90.89,163c-.15-.07-.3-.16-.46-.22a4.49,4.49,0,0,1-3.07-4.29c0-1.73,0-3.46,0-5.18,0-1.05.54-1.62,1.4-1.59s1.27.57,1.28,1.6c0,1.61,0,3.22,0,4.83s.68,2.16,2.21,2.17h7.14c0-.3.07-.55.08-.81q.21-5.9.41-11.8c.12-3.5,1.27-5.13,4.57-6.43v-8.39l-1.62.41A30.49,30.49,0,0,0,95.38,136,9.89,9.89,0,0,0,90,145.09c0,.54,0,1.07,0,1.61a1.32,1.32,0,0,1-2.64.16c-.2-3.9.44-7.55,3.28-10.51a17.86,17.86,0,0,1,8-4.65c5-1.47,10.08-2.83,15.13-4.23a3.35,3.35,0,0,0,2.68-3.25,17.22,17.22,0,0,0,0-2.59,1.39,1.39,0,0,0-.56-.89A15.56,15.56,0,0,1,109.49,110a.73.73,0,0,0-.69-.73,4.06,4.06,0,0,1-3.34-3.9,14.78,14.78,0,0,1,0-3.39,12.8,12.8,0,0,1,1.06-2.67,4,4,0,0,0,.41-1.11c.06-.83,0-1.67,0-2.5a.92.92,0,0,0-.81-1.11,14.91,14.91,0,0,1-2.57-1,6,6,0,0,1-1.52-1.08,2.35,2.35,0,0,1,.6-4,16.4,16.4,0,0,1,3.75-1c.68-.13,1-.31,1.18-1q1.23-5.11,2.59-10.21a6.25,6.25,0,0,1,6.27-4.86q9.66,0,19.33,0a6.24,6.24,0,0,1,6.28,4.84c.9,3.42,1.79,6.85,2.61,10.3.17.7.51.84,1.14,1a16.12,16.12,0,0,1,3.52.91,2.4,2.4,0,0,1,.59,4.35,17.79,17.79,0,0,1-3.3,1.72,11.33,11.33,0,0,1-1.32.44c0,1.23,0,2.45,0,3.67,0,.25.27.49.39.75a7.78,7.78,0,0,1,1,2.23,19.66,19.66,0,0,1,0,4.27,3.88,3.88,0,0,1-3.16,3.45c-.55.11-.73.3-.81.83a15.2,15.2,0,0,1-6.32,10.5,1.44,1.44,0,0,0-.72,1.47,24.14,24.14,0,0,0,.26,3.09,3,3,0,0,0,2.36,2.29c5.09,1.36,10.17,2.75,15.22,4.26a23.88,23.88,0,0,1,5,2.22,12,12,0,0,1,6.37,10.69c.09,4.65.06,9.3,0,13.95a4.43,4.43,0,0,1-3.07,4.2c-.16.06-.31.15-.46.22Zm59.23-2.72c0-.25,0-.45,0-.65-.27-4.07-.61-8.15-.78-12.23a3.56,3.56,0,0,0-3.88-3.57c-13,.06-26,0-39,0-2.62,0-3.78,1.11-3.88,3.7-.13,3.31-.26,6.62-.37,9.93,0,.91,0,1.83,0,2.79ZM114.38,96.36v4.28a1.75,1.75,0,0,1-1,1.74,1.94,1.94,0,0,1-2.09-.3,6.82,6.82,0,0,0-1.71-.9c-.94-.32-1.35,0-1.41,1a29.71,29.71,0,0,0,0,3.13,1.4,1.4,0,0,0,1.45,1.4c.27,0,.54,0,.8,0,1.11,0,1.57.49,1.61,1.6.37,9.22,9.27,14.15,16.42,12.94,5.3-.9,11.57-5,11.87-13.13a1.33,1.33,0,0,1,1.34-1.39c.33,0,.66,0,1,0a1.4,1.4,0,0,0,1.53-1.41,28.82,28.82,0,0,0,0-3.22c-.06-.9-.47-1.17-1.32-.89a12.22,12.22,0,0,0-1.74.86,4.61,4.61,0,0,1-.93.49,1.77,1.77,0,0,1-2.22-1.79c0-1.48,0-3,0-4.35-4,.15-7.87.41-11.74.41S118.4,96.52,114.38,96.36Zm-10.19-5.85v.33a6.28,6.28,0,0,0,1.08.58,40,40,0,0,0,4.09,1.23A89.59,89.59,0,0,0,131.16,94a60.56,60.56,0,0,0,13.27-1.72c1.27-.34,2.49-.87,3.73-1.31l-.07-.3a13,13,0,0,0-4.63-.71q-11.18,0-22.36,0a5.26,5.26,0,0,1-.89,0A1.28,1.28,0,0,1,119,88.59a1.26,1.26,0,0,1,1.23-1.29,7.3,7.3,0,0,1,.81,0h21.08c-1-3.71-1.83-7.29-2.82-10.84a3.54,3.54,0,0,0-3.7-2.39q-9.48,0-19,0a3.7,3.7,0,0,0-3.93,3.06q-.72,2.76-1.41,5.54c-.38,1.51-.76,3-1.15,4.63H114a1.35,1.35,0,0,1,1.46,1.35A1.32,1.32,0,0,1,114,90c-1.82,0-3.65,0-5.46,0C107.11,90.07,105.65,90.33,104.19,90.51Zm48.67,69.79c2.63,0,5.19,0,7.75,0a1.75,1.75,0,0,0,1.66-2c0-4.51,0-9,0-13.51a9.37,9.37,0,0,0-3.24-7.29c-3.19-2.76-7.18-3.58-11.19-4.67,0,2.82,0,5.53,0,8.24,0,.2.37.47.62.59a5.78,5.78,0,0,1,3.48,5C152.26,151.19,152.55,155.68,152.86,160.3Zm-40-19.19h26.56c0-3.42,0-6.78,0-10.15,0-.17-.12-.45-.25-.49a2.29,2.29,0,0,0-2.24,0,19.3,19.3,0,0,1-21.63,0,2,2,0,0,0-2.15,0c-.22.09-.26.77-.27,1.18,0,2,0,3.94,0,5.91Zm4.53-12.56c5.24,3.57,13.13,3.18,17.48,0a7.64,7.64,0,0,1-1.79-5.89,17.36,17.36,0,0,1-13.88,0A7.62,7.62,0,0,1,117.4,128.55Zm-10.16,3.53v9h2.88v-9.82Zm34.92,9h2.92v-9.05l-2.92-.79ZM111.69,99c0-1,0-1.83,0-2.69a.73.73,0,0,0-.4-.55,11.63,11.63,0,0,0-1.62-.27c0,.9,0,1.7,0,2.5a.74.74,0,0,0,.36.5C110.53,98.7,111.05,98.83,111.69,99Zm28.92,0c.62-.19,1.17-.33,1.69-.52a.64.64,0,0,0,.33-.44c0-.83,0-1.66,0-2.48-2,0-2,0-2,1.87Z"/><path class="cls-4" d="M126,150.29h17a5.34,5.34,0,0,1,.8,0,1.33,1.33,0,0,1,0,2.65,4.39,4.39,0,0,1-.81,0H108.9a3.75,3.75,0,0,1-.89,0,1.33,1.33,0,0,1,.07-2.62,4.28,4.28,0,0,1,.8,0Z"/></svg>