<svg id="Layer_1" data-name="Layer 1" xmlns="http://www.w3.org/2000/svg" viewBox="0 0 654 250"><defs><style>.cls-1{fill:none;stroke:#bf2134;stroke-miterlimit:10;stroke-width:2.6px;}.cls-2{fill:#bf2134;}.cls-3{opacity:0.15;}.cls-4{fill:#fff;}</style></defs><polygon class="cls-1" points="12.54 125 126.38 238.84 528.2 238.84 642.04 125 528.2 11.16 126.38 11.16 12.54 125"/><path class="cls-2" d="M316.56,111.81a6.38,6.38,0,0,1-2.48-2.35,6.89,6.89,0,0,1,0-6.81,6.3,6.3,0,0,1,2.48-2.35,7.93,7.93,0,0,1,6.55-.27,6,6,0,0,1,2.26,1.68l-1.9,1.75a4.05,4.05,0,0,0-3.21-1.49,4.24,4.24,0,0,0-2.12.52,3.68,3.68,0,0,0-1.45,1.45,4.56,4.56,0,0,0,0,4.23,3.74,3.74,0,0,0,1.45,1.45,4.24,4.24,0,0,0,2.12.52,4,4,0,0,0,3.21-1.51l1.9,1.75a5.87,5.87,0,0,1-2.27,1.69,7.48,7.48,0,0,1-3,.59A7.31,7.31,0,0,1,316.56,111.81Z"/><path class="cls-2" d="M329.68,111.8a6.39,6.39,0,0,1-2.5-2.36,6.82,6.82,0,0,1,0-6.77,6.32,6.32,0,0,1,2.5-2.36,7.39,7.39,0,0,1,3.59-.86,7.28,7.28,0,0,1,3.57.86,6.41,6.41,0,0,1,3.42,5.74,6.41,6.41,0,0,1-3.42,5.75,7.39,7.39,0,0,1-3.57.86A7.5,7.5,0,0,1,329.68,111.8Zm5.63-2.18a3.69,3.69,0,0,0,1.43-1.45,4.56,4.56,0,0,0,0-4.23,3.63,3.63,0,0,0-1.43-1.45,4.28,4.28,0,0,0-4.09,0,3.76,3.76,0,0,0-1.43,1.45,4.56,4.56,0,0,0,0,4.23,3.83,3.83,0,0,0,1.43,1.45,4.28,4.28,0,0,0,4.09,0Z"/><path class="cls-2" d="M354.11,112.44l0-7.66-3.76,6.31H349l-3.74-6.15v7.5h-2.78V99.67h2.45l4.78,7.93,4.71-7.93h2.42l0,12.77Z"/><path class="cls-2" d="M371.53,112.44l0-7.66-3.76,6.31h-1.33l-3.74-6.15v7.5h-2.77V99.67h2.44l4.78,7.93,4.71-7.93h2.43l0,12.77Z"/><path class="cls-2" d="M378.75,111.14a5.81,5.81,0,0,1-1.52-4.32V99.67h2.95v7q0,3.44,2.85,3.43a2.66,2.66,0,0,0,2.11-.83,3.85,3.85,0,0,0,.73-2.6v-7h2.92v7.15a6,6,0,0,1-10,4.32Z"/><path class="cls-2" d="M403.43,99.67v12.77H401l-6.37-7.76v7.76h-2.92V99.67h2.45l6.35,7.75V99.67Z"/><path class="cls-2" d="M406.46,99.67h3v12.77h-3Z"/><path class="cls-2" d="M415.09,102.08H411V99.67h11.13v2.41H418v10.36h-3Z"/><path class="cls-2" d="M429.61,107.91v4.53h-2.95v-4.56l-5-8.21h3.14l3.41,5.67,3.41-5.67h2.9Z"/><path class="cls-2" d="M449.61,105.85h2.7V111a7.48,7.48,0,0,1-2.41,1.21,9.32,9.32,0,0,1-2.75.42,7.43,7.43,0,0,1-3.58-.85,6.34,6.34,0,0,1-2.49-2.35,6.89,6.89,0,0,1,0-6.81,6.25,6.25,0,0,1,2.51-2.35,7.54,7.54,0,0,1,3.61-.85,8,8,0,0,1,3.05.56,6.08,6.08,0,0,1,2.3,1.65l-1.9,1.75a4.38,4.38,0,0,0-3.3-1.44,4.49,4.49,0,0,0-2.17.51,3.6,3.6,0,0,0-1.48,1.44,4.53,4.53,0,0,0,0,4.25,3.73,3.73,0,0,0,1.47,1.45,4.29,4.29,0,0,0,2.14.52,4.74,4.74,0,0,0,2.3-.55Z"/><path class="cls-2" d="M463.19,112.44l-2.47-3.56H458v3.56h-2.95V99.67h5.53a7.17,7.17,0,0,1,2.94.56,4.34,4.34,0,0,1,1.93,1.61,4.4,4.4,0,0,1,.67,2.46,4.13,4.13,0,0,1-2.62,4l2.86,4.11Zm-.75-9.79a3.13,3.13,0,0,0-2-.57H458v4.45h2.41a3.07,3.07,0,0,0,2-.59,2.31,2.31,0,0,0,0-3.29Z"/><path class="cls-2" d="M471.06,111.8a6.39,6.39,0,0,1-2.5-2.36,6.82,6.82,0,0,1,0-6.77,6.32,6.32,0,0,1,2.5-2.36,7.88,7.88,0,0,1,7.16,0,6.58,6.58,0,0,1,2.5,9.13,6.45,6.45,0,0,1-2.5,2.36,7.88,7.88,0,0,1-7.16,0Zm5.63-2.18a3.69,3.69,0,0,0,1.43-1.45,4.56,4.56,0,0,0,0-4.23,3.63,3.63,0,0,0-1.43-1.45,4.28,4.28,0,0,0-4.09,0,3.69,3.69,0,0,0-1.43,1.45,4.56,4.56,0,0,0,0,4.23,3.76,3.76,0,0,0,1.43,1.45,4.28,4.28,0,0,0,4.09,0Z"/><path class="cls-2" d="M485.28,111.14a5.81,5.81,0,0,1-1.53-4.32V99.67h3v7q0,3.44,2.84,3.43a2.68,2.68,0,0,0,2.12-.83,3.85,3.85,0,0,0,.73-2.6v-7h2.92v7.15a5.29,5.29,0,0,1-5.78,5.84A5.76,5.76,0,0,1,485.28,111.14Z"/><path class="cls-2" d="M506.72,100.23a4.26,4.26,0,0,1,2.6,4.07,4.45,4.45,0,0,1-.68,2.46,4.28,4.28,0,0,1-1.92,1.6,7.25,7.25,0,0,1-3,.56H501.2v3.52h-3V99.67h5.53A7.25,7.25,0,0,1,506.72,100.23Zm-1.09,5.7a2,2,0,0,0,.69-1.63,2,2,0,0,0-.69-1.65,3.13,3.13,0,0,0-2-.57h-2.4v4.43h2.4A3.07,3.07,0,0,0,505.63,105.93Z"/><path class="cls-2" d="M512.86,112.25a7,7,0,0,1-2.27-1.07l1-2.23a6.36,6.36,0,0,0,1.95,1,7.42,7.42,0,0,0,2.26.37,3.59,3.59,0,0,0,1.86-.38,1.14,1.14,0,0,0,.61-1,.94.94,0,0,0-.36-.76,2.7,2.7,0,0,0-.91-.48c-.37-.12-.88-.26-1.51-.4a23.06,23.06,0,0,1-2.39-.7,3.93,3.93,0,0,1-1.6-1.11,3,3,0,0,1-.66-2,3.55,3.55,0,0,1,.6-2,4,4,0,0,1,1.82-1.43,7.22,7.22,0,0,1,3-.53,10,10,0,0,1,2.39.29,6.72,6.72,0,0,1,2,.84l-.91,2.24a7.11,7.11,0,0,0-3.54-1,3.29,3.29,0,0,0-1.83.4,1.22,1.22,0,0,0-.59,1.06,1,1,0,0,0,.68,1,11.21,11.21,0,0,0,2.09.63,21,21,0,0,1,2.39.69,4,4,0,0,1,1.6,1.09,3,3,0,0,1,.66,2,3.49,3.49,0,0,1-.61,2,4.13,4.13,0,0,1-1.83,1.43,7.56,7.56,0,0,1-3,.53A10.63,10.63,0,0,1,512.86,112.25Z"/><path class="cls-2" d="M414.5,47.75V53L401.62,82.42H392.9l12.43-28.14H393.84v5.65h-7.13V47.75Z"/><path class="cls-2" d="M424.25,80.88A14.27,14.27,0,0,1,419,74.71a22.38,22.38,0,0,1-1.91-9.63A22.38,22.38,0,0,1,419,55.45a14.33,14.33,0,0,1,5.27-6.17,14.91,14.91,0,0,1,15.36,0,14.33,14.33,0,0,1,5.27,6.17,22.38,22.38,0,0,1,1.91,9.63,22.38,22.38,0,0,1-1.91,9.63,14.27,14.27,0,0,1-5.27,6.17,14.91,14.91,0,0,1-15.36,0Zm12.66-7.38c1.2-1.81,1.81-4.62,1.81-8.42s-.61-6.6-1.81-8.42a5.87,5.87,0,0,0-9.91,0c-1.2,1.82-1.8,4.62-1.8,8.42s.6,6.61,1.8,8.42a5.86,5.86,0,0,0,9.91,0Z"/><path d="M283.81,151.92l1.72-6.84h1.53l-2.6,8.95h-1.24L281,147.25,278.92,154h-1.24l-2.6-8.95h1.53l1.76,6.7,2.08-6.7h1.24Z"/><path d="M292.33,154.2a3.9,3.9,0,0,1-3-1.2,4.44,4.44,0,0,1-1.14-3.2v-.28a5.37,5.37,0,0,1,.51-2.38,4,4,0,0,1,1.42-1.63,3.54,3.54,0,0,1,2-.6,3.38,3.38,0,0,1,2.72,1.15,5,5,0,0,1,1,3.3V150h-6.06a3.17,3.17,0,0,0,.77,2.14,2.43,2.43,0,0,0,1.89.82,2.67,2.67,0,0,0,1.37-.33,3.55,3.55,0,0,0,1-.88l.94.73A3.77,3.77,0,0,1,292.33,154.2Zm-.19-8a2,2,0,0,0-1.55.68,3.28,3.28,0,0,0-.78,1.89h4.48v-.12a2.87,2.87,0,0,0-.63-1.81A1.93,1.93,0,0,0,292.14,146.17Z"/><path d="M301.92,146.45a4.43,4.43,0,0,0-.75,0,2,2,0,0,0-2.05,1.28V154h-1.53v-8.95h1.49l0,1a2.38,2.38,0,0,1,2.13-1.2,1.5,1.5,0,0,1,.68.12Z"/><path d="M306.89,154.2a3.91,3.91,0,0,1-3-1.2,4.44,4.44,0,0,1-1.14-3.2v-.28a5.37,5.37,0,0,1,.51-2.38,4,4,0,0,1,1.42-1.63,3.55,3.55,0,0,1,2-.6,3.38,3.38,0,0,1,2.71,1.15,5,5,0,0,1,1,3.3V150h-6.07a3.13,3.13,0,0,0,.78,2.14A2.41,2.41,0,0,0,307,153a2.65,2.65,0,0,0,1.37-.33,3.59,3.59,0,0,0,1-.88l.93.73A3.76,3.76,0,0,1,306.89,154.2Zm-.19-8a2.05,2.05,0,0,0-1.56.68,3.28,3.28,0,0,0-.78,1.89h4.49v-.12a3,3,0,0,0-.63-1.81A2,2,0,0,0,306.7,146.17Z"/><path d="M320.06,154.2a3.89,3.89,0,0,1-3-1.2,4.41,4.41,0,0,1-1.15-3.2v-.28a5.37,5.37,0,0,1,.51-2.38,4,4,0,0,1,1.43-1.63,3.52,3.52,0,0,1,2-.6,3.36,3.36,0,0,1,2.71,1.15,5,5,0,0,1,1,3.3V150h-6.07a3.18,3.18,0,0,0,.78,2.14,2.41,2.41,0,0,0,1.88.82,2.65,2.65,0,0,0,1.37-.33,3.45,3.45,0,0,0,1-.88l.93.73A3.76,3.76,0,0,1,320.06,154.2Zm-.19-8a2.05,2.05,0,0,0-1.56.68,3.28,3.28,0,0,0-.78,1.89H322v-.12a3,3,0,0,0-.63-1.81A2,2,0,0,0,319.87,146.17Z"/><path d="M330.53,151.66a1.11,1.11,0,0,0-.47-1,4.52,4.52,0,0,0-1.63-.59,7.51,7.51,0,0,1-1.84-.59,2.68,2.68,0,0,1-1-.83,2,2,0,0,1-.33-1.14,2.3,2.3,0,0,1,.93-1.86,3.64,3.64,0,0,1,2.38-.77,3.75,3.75,0,0,1,2.47.79,2.49,2.49,0,0,1,1,2h-1.54a1.38,1.38,0,0,0-.53-1.08,2,2,0,0,0-1.35-.46,2.08,2.08,0,0,0-1.31.37,1.15,1.15,0,0,0-.47,1,.92.92,0,0,0,.44.83,5.24,5.24,0,0,0,1.59.54,8.5,8.5,0,0,1,1.85.61,2.76,2.76,0,0,1,1.06.86,2.09,2.09,0,0,1,.34,1.22,2.28,2.28,0,0,1-1,1.92,4,4,0,0,1-2.49.73,4.57,4.57,0,0,1-1.9-.38,3.2,3.2,0,0,1-1.3-1.07,2.53,2.53,0,0,1-.46-1.47h1.53a1.57,1.57,0,0,0,.61,1.22,2.41,2.41,0,0,0,1.52.45,2.52,2.52,0,0,0,1.4-.35A1.09,1.09,0,0,0,330.53,151.66Z"/><path d="M336.13,142.91v2.17h1.67v1.18h-1.67v5.56a1.24,1.24,0,0,0,.23.81.92.92,0,0,0,.76.27,4.16,4.16,0,0,0,.72-.1V154a4.41,4.41,0,0,1-1.17.17,1.93,1.93,0,0,1-1.55-.62,2.73,2.73,0,0,1-.52-1.77v-5.55H333v-1.18h1.63v-2.17Z"/><path d="M345.12,154a3.31,3.31,0,0,1-.22-.94,3.41,3.41,0,0,1-2.55,1.11,3.16,3.16,0,0,1-2.17-.75,2.44,2.44,0,0,1-.85-1.9,2.53,2.53,0,0,1,1.07-2.17,5,5,0,0,1,3-.78h1.49v-.7a1.74,1.74,0,0,0-.48-1.28,2,2,0,0,0-1.42-.47,2.21,2.21,0,0,0-1.37.41,1.22,1.22,0,0,0-.55,1h-1.54a2.05,2.05,0,0,1,.47-1.29,3.23,3.23,0,0,1,1.29-1,4.41,4.41,0,0,1,1.79-.37,3.53,3.53,0,0,1,2.43.78,2.78,2.78,0,0,1,.91,2.13v4.12a5.06,5.06,0,0,0,.31,2V154Zm-2.54-1.17a2.65,2.65,0,0,0,1.36-.37,2.3,2.3,0,0,0,.94-1v-1.83h-1.2c-1.88,0-2.81.55-2.81,1.64a1.4,1.4,0,0,0,.47,1.13A1.85,1.85,0,0,0,342.58,152.86Z"/><path d="M356.38,149.65a5.32,5.32,0,0,1-.94,3.3,3,3,0,0,1-2.53,1.25,3.12,3.12,0,0,1-2.62-1.2l-.08,1h-1.4V141.32h1.53v4.74a3.11,3.11,0,0,1,2.55-1.15,3,3,0,0,1,2.56,1.24,5.46,5.46,0,0,1,.93,3.37Zm-1.53-.17a4.12,4.12,0,0,0-.6-2.41,2,2,0,0,0-1.74-.86,2.24,2.24,0,0,0-2.17,1.41v3.87a2.31,2.31,0,0,0,2.19,1.41,2,2,0,0,0,1.71-.85A4.41,4.41,0,0,0,354.85,149.48Z"/><path d="M360,154h-1.53V141.32H360Z"/><path d="M362.43,142.71a.92.92,0,0,1,.23-.63,1,1,0,0,1,1.35,0,1,1,0,0,1,0,1.25.89.89,0,0,1-.68.24.89.89,0,0,1-.67-.24A.91.91,0,0,1,362.43,142.71ZM364.09,154h-1.53v-8.95h1.53Z"/><path d="M371.75,151.66a1.14,1.14,0,0,0-.47-1,4.52,4.52,0,0,0-1.63-.59,7.51,7.51,0,0,1-1.84-.59,2.68,2.68,0,0,1-1-.83,2,2,0,0,1-.33-1.14,2.3,2.3,0,0,1,.93-1.86,3.64,3.64,0,0,1,2.38-.77,3.77,3.77,0,0,1,2.47.79,2.49,2.49,0,0,1,.95,2h-1.54a1.36,1.36,0,0,0-.54-1.08,2,2,0,0,0-1.34-.46,2.06,2.06,0,0,0-1.31.37,1.15,1.15,0,0,0-.47,1,.92.92,0,0,0,.44.83,5.26,5.26,0,0,0,1.58.54,8.43,8.43,0,0,1,1.86.61,2.76,2.76,0,0,1,1.06.86,2.16,2.16,0,0,1,.34,1.22,2.28,2.28,0,0,1-1,1.92,4,4,0,0,1-2.49.73,4.54,4.54,0,0,1-1.9-.38,3.13,3.13,0,0,1-1.3-1.07,2.54,2.54,0,0,1-.47-1.47h1.54a1.57,1.57,0,0,0,.61,1.22,2.41,2.41,0,0,0,1.52.45,2.49,2.49,0,0,0,1.39-.35A1.1,1.1,0,0,0,371.75,151.66Z"/><path d="M376.8,146.16a3.28,3.28,0,0,1,2.65-1.25c1.89,0,2.85,1.07,2.86,3.21V154h-1.53v-5.92a2,2,0,0,0-.44-1.43,1.77,1.77,0,0,0-1.35-.47,2.26,2.26,0,0,0-1.31.4,2.71,2.71,0,0,0-.88,1V154h-1.53V141.32h1.53Z"/><path d="M388.32,154.2a3.9,3.9,0,0,1-3-1.2,4.44,4.44,0,0,1-1.14-3.2v-.28a5.37,5.37,0,0,1,.51-2.38,3.89,3.89,0,0,1,1.42-1.63,3.54,3.54,0,0,1,2-.6,3.36,3.36,0,0,1,2.71,1.15,5,5,0,0,1,1,3.3V150h-6.06a3.17,3.17,0,0,0,.77,2.14,2.41,2.41,0,0,0,1.88.82,2.71,2.71,0,0,0,1.38-.33,3.55,3.55,0,0,0,1-.88l.94.73A3.77,3.77,0,0,1,388.32,154.2Zm-.19-8a2.05,2.05,0,0,0-1.56.68,3.34,3.34,0,0,0-.77,1.89h4.48v-.12a2.87,2.87,0,0,0-.63-1.81A1.93,1.93,0,0,0,388.13,146.17Z"/><path d="M393.21,149.48a5.18,5.18,0,0,1,1-3.31,3.3,3.3,0,0,1,5-.18v-4.67h1.53V154h-1.4l-.08-1a3.11,3.11,0,0,1-2.55,1.13,3.06,3.06,0,0,1-2.54-1.28,5.32,5.32,0,0,1-1-3.32Zm1.53.17a4,4,0,0,0,.63,2.39,2,2,0,0,0,1.74.86,2.22,2.22,0,0,0,2.12-1.31v-4.11a2.24,2.24,0,0,0-2.11-1.27,2,2,0,0,0-1.75.87A4.37,4.37,0,0,0,394.74,149.65Z"/><path d="M412.86,154a3.31,3.31,0,0,1-.22-.94,3.4,3.4,0,0,1-2.54,1.11,3.17,3.17,0,0,1-2.18-.75,2.43,2.43,0,0,1-.84-1.9,2.52,2.52,0,0,1,1.06-2.17,5,5,0,0,1,3-.78h1.49v-.7a1.74,1.74,0,0,0-.48-1.28,2,2,0,0,0-1.41-.47,2.22,2.22,0,0,0-1.38.41,1.22,1.22,0,0,0-.55,1h-1.54a2.11,2.11,0,0,1,.47-1.29,3.2,3.2,0,0,1,1.3-1,4.34,4.34,0,0,1,1.79-.37,3.5,3.5,0,0,1,2.42.78,2.78,2.78,0,0,1,.91,2.13v4.12a5.06,5.06,0,0,0,.31,2V154Zm-2.54-1.17a2.65,2.65,0,0,0,1.36-.37,2.19,2.19,0,0,0,.94-1v-1.83h-1.2c-1.88,0-2.81.55-2.81,1.64a1.4,1.4,0,0,0,.48,1.13A1.84,1.84,0,0,0,410.32,152.86Z"/><path d="M420.14,153a2.21,2.21,0,0,0,1.43-.5,1.75,1.75,0,0,0,.68-1.24h1.45a2.83,2.83,0,0,1-.53,1.46,3.39,3.39,0,0,1-1.31,1.11,4,4,0,0,1-4.63-.8,4.88,4.88,0,0,1-1.08-3.34v-.26a5.38,5.38,0,0,1,.48-2.32,3.61,3.61,0,0,1,1.38-1.58,3.86,3.86,0,0,1,2.12-.57,3.55,3.55,0,0,1,2.5.91,3.23,3.23,0,0,1,1.07,2.34h-1.45a2.11,2.11,0,0,0-.66-1.43,2,2,0,0,0-1.46-.56,2.15,2.15,0,0,0-1.81.84,4,4,0,0,0-.64,2.43v.29a3.83,3.83,0,0,0,.64,2.38A2.14,2.14,0,0,0,420.14,153Z"/><path d="M429.74,146.45a4.43,4.43,0,0,0-.75,0,2,2,0,0,0-2,1.28V154h-1.53v-8.95h1.49l0,1a2.39,2.39,0,0,1,2.14-1.2,1.49,1.49,0,0,1,.67.12Z"/><path d="M430.58,149.47a5.21,5.21,0,0,1,.52-2.36,3.79,3.79,0,0,1,3.54-2.2,3.79,3.79,0,0,1,3,1.27,4.89,4.89,0,0,1,1.13,3.37v.1a5.37,5.37,0,0,1-.5,2.35,3.82,3.82,0,0,1-1.43,1.62,4,4,0,0,1-2.14.58,3.78,3.78,0,0,1-3-1.27,4.85,4.85,0,0,1-1.13-3.35Zm1.54.18a3.86,3.86,0,0,0,.69,2.4,2.34,2.34,0,0,0,3.7,0,4.17,4.17,0,0,0,.69-2.56,3.78,3.78,0,0,0-.7-2.38,2.33,2.33,0,0,0-3.69,0A4.19,4.19,0,0,0,432.12,149.65Z"/><path d="M445.86,151.66a1.11,1.11,0,0,0-.47-1,4.52,4.52,0,0,0-1.63-.59,7.51,7.51,0,0,1-1.84-.59,2.68,2.68,0,0,1-1-.83,2,2,0,0,1-.33-1.14,2.3,2.3,0,0,1,.93-1.86,3.64,3.64,0,0,1,2.38-.77,3.75,3.75,0,0,1,2.47.79,2.49,2.49,0,0,1,.95,2h-1.54a1.38,1.38,0,0,0-.53-1.08,2,2,0,0,0-1.35-.46,2.08,2.08,0,0,0-1.31.37,1.15,1.15,0,0,0-.47,1,.92.92,0,0,0,.44.83,5.24,5.24,0,0,0,1.59.54,8.5,8.5,0,0,1,1.85.61,2.76,2.76,0,0,1,1.06.86,2.09,2.09,0,0,1,.34,1.22,2.28,2.28,0,0,1-1,1.92,4,4,0,0,1-2.49.73,4.57,4.57,0,0,1-1.9-.38,3.2,3.2,0,0,1-1.3-1.07,2.53,2.53,0,0,1-.46-1.47h1.53a1.57,1.57,0,0,0,.61,1.22,2.41,2.41,0,0,0,1.52.45,2.52,2.52,0,0,0,1.4-.35A1.09,1.09,0,0,0,445.86,151.66Z"/><path d="M454.6,151.66a1.14,1.14,0,0,0-.47-1,4.52,4.52,0,0,0-1.63-.59,7.51,7.51,0,0,1-1.84-.59,2.61,2.61,0,0,1-1-.83,2,2,0,0,1-.33-1.14,2.3,2.3,0,0,1,.93-1.86,3.62,3.62,0,0,1,2.38-.77,3.77,3.77,0,0,1,2.47.79,2.49,2.49,0,0,1,.95,2h-1.54a1.36,1.36,0,0,0-.54-1.08,2,2,0,0,0-1.34-.46,2.06,2.06,0,0,0-1.31.37,1.15,1.15,0,0,0-.47,1,.92.92,0,0,0,.44.83,5.26,5.26,0,0,0,1.58.54,8.43,8.43,0,0,1,1.86.61,2.72,2.72,0,0,1,1,.86,2.09,2.09,0,0,1,.35,1.22,2.28,2.28,0,0,1-1,1.92,4,4,0,0,1-2.49.73,4.54,4.54,0,0,1-1.9-.38,3.07,3.07,0,0,1-1.3-1.07,2.54,2.54,0,0,1-.47-1.47h1.53a1.61,1.61,0,0,0,.62,1.22,2.39,2.39,0,0,0,1.52.45,2.49,2.49,0,0,0,1.39-.35A1.1,1.1,0,0,0,454.6,151.66Z"/><path d="M467.53,151.66a1.14,1.14,0,0,0-.47-1,4.52,4.52,0,0,0-1.63-.59,7.51,7.51,0,0,1-1.84-.59,2.68,2.68,0,0,1-1-.83,2,2,0,0,1-.33-1.14,2.3,2.3,0,0,1,.93-1.86,3.64,3.64,0,0,1,2.38-.77,3.77,3.77,0,0,1,2.47.79,2.49,2.49,0,0,1,1,2h-1.54a1.38,1.38,0,0,0-.53-1.08,2,2,0,0,0-1.35-.46,2.06,2.06,0,0,0-1.31.37,1.15,1.15,0,0,0-.47,1,.92.92,0,0,0,.44.83,5.26,5.26,0,0,0,1.58.54,8.43,8.43,0,0,1,1.86.61,2.76,2.76,0,0,1,1.06.86,2.09,2.09,0,0,1,.34,1.22,2.28,2.28,0,0,1-1,1.92,4,4,0,0,1-2.49.73,4.54,4.54,0,0,1-1.9-.38,3.13,3.13,0,0,1-1.3-1.07,2.53,2.53,0,0,1-.46-1.47h1.53a1.57,1.57,0,0,0,.61,1.22,2.41,2.41,0,0,0,1.52.45,2.49,2.49,0,0,0,1.39-.35A1.1,1.1,0,0,0,467.53,151.66Z"/><path d="M471.06,142.71a.92.92,0,0,1,.23-.63,1,1,0,0,1,1.35,0,1,1,0,0,1,0,1.25.89.89,0,0,1-.68.24.89.89,0,0,1-.67-.24A.91.91,0,0,1,471.06,142.71ZM472.72,154h-1.53v-8.95h1.53Z"/><path d="M478.17,148.35l2-3.27h1.78L479,149.51l3,4.52h-1.77l-2.07-3.35L476.13,154h-1.78l3-4.52-2.93-4.43h1.77Z"/><path d="M495.32,149.65a5.34,5.34,0,0,1-.94,3.3,3,3,0,0,1-2.53,1.25,3.28,3.28,0,0,1-2.56-1v4.31h-1.53V145.08h1.4l.07,1a3.16,3.16,0,0,1,2.6-1.16,3.07,3.07,0,0,1,2.55,1.22,5.39,5.39,0,0,1,.94,3.38Zm-1.53-.17a3.94,3.94,0,0,0-.65-2.39,2.09,2.09,0,0,0-1.77-.88,2.24,2.24,0,0,0-2.08,1.24v4.27a2.26,2.26,0,0,0,2.1,1.23,2.06,2.06,0,0,0,1.75-.88A4.32,4.32,0,0,0,493.79,149.48Z"/><path d="M501.59,146.45a4.43,4.43,0,0,0-.75,0,2,2,0,0,0-2,1.28V154h-1.53v-8.95h1.49l0,1a2.38,2.38,0,0,1,2.13-1.2,1.5,1.5,0,0,1,.68.12Z"/><path d="M502.43,149.47a5.34,5.34,0,0,1,.51-2.36,4,4,0,0,1,1.44-1.63,4,4,0,0,1,2.11-.57,3.8,3.8,0,0,1,3,1.27,4.89,4.89,0,0,1,1.13,3.37v.1a5.24,5.24,0,0,1-.51,2.35,3.82,3.82,0,0,1-1.43,1.62,4,4,0,0,1-2.13.58,3.77,3.77,0,0,1-2.95-1.27,4.8,4.8,0,0,1-1.13-3.35Zm1.54.18a3.86,3.86,0,0,0,.69,2.4,2.34,2.34,0,0,0,3.7,0,4.17,4.17,0,0,0,.68-2.56,3.84,3.84,0,0,0-.69-2.38,2.24,2.24,0,0,0-1.86-.92,2.19,2.19,0,0,0-1.83.9A4.19,4.19,0,0,0,504,149.65Z"/><path d="M515.32,152l2.22-6.87h1.57L515.9,154h-1.17l-3.24-8.95h1.56Z"/><path d="M520.59,142.71a.91.91,0,0,1,.22-.63,1,1,0,0,1,1.36,0,1,1,0,0,1,0,1.25.9.9,0,0,1-1.58-.62ZM522.24,154h-1.53v-8.95h1.53Z"/><path d="M526.14,145.08l.05,1.12a3.26,3.26,0,0,1,2.68-1.29q2.83,0,2.86,3.21V154H530.2v-5.92a2,2,0,0,0-.44-1.43,1.77,1.77,0,0,0-1.35-.47,2.23,2.23,0,0,0-1.31.4,2.63,2.63,0,0,0-.88,1V154h-1.53v-8.95Z"/><path d="M537.63,153a2.21,2.21,0,0,0,1.43-.5,1.72,1.72,0,0,0,.68-1.24h1.45a2.83,2.83,0,0,1-.53,1.46,3.39,3.39,0,0,1-1.31,1.11,4,4,0,0,1-4.63-.8,4.88,4.88,0,0,1-1.08-3.34v-.26a5.38,5.38,0,0,1,.48-2.32,3.61,3.61,0,0,1,1.38-1.58,3.86,3.86,0,0,1,2.12-.57,3.55,3.55,0,0,1,2.5.91,3.23,3.23,0,0,1,1.07,2.34h-1.45a2.07,2.07,0,0,0-.66-1.43,2,2,0,0,0-1.46-.56,2.15,2.15,0,0,0-1.81.84,4,4,0,0,0-.64,2.43v.29a3.83,3.83,0,0,0,.64,2.38A2.14,2.14,0,0,0,537.63,153Z"/><path d="M546.62,154.2a3.9,3.9,0,0,1-3-1.2,4.44,4.44,0,0,1-1.14-3.2v-.28a5.37,5.37,0,0,1,.51-2.38,4,4,0,0,1,1.42-1.63,3.54,3.54,0,0,1,2-.6,3.38,3.38,0,0,1,2.72,1.15,5,5,0,0,1,1,3.3V150h-6.06a3.17,3.17,0,0,0,.77,2.14,2.43,2.43,0,0,0,1.89.82,2.67,2.67,0,0,0,1.37-.33,3.55,3.55,0,0,0,1-.88l.94.73A3.77,3.77,0,0,1,546.62,154.2Zm-.19-8a2,2,0,0,0-1.55.68,3.28,3.28,0,0,0-.78,1.89h4.48v-.12a2.87,2.87,0,0,0-.63-1.81A1.93,1.93,0,0,0,546.43,146.17Z"/><path d="M557.1,151.66a1.14,1.14,0,0,0-.47-1,4.6,4.6,0,0,0-1.63-.59,7.37,7.37,0,0,1-1.84-.59,2.61,2.61,0,0,1-1-.83,2,2,0,0,1-.33-1.14,2.3,2.3,0,0,1,.93-1.86,3.62,3.62,0,0,1,2.38-.77,3.77,3.77,0,0,1,2.47.79,2.48,2.48,0,0,1,.94,2H557a1.36,1.36,0,0,0-.54-1.08,2,2,0,0,0-1.34-.46,2,2,0,0,0-1.31.37,1.15,1.15,0,0,0-.47,1,.9.9,0,0,0,.44.83,5.26,5.26,0,0,0,1.58.54,8.61,8.61,0,0,1,1.86.61,2.72,2.72,0,0,1,1,.86,2.09,2.09,0,0,1,.35,1.22,2.28,2.28,0,0,1-1,1.92,4,4,0,0,1-2.49.73,4.62,4.62,0,0,1-1.91-.38,3.1,3.1,0,0,1-1.29-1.07,2.54,2.54,0,0,1-.47-1.47H553a1.61,1.61,0,0,0,.62,1.22,2.39,2.39,0,0,0,1.52.45,2.49,2.49,0,0,0,1.39-.35A1.1,1.1,0,0,0,557.1,151.66Z"/><path d="M310.22,163.24v2.17h1.67v1.19h-1.67v5.55a1.24,1.24,0,0,0,.22.81,1,1,0,0,0,.76.27,3.44,3.44,0,0,0,.73-.1v1.23a4.41,4.41,0,0,1-1.17.17,1.92,1.92,0,0,1-1.55-.62,2.64,2.64,0,0,1-.52-1.76V166.6h-1.63v-1.19h1.63v-2.17Z"/><path d="M313.11,169.81a5.35,5.35,0,0,1,.51-2.37,3.8,3.8,0,0,1,3.55-2.19,3.8,3.8,0,0,1,3,1.26,4.9,4.9,0,0,1,1.13,3.37V170a5.36,5.36,0,0,1-.5,2.34,3.78,3.78,0,0,1-1.44,1.62,3.91,3.91,0,0,1-2.13.58,3.74,3.74,0,0,1-2.95-1.27,4.8,4.8,0,0,1-1.13-3.35Zm1.54.18a3.83,3.83,0,0,0,.69,2.39,2.34,2.34,0,0,0,3.7,0,4.19,4.19,0,0,0,.69-2.56,3.86,3.86,0,0,0-.7-2.39,2.24,2.24,0,0,0-1.86-.92,2.18,2.18,0,0,0-1.83.91A4.17,4.17,0,0,0,314.65,170Z"/><path d="M332.9,174.36a3.22,3.22,0,0,1-.22-.94,3.41,3.41,0,0,1-2.55,1.11,3.16,3.16,0,0,1-2.17-.75,2.44,2.44,0,0,1-.85-1.9,2.54,2.54,0,0,1,1.07-2.17,5,5,0,0,1,3-.77h1.49v-.71a1.7,1.7,0,0,0-.48-1.27,1.92,1.92,0,0,0-1.42-.48,2.27,2.27,0,0,0-1.37.41,1.22,1.22,0,0,0-.55,1H327.3a2.1,2.1,0,0,1,.47-1.29,3.23,3.23,0,0,1,1.29-1,4.4,4.4,0,0,1,1.79-.36,3.53,3.53,0,0,1,2.43.77,2.81,2.81,0,0,1,.91,2.13v4.12a5,5,0,0,0,.31,2v.13Zm-2.54-1.16a2.75,2.75,0,0,0,1.36-.37,2.36,2.36,0,0,0,.94-1V170h-1.2c-1.88,0-2.81.55-2.81,1.65a1.38,1.38,0,0,0,.47,1.12A1.89,1.89,0,0,0,330.36,173.2Z"/><path d="M341.8,172a1.12,1.12,0,0,0-.47-1,4.49,4.49,0,0,0-1.63-.6,7.51,7.51,0,0,1-1.84-.59,2.6,2.6,0,0,1-1-.83,2,2,0,0,1-.33-1.14,2.33,2.33,0,0,1,.93-1.86,3.63,3.63,0,0,1,2.38-.76,3.77,3.77,0,0,1,2.47.78,2.52,2.52,0,0,1,.95,2h-1.54a1.36,1.36,0,0,0-.54-1.08,2,2,0,0,0-1.34-.46,2.12,2.12,0,0,0-1.31.37,1.15,1.15,0,0,0-.47.95.94.94,0,0,0,.44.84,5.63,5.63,0,0,0,1.58.53,7.9,7.9,0,0,1,1.86.62,2.66,2.66,0,0,1,1.06.85,2.19,2.19,0,0,1,.34,1.22,2.31,2.31,0,0,1-1,1.93,4,4,0,0,1-2.49.72,4.54,4.54,0,0,1-1.9-.38,3.11,3.11,0,0,1-1.3-1.06,2.6,2.6,0,0,1-.47-1.48h1.53a1.61,1.61,0,0,0,.62,1.22,2.39,2.39,0,0,0,1.52.45,2.49,2.49,0,0,0,1.39-.35A1.1,1.1,0,0,0,341.8,172Z"/><path d="M350.54,172a1.12,1.12,0,0,0-.47-1,4.57,4.57,0,0,0-1.63-.6,7.61,7.61,0,0,1-1.85-.59,2.67,2.67,0,0,1-1-.83,2,2,0,0,1-.32-1.14,2.33,2.33,0,0,1,.93-1.86,3.61,3.61,0,0,1,2.38-.76A3.77,3.77,0,0,1,351,166a2.51,2.51,0,0,1,.94,2h-1.53a1.36,1.36,0,0,0-.54-1.08,2,2,0,0,0-1.34-.46,2.1,2.1,0,0,0-1.31.37,1.15,1.15,0,0,0-.47.95.92.92,0,0,0,.44.84,5.63,5.63,0,0,0,1.58.53,8.23,8.23,0,0,1,1.86.62,2.69,2.69,0,0,1,1.05.85,2.11,2.11,0,0,1,.35,1.22,2.31,2.31,0,0,1-1,1.93,4,4,0,0,1-2.49.72,4.62,4.62,0,0,1-1.91-.38,3.08,3.08,0,0,1-1.29-1.06,2.6,2.6,0,0,1-.47-1.48h1.53a1.61,1.61,0,0,0,.62,1.22,2.39,2.39,0,0,0,1.52.45,2.49,2.49,0,0,0,1.39-.35A1.1,1.1,0,0,0,350.54,172Z"/><path d="M354.07,163a.88.88,0,0,1,.23-.63.84.84,0,0,1,.67-.26.88.88,0,0,1,.68.26.92.92,0,0,1,.23.63.9.9,0,0,1-.23.62.91.91,0,0,1-.68.25.87.87,0,0,1-.67-.25A.85.85,0,0,1,354.07,163Zm1.65,11.32h-1.53v-9h1.53Z"/><path d="M363.38,172a1.11,1.11,0,0,0-.46-1,4.57,4.57,0,0,0-1.63-.6,7.61,7.61,0,0,1-1.85-.59,2.67,2.67,0,0,1-1-.83,2,2,0,0,1-.32-1.14A2.33,2.33,0,0,1,359,166a3.61,3.61,0,0,1,2.38-.76,3.79,3.79,0,0,1,2.47.78,2.51,2.51,0,0,1,.94,2h-1.54a1.35,1.35,0,0,0-.53-1.08,2,2,0,0,0-1.34-.46,2.1,2.1,0,0,0-1.31.37,1.13,1.13,0,0,0-.47.95.92.92,0,0,0,.44.84,5.63,5.63,0,0,0,1.58.53,8.23,8.23,0,0,1,1.86.62,2.69,2.69,0,0,1,1.05.85,2.11,2.11,0,0,1,.35,1.22,2.31,2.31,0,0,1-1,1.93,4,4,0,0,1-2.49.72,4.58,4.58,0,0,1-1.91-.38,3.08,3.08,0,0,1-1.29-1.06,2.6,2.6,0,0,1-.47-1.48h1.53a1.58,1.58,0,0,0,.62,1.22,2.39,2.39,0,0,0,1.52.45,2.51,2.51,0,0,0,1.39-.35A1.09,1.09,0,0,0,363.38,172Z"/><path d="M369,163.24v2.17h1.67v1.19H369v5.55a1.24,1.24,0,0,0,.22.81.94.94,0,0,0,.76.27,3.44,3.44,0,0,0,.73-.1v1.23a4.49,4.49,0,0,1-1.18.17,1.9,1.9,0,0,1-1.54-.62,2.64,2.64,0,0,1-.53-1.76V166.6h-1.63v-1.19h1.63v-2.17Z"/><path d="M381.85,172a1.1,1.1,0,0,0-.47-1,4.49,4.49,0,0,0-1.63-.6,7.51,7.51,0,0,1-1.84-.59,2.6,2.6,0,0,1-1-.83,2,2,0,0,1-.33-1.14,2.33,2.33,0,0,1,.93-1.86,3.63,3.63,0,0,1,2.38-.76,3.75,3.75,0,0,1,2.47.78,2.52,2.52,0,0,1,.95,2h-1.54a1.38,1.38,0,0,0-.53-1.08,2,2,0,0,0-1.35-.46,2.12,2.12,0,0,0-1.31.37,1.15,1.15,0,0,0-.47.95.94.94,0,0,0,.44.84,5.6,5.6,0,0,0,1.59.53,8,8,0,0,1,1.85.62,2.66,2.66,0,0,1,1.06.85,2.11,2.11,0,0,1,.34,1.22,2.31,2.31,0,0,1-1,1.93,4,4,0,0,1-2.49.72,4.54,4.54,0,0,1-1.9-.38,3.18,3.18,0,0,1-1.3-1.06,2.59,2.59,0,0,1-.46-1.48h1.53a1.57,1.57,0,0,0,.61,1.22,2.41,2.41,0,0,0,1.52.45,2.46,2.46,0,0,0,1.39-.35A1.07,1.07,0,0,0,381.85,172Z"/><path d="M386.81,165.41l.05,1a3.29,3.29,0,0,1,2.65-1.15,2.56,2.56,0,0,1,2.56,1.44,3.28,3.28,0,0,1,2.85-1.44c2,0,3,1,3,3.12v6h-1.53v-5.9A2.08,2.08,0,0,0,396,167a1.92,1.92,0,0,0-1.47-.47,2,2,0,0,0-2.07,1.87v5.94h-1.54V168.5a1.71,1.71,0,0,0-1.91-1.95,2,2,0,0,0-2.06,1.28v6.53h-1.53v-9Z"/><path d="M405.75,174.36a3,3,0,0,1-.21-.94,3.43,3.43,0,0,1-2.55,1.11,3.15,3.15,0,0,1-2.17-.75,2.41,2.41,0,0,1-.85-1.9,2.53,2.53,0,0,1,1.06-2.17,5,5,0,0,1,3-.77h1.49v-.71A1.7,1.7,0,0,0,405,167a1.91,1.91,0,0,0-1.41-.48,2.28,2.28,0,0,0-1.38.41,1.22,1.22,0,0,0-.55,1h-1.54a2.11,2.11,0,0,1,.48-1.29,3.1,3.1,0,0,1,1.29-1,4.37,4.37,0,0,1,1.79-.36,3.5,3.5,0,0,1,2.42.77,2.78,2.78,0,0,1,.91,2.13v4.12a5,5,0,0,0,.32,2v.13Zm-2.54-1.16a2.79,2.79,0,0,0,1.37-.37,2.28,2.28,0,0,0,.93-1V170h-1.2c-1.87,0-2.81.55-2.81,1.65a1.38,1.38,0,0,0,.48,1.12A1.84,1.84,0,0,0,403.21,173.2Z"/><path d="M411.11,174.36h-1.54v-12.7h1.54Z"/><path d="M415.22,174.36h-1.53v-12.7h1.53Z"/><path d="M419.2,166.5a3.22,3.22,0,0,1,2.64-1.25c1.9,0,2.85,1.06,2.87,3.2v5.91h-1.53v-5.92a2.07,2.07,0,0,0-.45-1.43,1.77,1.77,0,0,0-1.35-.46,2.25,2.25,0,0,0-1.31.39,2.72,2.72,0,0,0-.87,1.05v6.37h-1.53v-12.7h1.53Z"/><path d="M426.59,169.81a5.22,5.22,0,0,1,.52-2.37,3.79,3.79,0,0,1,1.44-1.62,3.92,3.92,0,0,1,2.11-.57,3.78,3.78,0,0,1,2.95,1.26,4.86,4.86,0,0,1,1.13,3.37V170a5.36,5.36,0,0,1-.5,2.34,3.76,3.76,0,0,1-1.43,1.62,3.92,3.92,0,0,1-2.14.58,3.75,3.75,0,0,1-2.95-1.27,4.85,4.85,0,0,1-1.13-3.35Zm1.54.18a3.83,3.83,0,0,0,.69,2.39,2.22,2.22,0,0,0,1.85.9,2.17,2.17,0,0,0,1.85-.91,4.19,4.19,0,0,0,.69-2.56,3.79,3.79,0,0,0-.7-2.39,2.21,2.21,0,0,0-1.85-.92,2.18,2.18,0,0,0-1.83.91A4.11,4.11,0,0,0,428.13,170Z"/><path d="M438.32,174.36h-1.53v-12.7h1.53Z"/><path d="M440.4,169.81a5.25,5.25,0,0,1,1-3.31,3.06,3.06,0,0,1,2.55-1.25,3.12,3.12,0,0,1,2.49,1.07v-4.66H448v12.7h-1.4l-.08-1a3.3,3.3,0,0,1-5.09-.14,5.34,5.34,0,0,1-1-3.33Zm1.53.18a4,4,0,0,0,.63,2.38,2,2,0,0,0,1.74.86,2.22,2.22,0,0,0,2.12-1.31v-4.11a2.24,2.24,0,0,0-2.11-1.26,2.05,2.05,0,0,0-1.75.86A4.38,4.38,0,0,0,441.93,170Z"/><path d="M454,174.53a3.9,3.9,0,0,1-3-1.2,4.42,4.42,0,0,1-1.14-3.19v-.29a5.32,5.32,0,0,1,.51-2.37,3.93,3.93,0,0,1,1.42-1.64,3.53,3.53,0,0,1,2-.59,3.35,3.35,0,0,1,2.72,1.15,5,5,0,0,1,1,3.29v.64h-6.06a3.21,3.21,0,0,0,.77,2.14,2.47,2.47,0,0,0,1.89.81,2.67,2.67,0,0,0,1.37-.33,3.4,3.4,0,0,0,1-.88l.94.73A3.77,3.77,0,0,1,454,174.53Zm-.19-8a2,2,0,0,0-1.55.68,3.28,3.28,0,0,0-.78,1.89H456V169a2.9,2.9,0,0,0-.62-1.8A1.94,1.94,0,0,0,453.85,166.5Z"/><path d="M463.63,166.79a4.38,4.38,0,0,0-.75-.06,2,2,0,0,0-2,1.28v6.35h-1.53v-9h1.48l0,1a2.38,2.38,0,0,1,2.13-1.2,1.68,1.68,0,0,1,.68.11Z"/><path d="M470,174.36V166.6h-1.42v-1.19H470v-.92a3,3,0,0,1,.77-2.22,2.86,2.86,0,0,1,2.17-.79,4.21,4.21,0,0,1,1.05.14l-.08,1.24a4.41,4.41,0,0,0-.83-.08,1.51,1.51,0,0,0-1.15.44,1.76,1.76,0,0,0-.4,1.25v.94h1.91v1.19h-1.91v7.76Z"/><path d="M480.64,174.36a3,3,0,0,1-.21-.94,3.41,3.41,0,0,1-2.55,1.11,3.15,3.15,0,0,1-2.17-.75,2.41,2.41,0,0,1-.85-1.9,2.53,2.53,0,0,1,1.06-2.17,5,5,0,0,1,3-.77h1.49v-.71a1.7,1.7,0,0,0-.48-1.27,1.91,1.91,0,0,0-1.41-.48,2.28,2.28,0,0,0-1.38.41,1.24,1.24,0,0,0-.55,1H475a2.11,2.11,0,0,1,.48-1.29,3.1,3.1,0,0,1,1.29-1,4.37,4.37,0,0,1,1.79-.36A3.5,3.5,0,0,1,481,166a2.78,2.78,0,0,1,.91,2.13v4.12a5,5,0,0,0,.32,2v.13Zm-2.54-1.16a2.79,2.79,0,0,0,1.37-.37,2.28,2.28,0,0,0,.93-1V170h-1.2c-1.87,0-2.81.55-2.81,1.65a1.38,1.38,0,0,0,.48,1.12A1.84,1.84,0,0,0,478.1,173.2Z"/><path d="M488.66,166.79a4.38,4.38,0,0,0-.75-.06,2,2,0,0,0-2.05,1.28v6.35h-1.53v-9h1.49l0,1a2.38,2.38,0,0,1,2.13-1.2,1.68,1.68,0,0,1,.68.11Z"/><path d="M491.51,165.41l0,1a3.29,3.29,0,0,1,2.65-1.15,2.56,2.56,0,0,1,2.56,1.44,3.55,3.55,0,0,1,1.16-1.05,3.49,3.49,0,0,1,1.69-.39q3,0,3,3.12v6h-1.53v-5.9a2.08,2.08,0,0,0-.44-1.44,1.91,1.91,0,0,0-1.47-.47,2,2,0,0,0-2.07,1.87v5.94h-1.54V168.5a1.71,1.71,0,0,0-1.91-1.95,2,2,0,0,0-2.06,1.28v6.53h-1.53v-9Z"/><path d="M508.63,174.53a3.9,3.9,0,0,1-3-1.2,4.42,4.42,0,0,1-1.14-3.19v-.29a5.32,5.32,0,0,1,.51-2.37,3.93,3.93,0,0,1,1.42-1.64,3.53,3.53,0,0,1,2-.59,3.35,3.35,0,0,1,2.72,1.15,5,5,0,0,1,1,3.29v.64h-6.06a3.21,3.21,0,0,0,.77,2.14,2.44,2.44,0,0,0,1.88.81,2.71,2.71,0,0,0,1.38-.33,3.4,3.4,0,0,0,1-.88l.94.73A3.77,3.77,0,0,1,508.63,174.53Zm-.19-8a2,2,0,0,0-1.55.68,3.28,3.28,0,0,0-.78,1.89h4.48V169a2.84,2.84,0,0,0-.63-1.8A1.91,1.91,0,0,0,508.44,166.5Z"/><path d="M518.22,166.79a4.38,4.38,0,0,0-.75-.06,2,2,0,0,0-2.05,1.28v6.35h-1.53v-9h1.49l0,1a2.38,2.38,0,0,1,2.13-1.2,1.68,1.68,0,0,1,.68.11Z"/><path d="M524.84,172a1.12,1.12,0,0,0-.47-1,4.49,4.49,0,0,0-1.63-.6,7.51,7.51,0,0,1-1.84-.59,2.6,2.6,0,0,1-1-.83,2,2,0,0,1-.33-1.14,2.33,2.33,0,0,1,.93-1.86,3.63,3.63,0,0,1,2.38-.76,3.77,3.77,0,0,1,2.47.78,2.52,2.52,0,0,1,.95,2h-1.54a1.36,1.36,0,0,0-.54-1.08,2,2,0,0,0-1.34-.46,2.12,2.12,0,0,0-1.31.37,1.15,1.15,0,0,0-.47.95.94.94,0,0,0,.44.84,5.63,5.63,0,0,0,1.58.53,7.9,7.9,0,0,1,1.86.62,2.66,2.66,0,0,1,1.06.85,2.19,2.19,0,0,1,.34,1.22,2.31,2.31,0,0,1-1,1.93,4,4,0,0,1-2.49.72,4.54,4.54,0,0,1-1.9-.38,3.11,3.11,0,0,1-1.3-1.06,2.6,2.6,0,0,1-.47-1.48h1.53a1.61,1.61,0,0,0,.62,1.22,2.39,2.39,0,0,0,1.52.45,2.49,2.49,0,0,0,1.39-.35A1.1,1.1,0,0,0,524.84,172Z"/><path d="M317.31,192.59l1.72-6.85h1.54l-2.61,9h-1.24l-2.18-6.79-2.12,6.79h-1.24l-2.59-9h1.52l1.76,6.71,2.09-6.71h1.23Z"/><path d="M323.65,186.83a3.27,3.27,0,0,1,2.65-1.25c1.89,0,2.85,1.07,2.86,3.2v5.92h-1.53v-5.93a2,2,0,0,0-.44-1.43,1.77,1.77,0,0,0-1.35-.46,2.17,2.17,0,0,0-1.31.4,2.63,2.63,0,0,0-.88,1v6.38h-1.53V182h1.53Z"/><path d="M331.05,190.14a5.22,5.22,0,0,1,.52-2.37,3.79,3.79,0,0,1,1.44-1.62,3.89,3.89,0,0,1,2.1-.57,3.76,3.76,0,0,1,3,1.27,4.86,4.86,0,0,1,1.13,3.36v.11a5.43,5.43,0,0,1-.5,2.35,3.8,3.8,0,0,1-1.43,1.61,4,4,0,0,1-2.14.58,3.76,3.76,0,0,1-2.95-1.26,4.82,4.82,0,0,1-1.13-3.35Zm1.54.18a3.83,3.83,0,0,0,.69,2.39,2.22,2.22,0,0,0,1.85.9,2.19,2.19,0,0,0,1.85-.91,4.17,4.17,0,0,0,.69-2.56,3.88,3.88,0,0,0-.7-2.39,2.33,2.33,0,0,0-3.69,0A4.17,4.17,0,0,0,332.59,190.32Z"/><path d="M352.87,190.32a5.37,5.37,0,0,1-.93,3.29,3,3,0,0,1-2.53,1.25,3.29,3.29,0,0,1-2.57-1v4.31h-1.53v-12.4h1.4l.07,1a3.17,3.17,0,0,1,2.6-1.16,3,3,0,0,1,2.55,1.22,5.37,5.37,0,0,1,.94,3.38Zm-1.53-.17a3.94,3.94,0,0,0-.64-2.39,2.07,2.07,0,0,0-1.77-.88,2.26,2.26,0,0,0-2.09,1.23v4.28a2.26,2.26,0,0,0,2.1,1.22,2.06,2.06,0,0,0,1.75-.87A4.27,4.27,0,0,0,351.34,190.15Z"/><path d="M359.14,187.12a4.38,4.38,0,0,0-.75-.06,2,2,0,0,0-2,1.28v6.36h-1.53v-9h1.49l0,1a2.38,2.38,0,0,1,2.14-1.2,1.49,1.49,0,0,1,.67.12Z"/><path d="M360,190.14a5.22,5.22,0,0,1,.52-2.37,3.79,3.79,0,0,1,1.44-1.62,3.89,3.89,0,0,1,2.1-.57,3.76,3.76,0,0,1,3,1.27,4.86,4.86,0,0,1,1.13,3.36v.11a5.43,5.43,0,0,1-.5,2.35,3.8,3.8,0,0,1-1.43,1.61,4,4,0,0,1-2.14.58,3.78,3.78,0,0,1-2.95-1.26,4.87,4.87,0,0,1-1.13-3.35Zm1.54.18a3.83,3.83,0,0,0,.69,2.39,2.22,2.22,0,0,0,1.85.9,2.19,2.19,0,0,0,1.85-.91,4.17,4.17,0,0,0,.69-2.56,3.81,3.81,0,0,0-.7-2.39,2.33,2.33,0,0,0-3.69,0A4.17,4.17,0,0,0,361.52,190.32Z"/><path d="M369.68,190.15a5.26,5.26,0,0,1,1-3.32,3.33,3.33,0,0,1,5.05-.18V182h1.53V194.7h-1.41l-.07-1a3.12,3.12,0,0,1-2.56,1.12,3,3,0,0,1-2.53-1.27,5.27,5.27,0,0,1-1-3.33Zm1.53.17a4,4,0,0,0,.63,2.38,2,2,0,0,0,1.73.86,2.24,2.24,0,0,0,2.13-1.3v-4.12a2.25,2.25,0,0,0-2.11-1.26,2,2,0,0,0-1.75.87A4.35,4.35,0,0,0,371.21,190.32Z"/><path d="M385.13,193.81a3.26,3.26,0,0,1-2.62,1.05,2.76,2.76,0,0,1-2.18-.83,3.6,3.6,0,0,1-.76-2.46v-5.83h1.53v5.79c0,1.35.55,2,1.66,2a2.29,2.29,0,0,0,2.33-1.3v-6.52h1.53v9h-1.46Z"/><path d="M392.54,193.61a2.22,2.22,0,0,0,1.43-.49,1.81,1.81,0,0,0,.68-1.24h1.44a2.66,2.66,0,0,1-.53,1.46,3.53,3.53,0,0,1-1.3,1.11,3.82,3.82,0,0,1-1.72.41,3.67,3.67,0,0,1-2.91-1.22,4.84,4.84,0,0,1-1.08-3.34v-.25a5.42,5.42,0,0,1,.48-2.33,3.67,3.67,0,0,1,1.38-1.58,3.92,3.92,0,0,1,2.12-.56,3.59,3.59,0,0,1,2.5.9,3.18,3.18,0,0,1,1.06,2.34h-1.44a2.13,2.13,0,0,0-.66-1.42,2,2,0,0,0-1.46-.56,2.15,2.15,0,0,0-1.81.84,3.92,3.92,0,0,0-.64,2.42v.29a3.84,3.84,0,0,0,.64,2.39A2.16,2.16,0,0,0,392.54,193.61Z"/><path d="M401.53,194.86a3.93,3.93,0,0,1-3-1.19,4.46,4.46,0,0,1-1.14-3.2v-.28a5.51,5.51,0,0,1,.5-2.38,4,4,0,0,1,1.43-1.64,3.61,3.61,0,0,1,2-.59,3.33,3.33,0,0,1,2.71,1.15,5,5,0,0,1,1,3.29v.64H399a3.21,3.21,0,0,0,.77,2.14,2.43,2.43,0,0,0,1.88.81,2.71,2.71,0,0,0,1.38-.33,3.4,3.4,0,0,0,1-.88l.94.73A3.76,3.76,0,0,1,401.53,194.86Zm-.19-8a2,2,0,0,0-1.56.67,3.27,3.27,0,0,0-.77,1.89h4.48v-.11a2.87,2.87,0,0,0-.63-1.81A1.9,1.9,0,0,0,401.34,186.84Z"/><path d="M418.55,190.32a5.31,5.31,0,0,1-.94,3.29,3,3,0,0,1-2.53,1.25,3.26,3.26,0,0,1-2.56-1v4.31H411v-12.4h1.39l.08,1a3.16,3.16,0,0,1,2.6-1.16,3,3,0,0,1,2.55,1.22,5.43,5.43,0,0,1,.94,3.38Zm-1.53-.17a3.94,3.94,0,0,0-.65-2.39,2.07,2.07,0,0,0-1.77-.88,2.24,2.24,0,0,0-2.08,1.23v4.28a2.24,2.24,0,0,0,2.1,1.22,2.08,2.08,0,0,0,1.75-.87A4.34,4.34,0,0,0,417,190.15Z"/><path d="M424.21,194.86a3.94,3.94,0,0,1-3-1.19,4.46,4.46,0,0,1-1.14-3.2v-.28a5.37,5.37,0,0,1,.51-2.38,4,4,0,0,1,1.42-1.64,3.62,3.62,0,0,1,2-.59,3.35,3.35,0,0,1,2.71,1.15,5,5,0,0,1,1,3.29v.64h-6.07a3.22,3.22,0,0,0,.78,2.14,2.43,2.43,0,0,0,1.88.81,2.65,2.65,0,0,0,1.37-.33,3.31,3.31,0,0,0,1-.88l.93.73A3.74,3.74,0,0,1,424.21,194.86Zm-.19-8a2,2,0,0,0-1.56.67,3.28,3.28,0,0,0-.78,1.89h4.49v-.11a3,3,0,0,0-.63-1.81A1.91,1.91,0,0,0,424,186.84Z"/><path d="M435,194.7a3.39,3.39,0,0,1-.21-.95,3.41,3.41,0,0,1-2.55,1.11,3.15,3.15,0,0,1-2.17-.75,2.41,2.41,0,0,1-.85-1.9,2.55,2.55,0,0,1,1.06-2.17,5.08,5.08,0,0,1,3-.77h1.48v-.7a1.72,1.72,0,0,0-.48-1.28,1.91,1.91,0,0,0-1.41-.48,2.19,2.19,0,0,0-1.37.42,1.22,1.22,0,0,0-.56,1h-1.54a2.12,2.12,0,0,1,.48-1.3,3.42,3.42,0,0,1,1.29-1,4.37,4.37,0,0,1,1.79-.36,3.55,3.55,0,0,1,2.42.77,2.78,2.78,0,0,1,.91,2.13v4.12a5,5,0,0,0,.32,2v.14Zm-2.54-1.17a2.69,2.69,0,0,0,1.37-.37,2.22,2.22,0,0,0,.93-1v-1.84h-1.2c-1.87,0-2.81.55-2.81,1.65a1.38,1.38,0,0,0,.48,1.12A1.79,1.79,0,0,0,432.45,193.53Z"/><path d="M440.76,183.58v2.16h1.67v1.19h-1.67v5.56a1.27,1.27,0,0,0,.22.8,1,1,0,0,0,.77.27,3.44,3.44,0,0,0,.72-.1v1.24a4.39,4.39,0,0,1-1.17.16,1.9,1.9,0,0,1-1.55-.62,2.64,2.64,0,0,1-.52-1.76v-5.55H437.6v-1.19h1.63v-2.16Z"/><path d="M445.88,194.7h-1.53V182h1.53Z"/><path d="M453.86,194.7a3.31,3.31,0,0,1-.22-.95,3.41,3.41,0,0,1-2.55,1.11,3.16,3.16,0,0,1-2.17-.75,2.44,2.44,0,0,1-.85-1.9,2.54,2.54,0,0,1,1.07-2.17,5,5,0,0,1,3-.77h1.49v-.7a1.72,1.72,0,0,0-.48-1.28,1.92,1.92,0,0,0-1.42-.48,2.21,2.21,0,0,0-1.37.42,1.21,1.21,0,0,0-.55,1h-1.54a2.1,2.1,0,0,1,.47-1.3,3.42,3.42,0,0,1,1.29-1,4.4,4.4,0,0,1,1.79-.36,3.58,3.58,0,0,1,2.43.77,2.81,2.81,0,0,1,.91,2.13v4.12a5,5,0,0,0,.31,2v.14Zm-2.54-1.17a2.65,2.65,0,0,0,1.36-.37,2.3,2.3,0,0,0,.94-1v-1.84h-1.2c-1.88,0-2.81.55-2.81,1.65a1.38,1.38,0,0,0,.47,1.12A1.84,1.84,0,0,0,451.32,193.53Z"/><path d="M459,185.74l0,1.13a3.28,3.28,0,0,1,2.69-1.29q2.83,0,2.86,3.2v5.92h-1.53v-5.93a2.09,2.09,0,0,0-.44-1.43,1.79,1.79,0,0,0-1.36-.46,2.21,2.21,0,0,0-1.31.4,2.69,2.69,0,0,0-.87,1v6.38h-1.53v-9Z"/><path d="M466.52,190.15a5.27,5.27,0,0,1,1-3.32,3.1,3.1,0,0,1,2.56-1.25,3.14,3.14,0,0,1,2.49,1.07V182h1.53V194.7h-1.41l-.07-1a3.13,3.13,0,0,1-2.56,1.12,3.06,3.06,0,0,1-2.54-1.27,5.34,5.34,0,0,1-1-3.33Zm1.53.17a4,4,0,0,0,.63,2.38,2,2,0,0,0,1.74.86,2.24,2.24,0,0,0,2.13-1.3v-4.12a2.25,2.25,0,0,0-2.11-1.26,2.05,2.05,0,0,0-1.76.87A4.35,4.35,0,0,0,468.05,190.32Z"/><path d="M479.64,190.2h-4V189h4Z"/><path d="M488.7,190.32a5.32,5.32,0,0,1-.94,3.3,3,3,0,0,1-2.53,1.24,3.12,3.12,0,0,1-2.62-1.2l-.08,1h-1.4V182h1.53v4.74a3.09,3.09,0,0,1,2.55-1.15,3,3,0,0,1,2.56,1.23,5.43,5.43,0,0,1,.93,3.38Zm-1.53-.17a4.16,4.16,0,0,0-.6-2.42,2,2,0,0,0-1.74-.85,2.24,2.24,0,0,0-2.17,1.4v3.88a2.32,2.32,0,0,0,2.19,1.4,2,2,0,0,0,1.71-.85A4.38,4.38,0,0,0,487.17,190.15Z"/><path d="M496.16,194.7a3.31,3.31,0,0,1-.22-.95,3.4,3.4,0,0,1-2.54,1.11,3.17,3.17,0,0,1-2.18-.75,2.43,2.43,0,0,1-.84-1.9,2.53,2.53,0,0,1,1.06-2.17,5.06,5.06,0,0,1,3-.77h1.49v-.7a1.72,1.72,0,0,0-.48-1.28,1.91,1.91,0,0,0-1.41-.48,2.22,2.22,0,0,0-1.38.42,1.21,1.21,0,0,0-.55,1h-1.54a2.16,2.16,0,0,1,.47-1.3,3.42,3.42,0,0,1,1.29-1,4.42,4.42,0,0,1,1.8-.36,3.57,3.57,0,0,1,2.42.77,2.81,2.81,0,0,1,.91,2.13v4.12a5,5,0,0,0,.31,2v.14Zm-2.54-1.17a2.65,2.65,0,0,0,1.36-.37,2.25,2.25,0,0,0,.94-1v-1.84h-1.2c-1.88,0-2.81.55-2.81,1.65a1.38,1.38,0,0,0,.48,1.12A1.79,1.79,0,0,0,493.62,193.53Z"/><path d="M505.06,192.32a1.11,1.11,0,0,0-.47-1,4.34,4.34,0,0,0-1.63-.59,7.92,7.92,0,0,1-1.84-.6,2.6,2.6,0,0,1-1-.83,2,2,0,0,1-.33-1.14,2.33,2.33,0,0,1,.93-1.86,3.63,3.63,0,0,1,2.38-.76,3.7,3.7,0,0,1,2.47.79,2.49,2.49,0,0,1,.95,2H505a1.42,1.42,0,0,0-.53-1.09,2,2,0,0,0-1.35-.45,2.14,2.14,0,0,0-1.31.36,1.15,1.15,0,0,0-.47,1,.94.94,0,0,0,.44.84,5.54,5.54,0,0,0,1.59.54,8,8,0,0,1,1.85.61,2.74,2.74,0,0,1,1.06.85,2.11,2.11,0,0,1,.34,1.22,2.3,2.3,0,0,1-1,1.93,4,4,0,0,1-2.49.72,4.42,4.42,0,0,1-1.9-.38,3.18,3.18,0,0,1-1.3-1.06,2.59,2.59,0,0,1-.46-1.48H501a1.57,1.57,0,0,0,.61,1.22,2.41,2.41,0,0,0,1.52.45,2.44,2.44,0,0,0,1.4-.35A1.07,1.07,0,0,0,505.06,192.32Z"/><path d="M512.3,194.86a3.93,3.93,0,0,1-3-1.19,4.46,4.46,0,0,1-1.14-3.2v-.28a5.37,5.37,0,0,1,.51-2.38,3.92,3.92,0,0,1,1.42-1.64,3.61,3.61,0,0,1,2-.59,3.33,3.33,0,0,1,2.71,1.15,5,5,0,0,1,1,3.29v.64h-6.06a3.21,3.21,0,0,0,.77,2.14,2.43,2.43,0,0,0,1.88.81,2.71,2.71,0,0,0,1.38-.33,3.4,3.4,0,0,0,1-.88l.94.73A3.75,3.75,0,0,1,512.3,194.86Zm-.19-8a2,2,0,0,0-1.56.67,3.34,3.34,0,0,0-.77,1.89h4.48v-.11a2.87,2.87,0,0,0-.63-1.81A1.9,1.9,0,0,0,512.11,186.84Z"/><path d="M517.19,190.15a5.27,5.27,0,0,1,1-3.32,3.32,3.32,0,0,1,5-.18V182h1.53V194.7h-1.4l-.08-1a3.1,3.1,0,0,1-2.55,1.12,3.05,3.05,0,0,1-2.54-1.27,5.34,5.34,0,0,1-1-3.33Zm1.53.17a4,4,0,0,0,.63,2.38,2,2,0,0,0,1.74.86,2.21,2.21,0,0,0,2.12-1.3v-4.12a2.24,2.24,0,0,0-2.11-1.26,2,2,0,0,0-1.75.87A4.35,4.35,0,0,0,518.72,190.32Z"/><path d="M346.05,215a3.31,3.31,0,0,1-.22-.94,3.4,3.4,0,0,1-2.55,1.1,3.16,3.16,0,0,1-2.17-.74,2.46,2.46,0,0,1-.85-1.9,2.53,2.53,0,0,1,1.07-2.17,5,5,0,0,1,3-.78h1.49v-.7a1.72,1.72,0,0,0-.48-1.28,1.92,1.92,0,0,0-1.42-.48,2.21,2.21,0,0,0-1.37.42,1.21,1.21,0,0,0-.55,1h-1.54a2.16,2.16,0,0,1,.47-1.3,3.31,3.31,0,0,1,1.29-1,4.25,4.25,0,0,1,1.79-.37,3.53,3.53,0,0,1,2.43.78,2.78,2.78,0,0,1,.91,2.13v4.12a5.06,5.06,0,0,0,.31,2V215Zm-2.54-1.17a2.65,2.65,0,0,0,1.36-.37,2.25,2.25,0,0,0,.94-1v-1.83h-1.2c-1.88,0-2.81.54-2.81,1.64a1.37,1.37,0,0,0,.48,1.13A1.84,1.84,0,0,0,343.51,213.86Z"/><path d="M349.37,210.48a5.28,5.28,0,0,1,1-3.33,3.33,3.33,0,0,1,5.12-.08l.08-1h1.4v8.73a3.66,3.66,0,0,1-1,2.74,3.8,3.8,0,0,1-2.77,1,4.55,4.55,0,0,1-1.9-.41,3.28,3.28,0,0,1-1.41-1.13l.79-.92A3,3,0,0,0,353,217.3a2.36,2.36,0,0,0,1.74-.62,2.39,2.39,0,0,0,.63-1.77v-.77a3.17,3.17,0,0,1-2.51,1.05,3,3,0,0,1-2.54-1.26A5.54,5.54,0,0,1,349.37,210.48Zm1.54.17a4.05,4.05,0,0,0,.62,2.38,2,2,0,0,0,1.74.87,2.24,2.24,0,0,0,2.13-1.32v-4.09a2.27,2.27,0,0,0-2.11-1.28,2,2,0,0,0-1.75.87A4.37,4.37,0,0,0,350.91,210.65Z"/><path d="M363.57,207.45a4.38,4.38,0,0,0-.75-.06,2,2,0,0,0-2.05,1.29V215h-1.53v-8.95h1.49l0,1a2.38,2.38,0,0,1,2.13-1.2,1.5,1.5,0,0,1,.68.12Z"/><path d="M365,203.7a.93.93,0,0,1,.22-.63,1,1,0,0,1,1.36,0,.94.94,0,0,1,.23.63.91.91,0,1,1-1.81,0ZM366.64,215h-1.53v-8.95h1.53Z"/><path d="M372.68,214a2.21,2.21,0,0,0,1.43-.5,1.77,1.77,0,0,0,.68-1.24h1.45a2.83,2.83,0,0,1-.53,1.46,3.39,3.39,0,0,1-1.31,1.11,4,4,0,0,1-4.63-.81,4.83,4.83,0,0,1-1.08-3.33v-.26a5.42,5.42,0,0,1,.48-2.33,3.73,3.73,0,0,1,1.38-1.58,3.94,3.94,0,0,1,2.12-.56,3.59,3.59,0,0,1,2.5.9,3.25,3.25,0,0,1,1.07,2.35h-1.45a2.11,2.11,0,0,0-.66-1.43,2,2,0,0,0-1.46-.56,2.15,2.15,0,0,0-1.81.84,4,4,0,0,0-.64,2.43v.29a3.83,3.83,0,0,0,.64,2.38A2.14,2.14,0,0,0,372.68,214Z"/><path d="M383.48,214.14a3.24,3.24,0,0,1-2.62,1.05,2.77,2.77,0,0,1-2.18-.83,3.6,3.6,0,0,1-.76-2.46v-5.82h1.53v5.78c0,1.36.56,2,1.66,2a2.28,2.28,0,0,0,2.33-1.31v-6.51H385V215h-1.45Z"/><path d="M389,215h-1.53V202.32H389Z"/><path d="M393.49,203.91v2.17h1.67v1.18h-1.67v5.56a1.24,1.24,0,0,0,.22.81.94.94,0,0,0,.76.27,4.25,4.25,0,0,0,.73-.1V215a4.39,4.39,0,0,1-1.17.16,1.89,1.89,0,0,1-1.55-.62,2.64,2.64,0,0,1-.52-1.76v-5.55h-1.63v-1.18H392v-2.17Z"/><path d="M402.47,214.14a3.24,3.24,0,0,1-2.62,1.05,2.77,2.77,0,0,1-2.18-.83,3.6,3.6,0,0,1-.76-2.46v-5.82h1.53v5.78c0,1.36.55,2,1.66,2a2.29,2.29,0,0,0,2.33-1.31v-6.51H404V215H402.5Z"/><path d="M410.61,207.45a4.38,4.38,0,0,0-.75-.06,2,2,0,0,0-2,1.29V215h-1.53v-8.95h1.49l0,1a2.38,2.38,0,0,1,2.13-1.2,1.5,1.5,0,0,1,.68.12Z"/><path d="M417.21,215a3.39,3.39,0,0,1-.21-.94,3.4,3.4,0,0,1-2.55,1.1,3.16,3.16,0,0,1-2.17-.74,2.42,2.42,0,0,1-.85-1.9,2.54,2.54,0,0,1,1.06-2.17,5,5,0,0,1,3-.78H417v-.7a1.69,1.69,0,0,0-.49-1.28,1.9,1.9,0,0,0-1.41-.48,2.19,2.19,0,0,0-1.37.42,1.22,1.22,0,0,0-.56,1h-1.54a2.12,2.12,0,0,1,.48-1.3,3.31,3.31,0,0,1,1.29-1,4.22,4.22,0,0,1,1.79-.37,3.55,3.55,0,0,1,2.43.78,2.82,2.82,0,0,1,.91,2.13v4.12a5.06,5.06,0,0,0,.31,2V215Zm-2.54-1.17a2.66,2.66,0,0,0,1.37-.37,2.3,2.3,0,0,0,.94-1v-1.83h-1.2c-1.88,0-2.82.54-2.82,1.64a1.4,1.4,0,0,0,.48,1.13A1.84,1.84,0,0,0,414.67,213.86Z"/><path d="M422.57,215H421V202.32h1.53Z"/><path d="M436.77,210.65a5.42,5.42,0,0,1-.93,3.3,3,3,0,0,1-2.53,1.24,3.29,3.29,0,0,1-2.57-1v4.31h-1.53V206.08h1.4l.07,1a3.17,3.17,0,0,1,2.6-1.16,3,3,0,0,1,2.55,1.22,5.39,5.39,0,0,1,.94,3.38Zm-1.53-.17a3.94,3.94,0,0,0-.64-2.39,2.07,2.07,0,0,0-1.77-.88,2.26,2.26,0,0,0-2.09,1.23v4.28a2.26,2.26,0,0,0,2.1,1.23,2.07,2.07,0,0,0,1.75-.88A4.25,4.25,0,0,0,435.24,210.48Z"/><path d="M443,207.45a4.38,4.38,0,0,0-.75-.06,2,2,0,0,0-2,1.29V215h-1.53v-8.95h1.49l0,1a2.39,2.39,0,0,1,2.14-1.2,1.49,1.49,0,0,1,.67.12Z"/><path d="M443.88,210.47a5.22,5.22,0,0,1,.52-2.37,3.79,3.79,0,0,1,1.44-1.62,3.89,3.89,0,0,1,2.1-.57,3.76,3.76,0,0,1,3,1.27,4.87,4.87,0,0,1,1.13,3.37v.1a5.4,5.4,0,0,1-.5,2.35,3.82,3.82,0,0,1-1.43,1.62,4,4,0,0,1-2.14.57,3.78,3.78,0,0,1-2.95-1.26,4.87,4.87,0,0,1-1.13-3.35Zm1.54.18a3.81,3.81,0,0,0,.69,2.39A2.22,2.22,0,0,0,448,214a2.2,2.2,0,0,0,1.85-.92,4.17,4.17,0,0,0,.69-2.56,3.81,3.81,0,0,0-.7-2.39,2.33,2.33,0,0,0-3.69,0A4.17,4.17,0,0,0,445.42,210.65Z"/><path d="M453.58,210.48a5.23,5.23,0,0,1,1-3.31,3.32,3.32,0,0,1,5.05-.18v-4.67h1.53V215h-1.41l-.07-1a3.11,3.11,0,0,1-2.56,1.12,3,3,0,0,1-2.53-1.27,5.27,5.27,0,0,1-1-3.33Zm1.53.17a4,4,0,0,0,.63,2.39,2,2,0,0,0,1.73.86,2.25,2.25,0,0,0,2.13-1.31v-4.11a2.24,2.24,0,0,0-2.11-1.27,2,2,0,0,0-1.75.87A4.37,4.37,0,0,0,455.11,210.65Z"/><path d="M469,214.14a3.24,3.24,0,0,1-2.62,1.05,2.76,2.76,0,0,1-2.18-.83,3.6,3.6,0,0,1-.76-2.46v-5.82H465v5.78c0,1.36.55,2,1.66,2a2.29,2.29,0,0,0,2.33-1.31v-6.51h1.53V215h-1.46Z"/><path d="M476.44,214a2.22,2.22,0,0,0,1.43-.5,1.77,1.77,0,0,0,.68-1.24H480a2.66,2.66,0,0,1-.53,1.46,3.36,3.36,0,0,1-1.3,1.11,4,4,0,0,1-4.63-.81,4.83,4.83,0,0,1-1.08-3.33v-.26a5.42,5.42,0,0,1,.48-2.33,3.73,3.73,0,0,1,1.38-1.58,3.92,3.92,0,0,1,2.12-.56,3.59,3.59,0,0,1,2.5.9,3.2,3.2,0,0,1,1.06,2.35h-1.44a2.16,2.16,0,0,0-.66-1.43,2.06,2.06,0,0,0-1.46-.56,2.15,2.15,0,0,0-1.81.84,3.93,3.93,0,0,0-.64,2.43v.29a3.83,3.83,0,0,0,.64,2.38A2.14,2.14,0,0,0,476.44,214Z"/><path d="M483.79,203.91v2.17h1.67v1.18h-1.67v5.56a1.3,1.3,0,0,0,.22.81,1,1,0,0,0,.77.27,4.16,4.16,0,0,0,.72-.1V215a4.39,4.39,0,0,1-1.17.16,1.9,1.9,0,0,1-1.55-.62,2.64,2.64,0,0,1-.52-1.76v-5.55h-1.63v-1.18h1.63v-2.17Z"/><path d="M492.46,212.65a1.11,1.11,0,0,0-.47-1,4.34,4.34,0,0,0-1.63-.59,7.47,7.47,0,0,1-1.84-.6,2.58,2.58,0,0,1-1-.82,2,2,0,0,1-.33-1.15,2.33,2.33,0,0,1,.93-1.86,4.18,4.18,0,0,1,4.85,0,2.49,2.49,0,0,1,1,2h-1.54a1.42,1.42,0,0,0-.53-1.09,2,2,0,0,0-1.35-.45,2.14,2.14,0,0,0-1.31.36,1.17,1.17,0,0,0-.47.95.94.94,0,0,0,.44.84,5.24,5.24,0,0,0,1.59.54,8,8,0,0,1,1.85.61,2.67,2.67,0,0,1,1.06.86,2.09,2.09,0,0,1,.34,1.22,2.28,2.28,0,0,1-1,1.92,4,4,0,0,1-2.49.72,4.39,4.39,0,0,1-1.9-.38,3.1,3.1,0,0,1-1.3-1.06,2.56,2.56,0,0,1-.46-1.48h1.53a1.55,1.55,0,0,0,.61,1.22,2.35,2.35,0,0,0,1.52.46,2.44,2.44,0,0,0,1.4-.36A1.06,1.06,0,0,0,492.46,212.65Z"/><rect class="cls-2" x="45.41" y="44.25" width="161.5" height="161.5" transform="translate(125.71 -52.59) rotate(45.12)"/><g class="cls-3"><path class="cls-4" d="M125.94,227.58,23.57,124.79,126.37,22.42,228.74,125.21ZM26.74,124.79,126,224.41l99.62-99.2L126.36,25.59ZM126,214.55,91.8,180.24,118,154.11,92.71,128.68l-18,18,11.88,11.93,4.93-4.92-7-7,8.17-8.13,15.49,15.55L86.88,175.3,57,145.31l20.5-20.41L57.1,104.4l30-29.87,21.21,21.3L92.75,111.32l-8.14-8.17,7-7-4.91-4.94L74.75,103.13l18,18.05,25.43-25.33L92,69.61l34.31-34.16,34.17,34.31L134.27,95.88l25.33,25.44,18.05-18L165.78,91.42l-4.94,4.92,6.95,7-8.17,8.13L144.13,95.91l21.3-21.21,29.87,30L174.8,125.1l20.41,20.5-30,29.86L144,154.17l15.56-15.49,8.13,8.17-7,7,4.92,4.94,11.92-11.87-18-18.05-25.44,25.33,26.13,26.24Zm-31-34.3,31,31.13,31.13-31L131,154.14l28.61-28.49,21.14,21.22-15.1,15-8.08-8.12,7-6.95-5-5-12.38,12.33,18,18.12L192,145.59l-20.41-20.5,20.5-20.41L165.42,77.87l-18.12,18,12.33,12.38,5-5-7-7,8.11-8.09,15,15.1L159.6,124.49,131.1,95.88l26.24-26.13-31-31.13-31.14,31,26.13,26.24L92.72,124.35,71.58,103.12l15.1-15,8.08,8.11-7,7,5,5,12.38-12.33-18-18.12L60.27,104.41l20.41,20.5-20.5,20.41,26.71,26.81,18.12-18L92.68,141.71l-5,5,7,7-8.11,8.09-15-15.1,21.23-21.14,28.49,28.61Zm105.18-39.57-15.49-15.56,15.56-15.49,15.49,15.56Zm-12.32-15.55,12.33,12.38,12.38-12.33L200.21,112.8ZM52.09,140.37,36.6,124.81l15.56-15.49,15.49,15.56ZM39.77,124.82,52.1,137.2l12.38-12.33L52.15,112.49Z"/><path class="cls-4" d="M126,204l-24-24.07,24.07-24,24,24.07Zm-20.8-24.07L126,200.81,146.89,180l-20.81-20.89Z"/><path class="cls-4" d="M126.22,93.4l-24-24.07,24.07-24,24,24.07Zm-20.8-24.06,20.81,20.89,20.89-20.81L126.31,48.53Z"/></g><path class="cls-4" d="M159.42,148.36c-1.64,0-3.28,0-4.92,0a5.8,5.8,0,0,1-5.86-4.25,14.23,14.23,0,0,1,0-7.13,5.82,5.82,0,0,1,6.31-4.16,5.9,5.9,0,0,1,5.25,5.36c.11,1.35,0,2.71.08,4.06a1.44,1.44,0,1,0,2.88.06c0-1.45,0-2.89-.07-4.33a8.84,8.84,0,0,0-17.37-1.42,22.37,22.37,0,0,0-.3,5,9.22,9.22,0,0,0,2.23,6.74s0,.09,0,.16a10.3,10.3,0,0,0-7.37,4.78,1.88,1.88,0,0,1-.2-.19,10.15,10.15,0,0,0-9.15-4.65c-1.53,0-3.06,0-4.58,0a6,6,0,0,1-6.06-6.16q0-1.74,0-3.48a6,6,0,0,1,11.91,0c0,1.13,0,2.26,0,3.39s.57,1.73,1.44,1.75,1.44-.64,1.45-1.71,0-2.37,0-3.56a8.67,8.67,0,0,0-3.35-6.75c-.32-.26-.67-.5-1-.77a6.86,6.86,0,0,1,3.91-1.3c1.81,0,3.62,0,5.43,0a8.84,8.84,0,0,0,8.86-7.35,26,26,0,0,0,.11-5.51,8.69,8.69,0,0,0-6.72-8.22,1.09,1.09,0,0,1-.93-1,9.92,9.92,0,0,0-5.83-6.82,16,16,0,0,0-2.67-.77c1.91-3,2.23-3.88,2.25-6.36,0-1.21,0-2.43,0-3.64a8.87,8.87,0,0,0-6.39-8.17c-.42-.12-.89-.05-1.25-.34h-2.72c-.52.22-1.1.15-1.64.34a9.06,9.06,0,0,0-5.88,8.35c0,1.25,0,2.49,0,3.74a9,9,0,0,0,1.6,5.27c.43.65.43.66-.33.85a8.12,8.12,0,0,0-3,1.25,1.61,1.61,0,0,0-.63,1.94,1.66,1.66,0,0,0,1.93,1,2.83,2.83,0,0,0,.79-.31,6.65,6.65,0,0,1,3.33-.84c3.53,0,7.07,0,10.6,0a6.78,6.78,0,0,1,6.47,4.25c.28.59.21.9-.48,1.11a9.09,9.09,0,0,0-6.42,9.07c.06,1,0,1.92,0,2.88a8.9,8.9,0,0,0,1.66,5.59c.34.46.27.66-.29.79a9.52,9.52,0,0,0-4.14,2.06,3.28,3.28,0,0,1-2.33.77,9,9,0,0,0-8.81,8.84c0,1.3,0,2.6,0,3.9a8.67,8.67,0,0,0,1.5,5c.52.82.53.8-.38,1.06a10.12,10.12,0,0,0-5.5,3.62c-.52.69-.58.67-1.16,0a9.87,9.87,0,0,0-7.86-3.86,50.62,50.62,0,0,1-6.52-.18,5.64,5.64,0,0,1-4.63-4.29,15.47,15.47,0,0,1,0-6.32,5.37,5.37,0,0,1,3.81-4.09,5.75,5.75,0,0,1,7.49,5.46c0,1.13,0,2.26,0,3.39a1.8,1.8,0,0,0,.3,1.13,1.63,1.63,0,0,0,1.7.69,1.78,1.78,0,0,0,1.32-1.6c.07-1.1,0-2.2,0-3.31a9.08,9.08,0,0,0-3.66-7.56c-.48-.37-.46-.6.07-.82a7,7,0,0,1,2.86-.7c1.84,0,3.67,0,5.51,0a9.24,9.24,0,0,0,9-7.47,25.15,25.15,0,0,0,.15-4.83,9,9,0,0,0-6.68-9.22,1.25,1.25,0,0,1-1-.94,10.06,10.06,0,0,0-7.71-7.42c-.68-.17-.61-.39-.27-.82a8.34,8.34,0,0,0,1.56-3.89,38.13,38.13,0,0,0,.15-4.4c.23-4.24-2.88-9.08-7.87-9.42H97.08a14.93,14.93,0,0,0-2,.35,9,9,0,0,0-5.91,7.53c-.14,1,0,2-.08,3a10.17,10.17,0,0,0,1.55,6.72c.55.82.55.8-.44,1.08A10.2,10.2,0,0,0,85,103.58a9,9,0,0,0-2.16,5.3v10.18c.35,1,.81,1.34,1.71,1.21a1.6,1.6,0,0,0,1.4-1.65c0-.29,0-.57,0-.85,0-2.49,0-5,0-7.46a7.06,7.06,0,0,1,7.17-7.14c3.53,0,7.07,0,10.6,0a6.5,6.5,0,0,1,6,3.7c.69,1.32.69,1.33-.76,1.83a9,9,0,0,0-5.85,8.16c0,.87,0,1.75,0,2.62a9.38,9.38,0,0,0,1.65,6.58c.4.53.24.68-.33.81a9.46,9.46,0,0,0-4.12,2.1,2.85,2.85,0,0,1-2,.71,9,9,0,0,0-9.11,8.09c-.1.75.07,1.47,0,2.19a10.71,10.71,0,0,0,1.9,8,.18.18,0,0,1,0,.21c-4.51,1.23-7.53,3.85-8.26,8.66v10.52c.43.69,1,1.23,1.86,1s1-1,1-1.82q0-3.9,0-7.8a7.2,7.2,0,0,1,7.4-7.48q5.13,0,10.26,0a7.21,7.21,0,0,1,7.45,7.51c0,2.63,0,5.26,0,7.89,0,1.11.58,1.79,1.48,1.77s1.4-.67,1.4-1.76c0-2.63,0-5.26,0-7.89a7.2,7.2,0,0,1,7.52-7.52c3.37,0,6.73,0,10.1,0a7.2,7.2,0,0,1,7.48,7.55c0,2.61,0,5.21,0,7.81,0,1.13.55,1.81,1.44,1.81s1.45-.68,1.45-1.81c0-2.63,0-5.26,0-7.89a7.2,7.2,0,0,1,7.4-7.47q5.13,0,10.26,0a7.2,7.2,0,0,1,7.44,7.51c0,2.63,0,5.26,0,7.89,0,1.09.52,1.74,1.4,1.77s1.48-.66,1.48-1.77q0-4,0-8A10.12,10.12,0,0,0,159.42,148.36ZM132.05,95.45a6,6,0,0,1-11.74-1.23c0-1.32,0-2.65,0-4a6,6,0,0,1,11.9,0c0,.68,0,1.36,0,2.33A13.85,13.85,0,0,1,132.05,95.45Zm2.34,20.48a5.94,5.94,0,0,1,11.74,1c0,.7,0,1.41,0,2.11a14.51,14.51,0,0,1-.17,3.29,6,6,0,0,1-11.73-1.42A23.7,23.7,0,0,1,134.39,115.93ZM104.18,92.47a17.77,17.77,0,0,1-.11,2.63,6,6,0,0,1-11.79-.52,27.77,27.77,0,0,1,0-4.65,5.94,5.94,0,0,1,6.1-5.47,6,6,0,0,1,5.8,5.82C104.2,90.93,104.18,91.58,104.18,92.47Zm2.2,23.21A6,6,0,0,1,118.1,117a23.88,23.88,0,0,1-.14,5.07,5.94,5.94,0,0,1-11.75-.91c0-.71,0-1.42,0-2.12A14.13,14.13,0,0,1,106.38,115.68Z"/><path class="cls-4" d="M146,103.57a6.77,6.77,0,0,1,3-.63c3.44,0,6.89,0,10.34,0a7.23,7.23,0,0,1,7.55,7.57c0,2.66,0,5.32,0,8a1.45,1.45,0,1,0,2.88,0c0-2.86,0-5.71,0-8.57a10.12,10.12,0,0,0-7.52-9.53c-.41-.11-.89,0-1.26-.35a9.26,9.26,0,0,0,2.29-6.26c0-1-.08-2,0-3a8.91,8.91,0,0,0-6.44-8.9,3.78,3.78,0,0,1-1.28-.33H152.9c-.06.24-.27.15-.42.19-3.56.91-6,3.09-6.76,6.69a19.63,19.63,0,0,0,0,7.75,8.68,8.68,0,0,0,2,3.87,13,13,0,0,0-2.93.84c-1,.45-1.36,1.19-1,2A1.49,1.49,0,0,0,146,103.57Zm2.51-14.22a5.94,5.94,0,0,1,11.77.5c.07.81,0,1.63,0,2.45a11.28,11.28,0,0,1-.17,3.28,6,6,0,0,1-11.71-1.16A23.24,23.24,0,0,1,148.46,89.35Z"/></svg>