<?xml version="1.0" encoding="utf-8"?>
<!-- Generator: Adobe Illustrator 24.1.0, SVG Export Plug-In . SVG Version: 6.00 Build 0)  -->
<svg version="1.1" id="Layer_1" xmlns="http://www.w3.org/2000/svg" xmlns:xlink="http://www.w3.org/1999/xlink" x="0px" y="0px"
	 viewBox="0 0 504 277.7" style="enable-background:new 0 0 504 277.7;" xml:space="preserve">
<style type="text/css">
	.st0{fill:#FFFFFF;}
	.st1{enable-background:new    ;}
	.st2{opacity:0.2;}
	.st3{fill:#017DB9;}
	.st4{fill:#ED4328;}
	.st5{fill:#41AC49;}
</style>
<rect class="st0" width="504" height="277.7"/>
<g class="st1">
	<path d="M95.9,28.7H98v4c-0.5,0.4-1.1,0.7-1.8,0.9c-0.7,0.2-1.4,0.3-2.1,0.3c-1,0-1.9-0.2-2.7-0.7c-0.8-0.4-1.4-1-1.9-1.8
		c-0.5-0.8-0.7-1.6-0.7-2.6c0-1,0.2-1.8,0.7-2.6c0.5-0.8,1.1-1.4,1.9-1.8c0.8-0.4,1.7-0.7,2.8-0.7c0.9,0,1.6,0.1,2.3,0.4
		c0.7,0.3,1.3,0.7,1.8,1.3l-1.5,1.3c-0.7-0.7-1.5-1.1-2.5-1.1c-0.6,0-1.2,0.1-1.7,0.4c-0.5,0.3-0.9,0.6-1.1,1.1
		c-0.3,0.5-0.4,1-0.4,1.6c0,0.6,0.1,1.1,0.4,1.6c0.3,0.5,0.6,0.8,1.1,1.1c0.5,0.3,1,0.4,1.6,0.4c0.7,0,1.2-0.1,1.8-0.4V28.7z"/>
</g>
<g class="st1">
	<path d="M103.1,26.4c0.4-0.2,1-0.3,1.5-0.3v2c-0.2,0-0.4,0-0.5,0c-0.6,0-1.1,0.2-1.5,0.5c-0.4,0.3-0.5,0.9-0.5,1.6v3.6h-2.2v-7.5
		h2.1v1C102.3,26.8,102.6,26.6,103.1,26.4z"/>
</g>
<g class="st1">
	<path d="M107.3,33.3c-0.6-0.3-1.1-0.8-1.5-1.4c-0.4-0.6-0.5-1.3-0.5-2c0-0.7,0.2-1.4,0.5-2c0.4-0.6,0.8-1,1.5-1.4
		c0.6-0.3,1.3-0.5,2.1-0.5c0.8,0,1.5,0.2,2.1,0.5c0.6,0.3,1.1,0.8,1.5,1.4c0.4,0.6,0.5,1.3,0.5,2c0,0.7-0.2,1.4-0.5,2
		c-0.4,0.6-0.8,1-1.5,1.4c-0.6,0.3-1.3,0.5-2.1,0.5C108.6,33.8,107.9,33.7,107.3,33.3z M110.8,31.5c0.4-0.4,0.5-0.9,0.5-1.5
		s-0.2-1.1-0.5-1.5c-0.4-0.4-0.8-0.6-1.4-0.6c-0.6,0-1,0.2-1.4,0.6c-0.4,0.4-0.5,0.9-0.5,1.5s0.2,1.1,0.5,1.5
		c0.4,0.4,0.8,0.6,1.4,0.6C110,32.1,110.4,31.9,110.8,31.5z"/>
	<path d="M115.7,33.6c-0.6-0.2-1.1-0.3-1.4-0.6l0.7-1.6c0.3,0.2,0.7,0.4,1.2,0.5c0.5,0.1,0.9,0.2,1.4,0.2c0.9,0,1.4-0.2,1.4-0.7
		c0-0.2-0.1-0.4-0.4-0.5c-0.3-0.1-0.6-0.2-1.2-0.2c-0.6-0.1-1.1-0.2-1.5-0.3s-0.7-0.3-1-0.6c-0.3-0.3-0.4-0.7-0.4-1.3
		c0-0.5,0.1-0.9,0.4-1.3c0.3-0.4,0.7-0.7,1.2-0.9c0.5-0.2,1.1-0.3,1.9-0.3c0.5,0,1.1,0.1,1.6,0.2c0.5,0.1,1,0.3,1.3,0.5l-0.7,1.6
		c-0.7-0.4-1.4-0.6-2.2-0.6c-0.5,0-0.8,0.1-1.1,0.2s-0.4,0.3-0.4,0.5c0,0.2,0.1,0.4,0.4,0.5c0.3,0.1,0.7,0.2,1.2,0.3
		c0.6,0.1,1.1,0.2,1.5,0.3c0.4,0.1,0.7,0.3,1,0.6c0.3,0.3,0.4,0.7,0.4,1.3c0,0.5-0.1,0.9-0.4,1.2c-0.3,0.4-0.7,0.6-1.2,0.8
		c-0.5,0.2-1.2,0.3-1.9,0.3C116.9,33.8,116.3,33.8,115.7,33.6z"/>
	<path d="M123.1,33.6c-0.6-0.2-1.1-0.3-1.4-0.6l0.7-1.6c0.3,0.2,0.7,0.4,1.2,0.5c0.5,0.1,0.9,0.2,1.4,0.2c0.9,0,1.4-0.2,1.4-0.7
		c0-0.2-0.1-0.4-0.4-0.5c-0.3-0.1-0.6-0.2-1.2-0.2c-0.6-0.1-1.1-0.2-1.5-0.3s-0.7-0.3-1-0.6c-0.3-0.3-0.4-0.7-0.4-1.3
		c0-0.5,0.1-0.9,0.4-1.3c0.3-0.4,0.7-0.7,1.2-0.9c0.5-0.2,1.1-0.3,1.9-0.3c0.5,0,1.1,0.1,1.6,0.2c0.5,0.1,1,0.3,1.3,0.5l-0.7,1.6
		c-0.7-0.4-1.4-0.6-2.2-0.6c-0.5,0-0.8,0.1-1.1,0.2s-0.4,0.3-0.4,0.5c0,0.2,0.1,0.4,0.4,0.5c0.3,0.1,0.7,0.2,1.2,0.3
		c0.6,0.1,1.1,0.2,1.5,0.3c0.4,0.1,0.7,0.3,1,0.6c0.3,0.3,0.4,0.7,0.4,1.3c0,0.5-0.1,0.9-0.4,1.2c-0.3,0.4-0.7,0.6-1.2,0.8
		c-0.5,0.2-1.2,0.3-1.9,0.3C124.3,33.8,123.7,33.8,123.1,33.6z"/>
	<path d="M141.6,31.9v1.8H134v-9.8h7.4v1.8h-5.2v2.1h4.5v1.8h-4.5v2.3H141.6z"/>
	<path d="M150.1,26.9c0.6,0.6,0.9,1.4,0.9,2.5v4.3h-2.2v-4c0-0.6-0.1-1-0.4-1.3c-0.3-0.3-0.6-0.4-1.1-0.4c-0.6,0-1,0.2-1.3,0.5
		c-0.3,0.3-0.5,0.8-0.5,1.5v3.7h-2.2v-7.5h2.1v0.9c0.3-0.3,0.6-0.6,1.1-0.7s0.9-0.3,1.4-0.3C148.7,26.1,149.5,26.4,150.1,26.9z"/>
</g>
<g class="st1">
	<path d="M156,26.4c0.4-0.2,1-0.3,1.5-0.3v2c-0.2,0-0.4,0-0.5,0c-0.6,0-1.1,0.2-1.5,0.5c-0.4,0.3-0.5,0.9-0.5,1.6v3.6h-2.2v-7.5h2.1
		v1C155.2,26.8,155.6,26.6,156,26.4z"/>
</g>
<g class="st1">
	<path d="M160.3,33.3c-0.6-0.3-1.1-0.8-1.5-1.4c-0.4-0.6-0.5-1.3-0.5-2c0-0.7,0.2-1.4,0.5-2c0.4-0.6,0.8-1,1.5-1.4
		c0.6-0.3,1.3-0.5,2.1-0.5c0.8,0,1.5,0.2,2.1,0.5c0.6,0.3,1.1,0.8,1.5,1.4c0.4,0.6,0.5,1.3,0.5,2c0,0.7-0.2,1.4-0.5,2
		c-0.4,0.6-0.8,1-1.5,1.4c-0.6,0.3-1.3,0.5-2.1,0.5C161.6,33.8,160.9,33.7,160.3,33.3z M163.8,31.5c0.4-0.4,0.5-0.9,0.5-1.5
		s-0.2-1.1-0.5-1.5c-0.4-0.4-0.8-0.6-1.4-0.6c-0.6,0-1,0.2-1.4,0.6c-0.4,0.4-0.5,0.9-0.5,1.5s0.2,1.1,0.5,1.5
		c0.4,0.4,0.8,0.6,1.4,0.6C163,32.1,163.4,31.9,163.8,31.5z"/>
	<path d="M168,23.3h2.2v10.4H168V23.3z"/>
	<path d="M172.2,23.3h2.2v10.4h-2.2V23.3z"/>
</g>
<g class="st1">
	<path d="M188.3,26.9c0.6,0.6,0.8,1.4,0.8,2.5v4.3h-2.2v-4c0-0.6-0.1-1-0.4-1.3c-0.2-0.3-0.6-0.4-1.1-0.4c-0.5,0-0.9,0.2-1.2,0.5
		s-0.4,0.8-0.4,1.5v3.8h-2.2v-4c0-1.2-0.5-1.8-1.4-1.8c-0.5,0-0.9,0.2-1.2,0.5c-0.3,0.3-0.4,0.8-0.4,1.5v3.8h-2.2v-7.5h2.1v0.9
		c0.3-0.3,0.6-0.6,1-0.7c0.4-0.2,0.9-0.3,1.3-0.3c0.5,0,1,0.1,1.4,0.3s0.8,0.5,1,0.9c0.3-0.4,0.7-0.7,1.2-0.9c0.5-0.2,1-0.3,1.5-0.3
		C187,26.1,187.7,26.4,188.3,26.9z"/>
</g>
<g class="st1">
	<path d="M198.5,30.6h-5.7c0.1,0.5,0.3,0.8,0.7,1.1s0.9,0.4,1.4,0.4c0.4,0,0.7-0.1,1-0.2c0.3-0.1,0.6-0.3,0.8-0.6l1.2,1.3
		c-0.7,0.8-1.7,1.2-3.1,1.2c-0.8,0-1.6-0.2-2.3-0.5c-0.7-0.3-1.2-0.8-1.5-1.4c-0.4-0.6-0.5-1.3-0.5-2c0-0.7,0.2-1.4,0.5-2
		s0.8-1.1,1.4-1.4c0.6-0.3,1.3-0.5,2.1-0.5c0.7,0,1.4,0.2,2,0.5c0.6,0.3,1.1,0.8,1.4,1.4s0.5,1.3,0.5,2.1
		C198.6,30,198.5,30.2,198.5,30.6z M193.4,28.2c-0.3,0.3-0.5,0.7-0.6,1.1h3.7c-0.1-0.5-0.3-0.9-0.6-1.1c-0.3-0.3-0.7-0.4-1.2-0.4
		C194.2,27.7,193.7,27.9,193.4,28.2z"/>
	<path d="M206.9,26.9c0.6,0.6,0.9,1.4,0.9,2.5v4.3h-2.2v-4c0-0.6-0.1-1-0.4-1.3c-0.3-0.3-0.6-0.4-1.1-0.4c-0.6,0-1,0.2-1.3,0.5
		c-0.3,0.3-0.5,0.8-0.5,1.5v3.7H200v-7.5h2.1v0.9c0.3-0.3,0.6-0.6,1.1-0.7s0.9-0.3,1.4-0.3C205.5,26.1,206.3,26.4,206.9,26.9z"/>
	<path d="M214.5,33.4c-0.2,0.2-0.5,0.3-0.8,0.4c-0.3,0.1-0.6,0.1-1,0.1c-0.9,0-1.6-0.2-2.1-0.7c-0.5-0.5-0.7-1.1-0.7-2V28h-1.2v-1.7
		h1.2v-1.8h2.2v1.8h1.9V28h-1.9v3.1c0,0.3,0.1,0.6,0.2,0.7c0.2,0.2,0.4,0.3,0.7,0.3c0.3,0,0.6-0.1,0.9-0.3L214.5,33.4z"/>
</g>
<g class="st1">
	<path d="M226.1,33.7l-1.9-2.7h-0.1h-2v2.7h-2.3v-9.8h4.2c0.9,0,1.6,0.1,2.3,0.4c0.6,0.3,1.1,0.7,1.5,1.2c0.3,0.5,0.5,1.2,0.5,1.9
		c0,0.7-0.2,1.4-0.5,1.9c-0.3,0.5-0.8,0.9-1.5,1.2l2.2,3.2H226.1z M225.6,26.2c-0.4-0.3-0.9-0.4-1.6-0.4h-1.8v3.4h1.8
		c0.7,0,1.2-0.1,1.6-0.4c0.4-0.3,0.5-0.7,0.5-1.3C226.1,26.9,225.9,26.5,225.6,26.2z"/>
</g>
<g class="st1">
	<path d="M235.7,26.9c0.6,0.6,0.9,1.4,0.9,2.5v4.3h-2v-0.9c-0.4,0.7-1.2,1.1-2.3,1.1c-0.6,0-1.1-0.1-1.5-0.3c-0.4-0.2-0.7-0.5-1-0.8
		c-0.2-0.3-0.3-0.7-0.3-1.2c0-0.7,0.3-1.3,0.8-1.7s1.3-0.6,2.4-0.6h1.7c0-0.5-0.1-0.8-0.4-1.1c-0.3-0.3-0.7-0.4-1.3-0.4
		c-0.4,0-0.8,0.1-1.2,0.2s-0.7,0.3-1,0.5l-0.8-1.5c0.4-0.3,0.9-0.5,1.5-0.7c0.6-0.2,1.2-0.2,1.8-0.2
		C234.2,26.1,235.1,26.4,235.7,26.9z M233.8,32.1c0.3-0.2,0.5-0.4,0.6-0.8v-0.8h-1.5c-0.9,0-1.3,0.3-1.3,0.9c0,0.3,0.1,0.5,0.3,0.7
		c0.2,0.2,0.5,0.2,0.9,0.2C233.2,32.4,233.5,32.3,233.8,32.1z"/>
</g>
<g class="st1">
	<path d="M243.4,33.4c-0.2,0.2-0.5,0.3-0.8,0.4c-0.3,0.1-0.6,0.1-1,0.1c-0.9,0-1.6-0.2-2.1-0.7c-0.5-0.5-0.7-1.1-0.7-2V28h-1.2v-1.7
		h1.2v-1.8h2.2v1.8h1.9V28H241v3.1c0,0.3,0.1,0.6,0.2,0.7c0.2,0.2,0.4,0.3,0.7,0.3c0.3,0,0.6-0.1,0.9-0.3L243.4,33.4z"/>
</g>
<g class="st1">
	<path d="M251.8,30.6h-5.7c0.1,0.5,0.3,0.8,0.7,1.1s0.9,0.4,1.4,0.4c0.4,0,0.7-0.1,1-0.2c0.3-0.1,0.6-0.3,0.8-0.6l1.2,1.3
		c-0.7,0.8-1.7,1.2-3.1,1.2c-0.8,0-1.6-0.2-2.3-0.5c-0.7-0.3-1.2-0.8-1.5-1.4c-0.4-0.6-0.5-1.3-0.5-2c0-0.7,0.2-1.4,0.5-2
		s0.8-1.1,1.4-1.4c0.6-0.3,1.3-0.5,2.1-0.5c0.7,0,1.4,0.2,2,0.5c0.6,0.3,1.1,0.8,1.4,1.4s0.5,1.3,0.5,2.1
		C251.8,30,251.8,30.2,251.8,30.6z M246.7,28.2c-0.3,0.3-0.5,0.7-0.6,1.1h3.7c-0.1-0.5-0.3-0.9-0.6-1.1c-0.3-0.3-0.7-0.4-1.2-0.4
		C247.4,27.7,247,27.9,246.7,28.2z"/>
</g>
<g class="st1">
	<path d="M259.6,26.4h1.9V28h-1.9v5.7h-2.2V28h-1.2v-1.7h1.2V26c0-0.9,0.3-1.5,0.8-2c0.5-0.5,1.2-0.8,2.1-0.8c0.3,0,0.6,0,0.9,0.1
		c0.3,0.1,0.5,0.2,0.7,0.3l-0.6,1.6c-0.3-0.2-0.5-0.3-0.9-0.3c-0.7,0-1,0.4-1,1.1V26.4z"/>
</g>
<g class="st1">
	<path d="M264,33.3c-0.6-0.3-1.1-0.8-1.5-1.4c-0.4-0.6-0.5-1.3-0.5-2c0-0.7,0.2-1.4,0.5-2c0.4-0.6,0.8-1,1.5-1.4
		c0.6-0.3,1.3-0.5,2.1-0.5c0.8,0,1.5,0.2,2.1,0.5c0.6,0.3,1.1,0.8,1.5,1.4c0.4,0.6,0.5,1.3,0.5,2c0,0.7-0.2,1.4-0.5,2
		c-0.4,0.6-0.8,1-1.5,1.4c-0.6,0.3-1.3,0.5-2.1,0.5C265.3,33.8,264.6,33.7,264,33.3z M267.5,31.5c0.4-0.4,0.5-0.9,0.5-1.5
		s-0.2-1.1-0.5-1.5c-0.4-0.4-0.8-0.6-1.4-0.6c-0.6,0-1,0.2-1.4,0.6s-0.5,0.9-0.5,1.5s0.2,1.1,0.5,1.5s0.8,0.6,1.4,0.6
		C266.7,32.1,267.2,31.9,267.5,31.5z"/>
	<path d="M274.9,26.4c0.4-0.2,1-0.3,1.5-0.3v2c-0.2,0-0.4,0-0.5,0c-0.6,0-1.1,0.2-1.5,0.5c-0.4,0.3-0.5,0.9-0.5,1.6v3.6h-2.2v-7.5
		h2.1v1C274.1,26.8,274.4,26.6,274.9,26.4z"/>
</g>
<g class="st1">
	<path d="M283.9,25.8h-3.1v-1.8h8.5v1.8h-3.1v8h-2.3V25.8z"/>
</g>
<g class="st1">
	<path d="M296.9,30.6h-5.7c0.1,0.5,0.3,0.8,0.7,1.1s0.9,0.4,1.4,0.4c0.4,0,0.7-0.1,1-0.2c0.3-0.1,0.6-0.3,0.8-0.6l1.2,1.3
		c-0.7,0.8-1.7,1.2-3.1,1.2c-0.8,0-1.6-0.2-2.3-0.5s-1.2-0.8-1.5-1.4c-0.4-0.6-0.5-1.3-0.5-2c0-0.7,0.2-1.4,0.5-2
		c0.3-0.6,0.8-1.1,1.4-1.4c0.6-0.3,1.3-0.5,2.1-0.5c0.7,0,1.4,0.2,2,0.5c0.6,0.3,1.1,0.8,1.4,1.4s0.5,1.3,0.5,2.1
		C297,30,297,30.2,296.9,30.6z M291.8,28.2c-0.3,0.3-0.5,0.7-0.6,1.1h3.7c-0.1-0.5-0.3-0.9-0.6-1.1c-0.3-0.3-0.7-0.4-1.2-0.4
		C292.6,27.7,292.2,27.9,291.8,28.2z"/>
</g>
<g class="st1">
	<path d="M301.6,26.4c0.4-0.2,1-0.3,1.5-0.3v2c-0.2,0-0.4,0-0.5,0c-0.6,0-1.1,0.2-1.5,0.5c-0.4,0.3-0.5,0.9-0.5,1.6v3.6h-2.2v-7.5
		h2.1v1C300.8,26.8,301.1,26.6,301.6,26.4z"/>
</g>
<g class="st1">
	<path d="M309.5,33.4c-0.2,0.2-0.5,0.3-0.8,0.4s-0.6,0.1-1,0.1c-0.9,0-1.6-0.2-2.1-0.7c-0.5-0.5-0.7-1.1-0.7-2V28h-1.2v-1.7h1.2
		v-1.8h2.2v1.8h1.9V28h-1.9v3.1c0,0.3,0.1,0.6,0.2,0.7s0.4,0.3,0.7,0.3c0.3,0,0.6-0.1,0.9-0.3L309.5,33.4z"/>
	<path d="M310.9,24.8c-0.3-0.2-0.4-0.5-0.4-0.9c0-0.3,0.1-0.6,0.4-0.9s0.6-0.3,1-0.3c0.4,0,0.7,0.1,1,0.3c0.3,0.2,0.4,0.5,0.4,0.8
		c0,0.4-0.1,0.7-0.4,0.9c-0.3,0.2-0.6,0.4-1,0.4C311.5,25.1,311.1,25,310.9,24.8z M310.8,26.2h2.2v7.5h-2.2V26.2z"/>
	<path d="M320.7,26.9c0.6,0.6,0.9,1.4,0.9,2.5v4.3h-2v-0.9c-0.4,0.7-1.2,1.1-2.3,1.1c-0.6,0-1.1-0.1-1.5-0.3c-0.4-0.2-0.7-0.5-1-0.8
		c-0.2-0.3-0.3-0.7-0.3-1.2c0-0.7,0.3-1.3,0.8-1.7s1.3-0.6,2.4-0.6h1.7c0-0.5-0.1-0.8-0.4-1.1c-0.3-0.3-0.7-0.4-1.3-0.4
		c-0.4,0-0.8,0.1-1.2,0.2c-0.4,0.1-0.7,0.3-1,0.5l-0.8-1.5c0.4-0.3,0.9-0.5,1.5-0.7c0.6-0.2,1.2-0.2,1.8-0.2
		C319.2,26.1,320.1,26.4,320.7,26.9z M318.9,32.1c0.3-0.2,0.5-0.4,0.6-0.8v-0.8H318c-0.9,0-1.3,0.3-1.3,0.9c0,0.3,0.1,0.5,0.3,0.7
		c0.2,0.2,0.5,0.2,0.9,0.2C318.2,32.4,318.6,32.3,318.9,32.1z"/>
</g>
<g class="st1">
	<path d="M326.8,26.4c0.4-0.2,1-0.3,1.5-0.3v2c-0.2,0-0.4,0-0.5,0c-0.6,0-1.1,0.2-1.5,0.5c-0.4,0.3-0.5,0.9-0.5,1.6v3.6h-2.2v-7.5
		h2.1v1C326,26.8,326.3,26.6,326.8,26.4z"/>
</g>
<g class="st1">
	<path d="M337.3,26.2l-3.4,8c-0.3,0.9-0.8,1.5-1.3,1.8s-1.1,0.5-1.8,0.5c-0.4,0-0.8-0.1-1.2-0.2c-0.4-0.1-0.7-0.3-0.9-0.5l0.8-1.6
		c0.2,0.1,0.4,0.3,0.6,0.4c0.2,0.1,0.4,0.1,0.7,0.1c0.3,0,0.5-0.1,0.7-0.2c0.2-0.1,0.4-0.4,0.5-0.7l0-0.1l-3.3-7.6h2.3l2.1,5.1
		l2.1-5.1H337.3z"/>
</g>
<g class="st1">
	<path d="M350,31.9v1.8h-7.6v-9.8h7.4v1.8h-5.2v2.1h4.5v1.8h-4.5v2.3H350z"/>
</g>
<g class="st1">
	<path d="M359.2,23.3v10.4h-2.1v-0.9c-0.5,0.7-1.3,1-2.4,1c-0.7,0-1.4-0.2-1.9-0.5c-0.6-0.3-1-0.8-1.4-1.4c-0.3-0.6-0.5-1.3-0.5-2
		c0-0.8,0.2-1.5,0.5-2c0.3-0.6,0.8-1,1.4-1.4c0.6-0.3,1.2-0.5,1.9-0.5c1,0,1.7,0.3,2.3,0.9v-3.7H359.2z M356.5,31.5
		c0.4-0.4,0.5-0.9,0.5-1.5s-0.2-1.1-0.5-1.5c-0.4-0.4-0.8-0.6-1.4-0.6c-0.6,0-1,0.2-1.4,0.6c-0.4,0.4-0.5,0.9-0.5,1.5
		s0.2,1.1,0.5,1.5c0.4,0.4,0.8,0.6,1.4,0.6C355.7,32.1,356.2,31.9,356.5,31.5z"/>
	<path d="M368.8,26.2v7.5h-2.1v-0.9c-0.3,0.3-0.6,0.6-1,0.7c-0.4,0.2-0.8,0.3-1.3,0.3c-1,0-1.8-0.3-2.4-0.9
		c-0.6-0.6-0.9-1.4-0.9-2.5v-4.3h2.2v3.9c0,1.2,0.5,1.8,1.5,1.8c0.5,0,0.9-0.2,1.3-0.5s0.5-0.8,0.5-1.5v-3.7H368.8z"/>
	<path d="M372.3,33.3c-0.6-0.3-1.1-0.8-1.5-1.4s-0.5-1.3-0.5-2c0-0.7,0.2-1.4,0.5-2c0.4-0.6,0.9-1,1.5-1.4c0.6-0.3,1.4-0.5,2.2-0.5
		c0.8,0,1.5,0.2,2.1,0.5c0.6,0.3,1,0.8,1.3,1.4l-1.7,0.9c-0.4-0.7-1-1-1.7-1c-0.6,0-1,0.2-1.4,0.6s-0.6,0.9-0.6,1.5
		c0,0.6,0.2,1.2,0.6,1.5c0.4,0.4,0.8,0.6,1.4,0.6c0.7,0,1.3-0.3,1.7-1l1.7,0.9c-0.3,0.6-0.7,1.1-1.3,1.4s-1.3,0.5-2.1,0.5
		C373.7,33.8,373,33.7,372.3,33.3z"/>
	<path d="M384.8,26.9c0.6,0.6,0.9,1.4,0.9,2.5v4.3h-2v-0.9c-0.4,0.7-1.2,1.1-2.3,1.1c-0.6,0-1.1-0.1-1.5-0.3c-0.4-0.2-0.7-0.5-1-0.8
		c-0.2-0.3-0.3-0.7-0.3-1.2c0-0.7,0.3-1.3,0.8-1.7s1.3-0.6,2.4-0.6h1.7c0-0.5-0.1-0.8-0.4-1.1c-0.3-0.3-0.7-0.4-1.3-0.4
		c-0.4,0-0.8,0.1-1.2,0.2c-0.4,0.1-0.7,0.3-1,0.5l-0.8-1.5c0.4-0.3,0.9-0.5,1.5-0.7c0.6-0.2,1.2-0.2,1.8-0.2
		C383.3,26.1,384.2,26.4,384.8,26.9z M383,32.1c0.3-0.2,0.5-0.4,0.6-0.8v-0.8h-1.5c-0.9,0-1.3,0.3-1.3,0.9c0,0.3,0.1,0.5,0.3,0.7
		c0.2,0.2,0.5,0.2,0.9,0.2C382.4,32.4,382.7,32.3,383,32.1z"/>
	<path d="M392.6,33.4c-0.2,0.2-0.5,0.3-0.8,0.4s-0.6,0.1-1,0.1c-0.9,0-1.6-0.2-2.1-0.7c-0.5-0.5-0.7-1.1-0.7-2V28h-1.2v-1.7h1.2
		v-1.8h2.2v1.8h1.9V28h-1.9v3.1c0,0.3,0.1,0.6,0.2,0.7s0.4,0.3,0.7,0.3c0.3,0,0.6-0.1,0.9-0.3L392.6,33.4z"/>
	<path d="M394,24.8c-0.3-0.2-0.4-0.5-0.4-0.9c0-0.3,0.1-0.6,0.4-0.9s0.6-0.3,1-0.3s0.7,0.1,1,0.3c0.3,0.2,0.4,0.5,0.4,0.8
		c0,0.4-0.1,0.7-0.4,0.9c-0.3,0.2-0.6,0.4-1,0.4S394.2,25,394,24.8z M393.8,26.2h2.2v7.5h-2.2V26.2z"/>
	<path d="M399.5,33.3c-0.6-0.3-1.1-0.8-1.5-1.4s-0.5-1.3-0.5-2c0-0.7,0.2-1.4,0.5-2c0.4-0.6,0.8-1,1.5-1.4c0.6-0.3,1.3-0.5,2.1-0.5
		s1.5,0.2,2.1,0.5c0.6,0.3,1.1,0.8,1.5,1.4c0.4,0.6,0.5,1.3,0.5,2c0,0.7-0.2,1.4-0.5,2s-0.8,1-1.5,1.4s-1.3,0.5-2.1,0.5
		S400.1,33.7,399.5,33.3z M403,31.5c0.4-0.4,0.5-0.9,0.5-1.5s-0.2-1.1-0.5-1.5s-0.8-0.6-1.4-0.6s-1,0.2-1.4,0.6
		c-0.4,0.4-0.5,0.9-0.5,1.5s0.2,1.1,0.5,1.5c0.4,0.4,0.8,0.6,1.4,0.6S402.7,31.9,403,31.5z"/>
	<path d="M414.1,26.9c0.6,0.6,0.9,1.4,0.9,2.5v4.3h-2.2v-4c0-0.6-0.1-1-0.4-1.3c-0.3-0.3-0.6-0.4-1.1-0.4c-0.6,0-1,0.2-1.3,0.5
		s-0.5,0.8-0.5,1.5v3.7h-2.2v-7.5h2.1v0.9c0.3-0.3,0.6-0.6,1.1-0.7c0.4-0.2,0.9-0.3,1.4-0.3C412.7,26.1,413.5,26.4,414.1,26.9z"/>
</g>
<g class="st1">
	<path d="M70.4,228.3L70.4,228.3l2.1-5.2h1.1v6.4h-0.9v-4.8l0,0l-1.9,4.8h-0.6l-2-5l0,0v5h-0.9v-6.4h1.1L70.4,228.3z"/>
	<path d="M77.8,229.5c0-0.1-0.1-0.3-0.1-0.4c0-0.1,0-0.2,0-0.3c-0.2,0.2-0.4,0.4-0.6,0.6c-0.3,0.2-0.5,0.2-0.8,0.2
		c-0.5,0-0.9-0.1-1.1-0.4c-0.3-0.3-0.4-0.6-0.4-1c0-0.5,0.2-0.8,0.6-1.1c0.4-0.3,0.9-0.4,1.5-0.4h0.9v-0.5c0-0.3-0.1-0.5-0.3-0.7
		c-0.2-0.2-0.4-0.2-0.7-0.2c-0.3,0-0.5,0.1-0.7,0.2s-0.3,0.3-0.3,0.5l-0.8,0l0,0c0-0.3,0.1-0.7,0.5-0.9c0.3-0.3,0.8-0.4,1.3-0.4
		c0.5,0,1,0.1,1.3,0.4c0.3,0.3,0.5,0.7,0.5,1.2v2.3c0,0.2,0,0.3,0,0.5s0,0.3,0.1,0.5H77.8z M76.4,228.9c0.3,0,0.6-0.1,0.8-0.2
		c0.3-0.2,0.4-0.3,0.5-0.6v-0.8h-1c-0.3,0-0.6,0.1-0.8,0.3s-0.3,0.4-0.3,0.6c0,0.2,0.1,0.4,0.2,0.5S76.1,228.9,76.4,228.9z"/>
	<path d="M80.8,229.5h-0.9v-6.9h0.9V229.5z"/>
	<path d="M84.1,229.6c-0.7,0-1.2-0.2-1.6-0.7c-0.4-0.4-0.6-1-0.6-1.7v-0.2c0-0.7,0.2-1.2,0.6-1.7c0.4-0.4,0.9-0.7,1.4-0.7
		c0.6,0,1.1,0.2,1.4,0.6c0.3,0.4,0.5,0.9,0.5,1.6v0.5h-3l0,0c0,0.5,0.1,0.9,0.3,1.2c0.2,0.3,0.5,0.4,1,0.4c0.3,0,0.5,0,0.8-0.1
		c0.2-0.1,0.4-0.2,0.6-0.3l0.3,0.6c-0.2,0.2-0.4,0.3-0.7,0.4C84.8,229.6,84.5,229.6,84.1,229.6z M83.9,225.4c-0.3,0-0.6,0.1-0.7,0.3
		c-0.2,0.2-0.3,0.5-0.4,0.9l0,0H85v-0.1c0-0.3-0.1-0.6-0.3-0.9S84.3,225.4,83.9,225.4z"/>
</g>
<g class="st1">
	<path d="M183.7,226.7H181v2.8h-0.9v-6.4h4v0.7H181v2.2h2.7V226.7z"/>
</g>
<g class="st1">
	<path d="M186.9,229.6c-0.7,0-1.2-0.2-1.6-0.7c-0.4-0.4-0.6-1-0.6-1.7v-0.2c0-0.7,0.2-1.2,0.6-1.7c0.4-0.4,0.9-0.7,1.4-0.7
		c0.6,0,1.1,0.2,1.4,0.6c0.3,0.4,0.5,0.9,0.5,1.6v0.5h-3l0,0c0,0.5,0.1,0.9,0.3,1.2c0.2,0.3,0.5,0.4,1,0.4c0.3,0,0.5,0,0.8-0.1
		c0.2-0.1,0.4-0.2,0.6-0.3l0.3,0.6c-0.2,0.2-0.4,0.3-0.7,0.4C187.6,229.6,187.3,229.6,186.9,229.6z M186.7,225.4
		c-0.3,0-0.6,0.1-0.7,0.3c-0.2,0.2-0.3,0.5-0.4,0.9l0,0h2.1v-0.1c0-0.3-0.1-0.6-0.3-0.9S187.1,225.4,186.7,225.4z"/>
	<path d="M190.4,224.8l0.1,0.6c0.2-0.2,0.4-0.4,0.6-0.5c0.2-0.1,0.5-0.2,0.8-0.2s0.6,0.1,0.8,0.2s0.4,0.4,0.5,0.7
		c0.2-0.3,0.4-0.5,0.6-0.6c0.2-0.2,0.5-0.2,0.9-0.2c0.5,0,0.9,0.2,1.1,0.5c0.3,0.3,0.4,0.8,0.4,1.5v2.8h-0.9v-2.9
		c0-0.5-0.1-0.8-0.2-1c-0.2-0.2-0.4-0.3-0.7-0.3c-0.3,0-0.5,0.1-0.7,0.3c-0.2,0.2-0.3,0.5-0.3,0.8v0v3h-0.9v-2.9
		c0-0.4-0.1-0.8-0.2-1c-0.2-0.2-0.4-0.3-0.7-0.3c-0.3,0-0.5,0.1-0.7,0.2s-0.3,0.3-0.4,0.5v3.5h-0.9v-4.8H190.4z"/>
	<path d="M200.4,229.5c0-0.1-0.1-0.3-0.1-0.4c0-0.1,0-0.2,0-0.3c-0.2,0.2-0.4,0.4-0.6,0.6c-0.3,0.2-0.5,0.2-0.8,0.2
		c-0.5,0-0.9-0.1-1.1-0.4c-0.3-0.3-0.4-0.6-0.4-1c0-0.5,0.2-0.8,0.6-1.1c0.4-0.3,0.9-0.4,1.5-0.4h0.9v-0.5c0-0.3-0.1-0.5-0.3-0.7
		c-0.2-0.2-0.4-0.2-0.7-0.2c-0.3,0-0.5,0.1-0.7,0.2s-0.3,0.3-0.3,0.5l-0.8,0l0,0c0-0.3,0.1-0.7,0.5-0.9c0.3-0.3,0.8-0.4,1.3-0.4
		c0.5,0,1,0.1,1.3,0.4c0.3,0.3,0.5,0.7,0.5,1.2v2.3c0,0.2,0,0.3,0,0.5s0,0.3,0.1,0.5H200.4z M199,228.9c0.3,0,0.6-0.1,0.8-0.2
		c0.3-0.2,0.4-0.3,0.5-0.6v-0.8h-1c-0.3,0-0.6,0.1-0.8,0.3s-0.3,0.4-0.3,0.6c0,0.2,0.1,0.4,0.2,0.5S198.7,228.9,199,228.9z"/>
	<path d="M203.4,229.5h-0.9v-6.9h0.9V229.5z"/>
	<path d="M206.7,229.6c-0.7,0-1.2-0.2-1.6-0.7c-0.4-0.4-0.6-1-0.6-1.7v-0.2c0-0.7,0.2-1.2,0.6-1.7c0.4-0.4,0.9-0.7,1.4-0.7
		c0.6,0,1.1,0.2,1.4,0.6c0.3,0.4,0.5,0.9,0.5,1.6v0.5h-3l0,0c0,0.5,0.1,0.9,0.3,1.2c0.2,0.3,0.5,0.4,1,0.4c0.3,0,0.5,0,0.8-0.1
		c0.2-0.1,0.4-0.2,0.6-0.3l0.3,0.6c-0.2,0.2-0.4,0.3-0.7,0.4C207.4,229.6,207.1,229.6,206.7,229.6z M206.5,225.4
		c-0.3,0-0.6,0.1-0.7,0.3c-0.2,0.2-0.3,0.5-0.4,0.9l0,0h2.1v-0.1c0-0.3-0.1-0.6-0.3-0.9S206.9,225.4,206.5,225.4z"/>
</g>
<g class="st1">
	<path d="M307.9,223.8h-2.1v5.7h-0.9v-5.7h-2.1v-0.7h5.1V223.8z"/>
</g>
<g class="st1">
	<path d="M308.1,227.1c0-0.7,0.2-1.3,0.6-1.7c0.4-0.5,0.9-0.7,1.6-0.7c0.7,0,1.2,0.2,1.6,0.7c0.4,0.5,0.6,1,0.6,1.7v0.1
		c0,0.7-0.2,1.3-0.6,1.7s-0.9,0.7-1.6,0.7s-1.2-0.2-1.6-0.7C308.3,228.5,308.1,227.9,308.1,227.1L308.1,227.1z M308.9,227.2
		c0,0.5,0.1,0.9,0.3,1.2c0.2,0.3,0.5,0.5,0.9,0.5c0.4,0,0.7-0.2,0.9-0.5s0.3-0.7,0.3-1.2v-0.1c0-0.5-0.1-0.9-0.3-1.2
		c-0.2-0.3-0.5-0.5-0.9-0.5c-0.4,0-0.7,0.2-0.9,0.5C309,226.2,308.9,226.6,308.9,227.2L308.9,227.2z"/>
	<path d="M314.6,223.6v1.1h0.9v0.6h-0.9v2.9c0,0.2,0,0.4,0.1,0.5c0.1,0.1,0.2,0.1,0.4,0.1c0,0,0.1,0,0.2,0c0.1,0,0.1,0,0.2,0
		l0.1,0.6c-0.1,0.1-0.2,0.1-0.3,0.1c-0.1,0-0.2,0-0.4,0c-0.4,0-0.6-0.1-0.8-0.3c-0.2-0.2-0.3-0.5-0.3-1v-2.9H313v-0.6h0.8v-1.1
		H314.6z"/>
	<path d="M319.3,229.5c0-0.1-0.1-0.3-0.1-0.4c0-0.1,0-0.2,0-0.3c-0.2,0.2-0.4,0.4-0.6,0.6c-0.3,0.2-0.5,0.2-0.8,0.2
		c-0.5,0-0.9-0.1-1.1-0.4c-0.3-0.3-0.4-0.6-0.4-1c0-0.5,0.2-0.8,0.6-1.1c0.4-0.3,0.9-0.4,1.5-0.4h0.9v-0.5c0-0.3-0.1-0.5-0.3-0.7
		c-0.2-0.2-0.4-0.2-0.7-0.2c-0.3,0-0.5,0.1-0.7,0.2s-0.3,0.3-0.3,0.5l-0.8,0l0,0c0-0.3,0.1-0.7,0.5-0.9c0.3-0.3,0.8-0.4,1.3-0.4
		c0.5,0,1,0.1,1.3,0.4c0.3,0.3,0.5,0.7,0.5,1.2v2.3c0,0.2,0,0.3,0,0.5s0,0.3,0.1,0.5H319.3z M317.9,228.9c0.3,0,0.6-0.1,0.8-0.2
		c0.3-0.2,0.4-0.3,0.5-0.6v-0.8h-1c-0.3,0-0.6,0.1-0.8,0.3c-0.2,0.2-0.3,0.4-0.3,0.6c0,0.2,0.1,0.4,0.2,0.5S317.7,228.9,317.9,228.9
		z"/>
	<path d="M322.3,229.5h-0.9v-6.9h0.9V229.5z"/>
</g>
<g class="st1">
	<path d="M400,226.8v2.8h-0.9v-6.4h2.2c0.7,0,1.2,0.2,1.6,0.5s0.6,0.8,0.6,1.4c0,0.3-0.1,0.6-0.3,0.9c-0.2,0.2-0.4,0.4-0.7,0.6
		c0.4,0.1,0.6,0.3,0.8,0.6c0.2,0.3,0.2,0.6,0.2,1v0.6c0,0.2,0,0.4,0.1,0.5s0.1,0.3,0.2,0.4v0.1h-0.9c-0.1-0.1-0.2-0.2-0.2-0.4
		s0-0.4,0-0.6v-0.6c0-0.3-0.1-0.6-0.3-0.8s-0.5-0.3-0.8-0.3H400z M400,226.1h1.2c0.5,0,0.8-0.1,1.1-0.3c0.2-0.2,0.3-0.5,0.3-0.9
		c0-0.4-0.1-0.6-0.3-0.8c-0.2-0.2-0.5-0.3-1-0.3H400V226.1z"/>
	<path d="M405.7,227v2.6h-0.9v-6.4h2.4c0.7,0,1.2,0.2,1.6,0.5c0.4,0.4,0.6,0.8,0.6,1.4c0,0.6-0.2,1-0.6,1.4
		c-0.4,0.3-0.9,0.5-1.6,0.5H405.7z M405.7,226.3h1.6c0.4,0,0.8-0.1,1-0.3c0.2-0.2,0.3-0.5,0.3-0.9s-0.1-0.7-0.3-0.9
		c-0.2-0.2-0.5-0.4-1-0.4h-1.6V226.3z"/>
	<path d="M413.1,223.1h0.9v4.5c0,0.6-0.2,1.1-0.5,1.4c-0.4,0.4-0.8,0.5-1.4,0.5c-0.6,0-1.1-0.2-1.4-0.5c-0.3-0.3-0.5-0.8-0.5-1.4
		l0,0h0.8c0,0.4,0.1,0.7,0.3,0.9s0.4,0.3,0.8,0.3c0.3,0,0.6-0.1,0.8-0.3s0.3-0.5,0.3-0.9V223.1z"/>
	<path d="M418.7,228.3L418.7,228.3l2.1-5.2h1.1v6.4h-0.9v-4.8l0,0l-1.9,4.8h-0.6l-2-5l0,0v5h-0.9v-6.4h1.1L418.7,228.3z"/>
	<path d="M428.1,229.5h-0.9l-3.1-4.9l0,0v4.9h-0.9v-6.4h0.9l3.1,4.9l0,0v-4.9h0.9V229.5z"/>
</g>
<g class="st1">
	<path d="M436.4,223.8h-2.1v5.7h-0.9v-5.7h-2.1v-0.7h5.1V223.8z"/>
</g>
<g class="st1">
	<path d="M439.6,229.5c0-0.1-0.1-0.3-0.1-0.4c0-0.1,0-0.2,0-0.3c-0.2,0.2-0.4,0.4-0.6,0.6c-0.3,0.2-0.5,0.2-0.8,0.2
		c-0.5,0-0.9-0.1-1.1-0.4c-0.3-0.3-0.4-0.6-0.4-1c0-0.5,0.2-0.8,0.6-1.1c0.4-0.3,0.9-0.4,1.5-0.4h0.9v-0.5c0-0.3-0.1-0.5-0.3-0.7
		c-0.2-0.2-0.4-0.2-0.7-0.2c-0.3,0-0.5,0.1-0.7,0.2s-0.3,0.3-0.3,0.5l-0.8,0l0,0c0-0.3,0.1-0.7,0.5-0.9s0.8-0.4,1.3-0.4
		c0.5,0,1,0.1,1.3,0.4c0.3,0.3,0.5,0.7,0.5,1.2v2.3c0,0.2,0,0.3,0,0.5s0,0.3,0.1,0.5H439.6z M438.1,228.9c0.3,0,0.6-0.1,0.8-0.2
		c0.3-0.2,0.4-0.3,0.5-0.6v-0.8h-1c-0.3,0-0.6,0.1-0.8,0.3c-0.2,0.2-0.3,0.4-0.3,0.6c0,0.2,0.1,0.4,0.2,0.5
		C437.7,228.8,437.9,228.9,438.1,228.9z"/>
</g>
<g class="st1">
	<path d="M443.8,225.5l-0.4,0c-0.2,0-0.4,0.1-0.6,0.2c-0.2,0.1-0.3,0.3-0.4,0.5v3.4h-0.9v-4.8h0.8l0.1,0.7c0.1-0.2,0.3-0.4,0.5-0.6
		c0.2-0.1,0.4-0.2,0.7-0.2c0.1,0,0.1,0,0.2,0c0.1,0,0.1,0,0.1,0L443.8,225.5z"/>
</g>
<g class="st1">
	<path d="M444.5,227.2c0-0.8,0.2-1.4,0.5-1.9c0.3-0.5,0.8-0.7,1.4-0.7c0.3,0,0.6,0.1,0.8,0.2c0.2,0.1,0.4,0.3,0.6,0.5l0.1-0.6h0.7
		v4.8c0,0.6-0.2,1.1-0.5,1.4c-0.4,0.3-0.9,0.5-1.5,0.5c-0.2,0-0.5,0-0.7-0.1c-0.3-0.1-0.5-0.1-0.7-0.3l0.1-0.7
		c0.2,0.1,0.4,0.2,0.6,0.2c0.2,0.1,0.5,0.1,0.7,0.1c0.4,0,0.7-0.1,0.9-0.3c0.2-0.2,0.3-0.5,0.3-0.9V229c-0.2,0.2-0.3,0.3-0.6,0.5
		s-0.5,0.2-0.8,0.2c-0.6,0-1-0.2-1.4-0.6C444.7,228.6,444.5,228,444.5,227.2L444.5,227.2z M445.4,227.3c0,0.5,0.1,0.9,0.3,1.2
		s0.5,0.4,0.9,0.4c0.3,0,0.5-0.1,0.7-0.2c0.2-0.1,0.3-0.3,0.4-0.5V226c-0.1-0.2-0.3-0.4-0.4-0.5c-0.2-0.1-0.4-0.2-0.6-0.2
		c-0.4,0-0.7,0.2-0.9,0.5C445.5,226.2,445.4,226.7,445.4,227.3L445.4,227.3z"/>
	<path d="M451.8,229.6c-0.7,0-1.2-0.2-1.6-0.7c-0.4-0.4-0.6-1-0.6-1.7v-0.2c0-0.7,0.2-1.2,0.6-1.7c0.4-0.4,0.9-0.7,1.4-0.7
		c0.6,0,1.1,0.2,1.4,0.6c0.3,0.4,0.5,0.9,0.5,1.6v0.5h-3l0,0c0,0.5,0.1,0.9,0.3,1.2c0.2,0.3,0.5,0.4,1,0.4c0.3,0,0.5,0,0.8-0.1
		c0.2-0.1,0.4-0.2,0.6-0.3l0.3,0.6c-0.2,0.2-0.4,0.3-0.7,0.4C452.5,229.6,452.1,229.6,451.8,229.6z M451.6,225.4
		c-0.3,0-0.6,0.1-0.7,0.3c-0.2,0.2-0.3,0.5-0.4,0.9l0,0h2.1v-0.1c0-0.3-0.1-0.6-0.3-0.9S452,225.4,451.6,225.4z"/>
	<path d="M455.7,223.6v1.1h0.9v0.6h-0.9v2.9c0,0.2,0,0.4,0.1,0.5c0.1,0.1,0.2,0.1,0.4,0.1c0,0,0.1,0,0.2,0c0.1,0,0.1,0,0.2,0
		l0.1,0.6c-0.1,0.1-0.2,0.1-0.3,0.1c-0.1,0-0.2,0-0.4,0c-0.4,0-0.6-0.1-0.8-0.3c-0.2-0.2-0.3-0.5-0.3-1v-2.9h-0.8v-0.6h0.8v-1.1
		H455.7z"/>
</g>
<g class="st1">
	<path d="M422.1,240.3h-4v-0.6l2-2.4c0.4-0.4,0.6-0.8,0.7-1c0.1-0.3,0.2-0.5,0.2-0.8c0-0.3-0.1-0.5-0.3-0.7
		c-0.2-0.2-0.4-0.3-0.7-0.3c-0.4,0-0.7,0.1-0.9,0.3c-0.2,0.2-0.3,0.5-0.3,0.9h-0.8l0,0c0-0.5,0.2-1,0.5-1.3c0.4-0.4,0.9-0.5,1.5-0.5
		c0.6,0,1,0.2,1.3,0.5s0.5,0.7,0.5,1.2c0,0.3-0.1,0.7-0.3,1c-0.2,0.3-0.5,0.7-0.9,1.2l-1.6,1.9l0,0h2.9V240.3z"/>
	<path d="M427.1,238.1c0,0.7-0.2,1.3-0.6,1.7c-0.4,0.4-0.9,0.6-1.5,0.6c-0.6,0-1.1-0.2-1.5-0.6c-0.4-0.4-0.6-1-0.6-1.7v-1.9
		c0-0.7,0.2-1.3,0.6-1.7c0.4-0.4,0.9-0.6,1.5-0.6c0.6,0,1.1,0.2,1.5,0.6c0.4,0.4,0.6,1,0.6,1.7V238.1z M426.3,236
		c0-0.5-0.1-0.8-0.3-1.1c-0.2-0.3-0.5-0.4-0.9-0.4c-0.4,0-0.7,0.1-0.9,0.4c-0.2,0.3-0.3,0.6-0.3,1.1v2.2c0,0.5,0.1,0.8,0.3,1.1
		c0.2,0.3,0.5,0.4,0.9,0.4c0.4,0,0.7-0.1,0.9-0.4c0.2-0.3,0.3-0.6,0.3-1.1V236z"/>
	<path d="M432.3,240.3h-4v-0.6l2-2.4c0.4-0.4,0.6-0.8,0.7-1c0.1-0.3,0.2-0.5,0.2-0.8c0-0.3-0.1-0.5-0.3-0.7
		c-0.2-0.2-0.4-0.3-0.7-0.3c-0.4,0-0.7,0.1-0.9,0.3c-0.2,0.2-0.3,0.5-0.3,0.9h-0.8l0,0c0-0.5,0.2-1,0.5-1.3c0.4-0.4,0.9-0.5,1.5-0.5
		c0.6,0,1,0.2,1.3,0.5s0.5,0.7,0.5,1.2c0,0.3-0.1,0.7-0.3,1c-0.2,0.3-0.5,0.7-0.9,1.2l-1.6,1.9l0,0h2.9V240.3z"/>
	<path d="M436.6,238.2h0.9v0.7h-0.9v1.5h-0.9v-1.5H433v-0.5l2.7-4.4h0.9V238.2z M433.9,238.2h1.8v-3l0,0l-0.1,0.2L433.9,238.2z"/>
</g>
<g class="st2">
	<rect x="21.2" y="87.5" width="461.7" height="0.5"/>
</g>
<g class="st2">
	<rect x="21.2" y="141.5" width="461.7" height="0.5"/>
</g>
<g class="st2">
	<rect x="21.2" y="159.5" width="461.7" height="0.5"/>
</g>
<g class="st2">
	<rect x="21.2" y="178.2" width="461.7" height="0.5"/>
</g>
<g class="st2">
	<rect x="21.2" y="196.4" width="461.7" height="0.5"/>
</g>
<g class="st2">
	<rect x="21.2" y="215.5" width="461.7" height="0.5"/>
</g>
<g class="st2">
	<rect x="21.2" y="69.5" width="461.7" height="0.5"/>
</g>
<g class="st2">
	<rect x="21.2" y="52.5" width="461.7" height="0.5"/>
</g>
<g class="st2">
	<rect x="21.2" y="123.5" width="461.7" height="0.5"/>
</g>
<g class="st2">
	<rect x="21.2" y="105.5" width="461.7" height="0.5"/>
</g>
<rect x="30.8" y="110.8" class="st3" width="23.5" height="105.2"/>
<rect x="64.7" y="107.7" class="st4" width="23.5" height="108.2"/>
<rect x="98.4" y="109.7" class="st5" width="23.5" height="106.2"/>
<rect x="148.6" y="99.8" class="st3" width="23.5" height="116.2"/>
<rect x="182.4" y="97.7" class="st4" width="23.5" height="118.2"/>
<rect x="216.1" y="92.7" class="st5" width="23.5" height="123.2"/>
<rect x="267.3" y="104.9" class="st3" width="23.5" height="111.1"/>
<rect x="301.2" y="102.6" class="st4" width="23.5" height="113.4"/>
<rect x="334.9" y="101" class="st5" width="23.5" height="115"/>
<rect x="382.1" y="63.8" class="st3" width="23.5" height="152.2"/>
<rect x="416" y="63.8" class="st4" width="23.5" height="152.2"/>
<rect x="449.7" y="63.8" class="st5" width="23.5" height="152.2"/>
<path class="st3" d="M175.1,255.9l1.1-1.1l0,0l4.3-4.3l-4.3-4.3l0,0l-1.1-1.1l-5.5,5.5L175.1,255.9z M171.1,249.7l0.8,0.8l-0.8,0.8
	l-0.8-0.8L171.1,249.7z M179.1,251.2l-0.8-0.8l0.8-0.8l0.8,0.8L179.1,251.2z M175.9,254.4L175.9,254.4l-0.8,0.8l-1.8-1.8l1.4-1.4
	l-1.5-1.4l-1.1,1.1l0.7,0.7l0.4-0.4l-0.4-0.4l0.4-0.4l0.8,0.8l-1.1,1.1l-1.5-1.5l1.1-1.1l-1.1-1.1l1.5-1.5l1.1,1.1l-0.8,0.8
	l-0.4-0.4l0.4-0.4l-0.4-0.4l-0.7,0.7l1.1,1.1l1.5-1.5l-1.4-1.4l1-1l0,0l0.8-0.8l0.8,0.8l0,0l1,1l-1.4,1.4l1.5,1.5l1.1-1.1l-0.7-0.7
	l-0.4,0.4l0.4,0.4l-0.4,0.4l-0.8-0.8l1.1-1.1l1.5,1.5l-1.1,1.1l1.1,1.1l-1.5,1.5l-1.1-1.1l0.8-0.8l0.4,0.4l-0.4,0.4l0.4,0.4l0.7-0.7
	l-1.1-1.1l-1.5,1.4l1.4,1.4L175.9,254.4z"/>
<rect x="174.3" y="252.6" transform="matrix(0.7071 -0.7071 0.7071 0.7071 -127.9029 198.0479)" class="st3" width="1.7" height="1.7"/>
<rect x="174.3" y="246.6" transform="matrix(0.7071 -0.7071 0.7071 0.7071 -123.6738 196.2949)" class="st3" width="1.7" height="1.7"/>
<g class="st1">
	<path d="M191,253h-4v-0.6l2-2.4c0.4-0.4,0.6-0.8,0.7-1c0.1-0.3,0.2-0.5,0.2-0.8c0-0.3-0.1-0.5-0.3-0.7c-0.2-0.2-0.4-0.3-0.7-0.3
		c-0.4,0-0.7,0.1-0.9,0.3c-0.2,0.2-0.3,0.5-0.3,0.9H187l0,0c0-0.5,0.2-1,0.5-1.3c0.4-0.4,0.9-0.5,1.5-0.5c0.6,0,1,0.2,1.3,0.5
		s0.5,0.7,0.5,1.2c0,0.3-0.1,0.7-0.3,1c-0.2,0.3-0.5,0.7-0.9,1.2l-1.6,1.9l0,0h2.9V253z"/>
	<path d="M196,250.7c0,0.7-0.2,1.3-0.6,1.7s-0.9,0.6-1.5,0.6c-0.6,0-1.1-0.2-1.5-0.6c-0.4-0.4-0.6-1-0.6-1.7v-1.9
		c0-0.7,0.2-1.3,0.6-1.7s0.9-0.6,1.5-0.6c0.6,0,1.1,0.2,1.5,0.6c0.4,0.4,0.6,1,0.6,1.7V250.7z M195.1,248.7c0-0.5-0.1-0.8-0.3-1.1
		c-0.2-0.3-0.5-0.4-0.9-0.4c-0.4,0-0.7,0.1-0.9,0.4c-0.2,0.3-0.3,0.6-0.3,1.1v2.2c0,0.5,0.1,0.8,0.3,1.1c0.2,0.3,0.5,0.4,0.9,0.4
		c0.4,0,0.7-0.1,0.9-0.4c0.2-0.3,0.3-0.6,0.3-1.1V248.7z"/>
	<path d="M199.6,253h-0.9v-5.6l-1.4,0v-0.7l2.3-0.2V253z"/>
	<path d="M203.7,252.4c0.4,0,0.8-0.1,1-0.4c0.3-0.3,0.4-0.7,0.4-1.2v-0.5c-0.1,0.2-0.3,0.4-0.5,0.5c-0.2,0.1-0.4,0.2-0.7,0.2
		c-0.6,0-1.1-0.2-1.4-0.6c-0.4-0.4-0.5-0.9-0.5-1.6c0-0.6,0.2-1.2,0.6-1.6c0.4-0.4,0.8-0.6,1.4-0.6c0.6,0,1.2,0.2,1.5,0.6
		s0.6,1,0.6,1.7v1.9c0,0.7-0.2,1.3-0.6,1.7c-0.4,0.4-1,0.6-1.6,0.6c-0.2,0-0.5,0-0.7-0.1c-0.2,0-0.5-0.1-0.7-0.2l0.1-0.7
		c0.2,0.1,0.4,0.2,0.6,0.2C203.3,252.4,203.5,252.4,203.7,252.4z M203.9,250.2c0.3,0,0.6-0.1,0.8-0.2c0.2-0.1,0.4-0.3,0.5-0.5v-0.8
		c0-0.5-0.1-0.8-0.3-1.1c-0.2-0.3-0.5-0.4-0.9-0.4c-0.3,0-0.6,0.1-0.8,0.4c-0.2,0.3-0.3,0.6-0.3,1.1c0,0.4,0.1,0.8,0.3,1.1
		C203.3,250,203.6,250.2,203.9,250.2z"/>
</g>
<path class="st4" d="M240.9,255.9l1.1-1.1l0,0l4.3-4.3l-4.3-4.3l0,0l-1.1-1.1l-5.5,5.5L240.9,255.9z M236.9,249.7l0.8,0.8l-0.8,0.8
	l-0.8-0.8L236.9,249.7z M244.9,251.2l-0.8-0.8l0.8-0.8l0.8,0.8L244.9,251.2z M241.6,254.4L241.6,254.4l-0.8,0.8l-1.8-1.8l1.4-1.4
	l-1.5-1.4l-1,1.1l0.7,0.7l0.4-0.4l-0.4-0.4l0.4-0.4l0.8,0.8l-1.1,1.1l-1.5-1.5l1.1-1.1l-1.1-1.1l1.5-1.5l1.1,1.1l-0.8,0.8l-0.4-0.4
	l0.4-0.4l-0.4-0.4l-0.7,0.7l1.1,1.1l1.5-1.5l-1.4-1.4l1-1l0,0l0.8-0.8l0.8,0.8l0,0l1,1l-1.4,1.4l1.5,1.5l1.1-1.1l-0.7-0.7l-0.4,0.4
	l0.4,0.4l-0.4,0.4l-0.8-0.8l1.1-1.1l1.5,1.5l-1.1,1.1l1.1,1.1l-1.6,1.5l-1.1-1.1l0.8-0.8l0.4,0.4l-0.4,0.4l0.4,0.4l0.7-0.7l-1.1-1.1
	l-1.5,1.4l1.4,1.4L241.6,254.4z"/>
<rect x="240" y="252.6" transform="matrix(0.7071 -0.7071 0.7071 0.7071 -108.6475 244.5393)" class="st4" width="1.7" height="1.7"/>
<rect x="240" y="246.6" transform="matrix(0.7071 -0.7071 0.7071 0.7071 -104.4184 242.7863)" class="st4" width="1.7" height="1.7"/>
<g class="st1">
	<path d="M256.7,253h-4v-0.6l2-2.4c0.4-0.4,0.6-0.8,0.7-1c0.1-0.3,0.2-0.5,0.2-0.8c0-0.3-0.1-0.5-0.3-0.7c-0.2-0.2-0.4-0.3-0.7-0.3
		c-0.4,0-0.7,0.1-0.9,0.3c-0.2,0.2-0.3,0.5-0.3,0.9h-0.8l0,0c0-0.5,0.2-1,0.5-1.3c0.4-0.4,0.9-0.5,1.5-0.5c0.6,0,1,0.2,1.3,0.5
		s0.5,0.7,0.5,1.2c0,0.3-0.1,0.7-0.3,1c-0.2,0.3-0.5,0.7-0.9,1.2l-1.6,1.9l0,0h2.9V253z"/>
	<path d="M261.7,250.7c0,0.7-0.2,1.3-0.6,1.7c-0.4,0.4-0.9,0.6-1.5,0.6c-0.6,0-1.1-0.2-1.5-0.6c-0.4-0.4-0.6-1-0.6-1.7v-1.9
		c0-0.7,0.2-1.3,0.6-1.7c0.4-0.4,0.9-0.6,1.5-0.6c0.6,0,1.1,0.2,1.5,0.6c0.4,0.4,0.6,1,0.6,1.7V250.7z M260.9,248.7
		c0-0.5-0.1-0.8-0.3-1.1c-0.2-0.3-0.5-0.4-0.9-0.4c-0.4,0-0.7,0.1-0.9,0.4c-0.2,0.3-0.3,0.6-0.3,1.1v2.2c0,0.5,0.1,0.8,0.3,1.1
		c0.2,0.3,0.5,0.4,0.9,0.4c0.4,0,0.7-0.1,0.9-0.4c0.2-0.3,0.3-0.6,0.3-1.1V248.7z"/>
	<path d="M266.9,253h-4v-0.6l2-2.4c0.4-0.4,0.6-0.8,0.7-1c0.1-0.3,0.2-0.5,0.2-0.8c0-0.3-0.1-0.5-0.3-0.7c-0.2-0.2-0.4-0.3-0.7-0.3
		c-0.4,0-0.7,0.1-0.9,0.3c-0.2,0.2-0.3,0.5-0.3,0.9h-0.8l0,0c0-0.5,0.2-1,0.5-1.3c0.4-0.4,0.9-0.5,1.5-0.5c0.6,0,1,0.2,1.3,0.5
		s0.5,0.7,0.5,1.2c0,0.3-0.1,0.7-0.3,1c-0.2,0.3-0.5,0.7-0.9,1.2l-1.6,1.9l0,0h2.9V253z"/>
	<path d="M271.9,250.7c0,0.7-0.2,1.3-0.6,1.7c-0.4,0.4-0.9,0.6-1.5,0.6c-0.6,0-1.1-0.2-1.5-0.6c-0.4-0.4-0.6-1-0.6-1.7v-1.9
		c0-0.7,0.2-1.3,0.6-1.7c0.4-0.4,0.9-0.6,1.5-0.6c0.6,0,1.1,0.2,1.5,0.6c0.4,0.4,0.6,1,0.6,1.7V250.7z M271,248.7
		c0-0.5-0.1-0.8-0.3-1.1c-0.2-0.3-0.5-0.4-0.9-0.4c-0.4,0-0.7,0.1-0.9,0.4c-0.2,0.3-0.3,0.6-0.3,1.1v2.2c0,0.5,0.1,0.8,0.3,1.1
		c0.2,0.3,0.5,0.4,0.9,0.4c0.4,0,0.7-0.1,0.9-0.4c0.2-0.3,0.3-0.6,0.3-1.1V248.7z"/>
</g>
<path class="st5" d="M302.9,255.9l1.1-1.1l0,0l4.3-4.3l-4.3-4.3l0,0l-1.1-1.1l-5.5,5.5L302.9,255.9z M298.9,249.7l0.8,0.8l-0.8,0.8
	l-0.8-0.8L298.9,249.7z M306.9,251.2l-0.8-0.8l0.8-0.8l0.8,0.8L306.9,251.2z M303.6,254.4L303.6,254.4l-0.8,0.8l-1.8-1.8l1.4-1.4
	l-1.5-1.4l-1,1.1l0.7,0.7l0.4-0.4l-0.4-0.4l0.4-0.4l0.8,0.8l-1.1,1.1l-1.5-1.5l1.1-1.1l-1.1-1.1l1.5-1.5l1.1,1.1l-0.8,0.8l-0.4-0.4
	l0.4-0.4l-0.4-0.4l-0.7,0.7l1.1,1.1l1.5-1.5l-1.4-1.4l1-1l0,0l0.8-0.8l0.8,0.8l0,0l1,1l-1.4,1.4l1.5,1.5l1.1-1.1l-0.7-0.7l-0.4,0.4
	l0.4,0.4l-0.4,0.4l-0.8-0.8l1.1-1.1l1.5,1.5l-1.1,1.1l1.1,1.1l-1.5,1.5l-1.1-1.1l0.8-0.8l0.4,0.4l-0.4,0.4l0.4,0.4l0.7-0.7l-1.1-1.1
	l-1.5,1.4l1.4,1.4L303.6,254.4z"/>
<rect x="302" y="252.6" transform="matrix(0.7071 -0.7071 0.7071 0.7071 -90.4887 288.3796)" class="st5" width="1.7" height="1.7"/>
<rect x="302" y="246.6" transform="matrix(0.7071 -0.7071 0.7071 0.7071 -86.2596 286.6266)" class="st5" width="1.7" height="1.7"/>
<g class="st1">
	<path d="M318.7,253h-4v-0.6l2-2.4c0.4-0.4,0.6-0.8,0.7-1c0.1-0.3,0.2-0.5,0.2-0.8c0-0.3-0.1-0.5-0.3-0.7c-0.2-0.2-0.4-0.3-0.7-0.3
		c-0.4,0-0.7,0.1-0.9,0.3c-0.2,0.2-0.3,0.5-0.3,0.9h-0.8l0,0c0-0.5,0.2-1,0.5-1.3c0.4-0.4,0.9-0.5,1.5-0.5c0.6,0,1,0.2,1.3,0.5
		s0.5,0.7,0.5,1.2c0,0.3-0.1,0.7-0.3,1c-0.2,0.3-0.5,0.7-0.9,1.2l-1.6,1.9l0,0h2.9V253z"/>
	<path d="M323.7,250.7c0,0.7-0.2,1.3-0.6,1.7c-0.4,0.4-0.9,0.6-1.5,0.6c-0.6,0-1.1-0.2-1.5-0.6c-0.4-0.4-0.6-1-0.6-1.7v-1.9
		c0-0.7,0.2-1.3,0.6-1.7c0.4-0.4,0.9-0.6,1.5-0.6c0.6,0,1.1,0.2,1.5,0.6c0.4,0.4,0.6,1,0.6,1.7V250.7z M322.9,248.7
		c0-0.5-0.1-0.8-0.3-1.1c-0.2-0.3-0.5-0.4-0.9-0.4c-0.4,0-0.7,0.1-0.9,0.4c-0.2,0.3-0.3,0.6-0.3,1.1v2.2c0,0.5,0.1,0.8,0.3,1.1
		c0.2,0.3,0.5,0.4,0.9,0.4c0.4,0,0.7-0.1,0.9-0.4c0.2-0.3,0.3-0.6,0.3-1.1V248.7z"/>
	<path d="M328.9,253h-4v-0.6l2-2.4c0.4-0.4,0.6-0.8,0.7-1c0.1-0.3,0.2-0.5,0.2-0.8c0-0.3-0.1-0.5-0.3-0.7c-0.2-0.2-0.4-0.3-0.7-0.3
		c-0.4,0-0.7,0.1-0.9,0.3c-0.2,0.2-0.3,0.5-0.3,0.9h-0.8l0,0c0-0.5,0.2-1,0.5-1.3c0.4-0.4,0.9-0.5,1.5-0.5c0.6,0,1,0.2,1.3,0.5
		s0.5,0.7,0.5,1.2c0,0.3-0.1,0.7-0.3,1c-0.2,0.3-0.5,0.7-0.9,1.2l-1.6,1.9l0,0h2.9V253z"/>
	<path d="M332.4,253h-0.9v-5.6l-1.4,0v-0.7l2.3-0.2V253z"/>
</g>
<g class="st1">
	<path d="M32.6,106.5v1.1h-4.2v-0.8l2.2-2c0.2-0.2,0.4-0.4,0.5-0.6c0.1-0.2,0.1-0.3,0.1-0.5c0-0.2-0.1-0.4-0.2-0.5
		c-0.2-0.1-0.4-0.2-0.7-0.2c-0.2,0-0.5,0-0.7,0.1c-0.2,0.1-0.4,0.2-0.5,0.4l-0.9-0.6c0.2-0.3,0.5-0.6,0.9-0.8
		c0.4-0.2,0.8-0.3,1.3-0.3c0.4,0,0.8,0.1,1.1,0.2s0.6,0.3,0.7,0.6s0.3,0.5,0.3,0.9c0,0.3-0.1,0.6-0.2,0.9s-0.4,0.6-0.7,0.9l-1.3,1.2
		H32.6z"/>
</g>
<g class="st1">
	<path d="M37.6,105.2c0.1,0.2,0.2,0.5,0.2,0.8c0,0.3-0.1,0.6-0.3,0.9s-0.5,0.5-0.8,0.6c-0.4,0.1-0.8,0.2-1.2,0.2s-0.9-0.1-1.2-0.2
		c-0.4-0.1-0.6-0.3-0.8-0.6c-0.2-0.3-0.3-0.6-0.3-0.9c0-0.3,0.1-0.6,0.2-0.8c0.1-0.2,0.4-0.4,0.6-0.5c-0.2-0.1-0.4-0.3-0.5-0.5
		c-0.1-0.2-0.2-0.4-0.2-0.7c0-0.3,0.1-0.6,0.3-0.8c0.2-0.2,0.4-0.4,0.8-0.6c0.3-0.1,0.7-0.2,1.1-0.2c0.4,0,0.8,0.1,1.1,0.2
		c0.3,0.1,0.6,0.3,0.8,0.6c0.2,0.2,0.3,0.5,0.3,0.8c0,0.2-0.1,0.5-0.2,0.7c-0.1,0.2-0.3,0.4-0.5,0.5C37.2,104.8,37.5,105,37.6,105.2
		z M36.2,106.5c0.2-0.1,0.3-0.3,0.3-0.6s-0.1-0.4-0.3-0.6c-0.2-0.1-0.4-0.2-0.8-0.2c-0.3,0-0.6,0.1-0.8,0.2
		c-0.2,0.1-0.3,0.3-0.3,0.6c0,0.3,0.1,0.4,0.3,0.6c0.2,0.1,0.4,0.2,0.8,0.2C35.8,106.7,36,106.7,36.2,106.5z M34.8,103
		c-0.2,0.1-0.2,0.3-0.2,0.5c0,0.2,0.1,0.4,0.2,0.5c0.2,0.1,0.4,0.2,0.6,0.2s0.5-0.1,0.6-0.2c0.2-0.1,0.2-0.3,0.2-0.5
		c0-0.2-0.1-0.4-0.2-0.5c-0.2-0.1-0.4-0.2-0.6-0.2C35.2,102.9,35,102.9,34.8,103z"/>
</g>
<g class="st1">
	<path d="M38.7,107.4c-0.1-0.1-0.2-0.3-0.2-0.6c0-0.2,0.1-0.4,0.2-0.6c0.1-0.1,0.3-0.2,0.6-0.2s0.4,0.1,0.6,0.2
		c0.1,0.1,0.2,0.3,0.2,0.6c0,0.2-0.1,0.4-0.2,0.6c-0.1,0.1-0.3,0.2-0.6,0.2S38.8,107.6,38.7,107.4z"/>
</g>
<g class="st1">
	<path d="M44.4,102.6c0.4,0.5,0.7,1.2,0.7,2.1c0,0.6-0.1,1.2-0.4,1.6c-0.2,0.5-0.6,0.8-1,1c-0.4,0.2-0.9,0.4-1.5,0.4
		c-0.3,0-0.6,0-0.9-0.1c-0.3-0.1-0.5-0.2-0.7-0.3l0.5-1c0.3,0.2,0.6,0.3,1,0.3c0.5,0,0.9-0.1,1.1-0.4c0.3-0.3,0.4-0.7,0.4-1.2
		c-0.3,0.3-0.8,0.5-1.4,0.5c-0.4,0-0.7-0.1-1-0.2c-0.3-0.1-0.5-0.3-0.7-0.6c-0.2-0.3-0.3-0.6-0.3-0.9c0-0.4,0.1-0.7,0.3-1
		c0.2-0.3,0.4-0.5,0.8-0.7c0.3-0.2,0.7-0.2,1.1-0.2C43.3,101.9,44,102.1,44.4,102.6z M43.3,104.3c0.2-0.2,0.3-0.4,0.3-0.6
		c0-0.2-0.1-0.4-0.3-0.6c-0.2-0.2-0.4-0.2-0.7-0.2c-0.3,0-0.5,0.1-0.7,0.2s-0.3,0.4-0.3,0.6c0,0.3,0.1,0.5,0.3,0.6
		c0.2,0.2,0.4,0.2,0.7,0.2C42.9,104.5,43.2,104.5,43.3,104.3z"/>
	<path d="M49.3,104.8c0.3,0.3,0.4,0.6,0.4,1.1c0,0.3-0.1,0.6-0.3,0.9c-0.2,0.3-0.4,0.5-0.8,0.7c-0.3,0.2-0.8,0.2-1.3,0.2
		c-0.4,0-0.8-0.1-1.2-0.2c-0.4-0.1-0.7-0.3-1-0.4l0.5-1c0.2,0.2,0.5,0.3,0.7,0.4c0.3,0.1,0.6,0.1,0.9,0.1c0.3,0,0.6-0.1,0.8-0.2
		c0.2-0.1,0.3-0.3,0.3-0.5c0-0.5-0.3-0.7-1-0.7h-0.6v-0.9l1.2-1.3h-2.4v-1h3.9v0.8l-1.3,1.4C48.6,104.4,49,104.5,49.3,104.8z"/>
</g>
<g class="st1">
	<path d="M50.6,104.6c-0.3-0.3-0.4-0.7-0.4-1.1c0-0.5,0.1-0.8,0.4-1.1s0.6-0.4,1-0.4s0.7,0.1,1,0.4s0.4,0.7,0.4,1.1
		c0,0.5-0.1,0.8-0.4,1.1s-0.6,0.4-1,0.4S50.8,104.9,50.6,104.6z M52,104.1c0.1-0.1,0.2-0.4,0.2-0.7c0-0.3-0.1-0.5-0.2-0.7
		s-0.2-0.2-0.4-0.2c-0.2,0-0.3,0.1-0.4,0.2c-0.1,0.2-0.2,0.4-0.2,0.7s0.1,0.5,0.2,0.7c0.1,0.2,0.2,0.2,0.4,0.2
		C51.7,104.4,51.9,104.3,52,104.1z M54.9,102h1l-3.8,5.6h-1L54.9,102z M54.6,107.5c-0.2-0.1-0.4-0.3-0.5-0.5
		c-0.1-0.2-0.2-0.5-0.2-0.8c0-0.3,0.1-0.6,0.2-0.8c0.1-0.2,0.3-0.4,0.5-0.5c0.2-0.1,0.4-0.2,0.7-0.2c0.4,0,0.7,0.1,1,0.4
		c0.3,0.3,0.4,0.7,0.4,1.1c0,0.5-0.1,0.8-0.4,1.1c-0.3,0.3-0.6,0.4-1,0.4C55.1,107.7,54.9,107.6,54.6,107.5z M55.8,106.8
		c0.1-0.2,0.2-0.4,0.2-0.7c0-0.3-0.1-0.5-0.2-0.7c-0.1-0.2-0.2-0.2-0.4-0.2c-0.2,0-0.3,0.1-0.4,0.2c-0.1,0.1-0.2,0.4-0.2,0.7
		c0,0.3,0.1,0.5,0.2,0.7c0.1,0.1,0.2,0.2,0.4,0.2C55.5,107,55.7,106.9,55.8,106.8z"/>
</g>
<g class="st1">
	<path d="M66.8,103.5v1.1h-4.2v-0.8l2.2-2c0.2-0.2,0.4-0.4,0.5-0.6c0.1-0.2,0.1-0.3,0.1-0.5c0-0.2-0.1-0.4-0.2-0.5
		c-0.2-0.1-0.4-0.2-0.7-0.2c-0.2,0-0.5,0-0.7,0.1c-0.2,0.1-0.4,0.2-0.5,0.4l-0.9-0.6c0.2-0.3,0.5-0.6,0.9-0.8
		c0.4-0.2,0.8-0.3,1.3-0.3c0.4,0,0.8,0.1,1.1,0.2s0.6,0.3,0.7,0.6s0.3,0.5,0.3,0.9c0,0.3-0.1,0.6-0.2,0.9s-0.4,0.6-0.7,0.9l-1.3,1.2
		H66.8z"/>
</g>
<g class="st1">
	<path d="M71.1,99.6c0.4,0.5,0.7,1.2,0.7,2.1c0,0.6-0.1,1.2-0.4,1.6c-0.2,0.5-0.6,0.8-1,1c-0.4,0.2-0.9,0.4-1.5,0.4
		c-0.3,0-0.6,0-0.9-0.1c-0.3-0.1-0.5-0.2-0.7-0.3l0.5-1c0.3,0.2,0.6,0.3,1,0.3c0.5,0,0.9-0.1,1.1-0.4c0.3-0.3,0.4-0.7,0.4-1.2
		c-0.3,0.3-0.8,0.5-1.4,0.5c-0.4,0-0.7-0.1-1-0.2c-0.3-0.1-0.5-0.3-0.7-0.6c-0.2-0.3-0.3-0.6-0.3-0.9c0-0.4,0.1-0.7,0.3-1
		c0.2-0.3,0.4-0.5,0.8-0.7c0.3-0.2,0.7-0.2,1.1-0.2C70.1,98.8,70.7,99.1,71.1,99.6z M70.1,101.2c0.2-0.2,0.3-0.4,0.3-0.6
		c0-0.2-0.1-0.4-0.3-0.6c-0.2-0.2-0.4-0.2-0.7-0.2c-0.3,0-0.5,0.1-0.7,0.2s-0.3,0.4-0.3,0.6c0,0.3,0.1,0.5,0.3,0.6
		c0.2,0.2,0.4,0.2,0.7,0.2C69.7,101.5,69.9,101.4,70.1,101.2z"/>
</g>
<g class="st1">
	<path d="M72.5,104.4c-0.1-0.1-0.2-0.3-0.2-0.6c0-0.2,0.1-0.4,0.2-0.6c0.1-0.1,0.3-0.2,0.6-0.2s0.4,0.1,0.6,0.2
		c0.1,0.1,0.2,0.3,0.2,0.6c0,0.2-0.1,0.4-0.2,0.6s-0.3,0.2-0.6,0.2S72.6,104.5,72.5,104.4z"/>
</g>
<g class="st1">
	<path d="M78.1,101.5c0.4,0.3,0.6,0.7,0.6,1.3c0,0.3-0.1,0.7-0.3,0.9c-0.2,0.3-0.4,0.5-0.8,0.7c-0.3,0.2-0.8,0.3-1.3,0.3
		c-0.4,0-0.8-0.1-1.2-0.2c-0.4-0.1-0.7-0.3-1-0.4l0.5-1c0.2,0.2,0.5,0.3,0.7,0.4s0.6,0.1,0.9,0.1c0.3,0,0.6-0.1,0.8-0.2
		c0.2-0.1,0.3-0.3,0.3-0.5c0-0.2-0.1-0.4-0.3-0.5c-0.2-0.1-0.5-0.2-1-0.2h-1.4l0.3-3.2h3.4v1H76l-0.1,1.1h0.5
		C77.1,101,77.7,101.2,78.1,101.5z"/>
</g>
<g class="st1">
	<path d="M82.8,101.5c0.4,0.3,0.6,0.7,0.6,1.3c0,0.3-0.1,0.7-0.3,0.9c-0.2,0.3-0.4,0.5-0.8,0.7c-0.3,0.2-0.8,0.3-1.3,0.3
		c-0.4,0-0.8-0.1-1.2-0.2c-0.4-0.1-0.7-0.3-1-0.4l0.5-1c0.2,0.2,0.5,0.3,0.7,0.4s0.6,0.1,0.9,0.1c0.3,0,0.6-0.1,0.8-0.2
		c0.2-0.1,0.3-0.3,0.3-0.5c0-0.2-0.1-0.4-0.3-0.5c-0.2-0.1-0.5-0.2-1-0.2h-1.4l0.3-3.2H83v1h-2.3l-0.1,1.1H81
		C81.8,101,82.4,101.2,82.8,101.5z"/>
</g>
<g class="st1">
	<path d="M84.1,101.5c-0.3-0.3-0.4-0.7-0.4-1.1c0-0.5,0.1-0.8,0.4-1.1s0.6-0.4,1-0.4c0.4,0,0.7,0.1,1,0.4s0.4,0.7,0.4,1.1
		c0,0.5-0.1,0.8-0.4,1.1s-0.6,0.4-1,0.4C84.7,102,84.4,101.8,84.1,101.5z M85.5,101.1c0.1-0.1,0.2-0.4,0.2-0.7
		c0-0.3-0.1-0.5-0.2-0.7c-0.1-0.1-0.2-0.2-0.4-0.2c-0.2,0-0.3,0.1-0.4,0.2c-0.1,0.2-0.2,0.4-0.2,0.7s0.1,0.5,0.2,0.7
		s0.2,0.2,0.4,0.2C85.3,101.3,85.4,101.2,85.5,101.1z M88.4,98.9h1l-3.8,5.6h-1L88.4,98.9z M88.2,104.4c-0.2-0.1-0.4-0.3-0.5-0.5
		c-0.1-0.2-0.2-0.5-0.2-0.8c0-0.3,0.1-0.6,0.2-0.8c0.1-0.2,0.3-0.4,0.5-0.5c0.2-0.1,0.4-0.2,0.7-0.2c0.4,0,0.7,0.1,1,0.4
		c0.3,0.3,0.4,0.7,0.4,1.1c0,0.5-0.1,0.8-0.4,1.1c-0.3,0.3-0.6,0.4-1,0.4C88.6,104.6,88.4,104.5,88.2,104.4z M89.3,103.7
		c0.1-0.2,0.2-0.4,0.2-0.7c0-0.3-0.1-0.5-0.2-0.7c-0.1-0.2-0.2-0.2-0.4-0.2c-0.2,0-0.3,0.1-0.4,0.2c-0.1,0.1-0.2,0.4-0.2,0.7
		c0,0.3,0.1,0.5,0.2,0.7c0.1,0.1,0.2,0.2,0.4,0.2C89.1,103.9,89.2,103.9,89.3,103.7z"/>
</g>
<g class="st1">
	<path d="M106.2,105.5v1.1H102v-0.8l2.2-2c0.2-0.2,0.4-0.4,0.5-0.6c0.1-0.2,0.1-0.3,0.1-0.5c0-0.2-0.1-0.4-0.2-0.5
		c-0.2-0.1-0.4-0.2-0.7-0.2c-0.2,0-0.5,0-0.7,0.1c-0.2,0.1-0.4,0.2-0.5,0.4l-0.9-0.6c0.2-0.3,0.5-0.6,0.9-0.8
		c0.4-0.2,0.8-0.3,1.3-0.3c0.4,0,0.8,0.1,1.1,0.2s0.6,0.3,0.7,0.6s0.3,0.5,0.3,0.9c0,0.3-0.1,0.6-0.2,0.9s-0.4,0.6-0.7,0.9l-1.3,1.2
		H106.2z"/>
	<path d="M110.5,101.6c0.4,0.5,0.7,1.2,0.7,2.1c0,0.6-0.1,1.2-0.4,1.6c-0.2,0.5-0.6,0.8-1,1c-0.4,0.2-0.9,0.4-1.5,0.4
		c-0.3,0-0.6,0-0.9-0.1c-0.3-0.1-0.5-0.2-0.7-0.3l0.5-1c0.3,0.2,0.6,0.3,1,0.3c0.5,0,0.9-0.1,1.1-0.4c0.3-0.3,0.4-0.7,0.4-1.2
		c-0.3,0.3-0.8,0.5-1.4,0.5c-0.4,0-0.7-0.1-1-0.2c-0.3-0.1-0.5-0.3-0.7-0.6c-0.2-0.3-0.3-0.6-0.3-0.9c0-0.4,0.1-0.7,0.3-1
		c0.2-0.3,0.4-0.5,0.8-0.7c0.3-0.2,0.7-0.2,1.1-0.2C109.5,100.8,110.1,101.1,110.5,101.6z M109.5,103.2c0.2-0.2,0.3-0.4,0.3-0.6
		c0-0.2-0.1-0.4-0.3-0.6c-0.2-0.2-0.4-0.2-0.7-0.2c-0.3,0-0.5,0.1-0.7,0.2s-0.3,0.4-0.3,0.6c0,0.3,0.1,0.5,0.3,0.6
		c0.2,0.2,0.4,0.2,0.7,0.2C109.1,103.5,109.3,103.4,109.5,103.2z"/>
	<path d="M112.1,103.5c-0.3-0.3-0.4-0.7-0.4-1.1c0-0.5,0.1-0.8,0.4-1.1s0.6-0.4,1-0.4s0.7,0.1,1,0.4s0.4,0.7,0.4,1.1
		c0,0.5-0.1,0.8-0.4,1.1s-0.6,0.4-1,0.4S112.4,103.8,112.1,103.5z M113.6,103.1c0.1-0.1,0.2-0.4,0.2-0.7c0-0.3-0.1-0.5-0.2-0.7
		s-0.2-0.2-0.4-0.2c-0.2,0-0.3,0.1-0.4,0.2c-0.1,0.2-0.2,0.4-0.2,0.7s0.1,0.5,0.2,0.7c0.1,0.2,0.2,0.2,0.4,0.2
		C113.3,103.3,113.4,103.2,113.6,103.1z M116.5,100.9h1l-3.8,5.6h-1L116.5,100.9z M116.2,106.4c-0.2-0.1-0.4-0.3-0.5-0.5
		c-0.1-0.2-0.2-0.5-0.2-0.8c0-0.3,0.1-0.6,0.2-0.8c0.1-0.2,0.3-0.4,0.5-0.5c0.2-0.1,0.4-0.2,0.7-0.2c0.4,0,0.7,0.1,1,0.4
		c0.3,0.3,0.4,0.7,0.4,1.1c0,0.5-0.1,0.8-0.4,1.1c-0.3,0.3-0.6,0.4-1,0.4C116.7,106.6,116.4,106.5,116.2,106.4z M117.4,105.7
		c0.1-0.2,0.2-0.4,0.2-0.7c0-0.3-0.1-0.5-0.2-0.7c-0.1-0.2-0.2-0.2-0.4-0.2c-0.2,0-0.3,0.1-0.4,0.2c-0.1,0.1-0.2,0.4-0.2,0.7
		c0,0.3,0.1,0.5,0.2,0.7c0.1,0.1,0.2,0.2,0.4,0.2C117.1,105.9,117.2,105.9,117.4,105.7z"/>
</g>
<g class="st1">
	<path d="M217.5,86.8c0.3,0.3,0.4,0.6,0.4,1.1c0,0.3-0.1,0.6-0.3,0.9c-0.2,0.3-0.4,0.5-0.8,0.7c-0.3,0.2-0.8,0.2-1.3,0.2
		c-0.4,0-0.8-0.1-1.2-0.2c-0.4-0.1-0.7-0.3-1-0.4l0.5-1c0.2,0.2,0.5,0.3,0.7,0.4c0.3,0.1,0.6,0.1,0.9,0.1c0.3,0,0.6-0.1,0.8-0.2
		c0.2-0.1,0.3-0.3,0.3-0.5c0-0.5-0.3-0.7-1-0.7H215v-0.9l1.2-1.3h-2.4v-1h3.9v0.8l-1.3,1.4C216.9,86.3,217.3,86.5,217.5,86.8z"/>
</g>
<g class="st1">
	<path d="M222.2,86.8c0.3,0.3,0.4,0.6,0.4,1.1c0,0.3-0.1,0.6-0.3,0.9c-0.2,0.3-0.4,0.5-0.8,0.7c-0.3,0.2-0.8,0.2-1.3,0.2
		c-0.4,0-0.8-0.1-1.2-0.2c-0.4-0.1-0.7-0.3-1-0.4l0.5-1c0.2,0.2,0.5,0.3,0.7,0.4c0.3,0.1,0.6,0.1,0.9,0.1c0.3,0,0.6-0.1,0.8-0.2
		c0.2-0.1,0.3-0.3,0.3-0.5c0-0.5-0.3-0.7-1-0.7h-0.6v-0.9l1.2-1.3h-2.4v-1h3.9v0.8l-1.3,1.4C221.6,86.3,222,86.5,222.2,86.8z"/>
	<path d="M223.4,89.4c-0.1-0.1-0.2-0.3-0.2-0.6c0-0.2,0.1-0.4,0.2-0.6c0.1-0.1,0.3-0.2,0.6-0.2s0.4,0.1,0.6,0.2
		c0.1,0.1,0.2,0.3,0.2,0.6c0,0.2-0.1,0.4-0.2,0.6c-0.1,0.1-0.3,0.2-0.6,0.2S223.5,89.5,223.4,89.4z"/>
</g>
<g class="st1">
	<path d="M230.4,88.4h-0.9v1.2h-1.3v-1.2h-3v-0.9l2.6-3.6h1.4l-2.4,3.4h1.5v-1h1.2v1h0.9V88.4z"/>
</g>
<g class="st1">
	<path d="M235,88.5v1.1h-4.2v-0.8l2.2-2c0.2-0.2,0.4-0.4,0.5-0.6c0.1-0.2,0.1-0.3,0.1-0.5c0-0.2-0.1-0.4-0.2-0.5
		c-0.2-0.1-0.4-0.2-0.7-0.2c-0.2,0-0.5,0-0.7,0.1c-0.2,0.1-0.4,0.2-0.5,0.4l-0.9-0.6c0.2-0.3,0.5-0.6,0.9-0.8
		c0.4-0.2,0.8-0.3,1.3-0.3c0.4,0,0.8,0.1,1.1,0.2s0.6,0.3,0.7,0.6s0.3,0.5,0.3,0.9c0,0.3-0.1,0.6-0.2,0.9s-0.4,0.6-0.7,0.9l-1.3,1.2
		H235z"/>
</g>
<g class="st1">
	<path d="M235.9,86.5c-0.3-0.3-0.4-0.7-0.4-1.1c0-0.5,0.1-0.8,0.4-1.1s0.6-0.4,1-0.4c0.4,0,0.7,0.1,1,0.4s0.4,0.7,0.4,1.1
		c0,0.5-0.1,0.8-0.4,1.1s-0.6,0.4-1,0.4C236.5,87,236.1,86.8,235.9,86.5z M237.3,86.1c0.1-0.1,0.2-0.4,0.2-0.7
		c0-0.3-0.1-0.5-0.2-0.7c-0.1-0.1-0.2-0.2-0.4-0.2c-0.2,0-0.3,0.1-0.4,0.2c-0.1,0.2-0.2,0.4-0.2,0.7s0.1,0.5,0.2,0.7
		s0.2,0.2,0.4,0.2C237.1,86.3,237.2,86.2,237.3,86.1z M240.2,83.9h1l-3.8,5.6h-1L240.2,83.9z M240,89.4c-0.2-0.1-0.4-0.3-0.5-0.5
		c-0.1-0.2-0.2-0.5-0.2-0.8c0-0.3,0.1-0.6,0.2-0.8c0.1-0.2,0.3-0.4,0.5-0.5c0.2-0.1,0.4-0.2,0.7-0.2c0.4,0,0.7,0.1,1,0.4
		c0.3,0.3,0.4,0.7,0.4,1.1c0,0.5-0.1,0.8-0.4,1.1c-0.3,0.3-0.6,0.4-1,0.4C240.4,89.6,240.2,89.5,240,89.4z M241.1,88.7
		c0.1-0.2,0.2-0.4,0.2-0.7c0-0.3-0.1-0.5-0.2-0.7c-0.1-0.2-0.2-0.2-0.4-0.2c-0.2,0-0.3,0.1-0.4,0.2c-0.1,0.1-0.2,0.4-0.2,0.7
		c0,0.3,0.1,0.5,0.2,0.7c0.1,0.1,0.2,0.2,0.4,0.2C240.9,88.9,241,88.9,241.1,88.7z"/>
</g>
<g class="st1">
	<path d="M184.9,91.8c0.3,0.3,0.4,0.6,0.4,1.1c0,0.3-0.1,0.6-0.3,0.9c-0.2,0.3-0.4,0.5-0.8,0.7c-0.3,0.2-0.8,0.2-1.3,0.2
		c-0.4,0-0.8-0.1-1.2-0.2c-0.4-0.1-0.7-0.3-1-0.4l0.5-1c0.2,0.2,0.5,0.3,0.7,0.4c0.3,0.1,0.6,0.1,0.9,0.1c0.3,0,0.6-0.1,0.8-0.2
		c0.2-0.1,0.3-0.3,0.3-0.5c0-0.5-0.3-0.7-1-0.7h-0.6v-0.9l1.2-1.3h-2.4v-1h3.9v0.8l-1.3,1.4C184.3,91.3,184.7,91.5,184.9,91.8z"/>
</g>
<g class="st1">
	<path d="M190.1,93.5v1.1h-4.2v-0.8l2.2-2c0.2-0.2,0.4-0.4,0.5-0.6c0.1-0.2,0.1-0.3,0.1-0.5c0-0.2-0.1-0.4-0.2-0.5
		c-0.2-0.1-0.4-0.2-0.7-0.2c-0.2,0-0.5,0-0.7,0.1c-0.2,0.1-0.4,0.2-0.5,0.4l-0.9-0.6c0.2-0.3,0.5-0.6,0.9-0.8
		c0.4-0.2,0.8-0.3,1.3-0.3c0.4,0,0.8,0.1,1.1,0.2s0.6,0.3,0.7,0.6s0.3,0.5,0.3,0.9c0,0.3-0.1,0.6-0.2,0.9s-0.4,0.6-0.7,0.9l-1.3,1.2
		H190.1z"/>
	<path d="M191,94.4c-0.1-0.1-0.2-0.3-0.2-0.6c0-0.2,0.1-0.4,0.2-0.6c0.1-0.1,0.3-0.2,0.6-0.2s0.4,0.1,0.6,0.2
		c0.1,0.1,0.2,0.3,0.2,0.6c0,0.2-0.1,0.4-0.2,0.6c-0.1,0.1-0.3,0.2-0.6,0.2S191.1,94.5,191,94.4z"/>
</g>
<g class="st1">
	<path d="M197.1,93.5v1.1h-4.2v-0.8l2.2-2c0.2-0.2,0.4-0.4,0.5-0.6c0.1-0.2,0.1-0.3,0.1-0.5c0-0.2-0.1-0.4-0.2-0.5
		c-0.2-0.1-0.4-0.2-0.7-0.2c-0.2,0-0.5,0-0.7,0.1c-0.2,0.1-0.4,0.2-0.5,0.4l-0.9-0.6c0.2-0.3,0.5-0.6,0.9-0.8
		c0.4-0.2,0.8-0.3,1.3-0.3c0.4,0,0.8,0.1,1.1,0.2s0.6,0.3,0.7,0.6s0.3,0.5,0.3,0.9c0,0.3-0.1,0.6-0.2,0.9s-0.4,0.6-0.7,0.9l-1.3,1.2
		H197.1z"/>
	<path d="M199.8,88.9v5.6h-1.3V90h-1.1v-1H199.8z"/>
	<path d="M201,91.5c-0.3-0.3-0.4-0.7-0.4-1.1c0-0.5,0.1-0.8,0.4-1.1s0.6-0.4,1-0.4s0.7,0.1,1,0.4s0.4,0.7,0.4,1.1
		c0,0.5-0.1,0.8-0.4,1.1s-0.6,0.4-1,0.4S201.3,91.8,201,91.5z M202.5,91.1c0.1-0.1,0.2-0.4,0.2-0.7c0-0.3-0.1-0.5-0.2-0.7
		s-0.2-0.2-0.4-0.2c-0.2,0-0.3,0.1-0.4,0.2c-0.1,0.2-0.2,0.4-0.2,0.7s0.1,0.5,0.2,0.7c0.1,0.2,0.2,0.2,0.4,0.2
		C202.2,91.3,202.3,91.2,202.5,91.1z M205.4,88.9h1l-3.8,5.6h-1L205.4,88.9z M205.1,94.4c-0.2-0.1-0.4-0.3-0.5-0.5
		c-0.1-0.2-0.2-0.5-0.2-0.8c0-0.3,0.1-0.6,0.2-0.8c0.1-0.2,0.3-0.4,0.5-0.5c0.2-0.1,0.4-0.2,0.7-0.2c0.4,0,0.7,0.1,1,0.4
		c0.3,0.3,0.4,0.7,0.4,1.1c0,0.5-0.1,0.8-0.4,1.1c-0.3,0.3-0.6,0.4-1,0.4C205.6,94.6,205.3,94.5,205.1,94.4z M206.3,93.7
		c0.1-0.2,0.2-0.4,0.2-0.7c0-0.3-0.1-0.5-0.2-0.7c-0.1-0.2-0.2-0.2-0.4-0.2c-0.2,0-0.3,0.1-0.4,0.2c-0.1,0.1-0.2,0.4-0.2,0.7
		c0,0.3,0.1,0.5,0.2,0.7c0.1,0.1,0.2,0.2,0.4,0.2C206,93.9,206.1,93.9,206.3,93.7z"/>
</g>
<g class="st1">
	<path d="M150.9,93.8c0.3,0.3,0.4,0.6,0.4,1.1c0,0.3-0.1,0.6-0.3,0.9c-0.2,0.3-0.4,0.5-0.8,0.7c-0.3,0.2-0.8,0.2-1.3,0.2
		c-0.4,0-0.8-0.1-1.2-0.2c-0.4-0.1-0.7-0.3-1-0.4l0.5-1c0.2,0.2,0.5,0.3,0.7,0.4c0.3,0.1,0.6,0.1,0.9,0.1c0.3,0,0.6-0.1,0.8-0.2
		c0.2-0.1,0.3-0.3,0.3-0.5c0-0.5-0.3-0.7-1-0.7h-0.6v-0.9l1.2-1.3h-2.4v-1h3.9v0.8l-1.3,1.4C150.2,93.4,150.6,93.5,150.9,93.8z"/>
	<path d="M154,91v5.6h-1.3V92h-1.1v-1H154z"/>
</g>
<g class="st1">
	<path d="M155.2,96.4c-0.1-0.1-0.2-0.3-0.2-0.6c0-0.2,0.1-0.4,0.2-0.6c0.1-0.1,0.3-0.2,0.6-0.2s0.4,0.1,0.6,0.2
		c0.1,0.1,0.2,0.3,0.2,0.6c0,0.2-0.1,0.4-0.2,0.6c-0.1,0.1-0.3,0.2-0.6,0.2S155.3,96.6,155.2,96.4z"/>
</g>
<g class="st1">
	<path d="M160.7,93.3c0.3,0.1,0.5,0.3,0.7,0.6c0.2,0.3,0.3,0.6,0.3,0.9c0,0.4-0.1,0.7-0.3,1c-0.2,0.3-0.4,0.5-0.8,0.7
		c-0.3,0.2-0.7,0.2-1.1,0.2c-0.8,0-1.4-0.2-1.8-0.7c-0.4-0.5-0.7-1.2-0.7-2.1c0-0.6,0.1-1.2,0.4-1.6c0.2-0.5,0.6-0.8,1-1
		c0.4-0.2,0.9-0.4,1.5-0.4c0.3,0,0.6,0,0.9,0.1c0.3,0.1,0.5,0.2,0.7,0.3l-0.5,1c-0.3-0.2-0.6-0.3-1-0.3c-0.5,0-0.9,0.1-1.1,0.4
		s-0.4,0.7-0.4,1.2c0.3-0.3,0.8-0.5,1.4-0.5C160.1,93.1,160.4,93.2,160.7,93.3z M160.1,95.5c0.2-0.1,0.3-0.4,0.3-0.6
		s-0.1-0.5-0.3-0.6c-0.2-0.2-0.4-0.2-0.7-0.2c-0.3,0-0.5,0.1-0.7,0.2c-0.2,0.2-0.3,0.4-0.3,0.6s0.1,0.4,0.3,0.6
		c0.2,0.2,0.4,0.2,0.7,0.2C159.7,95.7,159.9,95.7,160.1,95.5z"/>
</g>
<g class="st1">
	<path d="M166.5,91v0.8l-2.1,4.8H163l2-4.5h-1.9V93H162v-2H166.5z"/>
</g>
<g class="st1">
	<path d="M167.4,93.6c-0.3-0.3-0.4-0.7-0.4-1.1c0-0.5,0.1-0.8,0.4-1.1s0.6-0.4,1-0.4s0.7,0.1,1,0.4s0.4,0.7,0.4,1.1
		c0,0.5-0.1,0.8-0.4,1.1s-0.6,0.4-1,0.4S167.6,93.9,167.4,93.6z M168.8,93.1c0.1-0.1,0.2-0.4,0.2-0.7c0-0.3-0.1-0.5-0.2-0.7
		s-0.2-0.2-0.4-0.2c-0.2,0-0.3,0.1-0.4,0.2c-0.1,0.2-0.2,0.4-0.2,0.7s0.1,0.5,0.2,0.7c0.1,0.2,0.2,0.2,0.4,0.2
		C168.6,93.4,168.7,93.3,168.8,93.1z M171.7,91h1l-3.8,5.6h-1L171.7,91z M171.5,96.5c-0.2-0.1-0.4-0.3-0.5-0.5
		c-0.1-0.2-0.2-0.5-0.2-0.8c0-0.3,0.1-0.6,0.2-0.8c0.1-0.2,0.3-0.4,0.5-0.5c0.2-0.1,0.4-0.2,0.7-0.2c0.4,0,0.7,0.1,1,0.4
		c0.3,0.3,0.4,0.7,0.4,1.1c0,0.5-0.1,0.8-0.4,1.1c-0.3,0.3-0.6,0.4-1,0.4C171.9,96.7,171.7,96.6,171.5,96.5z M172.6,95.8
		c0.1-0.2,0.2-0.4,0.2-0.7c0-0.3-0.1-0.5-0.2-0.7c-0.1-0.2-0.2-0.2-0.4-0.2c-0.2,0-0.3,0.1-0.4,0.2c-0.1,0.1-0.2,0.4-0.2,0.7
		c0,0.3,0.1,0.5,0.2,0.7c0.1,0.1,0.2,0.2,0.4,0.2C172.4,96,172.5,95.9,172.6,95.8z"/>
</g>
<g class="st1">
	<path d="M268.5,98.9c0.3,0.3,0.4,0.6,0.4,1.1c0,0.3-0.1,0.6-0.3,0.9c-0.2,0.3-0.4,0.5-0.8,0.7c-0.3,0.2-0.8,0.2-1.3,0.2
		c-0.4,0-0.8-0.1-1.2-0.2c-0.4-0.1-0.7-0.3-1-0.4l0.5-1c0.2,0.2,0.5,0.3,0.7,0.4s0.6,0.1,0.9,0.1c0.3,0,0.6-0.1,0.8-0.2
		c0.2-0.1,0.3-0.3,0.3-0.5c0-0.5-0.3-0.7-1-0.7H266v-0.9l1.2-1.3h-2.4v-1h3.9v0.8l-1.3,1.4C267.9,98.4,268.3,98.6,268.5,98.9z"/>
</g>
<g class="st1">
	<path d="M270.7,101.4c-0.4-0.2-0.6-0.6-0.9-1s-0.3-1-0.3-1.6s0.1-1.1,0.3-1.6c0.2-0.4,0.5-0.8,0.9-1c0.4-0.2,0.8-0.3,1.2-0.3
		s0.9,0.1,1.2,0.3c0.4,0.2,0.6,0.6,0.9,1c0.2,0.4,0.3,1,0.3,1.6s-0.1,1.1-0.3,1.6c-0.2,0.4-0.5,0.8-0.9,1s-0.8,0.3-1.2,0.3
		S271.1,101.7,270.7,101.4z M272.7,100.2c0.2-0.3,0.3-0.7,0.3-1.4s-0.1-1.1-0.3-1.4c-0.2-0.3-0.5-0.4-0.8-0.4
		c-0.3,0-0.6,0.1-0.8,0.4c-0.2,0.3-0.3,0.7-0.3,1.4s0.1,1.1,0.3,1.4c0.2,0.3,0.5,0.4,0.8,0.4C272.3,100.7,272.5,100.5,272.7,100.2z"
		/>
</g>
<g class="st1">
	<path d="M275,101.5c-0.1-0.1-0.2-0.3-0.2-0.6c0-0.2,0.1-0.4,0.2-0.6c0.1-0.1,0.3-0.2,0.6-0.2s0.4,0.1,0.6,0.2
		c0.1,0.1,0.2,0.3,0.2,0.6c0,0.2-0.1,0.4-0.2,0.6c-0.2,0.1-0.3,0.2-0.6,0.2S275.2,101.7,275,101.5z"/>
</g>
<g class="st1">
	<path d="M281.2,100.6v1.1H277v-0.8l2.2-2c0.2-0.2,0.4-0.4,0.5-0.6c0.1-0.2,0.1-0.3,0.1-0.5c0-0.2-0.1-0.4-0.2-0.5s-0.4-0.2-0.7-0.2
		c-0.2,0-0.5,0-0.7,0.1c-0.2,0.1-0.4,0.2-0.5,0.4l-0.9-0.6c0.2-0.3,0.5-0.6,0.9-0.8s0.8-0.3,1.3-0.3c0.4,0,0.8,0.1,1.1,0.2
		c0.3,0.1,0.6,0.3,0.7,0.6c0.2,0.2,0.3,0.5,0.3,0.9c0,0.3-0.1,0.6-0.2,0.9s-0.4,0.6-0.7,0.9l-1.3,1.2H281.2z"/>
</g>
<g class="st1">
	<path d="M286.2,99.3c0.1,0.2,0.2,0.5,0.2,0.8c0,0.3-0.1,0.6-0.3,0.9s-0.5,0.5-0.8,0.6c-0.4,0.1-0.8,0.2-1.2,0.2
		c-0.5,0-0.9-0.1-1.2-0.2c-0.4-0.1-0.6-0.3-0.8-0.6c-0.2-0.3-0.3-0.6-0.3-0.9c0-0.3,0.1-0.6,0.2-0.8c0.1-0.2,0.4-0.4,0.6-0.5
		c-0.2-0.1-0.4-0.3-0.5-0.5c-0.1-0.2-0.2-0.4-0.2-0.7c0-0.3,0.1-0.6,0.3-0.8c0.2-0.2,0.4-0.4,0.8-0.6s0.7-0.2,1.1-0.2
		c0.4,0,0.8,0.1,1.1,0.2s0.6,0.3,0.8,0.6c0.2,0.2,0.3,0.5,0.3,0.8c0,0.2-0.1,0.5-0.2,0.7c-0.1,0.2-0.3,0.4-0.5,0.5
		C285.9,98.9,286.1,99.1,286.2,99.3z M284.8,100.6c0.2-0.1,0.3-0.3,0.3-0.6s-0.1-0.4-0.3-0.6c-0.2-0.1-0.4-0.2-0.8-0.2
		c-0.3,0-0.6,0.1-0.8,0.2c-0.2,0.1-0.3,0.3-0.3,0.6c0,0.3,0.1,0.4,0.3,0.6c0.2,0.1,0.4,0.2,0.8,0.2
		C284.4,100.8,284.7,100.8,284.8,100.6z M283.4,97.1c-0.2,0.1-0.2,0.3-0.2,0.5c0,0.2,0.1,0.4,0.2,0.5c0.2,0.1,0.4,0.2,0.6,0.2
		s0.5-0.1,0.6-0.2c0.2-0.1,0.2-0.3,0.2-0.5c0-0.2-0.1-0.4-0.2-0.5c-0.2-0.1-0.4-0.2-0.6-0.2C283.8,96.9,283.6,97,283.4,97.1z"/>
</g>
<g class="st1">
	<path d="M287.2,98.7c-0.3-0.3-0.4-0.7-0.4-1.1c0-0.5,0.1-0.8,0.4-1.1s0.6-0.4,1-0.4c0.4,0,0.7,0.1,1,0.4s0.4,0.7,0.4,1.1
		c0,0.5-0.1,0.8-0.4,1.1s-0.6,0.4-1,0.4C287.8,99.1,287.5,99,287.2,98.7z M288.7,98.2c0.1-0.1,0.2-0.4,0.2-0.7
		c0-0.3-0.1-0.5-0.2-0.7c-0.1-0.1-0.2-0.2-0.4-0.2c-0.2,0-0.3,0.1-0.4,0.2c-0.1,0.2-0.2,0.4-0.2,0.7s0.1,0.5,0.2,0.7
		c0.1,0.2,0.2,0.2,0.4,0.2C288.4,98.4,288.6,98.4,288.7,98.2z M291.6,96.1h1l-3.8,5.6h-1L291.6,96.1z M291.3,101.6
		c-0.2-0.1-0.4-0.3-0.5-0.5s-0.2-0.5-0.2-0.8c0-0.3,0.1-0.6,0.2-0.8s0.3-0.4,0.5-0.5s0.4-0.2,0.7-0.2c0.4,0,0.7,0.1,1,0.4
		c0.3,0.3,0.4,0.7,0.4,1.1c0,0.5-0.1,0.8-0.4,1.1c-0.3,0.3-0.6,0.4-1,0.4C291.8,101.7,291.5,101.7,291.3,101.6z M292.5,100.9
		c0.1-0.2,0.2-0.4,0.2-0.7c0-0.3-0.1-0.5-0.2-0.7c-0.1-0.2-0.2-0.2-0.4-0.2c-0.2,0-0.3,0.1-0.4,0.2s-0.2,0.4-0.2,0.7
		c0,0.3,0.1,0.5,0.2,0.7c0.1,0.1,0.2,0.2,0.4,0.2C292.2,101.1,292.4,101,292.5,100.9z"/>
</g>
<g class="st1">
	<path d="M302.4,96.6c0.3,0.3,0.4,0.6,0.4,1.1c0,0.3-0.1,0.6-0.3,0.9c-0.2,0.3-0.4,0.5-0.8,0.7c-0.3,0.2-0.8,0.2-1.3,0.2
		c-0.4,0-0.8-0.1-1.2-0.2c-0.4-0.1-0.7-0.3-1-0.4l0.5-1c0.2,0.2,0.5,0.3,0.7,0.4c0.3,0.1,0.6,0.1,0.9,0.1c0.3,0,0.6-0.1,0.8-0.2
		c0.2-0.1,0.3-0.3,0.3-0.5c0-0.5-0.3-0.7-1-0.7h-0.6v-0.9l1.2-1.3h-2.4v-1h3.9v0.8l-1.3,1.4C301.7,96.1,302.1,96.3,302.4,96.6z"/>
</g>
<g class="st1">
	<path d="M304.5,99.1c-0.4-0.2-0.6-0.6-0.9-1s-0.3-1-0.3-1.6s0.1-1.1,0.3-1.6c0.2-0.4,0.5-0.8,0.9-1c0.4-0.2,0.8-0.3,1.2-0.3
		s0.9,0.1,1.2,0.3c0.4,0.2,0.6,0.6,0.9,1c0.2,0.4,0.3,1,0.3,1.6s-0.1,1.1-0.3,1.6c-0.2,0.4-0.5,0.8-0.9,1s-0.8,0.3-1.2,0.3
		S304.9,99.4,304.5,99.1z M306.6,97.9c0.2-0.3,0.3-0.7,0.3-1.4s-0.1-1.1-0.3-1.4c-0.2-0.3-0.5-0.4-0.8-0.4c-0.3,0-0.6,0.1-0.8,0.4
		c-0.2,0.3-0.3,0.7-0.3,1.4s0.1,1.1,0.3,1.4c0.2,0.3,0.5,0.4,0.8,0.4C306.1,98.4,306.4,98.2,306.6,97.9z"/>
</g>
<g class="st1">
	<path d="M308.9,99.2c-0.1-0.1-0.2-0.3-0.2-0.6c0-0.2,0.1-0.4,0.2-0.6c0.1-0.1,0.3-0.2,0.6-0.2s0.4,0.1,0.6,0.2
		c0.1,0.1,0.2,0.3,0.2,0.6c0,0.2-0.1,0.4-0.2,0.6c-0.1,0.1-0.3,0.2-0.6,0.2S309,99.4,308.9,99.2z"/>
</g>
<g class="st1">
	<path d="M315.3,97c0.1,0.2,0.2,0.5,0.2,0.8c0,0.3-0.1,0.6-0.3,0.9s-0.5,0.5-0.8,0.6c-0.4,0.1-0.8,0.2-1.2,0.2
		c-0.5,0-0.9-0.1-1.2-0.2c-0.4-0.1-0.6-0.3-0.8-0.6s-0.3-0.6-0.3-0.9c0-0.3,0.1-0.6,0.2-0.8c0.1-0.2,0.4-0.4,0.6-0.5
		c-0.2-0.1-0.4-0.3-0.5-0.5c-0.1-0.2-0.2-0.4-0.2-0.7c0-0.3,0.1-0.6,0.3-0.8c0.2-0.2,0.4-0.4,0.8-0.6c0.3-0.1,0.7-0.2,1.1-0.2
		c0.4,0,0.8,0.1,1.1,0.2c0.3,0.1,0.6,0.3,0.8,0.6c0.2,0.2,0.3,0.5,0.3,0.8c0,0.2-0.1,0.5-0.2,0.7c-0.1,0.2-0.3,0.4-0.5,0.5
		C315,96.6,315.2,96.8,315.3,97z M314,98.3c0.2-0.1,0.3-0.3,0.3-0.6s-0.1-0.4-0.3-0.6c-0.2-0.1-0.4-0.2-0.8-0.2
		c-0.3,0-0.6,0.1-0.8,0.2c-0.2,0.1-0.3,0.3-0.3,0.6c0,0.3,0.1,0.4,0.3,0.6c0.2,0.1,0.4,0.2,0.8,0.2C313.5,98.5,313.8,98.5,314,98.3z
		 M312.6,94.8c-0.2,0.1-0.2,0.3-0.2,0.5c0,0.2,0.1,0.4,0.2,0.5c0.2,0.1,0.4,0.2,0.6,0.2s0.5-0.1,0.6-0.2c0.2-0.1,0.2-0.3,0.2-0.5
		c0-0.2-0.1-0.4-0.2-0.5c-0.2-0.1-0.4-0.2-0.6-0.2C312.9,94.6,312.7,94.7,312.6,94.8z"/>
</g>
<g class="st1">
	<path d="M319.8,96.4c0.4,0.3,0.6,0.7,0.6,1.3c0,0.3-0.1,0.7-0.3,0.9s-0.4,0.5-0.8,0.7c-0.3,0.2-0.8,0.3-1.3,0.3
		c-0.4,0-0.8-0.1-1.2-0.2c-0.4-0.1-0.7-0.3-1-0.4l0.5-1c0.2,0.2,0.5,0.3,0.7,0.4s0.6,0.1,0.9,0.1c0.3,0,0.6-0.1,0.8-0.2
		s0.3-0.3,0.3-0.5c0-0.2-0.1-0.4-0.3-0.5c-0.2-0.1-0.5-0.2-1-0.2h-1.4l0.3-3.2h3.4v1h-2.3l-0.1,1.1h0.5
		C318.9,95.9,319.4,96.1,319.8,96.4z"/>
</g>
<g class="st1">
	<path d="M321.1,96.4c-0.3-0.3-0.4-0.7-0.4-1.1c0-0.5,0.1-0.8,0.4-1.1s0.6-0.4,1-0.4s0.7,0.1,1,0.4s0.4,0.7,0.4,1.1
		c0,0.5-0.1,0.8-0.4,1.1s-0.6,0.4-1,0.4S321.4,96.7,321.1,96.4z M322.6,95.9c0.1-0.1,0.2-0.4,0.2-0.7c0-0.3-0.1-0.5-0.2-0.7
		c-0.1-0.1-0.2-0.2-0.4-0.2c-0.2,0-0.3,0.1-0.4,0.2c-0.1,0.2-0.2,0.4-0.2,0.7s0.1,0.5,0.2,0.7s0.2,0.2,0.4,0.2
		C322.3,96.2,322.5,96.1,322.6,95.9z M325.5,93.8h1l-3.8,5.6h-1L325.5,93.8z M325.2,99.3c-0.2-0.1-0.4-0.3-0.5-0.5
		c-0.1-0.2-0.2-0.5-0.2-0.8c0-0.3,0.1-0.6,0.2-0.8c0.1-0.2,0.3-0.4,0.5-0.5c0.2-0.1,0.4-0.2,0.7-0.2c0.4,0,0.7,0.1,1,0.4
		c0.3,0.3,0.4,0.7,0.4,1.1c0,0.5-0.1,0.8-0.4,1.1c-0.3,0.3-0.6,0.4-1,0.4C325.7,99.5,325.4,99.4,325.2,99.3z M326.4,98.6
		c0.1-0.2,0.2-0.4,0.2-0.7c0-0.3-0.1-0.5-0.2-0.7c-0.1-0.2-0.2-0.2-0.4-0.2c-0.2,0-0.3,0.1-0.4,0.2c-0.1,0.1-0.2,0.4-0.2,0.7
		c0,0.3,0.1,0.5,0.2,0.7c0.1,0.1,0.2,0.2,0.4,0.2C326.1,98.8,326.3,98.7,326.4,98.6z"/>
</g>
<g class="st1">
	<path d="M338.2,95c0.3,0.3,0.4,0.6,0.4,1.1c0,0.3-0.1,0.6-0.3,0.9c-0.2,0.3-0.4,0.5-0.8,0.7c-0.3,0.2-0.8,0.2-1.3,0.2
		c-0.4,0-0.8-0.1-1.2-0.2c-0.4-0.1-0.7-0.3-1-0.4l0.5-1c0.2,0.2,0.5,0.3,0.7,0.4s0.6,0.1,0.9,0.1c0.3,0,0.6-0.1,0.8-0.2
		c0.2-0.1,0.3-0.3,0.3-0.5c0-0.5-0.3-0.7-1-0.7h-0.6v-0.9l1.2-1.3h-2.4v-1h3.9V93l-1.3,1.4C337.5,94.5,337.9,94.7,338.2,95z"/>
	<path d="M341.3,92.2v5.6H340v-4.6h-1.1v-1H341.3z"/>
</g>
<g class="st1">
	<path d="M342.5,97.6c-0.1-0.1-0.2-0.3-0.2-0.6c0-0.2,0.1-0.4,0.2-0.6c0.1-0.1,0.3-0.2,0.6-0.2s0.4,0.1,0.6,0.2
		c0.1,0.1,0.2,0.3,0.2,0.6c0,0.2-0.1,0.4-0.2,0.6c-0.1,0.1-0.3,0.2-0.6,0.2S342.6,97.8,342.5,97.6z"/>
</g>
<g class="st1">
	<path d="M346.4,92.2v5.6h-1.3v-4.6H344v-1H346.4z"/>
	<path d="M351.2,92.8c0.4,0.5,0.7,1.2,0.7,2.1c0,0.6-0.1,1.2-0.4,1.6s-0.6,0.8-1,1s-0.9,0.4-1.5,0.4c-0.3,0-0.6,0-0.9-0.1
		c-0.3-0.1-0.5-0.2-0.7-0.3l0.5-1c0.3,0.2,0.6,0.3,1,0.3c0.5,0,0.9-0.1,1.1-0.4c0.3-0.3,0.4-0.7,0.4-1.2c-0.3,0.3-0.8,0.5-1.4,0.5
		c-0.4,0-0.7-0.1-1-0.2c-0.3-0.1-0.5-0.3-0.7-0.6c-0.2-0.3-0.3-0.6-0.3-0.9c0-0.4,0.1-0.7,0.3-1c0.2-0.3,0.4-0.5,0.8-0.7
		c0.3-0.2,0.7-0.2,1.1-0.2C350.1,92.1,350.8,92.3,351.2,92.8z M350.1,94.5c0.2-0.2,0.3-0.4,0.3-0.6c0-0.2-0.1-0.4-0.3-0.6
		c-0.2-0.2-0.4-0.2-0.7-0.2c-0.3,0-0.5,0.1-0.7,0.2c-0.2,0.1-0.3,0.4-0.3,0.6c0,0.3,0.1,0.5,0.3,0.6c0.2,0.2,0.4,0.2,0.7,0.2
		C349.7,94.7,350,94.6,350.1,94.5z"/>
	<path d="M352.8,94.8c-0.3-0.3-0.4-0.7-0.4-1.1c0-0.5,0.1-0.8,0.4-1.1s0.6-0.4,1-0.4c0.4,0,0.7,0.1,1,0.4s0.4,0.7,0.4,1.1
		c0,0.5-0.1,0.8-0.4,1.1s-0.6,0.4-1,0.4C353.4,95.2,353,95.1,352.8,94.8z M354.2,94.3c0.1-0.1,0.2-0.4,0.2-0.7
		c0-0.3-0.1-0.5-0.2-0.7c-0.1-0.1-0.2-0.2-0.4-0.2c-0.2,0-0.3,0.1-0.4,0.2c-0.1,0.2-0.2,0.4-0.2,0.7s0.1,0.5,0.2,0.7
		c0.1,0.2,0.2,0.2,0.4,0.2C354,94.5,354.1,94.5,354.2,94.3z M357.1,92.2h1l-3.8,5.6h-1L357.1,92.2z M356.9,97.7
		c-0.2-0.1-0.4-0.3-0.5-0.5s-0.2-0.5-0.2-0.8c0-0.3,0.1-0.6,0.2-0.8s0.3-0.4,0.5-0.5s0.4-0.2,0.7-0.2c0.4,0,0.7,0.1,1,0.4
		c0.3,0.3,0.4,0.7,0.4,1.1c0,0.5-0.1,0.8-0.4,1.1c-0.3,0.3-0.6,0.4-1,0.4C357.3,97.8,357.1,97.8,356.9,97.7z M358,97
		c0.1-0.2,0.2-0.4,0.2-0.7c0-0.3-0.1-0.5-0.2-0.7c-0.1-0.2-0.2-0.2-0.4-0.2c-0.2,0-0.3,0.1-0.4,0.2S357,96,357,96.3
		c0,0.3,0.1,0.5,0.2,0.7c0.1,0.1,0.2,0.2,0.4,0.2C357.8,97.2,357.9,97.1,358,97z"/>
</g>
<g class="st1">
	<path d="M385.5,59.4h-0.9v1.2h-1.3v-1.2h-3v-0.9l2.6-3.6h1.4l-2.4,3.4h1.5v-1h1.2v1h0.9V59.4z"/>
</g>
<g class="st1">
	<path d="M387.8,55v5.6h-1.3V56h-1.1v-1H387.8z"/>
</g>
<g class="st1">
	<path d="M389,60.4c-0.1-0.1-0.2-0.3-0.2-0.6c0-0.2,0.1-0.4,0.2-0.6c0.1-0.1,0.3-0.2,0.6-0.2s0.4,0.1,0.6,0.2
		c0.1,0.1,0.2,0.3,0.2,0.6c0,0.2-0.1,0.4-0.2,0.6c-0.1,0.1-0.3,0.2-0.6,0.2S389.1,60.6,389,60.4z"/>
</g>
<g class="st1">
	<path d="M395.1,55v0.8l-2.1,4.8h-1.4l2-4.5h-1.9V57h-1.2v-2H395.1z"/>
</g>
<g class="st1">
	<path d="M396.7,60.4c-0.4-0.2-0.6-0.6-0.9-1s-0.3-1-0.3-1.6s0.1-1.1,0.3-1.6c0.2-0.4,0.5-0.8,0.9-1c0.4-0.2,0.8-0.3,1.2-0.3
		c0.5,0,0.9,0.1,1.2,0.3c0.4,0.2,0.6,0.6,0.9,1c0.2,0.4,0.3,1,0.3,1.6s-0.1,1.1-0.3,1.6c-0.2,0.4-0.5,0.8-0.9,1
		c-0.4,0.2-0.8,0.3-1.2,0.3C397.5,60.7,397.1,60.6,396.7,60.4z M398.7,59.2c0.2-0.3,0.3-0.7,0.3-1.4s-0.1-1.1-0.3-1.4
		c-0.2-0.3-0.5-0.4-0.8-0.4c-0.3,0-0.6,0.1-0.8,0.4c-0.2,0.3-0.3,0.7-0.3,1.4s0.1,1.1,0.3,1.4c0.2,0.3,0.5,0.4,0.8,0.4
		C398.3,59.6,398.6,59.5,398.7,59.2z"/>
	<path d="M401.3,57.6c-0.3-0.3-0.4-0.7-0.4-1.1c0-0.5,0.1-0.8,0.4-1.1s0.6-0.4,1-0.4s0.7,0.1,1,0.4s0.4,0.7,0.4,1.1
		c0,0.5-0.1,0.8-0.4,1.1s-0.6,0.4-1,0.4S401.5,57.9,401.3,57.6z M402.7,57.1c0.1-0.1,0.2-0.4,0.2-0.7c0-0.3-0.1-0.5-0.2-0.7
		c-0.1-0.1-0.2-0.2-0.4-0.2c-0.2,0-0.3,0.1-0.4,0.2c-0.1,0.2-0.2,0.4-0.2,0.7s0.1,0.5,0.2,0.7c0.1,0.2,0.2,0.2,0.4,0.2
		C402.5,57.4,402.6,57.3,402.7,57.1z M405.6,55h1l-3.8,5.6h-1L405.6,55z M405.4,60.5c-0.2-0.1-0.4-0.3-0.5-0.5s-0.2-0.5-0.2-0.8
		c0-0.3,0.1-0.6,0.2-0.8s0.3-0.4,0.5-0.5s0.4-0.2,0.7-0.2c0.4,0,0.7,0.1,1,0.4c0.3,0.3,0.4,0.7,0.4,1.1c0,0.5-0.1,0.8-0.4,1.1
		c-0.3,0.3-0.6,0.4-1,0.4C405.8,60.7,405.6,60.6,405.4,60.5z M406.5,59.8c0.1-0.2,0.2-0.4,0.2-0.7c0-0.3-0.1-0.5-0.2-0.7
		c-0.1-0.2-0.2-0.2-0.4-0.2c-0.2,0-0.3,0.1-0.4,0.2s-0.2,0.4-0.2,0.7c0,0.3,0.1,0.5,0.2,0.7c0.1,0.1,0.2,0.2,0.4,0.2
		C406.3,60,406.4,59.9,406.5,59.8z"/>
</g>
<g class="st1">
	<path d="M419.3,59.4h-0.9v1.2h-1.3v-1.2h-3v-0.9l2.6-3.6h1.4l-2.4,3.4h1.5v-1h1.2v1h0.9V59.4z"/>
</g>
<g class="st1">
	<path d="M421.6,55v5.6h-1.3V56h-1.1v-1H421.6z"/>
</g>
<g class="st1">
	<path d="M422.8,60.4c-0.1-0.1-0.2-0.3-0.2-0.6c0-0.2,0.1-0.4,0.2-0.6c0.1-0.1,0.3-0.2,0.6-0.2s0.4,0.1,0.6,0.2
		c0.1,0.1,0.2,0.3,0.2,0.6c0,0.2-0.1,0.4-0.2,0.6c-0.1,0.1-0.3,0.2-0.6,0.2S423,60.6,422.8,60.4z"/>
</g>
<g class="st1">
	<path d="M429,55v0.8l-2.1,4.8h-1.4l2-4.5h-1.9V57h-1.2v-2H429z"/>
</g>
<g class="st1">
	<path d="M430.6,60.4c-0.4-0.2-0.6-0.6-0.9-1c-0.2-0.4-0.3-1-0.3-1.6s0.1-1.1,0.3-1.6c0.2-0.4,0.5-0.8,0.9-1
		c0.4-0.2,0.8-0.3,1.2-0.3s0.9,0.1,1.2,0.3c0.4,0.2,0.6,0.6,0.9,1c0.2,0.4,0.3,1,0.3,1.6s-0.1,1.1-0.3,1.6s-0.5,0.8-0.9,1
		c-0.4,0.2-0.8,0.3-1.2,0.3S430.9,60.6,430.6,60.4z M432.6,59.2c0.2-0.3,0.3-0.7,0.3-1.4s-0.1-1.1-0.3-1.4c-0.2-0.3-0.5-0.4-0.8-0.4
		c-0.3,0-0.6,0.1-0.8,0.4c-0.2,0.3-0.3,0.7-0.3,1.4s0.1,1.1,0.3,1.4c0.2,0.3,0.5,0.4,0.8,0.4C432.1,59.6,432.4,59.5,432.6,59.2z"/>
	<path d="M435.1,57.6c-0.3-0.3-0.4-0.7-0.4-1.1c0-0.5,0.1-0.8,0.4-1.1s0.6-0.4,1-0.4c0.4,0,0.7,0.1,1,0.4s0.4,0.7,0.4,1.1
		c0,0.5-0.1,0.8-0.4,1.1s-0.6,0.4-1,0.4C435.7,58,435.4,57.9,435.1,57.6z M436.5,57.1c0.1-0.1,0.2-0.4,0.2-0.7
		c0-0.3-0.1-0.5-0.2-0.7c-0.1-0.1-0.2-0.2-0.4-0.2c-0.2,0-0.3,0.1-0.4,0.2c-0.1,0.2-0.2,0.4-0.2,0.7s0.1,0.5,0.2,0.7
		s0.2,0.2,0.4,0.2C436.3,57.4,436.4,57.3,436.5,57.1z M439.5,55h1l-3.8,5.6h-1L439.5,55z M439.2,60.5c-0.2-0.1-0.4-0.3-0.5-0.5
		c-0.1-0.2-0.2-0.5-0.2-0.8c0-0.3,0.1-0.6,0.2-0.8c0.1-0.2,0.3-0.4,0.5-0.5c0.2-0.1,0.4-0.2,0.7-0.2c0.4,0,0.7,0.1,1,0.4
		c0.3,0.3,0.4,0.7,0.4,1.1c0,0.5-0.1,0.8-0.4,1.1c-0.3,0.3-0.6,0.4-1,0.4C439.7,60.7,439.4,60.6,439.2,60.5z M440.3,59.8
		c0.1-0.2,0.2-0.4,0.2-0.7c0-0.3-0.1-0.5-0.2-0.7c-0.1-0.2-0.2-0.2-0.4-0.2c-0.2,0-0.3,0.1-0.4,0.2c-0.1,0.1-0.2,0.4-0.2,0.7
		c0,0.3,0.1,0.5,0.2,0.7c0.1,0.1,0.2,0.2,0.4,0.2C440.1,60,440.2,59.9,440.3,59.8z"/>
</g>
<g class="st1">
	<path d="M453,59.4h-0.9v1.2h-1.3v-1.2h-3v-0.9l2.6-3.6h1.4l-2.4,3.4h1.5v-1h1.2v1h0.9V59.4z"/>
</g>
<g class="st1">
	<path d="M455.4,55v5.6h-1.3V56h-1.1v-1H455.4z"/>
</g>
<g class="st1">
	<path d="M456.5,60.4c-0.1-0.1-0.2-0.3-0.2-0.6c0-0.2,0.1-0.4,0.2-0.6c0.1-0.1,0.3-0.2,0.6-0.2s0.4,0.1,0.6,0.2
		c0.1,0.1,0.2,0.3,0.2,0.6c0,0.2-0.1,0.4-0.2,0.6s-0.3,0.2-0.6,0.2S456.7,60.6,456.5,60.4z"/>
</g>
<g class="st1">
	<path d="M462.7,55v0.8l-2.1,4.8h-1.4l2-4.5h-1.9V57h-1.2v-2H462.7z"/>
</g>
<g class="st1">
	<path d="M464.3,60.4c-0.4-0.2-0.6-0.6-0.9-1s-0.3-1-0.3-1.6s0.1-1.1,0.3-1.6c0.2-0.4,0.5-0.8,0.9-1c0.4-0.2,0.8-0.3,1.2-0.3
		s0.9,0.1,1.2,0.3c0.4,0.2,0.6,0.6,0.9,1c0.2,0.4,0.3,1,0.3,1.6s-0.1,1.1-0.3,1.6c-0.2,0.4-0.5,0.8-0.9,1s-0.8,0.3-1.2,0.3
		S464.6,60.6,464.3,60.4z M466.3,59.2c0.2-0.3,0.3-0.7,0.3-1.4s-0.1-1.1-0.3-1.4c-0.2-0.3-0.5-0.4-0.8-0.4c-0.3,0-0.6,0.1-0.8,0.4
		c-0.2,0.3-0.3,0.7-0.3,1.4s0.1,1.1,0.3,1.4c0.2,0.3,0.5,0.4,0.8,0.4C465.9,59.6,466.1,59.5,466.3,59.2z"/>
	<path d="M468.8,57.6c-0.3-0.3-0.4-0.7-0.4-1.1c0-0.5,0.1-0.8,0.4-1.1s0.6-0.4,1-0.4c0.4,0,0.7,0.1,1,0.4s0.4,0.7,0.4,1.1
		c0,0.5-0.1,0.8-0.4,1.1s-0.6,0.4-1,0.4C469.4,58,469.1,57.9,468.8,57.6z M470.3,57.1c0.1-0.1,0.2-0.4,0.2-0.7
		c0-0.3-0.1-0.5-0.2-0.7c-0.1-0.1-0.2-0.2-0.4-0.2c-0.2,0-0.3,0.1-0.4,0.2c-0.1,0.2-0.2,0.4-0.2,0.7s0.1,0.5,0.2,0.7
		c0.1,0.2,0.2,0.2,0.4,0.2C470,57.4,470.2,57.3,470.3,57.1z M473.2,55h1l-3.8,5.6h-1L473.2,55z M472.9,60.5
		c-0.2-0.1-0.4-0.3-0.5-0.5s-0.2-0.5-0.2-0.8c0-0.3,0.1-0.6,0.2-0.8s0.3-0.4,0.5-0.5s0.4-0.2,0.7-0.2c0.4,0,0.7,0.1,1,0.4
		c0.3,0.3,0.4,0.7,0.4,1.1c0,0.5-0.1,0.8-0.4,1.1c-0.3,0.3-0.6,0.4-1,0.4C473.4,60.7,473.1,60.6,472.9,60.5z M474.1,59.8
		c0.1-0.2,0.2-0.4,0.2-0.7c0-0.3-0.1-0.5-0.2-0.7c-0.1-0.2-0.2-0.2-0.4-0.2c-0.2,0-0.3,0.1-0.4,0.2s-0.2,0.4-0.2,0.7
		c0,0.3,0.1,0.5,0.2,0.7c0.1,0.1,0.2,0.2,0.4,0.2C473.8,60,474,59.9,474.1,59.8z"/>
</g>
</svg>
