<?xml version="1.0" encoding="utf-8"?>
<!-- Generator: Adobe Illustrator 24.1.0, SVG Export Plug-In . SVG Version: 6.00 Build 0)  -->
<svg version="1.1" id="Layer_1" xmlns="http://www.w3.org/2000/svg" xmlns:xlink="http://www.w3.org/1999/xlink" x="0px" y="0px"
	 viewBox="0 0 504 277.7" style="enable-background:new 0 0 504 277.7;" xml:space="preserve">
<style type="text/css">
	.st0{fill:#FFFFFF;}
	.st1{opacity:0.2;}
	.st2{fill:#017DB9;}
	.st3{enable-background:new    ;}
	.st4{fill:#ED4328;}
</style>
<rect class="st0" width="504" height="277.7"/>
<g class="st1">
	<rect x="41.2" y="55.8" width="421.7" height="0.5"/>
</g>
<g class="st1">
	<rect x="41.2" y="82.5" width="421.7" height="0.5"/>
</g>
<g class="st1">
	<rect x="41.2" y="109.5" width="421.7" height="0.5"/>
</g>
<g class="st1">
	<rect x="41.2" y="135.5" width="421.7" height="0.5"/>
</g>
<g class="st1">
	<rect x="41.2" y="162.2" width="421.7" height="0.5"/>
</g>
<g class="st1">
	<rect x="41.2" y="188.8" width="421.7" height="0.5"/>
</g>
<g class="st1">
	<rect x="41.2" y="215.5" width="421.7" height="0.5"/>
</g>
<path class="st2" d="M199.9,255.9l1.1-1.1l0,0l4.3-4.3l-4.3-4.3l0,0l-1.1-1.1l-5.5,5.5L199.9,255.9z M195.9,249.7l0.8,0.8l-0.8,0.8
	l-0.8-0.8L195.9,249.7z M203.9,251.2l-0.8-0.8l0.8-0.8l0.8,0.8L203.9,251.2z M200.6,254.4L200.6,254.4l-0.8,0.8l-1.8-1.8l1.4-1.4
	l-1.5-1.4l-1,1.1l0.7,0.7l0.4-0.4l-0.4-0.4l0.4-0.4l0.8,0.8l-1.1,1.1l-1.5-1.5l1.1-1.1l-1.1-1.1l1.5-1.5l1.1,1.1l-0.8,0.8l-0.4-0.4
	l0.4-0.4l-0.4-0.4l-0.7,0.7l1.1,1.1l1.5-1.5l-1.4-1.4l1-1l0,0l0.8-0.8l0.8,0.8l0,0l1,1l-1.4,1.4l1.5,1.5l1.1-1.1l-0.7-0.7l-0.4,0.4
	l0.4,0.4l-0.4,0.4l-0.8-0.8l1.1-1.1l1.5,1.5l-1.1,1.1l1.1,1.1l-1.5,1.5l-1.1-1.1l0.8-0.8l0.4,0.4l-0.4,0.4l0.4,0.4l0.7-0.7l-1.1-1.1
	l-1.5,1.4l1.4,1.4L200.6,254.4z"/>
<rect x="199" y="252.6" transform="matrix(0.7071 -0.7071 0.7071 0.7071 -120.6647 215.5443)" class="st2" width="1.7" height="1.7"/>
<rect x="199" y="246.6" transform="matrix(0.7071 -0.7071 0.7071 0.7071 -116.4356 213.7913)" class="st2" width="1.7" height="1.7"/>
<g class="st3">
	<path d="M215.2,251.4c0-0.3-0.1-0.5-0.3-0.7s-0.6-0.4-1.1-0.5c-0.7-0.2-1.2-0.4-1.5-0.7c-0.4-0.3-0.5-0.7-0.5-1.2
		c0-0.5,0.2-0.9,0.6-1.3s0.9-0.5,1.5-0.5c0.7,0,1.2,0.2,1.6,0.6c0.4,0.4,0.6,0.8,0.6,1.3l0,0h-0.8c0-0.4-0.1-0.7-0.4-0.9
		c-0.3-0.2-0.6-0.4-1-0.4c-0.4,0-0.7,0.1-0.9,0.3c-0.2,0.2-0.3,0.5-0.3,0.8c0,0.3,0.1,0.5,0.4,0.7c0.2,0.2,0.6,0.3,1.1,0.5
		c0.6,0.2,1.1,0.4,1.5,0.7c0.3,0.3,0.5,0.7,0.5,1.2c0,0.5-0.2,0.9-0.6,1.2s-0.9,0.5-1.6,0.5c-0.6,0-1.2-0.2-1.6-0.5
		s-0.7-0.8-0.7-1.4l0,0h0.8c0,0.4,0.2,0.7,0.5,0.9c0.3,0.2,0.6,0.3,1,0.3c0.4,0,0.7-0.1,1-0.3S215.2,251.7,215.2,251.4z"/>
	<path d="M218.4,247.1v1.1h0.9v0.6h-0.9v2.9c0,0.2,0,0.4,0.1,0.5c0.1,0.1,0.2,0.1,0.4,0.1c0,0,0.1,0,0.2,0c0.1,0,0.1,0,0.2,0
		l0.1,0.6c-0.1,0.1-0.2,0.1-0.3,0.1c-0.1,0-0.3,0-0.4,0c-0.4,0-0.6-0.1-0.8-0.3c-0.2-0.2-0.3-0.5-0.3-1v-2.9h-0.8v-0.6h0.8v-1.1
		H218.4z"/>
	<path d="M223.3,252.3c-0.1,0.3-0.3,0.5-0.6,0.6s-0.5,0.2-0.8,0.2c-0.5,0-0.9-0.2-1.2-0.5s-0.4-0.8-0.4-1.5v-2.8h0.9v2.8
		c0,0.5,0.1,0.9,0.2,1s0.4,0.3,0.7,0.3c0.3,0,0.6-0.1,0.8-0.2c0.2-0.1,0.4-0.3,0.5-0.5v-3.4h0.9v4.8h-0.8L223.3,252.3z"/>
	<path d="M226.1,248.2l0.1,0.7c0.2-0.3,0.4-0.4,0.6-0.6c0.2-0.1,0.5-0.2,0.8-0.2c0.5,0,0.9,0.2,1.2,0.5c0.3,0.3,0.4,0.8,0.4,1.4v3
		h-0.9v-3c0-0.4-0.1-0.7-0.2-0.9c-0.2-0.2-0.4-0.3-0.8-0.3c-0.3,0-0.5,0.1-0.7,0.2c-0.2,0.1-0.3,0.3-0.4,0.5v3.5h-0.9v-4.8H226.1z"
		/>
	<path d="M231.7,247.1v1.1h0.9v0.6h-0.9v2.9c0,0.2,0,0.4,0.1,0.5c0.1,0.1,0.2,0.1,0.4,0.1c0,0,0.1,0,0.2,0c0.1,0,0.1,0,0.2,0
		l0.1,0.6c-0.1,0.1-0.2,0.1-0.3,0.1c-0.1,0-0.3,0-0.4,0c-0.4,0-0.6-0.1-0.8-0.3c-0.2-0.2-0.3-0.5-0.3-1v-2.9h-0.8v-0.6h0.8v-1.1
		H231.7z"/>
	<path d="M234.4,247h-0.9v-0.9h0.9V247z M234.4,253h-0.9v-4.8h0.9V253z"/>
	<path d="M236.5,248.2l0.1,0.7c0.2-0.3,0.4-0.4,0.6-0.6c0.2-0.1,0.5-0.2,0.8-0.2c0.5,0,0.9,0.2,1.2,0.5c0.3,0.3,0.4,0.8,0.4,1.4v3
		h-0.9v-3c0-0.4-0.1-0.7-0.2-0.9c-0.2-0.2-0.4-0.3-0.8-0.3c-0.3,0-0.5,0.1-0.7,0.2c-0.2,0.1-0.3,0.3-0.4,0.5v3.5h-0.9v-4.8H236.5z"
		/>
	<path d="M240.7,250.7c0-0.8,0.2-1.4,0.5-1.9c0.3-0.5,0.8-0.7,1.4-0.7c0.3,0,0.6,0.1,0.8,0.2c0.2,0.1,0.4,0.3,0.6,0.5l0.1-0.6h0.7
		v4.8c0,0.6-0.2,1.1-0.5,1.4c-0.4,0.3-0.9,0.5-1.5,0.5c-0.2,0-0.5,0-0.7-0.1c-0.3-0.1-0.5-0.1-0.7-0.3l0.1-0.7
		c0.2,0.1,0.4,0.2,0.6,0.2c0.2,0.1,0.5,0.1,0.7,0.1c0.4,0,0.7-0.1,0.9-0.3c0.2-0.2,0.3-0.5,0.3-0.9v-0.5c-0.2,0.2-0.3,0.3-0.6,0.5
		s-0.5,0.2-0.8,0.2c-0.6,0-1-0.2-1.4-0.6C240.9,252,240.7,251.5,240.7,250.7L240.7,250.7z M241.6,250.8c0,0.5,0.1,0.9,0.3,1.2
		s0.5,0.4,0.9,0.4c0.3,0,0.5-0.1,0.7-0.2c0.2-0.1,0.3-0.3,0.4-0.5v-2.2c-0.1-0.2-0.3-0.4-0.4-0.5c-0.2-0.1-0.4-0.2-0.6-0.2
		c-0.4,0-0.7,0.2-0.9,0.5C241.7,249.7,241.6,250.2,241.6,250.8L241.6,250.8z"/>
</g>
<path class="st4" d="M265.6,255.9l1.1-1.1l0,0l4.3-4.3l-4.3-4.3l0,0l-1.1-1.1l-5.5,5.5L265.6,255.9z M261.6,249.7l0.8,0.8l-0.8,0.8
	l-0.8-0.8L261.6,249.7z M269.6,251.2l-0.8-0.8l0.8-0.8l0.8,0.8L269.6,251.2z M266.4,254.4L266.4,254.4l-0.8,0.8l-1.8-1.8l1.4-1.4
	l-1.5-1.4l-1.1,1.1l0.7,0.7l0.4-0.4l-0.4-0.4l0.4-0.4l0.8,0.8l-1.1,1.1l-1.5-1.5l1.1-1.1l-1.1-1.1l1.5-1.5l1.1,1.1l-0.8,0.8
	l-0.4-0.4l0.4-0.4l-0.4-0.4l-0.7,0.7l1.1,1.1l1.5-1.5l-1.4-1.4l1-1l0,0l0.8-0.8l0.8,0.8l0,0l1,1l-1.4,1.4l1.5,1.5l1.1-1.1l-0.7-0.7
	l-0.4,0.4l0.4,0.4l-0.4,0.4l-0.8-0.8l1.1-1.1l1.5,1.5l-1.1,1.1l1.1,1.1l-1.5,1.5l-1.1-1.1l0.8-0.8l0.4,0.4l-0.4,0.4l0.4,0.4l0.7-0.7
	l-1.1-1.1L266,252l1.4,1.4L266.4,254.4z"/>
<rect x="264.7" y="252.6" transform="matrix(0.7071 -0.7071 0.7071 0.7071 -101.4022 262.0386)" class="st4" width="1.7" height="1.7"/>
<rect x="264.7" y="246.6" transform="matrix(0.7071 -0.7071 0.7071 0.7071 -97.1731 260.2856)" class="st4" width="1.7" height="1.7"/>
<g class="st3">
	<path d="M278.9,250.8l0.1,0.8l0,0l0.1-0.8l1.1-4.2h0.8l1.1,4.2l0.1,0.9h0l0.1-0.9l0.9-4.2h0.9l-1.5,6.4h-0.8l-1.3-4.4l-0.1-0.6h0
		l-0.1,0.6l-1.3,4.4h-0.8l-1.5-6.4h0.9L278.9,250.8z"/>
</g>
<g class="st3">
	<path d="M288,253c0-0.1-0.1-0.3-0.1-0.4c0-0.1,0-0.2,0-0.3c-0.2,0.2-0.4,0.4-0.6,0.6c-0.3,0.2-0.5,0.2-0.8,0.2
		c-0.5,0-0.9-0.1-1.1-0.4c-0.3-0.3-0.4-0.6-0.4-1c0-0.5,0.2-0.8,0.6-1.1c0.4-0.3,0.9-0.4,1.5-0.4h0.9v-0.5c0-0.3-0.1-0.5-0.3-0.7
		c-0.2-0.2-0.4-0.2-0.7-0.2c-0.3,0-0.5,0.1-0.7,0.2s-0.3,0.3-0.3,0.5l-0.8,0l0,0c0-0.3,0.1-0.7,0.5-0.9c0.3-0.3,0.8-0.4,1.3-0.4
		c0.5,0,1,0.1,1.3,0.4c0.3,0.3,0.5,0.7,0.5,1.2v2.3c0,0.2,0,0.3,0,0.5s0,0.3,0.1,0.5H288z M286.5,252.4c0.3,0,0.6-0.1,0.8-0.2
		c0.3-0.2,0.4-0.3,0.5-0.6v-0.8h-1c-0.3,0-0.6,0.1-0.8,0.3c-0.2,0.2-0.3,0.4-0.3,0.6c0,0.2,0.1,0.4,0.2,0.5S286.3,252.4,286.5,252.4
		z"/>
	<path d="M292.8,251.7c0-0.2-0.1-0.3-0.2-0.5c-0.1-0.1-0.4-0.2-0.8-0.3c-0.6-0.1-1-0.3-1.3-0.5c-0.3-0.2-0.5-0.5-0.5-0.9
		c0-0.4,0.2-0.7,0.5-1c0.3-0.3,0.8-0.4,1.3-0.4c0.5,0,1,0.1,1.3,0.4s0.5,0.6,0.5,1l0,0h-0.8c0-0.2-0.1-0.4-0.3-0.6
		c-0.2-0.2-0.4-0.3-0.7-0.3c-0.3,0-0.5,0.1-0.7,0.2c-0.2,0.1-0.2,0.3-0.2,0.5c0,0.2,0.1,0.3,0.2,0.4c0.1,0.1,0.4,0.2,0.8,0.3
		c0.6,0.1,1,0.3,1.3,0.5s0.5,0.5,0.5,0.9c0,0.4-0.2,0.8-0.5,1c-0.3,0.3-0.8,0.4-1.3,0.4c-0.6,0-1.1-0.2-1.4-0.5s-0.5-0.7-0.5-1.1
		l0,0h0.8c0,0.3,0.1,0.5,0.3,0.7c0.2,0.1,0.5,0.2,0.8,0.2c0.3,0,0.5-0.1,0.7-0.2C292.7,252.1,292.8,251.9,292.8,251.7z"/>
	<path d="M295.9,247.1v1.1h0.9v0.6h-0.9v2.9c0,0.2,0,0.4,0.1,0.5c0.1,0.1,0.2,0.1,0.4,0.1c0,0,0.1,0,0.2,0c0.1,0,0.1,0,0.2,0
		l0.1,0.6c-0.1,0.1-0.2,0.1-0.3,0.1c-0.1,0-0.2,0-0.4,0c-0.4,0-0.6-0.1-0.8-0.3c-0.2-0.2-0.3-0.5-0.3-1v-2.9h-0.8v-0.6h0.8v-1.1
		H295.9z"/>
	<path d="M298.7,247h-0.9v-0.9h0.9V247z M298.7,253h-0.9v-4.8h0.9V253z"/>
	<path d="M300.8,248.2l0.1,0.7c0.2-0.3,0.4-0.4,0.6-0.6c0.2-0.1,0.5-0.2,0.8-0.2c0.5,0,0.9,0.2,1.2,0.5c0.3,0.3,0.4,0.8,0.4,1.4v3
		H303v-3c0-0.4-0.1-0.7-0.2-0.9c-0.2-0.2-0.4-0.3-0.8-0.3c-0.3,0-0.5,0.1-0.7,0.2c-0.2,0.1-0.3,0.3-0.4,0.5v3.5H300v-4.8H300.8z"/>
	<path d="M305,250.7c0-0.8,0.2-1.4,0.5-1.9c0.3-0.5,0.8-0.7,1.4-0.7c0.3,0,0.6,0.1,0.8,0.2c0.2,0.1,0.4,0.3,0.6,0.5l0.1-0.6h0.7v4.8
		c0,0.6-0.2,1.1-0.5,1.4c-0.4,0.3-0.9,0.5-1.5,0.5c-0.2,0-0.5,0-0.7-0.1c-0.3-0.1-0.5-0.1-0.7-0.3l0.1-0.7c0.2,0.1,0.4,0.2,0.6,0.2
		c0.2,0.1,0.5,0.1,0.7,0.1c0.4,0,0.7-0.1,0.9-0.3c0.2-0.2,0.3-0.5,0.3-0.9v-0.5c-0.2,0.2-0.3,0.3-0.6,0.5s-0.5,0.2-0.8,0.2
		c-0.6,0-1-0.2-1.4-0.6C305.1,252,305,251.5,305,250.7L305,250.7z M305.8,250.8c0,0.5,0.1,0.9,0.3,1.2s0.5,0.4,0.9,0.4
		c0.3,0,0.5-0.1,0.7-0.2c0.2-0.1,0.3-0.3,0.4-0.5v-2.2c-0.1-0.2-0.3-0.4-0.4-0.5c-0.2-0.1-0.4-0.2-0.6-0.2c-0.4,0-0.7,0.2-0.9,0.5
		C305.9,249.7,305.8,250.2,305.8,250.8L305.8,250.8z"/>
</g>
<g class="st3">
	<path d="M127,24.4c0.6,0.3,1.1,0.7,1.5,1.2c0.3,0.5,0.5,1.2,0.5,1.9c0,0.7-0.2,1.3-0.5,1.9c-0.3,0.5-0.8,0.9-1.5,1.2
		c-0.6,0.3-1.4,0.4-2.3,0.4h-2v2.7h-2.3v-9.8h4.2C125.6,23.9,126.3,24.1,127,24.4z M126.1,28.7c0.4-0.3,0.5-0.7,0.5-1.3
		c0-0.6-0.2-1-0.5-1.3c-0.4-0.3-0.9-0.4-1.6-0.4h-1.8v3.4h1.8C125.2,29.2,125.8,29,126.1,28.7z"/>
</g>
<g class="st3">
	<path d="M133.6,26.4c0.4-0.2,1-0.3,1.5-0.3v2c-0.2,0-0.4,0-0.5,0c-0.6,0-1.1,0.2-1.5,0.5c-0.4,0.3-0.5,0.9-0.5,1.6v3.6h-2.2v-7.5
		h2.1v1C132.8,26.8,133.1,26.6,133.6,26.4z"/>
</g>
<g class="st3">
	<path d="M143.7,30.6H138c0.1,0.5,0.3,0.8,0.7,1.1s0.9,0.4,1.4,0.4c0.4,0,0.7-0.1,1-0.2c0.3-0.1,0.6-0.3,0.8-0.6l1.2,1.3
		c-0.7,0.8-1.7,1.2-3.1,1.2c-0.8,0-1.6-0.2-2.3-0.5c-0.7-0.3-1.2-0.8-1.5-1.4c-0.4-0.6-0.5-1.3-0.5-2c0-0.7,0.2-1.4,0.5-2
		s0.8-1.1,1.4-1.4c0.6-0.3,1.3-0.5,2.1-0.5c0.7,0,1.4,0.2,2,0.5c0.6,0.3,1.1,0.8,1.4,1.4s0.5,1.3,0.5,2.1
		C143.7,30,143.7,30.2,143.7,30.6z M138.5,28.2c-0.3,0.3-0.5,0.7-0.6,1.1h3.7c-0.1-0.5-0.3-0.9-0.6-1.1c-0.3-0.3-0.7-0.4-1.2-0.4
		C139.3,27.7,138.9,27.9,138.5,28.2z"/>
</g>
<g class="st3">
	<path d="M152.5,26.2l-3.2,7.5h-2.3l-3.2-7.5h2.3l2.1,5.1l2.2-5.1H152.5z"/>
</g>
<g class="st3">
	<path d="M158.9,26.9c0.6,0.6,0.9,1.4,0.9,2.5v4.3h-2v-0.9c-0.4,0.7-1.2,1.1-2.3,1.1c-0.6,0-1.1-0.1-1.5-0.3c-0.4-0.2-0.7-0.5-1-0.8
		c-0.2-0.3-0.3-0.7-0.3-1.2c0-0.7,0.3-1.3,0.8-1.7s1.3-0.6,2.4-0.6h1.7c0-0.5-0.1-0.8-0.4-1.1c-0.3-0.3-0.7-0.4-1.3-0.4
		c-0.4,0-0.8,0.1-1.2,0.2s-0.7,0.3-1,0.5l-0.8-1.5c0.4-0.3,0.9-0.5,1.5-0.7c0.6-0.2,1.2-0.2,1.8-0.2
		C157.3,26.1,158.2,26.4,158.9,26.9z M157,32.1c0.3-0.2,0.5-0.4,0.6-0.8v-0.8h-1.5c-0.9,0-1.3,0.3-1.3,0.9c0,0.3,0.1,0.5,0.3,0.7
		c0.2,0.2,0.5,0.2,0.9,0.2C156.4,32.4,156.7,32.3,157,32.1z"/>
	<path d="M161.8,23.3h2.2v10.4h-2.2V23.3z"/>
	<path d="M173.3,30.6h-5.7c0.1,0.5,0.3,0.8,0.7,1.1s0.9,0.4,1.4,0.4c0.4,0,0.7-0.1,1-0.2c0.3-0.1,0.6-0.3,0.8-0.6l1.2,1.3
		c-0.7,0.8-1.7,1.2-3.1,1.2c-0.8,0-1.6-0.2-2.3-0.5c-0.7-0.3-1.2-0.8-1.5-1.4c-0.4-0.6-0.5-1.3-0.5-2c0-0.7,0.2-1.4,0.5-2
		s0.8-1.1,1.4-1.4c0.6-0.3,1.3-0.5,2.1-0.5c0.7,0,1.4,0.2,2,0.5c0.6,0.3,1.1,0.8,1.4,1.4s0.5,1.3,0.5,2.1
		C173.4,30,173.3,30.2,173.3,30.6z M168.2,28.2c-0.3,0.3-0.5,0.7-0.6,1.1h3.7c-0.1-0.5-0.3-0.9-0.6-1.1c-0.3-0.3-0.7-0.4-1.2-0.4
		C169,27.7,168.5,27.9,168.2,28.2z"/>
</g>
<g class="st3">
	<path d="M181.7,26.9c0.6,0.6,0.9,1.4,0.9,2.5v4.3h-2.2v-4c0-0.6-0.1-1-0.4-1.3c-0.3-0.3-0.6-0.4-1.1-0.4c-0.6,0-1,0.2-1.3,0.5
		c-0.3,0.3-0.5,0.8-0.5,1.5v3.7h-2.2v-7.5h2.1v0.9c0.3-0.3,0.6-0.6,1.1-0.7s0.9-0.3,1.4-0.3C180.3,26.1,181.1,26.4,181.7,26.9z"/>
</g>
<g class="st3">
	<path d="M186,33.3c-0.6-0.3-1.1-0.8-1.5-1.4s-0.5-1.3-0.5-2c0-0.7,0.2-1.4,0.5-2c0.4-0.6,0.9-1,1.5-1.4c0.6-0.3,1.4-0.5,2.2-0.5
		c0.8,0,1.5,0.2,2.1,0.5c0.6,0.3,1,0.8,1.3,1.4l-1.7,0.9c-0.4-0.7-1-1-1.7-1c-0.6,0-1,0.2-1.4,0.6c-0.4,0.4-0.6,0.9-0.6,1.5
		c0,0.6,0.2,1.2,0.6,1.5c0.4,0.4,0.8,0.6,1.4,0.6c0.7,0,1.3-0.3,1.7-1l1.7,0.9c-0.3,0.6-0.7,1.1-1.3,1.4s-1.3,0.5-2.1,0.5
		C187.4,33.8,186.7,33.7,186,33.3z"/>
</g>
<g class="st3">
	<path d="M200.1,30.6h-5.7c0.1,0.5,0.3,0.8,0.7,1.1s0.9,0.4,1.4,0.4c0.4,0,0.7-0.1,1-0.2c0.3-0.1,0.6-0.3,0.8-0.6l1.2,1.3
		c-0.7,0.8-1.7,1.2-3.1,1.2c-0.8,0-1.6-0.2-2.3-0.5c-0.7-0.3-1.2-0.8-1.5-1.4s-0.5-1.3-0.5-2c0-0.7,0.2-1.4,0.5-2
		c0.4-0.6,0.8-1.1,1.4-1.4c0.6-0.3,1.3-0.5,2.1-0.5c0.7,0,1.4,0.2,2,0.5s1.1,0.8,1.4,1.4s0.5,1.3,0.5,2.1
		C200.1,30,200.1,30.2,200.1,30.6z M195,28.2c-0.3,0.3-0.5,0.7-0.6,1.1h3.7c-0.1-0.5-0.3-0.9-0.6-1.1c-0.3-0.3-0.7-0.4-1.2-0.4
		C195.7,27.7,195.3,27.9,195,28.2z"/>
	<path d="M207,33.3c-0.6-0.3-1.1-0.8-1.5-1.4s-0.5-1.3-0.5-2c0-0.7,0.2-1.4,0.5-2c0.4-0.6,0.8-1,1.5-1.4c0.6-0.3,1.3-0.5,2.1-0.5
		s1.5,0.2,2.1,0.5c0.6,0.3,1.1,0.8,1.5,1.4c0.4,0.6,0.5,1.3,0.5,2c0,0.7-0.2,1.4-0.5,2s-0.8,1-1.5,1.4s-1.3,0.5-2.1,0.5
		S207.6,33.7,207,33.3z M210.5,31.5c0.4-0.4,0.5-0.9,0.5-1.5s-0.2-1.1-0.5-1.5s-0.8-0.6-1.4-0.6s-1,0.2-1.4,0.6
		c-0.4,0.4-0.5,0.9-0.5,1.5s0.2,1.1,0.5,1.5c0.4,0.4,0.8,0.6,1.4,0.6S210.1,31.9,210.5,31.5z"/>
	<path d="M217.1,26.4h1.9V28h-1.9v5.7H215V28h-1.2v-1.7h1.2V26c0-0.9,0.3-1.5,0.8-2c0.5-0.5,1.2-0.8,2.1-0.8c0.3,0,0.6,0,0.9,0.1
		c0.3,0.1,0.5,0.2,0.7,0.3l-0.6,1.6c-0.3-0.2-0.5-0.3-0.9-0.3c-0.7,0-1,0.4-1,1.1V26.4z"/>
	<path d="M225.2,33.6c-0.7-0.2-1.3-0.5-1.7-0.8l0.8-1.7c0.4,0.3,0.9,0.6,1.5,0.7c0.6,0.2,1.2,0.3,1.7,0.3c0.6,0,1.1-0.1,1.4-0.3
		c0.3-0.2,0.5-0.4,0.5-0.8c0-0.2-0.1-0.4-0.3-0.6c-0.2-0.2-0.4-0.3-0.7-0.4c-0.3-0.1-0.7-0.2-1.2-0.3c-0.7-0.2-1.4-0.4-1.8-0.5
		c-0.5-0.2-0.9-0.5-1.2-0.9c-0.3-0.4-0.5-0.9-0.5-1.6c0-0.6,0.2-1.1,0.5-1.5s0.8-0.8,1.4-1.1c0.6-0.3,1.4-0.4,2.3-0.4
		c0.6,0,1.2,0.1,1.8,0.2s1.1,0.4,1.6,0.6l-0.7,1.7c-0.9-0.5-1.8-0.8-2.7-0.8c-0.6,0-1.1,0.1-1.4,0.3c-0.3,0.2-0.5,0.5-0.5,0.8
		s0.2,0.6,0.5,0.7c0.3,0.2,0.9,0.3,1.6,0.5c0.7,0.2,1.4,0.4,1.8,0.5c0.5,0.2,0.9,0.5,1.2,0.8s0.5,0.9,0.5,1.6c0,0.6-0.2,1.1-0.5,1.5
		c-0.3,0.5-0.8,0.8-1.4,1.1c-0.6,0.3-1.4,0.4-2.3,0.4C226.7,33.9,225.9,33.8,225.2,33.6z"/>
	<path d="M237.9,33.4c-0.2,0.2-0.5,0.3-0.8,0.4c-0.3,0.1-0.6,0.1-1,0.1c-0.9,0-1.6-0.2-2.1-0.7c-0.5-0.5-0.7-1.1-0.7-2V28h-1.2v-1.7
		h1.2v-1.8h2.2v1.8h1.9V28h-1.9v3.1c0,0.3,0.1,0.6,0.2,0.7c0.2,0.2,0.4,0.3,0.7,0.3c0.3,0,0.6-0.1,0.9-0.3L237.9,33.4z"/>
	<path d="M246.7,26.2v7.5h-2.1v-0.9c-0.3,0.3-0.6,0.6-1,0.7c-0.4,0.2-0.8,0.3-1.3,0.3c-1,0-1.8-0.3-2.4-0.9
		c-0.6-0.6-0.9-1.4-0.9-2.5v-4.3h2.2v3.9c0,1.2,0.5,1.8,1.5,1.8c0.5,0,0.9-0.2,1.3-0.5s0.5-0.8,0.5-1.5v-3.7H246.7z"/>
	<path d="M255.6,26.9c0.6,0.6,0.9,1.4,0.9,2.5v4.3h-2.2v-4c0-0.6-0.1-1-0.4-1.3c-0.3-0.3-0.6-0.4-1.1-0.4c-0.6,0-1,0.2-1.3,0.5
		s-0.5,0.8-0.5,1.5v3.7h-2.2v-7.5h2.1v0.9c0.3-0.3,0.6-0.6,1.1-0.7c0.4-0.2,0.9-0.3,1.4-0.3C254.2,26.1,255,26.4,255.6,26.9z"/>
	<path d="M263.3,33.4c-0.2,0.2-0.5,0.3-0.8,0.4c-0.3,0.1-0.6,0.1-1,0.1c-0.9,0-1.6-0.2-2.1-0.7c-0.5-0.5-0.7-1.1-0.7-2V28h-1.2v-1.7
		h1.2v-1.8h2.2v1.8h1.9V28h-1.9v3.1c0,0.3,0.1,0.6,0.2,0.7c0.2,0.2,0.4,0.3,0.7,0.3c0.3,0,0.6-0.1,0.9-0.3L263.3,33.4z"/>
	<path d="M264.6,24.8c-0.3-0.2-0.4-0.5-0.4-0.9c0-0.3,0.1-0.6,0.4-0.9s0.6-0.3,1-0.3s0.7,0.1,1,0.3c0.3,0.2,0.4,0.5,0.4,0.8
		c0,0.4-0.1,0.7-0.4,0.9c-0.3,0.2-0.6,0.4-1,0.4S264.9,25,264.6,24.8z M264.5,26.2h2.2v7.5h-2.2V26.2z"/>
</g>
<g class="st3">
	<path d="M275.5,26.9c0.6,0.6,0.9,1.4,0.9,2.5v4.3h-2.2v-4c0-0.6-0.1-1-0.4-1.3c-0.3-0.3-0.6-0.4-1.1-0.4c-0.6,0-1,0.2-1.3,0.5
		s-0.5,0.8-0.5,1.5v3.7h-2.2v-7.5h2.1v0.9c0.3-0.3,0.6-0.6,1.1-0.7c0.4-0.2,0.9-0.3,1.4-0.3C274.2,26.1,275,26.4,275.5,26.9z"/>
</g>
<g class="st3">
	<path d="M286.2,26.2v6.3c0,1.4-0.4,2.4-1.1,3.1s-1.8,1-3.2,1c-0.7,0-1.4-0.1-2.1-0.3c-0.7-0.2-1.2-0.4-1.6-0.8l0.9-1.6
		c0.3,0.3,0.7,0.5,1.2,0.6c0.5,0.2,1,0.2,1.5,0.2c0.8,0,1.3-0.2,1.7-0.5c0.4-0.3,0.5-0.9,0.5-1.5v-0.3c-0.6,0.6-1.4,0.9-2.4,0.9
		c-0.7,0-1.3-0.2-1.9-0.5c-0.6-0.3-1-0.7-1.4-1.3s-0.5-1.2-0.5-1.9s0.2-1.4,0.5-1.9s0.8-1,1.4-1.3c0.6-0.3,1.2-0.5,1.9-0.5
		c1.1,0,1.9,0.4,2.5,1.1v-1H286.2z M283.5,31.1c0.4-0.3,0.6-0.8,0.6-1.3s-0.2-1-0.6-1.3c-0.4-0.3-0.8-0.5-1.4-0.5
		c-0.6,0-1.1,0.2-1.4,0.5s-0.6,0.8-0.6,1.3s0.2,1,0.6,1.3s0.8,0.5,1.4,0.5C282.7,31.6,283.2,31.4,283.5,31.1z"/>
	<path d="M298,26.9c0.6,0.6,0.9,1.4,0.9,2.5v4.3h-2v-0.9c-0.4,0.7-1.2,1.1-2.3,1.1c-0.6,0-1.1-0.1-1.5-0.3c-0.4-0.2-0.7-0.5-1-0.8
		c-0.2-0.3-0.3-0.7-0.3-1.2c0-0.7,0.3-1.3,0.8-1.7s1.3-0.6,2.4-0.6h1.7c0-0.5-0.1-0.8-0.4-1.1c-0.3-0.3-0.7-0.4-1.3-0.4
		c-0.4,0-0.8,0.1-1.2,0.2c-0.4,0.1-0.7,0.3-1,0.5L292,27c0.4-0.3,0.9-0.5,1.5-0.7c0.6-0.2,1.2-0.2,1.8-0.2
		C296.4,26.1,297.3,26.4,298,26.9z M296.1,32.1c0.3-0.2,0.5-0.4,0.6-0.8v-0.8h-1.5c-0.9,0-1.3,0.3-1.3,0.9c0,0.3,0.1,0.5,0.3,0.7
		c0.2,0.2,0.5,0.2,0.9,0.2C295.5,32.4,295.8,32.3,296.1,32.1z"/>
</g>
<g class="st3">
	<path d="M307.7,26.9c0.6,0.6,0.9,1.4,0.9,2.5v4.3h-2.2v-4c0-0.6-0.1-1-0.4-1.3c-0.3-0.3-0.6-0.4-1.1-0.4c-0.6,0-1,0.2-1.3,0.5
		s-0.5,0.8-0.5,1.5v3.7h-2.2v-7.5h2.1v0.9c0.3-0.3,0.6-0.6,1.1-0.7c0.4-0.2,0.9-0.3,1.4-0.3C306.4,26.1,307.1,26.4,307.7,26.9z"/>
</g>
<g class="st3">
	<path d="M318.3,23.3v10.4h-2.1v-0.9c-0.5,0.7-1.3,1-2.4,1c-0.7,0-1.4-0.2-1.9-0.5c-0.6-0.3-1-0.8-1.4-1.4c-0.3-0.6-0.5-1.3-0.5-2
		c0-0.8,0.2-1.5,0.5-2c0.3-0.6,0.8-1,1.4-1.4c0.6-0.3,1.2-0.5,1.9-0.5c1,0,1.7,0.3,2.3,0.9v-3.7H318.3z M315.6,31.5
		c0.4-0.4,0.5-0.9,0.5-1.5s-0.2-1.1-0.5-1.5c-0.4-0.4-0.8-0.6-1.4-0.6c-0.6,0-1,0.2-1.4,0.6c-0.4,0.4-0.5,0.9-0.5,1.5
		s0.2,1.1,0.5,1.5c0.4,0.4,0.8,0.6,1.4,0.6C314.8,32.1,315.2,31.9,315.6,31.5z"/>
</g>
<g class="st3">
	<path d="M339.2,23.9l-3.2,9.8h-2.4l-2.2-6.6l-2.2,6.6h-2.4l-3.2-9.8h2.4l2.2,6.9l2.3-6.9h2.1l2.2,6.9l2.3-6.9H339.2z"/>
</g>
<g class="st3">
	<path d="M345.5,26.9c0.6,0.6,0.9,1.4,0.9,2.5v4.3h-2v-0.9c-0.4,0.7-1.2,1.1-2.3,1.1c-0.6,0-1.1-0.1-1.5-0.3c-0.4-0.2-0.7-0.5-1-0.8
		c-0.2-0.3-0.3-0.7-0.3-1.2c0-0.7,0.3-1.3,0.8-1.7s1.3-0.6,2.4-0.6h1.7c0-0.5-0.1-0.8-0.4-1.1c-0.3-0.3-0.7-0.4-1.3-0.4
		c-0.4,0-0.8,0.1-1.2,0.2c-0.4,0.1-0.7,0.3-1,0.5l-0.8-1.5c0.4-0.3,0.9-0.5,1.5-0.7c0.6-0.2,1.2-0.2,1.8-0.2
		C344,26.1,344.9,26.4,345.5,26.9z M343.7,32.1c0.3-0.2,0.5-0.4,0.6-0.8v-0.8h-1.5c-0.9,0-1.3,0.3-1.3,0.9c0,0.3,0.1,0.5,0.3,0.7
		c0.2,0.2,0.5,0.2,0.9,0.2C343,32.4,343.4,32.3,343.7,32.1z"/>
	<path d="M349.1,33.6c-0.6-0.2-1.1-0.3-1.4-0.6l0.7-1.6c0.3,0.2,0.7,0.4,1.2,0.5c0.5,0.1,0.9,0.2,1.4,0.2c0.9,0,1.4-0.2,1.4-0.7
		c0-0.2-0.1-0.4-0.4-0.5c-0.3-0.1-0.6-0.2-1.2-0.2c-0.6-0.1-1.1-0.2-1.5-0.3s-0.7-0.3-1-0.6c-0.3-0.3-0.4-0.7-0.4-1.3
		c0-0.5,0.1-0.9,0.4-1.3c0.3-0.4,0.7-0.7,1.2-0.9c0.5-0.2,1.1-0.3,1.9-0.3c0.5,0,1.1,0.1,1.6,0.2c0.5,0.1,1,0.3,1.3,0.5l-0.7,1.6
		c-0.7-0.4-1.4-0.6-2.2-0.6c-0.5,0-0.8,0.1-1.1,0.2s-0.3,0.3-0.3,0.5c0,0.2,0.1,0.4,0.4,0.5c0.3,0.1,0.7,0.2,1.2,0.3
		c0.6,0.1,1.1,0.2,1.5,0.3c0.4,0.1,0.7,0.3,1,0.6c0.3,0.3,0.4,0.7,0.4,1.3c0,0.5-0.1,0.9-0.4,1.2s-0.7,0.6-1.2,0.8
		c-0.5,0.2-1.2,0.3-1.9,0.3C350.3,33.8,349.7,33.8,349.1,33.6z"/>
	<path d="M360.7,33.4c-0.2,0.2-0.5,0.3-0.8,0.4s-0.6,0.1-1,0.1c-0.9,0-1.6-0.2-2.1-0.7c-0.5-0.5-0.7-1.1-0.7-2V28H355v-1.7h1.2v-1.8
		h2.2v1.8h1.9V28h-1.9v3.1c0,0.3,0.1,0.6,0.2,0.7s0.4,0.3,0.7,0.3c0.3,0,0.6-0.1,0.9-0.3L360.7,33.4z"/>
	<path d="M362.1,24.8c-0.3-0.2-0.4-0.5-0.4-0.9c0-0.3,0.1-0.6,0.4-0.9s0.6-0.3,1-0.3c0.4,0,0.7,0.1,1,0.3c0.3,0.2,0.4,0.5,0.4,0.8
		c0,0.4-0.1,0.7-0.4,0.9c-0.3,0.2-0.6,0.4-1,0.4C362.6,25.1,362.3,25,362.1,24.8z M361.9,26.2h2.2v7.5h-2.2V26.2z"/>
</g>
<g class="st3">
	<path d="M373,26.9c0.6,0.6,0.9,1.4,0.9,2.5v4.3h-2.2v-4c0-0.6-0.1-1-0.4-1.3c-0.3-0.3-0.6-0.4-1.1-0.4c-0.6,0-1,0.2-1.3,0.5
		s-0.5,0.8-0.5,1.5v3.7h-2.2v-7.5h2.1v0.9c0.3-0.3,0.6-0.6,1.1-0.7c0.4-0.2,0.9-0.3,1.4-0.3C371.7,26.1,372.4,26.4,373,26.9z"/>
</g>
<g class="st3">
	<path d="M383.7,26.2v6.3c0,1.4-0.4,2.4-1.1,3.1c-0.7,0.7-1.8,1-3.2,1c-0.7,0-1.4-0.1-2.1-0.3c-0.7-0.2-1.2-0.4-1.6-0.8l0.9-1.6
		c0.3,0.3,0.7,0.5,1.2,0.6c0.5,0.2,1,0.2,1.5,0.2c0.8,0,1.3-0.2,1.7-0.5c0.4-0.3,0.5-0.9,0.5-1.5v-0.3c-0.6,0.6-1.4,0.9-2.4,0.9
		c-0.7,0-1.3-0.2-1.9-0.5c-0.6-0.3-1-0.7-1.4-1.3s-0.5-1.2-0.5-1.9s0.2-1.4,0.5-1.9s0.8-1,1.4-1.3c0.6-0.3,1.2-0.5,1.9-0.5
		c1.1,0,1.9,0.4,2.5,1.1v-1H383.7z M381,31.1c0.4-0.3,0.6-0.8,0.6-1.3s-0.2-1-0.6-1.3c-0.4-0.3-0.8-0.5-1.4-0.5
		c-0.6,0-1.1,0.2-1.4,0.5s-0.6,0.8-0.6,1.3s0.2,1,0.6,1.3s0.8,0.5,1.4,0.5C380.1,31.6,380.6,31.4,381,31.1z"/>
</g>
<rect x="67.9" y="67.7" class="st2" width="32" height="148"/>
<rect x="110" y="176.1" class="st4" width="32" height="39.6"/>
<rect x="218.5" y="85.7" class="st2" width="32" height="130.1"/>
<rect x="260.6" y="177.9" class="st4" width="32" height="37.8"/>
<rect x="358.5" y="141.1" class="st2" width="32" height="74.6"/>
<rect x="400.6" y="178.6" class="st4" width="32" height="37.2"/>
<g class="st3">
	<path d="M250,228h-4v-0.6l2-2.4c0.4-0.4,0.6-0.8,0.7-1c0.1-0.3,0.2-0.5,0.2-0.8c0-0.3-0.1-0.5-0.3-0.7c-0.2-0.2-0.4-0.3-0.7-0.3
		c-0.4,0-0.7,0.1-0.9,0.3c-0.2,0.2-0.3,0.5-0.3,0.9H246l0,0c0-0.5,0.2-1,0.5-1.3c0.4-0.4,0.9-0.5,1.5-0.5c0.6,0,1,0.2,1.3,0.5
		s0.5,0.7,0.5,1.2c0,0.3-0.1,0.7-0.3,1c-0.2,0.3-0.5,0.7-0.9,1.2l-1.6,1.9l0,0h2.9V228z"/>
	<path d="M255,225.7c0,0.7-0.2,1.3-0.6,1.7c-0.4,0.4-0.9,0.6-1.5,0.6c-0.6,0-1.1-0.2-1.5-0.6c-0.4-0.4-0.6-1-0.6-1.7v-1.9
		c0-0.7,0.2-1.3,0.6-1.7s0.9-0.6,1.5-0.6c0.6,0,1.1,0.2,1.5,0.6c0.4,0.4,0.6,1,0.6,1.7V225.7z M254.2,223.7c0-0.5-0.1-0.8-0.3-1.1
		c-0.2-0.3-0.5-0.4-0.9-0.4c-0.4,0-0.7,0.1-0.9,0.4c-0.2,0.3-0.3,0.6-0.3,1.1v2.2c0,0.5,0.1,0.8,0.3,1.1c0.2,0.3,0.5,0.4,0.9,0.4
		c0.4,0,0.7-0.1,0.9-0.4c0.2-0.3,0.3-0.6,0.3-1.1V223.7z"/>
	<path d="M260.1,228h-4v-0.6l2-2.4c0.4-0.4,0.6-0.8,0.7-1c0.1-0.3,0.2-0.5,0.2-0.8c0-0.3-0.1-0.5-0.3-0.7c-0.2-0.2-0.4-0.3-0.7-0.3
		c-0.4,0-0.7,0.1-0.9,0.3c-0.2,0.2-0.3,0.5-0.3,0.9h-0.8l0,0c0-0.5,0.2-1,0.5-1.3c0.4-0.4,0.9-0.5,1.5-0.5c0.6,0,1,0.2,1.3,0.5
		s0.5,0.7,0.5,1.2c0,0.3-0.1,0.7-0.3,1c-0.2,0.3-0.5,0.7-0.9,1.2l-1.6,1.9l0,0h2.9V228z"/>
	<path d="M263.7,228h-0.9v-5.6l-1.4,0v-0.7l2.3-0.2V228z"/>
</g>
<g class="st3">
	<path d="M99.4,228h-4v-0.6l2-2.4c0.4-0.4,0.6-0.8,0.7-1c0.1-0.3,0.2-0.5,0.2-0.8c0-0.3-0.1-0.5-0.3-0.7c-0.2-0.2-0.4-0.3-0.7-0.3
		c-0.4,0-0.7,0.1-0.9,0.3c-0.2,0.2-0.3,0.5-0.3,0.9h-0.8l0,0c0-0.5,0.2-1,0.5-1.3c0.4-0.4,0.9-0.5,1.5-0.5c0.6,0,1,0.2,1.3,0.5
		s0.5,0.7,0.5,1.2c0,0.3-0.1,0.7-0.3,1c-0.2,0.3-0.5,0.7-0.9,1.2l-1.6,1.9l0,0h2.9V228z"/>
	<path d="M104.4,225.7c0,0.7-0.2,1.3-0.6,1.7s-0.9,0.6-1.5,0.6c-0.6,0-1.1-0.2-1.5-0.6c-0.4-0.4-0.6-1-0.6-1.7v-1.9
		c0-0.7,0.2-1.3,0.6-1.7s0.9-0.6,1.5-0.6c0.6,0,1.1,0.2,1.5,0.6c0.4,0.4,0.6,1,0.6,1.7V225.7z M103.6,223.7c0-0.5-0.1-0.8-0.3-1.1
		c-0.2-0.3-0.5-0.4-0.9-0.4c-0.4,0-0.7,0.1-0.9,0.4c-0.2,0.3-0.3,0.6-0.3,1.1v2.2c0,0.5,0.1,0.8,0.3,1.1c0.2,0.3,0.5,0.4,0.9,0.4
		c0.4,0,0.7-0.1,0.9-0.4c0.2-0.3,0.3-0.6,0.3-1.1V223.7z"/>
	<path d="M108,228h-0.9v-5.6l-1.4,0v-0.7l2.3-0.2V228z"/>
	<path d="M112.2,227.4c0.4,0,0.8-0.1,1-0.4c0.3-0.3,0.4-0.7,0.4-1.2v-0.5c-0.1,0.2-0.3,0.4-0.5,0.5c-0.2,0.1-0.4,0.2-0.7,0.2
		c-0.6,0-1.1-0.2-1.4-0.6c-0.4-0.4-0.5-0.9-0.5-1.6c0-0.6,0.2-1.2,0.6-1.6c0.4-0.4,0.8-0.6,1.4-0.6c0.6,0,1.2,0.2,1.5,0.6
		s0.6,1,0.6,1.7v1.9c0,0.7-0.2,1.3-0.6,1.7c-0.4,0.4-1,0.6-1.6,0.6c-0.2,0-0.5,0-0.7-0.1c-0.2,0-0.5-0.1-0.7-0.2l0.1-0.7
		c0.2,0.1,0.4,0.2,0.6,0.2C111.7,227.4,111.9,227.4,112.2,227.4z M112.4,225.2c0.3,0,0.6-0.1,0.8-0.2c0.2-0.1,0.4-0.3,0.5-0.5v-0.8
		c0-0.5-0.1-0.8-0.3-1.1c-0.2-0.3-0.5-0.4-0.9-0.4c-0.3,0-0.6,0.1-0.8,0.4c-0.2,0.3-0.3,0.6-0.3,1.1c0,0.4,0.1,0.8,0.3,1.1
		C111.7,225,112,225.2,112.4,225.2z"/>
</g>
<g class="st3">
	<path d="M356.7,225.2v2.8h-0.9v-6.4h2.2c0.7,0,1.2,0.2,1.6,0.5s0.6,0.8,0.6,1.4c0,0.3-0.1,0.6-0.3,0.9c-0.2,0.2-0.4,0.4-0.7,0.6
		c0.4,0.1,0.6,0.3,0.8,0.6c0.2,0.3,0.2,0.6,0.2,1v0.6c0,0.2,0,0.4,0.1,0.5s0.1,0.3,0.2,0.4v0.1h-0.9c-0.1-0.1-0.2-0.2-0.2-0.4
		c0-0.2,0-0.4,0-0.6v-0.6c0-0.3-0.1-0.6-0.3-0.8c-0.2-0.2-0.5-0.3-0.8-0.3H356.7z M356.7,224.5h1.2c0.5,0,0.8-0.1,1.1-0.3
		c0.2-0.2,0.3-0.5,0.3-0.9c0-0.4-0.1-0.6-0.3-0.8c-0.2-0.2-0.5-0.3-1-0.3h-1.3V224.5z"/>
	<path d="M362.4,225.4v2.6h-0.9v-6.4h2.4c0.7,0,1.2,0.2,1.6,0.5c0.4,0.4,0.6,0.8,0.6,1.4c0,0.6-0.2,1-0.6,1.4
		c-0.4,0.3-0.9,0.5-1.6,0.5H362.4z M362.4,224.8h1.6c0.4,0,0.8-0.1,1-0.3c0.2-0.2,0.3-0.5,0.3-0.9s-0.1-0.7-0.3-0.9s-0.5-0.4-1-0.4
		h-1.6V224.8z"/>
	<path d="M369.8,221.6h0.9v4.5c0,0.6-0.2,1.1-0.5,1.4c-0.4,0.4-0.8,0.5-1.4,0.5c-0.6,0-1.1-0.2-1.4-0.5c-0.3-0.3-0.5-0.8-0.5-1.4
		l0,0h0.8c0,0.4,0.1,0.7,0.3,0.9s0.4,0.3,0.8,0.3c0.3,0,0.6-0.1,0.8-0.3c0.2-0.2,0.3-0.5,0.3-0.9V221.6z"/>
	<path d="M375.3,226.8L375.3,226.8l2.1-5.2h1.1v6.4h-0.9v-4.8l0,0l-1.9,4.8h-0.6l-2-5l0,0v5h-0.9v-6.4h1.1L375.3,226.8z"/>
	<path d="M384.8,228H384l-3.1-4.9l0,0v4.9H380v-6.4h0.9l3.1,4.9l0,0v-4.9h0.9V228z"/>
</g>
<g class="st3">
	<path d="M393,222.3h-2.1v5.7h-0.9v-5.7H388v-0.7h5.1V222.3z"/>
</g>
<g class="st3">
	<path d="M396.3,228c0-0.1-0.1-0.3-0.1-0.4c0-0.1,0-0.2,0-0.3c-0.2,0.2-0.4,0.4-0.6,0.6c-0.3,0.2-0.5,0.2-0.8,0.2
		c-0.5,0-0.9-0.1-1.1-0.4c-0.3-0.3-0.4-0.6-0.4-1c0-0.5,0.2-0.8,0.6-1.1c0.4-0.3,0.9-0.4,1.5-0.4h0.9v-0.5c0-0.3-0.1-0.5-0.3-0.7
		c-0.2-0.2-0.4-0.2-0.7-0.2c-0.3,0-0.5,0.1-0.7,0.2s-0.3,0.3-0.3,0.5l-0.8,0l0,0c0-0.3,0.1-0.7,0.5-0.9c0.3-0.3,0.8-0.4,1.3-0.4
		c0.5,0,1,0.1,1.3,0.4c0.3,0.3,0.5,0.7,0.5,1.2v2.3c0,0.2,0,0.3,0,0.5s0,0.3,0.1,0.5H396.3z M394.8,227.4c0.3,0,0.6-0.1,0.8-0.2
		c0.3-0.2,0.4-0.3,0.5-0.6v-0.8h-1c-0.3,0-0.6,0.1-0.8,0.3c-0.2,0.2-0.3,0.4-0.3,0.6c0,0.2,0.1,0.4,0.2,0.5S394.6,227.4,394.8,227.4
		z"/>
</g>
<g class="st3">
	<path d="M400.5,224l-0.4,0c-0.2,0-0.4,0.1-0.6,0.2c-0.2,0.1-0.3,0.3-0.4,0.5v3.4h-0.9v-4.8h0.8l0.1,0.7c0.1-0.2,0.3-0.4,0.5-0.6
		c0.2-0.1,0.4-0.2,0.7-0.2c0.1,0,0.1,0,0.2,0c0.1,0,0.1,0,0.1,0L400.5,224z"/>
</g>
<g class="st3">
	<path d="M401.2,225.7c0-0.8,0.2-1.4,0.5-1.9c0.3-0.5,0.8-0.7,1.4-0.7c0.3,0,0.6,0.1,0.8,0.2c0.2,0.1,0.4,0.3,0.6,0.5l0.1-0.6h0.7
		v4.8c0,0.6-0.2,1.1-0.5,1.4c-0.4,0.3-0.9,0.5-1.5,0.5c-0.2,0-0.5,0-0.7-0.1c-0.3-0.1-0.5-0.1-0.7-0.3l0.1-0.7
		c0.2,0.1,0.4,0.2,0.6,0.2c0.2,0.1,0.5,0.1,0.7,0.1c0.4,0,0.7-0.1,0.9-0.3c0.2-0.2,0.3-0.5,0.3-0.9v-0.5c-0.2,0.2-0.3,0.3-0.6,0.5
		s-0.5,0.2-0.8,0.2c-0.6,0-1-0.2-1.4-0.6C401.4,227,401.2,226.5,401.2,225.7L401.2,225.7z M402.1,225.8c0,0.5,0.1,0.9,0.3,1.2
		s0.5,0.4,0.9,0.4c0.3,0,0.5-0.1,0.7-0.2c0.2-0.1,0.3-0.3,0.4-0.5v-2.2c-0.1-0.2-0.3-0.4-0.4-0.5c-0.2-0.1-0.4-0.2-0.6-0.2
		c-0.4,0-0.7,0.2-0.9,0.5C402.2,224.7,402.1,225.2,402.1,225.8L402.1,225.8z"/>
	<path d="M408.4,228.1c-0.7,0-1.2-0.2-1.6-0.7c-0.4-0.4-0.6-1-0.6-1.7v-0.2c0-0.7,0.2-1.2,0.6-1.7c0.4-0.4,0.9-0.7,1.4-0.7
		c0.6,0,1.1,0.2,1.4,0.6c0.3,0.4,0.5,0.9,0.5,1.6v0.5h-3l0,0c0,0.5,0.1,0.9,0.3,1.2c0.2,0.3,0.5,0.4,1,0.4c0.3,0,0.5,0,0.8-0.1
		c0.2-0.1,0.4-0.2,0.6-0.3l0.3,0.6c-0.2,0.2-0.4,0.3-0.7,0.4C409.2,228,408.8,228.1,408.4,228.1z M408.3,223.8
		c-0.3,0-0.6,0.1-0.7,0.3c-0.2,0.2-0.3,0.5-0.4,0.9l0,0h2.1V225c0-0.3-0.1-0.6-0.3-0.9S408.7,223.8,408.3,223.8z"/>
	<path d="M412.4,222.1v1.1h0.9v0.6h-0.9v2.9c0,0.2,0,0.4,0.1,0.5c0.1,0.1,0.2,0.1,0.4,0.1c0,0,0.1,0,0.2,0c0.1,0,0.1,0,0.2,0
		l0.1,0.6c-0.1,0.1-0.2,0.1-0.3,0.1c-0.1,0-0.3,0-0.4,0c-0.4,0-0.6-0.1-0.8-0.3c-0.2-0.2-0.3-0.5-0.3-1v-2.9h-0.8v-0.6h0.8v-1.1
		H412.4z"/>
	<path d="M420.4,228h-4v-0.6l2-2.4c0.4-0.4,0.6-0.8,0.7-1c0.1-0.3,0.2-0.5,0.2-0.8c0-0.3-0.1-0.5-0.3-0.7c-0.2-0.2-0.4-0.3-0.7-0.3
		c-0.4,0-0.7,0.1-0.9,0.3c-0.2,0.2-0.3,0.5-0.3,0.9h-0.8l0,0c0-0.5,0.2-1,0.5-1.3c0.4-0.4,0.9-0.5,1.5-0.5c0.6,0,1,0.2,1.3,0.5
		s0.5,0.7,0.5,1.2c0,0.3-0.1,0.7-0.3,1c-0.2,0.3-0.5,0.7-0.9,1.2l-1.6,1.9l0,0h2.9V228z"/>
	<path d="M425.5,225.7c0,0.7-0.2,1.3-0.6,1.7c-0.4,0.4-0.9,0.6-1.5,0.6c-0.6,0-1.1-0.2-1.5-0.6c-0.4-0.4-0.6-1-0.6-1.7v-1.9
		c0-0.7,0.2-1.3,0.6-1.7c0.4-0.4,0.9-0.6,1.5-0.6c0.6,0,1.1,0.2,1.5,0.6c0.4,0.4,0.6,1,0.6,1.7V225.7z M424.6,223.7
		c0-0.5-0.1-0.8-0.3-1.1c-0.2-0.3-0.5-0.4-0.9-0.4c-0.4,0-0.7,0.1-0.9,0.4c-0.2,0.3-0.3,0.6-0.3,1.1v2.2c0,0.5,0.1,0.8,0.3,1.1
		c0.2,0.3,0.5,0.4,0.9,0.4c0.4,0,0.7-0.1,0.9-0.4c0.2-0.3,0.3-0.6,0.3-1.1V223.7z"/>
	<path d="M430.6,228h-4v-0.6l2-2.4c0.4-0.4,0.6-0.8,0.7-1c0.1-0.3,0.2-0.5,0.2-0.8c0-0.3-0.1-0.5-0.3-0.7c-0.2-0.2-0.4-0.3-0.7-0.3
		c-0.4,0-0.7,0.1-0.9,0.3c-0.2,0.2-0.3,0.5-0.3,0.9h-0.8l0,0c0-0.5,0.2-1,0.5-1.3c0.4-0.4,0.9-0.5,1.5-0.5c0.6,0,1,0.2,1.3,0.5
		s0.5,0.7,0.5,1.2c0,0.3-0.1,0.7-0.3,1c-0.2,0.3-0.5,0.7-0.9,1.2l-1.6,1.9l0,0h2.9V228z"/>
	<path d="M434.9,225.8h0.9v0.7h-0.9v1.5h-0.9v-1.5h-2.7V226l2.7-4.4h0.9V225.8z M432.3,225.8h1.8v-3l0,0l-0.1,0.2L432.3,225.8z"/>
</g>
<g class="st3">
	<path d="M74.2,64.5v1.1h-4.2v-0.8l2.2-2c0.2-0.2,0.4-0.4,0.5-0.6c0.1-0.2,0.1-0.3,0.1-0.5c0-0.2-0.1-0.4-0.2-0.5
		c-0.2-0.1-0.4-0.2-0.7-0.2c-0.2,0-0.5,0-0.7,0.1c-0.2,0.1-0.4,0.2-0.5,0.4l-0.9-0.6c0.2-0.3,0.5-0.6,0.9-0.8
		c0.4-0.2,0.8-0.3,1.3-0.3c0.4,0,0.8,0.1,1.1,0.2s0.6,0.3,0.7,0.6s0.3,0.5,0.3,0.9c0,0.3-0.1,0.6-0.2,0.9s-0.4,0.6-0.7,0.9l-1.3,1.2
		H74.2z"/>
</g>
<g class="st3">
	<path d="M79.1,59.9v0.8L77,65.5h-1.4l2-4.5h-1.9v0.9h-1.2v-2H79.1z"/>
</g>
<g class="st3">
	<path d="M79.4,65.3c-0.1-0.1-0.2-0.3-0.2-0.6c0-0.2,0.1-0.4,0.2-0.6c0.1-0.1,0.3-0.2,0.6-0.2s0.4,0.1,0.6,0.2
		c0.1,0.1,0.2,0.3,0.2,0.6c0,0.2-0.1,0.4-0.2,0.6c-0.1,0.1-0.3,0.2-0.6,0.2S79.6,65.5,79.4,65.3z"/>
</g>
<g class="st3">
	<path d="M85.6,59.9v0.8l-2.1,4.8h-1.4l2-4.5h-1.9v0.9h-1.2v-2H85.6z"/>
</g>
<g class="st3">
	<path d="M87.2,65.3c-0.4-0.2-0.6-0.6-0.9-1c-0.2-0.4-0.3-1-0.3-1.6s0.1-1.1,0.3-1.6c0.2-0.4,0.5-0.8,0.9-1c0.4-0.2,0.8-0.3,1.2-0.3
		s0.9,0.1,1.2,0.3c0.4,0.2,0.6,0.6,0.9,1c0.2,0.4,0.3,1,0.3,1.6s-0.1,1.1-0.3,1.6c-0.2,0.4-0.5,0.8-0.9,1c-0.4,0.2-0.8,0.3-1.2,0.3
		S87.6,65.5,87.2,65.3z M89.2,64.1c0.2-0.3,0.3-0.7,0.3-1.4s-0.1-1.1-0.3-1.4c-0.2-0.3-0.5-0.4-0.8-0.4c-0.3,0-0.6,0.1-0.8,0.4
		c-0.2,0.3-0.3,0.7-0.3,1.4s0.1,1.1,0.3,1.4c0.2,0.3,0.5,0.4,0.8,0.4C88.8,64.5,89,64.4,89.2,64.1z"/>
	<path d="M91.8,62.5c-0.3-0.3-0.4-0.7-0.4-1.1c0-0.5,0.1-0.8,0.4-1.1s0.6-0.4,1-0.4s0.7,0.1,1,0.4s0.4,0.7,0.4,1.1
		c0,0.5-0.1,0.8-0.4,1.1s-0.6,0.4-1,0.4S92,62.8,91.8,62.5z M93.2,62.1c0.1-0.1,0.2-0.4,0.2-0.7c0-0.3-0.1-0.5-0.2-0.7
		s-0.2-0.2-0.4-0.2c-0.2,0-0.3,0.1-0.4,0.2c-0.1,0.2-0.2,0.4-0.2,0.7s0.1,0.5,0.2,0.7c0.1,0.2,0.2,0.2,0.4,0.2
		C92.9,62.3,93.1,62.2,93.2,62.1z M96.1,59.9h1l-3.8,5.6h-1L96.1,59.9z M95.8,65.4c-0.2-0.1-0.4-0.3-0.5-0.5
		c-0.1-0.2-0.2-0.5-0.2-0.8c0-0.3,0.1-0.6,0.2-0.8c0.1-0.2,0.3-0.4,0.5-0.5c0.2-0.1,0.4-0.2,0.7-0.2c0.4,0,0.7,0.1,1,0.4
		c0.3,0.3,0.4,0.7,0.4,1.1c0,0.5-0.1,0.8-0.4,1.1c-0.3,0.3-0.6,0.4-1,0.4C96.3,65.6,96.1,65.5,95.8,65.4z M97,64.7
		c0.1-0.2,0.2-0.4,0.2-0.7c0-0.3-0.1-0.5-0.2-0.7c-0.1-0.2-0.2-0.2-0.4-0.2c-0.2,0-0.3,0.1-0.4,0.2C96,63.5,96,63.7,96,64
		c0,0.3,0.1,0.5,0.2,0.7c0.1,0.1,0.2,0.2,0.4,0.2C96.7,64.9,96.9,64.8,97,64.7z"/>
</g>
<g class="st3">
	<path d="M118.4,168.3v0.8l-2.1,4.8h-1.4l2-4.5H115v0.9h-1.2v-2H118.4z"/>
</g>
<g class="st3">
	<path d="M118.8,173.8c-0.1-0.1-0.2-0.3-0.2-0.6c0-0.2,0.1-0.4,0.2-0.6c0.1-0.1,0.3-0.2,0.6-0.2s0.4,0.1,0.6,0.2
		c0.1,0.1,0.2,0.3,0.2,0.6c0,0.2-0.1,0.4-0.2,0.6c-0.1,0.1-0.3,0.2-0.6,0.2S118.9,173.9,118.8,173.8z"/>
	<path d="M125.8,172.7h-0.9v1.2h-1.3v-1.2h-3v-0.9l2.6-3.6h1.4l-2.4,3.4h1.5v-1h1.2v1h0.9V172.7z"/>
	<path d="M127.3,173.7c-0.4-0.2-0.6-0.6-0.9-1c-0.2-0.4-0.3-1-0.3-1.6s0.1-1.1,0.3-1.6c0.2-0.4,0.5-0.8,0.9-1
		c0.4-0.2,0.8-0.3,1.2-0.3s0.9,0.1,1.2,0.3c0.4,0.2,0.6,0.6,0.9,1c0.2,0.4,0.3,1,0.3,1.6s-0.1,1.1-0.3,1.6s-0.5,0.8-0.9,1
		c-0.4,0.2-0.8,0.3-1.2,0.3S127.7,173.9,127.3,173.7z M129.4,172.5c0.2-0.3,0.3-0.7,0.3-1.4s-0.1-1.1-0.3-1.4
		c-0.2-0.3-0.5-0.4-0.8-0.4c-0.3,0-0.6,0.1-0.8,0.4c-0.2,0.3-0.3,0.7-0.3,1.4s0.1,1.1,0.3,1.4c0.2,0.3,0.5,0.4,0.8,0.4
		C128.9,172.9,129.2,172.8,129.4,172.5z"/>
	<path d="M131.9,170.9c-0.3-0.3-0.4-0.7-0.4-1.1c0-0.5,0.1-0.8,0.4-1.1s0.6-0.4,1-0.4c0.4,0,0.7,0.1,1,0.4s0.4,0.7,0.4,1.1
		c0,0.5-0.1,0.8-0.4,1.1s-0.6,0.4-1,0.4C132.5,171.3,132.2,171.2,131.9,170.9z M133.3,170.5c0.1-0.1,0.2-0.4,0.2-0.7
		c0-0.3-0.1-0.5-0.2-0.7c-0.1-0.1-0.2-0.2-0.4-0.2c-0.2,0-0.3,0.1-0.4,0.2c-0.1,0.2-0.2,0.4-0.2,0.7s0.1,0.5,0.2,0.7
		c0.1,0.2,0.2,0.2,0.4,0.2C133.1,170.7,133.2,170.6,133.3,170.5z M136.2,168.3h1l-3.8,5.6h-1L136.2,168.3z M136,173.8
		c-0.2-0.1-0.4-0.3-0.5-0.5s-0.2-0.5-0.2-0.8c0-0.3,0.1-0.6,0.2-0.8s0.3-0.4,0.5-0.5s0.4-0.2,0.7-0.2c0.4,0,0.7,0.1,1,0.4
		c0.3,0.3,0.4,0.7,0.4,1.1c0,0.5-0.1,0.8-0.4,1.1c-0.3,0.3-0.6,0.4-1,0.4C136.4,174,136.2,173.9,136,173.8z M137.1,173.1
		c0.1-0.2,0.2-0.4,0.2-0.7c0-0.3-0.1-0.5-0.2-0.7c-0.1-0.2-0.2-0.2-0.4-0.2c-0.2,0-0.3,0.1-0.4,0.2s-0.2,0.4-0.2,0.7
		c0,0.3,0.1,0.5,0.2,0.7c0.1,0.1,0.2,0.2,0.4,0.2C136.9,173.3,137,173.2,137.1,173.1z"/>
</g>
<g class="st3">
	<path d="M223.8,82.4v1.1h-4.2v-0.8l2.2-2c0.2-0.2,0.4-0.4,0.5-0.6c0.1-0.2,0.1-0.3,0.1-0.5c0-0.2-0.1-0.4-0.2-0.5
		c-0.2-0.1-0.4-0.2-0.7-0.2c-0.2,0-0.5,0-0.7,0.1c-0.2,0.1-0.4,0.2-0.5,0.4l-0.9-0.6c0.2-0.3,0.5-0.6,0.9-0.8
		c0.4-0.2,0.8-0.3,1.3-0.3c0.4,0,0.8,0.1,1.1,0.2s0.6,0.3,0.7,0.6s0.3,0.5,0.3,0.9c0,0.3-0.1,0.6-0.2,0.9s-0.4,0.6-0.7,0.9l-1.3,1.2
		H223.8z"/>
</g>
<g class="st3">
	<path d="M229.4,82.3h-0.9v1.2h-1.3v-1.2h-3v-0.9l2.6-3.6h1.4l-2.4,3.4h1.5v-1h1.2v1h0.9V82.3z"/>
</g>
<g class="st3">
	<path d="M230.1,83.3c-0.1-0.1-0.2-0.3-0.2-0.6c0-0.2,0.1-0.4,0.2-0.6c0.1-0.1,0.3-0.2,0.6-0.2s0.4,0.1,0.6,0.2
		c0.1,0.1,0.2,0.3,0.2,0.6c0,0.2-0.1,0.4-0.2,0.6c-0.1,0.1-0.3,0.2-0.6,0.2S230.3,83.4,230.1,83.3z"/>
	<path d="M237.1,82.3h-0.9v1.2H235v-1.2h-3v-0.9l2.6-3.6h1.4l-2.4,3.4h1.5v-1h1.2v1h0.9V82.3z"/>
	<path d="M238.7,83.2c-0.4-0.2-0.6-0.6-0.9-1c-0.2-0.4-0.3-1-0.3-1.6s0.1-1.1,0.3-1.6c0.2-0.4,0.5-0.8,0.9-1
		c0.4-0.2,0.8-0.3,1.2-0.3s0.9,0.1,1.2,0.3c0.4,0.2,0.6,0.6,0.9,1c0.2,0.4,0.3,1,0.3,1.6s-0.1,1.1-0.3,1.6c-0.2,0.4-0.5,0.8-0.9,1
		c-0.4,0.2-0.8,0.3-1.2,0.3S239.1,83.4,238.7,83.2z M240.7,82c0.2-0.3,0.3-0.7,0.3-1.4s-0.1-1.1-0.3-1.4c-0.2-0.3-0.5-0.4-0.8-0.4
		c-0.3,0-0.6,0.1-0.8,0.4c-0.2,0.3-0.3,0.7-0.3,1.4s0.1,1.1,0.3,1.4c0.2,0.3,0.5,0.4,0.8,0.4C240.3,82.5,240.5,82.3,240.7,82z"/>
	<path d="M243.3,80.5c-0.3-0.3-0.4-0.7-0.4-1.1c0-0.5,0.1-0.8,0.4-1.1s0.6-0.4,1-0.4s0.7,0.1,1,0.4s0.4,0.7,0.4,1.1
		c0,0.5-0.1,0.8-0.4,1.1s-0.6,0.4-1,0.4S243.5,80.7,243.3,80.5z M244.7,80c0.1-0.1,0.2-0.4,0.2-0.7c0-0.3-0.1-0.5-0.2-0.7
		s-0.2-0.2-0.4-0.2c-0.2,0-0.3,0.1-0.4,0.2c-0.1,0.2-0.2,0.4-0.2,0.7s0.1,0.5,0.2,0.7c0.1,0.2,0.2,0.2,0.4,0.2
		C244.4,80.2,244.6,80.1,244.7,80z M247.6,77.9h1l-3.8,5.6h-1L247.6,77.9z M247.3,83.3c-0.2-0.1-0.4-0.3-0.5-0.5
		c-0.1-0.2-0.2-0.5-0.2-0.8c0-0.3,0.1-0.6,0.2-0.8c0.1-0.2,0.3-0.4,0.5-0.5c0.2-0.1,0.4-0.2,0.7-0.2c0.4,0,0.7,0.1,1,0.4
		c0.3,0.3,0.4,0.7,0.4,1.1c0,0.5-0.1,0.8-0.4,1.1c-0.3,0.3-0.6,0.4-1,0.4C247.8,83.5,247.6,83.5,247.3,83.3z M248.5,82.6
		c0.1-0.2,0.2-0.4,0.2-0.7c0-0.3-0.1-0.5-0.2-0.7c-0.1-0.2-0.2-0.2-0.4-0.2c-0.2,0-0.3,0.1-0.4,0.2c-0.1,0.1-0.2,0.4-0.2,0.7
		c0,0.3,0.1,0.5,0.2,0.7c0.1,0.1,0.2,0.2,0.4,0.2C248.2,82.9,248.4,82.8,248.5,82.6z"/>
</g>
<g class="st3">
	<path d="M270.2,170.1v0.8l-2.1,4.8h-1.4l2-4.5h-1.9v0.9h-1.2v-2H270.2z"/>
</g>
<g class="st3">
	<path d="M270.6,175.6c-0.1-0.1-0.2-0.3-0.2-0.6c0-0.2,0.1-0.4,0.2-0.6c0.1-0.1,0.3-0.2,0.6-0.2s0.4,0.1,0.6,0.2
		c0.1,0.1,0.2,0.3,0.2,0.6c0,0.2-0.1,0.4-0.2,0.6c-0.1,0.1-0.3,0.2-0.6,0.2S270.7,175.7,270.6,175.6z"/>
</g>
<g class="st3">
	<path d="M274.5,170.1v5.6h-1.3v-4.6h-1.1v-1H274.5z"/>
	<path d="M276.6,175.5c-0.4-0.2-0.6-0.6-0.9-1c-0.2-0.4-0.3-1-0.3-1.6s0.1-1.1,0.3-1.6c0.2-0.4,0.5-0.8,0.9-1
		c0.4-0.2,0.8-0.3,1.2-0.3s0.9,0.1,1.2,0.3c0.4,0.2,0.6,0.6,0.9,1c0.2,0.4,0.3,1,0.3,1.6s-0.1,1.1-0.3,1.6s-0.5,0.8-0.9,1
		c-0.4,0.2-0.8,0.3-1.2,0.3S277,175.7,276.6,175.5z M278.7,174.3c0.2-0.3,0.3-0.7,0.3-1.4s-0.1-1.1-0.3-1.4
		c-0.2-0.3-0.5-0.4-0.8-0.4c-0.3,0-0.6,0.1-0.8,0.4c-0.2,0.3-0.3,0.7-0.3,1.4s0.1,1.1,0.3,1.4c0.2,0.3,0.5,0.4,0.8,0.4
		C278.2,174.7,278.5,174.6,278.7,174.3z"/>
	<path d="M281.2,172.7c-0.3-0.3-0.4-0.7-0.4-1.1c0-0.5,0.1-0.8,0.4-1.1s0.6-0.4,1-0.4c0.4,0,0.7,0.1,1,0.4s0.4,0.7,0.4,1.1
		c0,0.5-0.1,0.8-0.4,1.1s-0.6,0.4-1,0.4C281.8,173.1,281.5,173,281.2,172.7z M282.6,172.3c0.1-0.1,0.2-0.4,0.2-0.7
		c0-0.3-0.1-0.5-0.2-0.7c-0.1-0.1-0.2-0.2-0.4-0.2c-0.2,0-0.3,0.1-0.4,0.2c-0.1,0.2-0.2,0.4-0.2,0.7s0.1,0.5,0.2,0.7
		c0.1,0.2,0.2,0.2,0.4,0.2C282.4,172.5,282.5,172.4,282.6,172.3z M285.5,170.1h1l-3.8,5.6h-1L285.5,170.1z M285.3,175.6
		c-0.2-0.1-0.4-0.3-0.5-0.5s-0.2-0.5-0.2-0.8c0-0.3,0.1-0.6,0.2-0.8s0.3-0.4,0.5-0.5s0.4-0.2,0.7-0.2c0.4,0,0.7,0.1,1,0.4
		c0.3,0.3,0.4,0.7,0.4,1.1c0,0.5-0.1,0.8-0.4,1.1c-0.3,0.3-0.6,0.4-1,0.4C285.7,175.8,285.5,175.7,285.3,175.6z M286.4,174.9
		c0.1-0.2,0.2-0.4,0.2-0.7c0-0.3-0.1-0.5-0.2-0.7c-0.1-0.2-0.2-0.2-0.4-0.2c-0.2,0-0.3,0.1-0.4,0.2s-0.2,0.4-0.2,0.7
		c0,0.3,0.1,0.5,0.2,0.7c0.1,0.1,0.2,0.2,0.4,0.2C286.2,175.1,286.3,175.1,286.4,174.9z"/>
</g>
<g class="st3">
	<path d="M415.3,170.8v0.8l-2.1,4.8h-1.4l2-4.5h-1.9v0.9h-1.2v-2H415.3z"/>
</g>
<g class="st3">
	<path d="M416.2,173.4c-0.3-0.3-0.4-0.7-0.4-1.1c0-0.5,0.1-0.8,0.4-1.1s0.6-0.4,1-0.4c0.4,0,0.7,0.1,1,0.4s0.4,0.7,0.4,1.1
		c0,0.5-0.1,0.8-0.4,1.1s-0.6,0.4-1,0.4C416.8,173.8,416.5,173.6,416.2,173.4z M417.6,172.9c0.1-0.1,0.2-0.4,0.2-0.7
		c0-0.3-0.1-0.5-0.2-0.7c-0.1-0.1-0.2-0.2-0.4-0.2c-0.2,0-0.3,0.1-0.4,0.2c-0.1,0.2-0.2,0.4-0.2,0.7s0.1,0.5,0.2,0.7
		c0.1,0.2,0.2,0.2,0.4,0.2C417.4,173.1,417.5,173,417.6,172.9z M420.5,170.8h1l-3.8,5.6h-1L420.5,170.8z M420.3,176.2
		c-0.2-0.1-0.4-0.3-0.5-0.5s-0.2-0.5-0.2-0.8c0-0.3,0.1-0.6,0.2-0.8s0.3-0.4,0.5-0.5s0.4-0.2,0.7-0.2c0.4,0,0.7,0.1,1,0.4
		c0.3,0.3,0.4,0.7,0.4,1.1c0,0.5-0.1,0.8-0.4,1.1c-0.3,0.3-0.6,0.4-1,0.4C420.7,176.4,420.5,176.4,420.3,176.2z M421.4,175.5
		c0.1-0.2,0.2-0.4,0.2-0.7c0-0.3-0.1-0.5-0.2-0.7c-0.1-0.2-0.2-0.2-0.4-0.2c-0.2,0-0.3,0.1-0.4,0.2s-0.2,0.4-0.2,0.7
		c0,0.3,0.1,0.5,0.2,0.7c0.1,0.1,0.2,0.2,0.4,0.2C421.2,175.8,421.3,175.7,421.4,175.5z"/>
</g>
<g class="st3">
	<path d="M369.3,133.3v5.6H368v-4.6h-1.1v-1H369.3z"/>
</g>
<g class="st3">
	<path d="M375.4,137.7h-0.9v1.2h-1.3v-1.2h-3v-0.9l2.6-3.6h1.4l-2.4,3.4h1.5v-1h1.2v1h0.9V137.7z"/>
</g>
<g class="st3">
	<path d="M375.8,135.9c-0.3-0.3-0.4-0.7-0.4-1.1c0-0.5,0.1-0.8,0.4-1.1s0.6-0.4,1-0.4c0.4,0,0.7,0.1,1,0.4s0.4,0.7,0.4,1.1
		c0,0.5-0.1,0.8-0.4,1.1s-0.6,0.4-1,0.4C376.4,136.3,376.1,136.2,375.8,135.9z M377.3,135.4c0.1-0.1,0.2-0.4,0.2-0.7
		c0-0.3-0.1-0.5-0.2-0.7c-0.1-0.1-0.2-0.2-0.4-0.2c-0.2,0-0.3,0.1-0.4,0.2c-0.1,0.2-0.2,0.4-0.2,0.7s0.1,0.5,0.2,0.7
		c0.1,0.2,0.2,0.2,0.4,0.2C377,135.7,377.2,135.6,377.3,135.4z M380.2,133.3h1l-3.8,5.6h-1L380.2,133.3z M379.9,138.8
		c-0.2-0.1-0.4-0.3-0.5-0.5s-0.2-0.5-0.2-0.8c0-0.3,0.1-0.6,0.2-0.8s0.3-0.4,0.5-0.5s0.4-0.2,0.7-0.2c0.4,0,0.7,0.1,1,0.4
		c0.3,0.3,0.4,0.7,0.4,1.1c0,0.5-0.1,0.8-0.4,1.1c-0.3,0.3-0.6,0.4-1,0.4C380.4,139,380.1,138.9,379.9,138.8z M381.1,138.1
		c0.1-0.2,0.2-0.4,0.2-0.7c0-0.3-0.1-0.5-0.2-0.7c-0.1-0.2-0.2-0.2-0.4-0.2c-0.2,0-0.3,0.1-0.4,0.2s-0.2,0.4-0.2,0.7
		c0,0.3,0.1,0.5,0.2,0.7c0.1,0.1,0.2,0.2,0.4,0.2C380.8,138.3,381,138.2,381.1,138.1z"/>
</g>
</svg>
