<?xml version="1.0" encoding="utf-8"?>
<!-- Generator: Adobe Illustrator 24.1.0, SVG Export Plug-In . SVG Version: 6.00 Build 0)  -->
<svg version="1.1" id="Layer_1" xmlns="http://www.w3.org/2000/svg" xmlns:xlink="http://www.w3.org/1999/xlink" x="0px" y="0px"
	 viewBox="0 0 504 277.7" style="enable-background:new 0 0 504 277.7;" xml:space="preserve">
<style type="text/css">
	.st0{fill:#FFFFFF;}
	.st1{opacity:0.2;}
	.st2{fill:#017DB9;}
	.st3{enable-background:new    ;}
	.st4{fill:#ED4328;}
	.st5{fill:#41AC49;}
	.st6{clip-path:url(#SVGID_2_);}
	.st7{opacity:7.000000e-02;}
	.st8{fill:none;stroke:#2681D6;stroke-width:2.59;stroke-miterlimit:10;}
	.st9{clip-path:url(#SVGID_4_);}
</style>
<rect class="st0" width="504" height="277.7"/>
<g class="st1">
	<rect x="21.2" y="55.8" width="461.7" height="0.5"/>
</g>
<g class="st1">
	<rect x="21.2" y="101.5" width="461.7" height="0.5"/>
</g>
<g class="st1">
	<rect x="21.2" y="149.5" width="461.7" height="0.5"/>
</g>
<g class="st1">
	<rect x="21.2" y="165.5" width="461.7" height="0.5"/>
</g>
<g class="st1">
	<rect x="21.2" y="182.2" width="461.7" height="0.5"/>
</g>
<g class="st1">
	<rect x="21.2" y="198.4" width="461.7" height="0.5"/>
</g>
<g class="st1">
	<rect x="21.2" y="215.5" width="461.7" height="0.5"/>
</g>
<g class="st1">
	<rect x="21.2" y="85.5" width="461.7" height="0.5"/>
</g>
<g class="st1">
	<rect x="21.2" y="70.5" width="461.7" height="0.5"/>
</g>
<g class="st1">
	<rect x="21.2" y="133.5" width="461.7" height="0.5"/>
</g>
<g class="st1">
	<rect x="21.2" y="117.5" width="461.7" height="0.5"/>
</g>
<path class="st2" d="M175.1,255.9l1.1-1.1l0,0l4.3-4.3l-4.3-4.3l0,0l-1.1-1.1l-5.5,5.5L175.1,255.9z M171.1,249.7l0.8,0.8l-0.8,0.8
	l-0.8-0.8L171.1,249.7z M179.1,251.2l-0.8-0.8l0.8-0.8l0.8,0.8L179.1,251.2z M175.9,254.4L175.9,254.4l-0.8,0.8l-1.8-1.8l1.4-1.4
	l-1.5-1.4l-1.1,1.1l0.7,0.7l0.4-0.4l-0.4-0.4l0.4-0.4l0.8,0.8l-1.1,1.1l-1.5-1.5l1.1-1.1l-1.1-1.1l1.5-1.5l1.1,1.1l-0.8,0.8
	l-0.4-0.4l0.4-0.4l-0.4-0.4l-0.7,0.7l1.1,1.1l1.5-1.5l-1.4-1.4l1-1l0,0l0.8-0.8l0.8,0.8l0,0l1,1l-1.4,1.4l1.5,1.5l1.1-1.1l-0.7-0.7
	l-0.4,0.4l0.4,0.4l-0.4,0.4l-0.8-0.8l1.1-1.1l1.5,1.5l-1.1,1.1l1.1,1.1l-1.5,1.5l-1.1-1.1l0.8-0.8l0.4,0.4l-0.4,0.4l0.4,0.4l0.7-0.7
	l-1.1-1.1l-1.5,1.4l1.4,1.4L175.9,254.4z"/>
<rect x="174.3" y="252.6" transform="matrix(0.7071 -0.7071 0.7071 0.7071 -127.9029 198.0479)" class="st2" width="1.7" height="1.7"/>
<rect x="174.3" y="246.6" transform="matrix(0.7071 -0.7071 0.7071 0.7071 -123.6738 196.2949)" class="st2" width="1.7" height="1.7"/>
<g class="st3">
	<path d="M191,253h-4v-0.6l2-2.4c0.4-0.4,0.6-0.8,0.7-1c0.1-0.3,0.2-0.5,0.2-0.8c0-0.3-0.1-0.5-0.3-0.7c-0.2-0.2-0.4-0.3-0.7-0.3
		c-0.4,0-0.7,0.1-0.9,0.3c-0.2,0.2-0.3,0.5-0.3,0.9H187l0,0c0-0.5,0.2-1,0.5-1.3c0.4-0.4,0.9-0.5,1.5-0.5c0.6,0,1,0.2,1.3,0.5
		s0.5,0.7,0.5,1.2c0,0.3-0.1,0.7-0.3,1c-0.2,0.3-0.5,0.7-0.9,1.2l-1.6,1.9l0,0h2.9V253z"/>
	<path d="M196,250.7c0,0.7-0.2,1.3-0.6,1.7s-0.9,0.6-1.5,0.6c-0.6,0-1.1-0.2-1.5-0.6c-0.4-0.4-0.6-1-0.6-1.7v-1.9
		c0-0.7,0.2-1.3,0.6-1.7s0.9-0.6,1.5-0.6c0.6,0,1.1,0.2,1.5,0.6c0.4,0.4,0.6,1,0.6,1.7V250.7z M195.1,248.7c0-0.5-0.1-0.8-0.3-1.1
		c-0.2-0.3-0.5-0.4-0.9-0.4c-0.4,0-0.7,0.1-0.9,0.4c-0.2,0.3-0.3,0.6-0.3,1.1v2.2c0,0.5,0.1,0.8,0.3,1.1c0.2,0.3,0.5,0.4,0.9,0.4
		c0.4,0,0.7-0.1,0.9-0.4c0.2-0.3,0.3-0.6,0.3-1.1V248.7z"/>
	<path d="M199.6,253h-0.9v-5.6l-1.4,0v-0.7l2.3-0.2V253z"/>
	<path d="M203.7,252.4c0.4,0,0.8-0.1,1-0.4c0.3-0.3,0.4-0.7,0.4-1.2v-0.5c-0.1,0.2-0.3,0.4-0.5,0.5c-0.2,0.1-0.4,0.2-0.7,0.2
		c-0.6,0-1.1-0.2-1.4-0.6c-0.4-0.4-0.5-0.9-0.5-1.6c0-0.6,0.2-1.2,0.6-1.6c0.4-0.4,0.8-0.6,1.4-0.6c0.6,0,1.2,0.2,1.5,0.6
		s0.6,1,0.6,1.7v1.9c0,0.7-0.2,1.3-0.6,1.7c-0.4,0.4-1,0.6-1.6,0.6c-0.2,0-0.5,0-0.7-0.1c-0.2,0-0.5-0.1-0.7-0.2l0.1-0.7
		c0.2,0.1,0.4,0.2,0.6,0.2C203.3,252.4,203.5,252.4,203.7,252.4z M203.9,250.2c0.3,0,0.6-0.1,0.8-0.2c0.2-0.1,0.4-0.3,0.5-0.5v-0.8
		c0-0.5-0.1-0.8-0.3-1.1c-0.2-0.3-0.5-0.4-0.9-0.4c-0.3,0-0.6,0.1-0.8,0.4c-0.2,0.3-0.3,0.6-0.3,1.1c0,0.4,0.1,0.8,0.3,1.1
		C203.3,250,203.6,250.2,203.9,250.2z"/>
</g>
<path class="st4" d="M240.9,255.9l1.1-1.1l0,0l4.3-4.3l-4.3-4.3l0,0l-1.1-1.1l-5.5,5.5L240.9,255.9z M236.9,249.7l0.8,0.8l-0.8,0.8
	l-0.8-0.8L236.9,249.7z M244.9,251.2l-0.8-0.8l0.8-0.8l0.8,0.8L244.9,251.2z M241.6,254.4L241.6,254.4l-0.8,0.8l-1.8-1.8l1.4-1.4
	l-1.5-1.4l-1,1.1l0.7,0.7l0.4-0.4l-0.4-0.4l0.4-0.4l0.8,0.8l-1.1,1.1l-1.5-1.5l1.1-1.1l-1.1-1.1l1.5-1.5l1.1,1.1l-0.8,0.8l-0.4-0.4
	l0.4-0.4l-0.4-0.4l-0.7,0.7l1.1,1.1l1.5-1.5l-1.4-1.4l1-1l0,0l0.8-0.8l0.8,0.8l0,0l1,1l-1.4,1.4l1.5,1.5l1.1-1.1l-0.7-0.7l-0.4,0.4
	l0.4,0.4l-0.4,0.4l-0.8-0.8l1.1-1.1l1.5,1.5l-1.1,1.1l1.1,1.1l-1.6,1.5l-1.1-1.1l0.8-0.8l0.4,0.4l-0.4,0.4l0.4,0.4l0.7-0.7l-1.1-1.1
	l-1.5,1.4l1.4,1.4L241.6,254.4z"/>
<rect x="240" y="252.6" transform="matrix(0.7071 -0.7071 0.7071 0.7071 -108.6475 244.5393)" class="st4" width="1.7" height="1.7"/>
<rect x="240" y="246.6" transform="matrix(0.7071 -0.7071 0.7071 0.7071 -104.4184 242.7863)" class="st4" width="1.7" height="1.7"/>
<g class="st3">
	<path d="M256.7,253h-4v-0.6l2-2.4c0.4-0.4,0.6-0.8,0.7-1c0.1-0.3,0.2-0.5,0.2-0.8c0-0.3-0.1-0.5-0.3-0.7c-0.2-0.2-0.4-0.3-0.7-0.3
		c-0.4,0-0.7,0.1-0.9,0.3c-0.2,0.2-0.3,0.5-0.3,0.9h-0.8l0,0c0-0.5,0.2-1,0.5-1.3c0.4-0.4,0.9-0.5,1.5-0.5c0.6,0,1,0.2,1.3,0.5
		s0.5,0.7,0.5,1.2c0,0.3-0.1,0.7-0.3,1c-0.2,0.3-0.5,0.7-0.9,1.2l-1.6,1.9l0,0h2.9V253z"/>
	<path d="M261.7,250.7c0,0.7-0.2,1.3-0.6,1.7c-0.4,0.4-0.9,0.6-1.5,0.6c-0.6,0-1.1-0.2-1.5-0.6c-0.4-0.4-0.6-1-0.6-1.7v-1.9
		c0-0.7,0.2-1.3,0.6-1.7c0.4-0.4,0.9-0.6,1.5-0.6c0.6,0,1.1,0.2,1.5,0.6c0.4,0.4,0.6,1,0.6,1.7V250.7z M260.9,248.7
		c0-0.5-0.1-0.8-0.3-1.1c-0.2-0.3-0.5-0.4-0.9-0.4c-0.4,0-0.7,0.1-0.9,0.4c-0.2,0.3-0.3,0.6-0.3,1.1v2.2c0,0.5,0.1,0.8,0.3,1.1
		c0.2,0.3,0.5,0.4,0.9,0.4c0.4,0,0.7-0.1,0.9-0.4c0.2-0.3,0.3-0.6,0.3-1.1V248.7z"/>
	<path d="M266.9,253h-4v-0.6l2-2.4c0.4-0.4,0.6-0.8,0.7-1c0.1-0.3,0.2-0.5,0.2-0.8c0-0.3-0.1-0.5-0.3-0.7c-0.2-0.2-0.4-0.3-0.7-0.3
		c-0.4,0-0.7,0.1-0.9,0.3c-0.2,0.2-0.3,0.5-0.3,0.9h-0.8l0,0c0-0.5,0.2-1,0.5-1.3c0.4-0.4,0.9-0.5,1.5-0.5c0.6,0,1,0.2,1.3,0.5
		s0.5,0.7,0.5,1.2c0,0.3-0.1,0.7-0.3,1c-0.2,0.3-0.5,0.7-0.9,1.2l-1.6,1.9l0,0h2.9V253z"/>
	<path d="M271.9,250.7c0,0.7-0.2,1.3-0.6,1.7c-0.4,0.4-0.9,0.6-1.5,0.6c-0.6,0-1.1-0.2-1.5-0.6c-0.4-0.4-0.6-1-0.6-1.7v-1.9
		c0-0.7,0.2-1.3,0.6-1.7c0.4-0.4,0.9-0.6,1.5-0.6c0.6,0,1.1,0.2,1.5,0.6c0.4,0.4,0.6,1,0.6,1.7V250.7z M271,248.7
		c0-0.5-0.1-0.8-0.3-1.1c-0.2-0.3-0.5-0.4-0.9-0.4c-0.4,0-0.7,0.1-0.9,0.4c-0.2,0.3-0.3,0.6-0.3,1.1v2.2c0,0.5,0.1,0.8,0.3,1.1
		c0.2,0.3,0.5,0.4,0.9,0.4c0.4,0,0.7-0.1,0.9-0.4c0.2-0.3,0.3-0.6,0.3-1.1V248.7z"/>
</g>
<path class="st5" d="M302.9,255.9l1.1-1.1l0,0l4.3-4.3l-4.3-4.3l0,0l-1.1-1.1l-5.5,5.5L302.9,255.9z M298.9,249.7l0.8,0.8l-0.8,0.8
	l-0.8-0.8L298.9,249.7z M306.9,251.2l-0.8-0.8l0.8-0.8l0.8,0.8L306.9,251.2z M303.6,254.4L303.6,254.4l-0.8,0.8l-1.8-1.8l1.4-1.4
	l-1.5-1.4l-1,1.1l0.7,0.7l0.4-0.4l-0.4-0.4l0.4-0.4l0.8,0.8l-1.1,1.1l-1.5-1.5l1.1-1.1l-1.1-1.1l1.5-1.5l1.1,1.1l-0.8,0.8l-0.4-0.4
	l0.4-0.4l-0.4-0.4l-0.7,0.7l1.1,1.1l1.5-1.5l-1.4-1.4l1-1l0,0l0.8-0.8l0.8,0.8l0,0l1,1l-1.4,1.4l1.5,1.5l1.1-1.1l-0.7-0.7l-0.4,0.4
	l0.4,0.4l-0.4,0.4l-0.8-0.8l1.1-1.1l1.5,1.5l-1.1,1.1l1.1,1.1l-1.5,1.5l-1.1-1.1l0.8-0.8l0.4,0.4l-0.4,0.4l0.4,0.4l0.7-0.7l-1.1-1.1
	l-1.5,1.4l1.4,1.4L303.6,254.4z"/>
<rect x="302" y="252.6" transform="matrix(0.7071 -0.7071 0.7071 0.7071 -90.4887 288.3796)" class="st5" width="1.7" height="1.7"/>
<rect x="302" y="246.6" transform="matrix(0.7071 -0.7071 0.7071 0.7071 -86.2596 286.6266)" class="st5" width="1.7" height="1.7"/>
<g class="st3">
	<path d="M318.7,253h-4v-0.6l2-2.4c0.4-0.4,0.6-0.8,0.7-1c0.1-0.3,0.2-0.5,0.2-0.8c0-0.3-0.1-0.5-0.3-0.7c-0.2-0.2-0.4-0.3-0.7-0.3
		c-0.4,0-0.7,0.1-0.9,0.3c-0.2,0.2-0.3,0.5-0.3,0.9h-0.8l0,0c0-0.5,0.2-1,0.5-1.3c0.4-0.4,0.9-0.5,1.5-0.5c0.6,0,1,0.2,1.3,0.5
		s0.5,0.7,0.5,1.2c0,0.3-0.1,0.7-0.3,1c-0.2,0.3-0.5,0.7-0.9,1.2l-1.6,1.9l0,0h2.9V253z"/>
	<path d="M323.7,250.7c0,0.7-0.2,1.3-0.6,1.7c-0.4,0.4-0.9,0.6-1.5,0.6c-0.6,0-1.1-0.2-1.5-0.6c-0.4-0.4-0.6-1-0.6-1.7v-1.9
		c0-0.7,0.2-1.3,0.6-1.7c0.4-0.4,0.9-0.6,1.5-0.6c0.6,0,1.1,0.2,1.5,0.6c0.4,0.4,0.6,1,0.6,1.7V250.7z M322.9,248.7
		c0-0.5-0.1-0.8-0.3-1.1c-0.2-0.3-0.5-0.4-0.9-0.4c-0.4,0-0.7,0.1-0.9,0.4c-0.2,0.3-0.3,0.6-0.3,1.1v2.2c0,0.5,0.1,0.8,0.3,1.1
		c0.2,0.3,0.5,0.4,0.9,0.4c0.4,0,0.7-0.1,0.9-0.4c0.2-0.3,0.3-0.6,0.3-1.1V248.7z"/>
	<path d="M328.9,253h-4v-0.6l2-2.4c0.4-0.4,0.6-0.8,0.7-1c0.1-0.3,0.2-0.5,0.2-0.8c0-0.3-0.1-0.5-0.3-0.7c-0.2-0.2-0.4-0.3-0.7-0.3
		c-0.4,0-0.7,0.1-0.9,0.3c-0.2,0.2-0.3,0.5-0.3,0.9h-0.8l0,0c0-0.5,0.2-1,0.5-1.3c0.4-0.4,0.9-0.5,1.5-0.5c0.6,0,1,0.2,1.3,0.5
		s0.5,0.7,0.5,1.2c0,0.3-0.1,0.7-0.3,1c-0.2,0.3-0.5,0.7-0.9,1.2l-1.6,1.9l0,0h2.9V253z"/>
	<path d="M332.4,253h-0.9v-5.6l-1.4,0v-0.7l2.3-0.2V253z"/>
</g>
<g class="st3">
	<path d="M162.1,33.6c-0.7-0.2-1.3-0.5-1.7-0.8l0.8-1.7c0.4,0.3,0.9,0.6,1.5,0.7c0.6,0.2,1.2,0.3,1.7,0.3c0.6,0,1.1-0.1,1.4-0.3
		c0.3-0.2,0.5-0.4,0.5-0.8c0-0.2-0.1-0.4-0.3-0.6c-0.2-0.2-0.4-0.3-0.7-0.4c-0.3-0.1-0.7-0.2-1.2-0.3c-0.7-0.2-1.4-0.4-1.8-0.5
		c-0.5-0.2-0.9-0.5-1.2-0.9c-0.3-0.4-0.5-0.9-0.5-1.6c0-0.6,0.2-1.1,0.5-1.5c0.3-0.5,0.8-0.8,1.4-1.1c0.6-0.3,1.4-0.4,2.3-0.4
		c0.6,0,1.2,0.1,1.8,0.2c0.6,0.1,1.1,0.4,1.6,0.6l-0.7,1.7c-0.9-0.5-1.8-0.8-2.7-0.8c-0.6,0-1.1,0.1-1.4,0.3s-0.5,0.5-0.5,0.8
		s0.2,0.6,0.5,0.7c0.3,0.2,0.9,0.3,1.6,0.5c0.7,0.2,1.4,0.4,1.8,0.5c0.5,0.2,0.9,0.5,1.2,0.8s0.5,0.9,0.5,1.6c0,0.6-0.2,1.1-0.5,1.5
		c-0.3,0.5-0.8,0.8-1.4,1.1c-0.6,0.3-1.4,0.4-2.3,0.4C163.6,33.9,162.8,33.8,162.1,33.6z"/>
</g>
<g class="st3">
	<path d="M171.4,33.3c-0.6-0.3-1.1-0.8-1.5-1.4s-0.5-1.3-0.5-2c0-0.7,0.2-1.4,0.5-2c0.4-0.6,0.9-1,1.5-1.4c0.6-0.3,1.4-0.5,2.2-0.5
		c0.8,0,1.5,0.2,2.1,0.5c0.6,0.3,1,0.8,1.3,1.4l-1.7,0.9c-0.4-0.7-1-1-1.7-1c-0.6,0-1,0.2-1.4,0.6c-0.4,0.4-0.6,0.9-0.6,1.5
		c0,0.6,0.2,1.2,0.6,1.5c0.4,0.4,0.8,0.6,1.4,0.6c0.7,0,1.3-0.3,1.7-1l1.7,0.9c-0.3,0.6-0.7,1.1-1.3,1.4s-1.3,0.5-2.1,0.5
		C172.7,33.8,172,33.7,171.4,33.3z"/>
</g>
<g class="st3">
	<path d="M185,26.9c0.6,0.6,0.9,1.4,0.9,2.5v4.3h-2.2v-4c0-0.6-0.1-1-0.4-1.3c-0.3-0.3-0.6-0.4-1.1-0.4c-0.6,0-1,0.2-1.3,0.5
		c-0.3,0.3-0.5,0.8-0.5,1.5v3.7h-2.2V23.3h2.2V27c0.3-0.3,0.6-0.5,1.1-0.7c0.4-0.2,0.9-0.2,1.3-0.2C183.6,26.1,184.4,26.4,185,26.9z
		"/>
</g>
<g class="st3">
	<path d="M189.3,33.3c-0.6-0.3-1.1-0.8-1.5-1.4c-0.4-0.6-0.5-1.3-0.5-2c0-0.7,0.2-1.4,0.5-2c0.4-0.6,0.8-1,1.5-1.4
		c0.6-0.3,1.3-0.5,2.1-0.5c0.8,0,1.5,0.2,2.1,0.5c0.6,0.3,1.1,0.8,1.5,1.4c0.4,0.6,0.5,1.3,0.5,2c0,0.7-0.2,1.4-0.5,2
		c-0.4,0.6-0.8,1-1.5,1.4c-0.6,0.3-1.3,0.5-2.1,0.5C190.7,33.8,190,33.7,189.3,33.3z M192.9,31.5c0.4-0.4,0.5-0.9,0.5-1.5
		s-0.2-1.1-0.5-1.5c-0.4-0.4-0.8-0.6-1.4-0.6c-0.6,0-1,0.2-1.4,0.6c-0.4,0.4-0.5,0.9-0.5,1.5s0.2,1.1,0.5,1.5
		c0.4,0.4,0.8,0.6,1.4,0.6C192,32.1,192.5,31.9,192.9,31.5z"/>
	<path d="M198.5,33.3c-0.6-0.3-1.1-0.8-1.5-1.4c-0.4-0.6-0.5-1.3-0.5-2c0-0.7,0.2-1.4,0.5-2c0.4-0.6,0.8-1,1.5-1.4
		c0.6-0.3,1.3-0.5,2.1-0.5c0.8,0,1.5,0.2,2.1,0.5c0.6,0.3,1.1,0.8,1.5,1.4c0.4,0.6,0.5,1.3,0.5,2c0,0.7-0.2,1.4-0.5,2
		c-0.4,0.6-0.8,1-1.5,1.4c-0.6,0.3-1.3,0.5-2.1,0.5C199.8,33.8,199.1,33.7,198.5,33.3z M202,31.5c0.4-0.4,0.5-0.9,0.5-1.5
		s-0.2-1.1-0.5-1.5c-0.4-0.4-0.8-0.6-1.4-0.6c-0.6,0-1,0.2-1.4,0.6c-0.4,0.4-0.5,0.9-0.5,1.5s0.2,1.1,0.5,1.5
		c0.4,0.4,0.8,0.6,1.4,0.6C201.2,32.1,201.7,31.9,202,31.5z"/>
	<path d="M206.2,23.3h2.2v10.4h-2.2V23.3z"/>
</g>
<g class="st3">
	<path d="M216.5,33.2c-0.8-0.4-1.4-1-1.9-1.8c-0.5-0.8-0.7-1.6-0.7-2.6c0-1,0.2-1.8,0.7-2.6c0.5-0.8,1.1-1.4,1.9-1.8
		c0.8-0.4,1.7-0.7,2.7-0.7c0.8,0,1.6,0.1,2.3,0.4s1.3,0.7,1.7,1.3l-1.5,1.3c-0.7-0.8-1.5-1.1-2.5-1.1c-0.6,0-1.1,0.1-1.6,0.4
		c-0.5,0.3-0.8,0.6-1.1,1.1c-0.3,0.5-0.4,1-0.4,1.6c0,0.6,0.1,1.1,0.4,1.6c0.3,0.5,0.6,0.8,1.1,1.1s1,0.4,1.6,0.4
		c1,0,1.8-0.4,2.5-1.2l1.5,1.3c-0.5,0.6-1,1-1.7,1.3c-0.7,0.3-1.5,0.4-2.3,0.4C218.2,33.9,217.3,33.7,216.5,33.2z"/>
</g>
<g class="st3">
	<path d="M225.8,33.3c-0.6-0.3-1.1-0.8-1.5-1.4c-0.4-0.6-0.5-1.3-0.5-2c0-0.7,0.2-1.4,0.5-2c0.4-0.6,0.8-1,1.5-1.4
		c0.6-0.3,1.3-0.5,2.1-0.5c0.8,0,1.5,0.2,2.1,0.5c0.6,0.3,1.1,0.8,1.5,1.4c0.4,0.6,0.5,1.3,0.5,2c0,0.7-0.2,1.4-0.5,2
		c-0.4,0.6-0.8,1-1.5,1.4c-0.6,0.3-1.3,0.5-2.1,0.5C227.2,33.8,226.5,33.7,225.8,33.3z M229.4,31.5c0.4-0.4,0.5-0.9,0.5-1.5
		s-0.2-1.1-0.5-1.5c-0.4-0.4-0.8-0.6-1.4-0.6c-0.6,0-1,0.2-1.4,0.6c-0.4,0.4-0.5,0.9-0.5,1.5s0.2,1.1,0.5,1.5
		c0.4,0.4,0.8,0.6,1.4,0.6C228.5,32.1,229,31.9,229.4,31.5z"/>
	<path d="M245.5,26.9c0.6,0.6,0.8,1.4,0.8,2.5v4.3h-2.2v-4c0-0.6-0.1-1-0.4-1.3c-0.2-0.3-0.6-0.4-1.1-0.4c-0.5,0-0.9,0.2-1.2,0.5
		s-0.4,0.8-0.4,1.5v3.8h-2.2v-4c0-1.2-0.5-1.8-1.4-1.8c-0.5,0-0.9,0.2-1.2,0.5c-0.3,0.3-0.4,0.8-0.4,1.5v3.8h-2.2v-7.5h2.1v0.9
		c0.3-0.3,0.6-0.6,1-0.7c0.4-0.2,0.9-0.3,1.3-0.3c0.5,0,1,0.1,1.4,0.3s0.8,0.5,1,0.9c0.3-0.4,0.7-0.7,1.2-0.9c0.5-0.2,1-0.3,1.5-0.3
		C244.2,26.1,244.9,26.4,245.5,26.9z"/>
	<path d="M254.6,26.6c0.6,0.3,1,0.8,1.4,1.4s0.5,1.3,0.5,2c0,0.8-0.2,1.5-0.5,2c-0.3,0.6-0.8,1-1.4,1.4c-0.6,0.3-1.2,0.5-1.9,0.5
		c-1,0-1.7-0.3-2.3-0.9v3.5h-2.2V26.2h2.1v0.9c0.5-0.7,1.3-1,2.4-1C253.4,26.1,254,26.2,254.6,26.6z M253.7,31.5
		c0.4-0.4,0.5-0.9,0.5-1.5s-0.2-1.1-0.5-1.5s-0.8-0.6-1.4-0.6s-1,0.2-1.4,0.6c-0.4,0.4-0.5,0.9-0.5,1.5s0.2,1.1,0.5,1.5
		c0.4,0.4,0.8,0.6,1.4,0.6S253.3,31.9,253.7,31.5z"/>
	<path d="M257.9,23.3h2.2v10.4h-2.2V23.3z"/>
	<path d="M269.5,30.6h-5.7c0.1,0.5,0.3,0.8,0.7,1.1s0.9,0.4,1.4,0.4c0.4,0,0.7-0.1,1-0.2c0.3-0.1,0.6-0.3,0.8-0.6l1.2,1.3
		c-0.7,0.8-1.7,1.2-3.1,1.2c-0.8,0-1.6-0.2-2.3-0.5s-1.2-0.8-1.5-1.4c-0.4-0.6-0.5-1.3-0.5-2c0-0.7,0.2-1.4,0.5-2
		c0.3-0.6,0.8-1.1,1.4-1.4c0.6-0.3,1.3-0.5,2.1-0.5c0.7,0,1.4,0.2,2,0.5c0.6,0.3,1.1,0.8,1.4,1.4s0.5,1.3,0.5,2.1
		C269.5,30,269.5,30.2,269.5,30.6z M264.4,28.2c-0.3,0.3-0.5,0.7-0.6,1.1h3.7c-0.1-0.5-0.3-0.9-0.6-1.1c-0.3-0.3-0.7-0.4-1.2-0.4
		C265.1,27.7,264.7,27.9,264.4,28.2z"/>
	<path d="M275.8,33.4c-0.2,0.2-0.5,0.3-0.8,0.4s-0.6,0.1-1,0.1c-0.9,0-1.6-0.2-2.1-0.7c-0.5-0.5-0.7-1.1-0.7-2V28h-1.2v-1.7h1.2
		v-1.8h2.2v1.8h1.9V28h-1.9v3.1c0,0.3,0.1,0.6,0.2,0.7s0.4,0.3,0.7,0.3c0.3,0,0.6-0.1,0.9-0.3L275.8,33.4z"/>
	<path d="M277.2,24.8c-0.3-0.2-0.4-0.5-0.4-0.9c0-0.3,0.1-0.6,0.4-0.9s0.6-0.3,1-0.3s0.7,0.1,1,0.3c0.3,0.2,0.4,0.5,0.4,0.8
		c0,0.4-0.1,0.7-0.4,0.9c-0.3,0.2-0.6,0.4-1,0.4S277.4,25,277.2,24.8z M277.1,26.2h2.2v7.5h-2.2V26.2z"/>
	<path d="M282.7,33.3c-0.6-0.3-1.1-0.8-1.5-1.4s-0.5-1.3-0.5-2c0-0.7,0.2-1.4,0.5-2c0.4-0.6,0.8-1,1.5-1.4c0.6-0.3,1.3-0.5,2.1-0.5
		s1.5,0.2,2.1,0.5c0.6,0.3,1.1,0.8,1.5,1.4c0.4,0.6,0.5,1.3,0.5,2c0,0.7-0.2,1.4-0.5,2s-0.8,1-1.5,1.4s-1.3,0.5-2.1,0.5
		S283.3,33.7,282.7,33.3z M286.2,31.5c0.4-0.4,0.5-0.9,0.5-1.5s-0.2-1.1-0.5-1.5s-0.8-0.6-1.4-0.6s-1,0.2-1.4,0.6
		c-0.4,0.4-0.5,0.9-0.5,1.5s0.2,1.1,0.5,1.5c0.4,0.4,0.8,0.6,1.4,0.6S285.9,31.9,286.2,31.5z"/>
	<path d="M297.3,26.9c0.6,0.6,0.9,1.4,0.9,2.5v4.3H296v-4c0-0.6-0.1-1-0.4-1.3c-0.3-0.3-0.6-0.4-1.1-0.4c-0.6,0-1,0.2-1.3,0.5
		s-0.5,0.8-0.5,1.5v3.7h-2.2v-7.5h2.1v0.9c0.3-0.3,0.6-0.6,1.1-0.7c0.4-0.2,0.9-0.3,1.4-0.3C295.9,26.1,296.7,26.4,297.3,26.9z"/>
</g>
<g class="st3">
	<path d="M310.5,33.7l-1.9-2.7h-0.1h-2v2.7h-2.3v-9.8h4.2c0.9,0,1.6,0.1,2.3,0.4c0.6,0.3,1.1,0.7,1.5,1.2c0.3,0.5,0.5,1.2,0.5,1.9
		c0,0.7-0.2,1.4-0.5,1.9c-0.3,0.5-0.8,0.9-1.5,1.2l2.2,3.2H310.5z M309.9,26.2c-0.4-0.3-0.9-0.4-1.6-0.4h-1.8v3.4h1.8
		c0.7,0,1.2-0.1,1.6-0.4c0.4-0.3,0.5-0.7,0.5-1.3C310.4,26.9,310.2,26.5,309.9,26.2z"/>
</g>
<g class="st3">
	<path d="M320,26.9c0.6,0.6,0.9,1.4,0.9,2.5v4.3h-2v-0.9c-0.4,0.7-1.2,1.1-2.3,1.1c-0.6,0-1.1-0.1-1.5-0.3c-0.4-0.2-0.7-0.5-1-0.8
		c-0.2-0.3-0.3-0.7-0.3-1.2c0-0.7,0.3-1.3,0.8-1.7s1.3-0.6,2.4-0.6h1.7c0-0.5-0.1-0.8-0.4-1.1c-0.3-0.3-0.7-0.4-1.3-0.4
		c-0.4,0-0.8,0.1-1.2,0.2c-0.4,0.1-0.7,0.3-1,0.5l-0.8-1.5c0.4-0.3,0.9-0.5,1.5-0.7c0.6-0.2,1.2-0.2,1.8-0.2
		C318.5,26.1,319.4,26.4,320,26.9z M318.2,32.1c0.3-0.2,0.5-0.4,0.6-0.8v-0.8h-1.5c-0.9,0-1.3,0.3-1.3,0.9c0,0.3,0.1,0.5,0.3,0.7
		c0.2,0.2,0.5,0.2,0.9,0.2C317.5,32.4,317.9,32.3,318.2,32.1z"/>
</g>
<g class="st3">
	<path d="M327.8,33.4c-0.2,0.2-0.5,0.3-0.8,0.4s-0.6,0.1-1,0.1c-0.9,0-1.6-0.2-2.1-0.7c-0.5-0.5-0.7-1.1-0.7-2V28H322v-1.7h1.2v-1.8
		h2.2v1.8h1.9V28h-1.9v3.1c0,0.3,0.1,0.6,0.2,0.7s0.4,0.3,0.7,0.3c0.3,0,0.6-0.1,0.9-0.3L327.8,33.4z"/>
</g>
<g class="st3">
	<path d="M336.1,30.6h-5.7c0.1,0.5,0.3,0.8,0.7,1.1s0.9,0.4,1.4,0.4c0.4,0,0.7-0.1,1-0.2c0.3-0.1,0.6-0.3,0.8-0.6l1.2,1.3
		c-0.7,0.8-1.7,1.2-3.1,1.2c-0.8,0-1.6-0.2-2.3-0.5s-1.2-0.8-1.5-1.4c-0.4-0.6-0.5-1.3-0.5-2c0-0.7,0.2-1.4,0.5-2s0.8-1.1,1.4-1.4
		c0.6-0.3,1.3-0.5,2.1-0.5c0.7,0,1.4,0.2,2,0.5s1.1,0.8,1.4,1.4c0.3,0.6,0.5,1.3,0.5,2.1C336.2,30,336.1,30.2,336.1,30.6z M331,28.2
		c-0.3,0.3-0.5,0.7-0.6,1.1h3.7c-0.1-0.5-0.3-0.9-0.6-1.1c-0.3-0.3-0.7-0.4-1.2-0.4C331.8,27.7,331.3,27.9,331,28.2z"/>
	<path d="M338.3,33.6c-0.6-0.2-1.1-0.3-1.4-0.6l0.7-1.6c0.3,0.2,0.7,0.4,1.2,0.5c0.5,0.1,0.9,0.2,1.4,0.2c0.9,0,1.4-0.2,1.4-0.7
		c0-0.2-0.1-0.4-0.4-0.5c-0.3-0.1-0.6-0.2-1.2-0.2c-0.6-0.1-1.1-0.2-1.5-0.3s-0.7-0.3-1-0.6c-0.3-0.3-0.4-0.7-0.4-1.3
		c0-0.5,0.1-0.9,0.4-1.3c0.3-0.4,0.7-0.7,1.2-0.9c0.5-0.2,1.1-0.3,1.9-0.3c0.5,0,1.1,0.1,1.6,0.2c0.5,0.1,1,0.3,1.3,0.5l-0.7,1.6
		c-0.7-0.4-1.4-0.6-2.2-0.6c-0.5,0-0.8,0.1-1.1,0.2s-0.3,0.3-0.3,0.5c0,0.2,0.1,0.4,0.4,0.5c0.3,0.1,0.7,0.2,1.2,0.3
		c0.6,0.1,1.1,0.2,1.5,0.3c0.4,0.1,0.7,0.3,1,0.6c0.3,0.3,0.4,0.7,0.4,1.3c0,0.5-0.1,0.9-0.4,1.2s-0.7,0.6-1.2,0.8
		c-0.5,0.2-1.2,0.3-1.9,0.3C339.5,33.8,338.9,33.8,338.3,33.6z"/>
</g>
<rect x="195.3" y="79.6" class="st2" width="30.9" height="136.4"/>
<rect x="236" y="75" class="st4" width="30.9" height="141"/>
<rect x="277.7" y="73.3" class="st5" width="31" height="142.7"/>
<rect x="349.3" y="121.6" class="st2" width="31" height="94.4"/>
<rect x="390" y="112" class="st4" width="31" height="104"/>
<rect x="431.7" y="108.3" class="st5" width="31" height="107.7"/>
<rect x="42.2" y="64" class="st2" width="30.9" height="152"/>
<rect x="82.9" y="63.4" class="st4" width="30.9" height="152.6"/>
<rect x="124.6" y="60.4" class="st5" width="30.9" height="155.6"/>
<g class="st3">
	<path d="M84.6,227v2.6h-0.9v-6.4h2.4c0.7,0,1.2,0.2,1.6,0.5c0.4,0.4,0.6,0.8,0.6,1.4c0,0.6-0.2,1-0.6,1.4c-0.4,0.3-0.9,0.5-1.6,0.5
		H84.6z M84.6,226.3h1.6c0.4,0,0.8-0.1,1-0.3c0.2-0.2,0.3-0.5,0.3-0.9s-0.1-0.7-0.3-0.9c-0.2-0.2-0.5-0.4-1-0.4h-1.6V226.3z"/>
	<path d="M91.6,225.5l-0.4,0c-0.2,0-0.4,0.1-0.6,0.2c-0.2,0.1-0.3,0.3-0.4,0.5v3.4h-0.9v-4.8h0.8l0.1,0.7c0.1-0.2,0.3-0.4,0.5-0.6
		c0.2-0.1,0.4-0.2,0.7-0.2c0.1,0,0.1,0,0.2,0c0.1,0,0.1,0,0.1,0L91.6,225.5z"/>
	<path d="M93.4,223.6h-0.9v-0.9h0.9V223.6z M93.4,229.5h-0.9v-4.8h0.9V229.5z"/>
	<path d="M95.6,224.8l0.1,0.6c0.2-0.2,0.4-0.4,0.6-0.5c0.2-0.1,0.5-0.2,0.8-0.2s0.6,0.1,0.8,0.2c0.2,0.1,0.4,0.4,0.5,0.7
		c0.2-0.3,0.4-0.5,0.6-0.6c0.2-0.2,0.5-0.2,0.9-0.2c0.5,0,0.9,0.2,1.1,0.5c0.3,0.3,0.4,0.8,0.4,1.5v2.8h-0.9v-2.9
		c0-0.5-0.1-0.8-0.2-1c-0.2-0.2-0.4-0.3-0.7-0.3c-0.3,0-0.5,0.1-0.7,0.3c-0.2,0.2-0.3,0.5-0.3,0.8v0v3h-0.9v-2.9
		c0-0.4-0.1-0.8-0.2-1c-0.2-0.2-0.4-0.3-0.7-0.3c-0.3,0-0.5,0.1-0.7,0.2s-0.3,0.3-0.4,0.5v3.5h-0.9v-4.8H95.6z"/>
	<path d="M105.6,229.5c0-0.1-0.1-0.3-0.1-0.4c0-0.1,0-0.2,0-0.3c-0.2,0.2-0.4,0.4-0.6,0.6c-0.3,0.2-0.5,0.2-0.8,0.2
		c-0.5,0-0.9-0.1-1.1-0.4c-0.3-0.3-0.4-0.6-0.4-1c0-0.5,0.2-0.8,0.6-1.1c0.4-0.3,0.9-0.4,1.5-0.4h0.9v-0.5c0-0.3-0.1-0.5-0.3-0.7
		c-0.2-0.2-0.4-0.2-0.7-0.2c-0.3,0-0.5,0.1-0.7,0.2s-0.3,0.3-0.3,0.5l-0.8,0l0,0c0-0.3,0.1-0.7,0.5-0.9c0.3-0.3,0.8-0.4,1.3-0.4
		c0.5,0,1,0.1,1.3,0.4c0.3,0.3,0.5,0.7,0.5,1.2v2.3c0,0.2,0,0.3,0,0.5s0,0.3,0.1,0.5H105.6z M104.1,228.9c0.3,0,0.6-0.1,0.8-0.2
		c0.3-0.2,0.4-0.3,0.5-0.6v-0.8h-1c-0.3,0-0.6,0.1-0.8,0.3c-0.2,0.2-0.3,0.4-0.3,0.6c0,0.2,0.1,0.4,0.2,0.5S103.9,228.9,104.1,228.9
		z"/>
</g>
<g class="st3">
	<path d="M109.8,225.5l-0.4,0c-0.2,0-0.4,0.1-0.6,0.2s-0.3,0.3-0.4,0.5v3.4h-0.9v-4.8h0.8l0.1,0.7c0.1-0.2,0.3-0.4,0.5-0.6
		c0.2-0.1,0.4-0.2,0.7-0.2c0.1,0,0.1,0,0.2,0c0.1,0,0.1,0,0.1,0L109.8,225.5z"/>
</g>
<g class="st3">
	<path d="M112.3,227.8l0.2,0.6h0l1.2-3.6h1l-2,5.5c-0.1,0.3-0.3,0.6-0.5,0.8c-0.2,0.2-0.5,0.4-0.9,0.4c-0.1,0-0.2,0-0.3,0
		c-0.1,0-0.2,0-0.3,0l0.1-0.7c0,0,0,0,0.2,0s0.2,0,0.2,0c0.2,0,0.3-0.1,0.5-0.2c0.1-0.2,0.2-0.3,0.3-0.5l0.2-0.5l-1.8-4.7h1
		L112.3,227.8z"/>
</g>
<g class="st3">
	<path d="M218.8,223.1h0.9v4.5c0,0.6-0.2,1.1-0.5,1.4s-0.8,0.5-1.4,0.5c-0.6,0-1.1-0.2-1.4-0.5c-0.3-0.3-0.5-0.8-0.5-1.4l0,0h0.8
		c0,0.4,0.1,0.7,0.3,0.9s0.4,0.3,0.8,0.3c0.3,0,0.6-0.1,0.8-0.3s0.3-0.5,0.3-0.9V223.1z"/>
	<path d="M224,228.8c-0.1,0.3-0.3,0.5-0.6,0.6s-0.5,0.2-0.8,0.2c-0.5,0-0.9-0.2-1.2-0.5s-0.4-0.8-0.4-1.5v-2.8h0.9v2.8
		c0,0.5,0.1,0.9,0.2,1s0.4,0.3,0.7,0.3c0.3,0,0.6-0.1,0.8-0.2c0.2-0.1,0.4-0.3,0.5-0.5v-3.4h0.9v4.8h-0.8L224,228.8z"/>
	<path d="M226.9,224.8l0.1,0.7c0.2-0.3,0.4-0.4,0.6-0.6c0.2-0.1,0.5-0.2,0.8-0.2c0.5,0,0.9,0.2,1.2,0.5c0.3,0.3,0.4,0.8,0.4,1.4v3
		h-0.9v-3c0-0.4-0.1-0.7-0.2-0.9c-0.2-0.2-0.4-0.3-0.8-0.3c-0.3,0-0.5,0.1-0.7,0.2c-0.2,0.1-0.3,0.3-0.4,0.5v3.5h-0.9v-4.8H226.9z"
		/>
	<path d="M232.2,223.6h-0.9v-0.9h0.9V223.6z M232.2,229.5h-0.9v-4.8h0.9V229.5z"/>
	<path d="M233.3,227.1c0-0.7,0.2-1.3,0.6-1.7c0.4-0.5,0.9-0.7,1.6-0.7c0.7,0,1.2,0.2,1.6,0.7c0.4,0.5,0.6,1,0.6,1.7v0.1
		c0,0.7-0.2,1.3-0.6,1.7s-0.9,0.7-1.6,0.7s-1.2-0.2-1.6-0.7C233.5,228.5,233.3,227.9,233.3,227.1L233.3,227.1z M234.2,227.2
		c0,0.5,0.1,0.9,0.3,1.2s0.5,0.5,0.9,0.5c0.4,0,0.7-0.2,0.9-0.5s0.3-0.7,0.3-1.2v-0.1c0-0.5-0.1-0.9-0.3-1.2
		c-0.2-0.3-0.5-0.5-0.9-0.5c-0.4,0-0.7,0.2-0.9,0.5S234.2,226.6,234.2,227.2L234.2,227.2z"/>
	<path d="M240.9,225.5l-0.4,0c-0.2,0-0.4,0.1-0.6,0.2s-0.3,0.3-0.4,0.5v3.4h-0.9v-4.8h0.8l0.1,0.7c0.1-0.2,0.3-0.4,0.5-0.6
		c0.2-0.1,0.4-0.2,0.7-0.2c0.1,0,0.1,0,0.2,0c0.1,0,0.1,0,0.1,0L240.9,225.5z"/>
	<path d="M249.8,227.9c0-0.3-0.1-0.5-0.3-0.7s-0.6-0.4-1.1-0.5c-0.7-0.2-1.2-0.4-1.5-0.7c-0.4-0.3-0.5-0.7-0.5-1.2
		c0-0.5,0.2-0.9,0.6-1.3s0.9-0.5,1.5-0.5c0.7,0,1.2,0.2,1.6,0.6c0.4,0.4,0.6,0.8,0.6,1.3l0,0h-0.8c0-0.4-0.1-0.7-0.4-0.9
		c-0.3-0.2-0.6-0.4-1-0.4c-0.4,0-0.7,0.1-0.9,0.3c-0.2,0.2-0.3,0.5-0.3,0.8c0,0.3,0.1,0.5,0.4,0.7c0.2,0.2,0.6,0.3,1.1,0.5
		c0.6,0.2,1.1,0.4,1.5,0.7c0.3,0.3,0.5,0.7,0.5,1.2c0,0.5-0.2,0.9-0.6,1.2s-0.9,0.5-1.6,0.5c-0.6,0-1.2-0.2-1.6-0.5
		s-0.7-0.8-0.7-1.4l0,0h0.8c0,0.4,0.2,0.7,0.5,0.9c0.3,0.2,0.6,0.3,1,0.3c0.4,0,0.7-0.1,1-0.3S249.8,228.2,249.8,227.9z"/>
	<path d="M253.7,229.6c-0.7,0-1.2-0.2-1.6-0.7c-0.4-0.4-0.6-1-0.6-1.7v-0.2c0-0.7,0.2-1.2,0.6-1.7c0.4-0.4,0.9-0.7,1.4-0.7
		c0.6,0,1.1,0.2,1.4,0.6c0.3,0.4,0.5,0.9,0.5,1.6v0.5h-3l0,0c0,0.5,0.1,0.9,0.3,1.2c0.2,0.3,0.5,0.4,1,0.4c0.3,0,0.5,0,0.8-0.1
		c0.2-0.1,0.4-0.2,0.6-0.3l0.3,0.6c-0.2,0.2-0.4,0.3-0.7,0.4C254.4,229.6,254.1,229.6,253.7,229.6z M253.6,225.4
		c-0.3,0-0.6,0.1-0.7,0.3c-0.2,0.2-0.3,0.5-0.4,0.9l0,0h2.1v-0.1c0-0.3-0.1-0.6-0.3-0.9S253.9,225.4,253.6,225.4z"/>
	<path d="M258.3,228.9c0.3,0,0.5-0.1,0.7-0.3c0.2-0.2,0.3-0.4,0.3-0.7h0.8l0,0c0,0.4-0.2,0.8-0.5,1.1c-0.4,0.3-0.8,0.5-1.3,0.5
		c-0.7,0-1.2-0.2-1.5-0.7s-0.5-1-0.5-1.7v-0.2c0-0.7,0.2-1.2,0.5-1.7c0.4-0.5,0.9-0.7,1.5-0.7c0.5,0,1,0.2,1.3,0.5
		c0.3,0.3,0.5,0.7,0.5,1.2l0,0h-0.8c0-0.3-0.1-0.5-0.3-0.7c-0.2-0.2-0.4-0.3-0.7-0.3c-0.4,0-0.7,0.2-0.9,0.5
		c-0.2,0.3-0.3,0.7-0.3,1.2v0.2c0,0.5,0.1,0.9,0.3,1.2C257.6,228.8,257.9,228.9,258.3,228.9z"/>
	<path d="M261,227.1c0-0.7,0.2-1.3,0.6-1.7c0.4-0.5,0.9-0.7,1.6-0.7c0.7,0,1.2,0.2,1.6,0.7c0.4,0.5,0.6,1,0.6,1.7v0.1
		c0,0.7-0.2,1.3-0.6,1.7s-0.9,0.7-1.6,0.7s-1.2-0.2-1.6-0.7C261.1,228.5,261,227.9,261,227.1L261,227.1z M261.8,227.2
		c0,0.5,0.1,0.9,0.3,1.2c0.2,0.3,0.5,0.5,0.9,0.5c0.4,0,0.7-0.2,0.9-0.5s0.3-0.7,0.3-1.2v-0.1c0-0.5-0.1-0.9-0.3-1.2
		c-0.2-0.3-0.5-0.5-0.9-0.5c-0.4,0-0.7,0.2-0.9,0.5C261.9,226.2,261.8,226.6,261.8,227.2L261.8,227.2z"/>
	<path d="M267,224.8l0.1,0.7c0.2-0.3,0.4-0.4,0.6-0.6c0.2-0.1,0.5-0.2,0.8-0.2c0.5,0,0.9,0.2,1.2,0.5c0.3,0.3,0.4,0.8,0.4,1.4v3
		h-0.9v-3c0-0.4-0.1-0.7-0.2-0.9c-0.2-0.2-0.4-0.3-0.8-0.3c-0.3,0-0.5,0.1-0.7,0.2c-0.2,0.1-0.3,0.3-0.4,0.5v3.5h-0.9v-4.8H267z"/>
	<path d="M271.2,227.2c0-0.8,0.2-1.4,0.5-1.9c0.3-0.5,0.8-0.7,1.4-0.7c0.3,0,0.5,0.1,0.7,0.2c0.2,0.1,0.4,0.3,0.6,0.4v-2.6h0.9v6.9
		h-0.7l-0.1-0.6c-0.2,0.2-0.3,0.4-0.6,0.5c-0.2,0.1-0.5,0.2-0.8,0.2c-0.6,0-1-0.2-1.4-0.6C271.4,228.6,271.2,228,271.2,227.2
		L271.2,227.2z M272.1,227.3c0,0.5,0.1,0.9,0.3,1.2c0.2,0.3,0.5,0.4,0.9,0.4c0.3,0,0.5-0.1,0.7-0.2c0.2-0.1,0.3-0.3,0.4-0.5V226
		c-0.1-0.2-0.3-0.4-0.4-0.5c-0.2-0.1-0.4-0.2-0.6-0.2c-0.4,0-0.7,0.2-0.9,0.5C272.2,226.2,272.1,226.7,272.1,227.3L272.1,227.3z"/>
	<path d="M279.4,229.5c0-0.1-0.1-0.3-0.1-0.4c0-0.1,0-0.2,0-0.3c-0.2,0.2-0.4,0.4-0.6,0.6c-0.3,0.2-0.5,0.2-0.8,0.2
		c-0.5,0-0.9-0.1-1.1-0.4c-0.3-0.3-0.4-0.6-0.4-1c0-0.5,0.2-0.8,0.6-1.1c0.4-0.3,0.9-0.4,1.5-0.4h0.9v-0.5c0-0.3-0.1-0.5-0.3-0.7
		c-0.2-0.2-0.4-0.2-0.7-0.2c-0.3,0-0.5,0.1-0.7,0.2s-0.3,0.3-0.3,0.5l-0.8,0l0,0c0-0.3,0.1-0.7,0.5-0.9c0.3-0.3,0.8-0.4,1.3-0.4
		c0.5,0,1,0.1,1.3,0.4c0.3,0.3,0.5,0.7,0.5,1.2v2.3c0,0.2,0,0.3,0,0.5s0,0.3,0.1,0.5H279.4z M278,228.9c0.3,0,0.6-0.1,0.8-0.2
		c0.3-0.2,0.4-0.3,0.5-0.6v-0.8h-1c-0.3,0-0.6,0.1-0.8,0.3c-0.2,0.2-0.3,0.4-0.3,0.6c0,0.2,0.1,0.4,0.2,0.5S277.7,228.9,278,228.9z"
		/>
</g>
<g class="st3">
	<path d="M283.7,225.5l-0.4,0c-0.2,0-0.4,0.1-0.6,0.2c-0.2,0.1-0.3,0.3-0.4,0.5v3.4h-0.9v-4.8h0.8l0.1,0.7c0.1-0.2,0.3-0.4,0.5-0.6
		c0.2-0.1,0.4-0.2,0.7-0.2c0.1,0,0.1,0,0.2,0c0.1,0,0.1,0,0.1,0L283.7,225.5z"/>
</g>
<g class="st3">
	<path d="M286.1,227.8l0.2,0.6h0l1.2-3.6h1l-2,5.5c-0.1,0.3-0.3,0.6-0.5,0.8c-0.2,0.2-0.5,0.4-0.9,0.4c-0.1,0-0.2,0-0.3,0
		c-0.1,0-0.2,0-0.2,0l0.1-0.7c0,0,0,0,0.2,0c0.1,0,0.2,0,0.2,0c0.2,0,0.3-0.1,0.5-0.2c0.1-0.2,0.2-0.3,0.3-0.5l0.2-0.5l-1.8-4.7h1
		L286.1,227.8z"/>
</g>
<g class="st3">
	<path d="M374.6,227.9c0-0.3-0.1-0.5-0.3-0.7s-0.6-0.4-1.1-0.5c-0.7-0.2-1.2-0.4-1.5-0.7c-0.4-0.3-0.5-0.7-0.5-1.2
		c0-0.5,0.2-0.9,0.6-1.3s0.9-0.5,1.5-0.5c0.7,0,1.2,0.2,1.6,0.6c0.4,0.4,0.6,0.8,0.6,1.3l0,0h-0.8c0-0.4-0.1-0.7-0.4-0.9
		c-0.3-0.2-0.6-0.4-1-0.4c-0.4,0-0.7,0.1-0.9,0.3c-0.2,0.2-0.3,0.5-0.3,0.8c0,0.3,0.1,0.5,0.4,0.7c0.2,0.2,0.6,0.3,1.1,0.5
		c0.6,0.2,1.1,0.4,1.5,0.7c0.3,0.3,0.5,0.7,0.5,1.2c0,0.5-0.2,0.9-0.6,1.2c-0.4,0.3-0.9,0.5-1.6,0.5c-0.6,0-1.2-0.2-1.6-0.5
		c-0.5-0.3-0.7-0.8-0.7-1.4l0,0h0.8c0,0.4,0.2,0.7,0.5,0.9c0.3,0.2,0.6,0.3,1,0.3c0.4,0,0.7-0.1,1-0.3
		C374.5,228.5,374.6,228.2,374.6,227.9z"/>
	<path d="M378.5,229.6c-0.7,0-1.2-0.2-1.6-0.7c-0.4-0.4-0.6-1-0.6-1.7v-0.2c0-0.7,0.2-1.2,0.6-1.7c0.4-0.4,0.9-0.7,1.4-0.7
		c0.6,0,1.1,0.2,1.4,0.6c0.3,0.4,0.5,0.9,0.5,1.6v0.5h-3l0,0c0,0.5,0.1,0.9,0.3,1.2c0.2,0.3,0.5,0.4,1,0.4c0.3,0,0.5,0,0.8-0.1
		c0.2-0.1,0.4-0.2,0.6-0.3l0.3,0.6c-0.2,0.2-0.4,0.3-0.7,0.4C379.3,229.6,378.9,229.6,378.5,229.6z M378.4,225.4
		c-0.3,0-0.6,0.1-0.7,0.3c-0.2,0.2-0.3,0.5-0.4,0.9l0,0h2.1v-0.1c0-0.3-0.1-0.6-0.3-0.9S378.8,225.4,378.4,225.4z"/>
	<path d="M382.1,224.8l0.1,0.7c0.2-0.3,0.4-0.4,0.6-0.6c0.2-0.1,0.5-0.2,0.8-0.2c0.5,0,0.9,0.2,1.2,0.5c0.3,0.3,0.4,0.8,0.4,1.4v3
		h-0.9v-3c0-0.4-0.1-0.7-0.2-0.9c-0.2-0.2-0.4-0.3-0.8-0.3c-0.3,0-0.5,0.1-0.7,0.2c-0.2,0.1-0.3,0.3-0.4,0.5v3.5h-0.9v-4.8H382.1z"
		/>
	<path d="M387.3,223.6h-0.9v-0.9h0.9V223.6z M387.3,229.5h-0.9v-4.8h0.9V229.5z"/>
	<path d="M388.5,227.1c0-0.7,0.2-1.3,0.6-1.7c0.4-0.5,0.9-0.7,1.6-0.7c0.7,0,1.2,0.2,1.6,0.7c0.4,0.5,0.6,1,0.6,1.7v0.1
		c0,0.7-0.2,1.3-0.6,1.7s-0.9,0.7-1.6,0.7s-1.2-0.2-1.6-0.7C388.7,228.5,388.5,227.9,388.5,227.1L388.5,227.1z M389.3,227.2
		c0,0.5,0.1,0.9,0.3,1.2c0.2,0.3,0.5,0.5,0.9,0.5c0.4,0,0.7-0.2,0.9-0.5s0.3-0.7,0.3-1.2v-0.1c0-0.5-0.1-0.9-0.3-1.2
		c-0.2-0.3-0.5-0.5-0.9-0.5c-0.4,0-0.7,0.2-0.9,0.5C389.4,226.2,389.3,226.6,389.3,227.2L389.3,227.2z"/>
	<path d="M396,225.5l-0.4,0c-0.2,0-0.4,0.1-0.6,0.2c-0.2,0.1-0.3,0.3-0.4,0.5v3.4h-0.9v-4.8h0.8l0.1,0.7c0.1-0.2,0.3-0.4,0.5-0.6
		c0.2-0.1,0.4-0.2,0.7-0.2c0.1,0,0.1,0,0.2,0c0.1,0,0.1,0,0.1,0L396,225.5z"/>
	<path d="M402.7,227.9c0-0.3-0.1-0.5-0.3-0.7s-0.6-0.4-1.1-0.5c-0.7-0.2-1.2-0.4-1.5-0.7c-0.4-0.3-0.5-0.7-0.5-1.2
		c0-0.5,0.2-0.9,0.6-1.3s0.9-0.5,1.5-0.5c0.7,0,1.2,0.2,1.6,0.6c0.4,0.4,0.6,0.8,0.6,1.3l0,0h-0.8c0-0.4-0.1-0.7-0.4-0.9
		c-0.3-0.2-0.6-0.4-1-0.4c-0.4,0-0.7,0.1-0.9,0.3c-0.2,0.2-0.3,0.5-0.3,0.8c0,0.3,0.1,0.5,0.4,0.7c0.2,0.2,0.6,0.3,1.1,0.5
		c0.6,0.2,1.1,0.4,1.5,0.7c0.3,0.3,0.5,0.7,0.5,1.2c0,0.5-0.2,0.9-0.6,1.2c-0.4,0.3-0.9,0.5-1.6,0.5c-0.6,0-1.2-0.2-1.6-0.5
		c-0.5-0.3-0.7-0.8-0.7-1.4l0,0h0.8c0,0.4,0.2,0.7,0.5,0.9c0.3,0.2,0.6,0.3,1,0.3c0.4,0,0.7-0.1,1-0.3
		C402.6,228.5,402.7,228.2,402.7,227.9z"/>
	<path d="M406.6,229.6c-0.7,0-1.2-0.2-1.6-0.7c-0.4-0.4-0.6-1-0.6-1.7v-0.2c0-0.7,0.2-1.2,0.6-1.7c0.4-0.4,0.9-0.7,1.4-0.7
		c0.6,0,1.1,0.2,1.4,0.6c0.3,0.4,0.5,0.9,0.5,1.6v0.5h-3l0,0c0,0.5,0.1,0.9,0.3,1.2c0.2,0.3,0.5,0.4,1,0.4c0.3,0,0.5,0,0.8-0.1
		c0.2-0.1,0.4-0.2,0.6-0.3l0.3,0.6c-0.2,0.2-0.4,0.3-0.7,0.4C407.4,229.6,407,229.6,406.6,229.6z M406.5,225.4
		c-0.3,0-0.6,0.1-0.7,0.3c-0.2,0.2-0.3,0.5-0.4,0.9l0,0h2.1v-0.1c0-0.3-0.1-0.6-0.3-0.9S406.9,225.4,406.5,225.4z"/>
	<path d="M411.3,228.9c0.3,0,0.5-0.1,0.7-0.3c0.2-0.2,0.3-0.4,0.3-0.7h0.8l0,0c0,0.4-0.2,0.8-0.5,1.1c-0.4,0.3-0.8,0.5-1.3,0.5
		c-0.7,0-1.2-0.2-1.5-0.7s-0.5-1-0.5-1.7v-0.2c0-0.7,0.2-1.2,0.5-1.7c0.4-0.5,0.9-0.7,1.5-0.7c0.5,0,1,0.2,1.3,0.5
		c0.3,0.3,0.5,0.7,0.5,1.2l0,0h-0.8c0-0.3-0.1-0.5-0.3-0.7c-0.2-0.2-0.4-0.3-0.7-0.3c-0.4,0-0.7,0.2-0.9,0.5
		c-0.2,0.3-0.3,0.7-0.3,1.2v0.2c0,0.5,0.1,0.9,0.3,1.2C410.5,228.8,410.8,228.9,411.3,228.9z"/>
	<path d="M413.9,227.1c0-0.7,0.2-1.3,0.6-1.7c0.4-0.5,0.9-0.7,1.6-0.7c0.7,0,1.2,0.2,1.6,0.7c0.4,0.5,0.6,1,0.6,1.7v0.1
		c0,0.7-0.2,1.3-0.6,1.7s-0.9,0.7-1.6,0.7s-1.2-0.2-1.6-0.7C414.1,228.5,413.9,227.9,413.9,227.1L413.9,227.1z M414.8,227.2
		c0,0.5,0.1,0.9,0.3,1.2c0.2,0.3,0.5,0.5,0.9,0.5c0.4,0,0.7-0.2,0.9-0.5s0.3-0.7,0.3-1.2v-0.1c0-0.5-0.1-0.9-0.3-1.2
		c-0.2-0.3-0.5-0.5-0.9-0.5c-0.4,0-0.7,0.2-0.9,0.5C414.9,226.2,414.8,226.6,414.8,227.2L414.8,227.2z"/>
	<path d="M420,224.8l0.1,0.7c0.2-0.3,0.4-0.4,0.6-0.6c0.2-0.1,0.5-0.2,0.8-0.2c0.5,0,0.9,0.2,1.2,0.5c0.3,0.3,0.4,0.8,0.4,1.4v3
		h-0.9v-3c0-0.4-0.1-0.7-0.2-0.9c-0.2-0.2-0.4-0.3-0.8-0.3c-0.3,0-0.5,0.1-0.7,0.2c-0.2,0.1-0.3,0.3-0.4,0.5v3.5h-0.9v-4.8H420z"/>
	<path d="M424.1,227.2c0-0.8,0.2-1.4,0.5-1.9c0.3-0.5,0.8-0.7,1.4-0.7c0.3,0,0.5,0.1,0.7,0.2c0.2,0.1,0.4,0.3,0.6,0.4v-2.6h0.9v6.9
		h-0.7l-0.1-0.6c-0.2,0.2-0.3,0.4-0.6,0.5c-0.2,0.1-0.5,0.2-0.8,0.2c-0.6,0-1-0.2-1.4-0.6C424.3,228.6,424.1,228,424.1,227.2
		L424.1,227.2z M425,227.3c0,0.5,0.1,0.9,0.3,1.2c0.2,0.3,0.5,0.4,0.9,0.4c0.3,0,0.5-0.1,0.7-0.2c0.2-0.1,0.3-0.3,0.4-0.5V226
		c-0.1-0.2-0.3-0.4-0.4-0.5c-0.2-0.1-0.4-0.2-0.6-0.2c-0.4,0-0.7,0.2-0.9,0.5C425.1,226.2,425,226.7,425,227.3L425,227.3z"/>
	<path d="M432.4,229.5c0-0.1-0.1-0.3-0.1-0.4c0-0.1,0-0.2,0-0.3c-0.2,0.2-0.4,0.4-0.6,0.6c-0.3,0.2-0.5,0.2-0.8,0.2
		c-0.5,0-0.9-0.1-1.1-0.4c-0.3-0.3-0.4-0.6-0.4-1c0-0.5,0.2-0.8,0.6-1.1c0.4-0.3,0.9-0.4,1.5-0.4h0.9v-0.5c0-0.3-0.1-0.5-0.3-0.7
		c-0.2-0.2-0.4-0.2-0.7-0.2c-0.3,0-0.5,0.1-0.7,0.2s-0.3,0.3-0.3,0.5l-0.8,0l0,0c0-0.3,0.1-0.7,0.5-0.9c0.3-0.3,0.8-0.4,1.3-0.4
		c0.5,0,1,0.1,1.3,0.4c0.3,0.3,0.5,0.7,0.5,1.2v2.3c0,0.2,0,0.3,0,0.5s0,0.3,0.1,0.5H432.4z M430.9,228.9c0.3,0,0.6-0.1,0.8-0.2
		c0.3-0.2,0.4-0.3,0.5-0.6v-0.8h-1c-0.3,0-0.6,0.1-0.8,0.3c-0.2,0.2-0.3,0.4-0.3,0.6c0,0.2,0.1,0.4,0.2,0.5S430.7,228.9,430.9,228.9
		z"/>
</g>
<g class="st3">
	<path d="M436.6,225.5l-0.4,0c-0.2,0-0.4,0.1-0.6,0.2c-0.2,0.1-0.3,0.3-0.4,0.5v3.4h-0.9v-4.8h0.8l0.1,0.7c0.1-0.2,0.3-0.4,0.5-0.6
		c0.2-0.1,0.4-0.2,0.7-0.2c0.1,0,0.1,0,0.2,0c0.1,0,0.1,0,0.1,0L436.6,225.5z"/>
</g>
<g class="st3">
	<path d="M439.1,227.8l0.2,0.6h0l1.2-3.6h1l-2,5.5c-0.1,0.3-0.3,0.6-0.5,0.8c-0.2,0.2-0.5,0.4-0.9,0.4c-0.1,0-0.2,0-0.3,0
		c-0.1,0-0.2,0-0.3,0l0.1-0.7c0,0,0,0,0.2,0c0.1,0,0.2,0,0.2,0c0.2,0,0.3-0.1,0.5-0.2c0.1-0.2,0.2-0.3,0.3-0.5l0.2-0.5l-1.8-4.7h1
		L439.1,227.8z"/>
</g>
<g class="st3">
	<path d="M46.9,55.8c0.4,0.5,0.7,1.2,0.7,2.1c0,0.6-0.1,1.2-0.4,1.6c-0.2,0.5-0.6,0.8-1,1c-0.4,0.2-0.9,0.4-1.5,0.4
		c-0.3,0-0.6,0-0.9-0.1c-0.3-0.1-0.5-0.2-0.7-0.3l0.5-1c0.3,0.2,0.6,0.3,1,0.3c0.5,0,0.9-0.1,1.1-0.4c0.3-0.3,0.4-0.7,0.4-1.2
		c-0.3,0.3-0.8,0.5-1.4,0.5c-0.4,0-0.7-0.1-1-0.2c-0.3-0.1-0.5-0.3-0.7-0.6c-0.2-0.3-0.3-0.6-0.3-0.9c0-0.4,0.1-0.7,0.3-1
		c0.2-0.3,0.4-0.5,0.8-0.7c0.3-0.2,0.7-0.2,1.1-0.2C45.8,55.1,46.4,55.3,46.9,55.8z M45.8,57.5c0.2-0.2,0.3-0.4,0.3-0.6
		c0-0.2-0.1-0.4-0.3-0.6c-0.2-0.2-0.4-0.2-0.7-0.2c-0.3,0-0.5,0.1-0.7,0.2s-0.3,0.4-0.3,0.6c0,0.3,0.1,0.5,0.3,0.6
		c0.2,0.2,0.4,0.2,0.7,0.2C45.4,57.7,45.7,57.6,45.8,57.5z"/>
	<path d="M51.8,57.7c0.4,0.3,0.6,0.7,0.6,1.3c0,0.3-0.1,0.7-0.3,0.9c-0.2,0.3-0.4,0.5-0.8,0.7c-0.3,0.2-0.8,0.3-1.3,0.3
		c-0.4,0-0.8-0.1-1.2-0.2c-0.4-0.1-0.7-0.3-1-0.4l0.5-1c0.2,0.2,0.5,0.3,0.7,0.4s0.6,0.1,0.9,0.1c0.3,0,0.6-0.1,0.8-0.2
		c0.2-0.1,0.3-0.3,0.3-0.5c0-0.2-0.1-0.4-0.3-0.5c-0.2-0.1-0.5-0.2-1-0.2h-1.4l0.3-3.2h3.4v1h-2.3l-0.1,1.1h0.5
		C50.9,57.3,51.5,57.4,51.8,57.7z"/>
	<path d="M53.1,60.6c-0.1-0.1-0.2-0.3-0.2-0.6c0-0.2,0.1-0.4,0.2-0.6c0.1-0.1,0.3-0.2,0.6-0.2s0.4,0.1,0.6,0.2
		c0.1,0.1,0.2,0.3,0.2,0.6c0,0.2-0.1,0.4-0.2,0.6c-0.1,0.1-0.3,0.2-0.6,0.2S53.3,60.7,53.1,60.6z"/>
</g>
<g class="st3">
	<path d="M60.2,59.6h-0.9v1.2H58v-1.2h-3v-0.9l2.6-3.6H59l-2.4,3.4H58v-1h1.2v1h0.9V59.6z"/>
</g>
<g class="st3">
	<path d="M65.1,58.4c0.1,0.2,0.2,0.5,0.2,0.8c0,0.3-0.1,0.6-0.3,0.9s-0.5,0.5-0.8,0.6c-0.4,0.1-0.8,0.2-1.2,0.2s-0.9-0.1-1.2-0.2
		c-0.4-0.1-0.6-0.3-0.8-0.6c-0.2-0.3-0.3-0.6-0.3-0.9c0-0.3,0.1-0.6,0.2-0.8c0.1-0.2,0.4-0.4,0.6-0.5c-0.2-0.1-0.4-0.3-0.5-0.5
		c-0.1-0.2-0.2-0.4-0.2-0.7c0-0.3,0.1-0.6,0.3-0.8c0.2-0.2,0.4-0.4,0.8-0.6c0.3-0.1,0.7-0.2,1.1-0.2c0.4,0,0.8,0.1,1.1,0.2
		c0.3,0.1,0.6,0.3,0.8,0.6c0.2,0.2,0.3,0.5,0.3,0.8c0,0.2-0.1,0.5-0.2,0.7c-0.1,0.2-0.3,0.4-0.5,0.5C64.7,58,64.9,58.1,65.1,58.4z
		 M63.7,59.7c0.2-0.1,0.3-0.3,0.3-0.6s-0.1-0.4-0.3-0.6c-0.2-0.1-0.4-0.2-0.8-0.2c-0.3,0-0.6,0.1-0.8,0.2c-0.2,0.1-0.3,0.3-0.3,0.6
		c0,0.3,0.1,0.4,0.3,0.6c0.2,0.1,0.4,0.2,0.8,0.2C63.3,59.9,63.5,59.8,63.7,59.7z M62.3,56.2c-0.2,0.1-0.2,0.3-0.2,0.5
		c0,0.2,0.1,0.4,0.2,0.5c0.2,0.1,0.4,0.2,0.6,0.2s0.5-0.1,0.6-0.2c0.2-0.1,0.2-0.3,0.2-0.5c0-0.2-0.1-0.4-0.2-0.5
		c-0.2-0.1-0.4-0.2-0.6-0.2C62.7,56,62.5,56.1,62.3,56.2z"/>
</g>
<g class="st3">
	<path d="M66.1,57.8c-0.3-0.3-0.4-0.7-0.4-1.1c0-0.5,0.1-0.8,0.4-1.1s0.6-0.4,1-0.4c0.4,0,0.7,0.1,1,0.4s0.4,0.7,0.4,1.1
		c0,0.5-0.1,0.8-0.4,1.1s-0.6,0.4-1,0.4C66.7,58.2,66.4,58,66.1,57.8z M67.5,57.3c0.1-0.1,0.2-0.4,0.2-0.7c0-0.3-0.1-0.5-0.2-0.7
		c-0.1-0.1-0.2-0.2-0.4-0.2c-0.2,0-0.3,0.1-0.4,0.2c-0.1,0.2-0.2,0.4-0.2,0.7s0.1,0.5,0.2,0.7c0.1,0.2,0.2,0.2,0.4,0.2
		C67.3,57.5,67.4,57.5,67.5,57.3z M70.5,55.2h1l-3.8,5.6h-1L70.5,55.2z M70.2,60.6c-0.2-0.1-0.4-0.3-0.5-0.5s-0.2-0.5-0.2-0.8
		c0-0.3,0.1-0.6,0.2-0.8s0.3-0.4,0.5-0.5s0.4-0.2,0.7-0.2c0.4,0,0.7,0.1,1,0.4c0.3,0.3,0.4,0.7,0.4,1.1c0,0.5-0.1,0.8-0.4,1.1
		c-0.3,0.3-0.6,0.4-1,0.4C70.7,60.8,70.4,60.8,70.2,60.6z M71.3,59.9c0.1-0.2,0.2-0.4,0.2-0.7c0-0.3-0.1-0.5-0.2-0.7
		c-0.1-0.2-0.2-0.2-0.4-0.2c-0.2,0-0.3,0.1-0.4,0.2s-0.2,0.4-0.2,0.7c0,0.3,0.1,0.5,0.2,0.7c0.1,0.1,0.2,0.2,0.4,0.2
		C71.1,60.2,71.2,60.1,71.3,59.9z"/>
</g>
<g class="st3">
	<path d="M94,55.2c0.4,0.5,0.7,1.2,0.7,2.1c0,0.6-0.1,1.2-0.4,1.6c-0.2,0.5-0.6,0.8-1,1c-0.4,0.2-0.9,0.4-1.5,0.4
		c-0.3,0-0.6,0-0.9-0.1c-0.3-0.1-0.5-0.2-0.7-0.3l0.5-1c0.3,0.2,0.6,0.3,1,0.3c0.5,0,0.9-0.1,1.1-0.4c0.3-0.3,0.4-0.7,0.4-1.2
		c-0.3,0.3-0.8,0.5-1.4,0.5c-0.4,0-0.7-0.1-1-0.2c-0.3-0.1-0.5-0.3-0.7-0.6C90.1,57,90,56.7,90,56.3c0-0.4,0.1-0.7,0.3-1
		c0.2-0.3,0.4-0.5,0.8-0.7c0.3-0.2,0.7-0.2,1.1-0.2C92.9,54.5,93.5,54.7,94,55.2z M92.9,56.9c0.2-0.2,0.3-0.4,0.3-0.6
		c0-0.2-0.1-0.4-0.3-0.6c-0.2-0.2-0.4-0.2-0.7-0.2c-0.3,0-0.5,0.1-0.7,0.2s-0.3,0.4-0.3,0.6c0,0.3,0.1,0.5,0.3,0.6
		c0.2,0.2,0.4,0.2,0.7,0.2C92.5,57.1,92.7,57,92.9,56.9z"/>
</g>
<g class="st3">
	<path d="M98.9,56.9c0.3,0.1,0.5,0.3,0.7,0.6c0.2,0.3,0.3,0.6,0.3,0.9c0,0.4-0.1,0.7-0.3,1c-0.2,0.3-0.4,0.5-0.8,0.7
		c-0.3,0.2-0.7,0.2-1.1,0.2c-0.8,0-1.4-0.2-1.8-0.7c-0.4-0.5-0.7-1.2-0.7-2.1c0-0.6,0.1-1.2,0.4-1.6c0.2-0.5,0.6-0.8,1-1
		c0.4-0.2,0.9-0.4,1.5-0.4c0.3,0,0.6,0,0.9,0.1c0.3,0.1,0.5,0.2,0.7,0.3l-0.5,1c-0.3-0.2-0.6-0.3-1-0.3c-0.5,0-0.9,0.1-1.1,0.4
		s-0.4,0.7-0.4,1.2c0.3-0.3,0.8-0.5,1.4-0.5C98.3,56.6,98.6,56.7,98.9,56.9z M98.4,59.1c0.2-0.1,0.3-0.4,0.3-0.6s-0.1-0.5-0.3-0.6
		c-0.2-0.2-0.4-0.2-0.7-0.2c-0.3,0-0.5,0.1-0.7,0.2c-0.2,0.2-0.3,0.4-0.3,0.6s0.1,0.4,0.3,0.6c0.2,0.2,0.4,0.2,0.7,0.2
		C98,59.3,98.2,59.2,98.4,59.1z"/>
</g>
<g class="st3">
	<path d="M100.5,57.2c-0.3-0.3-0.4-0.7-0.4-1.1c0-0.5,0.1-0.8,0.4-1.1s0.6-0.4,1-0.4s0.7,0.1,1,0.4s0.4,0.7,0.4,1.1
		c0,0.5-0.1,0.8-0.4,1.1s-0.6,0.4-1,0.4S100.7,57.4,100.5,57.2z M101.9,56.7c0.1-0.1,0.2-0.4,0.2-0.7c0-0.3-0.1-0.5-0.2-0.7
		s-0.2-0.2-0.4-0.2c-0.2,0-0.3,0.1-0.4,0.2c-0.1,0.2-0.2,0.4-0.2,0.7s0.1,0.5,0.2,0.7c0.1,0.2,0.2,0.2,0.4,0.2
		C101.7,56.9,101.8,56.9,101.9,56.7z M104.8,54.6h1l-3.8,5.6h-1L104.8,54.6z M104.6,60c-0.2-0.1-0.4-0.3-0.5-0.5
		c-0.1-0.2-0.2-0.5-0.2-0.8c0-0.3,0.1-0.6,0.2-0.8c0.1-0.2,0.3-0.4,0.5-0.5c0.2-0.1,0.4-0.2,0.7-0.2c0.4,0,0.7,0.1,1,0.4
		c0.3,0.3,0.4,0.7,0.4,1.1c0,0.5-0.1,0.8-0.4,1.1c-0.3,0.3-0.6,0.4-1,0.4C105,60.2,104.8,60.2,104.6,60z M105.7,59.3
		c0.1-0.2,0.2-0.4,0.2-0.7c0-0.3-0.1-0.5-0.2-0.7c-0.1-0.2-0.2-0.2-0.4-0.2c-0.2,0-0.3,0.1-0.4,0.2c-0.1,0.1-0.2,0.4-0.2,0.7
		c0,0.3,0.1,0.5,0.2,0.7c0.1,0.1,0.2,0.2,0.4,0.2C105.5,59.6,105.6,59.5,105.7,59.3z"/>
</g>
<g class="st3">
	<path d="M135.6,52.2c0.4,0.5,0.7,1.2,0.7,2.1c0,0.6-0.1,1.2-0.4,1.6c-0.2,0.5-0.6,0.8-1,1c-0.4,0.2-0.9,0.4-1.5,0.4
		c-0.3,0-0.6,0-0.9-0.1c-0.3-0.1-0.5-0.2-0.7-0.3l0.5-1c0.3,0.2,0.6,0.3,1,0.3c0.5,0,0.9-0.1,1.1-0.4c0.3-0.3,0.4-0.7,0.4-1.2
		c-0.3,0.3-0.8,0.5-1.4,0.5c-0.4,0-0.7-0.1-1-0.2c-0.3-0.1-0.5-0.3-0.7-0.6c-0.2-0.3-0.3-0.6-0.3-0.9c0-0.4,0.1-0.7,0.3-1
		c0.2-0.3,0.4-0.5,0.8-0.7c0.3-0.2,0.7-0.2,1.1-0.2C134.5,51.5,135.1,51.7,135.6,52.2z M134.5,53.9c0.2-0.2,0.3-0.4,0.3-0.6
		c0-0.2-0.1-0.4-0.3-0.6c-0.2-0.2-0.4-0.2-0.7-0.2c-0.3,0-0.5,0.1-0.7,0.2s-0.3,0.4-0.3,0.6c0,0.3,0.1,0.5,0.3,0.6
		c0.2,0.2,0.4,0.2,0.7,0.2C134.1,54.1,134.3,54,134.5,53.9z"/>
</g>
<g class="st3">
	<path d="M141.3,54.8c0.1,0.2,0.2,0.5,0.2,0.8c0,0.3-0.1,0.6-0.3,0.9s-0.5,0.5-0.8,0.6c-0.4,0.1-0.8,0.2-1.2,0.2s-0.9-0.1-1.2-0.2
		c-0.4-0.1-0.6-0.3-0.8-0.6c-0.2-0.3-0.3-0.6-0.3-0.9c0-0.3,0.1-0.6,0.2-0.8c0.1-0.2,0.4-0.4,0.6-0.5c-0.2-0.1-0.4-0.3-0.5-0.5
		c-0.1-0.2-0.2-0.4-0.2-0.7c0-0.3,0.1-0.6,0.3-0.8c0.2-0.2,0.4-0.4,0.8-0.6c0.3-0.1,0.7-0.2,1.1-0.2c0.4,0,0.8,0.1,1.1,0.2
		c0.3,0.1,0.6,0.3,0.8,0.6c0.2,0.2,0.3,0.5,0.3,0.8c0,0.2-0.1,0.5-0.2,0.7c-0.1,0.2-0.3,0.4-0.5,0.5C141,54.4,141.2,54.5,141.3,54.8
		z M139.9,56.1c0.2-0.1,0.3-0.3,0.3-0.6s-0.1-0.4-0.3-0.6c-0.2-0.1-0.4-0.2-0.8-0.2c-0.3,0-0.6,0.1-0.8,0.2
		c-0.2,0.1-0.3,0.3-0.3,0.6c0,0.3,0.1,0.4,0.3,0.6c0.2,0.1,0.4,0.2,0.8,0.2C139.5,56.3,139.7,56.2,139.9,56.1z M138.5,52.6
		c-0.2,0.1-0.2,0.3-0.2,0.5c0,0.2,0.1,0.4,0.2,0.5c0.2,0.1,0.4,0.2,0.6,0.2s0.5-0.1,0.6-0.2c0.2-0.1,0.2-0.3,0.2-0.5
		c0-0.2-0.1-0.4-0.2-0.5c-0.2-0.1-0.4-0.2-0.6-0.2C138.9,52.4,138.7,52.5,138.5,52.6z"/>
</g>
<g class="st3">
	<path d="M142.3,54.2c-0.3-0.3-0.4-0.7-0.4-1.1c0-0.5,0.1-0.8,0.4-1.1s0.6-0.4,1-0.4s0.7,0.1,1,0.4s0.4,0.7,0.4,1.1
		c0,0.5-0.1,0.8-0.4,1.1s-0.6,0.4-1,0.4S142.6,54.4,142.3,54.2z M143.8,53.7c0.1-0.1,0.2-0.4,0.2-0.7c0-0.3-0.1-0.5-0.2-0.7
		s-0.2-0.2-0.4-0.2c-0.2,0-0.3,0.1-0.4,0.2c-0.1,0.2-0.2,0.4-0.2,0.7s0.1,0.5,0.2,0.7c0.1,0.2,0.2,0.2,0.4,0.2
		C143.5,53.9,143.7,53.9,143.8,53.7z M146.7,51.6h1l-3.8,5.6h-1L146.7,51.6z M146.4,57c-0.2-0.1-0.4-0.3-0.5-0.5
		c-0.1-0.2-0.2-0.5-0.2-0.8c0-0.3,0.1-0.6,0.2-0.8c0.1-0.2,0.3-0.4,0.5-0.5c0.2-0.1,0.4-0.2,0.7-0.2c0.4,0,0.7,0.1,1,0.4
		c0.3,0.3,0.4,0.7,0.4,1.1c0,0.5-0.1,0.8-0.4,1.1c-0.3,0.3-0.6,0.4-1,0.4C146.9,57.2,146.6,57.2,146.4,57z M147.6,56.3
		c0.1-0.2,0.2-0.4,0.2-0.7c0-0.3-0.1-0.5-0.2-0.7c-0.1-0.2-0.2-0.2-0.4-0.2c-0.2,0-0.3,0.1-0.4,0.2c-0.1,0.1-0.2,0.4-0.2,0.7
		c0,0.3,0.1,0.5,0.2,0.7c0.1,0.1,0.2,0.2,0.4,0.2C147.3,56.6,147.5,56.5,147.6,56.3z"/>
</g>
<g class="st3">
	<path d="M201.3,74c0.1,0.2,0.2,0.5,0.2,0.8c0,0.3-0.1,0.6-0.3,0.9s-0.5,0.5-0.8,0.6c-0.4,0.1-0.8,0.2-1.2,0.2
		c-0.5,0-0.9-0.1-1.2-0.2c-0.4-0.1-0.6-0.3-0.8-0.6c-0.2-0.3-0.3-0.6-0.3-0.9c0-0.3,0.1-0.6,0.2-0.8c0.1-0.2,0.4-0.4,0.6-0.5
		c-0.2-0.1-0.4-0.3-0.5-0.5c-0.1-0.2-0.2-0.4-0.2-0.7c0-0.3,0.1-0.6,0.3-0.8c0.2-0.2,0.4-0.4,0.8-0.6s0.7-0.2,1.1-0.2
		c0.4,0,0.8,0.1,1.1,0.2s0.6,0.3,0.8,0.6c0.2,0.2,0.3,0.5,0.3,0.8c0,0.2-0.1,0.5-0.2,0.7c-0.1,0.2-0.3,0.4-0.5,0.5
		C200.9,73.6,201.1,73.7,201.3,74z M199.9,75.3c0.2-0.1,0.3-0.3,0.3-0.6s-0.1-0.4-0.3-0.6c-0.2-0.1-0.4-0.2-0.8-0.2
		c-0.3,0-0.6,0.1-0.8,0.2c-0.2,0.1-0.3,0.3-0.3,0.6c0,0.3,0.1,0.4,0.3,0.6c0.2,0.1,0.4,0.2,0.8,0.2
		C199.4,75.5,199.7,75.4,199.9,75.3z M198.5,71.8c-0.2,0.1-0.2,0.3-0.2,0.5c0,0.2,0.1,0.4,0.2,0.5c0.2,0.1,0.4,0.2,0.6,0.2
		s0.5-0.1,0.6-0.2c0.2-0.1,0.2-0.3,0.2-0.5c0-0.2-0.1-0.4-0.2-0.5c-0.2-0.1-0.4-0.2-0.6-0.2C198.9,71.6,198.7,71.7,198.5,71.8z"/>
	<path d="M205.8,73.3c0.4,0.3,0.6,0.7,0.6,1.3c0,0.3-0.1,0.7-0.3,0.9s-0.4,0.5-0.8,0.7c-0.3,0.2-0.8,0.3-1.3,0.3
		c-0.4,0-0.8-0.1-1.2-0.2c-0.4-0.1-0.7-0.3-1-0.4l0.5-1c0.2,0.2,0.5,0.3,0.7,0.4s0.6,0.1,0.9,0.1c0.3,0,0.6-0.1,0.8-0.2
		s0.3-0.3,0.3-0.5c0-0.2-0.1-0.4-0.3-0.5c-0.2-0.1-0.5-0.2-1-0.2h-1.4l0.3-3.2h3.4v1h-2.3l-0.1,1.1h0.5
		C204.8,72.9,205.4,73,205.8,73.3z"/>
</g>
<g class="st3">
	<path d="M207,76.2c-0.1-0.1-0.2-0.3-0.2-0.6c0-0.2,0.1-0.4,0.2-0.6c0.1-0.1,0.3-0.2,0.6-0.2s0.4,0.1,0.6,0.2
		c0.1,0.1,0.2,0.3,0.2,0.6c0,0.2-0.1,0.4-0.2,0.6c-0.1,0.1-0.3,0.2-0.6,0.2S207.2,76.4,207,76.2z"/>
</g>
<g class="st3">
	<path d="M213.2,75.3v1.1H209v-0.8l2.2-2c0.2-0.2,0.4-0.4,0.5-0.6c0.1-0.2,0.1-0.3,0.1-0.5c0-0.2-0.1-0.4-0.2-0.5
		c-0.2-0.1-0.4-0.2-0.7-0.2c-0.2,0-0.5,0-0.7,0.1c-0.2,0.1-0.4,0.2-0.5,0.4l-0.9-0.6c0.2-0.3,0.5-0.6,0.9-0.8
		c0.4-0.2,0.8-0.3,1.3-0.3c0.4,0,0.8,0.1,1.1,0.2s0.6,0.3,0.7,0.6s0.3,0.5,0.3,0.9c0,0.3-0.1,0.6-0.2,0.9s-0.4,0.6-0.7,0.9l-1.3,1.2
		H213.2z"/>
</g>
<g class="st3">
	<path d="M217.5,73.6c0.3,0.3,0.4,0.6,0.4,1.1c0,0.3-0.1,0.6-0.3,0.9c-0.2,0.3-0.4,0.5-0.8,0.7c-0.3,0.2-0.8,0.2-1.3,0.2
		c-0.4,0-0.8-0.1-1.2-0.2c-0.4-0.1-0.7-0.3-1-0.4l0.5-1c0.2,0.2,0.5,0.3,0.7,0.4c0.3,0.1,0.6,0.1,0.9,0.1c0.3,0,0.6-0.1,0.8-0.2
		c0.2-0.1,0.3-0.3,0.3-0.5c0-0.5-0.3-0.7-1-0.7h-0.6v-0.9l1.2-1.3h-2.4v-1h3.9v0.8l-1.3,1.4C216.8,73.1,217.2,73.3,217.5,73.6z"/>
</g>
<g class="st3">
	<path d="M218.7,73.4c-0.3-0.3-0.4-0.7-0.4-1.1c0-0.5,0.1-0.8,0.4-1.1s0.6-0.4,1-0.4s0.7,0.1,1,0.4s0.4,0.7,0.4,1.1
		c0,0.5-0.1,0.8-0.4,1.1s-0.6,0.4-1,0.4S218.9,73.7,218.7,73.4z M220.1,72.9c0.1-0.1,0.2-0.4,0.2-0.7c0-0.3-0.1-0.5-0.2-0.7
		s-0.2-0.2-0.4-0.2c-0.2,0-0.3,0.1-0.4,0.2c-0.1,0.2-0.2,0.4-0.2,0.7s0.1,0.5,0.2,0.7c0.1,0.2,0.2,0.2,0.4,0.2
		C219.9,73.1,220,73.1,220.1,72.9z M223,70.8h1l-3.8,5.6h-1L223,70.8z M222.8,76.2c-0.2-0.1-0.4-0.3-0.5-0.5
		c-0.1-0.2-0.2-0.5-0.2-0.8c0-0.3,0.1-0.6,0.2-0.8c0.1-0.2,0.3-0.4,0.5-0.5c0.2-0.1,0.4-0.2,0.7-0.2c0.4,0,0.7,0.1,1,0.4
		c0.3,0.3,0.4,0.7,0.4,1.1c0,0.5-0.1,0.8-0.4,1.1c-0.3,0.3-0.6,0.4-1,0.4C223.2,76.4,223,76.4,222.8,76.2z M223.9,75.5
		c0.1-0.2,0.2-0.4,0.2-0.7c0-0.3-0.1-0.5-0.2-0.7c-0.1-0.2-0.2-0.2-0.4-0.2c-0.2,0-0.3,0.1-0.4,0.2c-0.1,0.1-0.2,0.4-0.2,0.7
		c0,0.3,0.1,0.5,0.2,0.7c0.1,0.1,0.2,0.2,0.4,0.2C223.7,75.8,223.8,75.7,223.9,75.5z"/>
</g>
<g class="st3">
	<path d="M241.6,69.4c0.1,0.2,0.2,0.5,0.2,0.8c0,0.3-0.1,0.6-0.3,0.9s-0.5,0.5-0.8,0.6c-0.4,0.1-0.8,0.2-1.2,0.2s-0.9-0.1-1.2-0.2
		c-0.4-0.1-0.6-0.3-0.8-0.6c-0.2-0.3-0.3-0.6-0.3-0.9c0-0.3,0.1-0.6,0.2-0.8c0.1-0.2,0.4-0.4,0.6-0.5c-0.2-0.1-0.4-0.3-0.5-0.5
		c-0.1-0.2-0.2-0.4-0.2-0.7c0-0.3,0.1-0.6,0.3-0.8c0.2-0.2,0.4-0.4,0.8-0.6c0.3-0.1,0.7-0.2,1.1-0.2c0.4,0,0.8,0.1,1.1,0.2
		c0.3,0.1,0.6,0.3,0.8,0.6c0.2,0.2,0.3,0.5,0.3,0.8c0,0.2-0.1,0.5-0.2,0.7c-0.1,0.2-0.3,0.4-0.5,0.5C241.2,69,241.4,69.2,241.6,69.4
		z M240.2,70.7c0.2-0.1,0.3-0.3,0.3-0.6s-0.1-0.4-0.3-0.6c-0.2-0.1-0.4-0.2-0.8-0.2c-0.3,0-0.6,0.1-0.8,0.2
		c-0.2,0.1-0.3,0.3-0.3,0.6c0,0.3,0.1,0.4,0.3,0.6c0.2,0.1,0.4,0.2,0.8,0.2C239.7,71,240,70.9,240.2,70.7z M238.8,67.3
		c-0.2,0.1-0.2,0.3-0.2,0.5c0,0.2,0.1,0.4,0.2,0.5c0.2,0.1,0.4,0.2,0.6,0.2s0.5-0.1,0.6-0.2c0.2-0.1,0.2-0.3,0.2-0.5
		c0-0.2-0.1-0.4-0.2-0.5c-0.2-0.1-0.4-0.2-0.6-0.2C239.2,67.1,239,67.1,238.8,67.3z"/>
</g>
<g class="st3">
	<path d="M246.8,66.2v0.8l-2.1,4.8h-1.4l2-4.5h-1.9v0.9h-1.2v-2H246.8z"/>
</g>
<g class="st3">
	<path d="M247.1,71.7c-0.1-0.1-0.2-0.3-0.2-0.6c0-0.2,0.1-0.4,0.2-0.6c0.1-0.1,0.3-0.2,0.6-0.2s0.4,0.1,0.6,0.2
		c0.1,0.1,0.2,0.3,0.2,0.6c0,0.2-0.1,0.4-0.2,0.6c-0.1,0.1-0.3,0.2-0.6,0.2S247.3,71.8,247.1,71.7z"/>
</g>
<g class="st3">
	<path d="M253.6,69.4c0.1,0.2,0.2,0.5,0.2,0.8c0,0.3-0.1,0.6-0.3,0.9s-0.5,0.5-0.8,0.6c-0.4,0.1-0.8,0.2-1.2,0.2s-0.9-0.1-1.2-0.2
		c-0.4-0.1-0.6-0.3-0.8-0.6c-0.2-0.3-0.3-0.6-0.3-0.9c0-0.3,0.1-0.6,0.2-0.8c0.1-0.2,0.4-0.4,0.6-0.5c-0.2-0.1-0.4-0.3-0.5-0.5
		c-0.1-0.2-0.2-0.4-0.2-0.7c0-0.3,0.1-0.6,0.3-0.8c0.2-0.2,0.4-0.4,0.8-0.6c0.3-0.1,0.7-0.2,1.1-0.2c0.4,0,0.8,0.1,1.1,0.2
		c0.3,0.1,0.6,0.3,0.8,0.6c0.2,0.2,0.3,0.5,0.3,0.8c0,0.2-0.1,0.5-0.2,0.7c-0.1,0.2-0.3,0.4-0.5,0.5C253.2,69,253.4,69.2,253.6,69.4
		z M252.2,70.7c0.2-0.1,0.3-0.3,0.3-0.6s-0.1-0.4-0.3-0.6c-0.2-0.1-0.4-0.2-0.8-0.2c-0.3,0-0.6,0.1-0.8,0.2
		c-0.2,0.1-0.3,0.3-0.3,0.6c0,0.3,0.1,0.4,0.3,0.6c0.2,0.1,0.4,0.2,0.8,0.2C251.8,71,252,70.9,252.2,70.7z M250.8,67.3
		c-0.2,0.1-0.2,0.3-0.2,0.5c0,0.2,0.1,0.4,0.2,0.5c0.2,0.1,0.4,0.2,0.6,0.2s0.5-0.1,0.6-0.2c0.2-0.1,0.2-0.3,0.2-0.5
		c0-0.2-0.1-0.4-0.2-0.5c-0.2-0.1-0.4-0.2-0.6-0.2C251.2,67.1,251,67.1,250.8,67.3z"/>
	<path d="M258.2,66.8c0.4,0.5,0.7,1.2,0.7,2.1c0,0.6-0.1,1.2-0.4,1.6s-0.6,0.8-1,1s-0.9,0.4-1.5,0.4c-0.3,0-0.6,0-0.9-0.1
		c-0.3-0.1-0.5-0.2-0.7-0.3l0.5-1c0.3,0.2,0.6,0.3,1,0.3c0.5,0,0.9-0.1,1.1-0.4c0.3-0.3,0.4-0.7,0.4-1.2c-0.3,0.3-0.8,0.5-1.4,0.5
		c-0.4,0-0.7-0.1-1-0.2c-0.3-0.1-0.5-0.3-0.7-0.6c-0.2-0.3-0.3-0.6-0.3-0.9c0-0.4,0.1-0.7,0.3-1c0.2-0.3,0.4-0.5,0.8-0.7
		c0.3-0.2,0.7-0.2,1.1-0.2C257.2,66.1,257.8,66.4,258.2,66.8z M257.2,68.5c0.2-0.2,0.3-0.4,0.3-0.6c0-0.2-0.1-0.4-0.3-0.6
		c-0.2-0.2-0.4-0.2-0.7-0.2c-0.3,0-0.5,0.1-0.7,0.2c-0.2,0.1-0.3,0.4-0.3,0.6c0,0.3,0.1,0.5,0.3,0.6c0.2,0.2,0.4,0.2,0.7,0.2
		C256.7,68.8,257,68.7,257.2,68.5z"/>
	<path d="M259.8,68.8c-0.3-0.3-0.4-0.7-0.4-1.1c0-0.5,0.1-0.8,0.4-1.1s0.6-0.4,1-0.4c0.4,0,0.7,0.1,1,0.4s0.4,0.7,0.4,1.1
		c0,0.5-0.1,0.8-0.4,1.1s-0.6,0.4-1,0.4C260.4,69.2,260,69.1,259.8,68.8z M261.2,68.4c0.1-0.1,0.2-0.4,0.2-0.7
		c0-0.3-0.1-0.5-0.2-0.7c-0.1-0.1-0.2-0.2-0.4-0.2c-0.2,0-0.3,0.1-0.4,0.2c-0.1,0.2-0.2,0.4-0.2,0.7s0.1,0.5,0.2,0.7
		c0.1,0.2,0.2,0.2,0.4,0.2C261,68.6,261.1,68.5,261.2,68.4z M264.1,66.2h1l-3.8,5.6h-1L264.1,66.2z M263.9,71.7
		c-0.2-0.1-0.4-0.3-0.5-0.5s-0.2-0.5-0.2-0.8c0-0.3,0.1-0.6,0.2-0.8s0.3-0.4,0.5-0.5s0.4-0.2,0.7-0.2c0.4,0,0.7,0.1,1,0.4
		c0.3,0.3,0.4,0.7,0.4,1.1c0,0.5-0.1,0.8-0.4,1.1c-0.3,0.3-0.6,0.4-1,0.4C264.3,71.9,264.1,71.8,263.9,71.7z M265,71
		c0.1-0.2,0.2-0.4,0.2-0.7c0-0.3-0.1-0.5-0.2-0.7c-0.1-0.2-0.2-0.2-0.4-0.2c-0.2,0-0.3,0.1-0.4,0.2S264,70,264,70.3
		c0,0.3,0.1,0.5,0.2,0.7c0.1,0.1,0.2,0.2,0.4,0.2C264.8,71.2,264.9,71.2,265,71z"/>
</g>
<g class="st3">
	<path d="M289.3,67.7c0.1,0.2,0.2,0.5,0.2,0.8c0,0.3-0.1,0.6-0.3,0.9s-0.5,0.5-0.8,0.6c-0.4,0.1-0.8,0.2-1.2,0.2
		c-0.5,0-0.9-0.1-1.2-0.2c-0.4-0.1-0.6-0.3-0.8-0.6c-0.2-0.3-0.3-0.6-0.3-0.9c0-0.3,0.1-0.6,0.2-0.8c0.1-0.2,0.4-0.4,0.6-0.5
		c-0.2-0.1-0.4-0.3-0.5-0.5c-0.1-0.2-0.2-0.4-0.2-0.7c0-0.3,0.1-0.6,0.3-0.8c0.2-0.2,0.4-0.4,0.8-0.6s0.7-0.2,1.1-0.2
		c0.4,0,0.8,0.1,1.1,0.2s0.6,0.3,0.8,0.6c0.2,0.2,0.3,0.5,0.3,0.8c0,0.2-0.1,0.5-0.2,0.7c-0.1,0.2-0.3,0.4-0.5,0.5
		C289,67.3,289.2,67.4,289.3,67.7z M287.9,69c0.2-0.1,0.3-0.3,0.3-0.6s-0.1-0.4-0.3-0.6c-0.2-0.1-0.4-0.2-0.8-0.2
		c-0.3,0-0.6,0.1-0.8,0.2c-0.2,0.1-0.3,0.3-0.3,0.6c0,0.3,0.1,0.4,0.3,0.6c0.2,0.1,0.4,0.2,0.8,0.2C287.5,69.2,287.7,69.1,287.9,69z
		 M286.5,65.5c-0.2,0.1-0.2,0.3-0.2,0.5c0,0.2,0.1,0.4,0.2,0.5c0.2,0.1,0.4,0.2,0.6,0.2s0.5-0.1,0.6-0.2c0.2-0.1,0.2-0.3,0.2-0.5
		c0-0.2-0.1-0.4-0.2-0.5c-0.2-0.1-0.4-0.2-0.6-0.2C286.9,65.3,286.7,65.4,286.5,65.5z"/>
	<path d="M293.9,65.1c0.4,0.5,0.7,1.2,0.7,2.1c0,0.6-0.1,1.2-0.4,1.6c-0.2,0.5-0.6,0.8-1,1c-0.4,0.2-0.9,0.4-1.5,0.4
		c-0.3,0-0.6,0-0.9-0.1s-0.5-0.2-0.7-0.3l0.5-1c0.3,0.2,0.6,0.3,1,0.3c0.5,0,0.9-0.1,1.1-0.4s0.4-0.7,0.4-1.2
		c-0.3,0.3-0.8,0.5-1.4,0.5c-0.4,0-0.7-0.1-1-0.2c-0.3-0.1-0.5-0.3-0.7-0.6s-0.3-0.6-0.3-0.9c0-0.4,0.1-0.7,0.3-1
		c0.2-0.3,0.4-0.5,0.8-0.7c0.3-0.2,0.7-0.2,1.1-0.2C292.9,64.4,293.5,64.6,293.9,65.1z M292.9,66.8c0.2-0.2,0.3-0.4,0.3-0.6
		c0-0.2-0.1-0.4-0.3-0.6c-0.2-0.2-0.4-0.2-0.7-0.2c-0.3,0-0.5,0.1-0.7,0.2c-0.2,0.1-0.3,0.4-0.3,0.6c0,0.3,0.1,0.5,0.3,0.6
		c0.2,0.2,0.4,0.2,0.7,0.2C292.5,67,292.7,66.9,292.9,66.8z"/>
	<path d="M295.5,67.1c-0.3-0.3-0.4-0.7-0.4-1.1c0-0.5,0.1-0.8,0.4-1.1s0.6-0.4,1-0.4c0.4,0,0.7,0.1,1,0.4s0.4,0.7,0.4,1.1
		c0,0.5-0.1,0.8-0.4,1.1s-0.6,0.4-1,0.4C296.1,67.5,295.8,67.4,295.5,67.1z M296.9,66.6c0.1-0.1,0.2-0.4,0.2-0.7
		c0-0.3-0.1-0.5-0.2-0.7c-0.1-0.1-0.2-0.2-0.4-0.2c-0.2,0-0.3,0.1-0.4,0.2c-0.1,0.2-0.2,0.4-0.2,0.7s0.1,0.5,0.2,0.7
		s0.2,0.2,0.4,0.2C296.7,66.8,296.8,66.8,296.9,66.6z M299.8,64.5h1l-3.8,5.6h-1L299.8,64.5z M299.6,69.9c-0.2-0.1-0.4-0.3-0.5-0.5
		c-0.1-0.2-0.2-0.5-0.2-0.8c0-0.3,0.1-0.6,0.2-0.8c0.1-0.2,0.3-0.4,0.5-0.5c0.2-0.1,0.4-0.2,0.7-0.2c0.4,0,0.7,0.1,1,0.4
		c0.3,0.3,0.4,0.7,0.4,1.1c0,0.5-0.1,0.8-0.4,1.1c-0.3,0.3-0.6,0.4-1,0.4C300,70.1,299.8,70.1,299.6,69.9z M300.7,69.2
		c0.1-0.2,0.2-0.4,0.2-0.7c0-0.3-0.1-0.5-0.2-0.7c-0.1-0.2-0.2-0.2-0.4-0.2c-0.2,0-0.3,0.1-0.4,0.2c-0.1,0.1-0.2,0.4-0.2,0.7
		c0,0.3,0.1,0.5,0.2,0.7c0.1,0.1,0.2,0.2,0.4,0.2C300.5,69.5,300.6,69.4,300.7,69.2z"/>
</g>
<g class="st3">
	<path d="M354.4,115.3c0.4,0.3,0.6,0.7,0.6,1.3c0,0.3-0.1,0.7-0.3,0.9s-0.4,0.5-0.8,0.7c-0.3,0.2-0.8,0.3-1.3,0.3
		c-0.4,0-0.8-0.1-1.2-0.2c-0.4-0.1-0.7-0.3-1-0.4l0.5-1c0.2,0.2,0.5,0.3,0.7,0.4s0.6,0.1,0.9,0.1c0.3,0,0.6-0.1,0.8-0.2
		s0.3-0.3,0.3-0.5c0-0.2-0.1-0.4-0.3-0.5c-0.2-0.1-0.5-0.2-1-0.2h-1.4l0.3-3.2h3.4v1h-2.3l-0.1,1.1h0.5
		C353.5,114.9,354,115,354.4,115.3z"/>
</g>
<g class="st3">
	<path d="M360,116c0.1,0.2,0.2,0.5,0.2,0.8c0,0.3-0.1,0.6-0.3,0.9s-0.5,0.5-0.8,0.6c-0.4,0.1-0.8,0.2-1.2,0.2
		c-0.5,0-0.9-0.1-1.2-0.2c-0.4-0.1-0.6-0.3-0.8-0.6c-0.2-0.3-0.3-0.6-0.3-0.9c0-0.3,0.1-0.6,0.2-0.8c0.1-0.2,0.4-0.4,0.6-0.5
		c-0.2-0.1-0.4-0.3-0.5-0.5c-0.1-0.2-0.2-0.4-0.2-0.7c0-0.3,0.1-0.6,0.3-0.8c0.2-0.2,0.4-0.4,0.8-0.6s0.7-0.2,1.1-0.2
		c0.4,0,0.8,0.1,1.1,0.2s0.6,0.3,0.8,0.6c0.2,0.2,0.3,0.5,0.3,0.8c0,0.2-0.1,0.5-0.2,0.7c-0.1,0.2-0.3,0.4-0.5,0.5
		C359.6,115.6,359.8,115.7,360,116z M358.6,117.3c0.2-0.1,0.3-0.3,0.3-0.6s-0.1-0.4-0.3-0.6c-0.2-0.1-0.4-0.2-0.8-0.2
		c-0.3,0-0.6,0.1-0.8,0.2c-0.2,0.1-0.3,0.3-0.3,0.6c0,0.3,0.1,0.4,0.3,0.6c0.2,0.1,0.4,0.2,0.8,0.2
		C358.1,117.5,358.4,117.4,358.6,117.3z M357.2,113.8c-0.2,0.1-0.2,0.3-0.2,0.5c0,0.2,0.1,0.4,0.2,0.5c0.2,0.1,0.4,0.2,0.6,0.2
		s0.5-0.1,0.6-0.2c0.2-0.1,0.2-0.3,0.2-0.5c0-0.2-0.1-0.4-0.2-0.5c-0.2-0.1-0.4-0.2-0.6-0.2C357.6,113.6,357.4,113.7,357.2,113.8z"
		/>
	<path d="M361.1,118.2c-0.1-0.1-0.2-0.3-0.2-0.6c0-0.2,0.1-0.4,0.2-0.6c0.1-0.1,0.3-0.2,0.6-0.2s0.4,0.1,0.6,0.2
		c0.1,0.1,0.2,0.3,0.2,0.6c0,0.2-0.1,0.4-0.2,0.6c-0.1,0.1-0.3,0.2-0.6,0.2S361.3,118.4,361.1,118.2z"/>
</g>
<g class="st3">
	<path d="M366.8,115.6c0.3,0.3,0.4,0.6,0.4,1.1c0,0.3-0.1,0.6-0.3,0.9c-0.2,0.3-0.4,0.5-0.8,0.7c-0.3,0.2-0.8,0.2-1.3,0.2
		c-0.4,0-0.8-0.1-1.2-0.2c-0.4-0.1-0.7-0.3-1-0.4l0.5-1c0.2,0.2,0.5,0.3,0.7,0.4s0.6,0.1,0.9,0.1c0.3,0,0.6-0.1,0.8-0.2
		c0.2-0.1,0.3-0.3,0.3-0.5c0-0.5-0.3-0.7-1-0.7h-0.6v-0.9l1.2-1.3H363v-1h3.9v0.8l-1.3,1.4C366.1,115.1,366.5,115.3,366.8,115.6z"/>
</g>
<g class="st3">
	<path d="M371.5,115.6c0.3,0.3,0.4,0.6,0.4,1.1c0,0.3-0.1,0.6-0.3,0.9c-0.2,0.3-0.4,0.5-0.8,0.7c-0.3,0.2-0.8,0.2-1.3,0.2
		c-0.4,0-0.8-0.1-1.2-0.2c-0.4-0.1-0.7-0.3-1-0.4l0.5-1c0.2,0.2,0.5,0.3,0.7,0.4s0.6,0.1,0.9,0.1c0.3,0,0.6-0.1,0.8-0.2
		c0.2-0.1,0.3-0.3,0.3-0.5c0-0.5-0.3-0.7-1-0.7h-0.6v-0.9l1.2-1.3h-2.4v-1h3.9v0.8l-1.3,1.4C370.8,115.1,371.2,115.3,371.5,115.6z"
		/>
</g>
<g class="st3">
	<path d="M372.7,115.4c-0.3-0.3-0.4-0.7-0.4-1.1c0-0.5,0.1-0.8,0.4-1.1s0.6-0.4,1-0.4c0.4,0,0.7,0.1,1,0.4s0.4,0.7,0.4,1.1
		c0,0.5-0.1,0.8-0.4,1.1s-0.6,0.4-1,0.4C373.3,115.8,372.9,115.7,372.7,115.4z M374.1,114.9c0.1-0.1,0.2-0.4,0.2-0.7
		c0-0.3-0.1-0.5-0.2-0.7c-0.1-0.1-0.2-0.2-0.4-0.2c-0.2,0-0.3,0.1-0.4,0.2c-0.1,0.2-0.2,0.4-0.2,0.7s0.1,0.5,0.2,0.7
		s0.2,0.2,0.4,0.2C373.9,115.1,374,115.1,374.1,114.9z M377,112.8h1l-3.8,5.6h-1L377,112.8z M376.8,118.2c-0.2-0.1-0.4-0.3-0.5-0.5
		c-0.1-0.2-0.2-0.5-0.2-0.8c0-0.3,0.1-0.6,0.2-0.8c0.1-0.2,0.3-0.4,0.5-0.5c0.2-0.1,0.4-0.2,0.7-0.2c0.4,0,0.7,0.1,1,0.4
		c0.3,0.3,0.4,0.7,0.4,1.1c0,0.5-0.1,0.8-0.4,1.1c-0.3,0.3-0.6,0.4-1,0.4C377.2,118.4,377,118.4,376.8,118.2z M377.9,117.5
		c0.1-0.2,0.2-0.4,0.2-0.7c0-0.3-0.1-0.5-0.2-0.7c-0.1-0.2-0.2-0.2-0.4-0.2c-0.2,0-0.3,0.1-0.4,0.2c-0.1,0.1-0.2,0.4-0.2,0.7
		c0,0.3,0.1,0.5,0.2,0.7c0.1,0.1,0.2,0.2,0.4,0.2C377.7,117.8,377.8,117.7,377.9,117.5z"/>
</g>
<g class="st3">
	<path d="M395.1,105.5c0.3,0.1,0.5,0.3,0.7,0.6c0.2,0.3,0.3,0.6,0.3,0.9c0,0.4-0.1,0.7-0.3,1c-0.2,0.3-0.4,0.5-0.8,0.7
		c-0.3,0.2-0.7,0.2-1.1,0.2c-0.8,0-1.4-0.2-1.8-0.7c-0.4-0.5-0.7-1.2-0.7-2.1c0-0.6,0.1-1.2,0.4-1.6c0.2-0.5,0.6-0.8,1-1
		c0.4-0.2,0.9-0.4,1.5-0.4c0.3,0,0.6,0,0.9,0.1c0.3,0.1,0.5,0.2,0.7,0.3l-0.5,1c-0.3-0.2-0.6-0.3-1-0.3c-0.5,0-0.9,0.1-1.1,0.4
		s-0.4,0.7-0.4,1.2c0.3-0.3,0.8-0.5,1.4-0.5C394.5,105.3,394.8,105.4,395.1,105.5z M394.5,107.7c0.2-0.1,0.3-0.4,0.3-0.6
		s-0.1-0.5-0.3-0.6c-0.2-0.2-0.4-0.2-0.7-0.2c-0.3,0-0.5,0.1-0.7,0.2c-0.2,0.2-0.3,0.4-0.3,0.6s0.1,0.4,0.3,0.6
		c0.2,0.2,0.4,0.2,0.7,0.2C394.1,107.9,394.4,107.9,394.5,107.7z"/>
	<path d="M400.3,106c0.3,0.3,0.4,0.6,0.4,1.1c0,0.3-0.1,0.6-0.3,0.9c-0.2,0.3-0.4,0.5-0.8,0.7c-0.3,0.2-0.8,0.2-1.3,0.2
		c-0.4,0-0.8-0.1-1.2-0.2c-0.4-0.1-0.7-0.3-1-0.4l0.5-1c0.2,0.2,0.5,0.3,0.7,0.4c0.3,0.1,0.6,0.1,0.9,0.1c0.3,0,0.6-0.1,0.8-0.2
		c0.2-0.1,0.3-0.3,0.3-0.5c0-0.5-0.3-0.7-1-0.7h-0.6v-0.9l1.2-1.3h-2.4v-1h3.9v0.8l-1.3,1.4C399.6,105.6,400,105.8,400.3,106z"/>
	<path d="M401.4,108.7c-0.1-0.1-0.2-0.3-0.2-0.6c0-0.2,0.1-0.4,0.2-0.6c0.1-0.1,0.3-0.2,0.6-0.2s0.4,0.1,0.6,0.2
		c0.1,0.1,0.2,0.3,0.2,0.6c0,0.2-0.1,0.4-0.2,0.6s-0.3,0.2-0.6,0.2S401.6,108.8,401.4,108.7z"/>
	<path d="M407.2,103.8c0.4,0.5,0.7,1.2,0.7,2.1c0,0.6-0.1,1.2-0.4,1.6s-0.6,0.8-1,1s-0.9,0.4-1.5,0.4c-0.3,0-0.6,0-0.9-0.1
		c-0.3-0.1-0.5-0.2-0.7-0.3l0.5-1c0.3,0.2,0.6,0.3,1,0.3c0.5,0,0.9-0.1,1.1-0.4c0.3-0.3,0.4-0.7,0.4-1.2c-0.3,0.3-0.8,0.5-1.4,0.5
		c-0.4,0-0.7-0.1-1-0.2c-0.3-0.1-0.5-0.3-0.7-0.6c-0.2-0.3-0.3-0.6-0.3-0.9c0-0.4,0.1-0.7,0.3-1c0.2-0.3,0.4-0.5,0.8-0.7
		c0.3-0.2,0.7-0.2,1.1-0.2C406.1,103.1,406.7,103.4,407.2,103.8z M406.1,105.5c0.2-0.2,0.3-0.4,0.3-0.6c0-0.2-0.1-0.4-0.3-0.6
		c-0.2-0.2-0.4-0.2-0.7-0.2c-0.3,0-0.5,0.1-0.7,0.2c-0.2,0.1-0.3,0.4-0.3,0.6c0,0.3,0.1,0.5,0.3,0.6c0.2,0.2,0.4,0.2,0.7,0.2
		C405.7,105.8,405.9,105.7,406.1,105.5z"/>
</g>
<g class="st3">
	<path d="M412.1,105.8c0.4,0.3,0.6,0.7,0.6,1.3c0,0.3-0.1,0.7-0.3,0.9s-0.4,0.5-0.8,0.7c-0.3,0.2-0.8,0.3-1.3,0.3
		c-0.4,0-0.8-0.1-1.2-0.2c-0.4-0.1-0.7-0.3-1-0.4l0.5-1c0.2,0.2,0.5,0.3,0.7,0.4s0.6,0.1,0.9,0.1c0.3,0,0.6-0.1,0.8-0.2
		s0.3-0.3,0.3-0.5c0-0.2-0.1-0.4-0.3-0.5c-0.2-0.1-0.5-0.2-1-0.2h-1.4l0.3-3.2h3.4v1H410l-0.1,1.1h0.5
		C411.2,105.3,411.7,105.5,412.1,105.8z"/>
</g>
<g class="st3">
	<path d="M413.4,105.8c-0.3-0.3-0.4-0.7-0.4-1.1c0-0.5,0.1-0.8,0.4-1.1s0.6-0.4,1-0.4c0.4,0,0.7,0.1,1,0.4s0.4,0.7,0.4,1.1
		c0,0.5-0.1,0.8-0.4,1.1s-0.6,0.4-1,0.4C414,106.2,413.7,106.1,413.4,105.8z M414.8,105.4c0.1-0.1,0.2-0.4,0.2-0.7
		c0-0.3-0.1-0.5-0.2-0.7c-0.1-0.1-0.2-0.2-0.4-0.2c-0.2,0-0.3,0.1-0.4,0.2c-0.1,0.2-0.2,0.4-0.2,0.7s0.1,0.5,0.2,0.7
		c0.1,0.2,0.2,0.2,0.4,0.2C414.6,105.6,414.7,105.5,414.8,105.4z M417.8,103.2h1l-3.8,5.6h-1L417.8,103.2z M417.5,108.7
		c-0.2-0.1-0.4-0.3-0.5-0.5s-0.2-0.5-0.2-0.8c0-0.3,0.1-0.6,0.2-0.8s0.3-0.4,0.5-0.5s0.4-0.2,0.7-0.2c0.4,0,0.7,0.1,1,0.4
		c0.3,0.3,0.4,0.7,0.4,1.1c0,0.5-0.1,0.8-0.4,1.1c-0.3,0.3-0.6,0.4-1,0.4C418,108.9,417.7,108.8,417.5,108.7z M418.6,108
		c0.1-0.2,0.2-0.4,0.2-0.7c0-0.3-0.1-0.5-0.2-0.7c-0.1-0.2-0.2-0.2-0.4-0.2c-0.2,0-0.3,0.1-0.4,0.2s-0.2,0.4-0.2,0.7
		c0,0.3,0.1,0.5,0.2,0.7c0.1,0.1,0.2,0.2,0.4,0.2C418.4,108.2,418.5,108.2,418.6,108z"/>
</g>
<g class="st3">
	<path d="M442.7,101.8c0.3,0.1,0.5,0.3,0.7,0.6c0.2,0.3,0.3,0.6,0.3,0.9c0,0.4-0.1,0.7-0.3,1c-0.2,0.3-0.4,0.5-0.8,0.7
		c-0.3,0.2-0.7,0.2-1.1,0.2c-0.8,0-1.4-0.2-1.8-0.7c-0.4-0.5-0.7-1.2-0.7-2.1c0-0.6,0.1-1.2,0.4-1.6c0.2-0.5,0.6-0.8,1-1
		c0.4-0.2,0.9-0.4,1.5-0.4c0.3,0,0.6,0,0.9,0.1c0.3,0.1,0.5,0.2,0.7,0.3l-0.5,1c-0.3-0.2-0.6-0.3-1-0.3c-0.5,0-0.9,0.1-1.1,0.4
		s-0.4,0.7-0.4,1.2c0.3-0.3,0.8-0.5,1.4-0.5C442,101.6,442.4,101.6,442.7,101.8z M442.1,104c0.2-0.1,0.3-0.4,0.3-0.6
		s-0.1-0.5-0.3-0.6c-0.2-0.2-0.4-0.2-0.7-0.2c-0.3,0-0.5,0.1-0.7,0.2s-0.3,0.4-0.3,0.6s0.1,0.4,0.3,0.6c0.2,0.2,0.4,0.2,0.7,0.2
		C441.7,104.2,441.9,104.1,442.1,104z"/>
</g>
<g class="st3">
	<path d="M447.8,101.8c0.3,0.1,0.5,0.3,0.7,0.6c0.2,0.3,0.3,0.6,0.3,0.9c0,0.4-0.1,0.7-0.3,1c-0.2,0.3-0.4,0.5-0.8,0.7
		c-0.3,0.2-0.7,0.2-1.1,0.2c-0.8,0-1.4-0.2-1.8-0.7c-0.4-0.5-0.7-1.2-0.7-2.1c0-0.6,0.1-1.2,0.4-1.6c0.2-0.5,0.6-0.8,1-1
		c0.4-0.2,0.9-0.4,1.5-0.4c0.3,0,0.6,0,0.9,0.1c0.3,0.1,0.5,0.2,0.7,0.3l-0.5,1c-0.3-0.2-0.6-0.3-1-0.3c-0.5,0-0.9,0.1-1.1,0.4
		s-0.4,0.7-0.4,1.2c0.3-0.3,0.8-0.5,1.4-0.5C447.1,101.6,447.5,101.6,447.8,101.8z M447.2,104c0.2-0.1,0.3-0.4,0.3-0.6
		s-0.1-0.5-0.3-0.6c-0.2-0.2-0.4-0.2-0.7-0.2c-0.3,0-0.5,0.1-0.7,0.2c-0.2,0.2-0.3,0.4-0.3,0.6s0.1,0.4,0.3,0.6
		c0.2,0.2,0.4,0.2,0.7,0.2C446.8,104.2,447,104.1,447.2,104z"/>
</g>
<g class="st3">
	<path d="M449.3,102.1c-0.3-0.3-0.4-0.7-0.4-1.1c0-0.5,0.1-0.8,0.4-1.1s0.6-0.4,1-0.4c0.4,0,0.7,0.1,1,0.4s0.4,0.7,0.4,1.1
		c0,0.5-0.1,0.8-0.4,1.1s-0.6,0.4-1,0.4C449.9,102.5,449.6,102.4,449.3,102.1z M450.7,101.6c0.1-0.1,0.2-0.4,0.2-0.7
		c0-0.3-0.1-0.5-0.2-0.7c-0.1-0.1-0.2-0.2-0.4-0.2c-0.2,0-0.3,0.1-0.4,0.2c-0.1,0.2-0.2,0.4-0.2,0.7s0.1,0.5,0.2,0.7
		s0.2,0.2,0.4,0.2C450.5,101.8,450.6,101.8,450.7,101.6z M453.6,99.5h1l-3.8,5.6h-1L453.6,99.5z M453.4,104.9
		c-0.2-0.1-0.4-0.3-0.5-0.5c-0.1-0.2-0.2-0.5-0.2-0.8c0-0.3,0.1-0.6,0.2-0.8c0.1-0.2,0.3-0.4,0.5-0.5c0.2-0.1,0.4-0.2,0.7-0.2
		c0.4,0,0.7,0.1,1,0.4c0.3,0.3,0.4,0.7,0.4,1.1c0,0.5-0.1,0.8-0.4,1.1c-0.3,0.3-0.6,0.4-1,0.4C453.8,105.1,453.6,105.1,453.4,104.9z
		 M454.5,104.2c0.1-0.2,0.2-0.4,0.2-0.7c0-0.3-0.1-0.5-0.2-0.7c-0.1-0.2-0.2-0.2-0.4-0.2c-0.2,0-0.3,0.1-0.4,0.2
		c-0.1,0.1-0.2,0.4-0.2,0.7c0,0.3,0.1,0.5,0.2,0.7c0.1,0.1,0.2,0.2,0.4,0.2C454.3,104.5,454.4,104.4,454.5,104.2z"/>
</g>
<g>
	<defs>
		<rect id="SVGID_1_" x="-116.2" y="297.3" width="1467.6" height="1107.3"/>
	</defs>
	<clipPath id="SVGID_2_">
		<use xlink:href="#SVGID_1_"  style="overflow:visible;"/>
	</clipPath>
	<g class="st6">
		<g class="st7">
			<path class="st8" d="M1178.3,1479.8L1319,1339l0,0l539.9-539.9L1319,259.3l0,0l-140.7-140.8L497.6,799.2L1178.3,1479.8z
				 M679.4,705.2l93.9,93.9l-93.9,93.9l-93.9-93.9L679.4,705.2z M1677.2,893.1l-93.9-93.9l93.9-93.9l93.9,93.9L1677.2,893.1z
				 M1275.2,1295.1L1275.2,1295.1l-96.9,96.9l-220-220l176.4-176.5L952.9,813.7L820.9,945.8l90.9,90.9l43.9-43.9l-47-47l44.3-44.3
				l93.9,93.9L914.3,1128l-191-191l137.8-137.8L723.3,661.3l191-191l132.5,132.5l-93.9,103.9l-44.3-54.3l47-47l-43.9-43.9
				l-90.9,90.9l132,132.1l181.7-181.7L958.2,426.4l123.2-123.2l0,0l96.8-96.9l96.8,96.9l0,0l123.2,123.2l-176.4,176.5l181.7,181.7
				l132.1-132.1l-90.9-90.9l-43.9,43.9l47,47l-44.2,44.3l-93.9-93.9l132.5-132.6l191,191l-137.8,137.9L1633.3,937l-191,191
				l-132.6-132.5l93.9-93.9l44.2,44.3l-47,47l43.9,43.9l90.9-90.9l-132-132.1l-181.7,181.7l176.4,176.4L1275.2,1295.1z"/>
		</g>
	</g>
</g>
<g>
	<defs>
		<rect id="SVGID_3_" x="-1603.8" y="297.3" width="1467.6" height="1033.6"/>
	</defs>
	<clipPath id="SVGID_4_">
		<use xlink:href="#SVGID_3_"  style="overflow:visible;"/>
	</clipPath>
	<g class="st9">
		<g class="st7">
			<path class="st8" d="M-309.3,1479.8l140.8-140.8l0,0l539.9-539.8l-539.9-539.9l0,0l-140.8-140.8l-680.6,680.6L-309.3,1479.8z
				 M-808.2,705.2l93.9,93.9l-93.9,93.9l-93.9-93.9L-808.2,705.2z M189.6,893.1l-93.9-93.9l93.9-93.9l93.9,93.9L189.6,893.1z
				 M-212.4,1295.1L-212.4,1295.1l-96.9,96.9l-220-220l176.5-176.5l-181.8-181.8l-132.1,132.1l90.9,90.9l43.9-43.9l-47-47l44.2-44.3
				l93.9,93.9L-573.2,1128l-191-191l137.8-137.8l-137.9-137.8l191-191l132.5,132.5l-93.9,103.9l-44.2-54.3l47-47l-43.9-43.9
				l-90.9,90.9l132.1,132.1l181.8-181.7l-176.5-176.5l123.2-123.2l0,0l96.9-96.9l96.9,96.9l0,0l123.2,123.2l-176.4,176.5
				l181.7,181.7L48.1,652.5l-90.9-90.9l-43.9,43.9l47,47l-44.3,44.3l-93.9-93.9l132.5-132.6l191,191L7.9,799.2L145.7,937l-191,191
				l-132.6-132.5l93.9-93.9l44.3,44.3l-47,47l43.9,43.9l90.9-90.9l-132-132.1l-181.7,181.7l176.4,176.4L-212.4,1295.1z"/>
		</g>
	</g>
</g>
</svg>
