<?xml version="1.0" encoding="utf-8"?>
<!-- Generator: Adobe Illustrator 24.1.0, SVG Export Plug-In . SVG Version: 6.00 Build 0)  -->
<svg version="1.1" id="Layer_1" xmlns="http://www.w3.org/2000/svg" xmlns:xlink="http://www.w3.org/1999/xlink" x="0px" y="0px"
	 viewBox="0 0 504 277.7" style="enable-background:new 0 0 504 277.7;" xml:space="preserve">
<style type="text/css">
	.st0{fill:#FFFFFF;}
	.st1{opacity:0.2;}
	.st2{fill:#017DB9;}
	.st3{enable-background:new    ;}
	.st4{fill:#ED4328;}
	.st5{fill:#41AC49;}
</style>
<rect class="st0" width="504" height="277.7"/>
<g class="st1">
	<rect x="21.2" y="78.5" width="461.7" height="0.5"/>
</g>
<g class="st1">
	<rect x="21.2" y="105.5" width="461.7" height="0.5"/>
</g>
<g class="st1">
	<rect x="21.2" y="131.5" width="461.7" height="0.5"/>
</g>
<g class="st1">
	<rect x="21.2" y="158.2" width="461.7" height="0.5"/>
</g>
<g class="st1">
	<rect x="21.2" y="184.9" width="461.7" height="0.5"/>
</g>
<g class="st1">
	<rect x="21.2" y="211.5" width="461.7" height="0.5"/>
</g>
<path class="st2" d="M109.4,242l1.1-1.1l0,0l4.3-4.3l-4.3-4.3l0,0l-1.1-1.2l-5.4,5.5L109.4,242z M105.4,235.8l0.8,0.8l-0.8,0.8
	l-0.8-0.8L105.4,235.8z M113.4,237.3l-0.8-0.8l0.8-0.8l0.8,0.8L113.4,237.3z M110.2,240.5L110.2,240.5l-0.8,0.8l-1.8-1.8l1.4-1.4
	l-1.5-1.5l-1.1,1.1l0.7,0.7l0.3-0.4l-0.4-0.4l0.3-0.4l0.8,0.8l-1.1,1.1l-1.5-1.5l1.1-1.1l-1.1-1.1l1.5-1.5l1.1,1.1l-0.8,0.8
	l-0.3-0.4l0.4-0.4l-0.3-0.4l-0.7,0.7l1.1,1.1l1.5-1.5l-1.4-1.4l1-1l0,0l0.8-0.8l0.8,0.8l0,0l1,1l-1.4,1.4l1.5,1.5l1.1-1.1l-0.7-0.7
	l-0.3,0.4l0.4,0.4l-0.3,0.4l-0.8-0.8l1.1-1.1l1.5,1.5l-1.1,1.1l1.1,1.1l-1.5,1.5l-1.1-1.1l0.8-0.8l0.3,0.4l-0.4,0.4l0.3,0.4l0.7-0.7
	l-1.1-1.1l-1.5,1.5l1.4,1.4L110.2,240.5z"/>
<rect x="108.6" y="238.6" transform="matrix(0.7071 -0.7071 0.7071 0.7071 -137.2696 147.5117)" class="st2" width="1.7" height="1.7"/>
<rect x="108.6" y="232.6" transform="matrix(0.7071 -0.7071 0.7071 0.7071 -133.0376 145.7657)" class="st2" width="1.7" height="1.7"/>
<g class="st3">
	<path d="M122.3,236.5v2.6h-0.9v-6.4h2.4c0.7,0,1.2,0.2,1.6,0.5c0.4,0.4,0.6,0.8,0.6,1.4c0,0.6-0.2,1-0.6,1.4
		c-0.4,0.3-0.9,0.5-1.6,0.5H122.3z M122.3,235.8h1.6c0.4,0,0.8-0.1,1-0.3c0.2-0.2,0.3-0.5,0.3-0.9s-0.1-0.7-0.3-0.9
		c-0.2-0.2-0.5-0.4-1-0.4h-1.6V235.8z"/>
	<path d="M128,238.4h3.1v0.7h-4v-6.4h0.9V238.4z"/>
	<path d="M136.9,239H136v-2.8h-3.1v2.8h-0.9v-6.4h0.9v2.9h3.1v-2.9h0.9V239z"/>
	<path d="M139.4,239h-0.9v-6.4h0.9V239z"/>
	<path d="M142.9,237.4l0.1,0.5h0l0.1-0.5l1.7-4.7h0.9l-2.4,6.4h-0.7l-2.4-6.4h0.9L142.9,237.4z"/>
	<path d="M150,237.3l0.1,0.6h0l0.1-0.6l0.9-3h0.7l1,3l0.1,0.7h0l0.1-0.7l0.7-3h0.9l-1.4,4.8h-0.7l-0.9-2.9l-0.2-0.8h0l-0.2,0.8
		l-0.9,2.9h-0.7l-1.4-4.8h0.9L150,237.3z"/>
	<path d="M156.4,234.9c0.2-0.2,0.4-0.4,0.6-0.5c0.2-0.1,0.5-0.2,0.8-0.2c0.5,0,0.9,0.2,1.2,0.5c0.3,0.3,0.4,0.8,0.4,1.4v3h-0.9v-3
		c0-0.4-0.1-0.7-0.3-0.9c-0.2-0.2-0.4-0.3-0.8-0.3c-0.3,0-0.5,0.1-0.7,0.2c-0.2,0.1-0.3,0.2-0.5,0.4v3.6h-0.9v-6.9h0.9V234.9z"/>
	<path d="M160.5,236.6c0-0.7,0.2-1.3,0.6-1.7c0.4-0.5,0.9-0.7,1.6-0.7c0.7,0,1.2,0.2,1.6,0.7c0.4,0.5,0.6,1,0.6,1.7v0.1
		c0,0.7-0.2,1.3-0.6,1.7s-0.9,0.7-1.6,0.7s-1.2-0.2-1.6-0.7C160.7,238,160.5,237.4,160.5,236.6L160.5,236.6z M161.4,236.7
		c0,0.5,0.1,0.9,0.3,1.2s0.5,0.5,0.9,0.5c0.4,0,0.7-0.2,0.9-0.5s0.3-0.7,0.3-1.2v-0.1c0-0.5-0.1-0.9-0.3-1.2
		c-0.2-0.3-0.5-0.5-0.9-0.5c-0.4,0-0.7,0.2-0.9,0.5S161.4,236.1,161.4,236.7L161.4,236.7z"/>
	<path d="M169.4,236.8h-0.4v2.2H168v-6.9h0.9v4h0.4l1.4-1.9h1l-1.7,2.2l1.9,2.6h-1L169.4,236.8z"/>
	<path d="M173.4,234.3l0.1,0.7c0.2-0.3,0.4-0.4,0.6-0.6c0.2-0.1,0.5-0.2,0.8-0.2c0.5,0,0.9,0.2,1.2,0.5c0.3,0.3,0.4,0.8,0.4,1.4v3
		h-0.9v-3c0-0.4-0.1-0.7-0.2-0.9c-0.2-0.2-0.4-0.3-0.8-0.3c-0.3,0-0.5,0.1-0.7,0.2c-0.2,0.1-0.3,0.3-0.4,0.5v3.5h-0.9v-4.8H173.4z"
		/>
	<path d="M177.6,236.6c0-0.7,0.2-1.3,0.6-1.7c0.4-0.5,0.9-0.7,1.6-0.7c0.7,0,1.2,0.2,1.6,0.7c0.4,0.5,0.6,1,0.6,1.7v0.1
		c0,0.7-0.2,1.3-0.6,1.7s-0.9,0.7-1.6,0.7s-1.2-0.2-1.6-0.7C177.8,238,177.6,237.4,177.6,236.6L177.6,236.6z M178.4,236.7
		c0,0.5,0.1,0.9,0.3,1.2s0.5,0.5,0.9,0.5c0.4,0,0.7-0.2,0.9-0.5s0.3-0.7,0.3-1.2v-0.1c0-0.5-0.1-0.9-0.3-1.2
		c-0.2-0.3-0.5-0.5-0.9-0.5c-0.4,0-0.7,0.2-0.9,0.5S178.4,236.1,178.4,236.7L178.4,236.7z"/>
	<path d="M184.1,237.3l0.1,0.6h0l0.1-0.6l0.9-3h0.7l1,3l0.1,0.7h0l0.1-0.7l0.7-3h0.9l-1.4,4.8h-0.7l-0.9-2.9l-0.2-0.8h0l-0.2,0.8
		l-0.9,2.9h-0.7l-1.4-4.8h0.9L184.1,237.3z"/>
	<path d="M193.1,233.1v1.1h0.9v0.6h-0.9v2.9c0,0.2,0,0.4,0.1,0.5c0.1,0.1,0.2,0.1,0.4,0.1c0,0,0.1,0,0.2,0c0.1,0,0.1,0,0.2,0
		l0.1,0.6c-0.1,0.1-0.2,0.1-0.3,0.1c-0.1,0-0.3,0-0.4,0c-0.4,0-0.6-0.1-0.8-0.3c-0.2-0.2-0.3-0.5-0.3-1v-2.9h-0.8v-0.6h0.8v-1.1
		H193.1z"/>
	<path d="M195.8,234.9c0.2-0.2,0.4-0.4,0.6-0.5c0.2-0.1,0.5-0.2,0.8-0.2c0.5,0,0.9,0.2,1.2,0.5c0.3,0.3,0.4,0.8,0.4,1.4v3H198v-3
		c0-0.4-0.1-0.7-0.3-0.9c-0.2-0.2-0.4-0.3-0.8-0.3c-0.3,0-0.5,0.1-0.7,0.2c-0.2,0.1-0.3,0.2-0.5,0.4v3.6H195v-6.9h0.9V234.9z"/>
	<path d="M202.1,239.1c-0.7,0-1.2-0.2-1.6-0.7c-0.4-0.4-0.6-1-0.6-1.7v-0.2c0-0.7,0.2-1.2,0.6-1.7c0.4-0.4,0.9-0.7,1.4-0.7
		c0.6,0,1.1,0.2,1.4,0.6c0.3,0.4,0.5,0.9,0.5,1.6v0.5h-3l0,0c0,0.5,0.1,0.9,0.3,1.2c0.2,0.3,0.5,0.4,1,0.4c0.3,0,0.5,0,0.8-0.1
		c0.2-0.1,0.4-0.2,0.6-0.3l0.3,0.6c-0.2,0.2-0.4,0.3-0.7,0.4C202.8,239.1,202.4,239.1,202.1,239.1z M201.9,234.9
		c-0.3,0-0.6,0.1-0.7,0.3c-0.2,0.2-0.3,0.5-0.4,0.9l0,0h2.1v-0.1c0-0.3-0.1-0.6-0.3-0.9S202.3,234.9,201.9,234.9z"/>
	<path d="M205.7,233.1h-0.9v-0.9h0.9V233.1z M205.7,239h-0.9v-4.8h0.9V239z"/>
	<path d="M209.3,235l-0.4,0c-0.2,0-0.4,0.1-0.6,0.2s-0.3,0.3-0.4,0.5v3.4h-0.9v-4.8h0.8l0.1,0.7c0.1-0.2,0.3-0.4,0.5-0.6
		c0.2-0.1,0.4-0.2,0.7-0.2c0.1,0,0.1,0,0.2,0c0.1,0,0.1,0,0.1,0L209.3,235z"/>
	<path d="M215.2,237.8c0-0.2-0.1-0.3-0.2-0.5c-0.1-0.1-0.4-0.2-0.8-0.3c-0.6-0.1-1-0.3-1.3-0.5c-0.3-0.2-0.5-0.5-0.5-0.9
		c0-0.4,0.2-0.7,0.5-1c0.3-0.3,0.8-0.4,1.3-0.4c0.5,0,1,0.1,1.3,0.4s0.5,0.6,0.5,1l0,0h-0.8c0-0.2-0.1-0.4-0.3-0.6
		c-0.2-0.2-0.4-0.3-0.7-0.3c-0.3,0-0.5,0.1-0.7,0.2c-0.2,0.1-0.2,0.3-0.2,0.5c0,0.2,0.1,0.3,0.2,0.4s0.4,0.2,0.8,0.3
		c0.6,0.1,1,0.3,1.3,0.5s0.5,0.5,0.5,0.9c0,0.4-0.2,0.8-0.5,1s-0.8,0.4-1.3,0.4c-0.6,0-1.1-0.2-1.4-0.5s-0.5-0.7-0.5-1.1l0,0h0.8
		c0,0.3,0.1,0.5,0.3,0.7c0.2,0.1,0.5,0.2,0.8,0.2c0.3,0,0.5-0.1,0.7-0.2C215.1,238.1,215.2,238,215.2,237.8z"/>
	<path d="M218.4,233.1v1.1h0.9v0.6h-0.9v2.9c0,0.2,0,0.4,0.1,0.5c0.1,0.1,0.2,0.1,0.4,0.1c0,0,0.1,0,0.2,0c0.1,0,0.1,0,0.2,0
		l0.1,0.6c-0.1,0.1-0.2,0.1-0.3,0.1c-0.1,0-0.3,0-0.4,0c-0.4,0-0.6-0.1-0.8-0.3c-0.2-0.2-0.3-0.5-0.3-1v-2.9h-0.8v-0.6h0.8v-1.1
		H218.4z"/>
	<path d="M223.1,239c0-0.1-0.1-0.3-0.1-0.4c0-0.1,0-0.2,0-0.3c-0.2,0.2-0.4,0.4-0.6,0.6c-0.3,0.2-0.5,0.2-0.8,0.2
		c-0.5,0-0.9-0.1-1.1-0.4c-0.3-0.3-0.4-0.6-0.4-1c0-0.5,0.2-0.8,0.6-1.1c0.4-0.3,0.9-0.4,1.5-0.4h0.9v-0.5c0-0.3-0.1-0.5-0.3-0.7
		c-0.2-0.2-0.4-0.2-0.7-0.2c-0.3,0-0.5,0.1-0.7,0.2s-0.3,0.3-0.3,0.5l-0.8,0l0,0c0-0.3,0.1-0.7,0.5-0.9c0.3-0.3,0.8-0.4,1.3-0.4
		c0.5,0,1,0.1,1.3,0.4c0.3,0.3,0.5,0.7,0.5,1.2v2.3c0,0.2,0,0.3,0,0.5s0,0.3,0.1,0.5H223.1z M221.7,238.4c0.3,0,0.6-0.1,0.8-0.2
		c0.3-0.2,0.4-0.3,0.5-0.6v-0.8h-1c-0.3,0-0.6,0.1-0.8,0.3s-0.3,0.4-0.3,0.6c0,0.2,0.1,0.4,0.2,0.5S221.4,238.4,221.7,238.4z"/>
	<path d="M226.3,233.1v1.1h0.9v0.6h-0.9v2.9c0,0.2,0,0.4,0.1,0.5c0.1,0.1,0.2,0.1,0.4,0.1c0,0,0.1,0,0.2,0c0.1,0,0.1,0,0.2,0
		l0.1,0.6c-0.1,0.1-0.2,0.1-0.3,0.1c-0.1,0-0.3,0-0.4,0c-0.4,0-0.6-0.1-0.8-0.3c-0.2-0.2-0.3-0.5-0.3-1v-2.9h-0.8v-0.6h0.8v-1.1
		H226.3z"/>
	<path d="M231.2,238.3c-0.1,0.3-0.3,0.5-0.6,0.6s-0.5,0.2-0.8,0.2c-0.5,0-0.9-0.2-1.2-0.5s-0.4-0.8-0.4-1.5v-2.8h0.9v2.8
		c0,0.5,0.1,0.9,0.2,1s0.4,0.3,0.7,0.3c0.3,0,0.6-0.1,0.8-0.2c0.2-0.1,0.4-0.3,0.5-0.5v-3.4h0.9v4.8h-0.8L231.2,238.3z"/>
	<path d="M236,237.8c0-0.2-0.1-0.3-0.2-0.5c-0.1-0.1-0.4-0.2-0.8-0.3c-0.6-0.1-1-0.3-1.3-0.5c-0.3-0.2-0.5-0.5-0.5-0.9
		c0-0.4,0.2-0.7,0.5-1c0.3-0.3,0.8-0.4,1.3-0.4c0.5,0,1,0.1,1.3,0.4s0.5,0.6,0.5,1l0,0H236c0-0.2-0.1-0.4-0.3-0.6
		c-0.2-0.2-0.4-0.3-0.7-0.3c-0.3,0-0.5,0.1-0.7,0.2c-0.2,0.1-0.2,0.3-0.2,0.5c0,0.2,0.1,0.3,0.2,0.4s0.4,0.2,0.8,0.3
		c0.6,0.1,1,0.3,1.3,0.5s0.5,0.5,0.5,0.9c0,0.4-0.2,0.8-0.5,1s-0.8,0.4-1.3,0.4c-0.6,0-1.1-0.2-1.4-0.5s-0.5-0.7-0.5-1.1l0,0h0.8
		c0,0.3,0.1,0.5,0.3,0.7c0.2,0.1,0.5,0.2,0.8,0.2c0.3,0,0.5-0.1,0.7-0.2C236,238.1,236,238,236,237.8z"/>
</g>
<path class="st4" d="M254.5,242l1.1-1.1l0,0l4.3-4.3l-4.3-4.3l0,0l-1.1-1.2l-5.5,5.5L254.5,242z M250.5,235.8l0.8,0.8l-0.8,0.8
	l-0.8-0.8L250.5,235.8z M258.5,237.3l-0.8-0.8l0.8-0.8l0.8,0.8L258.5,237.3z M255.3,240.5L255.3,240.5l-0.8,0.8l-1.8-1.8l1.4-1.4
	l-1.5-1.5l-1.1,1.1l0.7,0.7l0.4-0.4l-0.4-0.4l0.4-0.4l0.8,0.8l-1.1,1.1l-1.5-1.5l1.1-1.1l-1.1-1.1l1.5-1.5l1.1,1.1l-0.8,0.8
	l-0.4-0.4l0.4-0.4l-0.4-0.4l-0.7,0.7l1.1,1.1l1.5-1.5l-1.4-1.4l1-1l0,0l0.8-0.8l0.8,0.8l0,0l1,1l-1.4,1.4l1.5,1.5l1.1-1.1l-0.7-0.7
	l-0.4,0.4l0.4,0.4l-0.4,0.4l-0.8-0.8l1.1-1.1l1.5,1.5l-1.2,1.1l1.1,1.1l-1.5,1.5l-1.1-1.1l0.8-0.8l0.4,0.4l-0.4,0.4l0.4,0.4l0.7-0.7
	l-1.1-1.1l-1.5,1.5l1.4,1.4L255.3,240.5z"/>
<rect x="253.6" y="238.6" transform="matrix(0.7071 -0.7071 0.7071 0.7071 -94.7883 250.0822)" class="st4" width="1.7" height="1.7"/>
<rect x="253.6" y="232.6" transform="matrix(0.7071 -0.7071 0.7071 0.7071 -90.5592 248.3292)" class="st4" width="1.7" height="1.7"/>
<g class="st3">
	<path d="M267.3,236.5v2.6h-0.9v-6.4h2.4c0.7,0,1.2,0.2,1.6,0.5c0.4,0.4,0.6,0.8,0.6,1.4c0,0.6-0.2,1-0.6,1.4
		c-0.4,0.3-0.9,0.5-1.6,0.5H267.3z M267.3,235.8h1.6c0.4,0,0.8-0.1,1-0.3c0.2-0.2,0.3-0.5,0.3-0.9s-0.1-0.7-0.3-0.9
		c-0.2-0.2-0.5-0.4-1-0.4h-1.6V235.8z"/>
	<path d="M273,238.4h3.1v0.7h-4v-6.4h0.9V238.4z"/>
	<path d="M282,239h-0.9v-2.8H278v2.8h-0.9v-6.4h0.9v2.9h3.1v-2.9h0.9V239z"/>
	<path d="M284.4,239h-0.9v-6.4h0.9V239z"/>
	<path d="M287.9,237.4l0.1,0.5h0l0.1-0.5l1.7-4.7h0.9l-2.4,6.4h-0.7l-2.4-6.4h0.9L287.9,237.4z"/>
	<path d="M295,237.3l0.1,0.6h0l0.1-0.6l0.9-3h0.7l1,3l0.1,0.7h0l0.1-0.7l0.7-3h0.9l-1.4,4.8h-0.7l-0.9-2.9l-0.2-0.8h0l-0.2,0.8
		l-0.9,2.9h-0.7l-1.4-4.8h0.9L295,237.3z"/>
	<path d="M301.5,234.9c0.2-0.2,0.4-0.4,0.6-0.5c0.2-0.1,0.5-0.2,0.8-0.2c0.5,0,0.9,0.2,1.2,0.5c0.3,0.3,0.4,0.8,0.4,1.4v3h-0.9v-3
		c0-0.4-0.1-0.7-0.3-0.9c-0.2-0.2-0.4-0.3-0.8-0.3c-0.3,0-0.5,0.1-0.7,0.2c-0.2,0.1-0.3,0.2-0.5,0.4v3.6h-0.9v-6.9h0.9V234.9z"/>
	<path d="M305.5,236.6c0-0.7,0.2-1.3,0.6-1.7c0.4-0.5,0.9-0.7,1.6-0.7c0.7,0,1.2,0.2,1.6,0.7c0.4,0.5,0.6,1,0.6,1.7v0.1
		c0,0.7-0.2,1.3-0.6,1.7s-0.9,0.7-1.6,0.7s-1.2-0.2-1.6-0.7C305.7,238,305.5,237.4,305.5,236.6L305.5,236.6z M306.4,236.7
		c0,0.5,0.1,0.9,0.3,1.2s0.5,0.5,0.9,0.5c0.4,0,0.7-0.2,0.9-0.5s0.3-0.7,0.3-1.2v-0.1c0-0.5-0.1-0.9-0.3-1.2
		c-0.2-0.3-0.5-0.5-0.9-0.5c-0.4,0-0.7,0.2-0.9,0.5S306.4,236.1,306.4,236.7L306.4,236.7z"/>
	<path d="M316,239c0-0.1-0.1-0.3-0.1-0.4c0-0.1,0-0.2,0-0.3c-0.2,0.2-0.4,0.4-0.6,0.6c-0.3,0.2-0.5,0.2-0.8,0.2
		c-0.5,0-0.9-0.1-1.1-0.4c-0.3-0.3-0.4-0.6-0.4-1c0-0.5,0.2-0.8,0.6-1.1c0.4-0.3,0.9-0.4,1.5-0.4h0.9v-0.5c0-0.3-0.1-0.5-0.3-0.7
		c-0.2-0.2-0.4-0.2-0.7-0.2c-0.3,0-0.5,0.1-0.7,0.2s-0.3,0.3-0.3,0.5l-0.8,0l0,0c0-0.3,0.1-0.7,0.5-0.9s0.8-0.4,1.3-0.4
		c0.5,0,1,0.1,1.3,0.4c0.3,0.3,0.5,0.7,0.5,1.2v2.3c0,0.2,0,0.3,0,0.5s0,0.3,0.1,0.5H316z M314.6,238.4c0.3,0,0.6-0.1,0.8-0.2
		c0.3-0.2,0.4-0.3,0.5-0.6v-0.8h-1c-0.3,0-0.6,0.1-0.8,0.3c-0.2,0.2-0.3,0.4-0.3,0.6c0,0.2,0.1,0.4,0.2,0.5
		C314.1,238.3,314.3,238.4,314.6,238.4z"/>
	<path d="M319.9,238.5c0.3,0,0.5-0.1,0.7-0.3c0.2-0.2,0.3-0.4,0.3-0.7h0.8l0,0c0,0.4-0.2,0.8-0.5,1.1c-0.4,0.3-0.8,0.5-1.3,0.5
		c-0.7,0-1.2-0.2-1.5-0.7s-0.5-1-0.5-1.7v-0.2c0-0.7,0.2-1.2,0.5-1.7c0.4-0.5,0.9-0.7,1.5-0.7c0.5,0,1,0.2,1.3,0.5s0.5,0.7,0.5,1.2
		l0,0h-0.8c0-0.3-0.1-0.5-0.3-0.7c-0.2-0.2-0.4-0.3-0.7-0.3c-0.4,0-0.7,0.2-0.9,0.5c-0.2,0.3-0.3,0.7-0.3,1.2v0.2
		c0,0.5,0.1,0.9,0.3,1.2C319.2,238.3,319.5,238.5,319.9,238.5z"/>
	<path d="M324.6,238.5c0.3,0,0.5-0.1,0.7-0.3c0.2-0.2,0.3-0.4,0.3-0.7h0.8l0,0c0,0.4-0.2,0.8-0.5,1.1c-0.4,0.3-0.8,0.5-1.3,0.5
		c-0.7,0-1.2-0.2-1.5-0.7s-0.5-1-0.5-1.7v-0.2c0-0.7,0.2-1.2,0.5-1.7c0.4-0.5,0.9-0.7,1.5-0.7c0.5,0,1,0.2,1.3,0.5s0.5,0.7,0.5,1.2
		l0,0h-0.8c0-0.3-0.1-0.5-0.3-0.7c-0.2-0.2-0.4-0.3-0.7-0.3c-0.4,0-0.7,0.2-0.9,0.5c-0.2,0.3-0.3,0.7-0.3,1.2v0.2
		c0,0.5,0.1,0.9,0.3,1.2C323.9,238.3,324.2,238.5,324.6,238.5z"/>
	<path d="M329.4,239.1c-0.7,0-1.2-0.2-1.6-0.7c-0.4-0.4-0.6-1-0.6-1.7v-0.2c0-0.7,0.2-1.2,0.6-1.7c0.4-0.4,0.9-0.7,1.4-0.7
		c0.6,0,1.1,0.2,1.4,0.6c0.3,0.4,0.5,0.9,0.5,1.6v0.5h-3l0,0c0,0.5,0.1,0.9,0.3,1.2c0.2,0.3,0.5,0.4,1,0.4c0.3,0,0.5,0,0.8-0.1
		c0.2-0.1,0.4-0.2,0.6-0.3l0.3,0.6c-0.2,0.2-0.4,0.3-0.7,0.4C330.2,239.1,329.8,239.1,329.4,239.1z M329.3,234.9
		c-0.3,0-0.6,0.1-0.8,0.3c-0.2,0.2-0.3,0.5-0.4,0.9l0,0h2.1v-0.1c0-0.3-0.1-0.6-0.3-0.9S329.6,234.9,329.3,234.9z"/>
	<path d="M334.9,237.8c0-0.2-0.1-0.3-0.2-0.5c-0.1-0.1-0.4-0.2-0.8-0.3c-0.6-0.1-1-0.3-1.3-0.5s-0.5-0.5-0.5-0.9
		c0-0.4,0.2-0.7,0.5-1c0.3-0.3,0.8-0.4,1.3-0.4c0.5,0,1,0.1,1.3,0.4s0.5,0.6,0.5,1l0,0h-0.8c0-0.2-0.1-0.4-0.3-0.6
		c-0.2-0.2-0.4-0.3-0.7-0.3c-0.3,0-0.5,0.1-0.7,0.2c-0.2,0.1-0.2,0.3-0.2,0.5c0,0.2,0.1,0.3,0.2,0.4c0.1,0.1,0.4,0.2,0.8,0.3
		c0.6,0.1,1,0.3,1.3,0.5c0.3,0.2,0.5,0.5,0.5,0.9c0,0.4-0.2,0.8-0.5,1c-0.3,0.3-0.8,0.4-1.3,0.4c-0.6,0-1.1-0.2-1.4-0.5
		c-0.3-0.3-0.5-0.7-0.5-1.1l0,0h0.8c0,0.3,0.1,0.5,0.3,0.7c0.2,0.1,0.5,0.2,0.8,0.2c0.3,0,0.5-0.1,0.7-0.2
		C334.8,238.1,334.9,238,334.9,237.8z"/>
	<path d="M339.6,237.8c0-0.2-0.1-0.3-0.2-0.5c-0.1-0.1-0.4-0.2-0.8-0.3c-0.6-0.1-1-0.3-1.3-0.5c-0.3-0.2-0.5-0.5-0.5-0.9
		c0-0.4,0.2-0.7,0.5-1c0.3-0.3,0.8-0.4,1.3-0.4c0.5,0,1,0.1,1.3,0.4s0.5,0.6,0.5,1l0,0h-0.8c0-0.2-0.1-0.4-0.3-0.6
		c-0.2-0.2-0.4-0.3-0.7-0.3c-0.3,0-0.5,0.1-0.7,0.2c-0.2,0.1-0.2,0.3-0.2,0.5c0,0.2,0.1,0.3,0.2,0.4s0.4,0.2,0.8,0.3
		c0.6,0.1,1,0.3,1.3,0.5s0.5,0.5,0.5,0.9c0,0.4-0.2,0.8-0.5,1s-0.8,0.4-1.3,0.4c-0.6,0-1.1-0.2-1.4-0.5s-0.5-0.7-0.5-1.1l0,0h0.8
		c0,0.3,0.1,0.5,0.3,0.7c0.2,0.1,0.5,0.2,0.8,0.2c0.3,0,0.5-0.1,0.7-0.2C339.6,238.1,339.6,238,339.6,237.8z"/>
	<path d="M345,233.1v1.1h0.9v0.6H345v2.9c0,0.2,0,0.4,0.1,0.5c0.1,0.1,0.2,0.1,0.4,0.1c0,0,0.1,0,0.2,0c0.1,0,0.1,0,0.2,0l0.1,0.6
		c-0.1,0.1-0.2,0.1-0.3,0.1c-0.1,0-0.2,0-0.4,0c-0.4,0-0.6-0.1-0.8-0.3c-0.2-0.2-0.3-0.5-0.3-1v-2.9h-0.8v-0.6h0.8v-1.1H345z"/>
	<path d="M347.7,234.9c0.2-0.2,0.4-0.4,0.6-0.5c0.2-0.1,0.5-0.2,0.8-0.2c0.5,0,0.9,0.2,1.2,0.5c0.3,0.3,0.4,0.8,0.4,1.4v3h-0.9v-3
		c0-0.4-0.1-0.7-0.3-0.9c-0.2-0.2-0.4-0.3-0.8-0.3c-0.3,0-0.5,0.1-0.7,0.2c-0.2,0.1-0.3,0.2-0.5,0.4v3.6h-0.9v-6.9h0.9V234.9z"/>
	<path d="M353.9,239.1c-0.7,0-1.2-0.2-1.6-0.7c-0.4-0.4-0.6-1-0.6-1.7v-0.2c0-0.7,0.2-1.2,0.6-1.7c0.4-0.4,0.9-0.7,1.4-0.7
		c0.6,0,1.1,0.2,1.4,0.6c0.3,0.4,0.5,0.9,0.5,1.6v0.5h-3l0,0c0,0.5,0.1,0.9,0.3,1.2c0.2,0.3,0.5,0.4,1,0.4c0.3,0,0.5,0,0.8-0.1
		c0.2-0.1,0.4-0.2,0.6-0.3l0.3,0.6c-0.2,0.2-0.4,0.3-0.7,0.4C354.7,239.1,354.3,239.1,353.9,239.1z M353.8,234.9
		c-0.3,0-0.6,0.1-0.7,0.3c-0.2,0.2-0.3,0.5-0.4,0.9l0,0h2.1v-0.1c0-0.3-0.1-0.6-0.3-0.9S354.2,234.9,353.8,234.9z"/>
	<path d="M360.1,233.1v1.1h0.9v0.6h-0.9v2.9c0,0.2,0,0.4,0.1,0.5c0.1,0.1,0.2,0.1,0.4,0.1c0.1,0,0.1,0,0.2,0c0.1,0,0.1,0,0.2,0
		l0.1,0.6c-0.1,0.1-0.2,0.1-0.3,0.1c-0.1,0-0.2,0-0.4,0c-0.4,0-0.6-0.1-0.8-0.3c-0.2-0.2-0.3-0.5-0.3-1v-2.9h-0.8v-0.6h0.8v-1.1
		H360.1z"/>
</g>
<g class="st3">
	<path d="M364.2,235l-0.4,0c-0.2,0-0.4,0.1-0.6,0.2c-0.2,0.1-0.3,0.3-0.4,0.5v3.4h-0.9v-4.8h0.8l0.1,0.7c0.1-0.2,0.3-0.4,0.5-0.6
		c0.2-0.1,0.4-0.2,0.7-0.2c0.1,0,0.1,0,0.2,0c0.1,0,0.1,0,0.1,0L364.2,235z"/>
</g>
<g class="st3">
	<path d="M367,239.1c-0.7,0-1.2-0.2-1.6-0.7c-0.4-0.4-0.6-1-0.6-1.7v-0.2c0-0.7,0.2-1.2,0.6-1.7c0.4-0.4,0.9-0.7,1.4-0.7
		c0.6,0,1.1,0.2,1.4,0.6c0.3,0.4,0.5,0.9,0.5,1.6v0.5h-3l0,0c0,0.5,0.1,0.9,0.3,1.2c0.2,0.3,0.5,0.4,1,0.4c0.3,0,0.5,0,0.8-0.1
		c0.2-0.1,0.4-0.2,0.6-0.3l0.3,0.6c-0.2,0.2-0.4,0.3-0.7,0.4C367.7,239.1,367.4,239.1,367,239.1z M366.9,234.9
		c-0.3,0-0.6,0.1-0.7,0.3c-0.2,0.2-0.3,0.5-0.4,0.9l0,0h2.1v-0.1c0-0.3-0.1-0.6-0.3-0.9S367.2,234.9,366.9,234.9z"/>
	<path d="M372.7,239c0-0.1-0.1-0.3-0.1-0.4c0-0.1,0-0.2,0-0.3c-0.2,0.2-0.4,0.4-0.6,0.6c-0.3,0.2-0.5,0.2-0.8,0.2
		c-0.5,0-0.9-0.1-1.1-0.4c-0.3-0.3-0.4-0.6-0.4-1c0-0.5,0.2-0.8,0.6-1.1c0.4-0.3,0.9-0.4,1.5-0.4h0.9v-0.5c0-0.3-0.1-0.5-0.3-0.7
		c-0.2-0.2-0.4-0.2-0.7-0.2c-0.3,0-0.5,0.1-0.7,0.2s-0.3,0.3-0.3,0.5l-0.8,0l0,0c0-0.3,0.1-0.7,0.5-0.9c0.3-0.3,0.8-0.4,1.3-0.4
		c0.5,0,1,0.1,1.3,0.4c0.3,0.3,0.5,0.7,0.5,1.2v2.3c0,0.2,0,0.3,0,0.5s0,0.3,0.1,0.5H372.7z M371.2,238.4c0.3,0,0.6-0.1,0.8-0.2
		c0.3-0.2,0.4-0.3,0.5-0.6v-0.8h-1c-0.3,0-0.6,0.1-0.8,0.3c-0.2,0.2-0.3,0.4-0.3,0.6c0,0.2,0.1,0.4,0.2,0.5S371,238.4,371.2,238.4z"
		/>
	<path d="M375.9,233.1v1.1h0.9v0.6h-0.9v2.9c0,0.2,0,0.4,0.1,0.5c0.1,0.1,0.2,0.1,0.4,0.1c0,0,0.1,0,0.2,0c0.1,0,0.1,0,0.2,0
		l0.1,0.6c-0.1,0.1-0.2,0.1-0.3,0.1c-0.1,0-0.3,0-0.4,0c-0.4,0-0.6-0.1-0.8-0.3c-0.2-0.2-0.3-0.5-0.3-1v-2.9h-0.8v-0.6h0.8v-1.1
		H375.9z"/>
	<path d="M378.5,234.3l0.1,0.6c0.2-0.2,0.4-0.4,0.6-0.5c0.2-0.1,0.5-0.2,0.8-0.2s0.6,0.1,0.8,0.2c0.2,0.1,0.4,0.4,0.5,0.7
		c0.2-0.3,0.4-0.5,0.6-0.6c0.2-0.2,0.5-0.2,0.9-0.2c0.5,0,0.9,0.2,1.1,0.5c0.3,0.3,0.4,0.8,0.4,1.5v2.8h-0.9v-2.9
		c0-0.5-0.1-0.8-0.2-1c-0.2-0.2-0.4-0.3-0.7-0.3c-0.3,0-0.5,0.1-0.7,0.3c-0.2,0.2-0.3,0.5-0.3,0.8v0v3h-0.9v-2.9
		c0-0.4-0.1-0.8-0.2-1c-0.2-0.2-0.4-0.3-0.7-0.3c-0.3,0-0.5,0.1-0.7,0.2s-0.3,0.3-0.4,0.5v3.5h-0.9v-4.8H378.5z"/>
	<path d="M387.5,239.1c-0.7,0-1.2-0.2-1.6-0.7c-0.4-0.4-0.6-1-0.6-1.7v-0.2c0-0.7,0.2-1.2,0.6-1.7c0.4-0.4,0.9-0.7,1.4-0.7
		c0.6,0,1.1,0.2,1.4,0.6c0.3,0.4,0.5,0.9,0.5,1.6v0.5h-3l0,0c0,0.5,0.1,0.9,0.3,1.2c0.2,0.3,0.5,0.4,1,0.4c0.3,0,0.5,0,0.8-0.1
		c0.2-0.1,0.4-0.2,0.6-0.3l0.3,0.6c-0.2,0.2-0.4,0.3-0.7,0.4C388.3,239.1,387.9,239.1,387.5,239.1z M387.4,234.9
		c-0.3,0-0.6,0.1-0.7,0.3c-0.2,0.2-0.3,0.5-0.4,0.9l0,0h2.1v-0.1c0-0.3-0.1-0.6-0.3-0.9S387.8,234.9,387.4,234.9z"/>
	<path d="M391.1,234.3l0.1,0.7c0.2-0.3,0.4-0.4,0.6-0.6c0.2-0.1,0.5-0.2,0.8-0.2c0.5,0,0.9,0.2,1.2,0.5c0.3,0.3,0.4,0.8,0.4,1.4v3
		h-0.9v-3c0-0.4-0.1-0.7-0.2-0.9c-0.2-0.2-0.4-0.3-0.8-0.3c-0.3,0-0.5,0.1-0.7,0.2c-0.2,0.1-0.3,0.3-0.4,0.5v3.5h-0.9v-4.8H391.1z"
		/>
	<path d="M396.6,233.1v1.1h0.9v0.6h-0.9v2.9c0,0.2,0,0.4,0.1,0.5c0.1,0.1,0.2,0.1,0.4,0.1c0,0,0.1,0,0.2,0c0.1,0,0.1,0,0.2,0
		l0.1,0.6c-0.1,0.1-0.2,0.1-0.3,0.1c-0.1,0-0.3,0-0.4,0c-0.4,0-0.6-0.1-0.8-0.3c-0.2-0.2-0.3-0.5-0.3-1v-2.9H395v-0.6h0.8v-1.1
		H396.6z"/>
</g>
<path class="st5" d="M167.2,259.9l1.1-1.1l0,0l4.3-4.3l-4.3-4.3l0,0l-1.1-1.1l-5.5,5.5L167.2,259.9z M163.2,253.7l0.8,0.8l-0.8,0.8
	l-0.8-0.8L163.2,253.7z M171.2,255.2l-0.8-0.8l0.8-0.8l0.8,0.8L171.2,255.2z M168,258.4L168,258.4l-0.8,0.8l-1.8-1.8l1.4-1.4
	l-1.5-1.5l-1.1,1.1l0.7,0.7l0.4-0.4l-0.4-0.4l0.4-0.4l0.8,0.8l-1.1,1.1l-1.5-1.5l1.1-1.1l-1.1-1.1l1.5-1.5l1.1,1.1l-0.8,0.8
	l-0.4-0.4l0.4-0.4l-0.4-0.4l-0.7,0.7l1.1,1.1l1.5-1.4l-1.4-1.4l1-1l0,0l0.8-0.8l0.8,0.8l0,0l1,1l-1.4,1.4l1.5,1.4l1.1-1.1l-0.7-0.7
	l-0.4,0.4l0.4,0.4l-0.4,0.4l-0.8-0.8l1.1-1.1l1.5,1.5l-1.1,1.1l1.1,1.1l-1.5,1.5l-1.1-1.1l0.8-0.8l0.4,0.4L169,256l0.4,0.4l0.7-0.7
	l-1.1-1.1l-1.4,1.4l1.4,1.4L168,258.4z"/>
<rect x="166.4" y="256.5" transform="matrix(0.7071 -0.7071 0.7071 0.7071 -133.0114 193.6448)" class="st5" width="1.7" height="1.7"/>
<rect x="166.4" y="250.5" transform="matrix(0.7071 -0.7071 0.7071 0.7071 -128.7853 191.8988)" class="st5" width="1.7" height="1.7"/>
<g class="st3">
	<path d="M180.1,254.4v2.6h-0.9v-6.4h2.4c0.7,0,1.2,0.2,1.6,0.5c0.4,0.4,0.6,0.8,0.6,1.4c0,0.6-0.2,1-0.6,1.4
		c-0.4,0.3-0.9,0.5-1.6,0.5H180.1z M180.1,253.7h1.6c0.4,0,0.8-0.1,1-0.3c0.2-0.2,0.3-0.5,0.3-0.9s-0.1-0.7-0.3-0.9
		c-0.2-0.2-0.5-0.4-1-0.4h-1.6V253.7z"/>
	<path d="M185.8,256.3h3.1v0.7h-4v-6.4h0.9V256.3z"/>
	<path d="M194.7,257h-0.9v-2.8h-3.1v2.8h-0.9v-6.4h0.9v2.9h3.1v-2.9h0.9V257z"/>
	<path d="M197.2,257h-0.9v-6.4h0.9V257z"/>
	<path d="M200.7,255.3l0.1,0.5h0l0.1-0.5l1.7-4.7h0.9l-2.4,6.4h-0.7l-2.4-6.4h0.9L200.7,255.3z"/>
	<path d="M207.8,255.2l0.1,0.6h0l0.1-0.6l0.9-3h0.7l1,3l0.1,0.7h0l0.1-0.7l0.7-3h0.9l-1.4,4.8h-0.7l-0.9-2.9l-0.2-0.8h0l-0.2,0.8
		l-0.9,2.9h-0.7l-1.4-4.8h0.9L207.8,255.2z"/>
	<path d="M214.3,252.8c0.2-0.2,0.4-0.4,0.6-0.5c0.2-0.1,0.5-0.2,0.8-0.2c0.5,0,0.9,0.2,1.2,0.5c0.3,0.3,0.4,0.8,0.4,1.4v3h-0.9v-3
		c0-0.4-0.1-0.7-0.3-0.9c-0.2-0.2-0.4-0.3-0.8-0.3c-0.3,0-0.5,0.1-0.7,0.2c-0.2,0.1-0.3,0.2-0.5,0.4v3.6h-0.9v-6.9h0.9V252.8z"/>
	<path d="M218.3,254.5c0-0.7,0.2-1.3,0.6-1.7c0.4-0.5,0.9-0.7,1.6-0.7c0.7,0,1.2,0.2,1.6,0.7c0.4,0.5,0.6,1,0.6,1.7v0.1
		c0,0.7-0.2,1.3-0.6,1.7s-0.9,0.7-1.6,0.7s-1.2-0.2-1.6-0.7C218.5,255.9,218.3,255.3,218.3,254.5L218.3,254.5z M219.2,254.6
		c0,0.5,0.1,0.9,0.3,1.2s0.5,0.5,0.9,0.5c0.4,0,0.7-0.2,0.9-0.5s0.3-0.7,0.3-1.2v-0.1c0-0.5-0.1-0.9-0.3-1.2
		c-0.2-0.3-0.5-0.5-0.9-0.5c-0.4,0-0.7,0.2-0.9,0.5S219.2,254,219.2,254.6L219.2,254.6z"/>
	<path d="M226.7,252.8c0.2-0.2,0.4-0.4,0.6-0.5c0.2-0.1,0.5-0.2,0.8-0.2c0.5,0,0.9,0.2,1.2,0.5c0.3,0.3,0.4,0.8,0.4,1.4v3h-0.9v-3
		c0-0.4-0.1-0.7-0.3-0.9c-0.2-0.2-0.4-0.3-0.8-0.3c-0.3,0-0.5,0.1-0.7,0.2c-0.2,0.1-0.3,0.2-0.5,0.4v3.6h-0.9v-6.9h0.9V252.8z"/>
</g>
<g class="st3">
	<path d="M233.9,257c0-0.1-0.1-0.3-0.1-0.4c0-0.1,0-0.2,0-0.3c-0.2,0.2-0.4,0.4-0.6,0.6c-0.3,0.2-0.5,0.2-0.8,0.2
		c-0.5,0-0.9-0.1-1.1-0.4c-0.3-0.3-0.4-0.6-0.4-1c0-0.5,0.2-0.8,0.6-1.1c0.4-0.3,0.9-0.4,1.5-0.4h0.9v-0.5c0-0.3-0.1-0.5-0.3-0.7
		c-0.2-0.2-0.4-0.2-0.7-0.2c-0.3,0-0.5,0.1-0.7,0.2s-0.3,0.3-0.3,0.5l-0.8,0l0,0c0-0.3,0.1-0.7,0.5-0.9c0.3-0.3,0.8-0.4,1.3-0.4
		c0.5,0,1,0.1,1.3,0.4c0.3,0.3,0.5,0.7,0.5,1.2v2.3c0,0.2,0,0.3,0,0.5s0,0.3,0.1,0.5H233.9z M232.5,256.3c0.3,0,0.6-0.1,0.8-0.2
		c0.3-0.2,0.4-0.3,0.5-0.6v-0.8h-1c-0.3,0-0.6,0.1-0.8,0.3s-0.3,0.4-0.3,0.6c0,0.2,0.1,0.4,0.2,0.5S232.2,256.3,232.5,256.3z"/>
</g>
<g class="st3">
	<path d="M237.4,255.6l0.1,0.3h0l0.1-0.3l1.1-3.4h0.9l-1.7,4.8h-0.7l-1.8-4.8h0.9L237.4,255.6z"/>
</g>
<g class="st3">
	<path d="M242.3,257.1c-0.7,0-1.2-0.2-1.6-0.7c-0.4-0.4-0.6-1-0.6-1.7v-0.2c0-0.7,0.2-1.2,0.6-1.7c0.4-0.4,0.9-0.7,1.4-0.7
		c0.6,0,1.1,0.2,1.4,0.6c0.3,0.4,0.5,0.9,0.5,1.6v0.5h-3l0,0c0,0.5,0.1,0.9,0.3,1.2c0.2,0.3,0.5,0.4,1,0.4c0.3,0,0.5,0,0.8-0.1
		c0.2-0.1,0.4-0.2,0.6-0.3l0.3,0.6c-0.2,0.2-0.4,0.3-0.7,0.4C243,257,242.7,257.1,242.3,257.1z M242.2,252.8c-0.3,0-0.6,0.1-0.7,0.3
		c-0.2,0.2-0.3,0.5-0.4,0.9l0,0h2.1V254c0-0.3-0.1-0.6-0.3-0.9S242.5,252.8,242.2,252.8z"/>
	<path d="M250.2,257c0-0.1-0.1-0.3-0.1-0.4c0-0.1,0-0.2,0-0.3c-0.2,0.2-0.4,0.4-0.6,0.6c-0.3,0.2-0.5,0.2-0.8,0.2
		c-0.5,0-0.9-0.1-1.1-0.4c-0.3-0.3-0.4-0.6-0.4-1c0-0.5,0.2-0.8,0.6-1.1c0.4-0.3,0.9-0.4,1.5-0.4h0.9v-0.5c0-0.3-0.1-0.5-0.3-0.7
		c-0.2-0.2-0.4-0.2-0.7-0.2c-0.3,0-0.5,0.1-0.7,0.2s-0.3,0.3-0.3,0.5l-0.8,0l0,0c0-0.3,0.1-0.7,0.5-0.9c0.3-0.3,0.8-0.4,1.3-0.4
		c0.5,0,1,0.1,1.3,0.4c0.3,0.3,0.5,0.7,0.5,1.2v2.3c0,0.2,0,0.3,0,0.5s0,0.3,0.1,0.5H250.2z M248.8,256.3c0.3,0,0.6-0.1,0.8-0.2
		c0.3-0.2,0.4-0.3,0.5-0.6v-0.8h-1c-0.3,0-0.6,0.1-0.8,0.3s-0.3,0.4-0.3,0.6c0,0.2,0.1,0.4,0.2,0.5S248.5,256.3,248.8,256.3z"/>
	<path d="M257.2,255.7c0-0.2-0.1-0.3-0.2-0.5c-0.1-0.1-0.4-0.2-0.8-0.3c-0.6-0.1-1-0.3-1.3-0.5c-0.3-0.2-0.5-0.5-0.5-0.9
		c0-0.4,0.2-0.7,0.5-1c0.3-0.3,0.8-0.4,1.3-0.4c0.5,0,1,0.1,1.3,0.4s0.5,0.6,0.5,1l0,0h-0.8c0-0.2-0.1-0.4-0.3-0.6
		c-0.2-0.2-0.4-0.3-0.7-0.3c-0.3,0-0.5,0.1-0.7,0.2c-0.2,0.1-0.2,0.3-0.2,0.5c0,0.2,0.1,0.3,0.2,0.4c0.1,0.1,0.4,0.2,0.8,0.3
		c0.6,0.1,1,0.3,1.3,0.5s0.5,0.5,0.5,0.9c0,0.4-0.2,0.8-0.5,1c-0.3,0.3-0.8,0.4-1.3,0.4c-0.6,0-1.1-0.2-1.4-0.5s-0.5-0.7-0.5-1.1
		l0,0h0.8c0,0.3,0.1,0.5,0.3,0.7c0.2,0.1,0.5,0.2,0.8,0.2c0.3,0,0.5-0.1,0.7-0.2C257.1,256,257.2,255.9,257.2,255.7z"/>
	<path d="M262.2,256.3c-0.1,0.3-0.3,0.5-0.6,0.6s-0.5,0.2-0.8,0.2c-0.5,0-0.9-0.2-1.2-0.5s-0.4-0.8-0.4-1.5v-2.8h0.9v2.8
		c0,0.5,0.1,0.9,0.2,1s0.4,0.3,0.7,0.3c0.3,0,0.6-0.1,0.8-0.2c0.2-0.1,0.4-0.3,0.5-0.5v-3.4h0.9v4.8h-0.8L262.2,256.3z"/>
	<path d="M268.3,254.8c0,0.7-0.2,1.2-0.5,1.7c-0.3,0.4-0.8,0.6-1.4,0.6c-0.3,0-0.5,0-0.8-0.1c-0.2-0.1-0.4-0.2-0.6-0.4v2.3h-0.9
		v-6.6h0.7l0.1,0.6c0.2-0.2,0.3-0.4,0.6-0.5s0.5-0.2,0.8-0.2c0.6,0,1,0.2,1.4,0.7C268.2,253.3,268.3,253.9,268.3,254.8L268.3,254.8z
		 M267.5,254.7c0-0.5-0.1-1-0.3-1.3c-0.2-0.3-0.5-0.5-0.9-0.5c-0.2,0-0.5,0.1-0.6,0.2c-0.2,0.1-0.3,0.3-0.4,0.5v2.3
		c0.1,0.2,0.3,0.3,0.4,0.5c0.2,0.1,0.4,0.2,0.6,0.2c0.4,0,0.7-0.2,0.9-0.5C267.4,255.6,267.5,255.2,267.5,254.7L267.5,254.7z"/>
	<path d="M273.5,254.8c0,0.7-0.2,1.2-0.5,1.7c-0.3,0.4-0.8,0.6-1.4,0.6c-0.3,0-0.5,0-0.8-0.1c-0.2-0.1-0.4-0.2-0.6-0.4v2.3h-0.9
		v-6.6h0.7l0.1,0.6c0.2-0.2,0.3-0.4,0.6-0.5s0.5-0.2,0.8-0.2c0.6,0,1,0.2,1.4,0.7C273.3,253.3,273.5,253.9,273.5,254.8L273.5,254.8z
		 M272.6,254.7c0-0.5-0.1-1-0.3-1.3c-0.2-0.3-0.5-0.5-0.9-0.5c-0.2,0-0.5,0.1-0.6,0.2c-0.2,0.1-0.3,0.3-0.4,0.5v2.3
		c0.1,0.2,0.3,0.3,0.4,0.5c0.2,0.1,0.4,0.2,0.6,0.2c0.4,0,0.7-0.2,0.9-0.5C272.5,255.6,272.6,255.2,272.6,254.7L272.6,254.7z"/>
</g>
<g class="st3">
	<path d="M276.8,253l-0.4,0c-0.2,0-0.4,0.1-0.6,0.2c-0.2,0.1-0.3,0.3-0.4,0.5v3.4h-0.9v-4.8h0.8l0.1,0.7c0.1-0.2,0.3-0.4,0.5-0.6
		c0.2-0.1,0.4-0.2,0.7-0.2c0.1,0,0.1,0,0.2,0c0.1,0,0.1,0,0.1,0L276.8,253z"/>
</g>
<g class="st3">
	<path d="M279.5,257.1c-0.7,0-1.2-0.2-1.6-0.7c-0.4-0.4-0.6-1-0.6-1.7v-0.2c0-0.7,0.2-1.2,0.6-1.7c0.4-0.4,0.9-0.7,1.4-0.7
		c0.6,0,1.1,0.2,1.4,0.6c0.3,0.4,0.5,0.9,0.5,1.6v0.5h-3l0,0c0,0.5,0.1,0.9,0.3,1.2c0.2,0.3,0.5,0.4,1,0.4c0.3,0,0.5,0,0.8-0.1
		c0.2-0.1,0.4-0.2,0.6-0.3l0.3,0.6c-0.2,0.2-0.4,0.3-0.7,0.4C280.3,257,279.9,257.1,279.5,257.1z M279.4,252.8
		c-0.3,0-0.6,0.1-0.7,0.3c-0.2,0.2-0.3,0.5-0.4,0.9l0,0h2.1V254c0-0.3-0.1-0.6-0.3-0.9S279.8,252.8,279.4,252.8z"/>
	<path d="M285.1,255.7c0-0.2-0.1-0.3-0.2-0.5c-0.1-0.1-0.4-0.2-0.8-0.3c-0.6-0.1-1-0.3-1.3-0.5c-0.3-0.2-0.5-0.5-0.5-0.9
		c0-0.4,0.2-0.7,0.5-1c0.3-0.3,0.8-0.4,1.3-0.4c0.5,0,1,0.1,1.3,0.4s0.5,0.6,0.5,1l0,0H285c0-0.2-0.1-0.4-0.3-0.6
		c-0.2-0.2-0.4-0.3-0.7-0.3c-0.3,0-0.5,0.1-0.7,0.2c-0.2,0.1-0.2,0.3-0.2,0.5c0,0.2,0.1,0.3,0.2,0.4c0.1,0.1,0.4,0.2,0.8,0.3
		c0.6,0.1,1,0.3,1.3,0.5s0.5,0.5,0.5,0.9c0,0.4-0.2,0.8-0.5,1c-0.3,0.3-0.8,0.4-1.3,0.4c-0.6,0-1.1-0.2-1.4-0.5s-0.5-0.7-0.5-1.1
		l0,0h0.8c0,0.3,0.1,0.5,0.3,0.7c0.2,0.1,0.5,0.2,0.8,0.2c0.3,0,0.5-0.1,0.7-0.2C285,256,285.1,255.9,285.1,255.7z"/>
	<path d="M289.8,255.7c0-0.2-0.1-0.3-0.2-0.5c-0.1-0.1-0.4-0.2-0.8-0.3c-0.6-0.1-1-0.3-1.3-0.5c-0.3-0.2-0.5-0.5-0.5-0.9
		c0-0.4,0.2-0.7,0.5-1c0.3-0.3,0.8-0.4,1.3-0.4c0.5,0,1,0.1,1.3,0.4s0.5,0.6,0.5,1l0,0h-0.8c0-0.2-0.1-0.4-0.3-0.6
		c-0.2-0.2-0.4-0.3-0.7-0.3c-0.3,0-0.5,0.1-0.7,0.2c-0.2,0.1-0.2,0.3-0.2,0.5c0,0.2,0.1,0.3,0.2,0.4c0.1,0.1,0.4,0.2,0.8,0.3
		c0.6,0.1,1,0.3,1.3,0.5s0.5,0.5,0.5,0.9c0,0.4-0.2,0.8-0.5,1c-0.3,0.3-0.8,0.4-1.3,0.4c-0.6,0-1.1-0.2-1.4-0.5s-0.5-0.7-0.5-1.1
		l0,0h0.8c0,0.3,0.1,0.5,0.3,0.7c0.2,0.1,0.5,0.2,0.8,0.2c0.3,0,0.5-0.1,0.7-0.2C289.7,256,289.8,255.9,289.8,255.7z"/>
	<path d="M293.7,257.1c-0.7,0-1.2-0.2-1.6-0.7c-0.4-0.4-0.6-1-0.6-1.7v-0.2c0-0.7,0.2-1.2,0.6-1.7c0.4-0.4,0.9-0.7,1.4-0.7
		c0.6,0,1.1,0.2,1.4,0.6c0.3,0.4,0.5,0.9,0.5,1.6v0.5h-3l0,0c0,0.5,0.1,0.9,0.3,1.2c0.2,0.3,0.5,0.4,1,0.4c0.3,0,0.5,0,0.8-0.1
		c0.2-0.1,0.4-0.2,0.6-0.3l0.3,0.6c-0.2,0.2-0.4,0.3-0.7,0.4C294.4,257,294.1,257.1,293.7,257.1z M293.5,252.8
		c-0.3,0-0.6,0.1-0.7,0.3c-0.2,0.2-0.3,0.5-0.4,0.9l0,0h2.1V254c0-0.3-0.1-0.6-0.3-0.9S293.9,252.8,293.5,252.8z"/>
	<path d="M296.2,254.7c0-0.8,0.2-1.4,0.5-1.9c0.3-0.5,0.8-0.7,1.4-0.7c0.3,0,0.5,0.1,0.7,0.2c0.2,0.1,0.4,0.3,0.6,0.4v-2.6h0.9v6.9
		h-0.7l-0.1-0.6c-0.2,0.2-0.3,0.4-0.6,0.5c-0.2,0.1-0.5,0.2-0.8,0.2c-0.6,0-1-0.2-1.4-0.6C296.4,256,296.2,255.4,296.2,254.7
		L296.2,254.7z M297.1,254.8c0,0.5,0.1,0.9,0.3,1.2c0.2,0.3,0.5,0.4,0.9,0.4c0.3,0,0.5-0.1,0.7-0.2c0.2-0.1,0.3-0.3,0.4-0.5v-2.2
		c-0.1-0.2-0.3-0.4-0.4-0.5c-0.2-0.1-0.4-0.2-0.6-0.2c-0.4,0-0.7,0.2-0.9,0.5C297.2,253.7,297.1,254.1,297.1,254.8L297.1,254.8z"/>
	<path d="M305.4,255.6l0.1,0.3h0l0.1-0.3l1.1-3.4h0.9l-1.7,4.8h-0.7l-1.8-4.8h0.9L305.4,255.6z"/>
	<path d="M309.2,251h-0.9v-0.9h0.9V251z M309.2,257h-0.9v-4.8h0.9V257z"/>
	<path d="M312.8,253l-0.4,0c-0.2,0-0.4,0.1-0.6,0.2c-0.2,0.1-0.3,0.3-0.4,0.5v3.4h-0.9v-4.8h0.8l0.1,0.7c0.1-0.2,0.3-0.4,0.5-0.6
		c0.2-0.1,0.4-0.2,0.7-0.2c0.1,0,0.1,0,0.2,0c0.1,0,0.1,0,0.1,0L312.8,253z"/>
	<path d="M316.6,257c0-0.1-0.1-0.3-0.1-0.4c0-0.1,0-0.2,0-0.3c-0.2,0.2-0.4,0.4-0.6,0.6c-0.3,0.2-0.5,0.2-0.8,0.2
		c-0.5,0-0.9-0.1-1.1-0.4c-0.3-0.3-0.4-0.6-0.4-1c0-0.5,0.2-0.8,0.6-1.1c0.4-0.3,0.9-0.4,1.5-0.4h0.9v-0.5c0-0.3-0.1-0.5-0.3-0.7
		c-0.2-0.2-0.4-0.2-0.7-0.2c-0.3,0-0.5,0.1-0.7,0.2s-0.3,0.3-0.3,0.5l-0.8,0l0,0c0-0.3,0.1-0.7,0.5-0.9c0.3-0.3,0.8-0.4,1.3-0.4
		c0.5,0,1,0.1,1.3,0.4c0.3,0.3,0.5,0.7,0.5,1.2v2.3c0,0.2,0,0.3,0,0.5s0,0.3,0.1,0.5H316.6z M315.2,256.3c0.3,0,0.6-0.1,0.8-0.2
		c0.3-0.2,0.4-0.3,0.5-0.6v-0.8h-1c-0.3,0-0.6,0.1-0.8,0.3c-0.2,0.2-0.3,0.4-0.3,0.6c0,0.2,0.1,0.4,0.2,0.5S314.9,256.3,315.2,256.3
		z"/>
	<path d="M319.6,257h-0.9v-6.9h0.9V257z"/>
	<path d="M324.1,257h-0.9v-6.9h0.9V257z"/>
	<path d="M325.2,254.5c0-0.7,0.2-1.3,0.6-1.7c0.4-0.5,0.9-0.7,1.6-0.7c0.7,0,1.2,0.2,1.6,0.7c0.4,0.5,0.6,1,0.6,1.7v0.1
		c0,0.7-0.2,1.3-0.6,1.7s-0.9,0.7-1.6,0.7s-1.2-0.2-1.6-0.7C325.4,255.9,325.2,255.3,325.2,254.5L325.2,254.5z M326.1,254.6
		c0,0.5,0.1,0.9,0.3,1.2c0.2,0.3,0.5,0.5,0.9,0.5c0.4,0,0.7-0.2,0.9-0.5s0.3-0.7,0.3-1.2v-0.1c0-0.5-0.1-0.9-0.3-1.2
		c-0.2-0.3-0.5-0.5-0.9-0.5c-0.4,0-0.7,0.2-0.9,0.5C326.2,253.6,326.1,254,326.1,254.6L326.1,254.6z"/>
	<path d="M333.5,257c0-0.1-0.1-0.3-0.1-0.4c0-0.1,0-0.2,0-0.3c-0.2,0.2-0.4,0.4-0.6,0.6c-0.3,0.2-0.5,0.2-0.8,0.2
		c-0.5,0-0.9-0.1-1.1-0.4c-0.3-0.3-0.4-0.6-0.4-1c0-0.5,0.2-0.8,0.6-1.1c0.4-0.3,0.9-0.4,1.5-0.4h0.9v-0.5c0-0.3-0.1-0.5-0.3-0.7
		c-0.2-0.2-0.4-0.2-0.7-0.2c-0.3,0-0.5,0.1-0.7,0.2s-0.3,0.3-0.3,0.5l-0.8,0l0,0c0-0.3,0.1-0.7,0.5-0.9c0.3-0.3,0.8-0.4,1.3-0.4
		c0.5,0,1,0.1,1.3,0.4c0.3,0.3,0.5,0.7,0.5,1.2v2.3c0,0.2,0,0.3,0,0.5s0,0.3,0.1,0.5H333.5z M332,256.3c0.3,0,0.6-0.1,0.8-0.2
		c0.3-0.2,0.4-0.3,0.5-0.6v-0.8h-1c-0.3,0-0.6,0.1-0.8,0.3c-0.2,0.2-0.3,0.4-0.3,0.6c0,0.2,0.1,0.4,0.2,0.5S331.8,256.3,332,256.3z"
		/>
	<path d="M335.3,254.7c0-0.8,0.2-1.4,0.5-1.9c0.3-0.5,0.8-0.7,1.4-0.7c0.3,0,0.5,0.1,0.7,0.2c0.2,0.1,0.4,0.3,0.6,0.4v-2.6h0.9v6.9
		h-0.7l-0.1-0.6c-0.2,0.2-0.3,0.4-0.6,0.5c-0.2,0.1-0.5,0.2-0.8,0.2c-0.6,0-1-0.2-1.4-0.6C335.5,256,335.3,255.4,335.3,254.7
		L335.3,254.7z M336.2,254.8c0,0.5,0.1,0.9,0.3,1.2c0.2,0.3,0.5,0.4,0.9,0.4c0.3,0,0.5-0.1,0.7-0.2c0.2-0.1,0.3-0.3,0.4-0.5v-2.2
		c-0.1-0.2-0.3-0.4-0.4-0.5c-0.2-0.1-0.4-0.2-0.6-0.2c-0.4,0-0.7,0.2-0.9,0.5C336.3,253.7,336.2,254.1,336.2,254.8L336.2,254.8z"/>
</g>
<g class="st3">
	<path d="M186.3,224h-4v-0.6l2-2.4c0.4-0.4,0.6-0.8,0.7-1c0.1-0.3,0.2-0.5,0.2-0.8c0-0.3-0.1-0.5-0.3-0.7c-0.2-0.2-0.4-0.3-0.7-0.3
		c-0.4,0-0.7,0.1-0.9,0.3c-0.2,0.2-0.3,0.5-0.3,0.9h-0.8l0,0c0-0.5,0.2-1,0.5-1.3c0.4-0.4,0.9-0.5,1.5-0.5c0.6,0,1,0.2,1.3,0.5
		s0.5,0.7,0.5,1.2c0,0.3-0.1,0.7-0.3,1c-0.2,0.3-0.5,0.7-0.9,1.2l-1.6,1.9l0,0h2.9V224z"/>
	<path d="M191.3,221.8c0,0.7-0.2,1.3-0.6,1.7s-0.9,0.6-1.5,0.6c-0.6,0-1.1-0.2-1.5-0.6c-0.4-0.4-0.6-1-0.6-1.7v-1.9
		c0-0.7,0.2-1.3,0.6-1.7s0.9-0.6,1.5-0.6c0.6,0,1.1,0.2,1.5,0.6c0.4,0.4,0.6,1,0.6,1.7V221.8z M190.4,219.7c0-0.5-0.1-0.8-0.3-1.1
		c-0.2-0.3-0.5-0.4-0.9-0.4c-0.4,0-0.7,0.1-0.9,0.4c-0.2,0.3-0.3,0.6-0.3,1.1v2.2c0,0.5,0.1,0.8,0.3,1.1c0.2,0.3,0.5,0.4,0.9,0.4
		c0.4,0,0.7-0.1,0.9-0.4c0.2-0.3,0.3-0.6,0.3-1.1V219.7z"/>
	<path d="M196.4,224h-4v-0.6l2-2.4c0.4-0.4,0.6-0.8,0.7-1c0.1-0.3,0.2-0.5,0.2-0.8c0-0.3-0.1-0.5-0.3-0.7c-0.2-0.2-0.4-0.3-0.7-0.3
		c-0.4,0-0.7,0.1-0.9,0.3c-0.2,0.2-0.3,0.5-0.3,0.9h-0.8l0,0c0-0.5,0.2-1,0.5-1.3c0.4-0.4,0.9-0.5,1.5-0.5c0.6,0,1,0.2,1.3,0.5
		s0.5,0.7,0.5,1.2c0,0.3-0.1,0.7-0.3,1c-0.2,0.3-0.5,0.7-0.9,1.2l-1.6,1.9l0,0h2.9V224z"/>
	<path d="M201.4,221.8c0,0.7-0.2,1.3-0.6,1.7s-0.9,0.6-1.5,0.6c-0.6,0-1.1-0.2-1.5-0.6c-0.4-0.4-0.6-1-0.6-1.7v-1.9
		c0-0.7,0.2-1.3,0.6-1.7s0.9-0.6,1.5-0.6c0.6,0,1.1,0.2,1.5,0.6c0.4,0.4,0.6,1,0.6,1.7V221.8z M200.6,219.7c0-0.5-0.1-0.8-0.3-1.1
		c-0.2-0.3-0.5-0.4-0.9-0.4c-0.4,0-0.7,0.1-0.9,0.4c-0.2,0.3-0.3,0.6-0.3,1.1v2.2c0,0.5,0.1,0.8,0.3,1.1c0.2,0.3,0.5,0.4,0.9,0.4
		c0.4,0,0.7-0.1,0.9-0.4c0.2-0.3,0.3-0.6,0.3-1.1V219.7z"/>
</g>
<rect x="383.7" y="87.6" class="st2" width="23.5" height="124.2"/>
<rect x="414.6" y="95.5" class="st4" width="23.5" height="116.2"/>
<rect x="445.3" y="101.5" class="st5" width="23.5" height="110.2"/>
<g class="st3">
	<path d="M305,224h-4v-0.6l2-2.4c0.4-0.4,0.6-0.8,0.7-1c0.1-0.3,0.2-0.5,0.2-0.8c0-0.3-0.1-0.5-0.3-0.7c-0.2-0.2-0.4-0.3-0.7-0.3
		c-0.4,0-0.7,0.1-0.9,0.3c-0.2,0.2-0.3,0.5-0.3,0.9H301l0,0c0-0.5,0.2-1,0.5-1.3c0.4-0.4,0.9-0.5,1.5-0.5c0.6,0,1,0.2,1.3,0.5
		s0.5,0.7,0.5,1.2c0,0.3-0.1,0.7-0.3,1c-0.2,0.3-0.5,0.7-0.9,1.2l-1.6,1.9l0,0h2.9V224z"/>
	<path d="M310,221.8c0,0.7-0.2,1.3-0.6,1.7c-0.4,0.4-0.9,0.6-1.5,0.6c-0.6,0-1.1-0.2-1.5-0.6c-0.4-0.4-0.6-1-0.6-1.7v-1.9
		c0-0.7,0.2-1.3,0.6-1.7c0.4-0.4,0.9-0.6,1.5-0.6c0.6,0,1.1,0.2,1.5,0.6c0.4,0.4,0.6,1,0.6,1.7V221.8z M309.1,219.7
		c0-0.5-0.1-0.8-0.3-1.1c-0.2-0.3-0.5-0.4-0.9-0.4c-0.4,0-0.7,0.1-0.9,0.4c-0.2,0.3-0.3,0.6-0.3,1.1v2.2c0,0.5,0.1,0.8,0.3,1.1
		c0.2,0.3,0.5,0.4,0.9,0.4c0.4,0,0.7-0.1,0.9-0.4c0.2-0.3,0.3-0.6,0.3-1.1V219.7z"/>
	<path d="M315.1,224h-4v-0.6l2-2.4c0.4-0.4,0.6-0.8,0.7-1c0.1-0.3,0.2-0.5,0.2-0.8c0-0.3-0.1-0.5-0.3-0.7c-0.2-0.2-0.4-0.3-0.7-0.3
		c-0.4,0-0.7,0.1-0.9,0.3c-0.2,0.2-0.3,0.5-0.3,0.9h-0.8l0,0c0-0.5,0.2-1,0.5-1.3c0.4-0.4,0.9-0.5,1.5-0.5c0.6,0,1,0.2,1.3,0.5
		s0.5,0.7,0.5,1.2c0,0.3-0.1,0.7-0.3,1c-0.2,0.3-0.5,0.7-0.9,1.2l-1.6,1.9l0,0h2.9V224z"/>
	<path d="M318.7,224h-0.9v-5.6l-1.4,0v-0.7l2.3-0.2V224z"/>
</g>
<g class="st3">
	<path d="M404.4,218.3h-2.1v5.7h-0.9v-5.7h-2.1v-0.7h5.1V218.3z"/>
</g>
<g class="st3">
	<path d="M407.6,224c0-0.1-0.1-0.3-0.1-0.4c0-0.1,0-0.2,0-0.3c-0.2,0.2-0.4,0.4-0.6,0.6c-0.3,0.2-0.5,0.2-0.8,0.2
		c-0.5,0-0.9-0.1-1.1-0.4c-0.3-0.3-0.4-0.6-0.4-1c0-0.5,0.2-0.8,0.6-1.1c0.4-0.3,0.9-0.4,1.5-0.4h0.9v-0.5c0-0.3-0.1-0.5-0.3-0.7
		c-0.2-0.2-0.4-0.2-0.7-0.2c-0.3,0-0.5,0.1-0.7,0.2s-0.3,0.3-0.3,0.5l-0.8,0l0,0c0-0.3,0.1-0.7,0.5-0.9s0.8-0.4,1.3-0.4
		c0.5,0,1,0.1,1.3,0.4c0.3,0.3,0.5,0.7,0.5,1.2v2.3c0,0.2,0,0.3,0,0.5s0,0.3,0.1,0.5H407.6z M406.1,223.4c0.3,0,0.6-0.1,0.8-0.2
		c0.3-0.2,0.4-0.3,0.5-0.6v-0.8h-1c-0.3,0-0.6,0.1-0.8,0.3c-0.2,0.2-0.3,0.4-0.3,0.6c0,0.2,0.1,0.4,0.2,0.5
		C405.7,223.3,405.9,223.4,406.1,223.4z"/>
</g>
<g class="st3">
	<path d="M411.8,220l-0.4,0c-0.2,0-0.4,0.1-0.6,0.2s-0.3,0.3-0.4,0.5v3.4h-0.9v-4.8h0.8l0.1,0.7c0.1-0.2,0.3-0.4,0.5-0.6
		c0.2-0.1,0.4-0.2,0.7-0.2c0.1,0,0.1,0,0.2,0c0.1,0,0.1,0,0.1,0L411.8,220z"/>
</g>
<g class="st3">
	<path d="M412.5,221.8c0-0.8,0.2-1.4,0.5-1.9c0.3-0.5,0.8-0.7,1.4-0.7c0.3,0,0.6,0.1,0.8,0.2c0.2,0.1,0.4,0.3,0.6,0.5l0.1-0.6h0.7
		v4.8c0,0.6-0.2,1.1-0.5,1.4c-0.4,0.3-0.9,0.5-1.5,0.5c-0.2,0-0.5,0-0.7-0.1c-0.3-0.1-0.5-0.1-0.7-0.3l0.1-0.7
		c0.2,0.1,0.4,0.2,0.6,0.2c0.2,0.1,0.5,0.1,0.7,0.1c0.4,0,0.7-0.1,0.9-0.3c0.2-0.2,0.3-0.5,0.3-0.9v-0.5c-0.2,0.2-0.3,0.3-0.6,0.5
		s-0.5,0.2-0.8,0.2c-0.6,0-1-0.2-1.4-0.6C412.7,223.1,412.5,222.5,412.5,221.8L412.5,221.8z M413.4,221.8c0,0.5,0.1,0.9,0.3,1.2
		s0.5,0.4,0.9,0.4c0.3,0,0.5-0.1,0.7-0.2c0.2-0.1,0.3-0.3,0.4-0.5v-2.2c-0.1-0.2-0.3-0.4-0.4-0.5c-0.2-0.1-0.4-0.2-0.6-0.2
		c-0.4,0-0.7,0.2-0.9,0.5C413.5,220.8,413.4,221.2,413.4,221.8L413.4,221.8z"/>
	<path d="M419.7,224.1c-0.7,0-1.2-0.2-1.6-0.7c-0.4-0.4-0.6-1-0.6-1.7v-0.2c0-0.7,0.2-1.2,0.6-1.7c0.4-0.4,0.9-0.7,1.4-0.7
		c0.6,0,1.1,0.2,1.4,0.6c0.3,0.4,0.5,0.9,0.5,1.6v0.5h-3l0,0c0,0.5,0.1,0.9,0.3,1.2c0.2,0.3,0.5,0.4,1,0.4c0.3,0,0.5,0,0.8-0.1
		c0.2-0.1,0.4-0.2,0.6-0.3l0.3,0.6c-0.2,0.2-0.4,0.3-0.7,0.4C420.5,224.1,420.1,224.1,419.7,224.1z M419.6,219.9
		c-0.3,0-0.6,0.1-0.7,0.3c-0.2,0.2-0.3,0.5-0.4,0.9l0,0h2.1v-0.1c0-0.3-0.1-0.6-0.3-0.9S420,219.9,419.6,219.9z"/>
	<path d="M423.7,218.1v1.1h0.9v0.6h-0.9v2.9c0,0.2,0,0.4,0.1,0.5c0.1,0.1,0.2,0.1,0.4,0.1c0,0,0.1,0,0.2,0c0.1,0,0.1,0,0.2,0
		l0.1,0.6c-0.1,0.1-0.2,0.1-0.3,0.1c-0.1,0-0.2,0-0.4,0c-0.4,0-0.6-0.1-0.8-0.3c-0.2-0.2-0.3-0.5-0.3-1v-2.9h-0.8v-0.6h0.8v-1.1
		H423.7z"/>
	<path d="M427.7,221.4c0-1.2,0.2-2.1,0.7-3s1-1.4,1.5-1.6l0,0l0.2,0.5c-0.4,0.3-0.8,0.8-1,1.5c-0.3,0.7-0.4,1.5-0.4,2.6v0.1
		c0,1,0.1,1.9,0.4,2.6c0.3,0.7,0.6,1.2,1.1,1.5l-0.2,0.5h0c-0.5-0.3-1-0.8-1.5-1.6C427.9,223.6,427.7,222.6,427.7,221.4L427.7,221.4
		z"/>
	<path d="M434.7,224h-4v-0.6l2-2.4c0.4-0.4,0.6-0.8,0.7-1c0.1-0.3,0.2-0.5,0.2-0.8c0-0.3-0.1-0.5-0.3-0.7c-0.2-0.2-0.4-0.3-0.7-0.3
		c-0.4,0-0.7,0.1-0.9,0.3c-0.2,0.2-0.3,0.5-0.3,0.9h-0.8l0,0c0-0.5,0.2-1,0.5-1.3c0.4-0.4,0.9-0.5,1.5-0.5c0.6,0,1,0.2,1.3,0.5
		s0.5,0.7,0.5,1.2c0,0.3-0.1,0.7-0.3,1c-0.2,0.3-0.5,0.7-0.9,1.2l-1.6,1.9l0,0h2.9V224z"/>
	<path d="M439.7,221.8c0,0.7-0.2,1.3-0.6,1.7c-0.4,0.4-0.9,0.6-1.5,0.6c-0.6,0-1.1-0.2-1.5-0.6c-0.4-0.4-0.6-1-0.6-1.7v-1.9
		c0-0.7,0.2-1.3,0.6-1.7c0.4-0.4,0.9-0.6,1.5-0.6c0.6,0,1.1,0.2,1.5,0.6c0.4,0.4,0.6,1,0.6,1.7V221.8z M438.9,219.7
		c0-0.5-0.1-0.8-0.3-1.1c-0.2-0.3-0.5-0.4-0.9-0.4c-0.4,0-0.7,0.1-0.9,0.4c-0.2,0.3-0.3,0.6-0.3,1.1v2.2c0,0.5,0.1,0.8,0.3,1.1
		c0.2,0.3,0.5,0.4,0.9,0.4c0.4,0,0.7-0.1,0.9-0.4c0.2-0.3,0.3-0.6,0.3-1.1V219.7z"/>
	<path d="M444.9,224h-4v-0.6l2-2.4c0.4-0.4,0.6-0.8,0.7-1c0.1-0.3,0.2-0.5,0.2-0.8c0-0.3-0.1-0.5-0.3-0.7c-0.2-0.2-0.4-0.3-0.7-0.3
		c-0.4,0-0.7,0.1-0.9,0.3c-0.2,0.2-0.3,0.5-0.3,0.9h-0.8l0,0c0-0.5,0.2-1,0.5-1.3c0.4-0.4,0.9-0.5,1.5-0.5c0.6,0,1,0.2,1.3,0.5
		s0.5,0.7,0.5,1.2c0,0.3-0.1,0.7-0.3,1c-0.2,0.3-0.5,0.7-0.9,1.2l-1.6,1.9l0,0h2.9V224z"/>
	<path d="M446.1,221.2l0.4-3.6h3.2v0.8h-2.5l-0.2,1.8c0.1-0.1,0.3-0.2,0.5-0.3c0.2-0.1,0.4-0.1,0.6-0.1c0.6,0,1.1,0.2,1.4,0.6
		c0.3,0.4,0.5,0.9,0.5,1.5c0,0.6-0.2,1.2-0.5,1.5c-0.3,0.4-0.8,0.6-1.5,0.6c-0.5,0-1-0.1-1.4-0.4s-0.5-0.7-0.5-1.3l0,0h0.8
		c0,0.3,0.1,0.6,0.3,0.8c0.2,0.2,0.5,0.3,0.8,0.3c0.4,0,0.7-0.1,0.9-0.4s0.3-0.6,0.3-1.1c0-0.4-0.1-0.7-0.3-1
		c-0.2-0.3-0.5-0.4-0.8-0.4c-0.3,0-0.6,0.1-0.7,0.2s-0.3,0.3-0.3,0.5L446.1,221.2z"/>
	<path d="M452.8,221.5c0,1.2-0.2,2.1-0.7,3c-0.5,0.8-1,1.4-1.5,1.6h0l-0.2-0.5c0.4-0.3,0.7-0.8,1-1.5c0.3-0.7,0.5-1.6,0.5-2.6v-0.1
		c0-1-0.2-1.9-0.5-2.6c-0.3-0.7-0.7-1.2-1-1.5l0.2-0.5h0c0.5,0.3,1,0.8,1.5,1.6C452.5,219.3,452.8,220.3,452.8,221.5L452.8,221.5z"
		/>
</g>
<g class="st3">
	<path d="M77.9,224h-4v-0.6l2-2.4c0.4-0.4,0.6-0.8,0.7-1c0.1-0.3,0.2-0.5,0.2-0.8c0-0.3-0.1-0.5-0.3-0.7c-0.2-0.2-0.4-0.3-0.7-0.3
		c-0.4,0-0.7,0.1-0.9,0.3c-0.2,0.2-0.3,0.5-0.3,0.9h-0.8l0,0c0-0.5,0.2-1,0.5-1.3c0.4-0.4,0.9-0.5,1.5-0.5c0.6,0,1,0.2,1.3,0.5
		s0.5,0.7,0.5,1.2c0,0.3-0.1,0.7-0.3,1c-0.2,0.3-0.5,0.7-0.9,1.2l-1.6,1.9l0,0h2.9V224z"/>
	<path d="M82.9,221.8c0,0.7-0.2,1.3-0.6,1.7s-0.9,0.6-1.5,0.6c-0.6,0-1.1-0.2-1.5-0.6c-0.4-0.4-0.6-1-0.6-1.7v-1.9
		c0-0.7,0.2-1.3,0.6-1.7s0.9-0.6,1.5-0.6c0.6,0,1.1,0.2,1.5,0.6c0.4,0.4,0.6,1,0.6,1.7V221.8z M82.1,219.7c0-0.5-0.1-0.8-0.3-1.1
		c-0.2-0.3-0.5-0.4-0.9-0.4c-0.4,0-0.7,0.1-0.9,0.4c-0.2,0.3-0.3,0.6-0.3,1.1v2.2c0,0.5,0.1,0.8,0.3,1.1c0.2,0.3,0.5,0.4,0.9,0.4
		c0.4,0,0.7-0.1,0.9-0.4c0.2-0.3,0.3-0.6,0.3-1.1V219.7z"/>
	<path d="M86.5,224h-0.9v-5.6l-1.4,0v-0.7l2.3-0.2V224z"/>
	<path d="M90.7,223.5c0.4,0,0.8-0.1,1-0.4c0.3-0.3,0.4-0.7,0.4-1.2v-0.5c-0.1,0.2-0.3,0.4-0.5,0.5c-0.2,0.1-0.4,0.2-0.7,0.2
		c-0.6,0-1.1-0.2-1.4-0.6c-0.4-0.4-0.5-0.9-0.5-1.6c0-0.6,0.2-1.2,0.6-1.6c0.4-0.4,0.8-0.6,1.4-0.6c0.6,0,1.2,0.2,1.5,0.6
		s0.6,1,0.6,1.7v1.9c0,0.7-0.2,1.3-0.6,1.7c-0.4,0.4-1,0.6-1.6,0.6c-0.2,0-0.5,0-0.7-0.1c-0.2,0-0.5-0.1-0.7-0.2l0.1-0.7
		c0.2,0.1,0.4,0.2,0.6,0.2C90.2,223.4,90.4,223.5,90.7,223.5z M90.9,221.2c0.3,0,0.6-0.1,0.8-0.2c0.2-0.1,0.4-0.3,0.5-0.5v-0.8
		c0-0.5-0.1-0.8-0.3-1.1c-0.2-0.3-0.5-0.4-0.9-0.4c-0.3,0-0.6,0.1-0.8,0.4c-0.2,0.3-0.3,0.6-0.3,1.1c0,0.4,0.1,0.8,0.3,1.1
		C90.2,221.1,90.5,221.2,90.9,221.2z"/>
</g>
<g class="st3">
	<path d="M37.2,20.4c0.6,0.3,1.1,0.7,1.5,1.2c0.3,0.5,0.5,1.2,0.5,1.9c0,0.7-0.2,1.3-0.5,1.9c-0.3,0.5-0.8,0.9-1.5,1.2
		c-0.6,0.3-1.4,0.4-2.3,0.4h-2v2.7h-2.3V20h4.2C35.8,20,36.6,20.1,37.2,20.4z M36.4,24.8c0.4-0.3,0.5-0.7,0.5-1.3
		c0-0.6-0.2-1-0.5-1.3c-0.4-0.3-0.9-0.4-1.6-0.4H33v3.4h1.8C35.5,25.2,36,25.1,36.4,24.8z"/>
</g>
<g class="st3">
	<path d="M48,26.6h-5.7c0.1,0.5,0.3,0.8,0.7,1.1s0.9,0.4,1.4,0.4c0.4,0,0.7-0.1,1-0.2c0.3-0.1,0.6-0.3,0.8-0.6l1.2,1.3
		c-0.7,0.8-1.7,1.2-3.1,1.2c-0.8,0-1.6-0.2-2.3-0.5c-0.7-0.3-1.2-0.8-1.5-1.4c-0.4-0.6-0.5-1.3-0.5-2c0-0.7,0.2-1.4,0.5-2
		s0.8-1.1,1.4-1.4c0.6-0.3,1.3-0.5,2.1-0.5c0.7,0,1.4,0.2,2,0.5c0.6,0.3,1.1,0.8,1.4,1.4S48,25.2,48,26C48,26.1,48,26.3,48,26.6z
		 M42.9,24.2c-0.3,0.3-0.5,0.7-0.6,1.1h3.7c-0.1-0.5-0.3-0.9-0.6-1.1c-0.3-0.3-0.7-0.4-1.2-0.4C43.6,23.8,43.2,23.9,42.9,24.2z"/>
	<path d="M50.9,29.4c-0.6-0.3-1.1-0.8-1.5-1.4c-0.4-0.6-0.5-1.3-0.5-2c0-0.7,0.2-1.4,0.5-2c0.4-0.6,0.8-1,1.5-1.4
		c0.6-0.3,1.3-0.5,2.1-0.5c0.8,0,1.5,0.2,2.1,0.5c0.6,0.3,1.1,0.8,1.5,1.4c0.4,0.6,0.5,1.3,0.5,2c0,0.7-0.2,1.4-0.5,2
		c-0.4,0.6-0.8,1-1.5,1.4c-0.6,0.3-1.3,0.5-2.1,0.5C52.3,29.9,51.5,29.7,50.9,29.4z M54.4,27.5c0.4-0.4,0.5-0.9,0.5-1.5
		s-0.2-1.1-0.5-1.5c-0.4-0.4-0.8-0.6-1.4-0.6c-0.6,0-1,0.2-1.4,0.6c-0.4,0.4-0.5,0.9-0.5,1.5s0.2,1.1,0.5,1.5
		c0.4,0.4,0.8,0.6,1.4,0.6C53.6,28.1,54.1,27.9,54.4,27.5z"/>
	<path d="M65,22.6c0.6,0.3,1,0.8,1.4,1.4c0.3,0.6,0.5,1.3,0.5,2c0,0.8-0.2,1.5-0.5,2c-0.3,0.6-0.8,1-1.4,1.4
		c-0.6,0.3-1.2,0.5-1.9,0.5c-1,0-1.7-0.3-2.3-0.9v3.5h-2.2V22.2h2.1v0.9c0.5-0.7,1.3-1,2.4-1C63.8,22.1,64.4,22.3,65,22.6z
		 M64.1,27.5c0.4-0.4,0.5-0.9,0.5-1.5s-0.2-1.1-0.5-1.5s-0.8-0.6-1.4-0.6s-1,0.2-1.4,0.6c-0.4,0.4-0.5,0.9-0.5,1.5s0.2,1.1,0.5,1.5
		c0.4,0.4,0.8,0.6,1.4,0.6S63.7,27.9,64.1,27.5z"/>
	<path d="M68.3,19.4h2.2v10.4h-2.2V19.4z"/>
	<path d="M79.8,26.6h-5.7c0.1,0.5,0.3,0.8,0.7,1.1s0.9,0.4,1.4,0.4c0.4,0,0.7-0.1,1-0.2c0.3-0.1,0.6-0.3,0.8-0.6l1.2,1.3
		c-0.7,0.8-1.7,1.2-3.1,1.2c-0.8,0-1.6-0.2-2.3-0.5c-0.7-0.3-1.2-0.8-1.5-1.4c-0.4-0.6-0.5-1.3-0.5-2c0-0.7,0.2-1.4,0.5-2
		s0.8-1.1,1.4-1.4c0.6-0.3,1.3-0.5,2.1-0.5c0.7,0,1.4,0.2,2,0.5c0.6,0.3,1.1,0.8,1.4,1.4s0.5,1.3,0.5,2.1
		C79.9,26.1,79.9,26.3,79.8,26.6z M74.7,24.2c-0.3,0.3-0.5,0.7-0.6,1.1h3.7c-0.1-0.5-0.3-0.9-0.6-1.1c-0.3-0.3-0.7-0.4-1.2-0.4
		C75.5,23.8,75.1,23.9,74.7,24.2z"/>
	<path d="M85.5,20h2.3v8h4.9v1.8h-7.2V20z"/>
	<path d="M93.9,20.8c-0.3-0.2-0.4-0.5-0.4-0.9c0-0.3,0.1-0.6,0.4-0.9s0.6-0.3,1-0.3c0.4,0,0.7,0.1,1,0.3c0.3,0.2,0.4,0.5,0.4,0.8
		c0,0.4-0.1,0.7-0.4,0.9c-0.3,0.2-0.6,0.4-1,0.4C94.4,21.2,94.1,21.1,93.9,20.8z M93.8,22.2h2.2v7.5h-2.2V22.2z"/>
	<path d="M105.4,22.2l-3.2,7.5H100l-3.2-7.5h2.3l2.1,5.1l2.2-5.1H105.4z"/>
	<path d="M106.5,20.8c-0.3-0.2-0.4-0.5-0.4-0.9c0-0.3,0.1-0.6,0.4-0.9s0.6-0.3,1-0.3c0.4,0,0.7,0.1,1,0.3c0.3,0.2,0.4,0.5,0.4,0.8
		c0,0.4-0.1,0.7-0.4,0.9c-0.3,0.2-0.6,0.4-1,0.4C107,21.2,106.7,21.1,106.5,20.8z M106.3,22.2h2.2v7.5h-2.2V22.2z"/>
</g>
<g class="st3">
	<path d="M117.4,23c0.6,0.6,0.9,1.4,0.9,2.5v4.3h-2.2v-4c0-0.6-0.1-1-0.4-1.3c-0.3-0.3-0.6-0.4-1.1-0.4c-0.6,0-1,0.2-1.3,0.5
		c-0.3,0.3-0.5,0.8-0.5,1.5v3.7h-2.2v-7.5h2.1v0.9c0.3-0.3,0.6-0.6,1.1-0.7s0.9-0.3,1.4-0.3C116.1,22.1,116.8,22.4,117.4,23z"/>
</g>
<g class="st3">
	<path d="M128.1,22.2v6.3c0,1.4-0.4,2.4-1.1,3.1c-0.7,0.7-1.8,1-3.2,1c-0.7,0-1.4-0.1-2.1-0.3c-0.7-0.2-1.2-0.4-1.6-0.8L121,30
		c0.3,0.3,0.7,0.5,1.2,0.6c0.5,0.2,1,0.2,1.5,0.2c0.8,0,1.3-0.2,1.7-0.5c0.4-0.3,0.5-0.9,0.5-1.5v-0.3c-0.6,0.6-1.4,0.9-2.4,0.9
		c-0.7,0-1.3-0.2-1.9-0.5c-0.6-0.3-1-0.7-1.4-1.3s-0.5-1.2-0.5-1.9s0.2-1.4,0.5-1.9s0.8-1,1.4-1.3c0.6-0.3,1.2-0.5,1.9-0.5
		c1.1,0,1.9,0.4,2.5,1.1v-1H128.1z M125.4,27.1c0.4-0.3,0.6-0.8,0.6-1.3s-0.2-1-0.6-1.3s-0.8-0.5-1.4-0.5s-1.1,0.2-1.4,0.5
		c-0.4,0.3-0.6,0.8-0.6,1.3s0.2,1,0.6,1.3c0.4,0.3,0.8,0.5,1.4,0.5S125,27.4,125.4,27.1z"/>
</g>
<g class="st3">
	<path d="M149,20l-3.2,9.8h-2.4l-2.2-6.6l-2.2,6.6h-2.4l-3.2-9.8h2.4l2.2,6.9l2.3-6.9h2.1l2.2,6.9l2.3-6.9H149z"/>
</g>
<g class="st3">
	<path d="M150.4,20.8c-0.3-0.2-0.4-0.5-0.4-0.9c0-0.3,0.1-0.6,0.4-0.9s0.6-0.3,1-0.3c0.4,0,0.7,0.1,1,0.3c0.3,0.2,0.4,0.5,0.4,0.8
		c0,0.4-0.1,0.7-0.4,0.9c-0.3,0.2-0.6,0.4-1,0.4C151,21.2,150.7,21.1,150.4,20.8z M150.3,22.2h2.2v7.5h-2.2V22.2z"/>
	<path d="M159.4,29.4c-0.2,0.2-0.5,0.3-0.8,0.4c-0.3,0.1-0.6,0.1-1,0.1c-0.9,0-1.6-0.2-2.1-0.7c-0.5-0.5-0.7-1.1-0.7-2v-3.1h-1.2
		v-1.7h1.2v-1.8h2.2v1.8h1.9v1.7H157v3.1c0,0.3,0.1,0.6,0.2,0.7c0.2,0.2,0.4,0.3,0.7,0.3c0.3,0,0.6-0.1,0.9-0.3L159.4,29.4z"/>
	<path d="M167.4,23c0.6,0.6,0.9,1.4,0.9,2.5v4.3h-2.2v-4c0-0.6-0.1-1-0.4-1.3c-0.3-0.3-0.6-0.4-1.1-0.4c-0.6,0-1,0.2-1.3,0.5
		c-0.3,0.3-0.5,0.8-0.5,1.5v3.7h-2.2V19.4h2.2V23c0.3-0.3,0.6-0.5,1.1-0.7c0.4-0.2,0.9-0.2,1.3-0.2C166.1,22.1,166.9,22.4,167.4,23z
		"/>
	<path d="M183.4,20v9.8h-2.3v-4h-4.5v4h-2.3V20h2.3v3.9h4.5V20H183.4z"/>
</g>
<g class="st3">
	<path d="M185.7,20h2.3v9.8h-2.3V20z"/>
</g>
<g class="st3">
	<path d="M199.7,20l-4.2,9.8h-2.2l-4.2-9.8h2.5l3,7l3-7H199.7z"/>
	<path d="M204.6,20.8c-0.3-0.2-0.4-0.5-0.4-0.9c0-0.3,0.1-0.6,0.4-0.9s0.6-0.3,1-0.3c0.4,0,0.7,0.1,1,0.3c0.3,0.2,0.4,0.5,0.4,0.8
		c0,0.4-0.1,0.7-0.4,0.9c-0.3,0.2-0.6,0.4-1,0.4C205.2,21.2,204.8,21.1,204.6,20.8z M204.5,22.2h2.2v7.5h-2.2V22.2z"/>
	<path d="M215.5,23c0.6,0.6,0.9,1.4,0.9,2.5v4.3h-2.2v-4c0-0.6-0.1-1-0.4-1.3c-0.3-0.3-0.6-0.4-1.1-0.4c-0.6,0-1,0.2-1.3,0.5
		c-0.3,0.3-0.5,0.8-0.5,1.5v3.7h-2.2v-7.5h2.1v0.9c0.3-0.3,0.6-0.6,1.1-0.7s0.9-0.3,1.4-0.3C214.2,22.1,215,22.4,215.5,23z"/>
	<path d="M222.5,20h2.3v9.8h-2.3V20z"/>
</g>
<g class="st3">
	<path d="M233.8,23c0.6,0.6,0.9,1.4,0.9,2.5v4.3h-2.2v-4c0-0.6-0.1-1-0.4-1.3c-0.3-0.3-0.6-0.4-1.1-0.4c-0.6,0-1,0.2-1.3,0.5
		c-0.3,0.3-0.5,0.8-0.5,1.5v3.7h-2.2v-7.5h2.1v0.9c0.3-0.3,0.6-0.6,1.1-0.7s0.9-0.3,1.4-0.3C232.4,22.1,233.2,22.4,233.8,23z"/>
</g>
<g class="st3">
	<path d="M244.4,19.4v10.4h-2.1v-0.9c-0.5,0.7-1.3,1-2.4,1c-0.7,0-1.4-0.2-1.9-0.5c-0.6-0.3-1-0.8-1.4-1.4s-0.5-1.3-0.5-2
		c0-0.8,0.2-1.5,0.5-2c0.3-0.6,0.8-1,1.4-1.4c0.6-0.3,1.2-0.5,1.9-0.5c1,0,1.7,0.3,2.3,0.9v-3.7H244.4z M241.7,27.5
		c0.4-0.4,0.5-0.9,0.5-1.5s-0.2-1.1-0.5-1.5c-0.4-0.4-0.8-0.6-1.4-0.6c-0.6,0-1,0.2-1.4,0.6c-0.4,0.4-0.5,0.9-0.5,1.5
		s0.2,1.1,0.5,1.5c0.4,0.4,0.8,0.6,1.4,0.6C240.9,28.1,241.3,27.9,241.7,27.5z"/>
	<path d="M247.8,29.4c-0.6-0.3-1.1-0.8-1.5-1.4c-0.4-0.6-0.5-1.3-0.5-2c0-0.7,0.2-1.4,0.5-2c0.4-0.6,0.8-1,1.5-1.4
		c0.6-0.3,1.3-0.5,2.1-0.5c0.8,0,1.5,0.2,2.1,0.5c0.6,0.3,1.1,0.8,1.5,1.4c0.4,0.6,0.5,1.3,0.5,2c0,0.7-0.2,1.4-0.5,2
		s-0.8,1-1.5,1.4c-0.6,0.3-1.3,0.5-2.1,0.5C249.2,29.9,248.5,29.7,247.8,29.4z M251.3,27.5c0.4-0.4,0.5-0.9,0.5-1.5
		s-0.2-1.1-0.5-1.5c-0.4-0.4-0.8-0.6-1.4-0.6c-0.6,0-1,0.2-1.4,0.6c-0.4,0.4-0.5,0.9-0.5,1.5s0.2,1.1,0.5,1.5
		c0.4,0.4,0.8,0.6,1.4,0.6C250.5,28.1,251,27.9,251.3,27.5z"/>
</g>
<g class="st3">
	<path d="M262.4,23c0.6,0.6,0.9,1.4,0.9,2.5v4.3h-2.2v-4c0-0.6-0.1-1-0.4-1.3c-0.3-0.3-0.6-0.4-1.1-0.4c-0.6,0-1,0.2-1.3,0.5
		s-0.5,0.8-0.5,1.5v3.7h-2.2v-7.5h2.1v0.9c0.3-0.3,0.6-0.6,1.1-0.7c0.4-0.2,0.9-0.3,1.4-0.3C261.1,22.1,261.8,22.4,262.4,23z"/>
</g>
<g class="st3">
	<path d="M272.6,26.6h-5.7c0.1,0.5,0.3,0.8,0.7,1.1s0.9,0.4,1.4,0.4c0.4,0,0.7-0.1,1-0.2c0.3-0.1,0.6-0.3,0.8-0.6l1.2,1.3
		c-0.7,0.8-1.7,1.2-3.1,1.2c-0.8,0-1.6-0.2-2.3-0.5s-1.2-0.8-1.5-1.4c-0.4-0.6-0.5-1.3-0.5-2c0-0.7,0.2-1.4,0.5-2
		c0.3-0.6,0.8-1.1,1.4-1.4c0.6-0.3,1.3-0.5,2.1-0.5c0.7,0,1.4,0.2,2,0.5s1.1,0.8,1.4,1.4s0.5,1.3,0.5,2.1
		C272.7,26.1,272.7,26.3,272.6,26.6z M267.5,24.2c-0.3,0.3-0.5,0.7-0.6,1.1h3.7c-0.1-0.5-0.3-0.9-0.6-1.1c-0.3-0.3-0.7-0.4-1.2-0.4
		C268.3,23.8,267.9,23.9,267.5,24.2z"/>
	<path d="M274.8,29.7c-0.6-0.2-1.1-0.3-1.4-0.6l0.7-1.6c0.3,0.2,0.7,0.4,1.2,0.5c0.5,0.1,0.9,0.2,1.4,0.2c0.9,0,1.4-0.2,1.4-0.7
		c0-0.2-0.1-0.4-0.4-0.5c-0.3-0.1-0.6-0.2-1.2-0.2c-0.6-0.1-1.1-0.2-1.5-0.3c-0.4-0.1-0.8-0.3-1-0.6c-0.3-0.3-0.4-0.7-0.4-1.3
		c0-0.5,0.1-0.9,0.4-1.3c0.3-0.4,0.7-0.7,1.2-0.9s1.2-0.3,1.9-0.3c0.5,0,1.1,0.1,1.6,0.2c0.5,0.1,1,0.3,1.3,0.5l-0.7,1.6
		c-0.7-0.4-1.4-0.6-2.2-0.6c-0.5,0-0.8,0.1-1.1,0.2c-0.2,0.1-0.3,0.3-0.3,0.5c0,0.2,0.1,0.4,0.4,0.5c0.3,0.1,0.7,0.2,1.2,0.3
		c0.6,0.1,1.1,0.2,1.5,0.3c0.4,0.1,0.7,0.3,1,0.6c0.3,0.3,0.4,0.7,0.4,1.3c0,0.5-0.1,0.9-0.4,1.2c-0.3,0.4-0.7,0.6-1.2,0.8
		c-0.5,0.2-1.2,0.3-1.9,0.3C276,29.9,275.4,29.8,274.8,29.7z"/>
	<path d="M281.7,20.8c-0.3-0.2-0.4-0.5-0.4-0.9c0-0.3,0.1-0.6,0.4-0.9s0.6-0.3,1-0.3c0.4,0,0.7,0.1,1,0.3c0.3,0.2,0.4,0.5,0.4,0.8
		c0,0.4-0.1,0.7-0.4,0.9c-0.3,0.2-0.6,0.4-1,0.4C282.3,21.2,281.9,21.1,281.7,20.8z M281.6,22.2h2.2v7.5h-2.2V22.2z"/>
	<path d="M291.5,23c0.6,0.6,0.9,1.4,0.9,2.5v4.3h-2v-0.9c-0.4,0.7-1.2,1.1-2.3,1.1c-0.6,0-1.1-0.1-1.5-0.3c-0.4-0.2-0.8-0.5-1-0.8
		c-0.2-0.3-0.3-0.7-0.3-1.2c0-0.7,0.3-1.3,0.8-1.7s1.3-0.6,2.4-0.6h1.7c0-0.5-0.1-0.8-0.4-1.1c-0.3-0.3-0.7-0.4-1.3-0.4
		c-0.4,0-0.8,0.1-1.2,0.2s-0.7,0.3-1,0.5l-0.8-1.5c0.4-0.3,0.9-0.5,1.5-0.7c0.6-0.2,1.2-0.2,1.8-0.2C290,22.1,290.9,22.4,291.5,23z
		 M289.6,28.2c0.3-0.2,0.5-0.4,0.6-0.8v-0.8h-1.5c-0.9,0-1.3,0.3-1.3,0.9c0,0.3,0.1,0.5,0.3,0.7c0.2,0.2,0.5,0.2,0.9,0.2
		C289,28.4,289.4,28.3,289.6,28.2z"/>
	<path d="M313.3,20l-3.2,9.8h-2.4l-2.2-6.6l-2.2,6.6h-2.4l-3.2-9.8h2.4l2.2,6.9l2.3-6.9h2.1l2.2,6.9l2.3-6.9H313.3z"/>
</g>
<g class="st3">
	<path d="M321.5,23c0.6,0.6,0.9,1.4,0.9,2.5v4.3h-2.2v-4c0-0.6-0.1-1-0.4-1.3c-0.3-0.3-0.6-0.4-1.1-0.4c-0.6,0-1,0.2-1.3,0.5
		s-0.5,0.8-0.5,1.5v3.7h-2.2V19.4h2.2V23c0.3-0.3,0.6-0.5,1.1-0.7c0.4-0.2,0.9-0.2,1.3-0.2C320.2,22.1,320.9,22.4,321.5,23z"/>
</g>
<g class="st3">
	<path d="M325.9,29.4c-0.6-0.3-1.1-0.8-1.5-1.4s-0.5-1.3-0.5-2c0-0.7,0.2-1.4,0.5-2c0.4-0.6,0.8-1,1.5-1.4c0.6-0.3,1.3-0.5,2.1-0.5
		s1.5,0.2,2.1,0.5c0.6,0.3,1.1,0.8,1.5,1.4c0.4,0.6,0.5,1.3,0.5,2c0,0.7-0.2,1.4-0.5,2s-0.8,1-1.5,1.4s-1.3,0.5-2.1,0.5
		S326.5,29.7,325.9,29.4z M329.4,27.5c0.4-0.4,0.5-0.9,0.5-1.5s-0.2-1.1-0.5-1.5s-0.8-0.6-1.4-0.6s-1,0.2-1.4,0.6
		c-0.4,0.4-0.5,0.9-0.5,1.5s0.2,1.1,0.5,1.5c0.4,0.4,0.8,0.6,1.4,0.6S329,27.9,329.4,27.5z"/>
</g>
<g class="st3">
	<path d="M341.3,25.9l-1.3,1.4v2.5h-2.3V20h2.3v4.6l4.3-4.6h2.5l-4.1,4.4l4.3,5.4h-2.6L341.3,25.9z"/>
</g>
<g class="st3">
	<path d="M354.6,23c0.6,0.6,0.9,1.4,0.9,2.5v4.3h-2.2v-4c0-0.6-0.1-1-0.4-1.3c-0.3-0.3-0.6-0.4-1.1-0.4c-0.6,0-1,0.2-1.3,0.5
		S350,25.4,350,26v3.7h-2.2v-7.5h2.1v0.9c0.3-0.3,0.6-0.6,1.1-0.7c0.4-0.2,0.9-0.3,1.4-0.3C353.3,22.1,354,22.4,354.6,23z"/>
</g>
<g class="st3">
	<path d="M359,29.4c-0.6-0.3-1.1-0.8-1.5-1.4c-0.4-0.6-0.5-1.3-0.5-2c0-0.7,0.2-1.4,0.5-2c0.4-0.6,0.8-1,1.5-1.4
		c0.6-0.3,1.3-0.5,2.1-0.5c0.8,0,1.5,0.2,2.1,0.5c0.6,0.3,1.1,0.8,1.5,1.4c0.4,0.6,0.5,1.3,0.5,2c0,0.7-0.2,1.4-0.5,2
		s-0.8,1-1.5,1.4s-1.3,0.5-2.1,0.5C360.3,29.9,359.6,29.7,359,29.4z M362.5,27.5c0.4-0.4,0.5-0.9,0.5-1.5s-0.2-1.1-0.5-1.5
		c-0.4-0.4-0.8-0.6-1.4-0.6c-0.6,0-1,0.2-1.4,0.6c-0.4,0.4-0.5,0.9-0.5,1.5s0.2,1.1,0.5,1.5c0.4,0.4,0.8,0.6,1.4,0.6
		C361.7,28.1,362.1,27.9,362.5,27.5z"/>
</g>
<g class="st3">
	<path d="M378.6,22.2l-2.7,7.5h-2.1l-1.7-4.7l-1.8,4.7h-2.1l-2.7-7.5h2.1l1.8,5.1l1.8-5.1h1.8l1.8,5.1l1.8-5.1H378.6z"/>
	<path d="M385.8,21.8h-3.1V20h8.5v1.8H388v8h-2.3V21.8z"/>
</g>
<g class="st3">
	<path d="M399.1,23c0.6,0.6,0.9,1.4,0.9,2.5v4.3h-2.2v-4c0-0.6-0.1-1-0.4-1.3c-0.3-0.3-0.6-0.4-1.1-0.4c-0.6,0-1,0.2-1.3,0.5
		c-0.3,0.3-0.5,0.8-0.5,1.5v3.7h-2.2V19.4h2.2V23c0.3-0.3,0.6-0.5,1-0.7s0.9-0.2,1.3-0.2C397.7,22.1,398.5,22.4,399.1,23z"/>
</g>
<g class="st3">
	<path d="M409.3,26.6h-5.7c0.1,0.5,0.3,0.8,0.7,1.1s0.9,0.4,1.4,0.4c0.4,0,0.7-0.1,1-0.2c0.3-0.1,0.6-0.3,0.8-0.6l1.2,1.3
		c-0.7,0.8-1.7,1.2-3.1,1.2c-0.8,0-1.6-0.2-2.3-0.5s-1.2-0.8-1.5-1.4c-0.4-0.6-0.5-1.3-0.5-2c0-0.7,0.2-1.4,0.5-2
		c0.3-0.6,0.8-1.1,1.4-1.4c0.6-0.3,1.3-0.5,2.1-0.5c0.7,0,1.4,0.2,2,0.5c0.6,0.3,1.1,0.8,1.4,1.4s0.5,1.3,0.5,2.1
		C409.4,26.1,409.3,26.3,409.3,26.6z M404.2,24.2c-0.3,0.3-0.5,0.7-0.6,1.1h3.7c-0.1-0.5-0.3-0.9-0.6-1.1c-0.3-0.3-0.7-0.4-1.2-0.4
		C405,23.8,404.5,23.9,404.2,24.2z"/>
	<path d="M410.9,20.8c-0.3-0.2-0.4-0.5-0.4-0.9c0-0.3,0.1-0.6,0.4-0.9s0.6-0.3,1-0.3c0.4,0,0.7,0.1,1,0.3c0.3,0.2,0.4,0.5,0.4,0.8
		c0,0.4-0.1,0.7-0.4,0.9c-0.3,0.2-0.6,0.4-1,0.4C411.5,21.2,411.2,21.1,410.9,20.8z M410.8,22.2h2.2v7.5h-2.2V22.2z"/>
	<path d="M418.2,22.4c0.4-0.2,1-0.3,1.5-0.3v2c-0.2,0-0.4,0-0.5,0c-0.6,0-1.1,0.2-1.5,0.5c-0.4,0.3-0.5,0.9-0.5,1.6v3.6H415v-7.5
		h2.1v1C417.4,22.9,417.7,22.6,418.2,22.4z"/>
	<path d="M426.1,29.6c-0.7-0.2-1.3-0.5-1.7-0.8l0.8-1.7c0.4,0.3,0.9,0.6,1.5,0.7s1.2,0.3,1.7,0.3c0.6,0,1.1-0.1,1.4-0.3
		c0.3-0.2,0.5-0.4,0.5-0.8c0-0.2-0.1-0.4-0.3-0.6c-0.2-0.2-0.4-0.3-0.7-0.4c-0.3-0.1-0.7-0.2-1.2-0.3c-0.7-0.2-1.4-0.4-1.8-0.5
		c-0.5-0.2-0.9-0.5-1.2-0.9c-0.3-0.4-0.5-0.9-0.5-1.6c0-0.6,0.2-1.1,0.5-1.5c0.3-0.5,0.8-0.8,1.4-1.1c0.6-0.3,1.4-0.4,2.3-0.4
		c0.6,0,1.2,0.1,1.8,0.2c0.6,0.1,1.1,0.4,1.6,0.6l-0.7,1.7c-0.9-0.5-1.8-0.8-2.7-0.8c-0.6,0-1.1,0.1-1.4,0.3
		c-0.3,0.2-0.5,0.5-0.5,0.8s0.2,0.6,0.5,0.7c0.3,0.2,0.9,0.3,1.6,0.5c0.7,0.2,1.4,0.4,1.8,0.5c0.5,0.2,0.9,0.5,1.2,0.8
		s0.5,0.9,0.5,1.6c0,0.6-0.2,1.1-0.5,1.5s-0.8,0.8-1.4,1.1s-1.4,0.4-2.3,0.4C427.6,29.9,426.9,29.8,426.1,29.6z"/>
	<path d="M438.8,29.4c-0.2,0.2-0.5,0.3-0.8,0.4s-0.6,0.1-1,0.1c-0.9,0-1.6-0.2-2.1-0.7c-0.5-0.5-0.7-1.1-0.7-2v-3.1h-1.2v-1.7h1.2
		v-1.8h2.2v1.8h1.9v1.7h-1.9v3.1c0,0.3,0.1,0.6,0.2,0.7s0.4,0.3,0.7,0.3c0.3,0,0.6-0.1,0.9-0.3L438.8,29.4z"/>
	<path d="M445.8,23c0.6,0.6,0.9,1.4,0.9,2.5v4.3h-2v-0.9c-0.4,0.7-1.2,1.1-2.3,1.1c-0.6,0-1.1-0.1-1.5-0.3c-0.4-0.2-0.7-0.5-1-0.8
		c-0.2-0.3-0.3-0.7-0.3-1.2c0-0.7,0.3-1.3,0.8-1.7s1.3-0.6,2.4-0.6h1.7c0-0.5-0.1-0.8-0.4-1.1c-0.3-0.3-0.7-0.4-1.3-0.4
		c-0.4,0-0.8,0.1-1.2,0.2c-0.4,0.1-0.7,0.3-1,0.5l-0.8-1.5c0.4-0.3,0.9-0.5,1.5-0.7c0.6-0.2,1.2-0.2,1.8-0.2
		C444.2,22.1,445.1,22.4,445.8,23z M443.9,28.2c0.3-0.2,0.5-0.4,0.6-0.8v-0.8H443c-0.9,0-1.3,0.3-1.3,0.9c0,0.3,0.1,0.5,0.3,0.7
		c0.2,0.2,0.5,0.2,0.9,0.2C443.3,28.4,443.6,28.3,443.9,28.2z"/>
	<path d="M453.5,29.4c-0.2,0.2-0.5,0.3-0.8,0.4s-0.6,0.1-1,0.1c-0.9,0-1.6-0.2-2.1-0.7c-0.5-0.5-0.7-1.1-0.7-2v-3.1h-1.2v-1.7h1.2
		v-1.8h2.2v1.8h1.9v1.7h-1.9v3.1c0,0.3,0.1,0.6,0.2,0.7s0.4,0.3,0.7,0.3c0.3,0,0.6-0.1,0.9-0.3L453.5,29.4z"/>
	<path d="M462.4,22.2v7.5h-2.1v-0.9c-0.3,0.3-0.6,0.6-1,0.7c-0.4,0.2-0.8,0.3-1.3,0.3c-1,0-1.8-0.3-2.4-0.9
		c-0.6-0.6-0.9-1.4-0.9-2.5v-4.3h2.2v3.9c0,1.2,0.5,1.8,1.5,1.8c0.5,0,0.9-0.2,1.3-0.5s0.5-0.8,0.5-1.5v-3.7H462.4z"/>
	<path d="M465.1,29.7c-0.6-0.2-1.1-0.3-1.4-0.6l0.7-1.6c0.3,0.2,0.7,0.4,1.2,0.5c0.5,0.1,0.9,0.2,1.4,0.2c0.9,0,1.4-0.2,1.4-0.7
		c0-0.2-0.1-0.4-0.4-0.5c-0.3-0.1-0.6-0.2-1.2-0.2c-0.6-0.1-1.1-0.2-1.5-0.3s-0.7-0.3-1-0.6c-0.3-0.3-0.4-0.7-0.4-1.3
		c0-0.5,0.1-0.9,0.4-1.3c0.3-0.4,0.7-0.7,1.2-0.9s1.2-0.3,1.9-0.3c0.5,0,1.1,0.1,1.6,0.2c0.5,0.1,1,0.3,1.3,0.5l-0.7,1.6
		c-0.7-0.4-1.4-0.6-2.2-0.6c-0.5,0-0.8,0.1-1,0.2s-0.4,0.3-0.4,0.5c0,0.2,0.1,0.4,0.4,0.5c0.3,0.1,0.7,0.2,1.2,0.3
		c0.6,0.1,1.1,0.2,1.5,0.3c0.4,0.1,0.7,0.3,1,0.6c0.3,0.3,0.4,0.7,0.4,1.3c0,0.5-0.1,0.9-0.4,1.2c-0.3,0.4-0.7,0.6-1.2,0.8
		c-0.5,0.2-1.2,0.3-1.9,0.3C466.3,29.9,465.7,29.8,465.1,29.7z"/>
	<path d="M473.6,27.5c0.3,0.2,0.4,0.6,0.4,1c0,0.2,0,0.4-0.1,0.6c0,0.2-0.1,0.5-0.3,0.8l-0.8,2h-1.4l0.6-2.2
		c-0.2-0.1-0.4-0.2-0.6-0.5c-0.1-0.2-0.2-0.5-0.2-0.7c0-0.4,0.1-0.7,0.4-1c0.3-0.2,0.6-0.4,1-0.4C473.1,27.2,473.4,27.3,473.6,27.5z
		"/>
</g>
<g class="st3">
	<path d="M26.1,39.8c0.6,0.6,0.9,1.4,0.9,2.5v4.3h-2v-0.9c-0.4,0.7-1.2,1.1-2.3,1.1c-0.6,0-1.1-0.1-1.5-0.3c-0.4-0.2-0.7-0.5-1-0.8
		c-0.2-0.3-0.3-0.7-0.3-1.2c0-0.7,0.3-1.3,0.8-1.7s1.3-0.6,2.4-0.6h1.7c0-0.5-0.1-0.8-0.4-1.1c-0.3-0.3-0.7-0.4-1.3-0.4
		c-0.4,0-0.8,0.1-1.2,0.2s-0.7,0.3-1,0.5l-0.8-1.5c0.4-0.3,0.9-0.5,1.5-0.7c0.6-0.2,1.2-0.2,1.8-0.2C24.6,38.9,25.5,39.2,26.1,39.8z
		 M24.3,45c0.3-0.2,0.5-0.4,0.6-0.8v-0.8h-1.5c-0.9,0-1.3,0.3-1.3,0.9c0,0.3,0.1,0.5,0.3,0.7c0.2,0.2,0.5,0.2,0.9,0.2
		C23.7,45.2,24,45.1,24.3,45z"/>
</g>
<g class="st3">
	<path d="M32.2,39.2c0.4-0.2,1-0.3,1.5-0.3v2c-0.2,0-0.4,0-0.5,0c-0.6,0-1.1,0.2-1.5,0.5c-0.4,0.3-0.5,0.9-0.5,1.6v3.6h-2.2V39h2.1
		v1C31.4,39.7,31.8,39.4,32.2,39.2z"/>
</g>
<g class="st3">
	<path d="M42.3,43.4h-5.7c0.1,0.5,0.3,0.8,0.7,1.1s0.9,0.4,1.4,0.4c0.4,0,0.7-0.1,1-0.2c0.3-0.1,0.6-0.3,0.8-0.6l1.2,1.3
		c-0.7,0.8-1.7,1.2-3.1,1.2c-0.8,0-1.6-0.2-2.3-0.5c-0.7-0.3-1.2-0.8-1.5-1.4c-0.4-0.6-0.5-1.3-0.5-2c0-0.7,0.2-1.4,0.5-2
		s0.8-1.1,1.4-1.4c0.6-0.3,1.3-0.5,2.1-0.5c0.7,0,1.4,0.2,2,0.5c0.6,0.3,1.1,0.8,1.4,1.4s0.5,1.3,0.5,2.1
		C42.3,42.9,42.3,43.1,42.3,43.4z M37.2,41c-0.3,0.3-0.5,0.7-0.6,1.1h3.7c-0.1-0.5-0.3-0.9-0.6-1.1c-0.3-0.3-0.7-0.4-1.2-0.4
		C37.9,40.6,37.5,40.7,37.2,41z"/>
</g>
<g class="st3">
	<path d="M54.4,44.5h-4.6l-0.9,2.1h-2.3l4.4-9.8h2.2l4.4,9.8h-2.4L54.4,44.5z M53.7,42.7L52.1,39l-1.6,3.8H53.7z"/>
</g>
<g class="st3">
	<path d="M59.9,46.2c-0.6-0.3-1.1-0.8-1.5-1.4s-0.5-1.3-0.5-2c0-0.7,0.2-1.4,0.5-2c0.4-0.6,0.9-1,1.5-1.4c0.6-0.3,1.4-0.5,2.2-0.5
		c0.8,0,1.5,0.2,2.1,0.5c0.6,0.3,1,0.8,1.3,1.4l-1.7,0.9c-0.4-0.7-1-1-1.7-1c-0.6,0-1,0.2-1.4,0.6c-0.4,0.4-0.6,0.9-0.6,1.5
		c0,0.6,0.2,1.2,0.6,1.5c0.4,0.4,0.8,0.6,1.4,0.6c0.7,0,1.3-0.3,1.7-1l1.7,0.9c-0.3,0.6-0.7,1.1-1.3,1.4s-1.3,0.5-2.1,0.5
		C61.2,46.7,60.5,46.5,59.9,46.2z"/>
	<path d="M67.9,46.2c-0.6-0.3-1.1-0.8-1.5-1.4s-0.5-1.3-0.5-2c0-0.7,0.2-1.4,0.5-2c0.4-0.6,0.9-1,1.5-1.4c0.6-0.3,1.4-0.5,2.2-0.5
		c0.8,0,1.5,0.2,2.1,0.5c0.6,0.3,1,0.8,1.3,1.4l-1.7,0.9c-0.4-0.7-1-1-1.7-1c-0.6,0-1,0.2-1.4,0.6c-0.4,0.4-0.6,0.9-0.6,1.5
		c0,0.6,0.2,1.2,0.6,1.5c0.4,0.4,0.8,0.6,1.4,0.6c0.7,0,1.3-0.3,1.7-1l1.7,0.9c-0.3,0.6-0.7,1.1-1.3,1.4s-1.3,0.5-2.1,0.5
		C69.3,46.7,68.6,46.5,67.9,46.2z"/>
</g>
<g class="st3">
	<path d="M82.1,43.4h-5.7c0.1,0.5,0.3,0.8,0.7,1.1s0.9,0.4,1.4,0.4c0.4,0,0.7-0.1,1-0.2c0.3-0.1,0.6-0.3,0.8-0.6l1.2,1.3
		c-0.7,0.8-1.7,1.2-3.1,1.2c-0.8,0-1.6-0.2-2.3-0.5s-1.2-0.8-1.5-1.4c-0.4-0.6-0.5-1.3-0.5-2c0-0.7,0.2-1.4,0.5-2
		c0.3-0.6,0.8-1.1,1.4-1.4c0.6-0.3,1.3-0.5,2.1-0.5c0.7,0,1.4,0.2,2,0.5c0.6,0.3,1.1,0.8,1.4,1.4s0.5,1.3,0.5,2.1
		C82.1,42.9,82.1,43.1,82.1,43.4z M77,41c-0.3,0.3-0.5,0.7-0.6,1.1h3.7c-0.1-0.5-0.3-0.9-0.6-1.1c-0.3-0.3-0.7-0.4-1.2-0.4
		C77.7,40.6,77.3,40.7,77,41z"/>
	<path d="M84.3,46.5c-0.6-0.2-1.1-0.3-1.4-0.6l0.7-1.6c0.3,0.2,0.7,0.4,1.2,0.5c0.5,0.1,0.9,0.2,1.4,0.2c0.9,0,1.4-0.2,1.4-0.7
		c0-0.2-0.1-0.4-0.4-0.5c-0.3-0.1-0.6-0.2-1.2-0.2c-0.6-0.1-1.1-0.2-1.5-0.3s-0.7-0.3-1-0.6c-0.3-0.3-0.4-0.7-0.4-1.3
		c0-0.5,0.1-0.9,0.4-1.3c0.3-0.4,0.7-0.7,1.2-0.9s1.2-0.3,1.9-0.3c0.5,0,1.1,0.1,1.6,0.2c0.5,0.1,1,0.3,1.3,0.5l-0.7,1.6
		c-0.7-0.4-1.4-0.6-2.2-0.6c-0.5,0-0.8,0.1-1,0.2s-0.4,0.3-0.4,0.5c0,0.2,0.1,0.4,0.4,0.5c0.3,0.1,0.7,0.2,1.2,0.3
		c0.6,0.1,1.1,0.2,1.5,0.3c0.4,0.1,0.7,0.3,1,0.6c0.3,0.3,0.4,0.7,0.4,1.3c0,0.5-0.1,0.9-0.4,1.2c-0.3,0.4-0.7,0.6-1.2,0.8
		c-0.5,0.2-1.2,0.3-1.9,0.3C85.5,46.7,84.9,46.6,84.3,46.5z"/>
	<path d="M91.7,46.5c-0.6-0.2-1.1-0.3-1.4-0.6l0.7-1.6c0.3,0.2,0.7,0.4,1.2,0.5c0.5,0.1,0.9,0.2,1.4,0.2c0.9,0,1.4-0.2,1.4-0.7
		c0-0.2-0.1-0.4-0.4-0.5c-0.3-0.1-0.6-0.2-1.2-0.2c-0.6-0.1-1.1-0.2-1.5-0.3s-0.7-0.3-1-0.6c-0.3-0.3-0.4-0.7-0.4-1.3
		c0-0.5,0.1-0.9,0.4-1.3c0.3-0.4,0.7-0.7,1.2-0.9s1.2-0.3,1.9-0.3c0.5,0,1.1,0.1,1.6,0.2c0.5,0.1,1,0.3,1.3,0.5l-0.7,1.6
		c-0.7-0.4-1.4-0.6-2.2-0.6c-0.5,0-0.8,0.1-1,0.2s-0.4,0.3-0.4,0.5c0,0.2,0.1,0.4,0.4,0.5c0.3,0.1,0.7,0.2,1.2,0.3
		c0.6,0.1,1.1,0.2,1.5,0.3c0.4,0.1,0.7,0.3,1,0.6c0.3,0.3,0.4,0.7,0.4,1.3c0,0.5-0.1,0.9-0.4,1.2c-0.3,0.4-0.7,0.6-1.2,0.8
		c-0.5,0.2-1.2,0.3-1.9,0.3C92.9,46.7,92.3,46.6,91.7,46.5z"/>
	<path d="M98.6,37.6c-0.3-0.2-0.4-0.5-0.4-0.9c0-0.3,0.1-0.6,0.4-0.9s0.6-0.3,1-0.3s0.7,0.1,1,0.3c0.3,0.2,0.4,0.5,0.4,0.8
		c0,0.4-0.1,0.7-0.4,0.9c-0.3,0.2-0.6,0.4-1,0.4S98.8,37.9,98.6,37.6z M98.5,39h2.2v7.5h-2.2V39z"/>
</g>
<g class="st3">
	<path d="M109.5,39.8c0.6,0.6,0.9,1.4,0.9,2.5v4.3h-2.2v-4c0-0.6-0.1-1-0.4-1.3c-0.3-0.3-0.6-0.4-1.1-0.4c-0.6,0-1,0.2-1.3,0.5
		c-0.3,0.3-0.5,0.8-0.5,1.5v3.7h-2.2V39h2.1v0.9c0.3-0.3,0.6-0.6,1.1-0.7s0.9-0.3,1.4-0.3C108.2,38.9,108.9,39.2,109.5,39.8z"/>
</g>
<g class="st3">
	<path d="M120.2,39v6.3c0,1.4-0.4,2.4-1.1,3.1c-0.7,0.7-1.8,1-3.2,1c-0.7,0-1.4-0.1-2.1-0.3c-0.7-0.2-1.2-0.4-1.6-0.8l0.9-1.6
		c0.3,0.3,0.7,0.5,1.2,0.6c0.5,0.2,1,0.2,1.5,0.2c0.8,0,1.3-0.2,1.7-0.5c0.4-0.3,0.5-0.9,0.5-1.5v-0.3c-0.6,0.6-1.4,0.9-2.4,0.9
		c-0.7,0-1.3-0.2-1.9-0.5c-0.6-0.3-1-0.7-1.4-1.3s-0.5-1.2-0.5-1.9s0.2-1.4,0.5-1.9s0.8-1,1.4-1.3c0.6-0.3,1.2-0.5,1.9-0.5
		c1.1,0,1.9,0.4,2.5,1.1v-1H120.2z M117.5,43.9c0.4-0.3,0.6-0.8,0.6-1.3s-0.2-1-0.6-1.3s-0.8-0.5-1.4-0.5s-1.1,0.2-1.4,0.5
		c-0.4,0.3-0.6,0.8-0.6,1.3s0.2,1,0.6,1.3c0.4,0.3,0.8,0.5,1.4,0.5S117.1,44.2,117.5,43.9z"/>
</g>
<g class="st3">
	<path d="M128.4,38.6h-3.1v-1.8h8.5v1.8h-3.1v8h-2.3V38.6z"/>
</g>
<g class="st3">
	<path d="M137.8,39.2c0.4-0.2,1-0.3,1.5-0.3v2c-0.2,0-0.4,0-0.5,0c-0.6,0-1.1,0.2-1.5,0.5c-0.4,0.3-0.5,0.9-0.5,1.6v3.6h-2.2V39h2.1
		v1C137,39.7,137.4,39.4,137.8,39.2z"/>
</g>
<g class="st3">
	<path d="M147.9,43.4h-5.7c0.1,0.5,0.3,0.8,0.7,1.1s0.9,0.4,1.4,0.4c0.4,0,0.7-0.1,1-0.2c0.3-0.1,0.6-0.3,0.8-0.6l1.2,1.3
		c-0.7,0.8-1.7,1.2-3.1,1.2c-0.8,0-1.6-0.2-2.3-0.5c-0.7-0.3-1.2-0.8-1.5-1.4c-0.4-0.6-0.5-1.3-0.5-2c0-0.7,0.2-1.4,0.5-2
		s0.8-1.1,1.4-1.4c0.6-0.3,1.3-0.5,2.1-0.5c0.7,0,1.4,0.2,2,0.5c0.6,0.3,1.1,0.8,1.4,1.4s0.5,1.3,0.5,2.1
		C148,42.9,148,43.1,147.9,43.4z M142.8,41c-0.3,0.3-0.5,0.7-0.6,1.1h3.7c-0.1-0.5-0.3-0.9-0.6-1.1c-0.3-0.3-0.7-0.4-1.2-0.4
		C143.6,40.6,143.1,40.7,142.8,41z"/>
</g>
<g class="st3">
	<path d="M154.9,39.8c0.6,0.6,0.9,1.4,0.9,2.5v4.3h-2v-0.9c-0.4,0.7-1.2,1.1-2.3,1.1c-0.6,0-1.1-0.1-1.5-0.3c-0.4-0.2-0.7-0.5-1-0.8
		c-0.2-0.3-0.3-0.7-0.3-1.2c0-0.7,0.3-1.3,0.8-1.7s1.3-0.6,2.4-0.6h1.7c0-0.5-0.1-0.8-0.4-1.1c-0.3-0.3-0.7-0.4-1.3-0.4
		c-0.4,0-0.8,0.1-1.2,0.2s-0.7,0.3-1,0.5l-0.8-1.5c0.4-0.3,0.9-0.5,1.5-0.7c0.6-0.2,1.2-0.2,1.8-0.2
		C153.4,38.9,154.3,39.2,154.9,39.8z M153.1,45c0.3-0.2,0.5-0.4,0.6-0.8v-0.8h-1.5c-0.9,0-1.3,0.3-1.3,0.9c0,0.3,0.1,0.5,0.3,0.7
		c0.2,0.2,0.5,0.2,0.9,0.2C152.5,45.2,152.8,45.1,153.1,45z"/>
	<path d="M162.7,46.2c-0.2,0.2-0.5,0.3-0.8,0.4c-0.3,0.1-0.6,0.1-1,0.1c-0.9,0-1.6-0.2-2.1-0.7c-0.5-0.5-0.7-1.1-0.7-2v-3.1H157
		v-1.7h1.2v-1.8h2.2v1.8h1.9v1.7h-1.9V44c0,0.3,0.1,0.6,0.2,0.7c0.2,0.2,0.4,0.3,0.7,0.3c0.3,0,0.6-0.1,0.9-0.3L162.7,46.2z"/>
</g>
<g class="st3">
	<path d="M175.8,39.8c0.6,0.6,0.8,1.4,0.8,2.5v4.3h-2.2v-4c0-0.6-0.1-1-0.4-1.3c-0.2-0.3-0.6-0.4-1.1-0.4c-0.5,0-0.9,0.2-1.2,0.5
		s-0.4,0.8-0.4,1.5v3.8h-2.2v-4c0-1.2-0.5-1.8-1.4-1.8c-0.5,0-0.9,0.2-1.2,0.5c-0.3,0.3-0.4,0.8-0.4,1.5v3.8h-2.2V39h2.1v0.9
		c0.3-0.3,0.6-0.6,1-0.7c0.4-0.2,0.9-0.3,1.3-0.3c0.5,0,1,0.1,1.4,0.3s0.8,0.5,1,0.9c0.3-0.4,0.7-0.7,1.2-0.9c0.5-0.2,1-0.3,1.5-0.3
		C174.5,38.9,175.3,39.2,175.8,39.8z"/>
</g>
<g class="st3">
	<path d="M186,43.4h-5.7c0.1,0.5,0.3,0.8,0.7,1.1s0.9,0.4,1.4,0.4c0.4,0,0.7-0.1,1-0.2c0.3-0.1,0.6-0.3,0.8-0.6l1.2,1.3
		c-0.7,0.8-1.7,1.2-3.1,1.2c-0.8,0-1.6-0.2-2.3-0.5c-0.7-0.3-1.2-0.8-1.5-1.4c-0.4-0.6-0.5-1.3-0.5-2c0-0.7,0.2-1.4,0.5-2
		s0.8-1.1,1.4-1.4c0.6-0.3,1.3-0.5,2.1-0.5c0.7,0,1.4,0.2,2,0.5c0.6,0.3,1.1,0.8,1.4,1.4s0.5,1.3,0.5,2.1
		C186.1,42.9,186.1,43.1,186,43.4z M180.9,41c-0.3,0.3-0.5,0.7-0.6,1.1h3.7c-0.1-0.5-0.3-0.9-0.6-1.1c-0.3-0.3-0.7-0.4-1.2-0.4
		C181.7,40.6,181.3,40.7,180.9,41z"/>
	<path d="M194.4,39.8c0.6,0.6,0.9,1.4,0.9,2.5v4.3h-2.2v-4c0-0.6-0.1-1-0.4-1.3c-0.3-0.3-0.6-0.4-1.1-0.4c-0.6,0-1,0.2-1.3,0.5
		c-0.3,0.3-0.5,0.8-0.5,1.5v3.7h-2.2V39h2.1v0.9c0.3-0.3,0.6-0.6,1.1-0.7s0.9-0.3,1.4-0.3C193.1,38.9,193.8,39.2,194.4,39.8z"/>
</g>
<g class="st3">
	<path d="M202.1,46.2c-0.2,0.2-0.5,0.3-0.8,0.4c-0.3,0.1-0.6,0.1-1,0.1c-0.9,0-1.6-0.2-2.1-0.7c-0.5-0.5-0.7-1.1-0.7-2v-3.1h-1.2
		v-1.7h1.2v-1.8h2.2v1.8h1.9v1.7h-1.9V44c0,0.3,0.1,0.6,0.2,0.7c0.2,0.2,0.4,0.3,0.7,0.3c0.3,0,0.6-0.1,0.9-0.3L202.1,46.2z"/>
</g>
<g class="st3">
	<path d="M205.3,44.3c0.3,0.2,0.4,0.6,0.4,1c0,0.2,0,0.4-0.1,0.6c0,0.2-0.1,0.5-0.3,0.8l-0.8,2h-1.4l0.6-2.2
		c-0.2-0.1-0.4-0.2-0.6-0.5s-0.2-0.5-0.2-0.7c0-0.4,0.1-0.7,0.4-1c0.3-0.2,0.6-0.4,1-0.4S205,44.1,205.3,44.3z"/>
	<path d="M216.8,39.8c0.6,0.6,0.9,1.4,0.9,2.5v4.3h-2v-0.9c-0.4,0.7-1.2,1.1-2.3,1.1c-0.6,0-1.1-0.1-1.5-0.3c-0.4-0.2-0.7-0.5-1-0.8
		c-0.2-0.3-0.3-0.7-0.3-1.2c0-0.7,0.3-1.3,0.8-1.7s1.3-0.6,2.4-0.6h1.7c0-0.5-0.1-0.8-0.4-1.1c-0.3-0.3-0.7-0.4-1.3-0.4
		c-0.4,0-0.8,0.1-1.2,0.2s-0.7,0.3-1,0.5l-0.8-1.5c0.4-0.3,0.9-0.5,1.5-0.7c0.6-0.2,1.2-0.2,1.8-0.2
		C215.3,38.9,216.2,39.2,216.8,39.8z M214.9,45c0.3-0.2,0.5-0.4,0.6-0.8v-0.8h-1.5c-0.9,0-1.3,0.3-1.3,0.9c0,0.3,0.1,0.5,0.3,0.7
		c0.2,0.2,0.5,0.2,0.9,0.2C214.3,45.2,214.7,45.1,214.9,45z"/>
</g>
<g class="st3">
	<path d="M226.6,39.8c0.6,0.6,0.9,1.4,0.9,2.5v4.3h-2.2v-4c0-0.6-0.1-1-0.4-1.3c-0.3-0.3-0.6-0.4-1.1-0.4c-0.6,0-1,0.2-1.3,0.5
		c-0.3,0.3-0.5,0.8-0.5,1.5v3.7h-2.2V39h2.1v0.9c0.3-0.3,0.6-0.6,1.1-0.7s0.9-0.3,1.4-0.3C225.2,38.9,226,39.2,226.6,39.8z"/>
</g>
<g class="st3">
	<path d="M237.2,36.2v10.4h-2.1v-0.9c-0.5,0.7-1.3,1-2.4,1c-0.7,0-1.4-0.2-1.9-0.5s-1-0.8-1.4-1.4c-0.3-0.6-0.5-1.3-0.5-2
		c0-0.8,0.2-1.5,0.5-2c0.3-0.6,0.8-1,1.4-1.4s1.2-0.5,1.9-0.5c1,0,1.7,0.3,2.3,0.9v-3.7H237.2z M234.5,44.3c0.4-0.4,0.5-0.9,0.5-1.5
		s-0.2-1.1-0.5-1.5s-0.8-0.6-1.4-0.6c-0.6,0-1,0.2-1.4,0.6s-0.5,0.9-0.5,1.5s0.2,1.1,0.5,1.5s0.8,0.6,1.4,0.6
		C233.6,44.9,234.1,44.7,234.5,44.3z"/>
	<path d="M252.3,36.8v9.8H250v-4h-4.5v4h-2.3v-9.8h2.3v3.9h4.5v-3.9H252.3z"/>
</g>
<g class="st3">
	<path d="M260.2,39.8c0.6,0.6,0.9,1.4,0.9,2.5v4.3h-2v-0.9c-0.4,0.7-1.2,1.1-2.3,1.1c-0.6,0-1.1-0.1-1.5-0.3c-0.4-0.2-0.7-0.5-1-0.8
		c-0.2-0.3-0.3-0.7-0.3-1.2c0-0.7,0.3-1.3,0.8-1.7s1.3-0.6,2.4-0.6h1.7c0-0.5-0.1-0.8-0.4-1.1c-0.3-0.3-0.7-0.4-1.3-0.4
		c-0.4,0-0.8,0.1-1.2,0.2c-0.4,0.1-0.7,0.3-1,0.5l-0.8-1.5c0.4-0.3,0.9-0.5,1.5-0.7c0.6-0.2,1.2-0.2,1.8-0.2
		C258.6,38.9,259.5,39.2,260.2,39.8z M258.3,45c0.3-0.2,0.5-0.4,0.6-0.8v-0.8h-1.5c-0.9,0-1.3,0.3-1.3,0.9c0,0.3,0.1,0.5,0.3,0.7
		c0.2,0.2,0.5,0.2,0.9,0.2C257.7,45.2,258,45.1,258.3,45z"/>
</g>
<g class="st3">
	<path d="M270.4,39l-3.2,7.5H265l-3.2-7.5h2.3l2.1,5.1l2.2-5.1H270.4z"/>
</g>
<g class="st3">
	<path d="M278.4,43.4h-5.7c0.1,0.5,0.3,0.8,0.7,1.1s0.9,0.4,1.4,0.4c0.4,0,0.7-0.1,1-0.2c0.3-0.1,0.6-0.3,0.8-0.6l1.2,1.3
		c-0.7,0.8-1.7,1.2-3.1,1.2c-0.8,0-1.6-0.2-2.3-0.5s-1.2-0.8-1.5-1.4c-0.4-0.6-0.5-1.3-0.5-2c0-0.7,0.2-1.4,0.5-2
		c0.3-0.6,0.8-1.1,1.4-1.4c0.6-0.3,1.3-0.5,2.1-0.5c0.7,0,1.4,0.2,2,0.5c0.6,0.3,1.1,0.8,1.4,1.4s0.5,1.3,0.5,2.1
		C278.5,42.9,278.5,43.1,278.4,43.4z M273.3,41c-0.3,0.3-0.5,0.7-0.6,1.1h3.7c-0.1-0.5-0.3-0.9-0.6-1.1c-0.3-0.3-0.7-0.4-1.2-0.4
		C274.1,40.6,273.7,40.7,273.3,41z"/>
	<path d="M289.6,39.8c0.6,0.6,0.9,1.4,0.9,2.5v4.3h-2v-0.9c-0.4,0.7-1.2,1.1-2.3,1.1c-0.6,0-1.1-0.1-1.5-0.3c-0.4-0.2-0.7-0.5-1-0.8
		c-0.2-0.3-0.3-0.7-0.3-1.2c0-0.7,0.3-1.3,0.8-1.7s1.3-0.6,2.4-0.6h1.7c0-0.5-0.1-0.8-0.4-1.1c-0.3-0.3-0.7-0.4-1.3-0.4
		c-0.4,0-0.8,0.1-1.2,0.2c-0.4,0.1-0.7,0.3-1,0.5l-0.8-1.5c0.4-0.3,0.9-0.5,1.5-0.7c0.6-0.2,1.2-0.2,1.8-0.2
		C288.1,38.9,289,39.2,289.6,39.8z M287.8,45c0.3-0.2,0.5-0.4,0.6-0.8v-0.8h-1.5c-0.9,0-1.3,0.3-1.3,0.9c0,0.3,0.1,0.5,0.3,0.7
		c0.2,0.2,0.5,0.2,0.9,0.2C287.1,45.2,287.5,45.1,287.8,45z"/>
	<path d="M297.6,46.4c-0.7-0.2-1.3-0.5-1.7-0.8l0.8-1.7c0.4,0.3,0.9,0.6,1.5,0.7s1.2,0.3,1.7,0.3c0.6,0,1.1-0.1,1.4-0.3
		c0.3-0.2,0.5-0.4,0.5-0.8c0-0.2-0.1-0.4-0.3-0.6c-0.2-0.2-0.4-0.3-0.7-0.4c-0.3-0.1-0.7-0.2-1.2-0.3c-0.7-0.2-1.4-0.4-1.8-0.5
		c-0.5-0.2-0.9-0.5-1.2-0.9c-0.3-0.4-0.5-0.9-0.5-1.6c0-0.6,0.2-1.1,0.5-1.5c0.3-0.5,0.8-0.8,1.4-1.1c0.6-0.3,1.4-0.4,2.3-0.4
		c0.6,0,1.2,0.1,1.8,0.2c0.6,0.1,1.1,0.4,1.6,0.6l-0.7,1.7c-0.9-0.5-1.8-0.8-2.7-0.8c-0.6,0-1.1,0.1-1.4,0.3
		c-0.3,0.2-0.5,0.5-0.5,0.8s0.2,0.6,0.5,0.7c0.3,0.2,0.9,0.3,1.6,0.5c0.7,0.2,1.4,0.4,1.8,0.5c0.5,0.2,0.9,0.5,1.2,0.8
		s0.5,0.9,0.5,1.6c0,0.6-0.2,1.1-0.5,1.5s-0.8,0.8-1.4,1.1s-1.4,0.4-2.3,0.4C299.1,46.7,298.3,46.6,297.6,46.4z"/>
	<path d="M313,39v7.5h-2.1v-0.9c-0.3,0.3-0.6,0.6-1,0.7c-0.4,0.2-0.8,0.3-1.3,0.3c-1,0-1.8-0.3-2.4-0.9c-0.6-0.6-0.9-1.4-0.9-2.5V39
		h2.2V43c0,1.2,0.5,1.8,1.5,1.8c0.5,0,0.9-0.2,1.3-0.5s0.5-0.8,0.5-1.5V39H313z"/>
	<path d="M321.4,39.4c0.6,0.3,1,0.8,1.4,1.4c0.3,0.6,0.5,1.3,0.5,2c0,0.8-0.2,1.5-0.5,2c-0.3,0.6-0.8,1-1.4,1.4s-1.2,0.5-1.9,0.5
		c-1,0-1.7-0.3-2.3-0.9v3.5H315V39h2.1v0.9c0.5-0.7,1.3-1,2.4-1C320.2,38.9,320.8,39.1,321.4,39.4z M320.5,44.3
		c0.4-0.4,0.5-0.9,0.5-1.5s-0.2-1.1-0.5-1.5s-0.8-0.6-1.4-0.6c-0.6,0-1,0.2-1.4,0.6s-0.5,0.9-0.5,1.5s0.2,1.1,0.5,1.5
		s0.8,0.6,1.4,0.6C319.7,44.9,320.1,44.7,320.5,44.3z"/>
	<path d="M331.1,39.4c0.6,0.3,1,0.8,1.4,1.4s0.5,1.3,0.5,2c0,0.8-0.2,1.5-0.5,2c-0.3,0.6-0.8,1-1.4,1.4c-0.6,0.3-1.2,0.5-1.9,0.5
		c-1,0-1.7-0.3-2.3-0.9v3.5h-2.2V39h2.1v0.9c0.5-0.7,1.3-1,2.4-1C329.9,38.9,330.5,39.1,331.1,39.4z M330.2,44.3
		c0.4-0.4,0.5-0.9,0.5-1.5s-0.2-1.1-0.5-1.5s-0.8-0.6-1.4-0.6c-0.6,0-1,0.2-1.4,0.6c-0.4,0.4-0.5,0.9-0.5,1.5s0.2,1.1,0.5,1.5
		c0.4,0.4,0.8,0.6,1.4,0.6C329.3,44.9,329.8,44.7,330.2,44.3z"/>
</g>
<g class="st3">
	<path d="M337.5,39.2c0.4-0.2,1-0.3,1.5-0.3v2c-0.2,0-0.4,0-0.5,0c-0.6,0-1.1,0.2-1.5,0.5c-0.4,0.3-0.5,0.9-0.5,1.6v3.6h-2.2V39h2.1
		v1C336.7,39.7,337.1,39.4,337.5,39.2z"/>
</g>
<g class="st3">
	<path d="M347.6,43.4h-5.7c0.1,0.5,0.3,0.8,0.7,1.1s0.9,0.4,1.4,0.4c0.4,0,0.7-0.1,1-0.2c0.3-0.1,0.6-0.3,0.8-0.6l1.2,1.3
		c-0.7,0.8-1.7,1.2-3.1,1.2c-0.8,0-1.6-0.2-2.3-0.5s-1.2-0.8-1.5-1.4c-0.4-0.6-0.5-1.3-0.5-2c0-0.7,0.2-1.4,0.5-2
		c0.3-0.6,0.8-1.1,1.4-1.4c0.6-0.3,1.3-0.5,2.1-0.5c0.7,0,1.4,0.2,2,0.5c0.6,0.3,1.1,0.8,1.4,1.4s0.5,1.3,0.5,2.1
		C347.6,42.9,347.6,43.1,347.6,43.4z M342.5,41c-0.3,0.3-0.5,0.7-0.6,1.1h3.7c-0.1-0.5-0.3-0.9-0.6-1.1c-0.3-0.3-0.7-0.4-1.2-0.4
		C343.2,40.6,342.8,40.7,342.5,41z"/>
	<path d="M349.8,46.5c-0.6-0.2-1.1-0.3-1.4-0.6l0.7-1.6c0.3,0.2,0.7,0.4,1.2,0.5c0.5,0.1,0.9,0.2,1.4,0.2c0.9,0,1.4-0.2,1.4-0.7
		c0-0.2-0.1-0.4-0.4-0.5c-0.3-0.1-0.6-0.2-1.2-0.2c-0.6-0.1-1.1-0.2-1.5-0.3s-0.7-0.3-1-0.6c-0.3-0.3-0.4-0.7-0.4-1.3
		c0-0.5,0.1-0.9,0.4-1.3c0.3-0.4,0.7-0.7,1.2-0.9s1.2-0.3,1.9-0.3c0.5,0,1.1,0.1,1.6,0.2c0.5,0.1,1,0.3,1.3,0.5l-0.7,1.6
		c-0.7-0.4-1.4-0.6-2.2-0.6c-0.5,0-0.8,0.1-1,0.2s-0.4,0.3-0.4,0.5c0,0.2,0.1,0.4,0.4,0.5c0.3,0.1,0.7,0.2,1.2,0.3
		c0.6,0.1,1.1,0.2,1.5,0.3c0.4,0.1,0.7,0.3,1,0.6c0.3,0.3,0.4,0.7,0.4,1.3c0,0.5-0.1,0.9-0.4,1.2c-0.3,0.4-0.7,0.6-1.2,0.8
		c-0.5,0.2-1.2,0.3-1.9,0.3C351,46.7,350.4,46.6,349.8,46.5z"/>
	<path d="M357.2,46.5c-0.6-0.2-1.1-0.3-1.4-0.6l0.7-1.6c0.3,0.2,0.7,0.4,1.2,0.5c0.5,0.1,0.9,0.2,1.4,0.2c0.9,0,1.4-0.2,1.4-0.7
		c0-0.2-0.1-0.4-0.4-0.5c-0.3-0.1-0.6-0.2-1.2-0.2c-0.6-0.1-1.1-0.2-1.5-0.3s-0.7-0.3-1-0.6c-0.3-0.3-0.4-0.7-0.4-1.3
		c0-0.5,0.1-0.9,0.4-1.3c0.3-0.4,0.7-0.7,1.2-0.9s1.2-0.3,1.9-0.3c0.5,0,1.1,0.1,1.6,0.2c0.5,0.1,1,0.3,1.3,0.5l-0.7,1.6
		c-0.7-0.4-1.4-0.6-2.2-0.6c-0.5,0-0.8,0.1-1,0.2s-0.4,0.3-0.4,0.5c0,0.2,0.1,0.4,0.4,0.5c0.3,0.1,0.7,0.2,1.2,0.3
		c0.6,0.1,1.1,0.2,1.5,0.3c0.4,0.1,0.7,0.3,1,0.6c0.3,0.3,0.4,0.7,0.4,1.3c0,0.5-0.1,0.9-0.4,1.2c-0.3,0.4-0.7,0.6-1.2,0.8
		c-0.5,0.2-1.2,0.3-1.9,0.3C358.4,46.7,357.8,46.6,357.2,46.5z"/>
	<path d="M371.3,43.4h-5.7c0.1,0.5,0.3,0.8,0.7,1.1s0.9,0.4,1.4,0.4c0.4,0,0.7-0.1,1-0.2c0.3-0.1,0.6-0.3,0.8-0.6l1.2,1.3
		c-0.7,0.8-1.7,1.2-3.1,1.2c-0.8,0-1.6-0.2-2.3-0.5c-0.7-0.3-1.2-0.8-1.5-1.4s-0.5-1.3-0.5-2c0-0.7,0.2-1.4,0.5-2
		c0.4-0.6,0.8-1.1,1.4-1.4c0.6-0.3,1.3-0.5,2.1-0.5c0.7,0,1.4,0.2,2,0.5s1.1,0.8,1.4,1.4s0.5,1.3,0.5,2.1
		C371.3,42.9,371.3,43.1,371.3,43.4z M366.2,41c-0.3,0.3-0.5,0.7-0.6,1.1h3.7c-0.1-0.5-0.3-0.9-0.6-1.1c-0.3-0.3-0.7-0.4-1.2-0.4
		C366.9,40.6,366.5,40.7,366.2,41z"/>
	<path d="M380.5,36.2v10.4h-2.1v-0.9c-0.5,0.7-1.3,1-2.4,1c-0.7,0-1.4-0.2-1.9-0.5c-0.6-0.3-1-0.8-1.4-1.4c-0.3-0.6-0.5-1.3-0.5-2
		c0-0.8,0.2-1.5,0.5-2c0.3-0.6,0.8-1,1.4-1.4c0.6-0.3,1.2-0.5,1.9-0.5c1,0,1.7,0.3,2.3,0.9v-3.7H380.5z M377.8,44.3
		c0.4-0.4,0.5-0.9,0.5-1.5s-0.2-1.1-0.5-1.5c-0.4-0.4-0.8-0.6-1.4-0.6c-0.6,0-1,0.2-1.4,0.6c-0.4,0.4-0.5,0.9-0.5,1.5
		s0.2,1.1,0.5,1.5c0.4,0.4,0.8,0.6,1.4,0.6C377,44.9,377.4,44.7,377.8,44.3z"/>
</g>
<g class="st3">
	<path d="M396,36.8l-4.2,9.8h-2.2l-4.2-9.8h2.5l3,7l3-7H396z"/>
</g>
<g class="st3">
	<path d="M396.9,37.6c-0.3-0.2-0.4-0.5-0.4-0.9c0-0.3,0.1-0.6,0.4-0.9s0.6-0.3,1-0.3s0.7,0.1,1,0.3c0.3,0.2,0.4,0.5,0.4,0.8
		c0,0.4-0.1,0.7-0.4,0.9c-0.3,0.2-0.6,0.4-1,0.4S397.2,37.9,396.9,37.6z M396.8,39h2.2v7.5h-2.2V39z"/>
</g>
<g class="st3">
	<path d="M404.2,39.2c0.4-0.2,1-0.3,1.5-0.3v2c-0.2,0-0.4,0-0.5,0c-0.6,0-1.1,0.2-1.5,0.5c-0.4,0.3-0.5,0.9-0.5,1.6v3.6H401V39h2.1
		v1C403.4,39.7,403.7,39.4,404.2,39.2z"/>
</g>
<g class="st3">
	<path d="M412.7,39.8c0.6,0.6,0.9,1.4,0.9,2.5v4.3h-2v-0.9c-0.4,0.7-1.2,1.1-2.3,1.1c-0.6,0-1.1-0.1-1.5-0.3c-0.4-0.2-0.7-0.5-1-0.8
		c-0.2-0.3-0.3-0.7-0.3-1.2c0-0.7,0.3-1.3,0.8-1.7s1.3-0.6,2.4-0.6h1.7c0-0.5-0.1-0.8-0.4-1.1c-0.3-0.3-0.7-0.4-1.3-0.4
		c-0.4,0-0.8,0.1-1.2,0.2c-0.4,0.1-0.7,0.3-1,0.5l-0.8-1.5c0.4-0.3,0.9-0.5,1.5-0.7c0.6-0.2,1.2-0.2,1.8-0.2
		C411.2,38.9,412.1,39.2,412.7,39.8z M410.8,45c0.3-0.2,0.5-0.4,0.6-0.8v-0.8H410c-0.9,0-1.3,0.3-1.3,0.9c0,0.3,0.1,0.5,0.3,0.7
		c0.2,0.2,0.5,0.2,0.9,0.2C410.2,45.2,410.6,45.1,410.8,45z"/>
	<path d="M415.6,36.2h2.2v10.4h-2.2V36.2z"/>
</g>
<g class="st3">
	<path d="M424,36.8h2.3v8h4.9v1.8H424V36.8z"/>
</g>
<g class="st3">
	<path d="M433.6,46.2c-0.6-0.3-1.1-0.8-1.5-1.4s-0.5-1.3-0.5-2c0-0.7,0.2-1.4,0.5-2c0.4-0.6,0.8-1,1.5-1.4c0.6-0.3,1.3-0.5,2.1-0.5
		s1.5,0.2,2.1,0.5c0.6,0.3,1.1,0.8,1.5,1.4c0.4,0.6,0.5,1.3,0.5,2c0,0.7-0.2,1.4-0.5,2s-0.8,1-1.5,1.4s-1.3,0.5-2.1,0.5
		S434.3,46.5,433.6,46.2z M437.2,44.3c0.4-0.4,0.5-0.9,0.5-1.5s-0.2-1.1-0.5-1.5s-0.8-0.6-1.4-0.6s-1,0.2-1.4,0.6
		c-0.4,0.4-0.5,0.9-0.5,1.5s0.2,1.1,0.5,1.5c0.4,0.4,0.8,0.6,1.4,0.6S436.8,44.7,437.2,44.3z"/>
</g>
<g class="st3">
	<path d="M447,39.8c0.6,0.6,0.9,1.4,0.9,2.5v4.3h-2v-0.9c-0.4,0.7-1.2,1.1-2.3,1.1c-0.6,0-1.1-0.1-1.5-0.3c-0.4-0.2-0.7-0.5-1-0.8
		c-0.2-0.3-0.3-0.7-0.3-1.2c0-0.7,0.3-1.3,0.8-1.7s1.3-0.6,2.4-0.6h1.7c0-0.5-0.1-0.8-0.4-1.1c-0.3-0.3-0.7-0.4-1.3-0.4
		c-0.4,0-0.8,0.1-1.2,0.2s-0.7,0.3-1,0.5l-0.8-1.5c0.4-0.3,0.9-0.5,1.5-0.7c0.6-0.2,1.2-0.2,1.8-0.2C445.4,38.9,446.3,39.2,447,39.8
		z M445.1,45c0.3-0.2,0.5-0.4,0.6-0.8v-0.8h-1.5c-0.9,0-1.3,0.3-1.3,0.9c0,0.3,0.1,0.5,0.3,0.7c0.2,0.2,0.5,0.2,0.9,0.2
		C444.5,45.2,444.8,45.1,445.1,45z"/>
</g>
<g class="st3">
	<path d="M457.6,36.2v10.4h-2.1v-0.9c-0.5,0.7-1.3,1-2.4,1c-0.7,0-1.4-0.2-1.9-0.5c-0.6-0.3-1-0.8-1.4-1.4c-0.3-0.6-0.5-1.3-0.5-2
		c0-0.8,0.2-1.5,0.5-2c0.3-0.6,0.8-1,1.4-1.4c0.6-0.3,1.2-0.5,1.9-0.5c1,0,1.7,0.3,2.3,0.9v-3.7H457.6z M454.9,44.3
		c0.4-0.4,0.5-0.9,0.5-1.5s-0.2-1.1-0.5-1.5c-0.4-0.4-0.8-0.6-1.4-0.6c-0.6,0-1,0.2-1.4,0.6c-0.4,0.4-0.5,0.9-0.5,1.5
		s0.2,1.1,0.5,1.5c0.4,0.4,0.8,0.6,1.4,0.6C454.1,44.9,454.6,44.7,454.9,44.3z"/>
	<path d="M464.1,46.3c-0.3-1.1-0.5-2.3-0.5-3.6s0.2-2.5,0.5-3.6c0.3-1.1,0.7-2.1,1.3-2.9h2.1c-0.6,1-1,2.1-1.3,3.2
		c-0.3,1.1-0.4,2.2-0.4,3.4s0.1,2.3,0.4,3.4c0.3,1.1,0.7,2.1,1.3,3.2h-2.1C464.8,48.4,464.4,47.5,464.1,46.3z"/>
</g>
<g class="st3">
	<path d="M468.7,41.3c-0.5-0.5-0.7-1.1-0.7-2s0.2-1.5,0.7-2c0.5-0.5,1-0.7,1.8-0.7s1.3,0.2,1.8,0.7s0.7,1.1,0.7,2s-0.2,1.5-0.7,2
		s-1,0.7-1.8,0.7S469.1,41.8,468.7,41.3z M471.2,40.5c0.2-0.3,0.3-0.6,0.3-1.2s-0.1-0.9-0.3-1.2c-0.2-0.3-0.4-0.4-0.7-0.4
		c-0.3,0-0.6,0.1-0.7,0.4c-0.2,0.3-0.3,0.7-0.3,1.2s0.1,0.9,0.3,1.2c0.2,0.3,0.4,0.4,0.7,0.4C470.7,40.9,471,40.8,471.2,40.5z
		 M476.3,36.8h1.7l-6.7,9.8h-1.7L476.3,36.8z M475.8,46.4c-0.4-0.2-0.7-0.5-0.9-0.9c-0.2-0.4-0.3-0.9-0.3-1.4s0.1-1,0.3-1.4
		c0.2-0.4,0.5-0.7,0.9-0.9c0.4-0.2,0.8-0.3,1.3-0.3c0.7,0,1.3,0.2,1.8,0.7c0.5,0.5,0.7,1.1,0.7,2s-0.2,1.5-0.7,2
		c-0.5,0.5-1,0.7-1.8,0.7C476.6,46.7,476.2,46.6,475.8,46.4z M477.8,45.1c0.2-0.3,0.3-0.7,0.3-1.2s-0.1-0.9-0.3-1.2
		c-0.2-0.3-0.4-0.4-0.7-0.4c-0.3,0-0.6,0.1-0.7,0.4c-0.2,0.3-0.3,0.6-0.3,1.2s0.1,0.9,0.3,1.2c0.2,0.3,0.4,0.4,0.7,0.4
		C477.4,45.5,477.6,45.4,477.8,45.1z"/>
</g>
<g class="st3">
	<path d="M479.7,49.3c0.6-1,1-2.1,1.3-3.2c0.3-1.1,0.4-2.2,0.4-3.4s-0.1-2.3-0.4-3.4c-0.3-1.1-0.7-2.1-1.3-3.2h2.1
		c0.6,0.8,1,1.8,1.3,2.9s0.5,2.3,0.5,3.6s-0.1,2.5-0.4,3.6c-0.3,1.1-0.7,2.1-1.3,2.9H479.7z"/>
</g>
<rect x="40.9" y="139.7" class="st2" width="23.5" height="72.1"/>
<rect x="71.8" y="185.4" class="st4" width="23.5" height="26.4"/>
<rect x="102.5" y="210.5" class="st5" width="23.5" height="1.2"/>
<g class="st3">
	<path d="M112.8,206.3v1.1h-4.2v-0.8l2.2-2c0.2-0.2,0.4-0.4,0.5-0.6c0.1-0.2,0.1-0.3,0.1-0.5c0-0.2-0.1-0.4-0.2-0.5
		c-0.2-0.1-0.4-0.2-0.7-0.2c-0.2,0-0.5,0-0.7,0.1c-0.2,0.1-0.4,0.2-0.5,0.4l-0.9-0.6c0.2-0.3,0.5-0.6,0.9-0.8
		c0.4-0.2,0.8-0.3,1.3-0.3c0.4,0,0.8,0.1,1.1,0.2s0.6,0.3,0.7,0.6s0.3,0.5,0.3,0.9c0,0.3-0.1,0.6-0.2,0.9s-0.4,0.6-0.7,0.9l-1.3,1.2
		H112.8z"/>
</g>
<g class="st3">
	<path d="M113.7,204.3c-0.3-0.3-0.4-0.7-0.4-1.1c0-0.5,0.1-0.8,0.4-1.1s0.6-0.4,1-0.4s0.7,0.1,1,0.4s0.4,0.7,0.4,1.1
		c0,0.5-0.1,0.8-0.4,1.1s-0.6,0.4-1,0.4S114,204.6,113.7,204.3z M115.1,203.9c0.1-0.1,0.2-0.4,0.2-0.7c0-0.3-0.1-0.5-0.2-0.7
		s-0.2-0.2-0.4-0.2c-0.2,0-0.3,0.1-0.4,0.2c-0.1,0.2-0.2,0.4-0.2,0.7s0.1,0.5,0.2,0.7c0.1,0.2,0.2,0.2,0.4,0.2
		C114.9,204.1,115,204,115.1,203.9z M118,201.7h1l-3.8,5.6h-1L118,201.7z M117.8,207.2c-0.2-0.1-0.4-0.3-0.5-0.5
		c-0.1-0.2-0.2-0.5-0.2-0.8c0-0.3,0.1-0.6,0.2-0.8c0.1-0.2,0.3-0.4,0.5-0.5c0.2-0.1,0.4-0.2,0.7-0.2c0.4,0,0.7,0.1,1,0.4
		c0.3,0.3,0.4,0.7,0.4,1.1c0,0.5-0.1,0.8-0.4,1.1c-0.3,0.3-0.6,0.4-1,0.4C118.2,207.4,118,207.3,117.8,207.2z M118.9,206.5
		c0.1-0.2,0.2-0.4,0.2-0.7c0-0.3-0.1-0.5-0.2-0.7c-0.1-0.2-0.2-0.2-0.4-0.2c-0.2,0-0.3,0.1-0.4,0.2c-0.1,0.1-0.2,0.4-0.2,0.7
		c0,0.3,0.1,0.5,0.2,0.7c0.1,0.1,0.2,0.2,0.4,0.2C118.7,206.7,118.8,206.7,118.9,206.5z"/>
</g>
<g class="st3">
	<path d="M48.3,133.4c0.4,0.3,0.6,0.7,0.6,1.3c0,0.3-0.1,0.7-0.3,0.9c-0.2,0.3-0.4,0.5-0.8,0.7c-0.3,0.2-0.8,0.3-1.3,0.3
		c-0.4,0-0.8-0.1-1.2-0.2c-0.4-0.1-0.7-0.3-1-0.4l0.5-1c0.2,0.2,0.5,0.3,0.7,0.4s0.6,0.1,0.9,0.1c0.3,0,0.6-0.1,0.8-0.2
		c0.2-0.1,0.3-0.3,0.3-0.5c0-0.2-0.1-0.4-0.3-0.5c-0.2-0.1-0.5-0.2-1-0.2h-1.4l0.3-3.2h3.4v1h-2.3l-0.1,1.1h0.5
		C47.4,133,48,133.1,48.3,133.4z"/>
</g>
<g class="st3">
	<path d="M53.6,135.4v1.1h-4.2v-0.8l2.2-2c0.2-0.2,0.4-0.4,0.5-0.6c0.1-0.2,0.1-0.3,0.1-0.5c0-0.2-0.1-0.4-0.2-0.5
		c-0.2-0.1-0.4-0.2-0.7-0.2c-0.2,0-0.5,0-0.7,0.1c-0.2,0.1-0.4,0.2-0.5,0.4l-0.9-0.6c0.2-0.3,0.5-0.6,0.9-0.8
		c0.4-0.2,0.8-0.3,1.3-0.3c0.4,0,0.8,0.1,1.1,0.2s0.6,0.3,0.7,0.6s0.3,0.5,0.3,0.9c0,0.3-0.1,0.6-0.2,0.9s-0.4,0.6-0.7,0.9l-1.3,1.2
		H53.6z"/>
</g>
<g class="st3">
	<path d="M54.5,133.5c-0.3-0.3-0.4-0.7-0.4-1.1c0-0.5,0.1-0.8,0.4-1.1s0.6-0.4,1-0.4s0.7,0.1,1,0.4s0.4,0.7,0.4,1.1
		c0,0.5-0.1,0.8-0.4,1.1s-0.6,0.4-1,0.4S54.7,133.8,54.5,133.5z M55.9,133c0.1-0.1,0.2-0.4,0.2-0.7c0-0.3-0.1-0.5-0.2-0.7
		s-0.2-0.2-0.4-0.2c-0.2,0-0.3,0.1-0.4,0.2c-0.1,0.2-0.2,0.4-0.2,0.7s0.1,0.5,0.2,0.7c0.1,0.2,0.2,0.2,0.4,0.2
		C55.7,133.2,55.8,133.2,55.9,133z M58.8,130.9h1l-3.8,5.6h-1L58.8,130.9z M58.6,136.3c-0.2-0.1-0.4-0.3-0.5-0.5
		c-0.1-0.2-0.2-0.5-0.2-0.8c0-0.3,0.1-0.6,0.2-0.8c0.1-0.2,0.3-0.4,0.5-0.5c0.2-0.1,0.4-0.2,0.7-0.2c0.4,0,0.7,0.1,1,0.4
		c0.3,0.3,0.4,0.7,0.4,1.1c0,0.5-0.1,0.8-0.4,1.1c-0.3,0.3-0.6,0.4-1,0.4C59,136.5,58.8,136.5,58.6,136.3z M59.7,135.6
		c0.1-0.2,0.2-0.4,0.2-0.7c0-0.3-0.1-0.5-0.2-0.7c-0.1-0.2-0.2-0.2-0.4-0.2c-0.2,0-0.3,0.1-0.4,0.2c-0.1,0.1-0.2,0.4-0.2,0.7
		c0,0.3,0.1,0.5,0.2,0.7c0.1,0.1,0.2,0.2,0.4,0.2C59.5,135.9,59.6,135.8,59.7,135.6z"/>
</g>
<g class="st3">
	<path d="M79.4,181.1v1.1h-4.2v-0.8l2.2-2c0.2-0.2,0.4-0.4,0.5-0.6c0.1-0.2,0.1-0.3,0.1-0.5c0-0.2-0.1-0.4-0.2-0.5
		c-0.2-0.1-0.4-0.2-0.7-0.2c-0.2,0-0.5,0-0.7,0.1c-0.2,0.1-0.4,0.2-0.5,0.4l-0.9-0.6c0.2-0.3,0.5-0.6,0.9-0.8
		c0.4-0.2,0.8-0.3,1.3-0.3c0.4,0,0.8,0.1,1.1,0.2s0.6,0.3,0.7,0.6s0.3,0.5,0.3,0.9c0,0.3-0.1,0.6-0.2,0.9s-0.4,0.6-0.7,0.9l-1.3,1.2
		H79.4z"/>
</g>
<g class="st3">
	<path d="M81.1,181.9c-0.4-0.2-0.6-0.6-0.9-1c-0.2-0.4-0.3-1-0.3-1.6s0.1-1.1,0.3-1.6c0.2-0.4,0.5-0.8,0.9-1
		c0.4-0.2,0.8-0.3,1.2-0.3s0.9,0.1,1.2,0.3c0.4,0.2,0.6,0.6,0.9,1c0.2,0.4,0.3,1,0.3,1.6s-0.1,1.1-0.3,1.6c-0.2,0.4-0.5,0.8-0.9,1
		c-0.4,0.2-0.8,0.3-1.2,0.3S81.4,182.2,81.1,181.9z M83.1,180.7c0.2-0.3,0.3-0.7,0.3-1.4s-0.1-1.1-0.3-1.4c-0.2-0.3-0.5-0.4-0.8-0.4
		c-0.3,0-0.6,0.1-0.8,0.4c-0.2,0.3-0.3,0.7-0.3,1.4s0.1,1.1,0.3,1.4c0.2,0.3,0.5,0.4,0.8,0.4C82.7,181.2,82.9,181,83.1,180.7z"/>
	<path d="M85.6,179.2c-0.3-0.3-0.4-0.7-0.4-1.1c0-0.5,0.1-0.8,0.4-1.1s0.6-0.4,1-0.4s0.7,0.1,1,0.4s0.4,0.7,0.4,1.1
		c0,0.5-0.1,0.8-0.4,1.1s-0.6,0.4-1,0.4S85.9,179.5,85.6,179.2z M87.1,178.7c0.1-0.1,0.2-0.4,0.2-0.7c0-0.3-0.1-0.5-0.2-0.7
		s-0.2-0.2-0.4-0.2c-0.2,0-0.3,0.1-0.4,0.2c-0.1,0.2-0.2,0.4-0.2,0.7s0.1,0.5,0.2,0.7c0.1,0.2,0.2,0.2,0.4,0.2
		C86.8,178.9,87,178.9,87.1,178.7z M90,176.6h1l-3.8,5.6h-1L90,176.6z M89.7,182.1c-0.2-0.1-0.4-0.3-0.5-0.5
		c-0.1-0.2-0.2-0.5-0.2-0.8c0-0.3,0.1-0.6,0.2-0.8c0.1-0.2,0.3-0.4,0.5-0.5c0.2-0.1,0.4-0.2,0.7-0.2c0.4,0,0.7,0.1,1,0.4
		c0.3,0.3,0.4,0.7,0.4,1.1c0,0.5-0.1,0.8-0.4,1.1c-0.3,0.3-0.6,0.4-1,0.4C90.2,182.2,89.9,182.2,89.7,182.1z M90.9,181.4
		c0.1-0.2,0.2-0.4,0.2-0.7c0-0.3-0.1-0.5-0.2-0.7c-0.1-0.2-0.2-0.2-0.4-0.2c-0.2,0-0.3,0.1-0.4,0.2c-0.1,0.1-0.2,0.4-0.2,0.7
		c0,0.3,0.1,0.5,0.2,0.7c0.1,0.1,0.2,0.2,0.4,0.2C90.6,181.6,90.8,181.5,90.9,181.4z"/>
</g>
<g class="st3">
	<path d="M421.7,87.3c0.4,0.5,0.7,1.2,0.7,2.1c0,0.6-0.1,1.2-0.4,1.6c-0.2,0.5-0.6,0.8-1,1c-0.4,0.2-0.9,0.4-1.5,0.4
		c-0.3,0-0.6,0-0.9-0.1s-0.5-0.2-0.7-0.3l0.5-1c0.3,0.2,0.6,0.3,1,0.3c0.5,0,0.9-0.1,1.1-0.4s0.4-0.7,0.4-1.2
		c-0.3,0.3-0.8,0.5-1.4,0.5c-0.4,0-0.7-0.1-1-0.2c-0.3-0.1-0.5-0.3-0.7-0.6s-0.3-0.6-0.3-0.9c0-0.4,0.1-0.7,0.3-1
		c0.2-0.3,0.4-0.5,0.8-0.7c0.3-0.2,0.7-0.2,1.1-0.2C420.6,86.6,421.2,86.9,421.7,87.3z M420.6,89c0.2-0.2,0.3-0.4,0.3-0.6
		c0-0.2-0.1-0.4-0.3-0.6c-0.2-0.2-0.4-0.2-0.7-0.2c-0.3,0-0.5,0.1-0.7,0.2c-0.2,0.1-0.3,0.4-0.3,0.6c0,0.3,0.1,0.5,0.3,0.6
		c0.2,0.2,0.4,0.2,0.7,0.2C420.2,89.3,420.4,89.2,420.6,89z"/>
	<path d="M424.1,92.1c-0.4-0.2-0.6-0.6-0.9-1s-0.3-1-0.3-1.6s0.1-1.1,0.3-1.6c0.2-0.4,0.5-0.8,0.9-1c0.4-0.2,0.8-0.3,1.2-0.3
		s0.9,0.1,1.2,0.3c0.4,0.2,0.6,0.6,0.9,1c0.2,0.4,0.3,1,0.3,1.6s-0.1,1.1-0.3,1.6c-0.2,0.4-0.5,0.8-0.9,1s-0.8,0.3-1.2,0.3
		S424.5,92.3,424.1,92.1z M426.2,90.9c0.2-0.3,0.3-0.7,0.3-1.4s-0.1-1.1-0.3-1.4c-0.2-0.3-0.5-0.4-0.8-0.4c-0.3,0-0.6,0.1-0.8,0.4
		c-0.2,0.3-0.3,0.7-0.3,1.4s0.1,1.1,0.3,1.4c0.2,0.3,0.5,0.4,0.8,0.4C425.7,91.3,426,91.2,426.2,90.9z"/>
	<path d="M428.7,89.3c-0.3-0.3-0.4-0.7-0.4-1.1c0-0.5,0.1-0.8,0.4-1.1s0.6-0.4,1-0.4c0.4,0,0.7,0.1,1,0.4s0.4,0.7,0.4,1.1
		c0,0.5-0.1,0.8-0.4,1.1s-0.6,0.4-1,0.4C429.3,89.8,429,89.6,428.7,89.3z M430.1,88.9c0.1-0.1,0.2-0.4,0.2-0.7
		c0-0.3-0.1-0.5-0.2-0.7c-0.1-0.1-0.2-0.2-0.4-0.2c-0.2,0-0.3,0.1-0.4,0.2c-0.1,0.2-0.2,0.4-0.2,0.7s0.1,0.5,0.2,0.7
		s0.2,0.2,0.4,0.2C429.9,89.1,430,89,430.1,88.9z M433,86.7h1l-3.8,5.6h-1L433,86.7z M432.8,92.2c-0.2-0.1-0.4-0.3-0.5-0.5
		c-0.1-0.2-0.2-0.5-0.2-0.8c0-0.3,0.1-0.6,0.2-0.8c0.1-0.2,0.3-0.4,0.5-0.5c0.2-0.1,0.4-0.2,0.7-0.2c0.4,0,0.7,0.1,1,0.4
		c0.3,0.3,0.4,0.7,0.4,1.1c0,0.5-0.1,0.8-0.4,1.1c-0.3,0.3-0.6,0.4-1,0.4C433.2,92.4,433,92.3,432.8,92.2z M433.9,91.5
		c0.1-0.2,0.2-0.4,0.2-0.7c0-0.3-0.1-0.5-0.2-0.7c-0.1-0.2-0.2-0.2-0.4-0.2c-0.2,0-0.3,0.1-0.4,0.2c-0.1,0.1-0.2,0.4-0.2,0.7
		c0,0.3,0.1,0.5,0.2,0.7c0.1,0.1,0.2,0.2,0.4,0.2C433.7,91.7,433.8,91.7,433.9,91.5z"/>
</g>
<g class="st3">
	<path d="M391.2,79.4c0.4,0.5,0.7,1.2,0.7,2.1c0,0.6-0.1,1.2-0.4,1.6s-0.6,0.8-1,1s-0.9,0.4-1.5,0.4c-0.3,0-0.6,0-0.9-0.1
		c-0.3-0.1-0.5-0.2-0.7-0.3l0.5-1c0.3,0.2,0.6,0.3,1,0.3c0.5,0,0.9-0.1,1.1-0.4c0.3-0.3,0.4-0.7,0.4-1.2c-0.3,0.3-0.8,0.5-1.4,0.5
		c-0.4,0-0.7-0.1-1-0.2c-0.3-0.1-0.5-0.3-0.7-0.6c-0.2-0.3-0.3-0.6-0.3-0.9c0-0.4,0.1-0.7,0.3-1c0.2-0.3,0.4-0.5,0.8-0.7
		c0.3-0.2,0.7-0.2,1.1-0.2C390.1,78.7,390.8,78.9,391.2,79.4z M390.1,81.1c0.2-0.2,0.3-0.4,0.3-0.6c0-0.2-0.1-0.4-0.3-0.6
		c-0.2-0.2-0.4-0.2-0.7-0.2c-0.3,0-0.5,0.1-0.7,0.2c-0.2,0.1-0.3,0.4-0.3,0.6c0,0.3,0.1,0.5,0.3,0.6c0.2,0.2,0.4,0.2,0.7,0.2
		C389.7,81.3,390,81.3,390.1,81.1z"/>
</g>
<g class="st3">
	<path d="M396.2,81.4c0.4,0.3,0.6,0.7,0.6,1.3c0,0.3-0.1,0.7-0.3,0.9s-0.4,0.5-0.8,0.7c-0.3,0.2-0.8,0.3-1.3,0.3
		c-0.4,0-0.8-0.1-1.2-0.2c-0.4-0.1-0.7-0.3-1-0.4l0.5-1c0.2,0.2,0.5,0.3,0.7,0.4s0.6,0.1,0.9,0.1c0.3,0,0.6-0.1,0.8-0.2
		s0.3-0.3,0.3-0.5c0-0.2-0.1-0.4-0.3-0.5c-0.2-0.1-0.5-0.2-1-0.2h-1.4l0.3-3.2h3.4v1H394l-0.1,1.1h0.5
		C395.2,80.9,395.8,81.1,396.2,81.4z"/>
</g>
<g class="st3">
	<path d="M397.5,81.4c-0.3-0.3-0.4-0.7-0.4-1.1c0-0.5,0.1-0.8,0.4-1.1s0.6-0.4,1-0.4c0.4,0,0.7,0.1,1,0.4s0.4,0.7,0.4,1.1
		c0,0.5-0.1,0.8-0.4,1.1s-0.6,0.4-1,0.4C398.1,81.8,397.7,81.7,397.5,81.4z M398.9,80.9c0.1-0.1,0.2-0.4,0.2-0.7
		c0-0.3-0.1-0.5-0.2-0.7c-0.1-0.1-0.2-0.2-0.4-0.2c-0.2,0-0.3,0.1-0.4,0.2c-0.1,0.2-0.2,0.4-0.2,0.7s0.1,0.5,0.2,0.7
		s0.2,0.2,0.4,0.2C398.6,81.2,398.8,81.1,398.9,80.9z M401.8,78.8h1l-3.8,5.6h-1L401.8,78.8z M401.6,84.3c-0.2-0.1-0.4-0.3-0.5-0.5
		c-0.1-0.2-0.2-0.5-0.2-0.8c0-0.3,0.1-0.6,0.2-0.8c0.1-0.2,0.3-0.4,0.5-0.5c0.2-0.1,0.4-0.2,0.7-0.2c0.4,0,0.7,0.1,1,0.4
		c0.3,0.3,0.4,0.7,0.4,1.1c0,0.5-0.1,0.8-0.4,1.1c-0.3,0.3-0.6,0.4-1,0.4C402,84.5,401.8,84.4,401.6,84.3z M402.7,83.6
		c0.1-0.2,0.2-0.4,0.2-0.7c0-0.3-0.1-0.5-0.2-0.7c-0.1-0.2-0.2-0.2-0.4-0.2c-0.2,0-0.3,0.1-0.4,0.2c-0.1,0.1-0.2,0.4-0.2,0.7
		c0,0.3,0.1,0.5,0.2,0.7c0.1,0.1,0.2,0.2,0.4,0.2C402.4,83.8,402.6,83.7,402.7,83.6z"/>
</g>
<rect x="268" y="122.6" class="st2" width="23.5" height="89.2"/>
<rect x="298.8" y="173.5" class="st4" width="23.5" height="38.2"/>
<rect x="329.6" y="203.5" class="st5" width="23.5" height="8.2"/>
<g class="st3">
	<path d="M275,116.1c0.3,0.1,0.5,0.3,0.7,0.6c0.2,0.3,0.3,0.6,0.3,0.9c0,0.4-0.1,0.7-0.3,1c-0.2,0.3-0.4,0.5-0.8,0.7
		c-0.3,0.2-0.7,0.2-1.1,0.2c-0.8,0-1.4-0.2-1.8-0.7c-0.4-0.5-0.7-1.2-0.7-2.1c0-0.6,0.1-1.2,0.4-1.6c0.2-0.5,0.6-0.8,1-1
		c0.4-0.2,0.9-0.4,1.5-0.4c0.3,0,0.6,0,0.9,0.1c0.3,0.1,0.5,0.2,0.7,0.3l-0.5,1c-0.3-0.2-0.6-0.3-1-0.3c-0.5,0-0.9,0.1-1.1,0.4
		s-0.4,0.7-0.4,1.2c0.3-0.3,0.8-0.5,1.4-0.5C274.4,115.9,274.7,115.9,275,116.1z M274.5,118.3c0.2-0.1,0.3-0.4,0.3-0.6
		s-0.1-0.5-0.3-0.6c-0.2-0.2-0.4-0.2-0.7-0.2c-0.3,0-0.5,0.1-0.7,0.2s-0.3,0.4-0.3,0.6s0.1,0.4,0.3,0.6c0.2,0.2,0.4,0.2,0.7,0.2
		C274.1,118.5,274.3,118.4,274.5,118.3z"/>
</g>
<g class="st3">
	<path d="M280.9,117c0.1,0.2,0.2,0.5,0.2,0.8c0,0.3-0.1,0.6-0.3,0.9s-0.5,0.5-0.8,0.6c-0.4,0.1-0.8,0.2-1.2,0.2
		c-0.5,0-0.9-0.1-1.2-0.2c-0.4-0.1-0.6-0.3-0.8-0.6c-0.2-0.3-0.3-0.6-0.3-0.9c0-0.3,0.1-0.6,0.2-0.8c0.1-0.2,0.4-0.4,0.6-0.5
		c-0.2-0.1-0.4-0.3-0.5-0.5c-0.1-0.2-0.2-0.4-0.2-0.7c0-0.3,0.1-0.6,0.3-0.8c0.2-0.2,0.4-0.4,0.8-0.6s0.7-0.2,1.1-0.2
		c0.4,0,0.8,0.1,1.1,0.2s0.6,0.3,0.8,0.6c0.2,0.2,0.3,0.5,0.3,0.8c0,0.2-0.1,0.5-0.2,0.7c-0.1,0.2-0.3,0.4-0.5,0.5
		C280.6,116.6,280.8,116.8,280.9,117z M279.6,118.3c0.2-0.1,0.3-0.3,0.3-0.6s-0.1-0.4-0.3-0.6c-0.2-0.1-0.4-0.2-0.8-0.2
		c-0.3,0-0.6,0.1-0.8,0.2c-0.2,0.1-0.3,0.3-0.3,0.6c0,0.3,0.1,0.4,0.3,0.6c0.2,0.1,0.4,0.2,0.8,0.2
		C279.1,118.5,279.4,118.5,279.6,118.3z M278.2,114.8c-0.2,0.1-0.2,0.3-0.2,0.5c0,0.2,0.1,0.4,0.2,0.5c0.2,0.1,0.4,0.2,0.6,0.2
		s0.5-0.1,0.6-0.2c0.2-0.1,0.2-0.3,0.2-0.5c0-0.2-0.1-0.4-0.2-0.5c-0.2-0.1-0.4-0.2-0.6-0.2C278.5,114.6,278.3,114.7,278.2,114.8z"
		/>
</g>
<g class="st3">
	<path d="M282,116.4c-0.3-0.3-0.4-0.7-0.4-1.1c0-0.5,0.1-0.8,0.4-1.1s0.6-0.4,1-0.4c0.4,0,0.7,0.1,1,0.4s0.4,0.7,0.4,1.1
		c0,0.5-0.1,0.8-0.4,1.1s-0.6,0.4-1,0.4C282.5,116.8,282.2,116.7,282,116.4z M283.4,115.9c0.1-0.1,0.2-0.4,0.2-0.7
		c0-0.3-0.1-0.5-0.2-0.7c-0.1-0.1-0.2-0.2-0.4-0.2c-0.2,0-0.3,0.1-0.4,0.2c-0.1,0.2-0.2,0.4-0.2,0.7s0.1,0.5,0.2,0.7
		c0.1,0.2,0.2,0.2,0.4,0.2C283.1,116.2,283.3,116.1,283.4,115.9z M286.3,113.8h1l-3.8,5.6h-1L286.3,113.8z M286,119.3
		c-0.2-0.1-0.4-0.3-0.5-0.5s-0.2-0.5-0.2-0.8c0-0.3,0.1-0.6,0.2-0.8s0.3-0.4,0.5-0.5s0.4-0.2,0.7-0.2c0.4,0,0.7,0.1,1,0.4
		c0.3,0.3,0.4,0.7,0.4,1.1c0,0.5-0.1,0.8-0.4,1.1c-0.3,0.3-0.6,0.4-1,0.4C286.5,119.5,286.3,119.4,286,119.3z M287.2,118.6
		c0.1-0.2,0.2-0.4,0.2-0.7c0-0.3-0.1-0.5-0.2-0.7c-0.1-0.2-0.2-0.2-0.4-0.2c-0.2,0-0.3,0.1-0.4,0.2s-0.2,0.4-0.2,0.7
		c0,0.3,0.1,0.5,0.2,0.7c0.1,0.1,0.2,0.2,0.4,0.2C286.9,118.8,287.1,118.7,287.2,118.6z"/>
</g>
<g class="st3">
	<path d="M306.6,169.3v1.1h-4.2v-0.8l2.2-2c0.2-0.2,0.4-0.4,0.5-0.6c0.1-0.2,0.1-0.3,0.1-0.5c0-0.2-0.1-0.4-0.2-0.5
		s-0.4-0.2-0.7-0.2c-0.2,0-0.5,0-0.7,0.1c-0.2,0.1-0.4,0.2-0.5,0.4l-0.9-0.6c0.2-0.3,0.5-0.6,0.9-0.8s0.8-0.3,1.3-0.3
		c0.4,0,0.8,0.1,1.1,0.2c0.3,0.1,0.6,0.3,0.7,0.6c0.2,0.2,0.3,0.5,0.3,0.9c0,0.3-0.1,0.6-0.2,0.9s-0.4,0.6-0.7,0.9l-1.3,1.2H306.6z"
		/>
</g>
<g class="st3">
	<path d="M311.6,167.9c0.1,0.2,0.2,0.5,0.2,0.8c0,0.3-0.1,0.6-0.3,0.9s-0.5,0.5-0.8,0.6c-0.4,0.1-0.8,0.2-1.2,0.2
		c-0.5,0-0.9-0.1-1.2-0.2c-0.4-0.1-0.6-0.3-0.8-0.6c-0.2-0.3-0.3-0.6-0.3-0.9c0-0.3,0.1-0.6,0.2-0.8c0.1-0.2,0.4-0.4,0.6-0.5
		c-0.2-0.1-0.4-0.3-0.5-0.5c-0.1-0.2-0.2-0.4-0.2-0.7c0-0.3,0.1-0.6,0.3-0.8c0.2-0.2,0.4-0.4,0.8-0.6s0.7-0.2,1.1-0.2
		c0.4,0,0.8,0.1,1.1,0.2s0.6,0.3,0.8,0.6c0.2,0.2,0.3,0.5,0.3,0.8c0,0.2-0.1,0.5-0.2,0.7c-0.1,0.2-0.3,0.4-0.5,0.5
		C311.2,167.5,311.5,167.7,311.6,167.9z M310.2,169.3c0.2-0.1,0.3-0.3,0.3-0.6s-0.1-0.4-0.3-0.6c-0.2-0.1-0.4-0.2-0.8-0.2
		c-0.3,0-0.6,0.1-0.8,0.2c-0.2,0.1-0.3,0.3-0.3,0.6c0,0.3,0.1,0.4,0.3,0.6c0.2,0.1,0.4,0.2,0.8,0.2
		C309.8,169.5,310,169.4,310.2,169.3z M308.8,165.8c-0.2,0.1-0.2,0.3-0.2,0.5c0,0.2,0.1,0.4,0.2,0.5c0.2,0.1,0.4,0.2,0.6,0.2
		s0.5-0.1,0.6-0.2c0.2-0.1,0.2-0.3,0.2-0.5c0-0.2-0.1-0.4-0.2-0.5c-0.2-0.1-0.4-0.2-0.6-0.2C309.2,165.6,309,165.6,308.8,165.8z"/>
</g>
<g class="st3">
	<path d="M312.6,167.3c-0.3-0.3-0.4-0.7-0.4-1.1c0-0.5,0.1-0.8,0.4-1.1s0.6-0.4,1-0.4s0.7,0.1,1,0.4s0.4,0.7,0.4,1.1
		c0,0.5-0.1,0.8-0.4,1.1s-0.6,0.4-1,0.4S312.9,167.6,312.6,167.3z M314.1,166.9c0.1-0.1,0.2-0.4,0.2-0.7c0-0.3-0.1-0.5-0.2-0.7
		c-0.1-0.1-0.2-0.2-0.4-0.2c-0.2,0-0.3,0.1-0.4,0.2c-0.1,0.2-0.2,0.4-0.2,0.7s0.1,0.5,0.2,0.7s0.2,0.2,0.4,0.2
		C313.8,167.1,314,167,314.1,166.9z M317,164.7h1l-3.8,5.6h-1L317,164.7z M316.7,170.2c-0.2-0.1-0.4-0.3-0.5-0.5
		c-0.1-0.2-0.2-0.5-0.2-0.8c0-0.3,0.1-0.6,0.2-0.8c0.1-0.2,0.3-0.4,0.5-0.5c0.2-0.1,0.4-0.2,0.7-0.2c0.4,0,0.7,0.1,1,0.4
		c0.3,0.3,0.4,0.7,0.4,1.1c0,0.5-0.1,0.8-0.4,1.1c-0.3,0.3-0.6,0.4-1,0.4C317.2,170.4,316.9,170.3,316.7,170.2z M317.9,169.5
		c0.1-0.2,0.2-0.4,0.2-0.7c0-0.3-0.1-0.5-0.2-0.7c-0.1-0.2-0.2-0.2-0.4-0.2c-0.2,0-0.3,0.1-0.4,0.2c-0.1,0.1-0.2,0.4-0.2,0.7
		c0,0.3,0.1,0.5,0.2,0.7c0.1,0.1,0.2,0.2,0.4,0.2C317.6,169.7,317.8,169.7,317.9,169.5z"/>
</g>
<g class="st3">
	<path d="M340,197.9c0.1,0.2,0.2,0.5,0.2,0.8c0,0.3-0.1,0.6-0.3,0.9s-0.5,0.5-0.8,0.6c-0.4,0.1-0.8,0.2-1.2,0.2
		c-0.5,0-0.9-0.1-1.2-0.2c-0.4-0.1-0.6-0.3-0.8-0.6s-0.3-0.6-0.3-0.9c0-0.3,0.1-0.6,0.2-0.8c0.1-0.2,0.4-0.4,0.6-0.5
		c-0.2-0.1-0.4-0.3-0.5-0.5c-0.1-0.2-0.2-0.4-0.2-0.7c0-0.3,0.1-0.6,0.3-0.8c0.2-0.2,0.4-0.4,0.8-0.6c0.3-0.1,0.7-0.2,1.1-0.2
		c0.4,0,0.8,0.1,1.1,0.2c0.3,0.1,0.6,0.3,0.8,0.6c0.2,0.2,0.3,0.5,0.3,0.8c0,0.2-0.1,0.5-0.2,0.7c-0.1,0.2-0.3,0.4-0.5,0.5
		C339.6,197.5,339.8,197.7,340,197.9z M338.6,199.3c0.2-0.1,0.3-0.3,0.3-0.6s-0.1-0.4-0.3-0.6c-0.2-0.1-0.4-0.2-0.8-0.2
		c-0.3,0-0.6,0.1-0.8,0.2c-0.2,0.1-0.3,0.3-0.3,0.6c0,0.3,0.1,0.4,0.3,0.6c0.2,0.1,0.4,0.2,0.8,0.2
		C338.1,199.5,338.4,199.4,338.6,199.3z M337.2,195.8c-0.2,0.1-0.2,0.3-0.2,0.5c0,0.2,0.1,0.4,0.2,0.5c0.2,0.1,0.4,0.2,0.6,0.2
		s0.5-0.1,0.6-0.2c0.2-0.1,0.2-0.3,0.2-0.5c0-0.2-0.1-0.4-0.2-0.5c-0.2-0.1-0.4-0.2-0.6-0.2C337.6,195.6,337.3,195.6,337.2,195.8z"
		/>
</g>
<g class="st3">
	<path d="M341,197.3c-0.3-0.3-0.4-0.7-0.4-1.1c0-0.5,0.1-0.8,0.4-1.1s0.6-0.4,1-0.4c0.4,0,0.7,0.1,1,0.4s0.4,0.7,0.4,1.1
		c0,0.5-0.1,0.8-0.4,1.1s-0.6,0.4-1,0.4C341.6,197.8,341.2,197.6,341,197.3z M342.4,196.9c0.1-0.1,0.2-0.4,0.2-0.7
		c0-0.3-0.1-0.5-0.2-0.7c-0.1-0.1-0.2-0.2-0.4-0.2c-0.2,0-0.3,0.1-0.4,0.2c-0.1,0.2-0.2,0.4-0.2,0.7s0.1,0.5,0.2,0.7
		c0.1,0.2,0.2,0.2,0.4,0.2C342.2,197.1,342.3,197,342.4,196.9z M345.3,194.7h1l-3.8,5.6h-1L345.3,194.7z M345.1,200.2
		c-0.2-0.1-0.4-0.3-0.5-0.5s-0.2-0.5-0.2-0.8c0-0.3,0.1-0.6,0.2-0.8s0.3-0.4,0.5-0.5s0.4-0.2,0.7-0.2c0.4,0,0.7,0.1,1,0.4
		c0.3,0.3,0.4,0.7,0.4,1.1c0,0.5-0.1,0.8-0.4,1.1c-0.3,0.3-0.6,0.4-1,0.4C345.5,200.4,345.3,200.3,345.1,200.2z M346.2,199.5
		c0.1-0.2,0.2-0.4,0.2-0.7c0-0.3-0.1-0.5-0.2-0.7c-0.1-0.2-0.2-0.2-0.4-0.2c-0.2,0-0.3,0.1-0.4,0.2s-0.2,0.4-0.2,0.7
		c0,0.3,0.1,0.5,0.2,0.7c0.1,0.1,0.2,0.2,0.4,0.2C346,199.7,346.1,199.7,346.2,199.5z"/>
</g>
<rect x="149.3" y="125.6" class="st2" width="23.5" height="86.2"/>
<rect x="180.1" y="178.5" class="st4" width="23.5" height="33.2"/>
<rect x="210.9" y="206.5" class="st5" width="23.5" height="5.2"/>
<g class="st3">
	<path d="M156.5,119.1c0.3,0.1,0.5,0.3,0.7,0.6c0.2,0.3,0.3,0.6,0.3,0.9c0,0.4-0.1,0.7-0.3,1c-0.2,0.3-0.4,0.5-0.8,0.7
		c-0.3,0.2-0.7,0.2-1.1,0.2c-0.8,0-1.4-0.2-1.8-0.7c-0.4-0.5-0.7-1.2-0.7-2.1c0-0.6,0.1-1.2,0.4-1.6c0.2-0.5,0.6-0.8,1-1
		c0.4-0.2,0.9-0.4,1.5-0.4c0.3,0,0.6,0,0.9,0.1c0.3,0.1,0.5,0.2,0.7,0.3l-0.5,1c-0.3-0.2-0.6-0.3-1-0.3c-0.5,0-0.9,0.1-1.1,0.4
		s-0.4,0.7-0.4,1.2c0.3-0.3,0.8-0.5,1.4-0.5C155.8,118.9,156.2,118.9,156.5,119.1z M155.9,121.3c0.2-0.1,0.3-0.4,0.3-0.6
		s-0.1-0.5-0.3-0.6c-0.2-0.2-0.4-0.2-0.7-0.2c-0.3,0-0.5,0.1-0.7,0.2c-0.2,0.2-0.3,0.4-0.3,0.6s0.1,0.4,0.3,0.6
		c0.2,0.2,0.4,0.2,0.7,0.2C155.5,121.5,155.7,121.4,155.9,121.3z"/>
</g>
<g class="st3">
	<path d="M161.6,119.1c0.3,0.1,0.5,0.3,0.7,0.6c0.2,0.3,0.3,0.6,0.3,0.9c0,0.4-0.1,0.7-0.3,1c-0.2,0.3-0.4,0.5-0.8,0.7
		c-0.3,0.2-0.7,0.2-1.1,0.2c-0.8,0-1.4-0.2-1.8-0.7c-0.4-0.5-0.7-1.2-0.7-2.1c0-0.6,0.1-1.2,0.4-1.6c0.2-0.5,0.6-0.8,1-1
		c0.4-0.2,0.9-0.4,1.5-0.4c0.3,0,0.6,0,0.9,0.1c0.3,0.1,0.5,0.2,0.7,0.3l-0.5,1c-0.3-0.2-0.6-0.3-1-0.3c-0.5,0-0.9,0.1-1.1,0.4
		s-0.4,0.7-0.4,1.2c0.3-0.3,0.8-0.5,1.4-0.5C160.9,118.9,161.3,118.9,161.6,119.1z M161,121.3c0.2-0.1,0.3-0.4,0.3-0.6
		s-0.1-0.5-0.3-0.6c-0.2-0.2-0.4-0.2-0.7-0.2c-0.3,0-0.5,0.1-0.7,0.2c-0.2,0.2-0.3,0.4-0.3,0.6s0.1,0.4,0.3,0.6
		c0.2,0.2,0.4,0.2,0.7,0.2C160.6,121.5,160.8,121.4,161,121.3z"/>
</g>
<g class="st3">
	<path d="M163.1,119.4c-0.3-0.3-0.4-0.7-0.4-1.1c0-0.5,0.1-0.8,0.4-1.1s0.6-0.4,1-0.4c0.4,0,0.7,0.1,1,0.4s0.4,0.7,0.4,1.1
		c0,0.5-0.1,0.8-0.4,1.1s-0.6,0.4-1,0.4C163.7,119.8,163.4,119.7,163.1,119.4z M164.5,118.9c0.1-0.1,0.2-0.4,0.2-0.7
		c0-0.3-0.1-0.5-0.2-0.7c-0.1-0.1-0.2-0.2-0.4-0.2c-0.2,0-0.3,0.1-0.4,0.2c-0.1,0.2-0.2,0.4-0.2,0.7s0.1,0.5,0.2,0.7
		c0.1,0.2,0.2,0.2,0.4,0.2C164.3,119.2,164.4,119.1,164.5,118.9z M167.5,116.8h1l-3.8,5.6h-1L167.5,116.8z M167.2,122.3
		c-0.2-0.1-0.4-0.3-0.5-0.5s-0.2-0.5-0.2-0.8c0-0.3,0.1-0.6,0.2-0.8s0.3-0.4,0.5-0.5s0.4-0.2,0.7-0.2c0.4,0,0.7,0.1,1,0.4
		c0.3,0.3,0.4,0.7,0.4,1.1c0,0.5-0.1,0.8-0.4,1.1c-0.3,0.3-0.6,0.4-1,0.4C167.7,122.5,167.4,122.4,167.2,122.3z M168.3,121.6
		c0.1-0.2,0.2-0.4,0.2-0.7c0-0.3-0.1-0.5-0.2-0.7c-0.1-0.2-0.2-0.2-0.4-0.2c-0.2,0-0.3,0.1-0.4,0.2s-0.2,0.4-0.2,0.7
		c0,0.3,0.1,0.5,0.2,0.7c0.1,0.1,0.2,0.2,0.4,0.2C168.1,121.8,168.2,121.7,168.3,121.6z"/>
</g>
<g class="st3">
	<path d="M188,174.3v1.1h-4.2v-0.8l2.2-2c0.2-0.2,0.4-0.4,0.5-0.6c0.1-0.2,0.1-0.3,0.1-0.5c0-0.2-0.1-0.4-0.2-0.5
		c-0.2-0.1-0.4-0.2-0.7-0.2c-0.2,0-0.5,0-0.7,0.1c-0.2,0.1-0.4,0.2-0.5,0.4l-0.9-0.6c0.2-0.3,0.5-0.6,0.9-0.8
		c0.4-0.2,0.8-0.3,1.3-0.3c0.4,0,0.8,0.1,1.1,0.2s0.6,0.3,0.7,0.6s0.3,0.5,0.3,0.9c0,0.3-0.1,0.6-0.2,0.9s-0.4,0.6-0.7,0.9l-1.3,1.2
		H188z"/>
</g>
<g class="st3">
	<path d="M192.2,172c0.3,0.1,0.5,0.3,0.7,0.6c0.2,0.3,0.3,0.6,0.3,0.9c0,0.4-0.1,0.7-0.3,1c-0.2,0.3-0.4,0.5-0.8,0.7
		c-0.3,0.2-0.7,0.2-1.1,0.2c-0.8,0-1.4-0.2-1.8-0.7c-0.4-0.5-0.7-1.2-0.7-2.1c0-0.6,0.1-1.2,0.4-1.6c0.2-0.5,0.6-0.8,1-1
		c0.4-0.2,0.9-0.4,1.5-0.4c0.3,0,0.6,0,0.9,0.1c0.3,0.1,0.5,0.2,0.7,0.3l-0.5,1c-0.3-0.2-0.6-0.3-1-0.3c-0.5,0-0.9,0.1-1.1,0.4
		s-0.4,0.7-0.4,1.2c0.3-0.3,0.8-0.5,1.4-0.5C191.6,171.8,191.9,171.9,192.2,172z M191.6,174.2c0.2-0.1,0.3-0.4,0.3-0.6
		s-0.1-0.5-0.3-0.6c-0.2-0.2-0.4-0.2-0.7-0.2c-0.3,0-0.5,0.1-0.7,0.2c-0.2,0.2-0.3,0.4-0.3,0.6s0.1,0.4,0.3,0.6
		c0.2,0.2,0.4,0.2,0.7,0.2C191.3,174.5,191.5,174.4,191.6,174.2z"/>
</g>
<g class="st3">
	<path d="M193.8,172.3c-0.3-0.3-0.4-0.7-0.4-1.1c0-0.5,0.1-0.8,0.4-1.1s0.6-0.4,1-0.4s0.7,0.1,1,0.4s0.4,0.7,0.4,1.1
		c0,0.5-0.1,0.8-0.4,1.1s-0.6,0.4-1,0.4S194,172.6,193.8,172.3z M195.2,171.9c0.1-0.1,0.2-0.4,0.2-0.7c0-0.3-0.1-0.5-0.2-0.7
		s-0.2-0.2-0.4-0.2c-0.2,0-0.3,0.1-0.4,0.2c-0.1,0.2-0.2,0.4-0.2,0.7s0.1,0.5,0.2,0.7c0.1,0.2,0.2,0.2,0.4,0.2
		C195,172.1,195.1,172,195.2,171.9z M198.1,169.7h1l-3.8,5.6h-1L198.1,169.7z M197.9,175.2c-0.2-0.1-0.4-0.3-0.5-0.5
		c-0.1-0.2-0.2-0.5-0.2-0.8c0-0.3,0.1-0.6,0.2-0.8c0.1-0.2,0.3-0.4,0.5-0.5c0.2-0.1,0.4-0.2,0.7-0.2c0.4,0,0.7,0.1,1,0.4
		c0.3,0.3,0.4,0.7,0.4,1.1c0,0.5-0.1,0.8-0.4,1.1c-0.3,0.3-0.6,0.4-1,0.4C198.3,175.4,198.1,175.3,197.9,175.2z M199,174.5
		c0.1-0.2,0.2-0.4,0.2-0.7c0-0.3-0.1-0.5-0.2-0.7c-0.1-0.2-0.2-0.2-0.4-0.2c-0.2,0-0.3,0.1-0.4,0.2c-0.1,0.1-0.2,0.4-0.2,0.7
		c0,0.3,0.1,0.5,0.2,0.7c0.1,0.1,0.2,0.2,0.4,0.2C198.8,174.7,198.9,174.7,199,174.5z"/>
</g>
<g class="st3">
	<path d="M220.6,200c0.3,0.1,0.5,0.3,0.7,0.6c0.2,0.3,0.3,0.6,0.3,0.9c0,0.4-0.1,0.7-0.3,1c-0.2,0.3-0.4,0.5-0.8,0.7
		c-0.3,0.2-0.7,0.2-1.1,0.2c-0.8,0-1.4-0.2-1.8-0.7c-0.4-0.5-0.7-1.2-0.7-2.1c0-0.6,0.1-1.2,0.4-1.6c0.2-0.5,0.6-0.8,1-1
		c0.4-0.2,0.9-0.4,1.5-0.4c0.3,0,0.6,0,0.9,0.1c0.3,0.1,0.5,0.2,0.7,0.3l-0.5,1c-0.3-0.2-0.6-0.3-1-0.3c-0.5,0-0.9,0.1-1.1,0.4
		s-0.4,0.7-0.4,1.2c0.3-0.3,0.8-0.5,1.4-0.5C220,199.8,220.3,199.9,220.6,200z M220,202.2c0.2-0.1,0.3-0.4,0.3-0.6s-0.1-0.5-0.3-0.6
		c-0.2-0.2-0.4-0.2-0.7-0.2c-0.3,0-0.5,0.1-0.7,0.2c-0.2,0.2-0.3,0.4-0.3,0.6s0.1,0.4,0.3,0.6c0.2,0.2,0.4,0.2,0.7,0.2
		C219.6,202.5,219.9,202.4,220,202.2z"/>
</g>
<g class="st3">
	<path d="M222.2,200.3c-0.3-0.3-0.4-0.7-0.4-1.1c0-0.5,0.1-0.8,0.4-1.1s0.6-0.4,1-0.4s0.7,0.1,1,0.4s0.4,0.7,0.4,1.1
		c0,0.5-0.1,0.8-0.4,1.1s-0.6,0.4-1,0.4S222.4,200.6,222.2,200.3z M223.6,199.9c0.1-0.1,0.2-0.4,0.2-0.7c0-0.3-0.1-0.5-0.2-0.7
		s-0.2-0.2-0.4-0.2c-0.2,0-0.3,0.1-0.4,0.2c-0.1,0.2-0.2,0.4-0.2,0.7s0.1,0.5,0.2,0.7c0.1,0.2,0.2,0.2,0.4,0.2
		C223.3,200.1,223.5,200,223.6,199.9z M226.5,197.7h1l-3.8,5.6h-1L226.5,197.7z M226.2,203.2c-0.2-0.1-0.4-0.3-0.5-0.5
		c-0.1-0.2-0.2-0.5-0.2-0.8c0-0.3,0.1-0.6,0.2-0.8c0.1-0.2,0.3-0.4,0.5-0.5c0.2-0.1,0.4-0.2,0.7-0.2c0.4,0,0.7,0.1,1,0.4
		c0.3,0.3,0.4,0.7,0.4,1.1c0,0.5-0.1,0.8-0.4,1.1c-0.3,0.3-0.6,0.4-1,0.4C226.7,203.4,226.5,203.3,226.2,203.2z M227.4,202.5
		c0.1-0.2,0.2-0.4,0.2-0.7c0-0.3-0.1-0.5-0.2-0.7c-0.1-0.2-0.2-0.2-0.4-0.2c-0.2,0-0.3,0.1-0.4,0.2c-0.1,0.1-0.2,0.4-0.2,0.7
		c0,0.3,0.1,0.5,0.2,0.7c0.1,0.1,0.2,0.2,0.4,0.2C227.1,202.7,227.3,202.7,227.4,202.5z"/>
</g>
<g class="st3">
	<path d="M453.2,95.9c0.1,0.2,0.2,0.5,0.2,0.8c0,0.3-0.1,0.6-0.3,0.9s-0.5,0.5-0.8,0.6c-0.4,0.1-0.8,0.2-1.2,0.2
		c-0.5,0-0.9-0.1-1.2-0.2c-0.4-0.1-0.6-0.3-0.8-0.6c-0.2-0.3-0.3-0.6-0.3-0.9c0-0.3,0.1-0.6,0.2-0.8c0.1-0.2,0.4-0.4,0.6-0.5
		c-0.2-0.1-0.4-0.3-0.5-0.5c-0.1-0.2-0.2-0.4-0.2-0.7c0-0.3,0.1-0.6,0.3-0.8c0.2-0.2,0.4-0.4,0.8-0.6s0.7-0.2,1.1-0.2
		c0.4,0,0.8,0.1,1.1,0.2s0.6,0.3,0.8,0.6c0.2,0.2,0.3,0.5,0.3,0.8c0,0.2-0.1,0.5-0.2,0.7c-0.1,0.2-0.3,0.4-0.5,0.5
		C452.9,95.5,453.1,95.7,453.2,95.9z M451.8,97.3c0.2-0.1,0.3-0.3,0.3-0.6s-0.1-0.4-0.3-0.6c-0.2-0.1-0.4-0.2-0.8-0.2
		c-0.3,0-0.6,0.1-0.8,0.2c-0.2,0.1-0.3,0.3-0.3,0.6c0,0.3,0.1,0.4,0.3,0.6c0.2,0.1,0.4,0.2,0.8,0.2
		C451.4,97.5,451.7,97.4,451.8,97.3z M450.4,93.8c-0.2,0.1-0.2,0.3-0.2,0.5c0,0.2,0.1,0.4,0.2,0.5c0.2,0.1,0.4,0.2,0.6,0.2
		s0.5-0.1,0.6-0.2c0.2-0.1,0.2-0.3,0.2-0.5c0-0.2-0.1-0.4-0.2-0.5c-0.2-0.1-0.4-0.2-0.6-0.2C450.8,93.6,450.6,93.6,450.4,93.8z"/>
</g>
<g class="st3">
	<path d="M457.7,95c0.3,0.1,0.5,0.3,0.7,0.6c0.2,0.3,0.3,0.6,0.3,0.9c0,0.4-0.1,0.7-0.3,1c-0.2,0.3-0.4,0.5-0.8,0.7
		c-0.3,0.2-0.7,0.2-1.1,0.2c-0.8,0-1.4-0.2-1.8-0.7c-0.4-0.5-0.7-1.2-0.7-2.1c0-0.6,0.1-1.2,0.4-1.6c0.2-0.5,0.6-0.8,1-1
		c0.4-0.2,0.9-0.4,1.5-0.4c0.3,0,0.6,0,0.9,0.1c0.3,0.1,0.5,0.2,0.7,0.3l-0.5,1c-0.3-0.2-0.6-0.3-1-0.3c-0.5,0-0.9,0.1-1.1,0.4
		s-0.4,0.7-0.4,1.2c0.3-0.3,0.8-0.5,1.4-0.5C457.1,94.8,457.4,94.9,457.7,95z M457.1,97.2c0.2-0.1,0.3-0.4,0.3-0.6s-0.1-0.5-0.3-0.6
		c-0.2-0.2-0.4-0.2-0.7-0.2c-0.3,0-0.5,0.1-0.7,0.2s-0.3,0.4-0.3,0.6s0.1,0.4,0.3,0.6c0.2,0.2,0.4,0.2,0.7,0.2
		C456.7,97.5,457,97.4,457.1,97.2z"/>
</g>
<g class="st3">
	<path d="M459.3,95.3c-0.3-0.3-0.4-0.7-0.4-1.1c0-0.5,0.1-0.8,0.4-1.1s0.6-0.4,1-0.4c0.4,0,0.7,0.1,1,0.4s0.4,0.7,0.4,1.1
		c0,0.5-0.1,0.8-0.4,1.1s-0.6,0.4-1,0.4C459.9,95.8,459.5,95.6,459.3,95.3z M460.7,94.9c0.1-0.1,0.2-0.4,0.2-0.7
		c0-0.3-0.1-0.5-0.2-0.7c-0.1-0.1-0.2-0.2-0.4-0.2c-0.2,0-0.3,0.1-0.4,0.2c-0.1,0.2-0.2,0.4-0.2,0.7s0.1,0.5,0.2,0.7
		s0.2,0.2,0.4,0.2C460.4,95.1,460.6,95,460.7,94.9z M463.6,92.7h1l-3.8,5.6h-1L463.6,92.7z M463.4,98.2c-0.2-0.1-0.4-0.3-0.5-0.5
		c-0.1-0.2-0.2-0.5-0.2-0.8c0-0.3,0.1-0.6,0.2-0.8c0.1-0.2,0.3-0.4,0.5-0.5c0.2-0.1,0.4-0.2,0.7-0.2c0.4,0,0.7,0.1,1,0.4
		c0.3,0.3,0.4,0.7,0.4,1.1c0,0.5-0.1,0.8-0.4,1.1c-0.3,0.3-0.6,0.4-1,0.4C463.8,98.4,463.6,98.3,463.4,98.2z M464.5,97.5
		c0.1-0.2,0.2-0.4,0.2-0.7c0-0.3-0.1-0.5-0.2-0.7c-0.1-0.2-0.2-0.2-0.4-0.2c-0.2,0-0.3,0.1-0.4,0.2c-0.1,0.1-0.2,0.4-0.2,0.7
		c0,0.3,0.1,0.5,0.2,0.7c0.1,0.1,0.2,0.2,0.4,0.2C464.2,97.7,464.4,97.7,464.5,97.5z"/>
</g>
</svg>
