<?xml version="1.0" encoding="utf-8"?>
<!-- Generator: Adobe Illustrator 24.1.0, SVG Export Plug-In . SVG Version: 6.00 Build 0)  -->
<svg version="1.1" id="Layer_1" xmlns="http://www.w3.org/2000/svg" xmlns:xlink="http://www.w3.org/1999/xlink" x="0px" y="0px"
	 viewBox="0 0 449.1 277.7" style="enable-background:new 0 0 449.1 277.7;" xml:space="preserve">
<style type="text/css">
	.st0{fill:#FFFFFF;}
	.st1{enable-background:new    ;}
	.st2{fill:#E2243C;}
	.st3{opacity:0.15;}
	.st4{fill:none;stroke:#E2243C;stroke-width:0.5;stroke-linejoin:round;}
	.st5{fill:none;stroke:#E2243C;stroke-width:0.5;stroke-linejoin:round;stroke-dasharray:9.99,9.99;}
	.st6{fill:none;stroke:#E2243C;stroke-width:0.5;stroke-linejoin:round;stroke-dasharray:10.15,10.15;}
	.st7{fill:none;stroke:#E2243C;stroke-width:0.5;stroke-linejoin:round;stroke-dasharray:12,12;}
</style>
<rect class="st0" width="449.1" height="277.7"/>
<g class="st1">
	<path d="M89.3,22.7v9.8h-1.9l-4.9-6v6h-2.2v-9.8h1.9l4.9,6v-6H89.3z"/>
	<path d="M97.2,25.7c0.6,0.6,0.9,1.4,0.9,2.5v4.3h-2v-0.9c-0.4,0.7-1.2,1.1-2.3,1.1c-0.6,0-1.1-0.1-1.5-0.3c-0.4-0.2-0.7-0.5-1-0.8
		c-0.2-0.3-0.3-0.7-0.3-1.2c0-0.7,0.3-1.3,0.8-1.7s1.3-0.6,2.4-0.6h1.7c0-0.5-0.1-0.8-0.4-1.1c-0.3-0.3-0.7-0.4-1.3-0.4
		c-0.4,0-0.8,0.1-1.2,0.2s-0.7,0.3-1,0.5l-0.8-1.5c0.4-0.3,0.9-0.5,1.5-0.7c0.6-0.2,1.2-0.2,1.8-0.2C95.7,24.9,96.6,25.2,97.2,25.7z
		 M95.3,30.9c0.3-0.2,0.5-0.4,0.6-0.8v-0.8h-1.5c-0.9,0-1.3,0.3-1.3,0.9c0,0.3,0.1,0.5,0.3,0.7c0.2,0.2,0.5,0.2,0.9,0.2
		C94.7,31.2,95,31.1,95.3,30.9z"/>
	<path d="M105,32.2c-0.2,0.2-0.5,0.3-0.8,0.4c-0.3,0.1-0.6,0.1-1,0.1c-0.9,0-1.6-0.2-2.1-0.7c-0.5-0.5-0.7-1.1-0.7-2v-3.1h-1.2v-1.7
		h1.2v-1.8h2.2v1.8h1.9v1.7h-1.9v3.1c0,0.3,0.1,0.6,0.2,0.7c0.2,0.2,0.4,0.3,0.7,0.3c0.3,0,0.6-0.1,0.9-0.3L105,32.2z"/>
	<path d="M106.3,23.6c-0.3-0.2-0.4-0.5-0.4-0.9c0-0.3,0.1-0.6,0.4-0.9s0.6-0.3,1-0.3c0.4,0,0.7,0.1,1,0.3c0.3,0.2,0.4,0.5,0.4,0.8
		c0,0.4-0.1,0.7-0.4,0.9c-0.3,0.2-0.6,0.4-1,0.4C106.9,23.9,106.6,23.8,106.3,23.6z M106.2,25h2.2v7.5h-2.2V25z"/>
	<path d="M111.9,32.1c-0.6-0.3-1.1-0.8-1.5-1.4c-0.4-0.6-0.5-1.3-0.5-2c0-0.7,0.2-1.4,0.5-2c0.4-0.6,0.8-1,1.5-1.4
		c0.6-0.3,1.3-0.5,2.1-0.5c0.8,0,1.5,0.2,2.1,0.5c0.6,0.3,1.1,0.8,1.5,1.4c0.4,0.6,0.5,1.3,0.5,2c0,0.7-0.2,1.4-0.5,2
		c-0.4,0.6-0.8,1-1.5,1.4c-0.6,0.3-1.3,0.5-2.1,0.5C113.2,32.6,112.5,32.5,111.9,32.1z M115.4,30.3c0.4-0.4,0.5-0.9,0.5-1.5
		s-0.2-1.1-0.5-1.5c-0.4-0.4-0.8-0.6-1.4-0.6c-0.6,0-1,0.2-1.4,0.6c-0.4,0.4-0.5,0.9-0.5,1.5s0.2,1.1,0.5,1.5
		c0.4,0.4,0.8,0.6,1.4,0.6C114.5,30.8,115,30.7,115.4,30.3z"/>
	<path d="M126.4,25.7c0.6,0.6,0.9,1.4,0.9,2.5v4.3h-2.2v-4c0-0.6-0.1-1-0.4-1.3c-0.3-0.3-0.6-0.4-1.1-0.4c-0.6,0-1,0.2-1.3,0.5
		c-0.3,0.3-0.5,0.8-0.5,1.5v3.7h-2.2V25h2.1v0.9c0.3-0.3,0.6-0.6,1.1-0.7s0.9-0.3,1.4-0.3C125.1,24.9,125.8,25.2,126.4,25.7z"/>
	<path d="M135,25.7c0.6,0.6,0.9,1.4,0.9,2.5v4.3h-2v-0.9c-0.4,0.7-1.2,1.1-2.3,1.1c-0.6,0-1.1-0.1-1.5-0.3c-0.4-0.2-0.7-0.5-1-0.8
		c-0.2-0.3-0.3-0.7-0.3-1.2c0-0.7,0.3-1.3,0.8-1.7s1.3-0.6,2.4-0.6h1.7c0-0.5-0.1-0.8-0.4-1.1c-0.3-0.3-0.7-0.4-1.3-0.4
		c-0.4,0-0.8,0.1-1.2,0.2s-0.7,0.3-1,0.5l-0.8-1.5c0.4-0.3,0.9-0.5,1.5-0.7c0.6-0.2,1.2-0.2,1.8-0.2C133.5,24.9,134.3,25.2,135,25.7
		z M133.1,30.9c0.3-0.2,0.5-0.4,0.6-0.8v-0.8h-1.5c-0.9,0-1.3,0.3-1.3,0.9c0,0.3,0.1,0.5,0.3,0.7c0.2,0.2,0.5,0.2,0.9,0.2
		C132.5,31.2,132.8,31.1,133.1,30.9z"/>
	<path d="M137.9,22.1h2.2v10.4h-2.2V22.1z"/>
	<path d="M155.2,22.7v9.8h-2.3v-4h-4.5v4h-2.3v-9.8h2.3v3.9h4.5v-3.9H155.2z"/>
</g>
<g class="st1">
	<path d="M164.7,29.4H159c0.1,0.5,0.3,0.8,0.7,1.1s0.9,0.4,1.4,0.4c0.4,0,0.7-0.1,1-0.2c0.3-0.1,0.6-0.3,0.8-0.6l1.2,1.3
		c-0.7,0.8-1.7,1.2-3.1,1.2c-0.8,0-1.6-0.2-2.3-0.5c-0.7-0.3-1.2-0.8-1.5-1.4c-0.4-0.6-0.5-1.3-0.5-2c0-0.7,0.2-1.4,0.5-2
		s0.8-1.1,1.4-1.4c0.6-0.3,1.3-0.5,2.1-0.5c0.7,0,1.4,0.2,2,0.5c0.6,0.3,1.1,0.8,1.4,1.4s0.5,1.3,0.5,2.1
		C164.7,28.8,164.7,29,164.7,29.4z M159.6,26.9c-0.3,0.3-0.5,0.7-0.6,1.1h3.7c-0.1-0.5-0.3-0.9-0.6-1.1c-0.3-0.3-0.7-0.4-1.2-0.4
		C160.3,26.5,159.9,26.7,159.6,26.9z"/>
</g>
<g class="st1">
	<path d="M171.7,25.7c0.6,0.6,0.9,1.4,0.9,2.5v4.3h-2v-0.9c-0.4,0.7-1.2,1.1-2.3,1.1c-0.6,0-1.1-0.1-1.5-0.3c-0.4-0.2-0.7-0.5-1-0.8
		c-0.2-0.3-0.3-0.7-0.3-1.2c0-0.7,0.3-1.3,0.8-1.7s1.3-0.6,2.4-0.6h1.7c0-0.5-0.1-0.8-0.4-1.1c-0.3-0.3-0.7-0.4-1.3-0.4
		c-0.4,0-0.8,0.1-1.2,0.2c-0.4,0.1-0.7,0.3-1,0.5l-0.8-1.5c0.4-0.3,0.9-0.5,1.5-0.7c0.6-0.2,1.2-0.2,1.8-0.2
		C170.2,24.9,171.1,25.2,171.7,25.7z M169.9,30.9c0.3-0.2,0.5-0.4,0.6-0.8v-0.8H169c-0.9,0-1.3,0.3-1.3,0.9c0,0.3,0.1,0.5,0.3,0.7
		c0.2,0.2,0.5,0.2,0.9,0.2C169.2,31.2,169.6,31.1,169.9,30.9z"/>
</g>
<g class="st1">
	<path d="M174.6,22.1h2.2v10.4h-2.2V22.1z"/>
</g>
<g class="st1">
	<path d="M184.2,32.2c-0.2,0.2-0.5,0.3-0.8,0.4c-0.3,0.1-0.6,0.1-1,0.1c-0.9,0-1.6-0.2-2.1-0.7c-0.5-0.5-0.7-1.1-0.7-2v-3.1h-1.2
		v-1.7h1.2v-1.8h2.2v1.8h1.9v1.7h-1.9v3.1c0,0.3,0.1,0.6,0.2,0.7c0.2,0.2,0.4,0.3,0.7,0.3c0.3,0,0.6-0.1,0.9-0.3L184.2,32.2z"/>
	<path d="M192.3,25.7c0.6,0.6,0.9,1.4,0.9,2.5v4.3H191v-4c0-0.6-0.1-1-0.4-1.3c-0.3-0.3-0.6-0.4-1.1-0.4c-0.6,0-1,0.2-1.3,0.5
		c-0.3,0.3-0.5,0.8-0.5,1.5v3.7h-2.2V22.1h2.2v3.6c0.3-0.3,0.6-0.5,1.1-0.7c0.4-0.2,0.9-0.2,1.3-0.2C191,24.9,191.7,25.2,192.3,25.7
		z"/>
	<path d="M199.3,22.7h2.3v9.8h-2.3V22.7z"/>
	<path d="M210.5,25.7c0.6,0.6,0.9,1.4,0.9,2.5v4.3h-2.2v-4c0-0.6-0.1-1-0.4-1.3c-0.3-0.3-0.6-0.4-1.1-0.4c-0.6,0-1,0.2-1.3,0.5
		c-0.3,0.3-0.5,0.8-0.5,1.5v3.7h-2.2V25h2.1v0.9c0.3-0.3,0.6-0.6,1.1-0.7s0.9-0.3,1.4-0.3C209.2,24.9,210,25.2,210.5,25.7z"/>
	<path d="M214.1,32.4c-0.6-0.2-1.1-0.3-1.4-0.6l0.7-1.6c0.3,0.2,0.7,0.4,1.2,0.5c0.5,0.1,0.9,0.2,1.4,0.2c0.9,0,1.4-0.2,1.4-0.7
		c0-0.2-0.1-0.4-0.4-0.5c-0.3-0.1-0.6-0.2-1.2-0.2c-0.6-0.1-1.1-0.2-1.5-0.3s-0.7-0.3-1-0.6c-0.3-0.3-0.4-0.7-0.4-1.3
		c0-0.5,0.1-0.9,0.4-1.3c0.3-0.4,0.7-0.7,1.2-0.9c0.5-0.2,1.1-0.3,1.9-0.3c0.5,0,1.1,0.1,1.6,0.2c0.5,0.1,1,0.3,1.3,0.5l-0.7,1.6
		c-0.7-0.4-1.4-0.6-2.2-0.6c-0.5,0-0.8,0.1-1.1,0.2s-0.4,0.3-0.4,0.5c0,0.2,0.1,0.4,0.4,0.5c0.3,0.1,0.7,0.2,1.2,0.3
		c0.6,0.1,1.1,0.2,1.5,0.3c0.4,0.1,0.7,0.3,1,0.6c0.3,0.3,0.4,0.7,0.4,1.3c0,0.5-0.1,0.9-0.4,1.2c-0.3,0.4-0.7,0.6-1.2,0.8
		c-0.5,0.2-1.2,0.3-1.9,0.3C215.3,32.6,214.7,32.6,214.1,32.4z"/>
	<path d="M228.4,25v7.5h-2.1v-0.9c-0.3,0.3-0.6,0.6-1,0.7c-0.4,0.2-0.8,0.3-1.3,0.3c-1,0-1.8-0.3-2.4-0.9s-0.9-1.4-0.9-2.5V25h2.2
		v3.9c0,1.2,0.5,1.8,1.5,1.8c0.5,0,0.9-0.2,1.3-0.5s0.5-0.8,0.5-1.5V25H228.4z"/>
</g>
<g class="st1">
	<path d="M233.6,25.2c0.4-0.2,1-0.3,1.5-0.3v2c-0.2,0-0.4,0-0.5,0c-0.6,0-1.1,0.2-1.5,0.5c-0.4,0.3-0.5,0.9-0.5,1.6v3.6h-2.2V25h2.1
		v1C232.8,25.6,233.1,25.3,233.6,25.2z"/>
</g>
<g class="st1">
	<path d="M242.1,25.7c0.6,0.6,0.9,1.4,0.9,2.5v4.3h-2v-0.9c-0.4,0.7-1.2,1.1-2.3,1.1c-0.6,0-1.1-0.1-1.5-0.3c-0.4-0.2-0.7-0.5-1-0.8
		c-0.2-0.3-0.3-0.7-0.3-1.2c0-0.7,0.3-1.3,0.8-1.7s1.3-0.6,2.4-0.6h1.7c0-0.5-0.1-0.8-0.4-1.1c-0.3-0.3-0.7-0.4-1.3-0.4
		c-0.4,0-0.8,0.1-1.2,0.2c-0.4,0.1-0.7,0.3-1,0.5l-0.8-1.5c0.4-0.3,0.9-0.5,1.5-0.7c0.6-0.2,1.2-0.2,1.8-0.2
		C240.6,24.9,241.5,25.2,242.1,25.7z M240.2,30.9c0.3-0.2,0.5-0.4,0.6-0.8v-0.8h-1.5c-0.9,0-1.3,0.3-1.3,0.9c0,0.3,0.1,0.5,0.3,0.7
		c0.2,0.2,0.5,0.2,0.9,0.2C239.6,31.2,239.9,31.1,240.2,30.9z"/>
</g>
<g class="st1">
	<path d="M251.8,25.7c0.6,0.6,0.9,1.4,0.9,2.5v4.3h-2.2v-4c0-0.6-0.1-1-0.4-1.3c-0.3-0.3-0.6-0.4-1.1-0.4c-0.6,0-1,0.2-1.3,0.5
		c-0.3,0.3-0.5,0.8-0.5,1.5v3.7H245V25h2.1v0.9c0.3-0.3,0.6-0.6,1.1-0.7s0.9-0.3,1.4-0.3C250.5,24.9,251.3,25.2,251.8,25.7z"/>
</g>
<g class="st1">
	<path d="M256.2,32.1c-0.6-0.3-1.1-0.8-1.5-1.4s-0.5-1.3-0.5-2c0-0.7,0.2-1.4,0.5-2c0.4-0.6,0.9-1,1.5-1.4c0.6-0.3,1.4-0.5,2.2-0.5
		c0.8,0,1.5,0.2,2.1,0.5c0.6,0.3,1,0.8,1.3,1.4l-1.7,0.9c-0.4-0.7-1-1-1.7-1c-0.6,0-1,0.2-1.4,0.6c-0.4,0.4-0.6,0.9-0.6,1.5
		c0,0.6,0.2,1.2,0.6,1.5c0.4,0.4,0.8,0.6,1.4,0.6c0.7,0,1.3-0.3,1.7-1l1.7,0.9c-0.3,0.6-0.7,1.1-1.3,1.4s-1.3,0.5-2.1,0.5
		C257.6,32.6,256.9,32.5,256.2,32.1z"/>
</g>
<g class="st1">
	<path d="M270.3,29.4h-5.7c0.1,0.5,0.3,0.8,0.7,1.1s0.9,0.4,1.4,0.4c0.4,0,0.7-0.1,1-0.2c0.3-0.1,0.6-0.3,0.8-0.6l1.2,1.3
		c-0.7,0.8-1.7,1.2-3.1,1.2c-0.8,0-1.6-0.2-2.3-0.5c-0.7-0.3-1.2-0.8-1.5-1.4s-0.5-1.3-0.5-2c0-0.7,0.2-1.4,0.5-2
		c0.4-0.6,0.8-1.1,1.4-1.4c0.6-0.3,1.3-0.5,2.1-0.5c0.7,0,1.4,0.2,2,0.5s1.1,0.8,1.4,1.4s0.5,1.3,0.5,2.1
		C270.3,28.8,270.3,29,270.3,29.4z M265.2,26.9c-0.3,0.3-0.5,0.7-0.6,1.1h3.7c-0.1-0.5-0.3-0.9-0.6-1.1c-0.3-0.3-0.7-0.4-1.2-0.4
		C265.9,26.5,265.5,26.7,265.2,26.9z"/>
</g>
<g class="st1">
	<path d="M277.9,32c-0.8-0.4-1.4-1-1.9-1.8c-0.5-0.8-0.7-1.6-0.7-2.6c0-1,0.2-1.8,0.7-2.6c0.5-0.8,1.1-1.4,1.9-1.8
		c0.8-0.4,1.7-0.7,2.7-0.7c0.8,0,1.6,0.1,2.3,0.4c0.7,0.3,1.3,0.7,1.7,1.3l-1.5,1.3c-0.7-0.8-1.5-1.1-2.5-1.1
		c-0.6,0-1.1,0.1-1.6,0.4c-0.5,0.3-0.8,0.6-1.1,1.1c-0.3,0.5-0.4,1-0.4,1.6c0,0.6,0.1,1.1,0.4,1.6c0.3,0.5,0.6,0.8,1.1,1.1
		s1,0.4,1.6,0.4c1,0,1.8-0.4,2.5-1.2l1.5,1.3c-0.5,0.6-1,1-1.7,1.3c-0.7,0.3-1.5,0.4-2.3,0.4C279.6,32.7,278.7,32.5,277.9,32z"/>
</g>
<g class="st1">
	<path d="M287.2,32.1c-0.6-0.3-1.1-0.8-1.5-1.4s-0.5-1.3-0.5-2c0-0.7,0.2-1.4,0.5-2c0.4-0.6,0.8-1,1.5-1.4c0.6-0.3,1.3-0.5,2.1-0.5
		s1.5,0.2,2.1,0.5c0.6,0.3,1.1,0.8,1.5,1.4c0.4,0.6,0.5,1.3,0.5,2c0,0.7-0.2,1.4-0.5,2c-0.4,0.6-0.8,1-1.5,1.4
		c-0.6,0.3-1.3,0.5-2.1,0.5S287.8,32.5,287.2,32.1z M290.7,30.3c0.4-0.4,0.5-0.9,0.5-1.5s-0.2-1.1-0.5-1.5s-0.8-0.6-1.4-0.6
		c-0.6,0-1,0.2-1.4,0.6c-0.4,0.4-0.5,0.9-0.5,1.5s0.2,1.1,0.5,1.5c0.4,0.4,0.8,0.6,1.4,0.6C289.9,30.8,290.3,30.7,290.7,30.3z"/>
	<path d="M302,25l-3.2,7.5h-2.3l-3.2-7.5h2.3l2.1,5.1l2.2-5.1H302z"/>
</g>
<g class="st1">
	<path d="M310.2,29.4h-5.7c0.1,0.5,0.3,0.8,0.7,1.1s0.9,0.4,1.4,0.4c0.4,0,0.7-0.1,1-0.2c0.3-0.1,0.6-0.3,0.8-0.6l1.2,1.3
		c-0.7,0.8-1.7,1.2-3.1,1.2c-0.8,0-1.6-0.2-2.3-0.5s-1.2-0.8-1.5-1.4c-0.4-0.6-0.5-1.3-0.5-2c0-0.7,0.2-1.4,0.5-2
		c0.3-0.6,0.8-1.1,1.4-1.4c0.6-0.3,1.3-0.5,2.1-0.5c0.7,0,1.4,0.2,2,0.5c0.6,0.3,1.1,0.8,1.4,1.4s0.5,1.3,0.5,2.1
		C310.2,28.8,310.2,29,310.2,29.4z M305.1,26.9c-0.3,0.3-0.5,0.7-0.6,1.1h3.7c-0.1-0.5-0.3-0.9-0.6-1.1c-0.3-0.3-0.7-0.4-1.2-0.4
		C305.8,26.5,305.4,26.7,305.1,26.9z"/>
</g>
<g class="st1">
	<path d="M314.8,25.2c0.4-0.2,1-0.3,1.5-0.3v2c-0.2,0-0.4,0-0.5,0c-0.6,0-1.1,0.2-1.5,0.5c-0.4,0.3-0.5,0.9-0.5,1.6v3.6h-2.2V25h2.1
		v1C314,25.6,314.4,25.3,314.8,25.2z"/>
</g>
<g class="st1">
	<path d="M323.4,25.7c0.6,0.6,0.9,1.4,0.9,2.5v4.3h-2v-0.9c-0.4,0.7-1.2,1.1-2.3,1.1c-0.6,0-1.1-0.1-1.5-0.3c-0.4-0.2-0.7-0.5-1-0.8
		c-0.2-0.3-0.3-0.7-0.3-1.2c0-0.7,0.3-1.3,0.8-1.7s1.3-0.6,2.4-0.6h1.7c0-0.5-0.1-0.8-0.4-1.1c-0.3-0.3-0.7-0.4-1.3-0.4
		c-0.4,0-0.8,0.1-1.2,0.2c-0.4,0.1-0.7,0.3-1,0.5l-0.8-1.5c0.4-0.3,0.9-0.5,1.5-0.7c0.6-0.2,1.2-0.2,1.8-0.2
		C321.8,24.9,322.7,25.2,323.4,25.7z M321.5,30.9c0.3-0.2,0.5-0.4,0.6-0.8v-0.8h-1.5c-0.9,0-1.3,0.3-1.3,0.9c0,0.3,0.1,0.5,0.3,0.7
		c0.2,0.2,0.5,0.2,0.9,0.2C320.9,31.2,321.2,31.1,321.5,30.9z"/>
</g>
<g class="st1">
	<path d="M334.1,25v6.3c0,1.4-0.4,2.4-1.1,3.1s-1.8,1-3.2,1c-0.7,0-1.4-0.1-2.1-0.3c-0.7-0.2-1.2-0.4-1.6-0.8l0.9-1.6
		c0.3,0.3,0.7,0.5,1.2,0.6c0.5,0.2,1,0.2,1.5,0.2c0.8,0,1.3-0.2,1.7-0.5c0.4-0.3,0.5-0.9,0.5-1.5v-0.3c-0.6,0.6-1.4,0.9-2.4,0.9
		c-0.7,0-1.3-0.2-1.9-0.5c-0.6-0.3-1-0.7-1.4-1.3s-0.5-1.2-0.5-1.9s0.2-1.4,0.5-1.9s0.8-1,1.4-1.3c0.6-0.3,1.2-0.5,1.9-0.5
		c1.1,0,1.9,0.4,2.5,1.1v-1H334.1z M331.4,29.9c0.4-0.3,0.6-0.8,0.6-1.3s-0.2-1-0.6-1.3c-0.4-0.3-0.8-0.5-1.4-0.5
		c-0.6,0-1.1,0.2-1.4,0.5c-0.4,0.3-0.6,0.8-0.6,1.3s0.2,1,0.6,1.3c0.4,0.3,0.8,0.5,1.4,0.5C330.6,30.4,331,30.2,331.4,29.9z"/>
	<path d="M343.5,29.4h-5.7c0.1,0.5,0.3,0.8,0.7,1.1s0.9,0.4,1.4,0.4c0.4,0,0.7-0.1,1-0.2c0.3-0.1,0.6-0.3,0.8-0.6l1.2,1.3
		c-0.7,0.8-1.7,1.2-3.1,1.2c-0.8,0-1.6-0.2-2.3-0.5s-1.2-0.8-1.5-1.4c-0.4-0.6-0.5-1.3-0.5-2c0-0.7,0.2-1.4,0.5-2
		c0.3-0.6,0.8-1.1,1.4-1.4c0.6-0.3,1.3-0.5,2.1-0.5c0.7,0,1.4,0.2,2,0.5c0.6,0.3,1.1,0.8,1.4,1.4s0.5,1.3,0.5,2.1
		C343.5,28.8,343.5,29,343.5,29.4z M338.4,26.9c-0.3,0.3-0.5,0.7-0.6,1.1h3.7c-0.1-0.5-0.3-0.9-0.6-1.1c-0.3-0.3-0.7-0.4-1.2-0.4
		C339.1,26.5,338.7,26.7,338.4,26.9z"/>
	<path d="M349.4,32.3c-0.3-1.1-0.5-2.3-0.5-3.6s0.2-2.5,0.5-3.6c0.3-1.1,0.7-2.1,1.3-2.9h2.1c-0.6,1-1,2.1-1.3,3.2
		c-0.3,1.1-0.4,2.2-0.4,3.4s0.1,2.3,0.4,3.4c0.3,1.1,0.7,2.1,1.3,3.2h-2.1C350.1,34.4,349.7,33.4,349.4,32.3z"/>
</g>
<g class="st1">
	<path d="M354,27.3c-0.5-0.5-0.7-1.1-0.7-2s0.2-1.5,0.7-2c0.5-0.5,1-0.7,1.8-0.7s1.3,0.2,1.8,0.7s0.7,1.1,0.7,2s-0.2,1.5-0.7,2
		s-1,0.7-1.8,0.7S354.4,27.8,354,27.3z M356.5,26.5c0.2-0.3,0.3-0.6,0.3-1.2s-0.1-0.9-0.3-1.2c-0.2-0.3-0.4-0.4-0.7-0.4
		c-0.3,0-0.6,0.1-0.7,0.4c-0.2,0.3-0.3,0.7-0.3,1.2s0.1,0.9,0.3,1.2c0.2,0.3,0.4,0.4,0.7,0.4C356.1,26.9,356.3,26.7,356.5,26.5z
		 M361.6,22.7h1.7l-6.7,9.8h-1.7L361.6,22.7z M361.1,32.3c-0.4-0.2-0.7-0.5-0.9-0.9c-0.2-0.4-0.3-0.9-0.3-1.4s0.1-1,0.3-1.4
		c0.2-0.4,0.5-0.7,0.9-0.9c0.4-0.2,0.8-0.3,1.3-0.3c0.7,0,1.3,0.2,1.8,0.7c0.5,0.5,0.7,1.1,0.7,2s-0.2,1.5-0.7,2
		c-0.5,0.5-1,0.7-1.8,0.7C361.9,32.6,361.5,32.5,361.1,32.3z M363.1,31.1c0.2-0.3,0.3-0.7,0.3-1.2s-0.1-0.9-0.3-1.2
		c-0.2-0.3-0.4-0.4-0.7-0.4c-0.3,0-0.6,0.1-0.7,0.4c-0.2,0.3-0.3,0.6-0.3,1.2s0.1,0.9,0.3,1.2c0.2,0.3,0.4,0.4,0.7,0.4
		C362.7,31.5,363,31.4,363.1,31.1z"/>
</g>
<g class="st1">
	<path d="M365.1,35.2c0.6-1,1-2.1,1.3-3.2c0.3-1.1,0.4-2.2,0.4-3.4s-0.1-2.3-0.4-3.4c-0.3-1.1-0.7-2.1-1.3-3.2h2.1
		c0.6,0.8,1,1.8,1.3,2.9s0.5,2.3,0.5,3.6s-0.1,2.5-0.4,3.6c-0.3,1.1-0.7,2.1-1.3,2.9H365.1z"/>
</g>
<rect x="27.7" y="52.5" class="st2" width="95.9" height="95.9"/>
<g class="st3">
	<path class="st0" d="M118.7,143.6H32.6V57.4h86.2L118.7,143.6z M33.9,142.3h83.5V58.8H33.9L33.9,142.3z M113.3,138.1H84.5v-22H63.2
		v15.1h10v-4.1h-5.9v-6.8h13v17.8H55.2v-17.2H38V95.8h17.9v13H49V103h-4.1v10H60V91.7H38V62.9h28.8v22h21.3V69.8h-10v4.1H84v6.8H71
		V62.9h25.1v17.2h17.2v25.1H95.4v-13h6.8V98h4.2V88H91.3v21.3h22L113.3,138.1z M85.8,136.8h26.1v-26.1h-22v-24h17.8v12.7h-6.8v-5.9
		h-4.2v10.4h15.2V81.4H94.8V64.2H72.3v15.2h10.4v-4.2h-5.8v-6.8h12.7v17.8h-24v-22H39.4v26.1h22v24H43.6v-12.7h6.8v5.9h4.2V97.1
		H39.4v22.5h17.2v17.2H79v-15.2H68.7v4.2h5.8v6.8H61.8v-17.8h24L85.8,136.8z M113.3,75.9h-13v-13h13V75.9z M101.6,74.6h10.4V64.2
		h-10.4V74.6z M51.1,138.1H38v-13h13L51.1,138.1z M39.4,136.8h10.4v-10.4H39.4V136.8z"/>
	<path class="st0" d="M108.8,133.7H88.6v-20.2h20.2V133.7z M90,132.4h17.5v-17.5H90V132.4z"/>
	<path class="st0" d="M62.4,87.2H42.2V67.1h20.2V87.2z M43.5,85.9H61V68.4H43.5V85.9z"/>
</g>
<rect x="123.6" y="52.5" class="st2" width="95.9" height="95.9"/>
<g class="st3">
	<path class="st0" d="M214.7,143.6h-86.2V57.4h86.2V143.6z M129.8,142.3h83.5V58.8h-83.5V142.3z M209.2,138.1h-28.8v-22h-21.3v15.1
		h10v-4.1h-5.9v-6.8h13v17.8h-25.1v-17.2H134V95.8h17.9v13H145V103h-4.1v10H156V91.7h-22V62.9h28.8v22h21.3V69.8h-10v4.1h5.9v6.8
		h-13V62.9H192v17.2h17.2v25.1h-17.8v-13h6.8V98h4.1V88h-15.1v21.3h22V138.1z M181.8,136.8h26.1v-26.1h-22v-24h17.8v12.7h-6.8v-5.9
		h-4.2v10.4h15.2V81.4h-17.2V64.2h-22.5v15.2h10.4v-4.2h-5.9v-6.8h12.7v17.8h-24v-22h-26.1v26.1h22v24h-17.8v-12.7h6.8v5.9h4.2V97.1
		h-15.2v22.5h17.2v17.2H175v-15.2h-10.4v4.2h5.9v6.8h-12.7v-17.8h24L181.8,136.8z M209.2,75.9h-13v-13h13V75.9z M197.5,74.6h10.4
		V64.2h-10.4V74.6z M147,138.1h-13v-13h13V138.1z M135.3,136.8h10.4v-10.4h-10.4V136.8z"/>
	<path class="st0" d="M204.8,133.7h-20.2v-20.2h20.2V133.7z M185.9,132.3h17.5v-17.5h-17.5V132.3z"/>
	<path class="st0" d="M158.3,87.2h-20.2V67.1h20.2V87.2z M139.5,85.9H157V68.4h-17.5V85.9z"/>
</g>
<g class="st1">
	<path class="st0" d="M68.6,100.2c0.8,1.2,1.2,2.7,1.2,4.3c0,1.9-0.5,3.6-1.6,5c-1.1,1.4-2.6,2.5-4.6,3.3c-2,0.8-4.2,1.2-6.8,1.2
		c-2.6,0-4.8-0.4-6.8-1.2c-1.9-0.8-3.5-1.9-4.5-3.3s-1.6-3.1-1.6-5c0-1.6,0.4-3,1.2-4.3c0.8-1.2,2-2.2,3.4-3c-1.1-0.7-2-1.6-2.6-2.7
		c-0.6-1.1-0.9-2.3-0.9-3.7c0-1.8,0.5-3.3,1.5-4.7c1-1.3,2.4-2.3,4.2-3.1c1.8-0.7,3.8-1.1,6.1-1.1c2.3,0,4.4,0.4,6.2,1.1
		c1.8,0.7,3.2,1.7,4.2,3.1c1,1.3,1.5,2.9,1.5,4.7c0,1.4-0.3,2.6-0.9,3.7c-0.6,1.1-1.5,2-2.7,2.7C66.6,97.9,67.8,98.9,68.6,100.2z
		 M61,107.4c1-0.8,1.6-1.9,1.6-3.2c0-1.3-0.5-2.4-1.6-3.2c-1-0.8-2.5-1.2-4.2-1.2c-1.8,0-3.1,0.4-4.2,1.2c-1,0.8-1.5,1.9-1.5,3.2
		c0,1.4,0.5,2.5,1.5,3.2c1,0.8,2.4,1.2,4.2,1.2C58.6,108.6,60,108.2,61,107.4z M53.4,88.3c-0.9,0.7-1.3,1.6-1.3,2.8
		c0,1.2,0.4,2.1,1.3,2.8c0.8,0.7,2,1,3.5,1c1.5,0,2.6-0.3,3.5-1c0.9-0.7,1.3-1.6,1.3-2.8c0-1.2-0.4-2.1-1.3-2.8c-0.9-0.7-2-1-3.5-1
		C55.4,87.3,54.2,87.6,53.4,88.3z"/>
</g>
<g class="st1">
	<path class="st0" d="M93.2,95.2c1.6,0.8,2.9,1.9,3.8,3.4c0.9,1.4,1.4,3.1,1.4,5c0,2-0.5,3.9-1.5,5.4c-1,1.6-2.4,2.7-4.2,3.6
		c-1.8,0.8-3.7,1.3-5.9,1.3c-4.3,0-7.7-1.3-10.1-4c-2.4-2.6-3.6-6.4-3.6-11.3c0-3.5,0.7-6.5,2-9c1.3-2.5,3.2-4.4,5.5-5.7
		c2.4-1.3,5.1-1.9,8.2-1.9c1.6,0,3.2,0.2,4.7,0.5c1.5,0.4,2.8,0.9,3.8,1.6l-2.6,5.2c-1.5-1-3.4-1.5-5.8-1.5c-2.6,0-4.7,0.8-6.2,2.3
		c-1.5,1.5-2.3,3.7-2.5,6.6c1.8-1.8,4.3-2.7,7.6-2.7C89.8,94,91.6,94.4,93.2,95.2z M90.1,107.3c1-0.8,1.4-1.9,1.4-3.3
		c0-1.4-0.5-2.5-1.4-3.4c-1-0.8-2.2-1.3-3.8-1.3c-1.6,0-2.8,0.4-3.8,1.3c-1,0.9-1.5,2-1.5,3.3s0.5,2.4,1.4,3.3s2.3,1.3,4,1.3
		C87.9,108.5,89.2,108.1,90.1,107.3z"/>
</g>
<g class="st1">
	<path class="st0" d="M102.5,112.5c-0.8-0.8-1.2-1.8-1.2-3.1c0-1.3,0.4-2.3,1.2-3.1c0.8-0.8,1.8-1.2,3-1.2c1.2,0,2.2,0.4,3,1.2
		c0.8,0.8,1.2,1.8,1.2,3.1c0,1.2-0.4,2.3-1.2,3.1c-0.8,0.8-1.8,1.2-3,1.2C104.3,113.7,103.3,113.3,102.5,112.5z"/>
	<path class="st0" d="M133.9,86c2.4,2.6,3.6,6.4,3.6,11.3c0,3.5-0.7,6.5-2,9c-1.3,2.5-3.1,4.4-5.5,5.7c-2.4,1.3-5.1,1.9-8.2,1.9
		c-1.6,0-3.2-0.2-4.7-0.5c-1.5-0.4-2.8-0.9-3.8-1.6l2.6-5.2c1.5,1,3.4,1.5,5.8,1.5c2.6,0,4.7-0.8,6.2-2.3s2.3-3.8,2.5-6.7
		c-1.8,1.8-4.4,2.8-7.6,2.8c-2,0-3.7-0.4-5.4-1.2c-1.6-0.8-2.9-1.9-3.8-3.4c-0.9-1.4-1.4-3.1-1.4-5c0-2,0.5-3.8,1.5-5.4
		c1-1.6,2.4-2.7,4.2-3.6c1.8-0.8,3.7-1.3,5.9-1.3C128.1,82.1,131.5,83.4,133.9,86z M128.1,95.3c1-0.9,1.5-2,1.5-3.3
		s-0.5-2.4-1.4-3.3c-1-0.8-2.3-1.3-3.9-1.3c-1.5,0-2.8,0.4-3.7,1.2c-1,0.8-1.4,1.9-1.4,3.3c0,1.4,0.5,2.5,1.4,3.4
		c1,0.8,2.2,1.3,3.8,1.3C125.9,96.6,127.1,96.1,128.1,95.3z"/>
</g>
<g class="st1">
	<path class="st0" d="M161.1,95.2c1.6,0.8,2.9,1.9,3.8,3.4c0.9,1.4,1.4,3.1,1.4,5c0,2-0.5,3.9-1.5,5.4c-1,1.6-2.4,2.7-4.2,3.6
		c-1.8,0.8-3.7,1.3-5.9,1.3c-4.3,0-7.7-1.3-10.1-4c-2.4-2.6-3.6-6.4-3.6-11.3c0-3.5,0.7-6.5,2-9c1.3-2.5,3.2-4.4,5.5-5.7
		c2.4-1.3,5.1-1.9,8.2-1.9c1.6,0,3.2,0.2,4.7,0.5c1.5,0.4,2.8,0.9,3.8,1.6l-2.6,5.2c-1.5-1-3.4-1.5-5.8-1.5c-2.6,0-4.7,0.8-6.2,2.3
		c-1.5,1.5-2.3,3.7-2.5,6.6c1.8-1.8,4.3-2.7,7.6-2.7C157.7,94,159.5,94.4,161.1,95.2z M158,107.3c1-0.8,1.4-1.9,1.4-3.3
		c0-1.4-0.5-2.5-1.4-3.4c-1-0.8-2.2-1.3-3.8-1.3c-1.6,0-2.8,0.4-3.8,1.3c-1,0.9-1.5,2-1.5,3.3s0.5,2.4,1.4,3.3s2.3,1.3,4,1.3
		C155.8,108.5,157.1,108.1,158,107.3z"/>
</g>
<g class="st1">
	<path class="st0" d="M169.7,96.9c-1.4-1.5-2.1-3.6-2.1-6.2c0-2.6,0.7-4.6,2.1-6.2c1.4-1.5,3.3-2.3,5.5-2.3c2.3,0,4.1,0.8,5.5,2.3
		c1.4,1.5,2.1,3.6,2.1,6.2c0,2.6-0.7,4.6-2.1,6.2s-3.2,2.3-5.5,2.3C172.9,99.2,171.1,98.4,169.7,96.9z M177.5,94.4
		c0.6-0.8,0.9-2,0.9-3.6c0-1.6-0.3-2.8-0.9-3.6c-0.6-0.8-1.4-1.2-2.3-1.2c-1,0-1.7,0.4-2.3,1.3c-0.6,0.8-0.9,2-0.9,3.6
		s0.3,2.8,0.9,3.6c0.6,0.8,1.4,1.3,2.3,1.3C176.2,95.6,177,95.2,177.5,94.4z M193.5,82.6h5.2l-21,30.7h-5.2L193.5,82.6z
		 M192.1,112.6c-1.2-0.7-2.1-1.7-2.7-3c-0.6-1.3-1-2.8-1-4.5s0.3-3.2,1-4.5c0.6-1.3,1.5-2.3,2.7-3c1.2-0.7,2.5-1,3.9-1
		c2.3,0,4.1,0.8,5.5,2.3c1.4,1.5,2.1,3.6,2.1,6.2c0,2.6-0.7,4.6-2.1,6.2c-1.4,1.5-3.3,2.3-5.5,2.3
		C194.6,113.7,193.3,113.3,192.1,112.6z M198.4,108.8c0.6-0.8,0.9-2,0.9-3.6s-0.3-2.8-0.9-3.6c-0.6-0.8-1.4-1.3-2.3-1.3
		c-1,0-1.7,0.4-2.3,1.2c-0.6,0.8-0.9,2-0.9,3.6s0.3,2.8,0.9,3.6c0.6,0.8,1.4,1.2,2.3,1.2C197,110.1,197.8,109.7,198.4,108.8z"/>
</g>
<rect x="229.5" y="158.5" class="st2" width="95.9" height="95.9"/>
<g class="st3">
	<path class="st0" d="M320.6,249.5h-86.2v-86.2h86.2V249.5z M235.8,248.2h83.5v-83.5h-83.5V248.2z M315.1,244.1h-28.8v-22H265v15.1
		h10V233h-5.9v-6.8h13v17.9h-25.1v-17.2h-17.2v-25.1h17.8v13h-6.8v-5.9h-4.1v10h15.1v-21.3h-22v-28.8h28.8v22H290v-15.1h-10v4.1h5.9
		v6.9h-13v-17.9H298V186h17.2v25.1h-17.9v-13h6.8v5.9h4.1v-10h-15.1v21.3h22V244.1z M287.7,242.7h26.1v-26.1h-22v-24h17.8v12.7h-6.8
		v-5.9h-4.2v10.4h15.2v-22.5h-17.2v-17.2h-22.5v15.2h10.4v-4.2h-5.9v-6.8h12.7v17.8h-24v-22h-26.1v26.1h22v24h-17.8v-12.7h6.8v5.9
		h4.2v-10.4h-15.2v22.5h17.2v17.2h22.5v-15.2h-10.4v4.2h5.9v6.8h-12.7v-17.8h24L287.7,242.7z M315.1,181.9h-13v-13h13V181.9z
		 M303.4,180.5h10.4v-10.4h-10.4V180.5z M252.9,244.1h-13V231h13V244.1z M241.2,242.7h10.4v-10.4h-10.4V242.7z"/>
	<path class="st0" d="M310.7,239.6h-20.2v-20.2h20.2V239.6z M291.8,238.3h17.5v-17.5h-17.5V238.3z"/>
	<path class="st0" d="M264.2,193.2h-20.2V173h20.2V193.2z M245.4,191.8h17.5v-17.5h-17.5L245.4,191.8z"/>
</g>
<rect x="325.5" y="158.5" class="st2" width="95.9" height="95.9"/>
<g class="st3">
	<path class="st0" d="M416.5,249.5h-86.2v-86.2h86.2L416.5,249.5z M331.7,248.2h83.5v-83.5h-83.5V248.2z M411,244.1h-28.8v-22H361
		v15.1h10V233h-5.9v-6.8h13v17.9H353v-17.2h-17.2v-25.1h17.9v13h-6.9v-5.9h-4.1v10h15.1v-21.3h-22v-28.8h28.8v22h21.3v-15.1h-10v4.1
		h5.9v6.9h-13v-17.9h25.1V186h17.2v25.1h-17.9v-13h6.8v5.9h4.1v-10H389v21.3h22V244.1z M383.6,242.7h26.1v-26.1h-22v-24h17.8v12.7
		h-6.8v-5.9h-4.2v10.4h15.2v-22.5h-17.2v-17.2h-22.5v15.2h10.4v-4.2h-5.9v-6.8h12.7v17.8h-24v-22h-26.1v26.1h22v24h-17.8v-12.7h6.8
		v5.9h4.2v-10.4h-15.2v22.5h17.2v17.2h22.5v-15.2h-10.4v4.2h5.9v6.8h-12.7v-17.8h24L383.6,242.7z M411,181.9h-13v-13h13L411,181.9z
		 M399.3,180.5h10.4v-10.4h-10.4V180.5z M348.9,244.1h-13V231h13V244.1z M337.1,242.7h10.4v-10.4h-10.4V242.7z"/>
	<path class="st0" d="M406.6,239.6h-20.2v-20.2h20.2V239.6z M387.8,238.3h17.5v-17.5h-17.5L387.8,238.3z"/>
	<path class="st0" d="M360.2,193.2H340V173h20.2L360.2,193.2z M341.3,191.8h17.5v-17.5h-17.5V191.8z"/>
</g>
<g class="st1">
	<path class="st0" d="M270.7,206.1c0.8,1.2,1.2,2.7,1.2,4.3c0,1.9-0.5,3.6-1.6,5c-1.1,1.4-2.6,2.5-4.6,3.3c-2,0.8-4.2,1.2-6.8,1.2
		s-4.8-0.4-6.8-1.2s-3.5-1.9-4.5-3.3c-1.1-1.4-1.6-3.1-1.6-5c0-1.6,0.4-3,1.2-4.3c0.8-1.2,2-2.2,3.4-3c-1.1-0.7-2-1.6-2.6-2.7
		c-0.6-1.1-0.9-2.3-0.9-3.7c0-1.8,0.5-3.3,1.5-4.7c1-1.3,2.4-2.3,4.2-3.1c1.8-0.7,3.8-1.1,6.1-1.1c2.3,0,4.4,0.4,6.2,1.1
		c1.8,0.7,3.2,1.7,4.2,3.1c1,1.3,1.5,2.9,1.5,4.7c0,1.4-0.3,2.6-0.9,3.7c-0.6,1.1-1.5,2-2.7,2.7
		C268.8,203.9,269.9,204.9,270.7,206.1z M263.2,213.4c1-0.8,1.6-1.9,1.6-3.2c0-1.3-0.5-2.4-1.6-3.2c-1-0.8-2.5-1.2-4.2-1.2
		c-1.8,0-3.1,0.4-4.2,1.2c-1,0.8-1.5,1.9-1.5,3.2c0,1.4,0.5,2.5,1.5,3.2c1,0.8,2.4,1.2,4.2,1.2C260.7,214.6,262.1,214.2,263.2,213.4
		z M255.5,194.2c-0.9,0.7-1.3,1.6-1.3,2.8c0,1.2,0.4,2.1,1.3,2.8c0.8,0.7,2,1,3.5,1c1.5,0,2.6-0.3,3.5-1c0.9-0.7,1.3-1.6,1.3-2.8
		c0-1.2-0.4-2.1-1.3-2.8c-0.9-0.7-2-1-3.5-1C257.5,193.2,256.4,193.6,255.5,194.2z"/>
</g>
<g class="st1">
	<path class="st0" d="M298.2,213.5v5.8h-23.2v-4.6l11.9-11.2c1.3-1.2,2.1-2.2,2.5-3.1c0.4-0.9,0.7-1.7,0.7-2.6
		c0-1.2-0.4-2.2-1.3-2.8c-0.8-0.7-2.1-1-3.7-1c-1.3,0-2.6,0.3-3.6,0.8c-1.1,0.5-2,1.3-2.7,2.3l-5.2-3.3c1.2-1.8,2.9-3.2,5-4.2
		s4.5-1.5,7.2-1.5c2.3,0,4.3,0.4,6,1.1c1.7,0.7,3,1.8,4,3.2c1,1.4,1.4,3,1.4,4.8c0,1.7-0.4,3.2-1.1,4.7c-0.7,1.5-2.1,3.1-4.1,5
		l-7.1,6.7H298.2z"/>
</g>
<g class="st1">
	<path class="st0" d="M302.6,218.4c-0.8-0.8-1.2-1.8-1.2-3.1c0-1.3,0.4-2.3,1.2-3.1c0.8-0.8,1.8-1.2,3-1.2c1.2,0,2.2,0.4,3,1.2
		c0.8,0.8,1.2,1.8,1.2,3.1c0,1.2-0.4,2.3-1.2,3.1c-0.8,0.8-1.8,1.2-3,1.2C304.4,219.6,303.4,219.2,302.6,218.4z"/>
</g>
<g class="st1">
	<path class="st0" d="M318.9,217.9c-2-1.3-3.6-3.1-4.7-5.5s-1.7-5.2-1.7-8.5c0-3.3,0.6-6.2,1.7-8.5s2.7-4.2,4.7-5.5
		c2-1.3,4.3-1.9,6.8-1.9c2.5,0,4.8,0.6,6.8,1.9c2,1.3,3.5,3.1,4.7,5.5c1.1,2.4,1.7,5.2,1.7,8.5c0,3.3-0.6,6.2-1.7,8.5
		c-1.1,2.4-2.7,4.2-4.7,5.5s-4.3,1.9-6.8,1.9C323.1,219.8,320.9,219.2,318.9,217.9z M330.1,211.4c1.1-1.6,1.6-4.1,1.6-7.5
		c0-3.4-0.5-5.9-1.6-7.5c-1.1-1.6-2.5-2.4-4.4-2.4c-1.8,0-3.3,0.8-4.4,2.4c-1.1,1.6-1.6,4.1-1.6,7.5c0,3.4,0.5,5.9,1.6,7.5
		c1.1,1.6,2.5,2.4,4.4,2.4C327.5,213.8,329,213,330.1,211.4z"/>
</g>
<g class="st1">
	<path class="st0" d="M366.2,188.5v4.6l-11.4,26.1h-7.7l11-24.9h-10.2v5h-6.3v-10.8H366.2z"/>
</g>
<g class="st1">
	<path class="st0" d="M371.2,202.8c-1.4-1.5-2.1-3.6-2.1-6.2c0-2.6,0.7-4.6,2.1-6.2c1.4-1.5,3.3-2.3,5.5-2.3c2.3,0,4.1,0.8,5.5,2.3
		c1.4,1.5,2.1,3.6,2.1,6.2c0,2.6-0.7,4.6-2.1,6.2s-3.2,2.3-5.5,2.3C374.5,205.1,372.7,204.3,371.2,202.8z M379.1,200.3
		c0.6-0.8,0.9-2,0.9-3.6c0-1.6-0.3-2.8-0.9-3.6c-0.6-0.8-1.4-1.2-2.3-1.2c-1,0-1.7,0.4-2.3,1.3c-0.6,0.8-0.9,2-0.9,3.6
		s0.3,2.8,0.9,3.6c0.6,0.8,1.4,1.3,2.3,1.3C377.7,201.5,378.5,201.1,379.1,200.3z M395.1,188.5h5.2l-21,30.7h-5.2L395.1,188.5z
		 M393.7,218.6c-1.2-0.7-2.1-1.7-2.7-3c-0.6-1.3-1-2.8-1-4.5s0.3-3.2,1-4.5c0.6-1.3,1.5-2.3,2.7-3c1.2-0.7,2.5-1,3.9-1
		c2.3,0,4.1,0.8,5.5,2.3c1.4,1.5,2.1,3.6,2.1,6.2c0,2.6-0.7,4.6-2.1,6.2c-1.4,1.5-3.3,2.3-5.5,2.3
		C396.1,219.6,394.8,219.3,393.7,218.6z M400,214.8c0.6-0.8,0.9-2,0.9-3.6s-0.3-2.8-0.9-3.6c-0.6-0.8-1.4-1.3-2.3-1.3
		c-1,0-1.7,0.4-2.3,1.2c-0.6,0.8-0.9,2-0.9,3.6s0.3,2.8,0.9,3.6s1.4,1.2,2.3,1.2C398.6,216,399.4,215.6,400,214.8z"/>
</g>
<path d="M279.1,86.3c-0.5-0.2-0.9-0.6-1.1-1.1c-0.5-1-0.5-2.1,0-3.1c0.3-0.5,0.7-0.8,1.1-1.1c0.5-0.3,1.1-0.4,1.6-0.4
	c0.6,0,1.1,0.1,1.6,0.4c0.5,0.2,0.9,0.6,1.1,1.1c0.5,1,0.5,2.1,0,3.1c-0.3,0.5-0.7,0.8-1.1,1.1c-0.5,0.3-1.1,0.4-1.6,0.4
	C280.1,86.7,279.6,86.6,279.1,86.3z M281.8,84.9c0.5-0.7,0.5-1.7,0-2.3c-0.6-0.6-1.5-0.6-2.1,0c-0.6,0.7-0.6,1.7,0,2.3
	C280.2,85.5,281.2,85.5,281.8,84.9z"/>
<path d="M286.9,80.9h1.5v1.3h-1.5v4.4h-1.7v-4.4h-0.9v-1.3h0.9v-0.3c0-0.6,0.2-1.2,0.6-1.6c0.5-0.4,1.1-0.6,1.7-0.6
	c0.2,0,0.5,0,0.7,0.1c0.2,0,0.4,0.1,0.6,0.2l-0.4,1.2c-0.2-0.1-0.4-0.2-0.7-0.2c-0.5,0-0.8,0.3-0.8,0.8V80.9z"/>
<path d="M292.4,79.1h1.8v7.6h-1.8V79.1z"/>
<path d="M301.1,81.4c0.5,0.5,0.7,1.2,0.7,1.9v3.3h-1.7v-3.1c0-0.4-0.1-0.7-0.3-1c-0.2-0.2-0.5-0.4-0.9-0.3c-0.4,0-0.7,0.1-1,0.4
	c-0.3,0.3-0.4,0.8-0.4,1.2v2.9h-1.7v-5.9h1.6v0.7c0.2-0.3,0.5-0.4,0.8-0.6c0.3-0.1,0.7-0.2,1.1-0.2C300,80.7,300.7,80.9,301.1,81.4z
	"/>
<path d="M309.3,78.6v8h-1.6V86c-0.5,0.5-1.1,0.8-1.8,0.8c-0.5,0-1-0.1-1.5-0.4c-0.4-0.2-0.8-0.6-1-1c-0.5-1-0.5-2.2,0-3.2
	c0.3-0.4,0.6-0.8,1-1c0.5-0.2,1-0.4,1.5-0.4c0.7,0,1.3,0.2,1.7,0.7v-2.9H309.3z M307.2,84.9c0.6-0.7,0.6-1.7,0-2.3
	c-0.6-0.6-1.5-0.6-2.1,0c-0.6,0.7-0.6,1.7,0,2.3C305.7,85.5,306.6,85.5,307.2,84.9z"/>
<path d="M312,86.3c-0.5-0.2-0.9-0.6-1.1-1.1c-0.5-1-0.5-2.1,0-3.1c0.3-0.5,0.7-0.8,1.1-1.1c1-0.5,2.3-0.5,3.3,0
	c0.5,0.2,0.9,0.6,1.1,1.1c0.5,1,0.5,2.1,0,3.1c-0.3,0.5-0.7,0.8-1.1,1.1C314.3,86.8,313,86.8,312,86.3z M314.7,84.9
	c0.6-0.7,0.6-1.7,0-2.3c-0.3-0.3-0.7-0.5-1.1-0.4c-0.4,0-0.8,0.1-1.1,0.4c-0.6,0.7-0.6,1.7,0,2.3c0.3,0.3,0.7,0.5,1.1,0.4
	C314,85.3,314.4,85.2,314.7,84.9L314.7,84.9z"/>
<path d="M323.2,81.4c0.5,0.5,0.7,1.2,0.7,1.9v3.3h-1.7v-3.1c0-0.4-0.1-0.7-0.3-1c-0.2-0.2-0.6-0.4-0.9-0.3c-0.4,0-0.7,0.1-1,0.4
	c-0.3,0.3-0.4,0.8-0.4,1.2v2.9H318v-5.9h1.6v0.7c0.2-0.3,0.5-0.4,0.8-0.6c0.3-0.1,0.7-0.2,1.1-0.2C322.2,80.7,322.8,80.9,323.2,81.4
	z"/>
<path d="M331.2,84.2h-4.4c0.1,0.3,0.3,0.7,0.6,0.9c0.3,0.2,0.7,0.3,1.1,0.3c0.3,0,0.6,0,0.8-0.1c0.2-0.1,0.5-0.2,0.7-0.4l0.9,1
	c-0.6,0.7-1.5,1-2.4,0.9c-0.6,0-1.2-0.1-1.7-0.4c-0.5-0.2-0.9-0.6-1.2-1.1c-0.5-1-0.5-2.1,0-3.1c0.3-0.5,0.7-0.8,1.1-1.1
	c0.5-0.3,1-0.4,1.6-0.4c0.5,0,1.1,0.1,1.5,0.4c0.5,0.2,0.8,0.6,1.1,1.1c0.3,0.5,0.4,1,0.4,1.6C331.2,83.8,331.2,83.9,331.2,84.2z
	 M327.2,82.3c-0.3,0.2-0.4,0.5-0.5,0.9h2.9c0-0.3-0.2-0.7-0.5-0.9c-0.3-0.2-0.6-0.3-1-0.3C327.8,82,327.5,82.1,327.2,82.3z"/>
<path d="M332.9,86.6c-0.4-0.1-0.8-0.2-1.1-0.4l0.6-1.2c0.3,0.2,0.6,0.3,0.9,0.4c0.4,0.1,0.7,0.2,1.1,0.2c0.7,0,1.1-0.2,1.1-0.5
	c0-0.2-0.1-0.3-0.3-0.4c-0.3-0.1-0.6-0.2-0.9-0.2c-0.4-0.1-0.8-0.1-1.2-0.2c-0.3-0.1-0.6-0.3-0.8-0.5c-0.2-0.3-0.4-0.6-0.3-1
	c0-0.4,0.1-0.7,0.3-1c0.2-0.3,0.6-0.5,0.9-0.7c0.5-0.2,1-0.2,1.4-0.2c0.4,0,0.8,0,1.2,0.1c0.4,0.1,0.7,0.2,1,0.4l-0.6,1.2
	c-0.5-0.3-1.1-0.4-1.7-0.4c-0.3,0-0.6,0-0.8,0.2c-0.2,0.1-0.3,0.2-0.3,0.4c0,0.2,0.1,0.3,0.3,0.4c0.3,0.1,0.6,0.2,0.9,0.2
	c0.4,0.1,0.8,0.1,1.2,0.2c0.3,0.1,0.6,0.3,0.8,0.5c0.2,0.3,0.4,0.6,0.3,1c0,0.4-0.1,0.7-0.3,1c-0.3,0.3-0.6,0.5-1,0.7
	c-0.5,0.2-1,0.2-1.5,0.2C333.8,86.7,333.3,86.7,332.9,86.6z"/>
<path d="M338.2,79.7c-0.4-0.3-0.4-0.9-0.1-1.3c0,0,0,0,0.1-0.1c0.2-0.2,0.5-0.3,0.8-0.3c0.3,0,0.6,0.1,0.8,0.3
	c0.2,0.1,0.3,0.4,0.3,0.6c0,0.3-0.1,0.5-0.3,0.7c-0.2,0.2-0.5,0.3-0.8,0.3C338.7,80,338.4,79.9,338.2,79.7z M338.1,80.8h1.7v5.8
	h-1.7V80.8z"/>
<path d="M345.8,81.4c0.5,0.5,0.8,1.2,0.7,1.9v3.3h-1.6v-0.7c-0.4,0.6-1.1,0.9-1.8,0.8c-0.4,0-0.8-0.1-1.1-0.2
	c-0.3-0.1-0.6-0.4-0.8-0.6c-0.2-0.3-0.2-0.6-0.2-0.9c0-0.5,0.2-1,0.6-1.3c0.6-0.4,1.2-0.5,1.9-0.5h1.3c0-0.3-0.1-0.6-0.3-0.8
	c-0.3-0.2-0.6-0.3-1-0.3c-0.3,0-0.6,0.1-0.9,0.2c-0.3,0.1-0.5,0.2-0.8,0.4l-0.6-1.2c0.3-0.2,0.7-0.4,1.1-0.5
	c0.4-0.1,0.9-0.2,1.4-0.2C344.5,80.7,345.2,80.9,345.8,81.4z M344.3,85.4c0.2-0.1,0.4-0.3,0.5-0.6v-0.6h-1.2c-0.7,0-1,0.2-1,0.7
	c0,0.2,0.1,0.4,0.3,0.5c0.2,0.1,0.5,0.2,0.7,0.2C343.9,85.6,344.1,85.5,344.3,85.4L344.3,85.4z"/>
<path d="M349.4,78.8c0.2,0.2,0.3,0.5,0.3,0.8c0,0.1,0,0.3,0,0.4c-0.1,0.2-0.1,0.4-0.2,0.7l-0.6,1.6h-1.1l0.5-1.7
	c-0.2-0.1-0.3-0.2-0.4-0.4c-0.1-0.2-0.2-0.4-0.1-0.6c0-0.3,0.1-0.6,0.3-0.8c0.2-0.2,0.5-0.3,0.8-0.3
	C348.9,78.5,349.2,78.6,349.4,78.8z"/>
<path d="M351.2,86.6c-0.4-0.1-0.8-0.2-1.1-0.4l0.6-1.2c0.3,0.2,0.6,0.3,1,0.4c0.4,0.1,0.7,0.2,1.1,0.2c0.7,0,1.1-0.2,1.1-0.5
	c0-0.2-0.1-0.3-0.3-0.4c-0.3-0.1-0.6-0.2-0.9-0.2c-0.4-0.1-0.8-0.1-1.2-0.2c-0.3-0.1-0.6-0.3-0.8-0.5c-0.2-0.3-0.4-0.6-0.3-1
	c0-0.4,0.1-0.7,0.3-1c0.2-0.3,0.6-0.5,0.9-0.7c0.5-0.2,1-0.2,1.5-0.2c0.4,0,0.8,0,1.2,0.1c0.4,0.1,0.7,0.2,1,0.4l-0.6,1.2
	c-0.5-0.3-1.1-0.4-1.7-0.4c-0.3,0-0.6,0-0.8,0.2c-0.2,0.1-0.3,0.2-0.3,0.4c0,0.2,0.1,0.3,0.3,0.4c0.3,0.1,0.6,0.2,0.9,0.2
	c0.4,0.1,0.8,0.1,1.2,0.2c0.3,0.1,0.6,0.3,0.8,0.5c0.2,0.3,0.4,0.6,0.3,1c0,0.4-0.1,0.7-0.3,1c-0.2,0.3-0.6,0.5-1,0.7
	c-0.5,0.2-1,0.2-1.5,0.2C352.1,86.7,351.6,86.7,351.2,86.6z"/>
<path d="M364.6,79.4c0.5,0.2,0.9,0.5,1.1,0.9c0.5,0.9,0.5,2,0,2.9c-0.3,0.4-0.7,0.8-1.1,1c-0.6,0.2-1.1,0.3-1.8,0.3h-1.5v2.1h-1.8
	v-7.6h3.3C363.4,79,364,79.2,364.6,79.4z M363.9,82.8c0.6-0.5,0.6-1.4,0.1-1.9c0,0-0.1-0.1-0.1-0.1c-0.3-0.2-0.8-0.4-1.2-0.3h-1.4
	v2.6h1.4C363.2,83.1,363.6,83,363.9,82.8z"/>
<path d="M368.4,86.3c-0.5-0.2-0.9-0.6-1.1-1.1c-0.5-1-0.5-2.1,0-3.1c0.3-0.5,0.7-0.8,1.1-1.1c1-0.5,2.3-0.5,3.3,0
	c0.5,0.2,0.9,0.6,1.1,1.1c0.5,1,0.5,2.1,0,3.1c-0.3,0.5-0.7,0.8-1.1,1.1C370.6,86.8,369.4,86.8,368.4,86.3z M371.1,84.9
	c0.5-0.7,0.5-1.7,0-2.3c-0.6-0.6-1.5-0.6-2.1,0c-0.6,0.7-0.6,1.7,0,2.3C369.5,85.5,370.5,85.5,371.1,84.9z"/>
<path d="M379.2,81.1c0.4,0.3,0.8,0.6,1,1.1c0.5,1,0.5,2.2,0,3.2c-0.2,0.4-0.6,0.8-1,1c-0.5,0.2-1,0.4-1.5,0.4
	c-0.7,0-1.3-0.2-1.8-0.7v2.7h-1.7v-7.9h1.6v0.7c0.5-0.5,1.1-0.8,1.8-0.8C378.3,80.7,378.8,80.8,379.2,81.1z M378.5,84.9
	c0.5-0.7,0.5-1.7,0-2.3c-0.6-0.6-1.5-0.6-2.1,0c-0.5,0.7-0.5,1.7,0,2.3C377,85.5,377.9,85.5,378.5,84.9z"/>
<path d="M387.7,80.8v5.8h-1.6v-0.7c-0.2,0.3-0.5,0.5-0.8,0.6c-0.3,0.1-0.7,0.2-1,0.2c-0.7,0-1.3-0.2-1.8-0.7c-0.5-0.5-0.7-1.3-0.7-2
	v-3.2h1.7v3c0,0.9,0.4,1.4,1.2,1.4c0.4,0,0.7-0.1,1-0.4c0.3-0.3,0.4-0.8,0.4-1.2v-2.8H387.7z"/>
<path d="M389.2,78.6h1.7v8h-1.7V78.6z"/>
<path d="M396.9,81.4c0.5,0.5,0.8,1.2,0.7,1.9v3.3h-1.6v-0.7c-0.4,0.6-1.1,0.9-1.8,0.8c-0.4,0-0.8-0.1-1.2-0.2
	c-0.3-0.1-0.6-0.4-0.8-0.6c-0.2-0.3-0.3-0.6-0.3-0.9c0-0.5,0.2-1,0.6-1.3c0.6-0.4,1.2-0.5,1.9-0.5h1.4c0-0.3-0.1-0.6-0.3-0.8
	c-0.3-0.2-0.6-0.3-1-0.3c-0.3,0-0.6,0.1-0.9,0.2c-0.3,0.1-0.5,0.2-0.8,0.4l-0.6-1.2c0.3-0.2,0.7-0.4,1.1-0.5
	c0.4-0.1,0.9-0.2,1.4-0.2C395.6,80.7,396.3,80.9,396.9,81.4z M395.5,85.4c0.2-0.1,0.4-0.3,0.5-0.6v-0.6h-1.2c-0.7,0-1,0.2-1,0.7
	c0,0.2,0.1,0.4,0.2,0.5c0.2,0.1,0.5,0.2,0.7,0.2C395,85.6,395.2,85.5,395.5,85.4L395.5,85.4z"/>
<path d="M402.9,86.4c-0.2,0.1-0.4,0.2-0.6,0.3c-0.3,0.1-0.5,0.1-0.8,0.1c-0.6,0-1.2-0.2-1.6-0.5c-0.4-0.4-0.6-1-0.6-1.6v-2.4h-0.9
	v-1.3h0.9v-1.4h1.7v1.4h1.5v1.3h-1.5v2.4c0,0.2,0.1,0.4,0.2,0.6c0.1,0.1,0.3,0.2,0.5,0.2c0.2,0,0.5-0.1,0.7-0.2L402.9,86.4z"/>
<path d="M404,79.7c-0.4-0.3-0.4-0.9,0-1.3c0,0,0,0,0,0c0.2-0.2,0.5-0.3,0.8-0.3c0.3,0,0.5,0.1,0.8,0.3c0.2,0.2,0.3,0.4,0.3,0.7
	c0,0.3-0.1,0.5-0.3,0.7c-0.2,0.2-0.5,0.3-0.8,0.3C404.5,80,404.2,79.9,404,79.7z M403.9,80.8h1.7v5.8h-1.7V80.8z"/>
<path d="M408.2,86.3c-0.5-0.2-0.9-0.6-1.1-1.1c-0.5-1-0.5-2.1,0-3.1c0.3-0.5,0.7-0.8,1.1-1.1c1-0.5,2.3-0.5,3.3,0
	c0.5,0.2,0.9,0.6,1.1,1.1c0.5,1,0.5,2.1,0,3.1c-0.3,0.5-0.7,0.8-1.1,1.1C410.5,86.8,409.3,86.8,408.2,86.3z M411,84.9
	c0.5-0.7,0.5-1.7,0-2.3c-0.6-0.6-1.5-0.6-2.1,0c-0.6,0.7-0.6,1.7,0,2.3C409.5,85.5,410.4,85.5,411,84.9z"/>
<path d="M419.5,81.4c0.5,0.5,0.7,1.2,0.7,1.9v3.3h-1.7v-3.1c0-0.4-0.1-0.7-0.3-1c-0.2-0.2-0.6-0.4-0.9-0.3c-0.4,0-0.7,0.1-1,0.4
	c-0.3,0.3-0.4,0.8-0.4,1.2v2.9h-1.7v-5.9h1.6v0.7c0.2-0.3,0.5-0.4,0.8-0.6c0.3-0.1,0.7-0.2,1.1-0.2C418.4,80.7,419,80.9,419.5,81.4z
	"/>
<path d="M278.6,98.5c-1.4-1.4-1.5-3.6-0.2-5.1c0.1-0.1,0.1-0.1,0.2-0.2c0.8-0.7,1.9-1.1,3-1.1c1.1,0,2.1,0.3,3,1
	c0.7,0.6,1.2,1.6,1.1,2.5c0,1-0.4,2-1.1,2.7c-0.8,0.7-1.9,1.1-3,1.1C280.5,99.6,279.5,99.2,278.6,98.5z M278.3,102.7h6.6v22.7h-6.6
	V102.7z"/>
<path d="M311.6,104.9c1.7,1.7,2.6,4.2,2.6,7.5v13h-6.6v-12c0.1-1.4-0.3-2.9-1.2-4c-0.9-0.9-2.1-1.4-3.4-1.3c-1.5-0.1-2.9,0.5-4,1.5
	c-1.1,1.3-1.6,2.9-1.5,4.6v11.2H291v-22.7h6.3v2.7c0.9-1,2-1.7,3.2-2.2c1.4-0.5,2.8-0.8,4.3-0.8
	C307.3,102.3,309.8,103.2,311.6,104.9z"/>
<path d="M352.8,119.8v5.6h-22.3V121l11.4-10.8c1-0.9,1.8-1.9,2.4-3c0.4-0.8,0.6-1.6,0.6-2.5c0.1-1-0.4-2.1-1.2-2.7
	c-1-0.7-2.3-1.1-3.5-1c-1.2,0-2.4,0.2-3.5,0.7c-1,0.5-1.9,1.3-2.6,2.2l-5-3.2c1.2-1.7,2.8-3.1,4.8-4c2.2-1,4.6-1.5,7-1.4
	c2,0,3.9,0.3,5.8,1.1c1.5,0.6,2.9,1.7,3.8,3c0.9,1.4,1.4,3,1.4,4.6c0,1.6-0.3,3.1-1,4.5c-1,1.8-2.3,3.5-3.9,4.8l-6.8,6.4
	L352.8,119.8z"/>
<path d="M361.6,124.1c-2-1.3-3.5-3.1-4.5-5.2c-2.2-5.3-2.2-11.2,0-16.4c1-2.1,2.5-4,4.5-5.2c4-2.4,9.1-2.4,13.1,0
	c2,1.3,3.5,3.1,4.5,5.2c2.2,5.3,2.2,11.2,0,16.4c-1,2.1-2.5,4-4.5,5.2C370.7,126.5,365.6,126.5,361.6,124.1z M372.4,117.8
	c1-1.6,1.5-3.9,1.5-7.2s-0.5-5.6-1.5-7.2c-1.5-2.3-4.6-3-6.9-1.5c-0.6,0.4-1.1,0.9-1.5,1.5c-1,1.5-1.5,3.9-1.5,7.2
	c0,3.2,0.5,5.6,1.6,7.2c1.5,2.3,4.6,3,6.9,1.5C371.5,118.9,372,118.4,372.4,117.8L372.4,117.8z"/>
<path d="M406,119.8v5.6h-22.4V121l11.4-10.8c1-0.9,1.8-1.9,2.5-3c0.4-0.8,0.6-1.6,0.6-2.5c0.1-1-0.4-2.1-1.2-2.7
	c-1-0.7-2.3-1.1-3.5-1c-1.2,0-2.4,0.2-3.5,0.7c-1,0.5-1.9,1.3-2.6,2.2l-5-3.2c1.2-1.7,2.8-3.1,4.8-4c2.2-1,4.6-1.5,7-1.4
	c2,0,3.9,0.3,5.8,1.1c1.5,0.6,2.9,1.7,3.8,3c0.9,1.4,1.4,3,1.4,4.6c0,1.6-0.3,3.1-1,4.5c-1,1.8-2.3,3.5-3.9,4.8l-6.8,6.4L406,119.8z
	"/>
<path d="M420.2,95.9v29.5h-6.8v-24h-5.9v-5.5H420.2z"/>
<polyline class="st4" points="223.5,146.2 223.5,151.2 218.5,151.2 "/>
<line class="st5" x1="208.6" y1="151.2" x2="33.7" y2="151.2"/>
<polyline class="st4" points="28.7,151.2 23.7,151.2 23.7,146.2 "/>
<line class="st6" x1="23.7" y1="136" x2="23.7" y2="59.9"/>
<polyline class="st4" points="23.7,54.8 23.7,49.8 28.7,49.8 "/>
<line class="st5" x1="38.7" y1="49.8" x2="213.6" y2="49.8"/>
<polyline class="st4" points="218.5,49.8 223.5,49.8 223.5,54.8 "/>
<line class="st6" x1="223.5" y1="65" x2="223.5" y2="141.1"/>
<line class="st7" x1="223.5" y1="135.8" x2="418.6" y2="135.8"/>
<rect x="416.9" y="134.1" class="st2" width="3.3" height="3.3"/>
<polyline class="st4" points="225.5,252.1 225.5,257.1 230.5,257.1 "/>
<line class="st5" x1="240.5" y1="257.1" x2="415.4" y2="257.1"/>
<polyline class="st4" points="420.4,257.1 425.4,257.1 425.4,252.1 "/>
<line class="st6" x1="425.4" y1="242" x2="425.4" y2="165.8"/>
<polyline class="st4" points="425.4,160.8 425.4,155.8 420.4,155.8 "/>
<line class="st5" x1="410.4" y1="155.8" x2="235.5" y2="155.8"/>
<polyline class="st4" points="230.5,155.8 225.5,155.8 225.5,160.8 "/>
<line class="st6" x1="225.5" y1="170.9" x2="225.5" y2="247"/>
<line class="st7" x1="225.8" y1="241.7" x2="29.2" y2="241.7"/>
<rect x="27.7" y="240.1" class="st2" width="3.3" height="3.3"/>
<path d="M30.7,186.8v6.2H29v-0.7c-0.2,0.3-0.5,0.5-0.9,0.6c-0.3,0.1-0.7,0.2-1.1,0.2c-0.7,0-1.4-0.2-2-0.7c-0.5-0.6-0.8-1.3-0.7-2.1
	v-3.5h1.8v3.2c0,1,0.4,1.5,1.3,1.5c0.4,0,0.7-0.2,1-0.4c0.3-0.3,0.4-0.8,0.4-1.2v-3.1L30.7,186.8z"/>
<path d="M37.6,187.1c0.5,0.3,0.9,0.7,1.1,1.1c0.3,0.5,0.4,1.1,0.4,1.7c0,0.6-0.1,1.2-0.4,1.7c-0.3,0.5-0.7,0.9-1.1,1.1
	c-0.5,0.3-1,0.4-1.6,0.4c-0.7,0-1.4-0.2-1.9-0.8v2.9h-1.8v-8.5h1.7v0.7c0.5-0.6,1.2-0.9,2-0.8C36.6,186.7,37.2,186.9,37.6,187.1z
	 M36.9,191.2c0.3-0.3,0.5-0.8,0.4-1.3c0-0.5-0.1-0.9-0.4-1.3c-0.6-0.6-1.6-0.6-2.3,0c-0.3,0.3-0.5,0.8-0.4,1.3
	c0,0.5,0.1,0.9,0.4,1.3C35.2,191.8,36.2,191.8,36.9,191.2z"/>
<path d="M45.6,187h1.6v1.4h-1.5v4.7h-1.8v-4.7h-1V187h1v-0.3c0-0.6,0.2-1.2,0.6-1.7c0.5-0.4,1.1-0.7,1.8-0.6c0.3,0,0.5,0,0.8,0.1
	c0.2,0,0.4,0.1,0.6,0.2l-0.5,1.3c-0.2-0.2-0.5-0.2-0.7-0.2c-0.5,0-0.8,0.3-0.8,0.9V187z"/>
<path d="M51.6,187c0.4-0.2,0.8-0.2,1.3-0.2v1.7h-0.4c-0.4,0-0.9,0.1-1.2,0.4c-0.3,0.4-0.5,0.8-0.4,1.3v2.9H49v-6.2h1.7v0.8
	C51,187.4,51.3,187.1,51.6,187z"/>
<path d="M55.1,192.7c-0.5-0.3-0.9-0.7-1.2-1.1c-0.3-0.5-0.4-1.1-0.4-1.7c0-0.6,0.1-1.2,0.4-1.6c0.3-0.5,0.7-0.9,1.2-1.1
	c1.1-0.5,2.4-0.5,3.5,0c1,0.5,1.7,1.6,1.7,2.8c0,1.2-0.6,2.3-1.7,2.8C57.5,193.3,56.2,193.3,55.1,192.7L55.1,192.7z M58,191.2
	c0.3-0.3,0.5-0.8,0.4-1.3c0-0.5-0.1-0.9-0.4-1.3c-0.6-0.6-1.6-0.6-2.3,0c-0.3,0.3-0.5,0.8-0.5,1.3c0,0.5,0.1,0.9,0.5,1.3
	C56.3,191.8,57.4,191.8,58,191.2z"/>
<path d="M71.4,187.4c0.5,0.6,0.7,1.3,0.7,2.1v3.6h-1.8v-3.3c0-0.4-0.1-0.8-0.3-1.1c-0.2-0.2-0.5-0.4-0.9-0.4c-0.4,0-0.7,0.1-1,0.4
	c-0.3,0.3-0.4,0.8-0.4,1.2v3.1h-1.8v-3.3c0-1-0.4-1.5-1.2-1.5c-0.4,0-0.7,0.1-1,0.4c-0.3,0.3-0.4,0.8-0.4,1.2v3.1h-1.8v-6.2h1.7v0.7
	c0.2-0.3,0.5-0.5,0.8-0.6c0.7-0.3,1.6-0.3,2.3,0c0.3,0.2,0.6,0.4,0.8,0.8c0.3-0.3,0.6-0.6,1-0.8c0.4-0.2,0.8-0.3,1.3-0.3
	C70.2,186.7,70.9,186.9,71.4,187.4z"/>
<path d="M49.5,226.2v5.4H27.7v-4.3l11.1-10.5c0.9-0.8,1.8-1.8,2.4-2.9c0.4-0.7,0.6-1.6,0.6-2.4c0.1-1-0.4-2-1.2-2.7
	c-1-0.7-2.2-1-3.5-0.9c-1.2,0-2.4,0.2-3.4,0.7c-1,0.5-1.9,1.2-2.6,2.2l-4.9-3.1c1.2-1.7,2.8-3.1,4.6-4c2.1-1,4.5-1.5,6.8-1.4
	c1.9,0,3.9,0.3,5.6,1.1c1.5,0.6,2.8,1.7,3.8,3c0.9,1.3,1.4,2.9,1.3,4.5c0,1.5-0.3,3-1,4.4c-1,1.8-2.3,3.4-3.8,4.7l-6.7,6.3
	L49.5,226.2z"/>
<path d="M58.2,230.4c-1.9-1.3-3.5-3-4.4-5.1c-2.1-5.1-2.1-10.9,0-16.1c0.9-2.1,2.5-3.9,4.4-5.1c3.9-2.3,8.8-2.3,12.8,0
	c1.9,1.3,3.5,3,4.4,5.1c2.1,5.1,2.1,10.9,0,16.1c-0.9,2.1-2.5,3.9-4.4,5.1C67.1,232.7,62.1,232.7,58.2,230.4L58.2,230.4z
	 M68.8,224.2c1-1.5,1.5-3.9,1.5-7s-0.5-5.5-1.5-7c-0.9-1.4-2.5-2.3-4.2-2.3c-1.7,0-3.2,0.8-4.1,2.3c-1,1.5-1.5,3.9-1.5,7
	s0.5,5.5,1.5,7c0.9,1.4,2.4,2.3,4.1,2.3C66.3,226.5,67.9,225.7,68.8,224.2z"/>
<path d="M101.6,226.2v5.4H79.8v-4.3l11.2-10.5c1-0.8,1.8-1.8,2.4-2.9c0.4-0.7,0.6-1.6,0.6-2.4c0.1-1-0.4-2-1.2-2.7
	c-1-0.7-2.2-1-3.4-0.9c-1.2,0-2.4,0.2-3.4,0.7c-1,0.5-1.9,1.2-2.6,2.2l-4.9-3.1c1.2-1.7,2.8-3.1,4.7-3.9c2.1-1,4.5-1.5,6.9-1.4
	c1.9,0,3.9,0.3,5.6,1.1c1.5,0.6,2.8,1.7,3.8,3c0.9,1.3,1.4,2.9,1.3,4.5c0,1.5-0.3,3-1,4.4c-1,1.8-2.3,3.4-3.8,4.7l-6.7,6.3
	L101.6,226.2z"/>
<path d="M110.3,230.4c-1.9-1.2-3.5-3-4.4-5.1c-2.1-5.1-2.1-10.9,0-16.1c0.9-2.1,2.5-3.9,4.4-5.1c3.9-2.4,8.9-2.4,12.8,0
	c1.9,1.3,3.5,3,4.4,5.1c2.1,5.1,2.1,10.9,0,16.1c-0.9,2.1-2.5,3.9-4.4,5.1C119.2,232.7,114.3,232.7,110.3,230.4z M120.9,224.2
	c1-1.5,1.5-3.9,1.5-7s-0.5-5.5-1.5-7c-1.4-2.3-4.5-3-6.7-1.5c-0.6,0.4-1.1,0.9-1.5,1.5c-1,1.5-1.5,3.9-1.5,7c0,3.1,0.5,5.5,1.5,7
	c1.4,2.3,4.5,3,6.7,1.5C120,225.3,120.5,224.8,120.9,224.2z"/>
<path d="M139.1,201.8c0.8,0.8,1.2,1.8,1.1,2.9c0,0.6-0.1,1.1-0.2,1.6c-0.2,0.8-0.5,1.7-0.9,2.5l-2.4,6h-4.1l1.8-6.5
	c-0.7-0.3-1.2-0.8-1.6-1.4c-0.4-0.7-0.6-1.4-0.6-2.2c0-1.1,0.4-2.1,1.1-2.9c0.8-0.7,1.8-1.1,2.9-1.1
	C137.3,200.7,138.3,201,139.1,201.8z"/>
<path d="M145.9,231.3c-1.5-0.3-2.9-0.9-4.2-1.7l2.1-4.6c1.1,0.7,2.3,1.2,3.6,1.6c1.3,0.4,2.7,0.6,4.1,0.6c2.7,0,4.1-0.7,4.1-2
	c0-0.7-0.5-1.2-1.1-1.4c-1.1-0.4-2.3-0.6-3.4-0.7c-1.5-0.2-3-0.5-4.5-0.9c-1.2-0.4-2.2-1-3.1-1.9c-0.9-1.1-1.4-2.5-1.3-3.9
	c0-1.3,0.4-2.7,1.2-3.7c0.9-1.2,2.2-2.1,3.6-2.6c1.8-0.6,3.6-1,5.5-0.9c1.6,0,3.1,0.2,4.7,0.5c1.4,0.3,2.7,0.8,3.9,1.4l-2.1,4.6
	c-2-1.1-4.2-1.7-6.4-1.6c-1.1-0.1-2.1,0.1-3.1,0.6c-0.6,0.3-1,0.8-1,1.5c0,0.7,0.5,1.3,1.1,1.4c1.2,0.4,2.3,0.6,3.6,0.8
	c1.5,0.2,3,0.6,4.5,1c1.2,0.3,2.2,1,3,1.9c0.9,1.1,1.4,2.4,1.3,3.8c0,1.3-0.4,2.6-1.2,3.7c-0.9,1.2-2.2,2-3.6,2.5
	c-1.8,0.6-3.7,0.9-5.6,0.9C149.5,232,147.7,231.8,145.9,231.3z"/>
</svg>
