<svg id="Layer_1" data-name="Layer 1" xmlns="http://www.w3.org/2000/svg" xmlns:xlink="http://www.w3.org/1999/xlink" viewBox="0 0 654 250"><defs><style>.cls-1,.cls-11,.cls-5,.cls-7{fill:none;}.cls-2{clip-path:url(#clip-path);}.cls-3{opacity:0.3;}.cls-4{opacity:0.4;}.cls-5{stroke:#2681d6;stroke-width:1.62px;}.cls-11,.cls-5,.cls-7{stroke-miterlimit:10;}.cls-6{clip-path:url(#clip-path-2);}.cls-7{stroke:#fff;stroke-width:0.59px;}.cls-8{fill:#de1b81;}.cls-9{opacity:0.15;}.cls-10{fill:#fff;}.cls-11{stroke:#de1b81;stroke-width:2.6px;}</style><clipPath id="clip-path"><rect class="cls-1" x="-1940" y="192.2" width="1920" height="5958.68"/></clipPath><clipPath id="clip-path-2"><rect class="cls-1" x="-340" y="124.88" width="320" height="76.14"/></clipPath></defs><g class="cls-2"><g class="cls-3"><g class="cls-4"><path class="cls-5" d="M-21.64,771.24,66.63,683h0L405.21,344.38,66.63,5.8h0L-21.64-82.47-448.5,344.38ZM-334.52,285.48l58.9,58.9-58.9,58.91-58.91-58.91ZM291.24,403.29l-58.91-58.91,58.91-58.9,58.9,58.9ZM39.1,655.43h0l-60.74,60.74-138-138L-49,467.51l-114-114-82.82,82.82,57,57,27.53-27.53-29.45-29.46L-163,408.6l58.91,58.91-83.12,83.12L-307,430.83l86.45-86.45L-307,257.94l119.81-119.8,83.12,83.12L-163,280.17l-27.75-27.76L-161.27,223l-27.53-27.53-57,57L-163,335.24l114-114L-159.65,110.6l77.27-77.26h0L-21.64-27.4,39.1,33.34h0l77.26,77.26L5.7,221.26l114,114,82.83-82.83-57-57L118,223l29.46,29.45-27.76,27.76L60.77,221.26l83.13-83.12,119.8,119.8-86.44,86.44,86.44,86.45L143.9,550.63,60.77,467.51l58.91-58.91,27.76,27.75L118,465.81l27.54,27.53,57-57-82.83-82.82-114,114L116.36,578.17Z"/><rect class="cls-5" x="-88.69" y="42.26" width="134.09" height="134.09" transform="translate(40.34 201.9) rotate(135)"/></g></g></g><g class="cls-3"><g class="cls-6"><path class="cls-7" d="M-32.08,197.15l7.07-7.07h0L2.12,163-25,135.83h0l-7.07-7.07L-66.28,163Zm-25.06-38.91,4.71,4.71-4.71,4.72L-61.86,163ZM-7,167.67-11.73,163-7,158.24-2.3,163Zm-20.19,20.2h0l-4.87,4.87-11.06-11.06,8.87-8.86-9.13-9.13L-50,170.32l4.57,4.57,2.2-2.21-2.36-2.36,2.23-2.22,4.72,4.72-6.66,6.66-9.6-9.6L-48,163-54.94,156l9.6-9.6,6.66,6.66-4.72,4.72-2.23-2.22,2.36-2.36-2.2-2.21L-50,155.59l6.64,6.63,9.13-9.13-8.87-8.86,6.19-6.19h0l4.87-4.87,4.87,4.87h0l6.19,6.19-8.87,8.86,9.13,9.13,6.64-6.63L-18.69,151l-2.2,2.21,2.35,2.36-2.22,2.22-4.72-4.72,6.66-6.66,9.6,9.6L-16.15,163l6.93,6.93-9.6,9.6-6.66-6.66,4.72-4.72,2.22,2.22-2.35,2.36,2.2,2.21,4.57-4.57-6.64-6.63-9.13,9.13,8.87,8.86Z"/></g></g><path d="M286.24,154.91a4.38,4.38,0,0,0-.75-.06,2,2,0,0,0-2,1.27v6.33h-1.53v-8.91h1.48l0,1a2.38,2.38,0,0,1,2.13-1.2,1.49,1.49,0,0,1,.67.12Z"/><path d="M291.18,162.62a3.91,3.91,0,0,1-2.95-1.19,4.47,4.47,0,0,1-1.13-3.19V158a5.49,5.49,0,0,1,.5-2.37A4,4,0,0,1,289,154a3.6,3.6,0,0,1,2-.59,3.38,3.38,0,0,1,2.71,1.15,5,5,0,0,1,1,3.28v.63h-6a3.16,3.16,0,0,0,.77,2.13,2.42,2.42,0,0,0,1.87.81,2.65,2.65,0,0,0,1.37-.33,3.38,3.38,0,0,0,1-.87l.93.72A3.73,3.73,0,0,1,291.18,162.62Zm-.19-8a2,2,0,0,0-1.55.67,3.28,3.28,0,0,0-.77,1.88h4.46v-.12a2.92,2.92,0,0,0-.62-1.8A1.93,1.93,0,0,0,291,154.63Z"/><path d="M300,161.37a2.17,2.17,0,0,0,1.42-.49,1.75,1.75,0,0,0,.68-1.24h1.44a2.74,2.74,0,0,1-.53,1.46,3.42,3.42,0,0,1-1.3,1.1,3.92,3.92,0,0,1-4.61-.8,4.82,4.82,0,0,1-1.07-3.32v-.26a5.44,5.44,0,0,1,.47-2.31,3.67,3.67,0,0,1,1.38-1.58,3.91,3.91,0,0,1,2.11-.56,3.56,3.56,0,0,1,2.49.9,3.21,3.21,0,0,1,1.06,2.33H302.1a2.15,2.15,0,0,0-.66-1.42,2,2,0,0,0-1.45-.55,2.11,2.11,0,0,0-1.8.83,3.92,3.92,0,0,0-.64,2.42v.29a3.86,3.86,0,0,0,.63,2.37A2.17,2.17,0,0,0,300,161.37Z"/><path d="M309,162.62a3.91,3.91,0,0,1-2.95-1.19,4.43,4.43,0,0,1-1.14-3.19V158a5.35,5.35,0,0,1,.51-2.37,4,4,0,0,1,1.42-1.63,3.56,3.56,0,0,1,2-.59,3.34,3.34,0,0,1,2.7,1.15,4.9,4.9,0,0,1,1,3.28v.63h-6a3.16,3.16,0,0,0,.77,2.13,2.41,2.41,0,0,0,1.87.81,2.65,2.65,0,0,0,1.37-.33,3.51,3.51,0,0,0,1-.87l.93.72A3.75,3.75,0,0,1,309,162.62Zm-.19-8a2,2,0,0,0-1.55.67,3.21,3.21,0,0,0-.77,1.88h4.46v-.12a2.92,2.92,0,0,0-.62-1.8A1.94,1.94,0,0,0,308.76,154.63Z"/><path d="M314.2,151.17a.91.91,0,0,1,.22-.62.88.88,0,0,1,.68-.26.86.86,0,0,1,.67.26.91.91,0,0,1,.23.62.88.88,0,0,1-.23.62.85.85,0,0,1-.67.25.81.81,0,0,1-.9-.87Zm1.64,11.28h-1.52v-8.91h1.52Z"/><path d="M321.22,160.38l2.21-6.84H325l-3.2,8.91h-1.16l-3.23-8.91H319Z"/><path d="M330.05,162.62a3.89,3.89,0,0,1-2.95-1.19,4.43,4.43,0,0,1-1.14-3.19V158a5.35,5.35,0,0,1,.51-2.37,4,4,0,0,1,1.41-1.63,3.61,3.61,0,0,1,2-.59,3.34,3.34,0,0,1,2.7,1.15,5,5,0,0,1,1,3.28v.63h-6a3.21,3.21,0,0,0,.77,2.13,2.44,2.44,0,0,0,1.88.81,2.67,2.67,0,0,0,1.37-.33,3.51,3.51,0,0,0,1-.87l.93.72A3.75,3.75,0,0,1,330.05,162.62Zm-.19-8a2,2,0,0,0-1.55.67,3.22,3.22,0,0,0-.78,1.88H332v-.12a2.92,2.92,0,0,0-.63-1.8A1.92,1.92,0,0,0,329.86,154.63Z"/><path d="M334.91,157.92a5.21,5.21,0,0,1,1-3.3,3.06,3.06,0,0,1,2.54-1.25,3.11,3.11,0,0,1,2.48,1.07V149.8h1.52v12.65H341l-.07-.95a3.13,3.13,0,0,1-2.55,1.12,3.05,3.05,0,0,1-2.52-1.27,5.29,5.29,0,0,1-1-3.31Zm1.53.17a4.05,4.05,0,0,0,.62,2.38,2,2,0,0,0,1.73.85,2.21,2.21,0,0,0,2.12-1.3v-4.09a2.24,2.24,0,0,0-2.1-1.26,2.05,2.05,0,0,0-1.75.86A4.41,4.41,0,0,0,336.44,158.09Z"/><path d="M351,151.38v2.16h1.67v1.18H351v5.53a1.25,1.25,0,0,0,.22.8.94.94,0,0,0,.76.27,3.44,3.44,0,0,0,.73-.1v1.23a4.41,4.41,0,0,1-1.17.17A1.9,1.9,0,0,1,350,162a2.64,2.64,0,0,1-.52-1.76v-5.52H347.9v-1.18h1.62v-2.16Z"/><path d="M358.79,154.91a4.38,4.38,0,0,0-.75-.06,2,2,0,0,0-2,1.27v6.33h-1.52v-8.91H356l0,1a2.38,2.38,0,0,1,2.13-1.2,1.49,1.49,0,0,1,.67.12Z"/><path d="M365.37,162.45a3.22,3.22,0,0,1-.22-.94,3.38,3.38,0,0,1-2.53,1.11,3.16,3.16,0,0,1-2.17-.75,2.43,2.43,0,0,1-.84-1.89,2.5,2.5,0,0,1,1.06-2.16,4.93,4.93,0,0,1,3-.77h1.49v-.7a1.72,1.72,0,0,0-.48-1.28,2,2,0,0,0-1.41-.47,2.27,2.27,0,0,0-1.37.41,1.24,1.24,0,0,0-.55,1h-1.53a2.14,2.14,0,0,1,.47-1.29,3.31,3.31,0,0,1,1.29-1,4.17,4.17,0,0,1,1.78-.37,3.57,3.57,0,0,1,2.42.77,2.79,2.79,0,0,1,.9,2.13v4.1a5.16,5.16,0,0,0,.31,1.95v.13Zm-2.53-1.16a2.65,2.65,0,0,0,1.36-.37,2.31,2.31,0,0,0,.93-1v-1.83h-1.2c-1.86,0-2.8.54-2.8,1.64a1.4,1.4,0,0,0,.48,1.12A1.84,1.84,0,0,0,362.84,161.29Z"/><path d="M369.05,151.17a.87.87,0,0,1,.23-.62.84.84,0,0,1,.67-.26.86.86,0,0,1,.67.26.87.87,0,0,1,.23.62.84.84,0,0,1-.23.62.85.85,0,0,1-.67.25.83.83,0,0,1-.9-.87Zm1.65,11.28h-1.53v-8.91h1.53Z"/><path d="M374.58,153.54l.05,1.12a3.24,3.24,0,0,1,2.66-1.29c1.89,0,2.84,1.07,2.85,3.19v5.89h-1.52v-5.9a2,2,0,0,0-.44-1.42,1.77,1.77,0,0,0-1.35-.46,2.24,2.24,0,0,0-1.3.39,2.76,2.76,0,0,0-.87,1v6.35h-1.53v-8.91Z"/><path d="M382.45,151.17a.91.91,0,0,1,.23-.62.84.84,0,0,1,.67-.26.86.86,0,0,1,.67.26.87.87,0,0,1,.23.62.84.84,0,0,1-.23.62.85.85,0,0,1-.67.25.84.84,0,0,1-.67-.25A.88.88,0,0,1,382.45,151.17Zm1.65,11.28h-1.53v-8.91h1.53Z"/><path d="M388,153.54l0,1.12a3.24,3.24,0,0,1,2.67-1.29c1.88,0,2.83,1.07,2.85,3.19v5.89H392v-5.9a2,2,0,0,0-.44-1.42,1.77,1.77,0,0,0-1.35-.46,2.24,2.24,0,0,0-1.3.39,2.76,2.76,0,0,0-.87,1v6.35h-1.52v-8.91Z"/><path d="M395.48,157.92a5.17,5.17,0,0,1,1-3.31,3.3,3.3,0,0,1,5.09-.08l.08-1H403v8.7a3.62,3.62,0,0,1-1,2.72,3.79,3.79,0,0,1-2.76,1,4.7,4.7,0,0,1-1.89-.41,3.25,3.25,0,0,1-1.4-1.13l.79-.91a3,3,0,0,0,2.39,1.21,2.35,2.35,0,0,0,1.74-.63,2.4,2.4,0,0,0,.62-1.76v-.77a3.15,3.15,0,0,1-2.5,1.06,3,3,0,0,1-2.53-1.26A5.49,5.49,0,0,1,395.48,157.92Zm1.53.17a4,4,0,0,0,.62,2.37,2,2,0,0,0,1.73.86,2.23,2.23,0,0,0,2.12-1.31v-4.07a2.26,2.26,0,0,0-2.1-1.27,2,2,0,0,0-1.74.86A4.34,4.34,0,0,0,397,158.09Z"/><path d="M409.49,151.17a.91.91,0,0,1,.23-.62.84.84,0,0,1,.67-.26.88.88,0,0,1,.68.26.91.91,0,0,1,.23.62.83.83,0,0,1-.91.87.84.84,0,0,1-.67-.25A.88.88,0,0,1,409.49,151.17Zm1.65,11.28h-1.52v-8.91h1.52Z"/><path d="M415,153.54l.05,1.12a3.24,3.24,0,0,1,2.67-1.29c1.88,0,2.83,1.07,2.85,3.19v5.89h-1.52v-5.9a2.06,2.06,0,0,0-.45-1.42,1.73,1.73,0,0,0-1.34-.46,2.2,2.2,0,0,0-1.3.39,2.7,2.7,0,0,0-.88,1v6.35h-1.52v-8.91Z"/><path d="M430.84,157.11a7.45,7.45,0,0,1-3-1.44,2.77,2.77,0,0,1-.92-2.11,2.92,2.92,0,0,1,1.13-2.34,4.51,4.51,0,0,1,2.95-.93,4.9,4.9,0,0,1,2.2.48,3.71,3.71,0,0,1,1.5,1.32,3.4,3.4,0,0,1,.53,1.84h-1.59a2.21,2.21,0,0,0-.69-1.72,2.79,2.79,0,0,0-2-.62,2.93,2.93,0,0,0-1.83.51,1.71,1.71,0,0,0-.65,1.43,1.55,1.55,0,0,0,.62,1.25,6.22,6.22,0,0,0,2.12.92,9.67,9.67,0,0,1,2.33.93,3.61,3.61,0,0,1,1.26,1.18,3,3,0,0,1,.4,1.59,2.8,2.8,0,0,1-1.13,2.34,4.88,4.88,0,0,1-3,.88,5.59,5.59,0,0,1-2.31-.48,3.87,3.87,0,0,1-1.65-1.3,3.11,3.11,0,0,1-.58-1.86h1.59a2.07,2.07,0,0,0,.8,1.71,3.39,3.39,0,0,0,2.15.63,3.13,3.13,0,0,0,1.92-.51,1.66,1.66,0,0,0,.66-1.39,1.62,1.62,0,0,0-.61-1.36A7.19,7.19,0,0,0,430.84,157.11Z"/><path d="M445.6,151.75h-3.86v10.7h-1.57v-10.7h-3.85v-1.29h9.28Z"/><path d="M454.16,156.91H449v4.25h6v1.29h-7.62v-12h7.53v1.29h-6v3.86h5.2Z"/><path d="M459,150.46l3.92,9.78,3.92-9.78h2v12h-1.58v-4.67l.15-5-3.94,9.71h-1.21l-3.93-9.69.16,5v4.67H457v-12Z"/><path d="M474.62,158h-4v-1.25h4Z"/><path d="M480.41,154.91a4.35,4.35,0,0,0-.74-.06,2,2,0,0,0-2,1.27v6.33h-1.52v-8.91h1.48l0,1a2.38,2.38,0,0,1,2.13-1.2,1.46,1.46,0,0,1,.67.12Z"/><path d="M485.36,162.62a3.91,3.91,0,0,1-2.95-1.19,4.43,4.43,0,0,1-1.14-3.19V158a5.35,5.35,0,0,1,.51-2.37A4,4,0,0,1,483.2,154a3.56,3.56,0,0,1,2-.59,3.34,3.34,0,0,1,2.7,1.15,5,5,0,0,1,1,3.28v.63h-6a3.11,3.11,0,0,0,.77,2.13,2.41,2.41,0,0,0,1.87.81,2.67,2.67,0,0,0,1.37-.33,3.51,3.51,0,0,0,1-.87l.93.72A3.75,3.75,0,0,1,485.36,162.62Zm-.19-8a2,2,0,0,0-1.55.67,3.15,3.15,0,0,0-.77,1.88h4.46v-.12a2.86,2.86,0,0,0-.63-1.8A1.92,1.92,0,0,0,485.17,154.63Z"/><path d="M492.25,162.45h-1.52V149.8h1.52Z"/><path d="M500.19,162.45a3,3,0,0,1-.21-.94,3.4,3.4,0,0,1-2.54,1.11,3.12,3.12,0,0,1-2.16-.75,2.43,2.43,0,0,1-.85-1.89,2.52,2.52,0,0,1,1.06-2.16,5,5,0,0,1,3-.77H500v-.7a1.75,1.75,0,0,0-.47-1.28,2,2,0,0,0-1.41-.47,2.25,2.25,0,0,0-1.37.41,1.22,1.22,0,0,0-.55,1h-1.53a2.08,2.08,0,0,1,.47-1.29,3.27,3.27,0,0,1,1.28-1,4.25,4.25,0,0,1,1.79-.37,3.54,3.54,0,0,1,2.41.77,2.8,2.8,0,0,1,.91,2.13v4.1a5,5,0,0,0,.31,1.95v.13Zm-2.53-1.16a2.65,2.65,0,0,0,1.36-.37,2.25,2.25,0,0,0,.93-1v-1.83h-1.19c-1.87,0-2.8.54-2.8,1.64a1.4,1.4,0,0,0,.48,1.12A1.79,1.79,0,0,0,497.66,161.29Z"/><path d="M505.93,151.38v2.16h1.67v1.18h-1.67v5.53a1.19,1.19,0,0,0,.23.8.93.93,0,0,0,.75.27,3.44,3.44,0,0,0,.73-.1v1.23a4.41,4.41,0,0,1-1.17.17,1.91,1.91,0,0,1-1.54-.62,2.64,2.64,0,0,1-.52-1.76v-5.52h-1.62v-1.18h1.62v-2.16Z"/><path d="M513.08,162.62a3.89,3.89,0,0,1-3-1.19,4.43,4.43,0,0,1-1.14-3.19V158a5.35,5.35,0,0,1,.51-2.37,4,4,0,0,1,1.41-1.63,3.61,3.61,0,0,1,2-.59,3.34,3.34,0,0,1,2.7,1.15,5,5,0,0,1,1,3.28v.63h-6a3.17,3.17,0,0,0,.78,2.13,2.41,2.41,0,0,0,1.87.81,2.67,2.67,0,0,0,1.37-.33,3.51,3.51,0,0,0,1-.87l.93.72A3.75,3.75,0,0,1,513.08,162.62Zm-.19-8a2,2,0,0,0-1.55.67,3.22,3.22,0,0,0-.78,1.88H515v-.12a2.92,2.92,0,0,0-.63-1.8A1.92,1.92,0,0,0,512.89,154.63Z"/><path d="M517.94,157.92a5.21,5.21,0,0,1,1-3.3,3.06,3.06,0,0,1,2.54-1.25,3.11,3.11,0,0,1,2.48,1.07V149.8h1.52v12.65h-1.4l-.07-.95a3.13,3.13,0,0,1-2.55,1.12,3.05,3.05,0,0,1-2.52-1.27,5.29,5.29,0,0,1-1-3.31Zm1.53.17a4.05,4.05,0,0,0,.62,2.38,2,2,0,0,0,1.73.85,2.21,2.21,0,0,0,2.12-1.3v-4.09a2.25,2.25,0,0,0-2.1-1.26,2.05,2.05,0,0,0-1.75.86A4.41,4.41,0,0,0,519.47,158.09Z"/><path d="M266.44,171.62v2.16h1.67V175h-1.67v5.53a1.3,1.3,0,0,0,.22.81,1,1,0,0,0,.76.27,4.25,4.25,0,0,0,.73-.1v1.23a4.84,4.84,0,0,1-1.17.16,1.9,1.9,0,0,1-1.54-.62,2.61,2.61,0,0,1-.52-1.75V175H263.3v-1.18h1.62v-2.16Z"/><path d="M273.58,182.86a3.92,3.92,0,0,1-2.95-1.19,4.45,4.45,0,0,1-1.13-3.18v-.28a5.43,5.43,0,0,1,.5-2.37,4,4,0,0,1,1.42-1.63,3.52,3.52,0,0,1,2-.59,3.37,3.37,0,0,1,2.71,1.14,5,5,0,0,1,1,3.28v.63h-6a3.16,3.16,0,0,0,.77,2.13,2.41,2.41,0,0,0,1.88.82,2.61,2.61,0,0,0,1.36-.33,3.27,3.27,0,0,0,1-.88l.94.73A3.75,3.75,0,0,1,273.58,182.86Zm-.19-8a2,2,0,0,0-1.54.67,3.28,3.28,0,0,0-.78,1.88h4.47v-.11a2.94,2.94,0,0,0-.63-1.8A1.9,1.9,0,0,0,273.39,174.87Z"/><path d="M282.4,181.62a2.18,2.18,0,0,0,1.42-.5,1.75,1.75,0,0,0,.68-1.23h1.44a2.71,2.71,0,0,1-.53,1.45,3.41,3.41,0,0,1-1.29,1.11,3.85,3.85,0,0,1-1.72.41,3.68,3.68,0,0,1-2.9-1.22,4.85,4.85,0,0,1-1.07-3.32v-.25a5.38,5.38,0,0,1,.48-2.32,3.56,3.56,0,0,1,1.37-1.57,3.82,3.82,0,0,1,2.11-.56,3.56,3.56,0,0,1,2.49.9,3.18,3.18,0,0,1,1.06,2.33H284.5a2.09,2.09,0,0,0-.66-1.42,2,2,0,0,0-1.45-.56,2.14,2.14,0,0,0-1.8.84,3.87,3.87,0,0,0-.64,2.41v.29a3.78,3.78,0,0,0,.64,2.37A2.12,2.12,0,0,0,282.4,181.62Z"/><path d="M289.18,174.86a3.22,3.22,0,0,1,2.63-1.24q2.83,0,2.85,3.19v5.88h-1.52V176.8a2.07,2.07,0,0,0-.44-1.43,1.77,1.77,0,0,0-1.35-.46,2.16,2.16,0,0,0-1.3.4,2.73,2.73,0,0,0-.87,1v6.35h-1.53V170h1.53Z"/><path d="M298.39,173.78l.05,1.12a3.25,3.25,0,0,1,2.66-1.28q2.83,0,2.85,3.19v5.88h-1.52V176.8a2.07,2.07,0,0,0-.44-1.43,1.77,1.77,0,0,0-1.35-.46,2.16,2.16,0,0,0-1.3.4,2.73,2.73,0,0,0-.87,1v6.35h-1.53v-8.91Z"/><path d="M306.26,171.42a.92.92,0,0,1,.23-.63,1,1,0,0,1,1.34,0,.88.88,0,0,1,.24.63.86.86,0,0,1-.24.62,1.06,1.06,0,0,1-1.34,0A.9.9,0,0,1,306.26,171.42Zm1.65,11.27h-1.53v-8.91h1.53Z"/><path d="M313.92,181.62a2.22,2.22,0,0,0,1.43-.5,1.74,1.74,0,0,0,.67-1.23h1.44a2.7,2.7,0,0,1-.52,1.45,3.52,3.52,0,0,1-1.3,1.11,3.79,3.79,0,0,1-1.72.41,3.66,3.66,0,0,1-2.89-1.22,4.81,4.81,0,0,1-1.08-3.32v-.25a5.38,5.38,0,0,1,.48-2.32,3.62,3.62,0,0,1,1.37-1.57,3.85,3.85,0,0,1,2.11-.56,3.6,3.6,0,0,1,2.5.9,3.17,3.17,0,0,1,1,2.33H316a2.08,2.08,0,0,0-.65-1.42,2,2,0,0,0-1.46-.56,2.14,2.14,0,0,0-1.8.84,3.93,3.93,0,0,0-.64,2.41v.29a3.84,3.84,0,0,0,.64,2.37A2.13,2.13,0,0,0,313.92,181.62Z"/><path d="M324.68,182.69a3.13,3.13,0,0,1-.22-.93,3.39,3.39,0,0,1-2.53,1.1,3.12,3.12,0,0,1-2.16-.75,2.37,2.37,0,0,1-.85-1.89,2.51,2.51,0,0,1,1.06-2.16,5,5,0,0,1,3-.77h1.48v-.7a1.7,1.7,0,0,0-.48-1.27,1.91,1.91,0,0,0-1.41-.48,2.16,2.16,0,0,0-1.36.42,1.2,1.2,0,0,0-.56,1H319.1a2.11,2.11,0,0,1,.48-1.29,3.2,3.2,0,0,1,1.28-1,4.36,4.36,0,0,1,1.78-.36,3.5,3.5,0,0,1,2.42.77,2.77,2.77,0,0,1,.9,2.12v4.1a5,5,0,0,0,.32,1.95v.13Zm-2.53-1.16a2.65,2.65,0,0,0,1.36-.37,2.2,2.2,0,0,0,.93-1v-1.83h-1.19c-1.87,0-2.8.55-2.8,1.64a1.38,1.38,0,0,0,.47,1.12A1.84,1.84,0,0,0,322.15,181.53Z"/><path d="M330,182.69h-1.52V170H330Z"/><path d="M341.81,180.33a1.12,1.12,0,0,0-.46-1,4.52,4.52,0,0,0-1.63-.59,7.42,7.42,0,0,1-1.83-.59,2.67,2.67,0,0,1-1-.82,2,2,0,0,1-.32-1.14,2.31,2.31,0,0,1,.92-1.85,3.6,3.6,0,0,1,2.37-.76,3.74,3.74,0,0,1,2.46.78,2.48,2.48,0,0,1,.94,2h-1.53a1.38,1.38,0,0,0-.53-1.08,2,2,0,0,0-1.34-.45,2.09,2.09,0,0,0-1.3.36,1.15,1.15,0,0,0-.47,1,.93.93,0,0,0,.44.83,5.17,5.17,0,0,0,1.57.54,7.83,7.83,0,0,1,1.85.61A2.55,2.55,0,0,1,343,179a2.08,2.08,0,0,1,.35,1.21,2.28,2.28,0,0,1-1,1.92,4,4,0,0,1-2.48.72,4.52,4.52,0,0,1-1.89-.38,3,3,0,0,1-1.29-1.06,2.54,2.54,0,0,1-.47-1.47h1.53a1.57,1.57,0,0,0,.61,1.22,2.38,2.38,0,0,0,1.51.45,2.49,2.49,0,0,0,1.39-.35A1.09,1.09,0,0,0,341.81,180.33Z"/><path d="M347.81,178.57l-1,1v3.13h-1.52V170h1.52v7.65l.82-1,2.77-2.93h1.86l-3.47,3.73,3.87,5.18h-1.79Z"/><path d="M353.88,171.42a.92.92,0,0,1,.23-.63.84.84,0,0,1,.67-.25.85.85,0,0,1,.67.25.88.88,0,0,1,.23.63.85.85,0,0,1-.23.62.89.89,0,0,1-.67.24.87.87,0,0,1-.67-.24A.9.9,0,0,1,353.88,171.42Zm1.65,11.27H354v-8.91h1.53Z"/><path d="M359.62,182.69H358.1V170h1.52Z"/><path d="M363.71,182.69h-1.52V170h1.52Z"/><path d="M371.34,180.33a1.12,1.12,0,0,0-.46-1,4.52,4.52,0,0,0-1.63-.59,7.42,7.42,0,0,1-1.83-.59,2.67,2.67,0,0,1-1-.82,2,2,0,0,1-.32-1.14,2.31,2.31,0,0,1,.92-1.85,3.6,3.6,0,0,1,2.37-.76,3.74,3.74,0,0,1,2.46.78,2.48,2.48,0,0,1,.94,2h-1.53a1.35,1.35,0,0,0-.53-1.08,2,2,0,0,0-1.34-.45,2.09,2.09,0,0,0-1.3.36,1.15,1.15,0,0,0-.47,1,.93.93,0,0,0,.44.83,5.17,5.17,0,0,0,1.57.54,7.83,7.83,0,0,1,1.85.61,2.55,2.55,0,0,1,1,.85,2.08,2.08,0,0,1,.35,1.21,2.28,2.28,0,0,1-1,1.92,4,4,0,0,1-2.48.72,4.52,4.52,0,0,1-1.89-.38,3,3,0,0,1-1.29-1.06,2.54,2.54,0,0,1-.47-1.47h1.53a1.57,1.57,0,0,0,.61,1.22,2.38,2.38,0,0,0,1.51.45,2.49,2.49,0,0,0,1.39-.35A1.09,1.09,0,0,0,371.34,180.33Z"/><path d="M381.1,171.62v2.16h1.66V175H381.1v5.53a1.24,1.24,0,0,0,.22.81.94.94,0,0,0,.76.27,4.29,4.29,0,0,0,.72-.1v1.23a4.84,4.84,0,0,1-1.17.16,1.91,1.91,0,0,1-1.54-.62,2.67,2.67,0,0,1-.52-1.75V175H378v-1.18h1.62v-2.16Z"/><path d="M384,178.16a5.18,5.18,0,0,1,.52-2.36,3.75,3.75,0,0,1,1.43-1.61,3.88,3.88,0,0,1,2.09-.57,3.76,3.76,0,0,1,2.95,1.26,4.85,4.85,0,0,1,1.12,3.35v.11a5.31,5.31,0,0,1-.49,2.33,3.8,3.8,0,0,1-1.43,1.61,3.91,3.91,0,0,1-2.13.58,3.75,3.75,0,0,1-2.94-1.26,4.82,4.82,0,0,1-1.12-3.34Zm1.53.18a3.8,3.8,0,0,0,.69,2.38,2.33,2.33,0,0,0,3.69,0,4.22,4.22,0,0,0,.68-2.55,3.78,3.78,0,0,0-.7-2.38,2.31,2.31,0,0,0-3.67,0A4.14,4.14,0,0,0,385.5,178.34Z"/><path d="M403.36,180.33a1.11,1.11,0,0,0-.47-1,4.53,4.53,0,0,0-1.62-.59,7.42,7.42,0,0,1-1.83-.59,2.67,2.67,0,0,1-1-.82,2,2,0,0,1-.33-1.14,2.3,2.3,0,0,1,.93-1.85,3.6,3.6,0,0,1,2.37-.76,3.74,3.74,0,0,1,2.46.78,2.48,2.48,0,0,1,.94,2h-1.53a1.38,1.38,0,0,0-.53-1.08,2,2,0,0,0-1.34-.45,2.07,2.07,0,0,0-1.3.36,1.15,1.15,0,0,0-.47,1,.91.91,0,0,0,.44.83,5.17,5.17,0,0,0,1.57.54,8,8,0,0,1,1.85.61,2.69,2.69,0,0,1,1.05.85,2.08,2.08,0,0,1,.34,1.21,2.27,2.27,0,0,1-.95,1.92,4,4,0,0,1-2.48.72,4.57,4.57,0,0,1-1.9-.38,3,3,0,0,1-1.28-1.06,2.54,2.54,0,0,1-.47-1.47h1.52a1.61,1.61,0,0,0,.62,1.22,2.36,2.36,0,0,0,1.51.45,2.49,2.49,0,0,0,1.39-.35A1.09,1.09,0,0,0,403.36,180.33Z"/><path d="M412.37,181.81a3.22,3.22,0,0,1-2.61,1.05,2.78,2.78,0,0,1-2.17-.83,3.54,3.54,0,0,1-.75-2.45v-5.8h1.52v5.76c0,1.35.55,2,1.65,2a2.28,2.28,0,0,0,2.32-1.31v-6.48h1.53v8.91h-1.45Z"/><path d="M423.7,178.34a5.36,5.36,0,0,1-.93,3.28,3,3,0,0,1-2.52,1.24,3.26,3.26,0,0,1-2.56-1v4.29h-1.52V173.78h1.39l.08,1a3.12,3.12,0,0,1,2.58-1.15,3,3,0,0,1,2.54,1.21,5.36,5.36,0,0,1,.94,3.37Zm-1.53-.18a4,4,0,0,0-.64-2.38,2.07,2.07,0,0,0-1.76-.87,2.26,2.26,0,0,0-2.08,1.23v4.26a2.26,2.26,0,0,0,2.1,1.22,2.05,2.05,0,0,0,1.74-.87A4.32,4.32,0,0,0,422.17,178.16Z"/><path d="M433.16,178.34a5.36,5.36,0,0,1-.93,3.28,3,3,0,0,1-2.52,1.24,3.25,3.25,0,0,1-2.55-1v4.29h-1.53V173.78H427l.07,1a3.13,3.13,0,0,1,2.59-1.15,3,3,0,0,1,2.54,1.21,5.42,5.42,0,0,1,.93,3.37Zm-1.52-.18a4,4,0,0,0-.64-2.38,2.08,2.08,0,0,0-1.77-.87,2.23,2.23,0,0,0-2.07,1.23v4.26a2.24,2.24,0,0,0,2.09,1.22,2.05,2.05,0,0,0,1.74-.87A4.32,4.32,0,0,0,431.64,178.16Z"/><path d="M434.7,178.16a5.31,5.31,0,0,1,.51-2.36,3.75,3.75,0,0,1,1.43-1.61,3.89,3.89,0,0,1,2.1-.57,3.75,3.75,0,0,1,2.94,1.26,4.85,4.85,0,0,1,1.13,3.35v.11a5.31,5.31,0,0,1-.5,2.33,3.74,3.74,0,0,1-1.43,1.61,3.85,3.85,0,0,1-2.12.58,3.75,3.75,0,0,1-2.94-1.26,4.82,4.82,0,0,1-1.12-3.34Zm1.53.18a3.86,3.86,0,0,0,.68,2.38,2.22,2.22,0,0,0,1.85.9,2.19,2.19,0,0,0,1.84-.91,4.16,4.16,0,0,0,.68-2.55,3.84,3.84,0,0,0-.69-2.38,2.21,2.21,0,0,0-1.85-.91,2.19,2.19,0,0,0-1.82.9A4.14,4.14,0,0,0,436.23,178.34Z"/><path d="M449,175.15a4.38,4.38,0,0,0-.75-.06,2,2,0,0,0-2,1.28v6.32h-1.52v-8.91h1.48l0,1a2.37,2.37,0,0,1,2.12-1.19,1.71,1.71,0,0,1,.68.11Z"/><path d="M452.91,171.62v2.16h1.66V175h-1.66v5.53a1.24,1.24,0,0,0,.22.81.94.94,0,0,0,.76.27,4.29,4.29,0,0,0,.72-.1v1.23a4.84,4.84,0,0,1-1.17.16,1.91,1.91,0,0,1-1.54-.62,2.67,2.67,0,0,1-.52-1.75V175h-1.62v-1.18h1.62v-2.16Z"/><path d="M462.59,171.62v2.16h1.67V175h-1.67v5.53a1.24,1.24,0,0,0,.23.81.91.91,0,0,0,.75.27,4.25,4.25,0,0,0,.73-.1v1.23a4.84,4.84,0,0,1-1.17.16,1.9,1.9,0,0,1-1.54-.62,2.61,2.61,0,0,1-.52-1.75V175h-1.62v-1.18h1.62v-2.16Z"/><path d="M467.56,174.86a3.25,3.25,0,0,1,2.64-1.24q2.82,0,2.85,3.19v5.88h-1.53V176.8a2,2,0,0,0-.44-1.43,1.76,1.76,0,0,0-1.34-.46,2.19,2.19,0,0,0-1.31.4,2.73,2.73,0,0,0-.87,1v6.35H466V170h1.52Z"/><path d="M479,182.86a3.91,3.91,0,0,1-2.95-1.19,4.41,4.41,0,0,1-1.14-3.18v-.28a5.29,5.29,0,0,1,.51-2.37,3.9,3.9,0,0,1,1.42-1.63,3.48,3.48,0,0,1,2-.59,3.34,3.34,0,0,1,2.7,1.14,5,5,0,0,1,1,3.28v.63h-6a3.11,3.11,0,0,0,.77,2.13,2.38,2.38,0,0,0,1.87.82,2.67,2.67,0,0,0,1.37-.33,3.4,3.4,0,0,0,1-.88l.93.73A3.74,3.74,0,0,1,479,182.86Zm-.19-8a2,2,0,0,0-1.55.67,3.21,3.21,0,0,0-.77,1.88H481v-.11a2.82,2.82,0,0,0-.63-1.8A1.89,1.89,0,0,0,478.84,174.87Z"/><path d="M484.27,171.42a.92.92,0,0,1,.23-.63.85.85,0,0,1,.67-.25.88.88,0,0,1,.68.25.92.92,0,0,1,.23.63.9.9,0,0,1-.23.62.91.91,0,0,1-.68.24.89.89,0,0,1-.67-.24A.9.9,0,0,1,484.27,171.42Zm1.65,11.27H484.4v-8.91h1.52Z"/><path d="M492.67,175.15a4.38,4.38,0,0,0-.75-.06,2,2,0,0,0-2,1.28v6.32h-1.52v-8.91h1.48l0,1a2.38,2.38,0,0,1,2.12-1.19,1.71,1.71,0,0,1,.68.11Z"/><path d="M501.82,181.62a2.22,2.22,0,0,0,1.43-.5,1.74,1.74,0,0,0,.67-1.23h1.44a2.71,2.71,0,0,1-.53,1.45,3.41,3.41,0,0,1-1.29,1.11,3.82,3.82,0,0,1-1.72.41,3.69,3.69,0,0,1-2.9-1.22,4.85,4.85,0,0,1-1.07-3.32v-.25a5.38,5.38,0,0,1,.48-2.32,3.62,3.62,0,0,1,1.37-1.57,3.82,3.82,0,0,1,2.11-.56,3.56,3.56,0,0,1,2.49.9,3.18,3.18,0,0,1,1.06,2.33h-1.44a2.08,2.08,0,0,0-.65-1.42,2,2,0,0,0-1.46-.56,2.14,2.14,0,0,0-1.8.84,3.93,3.93,0,0,0-.64,2.41v.29a3.78,3.78,0,0,0,.64,2.37A2.12,2.12,0,0,0,501.82,181.62Z"/><path d="M512.58,182.69a3.13,3.13,0,0,1-.22-.93,3.39,3.39,0,0,1-2.53,1.1,3.16,3.16,0,0,1-2.17-.75,2.4,2.4,0,0,1-.84-1.89,2.51,2.51,0,0,1,1.06-2.16,5,5,0,0,1,3-.77h1.48v-.7a1.7,1.7,0,0,0-.48-1.27,1.91,1.91,0,0,0-1.41-.48,2.21,2.21,0,0,0-1.37.42,1.21,1.21,0,0,0-.55,1H507a2.16,2.16,0,0,1,.47-1.29,3.31,3.31,0,0,1,1.29-1,4.32,4.32,0,0,1,1.78-.36,3.52,3.52,0,0,1,2.42.77,2.77,2.77,0,0,1,.9,2.12v4.1a5,5,0,0,0,.32,1.95v.13Zm-2.53-1.16a2.65,2.65,0,0,0,1.36-.37,2.2,2.2,0,0,0,.93-1v-1.83h-1.2c-1.86,0-2.8.55-2.8,1.64a1.38,1.38,0,0,0,.48,1.12A1.84,1.84,0,0,0,510.05,181.53Z"/><path d="M520.56,175.15a4.38,4.38,0,0,0-.75-.06,2,2,0,0,0-2,1.28v6.32h-1.52v-8.91h1.48l0,1a2.38,2.38,0,0,1,2.12-1.19,1.68,1.68,0,0,1,.68.11Z"/><path d="M525.5,182.86a3.91,3.91,0,0,1-3-1.19,4.41,4.41,0,0,1-1.14-3.18v-.28a5.29,5.29,0,0,1,.51-2.37,3.9,3.9,0,0,1,1.42-1.63,3.5,3.5,0,0,1,2-.59,3.34,3.34,0,0,1,2.7,1.14,4.94,4.94,0,0,1,1,3.28v.63h-6a3.16,3.16,0,0,0,.77,2.13,2.4,2.4,0,0,0,1.87.82,2.65,2.65,0,0,0,1.37-.33,3.4,3.4,0,0,0,1-.88l.93.73A3.72,3.72,0,0,1,525.5,182.86Zm-.19-8a2,2,0,0,0-1.55.67,3.34,3.34,0,0,0-.77,1.88h4.46v-.11a2.87,2.87,0,0,0-.62-1.8A1.91,1.91,0,0,0,525.31,174.87Z"/><path d="M534.44,182.86a3.91,3.91,0,0,1-3-1.19,4.41,4.41,0,0,1-1.14-3.18v-.28a5.29,5.29,0,0,1,.51-2.37,3.9,3.9,0,0,1,1.42-1.63,3.48,3.48,0,0,1,2-.59,3.34,3.34,0,0,1,2.7,1.14,5,5,0,0,1,1,3.28v.63h-6a3.16,3.16,0,0,0,.77,2.13,2.38,2.38,0,0,0,1.87.82,2.67,2.67,0,0,0,1.37-.33,3.4,3.4,0,0,0,1-.88l.93.73A3.74,3.74,0,0,1,534.44,182.86Zm-.19-8a2,2,0,0,0-1.55.67,3.27,3.27,0,0,0-.77,1.88h4.46v-.11a2.82,2.82,0,0,0-.63-1.8A1.88,1.88,0,0,0,534.25,174.87Z"/><path d="M544,175.15a4.56,4.56,0,0,0-.75-.06,2,2,0,0,0-2,1.28v6.32h-1.52v-8.91h1.48l0,1a2.39,2.39,0,0,1,2.13-1.19,1.71,1.71,0,0,1,.68.11Z"/><path d="M306.85,198.41a5.2,5.2,0,0,1,1-3.3,3.3,3.3,0,0,1,5-.18v-4.64h1.53v12.65H313l-.08-1a3.09,3.09,0,0,1-2.54,1.12,3,3,0,0,1-2.53-1.27,5.25,5.25,0,0,1-1-3.31Zm1.52.17A3.93,3.93,0,0,0,309,201a2,2,0,0,0,1.73.86,2.21,2.21,0,0,0,2.11-1.3v-4.1a2.23,2.23,0,0,0-2.1-1.26A2,2,0,0,0,309,196,4.34,4.34,0,0,0,308.37,198.58Z"/><path d="M320.43,203.1a3.87,3.87,0,0,1-2.95-1.19,4.39,4.39,0,0,1-1.14-3.18v-.28a5.35,5.35,0,0,1,.51-2.37,4,4,0,0,1,1.42-1.63,3.56,3.56,0,0,1,2-.59,3.31,3.31,0,0,1,2.7,1.15,5,5,0,0,1,1,3.27v.64h-6a3.16,3.16,0,0,0,.77,2.13,2.41,2.41,0,0,0,1.87.81,2.67,2.67,0,0,0,1.37-.33,3.51,3.51,0,0,0,1-.87l.93.72A3.74,3.74,0,0,1,320.43,203.1Zm-.19-8a2.06,2.06,0,0,0-1.55.67,3.27,3.27,0,0,0-.77,1.89h4.46v-.12a2.86,2.86,0,0,0-.63-1.8A1.91,1.91,0,0,0,320.24,195.11Z"/><path d="M328.5,200.87l2.21-6.84h1.56l-3.2,8.91h-1.16L324.68,194h1.56Z"/><path d="M337.32,203.1a3.89,3.89,0,0,1-2.95-1.19,4.43,4.43,0,0,1-1.13-3.18v-.28a5.49,5.49,0,0,1,.5-2.37,4,4,0,0,1,1.42-1.63,3.6,3.6,0,0,1,2-.59,3.35,3.35,0,0,1,2.71,1.15,4.94,4.94,0,0,1,1,3.27v.64h-6a3.16,3.16,0,0,0,.77,2.13,2.43,2.43,0,0,0,1.88.81,2.63,2.63,0,0,0,1.36-.33,3.38,3.38,0,0,0,1-.87l.93.72A3.72,3.72,0,0,1,337.32,203.1Zm-.19-8a2.07,2.07,0,0,0-1.55.67,3.34,3.34,0,0,0-.77,1.89h4.47v-.12a3,3,0,0,0-.63-1.8A1.93,1.93,0,0,0,337.13,195.11Z"/><path d="M344.22,202.94h-1.53V190.29h1.53Z"/><path d="M346.25,198.4a5.21,5.21,0,0,1,.52-2.36,3.79,3.79,0,0,1,3.53-2.18,3.75,3.75,0,0,1,2.94,1.26,4.85,4.85,0,0,1,1.13,3.35v.11a5.36,5.36,0,0,1-.5,2.34,3.79,3.79,0,0,1-1.43,1.61,3.94,3.94,0,0,1-2.13.57,3.75,3.75,0,0,1-2.93-1.26,4.82,4.82,0,0,1-1.13-3.33Zm1.53.18a3.8,3.8,0,0,0,.69,2.38,2.33,2.33,0,0,0,3.69,0,4.22,4.22,0,0,0,.68-2.55,3.84,3.84,0,0,0-.69-2.38,2.24,2.24,0,0,0-1.85-.91,2.17,2.17,0,0,0-1.82.9A4.16,4.16,0,0,0,347.78,198.58Z"/><path d="M363.81,198.58a5.28,5.28,0,0,1-.94,3.28,3,3,0,0,1-2.52,1.24,3.25,3.25,0,0,1-2.55-1v4.3h-1.52V194h1.39l.07,1a3.17,3.17,0,0,1,2.59-1.15,3,3,0,0,1,2.54,1.21,5.42,5.42,0,0,1,.94,3.37Zm-1.53-.17a3.91,3.91,0,0,0-.64-2.38,2.09,2.09,0,0,0-1.76-.88,2.24,2.24,0,0,0-2.08,1.23v4.26a2.25,2.25,0,0,0,2.09,1.22,2.08,2.08,0,0,0,1.75-.87A4.31,4.31,0,0,0,362.28,198.41Z"/><path d="M367.18,194l0,1a3.3,3.3,0,0,1,2.64-1.15,2.56,2.56,0,0,1,2.55,1.43,3.33,3.33,0,0,1,2.84-1.43c1.95,0,2.95,1,3,3.11v6h-1.52v-5.88a2,2,0,0,0-.44-1.43,1.91,1.91,0,0,0-1.47-.48,2,2,0,0,0-1.41.51,2.07,2.07,0,0,0-.65,1.36v5.92h-1.53V197.1a1.7,1.7,0,0,0-1.9-1.95,2,2,0,0,0-2.05,1.28v6.51h-1.53V194Z"/><path d="M384.23,203.1a3.86,3.86,0,0,1-3-1.19,4.39,4.39,0,0,1-1.14-3.18v-.28a5.35,5.35,0,0,1,.51-2.37,3.94,3.94,0,0,1,1.41-1.63,3.61,3.61,0,0,1,2-.59,3.31,3.31,0,0,1,2.7,1.15,4.94,4.94,0,0,1,1,3.27v.64h-6a3.21,3.21,0,0,0,.77,2.13,2.44,2.44,0,0,0,1.88.81,2.67,2.67,0,0,0,1.37-.33,3.51,3.51,0,0,0,1-.87l.93.72A3.74,3.74,0,0,1,384.23,203.1Zm-.19-8a2.06,2.06,0,0,0-1.55.67,3.28,3.28,0,0,0-.78,1.89h4.47v-.12a3,3,0,0,0-.63-1.8A1.93,1.93,0,0,0,384,195.11Z"/><path d="M390.91,194l0,1.12a3.24,3.24,0,0,1,2.66-1.29q2.83,0,2.85,3.19v5.89H395V197a2,2,0,0,0-.44-1.42,1.77,1.77,0,0,0-1.35-.47,2.25,2.25,0,0,0-1.3.4,2.69,2.69,0,0,0-.87,1v6.35h-1.53V194Z"/><path d="M400.84,191.87V194h1.66v1.17h-1.66v5.54a1.21,1.21,0,0,0,.22.8.94.94,0,0,0,.76.27,3.44,3.44,0,0,0,.73-.1v1.23a4.45,4.45,0,0,1-1.17.16,1.89,1.89,0,0,1-1.54-.61,2.66,2.66,0,0,1-.52-1.76V195.2h-1.63V194h1.63v-2.16Z"/><path d="M414,202.94a3.05,3.05,0,0,1-.21-.94,3.39,3.39,0,0,1-2.54,1.1,3.16,3.16,0,0,1-2.16-.74,2.43,2.43,0,0,1-.85-1.89,2.52,2.52,0,0,1,1.06-2.16,5,5,0,0,1,3-.78h1.48v-.7a1.75,1.75,0,0,0-.47-1.27,2,2,0,0,0-1.41-.47,2.25,2.25,0,0,0-1.37.41,1.21,1.21,0,0,0-.55,1h-1.53a2.05,2.05,0,0,1,.47-1.29,3.22,3.22,0,0,1,1.28-1,4.4,4.4,0,0,1,1.79-.36,3.54,3.54,0,0,1,2.41.77,2.77,2.77,0,0,1,.91,2.12v4.1a5.06,5.06,0,0,0,.31,2v.13Zm-2.53-1.16a2.75,2.75,0,0,0,1.36-.37,2.22,2.22,0,0,0,.93-1v-1.83h-1.19c-1.87,0-2.8.55-2.8,1.64a1.38,1.38,0,0,0,.48,1.12A1.8,1.8,0,0,0,411.43,201.78Z"/><path d="M419.08,194l.05,1.12a3.24,3.24,0,0,1,2.66-1.29q2.83,0,2.86,3.19v5.89h-1.53V197a2,2,0,0,0-.44-1.42,1.77,1.77,0,0,0-1.35-.47,2.25,2.25,0,0,0-1.3.4,2.69,2.69,0,0,0-.87,1v6.35h-1.52V194Z"/><path d="M426.57,198.41a5.21,5.21,0,0,1,1-3.3,3.06,3.06,0,0,1,2.54-1.25,3.11,3.11,0,0,1,2.48,1.07v-4.64h1.52v12.65h-1.4l-.07-1a3.1,3.1,0,0,1-2.55,1.12,3,3,0,0,1-2.52-1.27,5.25,5.25,0,0,1-1-3.31Zm1.53.17a4,4,0,0,0,.62,2.37,2,2,0,0,0,1.73.86,2.22,2.22,0,0,0,2.12-1.3v-4.1a2.25,2.25,0,0,0-2.1-1.26,2,2,0,0,0-1.75.87A4.41,4.41,0,0,0,428.1,198.58Z"/><path d="M442.29,202.94h-1.52V190.29h1.52Z"/><path d="M444.74,191.66A.89.89,0,0,1,445,191a1,1,0,0,1,1.35,0,.92.92,0,1,1-1.57.62Zm1.64,11.28h-1.52V194h1.52Z"/><path d="M451.76,200.87,454,194h1.56l-3.2,8.91h-1.16L447.94,194h1.56Z"/><path d="M460.58,203.1a3.85,3.85,0,0,1-2.94-1.19,4.39,4.39,0,0,1-1.14-3.18v-.28a5.35,5.35,0,0,1,.51-2.37,3.94,3.94,0,0,1,1.41-1.63,3.61,3.61,0,0,1,2-.59,3.33,3.33,0,0,1,2.7,1.15,4.94,4.94,0,0,1,1,3.27v.64h-6a3.16,3.16,0,0,0,.77,2.13,2.44,2.44,0,0,0,1.88.81,2.67,2.67,0,0,0,1.37-.33,3.34,3.34,0,0,0,1-.87l.94.72A3.75,3.75,0,0,1,460.58,203.1Zm-.18-8a2,2,0,0,0-1.55.67,3.28,3.28,0,0,0-.78,1.89h4.47v-.12a3,3,0,0,0-.63-1.8A1.93,1.93,0,0,0,460.4,195.11Z"/><path d="M467.48,202.94H466V190.29h1.52Z"/><path d="M469.93,191.66a.89.89,0,0,1,.22-.62,1,1,0,0,1,1.35,0,.92.92,0,1,1-1.57.62Zm1.64,11.28h-1.52V194h1.52Z"/><path d="M475.54,195.1a3.25,3.25,0,0,1,2.63-1.24q2.82,0,2.85,3.19v5.89H479.5V197a2.09,2.09,0,0,0-.44-1.42,1.77,1.77,0,0,0-1.35-.47,2.23,2.23,0,0,0-1.3.4,2.6,2.6,0,0,0-.87,1v6.35H474V190.29h1.53Z"/><path d="M482.9,198.4a5.34,5.34,0,0,1,.51-2.36,3.82,3.82,0,0,1,3.53-2.18,3.76,3.76,0,0,1,2.95,1.26,4.85,4.85,0,0,1,1.12,3.35v.11a5.22,5.22,0,0,1-.5,2.34,3.77,3.77,0,0,1-1.42,1.61,4,4,0,0,1-2.13.57,3.75,3.75,0,0,1-2.94-1.26,4.81,4.81,0,0,1-1.12-3.33Zm1.53.18a3.8,3.8,0,0,0,.69,2.38,2.2,2.2,0,0,0,1.84.9,2.17,2.17,0,0,0,1.84-.91,4.16,4.16,0,0,0,.69-2.55,3.78,3.78,0,0,0-.7-2.38,2.22,2.22,0,0,0-1.85-.91,2.19,2.19,0,0,0-1.82.9A4.16,4.16,0,0,0,484.43,198.58Z"/><path d="M492.52,198.4A5.21,5.21,0,0,1,493,196a3.79,3.79,0,0,1,3.52-2.18,3.76,3.76,0,0,1,2.95,1.26,4.85,4.85,0,0,1,1.12,3.35v.11a5.36,5.36,0,0,1-.49,2.34,3.86,3.86,0,0,1-1.43,1.61,4,4,0,0,1-2.13.57,3.75,3.75,0,0,1-2.94-1.26,4.81,4.81,0,0,1-1.12-3.33Zm1.53.18a3.8,3.8,0,0,0,.69,2.38,2.33,2.33,0,0,0,3.69,0,4.22,4.22,0,0,0,.68-2.55,3.78,3.78,0,0,0-.7-2.38,2.22,2.22,0,0,0-1.85-.91,2.2,2.2,0,0,0-1.82.9A4.16,4.16,0,0,0,494.05,198.58Z"/><path d="M377.11,218.82a5.34,5.34,0,0,1-.93,3.28,3,3,0,0,1-2.52,1.25,3.28,3.28,0,0,1-2.55-1v4.29h-1.53V214.27H371l.07,1a3.14,3.14,0,0,1,2.59-1.16,3,3,0,0,1,2.54,1.22,5.39,5.39,0,0,1,.93,3.36Zm-1.52-.17a4,4,0,0,0-.64-2.38,2.08,2.08,0,0,0-1.77-.87,2.23,2.23,0,0,0-2.07,1.23v4.25a2.22,2.22,0,0,0,2.09,1.22,2.05,2.05,0,0,0,1.74-.87A4.3,4.3,0,0,0,375.59,218.65Z"/><path d="M383.36,215.64a4.38,4.38,0,0,0-.75-.06,2,2,0,0,0-2,1.28v6.32h-1.52v-8.91h1.48l0,1a2.36,2.36,0,0,1,2.12-1.2,1.53,1.53,0,0,1,.68.12Z"/><path d="M384.19,218.64a5.3,5.3,0,0,1,.51-2.35,3.8,3.8,0,0,1,3.53-2.19,3.77,3.77,0,0,1,2.95,1.27,4.83,4.83,0,0,1,1.12,3.35v.1a5.22,5.22,0,0,1-.5,2.34,3.71,3.71,0,0,1-1.42,1.61,4,4,0,0,1-2.13.58,3.75,3.75,0,0,1-2.94-1.26,4.84,4.84,0,0,1-1.12-3.34Zm1.53.18a3.83,3.83,0,0,0,.69,2.39,2.22,2.22,0,0,0,1.84.89,2.17,2.17,0,0,0,1.84-.91,4.12,4.12,0,0,0,.69-2.55,3.75,3.75,0,0,0-.7-2.37,2.32,2.32,0,0,0-3.67,0A4.16,4.16,0,0,0,385.72,218.82Z"/><path d="M399.4,220.82a1.12,1.12,0,0,0-.46-1,4.34,4.34,0,0,0-1.62-.59,7.81,7.81,0,0,1-1.84-.59,2.67,2.67,0,0,1-1-.83,2,2,0,0,1-.32-1.13,2.35,2.35,0,0,1,.92-1.86,3.66,3.66,0,0,1,2.37-.76,3.74,3.74,0,0,1,2.46.79,2.48,2.48,0,0,1,.94,2h-1.53a1.35,1.35,0,0,0-.53-1.08,2,2,0,0,0-1.34-.45,2.09,2.09,0,0,0-1.3.36,1.15,1.15,0,0,0-.47.95.94.94,0,0,0,.44.83,5.21,5.21,0,0,0,1.58.53,8.69,8.69,0,0,1,1.85.61,2.6,2.6,0,0,1,1,.86,2.06,2.06,0,0,1,.35,1.21,2.28,2.28,0,0,1-1,1.92,4,4,0,0,1-2.48.72,4.52,4.52,0,0,1-1.89-.38,3.08,3.08,0,0,1-1.29-1.06,2.54,2.54,0,0,1-.47-1.47h1.53a1.53,1.53,0,0,0,.61,1.21,2.38,2.38,0,0,0,1.51.45,2.41,2.41,0,0,0,1.39-.35A1.06,1.06,0,0,0,399.4,220.82Z"/><path d="M410.44,218.82a5.34,5.34,0,0,1-.93,3.28,3,3,0,0,1-2.52,1.25,3.28,3.28,0,0,1-2.55-1v4.29h-1.53V214.27h1.39l.08,1A3.13,3.13,0,0,1,407,214.1a3.05,3.05,0,0,1,2.55,1.22,5.39,5.39,0,0,1,.93,3.36Zm-1.52-.17a3.93,3.93,0,0,0-.65-2.38,2.05,2.05,0,0,0-1.76-.87,2.23,2.23,0,0,0-2.07,1.23v4.25a2.22,2.22,0,0,0,2.09,1.22,2.05,2.05,0,0,0,1.74-.87A4.3,4.3,0,0,0,408.92,218.65Z"/><path d="M416.08,223.35a3.89,3.89,0,0,1-2.95-1.19A4.43,4.43,0,0,1,412,219v-.28a5.35,5.35,0,0,1,.51-2.37,4,4,0,0,1,1.41-1.63,3.61,3.61,0,0,1,2-.59,3.36,3.36,0,0,1,2.7,1.15,5,5,0,0,1,1,3.28v.63h-6a3.21,3.21,0,0,0,.77,2.13,2.44,2.44,0,0,0,1.88.81,2.67,2.67,0,0,0,1.37-.33,3.34,3.34,0,0,0,1-.87l.94.73A3.76,3.76,0,0,1,416.08,223.35Zm-.19-8a2,2,0,0,0-1.55.67,3.25,3.25,0,0,0-.78,1.88H418v-.11a2.94,2.94,0,0,0-.63-1.8A1.89,1.89,0,0,0,415.89,215.36Z"/><path d="M424.89,222.1a2.17,2.17,0,0,0,1.42-.49,1.75,1.75,0,0,0,.68-1.24h1.44a2.74,2.74,0,0,1-.53,1.46,3.5,3.5,0,0,1-1.29,1.11,3.85,3.85,0,0,1-1.72.41,3.68,3.68,0,0,1-2.9-1.22,4.87,4.87,0,0,1-1.07-3.32v-.26a5.33,5.33,0,0,1,.48-2.31,3.58,3.58,0,0,1,1.37-1.58,3.91,3.91,0,0,1,2.11-.56,3.56,3.56,0,0,1,2.49.9,3.21,3.21,0,0,1,1.06,2.33H427a2.11,2.11,0,0,0-.66-1.42,2,2,0,0,0-1.45-.55,2.16,2.16,0,0,0-1.8.83,3.92,3.92,0,0,0-.64,2.42v.29a3.78,3.78,0,0,0,.64,2.37A2.11,2.11,0,0,0,424.89,222.1Z"/><path d="M432.21,212.11v2.16h1.67v1.18h-1.67V221a1.3,1.3,0,0,0,.22.81,1,1,0,0,0,.76.26,4.06,4.06,0,0,0,.73-.09v1.22a4.41,4.41,0,0,1-1.17.17,1.9,1.9,0,0,1-1.54-.62,2.64,2.64,0,0,1-.52-1.76v-5.52h-1.62v-1.18h1.62v-2.16Z"/><path d="M440.84,220.82a1.12,1.12,0,0,0-.46-1,4.34,4.34,0,0,0-1.62-.59,8,8,0,0,1-1.84-.59,2.67,2.67,0,0,1-1-.83,2,2,0,0,1-.32-1.13,2.33,2.33,0,0,1,.93-1.86,3.61,3.61,0,0,1,2.36-.76,3.74,3.74,0,0,1,2.46.79,2.49,2.49,0,0,1,1,2h-1.54a1.35,1.35,0,0,0-.53-1.08,2,2,0,0,0-1.34-.45,2.11,2.11,0,0,0-1.3.36,1.15,1.15,0,0,0-.47.95.94.94,0,0,0,.44.83,5.32,5.32,0,0,0,1.58.53,8.69,8.69,0,0,1,1.85.61,2.71,2.71,0,0,1,1,.86,2.13,2.13,0,0,1,.34,1.21,2.28,2.28,0,0,1-1,1.92,4,4,0,0,1-2.48.72A4.52,4.52,0,0,1,437,223a3.08,3.08,0,0,1-1.29-1.06,2.54,2.54,0,0,1-.47-1.47h1.53a1.56,1.56,0,0,0,.61,1.21,2.38,2.38,0,0,0,1.51.45,2.41,2.41,0,0,0,1.39-.35A1.06,1.06,0,0,0,440.84,220.82Z"/><path class="cls-8" d="M279.53,80.29h5.77a8.08,8.08,0,0,1,3.66.79,5.94,5.94,0,0,1,2.48,2.22,6.8,6.8,0,0,1,0,6.69A5.94,5.94,0,0,1,289,92.21a8.08,8.08,0,0,1-3.66.79h-5.77Zm5.63,10.3a4.27,4.27,0,0,0,3-1.07,4.2,4.2,0,0,0,0-5.75,4.27,4.27,0,0,0-3-1.07h-2.69v7.89Z"/><path class="cls-8" d="M294.53,80.29h3V93h-3Z"/><path class="cls-8" d="M301.75,92.81a6.79,6.79,0,0,1-2.26-1.06l1-2.22a7,7,0,0,0,1.95,1,7.35,7.35,0,0,0,2.25.36,3.59,3.59,0,0,0,1.85-.37,1.13,1.13,0,0,0,.6-1,1,1,0,0,0-.35-.76,2.7,2.7,0,0,0-.91-.48c-.37-.12-.87-.25-1.5-.4a20.8,20.8,0,0,1-2.38-.69,3.83,3.83,0,0,1-1.59-1.11,3,3,0,0,1-.66-2,3.54,3.54,0,0,1,.6-2,4.1,4.1,0,0,1,1.8-1.43,7.43,7.43,0,0,1,3-.52,10,10,0,0,1,2.38.29,7,7,0,0,1,2,.83l-.91,2.24a7,7,0,0,0-3.52-1,3.29,3.29,0,0,0-1.83.4,1.23,1.23,0,0,0-.59,1,1,1,0,0,0,.68,1,10.68,10.68,0,0,0,2.08.62,20.21,20.21,0,0,1,2.38.69,4,4,0,0,1,1.59,1.09,3,3,0,0,1,.67,2,3.51,3.51,0,0,1-.61,2,4.11,4.11,0,0,1-1.83,1.42,7.29,7.29,0,0,1-3,.53A10.15,10.15,0,0,1,301.75,92.81Z"/><path class="cls-8" d="M320.46,90.28h-5.91L313.43,93h-3l5.67-12.71H319L324.67,93h-3.09ZM319.53,88l-2-4.87-2,4.87Z"/><path class="cls-8" d="M326,80.29h5.78a8.08,8.08,0,0,1,3.66.79,5.92,5.92,0,0,1,2.47,2.22,6.8,6.8,0,0,1,0,6.69,5.92,5.92,0,0,1-2.47,2.22,8.08,8.08,0,0,1-3.66.79H326Zm5.63,10.3a4.25,4.25,0,0,0,3-1.07,4.2,4.2,0,0,0,0-5.75,4.25,4.25,0,0,0-3-1.07h-2.69v7.89Z"/><path class="cls-8" d="M352.81,80.29,347.31,93H344.4l-5.49-12.71h3.18L346,89.37l3.93-9.08Z"/><path class="cls-8" d="M361.82,90.28h-5.9L354.79,93h-3l5.67-12.71h2.9L366,93H363ZM360.9,88l-2-4.87-2,4.87Z"/><path class="cls-8" d="M379,80.29V93h-2.42l-6.34-7.72V93h-2.91V80.29h2.44L376.12,88V80.29Z"/><path class="cls-8" d="M384.68,82.68h-4.07V80.29h11.08v2.39h-4.07V93h-2.94Z"/><path class="cls-8" d="M401,90.28h-5.9L394,93h-3l5.67-12.71h2.91L405.23,93h-3.09ZM400.08,88l-2-4.87-2,4.87Z"/><path class="cls-8" d="M415,86.45h2.69V91.6a7.31,7.31,0,0,1-2.4,1.2,9.21,9.21,0,0,1-2.74.42,7.46,7.46,0,0,1-3.56-.84A6.38,6.38,0,0,1,406.47,90a6.82,6.82,0,0,1,0-6.77,6.3,6.3,0,0,1,2.5-2.35,7.59,7.59,0,0,1,3.6-.84,8,8,0,0,1,3,.56,6,6,0,0,1,2.29,1.64L416,84a4.37,4.37,0,0,0-3.29-1.43,4.59,4.59,0,0,0-2.16.5,3.64,3.64,0,0,0-1.47,1.44,4.49,4.49,0,0,0,0,4.23,3.77,3.77,0,0,0,1.46,1.45,4.36,4.36,0,0,0,2.13.51,4.78,4.78,0,0,0,2.29-.54Z"/><path class="cls-8" d="M430.22,90.64V93h-9.84V80.29H430v2.36H423.3v2.76h5.91V87.7H423.3v2.94Z"/><path class="cls-8" d="M432.57,80.29h5.77a8.09,8.09,0,0,1,3.67.79,5.92,5.92,0,0,1,2.47,2.22,6.8,6.8,0,0,1,0,6.69A5.92,5.92,0,0,1,442,92.21a8.09,8.09,0,0,1-3.67.79h-5.77Zm5.63,10.3a4.25,4.25,0,0,0,3-1.07,4.2,4.2,0,0,0,0-5.75,4.25,4.25,0,0,0-3-1.07h-2.69v7.89Z"/><path class="cls-8" d="M455.66,82.65V86h5.88v2.36h-5.88V93h-3V80.29h9.62v2.36Z"/><path class="cls-8" d="M474.17,90.64V93h-9.85V80.29h9.61v2.36h-6.68v2.76h5.9V87.7h-5.9v2.94Z"/><path class="cls-8" d="M488.09,93l0-7.63-3.74,6.29H483l-3.72-6.12V93h-2.77V80.29H479l4.76,7.9,4.69-7.9h2.41l0,12.71Z"/><path class="cls-8" d="M502.24,90.28h-5.91L495.21,93h-3l5.67-12.71h2.91L506.45,93h-3.08ZM501.31,88l-2-4.87-2,4.87Z"/><path class="cls-8" d="M507.78,80.29h2.94V90.61h6.38V93h-9.32Z"/><path class="cls-8" d="M528.6,90.64V93h-9.85V80.29h9.61v2.36h-6.68v2.76h5.9V87.7h-5.9v2.94Z"/><path class="cls-8" d="M310.83,102.09l-5.51,12.71h-2.9l-5.49-12.71h3.18l3.87,9.08,3.92-9.08Z"/><path class="cls-8" d="M314.33,114.17a6.34,6.34,0,0,1-2.49-2.35,6.76,6.76,0,0,1,0-6.74,6.36,6.36,0,0,1,2.49-2.36,7.9,7.9,0,0,1,7.13,0,6.5,6.5,0,0,1,2.49,2.36,6.76,6.76,0,0,1,0,6.74,6.47,6.47,0,0,1-2.49,2.35,7.9,7.9,0,0,1-7.13,0Zm5.6-2.17a3.76,3.76,0,0,0,1.43-1.45,4.6,4.6,0,0,0,0-4.21,3.76,3.76,0,0,0-1.43-1.45,4.32,4.32,0,0,0-4.07,0,3.76,3.76,0,0,0-1.43,1.45,4.6,4.6,0,0,0,0,4.21,3.76,3.76,0,0,0,1.43,1.45,4.24,4.24,0,0,0,4.07,0Z"/><path class="cls-8" d="M329.64,114.18a6.35,6.35,0,0,1-2.47-2.35,6.82,6.82,0,0,1,0-6.77,6.35,6.35,0,0,1,2.47-2.35,7.91,7.91,0,0,1,6.52-.26,6.14,6.14,0,0,1,2.25,1.67l-1.89,1.75a4,4,0,0,0-3.2-1.49,4.31,4.31,0,0,0-2.11.51,3.65,3.65,0,0,0-1.44,1.45,4.52,4.52,0,0,0,0,4.21,3.65,3.65,0,0,0,1.44,1.45,4.31,4.31,0,0,0,2.11.52,4.07,4.07,0,0,0,3.2-1.51l1.89,1.74a5.93,5.93,0,0,1-2.26,1.69,7.89,7.89,0,0,1-6.51-.26Z"/><path class="cls-8" d="M348.51,112.08H342.6l-1.12,2.72h-3l5.67-12.71H347l5.68,12.71h-3.09Zm-.93-2.24-2-4.86-2,4.86Z"/><path class="cls-8" d="M356.05,104.49H352v-2.4h11.08v2.4H359V114.8h-2.94Z"/><path class="cls-8" d="M364.64,102.09h2.94V114.8h-2.94Z"/><path class="cls-8" d="M373.19,114.17a6.34,6.34,0,0,1-2.49-2.35,6.76,6.76,0,0,1,0-6.74,6.36,6.36,0,0,1,2.49-2.36,7.9,7.9,0,0,1,7.13,0,6.5,6.5,0,0,1,2.49,2.36,6.7,6.7,0,0,1,0,6.74,6.47,6.47,0,0,1-2.49,2.35,7.9,7.9,0,0,1-7.13,0Zm5.6-2.17a3.76,3.76,0,0,0,1.43-1.45,4.52,4.52,0,0,0,0-4.21,3.76,3.76,0,0,0-1.43-1.45,4.05,4.05,0,0,0-2-.51,4.12,4.12,0,0,0-2,.51,3.73,3.73,0,0,0-1.42,1.45,4.52,4.52,0,0,0,0,4.21,3.73,3.73,0,0,0,1.42,1.45,4.13,4.13,0,0,0,2,.52A4.06,4.06,0,0,0,378.79,112Z"/><path class="cls-8" d="M397.6,102.09V114.8h-2.42l-6.34-7.72v7.72h-2.91V102.09h2.44l6.32,7.72v-7.72Z"/><path class="cls-8" d="M409,112.08h-5.91L402,114.8h-3l5.67-12.71h2.9l5.69,12.71h-3.09Zm-.93-2.24L406,105l-2,4.86Z"/><path class="cls-8" d="M414.53,102.09h2.94v10.32h6.38v2.39h-9.32Z"/><path class="cls-8" d="M431.9,114.61a6.79,6.79,0,0,1-2.26-1.06l1-2.22a6.71,6.71,0,0,0,1.95,1,7.35,7.35,0,0,0,2.25.36,3.59,3.59,0,0,0,1.85-.37,1.13,1.13,0,0,0,.6-1,1,1,0,0,0-.35-.76,2.7,2.7,0,0,0-.91-.48c-.37-.12-.87-.25-1.5-.4a20.8,20.8,0,0,1-2.38-.69,3.83,3.83,0,0,1-1.59-1.11,3,3,0,0,1-.66-2,3.54,3.54,0,0,1,.6-2,4,4,0,0,1,1.8-1.42,7.26,7.26,0,0,1,3-.53,10,10,0,0,1,2.38.29,6.77,6.77,0,0,1,2,.84l-.91,2.23a7,7,0,0,0-3.52-1,3.29,3.29,0,0,0-1.83.4,1.23,1.23,0,0,0-.59,1.05,1,1,0,0,0,.68,1,10.68,10.68,0,0,0,2.08.62A20.21,20.21,0,0,1,438,108a4,4,0,0,1,1.59,1.09,2.9,2.9,0,0,1,.67,2,3.51,3.51,0,0,1-.61,2,4.2,4.2,0,0,1-1.83,1.43,7.47,7.47,0,0,1-3,.52A10.15,10.15,0,0,1,431.9,114.61Z"/><path class="cls-8" d="M444.8,114.18a6.35,6.35,0,0,1-2.47-2.35,6.82,6.82,0,0,1,0-6.77,6.35,6.35,0,0,1,2.47-2.35,7.91,7.91,0,0,1,6.52-.26,6.14,6.14,0,0,1,2.25,1.67l-1.89,1.75a4,4,0,0,0-3.2-1.49,4.31,4.31,0,0,0-2.11.51,3.72,3.72,0,0,0-1.44,1.45,4.52,4.52,0,0,0,0,4.21,3.72,3.72,0,0,0,1.44,1.45,4.31,4.31,0,0,0,2.11.52,4.07,4.07,0,0,0,3.2-1.51l1.89,1.74a6,6,0,0,1-2.25,1.69,7.47,7.47,0,0,1-3,.58A7.35,7.35,0,0,1,444.8,114.18Z"/><path class="cls-8" d="M467.21,102.09V114.8h-2.94v-5.21h-5.78v5.21h-2.94V102.09h2.94v5h5.78v-5Z"/><path class="cls-8" d="M472.82,114.17a6.34,6.34,0,0,1-2.49-2.35,6.76,6.76,0,0,1,0-6.74,6.36,6.36,0,0,1,2.49-2.36,7.9,7.9,0,0,1,7.13,0,6.5,6.5,0,0,1,2.49,2.36,6.76,6.76,0,0,1,0,6.74,6.47,6.47,0,0,1-2.49,2.35,7.9,7.9,0,0,1-7.13,0Zm5.6-2.17a3.76,3.76,0,0,0,1.43-1.45,4.52,4.52,0,0,0,0-4.21,3.76,3.76,0,0,0-1.43-1.45,4.05,4.05,0,0,0-2-.51,4.12,4.12,0,0,0-2,.51,3.73,3.73,0,0,0-1.42,1.45,4.52,4.52,0,0,0,0,4.21,3.73,3.73,0,0,0,1.42,1.45,4.13,4.13,0,0,0,2,.52A4.06,4.06,0,0,0,478.42,112Z"/><path class="cls-8" d="M488.15,114.17a6.34,6.34,0,0,1-2.49-2.35,6.76,6.76,0,0,1,0-6.74,6.36,6.36,0,0,1,2.49-2.36,7.9,7.9,0,0,1,7.13,0,6.5,6.5,0,0,1,2.49,2.36,6.7,6.7,0,0,1,0,6.74,6.47,6.47,0,0,1-2.49,2.35,7.9,7.9,0,0,1-7.13,0Zm5.6-2.17a3.76,3.76,0,0,0,1.43-1.45,4.52,4.52,0,0,0,0-4.21,3.76,3.76,0,0,0-1.43-1.45,4.05,4.05,0,0,0-2-.51,4.12,4.12,0,0,0-2,.51,3.73,3.73,0,0,0-1.42,1.45,4.52,4.52,0,0,0,0,4.21,3.73,3.73,0,0,0,1.42,1.45,4.13,4.13,0,0,0,2,.52A4.06,4.06,0,0,0,493.75,112Z"/><path class="cls-8" d="M500.89,102.09h2.95v10.32h6.37v2.39h-9.32Z"/><path class="cls-8" d="M352,130.05h2.69v5.16a7.72,7.72,0,0,1-2.4,1.2,9.58,9.58,0,0,1-2.74.41,7.46,7.46,0,0,1-3.56-.84,6.24,6.24,0,0,1-2.48-2.35,6.82,6.82,0,0,1,0-6.77,6.34,6.34,0,0,1,2.49-2.35,7.64,7.64,0,0,1,3.6-.84,8,8,0,0,1,3,.56,6,6,0,0,1,2.28,1.64L353,127.61a4.4,4.4,0,0,0-3.29-1.43,4.45,4.45,0,0,0-2.16.51,3.64,3.64,0,0,0-1.48,1.43,4.25,4.25,0,0,0-.52,2.13,4.17,4.17,0,0,0,.52,2.1,3.73,3.73,0,0,0,1.47,1.45,4.36,4.36,0,0,0,2.13.52,4.81,4.81,0,0,0,2.29-.55Z"/><path class="cls-8" d="M365.47,136.61,363,133.06h-2.7v3.55h-2.95V123.89h5.51a7.16,7.16,0,0,1,2.93.56,4.55,4.55,0,0,1,1.91,6.5,4.36,4.36,0,0,1-1.94,1.57l2.86,4.09Zm-.75-9.75a3.09,3.09,0,0,0-2-.57h-2.4v4.43h2.4a3,3,0,0,0,2-.58,2.29,2.29,0,0,0,0-3.28Z"/><path class="cls-8" d="M379.09,133.88h-5.9l-1.13,2.73h-3l5.67-12.72h2.91l5.69,12.72h-3.09Zm-.93-2.23-2-4.87-2,4.87Z"/><path class="cls-8" d="M384.63,123.89h5.78a8.08,8.08,0,0,1,3.66.79,6,6,0,0,1,2.47,2.22,6.8,6.8,0,0,1,0,6.69,5.85,5.85,0,0,1-2.47,2.22,8.08,8.08,0,0,1-3.66.8h-5.78Zm5.63,10.3a4.32,4.32,0,0,0,3.05-1.06,4.24,4.24,0,0,0,0-5.76,4.28,4.28,0,0,0-3.05-1.07h-2.68v7.89Z"/><path class="cls-8" d="M401.05,135.32a5.84,5.84,0,0,1-1.52-4.31v-7.12h2.94v7q0,3.42,2.84,3.42a2.64,2.64,0,0,0,2.1-.83,3.82,3.82,0,0,0,.73-2.59v-7h2.91V131a5.84,5.84,0,0,1-1.52,4.31,6.74,6.74,0,0,1-8.48,0Z"/><path class="cls-8" d="M422.06,133.88h-5.91L415,136.61h-3l5.67-12.72h2.9l5.69,12.72h-3.09Zm-.93-2.23-2-4.87-2,4.87Z"/><path class="cls-8" d="M429.6,126.29h-4.07v-2.4h11.08v2.4h-4.07v10.32H429.6Z"/><path class="cls-8" d="M448,134.24v2.37h-9.85V123.89h9.61v2.36h-6.69V129H447v2.29h-5.91v2.94Z"/><path class="cls-8" d="M451.64,136.41a6.7,6.7,0,0,1-2.26-1.06l1-2.21a6.89,6.89,0,0,0,1.94,1,7.46,7.46,0,0,0,2.26.36,3.59,3.59,0,0,0,1.85-.37,1.13,1.13,0,0,0,.6-1,1,1,0,0,0-.36-.76,2.56,2.56,0,0,0-.9-.48c-.37-.12-.87-.25-1.5-.4a20.8,20.8,0,0,1-2.38-.69,3.9,3.9,0,0,1-1.59-1.1,3,3,0,0,1-.67-2,3.54,3.54,0,0,1,.6-2A4,4,0,0,1,452,124.2a7.41,7.41,0,0,1,2.95-.53,9.88,9.88,0,0,1,2.38.29,6.72,6.72,0,0,1,2,.84L458.5,127a7,7,0,0,0-3.52-1,3.35,3.35,0,0,0-1.83.4,1.24,1.24,0,0,0-.59,1.06,1,1,0,0,0,.68,1,10.68,10.68,0,0,0,2.08.62,20.8,20.8,0,0,1,2.38.69,4,4,0,0,1,1.59,1.09,2.94,2.94,0,0,1,.66,2,3.5,3.5,0,0,1-.6,2,4.13,4.13,0,0,1-1.83,1.43,7.47,7.47,0,0,1-3,.52A10.15,10.15,0,0,1,451.64,136.41Z"/><path class="cls-8" d="M385.43,48.32a8.47,8.47,0,0,1,1.36,4.78A9,9,0,0,1,385,58.7a11.63,11.63,0,0,1-5.12,3.7,23.07,23.07,0,0,1-15.27,0,11.52,11.52,0,0,1-5.07-3.7,9,9,0,0,1-1.8-5.6,8.55,8.55,0,0,1,1.35-4.78A9.88,9.88,0,0,1,362.92,45a8.47,8.47,0,0,1-3-3,8.1,8.1,0,0,1-1-4.12,8.41,8.41,0,0,1,1.68-5.22,10.65,10.65,0,0,1,4.68-3.43,18.51,18.51,0,0,1,6.9-1.21,18.87,18.87,0,0,1,7,1.21,10.74,10.74,0,0,1,4.71,3.43,8.41,8.41,0,0,1,1.68,5.22,8.11,8.11,0,0,1-1,4.12,8.3,8.3,0,0,1-3,3A9.7,9.7,0,0,1,385.43,48.32ZM377,56.48a4.33,4.33,0,0,0,1.75-3.62,4.26,4.26,0,0,0-1.75-3.6,7.67,7.67,0,0,0-4.76-1.34,7.46,7.46,0,0,0-4.68,1.34,4.29,4.29,0,0,0-1.73,3.6,4.34,4.34,0,0,0,1.73,3.64,7.46,7.46,0,0,0,4.68,1.34A7.61,7.61,0,0,0,377,56.48ZM368.32,35a3.83,3.83,0,0,0-1.45,3.18,3.74,3.74,0,0,0,1.43,3.11,6.12,6.12,0,0,0,3.89,1.13,6.37,6.37,0,0,0,3.95-1.13,3.72,3.72,0,0,0,1.48-3.11A3.83,3.83,0,0,0,376.14,35a6.25,6.25,0,0,0-3.95-1.16A6,6,0,0,0,368.32,35Z"/><path class="cls-8" d="M422.05,55.86h-5.63v7.25h-7.79V55.86H390V50.49l16.28-21.9h8.38L399.61,49.35h9.27V42.89h7.54v6.46h5.63Z"/><path class="cls-8" d="M450.1,56.6v6.51H424V57.93l13.31-12.57a14,14,0,0,0,2.86-3.48,6.23,6.23,0,0,0,.74-2.88,3.83,3.83,0,0,0-1.4-3.18,6.55,6.55,0,0,0-4.12-1.11,9.51,9.51,0,0,0-4.09.86,7.85,7.85,0,0,0-3.06,2.59l-5.82-3.75A13.79,13.79,0,0,1,428,29.7a18.69,18.69,0,0,1,8.14-1.7,16.7,16.7,0,0,1,6.73,1.26,10.41,10.41,0,0,1,4.49,3.55,9.18,9.18,0,0,1,1.6,5.4,12.07,12.07,0,0,1-1.18,5.28,20.46,20.46,0,0,1-4.59,5.62l-7.94,7.49Z"/><rect class="cls-8" x="46.67" y="44.53" width="160.95" height="160.95" transform="translate(125.63 -53.29) rotate(45)"/><g class="cls-9"><path class="cls-10" d="M127.14,227.23,24.91,125,127.14,22.77,229.37,125ZM28.07,125l99.07,99.07L226.22,125,127.14,25.93Zm99.07,89.25L93,180.13l26.1-26.1-25.3-25.29L75.87,146.69l11.86,11.85,4.91-4.91-6.94-6.94,8.12-8.13L109.29,154,88.11,175.21,58.28,145.38,78.66,125,58.28,104.62,88.11,74.79,109.29,96,93.82,111.44l-8.12-8.13,6.94-6.94-4.91-4.92L75.87,103.31l17.95,18L119.12,96,93,69.87l34.12-34.12,34.12,34.12L135.17,96l25.3,25.29,17.95-18L166.56,91.45l-4.91,4.92,6.94,6.94-8.12,8.13L145,96l21.18-21.18L196,104.62,175.62,125,196,145.38l-29.83,29.83L145,154l15.47-15.47,8.12,8.13-6.94,6.94,4.91,4.92,11.86-11.86-17.95-17.95L135.17,154l26.09,26.1Zm-31-34.12,31,31,31-31L132,154l28.46-28.45,21.11,21.11-15,15-8.07-8.07,6.94-6.94-5-5L148.16,154l18,18,26.67-26.67L172.46,125l20.39-20.38L166.18,78l-18,18,12.31,12.31,5-5-6.94-6.94,8.07-8.07,15,15-21.11,21.11L132,96l26.09-26.1-31-31-31,31L122.28,96,93.82,124.42,72.71,103.31l15-15,8.07,8.07-7,6.94,5,5L106.13,96l-18-18L61.44,104.62,81.82,125,61.44,145.38l26.67,26.67,18-18L93.82,141.72l-5,5,7,6.94-8.07,8.07-15-15,21.11-21.11L122.28,154Zm104.74-39.66L185.45,125l15.47-15.47L216.39,125ZM188.61,125l12.31,12.31L213.23,125l-12.31-12.31ZM53.37,140.47,37.9,125l15.47-15.47L68.84,125ZM41.06,125l12.31,12.31L65.68,125,53.37,112.69Z"/><path class="cls-10" d="M127.14,203.71l-23.93-23.94,23.93-23.94,23.94,23.94Zm-20.78-23.94,20.78,20.78,20.78-20.78L127.14,159Z"/><path class="cls-10" d="M127.14,93.51,103.21,69.57l23.93-23.94,23.94,23.94ZM106.36,69.57l20.78,20.78,20.78-20.78L127.14,48.79Z"/></g><polygon class="cls-11" points="13.91 125 127.26 238.34 527.32 238.34 640.66 125 527.32 11.66 127.26 11.66 13.91 125"/><path class="cls-10" d="M126,76.77c3.51,1.78,7,3.57,10.54,5.33q11.34,5.69,22.68,11.32a2.49,2.49,0,0,1,1.6,2.54c-.06,4.93,0,9.86,0,14.79v.93a5.1,5.1,0,0,1,3.18,3.49,4.77,4.77,0,0,1-.77,4.15c-.24.35-.18.57,0,1a9.86,9.86,0,0,1,.92,3c.15,2.09.06,4.19,0,6.3,0,1.36-.64,2-2,2-2,0-4,0-6.05,0a1.77,1.77,0,0,1-2-2c0-2.07,0-4.14,0-6.21a5.48,5.48,0,0,1,.94-3.09.94.94,0,0,0,0-.85,5,5,0,0,1,1.94-7.5c.2-.11.45-.37.45-.57,0-4.39,0-8.79,0-13.28-.3.13-.53.21-.75.32-3.45,1.72-6.9,3.46-10.36,5.17a1,1,0,0,0-.67,1.07c.05,1.49,0,3,0,4.46s-.25,1.86-1.68,2.41v2.38c0,3,0,6,0,9a8.44,8.44,0,0,0,8.14,8.75,1.8,1.8,0,0,1,1.93,2.18,11.66,11.66,0,0,1-4.23,8.55L149,143c.56.5,1.11,1,1.64,1.46a29.25,29.25,0,0,1,7.91,13.25c.27.88.56,1.76.86,2.63.52,1.54-.19,2.53-1.84,2.54H93a1.62,1.62,0,0,1-1.61-2.07c1.57-5.15,3.27-10.25,7-14.37,1.09-1.2,2.16-2.42,3.15-3.53-.89-1.11-2.08-2.36-3-3.78a10.06,10.06,0,0,1-1.57-5.33c-.06-1.43.53-2.08,1.94-2.17a8.19,8.19,0,0,0,7.22-4.72,7.79,7.79,0,0,0,.86-3.12c.09-4.08,0-8.17,0-12.32-1.44-.26-1.73-1.27-1.68-2.55s0-2.86,0-4.29a1,1,0,0,0-.68-1.07q-6.51-3.21-13-6.48a4.11,4.11,0,0,1-1-.63,1.59,1.59,0,0,1,.22-2.49,6.11,6.11,0,0,1,.87-.49l33-16.47c.09,0,.17-.13.26-.19Zm-17.31,30.91c.3,0,.5,0,.69,0,5.46-.42,10.68.19,15.29,3.48a1.43,1.43,0,0,0,1.73,0c.51-.34,1-.72,1.54-1A23.54,23.54,0,0,1,141,107.62l1.25.08V97.62a24,24,0,0,0-2.62-.81c-2.38-.45-4.79-.84-7.19-1.21-1.27-.19-2-.87-1.92-1.88s.91-1.59,2.23-1.47c1,.08,1.9.19,2.84.33A31.1,31.1,0,0,1,144.44,95a1.92,1.92,0,0,1,1.18,2c0,1,0,2,0,3.19l9.62-4.82c-.23-.14-.31-.21-.41-.26q-14.45-7.22-28.9-14.42a1.39,1.39,0,0,0-1.06,0q-14.31,7.13-28.6,14.29c-.18.09-.34.22-.6.38l9.6,4.79c0-1.15,0-2.13,0-3.11a2,2,0,0,1,1.27-2.06,35.73,35.73,0,0,1,12.14-2.69,1.58,1.58,0,0,1,1.72,1.49A1.65,1.65,0,0,1,119,95.48c-.71.15-1.45.15-2.16.3-2.54.53-5.07,1.08-7.6,1.67-.24.06-.61.39-.61.6C108.62,101.23,108.64,104.42,108.64,107.68Zm1.59,3.24c.09,3.74-.1,7.38.32,11,1,8.61,9.94,14.55,18.34,12.44a15.12,15.12,0,0,0,11.68-14.85c0-2.6,0-5.21,0-7.81,0-.22,0-.43,0-.73-4.28-.08-8.38.25-12,2.78a4.81,4.81,0,0,1-6.14,0C118.77,111.18,114.66,110.85,110.23,110.92Zm-.48,31.1,15.69,16.7L141.15,142l-5.76-1.8c-1.4,4.86-4.41,7.84-9.37,8.08-5.56.27-8.94-2.81-10.57-8.09Zm39.8,6.12-10.09,11.3h16.1A26.43,26.43,0,0,0,149.55,148.14Zm-48.2,0c-2.56,2.52-5.7,8.52-5.93,11.27h16Zm14-11.49a2.1,2.1,0,0,0-1-2.39,22.8,22.8,0,0,1-3.25-3.12,32.12,32.12,0,0,1-2-2.76,12.09,12.09,0,0,1-8.74,6.45,8.34,8.34,0,0,0,4.12,5.73,1.13,1.13,0,0,0,.9,0c1-.46,1.91-1.07,2.92-1.45C110.6,138.28,112.92,137.51,115.32,136.67Zm20.31.24a32.89,32.89,0,0,1,10,3.77.66.66,0,0,0,.53,0,8.39,8.39,0,0,0,4.34-5.88,12.14,12.14,0,0,1-8.8-6.5,17.14,17.14,0,0,1-5.17,6A2.15,2.15,0,0,0,135.63,136.91Zm-16.88-.07c-.2,3.15.63,5.69,3.39,7.26a6.33,6.33,0,0,0,7.19-.36c2.35-1.65,3-4.05,2.79-6.9A18.84,18.84,0,0,1,118.75,136.84Zm2.79,22.64-14.85-15.79-2.92,2.06a3.82,3.82,0,0,0,.25.34q5.82,6.53,11.65,13a1,1,0,0,0,.69.34C118,159.49,119.66,159.48,121.54,159.48Zm22.65-15.79-14.84,15.79c1.8,0,3.37,0,4.93,0a1.61,1.61,0,0,0,1.05-.48c2.29-2.5,4.54-5,6.79-7.56l5-5.64Zm16.54-15.49c0-1.74,0-3.41,0-5.08a1.66,1.66,0,0,0-3.31,0c-.06,1,0,2.07,0,3.1v2Zm0-11.76a1.67,1.67,0,1,0-1.66,1.67A1.72,1.72,0,0,0,160.73,116.44Z"/><path class="cls-10" d="M127.11,93.57a1.67,1.67,0,1,1-1.68-1.65A1.72,1.72,0,0,1,127.11,93.57Z"/><path class="cls-10" d="M129,124.4c-.72-.09-1.27.4-1.41,1.26-.2,1.28-.88,2-2,2s-1.78-.64-2-2c-.16-.87-.71-1.36-1.42-1.26a1.32,1.32,0,0,0-1.12,1.55,4.55,4.55,0,0,0,9.09,0A1.36,1.36,0,0,0,129,124.4Z"/><path class="cls-10" d="M134.41,119.41a14,14,0,0,0,0-1.45,1.22,1.22,0,0,0-1.3-1.2,1.19,1.19,0,0,0-1.23,1.25c0,.94,0,1.89,0,2.83a1.21,1.21,0,0,0,1.2,1.28,1.26,1.26,0,0,0,1.34-1.26c0-.48,0-1,0-1.45Z"/><path class="cls-10" d="M118,116.77a1.13,1.13,0,0,0-1.11,1.1c0,.51,0,1,0,1.54h0c0,.51,0,1,0,1.54a1.15,1.15,0,0,0,1.14,1.16,1.1,1.1,0,0,0,1.32-.94,11,11,0,0,0,0-3.48A1.12,1.12,0,0,0,118,116.77Z"/></svg>