<svg id="Layer_1" data-name="Layer 1" xmlns="http://www.w3.org/2000/svg" xmlns:xlink="http://www.w3.org/1999/xlink" viewBox="0 0 654 250"><defs><style>.cls-1,.cls-5,.cls-6{fill:none;}.cls-2{clip-path:url(#clip-path);}.cls-3{opacity:0.3;}.cls-4{opacity:0.4;}.cls-5{stroke:#2681d6;stroke-width:1.62px;}.cls-5,.cls-6{stroke-miterlimit:10;}.cls-6{stroke:#de1b81;stroke-width:2.6px;}.cls-7{fill:#de1b81;}.cls-8{opacity:0.15;}.cls-9{fill:#fff;}</style><clipPath id="clip-path"><rect class="cls-1" x="-1940" y="-94.99" width="1920" height="5958.68"/></clipPath></defs><g class="cls-2"><g class="cls-3"><g class="cls-4"><path class="cls-5" d="M-21.64,484.05l88.27-88.28h0L405.21,57.19,66.63-281.39h0l-88.27-88.28L-448.5,57.19ZM-334.52-1.71l58.9,58.9-58.9,58.91-58.91-58.91ZM291.24,116.1,232.33,57.19,291.24-1.72l58.9,58.91ZM39.1,368.24h0L-21.64,429l-138-138L-49,180.32l-114-114-82.82,82.82,57,57,27.53-27.53-29.45-29.46L-163,121.41l58.91,58.91-83.12,83.12L-307,143.63l86.45-86.44L-307-29.25l119.81-119.81,83.12,83.13L-163-7l-27.75-27.76,29.45-29.46L-188.8-91.77l-57,57L-163,48.05l114-114L-159.65-176.59l77.27-77.26h0l60.75-60.75L39.1-253.85h0l77.26,77.26L5.7-65.93l114,114,82.83-82.83-57-57L118-64.23l29.46,29.45L119.68-7,60.77-65.93,143.9-149,263.7-29.25,177.26,57.19l86.44,86.45L143.9,263.44,60.77,180.32l58.91-58.91,27.76,27.75L118,178.62l27.54,27.53,57-57L119.68,66.34l-114,114L116.36,291Z"/><rect class="cls-5" x="-88.69" y="222.41" width="134.09" height="134.09" transform="translate(167.73 509.44) rotate(135)"/></g></g></g><polygon class="cls-6" points="13.91 125 127.26 238.34 527.32 238.34 640.66 125 527.32 11.66 127.26 11.66 13.91 125"/><path class="cls-7" d="M384.32,99.78l-4.16,12.71H377l-2.8-8.61-2.89,8.61h-3.14L364,99.78h3.06l2.87,8.94,3-8.94h2.73l2.91,9,3-9Z"/><path class="cls-7" d="M388.4,111.86a6.34,6.34,0,0,1-2.49-2.35,6.76,6.76,0,0,1,0-6.74,6.36,6.36,0,0,1,2.49-2.36,7.9,7.9,0,0,1,7.13,0,6.43,6.43,0,0,1,2.49,2.36,6.7,6.7,0,0,1,0,6.74,6.4,6.4,0,0,1-2.49,2.35,7.9,7.9,0,0,1-7.13,0Zm5.61-2.17a3.73,3.73,0,0,0,1.42-1.45,4.52,4.52,0,0,0,0-4.21,3.73,3.73,0,0,0-1.42-1.45,4.12,4.12,0,0,0-2-.51,4.05,4.05,0,0,0-2,.51,3.76,3.76,0,0,0-1.43,1.45,4.52,4.52,0,0,0,0,4.21,3.76,3.76,0,0,0,1.43,1.45,4.06,4.06,0,0,0,2,.52A4.13,4.13,0,0,0,394,109.69Z"/><path class="cls-7" d="M412.72,112.49l0-7.63L409,111.15h-1.33L403.91,105v7.46h-2.76V99.78h2.43l4.76,7.9,4.69-7.9h2.41l0,12.71Z"/><path class="cls-7" d="M428.34,110.13v2.36h-9.85V99.78h9.62v2.36h-6.69v2.76h5.9v2.29h-5.9v2.94Z"/><path class="cls-7" d="M442.35,99.78v12.71h-2.42l-6.34-7.72v7.72h-2.9V99.78h2.43l6.32,7.72V99.78Z"/><path class="cls-7" d="M380.11,64a9.64,9.64,0,0,1,3.47,7.8A10.84,10.84,0,0,1,382,77.5a11,11,0,0,1-4.81,4.14,18.26,18.26,0,0,1-8,1.56,26.77,26.77,0,0,1-7.17-1,18.49,18.49,0,0,1-6-2.73l3.15-6.12a15.28,15.28,0,0,0,4.54,2.3,17.43,17.43,0,0,0,5.28.81,8.26,8.26,0,0,0,4.73-1.18A3.79,3.79,0,0,0,375.5,72a3.71,3.71,0,0,0-1.8-3.35q-1.8-1.14-6.24-1.14h-8.83l1.78-19.42h21V54.5h-14.4l-.54,6.56h2.81Q376.64,61.06,380.11,64Z"/><path class="cls-7" d="M394,81.08a14.19,14.19,0,0,1-5.25-6.14,22.23,22.23,0,0,1-1.9-9.59,22.25,22.25,0,0,1,1.9-9.6A14.25,14.25,0,0,1,394,49.61a14.84,14.84,0,0,1,15.29,0,14.38,14.38,0,0,1,5.25,6.14,22.4,22.4,0,0,1,1.89,9.6,22.38,22.38,0,0,1-1.89,9.59,14.33,14.33,0,0,1-5.25,6.14,14.84,14.84,0,0,1-15.29,0Zm12.6-7.35q1.8-2.72,1.8-8.38T406.59,57a5.64,5.64,0,0,0-5-2.71,5.58,5.58,0,0,0-4.9,2.71c-1.21,1.81-1.8,4.61-1.8,8.39s.59,6.57,1.8,8.38a5.58,5.58,0,0,0,4.9,2.71A5.64,5.64,0,0,0,406.59,73.73Z"/><path class="cls-7" d="M427.47,81.08a14.19,14.19,0,0,1-5.25-6.14,22.23,22.23,0,0,1-1.9-9.59,22.25,22.25,0,0,1,1.9-9.6,14.25,14.25,0,0,1,5.25-6.14,14.84,14.84,0,0,1,15.29,0A14.38,14.38,0,0,1,448,55.75a22.39,22.39,0,0,1,1.9,9.6,22.38,22.38,0,0,1-1.9,9.59,14.33,14.33,0,0,1-5.25,6.14,14.84,14.84,0,0,1-15.29,0Zm12.6-7.35q1.8-2.72,1.8-8.38T440.07,57a5.84,5.84,0,0,0-9.86,0q-1.8,2.72-1.8,8.39t1.8,8.38a5.84,5.84,0,0,0,9.86,0Z"/><path d="M334.29,150.23a2.2,2.2,0,0,0,1.43-.49,1.75,1.75,0,0,0,.68-1.24h1.44a2.83,2.83,0,0,1-.53,1.46,3.42,3.42,0,0,1-1.3,1.1,3.92,3.92,0,0,1-4.61-.8,4.82,4.82,0,0,1-1.08-3.32v-.26a5.3,5.3,0,0,1,.48-2.31,3.71,3.71,0,0,1,1.37-1.58,3.94,3.94,0,0,1,2.12-.56,3.56,3.56,0,0,1,2.49.9,3.25,3.25,0,0,1,1.06,2.33H336.4a2.15,2.15,0,0,0-.66-1.42,2,2,0,0,0-1.45-.55,2.11,2.11,0,0,0-1.8.83,3.92,3.92,0,0,0-.64,2.42V147a3.86,3.86,0,0,0,.63,2.37A2.14,2.14,0,0,0,334.29,150.23Z"/><path d="M339.15,146.77a5.27,5.27,0,0,1,.51-2.35,3.83,3.83,0,0,1,1.43-1.62,3.94,3.94,0,0,1,2.1-.57,3.78,3.78,0,0,1,2.95,1.26,4.9,4.9,0,0,1,1.12,3.36v.1a5.36,5.36,0,0,1-.5,2.34,3.78,3.78,0,0,1-1.42,1.61,4,4,0,0,1-2.13.58,3.75,3.75,0,0,1-2.94-1.26,4.84,4.84,0,0,1-1.12-3.34Zm1.53.18a3.78,3.78,0,0,0,.69,2.38,2.32,2.32,0,0,0,3.68,0,4.12,4.12,0,0,0,.69-2.55,3.81,3.81,0,0,0-.7-2.37,2.32,2.32,0,0,0-3.67,0A4.16,4.16,0,0,0,340.68,147Z"/><path d="M350.6,142.4l0,1a3.28,3.28,0,0,1,2.64-1.16,2.54,2.54,0,0,1,2.54,1.44,3.42,3.42,0,0,1,1.16-1,3.49,3.49,0,0,1,1.69-.4q2.93,0,3,3.11v6h-1.53v-5.88a2.06,2.06,0,0,0-.43-1.43,2,2,0,0,0-1.47-.47,2,2,0,0,0-2.06,1.87v5.91h-1.53v-5.84a1.7,1.7,0,0,0-1.9-1.94,2,2,0,0,0-2.05,1.27v6.51h-1.53V142.4Z"/><path d="M371.49,147a5.28,5.28,0,0,1-.94,3.28,3,3,0,0,1-2.52,1.25,3.28,3.28,0,0,1-2.55-1v4.29H364V142.4h1.39l.07,1a3.15,3.15,0,0,1,2.59-1.16,3.05,3.05,0,0,1,2.54,1.21,5.44,5.44,0,0,1,.94,3.37Zm-1.53-.17a3.93,3.93,0,0,0-.64-2.38,2.08,2.08,0,0,0-1.76-.87,2.25,2.25,0,0,0-2.08,1.22V149a2.23,2.23,0,0,0,2.09,1.22,2.08,2.08,0,0,0,1.75-.87A4.31,4.31,0,0,0,370,146.78Z"/><path d="M375.08,151.31h-1.53V138.66h1.53Z"/><path d="M381.21,151.48a3.91,3.91,0,0,1-2.95-1.19,4.47,4.47,0,0,1-1.13-3.19v-.28a5.49,5.49,0,0,1,.5-2.37,4,4,0,0,1,1.42-1.63,3.6,3.6,0,0,1,2-.59,3.38,3.38,0,0,1,2.71,1.15,5,5,0,0,1,1,3.28v.63h-6a3.16,3.16,0,0,0,.77,2.13,2.42,2.42,0,0,0,1.87.81,2.65,2.65,0,0,0,1.37-.33,3.38,3.38,0,0,0,1-.87l.93.72A3.73,3.73,0,0,1,381.21,151.48Zm-.19-8a2,2,0,0,0-1.55.67,3.28,3.28,0,0,0-.77,1.88h4.46v-.12a2.92,2.92,0,0,0-.62-1.8A1.93,1.93,0,0,0,381,143.49Z"/><path d="M388.52,140.24v2.16h1.66v1.18h-1.66v5.53a1.19,1.19,0,0,0,.22.8.94.94,0,0,0,.76.27,3.29,3.29,0,0,0,.72-.1v1.23a4.41,4.41,0,0,1-1.17.17,1.91,1.91,0,0,1-1.54-.62,2.7,2.7,0,0,1-.51-1.76v-5.52h-1.63V142.4H387v-2.16Z"/><path d="M395.66,151.48a3.91,3.91,0,0,1-3-1.19,4.43,4.43,0,0,1-1.13-3.19v-.28a5.35,5.35,0,0,1,.5-2.37,4,4,0,0,1,1.42-1.63,3.58,3.58,0,0,1,2-.59,3.34,3.34,0,0,1,2.7,1.15,4.92,4.92,0,0,1,1,3.28v.63h-6a3.16,3.16,0,0,0,.77,2.13,2.42,2.42,0,0,0,1.87.81,2.65,2.65,0,0,0,1.37-.33,3.51,3.51,0,0,0,1-.87l.93.72A3.73,3.73,0,0,1,395.66,151.48Zm-.19-8a2,2,0,0,0-1.55.67,3.28,3.28,0,0,0-.77,1.88h4.46v-.12a2.92,2.92,0,0,0-.62-1.8A1.94,1.94,0,0,0,395.47,143.49Z"/><path d="M400.53,146.78a5.2,5.2,0,0,1,1-3.3,3.31,3.31,0,0,1,5-.18v-4.64h1.52v12.65h-1.4l-.07-.95a3.13,3.13,0,0,1-2.55,1.12,3.05,3.05,0,0,1-2.52-1.27,5.23,5.23,0,0,1-1-3.31Zm1.52.17a4,4,0,0,0,.63,2.38,2,2,0,0,0,1.73.85,2.22,2.22,0,0,0,2.12-1.3v-4.09a2.25,2.25,0,0,0-2.1-1.26,2.05,2.05,0,0,0-1.75.86A4.34,4.34,0,0,0,402.05,147Z"/><path d="M420.09,151.31a3,3,0,0,1-.21-.94,3.39,3.39,0,0,1-2.54,1.11,3.12,3.12,0,0,1-2.16-.75,2.43,2.43,0,0,1-.85-1.89,2.52,2.52,0,0,1,1.06-2.16,5,5,0,0,1,3-.77h1.48v-.7a1.73,1.73,0,0,0-.47-1.28,2,2,0,0,0-1.41-.47,2.25,2.25,0,0,0-1.37.41,1.22,1.22,0,0,0-.55,1h-1.53a2.1,2.1,0,0,1,.47-1.29,3.23,3.23,0,0,1,1.29-1,4.17,4.17,0,0,1,1.78-.37,3.54,3.54,0,0,1,2.41.77,2.8,2.8,0,0,1,.91,2.13v4.1a5,5,0,0,0,.31,2v.13Zm-2.53-1.16a2.65,2.65,0,0,0,1.36-.37,2.25,2.25,0,0,0,.93-1V147h-1.19c-1.87,0-2.8.54-2.8,1.64a1.4,1.4,0,0,0,.48,1.12A1.81,1.81,0,0,0,417.56,150.15Z"/><path d="M431.52,150.23a2.17,2.17,0,0,0,1.42-.49,1.75,1.75,0,0,0,.68-1.24h1.44a2.74,2.74,0,0,1-.53,1.46,3.39,3.39,0,0,1-1.29,1.1,3.73,3.73,0,0,1-1.72.42,3.68,3.68,0,0,1-2.9-1.22,4.87,4.87,0,0,1-1.07-3.32v-.26a5.3,5.3,0,0,1,.48-2.31,3.58,3.58,0,0,1,1.37-1.58,3.91,3.91,0,0,1,2.11-.56,3.56,3.56,0,0,1,2.49.9,3.21,3.21,0,0,1,1.06,2.33h-1.44A2.11,2.11,0,0,0,433,144a2,2,0,0,0-1.45-.55,2.13,2.13,0,0,0-1.8.83,3.92,3.92,0,0,0-.64,2.42V147a3.8,3.8,0,0,0,.64,2.37A2.11,2.11,0,0,0,431.52,150.23Z"/><path d="M436.37,146.77a5.27,5.27,0,0,1,.51-2.35,3.8,3.8,0,0,1,3.53-2.19,3.76,3.76,0,0,1,2.95,1.26,4.86,4.86,0,0,1,1.12,3.36v.1a5.36,5.36,0,0,1-.49,2.34,3.8,3.8,0,0,1-1.43,1.61,4,4,0,0,1-2.13.58,3.75,3.75,0,0,1-2.94-1.26,4.84,4.84,0,0,1-1.12-3.34Zm1.53.18a3.78,3.78,0,0,0,.69,2.38,2.33,2.33,0,0,0,3.69,0,4.18,4.18,0,0,0,.68-2.55,3.75,3.75,0,0,0-.7-2.37,2.32,2.32,0,0,0-3.67,0A4.16,4.16,0,0,0,437.9,147Z"/><path d="M451.9,150.43a3.25,3.25,0,0,1-2.61,1,2.77,2.77,0,0,1-2.17-.83,3.59,3.59,0,0,1-.76-2.45v-5.8h1.53v5.76c0,1.35.54,2,1.64,2a2.29,2.29,0,0,0,2.33-1.3V142.4h1.52v8.91h-1.45Z"/><path d="M460,143.77a4.38,4.38,0,0,0-.75-.06,2,2,0,0,0-2,1.28v6.32h-1.53V142.4h1.49l0,1a2.38,2.38,0,0,1,2.13-1.2,1.49,1.49,0,0,1,.67.12Z"/><path d="M466.59,149a1.12,1.12,0,0,0-.46-1,4.34,4.34,0,0,0-1.63-.59,7.87,7.87,0,0,1-1.83-.59,2.68,2.68,0,0,1-1-.83,2,2,0,0,1-.32-1.14,2.33,2.33,0,0,1,.92-1.85,4.15,4.15,0,0,1,4.83,0,2.48,2.48,0,0,1,.94,2H466.5a1.38,1.38,0,0,0-.53-1.08,2,2,0,0,0-1.34-.45,2.09,2.09,0,0,0-1.3.36,1.15,1.15,0,0,0-.47,1,.94.94,0,0,0,.44.83,5.53,5.53,0,0,0,1.57.53,8.5,8.5,0,0,1,1.85.61,2.57,2.57,0,0,1,1,.86,2.06,2.06,0,0,1,.35,1.21,2.29,2.29,0,0,1-1,1.92,4,4,0,0,1-2.48.72,4.49,4.49,0,0,1-1.89-.38A3.16,3.16,0,0,1,461.5,150a2.54,2.54,0,0,1-.47-1.47h1.53a1.55,1.55,0,0,0,.61,1.21,2.36,2.36,0,0,0,1.51.45,2.41,2.41,0,0,0,1.39-.35A1.06,1.06,0,0,0,466.59,149Z"/><path d="M473.8,151.48a3.91,3.91,0,0,1-2.95-1.19,4.43,4.43,0,0,1-1.14-3.19v-.28a5.35,5.35,0,0,1,.51-2.37,4,4,0,0,1,1.42-1.63,3.56,3.56,0,0,1,2-.59,3.34,3.34,0,0,1,2.7,1.15,5,5,0,0,1,1,3.28v.63h-6a3.16,3.16,0,0,0,.77,2.13,2.41,2.41,0,0,0,1.87.81,2.67,2.67,0,0,0,1.37-.33,3.51,3.51,0,0,0,1-.87l.93.72A3.75,3.75,0,0,1,473.8,151.48Zm-.19-8a2,2,0,0,0-1.55.67,3.21,3.21,0,0,0-.77,1.88h4.46v-.12a2.86,2.86,0,0,0-.63-1.8A1.9,1.9,0,0,0,473.61,143.49Z"/><path d="M317.23,160.28a.91.91,0,0,1,.22-.63.85.85,0,0,1,.67-.25.86.86,0,0,1,.68.25.92.92,0,0,1,.23.63.81.81,0,0,1-.91.86.8.8,0,0,1-.89-.86Zm1.64,11.27h-1.52v-8.91h1.52Z"/><path d="M322.75,162.64l.05,1.12a3.26,3.26,0,0,1,2.67-1.28q2.83,0,2.85,3.19v5.88H326.8v-5.89a2.07,2.07,0,0,0-.44-1.43,1.77,1.77,0,0,0-1.35-.46,2.16,2.16,0,0,0-1.3.4,2.64,2.64,0,0,0-.87,1v6.35h-1.53v-8.91Z"/><path d="M336.62,166.86v4.69H335v-12h4.43a4.43,4.43,0,0,1,3.08,1,3.79,3.79,0,0,1,0,5.35,4.64,4.64,0,0,1-3.13.94Zm0-1.29h2.84a2.83,2.83,0,0,0,1.94-.6,2.2,2.2,0,0,0,.68-1.73,2.27,2.27,0,0,0-.68-1.72,2.68,2.68,0,0,0-1.85-.67h-2.93Z"/><path d="M348.48,169.32l2.07-6.68h1.64l-3.59,10.29q-.83,2.22-2.64,2.22l-.29,0-.57-.11v-1.23l.41,0a2,2,0,0,0,1.21-.31,2.27,2.27,0,0,0,.71-1.15l.34-.9-3.18-8.82h1.66Z"/><path d="M355.61,160.48v2.16h1.67v1.18h-1.67v5.53a1.3,1.3,0,0,0,.22.81,1,1,0,0,0,.76.27,4.25,4.25,0,0,0,.73-.1v1.23a4.39,4.39,0,0,1-1.17.16,1.9,1.9,0,0,1-1.54-.62,2.61,2.61,0,0,1-.52-1.75v-5.53h-1.62v-1.18h1.62v-2.16Z"/><path d="M360.58,163.72a3.22,3.22,0,0,1,2.63-1.24q2.84,0,2.86,3.19v5.88h-1.53v-5.89a2,2,0,0,0-.44-1.43,1.77,1.77,0,0,0-1.35-.46,2.18,2.18,0,0,0-1.3.4,2.73,2.73,0,0,0-.87,1v6.35h-1.52V158.9h1.52Z"/><path d="M367.94,167a5.18,5.18,0,0,1,.52-2.36,3.75,3.75,0,0,1,1.43-1.61,3.89,3.89,0,0,1,2.1-.57,3.75,3.75,0,0,1,2.94,1.26,4.85,4.85,0,0,1,1.13,3.35v.11a5.31,5.31,0,0,1-.5,2.33,3.74,3.74,0,0,1-1.43,1.61,3.86,3.86,0,0,1-2.13.58,3.75,3.75,0,0,1-2.93-1.26,4.82,4.82,0,0,1-1.13-3.34Zm1.53.18a3.8,3.8,0,0,0,.69,2.38,2.33,2.33,0,0,0,3.69,0,4.22,4.22,0,0,0,.68-2.55,3.84,3.84,0,0,0-.69-2.38,2.21,2.21,0,0,0-1.85-.91,2.19,2.19,0,0,0-1.82.9A4.14,4.14,0,0,0,369.47,167.2Z"/><path d="M379.41,162.64l0,1.12a3.26,3.26,0,0,1,2.67-1.28q2.82,0,2.85,3.19v5.88h-1.53v-5.89a2,2,0,0,0-.44-1.43,1.74,1.74,0,0,0-1.34-.46,2.19,2.19,0,0,0-1.31.4,2.73,2.73,0,0,0-.87,1v6.35H378v-8.91Z"/><path d="M399,167.2a5.36,5.36,0,0,1-.93,3.28,3,3,0,0,1-2.52,1.24,3.25,3.25,0,0,1-2.55-1V175h-1.53V162.64h1.39l.08,1a3.12,3.12,0,0,1,2.58-1.15,3,3,0,0,1,2.55,1.21,5.42,5.42,0,0,1,.93,3.37Zm-1.52-.18a4,4,0,0,0-.65-2.38,2.05,2.05,0,0,0-1.76-.87A2.23,2.23,0,0,0,393,165v4.26a2.24,2.24,0,0,0,2.09,1.22,2.05,2.05,0,0,0,1.74-.87A4.32,4.32,0,0,0,397.46,167Z"/><path d="M405.22,164a4.35,4.35,0,0,0-.74-.06,2,2,0,0,0-2,1.28v6.32h-1.52v-8.91h1.48l0,1a2.39,2.39,0,0,1,2.13-1.19,1.63,1.63,0,0,1,.67.11Z"/><path d="M406.06,167a5.31,5.31,0,0,1,.51-2.36,3.75,3.75,0,0,1,1.43-1.61,3.94,3.94,0,0,1,2.1-.57,3.78,3.78,0,0,1,2.95,1.26,4.89,4.89,0,0,1,1.12,3.35v.11a5.31,5.31,0,0,1-.5,2.33,3.78,3.78,0,0,1-1.42,1.61,3.91,3.91,0,0,1-2.13.58,3.75,3.75,0,0,1-2.94-1.26,4.82,4.82,0,0,1-1.12-3.34Zm1.53.18a3.8,3.8,0,0,0,.69,2.38,2.32,2.32,0,0,0,3.68,0,4.16,4.16,0,0,0,.69-2.55,3.85,3.85,0,0,0-.7-2.38,2.31,2.31,0,0,0-3.67,0A4.14,4.14,0,0,0,407.59,167.2Z"/><path d="M415.72,167a5.25,5.25,0,0,1,1-3.31,3.11,3.11,0,0,1,2.56-1.23,3.06,3.06,0,0,1,2.54,1.15l.08-1h1.39v8.7a3.63,3.63,0,0,1-1,2.73,3.79,3.79,0,0,1-2.75,1,4.5,4.5,0,0,1-1.89-.41,3.16,3.16,0,0,1-1.41-1.13l.79-.91a3,3,0,0,0,2.4,1.21,2.31,2.31,0,0,0,1.73-.63,2.35,2.35,0,0,0,.62-1.76v-.76a3.12,3.12,0,0,1-2.49,1.05,3,3,0,0,1-2.53-1.26A5.49,5.49,0,0,1,415.72,167Zm1.53.18a4,4,0,0,0,.62,2.37,2,2,0,0,0,1.73.86,2.23,2.23,0,0,0,2.11-1.31v-4.07a2.25,2.25,0,0,0-2.1-1.28,2,2,0,0,0-1.73.87A4.31,4.31,0,0,0,417.25,167.2Z"/><path d="M429.85,164a4.38,4.38,0,0,0-.75-.06,2,2,0,0,0-2,1.28v6.32h-1.52v-8.91H427l0,1a2.39,2.39,0,0,1,2.13-1.19,1.66,1.66,0,0,1,.67.11Z"/><path d="M436.43,171.55a3.13,3.13,0,0,1-.22-.93,3.41,3.41,0,0,1-2.53,1.1,3.16,3.16,0,0,1-2.17-.75,2.4,2.4,0,0,1-.84-1.89,2.52,2.52,0,0,1,1.06-2.16,5,5,0,0,1,3-.77h1.49v-.7a1.7,1.7,0,0,0-.48-1.27,1.91,1.91,0,0,0-1.41-.48,2.21,2.21,0,0,0-1.37.42,1.21,1.21,0,0,0-.55,1h-1.53a2.16,2.16,0,0,1,.47-1.29,3.31,3.31,0,0,1,1.29-1,4.32,4.32,0,0,1,1.78-.36,3.52,3.52,0,0,1,2.42.77,2.77,2.77,0,0,1,.9,2.12v4.1a5,5,0,0,0,.32,1.95v.13Zm-2.53-1.16a2.65,2.65,0,0,0,1.36-.37,2.2,2.2,0,0,0,.93-1v-1.83H435c-1.86,0-2.8.55-2.8,1.64a1.38,1.38,0,0,0,.48,1.12A1.84,1.84,0,0,0,433.9,170.39Z"/><path d="M441.53,162.64l.05,1a3.27,3.27,0,0,1,2.64-1.15,2.54,2.54,0,0,1,2.54,1.43,3.3,3.3,0,0,1,2.85-1.43q2.92,0,3,3.1v6h-1.53v-5.88a2.07,2.07,0,0,0-.43-1.43,2,2,0,0,0-1.47-.47,2,2,0,0,0-2.06,1.87v5.91h-1.53v-5.84a1.7,1.7,0,0,0-1.9-1.94,2,2,0,0,0-2.05,1.28v6.5h-1.53v-8.91Z"/><path d="M456.32,162.64l0,1a3.28,3.28,0,0,1,2.64-1.15,2.56,2.56,0,0,1,2.55,1.43,3.3,3.3,0,0,1,2.84-1.43q2.94,0,3,3.1v6h-1.52v-5.88a2.07,2.07,0,0,0-.44-1.43,1.94,1.94,0,0,0-1.46-.47,2,2,0,0,0-2.06,1.87v5.91h-1.53v-5.84a1.7,1.7,0,0,0-1.91-1.94,2,2,0,0,0-2.05,1.28v6.5h-1.52v-8.91Z"/><path d="M469.68,160.28a.92.92,0,0,1,.23-.63.84.84,0,0,1,.67-.25.85.85,0,0,1,.67.25.88.88,0,0,1,.24.63.86.86,0,0,1-.24.62.89.89,0,0,1-.67.24.87.87,0,0,1-.67-.24A.9.9,0,0,1,469.68,160.28Zm1.65,11.27H469.8v-8.91h1.53Z"/><path d="M475.21,162.64l.05,1.12a3.26,3.26,0,0,1,2.67-1.28q2.82,0,2.85,3.19v5.88h-1.53v-5.89a2,2,0,0,0-.44-1.43,1.77,1.77,0,0,0-1.35-.46,2.18,2.18,0,0,0-1.3.4,2.73,2.73,0,0,0-.87,1v6.35h-1.52v-8.91Z"/><path d="M482.71,167a5.19,5.19,0,0,1,1-3.31,3.32,3.32,0,0,1,5.09-.08l.08-1h1.39v8.7a3.63,3.63,0,0,1-1,2.73,3.79,3.79,0,0,1-2.75,1,4.54,4.54,0,0,1-1.89-.41,3.27,3.27,0,0,1-1.41-1.13l.79-.91a3,3,0,0,0,2.4,1.21,2.35,2.35,0,0,0,1.74-.63,2.39,2.39,0,0,0,.62-1.76v-.76a3.14,3.14,0,0,1-2.5,1.05,3,3,0,0,1-2.53-1.26A5.49,5.49,0,0,1,482.71,167Zm1.53.18a4,4,0,0,0,.62,2.37,2,2,0,0,0,1.73.86,2.24,2.24,0,0,0,2.12-1.31v-4.07a2.27,2.27,0,0,0-2.1-1.28,2,2,0,0,0-1.74.87A4.31,4.31,0,0,0,484.24,167.2Z"/><path d="M319.3,191.8a3.31,3.31,0,0,1-.22-.94,3.36,3.36,0,0,1-2.53,1.1,3.21,3.21,0,0,1-2.17-.74,2.43,2.43,0,0,1-.84-1.89,2.5,2.5,0,0,1,1.06-2.16,4.94,4.94,0,0,1,3-.77h1.48v-.71a1.71,1.71,0,0,0-.48-1.27,2,2,0,0,0-1.41-.47,2.22,2.22,0,0,0-1.36.41,1.23,1.23,0,0,0-.56,1h-1.53a2.07,2.07,0,0,1,.48-1.29,3.22,3.22,0,0,1,1.28-1,4.36,4.36,0,0,1,1.78-.36,3.57,3.57,0,0,1,2.42.77,2.77,2.77,0,0,1,.9,2.12v4.1a5,5,0,0,0,.32,2v.13Zm-2.53-1.16a2.75,2.75,0,0,0,1.36-.37,2.22,2.22,0,0,0,.93-1v-1.83h-1.19c-1.87,0-2.81.55-2.81,1.64a1.38,1.38,0,0,0,.48,1.12A1.84,1.84,0,0,0,316.77,190.64Z"/><path d="M328.16,189.43a1.12,1.12,0,0,0-.46-1,4.62,4.62,0,0,0-1.63-.58,7.82,7.82,0,0,1-1.83-.6,2.58,2.58,0,0,1-1-.82,2,2,0,0,1-.32-1.14,2.29,2.29,0,0,1,.92-1.85,3.6,3.6,0,0,1,2.37-.76,3.74,3.74,0,0,1,2.46.78,2.5,2.5,0,0,1,.94,2h-1.53a1.38,1.38,0,0,0-.53-1.08,2,2,0,0,0-1.34-.46,2,2,0,0,0-1.3.37,1.13,1.13,0,0,0-.47.94.92.92,0,0,0,.44.83,5.17,5.17,0,0,0,1.57.54,8,8,0,0,1,1.85.61,2.7,2.7,0,0,1,1,.85,2.09,2.09,0,0,1,.34,1.22,2.27,2.27,0,0,1-.95,1.91,4,4,0,0,1-2.48.72,4.34,4.34,0,0,1-1.89-.38,3.06,3.06,0,0,1-1.29-1.05,2.59,2.59,0,0,1-.47-1.47h1.52a1.59,1.59,0,0,0,.62,1.21,2.36,2.36,0,0,0,1.51.45,2.49,2.49,0,0,0,1.39-.35A1.07,1.07,0,0,0,328.16,189.43Z"/><path d="M343.37,187.44a5.27,5.27,0,0,1-.93,3.28,3,3,0,0,1-2.52,1.24,3.25,3.25,0,0,1-2.55-1v4.3h-1.52V182.89h1.39l.07,1a3.17,3.17,0,0,1,2.59-1.15,3,3,0,0,1,2.54,1.21,5.42,5.42,0,0,1,.93,3.37Zm-1.52-.17a3.91,3.91,0,0,0-.64-2.38,2.09,2.09,0,0,0-1.76-.88,2.24,2.24,0,0,0-2.08,1.23v4.26a2.25,2.25,0,0,0,2.09,1.22,2.05,2.05,0,0,0,1.74-.87A4.23,4.23,0,0,0,341.85,187.27Z"/><path d="M350.81,191.8a3.39,3.39,0,0,1-.21-.94,3.38,3.38,0,0,1-2.54,1.1,3.16,3.16,0,0,1-2.16-.74,2.43,2.43,0,0,1-.84-1.89,2.52,2.52,0,0,1,1.05-2.16,5,5,0,0,1,3-.77h1.49v-.71a1.71,1.71,0,0,0-.48-1.27,2,2,0,0,0-1.41-.47,2.25,2.25,0,0,0-1.37.41,1.22,1.22,0,0,0-.55,1h-1.53a2.11,2.11,0,0,1,.47-1.29,3.25,3.25,0,0,1,1.29-1,4.32,4.32,0,0,1,1.78-.36,3.52,3.52,0,0,1,2.41.77,2.77,2.77,0,0,1,.91,2.12v4.1a5.06,5.06,0,0,0,.31,2v.13Zm-2.53-1.16a2.72,2.72,0,0,0,1.36-.37,2.3,2.3,0,0,0,.94-1v-1.83h-1.2c-1.87,0-2.8.55-2.8,1.64a1.38,1.38,0,0,0,.48,1.12A1.82,1.82,0,0,0,348.28,190.64Z"/><path d="M358.79,184.25a5.74,5.74,0,0,0-.74-.05,2,2,0,0,0-2,1.27v6.33h-1.52v-8.91H356l0,1a2.38,2.38,0,0,1,2.13-1.2,1.46,1.46,0,0,1,.67.12Z"/><path d="M362.67,180.73v2.16h1.67v1.17h-1.67v5.54a1.21,1.21,0,0,0,.23.8.94.94,0,0,0,.76.27,3.44,3.44,0,0,0,.72-.1v1.23a4.39,4.39,0,0,1-1.17.16,1.91,1.91,0,0,1-1.54-.61,2.66,2.66,0,0,1-.52-1.76v-5.53h-1.62v-1.17h1.62v-2.16Z"/><path d="M369.89,187.26a5.21,5.21,0,0,1,.52-2.36,3.79,3.79,0,0,1,3.53-2.18,3.75,3.75,0,0,1,2.94,1.26,4.85,4.85,0,0,1,1.12,3.35v.11a5.36,5.36,0,0,1-.49,2.34,3.86,3.86,0,0,1-1.43,1.61A4,4,0,0,1,374,192,3.73,3.73,0,0,1,371,190.7a4.82,4.82,0,0,1-1.13-3.33Zm1.53.18a3.8,3.8,0,0,0,.69,2.38,2.33,2.33,0,0,0,3.69,0,4.22,4.22,0,0,0,.68-2.55,3.78,3.78,0,0,0-.7-2.38,2.22,2.22,0,0,0-1.84-.91,2.17,2.17,0,0,0-1.82.9A4.09,4.09,0,0,0,371.42,187.44Z"/><path d="M380.66,191.8v-7.74h-1.4v-1.17h1.4V182a3,3,0,0,1,.77-2.21,2.86,2.86,0,0,1,2.17-.79,4.07,4.07,0,0,1,1,.14l-.08,1.23a4.32,4.32,0,0,0-.82-.07,1.49,1.49,0,0,0-1.15.43,1.75,1.75,0,0,0-.4,1.24v.95h1.9v1.17h-1.9v7.74Z"/><path d="M395.45,191.8a3.05,3.05,0,0,1-.21-.94,3.39,3.39,0,0,1-2.54,1.1,3.16,3.16,0,0,1-2.16-.74,2.4,2.4,0,0,1-.85-1.89,2.52,2.52,0,0,1,1.06-2.16,5,5,0,0,1,3-.77h1.48v-.71a1.71,1.71,0,0,0-.48-1.27,1.92,1.92,0,0,0-1.4-.47,2.25,2.25,0,0,0-1.37.41,1.22,1.22,0,0,0-.55,1h-1.54a2.07,2.07,0,0,1,.48-1.29,3.22,3.22,0,0,1,1.28-1,4.37,4.37,0,0,1,1.79-.36,3.54,3.54,0,0,1,2.41.77,2.81,2.81,0,0,1,.91,2.12v4.1a5.06,5.06,0,0,0,.31,2v.13Zm-2.53-1.16a2.75,2.75,0,0,0,1.36-.37,2.22,2.22,0,0,0,.93-1v-1.83H394c-1.87,0-2.8.55-2.8,1.64a1.41,1.41,0,0,0,.47,1.12A1.84,1.84,0,0,0,392.92,190.64Z"/><path d="M402.93,187.27a5.2,5.2,0,0,1,1-3.3,3.31,3.31,0,0,1,5-.18v-4.64h1.52V191.8h-1.4l-.07-1a3.1,3.1,0,0,1-2.55,1.12,3,3,0,0,1-2.52-1.27,5.19,5.19,0,0,1-1-3.31Zm1.52.17a3.93,3.93,0,0,0,.63,2.37,2,2,0,0,0,1.73.86,2.22,2.22,0,0,0,2.12-1.3v-4.1a2.25,2.25,0,0,0-2.1-1.26,2,2,0,0,0-1.75.87A4.34,4.34,0,0,0,404.45,187.44Z"/><path d="M412.82,180.52a.9.9,0,0,1,.23-.62.84.84,0,0,1,.67-.26.88.88,0,0,1,.68.26,1,1,0,0,1,0,1.24.91.91,0,0,1-.68.25.87.87,0,0,1-.67-.25A.9.9,0,0,1,412.82,180.52Zm1.65,11.28H413v-8.91h1.52Z"/><path d="M416.55,187.27a5.26,5.26,0,0,1,1-3.32,3.33,3.33,0,0,1,5.1-.08l.07-1h1.4v8.69a3.63,3.63,0,0,1-1,2.73,3.76,3.76,0,0,1-2.76,1,4.62,4.62,0,0,1-1.88-.41,3.22,3.22,0,0,1-1.41-1.13l.79-.92a3,3,0,0,0,2.4,1.21,2.35,2.35,0,0,0,1.73-.62,2.38,2.38,0,0,0,.62-1.76v-.77a3.13,3.13,0,0,1-2.49,1.05,3.06,3.06,0,0,1-2.54-1.26A5.52,5.52,0,0,1,416.55,187.27Zm1.53.17a3.93,3.93,0,0,0,.62,2.37,2,2,0,0,0,1.73.86,2.23,2.23,0,0,0,2.11-1.31v-4.07a2.25,2.25,0,0,0-2.1-1.28,2,2,0,0,0-1.74.87A4.41,4.41,0,0,0,418.08,187.44Z"/><path d="M426.38,180.52a.9.9,0,0,1,.23-.62,1,1,0,0,1,1.34,0,.92.92,0,0,1,0,1.24,1,1,0,0,1-1.34,0A.9.9,0,0,1,426.38,180.52ZM428,191.8H426.5v-8.91H428Z"/><path d="M432.53,180.73v2.16h1.67v1.17h-1.67v5.54a1.21,1.21,0,0,0,.23.8.93.93,0,0,0,.75.27,3.44,3.44,0,0,0,.73-.1v1.23a4.39,4.39,0,0,1-1.17.16,1.89,1.89,0,0,1-1.54-.61,2.66,2.66,0,0,1-.52-1.76v-5.53h-1.62v-1.17H431v-2.16Z"/><path d="M441.48,191.8a3.05,3.05,0,0,1-.21-.94,3.39,3.39,0,0,1-2.54,1.1,3.16,3.16,0,0,1-2.16-.74,2.4,2.4,0,0,1-.85-1.89,2.52,2.52,0,0,1,1.06-2.16,5,5,0,0,1,3-.77h1.48v-.71a1.71,1.71,0,0,0-.48-1.27,1.93,1.93,0,0,0-1.41-.47,2.24,2.24,0,0,0-1.36.41,1.22,1.22,0,0,0-.55,1H435.9a2.07,2.07,0,0,1,.48-1.29,3.22,3.22,0,0,1,1.28-1,4.37,4.37,0,0,1,1.79-.36,3.54,3.54,0,0,1,2.41.77,2.77,2.77,0,0,1,.9,2.12v4.1a5,5,0,0,0,.32,2v.13ZM439,190.64a2.75,2.75,0,0,0,1.36-.37,2.22,2.22,0,0,0,.93-1v-1.83h-1.19c-1.87,0-2.8.55-2.8,1.64a1.41,1.41,0,0,0,.47,1.12A1.84,1.84,0,0,0,439,190.64Z"/><path d="M446.81,191.8h-1.52V179.15h1.52Z"/><path d="M455.49,180.73v2.16h1.67v1.17h-1.67v5.54a1.27,1.27,0,0,0,.22.8.94.94,0,0,0,.76.27,3.44,3.44,0,0,0,.73-.1v1.23A4.39,4.39,0,0,1,456,192a1.89,1.89,0,0,1-1.54-.61,2.66,2.66,0,0,1-.52-1.76v-5.53h-1.63v-1.17H454v-2.16Z"/><path d="M464.44,191.8a3.31,3.31,0,0,1-.22-.94,3.37,3.37,0,0,1-2.53,1.1,3.21,3.21,0,0,1-2.17-.74,2.43,2.43,0,0,1-.84-1.89,2.5,2.5,0,0,1,1.06-2.16,4.93,4.93,0,0,1,3-.77h1.49v-.71a1.71,1.71,0,0,0-.48-1.27,2,2,0,0,0-1.41-.47,2.27,2.27,0,0,0-1.37.41,1.24,1.24,0,0,0-.55,1h-1.53a2.11,2.11,0,0,1,.47-1.29,3.33,3.33,0,0,1,1.29-1,4.32,4.32,0,0,1,1.78-.36,3.57,3.57,0,0,1,2.42.77,2.77,2.77,0,0,1,.9,2.12v4.1a5.25,5.25,0,0,0,.31,2v.13Zm-2.53-1.16a2.75,2.75,0,0,0,1.36-.37,2.22,2.22,0,0,0,.93-1v-1.83H463c-1.86,0-2.8.55-2.8,1.64a1.38,1.38,0,0,0,.48,1.12A1.84,1.84,0,0,0,461.91,190.64Z"/><path d="M469.77,191.8h-1.53V179.15h1.53Z"/><path d="M475.9,192a3.89,3.89,0,0,1-2.95-1.19,4.43,4.43,0,0,1-1.13-3.18v-.28a5.49,5.49,0,0,1,.5-2.37,4,4,0,0,1,1.42-1.63,3.6,3.6,0,0,1,2-.59,3.35,3.35,0,0,1,2.71,1.15,4.94,4.94,0,0,1,1,3.27v.64h-6a3.16,3.16,0,0,0,.77,2.13,2.43,2.43,0,0,0,1.88.81,2.63,2.63,0,0,0,1.36-.33,3.38,3.38,0,0,0,1-.87l.93.72A3.72,3.72,0,0,1,475.9,192Zm-.19-8a2.07,2.07,0,0,0-1.55.67,3.34,3.34,0,0,0-.77,1.89h4.47v-.12a3,3,0,0,0-.63-1.8A1.93,1.93,0,0,0,475.71,184Z"/><path d="M482.58,182.89l.05,1.12a3.24,3.24,0,0,1,2.67-1.29q2.83,0,2.85,3.19v5.89h-1.52v-5.9a2,2,0,0,0-.44-1.42,1.77,1.77,0,0,0-1.35-.47,2.23,2.23,0,0,0-1.3.4,2.6,2.6,0,0,0-.87,1v6.35h-1.53v-8.91Z"/><path d="M492.52,180.73v2.16h1.66v1.17h-1.66v5.54a1.21,1.21,0,0,0,.22.8.94.94,0,0,0,.76.27,3.44,3.44,0,0,0,.72-.1v1.23a4.39,4.39,0,0,1-1.17.16,1.91,1.91,0,0,1-1.54-.61,2.71,2.71,0,0,1-.52-1.76v-5.53h-1.62v-1.17H491v-2.16Z"/><path d="M366.58,209.68a1.12,1.12,0,0,0-.46-1,4.34,4.34,0,0,0-1.62-.59,7.37,7.37,0,0,1-1.84-.59,2.67,2.67,0,0,1-1-.83,2,2,0,0,1-.32-1.13,2.35,2.35,0,0,1,.92-1.86,3.66,3.66,0,0,1,2.37-.75,3.74,3.74,0,0,1,2.46.78,2.49,2.49,0,0,1,.95,2h-1.54a1.35,1.35,0,0,0-.53-1.08,2,2,0,0,0-1.34-.45,2.09,2.09,0,0,0-1.3.36,1.15,1.15,0,0,0-.47.95.94.94,0,0,0,.44.83,5.32,5.32,0,0,0,1.58.53,8.69,8.69,0,0,1,1.85.61,2.71,2.71,0,0,1,1,.86,2.13,2.13,0,0,1,.34,1.21,2.28,2.28,0,0,1-1,1.92,4,4,0,0,1-2.48.72,4.52,4.52,0,0,1-1.89-.38,3.08,3.08,0,0,1-1.29-1.06,2.54,2.54,0,0,1-.47-1.47h1.53a1.56,1.56,0,0,0,.61,1.21,2.38,2.38,0,0,0,1.51.45,2.41,2.41,0,0,0,1.39-.35A1.06,1.06,0,0,0,366.58,209.68Z"/><path d="M373.67,211a2.17,2.17,0,0,0,1.42-.49,1.75,1.75,0,0,0,.68-1.24h1.44a2.74,2.74,0,0,1-.53,1.46,3.45,3.45,0,0,1-1.3,1.11,3.78,3.78,0,0,1-1.71.41,3.68,3.68,0,0,1-2.9-1.22,4.87,4.87,0,0,1-1.07-3.32v-.26a5.48,5.48,0,0,1,.47-2.31,3.59,3.59,0,0,1,1.38-1.57,3.82,3.82,0,0,1,2.11-.56,3.55,3.55,0,0,1,2.49.89,3.21,3.21,0,0,1,1.06,2.33h-1.44a2.11,2.11,0,0,0-.66-1.42,2,2,0,0,0-1.45-.55,2.13,2.13,0,0,0-1.8.83,3.92,3.92,0,0,0-.64,2.42v.29a3.78,3.78,0,0,0,.64,2.37A2.11,2.11,0,0,0,373.67,211Z"/><path d="M380.45,204.21a3.22,3.22,0,0,1,2.63-1.24q2.84,0,2.85,3.18V212h-1.52v-5.9a2.06,2.06,0,0,0-.44-1.42,1.77,1.77,0,0,0-1.35-.46,2.22,2.22,0,0,0-1.3.39,2.76,2.76,0,0,0-.87,1V212h-1.53V199.39h1.53Z"/><path d="M387.81,207.5a5.17,5.17,0,0,1,.52-2.35,3.83,3.83,0,0,1,1.43-1.62,3.88,3.88,0,0,1,2.1-.56,3.75,3.75,0,0,1,2.94,1.26,4.83,4.83,0,0,1,1.12,3.35v.11a5.34,5.34,0,0,1-.49,2.33,3.8,3.8,0,0,1-1.43,1.61,3.91,3.91,0,0,1-2.13.58,3.73,3.73,0,0,1-2.93-1.26,4.84,4.84,0,0,1-1.13-3.34Zm1.53.19a3.82,3.82,0,0,0,.69,2.38,2.22,2.22,0,0,0,1.84.89,2.19,2.19,0,0,0,1.85-.91,4.18,4.18,0,0,0,.68-2.55,3.75,3.75,0,0,0-.7-2.37,2.19,2.19,0,0,0-1.84-.91,2.22,2.22,0,0,0-1.83.89A4.17,4.17,0,0,0,389.34,207.69Z"/><path d="M399.49,212H398V199.39h1.52Z"/><path d="M407.43,212a3,3,0,0,1-.21-.94,3.4,3.4,0,0,1-2.54,1.11,3.12,3.12,0,0,1-2.16-.75,2.43,2.43,0,0,1-.85-1.89,2.52,2.52,0,0,1,1.06-2.16,5,5,0,0,1,3-.77h1.48v-.7a1.73,1.73,0,0,0-.47-1.27,1.91,1.91,0,0,0-1.41-.48,2.25,2.25,0,0,0-1.37.41,1.22,1.22,0,0,0-.55,1h-1.53a2.1,2.1,0,0,1,.47-1.29,3.2,3.2,0,0,1,1.28-1,4.4,4.4,0,0,1,1.79-.36,3.49,3.49,0,0,1,2.41.77,2.77,2.77,0,0,1,.91,2.12V210a5,5,0,0,0,.31,1.95V212Zm-2.53-1.16a2.65,2.65,0,0,0,1.36-.37,2.25,2.25,0,0,0,.93-1v-1.83H406c-1.87,0-2.8.54-2.8,1.64a1.4,1.4,0,0,0,.48,1.12A1.79,1.79,0,0,0,404.9,210.88Z"/><path d="M415.41,204.5a4.38,4.38,0,0,0-.75-.06,2,2,0,0,0-2,1.28V212h-1.52v-8.91h1.48l0,1a2.37,2.37,0,0,1,2.13-1.19,1.5,1.5,0,0,1,.67.11Z"/><path d="M422,209.68a1.12,1.12,0,0,0-.46-1,4.34,4.34,0,0,0-1.62-.59,7.37,7.37,0,0,1-1.84-.59,2.67,2.67,0,0,1-1-.83,2,2,0,0,1-.32-1.13,2.35,2.35,0,0,1,.92-1.86A3.66,3.66,0,0,1,420,203a3.74,3.74,0,0,1,2.46.78,2.49,2.49,0,0,1,.95,2h-1.54a1.35,1.35,0,0,0-.53-1.08,2,2,0,0,0-1.34-.45,2.09,2.09,0,0,0-1.3.36,1.15,1.15,0,0,0-.47.95.94.94,0,0,0,.44.83,5.32,5.32,0,0,0,1.58.53,8.69,8.69,0,0,1,1.85.61,2.71,2.71,0,0,1,1.05.86,2.13,2.13,0,0,1,.34,1.21,2.28,2.28,0,0,1-1,1.92,4,4,0,0,1-2.48.72,4.52,4.52,0,0,1-1.89-.38,3.08,3.08,0,0,1-1.29-1.06,2.54,2.54,0,0,1-.47-1.47H418a1.53,1.53,0,0,0,.61,1.21,2.38,2.38,0,0,0,1.51.45,2.41,2.41,0,0,0,1.39-.35A1.06,1.06,0,0,0,422,209.68Z"/><path d="M427,204.21a3.22,3.22,0,0,1,2.63-1.24q2.83,0,2.85,3.18V212H431v-5.9a2.06,2.06,0,0,0-.44-1.42,1.77,1.77,0,0,0-1.35-.46,2.22,2.22,0,0,0-1.3.39,2.67,2.67,0,0,0-.87,1V212h-1.53V199.39H427Z"/><path d="M434.81,200.77a.92.92,0,0,1,.23-.63.84.84,0,0,1,.67-.26.88.88,0,0,1,.68.26.92.92,0,0,1,.23.63.83.83,0,0,1-.91.86.84.84,0,0,1-.67-.25A.87.87,0,0,1,434.81,200.77ZM436.46,212h-1.52v-8.91h1.52Z"/><path d="M446.43,207.69a5.33,5.33,0,0,1-.93,3.27,3,3,0,0,1-2.52,1.25,3.29,3.29,0,0,1-2.56-1v4.29H438.9V203.13h1.39l.07,1A3.16,3.16,0,0,1,443,203a3,3,0,0,1,2.54,1.21,5.33,5.33,0,0,1,.94,3.36Zm-1.53-.18a3.93,3.93,0,0,0-.64-2.38,2.08,2.08,0,0,0-1.76-.87,2.25,2.25,0,0,0-2.08,1.23v4.25a2.24,2.24,0,0,0,2.09,1.22,2.07,2.07,0,0,0,1.75-.87A4.29,4.29,0,0,0,444.9,207.51Z"/><rect class="cls-7" x="46.64" y="44.6" width="160.79" height="160.79" transform="translate(125.97 -53.22) rotate(45.12)"/><g class="cls-8"><path class="cls-9" d="M126.82,227.13,24.9,124.79,127.25,22.87,229.17,125.21ZM28.06,124.79,126.83,224,226,125.21,127.24,26Zm98.79,89.37L92.83,180,119,154,93.73,128.66l-18,17.9,11.83,11.87,4.91-4.9-6.92-6.95,8.13-8.1L109.14,154,87.93,175.08,58.2,145.22,78.6,124.9,58.28,104.49,88.14,74.75,109.26,96,93.77,111.38l-8.1-8.13,7-6.93L87.73,91.4,75.86,103.23l17.89,18L119.07,96l-26-26.12,34.16-34,34,34.16L135.11,96l25.22,25.33,18-17.9L166.48,91.57l-4.92,4.9,6.93,7-8.14,8.1L144.93,96l21.2-21.11,29.74,29.86-20.4,20.32,20.32,20.41-29.86,29.73L144.81,154l15.49-15.42,8.1,8.13-7,6.93,4.9,4.92,11.87-11.83-17.89-18L135,154l26,26.12ZM96,180l30.86,31,31-30.86-26-26.13,28.48-28.36,21.05,21.13-15,15-8.05-8.08,7-6.92-5-5L148,154.05l18,18,26.7-26.59-20.32-20.41,20.41-20.32-26.59-26.7-18,18,12.27,12.32,5-5-6.92-7,8.08-8,15,15-21.13,21L132,96l26.12-26L127.21,39l-31,30.86,26,26.13L93.74,124.35l-21-21.13,15-15,8,8.08-7,6.92,5,5L106.1,96l-18-18L61.44,104.5l20.32,20.41L61.35,145.23l26.59,26.7,18-18L93.71,141.64l-5,5,6.92,6.95-8.08,8.05-15-15,21.13-21L122.11,154Zm104.72-39.4-15.43-15.49,15.49-15.42,15.42,15.49Zm-12.27-15.48,12.27,12.32L213,125.18l-12.28-12.33ZM53.3,140.3,37.87,124.81l15.49-15.42,15.42,15.49ZM41,124.82,53.3,137.15l12.33-12.28L53.35,112.55Z"/><path class="cls-9" d="M126.87,203.63l-23.86-24,24-23.87,23.86,24Zm-20.71-24,20.72,20.8,20.8-20.71L127,159Z"/><path class="cls-9" d="M127.1,93.54l-23.87-24,24-23.86,23.86,24Zm-20.71-24,20.72,20.8,20.8-20.71L127.19,48.86Z"/></g><path class="cls-9" d="M142.72,137.37H134v-3.93a18.26,18.26,0,0,0,5.46-3.58,8.41,8.41,0,0,0,5.6,2.23c1.82,0,5-.71,6.15-5.44a5.82,5.82,0,0,0-.71-4.62c-1.42-2.23-4.15-3.3-5.52-3.71,0-.31.09-.62.09-.93a6.68,6.68,0,0,0,1.86-12.79v0h0l1.1-8.81v-.12a15.45,15.45,0,0,0-15.43-15.44H122.25a15.48,15.48,0,0,0-15.44,15.48l.38,8.89h0v0A6.68,6.68,0,0,0,109,117.39c0,.16,0,.32,0,.49a7.24,7.24,0,0,0-3.94,1.36c-1.24.81-5.05,3.85-1.73,9.19a5.79,5.79,0,0,0,3.77,2.77,6.69,6.69,0,0,0,1.44.15,11.8,11.8,0,0,0,5.71-1.79,18.19,18.19,0,0,0,5.78,3.88v3.93h-8.78a13,13,0,0,0-13,13V167H155.7V150.34A13,13,0,0,0,142.72,137.37Zm-35-8.39a3.53,3.53,0,0,1-2.33-1.74c-2-3.19-.5-5.09,1.11-6.14a5.06,5.06,0,0,1,2.88-.95,17.94,17.94,0,0,0,3.47,7.67C111.9,128.32,109.62,129.41,107.68,129ZM109,106.35v8.75a4.44,4.44,0,0,1,0-8.75Zm39.5,16.91a3.54,3.54,0,0,1,.42,2.87c-.86,3.66-3.25,4-5.13,3.56a5.19,5.19,0,0,1-2.86-1.51,17.77,17.77,0,0,0,3.64-7.58A7.52,7.52,0,0,1,148.53,123.26ZM111.3,105.7v-4.5l.13-.07a11.48,11.48,0,0,0,1.81-1.22l.2-.16a7.88,7.88,0,0,0,1.22-1.3,8.38,8.38,0,0,0,.65-1c3,4,8.71,6,16.44,5.64a54.84,54.84,0,0,0,11-1.73v15.5a15.73,15.73,0,1,1-31.46,0Zm-2.22-10.08a13.18,13.18,0,0,1,13.17-13.16h10.32a13.18,13.18,0,0,1,13.16,13.06l-.7,5.56V98.3l-1.47.46c-.22.06-22.09,6.72-27.4-4.29L115,92l-.92,2.54c-.2.54-.26.7-.28.74a7.34,7.34,0,0,1-1,1.79A4.72,4.72,0,0,1,112,98l-.19.16a10.24,10.24,0,0,1-1.45,1l-1.09.59Zm22.6,41.74h-9.29V134.2a17.18,17.18,0,0,0,9.29,0v3.16ZM145,115.1v-8.75a4.44,4.44,0,0,1,0,8.75ZM110.9,145.57l4.27-5.49,1.73,6.09Zm26.27.6,1.72-6.09,4.28,5.49ZM133.26,160l3.2-11.34,4.3,4.62ZM127,144.52a11.25,11.25,0,0,1-9.23-4.88h18.44A11.2,11.2,0,0,1,127,144.52Zm-13.73,8.76,4.29-4.62L120.81,160Zm-12.67,11.43V150.34a10.71,10.71,0,0,1,10.7-10.7h1.3l-6,7.79,8.29.82-4.8,5.17,12.57,11.29Zm26.19-17.91h.41a12.66,12.66,0,0,0,8.2-2.85l-5.87,20.76H124.5L118.62,144A12.69,12.69,0,0,0,126.83,146.8ZM144,153.42l-4.81-5.17,8.3-.82-6.06-7.79h1.3a10.71,10.71,0,0,1,10.71,10.7v14.37h-22Z"/><path class="cls-9" d="M125.36,114.77h3.34a6,6,0,1,0,0-2.27h-3.34a6,6,0,1,0,0,2.27Zm-2.15-1.13a3.71,3.71,0,1,1-3.71-3.71A3.71,3.71,0,0,1,123.21,113.64Zm7.65,0a3.71,3.71,0,1,1,3.71,3.71A3.71,3.71,0,0,1,130.86,113.64Z"/><path class="cls-9" d="M127.5,127c0,.32-.08.7-.47.7a.46.46,0,0,1-.31-.08.88.88,0,0,1-.16-.48v-2.5h-2.27v2.49a3,3,0,0,0,.82,2.08,2.78,2.78,0,0,0,3.81,0,3.26,3.26,0,0,0,.85-2.24v-2.34H127.5Z"/></svg>