<svg id="Layer_1" data-name="Layer 1" xmlns="http://www.w3.org/2000/svg" viewBox="0 0 504.01 277.74"><defs><style>.cls-1{fill:#fff;}.cls-2{opacity:0.2;}.cls-3{fill:#017db9;}.cls-4{fill:#ed4328;}.cls-5{fill:#41ac49;}.cls-6{fill:#8e1838;}.cls-7,.cls-8{fill:none;stroke:#8e1838;stroke-miterlimit:10;}.cls-7{stroke-width:2px;}.cls-8{stroke-width:2.09px;}</style></defs><rect class="cls-1" width="504.01" height="277.74"/><path d="M203.66,22.87a3.24,3.24,0,0,1,2,3.12,3.44,3.44,0,0,1-.52,1.88,3.27,3.27,0,0,1-1.48,1.23,5.43,5.43,0,0,1-2.26.43h-2v2.7h-2.26v-9.8h4.24A5.42,5.42,0,0,1,203.66,22.87Zm-.83,4.37a1.54,1.54,0,0,0,.53-1.25,1.57,1.57,0,0,0-.53-1.27,2.44,2.44,0,0,0-1.56-.44h-1.85v3.4h1.85A2.44,2.44,0,0,0,202.83,27.24Z"/><path d="M208.55,31.85a3.65,3.65,0,0,1-1.48-1.38,3.82,3.82,0,0,1,1.48-5.39,4.87,4.87,0,0,1,4.26,0,3.71,3.71,0,0,1,2,3.39,3.86,3.86,0,0,1-.53,2,3.76,3.76,0,0,1-1.47,1.38,4.87,4.87,0,0,1-4.26,0ZM212.06,30a2.4,2.4,0,0,0,0-3,2,2,0,0,0-2.76,0,2.36,2.36,0,0,0,0,3,2,2,0,0,0,2.76,0Z"/><path d="M223.53,24.7l-3.17,7.53H218.1l-3.16-7.53h2.25l2.09,5.12,2.15-5.12Z"/><path d="M231.56,29.08h-5.7a1.74,1.74,0,0,0,.73,1.11,2.38,2.38,0,0,0,1.42.4,2.86,2.86,0,0,0,1.05-.17,2.59,2.59,0,0,0,.84-.55l1.17,1.26A3.92,3.92,0,0,1,228,32.34a5,5,0,0,1-2.26-.49,3.67,3.67,0,0,1-1.51-1.38,4.07,4.07,0,0,1,0-4,3.73,3.73,0,0,1,1.45-1.39,4.23,4.23,0,0,1,2.05-.49,4.3,4.3,0,0,1,2,.47,3.51,3.51,0,0,1,1.41,1.37,4.06,4.06,0,0,1,.51,2.06S231.58,28.72,231.56,29.08Zm-5.12-2.42a1.78,1.78,0,0,0-.61,1.15h3.71a1.81,1.81,0,0,0-1.85-1.57A1.91,1.91,0,0,0,226.44,26.66Z"/><path d="M236.2,24.87a3.83,3.83,0,0,1,1.53-.28v2l-.49,0a2,2,0,0,0-1.47.52,2.11,2.11,0,0,0-.53,1.58v3.55h-2.19V24.7h2.09v1A2.36,2.36,0,0,1,236.2,24.87Z"/><path d="M244.16,31.87a2.09,2.09,0,0,1-.8.35,3.93,3.93,0,0,1-1,.12,2.91,2.91,0,0,1-2.08-.68,2.64,2.64,0,0,1-.74-2V26.55H238.4V24.87h1.16V23h2.19v1.84h1.87v1.68h-1.87v3.06a1,1,0,0,0,.24.74.94.94,0,0,0,.69.26,1.47,1.47,0,0,0,.89-.28Z"/><path d="M252.72,24.7l-3.4,8A3.92,3.92,0,0,1,248,34.53a3.17,3.17,0,0,1-1.84.53,3.85,3.85,0,0,1-1.16-.18,2.41,2.41,0,0,1-.94-.51l.8-1.55a1.8,1.8,0,0,0,.58.35,1.93,1.93,0,0,0,.65.13,1.2,1.2,0,0,0,.73-.22,2,2,0,0,0,.5-.72l0-.07-3.26-7.59h2.25l2.12,5.11,2.12-5.11Z"/><path d="M264,32.23l-1.89-2.73H260v2.73h-2.26v-9.8H262a5.46,5.46,0,0,1,2.26.44,3.37,3.37,0,0,1,0,6.21l2.2,3.15Zm-.57-7.51a2.44,2.44,0,0,0-1.56-.44H260V27.7h1.85a2.38,2.38,0,0,0,1.56-.45,1.77,1.77,0,0,0,0-2.53Z"/><path d="M273.53,25.42a3.2,3.2,0,0,1,.93,2.51v4.3h-2v-.94a2.42,2.42,0,0,1-2.29,1.05,3.51,3.51,0,0,1-1.51-.29,2.3,2.3,0,0,1-1-.81,2.09,2.09,0,0,1-.34-1.18,2,2,0,0,1,.79-1.65,4.05,4.05,0,0,1,2.45-.6h1.73a1.39,1.39,0,0,0-.43-1.1,1.91,1.91,0,0,0-1.3-.39,4,4,0,0,0-1.19.19,3.24,3.24,0,0,0-1,.51l-.79-1.52a4.48,4.48,0,0,1,1.48-.67,6.52,6.52,0,0,1,1.77-.24A4,4,0,0,1,273.53,25.42Zm-1.86,5.19a1.41,1.41,0,0,0,.61-.76v-.77h-1.5c-.89,0-1.34.3-1.34.88a.79.79,0,0,0,.33.67,1.5,1.5,0,0,0,.9.24A1.87,1.87,0,0,0,271.67,30.61Z"/><path d="M281.3,31.87a2.11,2.11,0,0,1-.79.35,4.07,4.07,0,0,1-1,.12,2.91,2.91,0,0,1-2.08-.68,2.64,2.64,0,0,1-.74-2V26.55h-1.16V24.87h1.16V23h2.19v1.84h1.87v1.68h-1.87v3.06a1,1,0,0,0,.24.74.94.94,0,0,0,.7.26,1.44,1.44,0,0,0,.88-.28Z"/><path d="M289.63,29.08h-5.7a1.74,1.74,0,0,0,.73,1.11,2.38,2.38,0,0,0,1.42.4,2.86,2.86,0,0,0,1.05-.17,2.59,2.59,0,0,0,.84-.55l1.17,1.26A3.92,3.92,0,0,1,286,32.34a5,5,0,0,1-2.26-.49,3.67,3.67,0,0,1-1.51-1.38,4,4,0,0,1,0-4,3.77,3.77,0,0,1,1.44-1.39,4.23,4.23,0,0,1,2.05-.49,4.28,4.28,0,0,1,2,.47,3.51,3.51,0,0,1,1.41,1.37,4.06,4.06,0,0,1,.51,2.06S289.65,28.72,289.63,29.08Zm-5.11-2.42a1.75,1.75,0,0,0-.62,1.15h3.71a1.75,1.75,0,0,0-.62-1.14,1.79,1.79,0,0,0-1.23-.43A1.86,1.86,0,0,0,284.52,26.66Z"/><path d="M291.82,32.11a4.75,4.75,0,0,1-1.42-.58l.72-1.57a4.72,4.72,0,0,0,1.22.53,5.38,5.38,0,0,0,1.4.2c.93,0,1.39-.23,1.39-.68a.5.5,0,0,0-.38-.47,5.55,5.55,0,0,0-1.16-.23,12.27,12.27,0,0,1-1.53-.33,2.31,2.31,0,0,1-1-.64,1.86,1.86,0,0,1-.44-1.32,2.09,2.09,0,0,1,.41-1.26,2.64,2.64,0,0,1,1.21-.86,5,5,0,0,1,1.86-.31,7.66,7.66,0,0,1,1.59.17,4.32,4.32,0,0,1,1.31.49l-.73,1.55a4.36,4.36,0,0,0-2.17-.56,2.13,2.13,0,0,0-1.05.2.57.57,0,0,0-.35.5.5.5,0,0,0,.38.49,7.61,7.61,0,0,0,1.21.27,14.19,14.19,0,0,1,1.51.32,2.3,2.3,0,0,1,1,.64,1.81,1.81,0,0,1,.43,1.29,2,2,0,0,1-.42,1.25,2.66,2.66,0,0,1-1.22.84,5.47,5.47,0,0,1-1.91.3A7.08,7.08,0,0,1,291.82,32.11Z"/><path d="M303,32a13.85,13.85,0,0,1-.45-3.59,14,14,0,0,1,.45-3.61,9.68,9.68,0,0,1,1.3-2.95h2.08A12.68,12.68,0,0,0,305.08,25a14.61,14.61,0,0,0,0,6.79A12.68,12.68,0,0,0,306.37,35h-2.08A9.85,9.85,0,0,1,303,32Z"/><path d="M307.57,27a2.76,2.76,0,0,1-.68-2,2.78,2.78,0,0,1,.68-2,2.46,2.46,0,0,1,3.5,0,2.82,2.82,0,0,1,.68,2,2.81,2.81,0,0,1-.68,2,2.46,2.46,0,0,1-3.5,0Zm2.5-.81a2,2,0,0,0,.28-1.16,2,2,0,0,0-.28-1.16.9.9,0,0,0-1.49,0A2,2,0,0,0,308.3,25a2,2,0,0,0,.28,1.16.89.89,0,0,0,.74.4A.85.85,0,0,0,310.07,26.18Zm5.09-3.75h1.67l-6.69,9.8h-1.67ZM314.72,32a2.18,2.18,0,0,1-.86-.94,3.45,3.45,0,0,1,0-2.86,2.24,2.24,0,0,1,.86-.94,2.41,2.41,0,0,1,1.25-.33,2.25,2.25,0,0,1,1.76.74,2.76,2.76,0,0,1,.68,2,2.81,2.81,0,0,1-.68,2,2.28,2.28,0,0,1-1.76.73A2.41,2.41,0,0,1,314.72,32Zm2-1.21a2.07,2.07,0,0,0,.28-1.16,2,2,0,0,0-.28-1.15.85.85,0,0,0-.75-.4.88.88,0,0,0-.74.39,2,2,0,0,0-.28,1.16,2,2,0,0,0,.28,1.16.89.89,0,0,0,.74.4A.87.87,0,0,0,316.72,30.8Z"/><path d="M318.65,35a12.68,12.68,0,0,0,1.29-3.16,13.93,13.93,0,0,0,0-6.79,12.68,12.68,0,0,0-1.29-3.16h2.08A9.42,9.42,0,0,1,322,24.78a13.55,13.55,0,0,1,.46,3.62,13.81,13.81,0,0,1-.45,3.6,9.58,9.58,0,0,1-1.32,3Z"/><g class="cls-2"><rect x="21.39" y="91.32" width="476.74" height="0.47"/></g><g class="cls-2"><rect x="21.39" y="70.32" width="476.74" height="0.47"/></g><g class="cls-2"><rect x="21.39" y="112.34" width="476.74" height="0.47"/></g><g class="cls-2"><rect x="21.39" y="134.69" width="476.74" height="0.47"/></g><g class="cls-2"><rect x="21.39" y="156.1" width="476.74" height="0.47"/></g><g class="cls-2"><rect x="21.39" y="179.2" width="476.74" height="0.47"/></g><g class="cls-2"><rect x="21.39" y="202.21" width="476.74" height="0.47"/></g><g class="cls-2"><rect x="21.39" y="224.21" width="476.74" height="0.47"/></g><rect class="cls-3" x="34.37" y="84.51" width="19.26" height="140.17"/><rect class="cls-4" x="53.63" y="151.45" width="19.26" height="73.22"/><rect class="cls-5" x="72.88" y="121.45" width="19.26" height="103.22"/><rect class="cls-3" x="112.18" y="87.51" width="19.26" height="137.17"/><rect class="cls-4" x="131.44" y="153.45" width="19.26" height="71.22"/><rect class="cls-5" x="150.7" y="124.45" width="19.26" height="100.22"/><rect class="cls-3" x="190.98" y="84.61" width="19.26" height="140.07"/><rect class="cls-4" x="210.24" y="140.45" width="19.26" height="84.22"/><rect class="cls-5" x="229.5" y="116.45" width="19.26" height="108.22"/><rect class="cls-3" x="269.78" y="77.51" width="19.26" height="147.17"/><rect class="cls-4" x="289.04" y="136.45" width="19.26" height="88.22"/><rect class="cls-5" x="308.29" y="109.45" width="19.26" height="115.22"/><rect class="cls-3" x="348.58" y="79.51" width="19.26" height="145.17"/><rect class="cls-4" x="367.83" y="136.45" width="19.26" height="88.22"/><rect class="cls-5" x="387.09" y="110.45" width="19.26" height="114.22"/><rect class="cls-3" x="427.37" y="86.51" width="19.26" height="138.17"/><rect class="cls-4" x="446.63" y="140.45" width="19.26" height="84.22"/><rect class="cls-5" x="465.89" y="117.45" width="19.26" height="107.22"/><path d="M35.69,77.41v4.2h-1V78.19h-.84v-.78Z"/><path d="M39.56,80.82v.79H36.39V81L38,79.45a1.87,1.87,0,0,0,.35-.42.79.79,0,0,0,.09-.35.48.48,0,0,0-.17-.39.82.82,0,0,0-.51-.14,1.1,1.1,0,0,0-.49.11.92.92,0,0,0-.37.31l-.71-.45a1.62,1.62,0,0,1,.68-.58,2.32,2.32,0,0,1,1-.2,2,2,0,0,1,.82.15,1.26,1.26,0,0,1,.55.43,1.14,1.14,0,0,1,.19.66,1.39,1.39,0,0,1-.14.64,2.55,2.55,0,0,1-.56.69l-1,.91Z"/><path d="M40.16,81.49a.63.63,0,0,1,0-.84.61.61,0,0,1,.42-.16.6.6,0,0,1,.41.16.6.6,0,0,1,0,.84.57.57,0,0,1-.41.17A.57.57,0,0,1,40.16,81.49Z"/><path d="M45,79.81a1,1,0,0,1,.16.58,1.07,1.07,0,0,1-.22.68,1.37,1.37,0,0,1-.62.45,2.78,2.78,0,0,1-1.86,0,1.32,1.32,0,0,1-.62-.45,1.13,1.13,0,0,1-.22-.68,1,1,0,0,1,.17-.58,1.26,1.26,0,0,1,.47-.41,1,1,0,0,1-.49-.86A1,1,0,0,1,42,77.9a1.25,1.25,0,0,1,.57-.42,2.38,2.38,0,0,1,.84-.14,2.48,2.48,0,0,1,.85.14,1.37,1.37,0,0,1,.57.42,1.06,1.06,0,0,1,.2.64,1,1,0,0,1-.12.5,1.16,1.16,0,0,1-.37.36A1.22,1.22,0,0,1,45,79.81Zm-1,1a.52.52,0,0,0,.21-.44.54.54,0,0,0-.21-.44,1,1,0,0,0-.58-.16,1,1,0,0,0-.57.16.54.54,0,0,0-.21.44.51.51,0,0,0,.21.44.9.9,0,0,0,.57.17A1,1,0,0,0,44,80.8Zm-1-2.61a.48.48,0,0,0-.18.39.47.47,0,0,0,.17.38,1,1,0,0,0,1,0,.45.45,0,0,0,.18-.38.48.48,0,0,0-.18-.39.78.78,0,0,0-.48-.14A.73.73,0,0,0,42.93,78.19Z"/><path d="M48.37,79.34a1.18,1.18,0,0,1,.42,1,1.26,1.26,0,0,1-.78,1.2,2.13,2.13,0,0,1-1,.19,3.28,3.28,0,0,1-.88-.12,2,2,0,0,1-.73-.33l.39-.74a1.9,1.9,0,0,0,.55.28,2.31,2.31,0,0,0,.64.1,1,1,0,0,0,.58-.15.45.45,0,0,0,.21-.4.47.47,0,0,0-.22-.41,1.54,1.54,0,0,0-.76-.14H45.76L46,77.41h2.56v.78H46.78l-.07.8h.35A2.05,2.05,0,0,1,48.37,79.34Z"/><path d="M49.35,79.36a1.33,1.33,0,0,1,0-1.68,1,1,0,0,1,1.5,0,1.36,1.36,0,0,1,0,1.68,1,1,0,0,1-1.5,0ZM50.42,79a1.1,1.1,0,0,0,0-1,.39.39,0,0,0-.64,0,.88.88,0,0,0-.12.5.82.82,0,0,0,.12.49.37.37,0,0,0,.32.18A.39.39,0,0,0,50.42,79Zm2.18-1.61h.71l-2.86,4.2h-.72Zm-.19,4.11a1,1,0,0,1-.37-.41,1.5,1.5,0,0,1,0-1.22,1,1,0,0,1,.37-.41,1.09,1.09,0,0,1,.54-.14,1,1,0,0,1,.75.32,1.36,1.36,0,0,1,0,1.68,1,1,0,0,1-.75.32A1.09,1.09,0,0,1,52.41,81.52Zm.86-.53a.82.82,0,0,0,.12-.49.88.88,0,0,0-.12-.5.37.37,0,0,0-.32-.17.39.39,0,0,0-.32.17,1.1,1.1,0,0,0,0,1,.39.39,0,0,0,.32.17A.36.36,0,0,0,53.27,81Z"/><path class="cls-6" d="M11.16,142v1l-2.34,5.35H7.24l2.26-5.11H7.41v1H6.11V142Z"/><path class="cls-6" d="M12.19,144.88a1.77,1.77,0,0,1-.43-1.26,1.81,1.81,0,0,1,.43-1.27,1.5,1.5,0,0,1,1.13-.47,1.47,1.47,0,0,1,1.13.47,1.81,1.81,0,0,1,.43,1.27,1.77,1.77,0,0,1-.43,1.26,1.44,1.44,0,0,1-1.13.47A1.47,1.47,0,0,1,12.19,144.88Zm1.62-.52a1.33,1.33,0,0,0,.17-.74,1.39,1.39,0,0,0-.17-.75.56.56,0,0,0-.49-.25.54.54,0,0,0-.47.26,1.26,1.26,0,0,0-.18.74,1.28,1.28,0,0,0,.18.74.56.56,0,0,0,.47.26A.57.57,0,0,0,13.81,144.36ZM17.08,142h1.07l-4.3,6.3H12.77Zm-.29,6.16a1.46,1.46,0,0,1-.55-.6,2.08,2.08,0,0,1-.2-.92,2,2,0,0,1,.2-.92,1.48,1.48,0,0,1,.55-.61,1.58,1.58,0,0,1,.81-.21,1.49,1.49,0,0,1,1.13.47,1.82,1.82,0,0,1,.44,1.27,1.77,1.77,0,0,1-.44,1.26,1.45,1.45,0,0,1-1.13.47A1.58,1.58,0,0,1,16.79,148.11Zm1.29-.78a1.28,1.28,0,0,0,.18-.74,1.32,1.32,0,0,0-.18-.75.59.59,0,0,0-1,0,1.65,1.65,0,0,0,0,1.5.58.58,0,0,0,.48.25A.56.56,0,0,0,18.08,147.33Z"/><path d="M77.15,114.82a2.19,2.19,0,0,1,.49,1.54,2.72,2.72,0,0,1-.26,1.23,1.77,1.77,0,0,1-.76.77,2.26,2.26,0,0,1-1.12.27,2.67,2.67,0,0,1-.64-.08,1.77,1.77,0,0,1-.52-.21l.36-.72a1.33,1.33,0,0,0,.78.21,1.14,1.14,0,0,0,.85-.31,1.32,1.32,0,0,0,.34-.91,1.44,1.44,0,0,1-1,.38,1.74,1.74,0,0,1-.73-.16,1.29,1.29,0,0,1-.52-.46,1.24,1.24,0,0,1-.2-.69,1.32,1.32,0,0,1,.22-.74,1.37,1.37,0,0,1,.57-.49,1.91,1.91,0,0,1,.8-.17A1.82,1.82,0,0,1,77.15,114.82Zm-.79,1.27a.6.6,0,0,0,.2-.46.59.59,0,0,0-.2-.45.8.8,0,0,0-.53-.17.72.72,0,0,0-.51.17.56.56,0,0,0-.2.45.58.58,0,0,0,.2.46.73.73,0,0,0,.52.17A.81.81,0,0,0,76.36,116.09Z"/><path d="M78.17,118.43A.57.57,0,0,1,78,118a.53.53,0,0,1,.17-.41.57.57,0,0,1,.42-.16.56.56,0,0,1,.41.16.53.53,0,0,1,.17.41.57.57,0,0,1-.17.42.53.53,0,0,1-.41.17A.54.54,0,0,1,78.17,118.43Z"/><path d="M83.45,117.67h-.68v.88h-1v-.88H79.56V117l2-2.67h1l-1.84,2.53h1.13v-.79h.92v.79h.68Z"/><path d="M85.21,114.35v4.2h-1v-3.41H83.4v-.79Z"/><path d="M86.16,116.31a1.38,1.38,0,0,1,0-1.69,1.06,1.06,0,0,1,1.5,0,1.38,1.38,0,0,1,0,1.69,1.06,1.06,0,0,1-1.5,0Zm1.07-.35a1.08,1.08,0,0,0,0-1,.34.34,0,0,0-.32-.17.39.39,0,0,0-.32.17.86.86,0,0,0-.11.5.85.85,0,0,0,.11.49.39.39,0,0,0,.32.17A.36.36,0,0,0,87.23,116Zm2.19-1.61h.71l-2.87,4.2h-.71Zm-.19,4.11a.9.9,0,0,1-.37-.4,1.35,1.35,0,0,1-.13-.62,1.33,1.33,0,0,1,.13-.61.9.9,0,0,1,.37-.4.93.93,0,0,1,.53-.14,1,1,0,0,1,.76.31,1.38,1.38,0,0,1,0,1.69,1,1,0,0,1-.76.31A.93.93,0,0,1,89.23,118.46Zm.85-.52a.86.86,0,0,0,.12-.5.84.84,0,0,0-.12-.49.36.36,0,0,0-.32-.17.39.39,0,0,0-.32.17.83.83,0,0,0-.11.49.86.86,0,0,0,.11.5.39.39,0,0,0,.32.17A.36.36,0,0,0,90.08,117.94Z"/><path d="M43.09,236h0l2-5.2h1.08v6.4h-.87v-4.8h0l-1.94,4.8h-.6l-2-5h0v5h-.87v-6.4h1.14Z"/><path d="M50.54,237.24c0-.15,0-.27-.07-.38l0-.33a2,2,0,0,1-.63.57,1.77,1.77,0,0,1-2-.15,1.42,1.42,0,0,1-.38-1,1.21,1.21,0,0,1,.55-1.06,2.54,2.54,0,0,1,1.5-.39h.93V234a.86.86,0,0,0-.25-.66,1,1,0,0,0-.72-.24,1,1,0,0,0-.68.21.61.61,0,0,0-.26.5h-.82v0a1.13,1.13,0,0,1,.48-.94,2,2,0,0,1,1.34-.44,1.93,1.93,0,0,1,1.3.42,1.43,1.43,0,0,1,.49,1.18v2.29a3.91,3.91,0,0,0,0,.49,2.44,2.44,0,0,0,.09.47Zm-1.44-.64a1.53,1.53,0,0,0,.85-.24,1.1,1.1,0,0,0,.49-.55V235h-1a1.22,1.22,0,0,0-.83.26.8.8,0,0,0-.32.62.65.65,0,0,0,.2.5A.84.84,0,0,0,49.1,236.6Z"/><path d="M54.82,233.25l-.45,0a1.07,1.07,0,0,0-.58.16,1.12,1.12,0,0,0-.36.46v3.4h-.86v-4.76h.77l.08.7a1.69,1.69,0,0,1,.5-.58,1.17,1.17,0,0,1,.69-.21l.18,0,.14,0Z"/><path d="M57.52,236.65a1,1,0,0,0,.7-.26.85.85,0,0,0,.3-.66h.78l0,0a1.37,1.37,0,0,1-.53,1.09,1.84,1.84,0,0,1-1.27.48,1.87,1.87,0,0,1-1.54-.68,2.61,2.61,0,0,1-.55-1.7v-.18a2.58,2.58,0,0,1,.55-1.69,1.85,1.85,0,0,1,1.54-.69,1.81,1.81,0,0,1,1.31.5,1.56,1.56,0,0,1,.49,1.2v0h-.79a1.05,1.05,0,0,0-.28-.74,1,1,0,0,0-.72-.3,1,1,0,0,0-.93.49,2.37,2.37,0,0,0-.29,1.2V235a2.38,2.38,0,0,0,.29,1.21A1,1,0,0,0,57.52,236.65Z"/><path d="M61.21,233.12a1.71,1.71,0,0,1,.61-.53,1.6,1.6,0,0,1,.79-.2,1.54,1.54,0,0,1,1.18.46,2,2,0,0,1,.43,1.41v3h-.87v-3a1.27,1.27,0,0,0-.25-.87,1,1,0,0,0-.76-.28,1.44,1.44,0,0,0-.67.15,1.24,1.24,0,0,0-.46.42v3.57h-.86v-6.86h.86Z"/><path d="M71.7,237.24h-4v-.6l2-2.39a5.65,5.65,0,0,0,.72-1,1.67,1.67,0,0,0,.2-.77,1.05,1.05,0,0,0-.26-.73.94.94,0,0,0-.72-.28,1.05,1.05,0,0,0-.86.34,1.31,1.31,0,0,0-.3.87h-.84v0a1.75,1.75,0,0,1,.53-1.32,2,2,0,0,1,1.48-.54,1.9,1.9,0,0,1,1.35.47,1.63,1.63,0,0,1,.49,1.23,2,2,0,0,1-.28,1,10.88,10.88,0,0,1-.85,1.21l-1.61,1.89v0H71.7Z"/><path d="M76.71,235a2.54,2.54,0,0,1-.56,1.72,2.05,2.05,0,0,1-3,0,2.54,2.54,0,0,1-.56-1.72V233.1a2.59,2.59,0,0,1,.55-1.72,1.87,1.87,0,0,1,1.48-.63,1.89,1.89,0,0,1,1.49.63,2.54,2.54,0,0,1,.56,1.72Zm-.87-2.06a1.7,1.7,0,0,0-.31-1.09,1.14,1.14,0,0,0-1.73,0,1.76,1.76,0,0,0-.3,1.09v2.23a1.75,1.75,0,0,0,.31,1.1,1.14,1.14,0,0,0,1.73,0,1.8,1.8,0,0,0,.3-1.1Z"/><path d="M80.32,237.24h-.87v-5.6H78.06V231l2.26-.23Z"/><path d="M84.47,236.65a1.28,1.28,0,0,0,1-.43,1.73,1.73,0,0,0,.38-1.22v-.54a1.4,1.4,0,0,1-1.21.63,1.88,1.88,0,0,1-1.45-.57,2.58,2.58,0,0,1,0-3.16,1.78,1.78,0,0,1,1.38-.61,2,2,0,0,1,1.54.6,2.38,2.38,0,0,1,.58,1.7V235a2.29,2.29,0,0,1-.64,1.72,2.23,2.23,0,0,1-1.63.62,3.3,3.3,0,0,1-.69-.07,3.19,3.19,0,0,1-.66-.21l.13-.66a2.16,2.16,0,0,0,.57.2A3.13,3.13,0,0,0,84.47,236.65Zm.18-2.24a1.45,1.45,0,0,0,.77-.2,1.25,1.25,0,0,0,.44-.53v-.76a1.64,1.64,0,0,0-.32-1.1,1.09,1.09,0,0,0-.9-.39.94.94,0,0,0-.78.42,1.76,1.76,0,0,0-.32,1.09,1.78,1.78,0,0,0,.3,1.07A.93.93,0,0,0,84.65,234.41Z"/><path d="M124.79,235.62a.94.94,0,0,0-.31-.72,2.56,2.56,0,0,0-1.1-.51,3.53,3.53,0,0,1-1.52-.71,1.51,1.51,0,0,1-.55-1.18,1.58,1.58,0,0,1,.59-1.25,2.57,2.57,0,0,1,3.14.07,1.74,1.74,0,0,1,.58,1.34v0h-.83a1.17,1.17,0,0,0-.38-.9,1.57,1.57,0,0,0-1.9-.06,1,1,0,0,0-.32.77.84.84,0,0,0,.35.69,3.22,3.22,0,0,0,1.15.49,3.27,3.27,0,0,1,1.47.74,1.62,1.62,0,0,1,.51,1.21,1.48,1.48,0,0,1-.61,1.24,2.57,2.57,0,0,1-1.59.47,2.69,2.69,0,0,1-1.64-.52,1.57,1.57,0,0,1-.68-1.39v0H122a1.07,1.07,0,0,0,.46.93,1.77,1.77,0,0,0,1,.32,1.55,1.55,0,0,0,1-.27A.92.92,0,0,0,124.79,235.62Z"/><path d="M128.74,237.33a2,2,0,0,1-1.6-.65,2.56,2.56,0,0,1-.58-1.73v-.19a2.47,2.47,0,0,1,.6-1.7,1.86,1.86,0,0,1,1.44-.67,1.73,1.73,0,0,1,1.43.6,2.42,2.42,0,0,1,.48,1.58V235h-3v0a2,2,0,0,0,.32,1.17,1.12,1.12,0,0,0,1,.44,2.26,2.26,0,0,0,.77-.12,1.82,1.82,0,0,0,.57-.35l.33.57a2.07,2.07,0,0,1-.67.41A2.72,2.72,0,0,1,128.74,237.33Zm-.14-4.25a.93.93,0,0,0-.75.35,1.59,1.59,0,0,0-.36.89v0h2.14v-.07a1.48,1.48,0,0,0-.25-.86A1,1,0,0,0,128.6,233.08Z"/><path d="M135.53,235a2.66,2.66,0,0,1-.49,1.66,1.63,1.63,0,0,1-1.36.63,1.86,1.86,0,0,1-.77-.15,1.51,1.51,0,0,1-.57-.44v2.33h-.86v-6.59h.66l.14.62a1.52,1.52,0,0,1,.58-.52,1.73,1.73,0,0,1,.81-.19,1.58,1.58,0,0,1,1.37.71,3.12,3.12,0,0,1,.49,1.85Zm-.87-.09a2.45,2.45,0,0,0-.32-1.33,1,1,0,0,0-.93-.52,1.09,1.09,0,0,0-.64.17,1.19,1.19,0,0,0-.43.46V236a1.14,1.14,0,0,0,1.08.62,1.06,1.06,0,0,0,.93-.45,2,2,0,0,0,.31-1.16Z"/><path d="M137.8,231.34v1.14h.9v.64h-.9V236a.66.66,0,0,0,.13.47.53.53,0,0,0,.37.14l.17,0,.15,0,.12.59a.73.73,0,0,1-.28.13,1.65,1.65,0,0,1-.38.05,1.14,1.14,0,0,1-.84-.32,1.36,1.36,0,0,1-.31-1v-2.89h-.76v-.64h.76v-1.14Z"/><path d="M145.86,237.24h-4v-.6l2-2.39a5.81,5.81,0,0,0,.73-1,1.65,1.65,0,0,0,.19-.77,1.05,1.05,0,0,0-.26-.73.91.91,0,0,0-.72-.28,1.07,1.07,0,0,0-.86.34,1.31,1.31,0,0,0-.3.87h-.83v0a1.7,1.7,0,0,1,.52-1.32,2,2,0,0,1,1.48-.54,1.9,1.9,0,0,1,1.35.47,1.63,1.63,0,0,1,.49,1.23,2.05,2.05,0,0,1-.27,1,11.21,11.21,0,0,1-.86,1.21l-1.61,1.89v0h2.91Z"/><path d="M150.87,235a2.54,2.54,0,0,1-.55,1.72,1.87,1.87,0,0,1-1.48.63,1.89,1.89,0,0,1-1.49-.63,2.54,2.54,0,0,1-.55-1.72V233.1a2.54,2.54,0,0,1,.55-1.72,2.05,2.05,0,0,1,3,0,2.54,2.54,0,0,1,.56,1.72Zm-.86-2.06a1.77,1.77,0,0,0-.31-1.09,1,1,0,0,0-.87-.4,1,1,0,0,0-.86.4,1.7,1.7,0,0,0-.31,1.09v2.23a1.82,1.82,0,0,0,.31,1.1,1,1,0,0,0,.87.4,1,1,0,0,0,.86-.4,1.8,1.8,0,0,0,.31-1.1Z"/><path d="M156,237.24h-4v-.6l2-2.39a6.2,6.2,0,0,0,.72-1,1.65,1.65,0,0,0,.19-.77,1,1,0,0,0-.26-.73.91.91,0,0,0-.71-.28,1.09,1.09,0,0,0-.87.34,1.36,1.36,0,0,0-.29.87H152v0a1.71,1.71,0,0,1,.53-1.32,2,2,0,0,1,1.48-.54,1.9,1.9,0,0,1,1.35.47,1.67,1.67,0,0,1,.49,1.23,2,2,0,0,1-.28,1,12.43,12.43,0,0,1-.85,1.21l-1.61,1.89v0H156Z"/><path d="M159.55,237.24h-.87v-5.6h-1.39V231l2.26-.23Z"/><path d="M199.7,236h0l2-5.2h1.08v6.4H202v-4.8h0l-1.94,4.8h-.6l-2-5h0v5h-.87v-6.4h1.14Z"/><path d="M207.15,237.24a3.63,3.63,0,0,1-.06-.38,1.84,1.84,0,0,1,0-.33,2,2,0,0,1-.63.57,1.66,1.66,0,0,1-.84.23,1.56,1.56,0,0,1-1.13-.38,1.39,1.39,0,0,1-.39-1,1.21,1.21,0,0,1,.55-1.06,2.57,2.57,0,0,1,1.5-.39h.94V234a.87.87,0,0,0-.26-.66,1,1,0,0,0-.72-.24,1,1,0,0,0-.68.21.64.64,0,0,0-.26.5h-.82v0a1.11,1.11,0,0,1,.49-.94,2,2,0,0,1,1.33-.44,1.93,1.93,0,0,1,1.3.42,1.43,1.43,0,0,1,.49,1.18v2.29a3.91,3.91,0,0,0,0,.49,2.46,2.46,0,0,0,.1.47Zm-1.43-.64a1.53,1.53,0,0,0,.84-.24,1.13,1.13,0,0,0,.5-.55V235h-1a1.24,1.24,0,0,0-.84.26.8.8,0,0,0-.32.62.65.65,0,0,0,.2.5A.85.85,0,0,0,205.72,236.6Z"/><path d="M211.43,233.25l-.45,0a1,1,0,0,0-.57.16,1.07,1.07,0,0,0-.37.46v3.4h-.86v-4.76H210l.09.7a1.66,1.66,0,0,1,.49-.58,1.17,1.17,0,0,1,.69-.21l.18,0,.15,0Z"/><path d="M214.14,236.65a1.06,1.06,0,0,0,.7-.26.88.88,0,0,0,.29-.66h.79v0a1.37,1.37,0,0,1-.53,1.09,1.84,1.84,0,0,1-1.26.48,1.88,1.88,0,0,1-1.55-.68A2.67,2.67,0,0,1,212,235v-.18a2.64,2.64,0,0,1,.55-1.69,1.87,1.87,0,0,1,1.55-.69,1.79,1.79,0,0,1,1.3.5,1.56,1.56,0,0,1,.49,1.2v0h-.79a1.05,1.05,0,0,0-.28-.74.94.94,0,0,0-.71-.3,1,1,0,0,0-.93.49,2.27,2.27,0,0,0-.29,1.2V235a2.38,2.38,0,0,0,.28,1.21A1,1,0,0,0,214.14,236.65Z"/><path d="M217.82,233.12a1.71,1.71,0,0,1,.61-.53,1.63,1.63,0,0,1,.79-.2,1.57,1.57,0,0,1,1.19.46,2,2,0,0,1,.42,1.41v3H220v-3a1.27,1.27,0,0,0-.25-.87,1,1,0,0,0-.75-.28,1.45,1.45,0,0,0-.68.15,1.24,1.24,0,0,0-.46.42v3.57H217v-6.86h.86Z"/><path d="M228.31,237.24h-4v-.6l2-2.39a5.81,5.81,0,0,0,.73-1,1.79,1.79,0,0,0,.19-.77,1.05,1.05,0,0,0-.26-.73.93.93,0,0,0-.72-.28,1.07,1.07,0,0,0-.86.34,1.31,1.31,0,0,0-.3.87h-.83v0a1.7,1.7,0,0,1,.52-1.32,2,2,0,0,1,1.48-.54,1.9,1.9,0,0,1,1.35.47,1.63,1.63,0,0,1,.49,1.23,2,2,0,0,1-.28,1,10.88,10.88,0,0,1-.85,1.21l-1.61,1.89v0h2.91Z"/><path d="M233.32,235a2.59,2.59,0,0,1-.55,1.72,1.89,1.89,0,0,1-1.49.63,1.87,1.87,0,0,1-1.48-.63,2.54,2.54,0,0,1-.56-1.72V233.1a2.54,2.54,0,0,1,.56-1.72,1.85,1.85,0,0,1,1.47-.63,1.89,1.89,0,0,1,1.49.63,2.54,2.54,0,0,1,.56,1.72Zm-.87-2.06a1.7,1.7,0,0,0-.31-1.09,1.14,1.14,0,0,0-1.73,0,1.76,1.76,0,0,0-.3,1.09v2.23a1.75,1.75,0,0,0,.31,1.1,1.14,1.14,0,0,0,1.73,0,1.8,1.8,0,0,0,.3-1.1Z"/><path d="M238.45,237.24h-4v-.6l2-2.39a5.81,5.81,0,0,0,.73-1,1.65,1.65,0,0,0,.19-.77,1.05,1.05,0,0,0-.26-.73.91.91,0,0,0-.72-.28,1.08,1.08,0,0,0-.86.34,1.31,1.31,0,0,0-.3.87h-.83v0a1.74,1.74,0,0,1,.52-1.32,2,2,0,0,1,1.48-.54,1.86,1.86,0,0,1,1.35.47,1.64,1.64,0,0,1,.5,1.23,2.07,2.07,0,0,1-.28,1,12.43,12.43,0,0,1-.85,1.21l-1.62,1.89v0h2.92Z"/><path d="M243.45,235a2.54,2.54,0,0,1-.55,1.72,1.87,1.87,0,0,1-1.48.63,1.89,1.89,0,0,1-1.49-.63,2.54,2.54,0,0,1-.55-1.72V233.1a2.54,2.54,0,0,1,.55-1.72,1.87,1.87,0,0,1,1.48-.63,1.89,1.89,0,0,1,1.49.63,2.54,2.54,0,0,1,.55,1.72Zm-.86-2.06a1.77,1.77,0,0,0-.31-1.09,1,1,0,0,0-.87-.4,1,1,0,0,0-.86.4,1.7,1.7,0,0,0-.31,1.09v2.23a1.82,1.82,0,0,0,.31,1.1,1,1,0,0,0,.87.4,1,1,0,0,0,.86-.4,1.73,1.73,0,0,0,.31-1.1Z"/><path d="M282.39,235.62a.94.94,0,0,0-.31-.72,2.62,2.62,0,0,0-1.1-.51,3.53,3.53,0,0,1-1.52-.71,1.48,1.48,0,0,1-.55-1.18,1.58,1.58,0,0,1,.59-1.25,2.57,2.57,0,0,1,3.14.07,1.74,1.74,0,0,1,.58,1.34v0h-.83a1.17,1.17,0,0,0-.38-.9,1.39,1.39,0,0,0-1-.35,1.35,1.35,0,0,0-.93.29,1,1,0,0,0-.32.77.82.82,0,0,0,.35.69,3.14,3.14,0,0,0,1.15.49,3.38,3.38,0,0,1,1.47.74,1.62,1.62,0,0,1,.51,1.21,1.51,1.51,0,0,1-.61,1.24,2.57,2.57,0,0,1-1.59.47,2.69,2.69,0,0,1-1.64-.52,1.6,1.6,0,0,1-.69-1.39v0h.83a1.07,1.07,0,0,0,.46.93,1.75,1.75,0,0,0,1,.32,1.57,1.57,0,0,0,1-.27A.92.92,0,0,0,282.39,235.62Z"/><path d="M286.33,237.33a2,2,0,0,1-1.59-.65,2.51,2.51,0,0,1-.58-1.73v-.19a2.51,2.51,0,0,1,.59-1.7,1.89,1.89,0,0,1,1.45-.67,1.73,1.73,0,0,1,1.43.6,2.48,2.48,0,0,1,.47,1.58V235h-3v0a2,2,0,0,0,.32,1.17,1.11,1.11,0,0,0,1,.44,2.26,2.26,0,0,0,.77-.12,1.71,1.71,0,0,0,.57-.35l.34.57a2.07,2.07,0,0,1-.67.41A2.77,2.77,0,0,1,286.33,237.33Zm-.13-4.25a.9.9,0,0,0-.75.35,1.59,1.59,0,0,0-.36.89v0h2.15v-.07a1.42,1.42,0,0,0-.26-.86A.92.92,0,0,0,286.2,233.08Z"/><path d="M293.13,235a2.61,2.61,0,0,1-.5,1.66,1.61,1.61,0,0,1-1.35.63,1.82,1.82,0,0,1-.77-.15,1.37,1.37,0,0,1-.57-.44v2.33h-.86v-6.59h.66l.13.62a1.6,1.6,0,0,1,.58-.52,1.76,1.76,0,0,1,.81-.19,1.6,1.6,0,0,1,1.38.71,3.19,3.19,0,0,1,.49,1.85Zm-.87-.09a2.54,2.54,0,0,0-.32-1.33,1,1,0,0,0-.94-.52,1.08,1.08,0,0,0-.63.17,1.19,1.19,0,0,0-.43.46V236a1.19,1.19,0,0,0,.43.46,1.17,1.17,0,0,0,.64.16,1.06,1.06,0,0,0,.93-.45,1.92,1.92,0,0,0,.32-1.16Z"/><path d="M295.39,231.34v1.14h.9v.64h-.9V236a.66.66,0,0,0,.14.47.51.51,0,0,0,.37.14l.17,0,.15,0,.12.59a.79.79,0,0,1-.29.13,1.57,1.57,0,0,1-.37.05,1.14,1.14,0,0,1-.84-.32,1.36,1.36,0,0,1-.31-1v-2.89h-.76v-.64h.76v-1.14Z"/><path d="M303.46,237.24h-4v-.6l2-2.39a5.65,5.65,0,0,0,.72-1,1.67,1.67,0,0,0,.2-.77,1.05,1.05,0,0,0-.26-.73.93.93,0,0,0-.72-.28,1.05,1.05,0,0,0-.86.34,1.31,1.31,0,0,0-.3.87h-.84v0a1.67,1.67,0,0,1,.52-1.32,2,2,0,0,1,1.48-.54,1.9,1.9,0,0,1,1.35.47,1.63,1.63,0,0,1,.49,1.23,2,2,0,0,1-.28,1,10.88,10.88,0,0,1-.85,1.21l-1.61,1.89v0h2.91Z"/><path d="M308.47,235a2.59,2.59,0,0,1-.55,1.72,1.89,1.89,0,0,1-1.49.63,1.87,1.87,0,0,1-1.48-.63,2.54,2.54,0,0,1-.56-1.72V233.1a2.59,2.59,0,0,1,.55-1.72,2.07,2.07,0,0,1,3,0,2.54,2.54,0,0,1,.56,1.72Zm-.87-2.06a1.7,1.7,0,0,0-.31-1.09,1.14,1.14,0,0,0-1.73,0,1.76,1.76,0,0,0-.3,1.09v2.23a1.75,1.75,0,0,0,.31,1.1,1.14,1.14,0,0,0,1.73,0,1.8,1.8,0,0,0,.3-1.1Z"/><path d="M313.6,237.24h-4v-.6l2-2.39a5.81,5.81,0,0,0,.73-1,1.65,1.65,0,0,0,.19-.77,1.05,1.05,0,0,0-.26-.73.91.91,0,0,0-.71-.28,1.09,1.09,0,0,0-.87.34,1.31,1.31,0,0,0-.29.87h-.84v0a1.74,1.74,0,0,1,.52-1.32,2,2,0,0,1,1.49-.54,1.87,1.87,0,0,1,1.34.47,1.64,1.64,0,0,1,.5,1.23,2.07,2.07,0,0,1-.28,1,12.43,12.43,0,0,1-.85,1.21l-1.62,1.89v0h2.92Z"/><path d="M318.6,235a2.54,2.54,0,0,1-.55,1.72,1.87,1.87,0,0,1-1.48.63,1.89,1.89,0,0,1-1.49-.63,2.54,2.54,0,0,1-.55-1.72V233.1a2.54,2.54,0,0,1,.55-1.72,1.87,1.87,0,0,1,1.48-.63,1.91,1.91,0,0,1,1.49.63,2.54,2.54,0,0,1,.55,1.72Zm-.86-2.06a1.77,1.77,0,0,0-.31-1.09,1,1,0,0,0-.87-.4,1,1,0,0,0-.86.4,1.7,1.7,0,0,0-.31,1.09v2.23a1.82,1.82,0,0,0,.31,1.1,1,1,0,0,0,.87.4,1,1,0,0,0,.86-.4,1.8,1.8,0,0,0,.31-1.1Z"/><path d="M440,235.62a1,1,0,0,0-.32-.72,2.51,2.51,0,0,0-1.09-.51,3.57,3.57,0,0,1-1.53-.71,1.5,1.5,0,0,1-.54-1.18,1.57,1.57,0,0,1,.58-1.25,2.27,2.27,0,0,1,1.53-.5,2.21,2.21,0,0,1,1.61.57,1.75,1.75,0,0,1,.59,1.34l0,0H440a1.2,1.2,0,0,0-.38-.9,1.42,1.42,0,0,0-1-.35,1.38,1.38,0,0,0-.93.29,1,1,0,0,0-.32.77.83.83,0,0,0,.36.69,3.08,3.08,0,0,0,1.14.49,3.37,3.37,0,0,1,1.48.74,1.65,1.65,0,0,1,.5,1.21,1.48,1.48,0,0,1-.61,1.24,2.52,2.52,0,0,1-1.58.47,2.67,2.67,0,0,1-1.64-.52,1.6,1.6,0,0,1-.69-1.39v0h.83a1.09,1.09,0,0,0,.45.93,1.8,1.8,0,0,0,1,.32,1.59,1.59,0,0,0,1-.27A.92.92,0,0,0,440,235.62Z"/><path d="M443.93,237.33a2,2,0,0,1-1.6-.65,2.56,2.56,0,0,1-.57-1.73v-.19a2.46,2.46,0,0,1,.59-1.7,1.86,1.86,0,0,1,1.44-.67,1.71,1.71,0,0,1,1.43.6,2.42,2.42,0,0,1,.48,1.58V235h-3v0a2,2,0,0,0,.31,1.17,1.12,1.12,0,0,0,1,.44,2.26,2.26,0,0,0,.77-.12,1.82,1.82,0,0,0,.57-.35l.34.57a2.12,2.12,0,0,1-.68.41A2.68,2.68,0,0,1,443.93,237.33Zm-.14-4.25a.93.93,0,0,0-.75.35,1.59,1.59,0,0,0-.36.89v0h2.14v-.07a1.41,1.41,0,0,0-.25-.86A.93.93,0,0,0,443.79,233.08Z"/><path d="M450.72,235a2.6,2.6,0,0,1-.49,1.66,1.63,1.63,0,0,1-1.36.63,1.86,1.86,0,0,1-.77-.15,1.41,1.41,0,0,1-.56-.44v2.33h-.87v-6.59h.66l.14.62a1.6,1.6,0,0,1,.58-.52,1.73,1.73,0,0,1,.81-.19,1.57,1.57,0,0,1,1.37.71,3.12,3.12,0,0,1,.49,1.85Zm-.86-.09a2.54,2.54,0,0,0-.32-1.33,1,1,0,0,0-.94-.52,1.11,1.11,0,0,0-.64.17,1.17,1.17,0,0,0-.42.46V236a1.17,1.17,0,0,0,.42.46,1.21,1.21,0,0,0,.65.16,1.06,1.06,0,0,0,.93-.45,2,2,0,0,0,.32-1.16Z"/><path d="M453,231.34v1.14h.9v.64H453V236a.66.66,0,0,0,.14.47.5.5,0,0,0,.37.14l.16,0,.16,0,.11.59a.73.73,0,0,1-.28.13,1.64,1.64,0,0,1-.37.05,1.11,1.11,0,0,1-.84-.32,1.36,1.36,0,0,1-.32-1v-2.89h-.75v-.64h.75v-1.14Z"/><path d="M461.06,237.24h-4v-.6l2-2.39a5.81,5.81,0,0,0,.73-1,1.65,1.65,0,0,0,.19-.77,1.05,1.05,0,0,0-.26-.73.91.91,0,0,0-.71-.28,1.09,1.09,0,0,0-.87.34,1.31,1.31,0,0,0-.29.87H457v0a1.74,1.74,0,0,1,.52-1.32,2,2,0,0,1,1.49-.54,1.85,1.85,0,0,1,1.34.47,1.64,1.64,0,0,1,.5,1.23,2.07,2.07,0,0,1-.28,1,12.43,12.43,0,0,1-.85,1.21l-1.62,1.89v0h2.92Z"/><path d="M466.06,235a2.54,2.54,0,0,1-.55,1.72,2.05,2.05,0,0,1-3,0A2.49,2.49,0,0,1,462,235V233.1a2.54,2.54,0,0,1,.55-1.72,1.87,1.87,0,0,1,1.48-.63,1.89,1.89,0,0,1,1.49.63,2.54,2.54,0,0,1,.55,1.72Zm-.86-2.06a1.77,1.77,0,0,0-.31-1.09,1,1,0,0,0-.87-.4,1,1,0,0,0-.86.4,1.76,1.76,0,0,0-.3,1.09v2.23a1.75,1.75,0,0,0,.31,1.1,1.12,1.12,0,0,0,1.72,0,1.73,1.73,0,0,0,.31-1.1Z"/><path d="M471.19,237.24h-4v-.6l2-2.39a5.81,5.81,0,0,0,.73-1,1.79,1.79,0,0,0,.19-.77,1.05,1.05,0,0,0-.26-.73.93.93,0,0,0-.72-.28,1.07,1.07,0,0,0-.86.34,1.31,1.31,0,0,0-.3.87h-.83v0a1.7,1.7,0,0,1,.52-1.32,2,2,0,0,1,1.48-.54,1.9,1.9,0,0,1,1.35.47,1.63,1.63,0,0,1,.49,1.23,2,2,0,0,1-.28,1,10.88,10.88,0,0,1-.85,1.21l-1.61,1.89v0h2.91Z"/><path d="M474.75,237.24h-.87v-5.6h-1.4V231l2.27-.23Z"/><path d="M357.3,236h0l2-5.2h1.08v6.4h-.87v-4.8h0l-1.93,4.8H357l-2-5h0v5h-.86v-6.4h1.14Z"/><path d="M364.75,237.24c0-.15-.05-.27-.07-.38l0-.33a2,2,0,0,1-.63.57,1.65,1.65,0,0,1-.83.23,1.58,1.58,0,0,1-1.14-.38,1.42,1.42,0,0,1-.38-1,1.21,1.21,0,0,1,.55-1.06,2.51,2.51,0,0,1,1.49-.39h.94V234a.86.86,0,0,0-.25-.66,1,1,0,0,0-.72-.24,1,1,0,0,0-.68.21.61.61,0,0,0-.26.5h-.82v0a1.13,1.13,0,0,1,.48-.94,2,2,0,0,1,1.34-.44,2,2,0,0,1,1.3.42,1.46,1.46,0,0,1,.49,1.18v2.29a3.91,3.91,0,0,0,0,.49,1.86,1.86,0,0,0,.09.47Zm-1.44-.64a1.53,1.53,0,0,0,.85-.24,1.1,1.1,0,0,0,.49-.55V235h-1a1.24,1.24,0,0,0-.84.26.82.82,0,0,0-.31.62.65.65,0,0,0,.2.5A.82.82,0,0,0,363.31,236.6Z"/><path d="M369,233.25l-.45,0a1.07,1.07,0,0,0-.58.16,1.12,1.12,0,0,0-.36.46v3.4h-.86v-4.76h.77l.08.7a1.69,1.69,0,0,1,.5-.58,1.16,1.16,0,0,1,.68-.21l.19,0,.14,0Z"/><path d="M371.73,236.65a1,1,0,0,0,.7-.26.85.85,0,0,0,.3-.66h.78l0,0a1.37,1.37,0,0,1-.53,1.09,1.88,1.88,0,0,1-1.27.48,1.86,1.86,0,0,1-1.54-.68,2.61,2.61,0,0,1-.55-1.7v-.18a2.58,2.58,0,0,1,.55-1.69,1.85,1.85,0,0,1,1.54-.69,1.81,1.81,0,0,1,1.31.5,1.59,1.59,0,0,1,.49,1.2v0h-.79a1.05,1.05,0,0,0-.28-.74,1,1,0,0,0-.72-.3,1,1,0,0,0-.93.49,2.37,2.37,0,0,0-.29,1.2V235a2.38,2.38,0,0,0,.29,1.21A1,1,0,0,0,371.73,236.65Z"/><path d="M375.42,233.12a1.68,1.68,0,0,1,.6-.53,1.67,1.67,0,0,1,.8-.2,1.55,1.55,0,0,1,1.18.46,2,2,0,0,1,.43,1.41v3h-.87v-3a1.27,1.27,0,0,0-.25-.87,1,1,0,0,0-.76-.28,1.44,1.44,0,0,0-.67.15,1.24,1.24,0,0,0-.46.42v3.57h-.87v-6.86h.87Z"/><path d="M385.91,237.24h-4v-.6l2-2.39a5.65,5.65,0,0,0,.72-1,1.65,1.65,0,0,0,.19-.77,1,1,0,0,0-.26-.73.91.91,0,0,0-.71-.28,1.09,1.09,0,0,0-.87.34,1.36,1.36,0,0,0-.29.87h-.84v0a1.71,1.71,0,0,1,.53-1.32,2,2,0,0,1,1.48-.54,1.9,1.9,0,0,1,1.35.47,1.67,1.67,0,0,1,.49,1.23,2,2,0,0,1-.28,1,12.43,12.43,0,0,1-.85,1.21L383,236.54v0h2.91Z"/><path d="M390.91,235a2.54,2.54,0,0,1-.55,1.72,2.05,2.05,0,0,1-3,0,2.54,2.54,0,0,1-.56-1.72V233.1a2.54,2.54,0,0,1,.55-1.72,1.87,1.87,0,0,1,1.48-.63,1.89,1.89,0,0,1,1.49.63,2.54,2.54,0,0,1,.55,1.72Zm-.86-2.06a1.7,1.7,0,0,0-.31-1.09,1.14,1.14,0,0,0-1.73,0,1.76,1.76,0,0,0-.3,1.09v2.23a1.75,1.75,0,0,0,.31,1.1,1,1,0,0,0,.86.4,1,1,0,0,0,.87-.4,1.8,1.8,0,0,0,.3-1.1Z"/><path d="M396,237.24h-4v-.6l2-2.39a5.81,5.81,0,0,0,.73-1,1.79,1.79,0,0,0,.19-.77,1.05,1.05,0,0,0-.26-.73.93.93,0,0,0-.72-.28,1.07,1.07,0,0,0-.86.34,1.31,1.31,0,0,0-.3.87H392v0a1.7,1.7,0,0,1,.52-1.32,2,2,0,0,1,1.48-.54,1.9,1.9,0,0,1,1.35.47,1.63,1.63,0,0,1,.49,1.23,2,2,0,0,1-.28,1,10.88,10.88,0,0,1-.85,1.21l-1.61,1.89v0H396Z"/><path d="M399.6,237.24h-.87v-5.6h-1.39V231l2.26-.23Z"/><path class="cls-3" d="M122.39,257.41l1.13-1.13h0l4.33-4.33-4.33-4.33h0l-1.13-1.13L116.93,252Zm-4-6.21.75.75-.75.75-.76-.75Zm8,1.5-.75-.75.75-.75.76.75Zm-3.22,3.23h0l-.78.78-1.77-1.77,1.42-1.42-1.46-1.45-1.06,1.06.73.73.35-.36-.37-.37.35-.36.76.75-1.07,1.07-1.53-1.53,1.11-1.11-1.11-1.11,1.53-1.53,1.07,1.06-.76.76-.35-.36.37-.37-.35-.36-.73.73,1.06,1.06,1.46-1.46L120.62,249l1-1h0l.78-.78.78.78h0l1,1-1.42,1.41,1.46,1.46,1.06-1.06-.73-.73-.35.36.37.37-.35.36-.76-.76,1.07-1.06,1.53,1.53-1.1,1.11,1.1,1.11-1.53,1.53-1.07-1.07.76-.75.35.36-.37.37.35.36.73-.73-1.06-1.06-1.46,1.45,1.42,1.42Z"/><rect class="cls-3" x="121.53" y="254.06" width="1.72" height="1.72" transform="translate(389.19 348.63) rotate(135)"/><rect class="cls-3" x="121.53" y="248.08" width="1.72" height="1.72" transform="translate(384.96 338.43) rotate(135)"/><path d="M135.24,251.73v2.77h-.87v-6.4h2.19a2.42,2.42,0,0,1,1.6.47,1.67,1.67,0,0,1,.56,1.36,1.45,1.45,0,0,1-.26.85,1.72,1.72,0,0,1-.75.58,1.36,1.36,0,0,1,.76.56,1.83,1.83,0,0,1,.23,1v.6a2.23,2.23,0,0,0,.06.54.81.81,0,0,0,.23.38v.11h-.89a.74.74,0,0,1-.22-.44,3.83,3.83,0,0,1,0-.6v-.58a1.17,1.17,0,0,0-.3-.84,1.06,1.06,0,0,0-.81-.31Zm0-.68h1.23a1.66,1.66,0,0,0,1.06-.28,1.09,1.09,0,0,0,.32-.85,1.07,1.07,0,0,0-.32-.84,1.34,1.34,0,0,0-1-.3h-1.32Z"/><path d="M143,253.8a1.73,1.73,0,0,1-.58.59,1.65,1.65,0,0,1-.81.2,1.51,1.51,0,0,1-1.22-.5,2.28,2.28,0,0,1-.43-1.54v-2.81h.87v2.82a1.76,1.76,0,0,0,.22,1,.84.84,0,0,0,.7.29,1.36,1.36,0,0,0,.76-.19,1.2,1.2,0,0,0,.46-.53v-3.43h.86v4.76h-.78Z"/><path d="M147.34,250.51l-.44,0a1,1,0,0,0-.58.17,1,1,0,0,0-.36.45v3.4h-.87v-4.76h.78l.08.7a1.59,1.59,0,0,1,.5-.58,1.21,1.21,0,0,1,.68-.2h.19l.14,0Z"/><path d="M151.17,254.5a3.48,3.48,0,0,1-.07-.38,1.84,1.84,0,0,1,0-.33,1.93,1.93,0,0,1-.63.57,1.66,1.66,0,0,1-.84.23,1.52,1.52,0,0,1-1.13-.38,1.39,1.39,0,0,1-.39-1.05,1.21,1.21,0,0,1,.55-1.06,2.57,2.57,0,0,1,1.5-.39h.94v-.47a.88.88,0,0,0-.26-.66,1,1,0,0,0-.72-.24,1,1,0,0,0-.68.21.64.64,0,0,0-.26.5h-.82v0a1.12,1.12,0,0,1,.49-.95,2,2,0,0,1,1.33-.43,1.93,1.93,0,0,1,1.3.41,1.44,1.44,0,0,1,.49,1.18v2.29a3.79,3.79,0,0,0,0,.49,2.46,2.46,0,0,0,.1.47Zm-1.44-.63a1.51,1.51,0,0,0,.85-.25,1.15,1.15,0,0,0,.49-.55v-.77h-1a1.3,1.3,0,0,0-.84.26.79.79,0,0,0-.31.62.65.65,0,0,0,.19.5A.85.85,0,0,0,149.73,253.87Z"/><path d="M154.13,254.5h-.87v-6.86h.87Z"/><path class="cls-4" d="M182.39,257.41l1.13-1.13h0l4.33-4.33-4.33-4.33h0l-1.13-1.13L176.93,252Zm-4-6.21.75.75-.75.75-.76-.75Zm8,1.5-.75-.75.75-.75.76.75Zm-3.22,3.23h0l-.78.78-1.77-1.77,1.42-1.42-1.46-1.45-1.06,1.06.73.73.35-.36-.37-.37.35-.36.76.75-1.07,1.07-1.53-1.53,1.11-1.11-1.11-1.11,1.53-1.53,1.07,1.06-.76.76-.35-.36.37-.37-.35-.36-.73.73,1.06,1.06,1.46-1.46L180.62,249l1-1h0l.78-.78.78.78h0l1,1-1.42,1.41,1.46,1.46,1.06-1.06-.73-.73-.35.36.37.37-.35.36-.76-.76,1.07-1.06,1.53,1.53-1.1,1.11,1.1,1.11-1.53,1.53-1.07-1.07.76-.75.35.36-.37.37.35.36.73-.73-1.06-1.06-1.46,1.45,1.42,1.42Z"/><rect class="cls-4" x="181.53" y="254.06" width="1.72" height="1.72" transform="translate(491.62 306.21) rotate(135)"/><rect class="cls-4" x="181.53" y="248.08" width="1.72" height="1.72" transform="translate(487.39 296) rotate(135)"/><path d="M199.09,248.1v4.25a2.07,2.07,0,0,1-.69,1.65,2.6,2.6,0,0,1-1.76.59,2.48,2.48,0,0,1-1.71-.59,2.12,2.12,0,0,1-.66-1.65V248.1h.86v4.25a1.55,1.55,0,0,0,.42,1.15,1.47,1.47,0,0,0,1.09.42,1.59,1.59,0,0,0,1.14-.42,1.49,1.49,0,0,0,.44-1.15V248.1Z"/><path d="M202.59,250.51l-.44,0a1,1,0,0,0-.58.17,1,1,0,0,0-.36.45v3.4h-.87v-4.76h.77l.09.7a1.59,1.59,0,0,1,.5-.58,1.19,1.19,0,0,1,.68-.2h.18l.15,0Z"/><path d="M207.55,252.3a2.6,2.6,0,0,1-.49,1.66,1.64,1.64,0,0,1-1.36.63,1.7,1.7,0,0,1-.83-.19,1.43,1.43,0,0,1-.57-.55l-.14.65h-.67v-6.86h.87v2.67a1.51,1.51,0,0,1,.55-.49,1.75,1.75,0,0,1,.78-.16,1.58,1.58,0,0,1,1.37.7,3.14,3.14,0,0,1,.49,1.85Zm-.86-.09a2.62,2.62,0,0,0-.3-1.33,1,1,0,0,0-.92-.52,1.18,1.18,0,0,0-.67.19,1.42,1.42,0,0,0-.44.53v2.06a1.28,1.28,0,0,0,.44.55,1.12,1.12,0,0,0,.68.2,1,1,0,0,0,.91-.44,2,2,0,0,0,.3-1.15Z"/><path d="M211.53,254.5c0-.14-.05-.27-.07-.38l0-.33a1.93,1.93,0,0,1-.63.57,1.65,1.65,0,0,1-.83.23,1.54,1.54,0,0,1-1.14-.38,1.43,1.43,0,0,1-.39-1.05,1.22,1.22,0,0,1,.56-1.06,2.51,2.51,0,0,1,1.49-.39h.94v-.47a.87.87,0,0,0-.25-.66,1,1,0,0,0-.72-.24,1,1,0,0,0-.68.21.61.61,0,0,0-.26.5h-.82v0a1.13,1.13,0,0,1,.48-.95,2,2,0,0,1,1.34-.43,2,2,0,0,1,1.3.41,1.47,1.47,0,0,1,.49,1.18v2.29a3.79,3.79,0,0,0,0,.49,1.86,1.86,0,0,0,.09.47Zm-1.44-.63a1.47,1.47,0,0,0,.85-.25,1.1,1.1,0,0,0,.49-.55v-.77h-1a1.32,1.32,0,0,0-.84.26.82.82,0,0,0-.31.62.65.65,0,0,0,.2.5A.84.84,0,0,0,210.09,253.87Z"/><path d="M214.33,249.74l.06.71a1.66,1.66,0,0,1,.6-.58,1.75,1.75,0,0,1,2,.24,2,2,0,0,1,.42,1.39v3h-.86v-3a1.33,1.33,0,0,0-.25-.89,1,1,0,0,0-.76-.26,1.32,1.32,0,0,0-.68.16,1.27,1.27,0,0,0-.44.45v3.53h-.86v-4.76Z"/><path class="cls-5" d="M242.39,257.41l1.13-1.13h0l4.33-4.33-4.33-4.33h0l-1.13-1.13L236.93,252Zm-4-6.21.75.75-.75.75-.76-.75Zm8,1.5-.75-.75.75-.75.76.75Zm-3.22,3.23h0l-.78.78-1.77-1.77,1.42-1.42-1.46-1.45-1.06,1.06.73.73.35-.36-.37-.37.35-.36.76.75-1.07,1.07-1.53-1.53,1.11-1.11-1.11-1.11,1.53-1.53,1.07,1.06-.76.76-.35-.36.37-.37-.35-.36-.73.73,1.06,1.06,1.46-1.46L240.62,249l1-1h0l.78-.78.78.78h0l1,1-1.42,1.41,1.46,1.46,1.06-1.06-.73-.73-.35.36.37.37-.35.36-.76-.76,1.07-1.06,1.53,1.53-1.1,1.11,1.1,1.11-1.53,1.53-1.07-1.07.76-.75.35.36-.37.37.35.36.73-.73-1.06-1.06-1.46,1.45,1.42,1.42Z"/><rect class="cls-5" x="241.53" y="254.06" width="1.72" height="1.72" transform="translate(594.04 263.78) rotate(135)"/><rect class="cls-5" x="241.53" y="248.08" width="1.72" height="1.72" transform="translate(589.81 253.57) rotate(135)"/><path d="M258.84,248.78h-2.11v5.72h-.86v-5.72h-2.09v-.68h5.06Z"/><path d="M259,252.08a2.62,2.62,0,0,1,.57-1.74,2.12,2.12,0,0,1,3.11,0,2.61,2.61,0,0,1,.58,1.74v.1a2.65,2.65,0,0,1-.58,1.74,2.13,2.13,0,0,1-3.11,0,2.6,2.6,0,0,1-.57-1.73Zm.86.1a2.26,2.26,0,0,0,.32,1.24,1.14,1.14,0,0,0,1.89,0,2.26,2.26,0,0,0,.32-1.24v-.1a2.32,2.32,0,0,0-.32-1.25,1.07,1.07,0,0,0-.95-.49,1,1,0,0,0-.94.49,2.32,2.32,0,0,0-.32,1.25Z"/><path d="M265.52,248.6v1.14h.9v.65h-.9v2.88a.6.6,0,0,0,.14.47.49.49,0,0,0,.36.14l.17,0,.15,0,.12.59a.73.73,0,0,1-.28.13,1.65,1.65,0,0,1-.38.05,1.1,1.1,0,0,1-.84-.32,1.41,1.41,0,0,1-.31-1v-2.88h-.75v-.65h.75V248.6Z"/><path d="M270.27,254.5c0-.14,0-.27-.07-.38a1.84,1.84,0,0,1,0-.33,1.93,1.93,0,0,1-.63.57,1.66,1.66,0,0,1-.84.23,1.53,1.53,0,0,1-1.13-.38,1.39,1.39,0,0,1-.39-1.05,1.22,1.22,0,0,1,.56-1.06,2.51,2.51,0,0,1,1.49-.39h.94v-.47a.87.87,0,0,0-.25-.66,1,1,0,0,0-.72-.24,1.09,1.09,0,0,0-.69.21.63.63,0,0,0-.25.5h-.83v0a1.14,1.14,0,0,1,.49-.95,2,2,0,0,1,1.34-.43,2,2,0,0,1,1.3.41,1.47,1.47,0,0,1,.49,1.18v2.29c0,.17,0,.34,0,.49a2.46,2.46,0,0,0,.1.47Zm-1.44-.63a1.49,1.49,0,0,0,.85-.25,1.15,1.15,0,0,0,.49-.55v-.77h-1a1.3,1.3,0,0,0-.84.26.79.79,0,0,0-.31.62.62.62,0,0,0,.2.5A.82.82,0,0,0,268.83,253.87Z"/><path d="M273.23,254.5h-.87v-6.86h.87Z"/><line class="cls-7" x1="290.88" y1="251.95" x2="313.68" y2="251.95"/><path d="M323.16,251.73v2.77h-.86v-6.4h2.18a2.45,2.45,0,0,1,1.61.47,1.67,1.67,0,0,1,.55,1.36,1.38,1.38,0,0,1-.26.85,1.75,1.75,0,0,1-.74.58,1.3,1.3,0,0,1,.75.56,1.74,1.74,0,0,1,.24,1v.6a2.23,2.23,0,0,0,.06.54.74.74,0,0,0,.23.38v.11H326a.69.69,0,0,1-.22-.44,2.92,2.92,0,0,1-.05-.6v-.58a1.17,1.17,0,0,0-.3-.84,1.1,1.1,0,0,0-.82-.31Zm0-.68h1.24a1.61,1.61,0,0,0,1.05-.28,1.06,1.06,0,0,0,.33-.85,1.11,1.11,0,0,0-.32-.84,1.37,1.37,0,0,0-1-.3h-1.32Z"/><path d="M328.89,251.93v2.57H328v-6.4h2.45a2.26,2.26,0,0,1,1.59.53,2,2,0,0,1,0,2.78,2.26,2.26,0,0,1-1.59.52Zm0-.67h1.58a1.26,1.26,0,0,0,1-.35,1.24,1.24,0,0,0,.32-.88,1.3,1.3,0,0,0-.32-.89,1.25,1.25,0,0,0-1-.36h-1.58Z"/><path d="M336.33,248.1h.87v4.54a1.85,1.85,0,0,1-.55,1.42,1.89,1.89,0,0,1-1.4.53,2,2,0,0,1-1.41-.47,1.7,1.7,0,0,1-.5-1.36v0h.83a1.24,1.24,0,0,0,.28.88,1,1,0,0,0,.79.3,1,1,0,0,0,.78-.35,1.37,1.37,0,0,0,.3-.93Z"/><path d="M341.85,253.3h0l2-5.2H345v6.4h-.87v-4.8h0l-1.94,4.8h-.6l-2-5h0v4.95h-.87v-6.4h1.14Z"/><path d="M351.34,254.5h-.87l-3.08-4.89h0v4.88h-.86v-6.4h.86l3.08,4.88h0V248.1h.87Z"/><path d="M359,254.5h-4v-.59l2-2.4a6.2,6.2,0,0,0,.73-1,1.72,1.72,0,0,0,.19-.78,1.05,1.05,0,0,0-.26-.73.91.91,0,0,0-.72-.28,1.09,1.09,0,0,0-.86.35,1.27,1.27,0,0,0-.3.86h-.83v0a1.75,1.75,0,0,1,.52-1.33,2,2,0,0,1,1.48-.54,1.88,1.88,0,0,1,1.35.47,1.63,1.63,0,0,1,.49,1.23,2,2,0,0,1-.27,1,11.32,11.32,0,0,1-.85,1.21L356,253.8v0H359Z"/><path d="M364,252.24a2.52,2.52,0,0,1-.55,1.72,1.87,1.87,0,0,1-1.48.63,1.89,1.89,0,0,1-1.49-.63,2.52,2.52,0,0,1-.55-1.72v-1.88a2.49,2.49,0,0,1,.55-1.71,1.85,1.85,0,0,1,1.48-.64,1.88,1.88,0,0,1,1.49.64,2.49,2.49,0,0,1,.55,1.71Zm-.86-2.06a1.79,1.79,0,0,0-.31-1.09,1,1,0,0,0-.87-.4,1,1,0,0,0-.86.4,1.72,1.72,0,0,0-.31,1.09v2.24a1.79,1.79,0,0,0,.31,1.09,1,1,0,0,0,.87.41,1,1,0,0,0,.86-.41,1.79,1.79,0,0,0,.31-1.09Z"/><path d="M369.09,254.5h-4v-.59l2-2.4a6.65,6.65,0,0,0,.72-1,1.72,1.72,0,0,0,.19-.78,1,1,0,0,0-.26-.73.91.91,0,0,0-.71-.28,1.09,1.09,0,0,0-.87.35,1.31,1.31,0,0,0-.29.86h-.84v0a1.72,1.72,0,0,1,.53-1.33,2,2,0,0,1,1.48-.54,1.9,1.9,0,0,1,1.35.47,1.67,1.67,0,0,1,.49,1.23,1.91,1.91,0,0,1-.28,1,11.32,11.32,0,0,1-.85,1.21l-1.61,1.89v0h2.91Z"/><path d="M373.45,252.35h.88V253h-.88v1.48h-.86V253h-2.75v-.49l2.69-4.43h.92Zm-2.68,0h1.82v-3h0l-.08.22Z"/><path d="M382.05,248.78h-2.11v5.72h-.87v-5.72H377v-.68h5.06Z"/><path d="M385.27,254.5a3.48,3.48,0,0,1-.07-.38,1.84,1.84,0,0,1,0-.33,1.93,1.93,0,0,1-.63.57,1.66,1.66,0,0,1-.84.23,1.53,1.53,0,0,1-1.13-.38,1.39,1.39,0,0,1-.39-1.05,1.21,1.21,0,0,1,.55-1.06,2.57,2.57,0,0,1,1.5-.39h.94v-.47a.88.88,0,0,0-.26-.66,1,1,0,0,0-.72-.24,1,1,0,0,0-.68.21.64.64,0,0,0-.26.5h-.82v0a1.12,1.12,0,0,1,.49-.95,2,2,0,0,1,1.33-.43,1.93,1.93,0,0,1,1.3.41,1.45,1.45,0,0,1,.5,1.18v2.29a3.85,3.85,0,0,0,0,.49,2.46,2.46,0,0,0,.1.47Zm-1.44-.63a1.51,1.51,0,0,0,.85-.25,1.15,1.15,0,0,0,.49-.55v-.77h-1a1.3,1.3,0,0,0-.84.26.79.79,0,0,0-.31.62.65.65,0,0,0,.19.5A.87.87,0,0,0,383.83,253.87Z"/><path d="M389.54,250.51l-.44,0a1,1,0,0,0-.58.17,1,1,0,0,0-.36.45v3.4h-.87v-4.76h.77l.09.7a1.59,1.59,0,0,1,.5-.58,1.19,1.19,0,0,1,.68-.2h.18l.15,0Z"/><path d="M390.21,252.21a3.14,3.14,0,0,1,.49-1.85,1.55,1.55,0,0,1,1.36-.7,1.59,1.59,0,0,1,1.38.7l.1-.62h.69v4.79a1.82,1.82,0,0,1-.53,1.4,2.18,2.18,0,0,1-1.53.49,3.47,3.47,0,0,1-.75-.09,3.39,3.39,0,0,1-.7-.26l.14-.67a3,3,0,0,0,.6.21,3.42,3.42,0,0,0,.7.08,1.28,1.28,0,0,0,.92-.29,1.18,1.18,0,0,0,.29-.87V254a1.71,1.71,0,0,1-.56.45,1.81,1.81,0,0,1-.76.15,1.6,1.6,0,0,1-1.35-.63,2.6,2.6,0,0,1-.49-1.66Zm.86.09a2,2,0,0,0,.3,1.15,1,1,0,0,0,.91.44,1.13,1.13,0,0,0,.65-.18,1.43,1.43,0,0,0,.44-.5V251a1.46,1.46,0,0,0-.44-.48,1.13,1.13,0,0,0-.65-.18,1,1,0,0,0-.91.51,2.66,2.66,0,0,0-.3,1.34Z"/><path d="M397.44,254.59a2,2,0,0,1-1.59-.65,2.5,2.5,0,0,1-.58-1.73V252a2.47,2.47,0,0,1,.59-1.69,1.86,1.86,0,0,1,1.45-.67,1.72,1.72,0,0,1,1.43.59,2.5,2.5,0,0,1,.47,1.58v.45h-3v0a2,2,0,0,0,.32,1.16,1.09,1.09,0,0,0,1,.45,2.21,2.21,0,0,0,.77-.13,1.49,1.49,0,0,0,.57-.35l.34.57a2.07,2.07,0,0,1-.67.41A2.54,2.54,0,0,1,397.44,254.59Zm-.13-4.25a.93.93,0,0,0-.75.35,1.59,1.59,0,0,0-.36.89v0h2.15v-.07a1.37,1.37,0,0,0-.26-.85A.9.9,0,0,0,397.31,250.34Z"/><path d="M401.39,248.6v1.14h.9v.65h-.9v2.88a.64.64,0,0,0,.14.47.49.49,0,0,0,.36.14l.17,0,.15,0,.12.59a.73.73,0,0,1-.28.13,1.65,1.65,0,0,1-.38.05,1.06,1.06,0,0,1-.83-.32,1.36,1.36,0,0,1-.32-1v-2.88h-.75v-.65h.75V248.6Z"/><line class="cls-8" x1="21.39" y1="145.63" x2="498.13" y2="145.63"/><path class="cls-1" d="M58.13,155.92a1.06,1.06,0,0,1,.43.38,1,1,0,0,1,.16.57,1.15,1.15,0,0,1-.17.62,1.2,1.2,0,0,1-.48.41,1.64,1.64,0,0,1-.67.14,1.48,1.48,0,0,1-1.15-.45,1.82,1.82,0,0,1-.42-1.29,2.19,2.19,0,0,1,.23-1,1.59,1.59,0,0,1,.62-.64,1.89,1.89,0,0,1,.94-.22,2.33,2.33,0,0,1,.53.06,1.27,1.27,0,0,1,.44.18l-.3.59a1.18,1.18,0,0,0-.65-.17,1,1,0,0,0-.71.26,1.12,1.12,0,0,0-.28.75,1.21,1.21,0,0,1,.87-.31A1.4,1.4,0,0,1,58.13,155.92Zm-.36,1.37a.47.47,0,0,0,.17-.38.49.49,0,0,0-.17-.38.63.63,0,0,0-.43-.14.63.63,0,0,0-.43.15.45.45,0,0,0-.17.37.48.48,0,0,0,.16.38.64.64,0,0,0,.45.14A.58.58,0,0,0,57.77,157.29Z"/><path class="cls-1" d="M59.18,157.88a.51.51,0,0,1,0-.7.48.48,0,0,1,.35-.13.47.47,0,0,1,.34.13.51.51,0,0,1,0,.7.48.48,0,0,1-.34.14A.48.48,0,0,1,59.18,157.88Z"/><path class="cls-1" d="M62.61,155.92a1.13,1.13,0,0,1,.43.38,1,1,0,0,1,.16.57,1.15,1.15,0,0,1-.17.62,1.2,1.2,0,0,1-.48.41,1.64,1.64,0,0,1-.67.14,1.48,1.48,0,0,1-1.15-.45,1.82,1.82,0,0,1-.42-1.29,2.19,2.19,0,0,1,.23-1,1.59,1.59,0,0,1,.62-.64,1.89,1.89,0,0,1,.94-.22,2.33,2.33,0,0,1,.53.06,1.27,1.27,0,0,1,.44.18l-.3.59a1.18,1.18,0,0,0-.65-.17,1,1,0,0,0-.71.26,1.12,1.12,0,0,0-.28.75,1.21,1.21,0,0,1,.87-.31A1.4,1.4,0,0,1,62.61,155.92Zm-.35,1.37a.5.5,0,0,0,.16-.38.51.51,0,0,0-.16-.38.68.68,0,0,0-.44-.14.63.63,0,0,0-.43.15.45.45,0,0,0-.17.37.48.48,0,0,0,.16.38.64.64,0,0,0,.45.14A.6.6,0,0,0,62.26,157.29Z"/><path class="cls-1" d="M65.88,154.87a1.84,1.84,0,0,1,.41,1.28,2.14,2.14,0,0,1-.22,1,1.52,1.52,0,0,1-.63.65,1.88,1.88,0,0,1-.93.22A2.35,2.35,0,0,1,64,158a1.3,1.3,0,0,1-.43-.18l.3-.6a1.11,1.11,0,0,0,.65.18,1,1,0,0,0,.71-.26,1.16,1.16,0,0,0,.28-.76,1.17,1.17,0,0,1-.87.31,1.33,1.33,0,0,1-.61-.13,1.09,1.09,0,0,1-.44-.38,1.12,1.12,0,0,1-.16-.58,1.07,1.07,0,0,1,.18-.61,1.11,1.11,0,0,1,.47-.41,1.69,1.69,0,0,1,.68-.14A1.49,1.49,0,0,1,65.88,154.87Zm-.66,1a.49.49,0,0,0,.17-.38.48.48,0,0,0-.17-.37.6.6,0,0,0-.44-.15.65.65,0,0,0-.43.14.51.51,0,0,0-.16.38.53.53,0,0,0,.16.39.68.68,0,0,0,.44.14A.63.63,0,0,0,65.22,155.92Z"/><path class="cls-1" d="M66.86,156.11a1.16,1.16,0,0,1,0-1.41.86.86,0,0,1,.63-.26.83.83,0,0,1,.63.26,1.16,1.16,0,0,1,0,1.41.83.83,0,0,1-.63.26A.86.86,0,0,1,66.86,156.11Zm.9-.29a.76.76,0,0,0,.1-.42.75.75,0,0,0-.1-.41.33.33,0,0,0-.27-.14.3.3,0,0,0-.26.14.69.69,0,0,0-.1.41.73.73,0,0,0,.1.42.3.3,0,0,0,.26.14A.33.33,0,0,0,67.76,155.82Zm1.82-1.34h.59L67.78,158h-.59Zm-.16,3.42a.79.79,0,0,1-.31-.34,1.13,1.13,0,0,1-.11-.51,1.19,1.19,0,0,1,.11-.51.82.82,0,0,1,.31-.33.84.84,0,0,1,.45-.12.82.82,0,0,1,.62.26,1.12,1.12,0,0,1,0,1.41.82.82,0,0,1-.62.26A.84.84,0,0,1,69.42,157.9Zm.71-.43a.73.73,0,0,0,.1-.42.69.69,0,0,0-.1-.41.3.3,0,0,0-.26-.14.33.33,0,0,0-.27.14.75.75,0,0,0-.1.41.76.76,0,0,0,.1.42.33.33,0,0,0,.27.14A.3.3,0,0,0,70.13,157.47Z"/><path d="M115.46,80.41v4.2h-1V81.19h-.84v-.78Z"/><path d="M119.33,83.82v.79h-3.17V84l1.61-1.53a1.63,1.63,0,0,0,.35-.42.79.79,0,0,0,.09-.35.45.45,0,0,0-.17-.39.78.78,0,0,0-.5-.14,1.18,1.18,0,0,0-.5.11.92.92,0,0,0-.37.31l-.71-.45a1.68,1.68,0,0,1,.68-.58,2.4,2.4,0,0,1,1-.2,2.07,2.07,0,0,1,.82.15,1.33,1.33,0,0,1,.55.43,1.14,1.14,0,0,1,.19.66,1.53,1.53,0,0,1-.14.64,2.77,2.77,0,0,1-.56.69l-1,.91Z"/><path d="M119.93,84.49a.6.6,0,0,1,0-.84.6.6,0,0,1,.41-.16.63.63,0,0,1,.42.16.63.63,0,0,1,0,.84.59.59,0,0,1-.42.17A.57.57,0,0,1,119.93,84.49Z"/><path d="M124,82.14a1.29,1.29,0,0,1,.52.46,1.18,1.18,0,0,1,.19.68,1.31,1.31,0,0,1-.21.74,1.36,1.36,0,0,1-.57.49,1.92,1.92,0,0,1-.81.17,1.78,1.78,0,0,1-1.38-.54,2.19,2.19,0,0,1-.5-1.54,2.56,2.56,0,0,1,.27-1.22,1.9,1.9,0,0,1,.76-.78,2.34,2.34,0,0,1,1.12-.26,2.67,2.67,0,0,1,.64.07,1.6,1.6,0,0,1,.53.22l-.36.71a1.39,1.39,0,0,0-.79-.21,1.14,1.14,0,0,0-.85.31,1.32,1.32,0,0,0-.33.91,1.39,1.39,0,0,1,1-.37A1.63,1.63,0,0,1,124,82.14Zm-.42,1.65a.58.58,0,0,0,.19-.46.59.59,0,0,0-.19-.46.79.79,0,0,0-.52-.17.77.77,0,0,0-.53.18.59.59,0,0,0-.2.45.56.56,0,0,0,.2.45.88.88,0,0,0,1.05,0Z"/><path d="M125.21,82.36a1.36,1.36,0,0,1,0-1.68,1,1,0,0,1,1.5,0,1.36,1.36,0,0,1,0,1.68,1,1,0,0,1-1.5,0Zm1.07-.34a1.1,1.1,0,0,0,0-1,.39.39,0,0,0-.64,0,.88.88,0,0,0-.12.5.82.82,0,0,0,.12.49.37.37,0,0,0,.32.18A.39.39,0,0,0,126.28,82Zm2.18-1.61h.71l-2.86,4.2h-.72Zm-.19,4.11a1,1,0,0,1-.37-.41,1.5,1.5,0,0,1,0-1.22,1,1,0,0,1,.37-.41,1.09,1.09,0,0,1,.54-.14,1,1,0,0,1,.75.32,1.36,1.36,0,0,1,0,1.68,1,1,0,0,1-.75.32A1.09,1.09,0,0,1,128.27,84.52Zm.86-.53a.82.82,0,0,0,.12-.49.88.88,0,0,0-.12-.5.39.39,0,0,0-.64,0,1.1,1.1,0,0,0,0,1,.39.39,0,0,0,.32.17A.37.37,0,0,0,129.13,84Z"/><path d="M192.26,77.41v4.2h-1V78.19h-.84v-.78Z"/><path d="M196.13,80.82v.79H193V81l1.62-1.53a1.77,1.77,0,0,0,.34-.42.79.79,0,0,0,.09-.35.45.45,0,0,0-.17-.39.78.78,0,0,0-.5-.14,1.18,1.18,0,0,0-.5.11,1,1,0,0,0-.37.31l-.71-.45a1.68,1.68,0,0,1,.68-.58,2.4,2.4,0,0,1,1-.2,2.07,2.07,0,0,1,.82.15,1.26,1.26,0,0,1,.55.43,1.14,1.14,0,0,1,.19.66,1.53,1.53,0,0,1-.14.64,2.55,2.55,0,0,1-.56.69l-1,.91Z"/><path d="M196.73,81.49a.6.6,0,0,1,0-.84.6.6,0,0,1,.41-.16.61.61,0,0,1,.42.16.59.59,0,0,1-.42,1A.57.57,0,0,1,196.73,81.49Z"/><path d="M201.58,79.81a1.12,1.12,0,0,1,.16.58,1.07,1.07,0,0,1-.22.68,1.35,1.35,0,0,1-.63.45,2.75,2.75,0,0,1-1.85,0,1.32,1.32,0,0,1-.62-.45,1.07,1.07,0,0,1-.22-.68,1.12,1.12,0,0,1,.16-.58,1.22,1.22,0,0,1,.48-.41,1,1,0,0,1-.36-.36.93.93,0,0,1-.13-.5,1.06,1.06,0,0,1,.2-.64,1.37,1.37,0,0,1,.57-.42,2.62,2.62,0,0,1,1.69,0,1.34,1.34,0,0,1,.58.42,1.06,1.06,0,0,1,.2.64.93.93,0,0,1-.13.5,1,1,0,0,1-.36.36A1.29,1.29,0,0,1,201.58,79.81Zm-1,1a.53.53,0,0,0,.22-.44.54.54,0,0,0-.22-.44,1,1,0,0,0-.58-.16,1,1,0,0,0-.57.16.54.54,0,0,0-.21.44.51.51,0,0,0,.21.44A.9.9,0,0,0,200,81,.91.91,0,0,0,200.54,80.8Zm-1-2.61a.48.48,0,0,0-.17.39.44.44,0,0,0,.17.38.75.75,0,0,0,.47.13.78.78,0,0,0,.48-.13.45.45,0,0,0,.18-.38.48.48,0,0,0-.18-.39.78.78,0,0,0-.48-.14A.77.77,0,0,0,199.49,78.19Z"/><path d="M205.32,80.82v.79h-3.17V81l1.62-1.53a1.87,1.87,0,0,0,.35-.42.79.79,0,0,0,.09-.35.46.46,0,0,0-.18-.39.78.78,0,0,0-.5-.14,1.1,1.1,0,0,0-.49.11,1,1,0,0,0-.38.31l-.7-.45a1.65,1.65,0,0,1,.67-.58,2.4,2.4,0,0,1,1-.2,2,2,0,0,1,.82.15,1.26,1.26,0,0,1,.55.43,1.14,1.14,0,0,1,.19.66,1.39,1.39,0,0,1-.14.64,2.55,2.55,0,0,1-.56.69l-1,.91Z"/><path d="M206,79.36a1.36,1.36,0,0,1,0-1.68,1.05,1.05,0,0,1,1.51,0,1.4,1.4,0,0,1,0,1.68,1.05,1.05,0,0,1-1.51,0Zm1.08-.34a1.19,1.19,0,0,0,0-1,.39.39,0,0,0-.32-.17.37.37,0,0,0-.32.17.88.88,0,0,0-.12.5.82.82,0,0,0,.12.49.36.36,0,0,0,.32.18A.39.39,0,0,0,207.08,79Zm2.18-1.61H210l-2.87,4.2h-.71Zm-.19,4.11a1,1,0,0,1-.37-.41,1.5,1.5,0,0,1,0-1.22,1,1,0,0,1,.37-.41,1.09,1.09,0,0,1,.54-.14,1,1,0,0,1,.75.32,1.36,1.36,0,0,1,0,1.68,1,1,0,0,1-.75.32A1.09,1.09,0,0,1,209.07,81.52Zm.86-.53a.83.83,0,0,0,.11-.49.88.88,0,0,0-.11-.5.39.39,0,0,0-.32-.17.37.37,0,0,0-.32.17,1.1,1.1,0,0,0,0,1,.38.38,0,0,0,.64,0Z"/><path d="M273.06,71.31v4.2h-1V72.09h-.84v-.78Z"/><path d="M276.6,73.43a1.11,1.11,0,0,1,.3.79,1.26,1.26,0,0,1-.2.68,1.31,1.31,0,0,1-.58.5,2.28,2.28,0,0,1-1,.18,3.28,3.28,0,0,1-.88-.12,2,2,0,0,1-.73-.33l.38-.74a2,2,0,0,0,.56.28,2.3,2.3,0,0,0,.64.09,1,1,0,0,0,.58-.14.44.44,0,0,0,.21-.4c0-.34-.26-.51-.79-.51h-.44v-.64l.86-1h-1.79v-.78h2.94v.63L275.76,73A1.42,1.42,0,0,1,276.6,73.43Z"/><path d="M277.48,75.39a.63.63,0,0,1,0-.84.61.61,0,0,1,.42-.16.6.6,0,0,1,.41.16.6.6,0,0,1,0,.84.57.57,0,0,1-.41.17A.57.57,0,0,1,277.48,75.39Z"/><path d="M282.12,74.72v.79h-3.18v-.63l1.62-1.53a1.87,1.87,0,0,0,.35-.42.79.79,0,0,0,.09-.35.48.48,0,0,0-.17-.39.8.8,0,0,0-.5-.14,1.15,1.15,0,0,0-.5.11.92.92,0,0,0-.37.31l-.71-.45a1.62,1.62,0,0,1,.68-.58,2.4,2.4,0,0,1,1-.2,2.1,2.1,0,0,1,.82.15,1.29,1.29,0,0,1,.54.43,1.14,1.14,0,0,1,.2.66,1.4,1.4,0,0,1-.15.64,2.33,2.33,0,0,1-.55.68l-1,.92Z"/><path d="M282.8,73.26a1.36,1.36,0,0,1,0-1.68,1,1,0,0,1,1.5,0,1.36,1.36,0,0,1,0,1.68,1,1,0,0,1-1.5,0Zm1.07-.34a.88.88,0,0,0,.12-.5.86.86,0,0,0-.12-.5.39.39,0,0,0-.64,0,.88.88,0,0,0-.12.5.82.82,0,0,0,.12.49.37.37,0,0,0,.32.18A.39.39,0,0,0,283.87,72.92Zm2.18-1.61h.71l-2.86,4.2h-.72Zm-.19,4.11a1,1,0,0,1-.37-.41,1.5,1.5,0,0,1,0-1.22,1,1,0,0,1,.37-.41,1.09,1.09,0,0,1,.54-.14,1,1,0,0,1,.75.32,1.36,1.36,0,0,1,0,1.68,1,1,0,0,1-.75.32A1.09,1.09,0,0,1,285.86,75.42Zm.86-.53a.82.82,0,0,0,.12-.49.88.88,0,0,0-.12-.5.37.37,0,0,0-.32-.17.39.39,0,0,0-.32.17,1.1,1.1,0,0,0,0,1,.39.39,0,0,0,.32.17A.36.36,0,0,0,286.72,74.89Z"/><path d="M154.53,117.82a2.19,2.19,0,0,1,.49,1.54,2.6,2.6,0,0,1-.26,1.23,1.8,1.8,0,0,1-.75.77,2.3,2.3,0,0,1-1.13.27,2.67,2.67,0,0,1-.64-.08,1.77,1.77,0,0,1-.52-.21l.36-.72a1.36,1.36,0,0,0,.79.21,1.13,1.13,0,0,0,.84-.31,1.32,1.32,0,0,0,.34-.91A1.42,1.42,0,0,1,153,120a1.77,1.77,0,0,1-.73-.16,1.29,1.29,0,0,1-.52-.46,1.23,1.23,0,0,1-.19-.69,1.31,1.31,0,0,1,.21-.74,1.44,1.44,0,0,1,.57-.49,1.92,1.92,0,0,1,.81-.17A1.79,1.79,0,0,1,154.53,117.82Zm-.79,1.27a.6.6,0,0,0,.2-.46.59.59,0,0,0-.2-.45.8.8,0,0,0-.53-.17.72.72,0,0,0-.51.17.55.55,0,0,0-.19.45.58.58,0,0,0,.19.46.73.73,0,0,0,.52.17A.81.81,0,0,0,153.74,119.09Z"/><path d="M155.55,121.43a.57.57,0,0,1-.16-.42.53.53,0,0,1,.16-.41.58.58,0,0,1,.42-.16.56.56,0,0,1,.41.16.53.53,0,0,1,.17.41.57.57,0,0,1-.17.42.53.53,0,0,1-.41.17A.55.55,0,0,1,155.55,121.43Z"/><path d="M160.18,120.76v.79H157v-.62l1.62-1.54A1.67,1.67,0,0,0,159,119a.76.76,0,0,0,.09-.35.48.48,0,0,0-.17-.39.8.8,0,0,0-.5-.13,1.15,1.15,0,0,0-.5.1,1,1,0,0,0-.37.32l-.71-.46a1.67,1.67,0,0,1,.68-.57,2.22,2.22,0,0,1,1-.21,1.94,1.94,0,0,1,.82.16,1.22,1.22,0,0,1,.54.43,1.09,1.09,0,0,1,.2.65,1.44,1.44,0,0,1-.15.65,2.36,2.36,0,0,1-.56.68l-1,.91Z"/><path d="M163.73,120.76v.79h-3.18v-.62l1.62-1.54a1.67,1.67,0,0,0,.35-.42.76.76,0,0,0,.09-.35.48.48,0,0,0-.17-.39.8.8,0,0,0-.5-.13,1.15,1.15,0,0,0-.5.1,1,1,0,0,0-.37.32l-.71-.46a1.67,1.67,0,0,1,.68-.57,2.25,2.25,0,0,1,1-.21,1.94,1.94,0,0,1,.82.16,1.22,1.22,0,0,1,.54.43,1.09,1.09,0,0,1,.2.65,1.44,1.44,0,0,1-.15.65,2.47,2.47,0,0,1-.55.68l-1,.91Z"/><path d="M164.41,119.31a1.38,1.38,0,0,1,0-1.69,1.06,1.06,0,0,1,1.5,0,1.38,1.38,0,0,1,0,1.69,1.06,1.06,0,0,1-1.5,0Zm1.07-.35a1.08,1.08,0,0,0,0-1,.35.35,0,0,0-.32-.17.39.39,0,0,0-.32.17.86.86,0,0,0-.12.5.84.84,0,0,0,.12.49.39.39,0,0,0,.32.17A.37.37,0,0,0,165.48,119Zm2.18-1.61h.72l-2.87,4.2h-.72Zm-.19,4.11a1,1,0,0,1-.37-.4,1.35,1.35,0,0,1-.13-.62,1.33,1.33,0,0,1,.13-.61,1,1,0,0,1,.37-.4,1,1,0,0,1,.54-.14,1,1,0,0,1,.75.31,1.38,1.38,0,0,1,0,1.69,1,1,0,0,1-.75.31A1,1,0,0,1,167.47,121.46Zm.86-.52a.86.86,0,0,0,.12-.5.84.84,0,0,0-.12-.49.37.37,0,0,0-.32-.17.39.39,0,0,0-.32.17.82.82,0,0,0-.12.49.86.86,0,0,0,.12.5.39.39,0,0,0,.32.17A.37.37,0,0,0,168.33,120.94Z"/><path d="M233.21,109.82a2.15,2.15,0,0,1,.5,1.54,2.6,2.6,0,0,1-.27,1.23,1.69,1.69,0,0,1-.75.77,2.26,2.26,0,0,1-1.12.27,2.67,2.67,0,0,1-.64-.08,1.66,1.66,0,0,1-.52-.21l.36-.72a1.33,1.33,0,0,0,.78.21,1.14,1.14,0,0,0,.85-.31,1.27,1.27,0,0,0,.33-.91,1.41,1.41,0,0,1-1,.38,1.74,1.74,0,0,1-.73-.16,1.23,1.23,0,0,1-.52-.46,1.24,1.24,0,0,1-.2-.69,1.31,1.31,0,0,1,.21-.74,1.47,1.47,0,0,1,.58-.49,1.91,1.91,0,0,1,.8-.17A1.78,1.78,0,0,1,233.21,109.82Zm-.79,1.27a.57.57,0,0,0,.21-.46.59.59,0,0,0-.2-.45.81.81,0,0,0-.54-.17.71.71,0,0,0-.5.17.56.56,0,0,0-.2.45.58.58,0,0,0,.2.46.73.73,0,0,0,.52.17A.77.77,0,0,0,232.42,111.09Z"/><path d="M234.24,113.43a.57.57,0,0,1-.17-.42.53.53,0,0,1,.17-.41.56.56,0,0,1,.41-.16.57.57,0,0,1,.42.16.53.53,0,0,1,.17.41.57.57,0,0,1-.17.42.54.54,0,0,1-.42.17A.53.53,0,0,1,234.24,113.43Z"/><path d="M238.87,109.35V110l-1.56,3.57h-1.06l1.51-3.4h-1.4v.68h-.86v-1.48Z"/><path d="M242.55,111.76a1,1,0,0,1,.16.58,1.09,1.09,0,0,1-.22.68,1.53,1.53,0,0,1-.62.45,2.66,2.66,0,0,1-.93.16,2.58,2.58,0,0,1-.93-.16,1.47,1.47,0,0,1-.62-.45,1.15,1.15,0,0,1-.22-.68,1,1,0,0,1,.17-.58,1.12,1.12,0,0,1,.47-.41,1,1,0,0,1-.36-.37.91.91,0,0,1-.13-.5,1,1,0,0,1,.21-.63,1.25,1.25,0,0,1,.57-.42,2.17,2.17,0,0,1,.84-.15,2.26,2.26,0,0,1,.85.15,1.37,1.37,0,0,1,.57.42,1.05,1.05,0,0,1,.2.63,1,1,0,0,1-.12.5,1.09,1.09,0,0,1-.37.37A1.14,1.14,0,0,1,242.55,111.76Zm-1,1a.52.52,0,0,0,.22-.44.51.51,0,0,0-.22-.44,1.1,1.1,0,0,0-1.14,0,.52.52,0,0,0-.21.44.54.54,0,0,0,.21.44,1.1,1.1,0,0,0,1.14,0Zm-1-2.61a.51.51,0,0,0,0,.76.89.89,0,0,0,1,0,.49.49,0,0,0,0-.76.89.89,0,0,0-1,0Z"/><path d="M243.32,111.31a1.34,1.34,0,0,1,0-1.69,1.06,1.06,0,0,1,1.5,0,1.38,1.38,0,0,1,0,1.69,1.06,1.06,0,0,1-1.5,0Zm1.07-.35a1.08,1.08,0,0,0,0-1,.36.36,0,0,0-.32-.17.39.39,0,0,0-.32.17.86.86,0,0,0-.12.5.84.84,0,0,0,.12.49.39.39,0,0,0,.64,0Zm2.18-1.61h.71l-2.86,4.2h-.72Zm-.19,4.11a1,1,0,0,1-.37-.4,1.35,1.35,0,0,1-.13-.62,1.33,1.33,0,0,1,.13-.61,1,1,0,0,1,.37-.4,1,1,0,0,1,.54-.14,1,1,0,0,1,.75.31,1.38,1.38,0,0,1,0,1.69,1,1,0,0,1-.75.31A1,1,0,0,1,246.38,113.46Zm.86-.52a.86.86,0,0,0,.12-.5.84.84,0,0,0-.12-.49.39.39,0,0,0-.64,0,.82.82,0,0,0-.12.49.86.86,0,0,0,.12.5.39.39,0,0,0,.64,0Z"/><path d="M310.15,103.25v4.2h-1V104h-.83v-.78Z"/><path d="M311.75,107.27a1.7,1.7,0,0,1-.64-.75,3.07,3.07,0,0,1,0-2.33,1.75,1.75,0,0,1,2.5-.75,1.76,1.76,0,0,1,.64.75,3.07,3.07,0,0,1,0,2.33,1.76,1.76,0,0,1-.64.75,1.79,1.79,0,0,1-1.86,0Zm1.53-.9a2.47,2.47,0,0,0,0-2,.68.68,0,0,0-.6-.33.69.69,0,0,0-.6.33,2.47,2.47,0,0,0,0,2,.69.69,0,0,0,.6.33A.68.68,0,0,0,313.28,106.37Z"/><path d="M315,107.33a.57.57,0,0,1-.17-.42.53.53,0,0,1,.17-.41.57.57,0,0,1,.42-.16.56.56,0,0,1,.41.16.53.53,0,0,1,.17.41.57.57,0,0,1-.17.42.53.53,0,0,1-.41.17A.54.54,0,0,1,315,107.33Z"/><path d="M318,103.25v4.2h-1V104h-.84v-.78Z"/><path d="M321.56,103.72a2.19,2.19,0,0,1,.5,1.54,2.6,2.6,0,0,1-.27,1.23,1.8,1.8,0,0,1-.75.77,2.3,2.3,0,0,1-1.13.27,2.74,2.74,0,0,1-.64-.08,1.77,1.77,0,0,1-.52-.21l.36-.72a1.36,1.36,0,0,0,.79.21,1.13,1.13,0,0,0,.84-.31,1.32,1.32,0,0,0,.34-.91,1.42,1.42,0,0,1-1.05.38,1.77,1.77,0,0,1-.73-.16,1.29,1.29,0,0,1-.52-.46,1.23,1.23,0,0,1-.19-.69,1.31,1.31,0,0,1,.21-.74,1.44,1.44,0,0,1,.57-.49,1.92,1.92,0,0,1,.81-.17A1.78,1.78,0,0,1,321.56,103.72Zm-.79,1.27a.6.6,0,0,0,.2-.46.58.58,0,0,0-.19-.45.81.81,0,0,0-.54-.17.77.77,0,0,0-.51.17.55.55,0,0,0-.19.45.58.58,0,0,0,.19.46.73.73,0,0,0,.52.17A.79.79,0,0,0,320.77,105Z"/><path d="M322.74,105.21a1.38,1.38,0,0,1,0-1.69,1.07,1.07,0,0,1,1.51,0,1.42,1.42,0,0,1,0,1.69,1.07,1.07,0,0,1-1.51,0Zm1.08-.35a.86.86,0,0,0,.11-.5.83.83,0,0,0-.11-.49.39.39,0,0,0-.32-.17.37.37,0,0,0-.32.17.84.84,0,0,0-.12.49.86.86,0,0,0,.12.5.37.37,0,0,0,.32.17A.39.39,0,0,0,323.82,104.86Zm2.18-1.61h.71l-2.87,4.2h-.71Zm-.19,4.11a1,1,0,0,1-.37-.4,1.35,1.35,0,0,1-.13-.62,1.33,1.33,0,0,1,.13-.61,1,1,0,0,1,.37-.4,1,1,0,0,1,.54-.14,1,1,0,0,1,.75.31,1.38,1.38,0,0,1,0,1.69,1,1,0,0,1-.75.31A1,1,0,0,1,325.81,107.36Zm.86-.52a.86.86,0,0,0,.11-.5.85.85,0,0,0-.11-.49.39.39,0,0,0-.32-.17.35.35,0,0,0-.32.17.82.82,0,0,0-.12.49.86.86,0,0,0,.12.5.37.37,0,0,0,.32.17A.39.39,0,0,0,326.67,106.84Z"/><path class="cls-1" d="M136.06,157.92a1.09,1.09,0,0,1,.44.38,1.11,1.11,0,0,1,.16.57,1.08,1.08,0,0,1-.18.62,1.11,1.11,0,0,1-.47.41,1.69,1.69,0,0,1-.68.14,1.49,1.49,0,0,1-1.15-.45,1.87,1.87,0,0,1-.41-1.29,2.19,2.19,0,0,1,.22-1,1.55,1.55,0,0,1,.63-.64,1.88,1.88,0,0,1,.93-.22,2.35,2.35,0,0,1,.54.06,1.35,1.35,0,0,1,.44.18l-.3.59a1.22,1.22,0,0,0-.66-.17,1,1,0,0,0-.7.26,1,1,0,0,0-.28.75,1.19,1.19,0,0,1,.86-.31A1.34,1.34,0,0,1,136.06,157.92Zm-.35,1.37a.46.46,0,0,0,.16-.38.48.48,0,0,0-.16-.38.73.73,0,0,0-.87,0,.48.48,0,0,0-.17.37.49.49,0,0,0,.17.38.64.64,0,0,0,.45.14A.59.59,0,0,0,135.71,159.29Z"/><path class="cls-1" d="M137.12,159.88a.51.51,0,0,1,0-.7.47.47,0,0,1,.34-.13.49.49,0,0,1,.35.13.51.51,0,0,1,0,.7.5.5,0,0,1-.35.14A.48.48,0,0,1,137.12,159.88Z"/><path class="cls-1" d="M140.61,158.09a1,1,0,0,1,.35.79,1.06,1.06,0,0,1-.16.58,1.07,1.07,0,0,1-.49.42,1.8,1.8,0,0,1-.81.16,2.5,2.5,0,0,1-.72-.1,1.81,1.81,0,0,1-.61-.28l.32-.62a1.54,1.54,0,0,0,.46.24,1.89,1.89,0,0,0,.53.08.81.81,0,0,0,.48-.12.41.41,0,0,0,0-.68,1.41,1.41,0,0,0-.64-.11h-.89l.18-2h2.13v.65h-1.46l-.05.66h.28A1.68,1.68,0,0,1,140.61,158.09Z"/><path class="cls-1" d="M143.58,157.92a1.09,1.09,0,0,1,.44.38,1,1,0,0,1,.16.57,1.08,1.08,0,0,1-.18.62,1.11,1.11,0,0,1-.47.41,1.69,1.69,0,0,1-.68.14,1.49,1.49,0,0,1-1.15-.45,1.87,1.87,0,0,1-.41-1.29,2.19,2.19,0,0,1,.22-1,1.55,1.55,0,0,1,.63-.64,1.88,1.88,0,0,1,.93-.22,2.35,2.35,0,0,1,.54.06,1.35,1.35,0,0,1,.44.18l-.3.59a1.2,1.2,0,0,0-.66-.17,1,1,0,0,0-.7.26,1,1,0,0,0-.28.75,1.19,1.19,0,0,1,.86-.31A1.34,1.34,0,0,1,143.58,157.92Zm-.35,1.37a.46.46,0,0,0,.16-.38.48.48,0,0,0-.16-.38.73.73,0,0,0-.87,0,.48.48,0,0,0-.17.37.49.49,0,0,0,.17.38.64.64,0,0,0,.45.14A.59.59,0,0,0,143.23,159.29Z"/><path class="cls-1" d="M144.56,158.11a1.12,1.12,0,0,1,0-1.41.88.88,0,0,1,1.25,0,1.16,1.16,0,0,1,0,1.41.88.88,0,0,1-1.25,0Zm.89-.29a.69.69,0,0,0,.1-.42.67.67,0,0,0-.1-.41.31.31,0,0,0-.27-.14.31.31,0,0,0-.26.14.69.69,0,0,0-.1.41.73.73,0,0,0,.1.42.31.31,0,0,0,.26.14A.31.31,0,0,0,145.45,157.82Zm1.82-1.34h.59l-2.39,3.5h-.59Zm-.16,3.42a.85.85,0,0,1-.31-.34,1.13,1.13,0,0,1-.11-.51,1.19,1.19,0,0,1,.11-.51.9.9,0,0,1,.31-.33.9.9,0,0,1,1.08.14,1.16,1.16,0,0,1,0,1.41.9.9,0,0,1-1.08.14Zm.72-.43a.82.82,0,0,0,.09-.42.78.78,0,0,0-.09-.41.33.33,0,0,0-.54,0,.75.75,0,0,0-.1.41.76.76,0,0,0,.1.42.33.33,0,0,0,.54,0Z"/><path class="cls-1" d="M215.4,151.2v.53l-1.3,3h-.88l1.25-2.84h-1.16v.57h-.72V151.2Z"/><path class="cls-1" d="M215.63,154.6a.45.45,0,0,1-.14-.35.42.42,0,0,1,.14-.34.48.48,0,0,1,.34-.14.5.5,0,0,1,.35.14.46.46,0,0,1,.14.34.48.48,0,0,1-.14.35.46.46,0,0,1-.35.14A.44.44,0,0,1,215.63,154.6Z"/><path class="cls-1" d="M219.21,153a.92.92,0,0,1,.25.66,1.14,1.14,0,0,1-.16.57,1.12,1.12,0,0,1-.49.41,1.94,1.94,0,0,1-.8.15,3,3,0,0,1-.73-.09,2,2,0,0,1-.61-.28l.32-.62a1.33,1.33,0,0,0,.46.23,1.61,1.61,0,0,0,.54.08.85.85,0,0,0,.48-.11.4.4,0,0,0,.17-.34c0-.28-.22-.43-.65-.43h-.37v-.53l.72-.82h-1.49v-.65h2.45v.53l-.79.9A1.16,1.16,0,0,1,219.21,153Z"/><path class="cls-1" d="M222.62,153.2a.83.83,0,0,1,.14.49.94.94,0,0,1-.18.57,1.26,1.26,0,0,1-.52.37,2.09,2.09,0,0,1-.78.13,2,2,0,0,1-.77-.13,1.26,1.26,0,0,1-.52-.37.94.94,0,0,1-.18-.57.91.91,0,0,1,.14-.49,1,1,0,0,1,.39-.34.86.86,0,0,1-.3-.3.92.92,0,0,1,.07-.95,1,1,0,0,1,.47-.34,2,2,0,0,1,1.41,0,1.13,1.13,0,0,1,.48.34.88.88,0,0,1,.17.53.82.82,0,0,1-.11.42.86.86,0,0,1-.3.3A1,1,0,0,1,222.62,153.2Zm-.86.83a.43.43,0,0,0,.18-.37.43.43,0,0,0-.18-.36.74.74,0,0,0-.48-.14.73.73,0,0,0-.47.14.43.43,0,0,0-.18.36.43.43,0,0,0,.18.37.73.73,0,0,0,.47.14A.74.74,0,0,0,221.76,154Zm-.87-2.17a.37.37,0,0,0-.15.32.36.36,0,0,0,.15.31.59.59,0,0,0,.39.12.62.62,0,0,0,.4-.12.36.36,0,0,0,.15-.31.37.37,0,0,0-.15-.32.62.62,0,0,0-.4-.12A.61.61,0,0,0,220.89,151.86Z"/><path class="cls-1" d="M223.26,152.83a1.14,1.14,0,0,1,0-1.4.82.82,0,0,1,.63-.27.8.8,0,0,1,.63.27,1.14,1.14,0,0,1,0,1.4.79.79,0,0,1-.63.26A.81.81,0,0,1,223.26,152.83Zm.9-.29a.75.75,0,0,0,.1-.41.81.81,0,0,0-.1-.42.32.32,0,0,0-.27-.14.29.29,0,0,0-.26.15.89.89,0,0,0,0,.82.28.28,0,0,0,.26.14A.3.3,0,0,0,224.16,152.54ZM226,151.2h.59l-2.39,3.5h-.59Zm-.16,3.43a.85.85,0,0,1-.31-.34,1.24,1.24,0,0,1,0-1,.85.85,0,0,1,.31-.34.84.84,0,0,1,.45-.12.8.8,0,0,1,.62.27,1.1,1.1,0,0,1,0,1.4.79.79,0,0,1-.62.26A.84.84,0,0,1,225.82,154.63Zm.71-.44a.89.89,0,0,0,0-.82.29.29,0,0,0-.26-.15.33.33,0,0,0-.27.14.73.73,0,0,0-.1.42.67.67,0,0,0,.1.41.31.31,0,0,0,.27.14A.28.28,0,0,0,226.53,154.19Z"/><path class="cls-1" d="M294,151.2v.53l-1.3,3h-.88l1.26-2.84h-1.16v.57h-.72V151.2Z"/><path class="cls-1" d="M294.26,154.6a.45.45,0,0,1-.15-.35.43.43,0,0,1,.15-.34.48.48,0,0,1,.68,0,.43.43,0,0,1,.15.34.45.45,0,0,1-.15.35.48.48,0,0,1-.68,0Z"/><path class="cls-1" d="M298.29,153.2a.91.91,0,0,1,.14.49.94.94,0,0,1-.18.57,1.23,1.23,0,0,1-.53.37,2.35,2.35,0,0,1-1.54,0,1.2,1.2,0,0,1-.52-.37.94.94,0,0,1-.18-.57.91.91,0,0,1,.14-.49,1,1,0,0,1,.39-.34.86.86,0,0,1-.3-.3.82.82,0,0,1-.11-.42.88.88,0,0,1,.17-.53,1.13,1.13,0,0,1,.48-.34,1.71,1.71,0,0,1,.7-.13,1.76,1.76,0,0,1,.71.13,1,1,0,0,1,.47.34.83.83,0,0,1-.24,1.25A1,1,0,0,1,298.29,153.2Zm-.86.83a.43.43,0,0,0,.18-.37.43.43,0,0,0-.18-.36.89.89,0,0,0-1,0,.45.45,0,0,0-.17.36.45.45,0,0,0,.17.37.89.89,0,0,0,1,0Zm-.87-2.17a.37.37,0,0,0-.15.32.38.38,0,0,0,.14.31.73.73,0,0,0,.8,0,.36.36,0,0,0,.15-.31.37.37,0,0,0-.15-.32.62.62,0,0,0-.4-.12A.61.61,0,0,0,296.56,151.86Z"/><path class="cls-1" d="M301.59,153.2a.91.91,0,0,1,.14.49.89.89,0,0,1-.19.57,1.14,1.14,0,0,1-.52.37,2.35,2.35,0,0,1-1.54,0,1.2,1.2,0,0,1-.52-.37.94.94,0,0,1-.18-.57.91.91,0,0,1,.14-.49,1,1,0,0,1,.39-.34.86.86,0,0,1-.3-.3.82.82,0,0,1-.11-.42.83.83,0,0,1,.18-.53,1,1,0,0,1,.47-.34,1.71,1.71,0,0,1,.7-.13,1.76,1.76,0,0,1,.71.13,1,1,0,0,1,.47.34.83.83,0,0,1-.24,1.25A1,1,0,0,1,301.59,153.2Zm-.86.83a.43.43,0,0,0,.18-.37.43.43,0,0,0-.18-.36.89.89,0,0,0-1,0,.45.45,0,0,0-.17.36.45.45,0,0,0,.17.37.89.89,0,0,0,1,0Zm-.87-2.17a.37.37,0,0,0-.15.32.38.38,0,0,0,.14.31.73.73,0,0,0,.8,0,.36.36,0,0,0,.15-.31.37.37,0,0,0-.15-.32.62.62,0,0,0-.4-.12A.61.61,0,0,0,299.86,151.86Z"/><path class="cls-1" d="M302.23,152.83a1.14,1.14,0,0,1,0-1.4.8.8,0,0,1,.63-.27.77.77,0,0,1,.62.27,1.14,1.14,0,0,1,0,1.4.76.76,0,0,1-.62.26A.79.79,0,0,1,302.23,152.83Zm.9-.29a.76.76,0,0,0,.09-.41.82.82,0,0,0-.09-.42.33.33,0,0,0-.27-.14.32.32,0,0,0-.27.15,1,1,0,0,0,0,.82.33.33,0,0,0,.54,0Zm1.81-1.34h.6l-2.39,3.5h-.6Zm-.15,3.43a.79.79,0,0,1-.31-.34,1.24,1.24,0,0,1,0-1,.79.79,0,0,1,.31-.34.83.83,0,0,1,.44-.12.8.8,0,0,1,.63.27,1.14,1.14,0,0,1,0,1.4.79.79,0,0,1-.63.26A.82.82,0,0,1,304.79,154.63Zm.71-.44a.89.89,0,0,0,0-.82.29.29,0,0,0-.27-.15.31.31,0,0,0-.26.14.73.73,0,0,0-.1.42.67.67,0,0,0,.1.41.29.29,0,0,0,.26.14A.29.29,0,0,0,305.5,154.19Z"/><path class="cls-1" d="M372.85,151.2v.53l-1.3,3h-.88l1.26-2.84h-1.16v.57h-.72V151.2Z"/><path class="cls-1" d="M373.09,154.6a.45.45,0,0,1-.15-.35.43.43,0,0,1,.15-.34.48.48,0,0,1,.68,0,.43.43,0,0,1,.15.34.45.45,0,0,1-.15.35.48.48,0,0,1-.68,0Z"/><path class="cls-1" d="M377.12,153.2a.91.91,0,0,1,.14.49.94.94,0,0,1-.18.57,1.23,1.23,0,0,1-.53.37,2.35,2.35,0,0,1-1.54,0,1.2,1.2,0,0,1-.52-.37.94.94,0,0,1-.18-.57.91.91,0,0,1,.14-.49,1,1,0,0,1,.39-.34.86.86,0,0,1-.3-.3.82.82,0,0,1-.11-.42.88.88,0,0,1,.17-.53,1.13,1.13,0,0,1,.48-.34,1.71,1.71,0,0,1,.7-.13,1.76,1.76,0,0,1,.71.13,1,1,0,0,1,.47.34.83.83,0,0,1-.24,1.25A1,1,0,0,1,377.12,153.2Zm-.86.83a.43.43,0,0,0,.18-.37.43.43,0,0,0-.18-.36.89.89,0,0,0-1,0,.45.45,0,0,0-.17.36.45.45,0,0,0,.17.37.89.89,0,0,0,1,0Zm-.87-2.17a.37.37,0,0,0-.15.32.38.38,0,0,0,.14.31.73.73,0,0,0,.8,0,.36.36,0,0,0,.15-.31.37.37,0,0,0-.15-.32.62.62,0,0,0-.4-.12A.61.61,0,0,0,375.39,151.86Z"/><path class="cls-1" d="M380,151.59a1.82,1.82,0,0,1,.41,1.29,2.14,2.14,0,0,1-.22,1,1.53,1.53,0,0,1-.62.64,2,2,0,0,1-.94.22,2.35,2.35,0,0,1-.54-.06,1.3,1.3,0,0,1-.43-.18l.3-.59a1.11,1.11,0,0,0,.65.17.93.93,0,0,0,.71-.26,1.1,1.1,0,0,0,.28-.76,1.18,1.18,0,0,1-.87.32,1.37,1.37,0,0,1-.61-.14,1,1,0,0,1-.44-.38,1.06,1.06,0,0,1-.16-.57,1.1,1.1,0,0,1,.18-.62,1.18,1.18,0,0,1,.48-.4,1.47,1.47,0,0,1,.67-.15A1.49,1.49,0,0,1,380,151.59Zm-.66,1.06a.5.5,0,0,0,.17-.38.49.49,0,0,0-.16-.38.69.69,0,0,0-.45-.14.63.63,0,0,0-.42.14.53.53,0,0,0,0,.76.59.59,0,0,0,.43.14A.6.6,0,0,0,379.35,152.65Z"/><path class="cls-1" d="M381,152.83a1.14,1.14,0,0,1,0-1.4.86.86,0,0,1,1.25,0,1.14,1.14,0,0,1,0,1.4.88.88,0,0,1-1.25,0Zm.89-.29a.67.67,0,0,0,.1-.41.73.73,0,0,0-.1-.42.31.31,0,0,0-.27-.14.3.3,0,0,0-.26.15.89.89,0,0,0,0,.82.29.29,0,0,0,.26.14A.29.29,0,0,0,381.89,152.54Zm1.82-1.34h.59l-2.38,3.5h-.6Zm-.16,3.43a.77.77,0,0,1-.3-.34,1.14,1.14,0,0,1,0-1,.77.77,0,0,1,.3-.34.84.84,0,0,1,.45-.12.8.8,0,0,1,.63.27,1.14,1.14,0,0,1,0,1.4.79.79,0,0,1-.63.26A.84.84,0,0,1,383.55,154.63Zm.72-.44a1,1,0,0,0,0-.82.32.32,0,0,0-.27-.15.3.3,0,0,0-.26.14.72.72,0,0,0-.11.42.67.67,0,0,0,.11.41.28.28,0,0,0,.26.14A.31.31,0,0,0,384.27,154.19Z"/><path class="cls-1" d="M453.41,151.2v.53l-1.3,3h-.88l1.26-2.84h-1.16v.57h-.72V151.2Z"/><path class="cls-1" d="M453.64,154.6a.48.48,0,0,1-.14-.35.46.46,0,0,1,.14-.34.48.48,0,0,1,.35-.14.48.48,0,0,1,.34.14.46.46,0,0,1,.14.34.48.48,0,0,1-.14.35.44.44,0,0,1-.34.14A.45.45,0,0,1,453.64,154.6Z"/><path class="cls-1" d="M457.07,152.64a1.08,1.08,0,0,1,.43.39,1,1,0,0,1,.16.57,1.08,1.08,0,0,1-.65,1,1.69,1.69,0,0,1-1.82-.31,1.8,1.8,0,0,1-.42-1.28,2.13,2.13,0,0,1,.23-1,1.62,1.62,0,0,1,.62-.65,2,2,0,0,1,.94-.22,2.33,2.33,0,0,1,.53.07,1.62,1.62,0,0,1,.44.17l-.3.6a1.11,1.11,0,0,0-.65-.18,1,1,0,0,0-.71.26,1.11,1.11,0,0,0-.28.76,1.17,1.17,0,0,1,.87-.31A1.39,1.39,0,0,1,457.07,152.64Zm-.36,1.38a.51.51,0,0,0,0-.76.59.59,0,0,0-.43-.15.61.61,0,0,0-.43.15.47.47,0,0,0-.17.38.46.46,0,0,0,.16.37.64.64,0,0,0,.45.15A.63.63,0,0,0,456.71,154Z"/><path class="cls-1" d="M458,152.83a1.14,1.14,0,0,1,0-1.4.86.86,0,0,1,1.25,0,1.14,1.14,0,0,1,0,1.4.88.88,0,0,1-1.25,0Zm.89-.29a.67.67,0,0,0,.1-.41.73.73,0,0,0-.1-.42.3.3,0,0,0-.26-.14.32.32,0,0,0-.27.15.89.89,0,0,0,0,.82.31.31,0,0,0,.27.14A.28.28,0,0,0,458.93,152.54Zm1.82-1.34h.6L459,154.7h-.6Zm-.16,3.43a.77.77,0,0,1-.3-.34,1.24,1.24,0,0,1,0-1,.77.77,0,0,1,.3-.34.87.87,0,0,1,.45-.12.8.8,0,0,1,.63.27,1.14,1.14,0,0,1,0,1.4.79.79,0,0,1-.63.26A.86.86,0,0,1,460.59,154.63Zm.72-.44a.89.89,0,0,0,0-.82.32.32,0,0,0-.27-.15.3.3,0,0,0-.26.14.73.73,0,0,0-.1.42.67.67,0,0,0,.1.41.28.28,0,0,0,.26.14A.31.31,0,0,0,461.31,154.19Z"/><path d="M352.56,73.31v4.2h-1V74.09h-.84v-.78Z"/><path d="M356.1,75.43a1.11,1.11,0,0,1,.3.79,1.26,1.26,0,0,1-.2.68,1.31,1.31,0,0,1-.58.5,2.28,2.28,0,0,1-1,.18,3.28,3.28,0,0,1-.88-.12,2,2,0,0,1-.73-.33l.38-.74a2,2,0,0,0,.56.28,2.3,2.3,0,0,0,.64.09,1,1,0,0,0,.58-.14.44.44,0,0,0,.21-.4c0-.34-.26-.51-.79-.51h-.44v-.64l.86-1h-1.79v-.78h2.94v.63L355.26,75A1.42,1.42,0,0,1,356.1,75.43Z"/><path d="M357,77.39a.63.63,0,0,1,0-.84.61.61,0,0,1,.42-.16.6.6,0,0,1,.41.16.6.6,0,0,1,0,.84.57.57,0,0,1-.41.17A.57.57,0,0,1,357,77.39Z"/><path d="M359.94,73.31v4.2h-1V74.09h-.84v-.78Z"/><path d="M360.89,75.26a1.36,1.36,0,0,1,0-1.68,1.05,1.05,0,0,1,1.51,0,1.4,1.4,0,0,1,0,1.68,1.05,1.05,0,0,1-1.51,0Zm1.08-.34a1,1,0,0,0,.11-.5,1,1,0,0,0-.11-.5.39.39,0,0,0-.32-.17.37.37,0,0,0-.32.17.88.88,0,0,0-.12.5.82.82,0,0,0,.12.49.36.36,0,0,0,.32.18A.39.39,0,0,0,362,74.92Zm2.18-1.61h.71L362,77.51h-.71ZM364,77.42a1,1,0,0,1-.37-.41,1.5,1.5,0,0,1,0-1.22,1,1,0,0,1,.37-.41,1.09,1.09,0,0,1,.54-.14,1,1,0,0,1,.75.32,1.36,1.36,0,0,1,0,1.68,1,1,0,0,1-.75.32A1.09,1.09,0,0,1,364,77.42Zm.86-.53a.91.91,0,0,0,.11-.49,1,1,0,0,0-.11-.5.39.39,0,0,0-.32-.17.37.37,0,0,0-.32.17,1.1,1.1,0,0,0,0,1,.38.38,0,0,0,.64,0Z"/><path d="M429,80.31v4.2h-1V81.09h-.84v-.78Z"/><path d="M432.82,83.72v.79h-3.18v-.63l1.62-1.53a1.63,1.63,0,0,0,.35-.42.79.79,0,0,0,.09-.35.45.45,0,0,0-.17-.39.78.78,0,0,0-.5-.14,1.18,1.18,0,0,0-.5.11.92.92,0,0,0-.37.31l-.71-.45a1.68,1.68,0,0,1,.68-.58,2.4,2.4,0,0,1,1-.2,2.1,2.1,0,0,1,.82.15,1.39,1.39,0,0,1,.55.43,1.22,1.22,0,0,1,.19.66,1.53,1.53,0,0,1-.14.64,2.58,2.58,0,0,1-.56.68l-1,.92Z"/><path d="M433.42,84.39a.6.6,0,0,1,0-.84.6.6,0,0,1,.41-.16.63.63,0,0,1,.42.16.63.63,0,0,1,0,.84.59.59,0,0,1-.42.17A.57.57,0,0,1,433.42,84.39Z"/><path d="M437.6,82.24a1.19,1.19,0,0,1,.43,1,1.3,1.3,0,0,1-.2.7,1.25,1.25,0,0,1-.58.5,2.18,2.18,0,0,1-1,.19,3.15,3.15,0,0,1-.87-.12,2,2,0,0,1-.73-.33l.38-.74a2,2,0,0,0,.55.28,2.37,2.37,0,0,0,.65.09,1,1,0,0,0,.57-.14.45.45,0,0,0,.21-.4.45.45,0,0,0-.22-.41,1.52,1.52,0,0,0-.76-.14H435l.22-2.36h2.56v.78H436l-.07.8h.34A2.05,2.05,0,0,1,437.6,82.24Z"/><path d="M441.2,82.43a1.1,1.1,0,0,1,.29.79,1.25,1.25,0,0,1-.19.68,1.37,1.37,0,0,1-.58.5,2.37,2.37,0,0,1-1,.18,3.26,3.26,0,0,1-.87-.12,2,2,0,0,1-.73-.33l.38-.74a1.84,1.84,0,0,0,.56.28,2.3,2.3,0,0,0,.64.09,1,1,0,0,0,.58-.14.44.44,0,0,0,.21-.4c0-.34-.27-.51-.79-.51h-.44v-.64l.86-1h-1.79v-.78h2.94v.63L440.35,82A1.45,1.45,0,0,1,441.2,82.43Z"/><path d="M442.1,82.26a1.36,1.36,0,0,1,0-1.68,1.05,1.05,0,0,1,1.51,0,1.4,1.4,0,0,1,0,1.68,1.05,1.05,0,0,1-1.51,0Zm1.08-.34a.88.88,0,0,0,.11-.5.86.86,0,0,0-.11-.5.39.39,0,0,0-.32-.17.37.37,0,0,0-.32.17.88.88,0,0,0-.12.5.82.82,0,0,0,.12.49.36.36,0,0,0,.32.18A.39.39,0,0,0,443.18,81.92Zm2.18-1.61h.71l-2.87,4.2h-.71Zm-.19,4.11a1,1,0,0,1-.37-.41,1.5,1.5,0,0,1,0-1.22,1,1,0,0,1,.37-.41,1.09,1.09,0,0,1,.54-.14,1,1,0,0,1,.75.32,1.36,1.36,0,0,1,0,1.68,1,1,0,0,1-.75.32A1.09,1.09,0,0,1,445.17,84.42Zm.86-.53a.91.91,0,0,0,.11-.49,1,1,0,0,0-.11-.5.39.39,0,0,0-.32-.17.37.37,0,0,0-.32.17,1.1,1.1,0,0,0,0,1,.38.38,0,0,0,.64,0Z"/><path d="M388.88,104.25v4.2h-1V105h-.84v-.78Z"/><path d="M390.48,108.27a1.76,1.76,0,0,1-.64-.75,3.07,3.07,0,0,1,0-2.33,1.76,1.76,0,0,1,.64-.75,1.72,1.72,0,0,1,2.5.75,3.07,3.07,0,0,1,0,2.33,1.75,1.75,0,0,1-2.5.75Zm1.53-.9a2.47,2.47,0,0,0,0-2,.67.67,0,0,0-.6-.33.69.69,0,0,0-.6.33,2.47,2.47,0,0,0,0,2,.69.69,0,0,0,.6.33A.67.67,0,0,0,392,107.37Z"/><path d="M393.75,108.33a.54.54,0,0,1-.17-.42.5.5,0,0,1,.17-.41.61.61,0,0,1,.82,0,.53.53,0,0,1,.17.41.57.57,0,0,1-.17.42.58.58,0,0,1-.82,0Z"/><path d="M396.7,104.25v4.2h-1V105h-.84v-.78Z"/><path d="M401.28,107.57h-.68v.88h-1v-.88h-2.26v-.65l2-2.67h1l-1.84,2.53h1.13V106h.92v.79h.68Z"/><path d="M401.61,106.21a1.38,1.38,0,0,1,0-1.69,1.06,1.06,0,0,1,1.5,0,1.38,1.38,0,0,1,0,1.69,1.06,1.06,0,0,1-1.5,0Zm1.07-.35a.86.86,0,0,0,.12-.5.82.82,0,0,0-.12-.49.37.37,0,0,0-.32-.17.39.39,0,0,0-.32.17.84.84,0,0,0-.12.49.86.86,0,0,0,.12.5.39.39,0,0,0,.32.17A.37.37,0,0,0,402.68,105.86Zm2.18-1.61h.72l-2.87,4.2H402Zm-.19,4.11a1,1,0,0,1-.37-.4,1.52,1.52,0,0,1,0-1.23,1,1,0,0,1,.37-.4,1,1,0,0,1,.54-.14,1,1,0,0,1,.75.31,1.34,1.34,0,0,1,0,1.69,1,1,0,0,1-.75.31A1,1,0,0,1,404.67,108.36Zm.86-.52a.86.86,0,0,0,.12-.5.84.84,0,0,0-.12-.49.37.37,0,0,0-.32-.17.36.36,0,0,0-.32.17.82.82,0,0,0-.12.49.86.86,0,0,0,.12.5.39.39,0,0,0,.32.17A.37.37,0,0,0,405.53,107.84Z"/><path d="M470.3,111.72a2.19,2.19,0,0,1,.5,1.54,2.6,2.6,0,0,1-.27,1.23,1.75,1.75,0,0,1-.75.77,2.26,2.26,0,0,1-1.12.27,2.61,2.61,0,0,1-.64-.08,1.66,1.66,0,0,1-.52-.21l.35-.72a1.39,1.39,0,0,0,.79.21,1.14,1.14,0,0,0,.85-.31,1.32,1.32,0,0,0,.33-.91,1.41,1.41,0,0,1-1,.38,1.74,1.74,0,0,1-.73-.16,1.32,1.32,0,0,1-.51-1.89,1.4,1.4,0,0,1,.58-.49,1.91,1.91,0,0,1,.8-.17A1.78,1.78,0,0,1,470.3,111.72Zm-.79,1.26a.53.53,0,0,0,.2-.45.58.58,0,0,0-.19-.45.81.81,0,0,0-.54-.17.69.69,0,0,0-.5.17.53.53,0,0,0-.2.45.55.55,0,0,0,.2.46.77.77,0,0,0,.52.17A.72.72,0,0,0,469.51,113Z"/><path d="M471.33,115.33a.57.57,0,0,1-.17-.42.53.53,0,0,1,.17-.41.56.56,0,0,1,.41-.16.58.58,0,0,1,.42.16.53.53,0,0,1,.17.41.57.57,0,0,1-.17.42.55.55,0,0,1-.42.17A.53.53,0,0,1,471.33,115.33Z"/><path d="M476,111.25v.63l-1.56,3.57h-1.05l1.5-3.4h-1.39v.68h-.86v-1.48Z"/><path d="M478.07,111.25v4.2h-1V112h-.83v-.78Z"/><path d="M479,113.21a1.38,1.38,0,0,1,0-1.69,1.06,1.06,0,0,1,1.5,0,1.38,1.38,0,0,1,0,1.69,1.06,1.06,0,0,1-1.5,0Zm1.07-.35a.86.86,0,0,0,.12-.5.82.82,0,0,0-.12-.49.35.35,0,0,0-.32-.17.39.39,0,0,0-.32.17.84.84,0,0,0-.12.49.86.86,0,0,0,.12.5.39.39,0,0,0,.32.17A.37.37,0,0,0,480.09,112.86Zm2.18-1.61H483l-2.87,4.2h-.72Zm-.19,4.11a1,1,0,0,1-.37-.4,1.52,1.52,0,0,1,0-1.23,1,1,0,0,1,.37-.4,1,1,0,0,1,.54-.14,1,1,0,0,1,.75.31,1.34,1.34,0,0,1,0,1.69,1,1,0,0,1-.75.31A1,1,0,0,1,482.08,115.36Zm.86-.52a.88.88,0,0,0,.12-.5.84.84,0,0,0-.12-.49.35.35,0,0,0-.32-.17.36.36,0,0,0-.32.17.82.82,0,0,0-.12.49.86.86,0,0,0,.12.5.39.39,0,0,0,.32.17A.37.37,0,0,0,482.94,114.84Z"/></svg>