<svg id="Layer_1" data-name="Layer 1" xmlns="http://www.w3.org/2000/svg" viewBox="0 0 504.01 277.74"><defs><style>.cls-1{fill:#fff;}.cls-2{opacity:0.2;}.cls-3{fill:#017db9;}.cls-4{fill:#ed4328;}.cls-5{fill:#41ac49;}.cls-6{fill:none;stroke:#41ac49;stroke-miterlimit:10;stroke-width:2px;}</style></defs><rect class="cls-1" width="504.01" height="277.74"/><path d="M174.34,31.24a4.48,4.48,0,0,1-1.17-3.32V22.43h2.27v5.41c0,1.75.73,2.63,2.18,2.63a2,2,0,0,0,1.63-.64,3,3,0,0,0,.56-2V22.43h2.24v5.49a4.64,4.64,0,0,1-7.71,3.32Z"/><path d="M191,25.43a3.3,3.3,0,0,1,.86,2.49v4.31h-2.18v-4a2,2,0,0,0-.39-1.34,1.42,1.42,0,0,0-1.14-.44,1.73,1.73,0,0,0-1.31.51,2.11,2.11,0,0,0-.49,1.52v3.72h-2.19V24.7h2.09v.88a2.83,2.83,0,0,1,1.08-.73,3.61,3.61,0,0,1,1.41-.26A3.08,3.08,0,0,1,191,25.43Z"/><path d="M201.23,29.08h-5.7a1.78,1.78,0,0,0,.73,1.11,2.41,2.41,0,0,0,1.43.4,2.8,2.8,0,0,0,1-.17,2.63,2.63,0,0,0,.85-.55l1.16,1.26a3.92,3.92,0,0,1-3.11,1.21,4.9,4.9,0,0,1-2.25-.49,3.64,3.64,0,0,1-1.52-1.38,4,4,0,0,1,0-4,3.77,3.77,0,0,1,1.44-1.39,4.23,4.23,0,0,1,2-.49,4.28,4.28,0,0,1,2,.47,3.51,3.51,0,0,1,1.41,1.37,4.06,4.06,0,0,1,.51,2.06S201.26,28.72,201.23,29.08Zm-5.11-2.42a1.79,1.79,0,0,0-.62,1.15h3.71a1.78,1.78,0,0,0-.61-1.14,1.84,1.84,0,0,0-1.24-.43A1.86,1.86,0,0,0,196.12,26.66Z"/><path d="M214.62,25.42a3.43,3.43,0,0,1,.83,2.5v4.31h-2.18v-4a2.08,2.08,0,0,0-.37-1.34,1.29,1.29,0,0,0-1.06-.44,1.57,1.57,0,0,0-1.22.49,2.16,2.16,0,0,0-.45,1.48v3.78H208v-4c0-1.19-.48-1.78-1.43-1.78a1.54,1.54,0,0,0-1.2.49,2.16,2.16,0,0,0-.45,1.48v3.78h-2.18V24.7h2.08v.87a2.73,2.73,0,0,1,1-.73,3.44,3.44,0,0,1,1.34-.25,3.24,3.24,0,0,1,1.44.31,2.57,2.57,0,0,1,1,.92,3,3,0,0,1,1.17-.91,3.72,3.72,0,0,1,1.54-.32A3.06,3.06,0,0,1,214.62,25.42Z"/><path d="M223.78,25.07a3.53,3.53,0,0,1,1.35,1.36,4.47,4.47,0,0,1,0,4.07,3.46,3.46,0,0,1-1.35,1.36,3.91,3.91,0,0,1-1.92.48,2.88,2.88,0,0,1-2.26-.91V35h-2.19V24.7h2.09v.87a2.87,2.87,0,0,1,2.36-1A3.91,3.91,0,0,1,223.78,25.07ZM222.87,30a2.43,2.43,0,0,0,0-3,2,2,0,0,0-2.76,0,2.4,2.4,0,0,0,0,3,2,2,0,0,0,2.76,0Z"/><path d="M227.07,21.84h2.19V32.23h-2.19Z"/><path d="M232.74,31.85a3.65,3.65,0,0,1-1.48-1.38,3.82,3.82,0,0,1,1.48-5.39,4.87,4.87,0,0,1,4.26,0,3.71,3.71,0,0,1,2,3.39,3.86,3.86,0,0,1-.53,2A3.76,3.76,0,0,1,237,31.85a4.87,4.87,0,0,1-4.26,0ZM236.25,30a2.4,2.4,0,0,0,0-3,1.82,1.82,0,0,0-1.38-.57,1.85,1.85,0,0,0-1.39.57,2.4,2.4,0,0,0,0,3,1.85,1.85,0,0,0,1.39.57A1.82,1.82,0,0,0,236.25,30Z"/><path d="M247.72,24.7l-3.4,8A3.92,3.92,0,0,1,243,34.53a3.17,3.17,0,0,1-1.84.53,3.85,3.85,0,0,1-1.16-.18,2.41,2.41,0,0,1-.94-.51l.8-1.55a1.7,1.7,0,0,0,.58.35,1.88,1.88,0,0,0,.65.13,1.2,1.2,0,0,0,.73-.22,2,2,0,0,0,.5-.72l0-.07-3.26-7.59h2.25l2.11,5.11,2.13-5.11Z"/><path d="M260.51,25.42a3.38,3.38,0,0,1,.83,2.5v4.31h-2.18v-4a2,2,0,0,0-.37-1.34,1.29,1.29,0,0,0-1.06-.44,1.57,1.57,0,0,0-1.22.49,2.16,2.16,0,0,0-.44,1.48v3.78h-2.19v-4c0-1.19-.47-1.78-1.43-1.78a1.54,1.54,0,0,0-1.2.49,2.16,2.16,0,0,0-.45,1.48v3.78h-2.18V24.7h2.08v.87a2.81,2.81,0,0,1,1-.73,3.44,3.44,0,0,1,1.34-.25,3.24,3.24,0,0,1,1.44.31,2.57,2.57,0,0,1,1,.92,3.09,3.09,0,0,1,1.17-.91,3.72,3.72,0,0,1,1.54-.32A3,3,0,0,1,260.51,25.42Z"/><path d="M270.72,29.08H265a1.76,1.76,0,0,0,.72,1.11,2.43,2.43,0,0,0,1.43.4,2.89,2.89,0,0,0,1.05-.17,2.59,2.59,0,0,0,.84-.55l1.16,1.26a3.89,3.89,0,0,1-3.1,1.21,5,5,0,0,1-2.26-.49,3.61,3.61,0,0,1-1.51-1.38,3.76,3.76,0,0,1-.53-2,3.85,3.85,0,0,1,.52-2,3.77,3.77,0,0,1,1.44-1.39,4.53,4.53,0,0,1,4.06,0,3.48,3.48,0,0,1,1.4,1.37,4,4,0,0,1,.52,2.06S270.75,28.72,270.72,29.08Zm-5.11-2.42a1.78,1.78,0,0,0-.61,1.15h3.71a1.79,1.79,0,0,0-.62-1.14,1.81,1.81,0,0,0-1.23-.43A1.91,1.91,0,0,0,265.61,26.66Z"/><path d="M279.06,25.43a3.34,3.34,0,0,1,.86,2.49v4.31h-2.18v-4a2,2,0,0,0-.39-1.34,1.44,1.44,0,0,0-1.14-.44,1.72,1.72,0,0,0-1.31.51,2.11,2.11,0,0,0-.49,1.52v3.72h-2.19V24.7h2.09v.88a2.83,2.83,0,0,1,1.08-.73,3.61,3.61,0,0,1,1.41-.26A3.1,3.1,0,0,1,279.06,25.43Z"/><path d="M286.75,31.87a2,2,0,0,1-.79.35,3.93,3.93,0,0,1-1,.12,2.91,2.91,0,0,1-2.08-.68,2.64,2.64,0,0,1-.74-2V26.55H281V24.87h1.16V23h2.19v1.84h1.87v1.68h-1.87v3.06a1,1,0,0,0,.24.74.92.92,0,0,0,.69.26,1.47,1.47,0,0,0,.89-.28Z"/><path d="M298.35,32.23l-1.89-2.73h-2.09v2.73H292.1v-9.8h4.24a5.42,5.42,0,0,1,2.26.44,3.48,3.48,0,0,1,1.47,5,3.27,3.27,0,0,1-1.49,1.21l2.2,3.15Zm-.58-7.51a2.39,2.39,0,0,0-1.55-.44h-1.85V27.7h1.85a2.33,2.33,0,0,0,1.55-.45,1.77,1.77,0,0,0,0-2.53Z"/><path d="M307.89,25.42a3.17,3.17,0,0,1,.94,2.51v4.3h-2v-.94a2.44,2.44,0,0,1-2.3,1.05,3.46,3.46,0,0,1-1.5-.29,2.33,2.33,0,0,1-1-.81,2.16,2.16,0,0,1-.33-1.18,2,2,0,0,1,.79-1.65,4,4,0,0,1,2.44-.6h1.74a1.39,1.39,0,0,0-.44-1.1,1.89,1.89,0,0,0-1.3-.39,4,4,0,0,0-1.18.19,3.3,3.3,0,0,0-1,.51L302,25.5a4.52,4.52,0,0,1,1.47-.67,6.64,6.64,0,0,1,1.78-.24A3.93,3.93,0,0,1,307.89,25.42ZM306,30.61a1.39,1.39,0,0,0,.62-.76v-.77h-1.5c-.9,0-1.34.3-1.34.88a.81.81,0,0,0,.32.67,1.51,1.51,0,0,0,.91.24A1.83,1.83,0,0,0,306,30.61Z"/><path d="M315.66,31.87a2,2,0,0,1-.79.35,3.93,3.93,0,0,1-1,.12,2.91,2.91,0,0,1-2.08-.68,2.64,2.64,0,0,1-.74-2V26.55h-1.16V24.87h1.16V23h2.19v1.84h1.87v1.68h-1.87v3.06a1,1,0,0,0,.24.74.92.92,0,0,0,.69.26,1.47,1.47,0,0,0,.89-.28Z"/><path d="M324,29.08H318.3a1.76,1.76,0,0,0,.72,1.11,2.43,2.43,0,0,0,1.43.4,2.8,2.8,0,0,0,1-.17,2.53,2.53,0,0,0,.85-.55l1.16,1.26a3.89,3.89,0,0,1-3.1,1.21,5,5,0,0,1-2.26-.49,3.61,3.61,0,0,1-1.51-1.38,3.76,3.76,0,0,1-.53-2,3.85,3.85,0,0,1,.52-2,3.77,3.77,0,0,1,1.44-1.39,4.53,4.53,0,0,1,4.06,0,3.55,3.55,0,0,1,1.4,1.37,4,4,0,0,1,.52,2.06S324,28.72,324,29.08Zm-5.11-2.42a1.78,1.78,0,0,0-.61,1.15H322a1.79,1.79,0,0,0-.62-1.14,1.81,1.81,0,0,0-1.23-.43A1.89,1.89,0,0,0,318.88,26.66Z"/><path d="M326.19,32.11a4.82,4.82,0,0,1-1.43-.58l.73-1.57a4.58,4.58,0,0,0,1.22.53,5.32,5.32,0,0,0,1.4.2c.92,0,1.39-.23,1.39-.68a.5.5,0,0,0-.38-.47,5.55,5.55,0,0,0-1.16-.23,12.27,12.27,0,0,1-1.53-.33,2.31,2.31,0,0,1-1-.64A1.82,1.82,0,0,1,325,27a2,2,0,0,1,.41-1.26,2.61,2.61,0,0,1,1.2-.86,5.05,5.05,0,0,1,1.87-.31,7.81,7.81,0,0,1,1.59.17,4.43,4.43,0,0,1,1.31.49l-.73,1.55a4.36,4.36,0,0,0-2.17-.56,2.08,2.08,0,0,0-1.05.2.57.57,0,0,0-.35.5.5.5,0,0,0,.38.49,7.43,7.43,0,0,0,1.2.27,13.67,13.67,0,0,1,1.51.32,2.27,2.27,0,0,1,1,.64,1.81,1.81,0,0,1,.43,1.29,2,2,0,0,1-.42,1.25,2.72,2.72,0,0,1-1.22.84,5.51,5.51,0,0,1-1.91.3A7.08,7.08,0,0,1,326.19,32.11Z"/><g class="cls-2"><rect x="54.06" y="74.32" width="395.89" height="0.47"/></g><g class="cls-2"><rect x="54.06" y="99.34" width="395.89" height="0.47"/></g><g class="cls-2"><rect x="54.06" y="124.69" width="395.89" height="0.47"/></g><g class="cls-2"><rect x="54.06" y="149.1" width="395.89" height="0.47"/></g><g class="cls-2"><rect x="54.06" y="174.2" width="395.89" height="0.47"/></g><g class="cls-2"><rect x="54.06" y="199.21" width="395.89" height="0.47"/></g><g class="cls-2"><rect x="54.06" y="224.21" width="395.89" height="0.47"/></g><rect class="cls-3" x="82.37" y="159.61" width="31.99" height="65.06"/><rect class="cls-4" x="124.44" y="142.88" width="31.99" height="81.79"/><path d="M113.89,236.94h-4v-.59l2-2.4a6.2,6.2,0,0,0,.73-1,1.86,1.86,0,0,0,.19-.78,1.07,1.07,0,0,0-.26-.73,1,1,0,0,0-.72-.28,1.09,1.09,0,0,0-.86.35,1.27,1.27,0,0,0-.3.86h-.83v0a1.73,1.73,0,0,1,.52-1.33,2,2,0,0,1,1.48-.54,1.86,1.86,0,0,1,1.35.48,1.6,1.6,0,0,1,.49,1.22,1.91,1.91,0,0,1-.28,1,9,9,0,0,1-.85,1.21L111,236.24v0h2.91Z"/><path d="M118.9,234.68a2.5,2.5,0,0,1-.55,1.72,2.07,2.07,0,0,1-3,0,2.5,2.5,0,0,1-.55-1.72V232.8a2.49,2.49,0,0,1,.55-1.71,2,2,0,0,1,3,0,2.5,2.5,0,0,1,.56,1.71Zm-.87-2.06a1.78,1.78,0,0,0-.3-1.09,1,1,0,0,0-.87-.4,1,1,0,0,0-.86.4,1.72,1.72,0,0,0-.31,1.09v2.24A1.79,1.79,0,0,0,116,236a1,1,0,0,0,.86.41,1,1,0,0,0,.87-.41,1.76,1.76,0,0,0,.3-1.09Z"/><path d="M122.52,236.94h-.87v-5.6h-1.4v-.66l2.27-.24Z"/><path d="M126.66,236.36a1.3,1.3,0,0,0,1-.43,1.78,1.78,0,0,0,.39-1.23v-.54a1.4,1.4,0,0,1-.53.47,1.46,1.46,0,0,1-.69.16,1.86,1.86,0,0,1-1.44-.57,2.23,2.23,0,0,1-.53-1.58,2.28,2.28,0,0,1,.56-1.58,1.78,1.78,0,0,1,1.38-.61,2,2,0,0,1,1.54.6,2.38,2.38,0,0,1,.58,1.7v1.94a2.29,2.29,0,0,1-.64,1.73,2.23,2.23,0,0,1-1.63.61A3.37,3.37,0,0,1,126,237a2.81,2.81,0,0,1-.66-.2l.13-.66a3,3,0,0,0,.57.2A3.2,3.2,0,0,0,126.66,236.36Zm.18-2.25a1.24,1.24,0,0,0,1.22-.73v-.75a1.73,1.73,0,0,0-.32-1.11,1.12,1.12,0,0,0-.91-.39.94.94,0,0,0-.78.42,2.09,2.09,0,0,0,0,2.16A.93.93,0,0,0,126.84,234.11Z"/><path d="M90.68,153.39a1.56,1.56,0,0,1,.56,1.26,1.75,1.75,0,0,1-.25.93,1.9,1.9,0,0,1-.79.68,3.06,3.06,0,0,1-1.29.25,4.16,4.16,0,0,1-1.16-.16,2.89,2.89,0,0,1-1-.44l.51-1a2.51,2.51,0,0,0,.73.37,2.8,2.8,0,0,0,.86.13,1.33,1.33,0,0,0,.77-.19.64.64,0,0,0,.28-.54.6.6,0,0,0-.29-.54,2,2,0,0,0-1-.19H87.19l.29-3.15H90.9v1H88.56l-.09,1.07h.46A2.67,2.67,0,0,1,90.68,153.39Z"/><path d="M92,156.25a.75.75,0,0,1-.22-.56.71.71,0,0,1,.22-.55.81.81,0,0,1,1.11,0,.71.71,0,0,1,.22.55.75.75,0,0,1-.22.56.78.78,0,0,1-1.11,0Z"/><path d="M98.13,155.36v1H93.9v-.84l2.16-2a2.22,2.22,0,0,0,.46-.56,1.06,1.06,0,0,0,.12-.47.64.64,0,0,0-.23-.52,1.05,1.05,0,0,0-.67-.18,1.59,1.59,0,0,0-.66.14,1.44,1.44,0,0,0-.5.42l-.94-.6a2.26,2.26,0,0,1,.9-.77,3.11,3.11,0,0,1,1.32-.27,2.7,2.7,0,0,1,1.1.2,1.67,1.67,0,0,1,.72.58,1.42,1.42,0,0,1,.26.87,1.93,1.93,0,0,1-.19.86,3.34,3.34,0,0,1-.74.91l-1.29,1.22Z"/><path d="M102.41,153.64a1.53,1.53,0,0,1,.39,1.06,1.6,1.6,0,0,1-.26.9,1.84,1.84,0,0,1-.78.66,2.86,2.86,0,0,1-1.28.25,4.16,4.16,0,0,1-1.16-.16,3,3,0,0,1-1-.44l.51-1a2.45,2.45,0,0,0,.74.37,2.8,2.8,0,0,0,.86.13,1.35,1.35,0,0,0,.77-.19.61.61,0,0,0,.28-.53q0-.69-1-.69h-.59v-.85l1.15-1.31H98.62v-1h3.92v.84l-1.26,1.44A1.86,1.86,0,0,1,102.41,153.64Z"/><path d="M103.61,153.42a1.6,1.6,0,0,1-.39-1.13,1.57,1.57,0,0,1,.39-1.12,1.32,1.32,0,0,1,1-.42,1.3,1.3,0,0,1,1,.42,1.62,1.62,0,0,1,.38,1.12,1.64,1.64,0,0,1-.38,1.13,1.3,1.3,0,0,1-1,.42A1.32,1.32,0,0,1,103.61,153.42ZM105,153a1.12,1.12,0,0,0,.16-.67,1.11,1.11,0,0,0-.16-.66.48.48,0,0,0-.42-.23.51.51,0,0,0-.43.23,1.44,1.44,0,0,0,0,1.32.51.51,0,0,0,.43.23A.5.5,0,0,0,105,153Zm2.91-2.15h1l-3.82,5.6h-1Zm-.25,5.48a1.35,1.35,0,0,1-.49-.54,1.8,1.8,0,0,1-.18-.82,1.73,1.73,0,0,1,.18-.81,1.23,1.23,0,0,1,.49-.54,1.34,1.34,0,0,1,.72-.19,1.3,1.3,0,0,1,1,.42,1.57,1.57,0,0,1,.39,1.12,1.6,1.6,0,0,1-.39,1.13,1.3,1.3,0,0,1-1,.42A1.43,1.43,0,0,1,107.7,156.29Zm1.14-.7a1.44,1.44,0,0,0,0-1.32.48.48,0,0,0-.42-.23.51.51,0,0,0-.43.23,1.19,1.19,0,0,0-.16.66,1.23,1.23,0,0,0,.16.67.5.5,0,0,0,.43.22A.48.48,0,0,0,108.84,155.59Z"/><path class="cls-5" d="M63.72,172.18H62.58v1.47H61v-1.47H57.23v-1.09l3.3-4.44h1.7l-3.06,4.21h1.88v-1.31h1.53v1.31h1.14Z"/><path class="cls-5" d="M64.27,169.91a2.26,2.26,0,0,1,0-2.81,1.74,1.74,0,0,1,2.5,0,2.3,2.3,0,0,1,0,2.81,1.76,1.76,0,0,1-2.5,0Zm1.79-.58a1.43,1.43,0,0,0,.19-.83,1.48,1.48,0,0,0-.19-.83.64.64,0,0,0-.54-.28.63.63,0,0,0-.53.29,1.44,1.44,0,0,0-.2.82,1.47,1.47,0,0,0,.2.83.62.62,0,0,0,.53.28A.61.61,0,0,0,66.06,169.33Zm3.63-2.68h1.19l-4.78,7H64.91Zm-.31,6.85a1.58,1.58,0,0,1-.62-.68,2.32,2.32,0,0,1-.22-1,2.39,2.39,0,0,1,.22-1,1.55,1.55,0,0,1,.62-.67,1.67,1.67,0,0,1,.89-.24,1.65,1.65,0,0,1,1.26.53,2.3,2.3,0,0,1,0,2.81,1.64,1.64,0,0,1-1.26.52A1.76,1.76,0,0,1,69.38,173.5Zm1.43-.87a1.48,1.48,0,0,0,.19-.83,1.44,1.44,0,0,0-.19-.82.62.62,0,0,0-.54-.29.65.65,0,0,0-.53.28,1.47,1.47,0,0,0-.2.83,1.43,1.43,0,0,0,.2.83.62.62,0,0,0,.53.28A.61.61,0,0,0,70.81,172.63Z"/><path d="M132.12,136.39a1.65,1.65,0,0,1,1,1.53,1.71,1.71,0,0,1-.29,1,1.79,1.79,0,0,1-.76.65,2.5,2.5,0,0,1-1.07.23,2.37,2.37,0,0,1-1.84-.72,2.9,2.9,0,0,1-.67-2.06,3.47,3.47,0,0,1,.36-1.63,2.45,2.45,0,0,1,1-1,3,3,0,0,1,1.49-.35,3.49,3.49,0,0,1,.86.1,2.33,2.33,0,0,1,.7.28l-.48.95a1.91,1.91,0,0,0-1-.28,1.52,1.52,0,0,0-1.13.42,1.73,1.73,0,0,0-.45,1.21,1.89,1.89,0,0,1,1.39-.5A2.1,2.1,0,0,1,132.12,136.39Zm-.56,2.2a.85.85,0,0,0,0-1.22,1.15,1.15,0,0,0-1.39,0,.74.74,0,0,0-.27.6.78.78,0,0,0,.26.6,1.09,1.09,0,0,0,.72.23A1,1,0,0,0,131.56,138.59Z"/><path d="M133.81,139.52a.75.75,0,0,1-.22-.56.71.71,0,0,1,.22-.55.77.77,0,0,1,.55-.21.79.79,0,0,1,.56.21.75.75,0,0,1,.22.55.79.79,0,0,1-.22.56.77.77,0,0,1-.56.23A.75.75,0,0,1,133.81,139.52Z"/><path d="M140.85,138.51h-.91v1.17h-1.27v-1.17h-3v-.87l2.64-3.56h1.36l-2.45,3.37h1.51v-1h1.22v1h.91Z"/><path d="M145.4,138.63v1.05h-4.23v-.84l2.16-2a2.06,2.06,0,0,0,.46-.56,1,1,0,0,0,.13-.47.62.62,0,0,0-.23-.51,1.09,1.09,0,0,0-.67-.18,1.46,1.46,0,0,0-.67.14,1.23,1.23,0,0,0-.49.42l-.94-.61a2.13,2.13,0,0,1,.9-.77,3.05,3.05,0,0,1,1.32-.27,2.83,2.83,0,0,1,1.09.2,1.7,1.7,0,0,1,.73.58,1.51,1.51,0,0,1,.26.87,1.93,1.93,0,0,1-.19.86,3.27,3.27,0,0,1-.75.91L143,138.63Z"/><path d="M146.31,136.69a1.6,1.6,0,0,1-.39-1.13,1.57,1.57,0,0,1,.39-1.12,1.41,1.41,0,0,1,2,0,1.62,1.62,0,0,1,.38,1.12,1.64,1.64,0,0,1-.38,1.13,1.41,1.41,0,0,1-2,0Zm1.43-.46a1.12,1.12,0,0,0,.16-.67,1.11,1.11,0,0,0-.16-.66.47.47,0,0,0-.42-.22.5.5,0,0,0-.43.22,1.15,1.15,0,0,0-.16.66,1.11,1.11,0,0,0,.16.66.49.49,0,0,0,.43.23A.47.47,0,0,0,147.74,136.23Zm2.91-2.15h.95l-3.82,5.6h-.95Zm-.25,5.48a1.28,1.28,0,0,1-.49-.54,1.77,1.77,0,0,1-.18-.82,1.73,1.73,0,0,1,.18-.81,1.17,1.17,0,0,1,.49-.54,1.34,1.34,0,0,1,.72-.19,1.3,1.3,0,0,1,1,.42,1.57,1.57,0,0,1,.39,1.12,1.6,1.6,0,0,1-.39,1.13,1.3,1.3,0,0,1-1,.42A1.43,1.43,0,0,1,150.4,139.56Zm1.14-.7a1.11,1.11,0,0,0,.16-.66,1.15,1.15,0,0,0-.16-.66.47.47,0,0,0-.42-.22.5.5,0,0,0-.43.22,1.11,1.11,0,0,0-.16.66,1.12,1.12,0,0,0,.16.67.5.5,0,0,0,.43.22A.46.46,0,0,0,151.54,138.86Z"/><rect class="cls-3" x="214.98" y="134.61" width="31.99" height="90.06"/><rect class="cls-4" x="257.05" y="94.88" width="31.99" height="129.79"/><path d="M246.5,236.94h-4v-.59l2-2.4a6.2,6.2,0,0,0,.73-1,1.72,1.72,0,0,0,.19-.78,1.07,1.07,0,0,0-.26-.73,1,1,0,0,0-.72-.28,1.07,1.07,0,0,0-.86.35,1.27,1.27,0,0,0-.3.86h-.83v0A1.73,1.73,0,0,1,243,231a2,2,0,0,1,1.48-.54,1.86,1.86,0,0,1,1.35.48,1.6,1.6,0,0,1,.49,1.22,2,2,0,0,1-.27,1,10.3,10.3,0,0,1-.86,1.21l-1.61,1.89v0h2.91Z"/><path d="M251.51,234.68a2.5,2.5,0,0,1-.55,1.72,1.87,1.87,0,0,1-1.48.63,1.89,1.89,0,0,1-1.49-.63,2.5,2.5,0,0,1-.55-1.72V232.8a2.49,2.49,0,0,1,.55-1.71,2,2,0,0,1,3,0,2.45,2.45,0,0,1,.56,1.71Zm-.86-2.06a1.79,1.79,0,0,0-.31-1.09,1,1,0,0,0-.87-.4,1,1,0,0,0-.86.4,1.72,1.72,0,0,0-.31,1.09v2.24a1.79,1.79,0,0,0,.31,1.09,1,1,0,0,0,.87.41,1,1,0,0,0,.86-.41,1.77,1.77,0,0,0,.31-1.09Z"/><path d="M256.64,236.94h-4v-.59l2-2.4a6.2,6.2,0,0,0,.73-1,1.72,1.72,0,0,0,.19-.78,1.07,1.07,0,0,0-.26-.73.94.94,0,0,0-.71-.28,1.09,1.09,0,0,0-.87.35,1.31,1.31,0,0,0-.29.86h-.84v0a1.73,1.73,0,0,1,.53-1.33,2,2,0,0,1,1.48-.54,1.86,1.86,0,0,1,1.35.48,1.63,1.63,0,0,1,.49,1.22,2,2,0,0,1-.28,1,11.32,11.32,0,0,1-.85,1.21l-1.61,1.89v0h2.91Z"/><path d="M261.64,234.68a2.5,2.5,0,0,1-.55,1.72,2.05,2.05,0,0,1-3,0,2.46,2.46,0,0,1-.56-1.72V232.8a2.49,2.49,0,0,1,.55-1.71,1.85,1.85,0,0,1,1.48-.64,1.87,1.87,0,0,1,1.49.64,2.49,2.49,0,0,1,.55,1.71Zm-.86-2.06a1.79,1.79,0,0,0-.31-1.09,1,1,0,0,0-.87-.4,1,1,0,0,0-.86.4,1.79,1.79,0,0,0-.31,1.09v2.24a1.72,1.72,0,0,0,.32,1.09,1.11,1.11,0,0,0,1.72,0,1.7,1.7,0,0,0,.31-1.09Z"/><path d="M223.67,125.81v.84l-2.08,4.76h-1.4l2-4.54h-1.85v.91h-1.15v-2Z"/><path d="M224,131.25a.75.75,0,0,1-.22-.56.71.71,0,0,1,.22-.55.81.81,0,0,1,1.11,0,.71.71,0,0,1,.22.55.75.75,0,0,1-.22.56.78.78,0,0,1-1.11,0Z"/><path d="M227,131.16a2.3,2.3,0,0,1-.85-1,3.59,3.59,0,0,1-.31-1.56,3.51,3.51,0,0,1,.31-1.55,2.28,2.28,0,0,1,4.18,0,3.51,3.51,0,0,1,.31,1.55,3.59,3.59,0,0,1-.31,1.56,2.3,2.3,0,0,1-.85,1,2.37,2.37,0,0,1-2.48,0Zm2.05-1.19a3.33,3.33,0,0,0,0-2.72.94.94,0,0,0-.81-.44.91.91,0,0,0-.79.44,3.23,3.23,0,0,0,0,2.72.91.91,0,0,0,.79.44A.94.94,0,0,0,229.06,130Z"/><path d="M235.63,125.81v.84l-2.07,4.76h-1.41l2-4.54H232.3v.91h-1.15v-2Z"/><path d="M236.55,128.42a1.6,1.6,0,0,1-.39-1.13,1.57,1.57,0,0,1,.39-1.12,1.3,1.3,0,0,1,1-.42,1.27,1.27,0,0,1,1,.42,1.57,1.57,0,0,1,.39,1.12,1.6,1.6,0,0,1-.39,1.13,1.27,1.27,0,0,1-1,.42A1.3,1.3,0,0,1,236.55,128.42ZM238,128a1.12,1.12,0,0,0,.16-.67,1.11,1.11,0,0,0-.16-.66.49.49,0,0,0-.43-.23.51.51,0,0,0-.42.23,1.44,1.44,0,0,0,0,1.32.51.51,0,0,0,.42.23A.5.5,0,0,0,238,128Zm2.91-2.15h1l-3.82,5.6h-1Zm-.25,5.48a1.28,1.28,0,0,1-.49-.54,1.8,1.8,0,0,1-.18-.82,1.73,1.73,0,0,1,.18-.81,1.17,1.17,0,0,1,.49-.54,1.33,1.33,0,0,1,.71-.19,1.31,1.31,0,0,1,1,.42,1.57,1.57,0,0,1,.39,1.12,1.6,1.6,0,0,1-.39,1.13,1.31,1.31,0,0,1-1,.42A1.42,1.42,0,0,1,240.64,131.29Zm1.14-.7a1.44,1.44,0,0,0,0-1.32.49.49,0,0,0-.43-.23.51.51,0,0,0-.42.23,1.11,1.11,0,0,0-.16.66,1.14,1.14,0,0,0,.16.67.5.5,0,0,0,.42.22A.49.49,0,0,0,241.78,130.59Z"/><path d="M262.67,86.08v5.6h-1.29V87.12h-1.12v-1Z"/><path d="M264.81,91.44a2.33,2.33,0,0,1-.85-1,4.06,4.06,0,0,1,0-3.11,2.27,2.27,0,0,1,.85-1,2.24,2.24,0,0,1,1.24-.34,2.2,2.2,0,0,1,2.09,1.34,4.06,4.06,0,0,1,0,3.11,2.33,2.33,0,0,1-.85,1,2.27,2.27,0,0,1-1.24.34A2.24,2.24,0,0,1,264.81,91.44Zm2-1.2a2.42,2.42,0,0,0,.3-1.36,2.47,2.47,0,0,0-.3-1.36.91.91,0,0,0-.8-.44.92.92,0,0,0-.8.44,2.57,2.57,0,0,0-.29,1.36,2.52,2.52,0,0,0,.29,1.36.9.9,0,0,0,.8.44A.89.89,0,0,0,266.85,90.24Z"/><path d="M269.16,91.52a.75.75,0,0,1-.22-.56.71.71,0,0,1,.22-.55.84.84,0,0,1,1.11,0,.71.71,0,0,1,.22.55.75.75,0,0,1-.22.56.78.78,0,0,1-1.11,0Z"/><path d="M273.11,86.08v5.6h-1.3V87.12h-1.12v-1Z"/><path d="M277.89,86.7a3,3,0,0,1,.66,2.06,3.61,3.61,0,0,1-.35,1.64,2.45,2.45,0,0,1-1,1,3.12,3.12,0,0,1-1.49.35,3.44,3.44,0,0,1-.86-.1,2.43,2.43,0,0,1-.69-.28l.48-1a1.77,1.77,0,0,0,1,.28,1.52,1.52,0,0,0,1.13-.42,1.73,1.73,0,0,0,.45-1.21,1.87,1.87,0,0,1-1.39.51,2.24,2.24,0,0,1-1-.22,1.7,1.7,0,0,1-.69-.61,1.6,1.6,0,0,1-.26-.92,1.71,1.71,0,0,1,.28-1,1.85,1.85,0,0,1,.76-.65,2.44,2.44,0,0,1,1.08-.23A2.41,2.41,0,0,1,277.89,86.7Zm-1.05,1.69a.81.81,0,0,0,0-1.2,1,1,0,0,0-.72-.23,1,1,0,0,0-.68.22.77.77,0,0,0-.26.61.79.79,0,0,0,.26.61,1.05,1.05,0,0,0,.7.23A1,1,0,0,0,276.84,88.39Z"/><path d="M279.47,88.69a1.6,1.6,0,0,1-.39-1.13,1.57,1.57,0,0,1,.39-1.12,1.3,1.3,0,0,1,1-.42,1.28,1.28,0,0,1,1,.42,1.57,1.57,0,0,1,.39,1.12,1.6,1.6,0,0,1-.39,1.13,1.28,1.28,0,0,1-1,.42A1.3,1.3,0,0,1,279.47,88.69Zm1.43-.46a1.12,1.12,0,0,0,.16-.67,1.11,1.11,0,0,0-.16-.66.48.48,0,0,0-.43-.22.5.5,0,0,0-.42.22,1.15,1.15,0,0,0-.16.66,1.11,1.11,0,0,0,.16.66.48.48,0,0,0,.42.23A.48.48,0,0,0,280.9,88.23Zm2.91-2.15h.95l-3.82,5.6H280Zm-.25,5.48a1.28,1.28,0,0,1-.49-.54,1.77,1.77,0,0,1-.18-.82,1.73,1.73,0,0,1,.18-.81,1.17,1.17,0,0,1,.49-.54,1.42,1.42,0,0,1,1.72.23,1.57,1.57,0,0,1,.39,1.12,1.6,1.6,0,0,1-.39,1.13,1.32,1.32,0,0,1-1,.42A1.42,1.42,0,0,1,283.56,91.56Zm1.14-.7a1.11,1.11,0,0,0,.16-.66,1.15,1.15,0,0,0-.16-.66.48.48,0,0,0-.43-.22.5.5,0,0,0-.42.22,1.11,1.11,0,0,0-.16.66,1.12,1.12,0,0,0,.16.67.5.5,0,0,0,.42.22A.47.47,0,0,0,284.7,90.86Z"/><rect class="cls-3" x="345.57" y="143.61" width="31.99" height="81.06"/><rect class="cls-4" x="387.64" y="116.88" width="31.99" height="107.79"/><path d="M377.09,236.94h-4v-.59l2-2.4a5.48,5.48,0,0,0,.72-1,1.74,1.74,0,0,0,.2-.78,1.07,1.07,0,0,0-.26-.73,1,1,0,0,0-.72-.28,1.07,1.07,0,0,0-.86.35,1.27,1.27,0,0,0-.3.86h-.83v0a1.73,1.73,0,0,1,.52-1.33,2,2,0,0,1,1.48-.54,1.86,1.86,0,0,1,1.35.48,1.6,1.6,0,0,1,.49,1.22,1.91,1.91,0,0,1-.28,1,10,10,0,0,1-.85,1.21l-1.61,1.89v0h2.91Z"/><path d="M382.1,234.68a2.5,2.5,0,0,1-.55,1.72,1.89,1.89,0,0,1-1.49.63,1.87,1.87,0,0,1-1.48-.63,2.51,2.51,0,0,1-.56-1.72V232.8a2.5,2.5,0,0,1,.56-1.71,1.83,1.83,0,0,1,1.48-.64,1.86,1.86,0,0,1,1.48.64,2.5,2.5,0,0,1,.56,1.71Zm-.87-2.06a1.72,1.72,0,0,0-.31-1.09,1,1,0,0,0-.86-.4,1,1,0,0,0-.87.4,1.78,1.78,0,0,0-.3,1.09v2.24a1.72,1.72,0,0,0,.31,1.09,1.12,1.12,0,0,0,1.73,0,1.76,1.76,0,0,0,.3-1.09Z"/><path d="M387.23,236.94h-4v-.59l2-2.4a6.2,6.2,0,0,0,.73-1,1.72,1.72,0,0,0,.19-.78,1.07,1.07,0,0,0-.26-.73,1,1,0,0,0-.72-.28,1.09,1.09,0,0,0-.86.35,1.27,1.27,0,0,0-.3.86h-.83v0a1.76,1.76,0,0,1,.52-1.33,2,2,0,0,1,1.48-.54,1.83,1.83,0,0,1,1.35.48,1.61,1.61,0,0,1,.5,1.22,2,2,0,0,1-.28,1,11.32,11.32,0,0,1-.85,1.21l-1.62,1.89v0h2.92Z"/><path d="M390.78,236.94h-.87v-5.6h-1.39v-.66l2.26-.24Z"/><path d="M353.11,137.12a1.6,1.6,0,0,1,.7.61,1.64,1.64,0,0,1,.25.91,1.74,1.74,0,0,1-.28,1,1.79,1.79,0,0,1-.76.65,2.52,2.52,0,0,1-1.08.23,2.4,2.4,0,0,1-1.84-.72,3,3,0,0,1-.66-2.06,3.44,3.44,0,0,1,.36-1.63,2.43,2.43,0,0,1,1-1,3,3,0,0,1,1.5-.35,3.55,3.55,0,0,1,.86.1,2.33,2.33,0,0,1,.7.28l-.48,1a1.91,1.91,0,0,0-1.05-.28,1.52,1.52,0,0,0-1.13.42,1.73,1.73,0,0,0-.45,1.21,1.84,1.84,0,0,1,1.39-.5A2.1,2.1,0,0,1,353.11,137.12Zm-.56,2.2a.79.79,0,0,0,.26-.61.77.77,0,0,0-.26-.61,1,1,0,0,0-.69-.23,1.05,1.05,0,0,0-.7.23.78.78,0,0,0-.27.61.79.79,0,0,0,.26.6,1.09,1.09,0,0,0,.72.23A1,1,0,0,0,352.55,139.32Z"/><path d="M354.8,140.25a.75.75,0,0,1-.22-.56.71.71,0,0,1,.22-.55.8.8,0,0,1,1.1,0,.72.72,0,0,1,.23.55.78.78,0,0,1-1.33.56Z"/><path d="M361.84,139.24h-.91v1.17h-1.27v-1.17h-3v-.88l2.64-3.55h1.36l-2.45,3.37h1.5v-1.05h1.23v1.05h.91Z"/><path d="M366,135.43a3,3,0,0,1,.66,2.06,3.54,3.54,0,0,1-.35,1.63,2.42,2.42,0,0,1-1,1,3.12,3.12,0,0,1-1.49.35,4,4,0,0,1-.86-.1,2.34,2.34,0,0,1-.7-.29l.49-1a1.77,1.77,0,0,0,1,.28,1.52,1.52,0,0,0,1.13-.42,1.73,1.73,0,0,0,.45-1.21,1.87,1.87,0,0,1-1.39.5,2.24,2.24,0,0,1-1-.21,1.78,1.78,0,0,1-.69-.61,1.6,1.6,0,0,1-.26-.92,1.71,1.71,0,0,1,.28-1,1.88,1.88,0,0,1,.76-.66,2.54,2.54,0,0,1,1.08-.22A2.37,2.37,0,0,1,366,135.43ZM365,137.12a.81.81,0,0,0,0-1.2,1,1,0,0,0-.72-.24,1,1,0,0,0-.68.23.77.77,0,0,0-.26.61.79.79,0,0,0,.26.61,1,1,0,0,0,.69.23A1,1,0,0,0,365,137.12Z"/><path d="M367.58,137.42a1.6,1.6,0,0,1-.39-1.13,1.57,1.57,0,0,1,.39-1.12,1.3,1.3,0,0,1,1-.42,1.28,1.28,0,0,1,1,.42,1.57,1.57,0,0,1,.39,1.12,1.6,1.6,0,0,1-.39,1.13,1.28,1.28,0,0,1-1,.42A1.3,1.3,0,0,1,367.58,137.42ZM369,137a1.12,1.12,0,0,0,.16-.67,1.11,1.11,0,0,0-.16-.66.5.5,0,0,0-.43-.23.51.51,0,0,0-.42.23,1.44,1.44,0,0,0,0,1.32.51.51,0,0,0,.42.23A.51.51,0,0,0,369,137Zm2.91-2.15h.95l-3.82,5.6h-1Zm-.25,5.48a1.37,1.37,0,0,1-.5-.54,1.94,1.94,0,0,1-.17-.82,1.86,1.86,0,0,1,.17-.81,1.25,1.25,0,0,1,.5-.54,1.42,1.42,0,0,1,1.72.23,1.57,1.57,0,0,1,.38,1.12,1.6,1.6,0,0,1-.38,1.13,1.32,1.32,0,0,1-1,.42A1.42,1.42,0,0,1,371.67,140.29Zm1.14-.7a1.44,1.44,0,0,0,0-1.32.5.5,0,0,0-.43-.23.51.51,0,0,0-.42.23,1.11,1.11,0,0,0-.16.66,1.14,1.14,0,0,0,.16.67.51.51,0,0,0,.85,0Z"/><path d="M397.15,111.28a1.39,1.39,0,0,1,.22.78,1.44,1.44,0,0,1-.3.91,1.81,1.81,0,0,1-.83.6,3.39,3.39,0,0,1-1.24.21,3.3,3.3,0,0,1-1.23-.21,1.86,1.86,0,0,1-.83-.6,1.5,1.5,0,0,1-.29-.91,1.39,1.39,0,0,1,.22-.78,1.68,1.68,0,0,1,.63-.54,1.38,1.38,0,0,1-.48-.48,1.44,1.44,0,0,1,.1-1.52,1.76,1.76,0,0,1,.76-.56,3.43,3.43,0,0,1,2.25,0,1.74,1.74,0,0,1,.77.56,1.44,1.44,0,0,1,.1,1.52,1.33,1.33,0,0,1-.49.48A1.64,1.64,0,0,1,397.15,111.28Zm-1.38,1.33a.72.72,0,0,0,.29-.59.68.68,0,0,0-.29-.58,1.44,1.44,0,0,0-1.53,0,.67.67,0,0,0-.28.58.69.69,0,0,0,.28.59,1.18,1.18,0,0,0,.76.22A1.26,1.26,0,0,0,395.77,112.61Zm-1.4-3.48a.63.63,0,0,0-.23.51.6.6,0,0,0,.23.51,1,1,0,0,0,.63.18,1,1,0,0,0,.64-.18.66.66,0,0,0,0-1,1,1,0,0,0-.64-.19A1,1,0,0,0,394.37,109.13Z"/><path d="M398.23,113.52A.75.75,0,0,1,398,113a.72.72,0,0,1,.23-.55.75.75,0,0,1,.55-.21.77.77,0,0,1,.55.21.71.71,0,0,1,.22.55.77.77,0,0,1-.77.79A.73.73,0,0,1,398.23,113.52Z"/><path d="M404.39,108.08v.84l-2.08,4.76h-1.4l2-4.54h-1.85v.91h-1.15v-2Z"/><path d="M407.21,108.08v5.6h-1.3v-4.56h-1.12v-1Z"/><path d="M408.48,110.69a1.6,1.6,0,0,1-.39-1.13,1.57,1.57,0,0,1,.39-1.12,1.3,1.3,0,0,1,1-.42,1.28,1.28,0,0,1,1,.42,1.57,1.57,0,0,1,.39,1.12,1.6,1.6,0,0,1-.39,1.13,1.28,1.28,0,0,1-1,.42A1.3,1.3,0,0,1,408.48,110.69Zm1.43-.46a1.2,1.2,0,0,0,.16-.67,1.19,1.19,0,0,0-.16-.66.49.49,0,0,0-.43-.22.48.48,0,0,0-.42.22,1.15,1.15,0,0,0-.16.66,1.11,1.11,0,0,0,.16.66.47.47,0,0,0,.42.23A.49.49,0,0,0,409.91,110.23Zm2.91-2.15h.95l-3.82,5.6h-1Zm-.25,5.48a1.3,1.3,0,0,1-.5-.54,1.9,1.9,0,0,1-.17-.82,1.86,1.86,0,0,1,.17-.81,1.19,1.19,0,0,1,.5-.54,1.3,1.3,0,0,1,.71-.19,1.32,1.32,0,0,1,1,.42,1.62,1.62,0,0,1,.38,1.12,1.64,1.64,0,0,1-.38,1.13,1.32,1.32,0,0,1-1,.42A1.39,1.39,0,0,1,412.57,113.56Zm1.14-.7a1.19,1.19,0,0,0,.16-.66,1.24,1.24,0,0,0-.16-.66.49.49,0,0,0-.43-.22.48.48,0,0,0-.42.22,1.11,1.11,0,0,0-.16.66,1.12,1.12,0,0,0,.16.67.48.48,0,0,0,.42.22A.48.48,0,0,0,413.71,112.86Z"/><line class="cls-6" x1="75.61" y1="170.73" x2="428.41" y2="170.73"/><path class="cls-3" d="M28.36,257.41l1.13-1.13h0L33.82,252l-4.33-4.33h0l-1.13-1.13L22.9,252Zm-4-6.21.75.75-.75.75L23.6,252Zm8,1.5-.75-.75.75-.75.76.75Zm-3.22,3.23h0l-.78.78-1.76-1.77L28,253.52l-1.46-1.45-1.06,1.06.73.73.35-.36-.37-.37.35-.36.76.75-1.07,1.07-1.53-1.53L25.82,252l-1.11-1.11,1.53-1.53,1.07,1.06-.76.76-.35-.36.37-.37-.35-.36-.73.73,1.06,1.06L28,250.37,26.6,249l1-1h0l.78-.78.78.78h0l1,1-1.42,1.41,1.46,1.46,1.06-1.06L30.5,250l-.35.36.37.37-.35.36-.75-.76,1.06-1.06L32,250.84,30.91,252l1.1,1.11-1.53,1.53-1.06-1.07.75-.75.35.36-.37.37.35.36.73-.73-1.06-1.06-1.46,1.45,1.42,1.42Z"/><rect class="cls-3" x="27.5" y="254.06" width="1.72" height="1.72" transform="translate(228.67 415.12) rotate(135)"/><rect class="cls-3" x="27.5" y="248.08" width="1.72" height="1.72" transform="translate(224.44 404.91) rotate(135)"/><path d="M45.23,251.87a2.77,2.77,0,0,1-.73,1.95,2.49,2.49,0,0,1-1.89.77,2.36,2.36,0,0,1-1.82-.77,2.8,2.8,0,0,1-.7-1.95v-1.14a2.75,2.75,0,0,1,.7-1.94,2.33,2.33,0,0,1,1.82-.78,2.49,2.49,0,0,1,1.89.77,2.77,2.77,0,0,1,.73,1.95Zm-.87-1.15a2.21,2.21,0,0,0-.47-1.44,1.62,1.62,0,0,0-1.28-.56,1.47,1.47,0,0,0-1.2.56,2.2,2.2,0,0,0-.46,1.44v1.15a2.19,2.19,0,0,0,.46,1.45,1.44,1.44,0,0,0,1.2.56,1.57,1.57,0,0,0,1.28-.56,2.18,2.18,0,0,0,.47-1.45Z"/><path d="M50.41,252.3a2.66,2.66,0,0,1-.49,1.66,1.64,1.64,0,0,1-1.36.63,1.82,1.82,0,0,1-.77-.15,1.42,1.42,0,0,1-.57-.44v2.33h-.86v-6.59H47l.14.62a1.45,1.45,0,0,1,.58-.52,1.71,1.71,0,0,1,.8-.18,1.59,1.59,0,0,1,1.38.7,3.19,3.19,0,0,1,.49,1.85Zm-.87-.09a2.54,2.54,0,0,0-.32-1.33,1,1,0,0,0-.94-.52,1.16,1.16,0,0,0-.63.17,1.27,1.27,0,0,0-.43.46v2.3a1.19,1.19,0,0,0,.43.46,1.17,1.17,0,0,0,.64.17,1.1,1.1,0,0,0,.94-.46,2,2,0,0,0,.31-1.16Z"/><path d="M53.44,254.59a2,2,0,0,1-1.6-.65,2.54,2.54,0,0,1-.57-1.73V252a2.47,2.47,0,0,1,.59-1.69,1.84,1.84,0,0,1,1.44-.67,1.69,1.69,0,0,1,1.43.59,2.44,2.44,0,0,1,.48,1.58v.45h-3v0a2,2,0,0,0,.31,1.16,1.1,1.1,0,0,0,1,.45,2.26,2.26,0,0,0,.77-.13,1.65,1.65,0,0,0,.57-.35l.34.57a2.18,2.18,0,0,1-.67.41A2.57,2.57,0,0,1,53.44,254.59Zm-.14-4.25a.93.93,0,0,0-.75.35,1.75,1.75,0,0,0-.36.89v0h2.14v-.07a1.36,1.36,0,0,0-.25-.85A.91.91,0,0,0,53.3,250.34Z"/><path d="M57,249.74l.06.71a1.56,1.56,0,0,1,.59-.58,1.59,1.59,0,0,1,.82-.21,1.55,1.55,0,0,1,1.19.45A2,2,0,0,1,60,251.5v3h-.87v-3a1.33,1.33,0,0,0-.24-.89,1,1,0,0,0-.76-.26,1.29,1.29,0,0,0-.68.16,1.19,1.19,0,0,0-.44.45v3.53h-.87v-4.76Z"/><path d="M68.37,248.1v4.25a2.1,2.1,0,0,1-.68,1.65,2.64,2.64,0,0,1-1.77.59,2.52,2.52,0,0,1-1.71-.59,2.12,2.12,0,0,1-.66-1.65V248.1h.87v4.25a1.55,1.55,0,0,0,.42,1.15,1.46,1.46,0,0,0,1.08.42,1.57,1.57,0,0,0,1.14-.42,1.49,1.49,0,0,0,.45-1.15V248.1Z"/><path d="M70.4,249.74l.06.71a1.66,1.66,0,0,1,.6-.58,1.75,1.75,0,0,1,2,.24,2,2,0,0,1,.42,1.39v3h-.86v-3a1.33,1.33,0,0,0-.25-.89,1,1,0,0,0-.76-.26,1.32,1.32,0,0,0-.68.16,1.27,1.27,0,0,0-.44.45v3.53h-.86v-4.76Z"/><path d="M76.71,254.59a2,2,0,0,1-1.6-.65,2.54,2.54,0,0,1-.57-1.73V252a2.47,2.47,0,0,1,.59-1.69,1.83,1.83,0,0,1,1.44-.67,1.71,1.71,0,0,1,1.43.59,2.44,2.44,0,0,1,.48,1.58v.45h-3v0a2,2,0,0,0,.31,1.16,1.1,1.1,0,0,0,1,.45,2.26,2.26,0,0,0,.77-.13,1.65,1.65,0,0,0,.57-.35l.34.57a2.18,2.18,0,0,1-.67.41A2.57,2.57,0,0,1,76.71,254.59Zm-.14-4.25a.93.93,0,0,0-.75.35,1.67,1.67,0,0,0-.36.89v0h2.14v-.07a1.36,1.36,0,0,0-.25-.85A.91.91,0,0,0,76.57,250.34Z"/><path d="M80.23,249.74l.06.63a1.58,1.58,0,0,1,.59-.53,1.81,1.81,0,0,1,.83-.18,1.4,1.4,0,0,1,.81.22,1.3,1.3,0,0,1,.52.66,1.77,1.77,0,0,1,.59-.65,1.54,1.54,0,0,1,.86-.23,1.4,1.4,0,0,1,1.15.5,2.28,2.28,0,0,1,.42,1.5v2.84h-.87v-2.85a1.61,1.61,0,0,0-.24-1,.89.89,0,0,0-.72-.29.92.92,0,0,0-.72.31,1.31,1.31,0,0,0-.32.77v3.06h-.87v-2.85a1.54,1.54,0,0,0-.25-1,.84.84,0,0,0-.71-.31,1.16,1.16,0,0,0-.65.16,1,1,0,0,0-.39.46v3.52h-.87v-4.76Z"/><path d="M91.37,252.3a2.66,2.66,0,0,1-.49,1.66,1.64,1.64,0,0,1-1.36.63,1.86,1.86,0,0,1-.77-.15,1.42,1.42,0,0,1-.57-.44v2.33h-.86v-6.59H88l.14.62a1.45,1.45,0,0,1,.58-.52,1.71,1.71,0,0,1,.8-.18,1.59,1.59,0,0,1,1.38.7,3.19,3.19,0,0,1,.49,1.85Zm-.87-.09a2.45,2.45,0,0,0-.32-1.33,1,1,0,0,0-.93-.52,1.17,1.17,0,0,0-.64.17,1.27,1.27,0,0,0-.43.46v2.3a1.19,1.19,0,0,0,.43.46,1.17,1.17,0,0,0,.64.17,1.08,1.08,0,0,0,.94-.46,2,2,0,0,0,.31-1.16Z"/><path d="M93.37,254.5H92.5v-6.86h.87Z"/><path d="M94.5,252.08a2.62,2.62,0,0,1,.57-1.74,2.12,2.12,0,0,1,3.11,0,2.6,2.6,0,0,1,.57,1.74v.1a2.59,2.59,0,0,1-.57,1.74,2.13,2.13,0,0,1-3.11,0,2.6,2.6,0,0,1-.57-1.73Zm.86.1a2.26,2.26,0,0,0,.32,1.24,1.14,1.14,0,0,0,1.89,0,2.26,2.26,0,0,0,.32-1.24v-.1a2.32,2.32,0,0,0-.32-1.25,1.06,1.06,0,0,0-.95-.49,1,1,0,0,0-.94.49,2.32,2.32,0,0,0-.32,1.25Z"/><path d="M101.2,252.74l.16.6h0l1.17-3.6h1l-2,5.49a2.27,2.27,0,0,1-.51.83,1.2,1.2,0,0,1-.91.36l-.27,0-.25,0,.09-.68h.39a.53.53,0,0,0,.45-.25,2,2,0,0,0,.29-.54l.21-.5-1.76-4.66h1Z"/><path d="M105.05,249.74l.06.63a1.58,1.58,0,0,1,.59-.53,1.84,1.84,0,0,1,.83-.18,1.46,1.46,0,0,1,.82.22,1.24,1.24,0,0,1,.51.66,1.71,1.71,0,0,1,.6-.65,1.52,1.52,0,0,1,.86-.23,1.39,1.39,0,0,1,1.14.5,2.22,2.22,0,0,1,.43,1.5v2.84H110v-2.85a1.61,1.61,0,0,0-.24-1,1,1,0,0,0-1.44,0,1.39,1.39,0,0,0-.33.77v3.06h-.86v-2.85a1.6,1.6,0,0,0-.25-1,.87.87,0,0,0-.72-.31,1.18,1.18,0,0,0-.65.16,1,1,0,0,0-.39.46v3.52h-.86v-4.76Z"/><path d="M114.11,254.59a2.05,2.05,0,0,1-1.6-.65,2.54,2.54,0,0,1-.57-1.73V252a2.47,2.47,0,0,1,.59-1.69,1.84,1.84,0,0,1,1.44-.67,1.73,1.73,0,0,1,1.44.59,2.5,2.5,0,0,1,.47,1.58v.45h-3v0a2,2,0,0,0,.31,1.16,1.11,1.11,0,0,0,1,.45,2.26,2.26,0,0,0,.77-.13,1.65,1.65,0,0,0,.57-.35l.34.57a2.07,2.07,0,0,1-.67.41A2.57,2.57,0,0,1,114.11,254.59Zm-.14-4.25a.9.9,0,0,0-.74.35,1.68,1.68,0,0,0-.37.89v0H115v-.07a1.36,1.36,0,0,0-.25-.85A.91.91,0,0,0,114,250.34Z"/><path d="M117.63,249.74l.06.71a1.56,1.56,0,0,1,.59-.58,1.59,1.59,0,0,1,.82-.21,1.55,1.55,0,0,1,1.19.45,2,2,0,0,1,.42,1.39v3h-.87v-3a1.33,1.33,0,0,0-.24-.89,1,1,0,0,0-.76-.26,1.32,1.32,0,0,0-.68.16,1.19,1.19,0,0,0-.44.45v3.53h-.87v-4.76Z"/><path d="M123.17,248.6v1.14h.9v.65h-.9v2.88a.64.64,0,0,0,.14.47.5.5,0,0,0,.37.14l.16,0,.16,0,.12.59a.79.79,0,0,1-.29.13,1.64,1.64,0,0,1-.37.05,1.1,1.1,0,0,1-.84-.32,1.36,1.36,0,0,1-.31-1v-2.88h-.76v-.65h.76V248.6Z"/><path class="cls-4" d="M148.36,257.41l1.13-1.13h0l4.33-4.33-4.33-4.33h0l-1.13-1.13L142.9,252Zm-4-6.21.75.75-.75.75-.76-.75Zm8,1.5-.75-.75.75-.75.76.75Zm-3.22,3.23h0l-.78.78-1.76-1.77,1.41-1.42-1.46-1.45-1.06,1.06.73.73.35-.36-.37-.37.35-.36.76.75-1.07,1.07-1.53-1.53,1.11-1.11-1.11-1.11,1.53-1.53,1.07,1.06-.76.76-.35-.36.37-.37-.35-.36-.73.73,1.06,1.06,1.46-1.46L146.6,249l1-1h0l.78-.78.78.78h0l1,1-1.42,1.41,1.46,1.46,1.06-1.06-.73-.73-.35.36.37.37-.35.36-.75-.76,1.06-1.06,1.53,1.53-1.1,1.11,1.1,1.11-1.53,1.53-1.06-1.07.75-.75.35.36-.37.37.35.36.73-.73-1.06-1.06-1.46,1.45,1.42,1.42Z"/><rect class="cls-4" x="147.5" y="254.06" width="1.72" height="1.72" transform="translate(433.52 330.27) rotate(135)"/><rect class="cls-4" x="147.5" y="248.08" width="1.72" height="1.72" transform="translate(429.3 320.06) rotate(135)"/><path d="M165.18,254.5h-.87v-2.83h-3.1v2.83h-.87v-6.4h.87V251h3.1V248.1h.87Z"/><path d="M167.49,248.53h-.87v-.89h.87Zm0,6h-.87v-4.76h.87Z"/><path d="M168.62,252.21a3.21,3.21,0,0,1,.49-1.85,1.59,1.59,0,0,1,1.38-.7,1.78,1.78,0,0,1,.74.15,1.48,1.48,0,0,1,.55.45v-2.62h.86v6.86H172l-.13-.6a1.6,1.6,0,0,1-.58.52,1.8,1.8,0,0,1-.79.17,1.65,1.65,0,0,1-1.37-.63,2.66,2.66,0,0,1-.49-1.66Zm.87.09a2.1,2.1,0,0,0,.29,1.16,1.05,1.05,0,0,0,.92.43,1.15,1.15,0,0,0,.65-.18,1.29,1.29,0,0,0,.43-.49V251a1.33,1.33,0,0,0-.44-.47,1.16,1.16,0,0,0-.63-.17,1,1,0,0,0-.93.51,2.77,2.77,0,0,0-.29,1.34Z"/><path d="M173.74,252.21a3.14,3.14,0,0,1,.49-1.85,1.56,1.56,0,0,1,1.37-.7,1.72,1.72,0,0,1,.74.15,1.41,1.41,0,0,1,.55.45v-2.62h.87v6.86h-.67l-.13-.6a1.49,1.49,0,0,1-.57.52,1.85,1.85,0,0,1-.8.17,1.63,1.63,0,0,1-1.36-.63,2.6,2.6,0,0,1-.49-1.66Zm.86.09a2,2,0,0,0,.3,1.16,1,1,0,0,0,.91.43,1.11,1.11,0,0,0,.65-.18,1.22,1.22,0,0,0,.43-.49V251a1.3,1.3,0,0,0-.43-.47,1.2,1.2,0,0,0-.64-.17,1,1,0,0,0-.92.51,2.66,2.66,0,0,0-.3,1.34Z"/><path d="M181,254.59a2,2,0,0,1-1.6-.65,2.54,2.54,0,0,1-.57-1.73V252a2.47,2.47,0,0,1,.59-1.69,1.84,1.84,0,0,1,1.44-.67,1.69,1.69,0,0,1,1.43.59,2.44,2.44,0,0,1,.48,1.58v.45h-3v0a2,2,0,0,0,.31,1.16,1.1,1.1,0,0,0,1,.45,2.26,2.26,0,0,0,.77-.13,1.65,1.65,0,0,0,.57-.35l.34.57a2.18,2.18,0,0,1-.67.41A2.57,2.57,0,0,1,181,254.59Zm-.14-4.25a.93.93,0,0,0-.75.35,1.75,1.75,0,0,0-.36.89v0h2.14v-.07a1.36,1.36,0,0,0-.25-.85A.91.91,0,0,0,180.88,250.34Z"/><path d="M184.54,249.74l.06.71a1.56,1.56,0,0,1,.59-.58,1.59,1.59,0,0,1,.82-.21,1.55,1.55,0,0,1,1.19.45,2,2,0,0,1,.42,1.39v3h-.87v-3a1.33,1.33,0,0,0-.24-.89,1,1,0,0,0-.76-.26,1.29,1.29,0,0,0-.68.16,1.19,1.19,0,0,0-.44.45v3.53h-.87v-4.76Z"/><path d="M196,248.1v4.25a2.1,2.1,0,0,1-.68,1.65,2.64,2.64,0,0,1-1.77.59,2.48,2.48,0,0,1-1.7-.59,2.09,2.09,0,0,1-.67-1.65V248.1H192v4.25a1.55,1.55,0,0,0,.42,1.15,1.46,1.46,0,0,0,1.08.42,1.61,1.61,0,0,0,1.15-.42,1.52,1.52,0,0,0,.44-1.15V248.1Z"/><path d="M198,249.74l.06.71a1.66,1.66,0,0,1,.6-.58,1.75,1.75,0,0,1,2,.24,2,2,0,0,1,.42,1.39v3h-.86v-3a1.33,1.33,0,0,0-.25-.89,1,1,0,0,0-.76-.26,1.32,1.32,0,0,0-.68.16,1.27,1.27,0,0,0-.44.45v3.53h-.86v-4.76Z"/><path d="M204.29,254.59a2,2,0,0,1-1.6-.65,2.54,2.54,0,0,1-.57-1.73V252a2.47,2.47,0,0,1,.59-1.69,1.83,1.83,0,0,1,1.44-.67,1.71,1.71,0,0,1,1.43.59,2.44,2.44,0,0,1,.48,1.58v.45h-3v0a2,2,0,0,0,.31,1.16,1.1,1.1,0,0,0,1,.45,2.26,2.26,0,0,0,.77-.13,1.65,1.65,0,0,0,.57-.35l.34.57a2.18,2.18,0,0,1-.67.41A2.57,2.57,0,0,1,204.29,254.59Zm-.14-4.25a.93.93,0,0,0-.75.35,1.67,1.67,0,0,0-.36.89v0h2.14v-.07a1.36,1.36,0,0,0-.25-.85A.91.91,0,0,0,204.15,250.34Z"/><path d="M207.81,249.74l.06.63a1.58,1.58,0,0,1,.59-.53,1.81,1.81,0,0,1,.83-.18,1.4,1.4,0,0,1,.81.22,1.3,1.3,0,0,1,.52.66,1.77,1.77,0,0,1,.59-.65,1.54,1.54,0,0,1,.86-.23,1.4,1.4,0,0,1,1.15.5,2.28,2.28,0,0,1,.42,1.5v2.84h-.87v-2.85a1.61,1.61,0,0,0-.24-1,.89.89,0,0,0-.72-.29.92.92,0,0,0-.72.31,1.31,1.31,0,0,0-.32.77v3.06h-.87v-2.85a1.54,1.54,0,0,0-.25-1,.84.84,0,0,0-.71-.31,1.16,1.16,0,0,0-.65.16,1,1,0,0,0-.39.46v3.52H207v-4.76Z"/><path d="M219,252.3a2.66,2.66,0,0,1-.49,1.66,1.63,1.63,0,0,1-1.36.63,1.86,1.86,0,0,1-.77-.15,1.42,1.42,0,0,1-.57-.44v2.33h-.86v-6.59h.66l.14.62a1.52,1.52,0,0,1,.58-.52,1.71,1.71,0,0,1,.8-.18,1.59,1.59,0,0,1,1.38.7,3.12,3.12,0,0,1,.49,1.85Zm-.87-.09a2.45,2.45,0,0,0-.32-1.33,1,1,0,0,0-.93-.52,1.17,1.17,0,0,0-.64.17,1.27,1.27,0,0,0-.43.46v2.3a1.19,1.19,0,0,0,.43.46,1.17,1.17,0,0,0,.64.17,1.08,1.08,0,0,0,.94-.46,2,2,0,0,0,.31-1.16Z"/><path d="M221,254.5h-.87v-6.86H221Z"/><path d="M222.08,252.08a2.62,2.62,0,0,1,.57-1.74,2.12,2.12,0,0,1,3.11,0,2.56,2.56,0,0,1,.58,1.74v.1a2.59,2.59,0,0,1-.58,1.74,2.13,2.13,0,0,1-3.11,0,2.6,2.6,0,0,1-.57-1.73Zm.86.1a2.26,2.26,0,0,0,.32,1.24,1.07,1.07,0,0,0,1,.5,1.05,1.05,0,0,0,.94-.5,2.26,2.26,0,0,0,.32-1.24v-.1a2.32,2.32,0,0,0-.32-1.25,1.16,1.16,0,0,0-1.89,0,2.32,2.32,0,0,0-.32,1.25Z"/><path d="M228.78,252.74l.16.6h0l1.16-3.6h1l-2,5.49a2.44,2.44,0,0,1-.52.83,1.18,1.18,0,0,1-.91.36l-.26,0-.25,0,.08-.68h.39a.53.53,0,0,0,.45-.25,2.35,2.35,0,0,0,.3-.54l.2-.5-1.76-4.66h1Z"/><path d="M232.63,249.74l.06.63a1.58,1.58,0,0,1,.59-.53,1.84,1.84,0,0,1,.83-.18,1.46,1.46,0,0,1,.82.22,1.24,1.24,0,0,1,.51.66,1.71,1.71,0,0,1,.6-.65,1.52,1.52,0,0,1,.86-.23,1.39,1.39,0,0,1,1.14.5,2.22,2.22,0,0,1,.43,1.5v2.84h-.87v-2.85a1.61,1.61,0,0,0-.24-1,1,1,0,0,0-1.44,0,1.39,1.39,0,0,0-.33.77v3.06h-.86v-2.85a1.6,1.6,0,0,0-.25-1,.87.87,0,0,0-.72-.31,1.18,1.18,0,0,0-.65.16,1,1,0,0,0-.39.46v3.52h-.86v-4.76Z"/><path d="M241.69,254.59a2.05,2.05,0,0,1-1.6-.65,2.54,2.54,0,0,1-.57-1.73V252a2.47,2.47,0,0,1,.59-1.69,1.85,1.85,0,0,1,1.45-.67,1.72,1.72,0,0,1,1.43.59,2.5,2.5,0,0,1,.47,1.58v.45h-3v0a1.92,1.92,0,0,0,.32,1.16,1.09,1.09,0,0,0,1,.45,2.26,2.26,0,0,0,.77-.13,1.65,1.65,0,0,0,.57-.35l.34.57a2.07,2.07,0,0,1-.67.41A2.57,2.57,0,0,1,241.69,254.59Zm-.13-4.25a.9.9,0,0,0-.75.35,1.68,1.68,0,0,0-.37.89v0h2.15v-.07a1.37,1.37,0,0,0-.26-.85A.9.9,0,0,0,241.56,250.34Z"/><path d="M245.21,249.74l.06.71a1.72,1.72,0,0,1,.59-.58,1.59,1.59,0,0,1,.82-.21,1.55,1.55,0,0,1,1.19.45,2,2,0,0,1,.42,1.39v3h-.86v-3a1.33,1.33,0,0,0-.25-.89,1,1,0,0,0-.76-.26,1.32,1.32,0,0,0-.68.16,1.27,1.27,0,0,0-.44.45v3.53h-.87v-4.76Z"/><path d="M250.75,248.6v1.14h.9v.65h-.9v2.88a.64.64,0,0,0,.14.47.51.51,0,0,0,.37.14l.16,0,.16,0,.12.59a.79.79,0,0,1-.29.13,1.57,1.57,0,0,1-.37.05,1.1,1.1,0,0,1-.84-.32,1.36,1.36,0,0,1-.31-1v-2.88h-.76v-.65h.76V248.6Z"/><path d="M301.21,251.73v2.77h-.87v-6.4h2.19a2.42,2.42,0,0,1,1.6.47,1.67,1.67,0,0,1,.56,1.36,1.45,1.45,0,0,1-.26.85,1.72,1.72,0,0,1-.75.58,1.36,1.36,0,0,1,.76.56,1.83,1.83,0,0,1,.23,1v.6a2.23,2.23,0,0,0,.06.54.81.81,0,0,0,.23.38v.11h-.89a.74.74,0,0,1-.22-.44,3.83,3.83,0,0,1-.05-.6v-.58a1.17,1.17,0,0,0-.3-.84,1.06,1.06,0,0,0-.81-.31Zm0-.68h1.23a1.66,1.66,0,0,0,1.06-.28,1.09,1.09,0,0,0,.32-.85,1.07,1.07,0,0,0-.32-.84,1.34,1.34,0,0,0-1-.3h-1.32Z"/><path d="M306.93,251.93v2.57h-.86v-6.4h2.44a2.27,2.27,0,0,1,1.6.53,2,2,0,0,1,0,2.78,2.27,2.27,0,0,1-1.6.52Zm0-.67h1.58a1.16,1.16,0,0,0,1.3-1.23,1.26,1.26,0,0,0-.33-.89,1.23,1.23,0,0,0-1-.36h-1.58Z"/><path d="M314.38,248.1h.86v4.54a1.84,1.84,0,0,1-1.95,2,2,2,0,0,1-1.4-.47,1.64,1.64,0,0,1-.5-1.36v0h.83a1.24,1.24,0,0,0,.27.88,1,1,0,0,0,.79.3,1,1,0,0,0,.78-.35,1.37,1.37,0,0,0,.31-.93Z"/><path d="M319.9,253.3h0l2.05-5.2H323v6.4h-.86v-4.8h0l-1.94,4.8h-.6l-2-5h0v4.95h-.87v-6.4h1.14Z"/><path d="M329.38,254.5h-.87l-3.08-4.89h0v4.88h-.87v-6.4h.87l3.08,4.88h0V248.1h.87Z"/><path d="M337,254.5h-4v-.59l2-2.4a6.2,6.2,0,0,0,.73-1,1.72,1.72,0,0,0,.19-.78,1,1,0,0,0-.26-.73.91.91,0,0,0-.71-.28,1.09,1.09,0,0,0-.87.35,1.31,1.31,0,0,0-.29.86H333v0a1.72,1.72,0,0,1,.53-1.33A2,2,0,0,1,335,248a1.9,1.9,0,0,1,1.35.47,1.67,1.67,0,0,1,.49,1.23,1.91,1.91,0,0,1-.28,1,11.32,11.32,0,0,1-.85,1.21l-1.61,1.89v0H337Z"/><path d="M342,252.24a2.52,2.52,0,0,1-.55,1.72,2.05,2.05,0,0,1-3,0,2.52,2.52,0,0,1-.56-1.72v-1.88a2.49,2.49,0,0,1,.55-1.71A1.85,1.85,0,0,1,340,248a1.87,1.87,0,0,1,1.49.64,2.49,2.49,0,0,1,.55,1.71Zm-.86-2.06a1.72,1.72,0,0,0-.31-1.09,1,1,0,0,0-.87-.4,1,1,0,0,0-.86.4,1.78,1.78,0,0,0-.3,1.09v2.24a1.72,1.72,0,0,0,.31,1.09,1.11,1.11,0,0,0,1.72,0,1.72,1.72,0,0,0,.31-1.09Z"/><path d="M347.13,254.5h-4v-.59l2-2.4a6.87,6.87,0,0,0,.73-1,1.86,1.86,0,0,0,.19-.78,1.05,1.05,0,0,0-.26-.73.93.93,0,0,0-.72-.28,1.06,1.06,0,0,0-.86.35,1.27,1.27,0,0,0-.3.86h-.83v0a1.71,1.71,0,0,1,.52-1.33,2,2,0,0,1,1.48-.54,1.9,1.9,0,0,1,1.35.47,1.63,1.63,0,0,1,.49,1.23,1.91,1.91,0,0,1-.28,1,10,10,0,0,1-.85,1.21l-1.61,1.89v0h2.91Z"/><path d="M351.49,252.35h.88V253h-.88v1.48h-.86V253h-2.75v-.49l2.7-4.43h.91Zm-2.68,0h1.82v-3h0l-.08.22Z"/><path d="M360.09,248.78H358v5.72h-.86v-5.72H355v-.68h5.06Z"/><path d="M363.31,254.5c0-.14-.05-.27-.07-.38l0-.33a1.93,1.93,0,0,1-.63.57,1.65,1.65,0,0,1-.83.23,1.54,1.54,0,0,1-1.14-.38,1.39,1.39,0,0,1-.39-1.05,1.22,1.22,0,0,1,.56-1.06,2.51,2.51,0,0,1,1.49-.39h.94v-.47a.87.87,0,0,0-.25-.66,1,1,0,0,0-.72-.24,1,1,0,0,0-.68.21.61.61,0,0,0-.26.5h-.82v0a1.11,1.11,0,0,1,.48-.95,2,2,0,0,1,1.34-.43,2,2,0,0,1,1.3.41,1.47,1.47,0,0,1,.49,1.18v2.29c0,.17,0,.34,0,.49a2.46,2.46,0,0,0,.1.47Zm-1.44-.63a1.49,1.49,0,0,0,.85-.25,1.1,1.1,0,0,0,.49-.55v-.77h-1a1.3,1.3,0,0,0-.84.26.79.79,0,0,0-.31.62.65.65,0,0,0,.2.5A.82.82,0,0,0,361.87,253.87Z"/><path d="M367.58,250.51l-.44,0a1,1,0,0,0-.58.17,1,1,0,0,0-.36.45v3.4h-.87v-4.76h.78l.08.7a1.69,1.69,0,0,1,.5-.58,1.21,1.21,0,0,1,.68-.2h.19l.14,0Z"/><path d="M368.25,252.21a3.14,3.14,0,0,1,.49-1.85,1.57,1.57,0,0,1,1.37-.7,1.67,1.67,0,0,1,.79.18,1.69,1.69,0,0,1,.58.52l.1-.62h.69v4.79a1.79,1.79,0,0,1-.53,1.4,2.15,2.15,0,0,1-1.53.49,3.32,3.32,0,0,1-.74-.09,3,3,0,0,1-.7-.26l.13-.67a3.48,3.48,0,0,0,.6.21,3.42,3.42,0,0,0,.7.08,1.27,1.27,0,0,0,.92-.29,1.18,1.18,0,0,0,.29-.87V254a1.62,1.62,0,0,1-.56.45,1.79,1.79,0,0,1-.75.15,1.63,1.63,0,0,1-1.36-.63,2.6,2.6,0,0,1-.49-1.66Zm.86.09a2,2,0,0,0,.3,1.15,1,1,0,0,0,.91.44,1.11,1.11,0,0,0,.65-.18,1.43,1.43,0,0,0,.44-.5V251a1.36,1.36,0,0,0-.44-.48,1.12,1.12,0,0,0-.64-.18,1,1,0,0,0-.92.51,2.66,2.66,0,0,0-.3,1.34Z"/><path d="M375.49,254.59a2,2,0,0,1-1.6-.65,2.54,2.54,0,0,1-.57-1.73V252a2.42,2.42,0,0,1,.59-1.69,1.83,1.83,0,0,1,1.44-.67,1.71,1.71,0,0,1,1.43.59,2.44,2.44,0,0,1,.48,1.58v.45h-3l0,0a2,2,0,0,0,.32,1.16,1.1,1.1,0,0,0,1,.45,2.26,2.26,0,0,0,.77-.13,1.65,1.65,0,0,0,.57-.35l.34.57a2.12,2.12,0,0,1-.68.41A2.52,2.52,0,0,1,375.49,254.59Zm-.14-4.25a.93.93,0,0,0-.75.35,1.59,1.59,0,0,0-.36.89v0h2.14v-.07a1.36,1.36,0,0,0-.25-.85A.92.92,0,0,0,375.35,250.34Z"/><path d="M379.43,248.6v1.14h.9v.65h-.9v2.88a.64.64,0,0,0,.14.47.51.51,0,0,0,.37.14l.16,0,.16,0,.12.59a.79.79,0,0,1-.29.13,1.57,1.57,0,0,1-.37.05,1.1,1.1,0,0,1-.84-.32,1.36,1.36,0,0,1-.31-1v-2.88h-.76v-.65h.76V248.6Z"/><path d="M383.86,254.5v-4.11h-.75v-.65h.75v-.6a1.64,1.64,0,0,1,.39-1.17,1.47,1.47,0,0,1,1.11-.42,1.63,1.63,0,0,1,.31,0l.33.06-.1.66-.19,0h-.24a.65.65,0,0,0-.56.23,1,1,0,0,0-.19.65v.6h.86v.65h-.86v4.11Z"/><path d="M386.26,252.08a2.62,2.62,0,0,1,.57-1.74,2.12,2.12,0,0,1,3.11,0,2.6,2.6,0,0,1,.57,1.74v.1a2.59,2.59,0,0,1-.57,1.74,2.13,2.13,0,0,1-3.11,0,2.6,2.6,0,0,1-.57-1.73Zm.86.1a2.26,2.26,0,0,0,.32,1.24,1.14,1.14,0,0,0,1.89,0,2.26,2.26,0,0,0,.32-1.24v-.1a2.32,2.32,0,0,0-.32-1.25,1.06,1.06,0,0,0-.95-.49,1,1,0,0,0-.94.49,2.32,2.32,0,0,0-.32,1.25Z"/><path d="M393.83,250.51l-.45,0a1,1,0,0,0-.58.17,1,1,0,0,0-.36.45v3.4h-.86v-4.76h.77l.08.7a1.69,1.69,0,0,1,.5-.58,1.21,1.21,0,0,1,.68-.2h.19l.14,0Z"/><path d="M402,251.87a2.73,2.73,0,0,1-.73,1.95,2.49,2.49,0,0,1-1.89.77,2.36,2.36,0,0,1-1.82-.77,2.8,2.8,0,0,1-.7-1.95v-1.14a2.75,2.75,0,0,1,.7-1.94,2.33,2.33,0,0,1,1.82-.78,2.49,2.49,0,0,1,1.89.77,2.73,2.73,0,0,1,.73,1.95Zm-.87-1.15a2.21,2.21,0,0,0-.47-1.44,1.6,1.6,0,0,0-1.28-.56,1.47,1.47,0,0,0-1.2.56,2.25,2.25,0,0,0-.45,1.44v1.15a2.24,2.24,0,0,0,.45,1.45,1.44,1.44,0,0,0,1.2.56,1.57,1.57,0,0,0,1.28-.56,2.18,2.18,0,0,0,.47-1.45Z"/><path d="M407.15,252.3a2.66,2.66,0,0,1-.49,1.66,1.63,1.63,0,0,1-1.36.63,1.82,1.82,0,0,1-.77-.15A1.42,1.42,0,0,1,404,254v2.33h-.86v-6.59h.66l.14.62a1.52,1.52,0,0,1,.58-.52,1.71,1.71,0,0,1,.8-.18,1.59,1.59,0,0,1,1.38.7,3.12,3.12,0,0,1,.49,1.85Zm-.87-.09a2.45,2.45,0,0,0-.32-1.33,1,1,0,0,0-.93-.52,1.17,1.17,0,0,0-.64.17,1.27,1.27,0,0,0-.43.46v2.3a1.19,1.19,0,0,0,.43.46,1.17,1.17,0,0,0,.64.17,1.1,1.1,0,0,0,.94-.46,2,2,0,0,0,.31-1.16Z"/><path d="M410.18,254.59a2.05,2.05,0,0,1-1.6-.65,2.54,2.54,0,0,1-.57-1.73V252a2.47,2.47,0,0,1,.59-1.69,1.86,1.86,0,0,1,1.44-.67,1.73,1.73,0,0,1,1.44.59,2.5,2.5,0,0,1,.47,1.58v.45h-3v0a2,2,0,0,0,.31,1.16,1.11,1.11,0,0,0,1,.45,2.26,2.26,0,0,0,.77-.13,1.65,1.65,0,0,0,.57-.35l.34.57a2.07,2.07,0,0,1-.67.41A2.57,2.57,0,0,1,410.18,254.59Zm-.14-4.25a.9.9,0,0,0-.74.35,1.68,1.68,0,0,0-.37.89v0h2.14v-.07a1.36,1.36,0,0,0-.25-.85A.91.91,0,0,0,410,250.34Z"/><path d="M413.7,249.74l.06.71a1.64,1.64,0,0,1,.59-.58,1.59,1.59,0,0,1,.82-.21,1.55,1.55,0,0,1,1.19.45,2,2,0,0,1,.42,1.39v3h-.86v-3a1.33,1.33,0,0,0-.25-.89,1,1,0,0,0-.76-.26,1.32,1.32,0,0,0-.68.16,1.19,1.19,0,0,0-.44.45v3.53h-.87v-4.76Z"/><path d="M425.11,248.1v4.25a2.07,2.07,0,0,1-.68,1.65,2.64,2.64,0,0,1-1.77.59A2.48,2.48,0,0,1,421,254a2.09,2.09,0,0,1-.67-1.65V248.1h.87v4.25a1.55,1.55,0,0,0,.42,1.15,1.46,1.46,0,0,0,1.08.42,1.61,1.61,0,0,0,1.15-.42,1.52,1.52,0,0,0,.44-1.15V248.1Z"/><path d="M427.14,249.74l.06.71a1.66,1.66,0,0,1,.6-.58,1.75,1.75,0,0,1,2,.24,2,2,0,0,1,.42,1.39v3h-.86v-3a1.33,1.33,0,0,0-.25-.89,1,1,0,0,0-.76-.26,1.32,1.32,0,0,0-.68.16,1.27,1.27,0,0,0-.44.45v3.53h-.86v-4.76Z"/><path d="M433.45,254.59a2,2,0,0,1-1.6-.65,2.54,2.54,0,0,1-.57-1.73V252a2.47,2.47,0,0,1,.59-1.69,1.84,1.84,0,0,1,1.44-.67,1.71,1.71,0,0,1,1.43.59,2.44,2.44,0,0,1,.48,1.58v.45h-3v0a2,2,0,0,0,.31,1.16,1.1,1.1,0,0,0,1,.45,2.26,2.26,0,0,0,.77-.13,1.65,1.65,0,0,0,.57-.35l.34.57a2.18,2.18,0,0,1-.67.41A2.57,2.57,0,0,1,433.45,254.59Zm-.14-4.25a.93.93,0,0,0-.75.35,1.75,1.75,0,0,0-.36.89v0h2.14v-.07a1.36,1.36,0,0,0-.25-.85A.91.91,0,0,0,433.31,250.34Z"/><path d="M437,249.74l.06.63a1.58,1.58,0,0,1,.59-.53,1.81,1.81,0,0,1,.83-.18,1.4,1.4,0,0,1,.81.22,1.3,1.3,0,0,1,.52.66,1.77,1.77,0,0,1,.59-.65,1.54,1.54,0,0,1,.86-.23,1.4,1.4,0,0,1,1.15.5,2.28,2.28,0,0,1,.42,1.5v2.84h-.87v-2.85a1.61,1.61,0,0,0-.24-1,.89.89,0,0,0-.72-.29.92.92,0,0,0-.72.31,1.31,1.31,0,0,0-.32.77v3.06h-.87v-2.85a1.54,1.54,0,0,0-.25-1,.84.84,0,0,0-.71-.31,1.16,1.16,0,0,0-.65.16,1,1,0,0,0-.39.46v3.52h-.87v-4.76Z"/><path d="M448.11,252.3a2.6,2.6,0,0,1-.49,1.66,1.63,1.63,0,0,1-1.36.63,1.86,1.86,0,0,1-.77-.15,1.42,1.42,0,0,1-.57-.44v2.33h-.86v-6.59h.66l.14.62a1.52,1.52,0,0,1,.58-.52,1.73,1.73,0,0,1,.81-.18,1.57,1.57,0,0,1,1.37.7,3.12,3.12,0,0,1,.49,1.85Zm-.86-.09a2.54,2.54,0,0,0-.32-1.33,1,1,0,0,0-.94-.52,1.2,1.2,0,0,0-.64.17,1.27,1.27,0,0,0-.43.46v2.3a1.19,1.19,0,0,0,.43.46,1.21,1.21,0,0,0,.65.17,1.07,1.07,0,0,0,.93-.46,2,2,0,0,0,.32-1.16Z"/><path d="M450.11,254.5h-.86v-6.86h.86Z"/><path d="M451.24,252.08a2.62,2.62,0,0,1,.57-1.74,2.12,2.12,0,0,1,3.11,0,2.56,2.56,0,0,1,.58,1.74v.1a2.64,2.64,0,0,1-.57,1.74,1.93,1.93,0,0,1-1.56.67,1.91,1.91,0,0,1-1.56-.68,2.6,2.6,0,0,1-.57-1.73Zm.86.1a2.26,2.26,0,0,0,.32,1.24,1.07,1.07,0,0,0,.95.5,1.05,1.05,0,0,0,.94-.5,2.26,2.26,0,0,0,.32-1.24v-.1a2.32,2.32,0,0,0-.32-1.25,1.16,1.16,0,0,0-1.89,0,2.32,2.32,0,0,0-.32,1.25Z"/><path d="M457.94,252.74l.16.6h0l1.16-3.6h1l-2,5.49a2.44,2.44,0,0,1-.52.83,1.18,1.18,0,0,1-.91.36l-.26,0-.25,0,.08-.68h.39a.53.53,0,0,0,.45-.25,2.35,2.35,0,0,0,.3-.54l.2-.5L456,249.74h1Z"/><path d="M461.79,249.74l.06.63a1.66,1.66,0,0,1,.59-.53,1.84,1.84,0,0,1,.83-.18,1.46,1.46,0,0,1,.82.22,1.24,1.24,0,0,1,.51.66,1.71,1.71,0,0,1,.6-.65,1.52,1.52,0,0,1,.86-.23,1.39,1.39,0,0,1,1.14.5,2.22,2.22,0,0,1,.43,1.5v2.84h-.87v-2.85a1.61,1.61,0,0,0-.24-1,1,1,0,0,0-1.44,0,1.31,1.31,0,0,0-.32.77v3.06h-.87v-2.85a1.6,1.6,0,0,0-.25-1,.87.87,0,0,0-.72-.31,1.18,1.18,0,0,0-.65.16,1,1,0,0,0-.39.46v3.52H461v-4.76Z"/><path d="M470.85,254.59a2.05,2.05,0,0,1-1.6-.65,2.54,2.54,0,0,1-.57-1.73V252a2.47,2.47,0,0,1,.59-1.69,1.86,1.86,0,0,1,1.45-.67,1.72,1.72,0,0,1,1.43.59,2.5,2.5,0,0,1,.47,1.58v.45h-3v0a1.92,1.92,0,0,0,.32,1.16,1.09,1.09,0,0,0,1,.45,2.26,2.26,0,0,0,.77-.13,1.65,1.65,0,0,0,.57-.35l.34.57a2.07,2.07,0,0,1-.67.41A2.57,2.57,0,0,1,470.85,254.59Zm-.13-4.25a.9.9,0,0,0-.75.35,1.68,1.68,0,0,0-.37.89v0h2.15v-.07a1.37,1.37,0,0,0-.26-.85A.9.9,0,0,0,470.72,250.34Z"/><path d="M474.37,249.74l.06.71a1.72,1.72,0,0,1,.59-.58,1.59,1.59,0,0,1,.82-.21,1.55,1.55,0,0,1,1.19.45,2,2,0,0,1,.42,1.39v3h-.86v-3a1.33,1.33,0,0,0-.25-.89,1,1,0,0,0-.76-.26,1.32,1.32,0,0,0-.68.16,1.27,1.27,0,0,0-.44.45v3.53h-.87v-4.76Z"/><path d="M479.91,248.6v1.14h.9v.65h-.9v2.88a.64.64,0,0,0,.14.47.51.51,0,0,0,.37.14l.16,0,.16,0,.12.59a.79.79,0,0,1-.29.13,1.57,1.57,0,0,1-.37.05,1.1,1.1,0,0,1-.84-.32,1.36,1.36,0,0,1-.31-1v-2.88h-.76v-.65h.76V248.6Z"/><line class="cls-6" x1="271.13" y1="251.95" x2="293.93" y2="251.95"/></svg>