<svg id="Layer_1" data-name="Layer 1" xmlns="http://www.w3.org/2000/svg" viewBox="0 0 504.01 277.74"><defs><style>.cls-1{fill:#fff;}.cls-2{opacity:0.2;}.cls-3{fill:#017db9;}.cls-4{fill:#ed4328;}.cls-5{fill:none;stroke:#ed4328;stroke-miterlimit:10;stroke-width:1.9px;}</style></defs><rect class="cls-1" width="504.01" height="277.74"/><path d="M53.09,37.13a4.86,4.86,0,0,1-1.81-6.68,4.59,4.59,0,0,1,1.81-1.71,5.3,5.3,0,0,1,2.59-.62,5.47,5.47,0,0,1,2.18.42,4.47,4.47,0,0,1,1.65,1.23L58.12,31A3,3,0,0,0,55.78,30a3.14,3.14,0,0,0-1.54.38,2.7,2.7,0,0,0-1.06,1.06,3.31,3.31,0,0,0,0,3.08,2.7,2.7,0,0,0,1.06,1.06,3.14,3.14,0,0,0,1.54.38,3,3,0,0,0,2.34-1.11l1.39,1.28a4.5,4.5,0,0,1-1.65,1.24,5.57,5.57,0,0,1-2.2.42A5.36,5.36,0,0,1,53.09,37.13Z"/><path d="M61.93,37.22a3.54,3.54,0,0,1-1.4-1.31,3.79,3.79,0,0,1,0-3.8,3.47,3.47,0,0,1,1.4-1.31,4.25,4.25,0,0,1,2-.48,4.19,4.19,0,0,1,2,.48,3.53,3.53,0,0,1,1.4,1.31A3.63,3.63,0,0,1,66,37.22a4.3,4.3,0,0,1-2,.47A4.37,4.37,0,0,1,61.93,37.22Zm3.34-1.77a2.3,2.3,0,0,0,0-2.89A1.76,1.76,0,0,0,64,32a1.79,1.79,0,0,0-1.32.53,2.27,2.27,0,0,0,0,2.89A1.76,1.76,0,0,0,64,36,1.73,1.73,0,0,0,65.27,35.45Z"/><path d="M75.76,31.12a3.14,3.14,0,0,1,.82,2.37v4.09H74.5V33.81a1.85,1.85,0,0,0-.37-1.27,1.37,1.37,0,0,0-1.08-.42,1.68,1.68,0,0,0-1.25.48,2,2,0,0,0-.46,1.45v3.53H69.26V30.43h2v.84a2.66,2.66,0,0,1,1-.7,3.67,3.67,0,0,1,1.34-.25A3,3,0,0,1,75.76,31.12Z"/><path d="M83.07,37.24a2.35,2.35,0,0,1-.75.34,4.1,4.1,0,0,1-.94.11,2.83,2.83,0,0,1-2-.65,2.52,2.52,0,0,1-.69-1.92V32.19H77.6v-1.6h1.11V28.85h2.07v1.74h1.78v1.6H80.78V35.1a1,1,0,0,0,.23.7.89.89,0,0,0,.66.24,1.38,1.38,0,0,0,.84-.26Z"/><path d="M87.22,30.59a3.69,3.69,0,0,1,1.46-.27v1.92l-.47,0a1.89,1.89,0,0,0-1.39.5,2,2,0,0,0-.51,1.5v3.37H84.24V30.43h2v.94A2.37,2.37,0,0,1,87.22,30.59Z"/><path d="M90,29.1a1.13,1.13,0,0,1,0-1.65,1.32,1.32,0,0,1,.93-.33,1.36,1.36,0,0,1,.93.32,1,1,0,0,1,.36.8,1.11,1.11,0,0,1-.36.85,1.29,1.29,0,0,1-.93.34A1.32,1.32,0,0,1,90,29.1Zm-.1,1.33H92v7.15H89.92Z"/><path d="M100,30.78a3.31,3.31,0,0,1,1.28,1.29,4.22,4.22,0,0,1,0,3.87A3.18,3.18,0,0,1,100,37.23a3.58,3.58,0,0,1-1.81.46,2.74,2.74,0,0,1-2.25-.93v.82h-2V27.72H96v3.47a2.75,2.75,0,0,1,2.16-.87A3.69,3.69,0,0,1,100,30.78Zm-.86,4.67a2.3,2.3,0,0,0,0-2.89,1.88,1.88,0,0,0-2.62,0,2.3,2.3,0,0,0,0,2.89,1.86,1.86,0,0,0,2.62,0Z"/><path d="M110.3,30.43v7.15h-2v-.85a2.66,2.66,0,0,1-1,.71,3.38,3.38,0,0,1-3.47-.56,3.23,3.23,0,0,1-.83-2.41v-4h2.08v3.74c0,1.15.48,1.73,1.45,1.73a1.57,1.57,0,0,0,1.19-.49,2,2,0,0,0,.46-1.44V30.43Z"/><path d="M116.84,37.24a2.16,2.16,0,0,1-.75.34,4.1,4.1,0,0,1-.94.11,2.79,2.79,0,0,1-2-.65,2.49,2.49,0,0,1-.7-1.92V32.19h-1.1v-1.6h1.1V28.85h2.07v1.74h1.79v1.6h-1.79V35.1a1,1,0,0,0,.24.7.86.86,0,0,0,.66.24,1.37,1.37,0,0,0,.83-.26Z"/><path d="M118.12,29.1a1.13,1.13,0,0,1,0-1.65,1.32,1.32,0,0,1,.93-.33,1.36,1.36,0,0,1,.93.32,1,1,0,0,1,.36.8,1.11,1.11,0,0,1-.36.85,1.29,1.29,0,0,1-.93.34A1.32,1.32,0,0,1,118.12,29.1ZM118,30.43h2.08v7.15H118Z"/><path d="M123.39,37.22a3.54,3.54,0,0,1-1.4-1.31,3.79,3.79,0,0,1,0-3.8,3.47,3.47,0,0,1,1.4-1.31,4.25,4.25,0,0,1,2-.48,4.19,4.19,0,0,1,2,.48,3.53,3.53,0,0,1,1.4,1.31,3.63,3.63,0,0,1-1.4,5.11,4.3,4.3,0,0,1-2,.47A4.37,4.37,0,0,1,123.39,37.22Zm3.34-1.77a2.3,2.3,0,0,0,0-2.89,1.76,1.76,0,0,0-1.31-.53,1.79,1.79,0,0,0-1.32.53,2.27,2.27,0,0,0,0,2.89,1.76,1.76,0,0,0,1.32.54A1.73,1.73,0,0,0,126.73,35.45Z"/><path d="M137.22,31.12a3.18,3.18,0,0,1,.82,2.37v4.09H136V33.81a1.85,1.85,0,0,0-.37-1.27,1.37,1.37,0,0,0-1.08-.42,1.66,1.66,0,0,0-1.25.48,2,2,0,0,0-.46,1.45v3.53h-2.08V30.43h2v.84a2.66,2.66,0,0,1,1-.7,3.67,3.67,0,0,1,1.34-.25A3,3,0,0,1,137.22,31.12Z"/><path d="M145.05,37.22a3.54,3.54,0,0,1-1.4-1.31,3.79,3.79,0,0,1,0-3.8,3.47,3.47,0,0,1,1.4-1.31,4.25,4.25,0,0,1,2-.48,4.19,4.19,0,0,1,2,.48,3.47,3.47,0,0,1,1.4,1.31,3.86,3.86,0,0,1,0,3.8,3.54,3.54,0,0,1-1.4,1.31,4.3,4.3,0,0,1-2,.47A4.37,4.37,0,0,1,145.05,37.22Zm3.34-1.77a2.3,2.3,0,0,0,0-2.89,1.76,1.76,0,0,0-1.31-.53,1.79,1.79,0,0,0-1.32.53,2.3,2.3,0,0,0,0,2.89,1.76,1.76,0,0,0,1.32.54A1.73,1.73,0,0,0,148.39,35.45Z"/><path d="M154.66,30.59h1.83v1.6h-1.78v5.39h-2.07V32.19h-1.11v-1.6h1.11v-.32a2.63,2.63,0,0,1,.72-1.94,2.79,2.79,0,0,1,2-.72,3.68,3.68,0,0,1,.89.1,2.14,2.14,0,0,1,.7.29l-.55,1.5a1.41,1.41,0,0,0-.84-.25c-.63,0-.94.34-.94,1Z"/><path d="M165.91,37.24a2.35,2.35,0,0,1-.75.34,4.1,4.1,0,0,1-.94.11,2.79,2.79,0,0,1-2-.65,2.49,2.49,0,0,1-.7-1.92V32.19h-1.11v-1.6h1.11V28.85h2.07v1.74h1.78v1.6h-1.78V35.1a1,1,0,0,0,.23.7.89.89,0,0,0,.66.24,1.38,1.38,0,0,0,.84-.26Z"/><path d="M173.57,31.12a3.14,3.14,0,0,1,.82,2.37v4.09h-2.07V33.81a1.91,1.91,0,0,0-.37-1.27,1.37,1.37,0,0,0-1.08-.42,1.65,1.65,0,0,0-1.25.48,2,2,0,0,0-.47,1.45v3.53h-2.07V27.72h2.07v3.46a2.81,2.81,0,0,1,1-.64,3.78,3.78,0,0,1,1.28-.22A2.94,2.94,0,0,1,173.57,31.12Z"/><path d="M183.31,34.59H177.9a1.67,1.67,0,0,0,.69,1A2.3,2.3,0,0,0,180,36a2.78,2.78,0,0,0,1-.17,2.38,2.38,0,0,0,.81-.52l1.1,1.19a3.71,3.71,0,0,1-2.95,1.16,4.71,4.71,0,0,1-2.14-.47,3.52,3.52,0,0,1-1.44-1.31,3.57,3.57,0,0,1-.5-1.9,3.71,3.71,0,0,1,.49-1.9,3.52,3.52,0,0,1,1.37-1.31,4,4,0,0,1,1.95-.48,3.87,3.87,0,0,1,1.9.46,3.26,3.26,0,0,1,1.34,1.29,3.93,3.93,0,0,1,.48,2S183.34,34.25,183.31,34.59Zm-4.85-2.3a1.7,1.7,0,0,0-.58,1.09h3.52a1.74,1.74,0,0,0-.58-1.08,1.76,1.76,0,0,0-1.18-.41A1.83,1.83,0,0,0,178.46,32.29Z"/><path d="M197.18,28.28v9.3h-1.76l-4.65-5.65v5.65h-2.12v-9.3h1.78l4.63,5.65V28.28Z"/><path d="M200.62,37.22a3.47,3.47,0,0,1-1.4-1.31,3.79,3.79,0,0,1,0-3.8,3.41,3.41,0,0,1,1.4-1.31,4.25,4.25,0,0,1,2-.48,4.19,4.19,0,0,1,2,.48,3.53,3.53,0,0,1,1.4,1.31,3.63,3.63,0,0,1-1.4,5.11,4.3,4.3,0,0,1-2,.47A4.37,4.37,0,0,1,200.62,37.22ZM204,35.45a2.3,2.3,0,0,0,0-2.89,1.76,1.76,0,0,0-1.31-.53,1.79,1.79,0,0,0-1.32.53,2.27,2.27,0,0,0,0,2.89,1.76,1.76,0,0,0,1.32.54A1.73,1.73,0,0,0,204,35.45Z"/><path d="M214.45,31.12a3.14,3.14,0,0,1,.82,2.37v4.09h-2.08V33.81a1.85,1.85,0,0,0-.37-1.27,1.37,1.37,0,0,0-1.08-.42,1.66,1.66,0,0,0-1.25.48,2,2,0,0,0-.46,1.45v3.53H208V30.43h2v.84a2.66,2.66,0,0,1,1-.7,3.67,3.67,0,0,1,1.34-.25A3,3,0,0,1,214.45,31.12Z"/><path d="M216.88,33h3.76v1.66h-3.76Z"/><path d="M223.78,37.22a3.5,3.5,0,0,1-1.9-3.21,3.5,3.5,0,0,1,1.9-3.21,4.25,4.25,0,0,1,2-.48,4.16,4.16,0,0,1,2,.48,3.47,3.47,0,0,1,1.4,1.31,3.63,3.63,0,0,1-1.4,5.11,4.27,4.27,0,0,1-2,.47A4.37,4.37,0,0,1,223.78,37.22Zm3.34-1.77a2.3,2.3,0,0,0,0-2.89,1.88,1.88,0,0,0-2.62,0,2.27,2.27,0,0,0,0,2.89,1.86,1.86,0,0,0,2.62,0Z"/><path d="M231.22,29.1a1.15,1.15,0,0,1,0-1.65,1.32,1.32,0,0,1,.93-.33,1.37,1.37,0,0,1,.94.32,1,1,0,0,1,.35.8,1.1,1.1,0,0,1-.35.85,1.29,1.29,0,0,1-.94.34A1.32,1.32,0,0,1,231.22,29.1Zm-.1,1.33h2.07v7.15h-2.07Z"/><path d="M235.12,27.72h2.08v9.86h-2.08Z"/><path d="M248.32,31.12a3,3,0,0,1,.9,2.38v4.08h-1.95v-.89a2.3,2.3,0,0,1-2.18,1,3.35,3.35,0,0,1-1.43-.28,2.07,2.07,0,0,1-.92-.77,2,2,0,0,1-.32-1.12,1.88,1.88,0,0,1,.75-1.57,3.85,3.85,0,0,1,2.32-.57h1.65a1.33,1.33,0,0,0-.41-1,1.8,1.8,0,0,0-1.24-.37,3.59,3.59,0,0,0-1.12.18,2.89,2.89,0,0,0-.94.49l-.74-1.45a4.3,4.3,0,0,1,1.4-.64,6.25,6.25,0,0,1,1.68-.23A3.69,3.69,0,0,1,248.32,31.12Zm-1.76,4.93a1.37,1.37,0,0,0,.58-.73v-.73h-1.42c-.85,0-1.28.28-1.28.84a.75.75,0,0,0,.31.63,1.39,1.39,0,0,0,.86.23A1.86,1.86,0,0,0,246.56,36.05Z"/><path d="M257.59,31.12a3.18,3.18,0,0,1,.81,2.37v4.09h-2.07V33.81a1.85,1.85,0,0,0-.37-1.27,1.37,1.37,0,0,0-1.08-.42,1.66,1.66,0,0,0-1.25.48,2,2,0,0,0-.46,1.45v3.53h-2.08V30.43h2v.84a2.77,2.77,0,0,1,1-.7,3.59,3.59,0,0,1,1.34-.25A3,3,0,0,1,257.59,31.12Z"/><path d="M267.64,27.72v9.86h-2v-.82a2.73,2.73,0,0,1-2.23.93,3.76,3.76,0,0,1-1.83-.45A3.24,3.24,0,0,1,260.32,36a4,4,0,0,1-.47-1.94,3.9,3.9,0,0,1,.47-1.94,3.24,3.24,0,0,1,1.28-1.29,3.66,3.66,0,0,1,1.83-.46,2.71,2.71,0,0,1,2.14.87V27.72Zm-2.55,7.73a2.27,2.27,0,0,0,0-2.89,1.75,1.75,0,0,0-1.3-.53,1.79,1.79,0,0,0-1.32.53,2.27,2.27,0,0,0,0,2.89,1.76,1.76,0,0,0,1.32.54A1.72,1.72,0,0,0,265.09,35.45Z"/><path d="M279.76,32.78h2v3.78a5.81,5.81,0,0,1-1.76.88,6.89,6.89,0,0,1-2,.3,5.45,5.45,0,0,1-2.6-.61,4.86,4.86,0,0,1-1.82-6.68,4.57,4.57,0,0,1,1.83-1.71,5.46,5.46,0,0,1,2.63-.62,5.63,5.63,0,0,1,2.22.41,4.25,4.25,0,0,1,1.68,1.2L280.52,31A3.21,3.21,0,0,0,278.11,30a3.38,3.38,0,0,0-1.58.37,2.73,2.73,0,0,0-1.08,1.05,3.09,3.09,0,0,0-.39,1.56,3,3,0,0,0,.39,1.54,2.73,2.73,0,0,0,1.07,1.06,3.22,3.22,0,0,0,1.56.38,3.48,3.48,0,0,0,1.68-.4Z"/><path d="M289,31.12a3,3,0,0,1,.89,2.38v4.08H288v-.89a2.3,2.3,0,0,1-2.18,1,3.35,3.35,0,0,1-1.43-.28,2.07,2.07,0,0,1-.92-.77,2,2,0,0,1-.32-1.12,1.88,1.88,0,0,1,.75-1.57,3.83,3.83,0,0,1,2.32-.57h1.65a1.33,1.33,0,0,0-.41-1,1.8,1.8,0,0,0-1.24-.37,3.59,3.59,0,0,0-1.12.18,2.89,2.89,0,0,0-.94.49l-.74-1.45a4.21,4.21,0,0,1,1.4-.64,6.25,6.25,0,0,1,1.68-.23A3.69,3.69,0,0,1,289,31.12Zm-1.76,4.93a1.37,1.37,0,0,0,.58-.73v-.73h-1.42c-.85,0-1.28.28-1.28.84a.73.73,0,0,0,.31.63,1.39,1.39,0,0,0,.86.23A1.86,1.86,0,0,0,287.25,36.05Z"/><path d="M292.44,37.47a4.66,4.66,0,0,1-1.35-.55l.69-1.49a4.45,4.45,0,0,0,1.16.5,4.75,4.75,0,0,0,1.33.19c.87,0,1.31-.22,1.31-.65a.47.47,0,0,0-.36-.44,5.64,5.64,0,0,0-1.1-.23,10.07,10.07,0,0,1-1.45-.3,2.32,2.32,0,0,1-1-.61,1.75,1.75,0,0,1-.42-1.25,2,2,0,0,1,.39-1.21,2.49,2.49,0,0,1,1.15-.81,4.75,4.75,0,0,1,1.77-.3,7,7,0,0,1,1.51.17,4,4,0,0,1,1.24.46l-.69,1.48a4.06,4.06,0,0,0-2.06-.54,2.19,2.19,0,0,0-1,.19.54.54,0,0,0-.33.48.47.47,0,0,0,.36.46,6.15,6.15,0,0,0,1.14.26,10.87,10.87,0,0,1,1.44.31,2.15,2.15,0,0,1,1,.6,1.71,1.71,0,0,1,.41,1.23,1.87,1.87,0,0,1-.4,1.18,2.46,2.46,0,0,1-1.16.8,5,5,0,0,1-1.81.29A6.83,6.83,0,0,1,292.44,37.47Z"/><path d="M311.22,37.58V32l-2.74,4.6h-1l-2.73-4.48v5.46h-2v-9.3h1.78L308,34.06l3.44-5.78h1.76l0,9.3Z"/><path d="M320.74,31.12a3,3,0,0,1,.89,2.38v4.08h-1.94v-.89a2.31,2.31,0,0,1-2.18,1,3.32,3.32,0,0,1-1.43-.28,2.07,2.07,0,0,1-.92-.77,2,2,0,0,1-.32-1.12,1.88,1.88,0,0,1,.75-1.57,3.83,3.83,0,0,1,2.32-.57h1.65a1.3,1.3,0,0,0-.42-1,1.76,1.76,0,0,0-1.23-.37,3.66,3.66,0,0,0-1.13.18,2.83,2.83,0,0,0-.93.49l-.75-1.45a4.36,4.36,0,0,1,1.41-.64,6.25,6.25,0,0,1,1.68-.23A3.69,3.69,0,0,1,320.74,31.12ZM319,36.05a1.38,1.38,0,0,0,.59-.73v-.73h-1.43c-.85,0-1.27.28-1.27.84a.73.73,0,0,0,.31.63,1.37,1.37,0,0,0,.86.23A1.83,1.83,0,0,0,319,36.05Z"/><path d="M330,31.12a3.14,3.14,0,0,1,.82,2.37v4.09h-2.08V33.81a1.85,1.85,0,0,0-.37-1.27,1.36,1.36,0,0,0-1.07-.42,1.65,1.65,0,0,0-1.25.48,2,2,0,0,0-.47,1.45v3.53h-2.07V30.43h2v.84a2.66,2.66,0,0,1,1-.7,3.67,3.67,0,0,1,1.34-.25A3,3,0,0,1,330,31.12Z"/><path d="M339.9,30.43v7.15h-2v-.85a2.66,2.66,0,0,1-1,.71,3,3,0,0,1-1.24.25,3,3,0,0,1-2.23-.81,3.23,3.23,0,0,1-.83-2.41v-4h2.08v3.74c0,1.15.48,1.73,1.45,1.73a1.57,1.57,0,0,0,1.19-.49,2,2,0,0,0,.46-1.44V30.43Z"/><path d="M344.1,30.59h1.84v1.6h-1.78v5.39h-2.08V32.19H341v-1.6h1.1v-.32a2.59,2.59,0,0,1,.73-1.94,2.76,2.76,0,0,1,2-.72,3.6,3.6,0,0,1,.88.1,2.14,2.14,0,0,1,.7.29l-.55,1.5a1.36,1.36,0,0,0-.83-.25c-.63,0-.95.34-.95,1Z"/><path d="M352.28,31.12a3,3,0,0,1,.89,2.38v4.08h-1.94v-.89a2.31,2.31,0,0,1-2.18,1,3.32,3.32,0,0,1-1.43-.28,2.07,2.07,0,0,1-.92-.77,2,2,0,0,1-.32-1.12,1.88,1.88,0,0,1,.75-1.57,3.83,3.83,0,0,1,2.32-.57h1.65a1.33,1.33,0,0,0-.41-1,1.8,1.8,0,0,0-1.24-.37,3.55,3.55,0,0,0-1.12.18,2.79,2.79,0,0,0-.94.49l-.75-1.45a4.36,4.36,0,0,1,1.41-.64,6.25,6.25,0,0,1,1.68-.23A3.69,3.69,0,0,1,352.28,31.12Zm-1.77,4.93a1.38,1.38,0,0,0,.59-.73v-.73h-1.42c-.86,0-1.28.28-1.28.84a.73.73,0,0,0,.31.63,1.37,1.37,0,0,0,.86.23A1.83,1.83,0,0,0,350.51,36.05Z"/><path d="M356.53,37.22A3.54,3.54,0,0,1,354.59,34a3.54,3.54,0,0,1,1.94-3.21,4.34,4.34,0,0,1,2.05-.48,3.92,3.92,0,0,1,2,.48,2.79,2.79,0,0,1,1.23,1.35l-1.61.86a1.75,1.75,0,0,0-1.61-1,1.79,1.79,0,0,0-1.34.53,2.25,2.25,0,0,0,0,2.9,1.82,1.82,0,0,0,1.34.53,1.74,1.74,0,0,0,1.61-1l1.61.88a2.88,2.88,0,0,1-1.23,1.33,3.92,3.92,0,0,1-2,.48A4.45,4.45,0,0,1,356.53,37.22Z"/><path d="M367.71,37.24a2.31,2.31,0,0,1-.76.34,4,4,0,0,1-.93.11,2.83,2.83,0,0,1-2-.65,2.52,2.52,0,0,1-.7-1.92V32.19h-1.1v-1.6h1.1V28.85h2.08v1.74h1.78v1.6h-1.78V35.1a1,1,0,0,0,.23.7.89.89,0,0,0,.66.24,1.38,1.38,0,0,0,.84-.26Z"/><path d="M376.08,30.43v7.15h-2v-.85a2.66,2.66,0,0,1-1,.71,3,3,0,0,1-1.24.25,3,3,0,0,1-2.23-.81,3.23,3.23,0,0,1-.82-2.41v-4h2.07v3.74c0,1.15.48,1.73,1.45,1.73a1.57,1.57,0,0,0,1.2-.49A2,2,0,0,0,374,34V30.43Z"/><path d="M381,30.59a3.64,3.64,0,0,1,1.45-.27v1.92l-.46,0a1.92,1.92,0,0,0-1.4.5,2,2,0,0,0-.5,1.5v3.37H378V30.43h2v.94A2.34,2.34,0,0,1,381,30.59Z"/><path d="M383.8,29.1a1.13,1.13,0,0,1,0-1.65,1.29,1.29,0,0,1,.93-.33,1.36,1.36,0,0,1,.93.32,1,1,0,0,1,.36.8,1.11,1.11,0,0,1-.36.85,1.46,1.46,0,0,1-1.86,0Zm-.11,1.33h2.07v7.15h-2.07Z"/><path d="M394.19,31.12a3.18,3.18,0,0,1,.81,2.37v4.09h-2.07V33.81a1.85,1.85,0,0,0-.37-1.27,1.37,1.37,0,0,0-1.08-.42,1.66,1.66,0,0,0-1.25.48,2,2,0,0,0-.46,1.45v3.53h-2.08V30.43h2v.84a2.77,2.77,0,0,1,1-.7,3.59,3.59,0,0,1,1.34-.25A3,3,0,0,1,394.19,31.12Z"/><path d="M404.34,30.43v6a3.82,3.82,0,0,1-1,2.92,4.24,4.24,0,0,1-3,1,7.36,7.36,0,0,1-2-.25,4.37,4.37,0,0,1-1.55-.73l.83-1.49a3.4,3.4,0,0,0,1.14.59,4.73,4.73,0,0,0,1.38.22,2.21,2.21,0,0,0,1.59-.49,1.93,1.93,0,0,0,.51-1.47v-.3a2.9,2.9,0,0,1-2.25.89,3.93,3.93,0,0,1-1.81-.43,3.36,3.36,0,0,1-1.29-1.22,3.65,3.65,0,0,1,0-3.62,3.26,3.26,0,0,1,1.29-1.21,3.81,3.81,0,0,1,1.81-.44,2.85,2.85,0,0,1,2.36,1v-.92Zm-2.57,4.62a1.81,1.81,0,0,0,0-2.54,1.92,1.92,0,0,0-1.35-.48,2,2,0,0,0-1.36.48,1.79,1.79,0,0,0,0,2.54,2,2,0,0,0,1.36.49A1.93,1.93,0,0,0,401.77,35.05Z"/><path d="M411.1,37.44a4.84,4.84,0,0,1-1.66-.77l.74-1.63a4.84,4.84,0,0,0,1.42.71,5.28,5.28,0,0,0,1.65.27,2.61,2.61,0,0,0,1.35-.28A.8.8,0,0,0,415,35a.66.66,0,0,0-.26-.55,1.89,1.89,0,0,0-.66-.36c-.27-.08-.64-.18-1.1-.29a17.39,17.39,0,0,1-1.74-.5,2.77,2.77,0,0,1-1.16-.82,2.13,2.13,0,0,1-.49-1.48,2.57,2.57,0,0,1,.44-1.47,3,3,0,0,1,1.32-1.05,5.53,5.53,0,0,1,2.16-.38,7.29,7.29,0,0,1,1.75.21,5.41,5.41,0,0,1,1.49.61l-.67,1.64a5.18,5.18,0,0,0-2.58-.74,2.39,2.39,0,0,0-1.34.3.9.9,0,0,0-.43.77.75.75,0,0,0,.5.71,7.41,7.41,0,0,0,1.52.46c.71.17,1.29.34,1.75.5a2.92,2.92,0,0,1,1.16.8,2.18,2.18,0,0,1,.48,1.48,2.48,2.48,0,0,1-.44,1.45,3,3,0,0,1-1.34,1,5.37,5.37,0,0,1-2.17.38A7.61,7.61,0,0,1,411.1,37.44Z"/><path d="M425.48,34.59h-5.41a1.67,1.67,0,0,0,.69,1,2.3,2.3,0,0,0,1.36.39,2.78,2.78,0,0,0,1-.17,2.34,2.34,0,0,0,.8-.52L425,36.53a3.73,3.73,0,0,1-3,1.16,4.74,4.74,0,0,1-2.14-.47,3.43,3.43,0,0,1-1.43-1.31A3.58,3.58,0,0,1,418,34a3.72,3.72,0,0,1,.5-1.9,3.45,3.45,0,0,1,1.37-1.31,4,4,0,0,1,1.95-.48,3.9,3.9,0,0,1,1.9.46A3.33,3.33,0,0,1,425,32.07a3.93,3.93,0,0,1,.48,2S425.51,34.25,425.48,34.59Zm-4.85-2.3a1.71,1.71,0,0,0-.59,1.09h3.53A1.71,1.71,0,0,0,423,32.3a1.76,1.76,0,0,0-1.17-.41A1.81,1.81,0,0,0,420.63,32.29Z"/><path d="M428.31,37.22a3.68,3.68,0,0,1-1.43-5.11,3.49,3.49,0,0,1,1.43-1.31,4.31,4.31,0,0,1,2.05-.48,4,4,0,0,1,2,.48,2.79,2.79,0,0,1,1.23,1.35L432,33a1.76,1.76,0,0,0-1.61-1,1.79,1.79,0,0,0-1.34.53,2.22,2.22,0,0,0,0,2.9,1.82,1.82,0,0,0,1.34.53A1.75,1.75,0,0,0,432,35l1.61.88a2.88,2.88,0,0,1-1.23,1.33,4,4,0,0,1-2,.48A4.42,4.42,0,0,1,428.31,37.22Z"/><path d="M439.48,37.24a2.16,2.16,0,0,1-.75.34,4.1,4.1,0,0,1-.94.11,2.8,2.8,0,0,1-2-.65,2.49,2.49,0,0,1-.7-1.92V32.19H434v-1.6h1.1V28.85h2.08v1.74H439v1.6H437.2V35.1a1,1,0,0,0,.23.7.86.86,0,0,0,.66.24,1.37,1.37,0,0,0,.83-.26Z"/><path d="M441.8,37.22A3.5,3.5,0,0,1,439.9,34a3.5,3.5,0,0,1,1.9-3.21,4.25,4.25,0,0,1,2-.48,4.16,4.16,0,0,1,2,.48,3.47,3.47,0,0,1,1.4,1.31,3.63,3.63,0,0,1-1.4,5.11,4.27,4.27,0,0,1-2,.47A4.37,4.37,0,0,1,441.8,37.22Zm3.34-1.77a2.3,2.3,0,0,0,0-2.89,1.76,1.76,0,0,0-1.31-.53,1.79,1.79,0,0,0-1.32.53,2.3,2.3,0,0,0,0,2.89,1.76,1.76,0,0,0,1.32.54A1.73,1.73,0,0,0,445.14,35.45Z"/><path d="M452.12,30.59a3.69,3.69,0,0,1,1.46-.27v1.92l-.47,0a1.89,1.89,0,0,0-1.39.5,2,2,0,0,0-.51,1.5v3.37h-2.07V30.43h2v.94A2.37,2.37,0,0,1,452.12,30.59Z"/><path d="M16.4,53.2a2,2,0,0,1-.75.33,3.61,3.61,0,0,1-.94.12,2.79,2.79,0,0,1-2-.65,2.5,2.5,0,0,1-.7-1.92V48.14h-1.1V46.55H12V44.8h2.07v1.75H15.9v1.59H14.11v2.91a.94.94,0,0,0,.24.7A.83.83,0,0,0,15,52a1.31,1.31,0,0,0,.83-.27Z"/><path d="M18.72,53.18a3.71,3.71,0,0,1-1.4-5.12,3.54,3.54,0,0,1,1.4-1.31,4.37,4.37,0,0,1,2-.47,4.3,4.3,0,0,1,2,.47,3.54,3.54,0,0,1,1.4,1.31,3.88,3.88,0,0,1,0,3.81,3.61,3.61,0,0,1-1.4,1.31,4.3,4.3,0,0,1-2,.47A4.37,4.37,0,0,1,18.72,53.18Zm3.34-1.77a2.3,2.3,0,0,0,0-2.89A1.73,1.73,0,0,0,20.75,48a1.76,1.76,0,0,0-1.32.54,2.3,2.3,0,0,0,0,2.89,1.76,1.76,0,0,0,1.32.54A1.73,1.73,0,0,0,22.06,51.41Z"/><path d="M30,44.23h2.15v9.31H30Z"/><path d="M40.68,47.08a3.18,3.18,0,0,1,.81,2.37v4.09H39.42V49.76a1.87,1.87,0,0,0-.37-1.27A1.4,1.4,0,0,0,38,48.08a1.66,1.66,0,0,0-1.25.48A2,2,0,0,0,36.26,50v3.54H34.18V46.39h2v.83a2.75,2.75,0,0,1,1-.69,3.4,3.4,0,0,1,1.34-.25A3,3,0,0,1,40.68,47.08Z"/><path d="M50.73,43.67v9.87h-2v-.82a2.73,2.73,0,0,1-2.23.93,3.76,3.76,0,0,1-1.83-.45,3.37,3.37,0,0,1-1.28-1.29,4.26,4.26,0,0,1,0-3.89,3.24,3.24,0,0,1,1.28-1.29,3.76,3.76,0,0,1,1.83-.45,2.74,2.74,0,0,1,2.14.86V43.67Zm-2.55,7.74a2.27,2.27,0,0,0,0-2.89,1.72,1.72,0,0,0-1.3-.54,1.76,1.76,0,0,0-1.32.54,2.27,2.27,0,0,0,0,2.89,1.76,1.76,0,0,0,1.32.54A1.72,1.72,0,0,0,48.18,51.41Z"/><path d="M54,53.18a3.64,3.64,0,0,1-1.41-1.31,3.88,3.88,0,0,1,0-3.81A3.57,3.57,0,0,1,54,46.75a4.6,4.6,0,0,1,4,0A3.55,3.55,0,0,1,60,50a3.62,3.62,0,0,1-.51,1.91,3.65,3.65,0,0,1-1.39,1.31,4.6,4.6,0,0,1-4,0Zm3.33-1.77a2.27,2.27,0,0,0,0-2.89,1.86,1.86,0,0,0-2.62,0,2.27,2.27,0,0,0,0,2.89,1.86,1.86,0,0,0,2.62,0Z"/><path d="M67.85,47.08a3.14,3.14,0,0,1,.82,2.37v4.09H66.6V49.76a1.92,1.92,0,0,0-.37-1.27,1.4,1.4,0,0,0-1.08-.41,1.66,1.66,0,0,0-1.25.48A2,2,0,0,0,63.43,50v3.54H61.36V46.39h2v.83a2.71,2.71,0,0,1,1-.69,3.49,3.49,0,0,1,1.35-.25A2.94,2.94,0,0,1,67.85,47.08Z"/><path d="M77.59,50.55H72.18a1.7,1.7,0,0,0,.7,1.05,2.25,2.25,0,0,0,1.35.39,2.78,2.78,0,0,0,1-.17,2.41,2.41,0,0,0,.81-.53l1.1,1.2a3.71,3.71,0,0,1-2.95,1.16A4.71,4.71,0,0,1,72,53.18,3.45,3.45,0,0,1,70.1,50,3.55,3.55,0,0,1,72,46.75a4.07,4.07,0,0,1,2-.47,4,4,0,0,1,1.9.45A3.29,3.29,0,0,1,77.15,48a3.9,3.9,0,0,1,.48,2S77.62,50.2,77.59,50.55Zm-4.85-2.3a1.67,1.67,0,0,0-.58,1.09h3.52a1.74,1.74,0,0,0-.58-1.08,1.71,1.71,0,0,0-1.17-.41A1.78,1.78,0,0,0,72.74,48.25Z"/><path d="M79.68,53.43a4.66,4.66,0,0,1-1.35-.55L79,51.39a4.45,4.45,0,0,0,1.16.5,5.15,5.15,0,0,0,1.33.19c.87,0,1.31-.22,1.31-.65a.46.46,0,0,0-.36-.44,5.11,5.11,0,0,0-1.1-.23,11.65,11.65,0,0,1-1.45-.3,2.25,2.25,0,0,1-1-.62,1.72,1.72,0,0,1-.42-1.25,2,2,0,0,1,.39-1.2A2.53,2.53,0,0,1,80,46.57a5,5,0,0,1,1.77-.29,7,7,0,0,1,1.51.17,4.07,4.07,0,0,1,1.24.46l-.69,1.47a4.19,4.19,0,0,0-2.06-.53,2,2,0,0,0-1,.19.54.54,0,0,0-.33.47.47.47,0,0,0,.36.47,6.33,6.33,0,0,0,1.14.25,10.68,10.68,0,0,1,1.44.32,2.15,2.15,0,0,1,1,.6,1.69,1.69,0,0,1,.41,1.22,1.88,1.88,0,0,1-.4,1.19,2.53,2.53,0,0,1-1.16.8,5.17,5.17,0,0,1-1.81.29A7.3,7.3,0,0,1,79.68,53.43Z"/><path d="M86.18,45.06a1.15,1.15,0,0,1,0-1.65,1.33,1.33,0,0,1,.94-.33,1.36,1.36,0,0,1,.93.31,1,1,0,0,1,.36.8,1.13,1.13,0,0,1-.36.86,1.29,1.29,0,0,1-.93.34A1.33,1.33,0,0,1,86.18,45.06Zm-.1,1.33h2.07v7.15H86.08Z"/><path d="M95.52,47.07a3,3,0,0,1,.89,2.39v4.08H94.47v-.89a2.33,2.33,0,0,1-2.18,1,3.47,3.47,0,0,1-1.43-.28,2.3,2.3,0,0,1-.93-.77,2,2,0,0,1-.31-1.12,1.86,1.86,0,0,1,.75-1.57,3.83,3.83,0,0,1,2.32-.57h1.65a1.3,1.3,0,0,0-.42-1,1.76,1.76,0,0,0-1.23-.37,3.66,3.66,0,0,0-1.13.18,3,3,0,0,0-.93.48l-.75-1.45a4.62,4.62,0,0,1,1.4-.63A6.38,6.38,0,0,1,93,46.28,3.71,3.71,0,0,1,95.52,47.07ZM93.75,52a1.38,1.38,0,0,0,.59-.73v-.73H92.91c-.85,0-1.27.28-1.27.84A.75.75,0,0,0,92,52a1.44,1.44,0,0,0,.86.23A1.83,1.83,0,0,0,93.75,52Z"/><path d="M100,43.92a1.24,1.24,0,0,1,.36.92,2.5,2.5,0,0,1-.07.54,6.64,6.64,0,0,1-.28.79l-.77,1.92H97.87l.57-2.1a1.16,1.16,0,0,1-.51-.44,1.26,1.26,0,0,1-.19-.71,1.21,1.21,0,0,1,.37-.92,1.38,1.38,0,0,1,1.84,0Z"/><path d="M102.14,53.43a4.54,4.54,0,0,1-1.35-.55l.69-1.49a4.53,4.53,0,0,0,1.15.5,5.27,5.27,0,0,0,1.33.19c.88,0,1.32-.22,1.32-.65a.46.46,0,0,0-.36-.44,5.11,5.11,0,0,0-1.1-.23,11.65,11.65,0,0,1-1.45-.3,2.25,2.25,0,0,1-1-.62,1.72,1.72,0,0,1-.42-1.25,2,2,0,0,1,.39-1.2,2.55,2.55,0,0,1,1.14-.82,5.07,5.07,0,0,1,1.78-.29,7.06,7.06,0,0,1,1.51.17,4.07,4.07,0,0,1,1.24.46l-.69,1.47a4.19,4.19,0,0,0-2.06-.53,2,2,0,0,0-1,.19.54.54,0,0,0-.33.47.47.47,0,0,0,.36.47,6.33,6.33,0,0,0,1.14.25,10.68,10.68,0,0,1,1.44.32,2.2,2.2,0,0,1,1,.6,1.73,1.73,0,0,1,.41,1.22,1.88,1.88,0,0,1-.4,1.19,2.53,2.53,0,0,1-1.16.8,5.22,5.22,0,0,1-1.82.29A7.28,7.28,0,0,1,102.14,53.43Z"/><path d="M119.65,51.81v1.73h-7.2V44.23h7V46h-4.89v2h4.32v1.68h-4.32v2.15Z"/><path d="M122.57,53.18a3.67,3.67,0,0,1-1.42-1.31,3.61,3.61,0,0,1,1.42-5.12,4.46,4.46,0,0,1,2.06-.47,4,4,0,0,1,2,.47,2.88,2.88,0,0,1,1.23,1.35l-1.61.87a1.76,1.76,0,0,0-1.61-1,1.84,1.84,0,0,0-1.34.53,2,2,0,0,0-.53,1.45,2,2,0,0,0,.53,1.45,1.81,1.81,0,0,0,1.34.54,1.74,1.74,0,0,0,1.61-1l1.61.88a2.88,2.88,0,0,1-1.23,1.33,3.91,3.91,0,0,1-2,.48A4.46,4.46,0,0,1,122.57,53.18Z"/><path d="M130.31,53.18a3.71,3.71,0,0,1-1.4-5.12,3.54,3.54,0,0,1,1.4-1.31,4.37,4.37,0,0,1,2-.47,4.3,4.3,0,0,1,2,.47,3.61,3.61,0,0,1,1.4,1.31,3.63,3.63,0,0,1-1.4,5.12,4.3,4.3,0,0,1-2,.47A4.37,4.37,0,0,1,130.31,53.18Zm3.34-1.77a2.3,2.3,0,0,0,0-2.89,1.73,1.73,0,0,0-1.31-.54,1.76,1.76,0,0,0-1.32.54,2.27,2.27,0,0,0,0,2.89,1.76,1.76,0,0,0,1.32.54A1.73,1.73,0,0,0,133.65,51.41Z"/><path d="M144.14,47.08a3.14,3.14,0,0,1,.82,2.37v4.09h-2.08V49.76a1.87,1.87,0,0,0-.37-1.27,1.4,1.4,0,0,0-1.08-.41,1.68,1.68,0,0,0-1.25.48,2,2,0,0,0-.46,1.44v3.54h-2.08V46.39h2v.83a2.64,2.64,0,0,1,1-.69,3.47,3.47,0,0,1,1.34-.25A3,3,0,0,1,144.14,47.08Z"/><path d="M148.29,53.18a3.54,3.54,0,0,1-1.4-1.31,3.81,3.81,0,0,1,0-3.81,3.47,3.47,0,0,1,1.4-1.31,4.6,4.6,0,0,1,4.05,0,3.51,3.51,0,0,1,1.39,1.31,3.65,3.65,0,0,1-1.39,5.12,4.6,4.6,0,0,1-4.05,0Zm3.34-1.77a2.3,2.3,0,0,0,0-2.89,1.73,1.73,0,0,0-1.31-.54,1.76,1.76,0,0,0-1.32.54,2.27,2.27,0,0,0,0,2.89,1.76,1.76,0,0,0,1.32.54A1.73,1.73,0,0,0,151.63,51.41Z"/><path d="M166.92,47.07a3.23,3.23,0,0,1,.79,2.38v4.09h-2.07V49.76a1.92,1.92,0,0,0-.36-1.27,1.25,1.25,0,0,0-1-.41,1.47,1.47,0,0,0-1.16.47,2,2,0,0,0-.42,1.4v3.59h-2.08V49.76q0-1.68-1.35-1.68a1.47,1.47,0,0,0-1.15.47,2,2,0,0,0-.42,1.4v3.59h-2.08V46.39h2v.82a2.73,2.73,0,0,1,1-.69,3.3,3.3,0,0,1,1.27-.24,3.06,3.06,0,0,1,1.37.3,2.45,2.45,0,0,1,1,.87,2.91,2.91,0,0,1,1.1-.86,3.43,3.43,0,0,1,1.47-.31A2.88,2.88,0,0,1,166.92,47.07Z"/><path d="M176.54,46.39,173.31,54a3.74,3.74,0,0,1-1.22,1.74,2.94,2.94,0,0,1-1.75.51,3.47,3.47,0,0,1-1.1-.18,2.43,2.43,0,0,1-.89-.47l.76-1.48a1.79,1.79,0,0,0,.55.33,1.71,1.71,0,0,0,.62.12,1.15,1.15,0,0,0,.69-.2,1.85,1.85,0,0,0,.48-.69l0-.07-3.09-7.2h2.14l2,4.85,2-4.85Z"/><path d="M186.59,47.07a3,3,0,0,1,.89,2.39v4.08h-1.94v-.89a2.31,2.31,0,0,1-2.18,1,3.51,3.51,0,0,1-1.43-.28,2.2,2.2,0,0,1-.92-.77,2,2,0,0,1-.32-1.12,1.86,1.86,0,0,1,.75-1.57,3.83,3.83,0,0,1,2.32-.57h1.65a1.33,1.33,0,0,0-.41-1,1.8,1.8,0,0,0-1.24-.37,3.55,3.55,0,0,0-1.12.18,3.08,3.08,0,0,0-.94.48L181,47.14a4.57,4.57,0,0,1,1.41-.63,6.25,6.25,0,0,1,1.68-.23A3.69,3.69,0,0,1,186.59,47.07ZM184.82,52a1.38,1.38,0,0,0,.59-.73v-.73H184c-.86,0-1.28.28-1.28.84A.75.75,0,0,0,183,52a1.46,1.46,0,0,0,.86.23A1.83,1.83,0,0,0,184.82,52Z"/><path d="M194,53.2a2,2,0,0,1-.75.33,3.61,3.61,0,0,1-.94.12,2.79,2.79,0,0,1-2-.65,2.5,2.5,0,0,1-.7-1.92V48.14h-1.1V46.55h1.1V44.8h2.07v1.75h1.79v1.59h-1.79v2.91a.94.94,0,0,0,.24.7.83.83,0,0,0,.66.25,1.31,1.31,0,0,0,.83-.27Z"/><path d="M203.52,53.2a2.14,2.14,0,0,1-.75.33,3.61,3.61,0,0,1-.94.12,2.79,2.79,0,0,1-2-.65,2.5,2.5,0,0,1-.7-1.92V48.14h-1.11V46.55h1.11V44.8h2.07v1.75H203v1.59h-1.78v2.91a.94.94,0,0,0,.24.7.82.82,0,0,0,.65.25,1.32,1.32,0,0,0,.84-.27Z"/><path d="M211.18,47.08a3.14,3.14,0,0,1,.82,2.37v4.09h-2.07V49.76a1.92,1.92,0,0,0-.37-1.27,1.4,1.4,0,0,0-1.08-.41,1.66,1.66,0,0,0-1.25.48,2,2,0,0,0-.47,1.44v3.54h-2.07V43.67h2.07v3.46a2.94,2.94,0,0,1,1-.63,3.55,3.55,0,0,1,1.28-.22A2.94,2.94,0,0,1,211.18,47.08Z"/><path d="M220.93,50.55h-5.42a1.7,1.7,0,0,0,.7,1.05,2.25,2.25,0,0,0,1.35.39,2.78,2.78,0,0,0,1-.17,2.41,2.41,0,0,0,.81-.53l1.1,1.2a3.71,3.71,0,0,1-3,1.16,4.71,4.71,0,0,1-2.14-.47A3.45,3.45,0,0,1,213.43,50a3.55,3.55,0,0,1,1.86-3.21,4.07,4.07,0,0,1,2-.47,4,4,0,0,1,1.9.45,3.29,3.29,0,0,1,1.34,1.3,3.9,3.9,0,0,1,.49,2S221,50.2,220.93,50.55Zm-4.86-2.3a1.67,1.67,0,0,0-.58,1.09H219a1.74,1.74,0,0,0-.58-1.08,1.71,1.71,0,0,0-1.17-.41A1.78,1.78,0,0,0,216.07,48.25Z"/><path d="M228.14,53.08a4.59,4.59,0,0,1-1.81-1.71,5,5,0,0,1,0-5,4.61,4.61,0,0,1,1.81-1.72,5.41,5.41,0,0,1,2.58-.62,5.48,5.48,0,0,1,2.19.43,4.33,4.33,0,0,1,1.64,1.22L233.17,47a3,3,0,0,0-2.34-1.09,3,3,0,0,0-1.54.38,2.68,2.68,0,0,0-1.06,1.05,3.18,3.18,0,0,0-.38,1.55,3.14,3.14,0,0,0,.38,1.54,2.77,2.77,0,0,0,1.06,1.06,3.14,3.14,0,0,0,1.54.38,3,3,0,0,0,2.34-1.11L234.55,52a4.26,4.26,0,0,1-1.64,1.23,5.73,5.73,0,0,1-4.77-.19Z"/><path d="M242.88,46.39v7.15h-2v-.85a2.66,2.66,0,0,1-1,.71,3.38,3.38,0,0,1-3.47-.56,3.25,3.25,0,0,1-.83-2.41v-4h2.08v3.73c0,1.16.48,1.73,1.45,1.73a1.56,1.56,0,0,0,1.19-.48,2.08,2.08,0,0,0,.45-1.45V46.39Z"/><path d="M247.79,46.55a3.69,3.69,0,0,1,1.46-.27V48.2l-.47,0a1.85,1.85,0,0,0-1.39.5,2,2,0,0,0-.51,1.49v3.38h-2.07V46.39h2v.94A2.29,2.29,0,0,1,247.79,46.55Z"/><path d="M253.47,46.55a3.69,3.69,0,0,1,1.46-.27V48.2l-.47,0a1.89,1.89,0,0,0-1.4.5,2,2,0,0,0-.5,1.49v3.38h-2.08V46.39h2v.94A2.24,2.24,0,0,1,253.47,46.55Z"/><path d="M263.06,50.55h-5.41a1.72,1.72,0,0,0,.69,1.05,2.3,2.3,0,0,0,1.36.39,2.78,2.78,0,0,0,1-.17,2.41,2.41,0,0,0,.81-.53l1.1,1.2a3.71,3.71,0,0,1-3,1.16,4.71,4.71,0,0,1-2.14-.47,3.52,3.52,0,0,1-1.44-1.31,3.62,3.62,0,0,1-.51-1.91,3.66,3.66,0,0,1,.5-1.89,3.62,3.62,0,0,1,1.37-1.32,4.07,4.07,0,0,1,1.95-.47,4,4,0,0,1,1.9.45,3.29,3.29,0,0,1,1.34,1.3,3.9,3.9,0,0,1,.48,2S263.09,50.2,263.06,50.55Zm-4.85-2.3a1.67,1.67,0,0,0-.58,1.09h3.52a1.71,1.71,0,0,0-.59-1.08,1.69,1.69,0,0,0-1.17-.41A1.76,1.76,0,0,0,258.21,48.25Z"/><path d="M271,47.08a3.14,3.14,0,0,1,.82,2.37v4.09h-2.07V49.76a1.87,1.87,0,0,0-.38-1.27,1.36,1.36,0,0,0-1.07-.41,1.65,1.65,0,0,0-1.25.48,2,2,0,0,0-.47,1.44v3.54h-2.07V46.39h2v.83a2.64,2.64,0,0,1,1-.69,3.49,3.49,0,0,1,1.35-.25A2.94,2.94,0,0,1,271,47.08Z"/><path d="M278.29,53.2a2,2,0,0,1-.75.33,3.61,3.61,0,0,1-.94.12,2.79,2.79,0,0,1-2-.65,2.5,2.5,0,0,1-.7-1.92V48.14h-1.11V46.55h1.11V44.8H276v1.75h1.78v1.59H276v2.91a.94.94,0,0,0,.24.7.82.82,0,0,0,.65.25,1.32,1.32,0,0,0,.84-.27Z"/><path d="M289.55,44.64a3.26,3.26,0,0,1,1.4,1.18,3.18,3.18,0,0,1,.49,1.79A3.23,3.23,0,0,1,291,49.4a3.17,3.17,0,0,1-1.4,1.17,5.29,5.29,0,0,1-2.15.4h-1.88v2.57h-2.15V44.23h4A5.29,5.29,0,0,1,289.55,44.64Zm-.8,4.16a1.66,1.66,0,0,0,0-2.39,2.22,2.22,0,0,0-1.47-.42h-1.76v3.23h1.76A2.22,2.22,0,0,0,288.75,48.8Z"/><path d="M295.81,46.55a3.64,3.64,0,0,1,1.45-.27V48.2l-.46,0a1.88,1.88,0,0,0-1.4.5,2,2,0,0,0-.5,1.49v3.38h-2.08V46.39h2v.94A2.32,2.32,0,0,1,295.81,46.55Z"/><path d="M298.61,45.06a1.13,1.13,0,0,1,0-1.65,1.32,1.32,0,0,1,.93-.33,1.36,1.36,0,0,1,.93.31,1,1,0,0,1,.36.8,1.13,1.13,0,0,1-.36.86,1.29,1.29,0,0,1-.93.34A1.32,1.32,0,0,1,298.61,45.06Zm-.11,1.33h2.08v7.15H298.5Z"/><path d="M303.91,53.18A3.49,3.49,0,0,1,302,50a3.49,3.49,0,0,1,1.94-3.21,4.42,4.42,0,0,1,2-.47,4.08,4.08,0,0,1,2,.47,2.88,2.88,0,0,1,1.23,1.35l-1.61.87A1.77,1.77,0,0,0,306,48a1.86,1.86,0,0,0-1.35.53,2,2,0,0,0-.53,1.45,2,2,0,0,0,.53,1.45A1.83,1.83,0,0,0,306,52a1.75,1.75,0,0,0,1.61-1l1.61.88a2.88,2.88,0,0,1-1.23,1.33,4,4,0,0,1-2,.48A4.42,4.42,0,0,1,303.91,53.18Z"/><path d="M317.24,50.55h-5.41a1.64,1.64,0,0,0,.69,1.05,2.25,2.25,0,0,0,1.35.39,2.7,2.7,0,0,0,1-.17,2.41,2.41,0,0,0,.81-.53l1.1,1.2a3.71,3.71,0,0,1-2.95,1.16,4.71,4.71,0,0,1-2.14-.47,3.59,3.59,0,0,1-1.44-1.31,3.7,3.7,0,0,1-.5-1.91,3.56,3.56,0,0,1,.5-1.89,3.48,3.48,0,0,1,1.37-1.32,4.26,4.26,0,0,1,3.85,0,3.33,3.33,0,0,1,1.33,1.3,3.8,3.8,0,0,1,.49,2S317.26,50.2,317.24,50.55Zm-4.86-2.3a1.67,1.67,0,0,0-.58,1.09h3.52a1.7,1.7,0,0,0-1.75-1.49A1.78,1.78,0,0,0,312.38,48.25Z"/><path d="M322.87,53.31a12.9,12.9,0,0,1-.43-3.41,13,13,0,0,1,.43-3.43,9.66,9.66,0,0,1,1.23-2.8h2a11.91,11.91,0,0,0-1.22,3,13.53,13.53,0,0,0,0,6.45,11.62,11.62,0,0,0,1.22,3h-2A9.73,9.73,0,0,1,322.87,53.31Z"/><path d="M327.22,48.56a3,3,0,0,1,0-3.74,2.35,2.35,0,0,1,3.33,0,3.05,3.05,0,0,1,0,3.74,2.33,2.33,0,0,1-3.33,0Zm2.38-.76a2.48,2.48,0,0,0,0-2.21.83.83,0,0,0-.72-.37.8.8,0,0,0-.7.38,1.85,1.85,0,0,0-.27,1.09,1.88,1.88,0,0,0,.27,1.1.83.83,0,0,0,.7.38A.85.85,0,0,0,329.6,47.8Zm4.83-3.57H336l-6.35,9.31h-1.59Zm-.42,9.1a2.09,2.09,0,0,1-.82-.89,3.33,3.33,0,0,1,0-2.72,2.14,2.14,0,0,1,.82-.89,2.28,2.28,0,0,1,1.19-.32,2.2,2.2,0,0,1,1.67.7,3.05,3.05,0,0,1,0,3.74,2.2,2.2,0,0,1-1.67.7A2.28,2.28,0,0,1,334,53.33Zm1.9-1.15a1.88,1.88,0,0,0,.26-1.1,1.9,1.9,0,0,0-.26-1.1.84.84,0,0,0-1.41,0,1.86,1.86,0,0,0-.27,1.1,1.84,1.84,0,0,0,.27,1.1.84.84,0,0,0,1.41,0Z"/><path d="M344.64,53.08a4.69,4.69,0,0,1-1.83-1.73,5,5,0,0,1,0-4.93,4.67,4.67,0,0,1,1.83-1.72,5.7,5.7,0,0,1,5.21,0,4.74,4.74,0,0,1,1.83,1.72,4.93,4.93,0,0,1,0,4.93,4.76,4.76,0,0,1-1.83,1.73,5.78,5.78,0,0,1-5.21,0Zm4.1-1.59a2.79,2.79,0,0,0,1-1.06,3.14,3.14,0,0,0,.38-1.54,3.18,3.18,0,0,0-.38-1.55,2.69,2.69,0,0,0-1-1.05,3.11,3.11,0,0,0-3,0,2.69,2.69,0,0,0-1,1.05,3.07,3.07,0,0,0-.38,1.55,3,3,0,0,0,.38,1.54,2.79,2.79,0,0,0,1,1.06,3.11,3.11,0,0,0,3,0Z"/><path d="M356.09,46.55h1.84v1.59h-1.79v5.4h-2.07v-5.4H353V46.55h1.1v-.32a2.6,2.6,0,0,1,.72-1.94,2.8,2.8,0,0,1,2-.72,3.6,3.6,0,0,1,.88.1,2.13,2.13,0,0,1,.7.28l-.55,1.51a1.41,1.41,0,0,0-.83-.26c-.63,0-1,.35-1,1Z"/><path d="M369.16,48.74h2v3.78a5.52,5.52,0,0,1-1.75.87,6.68,6.68,0,0,1-2,.31,5.47,5.47,0,0,1-2.61-.62A4.52,4.52,0,0,1,363,51.37a5,5,0,0,1,0-5,4.51,4.51,0,0,1,1.82-1.72,5.59,5.59,0,0,1,2.64-.62,5.7,5.7,0,0,1,2.22.42,4.37,4.37,0,0,1,1.67,1.19L369.92,47a3.2,3.2,0,0,0-2.41-1.05,3.26,3.26,0,0,0-1.58.37,2.73,2.73,0,0,0-1.08,1,3.35,3.35,0,0,0,0,3.1,2.86,2.86,0,0,0,1.07,1.06,3.23,3.23,0,0,0,1.57.38,3.52,3.52,0,0,0,1.67-.4Z"/><path d="M373.12,44.23h4.23a6,6,0,0,1,2.68.58,4.34,4.34,0,0,1,1.81,1.63,4.92,4.92,0,0,1,0,4.89A4.28,4.28,0,0,1,380,53a5.87,5.87,0,0,1-2.68.58h-4.23Zm4.13,7.54a3.1,3.1,0,0,0,2.22-.78,3.08,3.08,0,0,0,0-4.21,3.1,3.1,0,0,0-2.22-.78h-2v5.77Z"/><path d="M390.28,44.64a3.23,3.23,0,0,1,1.41,1.18,3.26,3.26,0,0,1,.49,1.79,3.31,3.31,0,0,1-.49,1.79,3.14,3.14,0,0,1-1.41,1.17,5.21,5.21,0,0,1-2.14.4h-1.88v2.57h-2.15V44.23h4A5.2,5.2,0,0,1,390.28,44.64Zm-.79,4.16a1.66,1.66,0,0,0,0-2.39A2.24,2.24,0,0,0,388,46h-1.76v3.23H388A2.24,2.24,0,0,0,389.49,48.8Z"/><path d="M395.05,51.42a1.24,1.24,0,0,1,.36.92,2,2,0,0,1-.07.54,5.54,5.54,0,0,1-.29.79l-.76,1.92H393l.58-2.12A1,1,0,0,1,393,53a1.33,1.33,0,0,1,.17-1.62,1.28,1.28,0,0,1,.92-.35A1.27,1.27,0,0,1,395.05,51.42Z"/><path d="M409.68,44.23l-4,9.31h-2.13l-4-9.31h2.32l2.84,6.65,2.87-6.65Z"/><path d="M415.21,47.07a3,3,0,0,1,.89,2.39v4.08h-1.94v-.89a2.33,2.33,0,0,1-2.18,1,3.47,3.47,0,0,1-1.43-.28,2.2,2.2,0,0,1-.92-.77,2,2,0,0,1-.32-1.12,1.86,1.86,0,0,1,.75-1.57,3.83,3.83,0,0,1,2.32-.57H414a1.33,1.33,0,0,0-.41-1,1.8,1.8,0,0,0-1.24-.37,3.55,3.55,0,0,0-1.12.18,3,3,0,0,0-.94.48l-.75-1.45a4.57,4.57,0,0,1,1.41-.63,6.25,6.25,0,0,1,1.68-.23A3.69,3.69,0,0,1,415.21,47.07ZM413.44,52a1.38,1.38,0,0,0,.59-.73v-.73H412.6c-.85,0-1.27.28-1.27.84a.75.75,0,0,0,.31.63,1.44,1.44,0,0,0,.86.23A1.83,1.83,0,0,0,413.44,52Z"/><path d="M418,43.67h2.07v9.87H418Z"/><path d="M429.18,46.39v7.15h-2v-.85a2.78,2.78,0,0,1-1,.71,3,3,0,0,1-1.23.25,3.06,3.06,0,0,1-2.24-.81,3.24,3.24,0,0,1-.82-2.41v-4H424v3.73c0,1.16.49,1.73,1.45,1.73a1.57,1.57,0,0,0,1.2-.48,2.08,2.08,0,0,0,.45-1.45V46.39Z"/><path d="M438.08,50.55h-5.41a1.72,1.72,0,0,0,.69,1.05,2.28,2.28,0,0,0,1.36.39,2.78,2.78,0,0,0,1-.17,2.38,2.38,0,0,0,.8-.53l1.11,1.2a3.73,3.73,0,0,1-3,1.16,4.74,4.74,0,0,1-2.14-.47,3.5,3.5,0,0,1-1.43-1.31,3.62,3.62,0,0,1-.51-1.91,3.66,3.66,0,0,1,.5-1.89,3.55,3.55,0,0,1,1.37-1.32,4.07,4.07,0,0,1,1.95-.47,4,4,0,0,1,1.9.45,3.35,3.35,0,0,1,1.34,1.3,3.9,3.9,0,0,1,.48,2S438.11,50.2,438.08,50.55Zm-4.85-2.3a1.68,1.68,0,0,0-.59,1.09h3.53a1.72,1.72,0,0,0-1.76-1.49A1.76,1.76,0,0,0,433.23,48.25Z"/><path d="M449.54,51.55h-4.32l-.82,2h-2.21l4.15-9.31h2.13l4.16,9.31h-2.26Zm-.67-1.64-1.48-3.56-1.48,3.56Z"/><path d="M460.67,43.67v9.87h-2v-.82a2.73,2.73,0,0,1-2.23.93,3.73,3.73,0,0,1-1.83-.45,3.31,3.31,0,0,1-1.28-1.29,4.26,4.26,0,0,1,0-3.89,3.18,3.18,0,0,1,1.28-1.29,3.73,3.73,0,0,1,1.83-.45,2.75,2.75,0,0,1,2.14.86V43.67Zm-2.55,7.74a2.27,2.27,0,0,0,0-2.89,1.74,1.74,0,0,0-1.3-.54,1.76,1.76,0,0,0-1.32.54,2.27,2.27,0,0,0,0,2.89,1.76,1.76,0,0,0,1.32.54A1.74,1.74,0,0,0,458.12,51.41Z"/><path d="M469.87,43.67v9.87h-2v-.82a2.73,2.73,0,0,1-2.23.93,3.76,3.76,0,0,1-1.83-.45,3.37,3.37,0,0,1-1.28-1.29,4.26,4.26,0,0,1,0-3.89,3.24,3.24,0,0,1,1.28-1.29,3.76,3.76,0,0,1,1.83-.45,2.74,2.74,0,0,1,2.14.86V43.67Zm-2.55,7.74a2.27,2.27,0,0,0,0-2.89A1.72,1.72,0,0,0,466,48a1.76,1.76,0,0,0-1.32.54,2.27,2.27,0,0,0,0,2.89A1.76,1.76,0,0,0,466,52,1.72,1.72,0,0,0,467.32,51.41Z"/><path d="M478.76,50.55h-5.41A1.64,1.64,0,0,0,474,51.6a2.25,2.25,0,0,0,1.35.39,2.7,2.7,0,0,0,1-.17,2.41,2.41,0,0,0,.81-.53l1.1,1.2a3.71,3.71,0,0,1-3,1.16,4.71,4.71,0,0,1-2.14-.47,3.59,3.59,0,0,1-1.44-1.31,3.7,3.7,0,0,1-.5-1.91,3.58,3.58,0,0,1,1.87-3.21,4.26,4.26,0,0,1,3.85,0,3.33,3.33,0,0,1,1.33,1.3,3.8,3.8,0,0,1,.49,2S478.78,50.2,478.76,50.55Zm-4.86-2.3a1.72,1.72,0,0,0-.58,1.09h3.52a1.7,1.7,0,0,0-1.75-1.49A1.78,1.78,0,0,0,473.9,48.25Z"/><path d="M487.47,43.67v9.87h-2v-.82a2.75,2.75,0,0,1-2.24.93,3.76,3.76,0,0,1-1.83-.45,3.37,3.37,0,0,1-1.28-1.29,4.34,4.34,0,0,1,0-3.89,3.24,3.24,0,0,1,1.28-1.29,3.76,3.76,0,0,1,1.83-.45,2.72,2.72,0,0,1,2.14.86V43.67Zm-2.56,7.74a2.27,2.27,0,0,0,0-2.89,1.72,1.72,0,0,0-1.3-.54,1.76,1.76,0,0,0-1.32.54,2.3,2.3,0,0,0,0,2.89,1.76,1.76,0,0,0,1.32.54A1.72,1.72,0,0,0,484.91,51.41Z"/><path d="M488.56,56.12a12,12,0,0,0,1.23-3,13.53,13.53,0,0,0,0-6.45,12.34,12.34,0,0,0-1.23-3h2a9.13,9.13,0,0,1,1.24,2.79,13.07,13.07,0,0,1,.43,3.44,13.35,13.35,0,0,1-.42,3.42,9.29,9.29,0,0,1-1.25,2.8Z"/><g class="cls-2"><rect x="64" y="77.56" width="376.02" height="0.45"/></g><g class="cls-2"><rect x="64" y="101.32" width="376.02" height="0.45"/></g><g class="cls-2"><rect x="64" y="125.4" width="376.02" height="0.45"/></g><g class="cls-2"><rect x="64" y="148.58" width="376.02" height="0.45"/></g><g class="cls-2"><rect x="64" y="172.43" width="376.02" height="0.45"/></g><g class="cls-2"><rect x="64" y="196.18" width="376.02" height="0.45"/></g><g class="cls-2"><rect x="64" y="219.92" width="376.02" height="0.45"/></g><rect class="cls-3" x="91.81" y="164.54" width="40.98" height="55.83"/><path d="M101.94,156.18v5.32h-1.23v-4.33H99.64v-1Z"/><path d="M107,156.18v.8l-2,4.52h-1.33l1.9-4.32h-1.76v.87h-1.1v-1.87Z"/><path d="M107.38,161.35a.72.72,0,0,1-.21-.53.69.69,0,0,1,.21-.53.73.73,0,0,1,.52-.2.78.78,0,0,1,.53.2.69.69,0,0,1,.21.53.72.72,0,0,1-.21.53.74.74,0,0,1-.53.21A.7.7,0,0,1,107.38,161.35Z"/><path d="M112.68,158.63a1.51,1.51,0,0,1,.53,1.2,1.6,1.6,0,0,1-1,1.52,2.81,2.81,0,0,1-1.23.24,4.11,4.11,0,0,1-1.1-.15A2.74,2.74,0,0,1,109,161l.49-.94a2.19,2.19,0,0,0,.7.35,2.45,2.45,0,0,0,.81.13,1.29,1.29,0,0,0,.73-.18.58.58,0,0,0,.27-.51.59.59,0,0,0-.28-.52,1.91,1.91,0,0,0-1-.17h-1.36l.27-3h3.25v1h-2.22l-.09,1H111A2.55,2.55,0,0,1,112.68,158.63Z"/><path d="M118,159.22a1.31,1.31,0,0,1,.21.74,1.41,1.41,0,0,1-.28.86,1.8,1.8,0,0,1-.79.57,3.11,3.11,0,0,1-1.18.2,3.07,3.07,0,0,1-1.18-.2,1.77,1.77,0,0,1-.78-.57,1.41,1.41,0,0,1-.28-.86,1.31,1.31,0,0,1,.21-.74,1.51,1.51,0,0,1,.6-.51,1.44,1.44,0,0,1-.46-.46,1.35,1.35,0,0,1-.16-.64,1.33,1.33,0,0,1,.26-.81,1.7,1.7,0,0,1,.72-.52,3.11,3.11,0,0,1,2.14,0,1.67,1.67,0,0,1,.73.52,1.33,1.33,0,0,1,.26.81,1.35,1.35,0,0,1-.16.64,1.38,1.38,0,0,1-.47.46A1.48,1.48,0,0,1,118,159.22Zm-1.31,1.26a.68.68,0,0,0,.27-.56.65.65,0,0,0-.27-.55,1.15,1.15,0,0,0-.73-.21,1.1,1.1,0,0,0-.72.21.71.71,0,0,0,0,1.11,1.1,1.1,0,0,0,.72.21A1.15,1.15,0,0,0,116.65,160.48Zm-1.33-3.31a.6.6,0,0,0-.22.49.55.55,0,0,0,.22.48.91.91,0,0,0,.6.18,1,1,0,0,0,.61-.18.55.55,0,0,0,.22-.48.6.6,0,0,0-.22-.49,1,1,0,0,0-.61-.17A.93.93,0,0,0,115.32,157.17Z"/><path d="M118.93,158.66a1.52,1.52,0,0,1-.37-1.07,1.5,1.5,0,0,1,.37-1.07,1.22,1.22,0,0,1,.95-.4,1.21,1.21,0,0,1,1,.4,1.5,1.5,0,0,1,.37,1.07,1.52,1.52,0,0,1-.37,1.07,1.24,1.24,0,0,1-1,.39A1.25,1.25,0,0,1,118.93,158.66Zm1.36-.44a1.4,1.4,0,0,0,0-1.26.48.48,0,0,0-.41-.22.49.49,0,0,0-.4.22,1.11,1.11,0,0,0-.15.63,1.13,1.13,0,0,0,.15.63.48.48,0,0,0,.4.21A.47.47,0,0,0,120.29,158.22Zm2.76-2H124l-3.64,5.32h-.9Zm-.24,5.2a1.2,1.2,0,0,1-.46-.51,1.85,1.85,0,0,1,0-1.55,1.2,1.2,0,0,1,.46-.51,1.3,1.3,0,0,1,.68-.18,1.25,1.25,0,0,1,1,.4,1.72,1.72,0,0,1,0,2.13,1.25,1.25,0,0,1-1,.4A1.3,1.3,0,0,1,122.81,161.38Zm1.09-.66a1.07,1.07,0,0,0,.15-.62,1.08,1.08,0,0,0-.15-.63.46.46,0,0,0-.41-.22.46.46,0,0,0-.4.22,1.08,1.08,0,0,0-.15.63,1.13,1.13,0,0,0,.15.63.48.48,0,0,0,.4.21A.46.46,0,0,0,123.9,160.72Z"/><path class="cls-4" d="M67.16,103v6H65.77v-4.87H64.58V103Z"/><path class="cls-4" d="M73,106.38a1.62,1.62,0,0,1-.09,1.8,2,2,0,0,1-.88.64,3.67,3.67,0,0,1-1.33.23,3.58,3.58,0,0,1-1.32-.23,2,2,0,0,1-.88-.64,1.56,1.56,0,0,1-.31-1,1.52,1.52,0,0,1,.23-.83,1.74,1.74,0,0,1,.67-.58,1.49,1.49,0,0,1-.51-.52,1.41,1.41,0,0,1-.18-.71,1.5,1.5,0,0,1,.29-.91,1.9,1.9,0,0,1,.81-.59,3.56,3.56,0,0,1,2.41,0,1.87,1.87,0,0,1,.82.59,1.5,1.5,0,0,1,.29.91,1.41,1.41,0,0,1-.18.71,1.52,1.52,0,0,1-.52.52A1.77,1.77,0,0,1,73,106.38Zm-1.47,1.41a.8.8,0,0,0,0-1.25,1.38,1.38,0,0,0-.83-.23,1.32,1.32,0,0,0-.81.23.74.74,0,0,0-.3.62.77.77,0,0,0,.3.64,1.55,1.55,0,0,0,1.64,0ZM70,104.07a.68.68,0,0,0-.25.56.63.63,0,0,0,.25.53,1,1,0,0,0,.67.2,1,1,0,0,0,.68-.2.61.61,0,0,0,.26-.53.66.66,0,0,0-.26-.56,1.24,1.24,0,0,0-1.35,0Z"/><path class="cls-4" d="M74.13,108.77a.81.81,0,0,1-.24-.6.78.78,0,0,1,.24-.59.82.82,0,0,1,.59-.23.84.84,0,0,1,.59.23.78.78,0,0,1,.24.59.82.82,0,0,1-.83.84A.79.79,0,0,1,74.13,108.77Z"/><path class="cls-4" d="M80.24,103.62a3.15,3.15,0,0,1,.71,2.2,3.8,3.8,0,0,1-.38,1.75,2.61,2.61,0,0,1-1.08,1.1,3.28,3.28,0,0,1-1.59.38,3.93,3.93,0,0,1-.92-.11,2.39,2.39,0,0,1-.74-.3l.51-1a1.92,1.92,0,0,0,1.12.3,1.63,1.63,0,0,0,1.21-.45,1.89,1.89,0,0,0,.47-1.3,2,2,0,0,1-1.48.54,2.28,2.28,0,0,1-1-.23,1.75,1.75,0,0,1-1-1.63,1.92,1.92,0,0,1,.29-1,2,2,0,0,1,.82-.7,2.72,2.72,0,0,1,1.15-.24A2.56,2.56,0,0,1,80.24,103.62Zm-1.13,1.81a.84.84,0,0,0,.29-.65.8.8,0,0,0-.28-.64,1.07,1.07,0,0,0-.76-.25,1.09,1.09,0,0,0-.73.24.92.92,0,0,0,0,1.3,1.07,1.07,0,0,0,.74.25A1.1,1.1,0,0,0,79.11,105.43Z"/><path class="cls-4" d="M81.93,105.74a1.92,1.92,0,0,1,0-2.4,1.37,1.37,0,0,1,1.07-.45,1.39,1.39,0,0,1,1.07.45,2,2,0,0,1,0,2.4,1.39,1.39,0,0,1-1.07.45A1.37,1.37,0,0,1,81.93,105.74Zm1.53-.49a1.66,1.66,0,0,0,0-1.42.55.55,0,0,0-.46-.24.51.51,0,0,0-.45.25,1.15,1.15,0,0,0-.18.7,1.2,1.2,0,0,0,.18.71.52.52,0,0,0,.45.24A.55.55,0,0,0,83.46,105.25Zm3.1-2.29h1l-4.09,6h-1Zm-.27,5.85a1.34,1.34,0,0,1-.52-.58,2.09,2.09,0,0,1,0-1.74,1.4,1.4,0,0,1,.52-.58,1.52,1.52,0,0,1,.77-.2,1.37,1.37,0,0,1,1.07.45,1.92,1.92,0,0,1,0,2.4,1.37,1.37,0,0,1-1.07.45A1.52,1.52,0,0,1,86.29,108.81Zm1.23-.74a1.29,1.29,0,0,0,.16-.71,1.23,1.23,0,0,0-.16-.7.55.55,0,0,0-.91,0,1.18,1.18,0,0,0-.18.71,1.16,1.16,0,0,0,.18.71.52.52,0,0,0,.45.24A.54.54,0,0,0,87.52,108.07Z"/><path d="M107.08,232.3h-3.77v-.56l1.9-2.28a5.69,5.69,0,0,0,.69-1,1.54,1.54,0,0,0,.19-.74,1,1,0,0,0-.25-.69.87.87,0,0,0-.68-.27,1,1,0,0,0-.82.33,1.22,1.22,0,0,0-.28.82h-.8v0a1.62,1.62,0,0,1,.49-1.26,1.94,1.94,0,0,1,1.41-.51,1.77,1.77,0,0,1,1.28.45,1.54,1.54,0,0,1,.47,1.16,1.85,1.85,0,0,1-.27.94,9.17,9.17,0,0,1-.8,1.15l-1.54,1.8v0h2.77Z"/><path d="M111.83,230.15a2.41,2.41,0,0,1-.52,1.64,2,2,0,0,1-2.82,0,2.41,2.41,0,0,1-.53-1.64v-1.78a2.4,2.4,0,0,1,.53-1.63,1.76,1.76,0,0,1,1.4-.6,1.78,1.78,0,0,1,1.41.6,2.35,2.35,0,0,1,.53,1.63Zm-.82-2a1.71,1.71,0,0,0-.29-1,1.09,1.09,0,0,0-1.65,0,1.71,1.71,0,0,0-.28,1v2.12a1.65,1.65,0,0,0,.29,1,1,1,0,0,0,.82.39,1,1,0,0,0,.82-.39,1.63,1.63,0,0,0,.29-1Z"/><path d="M115.27,232.3h-.83V227l-1.32,0v-.64l2.15-.22Z"/><path d="M119.21,231.75a1.25,1.25,0,0,0,1-.41,1.71,1.71,0,0,0,.36-1.16v-.52a1.27,1.27,0,0,1-.5.45,1.41,1.41,0,0,1-.65.15,1.81,1.81,0,0,1-1.38-.54,2.46,2.46,0,0,1,0-3,1.69,1.69,0,0,1,1.31-.58,2,2,0,0,1,1.46.57,2.26,2.26,0,0,1,.55,1.61v1.85a2.17,2.17,0,0,1-.6,1.63,2.14,2.14,0,0,1-1.55.59,3,3,0,0,1-.66-.07,2.72,2.72,0,0,1-.63-.2l.13-.62a2.32,2.32,0,0,0,.54.19A2.83,2.83,0,0,0,119.21,231.75Zm.17-2.13a1.25,1.25,0,0,0,.72-.2,1.15,1.15,0,0,0,.43-.5v-.72a1.64,1.64,0,0,0-.3-1,1.08,1.08,0,0,0-.86-.37.9.9,0,0,0-.74.4,1.69,1.69,0,0,0-.3,1,1.72,1.72,0,0,0,.27,1A.91.91,0,0,0,119.38,229.62Z"/><rect class="cls-3" x="231.51" y="150.29" width="40.98" height="70.08"/><path d="M241.4,141.93v5.32h-1.23v-4.33h-1.06v-1Z"/><path d="M246.49,141.93v.8l-2,4.52h-1.34l1.91-4.31h-1.77v.86h-1.09v-1.87Z"/><path d="M246.84,147.1a.72.72,0,0,1-.21-.53.71.71,0,0,1,.21-.53.79.79,0,0,1,1,0,.71.71,0,0,1,.21.53.74.74,0,0,1-1.26.53Z"/><path d="M253,145a1.33,1.33,0,0,1,.21.74,1.41,1.41,0,0,1-.28.86,1.8,1.8,0,0,1-.79.57,3.11,3.11,0,0,1-1.18.2,3.07,3.07,0,0,1-1.18-.2,1.77,1.77,0,0,1-.78-.57,1.41,1.41,0,0,1-.28-.86,1.33,1.33,0,0,1,.21-.74,1.51,1.51,0,0,1,.6-.51,1.23,1.23,0,0,1-.62-1.1,1.3,1.3,0,0,1,.26-.8,1.58,1.58,0,0,1,.72-.53,3.11,3.11,0,0,1,2.14,0,1.61,1.61,0,0,1,.73.53,1.3,1.3,0,0,1,.26.8,1.35,1.35,0,0,1-.16.64,1.3,1.3,0,0,1-.47.46A1.48,1.48,0,0,1,253,145Zm-1.31,1.26a.71.71,0,0,0,0-1.11,1.15,1.15,0,0,0-.73-.21,1.1,1.1,0,0,0-.72.21.66.66,0,0,0-.27.55.68.68,0,0,0,.27.57,1.38,1.38,0,0,0,1.45,0Zm-1.33-3.3a.59.59,0,0,0-.22.49.58.58,0,0,0,.22.48,1,1,0,0,0,.6.17,1,1,0,0,0,.61-.17.58.58,0,0,0,.22-.48.59.59,0,0,0-.22-.49,1,1,0,0,0-.61-.18A.93.93,0,0,0,250.34,142.93Z"/><path d="M257.37,142.52a2.8,2.8,0,0,1,.63,2,3.38,3.38,0,0,1-.34,1.55,2.33,2.33,0,0,1-1,1,3,3,0,0,1-1.42.33,3.59,3.59,0,0,1-.81-.09,2,2,0,0,1-.66-.27l.46-.9a1.75,1.75,0,0,0,1,.26,1.42,1.42,0,0,0,1.07-.4,1.63,1.63,0,0,0,.43-1.15,1.78,1.78,0,0,1-1.32.48,2.18,2.18,0,0,1-.93-.2,1.62,1.62,0,0,1-.91-1.46,1.64,1.64,0,0,1,.27-.93,1.77,1.77,0,0,1,.73-.62,2.39,2.39,0,0,1,1-.22A2.29,2.29,0,0,1,257.37,142.52Zm-1,1.61a.79.79,0,0,0,0-1.15,1,1,0,0,0-.68-.22.92.92,0,0,0-.64.22.73.73,0,0,0-.25.57.77.77,0,0,0,.25.59,1,1,0,0,0,.66.21A1,1,0,0,0,256.37,144.13Z"/><path d="M258.87,144.41a1.73,1.73,0,0,1,0-2.14,1.33,1.33,0,0,1,1.9,0,1.77,1.77,0,0,1,0,2.14,1.33,1.33,0,0,1-1.9,0Zm1.36-.44a1.4,1.4,0,0,0,0-1.26.48.48,0,0,0-.41-.21.46.46,0,0,0-.4.21,1.4,1.4,0,0,0,0,1.26.46.46,0,0,0,.4.21A.48.48,0,0,0,260.23,144Zm2.76-2h.9l-3.63,5.32h-.9Zm-.24,5.21a1.19,1.19,0,0,1-.47-.52,1.71,1.71,0,0,1-.16-.77,1.75,1.75,0,0,1,.16-.78,1.22,1.22,0,0,1,.47-.51,1.3,1.3,0,0,1,.68-.18,1.21,1.21,0,0,1,.95.4,1.5,1.5,0,0,1,.37,1.07,1.52,1.52,0,0,1-.37,1.07,1.24,1.24,0,0,1-.95.39A1.3,1.3,0,0,1,262.75,147.14Zm1.09-.67a1.16,1.16,0,0,0,.14-.62,1.2,1.2,0,0,0-.14-.63.48.48,0,0,0-.41-.21.46.46,0,0,0-.4.21,1.4,1.4,0,0,0,0,1.26.49.49,0,0,0,.81,0Z"/><path d="M246.78,232.3H243v-.56l1.9-2.28a6.55,6.55,0,0,0,.7-1,1.65,1.65,0,0,0,.18-.74,1,1,0,0,0-.25-.69.87.87,0,0,0-.68-.27,1,1,0,0,0-.82.33,1.22,1.22,0,0,0-.28.82H243v0a1.62,1.62,0,0,1,.49-1.26,1.94,1.94,0,0,1,1.41-.51,1.77,1.77,0,0,1,1.28.45,1.54,1.54,0,0,1,.47,1.16,1.85,1.85,0,0,1-.27.94,9.17,9.17,0,0,1-.8,1.15l-1.53,1.8v0h2.77Z"/><path d="M251.53,230.15a2.41,2.41,0,0,1-.52,1.64,2,2,0,0,1-2.82,0,2.41,2.41,0,0,1-.52-1.64v-1.78a2.4,2.4,0,0,1,.52-1.63,1.77,1.77,0,0,1,1.4-.6,1.81,1.81,0,0,1,1.42.6,2.4,2.4,0,0,1,.52,1.63Zm-.82-2a1.71,1.71,0,0,0-.29-1,1,1,0,0,0-.83-.38,1,1,0,0,0-.81.38,1.65,1.65,0,0,0-.29,1v2.12a1.71,1.71,0,0,0,.29,1,1,1,0,0,0,.82.39,1,1,0,0,0,.82-.39,1.63,1.63,0,0,0,.29-1Z"/><path d="M256.41,232.3h-3.78v-.56l1.91-2.28a5.69,5.69,0,0,0,.69-1,1.65,1.65,0,0,0,.18-.74,1,1,0,0,0-.24-.69.9.9,0,0,0-.68-.27,1,1,0,0,0-.82.33,1.23,1.23,0,0,0-.29.82h-.79v0a1.63,1.63,0,0,1,.5-1.26,1.91,1.91,0,0,1,1.41-.51,1.77,1.77,0,0,1,1.28.45,1.53,1.53,0,0,1,.46,1.16,1.83,1.83,0,0,1-.26.94,10.7,10.7,0,0,1-.81,1.15l-1.53,1.8v0h2.77Z"/><path d="M261.16,230.15a2.46,2.46,0,0,1-.52,1.64,2,2,0,0,1-2.82,0,2.41,2.41,0,0,1-.53-1.64v-1.78a2.45,2.45,0,0,1,.52-1.63,2,2,0,0,1,2.82,0,2.4,2.4,0,0,1,.53,1.63Zm-.82-2a1.71,1.71,0,0,0-.29-1,1,1,0,0,0-.83-.38,1,1,0,0,0-.82.38,1.71,1.71,0,0,0-.29,1v2.12a1.65,1.65,0,0,0,.3,1,1.06,1.06,0,0,0,1.64,0,1.69,1.69,0,0,0,.29-1Z"/><rect class="cls-3" x="366.93" y="181.64" width="40.98" height="38.73"/><path d="M377.15,173.47v5.32h-1.23v-4.33h-1.07v-1Z"/><path d="M382.24,173.47v.8l-2,4.52h-1.33l1.9-4.32h-1.76v.87H378v-1.87Z"/><path d="M382.59,178.64a.75.75,0,0,1-.21-.54.69.69,0,0,1,.21-.52.69.69,0,0,1,.52-.2.73.73,0,0,1,.53.2.69.69,0,0,1,.21.52.72.72,0,0,1-.74.75A.7.7,0,0,1,382.59,178.64Z"/><path d="M388,176.16a1.45,1.45,0,0,1,.37,1,1.54,1.54,0,0,1-.25.86,1.59,1.59,0,0,1-.74.62,2.79,2.79,0,0,1-1.22.24,4.11,4.11,0,0,1-1.1-.15,2.89,2.89,0,0,1-.92-.42l.47-.94a2.35,2.35,0,0,0,.71.35,2.75,2.75,0,0,0,.81.13,1.27,1.27,0,0,0,.73-.18.58.58,0,0,0,.27-.51c0-.43-.33-.65-1-.65h-.56v-.81l1.1-1.24h-2.27v-1h3.72v.8l-1.2,1.37A1.78,1.78,0,0,1,388,176.16Z"/><path d="M392.47,175.66a1.68,1.68,0,0,1,.66.58,1.58,1.58,0,0,1,.24.87,1.62,1.62,0,0,1-.27.93,1.68,1.68,0,0,1-.72.62,2.31,2.31,0,0,1-1,.22,2.27,2.27,0,0,1-1.75-.68,2.8,2.8,0,0,1-.63-2,3.25,3.25,0,0,1,.34-1.55,2.36,2.36,0,0,1,.95-1,3,3,0,0,1,1.42-.33,3.68,3.68,0,0,1,.82.09,2.52,2.52,0,0,1,.66.27l-.45.91a1.76,1.76,0,0,0-1-.27,1.42,1.42,0,0,0-1.07.4,1.6,1.6,0,0,0-.43,1.14,1.82,1.82,0,0,1,1.32-.47A2.05,2.05,0,0,1,392.47,175.66Zm-.54,2.09a.8.8,0,0,0,0-1.16.94.94,0,0,0-.66-.22,1,1,0,0,0-.66.23.73.73,0,0,0-.26.57.76.76,0,0,0,.25.57,1,1,0,0,0,.69.22A1,1,0,0,0,391.93,177.75Z"/><path d="M393.94,175.94a1.72,1.72,0,0,1,0-2.13,1.25,1.25,0,0,1,1-.4,1.22,1.22,0,0,1,1,.4,1.76,1.76,0,0,1,0,2.13,1.22,1.22,0,0,1-1,.4A1.25,1.25,0,0,1,393.94,175.94Zm1.36-.43a1.13,1.13,0,0,0,.15-.63,1.14,1.14,0,0,0-.15-.64.49.49,0,0,0-.81,0,1.08,1.08,0,0,0-.15.63,1.07,1.07,0,0,0,.15.62.49.49,0,0,0,.81,0Zm2.77-2h.9l-3.63,5.32h-.91Zm-.24,5.2a1.22,1.22,0,0,1-.47-.51,1.76,1.76,0,0,1-.17-.78,1.71,1.71,0,0,1,.17-.77,1.25,1.25,0,0,1,.47-.52,1.37,1.37,0,0,1,.68-.17,1.25,1.25,0,0,1,.95.39,1.52,1.52,0,0,1,.37,1.07,1.5,1.5,0,0,1-.37,1.07,1.22,1.22,0,0,1-.95.4A1.28,1.28,0,0,1,397.83,178.67Zm1.08-.66a1.08,1.08,0,0,0,.15-.63,1.07,1.07,0,0,0-.15-.62.45.45,0,0,0-.4-.22.48.48,0,0,0-.41.21,1.4,1.4,0,0,0,0,1.26.47.47,0,0,0,.41.22A.47.47,0,0,0,398.91,178Z"/><path d="M382.19,232.3h-3.77v-.56l1.91-2.28a5.69,5.69,0,0,0,.69-1,1.65,1.65,0,0,0,.18-.74,1,1,0,0,0-.25-.69.87.87,0,0,0-.68-.27,1,1,0,0,0-.82.33,1.22,1.22,0,0,0-.28.82h-.79v0a1.62,1.62,0,0,1,.49-1.26,1.94,1.94,0,0,1,1.41-.51,1.77,1.77,0,0,1,1.28.45,1.54,1.54,0,0,1,.47,1.16,1.93,1.93,0,0,1-.26.94,10.7,10.7,0,0,1-.81,1.15l-1.53,1.8v0h2.77Z"/><path d="M387,230.15a2.41,2.41,0,0,1-.53,1.64,1.78,1.78,0,0,1-1.41.6,1.81,1.81,0,0,1-1.41-.6,2.41,2.41,0,0,1-.52-1.64v-1.78a2.4,2.4,0,0,1,.52-1.63,2,2,0,0,1,2.82,0,2.4,2.4,0,0,1,.53,1.63Zm-.83-2a1.65,1.65,0,0,0-.29-1,1,1,0,0,0-.82-.38,1,1,0,0,0-.82.38,1.65,1.65,0,0,0-.29,1v2.12a1.71,1.71,0,0,0,.29,1,1.07,1.07,0,0,0,1.65,0,1.69,1.69,0,0,0,.28-1Z"/><path d="M391.82,232.3H388v-.56l1.91-2.28a5.69,5.69,0,0,0,.69-1,1.65,1.65,0,0,0,.18-.74,1,1,0,0,0-.24-.69.88.88,0,0,0-.68-.27,1,1,0,0,0-.82.33,1.23,1.23,0,0,0-.29.82H388v0a1.63,1.63,0,0,1,.5-1.26,1.92,1.92,0,0,1,1.41-.51,1.77,1.77,0,0,1,1.28.45,1.54,1.54,0,0,1,.47,1.16,1.85,1.85,0,0,1-.27.94,10.7,10.7,0,0,1-.81,1.15l-1.53,1.8v0h2.77Z"/><path d="M395.19,232.3h-.82V227L393,227v-.64l2.15-.22Z"/><path class="cls-3" d="M98,251.46l1.08-1.07h0l4.11-4.12-4.11-4.11h0L98,241.09l-5.19,5.18Zm-3.8-5.9.72.71-.72.72-.72-.72ZM101.8,247l-.72-.72.72-.71.71.71Zm-3.07,3.06h0l-.74.74-1.67-1.67,1.34-1.35-1.39-1.39-1,1,.69.69.34-.33-.36-.36.33-.34.72.72-1,1-1.46-1.46,1.06-1-1.06-1.05L96,243.77l1,1-.72.71-.33-.33.36-.36-.34-.34-.69.7,1,1,1.39-1.38-1.34-1.35.93-.94h0l.74-.73.74.73h0l.94.94-1.35,1.35,1.39,1.38,1-1-.7-.7-.33.34.36.36-.34.33-.72-.71,1-1,1.46,1.45-1,1.05,1,1L100,248.78l-1-1,.72-.72.34.34-.36.36.33.33.7-.69-1-1-1.39,1.39,1.35,1.35Z"/><rect class="cls-3" x="97.18" y="248.28" width="1.63" height="1.63" transform="translate(343.42 355.94) rotate(135)"/><rect class="cls-3" x="97.18" y="242.6" width="1.63" height="1.63" transform="translate(339.41 346.25) rotate(135)"/><path d="M113.62,243.26h-2v5.44h-.83v-5.44h-2v-.64h4.81Z"/><path d="M115.19,244.78a1.74,1.74,0,0,1,.58-.5,1.54,1.54,0,0,1,.75-.18,1.43,1.43,0,0,1,1.12.43,1.9,1.9,0,0,1,.41,1.34v2.83h-.82v-2.84A1.21,1.21,0,0,0,117,245a.91.91,0,0,0-.72-.27,1.29,1.29,0,0,0-.64.15,1.13,1.13,0,0,0-.44.4v3.39h-.82v-6.52h.82Z"/><path d="M121.1,248.78a1.89,1.89,0,0,1-1.52-.62,2.4,2.4,0,0,1-.54-1.64v-.18a2.32,2.32,0,0,1,.56-1.61,1.76,1.76,0,0,1,1.37-.63,1.63,1.63,0,0,1,1.36.56,2.33,2.33,0,0,1,.45,1.5v.43h-2.89v0a1.89,1.89,0,0,0,.3,1.11,1.06,1.06,0,0,0,.92.42,2,2,0,0,0,.73-.12,1.63,1.63,0,0,0,.54-.33l.32.54a1.88,1.88,0,0,1-.64.39A2.45,2.45,0,0,1,121.1,248.78Zm-.13-4a.89.89,0,0,0-.71.33,1.67,1.67,0,0,0-.35.85v0h2v-.06a1.35,1.35,0,0,0-.24-.82A.9.9,0,0,0,121,244.74Z"/><path d="M126.56,244.18l.06.67a1.69,1.69,0,0,1,.57-.56,1.7,1.7,0,0,1,1.9.23,1.88,1.88,0,0,1,.4,1.32v2.86h-.82v-2.84a1.22,1.22,0,0,0-.24-.85,1,1,0,0,0-.72-.25,1.19,1.19,0,0,0-.64.16,1.06,1.06,0,0,0-.42.42v3.36h-.82v-4.52Z"/><path d="M130.49,246.4a2.49,2.49,0,0,1,.55-1.65,1.79,1.79,0,0,1,1.47-.65,1.82,1.82,0,0,1,1.48.64,2.45,2.45,0,0,1,.55,1.66v.09a2.48,2.48,0,0,1-.54,1.65,1.85,1.85,0,0,1-1.48.64,1.82,1.82,0,0,1-1.48-.64,2.49,2.49,0,0,1-.55-1.65Zm.83.09a2.13,2.13,0,0,0,.3,1.18,1.09,1.09,0,0,0,1.79,0,2.13,2.13,0,0,0,.31-1.18v-.09a2.19,2.19,0,0,0-.31-1.19,1.09,1.09,0,0,0-1.79,0,2.19,2.19,0,0,0-.3,1.19Z"/><path d="M136.28,244.18l.06.67a1.76,1.76,0,0,1,.56-.56,1.55,1.55,0,0,1,.78-.19,1.5,1.5,0,0,1,1.13.42,1.88,1.88,0,0,1,.4,1.32v2.86h-.82v-2.84a1.22,1.22,0,0,0-.24-.85,1,1,0,0,0-.72-.25,1.17,1.17,0,0,0-.64.16,1.06,1.06,0,0,0-.42.42v3.36h-.83v-4.52Z"/><path d="M143,246.45H140.5v-.64H143Z"/><path d="M144.06,246.4a2.49,2.49,0,0,1,.55-1.65,1.79,1.79,0,0,1,1.47-.65,1.82,1.82,0,0,1,1.48.64,2.45,2.45,0,0,1,.55,1.66v.09a2.48,2.48,0,0,1-.54,1.65,2,2,0,0,1-3,0,2.49,2.49,0,0,1-.55-1.65Zm.83.09a2.13,2.13,0,0,0,.3,1.18,1.09,1.09,0,0,0,1.79,0,2.13,2.13,0,0,0,.31-1.18v-.09a2.19,2.19,0,0,0-.31-1.19,1.09,1.09,0,0,0-1.79,0,2.19,2.19,0,0,0-.3,1.19Z"/><path d="M150,243h-.82v-.84H150Zm0,5.68h-.82v-4.52H150Z"/><path d="M152.16,248.7h-.82v-6.52h.82Z"/><path d="M158.32,248.7a3.12,3.12,0,0,1-.06-.37,1.55,1.55,0,0,1,0-.31,1.74,1.74,0,0,1-.6.54,1.68,1.68,0,0,1-1.87-.14,1.3,1.3,0,0,1-.37-1,1.19,1.19,0,0,1,.53-1,2.45,2.45,0,0,1,1.42-.36h.89v-.45A.85.85,0,0,0,158,245a1,1,0,0,0-.69-.23,1,1,0,0,0-.64.2.61.61,0,0,0-.25.48h-.78v0a1.09,1.09,0,0,1,.46-.9,2.17,2.17,0,0,1,2.51,0,1.37,1.37,0,0,1,.46,1.12v2.18a3.44,3.44,0,0,0,0,.46,2.39,2.39,0,0,0,.09.45Zm-1.36-.61a1.39,1.39,0,0,0,.8-.23,1,1,0,0,0,.47-.52v-.74h-.92a1.25,1.25,0,0,0-.8.25.76.76,0,0,0-.3.59.66.66,0,0,0,.19.48A.78.78,0,0,0,157,248.09Z"/><path d="M161,244.18l.06.67a1.76,1.76,0,0,1,.56-.56,1.55,1.55,0,0,1,.78-.19,1.49,1.49,0,0,1,1.13.42,1.88,1.88,0,0,1,.4,1.32v2.86h-.82v-2.84a1.22,1.22,0,0,0-.24-.85,1,1,0,0,0-.72-.25,1.19,1.19,0,0,0-.64.16,1.06,1.06,0,0,0-.42.42v3.36h-.82v-4.52Z"/><path d="M164.92,246.52a3,3,0,0,1,.46-1.76,1.51,1.51,0,0,1,1.31-.66,1.56,1.56,0,0,1,.7.14,1.43,1.43,0,0,1,.52.43v-2.49h.83v6.52h-.63l-.13-.58a1.46,1.46,0,0,1-.55.5,1.6,1.6,0,0,1-.75.16,1.57,1.57,0,0,1-1.3-.6,2.46,2.46,0,0,1-.46-1.57Zm.82.09a1.88,1.88,0,0,0,.28,1.09,1,1,0,0,0,.87.42,1.13,1.13,0,0,0,.62-.17,1.24,1.24,0,0,0,.4-.47v-2.11a1.24,1.24,0,0,0-.41-.44,1.08,1.08,0,0,0-.6-.17,1,1,0,0,0-.88.49,2.52,2.52,0,0,0-.28,1.27Z"/><path d="M171.94,246.52a3,3,0,0,1,.47-1.76,1.65,1.65,0,0,1,2.05-.49,1.54,1.54,0,0,1,.55.5l.1-.59h.65v4.54a1.7,1.7,0,0,1-.5,1.33,2.08,2.08,0,0,1-1.46.47,3.05,3.05,0,0,1-.7-.09,3.1,3.1,0,0,1-.67-.24l.13-.64a2.53,2.53,0,0,0,.57.2,3.13,3.13,0,0,0,.66.08,1.16,1.16,0,0,0,.88-.28,1.14,1.14,0,0,0,.27-.83v-.51a1.38,1.38,0,0,1-.53.43,1.73,1.73,0,0,1-.71.14,1.54,1.54,0,0,1-1.29-.6,2.47,2.47,0,0,1-.47-1.57Zm.82.09a2,2,0,0,0,.28,1.09,1,1,0,0,0,.87.42,1.13,1.13,0,0,0,.62-.17,1.38,1.38,0,0,0,.41-.48v-2.08a1.3,1.3,0,0,0-.41-.46,1.12,1.12,0,0,0-.61-.17.93.93,0,0,0-.87.49,2.51,2.51,0,0,0-.29,1.27Z"/><path d="M179.72,248.7a3.12,3.12,0,0,1-.06-.37,1.55,1.55,0,0,1,0-.31,1.74,1.74,0,0,1-.6.54,1.5,1.5,0,0,1-.79.22,1.48,1.48,0,0,1-1.08-.36,1.3,1.3,0,0,1-.37-1,1.21,1.21,0,0,1,.52-1,2.5,2.5,0,0,1,1.43-.36h.89v-.45a.85.85,0,0,0-.24-.63,1,1,0,0,0-.69-.23,1,1,0,0,0-.64.2.61.61,0,0,0-.25.48H177v0a1.09,1.09,0,0,1,.46-.9,1.88,1.88,0,0,1,1.27-.41,1.85,1.85,0,0,1,1.23.39,1.35,1.35,0,0,1,.47,1.12v2.18a3.44,3.44,0,0,0,0,.46,1.8,1.8,0,0,0,.09.45Zm-1.36-.61a1.41,1.41,0,0,0,.8-.23,1,1,0,0,0,.47-.52v-.74h-.92a1.25,1.25,0,0,0-.8.25.76.76,0,0,0-.3.59.66.66,0,0,0,.19.48A.78.78,0,0,0,178.36,248.09Z"/><path d="M184.27,247.48a.54.54,0,0,0-.21-.44,1.73,1.73,0,0,0-.78-.3,3.44,3.44,0,0,1-1.22-.48,1,1,0,0,1-.43-.83,1.19,1.19,0,0,1,.47-.94,1.84,1.84,0,0,1,1.22-.39,1.8,1.8,0,0,1,1.24.41,1.18,1.18,0,0,1,.45,1v0h-.79A.69.69,0,0,0,184,245a.89.89,0,0,0-.64-.24.94.94,0,0,0-.65.2.6.6,0,0,0-.22.47.49.49,0,0,0,.19.41,2,2,0,0,0,.76.27,3.12,3.12,0,0,1,1.26.49,1,1,0,0,1,.43.84,1.19,1.19,0,0,1-.48,1,2,2,0,0,1-1.27.38,1.94,1.94,0,0,1-1.36-.44,1.24,1.24,0,0,1-.48-1v0h.79a.76.76,0,0,0,.32.64,1.32,1.32,0,0,0,.72.2A1.06,1.06,0,0,0,184,248,.55.55,0,0,0,184.27,247.48Z"/><path d="M189,244.18l.06.59a1.67,1.67,0,0,1,.56-.5,1.71,1.71,0,0,1,.8-.17,1.47,1.47,0,0,1,.77.2,1.26,1.26,0,0,1,.49.63,1.65,1.65,0,0,1,.56-.61,1.48,1.48,0,0,1,.82-.22,1.34,1.34,0,0,1,1.09.47,2.22,2.22,0,0,1,.4,1.43v2.7h-.82V246a1.54,1.54,0,0,0-.23-1,.87.87,0,0,0-.69-.28.85.85,0,0,0-.68.3,1.28,1.28,0,0,0-.31.73v2.91H191V246a1.44,1.44,0,0,0-.24-.93.81.81,0,0,0-.68-.3,1.19,1.19,0,0,0-.62.16,1,1,0,0,0-.37.43v3.35h-.82v-4.52Z"/><path d="M198.49,248.7c0-.14-.05-.26-.07-.37a3,3,0,0,1,0-.31,1.94,1.94,0,0,1-.6.54,1.51,1.51,0,0,1-.8.22,1.46,1.46,0,0,1-1.07-.36,1.3,1.3,0,0,1-.37-1,1.18,1.18,0,0,1,.52-1,2.47,2.47,0,0,1,1.42-.36h.9v-.45a.82.82,0,0,0-.25-.63,1,1,0,0,0-.68-.23,1,1,0,0,0-.65.2.63.63,0,0,0-.24.48h-.78v0a1.06,1.06,0,0,1,.46-.9,1.88,1.88,0,0,1,1.27-.41,1.85,1.85,0,0,1,1.23.39,1.38,1.38,0,0,1,.47,1.12v2.18c0,.16,0,.31,0,.46a2.42,2.42,0,0,0,.1.45Zm-1.37-.61a1.42,1.42,0,0,0,.81-.23,1.1,1.1,0,0,0,.47-.52v-.74h-.93a1.22,1.22,0,0,0-.79.25.76.76,0,0,0-.3.59.62.62,0,0,0,.19.48A.76.76,0,0,0,197.12,248.09Z"/><path d="M201.15,244.18l.06.67a1.67,1.67,0,0,1,.56-.56,1.55,1.55,0,0,1,.78-.19,1.5,1.5,0,0,1,1.13.42,1.93,1.93,0,0,1,.4,1.32v2.86h-.82v-2.84A1.22,1.22,0,0,0,203,245a1,1,0,0,0-.72-.25,1.23,1.23,0,0,0-.65.16,1.21,1.21,0,0,0-.42.42v3.36h-.82v-4.52Z"/><path d="M208.14,248a1.56,1.56,0,0,1-.55.56,1.49,1.49,0,0,1-.77.19,1.42,1.42,0,0,1-1.15-.47,2.15,2.15,0,0,1-.42-1.47v-2.66h.83v2.67a1.69,1.69,0,0,0,.21,1,.79.79,0,0,0,.66.28,1.34,1.34,0,0,0,.73-.18,1.14,1.14,0,0,0,.43-.51v-3.25h.82v4.52h-.74Z"/><path d="M210.47,248.7v-3.91h-.7v-.61h.7v-.57a1.57,1.57,0,0,1,.38-1.12,1.39,1.39,0,0,1,1.05-.39,1.42,1.42,0,0,1,.29,0l.32.06-.1.63-.18,0H212a.65.65,0,0,0-.53.21,1,1,0,0,0-.18.63v.57h.82v.61h-.82v3.91Z"/><path d="M215.72,248.7c0-.14-.05-.26-.07-.37a3,3,0,0,1,0-.31,1.94,1.94,0,0,1-.6.54,1.51,1.51,0,0,1-.8.22,1.46,1.46,0,0,1-1.07-.36,1.3,1.3,0,0,1-.37-1,1.18,1.18,0,0,1,.52-1,2.47,2.47,0,0,1,1.42-.36h.9v-.45a.82.82,0,0,0-.25-.63,1,1,0,0,0-.68-.23,1,1,0,0,0-.65.2.63.63,0,0,0-.24.48H213v0a1.06,1.06,0,0,1,.46-.9,2.15,2.15,0,0,1,2.5,0,1.38,1.38,0,0,1,.47,1.12v2.18c0,.16,0,.31,0,.46a3.58,3.58,0,0,0,.09.45Zm-1.37-.61a1.42,1.42,0,0,0,.81-.23,1.1,1.1,0,0,0,.47-.52v-.74h-.93a1.22,1.22,0,0,0-.79.25.76.76,0,0,0-.3.59.62.62,0,0,0,.19.48A.76.76,0,0,0,214.35,248.09Z"/><path d="M219.44,248.14a1,1,0,0,0,.66-.25.8.8,0,0,0,.28-.62h.75v0a1.32,1.32,0,0,1-.5,1,1.79,1.79,0,0,1-1.2.45,1.76,1.76,0,0,1-1.47-.64,2.48,2.48,0,0,1-.52-1.62v-.17a2.44,2.44,0,0,1,.52-1.6,1.75,1.75,0,0,1,1.47-.65,1.69,1.69,0,0,1,1.23.46,1.48,1.48,0,0,1,.47,1.15v0h-.75a1.05,1.05,0,0,0-.26-.71.91.91,0,0,0-.68-.29,1,1,0,0,0-.89.47,2.26,2.26,0,0,0-.27,1.14v.17a2.25,2.25,0,0,0,.27,1.15A1,1,0,0,0,219.44,248.14Z"/><path d="M223.26,243.09v1.09h.86v.61h-.86v2.74a.62.62,0,0,0,.13.45.52.52,0,0,0,.35.13l.16,0,.15,0,.11.56a.85.85,0,0,1-.27.13,1.47,1.47,0,0,1-.36,0,1.09,1.09,0,0,1-.8-.3,1.35,1.35,0,0,1-.29-.95v-2.74h-.72v-.61h.72v-1.09Z"/><path d="M227.86,248a1.42,1.42,0,0,1-1.31.75,1.45,1.45,0,0,1-1.16-.47,2.21,2.21,0,0,1-.41-1.47v-2.66h.82v2.67a1.69,1.69,0,0,0,.21,1,.82.82,0,0,0,.67.28,1.33,1.33,0,0,0,.72-.18,1.16,1.16,0,0,0,.44-.51v-3.25h.82v4.52h-.74Z"/><path d="M232,244.91l-.42,0a.9.9,0,0,0-.55.16.92.92,0,0,0-.34.43v3.23h-.83v-4.52h.74l.08.66a1.51,1.51,0,0,1,.47-.55,1.13,1.13,0,0,1,.65-.19H232l.13,0Z"/><path d="M233.74,243h-.82v-.84h.82Zm0,5.68h-.82v-4.52h.82Z"/><path d="M235.74,244.18l0,.67a1.69,1.69,0,0,1,.57-.56,1.72,1.72,0,0,1,1.91.23,1.93,1.93,0,0,1,.4,1.32v2.86h-.83v-2.84a1.27,1.27,0,0,0-.23-.85,1,1,0,0,0-.72-.25,1.18,1.18,0,0,0-1.07.58v3.36H235v-4.52Z"/><path d="M239.71,246.52a3,3,0,0,1,.47-1.76,1.65,1.65,0,0,1,2-.49,1.54,1.54,0,0,1,.55.5l.1-.59h.66v4.54a1.7,1.7,0,0,1-.51,1.33,2.06,2.06,0,0,1-1.45.47,3.07,3.07,0,0,1-.71-.09,2.83,2.83,0,0,1-.66-.24l.12-.64a2.45,2.45,0,0,0,.58.2,3,3,0,0,0,.66.08,1.15,1.15,0,0,0,.87-.28,1.14,1.14,0,0,0,.28-.83v-.51a1.49,1.49,0,0,1-.54.43,1.73,1.73,0,0,1-.71.14,1.54,1.54,0,0,1-1.29-.6,2.47,2.47,0,0,1-.47-1.57Zm.83.09a1.88,1.88,0,0,0,.28,1.09,1,1,0,0,0,.86.42,1.1,1.1,0,0,0,.62-.17,1.4,1.4,0,0,0,.42-.48v-2.08a1.43,1.43,0,0,0-.42-.46,1.09,1.09,0,0,0-.61-.17,1,1,0,0,0-.87.49,2.52,2.52,0,0,0-.28,1.27Z"/><path d="M249.47,247.48a.54.54,0,0,0-.21-.44,1.84,1.84,0,0,0-.78-.3,3.58,3.58,0,0,1-1.23-.48,1,1,0,0,1-.42-.83,1.16,1.16,0,0,1,.47-.94,2.09,2.09,0,0,1,2.46,0,1.21,1.21,0,0,1,.45,1v0h-.78a.73.73,0,0,0-.26-.53.92.92,0,0,0-.65-.24,1,1,0,0,0-.65.2.62.62,0,0,0-.21.47.51.51,0,0,0,.18.41,2,2,0,0,0,.77.27,3.24,3.24,0,0,1,1.26.49,1,1,0,0,1,.43.84,1.17,1.17,0,0,1-.49,1,2.32,2.32,0,0,1-2.63-.06,1.23,1.23,0,0,1-.47-1v0h.78a.8.8,0,0,0,.33.64,1.28,1.28,0,0,0,.71.2,1.09,1.09,0,0,0,.69-.19A.55.55,0,0,0,249.47,247.48Z"/><path d="M253.18,248.78a1.88,1.88,0,0,1-1.51-.62,2.36,2.36,0,0,1-.55-1.64v-.18a2.37,2.37,0,0,1,.56-1.61,1.77,1.77,0,0,1,1.37-.63,1.62,1.62,0,0,1,1.36.56,2.28,2.28,0,0,1,.46,1.5v.43H252v0a1.89,1.89,0,0,0,.3,1.11,1,1,0,0,0,.91.42,2.09,2.09,0,0,0,.74-.12,1.63,1.63,0,0,0,.54-.33l.32.54a2,2,0,0,1-.64.39A2.47,2.47,0,0,1,253.18,248.78Zm-.13-4a.91.91,0,0,0-.71.33,1.58,1.58,0,0,0-.34.85v0h2v-.06a1.35,1.35,0,0,0-.24-.82A.89.89,0,0,0,253.05,244.74Z"/><path d="M257.58,248.14a1,1,0,0,0,.67-.25.84.84,0,0,0,.28-.62h.74l0,0a1.3,1.3,0,0,1-.51,1,1.76,1.76,0,0,1-1.2.45,1.79,1.79,0,0,1-1.47-.64,2.53,2.53,0,0,1-.51-1.62v-.17a2.44,2.44,0,0,1,.52-1.6,1.73,1.73,0,0,1,1.46-.65,1.7,1.7,0,0,1,1.24.46,1.52,1.52,0,0,1,.47,1.15v0h-.75a1,1,0,0,0-.27-.71.91.91,0,0,0-.68-.29,1,1,0,0,0-.88.47,2.17,2.17,0,0,0-.28,1.14v.17a2.15,2.15,0,0,0,.28,1.15A.94.94,0,0,0,257.58,248.14Z"/><path d="M261.41,243.09v1.09h.85v.61h-.85v2.74a.62.62,0,0,0,.13.45.5.5,0,0,0,.35.13l.15,0,.15,0,.11.56a.85.85,0,0,1-.27.13,1.45,1.45,0,0,1-.35,0,1.07,1.07,0,0,1-.8-.3,1.3,1.3,0,0,1-.3-.95v-2.74h-.71v-.61h.71v-1.09Z"/><path d="M263,246.4a2.48,2.48,0,0,1,.54-1.65,1.81,1.81,0,0,1,1.48-.65,1.83,1.83,0,0,1,1.48.64,2.49,2.49,0,0,1,.54,1.66v.09a2.48,2.48,0,0,1-.54,1.65,1.82,1.82,0,0,1-1.48.64,1.85,1.85,0,0,1-1.48-.64,2.48,2.48,0,0,1-.54-1.65Zm.82.09a2.13,2.13,0,0,0,.3,1.18,1,1,0,0,0,.9.47,1,1,0,0,0,.9-.47,2.13,2.13,0,0,0,.3-1.18v-.09a2.19,2.19,0,0,0-.3-1.19,1,1,0,0,0-.9-.47,1,1,0,0,0-.9.47,2.19,2.19,0,0,0-.3,1.19Z"/><path d="M270.14,244.91l-.42,0a.9.9,0,0,0-.55.16.94.94,0,0,0-.35.43v3.23H268v-4.52h.73l.08.66a1.53,1.53,0,0,1,.48-.55,1.11,1.11,0,0,1,.65-.19h.17l.14,0Z"/><line class="cls-5" x1="91.81" y1="106.45" x2="407.91" y2="106.45"/><line class="cls-5" x1="285.57" y1="246.27" x2="307.23" y2="246.27"/><path d="M316.23,246.06v2.64h-.82v-6.08h2.08a2.33,2.33,0,0,1,1.52.44,1.61,1.61,0,0,1,.53,1.29,1.39,1.39,0,0,1-.25.81,1.62,1.62,0,0,1-.71.56,1.24,1.24,0,0,1,.72.52,1.73,1.73,0,0,1,.22.91v.57a2,2,0,0,0,.06.51.73.73,0,0,0,.22.36v.11H319a.7.7,0,0,1-.21-.42,3.56,3.56,0,0,1,0-.57v-.55a1.12,1.12,0,0,0-.29-.8,1,1,0,0,0-.77-.3Zm0-.64h1.17a1.53,1.53,0,0,0,1-.27,1,1,0,0,0,.3-.81,1,1,0,0,0-.29-.79,1.31,1.31,0,0,0-.93-.29h-1.26Z"/><path d="M321.67,246.26v2.44h-.82v-6.08h2.32a2.15,2.15,0,0,1,1.51.5,1.88,1.88,0,0,1,0,2.64,2.15,2.15,0,0,1-1.51.5Zm0-.64h1.5a1.19,1.19,0,0,0,.92-.34,1.16,1.16,0,0,0,.31-.83,1.2,1.2,0,0,0-.31-.85,1.19,1.19,0,0,0-.92-.34h-1.5Z"/><path d="M328.74,242.62h.82v4.31a1.79,1.79,0,0,1-.51,1.35,1.83,1.83,0,0,1-1.34.5,1.88,1.88,0,0,1-1.33-.44,1.61,1.61,0,0,1-.48-1.29v0h.79a1.19,1.19,0,0,0,.26.84,1,1,0,0,0,.75.28.94.94,0,0,0,.74-.33,1.3,1.3,0,0,0,.29-.88Z"/><path d="M334,247.56h0l1.94-4.94h1v6.08h-.82v-4.56h0l-1.84,4.56h-.57L331.82,244h0v4.71H331v-6.08h1.08Z"/><path d="M343,248.7h-.82l-2.93-4.65h0v4.64h-.83v-6.08h.83l2.92,4.64h0v-4.63H343Z"/><path d="M350.23,248.7h-3.78v-.57l1.91-2.27a5.33,5.33,0,0,0,.69-1,1.61,1.61,0,0,0,.18-.73,1,1,0,0,0-.24-.69.88.88,0,0,0-.68-.27,1,1,0,0,0-.82.33,1.21,1.21,0,0,0-.29.82h-.79v0a1.62,1.62,0,0,1,.5-1.25,1.89,1.89,0,0,1,1.41-.52,1.77,1.77,0,0,1,1.28.45,1.56,1.56,0,0,1,.47,1.17,1.85,1.85,0,0,1-.27.94,11.81,11.81,0,0,1-.81,1.15L347.45,248v0h2.77Z"/><path d="M355,246.55a2.38,2.38,0,0,1-.52,1.63,2,2,0,0,1-2.82,0,2.39,2.39,0,0,1-.53-1.63v-1.79a2.42,2.42,0,0,1,.52-1.62,1.93,1.93,0,0,1,2.82,0,2.38,2.38,0,0,1,.53,1.62Zm-.82-2a1.68,1.68,0,0,0-.29-1,1,1,0,0,0-.83-.38,1,1,0,0,0-.82.38,1.68,1.68,0,0,0-.29,1v2.13a1.67,1.67,0,0,0,.3,1,1.07,1.07,0,0,0,1.64,0,1.71,1.71,0,0,0,.29-1Z"/><path d="M359.85,248.7h-3.77v-.57l1.91-2.27a5.33,5.33,0,0,0,.69-1,1.61,1.61,0,0,0,.18-.73,1,1,0,0,0-.25-.69.87.87,0,0,0-.68-.27,1,1,0,0,0-.82.33,1.25,1.25,0,0,0-.28.82H356v0a1.62,1.62,0,0,1,.5-1.25,1.86,1.86,0,0,1,1.4-.52,1.77,1.77,0,0,1,1.28.45,1.52,1.52,0,0,1,.47,1.17,1.93,1.93,0,0,1-.26.94,11.81,11.81,0,0,1-.81,1.15L357.08,248v0h2.76Z"/><path d="M364,246.65h.84v.64H364v1.41h-.81v-1.41h-2.61v-.46l2.56-4.21H364Zm-2.54,0h1.73V243.8h0l-.08.2Z"/><path d="M372.16,243.26h-2v5.44h-.82v-5.44h-2v-.64h4.8Z"/><path d="M375.22,248.7c0-.14-.05-.26-.07-.37l0-.31a1.8,1.8,0,0,1-.59.54,1.53,1.53,0,0,1-.8.22,1.46,1.46,0,0,1-1.07-.36,1.3,1.3,0,0,1-.37-1,1.18,1.18,0,0,1,.52-1,2.47,2.47,0,0,1,1.42-.36h.89v-.45a.85.85,0,0,0-.24-.63,1,1,0,0,0-.68-.23,1,1,0,0,0-.65.2.64.64,0,0,0-.25.48h-.78v0a1.06,1.06,0,0,1,.46-.9,2.15,2.15,0,0,1,2.5,0,1.38,1.38,0,0,1,.47,1.12v2.18c0,.16,0,.31,0,.46a3.58,3.58,0,0,0,.09.45Zm-1.37-.61a1.42,1.42,0,0,0,.81-.23,1,1,0,0,0,.46-.52v-.74h-.92a1.22,1.22,0,0,0-.79.25.76.76,0,0,0-.3.59.62.62,0,0,0,.19.48A.76.76,0,0,0,373.85,248.09Z"/><path d="M379.28,244.91l-.42,0a.9.9,0,0,0-.55.16.94.94,0,0,0-.35.43v3.23h-.82v-4.52h.74l.08.66a1.42,1.42,0,0,1,.47-.55,1.11,1.11,0,0,1,.65-.19h.17l.14,0Z"/><path d="M379.91,246.52a3,3,0,0,1,.46-1.76,1.51,1.51,0,0,1,1.3-.66,1.49,1.49,0,0,1,1.31.67l.1-.59h.65v4.54a1.73,1.73,0,0,1-.5,1.33,2.1,2.1,0,0,1-1.46.47,3,3,0,0,1-.7-.09,2.76,2.76,0,0,1-.67-.24l.13-.64a2.36,2.36,0,0,0,.57.2,3,3,0,0,0,.66.08,1.19,1.19,0,0,0,.88-.28,1.14,1.14,0,0,0,.27-.83v-.51a1.46,1.46,0,0,1-.53.43,1.8,1.8,0,0,1-.71.14,1.55,1.55,0,0,1-1.3-.6,2.46,2.46,0,0,1-.46-1.57Zm.82.09a1.88,1.88,0,0,0,.28,1.09,1,1,0,0,0,.86.42,1.14,1.14,0,0,0,.63-.17,1.49,1.49,0,0,0,.41-.48v-2.08a1.4,1.4,0,0,0-.41-.46,1.13,1.13,0,0,0-.62-.17,1,1,0,0,0-.87.49,2.52,2.52,0,0,0-.28,1.27Z"/><path d="M386.78,248.78a1.91,1.91,0,0,1-1.52-.62,2.4,2.4,0,0,1-.54-1.64v-.18a2.37,2.37,0,0,1,.56-1.61,1.77,1.77,0,0,1,1.37-.63,1.62,1.62,0,0,1,1.36.56,2.33,2.33,0,0,1,.45,1.5v.43h-2.88l0,0a1.89,1.89,0,0,0,.3,1.11,1.06,1.06,0,0,0,.92.42,2,2,0,0,0,.73-.12,1.68,1.68,0,0,0,.55-.33l.32.54a2,2,0,0,1-.64.39A2.51,2.51,0,0,1,386.78,248.78Zm-.13-4a.91.91,0,0,0-.71.33,1.58,1.58,0,0,0-.34.85v0h2v-.06a1.35,1.35,0,0,0-.24-.82A.89.89,0,0,0,386.65,244.74Z"/><path d="M390.53,243.09v1.09h.86v.61h-.86v2.74a.62.62,0,0,0,.13.45.52.52,0,0,0,.35.13l.16,0,.15,0,.11.56a.85.85,0,0,1-.27.13,1.47,1.47,0,0,1-.36,0,1,1,0,0,1-.79-.3,1.3,1.3,0,0,1-.3-.95v-2.74H389v-.61h.72v-1.09Z"/></svg>