<svg id="Layer_1" data-name="Layer 1" xmlns="http://www.w3.org/2000/svg" viewBox="0 0 504.01 277.74"><defs><style>.cls-1{fill:#fff;}.cls-2,.cls-3{opacity:0.2;}.cls-4,.cls-5,.cls-6{fill:none;stroke-miterlimit:10;stroke-width:2px;}.cls-4{stroke:#ed4328;}.cls-5{stroke:#41ac49;}.cls-6{stroke:#017db9;}.cls-7{fill:#017db9;}.cls-8{fill:#ed4328;}.cls-9{fill:#41ac49;}</style></defs><rect class="cls-1" width="504.01" height="277.74"/><path d="M203.59,27.18h2.07v4a6.07,6.07,0,0,1-1.85.93,7.3,7.3,0,0,1-2.11.32,5.79,5.79,0,0,1-2.75-.65A4.9,4.9,0,0,1,197,29.94a5.28,5.28,0,0,1,0-5.22A4.88,4.88,0,0,1,199,22.91a5.87,5.87,0,0,1,2.77-.65,6.06,6.06,0,0,1,2.34.44A4.66,4.66,0,0,1,205.84,24l-1.46,1.34a3.34,3.34,0,0,0-2.53-1.1,3.52,3.52,0,0,0-1.67.39,2.85,2.85,0,0,0-1.13,1.1,3.3,3.3,0,0,0-.41,1.64,3.26,3.26,0,0,0,.41,1.63,2.94,2.94,0,0,0,1.13,1.11,3.4,3.4,0,0,0,1.64.4,3.7,3.7,0,0,0,1.77-.42Z"/><path d="M207.72,23.3a1.1,1.1,0,0,1-.38-.87,1.13,1.13,0,0,1,.38-.87,1.4,1.4,0,0,1,1-.35,1.46,1.46,0,0,1,1,.34,1.07,1.07,0,0,1,.37.84,1.19,1.19,0,0,1-.37.9,1.38,1.38,0,0,1-1,.36A1.4,1.4,0,0,1,207.72,23.3Zm-.12,1.4h2.19v7.53H207.6Z"/><path d="M218.66,25.43a3.34,3.34,0,0,1,.86,2.49v4.31h-2.18v-4a2,2,0,0,0-.4-1.34,1.41,1.41,0,0,0-1.13-.44,1.76,1.76,0,0,0-1.32.51,2.15,2.15,0,0,0-.49,1.52v3.72h-2.18V24.7h2.09v.88a2.72,2.72,0,0,1,1.07-.73,3.63,3.63,0,0,1,1.42-.26A3.11,3.11,0,0,1,218.66,25.43Z"/><path d="M221.6,23.3a1.13,1.13,0,0,1-.37-.87,1.16,1.16,0,0,1,.37-.87,1.56,1.56,0,0,1,2,0,1,1,0,0,1,.38.84,1.17,1.17,0,0,1-.38.9,1.34,1.34,0,0,1-1,.36A1.42,1.42,0,0,1,221.6,23.3Zm-.11,1.4h2.19v7.53h-2.19Z"/><path d="M231.8,31.75a4.94,4.94,0,0,1-1.9-1.81,5.28,5.28,0,0,1,0-5.22,4.94,4.94,0,0,1,1.9-1.81,6.08,6.08,0,0,1,5-.2A4.71,4.71,0,0,1,238.56,24l-1.46,1.34a3.13,3.13,0,0,0-2.46-1.14,3.36,3.36,0,0,0-1.63.39,2.91,2.91,0,0,0-1.11,1.12,3.3,3.3,0,0,0-.4,1.62,3.36,3.36,0,0,0,.4,1.63A3,3,0,0,0,233,30.07a3.36,3.36,0,0,0,1.63.4,3.12,3.12,0,0,0,2.46-1.16l1.46,1.34a4.58,4.58,0,0,1-1.74,1.3,6.05,6.05,0,0,1-5-.2Z"/><path d="M241.11,31.85a3.63,3.63,0,0,1-1.47-1.38,3.83,3.83,0,0,1,1.47-5.39,4.9,4.9,0,0,1,4.27,0,3.71,3.71,0,0,1,2,3.39,3.86,3.86,0,0,1-.53,2,3.76,3.76,0,0,1-1.47,1.38,4.9,4.9,0,0,1-4.27,0ZM244.63,30a2.4,2.4,0,0,0,0-3,1.82,1.82,0,0,0-1.38-.57,1.85,1.85,0,0,0-1.39.57,2.4,2.4,0,0,0,0,3,1.85,1.85,0,0,0,1.39.57A1.82,1.82,0,0,0,244.63,30Z"/><path d="M256.17,29.08h-5.7a1.82,1.82,0,0,0,.73,1.11,2.41,2.41,0,0,0,1.43.4,2.8,2.8,0,0,0,1-.17,2.63,2.63,0,0,0,.85-.55l1.16,1.26a3.92,3.92,0,0,1-3.11,1.21,4.9,4.9,0,0,1-2.25-.49,3.61,3.61,0,0,1-1.51-1.38,3.77,3.77,0,0,1-.54-2,3.86,3.86,0,0,1,.53-2,3.77,3.77,0,0,1,1.44-1.39,4.51,4.51,0,0,1,4,0,3.51,3.51,0,0,1,1.41,1.37,4.06,4.06,0,0,1,.51,2.06S256.2,28.72,256.17,29.08Zm-5.11-2.42a1.79,1.79,0,0,0-.62,1.15h3.71a1.78,1.78,0,0,0-.61-1.14,1.83,1.83,0,0,0-1.23-.43A1.89,1.89,0,0,0,251.06,26.66Z"/><path d="M260.06,24.87H262v1.68h-1.87v5.68h-2.19V26.55h-1.16V24.87h1.16v-.34a2.73,2.73,0,0,1,.77-2,2.89,2.89,0,0,1,2.15-.76,4.08,4.08,0,0,1,.93.11,2.23,2.23,0,0,1,.73.3l-.57,1.58a1.48,1.48,0,0,0-.88-.27c-.67,0-1,.37-1,1.1Z"/><path d="M265.48,24.87h1.93v1.68h-1.87v5.68h-2.19V26.55h-1.16V24.87h1.16v-.34a2.73,2.73,0,0,1,.77-2,2.87,2.87,0,0,1,2.14-.76,4.1,4.1,0,0,1,.94.11,2.32,2.32,0,0,1,.73.3l-.57,1.58a1.51,1.51,0,0,0-.89-.27c-.66,0-1,.37-1,1.1Zm4.26-1.57a1.1,1.1,0,0,1-.38-.87,1.13,1.13,0,0,1,.38-.87,1.4,1.4,0,0,1,1-.35,1.46,1.46,0,0,1,1,.34,1.07,1.07,0,0,1,.37.84,1.19,1.19,0,0,1-.37.9,1.38,1.38,0,0,1-1,.36A1.4,1.4,0,0,1,269.74,23.3Zm-.12,1.4h2.19v7.53h-2.19Z"/><path d="M275.32,31.85a3.58,3.58,0,0,1-1.5-1.38,4,4,0,0,1,0-4,3.72,3.72,0,0,1,1.5-1.38,4.58,4.58,0,0,1,2.16-.49,4.24,4.24,0,0,1,2.08.49,3,3,0,0,1,1.29,1.43l-1.69.91a1.85,1.85,0,0,0-1.7-1,1.91,1.91,0,0,0-1.41.56,2.36,2.36,0,0,0,0,3,1.88,1.88,0,0,0,1.41.56,1.84,1.84,0,0,0,1.7-1l1.69.92a3,3,0,0,1-1.29,1.4,4.13,4.13,0,0,1-2.08.5A4.58,4.58,0,0,1,275.32,31.85Z"/><path d="M282.22,23.3a1.13,1.13,0,0,1-.37-.87,1.16,1.16,0,0,1,.37-.87,1.42,1.42,0,0,1,1-.35,1.44,1.44,0,0,1,1,.34,1,1,0,0,1,.38.84,1.17,1.17,0,0,1-.38.9,1.36,1.36,0,0,1-1,.36A1.42,1.42,0,0,1,282.22,23.3Zm-.11,1.4h2.19v7.53h-2.19Z"/><path d="M293.66,29.08H288a1.82,1.82,0,0,0,.73,1.11,2.43,2.43,0,0,0,1.43.4,2.8,2.8,0,0,0,1-.17,2.53,2.53,0,0,0,.85-.55l1.16,1.26a3.9,3.9,0,0,1-3.11,1.21,4.9,4.9,0,0,1-2.25-.49,3.61,3.61,0,0,1-1.51-1.38,3.76,3.76,0,0,1-.53-2,3.85,3.85,0,0,1,.52-2,3.77,3.77,0,0,1,1.44-1.39,4.25,4.25,0,0,1,2-.49,4.32,4.32,0,0,1,2,.47,3.55,3.55,0,0,1,1.4,1.37,4.06,4.06,0,0,1,.51,2.06S293.69,28.72,293.66,29.08Zm-5.11-2.42a1.78,1.78,0,0,0-.61,1.15h3.71a1.79,1.79,0,0,0-.62-1.14,1.83,1.83,0,0,0-1.23-.43A1.89,1.89,0,0,0,288.55,26.66Z"/><path d="M302,25.43a3.34,3.34,0,0,1,.86,2.49v4.31h-2.18v-4a1.92,1.92,0,0,0-.4-1.34,1.41,1.41,0,0,0-1.13-.44,1.76,1.76,0,0,0-1.32.51,2.15,2.15,0,0,0-.49,1.52v3.72h-2.18V24.7h2.09v.88a2.72,2.72,0,0,1,1.07-.73,3.63,3.63,0,0,1,1.42-.26A3.11,3.11,0,0,1,302,25.43Z"/><path d="M309.69,31.87a2,2,0,0,1-.79.35,4,4,0,0,1-1,.12,2.9,2.9,0,0,1-2.07-.68,2.6,2.6,0,0,1-.74-2V26.55h-1.16V24.87h1.16V23h2.18v1.84h1.88v1.68h-1.88v3.06a1,1,0,0,0,.25.74.9.9,0,0,0,.69.26,1.42,1.42,0,0,0,.88-.28Z"/><g class="cls-2"><rect x="27.61" y="84.96" width="450.5" height="0.5"/></g><g class="cls-2"><rect x="27.61" y="132.96" width="450.5" height="0.5"/></g><g class="cls-2"><rect x="27.61" y="148.96" width="450.5" height="0.5"/></g><g class="cls-2"><rect x="27.61" y="165.7" width="450.5" height="0.5"/></g><g class="cls-2"><rect x="27.61" y="181.95" width="450.5" height="0.5"/></g><g class="cls-2"><rect x="27.61" y="198.97" width="450.5" height="0.5"/></g><g class="cls-2"><rect x="27.61" y="68.96" width="450.5" height="0.5"/></g><g class="cls-2"><rect x="27.61" y="53.96" width="450.5" height="0.5"/></g><g class="cls-2"><rect x="27.61" y="116.96" width="450.5" height="0.5"/></g><g class="cls-2"><rect x="27.61" y="100.96" width="450.5" height="0.5"/></g><rect class="cls-3" x="27.61" y="198.97" width="0.5" height="6.91"/><rect class="cls-3" x="57.61" y="198.97" width="0.5" height="6.91"/><rect class="cls-3" x="87.61" y="198.97" width="0.5" height="6.91"/><rect class="cls-3" x="117.61" y="198.97" width="0.5" height="6.91"/><rect class="cls-3" x="147.61" y="198.97" width="0.5" height="6.91"/><rect class="cls-3" x="177.61" y="198.97" width="0.5" height="6.91"/><rect class="cls-3" x="207.61" y="198.97" width="0.5" height="6.91"/><rect class="cls-3" x="237.61" y="198.97" width="0.5" height="6.91"/><rect class="cls-3" x="267.61" y="198.97" width="0.5" height="6.91"/><rect class="cls-3" x="297.61" y="198.97" width="0.5" height="6.91"/><rect class="cls-3" x="327.61" y="198.97" width="0.5" height="6.91"/><rect class="cls-3" x="357.61" y="198.97" width="0.5" height="6.91"/><rect class="cls-3" x="387.61" y="198.97" width="0.5" height="6.91"/><rect class="cls-3" x="417.61" y="198.97" width="0.5" height="6.91"/><rect class="cls-3" x="447.61" y="198.97" width="0.5" height="6.91"/><rect class="cls-3" x="477.61" y="198.97" width="0.5" height="6.91"/><path d="M19.44,228.49l0,0-2.23-5.12.76-.76,4.53,4.52-.61.62-3.4-3.39h0l2,4.77-.42.42-4.92-2.09v0l3.5,3.5-.61.61-4.53-4.52.81-.81Z"/><path d="M25.56,224.07l-.32-.22a2.52,2.52,0,0,1-.25-.21,2.23,2.23,0,0,1,0,.85,1.66,1.66,0,0,1-.43.75,1.6,1.6,0,0,1-1.07.54,1.46,1.46,0,0,1-1-.47,1.22,1.22,0,0,1-.36-1.14,2.55,2.55,0,0,1,.78-1.33l.67-.67-.33-.33a.9.9,0,0,0-.65-.29,1,1,0,0,0-.68.34,1.1,1.1,0,0,0-.34.63.64.64,0,0,0,.18.54l-.58.59h0a1.14,1.14,0,0,1-.33-1,2,2,0,0,1,.64-1.25,2,2,0,0,1,1.21-.63,1.51,1.51,0,0,1,1.19.49l1.61,1.62.37.33a2.48,2.48,0,0,0,.4.26Zm-1.47.57a1.45,1.45,0,0,0,.43-.77,1.14,1.14,0,0,0,0-.74l-.55-.54-.68.68a1.3,1.3,0,0,0-.41.78.8.8,0,0,0,.22.66.62.62,0,0,0,.49.21A.79.79,0,0,0,24.09,224.64Z"/><path d="M25.76,218.23l-.33.29a1,1,0,0,0-.29.53,1,1,0,0,0,.06.58l2.4,2.4-.61.61-3.36-3.36.55-.55.55.43a1.67,1.67,0,0,1-.06-.76,1.23,1.23,0,0,1,.34-.63l.14-.12.13-.08Z"/><path d="M29.45,216.83l-1.83,1.84-.48-.48L29,216.35Z"/><path d="M33.85,215.78l-.61.62-4-4-1,1-.47-.47,1.43-1.77Z"/><path d="M36.37,212.44a1.33,1.33,0,0,0,.41-1,1.79,1.79,0,0,0-.59-1.14l-.39-.38a1.28,1.28,0,0,1,0,.7,1.35,1.35,0,0,1-.37.6,1.85,1.85,0,0,1-1.43.62,2.24,2.24,0,0,1-1.48-.74,2.27,2.27,0,0,1-.73-1.51,1.79,1.79,0,0,1,.55-1.41,2,2,0,0,1,1.51-.67,2.39,2.39,0,0,1,1.61.8l1.37,1.37a2.25,2.25,0,0,1,.77,1.66,2.2,2.2,0,0,1-.71,1.59,3.34,3.34,0,0,1-.54.44,3.38,3.38,0,0,1-.62.33l-.37-.56a2.17,2.17,0,0,0,.55-.27A3.35,3.35,0,0,0,36.37,212.44Zm-1.46-1.72a1.38,1.38,0,0,0,.4-.68,1.23,1.23,0,0,0-.06-.69l-.53-.54a1.68,1.68,0,0,0-1-.55,1.1,1.1,0,0,0-.91.36.94.94,0,0,0-.26.85,1.77,1.77,0,0,0,.55,1,1.75,1.75,0,0,0,1,.54A.92.92,0,0,0,34.91,210.72Z"/><path d="M49,229h0l-2.23-5.13.76-.76,4.52,4.53-.61.61-3.39-3.39,0,0,2,4.76-.42.42-4.92-2.09v0l3.5,3.5-.61.62-4.53-4.53.81-.8Z"/><path d="M55.1,224.54l-.32-.22a2.75,2.75,0,0,1-.26-.22,1.89,1.89,0,0,1,0,.85,1.53,1.53,0,0,1-.43.76,1.56,1.56,0,0,1-1.06.53,1.39,1.39,0,0,1-1-.47,1.22,1.22,0,0,1-.36-1.14,2.52,2.52,0,0,1,.78-1.33l.67-.67-.33-.33a.9.9,0,0,0-.65-.29,1,1,0,0,0-.68.34,1.1,1.1,0,0,0-.34.63.64.64,0,0,0,.18.54l-.58.59h0a1.14,1.14,0,0,1-.33-1,2,2,0,0,1,.64-1.24,1.87,1.87,0,0,1,1.21-.63,1.45,1.45,0,0,1,1.18.48L55,223.31a3.8,3.8,0,0,0,.37.33,2.11,2.11,0,0,0,.4.26Zm-1.47.56a1.48,1.48,0,0,0,.43-.77,1.14,1.14,0,0,0,0-.74l-.55-.54-.69.68a1.28,1.28,0,0,0-.4.78.78.78,0,0,0,.21.66.69.69,0,0,0,.5.22A.81.81,0,0,0,53.63,225.1Z"/><path d="M56.26,220.88l.54.31,0,0L55.1,217.8l.68-.68,2.47,5.3a2.48,2.48,0,0,1,.22,1,1.16,1.16,0,0,1-.39.89l-.2.18-.21.14-.42-.54.11-.11.18-.15a.54.54,0,0,0,.14-.49,2.29,2.29,0,0,0-.18-.6l-.2-.49-4.54-2,.68-.68Z"/><path d="M59.92,216.37l-1.83,1.83-.48-.48,1.83-1.83Z"/><path d="M64.31,215.32l-.61.61-4-4-1,1-.47-.47,1.43-1.77Z"/><path d="M66.83,212a1.27,1.27,0,0,0,.41-1,1.77,1.77,0,0,0-.59-1.13l-.39-.39a1.41,1.41,0,0,1,0,.71,1.49,1.49,0,0,1-.38.6,1.88,1.88,0,0,1-1.42.62,2.23,2.23,0,0,1-1.49-.75,2.2,2.2,0,0,1-.72-1.51,1.78,1.78,0,0,1,.54-1.41,2,2,0,0,1,1.51-.66,2.39,2.39,0,0,1,1.62.79l1.37,1.38a2.31,2.31,0,0,1,.77,1.66,2.25,2.25,0,0,1-.72,1.59,3.34,3.34,0,0,1-.54.44,3.24,3.24,0,0,1-.61.32l-.37-.56a2.25,2.25,0,0,0,.54-.26A2.59,2.59,0,0,0,66.83,212Zm-1.46-1.71a1.3,1.3,0,0,0,.4-.69,1.16,1.16,0,0,0-.06-.69l-.53-.53a1.76,1.76,0,0,0-1-.56,1.09,1.09,0,0,0-.91.37A.94.94,0,0,0,63,209a1.84,1.84,0,0,0,.55,1,1.77,1.77,0,0,0,1,.55A.94.94,0,0,0,65.37,210.26Z"/><path d="M76.63,224l.61-.62,3.21,3.22a1.87,1.87,0,0,1,.62,1.38,1.93,1.93,0,0,1-.62,1.37,2,2,0,0,1-1.33.66,1.63,1.63,0,0,1-1.31-.61v0l.59-.59a1.22,1.22,0,0,0,.82.44,1.05,1.05,0,0,0,.76-.35,1,1,0,0,0,.31-.8,1.35,1.35,0,0,0-.44-.87Z"/><path d="M84.36,224.27a1.53,1.53,0,0,1,0,.82,1.49,1.49,0,0,1-.43.73,1.53,1.53,0,0,1-1.2.5,2.31,2.31,0,0,1-1.4-.78l-2-2,.61-.61,2,2a1.77,1.77,0,0,0,.9.58.85.85,0,0,0,.7-.29,1.44,1.44,0,0,0,.4-.67,1.13,1.13,0,0,0,0-.7l-2.42-2.42.61-.61,3.36,3.36-.55.55Z"/><path d="M87,222.63l-.61.61-4.84-4.85.61-.61Z"/><path d="M88.18,218.1l-1.83,1.84-.48-.48,1.83-1.83Z"/><path d="M92.58,217.05l-.62.62-4-4-1,1-.48-.47L88,212.47Z"/><path d="M95.1,213.71a1.28,1.28,0,0,0,.4-1,1.75,1.75,0,0,0-.58-1.14l-.39-.38a1.37,1.37,0,0,1,0,.7,1.35,1.35,0,0,1-.37.6,1.83,1.83,0,0,1-1.43.62,2.24,2.24,0,0,1-1.49-.74,2.31,2.31,0,0,1-.72-1.51,1.84,1.84,0,0,1,.54-1.41,2.07,2.07,0,0,1,1.52-.66,2.35,2.35,0,0,1,1.61.79l1.37,1.37a2.29,2.29,0,0,1,.77,1.67,2.2,2.2,0,0,1-.71,1.59,3.92,3.92,0,0,1-.54.43,2.86,2.86,0,0,1-.62.33l-.37-.56a2.7,2.7,0,0,0,.54-.26A4.32,4.32,0,0,0,95.1,213.71ZM93.64,212a1.43,1.43,0,0,0,.39-.69,1.24,1.24,0,0,0,0-.69l-.54-.54a1.69,1.69,0,0,0-1-.55,1.13,1.13,0,0,0-.92.36,1,1,0,0,0-.25.85,1.77,1.77,0,0,0,.55,1,1.84,1.84,0,0,0,1,.55A1,1,0,0,0,93.64,212Z"/><path d="M258.24,224l.61-.62,3.21,3.22a1.87,1.87,0,0,1,.62,1.38,1.93,1.93,0,0,1-.62,1.37,2,2,0,0,1-1.33.66,1.63,1.63,0,0,1-1.31-.61v0l.59-.59a1.22,1.22,0,0,0,.82.44,1.05,1.05,0,0,0,.76-.35,1,1,0,0,0,.31-.8,1.35,1.35,0,0,0-.44-.87Z"/><path d="M266,224.27a1.53,1.53,0,0,1,0,.82,1.49,1.49,0,0,1-.43.73,1.51,1.51,0,0,1-1.2.5,2.31,2.31,0,0,1-1.4-.78l-2-2,.61-.61,2,2a1.77,1.77,0,0,0,.9.58.85.85,0,0,0,.7-.29,1.36,1.36,0,0,0,.4-.67,1.13,1.13,0,0,0-.05-.7l-2.42-2.42.61-.61,3.36,3.36-.55.55Z"/><path d="M268.62,222.63l-.62.61-4.84-4.85.61-.61Z"/><path d="M269.79,218.1,268,219.94l-.48-.48,1.83-1.83Z"/><path d="M275.26,216l-2.81,2.8-.42-.42-.28-3.11a6.1,6.1,0,0,0-.21-1.25,1.7,1.7,0,0,0-.42-.68,1,1,0,0,0-.69-.33.91.91,0,0,0-.71.31,1.07,1.07,0,0,0-.37.85,1.27,1.27,0,0,0,.41.82l-.59.6,0,0a1.72,1.72,0,0,1-.57-1.3,2,2,0,0,1,.67-1.43,1.83,1.83,0,0,1,1.29-.62,1.59,1.59,0,0,1,1.21.52,1.82,1.82,0,0,1,.5.89,9.86,9.86,0,0,1,.26,1.46l.2,2.48h0l2.06-2.06Z"/><path d="M277.2,210.85a2.51,2.51,0,0,1,.82,1.6,1.87,1.87,0,0,1-.6,1.5,1.85,1.85,0,0,1-1.49.6,2.54,2.54,0,0,1-1.61-.82L273,212.4a2.51,2.51,0,0,1-.82-1.6,2,2,0,0,1,2.09-2.1,2.51,2.51,0,0,1,1.61.82Zm-2.07-.85a1.78,1.78,0,0,0-1-.55,1.07,1.07,0,0,0-.9.33,1,1,0,0,0-.32.89,1.72,1.72,0,0,0,.55,1l1.58,1.58a1.79,1.79,0,0,0,1,.56,1,1,0,0,0,.89-.33,1,1,0,0,0,.33-.89,1.79,1.79,0,0,0-.56-1Z"/><path d="M438.24,224l.61-.62,3.21,3.22a1.87,1.87,0,0,1,.62,1.38,1.93,1.93,0,0,1-.62,1.37,2,2,0,0,1-1.33.66,1.63,1.63,0,0,1-1.31-.61v0l.59-.59a1.22,1.22,0,0,0,.82.44,1.05,1.05,0,0,0,.76-.35,1,1,0,0,0,.31-.8,1.35,1.35,0,0,0-.44-.87Z"/><path d="M446,224.27a1.53,1.53,0,0,1,0,.82,1.49,1.49,0,0,1-.43.73,1.51,1.51,0,0,1-1.2.5,2.31,2.31,0,0,1-1.4-.78l-2-2,.61-.61,2,2a1.77,1.77,0,0,0,.9.58.85.85,0,0,0,.7-.29,1.36,1.36,0,0,0,.4-.67,1.13,1.13,0,0,0-.05-.7l-2.42-2.42.61-.61,3.36,3.36-.55.55Z"/><path d="M448.62,222.63l-.62.61-4.84-4.85.61-.61Z"/><path d="M449.79,218.1,448,219.94l-.48-.48,1.83-1.83Z"/><path d="M455.26,216l-2.81,2.8-.42-.42-.28-3.11a6.1,6.1,0,0,0-.21-1.25,1.7,1.7,0,0,0-.42-.68,1,1,0,0,0-.69-.33.91.91,0,0,0-.71.31,1.07,1.07,0,0,0-.37.85,1.27,1.27,0,0,0,.41.82l-.59.6,0,0a1.72,1.72,0,0,1-.57-1.3,2,2,0,0,1,.67-1.43,1.83,1.83,0,0,1,1.29-.62,1.59,1.59,0,0,1,1.21.52,1.82,1.82,0,0,1,.5.89,9.86,9.86,0,0,1,.26,1.46l.2,2.48h0l2.06-2.06Z"/><path d="M457.77,213.47l-.61.62-4-4-1,1-.47-.47,1.43-1.77Z"/><path d="M471.14,227.82a1,1,0,0,0-.74-.29,2.69,2.69,0,0,0-1.13.42,3.5,3.5,0,0,1-1.58.57,1.48,1.48,0,0,1-1.22-.44,1.58,1.58,0,0,1-.47-1.31,2.59,2.59,0,0,1,2.27-2.17,1.75,1.75,0,0,1,1.36.54v0l-.59.58a1.16,1.16,0,0,0-.9-.37,1.36,1.36,0,0,0-.94.44,1.28,1.28,0,0,0-.45.86,1,1,0,0,0,.31.77.83.83,0,0,0,.74.24,3,3,0,0,0,1.16-.46,3.26,3.26,0,0,1,1.56-.52,1.61,1.61,0,0,1,1.21.49,1.48,1.48,0,0,1,.45,1.31,2.51,2.51,0,0,1-.79,1.46,2.68,2.68,0,0,1-1.52.79,1.56,1.56,0,0,1-1.47-.5v0l.58-.58a1.09,1.09,0,0,0,1,.33,1.72,1.72,0,0,0,1-.5,1.57,1.57,0,0,0,.5-.88A1,1,0,0,0,471.14,227.82Z"/><path d="M475.13,226.24a2,2,0,0,1-1.59.67,2.53,2.53,0,0,1-1.63-.82l-.13-.13a2.44,2.44,0,0,1-.78-1.62,1.84,1.84,0,0,1,.54-1.49,1.72,1.72,0,0,1,1.44-.59,2.45,2.45,0,0,1,1.45.77l.32.33-2.15,2.15v0a1.94,1.94,0,0,0,1,.6,1.1,1.1,0,0,0,1-.37,2.15,2.15,0,0,0,.46-.63,1.72,1.72,0,0,0,.16-.65l.63.16a2,2,0,0,1-.18.77A2.51,2.51,0,0,1,475.13,226.24Zm-3.1-2.91a.94.94,0,0,0-.29.78,1.69,1.69,0,0,0,.38.89h0l1.52-1.51-.05-.05a1.39,1.39,0,0,0-.79-.43A.91.91,0,0,0,472,223.33Z"/><path d="M478.32,219.82a2.65,2.65,0,0,1,.82,1.52,1.64,1.64,0,0,1-.51,1.41,2.14,2.14,0,0,1-.65.44,1.56,1.56,0,0,1-.71.08l1.64,1.65-.61.61-4.66-4.66.47-.46.53.33a1.58,1.58,0,0,1,0-.78,1.81,1.81,0,0,1,.45-.7,1.58,1.58,0,0,1,1.46-.47,3.15,3.15,0,0,1,1.66,1Zm-.68.55a2.48,2.48,0,0,0-1.17-.72,1,1,0,0,0-1,.3,1.11,1.11,0,0,0-.33.57,1.19,1.19,0,0,0,0,.62l1.62,1.63a1.23,1.23,0,0,0,.63,0,1.15,1.15,0,0,0,.57-.34,1,1,0,0,0,.34-1,1.93,1.93,0,0,0-.6-1Z"/><path d="M480.86,217,479,218.87l-.47-.48,1.83-1.83Z"/><path d="M486.32,214.92l-2.81,2.81-.42-.42-.27-3.11a6.56,6.56,0,0,0-.22-1.25,1.72,1.72,0,0,0-.41-.68,1,1,0,0,0-.7-.33,1,1,0,0,0-.71.3,1.09,1.09,0,0,0-.36.86,1.28,1.28,0,0,0,.4.82l-.59.59h0a1.73,1.73,0,0,1-.57-1.31,2,2,0,0,1,.66-1.43,1.89,1.89,0,0,1,1.29-.62,1.65,1.65,0,0,1,1.21.52,2,2,0,0,1,.51.9,11.32,11.32,0,0,1,.25,1.46l.2,2.47h0l2.06-2.06Z"/><path d="M488.83,212.41l-.61.61-4-4-1,1-.48-.47,1.44-1.77Z"/><path d="M291.14,227.82a1,1,0,0,0-.74-.29,2.69,2.69,0,0,0-1.13.42,3.5,3.5,0,0,1-1.58.57,1.48,1.48,0,0,1-1.22-.44,1.58,1.58,0,0,1-.47-1.31,2.59,2.59,0,0,1,2.27-2.17,1.75,1.75,0,0,1,1.36.54v0l-.59.58a1.16,1.16,0,0,0-.9-.37,1.36,1.36,0,0,0-.94.44,1.28,1.28,0,0,0-.45.86,1,1,0,0,0,.31.77.83.83,0,0,0,.74.24,3,3,0,0,0,1.16-.46,3.26,3.26,0,0,1,1.56-.52,1.61,1.61,0,0,1,1.21.49,1.48,1.48,0,0,1,.45,1.31,2.51,2.51,0,0,1-.79,1.46,2.68,2.68,0,0,1-1.52.79,1.56,1.56,0,0,1-1.47-.5v0l.58-.58a1.09,1.09,0,0,0,1,.33,1.72,1.72,0,0,0,1-.5,1.57,1.57,0,0,0,.5-.88A1,1,0,0,0,291.14,227.82Z"/><path d="M295.13,226.24a2,2,0,0,1-1.59.67,2.53,2.53,0,0,1-1.63-.82l-.13-.13a2.44,2.44,0,0,1-.78-1.62,1.84,1.84,0,0,1,.54-1.49,1.72,1.72,0,0,1,1.44-.59,2.45,2.45,0,0,1,1.45.77l.32.33-2.15,2.15v0a1.94,1.94,0,0,0,1,.6,1.1,1.1,0,0,0,1-.37,2.15,2.15,0,0,0,.46-.63,1.72,1.72,0,0,0,.16-.65l.63.16a2,2,0,0,1-.18.77A2.51,2.51,0,0,1,295.13,226.24Zm-3.1-2.91a.94.94,0,0,0-.29.78,1.69,1.69,0,0,0,.38.89h0l1.52-1.51-.05-.05a1.39,1.39,0,0,0-.79-.43A.91.91,0,0,0,292,223.33Z"/><path d="M298.32,219.82a2.65,2.65,0,0,1,.82,1.52,1.64,1.64,0,0,1-.51,1.41,2.14,2.14,0,0,1-.65.44,1.56,1.56,0,0,1-.71.08l1.64,1.65-.61.61-4.66-4.66.47-.46.53.33a1.58,1.58,0,0,1,0-.78,1.81,1.81,0,0,1,.45-.7,1.58,1.58,0,0,1,1.46-.47,3.15,3.15,0,0,1,1.66,1Zm-.68.55a2.48,2.48,0,0,0-1.17-.72,1,1,0,0,0-1,.3,1.11,1.11,0,0,0-.33.57,1.19,1.19,0,0,0,0,.62l1.62,1.63a1.23,1.23,0,0,0,.63,0,1.15,1.15,0,0,0,.57-.34,1,1,0,0,0,.34-1,1.93,1.93,0,0,0-.6-1Z"/><path d="M300.86,217,299,218.87l-.47-.48,1.83-1.83Z"/><path d="M306.32,214.92l-2.81,2.81-.42-.42-.27-3.11a6.56,6.56,0,0,0-.22-1.25,1.72,1.72,0,0,0-.41-.68,1,1,0,0,0-.7-.33,1,1,0,0,0-.71.3,1.09,1.09,0,0,0-.36.86,1.28,1.28,0,0,0,.4.82l-.59.59h0a1.73,1.73,0,0,1-.57-1.31,2,2,0,0,1,.66-1.43,1.89,1.89,0,0,1,1.29-.62,1.65,1.65,0,0,1,1.21.52,2,2,0,0,1,.51.9,11.32,11.32,0,0,1,.25,1.46l.2,2.47h0l2.06-2.06Z"/><path d="M308.26,209.78a2.58,2.58,0,0,1,.83,1.61,1.9,1.9,0,0,1-.6,1.5,1.93,1.93,0,0,1-1.5.6,2.54,2.54,0,0,1-1.61-.82l-1.33-1.33a2.54,2.54,0,0,1-.82-1.61,2.05,2.05,0,0,1,2.1-2.09,2.48,2.48,0,0,1,1.6.81Zm-2.07-.84a1.66,1.66,0,0,0-1-.55,1.14,1.14,0,0,0-1.22,1.22,1.75,1.75,0,0,0,.56,1l1.58,1.59a1.75,1.75,0,0,0,1,.55,1,1,0,0,0,.9-.32,1.07,1.07,0,0,0,.33-.9,1.87,1.87,0,0,0-.56-1Z"/><path d="M323.08,228.16l-.61.61-5.63-1.27,0,0,3.45,3.45-.61.61-4.52-4.52.61-.62,5.63,1.28v0L318,224.25l.61-.61Z"/><path d="M322.2,225.61a2.56,2.56,0,0,1-.82-1.63,1.9,1.9,0,0,1,.61-1.58,2,2,0,0,1,1.59-.62,2.59,2.59,0,0,1,1.63.82l.07.07a2.62,2.62,0,0,1,.83,1.64,2.12,2.12,0,0,1-2.21,2.2,2.6,2.6,0,0,1-1.63-.83Zm.68-.54a2.25,2.25,0,0,0,1.11.66,1.15,1.15,0,0,0,1.34-1.34,2.33,2.33,0,0,0-.66-1.11l-.07-.06a2.24,2.24,0,0,0-1.11-.66,1.08,1.08,0,0,0-1,.32,1.07,1.07,0,0,0-.31,1,2.23,2.23,0,0,0,.65,1.1Z"/><path d="M327.76,221.5l.29.18,0,0-.18-.29-1.6-3.15.63-.62,2.12,4.6-.46.46L324,220.55l.63-.62Z"/><path d="M331.06,216.83l-1.83,1.84-.48-.48,1.84-1.84Z"/><path d="M336.53,214.71l-2.81,2.81-.42-.42L333,214a6.56,6.56,0,0,0-.22-1.25,1.7,1.7,0,0,0-.42-.68,1,1,0,0,0-.69-.33.92.92,0,0,0-.71.31,1,1,0,0,0-.36.85,1.21,1.21,0,0,0,.4.82l-.59.59h0a1.72,1.72,0,0,1-.57-1.3,2.08,2.08,0,0,1,.67-1.44,1.82,1.82,0,0,1,1.29-.61,1.62,1.62,0,0,1,1.21.51,2,2,0,0,1,.51.9,11.65,11.65,0,0,1,.25,1.46l.2,2.48h0l2.06-2.06Z"/><path d="M338.47,209.58a2.47,2.47,0,0,1,.82,1.6,1.87,1.87,0,0,1-.6,1.5,1.85,1.85,0,0,1-1.49.6,2.51,2.51,0,0,1-1.61-.82l-1.33-1.33a2.51,2.51,0,0,1-.82-1.6,2,2,0,0,1,2.09-2.1,2.51,2.51,0,0,1,1.61.82Zm-2.07-.85a1.72,1.72,0,0,0-1-.55,1.07,1.07,0,0,0-.9.33,1,1,0,0,0-.32.89,1.75,1.75,0,0,0,.55,1l1.58,1.58a1.79,1.79,0,0,0,1,.56,1,1,0,0,0,.89-.33,1,1,0,0,0,.33-.9,1.74,1.74,0,0,0-.56-1Z"/><path d="M111.14,227.82a1,1,0,0,0-.74-.29,2.69,2.69,0,0,0-1.13.42,3.5,3.5,0,0,1-1.58.57,1.48,1.48,0,0,1-1.22-.44,1.58,1.58,0,0,1-.47-1.31,2.59,2.59,0,0,1,2.27-2.17,1.75,1.75,0,0,1,1.36.54v0l-.59.58a1.16,1.16,0,0,0-.9-.37,1.36,1.36,0,0,0-.94.44,1.28,1.28,0,0,0-.45.86,1,1,0,0,0,.31.77.83.83,0,0,0,.74.24,3,3,0,0,0,1.16-.46,3.26,3.26,0,0,1,1.56-.52,1.61,1.61,0,0,1,1.21.49,1.48,1.48,0,0,1,.45,1.31,2.51,2.51,0,0,1-.79,1.46,2.68,2.68,0,0,1-1.52.79,1.56,1.56,0,0,1-1.47-.5v0l.58-.58a1.09,1.09,0,0,0,1,.33,1.72,1.72,0,0,0,1-.5,1.57,1.57,0,0,0,.5-.88A1,1,0,0,0,111.14,227.82Z"/><path d="M115.13,226.24a2,2,0,0,1-1.59.67,2.53,2.53,0,0,1-1.63-.82l-.13-.13a2.44,2.44,0,0,1-.78-1.62,1.84,1.84,0,0,1,.54-1.49,1.72,1.72,0,0,1,1.44-.59,2.45,2.45,0,0,1,1.45.77l.32.33-2.15,2.15v0a1.94,1.94,0,0,0,1,.6,1.1,1.1,0,0,0,1-.37,2.15,2.15,0,0,0,.46-.63,1.72,1.72,0,0,0,.16-.65l.63.16a2,2,0,0,1-.18.77A2.51,2.51,0,0,1,115.13,226.24Zm-3.1-2.91a.94.94,0,0,0-.29.78,1.69,1.69,0,0,0,.38.89h0l1.52-1.51,0-.05a1.39,1.39,0,0,0-.79-.43A.91.91,0,0,0,112,223.33Z"/><path d="M118.32,219.82a2.65,2.65,0,0,1,.82,1.52,1.64,1.64,0,0,1-.51,1.41,2.14,2.14,0,0,1-.65.44,1.56,1.56,0,0,1-.71.08l1.64,1.65-.61.61-4.66-4.66.47-.46.53.33a1.58,1.58,0,0,1,0-.78,1.81,1.81,0,0,1,.45-.7,1.58,1.58,0,0,1,1.46-.47,3.15,3.15,0,0,1,1.66,1Zm-.68.55a2.48,2.48,0,0,0-1.17-.72,1,1,0,0,0-1,.3,1.11,1.11,0,0,0-.33.57,1.19,1.19,0,0,0,0,.62l1.62,1.63a1.23,1.23,0,0,0,.63,0,1.15,1.15,0,0,0,.57-.34,1,1,0,0,0,.34-1,1.93,1.93,0,0,0-.6-1Z"/><path d="M120.86,217,119,218.87l-.47-.48,1.83-1.83Z"/><path d="M125.25,216l-.61.62-4-4-1,1-.47-.47,1.43-1.77Z"/><path d="M127.77,212.64a1.26,1.26,0,0,0,.41-1,1.77,1.77,0,0,0-.59-1.14l-.39-.39a1.41,1.41,0,0,1,0,.71,1.61,1.61,0,0,1-.38.6,1.88,1.88,0,0,1-1.42.62,2.55,2.55,0,0,1-2.21-2.26,1.78,1.78,0,0,1,.54-1.41,2,2,0,0,1,1.51-.66,2.33,2.33,0,0,1,1.61.8l1.38,1.37a2.31,2.31,0,0,1,.77,1.66,2.25,2.25,0,0,1-.72,1.59,3.34,3.34,0,0,1-.54.44,2.75,2.75,0,0,1-.61.32l-.38-.56a2.15,2.15,0,0,0,.55-.26A2.59,2.59,0,0,0,127.77,212.64Zm-1.46-1.71a1.31,1.31,0,0,0,.4-.68,1.18,1.18,0,0,0-.06-.7l-.53-.53a1.66,1.66,0,0,0-1-.55,1.06,1.06,0,0,0-.91.36.94.94,0,0,0-.26.85,1.75,1.75,0,0,0,.55,1,1.77,1.77,0,0,0,1,.55A.91.91,0,0,0,126.31,210.93Z"/><path d="M143.08,228.16l-.61.61-5.63-1.27,0,0,3.45,3.45-.61.61-4.52-4.52.61-.62,5.63,1.28v0L138,224.25l.61-.61Z"/><path d="M142.2,225.61a2.56,2.56,0,0,1-.82-1.63,1.9,1.9,0,0,1,.61-1.58,2,2,0,0,1,1.59-.62,2.59,2.59,0,0,1,1.63.82l.07.07a2.62,2.62,0,0,1,.83,1.64,2.12,2.12,0,0,1-2.21,2.2,2.6,2.6,0,0,1-1.63-.83Zm.68-.54a2.25,2.25,0,0,0,1.11.66,1.15,1.15,0,0,0,1.34-1.34,2.33,2.33,0,0,0-.66-1.11l-.07-.06a2.24,2.24,0,0,0-1.11-.66,1.08,1.08,0,0,0-1,.32,1.07,1.07,0,0,0-.31,1,2.23,2.23,0,0,0,.65,1.1Z"/><path d="M147.76,221.5l.29.18,0,0-.18-.29-1.6-3.15.63-.62,2.12,4.6-.46.46L144,220.55l.63-.62Z"/><path d="M151.06,216.83l-1.83,1.84-.48-.48,1.84-1.84Z"/><path d="M155.46,215.78l-.62.62-4-4-1,1-.47-.47,1.43-1.77Z"/><path d="M158,212.44a1.33,1.33,0,0,0,.41-1,1.76,1.76,0,0,0-.6-1.14l-.38-.38a1.28,1.28,0,0,1,0,.7,1.35,1.35,0,0,1-.37.6,1.91,1.91,0,0,1-1.43.63,2.58,2.58,0,0,1-2.21-2.26,1.83,1.83,0,0,1,.54-1.41,2.07,2.07,0,0,1,1.52-.66,2.35,2.35,0,0,1,1.61.79l1.37,1.37a2.29,2.29,0,0,1,.77,1.67,2.22,2.22,0,0,1-.71,1.59,3.29,3.29,0,0,1-.54.43,2.86,2.86,0,0,1-.62.33l-.37-.56a2.46,2.46,0,0,0,.54-.26A4.32,4.32,0,0,0,158,212.44Zm-1.46-1.72a1.29,1.29,0,0,0,.39-.68,1.24,1.24,0,0,0,0-.69l-.54-.54a1.69,1.69,0,0,0-1-.55,1.13,1.13,0,0,0-.92.36,1,1,0,0,0-.25.85,1.77,1.77,0,0,0,.55,1,1.75,1.75,0,0,0,1,.54A.93.93,0,0,0,156.52,210.72Z"/><path d="M167.29,224.9l.61-.61,3.21,3.21a1.85,1.85,0,0,1,0,2.76,2,2,0,0,1-1.32.66,1.64,1.64,0,0,1-1.32-.61v0l.59-.59a1.21,1.21,0,0,0,.82.43,1,1,0,0,0,.76-.35,1,1,0,0,0,.31-.8,1.36,1.36,0,0,0-.44-.86Z"/><path d="M175.46,225.79l-.32-.22a2.75,2.75,0,0,1-.26-.22,1.89,1.89,0,0,1,0,.85,1.53,1.53,0,0,1-.43.76,1.56,1.56,0,0,1-1.07.53,1.38,1.38,0,0,1-1-.47,1.22,1.22,0,0,1-.36-1.14,2.52,2.52,0,0,1,.78-1.33l.67-.67-.33-.33a.9.9,0,0,0-.65-.29,1,1,0,0,0-.69.34,1.08,1.08,0,0,0-.33.63.64.64,0,0,0,.18.54l-.58.59h0a1.14,1.14,0,0,1-.33-1,2,2,0,0,1,.64-1.24,1.87,1.87,0,0,1,1.21-.63,1.45,1.45,0,0,1,1.18.48l1.62,1.62a3.8,3.8,0,0,0,.37.33,1.84,1.84,0,0,0,.4.26Zm-1.47.56a1.48,1.48,0,0,0,.43-.77,1.14,1.14,0,0,0,0-.74l-.55-.54-.69.68a1.28,1.28,0,0,0-.4.78.79.79,0,0,0,.21.66.69.69,0,0,0,.5.22A.81.81,0,0,0,174,226.35Z"/><path d="M174.07,220.44l.55.46a1.59,1.59,0,0,1,.43-1.56,1.53,1.53,0,0,1,1.16-.52,2,2,0,0,1,1.28.68l2.12,2.13-.61.61-2.11-2.11a1.27,1.27,0,0,0-.8-.46,1,1,0,0,0-.73.35,1.27,1.27,0,0,0-.36.6,1.12,1.12,0,0,0,0,.63l2.5,2.49-.61.61L173.52,221Z"/><path d="M180.74,217.16,178.91,219l-.48-.48,1.83-1.83Z"/><path d="M186.2,215l-2.81,2.81-.42-.42-.27-3.12a5.17,5.17,0,0,0-.22-1.24,1.84,1.84,0,0,0-.41-.69,1,1,0,0,0-.7-.33.9.9,0,0,0-.7.31,1.08,1.08,0,0,0-.37.85,1.3,1.3,0,0,0,.4.83l-.59.59,0,0a1.71,1.71,0,0,1-.57-1.3,2,2,0,0,1,.66-1.43,1.87,1.87,0,0,1,1.29-.62,1.6,1.6,0,0,1,1.22.52,2,2,0,0,1,.5.9,10.86,10.86,0,0,1,.26,1.45l.19,2.48h0l2.05-2.06Z"/><path d="M188.15,209.9a2.54,2.54,0,0,1,.82,1.61,2.05,2.05,0,0,1-2.1,2.09,2.51,2.51,0,0,1-1.61-.82l-1.33-1.33a2.56,2.56,0,0,1-.82-1.6,1.87,1.87,0,0,1,.6-1.5,1.9,1.9,0,0,1,1.5-.6,2.54,2.54,0,0,1,1.61.82Zm-2.07-.85a1.84,1.84,0,0,0-1-.55,1,1,0,0,0-.9.34,1,1,0,0,0-.33.89,1.75,1.75,0,0,0,.56,1l1.58,1.58a1.8,1.8,0,0,0,1,.56,1.14,1.14,0,0,0,1.23-1.22,1.74,1.74,0,0,0-.56-1Z"/><path d="M347.29,224.9l.61-.61,3.21,3.21a1.85,1.85,0,0,1,0,2.76,2,2,0,0,1-1.32.66,1.64,1.64,0,0,1-1.32-.61v0l.59-.59a1.21,1.21,0,0,0,.82.43,1,1,0,0,0,.76-.35,1,1,0,0,0,.31-.8,1.36,1.36,0,0,0-.44-.86Z"/><path d="M355.46,225.79l-.32-.22a2.75,2.75,0,0,1-.26-.22,1.89,1.89,0,0,1,0,.85,1.53,1.53,0,0,1-.43.76,1.56,1.56,0,0,1-1.07.53,1.38,1.38,0,0,1-1-.47,1.22,1.22,0,0,1-.36-1.14,2.52,2.52,0,0,1,.78-1.33l.67-.67-.33-.33a.9.9,0,0,0-.65-.29,1,1,0,0,0-.69.34,1.08,1.08,0,0,0-.33.63.64.64,0,0,0,.18.54l-.58.59h0a1.14,1.14,0,0,1-.33-1,2,2,0,0,1,.64-1.24,1.87,1.87,0,0,1,1.21-.63,1.45,1.45,0,0,1,1.18.48l1.62,1.62a3.8,3.8,0,0,0,.37.33,1.84,1.84,0,0,0,.4.26Zm-1.47.56a1.48,1.48,0,0,0,.43-.77,1.14,1.14,0,0,0,0-.74l-.55-.54-.69.68a1.28,1.28,0,0,0-.4.78.79.79,0,0,0,.21.66.69.69,0,0,0,.5.22A.81.81,0,0,0,354,226.35Z"/><path d="M354.07,220.44l.55.46a1.59,1.59,0,0,1,.43-1.56,1.53,1.53,0,0,1,1.16-.52,2,2,0,0,1,1.28.68l2.12,2.13-.61.61-2.11-2.11a1.27,1.27,0,0,0-.8-.46,1,1,0,0,0-.73.35,1.27,1.27,0,0,0-.36.6,1.12,1.12,0,0,0,0,.63l2.5,2.49-.61.61L353.52,221Z"/><path d="M360.74,217.16,358.91,219l-.48-.48,1.83-1.83Z"/><path d="M366.2,215l-2.81,2.81-.42-.42-.27-3.12a5.17,5.17,0,0,0-.22-1.24,1.84,1.84,0,0,0-.41-.69,1,1,0,0,0-.7-.33.9.9,0,0,0-.7.31,1.08,1.08,0,0,0-.37.85,1.3,1.3,0,0,0,.4.83l-.59.59,0,0a1.71,1.71,0,0,1-.57-1.3,2,2,0,0,1,.66-1.43,1.87,1.87,0,0,1,1.29-.62,1.6,1.6,0,0,1,1.22.52,2,2,0,0,1,.5.9,10.86,10.86,0,0,1,.26,1.45l.19,2.48h0l2.05-2.06Z"/><path d="M368.72,212.52l-.62.62-4-4-1,1-.48-.47,1.44-1.77Z"/><path d="M201.05,228.49l0,0-2.23-5.12.76-.76,4.53,4.52-.62.62-3.39-3.39h0l2,4.77-.42.42-4.92-2.09v0l3.5,3.5-.61.61-4.53-4.52.81-.81Z"/><path d="M207.17,224.07l-.32-.22a2.52,2.52,0,0,1-.25-.21,2.06,2.06,0,0,1,0,.85,1.56,1.56,0,0,1-.42.75,1.6,1.6,0,0,1-1.07.54,1.46,1.46,0,0,1-1-.47,1.22,1.22,0,0,1-.36-1.14,2.55,2.55,0,0,1,.78-1.33l.67-.67-.33-.33a.9.9,0,0,0-.65-.29,1,1,0,0,0-.68.34,1.1,1.1,0,0,0-.34.63.64.64,0,0,0,.18.54l-.58.59h0a1.14,1.14,0,0,1-.33-1,2,2,0,0,1,.64-1.25,2,2,0,0,1,1.21-.63,1.52,1.52,0,0,1,1.19.49l1.61,1.62c.12.12.25.23.37.33a2.11,2.11,0,0,0,.4.26Zm-1.47.57a1.52,1.52,0,0,0,.43-.77,1.14,1.14,0,0,0,0-.74l-.55-.54-.68.68a1.25,1.25,0,0,0-.41.78.8.8,0,0,0,.22.66.62.62,0,0,0,.49.21A.79.79,0,0,0,205.7,224.64Z"/><path d="M207.37,218.23l-.33.29a1.06,1.06,0,0,0-.3.53,1.08,1.08,0,0,0,.07.58l2.4,2.4-.61.61-3.36-3.36.55-.55.55.43a1.67,1.67,0,0,1-.06-.76,1.23,1.23,0,0,1,.34-.63l.14-.12.12-.08Z"/><path d="M211.06,216.83l-1.83,1.84-.48-.48,1.84-1.84Z"/><path d="M216.53,214.71l-2.81,2.81-.42-.42L213,214a6.56,6.56,0,0,0-.22-1.25,1.63,1.63,0,0,0-.42-.68,1,1,0,0,0-.69-.33,1,1,0,0,0-.71.3,1.05,1.05,0,0,0-.36.86,1.23,1.23,0,0,0,.4.82l-.59.59h0a1.73,1.73,0,0,1-.57-1.31,2.06,2.06,0,0,1,.67-1.43,1.87,1.87,0,0,1,1.29-.62,1.67,1.67,0,0,1,1.21.52,2,2,0,0,1,.51.9,11.65,11.65,0,0,1,.25,1.46l.2,2.47h0l2.06-2.06Z"/><path d="M218.47,209.58a2.47,2.47,0,0,1,.82,1.6,1.87,1.87,0,0,1-.6,1.5,1.91,1.91,0,0,1-1.49.6,2.54,2.54,0,0,1-1.61-.82l-1.33-1.33a2.51,2.51,0,0,1-.82-1.61A1.84,1.84,0,0,1,214,208a1.87,1.87,0,0,1,1.5-.6,2.51,2.51,0,0,1,1.61.82Zm-2.07-.85a1.72,1.72,0,0,0-1-.55,1.07,1.07,0,0,0-.9.33,1,1,0,0,0-.32.89,1.78,1.78,0,0,0,.55,1l1.59,1.58a1.72,1.72,0,0,0,1,.55,1.12,1.12,0,0,0,1.22-1.22,1.74,1.74,0,0,0-.56-1Z"/><path d="M381.05,228.49l0,0-2.23-5.12.76-.76,4.53,4.52-.61.62-3.39-3.39h0l2,4.77-.43.42-4.92-2.09v0l3.5,3.5-.61.61-4.53-4.52.81-.81Z"/><path d="M387.17,224.07l-.32-.22a2.52,2.52,0,0,1-.25-.21,2.05,2.05,0,0,1,0,.85,1.66,1.66,0,0,1-.43.75,1.6,1.6,0,0,1-1.07.54,1.46,1.46,0,0,1-1-.47,1.22,1.22,0,0,1-.36-1.14,2.51,2.51,0,0,1,.79-1.33l.66-.67-.33-.33a.88.88,0,0,0-.65-.29,1.2,1.2,0,0,0-1,1,.61.61,0,0,0,.17.54l-.57.59h0a1.14,1.14,0,0,1-.33-1,2,2,0,0,1,.64-1.25,2,2,0,0,1,1.21-.63,1.51,1.51,0,0,1,1.19.49l1.62,1.62q.18.18.36.33a2.48,2.48,0,0,0,.4.26Zm-1.46.57a1.51,1.51,0,0,0,.42-.77,1.14,1.14,0,0,0,0-.74l-.55-.54-.68.68a1.3,1.3,0,0,0-.41.78.8.8,0,0,0,.22.66.62.62,0,0,0,.49.21A.83.83,0,0,0,385.71,224.64Z"/><path d="M387.37,218.23l-.33.29a1,1,0,0,0-.29.53,1,1,0,0,0,.06.58l2.4,2.4-.61.61-3.36-3.36.55-.55.55.43a1.67,1.67,0,0,1-.06-.76,1.3,1.3,0,0,1,.34-.63l.14-.12.13-.08Z"/><path d="M391.07,216.83l-1.84,1.84-.48-.48,1.84-1.84Z"/><path d="M396.53,214.71l-2.81,2.81-.42-.42L393,214a6.56,6.56,0,0,0-.22-1.25,1.72,1.72,0,0,0-.41-.68,1,1,0,0,0-.7-.33,1,1,0,0,0-.71.3,1.09,1.09,0,0,0-.36.86,1.28,1.28,0,0,0,.4.82l-.59.59h0a1.75,1.75,0,0,1-.56-1.31,2,2,0,0,1,.66-1.43,1.89,1.89,0,0,1,1.29-.62,1.65,1.65,0,0,1,1.21.52,2,2,0,0,1,.51.9,11.65,11.65,0,0,1,.25,1.46l.2,2.47h0l2.06-2.06Z"/><path d="M399,212.2l-.61.61-4-4-1,1-.47-.47,1.43-1.77Z"/><path d="M230.59,229h0l-2.23-5.13.76-.76,4.53,4.53-.62.61-3.39-3.39,0,0,2,4.76-.42.42-4.92-2.09v0l3.5,3.5-.61.62-4.53-4.53.81-.8Z"/><path d="M236.71,224.54l-.32-.22-.25-.22a2,2,0,0,1,0,.85,1.73,1.73,0,0,1-1.49,1.29,1.4,1.4,0,0,1-1-.47,1.22,1.22,0,0,1-.36-1.14,2.59,2.59,0,0,1,.78-1.33l.67-.67-.33-.33a.9.9,0,0,0-.65-.29,1,1,0,0,0-.68.34,1.1,1.1,0,0,0-.34.63.64.64,0,0,0,.18.54l-.58.59h0a1.14,1.14,0,0,1-.33-1,2,2,0,0,1,.64-1.24,1.87,1.87,0,0,1,1.21-.63,1.45,1.45,0,0,1,1.18.48l1.62,1.62c.12.12.25.23.37.33a2.11,2.11,0,0,0,.4.26Zm-1.47.56a1.48,1.48,0,0,0,.43-.77,1.14,1.14,0,0,0,0-.74l-.55-.54-.69.68a1.28,1.28,0,0,0-.4.78.79.79,0,0,0,.22.66.66.66,0,0,0,.49.22A.81.81,0,0,0,235.24,225.1Z"/><path d="M237.88,220.88l.53.31,0,0-1.72-3.37.68-.68,2.47,5.3a2.48,2.48,0,0,1,.22,1,1.16,1.16,0,0,1-.39.89,2,2,0,0,1-.2.18l-.21.14-.42-.54s0,0,.11-.11l.18-.15a.51.51,0,0,0,.14-.49,2.7,2.7,0,0,0-.17-.6l-.21-.49-4.54-2,.68-.68Z"/><path d="M241.53,216.37l-1.83,1.83-.48-.48,1.83-1.83Z"/><path d="M247,214.25l-2.81,2.81-.42-.42-.27-3.11a5.84,5.84,0,0,0-.22-1.25,1.72,1.72,0,0,0-.41-.68,1.08,1.08,0,0,0-.7-.34,1,1,0,0,0-.7.31,1.08,1.08,0,0,0-.37.86,1.28,1.28,0,0,0,.4.82l-.59.59h0a1.74,1.74,0,0,1-.57-1.31,2,2,0,0,1,.66-1.43,1.91,1.91,0,0,1,1.29-.62,1.65,1.65,0,0,1,1.22.52,2,2,0,0,1,.5.9,11.06,11.06,0,0,1,.26,1.46l.19,2.47h0l2.06-2.06Z"/><path d="M248.93,209.11a2.51,2.51,0,0,1,.83,1.61,1.85,1.85,0,0,1-.6,1.49,1.87,1.87,0,0,1-1.5.6,2.46,2.46,0,0,1-1.61-.82l-1.33-1.33a2.54,2.54,0,0,1-.82-1.6,1.83,1.83,0,0,1,.6-1.49A1.91,1.91,0,0,1,246,207a2.54,2.54,0,0,1,1.6.82Zm-2.06-.84a1.8,1.8,0,0,0-1-.56,1,1,0,0,0-.9.34,1,1,0,0,0-.33.89,1.75,1.75,0,0,0,.56,1l1.58,1.59a1.78,1.78,0,0,0,1,.55,1,1,0,0,0,.9-.32,1.07,1.07,0,0,0,.33-.9,1.87,1.87,0,0,0-.56-1Z"/><path d="M410.59,229h0l-2.23-5.13.76-.76,4.53,4.53-.62.61-3.39-3.39,0,0,2,4.76-.42.42-4.92-2.09v0l3.5,3.5-.61.62-4.53-4.53.81-.8Z"/><path d="M416.71,224.54l-.32-.22-.25-.22a2,2,0,0,1-.05.85,1.73,1.73,0,0,1-1.49,1.29,1.4,1.4,0,0,1-1-.47,1.22,1.22,0,0,1-.36-1.14,2.59,2.59,0,0,1,.78-1.33l.67-.67-.33-.33a.9.9,0,0,0-.65-.29,1.05,1.05,0,0,0-.69.34,1.08,1.08,0,0,0-.33.63.64.64,0,0,0,.18.54l-.58.59h0a1.14,1.14,0,0,1-.33-1,2,2,0,0,1,.64-1.24,1.87,1.87,0,0,1,1.21-.63,1.45,1.45,0,0,1,1.18.48l1.62,1.62c.12.12.25.23.37.33a2.11,2.11,0,0,0,.4.26Zm-1.47.56a1.48,1.48,0,0,0,.43-.77,1.14,1.14,0,0,0,0-.74l-.55-.54-.69.68a1.28,1.28,0,0,0-.4.78.79.79,0,0,0,.22.66.66.66,0,0,0,.49.22A.81.81,0,0,0,415.24,225.1Z"/><path d="M417.88,220.88l.53.31,0,0-1.72-3.37.68-.68,2.47,5.3a2.48,2.48,0,0,1,.22,1,1.16,1.16,0,0,1-.39.89,2,2,0,0,1-.2.18l-.21.14-.42-.54s0,0,.11-.11l.18-.15a.51.51,0,0,0,.14-.49,2.7,2.7,0,0,0-.17-.6l-.21-.49-4.54-2,.68-.68Z"/><path d="M421.53,216.37l-1.83,1.83-.48-.48,1.83-1.83Z"/><path d="M427,214.25l-2.81,2.81-.42-.42-.27-3.11a5.84,5.84,0,0,0-.22-1.25,1.72,1.72,0,0,0-.41-.68,1.08,1.08,0,0,0-.7-.34,1,1,0,0,0-.71.31,1.11,1.11,0,0,0-.36.86,1.28,1.28,0,0,0,.4.82l-.59.59h0a1.74,1.74,0,0,1-.57-1.31,2,2,0,0,1,.66-1.43,1.91,1.91,0,0,1,1.29-.62,1.65,1.65,0,0,1,1.22.52,2,2,0,0,1,.5.9,11.06,11.06,0,0,1,.26,1.46l.19,2.47h0l2.06-2.06Z"/><path d="M429.51,211.74l-.62.61-4-4-1,1-.48-.48,1.44-1.76Z"/><path d="M410.59,229h0l-2.23-5.13.76-.76,4.53,4.53-.62.61-3.39-3.39,0,0,2,4.76-.42.42-4.92-2.09v0l3.5,3.5-.61.62-4.53-4.53.81-.8Z"/><path d="M416.71,224.54l-.32-.22-.25-.22a2,2,0,0,1-.05.85,1.73,1.73,0,0,1-1.49,1.29,1.4,1.4,0,0,1-1-.47,1.22,1.22,0,0,1-.36-1.14,2.59,2.59,0,0,1,.78-1.33l.67-.67-.33-.33a.9.9,0,0,0-.65-.29,1.05,1.05,0,0,0-.69.34,1.08,1.08,0,0,0-.33.63.64.64,0,0,0,.18.54l-.58.59h0a1.14,1.14,0,0,1-.33-1,2,2,0,0,1,.64-1.24,1.87,1.87,0,0,1,1.21-.63,1.45,1.45,0,0,1,1.18.48l1.62,1.62c.12.12.25.23.37.33a2.11,2.11,0,0,0,.4.26Zm-1.47.56a1.48,1.48,0,0,0,.43-.77,1.14,1.14,0,0,0,0-.74l-.55-.54-.69.68a1.28,1.28,0,0,0-.4.78.79.79,0,0,0,.22.66.66.66,0,0,0,.49.22A.81.81,0,0,0,415.24,225.1Z"/><path d="M417.88,220.88l.53.31,0,0-1.72-3.37.68-.68,2.47,5.3a2.48,2.48,0,0,1,.22,1,1.16,1.16,0,0,1-.39.89,2,2,0,0,1-.2.18l-.21.14-.42-.54s0,0,.11-.11l.18-.15a.51.51,0,0,0,.14-.49,2.7,2.7,0,0,0-.17-.6l-.21-.49-4.54-2,.68-.68Z"/><path d="M421.53,216.37l-1.83,1.83-.48-.48,1.83-1.83Z"/><path d="M427,214.25l-2.81,2.81-.42-.42-.27-3.11a5.84,5.84,0,0,0-.22-1.25,1.72,1.72,0,0,0-.41-.68,1.08,1.08,0,0,0-.7-.34,1,1,0,0,0-.71.31,1.11,1.11,0,0,0-.36.86,1.28,1.28,0,0,0,.4.82l-.59.59h0a1.74,1.74,0,0,1-.57-1.31,2,2,0,0,1,.66-1.43,1.91,1.91,0,0,1,1.29-.62,1.65,1.65,0,0,1,1.22.52,2,2,0,0,1,.5.9,11.06,11.06,0,0,1,.26,1.46l.19,2.47h0l2.06-2.06Z"/><path d="M429.51,211.74l-.62.61-4-4-1,1-.48-.48,1.44-1.76Z"/><polyline class="cls-4" points="33.83 74.96 208.93 74.96 304.56 72.9 390.88 72.43 447.67 72.9 474.18 73.08"/><polyline class="cls-5" points="33.83 78.87 130.01 78.87 214.13 78.4 301.68 77.37 385.77 77.45 425.54 78.12 474 78.26"/><polyline class="cls-6" points="33.83 93.03 120.48 94.58 227.97 93.8 321.28 93.8 404.72 94.58 474.18 94.58"/><path class="cls-7" d="M179.82,257.41l1.13-1.13h0l4.33-4.33L181,247.62h0l-1.13-1.13L174.36,252Zm-4-6.21.75.75-.75.75-.76-.75Zm8,1.5-.75-.75.75-.75.76.75Zm-3.22,3.23h0l-.78.78-1.77-1.77,1.42-1.42L178,252.07,177,253.13l.73.73.35-.36-.37-.37.35-.36.75.75-1.06,1.07-1.53-1.53,1.1-1.11-1.1-1.11,1.53-1.53,1.06,1.06-.75.76-.35-.36.37-.37-.35-.36-.73.73,1.06,1.06,1.46-1.46L178.05,249l1-1h0l.78-.78.78.78h0l1,1-1.41,1.41,1.46,1.46,1.06-1.06L182,250l-.35.36.37.37-.35.36-.76-.76,1.07-1.06,1.53,1.53L182.36,252l1.11,1.11-1.53,1.53-1.07-1.07.76-.75.35.36-.37.37.35.36.73-.73-1.06-1.06-1.46,1.45,1.41,1.42Z"/><rect class="cls-7" x="178.96" y="254.06" width="1.72" height="1.72" transform="translate(487.23 308.03) rotate(135)"/><rect class="cls-7" x="178.96" y="248.08" width="1.72" height="1.72" transform="translate(483 297.82) rotate(135)"/><path d="M192.66,251.73v2.77h-.86v-6.4H194a2.42,2.42,0,0,1,1.6.47,1.67,1.67,0,0,1,.55,1.36,1.44,1.44,0,0,1-.25.85,1.72,1.72,0,0,1-.75.58,1.36,1.36,0,0,1,.76.56,1.83,1.83,0,0,1,.23,1v.6a2.23,2.23,0,0,0,.06.54.81.81,0,0,0,.23.38v.11h-.89a.69.69,0,0,1-.22-.44,3.83,3.83,0,0,1-.05-.6v-.58a1.17,1.17,0,0,0-.3-.84,1.1,1.1,0,0,0-.82-.31Zm0-.68h1.24a1.61,1.61,0,0,0,1-.28,1.06,1.06,0,0,0,.33-.85,1.11,1.11,0,0,0-.32-.84,1.36,1.36,0,0,0-1-.3h-1.33Z"/><path d="M200.42,253.8a1.7,1.7,0,0,1-.57.59,1.68,1.68,0,0,1-.81.2,1.51,1.51,0,0,1-1.22-.5,2.28,2.28,0,0,1-.43-1.54v-2.81h.86v2.82a1.75,1.75,0,0,0,.23,1,.84.84,0,0,0,.7.29,1.38,1.38,0,0,0,.76-.19,1.12,1.12,0,0,0,.45-.53v-3.43h.87v4.76h-.78Z"/><path d="M204.77,250.51l-.44,0a1,1,0,0,0-.58.17,1,1,0,0,0-.36.45v3.4h-.87v-4.76h.77l.09.7a1.59,1.59,0,0,1,.5-.58,1.19,1.19,0,0,1,.68-.2h.18l.15,0Z"/><path d="M208.59,254.5c0-.14-.05-.27-.07-.38s0-.22,0-.33a1.93,1.93,0,0,1-.63.57,1.66,1.66,0,0,1-.84.23,1.52,1.52,0,0,1-1.13-.38,1.39,1.39,0,0,1-.39-1.05,1.21,1.21,0,0,1,.55-1.06,2.57,2.57,0,0,1,1.5-.39h.94v-.47a.88.88,0,0,0-.26-.66,1,1,0,0,0-.72-.24,1,1,0,0,0-.68.21.64.64,0,0,0-.26.5h-.82v0a1.12,1.12,0,0,1,.49-.95,2,2,0,0,1,1.33-.43,1.93,1.93,0,0,1,1.3.41,1.44,1.44,0,0,1,.49,1.18v2.29a3.79,3.79,0,0,0,0,.49,2.46,2.46,0,0,0,.1.47Zm-1.43-.63a1.46,1.46,0,0,0,.84-.25,1.13,1.13,0,0,0,.5-.55v-.77h-1a1.29,1.29,0,0,0-.83.26.8.8,0,0,0-.32.62.65.65,0,0,0,.2.5A.85.85,0,0,0,207.16,253.87Z"/><path d="M211.56,254.5h-.87v-6.86h.87Z"/><path class="cls-8" d="M239.82,257.41l1.13-1.13h0l4.33-4.33L241,247.62h0l-1.13-1.13L234.36,252Zm-4-6.21.75.75-.75.75-.76-.75Zm8,1.5-.75-.75.75-.75.76.75Zm-3.22,3.23h0l-.78.78-1.77-1.77,1.42-1.42L238,252.07,237,253.13l.73.73.35-.36-.37-.37.35-.36.75.75-1.06,1.07-1.53-1.53,1.1-1.11-1.1-1.11,1.53-1.53,1.06,1.06-.75.76-.35-.36.37-.37-.35-.36-.73.73,1.06,1.06,1.46-1.46L238.05,249l1-1h0l.78-.78.78.78h0l1,1-1.41,1.41,1.46,1.46,1.06-1.06L242,250l-.35.36.37.37-.35.36-.76-.76,1.07-1.06,1.53,1.53L242.36,252l1.11,1.11-1.53,1.53-1.07-1.07.76-.75.35.36-.37.37.35.36.73-.73-1.06-1.06-1.46,1.45,1.41,1.42Z"/><rect class="cls-8" x="238.96" y="254.06" width="1.72" height="1.72" transform="translate(589.65 265.6) rotate(135)"/><rect class="cls-8" x="238.96" y="248.08" width="1.72" height="1.72" transform="translate(585.42 255.39) rotate(135)"/><path d="M256.52,248.1v4.25a2.07,2.07,0,0,1-.69,1.65,2.62,2.62,0,0,1-1.76.59,2.48,2.48,0,0,1-1.71-.59,2.12,2.12,0,0,1-.66-1.65V248.1h.86v4.25a1.55,1.55,0,0,0,.42,1.15,1.47,1.47,0,0,0,1.09.42,1.59,1.59,0,0,0,1.14-.42,1.52,1.52,0,0,0,.44-1.15V248.1Z"/><path d="M260,250.51l-.44,0a1,1,0,0,0-.58.17,1,1,0,0,0-.36.45v3.4h-.87v-4.76h.77l.09.7a1.59,1.59,0,0,1,.5-.58,1.19,1.19,0,0,1,.68-.2H260l.15,0Z"/><path d="M265,252.3a2.6,2.6,0,0,1-.49,1.66,1.64,1.64,0,0,1-1.36.63,1.7,1.7,0,0,1-.83-.19,1.43,1.43,0,0,1-.57-.55l-.14.65h-.67v-6.86h.87v2.67a1.51,1.51,0,0,1,.55-.49,1.73,1.73,0,0,1,.78-.16,1.58,1.58,0,0,1,1.37.7,3.14,3.14,0,0,1,.49,1.85Zm-.86-.09a2.73,2.73,0,0,0-.3-1.33,1,1,0,0,0-.92-.52,1.24,1.24,0,0,0-.68.19,1.5,1.5,0,0,0-.43.53v2.06a1.34,1.34,0,0,0,.43.55,1.15,1.15,0,0,0,.69.2,1,1,0,0,0,.91-.44,2,2,0,0,0,.3-1.15Z"/><path d="M269,254.5c0-.14,0-.27-.07-.38a1.84,1.84,0,0,1,0-.33,1.93,1.93,0,0,1-.63.57,1.66,1.66,0,0,1-.84.23,1.53,1.53,0,0,1-1.13-.38,1.39,1.39,0,0,1-.39-1.05,1.23,1.23,0,0,1,.55-1.06,2.57,2.57,0,0,1,1.5-.39h.94v-.47a.87.87,0,0,0-.25-.66,1,1,0,0,0-.72-.24,1.07,1.07,0,0,0-.69.21.63.63,0,0,0-.25.5h-.83v0a1.14,1.14,0,0,1,.49-.95,2,2,0,0,1,1.33-.43,2,2,0,0,1,1.31.41,1.47,1.47,0,0,1,.49,1.18v2.29c0,.17,0,.34,0,.49a2.46,2.46,0,0,0,.1.47Zm-1.44-.63a1.47,1.47,0,0,0,.85-.25,1.1,1.1,0,0,0,.49-.55v-.77h-1a1.3,1.3,0,0,0-.84.26.79.79,0,0,0-.31.62.65.65,0,0,0,.2.5A.82.82,0,0,0,267.52,253.87Z"/><path d="M271.76,249.74l.06.71a1.64,1.64,0,0,1,.59-.58,1.59,1.59,0,0,1,.82-.21,1.55,1.55,0,0,1,1.19.45,2,2,0,0,1,.42,1.39v3H274v-3a1.33,1.33,0,0,0-.25-.89,1,1,0,0,0-.76-.26,1.32,1.32,0,0,0-.68.16,1.19,1.19,0,0,0-.44.45v3.53H271v-4.76Z"/><path class="cls-9" d="M299.82,257.41l1.13-1.13h0l4.33-4.33L301,247.62h0l-1.13-1.13L294.36,252Zm-4-6.21.75.75-.75.75-.76-.75Zm8,1.5-.75-.75.75-.75.76.75Zm-3.22,3.23h0l-.78.78-1.77-1.77,1.42-1.42L298,252.07,297,253.13l.73.73.35-.36-.37-.37.35-.36.75.75-1.06,1.07-1.53-1.53,1.1-1.11-1.1-1.11,1.53-1.53,1.06,1.06-.75.76-.35-.36.37-.37-.35-.36-.73.73,1.06,1.06,1.46-1.46L298.05,249l1-1h0l.78-.78.78.78h0l1,1-1.41,1.41,1.46,1.46,1.06-1.06L302,250l-.35.36.37.37-.35.36-.76-.76,1.07-1.06,1.53,1.53L302.36,252l1.11,1.11-1.53,1.53-1.07-1.07.76-.75.35.36-.37.37.35.36.73-.73-1.06-1.06-1.46,1.45,1.41,1.42Z"/><rect class="cls-9" x="298.96" y="254.06" width="1.72" height="1.72" transform="translate(692.08 223.17) rotate(135)"/><rect class="cls-9" x="298.96" y="248.08" width="1.72" height="1.72" transform="translate(687.85 212.97) rotate(135)"/><path d="M316.27,248.78h-2.11v5.72h-.86v-5.72h-2.09v-.68h5.06Z"/><path d="M316.42,252.08a2.58,2.58,0,0,1,.58-1.74,1.89,1.89,0,0,1,1.55-.68,1.91,1.91,0,0,1,1.56.68,2.6,2.6,0,0,1,.57,1.74v.1a2.64,2.64,0,0,1-.57,1.74,2.13,2.13,0,0,1-3.11,0,2.6,2.6,0,0,1-.58-1.73Zm.87.1a2.26,2.26,0,0,0,.32,1.24,1.14,1.14,0,0,0,1.89,0,2.26,2.26,0,0,0,.32-1.24v-.1a2.32,2.32,0,0,0-.32-1.25,1.07,1.07,0,0,0-.95-.49,1,1,0,0,0-.94.49,2.32,2.32,0,0,0-.32,1.25Z"/><path d="M323,248.6v1.14h.9v.65H323v2.88a.6.6,0,0,0,.14.47.49.49,0,0,0,.36.14l.17,0,.15,0,.12.59a.73.73,0,0,1-.28.13,1.73,1.73,0,0,1-.38.05,1.1,1.1,0,0,1-.84-.32,1.36,1.36,0,0,1-.31-1v-2.88h-.75v-.65h.75V248.6Z"/><path d="M327.7,254.5c0-.14-.05-.27-.07-.38a1.84,1.84,0,0,1,0-.33,1.93,1.93,0,0,1-.63.57,1.66,1.66,0,0,1-.84.23,1.53,1.53,0,0,1-1.13-.38,1.39,1.39,0,0,1-.39-1.05,1.23,1.23,0,0,1,.55-1.06,2.57,2.57,0,0,1,1.5-.39h.94v-.47a.88.88,0,0,0-.26-.66,1,1,0,0,0-.72-.24,1.06,1.06,0,0,0-.68.21.64.64,0,0,0-.26.5h-.82v0a1.14,1.14,0,0,1,.49-.95,2,2,0,0,1,1.33-.43,1.91,1.91,0,0,1,1.3.41,1.45,1.45,0,0,1,.5,1.18v2.29a3.85,3.85,0,0,0,0,.49,2.46,2.46,0,0,0,.1.47Zm-1.44-.63a1.49,1.49,0,0,0,.85-.25,1.15,1.15,0,0,0,.49-.55v-.77h-1a1.3,1.3,0,0,0-.84.26.79.79,0,0,0-.31.62.65.65,0,0,0,.19.5A.87.87,0,0,0,326.26,253.87Z"/><path d="M330.66,254.5h-.87v-6.86h.87Z"/><path d="M25.92,102.28a1.76,1.76,0,0,1-.64-.75,3.07,3.07,0,0,1,0-2.33,1.76,1.76,0,0,1,.64-.75,1.72,1.72,0,0,1,2.5.75,3.07,3.07,0,0,1,0,2.33,1.75,1.75,0,0,1-2.5.75Zm1.54-.9a2.58,2.58,0,0,0,0-2,.7.7,0,0,0-.61-.33.67.67,0,0,0-.59.33,2.47,2.47,0,0,0,0,2,.67.67,0,0,0,.59.33A.7.7,0,0,0,27.46,101.38Z"/><path d="M30,101.51a.53.53,0,0,1,.16.41,1,1,0,0,1,0,.24,2.38,2.38,0,0,1-.13.36l-.34.87h-.59l.26-1a.5.5,0,0,1-.24-.19.57.57,0,0,1-.09-.32.53.53,0,0,1,.17-.41.57.57,0,0,1,.42-.16A.56.56,0,0,1,30,101.51Z"/><path d="M33.49,100.39a1.13,1.13,0,0,1,.29.79,1.21,1.21,0,0,1-.19.67,1.3,1.3,0,0,1-.58.5,2.36,2.36,0,0,1-1,.19,3.26,3.26,0,0,1-.87-.12,2.34,2.34,0,0,1-.73-.33l.38-.75a1.9,1.9,0,0,0,.55.28,2.05,2.05,0,0,0,.65.1,1,1,0,0,0,.57-.14.44.44,0,0,0,.21-.4c0-.34-.26-.52-.78-.52h-.44V100l.86-1H30.65v-.78h2.94v.63l-1,1.08A1.41,1.41,0,0,1,33.49,100.39Z"/><path d="M37.34,101.67v.79H34.17v-.63l1.62-1.53a1.41,1.41,0,0,0,.34-.42.76.76,0,0,0,.09-.35.45.45,0,0,0-.17-.39.79.79,0,0,0-.5-.13,1.18,1.18,0,0,0-.5.1,1,1,0,0,0-.37.32L34,99a1.74,1.74,0,0,1,.68-.57,2.25,2.25,0,0,1,1-.21,2.07,2.07,0,0,1,.82.15,1.28,1.28,0,0,1,.55.44,1.08,1.08,0,0,1,.19.65,1.44,1.44,0,0,1-.14.65,2.54,2.54,0,0,1-.56.68l-1,.91Z"/><path d="M38,100.22a1.38,1.38,0,0,1,0-1.69,1,1,0,0,1,.75-.31,1,1,0,0,1,.75.31,1.38,1.38,0,0,1,0,1.69,1,1,0,0,1-.75.31A1,1,0,0,1,38,100.22Zm1.08-.35a1,1,0,0,0,.11-.5.91.91,0,0,0-.11-.49.37.37,0,0,0-.33-.17.35.35,0,0,0-.31.17.84.84,0,0,0-.12.49.86.86,0,0,0,.12.5.37.37,0,0,0,.31.17A.39.39,0,0,0,39.1,99.87Zm2.18-1.61H42l-2.87,4.2h-.71Zm-.19,4.11a1,1,0,0,1-.37-.4,1.35,1.35,0,0,1-.13-.62,1.33,1.33,0,0,1,.13-.61,1,1,0,0,1,.37-.4,1,1,0,0,1,.54-.14,1,1,0,0,1,.75.31,1.38,1.38,0,0,1,0,1.69,1,1,0,0,1-.75.31A1,1,0,0,1,41.09,102.37Zm.86-.52a1,1,0,0,0,.11-.5.94.94,0,0,0-.11-.49.36.36,0,0,0-.32-.17.35.35,0,0,0-.32.17.82.82,0,0,0-.12.49.86.86,0,0,0,.12.5.37.37,0,0,0,.32.17A.39.39,0,0,0,42,101.85Z"/><path d="M108.81,103.28a1.76,1.76,0,0,1-.64-.75,3.07,3.07,0,0,1,0-2.33,1.76,1.76,0,0,1,.64-.75,1.72,1.72,0,0,1,2.5.75,3.07,3.07,0,0,1,0,2.33,1.75,1.75,0,0,1-2.5.75Zm1.53-.9a2.47,2.47,0,0,0,0-2,.67.67,0,0,0-.6-.33.69.69,0,0,0-.6.33,2.47,2.47,0,0,0,0,2,.69.69,0,0,0,.6.33A.67.67,0,0,0,110.34,102.38Z"/><path d="M112.91,102.51a.53.53,0,0,1,.16.41,1,1,0,0,1,0,.24,2.38,2.38,0,0,1-.13.36l-.34.87H112l.27-1a.5.5,0,0,1-.24-.19.57.57,0,0,1-.09-.32.53.53,0,0,1,.17-.41.57.57,0,0,1,.42-.16A.56.56,0,0,1,112.91,102.51Z"/><path d="M116.38,101.39a1.13,1.13,0,0,1,.29.79,1.21,1.21,0,0,1-.19.67,1.28,1.28,0,0,1-.59.5,2.28,2.28,0,0,1-1,.19,3.15,3.15,0,0,1-.87-.12,2.34,2.34,0,0,1-.73-.33l.38-.75a1.9,1.9,0,0,0,.55.28,2.05,2.05,0,0,0,.65.1,1,1,0,0,0,.57-.14.46.46,0,0,0,.21-.4c0-.34-.26-.52-.78-.52h-.45V101l.87-1h-1.79v-.78h2.94v.63l-1,1.08A1.41,1.41,0,0,1,116.38,101.39Z"/><path d="M118.74,99.26v4.2h-1V100h-.84v-.78Z"/><path d="M122.22,101.2a1.14,1.14,0,0,1,.43.94,1.3,1.3,0,0,1-.2.7,1.33,1.33,0,0,1-.58.51,2.33,2.33,0,0,1-1,.19,3.15,3.15,0,0,1-.87-.12,2.34,2.34,0,0,1-.73-.33l.38-.75a2.07,2.07,0,0,0,1.2.38,1,1,0,0,0,.57-.14.47.47,0,0,0,.21-.41.43.43,0,0,0-.22-.4,1.41,1.41,0,0,0-.76-.14h-1.07l.22-2.37h2.56V100h-1.75l-.07.8h.34A2,2,0,0,1,122.22,101.2Z"/><path d="M123.2,101.22a1.38,1.38,0,0,1,0-1.69,1.07,1.07,0,0,1,1.51,0,1.42,1.42,0,0,1,0,1.69,1.07,1.07,0,0,1-1.51,0Zm1.08-.35a1,1,0,0,0,.11-.5.91.91,0,0,0-.11-.49.36.36,0,0,0-.32-.17.35.35,0,0,0-.32.17.84.84,0,0,0-.12.49.86.86,0,0,0,.12.5.37.37,0,0,0,.32.17A.39.39,0,0,0,124.28,100.87Zm2.18-1.61h.71l-2.87,4.2h-.71Zm-.19,4.11a1,1,0,0,1-.37-.4,1.35,1.35,0,0,1-.13-.62,1.33,1.33,0,0,1,.13-.61,1,1,0,0,1,.37-.4,1,1,0,0,1,.54-.14,1,1,0,0,1,.75.31,1.38,1.38,0,0,1,0,1.69,1,1,0,0,1-.75.31A1,1,0,0,1,126.27,103.37Zm.86-.52a1,1,0,0,0,.11-.5.94.94,0,0,0-.11-.49.36.36,0,0,0-.32-.17.35.35,0,0,0-.32.17.82.82,0,0,0-.12.49.86.86,0,0,0,.12.5.37.37,0,0,0,.32.17A.39.39,0,0,0,127.13,102.85Z"/><path d="M288.65,102.28a1.76,1.76,0,0,1-.64-.75,3.07,3.07,0,0,1,0-2.33,1.67,1.67,0,0,1,1.58-1,1.7,1.7,0,0,1,.92.26,1.63,1.63,0,0,1,.64.75,3.07,3.07,0,0,1,0,2.33,1.63,1.63,0,0,1-.64.75,1.7,1.7,0,0,1-.92.26A1.77,1.77,0,0,1,288.65,102.28Zm1.54-.9a2.47,2.47,0,0,0,0-2,.69.69,0,0,0-.6-.33.67.67,0,0,0-.6.33,2.47,2.47,0,0,0,0,2,.67.67,0,0,0,.6.33A.69.69,0,0,0,290.19,101.38Z"/><path d="M292.75,101.51a.53.53,0,0,1,.17.41,1,1,0,0,1,0,.24,2.38,2.38,0,0,1-.13.36l-.34.87h-.59l.26-1a.5.5,0,0,1-.24-.19.66.66,0,0,1-.08-.32.53.53,0,0,1,.16-.41.57.57,0,0,1,.42-.16A.54.54,0,0,1,292.75,101.51Z"/><path d="M296.22,100.39a1.09,1.09,0,0,1,.29.79,1.21,1.21,0,0,1-.19.67,1.3,1.3,0,0,1-.58.5,2.33,2.33,0,0,1-1,.19,3.26,3.26,0,0,1-.87-.12,2.45,2.45,0,0,1-.73-.33l.38-.75a2,2,0,0,0,.55.28,2.1,2.1,0,0,0,.65.1,1.08,1.08,0,0,0,.58-.14.46.46,0,0,0,.21-.4c0-.34-.27-.52-.79-.52h-.44V100l.86-1h-1.79v-.78h2.94v.63l-.95,1.08A1.41,1.41,0,0,1,296.22,100.39Z"/><path d="M298.58,98.26v4.2h-1V99h-.84v-.78Z"/><path d="M302.17,98.73a2.19,2.19,0,0,1,.5,1.54,2.6,2.6,0,0,1-.27,1.23,1.75,1.75,0,0,1-.75.77,2.26,2.26,0,0,1-1.12.27,2.61,2.61,0,0,1-.64-.08,1.83,1.83,0,0,1-.53-.21l.36-.72a1.39,1.39,0,0,0,.79.21,1.14,1.14,0,0,0,.85-.31,1.32,1.32,0,0,0,.33-.91,1.41,1.41,0,0,1-1,.38,1.74,1.74,0,0,1-.73-.16,1.4,1.4,0,0,1-.53-.46,1.38,1.38,0,0,1,0-1.43,1.4,1.4,0,0,1,.58-.49,1.91,1.91,0,0,1,.8-.17A1.78,1.78,0,0,1,302.17,98.73Zm-.79,1.26a.53.53,0,0,0,.2-.45.58.58,0,0,0-.19-.45.81.81,0,0,0-.54-.17.73.73,0,0,0-.51.17.55.55,0,0,0-.19.45.58.58,0,0,0,.19.46.81.81,0,0,0,.52.17A.73.73,0,0,0,301.38,100Z"/><path d="M303.36,100.22a1.38,1.38,0,0,1,0-1.69,1.06,1.06,0,0,1,1.5,0,1.38,1.38,0,0,1,0,1.69,1.06,1.06,0,0,1-1.5,0Zm1.07-.35a.86.86,0,0,0,.12-.5.82.82,0,0,0-.12-.49.35.35,0,0,0-.32-.17.36.36,0,0,0-.32.17.84.84,0,0,0-.12.49.86.86,0,0,0,.12.5.39.39,0,0,0,.32.17A.37.37,0,0,0,304.43,99.87Zm2.18-1.61h.72l-2.87,4.2h-.72Zm-.19,4.11a1,1,0,0,1-.37-.4,1.52,1.52,0,0,1,0-1.23,1,1,0,0,1,.37-.4,1,1,0,0,1,.54-.14,1,1,0,0,1,.75.31,1.38,1.38,0,0,1,0,1.69,1,1,0,0,1-.75.31A1,1,0,0,1,306.42,102.37Zm.86-.52a.88.88,0,0,0,.12-.5.84.84,0,0,0-.12-.49.35.35,0,0,0-.32-.17.36.36,0,0,0-.32.17.82.82,0,0,0-.12.49.86.86,0,0,0,.12.5.39.39,0,0,0,.32.17A.37.37,0,0,0,307.28,101.85Z"/><path d="M378.81,102.28a1.76,1.76,0,0,1-.64-.75,3.07,3.07,0,0,1,0-2.33,1.76,1.76,0,0,1,.64-.75,1.72,1.72,0,0,1,2.5.75,3.07,3.07,0,0,1,0,2.33,1.75,1.75,0,0,1-2.5.75Zm1.53-.9a2.47,2.47,0,0,0,0-2,.67.67,0,0,0-.6-.33.69.69,0,0,0-.6.33,2.47,2.47,0,0,0,0,2,.69.69,0,0,0,.6.33A.67.67,0,0,0,380.34,101.38Z"/><path d="M382.91,101.51a.53.53,0,0,1,.16.41,1,1,0,0,1,0,.24,2.38,2.38,0,0,1-.13.36l-.34.87H382l.27-1a.5.5,0,0,1-.24-.19.57.57,0,0,1-.09-.32.53.53,0,0,1,.17-.41.57.57,0,0,1,.42-.16A.56.56,0,0,1,382.91,101.51Z"/><path d="M386.38,100.39a1.13,1.13,0,0,1,.29.79,1.21,1.21,0,0,1-.19.67,1.28,1.28,0,0,1-.59.5,2.28,2.28,0,0,1-1,.19,3.15,3.15,0,0,1-.87-.12,2.34,2.34,0,0,1-.73-.33l.38-.75a1.9,1.9,0,0,0,.55.28,2.05,2.05,0,0,0,.65.1,1,1,0,0,0,.57-.14.46.46,0,0,0,.21-.4c0-.34-.26-.52-.78-.52h-.45V100l.87-1h-1.79v-.78h2.94v.63l-1,1.08A1.41,1.41,0,0,1,386.38,100.39Z"/><path d="M388.74,98.26v4.2h-1V99h-.84v-.78Z"/><path d="M392.22,100.2a1.14,1.14,0,0,1,.43.94,1.3,1.3,0,0,1-.2.7,1.33,1.33,0,0,1-.58.51,2.33,2.33,0,0,1-1,.19,3.15,3.15,0,0,1-.87-.12,2.34,2.34,0,0,1-.73-.33l.38-.75a2.07,2.07,0,0,0,1.2.38,1,1,0,0,0,.57-.14.47.47,0,0,0,.21-.41.43.43,0,0,0-.22-.4,1.41,1.41,0,0,0-.76-.14h-1.07l.22-2.37h2.56V99h-1.75l-.07.8h.34A2,2,0,0,1,392.22,100.2Z"/><path d="M393.2,100.22a1.38,1.38,0,0,1,0-1.69,1.07,1.07,0,0,1,1.51,0,1.42,1.42,0,0,1,0,1.69,1.07,1.07,0,0,1-1.51,0Zm1.08-.35a1,1,0,0,0,.11-.5.91.91,0,0,0-.11-.49.36.36,0,0,0-.32-.17.35.35,0,0,0-.32.17.84.84,0,0,0-.12.49.86.86,0,0,0,.12.5.37.37,0,0,0,.32.17A.39.39,0,0,0,394.28,99.87Zm2.18-1.61h.71l-2.87,4.2h-.71Zm-.19,4.11a1,1,0,0,1-.37-.4,1.35,1.35,0,0,1-.13-.62,1.33,1.33,0,0,1,.13-.61,1,1,0,0,1,.37-.4,1,1,0,0,1,.54-.14,1,1,0,0,1,.75.31,1.38,1.38,0,0,1,0,1.69,1,1,0,0,1-.75.31A1,1,0,0,1,396.27,102.37Zm.86-.52a1,1,0,0,0,.11-.5.94.94,0,0,0-.11-.49.36.36,0,0,0-.32-.17.35.35,0,0,0-.32.17.82.82,0,0,0-.12.49.86.86,0,0,0,.12.5.37.37,0,0,0,.32.17A.39.39,0,0,0,397.13,101.85Z"/><path d="M464.59,102.28a1.7,1.7,0,0,1-.64-.75,3.07,3.07,0,0,1,0-2.33,1.75,1.75,0,0,1,2.5-.75,1.76,1.76,0,0,1,.64.75,3.07,3.07,0,0,1,0,2.33,1.76,1.76,0,0,1-.64.75,1.79,1.79,0,0,1-1.86,0Zm1.53-.9a2.47,2.47,0,0,0,0-2,.67.67,0,0,0-.6-.33.69.69,0,0,0-.6.33,2.47,2.47,0,0,0,0,2,.69.69,0,0,0,.6.33A.67.67,0,0,0,466.12,101.38Z"/><path d="M468.69,101.51a.53.53,0,0,1,.16.41,1,1,0,0,1,0,.24c0,.08-.07.2-.13.36l-.35.87h-.59l.27-1a.5.5,0,0,1-.24-.19.57.57,0,0,1-.09-.32.53.53,0,0,1,.17-.41.56.56,0,0,1,.41-.16A.57.57,0,0,1,468.69,101.51Z"/><path d="M472.16,100.39a1.13,1.13,0,0,1,.29.79,1.21,1.21,0,0,1-.19.67,1.33,1.33,0,0,1-.59.5,2.28,2.28,0,0,1-1,.19,3.15,3.15,0,0,1-.87-.12,2.34,2.34,0,0,1-.73-.33l.38-.75a1.9,1.9,0,0,0,.55.28,2,2,0,0,0,.64.1,1.06,1.06,0,0,0,.58-.14.46.46,0,0,0,.21-.4c0-.34-.26-.52-.79-.52h-.44V100l.87-1h-1.79v-.78h2.94v.63l-.95,1.08A1.41,1.41,0,0,1,472.16,100.39Z"/><path d="M474.52,98.26v4.2h-1V99h-.84v-.78Z"/><path d="M479.1,101.58h-.69v.88h-.94v-.88H475.2v-.65l2-2.67h1l-1.83,2.53h1.13V100h.91v.79h.69Z"/><path d="M479.42,100.22a1.38,1.38,0,0,1,0-1.69,1,1,0,0,1,.76-.31,1,1,0,0,1,.75.31,1.38,1.38,0,0,1,0,1.69,1,1,0,0,1-.75.31A1,1,0,0,1,479.42,100.22Zm1.08-.35a.86.86,0,0,0,.12-.5.82.82,0,0,0-.12-.49.39.39,0,0,0-.64,0,.84.84,0,0,0-.12.49.86.86,0,0,0,.12.5.39.39,0,0,0,.64,0Zm2.18-1.61h.71l-2.86,4.2h-.72Zm-.19,4.11a1,1,0,0,1-.37-.4,1.35,1.35,0,0,1-.13-.62,1.33,1.33,0,0,1,.13-.61,1,1,0,0,1,.37-.4,1,1,0,0,1,.54-.14,1,1,0,0,1,.75.31,1.38,1.38,0,0,1,0,1.69,1,1,0,0,1-.75.31A1,1,0,0,1,482.49,102.37Zm.86-.52a.88.88,0,0,0,.12-.5.84.84,0,0,0-.12-.49.39.39,0,0,0-.64,0,.82.82,0,0,0-.12.49.86.86,0,0,0,.12.5.39.39,0,0,0,.64,0Z"/><path d="M198.69,102.28a1.7,1.7,0,0,1-.64-.75,3.07,3.07,0,0,1,0-2.33,1.75,1.75,0,0,1,2.5-.75,1.76,1.76,0,0,1,.64.75,3.07,3.07,0,0,1,0,2.33,1.76,1.76,0,0,1-.64.75,1.79,1.79,0,0,1-1.86,0Zm1.53-.9a2.47,2.47,0,0,0,0-2,.71.71,0,0,0-1.2,0,2.47,2.47,0,0,0,0,2,.71.71,0,0,0,1.2,0Z"/><path d="M202.79,101.51a.57.57,0,0,1,.16.41,1,1,0,0,1,0,.24c0,.08-.07.2-.13.36l-.35.87h-.59l.26-1a.43.43,0,0,1-.23-.19.57.57,0,0,1-.09-.32.53.53,0,0,1,.16-.41.63.63,0,0,1,.84,0Z"/><path d="M206.25,100.39a1.09,1.09,0,0,1,.3.79,1.3,1.3,0,0,1-.19.67,1.33,1.33,0,0,1-.59.5,2.28,2.28,0,0,1-1,.19,3.28,3.28,0,0,1-.88-.12,2.39,2.39,0,0,1-.72-.33l.37-.75a2,2,0,0,0,.56.28,2,2,0,0,0,.64.1,1.06,1.06,0,0,0,.58-.14.46.46,0,0,0,.21-.4c0-.34-.26-.52-.79-.52h-.44V100l.86-1h-1.78v-.78h2.94v.63l-1,1.08A1.35,1.35,0,0,1,206.25,100.39Z"/><path d="M208.62,98.26v4.2h-1V99h-.84v-.78Z"/><path d="M212.64,98.26v.63l-1.56,3.57H210l1.51-3.4h-1.39v.68h-.87V98.26Z"/><path d="M213.32,100.22a1.38,1.38,0,0,1,0-1.69,1,1,0,0,1,.76-.31,1,1,0,0,1,.75.31,1.38,1.38,0,0,1,0,1.69,1,1,0,0,1-.75.31A1,1,0,0,1,213.32,100.22Zm1.08-.35a.86.86,0,0,0,.11-.5.83.83,0,0,0-.11-.49.39.39,0,0,0-.64,0,.84.84,0,0,0-.12.49.86.86,0,0,0,.12.5.39.39,0,0,0,.64,0Zm2.18-1.61h.71l-2.87,4.2h-.71Zm-.19,4.11a1,1,0,0,1-.37-.4,1.35,1.35,0,0,1-.13-.62,1.33,1.33,0,0,1,.13-.61,1,1,0,0,1,.37-.4,1,1,0,0,1,.54-.14,1,1,0,0,1,.75.31,1.38,1.38,0,0,1,0,1.69,1,1,0,0,1-.75.31A1,1,0,0,1,216.39,102.37Zm.86-.52a.88.88,0,0,0,.12-.5.84.84,0,0,0-.12-.49.36.36,0,0,0-.32-.17.35.35,0,0,0-.32.17.82.82,0,0,0-.12.49.86.86,0,0,0,.12.5.37.37,0,0,0,.32.17A.39.39,0,0,0,217.25,101.85Z"/><path d="M25.8,87.28a1.63,1.63,0,0,1-.64-.75,3.07,3.07,0,0,1,0-2.33,1.63,1.63,0,0,1,.64-.75,1.71,1.71,0,0,1,.93-.26,1.74,1.74,0,0,1,.93.26,1.76,1.76,0,0,1,.64.75,3.07,3.07,0,0,1,0,2.33,1.76,1.76,0,0,1-.64.75,1.74,1.74,0,0,1-.93.26A1.71,1.71,0,0,1,25.8,87.28Zm1.53-.9a2.47,2.47,0,0,0,0-2,.71.71,0,0,0-1.2,0,2.47,2.47,0,0,0,0,2,.71.71,0,0,0,1.2,0Z"/><path d="M29.9,86.51a.57.57,0,0,1,.16.41,1,1,0,0,1,0,.24c0,.08-.07.2-.13.36l-.35.87H29l.26-1a.43.43,0,0,1-.23-.19.57.57,0,0,1-.09-.32.53.53,0,0,1,.16-.41.63.63,0,0,1,.84,0Z"/><path d="M33.36,85.39a1.09,1.09,0,0,1,.3.79,1.22,1.22,0,0,1-.2.67,1.25,1.25,0,0,1-.58.5,2.28,2.28,0,0,1-1,.19,3.28,3.28,0,0,1-.88-.12,2.28,2.28,0,0,1-.72-.33l.37-.75a2,2,0,0,0,.56.28,2,2,0,0,0,.64.1,1.06,1.06,0,0,0,.58-.14.46.46,0,0,0,.21-.4c0-.34-.26-.52-.79-.52h-.44V85l.86-1H30.52v-.78h2.94v.63L32.52,85A1.38,1.38,0,0,1,33.36,85.39Z"/><path d="M37,83.73a2.19,2.19,0,0,1,.5,1.54,2.6,2.6,0,0,1-.27,1.23,1.75,1.75,0,0,1-.75.77,2.26,2.26,0,0,1-1.12.27,2.61,2.61,0,0,1-.64-.08,1.66,1.66,0,0,1-.52-.21l.35-.72a1.39,1.39,0,0,0,.79.21,1.14,1.14,0,0,0,.85-.31,1.32,1.32,0,0,0,.33-.91,1.41,1.41,0,0,1-1,.38,1.74,1.74,0,0,1-.73-.16,1.4,1.4,0,0,1-.53-.46,1.38,1.38,0,0,1,0-1.43,1.4,1.4,0,0,1,.58-.49,1.91,1.91,0,0,1,.8-.17A1.78,1.78,0,0,1,37,83.73ZM36.17,85a.53.53,0,0,0,.2-.45.58.58,0,0,0-.19-.45.81.81,0,0,0-.54-.17.69.69,0,0,0-.5.17.53.53,0,0,0-.2.45.55.55,0,0,0,.2.46.77.77,0,0,0,.52.17A.72.72,0,0,0,36.17,85Z"/><path d="M38.15,85.22a1.38,1.38,0,0,1,0-1.69,1.06,1.06,0,0,1,1.5,0,1.38,1.38,0,0,1,0,1.69,1.06,1.06,0,0,1-1.5,0Zm1.07-.35a.86.86,0,0,0,.12-.5.82.82,0,0,0-.12-.49.35.35,0,0,0-.32-.17.36.36,0,0,0-.32.17.84.84,0,0,0-.12.49.86.86,0,0,0,.12.5.39.39,0,0,0,.32.17A.37.37,0,0,0,39.22,84.87Zm2.18-1.61h.72l-2.87,4.2h-.72Zm-.19,4.11a1,1,0,0,1-.37-.4,1.52,1.52,0,0,1,0-1.23,1,1,0,0,1,.37-.4,1,1,0,0,1,.54-.14,1,1,0,0,1,.75.31,1.38,1.38,0,0,1,0,1.69,1,1,0,0,1-.75.31A1,1,0,0,1,41.21,87.37Zm.86-.52a.88.88,0,0,0,.12-.5.84.84,0,0,0-.12-.49.35.35,0,0,0-.32-.17.36.36,0,0,0-.32.17.82.82,0,0,0-.12.49.86.86,0,0,0,.12.5.39.39,0,0,0,.32.17A.37.37,0,0,0,42.07,86.85Z"/><path d="M108.67,87.28a1.76,1.76,0,0,1-.64-.75,3.07,3.07,0,0,1,0-2.33,1.76,1.76,0,0,1,.64-.75,1.72,1.72,0,0,1,2.5.75,3.07,3.07,0,0,1,0,2.33,1.75,1.75,0,0,1-2.5.75Zm1.54-.9a2.58,2.58,0,0,0,0-2,.7.7,0,0,0-.61-.33.67.67,0,0,0-.59.33,2.47,2.47,0,0,0,0,2,.67.67,0,0,0,.59.33A.7.7,0,0,0,110.21,86.38Z"/><path d="M112.77,86.51a.53.53,0,0,1,.16.41,1,1,0,0,1,0,.24,2.38,2.38,0,0,1-.13.36l-.34.87h-.59l.26-1a.5.5,0,0,1-.24-.19.57.57,0,0,1-.09-.32.53.53,0,0,1,.17-.41.57.57,0,0,1,.42-.16A.56.56,0,0,1,112.77,86.51Z"/><path d="M116.24,85.39a1.13,1.13,0,0,1,.29.79,1.21,1.21,0,0,1-.19.67,1.3,1.3,0,0,1-.58.5,2.36,2.36,0,0,1-1,.19,3.26,3.26,0,0,1-.87-.12,2.34,2.34,0,0,1-.73-.33l.38-.75a1.9,1.9,0,0,0,.55.28,2.05,2.05,0,0,0,.65.1,1,1,0,0,0,.57-.14.44.44,0,0,0,.21-.4c0-.34-.26-.52-.78-.52h-.44V85l.86-1H113.4v-.78h2.94v.63l-1,1.08A1.41,1.41,0,0,1,116.24,85.39Z"/><path d="M119.84,83.73a2.19,2.19,0,0,1,.5,1.54,2.6,2.6,0,0,1-.27,1.23,1.8,1.8,0,0,1-.75.77,2.3,2.3,0,0,1-1.13.27,2.74,2.74,0,0,1-.64-.08,1.77,1.77,0,0,1-.52-.21l.36-.72a1.36,1.36,0,0,0,.79.21,1.13,1.13,0,0,0,.84-.31,1.32,1.32,0,0,0,.34-.91,1.42,1.42,0,0,1-1,.38,1.77,1.77,0,0,1-.73-.16,1.37,1.37,0,0,1-.52-.46,1.23,1.23,0,0,1-.19-.69,1.31,1.31,0,0,1,.21-.74,1.44,1.44,0,0,1,.57-.49,1.92,1.92,0,0,1,.81-.17A1.78,1.78,0,0,1,119.84,83.73ZM119.05,85a.56.56,0,0,0,.2-.45.58.58,0,0,0-.19-.45.83.83,0,0,0-.54-.17.72.72,0,0,0-.51.17.55.55,0,0,0-.19.45A.58.58,0,0,0,118,85a.77.77,0,0,0,.52.17A.75.75,0,0,0,119.05,85Z"/><path d="M122.39,83.26v4.2h-1V84h-.84v-.78Z"/><path d="M123.34,85.22a1.38,1.38,0,0,1,0-1.69,1.06,1.06,0,0,1,1.5,0,1.38,1.38,0,0,1,0,1.69,1.06,1.06,0,0,1-1.5,0Zm1.07-.35a.86.86,0,0,0,.12-.5.82.82,0,0,0-.12-.49.34.34,0,0,0-.32-.17.36.36,0,0,0-.32.17.85.85,0,0,0-.11.49.86.86,0,0,0,.11.5.39.39,0,0,0,.32.17A.36.36,0,0,0,124.41,84.87Zm2.18-1.61h.72l-2.87,4.2h-.71Zm-.18,4.11A.9.9,0,0,1,126,87a1.35,1.35,0,0,1-.13-.62,1.33,1.33,0,0,1,.13-.61.9.9,0,0,1,.37-.4.93.93,0,0,1,.53-.14,1,1,0,0,1,.76.31,1.38,1.38,0,0,1,0,1.69,1,1,0,0,1-.76.31A.93.93,0,0,1,126.41,87.37Zm.85-.52a.88.88,0,0,0,.12-.5.84.84,0,0,0-.12-.49.34.34,0,0,0-.32-.17.36.36,0,0,0-.32.17.82.82,0,0,0-.12.49.86.86,0,0,0,.12.5.39.39,0,0,0,.32.17A.36.36,0,0,0,127.26,86.85Z"/><path d="M287.92,85.28a1.7,1.7,0,0,1-.64-.75,3.07,3.07,0,0,1,0-2.33,1.75,1.75,0,0,1,2.5-.75,1.76,1.76,0,0,1,.64.75,3.07,3.07,0,0,1,0,2.33,1.76,1.76,0,0,1-.64.75,1.79,1.79,0,0,1-1.86,0Zm1.53-.9a2.47,2.47,0,0,0,0-2,.67.67,0,0,0-.6-.33.69.69,0,0,0-.6.33,2.47,2.47,0,0,0,0,2,.69.69,0,0,0,.6.33A.67.67,0,0,0,289.45,84.38Z"/><path d="M292,84.51a.53.53,0,0,1,.16.41,1,1,0,0,1,0,.24,2.38,2.38,0,0,1-.13.36l-.35.87h-.59l.27-1a.5.5,0,0,1-.24-.19.57.57,0,0,1-.09-.32.53.53,0,0,1,.17-.41.56.56,0,0,1,.41-.16A.57.57,0,0,1,292,84.51Z"/><path d="M295.49,83.39a1.13,1.13,0,0,1,.29.79,1.21,1.21,0,0,1-.19.67,1.33,1.33,0,0,1-.59.5,2.28,2.28,0,0,1-1,.19,3.15,3.15,0,0,1-.87-.12,2.34,2.34,0,0,1-.73-.33l.38-.75a1.9,1.9,0,0,0,.55.28,2,2,0,0,0,.64.1,1.06,1.06,0,0,0,.58-.14.46.46,0,0,0,.21-.4c0-.34-.26-.52-.79-.52h-.44V83l.87-1h-1.79v-.78h2.94v.63L294.64,83A1.41,1.41,0,0,1,295.49,83.39Z"/><path d="M299.09,81.73a2.19,2.19,0,0,1,.49,1.54,2.72,2.72,0,0,1-.26,1.23,1.77,1.77,0,0,1-.76.77,2.24,2.24,0,0,1-1.12.27,2.67,2.67,0,0,1-.64-.08,1.66,1.66,0,0,1-.52-.21l.36-.72a1.33,1.33,0,0,0,.78.21,1.14,1.14,0,0,0,.85-.31,1.27,1.27,0,0,0,.33-.91,1.41,1.41,0,0,1-1,.38,1.74,1.74,0,0,1-.73-.16,1.3,1.3,0,0,1-.52-.46,1.38,1.38,0,0,1,0-1.43,1.37,1.37,0,0,1,.57-.49,1.92,1.92,0,0,1,.81-.17A1.81,1.81,0,0,1,299.09,81.73ZM298.3,83a.56.56,0,0,0,.2-.45.59.59,0,0,0-.2-.45.81.81,0,0,0-.54-.17.71.71,0,0,0-.5.17.56.56,0,0,0-.2.45.58.58,0,0,0,.2.46.77.77,0,0,0,.52.17A.77.77,0,0,0,298.3,83Z"/><path d="M302.91,81.73a2.19,2.19,0,0,1,.5,1.54,2.6,2.6,0,0,1-.27,1.23,1.8,1.8,0,0,1-.75.77,2.3,2.3,0,0,1-1.13.27,2.74,2.74,0,0,1-.64-.08,1.77,1.77,0,0,1-.52-.21l.36-.72a1.34,1.34,0,0,0,.79.21,1.13,1.13,0,0,0,.84-.31,1.32,1.32,0,0,0,.34-.91,1.44,1.44,0,0,1-1.05.38,1.77,1.77,0,0,1-.73-.16,1.37,1.37,0,0,1-.52-.46,1.23,1.23,0,0,1-.19-.69,1.31,1.31,0,0,1,.21-.74,1.44,1.44,0,0,1,.57-.49,1.92,1.92,0,0,1,.81-.17A1.78,1.78,0,0,1,302.91,81.73ZM302.12,83a.56.56,0,0,0,.2-.45.59.59,0,0,0-.2-.45.78.78,0,0,0-.53-.17.72.72,0,0,0-.51.17.55.55,0,0,0-.19.45.58.58,0,0,0,.19.46.77.77,0,0,0,.52.17A.77.77,0,0,0,302.12,83Z"/><path d="M304.09,83.22a1.38,1.38,0,0,1,0-1.69,1,1,0,0,1,.75-.31,1,1,0,0,1,.75.31,1.38,1.38,0,0,1,0,1.69,1,1,0,0,1-.75.31A1,1,0,0,1,304.09,83.22Zm1.08-.35a1,1,0,0,0,.11-.5.91.91,0,0,0-.11-.49.37.37,0,0,0-.33-.17.35.35,0,0,0-.31.17.84.84,0,0,0-.12.49.86.86,0,0,0,.12.5.37.37,0,0,0,.31.17A.39.39,0,0,0,305.17,82.87Zm2.18-1.61h.71l-2.87,4.2h-.71Zm-.19,4.11a1,1,0,0,1-.37-.4,1.35,1.35,0,0,1-.13-.62,1.33,1.33,0,0,1,.13-.61,1,1,0,0,1,.37-.4,1.08,1.08,0,0,1,1.29.17,1.38,1.38,0,0,1,0,1.69,1.08,1.08,0,0,1-1.29.17Zm.86-.52a1,1,0,0,0,.11-.5.94.94,0,0,0-.11-.49.36.36,0,0,0-.32-.17.35.35,0,0,0-.32.17.82.82,0,0,0-.12.49.86.86,0,0,0,.12.5.37.37,0,0,0,.32.17A.39.39,0,0,0,308,84.85Z"/><path d="M378.29,85.28a1.63,1.63,0,0,1-.64-.75,3.07,3.07,0,0,1,0-2.33,1.63,1.63,0,0,1,.64-.75,1.71,1.71,0,0,1,.93-.26,1.67,1.67,0,0,1,1.57,1,3.07,3.07,0,0,1,0,2.33,1.67,1.67,0,0,1-1.57,1A1.71,1.71,0,0,1,378.29,85.28Zm1.53-.9a2.47,2.47,0,0,0,0-2,.69.69,0,0,0-.6-.33.67.67,0,0,0-.6.33,2.47,2.47,0,0,0,0,2,.67.67,0,0,0,.6.33A.69.69,0,0,0,379.82,84.38Z"/><path d="M382.38,84.51a.53.53,0,0,1,.17.41,1,1,0,0,1,0,.24,2.74,2.74,0,0,1-.14.36l-.34.87h-.59l.26-1a.43.43,0,0,1-.23-.19.57.57,0,0,1-.09-.32.53.53,0,0,1,.16-.41.57.57,0,0,1,.42-.16A.53.53,0,0,1,382.38,84.51Z"/><path d="M386.83,84.58h-.68v.88h-.95v-.88h-2.26v-.65l2-2.67h1l-1.84,2.53h1.13V83h.92v.79h.68Z"/><path d="M388,85.28a1.7,1.7,0,0,1-.64-.75,3.07,3.07,0,0,1,0-2.33,1.75,1.75,0,0,1,2.5-.75,1.76,1.76,0,0,1,.64.75,3.07,3.07,0,0,1,0,2.33,1.76,1.76,0,0,1-.64.75,1.79,1.79,0,0,1-1.86,0Zm1.53-.9a2.47,2.47,0,0,0,0-2,.68.68,0,0,0-.6-.33.69.69,0,0,0-.6.33,2.47,2.47,0,0,0,0,2,.69.69,0,0,0,.6.33A.68.68,0,0,0,389.52,84.38Z"/><path d="M392.78,81.26v4.2h-1V82H391v-.78Z"/><path d="M393.73,83.22a1.38,1.38,0,0,1,0-1.69,1.06,1.06,0,0,1,1.5,0,1.38,1.38,0,0,1,0,1.69,1.06,1.06,0,0,1-1.5,0Zm1.07-.35a.86.86,0,0,0,.12-.5.82.82,0,0,0-.12-.49.35.35,0,0,0-.32-.17.36.36,0,0,0-.32.17.84.84,0,0,0-.12.49.86.86,0,0,0,.12.5.39.39,0,0,0,.32.17A.37.37,0,0,0,394.8,82.87ZM397,81.26h.72l-2.87,4.2h-.72Zm-.19,4.11a1,1,0,0,1-.37-.4,1.52,1.52,0,0,1,0-1.23,1,1,0,0,1,.37-.4,1,1,0,0,1,.54-.14,1,1,0,0,1,.75.31,1.38,1.38,0,0,1,0,1.69,1,1,0,0,1-.75.31A1,1,0,0,1,396.79,85.37Zm.86-.52a.88.88,0,0,0,.12-.5.84.84,0,0,0-.12-.49.35.35,0,0,0-.32-.17.36.36,0,0,0-.32.17.82.82,0,0,0-.12.49.86.86,0,0,0,.12.5.39.39,0,0,0,.32.17A.37.37,0,0,0,397.65,84.85Z"/><path d="M463.88,86.28a1.76,1.76,0,0,1-.64-.75,3.07,3.07,0,0,1,0-2.33,1.76,1.76,0,0,1,.64-.75,1.72,1.72,0,0,1,2.5.75,3.07,3.07,0,0,1,0,2.33,1.75,1.75,0,0,1-2.5.75Zm1.54-.9a2.58,2.58,0,0,0,0-2,.72.72,0,0,0-1.21,0,2.58,2.58,0,0,0,0,2,.72.72,0,0,0,1.21,0Z"/><path d="M468,85.51a.53.53,0,0,1,.16.41,1,1,0,0,1,0,.24,2.38,2.38,0,0,1-.13.36l-.34.87H467l.27-1a.5.5,0,0,1-.24-.19.57.57,0,0,1-.09-.32.53.53,0,0,1,.17-.41.57.57,0,0,1,.42-.16A.56.56,0,0,1,468,85.51Z"/><path d="M471.45,84.39a1.13,1.13,0,0,1,.29.79,1.21,1.21,0,0,1-.19.67,1.28,1.28,0,0,1-.59.5,2.28,2.28,0,0,1-1,.19,3.2,3.2,0,0,1-.87-.12,2.34,2.34,0,0,1-.73-.33l.38-.75a1.9,1.9,0,0,0,.55.28,2.05,2.05,0,0,0,.65.1,1,1,0,0,0,.57-.14.46.46,0,0,0,.21-.4c0-.34-.26-.52-.78-.52h-.45V84l.87-1h-1.79v-.78h2.94v.63L470.6,84A1.41,1.41,0,0,1,471.45,84.39Z"/><path d="M475.05,82.73a2.19,2.19,0,0,1,.49,1.54,2.6,2.6,0,0,1-.26,1.23,1.77,1.77,0,0,1-.76.77,2.24,2.24,0,0,1-1.12.27,2.67,2.67,0,0,1-.64-.08,1.77,1.77,0,0,1-.52-.21l.36-.72a1.36,1.36,0,0,0,.79.21,1.13,1.13,0,0,0,.84-.31,1.32,1.32,0,0,0,.34-.91,1.42,1.42,0,0,1-1.05.38,1.74,1.74,0,0,1-.73-.16,1.37,1.37,0,0,1-.52-.46,1.23,1.23,0,0,1-.19-.69,1.31,1.31,0,0,1,.21-.74,1.44,1.44,0,0,1,.57-.49,1.92,1.92,0,0,1,.81-.17A1.81,1.81,0,0,1,475.05,82.73ZM474.26,84a.56.56,0,0,0,.2-.45.59.59,0,0,0-.2-.45.78.78,0,0,0-.53-.17.72.72,0,0,0-.51.17.56.56,0,0,0-.2.45.58.58,0,0,0,.2.46.77.77,0,0,0,.52.17A.77.77,0,0,0,474.26,84Z"/><path d="M479.36,84.66a1.07,1.07,0,0,1,.17.59,1.09,1.09,0,0,1-.22.68,1.5,1.5,0,0,1-.63.45,2.75,2.75,0,0,1-1.85,0,1.41,1.41,0,0,1-.62-.45,1.09,1.09,0,0,1-.22-.68,1.07,1.07,0,0,1,.16-.59,1.2,1.2,0,0,1,.48-.4,1.09,1.09,0,0,1-.37-.37,1,1,0,0,1-.12-.5,1.05,1.05,0,0,1,.2-.63,1.37,1.37,0,0,1,.57-.42,2.46,2.46,0,0,1,1.69,0,1.25,1.25,0,0,1,.57.42,1,1,0,0,1,.21.63.91.91,0,0,1-.13.5,1,1,0,0,1-.36.37A1.24,1.24,0,0,1,479.36,84.66Zm-1,1a.54.54,0,0,0,.22-.44.53.53,0,0,0-.22-.44.91.91,0,0,0-.58-.16.9.9,0,0,0-.57.16.52.52,0,0,0-.21.44.54.54,0,0,0,.21.44.9.9,0,0,0,.57.16A.91.91,0,0,0,478.33,85.66Zm-1.05-2.61a.51.51,0,0,0,0,.76.75.75,0,0,0,.47.14.78.78,0,0,0,.48-.14.49.49,0,0,0,0-.76.72.72,0,0,0-.48-.14A.71.71,0,0,0,477.28,83.05Z"/><path d="M480.13,84.22a1.38,1.38,0,0,1,0-1.69,1.07,1.07,0,0,1,1.51,0,1.42,1.42,0,0,1,0,1.69,1.07,1.07,0,0,1-1.51,0Zm1.08-.35a1,1,0,0,0,.11-.5.91.91,0,0,0-.11-.49.36.36,0,0,0-.32-.17.35.35,0,0,0-.32.17.84.84,0,0,0-.12.49.86.86,0,0,0,.12.5.37.37,0,0,0,.32.17A.39.39,0,0,0,481.21,83.87Zm2.18-1.61h.71l-2.87,4.2h-.71Zm-.19,4.11a1,1,0,0,1-.37-.4,1.35,1.35,0,0,1-.13-.62,1.33,1.33,0,0,1,.13-.61,1,1,0,0,1,.37-.4,1.08,1.08,0,0,1,1.29.17,1.38,1.38,0,0,1,0,1.69,1.08,1.08,0,0,1-1.29.17Zm.86-.52a1,1,0,0,0,.11-.5.94.94,0,0,0-.11-.49.36.36,0,0,0-.32-.17.35.35,0,0,0-.32.17.82.82,0,0,0-.12.49.86.86,0,0,0,.12.5.37.37,0,0,0,.32.17A.39.39,0,0,0,484.06,85.85Z"/><path d="M198.11,86.28a1.68,1.68,0,0,1-.63-.75,2.95,2.95,0,0,1,0-2.33,1.68,1.68,0,0,1,.63-.75,1.76,1.76,0,0,1,.93-.26,1.71,1.71,0,0,1,.93.26,1.63,1.63,0,0,1,.64.75,3.07,3.07,0,0,1,0,2.33,1.63,1.63,0,0,1-.64.75,1.71,1.71,0,0,1-.93.26A1.76,1.76,0,0,1,198.11,86.28Zm1.54-.9a2.47,2.47,0,0,0,0-2A.7.7,0,0,0,199,83a.67.67,0,0,0-.59.33,2.47,2.47,0,0,0,0,2,.67.67,0,0,0,.59.33A.7.7,0,0,0,199.65,85.38Z"/><path d="M202.21,85.51a.53.53,0,0,1,.16.41,1,1,0,0,1,0,.24,2.38,2.38,0,0,1-.13.36l-.34.87h-.59l.26-1a.5.5,0,0,1-.24-.19.66.66,0,0,1-.08-.32.53.53,0,0,1,.16-.41.57.57,0,0,1,.42-.16A.54.54,0,0,1,202.21,85.51Z"/><path d="M205.68,84.39a1.09,1.09,0,0,1,.29.79,1.21,1.21,0,0,1-.19.67,1.3,1.3,0,0,1-.58.5,2.36,2.36,0,0,1-1,.19,3.26,3.26,0,0,1-.87-.12,2.45,2.45,0,0,1-.73-.33l.38-.75a1.84,1.84,0,0,0,.56.28,2,2,0,0,0,.64.1,1.08,1.08,0,0,0,.58-.14.46.46,0,0,0,.21-.4c0-.34-.27-.52-.79-.52h-.44V84l.86-1h-1.79v-.78h2.94v.63L204.83,84A1.41,1.41,0,0,1,205.68,84.39Z"/><path d="M209.28,82.73a2.19,2.19,0,0,1,.5,1.54,2.6,2.6,0,0,1-.27,1.23,1.8,1.8,0,0,1-.75.77,2.29,2.29,0,0,1-1.12.27,2.75,2.75,0,0,1-.65-.08,1.89,1.89,0,0,1-.52-.21l.36-.72a1.39,1.39,0,0,0,.79.21,1.12,1.12,0,0,0,.84-.31,1.32,1.32,0,0,0,.34-.91,1.41,1.41,0,0,1-1,.38,1.78,1.78,0,0,1-.74-.16,1.37,1.37,0,0,1-.52-.46,1.23,1.23,0,0,1-.19-.69,1.31,1.31,0,0,1,.21-.74,1.44,1.44,0,0,1,.57-.49,2,2,0,0,1,.81-.17A1.78,1.78,0,0,1,209.28,82.73ZM208.49,84a.53.53,0,0,0,.2-.45.58.58,0,0,0-.19-.45.81.81,0,0,0-.54-.17.72.72,0,0,0-.51.17.55.55,0,0,0-.19.45.58.58,0,0,0,.19.46.79.79,0,0,0,.52.17A.75.75,0,0,0,208.49,84Z"/><path d="M213,84.39a1.09,1.09,0,0,1,.3.79,1.3,1.3,0,0,1-.19.67,1.33,1.33,0,0,1-.59.5,2.28,2.28,0,0,1-1,.19,3.28,3.28,0,0,1-.88-.12,2.39,2.39,0,0,1-.72-.33l.37-.75a2,2,0,0,0,.56.28,2,2,0,0,0,.64.1,1.06,1.06,0,0,0,.58-.14.46.46,0,0,0,.21-.4c0-.34-.26-.52-.79-.52h-.44V84l.86-1h-1.78v-.78h2.94v.63L212.15,84A1.35,1.35,0,0,1,213,84.39Z"/><path d="M213.9,84.22a1.38,1.38,0,0,1,0-1.69,1.06,1.06,0,0,1,1.5,0,1.38,1.38,0,0,1,0,1.69,1.06,1.06,0,0,1-1.5,0Zm1.07-.35a.86.86,0,0,0,.12-.5.82.82,0,0,0-.12-.49.35.35,0,0,0-.32-.17.36.36,0,0,0-.32.17.84.84,0,0,0-.12.49.86.86,0,0,0,.12.5.39.39,0,0,0,.32.17A.37.37,0,0,0,215,83.87Zm2.18-1.61h.72L215,86.46h-.72ZM217,86.37a1,1,0,0,1-.37-.4,1.52,1.52,0,0,1,0-1.23,1,1,0,0,1,.37-.4,1,1,0,0,1,.54-.14,1,1,0,0,1,.75.31,1.38,1.38,0,0,1,0,1.69,1,1,0,0,1-.75.31A1,1,0,0,1,217,86.37Zm.86-.52a.88.88,0,0,0,.12-.5.84.84,0,0,0-.12-.49.35.35,0,0,0-.32-.17.36.36,0,0,0-.32.17.82.82,0,0,0-.12.49.86.86,0,0,0,.12.5.39.39,0,0,0,.32.17A.37.37,0,0,0,217.82,85.85Z"/><path d="M25.76,70.28a1.7,1.7,0,0,1-.64-.75,3.07,3.07,0,0,1,0-2.33,1.75,1.75,0,0,1,2.5-.75,1.76,1.76,0,0,1,.64.75,3.07,3.07,0,0,1,0,2.33,1.76,1.76,0,0,1-.64.75,1.79,1.79,0,0,1-1.86,0Zm1.53-.9a2.47,2.47,0,0,0,0-2,.71.71,0,0,0-1.2,0,2.47,2.47,0,0,0,0,2,.71.71,0,0,0,1.2,0Z"/><path d="M29.86,69.51a.57.57,0,0,1,.16.41,1,1,0,0,1,0,.24c0,.08-.07.2-.13.36l-.35.87h-.59l.26-1a.43.43,0,0,1-.23-.19.61.61,0,0,1,.07-.73.63.63,0,0,1,.84,0Z"/><path d="M33.32,68.39a1.09,1.09,0,0,1,.3.79,1.24,1.24,0,0,1-.78,1.17,2.28,2.28,0,0,1-1,.19,3.28,3.28,0,0,1-.88-.12,2.39,2.39,0,0,1-.72-.33l.37-.75a2,2,0,0,0,.56.28,2,2,0,0,0,.64.1,1.06,1.06,0,0,0,.58-.14.45.45,0,0,0,.21-.4c0-.34-.26-.52-.79-.52h-.44V68l.86-1H30.49v-.78h2.94v.63l-1,1.08A1.35,1.35,0,0,1,33.32,68.39Z"/><path d="M37.42,68.66a1.07,1.07,0,0,1,.16.59,1.09,1.09,0,0,1-.22.68,1.53,1.53,0,0,1-.62.45,2.78,2.78,0,0,1-1.86,0,1.47,1.47,0,0,1-.62-.45,1.15,1.15,0,0,1-.22-.68,1.07,1.07,0,0,1,.17-.59,1.24,1.24,0,0,1,.47-.4,1,1,0,0,1-.36-.37,1,1,0,0,1,.08-1.13,1.25,1.25,0,0,1,.57-.42,2.17,2.17,0,0,1,.84-.15,2.26,2.26,0,0,1,.85.15,1.37,1.37,0,0,1,.57.42,1,1,0,0,1,.2.63,1,1,0,0,1-.12.5,1.09,1.09,0,0,1-.37.37A1.2,1.2,0,0,1,37.42,68.66Zm-1,1a.54.54,0,0,0,.21-.44.52.52,0,0,0-.21-.44.93.93,0,0,0-.58-.16.9.9,0,0,0-.57.16.52.52,0,0,0-.21.44.54.54,0,0,0,.21.44.9.9,0,0,0,.57.16A.93.93,0,0,0,36.39,69.66Zm-1-2.61a.45.45,0,0,0-.18.38.47.47,0,0,0,.17.38.89.89,0,0,0,1,0,.49.49,0,0,0,0-.76.72.72,0,0,0-.48-.14A.68.68,0,0,0,35.34,67.05Z"/><path d="M38.19,68.22a1.38,1.38,0,0,1,0-1.69,1.06,1.06,0,0,1,1.5,0,1.38,1.38,0,0,1,0,1.69,1.06,1.06,0,0,1-1.5,0Zm1.07-.35a.86.86,0,0,0,.12-.5.82.82,0,0,0-.12-.49.35.35,0,0,0-.32-.17.36.36,0,0,0-.32.17.84.84,0,0,0-.12.49.86.86,0,0,0,.12.5.39.39,0,0,0,.32.17A.37.37,0,0,0,39.26,67.87Zm2.18-1.61h.72l-2.87,4.2h-.72Zm-.19,4.11a1,1,0,0,1-.37-.4,1.52,1.52,0,0,1,0-1.23,1,1,0,0,1,.37-.4,1,1,0,0,1,.54-.14,1,1,0,0,1,.75.31,1.38,1.38,0,0,1,0,1.69,1,1,0,0,1-.75.31A1,1,0,0,1,41.25,70.37Zm.86-.52a.86.86,0,0,0,.12-.5.84.84,0,0,0-.12-.49.35.35,0,0,0-.32-.17.36.36,0,0,0-.32.17.82.82,0,0,0-.12.49.86.86,0,0,0,.12.5.39.39,0,0,0,.32.17A.37.37,0,0,0,42.11,69.85Z"/><path d="M109.79,70.28a1.76,1.76,0,0,1-.64-.75,3.07,3.07,0,0,1,0-2.33,1.76,1.76,0,0,1,.64-.75,1.72,1.72,0,0,1,2.5.75,3.07,3.07,0,0,1,0,2.33,1.75,1.75,0,0,1-2.5.75Zm1.54-.9a2.58,2.58,0,0,0,0-2,.7.7,0,0,0-.61-.33.67.67,0,0,0-.59.33,2.47,2.47,0,0,0,0,2,.67.67,0,0,0,.59.33A.7.7,0,0,0,111.33,69.38Z"/><path d="M113.89,69.51a.53.53,0,0,1,.16.41,1,1,0,0,1,0,.24,2.38,2.38,0,0,1-.13.36l-.34.87H113l.27-1a.5.5,0,0,1-.24-.19.57.57,0,0,1-.09-.32.53.53,0,0,1,.17-.41.57.57,0,0,1,.42-.16A.56.56,0,0,1,113.89,69.51Z"/><path d="M117.36,68.39a1.13,1.13,0,0,1,.29.79,1.27,1.27,0,0,1-.19.68,1.35,1.35,0,0,1-.58.49,2.36,2.36,0,0,1-1,.19,3.26,3.26,0,0,1-.87-.12,2.34,2.34,0,0,1-.73-.33l.38-.75a1.9,1.9,0,0,0,.55.28,2.05,2.05,0,0,0,.65.1,1,1,0,0,0,.57-.14.45.45,0,0,0,.21-.4c0-.34-.26-.52-.78-.52h-.45V68l.87-1h-1.79v-.78h2.94v.63L116.51,68A1.41,1.41,0,0,1,117.36,68.39Z"/><path d="M121.45,68.66a1.07,1.07,0,0,1,.17.59,1.15,1.15,0,0,1-.22.68,1.5,1.5,0,0,1-.63.45,2.66,2.66,0,0,1-.93.16,2.56,2.56,0,0,1-.92-.16,1.41,1.41,0,0,1-.62-.45,1.09,1.09,0,0,1-.22-.68,1.07,1.07,0,0,1,.16-.59,1.24,1.24,0,0,1,.47-.4,1.16,1.16,0,0,1-.36-.37,1,1,0,0,1-.12-.5,1.05,1.05,0,0,1,.2-.63,1.37,1.37,0,0,1,.57-.42,2.46,2.46,0,0,1,1.69,0,1.25,1.25,0,0,1,.57.42,1,1,0,0,1,.21.63.91.91,0,0,1-.13.5,1,1,0,0,1-.36.37A1.24,1.24,0,0,1,121.45,68.66Zm-1,1a.54.54,0,0,0,.21-.44.52.52,0,0,0-.21-.44.91.91,0,0,0-.58-.16.9.9,0,0,0-.57.16.52.52,0,0,0-.21.44.54.54,0,0,0,.21.44.9.9,0,0,0,.57.16A.91.91,0,0,0,120.42,69.66Zm-1-2.61a.49.49,0,0,0,0,.76.73.73,0,0,0,.47.14.78.78,0,0,0,.48-.14.49.49,0,0,0,0-.76.72.72,0,0,0-.48-.14A.71.71,0,0,0,119.37,67.05Z"/><path d="M122.22,68.22a1.38,1.38,0,0,1,0-1.69,1,1,0,0,1,.75-.31,1,1,0,0,1,.75.31,1.38,1.38,0,0,1,0,1.69,1,1,0,0,1-.75.31A1,1,0,0,1,122.22,68.22Zm1.07-.35a.86.86,0,0,0,.12-.5.82.82,0,0,0-.12-.49.34.34,0,0,0-.32-.17.35.35,0,0,0-.31.17.84.84,0,0,0-.12.49.86.86,0,0,0,.12.5A.37.37,0,0,0,123,68,.36.36,0,0,0,123.29,67.87Zm2.19-1.61h.71l-2.87,4.2h-.71Zm-.19,4.11a1,1,0,0,1-.37-.4,1.35,1.35,0,0,1-.13-.62,1.33,1.33,0,0,1,.13-.61,1,1,0,0,1,.37-.4.93.93,0,0,1,.53-.14,1,1,0,0,1,.76.31,1.38,1.38,0,0,1,0,1.69,1,1,0,0,1-.76.31A.93.93,0,0,1,125.29,70.37Zm.86-.52a1,1,0,0,0,.11-.5.94.94,0,0,0-.11-.49.37.37,0,0,0-.33-.17.35.35,0,0,0-.31.17.82.82,0,0,0-.12.49.86.86,0,0,0,.12.5.37.37,0,0,0,.31.17A.39.39,0,0,0,126.15,69.85Z"/><path d="M288,68.28a1.63,1.63,0,0,1-.64-.75,3.07,3.07,0,0,1,0-2.33,1.63,1.63,0,0,1,.64-.75,1.71,1.71,0,0,1,.93-.26,1.76,1.76,0,0,1,.93.26,1.68,1.68,0,0,1,.63.75,2.95,2.95,0,0,1,0,2.33,1.68,1.68,0,0,1-.63.75,1.76,1.76,0,0,1-.93.26A1.71,1.71,0,0,1,288,68.28Zm1.53-.9a2.47,2.47,0,0,0,0-2,.69.69,0,0,0-.6-.33.68.68,0,0,0-.6.33,2.47,2.47,0,0,0,0,2,.68.68,0,0,0,.6.33A.69.69,0,0,0,289.54,67.38Z"/><path d="M292.1,67.51a.53.53,0,0,1,.17.41,1,1,0,0,1,0,.24,2.74,2.74,0,0,1-.14.36l-.34.87h-.59l.26-1a.43.43,0,0,1-.23-.19.57.57,0,0,1-.09-.32.53.53,0,0,1,.16-.41.57.57,0,0,1,.42-.16A.53.53,0,0,1,292.1,67.51Z"/><path d="M295.57,66.39a1.09,1.09,0,0,1,.3.79,1.28,1.28,0,0,1-.78,1.17,2.28,2.28,0,0,1-1,.19,3.28,3.28,0,0,1-.88-.12,2.45,2.45,0,0,1-.73-.33l.38-.75a2,2,0,0,0,.56.28,2,2,0,0,0,.64.1,1.06,1.06,0,0,0,.58-.14.45.45,0,0,0,.21-.4c0-.34-.26-.52-.79-.52h-.44V66l.86-1h-1.79v-.78h2.94v.63L294.73,66A1.38,1.38,0,0,1,295.57,66.39Z"/><path d="M299.67,66.66a1.07,1.07,0,0,1,.16.59,1.09,1.09,0,0,1-.22.68,1.53,1.53,0,0,1-.62.45,2.66,2.66,0,0,1-.93.16,2.62,2.62,0,0,1-.93-.16,1.47,1.47,0,0,1-.62-.45,1.09,1.09,0,0,1-.22-.68,1.07,1.07,0,0,1,.17-.59,1.17,1.17,0,0,1,.47-.4,1,1,0,0,1-.36-.37.91.91,0,0,1-.13-.5,1,1,0,0,1,.21-.63,1.25,1.25,0,0,1,.57-.42,2.17,2.17,0,0,1,.84-.15,2.26,2.26,0,0,1,.85.15,1.37,1.37,0,0,1,.57.42,1.05,1.05,0,0,1,.2.63,1,1,0,0,1-.12.5,1.09,1.09,0,0,1-.37.37A1.2,1.2,0,0,1,299.67,66.66Zm-1,1a.54.54,0,0,0,.21-.44.52.52,0,0,0-.21-.44,1,1,0,0,0-.58-.16.9.9,0,0,0-.57.16.52.52,0,0,0-.21.44.54.54,0,0,0,.21.44.9.9,0,0,0,.57.16A1,1,0,0,0,298.64,67.66Zm-1.05-2.61a.45.45,0,0,0-.18.38.47.47,0,0,0,.17.38.89.89,0,0,0,1,0,.49.49,0,0,0,0-.76.72.72,0,0,0-.48-.14A.68.68,0,0,0,297.59,65.05Z"/><path d="M303,66.2a1.16,1.16,0,0,1,.42.94,1.29,1.29,0,0,1-.19.7,1.42,1.42,0,0,1-.59.51,2.29,2.29,0,0,1-1,.19,3.26,3.26,0,0,1-.87-.12,2.34,2.34,0,0,1-.73-.33l.39-.75a1.9,1.9,0,0,0,.55.28,2,2,0,0,0,.64.1,1.08,1.08,0,0,0,.58-.14.47.47,0,0,0,.21-.41.45.45,0,0,0-.22-.4,1.44,1.44,0,0,0-.76-.14h-1.08l.22-2.37h2.56V65h-1.75l-.07.8h.35A2,2,0,0,1,303,66.2Z"/><path d="M304,66.22a1.38,1.38,0,0,1,0-1.69,1,1,0,0,1,.76-.31,1,1,0,0,1,.75.31,1.38,1.38,0,0,1,0,1.69,1,1,0,0,1-.75.31A1,1,0,0,1,304,66.22Zm1.08-.35a.86.86,0,0,0,.12-.5.82.82,0,0,0-.12-.49.39.39,0,0,0-.64,0,.84.84,0,0,0-.12.49.86.86,0,0,0,.12.5.39.39,0,0,0,.64,0Zm2.18-1.61H308l-2.86,4.2h-.72Zm-.19,4.11a1,1,0,0,1-.37-.4,1.35,1.35,0,0,1-.13-.62,1.33,1.33,0,0,1,.13-.61,1,1,0,0,1,.37-.4,1,1,0,0,1,.54-.14,1,1,0,0,1,.75.31,1.38,1.38,0,0,1,0,1.69,1,1,0,0,1-.75.31A1,1,0,0,1,307.07,68.37Zm.86-.52a.86.86,0,0,0,.12-.5.84.84,0,0,0-.12-.49.39.39,0,0,0-.64,0,.82.82,0,0,0-.12.49.86.86,0,0,0,.12.5.39.39,0,0,0,.64,0Z"/><path d="M377.79,67.28a1.63,1.63,0,0,1-.64-.75,3.07,3.07,0,0,1,0-2.33,1.63,1.63,0,0,1,.64-.75,1.71,1.71,0,0,1,.93-.26,1.76,1.76,0,0,1,.93.26,1.68,1.68,0,0,1,.63.75,3.07,3.07,0,0,1,0,2.33,1.68,1.68,0,0,1-.63.75,1.76,1.76,0,0,1-.93.26A1.71,1.71,0,0,1,377.79,67.28Zm1.53-.9a2.47,2.47,0,0,0,0-2,.69.69,0,0,0-.6-.33.67.67,0,0,0-.6.33,2.47,2.47,0,0,0,0,2,.67.67,0,0,0,.6.33A.69.69,0,0,0,379.32,66.38Z"/><path d="M381.88,66.51a.53.53,0,0,1,.17.41.67.67,0,0,1,0,.24,1.62,1.62,0,0,1-.13.36l-.34.87H381l.26-1a.5.5,0,0,1-.24-.19.66.66,0,0,1-.08-.32.53.53,0,0,1,.16-.41.57.57,0,0,1,.42-.16A.53.53,0,0,1,381.88,66.51Z"/><path d="M385.35,65.39a1.09,1.09,0,0,1,.3.79,1.28,1.28,0,0,1-.78,1.17,2.28,2.28,0,0,1-1,.19,3.28,3.28,0,0,1-.88-.12,2.45,2.45,0,0,1-.73-.33l.38-.75a2,2,0,0,0,.56.28,2,2,0,0,0,.64.1,1.06,1.06,0,0,0,.58-.14.45.45,0,0,0,.21-.4c0-.34-.26-.52-.79-.52h-.44V65l.86-1h-1.79v-.78h2.94v.63L384.5,65A1.38,1.38,0,0,1,385.35,65.39Z"/><path d="M389.45,65.66a1.07,1.07,0,0,1,.16.59,1.09,1.09,0,0,1-.22.68,1.5,1.5,0,0,1-.63.45,2.75,2.75,0,0,1-1.85,0,1.47,1.47,0,0,1-.62-.45,1.09,1.09,0,0,1-.22-.68,1.07,1.07,0,0,1,.17-.59,1.17,1.17,0,0,1,.47-.4,1,1,0,0,1-.36-.37.91.91,0,0,1-.13-.5,1.05,1.05,0,0,1,.2-.63,1.34,1.34,0,0,1,.58-.42,2.43,2.43,0,0,1,1.68,0,1.34,1.34,0,0,1,.58.42,1.05,1.05,0,0,1,.2.63,1,1,0,0,1-.12.5,1.09,1.09,0,0,1-.37.37A1.2,1.2,0,0,1,389.45,65.66Zm-1,1a.52.52,0,0,0,.22-.44.51.51,0,0,0-.22-.44.9.9,0,0,0-.57-.16.93.93,0,0,0-.58.16.55.55,0,0,0-.21.44.56.56,0,0,0,.21.44.93.93,0,0,0,.58.16A.9.9,0,0,0,388.41,66.66Zm-1.05-2.61a.51.51,0,0,0,0,.76.76.76,0,0,0,.48.14.83.83,0,0,0,.48-.14.49.49,0,0,0,0-.76.76.76,0,0,0-.48-.14A.72.72,0,0,0,387.36,64.05Z"/><path d="M393.9,66.58h-.68v.88h-1v-.88H390v-.65l2-2.67h1l-1.84,2.53h1.13V65h.92v.79h.68Z"/><path d="M394.23,65.22a1.38,1.38,0,0,1,0-1.69,1.06,1.06,0,0,1,1.5,0,1.38,1.38,0,0,1,0,1.69,1.06,1.06,0,0,1-1.5,0Zm1.07-.35a.86.86,0,0,0,.12-.5.82.82,0,0,0-.12-.49.35.35,0,0,0-.32-.17.36.36,0,0,0-.32.17.84.84,0,0,0-.12.49.86.86,0,0,0,.12.5A.39.39,0,0,0,395,65,.37.37,0,0,0,395.3,64.87Zm2.18-1.61h.72l-2.87,4.2h-.72Zm-.19,4.11a1,1,0,0,1-.37-.4,1.52,1.52,0,0,1,0-1.23,1,1,0,0,1,.37-.4,1,1,0,0,1,.54-.14,1,1,0,0,1,.75.31,1.34,1.34,0,0,1,0,1.69,1,1,0,0,1-.75.31A1,1,0,0,1,397.29,67.37Zm.86-.52a.86.86,0,0,0,.12-.5.84.84,0,0,0-.12-.49.35.35,0,0,0-.32-.17.36.36,0,0,0-.32.17.82.82,0,0,0-.12.49.86.86,0,0,0,.12.5.39.39,0,0,0,.32.17A.37.37,0,0,0,398.15,66.85Z"/><path d="M464.59,69.28a1.63,1.63,0,0,1-.64-.75,3.07,3.07,0,0,1,0-2.33,1.63,1.63,0,0,1,.64-.75,1.71,1.71,0,0,1,.93-.26,1.67,1.67,0,0,1,1.57,1,3.07,3.07,0,0,1,0,2.33,1.67,1.67,0,0,1-1.57,1A1.71,1.71,0,0,1,464.59,69.28Zm1.53-.9a2.47,2.47,0,0,0,0-2,.69.69,0,0,0-.6-.33.68.68,0,0,0-.6.33,2.47,2.47,0,0,0,0,2,.68.68,0,0,0,.6.33A.69.69,0,0,0,466.12,68.38Z"/><path d="M468.68,68.51a.53.53,0,0,1,.17.41,1,1,0,0,1,0,.24,2.74,2.74,0,0,1-.14.36l-.34.87h-.59l.26-1a.43.43,0,0,1-.23-.19.57.57,0,0,1-.09-.32.53.53,0,0,1,.16-.41.57.57,0,0,1,.42-.16A.53.53,0,0,1,468.68,68.51Z"/><path d="M472.15,67.39a1.09,1.09,0,0,1,.3.79,1.28,1.28,0,0,1-.78,1.17,2.28,2.28,0,0,1-1,.19,3.28,3.28,0,0,1-.88-.12,2.45,2.45,0,0,1-.73-.33l.38-.75a2,2,0,0,0,.56.28,2,2,0,0,0,.64.1,1.06,1.06,0,0,0,.58-.14.45.45,0,0,0,.21-.4c0-.34-.26-.52-.79-.52h-.44V67l.86-1h-1.79v-.78h2.94v.63L471.31,67A1.38,1.38,0,0,1,472.15,67.39Z"/><path d="M476.25,67.66a1.07,1.07,0,0,1,.16.59,1.09,1.09,0,0,1-.22.68,1.53,1.53,0,0,1-.62.45,2.66,2.66,0,0,1-.93.16,2.62,2.62,0,0,1-.93-.16,1.47,1.47,0,0,1-.62-.45,1.09,1.09,0,0,1-.22-.68,1.07,1.07,0,0,1,.17-.59,1.17,1.17,0,0,1,.47-.4,1,1,0,0,1-.36-.37.91.91,0,0,1-.13-.5,1,1,0,0,1,.21-.63,1.25,1.25,0,0,1,.57-.42,2.17,2.17,0,0,1,.84-.15,2.26,2.26,0,0,1,.85.15,1.37,1.37,0,0,1,.57.42,1.05,1.05,0,0,1,.2.63,1,1,0,0,1-.12.5,1.09,1.09,0,0,1-.37.37A1.2,1.2,0,0,1,476.25,67.66Zm-1,1a.54.54,0,0,0,.21-.44.52.52,0,0,0-.21-.44,1,1,0,0,0-.58-.16.9.9,0,0,0-.57.16.52.52,0,0,0-.21.44.54.54,0,0,0,.21.44.9.9,0,0,0,.57.16A1,1,0,0,0,475.22,68.66Zm-1.05-2.61a.45.45,0,0,0-.18.38.47.47,0,0,0,.17.38.89.89,0,0,0,1,0,.49.49,0,0,0,0-.76.72.72,0,0,0-.48-.14A.68.68,0,0,0,474.17,66.05Z"/><path d="M478.48,65.26v4.2h-1V66h-.84v-.78Z"/><path d="M479.43,67.22a1.38,1.38,0,0,1,0-1.69,1.06,1.06,0,0,1,1.5,0,1.38,1.38,0,0,1,0,1.69,1.06,1.06,0,0,1-1.5,0Zm1.07-.35a.86.86,0,0,0,.12-.5.82.82,0,0,0-.12-.49.35.35,0,0,0-.32-.17.36.36,0,0,0-.32.17.84.84,0,0,0-.12.49.86.86,0,0,0,.12.5.39.39,0,0,0,.32.17A.37.37,0,0,0,480.5,66.87Zm2.18-1.61h.72l-2.87,4.2h-.72Zm-.19,4.11a1,1,0,0,1-.37-.4,1.52,1.52,0,0,1,0-1.23,1,1,0,0,1,.37-.4,1,1,0,0,1,.54-.14,1,1,0,0,1,.75.31,1.38,1.38,0,0,1,0,1.69,1,1,0,0,1-.75.31A1,1,0,0,1,482.49,69.37Zm.86-.52a.86.86,0,0,0,.12-.5.84.84,0,0,0-.12-.49.35.35,0,0,0-.32-.17.36.36,0,0,0-.32.17.82.82,0,0,0-.12.49.86.86,0,0,0,.12.5A.39.39,0,0,0,483,69,.37.37,0,0,0,483.35,68.85Z"/><path d="M198.59,70.28a1.63,1.63,0,0,1-.64-.75,3.07,3.07,0,0,1,0-2.33,1.63,1.63,0,0,1,.64-.75,1.71,1.71,0,0,1,.93-.26,1.67,1.67,0,0,1,1.57,1,3.07,3.07,0,0,1,0,2.33,1.67,1.67,0,0,1-1.57,1A1.71,1.71,0,0,1,198.59,70.28Zm1.53-.9a2.47,2.47,0,0,0,0-2,.69.69,0,0,0-.6-.33.67.67,0,0,0-.6.33,2.47,2.47,0,0,0,0,2,.67.67,0,0,0,.6.33A.69.69,0,0,0,200.12,69.38Z"/><path d="M202.68,69.51a.53.53,0,0,1,.17.41,1,1,0,0,1,0,.24,2.74,2.74,0,0,1-.14.36l-.34.87h-.59l.26-1a.5.5,0,0,1-.24-.19.66.66,0,0,1-.08-.32.53.53,0,0,1,.16-.41.57.57,0,0,1,.42-.16A.53.53,0,0,1,202.68,69.51Z"/><path d="M206.15,68.39a1.09,1.09,0,0,1,.3.79,1.28,1.28,0,0,1-.78,1.17,2.28,2.28,0,0,1-1,.19,3.28,3.28,0,0,1-.88-.12,2.45,2.45,0,0,1-.73-.33l.38-.75a2,2,0,0,0,.56.28,2,2,0,0,0,.64.1,1.08,1.08,0,0,0,.58-.14.45.45,0,0,0,.21-.4c0-.34-.26-.52-.79-.52h-.44V68l.86-1h-1.79v-.78h2.94v.63L205.31,68A1.38,1.38,0,0,1,206.15,68.39Z"/><path d="M210.25,68.66a1.07,1.07,0,0,1,.16.59,1.09,1.09,0,0,1-.22.68,1.53,1.53,0,0,1-.62.45,2.66,2.66,0,0,1-.93.16,2.58,2.58,0,0,1-.93-.16,1.47,1.47,0,0,1-.62-.45,1.09,1.09,0,0,1-.22-.68,1.07,1.07,0,0,1,.17-.59,1.17,1.17,0,0,1,.47-.4,1,1,0,0,1-.36-.37.91.91,0,0,1-.13-.5,1,1,0,0,1,.21-.63,1.28,1.28,0,0,1,.56-.42,2.26,2.26,0,0,1,.85-.15,2.17,2.17,0,0,1,.84.15,1.34,1.34,0,0,1,.58.42,1.05,1.05,0,0,1,.2.63,1,1,0,0,1-.12.5,1.09,1.09,0,0,1-.37.37A1.2,1.2,0,0,1,210.25,68.66Zm-1,1a.52.52,0,0,0,.22-.44.51.51,0,0,0-.22-.44,1.1,1.1,0,0,0-1.14,0,.51.51,0,0,0-.22.44.52.52,0,0,0,.22.44,1.1,1.1,0,0,0,1.14,0Zm-1.05-2.61a.47.47,0,0,0-.17.38.44.44,0,0,0,.17.38.76.76,0,0,0,.48.14.78.78,0,0,0,.48-.14.51.51,0,0,0,0-.76.89.89,0,0,0-1,0Z"/><path d="M212.48,66.26v4.2h-1V67h-.84v-.78Z"/><path d="M213.43,68.22a1.38,1.38,0,0,1,0-1.69,1.06,1.06,0,0,1,1.5,0,1.38,1.38,0,0,1,0,1.69,1.06,1.06,0,0,1-1.5,0Zm1.07-.35a.86.86,0,0,0,.12-.5.82.82,0,0,0-.12-.49.35.35,0,0,0-.32-.17.36.36,0,0,0-.32.17.84.84,0,0,0-.12.49.86.86,0,0,0,.12.5.39.39,0,0,0,.32.17A.37.37,0,0,0,214.5,67.87Zm2.18-1.61h.72l-2.87,4.2h-.72Zm-.19,4.11a1,1,0,0,1-.37-.4,1.52,1.52,0,0,1,0-1.23,1,1,0,0,1,.37-.4,1,1,0,0,1,.54-.14,1,1,0,0,1,.75.31,1.38,1.38,0,0,1,0,1.69,1,1,0,0,1-.75.31A1,1,0,0,1,216.49,70.37Zm.86-.52a.86.86,0,0,0,.12-.5.84.84,0,0,0-.12-.49.35.35,0,0,0-.32-.17.36.36,0,0,0-.32.17.82.82,0,0,0-.12.49.86.86,0,0,0,.12.5A.39.39,0,0,0,217,70,.37.37,0,0,0,217.35,69.85Z"/></svg>