<svg id="Layer_1" data-name="Layer 1" xmlns="http://www.w3.org/2000/svg" viewBox="0 0 652.09 898.74"><defs><style>.cls-1{fill:#fff;}.cls-2{fill:#f9b214;}.cls-11,.cls-3,.cls-4{fill:none;stroke-miterlimit:10;}.cls-3{stroke:#444;}.cls-3,.cls-4{stroke-width:1.19px;}.cls-11,.cls-4{stroke:#fff;}.cls-5{fill:#017db6;}.cls-6{fill:#03a7d3;}.cls-7{fill:#8b1838;}.cls-8{fill:#e41f2e;}.cls-9{fill:#444;}.cls-10{opacity:0.2;}.cls-11{stroke-width:0.24px;}</style></defs><rect class="cls-1" width="652.09" height="898.74"/><path d="M127.26,48.86h5.37V72.08h-5.37Z"/><path d="M154,56c1.36,1.33,2,3.29,2,5.9V72.08h-5.18V62.66a4.67,4.67,0,0,0-.93-3.17,3.44,3.44,0,0,0-2.69-1,4.13,4.13,0,0,0-3.12,1.21,5,5,0,0,0-1.16,3.6v8.82h-5.17V54.23h4.94v2.09a7,7,0,0,1,2.55-1.74,8.93,8.93,0,0,1,3.36-.61A7.36,7.36,0,0,1,154,56Z"/><path d="M179.09,47.46V72.08h-5V70a6.81,6.81,0,0,1-5.57,2.32A9.35,9.35,0,0,1,164,71.22,8.06,8.06,0,0,1,160.8,68a10.7,10.7,0,0,1,0-9.69A8.1,8.1,0,0,1,164,55.1,9.24,9.24,0,0,1,168.57,54a6.8,6.8,0,0,1,5.34,2.15V47.46Zm-6.38,19.3a5.63,5.63,0,0,0,0-7.2,4.3,4.3,0,0,0-3.25-1.35,4.35,4.35,0,0,0-3.28,1.35,5.63,5.63,0,0,0,0,7.2,4.38,4.38,0,0,0,3.28,1.34A4.33,4.33,0,0,0,172.71,66.76Z"/><path d="M187.3,71.17a8.7,8.7,0,0,1-3.5-3.27,9.56,9.56,0,0,1,0-9.49,8.74,8.74,0,0,1,3.5-3.26A10.64,10.64,0,0,1,192.36,54a10.53,10.53,0,0,1,5,1.18,8.78,8.78,0,0,1,3.49,3.26,9.56,9.56,0,0,1,0,9.49,8.73,8.73,0,0,1-3.49,3.27,10.53,10.53,0,0,1-5,1.18A10.64,10.64,0,0,1,187.3,71.17Zm8.33-4.41a5.7,5.7,0,0,0,0-7.2,4.3,4.3,0,0,0-3.27-1.35,4.37,4.37,0,0,0-3.29,1.35,5.67,5.67,0,0,0,0,7.2,4.4,4.4,0,0,0,3.29,1.34A4.33,4.33,0,0,0,195.63,66.76Z"/><path d="M221.81,56c1.36,1.33,2,3.29,2,5.9V72.08h-5.18V62.66a4.67,4.67,0,0,0-.93-3.17,3.42,3.42,0,0,0-2.69-1,4.09,4.09,0,0,0-3.11,1.21,5,5,0,0,0-1.17,3.6v8.82H205.6V54.23h4.94v2.09a6.93,6.93,0,0,1,2.56-1.74,8.84,8.84,0,0,1,3.35-.61A7.34,7.34,0,0,1,221.81,56Z"/><path d="M246.11,64.62h-13.5a4.2,4.2,0,0,0,1.72,2.62,5.75,5.75,0,0,0,3.39,1,7,7,0,0,0,2.47-.41,6.16,6.16,0,0,0,2-1.31l2.75,3q-2.52,2.9-7.37,2.89a11.6,11.6,0,0,1-5.34-1.18,8.54,8.54,0,0,1-3.58-3.27,9,9,0,0,1-1.26-4.74,9.13,9.13,0,0,1,1.24-4.73,8.7,8.7,0,0,1,3.42-3.28,10.57,10.57,0,0,1,9.61,0A8.28,8.28,0,0,1,245,58.33a9.65,9.65,0,0,1,1.21,4.9C246.21,63.29,246.18,63.76,246.11,64.62ZM234,58.88a4.22,4.22,0,0,0-1.46,2.72h8.79a4.21,4.21,0,0,0-1.46-2.7,4.33,4.33,0,0,0-2.92-1A4.43,4.43,0,0,0,234,58.88Z"/><path d="M251.32,71.8a11.34,11.34,0,0,1-3.38-1.37l1.72-3.72A10.84,10.84,0,0,0,252.55,68a12.12,12.12,0,0,0,3.32.48c2.19,0,3.28-.54,3.28-1.62a1.16,1.16,0,0,0-.89-1.1,13.18,13.18,0,0,0-2.76-.56,27.46,27.46,0,0,1-3.61-.76,5.63,5.63,0,0,1-2.48-1.53,4.37,4.37,0,0,1-1-3.12,4.82,4.82,0,0,1,1-3,6.18,6.18,0,0,1,2.85-2,12.13,12.13,0,0,1,4.43-.73,17.84,17.84,0,0,1,3.77.41,10.53,10.53,0,0,1,3.1,1.15l-1.73,3.68a10.34,10.34,0,0,0-5.14-1.33,5.21,5.21,0,0,0-2.49.47,1.37,1.37,0,0,0-.83,1.19,1.18,1.18,0,0,0,.9,1.16,16.17,16.17,0,0,0,2.85.63,33.71,33.71,0,0,1,3.59.78,5.48,5.48,0,0,1,2.42,1.51,4.32,4.32,0,0,1,1,3.06,4.74,4.74,0,0,1-1,2.95,6.39,6.39,0,0,1-2.9,2,13.1,13.1,0,0,1-4.53.71A17.18,17.18,0,0,1,251.32,71.8Z"/><path d="M267.55,50.91a2.8,2.8,0,0,1,0-4.11,3.28,3.28,0,0,1,2.32-.83,3.35,3.35,0,0,1,2.32.8,2.54,2.54,0,0,1,.9,2,2.82,2.82,0,0,1-.9,2.14,3.64,3.64,0,0,1-4.64,0Zm-.27,3.32h5.18V72.08h-5.18Z"/><path d="M290.84,55.94c1.48,1.32,2.22,3.3,2.22,6V72.08h-4.84V69.86c-1,1.66-2.79,2.49-5.44,2.49a8.39,8.39,0,0,1-3.57-.7,5.26,5.26,0,0,1-2.31-1.92,5,5,0,0,1-.79-2.79A4.63,4.63,0,0,1,278,63q1.88-1.43,5.79-1.43h4.12a3.33,3.33,0,0,0-1-2.61,4.6,4.6,0,0,0-3.09-.91,9,9,0,0,0-2.8.45,7.39,7.39,0,0,0-2.34,1.21l-1.86-3.62a11.4,11.4,0,0,1,3.5-1.59,15.93,15.93,0,0,1,4.2-.56A9.32,9.32,0,0,1,290.84,55.94Zm-4.41,12.31a3.39,3.39,0,0,0,1.46-1.81V64.62h-3.55c-2.13,0-3.19.7-3.19,2.09a1.88,1.88,0,0,0,.78,1.58,3.55,3.55,0,0,0,2.14.58A4.52,4.52,0,0,0,286.43,68.25Z"/><path d="M301.89,48.08a3.06,3.06,0,0,1,.9,2.3,5.45,5.45,0,0,1-.17,1.33,16,16,0,0,1-.7,2L300,58.48h-3.29l1.43-5.24a2.89,2.89,0,0,1-1.29-1.1,3.19,3.19,0,0,1-.47-1.76,3,3,0,0,1,.91-2.3,3.18,3.18,0,0,1,2.31-.88A3.12,3.12,0,0,1,301.89,48.08Z"/><path d="M307.36,71.8A11.34,11.34,0,0,1,304,70.43l1.73-3.72A10.63,10.63,0,0,0,308.59,68a12.17,12.17,0,0,0,3.32.48c2.19,0,3.29-.54,3.29-1.62a1.16,1.16,0,0,0-.9-1.1,13.18,13.18,0,0,0-2.76-.56,27.46,27.46,0,0,1-3.61-.76,5.6,5.6,0,0,1-2.47-1.53,4.33,4.33,0,0,1-1-3.12,4.88,4.88,0,0,1,1-3,6.18,6.18,0,0,1,2.85-2,12.13,12.13,0,0,1,4.43-.73,17.84,17.84,0,0,1,3.77.41,10.53,10.53,0,0,1,3.1,1.15l-1.72,3.68a10.37,10.37,0,0,0-5.15-1.33,5.26,5.26,0,0,0-2.49.47,1.36,1.36,0,0,0-.82,1.19,1.17,1.17,0,0,0,.89,1.16,16.17,16.17,0,0,0,2.85.63,33.71,33.71,0,0,1,3.59.78,5.43,5.43,0,0,1,2.42,1.51,4.28,4.28,0,0,1,1,3.06,4.68,4.68,0,0,1-1,2.95,6.39,6.39,0,0,1-2.9,2,13.06,13.06,0,0,1-4.53.71A17.18,17.18,0,0,1,307.36,71.8Z"/><path d="M347.88,72.08l-4.48-6.47h-4.94v6.47h-5.38V48.86h10.05a12.82,12.82,0,0,1,5.36,1,7.91,7.91,0,0,1,3.5,2.92,8,8,0,0,1,1.23,4.48,7.55,7.55,0,0,1-4.78,7.33l5.21,7.46Zm-1.36-17.8a5.69,5.69,0,0,0-3.69-1h-4.37v8.09h4.37a5.58,5.58,0,0,0,3.69-1.06,4.19,4.19,0,0,0,0-6Z"/><path d="M370.51,55.94c1.48,1.32,2.22,3.3,2.22,6V72.08h-4.84V69.86q-1.47,2.49-5.44,2.49a8.33,8.33,0,0,1-3.57-.7,5.26,5.26,0,0,1-2.31-1.92,5,5,0,0,1-.79-2.79A4.63,4.63,0,0,1,357.65,63q1.88-1.43,5.79-1.43h4.11a3.32,3.32,0,0,0-1-2.61,4.6,4.6,0,0,0-3.09-.91,8.92,8.92,0,0,0-2.8.45,7.39,7.39,0,0,0-2.34,1.21l-1.86-3.62a11.4,11.4,0,0,1,3.5-1.59,15.93,15.93,0,0,1,4.2-.56A9.32,9.32,0,0,1,370.51,55.94Zm-4.42,12.31a3.3,3.3,0,0,0,1.46-1.81V64.62H364c-2.12,0-3.18.7-3.18,2.09a1.88,1.88,0,0,0,.78,1.58,3.55,3.55,0,0,0,2.14.58A4.48,4.48,0,0,0,366.09,68.25Z"/><path d="M393.62,56c1.36,1.33,2,3.29,2,5.9V72.08h-5.18V62.66a4.67,4.67,0,0,0-.93-3.17,3.41,3.41,0,0,0-2.68-1,4.1,4.1,0,0,0-3.12,1.21,5,5,0,0,0-1.17,3.6v8.82h-5.17V54.23h4.94v2.09a6.93,6.93,0,0,1,2.56-1.74,8.84,8.84,0,0,1,3.35-.61A7.34,7.34,0,0,1,393.62,56Z"/><path d="M408,65.08l-2.49,2.46v4.54h-5.17V47.46h5.17V61.4l7.57-7.17h6.17l-7.43,7.57,8.09,10.28h-6.27Z"/><path d="M422.37,50.91a2.8,2.8,0,0,1,0-4.11,3.3,3.3,0,0,1,2.32-.83,3.35,3.35,0,0,1,2.32.8,2.54,2.54,0,0,1,.9,2,2.82,2.82,0,0,1-.9,2.14,3.64,3.64,0,0,1-4.64,0Zm-.27,3.32h5.18V72.08H422.1Z"/><path d="M448.3,56c1.36,1.33,2,3.29,2,5.9V72.08h-5.17V62.66a4.72,4.72,0,0,0-.93-3.17,3.44,3.44,0,0,0-2.69-1,4.1,4.1,0,0,0-3.12,1.21,5,5,0,0,0-1.16,3.6v8.82h-5.18V54.23h5v2.09a6.81,6.81,0,0,1,2.55-1.74,8.88,8.88,0,0,1,3.35-.61A7.34,7.34,0,0,1,448.3,56Z"/><path d="M473.63,54.23V69.1c0,3.27-.85,5.71-2.55,7.3s-4.19,2.39-7.47,2.39a18.72,18.72,0,0,1-4.91-.63,10.69,10.69,0,0,1-3.85-1.83l2.06-3.71a8.5,8.5,0,0,0,2.85,1.47,11.2,11.2,0,0,0,3.45.55,5.58,5.58,0,0,0,4-1.21,4.84,4.84,0,0,0,1.28-3.67V69a7.25,7.25,0,0,1-5.64,2.22,9.47,9.47,0,0,1-4.5-1.08,8.29,8.29,0,0,1-3.24-3,9.16,9.16,0,0,1,0-9,8.29,8.29,0,0,1,3.24-3,9.47,9.47,0,0,1,4.5-1.08,7.08,7.08,0,0,1,5.9,2.55V54.23Zm-6.42,11.53a4.48,4.48,0,0,0,0-6.33,4.74,4.74,0,0,0-3.36-1.22,4.83,4.83,0,0,0-3.39,1.22,4.43,4.43,0,0,0,0,6.33A4.82,4.82,0,0,0,463.85,67,4.73,4.73,0,0,0,467.21,65.76Z"/><path d="M491.27,71.17a8.7,8.7,0,0,1-3.5-3.27,9.56,9.56,0,0,1,0-9.49,8.74,8.74,0,0,1,3.5-3.26A10.64,10.64,0,0,1,496.33,54a10.53,10.53,0,0,1,5,1.18,8.71,8.71,0,0,1,3.49,3.26,9.56,9.56,0,0,1,0,9.49,8.67,8.67,0,0,1-3.49,3.27,10.53,10.53,0,0,1-5,1.18A10.64,10.64,0,0,1,491.27,71.17Zm8.33-4.41a5.7,5.7,0,0,0,0-7.2,4.3,4.3,0,0,0-3.27-1.35A4.37,4.37,0,0,0,493,59.56a5.67,5.67,0,0,0,0,7.2,4.4,4.4,0,0,0,3.29,1.34A4.33,4.33,0,0,0,499.6,66.76Z"/><path d="M525.78,56c1.36,1.33,2,3.29,2,5.9V72.08h-5.18V62.66a4.67,4.67,0,0,0-.93-3.17,3.41,3.41,0,0,0-2.68-1,4.1,4.1,0,0,0-3.12,1.21,5,5,0,0,0-1.16,3.6v8.82h-5.18V54.23h4.94v2.09a6.93,6.93,0,0,1,2.56-1.74,8.84,8.84,0,0,1,3.35-.61A7.34,7.34,0,0,1,525.78,56Z"/><path d="M100.63,111a5.25,5.25,0,0,1-1.88.85,9.85,9.85,0,0,1-2.33.28,6.92,6.92,0,0,1-4.93-1.63,6.21,6.21,0,0,1-1.74-4.78V98.43H87v-4h2.76V90.1h5.17v4.35h4.45v4H94.92v7.27a2.47,2.47,0,0,0,.58,1.74,2.17,2.17,0,0,0,1.65.61,3.36,3.36,0,0,0,2.09-.66Z"/><path d="M119.76,95.78q2,2,2,5.9V111.9h-5.18v-9.42a4.65,4.65,0,0,0-.93-3.17,3.39,3.39,0,0,0-2.68-1,4.1,4.1,0,0,0-3.12,1.22,5,5,0,0,0-1.16,3.6v8.82h-5.18V87.28h5.18v8.63a6.85,6.85,0,0,1,2.48-1.58,9.17,9.17,0,0,1,3.19-.54A7.34,7.34,0,0,1,119.76,95.78Z"/><path d="M144.06,104.44h-13.5a4.22,4.22,0,0,0,1.72,2.62,5.75,5.75,0,0,0,3.39,1,7,7,0,0,0,2.47-.41,6,6,0,0,0,2-1.32l2.75,3c-1.68,1.93-4.14,2.89-7.36,2.89a11.61,11.61,0,0,1-5.35-1.18,8.54,8.54,0,0,1-3.58-3.27,9,9,0,0,1-1.26-4.74,9.1,9.1,0,0,1,1.24-4.73A8.73,8.73,0,0,1,130,95a10.66,10.66,0,0,1,9.61,0A8.3,8.3,0,0,1,143,98.15a9.59,9.59,0,0,1,1.21,4.89C144.16,103.11,144.13,103.57,144.06,104.44ZM132,98.7a4.27,4.27,0,0,0-1.46,2.72h8.8a4.35,4.35,0,0,0-1.46-2.71,4.8,4.8,0,0,0-5.88,0Z"/><path d="M173.06,99.92H178v9.43a14.06,14.06,0,0,1-4.38,2.19,16.87,16.87,0,0,1-5,.76,13.56,13.56,0,0,1-6.5-1.54,11.6,11.6,0,0,1-4.53-4.28,12.5,12.5,0,0,1,0-12.38,11.54,11.54,0,0,1,4.56-4.28,13.85,13.85,0,0,1,6.57-1.54,14.33,14.33,0,0,1,5.55,1,11,11,0,0,1,4.18,3L175,95.48a8,8,0,0,0-6-2.62,8.2,8.2,0,0,0-3.95.93,6.65,6.65,0,0,0-2.69,2.62,8.26,8.26,0,0,0,0,7.73,6.84,6.84,0,0,0,2.67,2.64,7.93,7.93,0,0,0,3.9.94,8.72,8.72,0,0,0,4.18-1Z"/><path d="M182.59,87.28h5.17V111.9h-5.17Z"/><path d="M196,111a8.63,8.63,0,0,1-3.5-3.27,9.56,9.56,0,0,1,0-9.49A8.77,8.77,0,0,1,196,95a10.75,10.75,0,0,1,5.06-1.17,10.64,10.64,0,0,1,5,1.17,8.94,8.94,0,0,1,3.49,3.27,9.56,9.56,0,0,1,0,9.49,8.8,8.8,0,0,1-3.49,3.27,10.53,10.53,0,0,1-5,1.18A10.64,10.64,0,0,1,196,111Zm8.33-4.41a5.74,5.74,0,0,0,0-7.2A4.31,4.31,0,0,0,201.07,98a4.37,4.37,0,0,0-3.29,1.35,5.67,5.67,0,0,0,0,7.2,4.4,4.4,0,0,0,3.29,1.34A4.34,4.34,0,0,0,204.34,106.58Z"/><path d="M229.39,94.93a8.19,8.19,0,0,1,3.2,3.22,10.61,10.61,0,0,1,0,9.65,8.13,8.13,0,0,1-3.2,3.22,9,9,0,0,1-4.53,1.15,6.9,6.9,0,0,1-5.61-2.32v2.05h-4.94V87.28h5.17v8.66a6.9,6.9,0,0,1,5.38-2.15A9.13,9.13,0,0,1,229.39,94.93Zm-2.16,11.65a5.7,5.7,0,0,0,0-7.2,4.62,4.62,0,0,0-6.53,0,5.7,5.7,0,0,0,0,7.2,4.65,4.65,0,0,0,6.53,0Z"/><path d="M250.48,95.76c1.48,1.32,2.22,3.3,2.22,6V111.9h-4.85v-2.22q-1.46,2.49-5.44,2.49a8.31,8.31,0,0,1-3.56-.7,5.26,5.26,0,0,1-2.31-1.92,5,5,0,0,1-.8-2.79,4.67,4.67,0,0,1,1.88-3.92q1.88-1.43,5.79-1.42h4.11a3.3,3.3,0,0,0-1-2.61,4.5,4.5,0,0,0-3.08-.91,9,9,0,0,0-2.81.45,7.61,7.61,0,0,0-2.34,1.21l-1.85-3.62a11.4,11.4,0,0,1,3.5-1.59,15.53,15.53,0,0,1,4.2-.56A9.29,9.29,0,0,1,250.48,95.76Zm-4.42,12.31a3.3,3.3,0,0,0,1.46-1.81v-1.82H244c-2.12,0-3.18.69-3.18,2.09a1.85,1.85,0,0,0,.78,1.57,3.49,3.49,0,0,0,2.14.58A4.48,4.48,0,0,0,246.06,108.07Z"/><path d="M257.38,87.28h5.17V111.9h-5.17Z"/><path d="M277.12,88.68h5.38V111.9h-5.38Z"/><path d="M303.85,95.78q2,2,2,5.9V111.9h-5.18v-9.42a4.65,4.65,0,0,0-.93-3.17,3.39,3.39,0,0,0-2.69-1A4.13,4.13,0,0,0,294,99.48a5,5,0,0,0-1.16,3.6v8.82h-5.17V94.05h4.94v2.09a6.93,6.93,0,0,1,2.56-1.74,8.84,8.84,0,0,1,3.35-.61A7.34,7.34,0,0,1,303.85,95.78Z"/><path d="M326.78,95.78q2,2,2,5.9V111.9h-5.18v-9.42a4.65,4.65,0,0,0-.93-3.17,3.41,3.41,0,0,0-2.69-1,4.13,4.13,0,0,0-3.12,1.22,5,5,0,0,0-1.16,3.6v8.82h-5.17V94.05h4.94v2.09a7,7,0,0,1,2.55-1.74,8.93,8.93,0,0,1,3.36-.61A7.36,7.36,0,0,1,326.78,95.78Z"/><path d="M337.13,111a8.63,8.63,0,0,1-3.5-3.27,9.56,9.56,0,0,1,0-9.49,8.77,8.77,0,0,1,3.5-3.27,10.75,10.75,0,0,1,5.06-1.17,10.64,10.64,0,0,1,5,1.17,8.85,8.85,0,0,1,3.48,3.27,9.5,9.5,0,0,1,0,9.49,8.71,8.71,0,0,1-3.48,3.27,10.53,10.53,0,0,1-5,1.18A10.64,10.64,0,0,1,337.13,111Zm8.33-4.41a5.74,5.74,0,0,0,0-7.2,4.66,4.66,0,0,0-6.56,0,5.67,5.67,0,0,0,0,7.2,4.68,4.68,0,0,0,6.56,0Z"/><path d="M372.65,94.05l-7.53,17.85h-5.35l-7.5-17.85h5.35l4.94,12.15,5.11-12.15Z"/><path d="M387.75,95.76c1.48,1.32,2.22,3.3,2.22,6V111.9h-4.85v-2.22q-1.46,2.49-5.44,2.49a8.31,8.31,0,0,1-3.56-.7,5.26,5.26,0,0,1-2.31-1.92,5,5,0,0,1-.8-2.79,4.67,4.67,0,0,1,1.88-3.92q1.88-1.43,5.79-1.42h4.11a3.3,3.3,0,0,0-1-2.61,4.5,4.5,0,0,0-3.08-.91,9,9,0,0,0-2.81.45,7.61,7.61,0,0,0-2.34,1.21l-1.85-3.62a11.4,11.4,0,0,1,3.5-1.59,15.51,15.51,0,0,1,4.19-.56A9.3,9.3,0,0,1,387.75,95.76Zm-4.42,12.31a3.34,3.34,0,0,0,1.46-1.81v-1.82h-3.55c-2.12,0-3.18.69-3.18,2.09a1.85,1.85,0,0,0,.78,1.57,3.49,3.49,0,0,0,2.14.58A4.48,4.48,0,0,0,383.33,108.07Z"/><path d="M406.16,111a5.28,5.28,0,0,1-1.87.85,10,10,0,0,1-2.34.28,6.92,6.92,0,0,1-4.93-1.63,6.21,6.21,0,0,1-1.74-4.78V98.43h-2.76v-4h2.76V90.1h5.17v4.35h4.45v4h-4.45v7.27a2.47,2.47,0,0,0,.58,1.74,2.17,2.17,0,0,0,1.65.61,3.34,3.34,0,0,0,2.09-.66Z"/><path d="M409.35,90.73a2.8,2.8,0,0,1,0-4.11,3.28,3.28,0,0,1,2.32-.83,3.32,3.32,0,0,1,2.32.8,2.54,2.54,0,0,1,.9,2,2.82,2.82,0,0,1-.9,2.14,3.64,3.64,0,0,1-4.64,0Zm-.27,3.32h5.18V111.9h-5.18Z"/><path d="M422.5,111a8.7,8.7,0,0,1-3.5-3.27,9.56,9.56,0,0,1,0-9.49A8.83,8.83,0,0,1,422.5,95a11.51,11.51,0,0,1,10.11,0,8.85,8.85,0,0,1,3.48,3.27,9.56,9.56,0,0,1,0,9.49,8.71,8.71,0,0,1-3.48,3.27,11.42,11.42,0,0,1-10.11,0Zm8.33-4.41a5.7,5.7,0,0,0,0-7.2A4.3,4.3,0,0,0,427.56,98a4.35,4.35,0,0,0-3.28,1.35,5.63,5.63,0,0,0,0,7.2,4.38,4.38,0,0,0,3.28,1.34A4.33,4.33,0,0,0,430.83,106.58Z"/><path d="M457,95.78q2,2,2,5.9V111.9h-5.18v-9.42a4.7,4.7,0,0,0-.92-3.17,3.41,3.41,0,0,0-2.69-1,4.1,4.1,0,0,0-3.12,1.22,5,5,0,0,0-1.16,3.6v8.82H440.8V94.05h4.95v2.09a6.81,6.81,0,0,1,2.55-1.74,8.88,8.88,0,0,1,3.35-.61A7.34,7.34,0,0,1,457,95.78Z"/><path d="M473.48,88.68h5.38V111.9h-5.38Z"/><path d="M500.21,95.78q2,2,2,5.9V111.9h-5.17v-9.42a4.65,4.65,0,0,0-.93-3.17,3.41,3.41,0,0,0-2.69-1,4.12,4.12,0,0,0-3.12,1.22,5,5,0,0,0-1.16,3.6v8.82H484V94.05H489v2.09a6.81,6.81,0,0,1,2.55-1.74,8.91,8.91,0,0,1,3.35-.61A7.32,7.32,0,0,1,500.21,95.78Z"/><path d="M525.31,87.28V111.9h-4.94v-2.05a6.85,6.85,0,0,1-5.58,2.32,9.29,9.29,0,0,1-4.56-1.13,8.06,8.06,0,0,1-3.2-3.22,10.7,10.7,0,0,1,0-9.69,8.13,8.13,0,0,1,3.2-3.22,9.28,9.28,0,0,1,4.56-1.12,6.8,6.8,0,0,1,5.35,2.15V87.28Zm-6.37,19.3a5.63,5.63,0,0,0,0-7.2,4.62,4.62,0,0,0-6.53,0,5.63,5.63,0,0,0,0,7.2,4.65,4.65,0,0,0,6.53,0Z"/><path d="M547.48,104.44H534a4.24,4.24,0,0,0,1.73,2.62,5.72,5.72,0,0,0,3.38,1,7,7,0,0,0,2.48-.41,6.1,6.1,0,0,0,2-1.32l2.76,3q-2.52,2.89-7.37,2.89a11.6,11.6,0,0,1-5.34-1.18,8.63,8.63,0,0,1-3.59-3.27,9,9,0,0,1-1.26-4.74A9.11,9.11,0,0,1,530,98.25,8.73,8.73,0,0,1,533.43,95a10.07,10.07,0,0,1,4.86-1.17A10,10,0,0,1,543,94.91a8.27,8.27,0,0,1,3.34,3.24,9.69,9.69,0,0,1,1.21,4.89C547.58,103.11,547.54,103.57,547.48,104.44ZM535.37,98.7a4.18,4.18,0,0,0-1.46,2.72h8.79a4.3,4.3,0,0,0-1.46-2.71,4.79,4.79,0,0,0-5.87,0Z"/><path d="M561.88,111.9,558,106.43l-4,5.47h-5.65l6.87-9-6.63-8.86h5.8l3.79,5.21L562,94.05h5.51l-6.64,8.73,6.9,9.12Z"/><path class="cls-2" d="M391.55,206.63c0-44.28-44.8-78.1-91.54-58.61A58.51,58.51,0,0,0,268.44,180c-11.47,28.2-3.6,55.6,14.19,72.82a66.74,66.74,0,0,1,17.8,30.62l1.43,5.29a20.09,20.09,0,0,0,19.4,14.85h11.95a19.31,19.31,0,0,0,18.64-14.26l1.59-5.89a63.26,63.26,0,0,1,17.73-29.83A64.09,64.09,0,0,0,391.55,206.63Z"/><ellipse class="cls-3" cx="327.31" cy="311.76" rx="19.51" ry="4.48"/><ellipse class="cls-3" cx="327.31" cy="317.62" rx="16.62" ry="3.82"/><ellipse class="cls-3" cx="327.31" cy="321.91" rx="13.46" ry="3.09"/><ellipse class="cls-4" cx="318.57" cy="223.14" rx="6" ry="22.23"/><ellipse class="cls-4" cx="327.46" cy="223.14" rx="6" ry="22.23"/><ellipse class="cls-4" cx="336.29" cy="223.14" rx="6" ry="22.23"/><polyline class="cls-4" points="312.57 220.46 299.11 220.46 317.83 296.75 321.91 296.75 323.47 292.86 325.08 299.64 327.31 292.86 329.25 299.64 331.08 292.8 332.31 296.75 337.03 296.75 355.75 220.46 342.25 220.46"/><line class="cls-3" x1="327.31" y1="380.65" x2="327.31" y2="761.53"/><line class="cls-3" x1="152.2" y1="854.86" x2="502.41" y2="854.86"/><path class="cls-3" d="M502.41,769.68a42.35,42.35,0,0,0-22.77,6.61,42.61,42.61,0,0,0-40.74-30.17,43.31,43.31,0,0,0-5,.3,54.37,54.37,0,0,0-106.59,15.11v93.33h175.1a42.59,42.59,0,0,0,0-85.18Z"/><path class="cls-3" d="M438,801a26.76,26.76,0,0,0-14.39,4.18,26.93,26.93,0,0,0-25.75-19.06,27.5,27.5,0,0,0-3.16.19,34.35,34.35,0,0,0-67.35,9.54v59H438A26.92,26.92,0,0,0,438,801Z"/><path class="cls-3" d="M216.66,801a26.79,26.79,0,0,1,14.39,4.18,26.92,26.92,0,0,1,25.74-19.06,27.5,27.5,0,0,1,3.16.19,34.36,34.36,0,0,1,67.36,9.54v59H216.66a26.92,26.92,0,0,1,0-53.83Z"/><path class="cls-3" d="M382.63,828a13.36,13.36,0,0,0-7.19,2.08A13.38,13.38,0,0,0,361,820.6a17.18,17.18,0,0,0-33.68,4.77v29.49h55.32a13.46,13.46,0,1,0,0-26.91Z"/><path class="cls-3" d="M272,828a13.39,13.39,0,0,1,7.2,2.08,13.46,13.46,0,0,1,12.87-9.53,13.82,13.82,0,0,1,1.58.1,17.18,17.18,0,0,1,33.68,4.77v29.49H272A13.46,13.46,0,0,1,272,828Z"/><path class="cls-3" d="M272.94,707.16a54.38,54.38,0,0,0-52.23,39.26,43.27,43.27,0,0,0-5-.3A42.6,42.6,0,0,0,175,776.29a42.59,42.59,0,1,0-22.78,78.57H327.31V761.53A54.37,54.37,0,0,0,272.94,707.16Z"/><path class="cls-3" d="M320.07,363.7c-.5-4.84,2.5-6.67,2.5-6.67.17,12.18,6.51,17.35,6.51,17.35-1.33-4.67,2.17-6.34,8.35-15.85s.33-19.36.33-19.36c3,.34,5.17,5.84,5.17,5.84-1.24-11.84-13.22-20-19.49-14.42C310.11,342.35,320.07,363.7,320.07,363.7Z"/><line class="cls-3" x1="327.31" y1="414.42" x2="255.95" y2="414.42"/><line class="cls-3" x1="398.78" y1="564.23" x2="327.43" y2="564.23"/><path class="cls-5" d="M470.7,583v11.34H425.23v-9l23.21-21.92a24.81,24.81,0,0,0,5-6.06,11,11,0,0,0,1.29-5,6.65,6.65,0,0,0-2.45-5.54q-2.46-1.93-7.18-1.94a16.54,16.54,0,0,0-7.14,1.51,13.64,13.64,0,0,0-5.32,4.51l-10.15-6.54a23.84,23.84,0,0,1,9.72-8.2,32.36,32.36,0,0,1,14.18-3,29.16,29.16,0,0,1,11.73,2.19,18.1,18.1,0,0,1,7.82,6.19,16,16,0,0,1,2.79,9.42,20.85,20.85,0,0,1-2.06,9.19q-2.06,4.3-8,9.8L444.83,583Z"/><path class="cls-5" d="M488.76,591.65A24.79,24.79,0,0,1,479.6,581a43.88,43.88,0,0,1,0-33.44,24.85,24.85,0,0,1,9.16-10.7,25.83,25.83,0,0,1,26.64,0,24.85,24.85,0,0,1,9.16,10.7,43.88,43.88,0,0,1,0,33.44,24.79,24.79,0,0,1-9.16,10.7,25.89,25.89,0,0,1-26.64,0Zm22-12.81q3.13-4.73,3.13-14.61t-3.13-14.62a10.19,10.19,0,0,0-17.19,0q-3.15,4.74-3.14,14.62t3.14,14.61a10.17,10.17,0,0,0,17.19,0Z"/><path class="cls-5" d="M579.09,583v11.34H533.62v-9l23.21-21.92a24.81,24.81,0,0,0,5-6.06,11,11,0,0,0,1.29-5,6.65,6.65,0,0,0-2.45-5.54q-2.46-1.93-7.18-1.94a16.54,16.54,0,0,0-7.14,1.51,13.64,13.64,0,0,0-5.32,4.51l-10.15-6.54a23.84,23.84,0,0,1,9.72-8.2,32.36,32.36,0,0,1,14.18-3,29.16,29.16,0,0,1,11.73,2.19,18.1,18.1,0,0,1,7.82,6.19,16,16,0,0,1,2.79,9.42,20.85,20.85,0,0,1-2.06,9.19q-2.06,4.3-8,9.8L553.22,583Z"/><path class="cls-5" d="M608.06,534.14v60.17H594.14v-49h-12V534.14Z"/><path class="cls-6" d="M86.49,430.92v10h-40V433l20.44-19.3a22,22,0,0,0,4.39-5.34,9.78,9.78,0,0,0,1.13-4.43A5.83,5.83,0,0,0,70.25,399c-1.44-1.14-3.54-1.71-6.32-1.71a14.56,14.56,0,0,0-6.28,1.32,12.19,12.19,0,0,0-4.69,4L44,396.86a21,21,0,0,1,8.55-7.22A28.58,28.58,0,0,1,65.07,387,25.59,25.59,0,0,1,75.4,389a15.87,15.87,0,0,1,6.89,5.45,14.07,14.07,0,0,1,2.46,8.29,18.46,18.46,0,0,1-1.82,8.09q-1.82,3.79-7,8.63l-12.18,11.5Z"/><path class="cls-6" d="M102.38,438.57a21.81,21.81,0,0,1-8.06-9.43,38.68,38.68,0,0,1,0-29.44,21.89,21.89,0,0,1,8.06-9.42,22.79,22.79,0,0,1,23.46,0,21.83,21.83,0,0,1,8.06,9.42,38.56,38.56,0,0,1,0,29.44,21.74,21.74,0,0,1-8.06,9.43,22.79,22.79,0,0,1-23.46,0Zm19.34-11.28q2.76-4.16,2.76-12.87t-2.76-12.86a9,9,0,0,0-15.14,0q-2.76,4.17-2.76,12.86t2.76,12.87a9,9,0,0,0,15.14,0Z"/><path class="cls-6" d="M181.92,430.92v10h-40V433l20.43-19.3a21.77,21.77,0,0,0,4.39-5.34,9.67,9.67,0,0,0,1.14-4.43,5.83,5.83,0,0,0-2.16-4.87q-2.16-1.71-6.32-1.71a14.53,14.53,0,0,0-6.28,1.32,12.12,12.12,0,0,0-4.69,4l-8.93-5.76a20.88,20.88,0,0,1,8.55-7.22A28.54,28.54,0,0,1,160.5,387,25.59,25.59,0,0,1,170.83,389a15.81,15.81,0,0,1,6.89,5.45,14.07,14.07,0,0,1,2.46,8.29,18.46,18.46,0,0,1-1.81,8.09q-1.83,3.79-7,8.63l-12.19,11.5Z"/><path class="cls-6" d="M197.82,438.57a21.81,21.81,0,0,1-8.06-9.43,38.56,38.56,0,0,1,0-29.44,21.89,21.89,0,0,1,8.06-9.42,22.79,22.79,0,0,1,23.46,0,21.89,21.89,0,0,1,8.06,9.42,38.68,38.68,0,0,1,0,29.44,21.81,21.81,0,0,1-8.06,9.43,22.79,22.79,0,0,1-23.46,0Zm19.33-11.28q2.76-4.16,2.77-12.87t-2.77-12.86a8.95,8.95,0,0,0-15.13,0q-2.76,4.17-2.77,12.86T202,427.29a9,9,0,0,0,15.13,0Z"/><path class="cls-7" d="M51.34,505.7v19.91H48.52V508.18H44V505.7Z"/><path class="cls-7" d="M69.68,523.14v2.47H55.38v-1.93l8.1-7.82a9.62,9.62,0,0,0,2-2.46,4.61,4.61,0,0,0,.52-2.09,2.92,2.92,0,0,0-1.1-2.43,5,5,0,0,0-3.14-.87,6.23,6.23,0,0,0-5.09,2.16l-1.94-1.68a7.77,7.77,0,0,1,3.06-2.22,10.81,10.81,0,0,1,4.23-.79A7.65,7.65,0,0,1,67,507a4.94,4.94,0,0,1,1.85,4,7,7,0,0,1-.68,3,12.08,12.08,0,0,1-2.59,3.24l-6.09,5.86Z"/><path class="cls-7" d="M84.66,508.06q2.18,2.6,2.17,7.34a12.51,12.51,0,0,1-1.18,5.68,8.12,8.12,0,0,1-3.3,3.55,9.71,9.71,0,0,1-4.93,1.21,11.9,11.9,0,0,1-2.73-.3,7.68,7.68,0,0,1-2.22-.87l1.08-2.21a7,7,0,0,0,3.84.94,6.24,6.24,0,0,0,4.85-1.93A8,8,0,0,0,84,515.89v-.72a5.34,5.34,0,0,1-2.36,2,8.21,8.21,0,0,1-3.39.67,8.11,8.11,0,0,1-3.51-.74,5.68,5.68,0,0,1-2.42-2.12,6.33,6.33,0,0,1,.06-6.47,6.27,6.27,0,0,1,2.52-2.2,8,8,0,0,1,3.58-.78A7.64,7.64,0,0,1,84.66,508.06ZM81.12,515a4.08,4.08,0,0,0,1.63-1.4,3.56,3.56,0,0,0,0-3.88,3.9,3.9,0,0,0-1.62-1.39,5.77,5.77,0,0,0-2.57-.53,4.69,4.69,0,0,0-3.18,1.05,3.56,3.56,0,0,0-1.2,2.82,3.47,3.47,0,0,0,1.22,2.8,4.92,4.92,0,0,0,3.3,1A5.41,5.41,0,0,0,81.12,515Z"/><path d="M100.9,524.79A7.27,7.27,0,0,1,98.07,522a8.15,8.15,0,0,1,0-7.93,7.08,7.08,0,0,1,2.83-2.73,8.38,8.38,0,0,1,4.11-1,7.88,7.88,0,0,1,3.65.82,5.92,5.92,0,0,1,2.49,2.39L109.07,515a4.61,4.61,0,0,0-1.76-1.62,5,5,0,0,0-2.33-.54,5.35,5.35,0,0,0-2.66.65,4.73,4.73,0,0,0-1.85,1.86,6.14,6.14,0,0,0,0,5.58,4.66,4.66,0,0,0,1.85,1.86,5.35,5.35,0,0,0,2.66.66,4.91,4.91,0,0,0,2.33-.55,4.53,4.53,0,0,0,1.76-1.62l2.08,1.31a5.88,5.88,0,0,1-2.49,2.4,7.76,7.76,0,0,1-3.65.84A8.39,8.39,0,0,1,100.9,524.79Z"/><path d="M116.87,524.79a7.19,7.19,0,0,1-2.8-2.75,8.29,8.29,0,0,1,0-7.93,7,7,0,0,1,2.8-2.73,8.78,8.78,0,0,1,8.06,0,7.18,7.18,0,0,1,2.79,2.73,8.29,8.29,0,0,1,0,7.93,7.37,7.37,0,0,1-2.79,2.75,8.7,8.7,0,0,1-8.06,0Zm6.64-2.06a4.72,4.72,0,0,0,1.8-1.88,6.16,6.16,0,0,0,0-5.55,4.61,4.61,0,0,0-1.8-1.86,5.55,5.55,0,0,0-5.21,0,4.86,4.86,0,0,0-1.82,1.86,6.16,6.16,0,0,0,0,5.55,5,5,0,0,0,1.82,1.88,5.4,5.4,0,0,0,5.21,0Z"/><path d="M146.56,510.54v15.07H144v-2.27a5.35,5.35,0,0,1-2.18,1.8,6.73,6.73,0,0,1-2.94.64,5.91,5.91,0,0,1-6.48-6.57v-8.67h2.73v8.36a4.71,4.71,0,0,0,1.05,3.32,4,4,0,0,0,3,1.12,4.52,4.52,0,0,0,3.42-1.31,5.16,5.16,0,0,0,1.25-3.7v-7.79Z"/><path d="M164.38,512.06a6.55,6.55,0,0,1,1.69,4.88v8.67h-2.73v-8.36a4.64,4.64,0,0,0-1.05-3.3,4,4,0,0,0-3-1.11,4.69,4.69,0,0,0-3.5,1.3,5.06,5.06,0,0,0-1.28,3.71v7.76h-2.73V510.54h2.62v2.27a5.43,5.43,0,0,1,2.23-1.79,7.94,7.94,0,0,1,3.2-.62A6.23,6.23,0,0,1,164.38,512.06Z"/><path d="M179.61,524.73a4.09,4.09,0,0,1-1.48.78,6.22,6.22,0,0,1-1.82.27,4.83,4.83,0,0,1-3.53-1.22,4.68,4.68,0,0,1-1.25-3.5v-8.27H169v-2.25h2.56v-3.3h2.73v3.3h4.32v2.25h-4.32V521a2.66,2.66,0,0,0,.61,1.88,2.3,2.3,0,0,0,1.75.65,3.28,3.28,0,0,0,2.13-.71Z"/><path d="M187.63,511.08a7.58,7.58,0,0,1,3.38-.68V513a5,5,0,0,0-.62,0,4.59,4.59,0,0,0-3.49,1.33,5.24,5.24,0,0,0-1.26,3.76v7.51h-2.73V510.54h2.61v2.53A4.68,4.68,0,0,1,187.63,511.08Z"/><path d="M194.41,507.13a1.79,1.79,0,0,1,0-2.52,1.79,1.79,0,0,1,1.32-.53,1.86,1.86,0,0,1,1.33.5,1.64,1.64,0,0,1,.52,1.24,1.75,1.75,0,0,1-.52,1.29,1.95,1.95,0,0,1-2.65,0Zm0,3.41h2.73v15.07h-2.73Z"/><path d="M215.87,519H203.64a4.74,4.74,0,0,0,1.75,3.2,5.72,5.72,0,0,0,3.71,1.21,5.58,5.58,0,0,0,4.35-1.83l1.51,1.77a6.65,6.65,0,0,1-2.55,1.82,9.62,9.62,0,0,1-7.63-.36,6.94,6.94,0,0,1-2.86-2.74,7.9,7.9,0,0,1-1-4,8.07,8.07,0,0,1,1-4,7,7,0,0,1,2.7-2.74,7.64,7.64,0,0,1,3.88-1,7.49,7.49,0,0,1,3.86,1,6.83,6.83,0,0,1,2.64,2.74,8.32,8.32,0,0,1,1,4A7.62,7.62,0,0,1,215.87,519Zm-10.68-5.1a4.83,4.83,0,0,0-1.55,3.13h9.67a4.85,4.85,0,0,0-1.55-3.11,4.68,4.68,0,0,0-3.29-1.21A4.74,4.74,0,0,0,205.19,513.89Z"/><path d="M220.48,525.29A8.07,8.07,0,0,1,217.8,524l1.14-2.16a8.36,8.36,0,0,0,2.42,1.14,10.07,10.07,0,0,0,2.87.42c2.39,0,3.59-.68,3.59-2a1.35,1.35,0,0,0-.49-1.08,3.17,3.17,0,0,0-1.21-.58c-.48-.12-1.17-.26-2.06-.41a19.85,19.85,0,0,1-3-.66,4.5,4.5,0,0,1-2-1.25,3.46,3.46,0,0,1-.82-2.47,3.89,3.89,0,0,1,1.7-3.29,7.69,7.69,0,0,1,4.58-1.23,12.48,12.48,0,0,1,3,.37,8.1,8.1,0,0,1,2.47,1l-1.17,2.16a7.88,7.88,0,0,0-4.35-1.19,5,5,0,0,0-2.64.57,1.71,1.71,0,0,0-.91,1.51,1.43,1.43,0,0,0,.51,1.16,3.22,3.22,0,0,0,1.27.63c.5.13,1.21.28,2.11.45a22.61,22.61,0,0,1,3,.67,4.4,4.4,0,0,1,1.92,1.21,3.37,3.37,0,0,1,.8,2.39,3.77,3.77,0,0,1-1.75,3.25,8.26,8.26,0,0,1-4.77,1.21A12.63,12.63,0,0,1,220.48,525.29Z"/><path class="cls-8" d="M66.14,477.6A7.08,7.08,0,0,1,67.49,482a7.66,7.66,0,0,1-1.43,4.62,9.14,9.14,0,0,1-4.1,3,16.92,16.92,0,0,1-6.24,1.05,16.63,16.63,0,0,1-6.18-1.05,9,9,0,0,1-4.07-3A7.6,7.6,0,0,1,44,482a7.14,7.14,0,0,1,1.33-4.35,8.33,8.33,0,0,1,3.86-2.78,7.46,7.46,0,0,1-3.08-2.57,6.79,6.79,0,0,1-1-3.8,7,7,0,0,1,1.33-4.26,8.37,8.37,0,0,1,3.73-2.79,14.74,14.74,0,0,1,5.57-1,15,15,0,0,1,5.63,1,8.41,8.41,0,0,1,3.76,2.79,7.06,7.06,0,0,1,1.33,4.26,6.7,6.7,0,0,1-1.08,3.78,7.54,7.54,0,0,1-3.1,2.59A8.45,8.45,0,0,1,66.14,477.6Zm-4.89,8.17a4.61,4.61,0,0,0,2-3.95,4.46,4.46,0,0,0-2-3.86,9.55,9.55,0,0,0-5.53-1.41A9.35,9.35,0,0,0,50.23,478a4.49,4.49,0,0,0-2,3.86,4.65,4.65,0,0,0,2,3.95,9.13,9.13,0,0,0,5.49,1.45A9.33,9.33,0,0,0,61.25,485.77ZM51,465.14a4.36,4.36,0,0,0,0,6.94,7.86,7.86,0,0,0,4.75,1.26,8.15,8.15,0,0,0,4.83-1.26,4.29,4.29,0,0,0,0-6.94,8,8,0,0,0-4.79-1.29A7.76,7.76,0,0,0,51,465.14Z"/><path class="cls-8" d="M89.12,474.92a7.93,7.93,0,0,1,3,6.53,9,9,0,0,1-1.25,4.7,8.49,8.49,0,0,1-3.75,3.29,14.25,14.25,0,0,1-6.18,1.2,19.51,19.51,0,0,1-6-.95,13.44,13.44,0,0,1-4.81-2.63L72,483.72a11.06,11.06,0,0,0,3.89,2.3,14.25,14.25,0,0,0,5,.87A8.28,8.28,0,0,0,86,485.47a4.61,4.61,0,0,0,1.83-3.86,4.55,4.55,0,0,0-2-4c-1.34-.91-3.65-1.37-6.91-1.37H72.22l1.56-15.44H90.44v3.67H77.32l-.8,8.1h3.29Q86.14,472.54,89.12,474.92Z"/><path d="M112.34,489.08a10.62,10.62,0,0,1-4.15-4.07,12.29,12.29,0,0,1,0-11.77,10.5,10.5,0,0,1,4.15-4.05,12.27,12.27,0,0,1,6-1.46,12.14,12.14,0,0,1,6,1.46,10.6,10.6,0,0,1,4.14,4.05,12.29,12.29,0,0,1,0,11.77,10.72,10.72,0,0,1-4.14,4.07,12,12,0,0,1-6,1.48A12.17,12.17,0,0,1,112.34,489.08Zm9.85-3.06a7,7,0,0,0,2.68-2.78,9.21,9.21,0,0,0,0-8.23,6.85,6.85,0,0,0-2.68-2.76,8.09,8.09,0,0,0-7.72,0,7,7,0,0,0-2.7,2.76,9,9,0,0,0,0,8.23,7.15,7.15,0,0,0,2.7,2.78,8,8,0,0,0,7.72,0Z"/><path d="M156.39,467.94V490.3h-3.84v-3.37a8.09,8.09,0,0,1-3.23,2.68,10.08,10.08,0,0,1-4.36.95,9.8,9.8,0,0,1-7.05-2.47c-1.72-1.65-2.57-4.07-2.57-7.28V467.94h4v12.41a6.94,6.94,0,0,0,1.56,4.91,5.83,5.83,0,0,0,4.47,1.67,6.67,6.67,0,0,0,5.06-1.94,7.64,7.64,0,0,0,1.86-5.49V467.94Z"/><path d="M176.68,489a6.18,6.18,0,0,1-2.19,1.16,9.39,9.39,0,0,1-2.7.4,7.17,7.17,0,0,1-5.23-1.82,6.92,6.92,0,0,1-1.86-5.19V471.27h-3.79v-3.33h3.79v-4.89h4.05v4.89h6.42v3.33h-6.42v12.12a3.91,3.91,0,0,0,.91,2.78,3.37,3.37,0,0,0,2.6,1,4.85,4.85,0,0,0,3.16-1.06Z"/><path d="M196.51,489.08a10.68,10.68,0,0,1-4.15-4.07,12.29,12.29,0,0,1,0-11.77,10.56,10.56,0,0,1,4.15-4.05,12.31,12.31,0,0,1,6-1.46,12.16,12.16,0,0,1,6,1.46,10.65,10.65,0,0,1,4.13,4.05,12.29,12.29,0,0,1,0,11.77,10.77,10.77,0,0,1-4.13,4.07,12.07,12.07,0,0,1-6,1.48A12.21,12.21,0,0,1,196.51,489.08Zm9.86-3.06a7,7,0,0,0,2.68-2.78,9.21,9.21,0,0,0,0-8.23,6.85,6.85,0,0,0-2.68-2.76,8.11,8.11,0,0,0-7.73,0A7,7,0,0,0,196,475a9,9,0,0,0,0,8.23,7.19,7.19,0,0,0,2.69,2.78,8,8,0,0,0,7.73,0Z"/><path d="M224.28,466v1.94h6.5v3.33h-6.42v19h-4.05v-19h-3.79v-3.33h3.79v-2a7.13,7.13,0,0,1,1.94-5.27,7.36,7.36,0,0,1,5.45-1.95,9,9,0,0,1,2.53.34,6.32,6.32,0,0,1,2,1L231,463.13a5.06,5.06,0,0,0-3.12-1.05C225.49,462.08,224.28,463.38,224.28,466Z"/><path class="cls-8" d="M444.17,631.71a7,7,0,0,1,1.32,4.26,7.49,7.49,0,0,1-1.41,4.54,8.86,8.86,0,0,1-4,3,16.56,16.56,0,0,1-6.13,1,16.29,16.29,0,0,1-6.06-1,8.91,8.91,0,0,1-4-3,7.49,7.49,0,0,1-1.41-4.54,7,7,0,0,1,1.31-4.26,8.25,8.25,0,0,1,3.78-2.73,7.3,7.3,0,0,1-3-2.52,6.63,6.63,0,0,1-1-3.73,6.88,6.88,0,0,1,1.3-4.18,8.31,8.31,0,0,1,3.66-2.73,14.59,14.59,0,0,1,5.46-1,14.93,14.93,0,0,1,5.53,1,8.32,8.32,0,0,1,3.68,2.73,6.89,6.89,0,0,1,1.31,4.18,6.61,6.61,0,0,1-1.06,3.71,7.38,7.38,0,0,1-3,2.54A8.45,8.45,0,0,1,444.17,631.71Zm-4.81,8a4.51,4.51,0,0,0,2-3.87,4.38,4.38,0,0,0-2-3.79,9.35,9.35,0,0,0-5.42-1.38,9.17,9.17,0,0,0-5.38,1.38,4.43,4.43,0,0,0-1.94,3.79,4.56,4.56,0,0,0,1.94,3.87,9,9,0,0,0,5.38,1.43A9.13,9.13,0,0,0,439.36,639.72Zm-10.05-20.24a4.05,4.05,0,0,0-1.7,3.42,4,4,0,0,0,1.68,3.39,7.67,7.67,0,0,0,4.65,1.24,7.92,7.92,0,0,0,4.74-1.24,4,4,0,0,0,1.72-3.39,4,4,0,0,0-1.76-3.42,7.91,7.91,0,0,0-4.7-1.26A7.62,7.62,0,0,0,429.31,619.48Z"/><path class="cls-8" d="M470.4,615.2V618l-11.71,26.15H454.3l11.46-25.37H452.52V624h-4V615.2Z"/><path d="M490.47,643a10.53,10.53,0,0,1-4.08-4,12.06,12.06,0,0,1,0-11.54,10.32,10.32,0,0,1,4.08-4,12.74,12.74,0,0,1,11.73,0,10.37,10.37,0,0,1,4.05,4,12.06,12.06,0,0,1,0,11.54,10.59,10.59,0,0,1-4.05,4,12.59,12.59,0,0,1-11.73,0Zm9.66-3a6.82,6.82,0,0,0,2.62-2.73,9,9,0,0,0,0-8.07,6.64,6.64,0,0,0-2.62-2.71,8,8,0,0,0-7.58,0,6.82,6.82,0,0,0-2.64,2.71,8.8,8.8,0,0,0,0,8.07,7,7,0,0,0,2.64,2.73,7.89,7.89,0,0,0,7.58,0Z"/><path d="M533.66,622.23v21.94H529.9v-3.31a8,8,0,0,1-3.17,2.62,9.72,9.72,0,0,1-4.28.94,9.55,9.55,0,0,1-6.91-2.43q-2.52-2.41-2.52-7.13V622.23h4V634.4a6.8,6.8,0,0,0,1.53,4.82,5.72,5.72,0,0,0,4.39,1.64,6.54,6.54,0,0,0,5-1.91,7.44,7.44,0,0,0,1.82-5.38V622.23Z"/><path d="M553.57,642.88a5.89,5.89,0,0,1-2.15,1.14,9.1,9.1,0,0,1-2.65.4,7,7,0,0,1-5.13-1.79,6.75,6.75,0,0,1-1.82-5.08v-12h-3.73v-3.27h3.73v-4.79h4v4.79h6.29v3.27h-6.29v11.88a3.85,3.85,0,0,0,.89,2.73,3.28,3.28,0,0,0,2.54.95,4.8,4.8,0,0,0,3.11-1Z"/><path d="M573,643a10.57,10.57,0,0,1-4.07-4,12.06,12.06,0,0,1,0-11.54,10.36,10.36,0,0,1,4.07-4,12,12,0,0,1,5.88-1.43,11.79,11.79,0,0,1,5.85,1.43,10.33,10.33,0,0,1,4.06,4,12.06,12.06,0,0,1,0,11.54,10.54,10.54,0,0,1-4.06,4,11.8,11.8,0,0,1-5.85,1.45A12,12,0,0,1,573,643Zm9.67-3a6.89,6.89,0,0,0,2.62-2.73,9,9,0,0,0,0-8.07,6.71,6.71,0,0,0-2.62-2.71,8,8,0,0,0-7.58,0,6.76,6.76,0,0,0-2.64,2.71,8.8,8.8,0,0,0,0,8.07A6.94,6.94,0,0,0,575.1,640a7.89,7.89,0,0,0,7.58,0Z"/><path d="M600.24,620.33v1.9h6.37v3.27h-6.29v18.67h-4V625.5h-3.72v-3.27h3.72v-1.94a7,7,0,0,1,1.9-5.17,7.22,7.22,0,0,1,5.34-1.9,8.6,8.6,0,0,1,2.48.33,6,6,0,0,1,2,1l-1.2,3a4.94,4.94,0,0,0-3.06-1C601.42,616.48,600.24,617.77,600.24,620.33Z"/><path class="cls-7" d="M429.79,658.71v19.91H427V661.19h-4.5v-2.48Z"/><path class="cls-7" d="M446.23,668.88a5.23,5.23,0,0,1,1.54,3.89,5.73,5.73,0,0,1-.85,3.08,5.88,5.88,0,0,1-2.55,2.19,9.55,9.55,0,0,1-4.14.81,13,13,0,0,1-4.09-.64,8.67,8.67,0,0,1-3.22-1.78l1.31-2.24a7.62,7.62,0,0,0,2.62,1.55,9.72,9.72,0,0,0,3.38.58,5.6,5.6,0,0,0,3.46-.94,3.08,3.08,0,0,0,1.24-2.59,3,3,0,0,0-1.23-2.56,6.22,6.22,0,0,0-3.7-.91h-1.59v-2l5-6.14h-9.59v-2.48H447v1.94l-5.2,6.43A7.11,7.11,0,0,1,446.23,668.88Z"/><path class="cls-7" d="M464.58,658.71v1.94l-8.05,18h-3l7.88-17.43h-9.1v3.55h-2.73v-6Z"/><path d="M478.41,677.8a7.26,7.26,0,0,1-2.83-2.75,8.22,8.22,0,0,1,0-7.93,7.15,7.15,0,0,1,2.83-2.73,8.44,8.44,0,0,1,4.11-1,7.89,7.89,0,0,1,3.66.82,5.92,5.92,0,0,1,2.49,2.39L486.59,668a4.68,4.68,0,0,0-1.76-1.62,5.07,5.07,0,0,0-2.34-.54,5.31,5.31,0,0,0-2.65.65,4.66,4.66,0,0,0-1.85,1.86,6.14,6.14,0,0,0,0,5.58,4.6,4.6,0,0,0,1.85,1.86,5.32,5.32,0,0,0,2.65.66,5,5,0,0,0,2.34-.55,4.6,4.6,0,0,0,1.76-1.62l2.08,1.31a5.88,5.88,0,0,1-2.49,2.4,7.78,7.78,0,0,1-3.66.84A8.44,8.44,0,0,1,478.41,677.8Z"/><path d="M494.38,677.8a7.19,7.19,0,0,1-2.8-2.75,8.29,8.29,0,0,1,0-7.93,7.07,7.07,0,0,1,2.8-2.73,8.22,8.22,0,0,1,4-1,8.09,8.09,0,0,1,4,1,7,7,0,0,1,2.79,2.73,8.29,8.29,0,0,1,0,7.93,7.16,7.16,0,0,1-2.79,2.75,8.09,8.09,0,0,1-4,1A8.22,8.22,0,0,1,494.38,677.8Zm6.64-2.06a4.75,4.75,0,0,0,1.81-1.88,6.25,6.25,0,0,0,0-5.55,4.7,4.7,0,0,0-1.81-1.86,5.52,5.52,0,0,0-5.2,0,4.72,4.72,0,0,0-1.82,1.86,6.08,6.08,0,0,0,0,5.55,4.77,4.77,0,0,0,1.82,1.88,5.38,5.38,0,0,0,5.2,0Z"/><path d="M524.07,663.55v15.07h-2.58v-2.27a5.42,5.42,0,0,1-2.18,1.8,6.73,6.73,0,0,1-2.94.64,6.56,6.56,0,0,1-4.75-1.66,6.48,6.48,0,0,1-1.74-4.91v-8.67h2.73v8.36a4.66,4.66,0,0,0,1.06,3.32,4,4,0,0,0,3,1.12,4.5,4.5,0,0,0,3.41-1.31,5.12,5.12,0,0,0,1.25-3.7v-7.79Z"/><path d="M541.89,665.07a6.55,6.55,0,0,1,1.7,4.88v8.67h-2.74v-8.36a4.64,4.64,0,0,0-1.05-3.3,3.94,3.94,0,0,0-3-1.11,4.67,4.67,0,0,0-3.5,1.3,5.06,5.06,0,0,0-1.28,3.71v7.76h-2.73V663.55h2.62v2.27a5.37,5.37,0,0,1,2.23-1.79,7.91,7.91,0,0,1,3.2-.62A6.22,6.22,0,0,1,541.89,665.07Z"/><path d="M557.12,677.74a4.09,4.09,0,0,1-1.48.78,6.12,6.12,0,0,1-1.82.27,4.8,4.8,0,0,1-3.52-1.22,4.64,4.64,0,0,1-1.25-3.5V665.8h-2.56v-2.25h2.56v-3.3h2.73v3.3h4.32v2.25h-4.32V674a2.66,2.66,0,0,0,.61,1.88,2.29,2.29,0,0,0,1.75.65,3.32,3.32,0,0,0,2.13-.71Z"/><path d="M565.14,664.09a7.59,7.59,0,0,1,3.39-.68v2.64a5.06,5.06,0,0,0-.63,0,4.55,4.55,0,0,0-3.48,1.33,5.2,5.2,0,0,0-1.27,3.76v7.51h-2.73V663.55H563v2.53A4.61,4.61,0,0,1,565.14,664.09Z"/><path d="M571.93,660.14a1.76,1.76,0,0,1,0-2.52,1.79,1.79,0,0,1,1.32-.53,1.85,1.85,0,0,1,1.32.5,1.65,1.65,0,0,1,.53,1.24,1.76,1.76,0,0,1-.53,1.29,1.79,1.79,0,0,1-1.32.53A1.82,1.82,0,0,1,571.93,660.14Zm0,3.41h2.73v15.07h-2.73Z"/><path d="M593.39,672H581.16a4.77,4.77,0,0,0,1.74,3.2,5.77,5.77,0,0,0,3.72,1.21,5.58,5.58,0,0,0,4.35-1.83l1.51,1.77a6.73,6.73,0,0,1-2.55,1.82,9.65,9.65,0,0,1-7.64-.36,7,7,0,0,1-2.85-2.74,7.8,7.8,0,0,1-1-4,8,8,0,0,1,1-4,7,7,0,0,1,2.7-2.74,7.64,7.64,0,0,1,3.88-1,7.51,7.51,0,0,1,3.86,1,6.9,6.9,0,0,1,2.64,2.74,8.31,8.31,0,0,1,1,4C593.44,671.38,593.42,671.65,593.39,672Zm-10.68-5.1a4.83,4.83,0,0,0-1.55,3.13h9.67a4.9,4.9,0,0,0-1.55-3.11,5.1,5.1,0,0,0-6.57,0Z"/><path d="M598,678.3a7.91,7.91,0,0,1-2.67-1.27l1.14-2.16a8.36,8.36,0,0,0,2.42,1.14,10,10,0,0,0,2.87.42c2.39,0,3.58-.68,3.58-2a1.35,1.35,0,0,0-.48-1.09,3.32,3.32,0,0,0-1.21-.58c-.49-.12-1.17-.26-2.06-.41a19.73,19.73,0,0,1-3-.66,4.52,4.52,0,0,1-2-1.25,3.46,3.46,0,0,1-.83-2.47,3.87,3.87,0,0,1,1.71-3.29,7.67,7.67,0,0,1,4.58-1.23,12.4,12.4,0,0,1,3,.37,8.17,8.17,0,0,1,2.48,1l-1.17,2.16a7.88,7.88,0,0,0-4.35-1.19,5,5,0,0,0-2.65.57,1.73,1.73,0,0,0-.91,1.51A1.43,1.43,0,0,0,599,669a3.25,3.25,0,0,0,1.26.63c.5.13,1.21.28,2.12.45a22,22,0,0,1,2.94.67,4.5,4.5,0,0,1,1.93,1.21,3.36,3.36,0,0,1,.79,2.39,3.75,3.75,0,0,1-1.75,3.25,8.2,8.2,0,0,1-4.76,1.21A12.7,12.7,0,0,1,598,678.3Z"/><polygon class="cls-9" points="389.58 554.33 381 562.9 379.68 564.23 389.58 574.13 390.9 572.8 399.48 564.23 389.58 554.33"/><g class="cls-10"><path class="cls-11" d="M389.58,573.06l1.82-1.83h0l7-7-7-7h0l-1.82-1.83-8.84,8.84Zm-6.48-10,1.22,1.22-1.22,1.22-1.22-1.22Zm12.95,2.44-1.22-1.22,1.22-1.22,1.22,1.22Zm-5.22,5.22h0l-1.25,1.25-2.86-2.85,2.29-2.29-2.36-2.36-1.71,1.71,1.18,1.18.57-.57-.61-.61.57-.57,1.22,1.22-1.72,1.72L383.67,566l1.79-1.79-1.79-1.79,2.48-2.48,1.72,1.72-1.22,1.22-.57-.58.61-.61-.57-.57-1.18,1.18,1.71,1.72,2.36-2.36-2.29-2.29,1.6-1.6h0l1.26-1.26,1.25,1.26h0l1.6,1.6-2.29,2.29L392.5,564l1.72-1.72L393,561.14l-.57.57.61.61-.58.58-1.22-1.22L393,560l2.48,2.48-1.79,1.79,1.79,1.79L393,568.5l-1.72-1.72,1.22-1.22.58.57-.61.61.57.57,1.18-1.18-1.72-1.71-2.36,2.36,2.29,2.29Z"/><rect class="cls-11" x="388.19" y="567.65" width="2.78" height="2.78" transform="translate(1067.42 695.93) rotate(135)"/><rect class="cls-11" x="388.19" y="557.97" width="2.78" height="2.78" transform="translate(1060.58 679.42) rotate(135)"/></g><polygon class="cls-9" points="265.85 404.52 257.28 413.1 255.95 414.42 265.85 424.32 267.18 423 275.75 414.42 265.85 404.52"/><g class="cls-10"><path class="cls-11" d="M265.85,423.26l1.83-1.83h0l7-7-7-7h0l-1.83-1.83L257,414.42Zm-6.47-10.06,1.22,1.22-1.22,1.22-1.22-1.22Zm12.95,2.44-1.22-1.22,1.22-1.22,1.22,1.22Zm-5.22,5.22h0l-1.26,1.26L263,419.26l2.29-2.29-2.36-2.36-1.72,1.72,1.18,1.18.57-.57-.61-.61.58-.58,1.22,1.22-1.72,1.72L260,416.21l1.79-1.79L260,412.63l2.48-2.48,1.72,1.73-1.22,1.21-.58-.57.61-.61-.57-.57-1.18,1.18,1.72,1.71,2.36-2.35-2.29-2.3,1.6-1.59h0l1.25-1.26,1.26,1.26h0l1.6,1.59-2.29,2.3,2.36,2.35,1.71-1.71-1.18-1.18-.57.57.61.61-.57.57-1.22-1.21,1.72-1.73,2.48,2.48L270,414.42l1.79,1.79-2.48,2.48L267.56,417l1.22-1.22.57.58-.61.61.57.57,1.18-1.18-1.71-1.72L266.42,417l2.29,2.29Z"/><rect class="cls-11" x="264.47" y="417.84" width="2.78" height="2.78" transform="translate(750.28 527.69) rotate(135)"/><rect class="cls-11" x="264.47" y="408.17" width="2.78" height="2.78" transform="translate(743.44 511.17) rotate(135)"/></g></svg>