<svg id="Layer_1" data-name="Layer 1" xmlns="http://www.w3.org/2000/svg" viewBox="0 0 843.93 572.15"><defs><style>.cls-1{fill:#fff;}.cls-2{opacity:0.2;}.cls-3{fill:#017db9;}</style></defs><rect class="cls-1" width="843.93" height="572.15"/><g class="cls-2"><rect x="43.92" y="261.17" width="756.08" height="1"/></g><g class="cls-2"><rect x="43.92" y="356.99" width="756.08" height="1"/></g><g class="cls-2"><rect x="43.92" y="388.93" width="756.08" height="1"/></g><g class="cls-2"><rect x="43.92" y="422.35" width="756.08" height="1"/></g><g class="cls-2"><rect x="43.92" y="454.77" width="756.08" height="1"/></g><g class="cls-2"><rect x="43.92" y="488.74" width="756.08" height="1"/></g><g class="cls-2"><rect x="43.92" y="229.23" width="756.08" height="1"/></g><g class="cls-2"><rect x="43.92" y="199.29" width="756.08" height="1"/></g><g class="cls-2"><rect x="43.92" y="325.05" width="756.08" height="1"/></g><g class="cls-2"><rect x="43.92" y="293.11" width="756.08" height="1"/></g><path d="M64.54,48.23a10.22,10.22,0,0,1,4.3,14.55,9.67,9.67,0,0,1-4.3,3.59A16.18,16.18,0,0,1,58,67.61H52.23v7.85H45.64V47H58A15.85,15.85,0,0,1,64.54,48.23ZM62.12,61a5.1,5.1,0,0,0,0-7.32,6.9,6.9,0,0,0-4.52-1.29H52.23v9.89H57.6A6.9,6.9,0,0,0,62.12,61Z"/><path d="M95.86,66.3H79.3a5.18,5.18,0,0,0,2.11,3.22,7,7,0,0,0,4.16,1.18,8.44,8.44,0,0,0,3-.51,7.26,7.26,0,0,0,2.46-1.61l3.38,3.67q-3.09,3.54-9,3.54a14.2,14.2,0,0,1-6.55-1.45,10.63,10.63,0,0,1-4.4-4,11.05,11.05,0,0,1-1.54-5.82,11.29,11.29,0,0,1,1.52-5.8,10.78,10.78,0,0,1,4.2-4,13,13,0,0,1,11.78-.06,10.21,10.21,0,0,1,4.09,4,11.84,11.84,0,0,1,1.48,6Q96,64.73,95.86,66.3ZM81,59.26a5.17,5.17,0,0,0-1.79,3.34H90a5.27,5.27,0,0,0-1.79-3.32A5.39,5.39,0,0,0,84.63,58,5.47,5.47,0,0,0,81,59.26Z"/><path d="M109.35,54.05a11.48,11.48,0,0,1,4.46-.81V59.1c-.7-.05-1.18-.08-1.42-.08a5.82,5.82,0,0,0-4.28,1.53,6.15,6.15,0,0,0-1.54,4.57V75.46h-6.35V53.56h6.06v2.89A7.22,7.22,0,0,1,109.35,54.05Z"/><path d="M121.69,74.34a10.83,10.83,0,0,1-4.36-4,11,11,0,0,1,4.36-15.65A13.49,13.49,0,0,1,128,53.24a12.21,12.21,0,0,1,6,1.44,8.55,8.55,0,0,1,3.76,4.14l-4.92,2.64a5.38,5.38,0,0,0-4.93-3,5.57,5.57,0,0,0-4.11,1.63,6,6,0,0,0-1.62,4.43A6,6,0,0,0,123.82,69a5.57,5.57,0,0,0,4.11,1.63,5.33,5.33,0,0,0,4.93-3l4.92,2.68A8.66,8.66,0,0,1,134,74.32a12,12,0,0,1-6,1.47A13.38,13.38,0,0,1,121.69,74.34Z"/><path d="M162.49,66.3H145.92A5.19,5.19,0,0,0,148,69.52a7,7,0,0,0,4.15,1.18,8.37,8.37,0,0,0,3-.51,7.21,7.21,0,0,0,2.47-1.61l3.37,3.67q-3.09,3.54-9,3.54a14.17,14.17,0,0,1-6.55-1.45,10.57,10.57,0,0,1-4.4-4,11.06,11.06,0,0,1-1.55-5.82,11.2,11.2,0,0,1,1.53-5.8,10.75,10.75,0,0,1,4.19-4A13,13,0,0,1,157,54.62a10.18,10.18,0,0,1,4.08,4,11.74,11.74,0,0,1,1.49,6Q162.61,64.73,162.49,66.3Zm-14.86-7a5.26,5.26,0,0,0-1.79,3.34h10.79a5.32,5.32,0,0,0-1.79-3.32A5.39,5.39,0,0,0,151.26,58,5.51,5.51,0,0,0,147.63,59.26Z"/><path d="M186.73,55.68c1.66,1.63,2.5,4,2.5,7.25V75.46h-6.35V63.9A5.69,5.69,0,0,0,181.74,60a4.17,4.17,0,0,0-3.3-1.29,5,5,0,0,0-3.82,1.49,6.15,6.15,0,0,0-1.43,4.42V75.46h-6.35V53.56h6.07v2.57A8.39,8.39,0,0,1,176,54a11,11,0,0,1,4.11-.75A9,9,0,0,1,186.73,55.68Z"/><path d="M209.09,74.4a6.33,6.33,0,0,1-2.3,1,11.69,11.69,0,0,1-2.87.35,8.51,8.51,0,0,1-6-2,7.61,7.61,0,0,1-2.14-5.86v-9h-3.38V54.05h3.38V48.72h6.35v5.33h5.45v4.89h-5.45v8.91A3,3,0,0,0,202.8,70a2.66,2.66,0,0,0,2,.75,4.1,4.1,0,0,0,2.56-.81Z"/><path d="M229.32,55.66c1.82,1.62,2.73,4.05,2.73,7.31V75.46h-6V72.73c-1.19,2-3.42,3.06-6.67,3.06a10.4,10.4,0,0,1-4.38-.86,6.56,6.56,0,0,1-2.83-2.36,6.13,6.13,0,0,1-1-3.42,5.69,5.69,0,0,1,2.3-4.8q2.3-1.75,7.1-1.75h5a4,4,0,0,0-1.27-3.19,5.52,5.52,0,0,0-3.78-1.12,11,11,0,0,0-3.44.55,9,9,0,0,0-2.87,1.48l-2.28-4.44a13.73,13.73,0,0,1,4.3-2,19.19,19.19,0,0,1,5.14-.69C224.9,53.24,227.5,54.05,229.32,55.66Zm-5.42,15.1a4.11,4.11,0,0,0,1.8-2.22V66.3h-4.36c-2.6,0-3.91.86-3.91,2.57a2.27,2.27,0,0,0,1,1.93,4.28,4.28,0,0,0,2.63.71A5.52,5.52,0,0,0,223.9,70.76Z"/><path d="M260.62,53.56V71.8q0,6-3.14,9t-9.16,2.93a23.15,23.15,0,0,1-6-.77,13.2,13.2,0,0,1-4.72-2.24l2.52-4.56a10.23,10.23,0,0,0,3.5,1.81,13.87,13.87,0,0,0,4.24.68,6.88,6.88,0,0,0,4.86-1.49,5.94,5.94,0,0,0,1.57-4.5v-.93a8.93,8.93,0,0,1-6.92,2.72,11.66,11.66,0,0,1-5.52-1.32,10.08,10.08,0,0,1-4-3.72,11.22,11.22,0,0,1,0-11.07,10.11,10.11,0,0,1,4-3.73,11.66,11.66,0,0,1,5.52-1.32c3.17,0,5.59,1,7.24,3.13V53.56Zm-7.88,14.15a5.5,5.5,0,0,0,0-7.78,5.84,5.84,0,0,0-4.13-1.48,5.91,5.91,0,0,0-4.15,1.48,5.46,5.46,0,0,0,0,7.78,5.91,5.91,0,0,0,4.15,1.48A5.84,5.84,0,0,0,252.74,67.71Z"/><path d="M287.84,66.3H271.28a5.15,5.15,0,0,0,2.12,3.22,7,7,0,0,0,4.15,1.18,8.37,8.37,0,0,0,3-.51A7.26,7.26,0,0,0,283,68.58l3.38,3.67q-3.09,3.54-9,3.54a14.23,14.23,0,0,1-6.55-1.45,10.54,10.54,0,0,1-4.39-4,11,11,0,0,1-1.55-5.82,11.2,11.2,0,0,1,1.53-5.8,10.69,10.69,0,0,1,4.19-4,13,13,0,0,1,11.78-.06,10.15,10.15,0,0,1,4.09,4,11.84,11.84,0,0,1,1.49,6C288,64.68,287.93,65.25,287.84,66.3Zm-14.85-7a5.22,5.22,0,0,0-1.79,3.34H282a5.22,5.22,0,0,0-1.79-3.32A5.38,5.38,0,0,0,276.61,58,5.48,5.48,0,0,0,273,59.26Z"/><path d="M307.93,74.34a10.71,10.71,0,0,1-4.29-4,11.7,11.7,0,0,1,0-11.64,10.78,10.78,0,0,1,4.29-4,14,14,0,0,1,12.39,0,10.88,10.88,0,0,1,4.28,4,11.77,11.77,0,0,1,0,11.64,10.81,10.81,0,0,1-4.28,4,14,14,0,0,1-12.39,0Zm10.22-5.41a7,7,0,0,0,0-8.83,5.72,5.72,0,0,0-8,0,6.92,6.92,0,0,0,0,8.83,5.72,5.72,0,0,0,8,0Z"/><path d="M337.33,54.05H343v4.89H337.5V75.46h-6.35V58.94h-3.38V54.05h3.38v-1a8,8,0,0,1,2.22-5.95,8.5,8.5,0,0,1,6.24-2.19,11.85,11.85,0,0,1,2.71.3,6.69,6.69,0,0,1,2.14.88l-1.67,4.6a4.32,4.32,0,0,0-2.57-.78c-1.92,0-2.89,1.06-2.89,3.18Z"/><path d="M360.92,75a15.34,15.34,0,0,1-5.07-2.38l2.24-5a15.44,15.44,0,0,0,4.36,2.16,16.39,16.39,0,0,0,5,.81,8,8,0,0,0,4.15-.84A2.5,2.5,0,0,0,373,67.61a2.13,2.13,0,0,0-.8-1.69,5.91,5.91,0,0,0-2-1.08q-1.25-.41-3.36-.9a46.34,46.34,0,0,1-5.33-1.54,8.74,8.74,0,0,1-3.56-2.49,6.69,6.69,0,0,1-1.49-4.55,7.89,7.89,0,0,1,1.35-4.5,9,9,0,0,1,4.05-3.2,16.59,16.59,0,0,1,6.61-1.18,22.1,22.1,0,0,1,5.33.65A15.7,15.7,0,0,1,378.32,49l-2,5a15.89,15.89,0,0,0-7.89-2.24,7.36,7.36,0,0,0-4.09.9A2.73,2.73,0,0,0,363,55a2.3,2.3,0,0,0,1.52,2.18,24.31,24.31,0,0,0,4.66,1.4,46.11,46.11,0,0,1,5.33,1.55,8.85,8.85,0,0,1,3.57,2.44,6.55,6.55,0,0,1,1.48,4.52,7.74,7.74,0,0,1-1.36,4.45,9.19,9.19,0,0,1-4.09,3.2A16.64,16.64,0,0,1,367.45,76,23.31,23.31,0,0,1,360.92,75Z"/><path d="M397.73,74.4a6.33,6.33,0,0,1-2.3,1,11.63,11.63,0,0,1-2.87.35,8.51,8.51,0,0,1-6-2,7.64,7.64,0,0,1-2.14-5.86v-9H381V54.05h3.38V48.72h6.35v5.33h5.46v4.89h-5.46v8.91a3,3,0,0,0,.71,2.14,2.66,2.66,0,0,0,2,.75,4.08,4.08,0,0,0,2.56-.81Z"/><path d="M418,55.66c1.82,1.62,2.73,4.05,2.73,7.31V75.46h-5.94V72.73c-1.2,2-3.42,3.06-6.68,3.06a10.32,10.32,0,0,1-4.37-.86,6.45,6.45,0,0,1-2.83-2.36,6.14,6.14,0,0,1-1-3.42,5.72,5.72,0,0,1,2.3-4.8q2.3-1.75,7.1-1.75h5a4,4,0,0,0-1.26-3.19,5.55,5.55,0,0,0-3.79-1.12,11,11,0,0,0-3.44.55A9.15,9.15,0,0,0,403,60.32l-2.28-4.44a13.83,13.83,0,0,1,4.3-2,19.27,19.27,0,0,1,5.15-.69Q415.24,53.24,418,55.66Zm-5.41,15.1a4.1,4.1,0,0,0,1.79-2.22V66.3H410q-3.9,0-3.9,2.57A2.27,2.27,0,0,0,407,70.8a4.3,4.3,0,0,0,2.63.71A5.56,5.56,0,0,0,412.55,70.76Z"/><path d="M440.55,74.4a6.41,6.41,0,0,1-2.3,1,11.69,11.69,0,0,1-2.87.35,8.5,8.5,0,0,1-6-2,7.61,7.61,0,0,1-2.14-5.86v-9h-3.38V54.05h3.38V48.72h6.35v5.33H439v4.89h-5.45v8.91a3,3,0,0,0,.71,2.14,2.65,2.65,0,0,0,2,.75,4.11,4.11,0,0,0,2.57-.81Z"/><path d="M464.76,66.3H448.2a5.15,5.15,0,0,0,2.12,3.22,7,7,0,0,0,4.15,1.18,8.37,8.37,0,0,0,3-.51A7.26,7.26,0,0,0,460,68.58l3.38,3.67q-3.09,3.54-9,3.54a14.23,14.23,0,0,1-6.55-1.45,10.54,10.54,0,0,1-4.39-4,11.06,11.06,0,0,1-1.55-5.82,11.2,11.2,0,0,1,1.53-5.8,10.69,10.69,0,0,1,4.19-4,13,13,0,0,1,11.78-.06,10.15,10.15,0,0,1,4.09,4,11.84,11.84,0,0,1,1.49,6C464.89,64.68,464.85,65.25,464.76,66.3Zm-14.85-7a5.22,5.22,0,0,0-1.79,3.34H458.9a5.22,5.22,0,0,0-1.79-3.32A5.38,5.38,0,0,0,453.53,58,5.48,5.48,0,0,0,449.91,59.26Z"/><path d="M505.83,63.23a7.15,7.15,0,0,1,1.39,4.46,6.62,6.62,0,0,1-2.91,5.76q-2.91,2-8.49,2H481.09V47H495c3.48,0,6.14.67,8,2a6.31,6.31,0,0,1,2.79,5.41,6.89,6.89,0,0,1-1,3.7A7,7,0,0,1,502,60.65,7.46,7.46,0,0,1,505.83,63.23ZM487.64,51.94v6.71h6.55a6.65,6.65,0,0,0,3.71-.85,2.86,2.86,0,0,0,1.26-2.53,2.8,2.8,0,0,0-1.26-2.5,6.84,6.84,0,0,0-3.71-.83Zm11.62,17.7A2.92,2.92,0,0,0,500.58,67q0-3.54-5.25-3.54h-7.69v7h7.69A7.3,7.3,0,0,0,499.26,69.64Z"/><path d="M533.83,53.56v21.9h-6v-2.6a8.42,8.42,0,0,1-3,2.17,10.35,10.35,0,0,1-10.63-1.73c-1.68-1.65-2.52-4.11-2.52-7.36V53.56H518V65q0,5.3,4.44,5.29a4.76,4.76,0,0,0,3.66-1.48,6.29,6.29,0,0,0,1.38-4.42V53.56Z"/><path d="M562,45.26v30.2H556V72.94a8.36,8.36,0,0,1-6.83,2.85,11.29,11.29,0,0,1-5.6-1.39,9.93,9.93,0,0,1-3.93-3.94,13.15,13.15,0,0,1,0-11.89,10,10,0,0,1,3.93-4,11.39,11.39,0,0,1,5.6-1.38,8.35,8.35,0,0,1,6.55,2.64V45.26Zm-7.82,23.67a6.92,6.92,0,0,0,0-8.83,5.69,5.69,0,0,0-8,0,6.92,6.92,0,0,0,0,8.83,5.69,5.69,0,0,0,8,0Z"/><path d="M590.49,53.56V71.8q0,6-3.14,9t-9.15,2.93a23.17,23.17,0,0,1-6-.77,13.2,13.2,0,0,1-4.72-2.24L570,76.11a10.32,10.32,0,0,0,3.5,1.81,13.92,13.92,0,0,0,4.24.68,6.85,6.85,0,0,0,4.86-1.49,5.94,5.94,0,0,0,1.57-4.5v-.93a8.91,8.91,0,0,1-6.92,2.72,11.66,11.66,0,0,1-5.52-1.32,10,10,0,0,1-4-3.72,11.16,11.16,0,0,1,0-11.07,10,10,0,0,1,4-3.73,11.66,11.66,0,0,1,5.52-1.32c3.17,0,5.59,1,7.24,3.13V53.56Zm-7.88,14.15a5.5,5.5,0,0,0,0-7.78,5.84,5.84,0,0,0-4.13-1.48,5.91,5.91,0,0,0-4.15,1.48,5.46,5.46,0,0,0,0,7.78,5.91,5.91,0,0,0,4.15,1.48A5.84,5.84,0,0,0,582.61,67.71Z"/><path d="M617.72,66.3H601.15a5.15,5.15,0,0,0,2.12,3.22,7,7,0,0,0,4.15,1.18,8.37,8.37,0,0,0,3-.51,7.26,7.26,0,0,0,2.46-1.61l3.38,3.67q-3.09,3.54-9,3.54a14.23,14.23,0,0,1-6.55-1.45,10.54,10.54,0,0,1-4.39-4,11.06,11.06,0,0,1-1.55-5.82,11.2,11.2,0,0,1,1.53-5.8,10.69,10.69,0,0,1,4.19-4,13,13,0,0,1,11.78-.06,10.15,10.15,0,0,1,4.09,4,11.84,11.84,0,0,1,1.49,6Q617.84,64.73,617.72,66.3Zm-14.86-7a5.22,5.22,0,0,0-1.79,3.34h10.78a5.22,5.22,0,0,0-1.79-3.32A5.38,5.38,0,0,0,606.48,58,5.48,5.48,0,0,0,602.86,59.26Z"/><path d="M636.19,74.4a6.33,6.33,0,0,1-2.3,1,11.63,11.63,0,0,1-2.87.35,8.51,8.51,0,0,1-6-2,7.64,7.64,0,0,1-2.14-5.86v-9h-3.37V54.05h3.37V48.72h6.35v5.33h5.46v4.89h-5.46v8.91A3,3,0,0,0,629.9,70a2.66,2.66,0,0,0,2,.75,4.08,4.08,0,0,0,2.56-.81Z"/><path d="M652.66,74.77a41.88,41.88,0,0,1,0-20.94,28.77,28.77,0,0,1,3.76-8.57h6.06a37.35,37.35,0,0,0-3.74,9.18,41.87,41.87,0,0,0,0,19.74,37.35,37.35,0,0,0,3.74,9.18h-6.06A29.35,29.35,0,0,1,652.66,74.77Z"/><path d="M685,69.36H671.8l-2.52,6.1h-6.75L675.22,47h6.52l12.73,28.49h-6.91Zm-2.07-5-4.52-10.91-4.52,10.91Z"/><path d="M716.35,48.23a10.21,10.21,0,0,1,4.29,14.55,9.58,9.58,0,0,1-4.29,3.59,16.18,16.18,0,0,1-6.57,1.24H704v7.85h-6.59V47h12.33A15.85,15.85,0,0,1,716.35,48.23ZM713.93,61a5.1,5.1,0,0,0,0-7.32,6.9,6.9,0,0,0-4.52-1.29H704v9.89h5.37A6.9,6.9,0,0,0,713.93,61Z"/><path d="M751.58,63.23A7.14,7.14,0,0,1,753,67.69a6.6,6.6,0,0,1-2.91,5.76q-2.91,2-8.49,2H726.83V47h13.92q5.21,0,8,2a6.31,6.31,0,0,1,2.79,5.41,7,7,0,0,1-1,3.7,7.07,7.07,0,0,1-2.79,2.57A7.49,7.49,0,0,1,751.58,63.23Zm-18.2-11.29v6.71h6.56a6.62,6.62,0,0,0,3.7-.85,2.86,2.86,0,0,0,1.26-2.53,2.8,2.8,0,0,0-1.26-2.5,6.8,6.8,0,0,0-3.7-.83ZM745,69.64A2.93,2.93,0,0,0,746.33,67q0-3.54-5.25-3.54h-7.7v7h7.7A7.28,7.28,0,0,0,745,69.64Z"/><path d="M784.1,47V75.46h-5.42l-14.2-17.3v17.3H758V47h5.45l14.16,17.3V47Z"/><path d="M787.88,83.36a37.47,37.47,0,0,0,3.77-9.18,41.19,41.19,0,0,0,0-19.74,37.47,37.47,0,0,0-3.77-9.18H794a27.86,27.86,0,0,1,3.8,8.53,42.74,42.74,0,0,1,0,21A28,28,0,0,1,794,83.36Z"/><path d="M203.47,118.2H190.24l-2.52,6.1H181l12.69-28.49h6.52l12.74,28.49H206Zm-2.07-5-4.52-10.91-4.52,10.91Z"/><path d="M215.44,94.1h6.35v30.2h-6.35Z"/><path d="M227.69,94.1H234v30.2h-6.35Z"/><path d="M244.15,123.18a10.71,10.71,0,0,1-4.29-4,11.7,11.7,0,0,1,0-11.64,10.78,10.78,0,0,1,4.29-4,14.07,14.07,0,0,1,12.4,0,10.86,10.86,0,0,1,4.27,4,11.77,11.77,0,0,1,0,11.64,10.79,10.79,0,0,1-4.27,4,14,14,0,0,1-12.4,0Zm10.22-5.41a7,7,0,0,0,0-8.83,5.29,5.29,0,0,0-4-1.65,5.35,5.35,0,0,0-4,1.65,6.92,6.92,0,0,0,0,8.83,5.35,5.35,0,0,0,4,1.65A5.29,5.29,0,0,0,254.37,117.77Z"/><path d="M270.89,123.18a10.74,10.74,0,0,1-4.35-4,11,11,0,0,1,4.35-15.65,13.52,13.52,0,0,1,6.29-1.44,12.18,12.18,0,0,1,6,1.44,8.61,8.61,0,0,1,3.77,4.14l-4.93,2.64a5.37,5.37,0,0,0-4.92-3,5.54,5.54,0,0,0-4.11,1.63,6.85,6.85,0,0,0,0,8.87,5.54,5.54,0,0,0,4.11,1.63,5.33,5.33,0,0,0,4.92-3l4.93,2.68a8.69,8.69,0,0,1-3.77,4.07,12,12,0,0,1-6,1.47A13.4,13.4,0,0,1,270.89,123.18Z"/><path d="M307.3,104.5c1.82,1.62,2.72,4,2.72,7.31V124.3h-5.94v-2.72c-1.19,2-3.42,3-6.67,3a10.4,10.4,0,0,1-4.38-.86,6.51,6.51,0,0,1-2.83-2.36,6.13,6.13,0,0,1-1-3.42,5.69,5.69,0,0,1,2.3-4.8q2.3-1.75,7.1-1.75h5a4,4,0,0,0-1.26-3.19,5.52,5.52,0,0,0-3.78-1.12,10.91,10.91,0,0,0-3.44.55,9,9,0,0,0-2.87,1.48L290,104.73a13.56,13.56,0,0,1,4.29-2,19.32,19.32,0,0,1,5.15-.69Q304.57,102.08,307.3,104.5Zm-5.42,15.1a4.05,4.05,0,0,0,1.79-2.22v-2.24h-4.35c-2.6,0-3.91.86-3.91,2.57a2.27,2.27,0,0,0,1,1.93,4.27,4.27,0,0,0,2.62.71A5.53,5.53,0,0,0,301.88,119.6Z"/><path d="M329.89,123.24a6.49,6.49,0,0,1-2.3,1,11.69,11.69,0,0,1-2.87.35,8.54,8.54,0,0,1-6.05-2,7.64,7.64,0,0,1-2.13-5.86v-9h-3.38v-4.89h3.38V97.56h6.35v5.33h5.45v4.89h-5.45v8.91a3,3,0,0,0,.71,2.14,2.62,2.62,0,0,0,2,.75,4.11,4.11,0,0,0,2.57-.81Z"/><path d="M354.1,115.14H337.54a5.18,5.18,0,0,0,2.11,3.22,7,7,0,0,0,4.16,1.18,8.37,8.37,0,0,0,3-.51,7.26,7.26,0,0,0,2.46-1.61l3.38,3.67q-3.09,3.54-9,3.54a14.2,14.2,0,0,1-6.55-1.45,10.63,10.63,0,0,1-4.4-4,11.05,11.05,0,0,1-1.54-5.82,11.29,11.29,0,0,1,1.52-5.8,10.78,10.78,0,0,1,4.2-4,13,13,0,0,1,11.78-.06,10.21,10.21,0,0,1,4.09,4,11.88,11.88,0,0,1,1.49,6C354.23,113.52,354.18,114.09,354.1,115.14Zm-14.85-7a5.17,5.17,0,0,0-1.79,3.34h10.78a5.27,5.27,0,0,0-1.79-3.32,5.39,5.39,0,0,0-3.58-1.24A5.47,5.47,0,0,0,339.25,108.1Z"/><path d="M380.76,94.1v30.2H374.7v-2.52a8.39,8.39,0,0,1-6.84,2.85,11.32,11.32,0,0,1-5.6-1.39,9.78,9.78,0,0,1-3.92-3.94,13.07,13.07,0,0,1,0-11.89,9.87,9.87,0,0,1,3.92-4,11.42,11.42,0,0,1,5.6-1.38,8.31,8.31,0,0,1,6.55,2.65V94.1ZM373,117.77a7,7,0,0,0,0-8.83,5.7,5.7,0,0,0-8,0,6.92,6.92,0,0,0,0,8.83,5.7,5.7,0,0,0,8,0Z"/><path d="M405.1,102.89h5.62v4.89h-5.46V124.3h-6.35V107.78h-3.38v-4.89h3.38v-1a8,8,0,0,1,2.22-6,8.51,8.51,0,0,1,6.25-2.19,11.76,11.76,0,0,1,2.7.3,6.69,6.69,0,0,1,2.14.88l-1.67,4.6a4.29,4.29,0,0,0-2.56-.78q-2.89,0-2.89,3.18Z"/><path d="M417.82,123.18a10.74,10.74,0,0,1-4.3-4,11.77,11.77,0,0,1,0-11.64,10.81,10.81,0,0,1,4.3-4,14,14,0,0,1,12.39,0,10.79,10.79,0,0,1,4.27,4,11.7,11.7,0,0,1,0,11.64,10.72,10.72,0,0,1-4.27,4,14,14,0,0,1-12.39,0ZM428,117.77a7,7,0,0,0,0-8.83,5.71,5.71,0,0,0-8,0,6.92,6.92,0,0,0,0,8.83,5.71,5.71,0,0,0,8,0Z"/><path d="M449.4,102.89a11.45,11.45,0,0,1,4.46-.81v5.86c-.71,0-1.18-.08-1.43-.08a5.8,5.8,0,0,0-4.27,1.53,6.15,6.15,0,0,0-1.55,4.57V124.3h-6.35V102.41h6.07v2.89A7.1,7.1,0,0,1,449.4,102.89Z"/><path d="M487.92,124.3l-5.49-7.93h-6.07v7.93h-6.59V95.81H482.1a15.86,15.86,0,0,1,6.58,1.26,9.46,9.46,0,0,1,5.8,9.08,9.28,9.28,0,0,1-5.87,9L495,124.3Zm-1.67-21.83a6.87,6.87,0,0,0-4.51-1.29h-5.38v9.94h5.38a6.82,6.82,0,0,0,4.51-1.31,5.12,5.12,0,0,0,0-7.34Z"/><path d="M520.56,115.14H504a5.15,5.15,0,0,0,2.12,3.22,7,7,0,0,0,4.15,1.18,8.37,8.37,0,0,0,3-.51,7.26,7.26,0,0,0,2.46-1.61l3.38,3.67q-3.09,3.54-9,3.54a14.2,14.2,0,0,1-6.55-1.45,10.54,10.54,0,0,1-4.39-4,11,11,0,0,1-1.55-5.82,11.2,11.2,0,0,1,1.53-5.8,10.69,10.69,0,0,1,4.19-4,13,13,0,0,1,11.78-.06,10.15,10.15,0,0,1,4.09,4,11.88,11.88,0,0,1,1.49,6C520.69,113.52,520.64,114.09,520.56,115.14Zm-14.85-7a5.17,5.17,0,0,0-1.79,3.34H514.7a5.22,5.22,0,0,0-1.79-3.32,5.38,5.38,0,0,0-3.58-1.24A5.48,5.48,0,0,0,505.71,108.1Z"/><path d="M527,124a14,14,0,0,1-4.15-1.69l2.12-4.56a13.43,13.43,0,0,0,3.54,1.52,14.57,14.57,0,0,0,4.07.59q4,0,4-2a1.41,1.41,0,0,0-1.1-1.34,16.37,16.37,0,0,0-3.38-.69,34,34,0,0,1-4.43-.94,6.94,6.94,0,0,1-3-1.87,5.35,5.35,0,0,1-1.28-3.83,6,6,0,0,1,1.2-3.68A7.7,7.7,0,0,1,528,103a14.9,14.9,0,0,1,5.44-.9,21.37,21.37,0,0,1,4.62.51,13.09,13.09,0,0,1,3.8,1.4l-2.12,4.52a12.67,12.67,0,0,0-6.3-1.63,6.45,6.45,0,0,0-3.06.57,1.68,1.68,0,0,0-1,1.47,1.44,1.44,0,0,0,1.09,1.42,20.16,20.16,0,0,0,3.5.78,35.53,35.53,0,0,1,4.4.95,6.64,6.64,0,0,1,3,1.85,5.28,5.28,0,0,1,1.26,3.75,5.74,5.74,0,0,1-1.22,3.62,7.73,7.73,0,0,1-3.56,2.46,15.69,15.69,0,0,1-5.55.88A21.71,21.71,0,0,1,527,124Z"/><path d="M567.86,115.14H551.29a5.19,5.19,0,0,0,2.12,3.22,7,7,0,0,0,4.15,1.18,8.37,8.37,0,0,0,3-.51,7.26,7.26,0,0,0,2.46-1.61l3.38,3.67q-3.09,3.54-9,3.54a14.24,14.24,0,0,1-6.56-1.45,10.54,10.54,0,0,1-4.39-4,11.06,11.06,0,0,1-1.55-5.82,11.2,11.2,0,0,1,1.53-5.8,10.75,10.75,0,0,1,4.19-4,12.36,12.36,0,0,1,6-1.44,12.2,12.2,0,0,1,5.82,1.38,10.15,10.15,0,0,1,4.09,4,11.88,11.88,0,0,1,1.49,6C568,113.52,567.94,114.09,567.86,115.14Zm-14.86-7a5.22,5.22,0,0,0-1.79,3.34H562a5.28,5.28,0,0,0-1.8-3.32,5.38,5.38,0,0,0-3.58-1.24A5.5,5.5,0,0,0,553,108.1Z"/><path d="M588.25,104.5c1.82,1.62,2.73,4,2.73,7.31V124.3h-6v-2.72c-1.19,2-3.42,3-6.67,3a10.4,10.4,0,0,1-4.38-.86,6.56,6.56,0,0,1-2.83-2.36,6.13,6.13,0,0,1-1-3.42,5.69,5.69,0,0,1,2.3-4.8q2.29-1.75,7.1-1.75h5a4,4,0,0,0-1.27-3.19,5.52,5.52,0,0,0-3.78-1.12,10.91,10.91,0,0,0-3.44.55,9,9,0,0,0-2.87,1.48L571,104.73a13.52,13.52,0,0,1,4.3-2,19.19,19.19,0,0,1,5.14-.69C583.83,102.08,586.43,102.89,588.25,104.5Zm-5.42,15.1a4.11,4.11,0,0,0,1.8-2.22v-2.24h-4.36c-2.6,0-3.91.86-3.91,2.57a2.27,2.27,0,0,0,1,1.93,4.27,4.27,0,0,0,2.62.71A5.53,5.53,0,0,0,582.83,119.6Z"/><path d="M605.85,102.89a11.45,11.45,0,0,1,4.46-.81v5.86c-.71,0-1.18-.08-1.43-.08a5.8,5.8,0,0,0-4.27,1.53,6.15,6.15,0,0,0-1.55,4.57V124.3h-6.35V102.41h6.07v2.89A7.1,7.1,0,0,1,605.85,102.89Z"/><path d="M618.18,123.18a10.74,10.74,0,0,1-4.35-4,11,11,0,0,1,4.35-15.65,13.52,13.52,0,0,1,6.29-1.44,12.18,12.18,0,0,1,6,1.44,8.61,8.61,0,0,1,3.77,4.14l-4.93,2.64a5.37,5.37,0,0,0-4.92-3,5.54,5.54,0,0,0-4.11,1.63,6.85,6.85,0,0,0,0,8.87,5.54,5.54,0,0,0,4.11,1.63,5.33,5.33,0,0,0,4.92-3l4.93,2.68a8.69,8.69,0,0,1-3.77,4.07,12,12,0,0,1-6,1.47A13.4,13.4,0,0,1,618.18,123.18Z"/><path d="M657.66,104.52c1.67,1.63,2.5,4,2.5,7.25V124.3h-6.34V112.74a5.69,5.69,0,0,0-1.14-3.88,4.17,4.17,0,0,0-3.3-1.29,5.07,5.07,0,0,0-3.83,1.49,6.15,6.15,0,0,0-1.42,4.42V124.3h-6.35V94.1h6.35v10.58a8.5,8.5,0,0,1,3-1.93,11,11,0,0,1,3.91-.67A9,9,0,0,1,657.66,104.52Z"/><rect class="cls-3" x="384.33" y="270.89" width="86.14" height="218.85"/><rect class="cls-3" x="628.42" y="221.51" width="86.14" height="268.24"/><rect class="cls-3" x="140.24" y="293.11" width="86.14" height="196.63"/><path d="M160.35,276.75a7.54,7.54,0,0,1-2.79-3.26,13.45,13.45,0,0,1,0-10.18,7.54,7.54,0,0,1,2.79-3.26,7.9,7.9,0,0,1,8.11,0,7.6,7.6,0,0,1,2.79,3.26,13.45,13.45,0,0,1,0,10.18,7.6,7.6,0,0,1-2.79,3.26,7.9,7.9,0,0,1-8.11,0Zm6.68-3.9a10.79,10.79,0,0,0,0-8.9,3.09,3.09,0,0,0-5.23,0,10.9,10.9,0,0,0,0,8.9,3.09,3.09,0,0,0,5.23,0Z"/><path d="M174.58,277a2.49,2.49,0,0,1-.73-1.84,2.4,2.4,0,0,1,.73-1.82,2.71,2.71,0,0,1,3.61,0,2.4,2.4,0,0,1,.74,1.82,2.49,2.49,0,0,1-.74,1.84,2.6,2.6,0,0,1-3.61,0Z"/><path d="M194.78,274.1v3.46H180.94v-2.75l7.06-6.67a7.48,7.48,0,0,0,1.52-1.85,3.34,3.34,0,0,0,.39-1.53,2,2,0,0,0-.74-1.68,3.44,3.44,0,0,0-2.19-.59,5,5,0,0,0-2.17.46,4.17,4.17,0,0,0-1.62,1.37l-3.09-2a7.28,7.28,0,0,1,3-2.5,9.9,9.9,0,0,1,4.32-.9,8.78,8.78,0,0,1,3.57.67,5.49,5.49,0,0,1,2.38,1.88,4.86,4.86,0,0,1,.85,2.87,6.33,6.33,0,0,1-.63,2.79,10.8,10.8,0,0,1-2.43,3l-4.21,4Z"/><path d="M208.53,267.67a5.12,5.12,0,0,1,1.85,4.13,5.74,5.74,0,0,1-.84,3.05,5.85,5.85,0,0,1-2.55,2.2,9.73,9.73,0,0,1-4.23.82,14.45,14.45,0,0,1-3.81-.51,9.76,9.76,0,0,1-3.17-1.45l1.67-3.24a8.14,8.14,0,0,0,2.41,1.21,9.1,9.1,0,0,0,2.8.43,4.46,4.46,0,0,0,2.51-.62,2,2,0,0,0,.91-1.76,2,2,0,0,0-1-1.78,6.62,6.62,0,0,0-3.31-.6h-4.68l.94-10.31h11.17v3.4h-7.64l-.29,3.48h1.49Q206.68,266.12,208.53,267.67Z"/><path d="M403.59,254.53a7.54,7.54,0,0,1-2.79-3.26,13.33,13.33,0,0,1,0-10.18,7.54,7.54,0,0,1,2.79-3.26,7.9,7.9,0,0,1,8.11,0,7.6,7.6,0,0,1,2.79,3.26,13.45,13.45,0,0,1,0,10.18,7.6,7.6,0,0,1-2.79,3.26,7.9,7.9,0,0,1-8.11,0Zm6.68-3.9a10.79,10.79,0,0,0,0-8.9,3.09,3.09,0,0,0-5.23,0,10.9,10.9,0,0,0,0,8.9,3.09,3.09,0,0,0,5.23,0Z"/><path d="M417.82,254.81a2.46,2.46,0,0,1-.73-1.83,2.4,2.4,0,0,1,.73-1.82,2.71,2.71,0,0,1,3.61,0,2.4,2.4,0,0,1,.74,1.82,2.55,2.55,0,0,1-4.35,1.83Z"/><path d="M438,251.88v3.46H424.18v-2.75l7.06-6.67a7.48,7.48,0,0,0,1.52-1.85,3.34,3.34,0,0,0,.39-1.53,2,2,0,0,0-.74-1.68,3.44,3.44,0,0,0-2.19-.59,5.11,5.11,0,0,0-2.17.45,4.28,4.28,0,0,0-1.62,1.38l-3.09-2a7.28,7.28,0,0,1,3-2.5,9.87,9.87,0,0,1,4.32-.9,8.78,8.78,0,0,1,3.57.67,5.49,5.49,0,0,1,2.38,1.88,4.85,4.85,0,0,1,.85,2.86,6.35,6.35,0,0,1-.63,2.8,10.8,10.8,0,0,1-2.43,3l-4.21,4Z"/><path d="M454.39,247.49a4.52,4.52,0,0,1,.72,2.54,4.81,4.81,0,0,1-1,3,6.22,6.22,0,0,1-2.72,2,12.23,12.23,0,0,1-8.1,0,6.16,6.16,0,0,1-2.7-2,4.86,4.86,0,0,1-.95-3,4.52,4.52,0,0,1,.72-2.54,5.2,5.2,0,0,1,2.05-1.78,4.56,4.56,0,0,1-1.57-1.58,4.39,4.39,0,0,1-.55-2.19,4.48,4.48,0,0,1,.89-2.77,5.62,5.62,0,0,1,2.49-1.82,9.68,9.68,0,0,1,3.66-.64,9.86,9.86,0,0,1,3.7.64,5.6,5.6,0,0,1,2.5,1.82,4.48,4.48,0,0,1,.89,2.77,4.29,4.29,0,0,1-.55,2.19,4.46,4.46,0,0,1-1.59,1.58A5.23,5.23,0,0,1,454.39,247.49Zm-4.5,4.33a2.33,2.33,0,0,0,.92-1.93,2.31,2.31,0,0,0-.92-1.91,4.09,4.09,0,0,0-2.53-.7,4,4,0,0,0-2.48.7,2.47,2.47,0,0,0,0,3.85,4,4,0,0,0,2.48.71A4,4,0,0,0,449.89,251.82Zm-4.58-11.38a2.2,2.2,0,0,0,0,3.33,3.27,3.27,0,0,0,2.07.6,3.35,3.35,0,0,0,2.09-.6,2,2,0,0,0,.79-1.65,2,2,0,0,0-.79-1.68,3.29,3.29,0,0,0-2.09-.62A3.19,3.19,0,0,0,445.31,240.44Z"/><path d="M647.65,205.14a7.56,7.56,0,0,1-2.78-3.25,13.33,13.33,0,0,1,0-10.18,7.58,7.58,0,0,1,2.78-3.26,7.86,7.86,0,0,1,8.12,0,7.58,7.58,0,0,1,2.78,3.26,13.33,13.33,0,0,1,0,10.18,7.56,7.56,0,0,1-2.78,3.25,7.86,7.86,0,0,1-8.12,0Zm6.69-3.9a10.77,10.77,0,0,0,0-8.89,3,3,0,0,0-2.63-1.44,3,3,0,0,0-2.6,1.44,10.77,10.77,0,0,0,0,8.89,3,3,0,0,0,2.6,1.44A3,3,0,0,0,654.34,201.24Z"/><path d="M661.89,205.43a2.48,2.48,0,0,1-.73-1.83,2.38,2.38,0,0,1,.73-1.82,2.71,2.71,0,0,1,3.61,0,2.38,2.38,0,0,1,.73,1.82,2.48,2.48,0,0,1-.73,1.83,2.6,2.6,0,0,1-3.61,0Z"/><path d="M680.65,196.89a5,5,0,0,1,1.28,3.46,5.47,5.47,0,0,1-.84,3,5.84,5.84,0,0,1-2.55,2.16,9.77,9.77,0,0,1-4.2.81,14.45,14.45,0,0,1-3.81-.51,10,10,0,0,1-3.17-1.45l1.64-3.25a8.15,8.15,0,0,0,2.43,1.22,9.21,9.21,0,0,0,2.81.43,4.46,4.46,0,0,0,2.51-.62,2,2,0,0,0,.92-1.74c0-1.5-1.15-2.25-3.43-2.25H672.3v-2.8l3.77-4.26h-7.8v-3.4h12.82v2.75L677,195.1A6.15,6.15,0,0,1,680.65,196.89Z"/><path d="M698.5,198.1a4.55,4.55,0,0,1,.72,2.54,4.76,4.76,0,0,1-1,3,6.18,6.18,0,0,1-2.73,2,12,12,0,0,1-8.09,0,6.08,6.08,0,0,1-2.7-2,4.81,4.81,0,0,1-1-3,4.55,4.55,0,0,1,.72-2.54,5.18,5.18,0,0,1,2-1.77,4.5,4.5,0,0,1-1.57-1.59,4.23,4.23,0,0,1-.55-2.18,4.51,4.51,0,0,1,.89-2.78,5.61,5.61,0,0,1,2.49-1.81,9.68,9.68,0,0,1,3.66-.65,9.89,9.89,0,0,1,3.7.65,5.64,5.64,0,0,1,2.5,1.81,4.51,4.51,0,0,1,.89,2.78,4.23,4.23,0,0,1-.55,2.18,4.48,4.48,0,0,1-1.59,1.59A5.17,5.17,0,0,1,698.5,198.1Zm-4.5,4.33a2.31,2.31,0,0,0,.93-1.92,2.27,2.27,0,0,0-.93-1.91,4.06,4.06,0,0,0-2.52-.7,4,4,0,0,0-2.49.7,2.28,2.28,0,0,0-.91,1.91,2.31,2.31,0,0,0,.91,1.94,4.77,4.77,0,0,0,5,0Zm-4.57-11.38a2,2,0,0,0-.78,1.69,2,2,0,0,0,.76,1.65,3.27,3.27,0,0,0,2.07.6,3.35,3.35,0,0,0,2.09-.6,2,2,0,0,0,.79-1.65,2,2,0,0,0-.79-1.69,3.29,3.29,0,0,0-2.09-.61A3.17,3.17,0,0,0,689.43,191.05Z"/><path d="M167.32,526.94H155.77v-1.72l5.84-7a17.75,17.75,0,0,0,2.11-3,5,5,0,0,0,.56-2.25,3,3,0,0,0-.76-2.12,2.7,2.7,0,0,0-2.08-.82,3.12,3.12,0,0,0-2.51,1,3.71,3.71,0,0,0-.86,2.52h-2.43l0-.08a5,5,0,0,1,1.52-3.85,5.85,5.85,0,0,1,4.31-1.58,5.4,5.4,0,0,1,3.92,1.38,4.71,4.71,0,0,1,1.43,3.56,5.72,5.72,0,0,1-.81,2.88,31.78,31.78,0,0,1-2.47,3.53l-4.69,5.49,0,.06h8.47Z"/><path d="M181.87,520.37a7.35,7.35,0,0,1-1.61,5,5.43,5.43,0,0,1-4.31,1.84,5.48,5.48,0,0,1-4.31-1.84,7.3,7.3,0,0,1-1.62-5v-5.46a7.37,7.37,0,0,1,1.61-5,5.41,5.41,0,0,1,4.3-1.85,5.47,5.47,0,0,1,4.32,1.85,7.33,7.33,0,0,1,1.62,5Zm-2.52-6a5.12,5.12,0,0,0-.89-3.17,3,3,0,0,0-2.53-1.16,3,3,0,0,0-2.51,1.16,5.12,5.12,0,0,0-.88,3.17v6.5a5.14,5.14,0,0,0,.9,3.19,3.29,3.29,0,0,0,5,0,5.16,5.16,0,0,0,.88-3.19Z"/><path d="M192.38,526.94h-2.53V510.66l-4,0v-1.94l6.58-.69Z"/><path d="M206.23,508.07a10.51,10.51,0,0,1,2.17.22,7.67,7.67,0,0,1,1.78.55l-.54,1.93a8.35,8.35,0,0,0-1.53-.52,8,8,0,0,0-1.88-.2,3.36,3.36,0,0,0-2.84,1.5,6.2,6.2,0,0,0-1.09,3.78v1.44a5.61,5.61,0,0,1,1.84-1.23,6,6,0,0,1,2.3-.44,4.77,4.77,0,0,1,3.8,1.61,6.22,6.22,0,0,1,1.39,4.23,6.49,6.49,0,0,1-1.56,4.56,5.43,5.43,0,0,1-4.22,1.71,5.57,5.57,0,0,1-4.32-2,7.8,7.8,0,0,1-1.74-5.36v-4.28a8,8,0,0,1,1.86-5.41A5.85,5.85,0,0,1,206.23,508.07Zm-.6,8.9a3.91,3.91,0,0,0-2,.51,3.37,3.37,0,0,0-1.29,1.36v1.29a6.15,6.15,0,0,0,1,3.74,3.08,3.08,0,0,0,2.53,1.37,2.8,2.8,0,0,0,2.42-1.19,5.32,5.32,0,0,0,.85-3.11,4.3,4.3,0,0,0-.92-2.89A3.16,3.16,0,0,0,205.63,517Z"/><path d="M411.41,526.94H399.86v-1.72l5.84-7a17.18,17.18,0,0,0,2.11-3,5,5,0,0,0,.56-2.25,3,3,0,0,0-.76-2.12,2.7,2.7,0,0,0-2.08-.82,3.13,3.13,0,0,0-2.51,1,3.76,3.76,0,0,0-.86,2.52h-2.43l0-.08a5,5,0,0,1,1.52-3.85,5.82,5.82,0,0,1,4.3-1.58,5.4,5.4,0,0,1,3.92,1.38,4.71,4.71,0,0,1,1.43,3.56,5.72,5.72,0,0,1-.81,2.88,31.78,31.78,0,0,1-2.47,3.53l-4.69,5.49,0,.06h8.47Z"/><path d="M426,520.37a7.39,7.39,0,0,1-1.6,5,6,6,0,0,1-8.63,0,7.35,7.35,0,0,1-1.61-5v-5.46a7.37,7.37,0,0,1,1.6-5,5.95,5.95,0,0,1,8.62,0,7.33,7.33,0,0,1,1.62,5Zm-2.52-6a5.12,5.12,0,0,0-.89-3.17,3,3,0,0,0-2.53-1.16,3,3,0,0,0-2.51,1.16,5.19,5.19,0,0,0-.88,3.17v6.5a5.14,5.14,0,0,0,.9,3.19,3.29,3.29,0,0,0,5,0,5.16,5.16,0,0,0,.88-3.19Z"/><path d="M436.47,526.94h-2.53V510.66l-4.05,0v-1.94l6.58-.69Z"/><path d="M455,513.09a4.21,4.21,0,0,1-.82,2.56,5,5,0,0,1-2.17,1.66,5.44,5.44,0,0,1,2.54,1.75,4.3,4.3,0,0,1,1,2.77,4.9,4.9,0,0,1-1.67,4,6.35,6.35,0,0,1-4.25,1.41,6.83,6.83,0,0,1-4.46-1.41,4.8,4.8,0,0,1-1.73-4,4.26,4.26,0,0,1,1-2.77,5.72,5.72,0,0,1,2.64-1.77,4.82,4.82,0,0,1-2.26-1.64,4.15,4.15,0,0,1-.83-2.56,4.54,4.54,0,0,1,1.57-3.73,6.19,6.19,0,0,1,4.08-1.29,5.8,5.8,0,0,1,3.9,1.3A4.59,4.59,0,0,1,455,513.09Zm-2,8.69a3.41,3.41,0,0,0-1-2.51,3.34,3.34,0,0,0-2.44-1,3.67,3.67,0,0,0-2.62,1,3.33,3.33,0,0,0-1,2.51,3.28,3.28,0,0,0,1,2.52,3.77,3.77,0,0,0,2.65.94,3.4,3.4,0,0,0,2.44-1A3.35,3.35,0,0,0,453,521.78Zm-.52-8.65a3.06,3.06,0,0,0-.84-2.21,2.76,2.76,0,0,0-2.07-.87,3.14,3.14,0,0,0-2.25.84,2.93,2.93,0,0,0-.88,2.24,3,3,0,0,0,3.15,3.18,2.71,2.71,0,0,0,2.07-.88A3.24,3.24,0,0,0,452.52,513.13Z"/><path d="M655.5,526.94H644v-1.72l5.84-7a17.18,17.18,0,0,0,2.11-3,5,5,0,0,0,.56-2.25,3,3,0,0,0-.76-2.12,2.7,2.7,0,0,0-2.08-.82,3.13,3.13,0,0,0-2.51,1,3.76,3.76,0,0,0-.86,2.52h-2.43l0-.08a5,5,0,0,1,1.52-3.85,5.82,5.82,0,0,1,4.3-1.58,5.4,5.4,0,0,1,3.92,1.38A4.71,4.71,0,0,1,655,513a5.72,5.72,0,0,1-.81,2.88,31.78,31.78,0,0,1-2.47,3.53L647,524.91l0,.06h8.47Z"/><path d="M670.05,520.37a7.39,7.39,0,0,1-1.6,5,6,6,0,0,1-8.63,0,7.35,7.35,0,0,1-1.61-5v-5.46a7.37,7.37,0,0,1,1.6-5,5.95,5.95,0,0,1,8.62,0,7.33,7.33,0,0,1,1.62,5Zm-2.52-6a5.12,5.12,0,0,0-.89-3.17,3,3,0,0,0-2.53-1.16,3,3,0,0,0-2.51,1.16,5.19,5.19,0,0,0-.88,3.17v6.5a5.14,5.14,0,0,0,.9,3.19,3.29,3.29,0,0,0,5,0,5.16,5.16,0,0,0,.88-3.19Z"/><path d="M685,526.94H673.41v-1.72l5.84-7a17.18,17.18,0,0,0,2.11-3,5,5,0,0,0,.56-2.25,3,3,0,0,0-.76-2.12,2.7,2.7,0,0,0-2.08-.82,3.13,3.13,0,0,0-2.51,1,3.76,3.76,0,0,0-.86,2.52h-2.43l0-.08a5,5,0,0,1,1.52-3.85,5.82,5.82,0,0,1,4.3-1.58,5.4,5.4,0,0,1,3.92,1.38,4.71,4.71,0,0,1,1.43,3.56,5.72,5.72,0,0,1-.81,2.88,31.78,31.78,0,0,1-2.47,3.53l-4.69,5.49,0,.06H685Z"/><path d="M695.29,526.94h-2.53V510.66l-4,0v-1.94l6.58-.69Z"/></svg>