<svg xmlns="http://www.w3.org/2000/svg" xmlns:xlink="http://www.w3.org/1999/xlink" viewBox="0 0 1492.91 395.88"><defs><style>.cls-1,.cls-13,.cls-15,.cls-6{fill:none;}.cls-2{isolation:isolate;}.cls-3{clip-path:url(#clip-path);}.cls-4{fill:#f26e25;}.cls-5{opacity:0.3;mix-blend-mode:screen;}.cls-13,.cls-6{stroke:#19486a;}.cls-13,.cls-15,.cls-6{stroke-miterlimit:10;}.cls-6{stroke-width:3.2px;}.cls-7{clip-path:url(#clip-path-2);}.cls-8{fill:#fcb514;}.cls-9{clip-path:url(#clip-path-3);}.cls-10{fill:#41ac49;}.cls-11{clip-path:url(#clip-path-4);}.cls-12{fill:#268de2;}.cls-13{stroke-width:3.26px;}.cls-14{clip-path:url(#clip-path-5);}.cls-15{stroke:#231f20;stroke-width:2.04px;}.cls-16{fill:#fff;}</style><clipPath id="clip-path"><rect class="cls-1" x="285.15" y="150.03" width="348.4" height="65.75"/></clipPath><clipPath id="clip-path-2"><rect class="cls-1" x="285.15" y="215.77" width="348.4" height="65.75"/></clipPath><clipPath id="clip-path-3"><rect class="cls-1" x="285.15" y="281.52" width="348.4" height="65.75"/></clipPath><clipPath id="clip-path-4"><rect class="cls-1" x="633.55" y="48.62" width="287.11" height="101.41"/></clipPath><clipPath id="clip-path-5"><rect class="cls-1" x="920.65" y="48.62" width="287.11" height="101.41"/></clipPath></defs><g class="cls-2"><g id="Layer_1" data-name="Layer 1"><g class="cls-3"><rect class="cls-4" x="285.15" y="150.03" width="348.4" height="65.75"/><g class="cls-5"><path class="cls-6" d="M647.67,411.91l47.82-47.82h0L878.91,180.68,695.49-2.74h0L647.67-50.56,416.44,180.68ZM478.18,148.77l31.91,31.91-31.91,31.91-31.91-31.91Zm339,63.82-31.92-31.91,31.92-31.91,31.91,31.91ZM680.58,349.18h0l-32.91,32.9-74.75-74.76,59.94-59.94-61.74-61.75L526.25,230.5l30.87,30.87L572,246.46l-16-16,15-15L603,247.38l-45,45-64.9-64.9,46.83-46.82L493.1,133.85,558,69l45,45-31.91,31.91-15-15,16-15.95L557.12,100l-30.87,30.87,44.87,44.87L632.86,114,572.92,54l41.85-41.85h0l32.9-32.91,32.91,32.91h0L722.43,54l-59.94,60,61.74,61.74,44.87-44.87L738.23,100,723.31,114.9l16,15.95-15,15L692.32,114l45-45,64.9,64.9-46.83,46.83,46.83,46.82-64.9,64.9-45-45,31.91-31.92,15,15-16,15.95,14.92,14.92L769.1,230.5l-44.87-44.87-61.74,61.75,59.94,59.94Z"/><rect class="cls-6" x="611.35" y="270.18" width="72.64" height="72.64" transform="translate(1322.38 65.25) rotate(135)"/><rect class="cls-6" x="611.35" y="17.01" width="72.64" height="72.64" transform="translate(1143.36 -366.93) rotate(135)"/></g></g><g class="cls-7"><rect class="cls-8" x="285.15" y="215.77" width="348.4" height="65.75"/><g class="cls-5"><path class="cls-6" d="M647.67,477.66l47.82-47.82h0L878.91,246.42,695.49,63h0L647.67,15.19,416.44,246.42ZM478.18,214.51l31.91,31.91-31.91,31.91-31.91-31.91Zm339,63.82-31.92-31.91,31.92-31.91,31.91,31.91ZM680.58,414.92h0l-32.91,32.9-74.75-74.75,59.94-59.95-61.74-61.74-44.87,44.86,30.87,30.88L572,312.2l-16-16,15-15L603,313.12l-45,45-64.9-64.9,46.83-46.83L493.1,199.6,558,134.69l45,45-31.91,31.92-15-15,16-16-14.92-14.91L526.25,196.6l44.87,44.87,61.74-61.75-59.94-59.94,41.85-41.86h0L647.67,45l32.91,32.9h0l41.85,41.86-59.94,59.94,61.74,61.75L769.1,196.6l-30.87-30.87-14.92,14.91,16,16-15,15-31.91-31.92,45-45,64.9,64.9-46.83,46.82,46.83,46.83-64.9,64.9-45-45,31.91-31.91,15,15-16,16,14.92,14.92,30.87-30.88-44.87-44.86-61.74,61.74,59.94,59.95Z"/><rect class="cls-6" x="611.35" y="335.93" width="72.64" height="72.64" transform="translate(1368.87 177.49) rotate(135)"/><rect class="cls-6" x="611.35" y="82.76" width="72.64" height="72.64" transform="translate(1189.85 -254.7) rotate(135)"/></g></g><g class="cls-9"><rect class="cls-10" x="285.15" y="281.52" width="348.4" height="65.75"/><g class="cls-5"><path class="cls-6" d="M647.67,543.4l47.82-47.82h0L878.91,312.17,695.49,128.75h0L647.67,80.93,416.44,312.17ZM478.18,280.26l31.91,31.91-31.91,31.91-31.91-31.91Zm339,63.82-31.92-31.91,31.92-31.91,31.91,31.91ZM680.58,480.67h0l-32.91,32.9-74.75-74.76,59.94-59.94-61.74-61.75L526.25,362l30.87,30.87L572,378l-16-16,15-15L603,378.87l-45,45L493.1,359l46.83-46.82L493.1,265.34l64.9-64.9,45,45-31.91,31.91-15-15,16-15.95-14.92-14.92-30.87,30.87,44.87,44.87,61.74-61.74-59.94-59.95,41.85-41.85h0l32.9-32.91,32.91,32.91h0l41.85,41.85-59.94,59.95,61.74,61.74,44.87-44.87-30.87-30.87-14.92,14.92,16,15.95-15,15-31.91-31.91,45-45,64.9,64.9-46.83,46.83L802.25,359l-64.9,64.9-45-45L724.23,347l15,15-16,15.95,14.92,14.92L769.1,362l-44.87-44.87-61.74,61.75,59.94,59.94Z"/><rect class="cls-6" x="611.35" y="401.67" width="72.64" height="72.64" transform="translate(1415.35 289.72) rotate(135)"/><rect class="cls-6" x="611.35" y="148.5" width="72.64" height="72.64" transform="translate(1236.34 -142.47) rotate(135)"/></g></g><g class="cls-11"><rect class="cls-12" x="633.55" y="48.62" width="287.11" height="101.41"/><g class="cls-5"><path class="cls-13" d="M937.6,335.1l48.76-48.76h0l187-187-187-187h0L937.6-136.45,701.82,99.32ZM764.78,66.79l32.54,32.53-32.54,32.54L732.24,99.32Zm345.64,65.07-32.54-32.54,32.54-32.53L1143,99.32ZM971.15,271.13h0L937.6,304.68l-76.23-76.23,61.13-61.12-63-63-45.75,45.75,31.48,31.48,15.21-15.21-16.27-16.27,15.33-15.33,32.54,32.54-45.92,45.91L780,147.07l47.75-47.75L780,51.58,846.16-14.6l45.92,45.92L859.54,63.85,844.21,48.52l16.27-16.27L845.27,17,813.79,48.52l45.75,45.75,63-62.95L861.37-29.81l42.68-42.67h0L937.6-106l33.55,33.55h0l42.67,42.67L952.7,31.32l63,63,45.75-45.75L1029.93,17l-15.21,15.21L1031,48.52l-15.33,15.33L983.12,31.32,1029-14.6l66.18,66.18-47.75,47.74,47.75,47.75L1029,213.24l-45.91-45.91,32.54-32.54L1031,150.12l-16.27,16.27,15.21,15.21,31.48-31.48-45.75-45.75-63,63,61.12,61.12Z"/><rect class="cls-13" x="900.57" y="190.58" width="74.07" height="74.07" transform="translate(1761.53 -274.42) rotate(135)"/><rect class="cls-13" x="900.57" y="-67.56" width="74.07" height="74.07" transform="translate(1579 -715.09) rotate(135)"/></g></g><g class="cls-14"><rect class="cls-12" x="920.65" y="48.62" width="287.11" height="101.41"/><g class="cls-5"><path class="cls-13" d="M1224.7,335.1l48.76-48.76h0l187-187-187-187h0l-48.76-48.76L988.93,99.32ZM1051.89,66.79l32.53,32.53-32.53,32.54-32.54-32.54Zm345.63,65.07L1365,99.32l32.53-32.53,32.54,32.53ZM1258.25,271.13h0l-33.55,33.55-76.22-76.23,61.12-61.12-62.95-63-45.75,45.75,31.48,31.48,15.2-15.21-16.27-16.27,15.34-15.33,32.53,32.54-45.91,45.91-66.17-66.17,47.74-47.75L1067.1,51.58l66.17-66.18,45.91,45.92-32.53,32.53-15.34-15.33,16.27-16.27L1132.38,17,1100.9,48.52l45.75,45.75,62.95-62.95-61.12-61.13,42.67-42.67h0L1224.7-106l33.56,33.55h0l42.68,42.67-61.12,61.13,63,63,45.74-45.75L1317,17l-15.21,15.21,16.27,16.27-15.33,15.33-32.54-32.53,45.91-45.92,66.17,66.18-47.74,47.74,47.74,47.75-66.17,66.17-45.91-45.91,32.54-32.54,15.33,15.33-16.27,16.27L1317,181.6l31.47-31.48-45.74-45.75-63,63,61.12,61.12Z"/><rect class="cls-13" x="1187.67" y="190.58" width="74.07" height="74.07" transform="translate(2251.65 -477.43) rotate(135)"/><rect class="cls-13" x="1187.67" y="-67.56" width="74.07" height="74.07" transform="translate(2069.12 -918.1) rotate(135)"/></g></g><polygon class="cls-15" points="633.55 215.77 285.15 215.77 285.15 150.03 633.55 149.25 633.55 101.68 633.55 48.62 633.55 215.77"/><rect class="cls-15" x="633.55" y="48.62" width="287.11" height="298.64"/><path class="cls-16" d="M380,182.11h3.74v7.17a10.63,10.63,0,0,1-3.33,1.67,12.93,12.93,0,0,1-3.82.58,10.29,10.29,0,0,1-4.95-1.18,8.78,8.78,0,0,1-3.45-3.25,9.5,9.5,0,0,1,0-9.42,8.69,8.69,0,0,1,3.48-3.26,10.54,10.54,0,0,1,5-1.18,10.83,10.83,0,0,1,4.22.79,8.39,8.39,0,0,1,3.18,2.27l-2.63,2.42a6.07,6.07,0,0,0-4.57-2,6.17,6.17,0,0,0-3,.71,5.07,5.07,0,0,0-2,2,6.31,6.31,0,0,0,0,5.89,5.2,5.2,0,0,0,2,2,6,6,0,0,0,3,.72,6.67,6.67,0,0,0,3.18-.75Z"/><path class="cls-16" d="M400.46,185.54H390.18a3.22,3.22,0,0,0,1.32,2,4.33,4.33,0,0,0,2.57.73A5.28,5.28,0,0,0,396,188a4.66,4.66,0,0,0,1.52-1l2.1,2.27a7,7,0,0,1-5.61,2.2,8.83,8.83,0,0,1-4.06-.9,6.6,6.6,0,0,1-2.73-2.49,6.84,6.84,0,0,1-1-3.61,7,7,0,0,1,.95-3.6,6.58,6.58,0,0,1,2.6-2.5,7.7,7.7,0,0,1,3.7-.89,7.6,7.6,0,0,1,3.61.85,6.35,6.35,0,0,1,2.54,2.47,7.38,7.38,0,0,1,.92,3.72C400.54,184.53,400.51,184.89,400.46,185.54Zm-9.21-4.37a3.26,3.26,0,0,0-1.12,2.08h6.7a3.23,3.23,0,0,0-3.34-2.83A3.39,3.39,0,0,0,391.25,181.17Z"/><path class="cls-16" d="M411.93,190.57a3.92,3.92,0,0,1-1.43.64,6.84,6.84,0,0,1-1.78.22,5.29,5.29,0,0,1-3.75-1.24,4.75,4.75,0,0,1-1.32-3.64V181h-2.1v-3h2.1v-3.31h3.94v3.31H411v3h-3.38v5.53a1.83,1.83,0,0,0,.44,1.33,1.64,1.64,0,0,0,1.25.47,2.52,2.52,0,0,0,1.59-.51Z"/><path class="cls-16" d="M422.61,190.57a3.87,3.87,0,0,1-1.42.64,7,7,0,0,1-1.78.22,5.25,5.25,0,0,1-3.75-1.24,4.71,4.71,0,0,1-1.33-3.64V181h-2.1v-3h2.1v-3.31h3.94v3.31h3.38v3h-3.38v5.53a1.87,1.87,0,0,0,.44,1.33,1.65,1.65,0,0,0,1.25.47,2.52,2.52,0,0,0,1.59-.51Z"/><path class="cls-16" d="M425,175.11a2.14,2.14,0,0,1,0-3.13,2.82,2.82,0,0,1,3.53,0,1.91,1.91,0,0,1,.69,1.51,2.13,2.13,0,0,1-.69,1.63,2.44,2.44,0,0,1-1.76.64A2.49,2.49,0,0,1,425,175.11Zm-.2,2.53h3.94v13.59h-3.94Z"/><path class="cls-16" d="M444.78,179a6,6,0,0,1,1.55,4.5v7.78h-3.94v-7.18a3.56,3.56,0,0,0-.71-2.41,2.58,2.58,0,0,0-2-.79,3.12,3.12,0,0,0-2.38.92,3.81,3.81,0,0,0-.88,2.74v6.72h-3.94V177.64h3.76v1.59a5.32,5.32,0,0,1,1.95-1.33,6.77,6.77,0,0,1,2.55-.46A5.61,5.61,0,0,1,444.78,179Z"/><path class="cls-16" d="M464.06,177.64V189c0,2.49-.65,4.35-1.95,5.56a8,8,0,0,1-5.68,1.82,14.25,14.25,0,0,1-3.74-.48,8.31,8.31,0,0,1-2.93-1.39l1.57-2.83a6.35,6.35,0,0,0,2.17,1.12,8.6,8.6,0,0,0,2.63.42,4.3,4.3,0,0,0,3-.92,3.72,3.72,0,0,0,1-2.79v-.58a5.51,5.51,0,0,1-4.29,1.69,7.21,7.21,0,0,1-3.43-.82,6.35,6.35,0,0,1-2.46-2.31,6.94,6.94,0,0,1,0-6.87,6.21,6.21,0,0,1,2.46-2.31,7.21,7.21,0,0,1,3.43-.82,5.37,5.37,0,0,1,4.49,1.94v-1.74Zm-4.89,8.77a3.4,3.4,0,0,0,0-4.82,3.64,3.64,0,0,0-2.56-.92,3.7,3.7,0,0,0-2.58.92,3.38,3.38,0,0,0,0,4.82,3.67,3.67,0,0,0,2.58.93A3.6,3.6,0,0,0,459.17,186.41Z"/><path class="cls-16" d="M486.41,191.23,483,186.3h-3.76v4.93h-4.09V173.55h7.65a9.9,9.9,0,0,1,4.08.78,6,6,0,0,1,2.66,2.22,6.16,6.16,0,0,1,.94,3.41,5.76,5.76,0,0,1-3.64,5.58l4,5.69Zm-1-13.55a4.29,4.29,0,0,0-2.8-.8h-3.33V183h3.33a4.23,4.23,0,0,0,2.8-.81,3.18,3.18,0,0,0,0-4.55Z"/><path class="cls-16" d="M506.67,185.54H496.39a3.17,3.17,0,0,0,1.31,2,4.34,4.34,0,0,0,2.58.73,5.26,5.26,0,0,0,1.88-.31,4.66,4.66,0,0,0,1.52-1l2.1,2.27a7,7,0,0,1-5.61,2.2,8.83,8.83,0,0,1-4.06-.9,6.6,6.6,0,0,1-2.73-2.49,6.84,6.84,0,0,1-1-3.61,7,7,0,0,1,.95-3.6,6.65,6.65,0,0,1,2.6-2.5,7.72,7.72,0,0,1,3.7-.89,7.6,7.6,0,0,1,3.61.85,6.35,6.35,0,0,1,2.54,2.47,7.38,7.38,0,0,1,.92,3.72C506.74,184.53,506.72,184.89,506.67,185.54Zm-9.22-4.37a3.21,3.21,0,0,0-1.11,2.08H503a3.23,3.23,0,0,0-3.34-2.83A3.39,3.39,0,0,0,497.45,181.17Z"/><path class="cls-16" d="M519.32,178.94a5.73,5.73,0,0,1,1.69,4.53v7.76h-3.69v-1.7q-1.11,1.91-4.14,1.9a6.45,6.45,0,0,1-2.71-.53,4.08,4.08,0,0,1-1.76-1.47,3.84,3.84,0,0,1-.61-2.12,3.56,3.56,0,0,1,1.43-3,7.3,7.3,0,0,1,4.41-1.08h3.13a2.54,2.54,0,0,0-.78-2,3.47,3.47,0,0,0-2.35-.69,6.79,6.79,0,0,0-2.14.34,5.76,5.76,0,0,0-1.78.92l-1.41-2.75a8.46,8.46,0,0,1,2.66-1.21,11.82,11.82,0,0,1,3.2-.43A7.09,7.09,0,0,1,519.32,178.94ZM516,188.31a2.56,2.56,0,0,0,1.11-1.38v-1.39h-2.7q-2.43,0-2.43,1.59a1.4,1.4,0,0,0,.6,1.2,2.63,2.63,0,0,0,1.63.45A3.44,3.44,0,0,0,516,188.31Z"/><path class="cls-16" d="M538.56,172.49v18.74H534.8v-1.57a5.19,5.19,0,0,1-4.24,1.77,7.12,7.12,0,0,1-3.48-.86,6.16,6.16,0,0,1-2.43-2.45,8.09,8.09,0,0,1,0-7.38,6.22,6.22,0,0,1,2.43-2.45,7.12,7.12,0,0,1,3.48-.85,5.13,5.13,0,0,1,4.06,1.64v-6.59Zm-4.85,14.68a4.29,4.29,0,0,0,0-5.48,3.28,3.28,0,0,0-2.47-1,3.33,3.33,0,0,0-2.5,1,4.29,4.29,0,0,0,0,5.48,3.34,3.34,0,0,0,2.5,1A3.29,3.29,0,0,0,533.71,187.17Z"/><path class="cls-16" d="M555.69,177.64l-6.14,14.42a7,7,0,0,1-2.31,3.31,5.67,5.67,0,0,1-3.32,1,6.87,6.87,0,0,1-2.1-.33,4.62,4.62,0,0,1-1.69-.91l1.44-2.8a3.51,3.51,0,0,0,2.22.86,2,2,0,0,0,1.31-.4,3.26,3.26,0,0,0,.91-1.3l0-.12-5.88-13.69h4.07l3.81,9.22,3.84-9.22Z"/><path class="cls-16" d="M370.93,258.75l0-10.61-5.2,8.74h-1.85l-5.17-8.51v10.38h-3.84V241.07h3.38l6.62,11,6.52-11h3.35l.06,17.68Z"/><path class="cls-16" d="M381.29,258.05a6.63,6.63,0,0,1-2.66-2.48,7.29,7.29,0,0,1,0-7.23,6.72,6.72,0,0,1,2.66-2.49,8.26,8.26,0,0,1,3.86-.89,8.1,8.1,0,0,1,3.83.89,6.72,6.72,0,0,1,2.66,2.49,7.29,7.29,0,0,1,0,7.23,6.63,6.63,0,0,1-2.66,2.48,8,8,0,0,1-3.83.9A8.14,8.14,0,0,1,381.29,258.05Zm6.34-3.36a4.32,4.32,0,0,0,0-5.48,3.27,3.27,0,0,0-2.48-1,3.35,3.35,0,0,0-2.51,1,4.32,4.32,0,0,0,0,5.48,3.33,3.33,0,0,0,2.51,1A3.24,3.24,0,0,0,387.63,254.69Z"/><path class="cls-16" d="M408.33,245.16l-5.73,13.59h-4.07l-5.71-13.59h4.07l3.76,9.24,3.89-9.24Z"/><path class="cls-16" d="M410.15,242.63a2,2,0,0,1-.68-1.56,2,2,0,0,1,.68-1.57,2.82,2.82,0,0,1,3.53,0,1.93,1.93,0,0,1,.69,1.51,2.13,2.13,0,0,1-.69,1.63,2.74,2.74,0,0,1-3.53,0Zm-.2,2.53h3.94v13.59H410Z"/><path class="cls-16" d="M429.89,246.47a6,6,0,0,1,1.55,4.5v7.78H427.5v-7.18a3.56,3.56,0,0,0-.71-2.41,2.58,2.58,0,0,0-2-.79,3.12,3.12,0,0,0-2.38.92,3.81,3.81,0,0,0-.88,2.74v6.72h-3.94V245.16h3.76v1.59a5.32,5.32,0,0,1,1.95-1.33,6.77,6.77,0,0,1,2.55-.46A5.61,5.61,0,0,1,429.89,246.47Z"/><path class="cls-16" d="M449.17,245.16v11.31q0,3.75-1.95,5.56a8,8,0,0,1-5.68,1.82,14.25,14.25,0,0,1-3.74-.48,8.23,8.23,0,0,1-2.93-1.39l1.57-2.83a6.54,6.54,0,0,0,2.17,1.13,8.9,8.9,0,0,0,2.63.41,4.3,4.3,0,0,0,3-.92,3.69,3.69,0,0,0,1-2.79v-.58a5.51,5.51,0,0,1-4.29,1.69,7.21,7.21,0,0,1-3.43-.82,6.35,6.35,0,0,1-2.46-2.31,6.94,6.94,0,0,1,0-6.87,6.35,6.35,0,0,1,2.46-2.31,7.21,7.21,0,0,1,3.43-.82,5.4,5.4,0,0,1,4.49,1.94v-1.74Zm-4.89,8.78a3.42,3.42,0,0,0,0-4.83,3.64,3.64,0,0,0-2.56-.92,3.7,3.7,0,0,0-2.58.92,3.39,3.39,0,0,0,0,4.83,3.7,3.7,0,0,0,2.58.92A3.64,3.64,0,0,0,444.28,253.94Z"/><path class="cls-16" d="M464.35,244.35V249h8.18v3.29h-8.18v6.44h-4.09V241.07h13.36v3.28Z"/><path class="cls-16" d="M478.38,258.05a6.59,6.59,0,0,1-2.67-2.48,7.29,7.29,0,0,1,0-7.23,6.68,6.68,0,0,1,2.67-2.49,8.75,8.75,0,0,1,7.69,0,6.7,6.7,0,0,1,2.65,2.49,7.29,7.29,0,0,1,0,7.23,6.6,6.6,0,0,1-2.65,2.48,8.66,8.66,0,0,1-7.69,0Zm6.34-3.36a4.35,4.35,0,0,0,0-5.48,3.29,3.29,0,0,0-2.49-1,3.33,3.33,0,0,0-2.5,1,4.29,4.29,0,0,0,0,5.48,3.3,3.3,0,0,0,2.5,1A3.27,3.27,0,0,0,484.72,254.69Z"/><path class="cls-16" d="M498,245.46a7.19,7.19,0,0,1,2.76-.5v3.63l-.88-.05a3.61,3.61,0,0,0-2.65,1,3.83,3.83,0,0,0-1,2.84v6.42h-3.94V245.16h3.76V247A4.45,4.45,0,0,1,498,245.46Z"/><path class="cls-16" d="M525.39,245.16l-4.92,13.59h-3.79l-3.06-8.44-3.15,8.44h-3.79l-4.9-13.59h3.71l3.21,9.19,3.33-9.19h3.34l3.23,9.19,3.31-9.19Z"/><path class="cls-16" d="M537.11,246.46A5.73,5.73,0,0,1,538.8,251v7.76h-3.68v-1.69Q534,259,531,259a6.49,6.49,0,0,1-2.71-.53A4,4,0,0,1,526.5,257a3.83,3.83,0,0,1-.6-2.12,3.55,3.55,0,0,1,1.42-3,7.32,7.32,0,0,1,4.41-1.08h3.13a2.54,2.54,0,0,0-.78-2,3.45,3.45,0,0,0-2.35-.69,6.78,6.78,0,0,0-2.13.34,5.86,5.86,0,0,0-1.78.92l-1.42-2.75a8.41,8.41,0,0,1,2.67-1.21,11.75,11.75,0,0,1,3.19-.43A7.08,7.08,0,0,1,537.11,246.46Zm-3.36,9.37a2.56,2.56,0,0,0,1.11-1.38v-1.39h-2.7c-1.62,0-2.42.54-2.42,1.6a1.42,1.42,0,0,0,.59,1.2,2.72,2.72,0,0,0,1.63.44A3.44,3.44,0,0,0,533.75,255.83Z"/><path class="cls-16" d="M548,245.46a7.24,7.24,0,0,1,2.77-.5v3.63l-.88-.05a3.64,3.64,0,0,0-2.66,1,3.83,3.83,0,0,0-1,2.84v6.42h-3.94V245.16h3.77V247A4.42,4.42,0,0,1,548,245.46Z"/><path class="cls-16" d="M566.86,240v18.74H563.1v-1.57a5.19,5.19,0,0,1-4.24,1.77,7.12,7.12,0,0,1-3.48-.86,6.16,6.16,0,0,1-2.43-2.45,8.07,8.07,0,0,1,0-7.37,6.16,6.16,0,0,1,2.43-2.45,7,7,0,0,1,3.48-.86,5.13,5.13,0,0,1,4.06,1.64V240ZM562,254.69a4.29,4.29,0,0,0,0-5.48,3.28,3.28,0,0,0-2.47-1,3.33,3.33,0,0,0-2.5,1,4.29,4.29,0,0,0,0,5.48,3.3,3.3,0,0,0,2.5,1A3.25,3.25,0,0,0,562,254.69Z"/><path class="cls-16" d="M365.28,318.36h-8.21l-1.56,3.78h-4.19l7.88-17.68h4l7.9,17.68h-4.29ZM364,315.25l-2.8-6.77-2.8,6.77Z"/><path class="cls-16" d="M381.34,321.49a4,4,0,0,1-1.42.64,7.42,7.42,0,0,1-1.78.22,5.3,5.3,0,0,1-3.75-1.24,4.73,4.73,0,0,1-1.33-3.64v-5.58H371v-3h2.1v-3.31H377v3.31h3.39v3H377v5.53a1.89,1.89,0,0,0,.44,1.33,1.65,1.65,0,0,0,1.25.46,2.48,2.48,0,0,0,1.59-.5Z"/><path class="cls-16" d="M399.48,321.49a4.09,4.09,0,0,1-1.43.64,7.35,7.35,0,0,1-1.78.22,5.3,5.3,0,0,1-3.75-1.24,4.77,4.77,0,0,1-1.33-3.64v-5.58H389.1v-3h2.09v-3.31h3.94v3.31h3.39v3h-3.39v5.53a1.85,1.85,0,0,0,.45,1.33,1.63,1.63,0,0,0,1.25.46,2.52,2.52,0,0,0,1.59-.5Z"/><path class="cls-16" d="M414,309.87a6,6,0,0,1,1.55,4.5v7.77h-3.94V315a3.49,3.49,0,0,0-.71-2.41,2.59,2.59,0,0,0-2-.8,3.1,3.1,0,0,0-2.37.93,3.79,3.79,0,0,0-.89,2.74v6.71H401.7V303.4h3.94V310a5.23,5.23,0,0,1,1.9-1.2,6.76,6.76,0,0,1,2.42-.42A5.61,5.61,0,0,1,414,309.87Z"/><path class="cls-16" d="M432.54,316.46H422.26a3.2,3.2,0,0,0,1.31,2,4.34,4.34,0,0,0,2.58.73,5.22,5.22,0,0,0,1.88-.32,4.56,4.56,0,0,0,1.53-1l2.09,2.27a7,7,0,0,1-5.6,2.2,8.87,8.87,0,0,1-4.07-.9,6.6,6.6,0,0,1-2.73-2.49,6.84,6.84,0,0,1-1-3.61,7,7,0,0,1,.95-3.6,6.65,6.65,0,0,1,2.6-2.5,8,8,0,0,1,7.31,0,6.29,6.29,0,0,1,2.54,2.47,7.26,7.26,0,0,1,.92,3.72C432.61,315.45,432.59,315.8,432.54,316.46Zm-9.22-4.37a3.21,3.21,0,0,0-1.11,2.07h6.69a3.23,3.23,0,0,0-1.11-2.06,3.35,3.35,0,0,0-2.22-.77A3.44,3.44,0,0,0,423.32,312.09Z"/><path class="cls-16" d="M458.75,322.14l0-10.6-5.2,8.73h-1.85l-5.17-8.51v10.38h-3.84V304.46h3.38l6.62,11,6.51-11h3.36l0,17.68Z"/><path class="cls-16" d="M466.71,306a2.14,2.14,0,0,1,0-3.13,2.49,2.49,0,0,1,1.77-.63,2.6,2.6,0,0,1,1.77.6,2,2,0,0,1,.68,1.52,2.16,2.16,0,0,1-.68,1.63,2.78,2.78,0,0,1-3.54,0Zm-.2,2.53h3.94v13.58h-3.94Z"/><path class="cls-16" d="M474.11,303.4h3.94v18.74h-3.94Z"/><path class="cls-16" d="M495,316.46H484.67a3.2,3.2,0,0,0,1.31,2,4.34,4.34,0,0,0,2.58.73,5.25,5.25,0,0,0,1.88-.32,4.66,4.66,0,0,0,1.53-1l2.09,2.27a7.06,7.06,0,0,1-5.6,2.2,8.84,8.84,0,0,1-4.07-.9,6.6,6.6,0,0,1-2.73-2.49,6.84,6.84,0,0,1-1-3.61,7,7,0,0,1,.95-3.6,6.65,6.65,0,0,1,2.6-2.5,8,8,0,0,1,7.31,0,6.29,6.29,0,0,1,2.54,2.47,7.36,7.36,0,0,1,.92,3.72C495,315.45,495,315.8,495,316.46Zm-9.22-4.37a3.21,3.21,0,0,0-1.11,2.07h6.69a3.23,3.23,0,0,0-3.33-2.83A3.4,3.4,0,0,0,485.73,312.09Z"/><path class="cls-16" d="M498.91,321.93a8.54,8.54,0,0,1-2.57-1.05l1.31-2.83a8,8,0,0,0,2.2.95,9.32,9.32,0,0,0,2.52.37c1.67,0,2.5-.42,2.5-1.24a.89.89,0,0,0-.68-.84,10.13,10.13,0,0,0-2.1-.42,20,20,0,0,1-2.75-.59,4.17,4.17,0,0,1-1.88-1.16,3.28,3.28,0,0,1-.8-2.37,3.72,3.72,0,0,1,.75-2.29,4.79,4.79,0,0,1,2.17-1.55,9.29,9.29,0,0,1,3.37-.56,13.29,13.29,0,0,1,2.87.32,8,8,0,0,1,2.36.87l-1.31,2.8a7.89,7.89,0,0,0-3.92-1,3.91,3.91,0,0,0-1.89.36,1,1,0,0,0-.63.91.89.89,0,0,0,.68.88,11.74,11.74,0,0,0,2.17.48,24.74,24.74,0,0,1,2.73.59,4.2,4.2,0,0,1,1.84,1.15,3.28,3.28,0,0,1,.78,2.33,3.58,3.58,0,0,1-.75,2.24,4.82,4.82,0,0,1-2.21,1.53,9.68,9.68,0,0,1-3.45.55A13.12,13.12,0,0,1,498.91,321.93Z"/><path class="cls-16" d="M519.82,321.49a4,4,0,0,1-1.42.64,7.42,7.42,0,0,1-1.78.22,5.3,5.3,0,0,1-3.75-1.24,4.73,4.73,0,0,1-1.33-3.64v-5.58h-2.1v-3h2.1v-3.31h3.94v3.31h3.38v3h-3.38v5.53a1.89,1.89,0,0,0,.44,1.33,1.65,1.65,0,0,0,1.25.46,2.52,2.52,0,0,0,1.59-.5Z"/><path class="cls-16" d="M524.23,321.45a6.66,6.66,0,0,1-2.66-2.49,7.27,7.27,0,0,1,0-7.22,6.66,6.66,0,0,1,2.66-2.49,8.66,8.66,0,0,1,7.69,0,6.7,6.7,0,0,1,2.65,2.49,7.27,7.27,0,0,1,0,7.22,6.7,6.7,0,0,1-2.65,2.49,8.66,8.66,0,0,1-7.69,0Zm6.34-3.36a4.35,4.35,0,0,0,0-5.48,3.29,3.29,0,0,0-2.49-1,3.33,3.33,0,0,0-2.5,1,4.32,4.32,0,0,0,0,5.48,3.33,3.33,0,0,0,2.5,1A3.29,3.29,0,0,0,530.57,318.09Z"/><path class="cls-16" d="M550.5,309.87a6,6,0,0,1,1.55,4.5v7.77h-3.94V315a3.54,3.54,0,0,0-.71-2.41,2.59,2.59,0,0,0-2-.8,3.13,3.13,0,0,0-2.38.93,3.79,3.79,0,0,0-.88,2.74v6.71h-3.94V308.56h3.76v1.59a5.21,5.21,0,0,1,2-1.33,6.77,6.77,0,0,1,2.55-.47A5.61,5.61,0,0,1,550.5,309.87Z"/><path class="cls-16" d="M569,316.46H558.72a3.2,3.2,0,0,0,1.31,2,4.34,4.34,0,0,0,2.58.73,5.25,5.25,0,0,0,1.88-.32,4.56,4.56,0,0,0,1.53-1l2.09,2.27a7.06,7.06,0,0,1-5.6,2.2,8.84,8.84,0,0,1-4.07-.9,6.6,6.6,0,0,1-2.73-2.49,6.84,6.84,0,0,1-1-3.61,7,7,0,0,1,1-3.6,6.65,6.65,0,0,1,2.6-2.5,8,8,0,0,1,7.31,0,6.29,6.29,0,0,1,2.54,2.47,7.26,7.26,0,0,1,.92,3.72C569.07,315.45,569.05,315.8,569,316.46Zm-9.22-4.37a3.21,3.21,0,0,0-1.11,2.07h6.69a3.28,3.28,0,0,0-1.11-2.06,3.35,3.35,0,0,0-2.22-.77A3.4,3.4,0,0,0,559.78,312.09Z"/><path d="M778.89,187.89v3.34H765.53v-2.66l6.82-6.44a7.17,7.17,0,0,0,1.46-1.78,3.13,3.13,0,0,0,.38-1.47,2,2,0,0,0-.72-1.63,3.33,3.33,0,0,0-2.1-.57,4.9,4.9,0,0,0-2.1.44,4.09,4.09,0,0,0-1.57,1.33l-3-1.92a7,7,0,0,1,2.86-2.42,9.52,9.52,0,0,1,4.16-.87,8.53,8.53,0,0,1,3.45.65,5.26,5.26,0,0,1,2.3,1.82,4.66,4.66,0,0,1,.82,2.76,6.07,6.07,0,0,1-.61,2.7,10.09,10.09,0,0,1-2.34,2.88l-4.07,3.84Z"/><path d="M787.4,173.55v17.68h-4.09v-14.4h-3.53v-3.28Z"/><path d="M1071,183.65a4.39,4.39,0,0,1,.69,2.45,4.63,4.63,0,0,1-.93,2.87,6,6,0,0,1-2.63,1.89,11.71,11.71,0,0,1-7.81,0,5.93,5.93,0,0,1-2.6-1.89,4.63,4.63,0,0,1-.93-2.87,4.32,4.32,0,0,1,.7-2.45,5,5,0,0,1,2-1.72,4.28,4.28,0,0,1-1.52-1.53,4.16,4.16,0,0,1-.53-2.11,4.33,4.33,0,0,1,.86-2.67,5.62,5.62,0,0,1,2.4-1.76,10.5,10.5,0,0,1,7.11,0,5.47,5.47,0,0,1,2.41,1.76,4.27,4.27,0,0,1,.86,2.67,4.06,4.06,0,0,1-.53,2.11,4.11,4.11,0,0,1-1.54,1.53A5,5,0,0,1,1071,183.65Zm-4.34,4.18a2.24,2.24,0,0,0,.89-1.86,2.2,2.2,0,0,0-.89-1.84,3.91,3.91,0,0,0-2.44-.68,3.8,3.8,0,0,0-2.4.68,2.19,2.19,0,0,0-.88,1.84,2.22,2.22,0,0,0,.88,1.87,3.8,3.8,0,0,0,2.4.68A3.91,3.91,0,0,0,1066.62,187.83Zm-4.42-11a2,2,0,0,0-.75,1.63,1.89,1.89,0,0,0,.73,1.59,3.13,3.13,0,0,0,2,.58,3.23,3.23,0,0,0,2-.58,1.89,1.89,0,0,0,.76-1.59,2,2,0,0,0-.76-1.63,3.23,3.23,0,0,0-2-.59A3.09,3.09,0,0,0,1062.2,176.84Z"/><path class="cls-16" d="M759.37,106.69V110H746v-2.65l6.82-6.44a7.35,7.35,0,0,0,1.46-1.78,3.29,3.29,0,0,0,.38-1.48,2,2,0,0,0-.72-1.63,3.34,3.34,0,0,0-2.11-.57,4.89,4.89,0,0,0-2.09.44,4,4,0,0,0-1.57,1.33l-3-1.92a7,7,0,0,1,2.85-2.41,9.6,9.6,0,0,1,4.17-.87,8.6,8.6,0,0,1,3.45.64,5.39,5.39,0,0,1,2.3,1.82,4.73,4.73,0,0,1,.82,2.76,6.11,6.11,0,0,1-.61,2.71,10.43,10.43,0,0,1-2.35,2.88l-4.06,3.83Z"/><path class="cls-16" d="M764.67,109.25A7.4,7.4,0,0,1,762,106.1a12.91,12.91,0,0,1,0-9.82,7.34,7.34,0,0,1,2.69-3.15,7.22,7.22,0,0,1,10.52,3.15,12.91,12.91,0,0,1,0,9.82,7.33,7.33,0,0,1-2.69,3.15,7.64,7.64,0,0,1-7.83,0Zm6.46-3.77a7.9,7.9,0,0,0,.92-4.29,7.9,7.9,0,0,0-.92-4.29,3,3,0,0,0-5.06,0,7.9,7.9,0,0,0-.92,4.29,7.9,7.9,0,0,0,.92,4.29,3,3,0,0,0,5.06,0Z"/><path class="cls-16" d="M791.22,106.69V110H777.86v-2.65l6.82-6.44a7.35,7.35,0,0,0,1.46-1.78,3.29,3.29,0,0,0,.38-1.48,2,2,0,0,0-.72-1.63,3.34,3.34,0,0,0-2.11-.57,5,5,0,0,0-2.1.44A4.06,4.06,0,0,0,780,97.25l-3-1.92a7,7,0,0,1,2.85-2.41,9.54,9.54,0,0,1,4.17-.87,8.6,8.6,0,0,1,3.45.64,5.3,5.3,0,0,1,2.29,1.82,4.67,4.67,0,0,1,.83,2.76A6.25,6.25,0,0,1,790,100a10.43,10.43,0,0,1-2.35,2.88l-4.07,3.83Z"/><path class="cls-16" d="M796.52,109.25a7.4,7.4,0,0,1-2.69-3.15,12.91,12.91,0,0,1,0-9.82,7.34,7.34,0,0,1,2.69-3.15,7.64,7.64,0,0,1,7.83,0A7.34,7.34,0,0,1,807,96.28a12.91,12.91,0,0,1,0,9.82,7.4,7.4,0,0,1-2.69,3.15,7.64,7.64,0,0,1-7.83,0Zm6.45-3.77a7.8,7.8,0,0,0,.93-4.29A7.8,7.8,0,0,0,803,96.9a3,3,0,0,0-5.05,0,7.9,7.9,0,0,0-.92,4.29,7.9,7.9,0,0,0,.92,4.29,3,3,0,0,0,5.05,0Z"/><path class="cls-16" d="M1050.07,106.69V110h-13.36v-2.65l6.82-6.44a7.44,7.44,0,0,0,1.47-1.78,3.29,3.29,0,0,0,.38-1.48,2,2,0,0,0-.72-1.63,3.36,3.36,0,0,0-2.11-.57,4.9,4.9,0,0,0-2.1.44,4.17,4.17,0,0,0-1.57,1.33l-3-1.92a7,7,0,0,1,2.86-2.41,9.54,9.54,0,0,1,4.17-.87,8.52,8.52,0,0,1,3.44.64,5.33,5.33,0,0,1,2.3,1.82,4.66,4.66,0,0,1,.82,2.76,6.24,6.24,0,0,1-.6,2.71,10.62,10.62,0,0,1-2.35,2.88l-4.07,3.83Z"/><path class="cls-16" d="M1055.38,109.25a7.26,7.26,0,0,1-2.69-3.15,12.79,12.79,0,0,1,0-9.82,7.38,7.38,0,0,1,10.52-3.15,7.34,7.34,0,0,1,2.69,3.15,12.91,12.91,0,0,1,0,9.82,7.4,7.4,0,0,1-2.69,3.15,7.64,7.64,0,0,1-7.83,0Zm6.45-3.77a7.9,7.9,0,0,0,.92-4.29,7.9,7.9,0,0,0-.92-4.29,3,3,0,0,0-5,0,7.81,7.81,0,0,0-.92,4.29,7.81,7.81,0,0,0,.92,4.29,3,3,0,0,0,5,0Z"/><path class="cls-16" d="M1081.92,106.69V110h-13.36v-2.65l6.82-6.44a7.35,7.35,0,0,0,1.46-1.78,3.16,3.16,0,0,0,.38-1.48,2,2,0,0,0-.72-1.63,3.34,3.34,0,0,0-2.11-.57,4.89,4.89,0,0,0-2.09.44,4.09,4.09,0,0,0-1.57,1.33l-3-1.92a6.93,6.93,0,0,1,2.86-2.41,9.52,9.52,0,0,1,4.16-.87,8.53,8.53,0,0,1,3.45.64,5.33,5.33,0,0,1,2.3,1.82,4.66,4.66,0,0,1,.82,2.76,6.11,6.11,0,0,1-.61,2.71,10.36,10.36,0,0,1-2.34,2.88l-4.07,3.83Z"/><path class="cls-16" d="M1090.43,92.35V110h-4.09V95.63h-3.53V92.35Z"/><path d="M785.57,255h-2.88v3.72h-4V255h-9.52v-2.75l8.34-11.21h4.29l-7.73,10.63h4.75v-3.31h3.86v3.31h2.88Z"/><path d="M1069.17,243q2.08,2.25,2.09,6.5a11,11,0,0,1-1.12,5.15,7.68,7.68,0,0,1-3.17,3.26,9.74,9.74,0,0,1-4.72,1.11,10.88,10.88,0,0,1-2.71-.32,7.17,7.17,0,0,1-2.19-.89l1.51-3a5.72,5.72,0,0,0,3.31.89,4.79,4.79,0,0,0,3.56-1.33,5.54,5.54,0,0,0,1.42-3.83,5.92,5.92,0,0,1-4.4,1.6,6.83,6.83,0,0,1-3.08-.69,5.36,5.36,0,0,1-2.2-1.93,5.2,5.2,0,0,1-.81-2.89,5.53,5.53,0,0,1,.89-3.11,5.78,5.78,0,0,1,2.41-2.06,7.87,7.87,0,0,1,3.4-.71A7.53,7.53,0,0,1,1069.17,243Zm-3.32,5.32a2.59,2.59,0,0,0,0-3.8,3.32,3.32,0,0,0-2.26-.73,3.13,3.13,0,0,0-2.13.71,2.39,2.39,0,0,0-.82,1.92,2.42,2.42,0,0,0,.82,1.93,3.17,3.17,0,0,0,2.18.72A3.2,3.2,0,0,0,1065.85,248.35Z"/><path d="M780,304.46v17.68h-4.09V307.75h-3.53v-3.29Z"/><path d="M1069.17,306.42q2.08,2.26,2.09,6.51a11,11,0,0,1-1.12,5.15,7.68,7.68,0,0,1-3.17,3.26,9.74,9.74,0,0,1-4.72,1.11,11.37,11.37,0,0,1-2.71-.32,7.18,7.18,0,0,1-2.19-.9l1.51-3a5.72,5.72,0,0,0,3.31.88,4.78,4.78,0,0,0,3.56-1.32,5.56,5.56,0,0,0,1.42-3.83,6,6,0,0,1-4.4,1.59,7,7,0,0,1-3.08-.68,5.36,5.36,0,0,1-2.2-1.93,5.22,5.22,0,0,1-.81-2.89,5.51,5.51,0,0,1,.89-3.11,5.78,5.78,0,0,1,2.41-2.06,7.88,7.88,0,0,1,3.4-.72A7.57,7.57,0,0,1,1069.17,306.42Zm-3.32,5.33a2.44,2.44,0,0,0,.84-1.91,2.41,2.41,0,0,0-.82-1.89,3.27,3.27,0,0,0-2.26-.73,3.13,3.13,0,0,0-2.13.7,2.42,2.42,0,0,0-.82,1.92,2.45,2.45,0,0,0,.82,1.94,3.17,3.17,0,0,0,2.18.72A3.2,3.2,0,0,0,1065.85,311.75Z"/><rect class="cls-15" x="285.15" y="150.03" width="922.61" height="65.75"/><rect class="cls-15" x="285.15" y="215.77" width="922.61" height="65.75"/><rect class="cls-15" x="285.15" y="281.52" width="922.61" height="65.75"/><rect class="cls-15" x="920.65" y="48.62" width="287.11" height="298.64"/></g></g></svg>