<svg id="Layer_1" data-name="Layer 1" xmlns="http://www.w3.org/2000/svg" viewBox="0 0 654 250"><defs><style>.cls-1{fill:#f26e25;}.cls-2{fill:none;stroke:#f26e25;stroke-miterlimit:10;stroke-width:2.5px;}.cls-3{opacity:0.15;}.cls-4{fill:#fff;}</style></defs><path class="cls-1" d="M395.48,56.3a10.66,10.66,0,0,1,4.34,3.82,10.32,10.32,0,0,1,1.59,5.71A10.93,10.93,0,0,1,399.67,72,11.41,11.41,0,0,1,394.9,76a15.51,15.51,0,0,1-6.71,1.42q-7.33,0-11.47-4.48t-4.14-12.83A21.54,21.54,0,0,1,374.82,50a15.38,15.38,0,0,1,6.26-6.44,19.15,19.15,0,0,1,9.31-2.19,22.41,22.41,0,0,1,5.36.62,14.68,14.68,0,0,1,4.37,1.77l-3,5.94a11.41,11.41,0,0,0-6.53-1.75,9.52,9.52,0,0,0-7,2.6q-2.6,2.59-2.79,7.53Q383.85,55,389.39,55A13.61,13.61,0,0,1,395.48,56.3ZM392,70a4.74,4.74,0,0,0,1.62-3.79A4.83,4.83,0,0,0,392,62.41a7.21,7.21,0,0,0-8.66.05,5.07,5.07,0,0,0-.05,7.51,6.55,6.55,0,0,0,4.49,1.45A6.25,6.25,0,0,0,392,70Z"/><path class="cls-1" d="M432.22,61.89a8.68,8.68,0,0,1,1.37,4.84,9.07,9.07,0,0,1-1.85,5.66,11.81,11.81,0,0,1-5.18,3.74,23.26,23.26,0,0,1-15.45,0A11.59,11.59,0,0,1,406,72.39a9.11,9.11,0,0,1-1.82-5.66,8.6,8.6,0,0,1,1.37-4.84,9.88,9.88,0,0,1,3.91-3.39,8.64,8.64,0,0,1-3-3,8.18,8.18,0,0,1-1.05-4.17A8.51,8.51,0,0,1,407.1,46a10.76,10.76,0,0,1,4.74-3.47,18.5,18.5,0,0,1,7-1.22,18.86,18.86,0,0,1,7.06,1.22A10.8,10.8,0,0,1,430.65,46a8.51,8.51,0,0,1,1.69,5.28,8.18,8.18,0,0,1-1,4.17,8.38,8.38,0,0,1-3,3A9.86,9.86,0,0,1,432.22,61.89Zm-8.58,8.26a4.42,4.42,0,0,0,1.77-3.67,4.34,4.34,0,0,0-1.77-3.64,7.77,7.77,0,0,0-4.82-1.35,7.58,7.58,0,0,0-4.74,1.35,4.36,4.36,0,0,0-1.74,3.64,4.42,4.42,0,0,0,1.74,3.69,7.58,7.58,0,0,0,4.74,1.35A7.71,7.71,0,0,0,423.64,70.15Zm-8.73-21.7a3.89,3.89,0,0,0-1.48,3.21,3.83,3.83,0,0,0,1.45,3.15A6.22,6.22,0,0,0,418.82,56a6.41,6.41,0,0,0,4-1.14,3.76,3.76,0,0,0,1.5-3.15,3.85,3.85,0,0,0-1.5-3.21,6.24,6.24,0,0,0-4-1.18A6,6,0,0,0,414.91,48.45Z"/><path class="cls-1" d="M460.63,59.57a9.41,9.41,0,0,1,2.44,6.61,10.37,10.37,0,0,1-1.6,5.61,11,11,0,0,1-4.86,4.12,18.67,18.67,0,0,1-8,1.54,27.3,27.3,0,0,1-7.25-1,18.77,18.77,0,0,1-6.07-2.77l3.15-6.18A15.24,15.24,0,0,0,443,69.85a17.79,17.79,0,0,0,5.36.82,8.51,8.51,0,0,0,4.79-1.17,3.76,3.76,0,0,0,1.75-3.32q0-4.29-6.54-4.29h-3.69V56.55l7.19-8.13H437V41.94h24.44v5.23l-7.88,9A11.78,11.78,0,0,1,460.63,59.57Z"/><polygon class="cls-2" points="10.26 125 124.92 239.67 529.66 239.67 644.33 125 529.66 10.33 124.92 10.33 10.26 125"/><path class="cls-1" d="M390.34,106.46a6.41,6.41,0,0,1-2.5-2.37,6.9,6.9,0,0,1,0-6.85,6.34,6.34,0,0,1,2.5-2.37,7.43,7.43,0,0,1,3.58-.86,7.53,7.53,0,0,1,3,.59,6,6,0,0,1,2.27,1.69l-1.91,1.76a4.12,4.12,0,0,0-3.24-1.5,4.31,4.31,0,0,0-2.13.52,3.79,3.79,0,0,0-1.46,1.46,4.64,4.64,0,0,0,0,4.27,3.79,3.79,0,0,0,1.46,1.46,4.31,4.31,0,0,0,2.13.52,4.11,4.11,0,0,0,3.24-1.52l1.91,1.76a5.87,5.87,0,0,1-2.28,1.71,7.62,7.62,0,0,1-3,.59A7.41,7.41,0,0,1,390.34,106.46Z"/><path class="cls-1" d="M409.43,104.34h-6l-1.14,2.76h-3.05L405,94.23h2.94l5.75,12.87h-3.12Zm-.94-2.26-2-4.93-2,4.93Z"/><path class="cls-1" d="M416.31,106.9a6.87,6.87,0,0,1-2.29-1.07l1-2.24a6.84,6.84,0,0,0,2,1,7.25,7.25,0,0,0,2.28.37,3.63,3.63,0,0,0,1.87-.38,1.12,1.12,0,0,0,.61-1,.94.94,0,0,0-.36-.76,2.51,2.51,0,0,0-.92-.49c-.37-.12-.88-.26-1.51-.4a22.88,22.88,0,0,1-2.41-.7,4,4,0,0,1-1.61-1.12,3,3,0,0,1-.67-2.06,3.52,3.52,0,0,1,.61-2,4.08,4.08,0,0,1,1.82-1.45,7.58,7.58,0,0,1,3-.53,10.25,10.25,0,0,1,2.41.29,7.24,7.24,0,0,1,2.06.85l-.92,2.26a7.23,7.23,0,0,0-3.57-1,3.3,3.3,0,0,0-1.84.4,1.24,1.24,0,0,0-.6,1.07,1,1,0,0,0,.69,1,10.51,10.51,0,0,0,2.1.64,19.4,19.4,0,0,1,2.41.7,4,4,0,0,1,1.61,1.1,3,3,0,0,1,.67,2,3.53,3.53,0,0,1-.62,2,4.05,4.05,0,0,1-1.84,1.44,7.48,7.48,0,0,1-3,.54A10.36,10.36,0,0,1,416.31,106.9Z"/><path class="cls-1" d="M436.72,104.71v2.39h-10V94.23h9.72v2.39h-6.76v2.79h6v2.32h-6v3Z"/><path class="cls-1" d="M440.37,106.9a6.87,6.87,0,0,1-2.29-1.07l1-2.24a6.84,6.84,0,0,0,2,1,7.25,7.25,0,0,0,2.28.37,3.63,3.63,0,0,0,1.87-.38,1.12,1.12,0,0,0,.61-1,.94.94,0,0,0-.36-.76,2.6,2.6,0,0,0-.92-.49c-.37-.12-.88-.26-1.52-.4a22.61,22.61,0,0,1-2.4-.7,4,4,0,0,1-1.61-1.12,3,3,0,0,1-.67-2.06,3.58,3.58,0,0,1,.6-2,4.16,4.16,0,0,1,1.83-1.45,7.58,7.58,0,0,1,3-.53,10.25,10.25,0,0,1,2.41.29,7.24,7.24,0,0,1,2.06.85l-.92,2.26a7.23,7.23,0,0,0-3.57-1,3.37,3.37,0,0,0-1.85.4,1.25,1.25,0,0,0-.59,1.07,1,1,0,0,0,.69,1,10.51,10.51,0,0,0,2.1.64,19.4,19.4,0,0,1,2.41.7,4,4,0,0,1,1.61,1.1,3,3,0,0,1,.67,2,3.53,3.53,0,0,1-.62,2,4,4,0,0,1-1.85,1.44,7.43,7.43,0,0,1-3,.54A10.36,10.36,0,0,1,440.37,106.9Z"/><path class="cls-1" d="M266,128.51a6.56,6.56,0,0,1,0-11.58,8,8,0,0,1,7.21,0,6.56,6.56,0,0,1,0,11.58,8,8,0,0,1-7.21,0Zm5.67-2.2a3.74,3.74,0,0,0,1.44-1.46,4.62,4.62,0,0,0,0-4.26,3.74,3.74,0,0,0-1.44-1.46,4.27,4.27,0,0,0-4.12,0,3.74,3.74,0,0,0-1.44,1.46,4.55,4.55,0,0,0,0,4.26,3.74,3.74,0,0,0,1.44,1.46,4.27,4.27,0,0,0,4.12,0Z"/><path class="cls-1" d="M281.85,118.68v3.4h5.95v2.39h-5.95v4.68h-3V116.29h9.72v2.39Z"/><path class="cls-1" d="M307.62,116.29v12.86h-3v-5.27h-5.85v5.27h-3V116.29h3v5.07h5.85v-5.07Z"/><path class="cls-1" d="M312.09,127.85a5.89,5.89,0,0,1-1.53-4.36v-7.2h3v7.09c0,2.3,1,3.46,2.87,3.46a2.68,2.68,0,0,0,2.13-.84,3.9,3.9,0,0,0,.74-2.62v-7.09h2.94v7.2a6.09,6.09,0,0,1-10.12,4.36Z"/><path class="cls-1" d="M336.86,129.15l0-7.72-3.79,6.36h-1.34l-3.77-6.19v7.55h-2.79V116.29h2.46l4.82,8,4.74-8h2.44l0,12.86Z"/><path class="cls-1" d="M351.17,126.4h-6l-1.14,2.75H341l5.74-12.86h2.94l5.75,12.86h-3.13Zm-.93-2.27-2-4.92-2,4.92Z"/><path class="cls-1" d="M368.58,116.29v12.86h-2.44l-6.42-7.81v7.81h-2.94V116.29h2.46l6.4,7.81v-7.81Z"/><path class="cls-1" d="M371.25,121.49h5.2v2.3h-5.2Z"/><path class="cls-1" d="M397.69,116.29l-4.21,12.86h-3.19l-2.83-8.71-2.93,8.71h-3.18l-4.22-12.86h3.08l2.91,9,3-9h2.76l2.94,9.11,3-9.11Z"/><path class="cls-1" d="M399.35,116.29h3v12.86h-3Z"/><path class="cls-1" d="M405.38,116.29h3v10.44h6.45v2.42h-9.42Z"/><path class="cls-1" d="M416.48,116.29h5.84a8.09,8.09,0,0,1,3.7.8,5.88,5.88,0,0,1,2.5,2.25,6.8,6.8,0,0,1,0,6.76,5.88,5.88,0,0,1-2.5,2.25,8.09,8.09,0,0,1-3.7.8h-5.84Zm5.69,10.42a4.3,4.3,0,0,0,3.08-1.08,4.26,4.26,0,0,0,0-5.82,4.3,4.3,0,0,0-3.08-1.08h-2.72v8Z"/><path class="cls-1" d="M431.66,116.29h3v10.44h6.45v2.42h-9.43Z"/><path class="cls-1" d="M442.76,116.29h3v12.86h-3Z"/><path class="cls-1" d="M451.76,118.68v3.4h6v2.39h-6v4.68h-3V116.29h9.72v2.39Z"/><path class="cls-1" d="M470.49,126.76v2.39h-10V116.29h9.72v2.39h-6.76v2.79h6v2.32h-6v3Z"/><path class="cls-1" d="M480.67,128.52a6.34,6.34,0,0,1-2.5-2.37,6.92,6.92,0,0,1,0-6.86,6.34,6.34,0,0,1,2.5-2.37,7.39,7.39,0,0,1,3.57-.85,7.53,7.53,0,0,1,3,.58,6.18,6.18,0,0,1,2.27,1.69l-1.91,1.77a4.1,4.1,0,0,0-3.23-1.51,4.26,4.26,0,0,0-2.13.53,3.69,3.69,0,0,0-1.47,1.46,4.62,4.62,0,0,0,0,4.26,3.69,3.69,0,0,0,1.47,1.46,4.26,4.26,0,0,0,2.13.53,4.09,4.09,0,0,0,3.23-1.53l1.91,1.76a5.87,5.87,0,0,1-2.28,1.71,7.94,7.94,0,0,1-6.58-.26Z"/><path class="cls-1" d="M493.88,128.51a6.49,6.49,0,0,1-2.52-2.38,6.84,6.84,0,0,1,0-6.82,6.49,6.49,0,0,1,2.52-2.38,7.46,7.46,0,0,1,3.61-.86,7.37,7.37,0,0,1,3.6.86,6.56,6.56,0,0,1,0,11.58,7.48,7.48,0,0,1-3.6.86A7.58,7.58,0,0,1,493.88,128.51Zm5.67-2.2a3.74,3.74,0,0,0,1.44-1.46,4.55,4.55,0,0,0,0-4.26,3.74,3.74,0,0,0-1.44-1.46,4.27,4.27,0,0,0-4.12,0,3.74,3.74,0,0,0-1.44,1.46,4.62,4.62,0,0,0,0,4.26,3.74,3.74,0,0,0,1.44,1.46,4.27,4.27,0,0,0,4.12,0Z"/><path class="cls-1" d="M518.57,116.29v12.86h-2.44l-6.42-7.81v7.81h-2.94V116.29h2.47l6.39,7.81v-7.81Z"/><path class="cls-1" d="M524.6,118.68v3.4h6v2.39h-6v4.68h-3V116.29h9.73v2.39Z"/><path class="cls-1" d="M533.37,116.29h3v10.44h6.45v2.42h-9.43Z"/><path class="cls-1" d="M544.47,116.29h3v12.86h-3Z"/><path class="cls-1" d="M553.1,128.52a6.41,6.41,0,0,1-2.5-2.37,6.92,6.92,0,0,1,0-6.86,6.41,6.41,0,0,1,2.5-2.37,7.41,7.41,0,0,1,3.57-.85,7.55,7.55,0,0,1,3,.58,6.26,6.26,0,0,1,2.27,1.69l-1.91,1.77a4.12,4.12,0,0,0-3.24-1.51,4.26,4.26,0,0,0-2.13.53,3.66,3.66,0,0,0-1.46,1.46,4.55,4.55,0,0,0,0,4.26,3.66,3.66,0,0,0,1.46,1.46,4.26,4.26,0,0,0,2.13.53,4.1,4.1,0,0,0,3.24-1.53l1.91,1.76a6,6,0,0,1-2.28,1.71,7.46,7.46,0,0,1-3,.59A7.36,7.36,0,0,1,553.1,128.52Z"/><path class="cls-1" d="M566.51,118.71h-4.12v-2.42H573.6v2.42h-4.12v10.44h-3Z"/><path d="M360,162.62l1.74-6.89h1.54l-2.63,9h-1.25l-2.19-6.84-2.13,6.84h-1.25l-2.62-9h1.54l1.77,6.75,2.1-6.75h1.24Z"/><path d="M368.63,164.91a4,4,0,0,1-3-1.2,4.5,4.5,0,0,1-1.15-3.22v-.28a5.43,5.43,0,0,1,.52-2.4,4,4,0,0,1,1.43-1.65,3.58,3.58,0,0,1,2-.6,3.38,3.38,0,0,1,2.73,1.16,5,5,0,0,1,1,3.32v.64H366a3.2,3.2,0,0,0,.77,2.15,2.46,2.46,0,0,0,1.9.83,2.66,2.66,0,0,0,1.38-.34,3.47,3.47,0,0,0,1-.88l.94.73A3.79,3.79,0,0,1,368.63,164.91Zm-.19-8.08a2.06,2.06,0,0,0-1.57.68,3.31,3.31,0,0,0-.78,1.9h4.51v-.11a2.88,2.88,0,0,0-.63-1.82A1.94,1.94,0,0,0,368.44,156.83Z"/><path d="M378.29,157.11a4.62,4.62,0,0,0-.76-.05,2,2,0,0,0-2.06,1.29v6.4h-1.54v-9h1.5l0,1a2.42,2.42,0,0,1,2.15-1.21,1.58,1.58,0,0,1,.69.12Z"/><path d="M383.29,164.91a4,4,0,0,1-3-1.2,4.5,4.5,0,0,1-1.15-3.22v-.28a5.43,5.43,0,0,1,.51-2.4,4.06,4.06,0,0,1,1.44-1.65,3.57,3.57,0,0,1,2-.6,3.39,3.39,0,0,1,2.74,1.16,5,5,0,0,1,1,3.32v.64h-6.11a3.25,3.25,0,0,0,.78,2.15,2.46,2.46,0,0,0,1.9.83,2.71,2.71,0,0,0,1.38-.34,3.31,3.31,0,0,0,1-.88l.95.73A3.79,3.79,0,0,1,383.29,164.91Zm-.2-8.08a2.05,2.05,0,0,0-1.56.68,3.25,3.25,0,0,0-.79,1.9h4.52v-.11a2.88,2.88,0,0,0-.63-1.82A2,2,0,0,0,383.09,156.83Z"/><path d="M394.26,155.73l0,1a3.32,3.32,0,0,1,2.68-1.17,2.58,2.58,0,0,1,2.57,1.45,3.49,3.49,0,0,1,1.17-1,3.54,3.54,0,0,1,1.71-.4c2,0,3,1.05,3,3.15v6H403.9V158.8a2,2,0,0,0-.44-1.45,1.93,1.93,0,0,0-1.48-.48,2.05,2.05,0,0,0-1.43.51,2.15,2.15,0,0,0-.66,1.38v6h-1.55v-5.91a1.72,1.72,0,0,0-1.92-2,2.08,2.08,0,0,0-2.08,1.29v6.59H392.8v-9Z"/><path d="M413.34,164.75a3.07,3.07,0,0,1-.22-.95,3.45,3.45,0,0,1-2.57,1.11,3.2,3.2,0,0,1-2.19-.75,2.46,2.46,0,0,1-.85-1.91,2.56,2.56,0,0,1,1.07-2.19,5.06,5.06,0,0,1,3-.78h1.5v-.71a1.74,1.74,0,0,0-.48-1.29,1.94,1.94,0,0,0-1.43-.47,2.24,2.24,0,0,0-1.38.41,1.25,1.25,0,0,0-.56,1h-1.55a2.12,2.12,0,0,1,.48-1.3,3.29,3.29,0,0,1,1.3-1,4.47,4.47,0,0,1,1.81-.37,3.56,3.56,0,0,1,2.44.78,2.85,2.85,0,0,1,.92,2.15v4.15a5.08,5.08,0,0,0,.31,2v.14Zm-2.56-1.18a2.69,2.69,0,0,0,1.37-.37,2.21,2.21,0,0,0,.94-1v-1.85h-1.2c-1.89,0-2.84.55-2.84,1.66a1.38,1.38,0,0,0,.49,1.13A1.8,1.8,0,0,0,410.78,163.57Z"/><path d="M418.51,155.73l.05,1.13a3.31,3.31,0,0,1,2.7-1.3q2.87,0,2.88,3.23v6H422.6v-6a2.05,2.05,0,0,0-.44-1.44,1.82,1.82,0,0,0-1.37-.47,2.23,2.23,0,0,0-1.31.4,2.75,2.75,0,0,0-.89,1v6.43h-1.54v-9Z"/><path d="M432,164.75a3.07,3.07,0,0,1-.22-.95,3.45,3.45,0,0,1-2.57,1.11,3.2,3.2,0,0,1-2.19-.75,2.46,2.46,0,0,1-.85-1.91,2.56,2.56,0,0,1,1.07-2.19,5.06,5.06,0,0,1,3-.78h1.5v-.71a1.74,1.74,0,0,0-.48-1.29,1.93,1.93,0,0,0-1.42-.47,2.25,2.25,0,0,0-1.39.41,1.25,1.25,0,0,0-.56,1h-1.55a2.12,2.12,0,0,1,.48-1.3,3.29,3.29,0,0,1,1.3-1,4.47,4.47,0,0,1,1.81-.37,3.56,3.56,0,0,1,2.44.78,2.85,2.85,0,0,1,.92,2.15v4.15a5.08,5.08,0,0,0,.31,2v.14Zm-2.56-1.18a2.69,2.69,0,0,0,1.37-.37,2.21,2.21,0,0,0,.94-1v-1.85h-1.2c-1.89,0-2.84.55-2.84,1.66a1.38,1.38,0,0,0,.49,1.13A1.8,1.8,0,0,0,429.48,163.57Z"/><path d="M435.39,160.16a5.3,5.3,0,0,1,1-3.35,3.36,3.36,0,0,1,5.16-.08l.07-1H443v8.8a3.63,3.63,0,0,1-1,2.76,3.83,3.83,0,0,1-2.78,1,4.61,4.61,0,0,1-1.91-.42,3.36,3.36,0,0,1-1.43-1.14l.8-.93a3,3,0,0,0,2.43,1.23,2.36,2.36,0,0,0,1.75-.63,2.44,2.44,0,0,0,.63-1.79v-.77a3.16,3.16,0,0,1-2.52,1.06,3.09,3.09,0,0,1-2.57-1.27A5.6,5.6,0,0,1,435.39,160.16Zm1.54.18a4,4,0,0,0,.63,2.39,2,2,0,0,0,1.75.88,2.26,2.26,0,0,0,2.14-1.33v-4.12a2.28,2.28,0,0,0-2.12-1.29,2,2,0,0,0-1.76.88A4.39,4.39,0,0,0,436.93,160.34Z"/><path d="M449.07,164.91a3.93,3.93,0,0,1-3-1.2,4.46,4.46,0,0,1-1.15-3.22v-.28a5.43,5.43,0,0,1,.51-2.4,4,4,0,0,1,1.43-1.65,3.61,3.61,0,0,1,2-.6,3.38,3.38,0,0,1,2.73,1.16,5,5,0,0,1,1,3.32v.64h-6.11a3.15,3.15,0,0,0,.78,2.15,2.43,2.43,0,0,0,1.89.83,2.72,2.72,0,0,0,1.39-.34,3.57,3.57,0,0,0,1-.88l.94.73A3.79,3.79,0,0,1,449.07,164.91Zm-.19-8.08a2.07,2.07,0,0,0-1.57.68,3.31,3.31,0,0,0-.78,1.9H451v-.11a2.88,2.88,0,0,0-.63-1.82A1.94,1.94,0,0,0,448.88,156.83Z"/><path d="M454,160.16a5.24,5.24,0,0,1,1-3.33,3.33,3.33,0,0,1,5.08-.18V152h1.54v12.8h-1.42l-.07-1a3.13,3.13,0,0,1-2.58,1.13,3.07,3.07,0,0,1-2.55-1.28,5.34,5.34,0,0,1-1-3.35Zm1.54.18a4,4,0,0,0,.64,2.4,2,2,0,0,0,1.75.87,2.24,2.24,0,0,0,2.14-1.32v-4.14a2.27,2.27,0,0,0-2.13-1.28,2,2,0,0,0-1.76.88A4.39,4.39,0,0,0,455.53,160.34Z"/><path d="M475.85,160.34a5.32,5.32,0,0,1-1,3.32,3,3,0,0,1-2.55,1.25,3.14,3.14,0,0,1-2.64-1.2l-.07,1h-1.42V152h1.54v4.77a3.13,3.13,0,0,1,2.58-1.16,3,3,0,0,1,2.57,1.25,5.47,5.47,0,0,1,.94,3.4Zm-1.54-.18a4.12,4.12,0,0,0-.61-2.43,2,2,0,0,0-1.75-.86,2.26,2.26,0,0,0-2.19,1.42v3.9a2.34,2.34,0,0,0,2.21,1.42,2,2,0,0,0,1.72-.86A4.48,4.48,0,0,0,474.31,160.16Z"/><path d="M480.65,162.49l2.1-6.76h1.65l-3.62,10.41c-.56,1.5-1.46,2.25-2.68,2.25l-.29,0-.57-.1V167l.41,0a2.06,2.06,0,0,0,1.22-.32,2.32,2.32,0,0,0,.72-1.16l.35-.91-3.22-8.92h1.68Z"/><path d="M316.71,174v2.18h1.68v1.19h-1.68V183a1.24,1.24,0,0,0,.23.81.94.94,0,0,0,.76.28,4.47,4.47,0,0,0,.74-.1v1.24a4.54,4.54,0,0,1-1.19.16,1.91,1.91,0,0,1-1.56-.62,2.7,2.7,0,0,1-.52-1.78V177.4h-1.64v-1.19h1.64V174Z"/><path d="M321.74,177.3A3.26,3.26,0,0,1,324.4,176q2.87,0,2.89,3.23v6h-1.55v-6a2.05,2.05,0,0,0-.44-1.44,1.79,1.79,0,0,0-1.36-.47,2.29,2.29,0,0,0-1.32.4,2.73,2.73,0,0,0-.88,1.05v6.43h-1.55v-12.8h1.55Z"/><path d="M333.34,185.39a4,4,0,0,1-3-1.2A4.5,4.5,0,0,1,329.2,181v-.28a5.43,5.43,0,0,1,.51-2.4,4.06,4.06,0,0,1,1.44-1.65,3.57,3.57,0,0,1,2-.6,3.39,3.39,0,0,1,2.74,1.16,5,5,0,0,1,1,3.32v.64h-6.11a3.25,3.25,0,0,0,.78,2.15,2.46,2.46,0,0,0,1.9.83,2.71,2.71,0,0,0,1.38-.34,3.31,3.31,0,0,0,1-.88l.95.73A3.79,3.79,0,0,1,333.34,185.39Zm-.2-8.08a2.05,2.05,0,0,0-1.56.68,3.25,3.25,0,0,0-.79,1.9h4.52v-.11a2.88,2.88,0,0,0-.63-1.82A2,2,0,0,0,333.14,177.31Z"/><path d="M345.17,173.09l4,9.9,4-9.9h2.08v12.14h-1.6V180.5l.15-5.1-4,9.83h-1.22l-4-9.8.16,5.07v4.73h-1.6V173.09Z"/><path d="M357.77,173.82a.92.92,0,0,1,.23-.63,1,1,0,0,1,1.36,0,.88.88,0,0,1,.23.63.84.84,0,0,1-.23.62,1,1,0,0,1-1.36,0A.88.88,0,0,1,357.77,173.82Zm1.67,11.41h-1.55v-9h1.55Z"/><path d="M363.36,176.21l.05,1.13a3.31,3.31,0,0,1,2.7-1.3q2.86,0,2.88,3.23v6h-1.54v-6a2.05,2.05,0,0,0-.44-1.44,1.8,1.8,0,0,0-1.37-.47,2.26,2.26,0,0,0-1.31.4,2.75,2.75,0,0,0-.89,1.05v6.43H361.9v-9Z"/><path d="M371.33,173.82a.88.88,0,0,1,.23-.63.83.83,0,0,1,.68-.26.85.85,0,0,1,.68.26.92.92,0,0,1,.23.63.83.83,0,0,1-.91.87.86.86,0,0,1-.68-.25A.84.84,0,0,1,371.33,173.82ZM373,185.23h-1.54v-9H373Z"/><path d="M380.71,182.84a1.17,1.17,0,0,0-.47-1,4.59,4.59,0,0,0-1.64-.59,8.13,8.13,0,0,1-1.86-.6,2.63,2.63,0,0,1-1-.83,2,2,0,0,1-.33-1.15,2.36,2.36,0,0,1,.94-1.88,3.69,3.69,0,0,1,2.4-.77,3.78,3.78,0,0,1,2.49.8,2.51,2.51,0,0,1,.95,2h-1.55a1.38,1.38,0,0,0-.54-1.09,2,2,0,0,0-1.35-.46,2.09,2.09,0,0,0-1.32.37,1.13,1.13,0,0,0-.47,1,.92.92,0,0,0,.44.84A5.24,5.24,0,0,0,379,180a8,8,0,0,1,1.87.62,2.63,2.63,0,0,1,1.07.86,2.1,2.1,0,0,1,.34,1.23,2.3,2.3,0,0,1-1,1.93,4,4,0,0,1-2.51.73,4.51,4.51,0,0,1-1.92-.38,3.13,3.13,0,0,1-1.3-1.07,2.53,2.53,0,0,1-.47-1.49h1.54a1.58,1.58,0,0,0,.62,1.23,2.4,2.4,0,0,0,1.53.46,2.44,2.44,0,0,0,1.4-.36A1.1,1.1,0,0,0,380.71,182.84Z"/><path d="M386.35,174v2.18H388v1.19h-1.69V183a1.24,1.24,0,0,0,.23.81.94.94,0,0,0,.76.28,4.34,4.34,0,0,0,.74-.1v1.24a4.54,4.54,0,0,1-1.19.16,1.9,1.9,0,0,1-1.55-.62,2.7,2.7,0,0,1-.53-1.78V177.4h-1.64v-1.19h1.64V174Z"/><path d="M394.19,177.59a4.43,4.43,0,0,0-.75-.05,2,2,0,0,0-2.06,1.29v6.4h-1.54v-9h1.5l0,1a2.42,2.42,0,0,1,2.15-1.21,1.5,1.5,0,0,1,.68.12Z"/><path d="M398.71,183l2.1-6.76h1.65l-3.62,10.41c-.57,1.5-1.46,2.25-2.68,2.25l-.29,0-.58-.1v-1.25l.42,0a2.06,2.06,0,0,0,1.22-.32,2.32,2.32,0,0,0,.72-1.16l.34-.91-3.21-8.92h1.68Z"/><path d="M407.65,180.64a5.45,5.45,0,0,1,.52-2.39,3.9,3.9,0,0,1,1.45-1.63,4,4,0,0,1,2.12-.58,3.79,3.79,0,0,1,3,1.28,4.9,4.9,0,0,1,1.14,3.39v.11a5.45,5.45,0,0,1-.5,2.36,3.83,3.83,0,0,1-1.45,1.63,4,4,0,0,1-2.15.58,3.79,3.79,0,0,1-3-1.27,4.89,4.89,0,0,1-1.14-3.38Zm1.55.18a3.83,3.83,0,0,0,.7,2.41,2.35,2.35,0,0,0,3.73,0,4.2,4.2,0,0,0,.69-2.57,3.88,3.88,0,0,0-.71-2.41,2.24,2.24,0,0,0-1.87-.92,2.21,2.21,0,0,0-1.84.91A4.21,4.21,0,0,0,409.2,180.82Z"/><path d="M418.55,185.23V177.4h-1.42v-1.19h1.42v-.92a3.08,3.08,0,0,1,.78-2.25,2.93,2.93,0,0,1,2.19-.79,4.29,4.29,0,0,1,1.06.14l-.09,1.25a4.33,4.33,0,0,0-.83-.08,1.51,1.51,0,0,0-1.16.44,1.78,1.78,0,0,0-.41,1.26v1H422v1.19h-1.93v7.83Z"/><path d="M435,179.62h-5.25v4.3h6.1v1.31h-7.71V173.09h7.63v1.31h-6v3.91H435Z"/><path d="M439.1,176.21l0,1.13a3.31,3.31,0,0,1,2.7-1.3q2.86,0,2.89,3.23v6h-1.55v-6a2.05,2.05,0,0,0-.44-1.44,1.79,1.79,0,0,0-1.36-.47,2.29,2.29,0,0,0-1.32.4,2.84,2.84,0,0,0-.89,1.05v6.43h-1.54v-9Z"/><path d="M450,183.14l2.23-6.93h1.57l-3.23,9h-1.17l-3.27-9h1.57Z"/><path d="M455.34,173.82a.91.91,0,0,1,.22-.63.85.85,0,0,1,.68-.26.87.87,0,0,1,.69.26.92.92,0,0,1,.23.63.88.88,0,0,1-.23.62.9.9,0,0,1-.69.25.81.81,0,0,1-.9-.87ZM457,185.23h-1.54v-9H457Z"/><path d="M463.83,177.59a4.62,4.62,0,0,0-.76-.05,2,2,0,0,0-2.06,1.29v6.4h-1.54v-9H461l0,1a2.43,2.43,0,0,1,2.15-1.21,1.58,1.58,0,0,1,.69.12Z"/><path d="M464.67,180.64a5.31,5.31,0,0,1,.52-2.39,3.9,3.9,0,0,1,1.45-1.63,4,4,0,0,1,2.12-.58,3.81,3.81,0,0,1,3,1.28,4.9,4.9,0,0,1,1.14,3.39v.11a5.31,5.31,0,0,1-.51,2.36,3.75,3.75,0,0,1-1.44,1.63,4,4,0,0,1-2.15.58,3.78,3.78,0,0,1-3-1.27,4.89,4.89,0,0,1-1.14-3.38Zm1.55.18a3.89,3.89,0,0,0,.69,2.41,2.26,2.26,0,0,0,1.87.91,2.2,2.2,0,0,0,1.86-.93,4.2,4.2,0,0,0,.7-2.57,3.88,3.88,0,0,0-.71-2.41,2.24,2.24,0,0,0-1.87-.92,2.21,2.21,0,0,0-1.84.91A4.15,4.15,0,0,0,466.22,180.82Z"/><path d="M476.27,176.21l.05,1.13A3.31,3.31,0,0,1,479,176c1.9,0,2.87,1.08,2.88,3.23v6h-1.54v-6a2.05,2.05,0,0,0-.45-1.44,1.78,1.78,0,0,0-1.36-.47,2.23,2.23,0,0,0-1.31.4,2.75,2.75,0,0,0-.89,1.05v6.43h-1.54v-9Z"/><path d="M485.68,176.21l0,1a3.32,3.32,0,0,1,2.67-1.17,2.6,2.6,0,0,1,2.58,1.45,3.49,3.49,0,0,1,1.17-1.05,3.53,3.53,0,0,1,1.7-.4q3,0,3,3.15v6h-1.54v-5.95a2.09,2.09,0,0,0-.44-1.45,2,2,0,0,0-1.49-.48,2,2,0,0,0-1.42.51,2.1,2.1,0,0,0-.66,1.38v6h-1.55v-5.91a1.72,1.72,0,0,0-1.92-2,2.06,2.06,0,0,0-2.08,1.29v6.59h-1.54v-9Z"/><path d="M502.93,185.39a4,4,0,0,1-3-1.2,4.5,4.5,0,0,1-1.15-3.22v-.28a5.43,5.43,0,0,1,.52-2.4,4,4,0,0,1,1.43-1.65,3.58,3.58,0,0,1,2-.6,3.38,3.38,0,0,1,2.73,1.16,5,5,0,0,1,1,3.32v.64h-6.1a3.2,3.2,0,0,0,.77,2.15,2.46,2.46,0,0,0,1.9.83,2.66,2.66,0,0,0,1.38-.34,3.47,3.47,0,0,0,1-.88l.94.73A3.79,3.79,0,0,1,502.93,185.39Zm-.19-8.08a2.06,2.06,0,0,0-1.57.68,3.31,3.31,0,0,0-.78,1.9h4.51v-.11a2.88,2.88,0,0,0-.63-1.82A1.94,1.94,0,0,0,502.74,177.31Z"/><path d="M509.68,176.21l.05,1.13a3.31,3.31,0,0,1,2.7-1.3q2.87,0,2.89,3.23v6h-1.54v-6a2.1,2.1,0,0,0-.45-1.44,1.78,1.78,0,0,0-1.36-.47,2.29,2.29,0,0,0-1.32.4,2.73,2.73,0,0,0-.88,1.05v6.43h-1.54v-9Z"/><path d="M519.74,174v2.18h1.68v1.19h-1.68V183a1.24,1.24,0,0,0,.22.81,1,1,0,0,0,.77.28,4.38,4.38,0,0,0,.73-.1v1.24a4.46,4.46,0,0,1-1.18.16,1.91,1.91,0,0,1-1.56-.62,2.7,2.7,0,0,1-.53-1.78V177.4h-1.64v-1.19h1.64V174Z"/><path d="M347,205.71a3.4,3.4,0,0,1-.22-1,3.45,3.45,0,0,1-2.57,1.11,3.19,3.19,0,0,1-2.18-.75,2.44,2.44,0,0,1-.86-1.91,2.56,2.56,0,0,1,1.07-2.19,5.07,5.07,0,0,1,3-.78h1.5v-.71a1.75,1.75,0,0,0-.49-1.29,1.92,1.92,0,0,0-1.42-.47,2.27,2.27,0,0,0-1.39.41,1.24,1.24,0,0,0-.55,1h-1.55a2.12,2.12,0,0,1,.48-1.3,3.15,3.15,0,0,1,1.3-1,4.39,4.39,0,0,1,1.8-.37,3.56,3.56,0,0,1,2.44.78,2.81,2.81,0,0,1,.92,2.15v4.15a5.08,5.08,0,0,0,.31,2v.14Zm-2.56-1.18a2.69,2.69,0,0,0,1.37-.37,2.29,2.29,0,0,0,1-1v-1.85h-1.21c-1.89,0-2.84.55-2.84,1.66a1.41,1.41,0,0,0,.49,1.13A1.8,1.8,0,0,0,344.47,204.53Z"/><path d="M352.2,196.69l.05,1.13a3.31,3.31,0,0,1,2.7-1.3q2.87,0,2.89,3.23v6h-1.55v-6a2.05,2.05,0,0,0-.44-1.44,1.79,1.79,0,0,0-1.36-.47,2.29,2.29,0,0,0-1.32.4,2.73,2.73,0,0,0-.88,1.05v6.43h-1.55v-9Z"/><path d="M359.79,201.12a5.24,5.24,0,0,1,1-3.33,3.33,3.33,0,0,1,5.08-.18v-4.7h1.54v12.8H366l-.08-1a3.11,3.11,0,0,1-2.57,1.13,3.07,3.07,0,0,1-2.56-1.28,5.4,5.4,0,0,1-1-3.35Zm1.54.18a4,4,0,0,0,.63,2.4,2,2,0,0,0,1.75.87,2.24,2.24,0,0,0,2.14-1.32v-4.14a2.27,2.27,0,0,0-2.12-1.28,2,2,0,0,0-1.77.88A4.4,4.4,0,0,0,361.33,201.3Z"/><path d="M380.94,200.35h-5.09v5.36h-1.6V193.57h7.52v1.31h-5.92V199h5.09Z"/><path d="M382.86,201.12a5.31,5.31,0,0,1,.52-2.39,3.9,3.9,0,0,1,1.45-1.63,4,4,0,0,1,2.12-.58,3.81,3.81,0,0,1,3,1.28,4.9,4.9,0,0,1,1.14,3.39v.11a5.45,5.45,0,0,1-.5,2.36,3.83,3.83,0,0,1-1.45,1.63,4,4,0,0,1-2.15.58,3.79,3.79,0,0,1-3-1.27,4.89,4.89,0,0,1-1.14-3.38Zm1.55.18a3.83,3.83,0,0,0,.7,2.41,2.35,2.35,0,0,0,3.73,0,4.2,4.2,0,0,0,.69-2.57,3.86,3.86,0,0,0-.71-2.41,2.24,2.24,0,0,0-1.87-.92,2.21,2.21,0,0,0-1.84.91A4.15,4.15,0,0,0,384.41,201.3Z"/><path d="M397.36,198.07a4.47,4.47,0,0,0-.76,0,2,2,0,0,0-2.06,1.29v6.4H393v-9h1.5l0,1a2.4,2.4,0,0,1,2.15-1.21,1.5,1.5,0,0,1,.68.12Z"/><path d="M402.36,205.87a3.93,3.93,0,0,1-3-1.2,4.46,4.46,0,0,1-1.15-3.22v-.28a5.43,5.43,0,0,1,.51-2.4,4,4,0,0,1,1.43-1.65,3.61,3.61,0,0,1,2-.6,3.38,3.38,0,0,1,2.73,1.16,5,5,0,0,1,1,3.32v.64h-6.11a3.15,3.15,0,0,0,.78,2.15,2.45,2.45,0,0,0,1.89.83,2.72,2.72,0,0,0,1.39-.34,3.31,3.31,0,0,0,1-.88l.94.73A3.78,3.78,0,0,1,402.36,205.87Zm-.19-8.08a2.07,2.07,0,0,0-1.57.68,3.31,3.31,0,0,0-.78,1.9h4.52v-.11a2.94,2.94,0,0,0-.64-1.82A1.94,1.94,0,0,0,402.17,197.79Z"/><path d="M412.91,203.32a1.16,1.16,0,0,0-.47-1,4.59,4.59,0,0,0-1.64-.59,8.13,8.13,0,0,1-1.86-.6,2.63,2.63,0,0,1-1-.83,2,2,0,0,1-.33-1.15,2.36,2.36,0,0,1,.94-1.88,3.69,3.69,0,0,1,2.4-.77,3.78,3.78,0,0,1,2.49.8,2.51,2.51,0,0,1,.95,2h-1.55a1.38,1.38,0,0,0-.54-1.09,2,2,0,0,0-1.35-.46,2.09,2.09,0,0,0-1.32.37,1.13,1.13,0,0,0-.47,1,.92.92,0,0,0,.44.84,5.24,5.24,0,0,0,1.59.54,8,8,0,0,1,1.87.62,2.63,2.63,0,0,1,1.07.86,2.1,2.1,0,0,1,.34,1.23,2.3,2.3,0,0,1-1,1.93,4,4,0,0,1-2.51.73,4.51,4.51,0,0,1-1.92-.38,3.13,3.13,0,0,1-1.3-1.07,2.53,2.53,0,0,1-.47-1.49h1.54a1.58,1.58,0,0,0,.62,1.23,2.4,2.4,0,0,0,1.53.46,2.44,2.44,0,0,0,1.4-.36A1.1,1.1,0,0,0,412.91,203.32Z"/><path d="M418.55,194.51v2.18h1.69v1.19h-1.69v5.6a1.24,1.24,0,0,0,.23.81.94.94,0,0,0,.76.28,4.34,4.34,0,0,0,.74-.1v1.24a4.54,4.54,0,0,1-1.19.16,1.9,1.9,0,0,1-1.55-.62,2.7,2.7,0,0,1-.53-1.78v-5.59h-1.64v-1.19H417v-2.18Z"/><path d="M426.39,198.07a4.43,4.43,0,0,0-.75,0,2,2,0,0,0-2.06,1.29v6.4H422v-9h1.5l0,1a2.42,2.42,0,0,1,2.15-1.21,1.5,1.5,0,0,1,.68.12Z"/><path d="M430.91,203.45l2.1-6.76h1.65L431,207.1c-.57,1.5-1.46,2.25-2.68,2.25l-.29,0-.58-.1V208l.42,0a2.06,2.06,0,0,0,1.22-.32,2.32,2.32,0,0,0,.72-1.16l.34-.91L427,196.69h1.68Z"/><path d="M440.27,194.3a.92.92,0,0,1,.23-.63,1,1,0,0,1,1.36,0,.88.88,0,0,1,.23.63.84.84,0,0,1-.23.62,1,1,0,0,1-1.36,0A.88.88,0,0,1,440.27,194.3Zm1.67,11.41h-1.55v-9h1.55Z"/><path d="M445.86,196.69l.05,1.13a3.31,3.31,0,0,1,2.7-1.3q2.86,0,2.88,3.23v6H450v-6a2.05,2.05,0,0,0-.44-1.44,1.8,1.8,0,0,0-1.37-.47,2.26,2.26,0,0,0-1.31.4,2.75,2.75,0,0,0-.89,1.05v6.43H444.4v-9Z"/><path d="M465.84,205.71h-7.95V204.6l4.2-4.67a9.52,9.52,0,0,0,1.28-1.72,2.83,2.83,0,0,0,.36-1.37,2.17,2.17,0,0,0-.58-1.56,2,2,0,0,0-1.53-.61,2.38,2.38,0,0,0-1.79.66,2.51,2.51,0,0,0-.64,1.82h-1.54a3.58,3.58,0,0,1,1.08-2.71,4,4,0,0,1,2.89-1,3.82,3.82,0,0,1,2.67.88,3,3,0,0,1,1,2.37q0,1.78-2.29,4.26l-3.25,3.53h6.1Z"/><path d="M475.08,200.53a7,7,0,0,1-.93,4,3.85,3.85,0,0,1-5.76,0,6.62,6.62,0,0,1-1-3.85v-2.06a6.92,6.92,0,0,1,.92-4,3.92,3.92,0,0,1,5.79-.05,6.75,6.75,0,0,1,.95,3.87Zm-1.54-2.11a5.73,5.73,0,0,0-.55-2.85,1.9,1.9,0,0,0-1.75-.9,1.85,1.85,0,0,0-1.72.9,5.48,5.48,0,0,0-.56,2.74v2.46a5.79,5.79,0,0,0,.57,2.91,1.9,1.9,0,0,0,1.73.94,1.88,1.88,0,0,0,1.7-.89,5.54,5.54,0,0,0,.58-2.78Z"/><path d="M485,205.71h-7.95V204.6l4.2-4.67a10.2,10.2,0,0,0,1.29-1.72,2.82,2.82,0,0,0,.35-1.37,2.21,2.21,0,0,0-.57-1.56,2,2,0,0,0-1.53-.61,2.36,2.36,0,0,0-1.79.66,2.46,2.46,0,0,0-.64,1.82h-1.54a3.58,3.58,0,0,1,1.08-2.71,4,4,0,0,1,2.89-1,3.84,3.84,0,0,1,2.67.88,3,3,0,0,1,1,2.37q0,1.78-2.28,4.26l-3.25,3.53H485Z"/><path d="M491.7,205.71h-1.55V195.43L487,196.57v-1.4l4.42-1.65h.24Z"/><rect class="cls-1" x="43.36" y="43.66" width="162.67" height="162.67" transform="translate(125.28 -51.56) rotate(45.12)"/><g class="cls-3"><path class="cls-4" d="M124.48,228.32,21.37,124.78,124.92,21.68,228,125.22ZM24.57,124.79l99.92,100.34,100.34-99.92L124.91,24.87Zm99.94,90.41L90.1,180.64l26.43-26.31L91,128.71l-18.18,18.1,12,12,5-4.95-7-7L91,138.64l15.6,15.66L85.14,175.67,55.06,145.46,75.7,124.9,55.14,104.25,85.35,74.17l21.37,21.45-15.67,15.6L82.85,103l7-7-5-5-12,12L91,121.15l25.62-25.51L90.33,69.21,124.89,34.8,159.3,69.36,132.87,95.67l25.52,25.62,18.18-18.1-12-12-5,4.95,7,7-8.23,8.19-15.6-15.67,21.45-21.36,30.08,30.21L173.7,125.1l20.56,20.65-30.21,30.08-21.37-21.45,15.67-15.6,8.2,8.23-7,7,5,5,12-12-18.11-18.18-25.62,25.51,26.32,26.43ZM93.29,180.65,124.52,212l31.36-31.23-26.32-26.43,28.82-28.7L179.67,147l-15.21,15.15L156.32,154l7-7-5-5-12.47,12.42,18.17,18.25,27-26.9L170.51,125.1l20.64-20.56-26.9-27L146,95.7l12.42,12.47,5-5-7-7L164.62,88l15.14,15.21-21.38,21.29-28.7-28.82,26.43-26.32L124.88,38,93.52,69.22l26.32,26.43L91,124.35,69.73,103,84.94,87.82,93.08,96l-7,7,5,5,12.46-12.42L85.35,77.36l-27,26.9L78.89,124.9,58.25,145.46l26.9,27L103.4,154.3,91,141.83l-5,5,7,7L84.79,162,69.64,146.8,91,125.51l28.7,28.82Zm105.94-39.86-15.6-15.67,15.67-15.6,15.6,15.67Zm-12.41-15.66,12.42,12.47,12.47-12.42-12.42-12.47ZM50.1,140.48,34.5,124.81l15.67-15.6,15.6,15.67ZM37.69,124.82l12.42,12.47,12.47-12.42L50.16,112.4Z"/><path class="cls-4" d="M124.53,204.55,100.39,180.3l24.25-24.14,24.14,24.24Zm-21-24.24,21,21.05,21-21-21-21.05Z"/><path class="cls-4" d="M124.77,93.17,100.62,68.93l24.25-24.15L149,69Zm-21-24.24,21,21,21-21-21-21Z"/></g><path class="cls-4" d="M121.44,177.14c-1.94-.27-3.89-.49-5.82-.81C95.27,173,78,156.47,73.8,136.27c-3.09-15-.33-28.82,8.4-41.43.21-.3.42-.75.71-.83a3,3,0,0,1,1.77-.07,1.23,1.23,0,0,1,.57,1.74,7.17,7.17,0,0,1-.69,1.12,48.23,48.23,0,0,0-8.87,30.49,49.07,49.07,0,1,0,94.44-20.86c-.12-.31-.27-.61-.45-1-.69.94-1.3,1.8-2,2.64s-1.62,1.14-2.35.59-.76-1.48,0-2.5,1.49-2.26,2.25-3.39a1.39,1.39,0,0,0,0-1.66c-7.8-13.27-19.14-21.64-34.34-24.36-13.47-2.4-25.85.52-37.07,8.36-.17.11-.33.24-.49.36s-.08.1-.22.26c.55.17,1,.34,1.54.48,2.59.77,5.18,1.59,7.8,2.27a22.39,22.39,0,0,0,11.84-.61c3.16-.89,6.34-1.73,9.54-2.41a16.38,16.38,0,0,1,7.17.17c5,1.18,7.85,4.6,9.45,9.21,1.11,3.2,2,6.49,3.13,9.67s3.31,5.74,6.9,6.57a11.26,11.26,0,0,0,7-.64c.29-.11.56-.26.84-.37a1.52,1.52,0,0,1,2,.66,1.5,1.5,0,0,1-.7,2.08c-5.54,2.85-13.51,2.18-17.25-4.11a43.93,43.93,0,0,1-3.06-7.38c-.76-2-1.23-4.17-2-6.18-2-5.06-5.75-7.29-11.18-6.89a49.35,49.35,0,0,0-10,2.26c-3.27,1-6.57,1.91-10,1.5a73.45,73.45,0,0,1-8.55-1.7c-2.3-.55-4.54-1.36-6.83-2a1.57,1.57,0,0,0-1.23.3c-.81.66-1.54,1.43-2.29,2.17-1,1-1.83,1.09-2.55.36s-.56-1.56.35-2.49a51.47,51.47,0,0,1,21.87-13.42,52.16,52.16,0,0,1,64.61,32.34,50.88,50.88,0,0,1,2.8,13.29c0,.3.12.59.18.89v6.52c-.06.26-.13.52-.17.78-.36,2.42-.58,4.85-1.07,7.24-4.18,20.2-21.46,36.74-41.8,40-1.93.32-3.88.54-5.82.81Z"/><path class="cls-4" d="M101,96.66c2.88.42,5.78.72,8.64,1.28,4.76.94,9.56,1.46,14.37,2.1a21.46,21.46,0,0,1,16.37,10.68c3.35,5.75,2.51,11.6-.41,17.29a38,38,0,0,1-6.26,8.49c-2.24,2.41-4.53,4.77-6.76,7.2a32.34,32.34,0,0,0-5.89,9c-.61,1.39-1.28,2.77-2,4.1-3,5.25-7.81,7.46-13.73,6.27a15.2,15.2,0,0,1-6.42-2.92c-.9-.69-1.1-1.54-.58-2.28s1.44-.87,2.41-.16a12.45,12.45,0,0,0,8,2.59,8,8,0,0,0,6.69-3.49,24.89,24.89,0,0,0,2.46-4.43,43.71,43.71,0,0,1,8.94-13c2.78-2.92,5.52-5.9,8.08-9a19.64,19.64,0,0,0,4.34-9.08c1-5.29-.82-9.63-4.77-13.12a22,22,0,0,0-13.3-5.42c-4.1-.32-8.17-1.17-12.24-1.86-3.69-.62-7.35-1.29-11.11-.73a13.34,13.34,0,0,0-11.37,16.45,40.72,40.72,0,0,0,1.71,5.74,89.9,89.9,0,0,1,4.27,17.55c.78,4.67,1.9,9.23,4.38,13.34a1.49,1.49,0,0,1-.5,2.2,1.54,1.54,0,0,1-2.15-.72,31.73,31.73,0,0,1-3.94-10.3c-1-4.84-1.76-9.74-2.91-14.55-.79-3.28-2.1-6.44-3.11-9.67-1.27-4.09-1.74-8.22-.19-12.37A16.63,16.63,0,0,1,99,96.92c.64,0,1.29,0,1.93,0Z"/><path class="cls-4" d="M136.53,161.91a7,7,0,0,1-2.89,6,25.75,25.75,0,0,1-11.13,4.41,4.3,4.3,0,0,1-4.68-2,4.74,4.74,0,0,1,.22-5.29,15.57,15.57,0,0,1,2.49-2.65c1.45-1.37,2.95-2.68,4.43-4,.94-.84,1.83-1.73,2.83-2.46a4.24,4.24,0,0,1,4.88-.2A7.08,7.08,0,0,1,136.53,161.91Zm-3.07.58a4.38,4.38,0,0,0-2.36-4.17c-1.45-.63-2.14.57-3,1.27-.18.15-.33.34-.51.5-1.83,1.65-3.67,3.29-5.48,5a5.31,5.31,0,0,0-1.4,1.57,2.78,2.78,0,0,0-.13,2.07c.19.38,1.19.61,1.76.51a23.75,23.75,0,0,0,9.37-3.67A3.84,3.84,0,0,0,133.46,162.49Z"/><path class="cls-4" d="M118.6,135.93a5,5,0,0,1-8.2,2c-.42-.37-.8-.8-1.2-1.21a5.58,5.58,0,0,0-4.36-1.73,7.54,7.54,0,0,1-3.52-.42,5,5,0,0,1-1.64-8.16,5.23,5.23,0,0,1,2.67-1.66,5.31,5.31,0,0,0,3-1.92,1.14,1.14,0,0,1,.19-.19.78.78,0,0,1,1.1,0,.72.72,0,0,1,.1,1.08,6,6,0,0,1-3,2.28c-.39.11-.76.25-1.15.38a4,4,0,0,0-2.63,2.88,3.3,3.3,0,0,0,3,4,11.36,11.36,0,0,0,1.75,0,7.42,7.42,0,0,1,5.83,2.37,8.48,8.48,0,0,0,1.55,1.39,3.19,3.19,0,0,0,3.68,0,3.59,3.59,0,0,0,1.48-3.63,4.41,4.41,0,0,0-.58-1.64,7.09,7.09,0,0,1-1-4,10,10,0,0,0-.38-3.14,4.52,4.52,0,0,0-6-2.81l-.25.1a.82.82,0,1,1-.63-1.52,6,6,0,0,1,5.56.23,5.93,5.93,0,0,1,3.21,4.72c.15,1,.08,2.12.18,3.18a8,8,0,0,0,.38,1.74,10.94,10.94,0,0,0,.61,1.24A5.26,5.26,0,0,1,118.6,135.93Z"/><path class="cls-4" d="M106.67,111.38a5.78,5.78,0,0,1,1.75-2.39,3.44,3.44,0,0,1,4.94.59,6.24,6.24,0,0,1,.43,6.65,6.83,6.83,0,0,1-1.55,1.83,3.28,3.28,0,0,1-4.71-.52,5.86,5.86,0,0,1-1.13-5.18C106.47,112,106.61,111.62,106.67,111.38Zm5.76,4c.59-1.8.68-3.29-.26-4.67a1.78,1.78,0,0,0-2.64-.52,4.64,4.64,0,0,0-.74,6.26,1.7,1.7,0,0,0,2.46.26A9.72,9.72,0,0,0,112.43,115.42Z"/><path class="cls-4" d="M124.51,118.42a6.63,6.63,0,0,1-3.64,3.69c-3,1.17-5.57-.84-5.14-4a6.25,6.25,0,0,1,3.73-5,3.67,3.67,0,0,1,4.15.33,3.91,3.91,0,0,1,1.18,4A10,10,0,0,1,124.51,118.42Zm-1.5-.68a11.09,11.09,0,0,0,.22-1.14,2,2,0,0,0-2.78-2.16,4.88,4.88,0,0,0-3.11,4.11,1.93,1.93,0,0,0,2.76,2.09A5.09,5.09,0,0,0,123,117.74Z"/><path class="cls-4" d="M127.75,128.08a5.82,5.82,0,0,1-5,3.58,3.27,3.27,0,0,1-3.5-4.43,5.94,5.94,0,0,1,5.61-4.1,3.28,3.28,0,0,1,3.09,4.43C127.88,127.74,127.81,127.91,127.75,128.08Zm-1.61-.43c.35-.88.49-1.56,0-2.2a1.89,1.89,0,0,0-1.93-.63,4.34,4.34,0,0,0-3.43,2.91,1.65,1.65,0,0,0,1.85,2.28A4.17,4.17,0,0,0,126.14,127.65Z"/><path class="cls-4" d="M104.63,120.61a3.34,3.34,0,0,1-5.46,1.7,5.86,5.86,0,0,1-.94-7.47,3.2,3.2,0,0,1,4.89-.59A5.9,5.9,0,0,1,104.63,120.61Zm-1.57-.48a4.39,4.39,0,0,0-.92-4.55,1.63,1.63,0,0,0-2.74.49,4.1,4.1,0,0,0,.42,4.51C100.86,122,102.4,121.75,103.06,120.13Z"/></svg>