<svg id="Layer_1" data-name="Layer 1" xmlns="http://www.w3.org/2000/svg" viewBox="0 0 654 250"><defs><style>.cls-1{fill:#f26e25;}.cls-2{opacity:0.15;}.cls-3{fill:#fff;}.cls-4{fill:none;stroke:#f26e25;stroke-miterlimit:10;stroke-width:2.5px;}</style></defs><path d="M309.77,139.26v-7.83h-1.43v-1.19h1.43v-.93a3.11,3.11,0,0,1,.77-2.24,3,3,0,0,1,2.19-.79,4.23,4.23,0,0,1,1.06.14l-.08,1.25a3.71,3.71,0,0,0-.83-.08,1.51,1.51,0,0,0-1.16.44,1.74,1.74,0,0,0-.41,1.26v1h1.92v1.19h-1.92v7.83Z"/><path d="M319.29,131.62a4.42,4.42,0,0,0-.76-.06,2,2,0,0,0-2,1.3v6.4h-1.55v-9h1.5l0,1a2.4,2.4,0,0,1,2.15-1.21,1.5,1.5,0,0,1,.68.12Z"/><path d="M320.13,134.67a5.45,5.45,0,0,1,.52-2.39,3.85,3.85,0,0,1,3.58-2.21,3.79,3.79,0,0,1,3,1.28,4.9,4.9,0,0,1,1.14,3.39v.11a5.45,5.45,0,0,1-.5,2.36,3.88,3.88,0,0,1-1.44,1.63,4,4,0,0,1-2.16.58,3.79,3.79,0,0,1-3-1.27,4.89,4.89,0,0,1-1.14-3.38Zm1.55.18a3.9,3.9,0,0,0,.7,2.41,2.23,2.23,0,0,0,1.86.91,2.2,2.2,0,0,0,1.87-.93,4.2,4.2,0,0,0,.69-2.57,3.85,3.85,0,0,0-.7-2.41,2.26,2.26,0,0,0-1.87-.92,2.21,2.21,0,0,0-1.85.91A4.21,4.21,0,0,0,321.68,134.85Z"/><path d="M331.73,130.24l0,1a3.32,3.32,0,0,1,2.67-1.17,2.6,2.6,0,0,1,2.58,1.45,3.49,3.49,0,0,1,1.17-1.05,3.53,3.53,0,0,1,1.7-.4q3,0,3,3.14v6h-1.54v-5.95a2.09,2.09,0,0,0-.44-1.45,2,2,0,0,0-1.49-.48,2,2,0,0,0-1.42.51,2.1,2.1,0,0,0-.66,1.38v6h-1.55v-5.91a1.72,1.72,0,0,0-1.93-2,2.06,2.06,0,0,0-2.07,1.29v6.59h-1.54v-9Z"/><path d="M354.37,139.26h-1.55V129l-3.11,1.14v-1.4l4.42-1.66h.24Z"/><path d="M365.39,135.18h1.69v1.26h-1.69v2.82h-1.55v-2.82h-5.52v-.91l5.43-8.41h1.64Zm-5.32,0h3.77v-6l-.18.33Z"/><path d="M374.81,139.26h-1.6V127.12h1.6Z"/><path d="M379,130.24l.05,1.13a3.31,3.31,0,0,1,2.7-1.3q2.87,0,2.88,3.23v6H383v-6a2.05,2.05,0,0,0-.44-1.44,1.8,1.8,0,0,0-1.37-.47,2.19,2.19,0,0,0-1.31.4,2.75,2.75,0,0,0-.89,1.05v6.43h-1.54v-9Z"/><path d="M386.53,134.67a5.24,5.24,0,0,1,1-3.33,3.33,3.33,0,0,1,5.08-.18v-4.7h1.54v12.8h-1.41l-.08-1a3.13,3.13,0,0,1-2.58,1.13,3.07,3.07,0,0,1-2.55-1.28,5.34,5.34,0,0,1-1-3.35Zm1.54.18a4,4,0,0,0,.64,2.4,2,2,0,0,0,1.75.86,2.24,2.24,0,0,0,2.14-1.31v-4.14a2.27,2.27,0,0,0-2.12-1.28,2,2,0,0,0-1.77.88A4.39,4.39,0,0,0,388.07,134.85Z"/><path d="M396.13,134.67a5.31,5.31,0,0,1,.52-2.39,3.84,3.84,0,0,1,1.45-1.63,3.88,3.88,0,0,1,2.12-.58,3.82,3.82,0,0,1,3,1.28,4.94,4.94,0,0,1,1.13,3.39v.11a5.31,5.31,0,0,1-.5,2.36,3.88,3.88,0,0,1-1.44,1.63,4,4,0,0,1-2.16.58,3.79,3.79,0,0,1-3-1.27,4.88,4.88,0,0,1-1.13-3.38Zm1.55.18a3.89,3.89,0,0,0,.69,2.41,2.24,2.24,0,0,0,1.86.91,2.2,2.2,0,0,0,1.87-.93,4.2,4.2,0,0,0,.69-2.57,3.85,3.85,0,0,0-.7-2.41,2.26,2.26,0,0,0-1.87-.92,2.19,2.19,0,0,0-1.84.91A4.15,4.15,0,0,0,397.68,134.85Z"/><path d="M407.73,130.24l0,1.13a3.31,3.31,0,0,1,2.71-1.3q2.85,0,2.88,3.23v6h-1.54v-6a2.1,2.1,0,0,0-.45-1.44,1.78,1.78,0,0,0-1.36-.47,2.22,2.22,0,0,0-1.32.4,2.73,2.73,0,0,0-.88,1.05v6.43h-1.54v-9Z"/><path d="M419.43,139.42a4,4,0,0,1-3-1.2,4.5,4.5,0,0,1-1.15-3.22v-.29a5.41,5.41,0,0,1,.51-2.39,4.06,4.06,0,0,1,1.44-1.65,3.57,3.57,0,0,1,2-.6,3.39,3.39,0,0,1,2.74,1.16,5,5,0,0,1,1,3.32v.64h-6.11a3.25,3.25,0,0,0,.78,2.15,2.46,2.46,0,0,0,1.9.83,2.71,2.71,0,0,0,1.38-.34,3.45,3.45,0,0,0,1-.88l.95.73A3.79,3.79,0,0,1,419.43,139.42Zm-.2-8.08a2.05,2.05,0,0,0-1.56.68,3.25,3.25,0,0,0-.79,1.9h4.52v-.11a2.88,2.88,0,0,0-.63-1.82A2,2,0,0,0,419.23,131.34Z"/><path d="M430,136.86a1.15,1.15,0,0,0-.47-1,4.54,4.54,0,0,0-1.65-.59,7.86,7.86,0,0,1-1.85-.6,2.65,2.65,0,0,1-1-.84,2,2,0,0,1-.33-1.15,2.33,2.33,0,0,1,.94-1.87,3.65,3.65,0,0,1,2.39-.77,3.83,3.83,0,0,1,2.49.79,2.52,2.52,0,0,1,.95,2h-1.55a1.4,1.4,0,0,0-.53-1.09,2,2,0,0,0-1.36-.46,2,2,0,0,0-1.31.37,1.14,1.14,0,0,0-.48,1,.94.94,0,0,0,.44.84,5.44,5.44,0,0,0,1.6.54,8.16,8.16,0,0,1,1.87.62,2.59,2.59,0,0,1,1.06.86,2.1,2.1,0,0,1,.35,1.23,2.31,2.31,0,0,1-1,1.93,4,4,0,0,1-2.51.73,4.43,4.43,0,0,1-1.91-.38,3.16,3.16,0,0,1-1.31-1.07,2.63,2.63,0,0,1-.47-1.49h1.54a1.61,1.61,0,0,0,.62,1.23,2.44,2.44,0,0,0,1.53.46,2.48,2.48,0,0,0,1.41-.36A1.1,1.1,0,0,0,430,136.86Z"/><path d="M433.53,127.85a1,1,0,0,1,.23-.64.88.88,0,0,1,.68-.25.9.9,0,0,1,.69.25,1,1,0,0,1,.23.64.88.88,0,0,1-.23.62.9.9,0,0,1-.69.25.83.83,0,0,1-.91-.87Zm1.67,11.41h-1.54v-9h1.54Z"/><path d="M443.23,139.26a3.48,3.48,0,0,1-.21-.95,3.47,3.47,0,0,1-2.57,1.11,3.2,3.2,0,0,1-2.19-.75,2.43,2.43,0,0,1-.85-1.91,2.56,2.56,0,0,1,1.07-2.19,5,5,0,0,1,3-.78H443v-.71a1.74,1.74,0,0,0-.48-1.29,2,2,0,0,0-1.43-.48,2.22,2.22,0,0,0-1.38.42,1.25,1.25,0,0,0-.56,1h-1.55a2.12,2.12,0,0,1,.48-1.3,3.22,3.22,0,0,1,1.3-1,4.47,4.47,0,0,1,1.81-.37,3.57,3.57,0,0,1,2.44.78,2.81,2.81,0,0,1,.91,2.15v4.15a5.06,5.06,0,0,0,.32,2v.14Zm-2.55-1.18a2.69,2.69,0,0,0,1.37-.37,2.27,2.27,0,0,0,.94-1v-1.85h-1.21c-1.88,0-2.83.55-2.83,1.66a1.4,1.4,0,0,0,.48,1.13A1.85,1.85,0,0,0,440.68,138.08Z"/><path d="M448.41,130.24l0,1.13a3.31,3.31,0,0,1,2.7-1.3q2.85,0,2.88,3.23v6H452.5v-6a2.05,2.05,0,0,0-.45-1.44,1.78,1.78,0,0,0-1.36-.47,2.17,2.17,0,0,0-1.31.4,2.75,2.75,0,0,0-.89,1.05v6.43H447v-9Z"/><path d="M466.16,139.26a3.4,3.4,0,0,1-.22-.95,3.43,3.43,0,0,1-2.56,1.11,3.2,3.2,0,0,1-2.19-.75,2.44,2.44,0,0,1-.86-1.91,2.56,2.56,0,0,1,1.07-2.19,5.07,5.07,0,0,1,3-.78h1.5v-.71a1.71,1.71,0,0,0-.49-1.29,1.92,1.92,0,0,0-1.42-.48,2.22,2.22,0,0,0-1.38.42,1.22,1.22,0,0,0-.56,1h-1.55a2.12,2.12,0,0,1,.48-1.3,3.22,3.22,0,0,1,1.3-1,4.39,4.39,0,0,1,1.8-.37,3.56,3.56,0,0,1,2.44.78,2.81,2.81,0,0,1,.92,2.15v4.15a5.08,5.08,0,0,0,.31,2v.14Zm-2.56-1.18a2.75,2.75,0,0,0,1.38-.37,2.33,2.33,0,0,0,.94-1v-1.85h-1.21c-1.89,0-2.83.55-2.83,1.66a1.4,1.4,0,0,0,.48,1.13A1.8,1.8,0,0,0,463.6,138.08Z"/><path d="M469.51,134.67a5.3,5.3,0,0,1,1-3.35,3.13,3.13,0,0,1,2.59-1.25,3.09,3.09,0,0,1,2.57,1.17l.08-1h1.41V139a3.67,3.67,0,0,1-1,2.76,3.84,3.84,0,0,1-2.79,1,4.61,4.61,0,0,1-1.91-.42,3.27,3.27,0,0,1-1.42-1.14l.8-.93a3,3,0,0,0,2.42,1.23,2.38,2.38,0,0,0,1.76-.63,2.44,2.44,0,0,0,.62-1.79v-.77a3.14,3.14,0,0,1-2.52,1.06,3.06,3.06,0,0,1-2.56-1.27A5.54,5.54,0,0,1,469.51,134.67Zm1.55.18a4.09,4.09,0,0,0,.62,2.39,2,2,0,0,0,1.75.87,2.24,2.24,0,0,0,2.14-1.32v-4.12a2.27,2.27,0,0,0-2.12-1.29,2,2,0,0,0-1.76.88A4.4,4.4,0,0,0,471.06,134.85Z"/><path d="M483.19,139.42a4,4,0,0,1-3-1.2,4.46,4.46,0,0,1-1.15-3.22v-.29a5.41,5.41,0,0,1,.51-2.39,4,4,0,0,1,1.43-1.65,3.61,3.61,0,0,1,2-.6,3.38,3.38,0,0,1,2.73,1.16,5,5,0,0,1,1,3.32v.64H480.6a3.15,3.15,0,0,0,.78,2.15,2.45,2.45,0,0,0,1.89.83,2.72,2.72,0,0,0,1.39-.34,3.45,3.45,0,0,0,1-.88l.94.73A3.78,3.78,0,0,1,483.19,139.42Zm-.19-8.08a2.09,2.09,0,0,0-1.57.68,3.31,3.31,0,0,0-.78,1.9h4.52v-.11a2.94,2.94,0,0,0-.64-1.82A1.92,1.92,0,0,0,483,131.34Z"/><path d="M490,130.24l.05,1.13a3.31,3.31,0,0,1,2.7-1.3c1.9,0,2.87,1.08,2.88,3.23v6H494v-6a2.05,2.05,0,0,0-.44-1.44,1.82,1.82,0,0,0-1.37-.47,2.17,2.17,0,0,0-1.31.4,2.75,2.75,0,0,0-.89,1.05v6.43h-1.54v-9Z"/><path d="M501.52,138.17a2.26,2.26,0,0,0,1.45-.5,1.76,1.76,0,0,0,.68-1.25h1.46a2.82,2.82,0,0,1-.54,1.47,3.42,3.42,0,0,1-1.31,1.12,3.84,3.84,0,0,1-1.74.41,3.7,3.7,0,0,1-2.92-1.23,4.87,4.87,0,0,1-1.09-3.36v-.26a5.5,5.5,0,0,1,.48-2.34,3.72,3.72,0,0,1,1.39-1.59,3.91,3.91,0,0,1,2.14-.57A3.64,3.64,0,0,1,504,131a3.27,3.27,0,0,1,1.07,2.36h-1.46a2.16,2.16,0,0,0-.66-1.44,2.09,2.09,0,0,0-1.47-.56,2.13,2.13,0,0,0-1.82.85,3.94,3.94,0,0,0-.65,2.44v.29a3.87,3.87,0,0,0,.64,2.4A2.18,2.18,0,0,0,501.52,138.17Z"/><path d="M506.85,127.85a1,1,0,0,1,.23-.64,1,1,0,0,1,1.36,0,.93.93,0,0,1,.24.64.84.84,0,0,1-.24.62,1,1,0,0,1-1.36,0A.88.88,0,0,1,506.85,127.85Zm1.67,11.41H507v-9h1.54Z"/><path d="M514.73,139.42a4,4,0,0,1-3-1.2,4.5,4.5,0,0,1-1.15-3.22v-.29a5.41,5.41,0,0,1,.51-2.39,4.06,4.06,0,0,1,1.44-1.65,3.57,3.57,0,0,1,2-.6,3.39,3.39,0,0,1,2.74,1.16,5,5,0,0,1,1,3.32v.64h-6.11a3.25,3.25,0,0,0,.78,2.15,2.46,2.46,0,0,0,1.9.83,2.71,2.71,0,0,0,1.38-.34,3.45,3.45,0,0,0,1-.88l1,.73A3.79,3.79,0,0,1,514.73,139.42Zm-.2-8.08A2.05,2.05,0,0,0,513,132a3.25,3.25,0,0,0-.79,1.9h4.52v-.11a2.94,2.94,0,0,0-.63-1.82A2,2,0,0,0,514.53,131.34Z"/><path d="M525.27,136.86a1.13,1.13,0,0,0-.47-1,4.4,4.4,0,0,0-1.64-.59,8.13,8.13,0,0,1-1.86-.6,2.69,2.69,0,0,1-1-.84,2,2,0,0,1-.33-1.15,2.33,2.33,0,0,1,.94-1.87,3.65,3.65,0,0,1,2.39-.77,3.83,3.83,0,0,1,2.49.79,2.54,2.54,0,0,1,1,2h-1.55a1.4,1.4,0,0,0-.53-1.09,2,2,0,0,0-1.36-.46,2.09,2.09,0,0,0-1.32.37,1.16,1.16,0,0,0-.47,1,.94.94,0,0,0,.44.84,5.44,5.44,0,0,0,1.6.54,8.16,8.16,0,0,1,1.87.62,2.59,2.59,0,0,1,1.06.86,2.1,2.1,0,0,1,.35,1.23,2.31,2.31,0,0,1-1,1.93,4,4,0,0,1-2.51.73,4.51,4.51,0,0,1-1.92-.38,3.13,3.13,0,0,1-1.3-1.07,2.63,2.63,0,0,1-.47-1.49h1.54a1.61,1.61,0,0,0,.62,1.23,2.44,2.44,0,0,0,1.53.46,2.5,2.5,0,0,0,1.41-.36A1.09,1.09,0,0,0,525.27,136.86Z"/><path d="M259.11,152.1a4.59,4.59,0,0,0-.76-.06,2,2,0,0,0-2.06,1.3v6.4h-1.54v-9h1.5l0,1a2.42,2.42,0,0,1,2.15-1.21,1.58,1.58,0,0,1,.69.12Z"/><path d="M264.1,159.9a4,4,0,0,1-3-1.2,4.46,4.46,0,0,1-1.15-3.22v-.29a5.41,5.41,0,0,1,.51-2.39,4.06,4.06,0,0,1,1.44-1.65,3.57,3.57,0,0,1,2-.6,3.39,3.39,0,0,1,2.74,1.16,5,5,0,0,1,1,3.32v.64h-6.11a3.25,3.25,0,0,0,.78,2.15,2.45,2.45,0,0,0,1.9.82,2.71,2.71,0,0,0,1.38-.33,3.45,3.45,0,0,0,1-.88l.95.73A3.8,3.8,0,0,1,264.1,159.9Zm-.19-8.08a2.05,2.05,0,0,0-1.56.68,3.25,3.25,0,0,0-.79,1.9h4.52v-.11a2.94,2.94,0,0,0-.63-1.82A2,2,0,0,0,263.91,151.82Z"/><path d="M273,158.64a2.18,2.18,0,0,0,1.44-.5,1.78,1.78,0,0,0,.69-1.25h1.45a2.72,2.72,0,0,1-.53,1.48,3.5,3.5,0,0,1-1.31,1.12,3.9,3.9,0,0,1-1.74.41,3.72,3.72,0,0,1-2.93-1.23,4.92,4.92,0,0,1-1.08-3.36v-.26a5.47,5.47,0,0,1,.48-2.34,3.65,3.65,0,0,1,1.39-1.59,3.9,3.9,0,0,1,2.13-.57,3.64,3.64,0,0,1,2.52.91,3.23,3.23,0,0,1,1.07,2.36h-1.45a2.17,2.17,0,0,0-.67-1.44,2.06,2.06,0,0,0-1.47-.56,2.15,2.15,0,0,0-1.82.85,3.94,3.94,0,0,0-.64,2.44v.29a3.87,3.87,0,0,0,.64,2.4A2.17,2.17,0,0,0,273,158.64Z"/><path d="M282.08,159.9a3.93,3.93,0,0,1-3-1.2,4.46,4.46,0,0,1-1.15-3.22v-.29a5.41,5.41,0,0,1,.51-2.39,4,4,0,0,1,1.43-1.65,3.61,3.61,0,0,1,2-.6,3.38,3.38,0,0,1,2.73,1.16,5,5,0,0,1,1,3.32v.64h-6.11a3.15,3.15,0,0,0,.78,2.15,2.44,2.44,0,0,0,1.89.82,2.72,2.72,0,0,0,1.39-.33,3.45,3.45,0,0,0,1-.88l.94.73A3.78,3.78,0,0,1,282.08,159.9Zm-.19-8.08a2.07,2.07,0,0,0-1.57.68,3.31,3.31,0,0,0-.78,1.9h4.52v-.11a2.94,2.94,0,0,0-.64-1.82A1.94,1.94,0,0,0,281.89,151.82Z"/><path d="M287.39,148.33a.92.92,0,0,1,.23-.64.86.86,0,0,1,.68-.25.88.88,0,0,1,.68.25.92.92,0,0,1,.23.64.84.84,0,0,1-.23.62.88.88,0,0,1-.68.25.86.86,0,0,1-.68-.25A.84.84,0,0,1,287.39,148.33Zm1.67,11.41h-1.55v-9h1.55Z"/><path d="M294.5,157.64l2.23-6.92h1.58l-3.24,9H293.9l-3.27-9h1.57Z"/><path d="M303.42,159.9a4,4,0,0,1-3-1.2,4.46,4.46,0,0,1-1.15-3.22v-.29a5.41,5.41,0,0,1,.51-2.39,4,4,0,0,1,1.43-1.65,3.61,3.61,0,0,1,2-.6,3.38,3.38,0,0,1,2.73,1.16,5,5,0,0,1,1,3.32v.64h-6.11a3.15,3.15,0,0,0,.78,2.15,2.45,2.45,0,0,0,1.9.82,2.71,2.71,0,0,0,1.38-.33,3.45,3.45,0,0,0,1-.88l.94.73A3.78,3.78,0,0,1,303.42,159.9Zm-.19-8.08a2.09,2.09,0,0,0-1.57.68,3.31,3.31,0,0,0-.78,1.9h4.52v-.11a2.94,2.94,0,0,0-.64-1.82A1.92,1.92,0,0,0,303.23,151.82Z"/><path d="M308.35,155.15a5.24,5.24,0,0,1,1-3.33,3.33,3.33,0,0,1,5.08-.18v-4.7H316v12.8h-1.42l-.08-1a3.11,3.11,0,0,1-2.57,1.13,3.07,3.07,0,0,1-2.56-1.28,5.4,5.4,0,0,1-1-3.35Zm1.54.18a4,4,0,0,0,.63,2.4,2,2,0,0,0,1.75.86,2.24,2.24,0,0,0,2.14-1.31v-4.14a2.27,2.27,0,0,0-2.12-1.28,2,2,0,0,0-1.77.88A4.4,4.4,0,0,0,309.89,155.33Z"/><path d="M331.36,147.6v8.25a3.9,3.9,0,0,1-1.08,2.81,4.38,4.38,0,0,1-2.91,1.23H327a4.58,4.58,0,0,1-3.18-1.07,3.84,3.84,0,0,1-1.2-3V147.6h1.59v8.22a2.94,2.94,0,0,0,4.87,2.05,2.76,2.76,0,0,0,.72-2V147.6Z"/><path d="M343.21,159.74H341.6l-6.11-9.35v9.35h-1.61V147.6h1.61l6.12,9.39V147.6h1.6Z"/><path d="M352.12,148.54v2.18h1.69v1.19h-1.69v5.6a1.24,1.24,0,0,0,.23.81.94.94,0,0,0,.76.27,3.52,3.52,0,0,0,.74-.1v1.25a4.54,4.54,0,0,1-1.19.16,2,2,0,0,1-1.56-.62,2.76,2.76,0,0,1-.52-1.78v-5.59h-1.64v-1.19h1.64v-2.18Z"/><path d="M360,152.1a4.38,4.38,0,0,0-.75-.06,2,2,0,0,0-2.06,1.3v6.4h-1.54v-9h1.5l0,1a2.42,2.42,0,0,1,2.15-1.21,1.5,1.5,0,0,1,.68.12Z"/><path d="M366.61,159.74a3.14,3.14,0,0,1-.21-1,3.47,3.47,0,0,1-2.57,1.11,3.2,3.2,0,0,1-2.19-.75,2.43,2.43,0,0,1-.85-1.91,2.56,2.56,0,0,1,1.07-2.19,5,5,0,0,1,3-.78h1.5v-.71a1.74,1.74,0,0,0-.48-1.29,2,2,0,0,0-1.43-.48,2.22,2.22,0,0,0-1.38.42,1.25,1.25,0,0,0-.56,1H361a2.12,2.12,0,0,1,.48-1.3,3.22,3.22,0,0,1,1.3-1,4.47,4.47,0,0,1,1.81-.37,3.57,3.57,0,0,1,2.44.78,2.81,2.81,0,0,1,.91,2.15v4.15a5.06,5.06,0,0,0,.32,2v.14Zm-2.55-1.18a2.69,2.69,0,0,0,1.37-.37,2.27,2.27,0,0,0,.94-1v-1.85h-1.21c-1.89,0-2.83.55-2.83,1.66a1.4,1.4,0,0,0,.48,1.13A1.85,1.85,0,0,0,364.06,158.56Z"/><path d="M370.34,148.33a.92.92,0,0,1,.23-.64.86.86,0,0,1,.68-.25.88.88,0,0,1,.68.25.92.92,0,0,1,.23.64.84.84,0,0,1-.23.62.88.88,0,0,1-.68.25.86.86,0,0,1-.68-.25A.84.84,0,0,1,370.34,148.33ZM372,159.74h-1.55v-9H372Z"/><path d="M375.93,150.72l.05,1.13a3.31,3.31,0,0,1,2.7-1.3q2.86,0,2.88,3.23v6H380v-6a2.05,2.05,0,0,0-.44-1.44,1.82,1.82,0,0,0-1.37-.47,2.17,2.17,0,0,0-1.31.4,2.75,2.75,0,0,0-.89,1.05v6.43h-1.54v-9Z"/><path d="M383.9,148.33a.92.92,0,0,1,.23-.64.86.86,0,0,1,.68-.25.88.88,0,0,1,.68.25,1,1,0,0,1,.23.64.83.83,0,0,1-.91.87.86.86,0,0,1-.68-.25A.84.84,0,0,1,383.9,148.33Zm1.66,11.41H384v-9h1.54Z"/><path d="M389.49,150.72l.05,1.13a3.31,3.31,0,0,1,2.7-1.3q2.85,0,2.88,3.23v6h-1.54v-6a2.05,2.05,0,0,0-.45-1.44,1.78,1.78,0,0,0-1.36-.47,2.17,2.17,0,0,0-1.31.4,2.75,2.75,0,0,0-.89,1.05v6.43H388v-9Z"/><path d="M397.08,155.15a5.24,5.24,0,0,1,1-3.35,3.35,3.35,0,0,1,5.15-.08l.08-1h1.41v8.8a3.67,3.67,0,0,1-1,2.76,3.84,3.84,0,0,1-2.79,1,4.64,4.64,0,0,1-1.91-.42,3.33,3.33,0,0,1-1.42-1.14l.8-.93a3,3,0,0,0,2.42,1.23,2.35,2.35,0,0,0,1.76-.64,2.4,2.4,0,0,0,.63-1.78v-.77a3.18,3.18,0,0,1-2.53,1.06,3.07,3.07,0,0,1-2.56-1.27A5.6,5.6,0,0,1,397.08,155.15Zm1.55.18a4.09,4.09,0,0,0,.62,2.39,2,2,0,0,0,1.75.87,2.27,2.27,0,0,0,2.15-1.32v-4.12a2.29,2.29,0,0,0-2.13-1.29,2,2,0,0,0-1.76.88A4.4,4.4,0,0,0,398.63,155.33Z"/><path d="M410.84,155.14a5.3,5.3,0,0,1,.52-2.38,3.85,3.85,0,0,1,3.57-2.21,3.81,3.81,0,0,1,3,1.28,4.9,4.9,0,0,1,1.14,3.39v.11a5.31,5.31,0,0,1-.51,2.36,3.75,3.75,0,0,1-1.44,1.63,4,4,0,0,1-2.15.58,3.78,3.78,0,0,1-3-1.27,4.89,4.89,0,0,1-1.14-3.38Zm1.55.19a3.89,3.89,0,0,0,.69,2.41,2.25,2.25,0,0,0,1.87.9,2.19,2.19,0,0,0,1.86-.92,4.21,4.21,0,0,0,.7-2.58,3.85,3.85,0,0,0-.71-2.4,2.24,2.24,0,0,0-1.87-.92,2.21,2.21,0,0,0-1.84.91A4.15,4.15,0,0,0,412.39,155.33Z"/><path d="M422.44,150.72l.05,1.13a3.31,3.31,0,0,1,2.7-1.3q2.85,0,2.88,3.23v6h-1.54v-6a2.05,2.05,0,0,0-.45-1.44,1.78,1.78,0,0,0-1.36-.47,2.22,2.22,0,0,0-1.32.4,2.82,2.82,0,0,0-.88,1.05v6.43H421v-9Z"/><path d="M436.71,148.54v2.18h1.69v1.19h-1.69v5.6a1.24,1.24,0,0,0,.23.81.94.94,0,0,0,.77.27,3.52,3.52,0,0,0,.73-.1v1.25a4.52,4.52,0,0,1-1.18.16,1.94,1.94,0,0,1-1.56-.62,2.7,2.7,0,0,1-.53-1.78v-5.59h-1.64v-1.19h1.64v-2.18Z"/><path d="M441.74,151.81a3.26,3.26,0,0,1,2.66-1.26q2.87,0,2.89,3.23v6h-1.54v-6a2.1,2.1,0,0,0-.45-1.44,1.78,1.78,0,0,0-1.36-.47,2.22,2.22,0,0,0-1.32.4,2.73,2.73,0,0,0-.88,1.05v6.43H440.2v-12.8h1.54Z"/><path d="M453.34,159.9a4,4,0,0,1-3-1.2,4.49,4.49,0,0,1-1.14-3.22v-.29a5.41,5.41,0,0,1,.51-2.39,4,4,0,0,1,1.43-1.65,3.61,3.61,0,0,1,2-.6,3.38,3.38,0,0,1,2.73,1.16,5,5,0,0,1,1,3.32v.64h-6.1a3.15,3.15,0,0,0,.78,2.15,2.41,2.41,0,0,0,1.89.82,2.72,2.72,0,0,0,1.39-.33,3.73,3.73,0,0,0,1-.88l.94.73A3.79,3.79,0,0,1,453.34,159.9Zm-.19-8.08a2.06,2.06,0,0,0-1.57.68,3.31,3.31,0,0,0-.78,1.9h4.51v-.11a2.88,2.88,0,0,0-.63-1.82A1.94,1.94,0,0,0,453.15,151.82Z"/><path d="M468.43,158.84a3.26,3.26,0,0,1-2.64,1.06,2.85,2.85,0,0,1-2.2-.83,3.68,3.68,0,0,1-.76-2.48v-5.87h1.54v5.82c0,1.37.56,2.05,1.67,2.05a2.3,2.3,0,0,0,2.35-1.31v-6.56h1.54v9h-1.47Z"/><path d="M477.52,157.34a1.15,1.15,0,0,0-.47-1,4.4,4.4,0,0,0-1.64-.59,8.13,8.13,0,0,1-1.86-.6,2.65,2.65,0,0,1-1-.84,2,2,0,0,1-.33-1.15,2.36,2.36,0,0,1,.94-1.87,3.69,3.69,0,0,1,2.4-.77,3.83,3.83,0,0,1,2.49.79,2.54,2.54,0,0,1,1,2h-1.55a1.38,1.38,0,0,0-.54-1.09,2,2,0,0,0-1.35-.46,2.09,2.09,0,0,0-1.32.37,1.13,1.13,0,0,0-.47.95.93.93,0,0,0,.44.85,5.24,5.24,0,0,0,1.59.54,8.53,8.53,0,0,1,1.87.61,2.72,2.72,0,0,1,1.07.87,2.1,2.1,0,0,1,.34,1.23,2.3,2.3,0,0,1-1,1.93,4,4,0,0,1-2.51.73,4.51,4.51,0,0,1-1.92-.38,3.13,3.13,0,0,1-1.3-1.07,2.55,2.55,0,0,1-.47-1.49h1.54a1.58,1.58,0,0,0,.62,1.23,2.4,2.4,0,0,0,1.53.45,2.44,2.44,0,0,0,1.4-.35A1.08,1.08,0,0,0,477.52,157.34Z"/><path d="M484.81,159.9a4,4,0,0,1-3-1.2,4.46,4.46,0,0,1-1.15-3.22v-.29a5.41,5.41,0,0,1,.51-2.39,4,4,0,0,1,1.44-1.65,3.55,3.55,0,0,1,2-.6,3.38,3.38,0,0,1,2.73,1.16,5,5,0,0,1,1,3.32v.64h-6.11a3.15,3.15,0,0,0,.78,2.15,2.45,2.45,0,0,0,1.9.82,2.71,2.71,0,0,0,1.38-.33,3.45,3.45,0,0,0,1-.88l.94.73A3.78,3.78,0,0,1,484.81,159.9Zm-.19-8.08a2.05,2.05,0,0,0-1.56.68,3.25,3.25,0,0,0-.79,1.9h4.52v-.11a2.94,2.94,0,0,0-.64-1.82A1.92,1.92,0,0,0,484.62,151.82Z"/><path d="M493.93,155.14a5.3,5.3,0,0,1,.52-2.38,3.85,3.85,0,0,1,3.57-2.21,3.81,3.81,0,0,1,3,1.28,4.9,4.9,0,0,1,1.14,3.39v.11a5.31,5.31,0,0,1-.51,2.36,3.75,3.75,0,0,1-1.44,1.63,4,4,0,0,1-2.15.58,3.79,3.79,0,0,1-3-1.27,4.89,4.89,0,0,1-1.14-3.38Zm1.55.19a3.83,3.83,0,0,0,.7,2.41,2.22,2.22,0,0,0,1.86.9,2.19,2.19,0,0,0,1.86-.92,4.15,4.15,0,0,0,.7-2.58,3.85,3.85,0,0,0-.71-2.4,2.24,2.24,0,0,0-1.87-.92,2.21,2.21,0,0,0-1.84.91A4.15,4.15,0,0,0,495.48,155.33Z"/><path d="M504.83,159.74v-7.83H503.4v-1.19h1.43v-.93a3.11,3.11,0,0,1,.77-2.24,3,3,0,0,1,2.2-.79,4.21,4.21,0,0,1,1.05.14l-.08,1.24a4.43,4.43,0,0,0-.83-.07,1.51,1.51,0,0,0-1.16.44,1.78,1.78,0,0,0-.41,1.26v.95h1.93v1.19h-1.93v7.83Z"/><path d="M516.31,148.54v2.18H518v1.19h-1.69v5.6a1.24,1.24,0,0,0,.23.81.94.94,0,0,0,.77.27,3.52,3.52,0,0,0,.73-.1v1.25a4.54,4.54,0,0,1-1.19.16,1.93,1.93,0,0,1-1.55-.62,2.7,2.7,0,0,1-.53-1.78v-5.59h-1.64v-1.19h1.64v-2.18Z"/><path d="M523.54,159.9a4,4,0,0,1-3-1.2,4.5,4.5,0,0,1-1.15-3.22v-.29a5.42,5.42,0,0,1,.52-2.39,4,4,0,0,1,1.43-1.65,3.58,3.58,0,0,1,2-.6,3.38,3.38,0,0,1,2.73,1.16,5,5,0,0,1,1,3.32v.64H521a3.15,3.15,0,0,0,.78,2.15,2.41,2.41,0,0,0,1.89.82,2.66,2.66,0,0,0,1.38-.33,3.62,3.62,0,0,0,1-.88l.94.73A3.79,3.79,0,0,1,523.54,159.9Zm-.19-8.08a2.06,2.06,0,0,0-1.57.68,3.31,3.31,0,0,0-.78,1.9h4.51v-.11a2.88,2.88,0,0,0-.63-1.82A1.94,1.94,0,0,0,523.35,151.82Z"/><path d="M532.45,158.64a2.22,2.22,0,0,0,1.45-.5,1.74,1.74,0,0,0,.68-1.25H536a2.82,2.82,0,0,1-.54,1.48,3.42,3.42,0,0,1-1.31,1.12,3.84,3.84,0,0,1-1.74.41,3.7,3.7,0,0,1-2.92-1.23,4.87,4.87,0,0,1-1.09-3.36v-.26a5.47,5.47,0,0,1,.48-2.34,3.72,3.72,0,0,1,1.39-1.59,3.91,3.91,0,0,1,2.14-.57,3.64,3.64,0,0,1,2.52.91,3.27,3.27,0,0,1,1.07,2.36h-1.46a2.16,2.16,0,0,0-.66-1.44,2.09,2.09,0,0,0-1.47-.56,2.13,2.13,0,0,0-1.82.85,3.88,3.88,0,0,0-.65,2.44v.29a3.87,3.87,0,0,0,.64,2.4A2.17,2.17,0,0,0,532.45,158.64Z"/><path d="M539.31,151.81a3.3,3.3,0,0,1,2.67-1.26q2.87,0,2.88,3.23v6h-1.54v-6a2.05,2.05,0,0,0-.44-1.44,1.82,1.82,0,0,0-1.37-.47,2.17,2.17,0,0,0-1.31.4,2.75,2.75,0,0,0-.89,1.05v6.43h-1.54v-12.8h1.54Z"/><path d="M548.63,150.72l0,1.13a3.31,3.31,0,0,1,2.7-1.3c1.9,0,2.87,1.08,2.88,3.23v6h-1.54v-6a2,2,0,0,0-.45-1.44,1.78,1.78,0,0,0-1.36-.47,2.17,2.17,0,0,0-1.31.4,2.75,2.75,0,0,0-.89,1.05v6.43h-1.54v-9Z"/><path d="M556.6,148.33a.92.92,0,0,1,.23-.64.84.84,0,0,1,.67-.25.89.89,0,0,1,.69.25,1,1,0,0,1,.23.64.83.83,0,0,1-.92.87.83.83,0,0,1-.9-.87Zm1.66,11.41h-1.54v-9h1.54Z"/><path d="M564.35,158.64a2.18,2.18,0,0,0,1.44-.5,1.74,1.74,0,0,0,.68-1.25h1.46a2.89,2.89,0,0,1-.53,1.48,3.53,3.53,0,0,1-1.32,1.12,3.83,3.83,0,0,1-1.73.41,3.7,3.7,0,0,1-2.93-1.23,4.87,4.87,0,0,1-1.09-3.36v-.26a5.47,5.47,0,0,1,.48-2.34,3.78,3.78,0,0,1,1.39-1.59,3.93,3.93,0,0,1,2.14-.57,3.64,3.64,0,0,1,2.52.91,3.23,3.23,0,0,1,1.07,2.36h-1.46a2.11,2.11,0,0,0-.66-1.44,2.09,2.09,0,0,0-1.47-.56,2.13,2.13,0,0,0-1.82.85,3.94,3.94,0,0,0-.65,2.44v.29a3.94,3.94,0,0,0,.64,2.4A2.18,2.18,0,0,0,564.35,158.64Z"/><path d="M575.23,159.74a3.4,3.4,0,0,1-.22-1,3.43,3.43,0,0,1-2.56,1.11,3.2,3.2,0,0,1-2.19-.75,2.44,2.44,0,0,1-.86-1.91,2.55,2.55,0,0,1,1.08-2.19,5,5,0,0,1,3-.78H575v-.71a1.74,1.74,0,0,0-.48-1.29,2,2,0,0,0-1.43-.48,2.22,2.22,0,0,0-1.38.42,1.22,1.22,0,0,0-.56,1h-1.55a2.12,2.12,0,0,1,.48-1.3,3.22,3.22,0,0,1,1.3-1,4.42,4.42,0,0,1,1.8-.37,3.56,3.56,0,0,1,2.44.78,2.81,2.81,0,0,1,.92,2.15v4.15a5.06,5.06,0,0,0,.32,2v.14Zm-2.56-1.18a2.75,2.75,0,0,0,1.38-.37,2.33,2.33,0,0,0,.94-1v-1.85h-1.21c-1.89,0-2.83.55-2.83,1.66a1.4,1.4,0,0,0,.48,1.13A1.82,1.82,0,0,0,572.67,158.56Z"/><path d="M580.62,159.74h-1.54v-12.8h1.54Z"/><path d="M297.17,169v2.18h1.68v1.19h-1.68V178a1.24,1.24,0,0,0,.22.81,1,1,0,0,0,.77.27,3.44,3.44,0,0,0,.73-.1v1.25a4.46,4.46,0,0,1-1.18.16,1.94,1.94,0,0,1-1.56-.62,2.7,2.7,0,0,1-.52-1.78v-5.59H294V171.2h1.65V169Z"/><path d="M300.08,175.62a5.3,5.3,0,0,1,.52-2.38,3.84,3.84,0,0,1,1.45-1.63,3.88,3.88,0,0,1,2.12-.58,3.81,3.81,0,0,1,3,1.28,4.94,4.94,0,0,1,1.13,3.39v.11a5.31,5.31,0,0,1-.5,2.36,3.88,3.88,0,0,1-1.44,1.63,4,4,0,0,1-2.16.58,3.79,3.79,0,0,1-3-1.27,4.88,4.88,0,0,1-1.13-3.38Zm1.55.19a3.89,3.89,0,0,0,.69,2.41,2.23,2.23,0,0,0,1.86.9,2.19,2.19,0,0,0,1.87-.92,4.21,4.21,0,0,0,.69-2.58,3.84,3.84,0,0,0-.7-2.4,2.26,2.26,0,0,0-1.87-.92,2.19,2.19,0,0,0-1.84.91A4.15,4.15,0,0,0,301.63,175.81Z"/><path d="M309.81,175.62a5.3,5.3,0,0,1,.52-2.38A3.85,3.85,0,0,1,313.9,171a3.81,3.81,0,0,1,3,1.28A4.9,4.9,0,0,1,318,175.7v.11a5.31,5.31,0,0,1-.51,2.36,3.75,3.75,0,0,1-1.44,1.63,4,4,0,0,1-2.15.58,3.76,3.76,0,0,1-3-1.27,4.89,4.89,0,0,1-1.14-3.38Zm1.55.19a3.89,3.89,0,0,0,.69,2.41,2.25,2.25,0,0,0,1.87.9,2.19,2.19,0,0,0,1.86-.92,4.21,4.21,0,0,0,.7-2.58,3.85,3.85,0,0,0-.71-2.4,2.24,2.24,0,0,0-1.87-.92,2.19,2.19,0,0,0-1.84.91A4.15,4.15,0,0,0,311.36,175.81Z"/><path d="M321.63,180.22h-1.55v-12.8h1.55Z"/><path d="M329.34,177.82a1.13,1.13,0,0,0-.47-1,4.4,4.4,0,0,0-1.64-.59,8.13,8.13,0,0,1-1.86-.6,2.65,2.65,0,0,1-1-.84,2,2,0,0,1-.33-1.15,2.36,2.36,0,0,1,.94-1.87,3.69,3.69,0,0,1,2.4-.77,3.83,3.83,0,0,1,2.49.79,2.54,2.54,0,0,1,.95,2h-1.55a1.38,1.38,0,0,0-.54-1.09,2,2,0,0,0-1.35-.46,2.09,2.09,0,0,0-1.32.37,1.15,1.15,0,0,0-.47,1,.93.93,0,0,0,.44.85,5.24,5.24,0,0,0,1.59.54,8.83,8.83,0,0,1,1.88.61,2.76,2.76,0,0,1,1.06.87,2.1,2.1,0,0,1,.34,1.23,2.3,2.3,0,0,1-1,1.93,4,4,0,0,1-2.51.73,4.51,4.51,0,0,1-1.92-.38,3.13,3.13,0,0,1-1.3-1.07,2.55,2.55,0,0,1-.47-1.49h1.54a1.58,1.58,0,0,0,.62,1.23,2.89,2.89,0,0,0,2.93.1A1.08,1.08,0,0,0,329.34,177.82Z"/><path d="M339.21,169v2.18h1.68v1.19h-1.68V178a1.24,1.24,0,0,0,.22.81,1,1,0,0,0,.77.27,3.44,3.44,0,0,0,.73-.1v1.25a4.46,4.46,0,0,1-1.18.16,1.94,1.94,0,0,1-1.56-.62,2.7,2.7,0,0,1-.52-1.78v-5.59H336V171.2h1.64V169Z"/><path d="M342.12,175.62a5.3,5.3,0,0,1,.52-2.38,3.84,3.84,0,0,1,1.45-1.63,3.88,3.88,0,0,1,2.12-.58,3.81,3.81,0,0,1,3,1.28,4.9,4.9,0,0,1,1.14,3.39v.11a5.31,5.31,0,0,1-.51,2.36,3.88,3.88,0,0,1-1.44,1.63,4,4,0,0,1-2.15.58,3.8,3.8,0,0,1-3-1.27,4.93,4.93,0,0,1-1.13-3.38Zm1.55.19a3.89,3.89,0,0,0,.69,2.41,2.25,2.25,0,0,0,1.87.9,2.19,2.19,0,0,0,1.86-.92,4.21,4.21,0,0,0,.69-2.58,3.84,3.84,0,0,0-.7-2.4,2.24,2.24,0,0,0-1.87-.92,2.19,2.19,0,0,0-1.84.91A4.15,4.15,0,0,0,343.67,175.81Z"/><path d="M356.49,168.81a1,1,0,0,1,.23-.64,1,1,0,0,1,1.36,0,.93.93,0,0,1,.24.64.84.84,0,0,1-.24.62,1,1,0,0,1-1.36,0A.88.88,0,0,1,356.49,168.81Zm1.67,11.41h-1.54v-9h1.54Z"/><path d="M362.07,171.2l.05,1a3.32,3.32,0,0,1,2.67-1.17,2.6,2.6,0,0,1,2.58,1.45,3.49,3.49,0,0,1,1.17-1,3.53,3.53,0,0,1,1.7-.4q3,0,3,3.14v6.05h-1.54v-5.95a2,2,0,0,0-.45-1.45,1.92,1.92,0,0,0-1.48-.48,2,2,0,0,0-1.42.51,2.1,2.1,0,0,0-.66,1.38v6h-1.55v-5.91a1.72,1.72,0,0,0-1.93-2,2.06,2.06,0,0,0-2.07,1.29v6.59h-1.54v-9Z"/><path d="M383.2,175.81a5.35,5.35,0,0,1-.94,3.31,3,3,0,0,1-2.55,1.26,3.3,3.3,0,0,1-2.59-1v4.34h-1.54V171.2H377l.08,1a3.16,3.16,0,0,1,2.61-1.17,3.06,3.06,0,0,1,2.57,1.23,5.44,5.44,0,0,1,.95,3.41Zm-1.54-.18a4,4,0,0,0-.65-2.41,2.12,2.12,0,0,0-1.78-.88,2.29,2.29,0,0,0-2.11,1.24v4.31a2.29,2.29,0,0,0,2.12,1.23,2.08,2.08,0,0,0,1.76-.87A4.34,4.34,0,0,0,381.66,175.63Z"/><path d="M389.52,172.58a4.59,4.59,0,0,0-.76-.06,2,2,0,0,0-2.06,1.3v6.4h-1.54v-9h1.5l0,1a2.43,2.43,0,0,1,2.15-1.21,1.58,1.58,0,0,1,.69.12Z"/><path d="M390.36,175.62a5.3,5.3,0,0,1,.52-2.38,3.85,3.85,0,0,1,3.57-2.21,3.81,3.81,0,0,1,3,1.28,4.9,4.9,0,0,1,1.14,3.39v.11a5.31,5.31,0,0,1-.51,2.36,3.75,3.75,0,0,1-1.44,1.63,4,4,0,0,1-2.15.58,3.76,3.76,0,0,1-3-1.27,4.89,4.89,0,0,1-1.14-3.38Zm1.55.19a3.89,3.89,0,0,0,.69,2.41,2.25,2.25,0,0,0,1.87.9,2.19,2.19,0,0,0,1.86-.92,4.21,4.21,0,0,0,.69-2.58,3.84,3.84,0,0,0-.7-2.4,2.24,2.24,0,0,0-1.87-.92,2.19,2.19,0,0,0-1.84.91A4.15,4.15,0,0,0,391.91,175.81Z"/><path d="M403.35,178.12l2.23-6.92h1.58l-3.23,9h-1.18l-3.27-9h1.58Z"/><path d="M412.27,180.38a4,4,0,0,1-3-1.2,4.46,4.46,0,0,1-1.15-3.22v-.29a5.41,5.41,0,0,1,.51-2.39,4.06,4.06,0,0,1,1.44-1.65,3.57,3.57,0,0,1,2-.6,3.39,3.39,0,0,1,2.74,1.16,5,5,0,0,1,1,3.32v.64h-6.11a3.25,3.25,0,0,0,.78,2.15,2.45,2.45,0,0,0,1.9.82,2.71,2.71,0,0,0,1.38-.33,3.45,3.45,0,0,0,1-.88l.95.73A3.8,3.8,0,0,1,412.27,180.38Zm-.19-8.08a2.05,2.05,0,0,0-1.56.68,3.25,3.25,0,0,0-.79,1.9h4.52v-.11a2.94,2.94,0,0,0-.63-1.82A2,2,0,0,0,412.08,172.3Z"/><path d="M421.43,175.63a5.3,5.3,0,0,1,1-3.35,3.36,3.36,0,0,1,5.16-.08l.07-1h1.41V180a3.67,3.67,0,0,1-1,2.76,3.83,3.83,0,0,1-2.78,1,4.57,4.57,0,0,1-1.91-.42,3.3,3.3,0,0,1-1.43-1.14l.8-.93a3,3,0,0,0,2.43,1.23,2.33,2.33,0,0,0,1.75-.64,2.4,2.4,0,0,0,.63-1.78v-.77a3.17,3.17,0,0,1-2.52,1.06,3.08,3.08,0,0,1-2.57-1.27A5.6,5.6,0,0,1,421.43,175.63Zm1.55.18a4,4,0,0,0,.63,2.39,2,2,0,0,0,1.75.87,2.26,2.26,0,0,0,2.14-1.32v-4.12a2.28,2.28,0,0,0-2.13-1.29,2,2,0,0,0-1.75.88A4.32,4.32,0,0,0,423,175.81Z"/><path d="M435.73,172.58a4.38,4.38,0,0,0-.75-.06,2,2,0,0,0-2.06,1.3v6.4h-1.54v-9h1.5l0,1a2.42,2.42,0,0,1,2.15-1.21,1.5,1.5,0,0,1,.68.12Z"/><path d="M440.73,180.38a4,4,0,0,1-3-1.2A4.46,4.46,0,0,1,436.6,176v-.29a5.41,5.41,0,0,1,.51-2.39,4,4,0,0,1,1.44-1.65,3.55,3.55,0,0,1,2-.6,3.38,3.38,0,0,1,2.73,1.16,5,5,0,0,1,1,3.32v.64h-6.11a3.15,3.15,0,0,0,.78,2.15,2.45,2.45,0,0,0,1.9.82,2.71,2.71,0,0,0,1.38-.33,3.45,3.45,0,0,0,1-.88l.94.73A3.78,3.78,0,0,1,440.73,180.38Zm-.19-8.08A2.05,2.05,0,0,0,439,173a3.25,3.25,0,0,0-.79,1.9h4.52v-.11a2.94,2.94,0,0,0-.64-1.82A1.92,1.92,0,0,0,440.54,172.3Z"/><path d="M449.77,180.38a4,4,0,0,1-3-1.2,4.46,4.46,0,0,1-1.15-3.22v-.29a5.41,5.41,0,0,1,.51-2.39,4.06,4.06,0,0,1,1.44-1.65,3.57,3.57,0,0,1,2-.6,3.39,3.39,0,0,1,2.74,1.16,5,5,0,0,1,1,3.32v.64h-6.11a3.25,3.25,0,0,0,.78,2.15,2.45,2.45,0,0,0,1.9.82,2.71,2.71,0,0,0,1.38-.33,3.45,3.45,0,0,0,1-.88l.95.73A3.8,3.8,0,0,1,449.77,180.38Zm-.19-8.08A2.05,2.05,0,0,0,448,173a3.25,3.25,0,0,0-.79,1.9h4.52v-.11a2.94,2.94,0,0,0-.63-1.82A2,2,0,0,0,449.58,172.3Z"/><path d="M456.53,171.2l.05,1.13a3.31,3.31,0,0,1,2.7-1.3q2.87,0,2.89,3.23v6h-1.54v-6a2.1,2.1,0,0,0-.45-1.44,1.79,1.79,0,0,0-1.36-.47,2.22,2.22,0,0,0-1.32.4,2.73,2.73,0,0,0-.88,1v6.43h-1.54v-9Z"/><path d="M466,172.29A3.28,3.28,0,0,1,468.7,171c1.9,0,2.87,1.08,2.88,3.23v6H470v-6a2.05,2.05,0,0,0-.44-1.44,1.82,1.82,0,0,0-1.37-.47,2.17,2.17,0,0,0-1.31.4,2.75,2.75,0,0,0-.89,1v6.43h-1.54v-12.8H466Z"/><path d="M473.48,175.62a5.43,5.43,0,0,1,.52-2.38,3.85,3.85,0,0,1,3.57-2.21,3.79,3.79,0,0,1,3,1.28,4.9,4.9,0,0,1,1.14,3.39v.11a5.45,5.45,0,0,1-.5,2.36,3.88,3.88,0,0,1-1.44,1.63,4,4,0,0,1-2.16.58,3.79,3.79,0,0,1-3-1.27,4.89,4.89,0,0,1-1.14-3.38Zm1.55.19a3.9,3.9,0,0,0,.7,2.41,2.22,2.22,0,0,0,1.86.9,2.19,2.19,0,0,0,1.87-.92,4.21,4.21,0,0,0,.69-2.58,3.84,3.84,0,0,0-.7-2.4,2.26,2.26,0,0,0-1.88-.92,2.21,2.21,0,0,0-1.84.91A4.21,4.21,0,0,0,475,175.81Z"/><path d="M489.19,179.32a3.26,3.26,0,0,1-2.64,1.06,2.85,2.85,0,0,1-2.2-.83,3.68,3.68,0,0,1-.76-2.48V171.2h1.54V177c0,1.37.56,2,1.67,2a2.3,2.3,0,0,0,2.35-1.31V171.2h1.54v9h-1.46Z"/><path d="M498.28,177.82a1.13,1.13,0,0,0-.47-1,4.4,4.4,0,0,0-1.64-.59,8.13,8.13,0,0,1-1.86-.6,2.61,2.61,0,0,1-1-.84,2,2,0,0,1-.33-1.15,2.35,2.35,0,0,1,.93-1.87,3.69,3.69,0,0,1,2.4-.77,3.83,3.83,0,0,1,2.49.79,2.54,2.54,0,0,1,.95,2h-1.55a1.38,1.38,0,0,0-.54-1.09,2,2,0,0,0-1.35-.46,2.09,2.09,0,0,0-1.32.37,1.15,1.15,0,0,0-.47,1,1,1,0,0,0,.44.85,5.33,5.33,0,0,0,1.6.54,8.91,8.91,0,0,1,1.87.61,2.76,2.76,0,0,1,1.06.87,2.1,2.1,0,0,1,.34,1.23,2.3,2.3,0,0,1-1,1.93,4,4,0,0,1-2.51.73,4.51,4.51,0,0,1-1.92-.38,3.13,3.13,0,0,1-1.3-1.07,2.55,2.55,0,0,1-.47-1.49h1.54a1.61,1.61,0,0,0,.62,1.23,2.89,2.89,0,0,0,2.93.1A1.08,1.08,0,0,0,498.28,177.82Z"/><path d="M505.57,180.38a4,4,0,0,1-3-1.2,4.46,4.46,0,0,1-1.15-3.22v-.29a5.41,5.41,0,0,1,.51-2.39,4.06,4.06,0,0,1,1.44-1.65,3.57,3.57,0,0,1,2-.6,3.39,3.39,0,0,1,2.74,1.16,5,5,0,0,1,1,3.32v.64H503a3.25,3.25,0,0,0,.78,2.15,2.45,2.45,0,0,0,1.9.82,2.71,2.71,0,0,0,1.38-.33,3.45,3.45,0,0,0,1-.88l1,.73A3.8,3.8,0,0,1,505.57,180.38Zm-.19-8.08a2.05,2.05,0,0,0-1.56.68,3.25,3.25,0,0,0-.79,1.9h4.52v-.11a2.94,2.94,0,0,0-.63-1.82A2,2,0,0,0,505.38,172.3Z"/><path d="M514.73,175.63a5.3,5.3,0,0,1,1-3.35,3.36,3.36,0,0,1,5.16-.08l.07-1h1.41V180a3.67,3.67,0,0,1-1,2.76,3.84,3.84,0,0,1-2.79,1,4.56,4.56,0,0,1-1.9-.42,3.3,3.3,0,0,1-1.43-1.14l.8-.93a3,3,0,0,0,2.43,1.23,2.33,2.33,0,0,0,1.75-.64,2.4,2.4,0,0,0,.63-1.78v-.77a3.18,3.18,0,0,1-2.53,1.06,3.07,3.07,0,0,1-2.56-1.27A5.6,5.6,0,0,1,514.73,175.63Zm1.55.18a4,4,0,0,0,.63,2.39,2,2,0,0,0,1.75.87,2.26,2.26,0,0,0,2.14-1.32v-4.12a2.28,2.28,0,0,0-2.13-1.29,2,2,0,0,0-1.75.88A4.32,4.32,0,0,0,516.28,175.81Z"/><path d="M530.24,180.22a3.4,3.4,0,0,1-.22-.95,3.43,3.43,0,0,1-2.56,1.11,3.2,3.2,0,0,1-2.19-.75,2.43,2.43,0,0,1-.85-1.91,2.54,2.54,0,0,1,1.07-2.19,5,5,0,0,1,3-.78H530V174a1.74,1.74,0,0,0-.48-1.29,2,2,0,0,0-1.43-.48,2.22,2.22,0,0,0-1.38.42,1.25,1.25,0,0,0-.56,1H524.6a2.12,2.12,0,0,1,.48-1.3,3.22,3.22,0,0,1,1.3-1,4.46,4.46,0,0,1,1.8-.37,3.54,3.54,0,0,1,2.44.78,2.81,2.81,0,0,1,.92,2.15v4.15a5.06,5.06,0,0,0,.32,2v.14ZM527.68,179a2.72,2.72,0,0,0,1.38-.37,2.27,2.27,0,0,0,.94-1v-1.85h-1.21c-1.89,0-2.83.55-2.83,1.66a1.4,1.4,0,0,0,.48,1.13A1.82,1.82,0,0,0,527.68,179Z"/><path d="M539.21,177.82a1.15,1.15,0,0,0-.47-1,4.47,4.47,0,0,0-1.64-.59,8,8,0,0,1-1.86-.6,2.65,2.65,0,0,1-1-.84,2,2,0,0,1-.33-1.15,2.33,2.33,0,0,1,.94-1.87,3.66,3.66,0,0,1,2.4-.77,3.78,3.78,0,0,1,2.48.79,2.52,2.52,0,0,1,1,2h-1.55a1.38,1.38,0,0,0-.54-1.09,2,2,0,0,0-1.35-.46,2.07,2.07,0,0,0-1.32.37,1.14,1.14,0,0,0-.48,1,1,1,0,0,0,.44.85,5.44,5.44,0,0,0,1.6.54,8.72,8.72,0,0,1,1.87.61,2.69,2.69,0,0,1,1.06.87,2.1,2.1,0,0,1,.35,1.23,2.28,2.28,0,0,1-1,1.93,4,4,0,0,1-2.51.73,4.43,4.43,0,0,1-1.91-.38,3.16,3.16,0,0,1-1.31-1.07,2.63,2.63,0,0,1-.47-1.49h1.54a1.59,1.59,0,0,0,.63,1.23,2.39,2.39,0,0,0,1.52.45,2.46,2.46,0,0,0,1.41-.35A1.1,1.1,0,0,0,539.21,177.82Z"/><path d="M307.6,199.6a2.2,2.2,0,0,0,1.45-.5,1.74,1.74,0,0,0,.68-1.25h1.46a2.82,2.82,0,0,1-.54,1.48,3.42,3.42,0,0,1-1.31,1.12,3.84,3.84,0,0,1-1.74.41,3.7,3.7,0,0,1-2.92-1.23,4.87,4.87,0,0,1-1.09-3.36V196a5.47,5.47,0,0,1,.48-2.34,3.72,3.72,0,0,1,1.39-1.59,3.91,3.91,0,0,1,2.14-.57,3.64,3.64,0,0,1,2.52.91,3.27,3.27,0,0,1,1.07,2.36h-1.46a2.16,2.16,0,0,0-.66-1.44,2.09,2.09,0,0,0-1.47-.56,2.13,2.13,0,0,0-1.82.85,3.94,3.94,0,0,0-.65,2.44v.29a3.87,3.87,0,0,0,.64,2.4A2.17,2.17,0,0,0,307.6,199.6Z"/><path d="M318.49,200.7a3.4,3.4,0,0,1-.22-.95,3.43,3.43,0,0,1-2.56,1.11,3.2,3.2,0,0,1-2.19-.75,2.44,2.44,0,0,1-.86-1.91,2.56,2.56,0,0,1,1.07-2.19,5.07,5.07,0,0,1,3-.78h1.5v-.71a1.71,1.71,0,0,0-.49-1.29,1.92,1.92,0,0,0-1.42-.48,2.22,2.22,0,0,0-1.38.42,1.22,1.22,0,0,0-.56,1h-1.55a2.12,2.12,0,0,1,.48-1.3,3.22,3.22,0,0,1,1.3-1,4.39,4.39,0,0,1,1.8-.37,3.56,3.56,0,0,1,2.44.78,2.81,2.81,0,0,1,.92,2.15v4.15a5.08,5.08,0,0,0,.31,2v.14Zm-2.56-1.18a2.75,2.75,0,0,0,1.38-.37,2.33,2.33,0,0,0,.94-1v-1.85H317c-1.89,0-2.83.55-2.83,1.66a1.4,1.4,0,0,0,.48,1.13A1.8,1.8,0,0,0,315.93,199.52Z"/><path d="M323.88,200.7h-1.54V187.9h1.54Z"/><path d="M330,199.6a2.18,2.18,0,0,0,1.44-.5,1.75,1.75,0,0,0,.69-1.25h1.46a2.82,2.82,0,0,1-.54,1.48,3.42,3.42,0,0,1-1.31,1.12,3.9,3.9,0,0,1-1.74.41,3.73,3.73,0,0,1-2.93-1.23,4.92,4.92,0,0,1-1.08-3.36V196a5.47,5.47,0,0,1,.48-2.34,3.65,3.65,0,0,1,1.39-1.59,3.91,3.91,0,0,1,2.14-.57,3.64,3.64,0,0,1,2.52.91,3.27,3.27,0,0,1,1.07,2.36h-1.46a2.2,2.2,0,0,0-.66-1.44,2.09,2.09,0,0,0-1.47-.56,2.15,2.15,0,0,0-1.83.85,3.94,3.94,0,0,0-.64,2.44v.29a3.87,3.87,0,0,0,.64,2.4A2.17,2.17,0,0,0,330,199.6Z"/><path d="M340.85,199.8a3.26,3.26,0,0,1-2.64,1.06A2.82,2.82,0,0,1,336,200a3.62,3.62,0,0,1-.76-2.48v-5.87h1.54v5.82c0,1.37.55,2.05,1.67,2.05a2.31,2.31,0,0,0,2.35-1.31v-6.56h1.54v9h-1.47Z"/><path d="M346.36,200.7h-1.54V187.9h1.54Z"/><path d="M354.4,200.7a3.4,3.4,0,0,1-.22-.95,3.45,3.45,0,0,1-2.57,1.11,3.19,3.19,0,0,1-2.18-.75,2.44,2.44,0,0,1-.86-1.91,2.56,2.56,0,0,1,1.07-2.19,5.06,5.06,0,0,1,3-.78h1.5v-.71a1.74,1.74,0,0,0-.48-1.29,1.94,1.94,0,0,0-1.42-.48,2.27,2.27,0,0,0-1.39.42,1.24,1.24,0,0,0-.55,1h-1.55a2.1,2.1,0,0,1,.47-1.3,3.29,3.29,0,0,1,1.3-1,4.47,4.47,0,0,1,1.81-.37,3.56,3.56,0,0,1,2.44.78,2.85,2.85,0,0,1,.92,2.15v4.15a5.08,5.08,0,0,0,.31,2v.14Zm-2.56-1.18a2.69,2.69,0,0,0,1.37-.37,2.21,2.21,0,0,0,.94-1v-1.85H353c-1.89,0-2.84.55-2.84,1.66a1.38,1.38,0,0,0,.49,1.13A1.8,1.8,0,0,0,351.84,199.52Z"/><path d="M360.21,189.5v2.18h1.68v1.19h-1.68v5.6a1.24,1.24,0,0,0,.22.81,1,1,0,0,0,.77.27,3.52,3.52,0,0,0,.73-.1v1.25a4.52,4.52,0,0,1-1.18.16,1.94,1.94,0,0,1-1.56-.62,2.7,2.7,0,0,1-.53-1.78v-5.59H357v-1.19h1.64V189.5Z"/><path d="M363.7,189.29a.92.92,0,0,1,.23-.64.85.85,0,0,1,.67-.25.89.89,0,0,1,.69.25,1,1,0,0,1,.23.64.83.83,0,0,1-.92.87.85.85,0,0,1-.67-.25A.84.84,0,0,1,363.7,189.29Zm1.66,11.41h-1.54v-9h1.54Z"/><path d="M367.42,196.1a5.43,5.43,0,0,1,.52-2.38,3.85,3.85,0,0,1,3.57-2.21,3.81,3.81,0,0,1,3,1.28,4.9,4.9,0,0,1,1.14,3.39v.11a5.45,5.45,0,0,1-.5,2.36,3.83,3.83,0,0,1-1.45,1.63,4,4,0,0,1-2.15.58,3.79,3.79,0,0,1-3-1.27,4.89,4.89,0,0,1-1.14-3.38Zm1.55.19a3.83,3.83,0,0,0,.7,2.41,2.37,2.37,0,0,0,3.73,0,4.21,4.21,0,0,0,.69-2.58,3.85,3.85,0,0,0-.71-2.4,2.24,2.24,0,0,0-1.87-.92,2.21,2.21,0,0,0-1.84.91A4.21,4.21,0,0,0,369,196.29Z"/><path d="M379,191.68l.05,1.13a3.31,3.31,0,0,1,2.7-1.3q2.87,0,2.89,3.23v6h-1.55v-6a2.05,2.05,0,0,0-.44-1.44,1.79,1.79,0,0,0-1.36-.47,2.22,2.22,0,0,0-1.32.4,2.84,2.84,0,0,0-.89,1.05v6.43h-1.54v-9Z"/><path d="M392.23,198.3a1.15,1.15,0,0,0-.47-1,4.47,4.47,0,0,0-1.64-.59,8.13,8.13,0,0,1-1.86-.6,2.65,2.65,0,0,1-1-.84,2,2,0,0,1-.33-1.15,2.36,2.36,0,0,1,.94-1.87,3.68,3.68,0,0,1,2.4-.77,3.78,3.78,0,0,1,2.48.79,2.52,2.52,0,0,1,1,2h-1.55a1.38,1.38,0,0,0-.54-1.09,2,2,0,0,0-1.35-.46,2.09,2.09,0,0,0-1.32.37,1.14,1.14,0,0,0-.48.95.94.94,0,0,0,.45.85,5.24,5.24,0,0,0,1.59.54,8.53,8.53,0,0,1,1.87.61,2.8,2.8,0,0,1,1.07.87,2.1,2.1,0,0,1,.34,1.23,2.28,2.28,0,0,1-1,1.93,4,4,0,0,1-2.5.73,4.48,4.48,0,0,1-1.92-.38,3.07,3.07,0,0,1-1.3-1.07,2.57,2.57,0,0,1-.48-1.49h1.55a1.55,1.55,0,0,0,.62,1.23,2.4,2.4,0,0,0,1.53.45,2.44,2.44,0,0,0,1.4-.35A1.1,1.1,0,0,0,392.23,198.3Z"/><path d="M395.73,203.11l-.88-.6a3.91,3.91,0,0,0,.82-2.25v-1.39h1.51v1.21a3.85,3.85,0,0,1-.41,1.68A4,4,0,0,1,395.73,203.11Z"/><path d="M408.6,198.3a1.13,1.13,0,0,0-.47-1,4.4,4.4,0,0,0-1.64-.59,8.13,8.13,0,0,1-1.86-.6,2.69,2.69,0,0,1-1-.84,2,2,0,0,1-.33-1.15,2.33,2.33,0,0,1,.94-1.87,3.65,3.65,0,0,1,2.39-.77,3.83,3.83,0,0,1,2.49.79,2.54,2.54,0,0,1,.95,2h-1.55a1.4,1.4,0,0,0-.53-1.09,2,2,0,0,0-1.36-.46,2.09,2.09,0,0,0-1.32.37,1.15,1.15,0,0,0-.47.95,1,1,0,0,0,.44.85,5.44,5.44,0,0,0,1.6.54,8.72,8.72,0,0,1,1.87.61,2.69,2.69,0,0,1,1.06.87,2.1,2.1,0,0,1,.35,1.23,2.31,2.31,0,0,1-1,1.93,4,4,0,0,1-2.51.73,4.51,4.51,0,0,1-1.92-.38,3.13,3.13,0,0,1-1.3-1.07,2.63,2.63,0,0,1-.47-1.49h1.54a1.61,1.61,0,0,0,.62,1.23,2.44,2.44,0,0,0,1.53.45,2.5,2.5,0,0,0,1.41-.35A1.09,1.09,0,0,0,408.6,198.3Z"/><path d="M417.72,200.7a3.4,3.4,0,0,1-.22-.95,3.43,3.43,0,0,1-2.56,1.11,3.2,3.2,0,0,1-2.19-.75,2.43,2.43,0,0,1-.85-1.91A2.54,2.54,0,0,1,413,196a5,5,0,0,1,3-.78h1.5v-.71a1.74,1.74,0,0,0-.48-1.29,2,2,0,0,0-1.43-.48,2.22,2.22,0,0,0-1.38.42,1.25,1.25,0,0,0-.56,1h-1.55a2.12,2.12,0,0,1,.48-1.3,3.22,3.22,0,0,1,1.3-1,4.46,4.46,0,0,1,1.8-.37,3.54,3.54,0,0,1,2.44.78,2.81,2.81,0,0,1,.92,2.15v4.15a5.06,5.06,0,0,0,.32,2v.14Zm-2.56-1.18a2.72,2.72,0,0,0,1.38-.37,2.33,2.33,0,0,0,.94-1v-1.85h-1.21c-1.89,0-2.83.55-2.83,1.66a1.4,1.4,0,0,0,.48,1.13A1.82,1.82,0,0,0,415.16,199.52Z"/><path d="M423.53,189.5v2.18h1.68v1.19h-1.68v5.6a1.24,1.24,0,0,0,.22.81,1,1,0,0,0,.77.27,3.44,3.44,0,0,0,.73-.1v1.25a4.46,4.46,0,0,1-1.18.16,1.94,1.94,0,0,1-1.56-.62,2.7,2.7,0,0,1-.52-1.78v-5.59h-1.64v-1.19H422V189.5Z"/><path d="M430.75,200.86a4,4,0,0,1-3-1.2,4.46,4.46,0,0,1-1.15-3.22v-.29a5.41,5.41,0,0,1,.51-2.39,4.06,4.06,0,0,1,1.44-1.65,3.57,3.57,0,0,1,2-.6,3.4,3.4,0,0,1,2.74,1.16,5,5,0,0,1,1,3.32v.64h-6.11a3.2,3.2,0,0,0,.78,2.15,2.45,2.45,0,0,0,1.9.82,2.71,2.71,0,0,0,1.38-.33,3.45,3.45,0,0,0,1-.88l.94.73A3.77,3.77,0,0,1,430.75,200.86Zm-.19-8.08a2.05,2.05,0,0,0-1.56.68,3.25,3.25,0,0,0-.79,1.9h4.52v-.11a2.94,2.94,0,0,0-.63-1.82A2,2,0,0,0,430.56,192.78Z"/><path d="M437.73,200.7h-1.54V187.9h1.54Z"/><path d="M441.87,200.7h-1.54V187.9h1.54Z"/><path d="M444.35,189.29a.92.92,0,0,1,.23-.64.84.84,0,0,1,.67-.25.89.89,0,0,1,.69.25,1,1,0,0,1,.23.64.83.83,0,0,1-.92.87.83.83,0,0,1-.9-.87ZM446,200.7h-1.54v-9H446Z"/><path d="M450.57,189.5v2.18h1.68v1.19h-1.68v5.6a1.24,1.24,0,0,0,.23.81.94.94,0,0,0,.76.27,3.6,3.6,0,0,0,.74-.1v1.25a4.54,4.54,0,0,1-1.19.16,1.94,1.94,0,0,1-1.56-.62,2.7,2.7,0,0,1-.52-1.78v-5.59h-1.64v-1.19H449V189.5Z"/><path d="M457.8,200.86a4,4,0,0,1-3-1.2,4.5,4.5,0,0,1-1.15-3.22v-.29a5.28,5.28,0,0,1,.52-2.39,4,4,0,0,1,1.43-1.65,3.57,3.57,0,0,1,2-.6,3.39,3.39,0,0,1,2.74,1.16,5,5,0,0,1,1,3.32v.64H455.2a3.25,3.25,0,0,0,.78,2.15,2.45,2.45,0,0,0,1.9.82,2.69,2.69,0,0,0,1.38-.33,3.45,3.45,0,0,0,1-.88l.95.73A3.79,3.79,0,0,1,457.8,200.86Zm-.2-8.08a2.05,2.05,0,0,0-1.56.68,3.32,3.32,0,0,0-.79,1.9h4.52v-.11a2.88,2.88,0,0,0-.63-1.82A2,2,0,0,0,457.6,192.78Z"/><path d="M468.77,191.68l0,1a3.34,3.34,0,0,1,2.68-1.17,2.58,2.58,0,0,1,2.57,1.45,3.49,3.49,0,0,1,1.17-1.05,3.54,3.54,0,0,1,1.71-.4q3,0,3,3.14v6h-1.54v-5.95a2,2,0,0,0-.44-1.45,1.93,1.93,0,0,0-1.48-.48,2.07,2.07,0,0,0-1.43.51,2.2,2.2,0,0,0-.66,1.38v6h-1.55v-5.91a1.72,1.72,0,0,0-1.92-2,2.08,2.08,0,0,0-2.08,1.29v6.59h-1.54v-9Z"/><path d="M487.85,200.7a3.4,3.4,0,0,1-.22-.95,3.45,3.45,0,0,1-2.57,1.11,3.16,3.16,0,0,1-2.18-.75,2.44,2.44,0,0,1-.86-1.91,2.56,2.56,0,0,1,1.07-2.19,5.06,5.06,0,0,1,3-.78h1.5v-.71a1.74,1.74,0,0,0-.48-1.29,1.94,1.94,0,0,0-1.42-.48,2.27,2.27,0,0,0-1.39.42,1.25,1.25,0,0,0-.56,1H482.2a2.12,2.12,0,0,1,.48-1.3,3.29,3.29,0,0,1,1.3-1,4.47,4.47,0,0,1,1.81-.37,3.56,3.56,0,0,1,2.44.78,2.85,2.85,0,0,1,.92,2.15v4.15a5.08,5.08,0,0,0,.31,2v.14Zm-2.56-1.18a2.69,2.69,0,0,0,1.37-.37,2.21,2.21,0,0,0,.94-1v-1.85h-1.2c-1.89,0-2.84.55-2.84,1.66a1.38,1.38,0,0,0,.49,1.13A1.8,1.8,0,0,0,485.29,199.52Z"/><path d="M499.18,196.29a5.35,5.35,0,0,1-.94,3.31,3,3,0,0,1-2.55,1.26,3.3,3.3,0,0,1-2.59-1v4.34h-1.54V191.68H493l.08,1a3.16,3.16,0,0,1,2.61-1.17,3.06,3.06,0,0,1,2.57,1.23,5.44,5.44,0,0,1,.95,3.41Zm-1.54-.18a4,4,0,0,0-.65-2.41,2.13,2.13,0,0,0-1.79-.88,2.29,2.29,0,0,0-2.1,1.24v4.31a2.28,2.28,0,0,0,2.12,1.23,2.08,2.08,0,0,0,1.76-.87A4.34,4.34,0,0,0,497.64,196.11Z"/><path d="M508.75,196.29a5.35,5.35,0,0,1-.94,3.31,3,3,0,0,1-2.55,1.26,3.29,3.29,0,0,1-2.58-1v4.34h-1.54V191.68h1.41l.07,1a3.18,3.18,0,0,1,2.62-1.17,3.07,3.07,0,0,1,2.57,1.23,5.44,5.44,0,0,1,.94,3.41Zm-1.54-.18a4,4,0,0,0-.65-2.41,2.11,2.11,0,0,0-1.78-.88,2.29,2.29,0,0,0-2.1,1.24v4.31a2.28,2.28,0,0,0,2.12,1.23,2.1,2.1,0,0,0,1.76-.87A4.42,4.42,0,0,0,507.21,196.11Z"/><path d="M510.72,189.29a1,1,0,0,1,.23-.64,1,1,0,0,1,1.36,0,.93.93,0,0,1,.24.64.84.84,0,0,1-.24.62,1,1,0,0,1-1.36,0A.88.88,0,0,1,510.72,189.29Zm1.67,11.41h-1.54v-9h1.54Z"/><path d="M516.31,191.68l.05,1.13a3.31,3.31,0,0,1,2.7-1.3q2.87,0,2.89,3.23v6H520.4v-6a2.05,2.05,0,0,0-.44-1.44,1.79,1.79,0,0,0-1.36-.47,2.22,2.22,0,0,0-1.32.4,2.73,2.73,0,0,0-.88,1.05v6.43h-1.55v-9Z"/><path d="M523.9,196.11a5.3,5.3,0,0,1,1-3.35,3.36,3.36,0,0,1,5.16-.08l.07-1h1.41v8.8a3.63,3.63,0,0,1-1,2.76,3.83,3.83,0,0,1-2.78,1,4.61,4.61,0,0,1-1.91-.42,3.36,3.36,0,0,1-1.43-1.14l.8-.93a3,3,0,0,0,2.43,1.23,2.33,2.33,0,0,0,1.75-.64,2.4,2.4,0,0,0,.63-1.78v-.77a3.17,3.17,0,0,1-2.52,1.06,3.09,3.09,0,0,1-2.57-1.27A5.6,5.6,0,0,1,523.9,196.11Zm1.55.18a4,4,0,0,0,.63,2.39,2,2,0,0,0,1.75.87,2.25,2.25,0,0,0,2.14-1.32v-4.12a2.28,2.28,0,0,0-2.12-1.29,2,2,0,0,0-1.76.88A4.39,4.39,0,0,0,525.45,196.29Z"/><path d="M315.52,221.18a3.14,3.14,0,0,1-.21-1,3.47,3.47,0,0,1-2.57,1.11,3.2,3.2,0,0,1-2.19-.75,2.43,2.43,0,0,1-.85-1.91,2.54,2.54,0,0,1,1.07-2.19,5,5,0,0,1,3-.78h1.5V215a1.74,1.74,0,0,0-.48-1.29,2,2,0,0,0-1.43-.48,2.22,2.22,0,0,0-1.38.42,1.25,1.25,0,0,0-.56,1h-1.55a2.12,2.12,0,0,1,.48-1.3,3.22,3.22,0,0,1,1.3-1,4.46,4.46,0,0,1,1.8-.37,3.54,3.54,0,0,1,2.44.78,2.81,2.81,0,0,1,.92,2.15v4.15a5.06,5.06,0,0,0,.32,2v.14ZM313,220a2.72,2.72,0,0,0,1.38-.37,2.27,2.27,0,0,0,.94-1V216.8h-1.21c-1.89,0-2.83.55-2.83,1.66a1.4,1.4,0,0,0,.48,1.13A1.82,1.82,0,0,0,313,220Z"/><path d="M320.7,212.16l.05,1.13a3.31,3.31,0,0,1,2.7-1.3q2.85,0,2.88,3.23v6h-1.54v-6a2.1,2.1,0,0,0-.45-1.44,1.78,1.78,0,0,0-1.36-.47,2.22,2.22,0,0,0-1.32.4,2.82,2.82,0,0,0-.88,1.05v6.43h-1.54v-9Z"/><path d="M328.28,216.59a5.3,5.3,0,0,1,1-3.33,3.34,3.34,0,0,1,5.09-.18v-4.7h1.54v12.8h-1.42l-.07-1a3.14,3.14,0,0,1-2.58,1.13,3.07,3.07,0,0,1-2.55-1.28,5.34,5.34,0,0,1-1-3.35Zm1.54.18a4,4,0,0,0,.64,2.4,2,2,0,0,0,1.75.86,2.24,2.24,0,0,0,2.14-1.31v-4.14a2.27,2.27,0,0,0-2.13-1.28,2,2,0,0,0-1.76.88A4.32,4.32,0,0,0,329.82,216.77Z"/><path d="M344,212.16l.05,1a3.32,3.32,0,0,1,2.67-1.17,2.6,2.6,0,0,1,2.58,1.45,3.49,3.49,0,0,1,1.17-1.05,3.53,3.53,0,0,1,1.7-.4c2,0,3,1,3,3.14v6.05H353.6v-6a2,2,0,0,0-.45-1.45,1.92,1.92,0,0,0-1.48-.48,2,2,0,0,0-1.42.51,2.1,2.1,0,0,0-.66,1.38v6H348v-5.91a1.72,1.72,0,0,0-1.93-2,2.06,2.06,0,0,0-2.07,1.29v6.59H342.5v-9Z"/><path d="M357.06,216.58a5.3,5.3,0,0,1,.52-2.38,3.84,3.84,0,0,1,1.45-1.63,3.88,3.88,0,0,1,2.12-.58,3.82,3.82,0,0,1,3,1.28,4.94,4.94,0,0,1,1.13,3.39v.11a5.31,5.31,0,0,1-.5,2.36,3.88,3.88,0,0,1-1.44,1.63,4,4,0,0,1-2.16.58,3.79,3.79,0,0,1-3-1.27,4.88,4.88,0,0,1-1.13-3.38Zm1.54.19a3.9,3.9,0,0,0,.7,2.41,2.23,2.23,0,0,0,1.86.9,2.19,2.19,0,0,0,1.87-.92,4.21,4.21,0,0,0,.69-2.58,3.84,3.84,0,0,0-.7-2.4,2.26,2.26,0,0,0-1.87-.92,2.19,2.19,0,0,0-1.84.91A4.15,4.15,0,0,0,358.6,216.77Z"/><path d="M368.65,212.16l.05,1.13a3.31,3.31,0,0,1,2.7-1.3q2.87,0,2.89,3.23v6h-1.54v-6a2.1,2.1,0,0,0-.45-1.44,1.78,1.78,0,0,0-1.36-.47,2.22,2.22,0,0,0-1.32.4,2.73,2.73,0,0,0-.88,1.05v6.43H367.2v-9Z"/><path d="M376.62,209.77a1,1,0,0,1,.23-.64,1,1,0,0,1,1.36,0,.93.93,0,0,1,.24.64.84.84,0,0,1-.24.62,1,1,0,0,1-1.36,0A.88.88,0,0,1,376.62,209.77Zm1.67,11.41h-1.54v-9h1.54Z"/><path d="M382.85,210v2.18h1.68v1.19h-1.68V219a1.24,1.24,0,0,0,.22.81,1,1,0,0,0,.77.27,3.44,3.44,0,0,0,.73-.1v1.25a4.46,4.46,0,0,1-1.18.16,1.94,1.94,0,0,1-1.56-.62,2.7,2.7,0,0,1-.52-1.78v-5.59h-1.65v-1.19h1.65V210Z"/><path d="M385.76,216.58a5.3,5.3,0,0,1,.52-2.38,3.84,3.84,0,0,1,1.45-1.63,3.88,3.88,0,0,1,2.12-.58,3.82,3.82,0,0,1,3,1.28,4.94,4.94,0,0,1,1.13,3.39v.11a5.31,5.31,0,0,1-.5,2.36,3.88,3.88,0,0,1-1.44,1.63,4,4,0,0,1-2.16.58,3.79,3.79,0,0,1-3-1.27,4.88,4.88,0,0,1-1.13-3.38Zm1.55.19a3.89,3.89,0,0,0,.69,2.41,2.23,2.23,0,0,0,1.86.9,2.19,2.19,0,0,0,1.87-.92,4.21,4.21,0,0,0,.69-2.58,3.84,3.84,0,0,0-.7-2.4,2.26,2.26,0,0,0-1.87-.92,2.19,2.19,0,0,0-1.84.91A4.15,4.15,0,0,0,387.31,216.77Z"/><path d="M400.26,213.54a4.59,4.59,0,0,0-.76-.06,2,2,0,0,0-2.06,1.3v6.4H395.9v-9h1.5l0,1a2.42,2.42,0,0,1,2.15-1.21,1.58,1.58,0,0,1,.69.12Z"/><path d="M401.68,209.77a1,1,0,0,1,.23-.64,1,1,0,0,1,1.36,0,.93.93,0,0,1,.24.64.84.84,0,0,1-.24.62,1,1,0,0,1-1.36,0A.88.88,0,0,1,401.68,209.77Zm1.67,11.41h-1.54v-9h1.54Z"/><path d="M407.27,212.16l.05,1.13A3.31,3.31,0,0,1,410,212q2.87,0,2.89,3.23v6h-1.55v-6a2.05,2.05,0,0,0-.44-1.44,1.79,1.79,0,0,0-1.36-.47,2.22,2.22,0,0,0-1.32.4,2.84,2.84,0,0,0-.89,1.05v6.43h-1.54v-9Z"/><path d="M414.86,216.59a5.3,5.3,0,0,1,1-3.35,3.36,3.36,0,0,1,5.16-.08l.07-1h1.41V221a3.67,3.67,0,0,1-1,2.76,3.84,3.84,0,0,1-2.79,1,4.56,4.56,0,0,1-1.9-.42,3.3,3.3,0,0,1-1.43-1.14l.8-.93a3,3,0,0,0,2.43,1.23,2.33,2.33,0,0,0,1.75-.64,2.4,2.4,0,0,0,.63-1.78v-.77a3.18,3.18,0,0,1-2.53,1.06,3.07,3.07,0,0,1-2.56-1.27A5.6,5.6,0,0,1,414.86,216.59Zm1.55.18a4,4,0,0,0,.63,2.39,2,2,0,0,0,1.75.87,2.26,2.26,0,0,0,2.14-1.32v-4.12a2.28,2.28,0,0,0-2.13-1.29,2,2,0,0,0-1.75.88A4.32,4.32,0,0,0,416.41,216.77Z"/><path d="M428.62,216.58a5.3,5.3,0,0,1,.52-2.38,3.85,3.85,0,0,1,3.57-2.21,3.81,3.81,0,0,1,3,1.28,4.9,4.9,0,0,1,1.14,3.39v.11a5.45,5.45,0,0,1-.5,2.36,3.83,3.83,0,0,1-1.45,1.63,4,4,0,0,1-2.15.58,3.79,3.79,0,0,1-3-1.27,4.89,4.89,0,0,1-1.14-3.38Zm1.55.19a3.83,3.83,0,0,0,.7,2.41,2.37,2.37,0,0,0,3.73,0,4.21,4.21,0,0,0,.69-2.58,3.85,3.85,0,0,0-.71-2.4,2.24,2.24,0,0,0-1.87-.92,2.21,2.21,0,0,0-1.84.91A4.15,4.15,0,0,0,430.17,216.77Z"/><path d="M439.52,221.18v-7.83H438.1v-1.19h1.42v-.93a3.07,3.07,0,0,1,.78-2.24,2.93,2.93,0,0,1,2.19-.79,4.29,4.29,0,0,1,1.06.14l-.09,1.24a4.43,4.43,0,0,0-.83-.07,1.51,1.51,0,0,0-1.16.44,1.78,1.78,0,0,0-.41,1.26v.95H443v1.19h-1.93v7.83Z"/><path d="M456.53,216.77a5.35,5.35,0,0,1-.94,3.31,3,3,0,0,1-2.55,1.26,3.3,3.3,0,0,1-2.59-1v4.34h-1.54V212.16h1.41l.08,1A3.16,3.16,0,0,1,453,212a3.06,3.06,0,0,1,2.57,1.23,5.44,5.44,0,0,1,.95,3.41Zm-1.54-.18a4,4,0,0,0-.65-2.41,2.12,2.12,0,0,0-1.78-.88,2.29,2.29,0,0,0-2.11,1.24v4.31a2.29,2.29,0,0,0,2.12,1.23,2.08,2.08,0,0,0,1.76-.87A4.34,4.34,0,0,0,455,216.59Z"/><path d="M462.23,221.34a3.93,3.93,0,0,1-3-1.2,4.46,4.46,0,0,1-1.15-3.22v-.29a5.41,5.41,0,0,1,.51-2.39,4,4,0,0,1,1.43-1.65,3.61,3.61,0,0,1,2-.6,3.38,3.38,0,0,1,2.73,1.16,5,5,0,0,1,1,3.32v.64h-6.11a3.15,3.15,0,0,0,.78,2.15,2.43,2.43,0,0,0,1.89.82,2.72,2.72,0,0,0,1.39-.33,3.73,3.73,0,0,0,1-.88l.94.73A3.79,3.79,0,0,1,462.23,221.34Zm-.19-8.08a2.07,2.07,0,0,0-1.57.68,3.31,3.31,0,0,0-.78,1.9h4.52v-.11a2.94,2.94,0,0,0-.64-1.82A1.94,1.94,0,0,0,462,213.26Z"/><path d="M473.1,221.18a3.4,3.4,0,0,1-.22-1,3.45,3.45,0,0,1-2.57,1.11,3.16,3.16,0,0,1-2.18-.75,2.44,2.44,0,0,1-.86-1.91,2.56,2.56,0,0,1,1.07-2.19,5.06,5.06,0,0,1,3-.78h1.5V215a1.74,1.74,0,0,0-.48-1.29,1.94,1.94,0,0,0-1.42-.48,2.27,2.27,0,0,0-1.39.42,1.25,1.25,0,0,0-.56,1h-1.55a2.12,2.12,0,0,1,.48-1.3,3.29,3.29,0,0,1,1.3-1A4.47,4.47,0,0,1,471,212a3.56,3.56,0,0,1,2.44.78,2.85,2.85,0,0,1,.92,2.15v4.15a5.08,5.08,0,0,0,.31,2v.14ZM470.54,220a2.69,2.69,0,0,0,1.37-.37,2.21,2.21,0,0,0,.94-1V216.8h-1.2c-1.89,0-2.84.55-2.84,1.66a1.38,1.38,0,0,0,.49,1.13A1.8,1.8,0,0,0,470.54,220Z"/><path d="M478.9,210v2.18h1.69v1.19H478.9V219a1.24,1.24,0,0,0,.23.81.94.94,0,0,0,.77.27,3.52,3.52,0,0,0,.73-.1v1.25a4.52,4.52,0,0,1-1.18.16,1.94,1.94,0,0,1-1.56-.62,2.7,2.7,0,0,1-.53-1.78v-5.59h-1.64v-1.19h1.64V210Z"/><path d="M484.06,221.18h-1.54v-12.8h1.54Z"/><path d="M492.1,221.18a3.4,3.4,0,0,1-.22-1,3.45,3.45,0,0,1-2.57,1.11,3.16,3.16,0,0,1-2.18-.75,2.44,2.44,0,0,1-.86-1.91,2.56,2.56,0,0,1,1.07-2.19,5.06,5.06,0,0,1,3-.78h1.5V215a1.74,1.74,0,0,0-.48-1.29,1.94,1.94,0,0,0-1.42-.48,2.27,2.27,0,0,0-1.39.42,1.25,1.25,0,0,0-.56,1h-1.55a2.12,2.12,0,0,1,.48-1.3,3.29,3.29,0,0,1,1.3-1A4.47,4.47,0,0,1,490,212a3.56,3.56,0,0,1,2.44.78,2.85,2.85,0,0,1,.92,2.15v4.15a5.08,5.08,0,0,0,.31,2v.14ZM489.54,220a2.69,2.69,0,0,0,1.37-.37,2.21,2.21,0,0,0,.94-1V216.8h-1.2c-1.89,0-2.84.55-2.84,1.66a1.38,1.38,0,0,0,.49,1.13A1.8,1.8,0,0,0,489.54,220Z"/><path d="M497.27,212.16l.05,1.13A3.31,3.31,0,0,1,500,212q2.87,0,2.88,3.23v6h-1.54v-6a2.05,2.05,0,0,0-.44-1.44,1.8,1.8,0,0,0-1.37-.47,2.19,2.19,0,0,0-1.31.4,2.75,2.75,0,0,0-.89,1.05v6.43h-1.54v-9Z"/><path d="M504.85,216.59a5.24,5.24,0,0,1,1-3.33,3.33,3.33,0,0,1,5.08-.18v-4.7h1.54v12.8h-1.41l-.08-1a3.12,3.12,0,0,1-2.57,1.13,3.07,3.07,0,0,1-2.56-1.28,5.34,5.34,0,0,1-1-3.35Zm1.55.18a4,4,0,0,0,.63,2.4,2,2,0,0,0,1.75.86,2.24,2.24,0,0,0,2.14-1.31v-4.14a2.27,2.27,0,0,0-2.12-1.28,2,2,0,0,0-1.77.88A4.4,4.4,0,0,0,506.4,216.77Z"/><path d="M520.1,218.78a1.13,1.13,0,0,0-.47-1,4.4,4.4,0,0,0-1.64-.59,8.13,8.13,0,0,1-1.86-.6,2.69,2.69,0,0,1-1-.84,2,2,0,0,1-.33-1.15,2.33,2.33,0,0,1,.94-1.87,3.65,3.65,0,0,1,2.39-.77,3.83,3.83,0,0,1,2.49.79,2.54,2.54,0,0,1,.95,2H520a1.4,1.4,0,0,0-.53-1.09,2,2,0,0,0-1.36-.46,2.09,2.09,0,0,0-1.32.37,1.15,1.15,0,0,0-.47,1,1,1,0,0,0,.44.85,5.44,5.44,0,0,0,1.6.54,8.72,8.72,0,0,1,1.87.61,2.69,2.69,0,0,1,1.06.87,2.1,2.1,0,0,1,.35,1.23,2.31,2.31,0,0,1-1,1.93,4,4,0,0,1-2.51.73,4.51,4.51,0,0,1-1.92-.38,3.13,3.13,0,0,1-1.3-1.07,2.63,2.63,0,0,1-.47-1.49H516a1.61,1.61,0,0,0,.62,1.23,2.44,2.44,0,0,0,1.53.45,2.5,2.5,0,0,0,1.41-.35A1.09,1.09,0,0,0,520.1,218.78Z"/><path class="cls-1" d="M390.64,105.56a6.87,6.87,0,0,1-2.29-1.07l1-2.24a7,7,0,0,0,2,1,7.25,7.25,0,0,0,2.28.37,3.61,3.61,0,0,0,1.87-.38,1.12,1.12,0,0,0,.61-1,.94.94,0,0,0-.36-.76,2.51,2.51,0,0,0-.92-.49c-.37-.12-.87-.26-1.51-.4a23.62,23.62,0,0,1-2.41-.7,4.08,4.08,0,0,1-1.61-1.12,3,3,0,0,1-.67-2.06,3.52,3.52,0,0,1,.61-2,4.05,4.05,0,0,1,1.83-1.45,7.53,7.53,0,0,1,3-.53,10.19,10.19,0,0,1,2.41.29,7.12,7.12,0,0,1,2.06.85l-.92,2.26a7.22,7.22,0,0,0-3.56-1,3.34,3.34,0,0,0-1.85.4,1.24,1.24,0,0,0-.6,1.07,1,1,0,0,0,.69,1,10.51,10.51,0,0,0,2.1.64,18.9,18.9,0,0,1,2.41.7,4,4,0,0,1,1.61,1.1,2.93,2.93,0,0,1,.67,2,3.52,3.52,0,0,1-.61,2,4.14,4.14,0,0,1-1.85,1.44,7.45,7.45,0,0,1-3,.54A10.36,10.36,0,0,1,390.64,105.56Z"/><path class="cls-1" d="M403.57,95.32h-4.12V92.89h11.22v2.43h-4.12v10.44h-3Z"/><path class="cls-1" d="M420.1,103h-6L413,105.76h-3.05l5.74-12.87h2.94l5.75,12.87h-3.13Zm-.94-2.26-2-4.93-2,4.93Z"/><path class="cls-1" d="M428.68,95.28v3.4h5.95v2.39h-5.95v4.69h-3V92.89h9.72v2.39Z"/><path class="cls-1" d="M440.42,95.28v3.4h6v2.39h-6v4.69h-3V92.89h9.73v2.39Z"/><path class="cls-1" d="M389.54,40.6V75.52h-8.08V47.08h-7V40.6Z"/><path class="cls-1" d="M402.86,74a14.4,14.4,0,0,1-5.31-6.21,22.56,22.56,0,0,1-1.92-9.7,22.57,22.57,0,0,1,1.92-9.71,14.4,14.4,0,0,1,5.31-6.21,15,15,0,0,1,15.46,0,14.35,14.35,0,0,1,5.32,6.21,22.57,22.57,0,0,1,1.92,9.71,22.56,22.56,0,0,1-1.92,9.7A14.35,14.35,0,0,1,418.32,74a15,15,0,0,1-15.46,0Zm12.75-7.43q1.81-2.75,1.82-8.48t-1.82-8.48a5.73,5.73,0,0,0-5-2.75,5.67,5.67,0,0,0-5,2.75c-1.22,1.82-1.82,4.65-1.82,8.48s.6,6.65,1.82,8.48a5.66,5.66,0,0,0,5,2.74A5.72,5.72,0,0,0,415.61,66.54Z"/><path class="cls-1" d="M436.73,74a14.4,14.4,0,0,1-5.31-6.21,22.56,22.56,0,0,1-1.92-9.7,22.57,22.57,0,0,1,1.92-9.71,14.4,14.4,0,0,1,5.31-6.21,15,15,0,0,1,15.47,0,14.4,14.4,0,0,1,5.31,6.21,22.57,22.57,0,0,1,1.92,9.71,22.56,22.56,0,0,1-1.92,9.7A14.4,14.4,0,0,1,452.2,74a15,15,0,0,1-15.47,0Zm12.75-7.43q1.81-2.75,1.82-8.48t-1.82-8.48a5.9,5.9,0,0,0-10,0q-1.81,2.73-1.82,8.48t1.82,8.48a5.91,5.91,0,0,0,10,0Z"/><rect class="cls-1" x="43.4" y="43.59" width="162.83" height="162.83" transform="translate(124.94 -51.64) rotate(45)"/><g class="cls-2"><path class="cls-3" d="M124.81,228.42,21.39,125,124.81,21.58,228.24,125ZM24.58,125,124.81,225.23,225,125,124.81,24.77Zm100.23,90.29L90.29,180.77l26.4-26.4L91.1,128.78,72.94,146.94l12,12,5-5-7-7,8.22-8.22,15.65,15.65L85.32,175.8,55.14,145.62,75.77,125,55.14,104.38,85.32,74.2l21.43,21.43L91.1,111.28l-8.22-8.22,7-7-5-5-12,12L91.1,121.22l25.59-25.59-26.4-26.4,34.52-34.52,34.52,34.52-26.4,26.4,25.59,25.59,18.16-18.16-12-12-5,5,7,7-8.22,8.22L142.87,95.63,164.3,74.2l30.18,30.18L173.86,125l20.62,20.62L164.3,175.8l-21.43-21.43,15.65-15.65,8.22,8.22-7,7,5,5,12-12-18.16-18.16-25.59,25.59,26.4,26.4ZM93.49,180.77l31.32,31.32,31.32-31.32-26.39-26.4,28.78-28.79,21.36,21.36-15.19,15.19L156.52,154l7-7-5-5-12.45,12.45L164.3,172.6l27-27L170.66,125l20.62-20.62-27-27L146.07,95.63l12.45,12.45,5-5-7-7,8.17-8.16,15.19,15.19-21.36,21.36L129.74,95.63l26.39-26.4L124.81,37.91,93.49,69.23l26.4,26.4L91.1,124.42,69.74,103.06l15.2-15.19L93.1,96l-7,7,5,5,12.45-12.45L85.32,77.4l-27,27L79,125,58.34,145.62l27,27,18.23-18.23L91.1,141.92l-5,5,7,7-8.16,8.16-15.2-15.19L91.1,125.58l28.79,28.79Zm106-40.12L183.8,125l15.65-15.65L215.1,125ZM187,125l12.46,12.45L211.9,125l-12.45-12.45ZM50.17,140.65,34.52,125l15.65-15.65L65.82,125ZM37.72,125l12.45,12.45L62.63,125,50.17,112.55Z"/><path class="cls-3" d="M124.81,204.62l-24.22-24.21,24.22-24.22L149,180.41Zm-21-24.21,21,21,21-21-21-21Z"/><path class="cls-3" d="M124.81,93.14,100.59,68.92,124.81,44.7,149,68.92Zm-21-24.22,21,21,21-21-21-21Z"/></g><polygon class="cls-4" points="10.26 125 124.92 239.67 529.66 239.67 644.33 125 529.66 10.33 124.92 10.33 10.26 125"/><path class="cls-3" d="M173.84,152.2c-.5.6-1,1.17-1.93.82s-.95-1.09-.95-1.89c0-3.58,0-7.15,0-10.73,0-2.14-.76-3.16-2.8-3.76-1.83-.54-3.67-1.08-5.51-1.57a1.21,1.21,0,0,0-1,.25c-1,.89-1.9,1.81-2.77,2.78a2,2,0,0,0-.4,1.18c0,3.83,0,7.66,0,11.49,0,.23,0,.45,0,.67-.05,1.05-.61,1.69-1.45,1.69s-1.41-.65-1.41-1.7c0-4,0-8,0-12.06a1.83,1.83,0,0,0-.63-1.51c-.68-.61-1.31-1.3-2-2-1.14-1.14-1.14-1.14-2.77-.45,2.23,2.26,2.16,5.11,2.12,8,0,2.49,0,5,0,7.47,0,.26,0,.51,0,.77a1.47,1.47,0,0,1-1.46,1.47,1.44,1.44,0,0,1-1.39-1.53c0-1.5,0-3,0-4.5,0-2.07,0-4.15,0-6.22a4.65,4.65,0,0,0-3.16-4.66c-3-1.15-6.1-2.23-9.25-3.38l-2.9,4.35c-.34.51-.66,1-1,1.51a2.94,2.94,0,0,1-4.52.4c-.74-.69-1.41-1.44-2.31-2.37,0,.62-.06,1-.06,1.28v12.93c0,1.46-.47,2.17-1.43,2.19s-1.44-.7-1.44-2.16V137l-.36-.25c-.59.69-1.14,1.42-1.77,2.07-1.69,1.68-3.68,1.49-5-.48-1.24-1.81-2.44-3.65-3.71-5.55-3.28,1.22-6.57,2.34-9.76,3.66-1.9.79-2.64,2.5-2.65,4.51v10a6,6,0,0,1,0,1,1.31,1.31,0,0,1-1.28,1.21,1.29,1.29,0,0,1-1.43-1,4.1,4.1,0,0,1-.12-1c0-3.32-.08-6.64,0-10a33,33,0,0,1,.81-4.56c-1.12-.8-1.12-.8-2.27.3-2.55,2.43-5.3,2.95-7.88,1.38a14.73,14.73,0,0,1-2.19-1.84.89.89,0,0,0-1.23-.21c-1.26.69-2.55,1.31-3.84,1.94a3.43,3.43,0,0,0-2,3.37c0,3.16,0,6.32,0,9.48a6.6,6.6,0,0,1,0,.77,1.47,1.47,0,0,1-1.43,1.4,1.44,1.44,0,0,1-1.41-1.42c0-.89,0-1.78,0-2.68,0-2.55,0-5.1,0-7.65a6.08,6.08,0,0,1,3.53-5.79c1.15-.59,2.32-1.17,3.53-1.77-1.07-.69-2.09-1.3-3.06-2a11.91,11.91,0,0,1-1.34-1.23,3,3,0,0,1-.71-3.43,35.6,35.6,0,0,0,.91-6.22c.25-2.31.18-4.67.62-6.94a12.15,12.15,0,0,1,10.21-9.7A11.94,11.94,0,0,1,102.55,113a37.91,37.91,0,0,1,.81,6.24c.22,2.15.35,4.31.59,6.47a7.22,7.22,0,0,0,.53,1.92,2.2,2.2,0,0,1-.4,2.47,13.38,13.38,0,0,1-4.83,3.6,1.7,1.7,0,0,0,2.13.28c2.82-1.19,5.71-2.19,8.58-3.25a2.41,2.41,0,0,0,1.43-1.19,20.68,20.68,0,0,1,2.23-2.59,4.72,4.72,0,0,0,.55-1.34c0-.08,0-.19,0-.28a6.92,6.92,0,0,0-2.13-6.1,15.51,15.51,0,0,1-4-11.08,25.7,25.7,0,0,0-.93-6c-1-4.47-1.29-9,.81-13.29a12.81,12.81,0,0,1,11.61-7.65c7.3-.23,14.62-.08,21.92-.07a1.47,1.47,0,0,1,1.69,1.64c0,5.58,0,11.17-.14,16.75a11.46,11.46,0,0,1-.82,3.81,9.1,9.1,0,0,0-.56,3.64c.09,3.26-.24,6.48-1.93,9.33a60.54,60.54,0,0,1-3.66,4.86,5.15,5.15,0,0,0-.54,1.22c0,.08,0,.19,0,.29a6,6,0,0,0,2.4,6.24.44.44,0,0,1,.19.22c.36,1.43,1.66,1.56,2.75,2,1.67.62,3.36,1.2,5,1.85a2.69,2.69,0,0,0,2.12.07c.41-.17.85-.25,1.28-.38,1.89-.54,2-.75,1.74-2.68a1.34,1.34,0,0,0-.43-.68,11,11,0,0,1-4.14-9.06,7.78,7.78,0,0,0-.78-3.57c-2.49-5.31,1.43-12,7.29-12.34,4.87-.24,9.76-.14,14.64-.15,1,0,1.62.51,1.62,1.39,0,3,0,6-.16,9a4.68,4.68,0,0,1-.61,2.09,6.91,6.91,0,0,0-.74,3.68,10.48,10.48,0,0,1-4.13,9c-.86.68-.4,1.6-.38,2.4,0,.26.65.59,1.06.72,1.58.5,3.18.93,4.77,1.39a6.1,6.1,0,0,1,4.67,4.68.6.6,0,0,0,.16.23ZM140.19,84.11a.91.91,0,0,0-.25-.07c-6.8,0-13.6-.1-20.39.06a10.42,10.42,0,0,0-9.84,8.33,18,18,0,0,0,.43,9.83,15,15,0,0,1,.77,5.33,15.65,15.65,0,0,0,1.44,7,13.89,13.89,0,0,0,14.1,8,13.73,13.73,0,0,0,11.76-10.29,48.16,48.16,0,0,0,.57-6.83,12.85,12.85,0,0,1,.35-2,24.94,24.94,0,0,0,1.06-4.63c.15-4.84.08-9.69.09-14.54C140.28,84.24,140.23,84.19,140.19,84.11Zm26.22,22.94c-3.45,0-6.7,0-9.95,0-1.15,0-2.3,0-3.44.13a6,6,0,0,0-4.74,8.3,9.55,9.55,0,0,1,1,4.87,7.36,7.36,0,0,0,.06,1.24c.36,3.9,4,7.28,7.69,7.16a7.77,7.77,0,0,0,7.77-8,12.67,12.67,0,0,1,1-5.37C167,112.78,166.14,109.93,166.41,107.05ZM100.46,118.9c0-3.13-.49-6.27-2.82-8.91a9,9,0,0,0-13.3.15c-2.33,2.72-2.74,5.92-2.69,9a8.85,8.85,0,0,1,1.51,1.46,4.18,4.18,0,0,1,.24,1.5,7.71,7.71,0,0,0,7.38,6.64,7.81,7.81,0,0,0,7.64-5.26,2.56,2.56,0,0,0-.35-2.49c-2.26-3.13-5.47-4.33-9.15-4.61a1.28,1.28,0,0,0-.79.4,18.22,18.22,0,0,1-1.84,1.79,1.82,1.82,0,0,1-1.56.13,1.72,1.72,0,0,1-.69-1.3c-.05-1,3.11-4,4.06-4a15.24,15.24,0,0,1,8.11,2.15A50.16,50.16,0,0,1,100.46,118.9Zm16.59,4.66a17,17,0,0,0,0,2,1.47,1.47,0,0,0,.49.93c2.24,1.57,4.5,3.12,6.79,4.63a1,1,0,0,0,1,0c2.29-1.51,4.55-3.07,6.8-4.63a1.16,1.16,0,0,0,.49-.73c.07-.68,0-1.38,0-2.21A17,17,0,0,1,117.05,123.56Zm10.24,9.78,3.6,3.6,3.43-5.12c1-1.49,1-1.49-.27-2.74-.06-.07-.16-.09-.29-.17Zm-8.44,3.72,3.64-3.65-6.64-4.53a14.58,14.58,0,0,0-1.11,1.13.77.77,0,0,0-.09.71C116,132.85,117.44,135,118.85,137.06Zm-30.92-5.62c-.19,1.59-.58,3.33,1.46,4.33a3.56,3.56,0,0,0,3.45-.08c2-1,1.46-2.76,1.29-4.25Zm65.92-.19c0,.53-.12,1.18.14,1.48.93,1.1,2,2.08,3.09,3.18.88-.91,1.6-1.76,2.43-2.49a1.74,1.74,0,0,0,.61-2.14,25.84,25.84,0,0,1-3,.34A32.08,32.08,0,0,1,153.85,131.25Zm-72.69-5.61c-.17.65-.42,1.56-.62,2.48a.85.85,0,0,0,.13.67,10.17,10.17,0,0,0,4.41,2.64c-.1-.71,0-1.41-.28-1.78C83.62,128.22,82.32,126.89,81.16,125.64Zm16,5.76a10.31,10.31,0,0,0,4.22-2.56.77.77,0,0,0,.23-.56c-.22-1-.49-1.93-.7-2.69a35.71,35.71,0,0,1-3,3.5A2.16,2.16,0,0,0,97.16,131.4Z"/><path class="cls-3" d="M164.83,147c0-1.43,0-2.86,0-4.29,0-1,.58-1.66,1.45-1.65a1.44,1.44,0,0,1,1.4,1.61c0,2.92,0,5.85,0,8.78a1.48,1.48,0,0,1-1.46,1.66c-.84,0-1.39-.67-1.4-1.72C164.82,150,164.83,148.49,164.83,147Z"/><path class="cls-3" d="M84.8,148.08c0,1.15,0,2.3,0,3.44a1.43,1.43,0,1,1-2.85,0q0-3.5,0-7A1.44,1.44,0,0,1,83.36,143c.87,0,1.42.62,1.43,1.66S84.8,146.94,84.8,148.08Z"/><path class="cls-3" d="M140.31,148.56c0-1,0-1.92,0-2.87a1.42,1.42,0,0,1,1.37-1.54,1.39,1.39,0,0,1,1.47,1.45q.07,3,0,6a1.43,1.43,0,1,1-2.85-.11C140.29,150.54,140.31,149.55,140.31,148.56Z"/><path class="cls-3" d="M109.35,148.65c0,1,0,2,0,3a1.41,1.41,0,0,1-1.4,1.5,1.36,1.36,0,0,1-1.42-1.4q-.07-3.1,0-6.21a1.31,1.31,0,0,1,1.44-1.35,1.35,1.35,0,0,1,1.36,1.43c0,1,0,2,0,3.06Z"/><path class="cls-3" d="M115.51,97.64c0,1.08,0,2.07,0,3,0,1.16-.54,1.76-1.46,1.74s-1.37-.6-1.4-1.7,0-2.17,0-3.25a2.84,2.84,0,0,1,2.44-2.68,39.65,39.65,0,0,1,14.53.17,13.81,13.81,0,0,1,6.76,3.37,1.44,1.44,0,0,1,.25,2,1.37,1.37,0,0,1-2,.14c-2.7-2.43-6-3-9.46-3.32A43.27,43.27,0,0,0,115.51,97.64Z"/><path class="cls-3" d="M163.07,114.47c0,1.3-.85,2-1.76,1.7a30.26,30.26,0,0,0-8.9-1.46A1.32,1.32,0,0,1,151,113.3a1.34,1.34,0,0,1,1.48-1.4,24.78,24.78,0,0,1,9.35,1.52A4.4,4.4,0,0,1,163.07,114.47Z"/></svg>