<svg id="Layer_1" data-name="Layer 1" xmlns="http://www.w3.org/2000/svg" viewBox="0 0 654 250"><defs><style>.cls-1{fill:none;stroke:#f26e25;stroke-miterlimit:10;stroke-width:2.5px;}.cls-2{fill:#f26e25;}.cls-3{opacity:0.15;}.cls-4{fill:#fff;}</style></defs><polygon class="cls-1" points="10.26 125 124.92 239.67 529.66 239.67 644.33 125 529.66 10.33 124.92 10.33 10.26 125"/><path class="cls-2" d="M314,94.23h3V107.1h-3Z"/><path class="cls-2" d="M331.81,94.23V107.1h-2.44L323,99.29v7.81H320V94.23h2.47l6.39,7.81V94.23Z"/><path class="cls-2" d="M334.86,94.23h5.85a8.25,8.25,0,0,1,3.7.8,5.94,5.94,0,0,1,2.5,2.25,6.88,6.88,0,0,1,0,6.77,6.07,6.07,0,0,1-2.5,2.25,8.25,8.25,0,0,1-3.7.8h-5.85Zm5.7,10.42a4.36,4.36,0,0,0,3.08-1.07,4.27,4.27,0,0,0,0-5.83,4.31,4.31,0,0,0-3.08-1.07h-2.72v8Z"/><path class="cls-2" d="M350,94.23h3V107.1h-3Z"/><path class="cls-2" d="M368.37,94.23,362.8,107.1h-2.94l-5.55-12.87h3.21l3.92,9.19,4-9.19Z"/><path class="cls-2" d="M369.43,94.23h3V107.1h-3Z"/><path class="cls-2" d="M375.46,94.23h5.85a8.25,8.25,0,0,1,3.7.8,5.94,5.94,0,0,1,2.5,2.25,6.88,6.88,0,0,1,0,6.77,6.07,6.07,0,0,1-2.5,2.25,8.25,8.25,0,0,1-3.7.8h-5.85Zm5.7,10.42a4.36,4.36,0,0,0,3.08-1.07,4.27,4.27,0,0,0,0-5.83,4.31,4.31,0,0,0-3.08-1.07h-2.72v8Z"/><path class="cls-2" d="M392.07,105.79a5.87,5.87,0,0,1-1.54-4.35V94.23h3v7.1q0,3.45,2.87,3.45a2.71,2.71,0,0,0,2.13-.83,3.92,3.92,0,0,0,.74-2.62v-7.1h2.94v7.21a5.87,5.87,0,0,1-1.54,4.35,6.78,6.78,0,0,1-8.58,0Z"/><path class="cls-2" d="M413.32,104.34h-6l-1.14,2.76h-3l5.73-12.87h2.95l5.75,12.87h-3.13Zm-.93-2.26-2-4.93-2,4.93Z"/><path class="cls-2" d="M418.93,94.23h3v10.44h6.45v2.43h-9.43Z"/><path class="cls-2" d="M443.7,104.34h-6l-1.14,2.76h-3l5.74-12.87h2.94L448,107.1h-3.13Zm-.93-2.26-2-4.93-2,4.93Z"/><path class="cls-2" d="M461.11,94.23V107.1h-2.44l-6.42-7.81v7.81h-2.94V94.23h2.46l6.4,7.81V94.23Z"/><path class="cls-2" d="M464.16,94.23h3V107.1h-3Z"/><path class="cls-2" d="M481.9,107.1l0-7.72-3.79,6.36h-1.34L473,99.54v7.56h-2.79V94.23h2.46l4.82,8,4.74-8h2.44l0,12.87Z"/><path class="cls-2" d="M496.21,104.34h-6l-1.14,2.76h-3.05l5.74-12.87h2.94l5.75,12.87h-3.13Zm-.93-2.26-2-4.93-2,4.93Z"/><path class="cls-2" d="M501.82,94.23h3v10.44h6.45v2.43h-9.43Z"/><path class="cls-2" d="M514.12,106.9a6.81,6.81,0,0,1-2.28-1.07l1-2.24a6.77,6.77,0,0,0,2,1,7.25,7.25,0,0,0,2.28.37,3.67,3.67,0,0,0,1.88-.38,1.13,1.13,0,0,0,.6-1,1,1,0,0,0-.35-.76,2.77,2.77,0,0,0-.92-.49c-.38-.12-.88-.26-1.52-.4a23.62,23.62,0,0,1-2.41-.7,4.08,4.08,0,0,1-1.61-1.12,3.07,3.07,0,0,1-.67-2.06,3.59,3.59,0,0,1,.61-2,4.05,4.05,0,0,1,1.83-1.45,7.55,7.55,0,0,1,3-.53,9.62,9.62,0,0,1,2.4.3,6.85,6.85,0,0,1,2.06.84l-.92,2.26a7.19,7.19,0,0,0-3.56-1,3.43,3.43,0,0,0-1.85.4,1.24,1.24,0,0,0-.6,1.07,1,1,0,0,0,.69,1,10.44,10.44,0,0,0,2.11.64,18.69,18.69,0,0,1,2.4.7,4,4,0,0,1,1.61,1.1,2.93,2.93,0,0,1,.67,2,3.5,3.5,0,0,1-.61,2,4.08,4.08,0,0,1-1.85,1.44,7.45,7.45,0,0,1-3,.54A10.41,10.41,0,0,1,514.12,106.9Z"/><path class="cls-2" d="M355.09,58a9.74,9.74,0,0,1,3.52,7.88,10.88,10.88,0,0,1-1.6,5.81,11,11,0,0,1-4.86,4.19,18.47,18.47,0,0,1-8.06,1.58,27.31,27.31,0,0,1-7.25-1,18.77,18.77,0,0,1-6.07-2.77l3.2-6.18a15.25,15.25,0,0,0,4.59,2.32,17.4,17.4,0,0,0,5.33.82,8.34,8.34,0,0,0,4.79-1.2,3.8,3.8,0,0,0,1.75-3.34,3.75,3.75,0,0,0-1.82-3.39q-1.83-1.16-6.31-1.15h-8.93l1.79-19.65h21.31v6.48H341.9l-.55,6.64h2.84Q351.57,55.06,355.09,58Z"/><path class="cls-2" d="M393.88,69.52h-5.69v7.34h-7.88V69.52H361.5V64.09L378,41.94h8.48l-15.27,21h9.38V56.4h7.63v6.54h5.69Z"/><path class="cls-2" d="M405.35,68.9a4.64,4.64,0,0,1,1.35,3.47,8,8,0,0,1-.25,2,22.25,22.25,0,0,1-1.1,3l-2.84,7.18h-4.94l2.2-7.93a4.08,4.08,0,0,1-2-1.62,4.69,4.69,0,0,1-.73-2.62,4.62,4.62,0,0,1,1.37-3.47,4.81,4.81,0,0,1,3.47-1.32A4.69,4.69,0,0,1,405.35,68.9Z"/><path class="cls-2" d="M434.19,59.57a9.41,9.41,0,0,1,2.44,6.61A10.44,10.44,0,0,1,435,71.79a11.12,11.12,0,0,1-4.87,4.12,18.66,18.66,0,0,1-8,1.55,27.31,27.31,0,0,1-7.25-1,18.62,18.62,0,0,1-6.06-2.77L412,67.53a15.24,15.24,0,0,0,4.61,2.32,17.8,17.8,0,0,0,5.37.82,8.49,8.49,0,0,0,4.78-1.17,3.76,3.76,0,0,0,1.75-3.32q0-4.29-6.53-4.29h-3.7V56.55l7.19-8.13H410.59V41.94H435v5.23l-7.89,9A11.78,11.78,0,0,1,434.19,59.57Z"/><path class="cls-2" d="M447.61,75.31a14.42,14.42,0,0,1-5.32-6.21,22.53,22.53,0,0,1-1.92-9.7,22.57,22.57,0,0,1,1.92-9.71,14.42,14.42,0,0,1,5.32-6.21,15,15,0,0,1,15.46,0,14.48,14.48,0,0,1,5.32,6.21,22.57,22.57,0,0,1,1.92,9.71,22.53,22.53,0,0,1-1.92,9.7,14.48,14.48,0,0,1-5.32,6.21,15,15,0,0,1-15.46,0Zm12.74-7.43c1.22-1.83,1.82-4.66,1.82-8.48s-.6-6.65-1.82-8.48a5.89,5.89,0,0,0-10,0c-1.22,1.83-1.82,4.65-1.82,8.48s.6,6.65,1.82,8.48a5.9,5.9,0,0,0,10,0Z"/><path class="cls-2" d="M502.11,61.89a8.68,8.68,0,0,1,1.37,4.84,9.07,9.07,0,0,1-1.85,5.66,11.74,11.74,0,0,1-5.18,3.74,21,21,0,0,1-7.74,1.33,20.73,20.73,0,0,1-7.7-1.33,11.5,11.5,0,0,1-5.14-3.74,9.11,9.11,0,0,1-1.82-5.66,8.6,8.6,0,0,1,1.37-4.84,9.88,9.88,0,0,1,3.91-3.39,8.64,8.64,0,0,1-3-3,8.18,8.18,0,0,1-1-4.17A8.51,8.51,0,0,1,477,46a10.83,10.83,0,0,1,4.74-3.47,18.74,18.74,0,0,1,7-1.22,19.06,19.06,0,0,1,7.06,1.22A10.81,10.81,0,0,1,500.54,46a8.51,8.51,0,0,1,1.69,5.28,8.18,8.18,0,0,1-1.05,4.17,8.38,8.38,0,0,1-3,3A9.86,9.86,0,0,1,502.11,61.89Zm-8.58,8.26a4.42,4.42,0,0,0,1.77-3.67,4.34,4.34,0,0,0-1.77-3.64,7.77,7.77,0,0,0-4.82-1.35A7.58,7.58,0,0,0,484,62.84a4.36,4.36,0,0,0-1.74,3.64A4.42,4.42,0,0,0,484,70.17a7.58,7.58,0,0,0,4.74,1.35A7.71,7.71,0,0,0,493.53,70.15Zm-8.73-21.7a3.88,3.88,0,0,0-1.47,3.21,3.82,3.82,0,0,0,1.44,3.15A6.22,6.22,0,0,0,488.71,56a6.39,6.39,0,0,0,4-1.14,3.76,3.76,0,0,0,1.5-3.15,3.85,3.85,0,0,0-1.5-3.21,6.28,6.28,0,0,0-4-1.18A6.1,6.1,0,0,0,484.8,48.45Z"/><path d="M305.94,139l1.74-6.89h1.54l-2.63,9h-1.25l-2.19-6.84L301,141.12h-1.25l-2.62-9h1.54l1.77,6.75,2.1-6.75h1.24Z"/><path d="M314.53,141.28a4,4,0,0,1-3-1.2,4.5,4.5,0,0,1-1.15-3.22v-.28a5.43,5.43,0,0,1,.52-2.4,4,4,0,0,1,1.43-1.65,3.58,3.58,0,0,1,2-.6,3.38,3.38,0,0,1,2.73,1.16,5,5,0,0,1,1,3.32v.64h-6.1a3.15,3.15,0,0,0,.78,2.15,2.42,2.42,0,0,0,1.89.83,2.66,2.66,0,0,0,1.38-.34,3.47,3.47,0,0,0,1-.88l.94.73A3.79,3.79,0,0,1,314.53,141.28Zm-.19-8.08a2.06,2.06,0,0,0-1.57.68,3.31,3.31,0,0,0-.78,1.9h4.51v-.11a2.88,2.88,0,0,0-.63-1.82A1.94,1.94,0,0,0,314.34,133.2Z"/><path d="M324.19,133.48a4.62,4.62,0,0,0-.76,0,2,2,0,0,0-2.06,1.29v6.4h-1.54v-9h1.5l0,1a2.42,2.42,0,0,1,2.15-1.21,1.58,1.58,0,0,1,.69.12Z"/><path d="M329.19,141.28a4,4,0,0,1-3-1.2,4.5,4.5,0,0,1-1.15-3.22v-.28a5.43,5.43,0,0,1,.51-2.4,4.06,4.06,0,0,1,1.44-1.65,3.57,3.57,0,0,1,2-.6,3.39,3.39,0,0,1,2.74,1.16,5,5,0,0,1,1,3.32v.64h-6.11a3.25,3.25,0,0,0,.78,2.15,2.46,2.46,0,0,0,1.9.83,2.71,2.71,0,0,0,1.38-.34,3.31,3.31,0,0,0,1-.88l.95.73A3.79,3.79,0,0,1,329.19,141.28Zm-.2-8.08a2.05,2.05,0,0,0-1.56.68,3.32,3.32,0,0,0-.79,1.9h4.52v-.11a2.88,2.88,0,0,0-.63-1.82A2,2,0,0,0,329,133.2Z"/><path d="M343.07,133.48a4.55,4.55,0,0,0-.76,0,2,2,0,0,0-2.06,1.29v6.4h-1.54v-9h1.5l0,1a2.4,2.4,0,0,1,2.15-1.21,1.53,1.53,0,0,1,.68.12Z"/><path d="M348.07,141.28a3.93,3.93,0,0,1-3-1.2,4.46,4.46,0,0,1-1.15-3.22v-.28a5.43,5.43,0,0,1,.51-2.4,4,4,0,0,1,1.43-1.65,3.61,3.61,0,0,1,2-.6,3.38,3.38,0,0,1,2.73,1.16,5,5,0,0,1,1,3.32v.64h-6.11a3.15,3.15,0,0,0,.78,2.15,2.43,2.43,0,0,0,1.89.83,2.72,2.72,0,0,0,1.39-.34,3.57,3.57,0,0,0,1-.88l.94.73A3.79,3.79,0,0,1,348.07,141.28Zm-.19-8.08a2.07,2.07,0,0,0-1.57.68,3.31,3.31,0,0,0-.78,1.9H350v-.11a2.88,2.88,0,0,0-.63-1.82A1.94,1.94,0,0,0,347.88,133.2Z"/><path d="M355,141.12H353.5v-12.8H355Z"/><path d="M361.25,141.28a4,4,0,0,1-3-1.2,4.46,4.46,0,0,1-1.15-3.22v-.28a5.43,5.43,0,0,1,.51-2.4,4,4,0,0,1,1.43-1.65,3.61,3.61,0,0,1,2-.6,3.38,3.38,0,0,1,2.73,1.16,5,5,0,0,1,1,3.32v.64h-6.11a3.15,3.15,0,0,0,.78,2.15,2.46,2.46,0,0,0,1.9.83,2.71,2.71,0,0,0,1.38-.34,3.31,3.31,0,0,0,1-.88l.94.73A3.78,3.78,0,0,1,361.25,141.28Zm-.19-8.08a2.09,2.09,0,0,0-1.57.68,3.31,3.31,0,0,0-.78,1.9h4.52v-.11a2.94,2.94,0,0,0-.64-1.82A1.92,1.92,0,0,0,361.06,133.2Z"/><path d="M372.12,141.12a3.4,3.4,0,0,1-.22-1,3.43,3.43,0,0,1-2.56,1.11,3.2,3.2,0,0,1-2.19-.75,2.44,2.44,0,0,1-.86-1.91,2.55,2.55,0,0,1,1.08-2.19,5,5,0,0,1,3-.78h1.5v-.71a1.71,1.71,0,0,0-.49-1.29,1.92,1.92,0,0,0-1.42-.47,2.22,2.22,0,0,0-1.38.41,1.22,1.22,0,0,0-.56,1h-1.55a2.12,2.12,0,0,1,.48-1.3,3.22,3.22,0,0,1,1.3-1,4.42,4.42,0,0,1,1.8-.37,3.56,3.56,0,0,1,2.44.78,2.81,2.81,0,0,1,.92,2.15V139a4.88,4.88,0,0,0,.32,2v.14Zm-2.56-1.18a2.75,2.75,0,0,0,1.38-.37,2.33,2.33,0,0,0,.94-1v-1.85h-1.21c-1.89,0-2.83.55-2.83,1.66a1.4,1.4,0,0,0,.48,1.13A1.82,1.82,0,0,0,369.56,139.94Z"/><path d="M381.09,138.73a1.17,1.17,0,0,0-.47-1,4.73,4.73,0,0,0-1.65-.59,7.86,7.86,0,0,1-1.85-.6,2.63,2.63,0,0,1-1-.83,2,2,0,0,1-.33-1.15,2.33,2.33,0,0,1,.94-1.88,3.65,3.65,0,0,1,2.39-.77,3.78,3.78,0,0,1,2.49.8,2.48,2.48,0,0,1,1,2H381a1.4,1.4,0,0,0-.53-1.09,2,2,0,0,0-1.36-.46,2,2,0,0,0-1.31.37,1.14,1.14,0,0,0-.48,1,.94.94,0,0,0,.44.84,5.44,5.44,0,0,0,1.6.54,8.16,8.16,0,0,1,1.87.62,2.59,2.59,0,0,1,1.06.86,2.1,2.1,0,0,1,.35,1.23,2.28,2.28,0,0,1-1,1.93,4,4,0,0,1-2.51.73,4.43,4.43,0,0,1-1.91-.38,3.16,3.16,0,0,1-1.31-1.07,2.6,2.6,0,0,1-.47-1.49H377a1.61,1.61,0,0,0,.62,1.23,2.44,2.44,0,0,0,1.53.46,2.48,2.48,0,0,0,1.41-.36A1.1,1.1,0,0,0,381.09,138.73Z"/><path d="M388.38,141.28a4,4,0,0,1-3-1.2,4.5,4.5,0,0,1-1.15-3.22v-.28a5.43,5.43,0,0,1,.52-2.4,4,4,0,0,1,1.43-1.65,3.58,3.58,0,0,1,2-.6,3.38,3.38,0,0,1,2.73,1.16,5,5,0,0,1,1,3.32v.64h-6.1a3.2,3.2,0,0,0,.77,2.15,2.46,2.46,0,0,0,1.9.83,2.66,2.66,0,0,0,1.38-.34,3.47,3.47,0,0,0,1-.88l.94.73A3.79,3.79,0,0,1,388.38,141.28Zm-.19-8.08a2.06,2.06,0,0,0-1.57.68,3.31,3.31,0,0,0-.78,1.9h4.51v-.11a2.88,2.88,0,0,0-.63-1.82A1.94,1.94,0,0,0,388.19,133.2Z"/><path d="M393.3,136.53a5.24,5.24,0,0,1,1-3.33,3.33,3.33,0,0,1,5.08-.18v-4.7h1.54v12.8h-1.42l-.07-1a3.14,3.14,0,0,1-2.58,1.13,3.07,3.07,0,0,1-2.55-1.28,5.34,5.34,0,0,1-1-3.35Zm1.54.18a4,4,0,0,0,.64,2.4,2,2,0,0,0,1.75.87,2.24,2.24,0,0,0,2.14-1.32v-4.14a2.27,2.27,0,0,0-2.13-1.28,2,2,0,0,0-1.76.88A4.39,4.39,0,0,0,394.84,136.71Z"/><path d="M407.54,129.71a.91.91,0,0,1,.22-.63.85.85,0,0,1,.68-.26.87.87,0,0,1,.69.26.92.92,0,0,1,.23.63.88.88,0,0,1-.23.62.9.9,0,0,1-.69.25.81.81,0,0,1-.9-.87Zm1.66,11.41h-1.54v-9h1.54Z"/><path d="M413.13,132.1l.05,1.13a3.31,3.31,0,0,1,2.7-1.3q2.85,0,2.88,3.23v6h-1.54v-6a2.1,2.1,0,0,0-.45-1.44,1.78,1.78,0,0,0-1.36-.47,2.29,2.29,0,0,0-1.32.4,2.82,2.82,0,0,0-.88,1.05v6.43h-1.54v-9Z"/><path d="M423.18,129.92v2.18h1.68v1.19h-1.68v5.6a1.24,1.24,0,0,0,.22.81,1,1,0,0,0,.77.28,4.25,4.25,0,0,0,.73-.1v1.24a4.46,4.46,0,0,1-1.18.16,1.91,1.91,0,0,1-1.56-.62,2.7,2.7,0,0,1-.52-1.78v-5.59H420V132.1h1.65v-2.18Z"/><path d="M426.09,136.53a5.31,5.31,0,0,1,.52-2.39,3.84,3.84,0,0,1,1.45-1.63,4,4,0,0,1,2.12-.58,3.81,3.81,0,0,1,3,1.28,4.89,4.89,0,0,1,1.13,3.39v.11a5.31,5.31,0,0,1-.5,2.36,3.88,3.88,0,0,1-1.44,1.63,4,4,0,0,1-2.16.58,3.79,3.79,0,0,1-3-1.27,4.93,4.93,0,0,1-1.13-3.38Zm1.55.18a3.89,3.89,0,0,0,.69,2.41,2.26,2.26,0,0,0,1.86.91,2.2,2.2,0,0,0,1.87-.93,4.2,4.2,0,0,0,.69-2.57,3.87,3.87,0,0,0-.7-2.41,2.24,2.24,0,0,0-1.87-.92,2.19,2.19,0,0,0-1.84.91A4.15,4.15,0,0,0,427.64,136.71Z"/><path d="M442.54,129.92v2.18h1.69v1.19h-1.69v5.6a1.24,1.24,0,0,0,.23.81,1,1,0,0,0,.77.28,4.38,4.38,0,0,0,.73-.1v1.24a4.52,4.52,0,0,1-1.18.16,1.91,1.91,0,0,1-1.56-.62,2.7,2.7,0,0,1-.53-1.78v-5.59h-1.64V132.1H441v-2.18Z"/><path d="M447.57,133.19a3.27,3.27,0,0,1,2.67-1.26q2.85,0,2.88,3.23v6h-1.54v-6a2.1,2.1,0,0,0-.45-1.44,1.78,1.78,0,0,0-1.36-.47,2.29,2.29,0,0,0-1.32.4,2.73,2.73,0,0,0-.88,1.05v6.43H446v-12.8h1.54Z"/><path d="M459.17,141.28a4,4,0,0,1-3-1.2,4.49,4.49,0,0,1-1.14-3.22v-.28a5.43,5.43,0,0,1,.51-2.4,4,4,0,0,1,1.43-1.65,3.61,3.61,0,0,1,2-.6,3.38,3.38,0,0,1,2.73,1.16,5,5,0,0,1,1,3.32v.64h-6.1a3.15,3.15,0,0,0,.78,2.15,2.42,2.42,0,0,0,1.89.83,2.72,2.72,0,0,0,1.39-.34,3.57,3.57,0,0,0,1-.88l.94.73A3.79,3.79,0,0,1,459.17,141.28ZM459,133.2a2.06,2.06,0,0,0-1.57.68,3.31,3.31,0,0,0-.78,1.9h4.51v-.11a2.88,2.88,0,0,0-.63-1.82A1.94,1.94,0,0,0,459,133.2Z"/><path d="M476.68,139l1.73-6.89H480l-2.62,9h-1.25l-2.19-6.84-2.14,6.84H470.5l-2.61-9h1.53l1.77,6.75,2.1-6.75h1.25Z"/><path d="M481.53,129.71a.88.88,0,0,1,.23-.63.83.83,0,0,1,.67-.26.86.86,0,0,1,.69.26.92.92,0,0,1,.23.63.83.83,0,0,1-.92.87.85.85,0,0,1-.67-.25A.84.84,0,0,1,481.53,129.71Zm1.66,11.41h-1.54v-9h1.54Z"/><path d="M487.34,141.12h-1.55v-12.8h1.55Z"/><path d="M489.43,136.53a5.24,5.24,0,0,1,1-3.33,3.33,3.33,0,0,1,5.08-.18v-4.7H497v12.8h-1.42l-.08-1a3.11,3.11,0,0,1-2.57,1.13,3.07,3.07,0,0,1-2.56-1.28,5.4,5.4,0,0,1-1-3.35Zm1.54.18a4,4,0,0,0,.63,2.4,2,2,0,0,0,1.75.87,2.24,2.24,0,0,0,2.14-1.32v-4.14a2.27,2.27,0,0,0-2.12-1.28,2,2,0,0,0-1.77.88A4.4,4.4,0,0,0,491,136.71Z"/><path d="M504.41,141.12v-7.83H503V132.1h1.42v-.92a3.08,3.08,0,0,1,.78-2.25,2.93,2.93,0,0,1,2.19-.79,4.29,4.29,0,0,1,1.06.14l-.09,1.25a4.41,4.41,0,0,0-.83-.08,1.51,1.51,0,0,0-1.16.44,1.78,1.78,0,0,0-.41,1.26v.95h1.93v1.19H506v7.83Z"/><path d="M513.94,133.48a4.62,4.62,0,0,0-.76,0,2,2,0,0,0-2.06,1.29v6.4h-1.54v-9h1.5l0,1a2.42,2.42,0,0,1,2.15-1.21,1.58,1.58,0,0,1,.69.12Z"/><path d="M514.78,136.53a5.31,5.31,0,0,1,.52-2.39,3.84,3.84,0,0,1,1.45-1.63,4,4,0,0,1,2.12-.58,3.81,3.81,0,0,1,3,1.28A4.9,4.9,0,0,1,523,136.6v.11a5.31,5.31,0,0,1-.51,2.36A3.88,3.88,0,0,1,521,140.7a4,4,0,0,1-2.15.58,3.8,3.8,0,0,1-3-1.27,4.93,4.93,0,0,1-1.13-3.38Zm1.55.18a3.89,3.89,0,0,0,.69,2.41,2.26,2.26,0,0,0,1.87.91,2.2,2.2,0,0,0,1.86-.93,4.2,4.2,0,0,0,.69-2.57,3.87,3.87,0,0,0-.7-2.41,2.24,2.24,0,0,0-1.87-.92,2.19,2.19,0,0,0-1.84.91A4.15,4.15,0,0,0,516.33,136.71Z"/><path d="M526.37,132.1l0,1a3.32,3.32,0,0,1,2.68-1.17,2.58,2.58,0,0,1,2.57,1.45,3.49,3.49,0,0,1,1.17-1,3.54,3.54,0,0,1,1.71-.4c2,0,3,1,3,3.15v6H536v-6a2.09,2.09,0,0,0-.44-1.45,2,2,0,0,0-1.48-.48,2.05,2.05,0,0,0-1.43.51,2.1,2.1,0,0,0-.66,1.38v6h-1.55v-5.91a1.72,1.72,0,0,0-1.92-2,2.07,2.07,0,0,0-2.08,1.29v6.59h-1.54v-9Z"/><path d="M298.49,160.51a2.28,2.28,0,0,0,1.45-.5,1.76,1.76,0,0,0,.68-1.25h1.46a2.82,2.82,0,0,1-.54,1.47,3.42,3.42,0,0,1-1.31,1.12,3.87,3.87,0,0,1-1.74.41,3.7,3.7,0,0,1-2.92-1.23,4.87,4.87,0,0,1-1.09-3.36v-.26a5.5,5.5,0,0,1,.48-2.34,3.72,3.72,0,0,1,1.39-1.59,3.91,3.91,0,0,1,2.14-.57,3.64,3.64,0,0,1,2.52.91,3.27,3.27,0,0,1,1.07,2.36h-1.46a2.16,2.16,0,0,0-.66-1.44,2.09,2.09,0,0,0-1.47-.56,2.13,2.13,0,0,0-1.82.85A3.9,3.9,0,0,0,296,157v.29a3.87,3.87,0,0,0,.64,2.4A2.18,2.18,0,0,0,298.49,160.51Z"/><path d="M309.38,161.6a3.4,3.4,0,0,1-.22-.95,3.45,3.45,0,0,1-2.56,1.11,3.2,3.2,0,0,1-2.19-.75,2.44,2.44,0,0,1-.86-1.91,2.56,2.56,0,0,1,1.07-2.19,5.07,5.07,0,0,1,3-.78h1.5v-.71a1.75,1.75,0,0,0-.49-1.29,1.92,1.92,0,0,0-1.42-.47,2.22,2.22,0,0,0-1.38.41,1.22,1.22,0,0,0-.56,1h-1.55a2.12,2.12,0,0,1,.48-1.3,3.22,3.22,0,0,1,1.3-1,4.39,4.39,0,0,1,1.8-.37,3.56,3.56,0,0,1,2.44.78,2.81,2.81,0,0,1,.92,2.15v4.15a5.08,5.08,0,0,0,.31,2v.14Zm-2.56-1.18a2.69,2.69,0,0,0,1.37-.37,2.29,2.29,0,0,0,.95-1v-1.85h-1.21c-1.89,0-2.83.55-2.83,1.66a1.4,1.4,0,0,0,.48,1.13A1.8,1.8,0,0,0,306.82,160.42Z"/><path d="M320.71,157.19a5.4,5.4,0,0,1-.94,3.32,3,3,0,0,1-2.55,1.25,3.28,3.28,0,0,1-2.58-1v4.34H313.1V152.58h1.4l.08,1a3.17,3.17,0,0,1,2.61-1.17,3.08,3.08,0,0,1,2.58,1.23,5.46,5.46,0,0,1,.94,3.41Zm-1.54-.18a4,4,0,0,0-.65-2.4,2.09,2.09,0,0,0-1.78-.89,2.26,2.26,0,0,0-2.1,1.24v4.31a2.27,2.27,0,0,0,2.11,1.24,2.12,2.12,0,0,0,1.77-.88A4.42,4.42,0,0,0,319.17,157Z"/><path d="M324.76,150.4v2.18h1.68v1.19h-1.68v5.6a1.24,1.24,0,0,0,.23.81.94.94,0,0,0,.76.28,4.34,4.34,0,0,0,.74-.1v1.24a4.54,4.54,0,0,1-1.19.16,1.92,1.92,0,0,1-1.56-.62,2.7,2.7,0,0,1-.52-1.78v-5.59h-1.64v-1.19h1.64V150.4Z"/><path d="M328.25,150.19a.92.92,0,0,1,.23-.63,1,1,0,0,1,1.36,0,.88.88,0,0,1,.24.63.84.84,0,0,1-.24.62,1,1,0,0,1-1.36,0A.88.88,0,0,1,328.25,150.19Zm1.67,11.41h-1.54v-9h1.54Z"/><path d="M335.36,159.51l2.23-6.93h1.58l-3.23,9h-1.18l-3.27-9h1.58Z"/><path d="M340.66,150.19a.92.92,0,0,1,.23-.63,1,1,0,0,1,1.36,0,.88.88,0,0,1,.24.63.84.84,0,0,1-.24.62,1,1,0,0,1-1.36,0A.88.88,0,0,1,340.66,150.19Zm1.67,11.41h-1.54v-9h1.54Z"/><path d="M346.89,150.4v2.18h1.68v1.19h-1.68v5.6a1.24,1.24,0,0,0,.22.81,1,1,0,0,0,.77.28,4.25,4.25,0,0,0,.73-.1v1.24a4.46,4.46,0,0,1-1.18.16,1.91,1.91,0,0,1-1.56-.62,2.7,2.7,0,0,1-.52-1.78v-5.59H343.7v-1.19h1.65V150.4Z"/><path d="M353.32,159.34l2.1-6.76h1.65L353.44,163q-.84,2.25-2.67,2.25l-.29,0-.58-.1v-1.25l.42,0a2.06,2.06,0,0,0,1.22-.32,2.32,2.32,0,0,0,.72-1.16l.34-.91-3.21-8.92h1.68Z"/><path d="M368.24,161.6a3.07,3.07,0,0,1-.22-.95,3.45,3.45,0,0,1-2.57,1.11,3.2,3.2,0,0,1-2.19-.75,2.46,2.46,0,0,1-.85-1.91,2.56,2.56,0,0,1,1.07-2.19,5.06,5.06,0,0,1,3-.78H368v-.71a1.74,1.74,0,0,0-.48-1.29,1.93,1.93,0,0,0-1.42-.47,2.25,2.25,0,0,0-1.39.41,1.25,1.25,0,0,0-.56,1h-1.55a2.12,2.12,0,0,1,.48-1.3,3.29,3.29,0,0,1,1.3-1,4.47,4.47,0,0,1,1.81-.37,3.56,3.56,0,0,1,2.44.78,2.85,2.85,0,0,1,.92,2.15v4.15a5.08,5.08,0,0,0,.31,2v.14Zm-2.56-1.18a2.69,2.69,0,0,0,1.37-.37,2.21,2.21,0,0,0,.94-1v-1.85h-1.2c-1.89,0-2.84.55-2.84,1.66a1.38,1.38,0,0,0,.49,1.13A1.8,1.8,0,0,0,365.68,160.42Z"/><path d="M373.41,152.58l0,1.13a3.31,3.31,0,0,1,2.7-1.3q2.86,0,2.89,3.23v6H377.5v-6a2.05,2.05,0,0,0-.44-1.44,1.8,1.8,0,0,0-1.37-.47,2.26,2.26,0,0,0-1.31.4,2.84,2.84,0,0,0-.89,1v6.43H372v-9Z"/><path d="M381,157a5.24,5.24,0,0,1,1-3.33,3.33,3.33,0,0,1,5.08-.18v-4.7h1.54v12.8h-1.41l-.08-1a3.12,3.12,0,0,1-2.57,1.13,3.07,3.07,0,0,1-2.56-1.28,5.34,5.34,0,0,1-1-3.35Zm1.55.18a4,4,0,0,0,.63,2.4,2,2,0,0,0,1.75.87,2.24,2.24,0,0,0,2.14-1.32V155a2.27,2.27,0,0,0-2.12-1.28,2,2,0,0,0-1.77.88A4.4,4.4,0,0,0,382.54,157.19Z"/><path d="M398.84,160.51a2.23,2.23,0,0,0,1.44-.5,1.76,1.76,0,0,0,.68-1.25h1.46a2.89,2.89,0,0,1-.53,1.47,3.53,3.53,0,0,1-1.32,1.12,3.83,3.83,0,0,1-1.73.41,3.7,3.7,0,0,1-2.93-1.23,4.87,4.87,0,0,1-1.09-3.36v-.26a5.5,5.5,0,0,1,.48-2.34,3.78,3.78,0,0,1,1.39-1.59,3.93,3.93,0,0,1,2.14-.57,3.64,3.64,0,0,1,2.52.91,3.23,3.23,0,0,1,1.07,2.36H401a2.11,2.11,0,0,0-.66-1.44,2.09,2.09,0,0,0-1.47-.56,2.13,2.13,0,0,0-1.82.85,4,4,0,0,0-.65,2.44v.29a3.94,3.94,0,0,0,.64,2.4A2.19,2.19,0,0,0,398.84,160.51Z"/><path d="M403.74,157a5.45,5.45,0,0,1,.52-2.39,3.88,3.88,0,0,1,3.58-2.21,3.79,3.79,0,0,1,3,1.28,4.9,4.9,0,0,1,1.14,3.39v.11a5.45,5.45,0,0,1-.5,2.36,3.88,3.88,0,0,1-1.44,1.63,4,4,0,0,1-2.16.58,3.79,3.79,0,0,1-3-1.27,4.89,4.89,0,0,1-1.14-3.38Zm1.55.18a3.9,3.9,0,0,0,.7,2.41,2.23,2.23,0,0,0,1.86.91,2.2,2.2,0,0,0,1.87-.93,4.2,4.2,0,0,0,.69-2.57,3.85,3.85,0,0,0-.7-2.41,2.26,2.26,0,0,0-1.87-.92,2.21,2.21,0,0,0-1.85.91A4.21,4.21,0,0,0,405.29,157.19Z"/><path d="M415.34,152.58l.05,1.13a3.31,3.31,0,0,1,2.7-1.3q2.87,0,2.89,3.23v6h-1.54v-6a2.1,2.1,0,0,0-.45-1.44,1.79,1.79,0,0,0-1.36-.47,2.29,2.29,0,0,0-1.32.4,2.73,2.73,0,0,0-.88,1v6.43h-1.54v-9Z"/><path d="M428.55,159.21a1.13,1.13,0,0,0-.47-1,4.59,4.59,0,0,0-1.64-.59,8.13,8.13,0,0,1-1.86-.6,2.63,2.63,0,0,1-1-.83,2.09,2.09,0,0,1-.32-1.15,2.35,2.35,0,0,1,.93-1.88,3.69,3.69,0,0,1,2.4-.77,3.78,3.78,0,0,1,2.49.8,2.51,2.51,0,0,1,.95,2h-1.55a1.38,1.38,0,0,0-.54-1.09,2,2,0,0,0-1.35-.46,2.09,2.09,0,0,0-1.32.37,1.16,1.16,0,0,0-.47,1,.94.94,0,0,0,.44.84,5.35,5.35,0,0,0,1.59.54,8.26,8.26,0,0,1,1.88.62,2.66,2.66,0,0,1,1.06.86,2.1,2.1,0,0,1,.34,1.23,2.3,2.3,0,0,1-1,1.93,4,4,0,0,1-2.51.73,4.51,4.51,0,0,1-1.92-.38,3.13,3.13,0,0,1-1.3-1.07,2.53,2.53,0,0,1-.47-1.49h1.54a1.58,1.58,0,0,0,.62,1.23,2.83,2.83,0,0,0,2.93.1A1.07,1.07,0,0,0,428.55,159.21Z"/><path d="M435.84,161.76a4,4,0,0,1-3-1.2,4.46,4.46,0,0,1-1.15-3.22v-.28a5.43,5.43,0,0,1,.51-2.4,4,4,0,0,1,1.44-1.65,3.57,3.57,0,0,1,2-.6,3.4,3.4,0,0,1,2.74,1.16,5,5,0,0,1,1,3.32v.64h-6.11a3.15,3.15,0,0,0,.78,2.15,2.46,2.46,0,0,0,1.9.83,2.71,2.71,0,0,0,1.38-.34,3.31,3.31,0,0,0,1-.88l.94.73A3.78,3.78,0,0,1,435.84,161.76Zm-.19-8.08a2.05,2.05,0,0,0-1.56.68,3.25,3.25,0,0,0-.79,1.9h4.52v-.11a3,3,0,0,0-.63-1.82A2,2,0,0,0,435.65,153.68Z"/><path d="M445.5,154a4.47,4.47,0,0,0-.76-.05,2,2,0,0,0-2.05,1.29v6.4h-1.55v-9h1.5l0,1a2.42,2.42,0,0,1,2.15-1.21,1.5,1.5,0,0,1,.68.12Z"/><path d="M450,159.51l2.24-6.93h1.57l-3.23,9h-1.18l-3.26-9h1.57Z"/><path d="M460.78,161.6a3.4,3.4,0,0,1-.22-.95,3.45,3.45,0,0,1-2.57,1.11,3.19,3.19,0,0,1-2.18-.75,2.44,2.44,0,0,1-.86-1.91,2.56,2.56,0,0,1,1.07-2.19,5.07,5.07,0,0,1,3-.78h1.5v-.71a1.75,1.75,0,0,0-.49-1.29,1.92,1.92,0,0,0-1.42-.47,2.27,2.27,0,0,0-1.39.41,1.24,1.24,0,0,0-.55,1h-1.55a2.12,2.12,0,0,1,.48-1.3,3.15,3.15,0,0,1,1.3-1,4.39,4.39,0,0,1,1.8-.37,3.56,3.56,0,0,1,2.44.78,2.81,2.81,0,0,1,.92,2.15v4.15a5.08,5.08,0,0,0,.31,2v.14Zm-2.56-1.18a2.69,2.69,0,0,0,1.37-.37,2.29,2.29,0,0,0,1-1v-1.85h-1.21c-1.89,0-2.84.55-2.84,1.66A1.41,1.41,0,0,0,457,160,1.8,1.8,0,0,0,458.22,160.42Z"/><path d="M466.59,150.4v2.18h1.68v1.19h-1.68v5.6a1.24,1.24,0,0,0,.22.81,1,1,0,0,0,.77.28,4.25,4.25,0,0,0,.73-.1v1.24a4.46,4.46,0,0,1-1.18.16,1.91,1.91,0,0,1-1.56-.62,2.7,2.7,0,0,1-.53-1.78v-5.59H463.4v-1.19H465V150.4Z"/><path d="M470.08,150.19a.88.88,0,0,1,.23-.63.83.83,0,0,1,.68-.26.85.85,0,0,1,.68.26.92.92,0,0,1,.23.63.83.83,0,0,1-.91.87.86.86,0,0,1-.68-.25A.84.84,0,0,1,470.08,150.19Zm1.66,11.41H470.2v-9h1.54Z"/><path d="M473.8,157a5.45,5.45,0,0,1,.52-2.39,3.9,3.9,0,0,1,1.45-1.63,4,4,0,0,1,2.12-.58,3.79,3.79,0,0,1,3,1.28,4.9,4.9,0,0,1,1.14,3.39v.11a5.45,5.45,0,0,1-.5,2.36,3.83,3.83,0,0,1-1.45,1.63,4,4,0,0,1-2.15.58,3.79,3.79,0,0,1-3-1.27,4.89,4.89,0,0,1-1.14-3.38Zm1.55.18a3.83,3.83,0,0,0,.7,2.41,2.35,2.35,0,0,0,3.73,0,4.2,4.2,0,0,0,.69-2.57,3.86,3.86,0,0,0-.71-2.41,2.23,2.23,0,0,0-1.87-.92,2.21,2.21,0,0,0-1.84.91A4.21,4.21,0,0,0,475.35,157.19Z"/><path d="M485.4,152.58l.05,1.13a3.31,3.31,0,0,1,2.7-1.3q2.87,0,2.89,3.23v6h-1.55v-6a2.05,2.05,0,0,0-.44-1.44,1.79,1.79,0,0,0-1.36-.47,2.29,2.29,0,0,0-1.32.4,2.73,2.73,0,0,0-.88,1v6.43h-1.55v-9Z"/><path d="M503.15,161.6a3.14,3.14,0,0,1-.21-.95,3.47,3.47,0,0,1-2.57,1.11,3.2,3.2,0,0,1-2.19-.75,2.43,2.43,0,0,1-.85-1.91,2.54,2.54,0,0,1,1.07-2.19,5,5,0,0,1,3-.78h1.5v-.71a1.74,1.74,0,0,0-.48-1.29,1.94,1.94,0,0,0-1.43-.47,2.22,2.22,0,0,0-1.38.41,1.25,1.25,0,0,0-.56,1h-1.55a2.12,2.12,0,0,1,.48-1.3,3.22,3.22,0,0,1,1.3-1,4.46,4.46,0,0,1,1.8-.37,3.58,3.58,0,0,1,2.45.78,2.84,2.84,0,0,1,.91,2.15v4.15a5.06,5.06,0,0,0,.32,2v.14Zm-2.56-1.18a2.7,2.7,0,0,0,1.38-.37,2.27,2.27,0,0,0,.94-1v-1.85H501.7c-1.89,0-2.83.55-2.83,1.66a1.4,1.4,0,0,0,.48,1.13A1.84,1.84,0,0,0,500.59,160.42Z"/><path d="M511.23,154a4.62,4.62,0,0,0-.76-.05,2,2,0,0,0-2.06,1.29v6.4h-1.54v-9h1.5l0,1a2.43,2.43,0,0,1,2.15-1.21,1.58,1.58,0,0,1,.69.12Z"/><path d="M516.23,161.76a4,4,0,0,1-3-1.2,4.5,4.5,0,0,1-1.15-3.22v-.28a5.29,5.29,0,0,1,.52-2.4A4,4,0,0,1,514,153a3.58,3.58,0,0,1,2-.6,3.38,3.38,0,0,1,2.73,1.16,5,5,0,0,1,1,3.32v.64h-6.1a3.2,3.2,0,0,0,.77,2.15,2.46,2.46,0,0,0,1.9.83,2.69,2.69,0,0,0,1.38-.34,3.31,3.31,0,0,0,1-.88l1,.73A3.79,3.79,0,0,1,516.23,161.76Zm-.19-8.08a2.06,2.06,0,0,0-1.57.68,3.39,3.39,0,0,0-.79,1.9h4.52v-.11a2.88,2.88,0,0,0-.63-1.82A1.94,1.94,0,0,0,516,153.68Z"/><path d="M527.09,161.6a3.48,3.48,0,0,1-.21-.95,3.45,3.45,0,0,1-2.57,1.11,3.2,3.2,0,0,1-2.19-.75,2.43,2.43,0,0,1-.85-1.91,2.56,2.56,0,0,1,1.07-2.19,5,5,0,0,1,3-.78h1.5v-.71a1.74,1.74,0,0,0-.48-1.29,1.94,1.94,0,0,0-1.43-.47,2.22,2.22,0,0,0-1.38.41,1.25,1.25,0,0,0-.56,1h-1.55a2.12,2.12,0,0,1,.48-1.3,3.22,3.22,0,0,1,1.3-1,4.47,4.47,0,0,1,1.81-.37,3.57,3.57,0,0,1,2.44.78,2.81,2.81,0,0,1,.91,2.15v4.15a5.06,5.06,0,0,0,.32,2v.14Zm-2.55-1.18a2.69,2.69,0,0,0,1.37-.37,2.27,2.27,0,0,0,.94-1v-1.85h-1.21c-1.88,0-2.83.55-2.83,1.66a1.4,1.4,0,0,0,.48,1.13A1.85,1.85,0,0,0,524.54,160.42Z"/><path d="M536.06,159.21a1.16,1.16,0,0,0-.47-1,4.59,4.59,0,0,0-1.64-.59,8.13,8.13,0,0,1-1.86-.6,2.63,2.63,0,0,1-1-.83,2,2,0,0,1-.33-1.15,2.36,2.36,0,0,1,.94-1.88,3.68,3.68,0,0,1,2.4-.77,3.73,3.73,0,0,1,2.48.8,2.49,2.49,0,0,1,1,2H536a1.38,1.38,0,0,0-.54-1.09,2,2,0,0,0-1.35-.46,2.09,2.09,0,0,0-1.32.37,1.13,1.13,0,0,0-.47,1,.92.92,0,0,0,.44.84,5.24,5.24,0,0,0,1.59.54,8,8,0,0,1,1.87.62,2.63,2.63,0,0,1,1.07.86,2.1,2.1,0,0,1,.34,1.23,2.3,2.3,0,0,1-1,1.93,4.06,4.06,0,0,1-2.51.73,4.48,4.48,0,0,1-1.92-.38,3.07,3.07,0,0,1-1.3-1.07,2.53,2.53,0,0,1-.47-1.49H532a1.58,1.58,0,0,0,.62,1.23,2.4,2.4,0,0,0,1.53.46,2.44,2.44,0,0,0,1.4-.36A1.1,1.1,0,0,0,536.06,159.21Z"/><path d="M539.56,164l-.88-.6a3.91,3.91,0,0,0,.82-2.25v-1.39H541V161a3.85,3.85,0,0,1-.41,1.68A4,4,0,0,1,539.56,164Z"/><path d="M284.79,170.67A.91.91,0,0,1,285,170a.85.85,0,0,1,.68-.26.87.87,0,0,1,.69.26.92.92,0,0,1,.23.63.88.88,0,0,1-.23.62.9.9,0,0,1-.69.25.81.81,0,0,1-.9-.87Zm1.66,11.41h-1.54v-9h1.54Z"/><path d="M290.38,173.06l.05,1.13a3.31,3.31,0,0,1,2.7-1.3q2.85,0,2.88,3.23v6h-1.54v-6a2.1,2.1,0,0,0-.45-1.44,1.78,1.78,0,0,0-1.36-.47,2.29,2.29,0,0,0-1.32.4,2.82,2.82,0,0,0-.88,1.05v6.43h-1.54v-9Z"/><path d="M302,181a2.23,2.23,0,0,0,1.44-.5,1.77,1.77,0,0,0,.69-1.25h1.46a2.82,2.82,0,0,1-.54,1.47,3.42,3.42,0,0,1-1.31,1.12,3.9,3.9,0,0,1-1.74.41A3.72,3.72,0,0,1,299,181a4.92,4.92,0,0,1-1.08-3.36v-.26a5.5,5.5,0,0,1,.48-2.34,3.65,3.65,0,0,1,1.39-1.59,3.9,3.9,0,0,1,2.13-.57,3.65,3.65,0,0,1,2.53.91,3.31,3.31,0,0,1,1.07,2.36h-1.46a2.2,2.2,0,0,0-.66-1.44,2.1,2.1,0,0,0-1.48-.56,2.15,2.15,0,0,0-1.82.85,4,4,0,0,0-.64,2.44v.29a3.87,3.87,0,0,0,.64,2.4A2.18,2.18,0,0,0,302,181Z"/><path d="M308.94,182.08H307.4v-12.8h1.54Z"/><path d="M317,181.19a3.29,3.29,0,0,1-2.64,1.05,2.82,2.82,0,0,1-2.2-.83,3.62,3.62,0,0,1-.76-2.48v-5.87h1.54v5.83c0,1.36.55,2.05,1.67,2.05a2.29,2.29,0,0,0,2.34-1.32v-6.56h1.55v9H317Z"/><path d="M320.44,177.49a5.24,5.24,0,0,1,1-3.33,3.33,3.33,0,0,1,5.08-.18v-4.7h1.54v12.8h-1.41l-.08-1a3.12,3.12,0,0,1-2.57,1.13,3.07,3.07,0,0,1-2.56-1.28,5.34,5.34,0,0,1-1-3.35Zm1.55.18a4,4,0,0,0,.63,2.4,2,2,0,0,0,1.75.87,2.24,2.24,0,0,0,2.14-1.32v-4.14a2.27,2.27,0,0,0-2.12-1.28,2,2,0,0,0-1.77.88A4.4,4.4,0,0,0,322,177.67Z"/><path d="M330.45,170.67a.92.92,0,0,1,.23-.63,1,1,0,0,1,1.36,0,.88.88,0,0,1,.24.63.84.84,0,0,1-.24.62,1,1,0,0,1-1.36,0A.88.88,0,0,1,330.45,170.67Zm1.67,11.41h-1.54v-9h1.54Z"/><path d="M336,173.06l0,1.13a3.31,3.31,0,0,1,2.7-1.3q2.86,0,2.89,3.23v6h-1.54v-6a2.1,2.1,0,0,0-.45-1.44,1.79,1.79,0,0,0-1.36-.47,2.29,2.29,0,0,0-1.32.4,2.73,2.73,0,0,0-.88,1.05v6.43h-1.54v-9Z"/><path d="M343.64,177.49a5.3,5.3,0,0,1,1-3.35,3.36,3.36,0,0,1,5.16-.08l.07-1h1.41v8.8a3.63,3.63,0,0,1-1,2.76,3.83,3.83,0,0,1-2.78,1,4.61,4.61,0,0,1-1.91-.42,3.36,3.36,0,0,1-1.43-1.14l.8-.93a3,3,0,0,0,2.43,1.23,2.36,2.36,0,0,0,1.75-.63,2.44,2.44,0,0,0,.63-1.79v-.77a3.16,3.16,0,0,1-2.52,1.06,3.09,3.09,0,0,1-2.57-1.27A5.6,5.6,0,0,1,343.64,177.49Zm1.54.18a4,4,0,0,0,.63,2.39,2,2,0,0,0,1.75.88,2.26,2.26,0,0,0,2.14-1.33v-4.12a2.28,2.28,0,0,0-2.12-1.29,2,2,0,0,0-1.76.88A4.39,4.39,0,0,0,345.18,177.67Z"/><path d="M361.54,182.24a4,4,0,0,1-3-1.2,4.46,4.46,0,0,1-1.15-3.22v-.28a5.43,5.43,0,0,1,.51-2.4,4,4,0,0,1,1.44-1.65,3.57,3.57,0,0,1,2-.6,3.42,3.42,0,0,1,2.74,1.16,5.07,5.07,0,0,1,1,3.32V178H359a3.15,3.15,0,0,0,.78,2.15,2.46,2.46,0,0,0,1.9.83,2.71,2.71,0,0,0,1.38-.34,3.31,3.31,0,0,0,1-.88l.94.73A3.78,3.78,0,0,1,361.54,182.24Zm-.19-8.08a2.05,2.05,0,0,0-1.56.68,3.25,3.25,0,0,0-.79,1.9h4.52v-.11a3,3,0,0,0-.63-1.82A2,2,0,0,0,361.35,174.16Z"/><path d="M368.3,173.06l.05,1.13a3.31,3.31,0,0,1,2.7-1.3q2.86,0,2.89,3.23v6h-1.55v-6a2.05,2.05,0,0,0-.44-1.44,1.79,1.79,0,0,0-1.36-.47,2.29,2.29,0,0,0-1.32.4,2.73,2.73,0,0,0-.88,1.05v6.43h-1.55v-9Z"/><path d="M375.89,177.49a5.24,5.24,0,0,1,1-3.33A3.33,3.33,0,0,1,382,174v-4.7h1.54v12.8h-1.41l-.08-1a3.11,3.11,0,0,1-2.57,1.13,3.07,3.07,0,0,1-2.56-1.28,5.4,5.4,0,0,1-1-3.35Zm1.54.18a4,4,0,0,0,.63,2.4,2,2,0,0,0,1.75.87,2.24,2.24,0,0,0,2.14-1.32v-4.14a2.27,2.27,0,0,0-2.12-1.28,2,2,0,0,0-1.77.88A4.4,4.4,0,0,0,377.43,177.67Z"/><path d="M391.45,182.08a3.14,3.14,0,0,1-.21-1,3.47,3.47,0,0,1-2.57,1.11,3.2,3.2,0,0,1-2.19-.75,2.43,2.43,0,0,1-.85-1.91,2.54,2.54,0,0,1,1.07-2.19,5,5,0,0,1,3-.78h1.5v-.71a1.74,1.74,0,0,0-.48-1.29,1.94,1.94,0,0,0-1.43-.47,2.22,2.22,0,0,0-1.38.41,1.25,1.25,0,0,0-.56,1h-1.55a2.12,2.12,0,0,1,.48-1.3,3.22,3.22,0,0,1,1.3-1,4.46,4.46,0,0,1,1.8-.37,3.58,3.58,0,0,1,2.45.78,2.84,2.84,0,0,1,.91,2.15V180a5.06,5.06,0,0,0,.32,2v.14Zm-2.56-1.18a2.7,2.7,0,0,0,1.38-.37,2.27,2.27,0,0,0,.94-1V177.7H390c-1.89,0-2.83.55-2.83,1.66a1.4,1.4,0,0,0,.48,1.13A1.82,1.82,0,0,0,388.89,180.9Z"/><path d="M396.63,173.06l.05,1.13a3.31,3.31,0,0,1,2.7-1.3q2.85,0,2.88,3.23v6h-1.54v-6a2.1,2.1,0,0,0-.45-1.44,1.78,1.78,0,0,0-1.36-.47,2.29,2.29,0,0,0-1.32.4,2.82,2.82,0,0,0-.88,1.05v6.43h-1.54v-9Z"/><path d="M404.22,177.49a5.3,5.3,0,0,1,1-3.35,3.13,3.13,0,0,1,2.59-1.25,3.09,3.09,0,0,1,2.57,1.17l.08-1h1.41v8.8a3.67,3.67,0,0,1-1,2.76,3.84,3.84,0,0,1-2.79,1,4.61,4.61,0,0,1-1.91-.42,3.27,3.27,0,0,1-1.42-1.14l.8-.93a3,3,0,0,0,2.42,1.23,2.38,2.38,0,0,0,1.76-.63,2.44,2.44,0,0,0,.62-1.79v-.77a3.14,3.14,0,0,1-2.52,1.06A3.06,3.06,0,0,1,405.2,181,5.54,5.54,0,0,1,404.22,177.49Zm1.55.18a4.06,4.06,0,0,0,.62,2.39,2,2,0,0,0,1.75.88,2.25,2.25,0,0,0,2.14-1.33v-4.12a2.28,2.28,0,0,0-2.12-1.29,2,2,0,0,0-1.76.88A4.4,4.4,0,0,0,405.77,177.67Z"/><path d="M417.9,182.24a3.93,3.93,0,0,1-3-1.2,4.46,4.46,0,0,1-1.15-3.22v-.28a5.43,5.43,0,0,1,.51-2.4,4,4,0,0,1,1.43-1.65,3.61,3.61,0,0,1,2-.6,3.38,3.38,0,0,1,2.73,1.16,5,5,0,0,1,1,3.32V178h-6.11a3.15,3.15,0,0,0,.78,2.15A2.45,2.45,0,0,0,418,181a2.72,2.72,0,0,0,1.39-.34,3.31,3.31,0,0,0,1-.88l.94.73A3.78,3.78,0,0,1,417.9,182.24Zm-.19-8.08a2.09,2.09,0,0,0-1.57.68,3.31,3.31,0,0,0-.78,1.9h4.52v-.11a2.94,2.94,0,0,0-.64-1.82A1.93,1.93,0,0,0,417.71,174.16Z"/><path d="M427.56,174.44a4.55,4.55,0,0,0-.76-.05,2,2,0,0,0-2.06,1.29v6.4H423.2v-9h1.5l0,1a2.4,2.4,0,0,1,2.15-1.21,1.53,1.53,0,0,1,.68.12Z"/><path d="M432.56,182.24a3.93,3.93,0,0,1-3-1.2,4.46,4.46,0,0,1-1.15-3.22v-.28a5.43,5.43,0,0,1,.51-2.4,4,4,0,0,1,1.43-1.65,3.61,3.61,0,0,1,2-.6,3.38,3.38,0,0,1,2.73,1.16,5,5,0,0,1,1,3.32V178H430a3.15,3.15,0,0,0,.78,2.15,2.43,2.43,0,0,0,1.89.83,2.72,2.72,0,0,0,1.39-.34,3.57,3.57,0,0,0,1-.88l.94.73A3.79,3.79,0,0,1,432.56,182.24Zm-.19-8.08a2.07,2.07,0,0,0-1.57.68,3.31,3.31,0,0,0-.78,1.9h4.52v-.11a2.94,2.94,0,0,0-.64-1.82A1.94,1.94,0,0,0,432.37,174.16Z"/><path d="M437.49,177.49a5.24,5.24,0,0,1,1-3.33,3.33,3.33,0,0,1,5.08-.18v-4.7h1.54v12.8h-1.41l-.08-1a3.11,3.11,0,0,1-2.57,1.13,3.07,3.07,0,0,1-2.56-1.28,5.33,5.33,0,0,1-1-3.35Zm1.54.18a4,4,0,0,0,.63,2.4,2,2,0,0,0,1.75.87,2.24,2.24,0,0,0,2.14-1.32v-4.14a2.27,2.27,0,0,0-2.12-1.28,2,2,0,0,0-1.77.88A4.4,4.4,0,0,0,439,177.67Z"/><path d="M451.3,177.49a5.31,5.31,0,0,1,.52-2.39,3.9,3.9,0,0,1,1.45-1.63,4,4,0,0,1,2.12-.58,3.81,3.81,0,0,1,3,1.28,4.9,4.9,0,0,1,1.14,3.39v.11A5.45,5.45,0,0,1,459,180a3.83,3.83,0,0,1-1.45,1.63,4,4,0,0,1-2.15.58,3.79,3.79,0,0,1-3-1.27,4.89,4.89,0,0,1-1.14-3.38Zm1.55.18a3.83,3.83,0,0,0,.7,2.41,2.35,2.35,0,0,0,3.73,0,4.2,4.2,0,0,0,.69-2.57,3.86,3.86,0,0,0-.71-2.41,2.24,2.24,0,0,0-1.87-.92,2.21,2.21,0,0,0-1.84.91A4.21,4.21,0,0,0,452.85,177.67Z"/><path d="M465.8,174.44a4.47,4.47,0,0,0-.76-.05,2,2,0,0,0-2.06,1.29v6.4h-1.54v-9h1.5l0,1a2.4,2.4,0,0,1,2.15-1.21,1.5,1.5,0,0,1,.68.12Z"/><path d="M473.54,170.88v2.18h1.68v1.19h-1.68v5.6a1.24,1.24,0,0,0,.22.81,1,1,0,0,0,.77.28,4.38,4.38,0,0,0,.73-.1v1.24a4.52,4.52,0,0,1-1.18.16,1.91,1.91,0,0,1-1.56-.62,2.7,2.7,0,0,1-.53-1.78v-5.59h-1.64v-1.19H472v-2.18Z"/><path d="M478.56,174.15a3.27,3.27,0,0,1,2.67-1.26q2.85,0,2.88,3.23v6h-1.54v-6a2.1,2.1,0,0,0-.45-1.44,1.78,1.78,0,0,0-1.36-.47,2.29,2.29,0,0,0-1.32.4,2.82,2.82,0,0,0-.88,1.05v6.43H477v-12.8h1.54Z"/><path d="M490.78,174.44a4.62,4.62,0,0,0-.76-.05,2,2,0,0,0-2.06,1.29v6.4h-1.54v-9h1.5l0,1a2.43,2.43,0,0,1,2.15-1.21,1.58,1.58,0,0,1,.69.12Z"/><path d="M495.78,182.24a4,4,0,0,1-3-1.2,4.5,4.5,0,0,1-1.15-3.22v-.28a5.29,5.29,0,0,1,.52-2.4,4,4,0,0,1,1.43-1.65,3.58,3.58,0,0,1,2-.6,3.38,3.38,0,0,1,2.73,1.16,5,5,0,0,1,1,3.32V178h-6.11a3.25,3.25,0,0,0,.78,2.15,2.46,2.46,0,0,0,1.9.83,2.69,2.69,0,0,0,1.38-.34,3.31,3.31,0,0,0,1-.88l.95.73A3.79,3.79,0,0,1,495.78,182.24Zm-.19-8.08a2.06,2.06,0,0,0-1.57.68,3.39,3.39,0,0,0-.79,1.9h4.52v-.11a2.88,2.88,0,0,0-.63-1.82A1.94,1.94,0,0,0,495.59,174.16Z"/><path d="M506.64,182.08a3.48,3.48,0,0,1-.21-1,3.47,3.47,0,0,1-2.57,1.11,3.2,3.2,0,0,1-2.19-.75,2.43,2.43,0,0,1-.85-1.91,2.56,2.56,0,0,1,1.07-2.19,5,5,0,0,1,3-.78h1.5v-.71a1.74,1.74,0,0,0-.48-1.29,1.94,1.94,0,0,0-1.43-.47,2.22,2.22,0,0,0-1.38.41,1.25,1.25,0,0,0-.56,1H501a2.12,2.12,0,0,1,.48-1.3,3.22,3.22,0,0,1,1.3-1,4.47,4.47,0,0,1,1.81-.37,3.57,3.57,0,0,1,2.44.78,2.81,2.81,0,0,1,.91,2.15V180a5.06,5.06,0,0,0,.32,2v.14Zm-2.55-1.18a2.69,2.69,0,0,0,1.37-.37,2.27,2.27,0,0,0,.94-1V177.7h-1.21c-1.88,0-2.83.55-2.83,1.66a1.4,1.4,0,0,0,.48,1.13A1.85,1.85,0,0,0,504.09,180.9Z"/><path d="M512.45,170.88v2.18h1.69v1.19h-1.69v5.6a1.24,1.24,0,0,0,.23.81.94.94,0,0,0,.76.28,4.34,4.34,0,0,0,.74-.1v1.24a4.54,4.54,0,0,1-1.19.16,1.94,1.94,0,0,1-1.56-.62,2.76,2.76,0,0,1-.52-1.78v-5.59h-1.64v-1.19h1.64v-2.18Z"/><path d="M519.68,182.24a4,4,0,0,1-3-1.2,4.5,4.5,0,0,1-1.15-3.22v-.28a5.29,5.29,0,0,1,.52-2.4,4,4,0,0,1,1.43-1.65,3.57,3.57,0,0,1,2-.6,3.39,3.39,0,0,1,2.74,1.16,5,5,0,0,1,1,3.32V178h-6.11a3.25,3.25,0,0,0,.78,2.15,2.46,2.46,0,0,0,1.9.83,2.71,2.71,0,0,0,1.38-.34,3.31,3.31,0,0,0,1-.88l1,.73A3.79,3.79,0,0,1,519.68,182.24Zm-.2-8.08a2.05,2.05,0,0,0-1.56.68,3.32,3.32,0,0,0-.79,1.9h4.52v-.11a2.88,2.88,0,0,0-.63-1.82A2,2,0,0,0,519.48,174.16Z"/><path d="M526.43,173.06l.05,1.13a3.31,3.31,0,0,1,2.7-1.3q2.87,0,2.89,3.23v6h-1.54v-6a2.1,2.1,0,0,0-.45-1.44,1.78,1.78,0,0,0-1.36-.47,2.29,2.29,0,0,0-1.32.4,2.73,2.73,0,0,0-.88,1.05v6.43H525v-9Z"/><path d="M538.14,182.24a4,4,0,0,1-3-1.2,4.5,4.5,0,0,1-1.15-3.22v-.28a5.43,5.43,0,0,1,.51-2.4,4.06,4.06,0,0,1,1.44-1.65,3.57,3.57,0,0,1,2-.6,3.39,3.39,0,0,1,2.74,1.16,5,5,0,0,1,1,3.32V178h-6.11a3.25,3.25,0,0,0,.78,2.15,2.46,2.46,0,0,0,1.9.83,2.71,2.71,0,0,0,1.38-.34,3.31,3.31,0,0,0,1-.88l.95.73A3.79,3.79,0,0,1,538.14,182.24Zm-.2-8.08a2.05,2.05,0,0,0-1.56.68,3.25,3.25,0,0,0-.79,1.9h4.52v-.11a2.94,2.94,0,0,0-.63-1.82A2,2,0,0,0,537.94,174.16Z"/><path d="M543.06,177.49a5.3,5.3,0,0,1,1-3.33,3.34,3.34,0,0,1,5.09-.18v-4.7h1.54v12.8h-1.42l-.07-1a3.14,3.14,0,0,1-2.58,1.13,3.07,3.07,0,0,1-2.55-1.28,5.34,5.34,0,0,1-1-3.35Zm1.54.18a4,4,0,0,0,.63,2.4,2.06,2.06,0,0,0,1.75.87,2.26,2.26,0,0,0,2.15-1.32v-4.14A2.27,2.27,0,0,0,547,174.2a2.07,2.07,0,0,0-1.77.88A4.4,4.4,0,0,0,544.6,177.67Z"/><path d="M309.49,200.17a1.13,1.13,0,0,0-.47-1,4.59,4.59,0,0,0-1.64-.59,8.13,8.13,0,0,1-1.86-.6,2.6,2.6,0,0,1-1-.83,2,2,0,0,1-.33-1.15,2.35,2.35,0,0,1,.93-1.88,3.69,3.69,0,0,1,2.4-.77,3.78,3.78,0,0,1,2.49.8,2.51,2.51,0,0,1,.95,2H309.4a1.38,1.38,0,0,0-.54-1.09,2,2,0,0,0-1.35-.46,2.09,2.09,0,0,0-1.32.37,1.16,1.16,0,0,0-.47,1,.94.94,0,0,0,.44.84,5.44,5.44,0,0,0,1.6.54,8.16,8.16,0,0,1,1.87.62,2.66,2.66,0,0,1,1.06.86,2.1,2.1,0,0,1,.35,1.23,2.31,2.31,0,0,1-1,1.93,4,4,0,0,1-2.51.73,4.51,4.51,0,0,1-1.92-.38,3.13,3.13,0,0,1-1.3-1.07,2.6,2.6,0,0,1-.47-1.49h1.54A1.61,1.61,0,0,0,306,201a2.44,2.44,0,0,0,1.53.46,2.5,2.5,0,0,0,1.41-.36A1.09,1.09,0,0,0,309.49,200.17Z"/><path d="M320.66,198.15a5.4,5.4,0,0,1-.94,3.32,3,3,0,0,1-2.55,1.25,3.26,3.26,0,0,1-2.58-1V206H313V193.54h1.41l.08,1a3.16,3.16,0,0,1,2.61-1.17,3.09,3.09,0,0,1,2.58,1.23,5.46,5.46,0,0,1,.94,3.41Zm-1.54-.18a4,4,0,0,0-.65-2.4,2.09,2.09,0,0,0-1.78-.89,2.26,2.26,0,0,0-2.1,1.24v4.31a2.27,2.27,0,0,0,2.11,1.24,2.12,2.12,0,0,0,1.77-.88A4.42,4.42,0,0,0,319.12,198Z"/><path d="M326.36,202.72a3.93,3.93,0,0,1-3-1.2,4.46,4.46,0,0,1-1.15-3.22V198a5.43,5.43,0,0,1,.51-2.4,4,4,0,0,1,1.43-1.65,3.61,3.61,0,0,1,2-.6,3.38,3.38,0,0,1,2.73,1.16,5,5,0,0,1,1,3.32v.64h-6.11a3.15,3.15,0,0,0,.78,2.15,2.45,2.45,0,0,0,1.89.83,2.72,2.72,0,0,0,1.39-.34,3.31,3.31,0,0,0,1-.88l.94.73A3.78,3.78,0,0,1,326.36,202.72Zm-.19-8.08a2.07,2.07,0,0,0-1.57.68,3.31,3.31,0,0,0-.78,1.9h4.52v-.11a2.94,2.94,0,0,0-.64-1.82A1.94,1.94,0,0,0,326.17,194.64Z"/><path d="M335.28,201.47a2.23,2.23,0,0,0,1.44-.5,1.76,1.76,0,0,0,.68-1.25h1.46a2.8,2.8,0,0,1-.53,1.47,3.53,3.53,0,0,1-1.32,1.12,3.83,3.83,0,0,1-1.73.41,3.7,3.7,0,0,1-2.93-1.23,4.87,4.87,0,0,1-1.09-3.36v-.26a5.5,5.5,0,0,1,.48-2.34,3.78,3.78,0,0,1,1.39-1.59,3.93,3.93,0,0,1,2.14-.57,3.64,3.64,0,0,1,2.52.91,3.23,3.23,0,0,1,1.07,2.36H337.4a2.11,2.11,0,0,0-.66-1.44,2.09,2.09,0,0,0-1.47-.56,2.15,2.15,0,0,0-1.82.85,4,4,0,0,0-.65,2.44v.29a3.94,3.94,0,0,0,.64,2.4A2.19,2.19,0,0,0,335.28,201.47Z"/><path d="M340.6,191.15a.92.92,0,0,1,.23-.63,1,1,0,0,1,1.36,0,.88.88,0,0,1,.24.63.84.84,0,0,1-.24.62,1,1,0,0,1-1.36,0A.88.88,0,0,1,340.6,191.15Zm1.67,11.41h-1.54v-9h1.54Z"/><path d="M348.48,202.72a4,4,0,0,1-3-1.2,4.5,4.5,0,0,1-1.15-3.22V198a5.29,5.29,0,0,1,.52-2.4,4,4,0,0,1,1.43-1.65,3.58,3.58,0,0,1,2-.6,3.38,3.38,0,0,1,2.73,1.16,5,5,0,0,1,1,3.32v.64h-6.1a3.2,3.2,0,0,0,.77,2.15,2.46,2.46,0,0,0,1.9.83,2.69,2.69,0,0,0,1.38-.34,3.31,3.31,0,0,0,1-.88l.95.73A3.79,3.79,0,0,1,348.48,202.72Zm-.19-8.08a2.06,2.06,0,0,0-1.57.68,3.39,3.39,0,0,0-.79,1.9h4.52v-.11a2.88,2.88,0,0,0-.63-1.82A1.94,1.94,0,0,0,348.29,194.64Z"/><path d="M359,200.17a1.16,1.16,0,0,0-.47-1,4.65,4.65,0,0,0-1.65-.59,7.86,7.86,0,0,1-1.85-.6,2.63,2.63,0,0,1-1-.83,2,2,0,0,1-.33-1.15,2.33,2.33,0,0,1,.94-1.88,3.65,3.65,0,0,1,2.39-.77,3.76,3.76,0,0,1,2.49.8,2.49,2.49,0,0,1,1,2h-1.55a1.38,1.38,0,0,0-.54-1.09,2,2,0,0,0-1.36-.46,2,2,0,0,0-1.31.37,1.14,1.14,0,0,0-.48,1,.94.94,0,0,0,.44.84,5.44,5.44,0,0,0,1.6.54,8.16,8.16,0,0,1,1.87.62,2.59,2.59,0,0,1,1.06.86,2.1,2.1,0,0,1,.35,1.23,2.28,2.28,0,0,1-1,1.93,4,4,0,0,1-2.51.73,4.43,4.43,0,0,1-1.91-.38,3.16,3.16,0,0,1-1.31-1.07,2.6,2.6,0,0,1-.47-1.49h1.54a1.61,1.61,0,0,0,.62,1.23,2.44,2.44,0,0,0,1.53.46,2.48,2.48,0,0,0,1.41-.36A1.1,1.1,0,0,0,359,200.17Z"/><path d="M366.43,198a5.3,5.3,0,0,1,1-3.33,3.33,3.33,0,0,1,5.08-.18v-4.7H374v12.8h-1.42l-.08-1a3.11,3.11,0,0,1-2.57,1.13,3.05,3.05,0,0,1-2.55-1.28,5.34,5.34,0,0,1-1-3.35Zm1.54.18a4,4,0,0,0,.63,2.4,2,2,0,0,0,1.75.87,2.24,2.24,0,0,0,2.14-1.32V196a2.27,2.27,0,0,0-2.12-1.28,2,2,0,0,0-1.77.88A4.4,4.4,0,0,0,368,198.15Z"/><path d="M380.17,202.72a3.93,3.93,0,0,1-3-1.2A4.46,4.46,0,0,1,376,198.3V198a5.43,5.43,0,0,1,.51-2.4A4,4,0,0,1,378,194a3.61,3.61,0,0,1,2-.6,3.38,3.38,0,0,1,2.73,1.16,5,5,0,0,1,1,3.32v.64h-6.11a3.15,3.15,0,0,0,.78,2.15,2.43,2.43,0,0,0,1.89.83,2.72,2.72,0,0,0,1.39-.34,3.57,3.57,0,0,0,1-.88l.94.73A3.79,3.79,0,0,1,380.17,202.72Zm-.19-8.08a2.07,2.07,0,0,0-1.57.68,3.31,3.31,0,0,0-.78,1.9h4.51v-.11a2.88,2.88,0,0,0-.63-1.82A1.94,1.94,0,0,0,380,194.64Z"/><path d="M387.56,191.36v2.18h1.68v1.19h-1.68v5.6a1.24,1.24,0,0,0,.23.81.94.94,0,0,0,.76.28,4.47,4.47,0,0,0,.74-.1v1.24a4.54,4.54,0,0,1-1.19.16,1.91,1.91,0,0,1-1.56-.62,2.7,2.7,0,0,1-.52-1.78v-5.59h-1.64v-1.19H386v-2.18Z"/><path d="M396.61,202.56a3.4,3.4,0,0,1-.22-.95,3.43,3.43,0,0,1-2.56,1.11,3.2,3.2,0,0,1-2.19-.75,2.43,2.43,0,0,1-.85-1.91,2.54,2.54,0,0,1,1.07-2.19,5,5,0,0,1,3-.78h1.5v-.71a1.74,1.74,0,0,0-.48-1.29,2,2,0,0,0-1.43-.47,2.22,2.22,0,0,0-1.38.41,1.25,1.25,0,0,0-.56,1H391a2.12,2.12,0,0,1,.48-1.3,3.22,3.22,0,0,1,1.3-1,4.46,4.46,0,0,1,1.8-.37,3.56,3.56,0,0,1,2.44.78,2.81,2.81,0,0,1,.92,2.15v4.15a5.06,5.06,0,0,0,.32,2v.14Zm-2.56-1.18a2.72,2.72,0,0,0,1.38-.37,2.33,2.33,0,0,0,.94-1v-1.85h-1.21c-1.89,0-2.83.55-2.83,1.66a1.4,1.4,0,0,0,.48,1.13A1.82,1.82,0,0,0,394.05,201.38Z"/><path d="M400.34,191.15a.91.91,0,0,1,.22-.63.85.85,0,0,1,.68-.26.87.87,0,0,1,.69.26.92.92,0,0,1,.23.63.88.88,0,0,1-.23.62.9.9,0,0,1-.69.25.81.81,0,0,1-.9-.87ZM402,202.56h-1.54v-9H402Z"/><path d="M405.93,193.54l.05,1.13a3.31,3.31,0,0,1,2.7-1.3q2.85,0,2.88,3.23v6H410v-6a2.1,2.1,0,0,0-.45-1.44,1.78,1.78,0,0,0-1.36-.47,2.29,2.29,0,0,0-1.32.4,2.82,2.82,0,0,0-.88,1v6.43h-1.54v-9Z"/><path d="M417.63,202.72a4,4,0,0,1-3-1.2,4.5,4.5,0,0,1-1.15-3.22V198a5.43,5.43,0,0,1,.52-2.4,4,4,0,0,1,1.43-1.65,3.58,3.58,0,0,1,2-.6,3.38,3.38,0,0,1,2.73,1.16,5,5,0,0,1,1,3.32v.64H415a3.2,3.2,0,0,0,.77,2.15,2.46,2.46,0,0,0,1.9.83,2.66,2.66,0,0,0,1.38-.34,3.47,3.47,0,0,0,1-.88l.94.73A3.79,3.79,0,0,1,417.63,202.72Zm-.19-8.08a2.06,2.06,0,0,0-1.57.68,3.31,3.31,0,0,0-.78,1.9h4.51v-.11a2.88,2.88,0,0,0-.63-1.82A1.94,1.94,0,0,0,417.44,194.64Z"/><path d="M422.55,198a5.24,5.24,0,0,1,1-3.33,3.33,3.33,0,0,1,5.08-.18v-4.7h1.54v12.8h-1.42l-.07-1a3.14,3.14,0,0,1-2.58,1.13,3.07,3.07,0,0,1-2.55-1.28,5.34,5.34,0,0,1-1-3.35Zm1.54.18a4,4,0,0,0,.64,2.4,2,2,0,0,0,1.75.87,2.25,2.25,0,0,0,2.14-1.32V196a2.27,2.27,0,0,0-2.13-1.28,2,2,0,0,0-1.76.88A4.32,4.32,0,0,0,424.09,198.15Z"/><path d="M444.41,198.15a5.38,5.38,0,0,1-1,3.32,3,3,0,0,1-2.55,1.25,3.14,3.14,0,0,1-2.64-1.2l-.08,1h-1.41v-12.8h1.54v4.77a3.13,3.13,0,0,1,2.57-1.16,3,3,0,0,1,2.58,1.25,5.47,5.47,0,0,1,.94,3.4Zm-1.54-.18a4.12,4.12,0,0,0-.61-2.43,2,2,0,0,0-1.75-.86,2.25,2.25,0,0,0-2.19,1.42V200a2.34,2.34,0,0,0,2.21,1.42,2,2,0,0,0,1.72-.86A4.48,4.48,0,0,0,442.87,198Z"/><path d="M449.21,200.3l2.1-6.76H453L449.34,204c-.57,1.5-1.46,2.25-2.68,2.25l-.29,0-.58-.1v-1.25l.42,0a2.06,2.06,0,0,0,1.22-.32,2.32,2.32,0,0,0,.72-1.16l.34-.91-3.21-8.92H447Z"/><path d="M466.18,198.15a5.47,5.47,0,0,1-.94,3.32,3,3,0,0,1-2.55,1.25,3.3,3.3,0,0,1-2.59-1V206h-1.54V193.54H460l.07,1a3.18,3.18,0,0,1,2.62-1.17,3.07,3.07,0,0,1,2.57,1.23,5.46,5.46,0,0,1,.95,3.41Zm-1.54-.18a4,4,0,0,0-.65-2.4,2.11,2.11,0,0,0-1.79-.89,2.29,2.29,0,0,0-2.1,1.24v4.31a2.28,2.28,0,0,0,2.12,1.24,2.09,2.09,0,0,0,1.76-.88A4.34,4.34,0,0,0,464.64,198Z"/><path d="M467.73,198a5.31,5.31,0,0,1,.52-2.39A3.9,3.9,0,0,1,469.7,194a4,4,0,0,1,2.12-.58,3.81,3.81,0,0,1,3,1.28,4.9,4.9,0,0,1,1.14,3.39v.11a5.31,5.31,0,0,1-.51,2.36,3.81,3.81,0,0,1-1.44,1.63,4,4,0,0,1-2.15.58,3.8,3.8,0,0,1-3-1.27,4.93,4.93,0,0,1-1.13-3.38Zm1.55.18a3.89,3.89,0,0,0,.69,2.41,2.26,2.26,0,0,0,1.87.91,2.2,2.2,0,0,0,1.86-.93,4.2,4.2,0,0,0,.69-2.57,3.85,3.85,0,0,0-.7-2.41,2.24,2.24,0,0,0-1.87-.92,2.19,2.19,0,0,0-1.84.91A4.15,4.15,0,0,0,469.28,198.15Z"/><path d="M483.44,202.56a3.07,3.07,0,0,1-.22-.95,3.45,3.45,0,0,1-2.57,1.11,3.16,3.16,0,0,1-2.18-.75,2.44,2.44,0,0,1-.86-1.91,2.56,2.56,0,0,1,1.07-2.19,5.06,5.06,0,0,1,3-.78h1.5v-.71a1.74,1.74,0,0,0-.48-1.29,1.93,1.93,0,0,0-1.42-.47,2.25,2.25,0,0,0-1.39.41,1.25,1.25,0,0,0-.56,1h-1.55a2.12,2.12,0,0,1,.48-1.3,3.29,3.29,0,0,1,1.3-1,4.47,4.47,0,0,1,1.81-.37,3.56,3.56,0,0,1,2.44.78,2.85,2.85,0,0,1,.92,2.15v4.15a5.08,5.08,0,0,0,.31,2v.14Zm-2.56-1.18a2.69,2.69,0,0,0,1.37-.37,2.21,2.21,0,0,0,.94-1v-1.85H482c-1.89,0-2.84.55-2.84,1.66a1.38,1.38,0,0,0,.49,1.13A1.8,1.8,0,0,0,480.88,201.38Z"/><path d="M490.77,201.47a2.23,2.23,0,0,0,1.44-.5,1.76,1.76,0,0,0,.68-1.25h1.46a2.8,2.8,0,0,1-.53,1.47,3.58,3.58,0,0,1-1.31,1.12,3.9,3.9,0,0,1-1.74.41,3.7,3.7,0,0,1-2.93-1.23,4.87,4.87,0,0,1-1.09-3.36v-.26a5.36,5.36,0,0,1,.49-2.34,3.7,3.7,0,0,1,1.38-1.59,4,4,0,0,1,2.14-.57,3.64,3.64,0,0,1,2.52.91,3.23,3.23,0,0,1,1.07,2.36h-1.46a2.11,2.11,0,0,0-.66-1.44,2.09,2.09,0,0,0-1.47-.56,2.15,2.15,0,0,0-1.82.85,4,4,0,0,0-.65,2.44v.29a3.87,3.87,0,0,0,.65,2.4A2.15,2.15,0,0,0,490.77,201.47Z"/><path d="M497.63,194.63a3.26,3.26,0,0,1,2.66-1.26q2.86,0,2.89,3.23v6h-1.54v-6a2.1,2.1,0,0,0-.45-1.44,1.79,1.79,0,0,0-1.36-.47,2.29,2.29,0,0,0-1.32.4,2.73,2.73,0,0,0-.88,1v6.43h-1.54v-12.8h1.54Z"/><path d="M509.23,202.72a4,4,0,0,1-3-1.2,4.5,4.5,0,0,1-1.15-3.22V198a5.29,5.29,0,0,1,.52-2.4A4,4,0,0,1,507,194a3.58,3.58,0,0,1,2-.6,3.38,3.38,0,0,1,2.73,1.16,5,5,0,0,1,1,3.32v.64h-6.1a3.2,3.2,0,0,0,.77,2.15,2.46,2.46,0,0,0,1.9.83,2.69,2.69,0,0,0,1.38-.34,3.31,3.31,0,0,0,1-.88l.95.73A3.79,3.79,0,0,1,509.23,202.72Zm-.19-8.08a2.06,2.06,0,0,0-1.57.68,3.39,3.39,0,0,0-.79,1.9h4.52v-.11a2.88,2.88,0,0,0-.63-1.82A1.94,1.94,0,0,0,509,194.64Z"/><path d="M518.89,194.92a4.62,4.62,0,0,0-.76,0,2,2,0,0,0-2.06,1.29v6.4h-1.54v-9H516l0,1a2.42,2.42,0,0,1,2.15-1.21,1.58,1.58,0,0,1,.69.12Z"/><path d="M525.55,200.17a1.16,1.16,0,0,0-.47-1,4.59,4.59,0,0,0-1.64-.59,8.13,8.13,0,0,1-1.86-.6,2.63,2.63,0,0,1-1-.83,2.1,2.1,0,0,1-.33-1.15,2.36,2.36,0,0,1,.94-1.88,3.69,3.69,0,0,1,2.4-.77,3.78,3.78,0,0,1,2.49.8,2.51,2.51,0,0,1,1,2h-1.55a1.38,1.38,0,0,0-.54-1.09,2,2,0,0,0-1.35-.46,2.09,2.09,0,0,0-1.32.37,1.13,1.13,0,0,0-.47,1,.92.92,0,0,0,.44.84,5.24,5.24,0,0,0,1.59.54,8,8,0,0,1,1.87.62,2.63,2.63,0,0,1,1.07.86,2.1,2.1,0,0,1,.34,1.23,2.3,2.3,0,0,1-1,1.93,4,4,0,0,1-2.51.73,4.51,4.51,0,0,1-1.92-.38,3.13,3.13,0,0,1-1.3-1.07,2.53,2.53,0,0,1-.47-1.49h1.54a1.58,1.58,0,0,0,.62,1.23,2.4,2.4,0,0,0,1.53.46,2.44,2.44,0,0,0,1.4-.36A1.07,1.07,0,0,0,525.55,200.17Z"/><path d="M529.14,201.75a1,1,0,0,1,.23-.67.91.91,0,0,1,.72-.26.94.94,0,0,1,.72.26,1,1,0,0,1,.24.67.91.91,0,0,1-.24.64,1,1,0,0,1-.72.26,1,1,0,0,1-.72-.26A.9.9,0,0,1,529.14,201.75Z"/><rect class="cls-2" x="43.36" y="43.66" width="162.67" height="162.67" transform="translate(125.28 -51.56) rotate(45.12)"/><g class="cls-3"><path class="cls-4" d="M124.48,228.32,21.37,124.78,124.92,21.68,228,125.22ZM24.57,124.79l99.92,100.34,100.34-99.92L124.91,24.87Zm99.94,90.41L90.1,180.64l26.43-26.31L91,128.71l-18.18,18.1,12,12,5-4.95-7-7L91,138.64l15.6,15.66L85.14,175.67,55.06,145.46,75.7,124.9,55.14,104.25,85.35,74.17l21.37,21.45-15.67,15.6L82.85,103l7-7-5-5-12,12L91,121.15l25.62-25.51L90.33,69.21,124.89,34.8,159.3,69.36,132.87,95.67l25.52,25.62,18.18-18.1-12-12-5,4.95,7,7-8.23,8.19-15.6-15.67,21.45-21.36,30.08,30.21L173.7,125.1l20.56,20.65-30.21,30.08-21.37-21.45,15.67-15.6,8.2,8.23-7,7,5,5,12-12-18.11-18.18-25.62,25.51,26.32,26.43ZM93.29,180.65,124.52,212l31.36-31.23-26.32-26.43,28.82-28.7L179.67,147l-15.21,15.15L156.32,154l7-7-5-5-12.47,12.42,18.17,18.25,27-26.9L170.51,125.1l20.64-20.56-26.9-27L146,95.7l12.42,12.47,5-5-7-7L164.62,88l15.14,15.21-21.38,21.29-28.7-28.82,26.43-26.32L124.88,38,93.52,69.22l26.32,26.43L91,124.35,69.73,103,84.94,87.82,93.08,96l-7,7,5,5,12.46-12.42L85.35,77.36l-27,26.9L78.89,124.9,58.25,145.46l26.9,27L103.4,154.3,91,141.83l-5,5,7,7L84.79,162,69.64,146.8,91,125.51l28.7,28.82Zm105.94-39.86-15.6-15.67,15.67-15.6,15.6,15.67Zm-12.41-15.66,12.42,12.47,12.47-12.42-12.42-12.47ZM50.1,140.48,34.5,124.81l15.67-15.6,15.6,15.67ZM37.69,124.82l12.42,12.47,12.47-12.42L50.16,112.4Z"/><path class="cls-4" d="M124.53,204.55,100.39,180.3l24.25-24.14,24.14,24.24Zm-21-24.24,21,21.05,21-21-21-21.05Z"/><path class="cls-4" d="M124.77,93.17,100.62,68.93l24.25-24.15L149,69Zm-21-24.24,21,21,21-21-21-21Z"/></g><path class="cls-4" d="M98.44,171a1.86,1.86,0,0,1-.93-1.88c0-2,0-3.95,0-5.93a13.08,13.08,0,0,0-2.09-7.32c-.52-.81-1-1.61-1.52-2.44a1.32,1.32,0,0,1,.35-1.89,1.37,1.37,0,0,1,1.94.48c2.71,3.75,4.37,7.82,4,12.55-.09,1.19,0,2.39,0,3.66h15.25c0-1.51,0-3,0-4.49a14.15,14.15,0,0,1,1.48-6.51q4.6-9.39-3.36-16.25a18.68,18.68,0,0,0-3.14-2.24,10.29,10.29,0,0,1-2.85-2.4c-2.08-2.44-4.19-4.85-6.3-7.26a2.81,2.81,0,0,0-4.12-.56,2.85,2.85,0,0,0-.1,4.16l6.74,8a4.71,4.71,0,0,1,.35.41,1.35,1.35,0,1,1-2,1.74c-1.9-2.21-3.69-4.5-5.67-6.62A14.94,14.94,0,0,1,93,129.65c-1.56-6-3.3-11.88-5-17.81-.57-2-2.12-3.09-3.9-2.73a3.3,3.3,0,0,0-2.65,4c1.3,5.81,2.72,11.59,3.92,17.43a34.82,34.82,0,0,0,5.49,13.05c.85,1.23,1.61,2.52,2.38,3.81a1.23,1.23,0,0,1-.43,1.79,1.17,1.17,0,0,1-1.75-.27c-2.68-4.31-5.86-8.37-7.19-13.39-1-3.73-1.8-7.5-2.67-11.26-.81-3.53-1.63-7.05-2.38-10.6a6,6,0,0,1,11.5-3.49c0,.13.11.26.21.49l.53-.66a5.16,5.16,0,0,1,5.66-1.68,5.1,5.1,0,0,1,3.51,4.83c0,4,0,8,0,12.16,2.06.43,3.16,2.1,4.44,3.55,1,1.14,2,2.29,3,3.46a24,24,0,0,0,5.6,5.07,16.67,16.67,0,0,1,7.62,10,14.58,14.58,0,0,1-1.22,10.39,13.64,13.64,0,0,0-1.53,6.74c.06,1.5,0,3,0,4.5a2.13,2.13,0,0,1-.87,2ZM95,126.69c.76-.42,1.46-.76,2.1-1.18a1,1,0,0,0,.42-.74c0-3.8,0-7.6,0-11.4a2.45,2.45,0,0,0-2.43-2.57,2.52,2.52,0,0,0-2.49,2.52C92.12,118,93.78,122.33,95,126.69Z"/><path class="cls-4" d="M170.71,113.32l-2.16,9.25c-.11.47-.21.94-.33,1.4-.25.92-.92,1.39-1.69,1.18a1.37,1.37,0,0,1-.93-1.77c.74-3.27,1.49-6.54,2.22-9.81.5-2.22-.45-3.95-2.38-4.42s-3.48.6-4.1,2.78c-1.84,6.56-3.66,13.14-5.57,19.68a9.11,9.11,0,0,1-1.62,3c-2.09,2.62-4.31,5.14-6.47,7.7l-.3.34c-.7.77-1.49.89-2.11.34a1.38,1.38,0,0,1,0-2.07c.92-1.11,1.85-2.2,2.78-3.3,1.39-1.64,2.79-3.28,4.18-4.93a2.86,2.86,0,0,0-.08-4.16,2.8,2.8,0,0,0-4.12.54c-2.38,2.73-4.75,5.47-7.15,8.19a4.82,4.82,0,0,1-1.24,1,20.89,20.89,0,0,0-6.16,5c-3.11,3.83-3.76,8.14-1.7,12.53a22.07,22.07,0,0,1,2.08,10.78c0,.53,0,1.07,0,1.65h15.25c0-1,0-2.07,0-3.11a18.44,18.44,0,0,1,.68-6.66,24.09,24.09,0,0,1,2-4.21c2.45-4,4.94-8.06,7.55-12a34.84,34.84,0,0,0,4.87-12.84c0-.2.09-.41.15-.61a1.27,1.27,0,0,1,1.54-1,1.25,1.25,0,0,1,1.05,1.59c-.36,1.79-.76,3.57-1.22,5.34a29.64,29.64,0,0,1-3.76,8.4c-2.64,4.17-5.24,8.37-7.9,12.53a13.7,13.7,0,0,0-2.24,7.73c0,1.92,0,3.83,0,5.75a1.86,1.86,0,0,1-.93,1.88H132.06a2.11,2.11,0,0,1-.87-2,52.49,52.49,0,0,0,0-5.75,13.26,13.26,0,0,0-1.1-4.57c-4.08-8-1.86-15.51,5.34-20.86a3.09,3.09,0,0,1,.37-.26c2.8-1.33,4.63-3.71,6.57-6,1-1.23,2.15-2.42,3.18-3.67a6.66,6.66,0,0,1,3.61-2.58v-9.12c0-1,0-1.92,0-2.87a5.15,5.15,0,0,1,9.35-3.11l.31.41a2.55,2.55,0,0,0,.24-.38,6,6,0,0,1,11.51.67,2.76,2.76,0,0,0,.18.39Zm-16.33,13.37c.48-1.71.86-3.5,1.49-5.2,1-2.72.92-5.52.84-8.32a2.38,2.38,0,0,0-2.43-2.37,2.42,2.42,0,0,0-2.45,2.45c0,3.87,0,7.73,0,11.59a.85.85,0,0,0,.32.64C152.85,125.91,153.6,126.27,154.38,126.69Z"/><path class="cls-4" d="M142.17,116.36a8.21,8.21,0,0,1-11.16,8c-.88-.31-1.71-.73-2.56-1.09a9.15,9.15,0,0,0-7.66.07,12.62,12.62,0,0,1-5.57,1.53c-5.91-.18-9.48-5.56-7.51-11.32a8.7,8.7,0,0,1,3-4.16,8.6,8.6,0,0,0,3.34-4.73,1.94,1.94,0,0,1,.17-.42,1.28,1.28,0,0,1,1.67-.66,1.2,1.2,0,0,1,.82,1.58c-.64,2-1.31,3.94-3.07,5.26-.52.4-1,.85-1.5,1.29a6.45,6.45,0,0,0-2.21,6A5.39,5.39,0,0,0,116.9,122a18.84,18.84,0,0,0,2.66-1,12.14,12.14,0,0,1,10.27,0A14.44,14.44,0,0,0,133,122.1a5.2,5.2,0,0,0,5.58-2.24,5.87,5.87,0,0,0,0-6.39,7,7,0,0,0-1.9-2.13,11.67,11.67,0,0,1-3.89-5.45,16.4,16.4,0,0,0-2.51-4.52,7.37,7.37,0,0,0-10.78-.55c-.11.1-.21.21-.33.31a1.33,1.33,0,0,1-1.93,0,1.34,1.34,0,0,1,0-1.93,10.23,10.23,0,0,1,16.3,2.08c.87,1.49,1.42,3.16,2.22,4.7a13.39,13.39,0,0,0,1.65,2.39,16,16,0,0,0,1.68,1.49A8.63,8.63,0,0,1,142.17,116.36Z"/><path class="cls-4" d="M109.05,86.61a9.43,9.43,0,0,1,1.17-4.69,5.61,5.61,0,0,1,7.83-2.14,10.17,10.17,0,0,1,4.73,9.79,10.88,10.88,0,0,1-1.21,3.7,5.37,5.37,0,0,1-7.44,2.12c-2.87-1.5-4.29-4-4.89-7.13C109.12,87.64,109.09,87,109.05,86.61Zm11.17,2.57c-.21-3.1-1-5.39-3.26-6.9a2.91,2.91,0,0,0-4.3.83c-2,3-.48,8.39,2.74,9.92a2.75,2.75,0,0,0,3.86-1.12A14.87,14.87,0,0,0,120.22,89.18Z"/><path class="cls-4" d="M140.33,86.27a10.86,10.86,0,0,1-3.23,7.82c-3.78,3.6-8.94,2.15-10.23-2.9a10.16,10.16,0,0,1,2.54-9.89c1.72-1.88,3.87-2.86,6.46-2s3.72,2.84,4.26,5.32A15.71,15.71,0,0,1,140.33,86.27Zm-2.69-.1a15.79,15.79,0,0,0-.37-1.85c-.88-2.78-3.32-3.46-5.52-1.56a8,8,0,0,0-2.18,8.13c.93,2.64,3.34,3.29,5.45,1.44A8.19,8.19,0,0,0,137.64,86.17Z"/><path class="cls-4" d="M151.16,98.88c-.26,3.8-1.9,6.78-5.38,8.49-3.84,1.89-7.6-.3-8-4.55a9.67,9.67,0,0,1,5.95-9.63,5.35,5.35,0,0,1,7.4,4.79C151.14,98.28,151.15,98.58,151.16,98.88Zm-2.69.33c0-1.54-.23-2.66-1.32-3.33a3.1,3.1,0,0,0-3.32.23,7.12,7.12,0,0,0-3.38,6.51c.28,2.37,2.06,3.38,4.2,2.3A6.81,6.81,0,0,0,148.47,99.21Z"/><path class="cls-4" d="M111.65,101.81c.1,2.91-1.36,5.23-3.77,6a5.54,5.54,0,0,1-3.44-.07,9.54,9.54,0,0,1-6-10.7,5.23,5.23,0,0,1,7-3.9A9.65,9.65,0,0,1,111.65,101.81Zm-2.68.24a7.14,7.14,0,0,0-4.19-6.3A2.65,2.65,0,0,0,101,98.17a6.68,6.68,0,0,0,3.41,6.56C106.8,106.22,109,104.91,109,102.05Z"/></svg>