<svg id="Layer_1" data-name="Layer 1" xmlns="http://www.w3.org/2000/svg" viewBox="0 0 654 250"><defs><style>.cls-1{fill:none;stroke:#49773d;stroke-miterlimit:10;stroke-width:2.6px;}.cls-2{fill:#49773d;}.cls-3{opacity:0.15;}.cls-4{fill:#fff;}</style></defs><polygon class="cls-1" points="13.01 125 126.68 238.67 527.9 238.67 641.57 125 527.9 11.33 126.68 11.33 13.01 125"/><path class="cls-2" d="M388.39,95.07a4.35,4.35,0,0,1,1.92,1.6,4.77,4.77,0,0,1,0,4.91,4.28,4.28,0,0,1-1.92,1.6,7.17,7.17,0,0,1-2.94.56h-2.57v3.51h-2.95V94.5h5.52A7,7,0,0,1,388.39,95.07Zm-1.08,5.69a2.29,2.29,0,0,0,0-3.28,3.15,3.15,0,0,0-2-.57h-2.4v4.42h2.4A3.15,3.15,0,0,0,387.31,100.76Z"/><path class="cls-2" d="M403,104.88v2.37h-9.88V94.5h9.64v2.37H396v2.77h5.93v2.29H396v2.95Z"/><path class="cls-2" d="M407.87,106.62a6.32,6.32,0,0,1-2.5-2.36,6.8,6.8,0,0,1,0-6.76,6.25,6.25,0,0,1,2.5-2.36,7.86,7.86,0,0,1,7.15,0,6.38,6.38,0,0,1,2.5,2.36,6.5,6.5,0,0,1-2.5,9.12,7.94,7.94,0,0,1-7.15,0Zm5.62-2.18a3.76,3.76,0,0,0,1.43-1.45,4.56,4.56,0,0,0,0-4.23,3.67,3.67,0,0,0-1.43-1.44,4.26,4.26,0,0,0-4.08,0A3.6,3.6,0,0,0,408,98.76a4.56,4.56,0,0,0,0,4.23,3.69,3.69,0,0,0,1.43,1.45,4.26,4.26,0,0,0,4.08,0Z"/><path class="cls-2" d="M429.11,95.07a4.35,4.35,0,0,1,1.92,1.6,4.77,4.77,0,0,1,0,4.91,4.28,4.28,0,0,1-1.92,1.6,7.17,7.17,0,0,1-2.94.56H423.6v3.51h-3V94.5h5.52A7,7,0,0,1,429.11,95.07ZM428,100.76a2.29,2.29,0,0,0,0-3.28,3.15,3.15,0,0,0-2-.57h-2.4v4.42H426A3.15,3.15,0,0,0,428,100.76Z"/><path class="cls-2" d="M433.8,94.5h2.95v10.35h6.4v2.4H433.8Z"/><path class="cls-2" d="M454.68,104.88v2.37h-9.87V94.5h9.64v2.37h-6.71v2.77h5.92v2.29h-5.92v2.95Z"/><path class="cls-2" d="M366.13,42.66V77.28h-8V49.09h-6.92V42.66Z"/><path class="cls-2" d="M395.3,60.14a9.32,9.32,0,0,1,2.43,6.55,10.41,10.41,0,0,1-1.58,5.57,11.09,11.09,0,0,1-4.83,4.07,18.32,18.32,0,0,1-7.93,1.54,27,27,0,0,1-7.2-1,18.4,18.4,0,0,1-6-2.74L373.3,68a15.21,15.21,0,0,0,4.57,2.3,17.79,17.79,0,0,0,5.32.81A8.41,8.41,0,0,0,387.94,70a3.74,3.74,0,0,0,1.73-3.29q0-4.24-6.48-4.25h-3.66V57.15l7.12-8.06H371.91V42.66h24.24v5.19l-7.82,8.9A11.69,11.69,0,0,1,395.3,60.14Z"/><path class="cls-2" d="M409.45,69.39a4.59,4.59,0,0,1,1.33,3.43,8.32,8.32,0,0,1-.24,2,23.31,23.31,0,0,1-1.09,3l-2.82,7.12h-4.89L403.91,77a4.06,4.06,0,0,1-2-1.61,4.68,4.68,0,0,1-.72-2.6,4.53,4.53,0,0,1,1.36-3.43A4.73,4.73,0,0,1,406,68.08,4.64,4.64,0,0,1,409.45,69.39Z"/><path class="cls-2" d="M427,42.66V77.28h-8V49.09H412V42.66Z"/><path class="cls-2" d="M446.34,42.66V77.28h-8V49.09h-6.92V42.66Z"/><path class="cls-2" d="M480,62.44a8.51,8.51,0,0,1,1.36,4.79,9,9,0,0,1-1.83,5.62,11.71,11.71,0,0,1-5.14,3.71,23,23,0,0,1-15.31,0A11.55,11.55,0,0,1,454,72.85a9.1,9.1,0,0,1-1.8-5.62,8.51,8.51,0,0,1,1.36-4.79,9.72,9.72,0,0,1,3.88-3.36,8.36,8.36,0,0,1-3-3,8.14,8.14,0,0,1-1-4.12,8.49,8.49,0,0,1,1.68-5.25,10.69,10.69,0,0,1,4.7-3.43,18.43,18.43,0,0,1,6.93-1.22,18.75,18.75,0,0,1,7,1.22,10.73,10.73,0,0,1,4.73,3.43A8.49,8.49,0,0,1,480.12,52a8.14,8.14,0,0,1-1,4.12,8.27,8.27,0,0,1-3,3A9.67,9.67,0,0,1,480,62.44Zm-8.5,8.18A4.34,4.34,0,0,0,473.24,67a4.29,4.29,0,0,0-1.75-3.61A7.7,7.7,0,0,0,466.72,62a7.5,7.5,0,0,0-4.7,1.34A4.3,4.3,0,0,0,460.29,67,4.35,4.35,0,0,0,462,70.65a7.5,7.5,0,0,0,4.7,1.33A7.58,7.58,0,0,0,471.49,70.62Zm-8.66-21.51a3.87,3.87,0,0,0-1.46,3.19,3.76,3.76,0,0,0,1.44,3.12,6.11,6.11,0,0,0,3.91,1.13,6.32,6.32,0,0,0,3.95-1.13,3.72,3.72,0,0,0,1.48-3.12,3.83,3.83,0,0,0-1.48-3.19A6.27,6.27,0,0,0,466.72,48,6.09,6.09,0,0,0,462.83,49.11Z"/><path d="M302.16,132l0,1a3.31,3.31,0,0,1,2.65-1.16,2.55,2.55,0,0,1,2.55,1.44,3.36,3.36,0,0,1,1.17-1,3.32,3.32,0,0,1,1.68-.4c2,0,3,1,3,3.12v6h-1.52v-5.9a2,2,0,0,0-.44-1.43,1.91,1.91,0,0,0-1.47-.48,2,2,0,0,0-1.42.51,2.07,2.07,0,0,0-.65,1.36V141h-1.53v-5.86a1.71,1.71,0,0,0-1.91-2,2,2,0,0,0-2.06,1.28V141h-1.53V132Z"/><path d="M315.14,136.42a5.35,5.35,0,0,1,.52-2.36,3.8,3.8,0,0,1,3.54-2.19,3.74,3.74,0,0,1,2.95,1.27,4.81,4.81,0,0,1,1.13,3.36v.11a5.22,5.22,0,0,1-.5,2.34,3.74,3.74,0,0,1-1.43,1.61,3.91,3.91,0,0,1-2.13.58,3.79,3.79,0,0,1-3-1.26,4.87,4.87,0,0,1-1.13-3.35Zm1.54.19a3.8,3.8,0,0,0,.69,2.38,2.34,2.34,0,0,0,3.7,0,4.24,4.24,0,0,0,.68-2.56,3.86,3.86,0,0,0-.69-2.38,2.23,2.23,0,0,0-1.86-.91,2.19,2.19,0,0,0-1.82.9A4.11,4.11,0,0,0,316.68,136.61Z"/><path d="M329.52,133.41a4.38,4.38,0,0,0-.75-.06,2,2,0,0,0-2,1.28V141H325.2V132h1.48l0,1a2.38,2.38,0,0,1,2.13-1.2,1.53,1.53,0,0,1,.68.12Z"/><path d="M334.47,141.14a3.91,3.91,0,0,1-3-1.19,4.44,4.44,0,0,1-1.14-3.2v-.27a5.48,5.48,0,0,1,.5-2.38,4,4,0,0,1,1.43-1.64,3.58,3.58,0,0,1,2-.59A3.35,3.35,0,0,1,337,133a5,5,0,0,1,1,3.29V137h-6a3.16,3.16,0,0,0,.77,2.13,2.43,2.43,0,0,0,1.88.81,2.65,2.65,0,0,0,1.37-.33,3.51,3.51,0,0,0,1-.87l.93.73A3.74,3.74,0,0,1,334.47,141.14Zm-.19-8a2,2,0,0,0-1.55.67,3.21,3.21,0,0,0-.77,1.89h4.47v-.12a2.86,2.86,0,0,0-.63-1.8A1.89,1.89,0,0,0,334.28,133.13Z"/><path d="M346,129.87V132h1.67v1.18H346v5.55a1.24,1.24,0,0,0,.22.81,1,1,0,0,0,.76.27,4.25,4.25,0,0,0,.73-.1V141a4.39,4.39,0,0,1-1.17.16,1.89,1.89,0,0,1-1.55-.62,2.7,2.7,0,0,1-.52-1.76v-5.54h-1.62V132h1.62v-2.17Z"/><path d="M351,133.12a3.27,3.27,0,0,1,2.65-1.25c1.88,0,2.84,1.07,2.86,3.2V141H355v-5.92a2.14,2.14,0,0,0-.44-1.43,1.77,1.77,0,0,0-1.35-.46,2.19,2.19,0,0,0-1.31.4,2.63,2.63,0,0,0-.88,1V141h-1.53V128.29H351Z"/><path d="M364.28,141a3.05,3.05,0,0,1-.21-.94,3.44,3.44,0,0,1-2.55,1.1,3.16,3.16,0,0,1-2.17-.75,2.41,2.41,0,0,1-.84-1.89,2.52,2.52,0,0,1,1.06-2.17,5,5,0,0,1,3-.77H364v-.7a1.72,1.72,0,0,0-.48-1.28,1.9,1.9,0,0,0-1.41-.48,2.19,2.19,0,0,0-1.37.42,1.21,1.21,0,0,0-.55,1h-1.54a2.16,2.16,0,0,1,.47-1.3,3.27,3.27,0,0,1,1.3-1,4.14,4.14,0,0,1,1.78-.37,3.55,3.55,0,0,1,2.42.77,2.81,2.81,0,0,1,.91,2.13v4.12a5.16,5.16,0,0,0,.31,2V141Zm-2.53-1.17a2.68,2.68,0,0,0,1.36-.37,2.22,2.22,0,0,0,.93-1v-1.83h-1.2c-1.87,0-2.8.55-2.8,1.64a1.4,1.4,0,0,0,.48,1.13A1.82,1.82,0,0,0,361.75,139.81Z"/><path d="M369.41,132l0,1.12a3.26,3.26,0,0,1,2.68-1.29c1.88,0,2.84,1.07,2.85,3.2V141h-1.52v-5.92a2.14,2.14,0,0,0-.44-1.43,1.77,1.77,0,0,0-1.35-.46,2.19,2.19,0,0,0-1.31.4,2.63,2.63,0,0,0-.88,1V141H368V132Z"/><path d="M383,133.12a3.23,3.23,0,0,1,2.64-1.25q2.83,0,2.86,3.2V141H387v-5.92a2.14,2.14,0,0,0-.44-1.43,1.77,1.77,0,0,0-1.35-.46,2.19,2.19,0,0,0-1.31.4,2.69,2.69,0,0,0-.87,1V141h-1.53V128.29H383Z"/><path d="M396.33,141a2.73,2.73,0,0,1-.22-.94,3.43,3.43,0,0,1-2.54,1.1,3.15,3.15,0,0,1-2.17-.75,2.39,2.39,0,0,1-.85-1.89,2.52,2.52,0,0,1,1.06-2.17,5,5,0,0,1,3-.77h1.49v-.7a1.73,1.73,0,0,0-.49-1.28,1.87,1.87,0,0,0-1.4-.48,2.22,2.22,0,0,0-1.38.42,1.21,1.21,0,0,0-.55,1h-1.54a2.12,2.12,0,0,1,.48-1.3,3.17,3.17,0,0,1,1.29-1,4.2,4.2,0,0,1,1.78-.37,3.59,3.59,0,0,1,2.43.77,2.81,2.81,0,0,1,.9,2.13v4.12a5,5,0,0,0,.32,2V141Zm-2.54-1.17a2.65,2.65,0,0,0,1.36-.37,2.3,2.3,0,0,0,.94-1v-1.83h-1.2c-1.87,0-2.81.55-2.81,1.64a1.4,1.4,0,0,0,.48,1.13A1.84,1.84,0,0,0,393.79,139.81Z"/><path d="M401.67,141h-1.53V128.29h1.53Z"/><path d="M404.87,141v-7.76h-1.42V132h1.42v-.92a3.08,3.08,0,0,1,.76-2.22,2.94,2.94,0,0,1,2.18-.79,4.21,4.21,0,0,1,1.05.14l-.08,1.23a5.46,5.46,0,0,0-.83-.07,1.49,1.49,0,0,0-1.15.44,1.75,1.75,0,0,0-.4,1.24V132h1.9v1.18h-1.9V141Z"/><path d="M413.77,136.42a5.21,5.21,0,0,1,.52-2.36,3.79,3.79,0,0,1,1.44-1.62,3.89,3.89,0,0,1,2.1-.57,3.74,3.74,0,0,1,2.95,1.27,4.86,4.86,0,0,1,1.13,3.36v.11a5.36,5.36,0,0,1-.5,2.34,3.8,3.8,0,0,1-1.43,1.61,3.91,3.91,0,0,1-2.13.58,3.76,3.76,0,0,1-3-1.26,4.87,4.87,0,0,1-1.13-3.35Zm1.54.19A3.8,3.8,0,0,0,416,139a2.34,2.34,0,0,0,3.7,0,4.24,4.24,0,0,0,.68-2.56,3.8,3.8,0,0,0-.7-2.38,2.32,2.32,0,0,0-3.68,0A4.17,4.17,0,0,0,415.31,136.61Z"/><path d="M424.58,141v-7.76h-1.42V132h1.42v-.92a3.08,3.08,0,0,1,.76-2.22,2.94,2.94,0,0,1,2.18-.79,4.21,4.21,0,0,1,1.05.14l-.08,1.23a5.46,5.46,0,0,0-.83-.07,1.49,1.49,0,0,0-1.15.44,1.75,1.75,0,0,0-.4,1.24V132H428v1.18h-1.9V141Z"/><path d="M436,129.87V132h1.67v1.18H436v5.55a1.3,1.3,0,0,0,.22.81,1,1,0,0,0,.77.27,4.29,4.29,0,0,0,.72-.1V141a4.39,4.39,0,0,1-1.17.16,1.9,1.9,0,0,1-1.55-.62,2.7,2.7,0,0,1-.52-1.76v-5.54h-1.62V132h1.62v-2.17Z"/><path d="M440.94,133.12a3.26,3.26,0,0,1,2.64-1.25c1.9,0,2.85,1.07,2.87,3.2V141h-1.53v-5.92a2.09,2.09,0,0,0-.45-1.43,1.75,1.75,0,0,0-1.35-.46,2.16,2.16,0,0,0-1.3.4,2.63,2.63,0,0,0-.88,1V141h-1.52V128.29h1.52Z"/><path d="M452.44,141.14a3.89,3.89,0,0,1-2.95-1.19,4.41,4.41,0,0,1-1.15-3.2v-.27a5.48,5.48,0,0,1,.51-2.38,4,4,0,0,1,1.42-1.64,3.61,3.61,0,0,1,2-.59A3.35,3.35,0,0,1,455,133a5,5,0,0,1,1,3.29V137h-6.06a3.12,3.12,0,0,0,.78,2.13,2.42,2.42,0,0,0,1.88.81,2.61,2.61,0,0,0,1.36-.33,3.41,3.41,0,0,0,1-.87l.93.73A3.75,3.75,0,0,1,452.44,141.14Zm-.19-8a2,2,0,0,0-1.55.67,3.28,3.28,0,0,0-.78,1.89h4.48v-.12a2.86,2.86,0,0,0-.63-1.8A1.9,1.9,0,0,0,452.25,133.13Z"/><path d="M459.14,132l0,1a3.3,3.3,0,0,1,2.65-1.16,2.55,2.55,0,0,1,2.55,1.44,3.33,3.33,0,0,1,1.16-1,3.38,3.38,0,0,1,1.69-.4q2.94,0,3,3.12v6h-1.53v-5.9a2,2,0,0,0-.43-1.43,1.92,1.92,0,0,0-1.47-.48,2,2,0,0,0-1.42.51,2.07,2.07,0,0,0-.65,1.36V141h-1.54v-5.86a1.7,1.7,0,0,0-1.9-2,2,2,0,0,0-2.06,1.28V141h-1.53V132Z"/><path d="M484.63,138.87l1.71-6.83h1.53l-2.6,8.94H484l-2.17-6.78L479.74,141H478.5L475.91,132h1.52l1.76,6.69,2.09-6.69h1.23Z"/><path d="M489,136.42a5.35,5.35,0,0,1,.52-2.36,3.83,3.83,0,0,1,1.43-1.62,4,4,0,0,1,2.11-.57,3.75,3.75,0,0,1,2.95,1.27,4.81,4.81,0,0,1,1.13,3.36v.11a5.36,5.36,0,0,1-.5,2.34,3.74,3.74,0,0,1-1.43,1.61,3.92,3.92,0,0,1-2.14.58,3.75,3.75,0,0,1-2.94-1.26,4.87,4.87,0,0,1-1.13-3.35Zm1.54.19a3.8,3.8,0,0,0,.69,2.38,2.34,2.34,0,0,0,3.7,0,4.24,4.24,0,0,0,.68-2.56,3.8,3.8,0,0,0-.7-2.38,2.32,2.32,0,0,0-3.68,0A4.17,4.17,0,0,0,490.56,136.61Z"/><path d="M500.51,132l.05,1a3.29,3.29,0,0,1,2.65-1.16,2.55,2.55,0,0,1,2.55,1.44,3.33,3.33,0,0,1,1.16-1,3.38,3.38,0,0,1,1.69-.4q2.94,0,3,3.12v6h-1.53v-5.9a2,2,0,0,0-.44-1.43,1.91,1.91,0,0,0-1.47-.48,2,2,0,0,0-1.41.51,2.07,2.07,0,0,0-.65,1.36V141h-1.54v-5.86a1.7,1.7,0,0,0-1.91-2,2,2,0,0,0-2,1.28V141h-1.53V132Z"/><path d="M517.61,141.14a4,4,0,0,1-3-1.19,4.48,4.48,0,0,1-1.13-3.2v-.27a5.34,5.34,0,0,1,.5-2.38,4.06,4.06,0,0,1,1.42-1.64,3.62,3.62,0,0,1,2-.59,3.36,3.36,0,0,1,2.7,1.15,5,5,0,0,1,1,3.29V137h-6.05a3.16,3.16,0,0,0,.76,2.13,2.46,2.46,0,0,0,1.88.81,2.71,2.71,0,0,0,1.38-.33,3.51,3.51,0,0,0,1-.87l.93.73A3.74,3.74,0,0,1,517.61,141.14Zm-.18-8a2,2,0,0,0-1.56.67,3.28,3.28,0,0,0-.78,1.89h4.48v-.12a3,3,0,0,0-.62-1.8A1.93,1.93,0,0,0,517.43,133.13Z"/><path d="M524.31,132l.05,1.12a3.27,3.27,0,0,1,2.68-1.29q2.84,0,2.86,3.2V141h-1.53v-5.92a2,2,0,0,0-.44-1.43,1.77,1.77,0,0,0-1.35-.46,2.19,2.19,0,0,0-1.31.4,2.69,2.69,0,0,0-.87,1V141h-1.53V132Z"/><path d="M532.15,143.37l-.87-.59a4.05,4.05,0,0,0,.82-2.23v-1.38h1.49v1.2a3.76,3.76,0,0,1-.41,1.66A3.83,3.83,0,0,1,532.15,143.37Z"/><path d="M270.85,156.91a5.37,5.37,0,0,1-.94,3.29,3,3,0,0,1-2.53,1.24,3.14,3.14,0,0,1-2.62-1.19l-.07,1h-1.4V148.59h1.52v4.73a3.12,3.12,0,0,1,2.55-1.15,3,3,0,0,1,2.56,1.24,5.46,5.46,0,0,1,.93,3.37Zm-1.53-.18a4.15,4.15,0,0,0-.6-2.41,2,2,0,0,0-1.73-.85,2.24,2.24,0,0,0-2.18,1.41v3.86a2.31,2.31,0,0,0,2.19,1.41,2,2,0,0,0,1.71-.85A4.41,4.41,0,0,0,269.32,156.73Z"/><path d="M276.48,161.44a3.91,3.91,0,0,1-3-1.19,4.43,4.43,0,0,1-1.14-3.19v-.28a5.51,5.51,0,0,1,.5-2.38,3.92,3.92,0,0,1,1.43-1.63,3.51,3.51,0,0,1,2-.6,3.35,3.35,0,0,1,2.71,1.15,5,5,0,0,1,1,3.29v.64h-6.05a3.16,3.16,0,0,0,.77,2.13,2.41,2.41,0,0,0,1.88.82,2.65,2.65,0,0,0,1.37-.33,3.55,3.55,0,0,0,1-.88l.93.73A3.74,3.74,0,0,1,276.48,161.44Zm-.19-8a2.07,2.07,0,0,0-1.55.67A3.21,3.21,0,0,0,274,156h4.47v-.12a2.86,2.86,0,0,0-.63-1.8A1.89,1.89,0,0,0,276.29,153.43Z"/><path d="M283.19,152.34l0,1.12a3.3,3.3,0,0,1,2.68-1.29q2.83,0,2.86,3.2v5.91h-1.52v-5.92a2.09,2.09,0,0,0-.45-1.42,1.73,1.73,0,0,0-1.35-.47,2.19,2.19,0,0,0-1.31.4,2.69,2.69,0,0,0-.87,1v6.37h-1.53v-8.94Z"/><path d="M294.78,161.44a3.91,3.91,0,0,1-2.95-1.19,4.43,4.43,0,0,1-1.14-3.19v-.28a5.23,5.23,0,0,1,.51-2.38,3.88,3.88,0,0,1,1.41-1.63,3.55,3.55,0,0,1,2-.6,3.38,3.38,0,0,1,2.71,1.15,5,5,0,0,1,1,3.29v.64h-6a3.16,3.16,0,0,0,.76,2.13,2.44,2.44,0,0,0,1.89.82,2.7,2.7,0,0,0,1.37-.33,3.55,3.55,0,0,0,1-.88l.93.73A3.74,3.74,0,0,1,294.78,161.44Zm-.18-8a2.08,2.08,0,0,0-1.56.67,3.28,3.28,0,0,0-.78,1.89h4.48v-.12a2.92,2.92,0,0,0-.62-1.8A1.93,1.93,0,0,0,294.6,153.43Z"/><path d="M300.79,161.28v-7.76h-1.42v-1.18h1.42v-.92a3.06,3.06,0,0,1,.77-2.22,2.9,2.9,0,0,1,2.17-.78,3.79,3.79,0,0,1,1,.14l-.08,1.23a4.41,4.41,0,0,0-.83-.08,1.51,1.51,0,0,0-1.15.44,1.76,1.76,0,0,0-.4,1.25v.94h1.9v1.18h-1.9v7.76Z"/><path d="M305.92,150a.88.88,0,0,1,.23-.63.84.84,0,0,1,.67-.25.88.88,0,0,1,.68.25.92.92,0,0,1,.23.63.9.9,0,0,1-.23.62.88.88,0,0,1-.68.25.84.84,0,0,1-.67-.25A.85.85,0,0,1,305.92,150Zm1.65,11.31H306v-8.94h1.53Z"/><path d="M312.09,150.18v2.16h1.67v1.18h-1.67v5.55a1.3,1.3,0,0,0,.22.81.94.94,0,0,0,.77.27,4.29,4.29,0,0,0,.72-.1v1.23a4.39,4.39,0,0,1-1.17.16,1.89,1.89,0,0,1-1.55-.62,2.7,2.7,0,0,1-.52-1.76v-5.54h-1.63v-1.18h1.63v-2.16Z"/><path d="M317.62,150.18v2.16h1.66v1.18h-1.66v5.55a1.24,1.24,0,0,0,.22.81.94.94,0,0,0,.76.27,4.38,4.38,0,0,0,.73-.1v1.23a4.46,4.46,0,0,1-1.18.16,1.87,1.87,0,0,1-1.54-.62,2.64,2.64,0,0,1-.52-1.76v-5.54h-1.63v-1.18h1.63v-2.16Z"/><path d="M324.78,161.44a3.93,3.93,0,0,1-3-1.19,4.43,4.43,0,0,1-1.14-3.19v-.28a5.37,5.37,0,0,1,.51-2.38,3.9,3.9,0,0,1,1.42-1.63,3.54,3.54,0,0,1,2-.6,3.38,3.38,0,0,1,2.71,1.15,5,5,0,0,1,1,3.29v.64h-6.06a3.16,3.16,0,0,0,.77,2.13,2.42,2.42,0,0,0,1.88.82,2.65,2.65,0,0,0,1.37-.33,3.59,3.59,0,0,0,1-.88l.93.73A3.75,3.75,0,0,1,324.78,161.44Zm-.19-8a2.09,2.09,0,0,0-1.56.67,3.34,3.34,0,0,0-.77,1.89h4.48v-.12a2.92,2.92,0,0,0-.63-1.8A1.91,1.91,0,0,0,324.59,153.43Z"/><path d="M329.66,156.73a5.26,5.26,0,0,1,1-3.3,3.32,3.32,0,0,1,5.05-.18v-4.66h1.52v12.69h-1.4l-.08-1a3.1,3.1,0,0,1-2.55,1.12,3.06,3.06,0,0,1-2.53-1.27,5.3,5.3,0,0,1-1-3.32Zm1.53.18a4,4,0,0,0,.63,2.38,2,2,0,0,0,1.73.86,2.25,2.25,0,0,0,2.13-1.31v-4.1a2.24,2.24,0,0,0-2.11-1.27,2,2,0,0,0-1.75.87A4.35,4.35,0,0,0,331.19,156.91Z"/><path d="M344.51,161.28v-7.76H343.1v-1.18h1.41v-.92a3.06,3.06,0,0,1,.77-2.22,2.92,2.92,0,0,1,2.18-.78,3.67,3.67,0,0,1,1,.14l-.08,1.23a4.33,4.33,0,0,0-.83-.08,1.51,1.51,0,0,0-1.15.44,1.8,1.8,0,0,0-.4,1.25v.94H348v1.18H346v7.76Z"/><path d="M354,153.71a4.47,4.47,0,0,0-.75-.06,2,2,0,0,0-2,1.28v6.35h-1.52v-8.94h1.48l0,1a2.4,2.4,0,0,1,2.13-1.2,1.53,1.53,0,0,1,.68.12Z"/><path d="M354.79,156.73a5.22,5.22,0,0,1,.52-2.37,3.81,3.81,0,0,1,1.43-1.61,3.87,3.87,0,0,1,2.11-.58,3.78,3.78,0,0,1,2.95,1.27,4.86,4.86,0,0,1,1.13,3.36v.11a5.36,5.36,0,0,1-.5,2.34,3.89,3.89,0,0,1-1.43,1.62,4,4,0,0,1-2.14.57,3.75,3.75,0,0,1-2.94-1.26,4.84,4.84,0,0,1-1.13-3.34Zm1.54.18a3.83,3.83,0,0,0,.69,2.39,2.33,2.33,0,0,0,3.69,0,4.14,4.14,0,0,0,.69-2.55,3.81,3.81,0,0,0-.7-2.39,2.32,2.32,0,0,0-3.68,0A4.17,4.17,0,0,0,356.33,156.91Z"/><path d="M366.28,152.34l0,1a3.32,3.32,0,0,1,2.66-1.16,2.55,2.55,0,0,1,2.55,1.44,3.24,3.24,0,0,1,1.16-1,3.46,3.46,0,0,1,1.69-.4c2,0,2.95,1,3,3.12v6h-1.53v-5.9a2,2,0,0,0-.44-1.43,1.91,1.91,0,0,0-1.47-.48,2,2,0,0,0-1.41.51,2,2,0,0,0-.65,1.37v5.93h-1.54v-5.86a1.71,1.71,0,0,0-1.91-1.95,2.06,2.06,0,0,0-2.06,1.28v6.53h-1.52v-8.94Z"/><path d="M389.38,161.28a3.05,3.05,0,0,1-.21-.94,3.4,3.4,0,0,1-2.55,1.1,3.19,3.19,0,0,1-2.17-.74,2.43,2.43,0,0,1-.84-1.9,2.53,2.53,0,0,1,1.06-2.17,5,5,0,0,1,3-.77h1.49v-.7a1.72,1.72,0,0,0-.48-1.28,1.91,1.91,0,0,0-1.41-.47,2.19,2.19,0,0,0-1.37.41,1.22,1.22,0,0,0-.55,1h-1.54a2.11,2.11,0,0,1,.47-1.29,3.23,3.23,0,0,1,1.29-1,4.37,4.37,0,0,1,1.79-.37,3.5,3.5,0,0,1,2.42.78,2.77,2.77,0,0,1,.91,2.12v4.12a5.06,5.06,0,0,0,.31,2v.13Zm-2.53-1.17a2.68,2.68,0,0,0,1.36-.37,2.22,2.22,0,0,0,.93-1v-1.83h-1.2c-1.87,0-2.8.55-2.8,1.64a1.4,1.4,0,0,0,.47,1.13A1.87,1.87,0,0,0,386.85,160.11Z"/><path d="M402.46,158.91a1.12,1.12,0,0,0-.47-1,4.49,4.49,0,0,0-1.63-.6,7.51,7.51,0,0,1-1.84-.59,2.6,2.6,0,0,1-1-.83,2,2,0,0,1-.32-1.14,2.3,2.3,0,0,1,.93-1.85,3.61,3.61,0,0,1,2.37-.77A3.75,3.75,0,0,1,403,153a2.48,2.48,0,0,1,.94,2h-1.53a1.4,1.4,0,0,0-.54-1.09,2,2,0,0,0-1.34-.45,2,2,0,0,0-1.3.37,1.11,1.11,0,0,0-.47.94.94.94,0,0,0,.43.84,5.26,5.26,0,0,0,1.58.54,7.93,7.93,0,0,1,1.86.61,2.69,2.69,0,0,1,1.05.85,2.11,2.11,0,0,1,.35,1.22,2.28,2.28,0,0,1-1,1.92,4,4,0,0,1-2.49.72,4.54,4.54,0,0,1-1.9-.37,3.1,3.1,0,0,1-1.29-1.07,2.54,2.54,0,0,1-.47-1.47h1.53a1.58,1.58,0,0,0,.62,1.22,2.38,2.38,0,0,0,1.51.45,2.41,2.41,0,0,0,1.39-.36A1.07,1.07,0,0,0,402.46,158.91Z"/><path d="M407.41,152.34l0,1a3.32,3.32,0,0,1,2.66-1.16,2.55,2.55,0,0,1,2.55,1.44,3.33,3.33,0,0,1,1.16-1,3.49,3.49,0,0,1,1.69-.4q2.94,0,3,3.12v6H417v-5.9a2,2,0,0,0-.44-1.43,1.91,1.91,0,0,0-1.47-.48,2,2,0,0,0-1.41.51,2.07,2.07,0,0,0-.65,1.37v5.93h-1.54v-5.86a1.71,1.71,0,0,0-1.91-1.95,2,2,0,0,0-2.05,1.28v6.53H406v-8.94Z"/><path d="M426.33,161.28a2.73,2.73,0,0,1-.22-.94,3.4,3.4,0,0,1-2.55,1.1,3.23,3.23,0,0,1-2.17-.74,2.43,2.43,0,0,1-.84-1.9,2.53,2.53,0,0,1,1.06-2.17,5.06,5.06,0,0,1,3-.77h1.49v-.7a1.73,1.73,0,0,0-.49-1.28,1.87,1.87,0,0,0-1.4-.47,2.22,2.22,0,0,0-1.38.41,1.22,1.22,0,0,0-.55,1h-1.54a2.07,2.07,0,0,1,.48-1.29,3.1,3.1,0,0,1,1.29-1,4.36,4.36,0,0,1,1.78-.37,3.55,3.55,0,0,1,2.43.78,2.77,2.77,0,0,1,.9,2.12v4.12a5,5,0,0,0,.32,2v.13Zm-2.54-1.17a2.65,2.65,0,0,0,1.36-.37,2.3,2.3,0,0,0,.94-1v-1.83h-1.2c-1.87,0-2.81.55-2.81,1.64a1.4,1.4,0,0,0,.48,1.13A1.84,1.84,0,0,0,423.79,160.11Z"/><path d="M431.67,161.28h-1.53V148.59h1.53Z"/><path d="M435.78,161.28h-1.53V148.59h1.53Z"/><path d="M442,156.73a5.27,5.27,0,0,1,1-3.32,3.11,3.11,0,0,1,2.56-1.24,3.06,3.06,0,0,1,2.55,1.16l.08-1h1.39v8.73a3.66,3.66,0,0,1-1,2.73,3.83,3.83,0,0,1-2.76,1,4.56,4.56,0,0,1-1.9-.42,3.21,3.21,0,0,1-1.41-1.13l.79-.91a3,3,0,0,0,2.4,1.21,2.36,2.36,0,0,0,1.75-.63,2.43,2.43,0,0,0,.62-1.77v-.76a3.15,3.15,0,0,1-2.5,1.05,3,3,0,0,1-2.54-1.26A5.51,5.51,0,0,1,442,156.73Zm1.54.18a4,4,0,0,0,.62,2.37,2,2,0,0,0,1.74.87,2.24,2.24,0,0,0,2.12-1.32v-4.08a2.27,2.27,0,0,0-2.11-1.28,2,2,0,0,0-1.74.87A4.35,4.35,0,0,0,443.58,156.91Z"/><path d="M456.22,153.71a4.38,4.38,0,0,0-.75-.06,2,2,0,0,0-2,1.28v6.35H451.9v-8.94h1.49l0,1a2.4,2.4,0,0,1,2.13-1.2,1.53,1.53,0,0,1,.68.12Z"/><path d="M462.81,161.28a3.05,3.05,0,0,1-.21-.94,3.4,3.4,0,0,1-2.55,1.1,3.21,3.21,0,0,1-2.17-.74,2.43,2.43,0,0,1-.84-1.9,2.53,2.53,0,0,1,1.06-2.17,5,5,0,0,1,3-.77h1.48v-.7a1.72,1.72,0,0,0-.48-1.28,1.91,1.91,0,0,0-1.41-.47,2.21,2.21,0,0,0-1.37.41,1.23,1.23,0,0,0-.56,1h-1.53a2.07,2.07,0,0,1,.48-1.29,3.13,3.13,0,0,1,1.28-1,4.41,4.41,0,0,1,1.79-.37,3.5,3.5,0,0,1,2.42.78,2.74,2.74,0,0,1,.91,2.12v4.12a5.06,5.06,0,0,0,.31,2v.13Zm-2.54-1.17a2.66,2.66,0,0,0,1.37-.37,2.22,2.22,0,0,0,.93-1v-1.83h-1.2c-1.87,0-2.8.55-2.8,1.64a1.4,1.4,0,0,0,.47,1.13A1.86,1.86,0,0,0,460.27,160.11Z"/><path d="M468,152.34l0,1.12a3.3,3.3,0,0,1,2.68-1.29q2.83,0,2.86,3.2v5.91H472v-5.92a2.09,2.09,0,0,0-.44-1.42,1.73,1.73,0,0,0-1.35-.47,2.19,2.19,0,0,0-1.31.4,2.69,2.69,0,0,0-.87,1v6.37H466.5v-8.94Z"/><path d="M477.9,150.18v2.16h1.67v1.18H477.9v5.55a1.24,1.24,0,0,0,.23.81.94.94,0,0,0,.76.27,4.38,4.38,0,0,0,.73-.1v1.23a4.52,4.52,0,0,1-1.18.16,1.87,1.87,0,0,1-1.54-.62,2.64,2.64,0,0,1-.52-1.76v-5.54h-1.63v-1.18h1.63v-2.16Z"/><path d="M493.1,156.91a5.39,5.39,0,0,1-.94,3.29,3,3,0,0,1-2.52,1.24,3.26,3.26,0,0,1-2.56-1v4.31h-1.53V152.34h1.39l.08,1a3.14,3.14,0,0,1,2.59-1.16,3.07,3.07,0,0,1,2.55,1.22,5.45,5.45,0,0,1,.94,3.38Zm-1.53-.18a3.86,3.86,0,0,0-.65-2.38,2,2,0,0,0-1.77-.88,2.23,2.23,0,0,0-2.07,1.23V159a2.24,2.24,0,0,0,2.1,1.23,2,2,0,0,0,1.74-.88A4.32,4.32,0,0,0,491.57,156.73Z"/><path d="M499.36,153.71a4.47,4.47,0,0,0-.75-.06,2,2,0,0,0-2,1.28v6.35H495v-8.94h1.49l0,1a2.4,2.4,0,0,1,2.13-1.2,1.5,1.5,0,0,1,.68.12Z"/><path d="M500.2,156.73a5.22,5.22,0,0,1,.51-2.37,3.85,3.85,0,0,1,3.54-2.19,3.77,3.77,0,0,1,2.95,1.27,4.86,4.86,0,0,1,1.13,3.36v.11a5.36,5.36,0,0,1-.5,2.34,3.82,3.82,0,0,1-1.43,1.62,4,4,0,0,1-2.13.57,3.76,3.76,0,0,1-2.95-1.26,4.84,4.84,0,0,1-1.12-3.34Zm1.53.18a3.83,3.83,0,0,0,.69,2.39,2.34,2.34,0,0,0,3.7,0,4.14,4.14,0,0,0,.69-2.55,3.82,3.82,0,0,0-.71-2.39,2.32,2.32,0,0,0-3.68,0A4.17,4.17,0,0,0,501.73,156.91Z"/><path d="M509.89,156.73a5.26,5.26,0,0,1,1-3.32,3.33,3.33,0,0,1,5.12-.08l.07-1h1.4v8.73a3.66,3.66,0,0,1-1,2.73,3.84,3.84,0,0,1-2.77,1,4.55,4.55,0,0,1-1.89-.42,3.21,3.21,0,0,1-1.41-1.13l.79-.91a3,3,0,0,0,2.41,1.21,2.31,2.31,0,0,0,1.73-.63,2.39,2.39,0,0,0,.63-1.77v-.76a3.16,3.16,0,0,1-2.51,1.05,3,3,0,0,1-2.53-1.26A5.5,5.5,0,0,1,509.89,156.73Zm1.53.18a4,4,0,0,0,.62,2.37,2,2,0,0,0,1.74.87,2.24,2.24,0,0,0,2.12-1.32v-4.08a2.27,2.27,0,0,0-2.11-1.28,2,2,0,0,0-1.74.87A4.35,4.35,0,0,0,511.42,156.91Z"/><path d="M524.06,153.71a4.38,4.38,0,0,0-.75-.06,2,2,0,0,0-2,1.28v6.35h-1.53v-8.94h1.49l0,1a2.4,2.4,0,0,1,2.13-1.2,1.5,1.5,0,0,1,.68.12Z"/><path d="M530.65,161.28a3.05,3.05,0,0,1-.21-.94,3.4,3.4,0,0,1-2.55,1.1,3.21,3.21,0,0,1-2.17-.74,2.43,2.43,0,0,1-.84-1.9,2.53,2.53,0,0,1,1.06-2.17,5,5,0,0,1,3-.77h1.49v-.7a1.72,1.72,0,0,0-.48-1.28,1.89,1.89,0,0,0-1.41-.47,2.19,2.19,0,0,0-1.37.41,1.22,1.22,0,0,0-.55,1h-1.54a2.11,2.11,0,0,1,.47-1.29,3.2,3.2,0,0,1,1.3-1,4.29,4.29,0,0,1,1.78-.37A3.5,3.5,0,0,1,531,153a2.77,2.77,0,0,1,.91,2.12v4.12a5.25,5.25,0,0,0,.31,2v.13Zm-2.53-1.17a2.68,2.68,0,0,0,1.36-.37,2.22,2.22,0,0,0,.93-1v-1.83h-1.2c-1.87,0-2.8.55-2.8,1.64a1.4,1.4,0,0,0,.48,1.13A1.82,1.82,0,0,0,528.12,160.11Z"/><path d="M535.77,152.34l.05,1a3.29,3.29,0,0,1,2.65-1.16,2.55,2.55,0,0,1,2.55,1.44,3.42,3.42,0,0,1,1.16-1,3.49,3.49,0,0,1,1.69-.4q2.94,0,3,3.12v6h-1.53v-5.9a2,2,0,0,0-.44-1.43,1.91,1.91,0,0,0-1.47-.48A2,2,0,0,0,542,154a2.07,2.07,0,0,0-.65,1.37v5.93h-1.54v-5.86a1.7,1.7,0,0,0-1.91-1.95,2,2,0,0,0-2,1.28v6.53h-1.53v-8.94Z"/><path d="M550.6,152.34l0,1a3.32,3.32,0,0,1,2.66-1.16,2.55,2.55,0,0,1,2.55,1.44,3.24,3.24,0,0,1,1.16-1,3.46,3.46,0,0,1,1.69-.4c2,0,2.95,1,3,3.12v6h-1.53v-5.9a2,2,0,0,0-.44-1.43,1.91,1.91,0,0,0-1.47-.48,2,2,0,0,0-1.41.51,2,2,0,0,0-.65,1.37v5.93h-1.54v-5.86a1.71,1.71,0,0,0-1.91-1.95,2.06,2.06,0,0,0-2.06,1.28v6.53h-1.52v-8.94Z"/><path d="M567.7,161.44a4,4,0,0,1-3-1.19,4.47,4.47,0,0,1-1.13-3.19v-.28a5.37,5.37,0,0,1,.5-2.38,4,4,0,0,1,1.42-1.63,3.55,3.55,0,0,1,2-.6,3.36,3.36,0,0,1,2.7,1.15,5,5,0,0,1,1,3.29v.64h-6.05a3.16,3.16,0,0,0,.76,2.13,2.43,2.43,0,0,0,1.88.82,2.71,2.71,0,0,0,1.38-.33,3.55,3.55,0,0,0,1-.88l.93.73A3.74,3.74,0,0,1,567.7,161.44Zm-.18-8a2.06,2.06,0,0,0-1.56.67,3.28,3.28,0,0,0-.78,1.89h4.48v-.12a3,3,0,0,0-.62-1.8A1.93,1.93,0,0,0,567.52,153.43Z"/><path d="M291.06,174a5.84,5.84,0,0,0-.75-.06,2,2,0,0,0-2,1.29v6.34h-1.53v-8.94h1.49l0,1a2.38,2.38,0,0,1,2.13-1.2,1.68,1.68,0,0,1,.68.11Z"/><path d="M296,181.75a3.88,3.88,0,0,1-2.95-1.2,4.42,4.42,0,0,1-1.14-3.19v-.28a5.23,5.23,0,0,1,.51-2.38,3.94,3.94,0,0,1,1.41-1.63,3.54,3.54,0,0,1,2-.59,3.37,3.37,0,0,1,2.71,1.14,5,5,0,0,1,1,3.29v.64h-6.05a3.16,3.16,0,0,0,.76,2.13,2.44,2.44,0,0,0,1.89.82,2.7,2.7,0,0,0,1.37-.33,3.4,3.4,0,0,0,1-.88l.93.73A3.75,3.75,0,0,1,296,181.75Zm-.18-8a2.08,2.08,0,0,0-1.56.67,3.28,3.28,0,0,0-.78,1.89H298v-.11a2.93,2.93,0,0,0-.62-1.81A1.93,1.93,0,0,0,295.83,173.73Z"/><path d="M302.93,181.58H301.4V168.89h1.53Z"/><path d="M310.89,181.58a3.05,3.05,0,0,1-.21-.94,3.41,3.41,0,0,1-2.55,1.11A3.16,3.16,0,0,1,306,181a2.43,2.43,0,0,1-.84-1.9,2.53,2.53,0,0,1,1.06-2.17,5,5,0,0,1,3-.77h1.49v-.7a1.74,1.74,0,0,0-.49-1.28,1.93,1.93,0,0,0-1.41-.47,2.27,2.27,0,0,0-1.37.41,1.22,1.22,0,0,0-.55,1H305.3a2.07,2.07,0,0,1,.48-1.29,3.1,3.1,0,0,1,1.29-1,4.36,4.36,0,0,1,1.78-.36,3.54,3.54,0,0,1,2.43.77,2.77,2.77,0,0,1,.9,2.13v4.11a5,5,0,0,0,.32,2v.13Zm-2.53-1.16a2.75,2.75,0,0,0,1.36-.37,2.36,2.36,0,0,0,.94-1v-1.84h-1.2c-1.88,0-2.81.55-2.81,1.65a1.38,1.38,0,0,0,.48,1.12A1.83,1.83,0,0,0,308.36,180.42Z"/><path d="M316.65,170.48v2.16h1.67v1.18h-1.67v5.55a1.3,1.3,0,0,0,.22.81.94.94,0,0,0,.77.27,3.44,3.44,0,0,0,.72-.1v1.23a4.41,4.41,0,0,1-1.17.17,1.92,1.92,0,0,1-1.55-.62,2.71,2.71,0,0,1-.52-1.76v-5.55h-1.63v-1.18h1.63v-2.16Z"/><path d="M323.81,181.75a3.88,3.88,0,0,1-2.95-1.2,4.42,4.42,0,0,1-1.15-3.19v-.28a5.51,5.51,0,0,1,.51-2.38,4,4,0,0,1,1.43-1.63,3.5,3.5,0,0,1,2-.59,3.34,3.34,0,0,1,2.71,1.14,5,5,0,0,1,1,3.29v.64h-6.06a3.17,3.17,0,0,0,.78,2.13,2.41,2.41,0,0,0,1.88.82,2.65,2.65,0,0,0,1.37-.33,3.4,3.4,0,0,0,1-.88l.93.73A3.75,3.75,0,0,1,323.81,181.75Zm-.19-8a2.07,2.07,0,0,0-1.55.67,3.21,3.21,0,0,0-.77,1.89h4.47v-.11a2.87,2.87,0,0,0-.63-1.81A1.9,1.9,0,0,0,323.62,173.73Z"/><path d="M328.7,177a5.23,5.23,0,0,1,1-3.31,3.32,3.32,0,0,1,5-.18v-4.66h1.53v12.69h-1.41l-.07-1a3.11,3.11,0,0,1-2.55,1.13,3.07,3.07,0,0,1-2.54-1.28,5.28,5.28,0,0,1-1-3.32Zm1.52.17a4,4,0,0,0,.63,2.38,2,2,0,0,0,1.74.86,2.23,2.23,0,0,0,2.12-1.31V175a2.24,2.24,0,0,0-2.11-1.27,2,2,0,0,0-1.75.87A4.35,4.35,0,0,0,330.22,177.21Z"/><path d="M344.87,170.48v2.16h1.67v1.18h-1.67v5.55a1.3,1.3,0,0,0,.22.81.94.94,0,0,0,.77.27,3.44,3.44,0,0,0,.72-.1v1.23a4.41,4.41,0,0,1-1.17.17,1.92,1.92,0,0,1-1.55-.62,2.71,2.71,0,0,1-.52-1.76v-5.55h-1.63v-1.18h1.63v-2.16Z"/><path d="M347.76,177a5.18,5.18,0,0,1,.51-2.36,3.86,3.86,0,0,1,1.44-1.62,3.91,3.91,0,0,1,2.1-.57,3.76,3.76,0,0,1,2.95,1.26,4.86,4.86,0,0,1,1.13,3.36v.11a5.36,5.36,0,0,1-.5,2.34,3.82,3.82,0,0,1-1.43,1.62,4,4,0,0,1-2.13.58,3.77,3.77,0,0,1-2.95-1.27,4.82,4.82,0,0,1-1.12-3.34Zm1.53.18a3.83,3.83,0,0,0,.69,2.39,2.22,2.22,0,0,0,1.85.9,2.17,2.17,0,0,0,1.85-.92,4.14,4.14,0,0,0,.69-2.55,3.77,3.77,0,0,0-.71-2.38,2.32,2.32,0,0,0-3.68,0A4.17,4.17,0,0,0,349.29,177.21Z"/><path d="M369.57,177.21a5.35,5.35,0,0,1-.94,3.29,3,3,0,0,1-2.54,1.25,3.09,3.09,0,0,1-2.61-1.2l-.08,1H362V168.89h1.53v4.73a3.1,3.1,0,0,1,2.55-1.14,3,3,0,0,1,2.56,1.23,5.46,5.46,0,0,1,.93,3.37ZM368,177a4.12,4.12,0,0,0-.6-2.41,2,2,0,0,0-1.74-.86,2.24,2.24,0,0,0-2.17,1.41V179a2.3,2.3,0,0,0,2.19,1.41,2,2,0,0,0,1.71-.85A4.45,4.45,0,0,0,368,177Z"/><path d="M371.5,170.27a.88.88,0,0,1,.23-.63.83.83,0,0,1,.67-.25.84.84,0,0,1,.67.25.88.88,0,0,1,.24.63.84.84,0,0,1-.91.87.83.83,0,0,1-.67-.25A.84.84,0,0,1,371.5,170.27Zm1.65,11.31h-1.53v-8.94h1.53Z"/><path d="M375.19,177a5.18,5.18,0,0,1,.52-2.36,3.83,3.83,0,0,1,1.43-1.62,3.94,3.94,0,0,1,2.1-.57,3.78,3.78,0,0,1,3,1.26,4.86,4.86,0,0,1,1.13,3.36v.11a5.22,5.22,0,0,1-.51,2.34,3.8,3.8,0,0,1-1.42,1.62,4,4,0,0,1-2.14.58,3.76,3.76,0,0,1-2.94-1.27,4.78,4.78,0,0,1-1.13-3.34Zm1.53.18a3.9,3.9,0,0,0,.69,2.39,2.23,2.23,0,0,0,1.85.9,2.17,2.17,0,0,0,1.85-.92,4.14,4.14,0,0,0,.69-2.55,3.82,3.82,0,0,0-.7-2.38,2.23,2.23,0,0,0-1.86-.92,2.19,2.19,0,0,0-1.82.9A4.17,4.17,0,0,0,376.72,177.21Z"/><path d="M384.87,177a5.29,5.29,0,0,1,1-3.31,3.33,3.33,0,0,1,5.05-.18v-4.66h1.52v12.69H391l-.08-1a3.11,3.11,0,0,1-2.55,1.13,3.06,3.06,0,0,1-2.53-1.28,5.29,5.29,0,0,1-1-3.32Zm1.53.17a4,4,0,0,0,.63,2.38,2,2,0,0,0,1.73.86,2.25,2.25,0,0,0,2.13-1.31V175a2.24,2.24,0,0,0-2.11-1.27,2,2,0,0,0-1.75.87A4.35,4.35,0,0,0,386.4,177.21Z"/><path d="M394.79,170.27a.92.92,0,0,1,.23-.63.85.85,0,0,1,.67-.25.88.88,0,0,1,.68.25.92.92,0,0,1,.23.63.83.83,0,0,1-.91.87.85.85,0,0,1-.67-.25A.88.88,0,0,1,394.79,170.27Zm1.65,11.31h-1.52v-8.94h1.52Z"/><path d="M401.84,179.51l2.21-6.87h1.56l-3.2,8.94h-1.17L398,172.64h1.57Z"/><path d="M410.69,181.75a3.9,3.9,0,0,1-3-1.2,4.42,4.42,0,0,1-1.14-3.19v-.28a5.37,5.37,0,0,1,.51-2.38,3.89,3.89,0,0,1,1.42-1.63,3.53,3.53,0,0,1,2-.59,3.37,3.37,0,0,1,2.71,1.14,5,5,0,0,1,1,3.29v.64h-6.06a3.11,3.11,0,0,0,.77,2.13,2.41,2.41,0,0,0,1.88.82,2.65,2.65,0,0,0,1.37-.33,3.27,3.27,0,0,0,1-.88l.94.73A3.76,3.76,0,0,1,410.69,181.75Zm-.19-8a2.08,2.08,0,0,0-1.56.67,3.34,3.34,0,0,0-.77,1.89h4.47v-.11a2.93,2.93,0,0,0-.62-1.81A1.91,1.91,0,0,0,410.5,173.73Z"/><path d="M420.26,174a5.7,5.7,0,0,0-.75-.06,2,2,0,0,0-2,1.29v6.34h-1.53v-8.94h1.49l0,1a2.38,2.38,0,0,1,2.13-1.2,1.68,1.68,0,0,1,.68.11Z"/><path d="M426.87,179.21a1.13,1.13,0,0,0-.47-1,4.34,4.34,0,0,0-1.63-.59,8.09,8.09,0,0,1-1.84-.6,2.58,2.58,0,0,1-1-.83,2,2,0,0,1-.32-1.13,2.3,2.3,0,0,1,.93-1.86,3.6,3.6,0,0,1,2.37-.76,3.75,3.75,0,0,1,2.47.78,2.48,2.48,0,0,1,.94,2h-1.53a1.36,1.36,0,0,0-.54-1.08,2,2,0,0,0-1.34-.46,2,2,0,0,0-1.3.37,1.14,1.14,0,0,0-.47,1,.93.93,0,0,0,.43.83,5.24,5.24,0,0,0,1.59.54A8,8,0,0,1,427,177a2.69,2.69,0,0,1,1.05.85,2.11,2.11,0,0,1,.35,1.22,2.28,2.28,0,0,1-1,1.92,4,4,0,0,1-2.49.73,4.6,4.6,0,0,1-1.9-.38,3.1,3.1,0,0,1-1.29-1.07,2.54,2.54,0,0,1-.47-1.47h1.53a1.61,1.61,0,0,0,.62,1.22,2.38,2.38,0,0,0,1.51.45,2.55,2.55,0,0,0,1.4-.35A1.09,1.09,0,0,0,426.87,179.21Z"/><path d="M430.4,170.27a.88.88,0,0,1,.23-.63.83.83,0,0,1,.67-.25.84.84,0,0,1,.67.25.88.88,0,0,1,.24.63.84.84,0,0,1-.91.87.83.83,0,0,1-.67-.25A.84.84,0,0,1,430.4,170.27Zm1.65,11.31h-1.53v-8.94h1.53Z"/><path d="M436.57,170.48v2.16h1.67v1.18h-1.67v5.55a1.3,1.3,0,0,0,.22.81.94.94,0,0,0,.77.27,3.44,3.44,0,0,0,.72-.1v1.23a4.41,4.41,0,0,1-1.17.17,1.92,1.92,0,0,1-1.55-.62,2.71,2.71,0,0,1-.52-1.76v-5.55h-1.63v-1.18H435v-2.16Z"/><path d="M443,179.34l2.08-6.7h1.64L443.07,183c-.56,1.49-1.44,2.23-2.65,2.23l-.29,0-.57-.1v-1.24l.41,0a2,2,0,0,0,1.21-.31,2.28,2.28,0,0,0,.72-1.15l.34-.91-3.19-8.84h1.67Z"/><path d="M455.8,180.5a2.22,2.22,0,0,0,1.43-.5,1.75,1.75,0,0,0,.68-1.24h1.44a2.88,2.88,0,0,1-.52,1.47,3.45,3.45,0,0,1-1.31,1.1,3.94,3.94,0,0,1-4.62-.8,4.88,4.88,0,0,1-1.08-3.34v-.25a5.34,5.34,0,0,1,.48-2.32,3.61,3.61,0,0,1,1.38-1.58,3.82,3.82,0,0,1,2.11-.56,3.57,3.57,0,0,1,2.5.9,3.21,3.21,0,0,1,1.06,2.33h-1.44a2.11,2.11,0,0,0-.66-1.42,2,2,0,0,0-1.46-.56,2.13,2.13,0,0,0-1.8.84,3.92,3.92,0,0,0-.64,2.42v.29a3.88,3.88,0,0,0,.63,2.38A2.15,2.15,0,0,0,455.8,180.5Z"/><path d="M460.67,177a5.31,5.31,0,0,1,.51-2.36,3.8,3.8,0,0,1,3.54-2.19,3.8,3.8,0,0,1,3,1.26,4.86,4.86,0,0,1,1.12,3.36v.11a5.22,5.22,0,0,1-.5,2.34,3.82,3.82,0,0,1-1.43,1.62,4,4,0,0,1-2.13.58,3.8,3.8,0,0,1-2.95-1.27,4.82,4.82,0,0,1-1.12-3.34Zm1.53.18a3.83,3.83,0,0,0,.69,2.39,2.22,2.22,0,0,0,1.85.9,2.17,2.17,0,0,0,1.85-.92,4.14,4.14,0,0,0,.68-2.55,3.82,3.82,0,0,0-.69-2.38,2.23,2.23,0,0,0-1.86-.92,2.19,2.19,0,0,0-1.82.9A4.11,4.11,0,0,0,462.2,177.21Z"/><path d="M472.17,172.64l.05,1.13a3.24,3.24,0,0,1,2.67-1.29q2.83,0,2.86,3.19v5.91h-1.53v-5.91a2,2,0,0,0-.44-1.43,1.77,1.77,0,0,0-1.35-.47,2.2,2.2,0,0,0-1.3.4,2.7,2.7,0,0,0-.88,1v6.37h-1.53v-8.94Z"/><path d="M485.26,179.21a1.13,1.13,0,0,0-.47-1,4.34,4.34,0,0,0-1.62-.59,8,8,0,0,1-1.85-.6,2.58,2.58,0,0,1-1-.83,2,2,0,0,1-.32-1.13,2.3,2.3,0,0,1,.93-1.86,3.59,3.59,0,0,1,2.37-.76,3.77,3.77,0,0,1,2.47.78,2.48,2.48,0,0,1,.94,2h-1.53a1.38,1.38,0,0,0-.53-1.08,2.33,2.33,0,0,0-2.65-.09,1.12,1.12,0,0,0-.48,1,.94.94,0,0,0,.44.83,5.35,5.35,0,0,0,1.59.54,8.16,8.16,0,0,1,1.85.61,2.66,2.66,0,0,1,1.06.85,2.19,2.19,0,0,1,.34,1.22,2.28,2.28,0,0,1-1,1.92,4,4,0,0,1-2.49.73,4.57,4.57,0,0,1-1.9-.38,3.1,3.1,0,0,1-1.29-1.07,2.54,2.54,0,0,1-.47-1.47h1.53a1.6,1.6,0,0,0,.61,1.22,2.41,2.41,0,0,0,1.52.45,2.46,2.46,0,0,0,1.39-.35A1.1,1.1,0,0,0,485.26,179.21Z"/><path d="M492.48,181.75a3.88,3.88,0,0,1-3-1.2,4.42,4.42,0,0,1-1.14-3.19v-.28a5.37,5.37,0,0,1,.51-2.38,4,4,0,0,1,1.42-1.63,3.51,3.51,0,0,1,2-.59,3.37,3.37,0,0,1,2.71,1.14,5,5,0,0,1,1,3.29v.64h-6.05a3.16,3.16,0,0,0,.77,2.13,2.41,2.41,0,0,0,1.88.82,2.65,2.65,0,0,0,1.37-.33,3.4,3.4,0,0,0,1-.88l.94.73A3.77,3.77,0,0,1,492.48,181.75Zm-.18-8a2.08,2.08,0,0,0-1.56.67,3.21,3.21,0,0,0-.77,1.89h4.47v-.11a2.93,2.93,0,0,0-.62-1.81A1.91,1.91,0,0,0,492.3,173.73Z"/><path d="M502.06,174a5.7,5.7,0,0,0-.75-.06,2,2,0,0,0-2,1.29v6.34h-1.53v-8.94h1.49l0,1a2.36,2.36,0,0,1,2.13-1.2,1.66,1.66,0,0,1,.67.11Z"/><path d="M506.56,179.51l2.22-6.87h1.56l-3.2,8.94H506l-3.24-8.94h1.56Z"/><path d="M517.21,181.58a3,3,0,0,1-.22-.94,3.4,3.4,0,0,1-2.54,1.11,3.15,3.15,0,0,1-2.17-.75,2.41,2.41,0,0,1-.85-1.9,2.53,2.53,0,0,1,1.06-2.17,5.06,5.06,0,0,1,3-.77H517v-.7a1.7,1.7,0,0,0-.49-1.28,1.91,1.91,0,0,0-1.4-.47,2.28,2.28,0,0,0-1.38.41,1.22,1.22,0,0,0-.55,1h-1.54a2.07,2.07,0,0,1,.48-1.29,3.1,3.1,0,0,1,1.29-1,4.36,4.36,0,0,1,1.78-.36,3.53,3.53,0,0,1,2.43.77,2.77,2.77,0,0,1,.9,2.13v4.11a5,5,0,0,0,.32,2v.13Zm-2.54-1.16a2.72,2.72,0,0,0,1.36-.37,2.36,2.36,0,0,0,.94-1v-1.84h-1.2c-1.87,0-2.81.55-2.81,1.65a1.38,1.38,0,0,0,.48,1.12A1.84,1.84,0,0,0,514.67,180.42Z"/><path d="M523,170.48v2.16h1.67v1.18H523v5.55a1.24,1.24,0,0,0,.23.81.92.92,0,0,0,.76.27,3.44,3.44,0,0,0,.72-.1v1.23a4.41,4.41,0,0,1-1.17.17,1.92,1.92,0,0,1-1.55-.62,2.71,2.71,0,0,1-.51-1.76v-5.55H519.8v-1.18h1.64v-2.16Z"/><path d="M526.42,170.27a.92.92,0,0,1,.23-.63.85.85,0,0,1,.67-.25.86.86,0,0,1,.68.25.88.88,0,0,1,.23.63.84.84,0,0,1-.23.62.86.86,0,0,1-.68.25.85.85,0,0,1-.67-.25A.88.88,0,0,1,526.42,170.27Zm1.66,11.31h-1.53v-8.94h1.53Z"/><path d="M530.12,177a5.31,5.31,0,0,1,.51-2.36,3.8,3.8,0,0,1,3.55-2.19,3.74,3.74,0,0,1,2.94,1.26,4.81,4.81,0,0,1,1.13,3.36v.11a5.36,5.36,0,0,1-.49,2.34,3.89,3.89,0,0,1-1.43,1.62,4,4,0,0,1-2.14.58,3.8,3.8,0,0,1-3-1.27,4.87,4.87,0,0,1-1.12-3.34Zm1.53.18a3.77,3.77,0,0,0,.7,2.39,2.33,2.33,0,0,0,3.69,0,4.14,4.14,0,0,0,.69-2.55,3.82,3.82,0,0,0-.7-2.38,2.23,2.23,0,0,0-1.85-.92,2.19,2.19,0,0,0-1.83.9A4.11,4.11,0,0,0,531.65,177.21Z"/><path d="M541.62,172.64l0,1.13a3.27,3.27,0,0,1,2.68-1.29c1.89,0,2.85,1.06,2.86,3.19v5.91h-1.52v-5.91a2.05,2.05,0,0,0-.45-1.43,1.77,1.77,0,0,0-1.35-.47,2.26,2.26,0,0,0-1.31.4,2.76,2.76,0,0,0-.87,1v6.37h-1.53v-8.94Z"/><path d="M324.7,201.88a3.22,3.22,0,0,1-.22-.94,3.4,3.4,0,0,1-2.54,1.11,3.15,3.15,0,0,1-2.17-.75,2.43,2.43,0,0,1-.85-1.89,2.54,2.54,0,0,1,1.06-2.17,5,5,0,0,1,3-.77h1.49v-.71a1.7,1.7,0,0,0-.48-1.27,1.91,1.91,0,0,0-1.41-.48,2.3,2.3,0,0,0-1.38.41,1.24,1.24,0,0,0-.55,1H319.1a2.11,2.11,0,0,1,.48-1.29,3.23,3.23,0,0,1,1.29-1,4.22,4.22,0,0,1,1.79-.37,3.57,3.57,0,0,1,2.42.77,2.85,2.85,0,0,1,.91,2.13v4.12a5,5,0,0,0,.31,1.95v.13Zm-2.54-1.16a2.62,2.62,0,0,0,1.36-.37,2.3,2.3,0,0,0,.94-1v-1.83h-1.2c-1.87,0-2.81.54-2.81,1.64a1.38,1.38,0,0,0,.48,1.12A1.79,1.79,0,0,0,322.16,200.72Z"/><path d="M329.83,193l.05,1.12a3.25,3.25,0,0,1,2.68-1.29c1.88,0,2.84,1.07,2.85,3.2v5.9h-1.52V196a2.14,2.14,0,0,0-.44-1.43,1.79,1.79,0,0,0-1.36-.46,2.16,2.16,0,0,0-1.3.4,2.67,2.67,0,0,0-.88,1v6.37h-1.53V193Z"/><path d="M337.35,197.34a5.25,5.25,0,0,1,1-3.31,3.32,3.32,0,0,1,5-.18V189.2h1.53v12.68h-1.4l-.08-.95a3.1,3.1,0,0,1-2.55,1.12,3,3,0,0,1-2.53-1.27,5.26,5.26,0,0,1-1-3.32Zm1.53.18a3.93,3.93,0,0,0,.62,2.37,2,2,0,0,0,1.74.86,2.22,2.22,0,0,0,2.12-1.3v-4.11a2.25,2.25,0,0,0-2.11-1.26,2,2,0,0,0-1.75.87A4.33,4.33,0,0,0,338.88,197.52Z"/><path d="M353.52,190.78V193h1.67v1.18h-1.67v5.55a1.19,1.19,0,0,0,.23.8.92.92,0,0,0,.76.27,3.44,3.44,0,0,0,.72-.1v1.23a4.41,4.41,0,0,1-1.17.17,1.92,1.92,0,0,1-1.55-.62,2.7,2.7,0,0,1-.51-1.76v-5.54h-1.64V193H352v-2.17Z"/><path d="M358.5,194a3.27,3.27,0,0,1,2.65-1.25c1.88,0,2.84,1.07,2.85,3.2v5.9h-1.52V196a2.14,2.14,0,0,0-.44-1.43,1.79,1.79,0,0,0-1.36-.46,2.16,2.16,0,0,0-1.3.4,2.67,2.67,0,0,0-.88,1v6.37H357V189.2h1.53Z"/><path d="M370,202.05a4,4,0,0,1-3-1.19,4.48,4.48,0,0,1-1.13-3.2v-.28a5.32,5.32,0,0,1,.5-2.37,4.06,4.06,0,0,1,1.42-1.64,3.61,3.61,0,0,1,2-.59,3.33,3.33,0,0,1,2.71,1.15,5,5,0,0,1,1,3.29v.63h-6.05a3.17,3.17,0,0,0,.76,2.14,2.46,2.46,0,0,0,1.88.81,2.71,2.71,0,0,0,1.38-.33,3.51,3.51,0,0,0,1-.87l.93.72A3.72,3.72,0,0,1,370,202.05Zm-.19-8a2,2,0,0,0-1.55.67,3.28,3.28,0,0,0-.78,1.89H372v-.12a2.9,2.9,0,0,0-.63-1.8A1.9,1.9,0,0,0,369.81,194Z"/><path d="M384.65,199.51a1.13,1.13,0,0,0-.47-1,4.52,4.52,0,0,0-1.63-.59,8.13,8.13,0,0,1-1.84-.59,2.77,2.77,0,0,1-1-.83,2,2,0,0,1-.32-1.14,2.33,2.33,0,0,1,.93-1.86,3.6,3.6,0,0,1,2.37-.76,3.7,3.7,0,0,1,2.47.79,2.48,2.48,0,0,1,.94,2h-1.53a1.36,1.36,0,0,0-.54-1.08,2,2,0,0,0-1.34-.45,2.09,2.09,0,0,0-1.3.36,1.13,1.13,0,0,0-.47.95.94.94,0,0,0,.43.84,5.6,5.6,0,0,0,1.59.53,8.5,8.5,0,0,1,1.85.61,2.8,2.8,0,0,1,1.05.86,2.09,2.09,0,0,1,.35,1.22,2.29,2.29,0,0,1-1,1.92,4,4,0,0,1-2.49.72,4.6,4.6,0,0,1-1.9-.38,3.08,3.08,0,0,1-1.29-1.06,2.6,2.6,0,0,1-.47-1.48h1.53a1.59,1.59,0,0,0,.62,1.22,2.38,2.38,0,0,0,1.51.45,2.55,2.55,0,0,0,1.4-.35A1.07,1.07,0,0,0,384.65,199.51Z"/><path d="M393.69,201a3.26,3.26,0,0,1-2.62,1.05,2.79,2.79,0,0,1-2.18-.83,3.55,3.55,0,0,1-.75-2.46V193h1.52v5.77c0,1.35.56,2,1.65,2a2.3,2.3,0,0,0,2.34-1.3V193h1.52v8.93h-1.45Z"/><path d="M402.7,199.51a1.13,1.13,0,0,0-.47-1,4.53,4.53,0,0,0-1.62-.59,8.07,8.07,0,0,1-1.85-.59,2.77,2.77,0,0,1-1-.83,2,2,0,0,1-.32-1.14,2.33,2.33,0,0,1,.93-1.86,3.59,3.59,0,0,1,2.37-.76,3.7,3.7,0,0,1,2.47.79,2.48,2.48,0,0,1,.94,2h-1.53a1.38,1.38,0,0,0-.53-1.08,2,2,0,0,0-1.35-.45,2.07,2.07,0,0,0-1.3.36,1.14,1.14,0,0,0-.48.95.94.94,0,0,0,.44.84,5.85,5.85,0,0,0,1.59.53,8.5,8.5,0,0,1,1.85.61,2.76,2.76,0,0,1,1.06.86,2.16,2.16,0,0,1,.34,1.22,2.29,2.29,0,0,1-1,1.92,4,4,0,0,1-2.49.72,4.57,4.57,0,0,1-1.9-.38,3.08,3.08,0,0,1-1.29-1.06,2.6,2.6,0,0,1-.47-1.48h1.53a1.58,1.58,0,0,0,.61,1.22,2.41,2.41,0,0,0,1.52.45,2.46,2.46,0,0,0,1.39-.35A1.08,1.08,0,0,0,402.7,199.51Z"/><path d="M408.29,190.78V193H410v1.18h-1.67v5.55a1.19,1.19,0,0,0,.22.8,1,1,0,0,0,.76.27,3.44,3.44,0,0,0,.73-.1v1.23a4.41,4.41,0,0,1-1.17.17,1.93,1.93,0,0,1-1.55-.62,2.7,2.7,0,0,1-.52-1.76v-5.54h-1.62V193h1.62v-2.17Z"/><path d="M417.26,201.88a3,3,0,0,1-.21-.94,3.41,3.41,0,0,1-2.55,1.11,3.16,3.16,0,0,1-2.17-.75,2.43,2.43,0,0,1-.84-1.89,2.52,2.52,0,0,1,1.06-2.17,5,5,0,0,1,3-.77H417v-.71a1.7,1.7,0,0,0-.48-1.27,1.91,1.91,0,0,0-1.41-.48,2.27,2.27,0,0,0-1.37.41,1.23,1.23,0,0,0-.56,1h-1.53a2.11,2.11,0,0,1,.48-1.29,3.2,3.2,0,0,1,1.28-1,4.25,4.25,0,0,1,1.79-.37,3.55,3.55,0,0,1,2.42.77,2.78,2.78,0,0,1,.91,2.13v4.12a5,5,0,0,0,.31,1.95v.13Zm-2.54-1.16a2.66,2.66,0,0,0,1.37-.37,2.22,2.22,0,0,0,.93-1v-1.83h-1.2c-1.87,0-2.8.54-2.8,1.64a1.38,1.38,0,0,0,.47,1.12A1.81,1.81,0,0,0,414.72,200.72Z"/><path d="M421,190.58a.88.88,0,0,1,.23-.63.83.83,0,0,1,.67-.26.84.84,0,0,1,.67.26.88.88,0,0,1,.24.63.84.84,0,0,1-.91.86.83.83,0,0,1-.9-.86Zm1.65,11.3h-1.53V193h1.53Z"/><path d="M426.5,193l.05,1.12a3.24,3.24,0,0,1,2.67-1.29c1.89,0,2.84,1.07,2.87,3.2v5.9h-1.54V196a2,2,0,0,0-.44-1.43,1.75,1.75,0,0,0-1.35-.46,2.16,2.16,0,0,0-1.3.4,2.67,2.67,0,0,0-.88,1v6.37h-1.53V193Z"/><path d="M439.91,201.88a3,3,0,0,1-.21-.94,3.44,3.44,0,0,1-2.55,1.11,3.15,3.15,0,0,1-2.17-.75,2.4,2.4,0,0,1-.85-1.89,2.5,2.5,0,0,1,1.07-2.17,4.94,4.94,0,0,1,3-.77h1.49v-.71a1.7,1.7,0,0,0-.48-1.27,1.91,1.91,0,0,0-1.41-.48,2.23,2.23,0,0,0-1.37.41,1.23,1.23,0,0,0-.56,1h-1.53a2.1,2.1,0,0,1,.47-1.29,3.23,3.23,0,0,1,1.29-1,4.22,4.22,0,0,1,1.79-.37,3.55,3.55,0,0,1,2.42.77,2.85,2.85,0,0,1,.91,2.13v4.12a5,5,0,0,0,.31,1.95v.13Zm-2.54-1.16a2.62,2.62,0,0,0,1.36-.37,2.19,2.19,0,0,0,.94-1v-1.83h-1.2c-1.87,0-2.81.54-2.81,1.64a1.38,1.38,0,0,0,.48,1.12A1.79,1.79,0,0,0,437.37,200.72Z"/><path d="M451.16,197.52a5.37,5.37,0,0,1-.94,3.29,3,3,0,0,1-2.53,1.24,3.11,3.11,0,0,1-2.62-1.2l-.07,1h-1.41V189.2h1.53v4.73a3.08,3.08,0,0,1,2.55-1.15,3,3,0,0,1,2.56,1.23,5.48,5.48,0,0,1,.93,3.37Zm-1.53-.18a4.15,4.15,0,0,0-.6-2.41,2,2,0,0,0-1.74-.85,2.24,2.24,0,0,0-2.17,1.4v3.87a2.3,2.3,0,0,0,2.19,1.4,2,2,0,0,0,1.71-.85A4.36,4.36,0,0,0,449.63,197.34Z"/><path d="M454.74,201.88h-1.53V189.2h1.53Z"/><path d="M460.9,202.05a3.93,3.93,0,0,1-3-1.19,4.44,4.44,0,0,1-1.14-3.2v-.28a5.32,5.32,0,0,1,.51-2.37,4,4,0,0,1,1.42-1.64,3.61,3.61,0,0,1,2-.59,3.33,3.33,0,0,1,2.71,1.15,5,5,0,0,1,1,3.29v.63h-6.06a3.17,3.17,0,0,0,.77,2.14,2.43,2.43,0,0,0,1.88.81,2.65,2.65,0,0,0,1.37-.33,3.25,3.25,0,0,0,1-.87l.94.72A3.74,3.74,0,0,1,460.9,202.05Zm-.19-8a2,2,0,0,0-1.55.67,3.28,3.28,0,0,0-.78,1.89h4.48v-.12a3,3,0,0,0-.63-1.8A1.9,1.9,0,0,0,460.71,194Z"/><path d="M475.86,201a3.24,3.24,0,0,1-2.62,1.05,2.8,2.8,0,0,1-2.18-.83,3.55,3.55,0,0,1-.75-2.46V193h1.52v5.77c0,1.35.56,2,1.66,2a2.29,2.29,0,0,0,2.33-1.3V193h1.53v8.93h-1.46Z"/><path d="M484.87,199.51a1.12,1.12,0,0,0-.46-1,4.68,4.68,0,0,0-1.63-.59,8.07,8.07,0,0,1-1.85-.59,2.73,2.73,0,0,1-1-.83,2,2,0,0,1-.33-1.14,2.33,2.33,0,0,1,.93-1.86,3.61,3.61,0,0,1,2.38-.76,3.69,3.69,0,0,1,2.46.79,2.49,2.49,0,0,1,.95,2h-1.54a1.38,1.38,0,0,0-.53-1.08,2,2,0,0,0-1.34-.45,2.12,2.12,0,0,0-1.31.36,1.15,1.15,0,0,0-.47.95,1,1,0,0,0,.43.84,5.85,5.85,0,0,0,1.59.53,8.5,8.5,0,0,1,1.85.61,2.76,2.76,0,0,1,1.06.86,2.09,2.09,0,0,1,.34,1.22,2.29,2.29,0,0,1-1,1.92,4,4,0,0,1-2.49.72,4.52,4.52,0,0,1-1.89-.38,3.11,3.11,0,0,1-1.3-1.06,2.59,2.59,0,0,1-.46-1.48h1.52a1.59,1.59,0,0,0,.62,1.22,2.38,2.38,0,0,0,1.51.45,2.52,2.52,0,0,0,1.4-.35A1.07,1.07,0,0,0,484.87,199.51Z"/><path d="M492.1,202.05a3.93,3.93,0,0,1-3-1.19,4.44,4.44,0,0,1-1.14-3.2v-.28a5.32,5.32,0,0,1,.51-2.37,4,4,0,0,1,1.42-1.64,3.61,3.61,0,0,1,2-.59,3.35,3.35,0,0,1,2.71,1.15,4.93,4.93,0,0,1,1,3.29v.63h-6.06a3.17,3.17,0,0,0,.77,2.14,2.44,2.44,0,0,0,1.88.81,2.65,2.65,0,0,0,1.37-.33,3.55,3.55,0,0,0,1-.87l.93.72A3.74,3.74,0,0,1,492.1,202.05Zm-.19-8a2.07,2.07,0,0,0-1.56.67,3.34,3.34,0,0,0-.77,1.89h4.48v-.12a2.9,2.9,0,0,0-.63-1.8A1.91,1.91,0,0,0,491.91,194Z"/><path d="M501.14,197.33a5.21,5.21,0,0,1,.52-2.36,3.83,3.83,0,0,1,1.43-1.62,3.91,3.91,0,0,1,2.1-.57,3.76,3.76,0,0,1,3,1.27,4.86,4.86,0,0,1,1.13,3.36v.11a5.29,5.29,0,0,1-.51,2.34,3.74,3.74,0,0,1-1.43,1.61,3.91,3.91,0,0,1-2.13.58,3.75,3.75,0,0,1-2.94-1.26,4.82,4.82,0,0,1-1.13-3.35Zm1.53.19a3.87,3.87,0,0,0,.69,2.38,2.23,2.23,0,0,0,1.85.9,2.19,2.19,0,0,0,1.85-.91,4.17,4.17,0,0,0,.69-2.56,3.85,3.85,0,0,0-.7-2.38,2.22,2.22,0,0,0-1.86-.91,2.19,2.19,0,0,0-1.82.9A4.17,4.17,0,0,0,502.67,197.52Z"/><path d="M512,201.88v-7.75h-1.42V193H512V192a3,3,0,0,1,.76-2.22,2.88,2.88,0,0,1,2.17-.79,4.15,4.15,0,0,1,1,.14l-.08,1.23a4.32,4.32,0,0,0-.82-.07,1.49,1.49,0,0,0-1.15.43,1.78,1.78,0,0,0-.41,1.25V193h1.91v1.18h-1.91v7.75Z"/><path d="M341,217.82a5.34,5.34,0,0,1-.93,3.28,3,3,0,0,1-2.53,1.25,3.26,3.26,0,0,1-2.56-1v4.3H333.4V213.25h1.4l.07,1a3.16,3.16,0,0,1,2.6-1.16A3,3,0,0,1,340,214.3a5.37,5.37,0,0,1,.94,3.38Zm-1.53-.18a4,4,0,0,0-.64-2.39,2.08,2.08,0,0,0-1.77-.87,2.24,2.24,0,0,0-2.08,1.23v4.27a2.24,2.24,0,0,0,2.1,1.22,2.05,2.05,0,0,0,1.74-.87A4.25,4.25,0,0,0,339.42,217.64Z"/><path d="M347.21,214.62a4.38,4.38,0,0,0-.75-.06,2,2,0,0,0-2,1.28v6.35h-1.53v-8.94h1.49l0,1a2.36,2.36,0,0,1,2.13-1.2,1.49,1.49,0,0,1,.67.12Z"/><path d="M348.05,217.63a5.34,5.34,0,0,1,.51-2.36,3.8,3.8,0,0,1,3.55-2.19,3.75,3.75,0,0,1,2.95,1.27,4.86,4.86,0,0,1,1.13,3.36v.11a5.36,5.36,0,0,1-.5,2.34,3.8,3.8,0,0,1-1.43,1.61,3.92,3.92,0,0,1-2.14.58,3.79,3.79,0,0,1-2.95-1.26,4.91,4.91,0,0,1-1.12-3.35Zm1.54.19a3.8,3.8,0,0,0,.69,2.38,2.2,2.2,0,0,0,1.84.9,2.17,2.17,0,0,0,1.85-.91,4.17,4.17,0,0,0,.69-2.56,3.8,3.8,0,0,0-.7-2.38,2.32,2.32,0,0,0-3.68,0A4.17,4.17,0,0,0,349.59,217.82Z"/><path d="M357.73,217.64a5.25,5.25,0,0,1,1-3.31,3.3,3.3,0,0,1,5-.17V209.5h1.53v12.69h-1.4l-.07-1a3.12,3.12,0,0,1-2.56,1.12,3,3,0,0,1-2.53-1.27,5.32,5.32,0,0,1-1-3.32Zm1.53.18a4,4,0,0,0,.63,2.38,2,2,0,0,0,1.73.86,2.22,2.22,0,0,0,2.12-1.31v-4.11a2.23,2.23,0,0,0-2.1-1.26,2,2,0,0,0-1.75.87A4.35,4.35,0,0,0,359.26,217.82Z"/><path d="M373.16,221.3a3.24,3.24,0,0,1-2.62,1,2.77,2.77,0,0,1-2.17-.83,3.54,3.54,0,0,1-.76-2.45v-5.82h1.53V219q0,2,1.65,2a2.29,2.29,0,0,0,2.33-1.31v-6.5h1.53v8.94H373.2Z"/><path d="M380.56,221.1a2.24,2.24,0,0,0,1.43-.49,1.74,1.74,0,0,0,.67-1.24h1.44a2.73,2.73,0,0,1-.52,1.46,3.57,3.57,0,0,1-1.31,1.11,3.75,3.75,0,0,1-1.71.41,3.7,3.7,0,0,1-2.91-1.22,4.83,4.83,0,0,1-1.08-3.33v-.25a5.39,5.39,0,0,1,.48-2.33,3.64,3.64,0,0,1,1.38-1.57,3.86,3.86,0,0,1,2.12-.57,3.56,3.56,0,0,1,2.49.9,3.18,3.18,0,0,1,1.06,2.34h-1.44a2.07,2.07,0,0,0-2.11-2,2.15,2.15,0,0,0-1.81.84,3.9,3.9,0,0,0-.64,2.42v.29a3.83,3.83,0,0,0,.64,2.38A2.13,2.13,0,0,0,380.56,221.1Z"/><path d="M387.9,211.08v2.17h1.66v1.18H387.9V220a1.24,1.24,0,0,0,.22.81.94.94,0,0,0,.76.27,4.25,4.25,0,0,0,.73-.1v1.23a4.45,4.45,0,0,1-1.17.16,1.89,1.89,0,0,1-1.55-.62,2.7,2.7,0,0,1-.52-1.76v-5.54h-1.63v-1.18h1.63v-2.17Z"/><path d="M391.36,210.88a.92.92,0,0,1,.23-.63.84.84,0,0,1,.67-.26.88.88,0,0,1,.68.26,1,1,0,0,1,0,1.25.91.91,0,0,1-.68.24.87.87,0,0,1-.67-.24A.91.91,0,0,1,391.36,210.88ZM393,222.19h-1.52v-8.94H393Z"/><path d="M398.41,220.11l2.21-6.86h1.56l-3.2,8.94h-1.17l-3.24-8.94h1.57Z"/><path d="M407.26,222.35a3.93,3.93,0,0,1-3-1.19,4.44,4.44,0,0,1-1.14-3.2v-.28a5.32,5.32,0,0,1,.51-2.37,3.92,3.92,0,0,1,1.42-1.64,3.61,3.61,0,0,1,2-.59,3.38,3.38,0,0,1,2.71,1.15,5,5,0,0,1,1,3.29v.64h-6.05a3.11,3.11,0,0,0,.77,2.13,2.43,2.43,0,0,0,1.88.81,2.67,2.67,0,0,0,1.37-.33,3.38,3.38,0,0,0,1-.87l.94.73A3.75,3.75,0,0,1,407.26,222.35Zm-.19-8a2,2,0,0,0-1.56.67,3.42,3.42,0,0,0-.78,1.89h4.48v-.12a2.9,2.9,0,0,0-.62-1.8A1.93,1.93,0,0,0,407.07,214.34Z"/><path d="M418.36,222.19h-1.53V209.5h1.53Z"/><path d="M426.32,222.19a3.05,3.05,0,0,1-.21-.94,3.45,3.45,0,0,1-2.55,1.1,3.16,3.16,0,0,1-2.17-.75,2.41,2.41,0,0,1-.84-1.89,2.52,2.52,0,0,1,1.06-2.17,5,5,0,0,1,3-.77h1.48v-.7a1.7,1.7,0,0,0-.48-1.28,1.91,1.91,0,0,0-1.41-.48,2.21,2.21,0,0,0-1.37.42,1.22,1.22,0,0,0-.56,1h-1.53a2.12,2.12,0,0,1,.48-1.3,3.2,3.2,0,0,1,1.28-1,4.25,4.25,0,0,1,1.79-.37,3.55,3.55,0,0,1,2.42.77,2.78,2.78,0,0,1,.91,2.13v4.12a5,5,0,0,0,.31,2v.14ZM423.78,221a2.66,2.66,0,0,0,1.37-.37,2.22,2.22,0,0,0,.93-1v-1.83h-1.2c-1.87,0-2.8.55-2.8,1.64a1.4,1.4,0,0,0,.47,1.13A1.86,1.86,0,0,0,423.78,221Z"/><path d="M431.45,213.25l.05,1.12a3.27,3.27,0,0,1,2.68-1.29q2.83,0,2.86,3.2v5.91h-1.53v-5.92a2.14,2.14,0,0,0-.44-1.43,1.77,1.77,0,0,0-1.35-.46,2.19,2.19,0,0,0-1.31.4,2.53,2.53,0,0,0-.87,1v6.37H430v-8.94Z"/><path d="M439,217.64a5.25,5.25,0,0,1,1-3.31,3.31,3.31,0,0,1,5-.17V209.5h1.53v12.69h-1.4l-.08-1a3.1,3.1,0,0,1-2.55,1.12,3,3,0,0,1-2.53-1.27,5.26,5.26,0,0,1-1-3.32Zm1.53.18a4.05,4.05,0,0,0,.62,2.38,2.06,2.06,0,0,0,1.74.86,2.22,2.22,0,0,0,2.12-1.31v-4.11a2.25,2.25,0,0,0-2.1-1.26,2.07,2.07,0,0,0-1.76.87A4.43,4.43,0,0,0,440.5,217.82Z"/><path d="M454.09,219.81a1.13,1.13,0,0,0-.47-1,4.72,4.72,0,0,0-1.63-.59,7.66,7.66,0,0,1-1.84-.59,2.67,2.67,0,0,1-1-.83,2,2,0,0,1-.32-1.14,2.33,2.33,0,0,1,.93-1.86,3.66,3.66,0,0,1,2.37-.76,3.7,3.7,0,0,1,2.47.79,2.48,2.48,0,0,1,.94,2H454a1.38,1.38,0,0,0-.54-1.09,2,2,0,0,0-1.34-.45,2.09,2.09,0,0,0-1.3.36,1.13,1.13,0,0,0-.47,1,.94.94,0,0,0,.43.84,5.63,5.63,0,0,0,1.58.53,8.43,8.43,0,0,1,1.86.61,2.8,2.8,0,0,1,1,.86,2.09,2.09,0,0,1,.35,1.22,2.28,2.28,0,0,1-1,1.92,4,4,0,0,1-2.49.72,4.54,4.54,0,0,1-1.9-.38,3,3,0,0,1-1.29-1.06,2.57,2.57,0,0,1-.47-1.47H450a1.56,1.56,0,0,0,.62,1.21,2.38,2.38,0,0,0,1.51.45,2.41,2.41,0,0,0,1.39-.35A1.07,1.07,0,0,0,454.09,219.81Z"/><path d="M461.19,221.1a2.2,2.2,0,0,0,1.43-.49,1.75,1.75,0,0,0,.68-1.24h1.44a2.66,2.66,0,0,1-.53,1.46,3.45,3.45,0,0,1-1.3,1.11,3.79,3.79,0,0,1-1.72.41,3.68,3.68,0,0,1-2.9-1.22,4.83,4.83,0,0,1-1.08-3.33v-.25a5.39,5.39,0,0,1,.48-2.33,3.69,3.69,0,0,1,1.37-1.57,3.89,3.89,0,0,1,2.12-.57,3.57,3.57,0,0,1,2.5.9,3.18,3.18,0,0,1,1.06,2.34H463.3a2.13,2.13,0,0,0-.66-1.42,2,2,0,0,0-1.46-.56,2.14,2.14,0,0,0-1.8.84,3.9,3.9,0,0,0-.64,2.42v.29a3.9,3.9,0,0,0,.63,2.38A2.16,2.16,0,0,0,461.19,221.1Z"/><path d="M472,222.19a3.05,3.05,0,0,1-.21-.94,3.44,3.44,0,0,1-2.55,1.1,3.16,3.16,0,0,1-2.17-.75,2.41,2.41,0,0,1-.84-1.89,2.52,2.52,0,0,1,1.06-2.17,5,5,0,0,1,3-.77h1.49v-.7a1.7,1.7,0,0,0-.48-1.28,1.91,1.91,0,0,0-1.41-.48,2.19,2.19,0,0,0-1.37.42,1.21,1.21,0,0,0-.55,1h-1.54a2.16,2.16,0,0,1,.47-1.3,3.31,3.31,0,0,1,1.29-1,4.22,4.22,0,0,1,1.79-.37,3.55,3.55,0,0,1,2.42.77,2.81,2.81,0,0,1,.91,2.13v4.12a5,5,0,0,0,.31,2v.14ZM469.45,221a2.68,2.68,0,0,0,1.36-.37,2.22,2.22,0,0,0,.93-1v-1.83h-1.2c-1.87,0-2.8.55-2.8,1.64a1.4,1.4,0,0,0,.47,1.13A1.87,1.87,0,0,0,469.45,221Z"/><path d="M483.22,217.82a5.34,5.34,0,0,1-.94,3.28,3,3,0,0,1-2.52,1.25,3.28,3.28,0,0,1-2.57-1v4.3h-1.53V213.25h1.4l.08,1a3.14,3.14,0,0,1,2.59-1.16,3.07,3.07,0,0,1,2.55,1.22,5.43,5.43,0,0,1,.94,3.38Zm-1.53-.18a4,4,0,0,0-.65-2.39,2.08,2.08,0,0,0-1.77-.87,2.26,2.26,0,0,0-2.08,1.23v4.27a2.25,2.25,0,0,0,2.1,1.22,2.08,2.08,0,0,0,1.75-.87A4.32,4.32,0,0,0,481.69,217.64Z"/><path d="M488.87,222.35a3.93,3.93,0,0,1-3-1.19,4.44,4.44,0,0,1-1.14-3.2v-.28a5.32,5.32,0,0,1,.51-2.37,4,4,0,0,1,1.41-1.64,3.64,3.64,0,0,1,2-.59,3.38,3.38,0,0,1,2.71,1.15,5,5,0,0,1,1,3.29v.64H486.3a3.11,3.11,0,0,0,.77,2.13,2.43,2.43,0,0,0,1.88.81,2.67,2.67,0,0,0,1.37-.33,3.38,3.38,0,0,0,1-.87l.94.73A3.76,3.76,0,0,1,488.87,222.35Zm-.19-8a2,2,0,0,0-1.56.67,3.35,3.35,0,0,0-.78,1.89h4.48v-.12a2.9,2.9,0,0,0-.62-1.8A1.93,1.93,0,0,0,488.68,214.34Z"/><path d="M499.32,219.81a1.12,1.12,0,0,0-.46-1,4.8,4.8,0,0,0-1.63-.59,7.51,7.51,0,0,1-1.84-.59,2.6,2.6,0,0,1-1-.83,2,2,0,0,1-.32-1.14,2.33,2.33,0,0,1,.93-1.86,3.62,3.62,0,0,1,2.37-.76,3.72,3.72,0,0,1,2.47.79,2.48,2.48,0,0,1,.94,2h-1.53a1.38,1.38,0,0,0-.54-1.09,2,2,0,0,0-1.34-.45,2.12,2.12,0,0,0-1.31.36,1.15,1.15,0,0,0-.47,1,.94.94,0,0,0,.44.84,5.63,5.63,0,0,0,1.58.53,8.32,8.32,0,0,1,1.85.61,2.76,2.76,0,0,1,1.06.86,2.09,2.09,0,0,1,.34,1.22,2.3,2.3,0,0,1-1,1.92,4,4,0,0,1-2.49.72,4.54,4.54,0,0,1-1.9-.38,3.1,3.1,0,0,1-1.3-1.06,2.56,2.56,0,0,1-.46-1.47h1.53a1.58,1.58,0,0,0,.61,1.21,2.86,2.86,0,0,0,2.91.1A1.06,1.06,0,0,0,499.32,219.81Z"/><rect class="cls-2" x="45.82" y="44.37" width="161.26" height="161.26" transform="translate(125.8 -52.81) rotate(45.12)"/><g class="cls-3"><path class="cls-4" d="M126.24,227.43,24,124.79,126.67,22.57,228.88,125.21Zm-99-102.64,99.06,99.47,99.47-99L126.66,25.74Zm99.08,89.63L92.15,180.16l26.2-26.09-25.29-25.4-18,18,11.85,11.91,4.94-4.91-7-7L93,138.52l15.47,15.53L87.24,175.23,57.42,145.28,77.88,124.9,57.5,104.43l30-29.82,21.18,21.26L93.1,111.34,85,103.18l7-6.94L87,91.31l-11.9,11.85,17.94,18,25.4-25.3L92.38,69.7l34.26-34.12,34.12,34.26-26.2,26.09,25.29,25.4,18-18L166,91.47l-4.94,4.91,6.95,7-8.16,8.12L144.4,96l21.27-21.18,29.82,30L175,125.1l20.38,20.47-29.95,29.82-21.18-21.26,15.54-15.47,8.12,8.15-7,6.95,4.92,4.93,11.9-11.85-17.94-18-25.4,25.29,26.09,26.2ZM95.32,180.17l31,31.08,31.08-30.95-26.09-26.2,28.57-28.45L181,146.84l-15.08,15-8.07-8.11,7-6.94-5-5-12.36,12.31,18,18.09,26.77-26.66-20.38-20.47,20.47-20.38L165.66,77.94,147.57,96l12.31,12.36,5-5-6.94-7,8.1-8.07,15,15.07-21.2,21.11L131.39,95.92l26.2-26.09-31-31.08-31.08,31,26.09,26.2L93.07,124.35,72,103.16,87,88.14l8.07,8.11-7,6.94,5,5,12.36-12.31-18-18.1L60.67,104.44l20.38,20.47L60.58,145.28l26.67,26.78,18.09-18L93,141.68l-5,5,6.94,7-8.1,8.07-15-15.08,21.2-21.1,28.45,28.57Zm105-39.52-15.47-15.53,15.54-15.47,15.46,15.54ZM188,125.13l12.31,12.36,12.36-12.31L200.4,112.82ZM52.5,140.35,37,124.81l15.53-15.46L68,124.88ZM40.2,124.82l12.31,12.36,12.36-12.31L52.56,112.51Z"/><path class="cls-4" d="M126.29,203.86l-23.93-24,24-23.93,23.93,24Zm-20.77-24,20.78,20.86,20.86-20.77-20.78-20.86Z"/><path class="cls-4" d="M126.52,93.45l-23.93-24,24-23.93,23.93,24Zm-20.77-24,20.78,20.86L147.39,69.5,126.61,48.64Z"/></g><path class="cls-4" d="M159.71,148.32c-1.64,0-3.28,0-4.91,0a5.79,5.79,0,0,1-5.85-4.24,14.27,14.27,0,0,1,0-7.11,5.82,5.82,0,0,1,6.31-4.16,5.89,5.89,0,0,1,5.24,5.35c.11,1.34,0,2.71.08,4.06a1.44,1.44,0,1,0,2.87,0c0-1.44,0-2.88-.06-4.32a8.83,8.83,0,0,0-17.35-1.42,22.37,22.37,0,0,0-.3,5,9.18,9.18,0,0,0,2.23,6.72s0,.1,0,.16a10.27,10.27,0,0,0-7.36,4.78,1.88,1.88,0,0,1-.2-.19,10.14,10.14,0,0,0-9.14-4.65c-1.52,0-3.05,0-4.57,0a6,6,0,0,1-6-6.15c0-1.16,0-2.31,0-3.47a5.95,5.95,0,0,1,11.89,0c0,1.13,0,2.26,0,3.39s.57,1.73,1.44,1.74,1.44-.64,1.45-1.7,0-2.37,0-3.56a8.65,8.65,0,0,0-3.35-6.74c-.32-.26-.67-.5-1-.76a6.82,6.82,0,0,1,3.9-1.31c1.81,0,3.61,0,5.42,0a8.83,8.83,0,0,0,8.85-7.35,26.5,26.5,0,0,0,.11-5.49,8.71,8.71,0,0,0-6.72-8.22,1.08,1.08,0,0,1-.92-1,9.93,9.93,0,0,0-5.82-6.82,15.11,15.11,0,0,0-2.67-.76c1.9-3,2.23-3.88,2.24-6.35,0-1.21,0-2.43,0-3.64A8.86,8.86,0,0,0,129,82c-.41-.11-.88,0-1.24-.33h-2.72c-.52.22-1.1.14-1.63.34a9,9,0,0,0-5.88,8.34c0,1.24,0,2.48,0,3.72a9,9,0,0,0,1.6,5.26c.43.66.43.67-.33.86a8.12,8.12,0,0,0-2.95,1.25,1.64,1.64,0,0,0-.63,1.94,1.67,1.67,0,0,0,1.93,1A2.46,2.46,0,0,0,118,104a6.89,6.89,0,0,1,3.33-.84c3.52,0,7,0,10.58,0a6.76,6.76,0,0,1,6.46,4.25c.28.59.21.89-.47,1.11a9.06,9.06,0,0,0-6.42,9.05c.06,1,0,1.92,0,2.88a8.89,8.89,0,0,0,1.66,5.58c.34.46.27.66-.29.79a9.52,9.52,0,0,0-4.13,2,3.25,3.25,0,0,1-2.33.77,9,9,0,0,0-8.8,8.83c0,1.29,0,2.59,0,3.89a8.69,8.69,0,0,0,1.5,5c.52.82.53.81-.38,1.07a10.08,10.08,0,0,0-5.49,3.61c-.52.69-.58.67-1.16,0a9.88,9.88,0,0,0-7.85-3.86,50.51,50.51,0,0,1-6.51-.17A5.67,5.67,0,0,1,93,143.68a15.42,15.42,0,0,1,0-6.31,5.36,5.36,0,0,1,3.8-4.08,5.74,5.74,0,0,1,7.48,5.45c0,1.13,0,2.26,0,3.38a1.72,1.72,0,0,0,.29,1.13,1.62,1.62,0,0,0,1.7.69,1.78,1.78,0,0,0,1.32-1.59c.07-1.1,0-2.21,0-3.31a9,9,0,0,0-3.65-7.55c-.47-.37-.45-.6.07-.82A7,7,0,0,1,107,130c1.83,0,3.67,0,5.5,0a9.25,9.25,0,0,0,9-7.47,25,25,0,0,0,.15-4.81,9,9,0,0,0-6.67-9.21,1.26,1.26,0,0,1-1-.94,10,10,0,0,0-7.7-7.42c-.68-.16-.6-.38-.27-.81a8.3,8.3,0,0,0,1.56-3.89,37.89,37.89,0,0,0,.15-4.39c.23-4.23-2.87-9.06-7.86-9.4H97.46a13.44,13.44,0,0,0-2,.34,9,9,0,0,0-5.89,7.52c-.14,1,0,2-.08,3a10.16,10.16,0,0,0,1.55,6.71c.54.81.54.79-.44,1.07a10.33,10.33,0,0,0-5.24,3.39,9,9,0,0,0-2.15,5.29v10.17c.34,1,.8,1.33,1.7,1.21a1.6,1.6,0,0,0,1.4-1.65c0-.29,0-.57,0-.85,0-2.48,0-5,0-7.45a7,7,0,0,1,7.16-7.12c3.53,0,7,0,10.58,0a6.52,6.52,0,0,1,6,3.7c.69,1.32.68,1.32-.77,1.82a9,9,0,0,0-5.84,8.15,25.44,25.44,0,0,1,0,2.62,9.35,9.35,0,0,0,1.64,6.57c.4.53.24.68-.33.81a9.3,9.3,0,0,0-4.11,2.09,2.81,2.81,0,0,1-2,.71,9,9,0,0,0-9.1,8.08c-.09.75.07,1.46,0,2.19a10.71,10.71,0,0,0,1.9,8,.21.21,0,0,1,0,.21C87,149.42,84,152,83.23,156.85v10.5c.43.69,1,1.23,1.85.94s1-1,1-1.81c0-2.6,0-5.2,0-7.79a7.18,7.18,0,0,1,7.38-7.47q5.11,0,10.25,0a7.19,7.19,0,0,1,7.43,7.5c0,2.62,0,5.25,0,7.88,0,1.11.58,1.79,1.48,1.76s1.4-.67,1.4-1.76c0-2.62,0-5.25,0-7.87a7.2,7.2,0,0,1,7.51-7.51q5,0,10.08,0a7.19,7.19,0,0,1,7.47,7.54c0,2.6,0,5.2,0,7.8,0,1.13.54,1.8,1.43,1.8s1.45-.67,1.45-1.8c0-2.63,0-5.25,0-7.88a7.18,7.18,0,0,1,7.38-7.46q5.13,0,10.25,0a7.19,7.19,0,0,1,7.43,7.5c0,2.63,0,5.26,0,7.88,0,1.09.52,1.74,1.4,1.76s1.48-.66,1.48-1.76q0-4,0-8A10.1,10.1,0,0,0,159.71,148.32ZM132.39,95.49a6,6,0,0,1-6.28,4.56,6,6,0,0,1-5.45-5.78c0-1.32,0-2.65,0-4a5.94,5.94,0,0,1,11.88,0c0,.67,0,1.35,0,2.32A14.38,14.38,0,0,1,132.39,95.49Zm2.32,20.45a5.94,5.94,0,0,1,11.74,1c0,.7,0,1.41,0,2.11a14.42,14.42,0,0,1-.17,3.28,6,6,0,0,1-6.27,4.45,5.91,5.91,0,0,1-5.44-5.86A24.39,24.39,0,0,1,134.71,115.94ZM104.56,92.52a19.06,19.06,0,0,1-.11,2.62,6,6,0,0,1-6.08,4.92,5.93,5.93,0,0,1-5.7-5.43,27.77,27.77,0,0,1,0-4.65,5.92,5.92,0,0,1,6.09-5.46,6,6,0,0,1,5.79,5.81C104.58,91,104.56,91.63,104.56,92.52Zm2.19,23.18a5.95,5.95,0,0,1,11.7,1.32,23.77,23.77,0,0,1-.14,5.06,5.93,5.93,0,0,1-11.73-.91c0-.7,0-1.41,0-2.11A14,14,0,0,1,106.75,115.7Z"/><path class="cls-4" d="M146.26,103.6a6.87,6.87,0,0,1,3-.63h10.33a7.22,7.22,0,0,1,7.54,7.56c0,2.66,0,5.31,0,8a1.45,1.45,0,1,0,2.88,0c0-2.85,0-5.7,0-8.55a10.12,10.12,0,0,0-7.52-9.53c-.4-.11-.88,0-1.25-.34a9.3,9.3,0,0,0,2.29-6.26c0-1-.09-2,0-3A8.88,8.88,0,0,0,157,82a4,4,0,0,1-1.27-.33H153.2c-.06.23-.27.14-.41.18-3.56.91-6,3.09-6.76,6.69a19.53,19.53,0,0,0,0,7.73,8.73,8.73,0,0,0,2,3.87,13,13,0,0,0-2.93.83c-1,.46-1.36,1.19-1,2A1.48,1.48,0,0,0,146.26,103.6Zm2.51-14.19a5.93,5.93,0,0,1,11.75.49c.07.81,0,1.63,0,2.45a11.28,11.28,0,0,1-.17,3.28,5.95,5.95,0,0,1-11.69-1.16A23.12,23.12,0,0,1,148.77,89.41Z"/></svg>