<svg id="Layer_1" data-name="Layer 1" xmlns="http://www.w3.org/2000/svg" viewBox="0 0 654 250"><defs><style>.cls-1{fill:#49773d;}.cls-2{opacity:0.15;}.cls-3{fill:#fff;}.cls-4{fill:none;stroke:#49773d;stroke-miterlimit:10;stroke-width:2.6px;}</style></defs><path d="M315.91,141.75a3.22,3.22,0,0,1-.22-.94,3.4,3.4,0,0,1-2.54,1.11,3.15,3.15,0,0,1-2.17-.75,2.41,2.41,0,0,1-.85-1.9,2.52,2.52,0,0,1,1.06-2.17,5,5,0,0,1,3-.77h1.49v-.71a1.7,1.7,0,0,0-.48-1.27,1.91,1.91,0,0,0-1.41-.48,2.28,2.28,0,0,0-1.38.41,1.22,1.22,0,0,0-.55,1h-1.54a2.11,2.11,0,0,1,.48-1.29,3.18,3.18,0,0,1,1.29-1,4.37,4.37,0,0,1,1.79-.36,3.57,3.57,0,0,1,2.42.77,2.81,2.81,0,0,1,.91,2.13v4.12a5.06,5.06,0,0,0,.31,2v.13Zm-2.54-1.16a2.64,2.64,0,0,0,1.36-.38,2.19,2.19,0,0,0,.94-1v-1.83h-1.2c-1.87,0-2.81.55-2.81,1.64a1.4,1.4,0,0,0,.48,1.13A1.84,1.84,0,0,0,313.37,140.59Z"/><path d="M323.92,134.18a4.38,4.38,0,0,0-.75-.06,2,2,0,0,0-2.05,1.28v6.35h-1.53v-8.94h1.49l0,1a2.38,2.38,0,0,1,2.13-1.2,1.53,1.53,0,0,1,.68.12Z"/><path d="M328.88,141.92a3.9,3.9,0,0,1-3-1.2,4.43,4.43,0,0,1-1.14-3.19v-.28a5.34,5.34,0,0,1,.51-2.38,4,4,0,0,1,1.42-1.64,3.61,3.61,0,0,1,2-.59,3.33,3.33,0,0,1,2.71,1.15,4.93,4.93,0,0,1,1,3.29v.64h-6.06a3.16,3.16,0,0,0,.77,2.13,2.41,2.41,0,0,0,1.88.82,2.65,2.65,0,0,0,1.37-.33,3.45,3.45,0,0,0,1-.88l.93.73A3.75,3.75,0,0,1,328.88,141.92Zm-.19-8a2,2,0,0,0-1.56.67,3.34,3.34,0,0,0-.77,1.89h4.48v-.12a2.84,2.84,0,0,0-.63-1.8A1.9,1.9,0,0,0,328.69,133.9Z"/><path d="M339.78,132.81l.05,1.12a3.25,3.25,0,0,1,2.68-1.29q2.83,0,2.86,3.2v5.91h-1.53v-5.92a2.14,2.14,0,0,0-.44-1.43,1.78,1.78,0,0,0-1.36-.46,2.16,2.16,0,0,0-1.3.4,2.63,2.63,0,0,0-.88,1v6.37h-1.53v-8.94Z"/><path d="M347.27,137.19a5.21,5.21,0,0,1,.52-2.36,3.83,3.83,0,0,1,1.43-1.62,4,4,0,0,1,2.11-.57,3.74,3.74,0,0,1,2.95,1.27,4.81,4.81,0,0,1,1.13,3.36v.11a5.22,5.22,0,0,1-.5,2.34,3.82,3.82,0,0,1-1.43,1.62,4,4,0,0,1-2.13.58,3.77,3.77,0,0,1-3-1.27,4.85,4.85,0,0,1-1.13-3.35Zm1.54.19a3.83,3.83,0,0,0,.69,2.39,2.34,2.34,0,0,0,3.7,0,4.15,4.15,0,0,0,.68-2.56,3.8,3.8,0,0,0-.7-2.38,2.32,2.32,0,0,0-3.68,0A4.17,4.17,0,0,0,348.81,137.38Z"/><path d="M365.25,139.64l1.72-6.83h1.53l-2.6,8.94h-1.24L362.48,135l-2.11,6.78h-1.25l-2.59-8.94h1.52l1.76,6.69,2.09-6.69h1.23Z"/><path d="M379.77,140.87a3.26,3.26,0,0,1-2.62,1,2.76,2.76,0,0,1-2.18-.84,3.59,3.59,0,0,1-.76-2.45v-5.82h1.53v5.77c0,1.36.55,2,1.66,2a2.29,2.29,0,0,0,2.33-1.31v-6.5h1.53v8.94H379.8Z"/><path d="M385,132.81l.05,1.12a3.24,3.24,0,0,1,2.67-1.29q2.83,0,2.87,3.2v5.91h-1.53v-5.92a2.09,2.09,0,0,0-.45-1.43,1.77,1.77,0,0,0-1.35-.46,2.16,2.16,0,0,0-1.3.4,2.63,2.63,0,0,0-.88,1v6.37h-1.53v-8.94Z"/><path d="M392.55,137.2a5.25,5.25,0,0,1,1-3.31,3.32,3.32,0,0,1,5-.18v-4.66h1.53v12.7h-1.4l-.08-1a3.11,3.11,0,0,1-2.55,1.13,3.07,3.07,0,0,1-2.54-1.28,5.3,5.3,0,0,1-1-3.32Zm1.53.18a4,4,0,0,0,.63,2.38,2,2,0,0,0,1.74.86,2.23,2.23,0,0,0,2.12-1.31V135.2a2.25,2.25,0,0,0-2.11-1.26,2,2,0,0,0-1.75.87A4.35,4.35,0,0,0,394.08,137.38Z"/><path d="M406.18,141.92a3.9,3.9,0,0,1-3-1.2,4.43,4.43,0,0,1-1.14-3.19v-.28a5.34,5.34,0,0,1,.51-2.38,4,4,0,0,1,1.42-1.64,3.61,3.61,0,0,1,2-.59,3.35,3.35,0,0,1,2.72,1.15,5,5,0,0,1,1,3.29v.64h-6.06a3.16,3.16,0,0,0,.77,2.13,2.44,2.44,0,0,0,1.89.82,2.67,2.67,0,0,0,1.37-.33,3.55,3.55,0,0,0,1-.88l.94.73A3.77,3.77,0,0,1,406.18,141.92Zm-.19-8a2,2,0,0,0-1.55.67,3.28,3.28,0,0,0-.78,1.89h4.48v-.12a2.9,2.9,0,0,0-.62-1.8A1.94,1.94,0,0,0,406,133.9Z"/><path d="M415.77,134.18a4.47,4.47,0,0,0-.75-.06,2,2,0,0,0-2,1.28v6.35h-1.53v-8.94h1.49l0,1a2.38,2.38,0,0,1,2.13-1.2,1.53,1.53,0,0,1,.68.12Z"/><path d="M430.08,129.71v8.19a3.84,3.84,0,0,1-1.07,2.78,4.29,4.29,0,0,1-2.88,1.22l-.43,0a4.49,4.49,0,0,1-3.14-1.07,3.83,3.83,0,0,1-1.2-2.94v-8.2h1.57v8.15a2.92,2.92,0,0,0,4.84,2,2.75,2.75,0,0,0,.71-2v-8.16Z"/><path d="M441.84,141.75h-1.6l-6.06-9.27v9.27h-1.6v-12h1.6l6.08,9.32v-9.32h1.58Z"/><path d="M447.6,137.26h-4V136h4Z"/><path d="M454.29,139.38a1.11,1.11,0,0,0-.46-1,4.57,4.57,0,0,0-1.63-.6,7.37,7.37,0,0,1-1.84-.59,2.52,2.52,0,0,1-1-.83,2,2,0,0,1-.33-1.14,2.33,2.33,0,0,1,.93-1.86,3.61,3.61,0,0,1,2.38-.76,3.74,3.74,0,0,1,2.46.78,2.49,2.49,0,0,1,.95,2H454.2a1.35,1.35,0,0,0-.53-1.08,2,2,0,0,0-1.34-.45,2.12,2.12,0,0,0-1.31.36,1.15,1.15,0,0,0-.47,1,.94.94,0,0,0,.44.84,5.63,5.63,0,0,0,1.58.53,8.8,8.8,0,0,1,1.86.61,2.8,2.8,0,0,1,1.05.86,2.11,2.11,0,0,1,.35,1.22,2.31,2.31,0,0,1-1,1.92,4,4,0,0,1-2.49.73,4.54,4.54,0,0,1-1.9-.38,3.07,3.07,0,0,1-1.3-1.07,2.54,2.54,0,0,1-.47-1.47h1.53a1.61,1.61,0,0,0,.62,1.22,2.39,2.39,0,0,0,1.52.45,2.49,2.49,0,0,0,1.39-.35A1.09,1.09,0,0,0,454.29,139.38Z"/><path d="M463.34,140.87a3.26,3.26,0,0,1-2.62,1,2.77,2.77,0,0,1-2.18-.84,3.59,3.59,0,0,1-.76-2.45v-5.82h1.53v5.77c0,1.36.56,2,1.66,2a2.29,2.29,0,0,0,2.33-1.31v-6.5h1.53v8.94h-1.46Z"/><path d="M474.71,137.38a5.31,5.31,0,0,1-.94,3.29,3,3,0,0,1-2.53,1.25,3.28,3.28,0,0,1-2.56-1v4.31h-1.53V132.81h1.4l.07,1a3.13,3.13,0,0,1,2.6-1.16,3.08,3.08,0,0,1,2.55,1.21,5.42,5.42,0,0,1,.94,3.39Zm-1.53-.18a4,4,0,0,0-.65-2.39,2.08,2.08,0,0,0-1.77-.87,2.25,2.25,0,0,0-2.08,1.23v4.27a2.26,2.26,0,0,0,2.1,1.23,2.06,2.06,0,0,0,1.75-.88A4.32,4.32,0,0,0,473.18,137.2Z"/><path d="M484.21,137.38a5.31,5.31,0,0,1-.94,3.29,3,3,0,0,1-2.52,1.25,3.29,3.29,0,0,1-2.57-1v4.31h-1.53V132.81h1.4l.08,1a3.11,3.11,0,0,1,2.59-1.16,3.07,3.07,0,0,1,2.55,1.21,5.42,5.42,0,0,1,.94,3.39Zm-1.53-.18a4,4,0,0,0-.64-2.39,2.09,2.09,0,0,0-1.78-.87,2.25,2.25,0,0,0-2.08,1.23v4.27a2.26,2.26,0,0,0,2.1,1.23,2,2,0,0,0,1.75-.88A4.32,4.32,0,0,0,482.68,137.2Z"/><path d="M485.75,137.19a5.34,5.34,0,0,1,.51-2.36,3.8,3.8,0,0,1,3.55-2.19,3.75,3.75,0,0,1,2.95,1.27,4.86,4.86,0,0,1,1.13,3.36v.11a5.36,5.36,0,0,1-.5,2.34,3.82,3.82,0,0,1-1.43,1.62,4,4,0,0,1-2.14.58,3.8,3.8,0,0,1-2.95-1.27,4.85,4.85,0,0,1-1.12-3.35Zm1.53.19a3.84,3.84,0,0,0,.7,2.39,2.33,2.33,0,0,0,3.69,0,4.15,4.15,0,0,0,.69-2.56,3.8,3.8,0,0,0-.7-2.38,2.32,2.32,0,0,0-3.68,0A4.17,4.17,0,0,0,487.28,137.38Z"/><path d="M500.13,134.18a4.38,4.38,0,0,0-.75-.06,2,2,0,0,0-2,1.28v6.35h-1.53v-8.94h1.49l0,1a2.38,2.38,0,0,1,2.13-1.2,1.5,1.5,0,0,1,.68.12Z"/><path d="M504,130.64v2.17h1.66V134H504v5.55a1.24,1.24,0,0,0,.22.81.94.94,0,0,0,.76.27,3.44,3.44,0,0,0,.73-.1v1.23a4.55,4.55,0,0,1-1.18.17,1.9,1.9,0,0,1-1.54-.62,2.67,2.67,0,0,1-.52-1.77V134h-1.63v-1.18h1.63v-2.17Z"/><path d="M511.19,141.92a3.88,3.88,0,0,1-2.95-1.2,4.44,4.44,0,0,1-1.15-3.19v-.28a5.34,5.34,0,0,1,.51-2.38,4.06,4.06,0,0,1,1.42-1.64,3.62,3.62,0,0,1,2-.59,3.35,3.35,0,0,1,2.71,1.15,5,5,0,0,1,1,3.29v.64h-6.06a3.17,3.17,0,0,0,.78,2.13,2.41,2.41,0,0,0,1.88.82,2.65,2.65,0,0,0,1.37-.33,3.41,3.41,0,0,0,1-.88l.94.73A3.76,3.76,0,0,1,511.19,141.92Zm-.18-8a2,2,0,0,0-1.56.67,3.28,3.28,0,0,0-.78,1.89h4.48v-.12a2.9,2.9,0,0,0-.62-1.8A1.93,1.93,0,0,0,511,133.9Z"/><path d="M516.08,137.2a5.25,5.25,0,0,1,1-3.31,3.32,3.32,0,0,1,5-.18v-4.66h1.53v12.7h-1.41l-.07-1a3.11,3.11,0,0,1-2.56,1.13,3.06,3.06,0,0,1-2.53-1.28,5.3,5.3,0,0,1-1-3.32Zm1.53.18a4,4,0,0,0,.63,2.38,2,2,0,0,0,1.74.86,2.23,2.23,0,0,0,2.12-1.31V135.2a2.25,2.25,0,0,0-2.11-1.26,2,2,0,0,0-1.75.87A4.35,4.35,0,0,0,517.61,137.38Z"/><path d="M274.39,153.12l.05,1.13a3.26,3.26,0,0,1,2.68-1.29q2.83,0,2.86,3.2v5.91h-1.53v-5.92a2.09,2.09,0,0,0-.44-1.43,1.77,1.77,0,0,0-1.35-.46,2.23,2.23,0,0,0-1.31.39,2.7,2.7,0,0,0-.88,1v6.38h-1.53v-8.95Z"/><path d="M281.88,157.51a5.21,5.21,0,0,1,.52-2.36,3.83,3.83,0,0,1,1.43-1.62,4,4,0,0,1,2.11-.57,3.76,3.76,0,0,1,2.95,1.26,4.86,4.86,0,0,1,1.13,3.37v.11a5.22,5.22,0,0,1-.5,2.34,3.82,3.82,0,0,1-1.43,1.62,4,4,0,0,1-2.13.57A3.76,3.76,0,0,1,283,161a4.85,4.85,0,0,1-1.13-3.35Zm1.54.19a3.8,3.8,0,0,0,.69,2.38,2.33,2.33,0,0,0,3.7,0,4.17,4.17,0,0,0,.68-2.56,3.84,3.84,0,0,0-.69-2.38,2.24,2.24,0,0,0-1.86-.92,2.2,2.2,0,0,0-1.83.91A4.17,4.17,0,0,0,283.42,157.7Z"/><path d="M293.39,153.12l.05,1.13a3.25,3.25,0,0,1,2.68-1.29q2.83,0,2.86,3.2v5.91h-1.53v-5.92a2.14,2.14,0,0,0-.44-1.43,1.78,1.78,0,0,0-1.36-.46,2.22,2.22,0,0,0-1.3.39,2.7,2.7,0,0,0-.88,1v6.38h-1.53v-8.95Z"/><path d="M304.47,157.58h-4v-1.25h4Z"/><path d="M306.71,162.07v-7.76h-1.42v-1.19h1.42v-.91a3.07,3.07,0,0,1,.77-2.23,2.9,2.9,0,0,1,2.17-.78,3.79,3.79,0,0,1,1.05.14l-.08,1.23a4.33,4.33,0,0,0-.83-.08,1.51,1.51,0,0,0-1.15.44,1.77,1.77,0,0,0-.4,1.25v.94h1.91v1.19h-1.91v7.76Z"/><path d="M311.43,157.51a5.21,5.21,0,0,1,.52-2.36,3.83,3.83,0,0,1,1.43-1.62,4,4,0,0,1,2.11-.57,3.76,3.76,0,0,1,2.95,1.26,4.86,4.86,0,0,1,1.13,3.37v.11a5.22,5.22,0,0,1-.5,2.34,3.82,3.82,0,0,1-1.43,1.62,4,4,0,0,1-2.13.57,3.76,3.76,0,0,1-2.95-1.26,4.85,4.85,0,0,1-1.13-3.35Zm1.54.19a3.8,3.8,0,0,0,.69,2.38,2.33,2.33,0,0,0,3.7,0,4.17,4.17,0,0,0,.69-2.56,3.85,3.85,0,0,0-.7-2.38,2.24,2.24,0,0,0-1.86-.92,2.21,2.21,0,0,0-1.83.91A4.17,4.17,0,0,0,313,157.7Z"/><path d="M325.82,154.5a4.51,4.51,0,0,0-.76-.06,2,2,0,0,0-2,1.28v6.35h-1.53v-8.95H323l0,1a2.38,2.38,0,0,1,2.13-1.2,1.71,1.71,0,0,1,.68.11Z"/><path d="M330.78,162.23a3.88,3.88,0,0,1-3-1.19,4.45,4.45,0,0,1-1.15-3.2v-.28a5.32,5.32,0,0,1,.51-2.37,4,4,0,0,1,1.43-1.64,3.59,3.59,0,0,1,2-.59,3.35,3.35,0,0,1,2.71,1.15,5,5,0,0,1,1,3.29V158h-6.06a3.12,3.12,0,0,0,.77,2.14,2.41,2.41,0,0,0,1.88.82,2.56,2.56,0,0,0,1.37-.34,3.24,3.24,0,0,0,1-.87l.94.73A3.75,3.75,0,0,1,330.78,162.23Zm-.19-8a2.05,2.05,0,0,0-1.56.68,3.28,3.28,0,0,0-.78,1.89h4.48v-.12a2.93,2.93,0,0,0-.62-1.81A2,2,0,0,0,330.59,154.21Z"/><path d="M341.24,159.7a1.13,1.13,0,0,0-.46-1,4.89,4.89,0,0,0-1.63-.59,7.37,7.37,0,0,1-1.84-.59,2.61,2.61,0,0,1-1-.83,2,2,0,0,1-.33-1.14,2.33,2.33,0,0,1,.93-1.86,3.61,3.61,0,0,1,2.38-.76,3.74,3.74,0,0,1,2.46.78,2.49,2.49,0,0,1,.95,2h-1.54a1.35,1.35,0,0,0-.53-1.08,2,2,0,0,0-1.34-.46,2.1,2.1,0,0,0-1.31.37,1.15,1.15,0,0,0-.47.95.94.94,0,0,0,.44.84,5.63,5.63,0,0,0,1.58.53,8.8,8.8,0,0,1,1.86.61,2.8,2.8,0,0,1,1.05.86,2.09,2.09,0,0,1,.34,1.22,2.3,2.3,0,0,1-.95,1.92,4.06,4.06,0,0,1-2.49.72,4.62,4.62,0,0,1-1.91-.37,3.1,3.1,0,0,1-1.29-1.07,2.54,2.54,0,0,1-.47-1.47h1.53a1.61,1.61,0,0,0,.62,1.22,2.83,2.83,0,0,0,2.91.09A1.06,1.06,0,0,0,341.24,159.7Z"/><path d="M346.84,151v2.16h1.67v1.19h-1.67v5.55a1.3,1.3,0,0,0,.22.81,1,1,0,0,0,.77.27,4.29,4.29,0,0,0,.72-.1v1.23a4.39,4.39,0,0,1-1.17.16,1.9,1.9,0,0,1-1.55-.62,2.7,2.7,0,0,1-.52-1.76v-5.54h-1.63v-1.19h1.63V151Z"/><path d="M360,162.07a3.05,3.05,0,0,1-.21-.94,3.4,3.4,0,0,1-2.55,1.1,3.14,3.14,0,0,1-2.17-.74,2.46,2.46,0,0,1-.85-1.9,2.53,2.53,0,0,1,1.07-2.17,5,5,0,0,1,3-.77h1.48v-.71a1.7,1.7,0,0,0-.48-1.27,1.91,1.91,0,0,0-1.41-.48,2.25,2.25,0,0,0-1.37.41,1.23,1.23,0,0,0-.56,1h-1.53a2.08,2.08,0,0,1,.47-1.29,3.23,3.23,0,0,1,1.29-1A4.37,4.37,0,0,1,358,153a3.55,3.55,0,0,1,2.42.77,2.78,2.78,0,0,1,.91,2.13V160a5,5,0,0,0,.32,2v.13Zm-2.54-1.17a2.69,2.69,0,0,0,1.37-.37,2.22,2.22,0,0,0,.93-1v-1.83h-1.2c-1.87,0-2.81.55-2.81,1.64a1.4,1.4,0,0,0,.48,1.13A1.84,1.84,0,0,0,357.47,160.9Z"/><path d="M368,154.5a4.38,4.38,0,0,0-.75-.06,2,2,0,0,0-2,1.28v6.35H363.7v-8.95h1.49l0,1a2.38,2.38,0,0,1,2.13-1.2,1.68,1.68,0,0,1,.68.11Z"/><path d="M373,162.23a3.87,3.87,0,0,1-3-1.19,4.41,4.41,0,0,1-1.15-3.2v-.28a5.32,5.32,0,0,1,.51-2.37,4,4,0,0,1,1.42-1.64,3.62,3.62,0,0,1,2-.59,3.35,3.35,0,0,1,2.71,1.15,5,5,0,0,1,1,3.29V158h-6.06a3.18,3.18,0,0,0,.78,2.14,2.41,2.41,0,0,0,1.88.82,2.56,2.56,0,0,0,1.37-.34,3.24,3.24,0,0,0,1-.87l.94.73A3.75,3.75,0,0,1,373,162.23Zm-.18-8a2.05,2.05,0,0,0-1.56.68,3.28,3.28,0,0,0-.78,1.89h4.48v-.12a2.93,2.93,0,0,0-.62-1.81A2,2,0,0,0,372.8,154.21Z"/><path d="M383.77,162.07a3.31,3.31,0,0,1-.22-.94,3.4,3.4,0,0,1-2.55,1.1,3.16,3.16,0,0,1-2.17-.74,2.45,2.45,0,0,1-.84-1.9,2.52,2.52,0,0,1,1.06-2.17,5,5,0,0,1,3-.77h1.49v-.71a1.7,1.7,0,0,0-.48-1.27,1.94,1.94,0,0,0-1.42-.48,2.27,2.27,0,0,0-1.37.41,1.22,1.22,0,0,0-.55,1h-1.54a2.14,2.14,0,0,1,.47-1.29,3.23,3.23,0,0,1,1.29-1,4.4,4.4,0,0,1,1.79-.36,3.59,3.59,0,0,1,2.43.77,2.85,2.85,0,0,1,.91,2.13V160a5.06,5.06,0,0,0,.31,2v.13Zm-2.54-1.17a2.65,2.65,0,0,0,1.36-.37,2.3,2.3,0,0,0,.94-1v-1.83h-1.2c-1.88,0-2.81.55-2.81,1.64a1.37,1.37,0,0,0,.48,1.13A1.84,1.84,0,0,0,381.23,160.9Z"/><path d="M399.2,157.7a5.39,5.39,0,0,1-.93,3.29,3,3,0,0,1-2.53,1.24,3.29,3.29,0,0,1-2.57-1v4.31h-1.53V153.12H393l.08,1a3.11,3.11,0,0,1,2.59-1.16,3,3,0,0,1,2.55,1.21,5.4,5.4,0,0,1,.94,3.39Zm-1.53-.18a4,4,0,0,0-.64-2.39,2.08,2.08,0,0,0-1.77-.87,2.26,2.26,0,0,0-2.09,1.23v4.27a2.26,2.26,0,0,0,2.1,1.23,2,2,0,0,0,1.75-.88A4.32,4.32,0,0,0,397.67,157.52Z"/><path d="M405.47,154.5a4.51,4.51,0,0,0-.76-.06,2,2,0,0,0-2,1.28v6.35h-1.53v-8.95h1.49l0,1a2.38,2.38,0,0,1,2.13-1.2,1.71,1.71,0,0,1,.68.11Z"/><path d="M406.3,157.51a5.35,5.35,0,0,1,.52-2.36,3.86,3.86,0,0,1,1.44-1.62,3.91,3.91,0,0,1,2.1-.57,3.78,3.78,0,0,1,3,1.26,4.9,4.9,0,0,1,1.13,3.37v.11A5.36,5.36,0,0,1,414,160a3.89,3.89,0,0,1-1.43,1.62,4,4,0,0,1-2.14.57,3.78,3.78,0,0,1-2.95-1.26,4.85,4.85,0,0,1-1.13-3.35Zm1.54.19a3.8,3.8,0,0,0,.69,2.38,2.33,2.33,0,0,0,3.7,0,4.17,4.17,0,0,0,.69-2.56,3.78,3.78,0,0,0-.7-2.38,2.23,2.23,0,0,0-1.86-.92,2.2,2.2,0,0,0-1.82.91A4.11,4.11,0,0,0,407.84,157.7Z"/><path d="M418.44,151v2.16h1.67v1.19h-1.67v5.55a1.3,1.3,0,0,0,.22.81,1,1,0,0,0,.77.27,4.29,4.29,0,0,0,.72-.1v1.23a4.39,4.39,0,0,1-1.17.16,1.89,1.89,0,0,1-1.55-.62,2.7,2.7,0,0,1-.52-1.76v-5.54h-1.63v-1.19h1.63V151Z"/><path d="M425.61,162.23a3.9,3.9,0,0,1-3-1.19,4.44,4.44,0,0,1-1.14-3.2v-.28a5.32,5.32,0,0,1,.51-2.37,3.86,3.86,0,0,1,1.42-1.64,3.61,3.61,0,0,1,2-.59,3.33,3.33,0,0,1,2.71,1.15,4.93,4.93,0,0,1,1,3.29V158H423a3.17,3.17,0,0,0,.77,2.14,2.41,2.41,0,0,0,1.88.82,2.56,2.56,0,0,0,1.37-.34,3.27,3.27,0,0,0,1-.87l.93.73A3.75,3.75,0,0,1,425.61,162.23Zm-.19-8a2.05,2.05,0,0,0-1.56.68,3.34,3.34,0,0,0-.77,1.89h4.48v-.12a2.93,2.93,0,0,0-.63-1.81A2,2,0,0,0,425.42,154.21Z"/><path d="M434.46,161a2.22,2.22,0,0,0,1.43-.5,1.74,1.74,0,0,0,.67-1.24H438a2.74,2.74,0,0,1-.53,1.46,3.36,3.36,0,0,1-1.3,1.11,4,4,0,0,1-4.63-.8,4.88,4.88,0,0,1-1.08-3.34v-.26a5.38,5.38,0,0,1,.48-2.32,3.67,3.67,0,0,1,1.38-1.58,3.92,3.92,0,0,1,2.12-.56,3.6,3.6,0,0,1,2.5.9A3.22,3.22,0,0,1,438,156.2h-1.45a2.1,2.1,0,0,0-.65-1.43,2.06,2.06,0,0,0-1.46-.56,2.15,2.15,0,0,0-1.81.84,3.93,3.93,0,0,0-.64,2.43v.29a3.9,3.9,0,0,0,.63,2.38A2.17,2.17,0,0,0,434.46,161Z"/><path d="M441.81,151v2.16h1.66v1.19h-1.66v5.55a1.24,1.24,0,0,0,.22.81.94.94,0,0,0,.76.27,4.25,4.25,0,0,0,.73-.1v1.23a4.52,4.52,0,0,1-1.18.16,1.87,1.87,0,0,1-1.54-.62,2.64,2.64,0,0,1-.52-1.76v-5.54h-1.63v-1.19h1.63V151Z"/><path d="M445.27,150.75a.88.88,0,0,1,.23-.63.84.84,0,0,1,.67-.25.88.88,0,0,1,.68.25.92.92,0,0,1,.23.63.83.83,0,0,1-.91.87.83.83,0,0,1-.9-.87Zm1.65,11.32h-1.53v-8.95h1.53Z"/><path d="M449,157.51a5.34,5.34,0,0,1,.51-2.36A3.8,3.8,0,0,1,453,153a3.78,3.78,0,0,1,3,1.26,4.9,4.9,0,0,1,1.13,3.37v.11a5.36,5.36,0,0,1-.5,2.34,3.82,3.82,0,0,1-1.43,1.62,4,4,0,0,1-2.14.57,3.79,3.79,0,0,1-3-1.26,4.85,4.85,0,0,1-1.12-3.35Zm1.53.19a3.74,3.74,0,0,0,.7,2.38,2.32,2.32,0,0,0,3.69,0,4.17,4.17,0,0,0,.69-2.56,3.78,3.78,0,0,0-.7-2.38,2.31,2.31,0,0,0-3.68,0A4.11,4.11,0,0,0,450.5,157.7Z"/><path d="M460.48,153.12l0,1.13A3.27,3.27,0,0,1,463.2,153c1.89,0,2.85,1.07,2.86,3.2v5.91h-1.52v-5.92a2.09,2.09,0,0,0-.45-1.43,1.77,1.77,0,0,0-1.35-.46,2.25,2.25,0,0,0-1.31.39,2.76,2.76,0,0,0-.87,1v6.38H459v-8.95Z"/><path d="M472.2,157.52a5.31,5.31,0,0,1,1-3.33,3.12,3.12,0,0,1,2.57-1.23,3,3,0,0,1,2.55,1.16l.08-1h1.39v8.74a3.66,3.66,0,0,1-1,2.73,3.8,3.8,0,0,1-2.77,1,4.63,4.63,0,0,1-1.89-.41,3.39,3.39,0,0,1-1.42-1.13l.8-.92a3,3,0,0,0,2.4,1.21,2.36,2.36,0,0,0,1.74-.62,2.4,2.4,0,0,0,.63-1.78v-.76a3.16,3.16,0,0,1-2.51,1,3.07,3.07,0,0,1-2.54-1.26A5.5,5.5,0,0,1,472.2,157.52Zm1.53.18a4,4,0,0,0,.63,2.37,2,2,0,0,0,1.73.87,2.25,2.25,0,0,0,2.13-1.32v-4.08a2.26,2.26,0,0,0-2.11-1.28,2,2,0,0,0-1.74.86A4.38,4.38,0,0,0,473.73,157.7Z"/><path d="M481.66,157.51a5.34,5.34,0,0,1,.51-2.36,3.8,3.8,0,0,1,3.55-2.19,3.78,3.78,0,0,1,2.95,1.26,4.9,4.9,0,0,1,1.13,3.37v.11a5.36,5.36,0,0,1-.5,2.34,3.82,3.82,0,0,1-1.43,1.62,4,4,0,0,1-2.14.57,3.79,3.79,0,0,1-3-1.26,4.85,4.85,0,0,1-1.12-3.35Zm1.53.19a3.8,3.8,0,0,0,.69,2.38,2.21,2.21,0,0,0,1.85.91,2.18,2.18,0,0,0,1.85-.92,4.17,4.17,0,0,0,.69-2.56,3.78,3.78,0,0,0-.7-2.38,2.31,2.31,0,0,0-3.68,0A4.11,4.11,0,0,0,483.19,157.7Z"/><path d="M494.55,160l2.21-6.87h1.56l-3.2,8.95H494l-3.24-8.95h1.56Z"/><path d="M503.4,162.23a3.9,3.9,0,0,1-3-1.19,4.44,4.44,0,0,1-1.14-3.2v-.28a5.32,5.32,0,0,1,.51-2.37,3.93,3.93,0,0,1,1.42-1.64,3.61,3.61,0,0,1,2-.59,3.33,3.33,0,0,1,2.71,1.15,4.93,4.93,0,0,1,1,3.29V158h-6.06a3.17,3.17,0,0,0,.77,2.14,2.41,2.41,0,0,0,1.88.82,2.56,2.56,0,0,0,1.37-.34,3.27,3.27,0,0,0,1-.87l.93.73A3.75,3.75,0,0,1,503.4,162.23Zm-.19-8a2.05,2.05,0,0,0-1.56.68,3.34,3.34,0,0,0-.77,1.89h4.48v-.12a2.87,2.87,0,0,0-.63-1.81A1.93,1.93,0,0,0,503.21,154.21Z"/><path d="M513,154.5a4.59,4.59,0,0,0-.76-.06,2,2,0,0,0-2,1.28v6.35h-1.53v-8.95h1.49l0,1a2.4,2.4,0,0,1,2.14-1.2,1.75,1.75,0,0,1,.68.11Z"/><path d="M515.84,153.12l0,1.13a3.24,3.24,0,0,1,2.67-1.29q2.84,0,2.87,3.2v5.91H519.9v-5.92a2.09,2.09,0,0,0-.45-1.43,1.77,1.77,0,0,0-1.35-.46,2.2,2.2,0,0,0-1.3.39,2.7,2.7,0,0,0-.88,1v6.38h-1.53v-8.95Z"/><path d="M529.25,162.07a3.05,3.05,0,0,1-.21-.94,3.4,3.4,0,0,1-2.55,1.1,3.16,3.16,0,0,1-2.17-.74,2.46,2.46,0,0,1-.85-1.9,2.53,2.53,0,0,1,1.07-2.17,5,5,0,0,1,3-.77H529v-.71a1.7,1.7,0,0,0-.48-1.27,1.9,1.9,0,0,0-1.41-.48,2.25,2.25,0,0,0-1.37.41,1.23,1.23,0,0,0-.56,1h-1.53a2.08,2.08,0,0,1,.47-1.29,3.23,3.23,0,0,1,1.29-1,4.37,4.37,0,0,1,1.79-.36,3.59,3.59,0,0,1,2.43.77,2.81,2.81,0,0,1,.9,2.13V160a5,5,0,0,0,.32,2v.13Zm-2.54-1.17a2.66,2.66,0,0,0,1.37-.37,2.22,2.22,0,0,0,.93-1v-1.83h-1.2c-1.87,0-2.8.55-2.8,1.64a1.4,1.4,0,0,0,.47,1.13A1.84,1.84,0,0,0,526.71,160.9Z"/><path d="M534.39,153.12l.05,1.13a3.26,3.26,0,0,1,2.68-1.29q2.83,0,2.86,3.2v5.91h-1.53v-5.92a2.14,2.14,0,0,0-.44-1.43,1.78,1.78,0,0,0-1.36-.46,2.22,2.22,0,0,0-1.3.39,2.7,2.7,0,0,0-.88,1v6.38h-1.53v-8.95Z"/><path d="M545.87,161a2.21,2.21,0,0,0,1.43-.5,1.72,1.72,0,0,0,.68-1.24h1.45a2.83,2.83,0,0,1-.53,1.46,3.43,3.43,0,0,1-1.3,1.11,3.73,3.73,0,0,1-1.73.41A3.67,3.67,0,0,1,543,161a4.88,4.88,0,0,1-1.08-3.34v-.26a5.38,5.38,0,0,1,.48-2.32,3.71,3.71,0,0,1,1.37-1.58,4,4,0,0,1,2.12-.56,3.57,3.57,0,0,1,2.5.9,3.23,3.23,0,0,1,1.07,2.34H548a2.07,2.07,0,0,0-.66-1.43,2,2,0,0,0-1.46-.56,2.13,2.13,0,0,0-1.8.84,3.93,3.93,0,0,0-.64,2.43v.29a3.9,3.9,0,0,0,.63,2.38A2.15,2.15,0,0,0,545.87,161Z"/><path d="M554.86,162.23a3.9,3.9,0,0,1-3-1.19,4.44,4.44,0,0,1-1.14-3.2v-.28a5.32,5.32,0,0,1,.51-2.37,3.86,3.86,0,0,1,1.42-1.64,3.61,3.61,0,0,1,2-.59,3.33,3.33,0,0,1,2.71,1.15,4.93,4.93,0,0,1,1,3.29V158h-6.06a3.17,3.17,0,0,0,.77,2.14,2.41,2.41,0,0,0,1.88.82,2.56,2.56,0,0,0,1.37-.34,3.27,3.27,0,0,0,1-.87l.93.73A3.75,3.75,0,0,1,554.86,162.23Zm-.19-8a2.05,2.05,0,0,0-1.56.68,3.34,3.34,0,0,0-.77,1.89h4.48v-.12a2.93,2.93,0,0,0-.63-1.81A1.93,1.93,0,0,0,554.67,154.21Z"/><path d="M560.07,164.47l-.87-.6a3.94,3.94,0,0,0,.81-2.23v-1.38h1.5v1.2a3.84,3.84,0,0,1-.41,1.67A4,4,0,0,1,560.07,164.47Z"/><path d="M312.9,180.28l1.72-6.84h1.53l-2.6,8.95h-1.24l-2.18-6.78L308,182.39h-1.24l-2.6-8.95h1.52l1.76,6.7,2.09-6.7h1.23Z"/><path d="M319.24,174.52a3.24,3.24,0,0,1,2.64-1.24c1.89,0,2.85,1.06,2.86,3.2v5.91h-1.53v-5.92a2,2,0,0,0-.44-1.43,1.77,1.77,0,0,0-1.35-.46,2.25,2.25,0,0,0-1.31.39,2.76,2.76,0,0,0-.87,1v6.38h-1.53v-12.7h1.53Z"/><path d="M327,171.07a.92.92,0,0,1,.23-.63,1,1,0,0,1,1.35,0,.88.88,0,0,1,.23.63.84.84,0,0,1-.23.62.86.86,0,0,1-.68.25.85.85,0,0,1-.67-.25A.88.88,0,0,1,327,171.07Zm1.65,11.32h-1.52v-8.95h1.52Z"/><path d="M334.73,181.3a2.2,2.2,0,0,0,1.43-.49,1.75,1.75,0,0,0,.68-1.24h1.44a2.73,2.73,0,0,1-.52,1.46,3.57,3.57,0,0,1-1.31,1.11,4,4,0,0,1-4.63-.81,4.83,4.83,0,0,1-1.08-3.33v-.26a5.24,5.24,0,0,1,.49-2.32,3.53,3.53,0,0,1,1.37-1.58,3.88,3.88,0,0,1,2.12-.56,3.57,3.57,0,0,1,2.5.9,3.18,3.18,0,0,1,1.06,2.34h-1.44a2.11,2.11,0,0,0-.66-1.43,2,2,0,0,0-1.46-.56,2.15,2.15,0,0,0-1.81.84,4,4,0,0,0-.64,2.43v.29a3.9,3.9,0,0,0,.64,2.38A2.13,2.13,0,0,0,334.73,181.3Z"/><path d="M341.53,174.52a3.26,3.26,0,0,1,2.65-1.24c1.89,0,2.84,1.06,2.86,3.2v5.91h-1.53v-5.92a2.07,2.07,0,0,0-.44-1.43,1.77,1.77,0,0,0-1.35-.46,2.23,2.23,0,0,0-1.31.39,2.7,2.7,0,0,0-.88,1v6.38H340v-12.7h1.53Z"/><path d="M357.23,182.55a3.91,3.91,0,0,1-3-1.19,4.45,4.45,0,0,1-1.15-3.2v-.28a5.37,5.37,0,0,1,.51-2.38,4,4,0,0,1,1.42-1.63,3.56,3.56,0,0,1,2-.59,3.35,3.35,0,0,1,2.71,1.15,5,5,0,0,1,1,3.29v.63h-6.05a3.12,3.12,0,0,0,.77,2.14,2.43,2.43,0,0,0,1.88.81,2.65,2.65,0,0,0,1.37-.33,3.38,3.38,0,0,0,1-.87l.94.73A3.75,3.75,0,0,1,357.23,182.55Zm-.18-8a2.05,2.05,0,0,0-1.56.68,3.28,3.28,0,0,0-.78,1.89h4.48V177a2.93,2.93,0,0,0-.62-1.81A2,2,0,0,0,357.05,174.53Z"/><path d="M363.94,173.44l.05,1.13a3.26,3.26,0,0,1,2.68-1.29c1.89,0,2.84,1.06,2.86,3.2v5.91H368v-5.92a2.07,2.07,0,0,0-.44-1.43,1.78,1.78,0,0,0-1.36-.46,2.22,2.22,0,0,0-1.3.39,2.7,2.7,0,0,0-.88,1v6.38h-1.53v-8.95Z"/><path d="M373.91,171.28v2.16h1.67v1.18h-1.67v5.56a1.3,1.3,0,0,0,.22.81,1,1,0,0,0,.77.27,4.29,4.29,0,0,0,.72-.1v1.23a4.39,4.39,0,0,1-1.17.16,1.9,1.9,0,0,1-1.55-.62,2.7,2.7,0,0,1-.52-1.76v-5.55h-1.63v-1.18h1.63v-2.16Z"/><path d="M382.89,182.39a3.05,3.05,0,0,1-.21-.94,3.47,3.47,0,0,1-2.55,1.1,3.19,3.19,0,0,1-2.17-.74,2.42,2.42,0,0,1-.85-1.9,2.52,2.52,0,0,1,1.06-2.17,5,5,0,0,1,3-.78h1.49v-.7a1.74,1.74,0,0,0-.48-1.28,2,2,0,0,0-1.41-.47,2.28,2.28,0,0,0-1.38.41,1.24,1.24,0,0,0-.55,1h-1.54a2.09,2.09,0,0,1,.48-1.29,3.1,3.1,0,0,1,1.29-1,4.37,4.37,0,0,1,1.79-.36,3.5,3.5,0,0,1,2.42.77,2.8,2.8,0,0,1,.91,2.13v4.12a5.06,5.06,0,0,0,.31,2v.13Zm-2.54-1.17a2.62,2.62,0,0,0,1.36-.37,2.19,2.19,0,0,0,.94-1v-1.83h-1.2c-1.87,0-2.81.54-2.81,1.64a1.4,1.4,0,0,0,.48,1.13A1.84,1.84,0,0,0,380.35,181.22Z"/><path d="M386.58,171.07a.92.92,0,0,1,.23-.63,1,1,0,0,1,1.35,0,.88.88,0,0,1,.24.63.84.84,0,0,1-.24.62.86.86,0,0,1-.68.25.85.85,0,0,1-.67-.25A.88.88,0,0,1,386.58,171.07Zm1.66,11.32h-1.53v-8.95h1.53Z"/><path d="M392.35,182.39h-1.53v-12.7h1.53Z"/><path d="M400,180a1.12,1.12,0,0,0-.46-1,4.68,4.68,0,0,0-1.63-.59,7.33,7.33,0,0,1-1.84-.6,2.51,2.51,0,0,1-1-.82,2,2,0,0,1-.33-1.14,2.31,2.31,0,0,1,.93-1.86,3.61,3.61,0,0,1,2.38-.76,3.74,3.74,0,0,1,2.46.78,2.48,2.48,0,0,1,.95,2h-1.54a1.35,1.35,0,0,0-.53-1.08,2,2,0,0,0-1.34-.46,2,2,0,0,0-1.31.37,1.15,1.15,0,0,0-.47.95.92.92,0,0,0,.44.83,5.26,5.26,0,0,0,1.58.54,8.26,8.26,0,0,1,1.86.61,2.8,2.8,0,0,1,1.05.86,2.09,2.09,0,0,1,.34,1.22,2.3,2.3,0,0,1-.95,1.92,4.06,4.06,0,0,1-2.49.72,4.46,4.46,0,0,1-1.91-.38,3,3,0,0,1-1.29-1.06,2.57,2.57,0,0,1-.47-1.47H396a1.59,1.59,0,0,0,.62,1.21,2.86,2.86,0,0,0,2.91.1A1.06,1.06,0,0,0,400,180Z"/><path d="M409.79,171.28v2.16h1.67v1.18h-1.67v5.56a1.3,1.3,0,0,0,.22.81,1,1,0,0,0,.77.27,4.29,4.29,0,0,0,.72-.1v1.23a4.39,4.39,0,0,1-1.17.16,1.89,1.89,0,0,1-1.55-.62,2.7,2.7,0,0,1-.52-1.76v-5.55h-1.63v-1.18h1.63v-2.16Z"/><path d="M414.78,174.52a3.25,3.25,0,0,1,2.64-1.24c1.89,0,2.85,1.06,2.87,3.2v5.91h-1.53v-5.92a2.07,2.07,0,0,0-.45-1.43,1.77,1.77,0,0,0-1.35-.46,2.22,2.22,0,0,0-1.3.39,2.7,2.7,0,0,0-.88,1v6.38h-1.53v-12.7h1.53Z"/><path d="M426.29,182.55a3.93,3.93,0,0,1-3-1.19,4.44,4.44,0,0,1-1.14-3.2v-.28a5.37,5.37,0,0,1,.51-2.38,3.89,3.89,0,0,1,1.42-1.63,3.53,3.53,0,0,1,2-.59,3.35,3.35,0,0,1,2.71,1.15,5,5,0,0,1,1,3.29v.63h-6.06a3.17,3.17,0,0,0,.77,2.14,2.43,2.43,0,0,0,1.88.81,2.65,2.65,0,0,0,1.37-.33,3.55,3.55,0,0,0,1-.87l.93.73A3.75,3.75,0,0,1,426.29,182.55Zm-.19-8a2.05,2.05,0,0,0-1.56.68,3.34,3.34,0,0,0-.77,1.89h4.48V177a3,3,0,0,0-.63-1.81A2,2,0,0,0,426.1,174.53Z"/><path d="M437.18,173.44l0,1a3.28,3.28,0,0,1,2.65-1.16,2.56,2.56,0,0,1,2.56,1.44,3.36,3.36,0,0,1,1.16-1.05,3.46,3.46,0,0,1,1.69-.39q2.94,0,3,3.11v6h-1.53v-5.9a2,2,0,0,0-.44-1.44,1.91,1.91,0,0,0-1.47-.47,2,2,0,0,0-1.41.5,2,2,0,0,0-.65,1.37v5.94h-1.54v-5.86a1.7,1.7,0,0,0-1.91-1.95,2,2,0,0,0-2.06,1.27v6.54h-1.53v-8.95Z"/><path d="M450.58,171.07a.92.92,0,0,1,.23-.63.87.87,0,0,1,.68-.26.84.84,0,0,1,.67.26.88.88,0,0,1,.24.63.84.84,0,0,1-.91.87.86.86,0,0,1-.68-.25A.88.88,0,0,1,450.58,171.07Zm1.66,11.32h-1.53v-8.95h1.53Z"/><path d="M456.76,171.28v2.16h1.67v1.18h-1.67v5.56a1.24,1.24,0,0,0,.23.81.94.94,0,0,0,.76.27,4.38,4.38,0,0,0,.73-.1v1.23a4.52,4.52,0,0,1-1.18.16,1.9,1.9,0,0,1-1.55-.62,2.7,2.7,0,0,1-.51-1.76v-5.55H453.6v-1.18h1.64v-2.16Z"/><path d="M460.23,171.07a.88.88,0,0,1,.23-.63.84.84,0,0,1,.67-.26.88.88,0,0,1,.68.26.92.92,0,0,1,.23.63.83.83,0,0,1-.91.87.83.83,0,0,1-.9-.87Zm1.65,11.32h-1.53v-8.95h1.53Z"/><path d="M464,177.84a5.32,5.32,0,0,1,1-3.33,3.11,3.11,0,0,1,2.56-1.23,3.05,3.05,0,0,1,2.56,1.16l.07-1h1.4v8.73a3.63,3.63,0,0,1-1,2.74,3.79,3.79,0,0,1-2.76,1,4.71,4.71,0,0,1-1.9-.41,3.24,3.24,0,0,1-1.41-1.14l.79-.91a3,3,0,0,0,2.41,1.21,2.35,2.35,0,0,0,1.74-.63,2.43,2.43,0,0,0,.62-1.77v-.77a3.13,3.13,0,0,1-2.5,1.06,3,3,0,0,1-2.54-1.26A5.54,5.54,0,0,1,464,177.84Zm1.54.17a4,4,0,0,0,.62,2.38,2,2,0,0,0,1.74.87,2.24,2.24,0,0,0,2.12-1.32v-4.09a2.26,2.26,0,0,0-2.11-1.27,2,2,0,0,0-1.74.86A4.37,4.37,0,0,0,465.5,178Z"/><path d="M479.35,182.39a3.05,3.05,0,0,1-.21-.94,3.44,3.44,0,0,1-2.55,1.1,3.19,3.19,0,0,1-2.17-.74,2.42,2.42,0,0,1-.85-1.9,2.53,2.53,0,0,1,1.07-2.17,4.94,4.94,0,0,1,3-.78h1.49v-.7a1.74,1.74,0,0,0-.48-1.28,2,2,0,0,0-1.41-.47,2.23,2.23,0,0,0-1.37.41,1.23,1.23,0,0,0-.56,1h-1.54a2.09,2.09,0,0,1,.48-1.29,3.23,3.23,0,0,1,1.29-1,4.37,4.37,0,0,1,1.79-.36,3.5,3.5,0,0,1,2.42.77,2.76,2.76,0,0,1,.91,2.13v4.12a5.25,5.25,0,0,0,.31,2v.13Zm-2.54-1.17a2.69,2.69,0,0,0,1.37-.37,2.22,2.22,0,0,0,.93-1v-1.83h-1.2c-1.87,0-2.81.54-2.81,1.64a1.4,1.4,0,0,0,.48,1.13A1.84,1.84,0,0,0,476.81,181.22Z"/><path d="M485.11,171.28v2.16h1.67v1.18h-1.67v5.56a1.24,1.24,0,0,0,.23.81.94.94,0,0,0,.76.27,4.38,4.38,0,0,0,.73-.1v1.23a4.52,4.52,0,0,1-1.18.16,1.9,1.9,0,0,1-1.55-.62,2.7,2.7,0,0,1-.52-1.76v-5.55H482v-1.18h1.63v-2.16Z"/><path d="M488.58,171.07a.91.91,0,0,1,.22-.63,1,1,0,0,1,1.36,0,.92.92,0,0,1,.23.63.91.91,0,1,1-1.81,0Zm1.65,11.32H488.7v-8.95h1.53Z"/><path d="M492.27,177.83a5.35,5.35,0,0,1,.52-2.36,3.86,3.86,0,0,1,1.44-1.62,3.92,3.92,0,0,1,2.11-.57,3.78,3.78,0,0,1,3,1.26,4.89,4.89,0,0,1,1.13,3.37v.1a5.4,5.4,0,0,1-.5,2.35,3.89,3.89,0,0,1-1.43,1.62,4,4,0,0,1-2.14.57,3.78,3.78,0,0,1-3-1.26,4.87,4.87,0,0,1-1.13-3.35Zm1.54.18a3.81,3.81,0,0,0,.69,2.39,2.22,2.22,0,0,0,1.85.9,2.19,2.19,0,0,0,1.85-.91,4.17,4.17,0,0,0,.69-2.56,3.78,3.78,0,0,0-.7-2.38,2.22,2.22,0,0,0-1.85-.92,2.18,2.18,0,0,0-1.83.91A4.09,4.09,0,0,0,493.81,178Z"/><path d="M503.78,173.44l.05,1.13a3.27,3.27,0,0,1,2.68-1.29c1.89,0,2.84,1.06,2.86,3.2v5.91h-1.53v-5.92a2,2,0,0,0-.44-1.43,1.77,1.77,0,0,0-1.35-.46,2.25,2.25,0,0,0-1.31.39,2.76,2.76,0,0,0-.87,1v6.38h-1.53v-8.95Z"/><path d="M515.47,177.83a5.34,5.34,0,0,1,.51-2.36,3.8,3.8,0,0,1,3.55-2.19,3.78,3.78,0,0,1,3,1.26,4.89,4.89,0,0,1,1.13,3.37v.1a5.4,5.4,0,0,1-.5,2.35,3.89,3.89,0,0,1-1.43,1.62,4,4,0,0,1-2.14.57,3.79,3.79,0,0,1-2.95-1.26,4.86,4.86,0,0,1-1.12-3.35ZM517,178a3.81,3.81,0,0,0,.69,2.39,2.22,2.22,0,0,0,1.85.9,2.17,2.17,0,0,0,1.85-.91,4.17,4.17,0,0,0,.69-2.56,3.78,3.78,0,0,0-.7-2.38,2.22,2.22,0,0,0-1.85-.92,2.18,2.18,0,0,0-1.83.91A4.09,4.09,0,0,0,517,178Z"/><path d="M526.28,182.39v-7.77h-1.41v-1.18h1.41v-.92a3.06,3.06,0,0,1,.77-2.22,2.9,2.9,0,0,1,2.17-.78,3.74,3.74,0,0,1,1,.14l-.08,1.23a4.33,4.33,0,0,0-.83-.08,1.51,1.51,0,0,0-1.15.44,1.77,1.77,0,0,0-.4,1.25v.94h1.91v1.18h-1.91v7.77Z"/><path d="M341.46,202.71h-1.53V192.52l-3.09,1.13v-1.39l4.38-1.65h.24Z"/><path d="M352,190.66V192h-.28a4,4,0,0,0-2.85,1.06,4.41,4.41,0,0,0-1.22,2.88,3.29,3.29,0,0,1,2.6-1.09,3.1,3.1,0,0,1,2.5,1.11,4.25,4.25,0,0,1,.94,2.86,4.3,4.3,0,0,1-1,3,3.51,3.51,0,0,1-2.72,1.11,3.45,3.45,0,0,1-2.8-1.32,5.26,5.26,0,0,1-1.07-3.42v-.59a8,8,0,0,1,1.41-5.08,5.24,5.24,0,0,1,4.23-1.8Zm-2,5.43a2.55,2.55,0,0,0-2.36,1.65v.56a4,4,0,0,0,.66,2.4,2,2,0,0,0,1.67.91,2,2,0,0,0,1.63-.76,3.66,3.66,0,0,0,0-4A1.92,1.92,0,0,0,349.94,196.09Z"/><path d="M355.56,205.11l-.87-.6a4,4,0,0,0,.81-2.23V200.9H357v1.2a3.84,3.84,0,0,1-.41,1.67A4,4,0,0,1,355.56,205.11Z"/><path d="M363.8,202.71h-1.53V192.52l-3.09,1.13v-1.39l4.38-1.65h.24Z"/><path d="M370.51,196h1.15a2.56,2.56,0,0,0,1.7-.58,2.11,2.11,0,0,0-1.49-3.61,2.17,2.17,0,0,0-1.58.57,2,2,0,0,0-.59,1.5h-1.53a3.1,3.1,0,0,1,1-2.38,3.83,3.83,0,0,1,2.66-.94,3.75,3.75,0,0,1,2.67.9,3.23,3.23,0,0,1,1,2.5,2.62,2.62,0,0,1-.51,1.52,3.07,3.07,0,0,1-1.38,1.1,2.94,2.94,0,0,1,1.53,1.05,2.87,2.87,0,0,1,.54,1.77,3.26,3.26,0,0,1-1.06,2.57,3.92,3.92,0,0,1-2.75,1,4.08,4.08,0,0,1-2.76-.91,3.07,3.07,0,0,1-1.06-2.43h1.54a2,2,0,0,0,.62,1.53,2.36,2.36,0,0,0,1.66.57,2.32,2.32,0,0,0,1.69-.58,2.2,2.2,0,0,0,.59-1.66,2,2,0,0,0-.64-1.62,2.89,2.89,0,0,0-1.86-.58h-1.15Z"/><path d="M385.09,193.81a2.87,2.87,0,0,1-.47,1.61,3.3,3.3,0,0,1-1.29,1.1,3.44,3.44,0,0,1,1.49,1.18,2.94,2.94,0,0,1,.55,1.76,3.16,3.16,0,0,1-1.05,2.49,4.64,4.64,0,0,1-5.56,0,3.13,3.13,0,0,1-1-2.48,3,3,0,0,1,.53-1.76,3.31,3.31,0,0,1,1.48-1.19,3.17,3.17,0,0,1-1.27-1.1,2.83,2.83,0,0,1-.46-1.6,3.1,3.1,0,0,1,1-2.41,4.16,4.16,0,0,1,5.14,0A3.07,3.07,0,0,1,385.09,193.81Zm-1.25,5.62a2.22,2.22,0,0,0-.64-1.65,2.28,2.28,0,0,0-1.67-.63,2.15,2.15,0,0,0-2.29,2.28,2.16,2.16,0,0,0,.61,1.61,2.35,2.35,0,0,0,1.69.59,2.31,2.31,0,0,0,1.69-.6A2.11,2.11,0,0,0,383.84,199.43Zm-2.3-7.67a2,2,0,0,0-1.46.56,2.06,2.06,0,0,0-.55,1.52,2,2,0,0,0,.55,1.48,2.17,2.17,0,0,0,2.93,0,2,2,0,0,0,.55-1.48,2,2,0,0,0-.57-1.5A2,2,0,0,0,381.54,191.76Z"/><path d="M387.41,205.11l-.87-.6a4,4,0,0,0,.81-2.23V200.9h1.5v1.2a3.84,3.84,0,0,1-.41,1.67A4.16,4.16,0,0,1,387.41,205.11Z"/><path d="M397.08,198.67h1.67v1.25h-1.67v2.79h-1.54v-2.79h-5.48V199l5.39-8.34h1.63Zm-5.28,0h3.74v-5.91l-.18.33Z"/><path d="M408,202.71h-7.89v-1.1L404.3,197a9.37,9.37,0,0,0,1.27-1.71,2.8,2.8,0,0,0,.36-1.36,2.14,2.14,0,0,0-.57-1.54,2,2,0,0,0-1.53-.61,2.36,2.36,0,0,0-1.77.65,2.49,2.49,0,0,0-.63,1.81H399.9a3.58,3.58,0,0,1,1.07-2.69,4,4,0,0,1,2.86-1,3.81,3.81,0,0,1,2.66.88,3,3,0,0,1,1,2.34c0,1.18-.75,2.6-2.26,4.23l-3.23,3.5h6Z"/><path d="M417.41,191.53l-5,11.18h-1.61l5-10.78h-6.51v-1.26h8.13Z"/><path d="M419.34,201.91a1,1,0,0,1,.23-.66.91.91,0,0,1,.71-.27.94.94,0,0,1,.72.27.92.92,0,0,1,.24.66.88.88,0,0,1-.24.63,1,1,0,0,1-.72.26.94.94,0,0,1-.71-.26A.92.92,0,0,1,419.34,201.91Z"/><path d="M428.63,202.71h-1.54V192.52L424,193.65v-1.39l4.38-1.65h.24Z"/><path d="M440.88,191.53l-5,11.18h-1.61l5-10.78h-6.51v-1.26h8.13Z"/><path d="M449.05,191.6v2.16h1.66v1.18h-1.66v5.56a1.24,1.24,0,0,0,.22.81.94.94,0,0,0,.76.27,4.25,4.25,0,0,0,.73-.1v1.23a4.52,4.52,0,0,1-1.18.16,1.87,1.87,0,0,1-1.54-.62,2.64,2.64,0,0,1-.52-1.76v-5.55h-1.63v-1.18h1.63V191.6Z"/><path d="M451.93,198.15a5.21,5.21,0,0,1,.52-2.36,3.83,3.83,0,0,1,1.43-1.62,4,4,0,0,1,2.11-.57,3.76,3.76,0,0,1,2.95,1.26,4.86,4.86,0,0,1,1.13,3.37v.11a5.22,5.22,0,0,1-.5,2.34,3.82,3.82,0,0,1-1.43,1.62,4,4,0,0,1-2.13.57,3.76,3.76,0,0,1-2.95-1.26,4.85,4.85,0,0,1-1.13-3.35Zm1.54.19a3.8,3.8,0,0,0,.69,2.38,2.33,2.33,0,0,0,3.7,0,4.17,4.17,0,0,0,.68-2.56,3.84,3.84,0,0,0-.69-2.38,2.24,2.24,0,0,0-1.86-.92,2.21,2.21,0,0,0-1.83.91A4.17,4.17,0,0,0,453.47,198.34Z"/><path d="M463.44,193.76l.05,1.13a3.25,3.25,0,0,1,2.68-1.29c1.89,0,2.84,1.06,2.86,3.2v5.91H467.5v-5.92a2.14,2.14,0,0,0-.44-1.43,1.78,1.78,0,0,0-1.36-.46,2.22,2.22,0,0,0-1.3.39,2.7,2.7,0,0,0-.88,1v6.38H462v-9Z"/><path d="M476.54,200.34a1.13,1.13,0,0,0-.46-1,4.68,4.68,0,0,0-1.63-.59,7.61,7.61,0,0,1-1.85-.59,2.77,2.77,0,0,1-1-.83,2,2,0,0,1-.32-1.14,2.33,2.33,0,0,1,.93-1.86,3.6,3.6,0,0,1,2.37-.76,3.75,3.75,0,0,1,2.47.78,2.52,2.52,0,0,1,.95,2h-1.54a1.38,1.38,0,0,0-.53-1.08,2,2,0,0,0-1.35-.46,2.09,2.09,0,0,0-1.3.37,1.13,1.13,0,0,0-.47.95.94.94,0,0,0,.43.84,5.85,5.85,0,0,0,1.59.53,8.5,8.5,0,0,1,1.85.61,2.76,2.76,0,0,1,1.06.86,2.09,2.09,0,0,1,.34,1.22,2.28,2.28,0,0,1-1,1.92,4,4,0,0,1-2.49.72,4.57,4.57,0,0,1-1.9-.37,3.1,3.1,0,0,1-1.29-1.07A2.54,2.54,0,0,1,471,200h1.53a1.56,1.56,0,0,0,.62,1.21,2.38,2.38,0,0,0,1.51.46,2.44,2.44,0,0,0,1.4-.36A1.06,1.06,0,0,0,476.54,200.34Z"/><path d="M483.85,198.15a5.21,5.21,0,0,1,.52-2.36,3.79,3.79,0,0,1,1.44-1.62,3.89,3.89,0,0,1,2.1-.57,3.78,3.78,0,0,1,3,1.26,4.9,4.9,0,0,1,1.13,3.37v.11a5.22,5.22,0,0,1-.51,2.34,3.82,3.82,0,0,1-1.43,1.62,4,4,0,0,1-2.13.57,3.76,3.76,0,0,1-2.95-1.26,4.85,4.85,0,0,1-1.13-3.35Zm1.54.19a3.8,3.8,0,0,0,.69,2.38,2.22,2.22,0,0,0,1.85.91,2.2,2.2,0,0,0,1.85-.92,4.17,4.17,0,0,0,.69-2.56,3.85,3.85,0,0,0-.7-2.38,2.32,2.32,0,0,0-3.69,0A4.17,4.17,0,0,0,485.39,198.34Z"/><path d="M494.67,202.71v-7.77h-1.42v-1.18h1.42v-.91a3.06,3.06,0,0,1,.76-2.23,2.94,2.94,0,0,1,2.18-.78,3.79,3.79,0,0,1,1.05.14l-.08,1.23a4.41,4.41,0,0,0-.83-.08,1.49,1.49,0,0,0-1.15.44,1.77,1.77,0,0,0-.4,1.25v.94h1.91v1.18H496.2v7.77Z"/><path d="M363.91,219.21a4.37,4.37,0,0,1-1.4,2.94,4.61,4.61,0,0,1-3.16,1,4.25,4.25,0,0,1-3.42-1.53,6.13,6.13,0,0,1-1.28-4.09v-1.16a6.85,6.85,0,0,1,.6-2.95,4.37,4.37,0,0,1,1.69-2,4.73,4.73,0,0,1,2.55-.69,4.37,4.37,0,0,1,3.08,1.07,4.49,4.49,0,0,1,1.34,3h-1.59a3.48,3.48,0,0,0-.9-2.09,2.71,2.71,0,0,0-1.93-.65,2.83,2.83,0,0,0-2.38,1.13,5.12,5.12,0,0,0-.87,3.2v1.17a5.31,5.31,0,0,0,.82,3.12,2.66,2.66,0,0,0,2.29,1.16,3.06,3.06,0,0,0,2-.61,3.32,3.32,0,0,0,.94-2.08Z"/><path d="M375.34,217.4a7.41,7.41,0,0,1-.6,3.09,4.46,4.46,0,0,1-1.68,2,4.68,4.68,0,0,1-2.55.69,4.57,4.57,0,0,1-2.52-.7,4.65,4.65,0,0,1-1.71-2,7.2,7.2,0,0,1-.62-3v-.86a7.41,7.41,0,0,1,.6-3.07,4.48,4.48,0,0,1,4.24-2.75,4.74,4.74,0,0,1,2.55.7,4.48,4.48,0,0,1,1.69,2,7.41,7.41,0,0,1,.6,3.09Zm-1.58-.78a5.37,5.37,0,0,0-.86-3.29,2.83,2.83,0,0,0-2.4-1.14,2.8,2.8,0,0,0-2.37,1.14,5.31,5.31,0,0,0-.89,3.18v.89a5.42,5.42,0,0,0,.87,3.26,3.07,3.07,0,0,0,4.78.07,5.44,5.44,0,0,0,.87-3.22Z"/><path d="M385.21,223h-7.89v-1.1l4.17-4.63a10,10,0,0,0,1.28-1.71,2.9,2.9,0,0,0,.35-1.36,2.18,2.18,0,0,0-.57-1.55,2,2,0,0,0-1.52-.6,2.4,2.4,0,0,0-1.78.65,2.48,2.48,0,0,0-.63,1.81h-1.53a3.56,3.56,0,0,1,1.07-2.69,4,4,0,0,1,2.87-1,3.83,3.83,0,0,1,2.65.88,3,3,0,0,1,1,2.35q0,1.77-2.27,4.23l-3.22,3.5h6Z"/><path d="M390.7,223.19a3.93,3.93,0,0,1-3-1.19,4.44,4.44,0,0,1-1.14-3.2v-.28a5.37,5.37,0,0,1,.51-2.38,4,4,0,0,1,1.42-1.63,3.54,3.54,0,0,1,2-.6,3.38,3.38,0,0,1,2.72,1.15,5,5,0,0,1,1,3.3V219h-6.06a3.17,3.17,0,0,0,.77,2.14,2.47,2.47,0,0,0,1.89.81,2.67,2.67,0,0,0,1.37-.33,3.51,3.51,0,0,0,1-.87l.94.73A3.77,3.77,0,0,1,390.7,223.19Zm-.19-8a2,2,0,0,0-1.55.68,3.28,3.28,0,0,0-.78,1.89h4.48v-.12a2.93,2.93,0,0,0-.62-1.81A2,2,0,0,0,390.51,215.17Z"/><path d="M403.87,223.19a3.92,3.92,0,0,1-3-1.19,4.45,4.45,0,0,1-1.15-3.2v-.28a5.37,5.37,0,0,1,.51-2.38,4,4,0,0,1,1.43-1.63,3.52,3.52,0,0,1,2-.6,3.38,3.38,0,0,1,2.71,1.15,5,5,0,0,1,1,3.3V219H401.3a3.12,3.12,0,0,0,.77,2.14,2.43,2.43,0,0,0,1.88.81,2.65,2.65,0,0,0,1.37-.33,3.38,3.38,0,0,0,1-.87l.94.73A3.75,3.75,0,0,1,403.87,223.19Zm-.19-8a2.05,2.05,0,0,0-1.56.68,3.28,3.28,0,0,0-.78,1.89h4.48v-.12a2.93,2.93,0,0,0-.62-1.81A2,2,0,0,0,403.68,215.17Z"/><path d="M410.56,214.08l0,1a3.32,3.32,0,0,1,2.66-1.16,2.56,2.56,0,0,1,2.55,1.44,3.34,3.34,0,0,1,2.86-1.44c2,0,2.95,1.05,3,3.12v6h-1.53v-5.9a2.07,2.07,0,0,0-.44-1.44,1.91,1.91,0,0,0-1.47-.48,2,2,0,0,0-1.42.51,2.09,2.09,0,0,0-.65,1.37V223h-1.54v-5.86a1.71,1.71,0,0,0-1.91-2,2.06,2.06,0,0,0-2.06,1.28V223h-1.52v-8.95Z"/><path d="M424,211.71a.92.92,0,0,1,.23-.63,1,1,0,0,1,1.35,0,.88.88,0,0,1,.23.63.85.85,0,0,1-.23.62.86.86,0,0,1-.68.25.85.85,0,0,1-.67-.25A.9.9,0,0,1,424,211.71ZM425.63,223H424.1v-8.95h1.53Z"/><path d="M433.28,220.65a1.12,1.12,0,0,0-.46-1,4.48,4.48,0,0,0-1.63-.59,7.57,7.57,0,0,1-1.85-.6,2.65,2.65,0,0,1-1-.82,2,2,0,0,1-.32-1.14,2.31,2.31,0,0,1,.93-1.86,3.61,3.61,0,0,1,2.37-.77,3.75,3.75,0,0,1,2.47.79,2.49,2.49,0,0,1,1,2h-1.54a1.38,1.38,0,0,0-.53-1.08,2,2,0,0,0-1.35-.46,2,2,0,0,0-1.3.37,1.13,1.13,0,0,0-.47,1,.91.91,0,0,0,.43.83,5.46,5.46,0,0,0,1.59.54,8,8,0,0,1,1.85.61,2.76,2.76,0,0,1,1.06.86,2.09,2.09,0,0,1,.34,1.22,2.28,2.28,0,0,1-1,1.92,4,4,0,0,1-2.49.72,4.42,4.42,0,0,1-1.9-.38,3,3,0,0,1-1.29-1.06,2.6,2.6,0,0,1-.47-1.48h1.53a1.56,1.56,0,0,0,.62,1.22,2.38,2.38,0,0,0,1.51.45,2.44,2.44,0,0,0,1.4-.35A1.06,1.06,0,0,0,433.28,220.65Z"/><path d="M442,220.65a1.12,1.12,0,0,0-.46-1,4.48,4.48,0,0,0-1.63-.59,7.57,7.57,0,0,1-1.85-.6,2.65,2.65,0,0,1-1-.82,2,2,0,0,1-.32-1.14,2.31,2.31,0,0,1,.93-1.86,3.62,3.62,0,0,1,2.38-.77,3.74,3.74,0,0,1,2.46.79,2.49,2.49,0,0,1,.95,2h-1.54a1.38,1.38,0,0,0-.53-1.08,2,2,0,0,0-1.34-.46,2,2,0,0,0-1.31.37,1.13,1.13,0,0,0-.47,1,.91.91,0,0,0,.43.83,5.46,5.46,0,0,0,1.59.54,8,8,0,0,1,1.85.61,2.76,2.76,0,0,1,1.06.86,2.09,2.09,0,0,1,.34,1.22,2.28,2.28,0,0,1-1,1.92,4,4,0,0,1-2.49.72,4.45,4.45,0,0,1-1.9-.38,3,3,0,0,1-1.29-1.06,2.6,2.6,0,0,1-.47-1.48H438a1.59,1.59,0,0,0,.62,1.22,2.38,2.38,0,0,0,1.51.45,2.44,2.44,0,0,0,1.4-.35A1.06,1.06,0,0,0,442,220.65Z"/><path d="M445.54,211.71a.92.92,0,0,1,.23-.63,1,1,0,0,1,1.35,0,.88.88,0,0,1,.23.63.85.85,0,0,1-.23.62.86.86,0,0,1-.68.25.85.85,0,0,1-.67-.25A.9.9,0,0,1,445.54,211.71ZM447.2,223h-1.53v-8.95h1.53Z"/><path d="M449.24,218.47a5.21,5.21,0,0,1,.52-2.36,3.83,3.83,0,0,1,1.43-1.62,4,4,0,0,1,2.11-.58,3.77,3.77,0,0,1,2.95,1.27,4.83,4.83,0,0,1,1.13,3.36v.11a5.4,5.4,0,0,1-.5,2.35,3.82,3.82,0,0,1-1.43,1.62,4,4,0,0,1-2.14.57,3.75,3.75,0,0,1-2.94-1.26,4.87,4.87,0,0,1-1.13-3.35Zm1.54.18a3.81,3.81,0,0,0,.69,2.39,2.34,2.34,0,0,0,3.7,0,4.24,4.24,0,0,0,.68-2.56,3.78,3.78,0,0,0-.7-2.38,2.32,2.32,0,0,0-3.68,0A4.19,4.19,0,0,0,450.78,218.65Z"/><path d="M460.75,214.08l.05,1.13a3.25,3.25,0,0,1,2.67-1.3c1.9,0,2.85,1.07,2.87,3.21V223h-1.53v-5.92a2.12,2.12,0,0,0-.44-1.43,1.79,1.79,0,0,0-1.36-.47,2.23,2.23,0,0,0-1.3.4,2.7,2.7,0,0,0-.88,1V223H459.3v-8.95Z"/><path d="M473.85,220.65a1.12,1.12,0,0,0-.46-1,4.48,4.48,0,0,0-1.63-.59,7.57,7.57,0,0,1-1.85-.6,2.65,2.65,0,0,1-1-.82,2,2,0,0,1-.32-1.14,2.31,2.31,0,0,1,.93-1.86,3.62,3.62,0,0,1,2.38-.77,3.74,3.74,0,0,1,2.46.79,2.49,2.49,0,0,1,.95,2h-1.54a1.38,1.38,0,0,0-.53-1.08,2,2,0,0,0-1.34-.46,2,2,0,0,0-1.31.37,1.13,1.13,0,0,0-.47,1,.91.91,0,0,0,.43.83,5.46,5.46,0,0,0,1.59.54,8,8,0,0,1,1.85.61,2.76,2.76,0,0,1,1.06.86,2.09,2.09,0,0,1,.34,1.22,2.28,2.28,0,0,1-1,1.92,4,4,0,0,1-2.49.72,4.45,4.45,0,0,1-1.9-.38,3,3,0,0,1-1.29-1.06,2.6,2.6,0,0,1-.47-1.48h1.53a1.59,1.59,0,0,0,.62,1.22,2.38,2.38,0,0,0,1.51.45,2.44,2.44,0,0,0,1.4-.35A1.06,1.06,0,0,0,473.85,220.65Z"/><path class="cls-1" d="M338.93,93.14v12.77h-3v-5.24h-5.8v5.24h-2.95V93.14h2.95v5H336v-5Z"/><path class="cls-1" d="M351.84,103.54v2.37H342V93.14h9.64v2.37h-6.71v2.78h5.93v2.29h-5.93v3Z"/><path class="cls-1" d="M356.73,105.28a6.44,6.44,0,0,1-2.48-2.35,6.89,6.89,0,0,1,0-6.81,6.44,6.44,0,0,1,2.48-2.35,7.88,7.88,0,0,1,6.55-.26,6,6,0,0,1,2.25,1.68l-1.89,1.75a4.09,4.09,0,0,0-3.21-1.5,4.24,4.24,0,0,0-2.12.52,3.74,3.74,0,0,0-1.45,1.45,4.56,4.56,0,0,0,0,4.23,3.74,3.74,0,0,0,1.45,1.45,4.24,4.24,0,0,0,2.12.52,4.07,4.07,0,0,0,3.21-1.51l1.89,1.75a5.93,5.93,0,0,1-2.26,1.69,7.48,7.48,0,0,1-3,.59A7.4,7.4,0,0,1,356.73,105.28Z"/><path class="cls-1" d="M370,95.55H366V93.14h11.12v2.41H373v10.36H370Z"/><path class="cls-1" d="M386.43,103.17H380.5l-1.13,2.74h-3L382,93.14H385l5.71,12.77h-3.1Zm-.93-2.24-2-4.89-2,4.89Z"/><path class="cls-1" d="M400.13,105.91l-2.47-3.56H395v3.56h-3V93.14h5.53a7,7,0,0,1,2.94.57,4.38,4.38,0,0,1,1.93,1.6,4.53,4.53,0,0,1,.67,2.46,4.13,4.13,0,0,1-2.62,4l2.86,4.11Zm-.75-9.79a3.15,3.15,0,0,0-2-.57H395V100h2.4a3.15,3.15,0,0,0,2-.58,2.32,2.32,0,0,0,0-3.3Z"/><path class="cls-1" d="M415.28,103.54v2.37h-9.89V93.14H415v2.37h-6.71v2.78h5.93v2.29h-5.93v3Z"/><path class="cls-1" d="M425.39,105.27a6.32,6.32,0,0,1-2.5-2.36,6.82,6.82,0,0,1,0-6.77,6.32,6.32,0,0,1,2.5-2.36,7.88,7.88,0,0,1,7.16,0,6.52,6.52,0,0,1,0,11.49,7.88,7.88,0,0,1-7.16,0Zm5.62-2.18a3.69,3.69,0,0,0,1.43-1.45,4.49,4.49,0,0,0,0-4.23A3.69,3.69,0,0,0,431,96a4.26,4.26,0,0,0-4.08,0,3.69,3.69,0,0,0-1.43,1.45,4.56,4.56,0,0,0,0,4.23,3.69,3.69,0,0,0,1.43,1.45,4.26,4.26,0,0,0,4.08,0Z"/><path class="cls-1" d="M441.13,95.51v3.38H447v2.37h-5.91v4.65h-2.95V93.14h9.65v2.37Z"/><path class="cls-1" d="M455,93.14h3V103.5h6.4v2.41H455Z"/><path class="cls-1" d="M474.52,103.17H468.6l-1.14,2.74h-3l5.69-12.77h2.92l5.7,12.77h-3.1Zm-.93-2.24-2-4.89-2,4.89Z"/><path class="cls-1" d="M491.79,93.14v12.77h-2.43L483,98.16v7.75h-2.92V93.14h2.45l6.34,7.75V93.14Z"/><path class="cls-1" d="M494.82,93.14h5.79a8.14,8.14,0,0,1,3.68.8,6,6,0,0,1,2.48,2.23,6.84,6.84,0,0,1,0,6.71,6,6,0,0,1-2.48,2.23,8.14,8.14,0,0,1-3.68.8h-5.79Zm5.65,10.34a4.24,4.24,0,0,0,3-1.07,4.22,4.22,0,0,0,0-5.77,4.28,4.28,0,0,0-3-1.07h-2.7v7.91Z"/><path class="cls-1" d="M360.12,68.63h-5.65V75.9h-7.82V68.63H328v-5.4l16.34-22h8.41L337.6,62.1h9.3V55.61h7.57V62.1h5.65Z"/><path class="cls-1" d="M394.22,68.63h-5.64V75.9h-7.82V68.63H362.1v-5.4l16.33-22h8.41L371.7,62.1H381V55.61h7.58V62.1h5.64Z"/><path class="cls-1" d="M405.6,68a4.62,4.62,0,0,1,1.34,3.44,8.39,8.39,0,0,1-.25,2,21.83,21.83,0,0,1-1.09,3l-2.82,7.13h-4.9l2.18-7.87a4.08,4.08,0,0,1-2-1.61,4.67,4.67,0,0,1-.71-2.6A4.56,4.56,0,0,1,398.75,68a4.76,4.76,0,0,1,3.44-1.31A4.68,4.68,0,0,1,405.6,68Z"/><path class="cls-1" d="M442.28,68.63h-5.65V75.9h-7.82V68.63H410.15v-5.4l16.34-22h8.41L419.76,62.1h9.3V55.61h7.57V62.1h5.65Z"/><path class="cls-1" d="M468,45.09c2.73,3,4.1,7.2,4.1,12.75a21.52,21.52,0,0,1-2.2,10.1,15,15,0,0,1-6.21,6.38,19.11,19.11,0,0,1-9.26,2.18,22.22,22.22,0,0,1-5.29-.62,14.24,14.24,0,0,1-4.31-1.76l3-5.89A11.2,11.2,0,0,0,454.31,70a9.36,9.36,0,0,0,7-2.59q2.58-2.61,2.77-7.5Q460.95,63,455.44,63a13.56,13.56,0,0,1-6-1.34,10.54,10.54,0,0,1-4.3-3.79,10.15,10.15,0,0,1-1.58-5.66,10.76,10.76,0,0,1,1.73-6.09,11.2,11.2,0,0,1,4.72-4,15.32,15.32,0,0,1,6.66-1.42Q463.91,40.66,468,45.09Zm-6.51,10.45a5.08,5.08,0,0,0,.05-7.45,6.42,6.42,0,0,0-4.43-1.44A6.18,6.18,0,0,0,452.94,48a4.71,4.71,0,0,0-1.6,3.76,4.78,4.78,0,0,0,1.6,3.79,7.12,7.12,0,0,0,8.57-.05Z"/><path class="cls-1" d="M483.16,74.37a14.3,14.3,0,0,1-5.27-6.16A22.38,22.38,0,0,1,476,58.58,22.41,22.41,0,0,1,477.89,49a14.3,14.3,0,0,1,5.27-6.16,14.87,14.87,0,0,1,15.34,0A14.23,14.23,0,0,1,503.77,49a22.41,22.41,0,0,1,1.91,9.63,22.38,22.38,0,0,1-1.91,9.63,14.23,14.23,0,0,1-5.27,6.16,14.87,14.87,0,0,1-15.34,0ZM495.81,67c1.2-1.82,1.8-4.62,1.8-8.42s-.6-6.6-1.8-8.41a5.67,5.67,0,0,0-5-2.72,5.6,5.6,0,0,0-4.92,2.72c-1.21,1.81-1.81,4.62-1.81,8.41s.6,6.6,1.81,8.42a5.62,5.62,0,0,0,4.92,2.72A5.69,5.69,0,0,0,495.81,67Z"/><rect class="cls-1" x="45.63" y="44.23" width="161.55" height="161.55" transform="translate(125.41 -52.77) rotate(45)"/><g class="cls-2"><path class="cls-3" d="M126.4,227.61,23.79,125,126.4,22.39,229,125ZM27,125l99.44,99.44L225.84,125,126.4,25.56Zm99.44,89.58L92.15,180.33l26.19-26.19L93,128.75l-18,18,11.9,11.9,4.93-4.93-7-7L93,138.61l15.53,15.53L87.22,175.4,57.28,145.46,77.74,125,57.28,104.54,87.22,74.6l21.26,21.26L93,111.39l-8.15-8.16,7-7-4.93-4.93-11.9,11.9,18,18,25.39-25.39L92.15,69.67,126.4,35.42l34.25,34.25L134.46,95.86l25.39,25.39,18-18L166,91.33,161,96.26l7,7-8.15,8.16L144.32,95.86,165.58,74.6l29.94,29.94L175.06,125l20.46,20.46L165.58,175.4l-21.26-21.26,15.53-15.53,8.15,8.16-7,7,4.93,4.93,11.91-11.9-18-18-25.39,25.39,26.19,26.19ZM95.32,180.33l31.08,31.08,31.08-31.08-26.19-26.19,28.56-28.56L181,146.77,166,161.84l-8.1-8.1,7-7-5-5-12.36,12.36,18.09,18.09,26.77-26.77L171.89,125l20.46-20.46L165.58,77.77,147.49,95.86l12.36,12.36,5-5-7-7,8.1-8.1L181,103.23l-21.19,21.19L131.29,95.86l26.19-26.19L126.4,38.59,95.32,69.67l26.19,26.19L93,124.42,71.77,103.23,86.84,88.16l8.1,8.1-7,7,5,5,12.36-12.36L87.22,77.77,60.45,104.54,80.91,125,60.45,145.46l26.77,26.77,18.09-18.09L93,141.78l-5,5,7,7-8.1,8.1L71.77,146.77,93,125.58l28.56,28.56Zm105.13-39.8L184.92,125l15.53-15.53L216,125ZM188.09,125l12.36,12.36L212.81,125l-12.36-12.36ZM52.35,140.53,36.82,125l15.53-15.53L67.88,125ZM40,125l12.36,12.36L64.71,125,52.35,112.64Z"/><path class="cls-3" d="M126.4,204l-24-24,24-24,24,24Zm-20.86-24,20.86,20.86L147.26,180,126.4,159.12Z"/><path class="cls-3" d="M126.4,93.39l-24-24,24-24,24,24Zm-20.86-24L126.4,90.22l20.86-20.86L126.4,48.51Z"/></g><polygon class="cls-4" points="12.75 125 126.51 238.76 528.07 238.76 641.83 125 528.07 11.23 126.51 11.23 12.75 125"/><path class="cls-3" d="M66.45,127.79l10.27-9.05c-3.82-6.61-3.45-11.35,1.14-15.32,4.42-3.82,9.82-3.52,15.52.93l23-19.95c-2.12-5.28-1-10,3-13.11A11.07,11.07,0,0,1,132.68,71q6.56,4.62,3.49,13.5,11.46,10,22.93,20c5.63-4.45,10.78-4.85,15.32-1.22a11.29,11.29,0,0,1,3.92,6.2c.93,3.63-.66,6.58-2.66,9.45l9.13,8c1.75,1.53,1.75,2.3,0,3.83l-56.89,49.57c-1.35,1.17-2,1.16-3.34,0l-16.52-14.46c-4.87-4.26-9.75-8.49-14.57-12.8a2.83,2.83,0,0,1-.86-2c.09-1.41,1.74-1.83,3-.81,1.72,1.45,3.4,3,5.13,4.47a3.61,3.61,0,0,0,.45-.39q9.59-10.93,19.15-21.9a1.89,1.89,0,0,0,.43-1.14c0-3.35,0-6.7,0-10a1.45,1.45,0,0,0-.63-1.07q-11.65-6.54-23.35-13a1.26,1.26,0,0,0-1.09,0c-.19.12-.26.69-.15,1A9.7,9.7,0,0,1,94.46,117a41.85,41.85,0,0,1-7.72,8.86c-1.29,1.16-2.07,1.2-3.33,0-1.49-1.42-2.9-2.92-4.38-4.42l-8.13,7.05,1,.89,16.44,14.38c1.29,1.13,1.54,2.06.79,3s-1.77.84-3.12-.34q-5.85-5.1-11.7-10.23c-2.62-2.3-5.22-4.64-7.83-7Zm115.21,1-8.3-7.23c-1.42,1.47-2.75,2.94-4.17,4.3s-2.09,1.22-3.41,0a42.48,42.48,0,0,1-7.6-8.67,9.86,9.86,0,0,1-1.18-9,1.23,1.23,0,0,0-.26-1.09c-3.14-2.78-6.32-5.53-9.6-8.38-.35.31-.7.61-1,.91q-10.56,9.93-21.09,19.87a2.2,2.2,0,0,0-.72,1.35c-.06,3.07,0,6.15,0,9.23a5.31,5.31,0,0,0,.09.7h1.28c4.83,0,9.66,0,14.49,0a4.77,4.77,0,0,1,3.1,1c5.89,4.47,11.82,8.89,17.74,13.33l1,.75Zm-27.28,15.78c-4.29-3.22-8.58-6.46-12.9-9.64a3.22,3.22,0,0,0-1.8-.59q-7.71-.07-15.42,0a2.22,2.22,0,0,0-1.49.63q-9.47,10.72-18.86,21.51c-.13.14-.24.3-.46.59l22.82,20,33-28.76Zm-20-57c-2.18,2.2-4.25,4.36-6.38,6.44-1.35,1.3-2,1.3-3.39,0-2.14-2.08-4.21-4.24-6.4-6.46L98.93,104.19c.4.25.68.44,1,.6,7.14,4,14.28,7.92,21.4,11.91a1.19,1.19,0,0,0,1.69-.15c7-6.62,14-13.19,21-19.78.12-.11.22-.22.45-.47Zm-43.12,28a6.24,6.24,0,0,0,.1-7.9,7.19,7.19,0,0,0-7.71-3.18,7.35,7.35,0,0,0-5.94,5.6,5.81,5.81,0,0,0,.71,4.7,37.6,37.6,0,0,0,6.87,8.1C87.32,120.33,89.35,118,91.23,115.52ZM174,115.1a6.3,6.3,0,0,0,0-7.24A7.21,7.21,0,0,0,167,104.3a7.41,7.41,0,0,0-7.08,7.29,6.65,6.65,0,0,0,.82,3,32,32,0,0,0,6.72,8.07A38.9,38.9,0,0,0,174,115.1ZM132.5,83.53a6.51,6.51,0,0,0-.77-8.79,7.64,7.64,0,0,0-9.22-1.33c-2.8,1.58-5.34,5.86-2.67,9.91A42.18,42.18,0,0,0,126.49,91C128.59,88.41,130.73,86.1,132.5,83.53Z"/><path class="cls-3" d="M136,149.53a9.71,9.71,0,0,1-.36,10.7,41.78,41.78,0,0,1-8,9,1.67,1.67,0,0,1-2.68-.12,89,89,0,0,1-6.77-7.38,14.29,14.29,0,0,1-2.74-5.7c-1.2-6.19,4.31-12.19,11.76-12.2A10.54,10.54,0,0,1,136,149.53Zm-3.19,8.66c3-4.52-.62-10.08-5.32-10.75a7.51,7.51,0,0,0-8.69,6.89,5.86,5.86,0,0,0,.59,2.91c1.66,3.31,4.22,5.91,6.92,8.49A41.77,41.77,0,0,0,132.76,158.19Z"/><path class="cls-3" d="M85.1,117.35a5.47,5.47,0,0,1-5.54-5.44,5.49,5.49,0,1,1,11-.07A5.43,5.43,0,0,1,85.1,117.35ZM87,111.79a2,2,0,0,0-2-1.9,2,2,0,0,0-2,2,2,2,0,0,0,2.05,1.92A1.93,1.93,0,0,0,87,111.79Z"/><path class="cls-3" d="M167.45,106.36a5.57,5.57,0,0,1,5.54,5.48,5.49,5.49,0,1,1-5.54-5.48Zm0,7.47a2,2,0,0,0,2-2,2,2,0,0,0-1.91-2,2,2,0,0,0-2,1.92A1.93,1.93,0,0,0,167.46,113.83Z"/><path class="cls-3" d="M120.78,80.11a5.5,5.5,0,1,1,5.57,5.41A5.52,5.52,0,0,1,120.78,80.11Zm3.53,0a2,2,0,1,0,1.93-2A2,2,0,0,0,124.31,80.1Z"/><path class="cls-3" d="M131.77,155a5.5,5.5,0,1,1-11,0,5.5,5.5,0,0,1,11,0Zm-7.46,0a2,2,0,0,0,2,2,2,2,0,0,0,1.92-1.95,2,2,0,1,0-3.93,0Z"/></svg>