<svg id="Layer_1" data-name="Layer 1" xmlns="http://www.w3.org/2000/svg" viewBox="0 0 654 250"><defs><style>.cls-1{fill:none;stroke:#f26e25;stroke-miterlimit:10;stroke-width:2.61px;}.cls-2{fill:#f26e25;}.cls-3{opacity:0.15;}.cls-4{fill:#fff;}</style></defs><polygon class="cls-1" points="12.15 125 126.14 238.98 528.45 238.98 642.43 125 528.45 11.02 126.14 11.02 12.15 125"/><path class="cls-2" d="M369.91,51h-4.68V48.22H378V51h-4.68V62.84h-3.38Z"/><path class="cls-2" d="M393.19,48.22V62.84h-3.38v-6h-6.64v6h-3.39V48.22h3.39V54h6.64V48.22Z"/><path class="cls-2" d="M408,60.12v2.72H396.66V48.22h11v2.72H400v3.17h6.78v2.63H400v3.38Z"/><path class="cls-2" d="M418.19,61.36a6.7,6.7,0,0,1-1.74-5V48.22h3.38v8.06q0,3.93,3.26,3.93a3.06,3.06,0,0,0,2.42-1,4.44,4.44,0,0,0,.84-3V48.22h3.34v8.19a6.7,6.7,0,0,1-1.75,5,7.73,7.73,0,0,1-9.75,0Z"/><path class="cls-2" d="M446.43,48.22V62.84h-2.78L436.37,54v8.88H433V48.22h2.79l7.27,8.88V48.22Z"/><path class="cls-2" d="M467,63.09l-1.76-1.63a8.17,8.17,0,0,1-7.74,1.12,4.71,4.71,0,0,1-2-1.43,3.3,3.3,0,0,1-.72-2.07,3.9,3.9,0,0,1,.77-2.39,7.33,7.33,0,0,1,2.45-2,6.32,6.32,0,0,1-1.15-1.56,3.46,3.46,0,0,1-.35-1.53,3.18,3.18,0,0,1,.56-1.88,3.65,3.65,0,0,1,1.6-1.27,5.92,5.92,0,0,1,2.39-.45,4.83,4.83,0,0,1,3.05.91,3,3,0,0,1,1.14,2.46,3.18,3.18,0,0,1-.67,2,6.92,6.92,0,0,1-2.19,1.69l2.68,2.49a9.68,9.68,0,0,0,.73-2.28l2.61.81a9.51,9.51,0,0,1-1.34,3.32L468.81,61Zm-3.68-3.41-3.52-3.29a4.5,4.5,0,0,0-1.4,1.1,2,2,0,0,0-.42,1.23,1.54,1.54,0,0,0,.71,1.32,3.26,3.26,0,0,0,1.9.5A4.55,4.55,0,0,0,463.36,59.68Zm-3.43-9.06a1.21,1.21,0,0,0-.43,1,1.62,1.62,0,0,0,.23.83,5.32,5.32,0,0,0,.9,1,5.68,5.68,0,0,0,1.48-1,1.39,1.39,0,0,0,.42-1,1.13,1.13,0,0,0-.38-.88,1.55,1.55,0,0,0-1.06-.33A1.68,1.68,0,0,0,459.93,50.62Z"/><path class="cls-2" d="M265.36,76h-4.68V73.28h12.74V76h-4.68V87.89h-3.38Z"/><path class="cls-2" d="M288.64,73.28V87.89h-3.39v-6h-6.64v6h-3.38V73.28h3.38V79h6.64V73.28Z"/><path class="cls-2" d="M303.42,85.18v2.71H292.1V73.28h11V76h-7.69v3.18h6.79V81.8h-6.79v3.38Z"/><path class="cls-2" d="M325.32,87.89l0-8.77L321,86.35h-1.52l-4.28-7v8.58H312V73.28h2.8l5.47,9.08,5.39-9.08h2.77l.05,14.61Z"/><path class="cls-2" d="M332,73.28h3.38V87.89H332Z"/><path class="cls-2" d="M352.21,73.28V87.89h-2.77L342.15,79v8.87h-3.34V73.28h2.8l7.26,8.87V73.28Z"/><path class="cls-2" d="M355.68,73.28h3.38V87.89h-3.38Z"/><path class="cls-2" d="M364,87.67a7.77,7.77,0,0,1-2.6-1.22l1.15-2.54a8,8,0,0,0,2.23,1.1,8.35,8.35,0,0,0,2.59.42,4.09,4.09,0,0,0,2.13-.43,1.28,1.28,0,0,0,.69-1.14,1.09,1.09,0,0,0-.41-.86,3.11,3.11,0,0,0-1-.56c-.43-.14-1-.29-1.72-.46a21.79,21.79,0,0,1-2.74-.79,4.46,4.46,0,0,1-1.83-1.27,3.5,3.5,0,0,1-.76-2.34,4.07,4.07,0,0,1,.69-2.31,4.66,4.66,0,0,1,2.08-1.64,8.5,8.5,0,0,1,3.39-.6,11.42,11.42,0,0,1,2.74.33,8,8,0,0,1,2.34,1l-1.05,2.57a8.1,8.1,0,0,0-4.05-1.15,3.76,3.76,0,0,0-2.1.46,1.41,1.41,0,0,0-.68,1.21,1.18,1.18,0,0,0,.79,1.12,12.79,12.79,0,0,0,2.39.72,24,24,0,0,1,2.73.79,4.53,4.53,0,0,1,1.83,1.26,3.33,3.33,0,0,1,.76,2.31,4,4,0,0,1-.7,2.29,4.67,4.67,0,0,1-2.1,1.64,8.58,8.58,0,0,1-3.4.6A11.69,11.69,0,0,1,364,87.67Z"/><path class="cls-2" d="M378.67,76H374V73.28h12.74V76h-4.68V87.89h-3.38Z"/><path class="cls-2" d="M397.86,87.89,395,83.82h-3.11v4.07h-3.39V73.28h6.33a8.14,8.14,0,0,1,3.37.64,4.87,4.87,0,0,1,3,4.66,4.79,4.79,0,0,1-3,4.62l3.28,4.69ZM397,76.69a3.55,3.55,0,0,0-2.32-.66h-2.75v5.1h2.75a3.49,3.49,0,0,0,2.32-.67,2.64,2.64,0,0,0,0-3.77Z"/><path class="cls-2" d="M410.7,82.71v5.18h-3.39V82.67l-5.65-9.39h3.59l3.9,6.49,3.91-6.49h3.32Z"/><path class="cls-2" d="M426.68,87.16a7.22,7.22,0,0,1-2.86-2.7,7.74,7.74,0,0,1,0-7.75,7.22,7.22,0,0,1,2.86-2.7,9,9,0,0,1,8.19,0,7.22,7.22,0,0,1,2.86,2.7,7.68,7.68,0,0,1,0,7.75,7.22,7.22,0,0,1-2.86,2.7,9,9,0,0,1-8.19,0Zm6.44-2.49A4.29,4.29,0,0,0,434.76,83a5.28,5.28,0,0,0,0-4.85,4.29,4.29,0,0,0-1.64-1.66,4.94,4.94,0,0,0-4.68,0,4.36,4.36,0,0,0-1.64,1.66,5.28,5.28,0,0,0,0,4.85,4.36,4.36,0,0,0,1.64,1.66,4.94,4.94,0,0,0,4.68,0Z"/><path class="cls-2" d="M444.71,76v3.86h6.76v2.72h-6.76v5.32h-3.38V73.28h11V76Z"/><path class="cls-2" d="M474,73.28V87.89H471.2L463.92,79v8.87h-3.34V73.28h2.79l7.27,8.87V73.28Z"/><path class="cls-2" d="M487.07,84.76h-6.78L479,87.89h-3.46L482,73.28h3.34l6.54,14.61h-3.55ZM486,82.19l-2.32-5.59-2.32,5.59Z"/><path class="cls-2" d="M495.74,76h-4.68V73.28H503.8V76h-4.68V87.89h-3.38Z"/><path class="cls-2" d="M505.61,73.28H509V87.89h-3.39Z"/><path class="cls-2" d="M515.44,87.16a7.16,7.16,0,0,1-2.86-2.7,7.74,7.74,0,0,1,0-7.75,7.16,7.16,0,0,1,2.86-2.7,9,9,0,0,1,8.19,0,7.45,7.45,0,0,1,0,13.15,9,9,0,0,1-8.19,0Zm6.44-2.49A4.36,4.36,0,0,0,523.52,83a5.28,5.28,0,0,0,0-4.85,4.36,4.36,0,0,0-1.64-1.66,4.94,4.94,0,0,0-4.68,0,4.29,4.29,0,0,0-1.64,1.66,5.28,5.28,0,0,0,0,4.85,4.29,4.29,0,0,0,1.64,1.66,4.94,4.94,0,0,0,4.68,0Z"/><path class="cls-2" d="M543.49,73.28V87.89h-2.78L533.42,79v8.87h-3.34V73.28h2.8l7.27,8.87V73.28Z"/><path class="cls-2" d="M556.58,84.76h-6.79l-1.29,3.13H545l6.52-14.61h3.34l6.53,14.61h-3.55Zm-1.07-2.57L553.2,76.6l-2.32,5.59Z"/><path class="cls-2" d="M563,73.28h3.38V85.14h7.33v2.75H563Z"/><path class="cls-2" d="M272.76,98.33h6.64a9.44,9.44,0,0,1,4.21.91,6.82,6.82,0,0,1,2.83,2.56,7.74,7.74,0,0,1,0,7.68,6.82,6.82,0,0,1-2.83,2.56,9.31,9.31,0,0,1-4.21.91h-6.64Zm6.47,11.84a4.94,4.94,0,0,0,3.5-1.22,4.86,4.86,0,0,0,0-6.62,4.94,4.94,0,0,0-3.5-1.22h-3.09v9.06Z"/><path class="cls-2" d="M301.32,110.23V113H290V98.33h11.05v2.72h-7.68v3.17h6.78v2.63h-6.78v3.38Z"/><path class="cls-2" d="M317.86,98.33,311.53,113h-3.34l-6.31-14.62h3.66L310,108.77l4.51-10.44Z"/><path class="cls-2" d="M330.39,110.23V113H319.07V98.33h11v2.72h-7.68v3.17h6.79v2.63h-6.79v3.38Z"/><path class="cls-2" d="M333.08,98.33h3.38v11.86h7.33V113H333.08Z"/><path class="cls-2" d="M348.41,112.22a7.46,7.46,0,0,1,0-13.16,9.07,9.07,0,0,1,8.2,0,7.46,7.46,0,0,1,2.86,2.71,7.72,7.72,0,0,1,0,7.74,7.46,7.46,0,0,1-2.86,2.71,9.07,9.07,0,0,1-8.2,0Zm6.45-2.5a4.2,4.2,0,0,0,1.63-1.66,5.18,5.18,0,0,0,0-4.84,4.26,4.26,0,0,0-1.63-1.66,4.63,4.63,0,0,0-2.34-.6,4.58,4.58,0,0,0-2.34.6,4.29,4.29,0,0,0-1.64,1.66,5.18,5.18,0,0,0,0,4.84,4.22,4.22,0,0,0,1.64,1.66,4.58,4.58,0,0,0,2.34.6A4.63,4.63,0,0,0,354.86,109.72Z"/><path class="cls-2" d="M372.76,99a5,5,0,0,1,2.2,1.84,5.51,5.51,0,0,1,0,5.62,4.88,4.88,0,0,1-2.2,1.84,8.14,8.14,0,0,1-3.37.64h-2.95v4h-3.38V98.33h6.33A8.14,8.14,0,0,1,372.76,99Zm-1.24,6.52a2.62,2.62,0,0,0,0-3.75,3.56,3.56,0,0,0-2.32-.66h-2.76v5.07h2.76A3.56,3.56,0,0,0,371.52,105.5Z"/><path class="cls-2" d="M391.44,113l0-8.77-4.3,7.22h-1.52l-4.28-7V113h-3.17V98.33h2.79l5.47,9.08,5.39-9.08h2.78l0,14.62Z"/><path class="cls-2" d="M409.39,110.23V113H398.07V98.33h11.05v2.72h-7.68v3.17h6.78v2.63h-6.78v3.38Z"/><path class="cls-2" d="M425.49,98.33V113h-2.78l-7.28-8.88V113h-3.35V98.33h2.8l7.27,8.88V98.33Z"/><path class="cls-2" d="M432,101.09h-4.67V98.33H440v2.76h-4.67V113H432Z"/><path class="cls-2" d="M457.47,99a5,5,0,0,1,2.2,1.84,5.51,5.51,0,0,1,0,5.62,4.94,4.94,0,0,1-2.2,1.84,8.19,8.19,0,0,1-3.38.64h-2.94v4h-3.38V98.33h6.32A8.18,8.18,0,0,1,457.47,99Zm-1.25,6.52a2.6,2.6,0,0,0,0-3.75,3.53,3.53,0,0,0-2.31-.66h-2.76v5.07h2.76A3.53,3.53,0,0,0,456.22,105.5Z"/><path class="cls-2" d="M462.84,98.33h3.38v11.86h7.33V113H462.84Z"/><path class="cls-2" d="M485.2,109.82h-6.78l-1.3,3.13h-3.46l6.51-14.62h3.34L490.05,113H486.5Zm-1.06-2.57-2.32-5.6-2.32,5.6Z"/><path class="cls-2" d="M505,98.33V113H502.2l-7.29-8.88V113h-3.34V98.33h2.8l7.27,8.88V98.33Z"/><path class="cls-2" d="M521.85,98.33V113h-2.78l-7.29-8.88V113h-3.34V98.33h2.8l7.27,8.88V98.33Z"/><path class="cls-2" d="M525.31,98.33h3.38V113h-3.38Z"/><path class="cls-2" d="M545.57,98.33V113h-2.78l-7.29-8.88V113h-3.34V98.33H535l7.26,8.88V98.33Z"/><path class="cls-2" d="M558.91,105.41H562v5.93a8.83,8.83,0,0,1-2.76,1.38,10.66,10.66,0,0,1-3.15.48,8.49,8.49,0,0,1-4.09-1,7.13,7.13,0,0,1-2.85-2.7,7.8,7.8,0,0,1,0-7.78,7.12,7.12,0,0,1,2.87-2.7,8.77,8.77,0,0,1,4.13-1,9.12,9.12,0,0,1,3.49.65,6.94,6.94,0,0,1,2.63,1.88l-2.17,2a5,5,0,0,0-3.78-1.65,5.2,5.2,0,0,0-2.49.59,4.26,4.26,0,0,0-1.69,1.65,4.88,4.88,0,0,0-.6,2.44,4.83,4.83,0,0,0,.6,2.42,4.32,4.32,0,0,0,1.68,1.66,5,5,0,0,0,2.46.6,5.47,5.47,0,0,0,2.63-.63Z"/><path d="M321.12,150.36a1.91,1.91,0,0,0,1.31-.5,1.59,1.59,0,0,0,.57-1.23h1.47l0,.05a2.55,2.55,0,0,1-1,2,3.8,3.8,0,0,1-5.3-.38,5,5,0,0,1-1-3.2v-.35a4.92,4.92,0,0,1,1-3.18,3.49,3.49,0,0,1,2.91-1.29,3.35,3.35,0,0,1,2.45.93,3,3,0,0,1,.93,2.28l0,.05H323a2,2,0,0,0-.54-1.4,1.75,1.75,0,0,0-1.34-.58,1.88,1.88,0,0,0-1.75.94,4.31,4.31,0,0,0-.55,2.25v.35a4.47,4.47,0,0,0,.54,2.28A1.88,1.88,0,0,0,321.12,150.36Z"/><path d="M326.05,146.9a4.93,4.93,0,0,1,1.08-3.28,3.61,3.61,0,0,1,2.93-1.29,3.65,3.65,0,0,1,2.94,1.28,4.94,4.94,0,0,1,1.08,3.29v.18a4.91,4.91,0,0,1-1.08,3.28,4,4,0,0,1-5.86,0,4.84,4.84,0,0,1-1.09-3.27Zm1.64.18a4.25,4.25,0,0,0,.6,2.35,2.16,2.16,0,0,0,3.55,0,4.17,4.17,0,0,0,.61-2.35v-.18a4.19,4.19,0,0,0-.61-2.35,2,2,0,0,0-1.78-.94,2,2,0,0,0-1.77.94,4.27,4.27,0,0,0-.6,2.35Z"/><path d="M341.16,147h-4.88v-1.27h4.88Z"/><path d="M345.49,151.46h-1.63V138.54h1.63Z"/><path d="M353.51,151.46c-.06-.27-.1-.51-.13-.72a6.2,6.2,0,0,1-.06-.62,3.76,3.76,0,0,1-1.19,1.08,3.36,3.36,0,0,1-3.71-.28,2.64,2.64,0,0,1-.73-2,2.34,2.34,0,0,1,1-2,4.87,4.87,0,0,1,2.82-.72h1.77v-.89a1.66,1.66,0,0,0-.48-1.25,1.91,1.91,0,0,0-1.36-.46,2,2,0,0,0-1.28.4,1.2,1.2,0,0,0-.49,1h-1.55v0a2.13,2.13,0,0,1,.91-1.79,3.81,3.81,0,0,1,2.52-.81,3.69,3.69,0,0,1,2.45.78,2.73,2.73,0,0,1,.93,2.23v4.31a7.06,7.06,0,0,0,.05.93,4.44,4.44,0,0,0,.18.88Zm-2.71-1.19a3,3,0,0,0,1.6-.46,2.14,2.14,0,0,0,.92-1v-1.46h-1.83a2.36,2.36,0,0,0-1.58.5,1.49,1.49,0,0,0-.59,1.16,1.23,1.23,0,0,0,.38.95A1.54,1.54,0,0,0,350.8,150.27Z"/><path d="M363,150.13a3.14,3.14,0,0,1-1.09,1.11,3,3,0,0,1-1.53.39,2.9,2.9,0,0,1-2.29-.93,4.41,4.41,0,0,1-.82-2.92V142.5h1.63v5.3a3.27,3.27,0,0,0,.43,2,1.56,1.56,0,0,0,1.31.54,2.74,2.74,0,0,0,1.44-.35,2.28,2.28,0,0,0,.86-1V142.5h1.63v9h-1.47Z"/><path d="M368.42,142.5l.12,1.33a3.39,3.39,0,0,1,1.12-1.11,3,3,0,0,1,1.54-.39,2.9,2.9,0,0,1,2.24.85,3.73,3.73,0,0,1,.8,2.62v5.66h-1.63v-5.63a2.44,2.44,0,0,0-.47-1.68,1.88,1.88,0,0,0-1.43-.49,2.55,2.55,0,0,0-1.28.3,2.12,2.12,0,0,0-.83.85v6.65H367v-9Z"/><path d="M380.17,150.36a2,2,0,0,0,1.32-.5,1.62,1.62,0,0,0,.56-1.23h1.48l0,.05a2.57,2.57,0,0,1-1,2,3.81,3.81,0,0,1-5.31-.38,5,5,0,0,1-1-3.2v-.35a4.92,4.92,0,0,1,1-3.18,3.52,3.52,0,0,1,2.91-1.29,3.39,3.39,0,0,1,2.46.93,3,3,0,0,1,.92,2.28l0,.05h-1.48a2,2,0,0,0-.53-1.4,1.79,1.79,0,0,0-1.35-.58,1.89,1.89,0,0,0-1.75.94,4.31,4.31,0,0,0-.55,2.25v.35a4.47,4.47,0,0,0,.54,2.28A1.88,1.88,0,0,0,380.17,150.36Z"/><path d="M387.12,143.7a3.33,3.33,0,0,1,1.14-1,3.13,3.13,0,0,1,1.49-.36,2.93,2.93,0,0,1,2.24.86,3.82,3.82,0,0,1,.8,2.65v5.62h-1.64v-5.63a2.38,2.38,0,0,0-.47-1.64,1.79,1.79,0,0,0-1.42-.53,2.67,2.67,0,0,0-1.27.28,2.31,2.31,0,0,0-.87.8v6.72h-1.63V138.54h1.63Z"/><path d="M398.84,151.63a3.79,3.79,0,0,1-3-1.23,4.76,4.76,0,0,1-1.08-3.25v-.36a4.69,4.69,0,0,1,1.11-3.2,3.51,3.51,0,0,1,2.72-1.26,3.25,3.25,0,0,1,2.7,1.12,4.59,4.59,0,0,1,.9,3v.86h-5.73l0,.05a3.68,3.68,0,0,0,.6,2.19,2.08,2.08,0,0,0,1.82.84,4.1,4.1,0,0,0,1.46-.24,3.3,3.3,0,0,0,1.07-.65l.64,1.06a3.92,3.92,0,0,1-1.27.78A4.94,4.94,0,0,1,398.84,151.63Zm-.26-8a1.78,1.78,0,0,0-1.41.66,3.11,3.11,0,0,0-.68,1.69l0,0h4v-.13a2.64,2.64,0,0,0-.48-1.62A1.76,1.76,0,0,0,398.58,143.61Z"/><path d="M403.64,147.14a6,6,0,0,1,.92-3.48,3,3,0,0,1,2.59-1.33,3.3,3.3,0,0,1,1.4.29,2.8,2.8,0,0,1,1,.85v-4.93h1.64v12.92H410l-.25-1.14a2.9,2.9,0,0,1-1.09,1,3.25,3.25,0,0,1-1.5.33,3.07,3.07,0,0,1-2.57-1.19,5,5,0,0,1-.92-3.12Zm1.63.18a3.79,3.79,0,0,0,.55,2.17,1.94,1.94,0,0,0,1.73.82,2.16,2.16,0,0,0,1.22-.33,2.47,2.47,0,0,0,.81-.93v-4.18a2.58,2.58,0,0,0-.81-.89,2.25,2.25,0,0,0-1.21-.32,1.85,1.85,0,0,0-1.73,1,5,5,0,0,0-.56,2.51Z"/><path d="M423.38,151.46c-.06-.27-.1-.51-.13-.72a6.2,6.2,0,0,1-.06-.62A3.84,3.84,0,0,1,422,151.2a3.05,3.05,0,0,1-1.58.43,3,3,0,0,1-2.14-.71,2.68,2.68,0,0,1-.73-2,2.34,2.34,0,0,1,1-2,4.87,4.87,0,0,1,2.82-.72h1.77v-.89a1.66,1.66,0,0,0-.48-1.25,1.9,1.9,0,0,0-1.35-.46,2,2,0,0,0-1.29.4,1.23,1.23,0,0,0-.49,1H418v0a2.13,2.13,0,0,1,.91-1.79,3.81,3.81,0,0,1,2.52-.81,3.69,3.69,0,0,1,2.45.78,2.73,2.73,0,0,1,.93,2.23v4.31a7.06,7.06,0,0,0,.05.93,4.44,4.44,0,0,0,.18.88Zm-2.71-1.19a3,3,0,0,0,1.6-.46,2.14,2.14,0,0,0,.92-1v-1.46h-1.83a2.31,2.31,0,0,0-1.57.5,1.47,1.47,0,0,0-.6,1.16,1.23,1.23,0,0,0,.38.95A1.54,1.54,0,0,0,420.67,150.27Z"/><path d="M428.65,142.5l.12,1.33a3.39,3.39,0,0,1,1.12-1.11,3,3,0,0,1,1.54-.39,2.91,2.91,0,0,1,2.24.85,3.73,3.73,0,0,1,.8,2.62v5.66h-1.63v-5.63a2.44,2.44,0,0,0-.47-1.68,1.88,1.88,0,0,0-1.43-.49,2.55,2.55,0,0,0-1.28.3,2.12,2.12,0,0,0-.83.85v6.65H427.2v-9Z"/><path d="M443.08,151.46h-1.64V139.4h1.64Z"/><path d="M447.31,142.5l.11,1.33a3.42,3.42,0,0,1,1.13-1.11,3,3,0,0,1,1.53-.39,2.92,2.92,0,0,1,2.25.85,3.73,3.73,0,0,1,.79,2.62v5.66h-1.63v-5.63a2.44,2.44,0,0,0-.47-1.68,1.88,1.88,0,0,0-1.43-.49,2.55,2.55,0,0,0-1.28.3,2.19,2.19,0,0,0-.83.85v6.65h-1.63v-9Z"/><path d="M457.76,140.33v2.17h1.7v1.21h-1.7v5.44a1.22,1.22,0,0,0,.26.88.93.93,0,0,0,.69.26,1.27,1.27,0,0,0,.32,0l.29-.07.22,1.11a1.51,1.51,0,0,1-.54.25,2.8,2.8,0,0,1-.7.09,2.11,2.11,0,0,1-1.58-.6,2.61,2.61,0,0,1-.59-1.88v-5.44H454.7V142.5h1.43v-2.17Z"/><path d="M464.92,151.63a3.79,3.79,0,0,1-3-1.23,4.76,4.76,0,0,1-1.08-3.25v-.36a4.69,4.69,0,0,1,1.11-3.2,3.49,3.49,0,0,1,2.72-1.26,3.25,3.25,0,0,1,2.7,1.12,4.59,4.59,0,0,1,.9,3v.86h-5.74l0,.05a3.68,3.68,0,0,0,.6,2.19,2.07,2.07,0,0,0,1.82.84,4,4,0,0,0,1.45-.24,3.1,3.1,0,0,0,1.07-.65l.64,1.06a3.82,3.82,0,0,1-1.27.78A4.85,4.85,0,0,1,464.92,151.63Zm-.26-8a1.76,1.76,0,0,0-1.41.66,3.11,3.11,0,0,0-.68,1.69v0h4v-.13a2.64,2.64,0,0,0-.48-1.62A1.74,1.74,0,0,0,464.66,143.61Z"/><path d="M469.8,147.14a6,6,0,0,1,.92-3.48,3,3,0,0,1,2.58-1.33,3.25,3.25,0,0,1,1.5.34,3.11,3.11,0,0,1,1.09,1l.19-1.16h1.3v9a3.42,3.42,0,0,1-1,2.65,4.14,4.14,0,0,1-2.89.92,6.48,6.48,0,0,1-2.72-.66l.25-1.27a5.05,5.05,0,0,0,1.14.4,6,6,0,0,0,1.32.15,2.38,2.38,0,0,0,1.73-.54,2.25,2.25,0,0,0,.54-1.65v-1a2.77,2.77,0,0,1-1.05.85,3.19,3.19,0,0,1-1.42.29,3,3,0,0,1-2.56-1.19,5,5,0,0,1-.92-3.12Zm1.63.18a3.82,3.82,0,0,0,.55,2.17,2,2,0,0,0,1.72.82,2.1,2.1,0,0,0,1.23-.34,2.48,2.48,0,0,0,.82-.95V144.9a2.58,2.58,0,0,0-.82-.91,2.15,2.15,0,0,0-1.21-.33,1.85,1.85,0,0,0-1.73,1,5,5,0,0,0-.56,2.51Z"/><path d="M484,143.94l-.84-.05a1.91,1.91,0,0,0-1.09.3,2.06,2.06,0,0,0-.68.87v6.4h-1.63v-9h1.46l.15,1.31a3.17,3.17,0,0,1,.94-1.09,2.23,2.23,0,0,1,1.29-.39,2,2,0,0,1,.35,0l.27.06Z"/><path d="M491.18,151.46c-.06-.27-.1-.51-.13-.72a6.2,6.2,0,0,1-.06-.62,3.84,3.84,0,0,1-1.18,1.08,3.05,3.05,0,0,1-1.58.43,3,3,0,0,1-2.14-.71,2.68,2.68,0,0,1-.73-2,2.34,2.34,0,0,1,1-2,4.87,4.87,0,0,1,2.82-.72H491v-.89a1.66,1.66,0,0,0-.48-1.25,1.9,1.9,0,0,0-1.35-.46,2,2,0,0,0-1.29.4,1.23,1.23,0,0,0-.49,1h-1.55v0a2.13,2.13,0,0,1,.91-1.79,3.81,3.81,0,0,1,2.52-.81,3.69,3.69,0,0,1,2.45.78,2.73,2.73,0,0,1,.93,2.23v4.31a7.06,7.06,0,0,0,.05.93,4.44,4.44,0,0,0,.18.88Zm-2.71-1.19a3,3,0,0,0,1.6-.46,2.14,2.14,0,0,0,.92-1v-1.46h-1.83a2.31,2.31,0,0,0-1.57.5A1.47,1.47,0,0,0,487,149a1.23,1.23,0,0,0,.38.95A1.54,1.54,0,0,0,488.47,150.27Z"/><path d="M497.26,140.33v2.17H499v1.21h-1.7v5.44a1.17,1.17,0,0,0,.27.88.9.9,0,0,0,.69.26,1.2,1.2,0,0,0,.31,0l.29-.07.23,1.11a1.7,1.7,0,0,1-.54.25,2.88,2.88,0,0,1-.71.09,2.11,2.11,0,0,1-1.58-.6,2.61,2.61,0,0,1-.59-1.88v-5.44h-1.42V142.5h1.42v-2.17Z"/><path d="M504.42,151.63a3.79,3.79,0,0,1-3-1.23,4.76,4.76,0,0,1-1.08-3.25v-.36a4.69,4.69,0,0,1,1.11-3.2,3.51,3.51,0,0,1,2.72-1.26,3.25,3.25,0,0,1,2.7,1.12,4.59,4.59,0,0,1,.9,3v.86H502l0,.05a3.68,3.68,0,0,0,.6,2.19,2.08,2.08,0,0,0,1.82.84,4.1,4.1,0,0,0,1.46-.24,3.3,3.3,0,0,0,1.07-.65l.64,1.06a3.92,3.92,0,0,1-1.27.78A4.94,4.94,0,0,1,504.42,151.63Zm-.26-8a1.79,1.79,0,0,0-1.41.66,3.11,3.11,0,0,0-.68,1.69l0,0h4v-.13a2.64,2.64,0,0,0-.48-1.62A1.76,1.76,0,0,0,504.16,143.61Z"/><path d="M509.22,147.14a6,6,0,0,1,.92-3.48,3,3,0,0,1,2.59-1.33,3.3,3.3,0,0,1,1.4.29,2.92,2.92,0,0,1,1,.85v-4.93h1.63v12.92h-1.25l-.25-1.14a2.83,2.83,0,0,1-1.09,1,3.25,3.25,0,0,1-1.5.33,3,3,0,0,1-2.56-1.19,4.91,4.91,0,0,1-.93-3.12Zm1.63.18a3.79,3.79,0,0,0,.56,2.17,1.92,1.92,0,0,0,1.72.82,2.16,2.16,0,0,0,1.22-.33,2.4,2.4,0,0,0,.82-.93v-4.18a2.61,2.61,0,0,0-.82-.89,2.23,2.23,0,0,0-1.21-.32,1.85,1.85,0,0,0-1.73,1,5,5,0,0,0-.56,2.51Z"/><path d="M311.49,171.82h-1.63l-5.81-9.21H304v9.2h-1.63V159.76H304l5.81,9.2.05,0v-9.18h1.63Z"/><path d="M319.6,171.82c-.06-.27-.1-.51-.13-.72a4.46,4.46,0,0,1-.05-.63,3.78,3.78,0,0,1-1.19,1.09,3.05,3.05,0,0,1-1.58.43,2.9,2.9,0,0,1-2.13-.72,2.61,2.61,0,0,1-.74-2,2.32,2.32,0,0,1,1-2,4.91,4.91,0,0,1,2.82-.73h1.78v-.88a1.62,1.62,0,0,0-.49-1.25,1.9,1.9,0,0,0-1.35-.46,2,2,0,0,0-1.29.4,1.2,1.2,0,0,0-.49.95l-1.55,0v-.05a2.13,2.13,0,0,1,.91-1.79,3.81,3.81,0,0,1,2.52-.81,3.74,3.74,0,0,1,2.45.77,2.75,2.75,0,0,1,.93,2.24V170a7.06,7.06,0,0,0,.05.93,4.44,4.44,0,0,0,.18.88Zm-2.71-1.2a3,3,0,0,0,1.6-.45,2.24,2.24,0,0,0,.93-1v-1.45h-1.84a2.36,2.36,0,0,0-1.57.49,1.48,1.48,0,0,0-.6,1.17,1.25,1.25,0,0,0,.38.95A1.56,1.56,0,0,0,316.89,170.62Z"/><path d="M325.69,160.69v2.16h1.69v1.21h-1.69v5.45a1.17,1.17,0,0,0,.26.88.94.94,0,0,0,.69.26,1.2,1.2,0,0,0,.31,0,1.3,1.3,0,0,0,.29-.08l.23,1.12a1.6,1.6,0,0,1-.54.25,2.88,2.88,0,0,1-.71.09,2.11,2.11,0,0,1-1.58-.6,2.61,2.61,0,0,1-.59-1.88v-5.45h-1.42v-1.21h1.42v-2.16Z"/><path d="M330.9,160.56h-1.64v-1.67h1.64Zm0,11.26h-1.64v-9h1.64Z"/><path d="M333,167.25A4.91,4.91,0,0,1,334.1,164a3.61,3.61,0,0,1,2.93-1.29A3.65,3.65,0,0,1,340,164a4.93,4.93,0,0,1,1.08,3.28v.18a4.89,4.89,0,0,1-1.08,3.28A3.59,3.59,0,0,1,337,172a3.65,3.65,0,0,1-2.93-1.28,4.89,4.89,0,0,1-1.08-3.28Zm1.63.18a4.28,4.28,0,0,0,.6,2.36,2.17,2.17,0,0,0,3.55,0,4.2,4.2,0,0,0,.61-2.36v-.18a4.16,4.16,0,0,0-.61-2.34,2.15,2.15,0,0,0-3.55,0,4.24,4.24,0,0,0-.6,2.34Z"/><path d="M344.51,162.85l.11,1.34a3.21,3.21,0,0,1,1.12-1.11,3,3,0,0,1,1.54-.39,2.92,2.92,0,0,1,2.25.85,3.72,3.72,0,0,1,.79,2.62v5.66h-1.63v-5.63a2.43,2.43,0,0,0-.47-1.68,1.88,1.88,0,0,0-1.43-.5,2.45,2.45,0,0,0-1.28.31,2.16,2.16,0,0,0-.83.84v6.66h-1.63v-9Z"/><path d="M358.2,171.82c-.06-.27-.1-.51-.13-.72a4.46,4.46,0,0,1-.05-.63,3.78,3.78,0,0,1-1.19,1.09,3.05,3.05,0,0,1-1.58.43,2.9,2.9,0,0,1-2.13-.72,2.61,2.61,0,0,1-.74-2,2.32,2.32,0,0,1,1-2,4.91,4.91,0,0,1,2.82-.73H358v-.88a1.65,1.65,0,0,0-.48-1.25,1.94,1.94,0,0,0-1.36-.46,2,2,0,0,0-1.29.4,1.2,1.2,0,0,0-.49.95l-1.54,0,0-.05a2.16,2.16,0,0,1,.91-1.79,3.81,3.81,0,0,1,2.52-.81,3.74,3.74,0,0,1,2.45.77,2.75,2.75,0,0,1,.93,2.24V170a7.06,7.06,0,0,0,.05.93,4.44,4.44,0,0,0,.18.88Zm-2.71-1.2a3,3,0,0,0,1.6-.45,2.24,2.24,0,0,0,.93-1v-1.45h-1.84a2.36,2.36,0,0,0-1.57.49,1.48,1.48,0,0,0-.6,1.17,1.25,1.25,0,0,0,.38.95A1.56,1.56,0,0,0,355.49,170.62Z"/><path d="M363.78,171.82h-1.63V158.89h1.63Z"/><path d="M377.45,166.48h-5.09v5.34h-1.63V159.76h7.56V161h-5.93v4.16h5.09Z"/><path d="M381.63,160.56H380v-1.67h1.63Zm0,11.26H380v-9h1.63Z"/><path d="M385.6,162.85l.12,1.34a3.13,3.13,0,0,1,1.12-1.11,3,3,0,0,1,1.53-.39,2.92,2.92,0,0,1,2.25.85,3.72,3.72,0,0,1,.79,2.62v5.66h-1.63v-5.63a2.38,2.38,0,0,0-.47-1.68,1.86,1.86,0,0,0-1.42-.5,2.43,2.43,0,0,0-1.28.31,2.26,2.26,0,0,0-.84.84v6.66h-1.63v-9Z"/><path d="M399.29,171.82c-.05-.27-.1-.51-.13-.72s0-.42-.05-.63a3.68,3.68,0,0,1-1.19,1.09,3,3,0,0,1-1.58.43,2.92,2.92,0,0,1-2.13-.72,2.6,2.6,0,0,1-.73-2,2.29,2.29,0,0,1,1-2,4.86,4.86,0,0,1,2.82-.73h1.77v-.88a1.65,1.65,0,0,0-.48-1.25,2.24,2.24,0,0,0-2.64-.06,1.17,1.17,0,0,0-.49.95l-1.55,0,0-.05a2.15,2.15,0,0,1,.92-1.79,3.8,3.8,0,0,1,2.51-.81,3.71,3.71,0,0,1,2.45.77,2.75,2.75,0,0,1,.93,2.24V170c0,.32,0,.63.05.93a5.28,5.28,0,0,0,.18.88Zm-2.71-1.2a2.93,2.93,0,0,0,1.6-.45,2.13,2.13,0,0,0,.93-1v-1.45h-1.83a2.39,2.39,0,0,0-1.58.49,1.5,1.5,0,0,0-.59,1.17,1.24,1.24,0,0,0,.37.95A1.58,1.58,0,0,0,396.58,170.62Z"/><path d="M404.57,162.85l.11,1.34a3.24,3.24,0,0,1,1.13-1.11,3,3,0,0,1,1.53-.39,2.92,2.92,0,0,1,2.25.85,3.72,3.72,0,0,1,.79,2.62v5.66h-1.63v-5.63a2.38,2.38,0,0,0-.47-1.68,1.87,1.87,0,0,0-1.43-.5,2.48,2.48,0,0,0-1.28.31,2.23,2.23,0,0,0-.83.84v6.66h-1.63v-9Z"/><path d="M416.31,170.71a1.88,1.88,0,0,0,1.32-.5,1.56,1.56,0,0,0,.57-1.23h1.47l0,.05a2.56,2.56,0,0,1-1,2.06,3.8,3.8,0,0,1-5.3-.38,5,5,0,0,1-1-3.2v-.35a5,5,0,0,1,1-3.18,3.52,3.52,0,0,1,2.91-1.29,3.39,3.39,0,0,1,2.46.93,2.88,2.88,0,0,1,.92,2.27v.05H418.2a2,2,0,0,0-.54-1.39,1.74,1.74,0,0,0-1.35-.58,1.89,1.89,0,0,0-1.75.93,4.48,4.48,0,0,0-.55,2.26v.35a4.47,4.47,0,0,0,.54,2.28A1.88,1.88,0,0,0,416.31,170.71Z"/><path d="M423.4,160.56h-1.63v-1.67h1.63Zm0,11.26h-1.63v-9h1.63Z"/><path d="M427.36,162.85l.12,1.34a3.21,3.21,0,0,1,1.12-1.11,3,3,0,0,1,1.54-.39,2.9,2.9,0,0,1,2.24.85,3.72,3.72,0,0,1,.8,2.62v5.66h-1.63v-5.63a2.43,2.43,0,0,0-.47-1.68,1.88,1.88,0,0,0-1.43-.5,2.45,2.45,0,0,0-1.28.31,2.16,2.16,0,0,0-.83.84v6.66h-1.63v-9Z"/><path d="M435.26,167.5a6,6,0,0,1,.92-3.49,3,3,0,0,1,2.58-1.32,3,3,0,0,1,2.59,1.33l.2-1.17h1.3v9a3.41,3.41,0,0,1-1,2.64,4.08,4.08,0,0,1-2.89.93,6,6,0,0,1-1.39-.18,5.25,5.25,0,0,1-1.32-.49l.24-1.26a5.05,5.05,0,0,0,1.14.4,6.07,6.07,0,0,0,1.32.15,2.38,2.38,0,0,0,1.73-.54,2.25,2.25,0,0,0,.54-1.65v-1a2.86,2.86,0,0,1-1,.85,3.32,3.32,0,0,1-1.41.29,3.08,3.08,0,0,1-2.57-1.19,5,5,0,0,1-.92-3.13Zm1.63.17a3.83,3.83,0,0,0,.56,2.18,1.94,1.94,0,0,0,1.71.82,2.17,2.17,0,0,0,1.23-.34,2.4,2.4,0,0,0,.82-1v-4.12a2.49,2.49,0,0,0-.82-.91,2.15,2.15,0,0,0-1.21-.34,1.87,1.87,0,0,0-1.73,1,5.06,5.06,0,0,0-.56,2.52Z"/><path d="M456.35,166.48h-5.09v5.34h-1.63V159.76h7.56V161h-5.93v4.16h5.09Z"/><path d="M462.79,164.3l-.83-.05a1.89,1.89,0,0,0-1.09.3,2,2,0,0,0-.69.86v6.41h-1.63v-9H460l.16,1.31a3,3,0,0,1,.94-1.08,2.19,2.19,0,0,1,1.29-.39,1.87,1.87,0,0,1,.34,0l.28.06Z"/><path d="M470,171.82c-.06-.27-.1-.51-.13-.72a4.46,4.46,0,0,1-.05-.63,3.78,3.78,0,0,1-1.19,1.09,3.05,3.05,0,0,1-1.58.43,2.92,2.92,0,0,1-2.13-.72,2.61,2.61,0,0,1-.74-2,2.32,2.32,0,0,1,1-2,4.91,4.91,0,0,1,2.82-.73h1.78v-.88a1.65,1.65,0,0,0-.48-1.25A1.93,1.93,0,0,0,468,164a2,2,0,0,0-1.29.4,1.19,1.19,0,0,0-.48.95l-1.55,0,0-.05a2.15,2.15,0,0,1,.92-1.79,3.77,3.77,0,0,1,2.51-.81,3.72,3.72,0,0,1,2.45.77,2.75,2.75,0,0,1,.93,2.24V170c0,.32,0,.63.05.93a4.44,4.44,0,0,0,.18.88Zm-2.71-1.2a3,3,0,0,0,1.6-.45,2.24,2.24,0,0,0,.93-1v-1.45H468a2.37,2.37,0,0,0-1.58.49,1.47,1.47,0,0,0-.59,1.17,1.24,1.24,0,0,0,.37.95A1.56,1.56,0,0,0,467.29,170.62Z"/><path d="M475.28,162.85l.11,1.18a3.14,3.14,0,0,1,1.12-1,3.4,3.4,0,0,1,1.57-.35,2.82,2.82,0,0,1,1.53.41,2.53,2.53,0,0,1,1,1.25,3.3,3.3,0,0,1,1.12-1.22,3,3,0,0,1,1.62-.44,2.67,2.67,0,0,1,2.16.94,4.3,4.3,0,0,1,.8,2.83v5.36h-1.64v-5.38a3,3,0,0,0-.45-1.88,1.68,1.68,0,0,0-1.36-.55,1.73,1.73,0,0,0-1.35.58,2.51,2.51,0,0,0-.61,1.47v5.76h-1.64v-5.38a2.94,2.94,0,0,0-.47-1.84,1.63,1.63,0,0,0-1.35-.59,2.27,2.27,0,0,0-1.22.31,2,2,0,0,0-.74.86v6.64h-1.63v-9Z"/><path d="M492.36,172a3.79,3.79,0,0,1-3-1.23,4.73,4.73,0,0,1-1.09-3.25v-.37a4.67,4.67,0,0,1,1.12-3.19,3.49,3.49,0,0,1,2.72-1.26,3.25,3.25,0,0,1,2.7,1.12,4.57,4.57,0,0,1,.89,3v.86H490l0,0a3.75,3.75,0,0,0,.59,2.19,2.1,2.1,0,0,0,1.83.84,4,4,0,0,0,1.45-.23,3.37,3.37,0,0,0,1.07-.65l.64,1.06a3.82,3.82,0,0,1-1.27.78A5,5,0,0,1,492.36,172Zm-.26-8a1.76,1.76,0,0,0-1.41.66,3.12,3.12,0,0,0-.69,1.69l0,0h4v-.13a2.62,2.62,0,0,0-.48-1.62A1.72,1.72,0,0,0,492.1,164Z"/><path d="M499.82,168.55l.21,1.15h.05l.21-1.15,1.79-5.7h1.31l1.8,5.7.23,1.29h.05l.26-1.29,1.33-5.7h1.71l-2.6,9h-1.32l-1.77-5.46-.34-1.43h-.05l-.32,1.43-1.74,5.46h-1.32l-2.6-9h1.7Z"/><path d="M510,167.25a4.92,4.92,0,0,1,1.08-3.27,3.61,3.61,0,0,1,2.92-1.29,3.66,3.66,0,0,1,2.95,1.28,4.93,4.93,0,0,1,1.08,3.28v.18a4.89,4.89,0,0,1-1.08,3.28A3.59,3.59,0,0,1,514,172a3.67,3.67,0,0,1-2.94-1.28,4.89,4.89,0,0,1-1.08-3.28Zm1.64.18a4.28,4.28,0,0,0,.6,2.36,2.17,2.17,0,0,0,3.55,0,4.2,4.2,0,0,0,.61-2.36v-.18a4.16,4.16,0,0,0-.61-2.34A2,2,0,0,0,514,164a2,2,0,0,0-1.76.94,4.24,4.24,0,0,0-.6,2.34Z"/><path d="M524.25,164.3l-.84-.05a1.91,1.91,0,0,0-1.09.3,2,2,0,0,0-.68.86v6.41H520v-9h1.45l.16,1.31a3.22,3.22,0,0,1,.94-1.08,2.19,2.19,0,0,1,1.29-.39,2,2,0,0,1,.35,0l.27.06Z"/><path d="M528.42,167.68h-.83v4.14H526V158.89h1.64v7.49h.82l2.69-3.53h1.95L529.8,167l3.53,4.83H531.4Z"/><path d="M329.24,189.07H324.7l-1.08,3.1H322l4.35-12.06h1.4L332,192.17H330.3Zm-4.07-1.37h3.6L327,182.52h0Z"/><path d="M338.72,189.76a1.07,1.07,0,0,0-.41-.87,3.85,3.85,0,0,0-1.55-.6,6.47,6.47,0,0,1-2.43-.95,1.92,1.92,0,0,1-.85-1.64,2.38,2.38,0,0,1,.93-1.88,3.67,3.67,0,0,1,2.41-.77,3.61,3.61,0,0,1,2.47.82,2.38,2.38,0,0,1,.9,1.93v0h-1.56a1.43,1.43,0,0,0-.51-1,2.14,2.14,0,0,0-2.57-.08,1.2,1.2,0,0,0-.43.93,1,1,0,0,0,.37.82A4.08,4.08,0,0,0,337,187a6.47,6.47,0,0,1,2.5,1,2,2,0,0,1,.85,1.67,2.36,2.36,0,0,1-1,1.94,4.61,4.61,0,0,1-5.23-.11,2.48,2.48,0,0,1-.93-2v0h1.56a1.53,1.53,0,0,0,.65,1.27,2.46,2.46,0,0,0,1.41.4,2.23,2.23,0,0,0,1.37-.37A1.11,1.11,0,0,0,338.72,189.76Z"/><path d="M347.59,189.76a1.07,1.07,0,0,0-.41-.87,3.85,3.85,0,0,0-1.55-.6,6.47,6.47,0,0,1-2.43-.95,1.92,1.92,0,0,1-.85-1.64,2.38,2.38,0,0,1,.93-1.88,3.68,3.68,0,0,1,2.41-.77,3.61,3.61,0,0,1,2.47.82,2.42,2.42,0,0,1,.91,1.93l0,0h-1.56a1.43,1.43,0,0,0-.51-1,2.14,2.14,0,0,0-2.57-.08,1.2,1.2,0,0,0-.43.93,1,1,0,0,0,.37.82,4.08,4.08,0,0,0,1.52.53,6.47,6.47,0,0,1,2.5,1,2,2,0,0,1,.85,1.67,2.36,2.36,0,0,1-1,1.94,4.59,4.59,0,0,1-5.22-.11,2.49,2.49,0,0,1-.94-2l0,0h1.55a1.53,1.53,0,0,0,.65,1.27,2.47,2.47,0,0,0,1.42.4,2.2,2.2,0,0,0,1.36-.37A1.11,1.11,0,0,0,347.59,189.76Z"/><path d="M355,192.35a3.78,3.78,0,0,1-3-1.24,4.73,4.73,0,0,1-1.08-3.24v-.37a4.62,4.62,0,0,1,1.12-3.19,3.49,3.49,0,0,1,2.72-1.26,3.25,3.25,0,0,1,2.69,1.11,4.62,4.62,0,0,1,.9,3V188h-5.73l0,0a3.68,3.68,0,0,0,.6,2.19,2.09,2.09,0,0,0,1.82.84,4.3,4.3,0,0,0,1.46-.23,3.48,3.48,0,0,0,1.07-.65l.64,1.06a3.82,3.82,0,0,1-1.27.78A5.1,5.1,0,0,1,355,192.35Zm-.25-8a1.8,1.8,0,0,0-1.42.66,3.11,3.11,0,0,0-.68,1.68l0,.05h4v-.14a2.59,2.59,0,0,0-.48-1.61A1.72,1.72,0,0,0,354.71,184.33Z"/><path d="M365.34,189.76a1,1,0,0,0-.41-.87,3.85,3.85,0,0,0-1.55-.6,6.47,6.47,0,0,1-2.43-.95,1.92,1.92,0,0,1-.85-1.64,2.38,2.38,0,0,1,.93-1.88,3.69,3.69,0,0,1,2.42-.77,3.6,3.6,0,0,1,2.46.82,2.39,2.39,0,0,1,.91,1.93l0,0h-1.56a1.43,1.43,0,0,0-.51-1,2.14,2.14,0,0,0-2.57-.08,1.2,1.2,0,0,0-.43.93,1,1,0,0,0,.37.82,4.15,4.15,0,0,0,1.52.53,6.47,6.47,0,0,1,2.5,1,2,2,0,0,1,.85,1.67,2.36,2.36,0,0,1-1,1.94,4.59,4.59,0,0,1-5.22-.11,2.49,2.49,0,0,1-.94-2l0,0h1.55a1.53,1.53,0,0,0,.65,1.27,2.49,2.49,0,0,0,1.42.4,2.2,2.2,0,0,0,1.36-.37A1.11,1.11,0,0,0,365.34,189.76Z"/><path d="M374.21,189.76a1,1,0,0,0-.41-.87,3.85,3.85,0,0,0-1.55-.6,6.61,6.61,0,0,1-2.43-.95,1.92,1.92,0,0,1-.85-1.64,2.38,2.38,0,0,1,.93-1.88,3.69,3.69,0,0,1,2.42-.77,3.63,3.63,0,0,1,2.47.82,2.38,2.38,0,0,1,.9,1.93l0,0h-1.56a1.45,1.45,0,0,0-.5-1,2.15,2.15,0,0,0-2.58-.08,1.2,1.2,0,0,0-.43.93,1,1,0,0,0,.37.82,4.15,4.15,0,0,0,1.52.53,6.47,6.47,0,0,1,2.5,1,2,2,0,0,1,.86,1.67,2.36,2.36,0,0,1-1,1.94,4.59,4.59,0,0,1-5.22-.11,2.49,2.49,0,0,1-.94-2l0,0h1.56a1.49,1.49,0,0,0,.64,1.27,2.51,2.51,0,0,0,1.42.4,2.2,2.2,0,0,0,1.36-.37A1.11,1.11,0,0,0,374.21,189.76Z"/><path d="M379.33,183.21l.12,1.18a2.93,2.93,0,0,1,1.11-1,3.3,3.3,0,0,1,1.57-.35,2.75,2.75,0,0,1,1.54.41,2.48,2.48,0,0,1,1,1.24,3.38,3.38,0,0,1,1.13-1.21,2.89,2.89,0,0,1,1.62-.44,2.67,2.67,0,0,1,2.16.94,4.27,4.27,0,0,1,.79,2.82v5.36H388.7V186.8a3,3,0,0,0-.45-1.88,1.67,1.67,0,0,0-1.36-.55,1.73,1.73,0,0,0-1.36.58,2.65,2.65,0,0,0-.61,1.47v5.75h-1.64V186.8a2.93,2.93,0,0,0-.46-1.84,1.64,1.64,0,0,0-1.35-.59,2.2,2.2,0,0,0-1.23.31,1.93,1.93,0,0,0-.73.86v6.63h-1.63v-9Z"/><path d="M396.41,192.35a3.78,3.78,0,0,1-3-1.24,4.73,4.73,0,0,1-1.08-3.24v-.37a4.62,4.62,0,0,1,1.12-3.19,3.49,3.49,0,0,1,2.72-1.26,3.25,3.25,0,0,1,2.69,1.11,4.62,4.62,0,0,1,.9,3V188H394l0,0a3.68,3.68,0,0,0,.59,2.19,2.09,2.09,0,0,0,1.82.84,4.3,4.3,0,0,0,1.46-.23,3.48,3.48,0,0,0,1.07-.65l.64,1.06a3.82,3.82,0,0,1-1.27.78A5.1,5.1,0,0,1,396.41,192.35Zm-.25-8a1.76,1.76,0,0,0-1.41.66,3,3,0,0,0-.69,1.68l0,.05h4v-.14a2.59,2.59,0,0,0-.48-1.61A1.72,1.72,0,0,0,396.16,184.33Z"/><path d="M403,183.21l.12,1.34a3.13,3.13,0,0,1,1.12-1.11,3,3,0,0,1,1.54-.39,2.94,2.94,0,0,1,2.24.84,3.74,3.74,0,0,1,.8,2.63v5.65h-1.64v-5.62a2.43,2.43,0,0,0-.46-1.68,1.9,1.9,0,0,0-1.43-.5,2.53,2.53,0,0,0-1.28.3,2.36,2.36,0,0,0-.84.85v6.65h-1.63v-9Z"/><path d="M413.49,181.05v2.16h1.7v1.21h-1.7v5.44a1.2,1.2,0,0,0,.27.89.94.94,0,0,0,.69.26,1.88,1.88,0,0,0,.31,0l.29-.08.23,1.12a1.51,1.51,0,0,1-.54.24,2.53,2.53,0,0,1-.71.1,2.11,2.11,0,0,1-1.58-.6,2.63,2.63,0,0,1-.59-1.89v-5.44h-1.42v-1.21h1.42v-2.16Z"/><path d="M422.92,180.92h-1.63v-1.67h1.63Zm0,11.25h-1.63v-9h1.63Z"/><path d="M426.89,183.21l.11,1.34a3.24,3.24,0,0,1,1.13-1.11,3,3,0,0,1,1.53-.39,3,3,0,0,1,2.25.84,3.74,3.74,0,0,1,.79,2.63v5.65h-1.63v-5.62a2.38,2.38,0,0,0-.47-1.68,1.87,1.87,0,0,0-1.43-.5,2.51,2.51,0,0,0-1.27.3,2.28,2.28,0,0,0-.84.85v6.65h-1.63v-9Z"/><path d="M441.32,192.17h-1.64V180.11h1.64Z"/><path d="M445.54,183.21l.12,1.34a3.21,3.21,0,0,1,1.12-1.11,3,3,0,0,1,1.54-.39,2.94,2.94,0,0,1,2.24.84,3.74,3.74,0,0,1,.8,2.63v5.65h-1.63v-5.62a2.43,2.43,0,0,0-.47-1.68,1.88,1.88,0,0,0-1.43-.5,2.55,2.55,0,0,0-1.28.3,2.26,2.26,0,0,0-.83.85v6.65h-1.63v-9Z"/><path d="M453.35,187.86a6,6,0,0,1,.93-3.49,3,3,0,0,1,2.59-1.32,3.09,3.09,0,0,1,1.39.29,2.81,2.81,0,0,1,1,.84v-4.93h1.63v12.92h-1.25l-.25-1.13a2.89,2.89,0,0,1-1.08,1,3.25,3.25,0,0,1-1.5.33,3.09,3.09,0,0,1-2.57-1.19,4.94,4.94,0,0,1-.93-3.13ZM455,188a3.83,3.83,0,0,0,.55,2.18,2,2,0,0,0,1.72.81,2.17,2.17,0,0,0,1.23-.33,2.47,2.47,0,0,0,.81-.93v-4.18a2.55,2.55,0,0,0-.81-.88,2.17,2.17,0,0,0-1.21-.33,1.85,1.85,0,0,0-1.73,1,5,5,0,0,0-.56,2.52Z"/><path d="M463,187.61a5,5,0,0,1,1.07-3.28,4,4,0,0,1,5.87,0,4.93,4.93,0,0,1,1.08,3.28v.18a4.89,4.89,0,0,1-1.07,3.28,4,4,0,0,1-5.87,0,4.91,4.91,0,0,1-1.08-3.28Zm1.63.18a4.23,4.23,0,0,0,.6,2.35,2.17,2.17,0,0,0,3.56,0,4.23,4.23,0,0,0,.6-2.35v-.18a4.16,4.16,0,0,0-.61-2.34,2.15,2.15,0,0,0-3.55,0,4.24,4.24,0,0,0-.6,2.34Z"/><path d="M474.47,183.21l.11,1.34a3.24,3.24,0,0,1,1.13-1.11,3,3,0,0,1,1.53-.39,3,3,0,0,1,2.25.84,3.74,3.74,0,0,1,.79,2.63v5.65h-1.63v-5.62a2.38,2.38,0,0,0-.47-1.68,1.87,1.87,0,0,0-1.43-.5,2.51,2.51,0,0,0-1.27.3,2.28,2.28,0,0,0-.84.85v6.65H473v-9Z"/><path d="M486.36,192.35a3.78,3.78,0,0,1-3-1.24,4.73,4.73,0,0,1-1.08-3.24v-.37a4.62,4.62,0,0,1,1.12-3.19,3.49,3.49,0,0,1,2.72-1.26,3.25,3.25,0,0,1,2.69,1.11,4.62,4.62,0,0,1,.9,3V188H484l0,0a3.68,3.68,0,0,0,.59,2.19,2.09,2.09,0,0,0,1.82.84,4.3,4.3,0,0,0,1.46-.23,3.48,3.48,0,0,0,1.07-.65l.64,1.06a3.82,3.82,0,0,1-1.27.78A5.1,5.1,0,0,1,486.36,192.35Zm-.25-8a1.8,1.8,0,0,0-1.42.66,3.11,3.11,0,0,0-.68,1.68l0,.05h4v-.14a2.59,2.59,0,0,0-.48-1.61A1.72,1.72,0,0,0,486.11,184.33Z"/><path d="M496.74,189.76a1,1,0,0,0-.41-.87,3.85,3.85,0,0,0-1.55-.6,6.54,6.54,0,0,1-2.43-.95,1.92,1.92,0,0,1-.85-1.64,2.38,2.38,0,0,1,.93-1.88,3.69,3.69,0,0,1,2.42-.77,3.6,3.6,0,0,1,2.46.82,2.39,2.39,0,0,1,.91,1.93l0,0h-1.56a1.43,1.43,0,0,0-.51-1,2.14,2.14,0,0,0-2.57-.08,1.2,1.2,0,0,0-.43.93,1,1,0,0,0,.37.82A4.15,4.15,0,0,0,495,187a6.47,6.47,0,0,1,2.5,1,2,2,0,0,1,.85,1.67,2.36,2.36,0,0,1-1,1.94,4.59,4.59,0,0,1-5.22-.11,2.49,2.49,0,0,1-.94-2l0,0h1.55a1.53,1.53,0,0,0,.65,1.27,2.49,2.49,0,0,0,1.42.4,2.2,2.2,0,0,0,1.36-.37A1.11,1.11,0,0,0,496.74,189.76Z"/><path d="M502.17,180.92h-1.63v-1.67h1.63Zm0,11.25h-1.63v-9h1.63Z"/><path d="M510.19,192.17c-.06-.27-.1-.51-.13-.71s-.05-.42-.06-.63a3.73,3.73,0,0,1-1.18,1.08,3.06,3.06,0,0,1-1.58.44,2.9,2.9,0,0,1-2.13-.72,2.62,2.62,0,0,1-.74-2,2.32,2.32,0,0,1,1-2,4.79,4.79,0,0,1,2.82-.73H510V186a1.65,1.65,0,0,0-.48-1.25,1.86,1.86,0,0,0-1.35-.46,2,2,0,0,0-1.29.4,1.2,1.2,0,0,0-.49,1l-1.55,0v0a2.13,2.13,0,0,1,.91-1.79,3.81,3.81,0,0,1,2.52-.81,3.69,3.69,0,0,1,2.45.77,2.74,2.74,0,0,1,.93,2.23v4.32a7.06,7.06,0,0,0,.05.93,4.34,4.34,0,0,0,.18.87ZM507.48,191a3,3,0,0,0,1.6-.45,2.2,2.2,0,0,0,.92-1.05V188h-1.83a2.36,2.36,0,0,0-1.57.5,1.48,1.48,0,0,0-.6,1.17,1.21,1.21,0,0,0,.38.94A1.52,1.52,0,0,0,507.48,191Z"/><rect class="cls-2" x="45.06" y="44.15" width="161.7" height="161.7" transform="translate(125.64 -52.42) rotate(45.12)"/><g class="cls-3"><path class="cls-4" d="M125.7,227.71,23.2,124.79,126.13,22.29,228.62,125.21ZM26.38,124.79l99.32,99.74,99.74-99.32L126.12,25.47Zm99.34,89.87-34.2-34.35,26.27-26.16L92.43,128.68l-18.08,18,11.89,11.94,5-4.93-7-7,8.17-8.14,15.51,15.57L86.59,175.36l-29.9-30L77.21,124.9,56.77,104.38l30-29.91L108,95.8,92.46,111.3l-8.14-8.17,7-7-4.93-4.94L74.45,103.1l18,18.08,25.47-25.36L91.75,69.55,126.1,35.34l34.2,34.35L134,95.85l25.36,25.47,18.07-18L165.58,91.38l-5,4.93,7,7-8.18,8.14L143.91,95.87l21.32-21.23,29.91,30L174.62,125.1l20.43,20.52-30,29.91L143.79,154.2l15.57-15.5,8.15,8.17-7,7,4.93,4.94,11.94-11.89-18-18.07-25.46,25.36,26.15,26.27Zm-31-34.34,31,31.17,31.17-31-26.16-26.27,28.65-28.53,21.16,21.25L165.43,162l-8.09-8.13,7-7-5-5L147,154.21,165,172.35l26.85-26.73-20.44-20.53L192,104.66,165.22,77.81,147.08,95.88l12.35,12.39,5-5-7-7,8.13-8.09,15,15.12-21.25,21.16L130.86,95.84l26.27-26.16-31-31.17-31.17,31,26.16,26.27L92.43,124.35,71.27,103.1,86.39,88l8.09,8.13-7,7,5,5,12.39-12.34L86.79,77.65,59.94,104.38l20.44,20.53L59.86,145.34,86.6,172.19l18.14-18.07L92.4,141.73l-5,5,7,7-8.12,8.09L71.18,146.67l21.25-21.16L121,154.16ZM200,140.7l-15.51-15.58,15.57-15.51,15.51,15.58Zm-12.34-15.57L200,137.52l12.4-12.34-12.34-12.39ZM51.76,140.39,36.25,124.81,51.82,109.3l15.51,15.58ZM39.42,124.82l12.35,12.39,12.39-12.34L51.82,112.48Z"/><path class="cls-4" d="M125.75,204.07l-24-24.1,24.1-24,24,24.1ZM104.92,180l20.83,20.92,20.92-20.83-20.83-20.92Z"/><path class="cls-4" d="M126,93.36l-24-24.1,24.1-24,24,24.1ZM105.15,69.27,126,90.19,146.9,69.35,126.07,48.44Z"/></g><path class="cls-4" d="M107.13,136.3l-10.85,5.43c1.24,7.7-1.59,13.21-7.75,15.19a12,12,0,0,1-10.75-21.08,12.15,12.15,0,0,1,17,2.83c4-2,7.94-4,11.9-6a1.1,1.1,0,0,0,.42-.85q0-6.84,0-13.69a1.25,1.25,0,0,0-.52-.9c-6.1-3.08-12.21-6.13-18.39-9.22a9.08,9.08,0,0,1-5.21,3.12,8.55,8.55,0,1,1,6.85-7c-.07.48-.11.84.46,1.12q8.19,4,16.35,8.15a2.29,2.29,0,0,0,.46.12V102.79h17.06v-7a12,12,0,0,1-8.81-6.33,11.55,11.55,0,0,1-1.11-8.09,12,12,0,0,1,23.64,1.48c.48,5.07-2.5,11.39-10.17,13v6.92h17V113.6c.37-.15.63-.24.88-.36,5.25-2.62,10.5-5.27,15.77-7.87a1,1,0,0,0,.65-1.31,8.44,8.44,0,0,1,7-9.75,8.55,8.55,0,0,1,5.46,16,8.46,8.46,0,0,1-10.21-1.61l-.58-.62-2.07,1c-5.35,2.68-10.69,5.37-16.06,8a1.28,1.28,0,0,0-.84,1.38c0,4.39,0,8.77,0,13.16a1.44,1.44,0,0,0,.5,1.11c3.92,2,7.87,4,11.87,6a12,12,0,0,1,9-5.11,11.54,11.54,0,0,1,7.93,2.31,12,12,0,0,1-11,21c-5-1.69-9.64-7.37-7.53-15.14l-10.78-5.39v10.88h-17.1V161.1a8.67,8.67,0,0,1,6,4.81,8.34,8.34,0,0,1,.55,5.73,8.56,8.56,0,1,1-10.06-10.54V147.28h-17Zm34.11,7.48V106.25H110.56v37.53ZM84.82,137a8.56,8.56,0,1,0,8.56,8.57A8.56,8.56,0,0,0,84.82,137ZM167,137a8.56,8.56,0,1,0,8.57,8.56A8.55,8.55,0,0,0,167,137Zm-41-61.64A8.56,8.56,0,1,0,134.46,84,8.59,8.59,0,0,0,125.94,75.35ZM81.41,97.61a5.13,5.13,0,1,0,5.12,5.09A5.16,5.16,0,0,0,81.41,97.61Zm89.07,10.26a5.13,5.13,0,1,0-5.2-5.12A5.14,5.14,0,0,0,170.48,107.87Zm-44.54,56.51a5.14,5.14,0,1,0,5.1,5.22A5.15,5.15,0,0,0,125.94,164.38Z"/><path class="cls-4" d="M114,140.35V130.19h6.79v-3.43h6.82v-3.4h10.26v17Zm17.14-3.44h3.29V126.77h-3.29Zm-3.52-6.71h-3.3v6.7h3.3Zm-6.82,3.45h-3.33v3.25h3.33Z"/><path class="cls-4" d="M137.84,116.51v3.3H114v-3.3Z"/><path class="cls-4" d="M120.85,109.64h17v3.3h-17Z"/><path class="cls-4" d="M117.3,109.65v3.28H114v-3.28Z"/><path class="cls-4" d="M90,145.52a5.13,5.13,0,1,1-5.2-5.11A5.14,5.14,0,0,1,90,145.52Zm-3.42.07a1.71,1.71,0,1,0-1.76,1.66A1.73,1.73,0,0,0,86.53,145.59Z"/><path class="cls-4" d="M161.86,145.55a5.13,5.13,0,1,1,5.08,5.13A5.15,5.15,0,0,1,161.86,145.55Zm6.83,0a1.7,1.7,0,1,0-1.71,1.7A1.71,1.71,0,0,0,168.69,145.55Z"/><path class="cls-4" d="M125.94,78.77a5.14,5.14,0,1,1-5.16,5A5.16,5.16,0,0,1,125.94,78.77Zm0,6.84a1.71,1.71,0,1,0-1.72-1.69A1.73,1.73,0,0,0,125.92,85.61Z"/></svg>