<svg id="Layer_1" data-name="Layer 1" xmlns="http://www.w3.org/2000/svg" viewBox="0 0 654 250"><defs><style>.cls-1{fill:#f26e25;}.cls-2{opacity:0.15;}.cls-3{fill:#fff;}.cls-4{fill:none;stroke:#f26e25;stroke-miterlimit:10;stroke-width:2.61px;}</style></defs><path d="M286.87,143.72l.21,1.15h.05l.21-1.15,1.79-5.69h1.31l1.79,5.69.24,1.28h0l.26-1.28,1.33-5.69h1.7l-2.6,8.95H291.9l-1.78-5.45-.33-1.43h-.05l-.32,1.43L287.68,147h-1.31l-2.6-8.95h1.7Z"/><path d="M302.91,147c-.05-.27-.1-.51-.13-.71a4.46,4.46,0,0,1,0-.63,3.87,3.87,0,0,1-1.19,1.08,3,3,0,0,1-1.58.43,2.92,2.92,0,0,1-2.13-.71,2.63,2.63,0,0,1-.73-2,2.32,2.32,0,0,1,1-2,4.86,4.86,0,0,1,2.82-.73h1.77v-.88a1.65,1.65,0,0,0-.48-1.25,1.91,1.91,0,0,0-1.36-.46,2,2,0,0,0-1.28.4,1.18,1.18,0,0,0-.49,1l-1.55,0v0a2.13,2.13,0,0,1,.91-1.79,3.8,3.8,0,0,1,2.51-.81,3.67,3.67,0,0,1,2.45.78,2.72,2.72,0,0,1,.93,2.23v4.31a6.81,6.81,0,0,0,.05.92,4.44,4.44,0,0,0,.18.88Zm-2.71-1.19a2.85,2.85,0,0,0,1.6-.46,2.16,2.16,0,0,0,.93-1v-1.46H300.9a2.39,2.39,0,0,0-1.58.5,1.5,1.5,0,0,0-.59,1.17,1.24,1.24,0,0,0,.37.94A1.58,1.58,0,0,0,300.2,145.79Z"/><path d="M311.93,144.57a1.07,1.07,0,0,0-.41-.87,3.85,3.85,0,0,0-1.55-.6,6.61,6.61,0,0,1-2.43-.95,1.92,1.92,0,0,1-.85-1.64,2.36,2.36,0,0,1,.93-1.87,4.1,4.1,0,0,1,4.88.05,2.35,2.35,0,0,1,.9,1.93v0h-1.56a1.39,1.39,0,0,0-.51-1,1.81,1.81,0,0,0-1.29-.48,1.83,1.83,0,0,0-1.28.39,1.2,1.2,0,0,0-.43.93,1,1,0,0,0,.37.82,4.15,4.15,0,0,0,1.52.53,6.47,6.47,0,0,1,2.5,1,2,2,0,0,1,.85,1.67,2.36,2.36,0,0,1-1,1.94,4,4,0,0,1-2.52.75,3.91,3.91,0,0,1-2.7-.86,2.49,2.49,0,0,1-.94-2l0,0H308a1.49,1.49,0,0,0,.64,1.27,2.49,2.49,0,0,0,1.42.4,2.2,2.2,0,0,0,1.36-.37A1.11,1.11,0,0,0,311.93,144.57Z"/><path d="M321.26,138l.11,1.17a3.14,3.14,0,0,1,1.12-1,3.38,3.38,0,0,1,1.56-.35,2.75,2.75,0,0,1,1.54.42,2.39,2.39,0,0,1,1,1.24,3.39,3.39,0,0,1,1.12-1.22,3,3,0,0,1,1.62-.44,2.67,2.67,0,0,1,2.16.94,4.3,4.3,0,0,1,.8,2.83V147h-1.63v-5.37a3,3,0,0,0-.46-1.87,1.64,1.64,0,0,0-1.36-.55,1.75,1.75,0,0,0-1.35.57,2.58,2.58,0,0,0-.61,1.47V147H325.2v-5.37a3,3,0,0,0-.46-1.84,1.62,1.62,0,0,0-1.35-.58,2.27,2.27,0,0,0-1.22.3,2,2,0,0,0-.74.86V147H319.8V138Z"/><path d="M334.23,142.42a4.92,4.92,0,0,1,1.08-3.27,3.61,3.61,0,0,1,2.92-1.29,3.65,3.65,0,0,1,2.94,1.28,4.93,4.93,0,0,1,1.08,3.28v.18a4.94,4.94,0,0,1-1.07,3.28,4,4,0,0,1-5.87,0,4.93,4.93,0,0,1-1.08-3.28Zm1.63.18a4.23,4.23,0,0,0,.6,2.35,2.17,2.17,0,0,0,3.56,0,4.23,4.23,0,0,0,.6-2.35v-.18a4.16,4.16,0,0,0-.61-2.34,2.15,2.15,0,0,0-3.55,0,4.24,4.24,0,0,0-.6,2.34Z"/><path d="M351.89,142.84A4.94,4.94,0,0,1,351,146a3.07,3.07,0,0,1-2.56,1.18,3.17,3.17,0,0,1-1.55-.35,2.85,2.85,0,0,1-1.09-1L345.5,147h-1.25V134.07h1.63v5a2.83,2.83,0,0,1,1-.91,3.23,3.23,0,0,1,1.46-.32,3,3,0,0,1,2.59,1.33,6,6,0,0,1,.92,3.48Zm-1.63-.17a5,5,0,0,0-.56-2.51,1.87,1.87,0,0,0-1.73-1,2.16,2.16,0,0,0-1.27.36,2.57,2.57,0,0,0-.82,1v3.88a2.63,2.63,0,0,0,.82,1,2.12,2.12,0,0,0,1.29.37,1.94,1.94,0,0,0,1.71-.82,3.79,3.79,0,0,0,.56-2.17Z"/><path d="M355.64,135.73H354v-1.66h1.63Zm0,11.25H354V138h1.63Z"/><path d="M359.91,147h-1.63V134.07h1.63Z"/><path d="M364.18,135.73h-1.63v-1.66h1.63Zm0,11.25h-1.63V138h1.63Z"/><path d="M368.23,145.71h5.17V147h-7.12v-1.14l4.84-6.52h-4.78V138h6.78v1.11Z"/><path d="M378.79,147.15a3.79,3.79,0,0,1-3-1.23,4.73,4.73,0,0,1-1.08-3.24v-.37a4.66,4.66,0,0,1,1.11-3.19,3.49,3.49,0,0,1,2.72-1.26,3.21,3.21,0,0,1,2.69,1.12,4.58,4.58,0,0,1,.9,3v.86H376.4l0,0A3.68,3.68,0,0,0,377,145a2.07,2.07,0,0,0,1.82.84,4,4,0,0,0,1.45-.24,3,3,0,0,0,1.07-.65l.64,1.06a4,4,0,0,1-1.27.79A5.06,5.06,0,0,1,378.79,147.15Zm-.26-8a1.76,1.76,0,0,0-1.41.66,3.11,3.11,0,0,0-.68,1.69v0h4v-.14a2.61,2.61,0,0,0-.48-1.61A1.74,1.74,0,0,0,378.53,139.14Z"/><path d="M383.58,142.67a6,6,0,0,1,.92-3.48,3,3,0,0,1,2.59-1.33,3.23,3.23,0,0,1,1.39.29,2.83,2.83,0,0,1,1,.85v-4.93h1.63V147H389.9l-.25-1.13a2.86,2.86,0,0,1-1.08,1,3.25,3.25,0,0,1-1.5.33,3.05,3.05,0,0,1-2.56-1.18,4.94,4.94,0,0,1-.93-3.13Zm1.63.17a3.83,3.83,0,0,0,.55,2.18,2,2,0,0,0,1.72.81,2.17,2.17,0,0,0,1.23-.33,2.47,2.47,0,0,0,.81-.93v-4.18a2.55,2.55,0,0,0-.81-.88,2.17,2.17,0,0,0-1.21-.32,1.86,1.86,0,0,0-1.73,1,5.06,5.06,0,0,0-.56,2.52Z"/><path d="M400.78,144.34l.14.63H401l.16-.63,2.06-6.31h1.67l-3.3,8.95h-1.23L397,138h1.68Z"/><path d="M408.08,135.73h-1.63v-1.66h1.63Zm0,11.25h-1.63V138h1.63Z"/><path d="M416.09,147c0-.27-.09-.51-.13-.71s0-.42,0-.63a3.76,3.76,0,0,1-1.19,1.08,3,3,0,0,1-1.57.43,2.89,2.89,0,0,1-2.13-.71,2.64,2.64,0,0,1-.74-2,2.32,2.32,0,0,1,1-2,4.86,4.86,0,0,1,2.82-.73h1.77v-.88a1.65,1.65,0,0,0-.48-1.25,1.91,1.91,0,0,0-1.36-.46,2,2,0,0,0-1.28.4,1.21,1.21,0,0,0-.49,1l-1.54,0,0,0a2.13,2.13,0,0,1,.91-1.79,3.8,3.8,0,0,1,2.51-.81,3.66,3.66,0,0,1,2.45.78,2.72,2.72,0,0,1,.93,2.23v4.31a9,9,0,0,0,0,.92,4.44,4.44,0,0,0,.18.88Zm-2.7-1.19a2.82,2.82,0,0,0,1.59-.46,2.11,2.11,0,0,0,.93-1v-1.46h-1.83a2.36,2.36,0,0,0-1.57.5,1.48,1.48,0,0,0-.6,1.17,1.21,1.21,0,0,0,.38.94A1.54,1.54,0,0,0,413.39,145.79Z"/><path d="M426.39,135.87V138h1.69v1.21h-1.69v5.43a1.2,1.2,0,0,0,.26.89.93.93,0,0,0,.69.25l.31,0a2.24,2.24,0,0,0,.29-.08l.23,1.12a1.52,1.52,0,0,1-.54.24,2.86,2.86,0,0,1-.7.09,2.1,2.1,0,0,1-1.58-.6,2.56,2.56,0,0,1-.59-1.88v-5.43h-1.43V138h1.43v-2.16Z"/><path d="M431.46,139.23a3.33,3.33,0,0,1,1.14-1,3.13,3.13,0,0,1,1.49-.36,2.89,2.89,0,0,1,2.23.86,3.82,3.82,0,0,1,.8,2.65V147h-1.63v-5.63a2.35,2.35,0,0,0-.48-1.63,1.77,1.77,0,0,0-1.41-.53,2.67,2.67,0,0,0-1.27.28,2.31,2.31,0,0,0-.87.8V147h-1.63V134.07h1.63Z"/><path d="M443.17,147.15a3.8,3.8,0,0,1-3-1.23,4.73,4.73,0,0,1-1.08-3.24v-.37a4.62,4.62,0,0,1,1.12-3.19,3.47,3.47,0,0,1,2.71-1.26,3.25,3.25,0,0,1,2.7,1.12,4.58,4.58,0,0,1,.9,3v.86h-5.73l0,0a3.68,3.68,0,0,0,.6,2.19,2.08,2.08,0,0,0,1.82.84,4,4,0,0,0,1.45-.24,3,3,0,0,0,1.07-.65l.64,1.06a4.06,4.06,0,0,1-1.26.79A5.15,5.15,0,0,1,443.17,147.15Zm-.26-8a1.79,1.79,0,0,0-1.41.66,3.11,3.11,0,0,0-.68,1.69l0,0h4v-.14a2.61,2.61,0,0,0-.48-1.61A1.76,1.76,0,0,0,442.91,139.14Z"/><path d="M459,143.88h-4.53l-1.08,3.1h-1.66l4.34-12h1.4l4.26,12h-1.67Zm-4.06-1.37h3.6l-1.75-5.17h0Z"/><path d="M469.91,143.94a1.82,1.82,0,0,0-.59-1.37,4.88,4.88,0,0,0-2.07-.94,7,7,0,0,1-2.87-1.34,2.85,2.85,0,0,1-1-2.23,3,3,0,0,1,1.11-2.36,4.29,4.29,0,0,1,2.88-.94,4.23,4.23,0,0,1,3,1.08,3.28,3.28,0,0,1,1.09,2.52l0,0h-1.56a2.25,2.25,0,0,0-.71-1.7,2.57,2.57,0,0,0-1.84-.67,2.52,2.52,0,0,0-1.75.56A1.85,1.85,0,0,0,465,138a1.63,1.63,0,0,0,.67,1.31,6.27,6.27,0,0,0,2.16.92,6.15,6.15,0,0,1,2.78,1.39,3,3,0,0,1,1,2.27,2.8,2.8,0,0,1-1.15,2.34,4.75,4.75,0,0,1-3,.88,5.09,5.09,0,0,1-3.08-1,3,3,0,0,1-1.3-2.62l0-.05h1.56a2,2,0,0,0,.86,1.75,3.25,3.25,0,0,0,1.94.62,2.91,2.91,0,0,0,1.83-.52A1.7,1.7,0,0,0,469.91,143.94Z"/><path d="M480.27,143.94a1.82,1.82,0,0,0-.59-1.37,4.88,4.88,0,0,0-2.07-.94,6.93,6.93,0,0,1-2.86-1.34,2.82,2.82,0,0,1-1-2.23,3,3,0,0,1,1.11-2.36,4.29,4.29,0,0,1,2.88-.94,4.23,4.23,0,0,1,3,1.08,3.25,3.25,0,0,1,1.09,2.52l0,0h-1.56a2.25,2.25,0,0,0-.71-1.7,2.57,2.57,0,0,0-1.84-.67,2.52,2.52,0,0,0-1.75.56,1.84,1.84,0,0,0-.6,1.44,1.62,1.62,0,0,0,.66,1.31,6.33,6.33,0,0,0,2.17.92,6.16,6.16,0,0,1,2.77,1.39,3,3,0,0,1,.95,2.27,2.8,2.8,0,0,1-1.15,2.34,4.75,4.75,0,0,1-3,.88,5.09,5.09,0,0,1-3.08-1,3,3,0,0,1-1.3-2.62l0-.05H475a2,2,0,0,0,.86,1.75,3.25,3.25,0,0,0,1.94.62,2.91,2.91,0,0,0,1.83-.52A1.7,1.7,0,0,0,480.27,143.94Z"/><path d="M486,147h-1.64v-12H486Z"/><path d="M495.42,143.94a1.79,1.79,0,0,0-.59-1.37,4.89,4.89,0,0,0-2.06-.94,7,7,0,0,1-2.87-1.34,2.81,2.81,0,0,1-1-2.23A3,3,0,0,1,490,135.7a4.29,4.29,0,0,1,2.88-.94,4.19,4.19,0,0,1,3,1.08,3.29,3.29,0,0,1,1.1,2.52l0,0h-1.55a2.22,2.22,0,0,0-.72-1.7,2.57,2.57,0,0,0-1.83-.67,2.48,2.48,0,0,0-1.75.56,1.82,1.82,0,0,0-.61,1.44,1.62,1.62,0,0,0,.66,1.31,6.33,6.33,0,0,0,2.17.92,6.11,6.11,0,0,1,2.77,1.39,3,3,0,0,1,.95,2.27,2.82,2.82,0,0,1-1.14,2.34,4.79,4.79,0,0,1-3,.88,5.09,5.09,0,0,1-3.08-1,3,3,0,0,1-1.29-2.62v-.05h1.56a2,2,0,0,0,.86,1.75,3.25,3.25,0,0,0,1.94.62,2.92,2.92,0,0,0,1.84-.52A1.7,1.7,0,0,0,495.42,143.94Z"/><path d="M507.79,136.21h-4V147h-1.63V136.21h-3.92v-1.28h9.53Z"/><path d="M518.58,134.93h1.64v8.56a3.56,3.56,0,0,1-1,2.67,3.64,3.64,0,0,1-2.65,1,3.78,3.78,0,0,1-2.64-.88,3.11,3.11,0,0,1-.94-2.56v-.05h1.57a2.32,2.32,0,0,0,.52,1.67,1.93,1.93,0,0,0,1.48.55,1.88,1.88,0,0,0,1.47-.65,2.57,2.57,0,0,0,.57-1.74Z"/><path d="M522.4,142.42a4.92,4.92,0,0,1,1.08-3.27,3.59,3.59,0,0,1,2.92-1.29,3.65,3.65,0,0,1,2.94,1.28,4.93,4.93,0,0,1,1.08,3.28v.18a4.89,4.89,0,0,1-1.08,3.28,4,4,0,0,1-5.86,0,4.93,4.93,0,0,1-1.08-3.28Zm1.63.18a4.23,4.23,0,0,0,.6,2.35,2.16,2.16,0,0,0,3.55,0,4.15,4.15,0,0,0,.61-2.35v-.18a4.16,4.16,0,0,0-.61-2.34,2,2,0,0,0-1.78-.94,2,2,0,0,0-1.77.94,4.24,4.24,0,0,0-.6,2.34Z"/><path d="M534.18,135.73h-1.63v-1.66h1.63Zm0,11.25h-1.63V138h1.63Z"/><path d="M538.14,138l.12,1.33a3.21,3.21,0,0,1,1.12-1.11,3,3,0,0,1,1.53-.39,2.9,2.9,0,0,1,2.24.85,3.73,3.73,0,0,1,.8,2.62V147h-1.63v-5.62a2.43,2.43,0,0,0-.47-1.68,1.88,1.88,0,0,0-1.43-.49,2.51,2.51,0,0,0-1.27.3,2.15,2.15,0,0,0-.84.85V147h-1.63V138Z"/><path d="M548.58,135.87V138h1.7v1.21h-1.7v5.43a1.24,1.24,0,0,0,.26.89,1,1,0,0,0,.69.25l.32,0,.29-.08.22,1.12a1.52,1.52,0,0,1-.54.24,2.8,2.8,0,0,1-.7.09,2.11,2.11,0,0,1-1.58-.6,2.6,2.6,0,0,1-.59-1.88v-5.43h-1.42V138H547v-2.16Z"/><path d="M266,162.49v4.83h-1.63v-12H269a4.24,4.24,0,0,1,3,1,3.74,3.74,0,0,1,0,5.24,4.24,4.24,0,0,1-3,1Zm0-1.28h3a2.18,2.18,0,0,0,2.43-2.32,2.43,2.43,0,0,0-.6-1.67,2.39,2.39,0,0,0-1.83-.67h-3Z"/><path d="M279.15,159.8l-.84-.05a1.86,1.86,0,0,0-1.08.31,2,2,0,0,0-.69.86v6.4h-1.63v-9h1.46l.16,1.31a3,3,0,0,1,.94-1.08,2.18,2.18,0,0,1,1.28-.39,2,2,0,0,1,.35,0l.27.06Z"/><path d="M280.3,162.76a4.88,4.88,0,0,1,1.08-3.27,3.59,3.59,0,0,1,2.92-1.29,3.65,3.65,0,0,1,2.94,1.28,4.93,4.93,0,0,1,1.08,3.28v.18a4.89,4.89,0,0,1-1.08,3.28,4,4,0,0,1-5.86,0,4.88,4.88,0,0,1-1.08-3.27Zm1.63.18a4.25,4.25,0,0,0,.6,2.35,2.17,2.17,0,0,0,3.56,0,4.25,4.25,0,0,0,.6-2.35v-.18a4.16,4.16,0,0,0-.61-2.34,2.15,2.15,0,0,0-3.55,0,4.24,4.24,0,0,0-.6,2.34Z"/><path d="M290,163a6,6,0,0,1,.93-3.49,3,3,0,0,1,2.58-1.32,3,3,0,0,1,2.58,1.33l.2-1.17h1.29v9a3.39,3.39,0,0,1-1,2.64,4.07,4.07,0,0,1-2.88.93,6,6,0,0,1-1.4-.18,5.25,5.25,0,0,1-1.32-.49l.25-1.26a4.72,4.72,0,0,0,1.14.4,5.92,5.92,0,0,0,1.31.15,2.38,2.38,0,0,0,1.73-.54,2.25,2.25,0,0,0,.54-1.65v-1a2.77,2.77,0,0,1-1.05.85,3.15,3.15,0,0,1-1.41.29A3,3,0,0,1,291,166.3a4.91,4.91,0,0,1-.93-3.12Zm1.63.17a3.82,3.82,0,0,0,.56,2.17,1.91,1.91,0,0,0,1.71.82,2.15,2.15,0,0,0,1.24-.34,2.5,2.5,0,0,0,.81-.94v-4.13a2.53,2.53,0,0,0-.81-.9,2.13,2.13,0,0,0-1.22-.34,1.88,1.88,0,0,0-1.73,1,5.06,5.06,0,0,0-.56,2.52Z"/><path d="M304.18,159.8l-.83-.05a1.92,1.92,0,0,0-1.09.31,2,2,0,0,0-.68.86v6.4H300v-9h1.45l.16,1.31a3.12,3.12,0,0,1,.94-1.08,2.19,2.19,0,0,1,1.29-.39,1.87,1.87,0,0,1,.34,0l.28.06Z"/><path d="M311.38,167.32q-.08-.4-.12-.72a6.2,6.2,0,0,1-.06-.62,3.76,3.76,0,0,1-1.19,1.08,3,3,0,0,1-1.57.43,2.94,2.94,0,0,1-2.13-.71,2.65,2.65,0,0,1-.74-2,2.31,2.31,0,0,1,1-2,4.81,4.81,0,0,1,2.82-.73h1.77v-.88a1.65,1.65,0,0,0-.48-1.25,1.87,1.87,0,0,0-1.36-.46,2,2,0,0,0-1.28.4,1.2,1.2,0,0,0-.49,1l-1.54,0,0,0a2.16,2.16,0,0,1,.91-1.79,3.81,3.81,0,0,1,2.52-.81,3.74,3.74,0,0,1,2.45.77,2.77,2.77,0,0,1,.92,2.23v4.31c0,.32,0,.63.05.93a5.28,5.28,0,0,0,.18.88Zm-2.7-1.19a2.88,2.88,0,0,0,1.6-.46,2.14,2.14,0,0,0,.92-1v-1.46h-1.83a2.36,2.36,0,0,0-1.57.5,1.48,1.48,0,0,0-.6,1.17,1.23,1.23,0,0,0,.38.94A1.56,1.56,0,0,0,308.68,166.13Z"/><path d="M316.66,158.36l.11,1.18a3,3,0,0,1,1.11-1,3.43,3.43,0,0,1,1.57-.35,2.83,2.83,0,0,1,1.54.41,2.48,2.48,0,0,1,1,1.24,3.44,3.44,0,0,1,1.12-1.21,3,3,0,0,1,1.62-.44,2.67,2.67,0,0,1,2.16.94,4.27,4.27,0,0,1,.8,2.82v5.36H326V162a3,3,0,0,0-.45-1.88,1.68,1.68,0,0,0-1.36-.55,1.75,1.75,0,0,0-1.35.58,2.51,2.51,0,0,0-.61,1.47v5.75H320.6V162a3,3,0,0,0-.46-1.84,1.64,1.64,0,0,0-1.35-.59,2.25,2.25,0,0,0-1.22.31,2,2,0,0,0-.74.86v6.63H315.2v-9Z"/><path d="M331.47,158.36l.11,1.18a3.13,3.13,0,0,1,1.12-1,3.4,3.4,0,0,1,1.57-.35,2.82,2.82,0,0,1,1.53.41,2.48,2.48,0,0,1,1,1.24,3.37,3.37,0,0,1,1.13-1.21,3,3,0,0,1,1.61-.44,2.67,2.67,0,0,1,2.16.94,4.27,4.27,0,0,1,.8,2.82v5.36h-1.63V162a3,3,0,0,0-.46-1.88,1.66,1.66,0,0,0-1.35-.55,1.77,1.77,0,0,0-1.36.58,2.58,2.58,0,0,0-.61,1.47v5.75h-1.63V162a2.94,2.94,0,0,0-.47-1.84,1.63,1.63,0,0,0-1.35-.59,2.27,2.27,0,0,0-1.22.31,2,2,0,0,0-.74.86v6.63H330v-9Z"/><path d="M348.53,167.49a3.8,3.8,0,0,1-3-1.23,4.73,4.73,0,0,1-1.08-3.24v-.37a4.62,4.62,0,0,1,1.12-3.19,3.48,3.48,0,0,1,2.72-1.26,3.24,3.24,0,0,1,2.69,1.12,4.58,4.58,0,0,1,.9,3v.86h-5.73l0,0a3.68,3.68,0,0,0,.59,2.19,2.09,2.09,0,0,0,1.82.84A4,4,0,0,0,350,166a3.09,3.09,0,0,0,1.08-.65l.63,1.06a3.87,3.87,0,0,1-1.26.78A4.94,4.94,0,0,1,348.53,167.49Zm-.25-8a1.8,1.8,0,0,0-1.42.66,3.11,3.11,0,0,0-.68,1.68l0,.05h4v-.14a2.59,2.59,0,0,0-.48-1.61A1.73,1.73,0,0,0,348.28,159.48Z"/><path d="M360.18,156.2v2.16h1.69v1.21h-1.69V165a1.22,1.22,0,0,0,.26.89.93.93,0,0,0,.69.25,1.2,1.2,0,0,0,.31,0l.29-.07.22,1.11a1.54,1.54,0,0,1-.53.25,2.88,2.88,0,0,1-.71.09,2.11,2.11,0,0,1-1.58-.6,2.61,2.61,0,0,1-.58-1.88v-5.44h-1.43v-1.21h1.43V156.2Z"/><path d="M363.24,162.76a4.93,4.93,0,0,1,1.07-3.27,3.61,3.61,0,0,1,2.92-1.29,3.66,3.66,0,0,1,2.95,1.28,4.93,4.93,0,0,1,1.08,3.28v.18a4.89,4.89,0,0,1-1.08,3.28,4,4,0,0,1-5.86,0,4.88,4.88,0,0,1-1.08-3.27Zm1.63.18a4.25,4.25,0,0,0,.6,2.35,2.16,2.16,0,0,0,3.55,0,4.25,4.25,0,0,0,.61-2.35v-.18a4.24,4.24,0,0,0-.61-2.34,2,2,0,0,0-1.79-.94,2,2,0,0,0-1.76.94,4.24,4.24,0,0,0-.6,2.34Z"/><path d="M375.54,164.06l.21,1.15h.05l.21-1.15,1.79-5.7h1.31l1.8,5.7.23,1.28h.05l.26-1.28,1.33-5.7h1.7l-2.6,9h-1.31l-1.77-5.45-.34-1.43h0l-.32,1.43-1.74,5.45H375l-2.6-9h1.7Z"/><path d="M391.58,167.32c-.05-.27-.1-.51-.13-.72a4.21,4.21,0,0,1-.05-.62,3.76,3.76,0,0,1-1.19,1.08,3,3,0,0,1-1.57.43,3,3,0,0,1-2.14-.71,2.68,2.68,0,0,1-.73-2,2.31,2.31,0,0,1,1-2,4.79,4.79,0,0,1,2.82-.73h1.77v-.88a1.65,1.65,0,0,0-.48-1.25,1.87,1.87,0,0,0-1.36-.46,1.92,1.92,0,0,0-1.28.4,1.17,1.17,0,0,0-.49,1l-1.55,0v0a2.13,2.13,0,0,1,.91-1.79,3.8,3.8,0,0,1,2.51-.81,3.72,3.72,0,0,1,2.45.77,2.74,2.74,0,0,1,.93,2.23v4.31c0,.32,0,.63.05.93a4.44,4.44,0,0,0,.18.88Zm-2.7-1.19a2.82,2.82,0,0,0,1.59-.46,2.11,2.11,0,0,0,.93-1v-1.46h-1.83a2.39,2.39,0,0,0-1.58.5,1.5,1.5,0,0,0-.59,1.17,1.26,1.26,0,0,0,.37.94A1.59,1.59,0,0,0,388.88,166.13Z"/><path d="M399.63,159.8l-.83-.05a1.89,1.89,0,0,0-1.09.31,2,2,0,0,0-.68.86v6.4H395.4v-9h1.45l.16,1.31a3.12,3.12,0,0,1,.94-1.08,2.19,2.19,0,0,1,1.29-.39,1.87,1.87,0,0,1,.34,0l.28.06Z"/><path d="M400.8,163a6,6,0,0,1,.92-3.49,3,3,0,0,1,2.59-1.32,3.23,3.23,0,0,1,1.39.29,2.81,2.81,0,0,1,1,.84v-4.92h1.63v12.91h-1.25l-.25-1.13a2.86,2.86,0,0,1-1.08,1,3.25,3.25,0,0,1-1.5.33,3,3,0,0,1-2.56-1.19,4.91,4.91,0,0,1-.93-3.12Zm1.63.17a3.85,3.85,0,0,0,.55,2.17,1.94,1.94,0,0,0,1.73.82,2.16,2.16,0,0,0,1.22-.33,2.47,2.47,0,0,0,.81-.93v-4.18a2.55,2.55,0,0,0-.81-.88,2.17,2.17,0,0,0-1.21-.33,1.87,1.87,0,0,0-1.73,1,5.06,5.06,0,0,0-.56,2.52Z"/><path d="M416,164.91a1.1,1.1,0,0,0-.41-.88,4,4,0,0,0-1.55-.59,6.79,6.79,0,0,1-2.43-.95,1.92,1.92,0,0,1-.85-1.64,2.36,2.36,0,0,1,.93-1.87,3.65,3.65,0,0,1,2.42-.78,3.56,3.56,0,0,1,2.46.83,2.35,2.35,0,0,1,.9,1.92V161h-1.56a1.43,1.43,0,0,0-.51-1.05,2.14,2.14,0,0,0-2.57-.08,1.2,1.2,0,0,0-.43.93,1,1,0,0,0,.37.82,4.15,4.15,0,0,0,1.52.53,6.47,6.47,0,0,1,2.5,1,2,2,0,0,1,.85,1.66,2.36,2.36,0,0,1-1,2,4,4,0,0,1-2.52.75,3.91,3.91,0,0,1-2.7-.87,2.47,2.47,0,0,1-.94-2l0,0h1.56a1.49,1.49,0,0,0,.64,1.27,2.57,2.57,0,0,0,1.42.4,2.2,2.2,0,0,0,1.36-.37A1.13,1.13,0,0,0,416,164.91Z"/><path d="M424.34,167.32v-7.75h-1.41v-1.21h1.41v-1a3,3,0,0,1,.88-2.34,3.41,3.41,0,0,1,2.44-.82,4.92,4.92,0,0,1,1.09.12c.36.09.78.21,1.27.38l-.28,1.32a8,8,0,0,0-.94-.29,3.83,3.83,0,0,0-1-.13,2,2,0,0,0-1.4.43,1.85,1.85,0,0,0-.42,1.33v1h1.77v1.21H426v7.75Zm6.48,0h-1.64v-9h1.64Z"/><path d="M434.77,158.36l.12,1.34a3.13,3.13,0,0,1,1.12-1.11,3,3,0,0,1,1.53-.39,2.92,2.92,0,0,1,2.25.85,3.72,3.72,0,0,1,.79,2.62v5.65H439V161.7a2.43,2.43,0,0,0-.47-1.68,1.88,1.88,0,0,0-1.43-.5,2.42,2.42,0,0,0-1.27.31,2.26,2.26,0,0,0-.84.84v6.65h-1.63v-9Z"/><path d="M448.45,167.32c-.06-.27-.1-.51-.13-.72a4.21,4.21,0,0,1-.05-.62,3.87,3.87,0,0,1-1.19,1.08,3,3,0,0,1-1.58.43,3,3,0,0,1-2.13-.71,2.64,2.64,0,0,1-.73-2,2.31,2.31,0,0,1,1-2,4.79,4.79,0,0,1,2.82-.73h1.77v-.88a1.65,1.65,0,0,0-.48-1.25,1.87,1.87,0,0,0-1.36-.46,1.92,1.92,0,0,0-1.28.4,1.17,1.17,0,0,0-.49,1l-1.55,0v0A2.13,2.13,0,0,1,444,159a3.8,3.8,0,0,1,2.51-.81A3.72,3.72,0,0,1,449,159a2.74,2.74,0,0,1,.93,2.23v4.31a7.06,7.06,0,0,0,.05.93,4.44,4.44,0,0,0,.18.88Zm-2.71-1.19a2.85,2.85,0,0,0,1.6-.46,2.16,2.16,0,0,0,.93-1v-1.46h-1.83a2.39,2.39,0,0,0-1.58.5,1.5,1.5,0,0,0-.59,1.17,1.22,1.22,0,0,0,.37.94A1.58,1.58,0,0,0,445.74,166.13Z"/><path d="M453.72,158.36l.12,1.34a3.21,3.21,0,0,1,1.12-1.11,3,3,0,0,1,1.53-.39,2.92,2.92,0,0,1,2.25.85,3.72,3.72,0,0,1,.79,2.62v5.65H457.9V161.7a2.43,2.43,0,0,0-.47-1.68,1.86,1.86,0,0,0-1.42-.5,2.43,2.43,0,0,0-1.28.31,2.26,2.26,0,0,0-.84.84v6.65h-1.63v-9Z"/><path d="M465.46,166.22a1.91,1.91,0,0,0,1.31-.5,1.58,1.58,0,0,0,.56-1.23h1.48l0,0a2.57,2.57,0,0,1-1,2.05,3.8,3.8,0,0,1-5.3-.38,5,5,0,0,1-1-3.19v-.35a4.88,4.88,0,0,1,1-3.18,3.49,3.49,0,0,1,2.91-1.29,3.38,3.38,0,0,1,2.45.93,2.91,2.91,0,0,1,.92,2.27v0h-1.49a2,2,0,0,0-.53-1.39,1.74,1.74,0,0,0-1.34-.58,1.88,1.88,0,0,0-1.75.93,4.35,4.35,0,0,0-.55,2.26V163a4.46,4.46,0,0,0,.54,2.27A1.88,1.88,0,0,0,465.46,166.22Z"/><path d="M472.53,156.07H470.9v-1.66h1.63Zm0,11.25H470.9v-9h1.63Z"/><path d="M476.5,158.36l.11,1.34a3.21,3.21,0,0,1,1.12-1.11,3,3,0,0,1,1.54-.39,2.91,2.91,0,0,1,2.24.85,3.72,3.72,0,0,1,.79,2.62v5.65h-1.63V161.7a2.43,2.43,0,0,0-.46-1.68,1.88,1.88,0,0,0-1.43-.5,2.45,2.45,0,0,0-1.28.31,2.16,2.16,0,0,0-.83.84v6.65H475v-9Z"/><path d="M484.38,163a6,6,0,0,1,.92-3.49,3,3,0,0,1,2.58-1.32,3.13,3.13,0,0,1,1.5.34,3,3,0,0,1,1.08,1l.2-1.17H492v9a3.39,3.39,0,0,1-1,2.64,4.1,4.1,0,0,1-2.89.93,6,6,0,0,1-1.39-.18,5.25,5.25,0,0,1-1.32-.49l.25-1.26a4.79,4.79,0,0,0,1.13.4,6.07,6.07,0,0,0,1.32.15,2.38,2.38,0,0,0,1.73-.54,2.25,2.25,0,0,0,.54-1.65v-1a2.77,2.77,0,0,1-1.05.85,3.17,3.17,0,0,1-1.41.29,3.05,3.05,0,0,1-2.57-1.19,5,5,0,0,1-.92-3.12Zm1.63.17a3.82,3.82,0,0,0,.56,2.17,1.91,1.91,0,0,0,1.71.82,2.1,2.1,0,0,0,1.23-.34,2.52,2.52,0,0,0,.82-.94v-4.13a2.46,2.46,0,0,0-.82-.9,2.08,2.08,0,0,0-1.21-.34,1.87,1.87,0,0,0-1.73,1A5.06,5.06,0,0,0,486,163Z"/><path d="M500.78,156.2v2.16h1.7v1.21h-1.7V165a1.26,1.26,0,0,0,.26.89,1,1,0,0,0,.7.25,1.25,1.25,0,0,0,.31,0l.29-.07.22,1.11a1.54,1.54,0,0,1-.53.25,2.94,2.94,0,0,1-.71.09,2.11,2.11,0,0,1-1.58-.6,2.61,2.61,0,0,1-.59-1.88v-5.44h-1.42v-1.21h1.42V156.2Z"/><path d="M505.86,159.56a3.36,3.36,0,0,1,1.13-1,3.14,3.14,0,0,1,1.5-.36,2.91,2.91,0,0,1,2.23.86,3.8,3.8,0,0,1,.8,2.65v5.61h-1.63v-5.63a2.4,2.4,0,0,0-.48-1.64,1.83,1.83,0,0,0-1.42-.53,2.63,2.63,0,0,0-1.26.29,2.31,2.31,0,0,0-.87.8v6.71h-1.63V154.41h1.63Z"/><path d="M517.57,167.49a3.79,3.79,0,0,1-3-1.23,4.73,4.73,0,0,1-1.08-3.24v-.37a4.66,4.66,0,0,1,1.11-3.19,3.49,3.49,0,0,1,2.72-1.26,3.23,3.23,0,0,1,2.69,1.12,4.58,4.58,0,0,1,.9,3v.86h-5.73l0,0a3.68,3.68,0,0,0,.6,2.19,2.07,2.07,0,0,0,1.82.84A4,4,0,0,0,519,166a3,3,0,0,0,1.07-.65l.64,1.06a3.82,3.82,0,0,1-1.27.78A4.85,4.85,0,0,1,517.57,167.49Zm-.26-8a1.76,1.76,0,0,0-1.41.66,3.11,3.11,0,0,0-.68,1.68v.05h4v-.14a2.59,2.59,0,0,0-.48-1.61A1.72,1.72,0,0,0,517.31,159.48Z"/><path d="M533.59,164.28a1.82,1.82,0,0,0-.59-1.37,4.87,4.87,0,0,0-2.07-.95,6.91,6.91,0,0,1-2.87-1.34,2.83,2.83,0,0,1-1-2.22,3,3,0,0,1,1.11-2.36,4.29,4.29,0,0,1,2.88-.94,4.23,4.23,0,0,1,3,1.08,3.28,3.28,0,0,1,1.09,2.52l0,.05h-1.56a2.25,2.25,0,0,0-.71-1.7,2.57,2.57,0,0,0-1.84-.67,2.52,2.52,0,0,0-1.75.55,1.88,1.88,0,0,0-.61,1.44,1.61,1.61,0,0,0,.67,1.31,6.25,6.25,0,0,0,2.16.93,6.15,6.15,0,0,1,2.78,1.39,3,3,0,0,1,1,2.26,2.81,2.81,0,0,1-1.15,2.35,4.75,4.75,0,0,1-3,.88,5.09,5.09,0,0,1-3.08-1,3,3,0,0,1-1.3-2.62l0-.05h1.55a2,2,0,0,0,.87,1.75,3.25,3.25,0,0,0,1.94.62,3,3,0,0,0,1.83-.52A1.7,1.7,0,0,0,533.59,164.28Z"/><path d="M537.53,167.32v-12h3.79a5,5,0,0,1,5.23,5.2v1.65a5,5,0,0,1-5.23,5.2Zm1.63-10.77V166h2.16a3.29,3.29,0,0,0,2.63-1.1,4.08,4.08,0,0,0,1-2.82v-1.66a4.09,4.09,0,0,0-1-2.81,3.32,3.32,0,0,0-2.63-1.1Z"/><path d="M557.67,165.7a4.06,4.06,0,0,1-1.49,1.23,6,6,0,0,1-2.76.56,4.65,4.65,0,0,1-3.45-1.38,4.82,4.82,0,0,1-1.37-3.57v-2.49a5,5,0,0,1,1.32-3.57,4.45,4.45,0,0,1,3.39-1.38,4.5,4.5,0,0,1,3.18,1.07,3.45,3.45,0,0,1,1.13,2.72l0,.05H556a2.54,2.54,0,0,0-.71-1.83,2.69,2.69,0,0,0-2-.73,2.73,2.73,0,0,0-2.23,1,4,4,0,0,0-.84,2.63v2.5a3.92,3.92,0,0,0,.89,2.64,2.9,2.9,0,0,0,2.29,1,4.16,4.16,0,0,0,1.69-.28,2.34,2.34,0,0,0,.93-.66v-2.71h-2.73v-1.28h4.36Z"/><path d="M565.46,164.91a1.08,1.08,0,0,0-.41-.88,4,4,0,0,0-1.55-.59,6.79,6.79,0,0,1-2.43-.95,1.94,1.94,0,0,1-.84-1.64,2.36,2.36,0,0,1,.93-1.87A4.1,4.1,0,0,1,566,159a2.38,2.38,0,0,1,.9,1.92l0,.05h-1.56a1.41,1.41,0,0,0-.5-1.05,1.84,1.84,0,0,0-1.29-.47,1.88,1.88,0,0,0-1.29.39,1.23,1.23,0,0,0-.42.93,1,1,0,0,0,.36.82,4.23,4.23,0,0,0,1.52.53,6.47,6.47,0,0,1,2.5,1,2,2,0,0,1,.85,1.66,2.36,2.36,0,0,1-1,2,4.62,4.62,0,0,1-5.22-.12,2.46,2.46,0,0,1-.93-2v0h1.56a1.5,1.5,0,0,0,.65,1.27,2.53,2.53,0,0,0,1.41.4,2.2,2.2,0,0,0,1.36-.37A1.13,1.13,0,0,0,565.46,164.91Z"/><path d="M570.55,166.92l-1.25,2.53h-1l.58-2.61v-1.35h1.63Z"/><path d="M287.17,176.54v2.16h1.69v1.21h-1.69v5.44a1.17,1.17,0,0,0,.26.88.94.94,0,0,0,.69.26,1.2,1.2,0,0,0,.31,0,1.48,1.48,0,0,0,.29-.08l.22,1.12a1.54,1.54,0,0,1-.53.25,2.88,2.88,0,0,1-.71.09,2.11,2.11,0,0,1-1.58-.6,2.61,2.61,0,0,1-.58-1.88v-5.44h-1.43V178.7h1.43v-2.16Z"/><path d="M292.24,179.9a3.3,3.3,0,0,1,1.14-1,3.1,3.1,0,0,1,1.49-.36,2.87,2.87,0,0,1,2.23.86,3.78,3.78,0,0,1,.8,2.65v5.61h-1.63V182a2.38,2.38,0,0,0-.48-1.64,1.81,1.81,0,0,0-1.42-.53,2.66,2.66,0,0,0-1.26.29,2.23,2.23,0,0,0-.87.8v6.71h-1.63V174.75h1.63Z"/><path d="M304.48,180.14l-.84,0a1.92,1.92,0,0,0-1.09.31,2,2,0,0,0-.68.86v6.4h-1.63v-9h1.46l.15,1.31a3.22,3.22,0,0,1,.94-1.08,2.23,2.23,0,0,1,1.29-.39,2,2,0,0,1,.35,0l.27.06Z"/><path d="M305.63,183.1a5,5,0,0,1,1.07-3.28,4,4,0,0,1,5.87,0,4.91,4.91,0,0,1,1.08,3.28v.18a4.91,4.91,0,0,1-1.08,3.28,4,4,0,0,1-5.86,0,4.88,4.88,0,0,1-1.08-3.27Zm1.63.18a4.25,4.25,0,0,0,.6,2.35,2.16,2.16,0,0,0,3.55,0,4.17,4.17,0,0,0,.61-2.35v-.18a4.3,4.3,0,0,0-.61-2.35,2,2,0,0,0-1.78-.93,2,2,0,0,0-1.77.93,4.29,4.29,0,0,0-.6,2.35Z"/><path d="M321.33,186.33a3.06,3.06,0,0,1-1.09,1.11,3,3,0,0,1-1.53.39,2.86,2.86,0,0,1-2.28-.93,4.35,4.35,0,0,1-.82-2.92V178.7h1.63V184a3.36,3.36,0,0,0,.42,2,1.57,1.57,0,0,0,1.32.54,2.62,2.62,0,0,0,1.43-.36,2.14,2.14,0,0,0,.86-1V178.7h1.63v9h-1.47Z"/><path d="M325,183.35a6,6,0,0,1,.93-3.49,3,3,0,0,1,2.57-1.32,3,3,0,0,1,2.59,1.33l.2-1.17h1.29v9a3.42,3.42,0,0,1-1,2.64,4.08,4.08,0,0,1-2.89.92,6,6,0,0,1-1.39-.18,5.25,5.25,0,0,1-1.32-.48l.25-1.27a4.71,4.71,0,0,0,1.14.41,5.92,5.92,0,0,0,1.31.15,2.38,2.38,0,0,0,1.73-.54,2.25,2.25,0,0,0,.54-1.65v-1a2.86,2.86,0,0,1-1.05.85,3.32,3.32,0,0,1-1.41.29,3.06,3.06,0,0,1-2.56-1.19,4.91,4.91,0,0,1-.93-3.12Zm1.63.17a3.82,3.82,0,0,0,.56,2.17,1.94,1.94,0,0,0,1.71.82,2.17,2.17,0,0,0,1.23-.34,2.4,2.4,0,0,0,.82-.95V181.1a2.46,2.46,0,0,0-.82-.9,2.08,2.08,0,0,0-1.21-.34,1.86,1.86,0,0,0-1.73,1,5,5,0,0,0-.56,2.52Z"/><path d="M336.54,179.9a3.36,3.36,0,0,1,1.13-1,3.14,3.14,0,0,1,1.5-.36,2.87,2.87,0,0,1,2.23.86,3.78,3.78,0,0,1,.8,2.65v5.61h-1.63V182a2.38,2.38,0,0,0-.48-1.64,1.83,1.83,0,0,0-1.42-.53,2.63,2.63,0,0,0-1.26.29,2.23,2.23,0,0,0-.87.8v6.71h-1.63V174.75h1.63Z"/><path d="M354.25,187.66q-.08-.41-.12-.72c0-.21-.05-.41-.06-.62a3.76,3.76,0,0,1-1.19,1.08,3,3,0,0,1-1.57.43,2.92,2.92,0,0,1-2.13-.72,2.6,2.6,0,0,1-.73-2,2.33,2.33,0,0,1,1-2,4.91,4.91,0,0,1,2.82-.72h1.77v-.89a1.64,1.64,0,0,0-.48-1.24,1.86,1.86,0,0,0-1.35-.46,2,2,0,0,0-1.29.4,1.2,1.2,0,0,0-.49.95l-1.54,0,0-.05a2.15,2.15,0,0,1,.91-1.79,3.81,3.81,0,0,1,2.52-.81,3.74,3.74,0,0,1,2.45.77,2.77,2.77,0,0,1,.92,2.23v4.31c0,.32,0,.63.05.93a6.54,6.54,0,0,0,.18.88Zm-2.7-1.2a3,3,0,0,0,1.6-.45,2.14,2.14,0,0,0,.92-1v-1.46h-1.83a2.36,2.36,0,0,0-1.57.5,1.46,1.46,0,0,0-.59,1.16,1.23,1.23,0,0,0,.37,1A1.56,1.56,0,0,0,351.55,186.46Z"/><path d="M359.53,178.7l.11,1.33a3.27,3.27,0,0,1,1.12-1.1,3,3,0,0,1,1.54-.39,2.91,2.91,0,0,1,2.24.85,3.69,3.69,0,0,1,.8,2.61v5.66h-1.63V182a2.43,2.43,0,0,0-.47-1.68,1.88,1.88,0,0,0-1.43-.5,2.55,2.55,0,0,0-1.28.3,2.19,2.19,0,0,0-.83.85v6.65h-1.63v-9Z"/><path d="M373.68,176.41h-1.63v-1.66h1.63Zm0,11.25h-1.63v-9h1.63Z"/><path d="M377.64,178.7l.12,1.33a3.18,3.18,0,0,1,1.12-1.1,3,3,0,0,1,1.53-.39,2.92,2.92,0,0,1,2.25.85,3.69,3.69,0,0,1,.79,2.61v5.66h-1.63V182a2.43,2.43,0,0,0-.47-1.68,1.88,1.88,0,0,0-1.43-.5,2.51,2.51,0,0,0-1.27.3,2.28,2.28,0,0,0-.84.85v6.65h-1.63v-9Z"/><path d="M387.27,178.7l.12,1.33a3.27,3.27,0,0,1,1.12-1.1,3,3,0,0,1,1.54-.39,2.91,2.91,0,0,1,2.24.85,3.69,3.69,0,0,1,.79,2.61v5.66h-1.63V182a2.43,2.43,0,0,0-.46-1.68,1.9,1.9,0,0,0-1.43-.5,2.55,2.55,0,0,0-1.28.3,2.19,2.19,0,0,0-.83.85v6.65h-1.63v-9Z"/><path d="M395.07,183.1a5,5,0,0,1,1.07-3.28,4,4,0,0,1,5.87,0,4.91,4.91,0,0,1,1.08,3.28v.18a4.91,4.91,0,0,1-1.08,3.28,4,4,0,0,1-5.86,0,4.88,4.88,0,0,1-1.08-3.27Zm1.63.18a4.25,4.25,0,0,0,.6,2.35,2.16,2.16,0,0,0,3.55,0,4.17,4.17,0,0,0,.61-2.35v-.18a4.21,4.21,0,0,0-.61-2.35,2,2,0,0,0-1.78-.93,2,2,0,0,0-1.77.93,4.29,4.29,0,0,0-.6,2.35Z"/><path d="M408,185l.14.63h.05l.15-.63,2.06-6.32H412l-3.3,9h-1.23l-3.33-9h1.67Z"/><path d="M418.86,187.66c-.05-.27-.1-.51-.13-.72a4.32,4.32,0,0,1-.05-.62,3.76,3.76,0,0,1-1.19,1.08,3,3,0,0,1-1.58.43,2.92,2.92,0,0,1-2.13-.72,2.64,2.64,0,0,1-.73-2,2.34,2.34,0,0,1,1-2,4.87,4.87,0,0,1,2.82-.72h1.77v-.89a1.64,1.64,0,0,0-.48-1.24,1.87,1.87,0,0,0-1.36-.46,1.92,1.92,0,0,0-1.28.4,1.17,1.17,0,0,0-.49.95l-1.55,0v-.05a2.12,2.12,0,0,1,.91-1.79,3.8,3.8,0,0,1,2.51-.81,3.72,3.72,0,0,1,2.45.77,2.74,2.74,0,0,1,.93,2.23v4.31c0,.32,0,.63.05.93a4.44,4.44,0,0,0,.18.88Zm-2.71-1.2a2.93,2.93,0,0,0,1.6-.45,2.11,2.11,0,0,0,.93-1v-1.46h-1.83a2.39,2.39,0,0,0-1.58.5,1.49,1.49,0,0,0-.59,1.16,1.26,1.26,0,0,0,.37,1A1.58,1.58,0,0,0,416.15,186.46Z"/><path d="M424.94,176.54v2.16h1.7v1.21h-1.7v5.44a1.22,1.22,0,0,0,.26.88,1,1,0,0,0,.7.26,1.25,1.25,0,0,0,.31,0,1.48,1.48,0,0,0,.29-.08l.22,1.12a1.54,1.54,0,0,1-.53.25,2.94,2.94,0,0,1-.71.09,2.11,2.11,0,0,1-1.58-.6,2.61,2.61,0,0,1-.59-1.88v-5.44h-1.42V178.7h1.42v-2.16Z"/><path d="M430.15,176.41h-1.63v-1.66h1.63Zm0,11.25h-1.63v-9h1.63Z"/><path d="M435.64,185l.14.63h.05L436,185l2.06-6.32h1.67l-3.3,9h-1.23l-3.34-9h1.68Z"/><path d="M444.78,187.83a3.79,3.79,0,0,1-3-1.23,4.76,4.76,0,0,1-1.08-3.25V183a4.64,4.64,0,0,1,1.11-3.19,3.51,3.51,0,0,1,2.72-1.26,3.27,3.27,0,0,1,2.7,1.11,4.62,4.62,0,0,1,.89,3v.86h-5.72l0,0a3.68,3.68,0,0,0,.6,2.19,2.08,2.08,0,0,0,1.82.84,4,4,0,0,0,1.45-.24,3.1,3.1,0,0,0,1.07-.65l.64,1.06a3.82,3.82,0,0,1-1.27.78A5,5,0,0,1,444.78,187.83Zm-.26-8a1.78,1.78,0,0,0-1.41.66,3.11,3.11,0,0,0-.68,1.68l0,0h4v-.13a2.59,2.59,0,0,0-.48-1.61A1.72,1.72,0,0,0,444.52,179.82Z"/><path d="M455.61,178.7l.12,1.18a2.93,2.93,0,0,1,1.11-1,3.28,3.28,0,0,1,1.57-.35,2.69,2.69,0,0,1,1.53.41,2.55,2.55,0,0,1,1,1.24A3.35,3.35,0,0,1,462,179a2.89,2.89,0,0,1,1.62-.44,2.67,2.67,0,0,1,2.16.94,4.26,4.26,0,0,1,.79,2.82v5.36H465v-5.37a3,3,0,0,0-.45-1.88,1.67,1.67,0,0,0-1.36-.55,1.7,1.7,0,0,0-1.35.58,2.49,2.49,0,0,0-.61,1.47v5.75h-1.64v-5.37a3,3,0,0,0-.47-1.85,1.64,1.64,0,0,0-1.34-.58,2.2,2.2,0,0,0-1.23.31,1.93,1.93,0,0,0-.73.86v6.63h-1.63v-9Z"/><path d="M470.73,176.41H469.1v-1.66h1.63Zm0,11.25H469.1v-9h1.63Z"/><path d="M476.28,182l1.9-3.3h1.9l-2.9,4.43,3,4.53H478.3l-2-3.39-2,3.39h-1.88l3-4.53-2.9-4.43h1.88Z"/><path d="M485.59,183.1a4.93,4.93,0,0,1,1.08-3.28,4,4,0,0,1,5.86,0,4.91,4.91,0,0,1,1.08,3.28v.18a5,5,0,0,1-1.07,3.28,4,4,0,0,1-5.87,0,4.88,4.88,0,0,1-1.08-3.27Zm1.63.18a4.25,4.25,0,0,0,.6,2.35,2,2,0,0,0,1.79.93,2,2,0,0,0,1.77-.93,4.25,4.25,0,0,0,.6-2.35v-.18a4.21,4.21,0,0,0-.61-2.35,2.16,2.16,0,0,0-3.55,0,4.29,4.29,0,0,0-.6,2.35Z"/><path d="M496.29,187.66v-7.75h-1.4V178.7h1.4v-1.13a3,3,0,0,1,.75-2.21,2.71,2.71,0,0,1,2.09-.79,3.64,3.64,0,0,1,.56.05c.19,0,.4.07.63.13l-.19,1.24-.36-.06a3.24,3.24,0,0,0-.45,0,1.31,1.31,0,0,0-1.06.42,2,2,0,0,0-.34,1.24v1.13h1.62v1.21h-1.62v7.75Z"/><path d="M513,183.52a4.91,4.91,0,0,1-.93,3.12,3.07,3.07,0,0,1-2.56,1.19,3.47,3.47,0,0,1-1.45-.28,2.67,2.67,0,0,1-1.06-.83v4.38H505.4V178.7h1.25l.25,1.16a2.94,2.94,0,0,1,1.1-1,3.19,3.19,0,0,1,1.52-.34,3,3,0,0,1,2.58,1.32,5.93,5.93,0,0,1,.93,3.49Zm-1.63-.17a4.76,4.76,0,0,0-.6-2.51,2,2,0,0,0-1.77-1,2.19,2.19,0,0,0-1.2.32,2.32,2.32,0,0,0-.8.87v4.33a2.14,2.14,0,0,0,2,1.18,2,2,0,0,0,1.75-.85,3.73,3.73,0,0,0,.6-2.19Z"/><path d="M520.72,186.33a3.14,3.14,0,0,1-1.09,1.11,3,3,0,0,1-1.53.39,2.86,2.86,0,0,1-2.28-.93A4.35,4.35,0,0,1,515,184V178.7h1.63V184a3.36,3.36,0,0,0,.42,2,1.57,1.57,0,0,0,1.32.54,2.64,2.64,0,0,0,1.43-.36,2.2,2.2,0,0,0,.86-1V178.7h1.63v9h-1.47Z"/><path d="M532.31,183.52a4.91,4.91,0,0,1-.93,3.12,3.09,3.09,0,0,1-2.56,1.19,3.25,3.25,0,0,1-1.55-.35,2.86,2.86,0,0,1-1.09-1l-.27,1.22h-1.25V174.75h1.63v5a2.78,2.78,0,0,1,1.05-.91,3.2,3.2,0,0,1,1.46-.31,3,3,0,0,1,2.58,1.32,6,6,0,0,1,.93,3.49Zm-1.63-.17a5,5,0,0,0-.57-2.52,1.88,1.88,0,0,0-1.72-1,2.08,2.08,0,0,0-1.27.37,2.54,2.54,0,0,0-.83,1v3.88a2.61,2.61,0,0,0,.83,1,2.09,2.09,0,0,0,1.28.38,2,2,0,0,0,1.72-.82,3.82,3.82,0,0,0,.56-2.17Z"/><path d="M536.06,187.66h-1.63V174.75h1.63Z"/><path d="M540.33,176.41H538.7v-1.66h1.63Zm0,11.25H538.7v-9h1.63Z"/><path d="M546.39,186.56a1.94,1.94,0,0,0,1.32-.5,1.62,1.62,0,0,0,.56-1.23h1.48l0,0a2.58,2.58,0,0,1-1,2.05,3.8,3.8,0,0,1-5.3-.38,5,5,0,0,1-1-3.2V183a4.93,4.93,0,0,1,1-3.19,3.51,3.51,0,0,1,2.9-1.28,3.42,3.42,0,0,1,2.46.92,3,3,0,0,1,.92,2.28l0,0h-1.48a2,2,0,0,0-.53-1.4,1.78,1.78,0,0,0-1.35-.57,1.89,1.89,0,0,0-1.75.93,4.42,4.42,0,0,0-.55,2.26v.34a4.38,4.38,0,0,0,.55,2.28A1.87,1.87,0,0,0,546.39,186.56Z"/><path d="M341.92,208c-.06-.27-.1-.5-.13-.71s-.05-.42-.06-.63a3.84,3.84,0,0,1-1.18,1.08,3.06,3.06,0,0,1-1.58.44,2.92,2.92,0,0,1-2.13-.72,2.6,2.6,0,0,1-.73-2,2.29,2.29,0,0,1,1-2,4.85,4.85,0,0,1,2.81-.72h1.77v-.89a1.63,1.63,0,0,0-.48-1.24,1.86,1.86,0,0,0-1.35-.46,2,2,0,0,0-1.29.39,1.22,1.22,0,0,0-.48,1h-1.55l0-.05a2.13,2.13,0,0,1,.92-1.78,4.24,4.24,0,0,1,5,0,2.72,2.72,0,0,1,.92,2.23v4.31c0,.32,0,.63.05.93a5,5,0,0,0,.19.87Zm-2.71-1.19a3,3,0,0,0,1.6-.45,2.16,2.16,0,0,0,.92-1v-1.45H339.9a2.36,2.36,0,0,0-1.57.49,1.48,1.48,0,0,0-.59,1.17,1.21,1.21,0,0,0,.37.94A1.52,1.52,0,0,0,339.21,206.8Z"/><path d="M347.19,199l.11,1.33a3.27,3.27,0,0,1,1.12-1.1,3,3,0,0,1,1.54-.4,2.93,2.93,0,0,1,2.24.85,3.73,3.73,0,0,1,.8,2.62V208h-1.63v-5.61a2.43,2.43,0,0,0-.47-1.68,1.84,1.84,0,0,0-1.43-.5,2.55,2.55,0,0,0-1.28.3,2.19,2.19,0,0,0-.83.85V208h-1.63v-9Z"/><path d="M355,203.68a6,6,0,0,1,.92-3.48,3,3,0,0,1,2.59-1.33,3.23,3.23,0,0,1,1.39.29,2.85,2.85,0,0,1,1,.85v-4.93h1.63V208h-1.25l-.24-1.13a3,3,0,0,1-1.09,1,3.25,3.25,0,0,1-1.5.33,3.07,3.07,0,0,1-2.56-1.19,4.91,4.91,0,0,1-.93-3.12Zm1.63.18a3.79,3.79,0,0,0,.56,2.17,1.94,1.94,0,0,0,1.72.81,2.16,2.16,0,0,0,1.22-.33,2.51,2.51,0,0,0,.81-.92v-4.18a2.46,2.46,0,0,0-.81-.88,2.17,2.17,0,0,0-1.21-.33,1.85,1.85,0,0,0-1.73,1,5,5,0,0,0-.56,2.51Z"/><path d="M376.84,203.86a4.91,4.91,0,0,1-.93,3.12,3.07,3.07,0,0,1-2.56,1.19,3.47,3.47,0,0,1-1.45-.28,2.74,2.74,0,0,1-1.06-.83v4.38h-1.63V199h1.25l.25,1.16a3.06,3.06,0,0,1,1.1-1,3.31,3.31,0,0,1,1.52-.34,3,3,0,0,1,2.59,1.32,6,6,0,0,1,.92,3.49Zm-1.63-.18a4.72,4.72,0,0,0-.6-2.5,2,2,0,0,0-1.77-1,2.19,2.19,0,0,0-1.2.32,2.32,2.32,0,0,0-.8.87v4.33a2.15,2.15,0,0,0,2,1.17,2,2,0,0,0,1.75-.84,3.73,3.73,0,0,0,.6-2.19Z"/><path d="M383.08,200.48l-.84,0a1.84,1.84,0,0,0-1.09.31,2,2,0,0,0-.68.86V208h-1.63v-9h1.46l.15,1.31a3.17,3.17,0,0,1,.94-1.09,2.23,2.23,0,0,1,1.29-.39,2,2,0,0,1,.35,0,1.31,1.31,0,0,1,.27.07Z"/><path d="M386.54,196.75h-1.63v-1.67h1.63Zm0,11.24h-1.63v-9h1.63Z"/><path d="M392,205.35l.14.63h.05l.16-.63,2.06-6.31h1.66l-3.29,9h-1.23l-3.34-9h1.67Z"/><path d="M403,208c-.06-.27-.1-.5-.13-.71a4.46,4.46,0,0,1-.05-.63,3.87,3.87,0,0,1-1.19,1.08,3.06,3.06,0,0,1-1.58.44,2.92,2.92,0,0,1-2.13-.72,2.6,2.6,0,0,1-.73-2,2.29,2.29,0,0,1,1-2,4.85,4.85,0,0,1,2.81-.72h1.78v-.89a1.63,1.63,0,0,0-.48-1.24,1.88,1.88,0,0,0-1.36-.46,2,2,0,0,0-1.28.39,1.2,1.2,0,0,0-.49,1h-1.55l0-.05a2.13,2.13,0,0,1,.92-1.78,3.74,3.74,0,0,1,2.51-.82,3.69,3.69,0,0,1,2.45.78,2.73,2.73,0,0,1,.93,2.23v4.31a7.06,7.06,0,0,0,.05.93,4.2,4.2,0,0,0,.18.87Zm-2.71-1.19a3,3,0,0,0,1.6-.45,2.24,2.24,0,0,0,.93-1v-1.45h-1.83a2.37,2.37,0,0,0-1.58.49,1.51,1.51,0,0,0-.59,1.17,1.21,1.21,0,0,0,.37.94A1.53,1.53,0,0,0,400.24,206.8Z"/><path d="M409,196.88V199h1.7v1.21H409v5.44a1.23,1.23,0,0,0,.26.88,1,1,0,0,0,.69.26,2,2,0,0,0,.32,0,1.71,1.71,0,0,0,.29-.08l.22,1.12a1.36,1.36,0,0,1-.54.24,2.47,2.47,0,0,1-.7.1,2.11,2.11,0,0,1-1.58-.6,2.61,2.61,0,0,1-.59-1.88v-5.44H406V199h1.42v-2.16Z"/><path d="M416.18,208.17a3.76,3.76,0,0,1-3-1.24,4.73,4.73,0,0,1-1.08-3.24v-.36a4.64,4.64,0,0,1,1.11-3.19,3.52,3.52,0,0,1,2.72-1.27,3.28,3.28,0,0,1,2.7,1.12,4.61,4.61,0,0,1,.89,3v.86h-5.72l0,0a3.68,3.68,0,0,0,.6,2.19,2.08,2.08,0,0,0,1.82.84,4.24,4.24,0,0,0,1.45-.23,3.26,3.26,0,0,0,1.07-.65l.64,1.06a3.82,3.82,0,0,1-1.27.78A5,5,0,0,1,416.18,208.17Zm-.26-8a1.78,1.78,0,0,0-1.41.66,3.08,3.08,0,0,0-.68,1.68l0,0h4v-.13a2.64,2.64,0,0,0-.48-1.62A1.74,1.74,0,0,0,415.92,200.16Z"/><path d="M426,208v-7.74H424.6V199H426v-1a3.07,3.07,0,0,1,.88-2.33,3.46,3.46,0,0,1,2.45-.83,4.45,4.45,0,0,1,1.09.13,11.89,11.89,0,0,1,1.27.38l-.29,1.32a6.33,6.33,0,0,0-.93-.3,4.31,4.31,0,0,0-1-.12,1.88,1.88,0,0,0-1.39.43,1.78,1.78,0,0,0-.43,1.32v1h1.78v1.21h-1.78V208Zm6.48,0h-1.64v-9h1.64Z"/><path d="M436.45,199l.11,1.33a3.27,3.27,0,0,1,1.12-1.1,3,3,0,0,1,1.54-.4,3,3,0,0,1,2.24.85,3.73,3.73,0,0,1,.8,2.62V208h-1.63v-5.61a2.43,2.43,0,0,0-.47-1.68,1.84,1.84,0,0,0-1.43-.5,2.55,2.55,0,0,0-1.28.3,2.12,2.12,0,0,0-.83.85V208H435v-9Z"/><path d="M450.13,208c-.06-.27-.1-.5-.13-.71s-.05-.42-.06-.63a3.84,3.84,0,0,1-1.18,1.08,3.06,3.06,0,0,1-1.58.44,2.92,2.92,0,0,1-2.13-.72,2.6,2.6,0,0,1-.73-2,2.31,2.31,0,0,1,1-2,4.91,4.91,0,0,1,2.82-.72h1.77v-.89a1.63,1.63,0,0,0-.48-1.24,1.86,1.86,0,0,0-1.35-.46,2,2,0,0,0-1.29.39,1.22,1.22,0,0,0-.48,1h-1.55l0-.05a2.13,2.13,0,0,1,.92-1.78,4.24,4.24,0,0,1,5,0,2.72,2.72,0,0,1,.92,2.23v4.31c0,.32,0,.63.05.93a5,5,0,0,0,.19.87Zm-2.71-1.19a3,3,0,0,0,1.6-.45,2.16,2.16,0,0,0,.92-1v-1.45h-1.83a2.36,2.36,0,0,0-1.57.49,1.48,1.48,0,0,0-.59,1.17,1.21,1.21,0,0,0,.37.94A1.52,1.52,0,0,0,447.42,206.8Z"/><path d="M455.4,199l.11,1.33a3.27,3.27,0,0,1,1.12-1.1,3,3,0,0,1,1.54-.4,3,3,0,0,1,2.24.85,3.73,3.73,0,0,1,.8,2.62V208h-1.63v-5.61a2.43,2.43,0,0,0-.47-1.68,1.84,1.84,0,0,0-1.43-.5,2.55,2.55,0,0,0-1.28.3,2.12,2.12,0,0,0-.83.85V208h-1.63v-9Z"/><path d="M467.13,206.89a1.91,1.91,0,0,0,1.32-.5,1.59,1.59,0,0,0,.56-1.23h1.47l0,.05a2.58,2.58,0,0,1-1,2.06,3.8,3.8,0,0,1-5.3-.38,5,5,0,0,1-1-3.2v-.35a5,5,0,0,1,1-3.18,3.52,3.52,0,0,1,2.91-1.29,3.39,3.39,0,0,1,2.46.93,3,3,0,0,1,.92,2.28l0,0H469a2,2,0,0,0-.53-1.4,1.78,1.78,0,0,0-1.35-.57,1.89,1.89,0,0,0-1.75.93,4.31,4.31,0,0,0-.55,2.25v.35a4.47,4.47,0,0,0,.54,2.28A1.89,1.89,0,0,0,467.13,206.89Z"/><path d="M474.21,196.75h-1.63v-1.67h1.63Zm0,11.24h-1.63v-9h1.63Z"/><path d="M478.17,199l.12,1.33a3.27,3.27,0,0,1,1.12-1.1,3,3,0,0,1,1.53-.4,3,3,0,0,1,2.25.85,3.73,3.73,0,0,1,.79,2.62V208h-1.63v-5.61a2.43,2.43,0,0,0-.47-1.68,1.82,1.82,0,0,0-1.42-.5,2.53,2.53,0,0,0-1.28.3,2.21,2.21,0,0,0-.84.85V208h-1.63v-9Z"/><path d="M486.06,203.68a6,6,0,0,1,.92-3.48,3,3,0,0,1,2.58-1.33,3.13,3.13,0,0,1,1.5.35,3,3,0,0,1,1.08,1l.2-1.17h1.3v9a3.46,3.46,0,0,1-1,2.65,4.14,4.14,0,0,1-2.89.92,6,6,0,0,1-1.4-.18A5.67,5.67,0,0,1,487,211l.25-1.27a4.6,4.6,0,0,0,1.14.4,5.4,5.4,0,0,0,1.31.16,2.36,2.36,0,0,0,1.74-.55A2.25,2.25,0,0,0,492,208v-1a2.86,2.86,0,0,1-1.05.85,3.33,3.33,0,0,1-1.42.29A3.07,3.07,0,0,1,487,207a5,5,0,0,1-.92-3.12Zm1.63.18a3.76,3.76,0,0,0,.55,2.16,1.92,1.92,0,0,0,1.72.82,2.17,2.17,0,0,0,1.23-.33,2.57,2.57,0,0,0,.82-.95v-4.12a2.67,2.67,0,0,0-.82-.91,2.18,2.18,0,0,0-1.22-.33,1.84,1.84,0,0,0-1.72,1,4.89,4.89,0,0,0-.56,2.51Z"/><path class="cls-1" d="M390.66,105.62a3.16,3.16,0,0,1,.62,2,2.94,2.94,0,0,1-1.3,2.58,6.7,6.7,0,0,1-3.81.91h-6.6V98.33h6.24a6.18,6.18,0,0,1,3.59.89,2.85,2.85,0,0,1,1.25,2.43,3.08,3.08,0,0,1-.45,1.66,3.16,3.16,0,0,1-1.25,1.15A3.34,3.34,0,0,1,390.66,105.62Zm-8.15-5.06v3h2.93a2.91,2.91,0,0,0,1.66-.39,1.27,1.27,0,0,0,.57-1.13,1.25,1.25,0,0,0-.57-1.12,3,3,0,0,0-1.66-.37Zm5.21,7.94a1.33,1.33,0,0,0,.59-1.19c0-1.06-.79-1.59-2.36-1.59h-3.44v3.16H386A3.37,3.37,0,0,0,387.72,108.5Z"/><path class="cls-1" d="M393.53,98.33h3v12.78h-3Z"/><path class="cls-1" d="M399.52,98.33h3V108.7h6.41v2.41h-9.36Z"/><path class="cls-1" d="M410.54,98.33h3V108.7h6.4v2.41h-9.36Z"/><path class="cls-1" d="M421.56,98.33h3v12.78h-3Z"/><path class="cls-1" d="M430.15,110.47a6.34,6.34,0,0,1-2.5-2.37,6.51,6.51,0,0,1,2.5-9.13,7.47,7.47,0,0,1,3.59-.86,7.39,7.39,0,0,1,3.57.86,6.52,6.52,0,0,1,0,11.5,7.39,7.39,0,0,1-3.57.85A7.47,7.47,0,0,1,430.15,110.47Zm5.63-2.18a3.69,3.69,0,0,0,1.43-1.45,4.58,4.58,0,0,0,0-4.24,3.69,3.69,0,0,0-1.43-1.45,4.28,4.28,0,0,0-4.09,0,3.76,3.76,0,0,0-1.43,1.45,4.58,4.58,0,0,0,0,4.24,3.76,3.76,0,0,0,1.43,1.45,4.28,4.28,0,0,0,4.09,0Z"/><path class="cls-1" d="M454.67,98.33v12.78h-2.43l-6.37-7.76v7.76H443V98.33h2.45l6.35,7.76V98.33Z"/><path class="cls-1" d="M326.21,77.56q-4.14-4.11-4.14-11.74V46.4h8V65.52q0,9.32,7.73,9.31a7.27,7.27,0,0,0,5.75-2.25c1.32-1.5,2-3.86,2-7.06V46.4h7.92V65.82q0,7.62-4.13,11.74t-11.57,4.11Q330.36,81.67,326.21,77.56Z"/><path class="cls-1" d="M364.85,80.55a18.65,18.65,0,0,1-6.17-2.89l2.73-6a18.49,18.49,0,0,0,5.3,2.63,20,20,0,0,0,6.14,1,9.8,9.8,0,0,0,5.06-1,3,3,0,0,0,1.63-2.7,2.58,2.58,0,0,0-1-2.05,7.46,7.46,0,0,0-2.48-1.32c-1-.32-2.37-.69-4.09-1.09a55,55,0,0,1-6.49-1.88,10.42,10.42,0,0,1-4.33-3,8.15,8.15,0,0,1-1.81-5.55A9.63,9.63,0,0,1,361,51.13a11,11,0,0,1,4.93-3.89A20.09,20.09,0,0,1,374,45.8a27,27,0,0,1,6.49.79A19.11,19.11,0,0,1,386,48.87L383.55,55a19.28,19.28,0,0,0-9.61-2.73,9.1,9.1,0,0,0-5,1.09,3.35,3.35,0,0,0-1.61,2.88,2.82,2.82,0,0,0,1.86,2.65,29.73,29.73,0,0,0,5.68,1.7,56,56,0,0,1,6.48,1.89,10.82,10.82,0,0,1,4.34,3,8,8,0,0,1,1.81,5.5,9.5,9.5,0,0,1-1.66,5.42,11.1,11.1,0,0,1-5,3.89,20.27,20.27,0,0,1-8.08,1.44A28.13,28.13,0,0,1,364.85,80.55Z"/><path class="cls-1" d="M416.15,77.88q-3,2.9-8.57,3.59V87h-4.95v-5.4a26.69,26.69,0,0,1-7-1.29,17.68,17.68,0,0,1-5.35-2.67l2.73-6a17.68,17.68,0,0,0,4.41,2.33,20.14,20.14,0,0,0,5.2,1.19V66.86A36.5,36.5,0,0,1,396.68,65a10.49,10.49,0,0,1-4.06-3A8.19,8.19,0,0,1,391,56.6a9.55,9.55,0,0,1,3-7.06q3-2.94,8.65-3.59v-5.5h4.95v5.4a21.83,21.83,0,0,1,10.06,3L415.16,55a19.75,19.75,0,0,0-7.58-2.58v8.42a35.53,35.53,0,0,1,5.87,1.81,10.42,10.42,0,0,1,4,3,8.1,8.1,0,0,1,1.63,5.28A9.37,9.37,0,0,1,416.15,77.88ZM399.9,58.24a7.71,7.71,0,0,0,2.73,1.33v-7A5.44,5.44,0,0,0,399.85,54a3.26,3.26,0,0,0-.89,2.26A2.54,2.54,0,0,0,399.9,58.24Zm10.36,15.4a2.91,2.91,0,0,0,.89-2.13,2.58,2.58,0,0,0-.92-2,7.85,7.85,0,0,0-2.65-1.38v6.83A5.3,5.3,0,0,0,410.26,73.64Z"/><path class="cls-1" d="M435.32,46.4V81.07h-8V52.84h-6.94V46.4Z"/><path class="cls-1" d="M442.51,80.08a4.67,4.67,0,0,1-1.39-3.46,4.53,4.53,0,0,1,1.39-3.45,5.11,5.11,0,0,1,6.83,0,4.53,4.53,0,0,1,1.39,3.45,4.67,4.67,0,0,1-1.39,3.46,4.89,4.89,0,0,1-6.83,0Z"/><path class="cls-1" d="M476.44,60.66a10.59,10.59,0,0,1,4.31,3.79,10.22,10.22,0,0,1,1.59,5.68,10.77,10.77,0,0,1-1.74,6.09,11.26,11.26,0,0,1-4.73,4,15.46,15.46,0,0,1-6.66,1.41c-4.86,0-8.65-1.49-11.4-4.46S453.7,70,453.7,64.48a21.44,21.44,0,0,1,2.23-10.11A15.28,15.28,0,0,1,462.15,48a19,19,0,0,1,9.24-2.18,22.6,22.6,0,0,1,5.32.62,14.12,14.12,0,0,1,4.34,1.76l-3,5.9a11.35,11.35,0,0,0-6.49-1.74,9.45,9.45,0,0,0-7,2.58Q462,57.5,461.83,62.4c2.05-2,4.9-3.07,8.57-3.07A13.52,13.52,0,0,1,476.44,60.66ZM473,74.29a4.73,4.73,0,0,0,1.61-3.77A4.8,4.8,0,0,0,473,66.73a6.27,6.27,0,0,0-4.29-1.41,6.37,6.37,0,0,0-4.31,1.46,5,5,0,0,0,0,7.46,6.47,6.47,0,0,0,4.45,1.44A6.21,6.21,0,0,0,473,74.29Z"/><path class="cls-1" d="M512.93,66.21A8.57,8.57,0,0,1,514.29,71a9,9,0,0,1-1.83,5.62,11.76,11.76,0,0,1-5.15,3.72,21,21,0,0,1-7.68,1.31A20.73,20.73,0,0,1,492,80.36a11.65,11.65,0,0,1-5.1-3.72A9,9,0,0,1,485.06,71a8.65,8.65,0,0,1,1.36-4.81,10,10,0,0,1,3.89-3.37,8.5,8.5,0,0,1-3-3,8.21,8.21,0,0,1-1-4.14A8.49,8.49,0,0,1,488,50.46,10.8,10.8,0,0,1,492.69,47a18.52,18.52,0,0,1,6.94-1.22,18.82,18.82,0,0,1,7,1.22,10.69,10.69,0,0,1,4.73,3.44,8.49,8.49,0,0,1,1.68,5.25,8.11,8.11,0,0,1-1,4.14,8.33,8.33,0,0,1-3,3A9.88,9.88,0,0,1,512.93,66.21Zm-8.52,8.2a4.38,4.38,0,0,0,1.76-3.64,4.33,4.33,0,0,0-1.76-3.62,7.73,7.73,0,0,0-4.78-1.33,7.55,7.55,0,0,0-4.71,1.33,4.33,4.33,0,0,0-1.73,3.62,4.38,4.38,0,0,0,1.73,3.67,9,9,0,0,0,9.49,0Zm-8.67-21.55a3.85,3.85,0,0,0-1.46,3.2,3.78,3.78,0,0,0,1.43,3.12,6.16,6.16,0,0,0,3.92,1.14,6.34,6.34,0,0,0,4-1.14,3.72,3.72,0,0,0,1.49-3.12,3.85,3.85,0,0,0-1.49-3.2,6.28,6.28,0,0,0-4-1.16A6.09,6.09,0,0,0,495.74,52.86Z"/><rect class="cls-1" x="45.37" y="44.15" width="161.7" height="161.7" transform="translate(125.36 -52.64) rotate(45)"/><g class="cls-2"><path class="cls-3" d="M126.21,227.71,23.51,125,126.21,22.29,228.92,125ZM26.68,125l99.53,99.53L225.75,125,126.21,25.47Zm99.53,89.66L91.94,180.38l26.21-26.21L92.74,128.75l-18,18L86.62,158.7l4.93-4.94-7-7,8.17-8.16,15.54,15.54L87,175.45l-30-30L77.51,125,57,104.52l30-30,21.28,21.28L92.74,111.37l-8.17-8.16,7-7L86.62,91.3,74.7,103.21l18,18,25.41-25.42L91.94,69.62l34.27-34.28,34.28,34.28L134.28,95.83l25.41,25.42,18-18L165.81,91.3l-4.93,4.94,7,7-8.17,8.16L144.15,95.83l21.28-21.28,30,30L174.92,125l20.48,20.48-30,30-21.28-21.27,15.54-15.54,8.17,8.16-7,7,4.93,4.94,11.92-11.91-18-18-25.41,25.42,26.21,26.21Zm-31.1-34.28,31.1,31.11,31.11-31.11-26.21-26.21,28.58-28.59,21.21,21.21-15.09,15.08-8.11-8.11,7-7-5-5-12.36,12.37,18.1,18.1,26.79-26.79L171.75,125l20.47-20.48L165.43,77.73l-18.1,18.1,12.36,12.37,5-5-7-7,8.11-8.12,15.09,15.09-21.21,21.21L131.11,95.83l26.21-26.21L126.21,38.51,95.11,69.62l26.21,26.21L92.74,124.42,71.53,103.21,86.62,88.13l8.11,8.1-7,7,5,5L105.1,95.83,87,77.73,60.21,104.52,80.68,125,60.21,145.48,87,172.27l18.1-18.1L92.74,141.8l-5,5,7,7-8.11,8.11L71.53,146.79l21.21-21.21,28.58,28.59Zm105.22-39.84L184.79,125l15.54-15.54L215.88,125ZM188,125l12.36,12.37L212.7,125l-12.37-12.37ZM52.1,140.54,36.56,125,52.1,109.46,67.64,125ZM39.73,125,52.1,137.37,64.46,125,52.1,112.63Z"/><path class="cls-3" d="M126.21,204.07l-24-24,24-24.05,24,24.05Zm-20.87-24,20.87,20.88L147.09,180l-20.88-20.87Z"/><path class="cls-3" d="M126.21,93.36l-24-24,24-24.05,24,24.05Zm-20.87-24,20.87,20.88,20.88-20.88L126.21,48.44Z"/></g><polygon class="cls-4" points="12.46 125 126.33 238.87 528.25 238.87 642.12 125 528.25 11.13 126.33 11.13 12.46 125"/><path class="cls-3" d="M170.31,126.54c-1.47,3.1-4,5.4-6.11,8-3.56,4.37-7.24,8.63-10.81,13a15.89,15.89,0,0,1-12.76,6c-7.88.05-15.76.08-23.64,0-2.72,0-4.39,1.48-6,3.22a.86.86,0,0,0-.08.66,5.69,5.69,0,0,1-1.73,5.48c-2.77,2.7-5.5,5.43-8.26,8.14-1.17,1.14-2.07,1.14-3.21,0q-10-10-19.94-20.09c-1.1-1.1-1.11-2,0-3.15,2.74-2.76,5.5-5.51,8.25-8.27a5.74,5.74,0,0,1,4.51-1.8,1.09,1.09,0,0,0,.84-.45c6.07-10.63,19.32-13.25,28.86-9.58a4.22,4.22,0,0,0,1.5.25c6.24,0,12.48,0,18.72,0a8.09,8.09,0,0,1,6.74,3,3.6,3.6,0,0,1,.42-.9c3.38-3.5,6.78-7,10.17-10.48,4.08-4.2,10.23-3,12.44,2.44a1,1,0,0,0,.15.21ZM108.6,153.82c.16-.15.38-.31.56-.51a10.58,10.58,0,0,1,8.56-3.47c7.55.11,15.09,0,22.64,0,3.63,0,7-1,9.36-3.77,5.54-6.39,10.9-12.93,16.31-19.43a3.65,3.65,0,0,0-5.47-4.84q-5.84,6-11.63,12a1.31,1.31,0,0,0-.39.85,7.45,7.45,0,0,1-7.87,7.91c-4.56-.07-9.12,0-13.69,0-1.64,0-2.51-.65-2.51-1.85s.86-1.82,2.54-1.82h13.6a7.64,7.64,0,0,0,1.36-.1,3.62,3.62,0,0,0,2.85-4.14c-.36-2-1.81-3.08-4.11-3.08-6.51,0-13,0-19.53,0a5.56,5.56,0,0,1-2-.34,21.1,21.1,0,0,0-16.76.5,17.15,17.15,0,0,0-8.19,7.78ZM99.48,167.2c-.09.05,0,0,.06,0,2.41-2.37,4.82-4.73,7.21-7.12a1.81,1.81,0,0,0-.08-2.81q-7.59-7.6-15.18-15.17a1.83,1.83,0,0,0-2.94,0c-1.26,1.24-2.49,2.5-3.74,3.74s-2.33,2.3-3.58,3.53Z"/><path class="cls-3" d="M133.24,78.16c1.13.23,2.27.4,3.38.7a20.08,20.08,0,1,1-7.64-.55,4.92,4.92,0,0,0,.61-.15Zm-1.83,36.56A16.46,16.46,0,1,0,115,98.22,16.45,16.45,0,0,0,131.41,114.72Z"/><path class="cls-3" d="M132.87,89.22c.94.65,1.8,1.17,2.56,1.81a1.74,1.74,0,0,1,.24,2.59,1.85,1.85,0,0,1-2.62.15,7,7,0,0,0-1.38-.85,1.64,1.64,0,0,0-1.92.44,1.66,1.66,0,0,0-.41,1.85,1.77,1.77,0,0,0,1.55,1.22,9.79,9.79,0,0,1,1.8.29,5.36,5.36,0,0,1,3.81,4.66,5.21,5.21,0,0,1-2.8,5.31,1.31,1.31,0,0,0-.83,1.47,5.92,5.92,0,0,1,0,1.19,1.77,1.77,0,0,1-1.79,1.7,1.64,1.64,0,0,1-1.8-1.66,2.76,2.76,0,0,0-1.87-3.27,4.76,4.76,0,0,1-1.52-1.42,1.74,1.74,0,0,1,.15-2.47,1.81,1.81,0,0,1,2.55,0,9.58,9.58,0,0,0,1.39,1.17,1.82,1.82,0,0,0,2.22-.11,1.68,1.68,0,0,0,.58-2,1.86,1.86,0,0,0-1.81-1.29,5.45,5.45,0,0,1-5.29-4.43c-.51-2.42.66-4.67,3.08-6a1.05,1.05,0,0,0,.45-.74c.07-.54,0-1.1,0-1.64a1.84,1.84,0,0,1,1.85-1.77,1.82,1.82,0,0,1,1.78,1.74C132.9,87.94,132.87,88.67,132.87,89.22Z"/></svg>