<svg id="Layer_1" data-name="Layer 1" xmlns="http://www.w3.org/2000/svg" xmlns:xlink="http://www.w3.org/1999/xlink" viewBox="0 0 654 250"><defs><style>.cls-1,.cls-3,.cls-7{fill:none;}.cls-2{clip-path:url(#clip-path);}.cls-3{stroke:#2681d6;}.cls-3,.cls-7{stroke-miterlimit:10;}.cls-4{fill:#de1b81;}.cls-5{opacity:0.15;}.cls-6{fill:#fff;}.cls-7{stroke:#de1b81;stroke-width:2.61px;}</style><clipPath id="clip-path"><rect class="cls-1" x="-2011.39" width="1920" height="142.18"/></clipPath></defs><g class="cls-2"><path class="cls-3" d="M-91.38,334.28-37,279.87h0L171.74,71.16-37-137.55h0L-91.38-192-354.51,71.16ZM-284.25,34.85l36.31,36.31-36.31,36.31-36.31-36.31Zm385.73,72.62L65.17,71.16l36.31-36.31,36.31,36.31ZM-53.94,262.89h0l-37.44,37.45-85.07-85.07,68.21-68.21L-178.5,76.8l-51.05,51.05L-194.42,163l17-17-18.16-18.16,17.11-17.11,36.31,36.32-51.23,51.23-73.85-73.84L-214,71.16l-53.28-53.28L-193.42-56l51.23,51.24L-178.5,31.58l-17.11-17.11,18.16-18.16-17-17-35.13,35.13,51.05,51.05,70.26-70.25-68.21-68.22,47.62-47.62h0L-91.38-158l37.44,37.45h0L-6.32-72.95-74.53-4.73-4.27,65.52l51.06-51L11.66-20.66l-17,17L12.84,14.47-4.27,31.58-40.58-4.73,10.66-56,84.51,17.88,31.22,71.16l53.29,53.29L10.66,198.29l-51.24-51.23,36.31-36.32,17.11,17.11L-5.32,146l17,17,35.13-35.13-51.06-51-70.26,70.26,68.21,68.21Z"/></g><path d="M302,152.53a11,11,0,0,1,1.32-5.57,7.65,7.65,0,0,1,2.76-3.08h.05l.32,1a7,7,0,0,0-2,2.84,12.21,12.21,0,0,0-.84,4.82v.11a12.21,12.21,0,0,0,.84,4.82,7.59,7.59,0,0,0,2,2.92l-.32.89h-.05a7.68,7.68,0,0,1-2.76-3.07A11.08,11.08,0,0,1,302,152.6Z"/><path d="M314.9,148.45a2.74,2.74,0,0,1-.53,1.66,3.3,3.3,0,0,1-1.41,1.07,3.6,3.6,0,0,1,1.65,1.13,2.83,2.83,0,0,1,.62,1.8,3.16,3.16,0,0,1-1.08,2.57,4.11,4.11,0,0,1-2.75.91,4.45,4.45,0,0,1-2.9-.91,3.13,3.13,0,0,1-1.12-2.57,2.74,2.74,0,0,1,.64-1.8,3.6,3.6,0,0,1,1.71-1.14,3.22,3.22,0,0,1-1.47-1.06,2.69,2.69,0,0,1-.54-1.66,3,3,0,0,1,1-2.42,4,4,0,0,1,2.64-.83,3.77,3.77,0,0,1,2.53.84A3,3,0,0,1,314.9,148.45Zm-1.29,5.63a2.21,2.21,0,0,0-.65-1.63,2.15,2.15,0,0,0-1.58-.63,2.4,2.4,0,0,0-1.7.63,2.19,2.19,0,0,0-.67,1.63,2.14,2.14,0,0,0,.67,1.63,2.48,2.48,0,0,0,1.72.61,2.16,2.16,0,0,0,2.21-2.24Zm-.34-5.61a2,2,0,0,0-.54-1.43,1.83,1.83,0,0,0-1.35-.56,2,2,0,0,0-1.46.54,1.91,1.91,0,0,0-.57,1.45,2,2,0,0,0,2,2.06,1.74,1.74,0,0,0,1.33-.57A2.07,2.07,0,0,0,313.27,148.47Z"/><path d="M318.69,157l-1.24,2.53h-1l.58-2.61v-1.35h1.63Z"/><path d="M328.22,146.65a18.2,18.2,0,0,0-3.09,4.79,13,13,0,0,0-.8,4.66v1.32H322.7V156.1a11.66,11.66,0,0,1,1-4.92,21.45,21.45,0,0,1,2.91-4.53h-6.39v-1.28h8Z"/><path d="M337.57,153.16a4.76,4.76,0,0,1-1,3.24,3.87,3.87,0,0,1-5.58,0,4.71,4.71,0,0,1-1.05-3.24v-3.54a4.76,4.76,0,0,1,1-3.22,3.84,3.84,0,0,1,5.58,0,4.71,4.71,0,0,1,1.05,3.22Zm-1.63-3.88a3.26,3.26,0,0,0-.58-2.05,1.94,1.94,0,0,0-1.64-.75,1.91,1.91,0,0,0-1.62.75,3.33,3.33,0,0,0-.57,2.05v4.22a3.31,3.31,0,0,0,.58,2.06,2,2,0,0,0,1.63.76,1.9,1.9,0,0,0,1.63-.76,3.34,3.34,0,0,0,.57-2.06Z"/><path d="M343.81,145.2a6.68,6.68,0,0,1,1.41.14,5.08,5.08,0,0,1,1.15.35l-.35,1.25a5.23,5.23,0,0,0-1-.33,4.91,4.91,0,0,0-1.22-.13,2.18,2.18,0,0,0-1.84,1,4,4,0,0,0-.71,2.45v.93a3.81,3.81,0,0,1,2.68-1.08,3.1,3.1,0,0,1,2.47,1,4,4,0,0,1,.9,2.74,4.25,4.25,0,0,1-1,3,3.82,3.82,0,0,1-5.53-.17,5,5,0,0,1-1.13-3.47v-2.77a5.15,5.15,0,0,1,1.2-3.5A3.81,3.81,0,0,1,343.81,145.2Zm-.39,5.76a2.54,2.54,0,0,0-1.32.33,2.29,2.29,0,0,0-.84.88V153a3.91,3.91,0,0,0,.67,2.42,2,2,0,0,0,1.63.89,1.81,1.81,0,0,0,1.57-.78,3.34,3.34,0,0,0,.55-2,2.81,2.81,0,0,0-.59-1.87A2.08,2.08,0,0,0,343.42,151Z"/><path d="M353.15,153.11a6,6,0,0,1,.93-3.49,3,3,0,0,1,2.57-1.32,3,3,0,0,1,2.59,1.33l.2-1.17h1.29v9a3.39,3.39,0,0,1-1,2.64,4.07,4.07,0,0,1-2.88.92,5.94,5.94,0,0,1-1.4-.17,5.25,5.25,0,0,1-1.32-.49l.25-1.26a4.72,4.72,0,0,0,1.14.4,5.92,5.92,0,0,0,1.31.15,2.38,2.38,0,0,0,1.73-.54,2.25,2.25,0,0,0,.54-1.65v-1a2.77,2.77,0,0,1-1.05.85,3.15,3.15,0,0,1-1.41.29,3,3,0,0,1-2.56-1.19,4.91,4.91,0,0,1-.93-3.12Zm1.63.17a3.82,3.82,0,0,0,.56,2.17,1.91,1.91,0,0,0,1.71.82,2.1,2.1,0,0,0,1.23-.34,2.44,2.44,0,0,0,.82-.94v-4.13a2.46,2.46,0,0,0-.82-.9,2.08,2.08,0,0,0-1.21-.34,1.88,1.88,0,0,0-1.73,1,5.06,5.06,0,0,0-.56,2.52Z"/><path d="M364.84,146.17h-1.63v-1.66h1.63Zm0,11.25h-1.63v-9h1.63Z"/><path d="M371.58,149.9l-.83-.05a1.89,1.89,0,0,0-1.09.31,2,2,0,0,0-.68.86v6.4h-1.63v-9h1.45l.16,1.31a3.12,3.12,0,0,1,.94-1.08,2.19,2.19,0,0,1,1.29-.39,1.87,1.87,0,0,1,.34,0l.28.06Z"/><path d="M375,157.42h-1.63V144.51H375Z"/><path d="M382.76,155a1.1,1.1,0,0,0-.41-.88,4.09,4.09,0,0,0-1.56-.59,6.79,6.79,0,0,1-2.43-.95,1.94,1.94,0,0,1-.84-1.64,2.36,2.36,0,0,1,.93-1.87,3.62,3.62,0,0,1,2.41-.78,3.57,3.57,0,0,1,2.47.83,2.38,2.38,0,0,1,.9,1.92l0,0h-1.55a1.43,1.43,0,0,0-.51-1,1.84,1.84,0,0,0-1.29-.47,1.88,1.88,0,0,0-1.29.39,1.23,1.23,0,0,0-.42.93,1,1,0,0,0,.37.82,4.08,4.08,0,0,0,1.51.53,6.4,6.4,0,0,1,2.5,1,2,2,0,0,1,.86,1.66,2.37,2.37,0,0,1-1,2,4.62,4.62,0,0,1-5.22-.12,2.49,2.49,0,0,1-.93-2l0,0h1.55a1.5,1.5,0,0,0,.65,1.27,2.53,2.53,0,0,0,1.41.4,2.2,2.2,0,0,0,1.36-.37A1.14,1.14,0,0,0,382.76,155Z"/><path d="M396.13,157.42c-.06-.27-.1-.51-.13-.72a4.21,4.21,0,0,1-.05-.62,3.87,3.87,0,0,1-1.19,1.08,3,3,0,0,1-1.58.43,3,3,0,0,1-2.13-.71,2.64,2.64,0,0,1-.73-2,2.31,2.31,0,0,1,1-2,4.79,4.79,0,0,1,2.82-.73H396v-.88a1.65,1.65,0,0,0-.48-1.25,1.88,1.88,0,0,0-1.36-.46,1.92,1.92,0,0,0-1.28.4,1.17,1.17,0,0,0-.49,1l-1.55,0v0a2.13,2.13,0,0,1,.91-1.79,3.78,3.78,0,0,1,2.51-.81,3.72,3.72,0,0,1,2.45.77,2.74,2.74,0,0,1,.93,2.23v4.31a7.06,7.06,0,0,0,.05.93,4.44,4.44,0,0,0,.18.88Zm-2.71-1.19a2.85,2.85,0,0,0,1.6-.46,2.22,2.22,0,0,0,.93-1v-1.46h-1.83a2.39,2.39,0,0,0-1.58.5,1.5,1.5,0,0,0-.59,1.17,1.22,1.22,0,0,0,.37.94A1.58,1.58,0,0,0,393.42,156.23Z"/><path d="M401.4,148.46l.12,1.34a3.13,3.13,0,0,1,1.12-1.11,3,3,0,0,1,1.53-.39,2.92,2.92,0,0,1,2.25.85,3.76,3.76,0,0,1,.79,2.62v5.65h-1.63V151.8a2.43,2.43,0,0,0-.47-1.68,1.88,1.88,0,0,0-1.43-.5,2.42,2.42,0,0,0-1.27.31,2.26,2.26,0,0,0-.84.84v6.65h-1.63v-9Z"/><path d="M409.2,153.11a6,6,0,0,1,.93-3.49,3,3,0,0,1,2.58-1.32,3.27,3.27,0,0,1,1.4.29,2.89,2.89,0,0,1,1,.84v-4.92h1.63v12.91h-1.25l-.25-1.14a2.91,2.91,0,0,1-1.09,1,3.24,3.24,0,0,1-1.49.33,3.05,3.05,0,0,1-2.57-1.19,4.91,4.91,0,0,1-.93-3.12Zm1.63.17a3.77,3.77,0,0,0,.56,2.17,1.92,1.92,0,0,0,1.72.82,2.14,2.14,0,0,0,1.22-.33,2.4,2.4,0,0,0,.82-.93v-4.18a2.57,2.57,0,0,0-.82-.88,2.11,2.11,0,0,0-1.2-.33,1.88,1.88,0,0,0-1.74,1,5.06,5.06,0,0,0-.56,2.52Z"/><path d="M427,150.57a1.87,1.87,0,0,0,1.54-.55,2.29,2.29,0,0,0,.45-1.51,2.12,2.12,0,0,0-.49-1.47,1.81,1.81,0,0,0-1.46-.56,2.17,2.17,0,0,0-1.56.58,1.94,1.94,0,0,0-.62,1.46h-1.55l0-.05a2.9,2.9,0,0,1,1-2.31,3.92,3.92,0,0,1,2.73-1,3.83,3.83,0,0,1,2.63.84,3.16,3.16,0,0,1,.95,2.5,2.79,2.79,0,0,1-.44,1.54,3,3,0,0,1-1.24,1.08,2.82,2.82,0,0,1,1.39,1.11,3.21,3.21,0,0,1,.48,1.79,3.29,3.29,0,0,1-1,2.59,3.91,3.91,0,0,1-2.72.94,4.31,4.31,0,0,1-2.71-.9,2.79,2.79,0,0,1-1.13-2.4l0,0h1.55a1.93,1.93,0,0,0,.64,1.48,2.26,2.26,0,0,0,1.63.6,2,2,0,0,0,1.56-.62,2.24,2.24,0,0,0,.58-1.61,2.39,2.39,0,0,0-.53-1.69,2.14,2.14,0,0,0-1.65-.57h-1.34v-1.26Z"/><path d="M434.39,157l-1.25,2.53h-1l.58-2.61v-1.35h1.63Z"/><path d="M436.57,152.06l.7-6.69h6v1.45h-4.66l-.39,3.47a3.45,3.45,0,0,1,.86-.48,3.25,3.25,0,0,1,1.08-.2,3.3,3.3,0,0,1,2.62,1,4.93,4.93,0,0,1,0,5.83,3.56,3.56,0,0,1-2.83,1.1,3.93,3.93,0,0,1-2.55-.83,2.89,2.89,0,0,1-1-2.46l0-.05h1.47a2,2,0,0,0,.57,1.53,2.05,2.05,0,0,0,1.47.54,1.9,1.9,0,0,0,1.6-.73,3.16,3.16,0,0,0,.57-2,2.92,2.92,0,0,0-.57-1.87A2,2,0,0,0,440,151a2.57,2.57,0,0,0-1.39.29,1.68,1.68,0,0,0-.64.89Z"/><path d="M449.46,150.57A1.89,1.89,0,0,0,451,150a2.29,2.29,0,0,0,.45-1.51A2.12,2.12,0,0,0,451,147a1.83,1.83,0,0,0-1.46-.56,2.17,2.17,0,0,0-1.56.58,1.94,1.94,0,0,0-.62,1.46h-1.56l0-.05a2.84,2.84,0,0,1,1-2.31,3.92,3.92,0,0,1,2.73-1,3.85,3.85,0,0,1,2.63.84,3.2,3.2,0,0,1,.95,2.5,2.87,2.87,0,0,1-.44,1.54,3,3,0,0,1-1.24,1.08,2.82,2.82,0,0,1,1.39,1.11,3.7,3.7,0,0,1-.57,4.38,3.91,3.91,0,0,1-2.72.94,4.31,4.31,0,0,1-2.71-.9,2.79,2.79,0,0,1-1.13-2.4v0h1.56a2,2,0,0,0,.63,1.48,2.29,2.29,0,0,0,1.64.6,2,2,0,0,0,1.56-.62,2.28,2.28,0,0,0,.57-1.61,2.39,2.39,0,0,0-.52-1.69,2.14,2.14,0,0,0-1.65-.57h-1.35v-1.26Z"/><path d="M459.51,145.2a6.68,6.68,0,0,1,1.41.14,5.25,5.25,0,0,1,1.15.35l-.35,1.25a5.48,5.48,0,0,0-1-.33,5,5,0,0,0-1.22-.13,2.18,2.18,0,0,0-1.84,1,4,4,0,0,0-.71,2.45v.93a3.81,3.81,0,0,1,2.68-1.08,3.06,3.06,0,0,1,2.46,1,4,4,0,0,1,.91,2.74,4.25,4.25,0,0,1-1,3,3.82,3.82,0,0,1-5.53-.17,5,5,0,0,1-1.13-3.47v-2.77a5.15,5.15,0,0,1,1.2-3.5A3.81,3.81,0,0,1,459.51,145.2Zm-.39,5.76a2.54,2.54,0,0,0-1.32.33,2.15,2.15,0,0,0-.84.88V153a3.91,3.91,0,0,0,.67,2.42,2,2,0,0,0,1.63.89,1.81,1.81,0,0,0,1.57-.78,3.34,3.34,0,0,0,.55-2,2.81,2.81,0,0,0-.59-1.87A2.09,2.09,0,0,0,459.12,151Z"/><path d="M476.79,153.28a4.91,4.91,0,0,1-.93,3.12,3.06,3.06,0,0,1-2.56,1.19,3.25,3.25,0,0,1-1.55-.35,2.78,2.78,0,0,1-1.09-1l-.27,1.22h-1.25V144.51h1.63v5a2.87,2.87,0,0,1,1.05-.91,3.2,3.2,0,0,1,1.46-.31,3,3,0,0,1,2.58,1.32,6,6,0,0,1,.93,3.49Zm-1.63-.17a4.88,4.88,0,0,0-.57-2.51,1.87,1.87,0,0,0-1.72-1,2.14,2.14,0,0,0-1.27.37,2.69,2.69,0,0,0-.83,1v3.88a2.72,2.72,0,0,0,.83,1,2.15,2.15,0,0,0,1.28.37,1.94,1.94,0,0,0,1.72-.82,3.82,3.82,0,0,0,.56-2.17Z"/><path d="M478.39,152.86a4.88,4.88,0,0,1,1.08-3.27,3.61,3.61,0,0,1,2.92-1.29,3.65,3.65,0,0,1,2.94,1.28,4.93,4.93,0,0,1,1.08,3.28V153a4.94,4.94,0,0,1-1.07,3.28,4,4,0,0,1-5.87,0,4.88,4.88,0,0,1-1.08-3.27ZM480,153a4.17,4.17,0,0,0,.61,2.35,2.16,2.16,0,0,0,3.55,0,4.25,4.25,0,0,0,.6-2.35v-.18a4.24,4.24,0,0,0-.6-2.34,2,2,0,0,0-1.79-.94,1.93,1.93,0,0,0-1.76.94,4.16,4.16,0,0,0-.61,2.34Z"/><path d="M491,154.1l.29,1.13h.05l2.2-6.77h1.82l-3.77,10.33a4.66,4.66,0,0,1-1,1.57,2.22,2.22,0,0,1-1.71.67,3.64,3.64,0,0,1-.51,0l-.47-.09.17-1.28.29,0,.44,0a1,1,0,0,0,.85-.46,4.81,4.81,0,0,0,.55-1l.39-.93-3.32-8.78h1.82Z"/><path d="M502,155a1.08,1.08,0,0,0-.41-.88,4,4,0,0,0-1.55-.59,6.79,6.79,0,0,1-2.43-.95,2,2,0,0,1-.85-1.64,2.34,2.34,0,0,1,.94-1.87,3.62,3.62,0,0,1,2.41-.78,3.56,3.56,0,0,1,2.46.83,2.39,2.39,0,0,1,.91,1.92l0,0h-1.56a1.43,1.43,0,0,0-.51-1,1.8,1.8,0,0,0-1.28-.47,1.84,1.84,0,0,0-1.29.39,1.24,1.24,0,0,0-.43.93,1,1,0,0,0,.37.82,4.15,4.15,0,0,0,1.52.53,6.47,6.47,0,0,1,2.5,1,2,2,0,0,1,.85,1.66,2.36,2.36,0,0,1-1,2,4.62,4.62,0,0,1-5.22-.12,2.44,2.44,0,0,1-.93-2v0h1.56a1.52,1.52,0,0,0,.64,1.27,2.59,2.59,0,0,0,1.42.4,2.2,2.2,0,0,0,1.36-.37A1.13,1.13,0,0,0,502,155Z"/><path d="M509,152.6a11.08,11.08,0,0,1-1.32,5.58,7.68,7.68,0,0,1-2.76,3.07h0l-.31-.89a7.09,7.09,0,0,0,2-2.86,12.4,12.4,0,0,0,.85-4.88v-.11a12.05,12.05,0,0,0-.87-4.83,8.16,8.16,0,0,0-1.94-2.91l.31-.89h0a7.65,7.65,0,0,1,2.76,3.08,11,11,0,0,1,1.32,5.57Z"/><path d="M295.21,174.5l.21,1.15h.05l.22-1.15,1.78-5.7h1.31l1.8,5.7.23,1.28h.05l.26-1.28,1.33-5.7h1.7l-2.6,9h-1.31l-1.77-5.46-.34-1.42h-.05l-.32,1.42L296,177.76h-1.32l-2.6-9h1.7Z"/><path d="M309.46,177.93a3.79,3.79,0,0,1-3-1.23,4.76,4.76,0,0,1-1.08-3.25v-.36a4.64,4.64,0,0,1,1.11-3.19,3.49,3.49,0,0,1,2.72-1.26,3.25,3.25,0,0,1,2.69,1.11,4.61,4.61,0,0,1,.9,3v.87h-5.73l0,0a3.68,3.68,0,0,0,.6,2.19,2.07,2.07,0,0,0,1.82.84,4,4,0,0,0,1.45-.24,3.3,3.3,0,0,0,1.07-.65l.64,1.06a3.82,3.82,0,0,1-1.27.78A5,5,0,0,1,309.46,177.93Zm-.26-8a1.76,1.76,0,0,0-1.41.66,3.11,3.11,0,0,0-.68,1.68v0h4v-.13a2.59,2.59,0,0,0-.48-1.61A1.72,1.72,0,0,0,309.2,169.92Z"/><path d="M318.86,170.24l-.84-.05a1.84,1.84,0,0,0-1.09.31,2,2,0,0,0-.68.86v6.4h-1.63v-9h1.46l.15,1.31a3.22,3.22,0,0,1,.94-1.08,2.21,2.21,0,0,1,1.29-.39,2,2,0,0,1,.35,0,1.37,1.37,0,0,1,.27.06Z"/><path d="M324.1,177.93a3.78,3.78,0,0,1-3-1.23,4.76,4.76,0,0,1-1.08-3.25v-.36a4.64,4.64,0,0,1,1.11-3.19,3.49,3.49,0,0,1,2.72-1.26,3.26,3.26,0,0,1,2.69,1.11,4.61,4.61,0,0,1,.9,3v.87h-5.73l0,0a3.75,3.75,0,0,0,.59,2.19,2.09,2.09,0,0,0,1.82.84,4.06,4.06,0,0,0,1.46-.24,3.3,3.3,0,0,0,1.07-.65l.64,1.06a3.92,3.92,0,0,1-1.27.78A5.14,5.14,0,0,1,324.1,177.93Zm-.25-8a1.76,1.76,0,0,0-1.41.66,3.12,3.12,0,0,0-.69,1.68l0,0h4v-.13a2.59,2.59,0,0,0-.48-1.61A1.72,1.72,0,0,0,323.85,169.92Z"/><path d="M337.72,170.24l-.84-.05a1.84,1.84,0,0,0-1.09.31,2,2,0,0,0-.68.86v6.4h-1.63v-9h1.46l.15,1.31A3.22,3.22,0,0,1,336,169a2.21,2.21,0,0,1,1.29-.39,2,2,0,0,1,.35,0,1.37,1.37,0,0,1,.27.06Z"/><path d="M343,177.93a3.78,3.78,0,0,1-3-1.23,4.76,4.76,0,0,1-1.09-3.25v-.36A4.65,4.65,0,0,1,340,169.9a3.49,3.49,0,0,1,2.72-1.26,3.26,3.26,0,0,1,2.69,1.11,4.61,4.61,0,0,1,.9,3v.87h-5.73l0,0a3.75,3.75,0,0,0,.59,2.19,2.09,2.09,0,0,0,1.82.84,4.1,4.1,0,0,0,1.46-.24,3.3,3.3,0,0,0,1.07-.65l.63,1.06a3.87,3.87,0,0,1-1.26.78A5.14,5.14,0,0,1,343,177.93Zm-.25-8a1.76,1.76,0,0,0-1.41.66,3.12,3.12,0,0,0-.69,1.68l0,0h4v-.13a2.59,2.59,0,0,0-.48-1.61A1.73,1.73,0,0,0,342.71,169.92Z"/><path d="M353.63,177.76c-.05-.27-.1-.51-.13-.72a4.32,4.32,0,0,1-.05-.62,3.87,3.87,0,0,1-1.19,1.08,3,3,0,0,1-1.58.43,2.92,2.92,0,0,1-2.13-.72,2.64,2.64,0,0,1-.73-2,2.34,2.34,0,0,1,1-2,4.87,4.87,0,0,1,2.82-.72h1.77v-.89a1.63,1.63,0,0,0-.48-1.24,1.87,1.87,0,0,0-1.36-.46,1.92,1.92,0,0,0-1.28.4,1.17,1.17,0,0,0-.49,1h-1.55v-.05a2.12,2.12,0,0,1,.91-1.78,3.8,3.8,0,0,1,2.51-.81,3.67,3.67,0,0,1,2.45.77,2.74,2.74,0,0,1,.93,2.23V176c0,.32,0,.63.05.93a4.44,4.44,0,0,0,.18.88Zm-2.71-1.2a2.93,2.93,0,0,0,1.6-.45,2.16,2.16,0,0,0,.93-1v-1.46h-1.83a2.39,2.39,0,0,0-1.58.5,1.49,1.49,0,0,0-.59,1.16,1.26,1.26,0,0,0,.37.95A1.58,1.58,0,0,0,350.92,176.56Z"/><path d="M361,176.66a1.9,1.9,0,0,0,1.32-.51,1.58,1.58,0,0,0,.56-1.22h1.47l0,0a2.58,2.58,0,0,1-1,2.05,3.8,3.8,0,0,1-5.3-.38,5,5,0,0,1-1-3.2v-.34a4.93,4.93,0,0,1,1-3.19,3.51,3.51,0,0,1,2.9-1.28,3.42,3.42,0,0,1,2.46.92,3,3,0,0,1,.92,2.28l0,0h-1.48a2,2,0,0,0-.53-1.4,1.78,1.78,0,0,0-1.35-.57,1.89,1.89,0,0,0-1.75.93,4.42,4.42,0,0,0-.55,2.26v.34a4.38,4.38,0,0,0,.55,2.28A1.87,1.87,0,0,0,361,176.66Z"/><path d="M368,170a3.36,3.36,0,0,1,1.13-1,3.14,3.14,0,0,1,1.5-.36,2.87,2.87,0,0,1,2.23.86,3.78,3.78,0,0,1,.8,2.65v5.61H372v-5.63a2.38,2.38,0,0,0-.48-1.64,1.83,1.83,0,0,0-1.42-.53,2.63,2.63,0,0,0-1.26.29,2.28,2.28,0,0,0-.87.79v6.72h-1.63V164.85H368Z"/><path d="M379.66,177.93a3.79,3.79,0,0,1-3-1.23,4.76,4.76,0,0,1-1.08-3.25v-.36a4.64,4.64,0,0,1,1.11-3.19,3.49,3.49,0,0,1,2.72-1.26,3.24,3.24,0,0,1,2.69,1.11,4.61,4.61,0,0,1,.9,3v.87h-5.72l0,0a3.68,3.68,0,0,0,.6,2.19,2.07,2.07,0,0,0,1.82.84,4,4,0,0,0,1.45-.24,3.2,3.2,0,0,0,1.07-.65l.64,1.06a3.82,3.82,0,0,1-1.27.78A5,5,0,0,1,379.66,177.93Zm-.26-8a1.76,1.76,0,0,0-1.41.66,3.11,3.11,0,0,0-.68,1.68v0h4v-.13a2.59,2.59,0,0,0-.48-1.61A1.72,1.72,0,0,0,379.4,169.92Z"/><path d="M384.45,173.44a6,6,0,0,1,.92-3.48,3,3,0,0,1,2.59-1.32,3.09,3.09,0,0,1,1.39.29,2.81,2.81,0,0,1,1,.84v-4.92H392v12.91h-1.25l-.25-1.14a2.89,2.89,0,0,1-1.08,1,3.25,3.25,0,0,1-1.5.33,3.06,3.06,0,0,1-2.56-1.19,4.91,4.91,0,0,1-.93-3.12Zm1.63.18a3.79,3.79,0,0,0,.55,2.17,2,2,0,0,0,1.72.82,2.17,2.17,0,0,0,1.23-.33,2.54,2.54,0,0,0,.81-.93v-4.18a2.48,2.48,0,0,0-.82-.88,2.11,2.11,0,0,0-1.2-.33,1.85,1.85,0,0,0-1.73,1,5,5,0,0,0-.56,2.51Z"/><path d="M406.31,173.62a4.91,4.91,0,0,1-.93,3.12,3.07,3.07,0,0,1-2.56,1.19,3.28,3.28,0,0,1-1.55-.35,2.93,2.93,0,0,1-1.09-1l-.26,1.22h-1.25V164.85h1.63v5a2.83,2.83,0,0,1,1-.91,3.23,3.23,0,0,1,1.46-.31,3,3,0,0,1,2.59,1.32,6,6,0,0,1,.92,3.48Zm-1.63-.18a5,5,0,0,0-.56-2.51,1.89,1.89,0,0,0-1.73-1,2.1,2.1,0,0,0-1.27.37,2.43,2.43,0,0,0-.82,1v3.88a2.59,2.59,0,0,0,.82,1,2.12,2.12,0,0,0,1.29.38,2,2,0,0,0,1.71-.82,3.82,3.82,0,0,0,.56-2.17Z"/><path d="M411,174.44l.29,1.12h.05l2.2-6.76h1.81l-3.77,10.33a4.51,4.51,0,0,1-1,1.57,2.22,2.22,0,0,1-1.71.67,3.41,3.41,0,0,1-.5,0,4,4,0,0,1-.47-.09L408,180h.29l.44,0a1,1,0,0,0,.85-.46,5.1,5.1,0,0,0,.56-1l.39-.94-3.33-8.77h1.82Z"/><path d="M422.71,166.51h-1.63v-1.66h1.63Zm0,11.25h-1.63v-9h1.63Z"/><path d="M426.67,168.8l.12,1.33a3.18,3.18,0,0,1,1.12-1.1,3,3,0,0,1,1.53-.39,2.91,2.91,0,0,1,2.24.84,3.73,3.73,0,0,1,.8,2.62v5.66h-1.63v-5.62a2.43,2.43,0,0,0-.47-1.68A1.88,1.88,0,0,0,429,170a2.51,2.51,0,0,0-1.27.3,2.21,2.21,0,0,0-.84.85v6.65h-1.63v-9Z"/><path d="M437.11,166.64v2.16h1.7V170h-1.7v5.44a1.22,1.22,0,0,0,.26.88,1,1,0,0,0,.7.26,1.25,1.25,0,0,0,.31,0,1.48,1.48,0,0,0,.29-.08l.22,1.12a1.36,1.36,0,0,1-.54.24,2.42,2.42,0,0,1-.7.1,2.11,2.11,0,0,1-1.58-.6,2.61,2.61,0,0,1-.59-1.88V170h-1.42V168.8h1.42v-2.16Z"/><path d="M444.26,177.93a3.78,3.78,0,0,1-3-1.23,4.71,4.71,0,0,1-1.09-3.25v-.36a4.65,4.65,0,0,1,1.12-3.19,3.49,3.49,0,0,1,2.72-1.26,3.26,3.26,0,0,1,2.69,1.11,4.61,4.61,0,0,1,.9,3v.87h-5.73l0,0a3.75,3.75,0,0,0,.59,2.19,2.09,2.09,0,0,0,1.82.84,4.1,4.1,0,0,0,1.46-.24,3.3,3.3,0,0,0,1.07-.65l.63,1.06a3.87,3.87,0,0,1-1.26.78A5.14,5.14,0,0,1,444.26,177.93Zm-.25-8a1.76,1.76,0,0,0-1.41.66,3.12,3.12,0,0,0-.69,1.68l0,0h4v-.13a2.59,2.59,0,0,0-.48-1.61A1.73,1.73,0,0,0,444,169.92Z"/><path d="M453.66,170.24l-.83-.05a1.82,1.82,0,0,0-1.09.31,1.9,1.9,0,0,0-.68.86v6.4h-1.63v-9h1.45l.16,1.31A3.12,3.12,0,0,1,452,169a2.19,2.19,0,0,1,1.29-.39,1.87,1.87,0,0,1,.34,0,1.33,1.33,0,0,1,.28.06Z"/><path d="M458.5,175.12l.14.63h.05l.15-.63,2.07-6.32h1.66l-3.29,9H458l-3.33-9h1.67Z"/><path d="M467.63,177.93a3.82,3.82,0,0,1-3-1.23,4.76,4.76,0,0,1-1.08-3.25v-.36a4.65,4.65,0,0,1,1.12-3.19,3.49,3.49,0,0,1,2.72-1.26,3.26,3.26,0,0,1,2.69,1.11,4.61,4.61,0,0,1,.9,3v.87h-5.73l0,0a3.75,3.75,0,0,0,.59,2.19,2.09,2.09,0,0,0,1.82.84,4,4,0,0,0,1.45-.24,3.24,3.24,0,0,0,1.08-.65l.63,1.06a3.87,3.87,0,0,1-1.26.78A5.14,5.14,0,0,1,467.63,177.93Zm-.25-8a1.76,1.76,0,0,0-1.41.66,3.12,3.12,0,0,0-.69,1.68l0,0h4v-.13a2.59,2.59,0,0,0-.48-1.61A1.73,1.73,0,0,0,467.38,169.92Z"/><path d="M474.25,168.8l.12,1.33a3.27,3.27,0,0,1,1.12-1.1,3,3,0,0,1,1.54-.39,2.94,2.94,0,0,1,2.24.84,3.73,3.73,0,0,1,.79,2.62v5.66h-1.63v-5.62a2.38,2.38,0,0,0-.47-1.68,1.86,1.86,0,0,0-1.42-.5,2.55,2.55,0,0,0-1.28.3,2.19,2.19,0,0,0-.83.85v6.65H472.8v-9Z"/><path d="M484.7,166.64v2.16h1.69V170H484.7v5.44a1.17,1.17,0,0,0,.26.88.94.94,0,0,0,.69.26,1.2,1.2,0,0,0,.31,0,1.3,1.3,0,0,0,.29-.08l.23,1.12a1.43,1.43,0,0,1-.54.24,2.47,2.47,0,0,1-.7.1,2.13,2.13,0,0,1-1.59-.6,2.61,2.61,0,0,1-.58-1.88V170h-1.43V168.8h1.43v-2.16Z"/><path d="M489.9,166.51h-1.63v-1.66h1.63Zm0,11.25h-1.63v-9h1.63Z"/><path d="M492,173.2a5,5,0,0,1,1.07-3.28,4,4,0,0,1,5.87,0,4.91,4.91,0,0,1,1.08,3.28v.18a4.91,4.91,0,0,1-1.08,3.28,4,4,0,0,1-5.86,0,4.88,4.88,0,0,1-1.08-3.27Zm1.63.18a4.25,4.25,0,0,0,.6,2.35,2.16,2.16,0,0,0,3.55,0,4.17,4.17,0,0,0,.61-2.35v-.18a4.3,4.3,0,0,0-.61-2.35,2,2,0,0,0-1.78-.93,2,2,0,0,0-1.77.93,4.29,4.29,0,0,0-.6,2.35Z"/><path d="M503.5,168.8l.12,1.33a3.18,3.18,0,0,1,1.12-1.1,3,3,0,0,1,1.53-.39,2.93,2.93,0,0,1,2.24.84,3.73,3.73,0,0,1,.8,2.62v5.66h-1.63v-5.62a2.43,2.43,0,0,0-.47-1.68,1.88,1.88,0,0,0-1.43-.5,2.55,2.55,0,0,0-1.28.3,2.26,2.26,0,0,0-.83.85v6.65H502v-9Z"/><path d="M516.88,175.35a1.1,1.1,0,0,0-.41-.88,3.87,3.87,0,0,0-1.55-.59,6.61,6.61,0,0,1-2.43-1,1.9,1.9,0,0,1-.85-1.64,2.38,2.38,0,0,1,.93-1.87,3.69,3.69,0,0,1,2.42-.77,3.6,3.6,0,0,1,2.46.82,2.38,2.38,0,0,1,.9,1.93v.05h-1.56a1.43,1.43,0,0,0-.51-1.05,2.14,2.14,0,0,0-2.57-.08,1.2,1.2,0,0,0-.43.92,1,1,0,0,0,.37.82,4,4,0,0,0,1.52.53,6.46,6.46,0,0,1,2.5,1,2,2,0,0,1,.85,1.66,2.37,2.37,0,0,1-1,2,4,4,0,0,1-2.52.75,3.93,3.93,0,0,1-2.7-.87,2.48,2.48,0,0,1-.94-2l0-.05H513a1.48,1.48,0,0,0,.64,1.27,2.5,2.5,0,0,0,1.42.41,2.26,2.26,0,0,0,1.36-.37A1.13,1.13,0,0,0,516.88,175.35Z"/><path d="M295.1,187v2.16h1.69v1.21H295.1v5.44a1.23,1.23,0,0,0,.26.88.94.94,0,0,0,.69.26,1.88,1.88,0,0,0,.31,0,1.3,1.3,0,0,0,.29-.08l.23,1.12a1.36,1.36,0,0,1-.54.24,2.47,2.47,0,0,1-.7.1,2.1,2.1,0,0,1-1.58-.6,2.57,2.57,0,0,1-.59-1.88v-5.44H292v-1.21h1.43V187Z"/><path d="M298.16,193.53a4.92,4.92,0,0,1,1.08-3.27,3.59,3.59,0,0,1,2.92-1.29,3.63,3.63,0,0,1,2.94,1.29,4.88,4.88,0,0,1,1.08,3.27v.19A4.88,4.88,0,0,1,305.1,197a4,4,0,0,1-5.86,0,4.88,4.88,0,0,1-1.08-3.27Zm1.63.19a4.27,4.27,0,0,0,.6,2.35,2.17,2.17,0,0,0,3.55,0,4.19,4.19,0,0,0,.61-2.35v-.19a4.2,4.2,0,0,0-.61-2.34,2,2,0,0,0-1.78-.93,2,2,0,0,0-1.77.93,4.28,4.28,0,0,0-.6,2.34Z"/><path d="M317.59,195.69a1.09,1.09,0,0,0-.41-.88,3.85,3.85,0,0,0-1.55-.6,6.44,6.44,0,0,1-2.43-1,1.91,1.91,0,0,1-.85-1.64,2.36,2.36,0,0,1,.93-1.87,3.65,3.65,0,0,1,2.42-.78,3.61,3.61,0,0,1,2.46.83,2.37,2.37,0,0,1,.9,1.93v.05h-1.56a1.39,1.39,0,0,0-.51-1.05,1.79,1.79,0,0,0-1.28-.47,1.84,1.84,0,0,0-1.29.39,1.18,1.18,0,0,0-.43.92,1,1,0,0,0,.37.82,4,4,0,0,0,1.52.53,6.31,6.31,0,0,1,2.5,1,2,2,0,0,1,.85,1.66,2.36,2.36,0,0,1-1,1.94,4.59,4.59,0,0,1-5.22-.11,2.49,2.49,0,0,1-.94-2l0-.05h1.56a1.49,1.49,0,0,0,.64,1.27,2.49,2.49,0,0,0,1.42.4,2.26,2.26,0,0,0,1.36-.36A1.13,1.13,0,0,0,317.59,195.69Z"/><path d="M326.93,196.77a3,3,0,0,1-1.08,1.11,3,3,0,0,1-1.53.39,2.87,2.87,0,0,1-2.29-.94,4.36,4.36,0,0,1-.81-2.91v-5.28h1.63v5.3a3.36,3.36,0,0,0,.42,2,1.58,1.58,0,0,0,1.31.53,2.65,2.65,0,0,0,1.44-.35,2.17,2.17,0,0,0,.86-1v-6.45h1.63v9H327Z"/><path d="M338.51,194a4.91,4.91,0,0,1-.93,3.12,3.06,3.06,0,0,1-2.55,1.19,3.49,3.49,0,0,1-1.46-.28,2.74,2.74,0,0,1-1.06-.83v4.38h-1.63v-12.4h1.25l.26,1.16a3,3,0,0,1,1.09-1A3.34,3.34,0,0,1,335,189a3,3,0,0,1,2.59,1.32,6,6,0,0,1,.92,3.49Zm-1.63-.18a4.72,4.72,0,0,0-.6-2.5,2,2,0,0,0-1.77-1,2.11,2.11,0,0,0-1.2.32,2.4,2.4,0,0,0-.8.87v4.33a2.29,2.29,0,0,0,.8.86,2.23,2.23,0,0,0,1.22.31,2,2,0,0,0,1.75-.85,3.67,3.67,0,0,0,.6-2.18Z"/><path d="M348.14,194a5,5,0,0,1-.92,3.12,3.07,3.07,0,0,1-2.56,1.19,3.44,3.44,0,0,1-1.45-.28,2.77,2.77,0,0,1-1.07-.83v4.38h-1.63v-12.4h1.25l.26,1.16a3,3,0,0,1,1.09-1,3.37,3.37,0,0,1,1.52-.34,3,3,0,0,1,2.59,1.32,6,6,0,0,1,.92,3.49Zm-1.63-.18a4.72,4.72,0,0,0-.6-2.5,2,2,0,0,0-1.76-1,2.11,2.11,0,0,0-1.2.32,2.43,2.43,0,0,0-.81.87v4.33a2.32,2.32,0,0,0,.81.86,2.2,2.2,0,0,0,1.21.31,2,2,0,0,0,1.76-.85,3.74,3.74,0,0,0,.59-2.18Z"/><path d="M349.77,193.53a4.91,4.91,0,0,1,1.07-3.27,4,4,0,0,1,5.86,0,4.88,4.88,0,0,1,1.08,3.27v.19a4.88,4.88,0,0,1-1.07,3.27,4,4,0,0,1-5.86,0,4.88,4.88,0,0,1-1.08-3.27Zm1.63.19a4.27,4.27,0,0,0,.6,2.35,2.17,2.17,0,0,0,3.55,0,4.27,4.27,0,0,0,.6-2.35v-.19a4.28,4.28,0,0,0-.6-2.34,2,2,0,0,0-1.79-.93,2,2,0,0,0-1.76.93,4.28,4.28,0,0,0-.6,2.34Z"/><path d="M364,190.58l-.84-.05a1.84,1.84,0,0,0-1.09.31,2,2,0,0,0-.68.86v6.39h-1.63v-9h1.46l.15,1.31a3.17,3.17,0,0,1,.94-1.09,2.19,2.19,0,0,1,1.29-.39,2,2,0,0,1,.35,0,1.31,1.31,0,0,1,.27.07Z"/><path d="M368.12,187v2.16h1.7v1.21h-1.7v5.44a1.23,1.23,0,0,0,.26.88,1,1,0,0,0,.69.26,2,2,0,0,0,.32,0,1.71,1.71,0,0,0,.29-.08l.22,1.12a1.36,1.36,0,0,1-.54.24,2.47,2.47,0,0,1-.7.1,2.11,2.11,0,0,1-1.58-.6,2.61,2.61,0,0,1-.59-1.88v-5.44h-1.42v-1.21h1.42V187Z"/><path d="M377.41,190.34a3.21,3.21,0,0,1,1.13-1A3.14,3.14,0,0,1,380,189a2.92,2.92,0,0,1,2.23.86,3.82,3.82,0,0,1,.8,2.65v5.61h-1.63v-5.62a2.38,2.38,0,0,0-.48-1.64,1.83,1.83,0,0,0-1.42-.53,2.7,2.7,0,0,0-1.27.28,2.36,2.36,0,0,0-.86.8v6.71h-1.64V185.18h1.64Z"/><path d="M389.12,198.27a3.76,3.76,0,0,1-3-1.24,4.73,4.73,0,0,1-1.08-3.24v-.36a4.64,4.64,0,0,1,1.11-3.19,3.5,3.5,0,0,1,2.72-1.27,3.26,3.26,0,0,1,2.69,1.12,4.61,4.61,0,0,1,.9,3v.86h-5.73l0,0a3.75,3.75,0,0,0,.59,2.19,2.1,2.1,0,0,0,1.83.84,4.28,4.28,0,0,0,1.45-.23,3.48,3.48,0,0,0,1.07-.65l.64,1.06A3.92,3.92,0,0,1,391,198,5.08,5.08,0,0,1,389.12,198.27Zm-.26-8a1.78,1.78,0,0,0-1.41.65,3.2,3.2,0,0,0-.69,1.69l0,0h4v-.13a2.64,2.64,0,0,0-.48-1.62A1.74,1.74,0,0,0,388.86,190.26Z"/><path d="M399.78,198.09c0-.27-.1-.51-.13-.71s0-.42,0-.63a3.76,3.76,0,0,1-1.19,1.08,3,3,0,0,1-1.57.44,2.89,2.89,0,0,1-2.13-.72,2.62,2.62,0,0,1-.74-2,2.32,2.32,0,0,1,1-2,4.87,4.87,0,0,1,2.82-.72h1.77V192a1.63,1.63,0,0,0-.48-1.24,1.87,1.87,0,0,0-1.36-.46,2,2,0,0,0-1.28.39,1.2,1.2,0,0,0-.49,1h-1.55v-.05a2.12,2.12,0,0,1,.91-1.78,3.76,3.76,0,0,1,2.51-.82,3.66,3.66,0,0,1,2.45.78,2.73,2.73,0,0,1,.93,2.23v4.31c0,.32,0,.63,0,.93a4.34,4.34,0,0,0,.18.87Zm-2.7-1.19a2.89,2.89,0,0,0,1.59-.45,2.13,2.13,0,0,0,.93-1V194h-1.83a2.39,2.39,0,0,0-1.58.49,1.51,1.51,0,0,0-.59,1.17,1.21,1.21,0,0,0,.38.94A1.5,1.5,0,0,0,397.08,196.9Z"/><path d="M405.36,198.09h-1.63V185.18h1.63Z"/><path d="M410.13,187v2.16h1.7v1.21h-1.7v5.44a1.19,1.19,0,0,0,.27.88.94.94,0,0,0,.69.26,1.88,1.88,0,0,0,.31,0,1.48,1.48,0,0,0,.29-.08l.22,1.12a1.38,1.38,0,0,1-.53.24,2.53,2.53,0,0,1-.71.1,2.11,2.11,0,0,1-1.58-.6,2.61,2.61,0,0,1-.59-1.88v-5.44h-1.42v-1.21h1.42V187Z"/><path d="M415.21,190.34a3.4,3.4,0,0,1,1.13-1,3.14,3.14,0,0,1,1.5-.36,2.91,2.91,0,0,1,2.23.86,3.82,3.82,0,0,1,.8,2.65v5.61h-1.63v-5.62a2.38,2.38,0,0,0-.48-1.64,1.83,1.83,0,0,0-1.42-.53,2.63,2.63,0,0,0-1.26.28,2.31,2.31,0,0,0-.87.8v6.71h-1.63V185.18h1.63Z"/><path d="M424.63,197.7l-1.24,2.53h-1l.58-2.62v-1.34h1.63Z"/><path d="M436,195.69a1.09,1.09,0,0,0-.41-.88,3.85,3.85,0,0,0-1.55-.6,6.44,6.44,0,0,1-2.43-1,1.93,1.93,0,0,1-.85-1.64,2.36,2.36,0,0,1,.93-1.87,3.65,3.65,0,0,1,2.42-.78,3.61,3.61,0,0,1,2.46.83,2.37,2.37,0,0,1,.9,1.93v.05h-1.56a1.39,1.39,0,0,0-.51-1.05,1.79,1.79,0,0,0-1.28-.47,1.84,1.84,0,0,0-1.29.39,1.22,1.22,0,0,0-.43.92,1,1,0,0,0,.37.82,4,4,0,0,0,1.52.53,6.31,6.31,0,0,1,2.5,1,2,2,0,0,1,.85,1.66,2.36,2.36,0,0,1-1,1.94,4.59,4.59,0,0,1-5.22-.11,2.49,2.49,0,0,1-.94-2l0-.05h1.56a1.49,1.49,0,0,0,.64,1.27,2.49,2.49,0,0,0,1.42.4,2.26,2.26,0,0,0,1.36-.36A1.13,1.13,0,0,0,436,195.69Z"/><path d="M439.25,193.53a5,5,0,0,1,1.07-3.27,4,4,0,0,1,5.87,0,4.88,4.88,0,0,1,1.08,3.27v.19a4.88,4.88,0,0,1-1.08,3.27,4,4,0,0,1-5.86,0,4.88,4.88,0,0,1-1.08-3.27Zm1.63.19a4.27,4.27,0,0,0,.6,2.35,2.17,2.17,0,0,0,3.55,0,4.27,4.27,0,0,0,.61-2.35v-.19a4.29,4.29,0,0,0-.61-2.34,2,2,0,0,0-1.79-.93,2,2,0,0,0-1.76.93,4.28,4.28,0,0,0-.6,2.34Z"/><path d="M452.82,197a1.91,1.91,0,0,0,1.32-.5,1.59,1.59,0,0,0,.56-1.23h1.47l0,.05a2.57,2.57,0,0,1-1,2.06,3.78,3.78,0,0,1-5.29-.39,4.91,4.91,0,0,1-1-3.19v-.35a4.92,4.92,0,0,1,1-3.18,3.52,3.52,0,0,1,2.91-1.29,3.35,3.35,0,0,1,2.45.93,3,3,0,0,1,.93,2.28l0,0H454.7a2,2,0,0,0-.54-1.4,1.75,1.75,0,0,0-1.34-.57,1.89,1.89,0,0,0-1.75.93,4.31,4.31,0,0,0-.55,2.25v.35a4.47,4.47,0,0,0,.54,2.28A1.89,1.89,0,0,0,452.82,197Z"/><path d="M459.9,186.85h-1.64v-1.67h1.64Zm0,11.24h-1.64v-9h1.64Z"/><path d="M467.91,198.09c-.06-.27-.1-.51-.13-.71s0-.42-.06-.63a3.73,3.73,0,0,1-1.18,1.08,3.06,3.06,0,0,1-1.58.44,2.92,2.92,0,0,1-2.13-.72,2.62,2.62,0,0,1-.73-2,2.29,2.29,0,0,1,1-2,4.85,4.85,0,0,1,2.81-.72h1.77V192a1.63,1.63,0,0,0-.48-1.24,1.86,1.86,0,0,0-1.35-.46,2,2,0,0,0-1.29.39,1.22,1.22,0,0,0-.48,1h-1.55l0-.05a2.13,2.13,0,0,1,.92-1.78,4.24,4.24,0,0,1,5,0,2.72,2.72,0,0,1,.92,2.23v4.31c0,.32,0,.63,0,.93a5.19,5.19,0,0,0,.19.87Zm-2.71-1.19a3,3,0,0,0,1.6-.45,2.16,2.16,0,0,0,.92-1V194H465.9a2.37,2.37,0,0,0-1.58.49,1.48,1.48,0,0,0-.59,1.17,1.21,1.21,0,0,0,.37.94A1.52,1.52,0,0,0,465.2,196.9Z"/><path d="M473.48,198.09h-1.63V185.18h1.63Z"/><path d="M482.5,194.83l.2,1.15h.05l.22-1.15,1.78-5.69h1.31l1.8,5.69.23,1.29h.05l.26-1.29,1.33-5.69h1.7l-2.6,9h-1.31l-1.77-5.45-.34-1.42h-.05l-.32,1.42-1.73,5.45H482l-2.6-9h1.7Z"/><path d="M492.65,193.53a5,5,0,0,1,1.07-3.27,4,4,0,0,1,5.87,0,4.88,4.88,0,0,1,1.08,3.27v.19a4.88,4.88,0,0,1-1.08,3.27,4,4,0,0,1-5.86,0,4.88,4.88,0,0,1-1.08-3.27Zm1.63.19a4.27,4.27,0,0,0,.6,2.35,2.17,2.17,0,0,0,3.55,0,4.19,4.19,0,0,0,.61-2.35v-.19a4.2,4.2,0,0,0-.61-2.34,2,2,0,0,0-1.78-.93,2,2,0,0,0-1.77.93,4.28,4.28,0,0,0-.6,2.34Z"/><path d="M506.9,190.58l-.84-.05a1.79,1.79,0,0,0-1.08.31,1.92,1.92,0,0,0-.69.86v6.39h-1.63v-9h1.46l.16,1.31a3,3,0,0,1,.94-1.09,2.18,2.18,0,0,1,1.28-.39,2,2,0,0,1,.35,0,1.31,1.31,0,0,1,.27.07Z"/><path d="M511.07,194h-.84v4.13H508.6V185.18h1.63v7.49h.82l2.69-3.53h2l-3.26,4.13,3.54,4.82h-1.93Z"/><path d="M518.71,197.7l-1.24,2.53h-1l.58-2.62v-1.34h1.63Z"/><path d="M320,213.87A4.91,4.91,0,0,1,321,210.6a3.61,3.61,0,0,1,2.92-1.29,3.65,3.65,0,0,1,2.94,1.28,4.93,4.93,0,0,1,1.08,3.28v.18a4.89,4.89,0,0,1-1.07,3.28,4,4,0,0,1-5.86,0,4.93,4.93,0,0,1-1.08-3.28Zm1.63.18a4.23,4.23,0,0,0,.6,2.35,2.16,2.16,0,0,0,3.55,0,4.23,4.23,0,0,0,.6-2.35v-.18a4.24,4.24,0,0,0-.6-2.34,2,2,0,0,0-1.79-.94,2,2,0,0,0-1.76.94,4.24,4.24,0,0,0-.6,2.34Z"/><path d="M334.22,210.92l-.84,0a1.91,1.91,0,0,0-1.09.3,2.09,2.09,0,0,0-.68.86v6.4H330v-9h1.46l.15,1.31a3.17,3.17,0,0,1,.94-1.09,2.19,2.19,0,0,1,1.29-.39,2,2,0,0,1,.35,0l.27.06Z"/><path d="M342,209.48v9.69a3,3,0,0,1-.71,2.13,2.59,2.59,0,0,1-2,.75,2.19,2.19,0,0,1-.46,0,2.93,2.93,0,0,1-.45-.11l.11-1.28.33.07.36,0a1.07,1.07,0,0,0,.85-.37,1.74,1.74,0,0,0,.32-1.18v-9.69Zm-.05-2.33h-1.63v-1.63H342Z"/><path d="M350.2,217.11a3.14,3.14,0,0,1-1.09,1.11,3,3,0,0,1-1.53.39,2.87,2.87,0,0,1-2.28-.94,4.3,4.3,0,0,1-.82-2.91v-5.28h1.63v5.29a3.32,3.32,0,0,0,.42,2,1.57,1.57,0,0,0,1.32.54,2.73,2.73,0,0,0,1.43-.35,2.22,2.22,0,0,0,.86-1v-6.45h1.63v9H350.3Z"/><path d="M359.35,216a1.07,1.07,0,0,0-.41-.87,3.85,3.85,0,0,0-1.55-.6,6.47,6.47,0,0,1-2.43-1,1.92,1.92,0,0,1-.85-1.64,2.36,2.36,0,0,1,.93-1.87,4.1,4.1,0,0,1,4.88,0,2.35,2.35,0,0,1,.9,1.93l0,.05h-1.55a1.39,1.39,0,0,0-.51-1.05,1.81,1.81,0,0,0-1.29-.48,1.83,1.83,0,0,0-1.28.39,1.2,1.2,0,0,0-.43.93,1,1,0,0,0,.37.82,4.08,4.08,0,0,0,1.52.53,6.47,6.47,0,0,1,2.5,1,2,2,0,0,1,.85,1.67,2.34,2.34,0,0,1-1,1.94,4,4,0,0,1-2.51.76,3.91,3.91,0,0,1-2.7-.87,2.49,2.49,0,0,1-.94-2l0-.05h1.55a1.53,1.53,0,0,0,.65,1.27,2.47,2.47,0,0,0,1.42.4,2.22,2.22,0,0,0,1.36-.37A1.14,1.14,0,0,0,359.35,216Z"/><path d="M365.27,207.32v2.16H367v1.21h-1.7v5.43a1.24,1.24,0,0,0,.26.89,1,1,0,0,0,.7.25l.31,0,.29-.08.22,1.12a1.36,1.36,0,0,1-.54.24,2.82,2.82,0,0,1-.7.1,2.11,2.11,0,0,1-1.58-.6,2.63,2.63,0,0,1-.59-1.89v-5.43h-1.42v-1.21h1.42v-2.16Z"/><path d="M370.48,207.19h-1.63v-1.67h1.63Zm0,11.24h-1.63v-9h1.63Z"/><path d="M376.54,217.33a1.92,1.92,0,0,0,1.32-.5,1.55,1.55,0,0,0,.56-1.23h1.48l0,.05a2.6,2.6,0,0,1-1,2.06,3.79,3.79,0,0,1-5.3-.39,5,5,0,0,1-1-3.19v-.35a4.92,4.92,0,0,1,1-3.18,3.49,3.49,0,0,1,2.9-1.29,3.39,3.39,0,0,1,2.46.93,2.94,2.94,0,0,1,.92,2.27l0,.05h-1.48a2,2,0,0,0-.53-1.39,1.78,1.78,0,0,0-1.35-.58,1.88,1.88,0,0,0-1.75.94,4.41,4.41,0,0,0-.55,2.25v.35a4.31,4.31,0,0,0,.55,2.27A1.87,1.87,0,0,0,376.54,217.33Z"/><path d="M385.57,218.61a3.8,3.8,0,0,1-3-1.24,4.73,4.73,0,0,1-1.08-3.24v-.37a4.68,4.68,0,0,1,1.11-3.19,3.49,3.49,0,0,1,2.72-1.26,3.23,3.23,0,0,1,2.69,1.12,4.58,4.58,0,0,1,.9,3v.86h-5.73l0,0a3.75,3.75,0,0,0,.59,2.19,2.1,2.1,0,0,0,1.83.84,4.28,4.28,0,0,0,1.45-.23,3.48,3.48,0,0,0,1.07-.65l.64,1.05a4.11,4.11,0,0,1-1.27.79A5.08,5.08,0,0,1,385.57,218.61Zm-.26-8a1.76,1.76,0,0,0-1.41.66,3.2,3.2,0,0,0-.69,1.69l0,0h4v-.13a2.62,2.62,0,0,0-.48-1.62A1.74,1.74,0,0,0,385.31,210.59Z"/><path d="M402.57,214.29a4.94,4.94,0,0,1-.93,3.13,3.06,3.06,0,0,1-2.55,1.19,3.69,3.69,0,0,1-1.46-.28,2.84,2.84,0,0,1-1.06-.83v4.37h-1.63V209.48h1.25l.26,1.16a3,3,0,0,1,1.09-1,3.34,3.34,0,0,1,1.52-.34,3,3,0,0,1,2.59,1.32,6,6,0,0,1,.92,3.49Zm-1.63-.17a4.7,4.7,0,0,0-.6-2.5,1.93,1.93,0,0,0-1.77-1,2.23,2.23,0,0,0-1.2.31,2.52,2.52,0,0,0-.8.88v4.33a2.37,2.37,0,0,0,.8.86,2.26,2.26,0,0,0,1.22.31,2,2,0,0,0,1.76-.85,3.75,3.75,0,0,0,.59-2.19Z"/><path d="M408.81,210.92l-.83,0a1.87,1.87,0,0,0-1.09.3,2,2,0,0,0-.69.86v6.4h-1.63v-9H406l.16,1.31a3,3,0,0,1,.94-1.09,2.18,2.18,0,0,1,1.28-.39,2,2,0,0,1,.35,0l.27.06Z"/><path d="M410,213.87A4.92,4.92,0,0,1,411,210.6a3.59,3.59,0,0,1,2.92-1.29,3.65,3.65,0,0,1,2.94,1.28,4.93,4.93,0,0,1,1.08,3.28v.18a4.89,4.89,0,0,1-1.08,3.28,4,4,0,0,1-5.86,0,4.93,4.93,0,0,1-1.08-3.28Zm1.63.18a4.23,4.23,0,0,0,.6,2.35,2.17,2.17,0,0,0,3.56,0,4.23,4.23,0,0,0,.6-2.35v-.18a4.16,4.16,0,0,0-.61-2.34,2.15,2.15,0,0,0-3.55,0,4.24,4.24,0,0,0-.6,2.34Z"/><path d="M422.84,215.79l.14.63h0l.16-.63,2.06-6.31h1.66l-3.29,9h-1.24l-3.33-9h1.67Z"/><path d="M430.14,207.19h-1.63v-1.67h1.63Zm0,11.24h-1.63v-9h1.63Z"/><path d="M437.85,216a1.07,1.07,0,0,0-.41-.87,3.85,3.85,0,0,0-1.55-.6,6.47,6.47,0,0,1-2.43-1,1.92,1.92,0,0,1-.85-1.64,2.36,2.36,0,0,1,.93-1.87,4.1,4.1,0,0,1,4.88,0,2.35,2.35,0,0,1,.9,1.93v.05h-1.56a1.39,1.39,0,0,0-.51-1.05,1.81,1.81,0,0,0-1.29-.48,1.83,1.83,0,0,0-1.28.39,1.2,1.2,0,0,0-.43.93,1,1,0,0,0,.37.82,4.08,4.08,0,0,0,1.52.53,6.47,6.47,0,0,1,2.5,1,2,2,0,0,1,.85,1.67,2.36,2.36,0,0,1-1,1.94,4,4,0,0,1-2.52.76,3.91,3.91,0,0,1-2.7-.87,2.49,2.49,0,0,1-.94-2l0-.05h1.56a1.49,1.49,0,0,0,.64,1.27,2.47,2.47,0,0,0,1.42.4,2.2,2.2,0,0,0,1.36-.37A1.11,1.11,0,0,0,437.85,216Z"/><path d="M443.27,207.19h-1.63v-1.67h1.63Zm0,11.24h-1.63v-9h1.63Z"/><path d="M445.4,213.87a5,5,0,0,1,1.07-3.27,3.61,3.61,0,0,1,2.92-1.29,3.68,3.68,0,0,1,2.95,1.28,4.93,4.93,0,0,1,1.08,3.28v.18a4.89,4.89,0,0,1-1.08,3.28,4,4,0,0,1-5.86,0,4.93,4.93,0,0,1-1.08-3.28Zm1.63.18a4.23,4.23,0,0,0,.6,2.35,2.16,2.16,0,0,0,3.55,0,4.23,4.23,0,0,0,.61-2.35v-.18a4.24,4.24,0,0,0-.61-2.34,2,2,0,0,0-1.79-.94,2,2,0,0,0-1.76.94,4.24,4.24,0,0,0-.6,2.34Z"/><path d="M456.87,209.48l.11,1.33a3.27,3.27,0,0,1,1.12-1.1,3.29,3.29,0,0,1,3.78.45,3.73,3.73,0,0,1,.8,2.62v5.65h-1.63v-5.62a2.43,2.43,0,0,0-.47-1.68,1.88,1.88,0,0,0-1.43-.49,2.55,2.55,0,0,0-1.28.3,2.12,2.12,0,0,0-.83.85v6.64h-1.63v-9Z"/><path d="M466.81,207.19h-1.64v-1.67h1.64Zm0,11.24h-1.64v-9h1.64Z"/><path d="M470.77,209.48l.12,1.33a3.18,3.18,0,0,1,1.12-1.1,2.91,2.91,0,0,1,1.53-.4,2.88,2.88,0,0,1,2.24.85,3.73,3.73,0,0,1,.8,2.62v5.65H475v-5.62a2.43,2.43,0,0,0-.47-1.68,1.88,1.88,0,0,0-1.43-.49,2.51,2.51,0,0,0-1.27.3,2.15,2.15,0,0,0-.84.85v6.64h-1.63v-9Z"/><path d="M478.66,214.12a5.92,5.92,0,0,1,.92-3.48,2.94,2.94,0,0,1,2.58-1.33,3.12,3.12,0,0,1,1.49.35,2.91,2.91,0,0,1,1.09,1l.2-1.16h1.3v9a3.46,3.46,0,0,1-1,2.65,4.16,4.16,0,0,1-2.89.92,6,6,0,0,1-1.4-.18,5.67,5.67,0,0,1-1.32-.48l.25-1.27a4.33,4.33,0,0,0,1.14.4,5.92,5.92,0,0,0,1.31.15,2.38,2.38,0,0,0,1.73-.54,2.25,2.25,0,0,0,.55-1.65v-1a3.07,3.07,0,0,1-1.05.86,3.37,3.37,0,0,1-1.42.29,3.06,3.06,0,0,1-2.56-1.19,4.94,4.94,0,0,1-.92-3.13Zm1.63.17a3.79,3.79,0,0,0,.55,2.17,1.91,1.91,0,0,0,1.71.82,2.2,2.2,0,0,0,1.24-.33,2.65,2.65,0,0,0,.82-.95v-4.12a2.58,2.58,0,0,0-.82-.91,2.2,2.2,0,0,0-1.22-.33,1.85,1.85,0,0,0-1.72,1,5,5,0,0,0-.56,2.52Z"/><path d="M490.36,218.43h-1.63v-1.67h1.63Z"/><rect class="cls-4" x="45.37" y="44.15" width="161.7" height="161.7" transform="translate(125.36 -52.64) rotate(45)"/><g class="cls-5"><path class="cls-6" d="M126.21,227.71,23.51,125,126.21,22.29,228.92,125ZM26.68,125l99.53,99.53L225.75,125,126.21,25.47Zm99.53,89.66L91.94,180.38l26.21-26.21L92.74,128.75l-18,18L86.62,158.7l4.93-4.94-7-7,8.17-8.16,15.54,15.54L87,175.45l-30-30L77.51,125,57,104.52l30-30,21.28,21.28L92.74,111.37l-8.17-8.16,7-7L86.62,91.3,74.7,103.21l18,18,25.41-25.42L91.94,69.62l34.27-34.28,34.28,34.28L134.28,95.83l25.41,25.42,18-18L165.81,91.3l-4.93,4.94,7,7-8.17,8.16L144.15,95.83l21.28-21.28,30,30L174.92,125l20.48,20.48-30,30-21.28-21.27,15.54-15.54,8.17,8.16-7,7,4.93,4.94,11.92-11.91-18-18-25.41,25.42,26.21,26.21Zm-31.1-34.28,31.1,31.11,31.11-31.11-26.21-26.21,28.58-28.59,21.21,21.21-15.09,15.08-8.11-8.11,7-7-5-5-12.36,12.37,18.1,18.1,26.79-26.79L171.75,125l20.47-20.48L165.43,77.73l-18.1,18.1,12.36,12.37,5-5-7-7,8.11-8.12,15.09,15.09-21.21,21.21L131.11,95.83l26.21-26.21L126.21,38.51,95.11,69.62l26.21,26.21L92.74,124.42,71.53,103.21,86.62,88.13l8.11,8.1-7,7,5,5L105.1,95.83,87,77.73,60.21,104.52,80.68,125,60.21,145.48,87,172.27l18.1-18.1L92.74,141.8l-5,5,7,7-8.11,8.11L71.53,146.79l21.21-21.21,28.58,28.59Zm105.22-39.84L184.79,125l15.54-15.54L215.88,125ZM188,125l12.36,12.37L212.7,125l-12.37-12.37ZM52.1,140.54,36.56,125,52.1,109.46,67.64,125ZM39.73,125,52.1,137.37,64.46,125,52.1,112.63Z"/><path class="cls-6" d="M126.21,204.07l-24-24,24-24.05,24,24.05Zm-20.87-24,20.87,20.88L147.09,180l-20.88-20.87Z"/><path class="cls-6" d="M126.21,93.36l-24-24,24-24.05,24,24.05Zm-20.87-24,20.87,20.88,20.88-20.88L126.21,48.44Z"/></g><polygon class="cls-7" points="12.46 125 126.33 238.87 528.25 238.87 642.12 125 528.25 11.13 126.33 11.13 12.46 125"/><path class="cls-4" d="M320.78,94.84a6.43,6.43,0,0,1-2.49-2.36,6.89,6.89,0,0,1,0-6.81,6.33,6.33,0,0,1,2.49-2.35,7.31,7.31,0,0,1,3.55-.85,7.43,7.43,0,0,1,3,.58,6,6,0,0,1,2.25,1.68l-1.89,1.75A4.12,4.12,0,0,0,324.47,85a4.21,4.21,0,0,0-2.11.52A3.68,3.68,0,0,0,320.91,87a4.49,4.49,0,0,0,0,4.23,3.61,3.61,0,0,0,1.45,1.45,4.21,4.21,0,0,0,2.11.52,4.08,4.08,0,0,0,3.22-1.51l1.89,1.75a5.88,5.88,0,0,1-2.26,1.7,7.48,7.48,0,0,1-3,.58A7.39,7.39,0,0,1,320.78,94.84Z"/><path class="cls-4" d="M343.29,82.69V95.46h-3V90.23h-5.8v5.23h-3V82.69h3v5h5.8v-5Z"/><path class="cls-4" d="M346.32,82.69h3V95.46h-3Z"/><path class="cls-4" d="M352.31,82.69h2.95V93.06h6.41v2.4h-9.36Z"/><path class="cls-4" d="M363.33,82.69h5.8a8.13,8.13,0,0,1,3.68.79,5.93,5.93,0,0,1,2.48,2.24,6.77,6.77,0,0,1,0,6.71,5.86,5.86,0,0,1-2.48,2.24,8.13,8.13,0,0,1-3.68.79h-5.8ZM369,93A4.31,4.31,0,0,0,372.05,92a4.25,4.25,0,0,0,0-5.79A4.3,4.3,0,0,0,369,85.12h-2.7V93Z"/><path class="cls-4" d="M384.84,95.27a7,7,0,0,1-2.27-1.06l1-2.23a7.11,7.11,0,0,0,1.95,1,7.47,7.47,0,0,0,2.27.36,3.6,3.6,0,0,0,1.86-.37,1.13,1.13,0,0,0,.6-1,1,1,0,0,0-.35-.76,2.75,2.75,0,0,0-.92-.48c-.37-.12-.87-.25-1.5-.4a20.45,20.45,0,0,1-2.39-.69,3.88,3.88,0,0,1-1.6-1.12,3,3,0,0,1-.67-2,3.51,3.51,0,0,1,.61-2A4,4,0,0,1,385.24,83a7.48,7.48,0,0,1,3-.53,10.09,10.09,0,0,1,2.39.29,7.27,7.27,0,0,1,2,.84l-.91,2.25a7.12,7.12,0,0,0-3.54-1,3.35,3.35,0,0,0-1.83.4,1.23,1.23,0,0,0-.6,1.06,1,1,0,0,0,.69,1,11,11,0,0,0,2.09.63,21,21,0,0,1,2.39.69,3.9,3.9,0,0,1,1.59,1.1,2.9,2.9,0,0,1,.67,2,3.47,3.47,0,0,1-.61,2,4.1,4.1,0,0,1-1.84,1.43,7.31,7.31,0,0,1-3,.53A10.22,10.22,0,0,1,384.84,95.27Z"/><path class="cls-4" d="M396.63,94.17a5.82,5.82,0,0,1-1.52-4.33V82.69h2.95v7q0,3.43,2.85,3.43a2.67,2.67,0,0,0,2.12-.83,3.9,3.9,0,0,0,.73-2.6v-7h2.92v7.15a5.82,5.82,0,0,1-1.53,4.33,6.76,6.76,0,0,1-8.52,0Z"/><path class="cls-4" d="M417.74,95.46l-2.47-3.55h-2.71v3.55h-3V82.69h5.53a7.25,7.25,0,0,1,2.95.56,4.26,4.26,0,0,1,2.6,4.07,4.18,4.18,0,0,1-2.63,4l2.86,4.1ZM417,85.67a3.13,3.13,0,0,0-2-.57h-2.4v4.45H415a3.07,3.07,0,0,0,2-.58,2.32,2.32,0,0,0,0-3.3Z"/><path class="cls-4" d="M435.3,82.69l-5.53,12.77h-2.92l-5.52-12.77h3.2l3.89,9.12,3.94-9.12Z"/><path class="cls-4" d="M436.35,82.69h3V95.46h-3Z"/><path class="cls-4" d="M454.55,82.69,449,95.46H446.1l-5.51-12.77h3.19l3.89,9.12,3.94-9.12Z"/><path class="cls-4" d="M458.06,94.83a6.52,6.52,0,0,1,0-11.5,7.53,7.53,0,0,1,3.59-.86,7.43,7.43,0,0,1,3.58.86,6.45,6.45,0,0,1,2.5,2.36,6.75,6.75,0,0,1,0,6.77,6.48,6.48,0,0,1-2.5,2.37,7.43,7.43,0,0,1-3.58.85A7.52,7.52,0,0,1,458.06,94.83Zm5.64-2.19a3.76,3.76,0,0,0,1.43-1.45,4.56,4.56,0,0,0,0-4.23,3.83,3.83,0,0,0-1.43-1.45,4.28,4.28,0,0,0-4.09,0A3.69,3.69,0,0,0,458.18,87a4.49,4.49,0,0,0,0,4.23,3.63,3.63,0,0,0,1.43,1.45,4.28,4.28,0,0,0,4.09,0Z"/><path class="cls-4" d="M479,95.46l-2.47-3.55h-2.71v3.55h-3V82.69h5.53a7.25,7.25,0,0,1,3,.56,4.26,4.26,0,0,1,2.6,4.07,4.18,4.18,0,0,1-2.63,4l2.86,4.1Zm-.75-9.79a3.13,3.13,0,0,0-2-.57h-2.4v4.45h2.4a3.07,3.07,0,0,0,2-.58,2.32,2.32,0,0,0,0-3.3Z"/><path class="cls-4" d="M485.55,95.27a7,7,0,0,1-2.27-1.06l1-2.23a7,7,0,0,0,2,1,7.36,7.36,0,0,0,2.26.36,3.6,3.6,0,0,0,1.86-.37,1.13,1.13,0,0,0,.6-1,1,1,0,0,0-.35-.76,2.66,2.66,0,0,0-.92-.48c-.37-.12-.87-.25-1.5-.4a21,21,0,0,1-2.39-.69,3.88,3.88,0,0,1-1.6-1.12,3,3,0,0,1-.67-2,3.58,3.58,0,0,1,.61-2A4,4,0,0,1,486,83a7.48,7.48,0,0,1,3-.53,10.09,10.09,0,0,1,2.39.29,7.27,7.27,0,0,1,2,.84l-.91,2.25a7.12,7.12,0,0,0-3.54-1,3.35,3.35,0,0,0-1.83.4,1.23,1.23,0,0,0-.6,1.06,1,1,0,0,0,.69,1,11,11,0,0,0,2.09.63,21,21,0,0,1,2.39.69,4,4,0,0,1,1.6,1.1,2.94,2.94,0,0,1,.66,2,3.47,3.47,0,0,1-.61,2,4.13,4.13,0,0,1-1.83,1.43,7.39,7.39,0,0,1-3,.53A10.22,10.22,0,0,1,485.55,95.27Z"/><path class="cls-4" d="M344.36,116.73a6.28,6.28,0,0,1-2.5-2.37,6.51,6.51,0,0,1,2.5-9.13,7.88,7.88,0,0,1,7.16,0,6.37,6.37,0,0,1,3.41,5.75,6.4,6.4,0,0,1-3.41,5.75,7.88,7.88,0,0,1-7.16,0Zm5.63-2.18a3.76,3.76,0,0,0,1.43-1.45,4.58,4.58,0,0,0,0-4.24,3.76,3.76,0,0,0-1.43-1.45,4.28,4.28,0,0,0-4.09,0,3.69,3.69,0,0,0-1.43,1.45,4.58,4.58,0,0,0,0,4.24,3.69,3.69,0,0,0,1.43,1.45,4.28,4.28,0,0,0,4.09,0Z"/><path class="cls-4" d="M360.12,107v3.38H366v2.37h-5.91v4.66h-3V104.59h9.66V107Z"/><path class="cls-4" d="M386.27,104.59l-5.53,12.78h-2.92l-5.51-12.78h3.19l3.89,9.13,3.94-9.13Z"/><path class="cls-4" d="M387.33,104.59h3v12.78h-3Z"/><path class="cls-4" d="M395.92,116.73a6.28,6.28,0,0,1-2.5-2.37,6.75,6.75,0,0,1,0-6.77,6.32,6.32,0,0,1,2.5-2.36,7.88,7.88,0,0,1,7.16,0,6.37,6.37,0,0,1,3.41,5.75,6.4,6.4,0,0,1-3.41,5.75,7.88,7.88,0,0,1-7.16,0Zm5.63-2.18A3.69,3.69,0,0,0,403,113.1a4.58,4.58,0,0,0,0-4.24,3.69,3.69,0,0,0-1.43-1.45,4.28,4.28,0,0,0-4.09,0,3.69,3.69,0,0,0-1.43,1.45,4.58,4.58,0,0,0,0,4.24,3.69,3.69,0,0,0,1.43,1.45,4.28,4.28,0,0,0,4.09,0Z"/><path class="cls-4" d="M408.72,104.59h3V115h6.4v2.41h-9.36Z"/><path class="cls-4" d="M429.64,115v2.38h-9.89V104.59h9.65V107h-6.72v2.78h5.94V112h-5.94V115Z"/><path class="cls-4" d="M443.71,104.59v12.78h-2.43l-6.37-7.76v7.76H432V104.59h2.45l6.35,7.76v-7.76Z"/><path class="cls-4" d="M449.32,116.74a6.33,6.33,0,0,1-2.48-2.36,6.89,6.89,0,0,1,0-6.81,6.38,6.38,0,0,1,2.48-2.35,7.88,7.88,0,0,1,6.55-.26,5.91,5.91,0,0,1,2.26,1.68l-1.9,1.75a4.06,4.06,0,0,0-3.21-1.5,4.24,4.24,0,0,0-2.12.52,3.74,3.74,0,0,0-1.45,1.45,4.58,4.58,0,0,0,0,4.24,3.74,3.74,0,0,0,1.45,1.45,4.35,4.35,0,0,0,2.12.52,4.05,4.05,0,0,0,3.21-1.52l1.9,1.75a5.86,5.86,0,0,1-2.26,1.7,7.53,7.53,0,0,1-3,.59A7.4,7.4,0,0,1,449.32,116.74Z"/><path class="cls-4" d="M470,115v2.38h-9.89V104.59h9.65V107h-6.71v2.78H469V112h-5.93V115Z"/><path class="cls-4" d="M343.55,30.75V65.43h-8V37.19h-6.93V30.75Z"/><path class="cls-4" d="M375.5,58.89v6.54H349.29v-5.2L362.67,47.6a14.24,14.24,0,0,0,2.87-3.49,6.32,6.32,0,0,0,.75-2.9,3.83,3.83,0,0,0-1.42-3.2,6.58,6.58,0,0,0-4.13-1.11,9.6,9.6,0,0,0-4.11.86,7.88,7.88,0,0,0-3.08,2.61l-5.84-3.77a13.72,13.72,0,0,1,5.6-4.73,18.65,18.65,0,0,1,8.17-1.71,16.81,16.81,0,0,1,6.76,1.26A10.39,10.39,0,0,1,372.75,35a9.26,9.26,0,0,1,1.61,5.43,12,12,0,0,1-1.19,5.3,20.42,20.42,0,0,1-4.6,5.64l-8,7.53Z"/><path class="cls-4" d="M387.34,57.53A4.62,4.62,0,0,1,388.68,61a7.92,7.92,0,0,1-.25,2,21.83,21.83,0,0,1-1.09,3l-2.82,7.13h-4.91l2.18-7.87a4.06,4.06,0,0,1-2-1.61,4.71,4.71,0,0,1-.72-2.61,4.56,4.56,0,0,1,1.36-3.44,4.79,4.79,0,0,1,3.44-1.31A4.69,4.69,0,0,1,387.34,57.53Z"/><path class="cls-4" d="M418.7,58.89v6.54H392.49v-5.2L405.87,47.6a14.24,14.24,0,0,0,2.87-3.49,6.32,6.32,0,0,0,.75-2.9,3.86,3.86,0,0,0-1.42-3.2,6.58,6.58,0,0,0-4.13-1.11,9.6,9.6,0,0,0-4.11.86,7.88,7.88,0,0,0-3.08,2.61l-5.84-3.77a13.72,13.72,0,0,1,5.6-4.73,18.65,18.65,0,0,1,8.17-1.71,16.81,16.81,0,0,1,6.76,1.26A10.45,10.45,0,0,1,416,35a9.26,9.26,0,0,1,1.61,5.43,12.13,12.13,0,0,1-1.19,5.3,20.31,20.31,0,0,1-4.61,5.64l-8,7.53Z"/><path class="cls-4" d="M453.28,58.15h-5.65v7.28H439.8V58.15H421.13v-5.4l16.35-22h8.42L430.74,51.61h9.31V45.12h7.58v6.49h5.65Z"/><path class="cls-4" d="M481.47,58.89v6.54H455.26v-5.2L468.64,47.6a14.48,14.48,0,0,0,2.87-3.49,6.31,6.31,0,0,0,.74-2.9,3.85,3.85,0,0,0-1.41-3.2,6.59,6.59,0,0,0-4.14-1.11,9.63,9.63,0,0,0-4.11.86,7.92,7.92,0,0,0-3.07,2.61l-5.84-3.77a13.75,13.75,0,0,1,5.59-4.73,18.73,18.73,0,0,1,8.18-1.71,16.85,16.85,0,0,1,6.76,1.26A10.45,10.45,0,0,1,478.72,35a9.26,9.26,0,0,1,1.61,5.43,12.13,12.13,0,0,1-1.19,5.3,20.31,20.31,0,0,1-4.61,5.64l-8,7.53Z"/><path class="cls-6" d="M169.45,144.85c-.37,1.45-.62,2.94-1.11,4.35a17,17,0,0,1-18.74,11c-7.58-1.39-12.39-5.9-14.28-13.39a18.63,18.63,0,0,1-.43-4.09c-.07-2,0-4.07,0-6.11a1.25,1.25,0,0,0-.46-.87c-.7-.5-1.46-.92-2.06-1.29a54.77,54.77,0,0,1-2.55,5.21,39.07,39.07,0,0,1-10.07,10.44,1.23,1.23,0,0,1-1.62,0c-4.63-3.55-8.85-7.47-11.42-12.85-.43-.89-.69-1.87-1-2.85a26.25,26.25,0,0,0-6.19,4.5A27.85,27.85,0,0,0,91.09,155c-.19,1.28-.21,2.58-.31,3.87-.08,1-.57,1.57-1.35,1.53s-1.25-.65-1.23-1.64a30,30,0,0,1,6.38-18.29c1-1.27,2.09-2.45,3.17-3.7-.67-.41-1.4-.78-2-1.25a13.26,13.26,0,0,1-4.19-17.24,1.18,1.18,0,0,0,0-1.24,8.14,8.14,0,0,1,3-10.5,1.22,1.22,0,0,0,.68-1.26,28.46,28.46,0,0,1,.93-9A23.67,23.67,0,0,1,105.89,83a23.08,23.08,0,0,1,11-3.78,2.26,2.26,0,0,0,.37-.11h3.18a2.36,2.36,0,0,0,.38.1,22.87,22.87,0,0,1,11,3.73,23.57,23.57,0,0,1,10,13.38,28.93,28.93,0,0,1,.92,9,1,1,0,0,0,.57,1.08,7.36,7.36,0,0,1,3.08,3.42,1.23,1.23,0,0,0,1.34.81c.43-3,1.85-4.6,4.21-4.75a4.31,4.31,0,0,1,2.91.8,4.7,4.7,0,0,1,1.93,4.08l.47-.12a4.4,4.4,0,0,1,5.85,3.84,31.73,31.73,0,0,1,0,3.24l.74-.19a4.5,4.5,0,0,1,4,.78,5.92,5.92,0,0,1,1.74,2.66Zm-25.6-34a5.17,5.17,0,0,0-2.64-2.48,1.77,1.77,0,0,1-1.16-1.85,53.12,53.12,0,0,0-.31-6.8A21.11,21.11,0,0,0,111,83.33,20.57,20.57,0,0,0,98.5,97.22a28.52,28.52,0,0,0-.78,9,2.12,2.12,0,0,1-1.4,2.26A5.46,5.46,0,0,0,94,116.21a2.44,2.44,0,0,1,0,3,10.74,10.74,0,0,0,5.3,15.37,1.36,1.36,0,0,0,1.49-.16c9.88-6.85,20.33-7.79,31.31-2.94.91.4,1.77.91,2.72,1.4,0-.33,0-.59,0-.84,0-1.56,0-3.12,0-4.68a4.43,4.43,0,0,1,4.23-4.58,13.08,13.08,0,0,1,2.16.22v-.85c0-2.19,0-4.39,0-6.58A4.81,4.81,0,0,1,143.85,110.81Zm0,23.95c0,.72,0,1.35,0,2s.18.74.73.86a10.61,10.61,0,0,1,8.38,7.45,14.67,14.67,0,0,1,.53,3.5,1.26,1.26,0,0,1-2.5.14,4.19,4.19,0,0,1-.09-.7,8.44,8.44,0,0,0-7.86-8c-1.47-.12-1.79-.45-1.79-1.92V127.9a5.87,5.87,0,0,0-.08-1.11,1.86,1.86,0,0,0-3.63,0,6.74,6.74,0,0,0-.09,1.19c0,4.86,0,9.73,0,14.59a20.28,20.28,0,0,0,.21,2.92c1.23,8.79,10.81,14.55,19.21,11.57a14.65,14.65,0,0,0,10-14.27q0-10.11,0-20.23a5.24,5.24,0,0,0-.05-.79,1.84,1.84,0,0,0-2-1.69,1.82,1.82,0,0,0-1.69,2q0,4.68,0,9.36c0,.44,0,.78.51,1a1,1,0,0,1,.54,1.34,2.55,2.55,0,0,1-1,.93,2,2,0,0,1-.93.07H143.87Zm-14.08-1.48-.22-.09s-.07-.08-.11-.09a28.09,28.09,0,0,0-20.87-.13.54.54,0,0,0-.37.79c.38,1.09.76,2.19,1.2,3.26a.92.92,0,0,0,.67.37c5.87,0,11.73,0,17.6,0a.82.82,0,0,0,.62-.32C128.83,135.81,129.3,134.54,129.79,133.28Zm24.27-1.15V111c0-1.6-.7-2.51-1.92-2.49s-1.89.91-1.89,2.52v21.09Zm-6.42,0c0-.21,0-.34,0-.47q0-8.2,0-16.41a3.74,3.74,0,0,0-.13-.94,1.84,1.84,0,0,0-2.18-1.24c-1,.24-1.48.94-1.48,2.21q0,8.08,0,16.17c0,.23,0,.45.05.68Zm12.76,0c0-.22,0-.38,0-.53V115.27a3.42,3.42,0,0,0-.08-.79,1.84,1.84,0,0,0-1.8-1.4,1.82,1.82,0,0,0-1.8,1.39,6.54,6.54,0,0,0-.12,1.17v16.5Zm-49.05,7.91a44.81,44.81,0,0,0,7.48,7.36c2-1.29,6.79-6,7.41-7.36Z"/><path class="cls-6" d="M137.45,105.37a20.17,20.17,0,0,1-1.19,8.37c-2.74,6.74-7.7,10.85-14.91,11.87a18.29,18.29,0,0,1-20.59-14.49A29.57,29.57,0,0,1,101,97.76c.27-1.06.63-1.32,1.75-1.32a24.54,24.54,0,0,0,7.39-.67,16,16,0,0,0,6.9-4.17c.19-.19.36-.39.55-.58.94-1,1.59-1,2.52,0A14.9,14.9,0,0,0,128.54,96a42.19,42.19,0,0,0,6.06.46c1.61.06,1.77.15,2.21,1.66A24.63,24.63,0,0,1,137.45,105.37ZM118.9,93.52c-.22.19-.41.33-.58.49A17,17,0,0,1,110,98.45a39.14,39.14,0,0,1-5.74.54c-.69,0-1,.14-1.11.91a33.4,33.4,0,0,0,0,10.42,15.92,15.92,0,0,0,31.29-.16,61.7,61.7,0,0,0,.26-8.61A18.08,18.08,0,0,0,134.4,99,19.12,19.12,0,0,1,118.9,93.52Z"/><path class="cls-6" d="M122.41,110.92c-.69-.08-1.22.39-1.35,1.22-.19,1.21-.84,1.86-1.87,1.88s-1.71-.61-2-1.89c-.15-.83-.67-1.29-1.36-1.21a1.28,1.28,0,0,0-1.07,1.49,4.35,4.35,0,0,0,8.69,0A1.3,1.3,0,0,0,122.41,110.92Z"/><path class="cls-6" d="M127.55,106.16c0-.46,0-.93,0-1.39a1.17,1.17,0,0,0-1.24-1.15,1.15,1.15,0,0,0-1.18,1.2q0,1.35,0,2.7a1.16,1.16,0,0,0,1.15,1.23,1.2,1.2,0,0,0,1.28-1.2c0-.46,0-.93,0-1.39Z"/><path class="cls-6" d="M111.83,103.64a1.07,1.07,0,0,0-1.06,1c0,.49,0,1,0,1.47h0c0,.5,0,1,0,1.48a1.11,1.11,0,0,0,1.09,1.11,1.06,1.06,0,0,0,1.26-.9,10.63,10.63,0,0,0,0-3.33A1.06,1.06,0,0,0,111.83,103.64Z"/></svg>