<svg id="Layer_1" data-name="Layer 1" xmlns="http://www.w3.org/2000/svg" viewBox="0 0 654 250"><defs><style>.cls-1{fill:#de1b81;}.cls-2{opacity:0.15;}.cls-3{fill:#fff;}.cls-4{fill:none;stroke:#de1b81;stroke-miterlimit:10;stroke-width:2.61px;}</style></defs><path d="M316.74,135.58a11.17,11.17,0,0,1,1.31-5.57,7.66,7.66,0,0,1,2.77-3.08h.05l.31,1a7.13,7.13,0,0,0-2,2.84,12.21,12.21,0,0,0-.84,4.82v.11a12.45,12.45,0,0,0,.83,4.83,7.73,7.73,0,0,0,2,2.91l-.31.89h-.05a7.55,7.55,0,0,1-2.77-3.07,11.17,11.17,0,0,1-1.31-5.57Z"/><path d="M326.06,133.62a1.9,1.9,0,0,0,1.54-.54,2.32,2.32,0,0,0,.45-1.52,2.12,2.12,0,0,0-.49-1.47,1.86,1.86,0,0,0-1.46-.56,2.21,2.21,0,0,0-1.56.58,2,2,0,0,0-.62,1.47h-1.55l0-.05a2.88,2.88,0,0,1,1-2.32,3.92,3.92,0,0,1,2.73-1,3.78,3.78,0,0,1,2.63.85,3.16,3.16,0,0,1,.95,2.49,2.85,2.85,0,0,1-.44,1.54,3.06,3.06,0,0,1-1.24,1.09,2.85,2.85,0,0,1,1.39,1.1,3.72,3.72,0,0,1-.57,4.39,4,4,0,0,1-2.72.94,4.32,4.32,0,0,1-2.71-.91,2.77,2.77,0,0,1-1.13-2.4v-.05h1.56a2,2,0,0,0,.63,1.48,2.3,2.3,0,0,0,1.64.6,2,2,0,0,0,1.56-.62,2.26,2.26,0,0,0,.57-1.61,2.39,2.39,0,0,0-.52-1.69,2.14,2.14,0,0,0-1.65-.56h-1.34v-1.27Z"/><path d="M333.41,140.07l-1.24,2.54h-1l.58-2.62v-1.35h1.63Z"/><path d="M342.87,140.47h-7.48v-1.12l3.78-4.51a10.85,10.85,0,0,0,1.37-1.94,3.28,3.28,0,0,0,.36-1.47,1.91,1.91,0,0,0-.49-1.36,1.7,1.7,0,0,0-1.34-.54,2,2,0,0,0-1.63.66,2.41,2.41,0,0,0-.56,1.63h-1.57l0,0a3.26,3.26,0,0,1,1-2.5,3.77,3.77,0,0,1,2.79-1,3.54,3.54,0,0,1,2.54.89,3.1,3.1,0,0,1,.92,2.31,3.64,3.64,0,0,1-.52,1.86,21.81,21.81,0,0,1-1.6,2.29l-3,3.56,0,0h5.48Z"/><path d="M347.84,139.37a2.44,2.44,0,0,0,1.9-.81,3.35,3.35,0,0,0,.72-2.3v-1a2.56,2.56,0,0,1-1,.89,2.79,2.79,0,0,1-1.29.31,3.52,3.52,0,0,1-2.73-1.08,4.2,4.2,0,0,1-1-3,4.25,4.25,0,0,1,1.05-3,3.37,3.37,0,0,1,2.6-1.15,3.87,3.87,0,0,1,2.9,1.13,4.44,4.44,0,0,1,1.09,3.21v3.65a4.32,4.32,0,0,1-1.19,3.24,4.21,4.21,0,0,1-3.07,1.17,6.64,6.64,0,0,1-1.31-.14,5.12,5.12,0,0,1-1.24-.39l.25-1.24a4.74,4.74,0,0,0,1.07.38A6.31,6.31,0,0,0,347.84,139.37Zm.34-4.22a2.51,2.51,0,0,0,1.43-.39,2.31,2.31,0,0,0,.85-1v-1.42a3.23,3.23,0,0,0-.6-2.09,2.11,2.11,0,0,0-1.7-.73,1.79,1.79,0,0,0-1.48.79,3.92,3.92,0,0,0,0,4.07A1.78,1.78,0,0,0,348.18,135.15Z"/><path d="M360.62,136.42h1.67v1.27h-1.67v2.78H359v-2.78h-5.17v-.92l5.07-8.35h1.72Zm-5,0H359v-5.66H359l-.16.41Z"/><path d="M367.88,136.16a6,6,0,0,1,.92-3.48,3,3,0,0,1,2.58-1.33,3.13,3.13,0,0,1,1.5.35,2.89,2.89,0,0,1,1.08,1l.2-1.16h1.3v9a3.42,3.42,0,0,1-1,2.65,4.14,4.14,0,0,1-2.89.92,6,6,0,0,1-1.39-.18,5.67,5.67,0,0,1-1.32-.48l.25-1.27a4.38,4.38,0,0,0,1.13.4,6,6,0,0,0,1.31.15,2.39,2.39,0,0,0,1.74-.54,2.25,2.25,0,0,0,.54-1.65v-1a2.89,2.89,0,0,1-1.05.86,3.33,3.33,0,0,1-1.42.29,3.07,3.07,0,0,1-2.56-1.19,5,5,0,0,1-.92-3.13Zm1.63.17a3.79,3.79,0,0,0,.56,2.17,1.91,1.91,0,0,0,1.71.82A2.17,2.17,0,0,0,373,139a2.55,2.55,0,0,0,.82-1v-4.12A2.49,2.49,0,0,0,373,133a2.17,2.17,0,0,0-1.21-.33,1.86,1.86,0,0,0-1.73,1,5.06,5.06,0,0,0-.56,2.52Z"/><path d="M379.57,129.23h-1.63v-1.67h1.63Zm0,11.24h-1.63v-8.95h1.63Z"/><path d="M386.31,133l-.84-.05a1.86,1.86,0,0,0-1.08.3,2,2,0,0,0-.69.86v6.4h-1.63v-8.95h1.46l.16,1.31a3,3,0,0,1,.94-1.09,2.18,2.18,0,0,1,1.28-.39,2,2,0,0,1,.35,0l.27.06Z"/><path d="M389.77,140.47h-1.63V127.56h1.63Z"/><path d="M397.48,138.06a1,1,0,0,0-.41-.87,3.85,3.85,0,0,0-1.55-.6,6.61,6.61,0,0,1-2.43-1,2,2,0,0,1-.85-1.64,2.36,2.36,0,0,1,.93-1.87,3.66,3.66,0,0,1,2.42-.78,3.61,3.61,0,0,1,2.46.83,2.39,2.39,0,0,1,.91,1.93l0,0h-1.56a1.39,1.39,0,0,0-.51-1,1.78,1.78,0,0,0-1.28-.48,1.84,1.84,0,0,0-1.29.39,1.24,1.24,0,0,0-.43.93,1,1,0,0,0,.37.82,4.15,4.15,0,0,0,1.52.53,6.47,6.47,0,0,1,2.5,1,2,2,0,0,1,.85,1.67,2.36,2.36,0,0,1-1,1.94,4.59,4.59,0,0,1-5.22-.11,2.49,2.49,0,0,1-.94-2l0-.05h1.56a1.52,1.52,0,0,0,.64,1.27,2.51,2.51,0,0,0,1.42.4A2.2,2.2,0,0,0,397,139,1.11,1.11,0,0,0,397.48,138.06Z"/><path d="M402.56,140.07l-1.24,2.54h-1l.58-2.62v-1.35h1.63Z"/><path d="M412.3,133.62a1.93,1.93,0,0,0,1.55-.54,2.32,2.32,0,0,0,.45-1.52,2.17,2.17,0,0,0-.49-1.47,1.87,1.87,0,0,0-1.47-.56,2.25,2.25,0,0,0-1.56.58,1.94,1.94,0,0,0-.61,1.47h-1.56l0-.05a2.87,2.87,0,0,1,1-2.32,4,4,0,0,1,2.73-1,3.83,3.83,0,0,1,2.64.85,3.16,3.16,0,0,1,.95,2.49,2.85,2.85,0,0,1-.44,1.54,3.06,3.06,0,0,1-1.24,1.09,2.83,2.83,0,0,1,1.38,1.1,3.21,3.21,0,0,1,.48,1.79,3.31,3.31,0,0,1-1.05,2.6,3.93,3.93,0,0,1-2.72.94,4.36,4.36,0,0,1-2.71-.91,2.76,2.76,0,0,1-1.12-2.4v-.05h1.56a2,2,0,0,0,.63,1.48,2.28,2.28,0,0,0,1.63.6,2,2,0,0,0,1.57-.62,2.26,2.26,0,0,0,.57-1.61,2.39,2.39,0,0,0-.53-1.69,2.14,2.14,0,0,0-1.65-.56H411v-1.27Z"/><path d="M419.66,140.07l-1.24,2.54h-1L418,140v-1.35h1.63Z"/><path d="M429,136.22a4.7,4.7,0,0,1-1,3.23,3.84,3.84,0,0,1-5.58,0,4.7,4.7,0,0,1-1.05-3.23v-3.54a4.77,4.77,0,0,1,1-3.23,3.5,3.5,0,0,1,2.79-1.2,3.54,3.54,0,0,1,2.8,1.2,4.77,4.77,0,0,1,1,3.23Zm-1.63-3.88a3.29,3.29,0,0,0-.58-2.06,2.15,2.15,0,0,0-3.26,0,3.36,3.36,0,0,0-.57,2.06v4.21a3.3,3.3,0,0,0,.59,2.06,2.12,2.12,0,0,0,3.25,0,3.34,3.34,0,0,0,.57-2.06Z"/><path d="M438.3,131.5a2.74,2.74,0,0,1-.53,1.66,3.28,3.28,0,0,1-1.41,1.07,3.61,3.61,0,0,1,1.65,1.14,2.78,2.78,0,0,1,.62,1.79,3.2,3.2,0,0,1-1.08,2.58,4.16,4.16,0,0,1-2.75.91,4.51,4.51,0,0,1-2.9-.91,3.16,3.16,0,0,1-1.12-2.58,2.69,2.69,0,0,1,.64-1.79,3.71,3.71,0,0,1,1.7-1.15,3.17,3.17,0,0,1-1.46-1.06,2.69,2.69,0,0,1-.54-1.66,3,3,0,0,1,1-2.42,4,4,0,0,1,2.64-.83,3.77,3.77,0,0,1,2.53.84A3,3,0,0,1,438.3,131.5ZM437,137.13a2.17,2.17,0,0,0-.65-1.62,2.12,2.12,0,0,0-1.58-.64,2.36,2.36,0,0,0-1.7.64,2.15,2.15,0,0,0-.67,1.62,2.09,2.09,0,0,0,.67,1.63,2.43,2.43,0,0,0,1.72.61,2.13,2.13,0,0,0,1.57-.62A2.17,2.17,0,0,0,437,137.13Zm-.34-5.6a2,2,0,0,0-.55-1.44,1.8,1.8,0,0,0-1.34-.56,2,2,0,0,0-1.46.54,1.94,1.94,0,0,0-.57,1.46,2,2,0,0,0,2.05,2.06,1.74,1.74,0,0,0,1.33-.57A2.1,2.1,0,0,0,436.67,131.53Z"/><path d="M446.87,136.42h1.66v1.27h-1.66v2.78h-1.62v-2.78h-5.17v-.92l5.07-8.35h1.72Zm-5.05,0h3.43v-5.66h-.05l-.16.41Z"/><path d="M462.06,136.33a4.94,4.94,0,0,1-.93,3.13,3.07,3.07,0,0,1-2.56,1.19,3.17,3.17,0,0,1-1.55-.36,2.9,2.9,0,0,1-1.09-1l-.26,1.21h-1.25V127.56h1.63v5a2.83,2.83,0,0,1,1-.91,3.23,3.23,0,0,1,1.46-.32,3,3,0,0,1,2.59,1.33,6,6,0,0,1,.92,3.48Zm-1.63-.17a5,5,0,0,0-.56-2.51,1.87,1.87,0,0,0-1.73-1,2.18,2.18,0,0,0-1.27.36,2.66,2.66,0,0,0-.82,1v3.88a2.63,2.63,0,0,0,.82,1,2.12,2.12,0,0,0,1.29.37,1.94,1.94,0,0,0,1.71-.82,3.72,3.72,0,0,0,.56-2.17Z"/><path d="M463.67,135.91a5,5,0,0,1,1.07-3.27,4,4,0,0,1,5.87,0,4.93,4.93,0,0,1,1.08,3.28v.18a4.89,4.89,0,0,1-1.08,3.28,4,4,0,0,1-5.86,0,4.93,4.93,0,0,1-1.08-3.28Zm1.63.18a4.23,4.23,0,0,0,.6,2.35,2.16,2.16,0,0,0,3.55,0,4.15,4.15,0,0,0,.61-2.35v-.18a4.24,4.24,0,0,0-.61-2.34,2,2,0,0,0-1.78-.94,2,2,0,0,0-1.77.94,4.24,4.24,0,0,0-.6,2.34Z"/><path d="M476.3,137.15l.29,1.13h.05l2.2-6.76h1.81l-3.77,10.33a4.61,4.61,0,0,1-1,1.57,2.26,2.26,0,0,1-1.71.67,3.64,3.64,0,0,1-.5-.05l-.47-.08.16-1.29.3,0,.43,0a1,1,0,0,0,.85-.46,4.84,4.84,0,0,0,.56-1l.39-.93-3.33-8.77h1.82Z"/><path d="M487.29,138.06a1.07,1.07,0,0,0-.41-.87,3.91,3.91,0,0,0-1.55-.6,6.47,6.47,0,0,1-2.43-1,1.92,1.92,0,0,1-.85-1.64,2.36,2.36,0,0,1,.93-1.87,4.1,4.1,0,0,1,4.88.05,2.35,2.35,0,0,1,.9,1.93l0,0h-1.55a1.39,1.39,0,0,0-.51-1,1.81,1.81,0,0,0-1.29-.48,1.83,1.83,0,0,0-1.28.39,1.2,1.2,0,0,0-.43.93,1,1,0,0,0,.37.82,4.08,4.08,0,0,0,1.52.53,6.54,6.54,0,0,1,2.5,1,2,2,0,0,1,.85,1.67,2.34,2.34,0,0,1-1,1.94,4,4,0,0,1-2.52.76,3.9,3.9,0,0,1-2.69-.87,2.49,2.49,0,0,1-.94-2l0-.05h1.55A1.53,1.53,0,0,0,484,139a2.46,2.46,0,0,0,1.41.4,2.23,2.23,0,0,0,1.37-.37A1.14,1.14,0,0,0,487.29,138.06Z"/><path d="M494.26,135.66a11.06,11.06,0,0,1-1.32,5.57,7.61,7.61,0,0,1-2.76,3.07h-.05l-.32-.89a7,7,0,0,0,2-2.86,12.56,12.56,0,0,0,.84-4.88v-.11a12,12,0,0,0-.87-4.82,7.85,7.85,0,0,0-1.94-2.91l.32-.9h.05a7.72,7.72,0,0,1,2.76,3.08,11.06,11.06,0,0,1,1.32,5.57Z"/><path d="M263.78,153.3l-.84-.05a1.91,1.91,0,0,0-1.09.3,2,2,0,0,0-.68.86v6.4h-1.63v-8.95H261l.16,1.3a3,3,0,0,1,.94-1.08,2.18,2.18,0,0,1,1.28-.39,2,2,0,0,1,.35,0l.27.06Z"/><path d="M269,161a3.79,3.79,0,0,1-3-1.23,4.73,4.73,0,0,1-1.08-3.24v-.37a4.66,4.66,0,0,1,1.11-3.19,3.49,3.49,0,0,1,2.72-1.26,3.23,3.23,0,0,1,2.69,1.12,4.58,4.58,0,0,1,.9,3v.86h-5.73l0,0a3.68,3.68,0,0,0,.6,2.19,2.07,2.07,0,0,0,1.82.84,4,4,0,0,0,1.45-.24,3.14,3.14,0,0,0,1.07-.65l.64,1.06a3.82,3.82,0,0,1-1.27.78A4.85,4.85,0,0,1,269,161Zm-.26-8a1.76,1.76,0,0,0-1.41.66,3.11,3.11,0,0,0-.68,1.68v.05h4v-.14a2.59,2.59,0,0,0-.48-1.61A1.74,1.74,0,0,0,268.77,153Z"/><path d="M277.75,159.71a1.91,1.91,0,0,0,1.31-.5,1.59,1.59,0,0,0,.57-1.23h1.47l0,.05a2.54,2.54,0,0,1-1,2.06,3.81,3.81,0,0,1-5.3-.39,5,5,0,0,1-1-3.19v-.35a4.9,4.9,0,0,1,1-3.18,3.52,3.52,0,0,1,2.91-1.29,3.37,3.37,0,0,1,2.45.93,2.88,2.88,0,0,1,.92,2.27v.05h-1.48a2,2,0,0,0-.54-1.39,1.72,1.72,0,0,0-1.34-.58,1.88,1.88,0,0,0-1.75.93,4.35,4.35,0,0,0-.55,2.26v.35a4.44,4.44,0,0,0,.54,2.27A1.88,1.88,0,0,0,277.75,159.71Z"/><path d="M286.77,161a3.79,3.79,0,0,1-3-1.23,4.73,4.73,0,0,1-1.08-3.24v-.37a4.66,4.66,0,0,1,1.11-3.19,3.51,3.51,0,0,1,2.72-1.26,3.25,3.25,0,0,1,2.7,1.12,4.63,4.63,0,0,1,.89,3v.86h-5.72l0,0a3.68,3.68,0,0,0,.6,2.19,2.08,2.08,0,0,0,1.82.84,4,4,0,0,0,1.45-.24,3,3,0,0,0,1.07-.65l.64,1.06a3.82,3.82,0,0,1-1.27.78A4.85,4.85,0,0,1,286.77,161Zm-.26-8a1.76,1.76,0,0,0-1.41.66,3.11,3.11,0,0,0-.68,1.68v.05h4v-.14a2.59,2.59,0,0,0-.48-1.61A1.74,1.74,0,0,0,286.51,153Z"/><path d="M293.69,149.56h-1.63V147.9h1.63Zm0,11.25h-1.63v-8.95h1.63Z"/><path d="M299.19,158.17l.14.63h.05l.16-.63,2.06-6.31h1.66L300,160.81h-1.24l-3.33-8.95h1.67Z"/><path d="M308.33,161a3.79,3.79,0,0,1-3-1.23,4.73,4.73,0,0,1-1.08-3.24v-.37a4.66,4.66,0,0,1,1.11-3.19,3.49,3.49,0,0,1,2.72-1.26,3.23,3.23,0,0,1,2.69,1.12,4.58,4.58,0,0,1,.9,3v.86h-5.73l0,0a3.68,3.68,0,0,0,.6,2.19,2.07,2.07,0,0,0,1.82.84,4,4,0,0,0,1.45-.24,3.14,3.14,0,0,0,1.07-.65l.64,1.06a3.82,3.82,0,0,1-1.27.78A4.85,4.85,0,0,1,308.33,161Zm-.26-8a1.76,1.76,0,0,0-1.41.66,3.11,3.11,0,0,0-.68,1.68v.05h4v-.14a2.59,2.59,0,0,0-.48-1.61A1.74,1.74,0,0,0,308.07,153Z"/><path d="M313.12,156.5A6,6,0,0,1,314,153a3,3,0,0,1,2.59-1.32A3.23,3.23,0,0,1,318,152a2.81,2.81,0,0,1,1,.84V147.9h1.63v12.91h-1.25l-.25-1.13a2.86,2.86,0,0,1-1.08,1,3.25,3.25,0,0,1-1.5.33,3.05,3.05,0,0,1-2.56-1.18,5,5,0,0,1-.93-3.13Zm1.63.17a3.77,3.77,0,0,0,.55,2.17,1.93,1.93,0,0,0,1.72.82,2.17,2.17,0,0,0,1.23-.33,2.47,2.47,0,0,0,.81-.93v-4.18a2.48,2.48,0,0,0-.82-.88A2.11,2.11,0,0,0,317,153a1.87,1.87,0,0,0-1.73,1,5,5,0,0,0-.56,2.52Z"/><path d="M329.1,160.81h-1.63V147.9h1.63Z"/><path d="M333.37,149.56h-1.63V147.9h1.63Zm0,11.25h-1.63v-8.95h1.63Z"/><path d="M336.55,160.81v-7.75h-1.39v-1.2h1.39v-1.14a3.07,3.07,0,0,1,.75-2.21,2.77,2.77,0,0,1,2.09-.78,3.64,3.64,0,0,1,.57,0c.19,0,.4.07.63.13l-.2,1.24-.36-.06-.44,0a1.3,1.3,0,0,0-1.06.42,2,2,0,0,0-.35,1.24v1.14h1.63v1.2h-1.63v7.75Z"/><path d="M345,161a3.8,3.8,0,0,1-3-1.23,4.73,4.73,0,0,1-1.08-3.24v-.37A4.62,4.62,0,0,1,342,153a3.48,3.48,0,0,1,2.72-1.26,3.24,3.24,0,0,1,2.69,1.12,4.58,4.58,0,0,1,.9,3v.86h-5.73l0,0a3.68,3.68,0,0,0,.59,2.19,2.09,2.09,0,0,0,1.82.84,4,4,0,0,0,1.45-.24,3.09,3.09,0,0,0,1.08-.65l.63,1.06a3.87,3.87,0,0,1-1.26.78A4.94,4.94,0,0,1,345,161Zm-.25-8a1.8,1.8,0,0,0-1.42.66,3.11,3.11,0,0,0-.68,1.68l0,.05h4v-.14a2.59,2.59,0,0,0-.48-1.61A1.76,1.76,0,0,0,344.71,153Z"/><path d="M359.54,158.4a1.08,1.08,0,0,0-.41-.88,4,4,0,0,0-1.55-.59,6.79,6.79,0,0,1-2.43-1,2,2,0,0,1-.85-1.64,2.37,2.37,0,0,1,.94-1.87,4.09,4.09,0,0,1,4.87.05,2.39,2.39,0,0,1,.91,1.93l0,.05h-1.56a1.43,1.43,0,0,0-.51-1.06,1.8,1.8,0,0,0-1.28-.47,1.86,1.86,0,0,0-1.29.39,1.23,1.23,0,0,0-.42.93,1,1,0,0,0,.36.82,4.15,4.15,0,0,0,1.52.53,6.47,6.47,0,0,1,2.5,1,2,2,0,0,1,.85,1.67,2.36,2.36,0,0,1-1,1.94,4.62,4.62,0,0,1-5.22-.12,2.44,2.44,0,0,1-.93-2V158h1.56a1.52,1.52,0,0,0,.64,1.27,2.51,2.51,0,0,0,1.42.4,2.2,2.2,0,0,0,1.36-.37A1.11,1.11,0,0,0,359.54,158.4Z"/><path d="M365.67,156.68h-.83v4.13h-1.63V147.9h1.63v7.48h.82l2.69-3.52h1.95L367.05,156l3.53,4.83h-1.93Z"/><path d="M373.65,149.56H372V147.9h1.63Zm0,11.25H372v-8.95h1.63Z"/><path d="M377.92,160.81h-1.63V147.9h1.63Z"/><path d="M382.19,160.81h-1.63V147.9h1.63Z"/><path d="M389.91,158.4a1.1,1.1,0,0,0-.41-.88,4.09,4.09,0,0,0-1.56-.59,6.66,6.66,0,0,1-2.42-1,1.92,1.92,0,0,1-.85-1.64,2.36,2.36,0,0,1,.93-1.87,4.1,4.1,0,0,1,4.88.05,2.35,2.35,0,0,1,.9,1.93l0,.05h-1.55a1.43,1.43,0,0,0-.51-1.06A1.84,1.84,0,0,0,388,153a1.88,1.88,0,0,0-1.29.39,1.23,1.23,0,0,0-.42.93,1,1,0,0,0,.37.82,4.08,4.08,0,0,0,1.51.53,6.4,6.4,0,0,1,2.5,1,2,2,0,0,1,.86,1.67,2.36,2.36,0,0,1-1,1.94,4.62,4.62,0,0,1-5.22-.12,2.49,2.49,0,0,1-.93-2l0-.05H386a1.5,1.5,0,0,0,.65,1.27,2.46,2.46,0,0,0,1.41.4,2.2,2.2,0,0,0,1.36-.37A1.12,1.12,0,0,0,389.91,158.4Z"/><path d="M401.48,161a3.8,3.8,0,0,1-3-1.23,4.73,4.73,0,0,1-1.08-3.24v-.37a4.67,4.67,0,0,1,1.12-3.19,3.49,3.49,0,0,1,2.72-1.26,3.24,3.24,0,0,1,2.69,1.12,4.58,4.58,0,0,1,.9,3v.86h-5.73l0,0a3.68,3.68,0,0,0,.59,2.19,2.09,2.09,0,0,0,1.82.84,4,4,0,0,0,1.45-.24,3.09,3.09,0,0,0,1.08-.65l.63,1.06a3.87,3.87,0,0,1-1.26.78A4.94,4.94,0,0,1,401.48,161Zm-.25-8a1.8,1.8,0,0,0-1.42.66,3.19,3.19,0,0,0-.68,1.68l0,.05h4v-.14a2.59,2.59,0,0,0-.48-1.61A1.76,1.76,0,0,0,401.23,153Z"/><path d="M406.27,156.5a6,6,0,0,1,.93-3.49,3,3,0,0,1,2.58-1.32,3.27,3.27,0,0,1,1.4.29,2.89,2.89,0,0,1,1,.84V147.9h1.63v12.91H412.6l-.25-1.13a2.89,2.89,0,0,1-1.09,1,3.24,3.24,0,0,1-1.49.33,3.07,3.07,0,0,1-2.57-1.18,5,5,0,0,1-.93-3.13Zm1.63.17a3.77,3.77,0,0,0,.56,2.17,1.92,1.92,0,0,0,1.72.82,2.14,2.14,0,0,0,1.22-.33,2.4,2.4,0,0,0,.82-.93v-4.18a2.57,2.57,0,0,0-.82-.88,2.11,2.11,0,0,0-1.2-.33,1.89,1.89,0,0,0-1.74,1,5.06,5.06,0,0,0-.56,2.52Z"/><path d="M422,159.49a2.9,2.9,0,0,1-2.61,1.49,2.86,2.86,0,0,1-2.28-.93,4.35,4.35,0,0,1-.82-2.92v-5.27h1.63v5.29a3.34,3.34,0,0,0,.42,2,1.56,1.56,0,0,0,1.31.54,2.74,2.74,0,0,0,1.44-.35,2.28,2.28,0,0,0,.86-1v-6.45h1.63v8.95h-1.47Z"/><path d="M429.47,159.71a2,2,0,0,0,1.32-.5,1.62,1.62,0,0,0,.56-1.23h1.47l0,.05a2.58,2.58,0,0,1-1,2.06,3.8,3.8,0,0,1-5.29-.39,4.91,4.91,0,0,1-1-3.19v-.35a4.9,4.9,0,0,1,1-3.18,3.52,3.52,0,0,1,2.91-1.29,3.35,3.35,0,0,1,2.45.93,2.92,2.92,0,0,1,.93,2.27l0,.05h-1.48a2,2,0,0,0-.54-1.39,1.72,1.72,0,0,0-1.34-.58,1.89,1.89,0,0,0-1.75.93,4.35,4.35,0,0,0-.55,2.26v.35a4.44,4.44,0,0,0,.54,2.27A1.88,1.88,0,0,0,429.47,159.71Z"/><path d="M440.29,160.81c-.06-.27-.1-.51-.13-.72a6.2,6.2,0,0,1-.06-.62,3.73,3.73,0,0,1-1.18,1.08,3.05,3.05,0,0,1-1.58.43,3,3,0,0,1-2.13-.71,2.64,2.64,0,0,1-.73-2,2.29,2.29,0,0,1,1-2,4.78,4.78,0,0,1,2.81-.73h1.77v-.88a1.65,1.65,0,0,0-.48-1.25,1.9,1.9,0,0,0-1.35-.46,2,2,0,0,0-1.29.4,1.19,1.19,0,0,0-.48.95l-1.55,0,0-.05a2.15,2.15,0,0,1,.92-1.79,4.29,4.29,0,0,1,5,0,2.74,2.74,0,0,1,.93,2.23V159a9.17,9.17,0,0,0,0,.92,5.31,5.31,0,0,0,.19.88Zm-2.71-1.19a2.88,2.88,0,0,0,1.6-.46,2.14,2.14,0,0,0,.92-1v-1.46h-1.82a2.37,2.37,0,0,0-1.58.5,1.47,1.47,0,0,0-.59,1.17,1.22,1.22,0,0,0,.37.94A1.58,1.58,0,0,0,437.58,159.62Z"/><path d="M446.37,149.7v2.16h1.7v1.2h-1.7v5.44a1.26,1.26,0,0,0,.26.89.93.93,0,0,0,.69.25l.31,0,.29-.08.23,1.11a1.51,1.51,0,0,1-.54.25,2.86,2.86,0,0,1-.7.09,2.1,2.1,0,0,1-1.58-.6,2.56,2.56,0,0,1-.59-1.88v-5.44h-1.43v-1.2h1.43V149.7Z"/><path d="M451.57,149.56h-1.63V147.9h1.63Zm0,11.25h-1.63v-8.95h1.63Z"/><path d="M453.7,156.25a4.9,4.9,0,0,1,1.08-3.27,3.59,3.59,0,0,1,2.92-1.29,3.65,3.65,0,0,1,2.94,1.28,4.93,4.93,0,0,1,1.08,3.28v.18a4.89,4.89,0,0,1-1.08,3.28,4,4,0,0,1-5.86,0,4.88,4.88,0,0,1-1.08-3.27Zm1.63.18a4.25,4.25,0,0,0,.6,2.35,2.17,2.17,0,0,0,3.56,0,4.25,4.25,0,0,0,.6-2.35v-.18a4.16,4.16,0,0,0-.61-2.34,2.15,2.15,0,0,0-3.55,0,4.24,4.24,0,0,0-.6,2.34Z"/><path d="M465.17,151.86l.12,1.33a3.21,3.21,0,0,1,1.12-1.11,3,3,0,0,1,1.53-.39,2.92,2.92,0,0,1,2.25.85,3.72,3.72,0,0,1,.79,2.62v5.65h-1.63v-5.62a2.43,2.43,0,0,0-.47-1.68,1.88,1.88,0,0,0-1.43-.5,2.42,2.42,0,0,0-1.27.31,2.26,2.26,0,0,0-.84.84v6.65h-1.63v-8.95Z"/><path d="M479.83,149.7v2.16h1.69v1.2h-1.69v5.44a1.22,1.22,0,0,0,.26.89.93.93,0,0,0,.69.25l.31,0,.29-.08.23,1.11a1.6,1.6,0,0,1-.54.25,2.88,2.88,0,0,1-.71.09,2.13,2.13,0,0,1-1.58-.6,2.6,2.6,0,0,1-.58-1.88v-5.44h-1.43v-1.2h1.43V149.7Z"/><path d="M482.89,156.25A5,5,0,0,1,484,153a4,4,0,0,1,5.87,0,4.93,4.93,0,0,1,1.08,3.28v.18a4.89,4.89,0,0,1-1.08,3.28,4,4,0,0,1-5.86,0,4.88,4.88,0,0,1-1.08-3.27Zm1.63.18a4.25,4.25,0,0,0,.6,2.35,2.16,2.16,0,0,0,3.55,0,4.25,4.25,0,0,0,.61-2.35v-.18a4.24,4.24,0,0,0-.61-2.34,2,2,0,0,0-1.78-.94,2,2,0,0,0-1.77.94,4.24,4.24,0,0,0-.6,2.34Z"/><path d="M504.74,156.67a5,5,0,0,1-.92,3.13,3.07,3.07,0,0,1-2.56,1.18,3.61,3.61,0,0,1-1.45-.27,2.9,2.9,0,0,1-1.07-.84v4.38h-1.63V151.86h1.25l.26,1.15a3,3,0,0,1,1.09-1,3.24,3.24,0,0,1,1.52-.34,3,3,0,0,1,2.59,1.32,5.93,5.93,0,0,1,.92,3.49Zm-1.63-.17a4.76,4.76,0,0,0-.6-2.51,2,2,0,0,0-1.76-1,2.19,2.19,0,0,0-1.2.32,2.46,2.46,0,0,0-.81.88v4.32a2.43,2.43,0,0,0,.81.87,2.2,2.2,0,0,0,1.21.31,2,2,0,0,0,1.76-.85,3.78,3.78,0,0,0,.59-2.19Z"/><path d="M511,153.3l-.83-.05a1.89,1.89,0,0,0-1.09.3,2,2,0,0,0-.68.86v6.4h-1.63v-8.95h1.45l.16,1.3a3.12,3.12,0,0,1,.94-1.08,2.19,2.19,0,0,1,1.29-.39,1.87,1.87,0,0,1,.34,0l.28.06Z"/><path d="M516.23,161a3.8,3.8,0,0,1-3-1.23,4.73,4.73,0,0,1-1.08-3.24v-.37a4.62,4.62,0,0,1,1.12-3.19,3.47,3.47,0,0,1,2.71-1.26,3.25,3.25,0,0,1,2.7,1.12,4.58,4.58,0,0,1,.9,3v.86h-5.73l0,0a3.68,3.68,0,0,0,.6,2.19,2.08,2.08,0,0,0,1.82.84,4,4,0,0,0,1.45-.24,3,3,0,0,0,1.07-.65l.64,1.06a3.87,3.87,0,0,1-1.26.78A4.94,4.94,0,0,1,516.23,161Zm-.26-8a1.78,1.78,0,0,0-1.41.66,3.11,3.11,0,0,0-.68,1.68l0,.05h4v-.14a2.59,2.59,0,0,0-.48-1.61A1.74,1.74,0,0,0,516,153Z"/><path d="M524.27,158.17l.14.63h.05l.16-.63,2.06-6.31h1.67l-3.3,8.95h-1.23l-3.34-8.95h1.68Z"/><path d="M533.41,161a3.79,3.79,0,0,1-3-1.23,4.73,4.73,0,0,1-1.08-3.24v-.37a4.66,4.66,0,0,1,1.11-3.19,3.51,3.51,0,0,1,2.72-1.26,3.25,3.25,0,0,1,2.7,1.12,4.63,4.63,0,0,1,.89,3v.86H531l0,0a3.68,3.68,0,0,0,.6,2.19,2.08,2.08,0,0,0,1.82.84,4,4,0,0,0,1.45-.24,3,3,0,0,0,1.07-.65l.64,1.06a3.82,3.82,0,0,1-1.27.78A4.85,4.85,0,0,1,533.41,161Zm-.26-8a1.76,1.76,0,0,0-1.41.66,3.11,3.11,0,0,0-.68,1.68l0,.05h4v-.14a2.59,2.59,0,0,0-.48-1.61A1.74,1.74,0,0,0,533.15,153Z"/><path d="M540,151.86l.12,1.33a3.21,3.21,0,0,1,1.12-1.11,3,3,0,0,1,1.53-.39,2.92,2.92,0,0,1,2.25.85,3.76,3.76,0,0,1,.79,2.62v5.65h-1.63v-5.62a2.43,2.43,0,0,0-.47-1.68,1.88,1.88,0,0,0-1.43-.5,2.42,2.42,0,0,0-1.27.31,2.26,2.26,0,0,0-.84.84v6.65h-1.63v-8.95Z"/><path d="M550.47,149.7v2.16h1.7v1.2h-1.7v5.44a1.26,1.26,0,0,0,.26.89,1,1,0,0,0,.7.25l.31,0,.29-.08.22,1.11a1.51,1.51,0,0,1-.54.25,2.8,2.8,0,0,1-.7.09,2.11,2.11,0,0,1-1.58-.6,2.6,2.6,0,0,1-.59-1.88v-5.44h-1.42v-1.2h1.42V149.7Z"/><path d="M296.88,180.05a1.91,1.91,0,0,0,1.31-.5,1.59,1.59,0,0,0,.57-1.23h1.47l0,.05a2.55,2.55,0,0,1-1,2,3.5,3.5,0,0,1-2.38.9A3.55,3.55,0,0,1,294,180a5,5,0,0,1-1-3.2v-.34a4.93,4.93,0,0,1,1-3.19,3.53,3.53,0,0,1,2.91-1.28,3.4,3.4,0,0,1,2.45.92,2.91,2.91,0,0,1,.92,2.28v.05h-1.48a1.94,1.94,0,0,0-.54-1.39,1.72,1.72,0,0,0-1.34-.58,1.88,1.88,0,0,0-1.75.93,4.33,4.33,0,0,0-.55,2.26v.34a4.47,4.47,0,0,0,.54,2.28A1.88,1.88,0,0,0,296.88,180.05Z"/><path d="M303.82,173.39a3.3,3.3,0,0,1,1.14-1,3.13,3.13,0,0,1,1.49-.36,2.86,2.86,0,0,1,2.23.86,3.78,3.78,0,0,1,.8,2.65v5.61h-1.63v-5.63a2.38,2.38,0,0,0-.48-1.64,1.8,1.8,0,0,0-1.41-.53,2.68,2.68,0,0,0-1.27.29,2.23,2.23,0,0,0-.87.8v6.71h-1.63V168.24h1.63Z"/><path d="M313.59,169.9H312v-1.66h1.63Zm0,11.25H312v-9h1.63Z"/><path d="M317.86,181.15h-1.63V168.24h1.63Z"/><path d="M320,176.84a6,6,0,0,1,.92-3.49A3,3,0,0,1,323.5,172a3.09,3.09,0,0,1,1.39.29,2.73,2.73,0,0,1,1,.84v-4.92h1.63v12.91h-1.25l-.24-1.14a3,3,0,0,1-1.09,1,3.25,3.25,0,0,1-1.5.33,3,3,0,0,1-2.56-1.19A4.91,4.91,0,0,1,320,177Zm1.63.17a3.79,3.79,0,0,0,.56,2.17,1.92,1.92,0,0,0,1.72.82,2.16,2.16,0,0,0,1.22-.33,2.47,2.47,0,0,0,.81-.93v-4.18a2.55,2.55,0,0,0-.81-.88,2.17,2.17,0,0,0-1.21-.33,1.85,1.85,0,0,0-1.73,1,5,5,0,0,0-.56,2.52Z"/><path d="M335.66,172.19l.12,1.18a2.93,2.93,0,0,1,1.11-1,3.3,3.3,0,0,1,1.57-.35,2.83,2.83,0,0,1,1.54.41,2.53,2.53,0,0,1,1,1.24,3.44,3.44,0,0,1,1.12-1.21,3,3,0,0,1,1.62-.44,2.67,2.67,0,0,1,2.16.94,4.26,4.26,0,0,1,.79,2.82v5.36H345v-5.37a3,3,0,0,0-.45-1.88,1.91,1.91,0,0,0-2.71,0,2.51,2.51,0,0,0-.61,1.47v5.75h-1.64v-5.37a2.86,2.86,0,0,0-.47-1.84,1.62,1.62,0,0,0-1.34-.59,2.2,2.2,0,0,0-1.23.31,1.93,1.93,0,0,0-.73.86v6.63h-1.63v-9Z"/><path d="M354.52,181.15q-.07-.41-.12-.72c0-.21,0-.41-.06-.62a3.84,3.84,0,0,1-1.18,1.08,3.05,3.05,0,0,1-1.58.43,3,3,0,0,1-2.13-.71,2.65,2.65,0,0,1-.74-2,2.34,2.34,0,0,1,1-2,4.91,4.91,0,0,1,2.82-.72h1.77V175a1.65,1.65,0,0,0-.48-1.25,1.87,1.87,0,0,0-1.36-.46,2,2,0,0,0-1.28.4,1.2,1.2,0,0,0-.49.95l-1.54,0,0-.05a2.13,2.13,0,0,1,.92-1.79,4.29,4.29,0,0,1,5,0A2.77,2.77,0,0,1,356,175v4.31c0,.32,0,.63,0,.93a6.54,6.54,0,0,0,.18.88Zm-2.7-1.19a3,3,0,0,0,1.6-.46,2.14,2.14,0,0,0,.92-1V177h-1.83a2.36,2.36,0,0,0-1.57.5,1.46,1.46,0,0,0-.59,1.16,1.23,1.23,0,0,0,.37,1A1.56,1.56,0,0,0,351.82,180Z"/><path d="M362.58,173.63l-.84,0a1.92,1.92,0,0,0-1.09.31,2,2,0,0,0-.68.86v6.4h-1.63v-9h1.46l.15,1.31a3.22,3.22,0,0,1,.94-1.08,2.19,2.19,0,0,1,1.29-.39,2,2,0,0,1,.35,0l.27.06Z"/><path d="M368.51,173.63l-.84,0a1.92,1.92,0,0,0-1.09.31,2,2,0,0,0-.68.86v6.4h-1.63v-9h1.46l.16,1.31a3,3,0,0,1,.94-1.08,2.18,2.18,0,0,1,1.28-.39,2,2,0,0,1,.35,0l.27.06Z"/><path d="M372,169.9h-1.63v-1.66H372Zm0,11.25h-1.63v-9H372Z"/><path d="M380,181.15c-.06-.27-.1-.51-.13-.72a4.32,4.32,0,0,1-.05-.62,3.87,3.87,0,0,1-1.19,1.08,3,3,0,0,1-1.58.43,3,3,0,0,1-2.13-.71,2.64,2.64,0,0,1-.73-2,2.34,2.34,0,0,1,1-2,4.87,4.87,0,0,1,2.82-.72h1.77V175a1.65,1.65,0,0,0-.48-1.25,1.87,1.87,0,0,0-1.36-.46,1.92,1.92,0,0,0-1.28.4,1.17,1.17,0,0,0-.49.95l-1.55,0v-.05a2.12,2.12,0,0,1,.91-1.79,3.8,3.8,0,0,1,2.51-.81,3.72,3.72,0,0,1,2.45.77,2.74,2.74,0,0,1,.93,2.23v4.31a7.06,7.06,0,0,0,.05.93,4.44,4.44,0,0,0,.18.88ZM377.27,180a2.93,2.93,0,0,0,1.6-.46,2.16,2.16,0,0,0,.93-1V177H378a2.39,2.39,0,0,0-1.58.5,1.49,1.49,0,0,0-.59,1.16,1.23,1.23,0,0,0,.37,1A1.58,1.58,0,0,0,377.27,180Z"/><path d="M383.5,176.84a6,6,0,0,1,.93-3.49A3,3,0,0,1,387,172a3,3,0,0,1,2.58,1.33l.2-1.17h1.29v9a3.4,3.4,0,0,1-1,2.64,4.07,4.07,0,0,1-2.88.92,6.51,6.51,0,0,1-1.4-.17,5.25,5.25,0,0,1-1.32-.49l.25-1.26a5.19,5.19,0,0,0,1.14.4,5.92,5.92,0,0,0,1.31.15,2.38,2.38,0,0,0,1.73-.54,2.25,2.25,0,0,0,.55-1.65v-1a3,3,0,0,1-1.06.85,3.29,3.29,0,0,1-1.41.29,3,3,0,0,1-2.56-1.19,4.91,4.91,0,0,1-.93-3.12Zm1.64.17a3.82,3.82,0,0,0,.55,2.17,1.94,1.94,0,0,0,1.71.82,2.23,2.23,0,0,0,1.24-.34,2.57,2.57,0,0,0,.82-.95v-4.12a2.65,2.65,0,0,0-.82-.9,2.13,2.13,0,0,0-1.22-.34,1.86,1.86,0,0,0-1.73,1,5,5,0,0,0-.55,2.52Z"/><path d="M397.13,181.32a3.78,3.78,0,0,1-3-1.23,4.76,4.76,0,0,1-1.08-3.25v-.36a4.64,4.64,0,0,1,1.11-3.19,3.49,3.49,0,0,1,2.72-1.26,3.25,3.25,0,0,1,2.69,1.11,4.62,4.62,0,0,1,.9,3V177h-5.73l0,0a3.75,3.75,0,0,0,.59,2.19,2.09,2.09,0,0,0,1.82.84,4.06,4.06,0,0,0,1.46-.24,3.3,3.3,0,0,0,1.07-.65l.64,1.06A3.92,3.92,0,0,1,399,181,5.1,5.1,0,0,1,397.13,181.32Zm-.25-8a1.76,1.76,0,0,0-1.41.66,3.12,3.12,0,0,0-.69,1.68l0,0h4v-.13a2.59,2.59,0,0,0-.48-1.61A1.72,1.72,0,0,0,396.88,173.31Z"/><path d="M412,181.15q-.08-.41-.12-.72a4.34,4.34,0,0,1-.06-.62,3.76,3.76,0,0,1-1.19,1.08,3,3,0,0,1-1.57.43,2.94,2.94,0,0,1-2.13-.71,2.65,2.65,0,0,1-.74-2,2.34,2.34,0,0,1,1-2,4.89,4.89,0,0,1,2.82-.72h1.77V175a1.65,1.65,0,0,0-.48-1.25,1.87,1.87,0,0,0-1.36-.46,1.94,1.94,0,0,0-1.28.4,1.2,1.2,0,0,0-.49.95l-1.54,0,0-.05a2.15,2.15,0,0,1,.91-1.79,3.81,3.81,0,0,1,2.52-.81,3.7,3.7,0,0,1,2.44.77,2.74,2.74,0,0,1,.93,2.23v4.31c0,.32,0,.63.05.93a5.28,5.28,0,0,0,.18.88Zm-2.7-1.19a2.9,2.9,0,0,0,1.59-.46,2.11,2.11,0,0,0,.93-1V177H410a2.36,2.36,0,0,0-1.57.5,1.47,1.47,0,0,0-.6,1.16,1.23,1.23,0,0,0,.38,1A1.56,1.56,0,0,0,409.31,180Z"/><path d="M417.28,172.19l.12,1.34a3.21,3.21,0,0,1,1.12-1.11,3,3,0,0,1,1.54-.39,2.91,2.91,0,0,1,2.24.85,3.7,3.7,0,0,1,.79,2.62v5.65h-1.63v-5.62a2.43,2.43,0,0,0-.46-1.68,1.88,1.88,0,0,0-1.43-.5,2.55,2.55,0,0,0-1.28.3,2.26,2.26,0,0,0-.83.85v6.65h-1.63v-9Z"/><path d="M425.09,176.84a6,6,0,0,1,.92-3.49A3,3,0,0,1,428.6,172a3.09,3.09,0,0,1,1.39.29,2.81,2.81,0,0,1,1,.84v-4.92h1.63v12.91h-1.25l-.25-1.14a2.89,2.89,0,0,1-1.08,1,3.25,3.25,0,0,1-1.5.33,3,3,0,0,1-2.56-1.19,4.91,4.91,0,0,1-.93-3.12Zm1.63.17a3.79,3.79,0,0,0,.55,2.17A1.93,1.93,0,0,0,429,180a2.17,2.17,0,0,0,1.23-.33,2.47,2.47,0,0,0,.81-.93v-4.18a2.55,2.55,0,0,0-.81-.88,2.17,2.17,0,0,0-1.21-.33,1.85,1.85,0,0,0-1.73,1,5,5,0,0,0-.56,2.52Z"/><path d="M441.57,170v2.16h1.7v1.21h-1.7v5.44a1.22,1.22,0,0,0,.26.88,1,1,0,0,0,.7.26,1.25,1.25,0,0,0,.31,0,1.48,1.48,0,0,0,.29-.08l.22,1.12a1.51,1.51,0,0,1-.54.25,2.8,2.8,0,0,1-.7.09,2.11,2.11,0,0,1-1.58-.6,2.61,2.61,0,0,1-.59-1.88V173.4h-1.42v-1.21h1.42V170Z"/><path d="M444.63,176.59a4.93,4.93,0,0,1,1.08-3.28,4,4,0,0,1,5.86,0,4.93,4.93,0,0,1,1.08,3.28v.18a4.91,4.91,0,0,1-1.07,3.28,4,4,0,0,1-5.86,0,4.84,4.84,0,0,1-1.09-3.27Zm1.64.18a4.25,4.25,0,0,0,.6,2.35,2.16,2.16,0,0,0,3.55,0,4.25,4.25,0,0,0,.6-2.35v-.18a4.24,4.24,0,0,0-.6-2.34,2,2,0,0,0-1.79-.94,1.94,1.94,0,0,0-1.76.94,4.24,4.24,0,0,0-.6,2.34Z"/><path d="M460.62,169.9H459v-1.66h1.63Zm0,11.25H459v-9h1.63Z"/><path d="M464.59,172.19l.11,1.18a3,3,0,0,1,1.12-1,3.26,3.26,0,0,1,1.56-.35,2.83,2.83,0,0,1,1.54.41,2.48,2.48,0,0,1,1,1.24,3.37,3.37,0,0,1,1.13-1.21,2.94,2.94,0,0,1,1.61-.44,2.67,2.67,0,0,1,2.16.94,4.26,4.26,0,0,1,.8,2.82v5.36H474v-5.37a3,3,0,0,0-.46-1.88,1.67,1.67,0,0,0-1.36-.55,1.73,1.73,0,0,0-1.35.58,2.58,2.58,0,0,0-.61,1.47v5.75h-1.64v-5.37a2.93,2.93,0,0,0-.46-1.84,1.63,1.63,0,0,0-1.35-.59,2.19,2.19,0,0,0-1.22.31,2,2,0,0,0-.74.86v6.63h-1.63v-9Z"/><path d="M485.57,177a5,5,0,0,1-.92,3.12,3,3,0,0,1-2.56,1.19,3.44,3.44,0,0,1-1.45-.28,2.77,2.77,0,0,1-1.07-.83v4.38h-1.63v-12.4h1.25l.26,1.16a2.91,2.91,0,0,1,1.09-1,3.24,3.24,0,0,1,1.52-.34,3,3,0,0,1,2.59,1.32,5.93,5.93,0,0,1,.92,3.49Zm-1.63-.17a4.76,4.76,0,0,0-.6-2.51,2,2,0,0,0-1.76-1,2.19,2.19,0,0,0-1.2.32,2.43,2.43,0,0,0-.81.87v4.33a2.43,2.43,0,0,0,.81.87,2.29,2.29,0,0,0,1.21.31,2,2,0,0,0,1.76-.85,3.8,3.8,0,0,0,.59-2.19Z"/><path d="M491.81,173.63l-.83,0a1.81,1.81,0,0,0-1.77,1.17v6.4h-1.63v-9H489l.16,1.31a3.12,3.12,0,0,1,.94-1.08,2.19,2.19,0,0,1,1.29-.39,1.87,1.87,0,0,1,.34,0l.28.06Z"/><path d="M493,176.59a4.93,4.93,0,0,1,1.08-3.28,4,4,0,0,1,5.86,0,4.93,4.93,0,0,1,1.08,3.28v.18a5,5,0,0,1-1.07,3.28,4,4,0,0,1-5.87,0,4.88,4.88,0,0,1-1.08-3.27Zm1.63.18a4.25,4.25,0,0,0,.6,2.35,2,2,0,0,0,1.79.93,2,2,0,0,0,1.77-.93,4.25,4.25,0,0,0,.6-2.35v-.18a4.16,4.16,0,0,0-.61-2.34,2.15,2.15,0,0,0-3.55,0,4.24,4.24,0,0,0-.6,2.34Z"/><path d="M505.84,178.51l.14.63h0l.16-.63,2.06-6.32h1.66l-3.29,9h-1.23l-3.34-9h1.67Z"/><path d="M515,181.32a3.79,3.79,0,0,1-3-1.23,4.76,4.76,0,0,1-1.08-3.25v-.36a4.64,4.64,0,0,1,1.11-3.19,3.49,3.49,0,0,1,2.72-1.26,3.25,3.25,0,0,1,2.69,1.11,4.62,4.62,0,0,1,.9,3V177h-5.73l0,0a3.68,3.68,0,0,0,.6,2.19,2.07,2.07,0,0,0,1.82.84,4,4,0,0,0,1.45-.24,3.3,3.3,0,0,0,1.07-.65l.64,1.06a3.82,3.82,0,0,1-1.27.78A5,5,0,0,1,515,181.32Zm-.26-8a1.76,1.76,0,0,0-1.41.66,3.11,3.11,0,0,0-.68,1.68v0h4v-.13a2.59,2.59,0,0,0-.48-1.61A1.72,1.72,0,0,0,514.72,173.31Z"/><path d="M296.29,190.37v2.16H298v1.21h-1.69v5.44a1.17,1.17,0,0,0,.26.88.94.94,0,0,0,.69.26,1.2,1.2,0,0,0,.31,0,1.48,1.48,0,0,0,.29-.08l.22,1.12a1.38,1.38,0,0,1-.53.24,2.53,2.53,0,0,1-.71.1,2.11,2.11,0,0,1-1.58-.6,2.61,2.61,0,0,1-.59-1.88v-5.44h-1.42v-1.21h1.42v-2.16Z"/><path d="M301.36,193.73a3.3,3.3,0,0,1,1.14-1,3.1,3.1,0,0,1,1.49-.36,2.87,2.87,0,0,1,2.23.86,3.77,3.77,0,0,1,.8,2.64v5.61h-1.63v-5.62a2.38,2.38,0,0,0-.48-1.64,1.83,1.83,0,0,0-1.42-.53,2.66,2.66,0,0,0-1.26.28,2.39,2.39,0,0,0-.87.8v6.71h-1.63v-12.9h1.63Z"/><path d="M313.07,201.66a3.79,3.79,0,0,1-3-1.23,4.78,4.78,0,0,1-1.08-3.25v-.36a4.64,4.64,0,0,1,1.11-3.19,3.49,3.49,0,0,1,2.72-1.26,3.27,3.27,0,0,1,2.7,1.11,4.67,4.67,0,0,1,.89,3v.86h-5.72l0,.05a3.67,3.67,0,0,0,.6,2.18,2.07,2.07,0,0,0,1.82.84,4,4,0,0,0,1.45-.23,3.37,3.37,0,0,0,1.07-.65l.64,1.06a3.82,3.82,0,0,1-1.27.78A5,5,0,0,1,313.07,201.66Zm-.26-8a1.76,1.76,0,0,0-1.41.66,3.08,3.08,0,0,0-.68,1.68v0h4v-.13a2.59,2.59,0,0,0-.48-1.61A1.72,1.72,0,0,0,312.81,193.65Z"/><path d="M320,190.24h-1.63v-1.66H320Zm0,11.24h-1.63v-8.95H320Z"/><path d="M326.74,194l-.84-.05a1.84,1.84,0,0,0-1.09.31,2,2,0,0,0-.68.86v6.39H322.5v-8.95H324l.16,1.31a3,3,0,0,1,.93-1.09,2.22,2.22,0,0,1,1.29-.38l.35,0a1.31,1.31,0,0,1,.27.07Z"/><path d="M335.12,197.36h-.83v4.12h-1.63v-12.9h1.63v7.48h.82l2.69-3.53h1.95l-3.25,4.13,3.53,4.82H338.1Z"/><path d="M342.79,192.53l.12,1.33a3.27,3.27,0,0,1,1.12-1.1,3,3,0,0,1,1.54-.39,2.94,2.94,0,0,1,2.24.84,3.73,3.73,0,0,1,.79,2.62v5.65H347v-5.61a2.43,2.43,0,0,0-.46-1.68,1.9,1.9,0,0,0-1.43-.5,2.55,2.55,0,0,0-1.28.3,2.19,2.19,0,0,0-.83.85v6.64h-1.63v-8.95Z"/><path d="M350.59,196.93a5,5,0,0,1,1.07-3.28,4,4,0,0,1,5.87,0,4.91,4.91,0,0,1,1.08,3.28v.18a4.88,4.88,0,0,1-1.08,3.27,4,4,0,0,1-5.86,0,4.88,4.88,0,0,1-1.08-3.27Zm1.63.18a4.25,4.25,0,0,0,.6,2.35,2.17,2.17,0,0,0,3.55,0,4.17,4.17,0,0,0,.61-2.35v-.18a4.3,4.3,0,0,0-.61-2.35,2,2,0,0,0-1.78-.93,2,2,0,0,0-1.77.93,4.29,4.29,0,0,0-.6,2.35Z"/><path d="M362.89,198.22l.21,1.15h0l.22-1.15,1.78-5.69h1.31l1.8,5.69.23,1.29h.05l.26-1.29,1.33-5.69h1.7l-2.6,8.95h-1.31L366.15,196l-.34-1.42h-.05l-.32,1.42-1.74,5.45h-1.31l-2.6-8.95h1.7Z"/><path d="M375.19,201.48h-1.63v-12.9h1.63Z"/><path d="M381.41,201.66a3.79,3.79,0,0,1-3-1.23,4.78,4.78,0,0,1-1.08-3.25v-.36a4.64,4.64,0,0,1,1.11-3.19,3.49,3.49,0,0,1,2.72-1.26,3.25,3.25,0,0,1,2.69,1.11,4.61,4.61,0,0,1,.9,3v.86H379l0,.05a3.67,3.67,0,0,0,.6,2.18,2.07,2.07,0,0,0,1.82.84,4,4,0,0,0,1.45-.23,3.48,3.48,0,0,0,1.07-.65l.64,1.06a3.82,3.82,0,0,1-1.27.78A5,5,0,0,1,381.41,201.66Zm-.26-8a1.76,1.76,0,0,0-1.41.66,3.08,3.08,0,0,0-.68,1.68v0h4v-.13a2.59,2.59,0,0,0-.48-1.61A1.72,1.72,0,0,0,381.15,193.65Z"/><path d="M386.2,197.17a6,6,0,0,1,.92-3.48,3,3,0,0,1,2.59-1.32,3.23,3.23,0,0,1,1.39.28,2.94,2.94,0,0,1,1,.85v-4.92h1.63v12.9h-1.25l-.25-1.13a2.89,2.89,0,0,1-1.08,1,3.25,3.25,0,0,1-1.5.33,3.09,3.09,0,0,1-2.57-1.19,5,5,0,0,1-.92-3.12Zm1.63.18a3.79,3.79,0,0,0,.55,2.17,2,2,0,0,0,1.72.81,2.17,2.17,0,0,0,1.23-.33,2.51,2.51,0,0,0,.81-.92V194.9a2.4,2.4,0,0,0-.82-.88,2.11,2.11,0,0,0-1.2-.33,1.85,1.85,0,0,0-1.73,1,4.89,4.89,0,0,0-.56,2.51Z"/><path d="M395.91,197.17a5.92,5.92,0,0,1,.93-3.48,3,3,0,0,1,2.57-1.32A3,3,0,0,1,402,193.7l.19-1.17h1.3v9a3.42,3.42,0,0,1-1,2.65,4.14,4.14,0,0,1-2.89.92,6,6,0,0,1-1.39-.18,5.67,5.67,0,0,1-1.32-.48l.25-1.27a4.33,4.33,0,0,0,1.14.4,5.4,5.4,0,0,0,1.31.16,2.38,2.38,0,0,0,1.73-.54,2.29,2.29,0,0,0,.54-1.66v-1a2.86,2.86,0,0,1-1.05.85,3.32,3.32,0,0,1-1.41.29,3.06,3.06,0,0,1-2.56-1.19,4.91,4.91,0,0,1-.93-3.12Zm1.63.18a3.82,3.82,0,0,0,.56,2.17,1.93,1.93,0,0,0,1.71.81A2.17,2.17,0,0,0,401,200a2.4,2.4,0,0,0,.82-.95v-4.12A2.58,2.58,0,0,0,401,194a2.15,2.15,0,0,0-1.21-.33,1.85,1.85,0,0,0-1.73,1,5,5,0,0,0-.56,2.51Z"/><path d="M409.54,201.66a3.78,3.78,0,0,1-3-1.23,4.73,4.73,0,0,1-1.09-3.25v-.36a4.65,4.65,0,0,1,1.12-3.19,3.49,3.49,0,0,1,2.72-1.26,3.26,3.26,0,0,1,2.69,1.11,4.61,4.61,0,0,1,.9,3v.86h-5.73l0,.05a3.74,3.74,0,0,0,.59,2.18,2.09,2.09,0,0,0,1.82.84,4.11,4.11,0,0,0,1.46-.23,3.48,3.48,0,0,0,1.07-.65l.63,1.06a3.87,3.87,0,0,1-1.26.78A5.14,5.14,0,0,1,409.54,201.66Zm-.25-8a1.76,1.76,0,0,0-1.41.66,3.09,3.09,0,0,0-.69,1.68l0,0h4v-.13a2.59,2.59,0,0,0-.48-1.61A1.73,1.73,0,0,0,409.29,193.65Z"/><path d="M418.54,196.93a5,5,0,0,1,1.07-3.28,4,4,0,0,1,5.87,0,4.91,4.91,0,0,1,1.08,3.28v.18a4.88,4.88,0,0,1-1.08,3.27,4,4,0,0,1-5.86,0,4.88,4.88,0,0,1-1.08-3.27Zm1.63.18a4.25,4.25,0,0,0,.6,2.35,2.17,2.17,0,0,0,3.55,0,4.17,4.17,0,0,0,.61-2.35v-.18a4.3,4.3,0,0,0-.61-2.35,2,2,0,0,0-1.78-.93,2,2,0,0,0-1.77.93,4.29,4.29,0,0,0-.6,2.35Z"/><path d="M430,192.53l.11,1.33a3.3,3.3,0,0,1,1.13-1.1,3,3,0,0,1,1.53-.39,2.93,2.93,0,0,1,2.24.84,3.73,3.73,0,0,1,.8,2.62v5.65h-1.63v-5.61a2.43,2.43,0,0,0-.47-1.68,1.88,1.88,0,0,0-1.43-.5,2.55,2.55,0,0,0-1.28.3,2.26,2.26,0,0,0-.83.85v6.64h-1.63v-8.95Z"/><path d="M443.85,192.53l.12,1.18a2.93,2.93,0,0,1,1.11-1,3.28,3.28,0,0,1,1.57-.35,2.75,2.75,0,0,1,1.54.41,2.54,2.54,0,0,1,1,1.24,3.35,3.35,0,0,1,1.12-1.21,2.89,2.89,0,0,1,1.62-.44,2.69,2.69,0,0,1,2.16.93,4.3,4.3,0,0,1,.79,2.83v5.35h-1.63v-5.37a3,3,0,0,0-.45-1.87,1.67,1.67,0,0,0-1.36-.55,1.7,1.7,0,0,0-1.35.58,2.46,2.46,0,0,0-.61,1.46v5.75H447.8v-5.37a3,3,0,0,0-.47-1.84,1.61,1.61,0,0,0-1.34-.58,2.2,2.2,0,0,0-1.23.31,1.93,1.93,0,0,0-.73.86v6.62H442.4v-8.95Z"/><path d="M460.92,201.66a3.79,3.79,0,0,1-3-1.23,4.78,4.78,0,0,1-1.08-3.25v-.36a4.64,4.64,0,0,1,1.11-3.19,3.49,3.49,0,0,1,2.72-1.26,3.24,3.24,0,0,1,2.69,1.11,4.61,4.61,0,0,1,.9,3v.86h-5.72l0,.05a3.67,3.67,0,0,0,.6,2.18,2.07,2.07,0,0,0,1.82.84,4,4,0,0,0,1.45-.23,3.37,3.37,0,0,0,1.07-.65l.64,1.06a3.82,3.82,0,0,1-1.27.78A5,5,0,0,1,460.92,201.66Zm-.26-8a1.76,1.76,0,0,0-1.41.66,3.08,3.08,0,0,0-.68,1.68v0h4v-.13a2.59,2.59,0,0,0-.48-1.61A1.72,1.72,0,0,0,460.66,193.65Z"/><path d="M467.54,192.53l.11,1.33a3.36,3.36,0,0,1,1.12-1.1,3,3,0,0,1,1.54-.39,2.93,2.93,0,0,1,2.24.84,3.73,3.73,0,0,1,.8,2.62v5.65h-1.63v-5.61a2.43,2.43,0,0,0-.47-1.68,1.88,1.88,0,0,0-1.43-.5,2.55,2.55,0,0,0-1.28.3,2.26,2.26,0,0,0-.83.85v6.64h-1.63v-8.95Z"/><path d="M480.92,199.08a1.1,1.1,0,0,0-.41-.88,3.85,3.85,0,0,0-1.55-.6,6.31,6.31,0,0,1-2.43-.95,1.91,1.91,0,0,1-.85-1.64,2.38,2.38,0,0,1,.93-1.87,4.14,4.14,0,0,1,4.88.05,2.37,2.37,0,0,1,.9,1.93l0,0h-1.55a1.39,1.39,0,0,0-.51-1,2.14,2.14,0,0,0-2.57-.08,1.2,1.2,0,0,0-.43.92,1,1,0,0,0,.37.82,3.9,3.9,0,0,0,1.52.53,6.31,6.31,0,0,1,2.5,1,2,2,0,0,1,.85,1.66,2.36,2.36,0,0,1-1,1.95,4,4,0,0,1-2.52.75,3.9,3.9,0,0,1-2.69-.87,2.49,2.49,0,0,1-.94-2l0,0H477a1.51,1.51,0,0,0,.65,1.27,2.46,2.46,0,0,0,1.41.4,2.3,2.3,0,0,0,1.37-.36A1.15,1.15,0,0,0,480.92,199.08Z"/><path d="M486.84,190.37v2.16h1.7v1.21h-1.7v5.44a1.22,1.22,0,0,0,.26.88,1,1,0,0,0,.7.26,1.25,1.25,0,0,0,.31,0,1.48,1.48,0,0,0,.29-.08l.22,1.12a1.38,1.38,0,0,1-.53.24,2.53,2.53,0,0,1-.71.1,2.11,2.11,0,0,1-1.58-.6,2.61,2.61,0,0,1-.59-1.88v-5.44h-1.42v-1.21h1.42v-2.16Z"/><path d="M494.52,194l-.83-.05a1.82,1.82,0,0,0-1.09.31,1.9,1.9,0,0,0-.68.86v6.39h-1.63v-8.95h1.45l.16,1.31a3.07,3.07,0,0,1,.94-1.09,2.18,2.18,0,0,1,1.29-.38l.34,0a1.42,1.42,0,0,1,.28.07Z"/><path d="M501.91,200.16a3.14,3.14,0,0,1-1.09,1.11,3,3,0,0,1-1.53.39,2.84,2.84,0,0,1-2.28-.94,4.3,4.3,0,0,1-.82-2.91v-5.28h1.63v5.3a3.36,3.36,0,0,0,.42,2,1.56,1.56,0,0,0,1.31.53A2.65,2.65,0,0,0,501,200a2.2,2.2,0,0,0,.86-1v-6.46h1.63v8.95H502Z"/><path d="M511.36,201.48c-.06-.27-.1-.5-.13-.71s-.05-.42-.06-.63a3.84,3.84,0,0,1-1.18,1.08,3.06,3.06,0,0,1-1.58.44,2.92,2.92,0,0,1-2.13-.72,2.6,2.6,0,0,1-.73-2,2.3,2.3,0,0,1,1-2,4.85,4.85,0,0,1,2.81-.72h1.77v-.89a1.63,1.63,0,0,0-.48-1.24,1.86,1.86,0,0,0-1.35-.46,2,2,0,0,0-1.29.4,1.19,1.19,0,0,0-.48.95H506l0,0a2.13,2.13,0,0,1,.92-1.78,3.77,3.77,0,0,1,2.51-.81,3.69,3.69,0,0,1,2.45.77,2.72,2.72,0,0,1,.92,2.23v4.31c0,.32,0,.63.05.93a5,5,0,0,0,.19.87Zm-2.71-1.19a3,3,0,0,0,1.6-.45,2.18,2.18,0,0,0,.92-1v-1.46h-1.83a2.31,2.31,0,0,0-1.57.5,1.46,1.46,0,0,0-.59,1.16,1.24,1.24,0,0,0,.37.95A1.56,1.56,0,0,0,508.65,200.29Z"/><path d="M516.93,201.48H515.3v-12.9h1.63Z"/><path d="M326.28,214.07a3.33,3.33,0,0,1,1.14-1,3.14,3.14,0,0,1,1.5-.36,2.92,2.92,0,0,1,2.23.86,3.82,3.82,0,0,1,.79,2.65v5.61h-1.63V216.2a2.38,2.38,0,0,0-.47-1.64,1.79,1.79,0,0,0-1.42-.53,2.67,2.67,0,0,0-1.27.28,2.31,2.31,0,0,0-.87.8v6.71h-1.63V208.91h1.63Z"/><path d="M337,218.5l.29,1.13h.05l2.2-6.76h1.81l-3.77,10.33a4.61,4.61,0,0,1-1,1.57,2.22,2.22,0,0,1-1.71.67,3.64,3.64,0,0,1-.5-.05l-.47-.08.16-1.29.29,0,.44,0a1,1,0,0,0,.85-.47,5,5,0,0,0,.56-1l.39-.94-3.33-8.77h1.82Z"/><path d="M342.41,217.51a5.92,5.92,0,0,1,.93-3.48,2.94,2.94,0,0,1,2.57-1.33A3,3,0,0,1,348.5,214l.19-1.17H350v9a3.42,3.42,0,0,1-1,2.65,4.14,4.14,0,0,1-2.89.92,6,6,0,0,1-1.39-.18,5.67,5.67,0,0,1-1.32-.48l.25-1.27a4.33,4.33,0,0,0,1.14.4,5.94,5.94,0,0,0,1.31.16,2.38,2.38,0,0,0,1.73-.55,2.25,2.25,0,0,0,.54-1.65v-1a2.89,2.89,0,0,1-1.05.86,3.32,3.32,0,0,1-1.41.29,3.06,3.06,0,0,1-2.56-1.19,4.92,4.92,0,0,1-.93-3.13Zm1.63.17a3.79,3.79,0,0,0,.56,2.17,1.91,1.91,0,0,0,1.71.82,2.17,2.17,0,0,0,1.23-.33,2.47,2.47,0,0,0,.82-1v-4.12a2.58,2.58,0,0,0-.82-.91,2.15,2.15,0,0,0-1.21-.33,1.85,1.85,0,0,0-1.73,1,5,5,0,0,0-.56,2.51Z"/><path d="M354.1,210.58h-1.63v-1.67h1.63Zm0,11.24h-1.63v-8.95h1.63Z"/><path d="M360.31,222a3.78,3.78,0,0,1-3-1.24,4.73,4.73,0,0,1-1.08-3.24v-.36a4.65,4.65,0,0,1,1.12-3.19,3.47,3.47,0,0,1,2.72-1.27,3.27,3.27,0,0,1,2.69,1.12,4.59,4.59,0,0,1,.9,3v.86h-5.73l0,0a3.75,3.75,0,0,0,.59,2.19,2.09,2.09,0,0,0,1.82.84,4.24,4.24,0,0,0,1.45-.23,3.42,3.42,0,0,0,1.08-.65l.63,1.06a4,4,0,0,1-1.26.78A5.14,5.14,0,0,1,360.31,222Zm-.25-8a1.78,1.78,0,0,0-1.41.65,3.12,3.12,0,0,0-.69,1.69l0,0h4v-.13a2.64,2.64,0,0,0-.48-1.62A1.75,1.75,0,0,0,360.06,214Z"/><path d="M366.93,212.87l.12,1.33a3.27,3.27,0,0,1,1.12-1.1,3.29,3.29,0,0,1,3.78.45,3.73,3.73,0,0,1,.79,2.62v5.65h-1.63V216.2a2.38,2.38,0,0,0-.47-1.68,1.85,1.85,0,0,0-1.42-.49,2.53,2.53,0,0,0-1.28.3,2.12,2.12,0,0,0-.83.85v6.64h-1.63v-8.95Z"/><path d="M378.82,222a3.76,3.76,0,0,1-3-1.24,4.73,4.73,0,0,1-1.08-3.24v-.36a4.64,4.64,0,0,1,1.11-3.19,3.47,3.47,0,0,1,2.72-1.27,3.24,3.24,0,0,1,2.69,1.12,4.59,4.59,0,0,1,.9,3v.86h-5.72l0,0a3.68,3.68,0,0,0,.6,2.19,2.07,2.07,0,0,0,1.82.84,4.28,4.28,0,0,0,1.45-.23,3.37,3.37,0,0,0,1.07-.65l.64,1.06a4,4,0,0,1-1.27.78A5,5,0,0,1,378.82,222Zm-.26-8a1.78,1.78,0,0,0-1.41.65,3.11,3.11,0,0,0-.68,1.69v0h4v-.13a2.64,2.64,0,0,0-.48-1.62A1.74,1.74,0,0,0,378.56,214Z"/><path d="M389.65,212.87l.12,1.17a3.11,3.11,0,0,1,1.11-1,3.4,3.4,0,0,1,1.57-.35,2.74,2.74,0,0,1,1.53.42,2.5,2.5,0,0,1,1,1.24,3.27,3.27,0,0,1,1.12-1.21,2.89,2.89,0,0,1,1.61-.45,2.67,2.67,0,0,1,2.16.94,4.3,4.3,0,0,1,.8,2.83v5.35H399v-5.37a2.91,2.91,0,0,0-.46-1.87,1.63,1.63,0,0,0-1.35-.55,1.73,1.73,0,0,0-1.36.58,2.51,2.51,0,0,0-.6,1.46v5.75H393.6v-5.37a2.94,2.94,0,0,0-.47-1.84,1.62,1.62,0,0,0-1.35-.58,2.27,2.27,0,0,0-1.22.3,2,2,0,0,0-.74.86v6.63h-1.63v-8.95Z"/><path d="M408.51,221.82c-.06-.27-.1-.51-.13-.71a4.46,4.46,0,0,1-.05-.63,3.87,3.87,0,0,1-1.19,1.08,3,3,0,0,1-1.58.44,2.92,2.92,0,0,1-2.13-.72,2.62,2.62,0,0,1-.73-2,2.32,2.32,0,0,1,1-2,4.87,4.87,0,0,1,2.82-.72h1.77v-.89a1.63,1.63,0,0,0-.48-1.24,1.88,1.88,0,0,0-1.36-.46,2,2,0,0,0-1.28.39,1.2,1.2,0,0,0-.49,1l-1.55,0v0a2.13,2.13,0,0,1,.91-1.79,3.78,3.78,0,0,1,2.51-.81,3.67,3.67,0,0,1,2.45.78,2.73,2.73,0,0,1,.93,2.23V220a7.06,7.06,0,0,0,.05.93,4.34,4.34,0,0,0,.18.87Zm-2.71-1.19a2.93,2.93,0,0,0,1.6-.45,2.28,2.28,0,0,0,.93-1.05v-1.45H406.5a2.39,2.39,0,0,0-1.58.49,1.5,1.5,0,0,0-.59,1.17,1.21,1.21,0,0,0,.37.94A1.53,1.53,0,0,0,405.8,220.63Z"/><path d="M413.78,212.87l.12,1.33a3.18,3.18,0,0,1,1.12-1.1,2.91,2.91,0,0,1,1.53-.4,3,3,0,0,1,2.25.85,3.73,3.73,0,0,1,.79,2.62v5.65H418V216.2a2.43,2.43,0,0,0-.47-1.68,1.88,1.88,0,0,0-1.43-.49,2.51,2.51,0,0,0-1.27.3,2.21,2.21,0,0,0-.84.85v6.64h-1.63v-8.95Z"/><path d="M427.46,221.82c-.06-.27-.1-.51-.13-.71a4.46,4.46,0,0,1-.05-.63,3.87,3.87,0,0,1-1.19,1.08,3,3,0,0,1-1.58.44,2.92,2.92,0,0,1-2.13-.72,2.62,2.62,0,0,1-.73-2,2.32,2.32,0,0,1,1-2,4.87,4.87,0,0,1,2.82-.72h1.77v-.89a1.63,1.63,0,0,0-.48-1.24,1.87,1.87,0,0,0-1.36-.46,2,2,0,0,0-1.28.39,1.2,1.2,0,0,0-.49,1l-1.55,0v0a2.13,2.13,0,0,1,.91-1.79,3.8,3.8,0,0,1,2.51-.81,3.67,3.67,0,0,1,2.45.78,2.73,2.73,0,0,1,.93,2.23V220a7.06,7.06,0,0,0,0,.93,4.34,4.34,0,0,0,.18.87Zm-2.71-1.19a2.93,2.93,0,0,0,1.6-.45,2.23,2.23,0,0,0,.93-1.05v-1.45h-1.83a2.39,2.39,0,0,0-1.58.49,1.5,1.5,0,0,0-.59,1.17,1.21,1.21,0,0,0,.37.94A1.53,1.53,0,0,0,424.75,220.63Z"/><path d="M431,217.51a5.92,5.92,0,0,1,.92-3.48,2.94,2.94,0,0,1,2.58-1.33,3,3,0,0,1,2.58,1.34l.2-1.17h1.29v9a3.42,3.42,0,0,1-1,2.65,4.12,4.12,0,0,1-2.88.92,6,6,0,0,1-1.4-.18,5.67,5.67,0,0,1-1.32-.48l.25-1.27a4.33,4.33,0,0,0,1.14.4,5.94,5.94,0,0,0,1.31.16,2.38,2.38,0,0,0,1.73-.55,2.25,2.25,0,0,0,.55-1.65v-1a3,3,0,0,1-1.06.86,3.29,3.29,0,0,1-1.41.29,3.06,3.06,0,0,1-2.56-1.19,4.92,4.92,0,0,1-.92-3.13Zm1.63.17a3.79,3.79,0,0,0,.55,2.17,1.91,1.91,0,0,0,1.71.82,2.23,2.23,0,0,0,1.24-.33,2.65,2.65,0,0,0,.82-1v-4.12a2.78,2.78,0,0,0-.82-.91,2.2,2.2,0,0,0-1.22-.33,1.86,1.86,0,0,0-1.73,1,5,5,0,0,0-.55,2.51Z"/><path d="M444.62,222a3.76,3.76,0,0,1-3-1.24,4.73,4.73,0,0,1-1.08-3.24v-.36a4.64,4.64,0,0,1,1.11-3.19,3.47,3.47,0,0,1,2.72-1.27,3.26,3.26,0,0,1,2.69,1.12,4.59,4.59,0,0,1,.9,3v.86h-5.73l0,0a3.75,3.75,0,0,0,.59,2.19,2.1,2.1,0,0,0,1.83.84,4.28,4.28,0,0,0,1.45-.23,3.48,3.48,0,0,0,1.07-.65l.64,1.06a4.1,4.1,0,0,1-1.27.78A5.08,5.08,0,0,1,444.62,222Zm-.26-8a1.78,1.78,0,0,0-1.41.65,3.2,3.2,0,0,0-.69,1.69l0,0h4v-.13a2.64,2.64,0,0,0-.48-1.62A1.74,1.74,0,0,0,444.36,214Z"/><path d="M451.24,212.87l.11,1.17a3.11,3.11,0,0,1,1.11-1,3.43,3.43,0,0,1,1.57-.35,2.75,2.75,0,0,1,1.54.42,2.49,2.49,0,0,1,1,1.24,3.35,3.35,0,0,1,1.12-1.21,2.9,2.9,0,0,1,1.62-.45,2.7,2.7,0,0,1,2.16.94,4.3,4.3,0,0,1,.8,2.83v5.35H460.6v-5.37a3,3,0,0,0-.46-1.87,1.65,1.65,0,0,0-1.36-.55,1.71,1.71,0,0,0-1.35.58,2.46,2.46,0,0,0-.61,1.46v5.75h-1.64v-5.37a2.88,2.88,0,0,0-.47-1.84,1.6,1.6,0,0,0-1.34-.58,2.25,2.25,0,0,0-1.22.3,2,2,0,0,0-.74.86v6.63h-1.63v-8.95Z"/><path d="M468.3,222a3.76,3.76,0,0,1-3-1.24,4.73,4.73,0,0,1-1.08-3.24v-.36a4.64,4.64,0,0,1,1.11-3.19A3.49,3.49,0,0,1,468,212.7a3.28,3.28,0,0,1,2.7,1.12,4.65,4.65,0,0,1,.89,3v.86h-5.72l0,0a3.68,3.68,0,0,0,.6,2.19,2.08,2.08,0,0,0,1.82.84,4.28,4.28,0,0,0,1.45-.23,3.26,3.26,0,0,0,1.07-.65l.64,1.06a4,4,0,0,1-1.27.78A5,5,0,0,1,468.3,222Zm-.26-8a1.78,1.78,0,0,0-1.41.65,3.11,3.11,0,0,0-.68,1.69l0,0h4v-.13a2.64,2.64,0,0,0-.48-1.62A1.74,1.74,0,0,0,468,214Z"/><path d="M474.92,212.87l.12,1.33a3.18,3.18,0,0,1,1.12-1.1,3.27,3.27,0,0,1,3.77.45,3.73,3.73,0,0,1,.8,2.62v5.65H479.1V216.2a2.43,2.43,0,0,0-.47-1.68,1.88,1.88,0,0,0-1.43-.49,2.51,2.51,0,0,0-1.27.3,2.15,2.15,0,0,0-.84.85v6.64h-1.63v-8.95Z"/><path d="M485.36,210.71v2.16h1.7v1.21h-1.7v5.43a1.24,1.24,0,0,0,.26.89,1,1,0,0,0,.7.26,2,2,0,0,0,.31,0l.29-.08.22,1.12a1.36,1.36,0,0,1-.54.24,2.82,2.82,0,0,1-.7.1,2.11,2.11,0,0,1-1.58-.6,2.63,2.63,0,0,1-.59-1.89v-5.43h-1.42v-1.21h1.42v-2.16Z"/><path class="cls-1" d="M359.33,106.57a6.38,6.38,0,0,1-2.48-2.35,6.89,6.89,0,0,1,0-6.81,6.33,6.33,0,0,1,2.48-2.36,7.9,7.9,0,0,1,6.56-.26,6.06,6.06,0,0,1,2.25,1.68l-1.9,1.75a4.06,4.06,0,0,0-3.21-1.5,4.35,4.35,0,0,0-2.12.52,3.74,3.74,0,0,0-1.45,1.45,4.58,4.58,0,0,0,0,4.24,3.74,3.74,0,0,0,1.45,1.45,4.24,4.24,0,0,0,2.12.52,4,4,0,0,0,3.21-1.51l1.9,1.75a5.83,5.83,0,0,1-2.26,1.69,7.52,7.52,0,0,1-3,.59A7.32,7.32,0,0,1,359.33,106.57Z"/><path class="cls-1" d="M381.85,94.42V107.2h-3V102h-5.8v5.24h-3V94.42h3v5h5.8v-5Z"/><path class="cls-1" d="M384.88,94.42h2.95V107.2h-2.95Z"/><path class="cls-1" d="M390.86,94.42h3v10.37h6.41v2.41h-9.37Z"/><path class="cls-1" d="M401.89,94.42h5.8a8.17,8.17,0,0,1,3.68.8,6,6,0,0,1,2.48,2.23,6.79,6.79,0,0,1,0,6.72,6,6,0,0,1-2.48,2.24,8.16,8.16,0,0,1-3.68.79h-5.8Zm5.66,10.35a4.25,4.25,0,0,0,3.05-1.07,4.23,4.23,0,0,0,0-5.78,4.3,4.3,0,0,0-3.05-1.07h-2.71v7.92Z"/><path class="cls-1" d="M425.1,107.2l-2.46-3.56h-2.72v3.56h-3V94.42h5.53a7,7,0,0,1,2.95.57,4.22,4.22,0,0,1,2.6,4.07,4.15,4.15,0,0,1-2.63,4l2.87,4.11Zm-.75-9.79a3,3,0,0,0-2-.58h-2.41v4.46h2.41a3,3,0,0,0,2-.59,2.28,2.28,0,0,0,0-3.29Z"/><path class="cls-1" d="M440.27,104.83v2.37h-9.89V94.42H440V96.8h-6.71v2.77h5.93v2.3h-5.93v3Z"/><path class="cls-1" d="M454.34,94.42V107.2h-2.42l-6.37-7.76v7.76h-2.93V94.42h2.45l6.35,7.76V94.42Z"/><path class="cls-1" d="M361.73,56.76A10.51,10.51,0,0,1,366,60.55a10.17,10.17,0,0,1,1.59,5.67,10.77,10.77,0,0,1-1.74,6.09,11.26,11.26,0,0,1-4.73,4,15.46,15.46,0,0,1-6.66,1.41q-7.29,0-11.4-4.46T339,60.57a21.25,21.25,0,0,1,2.23-10.1,15.17,15.17,0,0,1,6.22-6.39,18.89,18.89,0,0,1,9.24-2.18,22.6,22.6,0,0,1,5.32.61,14.48,14.48,0,0,1,4.34,1.76l-3,5.9a11.37,11.37,0,0,0-6.49-1.74,9.45,9.45,0,0,0-7,2.58q-2.58,2.58-2.77,7.48,3.06-3.08,8.57-3.07A13.56,13.56,0,0,1,361.73,56.76Zm-3.49,13.62a4.71,4.71,0,0,0,1.61-3.76,4.79,4.79,0,0,0-1.61-3.79,7.12,7.12,0,0,0-8.6.05,5,5,0,0,0-.05,7.45,6.52,6.52,0,0,0,4.46,1.44A6.18,6.18,0,0,0,358.24,70.38Z"/><path class="cls-1" d="M379.07,69.27a4.6,4.6,0,0,1,1.34,3.44,8.39,8.39,0,0,1-.25,2,23.31,23.31,0,0,1-1.09,3l-2.82,7.14h-4.91l2.18-7.88a4.13,4.13,0,0,1-2-1.61,4.76,4.76,0,0,1-.71-2.6,4.54,4.54,0,0,1,1.36-3.44A4.74,4.74,0,0,1,375.65,68,4.66,4.66,0,0,1,379.07,69.27Z"/><path class="cls-1" d="M407.7,60a9.37,9.37,0,0,1,2.43,6.57,10.41,10.41,0,0,1-1.58,5.57,11.13,11.13,0,0,1-4.83,4.09,18.62,18.62,0,0,1-8,1.53,27.39,27.39,0,0,1-7.2-1,18.58,18.58,0,0,1-6-2.75l3.12-6.15a15.29,15.29,0,0,0,4.58,2.31,17.81,17.81,0,0,0,5.33.82,8.39,8.39,0,0,0,4.75-1.17,3.72,3.72,0,0,0,1.74-3.29c0-2.84-2.17-4.26-6.49-4.26H391.9V57L399,48.93H384.27V42.49h24.28v5.2l-7.83,8.92A11.64,11.64,0,0,1,407.7,60Z"/><path class="cls-1" d="M440.55,42.49v5.2L427.67,77.17H419L431.38,49H419.89v5.65h-7.13V42.49Z"/><path class="cls-1" d="M470.94,62.31a8.54,8.54,0,0,1,1.36,4.8,9,9,0,0,1-1.83,5.62,11.68,11.68,0,0,1-5.15,3.72,20.87,20.87,0,0,1-7.68,1.31A20.63,20.63,0,0,1,450,76.45a11.55,11.55,0,0,1-5.11-3.72,9.1,9.1,0,0,1-1.8-5.62,8.54,8.54,0,0,1,1.36-4.8,9.85,9.85,0,0,1,3.89-3.37,8.55,8.55,0,0,1-3-3,8.18,8.18,0,0,1-1-4.14A8.5,8.5,0,0,1,446,46.55a10.79,10.79,0,0,1,4.7-3.44,18.52,18.52,0,0,1,6.94-1.21,18.83,18.83,0,0,1,7,1.21,10.77,10.77,0,0,1,4.73,3.44,8.5,8.5,0,0,1,1.69,5.25,8.18,8.18,0,0,1-1,4.14,8.46,8.46,0,0,1-3,3A9.8,9.8,0,0,1,470.94,62.31Zm-8.52,8.19a4.37,4.37,0,0,0,1.76-3.64,4.31,4.31,0,0,0-1.76-3.61,7.73,7.73,0,0,0-4.78-1.34,7.55,7.55,0,0,0-4.71,1.34,4.34,4.34,0,0,0-1.73,3.61,4.39,4.39,0,0,0,1.73,3.67,9,9,0,0,0,9.49,0ZM453.75,49a3.89,3.89,0,0,0-1.46,3.2,3.76,3.76,0,0,0,1.44,3.12,6.11,6.11,0,0,0,3.91,1.14,6.34,6.34,0,0,0,4-1.14,3.72,3.72,0,0,0,1.49-3.12A3.86,3.86,0,0,0,461.6,49a6.28,6.28,0,0,0-4-1.16A6.11,6.11,0,0,0,453.75,49Z"/><rect class="cls-1" x="45.37" y="44.15" width="161.7" height="161.7" transform="translate(125.36 -52.64) rotate(45)"/><g class="cls-2"><path class="cls-3" d="M126.21,227.71,23.51,125,126.21,22.29,228.92,125ZM26.68,125l99.53,99.53L225.75,125,126.21,25.47Zm99.53,89.66L91.94,180.38l26.21-26.21L92.74,128.75l-18,18L86.62,158.7l4.93-4.94-7-7,8.17-8.16,15.54,15.54L87,175.45l-30-30L77.51,125,57,104.52l30-30,21.28,21.28L92.74,111.37l-8.17-8.16,7-7L86.62,91.3,74.7,103.21l18,18,25.41-25.42L91.94,69.62l34.27-34.28,34.28,34.28L134.28,95.83l25.41,25.42,18-18L165.81,91.3l-4.93,4.94,7,7-8.17,8.16L144.15,95.83l21.28-21.28,30,30L174.92,125l20.48,20.48-30,30-21.28-21.27,15.54-15.54,8.17,8.16-7,7,4.93,4.94,11.92-11.91-18-18-25.41,25.42,26.21,26.21Zm-31.1-34.28,31.1,31.11,31.11-31.11-26.21-26.21,28.58-28.59,21.21,21.21-15.09,15.08-8.11-8.11,7-7-5-5-12.36,12.37,18.1,18.1,26.79-26.79L171.75,125l20.47-20.48L165.43,77.73l-18.1,18.1,12.36,12.37,5-5-7-7,8.11-8.12,15.09,15.09-21.21,21.21L131.11,95.83l26.21-26.21L126.21,38.51,95.11,69.62l26.21,26.21L92.74,124.42,71.53,103.21,86.62,88.13l8.11,8.1-7,7,5,5L105.1,95.83,87,77.73,60.21,104.52,80.68,125,60.21,145.48,87,172.27l18.1-18.1L92.74,141.8l-5,5,7,7-8.11,8.11L71.53,146.79l21.21-21.21,28.58,28.59Zm105.22-39.84L184.79,125l15.54-15.54L215.88,125ZM188,125l12.36,12.37L212.7,125l-12.37-12.37ZM52.1,140.54,36.56,125,52.1,109.46,67.64,125ZM39.73,125,52.1,137.37,64.46,125,52.1,112.63Z"/><path class="cls-3" d="M126.21,204.07l-24-24,24-24.05,24,24.05Zm-20.87-24,20.87,20.88L147.09,180l-20.88-20.87Z"/><path class="cls-3" d="M126.21,93.36l-24-24,24-24.05,24,24.05Zm-20.87-24,20.87,20.88,20.88-20.88L126.21,48.44Z"/></g><polygon class="cls-4" points="12.46 125 126.33 238.87 528.25 238.87 642.12 125 528.25 11.13 126.33 11.13 12.46 125"/><path class="cls-3" d="M170.09,131.4a9.45,9.45,0,0,0-4.82-6.94c-.4-.23-.31-.42-.2-.74a5.89,5.89,0,0,0-.76-5.55c-.12-.18-.36-.33-.28-.59a11.74,11.74,0,0,0,.16-3.24,18.45,18.45,0,0,0-.87-6.43c-.3-.9-.92-1.31-1.66-1.08a1.28,1.28,0,0,0-.82,1.79,19.51,19.51,0,0,1,.79,6.44c0,.58-.21.64-.69.63-2.47,0-4.93,0-7.39,0a6.71,6.71,0,0,1-6.41-5,14.31,14.31,0,0,1-.28-2,1.18,1.18,0,0,0-1.09-1,1.16,1.16,0,0,0-1.31.75,3.1,3.1,0,0,0-.17,1,6.72,6.72,0,0,1-6.39,6.25c-2.57.07-5.15,0-7.73,0-.48,0-.57-.18-.55-.6,0-.71,0-1.43,0-2.14a14.5,14.5,0,0,1,13.89-14.18c.48,0,.78,0,.91.6a1.1,1.1,0,0,0,1.16.83,1.09,1.09,0,0,0,1.18-.82c.11-.68.49-.63,1-.6a14.3,14.3,0,0,1,10.12,4.78c.68.73,1.44.81,2,.24s.51-1.26-.12-2a12.94,12.94,0,0,0-2.67-2.4c-3.48-2.27-7.12-3.89-11.43-2.89a.77.77,0,0,1-.39-.12,3.19,3.19,0,0,0-1.43-.23,17.15,17.15,0,0,0-15.95,11.7,23.58,23.58,0,0,0-.8,8.75,3.48,3.48,0,0,1-.87,2.53,6.65,6.65,0,0,0-2.34-4.28c-.27-.23-.22-.51-.22-.79,0-1.6,0-3.21,0-4.81a17.54,17.54,0,0,0-12-16.15,25,25,0,0,0-9.51-.72,14.73,14.73,0,0,0-11.59,6.24.63.63,0,0,1-.85.28c-1.06-.35-2.12-.69-3.18-1a1.3,1.3,0,0,0-1.86,1.32,57.68,57.68,0,0,0,1,14.18.72.72,0,0,1-.37.94,6.23,6.23,0,0,0-3,6.44,6.32,6.32,0,0,0,5,5.47.9.9,0,0,1,.78.72A16.61,16.61,0,0,0,95,136.6c.12.09.3.13.35.39-.78,0-1.55,0-2.31,0a8.09,8.09,0,0,0-8.23,8.2c0,3.61,0,7.22,0,10.83a1.78,1.78,0,0,0,.25,1.06c.56.83,3.71.82,4.26,0a1.29,1.29,0,0,0-1.21-2c-.62,0-.74-.2-.73-.78,0-3,0-6.07,0-9.1A5.42,5.42,0,0,1,92,139.66a36,36,0,0,1,4.29-.1c.39,0,.38.27.45.5,1.11,3.71,3.9,5.9,7.48,5.89a7.61,7.61,0,0,0,7.48-5.91c.11-.39.25-.49.62-.48,1,0,2,0,2.92,0a5.48,5.48,0,0,1,5.81,5.81c0,2.93,0,5.85,0,8.77,0,.72-.13.94-.91.94-8.42,0-16.85,0-25.27,0a3.69,3.69,0,0,0-.94.06,1.28,1.28,0,0,0-.67,2.1,1.7,1.7,0,0,0,1.43.42H121.9c1.4,0,1.8-.37,1.76-1.78-.14-4.61.38-9.23-.38-13.84a13.42,13.42,0,0,0,5.56-.73,9.32,9.32,0,0,0-1.27,5.45c0,3.06,0,6.13,0,9.19,0,1.31.39,1.71,1.67,1.71h32.83c1.23,0,1.64-.41,1.64-1.64,0-3,0-6,0-8.94a9.6,9.6,0,0,0-1.26-5.75c2.12.89,4.1.66,6.06.72a1.67,1.67,0,0,0,1.69-.91v-9.63C170.17,131.46,170.1,131.43,170.09,131.4Zm-40.5-12.34a3.33,3.33,0,0,1,2.2-.8c1.55,0,3.1-.05,4.64,0a9.7,9.7,0,0,0,9.14-4.51c.09.07.17.1.21.17a9.45,9.45,0,0,0,8.62,4.34c1.63,0,3.26,0,4.89,0a3.42,3.42,0,0,1,.32,6.83c-1.26.11-1.43.29-1.74,1.56a12.22,12.22,0,0,1-9.9,9.74A12.48,12.48,0,0,1,133.42,127c0-.17-.09-.33-.13-.5-.26-1.17-.45-1.34-1.64-1.44a3.53,3.53,0,0,1-3.15-2.39A3.43,3.43,0,0,1,129.59,119.06Zm28.68,19c-1.94-.57-3.75-.28-5.59-.49a19.67,19.67,0,0,0,3.92-3.09A11.87,11.87,0,0,0,158.27,138.06ZM148,143.93a4.21,4.21,0,0,1-4.7,0c-2-1.24-2.27-3.2-2.06-5.38a15.23,15.23,0,0,0,8.82,0C150.26,140.73,150,142.69,148,143.93Zm-9.4-6.37c-1.83.24-3.68-.1-5.59.53a11,11,0,0,0,1.57-3.65A19.26,19.26,0,0,0,138.58,137.56Zm-31.88,5.2a5.12,5.12,0,0,1-7.48-3.57c-.07-.38,0-.61.45-.47a16.88,16.88,0,0,0,9.7-.14A5,5,0,0,1,106.7,142.76ZM100,136.11c-5.3-1.64-8.49-5.36-9.71-10.77-.26-1.15-.48-1.37-1.64-1.44a4,4,0,0,1-3.88-4A3.94,3.94,0,0,1,88.65,116c1.13-.07,1.42-.33,1.65-1.46a13.72,13.72,0,0,1,2.14-5.12,11.32,11.32,0,0,0,7.38,6.19,13.21,13.21,0,0,0,3.49.39c5.47,0,10.93,0,16.4,0a3.93,3.93,0,0,1,1.34,7.64,5.35,5.35,0,0,1-1.25.26c-1.15.1-1.44.33-1.66,1.44a13.25,13.25,0,0,1-3.94,7.36C110.14,136.51,105.36,137.77,100,136.11Zm21-3.53c-.05,2.09,0,4.18,0,6.43a9.53,9.53,0,0,0-3.78-1.85,28.43,28.43,0,0,0-4.14-.19c.06-.3.34-.36.52-.49a16.55,16.55,0,0,0,6.75-9.41.93.93,0,0,1,.82-.79,6.52,6.52,0,0,0,4.52-3.73c.92,1.28.23,1.88-.83,2.64A9,9,0,0,0,121,132.58Zm4.2,6.85c-1.64,0-1.64,0-1.64-1.54v-2.72a20.26,20.26,0,0,1,.19-4,7,7,0,0,1,3.48-4.56.92.92,0,0,1,1.22,0,2.83,2.83,0,0,0,1.21.61c1,.14,1.31.76,1.61,1.64.51,1.51,1.17,2.92.82,4.61A7.08,7.08,0,0,1,125.24,139.43Zm35.16,15.63H145.54c-4.86,0-9.73,0-14.6,0-.62,0-.81-.11-.8-.78,0-2.83,0-5.67,0-8.5a5.29,5.29,0,0,1,5.49-5.53h.26a6.27,6.27,0,0,1,2.38.07c.72.32.41,1.38.66,2.1a7.1,7.1,0,0,0,7.36,4.73,6.86,6.86,0,0,0,6.2-5.82c.13-.87.38-1.21,1.29-1.1s2.12-.07,3.17.16a5.16,5.16,0,0,1,4.15,4.91c.06,3.07,0,6.13,0,9.19C161.17,155.19,160.79,155.06,160.4,155.06Zm6.91-15.61c-3.73.31-6.76-1.42-7.91-4.81a6.63,6.63,0,0,1,.08-4.66,4.56,4.56,0,0,1,2.83-3.15,2.05,2.05,0,0,1,2.27.21,7.06,7.06,0,0,1,3,5.76c0,.95,0,1.89,0,2.84s0,2.17,0,3.26C167.63,139.13,167.74,139.41,167.31,139.45Z"/><path class="cls-3" d="M107.66,126.05c-.72-.09-1.28.41-1.42,1.27-.2,1.28-.88,2-2,2s-1.79-.64-2-2c-.16-.88-.71-1.36-1.43-1.27a1.33,1.33,0,0,0-1.12,1.56,4.54,4.54,0,0,0,4.52,4.28,4.58,4.58,0,0,0,4.61-4.29A1.36,1.36,0,0,0,107.66,126.05Z"/><path class="cls-3" d="M113.07,121a14.24,14.24,0,0,0,0-1.46,1.22,1.22,0,0,0-1.3-1.2,1.2,1.2,0,0,0-1.24,1.26c0,.94,0,1.89,0,2.83a1.23,1.23,0,0,0,1.21,1.3,1.27,1.27,0,0,0,1.34-1.27c0-.48,0-1,0-1.46Z"/><path class="cls-3" d="M96.54,118.39a1.13,1.13,0,0,0-1.11,1.1c-.05.51,0,1,0,1.55h0c0,.51,0,1,0,1.54a1.17,1.17,0,0,0,1.14,1.18,1.12,1.12,0,0,0,1.33-1,11.11,11.11,0,0,0,0-3.5A1.12,1.12,0,0,0,96.54,118.39Z"/><path class="cls-3" d="M145.63,132.52a4.23,4.23,0,0,0,4.18-4c0-.89-.37-1.47-1.12-1.54s-1.26.35-1.43,1.26c-.22,1.09-.76,1.64-1.63,1.65s-1.5-.59-1.69-1.7a1.27,1.27,0,0,0-1.46-1.21,1.33,1.33,0,0,0-1.1,1.5A4.27,4.27,0,0,0,145.63,132.52Z"/><path class="cls-3" d="M137.2,122.52a.51.51,0,0,1,.36.58c0,.25,0,.51,0,.77a1.33,1.33,0,0,0,1.28,1.42,1.31,1.31,0,0,0,1.29-1.4c0-.4,0-.8,0-1.2s0-.74,0-1.11a1.3,1.3,0,0,0-1.45-1.49c-.28,0-.57,0-.85,0a1.21,1.21,0,0,0-1.33,1A1.17,1.17,0,0,0,137.2,122.52Z"/><path class="cls-3" d="M151.09,122.71h0c0,.43,0,.86,0,1.29a1.27,1.27,0,0,0,2.54.16,3.16,3.16,0,0,0,0-.69c0-.47,0-.84.55-1.08a1.07,1.07,0,0,0,.51-1.33,1.12,1.12,0,0,0-1.08-.94c-1.67-.08-2.72-.24-2.56,2.17C151.1,122.43,151.09,122.57,151.09,122.71Z"/></svg>