<svg id="Layer_1" data-name="Layer 1" xmlns="http://www.w3.org/2000/svg" viewBox="0 0 654 250"><defs><style>.cls-1{fill:none;stroke:#de1b81;stroke-miterlimit:10;stroke-width:2.61px;}.cls-2{fill:#de1b81;}.cls-3{opacity:0.15;}.cls-4{fill:#fff;}</style></defs><polygon class="cls-1" points="12.16 125 126.14 238.98 528.45 238.98 642.42 125 528.45 11.02 126.14 11.02 12.16 125"/><path class="cls-2" d="M352.24,111.16A7,7,0,0,1,350,110.1l1-2.23a7.11,7.11,0,0,0,1.95,1,7.47,7.47,0,0,0,2.27.36,3.6,3.6,0,0,0,1.86-.37,1.14,1.14,0,0,0,.6-1,1,1,0,0,0-.35-.76,2.7,2.7,0,0,0-.91-.48c-.38-.12-.88-.26-1.51-.4a21.06,21.06,0,0,1-2.4-.7,3.83,3.83,0,0,1-1.59-1.11,3,3,0,0,1-.67-2,3.6,3.6,0,0,1,.6-2,4,4,0,0,1,1.82-1.43,7.48,7.48,0,0,1,3-.53,10.09,10.09,0,0,1,2.39.29,7.46,7.46,0,0,1,2.05.84l-.91,2.25a7.19,7.19,0,0,0-3.55-1,3.32,3.32,0,0,0-1.84.41,1.23,1.23,0,0,0-.59,1.06,1,1,0,0,0,.69,1,9.67,9.67,0,0,0,2.09.63,20.82,20.82,0,0,1,2.39.7,4,4,0,0,1,1.6,1.09,3,3,0,0,1,.67,2,3.48,3.48,0,0,1-.62,2,4.16,4.16,0,0,1-1.83,1.44,7.56,7.56,0,0,1-3,.53A10.23,10.23,0,0,1,352.24,111.16Z"/><path class="cls-2" d="M365.09,101H361V98.57h11.14V101h-4.09v10.38h-3Z"/><path class="cls-2" d="M374.93,110.06a5.82,5.82,0,0,1-1.53-4.33V98.57h3v7.05q0,3.43,2.85,3.43a2.64,2.64,0,0,0,2.12-.83,3.85,3.85,0,0,0,.73-2.6V98.57H385v7.16a6,6,0,0,1-10.06,4.33Z"/><path class="cls-2" d="M387.91,98.57h5.81a8.16,8.16,0,0,1,3.68.79,5.93,5.93,0,0,1,2.48,2.24,6.79,6.79,0,0,1,0,6.72,5.86,5.86,0,0,1-2.48,2.24,8.17,8.17,0,0,1-3.68.8h-5.81Zm5.66,10.36a4.31,4.31,0,0,0,3.06-1.07,4.25,4.25,0,0,0,0-5.79,4.26,4.26,0,0,0-3.06-1.07h-2.7v7.93Z"/><path class="cls-2" d="M412.9,109v2.38H403V98.57h9.66v2.37h-6.72v2.78h5.94V106h-5.94v3Z"/><path class="cls-2" d="M427,98.57v12.79h-2.43l-6.38-7.77v7.77h-2.92V98.57h2.45l6.35,7.76V98.57Z"/><path class="cls-2" d="M432.67,101h-4.09V98.57h11.14V101h-4.09v10.38h-3Z"/><path class="cls-2" d="M442.49,111.16a7,7,0,0,1-2.28-1.06l1-2.23a7.11,7.11,0,0,0,1.95,1,7.47,7.47,0,0,0,2.27.36,3.6,3.6,0,0,0,1.86-.37,1.14,1.14,0,0,0,.6-1,1,1,0,0,0-.35-.76,2.7,2.7,0,0,0-.91-.48c-.38-.12-.88-.26-1.51-.4a20.23,20.23,0,0,1-2.39-.7,3.8,3.8,0,0,1-1.6-1.11,3,3,0,0,1-.67-2,3.6,3.6,0,0,1,.6-2,4,4,0,0,1,1.82-1.43,7.48,7.48,0,0,1,3-.53,10.09,10.09,0,0,1,2.39.29,7.46,7.46,0,0,1,2.05.84l-.91,2.25a7.19,7.19,0,0,0-3.55-1,3.32,3.32,0,0,0-1.84.41,1.23,1.23,0,0,0-.59,1.06,1,1,0,0,0,.69,1,9.67,9.67,0,0,0,2.09.63,20.82,20.82,0,0,1,2.39.7,4,4,0,0,1,1.6,1.09,3,3,0,0,1,.67,2,3.48,3.48,0,0,1-.62,2,4.16,4.16,0,0,1-1.83,1.44,7.56,7.56,0,0,1-3,.53A10.23,10.23,0,0,1,442.49,111.16Z"/><path class="cls-2" d="M340.53,62.55A9.72,9.72,0,0,1,344,70.39a10.87,10.87,0,0,1-1.58,5.78,11.1,11.1,0,0,1-4.84,4.16,18.39,18.39,0,0,1-8,1.56,27.46,27.46,0,0,1-7.21-1,18.83,18.83,0,0,1-6-2.75L319.53,72a15,15,0,0,0,4.56,2.3,17.32,17.32,0,0,0,5.31.82A8.36,8.36,0,0,0,334.16,74a3.81,3.81,0,0,0,1.73-3.32,3.72,3.72,0,0,0-1.81-3.37q-1.81-1.14-6.27-1.14h-8.88l1.79-19.54h21.17V53H327.41l-.54,6.6h2.82Q337,59.63,340.53,62.55Z"/><path class="cls-2" d="M369.79,62.55a9.72,9.72,0,0,1,3.49,7.84,10.88,10.88,0,0,1-1.59,5.78,11.07,11.07,0,0,1-4.83,4.16,18.45,18.45,0,0,1-8,1.56,27.41,27.41,0,0,1-7.21-1,18.64,18.64,0,0,1-6-2.75L348.78,72a15.22,15.22,0,0,0,4.57,2.3,17.21,17.21,0,0,0,5.3.82A8.32,8.32,0,0,0,363.41,74a3.8,3.8,0,0,0,1.74-3.32,3.74,3.74,0,0,0-1.81-3.37q-1.81-1.14-6.28-1.14h-8.87L350,46.59h21.18V53H356.67l-.55,6.6H359Q366.29,59.63,369.79,62.55Z"/><path class="cls-2" d="M384.59,73.39a4.64,4.64,0,0,1,1.34,3.45,8.39,8.39,0,0,1-.25,2,23.88,23.88,0,0,1-1.09,3l-2.83,7.14h-4.91L379,81.05a4.13,4.13,0,0,1-2-1.61,4.68,4.68,0,0,1-.72-2.6,4.59,4.59,0,0,1,1.37-3.45,4.75,4.75,0,0,1,3.45-1.31A4.68,4.68,0,0,1,384.59,73.39Z"/><path class="cls-2" d="M411.66,60.87A10.61,10.61,0,0,1,416,64.66a10.3,10.3,0,0,1,1.58,5.68,10.85,10.85,0,0,1-1.73,6.1,11.35,11.35,0,0,1-4.74,4,15.48,15.48,0,0,1-6.67,1.41q-7.29,0-11.4-4.46T388.9,64.69a21.33,21.33,0,0,1,2.23-10.12,15.21,15.21,0,0,1,6.23-6.4A19,19,0,0,1,406.6,46a22.62,22.62,0,0,1,5.33.62,14.37,14.37,0,0,1,4.34,1.76l-3,5.9a11.46,11.46,0,0,0-6.5-1.73,9.45,9.45,0,0,0-7,2.58c-1.72,1.72-2.64,4.21-2.78,7.48,2.05-2,4.91-3.07,8.58-3.07A13.57,13.57,0,0,1,411.66,60.87Zm-3.49,13.64a4.75,4.75,0,0,0,1.61-3.77,4.82,4.82,0,0,0-1.61-3.8,6.3,6.3,0,0,0-4.29-1.41A6.38,6.38,0,0,0,399.56,67a5,5,0,0,0-.05,7.47A6.52,6.52,0,0,0,404,75.89,6.24,6.24,0,0,0,408.17,74.51Z"/><path class="cls-2" d="M448.18,66.42a8.6,8.6,0,0,1,1.37,4.81,9,9,0,0,1-1.84,5.63,11.68,11.68,0,0,1-5.15,3.72,20.76,20.76,0,0,1-7.69,1.31,20.52,20.52,0,0,1-7.66-1.31,11.55,11.55,0,0,1-5.11-3.72,9.07,9.07,0,0,1-1.81-5.63,8.59,8.59,0,0,1,1.36-4.81,9.88,9.88,0,0,1,3.9-3.37,8.47,8.47,0,0,1-3-3,8.21,8.21,0,0,1-1-4.14,8.45,8.45,0,0,1,1.69-5.26,10.76,10.76,0,0,1,4.71-3.44A18.48,18.48,0,0,1,434.87,46a18.91,18.91,0,0,1,7,1.22,10.77,10.77,0,0,1,4.73,3.44,8.51,8.51,0,0,1,1.69,5.26,8.21,8.21,0,0,1-1,4.14,8.38,8.38,0,0,1-3,3A9.8,9.8,0,0,1,448.18,66.42Zm-8.53,8.21A4.35,4.35,0,0,0,441.41,71a4.29,4.29,0,0,0-1.76-3.62A7.65,7.65,0,0,0,434.87,66a7.47,7.47,0,0,0-4.71,1.34,4.68,4.68,0,0,0,0,7.28A7.47,7.47,0,0,0,434.87,76,7.59,7.59,0,0,0,439.65,74.63ZM431,53.06a3.86,3.86,0,0,0-1.47,3.2A3.76,3.76,0,0,0,431,59.38a6.16,6.16,0,0,0,3.92,1.14,6.39,6.39,0,0,0,4-1.14,3.72,3.72,0,0,0,1.48-3.12,3.84,3.84,0,0,0-1.48-3.2,6.27,6.27,0,0,0-4-1.17A6,6,0,0,0,431,53.06Z"/><path class="cls-2" d="M460.41,79.76a14.37,14.37,0,0,1-5.29-6.17,22.48,22.48,0,0,1-1.9-9.65,22.43,22.43,0,0,1,1.9-9.64,14.4,14.4,0,0,1,5.29-6.18,14.93,14.93,0,0,1,15.37,0,14.31,14.31,0,0,1,5.28,6.18A22.43,22.43,0,0,1,483,63.94a22.48,22.48,0,0,1-1.91,9.65,14.28,14.28,0,0,1-5.28,6.17,14.93,14.93,0,0,1-15.37,0Zm12.67-7.39c1.2-1.81,1.81-4.62,1.81-8.43s-.61-6.61-1.81-8.43a5.88,5.88,0,0,0-9.92,0q-1.82,2.73-1.81,8.43t1.81,8.43a5.87,5.87,0,0,0,9.92,0Z"/><path d="M300.4,142.36l-.83-.05a1.82,1.82,0,0,0-1.09.31,1.9,1.9,0,0,0-.68.86v6.4h-1.64v-9h1.46l.16,1.31a3.07,3.07,0,0,1,.94-1.09,2.19,2.19,0,0,1,1.29-.39,2.07,2.07,0,0,1,.35,0l.27.06Z"/><path d="M305.66,150.06a3.8,3.8,0,0,1-3-1.24,4.7,4.7,0,0,1-1.09-3.25v-.36a4.65,4.65,0,0,1,1.12-3.19,3.47,3.47,0,0,1,2.72-1.27,3.28,3.28,0,0,1,2.7,1.12,4.68,4.68,0,0,1,.89,3v.86h-5.73l0,0a3.75,3.75,0,0,0,.59,2.19,2.1,2.1,0,0,0,1.83.84,4,4,0,0,0,1.45-.24,3,3,0,0,0,1.07-.65l.64,1.06a4,4,0,0,1-1.27.79A5,5,0,0,1,305.66,150.06Zm-.26-8a1.76,1.76,0,0,0-1.41.66,3.12,3.12,0,0,0-.69,1.68l0,0h4v-.13a2.59,2.59,0,0,0-.48-1.61A1.72,1.72,0,0,0,305.4,142Z"/><path d="M314.39,148.78a1.91,1.91,0,0,0,1.31-.5,1.58,1.58,0,0,0,.57-1.23h1.47l0,0a2.58,2.58,0,0,1-1,2.06,3.79,3.79,0,0,1-5.3-.39,5,5,0,0,1-1-3.2v-.34a5,5,0,0,1,1-3.19,3.53,3.53,0,0,1,2.92-1.29,3.37,3.37,0,0,1,2.45.93,3,3,0,0,1,.93,2.28l0,0h-1.48a2,2,0,0,0-.54-1.4,1.75,1.75,0,0,0-1.34-.57,1.9,1.9,0,0,0-1.76.93,4.42,4.42,0,0,0-.55,2.26v.34a4.38,4.38,0,0,0,.55,2.28A1.87,1.87,0,0,0,314.39,148.78Z"/><path d="M323.42,150.06a3.83,3.83,0,0,1-3-1.24,4.74,4.74,0,0,1-1.08-3.25v-.36a4.6,4.6,0,0,1,1.12-3.19,3.47,3.47,0,0,1,2.72-1.27,3.28,3.28,0,0,1,2.7,1.12,4.68,4.68,0,0,1,.89,3v.86H321l0,0a3.75,3.75,0,0,0,.59,2.19,2.1,2.1,0,0,0,1.83.84,4,4,0,0,0,1.45-.24,3,3,0,0,0,1.07-.65l.64,1.06a4,4,0,0,1-1.27.79A5,5,0,0,1,323.42,150.06Zm-.26-8a1.76,1.76,0,0,0-1.41.66,3.12,3.12,0,0,0-.69,1.68l0,0h4v-.13a2.59,2.59,0,0,0-.48-1.61A1.72,1.72,0,0,0,323.16,142Z"/><path d="M330.35,138.62h-1.63V137h1.63Zm0,11.26h-1.63v-9h1.63Z"/><path d="M335.85,147.24l.14.63H336l.16-.63,2.06-6.32h1.66l-3.29,9h-1.24l-3.33-9h1.67Z"/><path d="M345,150.06a3.81,3.81,0,0,1-3-1.24,4.74,4.74,0,0,1-1.08-3.25v-.36A4.6,4.6,0,0,1,342,142a3.47,3.47,0,0,1,2.72-1.27,3.26,3.26,0,0,1,2.69,1.12,4.62,4.62,0,0,1,.9,3v.86H342.6l0,0a3.68,3.68,0,0,0,.59,2.19,2.09,2.09,0,0,0,1.82.84,4.06,4.06,0,0,0,1.46-.24,3.14,3.14,0,0,0,1.07-.65l.64,1.06a4,4,0,0,1-1.27.79A5.1,5.1,0,0,1,345,150.06Zm-.25-8a1.76,1.76,0,0,0-1.41.66,3,3,0,0,0-.69,1.68l0,0h4v-.13a2.59,2.59,0,0,0-.48-1.61A1.72,1.72,0,0,0,344.74,142Z"/><path d="M349.79,145.57a6,6,0,0,1,.92-3.49,3,3,0,0,1,2.59-1.33,3.27,3.27,0,0,1,1.4.29,3,3,0,0,1,1,.85V137h1.63v12.92h-1.25l-.25-1.13a2.86,2.86,0,0,1-1.08,1,3.16,3.16,0,0,1-1.5.34,3.08,3.08,0,0,1-2.57-1.19,5,5,0,0,1-.93-3.13Zm1.63.17a3.77,3.77,0,0,0,.56,2.17,1.92,1.92,0,0,0,1.72.82,2.19,2.19,0,0,0,1.23-.33,2.47,2.47,0,0,0,.81-.93v-4.18a2.4,2.4,0,0,0-.82-.88,2.11,2.11,0,0,0-1.2-.33,1.86,1.86,0,0,0-1.74,1,5,5,0,0,0-.56,2.52Z"/><path d="M366.29,138.76v2.16H368v1.21h-1.7v5.44a1.24,1.24,0,0,0,.26.89,1,1,0,0,0,.69.25l.32,0,.29-.08.22,1.12a1.36,1.36,0,0,1-.54.24,2.82,2.82,0,0,1-.7.1,2.11,2.11,0,0,1-1.58-.6,2.6,2.6,0,0,1-.59-1.89v-5.44h-1.43v-1.21h1.43v-2.16Z"/><path d="M374,142.36l-.84-.05a1.84,1.84,0,0,0-1.09.31,2,2,0,0,0-.68.86v6.4h-1.63v-9h1.45l.16,1.31a3.17,3.17,0,0,1,.94-1.09,2.19,2.19,0,0,1,1.29-.39,2,2,0,0,1,.35,0l.27.06Z"/><path d="M381.18,149.88c-.05-.27-.09-.51-.12-.71a4.48,4.48,0,0,1-.06-.63,3.76,3.76,0,0,1-1.19,1.08,3,3,0,0,1-1.57.44,2.93,2.93,0,0,1-2.14-.72,2.64,2.64,0,0,1-.73-2,2.31,2.31,0,0,1,1-2,4.79,4.79,0,0,1,2.82-.73H381v-.89a1.63,1.63,0,0,0-.48-1.24,1.87,1.87,0,0,0-1.36-.46,1.92,1.92,0,0,0-1.28.4,1.17,1.17,0,0,0-.49.95h-1.55l0-.05a2.16,2.16,0,0,1,.92-1.78,3.76,3.76,0,0,1,2.51-.82,3.7,3.7,0,0,1,2.46.78,2.75,2.75,0,0,1,.92,2.23v4.32a9,9,0,0,0,.05.92,5.31,5.31,0,0,0,.19.88Zm-2.7-1.19a2.82,2.82,0,0,0,1.59-.46,2.11,2.11,0,0,0,.93-1v-1.46h-1.83a2.39,2.39,0,0,0-1.58.5,1.5,1.5,0,0,0-.59,1.17,1.22,1.22,0,0,0,.37.94A1.59,1.59,0,0,0,378.48,148.69Z"/><path d="M386.77,138.62h-1.63V137h1.63Zm0,11.26h-1.63v-9h1.63Z"/><path d="M390.74,140.92l.11,1.33a3.27,3.27,0,0,1,1.12-1.1,3.31,3.31,0,0,1,3.79.45,3.73,3.73,0,0,1,.79,2.62v5.66h-1.63v-5.62a2.43,2.43,0,0,0-.47-1.68,1.84,1.84,0,0,0-1.43-.5,2.55,2.55,0,0,0-1.28.3,2.19,2.19,0,0,0-.83.85v6.65h-1.63v-9Z"/><path d="M400.68,138.62h-1.63V137h1.63Zm0,11.26h-1.63v-9h1.63Z"/><path d="M404.65,140.92l.12,1.33a3.27,3.27,0,0,1,1.12-1.1,3.29,3.29,0,0,1,3.78.45,3.73,3.73,0,0,1,.8,2.62v5.66h-1.64v-5.62a2.43,2.43,0,0,0-.46-1.68,1.86,1.86,0,0,0-1.43-.5,2.53,2.53,0,0,0-1.28.3,2.28,2.28,0,0,0-.84.85v6.65h-1.63v-9Z"/><path d="M412.55,145.57a6,6,0,0,1,.92-3.49,3,3,0,0,1,2.58-1.33,3.13,3.13,0,0,1,1.5.35,3,3,0,0,1,1.08,1l.2-1.17h1.3v9a3.42,3.42,0,0,1-1,2.65,4.14,4.14,0,0,1-2.89.92,6,6,0,0,1-1.4-.18,5.67,5.67,0,0,1-1.32-.48l.25-1.27a4.6,4.6,0,0,0,1.14.4,5.4,5.4,0,0,0,1.31.16,2.34,2.34,0,0,0,1.74-.55,2.25,2.25,0,0,0,.54-1.65v-1a2.89,2.89,0,0,1-1.05.86,3.33,3.33,0,0,1-1.42.29,3.06,3.06,0,0,1-2.56-1.19,5,5,0,0,1-.92-3.13Zm1.63.17a3.82,3.82,0,0,0,.55,2.17,1.92,1.92,0,0,0,1.72.82,2.17,2.17,0,0,0,1.23-.33,2.55,2.55,0,0,0,.82-1v-4.13a2.58,2.58,0,0,0-.82-.91,2.18,2.18,0,0,0-1.22-.33,1.84,1.84,0,0,0-1.72,1,4.9,4.9,0,0,0-.56,2.52Z"/><path d="M429,138.76v2.16h1.7v1.21H429v5.44a1.24,1.24,0,0,0,.26.89,1,1,0,0,0,.7.25l.31,0,.29-.08.22,1.12a1.38,1.38,0,0,1-.53.24,3,3,0,0,1-.71.1,2.11,2.11,0,0,1-1.58-.6,2.64,2.64,0,0,1-.59-1.89v-5.44h-1.42v-1.21h1.42v-2.16Z"/><path d="M432,145.32A5,5,0,0,1,433.1,142a4,4,0,0,1,5.87,0,4.91,4.91,0,0,1,1.08,3.28v.18a4.94,4.94,0,0,1-1.07,3.28,4,4,0,0,1-5.87,0A4.93,4.93,0,0,1,432,145.5Zm1.63.18a4.25,4.25,0,0,0,.6,2.35,2.17,2.17,0,0,0,3.56,0,4.25,4.25,0,0,0,.6-2.35v-.18a4.21,4.21,0,0,0-.61-2.35,2.16,2.16,0,0,0-3.55,0,4.29,4.29,0,0,0-.6,2.35Z"/><path d="M453.92,145.74a5,5,0,0,1-.93,3.13,3.09,3.09,0,0,1-2.56,1.19,3.21,3.21,0,0,1-1.56-.36,2.85,2.85,0,0,1-1.09-1l-.26,1.22h-1.25V137h1.63v5a2.78,2.78,0,0,1,1.05-.91,3.18,3.18,0,0,1,1.46-.32,3,3,0,0,1,2.58,1.33,6,6,0,0,1,.93,3.49Zm-1.63-.17a5,5,0,0,0-.57-2.52,1.86,1.86,0,0,0-1.72-1,2.13,2.13,0,0,0-1.28.37,2.51,2.51,0,0,0-.82,1v3.88a2.7,2.7,0,0,0,.82,1,2.12,2.12,0,0,0,1.29.37,1.94,1.94,0,0,0,1.72-.82,3.82,3.82,0,0,0,.56-2.17Z"/><path d="M459.62,150.06a3.8,3.8,0,0,1-3-1.24,4.74,4.74,0,0,1-1.08-3.25v-.36a4.64,4.64,0,0,1,1.11-3.19,3.47,3.47,0,0,1,2.72-1.27,3.28,3.28,0,0,1,2.7,1.12,4.62,4.62,0,0,1,.9,3v.86h-5.73l0,0a3.68,3.68,0,0,0,.6,2.19,2.08,2.08,0,0,0,1.82.84,4,4,0,0,0,1.45-.24,3.09,3.09,0,0,0,1.08-.65l.63,1.06a4.06,4.06,0,0,1-1.26.79A5.14,5.14,0,0,1,459.62,150.06Zm-.26-8a1.76,1.76,0,0,0-1.41.66,3.11,3.11,0,0,0-.68,1.68v0h4.05v-.13a2.59,2.59,0,0,0-.48-1.61A1.75,1.75,0,0,0,459.36,142Z"/><path d="M468.35,148.78a2,2,0,0,0,1.32-.5,1.6,1.6,0,0,0,.56-1.23h1.47l0,0a2.6,2.6,0,0,1-1,2.06,3.8,3.8,0,0,1-5.31-.39,5,5,0,0,1-1-3.2v-.34a4.93,4.93,0,0,1,1-3.19,3.52,3.52,0,0,1,2.91-1.29,3.39,3.39,0,0,1,2.46.93,3,3,0,0,1,.92,2.28l0,0h-1.48a2,2,0,0,0-.53-1.4,1.78,1.78,0,0,0-1.35-.57,1.89,1.89,0,0,0-1.75.93,4.33,4.33,0,0,0-.55,2.26v.34a4.47,4.47,0,0,0,.54,2.28A1.88,1.88,0,0,0,468.35,148.78Z"/><path d="M473.29,145.32a5,5,0,0,1,1.07-3.28,4,4,0,0,1,5.87,0,4.91,4.91,0,0,1,1.08,3.28v.18a4.94,4.94,0,0,1-1.07,3.28,4,4,0,0,1-5.87,0,4.93,4.93,0,0,1-1.08-3.28Zm1.63.18a4.25,4.25,0,0,0,.6,2.35,2.17,2.17,0,0,0,3.56,0,4.25,4.25,0,0,0,.6-2.35v-.18a4.21,4.21,0,0,0-.61-2.35,2.16,2.16,0,0,0-3.55,0,4.29,4.29,0,0,0-.6,2.35Z"/><path d="M484.77,140.92l.11,1.18a3,3,0,0,1,1.12-1,3.28,3.28,0,0,1,1.57-.36,2.77,2.77,0,0,1,1.54.42,2.54,2.54,0,0,1,1,1.24,3.35,3.35,0,0,1,1.12-1.21,2.9,2.9,0,0,1,1.62-.45,2.7,2.7,0,0,1,2.16.94,4.3,4.3,0,0,1,.8,2.83v5.36h-1.63v-5.37a3,3,0,0,0-.46-1.88,1.65,1.65,0,0,0-1.36-.55,1.71,1.71,0,0,0-1.35.58,2.49,2.49,0,0,0-.61,1.47v5.75h-1.64v-5.37a3,3,0,0,0-.47-1.85,1.61,1.61,0,0,0-1.34-.58,2.2,2.2,0,0,0-1.23.31,2,2,0,0,0-.74.86v6.63h-1.63v-9Z"/><path d="M501.85,150.06a3.8,3.8,0,0,1-3-1.24,4.74,4.74,0,0,1-1.08-3.25v-.36a4.64,4.64,0,0,1,1.11-3.19,3.47,3.47,0,0,1,2.72-1.27,3.28,3.28,0,0,1,2.7,1.12,4.62,4.62,0,0,1,.9,3v.86h-5.73l0,0a3.68,3.68,0,0,0,.6,2.19,2.07,2.07,0,0,0,1.82.84,4,4,0,0,0,1.45-.24,3.09,3.09,0,0,0,1.08-.65L505,149a4.06,4.06,0,0,1-1.26.79A5.14,5.14,0,0,1,501.85,150.06Zm-.26-8a1.76,1.76,0,0,0-1.41.66,3.11,3.11,0,0,0-.68,1.68v0h4v-.13a2.59,2.59,0,0,0-.48-1.61A1.72,1.72,0,0,0,501.59,142Z"/><path d="M327.69,161.12l.84-2.94h.8v4.46h-1.64Zm2.72,0,.84-2.94h.8v4.46h-1.63Z"/><path d="M339.48,170.24c-.05-.27-.1-.51-.13-.72a4.21,4.21,0,0,1-.05-.62,3.76,3.76,0,0,1-1.19,1.08,3,3,0,0,1-1.58.43,3,3,0,0,1-2.13-.71,2.64,2.64,0,0,1-.73-2,2.32,2.32,0,0,1,1-2,4.87,4.87,0,0,1,2.82-.72h1.77v-.89a1.66,1.66,0,0,0-.48-1.25,1.91,1.91,0,0,0-1.36-.46,2,2,0,0,0-1.28.4,1.2,1.2,0,0,0-.49,1h-1.55l0,0a2.15,2.15,0,0,1,.92-1.79,3.78,3.78,0,0,1,2.51-.81,3.67,3.67,0,0,1,2.45.78,2.73,2.73,0,0,1,.93,2.23v4.31c0,.32,0,.63.05.93a4.44,4.44,0,0,0,.18.88Zm-2.71-1.19a2.93,2.93,0,0,0,1.6-.46,2.11,2.11,0,0,0,.93-1v-1.46h-1.83a2.34,2.34,0,0,0-1.58.5,1.49,1.49,0,0,0-.59,1.16,1.23,1.23,0,0,0,.37.95A1.58,1.58,0,0,0,336.77,169.05Z"/><path d="M343,165.92a6,6,0,0,1,.92-3.48,3,3,0,0,1,2.58-1.33,3.25,3.25,0,0,1,1.5.34,3.11,3.11,0,0,1,1.09,1l.2-1.16h1.3v9a3.46,3.46,0,0,1-1,2.65,4.17,4.17,0,0,1-2.9.92,6,6,0,0,1-1.39-.18,5.67,5.67,0,0,1-1.32-.48l.25-1.27a4.79,4.79,0,0,0,1.13.4,6.07,6.07,0,0,0,1.32.15,2.38,2.38,0,0,0,1.73-.54,2.25,2.25,0,0,0,.55-1.65v-1a2.87,2.87,0,0,1-1.06.85,3.15,3.15,0,0,1-1.41.29,3.05,3.05,0,0,1-2.57-1.19,5,5,0,0,1-.92-3.12Zm1.63.18a3.82,3.82,0,0,0,.56,2.17,1.94,1.94,0,0,0,1.71.82,2.15,2.15,0,0,0,1.24-.34,2.57,2.57,0,0,0,.82-.95v-4.12a2.67,2.67,0,0,0-.82-.91,2.2,2.2,0,0,0-1.22-.33,1.85,1.85,0,0,0-1.73,1,5,5,0,0,0-.56,2.51Z"/><path d="M356.65,170.41a3.8,3.8,0,0,1-3-1.23,4.76,4.76,0,0,1-1.08-3.25v-.36a4.64,4.64,0,0,1,1.12-3.2,3.48,3.48,0,0,1,2.72-1.26,3.24,3.24,0,0,1,2.69,1.12,4.59,4.59,0,0,1,.9,3v.86h-5.73l0,.05a3.68,3.68,0,0,0,.6,2.19,2.09,2.09,0,0,0,1.82.84,4.1,4.1,0,0,0,1.46-.24,3.3,3.3,0,0,0,1.07-.65l.64,1.06a3.92,3.92,0,0,1-1.27.78A4.94,4.94,0,0,1,356.65,170.41Zm-.25-8a1.8,1.8,0,0,0-1.42.66,3.11,3.11,0,0,0-.68,1.69l0,0h4v-.13a2.64,2.64,0,0,0-.48-1.62A1.76,1.76,0,0,0,356.4,162.39Z"/><path d="M363.28,161.28l.12,1.33a3.3,3.3,0,0,1,1.12-1.11,3,3,0,0,1,1.53-.39,2.92,2.92,0,0,1,2.25.85,3.73,3.73,0,0,1,.79,2.62v5.66h-1.63v-5.63a2.39,2.39,0,0,0-.47-1.68,1.85,1.85,0,0,0-1.42-.49,2.53,2.53,0,0,0-1.28.3,2.21,2.21,0,0,0-.84.85v6.65h-1.63v-9Z"/><path d="M373.73,159.11v2.17h1.7v1.21h-1.7v5.44a1.22,1.22,0,0,0,.26.88.94.94,0,0,0,.7.26,1.25,1.25,0,0,0,.31,0l.29-.07.22,1.11a1.51,1.51,0,0,1-.54.25,2.8,2.8,0,0,1-.7.09,2.11,2.11,0,0,1-1.58-.6,2.61,2.61,0,0,1-.59-1.88v-5.44h-1.42v-1.21h1.42v-2.17Z"/><path d="M382.39,167.83A1.1,1.1,0,0,0,382,167a4,4,0,0,0-1.55-.6,6.43,6.43,0,0,1-2.44-.95,1.93,1.93,0,0,1-.84-1.64,2.36,2.36,0,0,1,.93-1.87,4.1,4.1,0,0,1,4.88.05,2.37,2.37,0,0,1,.9,1.93v0h-1.56a1.39,1.39,0,0,0-.51-1,1.81,1.81,0,0,0-1.29-.48,1.88,1.88,0,0,0-1.29.39,1.23,1.23,0,0,0-.42.93,1,1,0,0,0,.37.82,3.9,3.9,0,0,0,1.52.53,6.31,6.31,0,0,1,2.5,1,2,2,0,0,1,.85,1.66,2.36,2.36,0,0,1-1,1.95,4,4,0,0,1-2.53.75,4,4,0,0,1-2.7-.87,2.47,2.47,0,0,1-.93-2v0h1.56a1.52,1.52,0,0,0,.65,1.28,2.53,2.53,0,0,0,1.41.4,2.3,2.3,0,0,0,1.37-.37A1.13,1.13,0,0,0,382.39,167.83Z"/><path d="M389.89,165.68A4.92,4.92,0,0,1,391,162.4a4,4,0,0,1,5.87,0,4.94,4.94,0,0,1,1.08,3.29v.18a5,5,0,0,1-1.07,3.28,4,4,0,0,1-5.87,0,4.88,4.88,0,0,1-1.08-3.27Zm1.63.18a4.25,4.25,0,0,0,.6,2.35,2,2,0,0,0,1.78.93,2,2,0,0,0,1.78-.93,4.25,4.25,0,0,0,.6-2.35v-.18a4.19,4.19,0,0,0-.61-2.35,2.15,2.15,0,0,0-3.55,0,4.27,4.27,0,0,0-.6,2.35Z"/><path d="M400.59,170.24v-7.75h-1.4v-1.21h1.4v-1.14a3.07,3.07,0,0,1,.75-2.21,2.72,2.72,0,0,1,2.09-.79,3.66,3.66,0,0,1,.57.05c.19,0,.4.07.63.13l-.2,1.24-.36-.06a3.17,3.17,0,0,0-.44,0,1.29,1.29,0,0,0-1.06.42,2,2,0,0,0-.35,1.24v1.14h1.62v1.21h-1.62v7.75Z"/><path d="M413.27,169.14a2,2,0,0,0,1.32-.5,1.62,1.62,0,0,0,.56-1.23h1.47l0,.05a2.57,2.57,0,0,1-1,2,3.81,3.81,0,0,1-5.31-.38,5,5,0,0,1-1-3.2v-.35a4.92,4.92,0,0,1,1-3.18,3.52,3.52,0,0,1,2.91-1.29,3.39,3.39,0,0,1,2.46.93,3,3,0,0,1,.92,2.28l0,.05h-1.48a2,2,0,0,0-.53-1.4,1.79,1.79,0,0,0-1.35-.58,1.89,1.89,0,0,0-1.75.94,4.31,4.31,0,0,0-.55,2.25v.35a4.47,4.47,0,0,0,.54,2.28A1.88,1.88,0,0,0,413.27,169.14Z"/><path d="M420.22,162.48a3.33,3.33,0,0,1,1.14-1,3.13,3.13,0,0,1,1.49-.36,2.93,2.93,0,0,1,2.24.86,3.82,3.82,0,0,1,.79,2.65v5.62h-1.63v-5.63a2.43,2.43,0,0,0-.47-1.64,1.79,1.79,0,0,0-1.42-.53,2.67,2.67,0,0,0-1.27.28,2.31,2.31,0,0,0-.87.8v6.72h-1.63V157.32h1.63Z"/><path d="M433.74,170.24c-.06-.27-.1-.51-.13-.72a4.21,4.21,0,0,1-.05-.62,3.87,3.87,0,0,1-1.19,1.08,3.05,3.05,0,0,1-1.58.43,2.94,2.94,0,0,1-2.13-.71,2.65,2.65,0,0,1-.74-2,2.34,2.34,0,0,1,1-2,4.91,4.91,0,0,1,2.82-.72h1.78v-.89a1.66,1.66,0,0,0-.48-1.25,1.94,1.94,0,0,0-1.36-.46,2,2,0,0,0-1.29.4,1.23,1.23,0,0,0-.49,1h-1.55v0a2.13,2.13,0,0,1,.91-1.79,3.81,3.81,0,0,1,2.52-.81,3.69,3.69,0,0,1,2.45.78,2.73,2.73,0,0,1,.93,2.23v4.31a7.06,7.06,0,0,0,.05.93,4.44,4.44,0,0,0,.18.88ZM431,169.05a3,3,0,0,0,1.6-.46,2.22,2.22,0,0,0,.93-1v-1.46h-1.84a2.31,2.31,0,0,0-1.57.5,1.47,1.47,0,0,0-.6,1.16,1.23,1.23,0,0,0,.38.95A1.56,1.56,0,0,0,431,169.05Z"/><path d="M439,161.28l.12,1.33a3.39,3.39,0,0,1,1.12-1.11,3,3,0,0,1,1.54-.39A2.9,2.9,0,0,1,444,162a3.73,3.73,0,0,1,.8,2.62v5.66H443.2v-5.63a2.44,2.44,0,0,0-.47-1.68,1.88,1.88,0,0,0-1.43-.49,2.55,2.55,0,0,0-1.28.3,2.12,2.12,0,0,0-.83.85v6.65h-1.63v-9Z"/><path d="M446.91,165.92a6,6,0,0,1,.92-3.48,3,3,0,0,1,2.58-1.33,3.25,3.25,0,0,1,1.5.34,3.11,3.11,0,0,1,1.09,1l.2-1.16h1.3v9a3.43,3.43,0,0,1-1,2.65,4.14,4.14,0,0,1-2.89.92,6,6,0,0,1-1.39-.18,5.67,5.67,0,0,1-1.32-.48l.24-1.27a5.05,5.05,0,0,0,1.14.4,6.07,6.07,0,0,0,1.32.15,2.38,2.38,0,0,0,1.73-.54,2.25,2.25,0,0,0,.54-1.65v-1a2.77,2.77,0,0,1-1.05.85,3.17,3.17,0,0,1-1.41.29,3.05,3.05,0,0,1-2.57-1.19,5,5,0,0,1-.92-3.12Zm1.63.18a3.82,3.82,0,0,0,.56,2.17,1.94,1.94,0,0,0,1.71.82,2.1,2.1,0,0,0,1.23-.34,2.4,2.4,0,0,0,.82-.95v-4.12a2.58,2.58,0,0,0-.82-.91,2.15,2.15,0,0,0-1.21-.33,1.85,1.85,0,0,0-1.73,1,5,5,0,0,0-.56,2.51Z"/><path d="M460.55,170.41a3.79,3.79,0,0,1-3-1.23,4.76,4.76,0,0,1-1.08-3.25v-.36a4.69,4.69,0,0,1,1.11-3.2,3.51,3.51,0,0,1,2.72-1.26,3.25,3.25,0,0,1,2.7,1.12,4.59,4.59,0,0,1,.9,3v.86h-5.73l0,.05a3.68,3.68,0,0,0,.6,2.19,2.08,2.08,0,0,0,1.82.84,4,4,0,0,0,1.45-.24,3.24,3.24,0,0,0,1.08-.65l.64,1.06a3.92,3.92,0,0,1-1.27.78A4.94,4.94,0,0,1,460.55,170.41Zm-.26-8a1.78,1.78,0,0,0-1.41.66,3.11,3.11,0,0,0-.68,1.69v0h4.05v-.13a2.64,2.64,0,0,0-.48-1.62A1.76,1.76,0,0,0,460.29,162.39Z"/><path d="M467.1,159.78l-.84,2.86h-.8v-4.46h1.64Zm2.78,0-.84,2.86h-.8v-4.46h1.63Z"/><path d="M473.4,169.84l-1.24,2.54h-1l.58-2.62v-1.35h1.63Z"/><path d="M317.72,179.47v2.16h1.69v1.21h-1.69v5.45a1.17,1.17,0,0,0,.26.88.94.94,0,0,0,.69.26,1.2,1.2,0,0,0,.31,0,1.3,1.3,0,0,0,.29-.08l.23,1.12a1.51,1.51,0,0,1-.54.25,2.88,2.88,0,0,1-.71.09,2.11,2.11,0,0,1-1.58-.6,2.61,2.61,0,0,1-.59-1.88v-5.45h-1.42v-1.21h1.42v-2.16Z"/><path d="M326.67,190.6c-.06-.27-.1-.51-.13-.72a4.46,4.46,0,0,1-.05-.63,3.78,3.78,0,0,1-1.19,1.09,3,3,0,0,1-1.58.43,2.92,2.92,0,0,1-2.13-.72,2.61,2.61,0,0,1-.74-2,2.3,2.3,0,0,1,1-2,4.86,4.86,0,0,1,2.82-.73h1.77v-.88a1.65,1.65,0,0,0-.48-1.25,2.24,2.24,0,0,0-2.64-.06,1.17,1.17,0,0,0-.49.95l-1.55,0,0-.05a2.15,2.15,0,0,1,.92-1.79,3.77,3.77,0,0,1,2.51-.81,3.72,3.72,0,0,1,2.45.77,2.74,2.74,0,0,1,.93,2.23v4.32c0,.32,0,.63.05.93a4.44,4.44,0,0,0,.18.88ZM324,189.4a2.93,2.93,0,0,0,1.6-.45,2.18,2.18,0,0,0,.93-1v-1.45h-1.83a2.37,2.37,0,0,0-1.58.49,1.47,1.47,0,0,0-.59,1.17,1.24,1.24,0,0,0,.37.95A1.58,1.58,0,0,0,324,189.4Z"/><path d="M335.7,188.19a1.09,1.09,0,0,0-.41-.88,3.85,3.85,0,0,0-1.55-.6,6.43,6.43,0,0,1-2.44-1,1.94,1.94,0,0,1-.84-1.64,2.36,2.36,0,0,1,.93-1.87,3.62,3.62,0,0,1,2.41-.78,3.57,3.57,0,0,1,2.47.83,2.35,2.35,0,0,1,.9,1.93v.05H335.6a1.43,1.43,0,0,0-.51-1.06,1.84,1.84,0,0,0-1.29-.47,1.88,1.88,0,0,0-1.29.39,1.23,1.23,0,0,0-.42.93,1,1,0,0,0,.37.82,4.08,4.08,0,0,0,1.52.53,6.31,6.31,0,0,1,2.5,1,2,2,0,0,1,.85,1.66,2.37,2.37,0,0,1-1,2,4,4,0,0,1-2.53.75,4,4,0,0,1-2.7-.87,2.48,2.48,0,0,1-.93-2v-.05h1.56a1.49,1.49,0,0,0,.65,1.27,2.46,2.46,0,0,0,1.41.4,2.3,2.3,0,0,0,1.37-.36A1.13,1.13,0,0,0,335.7,188.19Z"/><path d="M341.84,186.46H341v4.14h-1.63V177.67H341v7.49h.82l2.69-3.53h2l-3.26,4.14,3.54,4.83h-1.93Z"/><path d="M351.6,190.77a3.8,3.8,0,0,1-3-1.23,4.78,4.78,0,0,1-1.08-3.25v-.37a4.62,4.62,0,0,1,1.12-3.19,3.49,3.49,0,0,1,2.72-1.26,3.24,3.24,0,0,1,2.69,1.12,4.58,4.58,0,0,1,.9,3v.86h-5.73l0,0a3.68,3.68,0,0,0,.59,2.19,2.09,2.09,0,0,0,1.82.84,4.07,4.07,0,0,0,1.46-.23,3.48,3.48,0,0,0,1.07-.65l.64,1.06a3.82,3.82,0,0,1-1.27.78A5.1,5.1,0,0,1,351.6,190.77Zm-.25-8a1.8,1.8,0,0,0-1.42.66,3.11,3.11,0,0,0-.68,1.69l0,0h4V185a2.62,2.62,0,0,0-.48-1.62A1.73,1.73,0,0,0,351.35,182.75Z"/><path d="M356.4,186.28a6,6,0,0,1,.92-3.49,3,3,0,0,1,2.59-1.32,3.13,3.13,0,0,1,1.4.29,2.89,2.89,0,0,1,1,.84v-4.93H364V190.6h-1.25l-.25-1.14a2.84,2.84,0,0,1-1.09,1,3.24,3.24,0,0,1-1.49.33,3.08,3.08,0,0,1-2.57-1.19,4.92,4.92,0,0,1-.93-3.13Zm1.63.17a3.81,3.81,0,0,0,.56,2.18,1.94,1.94,0,0,0,1.72.82,2.2,2.2,0,0,0,1.23-.34,2.51,2.51,0,0,0,.81-.92V184a2.57,2.57,0,0,0-.82-.88,2.11,2.11,0,0,0-1.2-.33,1.88,1.88,0,0,0-1.74,1,5.06,5.06,0,0,0-.56,2.52Z"/><path d="M372.92,187.33l.21,1.15h.05l.22-1.15,1.79-5.7h1.31l1.79,5.7.23,1.29h.05l.27-1.29,1.33-5.7h1.7l-2.6,9H378l-1.77-5.46-.34-1.43h0l-.31,1.43-1.74,5.46h-1.32l-2.6-9h1.7Z"/><path d="M385.23,179.34H383.6v-1.67h1.63Zm0,11.26H383.6v-9h1.63Z"/><path d="M390,179.47v2.16h1.7v1.21H390v5.45a1.22,1.22,0,0,0,.26.88,1,1,0,0,0,.7.26,1.2,1.2,0,0,0,.31,0,1.48,1.48,0,0,0,.29-.08l.22,1.12a1.54,1.54,0,0,1-.53.25,2.94,2.94,0,0,1-.71.09,2.11,2.11,0,0,1-1.58-.6,2.61,2.61,0,0,1-.59-1.88v-5.45H387v-1.21h1.42v-2.16Z"/><path d="M395.09,182.83a3.3,3.3,0,0,1,1.14-1,3.14,3.14,0,0,1,1.5-.36,2.92,2.92,0,0,1,2.23.86,3.8,3.8,0,0,1,.8,2.65v5.62h-1.63V185a2.4,2.4,0,0,0-.48-1.64,1.83,1.83,0,0,0-1.42-.53,2.68,2.68,0,0,0-1.27.29,2.31,2.31,0,0,0-.87.8v6.72h-1.63V177.67h1.63Z"/><path d="M415,186.45a4.92,4.92,0,0,1-.92,3.13,3.07,3.07,0,0,1-2.56,1.19,3.49,3.49,0,0,1-1.46-.28,2.74,2.74,0,0,1-1.06-.83V194h-1.63V181.63h1.25l.25,1.16a2.94,2.94,0,0,1,1.1-1,3.21,3.21,0,0,1,1.52-.34,3,3,0,0,1,2.59,1.32,5.93,5.93,0,0,1,.92,3.49Zm-1.63-.17a4.76,4.76,0,0,0-.6-2.51,2,2,0,0,0-1.77-1,2.19,2.19,0,0,0-1.2.32,2.35,2.35,0,0,0-.8.88v4.33a2.15,2.15,0,0,0,2,1.17,2,2,0,0,0,1.76-.84,3.81,3.81,0,0,0,.59-2.2Z"/><path d="M421.2,183.08l-.84-.05a1.91,1.91,0,0,0-1.09.3,2,2,0,0,0-.68.86v6.41H417v-9h1.46l.15,1.31a3.22,3.22,0,0,1,.94-1.08,2.23,2.23,0,0,1,1.29-.39,2,2,0,0,1,.35,0l.27.06Z"/><path d="M426.45,190.77a3.8,3.8,0,0,1-3-1.23,4.78,4.78,0,0,1-1.08-3.25v-.37a4.62,4.62,0,0,1,1.12-3.19,3.48,3.48,0,0,1,2.72-1.26,3.24,3.24,0,0,1,2.69,1.12,4.58,4.58,0,0,1,.9,3v.86h-5.73l0,0a3.68,3.68,0,0,0,.6,2.19,2.09,2.09,0,0,0,1.82.84,4.11,4.11,0,0,0,1.46-.23,3.48,3.48,0,0,0,1.07-.65l.64,1.06a3.92,3.92,0,0,1-1.27.78A5.14,5.14,0,0,1,426.45,190.77Zm-.25-8a1.8,1.8,0,0,0-1.42.66,3.11,3.11,0,0,0-.68,1.69l0,0h4V185a2.62,2.62,0,0,0-.48-1.62A1.73,1.73,0,0,0,426.2,182.75Z"/><path d="M434.5,188l.14.63h.05l.16-.63,2.06-6.32h1.67l-3.3,9h-1.23l-3.34-9h1.67Z"/><path d="M443.65,190.77a3.79,3.79,0,0,1-3-1.23,4.78,4.78,0,0,1-1.08-3.25v-.37a4.66,4.66,0,0,1,1.11-3.19,3.49,3.49,0,0,1,2.72-1.26,3.25,3.25,0,0,1,2.7,1.12,4.58,4.58,0,0,1,.9,3v.86h-5.73l0,0a3.68,3.68,0,0,0,.6,2.19,2.07,2.07,0,0,0,1.82.84,4,4,0,0,0,1.45-.23,3.42,3.42,0,0,0,1.08-.65l.63,1.06a3.87,3.87,0,0,1-1.26.78A5.14,5.14,0,0,1,443.65,190.77Zm-.26-8a1.76,1.76,0,0,0-1.41.66,3.11,3.11,0,0,0-.68,1.69v0h4.05V185a2.56,2.56,0,0,0-.49-1.62A1.72,1.72,0,0,0,443.39,182.75Z"/><path d="M450.28,181.63l.11,1.34a3.21,3.21,0,0,1,1.12-1.11,3,3,0,0,1,1.54-.39,2.92,2.92,0,0,1,2.25.85,3.72,3.72,0,0,1,.79,2.62v5.66h-1.63V185a2.43,2.43,0,0,0-.47-1.68,1.88,1.88,0,0,0-1.43-.5,2.45,2.45,0,0,0-1.28.31,2.16,2.16,0,0,0-.83.84v6.66h-1.63v-9Z"/><path d="M460.73,179.47v2.16h1.7v1.21h-1.7v5.45a1.22,1.22,0,0,0,.26.88.94.94,0,0,0,.69.26,1.27,1.27,0,0,0,.32,0,1.71,1.71,0,0,0,.29-.08l.22,1.12a1.51,1.51,0,0,1-.54.25,2.86,2.86,0,0,1-.7.09,2.1,2.1,0,0,1-1.58-.6,2.57,2.57,0,0,1-.59-1.88v-5.45h-1.43v-1.21h1.43v-2.16Z"/><path d="M465.94,179.34h-1.63v-1.67h1.63Zm0,11.26h-1.63v-9h1.63Z"/><path d="M469.91,181.63,470,183a3.24,3.24,0,0,1,1.13-1.11,3,3,0,0,1,1.53-.39,2.92,2.92,0,0,1,2.25.85,3.72,3.72,0,0,1,.79,2.62v5.66h-1.63V185a2.43,2.43,0,0,0-.47-1.68,1.88,1.88,0,0,0-1.43-.5,2.45,2.45,0,0,0-1.28.31,2.23,2.23,0,0,0-.83.84v6.66h-1.63v-9Z"/><path d="M477.8,186.28a6,6,0,0,1,.92-3.49,3,3,0,0,1,2.58-1.32,3.13,3.13,0,0,1,1.5.34,3,3,0,0,1,1.09,1l.2-1.17h1.3v9a3.44,3.44,0,0,1-1,2.64,4.12,4.12,0,0,1-2.89.93,6,6,0,0,1-1.4-.18,5.25,5.25,0,0,1-1.32-.49l.25-1.26a4.72,4.72,0,0,0,1.14.4,5.92,5.92,0,0,0,1.31.15,2.38,2.38,0,0,0,1.73-.54,2.21,2.21,0,0,0,.55-1.65v-1a3,3,0,0,1-1.06.85,3.29,3.29,0,0,1-1.41.29,3.09,3.09,0,0,1-2.57-1.19,5,5,0,0,1-.92-3.13Zm1.63.17a3.85,3.85,0,0,0,.56,2.18,1.94,1.94,0,0,0,1.71.82,2.21,2.21,0,0,0,1.24-.34,2.57,2.57,0,0,0,.82-1V184a2.58,2.58,0,0,0-.82-.91,2.21,2.21,0,0,0-1.22-.34,1.87,1.87,0,0,0-1.73,1,5.06,5.06,0,0,0-.56,2.52Z"/><path d="M338.2,206.81a4.94,4.94,0,0,1-.93,3.13,3.11,3.11,0,0,1-2.57,1.19,3.31,3.31,0,0,1-1.55-.35,3,3,0,0,1-1.09-1l-.27,1.21h-1.25V198h1.64v5a2.83,2.83,0,0,1,1-.91,3.25,3.25,0,0,1,1.47-.31,3,3,0,0,1,2.58,1.32,6,6,0,0,1,.93,3.49Zm-1.63-.17a5,5,0,0,0-.57-2.52,1.89,1.89,0,0,0-1.73-1,2.1,2.1,0,0,0-1.27.37,2.5,2.5,0,0,0-.82,1v3.88a2.54,2.54,0,0,0,.82,1,2.12,2.12,0,0,0,1.29.37A1.91,1.91,0,0,0,336,209a3.72,3.72,0,0,0,.57-2.17Z"/><path d="M345.88,209.63a3.14,3.14,0,0,1-1.09,1.11,3,3,0,0,1-1.53.39,2.87,2.87,0,0,1-2.29-.94,4.36,4.36,0,0,1-.82-2.91V202h1.63v5.3a3.31,3.31,0,0,0,.43,2,1.56,1.56,0,0,0,1.31.54,2.65,2.65,0,0,0,1.44-.35,2.22,2.22,0,0,0,.86-1V202h1.63v9H346Z"/><path d="M351.59,211H350V198h1.63Z"/><path d="M355.87,211h-1.64V198h1.64Z"/><path d="M361.12,207.63l.29,1.13h0l2.2-6.77h1.81l-3.76,10.34a4.54,4.54,0,0,1-1,1.57,2.22,2.22,0,0,1-1.71.67,3.41,3.41,0,0,1-.5,0l-.48-.09.17-1.28h.29l.44,0a1,1,0,0,0,.85-.47,4.76,4.76,0,0,0,.56-1l.39-.94L357.41,202h1.82Z"/><path d="M368.67,199.7H367V198h1.63Zm0,11.25H367v-9h1.63Z"/><path d="M372.64,202l.12,1.33a3.18,3.18,0,0,1,1.12-1.1,3,3,0,0,1,1.53-.39,3,3,0,0,1,2.25.84,3.74,3.74,0,0,1,.79,2.63V211h-1.63v-5.62a2.38,2.38,0,0,0-.47-1.68,1.86,1.86,0,0,0-1.42-.5,2.53,2.53,0,0,0-1.28.3,2.28,2.28,0,0,0-.84.85V211h-1.63v-9Z"/><path d="M380.53,206.64a6,6,0,0,1,.93-3.49,3,3,0,0,1,2.58-1.32,3.13,3.13,0,0,1,1.5.34,3,3,0,0,1,1.08,1l.2-1.17h1.3v9a3.42,3.42,0,0,1-1,2.65,4.1,4.1,0,0,1-2.89.92,6.59,6.59,0,0,1-1.4-.17,5.25,5.25,0,0,1-1.32-.49l.25-1.27a4.71,4.71,0,0,0,1.14.41,5.92,5.92,0,0,0,1.31.15,2.39,2.39,0,0,0,1.74-.54,2.29,2.29,0,0,0,.54-1.66v-1a2.89,2.89,0,0,1-1.05.86,3.33,3.33,0,0,1-1.42.29,3.06,3.06,0,0,1-2.56-1.19,4.94,4.94,0,0,1-.93-3.13Zm1.64.17a3.79,3.79,0,0,0,.55,2.17,1.92,1.92,0,0,0,1.72.82,2.17,2.17,0,0,0,1.23-.33,2.65,2.65,0,0,0,.82-.95v-4.13a2.46,2.46,0,0,0-.82-.9,2.11,2.11,0,0,0-1.22-.34,1.84,1.84,0,0,0-1.72,1,5,5,0,0,0-.56,2.52Z"/><path d="M396.45,199.7h-1.64V198h1.64Zm0,11.25h-1.64v-9h1.64Z"/><path d="M400.41,202l.12,1.33a3.27,3.27,0,0,1,1.12-1.1,3,3,0,0,1,1.54-.39,2.93,2.93,0,0,1,2.24.84,3.74,3.74,0,0,1,.8,2.63V211H404.6v-5.62a2.43,2.43,0,0,0-.47-1.68,1.88,1.88,0,0,0-1.43-.5,2.55,2.55,0,0,0-1.28.3,2.19,2.19,0,0,0-.83.85V211H399v-9Z"/><path d="M418,208.54a1.05,1.05,0,0,0-.42-.87,3.85,3.85,0,0,0-1.55-.6,6.79,6.79,0,0,1-2.43-.95,1.92,1.92,0,0,1-.85-1.64,2.38,2.38,0,0,1,.93-1.88,4.16,4.16,0,0,1,4.89.05,2.38,2.38,0,0,1,.9,1.93l0,0h-1.56a1.41,1.41,0,0,0-.5-1,2.15,2.15,0,0,0-2.58-.08,1.24,1.24,0,0,0-.43.93,1,1,0,0,0,.37.82,4.15,4.15,0,0,0,1.52.53,6.47,6.47,0,0,1,2.5,1,2,2,0,0,1,.86,1.67,2.34,2.34,0,0,1-1,1.94,4.59,4.59,0,0,1-5.22-.11,2.49,2.49,0,0,1-.94-2l0,0h1.56a1.49,1.49,0,0,0,.64,1.27,2.51,2.51,0,0,0,1.42.4,2.2,2.2,0,0,0,1.36-.37A1.12,1.12,0,0,0,418,208.54Z"/><path d="M425.25,209.85a1.91,1.91,0,0,0,1.32-.5,1.59,1.59,0,0,0,.56-1.23h1.47l0,0a2.58,2.58,0,0,1-1,2.06,3.79,3.79,0,0,1-5.3-.39,5,5,0,0,1-1-3.19v-.35a4.93,4.93,0,0,1,1-3.19,3.49,3.49,0,0,1,2.91-1.28,3.34,3.34,0,0,1,2.45.92,3,3,0,0,1,.93,2.28l0,.05h-1.48a1.94,1.94,0,0,0-.54-1.39,1.72,1.72,0,0,0-1.34-.58,1.88,1.88,0,0,0-1.75.93,4.33,4.33,0,0,0-.55,2.26v.35a4.41,4.41,0,0,0,.54,2.27A1.88,1.88,0,0,0,425.25,209.85Z"/><path d="M432.2,203.19a3.3,3.3,0,0,1,1.14-1,3.1,3.1,0,0,1,1.49-.36,2.86,2.86,0,0,1,2.23.86,3.74,3.74,0,0,1,.8,2.65V211h-1.63v-5.63a2.43,2.43,0,0,0-.47-1.64,1.85,1.85,0,0,0-1.43-.53,2.66,2.66,0,0,0-1.26.29,2.23,2.23,0,0,0-.87.8V211h-1.63V198h1.63Z"/><path d="M439.83,206.39a5,5,0,0,1,1.07-3.28,4,4,0,0,1,5.87,0,4.93,4.93,0,0,1,1.08,3.28v.18a4.94,4.94,0,0,1-1.07,3.28,4,4,0,0,1-5.87,0,4.93,4.93,0,0,1-1.08-3.28Zm1.63.18a4.23,4.23,0,0,0,.6,2.35,2,2,0,0,0,1.78.93,2,2,0,0,0,1.78-.93,4.23,4.23,0,0,0,.6-2.35v-.18a4.16,4.16,0,0,0-.61-2.34,2.15,2.15,0,0,0-3.55,0,4.24,4.24,0,0,0-.6,2.34Z"/><path d="M449.47,206.39a4.93,4.93,0,0,1,1.08-3.28,3.58,3.58,0,0,1,2.92-1.28,3.62,3.62,0,0,1,2.94,1.28,4.88,4.88,0,0,1,1.09,3.28v.18a4.89,4.89,0,0,1-1.08,3.28,4,4,0,0,1-5.87,0,4.93,4.93,0,0,1-1.08-3.28Zm1.63.18a4.23,4.23,0,0,0,.6,2.35,2,2,0,0,0,1.79.93,2,2,0,0,0,1.77-.93,4.23,4.23,0,0,0,.6-2.35v-.18a4.16,4.16,0,0,0-.61-2.34,2.15,2.15,0,0,0-3.55,0,4.24,4.24,0,0,0-.6,2.34Z"/><path d="M461.26,211h-1.64V198h1.64Z"/><path d="M469,208.54a1.07,1.07,0,0,0-.41-.87,4,4,0,0,0-1.56-.6,6.79,6.79,0,0,1-2.43-.95,1.92,1.92,0,0,1-.85-1.64,2.38,2.38,0,0,1,.93-1.88,4.16,4.16,0,0,1,4.89.05,2.38,2.38,0,0,1,.9,1.93l0,0h-1.55a1.43,1.43,0,0,0-.51-1,2.15,2.15,0,0,0-2.58-.08,1.24,1.24,0,0,0-.43.93,1,1,0,0,0,.37.82,4.23,4.23,0,0,0,1.52.53,6.4,6.4,0,0,1,2.5,1,2,2,0,0,1,.86,1.67,2.34,2.34,0,0,1-1,1.94,4.59,4.59,0,0,1-5.22-.11,2.49,2.49,0,0,1-.94-2l0,0h1.56a1.52,1.52,0,0,0,.64,1.27,2.51,2.51,0,0,0,1.42.4,2.2,2.2,0,0,0,1.36-.37A1.12,1.12,0,0,0,469,208.54Z"/><rect class="cls-2" x="45.06" y="44.15" width="161.7" height="161.7" transform="translate(125.27 -52.42) rotate(45)"/><g class="cls-3"><path class="cls-4" d="M125.91,227.71,23.2,125,125.91,22.29,228.62,125ZM26.38,125l99.53,99.53L225.44,125,125.91,25.47Zm99.53,89.66L91.63,180.38l26.22-26.21L92.43,128.75l-18,18L86.31,158.7l4.94-4.94-7-7,8.16-8.16L108,154.17,86.7,175.45l-30-30L77.21,125,56.73,104.52l30-30L108,95.83,92.43,111.37l-8.16-8.16,7-7L86.31,91.3,74.4,103.21l18,18,25.42-25.42L91.63,69.62l34.28-34.28,34.28,34.28L134,95.83l25.41,25.42,18-18L165.51,91.3l-4.94,4.94,7,7-8.16,8.16L143.85,95.83l21.28-21.28,30,30L174.62,125l20.47,20.48-30,30-21.28-21.27,15.54-15.54,8.16,8.16-7,7,4.94,4.94,11.91-11.91-18-18L134,154.17l26.21,26.21Zm-31.1-34.28,31.1,31.11L157,180.38,130.8,154.17l28.59-28.59,21.21,21.21-15.09,15.08-8.11-8.11,7-7-5-5L147,154.17l18.11,18.1,26.79-26.79L171.44,125l20.48-20.48L165.13,77.73,147,95.83l12.37,12.37,5-5-7-7,8.11-8.12,15.09,15.09-21.21,21.21L130.8,95.83,157,69.62,125.91,38.51,94.81,69.62,121,95.83,92.43,124.42l-21.2-21.21L86.31,88.13l8.11,8.1-7,7,5,5L104.8,95.83,86.7,77.73,59.9,104.52,80.38,125,59.9,145.48l26.8,26.79,18.1-18.1L92.43,141.8l-5,5,7,7-8.11,8.11L71.23,146.79l21.2-21.21L121,154.17ZM200,140.54,184.49,125,200,109.46,215.57,125ZM187.66,125,200,137.37,212.4,125,200,112.63ZM51.79,140.54,36.25,125l15.54-15.54L67.33,125ZM39.43,125l12.36,12.37L64.16,125,51.79,112.63Z"/><path class="cls-4" d="M125.91,204.07l-24-24,24-24.05L150,180ZM105,180l20.87,20.88L146.79,180l-20.88-20.87Z"/><path class="cls-4" d="M125.91,93.36l-24-24,24-24.05L150,69.31ZM105,69.31l20.87,20.88,20.88-20.88L125.91,48.44Z"/></g><path class="cls-4" d="M125.91,107.67a1.33,1.33,0,0,1-.28,0L85.74,97.41a1.12,1.12,0,0,1,.11-2.2l39.89-6.13a1.93,1.93,0,0,1,.34,0L166,95.21a1.12,1.12,0,0,1,.1,2.2l-39.89,10.23A1.27,1.27,0,0,1,125.91,107.67ZM91.63,96.6l34.28,8.79,34.28-8.79-34.28-5.26Z"/><path class="cls-4" d="M126.12,121.65a1,1,0,0,1-.24,0L97.4,115.26a1.13,1.13,0,0,1-.88-1.1v-15h2.26v14.06l27.34,6.11,26.73-6.11.62-14.3,2.25.1-.66,15.15a1.13,1.13,0,0,1-.87,1.05l-27.82,6.36A1,1,0,0,1,126.12,121.65Z"/><path class="cls-4" d="M126.12,160.93A27.76,27.76,0,0,1,98.39,133.2v-18a1.12,1.12,0,0,1,1.34-1.1l26.38,5.26,26.39-5.63a1.11,1.11,0,0,1,.94.23,1.12,1.12,0,0,1,.42.87V133.2A27.76,27.76,0,0,1,126.12,160.93Zm-25.48-44.34V133.2a25.49,25.49,0,0,0,51,0v-17l-25.25,5.39a1.19,1.19,0,0,1-.46,0Z"/><path class="cls-4" d="M131.32,138c-1.14-.14-2,.65-2.24,2-.33,2-1.41,3.11-3.13,3.15s-2.84-1-3.24-3.16c-.25-1.38-1.12-2.16-2.27-2a2.11,2.11,0,0,0-1.78,2.48,7.26,7.26,0,0,0,14.49,0A2.16,2.16,0,0,0,131.32,138Z"/><path class="cls-4" d="M139.91,130.05a22.42,22.42,0,0,0,0-2.32,1.94,1.94,0,0,0-2.06-1.91,1.9,1.9,0,0,0-2,2c-.06,1.5-.06,3,0,4.49a2,2,0,0,0,1.92,2.06,2,2,0,0,0,2.13-2c.06-.77,0-1.54,0-2.31Z"/><path class="cls-4" d="M113.68,125.84a1.79,1.79,0,0,0-1.76,1.75c-.07.81,0,1.63,0,2.45h0c0,.82-.05,1.64,0,2.45a1.84,1.84,0,0,0,1.81,1.86,1.77,1.77,0,0,0,2.11-1.5,17.81,17.81,0,0,0,0-5.55A1.77,1.77,0,0,0,113.68,125.84Z"/><path class="cls-4" d="M147.7,109.29a1.12,1.12,0,0,1-1.12-1.13v-6.25L125.94,98.5a1.13,1.13,0,0,1-.93-1.3,1.11,1.11,0,0,1,1.3-.92l21.58,3.57a1.13,1.13,0,0,1,.94,1.11v7.2A1.12,1.12,0,0,1,147.7,109.29Z"/><circle class="cls-4" cx="147.7" cy="108.16" r="2.54"/></svg>