<svg id="Layer_1" data-name="Layer 1" xmlns="http://www.w3.org/2000/svg" viewBox="0 0 474.47 113.33"><defs><style>.cls-1{fill:#fff;}.cls-2{fill:#f16e24;}.cls-3{fill:#19486a;}</style></defs><rect class="cls-1" width="474.47" height="113.33"/><polygon class="cls-2" points="0 113.33 0 0 113.33 0 0 113.33"/><path class="cls-1" d="M43.23,40v4.75h-19V41l9.72-9.18A10.45,10.45,0,0,0,36,29.25a4.63,4.63,0,0,0,.54-2.11,2.79,2.79,0,0,0-1-2.32,4.78,4.78,0,0,0-3-.81,6.85,6.85,0,0,0-3,.63,5.73,5.73,0,0,0-2.24,1.89L23,23.79a10,10,0,0,1,4.06-3.44A13.71,13.71,0,0,1,33,19.11,12.27,12.27,0,0,1,38,20a7.6,7.6,0,0,1,3.27,2.59,6.71,6.71,0,0,1,1.17,3.94,8.76,8.76,0,0,1-.86,3.86,14.89,14.89,0,0,1-3.35,4.1L32.4,40Z"/><path class="cls-3" d="M115.07,22.89h3.4v14.7h-3.4Z"/><path class="cls-3" d="M132,27.39a5,5,0,0,1,1.29,3.74v6.46H130v-6a2.94,2.94,0,0,0-.59-2,2.16,2.16,0,0,0-1.7-.66,2.61,2.61,0,0,0-2,.77A3.17,3.17,0,0,0,125,32v5.58h-3.27V26.3h3.13v1.32a4.28,4.28,0,0,1,1.61-1.1,5.63,5.63,0,0,1,2.12-.39A4.68,4.68,0,0,1,132,27.39Z"/><path class="cls-3" d="M146.5,27.39a5,5,0,0,1,1.29,3.74v6.46h-3.28v-6a2.94,2.94,0,0,0-.59-2,2.14,2.14,0,0,0-1.7-.66,2.61,2.61,0,0,0-2,.77,3.17,3.17,0,0,0-.74,2.28v5.58h-3.27V26.3h3.13v1.32a4.28,4.28,0,0,1,1.61-1.1,5.68,5.68,0,0,1,2.13-.39A4.66,4.66,0,0,1,146.5,27.39Z"/><path class="cls-3" d="M153.05,37A5.55,5.55,0,0,1,150.83,35a5.7,5.7,0,0,1-.8-3,5.76,5.76,0,0,1,.8-3,5.55,5.55,0,0,1,2.22-2.07,7.27,7.27,0,0,1,6.39,0,5.59,5.59,0,0,1,2.21,2.07,5.76,5.76,0,0,1,.8,3,5.7,5.7,0,0,1-.8,3A5.59,5.59,0,0,1,159.44,37a7.27,7.27,0,0,1-6.39,0Zm5.27-2.8a3.14,3.14,0,0,0,.81-2.27,3.15,3.15,0,0,0-.81-2.28,2.72,2.72,0,0,0-2.07-.85,2.76,2.76,0,0,0-2.08.85,3.57,3.57,0,0,0,0,4.55,2.77,2.77,0,0,0,2.08.86A2.73,2.73,0,0,0,158.32,34.22Z"/><path class="cls-3" d="M175.53,26.3l-4.77,11.29h-3.38L162.64,26.3H166L169.15,34l3.23-7.68Z"/><path class="cls-3" d="M185.08,27.38a4.77,4.77,0,0,1,1.41,3.77v6.44h-3.06v-1.4c-.62,1.05-1.77,1.57-3.45,1.57a5.27,5.27,0,0,1-2.26-.44,3.39,3.39,0,0,1-1.46-1.22,3.18,3.18,0,0,1-.5-1.76A3,3,0,0,1,177,31.86a6,6,0,0,1,3.66-.9h2.61a2.09,2.09,0,0,0-.66-1.65,2.87,2.87,0,0,0-1.95-.58,5.66,5.66,0,0,0-1.77.29,4.69,4.69,0,0,0-1.48.76l-1.18-2.29a7,7,0,0,1,2.22-1,9.79,9.79,0,0,1,2.65-.36A5.88,5.88,0,0,1,185.08,27.38Zm-2.79,7.79a2.14,2.14,0,0,0,.93-1.15V32.87H181c-1.35,0-2,.44-2,1.32a1.18,1.18,0,0,0,.5,1,2.17,2.17,0,0,0,1.35.37A2.83,2.83,0,0,0,182.29,35.17Z"/><path class="cls-3" d="M196.74,37.05a3.17,3.17,0,0,1-1.19.53,5.94,5.94,0,0,1-1.48.18,4.4,4.4,0,0,1-3.12-1,3.94,3.94,0,0,1-1.1-3V29.07h-1.74V26.55h1.74V23.8h3.28v2.75h2.81v2.52h-2.81v4.6a1.57,1.57,0,0,0,.36,1.1,1.38,1.38,0,0,0,1,.39,2.13,2.13,0,0,0,1.33-.42Z"/><path class="cls-3" d="M198.75,24.2a1.8,1.8,0,0,1,0-2.61,2.09,2.09,0,0,1,1.48-.52,2.12,2.12,0,0,1,1.46.5,1.62,1.62,0,0,1,.57,1.26,1.79,1.79,0,0,1-.57,1.36,2,2,0,0,1-1.46.53A2.09,2.09,0,0,1,198.75,24.2Zm-.16,2.1h3.27V37.59h-3.27Z"/><path class="cls-3" d="M216.12,26.3l-4.76,11.29H208L203.23,26.3h3.38L209.74,34,213,26.3Z"/><path class="cls-3" d="M228.15,32.87h-8.54a2.63,2.63,0,0,0,1.09,1.66,3.65,3.65,0,0,0,2.14.61,4.49,4.49,0,0,0,1.57-.26,4.15,4.15,0,0,0,1.27-.83l1.74,1.89a5.88,5.88,0,0,1-4.66,1.82,7.44,7.44,0,0,1-3.38-.74A5.49,5.49,0,0,1,217.11,35a6.06,6.06,0,0,1,0-6,5.47,5.47,0,0,1,2.16-2.08,6.74,6.74,0,0,1,6.08,0,5.2,5.2,0,0,1,2.11,2.05,6.12,6.12,0,0,1,.77,3.1S228.2,32.32,228.15,32.87Zm-7.66-3.63a2.69,2.69,0,0,0-.93,1.72h5.57a2.7,2.7,0,0,0-.92-1.71,2.76,2.76,0,0,0-1.85-.64A2.82,2.82,0,0,0,220.49,29.24Z"/><path class="cls-3" d="M240,25.62v3.89h6.8v2.73H240v5.35h-3.4V22.89h11.1v2.73Z"/><path class="cls-3" d="M249.72,24.2a1.78,1.78,0,0,1,0-2.61,2.08,2.08,0,0,1,1.47-.52,2.16,2.16,0,0,1,1.47.5,1.62,1.62,0,0,1,.57,1.26,1.79,1.79,0,0,1-.57,1.36,2.32,2.32,0,0,1-2.94,0Zm-.17,2.1h3.28V37.59h-3.28Z"/><path class="cls-3" d="M266.13,27.39a5,5,0,0,1,1.29,3.74v6.46h-3.27v-6a3,3,0,0,0-.59-2,2.16,2.16,0,0,0-1.7-.66,2.58,2.58,0,0,0-2,.77,3.17,3.17,0,0,0-.74,2.28v5.58h-3.28V26.3H259v1.32a4.4,4.4,0,0,1,1.62-1.1,5.59,5.59,0,0,1,2.12-.39A4.64,4.64,0,0,1,266.13,27.39Z"/><path class="cls-3" d="M279,27.38a4.77,4.77,0,0,1,1.41,3.77v6.44h-3.07v-1.4c-.61,1.05-1.76,1.57-3.44,1.57a5.27,5.27,0,0,1-2.26-.44,3.39,3.39,0,0,1-1.46-1.22,3.18,3.18,0,0,1-.5-1.76,3,3,0,0,1,1.19-2.48,6,6,0,0,1,3.66-.9h2.61a2.09,2.09,0,0,0-.66-1.65,2.87,2.87,0,0,0-1.95-.58,5.66,5.66,0,0,0-1.77.29,4.69,4.69,0,0,0-1.48.76l-1.18-2.29a7,7,0,0,1,2.21-1,9.92,9.92,0,0,1,2.66-.36A5.88,5.88,0,0,1,279,27.38Zm-2.79,7.79a2.18,2.18,0,0,0,.93-1.15V32.87h-2.25c-1.35,0-2,.44-2,1.32a1.18,1.18,0,0,0,.5,1,2.17,2.17,0,0,0,1.35.37A2.83,2.83,0,0,0,276.18,35.17Z"/><path class="cls-3" d="M293.6,27.39a5,5,0,0,1,1.29,3.74v6.46h-3.27v-6a3,3,0,0,0-.59-2,2.16,2.16,0,0,0-1.7-.66,2.62,2.62,0,0,0-2,.77,3.17,3.17,0,0,0-.73,2.28v5.58h-3.28V26.3h3.13v1.32a4.24,4.24,0,0,1,1.62-1.1,5.59,5.59,0,0,1,2.12-.39A4.64,4.64,0,0,1,293.6,27.39Z"/><path class="cls-3" d="M300.19,37A5.56,5.56,0,0,1,297.14,32a5.68,5.68,0,0,1,.81-3,5.6,5.6,0,0,1,2.24-2.07,7,7,0,0,1,3.25-.74,6.37,6.37,0,0,1,3.12.74A4.44,4.44,0,0,1,308.5,29L306,30.37a2.77,2.77,0,0,0-2.54-1.55,2.86,2.86,0,0,0-2.12.84,3.09,3.09,0,0,0-.84,2.29,3.08,3.08,0,0,0,.84,2.28,2.87,2.87,0,0,0,2.12.85A2.75,2.75,0,0,0,306,33.52l2.54,1.39a4.58,4.58,0,0,1-1.94,2.1,6.26,6.26,0,0,1-3.12.75A7,7,0,0,1,300.19,37Z"/><path class="cls-3" d="M310.56,24.2a1.78,1.78,0,0,1,0-2.61,2.08,2.08,0,0,1,1.47-.52,2.16,2.16,0,0,1,1.47.5,1.61,1.61,0,0,1,.56,1.26,1.78,1.78,0,0,1-.56,1.36,2.32,2.32,0,0,1-2.94,0Zm-.17,2.1h3.28V37.59h-3.28Z"/><path class="cls-3" d="M327,27.39a5,5,0,0,1,1.29,3.74v6.46H325v-6a3,3,0,0,0-.58-2,2.18,2.18,0,0,0-1.71-.66,2.61,2.61,0,0,0-2,.77A3.17,3.17,0,0,0,320,32v5.58h-3.28V26.3h3.13v1.32a4.24,4.24,0,0,1,1.62-1.1,5.59,5.59,0,0,1,2.12-.39A4.64,4.64,0,0,1,327,27.39Z"/><path class="cls-3" d="M343,26.3v9.41a6.07,6.07,0,0,1-1.61,4.62,6.73,6.73,0,0,1-4.73,1.51,12.1,12.1,0,0,1-3.11-.4,6.7,6.7,0,0,1-2.43-1.16l1.3-2.35a5.56,5.56,0,0,0,1.8.94,7.25,7.25,0,0,0,2.19.34,3.56,3.56,0,0,0,2.51-.76,3.08,3.08,0,0,0,.81-2.33v-.48a4.6,4.6,0,0,1-3.57,1.41,6.06,6.06,0,0,1-2.85-.68,5.28,5.28,0,0,1-2.05-1.93,5.36,5.36,0,0,1-.75-2.85,5.42,5.42,0,0,1,.75-2.86,5.33,5.33,0,0,1,2.05-1.92,6.06,6.06,0,0,1,2.85-.68,4.47,4.47,0,0,1,3.73,1.62V26.3Zm-4.06,7.29a2.84,2.84,0,0,0,0-4,3,3,0,0,0-2.13-.76,3,3,0,0,0-2.14.76,2.81,2.81,0,0,0,0,4,3,3,0,0,0,2.14.77A3,3,0,0,0,338.94,33.59Z"/><path class="cls-3" d="M115.07,48.09h3.4v14.7h-3.4Z"/><path class="cls-3" d="M132,52.59a5,5,0,0,1,1.29,3.74v6.46H130v-6a2.9,2.9,0,0,0-.59-2,2.13,2.13,0,0,0-1.7-.67,2.61,2.61,0,0,0-2,.77,3.17,3.17,0,0,0-.74,2.28v5.58h-3.27V51.5h3.13v1.32a4.28,4.28,0,0,1,1.61-1.1,5.63,5.63,0,0,1,2.12-.39A4.68,4.68,0,0,1,132,52.59Z"/><path class="cls-3" d="M137.29,62.62a7.35,7.35,0,0,1-2.14-.87l1.09-2.36a6.79,6.79,0,0,0,1.82.79,7.87,7.87,0,0,0,2.11.31c1.38,0,2.07-.35,2.07-1a.72.72,0,0,0-.56-.7,8,8,0,0,0-1.75-.35,15.49,15.49,0,0,1-2.28-.49,3.51,3.51,0,0,1-1.57-1,2.75,2.75,0,0,1-.66-2,3.13,3.13,0,0,1,.62-1.9,4,4,0,0,1,1.8-1.29,7.74,7.74,0,0,1,2.81-.46,11.27,11.27,0,0,1,2.38.26,6.64,6.64,0,0,1,2,.73l-1.09,2.33a6.51,6.51,0,0,0-3.25-.84,3.42,3.42,0,0,0-1.58.29.87.87,0,0,0-.52.76.75.75,0,0,0,.56.73,9.73,9.73,0,0,0,1.81.4,21.82,21.82,0,0,1,2.27.49,3.44,3.44,0,0,1,1.53,1,2.69,2.69,0,0,1,.65,1.93,3,3,0,0,1-.63,1.87,4,4,0,0,1-1.83,1.27A8.24,8.24,0,0,1,140,63,11,11,0,0,1,137.29,62.62Z"/><path class="cls-3" d="M154.68,62.25a3.25,3.25,0,0,1-1.19.53A5.94,5.94,0,0,1,152,63a4.4,4.4,0,0,1-3.12-1,3.94,3.94,0,0,1-1.1-3V54.27h-1.74V51.75h1.74V49h3.27v2.75h2.82v2.52h-2.82v4.6a1.57,1.57,0,0,0,.37,1.1,1.36,1.36,0,0,0,1,.39,2.08,2.08,0,0,0,1.32-.42Z"/><path class="cls-3" d="M161.24,51.75a5.86,5.86,0,0,1,2.3-.42v3l-.74,0a3,3,0,0,0-2.2.79,3.18,3.18,0,0,0-.8,2.36v5.33h-3.28V51.5h3.13V53A3.65,3.65,0,0,1,161.24,51.75Z"/><path class="cls-3" d="M177,51.5V62.79h-3.11V61.45a4.28,4.28,0,0,1-1.55,1.12,4.93,4.93,0,0,1-2,.39,4.8,4.8,0,0,1-3.53-1.28,5.13,5.13,0,0,1-1.3-3.8V51.5h3.28v5.9c0,1.82.76,2.73,2.29,2.73a2.48,2.48,0,0,0,1.89-.77,3.26,3.26,0,0,0,.71-2.28V51.5Z"/><path class="cls-3" d="M197.84,52.58a5.1,5.1,0,0,1,1.25,3.75v6.46h-3.28v-6a3.06,3.06,0,0,0-.55-2,1.94,1.94,0,0,0-1.59-.67,2.3,2.3,0,0,0-1.82.75,3.21,3.21,0,0,0-.68,2.21v5.67H187.9v-6c0-1.78-.72-2.67-2.14-2.67a2.31,2.31,0,0,0-1.81.75,3.21,3.21,0,0,0-.67,2.21v5.67H180V51.5h3.13v1.3a4,4,0,0,1,1.54-1.09,5.25,5.25,0,0,1,2-.38,4.89,4.89,0,0,1,2.16.47,3.92,3.92,0,0,1,1.56,1.38,4.56,4.56,0,0,1,1.75-1.37,5.57,5.57,0,0,1,2.32-.48A4.57,4.57,0,0,1,197.84,52.58Z"/><path class="cls-3" d="M213.16,58.07h-8.55a2.69,2.69,0,0,0,1.1,1.66,3.63,3.63,0,0,0,2.14.61,4.4,4.4,0,0,0,1.56-.26,3.92,3.92,0,0,0,1.27-.83l1.75,1.89A5.9,5.9,0,0,1,207.76,63a7.47,7.47,0,0,1-3.38-.74,5.56,5.56,0,0,1-2.27-2.07,6.09,6.09,0,0,1,0-6,5.47,5.47,0,0,1,2.16-2.08,6.74,6.74,0,0,1,6.08,0,5.27,5.27,0,0,1,2.11,2.05,6.11,6.11,0,0,1,.76,3.1S213.2,57.52,213.16,58.07Zm-7.66-3.63a2.64,2.64,0,0,0-.93,1.72h5.57a2.7,2.7,0,0,0-2.78-2.35A2.79,2.79,0,0,0,205.5,54.44Z"/><path class="cls-3" d="M225.67,52.59A5,5,0,0,1,227,56.33v6.46h-3.28v-6a2.9,2.9,0,0,0-.59-2,2.12,2.12,0,0,0-1.7-.67,2.61,2.61,0,0,0-2,.77,3.17,3.17,0,0,0-.74,2.28v5.58h-3.27V51.5h3.13v1.32a4.28,4.28,0,0,1,1.61-1.1,5.67,5.67,0,0,1,2.12-.39A4.67,4.67,0,0,1,225.67,52.59Z"/><path class="cls-3" d="M237.21,62.25a3.25,3.25,0,0,1-1.19.53,5.94,5.94,0,0,1-1.48.18,4.37,4.37,0,0,1-3.12-1,3.94,3.94,0,0,1-1.1-3V54.27h-1.75V51.75h1.75V49h3.27v2.75h2.82v2.52h-2.82v4.6A1.57,1.57,0,0,0,234,60a1.36,1.36,0,0,0,1,.39,2.08,2.08,0,0,0,1.32-.42Z"/><path class="cls-3" d="M240.1,62.62a7.47,7.47,0,0,1-2.14-.87l1.09-2.36a7,7,0,0,0,1.83.79,7.74,7.74,0,0,0,2.1.31c1.39,0,2.08-.35,2.08-1a.73.73,0,0,0-.57-.7,8,8,0,0,0-1.74-.35,15.65,15.65,0,0,1-2.29-.49,3.53,3.53,0,0,1-1.56-1,2.71,2.71,0,0,1-.67-2,3.13,3.13,0,0,1,.62-1.9,4.08,4.08,0,0,1,1.81-1.29,7.68,7.68,0,0,1,2.8-.46,11.36,11.36,0,0,1,2.39.26,6.75,6.75,0,0,1,2,.73l-1.09,2.33a6.54,6.54,0,0,0-3.26-.84,3.37,3.37,0,0,0-1.57.29.88.88,0,0,0-.53.76.75.75,0,0,0,.57.73,9.54,9.54,0,0,0,1.81.4,21.55,21.55,0,0,1,2.26.49,3.52,3.52,0,0,1,1.54,1,2.73,2.73,0,0,1,.65,1.93,3,3,0,0,1-.63,1.87,4,4,0,0,1-1.84,1.27,8.18,8.18,0,0,1-2.86.45A11.1,11.1,0,0,1,240.1,62.62Z"/><path class="cls-3" d="M256.38,48.09h3.4V60h7.37v2.77H256.38Z"/><path class="cls-3" d="M279.75,58.07H271.2a2.69,2.69,0,0,0,1.1,1.66,3.63,3.63,0,0,0,2.14.61,4.4,4.4,0,0,0,1.56-.26,3.92,3.92,0,0,0,1.27-.83L279,61.14A5.9,5.9,0,0,1,274.35,63a7.47,7.47,0,0,1-3.38-.74,5.56,5.56,0,0,1-2.27-2.07,5.7,5.7,0,0,1-.79-3,5.84,5.84,0,0,1,.78-3,5.57,5.57,0,0,1,2.17-2.08,6.74,6.74,0,0,1,6.08,0,5.27,5.27,0,0,1,2.11,2.05,6.11,6.11,0,0,1,.76,3.1S279.79,57.52,279.75,58.07Zm-7.66-3.63a2.64,2.64,0,0,0-.93,1.72h5.57A2.7,2.7,0,0,0,274,53.81,2.79,2.79,0,0,0,272.09,54.44Z"/><path class="cls-3" d="M293,51.5l-4.77,11.29h-3.38L280.11,51.5h3.38l3.13,7.68,3.23-7.68Z"/><path class="cls-3" d="M305,58.07h-8.54a2.67,2.67,0,0,0,1.09,1.66,3.65,3.65,0,0,0,2.14.61,4.49,4.49,0,0,0,1.57-.26,4.15,4.15,0,0,0,1.27-.83l1.74,1.89A5.88,5.88,0,0,1,299.64,63a7.44,7.44,0,0,1-3.38-.74A5.49,5.49,0,0,1,294,60.15a6.06,6.06,0,0,1,0-6,5.47,5.47,0,0,1,2.16-2.08,6.74,6.74,0,0,1,6.08,0,5.2,5.2,0,0,1,2.11,2.05,6.12,6.12,0,0,1,.77,3.1S305.08,57.52,305,58.07Zm-7.66-3.63a2.68,2.68,0,0,0-.92,1.72H302a2.73,2.73,0,0,0-.92-1.71,2.76,2.76,0,0,0-1.85-.64A2.82,2.82,0,0,0,297.37,54.44Z"/><path class="cls-3" d="M312,51.75a5.86,5.86,0,0,1,2.3-.42v3l-.74,0a3,3,0,0,0-2.2.79,3.14,3.14,0,0,0-.8,2.36v5.33h-3.28V51.5h3.13V53A3.59,3.59,0,0,1,312,51.75Z"/><path class="cls-3" d="M324.77,52.58a4.77,4.77,0,0,1,1.41,3.77v6.44h-3.06v-1.4c-.62,1-1.77,1.57-3.45,1.57a5.27,5.27,0,0,1-2.26-.44A3.31,3.31,0,0,1,316,61.3a3.11,3.11,0,0,1-.51-1.76,3,3,0,0,1,1.19-2.48,6,6,0,0,1,3.66-.9h2.61a2.12,2.12,0,0,0-.65-1.65,2.92,2.92,0,0,0-2-.58,5.66,5.66,0,0,0-1.77.29,4.69,4.69,0,0,0-1.48.76l-1.18-2.29a7.07,7.07,0,0,1,2.22-1,9.79,9.79,0,0,1,2.65-.36A5.88,5.88,0,0,1,324.77,52.58ZM322,60.37a2.14,2.14,0,0,0,.93-1.15V58.07h-2.25c-1.35,0-2,.44-2,1.32a1.18,1.18,0,0,0,.5,1,2.19,2.19,0,0,0,1.35.37A2.83,2.83,0,0,0,322,60.37Z"/><path class="cls-3" d="M340.92,51.5v9.41a6.07,6.07,0,0,1-1.61,4.62A6.73,6.73,0,0,1,334.58,67a12.1,12.1,0,0,1-3.11-.4A6.7,6.7,0,0,1,329,65.48l1.3-2.35a5.51,5.51,0,0,0,1.81.94,7.13,7.13,0,0,0,2.18.34,3.56,3.56,0,0,0,2.51-.76,3.07,3.07,0,0,0,.81-2.32v-.49a4.6,4.6,0,0,1-3.57,1.41,6.06,6.06,0,0,1-2.85-.68,5.28,5.28,0,0,1-2.05-1.93,5.36,5.36,0,0,1-.75-2.85,5.42,5.42,0,0,1,.75-2.86A5.33,5.33,0,0,1,331.23,52a6.06,6.06,0,0,1,2.85-.68A4.46,4.46,0,0,1,337.81,53V51.5Zm-4.06,7.29a2.84,2.84,0,0,0,0-4,3,3,0,0,0-2.13-.76,3,3,0,0,0-2.14.76,2.81,2.81,0,0,0,0,4,3,3,0,0,0,2.14.77A3,3,0,0,0,336.86,58.79Z"/><path class="cls-3" d="M355,58.07h-8.54a2.63,2.63,0,0,0,1.09,1.66,3.65,3.65,0,0,0,2.14.61,4.4,4.4,0,0,0,1.56-.26,3.92,3.92,0,0,0,1.27-.83l1.75,1.89A5.89,5.89,0,0,1,349.58,63a7.48,7.48,0,0,1-3.39-.74,5.47,5.47,0,0,1-2.26-2.07,5.61,5.61,0,0,1-.8-3,5.75,5.75,0,0,1,.79-3,5.47,5.47,0,0,1,2.16-2.08,6.74,6.74,0,0,1,6.08,0,5.27,5.27,0,0,1,2.11,2.05,6.12,6.12,0,0,1,.77,3.1S355,57.52,355,58.07Zm-7.66-3.63a2.69,2.69,0,0,0-.93,1.72H352a2.69,2.69,0,0,0-.93-1.71,2.73,2.73,0,0,0-1.84-.64A2.8,2.8,0,0,0,347.31,54.44Z"/><path class="cls-3" d="M368.73,47.21V62.79H365.6v-1.3A4.32,4.32,0,0,1,362.07,63a6,6,0,0,1-2.89-.71,5.15,5.15,0,0,1-2-2,6.72,6.72,0,0,1,0-6.13,5.15,5.15,0,0,1,2-2,6,6,0,0,1,2.89-.71,4.29,4.29,0,0,1,3.38,1.36V47.21Zm-4,12.21a3.6,3.6,0,0,0,0-4.55,2.95,2.95,0,0,0-4.14,0,3.57,3.57,0,0,0,0,4.55,2.92,2.92,0,0,0,4.14,0Z"/><path class="cls-3" d="M118.43,77h2.9v2.52h-2.82V88h-3.27V79.47H113.5V77h1.74v-.5a4.13,4.13,0,0,1,1.14-3.07,4.38,4.38,0,0,1,3.23-1.13,6.23,6.23,0,0,1,1.39.15,3.78,3.78,0,0,1,1.11.45l-.87,2.38a2.18,2.18,0,0,0-1.32-.4c-1,0-1.49.54-1.49,1.64Z"/><path class="cls-3" d="M125,87.42a5.59,5.59,0,0,1-2.21-2.07,5.7,5.7,0,0,1-.8-3,5.76,5.76,0,0,1,.8-3A5.59,5.59,0,0,1,125,77.27a6.9,6.9,0,0,1,3.21-.74,6.79,6.79,0,0,1,3.19.74,5.56,5.56,0,0,1,2.2,2.07,5.76,5.76,0,0,1,.8,3,5.7,5.7,0,0,1-.8,3,5.56,5.56,0,0,1-2.2,2.07,6.67,6.67,0,0,1-3.19.74A6.78,6.78,0,0,1,125,87.42Zm5.27-2.8a3.6,3.6,0,0,0,0-4.55,2.69,2.69,0,0,0-2.06-.85,2.74,2.74,0,0,0-2.08.85,3.57,3.57,0,0,0,0,4.55,2.75,2.75,0,0,0,2.08.86A2.69,2.69,0,0,0,130.26,84.62Z"/><path class="cls-3" d="M141.29,77a5.86,5.86,0,0,1,2.3-.42v3l-.74,0a3,3,0,0,0-2.2.79,3.18,3.18,0,0,0-.8,2.36V88h-3.28V76.7h3.13v1.49A3.65,3.65,0,0,1,141.29,77Z"/><path class="cls-3" d="M153.26,87.77a7.89,7.89,0,0,1-2.62-1.22L151.8,84a7.64,7.64,0,0,0,2.25,1.12,8.37,8.37,0,0,0,2.6.42,4.21,4.21,0,0,0,2.14-.43,1.31,1.31,0,0,0,.69-1.15,1.09,1.09,0,0,0-.4-.87,3.27,3.27,0,0,0-1.05-.56c-.43-.14-1-.29-1.74-.46a22.33,22.33,0,0,1-2.75-.8A4.48,4.48,0,0,1,151.7,80a3.46,3.46,0,0,1-.76-2.35,4.1,4.1,0,0,1,.69-2.32,4.71,4.71,0,0,1,2.09-1.65,8.63,8.63,0,0,1,3.41-.61,11.44,11.44,0,0,1,2.75.34,8.11,8.11,0,0,1,2.36,1l-1.05,2.59a8.23,8.23,0,0,0-4.08-1.16,3.81,3.81,0,0,0-2.11.47,1.4,1.4,0,0,0-.68,1.21,1.19,1.19,0,0,0,.79,1.13,12.7,12.7,0,0,0,2.4.72,23.64,23.64,0,0,1,2.75.8,4.6,4.6,0,0,1,1.84,1.26,3.38,3.38,0,0,1,.77,2.33,4,4,0,0,1-.71,2.3,4.77,4.77,0,0,1-2.11,1.65,8.72,8.72,0,0,1-3.42.61A11.83,11.83,0,0,1,153.26,87.77Z"/><path class="cls-3" d="M176.35,76.7V88h-3.11V86.65a4.2,4.2,0,0,1-1.55,1.12,4.93,4.93,0,0,1-2,.39,4.76,4.76,0,0,1-3.52-1.28,5.09,5.09,0,0,1-1.31-3.8V76.7h3.28v5.9c0,1.82.76,2.73,2.29,2.73a2.48,2.48,0,0,0,1.89-.77,3.26,3.26,0,0,0,.71-2.28V76.7Z"/><path class="cls-3" d="M180.44,87.82A7.47,7.47,0,0,1,178.3,87l1.09-2.36a6.69,6.69,0,0,0,1.83.79,7.74,7.74,0,0,0,2.1.31c1.39,0,2.08-.35,2.08-1a.73.73,0,0,0-.57-.7,8,8,0,0,0-1.74-.35,15.65,15.65,0,0,1-2.29-.49,3.53,3.53,0,0,1-1.56-1,2.71,2.71,0,0,1-.67-2,3.13,3.13,0,0,1,.62-1.9A4.08,4.08,0,0,1,181,77a7.68,7.68,0,0,1,2.8-.46,11.36,11.36,0,0,1,2.39.26,6.75,6.75,0,0,1,2,.73l-1.09,2.33A6.54,6.54,0,0,0,183.8,79a3.37,3.37,0,0,0-1.57.29.88.88,0,0,0-.53.76.75.75,0,0,0,.57.73,9.54,9.54,0,0,0,1.81.4,21.55,21.55,0,0,1,2.26.49,3.52,3.52,0,0,1,1.54,1,2.73,2.73,0,0,1,.65,1.93,3,3,0,0,1-.63,1.87,4,4,0,0,1-1.84,1.27,8.2,8.2,0,0,1-2.87.45A11.08,11.08,0,0,1,180.44,87.82Z"/><path class="cls-3" d="M197.83,87.45a3.17,3.17,0,0,1-1.19.53,5.88,5.88,0,0,1-1.48.18,4.36,4.36,0,0,1-3.11-1,3.9,3.9,0,0,1-1.11-3V79.47H189.2V77h1.74V74.2h3.28V77H197v2.52h-2.81v4.6a1.53,1.53,0,0,0,.37,1.1,1.35,1.35,0,0,0,1,.39,2.12,2.12,0,0,0,1.32-.42Z"/><path class="cls-3" d="M208.27,77.78a4.77,4.77,0,0,1,1.4,3.77V88h-3.06V86.59c-.62,1-1.77,1.57-3.45,1.57a5.22,5.22,0,0,1-2.25-.44,3.28,3.28,0,0,1-1.46-1.22,3.11,3.11,0,0,1-.51-1.76,3,3,0,0,1,1.19-2.48,6,6,0,0,1,3.66-.9h2.61a2.12,2.12,0,0,0-.65-1.65,2.92,2.92,0,0,0-2-.58,5.66,5.66,0,0,0-1.77.29,4.8,4.8,0,0,0-1.48.76l-1.18-2.29a7.07,7.07,0,0,1,2.22-1,9.87,9.87,0,0,1,2.66-.36A5.89,5.89,0,0,1,208.27,77.78Zm-2.8,7.79a2.1,2.1,0,0,0,.93-1.15V83.27h-2.25q-2,0-2,1.32a1.17,1.17,0,0,0,.49,1A2.19,2.19,0,0,0,204,86,2.83,2.83,0,0,0,205.47,85.57Z"/><path class="cls-3" d="M212.8,74.6a1.8,1.8,0,0,1,0-2.61,2.08,2.08,0,0,1,1.47-.52,2.13,2.13,0,0,1,1.47.5,1.62,1.62,0,0,1,.57,1.26,1.79,1.79,0,0,1-.57,1.36,2.05,2.05,0,0,1-1.47.53A2.08,2.08,0,0,1,212.8,74.6Zm-.16,2.1h3.27V88h-3.27Z"/><path class="cls-3" d="M229.22,77.79a5,5,0,0,1,1.29,3.74V88h-3.28V82a3,3,0,0,0-.59-2,2.13,2.13,0,0,0-1.7-.67,2.61,2.61,0,0,0-2,.77,3.17,3.17,0,0,0-.74,2.28V88H219V76.7h3.13V78a4.28,4.28,0,0,1,1.61-1.1,5.63,5.63,0,0,1,2.12-.39A4.68,4.68,0,0,1,229.22,77.79Z"/><path class="cls-3" d="M242.06,77.78a4.8,4.8,0,0,1,1.4,3.77V88H240.4V86.59c-.62,1-1.77,1.57-3.45,1.57a5.22,5.22,0,0,1-2.25-.44,3.28,3.28,0,0,1-1.46-1.22,3.11,3.11,0,0,1-.51-1.76,3,3,0,0,1,1.19-2.48,6,6,0,0,1,3.66-.9h2.61a2.12,2.12,0,0,0-.65-1.65,2.92,2.92,0,0,0-2-.58,5.66,5.66,0,0,0-1.77.29,4.69,4.69,0,0,0-1.48.76l-1.18-2.29a7.07,7.07,0,0,1,2.22-1,9.79,9.79,0,0,1,2.65-.36A5.92,5.92,0,0,1,242.06,77.78Zm-2.8,7.79a2.1,2.1,0,0,0,.93-1.15V83.27h-2.25c-1.34,0-2,.44-2,1.32a1.18,1.18,0,0,0,.5,1,2.19,2.19,0,0,0,1.35.37A2.83,2.83,0,0,0,239.26,85.57Z"/><path class="cls-3" d="M256,77.25a5.31,5.31,0,0,1,2,2,6.76,6.76,0,0,1,0,6.11,5.17,5.17,0,0,1-2,2,5.8,5.8,0,0,1-2.87.72,4.36,4.36,0,0,1-3.55-1.47V88h-3.13V72.41h3.28v5.48a4.36,4.36,0,0,1,3.4-1.36A5.8,5.8,0,0,1,256,77.25Zm-1.37,7.37a3.6,3.6,0,0,0,0-4.55,2.93,2.93,0,0,0-4.13,0,3.6,3.6,0,0,0,0,4.55,2.91,2.91,0,0,0,4.13,0Z"/><path class="cls-3" d="M260.91,72.41h3.28V88h-3.28Z"/><path class="cls-3" d="M278.24,83.27h-8.55a2.71,2.71,0,0,0,1.09,1.66,3.69,3.69,0,0,0,2.15.61,4.44,4.44,0,0,0,1.56-.26,3.92,3.92,0,0,0,1.27-.83l1.74,1.89a5.86,5.86,0,0,1-4.66,1.82,7.34,7.34,0,0,1-3.38-.74,5.56,5.56,0,0,1-2.27-2.07,5.7,5.7,0,0,1-.79-3,5.84,5.84,0,0,1,.78-3,5.57,5.57,0,0,1,2.17-2.08,6.74,6.74,0,0,1,6.08,0,5.33,5.33,0,0,1,2.11,2.05,6.11,6.11,0,0,1,.76,3.1S278.28,82.72,278.24,83.27Zm-7.67-3.63a2.68,2.68,0,0,0-.92,1.72h5.57A2.7,2.7,0,0,0,272.44,79,2.84,2.84,0,0,0,270.57,79.64Z"/><path class="cls-3" d="M286.66,73.29h6.68a9.4,9.4,0,0,1,4.23.92,6.93,6.93,0,0,1,2.86,2.57,7.9,7.9,0,0,1,0,7.73,6.86,6.86,0,0,1-2.86,2.57,9.4,9.4,0,0,1-4.23.92h-6.68Zm6.51,11.91A5,5,0,0,0,296.69,84a4.87,4.87,0,0,0,0-6.65,5,5,0,0,0-3.52-1.23h-3.11V85.2Z"/><path class="cls-3" d="M314.78,83.27h-8.55a2.71,2.71,0,0,0,1.09,1.66,3.69,3.69,0,0,0,2.15.61,4.48,4.48,0,0,0,1.56-.26,4,4,0,0,0,1.27-.83L314,86.34a5.86,5.86,0,0,1-4.66,1.82,7.34,7.34,0,0,1-3.38-.74,5.49,5.49,0,0,1-2.27-2.07,5.7,5.7,0,0,1-.8-3,5.84,5.84,0,0,1,.79-3,5.61,5.61,0,0,1,2.16-2.08,6.46,6.46,0,0,1,3.08-.74,6.33,6.33,0,0,1,3,.71,5.2,5.2,0,0,1,2.11,2.05,6,6,0,0,1,.77,3.1S314.82,82.72,314.78,83.27Zm-7.67-3.63a2.68,2.68,0,0,0-.92,1.72h5.56A2.68,2.68,0,0,0,309,79,2.84,2.84,0,0,0,307.11,79.64Z"/><path class="cls-3" d="M328,76.7,323.26,88h-3.38l-4.74-11.3h3.38l3.13,7.68,3.23-7.68Z"/><path class="cls-3" d="M340.06,83.27h-8.54a2.63,2.63,0,0,0,1.09,1.66,3.65,3.65,0,0,0,2.14.61,4.4,4.4,0,0,0,1.56-.26,3.92,3.92,0,0,0,1.27-.83l1.75,1.89a5.89,5.89,0,0,1-4.66,1.82,7.36,7.36,0,0,1-3.39-.74A5.47,5.47,0,0,1,329,85.35a5.61,5.61,0,0,1-.8-3,5.75,5.75,0,0,1,.79-3,5.47,5.47,0,0,1,2.16-2.08,6.74,6.74,0,0,1,6.08,0,5.27,5.27,0,0,1,2.11,2.05,6.12,6.12,0,0,1,.77,3.1S340.1,82.72,340.06,83.27Zm-7.66-3.63a2.69,2.69,0,0,0-.93,1.72H337a2.69,2.69,0,0,0-.93-1.71,2.73,2.73,0,0,0-1.84-.64A2.8,2.8,0,0,0,332.4,79.64Z"/><path class="cls-3" d="M342.31,72.41h3.28V88h-3.28Z"/><path class="cls-3" d="M350.8,87.42a5.59,5.59,0,0,1-2.21-2.07,5.7,5.7,0,0,1-.8-3,5.76,5.76,0,0,1,.8-3,5.59,5.59,0,0,1,2.21-2.07,6.9,6.9,0,0,1,3.21-.74,6.79,6.79,0,0,1,3.19.74,5.56,5.56,0,0,1,2.2,2.07,5.76,5.76,0,0,1,.8,3,5.7,5.7,0,0,1-.8,3,5.56,5.56,0,0,1-2.2,2.07,6.67,6.67,0,0,1-3.19.74A6.78,6.78,0,0,1,350.8,87.42Zm5.27-2.8a3.6,3.6,0,0,0,0-4.55,2.7,2.7,0,0,0-2.06-.85,2.74,2.74,0,0,0-2.08.85,3.57,3.57,0,0,0,0,4.55,2.75,2.75,0,0,0,2.08.86A2.71,2.71,0,0,0,356.07,84.62Z"/><path class="cls-3" d="M371.93,77.25a5.31,5.31,0,0,1,2,2,6.76,6.76,0,0,1,0,6.11,5.17,5.17,0,0,1-2,2,5.8,5.8,0,0,1-2.87.72,4.36,4.36,0,0,1-3.4-1.36v5.27h-3.28V76.7h3.13V78a4.36,4.36,0,0,1,3.55-1.47A5.8,5.8,0,0,1,371.93,77.25Zm-1.37,7.37a3.6,3.6,0,0,0,0-4.55,2.93,2.93,0,0,0-4.13,0,3.6,3.6,0,0,0,0,4.55,2.91,2.91,0,0,0,4.13,0Z"/><path class="cls-3" d="M394.71,77.78A5.06,5.06,0,0,1,396,81.53V88h-3.27V82a3.06,3.06,0,0,0-.56-2,1.93,1.93,0,0,0-1.58-.67,2.34,2.34,0,0,0-1.83.75,3.22,3.22,0,0,0-.67,2.22V88h-3.28V82c0-1.78-.71-2.67-2.14-2.67a2.31,2.31,0,0,0-1.81.75,3.22,3.22,0,0,0-.67,2.22V88h-3.28V76.7H380V78a4.08,4.08,0,0,1,1.55-1.09,5.2,5.2,0,0,1,2-.38,5,5,0,0,1,2.17.47,3.9,3.9,0,0,1,1.55,1.38A4.63,4.63,0,0,1,389,77a5.57,5.57,0,0,1,2.32-.48A4.55,4.55,0,0,1,394.71,77.78Z"/><path class="cls-3" d="M410,83.27h-8.54a2.63,2.63,0,0,0,1.09,1.66,3.65,3.65,0,0,0,2.14.61,4.4,4.4,0,0,0,1.56-.26,4.07,4.07,0,0,0,1.28-.83l1.74,1.89a5.89,5.89,0,0,1-4.66,1.82,7.29,7.29,0,0,1-3.38-.74A5.43,5.43,0,0,1,399,85.35a5.61,5.61,0,0,1-.8-3,5.75,5.75,0,0,1,.79-3,5.47,5.47,0,0,1,2.16-2.08,6.74,6.74,0,0,1,6.08,0,5.27,5.27,0,0,1,2.11,2.05,6.12,6.12,0,0,1,.77,3.1S410.07,82.72,410,83.27Zm-7.66-3.63a2.69,2.69,0,0,0-.93,1.72H407a2.73,2.73,0,0,0-.92-1.71,2.76,2.76,0,0,0-1.85-.64A2.8,2.8,0,0,0,402.37,79.64Z"/><path class="cls-3" d="M422.54,77.79a5,5,0,0,1,1.29,3.74V88h-3.28V82a3,3,0,0,0-.58-2,2.14,2.14,0,0,0-1.7-.67,2.62,2.62,0,0,0-2,.77,3.17,3.17,0,0,0-.73,2.28V88h-3.28V76.7h3.13V78a4.24,4.24,0,0,1,1.62-1.1,5.59,5.59,0,0,1,2.12-.39A4.64,4.64,0,0,1,422.54,77.79Z"/><path class="cls-3" d="M434.08,87.45a3.17,3.17,0,0,1-1.19.53,5.94,5.94,0,0,1-1.48.18,4.4,4.4,0,0,1-3.12-1,3.94,3.94,0,0,1-1.1-3V79.47h-1.74V77h1.74V74.2h3.28V77h2.81v2.52h-2.81v4.6a1.57,1.57,0,0,0,.36,1.1,1.38,1.38,0,0,0,1,.39,2.13,2.13,0,0,0,1.33-.42Z"/></svg>