<svg id="Layer_1" data-name="Layer 1" xmlns="http://www.w3.org/2000/svg" viewBox="0 0 474.47 113.33"><defs><style>.cls-1{fill:#fff;}.cls-2{fill:#f16e24;}.cls-3{fill:#19486a;}</style></defs><rect class="cls-1" width="474.47" height="113.33"/><polygon class="cls-2" points="0 113.33 0 0 113.33 0 0 113.33"/><path class="cls-1" d="M41.25,32.27A6.77,6.77,0,0,1,43,37a7.54,7.54,0,0,1-1.16,4.05,7.89,7.89,0,0,1-3.51,3,13.46,13.46,0,0,1-5.77,1.12,19.71,19.71,0,0,1-5.24-.71,13.4,13.4,0,0,1-4.38-2L25.23,38a11.09,11.09,0,0,0,3.33,1.68,13,13,0,0,0,3.87.59,6.09,6.09,0,0,0,3.46-.85A2.71,2.71,0,0,0,37.15,37c0-2.06-1.57-3.1-4.72-3.1H29.77V30.09L35,24.22H24.22V19.54H41.86v3.78L36.18,29.8A8.5,8.5,0,0,1,41.25,32.27Z"/><path class="cls-3" d="M118.12,38.27h-4.71V35.49h12.81v2.78h-4.7V50.19h-3.4Z"/><path class="cls-3" d="M137.67,45.47h-8.55a2.67,2.67,0,0,0,1.09,1.66,3.68,3.68,0,0,0,2.14.61,4.49,4.49,0,0,0,1.57-.26,4,4,0,0,0,1.27-.83l1.74,1.89a5.88,5.88,0,0,1-4.66,1.82,7.47,7.47,0,0,1-3.38-.74,5.49,5.49,0,0,1-2.27-2.07,5.7,5.7,0,0,1-.8-3,5.84,5.84,0,0,1,.79-3,5.54,5.54,0,0,1,2.16-2.08,6.46,6.46,0,0,1,3.08-.74,6.33,6.33,0,0,1,3,.71A5.2,5.2,0,0,1,137,41.49a6.12,6.12,0,0,1,.77,3.1S137.71,44.92,137.67,45.47ZM130,41.84a2.68,2.68,0,0,0-.92,1.72h5.56a2.7,2.7,0,0,0-.92-1.71,2.76,2.76,0,0,0-1.85-.64A2.84,2.84,0,0,0,130,41.84Z"/><path class="cls-3" d="M142.13,49.62a5.7,5.7,0,0,1,0-10.15,7,7,0,0,1,3.24-.74,6.37,6.37,0,0,1,3.12.74,4.39,4.39,0,0,1,1.94,2.14L147.89,43a2.77,2.77,0,0,0-2.54-1.55,2.88,2.88,0,0,0-2.12.84,3.53,3.53,0,0,0,0,4.57,2.85,2.85,0,0,0,2.12.85,2.74,2.74,0,0,0,2.54-1.56l2.54,1.39a4.53,4.53,0,0,1-1.94,2.1,6.26,6.26,0,0,1-3.12.75A7,7,0,0,1,142.13,49.62Z"/><path class="cls-3" d="M162.5,40a5,5,0,0,1,1.29,3.74v6.46h-3.28v-6a3,3,0,0,0-.58-2,2.15,2.15,0,0,0-1.71-.67,2.61,2.61,0,0,0-2,.77,3.17,3.17,0,0,0-.73,2.28v5.58h-3.28V34.61h3.28v5.46a4.29,4.29,0,0,1,1.57-1,5.53,5.53,0,0,1,2-.35A4.64,4.64,0,0,1,162.5,40Z"/><path class="cls-3" d="M169.46,46.85a1.94,1.94,0,0,1,.57,1.46,3.52,3.52,0,0,1-.11.84,8.66,8.66,0,0,1-.46,1.25l-1.2,3h-2.08l.93-3.34a1.74,1.74,0,0,1-.83-.68,2,2,0,0,1-.31-1.1,1.94,1.94,0,0,1,.58-1.46,2,2,0,0,1,1.46-.56A2,2,0,0,1,169.46,46.85Z"/><path class="cls-3" d="M178.43,35.49h3.4v14.7h-3.4Z"/><path class="cls-3" d="M195.34,40a5,5,0,0,1,1.29,3.74v6.46h-3.27v-6a3,3,0,0,0-.59-2,2.13,2.13,0,0,0-1.7-.67,2.62,2.62,0,0,0-2,.77,3.17,3.17,0,0,0-.73,2.28v5.58h-3.28V38.9h3.13v1.32a4.4,4.4,0,0,1,1.62-1.1,5.59,5.59,0,0,1,2.12-.39A4.64,4.64,0,0,1,195.34,40Z"/><path class="cls-3" d="M209.85,40a5,5,0,0,1,1.29,3.74v6.46h-3.27v-6a3,3,0,0,0-.59-2,2.13,2.13,0,0,0-1.7-.67,2.58,2.58,0,0,0-2,.77,3.17,3.17,0,0,0-.74,2.28v5.58h-3.28V38.9h3.13v1.32a4.4,4.4,0,0,1,1.62-1.1,5.59,5.59,0,0,1,2.12-.39A4.64,4.64,0,0,1,209.85,40Z"/><path class="cls-3" d="M216.4,49.62a5.59,5.59,0,0,1-2.21-2.07,5.7,5.7,0,0,1-.8-3,5.76,5.76,0,0,1,.8-3,5.59,5.59,0,0,1,2.21-2.07,6.9,6.9,0,0,1,3.21-.74,6.79,6.79,0,0,1,3.19.74,5.56,5.56,0,0,1,2.2,2.07,5.67,5.67,0,0,1,.8,3,5.59,5.59,0,0,1-3,5.07,6.79,6.79,0,0,1-3.19.74A6.9,6.9,0,0,1,216.4,49.62Zm5.27-2.8a3.6,3.6,0,0,0,0-4.55,2.69,2.69,0,0,0-2.06-.85,2.74,2.74,0,0,0-2.08.85,3.57,3.57,0,0,0,0,4.55,2.75,2.75,0,0,0,2.08.86A2.69,2.69,0,0,0,221.67,46.82Z"/><path class="cls-3" d="M238.88,38.9l-4.76,11.29h-3.38L226,38.9h3.38l3.13,7.68,3.24-7.68Z"/><path class="cls-3" d="M248.44,40a4.77,4.77,0,0,1,1.41,3.77v6.44h-3.07v-1.4c-.61,1.05-1.76,1.57-3.44,1.57a5.27,5.27,0,0,1-2.26-.44,3.34,3.34,0,0,1-1.46-1.22,3.1,3.1,0,0,1-.5-1.76,2.94,2.94,0,0,1,1.18-2.48,6.06,6.06,0,0,1,3.67-.9h2.6a2.12,2.12,0,0,0-.65-1.65,2.87,2.87,0,0,0-1.95-.58,5.72,5.72,0,0,0-1.78.29,4.8,4.8,0,0,0-1.48.76l-1.17-2.29a6.92,6.92,0,0,1,2.21-1,9.87,9.87,0,0,1,2.66-.36A5.89,5.89,0,0,1,248.44,40Zm-2.79,7.79a2.12,2.12,0,0,0,.92-1.15V45.47h-2.25q-2,0-2,1.32a1.17,1.17,0,0,0,.49,1,2.2,2.2,0,0,0,1.36.37A2.86,2.86,0,0,0,245.65,47.77Z"/><path class="cls-3" d="M260.09,49.65a3.12,3.12,0,0,1-1.18.53,5.94,5.94,0,0,1-1.48.18,4.37,4.37,0,0,1-3.12-1,3.9,3.9,0,0,1-1.1-3V41.67h-1.75V39.15h1.75V36.4h3.27v2.75h2.82v2.52h-2.82v4.6a1.57,1.57,0,0,0,.37,1.1,1.35,1.35,0,0,0,1,.39,2.08,2.08,0,0,0,1.32-.42Z"/><path class="cls-3" d="M262.11,36.8a1.78,1.78,0,0,1,0-2.61,2.08,2.08,0,0,1,1.47-.52,2.16,2.16,0,0,1,1.47.5,1.62,1.62,0,0,1,.57,1.26,1.79,1.79,0,0,1-.57,1.36,2.32,2.32,0,0,1-2.94,0Zm-.17,2.1h3.28V50.19h-3.28Z"/><path class="cls-3" d="M270.44,49.62a5.55,5.55,0,0,1-2.22-2.07,5.7,5.7,0,0,1-.8-3,5.76,5.76,0,0,1,.8-3,5.55,5.55,0,0,1,2.22-2.07,7.27,7.27,0,0,1,6.39,0A5.65,5.65,0,0,1,279,41.54a5.76,5.76,0,0,1,.8,3,5.57,5.57,0,0,1-3,5.07,7.27,7.27,0,0,1-6.39,0Zm5.27-2.8a3.6,3.6,0,0,0,0-4.55,2.72,2.72,0,0,0-2.07-.85,2.76,2.76,0,0,0-2.08.85,3.57,3.57,0,0,0,0,4.55,2.77,2.77,0,0,0,2.08.86A2.73,2.73,0,0,0,275.71,46.82Z"/><path class="cls-3" d="M292.28,40a5,5,0,0,1,1.29,3.74v6.46h-3.28v-6a3,3,0,0,0-.58-2,2.15,2.15,0,0,0-1.71-.67,2.61,2.61,0,0,0-2,.77,3.17,3.17,0,0,0-.74,2.28v5.58H282V38.9h3.13v1.32a4.28,4.28,0,0,1,1.61-1.1,5.68,5.68,0,0,1,2.13-.39A4.64,4.64,0,0,1,292.28,40Z"/><path class="cls-3" d="M311.06,40a4.77,4.77,0,0,1,1.41,3.77v6.44H309.4v-1.4c-.61,1.05-1.76,1.57-3.44,1.57a5.27,5.27,0,0,1-2.26-.44,3.34,3.34,0,0,1-1.46-1.22,3.18,3.18,0,0,1-.5-1.76,2.94,2.94,0,0,1,1.18-2.48,6.08,6.08,0,0,1,3.67-.9h2.6a2.12,2.12,0,0,0-.65-1.65,2.87,2.87,0,0,0-2-.58,5.72,5.72,0,0,0-1.78.29,4.8,4.8,0,0,0-1.48.76l-1.17-2.29a6.92,6.92,0,0,1,2.21-1,9.87,9.87,0,0,1,2.66-.36A5.89,5.89,0,0,1,311.06,40Zm-2.79,7.79a2.12,2.12,0,0,0,.92-1.15V45.47H307c-1.35,0-2,.44-2,1.32a1.17,1.17,0,0,0,.49,1,2.2,2.2,0,0,0,1.36.37A2.86,2.86,0,0,0,308.27,47.77Z"/><path class="cls-3" d="M325.69,40A5,5,0,0,1,327,43.73v6.46H323.7v-6a3,3,0,0,0-.58-2,2.15,2.15,0,0,0-1.71-.67,2.61,2.61,0,0,0-2,.77,3.17,3.17,0,0,0-.73,2.28v5.58h-3.28V38.9h3.13v1.32a4.28,4.28,0,0,1,1.61-1.1,5.68,5.68,0,0,1,2.13-.39A4.64,4.64,0,0,1,325.69,40Z"/><path class="cls-3" d="M341.57,34.61V50.19h-3.13v-1.3a4.3,4.3,0,0,1-3.52,1.47,5.92,5.92,0,0,1-2.89-.71,5.17,5.17,0,0,1-2-2,6.8,6.8,0,0,1,0-6.13,5.17,5.17,0,0,1,2-2,5.92,5.92,0,0,1,2.89-.71,4.29,4.29,0,0,1,3.38,1.36V34.61Zm-4,12.21a3.57,3.57,0,0,0,0-4.55,2.72,2.72,0,0,0-2.06-.85,2.76,2.76,0,0,0-2.08.85,3.6,3.6,0,0,0,0,4.55,2.77,2.77,0,0,0,2.08.86A2.72,2.72,0,0,0,337.54,46.82Z"/><path class="cls-3" d="M127.84,69.08a3.73,3.73,0,0,1,.71,2.3,3.42,3.42,0,0,1-1.5,3,7.7,7.7,0,0,1-4.38,1h-7.6V60.69h7.18a7.09,7.09,0,0,1,4.13,1,3.27,3.27,0,0,1,1.44,2.8,3.54,3.54,0,0,1-2,3.23A4,4,0,0,1,127.84,69.08Zm-9.39-5.82v3.46h3.38a3.43,3.43,0,0,0,1.91-.44,1.45,1.45,0,0,0,.65-1.3,1.43,1.43,0,0,0-.65-1.29,3.44,3.44,0,0,0-1.91-.43Zm6,9.13a1.51,1.51,0,0,0,.68-1.36c0-1.22-.9-1.83-2.71-1.83h-4v3.63h4A3.73,3.73,0,0,0,124.45,72.39Z"/><path class="cls-3" d="M131.07,62a1.8,1.8,0,0,1,0-2.61,2.08,2.08,0,0,1,1.47-.52,2.16,2.16,0,0,1,1.47.5,1.62,1.62,0,0,1,.57,1.26A1.79,1.79,0,0,1,134,62a2.32,2.32,0,0,1-2.94,0Zm-.17,2.1h3.28V75.4H130.9Z"/><path class="cls-3" d="M148.88,64.1v9.41a6,6,0,0,1-1.62,4.62,6.71,6.71,0,0,1-4.72,1.51,12.1,12.1,0,0,1-3.11-.4A6.84,6.84,0,0,1,137,78.08l1.31-2.35a5.45,5.45,0,0,0,1.8.94,7.25,7.25,0,0,0,2.19.34,3.51,3.51,0,0,0,2.5-.76,3.07,3.07,0,0,0,.81-2.32v-.49A4.57,4.57,0,0,1,142,74.85a6,6,0,0,1-2.84-.68,5.22,5.22,0,0,1-2.05-1.93,5.37,5.37,0,0,1-.76-2.85,5.43,5.43,0,0,1,.76-2.86,5.26,5.26,0,0,1,2.05-1.92,6,6,0,0,1,2.84-.68,4.48,4.48,0,0,1,3.74,1.62V64.1Zm-4.06,7.29a2.59,2.59,0,0,0,.83-2,2.63,2.63,0,0,0-.83-2,3.39,3.39,0,0,0-4.28,0,2.6,2.6,0,0,0-.84,2,2.57,2.57,0,0,0,.84,2,3.36,3.36,0,0,0,4.28,0Z"/><path class="cls-3" d="M158.1,60.69h6.68a9.4,9.4,0,0,1,4.23.92,6.9,6.9,0,0,1,2.85,2.57,7.83,7.83,0,0,1,0,7.73A6.83,6.83,0,0,1,169,74.48a9.4,9.4,0,0,1-4.23.92H158.1Zm6.51,11.91a5,5,0,0,0,3.52-1.23,4.87,4.87,0,0,0,0-6.65,5,5,0,0,0-3.52-1.23H161.5V72.6Z"/><path class="cls-3" d="M183.8,65.18A4.77,4.77,0,0,1,185.21,69V75.4h-3.07V74c-.61,1.05-1.76,1.57-3.44,1.57a5.27,5.27,0,0,1-2.26-.44A3.34,3.34,0,0,1,175,73.9a3.18,3.18,0,0,1-.5-1.76,2.92,2.92,0,0,1,1.19-2.48,6,6,0,0,1,3.66-.9h2.6a2.08,2.08,0,0,0-.65-1.65,2.87,2.87,0,0,0-1.95-.58,5.77,5.77,0,0,0-1.78.29,4.8,4.8,0,0,0-1.48.76l-1.17-2.29a6.92,6.92,0,0,1,2.21-1,9.87,9.87,0,0,1,2.66-.36A5.89,5.89,0,0,1,183.8,65.18ZM181,73a2.12,2.12,0,0,0,.92-1.15V70.67h-2.24c-1.35,0-2,.44-2,1.32a1.2,1.2,0,0,0,.49,1,2.2,2.2,0,0,0,1.36.37A2.83,2.83,0,0,0,181,73Z"/><path class="cls-3" d="M195.46,74.85a3.25,3.25,0,0,1-1.19.53,5.94,5.94,0,0,1-1.48.18,4.4,4.4,0,0,1-3.12-1,3.94,3.94,0,0,1-1.1-3V66.87h-1.74V64.35h1.74V61.6h3.27v2.75h2.82v2.52h-2.82v4.6a1.57,1.57,0,0,0,.37,1.1,1.36,1.36,0,0,0,1,.39,2.13,2.13,0,0,0,1.33-.42Z"/><path class="cls-3" d="M205.89,65.18A4.77,4.77,0,0,1,207.3,69V75.4h-3.06V74c-.62,1.05-1.77,1.57-3.45,1.57a5.27,5.27,0,0,1-2.26-.44,3.39,3.39,0,0,1-1.46-1.22,3.18,3.18,0,0,1-.5-1.76,3,3,0,0,1,1.19-2.48,6,6,0,0,1,3.66-.9H204a2.09,2.09,0,0,0-.66-1.65,2.87,2.87,0,0,0-2-.58,5.66,5.66,0,0,0-1.77.29,4.69,4.69,0,0,0-1.48.76L197,65.29a7,7,0,0,1,2.22-1,9.79,9.79,0,0,1,2.65-.36A5.88,5.88,0,0,1,205.89,65.18ZM203.1,73a2.14,2.14,0,0,0,.93-1.15V70.67h-2.25c-1.35,0-2,.44-2,1.32a1.18,1.18,0,0,0,.5,1,2.17,2.17,0,0,0,1.35.37A2.83,2.83,0,0,0,203.1,73Z"/><path class="cls-3" d="M209.84,68.17h5.95V70.8h-5.95Z"/><path class="cls-3" d="M218.6,60.69h6.68a9.4,9.4,0,0,1,4.23.92,6.9,6.9,0,0,1,2.85,2.57,7.83,7.83,0,0,1,0,7.73,6.83,6.83,0,0,1-2.85,2.57,9.4,9.4,0,0,1-4.23.92H218.6Zm6.51,11.91a5,5,0,0,0,3.52-1.23,4.87,4.87,0,0,0,0-6.65,5,5,0,0,0-3.52-1.23H222V72.6Z"/><path class="cls-3" d="M240.43,64.35a5.86,5.86,0,0,1,2.3-.42v3l-.74,0a3,3,0,0,0-2.2.79,3.14,3.14,0,0,0-.8,2.36V75.4h-3.28V64.1h3.13v1.49A3.59,3.59,0,0,1,240.43,64.35Z"/><path class="cls-3" d="M244.85,62a1.78,1.78,0,0,1,0-2.61,2.08,2.08,0,0,1,1.47-.52,2.16,2.16,0,0,1,1.47.5,1.62,1.62,0,0,1,.57,1.26,1.79,1.79,0,0,1-.57,1.36,2.32,2.32,0,0,1-2.94,0Zm-.17,2.1H248V75.4h-3.28Z"/><path class="cls-3" d="M262.21,64.1l-4.76,11.3h-3.38l-4.75-11.3h3.38l3.13,7.68,3.24-7.68Z"/><path class="cls-3" d="M274.25,70.67H265.7a2.71,2.71,0,0,0,1.09,1.66,3.69,3.69,0,0,0,2.15.61,4.48,4.48,0,0,0,1.56-.26,3.92,3.92,0,0,0,1.27-.83l1.74,1.89a5.86,5.86,0,0,1-4.66,1.82,7.47,7.47,0,0,1-3.38-.74,5.49,5.49,0,0,1-2.27-2.07,5.7,5.7,0,0,1-.8-3,5.84,5.84,0,0,1,.79-3,5.61,5.61,0,0,1,2.16-2.08,6.46,6.46,0,0,1,3.08-.74,6.33,6.33,0,0,1,3,.71,5.2,5.2,0,0,1,2.11,2,6,6,0,0,1,.77,3.1S274.29,70.12,274.25,70.67ZM266.58,67a2.68,2.68,0,0,0-.92,1.72h5.56a2.68,2.68,0,0,0-2.77-2.35A2.84,2.84,0,0,0,266.58,67Z"/><path class="cls-3" d="M286.75,65.19A5,5,0,0,1,288,68.93V75.4h-3.27v-6a3,3,0,0,0-.59-2,2.13,2.13,0,0,0-1.7-.67,2.6,2.6,0,0,0-2,.77,3.17,3.17,0,0,0-.74,2.28V75.4H276.5V64.1h3.12v1.32a4.4,4.4,0,0,1,1.62-1.1,5.59,5.59,0,0,1,2.12-.39A4.64,4.64,0,0,1,286.75,65.19Z"/><path class="cls-3" d="M297.18,60.69h6.68a9.4,9.4,0,0,1,4.23.92A6.93,6.93,0,0,1,311,64.18a7.9,7.9,0,0,1,0,7.73,6.86,6.86,0,0,1-2.86,2.57,9.4,9.4,0,0,1-4.23.92h-6.68Zm6.51,11.91a5,5,0,0,0,3.52-1.23,4.87,4.87,0,0,0,0-6.65,5,5,0,0,0-3.52-1.23h-3.11V72.6Z"/><path class="cls-3" d="M325.3,70.67h-8.55a2.71,2.71,0,0,0,1.09,1.66,3.69,3.69,0,0,0,2.15.61,4.48,4.48,0,0,0,1.56-.26,4,4,0,0,0,1.27-.83l1.74,1.89a5.86,5.86,0,0,1-4.66,1.82,7.47,7.47,0,0,1-3.38-.74,5.49,5.49,0,0,1-2.27-2.07,5.7,5.7,0,0,1-.8-3,5.84,5.84,0,0,1,.79-3,5.61,5.61,0,0,1,2.16-2.08,6.46,6.46,0,0,1,3.08-.74,6.33,6.33,0,0,1,3,.71,5.2,5.2,0,0,1,2.11,2,6,6,0,0,1,.77,3.1S325.34,70.12,325.3,70.67ZM317.63,67a2.68,2.68,0,0,0-.92,1.72h5.56a2.68,2.68,0,0,0-2.77-2.35A2.84,2.84,0,0,0,317.63,67Z"/><path class="cls-3" d="M338.55,64.1l-4.77,11.3H330.4l-4.74-11.3H329l3.13,7.68,3.23-7.68Z"/><path class="cls-3" d="M350.58,70.67H342a2.63,2.63,0,0,0,1.09,1.66,3.65,3.65,0,0,0,2.14.61,4.4,4.4,0,0,0,1.56-.26,3.92,3.92,0,0,0,1.27-.83l1.75,1.89a5.89,5.89,0,0,1-4.66,1.82,7.48,7.48,0,0,1-3.39-.74,5.47,5.47,0,0,1-2.26-2.07,5.61,5.61,0,0,1-.8-3,5.75,5.75,0,0,1,.79-3,5.47,5.47,0,0,1,2.16-2.08,6.74,6.74,0,0,1,6.08,0,5.27,5.27,0,0,1,2.11,2,6.12,6.12,0,0,1,.77,3.1S350.62,70.12,350.58,70.67ZM342.92,67a2.69,2.69,0,0,0-.93,1.72h5.57a2.69,2.69,0,0,0-.93-1.71,2.73,2.73,0,0,0-1.84-.64A2.8,2.8,0,0,0,342.92,67Z"/><path class="cls-3" d="M352.83,59.81h3.28V75.4h-3.28Z"/><path class="cls-3" d="M361.32,74.82a5.59,5.59,0,0,1-2.21-2.07,5.7,5.7,0,0,1-.8-3,5.76,5.76,0,0,1,.8-3,5.59,5.59,0,0,1,2.21-2.07,6.9,6.9,0,0,1,3.21-.74,6.79,6.79,0,0,1,3.19.74,5.56,5.56,0,0,1,2.2,2.07,5.67,5.67,0,0,1,.8,3,5.59,5.59,0,0,1-3,5.07,6.79,6.79,0,0,1-3.19.74A6.9,6.9,0,0,1,361.32,74.82Zm5.27-2.8a3.6,3.6,0,0,0,0-4.55,2.69,2.69,0,0,0-2.06-.85,2.74,2.74,0,0,0-2.08.85,3.57,3.57,0,0,0,0,4.55,2.75,2.75,0,0,0,2.08.86A2.69,2.69,0,0,0,366.59,72Z"/><path class="cls-3" d="M382.45,64.65a5.31,5.31,0,0,1,2,2,6.76,6.76,0,0,1,0,6.11,5.17,5.17,0,0,1-2,2,5.8,5.8,0,0,1-2.87.72,4.36,4.36,0,0,1-3.4-1.36v5.27h-3.27V64.1H376v1.3a4.36,4.36,0,0,1,3.55-1.47A5.8,5.8,0,0,1,382.45,64.65ZM381.09,72a3.63,3.63,0,0,0,0-4.55,2.95,2.95,0,0,0-4.14,0A3.6,3.6,0,0,0,377,72a2.92,2.92,0,0,0,4.14,0Z"/><path class="cls-3" d="M405.23,65.18a5.06,5.06,0,0,1,1.25,3.75V75.4h-3.27v-6a3.06,3.06,0,0,0-.56-2,1.93,1.93,0,0,0-1.58-.67,2.34,2.34,0,0,0-1.83.75,3.22,3.22,0,0,0-.67,2.22V75.4h-3.28v-6c0-1.78-.71-2.67-2.14-2.67a2.31,2.31,0,0,0-1.81.75,3.22,3.22,0,0,0-.67,2.22V75.4h-3.28V64.1h3.13v1.3a4.08,4.08,0,0,1,1.55-1.09,5.2,5.2,0,0,1,2-.38,5,5,0,0,1,2.17.47,3.9,3.9,0,0,1,1.55,1.38,4.63,4.63,0,0,1,1.75-1.37,5.57,5.57,0,0,1,2.32-.48A4.55,4.55,0,0,1,405.23,65.18Z"/><path class="cls-3" d="M420.55,70.67H412a2.63,2.63,0,0,0,1.09,1.66,3.65,3.65,0,0,0,2.14.61,4.49,4.49,0,0,0,1.57-.26,4.15,4.15,0,0,0,1.27-.83l1.74,1.89a5.89,5.89,0,0,1-4.66,1.82,7.44,7.44,0,0,1-3.38-.74,5.49,5.49,0,0,1-2.27-2.07,6.06,6.06,0,0,1,0-6,5.47,5.47,0,0,1,2.16-2.08,6.74,6.74,0,0,1,6.08,0,5.2,5.2,0,0,1,2.11,2,6.12,6.12,0,0,1,.77,3.1S420.6,70.12,420.55,70.67ZM412.89,67a2.69,2.69,0,0,0-.93,1.72h5.57a2.73,2.73,0,0,0-.92-1.71,2.76,2.76,0,0,0-1.85-.64A2.82,2.82,0,0,0,412.89,67Z"/><path class="cls-3" d="M433.06,65.19a5,5,0,0,1,1.29,3.74V75.4h-3.27v-6a3,3,0,0,0-.59-2,2.14,2.14,0,0,0-1.7-.67,2.62,2.62,0,0,0-2,.77,3.17,3.17,0,0,0-.73,2.28V75.4H422.8V64.1h3.13v1.32a4.24,4.24,0,0,1,1.62-1.1,5.59,5.59,0,0,1,2.12-.39A4.64,4.64,0,0,1,433.06,65.19Z"/><path class="cls-3" d="M444.6,74.85a3.17,3.17,0,0,1-1.19.53,5.94,5.94,0,0,1-1.48.18,4.4,4.4,0,0,1-3.12-1,3.94,3.94,0,0,1-1.1-3V66.87H436V64.35h1.74V61.6H441v2.75h2.81v2.52H441v4.6a1.57,1.57,0,0,0,.36,1.1,1.38,1.38,0,0,0,1,.39,2.13,2.13,0,0,0,1.33-.42Z"/></svg>