<svg id="Layer_1" data-name="Layer 1" xmlns="http://www.w3.org/2000/svg" viewBox="0 0 474.47 113.33"><defs><style>.cls-1{fill:#fff;}.cls-2{fill:#1b3668;}.cls-3{fill:#19486a;}</style></defs><rect class="cls-1" width="474.47" height="113.33"/><polygon class="cls-2" points="0 113.33 0 0 113.33 0 0 113.33"/><path class="cls-1" d="M34.12,19.54v25.2H28.29V24.22h-5V19.54Z"/><path class="cls-3" d="M128.55,22.89v14.7h-2.79l-7.33-8.92v8.92h-3.36V22.89h2.81l7.31,8.93V22.89Z"/><path class="cls-3" d="M140.4,27.38a4.8,4.8,0,0,1,1.4,3.77v6.44h-3.06v-1.4c-.62,1.05-1.77,1.57-3.45,1.57a5.19,5.19,0,0,1-2.25-.44,3.28,3.28,0,0,1-1.46-1.22,3.11,3.11,0,0,1-.51-1.76,3,3,0,0,1,1.19-2.48,6,6,0,0,1,3.66-.9h2.61a2.12,2.12,0,0,0-.65-1.65,2.92,2.92,0,0,0-2-.58,5.66,5.66,0,0,0-1.77.29,4.69,4.69,0,0,0-1.48.76l-1.18-2.29a7.07,7.07,0,0,1,2.22-1,9.79,9.79,0,0,1,2.65-.36A5.92,5.92,0,0,1,140.4,27.38Zm-2.8,7.79a2.14,2.14,0,0,0,.93-1.15V32.87h-2.25c-1.34,0-2,.44-2,1.32a1.18,1.18,0,0,0,.5,1,2.19,2.19,0,0,0,1.35.37A2.83,2.83,0,0,0,137.6,35.17Z"/><path class="cls-3" d="M152.05,37.05a3.17,3.17,0,0,1-1.19.53,5.88,5.88,0,0,1-1.48.18,4.36,4.36,0,0,1-3.11-1,3.9,3.9,0,0,1-1.11-3V29.07h-1.74V26.55h1.74V23.8h3.28v2.75h2.81v2.52h-2.81v4.6a1.53,1.53,0,0,0,.37,1.1,1.35,1.35,0,0,0,1,.39,2.12,2.12,0,0,0,1.32-.42Z"/><path class="cls-3" d="M154.07,24.2a1.78,1.78,0,0,1,0-2.61,2.06,2.06,0,0,1,1.47-.52,2.16,2.16,0,0,1,1.47.5,1.65,1.65,0,0,1,.56,1.26,1.82,1.82,0,0,1-.56,1.36,2.09,2.09,0,0,1-1.47.53A2.06,2.06,0,0,1,154.07,24.2Zm-.17,2.1h3.27V37.59H153.9Z"/><path class="cls-3" d="M162.39,37A5.59,5.59,0,0,1,160.18,35a5.7,5.7,0,0,1-.8-3,5.76,5.76,0,0,1,.8-3,5.59,5.59,0,0,1,2.21-2.07,6.9,6.9,0,0,1,3.21-.74,6.79,6.79,0,0,1,3.19.74,5.56,5.56,0,0,1,2.2,2.07,5.76,5.76,0,0,1,.8,3,5.7,5.7,0,0,1-.8,3,5.56,5.56,0,0,1-2.2,2.07,6.79,6.79,0,0,1-3.19.74A6.9,6.9,0,0,1,162.39,37Zm5.27-2.8a3.14,3.14,0,0,0,.81-2.27,3.15,3.15,0,0,0-.81-2.28,2.7,2.7,0,0,0-2.06-.85,2.74,2.74,0,0,0-2.08.85A3.11,3.11,0,0,0,162.7,32a3.1,3.1,0,0,0,.82,2.27,2.75,2.75,0,0,0,2.08.86A2.71,2.71,0,0,0,167.66,34.22Z"/><path class="cls-3" d="M184.23,27.39a5,5,0,0,1,1.3,3.74v6.46h-3.28v-6a3,3,0,0,0-.59-2A2.16,2.16,0,0,0,180,29a2.6,2.6,0,0,0-2,.77,3.17,3.17,0,0,0-.74,2.28v5.58H174V26.3h3.12v1.32a4.4,4.4,0,0,1,1.62-1.1,5.63,5.63,0,0,1,2.12-.39A4.64,4.64,0,0,1,184.23,27.39Z"/><path class="cls-3" d="M197.08,27.38a4.8,4.8,0,0,1,1.4,3.77v6.44h-3.06v-1.4c-.62,1.05-1.77,1.57-3.45,1.57a5.27,5.27,0,0,1-2.26-.44,3.39,3.39,0,0,1-1.46-1.22,3.18,3.18,0,0,1-.5-1.76,3,3,0,0,1,1.19-2.48,6,6,0,0,1,3.66-.9h2.61a2.09,2.09,0,0,0-.66-1.65,2.87,2.87,0,0,0-2-.58,5.66,5.66,0,0,0-1.77.29,4.69,4.69,0,0,0-1.48.76l-1.18-2.29a7.07,7.07,0,0,1,2.22-1,9.79,9.79,0,0,1,2.65-.36A5.92,5.92,0,0,1,197.08,27.38Zm-2.8,7.79a2.14,2.14,0,0,0,.93-1.15V32.87H193c-1.34,0-2,.44-2,1.32a1.18,1.18,0,0,0,.5,1,2.19,2.19,0,0,0,1.35.37A2.83,2.83,0,0,0,194.28,35.17Z"/><path class="cls-3" d="M201.44,22h3.28V37.59h-3.28Z"/><path class="cls-3" d="M223.69,23.55a5.07,5.07,0,0,1,2.22,1.84,5.59,5.59,0,0,1,0,5.66,5,5,0,0,1-2.22,1.85,8.24,8.24,0,0,1-3.39.64h-3v4.05h-3.4V22.89h6.36A8.07,8.07,0,0,1,223.69,23.55Zm-1.25,6.56a2.63,2.63,0,0,0,0-3.78,3.58,3.58,0,0,0-2.33-.66h-2.77v5.1h2.77A3.58,3.58,0,0,0,222.44,30.11Z"/><path class="cls-3" d="M231,37A5.57,5.57,0,0,1,228,32a5.67,5.67,0,0,1,.8-3A5.59,5.59,0,0,1,231,26.87a7.29,7.29,0,0,1,6.4,0,5.62,5.62,0,0,1,2.2,2.07,5.76,5.76,0,0,1,.8,3,5.7,5.7,0,0,1-.8,3,5.62,5.62,0,0,1-2.2,2.07,7.29,7.29,0,0,1-6.4,0Zm5.27-2.8A3.14,3.14,0,0,0,237.1,32a3.15,3.15,0,0,0-.81-2.28,2.72,2.72,0,0,0-2.07-.85,2.76,2.76,0,0,0-2.08.85,3.15,3.15,0,0,0-.81,2.28,3.14,3.14,0,0,0,.81,2.27,2.77,2.77,0,0,0,2.08.86A2.73,2.73,0,0,0,236.29,34.22Z"/><path class="cls-3" d="M242.6,22h3.28V37.59H242.6Z"/><path class="cls-3" d="M249.09,24.2a1.78,1.78,0,0,1,0-2.61,2.08,2.08,0,0,1,1.47-.52,2.16,2.16,0,0,1,1.47.5,1.62,1.62,0,0,1,.57,1.26,1.79,1.79,0,0,1-.57,1.36,2.32,2.32,0,0,1-2.94,0Zm-.17,2.1h3.28V37.59h-3.28Z"/><path class="cls-3" d="M257.46,37a5.7,5.7,0,0,1,0-10.15,7,7,0,0,1,3.24-.74,6.37,6.37,0,0,1,3.12.74A4.46,4.46,0,0,1,265.77,29l-2.55,1.36a2.75,2.75,0,0,0-2.54-1.55,2.88,2.88,0,0,0-2.12.84,3.09,3.09,0,0,0-.84,2.29,3.08,3.08,0,0,0,.84,2.28,2.89,2.89,0,0,0,2.12.85,2.74,2.74,0,0,0,2.54-1.56l2.55,1.39a4.6,4.6,0,0,1-1.95,2.1,6.26,6.26,0,0,1-3.12.75A7,7,0,0,1,257.46,37Z"/><path class="cls-3" d="M267.82,24.2a1.8,1.8,0,0,1,0-2.61,2.08,2.08,0,0,1,1.47-.52,2.16,2.16,0,0,1,1.47.5,1.62,1.62,0,0,1,.57,1.26,1.79,1.79,0,0,1-.57,1.36,2.32,2.32,0,0,1-2.94,0Zm-.16,2.1h3.27V37.59h-3.27Z"/><path class="cls-3" d="M285,32.87h-8.55a2.71,2.71,0,0,0,1.09,1.66,3.69,3.69,0,0,0,2.15.61,4.44,4.44,0,0,0,1.56-.26,3.92,3.92,0,0,0,1.27-.83l1.74,1.89a5.86,5.86,0,0,1-4.66,1.82A7.47,7.47,0,0,1,276.2,37,5.56,5.56,0,0,1,273.93,35a5.7,5.7,0,0,1-.79-3,5.84,5.84,0,0,1,.78-3,5.57,5.57,0,0,1,2.17-2.08,6.74,6.74,0,0,1,6.08,0,5.33,5.33,0,0,1,2.11,2.05A6.11,6.11,0,0,1,285,32S285,32.32,285,32.87Zm-7.67-3.63a2.68,2.68,0,0,0-.92,1.72H282a2.71,2.71,0,0,0-.93-1.71,2.74,2.74,0,0,0-1.85-.64A2.84,2.84,0,0,0,277.31,29.24Z"/><path class="cls-3" d="M288.28,37.42a7.26,7.26,0,0,1-2.15-.88l1.1-2.35a6.79,6.79,0,0,0,1.82.79,7.85,7.85,0,0,0,2.1.31c1.39,0,2.08-.35,2.08-1a.73.73,0,0,0-.56-.7,8,8,0,0,0-1.75-.35,16,16,0,0,1-2.29-.49,3.53,3.53,0,0,1-1.56-1,2.77,2.77,0,0,1-.66-2,3.07,3.07,0,0,1,.62-1.9,4,4,0,0,1,1.8-1.29,7.7,7.7,0,0,1,2.81-.46,11.34,11.34,0,0,1,2.38.26,6.64,6.64,0,0,1,2,.73l-1.09,2.33a6.51,6.51,0,0,0-3.25-.84,3.42,3.42,0,0,0-1.58.29.87.87,0,0,0-.52.76.75.75,0,0,0,.56.73,9.54,9.54,0,0,0,1.81.4,22.41,22.41,0,0,1,2.27.49,3.44,3.44,0,0,1,1.53,1,2.73,2.73,0,0,1,.65,1.93,3,3,0,0,1-.63,1.87,4,4,0,0,1-1.84,1.27,8.18,8.18,0,0,1-2.86.45A11,11,0,0,1,288.28,37.42Z"/><path class="cls-3" d="M311.61,37.05a3.17,3.17,0,0,1-1.19.53,5.94,5.94,0,0,1-1.48.18,4.4,4.4,0,0,1-3.12-1,3.94,3.94,0,0,1-1.1-3V29.07H303V26.55h1.74V23.8H308v2.75h2.81v2.52H308v4.6a1.57,1.57,0,0,0,.36,1.1,1.36,1.36,0,0,0,1,.39,2.13,2.13,0,0,0,1.33-.42Z"/><path class="cls-3" d="M315.27,37a5.57,5.57,0,0,1-3-5.07,5.67,5.67,0,0,1,.8-3,5.59,5.59,0,0,1,2.21-2.07,7.29,7.29,0,0,1,6.4,0,5.62,5.62,0,0,1,2.2,2.07,5.76,5.76,0,0,1,.8,3,5.7,5.7,0,0,1-.8,3,5.62,5.62,0,0,1-2.2,2.07,7.29,7.29,0,0,1-6.4,0Zm5.27-2.8a3.14,3.14,0,0,0,.81-2.27,3.15,3.15,0,0,0-.81-2.28,2.95,2.95,0,0,0-4.14,0,3.11,3.11,0,0,0-.82,2.28,3.1,3.1,0,0,0,.82,2.27,2.92,2.92,0,0,0,4.14,0Z"/><path class="cls-3" d="M124.75,59.64h-6.82l-1.31,3.15h-3.48l6.55-14.7h3.36l6.57,14.7h-3.57Zm-1.07-2.58-2.33-5.63L119,57.06Z"/><path class="cls-3" d="M133,62.22a5.7,5.7,0,0,1,0-10.15,7,7,0,0,1,3.24-.74,6.37,6.37,0,0,1,3.12.74,4.39,4.39,0,0,1,1.94,2.14l-2.54,1.36A2.78,2.78,0,0,0,136.26,54a2.88,2.88,0,0,0-2.12.84,3.53,3.53,0,0,0,0,4.57,2.85,2.85,0,0,0,2.12.85,2.74,2.74,0,0,0,2.54-1.56l2.54,1.39a4.53,4.53,0,0,1-1.94,2.1,6.26,6.26,0,0,1-3.12.75A7,7,0,0,1,133,62.22Z"/><path class="cls-3" d="M145.3,62.22a5.7,5.7,0,0,1,0-10.15,7,7,0,0,1,3.24-.74,6.37,6.37,0,0,1,3.12.74,4.46,4.46,0,0,1,2,2.14l-2.55,1.36A2.77,2.77,0,0,0,148.52,54a2.88,2.88,0,0,0-2.12.84,3.53,3.53,0,0,0,0,4.57,2.85,2.85,0,0,0,2.12.85,2.74,2.74,0,0,0,2.54-1.56l2.55,1.39a4.6,4.6,0,0,1-2,2.1,6.26,6.26,0,0,1-3.12.75A7,7,0,0,1,145.3,62.22Z"/><path class="cls-3" d="M166.35,58.07h-8.54a2.63,2.63,0,0,0,1.09,1.66,3.65,3.65,0,0,0,2.14.61,4.4,4.4,0,0,0,1.56-.26,3.92,3.92,0,0,0,1.27-.83l1.75,1.89A5.89,5.89,0,0,1,161,63a7.48,7.48,0,0,1-3.39-.74,5.47,5.47,0,0,1-2.26-2.07,5.61,5.61,0,0,1-.8-3,5.75,5.75,0,0,1,.79-3,5.47,5.47,0,0,1,2.16-2.08,6.74,6.74,0,0,1,6.08,0,5.27,5.27,0,0,1,2.11,2.05,6.12,6.12,0,0,1,.77,3.1S166.39,57.52,166.35,58.07Zm-7.66-3.63a2.69,2.69,0,0,0-.93,1.72h5.57a2.69,2.69,0,0,0-.93-1.71,2.73,2.73,0,0,0-1.84-.64A2.8,2.8,0,0,0,158.69,54.44Z"/><path class="cls-3" d="M168.6,47.21h3.28V62.79H168.6Z"/><path class="cls-3" d="M185.92,58.07h-8.54a2.67,2.67,0,0,0,1.09,1.66,3.65,3.65,0,0,0,2.14.61,4.49,4.49,0,0,0,1.57-.26,4.15,4.15,0,0,0,1.27-.83l1.74,1.89A5.89,5.89,0,0,1,180.53,63a7.44,7.44,0,0,1-3.38-.74,5.49,5.49,0,0,1-2.27-2.07,6.06,6.06,0,0,1,0-6A5.47,5.47,0,0,1,177,52.07a6.74,6.74,0,0,1,6.08,0,5.2,5.2,0,0,1,2.11,2.05,6.12,6.12,0,0,1,.77,3.1S186,57.52,185.92,58.07Zm-7.66-3.63a2.73,2.73,0,0,0-.93,1.72h5.57a2.73,2.73,0,0,0-.92-1.71,2.76,2.76,0,0,0-1.85-.64A2.82,2.82,0,0,0,178.26,54.44Z"/><path class="cls-3" d="M192.89,51.75a5.85,5.85,0,0,1,2.29-.42v3l-.73,0a3,3,0,0,0-2.2.79,3.14,3.14,0,0,0-.8,2.36v5.33h-3.28V51.5h3.13V53A3.59,3.59,0,0,1,192.89,51.75Z"/><path class="cls-3" d="M205.66,52.58a4.77,4.77,0,0,1,1.41,3.77v6.44H204v-1.4c-.61,1-1.76,1.57-3.44,1.57a5.27,5.27,0,0,1-2.26-.44,3.39,3.39,0,0,1-1.46-1.22,3.18,3.18,0,0,1-.5-1.76,3,3,0,0,1,1.19-2.48,6,6,0,0,1,3.66-.9h2.6a2.08,2.08,0,0,0-.65-1.65,2.87,2.87,0,0,0-1.95-.58,5.66,5.66,0,0,0-1.77.29,4.69,4.69,0,0,0-1.48.76l-1.18-2.29a7,7,0,0,1,2.22-1,9.79,9.79,0,0,1,2.65-.36A5.88,5.88,0,0,1,205.66,52.58Zm-2.79,7.79a2.12,2.12,0,0,0,.92-1.15V58.07h-2.24c-1.35,0-2,.44-2,1.32a1.18,1.18,0,0,0,.5,1,2.17,2.17,0,0,0,1.35.37A2.83,2.83,0,0,0,202.87,60.37Z"/><path class="cls-3" d="M217.32,62.25a3.17,3.17,0,0,1-1.19.53,5.94,5.94,0,0,1-1.48.18,4.4,4.4,0,0,1-3.12-1,3.94,3.94,0,0,1-1.1-3V54.27h-1.74V51.75h1.74V49h3.28v2.75h2.81v2.52h-2.81v4.6a1.53,1.53,0,0,0,.37,1.1,1.34,1.34,0,0,0,1,.39,2.13,2.13,0,0,0,1.33-.42Z"/><path class="cls-3" d="M229.81,58.07h-8.54a2.67,2.67,0,0,0,1.09,1.66,3.65,3.65,0,0,0,2.14.61,4.49,4.49,0,0,0,1.57-.26,4.15,4.15,0,0,0,1.27-.83l1.74,1.89A5.89,5.89,0,0,1,224.42,63a7.44,7.44,0,0,1-3.38-.74,5.49,5.49,0,0,1-2.27-2.07,6.06,6.06,0,0,1,0-6,5.47,5.47,0,0,1,2.16-2.08A6.74,6.74,0,0,1,227,52a5.2,5.2,0,0,1,2.11,2.05,6.12,6.12,0,0,1,.77,3.1S229.86,57.52,229.81,58.07Zm-7.66-3.63a2.73,2.73,0,0,0-.93,1.72h5.57a2.73,2.73,0,0,0-.92-1.71,2.76,2.76,0,0,0-1.85-.64A2.82,2.82,0,0,0,222.15,54.44Z"/><path class="cls-3" d="M245.29,62.25a3.17,3.17,0,0,1-1.19.53,5.94,5.94,0,0,1-1.48.18,4.36,4.36,0,0,1-3.11-1,3.9,3.9,0,0,1-1.11-3V54.27h-1.74V51.75h1.74V49h3.28v2.75h2.81v2.52h-2.81v4.6a1.53,1.53,0,0,0,.37,1.1,1.35,1.35,0,0,0,1,.39,2.12,2.12,0,0,0,1.32-.42Z"/><path class="cls-3" d="M257.4,52.59a5,5,0,0,1,1.29,3.74v6.46h-3.28v-6a3,3,0,0,0-.58-2,2.15,2.15,0,0,0-1.71-.67,2.61,2.61,0,0,0-2,.77,3.17,3.17,0,0,0-.73,2.28v5.58h-3.28V47.21h3.28v5.46a4.29,4.29,0,0,1,1.57-1,5.53,5.53,0,0,1,2-.35A4.64,4.64,0,0,1,257.4,52.59Z"/><path class="cls-3" d="M272.78,58.07h-8.55a2.71,2.71,0,0,0,1.09,1.66,3.69,3.69,0,0,0,2.15.61,4.44,4.44,0,0,0,1.56-.26,3.92,3.92,0,0,0,1.27-.83L272,61.14A5.86,5.86,0,0,1,267.38,63a7.47,7.47,0,0,1-3.38-.74,5.56,5.56,0,0,1-2.27-2.07,5.7,5.7,0,0,1-.79-3,5.84,5.84,0,0,1,.78-3,5.57,5.57,0,0,1,2.17-2.08A6.74,6.74,0,0,1,270,52a5.33,5.33,0,0,1,2.11,2.05,6.11,6.11,0,0,1,.76,3.1S272.82,57.52,272.78,58.07Zm-7.67-3.63a2.68,2.68,0,0,0-.92,1.72h5.57a2.79,2.79,0,0,0-.93-1.71,2.74,2.74,0,0,0-1.85-.64A2.84,2.84,0,0,0,265.11,54.44Z"/><path class="cls-3" d="M290.88,59.64h-6.82l-1.31,3.15h-3.48l6.55-14.7h3.36l6.57,14.7h-3.57Zm-1.07-2.58-2.33-5.63-2.33,5.63Z"/><path class="cls-3" d="M299.17,62.22a5.7,5.7,0,0,1,0-10.15,7,7,0,0,1,3.24-.74,6.37,6.37,0,0,1,3.12.74,4.39,4.39,0,0,1,1.94,2.14l-2.54,1.36A2.78,2.78,0,0,0,302.39,54a2.88,2.88,0,0,0-2.12.84,3.53,3.53,0,0,0,0,4.57,2.85,2.85,0,0,0,2.12.85,2.74,2.74,0,0,0,2.54-1.56l2.54,1.39a4.53,4.53,0,0,1-1.94,2.1,6.26,6.26,0,0,1-3.12.75A7,7,0,0,1,299.17,62.22Z"/><path class="cls-3" d="M319.54,52.59a5,5,0,0,1,1.29,3.74v6.46h-3.28v-6a2.9,2.9,0,0,0-.59-2,2.13,2.13,0,0,0-1.7-.67,2.61,2.61,0,0,0-2,.77,3.17,3.17,0,0,0-.74,2.28v5.58h-3.27V47.21h3.27v5.46a4.42,4.42,0,0,1,1.58-1,5.48,5.48,0,0,1,2-.35A4.68,4.68,0,0,1,319.54,52.59Z"/><path class="cls-3" d="M324,49.4a1.78,1.78,0,0,1,0-2.61,2,2,0,0,1,1.47-.52,2.16,2.16,0,0,1,1.47.5,1.65,1.65,0,0,1,.56,1.26,1.82,1.82,0,0,1-.56,1.36,2.09,2.09,0,0,1-1.47.53A2,2,0,0,1,324,49.4Zm-.17,2.1h3.27V62.79h-3.27Z"/><path class="cls-3" d="M341.11,58.07h-8.54a2.63,2.63,0,0,0,1.09,1.66,3.65,3.65,0,0,0,2.14.61,4.4,4.4,0,0,0,1.56-.26,3.92,3.92,0,0,0,1.27-.83l1.75,1.89A5.89,5.89,0,0,1,335.72,63a7.48,7.48,0,0,1-3.39-.74,5.47,5.47,0,0,1-2.26-2.07,6.06,6.06,0,0,1,0-6,5.47,5.47,0,0,1,2.16-2.08,6.74,6.74,0,0,1,6.08,0,5.27,5.27,0,0,1,2.11,2.05,6.12,6.12,0,0,1,.77,3.1S341.16,57.52,341.11,58.07Zm-7.66-3.63a2.69,2.69,0,0,0-.93,1.72h5.57a2.73,2.73,0,0,0-.92-1.71,3,3,0,0,0-3.72,0Z"/><path class="cls-3" d="M354.36,51.5,349.6,62.79h-3.38L341.47,51.5h3.38L348,59.18l3.23-7.68Z"/><path class="cls-3" d="M366.4,58.07h-8.55a2.67,2.67,0,0,0,1.09,1.66,3.68,3.68,0,0,0,2.14.61,4.49,4.49,0,0,0,1.57-.26,4,4,0,0,0,1.27-.83l1.74,1.89A5.88,5.88,0,0,1,361,63a7.47,7.47,0,0,1-3.38-.74,5.49,5.49,0,0,1-2.27-2.07,5.7,5.7,0,0,1-.8-3,5.84,5.84,0,0,1,.79-3,5.61,5.61,0,0,1,2.16-2.08,6.46,6.46,0,0,1,3.08-.74,6.33,6.33,0,0,1,3,.71,5.2,5.2,0,0,1,2.11,2.05,6.12,6.12,0,0,1,.77,3.1S366.44,57.52,366.4,58.07Zm-7.67-3.63a2.68,2.68,0,0,0-.92,1.72h5.56a2.68,2.68,0,0,0-2.77-2.35A2.84,2.84,0,0,0,358.73,54.44Z"/><path class="cls-3" d="M386.48,52.58a5.06,5.06,0,0,1,1.25,3.75v6.46h-3.27v-6a3.06,3.06,0,0,0-.56-2,1.94,1.94,0,0,0-1.59-.67,2.32,2.32,0,0,0-1.82.75,3.21,3.21,0,0,0-.67,2.21v5.67h-3.28v-6c0-1.78-.71-2.67-2.14-2.67a2.31,2.31,0,0,0-1.81.75,3.21,3.21,0,0,0-.67,2.21v5.67h-3.28V51.5h3.13v1.3a4.08,4.08,0,0,1,1.55-1.09,5.2,5.2,0,0,1,2-.38,4.89,4.89,0,0,1,2.16.47A3.86,3.86,0,0,1,379,53.18a4.56,4.56,0,0,1,1.75-1.37,5.57,5.57,0,0,1,2.32-.48A4.55,4.55,0,0,1,386.48,52.58Z"/><path class="cls-3" d="M401.8,58.07h-8.55a2.69,2.69,0,0,0,1.1,1.66,3.63,3.63,0,0,0,2.14.61,4.4,4.4,0,0,0,1.56-.26,3.92,3.92,0,0,0,1.27-.83l1.75,1.89A5.89,5.89,0,0,1,396.41,63a7.48,7.48,0,0,1-3.39-.74,5.47,5.47,0,0,1-2.26-2.07,5.61,5.61,0,0,1-.8-3,5.75,5.75,0,0,1,.79-3,5.47,5.47,0,0,1,2.16-2.08A6.74,6.74,0,0,1,399,52a5.27,5.27,0,0,1,2.11,2.05,6.12,6.12,0,0,1,.77,3.1S401.84,57.52,401.8,58.07Zm-7.66-3.63a2.69,2.69,0,0,0-.93,1.72h5.57a2.69,2.69,0,0,0-.93-1.71,2.73,2.73,0,0,0-1.84-.64A2.8,2.8,0,0,0,394.14,54.44Z"/><path class="cls-3" d="M414.31,52.59a5,5,0,0,1,1.29,3.74v6.46h-3.28v-6a3,3,0,0,0-.58-2,2.15,2.15,0,0,0-1.71-.67,2.61,2.61,0,0,0-2,.77,3.17,3.17,0,0,0-.73,2.28v5.58h-3.28V51.5h3.13v1.32a4.28,4.28,0,0,1,1.61-1.1,5.68,5.68,0,0,1,2.13-.39A4.64,4.64,0,0,1,414.31,52.59Z"/><path class="cls-3" d="M425.85,62.25a3.25,3.25,0,0,1-1.19.53,5.94,5.94,0,0,1-1.48.18,4.4,4.4,0,0,1-3.12-1,3.94,3.94,0,0,1-1.1-3V54.27h-1.74V51.75H419V49h3.27v2.75h2.82v2.52h-2.82v4.6a1.57,1.57,0,0,0,.37,1.1,1.36,1.36,0,0,0,1,.39,2.08,2.08,0,0,0,1.32-.42Z"/><path class="cls-3" d="M117,87.42a5.59,5.59,0,0,1-2.21-2.07,5.7,5.7,0,0,1-.8-3,5.76,5.76,0,0,1,.8-3A5.59,5.59,0,0,1,117,77.27a6.9,6.9,0,0,1,3.21-.74,6.79,6.79,0,0,1,3.19.74,5.62,5.62,0,0,1,2.2,2.07,5.76,5.76,0,0,1,.8,3,5.7,5.7,0,0,1-.8,3,5.62,5.62,0,0,1-2.2,2.07,6.67,6.67,0,0,1-3.19.74A6.78,6.78,0,0,1,117,87.42Zm5.27-2.8a3.6,3.6,0,0,0,0-4.55,2.69,2.69,0,0,0-2.06-.85,2.74,2.74,0,0,0-2.08.85,3.57,3.57,0,0,0,0,4.55,2.75,2.75,0,0,0,2.08.86A2.69,2.69,0,0,0,122.28,84.62Z"/><path class="cls-3" d="M132.19,77h2.89v2.52h-2.81V88H129V79.47h-1.74V77H129v-.5a4.13,4.13,0,0,1,1.15-3.07,4.36,4.36,0,0,1,3.22-1.13,6.33,6.33,0,0,1,1.4.15,3.61,3.61,0,0,1,1.1.45L135,75.23a2.22,2.22,0,0,0-1.32-.4c-1,0-1.49.54-1.49,1.64Z"/><path class="cls-3" d="M150,87.45a3.17,3.17,0,0,1-1.19.53,5.94,5.94,0,0,1-1.48.18,4.36,4.36,0,0,1-3.11-1,3.9,3.9,0,0,1-1.11-3V79.47h-1.74V77h1.74V74.2h3.28V77h2.81v2.52h-2.81v4.6a1.53,1.53,0,0,0,.37,1.1,1.35,1.35,0,0,0,1,.39,2.1,2.1,0,0,0,1.32-.42Z"/><path class="cls-3" d="M162.06,77.79a5,5,0,0,1,1.29,3.74V88h-3.28V82a3,3,0,0,0-.58-2,2.15,2.15,0,0,0-1.71-.67,2.61,2.61,0,0,0-2,.77,3.17,3.17,0,0,0-.73,2.28V88H151.8V72.41h3.28v5.46a4.29,4.29,0,0,1,1.57-1,5.53,5.53,0,0,1,2-.35A4.64,4.64,0,0,1,162.06,77.79Z"/><path class="cls-3" d="M177.44,83.27h-8.55A2.71,2.71,0,0,0,170,84.93a3.69,3.69,0,0,0,2.15.61,4.44,4.44,0,0,0,1.56-.26,3.92,3.92,0,0,0,1.27-.83l1.74,1.89A5.86,5.86,0,0,1,172,88.16a7.34,7.34,0,0,1-3.38-.74,5.56,5.56,0,0,1-2.27-2.07,5.7,5.7,0,0,1-.79-3,5.84,5.84,0,0,1,.78-3,5.57,5.57,0,0,1,2.17-2.08,6.74,6.74,0,0,1,6.08,0,5.33,5.33,0,0,1,2.11,2.05,6.11,6.11,0,0,1,.76,3.1S177.48,82.72,177.44,83.27Zm-7.67-3.63a2.68,2.68,0,0,0-.92,1.72h5.57A2.7,2.7,0,0,0,171.64,79,2.84,2.84,0,0,0,169.77,79.64Z"/><path class="cls-3" d="M187.32,87.77a7.73,7.73,0,0,1-2.61-1.22L185.86,84a7.64,7.64,0,0,0,2.25,1.12,8.42,8.42,0,0,0,2.6.42,4.21,4.21,0,0,0,2.14-.43,1.3,1.3,0,0,0,.7-1.15,1.1,1.1,0,0,0-.41-.87,3.27,3.27,0,0,0-1-.56c-.43-.14-1-.29-1.74-.46a22.33,22.33,0,0,1-2.75-.8A4.39,4.39,0,0,1,185.77,80a3.41,3.41,0,0,1-.77-2.35,4.1,4.1,0,0,1,.69-2.32,4.71,4.71,0,0,1,2.09-1.65,8.63,8.63,0,0,1,3.41-.61,11.59,11.59,0,0,1,2.76.34,8.16,8.16,0,0,1,2.35,1l-1.05,2.59a8.23,8.23,0,0,0-4.08-1.16,3.81,3.81,0,0,0-2.11.47,1.4,1.4,0,0,0-.68,1.21,1.19,1.19,0,0,0,.79,1.13,12.7,12.7,0,0,0,2.4.72,23.64,23.64,0,0,1,2.75.8,4.6,4.6,0,0,1,1.84,1.26,3.38,3.38,0,0,1,.77,2.33,4,4,0,0,1-.71,2.3,4.77,4.77,0,0,1-2.11,1.65,8.68,8.68,0,0,1-3.42.61A11.83,11.83,0,0,1,187.32,87.77Z"/><path class="cls-3" d="M199.26,73.29h6.68a9.4,9.4,0,0,1,4.23.92A6.9,6.9,0,0,1,213,76.78a7.83,7.83,0,0,1,0,7.73,6.83,6.83,0,0,1-2.85,2.57,9.4,9.4,0,0,1-4.23.92h-6.68Zm6.51,11.91A5,5,0,0,0,209.29,84a4.87,4.87,0,0,0,0-6.65,5,5,0,0,0-3.52-1.23h-3.11V85.2Z"/><path class="cls-3" d="M226.54,80.41h3.11v6a8.93,8.93,0,0,1-2.78,1.38,10.48,10.48,0,0,1-3.17.49,8.58,8.58,0,0,1-4.11-1,7.21,7.21,0,0,1-2.87-2.71,7.89,7.89,0,0,1,0-7.83A7.2,7.2,0,0,1,219.61,74a8.74,8.74,0,0,1,4.15-1,9.18,9.18,0,0,1,3.51.65,7.14,7.14,0,0,1,2.65,1.89l-2.19,2a5,5,0,0,0-3.8-1.66,5.24,5.24,0,0,0-2.5.59,4.24,4.24,0,0,0-1.7,1.66,4.93,4.93,0,0,0-.61,2.46,4.87,4.87,0,0,0,.61,2.43,4.37,4.37,0,0,0,1.69,1.67,5,5,0,0,0,2.47.6,5.55,5.55,0,0,0,2.65-.63Z"/><path class="cls-3" d="M233.61,87.82a7.47,7.47,0,0,1-2.14-.87l1.09-2.36a6.69,6.69,0,0,0,1.83.79,7.8,7.8,0,0,0,2.1.31c1.39,0,2.08-.35,2.08-1A.73.73,0,0,0,238,84a8,8,0,0,0-1.74-.35,15.65,15.65,0,0,1-2.29-.49,3.53,3.53,0,0,1-1.56-1,2.75,2.75,0,0,1-.66-2,3.12,3.12,0,0,1,.61-1.9A4.08,4.08,0,0,1,234.17,77a7.68,7.68,0,0,1,2.8-.46,11.36,11.36,0,0,1,2.39.26,6.75,6.75,0,0,1,2,.73l-1.09,2.33A6.54,6.54,0,0,0,237,79a3.37,3.37,0,0,0-1.57.29.88.88,0,0,0-.53.76.75.75,0,0,0,.57.73,9.54,9.54,0,0,0,1.81.4,21.55,21.55,0,0,1,2.26.49,3.52,3.52,0,0,1,1.54,1,2.73,2.73,0,0,1,.65,1.93,3,3,0,0,1-.63,1.87,4,4,0,0,1-1.84,1.27,8.18,8.18,0,0,1-2.86.45A11.1,11.1,0,0,1,233.61,87.82Z"/></svg>