<svg id="Layer_1" data-name="Layer 1" xmlns="http://www.w3.org/2000/svg" xmlns:xlink="http://www.w3.org/1999/xlink" viewBox="0 0 654 250"><defs><style>.cls-1,.cls-3,.cls-4{fill:none;}.cls-2{clip-path:url(#clip-path);}.cls-3{stroke:#2681d6;}.cls-3,.cls-4{stroke-miterlimit:10;}.cls-4{stroke:#2d9847;stroke-width:2.6px;}.cls-5{fill:#2d9847;}.cls-6{opacity:0.15;}.cls-7{fill:#fff;}</style><clipPath id="clip-path"><rect class="cls-1" x="-1997.87" width="1920" height="142.18"/></clipPath></defs><g class="cls-2"><path class="cls-3" d="M-77.87,334.28l54.42-54.41h0L185.25,71.16-23.45-137.55h0L-77.87-192-341,71.16ZM-270.73,34.85l36.31,36.31-36.31,36.31L-307,71.16ZM115,107.47,78.68,71.16,115,34.85l36.31,36.31ZM-40.43,262.89h0l-37.44,37.45-85.07-85.07,68.22-68.21L-165,76.8-216,127.85-180.91,163l17-17-18.15-18.16L-165,110.74l36.31,36.32-51.24,51.23-73.85-73.84,53.29-53.29-53.29-53.28L-179.91-56l51.24,51.24L-165,31.58l-17.11-17.11,18.15-18.16-17-17L-216,14.47-165,65.52-94.72-4.73l-68.22-68.22,47.63-47.62h0L-77.87-158l37.44,37.45h0L7.2-72.95-61-4.73,9.25,65.52l51.05-51L25.17-20.66l-17,17L26.36,14.47,9.25,31.58-27.07-4.73,24.17-56,98,17.88,44.74,71.16,98,124.45,24.17,198.29l-51.24-51.23L9.25,110.74l17.11,17.11L8.2,146l17,17L60.3,127.85l-51-51L-61,147.06,7.2,215.27Z"/></g><polygon class="cls-4" points="12.67 125 126.36 238.69 527.64 238.69 641.33 125 527.64 11.31 126.36 11.31 12.67 125"/><path d="M301.37,136.28a4.91,4.91,0,0,1-.93,3.12,3.07,3.07,0,0,1-2.55,1.19,3.25,3.25,0,0,1-1.55-.35,2.93,2.93,0,0,1-1.09-1l-.26,1.21h-1.25V127.52h1.62v5a2.86,2.86,0,0,1,1.05-.91,3.2,3.2,0,0,1,1.46-.31,3,3,0,0,1,2.58,1.32,6,6,0,0,1,.92,3.48Zm-1.63-.17a4.91,4.91,0,0,0-.56-2.51,1.86,1.86,0,0,0-1.72-1,2.08,2.08,0,0,0-1.27.37,2.54,2.54,0,0,0-.83,1v3.87a2.61,2.61,0,0,0,.83,1,2.09,2.09,0,0,0,1.28.37,1.93,1.93,0,0,0,1.71-.81,3.74,3.74,0,0,0,.56-2.17Z"/><path d="M307.06,140.59a3.79,3.79,0,0,1-3-1.23,4.73,4.73,0,0,1-1.08-3.24v-.37a4.59,4.59,0,0,1,1.12-3.18,3.47,3.47,0,0,1,2.71-1.26,3.25,3.25,0,0,1,2.69,1.11,4.61,4.61,0,0,1,.9,3v.86h-5.72l0,0a3.68,3.68,0,0,0,.6,2.19,2.1,2.1,0,0,0,1.82.83,4,4,0,0,0,1.45-.23,3.3,3.3,0,0,0,1.07-.65l.63,1.06a3.87,3.87,0,0,1-1.26.78A5.08,5.08,0,0,1,307.06,140.59Zm-.26-8a1.76,1.76,0,0,0-1.41.66,3,3,0,0,0-.68,1.68l0,0h4v-.13a2.59,2.59,0,0,0-.48-1.61A1.72,1.72,0,0,0,306.8,132.59Z"/><path d="M313.67,131.47l.11,1.33a3.27,3.27,0,0,1,1.12-1.1,3,3,0,0,1,1.53-.39,2.9,2.9,0,0,1,2.24.85,3.69,3.69,0,0,1,.8,2.61v5.64h-1.63V134.8a2.41,2.41,0,0,0-.47-1.67,1.86,1.86,0,0,0-1.42-.5,2.55,2.55,0,0,0-1.28.3,2.19,2.19,0,0,0-.83.85v6.63h-1.63v-8.94Z"/><path d="M325.53,140.59a3.78,3.78,0,0,1-3-1.23,4.73,4.73,0,0,1-1.08-3.24v-.37a4.63,4.63,0,0,1,1.11-3.18,3.49,3.49,0,0,1,2.72-1.26,3.23,3.23,0,0,1,2.68,1.11,4.61,4.61,0,0,1,.9,3v.86h-5.72l0,0a3.75,3.75,0,0,0,.59,2.19,2.11,2.11,0,0,0,1.82.83,4,4,0,0,0,1.45-.23,3.2,3.2,0,0,0,1.07-.65l.64,1.06a3.82,3.82,0,0,1-1.27.78A5,5,0,0,1,325.53,140.59Zm-.25-8a1.76,1.76,0,0,0-1.41.66,3.06,3.06,0,0,0-.69,1.68l0,0h4v-.13a2.59,2.59,0,0,0-.48-1.61A1.71,1.71,0,0,0,325.28,132.59Z"/><path d="M331.14,140.41v-7.73h-1.4v-1.21h1.4v-1a3,3,0,0,1,.88-2.33,3.44,3.44,0,0,1,2.44-.83,4.4,4.4,0,0,1,1.09.13c.36.08.78.21,1.27.37l-.28,1.33a6.88,6.88,0,0,0-.94-.3,4.29,4.29,0,0,0-1-.12,2,2,0,0,0-1.4.42,1.85,1.85,0,0,0-.42,1.33v1h1.77v1.21h-1.77v7.73Zm6.47,0H336v-8.94h1.64Z"/><path d="M342.37,129.32v2.15h1.69v1.21h-1.69v5.43a1.22,1.22,0,0,0,.26.88.94.94,0,0,0,.69.26,1.2,1.2,0,0,0,.31,0,1.3,1.3,0,0,0,.29-.08l.23,1.12a1.43,1.43,0,0,1-.54.24,2.47,2.47,0,0,1-.7.1,2.11,2.11,0,0,1-1.58-.6,2.61,2.61,0,0,1-.59-1.88v-5.43h-1.42v-1.21h1.42v-2.15Z"/><path d="M348.07,129.32v2.15h1.69v1.21h-1.69v5.43a1.22,1.22,0,0,0,.26.88.94.94,0,0,0,.69.26,1.2,1.2,0,0,0,.31,0,1.3,1.3,0,0,0,.29-.08l.23,1.12a1.36,1.36,0,0,1-.54.24,2.47,2.47,0,0,1-.7.1A2.11,2.11,0,0,1,347,140a2.61,2.61,0,0,1-.59-1.88v-5.43H345v-1.21h1.42v-2.15Z"/><path d="M355.21,140.59a3.77,3.77,0,0,1-3-1.23,4.73,4.73,0,0,1-1.08-3.24v-.37a4.63,4.63,0,0,1,1.11-3.18,3.47,3.47,0,0,1,2.71-1.26,3.25,3.25,0,0,1,2.69,1.11,4.61,4.61,0,0,1,.9,3v.86h-5.72l0,0a3.68,3.68,0,0,0,.59,2.19,2.1,2.1,0,0,0,1.82.83,4,4,0,0,0,1.45-.23,3.3,3.3,0,0,0,1.07-.65l.64,1.06a3.92,3.92,0,0,1-1.27.78A5,5,0,0,1,355.21,140.59Zm-.26-8a1.79,1.79,0,0,0-1.41.66,3,3,0,0,0-.68,1.68l0,0h4v-.13a2.59,2.59,0,0,0-.48-1.61A1.72,1.72,0,0,0,355,132.59Z"/><path d="M360,136.11a6,6,0,0,1,.92-3.48,3,3,0,0,1,2.59-1.32,3.12,3.12,0,0,1,1.39.29,2.89,2.89,0,0,1,1,.84v-4.92h1.62v12.89H366.3l-.24-1.13a3,3,0,0,1-1.08,1,3.25,3.25,0,0,1-1.5.33,3.07,3.07,0,0,1-2.56-1.19,4.91,4.91,0,0,1-.93-3.12Zm1.63.17a3.77,3.77,0,0,0,.55,2.17,2,2,0,0,0,1.72.81,2.19,2.19,0,0,0,1.23-.33,2.43,2.43,0,0,0,.81-.92v-4.17a2.49,2.49,0,0,0-.82-.88,2.11,2.11,0,0,0-1.2-.33,1.85,1.85,0,0,0-1.73,1,5,5,0,0,0-.56,2.51Z"/><path d="M374.87,140.41v-7.73h-1.4v-1.21h1.4v-1.13a3.06,3.06,0,0,1,.74-2.21,2.77,2.77,0,0,1,2.09-.78,3.66,3.66,0,0,1,.57.05l.63.12-.2,1.24-.36,0a3.15,3.15,0,0,0-.44,0,1.26,1.26,0,0,0-1.06.43,1.9,1.9,0,0,0-.35,1.23v1.13h1.62v1.21h-1.62v7.73Z"/><path d="M384,132.91l-.84,0a1.79,1.79,0,0,0-1.08.31,1.92,1.92,0,0,0-.69.86v6.38h-1.62v-8.94h1.45l.16,1.31a3.09,3.09,0,0,1,.93-1.08,2.21,2.21,0,0,1,1.29-.39,2,2,0,0,1,.35,0l.27.06Z"/><path d="M385.14,135.86a4.91,4.91,0,0,1,1.07-3.27,4,4,0,0,1,5.85,0,4.88,4.88,0,0,1,1.08,3.27V136a4.89,4.89,0,0,1-1.07,3.27,4,4,0,0,1-5.86,0,4.88,4.88,0,0,1-1.07-3.27Zm1.62.18a4.25,4.25,0,0,0,.6,2.35,2.17,2.17,0,0,0,3.55,0,4.25,4.25,0,0,0,.6-2.35v-.18a4.26,4.26,0,0,0-.6-2.34,2,2,0,0,0-1.78-.93,2,2,0,0,0-1.77.93,4.26,4.26,0,0,0-.6,2.34Z"/><path d="M396.59,131.47l.11,1.18a2.93,2.93,0,0,1,1.11-1,3.4,3.4,0,0,1,1.57-.35,2.8,2.8,0,0,1,1.53.41,2.48,2.48,0,0,1,1,1.24,3.44,3.44,0,0,1,1.12-1.21,3,3,0,0,1,1.62-.44,2.67,2.67,0,0,1,2.16.94,4.31,4.31,0,0,1,.79,2.82v5.34h-1.63v-5.36a3,3,0,0,0-.45-1.87,1.67,1.67,0,0,0-1.36-.55,1.73,1.73,0,0,0-1.35.58,2.52,2.52,0,0,0-.61,1.46v5.74h-1.63v-5.36a2.94,2.94,0,0,0-.47-1.84,1.61,1.61,0,0,0-1.34-.58,2.17,2.17,0,0,0-1.22.31,2,2,0,0,0-.74.86v6.61h-1.63v-8.94Z"/><path d="M423.22,128.38v8a3.89,3.89,0,0,1-1.28,3.1,4.88,4.88,0,0,1-3.33,1.12,4.64,4.64,0,0,1-3.2-1.12,4,4,0,0,1-1.25-3.1v-8h1.63v8a2.89,2.89,0,0,0,.79,2.16,2.75,2.75,0,0,0,2,.78,3,3,0,0,0,2.16-.78,2.83,2.83,0,0,0,.83-2.16v-8Z"/><path d="M434.9,140.41h-1.63l-5.79-9.18h-.05v9.17H425.8v-12h1.63l5.79,9.18h0v-9.17h1.63Z"/><path d="M446.9,138a1.1,1.1,0,0,0-.41-.88,4.1,4.1,0,0,0-1.55-.59,6.61,6.61,0,0,1-2.43-.95,1.93,1.93,0,0,1-.84-1.64,2.34,2.34,0,0,1,.93-1.86,4.11,4.11,0,0,1,4.87,0,2.41,2.41,0,0,1,.9,1.93l0,.05H446.8a1.39,1.39,0,0,0-.51-1.05,2.14,2.14,0,0,0-2.57-.08,1.22,1.22,0,0,0-.43.92,1,1,0,0,0,.37.82,4.15,4.15,0,0,0,1.52.53,6.42,6.42,0,0,1,2.49,1,2,2,0,0,1,.85,1.66,2.37,2.37,0,0,1-1,2,4.6,4.6,0,0,1-5.21-.12,2.49,2.49,0,0,1-.93-2v0H443a1.5,1.5,0,0,0,.64,1.26,2.51,2.51,0,0,0,1.42.4,2.29,2.29,0,0,0,1.36-.36A1.15,1.15,0,0,0,446.9,138Z"/><path d="M456.22,139.09a3,3,0,0,1-1.08,1.11,3,3,0,0,1-1.53.39,2.86,2.86,0,0,1-2.28-.94,4.36,4.36,0,0,1-.81-2.91v-5.27h1.62v5.29a3.36,3.36,0,0,0,.42,2,1.58,1.58,0,0,0,1.32.53,2.61,2.61,0,0,0,1.43-.35,2.2,2.2,0,0,0,.86-1v-6.45h1.62v8.94h-1.46Z"/><path d="M467.78,136.28a4.91,4.91,0,0,1-.92,3.12,3.07,3.07,0,0,1-2.56,1.19,3.64,3.64,0,0,1-1.45-.28,2.82,2.82,0,0,1-1.06-.83v4.37h-1.62V131.47h1.24l.26,1.16a2.91,2.91,0,0,1,1.09-1,3.19,3.19,0,0,1,1.52-.34,3,3,0,0,1,2.58,1.32,5.9,5.9,0,0,1,.92,3.48Zm-1.62-.17a4.72,4.72,0,0,0-.6-2.5,2,2,0,0,0-1.77-1,2.22,2.22,0,0,0-1.2.32,2.4,2.4,0,0,0-.8.87v4.32a2.29,2.29,0,0,0,.8.86,2.26,2.26,0,0,0,1.22.31,2,2,0,0,0,1.75-.84,3.73,3.73,0,0,0,.6-2.19Z"/><path d="M477.4,136.28a5,5,0,0,1-.92,3.12,3.07,3.07,0,0,1-2.56,1.19,3.64,3.64,0,0,1-1.45-.28,2.74,2.74,0,0,1-1.06-.83v4.37h-1.63V131.47H471l.26,1.16a2.84,2.84,0,0,1,1.09-1,3.19,3.19,0,0,1,1.52-.34,3,3,0,0,1,2.58,1.32,6,6,0,0,1,.92,3.48Zm-1.63-.17a4.72,4.72,0,0,0-.6-2.5,1.94,1.94,0,0,0-1.76-1,2.19,2.19,0,0,0-1.2.32,2.32,2.32,0,0,0-.8.87v4.32a2.15,2.15,0,0,0,2,1.17,2,2,0,0,0,1.75-.84,3.8,3.8,0,0,0,.59-2.19Z"/><path d="M479,135.86a5,5,0,0,1,1.07-3.27,4,4,0,0,1,5.86,0,4.88,4.88,0,0,1,1.08,3.27V136a4.85,4.85,0,0,1-1.08,3.27,4,4,0,0,1-5.85,0A4.88,4.88,0,0,1,479,136Zm1.63.18a4.25,4.25,0,0,0,.6,2.35,2.17,2.17,0,0,0,3.55,0,4.25,4.25,0,0,0,.6-2.35v-.18a4.18,4.18,0,0,0-.61-2.34,2,2,0,0,0-1.78-.93,2,2,0,0,0-1.76.93,4.26,4.26,0,0,0-.6,2.34Z"/><path d="M493.25,132.91l-.84,0a1.79,1.79,0,0,0-1.08.31,1.92,1.92,0,0,0-.69.86v6.38H489v-8.94h1.45l.16,1.31a3,3,0,0,1,.94-1.08,2.18,2.18,0,0,1,1.28-.39,2,2,0,0,1,.35,0l.27.06Z"/><path d="M497.35,129.32v2.15H499v1.21h-1.69v5.43a1.17,1.17,0,0,0,.26.88.94.94,0,0,0,.69.26,1.25,1.25,0,0,0,.31,0,1.48,1.48,0,0,0,.29-.08l.22,1.12a1.38,1.38,0,0,1-.53.24,2.53,2.53,0,0,1-.71.1,2.13,2.13,0,0,1-1.58-.6,2.61,2.61,0,0,1-.58-1.88v-5.43H494.3v-1.21h1.42v-2.15Z"/><path d="M312.68,149.62v2.16h1.69V153h-1.69v5.42a1.24,1.24,0,0,0,.26.89.93.93,0,0,0,.69.25l.31,0a2.24,2.24,0,0,0,.29-.08l.22,1.11a1.45,1.45,0,0,1-.53.25,2.86,2.86,0,0,1-.7.09,2.11,2.11,0,0,1-1.58-.6,2.6,2.6,0,0,1-.59-1.88V153h-1.42v-1.21h1.42v-2.16Z"/><path d="M315.74,156.17a4.9,4.9,0,0,1,1.07-3.27,4,4,0,0,1,5.85,0,4.93,4.93,0,0,1,1.08,3.28v.18a4.93,4.93,0,0,1-1.07,3.27,4,4,0,0,1-5.86,0,5,5,0,0,1-1.07-3.27Zm1.62.18a4.19,4.19,0,0,0,.6,2.34,2.16,2.16,0,0,0,3.55,0,4.19,4.19,0,0,0,.6-2.34v-.18a4.24,4.24,0,0,0-.6-2.34,2,2,0,0,0-1.78-.94,2,2,0,0,0-1.77.94,4.24,4.24,0,0,0-.6,2.34Z"/><path d="M335.14,158.31a1.09,1.09,0,0,0-.41-.87,3.91,3.91,0,0,0-1.55-.6,6.44,6.44,0,0,1-2.43-1,1.91,1.91,0,0,1-.84-1.63,2.36,2.36,0,0,1,.93-1.87,4.09,4.09,0,0,1,4.87.05,2.41,2.41,0,0,1,.9,1.93l0,0H335a1.39,1.39,0,0,0-.51-1,1.81,1.81,0,0,0-1.29-.48,1.83,1.83,0,0,0-1.28.39,1.2,1.2,0,0,0-.43.93,1,1,0,0,0,.37.82,4,4,0,0,0,1.52.52,6.48,6.48,0,0,1,2.49,1,2,2,0,0,1,.85,1.66,2.36,2.36,0,0,1-1,1.94,4.6,4.6,0,0,1-5.21-.12,2.45,2.45,0,0,1-.93-2V158h1.56a1.49,1.49,0,0,0,.64,1.27,2.49,2.49,0,0,0,1.42.4,2.17,2.17,0,0,0,1.35-.37A1.12,1.12,0,0,0,335.14,158.31Z"/><path d="M341.05,149.62v2.16h1.7V153h-1.7v5.42a1.24,1.24,0,0,0,.26.89,1,1,0,0,0,.69.25l.32,0,.28-.08.23,1.11a1.51,1.51,0,0,1-.54.25,2.86,2.86,0,0,1-.7.09,2.11,2.11,0,0,1-1.58-.6,2.6,2.6,0,0,1-.59-1.88V153H338v-1.21h1.42v-2.16Z"/><path d="M348.72,153.22l-.84-.05a1.86,1.86,0,0,0-1.08.3,2,2,0,0,0-.68.86v6.39h-1.63v-8.94h1.45l.16,1.3A3.12,3.12,0,0,1,347,152a2.18,2.18,0,0,1,1.28-.39,2,2,0,0,1,.35,0l.27.06Z"/><path d="M354,160.89a3.79,3.79,0,0,1-3-1.23,4.78,4.78,0,0,1-1.07-3.24v-.36a4.66,4.66,0,0,1,1.11-3.19,3.47,3.47,0,0,1,2.71-1.26,3.26,3.26,0,0,1,2.69,1.12,4.58,4.58,0,0,1,.9,3v.85h-5.72l0,0a3.67,3.67,0,0,0,.6,2.18,2.08,2.08,0,0,0,1.82.84,4,4,0,0,0,1.45-.24,3.28,3.28,0,0,0,1.07-.64l.63,1a3.87,3.87,0,0,1-1.26.78A4.85,4.85,0,0,1,354,160.89Zm-.26-8a1.76,1.76,0,0,0-1.41.66,3.11,3.11,0,0,0-.68,1.68l0,0h4v-.13a2.59,2.59,0,0,0-.48-1.61A1.74,1.74,0,0,0,353.7,152.89Z"/><path d="M360.57,151.78l.11,1.33a3.27,3.27,0,0,1,1.12-1.1,3.27,3.27,0,0,1,3.77.45,3.73,3.73,0,0,1,.8,2.62v5.64h-1.63v-5.61a2.43,2.43,0,0,0-.47-1.68,1.85,1.85,0,0,0-1.42-.49,2.55,2.55,0,0,0-1.28.3,2.16,2.16,0,0,0-.83.84v6.64h-1.63v-8.94Z"/><path d="M368.44,156.41a6,6,0,0,1,.92-3.47,3,3,0,0,1,2.58-1.33,3.12,3.12,0,0,1,1.49.35,3,3,0,0,1,1.08,1l.2-1.16H376v9a3.42,3.42,0,0,1-1,2.64,4.13,4.13,0,0,1-2.88.92,6,6,0,0,1-1.4-.18,5.58,5.58,0,0,1-1.31-.48l.24-1.27a5,5,0,0,0,1.14.41,5.92,5.92,0,0,0,1.31.15,2.38,2.38,0,0,0,1.73-.54,2.25,2.25,0,0,0,.54-1.65v-1a2.77,2.77,0,0,1-1.05.85,3.17,3.17,0,0,1-1.41.29,3.07,3.07,0,0,1-2.56-1.18,5,5,0,0,1-.92-3.12Zm1.63.18a3.76,3.76,0,0,0,.55,2.16,1.91,1.91,0,0,0,1.71.82,2.17,2.17,0,0,0,1.23-.33,2.55,2.55,0,0,0,.82-1v-4.11a2.49,2.49,0,0,0-.82-.91,2.15,2.15,0,0,0-1.21-.33,1.85,1.85,0,0,0-1.72,1,4.91,4.91,0,0,0-.56,2.51Z"/><path d="M380.61,149.62v2.16h1.7V153h-1.7v5.42a1.24,1.24,0,0,0,.26.89,1,1,0,0,0,.69.25l.32,0,.29-.08.22,1.11a1.51,1.51,0,0,1-.54.25,2.86,2.86,0,0,1-.7.09,2.11,2.11,0,0,1-1.58-.6,2.6,2.6,0,0,1-.59-1.88V153h-1.42v-1.21H379v-2.16Z"/><path d="M385.68,153a3.21,3.21,0,0,1,1.13-1,3.13,3.13,0,0,1,1.49-.36,2.89,2.89,0,0,1,2.23.86,3.82,3.82,0,0,1,.8,2.65v5.6H389.7V155.1a2.4,2.4,0,0,0-.48-1.64,1.78,1.78,0,0,0-1.41-.52,2.67,2.67,0,0,0-1.27.28,2.36,2.36,0,0,0-.86.8v6.7h-1.63V147.83h1.63Z"/><path d="M397.37,160.89a3.79,3.79,0,0,1-3-1.23,4.78,4.78,0,0,1-1.07-3.24v-.36a4.66,4.66,0,0,1,1.11-3.19,3.47,3.47,0,0,1,2.71-1.26,3.26,3.26,0,0,1,2.69,1.12,4.58,4.58,0,0,1,.9,3v.85H395l0,0a3.67,3.67,0,0,0,.59,2.18,2.08,2.08,0,0,0,1.82.84,4,4,0,0,0,1.45-.24,3.28,3.28,0,0,0,1.07-.64l.63,1a3.87,3.87,0,0,1-1.26.78A4.85,4.85,0,0,1,397.37,160.89Zm-.26-8a1.76,1.76,0,0,0-1.41.66,3.11,3.11,0,0,0-.68,1.68l0,0h4v-.13a2.59,2.59,0,0,0-.48-1.61A1.74,1.74,0,0,0,397.11,152.89Z"/><path d="M404,151.78l.11,1.33a3.27,3.27,0,0,1,1.12-1.1,3.28,3.28,0,0,1,3.77.45,3.73,3.73,0,0,1,.8,2.62v5.64h-1.63v-5.61a2.43,2.43,0,0,0-.47-1.68,1.85,1.85,0,0,0-1.42-.49,2.55,2.55,0,0,0-1.28.3,2.16,2.16,0,0,0-.83.84v6.64h-1.63v-8.94Z"/><path d="M417.8,151.78l.12,1.17a3,3,0,0,1,1.11-1,3.27,3.27,0,0,1,1.56-.36,2.75,2.75,0,0,1,1.54.42,2.54,2.54,0,0,1,1,1.24,3.2,3.2,0,0,1,1.12-1.21,2.89,2.89,0,0,1,1.61-.45,2.7,2.7,0,0,1,2.16.94,4.29,4.29,0,0,1,.79,2.82v5.35h-1.63v-5.36a3,3,0,0,0-.45-1.87,1.63,1.63,0,0,0-1.35-.55,1.76,1.76,0,0,0-1.36.57,2.57,2.57,0,0,0-.6,1.47v5.74h-1.64v-5.36a2.88,2.88,0,0,0-.47-1.84,1.6,1.6,0,0,0-1.34-.58,2.27,2.27,0,0,0-1.22.3,2,2,0,0,0-.74.86v6.62h-1.62v-8.94Z"/><path d="M436.63,160.72c-.06-.27-.1-.51-.13-.72a4.21,4.21,0,0,1-.05-.62,3.76,3.76,0,0,1-1.19,1.08,3,3,0,0,1-1.57.43,3,3,0,0,1-2.13-.71,2.63,2.63,0,0,1-.73-2,2.33,2.33,0,0,1,1-2,4.85,4.85,0,0,1,2.81-.72h1.77v-.88a1.65,1.65,0,0,0-.48-1.25,1.91,1.91,0,0,0-1.36-.46,2,2,0,0,0-1.28.4,1.2,1.2,0,0,0-.48,1l-1.55,0,0,0a2.17,2.17,0,0,1,.92-1.79,3.76,3.76,0,0,1,2.5-.81,3.67,3.67,0,0,1,2.45.78,2.71,2.71,0,0,1,.93,2.22v4.31a6.81,6.81,0,0,0,.05.92,4.44,4.44,0,0,0,.18.88Zm-2.7-1.19a2.82,2.82,0,0,0,1.59-.46,2.11,2.11,0,0,0,.93-1v-1.45h-1.83a2.31,2.31,0,0,0-1.57.5,1.45,1.45,0,0,0-.59,1.16,1.21,1.21,0,0,0,.37.94A1.56,1.56,0,0,0,433.93,159.53Z"/><path d="M442.7,149.62v2.16h1.7V153h-1.7v5.42a1.24,1.24,0,0,0,.26.89,1,1,0,0,0,.69.25l.32,0,.29-.08.22,1.11a1.51,1.51,0,0,1-.54.25,2.8,2.8,0,0,1-.7.09,2.11,2.11,0,0,1-1.58-.6,2.6,2.6,0,0,1-.59-1.88V153h-1.42v-1.21h1.42v-2.16Z"/><path d="M449.84,160.89a3.78,3.78,0,0,1-3-1.23,4.73,4.73,0,0,1-1.08-3.24v-.36a4.66,4.66,0,0,1,1.11-3.19,3.49,3.49,0,0,1,2.72-1.26,3.27,3.27,0,0,1,2.69,1.12,4.63,4.63,0,0,1,.89,3v.85h-5.72l0,0a3.74,3.74,0,0,0,.59,2.18,2.09,2.09,0,0,0,1.82.84,4,4,0,0,0,1.45-.24,3.18,3.18,0,0,0,1.07-.64l.64,1a3.82,3.82,0,0,1-1.27.78A4.85,4.85,0,0,1,449.84,160.89Zm-.25-8a1.76,1.76,0,0,0-1.41.66,3.11,3.11,0,0,0-.68,1.68v0h4v-.13a2.59,2.59,0,0,0-.48-1.61A1.74,1.74,0,0,0,449.59,152.89Z"/><path d="M459.23,153.22l-.84-.05a1.86,1.86,0,0,0-1.08.3,2,2,0,0,0-.69.86v6.39H455v-8.94h1.45l.16,1.3a3,3,0,0,1,.94-1.08,2.18,2.18,0,0,1,1.28-.39,2,2,0,0,1,.35,0l.27.06Z"/><path d="M462.38,151.78l.11,1.33a3.27,3.27,0,0,1,1.12-1.1,3.27,3.27,0,0,1,3.77.45,3.73,3.73,0,0,1,.8,2.62v5.64h-1.63v-5.61a2.43,2.43,0,0,0-.47-1.68,1.87,1.87,0,0,0-1.42-.49,2.53,2.53,0,0,0-1.28.3,2.16,2.16,0,0,0-.83.84v6.64h-1.63v-8.94Z"/><path d="M476,160.72q-.07-.41-.12-.72a4.2,4.2,0,0,1-.06-.62,3.84,3.84,0,0,1-1.18,1.08,3.05,3.05,0,0,1-1.58.43,3,3,0,0,1-2.13-.71,2.67,2.67,0,0,1-.73-2,2.33,2.33,0,0,1,1-2,4.85,4.85,0,0,1,2.81-.72h1.77v-.88a1.65,1.65,0,0,0-.48-1.25,1.9,1.9,0,0,0-1.35-.46,2,2,0,0,0-1.28.4,1.18,1.18,0,0,0-.49,1l-1.55,0v0a2.13,2.13,0,0,1,.91-1.79,3.78,3.78,0,0,1,2.51-.81,3.65,3.65,0,0,1,2.44.78,2.71,2.71,0,0,1,.93,2.22v4.31a9,9,0,0,0,0,.92,4.44,4.44,0,0,0,.18.88Zm-2.7-1.19a2.88,2.88,0,0,0,1.6-.46,2.14,2.14,0,0,0,.92-1v-1.45H474a2.34,2.34,0,0,0-1.58.5,1.48,1.48,0,0,0-.59,1.16,1.21,1.21,0,0,0,.37.94A1.58,1.58,0,0,0,473.33,159.53Z"/><path d="M481.6,160.72H480V147.83h1.63Z"/><path d="M341.55,173.28a3.27,3.27,0,0,1,1.13-1,3.13,3.13,0,0,1,1.49-.36,2.89,2.89,0,0,1,2.23.86,3.77,3.77,0,0,1,.8,2.64V181h-1.63v-5.61a2.43,2.43,0,0,0-.47-1.64,1.83,1.83,0,0,0-1.42-.53,2.68,2.68,0,0,0-1.27.29,2.33,2.33,0,0,0-.86.79V181h-1.63V168.14h1.63Z"/><path d="M353.24,181.2a3.76,3.76,0,0,1-3-1.23,4.73,4.73,0,0,1-1.08-3.24v-.37a4.63,4.63,0,0,1,1.11-3.18,3.47,3.47,0,0,1,2.71-1.26,3.25,3.25,0,0,1,2.69,1.11,4.61,4.61,0,0,1,.9,3v.86h-5.72l0,0a3.68,3.68,0,0,0,.59,2.19,2.08,2.08,0,0,0,1.82.84,4,4,0,0,0,1.45-.24,3.3,3.3,0,0,0,1.07-.65l.63,1.06a3.87,3.87,0,0,1-1.26.78A5,5,0,0,1,353.24,181.2Zm-.26-8a1.78,1.78,0,0,0-1.41.66,3.08,3.08,0,0,0-.68,1.68l0,0h4v-.13a2.59,2.59,0,0,0-.48-1.61A1.72,1.72,0,0,0,353,173.2Z"/><path d="M363.89,181c-.06-.27-.1-.5-.13-.71a4.32,4.32,0,0,1-.05-.62,3.84,3.84,0,0,1-1.19,1.07,3,3,0,0,1-1.57.44,2.92,2.92,0,0,1-2.13-.72,2.6,2.6,0,0,1-.73-2,2.29,2.29,0,0,1,1-2,4.83,4.83,0,0,1,2.81-.72h1.77v-.89a1.63,1.63,0,0,0-.48-1.24,1.87,1.87,0,0,0-1.36-.46,1.94,1.94,0,0,0-1.28.4,1.2,1.2,0,0,0-.49,1h-1.54l0-.05a2.13,2.13,0,0,1,.92-1.78,4.27,4.27,0,0,1,5,0,2.74,2.74,0,0,1,.92,2.23v4.3c0,.32,0,.63.05.93a5,5,0,0,0,.19.87Zm-2.7-1.19a2.89,2.89,0,0,0,1.59-.45,2.16,2.16,0,0,0,.93-1v-1.46h-1.83a2.36,2.36,0,0,0-1.57.5,1.47,1.47,0,0,0-.59,1.17,1.22,1.22,0,0,0,.37.94A1.56,1.56,0,0,0,361.19,179.83Z"/><path d="M369.46,181h-1.63V168.14h1.63Z"/><path d="M374.22,169.93v2.15h1.7v1.21h-1.7v5.43a1.17,1.17,0,0,0,.27.88.94.94,0,0,0,.69.26,1.25,1.25,0,0,0,.31,0,1.71,1.71,0,0,0,.29-.08l.22,1.12a1.36,1.36,0,0,1-.54.24,2.42,2.42,0,0,1-.7.1,2.11,2.11,0,0,1-1.58-.6,2.61,2.61,0,0,1-.58-1.88v-5.43h-1.42v-1.21h1.42v-2.15Z"/><path d="M379.29,173.28a3.3,3.3,0,0,1,1.14-1,3.07,3.07,0,0,1,1.49-.36,2.88,2.88,0,0,1,2.22.86,3.72,3.72,0,0,1,.8,2.64V181h-1.63v-5.61a2.43,2.43,0,0,0-.47-1.64,1.83,1.83,0,0,0-1.42-.53,2.66,2.66,0,0,0-1.26.29,2.28,2.28,0,0,0-.87.79V181h-1.63V168.14h1.63Z"/><path d="M396.68,178.62a1.08,1.08,0,0,0-.41-.88,4,4,0,0,0-1.55-.59,6.48,6.48,0,0,1-2.42-1,1.91,1.91,0,0,1-.85-1.64,2.34,2.34,0,0,1,.93-1.86,3.62,3.62,0,0,1,2.41-.78,3.56,3.56,0,0,1,2.46.83,2.35,2.35,0,0,1,.9,1.92v.05h-1.56a1.39,1.39,0,0,0-.51-1.05,1.8,1.8,0,0,0-1.28-.47,1.88,1.88,0,0,0-1.29.39,1.22,1.22,0,0,0-.42.92,1,1,0,0,0,.37.82,4.08,4.08,0,0,0,1.51.53,6.47,6.47,0,0,1,2.5,1,2,2,0,0,1,.85,1.66,2.37,2.37,0,0,1-1,1.95,4,4,0,0,1-2.52.75,3.9,3.9,0,0,1-2.69-.87,2.47,2.47,0,0,1-.94-2l0-.05h1.55a1.51,1.51,0,0,0,.65,1.26,2.46,2.46,0,0,0,1.41.41,2.26,2.26,0,0,0,1.36-.37A1.13,1.13,0,0,0,396.68,178.62Z"/><path d="M404,181.2a3.78,3.78,0,0,1-3-1.23,4.73,4.73,0,0,1-1.08-3.24v-.37a4.63,4.63,0,0,1,1.11-3.18,3.51,3.51,0,0,1,2.72-1.26,3.26,3.26,0,0,1,2.69,1.11,4.61,4.61,0,0,1,.89,3v.86h-5.71l0,0a3.68,3.68,0,0,0,.6,2.19,2.06,2.06,0,0,0,1.81.84,4,4,0,0,0,1.45-.24,3.24,3.24,0,0,0,1.08-.65l.63,1.06a3.87,3.87,0,0,1-1.26.78A5.14,5.14,0,0,1,404,181.2Zm-.25-8a1.76,1.76,0,0,0-1.41.66,3.08,3.08,0,0,0-.68,1.68l0,0h4v-.13a2.59,2.59,0,0,0-.48-1.61A1.72,1.72,0,0,0,403.78,173.2Z"/><path d="M413.42,173.52l-.83-.05a1.82,1.82,0,0,0-1.09.31,2,2,0,0,0-.68.86V181h-1.63v-8.94h1.46l.15,1.31a3.22,3.22,0,0,1,.94-1.08,2.18,2.18,0,0,1,1.28-.39,1.9,1.9,0,0,1,.35,0l.27.06Z"/><path d="M418.25,178.39l.14.63h.05l.15-.63,2.06-6.31h1.66L419,181h-1.23l-3.33-8.94h1.67Z"/><path d="M425.53,169.8h-1.62v-1.66h1.62Zm0,11.22h-1.62v-8.94h1.62Z"/><path d="M431.59,179.93a1.91,1.91,0,0,0,1.31-.5,1.59,1.59,0,0,0,.57-1.23h1.47l0,.05a2.58,2.58,0,0,1-1,2.05,3.79,3.79,0,0,1-5.29-.38,5,5,0,0,1-1-3.19v-.35a4.92,4.92,0,0,1,1-3.18,3.51,3.51,0,0,1,2.9-1.28,3.4,3.4,0,0,1,2.45.92,3,3,0,0,1,.92,2.28l0,0h-1.47a2,2,0,0,0-.54-1.4,1.75,1.75,0,0,0-1.34-.57,1.89,1.89,0,0,0-1.75.93,4.41,4.41,0,0,0-.55,2.25v.35a4.44,4.44,0,0,0,.54,2.27A1.88,1.88,0,0,0,431.59,179.93Z"/><path d="M440.6,181.2a3.79,3.79,0,0,1-3-1.23,4.73,4.73,0,0,1-1.08-3.24v-.37a4.59,4.59,0,0,1,1.12-3.18,3.47,3.47,0,0,1,2.71-1.26A3.25,3.25,0,0,1,443,173a4.61,4.61,0,0,1,.9,3v.86h-5.72l0,0a3.68,3.68,0,0,0,.6,2.19,2.08,2.08,0,0,0,1.82.84,4,4,0,0,0,1.45-.24,3.3,3.3,0,0,0,1.07-.65l.63,1.06a3.87,3.87,0,0,1-1.26.78A5.08,5.08,0,0,1,440.6,181.2Zm-.26-8a1.76,1.76,0,0,0-1.41.66,3.08,3.08,0,0,0-.68,1.68l0,0h4v-.13a2.59,2.59,0,0,0-.48-1.61A1.72,1.72,0,0,0,440.34,173.2Z"/><path d="M451,178.62a1.1,1.1,0,0,0-.41-.88,4,4,0,0,0-1.55-.59,6.48,6.48,0,0,1-2.42-1,1.91,1.91,0,0,1-.85-1.64,2.34,2.34,0,0,1,.93-1.86,3.62,3.62,0,0,1,2.41-.78,3.56,3.56,0,0,1,2.46.83,2.35,2.35,0,0,1,.9,1.92l0,.05h-1.55a1.39,1.39,0,0,0-.51-1.05,1.84,1.84,0,0,0-1.28-.47,1.86,1.86,0,0,0-1.29.39,1.22,1.22,0,0,0-.42.92,1,1,0,0,0,.36.82,4.15,4.15,0,0,0,1.52.53,6.35,6.35,0,0,1,2.49,1,2,2,0,0,1,.86,1.66,2.36,2.36,0,0,1-1,1.95,4.6,4.6,0,0,1-5.21-.12,2.49,2.49,0,0,1-.93-2l0-.05H447a1.5,1.5,0,0,0,.64,1.26,2.52,2.52,0,0,0,1.42.41,2.26,2.26,0,0,0,1.36-.37A1.15,1.15,0,0,0,451,178.62Z"/><path class="cls-5" d="M299,60.63a9.66,9.66,0,0,1,3.49,7.81,10.82,10.82,0,0,1-1.59,5.77,11,11,0,0,1-4.82,4.15,18.33,18.33,0,0,1-8,1.56,27.26,27.26,0,0,1-7.19-1,18.62,18.62,0,0,1-6-2.75L278,70.08a15.34,15.34,0,0,0,4.55,2.3,17.56,17.56,0,0,0,5.3.81A8.27,8.27,0,0,0,292.63,72a3.81,3.81,0,0,0,1.74-3.32,3.73,3.73,0,0,0-1.81-3.36q-1.8-1.14-6.26-1.14h-8.85l1.78-19.49h21.12v6.43H285.91l-.55,6.58h2.82Q295.5,57.71,299,60.63Z"/><path class="cls-5" d="M313.75,71.44a4.59,4.59,0,0,1,1.34,3.43,7.85,7.85,0,0,1-.25,2,21.83,21.83,0,0,1-1.09,3l-2.82,7.12H306l2.17-7.86a4.1,4.1,0,0,1-1.95-1.61,4.68,4.68,0,0,1-.72-2.6,4.57,4.57,0,0,1,1.36-3.43,4.75,4.75,0,0,1,3.44-1.31A4.63,4.63,0,0,1,313.75,71.44Z"/><path class="cls-5" d="M345,44.7v5.2L332.15,79.33h-8.7l12.41-28.1H324.39v5.64h-7.12V44.7Z"/><path class="cls-5" d="M354.76,77.79a14.27,14.27,0,0,1-5.27-6.15,22.39,22.39,0,0,1-1.9-9.63,22.37,22.37,0,0,1,1.9-9.62,14.27,14.27,0,0,1,5.27-6.15,14.86,14.86,0,0,1,15.33,0,14.27,14.27,0,0,1,5.27,6.15,22.37,22.37,0,0,1,1.9,9.62,22.39,22.39,0,0,1-1.9,9.63,14.27,14.27,0,0,1-5.27,6.15,14.86,14.86,0,0,1-15.33,0Zm12.64-7.37q1.8-2.72,1.8-8.41t-1.8-8.4a5.86,5.86,0,0,0-9.9,0q-1.8,2.72-1.8,8.4t1.8,8.41a5.86,5.86,0,0,0,9.9,0Z"/><path class="cls-5" d="M403.87,59a10.56,10.56,0,0,1,4.31,3.78,10.24,10.24,0,0,1,1.58,5.67A10.83,10.83,0,0,1,408,74.48a11.33,11.33,0,0,1-4.72,4,15.46,15.46,0,0,1-6.66,1.41c-4.84,0-8.64-1.48-11.37-4.45s-4.11-7.21-4.11-12.71a21.21,21.21,0,0,1,2.23-10.09,15.1,15.1,0,0,1,6.2-6.38,19,19,0,0,1,9.23-2.18,22.66,22.66,0,0,1,5.32.62,14.35,14.35,0,0,1,4.32,1.75l-3,5.89A11.42,11.42,0,0,0,399,50.64a9.46,9.46,0,0,0-7,2.57c-1.71,1.72-2.64,4.2-2.77,7.47,2.05-2,4.9-3.07,8.56-3.07A13.48,13.48,0,0,1,403.87,59Zm-3.48,13.6a4.71,4.71,0,0,0,1.6-3.76,4.78,4.78,0,0,0-1.6-3.78,7.13,7.13,0,0,0-8.58,0,5,5,0,0,0-.05,7.44,6.47,6.47,0,0,0,4.45,1.44A6.2,6.2,0,0,0,400.39,72.55Z"/><path class="cls-5" d="M421.19,71.44a4.59,4.59,0,0,1,1.33,3.43,7.85,7.85,0,0,1-.25,2,21.46,21.46,0,0,1-1.08,3l-2.82,7.12h-4.9l2.18-7.86a4.08,4.08,0,0,1-2-1.61,4.68,4.68,0,0,1-.72-2.6,4.57,4.57,0,0,1,1.36-3.43,4.75,4.75,0,0,1,3.44-1.31A4.67,4.67,0,0,1,421.19,71.44Z"/><path class="cls-5" d="M448.81,60.63a9.69,9.69,0,0,1,3.49,7.81,10.82,10.82,0,0,1-1.59,5.77,11,11,0,0,1-4.82,4.15,18.33,18.33,0,0,1-8,1.56,27.26,27.26,0,0,1-7.19-1,18.52,18.52,0,0,1-6-2.75l3.16-6.13a15.34,15.34,0,0,0,4.55,2.3,17.56,17.56,0,0,0,5.3.81A8.27,8.27,0,0,0,442.45,72a3.81,3.81,0,0,0,1.74-3.32,3.73,3.73,0,0,0-1.81-3.36q-1.8-1.14-6.26-1.14h-8.85l1.78-19.49h21.12v6.43H435.73l-.55,6.58H438Q445.32,57.71,448.81,60.63Z"/><path class="cls-5" d="M483.19,64.49a8.59,8.59,0,0,1,1.35,4.8,9,9,0,0,1-1.83,5.61,11.63,11.63,0,0,1-5.14,3.71,23,23,0,0,1-15.31,0,11.47,11.47,0,0,1-5.09-3.71,9,9,0,0,1-1.81-5.61,8.59,8.59,0,0,1,1.36-4.8,9.85,9.85,0,0,1,3.89-3.37,8.34,8.34,0,0,1-3-3,8,8,0,0,1-1-4.13,8.44,8.44,0,0,1,1.68-5.24,10.79,10.79,0,0,1,4.7-3.44,18.42,18.42,0,0,1,6.92-1.21,18.74,18.74,0,0,1,7,1.21,10.77,10.77,0,0,1,4.73,3.44A8.44,8.44,0,0,1,483.31,54a8.15,8.15,0,0,1-1,4.13,8.25,8.25,0,0,1-3,3A9.8,9.8,0,0,1,483.19,64.49Zm-8.51,8.18A4.34,4.34,0,0,0,476.43,69a4.29,4.29,0,0,0-1.75-3.61,7.71,7.71,0,0,0-4.78-1.34,7.49,7.49,0,0,0-4.69,1.34A4.31,4.31,0,0,0,463.47,69a4.36,4.36,0,0,0,1.74,3.66A7.49,7.49,0,0,0,469.9,74,7.59,7.59,0,0,0,474.68,72.67ZM466,51.16a3.86,3.86,0,0,0-1.46,3.19A3.73,3.73,0,0,0,466,57.46a6.08,6.08,0,0,0,3.9,1.14,6.34,6.34,0,0,0,4-1.14,3.68,3.68,0,0,0,1.48-3.11,3.82,3.82,0,0,0-1.48-3.19,6.22,6.22,0,0,0-4-1.16A6,6,0,0,0,466,51.16Z"/><path class="cls-5" d="M510.91,59a10.53,10.53,0,0,1,4.3,3.78,10.16,10.16,0,0,1,1.58,5.67,10.75,10.75,0,0,1-1.73,6.08,11.27,11.27,0,0,1-4.72,4,15.42,15.42,0,0,1-6.65,1.41q-7.28,0-11.38-4.45T488.2,62.76a21.32,21.32,0,0,1,2.23-10.09,15.06,15.06,0,0,1,6.21-6.38,18.92,18.92,0,0,1,9.22-2.18,22.6,22.6,0,0,1,5.32.62,14.41,14.41,0,0,1,4.33,1.75l-3,5.89a11.39,11.39,0,0,0-6.48-1.73,9.42,9.42,0,0,0-7,2.57c-1.72,1.72-2.64,4.2-2.77,7.47,2-2,4.89-3.07,8.55-3.07A13.56,13.56,0,0,1,510.91,59Zm-3.49,13.6A4.71,4.71,0,0,0,509,68.79,4.78,4.78,0,0,0,507.42,65a7.13,7.13,0,0,0-8.58,0,5,5,0,0,0,0,7.44,6.49,6.49,0,0,0,4.45,1.44A6.18,6.18,0,0,0,507.42,72.55Z"/><rect class="cls-5" x="46.1" y="44.28" width="161.44" height="161.44" transform="translate(125.53 -53.07) rotate(45)"/><g class="cls-6"><path class="cls-7" d="M126.82,227.54,24.28,125,126.82,22.46,229.37,125ZM27.45,125l99.37,99.38L226.2,125,126.82,25.62Zm99.37,89.52L92.6,180.29l26.17-26.17L93.4,128.75l-18,18,11.9,11.9,4.92-4.93-7-7,8.15-8.15,15.51,15.52L87.67,175.37,57.75,145.44,78.2,125,57.75,104.55,87.67,74.63l21.24,21.25L93.4,111.4l-8.15-8.15,7-7-4.92-4.93-11.9,11.9,18,18,25.37-25.37L92.6,69.71l34.22-34.23,34.23,34.23L134.88,95.88l25.37,25.37,18-18-11.89-11.9-4.93,4.93,7,7-8.15,8.15L144.73,95.88,166,74.63l29.92,29.92L175.45,125l20.45,20.45L166,175.36l-21.25-21.24,15.52-15.52,8.15,8.15-7,7,4.93,4.93,11.89-11.9-18-18-25.37,25.37,26.17,26.17Zm-31-34.23,31.05,31.06,31.06-31.06-26.17-26.17,28.54-28.54,21.17,21.17-15.06,15.07-8.1-8.1,7-7-5-5L147.9,154.12,166,172.2l26.75-26.75L172.28,125l20.45-20.45L166,77.8,147.9,95.88l12.35,12.35,5-5-7-7,8.1-8.1,15.06,15.07-21.17,21.17L131.71,95.88l26.17-26.17L126.82,38.65l-31,31.06,26.17,26.17L93.4,124.42,72.22,103.25,87.29,88.18l8.09,8.1-7,7,5,5,12.35-12.35L87.67,77.8,60.92,104.55,81.36,125,60.92,145.44,87.67,172.2l18.08-18.08L93.4,141.77l-5,5,7,7-8.09,8.1L72.22,146.75,93.4,125.58l28.54,28.54Zm105.05-39.77L185.31,125l15.51-15.52L216.34,125ZM188.48,125l12.34,12.35L213.17,125l-12.35-12.35ZM52.82,140.52,37.31,125l15.51-15.52L68.34,125ZM40.47,125l12.35,12.35L65.17,125,52.82,112.65Z"/><path class="cls-7" d="M126.82,204l-24-24,24-24,24,24Zm-20.84-24,20.84,20.84,20.85-20.84-20.85-20.85Z"/><path class="cls-7" d="M126.82,93.41l-24-24,24-24,24,24ZM106,69.4l20.84,20.84L147.67,69.4,126.82,48.56Z"/></g><path class="cls-7" d="M159.93,148.58c-1.64,0-3.27,0-4.91,0a5.79,5.79,0,0,1-5.85-4.24,14.31,14.31,0,0,1,0-7.12,5.82,5.82,0,0,1,6.31-4.16,5.89,5.89,0,0,1,5.24,5.35c.11,1.35,0,2.71.08,4.06a1.44,1.44,0,1,0,2.88,0c0-1.43,0-2.88-.07-4.31a8.83,8.83,0,0,0-17.35-1.43,22.41,22.41,0,0,0-.3,5,9.2,9.2,0,0,0,2.23,6.73s0,.09,0,.16a10.32,10.32,0,0,0-7.37,4.77,1.12,1.12,0,0,1-.19-.18,10.12,10.12,0,0,0-9.14-4.65c-1.53,0-3.05,0-4.58,0a5.94,5.94,0,0,1-6-6.15c0-1.16,0-2.32,0-3.48a5.95,5.95,0,0,1,11.89,0c0,1.13,0,2.26,0,3.39s.57,1.73,1.43,1.75,1.45-.64,1.45-1.71,0-2.37,0-3.56a8.63,8.63,0,0,0-3.35-6.73c-.32-.27-.67-.51-1-.77a6.92,6.92,0,0,1,3.91-1.31c1.8,0,3.61,0,5.42,0a8.83,8.83,0,0,0,8.85-7.35,26.5,26.5,0,0,0,.11-5.49,8.71,8.71,0,0,0-6.72-8.22,1.08,1.08,0,0,1-.92-1,9.93,9.93,0,0,0-5.82-6.82,15.47,15.47,0,0,0-2.68-.76c1.91-3,2.23-3.88,2.25-6.35,0-1.22,0-2.43,0-3.64a8.85,8.85,0,0,0-6.39-8.16c-.42-.12-.88,0-1.25-.34h-2.71c-.52.22-1.1.14-1.64.34a9.05,9.05,0,0,0-5.87,8.34c0,1.24,0,2.49,0,3.73a9,9,0,0,0,1.59,5.26c.44.65.44.67-.33.86a8.23,8.23,0,0,0-2.94,1.24,1.64,1.64,0,0,0-.63,2,1.67,1.67,0,0,0,1.93,1,2.77,2.77,0,0,0,.78-.31,6.67,6.67,0,0,1,3.33-.84c3.53,0,7.06,0,10.59,0a6.75,6.75,0,0,1,6.46,4.25c.28.59.21.89-.47,1.1a9.08,9.08,0,0,0-6.42,9.06c.06,1,0,1.92,0,2.88a8.89,8.89,0,0,0,1.66,5.58c.33.46.27.66-.29.79a9.43,9.43,0,0,0-4.13,2.06,3.35,3.35,0,0,1-2.33.77,9,9,0,0,0-8.81,8.82c0,1.3,0,2.6,0,3.9a8.73,8.73,0,0,0,1.49,5c.53.82.54.8-.37,1.06a10.1,10.1,0,0,0-5.49,3.61c-.53.7-.59.68-1.16,0a9.89,9.89,0,0,0-7.86-3.85,52.43,52.43,0,0,1-6.51-.17,5.67,5.67,0,0,1-4.62-4.29,15.42,15.42,0,0,1,0-6.31,5.35,5.35,0,0,1,3.8-4.09,5.74,5.74,0,0,1,7.48,5.45c0,1.13,0,2.26,0,3.39a1.77,1.77,0,0,0,.29,1.12,1.62,1.62,0,0,0,1.71.69,1.75,1.75,0,0,0,1.31-1.59c.08-1.1,0-2.2,0-3.3a9.08,9.08,0,0,0-3.66-7.56c-.47-.37-.45-.6.07-.82a7.3,7.3,0,0,1,2.86-.7c1.84,0,3.67,0,5.51,0a9.26,9.26,0,0,0,9-7.47,24.94,24.94,0,0,0,.14-4.81,9,9,0,0,0-6.67-9.21,1.3,1.3,0,0,1-1-.94,10,10,0,0,0-7.7-7.42c-.68-.16-.6-.38-.26-.81a8.5,8.5,0,0,0,1.56-3.89,40.34,40.34,0,0,0,.14-4.4c.23-4.23-2.87-9.06-7.86-9.4H97.67a14.5,14.5,0,0,0-2,.35,9,9,0,0,0-5.9,7.52c-.14,1,0,2-.08,2.94a10.18,10.18,0,0,0,1.55,6.72c.54.81.54.79-.44,1.07a10.27,10.27,0,0,0-5.24,3.39,8.94,8.94,0,0,0-2.15,5.29v10.17c.34,1,.8,1.34,1.7,1.21a1.6,1.6,0,0,0,1.4-1.65c0-.28,0-.57,0-.85,0-2.48,0-5,0-7.45a7,7,0,0,1,7.16-7.12c3.53,0,7.06,0,10.58,0a6.5,6.5,0,0,1,6,3.7c.69,1.32.68,1.32-.76,1.82a9,9,0,0,0-5.85,8.15,25.44,25.44,0,0,1,0,2.62,9.35,9.35,0,0,0,1.64,6.57c.4.53.25.68-.33.81a9.29,9.29,0,0,0-4.1,2.1,2.83,2.83,0,0,1-2,.7A9,9,0,0,0,89.77,138c-.09.74.07,1.46,0,2.18a10.69,10.69,0,0,0,1.89,8,.18.18,0,0,1,0,.21c-4.51,1.23-7.53,3.85-8.25,8.65v10.51c.42.69,1,1.23,1.85.94s1-1,1-1.81c0-2.6,0-5.2,0-7.8a7.17,7.17,0,0,1,7.38-7.46q5.12,0,10.25,0a7.2,7.2,0,0,1,7.43,7.51c0,2.62,0,5.25,0,7.87,0,1.12.57,1.8,1.48,1.77s1.39-.67,1.4-1.76c0-2.62,0-5.25,0-7.88a7.21,7.21,0,0,1,7.51-7.51c3.36,0,6.72,0,10.08,0a7.21,7.21,0,0,1,7.48,7.55c0,2.6,0,5.2,0,7.79,0,1.14.55,1.81,1.44,1.81s1.44-.67,1.45-1.8c0-2.63,0-5.26,0-7.88a7.17,7.17,0,0,1,7.38-7.46q5.13,0,10.26,0a7.2,7.2,0,0,1,7.43,7.5c0,2.63,0,5.25,0,7.88,0,1.09.52,1.74,1.4,1.76s1.48-.66,1.48-1.76c0-2.66,0-5.31,0-8A10.1,10.1,0,0,0,159.93,148.58ZM132.6,95.74a5.95,5.95,0,0,1-11.73-1.22c0-1.33,0-2.65,0-4a5.94,5.94,0,0,1,11.88,0c0,.68,0,1.36,0,2.32A13.82,13.82,0,0,1,132.6,95.74Zm2.33,20.45a5.93,5.93,0,0,1,11.73,1c0,.7,0,1.41,0,2.11a15,15,0,0,1-.17,3.28,6,6,0,0,1-6.27,4.45,5.91,5.91,0,0,1-5.44-5.86A23.69,23.69,0,0,1,134.93,116.19ZM104.77,92.76a17.72,17.72,0,0,1-.11,2.63,5.94,5.94,0,0,1-11.78-.52,27.65,27.65,0,0,1,0-4.64A5.92,5.92,0,0,1,99,84.77a6,6,0,0,1,5.79,5.81C104.79,91.22,104.77,91.87,104.77,92.76ZM107,116a5.95,5.95,0,0,1,11.7,1.32,23.13,23.13,0,0,1-.13,5.06,5.94,5.94,0,0,1-11.74-.91c0-.7,0-1.41,0-2.11A14.56,14.56,0,0,1,107,116Z"/><path class="cls-7" d="M146.48,103.85a6.87,6.87,0,0,1,3-.63c3.44,0,6.89,0,10.33,0a7.23,7.23,0,0,1,7.55,7.56c0,2.66,0,5.31,0,8a1.45,1.45,0,1,0,2.88,0c0-2.85,0-5.7,0-8.55a10.11,10.11,0,0,0-7.51-9.53c-.41-.11-.89,0-1.26-.34a9.31,9.31,0,0,0,2.29-6.26c0-1-.09-2,0-3a8.89,8.89,0,0,0-6.43-8.89,3.73,3.73,0,0,1-1.27-.33h-2.54c-.06.24-.27.15-.41.19-3.56.91-6,3.08-6.76,6.68a19.58,19.58,0,0,0,0,7.74,8.73,8.73,0,0,0,2,3.87,12.48,12.48,0,0,0-2.93.83c-1,.46-1.36,1.19-1,2A1.49,1.49,0,0,0,146.48,103.85ZM149,89.65a5.93,5.93,0,0,1,11.75.5c.07.81,0,1.63,0,2.45a11.23,11.23,0,0,1-.17,3.27,5.95,5.95,0,0,1-11.69-1.16A23.15,23.15,0,0,1,149,89.65Z"/><path class="cls-5" d="M367.5,98.16a4.38,4.38,0,0,1,1.93,1.6,4.45,4.45,0,0,1,.67,2.46,4.39,4.39,0,0,1-.67,2.45,4.28,4.28,0,0,1-1.93,1.61,7.18,7.18,0,0,1-2.94.55H362v3.52H359V97.6h5.52A7,7,0,0,1,367.5,98.16Zm-1.08,5.69a2,2,0,0,0,.69-1.63,2,2,0,0,0-.69-1.65,3.12,3.12,0,0,0-2-.57H362v4.43h2.41A3.06,3.06,0,0,0,366.42,103.85Z"/><path class="cls-5" d="M382.07,108v2.37H372.2V97.6h9.64V100h-6.71v2.77h5.92V105h-5.92v3Z"/><path class="cls-5" d="M387,109.71a6.29,6.29,0,0,1-2.49-2.36,6.73,6.73,0,0,1,0-6.76A6.36,6.36,0,0,1,387,98.23a8,8,0,0,1,7.16,0,6.5,6.5,0,0,1,2.49,2.36,6.51,6.51,0,0,1-2.49,9.12,7.88,7.88,0,0,1-7.16,0Zm5.63-2.17a3.83,3.83,0,0,0,1.43-1.45,4.64,4.64,0,0,0,0-4.23,3.83,3.83,0,0,0-1.43-1.45,4.28,4.28,0,0,0-4.09,0,3.83,3.83,0,0,0-1.43,1.45,4.56,4.56,0,0,0,0,4.23,3.83,3.83,0,0,0,1.43,1.45,4.28,4.28,0,0,0,4.09,0Z"/><path class="cls-5" d="M408.23,98.16a4.56,4.56,0,0,1,1.92,6.51,4.3,4.3,0,0,1-1.92,1.61,7.18,7.18,0,0,1-2.94.55h-2.57v3.52h-3V97.6h5.52A7,7,0,0,1,408.23,98.16Zm-1.08,5.69a2,2,0,0,0,.69-1.63,2,2,0,0,0-.69-1.65,3.13,3.13,0,0,0-2-.57h-2.4v4.43h2.4A3.07,3.07,0,0,0,407.15,103.85Z"/><path class="cls-5" d="M412.92,97.6h3V108h6.39v2.4h-9.35Z"/><path class="cls-5" d="M433.81,108v2.37h-9.88V97.6h9.64V100h-6.71v2.77h5.93V105h-5.93v3Z"/></svg>