<svg width="654" height="250" viewBox="0 0 654 250" fill="none" xmlns="http://www.w3.org/2000/svg">
<path d="M13.6499 125L127.09 238.44H527.49L640.93 125L527.49 11.5601H127.09L13.6499 125Z" fill="#E2243E" stroke="#E2243E" stroke-width="2.6" stroke-miterlimit="10"/>
<path d="M368.08 116.88V109.24L364.33 115.53H363L359.28 109.4V116.88H356.5V104.15H358.94L363.7 112.06L368.39 104.15H370.81V116.88H368.08Z" fill="white"/>
<path d="M373.87 104.15H376.81V116.88H373.87V104.15Z" fill="white"/>
<path d="M379.83 104.15H382.78V114.48H389.16V116.88H379.83V104.15Z" fill="white"/>
<path d="M390.81 104.15H393.76V114.48H400.14V116.88H390.81V104.15Z" fill="white"/>
<path d="M401.8 104.15H404.74V116.88H401.8V104.15Z" fill="white"/>
<path d="M410.35 116.24C409.32 115.7 408.459 114.887 407.86 113.89C407.271 112.863 406.96 111.699 406.96 110.515C406.96 109.331 407.271 108.167 407.86 107.14C408.459 106.143 409.32 105.33 410.35 104.79C411.455 104.225 412.679 103.93 413.92 103.93C415.161 103.93 416.385 104.225 417.49 104.79C418.527 105.344 419.395 106.169 419.999 107.177C420.604 108.186 420.923 109.339 420.923 110.515C420.923 111.691 420.604 112.845 419.999 113.853C419.395 114.861 418.527 115.686 417.49 116.24C416.385 116.805 415.161 117.1 413.92 117.1C412.679 117.1 411.455 116.805 410.35 116.24V116.24ZM415.96 114.07C416.561 113.728 417.056 113.226 417.39 112.62C417.725 111.967 417.9 111.244 417.9 110.51C417.9 109.776 417.725 109.053 417.39 108.4C417.061 107.817 416.581 107.334 416 107C415.391 106.655 414.701 106.475 414 106.48C413.299 106.475 412.61 106.655 412 107C411.398 107.336 410.902 107.835 410.57 108.44C410.229 109.091 410.05 109.815 410.05 110.55C410.05 111.285 410.229 112.009 410.57 112.66C410.901 113.268 411.397 113.771 412 114.11C412.611 114.453 413.3 114.632 414 114.63C414.704 114.617 415.392 114.424 416 114.07H415.96Z" fill="white"/>
<path d="M434.78 104.15V116.88H432.36L426 109.15V116.88H423.1V104.15H425.54L431.87 111.88V104.15H434.78Z" fill="white"/>
<path d="M393.54 72.1501C394.461 73.5755 394.934 75.2436 394.9 76.9401C394.938 78.9581 394.297 80.9303 393.08 82.5401C391.742 84.2256 389.963 85.5065 387.94 86.2401C383 87.9871 377.61 87.9871 372.67 86.2401C370.661 85.5059 368.898 84.2242 367.58 82.5401C366.37 80.9277 365.736 78.9557 365.78 76.9401C365.746 75.2436 366.219 73.5755 367.14 72.1501C368.108 70.712 369.44 69.5561 371 68.8001C369.762 68.0708 368.729 67.0384 368 65.8001C367.307 64.5399 366.962 63.1179 367 61.6801C366.961 59.7997 367.548 57.9597 368.67 56.4501C369.891 54.8865 371.521 53.6922 373.38 53.0001C375.584 52.1564 377.93 51.7456 380.29 51.7901C382.679 51.744 385.055 52.1547 387.29 53.0001C389.151 53.6926 390.783 54.8909 392 56.4601C393.13 57.9663 393.721 59.8079 393.68 61.6901C393.718 63.1278 393.373 64.5497 392.68 65.8101C391.957 67.0531 390.923 68.0869 389.68 68.8101C391.242 69.5589 392.575 70.7121 393.54 72.1501V72.1501ZM385.06 80.3201C385.622 79.8999 386.074 79.3507 386.378 78.7189C386.683 78.0871 386.831 77.3912 386.81 76.6901C386.831 75.9933 386.683 75.3017 386.378 74.6746C386.073 74.0476 385.621 73.5039 385.06 73.0901C383.66 72.1337 381.983 71.6661 380.29 71.7601C378.622 71.6696 376.972 72.1376 375.6 73.0901C375.062 73.529 374.629 74.082 374.332 74.7089C374.034 75.3359 373.88 76.0212 373.88 76.7151C373.88 77.4091 374.034 78.0943 374.332 78.7213C374.629 79.3483 375.062 79.9012 375.6 80.3401C377.021 81.2182 378.659 81.6833 380.33 81.6833C382.001 81.6833 383.639 81.2182 385.06 80.3401V80.3201ZM376.42 58.8501C375.954 59.2282 375.583 59.71 375.337 60.2569C375.09 60.8038 374.975 61.4007 375 62.0001C374.974 62.5948 375.091 63.187 375.339 63.7278C375.588 64.2686 375.962 64.7424 376.43 65.1101C377.562 65.9232 378.938 66.3254 380.33 66.2501C381.737 66.3217 383.128 65.9204 384.28 65.1101C384.754 64.7474 385.133 64.2748 385.384 63.733C385.635 63.1912 385.75 62.5964 385.72 62.0001C385.745 61.3904 385.624 60.7835 385.367 60.2302C385.109 59.6769 384.723 59.1934 384.24 58.8201C383.092 57.9985 381.7 57.5896 380.29 57.6601C378.901 57.5964 377.533 58.017 376.42 58.8501Z" fill="white"/>
<path d="M425.6 52.4102V57.5902L412.77 87.0002H404.08L416.47 59.0002H405V64.6202H397.89V52.4102H425.6Z" fill="white"/>
<path d="M241.382 125.003L127.227 10.8481L13.0717 125.003L127.227 239.159L241.382 125.003Z" fill="#E2243C"/>
<g opacity="0.15">
<path d="M127.23 227.54L24.6802 125L127.23 22.46L229.77 125L127.23 227.54ZM27.8502 125L127.23 224.38L226.6 125L127.23 25.62L27.8502 125ZM127.23 214.52L93.0002 180.29L119.17 154.12L93.8002 128.75L75.8002 146.75L87.6902 158.65L92.6202 153.72L85.6202 146.72L93.7702 138.57L109.29 154.09L88.0702 175.37L58.1502 145.44L78.6002 125L58.1502 104.55L88.0702 74.63L109.32 95.88L93.8002 111.4L85.6502 103.25L92.6502 96.25L87.7202 91.32L75.8002 103.25L93.8002 121.25L119.17 95.88L93.0002 69.71L127.23 35.48L161.45 69.71L135.28 95.88L160.65 121.25L178.65 103.25L166.75 91.35L161.82 96.28L168.82 103.28L160.67 111.43L145.14 95.88L166.38 74.63L196.3 104.55L175.85 125L196.3 145.45L166.38 175.36L145.14 154.12L160.65 138.6L168.8 146.75L161.8 153.75L166.73 158.68L178.63 146.78L160.63 128.78L135.26 154.15L161.43 180.32L127.23 214.52ZM96.1702 180.29L127.23 211.35L158.28 180.29L132.11 154.12L160.65 125.58L181.83 146.75L166.76 161.82L158.67 153.72L165.67 146.72L160.67 141.72L148.3 154.12L166.38 172.2L193.13 145.45L172.69 125L193.13 104.55L166.38 77.8L148.3 95.88L160.65 108.23L165.65 103.23L158.65 96.23L166.74 88.13L181.81 103.2L160.63 124.37L132.11 95.88L158.28 69.71L127.28 38.65L96.1702 69.71L122.34 95.88L93.8002 124.42L72.6302 103.25L87.6902 88.18L95.7902 96.28L88.7902 103.28L93.7902 108.28L106.14 95.93L88.0702 77.8L61.3202 104.55L81.7702 125L61.3202 145.44L88.0702 172.2L106.15 154.12L93.8002 141.77L88.8002 146.77L95.8002 153.77L87.7002 161.87L72.6302 146.75L93.8002 125.58L122.34 154.12L96.1702 180.29ZM201.23 140.52L185.71 125L201.23 109.48L216.74 125L201.23 140.52ZM188.88 125L201.23 137.35L213.58 125L201.23 112.65L188.88 125ZM53.2302 140.52L37.7102 125L53.2302 109.48L68.7402 125L53.2302 140.52ZM40.8802 125L53.2302 137.35L65.5702 125L53.2302 112.65L40.8802 125Z" fill="white"/>
<path d="M127.23 204L103.23 180L127.23 156L151.23 180L127.23 204ZM106.38 180L127.23 200.84L148.07 180L127.23 159.15L106.38 180Z" fill="white"/>
<path d="M127.23 93.4102L103.23 69.4102L127.23 45.4102L151.23 69.4102L127.23 93.4102ZM106.38 69.4102L127.23 90.2502L148.07 69.4002L127.23 48.5602L106.38 69.4102Z" fill="white"/>
</g>
<path d="M43.0002 124.16C42.1265 124.418 41.199 124.432 40.3178 124.201C39.4366 123.97 38.6352 123.503 38.0002 122.85C37.3285 122.194 36.848 121.368 36.6102 120.46C36.391 119.58 36.4152 118.657 36.6802 117.79C36.9672 116.864 37.4831 116.024 38.1802 115.35C38.7466 114.769 39.4277 114.313 40.1802 114.01C40.8725 113.737 41.6186 113.627 42.3602 113.69L42.2802 115.69C41.798 115.65 41.3129 115.719 40.8611 115.892C40.4092 116.065 40.0022 116.338 39.6702 116.69C39.2548 117.092 38.9515 117.595 38.7902 118.15C38.6402 118.673 38.6402 119.227 38.7902 119.75C38.954 120.304 39.257 120.807 39.6702 121.21C40.0748 121.624 40.5768 121.93 41.1302 122.1C41.6564 122.25 42.214 122.25 42.7402 122.1C43.2937 121.93 43.7957 121.624 44.2002 121.21C44.5453 120.873 44.8093 120.462 44.9721 120.008C45.135 119.554 45.1924 119.069 45.1402 118.59L47.1402 118.51C47.2119 119.258 47.1056 120.011 46.8302 120.71C46.5203 121.461 46.061 122.142 45.4802 122.71C44.7893 123.395 43.9361 123.894 43.0002 124.16V124.16Z" fill="white"/>
<path d="M50.2899 116.89C49.4073 117.163 48.4662 117.186 47.5713 116.956C46.6763 116.727 45.8624 116.254 45.2199 115.59C44.5517 114.943 44.0772 114.122 43.8499 113.22C43.6229 112.334 43.6471 111.403 43.9199 110.53C44.2216 109.594 44.7416 108.743 45.4372 108.047C46.1327 107.352 46.9837 106.832 47.9199 106.53C48.8058 106.258 49.75 106.237 50.6471 106.47C51.5441 106.703 52.3587 107.181 52.9999 107.85C53.664 108.494 54.1362 109.311 54.3639 110.207C54.5917 111.104 54.5661 112.047 54.2899 112.93C53.9905 113.867 53.4712 114.72 52.7754 115.415C52.0795 116.111 51.2273 116.631 50.2899 116.93V116.89ZM52.1999 112.57C52.3448 112.046 52.3448 111.493 52.1999 110.97C52.0301 110.416 51.7241 109.915 51.3099 109.51C50.9065 109.097 50.4038 108.794 49.8499 108.63C49.3305 108.48 48.7794 108.48 48.2599 108.63C47.7186 108.775 47.2274 109.065 46.8399 109.47C46.4377 109.861 46.1447 110.351 45.9899 110.89C45.8451 111.413 45.8451 111.966 45.9899 112.49C46.1557 113.045 46.4623 113.548 46.8799 113.95C47.2806 114.367 47.7842 114.67 48.3399 114.83C48.8594 114.98 49.4105 114.98 49.9299 114.83C50.4713 114.685 50.9624 114.395 51.3499 113.99C51.7522 113.599 52.0452 113.109 52.1999 112.57Z" fill="white"/>
<path d="M57.22 96.52L61.22 106.65L59.61 108.27L49.48 104.27L51.25 102.5L58.46 105.4L55.6 98.14L57.22 96.52Z" fill="white"/>
<path d="M57.8101 95.9298L59.4401 94.2998L66.5201 101.37L64.8801 103L57.8101 95.9298Z" fill="white"/>
<path d="M61.1201 92.6198L64.3401 89.4098C65.027 88.6907 65.873 88.1427 66.8101 87.8098C67.6489 87.5151 68.5546 87.4665 69.4201 87.6698C70.3106 87.8892 71.1236 88.3493 71.7701 88.9998C72.4407 89.6371 72.9159 90.4523 73.1401 91.3498C73.356 92.2276 73.3073 93.1497 73.0001 93.9998C72.6753 94.9414 72.1302 95.7917 71.4101 96.4798L68.1901 99.6898L61.1201 92.6198ZM70.0001 95.2198C70.655 94.6318 71.0505 93.8085 71.1001 92.9298C71.0703 92.0906 70.7236 91.2939 70.1298 90.7001C69.536 90.1064 68.7393 89.7596 67.9001 89.7298C67.026 89.7863 66.2083 90.1808 65.6201 90.8298L64.1201 92.3298L68.5101 96.7098L70.0001 95.2198Z" fill="white"/>
<path d="M83.9101 83.9998L80.5701 83.3898L80.4901 83.4698L79.0701 84.8998L81.0701 86.8998L79.4001 88.4898L72.3301 81.4098L75.3901 78.3498C75.9559 77.7733 76.6375 77.3234 77.3901 77.0298C78.0241 76.7719 78.7216 76.7126 79.3901 76.8598C80.0265 77.0424 80.6033 77.3902 81.0617 77.868C81.5201 78.3457 81.8439 78.9364 82.0001 79.5798C82.1365 80.2522 82.0632 80.9504 81.7901 81.5798L85.6501 82.2598L83.9101 83.9998ZM78.0701 78.9998C77.5124 79.0996 77.0049 79.385 76.6301 79.8098L75.3001 81.1098L77.7601 83.5798L79.1001 82.2398C79.5283 81.8692 79.8117 81.3591 79.9001 80.7998C79.8988 80.5613 79.8503 80.3253 79.7575 80.1056C79.6647 79.8858 79.5294 79.6866 79.3593 79.5193C79.1893 79.352 78.9878 79.22 78.7666 79.1308C78.5453 79.0417 78.3086 78.9972 78.0701 78.9998V78.9998Z" fill="white"/>
<path d="M89.7402 73.6L85.6202 77.72C86.0249 77.9926 86.5213 78.0933 87.0002 78C87.507 77.8981 87.9689 77.6392 88.3202 77.26C88.5818 77.0073 88.7953 76.7091 88.9502 76.38C89.083 76.063 89.1542 75.7236 89.1602 75.38L90.9102 75.45C90.9257 76.0388 90.8109 76.6238 90.574 77.1632C90.3372 77.7025 89.9842 78.1829 89.5402 78.57C88.9877 79.1509 88.3009 79.587 87.5402 79.84C86.8682 80.0766 86.1417 80.1113 85.4502 79.94C84.754 79.7624 84.1206 79.3955 83.6202 78.88C83.0903 78.3659 82.7131 77.7152 82.5302 77C82.3526 76.3451 82.3526 75.6548 82.5302 75C82.7445 74.303 83.1295 73.6705 83.6502 73.16C84.1478 72.6523 84.7624 72.2745 85.4402 72.06C86.0933 71.87 86.7871 71.87 87.4402 72.06C88.1492 72.2603 88.7915 72.6471 89.3002 73.18L89.7402 73.6ZM84.3002 75.54C84.2639 76.0006 84.4033 76.4578 84.6902 76.82L87.3602 74.14C86.9992 73.8591 86.5461 73.7235 86.0902 73.76C85.6366 73.8035 85.214 74.0095 84.9002 74.34C84.5624 74.6548 84.3494 75.0808 84.3002 75.54V75.54Z" fill="white"/>
<path d="M93.5098 74.2101C93.0617 74.4886 92.5723 74.6945 92.0598 74.8201L91.4498 73.1601C91.8923 73.0568 92.3169 72.8883 92.7098 72.6601C93.1334 72.4268 93.5236 72.1376 93.8698 71.8001C94.5398 71.1301 94.6998 70.6301 94.3698 70.3001C94.29 70.2261 94.1882 70.1803 94.0799 70.1694C93.9716 70.1586 93.8627 70.1834 93.7698 70.2401C93.4123 70.4251 93.0769 70.6498 92.7698 70.9101C92.3394 71.2244 91.8921 71.5148 91.4298 71.7801C91.0549 71.9792 90.634 72.0758 90.2098 72.0601C89.7235 72.0234 89.271 71.7971 88.9498 71.4301C88.6122 71.1085 88.3936 70.6819 88.3298 70.2201C88.2702 69.7097 88.3569 69.193 88.5798 68.7301C88.855 68.1407 89.2383 67.6081 89.7098 67.1601C90.0906 66.776 90.5172 66.4402 90.9798 66.1601C91.3738 65.8903 91.8097 65.6876 92.2698 65.5601L92.8698 67.2101C92.1109 67.4097 91.4199 67.8105 90.8698 68.3701C90.595 68.6169 90.3825 68.9253 90.2498 69.2701C90.2089 69.3734 90.1975 69.4862 90.2169 69.5956C90.2364 69.7051 90.2858 69.8071 90.3598 69.8901C90.4382 69.9783 90.5442 70.0373 90.6605 70.0572C90.7768 70.0772 90.8965 70.0571 90.9998 70.0001C91.3725 69.805 91.7272 69.5775 92.0598 69.3201C92.4833 69.0069 92.9277 68.7229 93.3898 68.4701C93.7558 68.2664 94.1715 68.1694 94.5898 68.1901C95.0685 68.2261 95.5138 68.4488 95.8298 68.8101C96.162 69.129 96.3739 69.5529 96.4298 70.0101C96.4774 70.5231 96.3804 71.0393 96.1498 71.5001C95.8596 72.0797 95.4704 72.6043 94.9998 73.0501C94.5536 73.4975 94.053 73.8872 93.5098 74.2101Z" fill="white"/>
<path d="M97.88 59.6698C98.5325 59.4753 99.2275 59.4753 99.88 59.6698C100.577 59.8721 101.208 60.2551 101.71 60.7798C102.234 61.2837 102.62 61.9139 102.83 62.6098C103.01 63.2474 103.01 63.9223 102.83 64.5598C102.648 65.2118 102.304 65.807 101.83 66.2898C101.543 66.6113 101.189 66.867 100.794 67.0396C100.399 67.2122 99.9712 67.2975 99.54 67.2898L102 69.8198L100.43 71.3898L93 63.9998L94.51 62.4898L95.13 63.1198C95.1029 62.6671 95.1788 62.2141 95.352 61.795C95.5252 61.3758 95.7912 61.0014 96.13 60.6998C96.615 60.2117 97.2178 59.8569 97.88 59.6698ZM100.77 63.8798C100.756 63.5968 100.686 63.3194 100.564 63.0636C100.443 62.8078 100.271 62.5788 100.06 62.3898C99.678 61.9694 99.147 61.7146 98.58 61.6798C98.3166 61.6727 98.0547 61.7216 97.8116 61.8233C97.5685 61.925 97.3498 62.0772 97.17 62.2698C96.9789 62.4482 96.8283 62.6655 96.7283 62.907C96.6282 63.1485 96.5811 63.4086 96.59 63.6698C96.6186 64.2392 96.87 64.7744 97.29 65.1598C97.6757 65.5809 98.21 65.8355 98.78 65.8698C99.0416 65.8743 99.3012 65.8241 99.5423 65.7225C99.7833 65.6209 100.001 65.4702 100.18 65.2798C100.372 65.1015 100.524 64.8845 100.625 64.6432C100.727 64.4018 100.776 64.1417 100.77 63.8798V63.8798Z" fill="white"/>
<path d="M106.19 61.1401C105.523 61.3527 104.81 61.377 104.13 61.2101C103.604 61.087 103.11 60.8562 102.679 60.5324C102.247 60.2086 101.888 59.7988 101.623 59.3288C101.358 58.8589 101.193 58.3391 101.139 57.8023C101.085 57.2654 101.143 56.7233 101.31 56.2101C101.542 55.4874 101.951 54.8342 102.5 54.3101C103.02 53.7628 103.67 53.3568 104.39 53.1301C105.066 52.912 105.791 52.8901 106.479 53.0671C107.168 53.2441 107.792 53.6127 108.28 54.1301C108.795 54.6167 109.163 55.2392 109.34 55.9258C109.517 56.6123 109.496 57.3348 109.28 58.0101C109.066 58.7669 108.655 59.4535 108.09 60.0001C107.56 60.5308 106.907 60.9224 106.19 61.1401ZM107.39 57.2601C107.331 56.6967 107.08 56.1707 106.68 55.7701C106.279 55.3696 105.753 55.1189 105.19 55.0601C104.928 55.0556 104.669 55.1057 104.428 55.2073C104.186 55.3089 103.969 55.4597 103.79 55.6501C103.599 55.8314 103.448 56.0504 103.347 56.2931C103.245 56.5358 103.195 56.797 103.2 57.0601C103.253 57.6228 103.501 58.1494 103.901 58.5492C104.3 58.9489 104.827 59.1967 105.39 59.2501C105.92 59.2501 106.429 59.0393 106.804 58.6643C107.179 58.2892 107.39 57.7805 107.39 57.2501V57.2601Z" fill="white"/>
<path d="M112.07 46C112.531 46.0209 112.984 46.1354 113.4 46.3365C113.816 46.5376 114.187 46.8212 114.49 47.17L117.6 50.28L116 51.86L113.16 49C112.841 48.6278 112.396 48.3858 111.91 48.32C111.695 48.3155 111.482 48.358 111.285 48.4443C111.088 48.5307 110.912 48.6589 110.77 48.82C110.586 48.987 110.439 49.1908 110.339 49.4183C110.239 49.6457 110.188 49.8916 110.19 50.14C110.241 50.7005 110.506 51.2197 110.93 51.59L113.62 54.28L112 55.84L106.57 50.41L108.07 48.9L108.71 49.54C108.69 49.0898 108.775 48.6412 108.96 48.23C109.155 47.7766 109.437 47.3656 109.79 47.02C110.081 46.7049 110.434 46.4521 110.825 46.2768C111.217 46.1015 111.641 46.0073 112.07 46V46Z" fill="white"/>
<path d="M119.44 48.2702C118.995 48.5488 118.509 48.7548 118 48.8802L117.39 47.2202C117.834 47.1213 118.259 46.9526 118.65 46.7202C119.073 46.4903 119.46 46.2007 119.8 45.8602C120.466 45.1935 120.636 44.6935 120.31 44.3602C120.222 44.2929 120.115 44.2564 120.005 44.2564C119.894 44.2564 119.787 44.2929 119.7 44.3602C119.344 44.5432 119.008 44.7645 118.7 45.0202C118.279 45.3433 117.834 45.6342 117.37 45.8902C116.995 46.0915 116.575 46.1914 116.15 46.1802C115.66 46.144 115.205 45.9179 114.88 45.5502C114.55 45.2201 114.336 44.7921 114.27 44.3302C114.207 43.8208 114.29 43.3041 114.51 42.8402C114.791 42.2543 115.174 41.7228 115.64 41.2702C116.03 40.8966 116.455 40.5617 116.91 40.2702C117.311 40.0087 117.749 39.8098 118.21 39.6802L118.8 41.3202C118.045 41.5286 117.356 41.9281 116.8 42.4802C116.527 42.7271 116.318 43.0357 116.19 43.3802C116.147 43.4831 116.134 43.5964 116.153 43.7064C116.173 43.8164 116.224 43.9184 116.3 44.0002C116.378 44.0836 116.482 44.1373 116.595 44.1519C116.709 44.1665 116.823 44.1411 116.92 44.0802C117.296 43.8901 117.654 43.6658 117.99 43.4102C118.41 43.0946 118.851 42.8073 119.31 42.5502C119.678 42.3522 120.092 42.2556 120.51 42.2702C120.988 42.3083 121.432 42.5306 121.75 42.8902C122.082 43.2092 122.294 43.633 122.35 44.0902C122.402 44.6056 122.308 45.1253 122.08 45.5902C121.788 46.1831 121.395 46.721 120.92 47.1802C120.472 47.6019 119.975 47.9679 119.44 48.2702V48.2702Z" fill="white"/>
<path d="M127.41 35.9301L123.3 40.0001C123.689 40.2556 124.162 40.3522 124.62 40.2701C125.13 40.1749 125.596 39.9191 125.95 39.5401C126.208 39.2865 126.418 38.9884 126.57 38.6601C126.71 38.3449 126.784 38.0048 126.79 37.6601L128.53 37.7301C128.547 38.3181 128.433 38.9026 128.198 39.4419C127.963 39.9812 127.612 40.462 127.17 40.8501C126.613 41.4254 125.928 41.8606 125.17 42.1201C124.499 42.3485 123.778 42.3798 123.09 42.2101C122.392 42.0365 121.758 41.669 121.26 41.1501C120.746 40.6521 120.38 40.0225 120.2 39.3301C120.017 38.6759 120.017 37.9842 120.2 37.3301C120.411 36.6315 120.796 35.9982 121.32 35.4901C121.819 34.9836 122.433 34.6061 123.11 34.3901C123.763 34.2001 124.457 34.2001 125.11 34.3901C125.823 34.579 126.475 34.9513 127 35.4701L127.41 35.9301ZM122 37.8701C121.96 38.3263 122.096 38.7805 122.38 39.1401L125 36.4601C124.638 36.1818 124.185 36.0497 123.73 36.0901C123.272 36.1276 122.844 36.3343 122.53 36.6701C122.217 36.9949 122.029 37.42 122 37.8701V37.8701Z" fill="white"/>
<path d="M311.8 148.78V148.83C311.821 149.36 311.725 149.888 311.519 150.377C311.313 150.866 311.003 151.304 310.61 151.66C309.719 152.439 308.562 152.844 307.38 152.79C306.756 152.81 306.136 152.691 305.563 152.442C304.991 152.193 304.481 151.82 304.07 151.35C303.191 150.338 302.73 149.03 302.78 147.69V145.56C302.731 144.218 303.192 142.907 304.07 141.89C304.48 141.419 304.99 141.045 305.562 140.794C306.135 140.543 306.756 140.422 307.38 140.44C308.562 140.382 309.722 140.772 310.63 141.53C311.027 141.891 311.338 142.336 311.541 142.832C311.743 143.329 311.832 143.865 311.8 144.4V144.4H310.24C310.261 144.034 310.206 143.667 310.078 143.323C309.951 142.979 309.754 142.665 309.5 142.4C309.217 142.143 308.886 141.945 308.525 141.817C308.164 141.69 307.782 141.637 307.4 141.66C306.977 141.651 306.559 141.746 306.182 141.938C305.805 142.13 305.481 142.413 305.24 142.76C304.68 143.554 304.396 144.509 304.43 145.48V147.63C304.395 148.607 304.68 149.569 305.24 150.37C305.482 150.717 305.806 150.997 306.183 151.188C306.56 151.378 306.978 151.472 307.4 151.46C307.781 151.485 308.163 151.434 308.524 151.308C308.885 151.183 309.217 150.986 309.5 150.73C309.753 150.465 309.949 150.151 310.077 149.807C310.204 149.463 310.26 149.096 310.24 148.73L311.8 148.78Z" fill="white"/>
<path d="M323.09 147.69C323.137 149.039 322.648 150.351 321.73 151.34C321.277 151.82 320.727 152.198 320.117 152.448C319.506 152.698 318.849 152.815 318.19 152.79C317.549 152.813 316.91 152.694 316.319 152.444C315.729 152.193 315.2 151.817 314.77 151.34C313.878 150.339 313.409 149.03 313.46 147.69V145.56C313.412 144.218 313.881 142.908 314.77 141.9C315.199 141.422 315.728 141.044 316.318 140.792C316.909 140.54 317.548 140.42 318.19 140.44C318.85 140.418 319.507 140.536 320.118 140.788C320.728 141.04 321.278 141.419 321.73 141.9C322.647 142.894 323.136 144.209 323.09 145.56V147.69ZM321.47 145.54C321.508 144.559 321.192 143.597 320.58 142.83C320.286 142.486 319.919 142.213 319.505 142.032C319.091 141.85 318.642 141.764 318.19 141.78C317.757 141.764 317.326 141.851 316.934 142.033C316.541 142.216 316.197 142.489 315.93 142.83C315.339 143.607 315.038 144.565 315.08 145.54V147.69C315.035 148.669 315.336 149.631 315.93 150.41C316.196 150.753 316.54 151.027 316.933 151.211C317.325 151.396 317.756 151.484 318.19 151.47C318.642 151.487 319.091 151.401 319.505 151.219C319.919 151.037 320.286 150.764 320.58 150.42C321.195 149.647 321.511 148.678 321.47 147.69V145.54Z" fill="white"/>
<path d="M328.9 149.47L329.17 150.47H329.22L329.49 149.47L332.59 140.62H334.35L329.89 152.62H328.49L324.03 140.62H325.8L328.9 149.47Z" fill="white"/>
<path d="M337.73 152.62H336.09V140.62H337.73V152.62Z" fill="white"/>
<path d="M340.7 152.62V140.62H344.48C345.172 140.58 345.865 140.686 346.514 140.932C347.162 141.177 347.751 141.557 348.243 142.046C348.735 142.535 349.118 143.122 349.367 143.769C349.616 144.416 349.727 145.108 349.69 145.8V147.44C349.727 148.133 349.616 148.825 349.367 149.472C349.118 150.119 348.735 150.706 348.243 151.195C347.751 151.683 347.162 152.063 346.514 152.309C345.865 152.554 345.172 152.66 344.48 152.62H340.7ZM342.33 141.89V151.35H344.48C344.972 151.376 345.462 151.29 345.916 151.1C346.37 150.909 346.774 150.619 347.1 150.25C347.775 149.473 348.132 148.469 348.1 147.44V145.79C348.13 144.764 347.773 143.765 347.1 142.99C346.773 142.623 346.368 142.334 345.915 142.144C345.461 141.953 344.971 141.867 344.48 141.89H342.33Z" fill="white"/>
<path d="M357 148.19H352.13V146.92H357V148.19Z" fill="white"/>
<path d="M364.2 152.62H362.57V142.12H359.95V140.87L364.2 140.42V152.62Z" fill="white"/>
<path d="M372 151.52C372.354 151.533 372.707 151.468 373.034 151.329C373.36 151.191 373.652 150.983 373.89 150.72C374.41 150.07 374.67 149.251 374.62 148.42V147.42C374.366 147.796 374.023 148.102 373.62 148.31C373.22 148.512 372.778 148.615 372.33 148.61C371.827 148.636 371.324 148.553 370.854 148.369C370.385 148.184 369.961 147.902 369.61 147.54C368.901 146.707 368.543 145.632 368.61 144.54C368.549 143.449 368.907 142.376 369.61 141.54C369.934 141.173 370.333 140.881 370.78 140.682C371.226 140.484 371.711 140.384 372.2 140.39C372.734 140.368 373.266 140.457 373.764 140.651C374.261 140.846 374.713 141.142 375.09 141.52C375.858 142.399 376.249 143.545 376.18 144.71V148.36C376.213 148.951 376.124 149.543 375.92 150.098C375.715 150.654 375.399 151.162 374.99 151.59C374.583 151.977 374.102 152.278 373.577 152.475C373.051 152.673 372.491 152.763 371.93 152.74C371.493 152.74 371.058 152.696 370.63 152.61C370.204 152.524 369.789 152.393 369.39 152.22L369.64 150.99C369.98 151.156 370.34 151.28 370.71 151.36C371.132 151.464 371.565 151.518 372 151.52ZM372.34 147.32C372.845 147.337 373.343 147.201 373.77 146.93C374.144 146.686 374.439 146.339 374.62 145.93V144.51C374.663 143.77 374.448 143.038 374.01 142.44C373.805 142.195 373.545 142.002 373.252 141.875C372.958 141.748 372.639 141.692 372.32 141.71C372.029 141.71 371.742 141.782 371.485 141.92C371.229 142.058 371.011 142.257 370.85 142.5C370.477 143.11 370.28 143.81 370.28 144.525C370.28 145.24 370.477 145.941 370.85 146.55C371.013 146.789 371.232 146.985 371.489 147.119C371.745 147.254 372.031 147.323 372.32 147.32H372.34Z" fill="white"/>
<path d="M385.71 150L385.85 150.63L386 150L388.06 143.71H389.71L386.43 152.63H385.2L381.88 143.71H383.55L385.71 150Z" fill="white"/>
<path d="M396.58 152.62C396.53 152.35 396.48 152.11 396.45 151.91C396.42 151.71 396.45 151.49 396.4 151.29C396.084 151.724 395.682 152.088 395.22 152.36C394.746 152.645 394.203 152.794 393.65 152.79C393.265 152.818 392.879 152.77 392.514 152.648C392.148 152.526 391.81 152.333 391.52 152.08C391.266 151.816 391.07 151.501 390.944 151.157C390.819 150.813 390.766 150.446 390.79 150.08C390.774 149.69 390.858 149.301 391.033 148.952C391.208 148.602 391.468 148.302 391.79 148.08C392.631 147.558 393.611 147.307 394.6 147.36H396.36V146.48C396.371 146.251 396.334 146.023 396.251 145.809C396.168 145.596 396.042 145.402 395.88 145.24C395.507 144.917 395.022 144.752 394.53 144.78C394.07 144.762 393.618 144.903 393.25 145.18C393.101 145.29 392.981 145.434 392.898 145.598C392.814 145.763 392.771 145.945 392.77 146.13H391.22C391.214 145.782 391.294 145.437 391.453 145.127C391.612 144.816 391.844 144.55 392.13 144.35C392.84 143.791 393.727 143.507 394.63 143.55C395.509 143.503 396.376 143.777 397.07 144.32C397.384 144.594 397.631 144.937 397.79 145.322C397.95 145.707 398.018 146.124 397.99 146.54V150.83C397.99 151.15 397.99 151.46 398.04 151.76C398.081 152.054 398.141 152.344 398.22 152.63L396.58 152.62ZM393.89 151.43C394.452 151.435 395.004 151.279 395.48 150.98C395.887 150.756 396.21 150.405 396.4 149.98V148.53H394.58C394.014 148.495 393.454 148.662 393 149C392.818 149.136 392.67 149.313 392.567 149.516C392.465 149.719 392.411 149.943 392.41 150.17C392.401 150.344 392.429 150.518 392.493 150.68C392.557 150.842 392.655 150.989 392.78 151.11C393.095 151.355 393.492 151.469 393.89 151.43V151.43Z" fill="white"/>
<path d="M403.93 151.52C404.413 151.527 404.88 151.352 405.24 151.03C405.416 150.878 405.558 150.689 405.654 150.476C405.751 150.264 405.801 150.033 405.8 149.8H407.27C407.272 150.196 407.182 150.586 407.009 150.942C406.835 151.297 406.583 151.608 406.27 151.85C405.515 152.485 404.542 152.801 403.558 152.73C402.574 152.659 401.656 152.207 401 151.47C400.305 150.556 399.952 149.427 400 148.28V148C399.956 146.86 400.31 145.739 401 144.83C401.347 144.402 401.792 144.063 402.296 143.841C402.8 143.618 403.35 143.519 403.9 143.55C404.348 143.531 404.795 143.603 405.214 143.761C405.633 143.919 406.016 144.161 406.34 144.47C406.649 144.759 406.892 145.112 407.05 145.504C407.209 145.896 407.281 146.318 407.26 146.74V146.79H405.8C405.809 146.276 405.619 145.778 405.27 145.4C405.102 145.212 404.895 145.063 404.664 144.963C404.432 144.863 404.182 144.814 403.93 144.82C403.581 144.798 403.232 144.873 402.923 145.037C402.614 145.202 402.357 145.448 402.18 145.75C401.803 146.439 401.617 147.215 401.64 148V148.34C401.613 149.132 401.799 149.916 402.18 150.61C402.357 150.911 402.615 151.155 402.924 151.316C403.234 151.477 403.582 151.548 403.93 151.52Z" fill="white"/>
<path d="M412.77 151.52C413.253 151.527 413.72 151.352 414.08 151.03C414.256 150.878 414.398 150.689 414.494 150.476C414.591 150.264 414.641 150.033 414.64 149.8H416.1C416.101 150.196 416.012 150.586 415.839 150.942C415.665 151.297 415.413 151.608 415.1 151.85C414.451 152.436 413.604 152.754 412.73 152.74C412.179 152.772 411.629 152.674 411.123 152.453C410.617 152.232 410.171 151.896 409.82 151.47C409.13 150.553 408.777 149.427 408.82 148.28V148C408.771 146.859 409.125 145.737 409.82 144.83C410.167 144.402 410.611 144.063 411.116 143.841C411.62 143.618 412.17 143.519 412.72 143.55C413.168 143.531 413.614 143.603 414.034 143.761C414.453 143.919 414.836 144.161 415.16 144.47C415.467 144.76 415.709 145.113 415.868 145.505C416.026 145.896 416.099 146.318 416.08 146.74V146.79H414.61C414.618 146.276 414.429 145.778 414.08 145.4C413.911 145.213 413.705 145.064 413.473 144.964C413.242 144.864 412.992 144.815 412.74 144.82C412.391 144.798 412.042 144.873 411.733 145.037C411.424 145.202 411.167 145.448 410.99 145.75C410.609 146.438 410.419 147.215 410.44 148V148.34C410.413 149.132 410.599 149.916 410.98 150.61C411.161 150.916 411.425 151.165 411.742 151.326C412.059 151.487 412.416 151.554 412.77 151.52Z" fill="white"/>
<path d="M419.81 141.42H418.19V139.76H419.81V141.42ZM419.81 152.62H418.19V143.7H419.81V152.62Z" fill="white"/>
<path d="M423.76 143.7L423.88 145.03C424.152 144.576 424.534 144.198 424.99 143.93C425.456 143.665 425.984 143.531 426.52 143.54C426.932 143.514 427.344 143.576 427.73 143.721C428.116 143.865 428.467 144.09 428.76 144.38C429.347 145.117 429.63 146.051 429.55 146.99V152.62H427.93V147C427.986 146.404 427.819 145.809 427.46 145.33C427.271 145.152 427.047 145.016 426.803 144.93C426.558 144.844 426.299 144.81 426.04 144.83C425.593 144.814 425.15 144.922 424.76 145.14C424.416 145.341 424.133 145.631 423.94 145.98V152.6H422.31V143.7H423.76Z" fill="white"/>
<path d="M435.6 152.79C435.041 152.819 434.482 152.725 433.964 152.514C433.445 152.304 432.98 151.981 432.6 151.57C431.857 150.658 431.476 149.505 431.53 148.33V148C431.488 146.838 431.884 145.703 432.64 144.82C432.97 144.422 433.384 144.104 433.853 143.888C434.322 143.671 434.834 143.563 435.35 143.57C435.852 143.534 436.356 143.615 436.821 143.808C437.286 144.001 437.7 144.299 438.03 144.68C438.671 145.543 438.986 146.606 438.92 147.68V148.54H433.22C433.186 149.311 433.396 150.074 433.82 150.72C434.026 151.001 434.301 151.224 434.617 151.369C434.934 151.515 435.283 151.577 435.63 151.55C436.123 151.563 436.615 151.485 437.08 151.32C437.475 151.173 437.838 150.953 438.15 150.67L438.78 151.73C438.412 152.066 437.985 152.331 437.52 152.51C436.904 152.726 436.252 152.821 435.6 152.79ZM435.35 144.79C435.08 144.784 434.813 144.841 434.568 144.955C434.324 145.07 434.109 145.239 433.94 145.45C433.552 145.93 433.315 146.515 433.26 147.13V147.13H437.26V147C437.283 146.425 437.114 145.858 436.78 145.39C436.602 145.19 436.381 145.033 436.133 144.933C435.885 144.832 435.617 144.79 435.35 144.81V144.79Z" fill="white"/>
<path d="M444.57 148.33C444.513 147.103 444.834 145.888 445.49 144.85C445.775 144.432 446.16 144.092 446.612 143.863C447.063 143.634 447.564 143.523 448.07 143.54C448.545 143.529 449.017 143.624 449.45 143.82C449.841 144.023 450.182 144.31 450.45 144.66V139.76H452.07V152.62H450.83L450.58 151.49C450.313 151.912 449.941 152.256 449.5 152.49C449.037 152.718 448.526 152.831 448.01 152.82C447.52 152.842 447.032 152.746 446.586 152.541C446.141 152.336 445.751 152.027 445.45 151.64C444.806 150.734 444.483 149.64 444.53 148.53L444.57 148.33ZM446.19 148.5C446.154 149.26 446.349 150.013 446.75 150.66C446.941 150.93 447.199 151.147 447.499 151.289C447.798 151.431 448.129 151.493 448.46 151.47C448.891 151.485 449.316 151.37 449.68 151.14C450.026 150.91 450.306 150.592 450.49 150.22V146.06C450.294 145.706 450.016 145.405 449.68 145.18C449.321 144.953 448.904 144.838 448.48 144.85C448.127 144.836 447.776 144.922 447.47 145.099C447.164 145.276 446.914 145.537 446.75 145.85C446.348 146.623 446.155 147.489 446.19 148.36V148.5Z" fill="white"/>
<path d="M454.16 148.08C454.114 146.9 454.494 145.743 455.23 144.82C455.583 144.396 456.029 144.059 456.534 143.837C457.039 143.615 457.589 143.513 458.14 143.54C458.693 143.514 459.244 143.615 459.752 143.835C460.26 144.055 460.711 144.389 461.07 144.81C461.814 145.733 462.197 146.895 462.15 148.08V148.26C462.199 149.44 461.819 150.598 461.08 151.52C460.706 151.921 460.253 152.241 459.75 152.46C459.247 152.679 458.704 152.791 458.155 152.791C457.606 152.791 457.063 152.679 456.56 152.46C456.057 152.241 455.604 151.921 455.23 151.52C454.494 150.597 454.114 149.44 454.16 148.26V148.08ZM455.78 148.26C455.747 149.082 455.956 149.895 456.38 150.6C456.579 150.885 456.844 151.117 457.152 151.277C457.46 151.438 457.803 151.522 458.15 151.522C458.497 151.522 458.84 151.438 459.148 151.277C459.456 151.117 459.721 150.885 459.92 150.6C460.344 149.895 460.553 149.082 460.52 148.26V148.08C460.55 147.258 460.342 146.446 459.92 145.74C459.732 145.442 459.468 145.199 459.155 145.035C458.843 144.872 458.492 144.794 458.14 144.81C457.791 144.798 457.445 144.877 457.136 145.04C456.827 145.203 456.567 145.445 456.38 145.74C455.958 146.446 455.75 147.258 455.78 148.08V148.26Z" fill="white"/>
<path d="M469.32 150.22C469.324 150.053 469.289 149.888 469.218 149.736C469.147 149.585 469.041 149.453 468.91 149.35C468.446 149.041 467.92 148.837 467.37 148.75C466.508 148.603 465.685 148.283 464.95 147.81C464.681 147.631 464.462 147.387 464.313 147.1C464.165 146.813 464.091 146.493 464.1 146.17C464.103 145.81 464.188 145.455 464.349 145.132C464.51 144.81 464.743 144.529 465.03 144.31C465.74 143.801 466.594 143.531 467.468 143.54C468.342 143.549 469.19 143.836 469.89 144.36C470.18 144.587 470.412 144.879 470.569 145.213C470.725 145.546 470.801 145.912 470.79 146.28V146.33H469.24C469.233 146.129 469.185 145.932 469.097 145.751C469.009 145.57 468.884 145.409 468.73 145.28C468.381 144.962 467.922 144.793 467.45 144.81C466.989 144.774 466.532 144.913 466.17 145.2C466.038 145.315 465.932 145.456 465.86 145.615C465.788 145.773 465.75 145.946 465.75 146.12C465.742 146.275 465.77 146.43 465.833 146.573C465.895 146.715 465.99 146.841 466.11 146.94C466.577 147.214 467.093 147.394 467.63 147.47C468.518 147.624 469.363 147.965 470.11 148.47C470.376 148.657 470.592 148.906 470.74 149.195C470.888 149.484 470.964 149.805 470.96 150.13C470.962 150.509 470.872 150.882 470.698 151.218C470.523 151.554 470.27 151.843 469.96 152.06C469.231 152.585 468.347 152.849 467.45 152.81C466.481 152.868 465.525 152.561 464.77 151.95C464.469 151.713 464.227 151.408 464.064 151.061C463.901 150.714 463.82 150.334 463.83 149.95V149.95H465.38C465.374 150.197 465.429 150.441 465.541 150.661C465.653 150.881 465.817 151.069 466.02 151.21C466.438 151.484 466.93 151.623 467.43 151.61C467.91 151.638 468.386 151.512 468.79 151.25C468.963 151.142 469.104 150.99 469.197 150.808C469.29 150.627 469.333 150.424 469.32 150.22V150.22Z" fill="white"/>
<path d="M476.66 152.79C476.101 152.819 475.543 152.725 475.024 152.514C474.506 152.304 474.04 151.981 473.66 151.57C472.909 150.662 472.524 149.507 472.58 148.33V148C472.538 146.838 472.934 145.703 473.69 144.82C474.021 144.424 474.436 144.106 474.904 143.89C475.373 143.673 475.884 143.564 476.4 143.57C476.904 143.534 477.409 143.615 477.876 143.808C478.343 144.001 478.758 144.299 479.09 144.68C479.727 145.546 480.041 146.607 479.98 147.68V148.54H474.27C474.237 149.31 474.443 150.071 474.86 150.72C475.069 151.001 475.345 151.224 475.663 151.369C475.981 151.514 476.331 151.577 476.68 151.55C477.17 151.562 477.658 151.484 478.12 151.32C478.516 151.176 478.88 150.955 479.19 150.67L479.83 151.73C479.459 152.067 479.029 152.332 478.56 152.51C477.951 152.725 477.306 152.82 476.66 152.79V152.79ZM476.4 144.79C476.132 144.786 475.866 144.843 475.624 144.958C475.381 145.072 475.168 145.24 475 145.45C474.612 145.93 474.375 146.515 474.32 147.13V147.13H478.32V147C478.343 146.425 478.175 145.858 477.84 145.39C477.661 145.188 477.438 145.031 477.188 144.93C476.938 144.83 476.669 144.788 476.4 144.81V144.79Z" fill="white"/>
<path d="M487 150.22C487.004 150.053 486.97 149.888 486.898 149.736C486.827 149.585 486.722 149.453 486.59 149.35C486.123 149.04 485.594 148.835 485.04 148.75C484.179 148.601 483.356 148.282 482.62 147.81C482.355 147.628 482.139 147.383 481.992 147.097C481.845 146.81 481.772 146.492 481.78 146.17C481.783 145.81 481.868 145.455 482.029 145.132C482.19 144.81 482.423 144.529 482.71 144.31C483.42 143.801 484.274 143.531 485.148 143.54C486.022 143.549 486.871 143.836 487.57 144.36C487.857 144.589 488.087 144.882 488.241 145.215C488.396 145.548 488.471 145.913 488.46 146.28V146.33H486.91C486.904 146.129 486.855 145.932 486.767 145.751C486.679 145.57 486.554 145.409 486.4 145.28C486.041 144.989 485.596 144.824 485.134 144.81C484.671 144.795 484.217 144.932 483.84 145.2C483.706 145.313 483.597 145.453 483.523 145.612C483.449 145.771 483.41 145.945 483.41 146.12C483.404 146.276 483.434 146.432 483.498 146.574C483.562 146.716 483.659 146.842 483.78 146.94C484.244 147.215 484.757 147.395 485.29 147.47C486.182 147.622 487.031 147.963 487.78 148.47C488.046 148.657 488.262 148.906 488.411 149.195C488.559 149.484 488.634 149.805 488.63 150.13C488.632 150.509 488.542 150.882 488.368 151.218C488.194 151.554 487.941 151.843 487.63 152.06C486.901 152.585 486.017 152.849 485.12 152.81C484.148 152.868 483.189 152.561 482.43 151.95C482.132 151.711 481.893 151.406 481.732 151.059C481.57 150.712 481.491 150.333 481.5 149.95V149.95H483.05C483.041 150.197 483.096 150.442 483.208 150.663C483.32 150.883 483.486 151.071 483.69 151.21C484.109 151.484 484.6 151.623 485.1 151.61C485.58 151.638 486.057 151.512 486.46 151.25C486.634 151.142 486.775 150.989 486.87 150.808C486.965 150.627 487.01 150.424 487 150.22Z" fill="white"/>
<path d="M296.89 172.88C296.84 172.61 296.8 172.37 296.77 172.17C296.74 171.97 296.77 171.75 296.71 171.55C296.396 171.985 295.994 172.35 295.53 172.62C295.057 172.905 294.513 173.054 293.96 173.05C293.577 173.079 293.193 173.031 292.829 172.909C292.464 172.787 292.128 172.594 291.84 172.34C291.584 172.077 291.387 171.763 291.261 171.418C291.135 171.073 291.084 170.706 291.11 170.34C291.091 169.949 291.173 169.559 291.348 169.209C291.523 168.859 291.786 168.559 292.11 168.34C292.949 167.811 293.931 167.556 294.92 167.61H296.68V166.73C296.691 166.501 296.654 166.273 296.572 166.059C296.489 165.845 296.362 165.652 296.2 165.49C295.828 165.166 295.343 165.001 294.85 165.03C294.39 165.012 293.938 165.153 293.57 165.43C293.422 165.54 293.301 165.683 293.218 165.848C293.135 166.013 293.091 166.195 293.09 166.38H291.55V166.33C291.547 165.982 291.628 165.638 291.787 165.328C291.945 165.018 292.176 164.751 292.46 164.55C293.173 163.996 294.059 163.713 294.96 163.75C295.84 163.703 296.707 163.976 297.4 164.52C297.716 164.793 297.964 165.136 298.125 165.521C298.287 165.906 298.357 166.323 298.33 166.74V171.03C298.326 171.341 298.343 171.651 298.38 171.96C298.41 172.255 298.471 172.547 298.56 172.83L296.89 172.88ZM294.2 171.69C294.763 171.698 295.315 171.541 295.79 171.24C296.197 171.015 296.52 170.664 296.71 170.24V168.79H294.89C294.324 168.762 293.767 168.94 293.32 169.29C293.14 169.425 292.993 169.6 292.891 169.801C292.789 170.003 292.734 170.224 292.73 170.45C292.721 170.624 292.75 170.798 292.813 170.96C292.877 171.122 292.975 171.269 293.1 171.39C293.416 171.625 293.809 171.732 294.2 171.69V171.69Z" fill="white"/>
<path d="M302.15 164L302.26 165.33C302.538 164.878 302.923 164.501 303.38 164.23C303.846 163.966 304.374 163.831 304.91 163.84C305.32 163.816 305.73 163.878 306.115 164.022C306.499 164.167 306.848 164.391 307.14 164.68C307.727 165.417 308.01 166.351 307.93 167.29V172.92H306.31V167.32C306.366 166.725 306.198 166.129 305.84 165.65C305.651 165.474 305.427 165.339 305.182 165.255C304.937 165.17 304.678 165.138 304.42 165.16C303.978 165.147 303.539 165.25 303.15 165.46C302.801 165.658 302.513 165.949 302.32 166.3V172.92H300.69V164H302.15Z" fill="white"/>
<path d="M309.92 168.59C309.861 167.366 310.183 166.154 310.84 165.12C311.123 164.701 311.506 164.361 311.956 164.13C312.405 163.899 312.905 163.786 313.41 163.8C313.888 163.788 314.363 163.884 314.8 164.08C315.193 164.284 315.535 164.575 315.8 164.93V160H317.42V172.86H316.18L315.93 171.73C315.663 172.152 315.291 172.497 314.85 172.73C314.387 172.957 313.876 173.07 313.36 173.06C312.87 173.082 312.382 172.986 311.936 172.781C311.491 172.576 311.101 172.267 310.8 171.88C310.152 170.976 309.828 169.881 309.88 168.77L309.92 168.59ZM311.54 168.76C311.504 169.52 311.699 170.273 312.1 170.92C312.29 171.193 312.547 171.412 312.847 171.556C313.146 171.7 313.478 171.763 313.81 171.74C314.24 171.754 314.665 171.639 315.03 171.41C315.374 171.173 315.653 170.853 315.84 170.48V166.32C315.644 165.967 315.366 165.665 315.03 165.44C314.67 165.218 314.253 165.106 313.83 165.12C313.476 165.105 313.126 165.191 312.819 165.368C312.513 165.545 312.263 165.806 312.1 166.12C311.698 166.894 311.505 167.759 311.54 168.63V168.76Z" fill="white"/>
<path d="M328.76 172.88H327.13V162.38H324.51V161.13L328.76 160.68V172.88Z" fill="white"/>
<path d="M341.17 162.16C339.899 163.576 338.863 165.186 338.1 166.93C337.546 168.413 337.274 169.987 337.3 171.57V172.88H335.67V171.57C335.642 169.883 335.984 168.211 336.67 166.67C337.439 165.05 338.41 163.535 339.56 162.16H333.2V160.88H341.2L341.17 162.16Z" fill="white"/>
<path d="M353 171.56C352.744 172.018 352.371 172.401 351.92 172.67C351.31 172.994 350.613 173.115 349.93 173.016C349.247 172.917 348.613 172.603 348.12 172.12C347.514 171.281 347.226 170.252 347.31 169.22V164H348.93V169.28C348.856 169.974 349.003 170.674 349.35 171.28C349.51 171.467 349.713 171.613 349.94 171.707C350.168 171.801 350.415 171.84 350.66 171.82C351.162 171.841 351.658 171.716 352.09 171.46C352.472 171.222 352.773 170.873 352.95 170.46V164H354.57V172.92H353.11L353 171.56Z" fill="white"/>
<path d="M358.64 172.88H357V160H358.62L358.64 172.88Z" fill="white"/>
<path d="M363.4 161.81V164H365.09V165.2H363.4V170.62C363.369 170.936 363.462 171.252 363.66 171.5C363.751 171.588 363.86 171.656 363.978 171.701C364.097 171.745 364.223 171.765 364.35 171.76C364.453 171.773 364.557 171.773 364.66 171.76C364.759 171.743 364.856 171.717 364.95 171.68L365.17 172.8C365.012 172.917 364.832 172.999 364.64 173.04C364.408 173.099 364.169 173.13 363.93 173.13C363.642 173.145 363.354 173.1 363.083 172.999C362.813 172.897 362.567 172.741 362.36 172.54C361.925 172.015 361.713 171.34 361.77 170.66V165.24H360.36V164H361.77V161.85L363.4 161.81Z" fill="white"/>
<path d="M371.05 165.4L370.22 165.35C369.835 165.338 369.455 165.442 369.13 165.65C368.828 165.868 368.592 166.166 368.45 166.51V172.88H366.83V164H368.28L368.44 165.3C368.662 164.873 368.98 164.503 369.37 164.22C369.748 163.966 370.195 163.834 370.65 163.84C370.767 163.83 370.884 163.83 371 163.84C371.093 163.846 371.184 163.866 371.27 163.9L371.05 165.4Z" fill="white"/>
<path d="M378.22 172.88C378.17 172.61 378.12 172.37 378.09 172.17C378.06 171.97 378.09 171.75 378.09 171.55C377.774 171.983 377.372 172.347 376.91 172.62C376.436 172.905 375.893 173.054 375.34 173.05C374.956 173.078 374.57 173.03 374.204 172.908C373.839 172.786 373.501 172.593 373.21 172.34C372.956 172.075 372.76 171.761 372.635 171.417C372.509 171.072 372.456 170.706 372.48 170.34C372.462 169.949 372.544 169.56 372.719 169.209C372.895 168.859 373.156 168.56 373.48 168.34C374.318 167.81 375.3 167.555 376.29 167.61H378V166.73C378.011 166.501 377.974 166.273 377.891 166.059C377.809 165.845 377.682 165.652 377.52 165.49C377.147 165.167 376.663 165.002 376.17 165.03C375.71 165.012 375.258 165.153 374.89 165.43C374.742 165.54 374.621 165.683 374.538 165.848C374.455 166.013 374.411 166.195 374.41 166.38H372.9V166.33C372.895 165.981 372.975 165.637 373.133 165.326C373.292 165.016 373.524 164.749 373.81 164.55C374.522 163.995 375.408 163.712 376.31 163.75C377.19 163.703 378.057 163.976 378.75 164.52C379.065 164.794 379.311 165.137 379.471 165.522C379.63 165.907 379.699 166.324 379.67 166.74V171.03C379.67 171.35 379.67 171.66 379.67 171.96C379.708 172.255 379.772 172.546 379.86 172.83L378.22 172.88ZM375.53 171.69C376.092 171.695 376.644 171.539 377.12 171.24C377.527 171.015 377.85 170.664 378.04 170.24V168.79H376.22C375.654 168.762 375.096 168.939 374.65 169.29C374.47 169.425 374.323 169.6 374.221 169.801C374.119 170.003 374.064 170.224 374.06 170.45C374.051 170.624 374.079 170.798 374.143 170.96C374.207 171.122 374.305 171.269 374.43 171.39C374.746 171.625 375.139 171.732 375.53 171.69V171.69Z" fill="white"/>
<path d="M385.57 171.78C386.053 171.787 386.521 171.612 386.88 171.29C387.058 171.138 387.2 170.949 387.296 170.737C387.393 170.524 387.442 170.293 387.44 170.06H388.91V170.11C388.904 170.497 388.811 170.878 388.638 171.224C388.465 171.57 388.216 171.873 387.91 172.11C387.155 172.745 386.182 173.061 385.198 172.99C384.214 172.919 383.296 172.467 382.64 171.73C381.945 170.815 381.592 169.687 381.64 168.54V168.2C381.596 167.059 381.95 165.939 382.64 165.03C382.988 164.602 383.432 164.263 383.936 164.04C384.44 163.818 384.99 163.718 385.54 163.75C385.988 163.731 386.435 163.803 386.854 163.961C387.273 164.119 387.656 164.36 387.98 164.67C388.289 164.959 388.531 165.312 388.69 165.704C388.848 166.096 388.92 166.517 388.9 166.94V166.94H387.43C387.439 166.426 387.249 165.928 386.9 165.55C386.732 165.362 386.525 165.213 386.294 165.112C386.063 165.012 385.812 164.964 385.56 164.97C385.211 164.948 384.862 165.023 384.553 165.187C384.244 165.351 383.987 165.598 383.81 165.9C383.433 166.588 383.247 167.365 383.27 168.15V168.49C383.243 169.281 383.43 170.065 383.81 170.76C383.973 171.082 384.226 171.351 384.538 171.532C384.851 171.713 385.209 171.799 385.57 171.78Z" fill="white"/>
<path d="M390.48 168.34C390.434 167.16 390.814 166.003 391.55 165.08C391.924 164.681 392.376 164.362 392.879 164.144C393.381 163.926 393.923 163.814 394.47 163.814C395.018 163.814 395.559 163.926 396.061 164.144C396.564 164.362 397.016 164.681 397.39 165.08C398.134 166.004 398.518 167.165 398.47 168.35V168.53C398.519 169.71 398.139 170.868 397.4 171.79C397.026 172.19 396.574 172.508 396.071 172.726C395.569 172.944 395.028 173.056 394.48 173.056C393.933 173.056 393.391 172.944 392.889 172.726C392.386 172.508 391.934 172.19 391.56 171.79C390.816 170.871 390.432 169.712 390.48 168.53V168.34ZM392.11 168.52C392.073 169.341 392.278 170.155 392.7 170.86C392.899 171.145 393.164 171.377 393.472 171.538C393.78 171.698 394.123 171.782 394.47 171.782C394.817 171.782 395.16 171.698 395.468 171.538C395.776 171.377 396.041 171.145 396.24 170.86C396.669 170.157 396.881 169.343 396.85 168.52V168.34C396.879 167.521 396.666 166.711 396.24 166.01C396.053 165.71 395.79 165.465 395.477 165.3C395.164 165.135 394.813 165.056 394.46 165.07C394.11 165.059 393.763 165.14 393.454 165.305C393.146 165.47 392.885 165.713 392.7 166.01C392.281 166.713 392.076 167.523 392.11 168.34V168.52Z" fill="white"/>
<path d="M402.21 172.88H400.59V160H402.21V172.88Z" fill="white"/>
<path d="M404.34 168.59C404.281 167.366 404.603 166.154 405.26 165.12C405.543 164.701 405.926 164.361 406.376 164.13C406.825 163.899 407.325 163.786 407.83 163.8C408.308 163.788 408.783 163.884 409.22 164.08C409.613 164.284 409.955 164.575 410.22 164.93V160H411.84V172.86H410.6L410.35 171.73C410.083 172.152 409.711 172.497 409.27 172.73C408.807 172.957 408.296 173.07 407.78 173.06C407.29 173.082 406.802 172.986 406.356 172.781C405.911 172.576 405.521 172.267 405.22 171.88C404.572 170.976 404.248 169.881 404.3 168.77L404.34 168.59ZM405.96 168.76C405.924 169.52 406.119 170.273 406.52 170.92C406.71 171.193 406.967 171.412 407.267 171.556C407.566 171.7 407.898 171.763 408.23 171.74C408.66 171.754 409.085 171.639 409.45 171.41C409.794 171.173 410.073 170.853 410.26 170.48V166.32C410.063 165.967 409.786 165.665 409.45 165.44C409.09 165.218 408.673 165.106 408.25 165.12C407.896 165.105 407.546 165.191 407.239 165.368C406.933 165.545 406.683 165.806 406.52 166.12C406.118 166.894 405.924 167.759 405.96 168.63V168.76Z" fill="white"/>
<path d="M422.05 171.78C422.533 171.788 423.001 171.613 423.36 171.29C423.538 171.138 423.68 170.949 423.776 170.737C423.873 170.524 423.922 170.293 423.92 170.06H425.39V170.11C425.384 170.497 425.291 170.878 425.118 171.224C424.945 171.57 424.696 171.873 424.39 172.11C423.741 172.695 422.894 173.013 422.02 173C421.471 173.031 420.922 172.932 420.418 172.711C419.914 172.491 419.47 172.155 419.12 171.73C418.425 170.815 418.072 169.687 418.12 168.54V168.2C418.076 167.059 418.43 165.939 419.12 165.03C419.468 164.602 419.912 164.263 420.416 164.04C420.92 163.818 421.47 163.718 422.02 163.75C422.468 163.731 422.915 163.803 423.334 163.961C423.753 164.119 424.136 164.36 424.46 164.67C424.769 164.959 425.011 165.312 425.17 165.704C425.328 166.096 425.4 166.517 425.38 166.94V166.94H423.9C423.909 166.426 423.719 165.928 423.37 165.55C423.202 165.362 422.995 165.213 422.764 165.112C422.533 165.012 422.282 164.964 422.03 164.97C421.681 164.948 421.332 165.023 421.023 165.187C420.714 165.351 420.457 165.598 420.28 165.9C419.903 166.588 419.717 167.365 419.74 168.15V168.49C419.713 169.281 419.9 170.065 420.28 170.76C420.443 171.084 420.698 171.353 421.013 171.535C421.327 171.716 421.688 171.801 422.05 171.78V171.78Z" fill="white"/>
<path d="M429 165.16C429.298 164.743 429.688 164.401 430.14 164.16C430.601 163.925 431.112 163.805 431.63 163.81C432.039 163.786 432.449 163.849 432.832 163.995C433.215 164.142 433.562 164.368 433.85 164.66C434.435 165.41 434.717 166.352 434.64 167.3V172.89H433V167.29C433.047 166.704 432.88 166.122 432.53 165.65C432.344 165.467 432.121 165.325 431.876 165.236C431.631 165.146 431.37 165.11 431.11 165.13C430.673 165.118 430.241 165.215 429.85 165.41C429.493 165.594 429.193 165.87 428.98 166.21V172.89H427.36V160H429V165.16Z" fill="white"/>
<path d="M442.42 172.88C442.36 172.61 442.32 172.37 442.29 172.17C442.259 171.965 442.242 171.758 442.24 171.55C441.924 171.983 441.522 172.348 441.06 172.62C440.583 172.907 440.036 173.056 439.48 173.05C439.097 173.077 438.713 173.029 438.349 172.907C437.985 172.785 437.649 172.592 437.36 172.34C437.104 172.077 436.906 171.763 436.781 171.418C436.655 171.073 436.603 170.706 436.63 170.34C436.612 169.949 436.694 169.56 436.869 169.21C437.044 168.859 437.306 168.56 437.63 168.34C438.464 167.811 439.443 167.555 440.43 167.61H442.2V166.73C442.211 166.501 442.174 166.273 442.091 166.059C442.008 165.846 441.882 165.652 441.72 165.49C441.347 165.167 440.862 165.002 440.37 165.03C439.91 165.012 439.458 165.153 439.09 165.43C438.94 165.54 438.818 165.683 438.733 165.847C438.648 166.012 438.602 166.195 438.6 166.38H437.1V166.33C437.094 165.981 437.174 165.637 437.333 165.327C437.492 165.016 437.724 164.75 438.01 164.55C438.722 163.996 439.608 163.712 440.51 163.75C441.389 163.705 442.256 163.978 442.95 164.52C443.262 164.795 443.508 165.138 443.667 165.523C443.827 165.908 443.896 166.324 443.87 166.74V171.03C443.87 171.35 443.87 171.66 443.92 171.96C443.95 172.255 444.01 172.547 444.1 172.83L442.42 172.88ZM439.72 171.69C440.282 171.698 440.835 171.542 441.31 171.24C441.722 171.019 442.049 170.667 442.24 170.24V168.79H440.42C439.853 168.762 439.296 168.939 438.85 169.29C438.668 169.424 438.52 169.599 438.417 169.8C438.315 170.001 438.261 170.224 438.26 170.45C438.251 170.624 438.279 170.798 438.343 170.96C438.407 171.122 438.505 171.269 438.63 171.39C438.941 171.625 439.331 171.733 439.72 171.69V171.69Z" fill="white"/>
<path d="M448 161.68H446.37V160H448V161.68ZM448 172.88H446.37V164H448V172.88Z" fill="white"/>
<path d="M451.92 164L452.04 165.33C452.319 164.878 452.703 164.501 453.16 164.23C453.626 163.966 454.155 163.831 454.69 163.84C455.1 163.816 455.511 163.878 455.895 164.022C456.279 164.167 456.628 164.391 456.92 164.68C457.507 165.417 457.79 166.351 457.71 167.29V172.92H456.09V167.32C456.146 166.725 455.979 166.129 455.62 165.65C455.431 165.474 455.207 165.339 454.962 165.255C454.718 165.17 454.458 165.138 454.2 165.16C453.758 165.147 453.32 165.25 452.93 165.46C452.581 165.658 452.293 165.949 452.1 166.3V172.92H450.47V164H451.92Z" fill="white"/>
<path d="M469.93 171.56C469.673 172.018 469.301 172.401 468.85 172.67C468.383 172.931 467.855 173.062 467.32 173.05C466.896 173.074 466.473 173.003 466.08 172.842C465.687 172.681 465.335 172.434 465.05 172.12C464.44 171.282 464.149 170.253 464.23 169.22V164H465.86V169.28C465.786 169.974 465.933 170.674 466.28 171.28C466.44 171.468 466.642 171.615 466.87 171.708C467.098 171.802 467.345 171.841 467.59 171.82C468.091 171.839 468.588 171.714 469.02 171.46C469.402 171.225 469.7 170.875 469.87 170.46V164H471.5V172.92H470L469.93 171.56Z" fill="white"/>
<path d="M475.31 164L475.43 165.33C475.708 164.878 476.093 164.501 476.55 164.23C477.016 163.966 477.544 163.831 478.08 163.84C478.49 163.816 478.9 163.878 479.284 164.022C479.669 164.167 480.018 164.391 480.31 164.68C480.897 165.417 481.179 166.351 481.1 167.29V172.92H479.48V167.32C479.536 166.725 479.368 166.129 479.01 165.65C478.821 165.474 478.596 165.339 478.352 165.255C478.107 165.17 477.848 165.138 477.59 165.16C477.147 165.146 476.709 165.249 476.32 165.46C475.971 165.658 475.683 165.949 475.49 166.3V172.92H473.86V164H475.31Z" fill="white"/>
<path d="M485.21 161.68H483.59V160H485.21V161.68ZM485.21 172.88H483.59V164H485.21V172.88Z" fill="white"/>
<path d="M490 161.81V164H491.69V165.2H490V170.62C489.969 170.936 490.062 171.252 490.26 171.5C490.352 171.588 490.46 171.656 490.578 171.701C490.697 171.745 490.823 171.765 490.95 171.76C491.053 171.773 491.157 171.773 491.26 171.76C491.359 171.743 491.456 171.717 491.55 171.68L491.77 172.8C491.612 172.917 491.432 172.999 491.24 173.04C491.011 173.099 490.776 173.129 490.54 173.13C490.25 173.146 489.96 173.102 489.688 173.001C489.416 172.899 489.168 172.742 488.96 172.54C488.529 172.013 488.321 171.338 488.38 170.66V165.24H486.96V164H488.38V161.85L490 161.81Z" fill="white"/>
<path d="M498.59 170.48C498.594 170.313 498.559 170.147 498.488 169.996C498.417 169.845 498.312 169.713 498.18 169.61C497.711 169.304 497.183 169.099 496.63 169.01C495.769 168.861 494.946 168.541 494.21 168.07C493.944 167.888 493.728 167.643 493.582 167.357C493.435 167.07 493.362 166.752 493.37 166.43C493.373 166.069 493.458 165.714 493.619 165.392C493.78 165.07 494.013 164.788 494.3 164.57C495.01 164.06 495.864 163.791 496.738 163.8C497.612 163.809 498.461 164.096 499.16 164.62C499.447 164.849 499.677 165.142 499.831 165.475C499.986 165.808 500.061 166.173 500.05 166.54V166.59H498.5C498.494 166.389 498.445 166.191 498.357 166.01C498.269 165.83 498.144 165.669 497.99 165.54C497.63 165.249 497.186 165.084 496.724 165.07C496.261 165.055 495.807 165.192 495.43 165.46C495.295 165.572 495.187 165.713 495.113 165.872C495.039 166.031 495 166.204 495 166.38C494.993 166.536 495.023 166.691 495.088 166.834C495.152 166.976 495.249 167.102 495.37 167.2C495.833 167.475 496.347 167.655 496.88 167.73C497.772 167.882 498.621 168.223 499.37 168.73C499.636 168.917 499.852 169.166 500 169.455C500.148 169.744 500.224 170.065 500.22 170.39C500.222 170.768 500.132 171.142 499.958 171.478C499.784 171.814 499.53 172.103 499.22 172.32C498.491 172.845 497.607 173.109 496.71 173.07C495.738 173.127 494.779 172.821 494.02 172.21C493.722 171.97 493.483 171.665 493.322 171.318C493.16 170.972 493.081 170.592 493.09 170.21H494.64C494.631 170.457 494.686 170.702 494.797 170.922C494.909 171.143 495.075 171.331 495.28 171.47C495.698 171.743 496.19 171.883 496.69 171.87C497.17 171.898 497.647 171.772 498.05 171.51C498.223 171.402 498.365 171.249 498.46 171.068C498.555 170.887 498.6 170.684 498.59 170.48Z" fill="white"/>
<path d="M286.89 193.14C286.83 192.87 286.79 192.64 286.76 192.43C286.73 192.22 286.71 192.02 286.7 191.81C286.389 192.248 285.986 192.613 285.52 192.88C285.046 193.165 284.503 193.314 283.95 193.31C283.567 193.339 283.182 193.291 282.818 193.169C282.454 193.047 282.118 192.854 281.83 192.6C281.573 192.337 281.376 192.023 281.25 191.679C281.124 191.334 281.073 190.966 281.1 190.6C281.082 190.209 281.164 189.82 281.339 189.47C281.514 189.12 281.776 188.82 282.1 188.6C282.941 188.079 283.922 187.828 284.91 187.88H286.67V187C286.68 186.772 286.644 186.545 286.563 186.331C286.482 186.118 286.359 185.924 286.2 185.76C285.824 185.436 285.336 185.271 284.84 185.3C284.383 185.284 283.935 185.426 283.57 185.7C283.411 185.813 283.284 185.963 283.198 186.138C283.113 186.313 283.072 186.506 283.08 186.7H281.54C281.535 186.35 281.616 186.005 281.774 185.693C281.933 185.381 282.165 185.112 282.45 184.91C283.162 184.356 284.048 184.073 284.95 184.11C285.83 184.061 286.697 184.335 287.39 184.88C287.705 185.153 287.953 185.496 288.115 185.881C288.276 186.266 288.346 186.683 288.32 187.1V191.39C288.316 191.701 288.333 192.012 288.37 192.32C288.4 192.615 288.46 192.907 288.55 193.19L286.89 193.14ZM284.19 191.95C284.752 191.958 285.305 191.802 285.78 191.5C286.187 191.276 286.51 190.925 286.7 190.5V189H284.88C284.313 188.973 283.756 189.15 283.31 189.5C283.13 189.636 282.983 189.811 282.88 190.012C282.778 190.213 282.723 190.435 282.72 190.66C282.713 190.834 282.743 191.007 282.806 191.169C282.87 191.331 282.967 191.477 283.09 191.6C283.392 191.869 283.785 192.012 284.19 192V191.95Z" fill="white"/>
<path d="M294.91 185.66H294.07C293.688 185.648 293.311 185.753 292.99 185.96C292.688 186.178 292.452 186.476 292.31 186.82V193.19H290.69V184.27H292.14L292.29 185.57C292.518 185.144 292.84 184.775 293.23 184.49C293.608 184.236 294.055 184.104 294.51 184.11C294.626 184.1 294.743 184.1 294.86 184.11L295.13 184.17L294.91 185.66Z" fill="white"/>
<path d="M300.82 185.66H299.98C299.598 185.648 299.221 185.753 298.9 185.96C298.598 186.178 298.362 186.476 298.22 186.82V193.19H296.6V184.27H298.05L298.2 185.57C298.428 185.144 298.75 184.775 299.14 184.49C299.518 184.236 299.965 184.104 300.42 184.11C300.537 184.1 300.654 184.1 300.77 184.11L301.04 184.17L300.82 185.66Z" fill="white"/>
<path d="M304.26 181.94H302.64V180.28H304.26V181.94ZM304.26 193.14H302.64V184.22H304.26V193.14Z" fill="white"/>
<path d="M309.74 190.51L309.88 191.14H309.93L310.08 190.51L312.14 184.22H313.79L310.51 193.14H309.28L306 184.22H307.67L309.74 190.51Z" fill="white"/>
<path d="M318.84 193.31C318.281 193.341 317.722 193.248 317.203 193.037C316.684 192.826 316.218 192.503 315.84 192.09C315.098 191.181 314.717 190.031 314.77 188.86V188.49C314.728 187.328 315.124 186.193 315.88 185.31C316.21 184.915 316.623 184.598 317.09 184.382C317.557 184.166 318.065 184.056 318.58 184.06C319.084 184.023 319.589 184.104 320.056 184.297C320.523 184.49 320.939 184.789 321.27 185.17C321.907 186.036 322.221 187.097 322.16 188.17V189H316.46C316.426 189.772 316.635 190.534 317.06 191.18C317.266 191.462 317.54 191.687 317.856 191.834C318.173 191.981 318.522 192.045 318.87 192.02C319.364 192.03 319.856 191.949 320.32 191.78C320.713 191.636 321.073 191.415 321.38 191.13L322.02 192.19C321.654 192.529 321.226 192.793 320.76 192.97C320.148 193.207 319.496 193.322 318.84 193.31V193.31ZM318.58 185.31C318.312 185.306 318.046 185.363 317.803 185.478C317.561 185.592 317.348 185.76 317.18 185.97C316.791 186.45 316.555 187.035 316.5 187.65V187.65H320.5V187.52C320.523 186.945 320.354 186.378 320.02 185.91C319.841 185.708 319.618 185.551 319.368 185.45C319.118 185.35 318.848 185.308 318.58 185.33V185.31Z" fill="white"/>
<path d="M323.61 188.85C323.555 187.626 323.876 186.415 324.53 185.38C324.814 184.96 325.199 184.618 325.65 184.388C326.101 184.157 326.603 184.044 327.11 184.06C327.589 184.048 328.065 184.148 328.5 184.35C328.895 184.546 329.238 184.834 329.5 185.19V180.28H331.13V193.14H329.88L329.63 192.01C329.362 192.431 328.99 192.775 328.55 193.01C328.087 193.236 327.575 193.345 327.06 193.33C326.571 193.356 326.083 193.262 325.638 193.057C325.194 192.851 324.806 192.54 324.51 192.15C323.854 191.25 323.526 190.152 323.58 189.04L323.61 188.85ZM325.24 189.02C325.201 189.779 325.393 190.532 325.79 191.18C325.979 191.454 326.236 191.673 326.536 191.817C326.836 191.961 327.168 192.024 327.5 192C327.931 192.015 328.356 191.9 328.72 191.67C329.064 191.433 329.343 191.113 329.53 190.74V186.58C329.334 186.226 329.056 185.925 328.72 185.7C328.361 185.475 327.943 185.364 327.52 185.38C327.166 185.365 326.816 185.451 326.509 185.628C326.203 185.805 325.953 186.066 325.79 186.38C325.391 187.154 325.202 188.019 325.24 188.89V189.02Z" fill="white"/>
<path d="M339.53 181.94H337.91V180.28H339.53V181.94ZM339.53 193.14H337.91V184.22H339.53V193.14Z" fill="white"/>
<path d="M343.48 184.22L343.6 185.55C343.875 185.098 344.256 184.721 344.71 184.45C345.176 184.186 345.704 184.051 346.24 184.06C346.651 184.035 347.063 184.097 347.449 184.242C347.835 184.387 348.186 184.611 348.48 184.9C349.064 185.639 349.347 186.571 349.27 187.51V193.14H347.64V187.54C347.698 186.946 347.534 186.351 347.18 185.87C346.99 185.695 346.766 185.561 346.521 185.476C346.277 185.392 346.018 185.359 345.76 185.38C345.314 185.366 344.873 185.47 344.48 185.68C344.133 185.88 343.846 186.171 343.65 186.52V193.14H342V184.22H343.48Z" fill="white"/>
<path d="M357.84 193.14H356.21V181.14H357.84V193.14Z" fill="white"/>
<path d="M362.05 184.22L362.16 185.55C362.439 185.098 362.823 184.72 363.28 184.45C363.746 184.186 364.274 184.051 364.81 184.06C365.22 184.035 365.63 184.097 366.015 184.242C366.399 184.387 366.748 184.611 367.04 184.9C367.624 185.639 367.907 186.571 367.83 187.51V193.14H366.21V187.54C366.266 186.944 366.099 186.349 365.74 185.87C365.551 185.694 365.327 185.559 365.082 185.474C364.837 185.39 364.578 185.358 364.32 185.38C363.878 185.366 363.44 185.47 363.05 185.68C362.701 185.877 362.413 186.168 362.22 186.52V193.14H360.6V184.22H362.05Z" fill="white"/>
<path d="M369.82 188.85C369.765 187.626 370.086 186.415 370.74 185.38C371.024 184.96 371.409 184.618 371.86 184.388C372.311 184.157 372.814 184.044 373.32 184.06C373.8 184.048 374.275 184.148 374.71 184.35C375.104 184.549 375.446 184.836 375.71 185.19V180.28H377.33V193.14H376.09L375.84 192.01C375.572 192.431 375.2 192.775 374.76 193.01C374.296 193.235 373.785 193.344 373.27 193.33C372.78 193.352 372.292 193.256 371.847 193.051C371.401 192.846 371.012 192.537 370.71 192.15C370.062 191.246 369.738 190.15 369.79 189.04L369.82 188.85ZM371.44 189.02C371.404 189.78 371.599 190.533 372 191.18C372.189 191.454 372.446 191.673 372.746 191.817C373.046 191.961 373.378 192.024 373.71 192C374.141 192.015 374.566 191.9 374.93 191.67C375.274 191.433 375.553 191.113 375.74 190.74V186.58C375.544 186.226 375.266 185.925 374.93 185.7C374.571 185.475 374.153 185.364 373.73 185.38C373.376 185.365 373.026 185.451 372.719 185.628C372.413 185.805 372.163 186.066 372 186.38C371.598 187.153 371.405 188.019 371.44 188.89V189.02Z" fill="white"/>
<path d="M379.41 188.6C379.364 187.42 379.744 186.263 380.48 185.34C380.854 184.94 381.306 184.622 381.809 184.404C382.311 184.186 382.852 184.074 383.4 184.074C383.947 184.074 384.489 184.186 384.991 184.404C385.494 184.622 385.946 184.94 386.32 185.34C387.064 186.263 387.447 187.425 387.4 188.61V188.79C387.447 189.973 387.068 191.134 386.33 192.06C385.97 192.477 385.521 192.807 385.015 193.026C384.509 193.244 383.96 193.345 383.41 193.32C382.858 193.346 382.308 193.244 381.802 193.024C381.296 192.804 380.847 192.471 380.49 192.05C379.745 191.131 379.361 189.972 379.41 188.79V188.6ZM381.03 188.78C380.996 189.602 381.205 190.416 381.63 191.12C381.828 191.407 382.092 191.641 382.4 191.803C382.709 191.965 383.052 192.049 383.4 192.049C383.748 192.049 384.091 191.965 384.399 191.803C384.708 191.641 384.972 191.407 385.17 191.12C385.595 190.416 385.804 189.602 385.77 188.78V188.6C385.8 187.782 385.592 186.972 385.17 186.27C384.983 185.97 384.719 185.725 384.407 185.56C384.094 185.395 383.743 185.315 383.39 185.33C383.04 185.319 382.693 185.4 382.384 185.565C382.075 185.73 381.815 185.973 381.63 186.27C381.208 186.972 381 187.782 381.03 188.6V188.78Z" fill="white"/>
<path d="M390.84 184.22L390.95 185.55C391.228 185.098 391.613 184.72 392.07 184.45C392.536 184.186 393.064 184.051 393.6 184.06C394.01 184.035 394.42 184.097 394.804 184.242C395.189 184.387 395.538 184.611 395.83 184.9C396.414 185.639 396.696 186.571 396.62 187.51V193.14H395V187.54C395.056 186.944 394.888 186.349 394.53 185.87C394.341 185.694 394.116 185.559 393.872 185.474C393.627 185.39 393.368 185.358 393.11 185.38C392.667 185.366 392.229 185.47 391.84 185.68C391.491 185.877 391.203 186.168 391.01 186.52V193.14H389.38V184.22H390.84Z" fill="white"/>
<path d="M402.67 193.31C402.111 193.344 401.55 193.253 401.031 193.041C400.512 192.83 400.047 192.505 399.67 192.09C398.921 191.185 398.536 190.033 398.59 188.86V188.49C398.548 187.328 398.944 186.193 399.7 185.31C400.032 184.915 400.447 184.598 400.915 184.382C401.384 184.165 401.894 184.056 402.41 184.06C402.912 184.023 403.416 184.104 403.882 184.297C404.347 184.49 404.761 184.789 405.09 185.17C405.734 186.033 406.053 187.095 405.99 188.17V189H400.28C400.243 189.77 400.449 190.533 400.87 191.18C401.077 191.461 401.351 191.686 401.667 191.832C401.984 191.979 402.332 192.044 402.68 192.02C403.174 192.03 403.666 191.949 404.13 191.78C404.526 191.636 404.89 191.415 405.2 191.13L405.83 192.19C405.464 192.529 405.036 192.793 404.57 192.97C403.964 193.204 403.319 193.32 402.67 193.31ZM402.42 185.31C402.146 185.306 401.875 185.367 401.628 185.487C401.382 185.607 401.167 185.782 401 186C400.612 186.48 400.375 187.065 400.32 187.68V187.68H404.32V187.55C404.343 186.975 404.174 186.408 403.84 185.94C403.667 185.734 403.449 185.572 403.202 185.466C402.956 185.36 402.688 185.314 402.42 185.33V185.31Z" fill="white"/>
<path d="M413 190.74C413.005 190.574 412.971 190.409 412.902 190.258C412.832 190.107 412.729 189.974 412.6 189.87C412.131 189.565 411.603 189.364 411.05 189.28C410.189 189.125 409.367 188.802 408.63 188.33C408.364 188.15 408.147 187.907 407.999 187.623C407.85 187.338 407.775 187.021 407.78 186.7C407.781 186.338 407.866 185.981 408.027 185.656C408.188 185.332 408.422 185.049 408.71 184.83C409.397 184.296 410.251 184.023 411.12 184.06C412.011 184.017 412.885 184.309 413.57 184.88C413.86 185.107 414.093 185.399 414.249 185.733C414.405 186.066 414.481 186.432 414.47 186.8V186.8H412.9C412.889 186.608 412.839 186.42 412.753 186.248C412.667 186.076 412.547 185.924 412.4 185.8C412.049 185.485 411.591 185.317 411.12 185.33C410.656 185.294 410.196 185.433 409.83 185.72C409.698 185.836 409.592 185.979 409.519 186.139C409.447 186.3 409.409 186.474 409.41 186.65C409.405 186.804 409.436 186.958 409.5 187.098C409.564 187.239 409.66 187.363 409.78 187.46C410.243 187.736 410.756 187.917 411.29 187.99C412.181 188.146 413.029 188.486 413.78 188.99C414.046 189.177 414.262 189.425 414.41 189.715C414.559 190.004 414.634 190.325 414.63 190.65C414.632 191.028 414.542 191.402 414.368 191.738C414.194 192.074 413.94 192.363 413.63 192.58C412.853 193.087 411.941 193.348 411.013 193.328C410.085 193.309 409.185 193.009 408.43 192.47C408.13 192.232 407.89 191.927 407.728 191.58C407.567 191.233 407.489 190.853 407.5 190.47V190.42H409.05C409.047 190.668 409.105 190.914 409.218 191.135C409.331 191.357 409.497 191.547 409.7 191.69C410.12 191.959 410.611 192.099 411.11 192.09C411.588 192.115 412.061 191.985 412.46 191.72C412.627 191.617 412.765 191.473 412.86 191.301C412.955 191.13 413.003 190.936 413 190.74V190.74Z" fill="white"/>
<path d="M418.4 181.94H416.78V180.28H418.4V181.94ZM418.4 193.14H416.78V184.22H418.4V193.14Z" fill="white"/>
<path d="M426.38 193.14C426.33 192.87 426.29 192.64 426.26 192.43C426.23 192.22 426.21 192.02 426.2 191.81C425.889 192.248 425.486 192.613 425.02 192.88C424.546 193.165 424.003 193.314 423.45 193.31C423.067 193.339 422.682 193.291 422.318 193.169C421.954 193.047 421.618 192.854 421.33 192.6C421.073 192.338 420.876 192.023 420.75 191.679C420.624 191.334 420.573 190.966 420.6 190.6C420.582 190.209 420.664 189.82 420.839 189.47C421.014 189.12 421.276 188.82 421.6 188.6C422.441 188.079 423.422 187.828 424.41 187.88H426.17V187C426.181 186.771 426.144 186.543 426.061 186.329C425.978 186.116 425.852 185.922 425.69 185.76C425.317 185.436 424.833 185.271 424.34 185.3C423.88 185.282 423.428 185.424 423.06 185.7C422.905 185.815 422.78 185.967 422.696 186.141C422.612 186.315 422.573 186.507 422.58 186.7H421.04C421.035 186.35 421.116 186.005 421.274 185.693C421.433 185.381 421.665 185.113 421.95 184.91C422.662 184.357 423.548 184.073 424.45 184.11C425.33 184.063 426.196 184.337 426.89 184.88C427.205 185.154 427.453 185.496 427.615 185.881C427.776 186.266 427.846 186.684 427.82 187.1V191.39C427.816 191.701 427.833 192.012 427.87 192.32C427.9 192.616 427.96 192.907 428.05 193.19L426.38 193.14ZM423.69 192C424.252 192.008 424.805 191.852 425.28 191.55C425.687 191.326 426.01 190.975 426.2 190.55V189H424.38C423.813 188.973 423.256 189.15 422.81 189.5C422.63 189.636 422.483 189.811 422.38 190.012C422.278 190.213 422.223 190.435 422.22 190.66C422.211 190.834 422.239 191.008 422.303 191.17C422.367 191.332 422.465 191.479 422.59 191.6C422.891 191.871 423.285 192.015 423.69 192Z" fill="white"/>
<path d="M437.36 190.51L437.5 191.14H437.55L437.7 190.51L439.76 184.22H441.41L438.13 193.14H436.9L433.58 184.22H435.25L437.36 190.51Z" fill="white"/>
<path d="M444.63 181.94H443V180.28H444.63V181.94ZM444.63 193.14H443V184.22H444.63V193.14Z" fill="white"/>
<path d="M452.61 193.14C452.55 192.87 452.51 192.64 452.48 192.43C452.448 192.225 452.432 192.017 452.43 191.81C452.115 192.248 451.709 192.613 451.24 192.88C450.766 193.165 450.223 193.314 449.67 193.31C449.287 193.337 448.903 193.288 448.539 193.167C448.175 193.045 447.839 192.852 447.55 192.6C447.294 192.337 447.096 192.023 446.97 191.678C446.844 191.333 446.793 190.966 446.82 190.6C446.803 190.209 446.886 189.82 447.061 189.47C447.236 189.12 447.497 188.821 447.82 188.6C448.658 188.079 449.635 187.828 450.62 187.88H452.39V187C452.401 186.771 452.364 186.543 452.281 186.329C452.199 186.115 452.072 185.922 451.91 185.76C451.537 185.437 451.053 185.272 450.56 185.3C450.1 185.282 449.648 185.423 449.28 185.7C449.124 185.814 448.997 185.965 448.912 186.14C448.827 186.314 448.785 186.506 448.79 186.7H447.25C447.243 186.35 447.322 186.003 447.481 185.691C447.64 185.379 447.873 185.11 448.16 184.91C448.872 184.355 449.758 184.072 450.66 184.11C451.539 184.065 452.406 184.338 453.1 184.88C453.413 185.155 453.658 185.498 453.817 185.883C453.977 186.268 454.046 186.684 454.02 187.1V191.39C454.02 191.71 454.02 192.02 454.07 192.32C454.1 192.615 454.16 192.907 454.25 193.19L452.61 193.14ZM449.91 191.95C450.472 191.958 451.025 191.801 451.5 191.5C451.91 191.276 452.236 190.925 452.43 190.5V189H450.61C450.041 188.973 449.48 189.15 449.03 189.5C448.851 189.636 448.706 189.811 448.605 190.012C448.505 190.213 448.452 190.435 448.45 190.66C448.441 190.834 448.469 191.008 448.533 191.17C448.597 191.332 448.695 191.479 448.82 191.6C449.117 191.871 449.508 192.015 449.91 192V191.95Z" fill="white"/>
<path d="M462.86 182.07V184.22H464.55V185.43H462.86V190.84C462.829 191.156 462.922 191.471 463.12 191.72C463.308 191.891 463.555 191.984 463.81 191.98C463.916 191.993 464.024 191.993 464.13 191.98C464.226 191.963 464.32 191.936 464.41 191.9L464.64 193.02C464.48 193.138 464.295 193.22 464.1 193.26C463.871 193.319 463.636 193.349 463.4 193.35C463.111 193.366 462.823 193.322 462.553 193.22C462.282 193.118 462.036 192.962 461.83 192.76C461.395 192.234 461.183 191.56 461.24 190.88V185.47H459.82V184.26H461.24V182.11L462.86 182.07Z" fill="white"/>
<path d="M467.92 185.42C468.211 185 468.598 184.657 469.05 184.42C469.509 184.178 470.021 184.054 470.54 184.06C470.949 184.035 471.359 184.098 471.742 184.245C472.125 184.392 472.472 184.618 472.76 184.91C473.347 185.659 473.632 186.601 473.56 187.55V193.14H471.93V187.54C471.975 186.954 471.808 186.372 471.46 185.9C471.274 185.716 471.052 185.575 470.807 185.485C470.562 185.396 470.3 185.36 470.04 185.38C469.603 185.368 469.171 185.464 468.78 185.66C468.431 185.85 468.135 186.125 467.92 186.46V193.14H466.29V180.28H467.92V185.42Z" fill="white"/>
<path d="M479.58 193.31C479.021 193.344 478.461 193.253 477.941 193.041C477.422 192.83 476.957 192.505 476.58 192.09C475.831 191.185 475.446 190.033 475.5 188.86V188.49C475.458 187.328 475.854 186.193 476.61 185.31C476.942 184.915 477.357 184.598 477.825 184.382C478.294 184.165 478.804 184.056 479.32 184.06C479.823 184.023 480.326 184.104 480.792 184.297C481.257 184.49 481.671 184.789 482 185.17C482.644 186.033 482.963 187.095 482.9 188.17V189H477.2C477.163 189.77 477.369 190.533 477.79 191.18C477.997 191.461 478.271 191.686 478.587 191.832C478.904 191.979 479.252 192.044 479.6 192.02C480.094 192.03 480.586 191.949 481.05 191.78C481.446 191.636 481.81 191.415 482.12 191.13L482.75 192.19C482.384 192.529 481.957 192.793 481.49 192.97C480.881 193.205 480.233 193.321 479.58 193.31V193.31ZM479.33 185.31C479.06 185.304 478.793 185.361 478.548 185.475C478.304 185.59 478.089 185.759 477.92 185.97C477.532 186.45 477.295 187.035 477.24 187.65H481.24V187.52C481.264 186.945 481.095 186.378 480.76 185.91C480.583 185.709 480.362 185.551 480.114 185.451C479.866 185.35 479.597 185.309 479.33 185.33V185.31Z" fill="white"/>
<path d="M498 181.14V189.14C498.031 189.719 497.931 190.297 497.708 190.832C497.484 191.367 497.143 191.845 496.71 192.23C495.782 192.996 494.603 193.392 493.4 193.34C492.232 193.388 491.088 192.991 490.2 192.23C489.784 191.834 489.457 191.353 489.243 190.82C489.029 190.287 488.933 189.714 488.96 189.14V181.14H490.58V189.14C490.557 189.535 490.615 189.931 490.751 190.302C490.887 190.674 491.098 191.013 491.37 191.3C491.634 191.558 491.947 191.759 492.291 191.893C492.634 192.027 493.001 192.091 493.37 192.08C494.162 192.114 494.935 191.834 495.52 191.3C495.803 191.019 496.023 190.681 496.166 190.309C496.309 189.937 496.372 189.538 496.35 189.14V181.14H498Z" fill="white"/>
<path d="M509.65 193.14H508L502.25 184H502.2V193.15H500.57V181.15H502.2L508 190.3V181.16H509.62L509.65 193.14Z" fill="white"/>
<path d="M170.18 166.93V142.05C170.18 142.05 170.08 141.97 170.07 141.92C169.683 139.321 168.29 136.979 166.19 135.4C165.55 134.9 165.84 134.18 165.91 133.6C165.98 133.02 166.57 133.38 166.91 133.36C168.16 133.3 168.72 132.86 168.75 131.69C168.75 129.9 168.75 128.1 168.75 126.31C168.774 126.091 168.748 125.87 168.675 125.663C168.602 125.456 168.483 125.267 168.328 125.112C168.172 124.957 167.984 124.838 167.777 124.765C167.57 124.692 167.348 124.666 167.13 124.69C162.463 124.69 157.76 124.69 153.02 124.69C152.808 124.663 152.594 124.683 152.391 124.749C152.188 124.815 152.003 124.925 151.848 125.071C151.693 125.218 151.572 125.397 151.495 125.595C151.417 125.794 151.385 126.007 151.4 126.22C151.4 128.1 151.4 129.98 151.4 131.85C151.4 132.85 152 133.29 152.97 133.34C153.28 133.34 153.59 133.34 153.9 133.34C154.21 133.34 154.27 133.34 154.26 133.58C154.21 134.29 154.5 134.99 153.72 135.58C152.555 136.46 151.611 137.6 150.963 138.909C150.316 140.218 149.983 141.66 149.99 143.12C149.99 150.66 149.99 158.19 149.99 165.72C149.948 166.125 150.005 166.534 150.157 166.912C150.308 167.291 150.55 167.626 150.86 167.89H169.19C169.59 167.651 169.929 167.322 170.18 166.93ZM155 127.58C158.387 127.58 161.773 127.58 165.16 127.58C165.74 127.58 165.87 127.77 165.83 128.29C165.78 128.98 166.05 129.89 165.7 130.29C165.35 130.69 164.39 130.41 163.7 130.43C162.5 130.43 161.29 130.43 160.09 130.43C158.44 130.43 156.78 130.43 155.09 130.43C154.39 130.43 154.23 130.21 154.29 129.59C154.345 129.115 154.345 128.635 154.29 128.16C154.28 127.64 154.52 127.57 155 127.58ZM156.44 147.76C155.44 147.76 154.44 147.76 153.5 147.76C152.95 147.76 152.81 147.59 152.87 147.09C152.94 146.38 152.56 145.42 153.02 145.01C153.48 144.6 154.35 144.89 155.02 144.89C156.92 144.89 158.83 144.89 160.73 144.89C161.31 144.89 161.49 145.02 161.47 145.62C161.47 147.77 161.47 149.93 161.47 152.09C161.47 154.25 161.47 156.4 161.47 158.55C161.47 159.06 161.4 159.29 160.8 159.28C158.37 159.28 155.93 159.28 153.5 159.28C153 159.28 152.83 159.18 152.83 158.64C152.83 156.45 152.83 156.45 154.97 156.45C155.97 156.45 157.04 156.45 158.07 156.45C158.51 156.45 158.64 156.31 158.66 155.87C158.76 153.49 158.78 153.49 156.45 153.49C155.45 153.49 154.45 153.49 153.45 153.49C152.96 153.49 152.81 153.34 152.86 152.87C152.92 152.15 152.56 151.22 152.99 150.76C153.42 150.3 154.36 150.64 155.08 150.62C156.08 150.62 157.08 150.62 158.08 150.62C158.52 150.62 158.63 150.49 158.65 150.05C158.77 147.76 158.78 147.76 156.44 147.76ZM166.56 165.07C162.24 165.07 157.927 165.07 153.62 165.07C153.05 165.07 152.79 164.96 152.86 164.34C152.93 163.72 152.57 162.74 153.01 162.34C153.45 161.94 154.29 162.21 154.95 162.21C157.44 162.21 159.95 162.21 162.43 162.21C163.92 162.21 164.43 161.68 164.43 160.21V144.05C164.43 142.44 163.95 141.97 162.32 141.97C159.487 141.97 156.657 141.97 153.83 141.97C153.25 141.97 153.04 141.9 153.27 141.23C153.67 139.821 154.547 138.595 155.75 137.76C156.275 137.473 156.699 137.031 156.964 136.494C157.229 135.957 157.322 135.352 157.23 134.76C157.13 133.34 157.23 133.34 158.67 133.34C159.9 133.34 161.13 133.34 162.36 133.34C162.79 133.34 163.01 133.42 162.94 133.89C162.771 134.733 162.873 135.609 163.233 136.39C163.592 137.172 164.19 137.819 164.94 138.24C166.74 139.52 167.29 141.63 167.29 143.83V153.91C167.29 157.38 167.29 160.91 167.29 164.33C167.31 164.93 167.14 165.07 166.56 165.07Z" fill="white"/>
<path d="M170.18 166.93C170.144 167.183 170.027 167.416 169.847 167.597C169.666 167.777 169.433 167.894 169.18 167.93C170 168.13 170.37 167.8 170.18 166.93Z" fill="white"/>
<path d="M153.41 115.73C154.28 116.73 155.22 117.57 156.22 118.57C156.74 118.01 157.22 117.44 157.79 116.93C158.19 116.57 158.19 116.36 157.79 115.93C155.79 113.93 153.79 111.93 151.79 110.01C151.39 109.62 151.35 109.42 151.79 109.01C155.89 104.95 159.96 100.86 164.05 96.7801C165.11 95.7101 165.11 95.7201 166.19 96.7801C166.68 97.2801 167.19 98.1201 167.7 98.1401C168.21 98.1601 168.7 97.2401 169.2 96.8101C169.7 96.3801 169.66 96.1101 169.2 95.6501C165.1 91.5901 161.03 87.5001 156.94 83.4201C156.41 82.8801 155.81 81.9201 155.32 81.9701C154.83 82.0201 154.19 82.9701 153.63 83.4701L153.57 83.5301C153.27 83.7601 153.32 83.9501 153.57 84.2001C154.18 84.7701 154.74 85.4001 155.37 85.9601C155.76 86.3101 155.79 86.5101 155.37 86.9601C151.123 91.2135 146.86 95.4868 142.58 99.7801C142.16 100.2 141.95 100.19 141.58 99.7801C139.63 97.7801 137.63 95.7801 135.66 93.7801C135.31 93.4201 135.1 93.3401 134.75 93.7801C134.352 94.2199 133.921 94.6278 133.46 95.0001C133.12 95.3001 133.15 95.4901 133.46 95.7901C134.46 96.7901 135.41 97.7201 136.41 98.7301C136.16 98.9601 135.93 99.1601 135.71 99.3801L97.7798 137.34C97.5798 137.54 97.3798 137.73 97.1898 137.94C97.0128 138.081 96.8698 138.259 96.7715 138.463C96.6733 138.666 96.6222 138.889 96.6222 139.115C96.6222 139.341 96.6733 139.564 96.7715 139.768C96.8698 139.971 97.0128 140.15 97.1898 140.29C97.7712 140.935 98.3889 141.546 99.0398 142.12C99.6098 142.59 99.4998 142.88 99.0398 143.33C97.9298 144.33 96.8798 145.45 95.8198 146.53C95.6197 146.668 95.4562 146.853 95.3432 147.068C95.2302 147.283 95.1712 147.522 95.1712 147.765C95.1712 148.008 95.2302 148.248 95.3432 148.463C95.4562 148.678 95.6197 148.862 95.8198 149C96.4298 149.62 97.0198 150.26 97.6698 150.82C98.1598 151.24 98.1098 151.47 97.6698 151.9C93.6098 155.9 89.5631 159.937 85.5298 164.01C85.0598 164.48 84.2498 165.01 84.2298 165.46C84.2098 165.91 85.1198 166.46 85.5398 166.97C85.9598 167.48 86.2798 167.42 86.7498 166.97C91.0298 162.65 95.3498 158.36 99.6198 154.03C100.16 153.48 100.44 153.52 100.89 154.03C101.34 154.54 101.71 154.87 102.12 155.28C103.63 156.8 104.07 156.8 105.55 155.28L108.87 151.95C108.923 151.982 108.973 152.019 109.02 152.06L111.02 154.01C112.25 155.24 112.83 155.25 114.02 154.01L123.35 144.68C133.023 135.007 142.69 125.34 152.35 115.68C152.74 115.32 153 115.24 153.41 115.73ZM144.57 101.86C148.856 97.6001 153.136 93.3135 157.41 89.0001C157.83 88.5801 158.04 88.6001 158.41 89.0001C159.77 90.4201 161.18 91.7901 162.56 93.1701C162.72 93.3301 162.85 93.5001 163.01 93.6701L162.64 94.0601C158.32 98.3801 154.003 102.713 149.69 107.06C149.32 107.43 149.14 107.41 148.78 107.06C147.4 105.64 145.993 104.233 144.56 102.84C144.22 102.46 144.16 102.27 144.57 101.86ZM106.57 150.24C105.8 151.01 105.02 151.77 104.26 152.56C103.98 152.86 103.81 152.84 103.53 152.56C102.08 151.08 100.62 149.62 99.1398 148.16C98.8298 147.87 98.7798 147.69 99.1398 147.37C99.9198 146.65 100.66 145.88 101.4 145.12C101.63 144.88 101.78 144.79 102.06 145.07C103.58 146.61 105.11 148.13 106.63 149.66C106.717 149.744 106.797 149.834 106.87 149.93C106.7 150 106.62 150.14 106.52 150.24H106.57ZM150.31 113.7L125.77 138.25C121.57 142.45 117.373 146.653 113.18 150.86C112.71 151.33 112.47 151.42 111.95 150.86C108.23 147.093 104.486 143.35 100.72 139.63C100.29 139.19 100.23 138.97 100.72 138.53C101.72 137.64 102.61 136.7 103.52 135.74C103.83 135.42 104.01 135.43 104.31 135.74C105.56 137.02 106.86 138.26 108.09 139.57C108.56 140.07 108.85 140.04 109.24 139.57C109.498 139.237 109.797 138.938 110.13 138.68C110.66 138.27 110.7 137.98 110.13 137.49C108.84 136.29 107.64 134.99 106.36 133.77C105.95 133.39 106.04 133.2 106.36 132.87C107.306 131.957 108.236 131.027 109.15 130.08C109.49 129.71 109.69 129.65 110.06 130.08C110.86 130.94 111.73 131.74 112.54 132.59C112.84 132.9 113.02 132.9 113.31 132.59C113.83 132.01 114.74 131.5 114.82 130.88C114.9 130.26 113.89 129.81 113.37 129.27C112.85 128.73 112.59 128.46 112.17 128.09C111.75 127.72 111.69 127.52 112.17 127.09C113.17 126.2 114.06 125.26 114.97 124.3C115.31 123.94 115.5 123.89 115.87 124.3C117.13 125.61 118.44 126.88 119.71 128.18C120.04 128.52 120.24 128.65 120.6 128.18C120.96 127.71 122 127.11 122.04 126.53C122.08 125.95 121.12 125.44 120.6 124.9C119.7 123.98 118.79 123.07 117.86 122.18C117.54 121.87 117.56 121.68 117.86 121.38C118.86 120.38 119.86 119.47 120.77 118.47C121.12 118.1 121.31 118.17 121.62 118.47C122.42 119.33 123.28 120.13 124.09 120.99C124.39 121.31 124.58 121.32 124.88 120.99C125.283 120.527 125.717 120.093 126.18 119.69C126.53 119.38 126.49 119.2 126.18 118.9C125.31 118.07 124.48 117.19 123.61 116.36C123.32 116.09 123.29 115.94 123.61 115.65C124.61 114.65 125.61 113.73 126.52 112.73C126.87 112.36 127.07 112.35 127.43 112.73C128.7 114.04 130.01 115.3 131.27 116.61C131.65 117 131.86 116.99 132.19 116.61C132.525 116.195 132.904 115.816 133.32 115.48C133.81 115.08 133.69 114.83 133.32 114.48C132.02 113.24 130.78 111.95 129.49 110.7C129.15 110.38 129.12 110.18 129.49 109.84C130.483 108.9 131.453 107.93 132.4 106.93C132.72 106.6 132.9 106.65 133.19 106.93C134.01 107.79 134.87 108.59 135.67 109.45C136.01 109.82 136.21 109.78 136.52 109.45C136.83 109.12 137.43 108.53 137.88 108.07L138.13 107.81C138 107.67 137.88 107.52 137.74 107.38C136.91 106.55 136.09 105.71 135.24 104.9C134.92 104.6 134.9 104.41 135.24 104.1C136.246 103.133 137.246 102.133 138.24 101.1C138.52 100.8 138.67 100.82 138.95 101.1C142.81 104.98 146.66 108.85 150.55 112.69C150.92 113.23 150.55 113.41 150.26 113.7H150.31Z" fill="white"/>
</svg>
