<svg id="Layer_1" data-name="Layer 1" xmlns="http://www.w3.org/2000/svg" xmlns:xlink="http://www.w3.org/1999/xlink" viewBox="0 0 654 250"><defs><style>.cls-1,.cls-5,.cls-6{fill:none;}.cls-2{clip-path:url(#clip-path);}.cls-3{opacity:0.3;}.cls-4{opacity:0.4;}.cls-5{stroke:#2680d2;stroke-width:1.62px;}.cls-5,.cls-6{stroke-miterlimit:10;}.cls-6{stroke:#8e1838;}.cls-7{fill:#8e1838;}.cls-8{opacity:0.15;}.cls-9{fill:#fff;}</style><clipPath id="clip-path"><rect class="cls-1" x="-2005.38" y="-141.11" width="1920" height="5958.68"/></clipPath></defs><g class="cls-2"><g class="cls-3"><g class="cls-4"><path class="cls-5" d="M-87,437.92,1.26,349.65h0L339.84,11.07,1.26-327.51h0L-87-415.79-513.88,11.07ZM-399.9-47.84-341,11.07-399.9,70l-58.9-58.9ZM225.86,70,167,11.07l58.91-58.91,58.91,58.91ZM-26.28,322.11h0L-87,382.85l-138-138,110.66-110.66-114-114L-311.16,103l57,57,27.53-27.54L-256.1,103l27.76-27.76,58.9,58.91-83.12,83.12-119.8-119.8,86.44-86.44-86.44-86.44,119.8-119.81,83.12,83.12-58.9,58.91L-256.1-80.91l29.45-29.45-27.53-27.53-57,57,82.82,82.83,114-114L-225-222.72-147.76-300h0L-87-360.72-26.28-300h0L51-222.72-59.67-112.06l114,114,82.82-82.83-57-57L52.61-110.36,82.06-80.91,54.31-53.15-4.6-112.06l83.12-83.12L198.33-75.38,111.88,11.07l86.45,86.44L78.52,217.31-4.6,134.19,54.31,75.28,82.06,103,52.61,132.49,80.14,160l57-57L54.31,20.21l-114,114L51,244.85Z"/><rect class="cls-5" x="-154.07" y="176.29" width="134.09" height="134.09" transform="translate(23.51 476.93) rotate(135)"/></g></g></g><polygon class="cls-6" points="12.27 125 126.21 238.94 528.37 238.94 642.31 125 528.37 11.06 126.21 11.06 12.27 125"/><path class="cls-7" d="M336.92,81.19h-4.09V78.77H344v2.42h-4.09V91.56h-3Z"/><path class="cls-7" d="M353.71,91.56,351.24,88h-2.72v3.56h-3V78.77h5.53a7,7,0,0,1,3,.57A4.34,4.34,0,0,1,356,81a4.4,4.4,0,0,1,.68,2.46,4.18,4.18,0,0,1-2.63,4l2.86,4.11Zm-.75-9.8a3.15,3.15,0,0,0-2-.57h-2.41v4.45h2.41a3.09,3.09,0,0,0,2-.58,2,2,0,0,0,.69-1.65A2,2,0,0,0,353,81.76Z"/><path class="cls-7" d="M367.4,88.82h-5.93l-1.14,2.74h-3L363,78.77h2.92l5.72,12.79h-3.11Zm-.93-2.25-2-4.89-2,4.89Z"/><path class="cls-7" d="M373,78.77h5.81a8.14,8.14,0,0,1,3.68.8A6,6,0,0,1,385,81.81a6.85,6.85,0,0,1,0,6.72,6,6,0,0,1-2.49,2.23,8.14,8.14,0,0,1-3.68.8H373Zm5.66,10.36a4.31,4.31,0,0,0,3.06-1.07,4.22,4.22,0,0,0,0-5.79,4.31,4.31,0,0,0-3.06-1.07h-2.7v7.93Z"/><path class="cls-7" d="M398,89.18v2.38h-9.89V78.77h9.66v2.38H391v2.78h5.93v2.3H391v3Z"/><path class="cls-7" d="M406.89,90.26a5.86,5.86,0,0,1-1.52-4.33V78.77h3v7q0,3.44,2.85,3.44a2.7,2.7,0,0,0,2.12-.83,3.93,3.93,0,0,0,.73-2.61v-7H417v7.16a6,6,0,0,1-10.06,4.33Z"/><path class="cls-7" d="M431.6,78.77V91.56h-2.44l-6.37-7.76v7.76h-2.92V78.77h2.45l6.35,7.77V78.77Z"/><path class="cls-7" d="M434.63,78.77h3V91.56h-3Z"/><path class="cls-7" d="M443.22,90.92a6.28,6.28,0,0,1-2.5-2.37,6.75,6.75,0,0,1,0-6.77,6.34,6.34,0,0,1,2.5-2.37,7.9,7.9,0,0,1,7.17,0,6.48,6.48,0,0,1,2.5,2.37,6.53,6.53,0,0,1-2.5,9.14,7.9,7.9,0,0,1-7.17,0Zm5.63-2.18a3.78,3.78,0,0,0,1.44-1.45,4.58,4.58,0,0,0,0-4.24,3.72,3.72,0,0,0-1.44-1.45,4.28,4.28,0,0,0-4.09,0,3.69,3.69,0,0,0-1.43,1.45,4.58,4.58,0,0,0,0,4.24,3.76,3.76,0,0,0,1.43,1.45,4.28,4.28,0,0,0,4.09,0Z"/><path class="cls-7" d="M467.75,78.77V91.56h-2.43L459,83.8v7.76H456V78.77h2.44l6.36,7.77V78.77Z"/><path class="cls-7" d="M472.05,91.37a7,7,0,0,1-2.27-1.07l1-2.23a7,7,0,0,0,1.95,1,7.42,7.42,0,0,0,2.27.36,3.65,3.65,0,0,0,1.86-.37,1.13,1.13,0,0,0,.6-1,.94.94,0,0,0-.36-.76,2.46,2.46,0,0,0-.91-.49c-.37-.12-.87-.25-1.51-.4a21,21,0,0,1-2.39-.69,4,4,0,0,1-1.6-1.12,3,3,0,0,1-.66-2,3.58,3.58,0,0,1,.6-2,4.13,4.13,0,0,1,1.82-1.44,7.48,7.48,0,0,1,3-.53,9.6,9.6,0,0,1,2.39.3,6.83,6.83,0,0,1,2,.84L479,81.93a7.21,7.21,0,0,0-3.54-1,3.33,3.33,0,0,0-1.84.4,1.24,1.24,0,0,0-.59,1.06,1,1,0,0,0,.68,1,11.46,11.46,0,0,0,2.09.63,21.29,21.29,0,0,1,2.4.69,3.9,3.9,0,0,1,1.59,1.1,2.91,2.91,0,0,1,.67,2,3.46,3.46,0,0,1-.61,2A4.05,4.05,0,0,1,478,91.25a7.51,7.51,0,0,1-3,.53A10.71,10.71,0,0,1,472.05,91.37Z"/><path class="cls-7" d="M265.37,110.74h-5.93l-1.14,2.73h-3l5.7-12.78h2.92l5.72,12.78h-3.1Zm-.93-2.25-2-4.9-2,4.9Z"/><path class="cls-7" d="M273.34,112.85a6.4,6.4,0,0,1-2.48-2.36,6.89,6.89,0,0,1,0-6.81,6.33,6.33,0,0,1,2.48-2.36,7.37,7.37,0,0,1,3.56-.85,7.47,7.47,0,0,1,3,.59,5.91,5.91,0,0,1,2.26,1.68l-1.9,1.75A4.1,4.1,0,0,0,277,103a4.35,4.35,0,0,0-2.12.52,3.7,3.7,0,0,0-1.45,1.46,4.18,4.18,0,0,0-.52,2.11,4.24,4.24,0,0,0,.52,2.12,3.68,3.68,0,0,0,1.45,1.45,4.24,4.24,0,0,0,2.12.52,4.08,4.08,0,0,0,3.22-1.51l1.9,1.75a5.89,5.89,0,0,1-2.27,1.7,8,8,0,0,1-6.55-.26Z"/><path class="cls-7" d="M292.29,113.47l-2.46-3.56H287.1v3.56h-3V100.69h5.53a7.09,7.09,0,0,1,2.95.57,4.39,4.39,0,0,1,0,8.11l2.87,4.1Zm-.75-9.79a3.07,3.07,0,0,0-2-.58H287.1v4.46h2.41a3.07,3.07,0,0,0,2-.59,2.28,2.28,0,0,0,0-3.29Z"/><path class="cls-7" d="M300.17,112.84a6.65,6.65,0,0,1-2.5-9.14,6.28,6.28,0,0,1,2.5-2.37,7.9,7.9,0,0,1,7.17,0,6.62,6.62,0,0,1,2.5,9.14,6.55,6.55,0,0,1-2.5,2.37,8,8,0,0,1-7.17,0Zm5.64-2.19a3.76,3.76,0,0,0,1.43-1.45,4.24,4.24,0,0,0,.52-2.12,4.18,4.18,0,0,0-.52-2.11,3.79,3.79,0,0,0-1.43-1.46,4.3,4.3,0,0,0-4.1,0,3.72,3.72,0,0,0-1.43,1.46,4.18,4.18,0,0,0-.52,2.11,4.24,4.24,0,0,0,.52,2.12,3.69,3.69,0,0,0,1.43,1.45,4.3,4.3,0,0,0,4.1,0Z"/><path class="cls-7" d="M314.25,113.28a6.76,6.76,0,0,1-2.27-1.07l1-2.22a7,7,0,0,0,2,1,7.36,7.36,0,0,0,2.26.36,3.59,3.59,0,0,0,1.86-.38,1.11,1.11,0,0,0,.61-1,1,1,0,0,0-.36-.76,2.7,2.7,0,0,0-.91-.48c-.38-.12-.88-.26-1.51-.4a20.82,20.82,0,0,1-2.39-.7,3.86,3.86,0,0,1-1.6-1.11,3,3,0,0,1-.67-2,3.48,3.48,0,0,1,.61-2,4,4,0,0,1,1.81-1.44,7.48,7.48,0,0,1,3-.53,10,10,0,0,1,2.39.29,7.46,7.46,0,0,1,2.05.84l-.91,2.25a7.17,7.17,0,0,0-3.55-1,3.27,3.27,0,0,0-1.83.4,1.23,1.23,0,0,0-.6,1.06,1,1,0,0,0,.69,1,9.67,9.67,0,0,0,2.09.63,20.82,20.82,0,0,1,2.39.7,4,4,0,0,1,1.6,1.09,3,3,0,0,1,.67,2,3.48,3.48,0,0,1-.62,2,4.07,4.07,0,0,1-1.83,1.43,7.39,7.39,0,0,1-3,.53A10.22,10.22,0,0,1,314.25,113.28Z"/><path class="cls-7" d="M325.9,113.28a6.76,6.76,0,0,1-2.27-1.07l1-2.22a7,7,0,0,0,2,1,7.41,7.41,0,0,0,2.26.36,3.66,3.66,0,0,0,1.87-.38,1.12,1.12,0,0,0,.6-1,1,1,0,0,0-.36-.76,2.7,2.7,0,0,0-.91-.48c-.37-.12-.88-.26-1.51-.4a20.82,20.82,0,0,1-2.39-.7,3.93,3.93,0,0,1-1.6-1.11,3,3,0,0,1-.67-2,3.55,3.55,0,0,1,.61-2A4,4,0,0,1,326.3,101a7.51,7.51,0,0,1,3-.53,10.11,10.11,0,0,1,2.4.29,7.4,7.4,0,0,1,2,.84l-.91,2.25a7.17,7.17,0,0,0-3.55-1,3.27,3.27,0,0,0-1.83.4,1.23,1.23,0,0,0-.6,1.06,1,1,0,0,0,.69,1,9.86,9.86,0,0,0,2.09.63,20.82,20.82,0,0,1,2.39.7,3.91,3.91,0,0,1,1.6,1.09,3,3,0,0,1,.67,2,3.54,3.54,0,0,1-.61,2,4.1,4.1,0,0,1-1.84,1.43,7.36,7.36,0,0,1-3,.53A10.22,10.22,0,0,1,325.9,113.28Z"/><path class="cls-7" d="M344.1,103.1H340v-2.41h11.14v2.41h-4.09v10.37h-3Z"/><path class="cls-7" d="M364.47,100.69v12.78h-3v-5.24H355.7v5.24h-3V100.69h3v5h5.81v-5Z"/><path class="cls-7" d="M377.39,111.1v2.37H367.5V100.69h9.66v2.37h-6.72v2.78h5.93v2.3h-5.93v3Z"/><path class="cls-7" d="M393.4,101.26a4.6,4.6,0,0,1,1.93,6.53,4.31,4.31,0,0,1-1.93,1.6,7.06,7.06,0,0,1-2.95.56h-2.57v3.52h-3V100.69h5.53A7.06,7.06,0,0,1,393.4,101.26ZM392.31,107a2.28,2.28,0,0,0,0-3.29,3.06,3.06,0,0,0-2-.58h-2.41v4.44h2.41A3.12,3.12,0,0,0,392.31,107Z"/><path class="cls-7" d="M405.88,110.74H400l-1.13,2.73h-3l5.7-12.78h2.93l5.71,12.78H407Zm-.93-2.25-2-4.9-2,4.9Z"/><path class="cls-7" d="M411.45,100.69h3v10.37h6.41v2.41h-9.37Z"/><path class="cls-7" d="M434.12,113.47l0-7.67-3.76,6.32H429L425.26,106v7.5h-2.78V100.69h2.45l4.79,7.94,4.71-7.94h2.43l0,12.78Z"/><path class="cls-7" d="M447.7,112.84a6.64,6.64,0,0,1-2.51-9.14,6.37,6.37,0,0,1,2.51-2.37,7.88,7.88,0,0,1,7.16,0,6.43,6.43,0,0,1,2.51,2.37,6.75,6.75,0,0,1,0,6.77,6.58,6.58,0,0,1-2.51,2.37,8,8,0,0,1-7.16,0Zm5.63-2.19a3.63,3.63,0,0,0,1.43-1.45,4.24,4.24,0,0,0,.52-2.12,4.18,4.18,0,0,0-.52-2.11,3.65,3.65,0,0,0-1.43-1.46,4.28,4.28,0,0,0-4.09,0A3.74,3.74,0,0,0,447.8,105a4.28,4.28,0,0,0-.52,2.11,4.35,4.35,0,0,0,.52,2.12,3.72,3.72,0,0,0,1.44,1.45,4.28,4.28,0,0,0,4.09,0Z"/><path class="cls-7" d="M460.51,100.69h2.95v12.78h-2.95Z"/><path class="cls-7" d="M466.5,100.69h2.95v10.37h6.41v2.41H466.5Z"/><path class="cls-7" d="M484,113.28a6.76,6.76,0,0,1-2.27-1.07l1-2.22a7,7,0,0,0,2,1,7.41,7.41,0,0,0,2.26.36,3.66,3.66,0,0,0,1.87-.38,1.12,1.12,0,0,0,.6-1,1,1,0,0,0-.36-.76,2.7,2.7,0,0,0-.91-.48c-.37-.12-.88-.26-1.51-.4a20.82,20.82,0,0,1-2.39-.7,3.93,3.93,0,0,1-1.6-1.11,3,3,0,0,1-.66-2,3.54,3.54,0,0,1,.6-2,4.06,4.06,0,0,1,1.82-1.44,7.43,7.43,0,0,1,3-.53,10.11,10.11,0,0,1,2.4.29,7.4,7.4,0,0,1,2,.84l-.91,2.25a7.11,7.11,0,0,0-3.55-1,3.29,3.29,0,0,0-1.83.4,1.22,1.22,0,0,0-.59,1.06,1,1,0,0,0,.68,1,9.86,9.86,0,0,0,2.09.63,20.23,20.23,0,0,1,2.39.7,3.91,3.91,0,0,1,1.6,1.09,2.93,2.93,0,0,1,.67,2,3.54,3.54,0,0,1-.61,2,4.1,4.1,0,0,1-1.84,1.43,7.34,7.34,0,0,1-3,.53A10.29,10.29,0,0,1,484,113.28Z"/><path class="cls-7" d="M504.24,111.1v2.37h-9.89V100.69H504v2.37h-6.72v2.78h5.93v2.3h-5.93v3Z"/><path class="cls-7" d="M509.15,112.85a6.69,6.69,0,0,1-2.49-9.17,6.42,6.42,0,0,1,2.49-2.36,7.33,7.33,0,0,1,3.55-.85,7.48,7.48,0,0,1,3,.59,6,6,0,0,1,2.25,1.68l-1.9,1.75a4.08,4.08,0,0,0-3.21-1.5,4.35,4.35,0,0,0-2.12.52,3.64,3.64,0,0,0-1.45,1.46,4.18,4.18,0,0,0-.52,2.11,4.24,4.24,0,0,0,.52,2.12,3.61,3.61,0,0,0,1.45,1.45,4.24,4.24,0,0,0,2.12.52,4.06,4.06,0,0,0,3.21-1.51l1.9,1.75a5.86,5.86,0,0,1-2.26,1.7,7.56,7.56,0,0,1-3,.58A7.39,7.39,0,0,1,509.15,112.85Z"/><path class="cls-7" d="M522.47,103.1h-4.09v-2.41h11.14v2.41h-4.09v10.37h-3Z"/><path class="cls-7" d="M533.53,112.84a6.62,6.62,0,0,1-2.5-9.14,6.28,6.28,0,0,1,2.5-2.37,7.9,7.9,0,0,1,7.17,0,6.62,6.62,0,0,1,2.5,9.14,6.55,6.55,0,0,1-2.5,2.37,8,8,0,0,1-7.17,0Zm5.63-2.19a3.72,3.72,0,0,0,1.44-1.45,4.35,4.35,0,0,0,.52-2.12,4.28,4.28,0,0,0-.52-2.11,3.74,3.74,0,0,0-1.44-1.46,4.28,4.28,0,0,0-4.09,0,3.72,3.72,0,0,0-1.43,1.46,4.18,4.18,0,0,0-.52,2.11,4.24,4.24,0,0,0,.52,2.12,3.69,3.69,0,0,0,1.43,1.45,4.28,4.28,0,0,0,4.09,0Z"/><path class="cls-7" d="M554.49,113.47,552,109.91H549.3v3.56h-3V100.69h5.53a7,7,0,0,1,3,.57,4.38,4.38,0,0,1,1.93,1.6,4.46,4.46,0,0,1,.68,2.47,4.33,4.33,0,0,1-.69,2.46,4.37,4.37,0,0,1-1.94,1.58l2.86,4.1Zm-.75-9.79a3.09,3.09,0,0,0-2-.58H549.3v4.46h2.41a3.09,3.09,0,0,0,2-.59,2.31,2.31,0,0,0,0-3.29Z"/><path class="cls-7" d="M380.86,26.81v34.7h-8V33.25h-6.94V26.81Z"/><path class="cls-7" d="M410.1,44.33a9.33,9.33,0,0,1,2.44,6.57A10.34,10.34,0,0,1,411,56.48a11.1,11.1,0,0,1-4.84,4.09,18.54,18.54,0,0,1-7.95,1.53,27.41,27.41,0,0,1-7.21-1,18.73,18.73,0,0,1-6-2.75l3.13-6.15a15,15,0,0,0,4.58,2.3,17.55,17.55,0,0,0,5.33.82,8.53,8.53,0,0,0,4.76-1.16,3.74,3.74,0,0,0,1.73-3.3q0-4.26-6.49-4.26h-3.67V41.33l7.14-8.08H386.66V26.81H411V32l-7.83,8.92A11.64,11.64,0,0,1,410.1,44.33Z"/><path class="cls-7" d="M423.44,60a14.22,14.22,0,0,1-5.28-6.17,22.43,22.43,0,0,1-1.91-9.64,22.43,22.43,0,0,1,1.91-9.64,14.28,14.28,0,0,1,5.28-6.17,14.93,14.93,0,0,1,15.37,0,14.33,14.33,0,0,1,5.27,6.17A22.28,22.28,0,0,1,446,44.16a22.28,22.28,0,0,1-1.91,9.64A14.27,14.27,0,0,1,438.81,60a14.93,14.93,0,0,1-15.37,0Zm12.67-7.38q1.8-2.73,1.8-8.43t-1.8-8.43a5.88,5.88,0,0,0-9.92,0q-1.81,2.73-1.81,8.43t1.81,8.43a5.88,5.88,0,0,0,9.92,0Z"/><path d="M323.38,136.63a5.32,5.32,0,0,1-.95,3.3,3,3,0,0,1-2.53,1.25,3.11,3.11,0,0,1-2.62-1.2l-.08,1h-1.41V128.3h1.53V133a3.11,3.11,0,0,1,2.56-1.15,3,3,0,0,1,2.56,1.23,5.45,5.45,0,0,1,.94,3.38Zm-1.53-.17a4.18,4.18,0,0,0-.61-2.42,2,2,0,0,0-1.74-.85,2.26,2.26,0,0,0-2.18,1.41v3.87a2.32,2.32,0,0,0,2.2,1.41,2,2,0,0,0,1.71-.85A4.41,4.41,0,0,0,321.85,136.46Z"/><path d="M329,141.18a3.9,3.9,0,0,1-3-1.2,4.44,4.44,0,0,1-1.14-3.2v-.28a5.37,5.37,0,0,1,.51-2.38,3.92,3.92,0,0,1,1.42-1.64,3.61,3.61,0,0,1,2-.59,3.35,3.35,0,0,1,2.72,1.15,5,5,0,0,1,1,3.3V137h-6.07a3.17,3.17,0,0,0,.77,2.14,2.44,2.44,0,0,0,1.89.82,2.65,2.65,0,0,0,1.37-.33,3.43,3.43,0,0,0,1-.88l.93.73A3.76,3.76,0,0,1,329,141.18Zm-.19-8a2,2,0,0,0-1.55.67,3.28,3.28,0,0,0-.78,1.89H331v-.11a3,3,0,0,0-.63-1.81A1.94,1.94,0,0,0,328.83,133.15Z"/><path d="M335.74,132.06l.05,1.12a3.26,3.26,0,0,1,2.68-1.29q2.83,0,2.87,3.2V141h-1.53v-5.92a2.1,2.1,0,0,0-.45-1.44,1.77,1.77,0,0,0-1.35-.46,2.17,2.17,0,0,0-1.31.4,2.63,2.63,0,0,0-.88,1V141h-1.53v-8.95Z"/><path d="M347.36,141.18a3.9,3.9,0,0,1-3-1.2,4.44,4.44,0,0,1-1.14-3.2v-.28a5.37,5.37,0,0,1,.51-2.38,4,4,0,0,1,1.42-1.64,3.62,3.62,0,0,1,2-.59,3.33,3.33,0,0,1,2.71,1.15,5,5,0,0,1,1,3.3V137h-6.07a3.17,3.17,0,0,0,.77,2.14,2.44,2.44,0,0,0,1.89.82,2.65,2.65,0,0,0,1.37-.33,3.31,3.31,0,0,0,1-.88l.93.73A3.76,3.76,0,0,1,347.36,141.18Zm-.18-8a2,2,0,0,0-1.56.67,3.28,3.28,0,0,0-.78,1.89h4.49v-.11a3,3,0,0,0-.63-1.81A1.91,1.91,0,0,0,347.18,133.15Z"/><path d="M353.39,141v-7.77H352v-1.18h1.42v-.92a3.06,3.06,0,0,1,.76-2.23,2.9,2.9,0,0,1,2.18-.79,4.15,4.15,0,0,1,1.05.14l-.08,1.24a4.33,4.33,0,0,0-.83-.08,1.51,1.51,0,0,0-1.15.44,1.77,1.77,0,0,0-.4,1.25v.95h1.91v1.18h-1.91V141Z"/><path d="M358.53,129.68a.88.88,0,0,1,.23-.63.84.84,0,0,1,.67-.26.88.88,0,0,1,.68.26.92.92,0,0,1,.23.63.83.83,0,0,1-.91.87.83.83,0,0,1-.9-.87ZM360.18,141h-1.53v-8.95h1.53Z"/><path d="M364.71,129.89v2.17h1.67v1.18h-1.67v5.56a1.3,1.3,0,0,0,.22.81,1,1,0,0,0,.77.27,3.52,3.52,0,0,0,.73-.1V141a4.55,4.55,0,0,1-1.18.17,1.93,1.93,0,0,1-1.55-.62,2.7,2.7,0,0,1-.52-1.76v-5.56h-1.63v-1.18h1.63v-2.17Z"/><path d="M370.25,129.89v2.17h1.68v1.18h-1.68v5.56a1.24,1.24,0,0,0,.23.81.94.94,0,0,0,.76.27,3.44,3.44,0,0,0,.73-.1V141a4.55,4.55,0,0,1-1.18.17,1.93,1.93,0,0,1-1.55-.62,2.7,2.7,0,0,1-.52-1.76v-5.56h-1.63v-1.18h1.63v-2.17Z"/><path d="M377.43,141.18a3.9,3.9,0,0,1-3-1.2,4.45,4.45,0,0,1-1.15-3.2v-.28a5.51,5.51,0,0,1,.51-2.38,4,4,0,0,1,1.43-1.64,3.61,3.61,0,0,1,2-.59A3.35,3.35,0,0,1,380,133a5,5,0,0,1,1,3.3V137h-6.07a3.17,3.17,0,0,0,.77,2.14,2.41,2.41,0,0,0,1.89.82,2.67,2.67,0,0,0,1.37-.33,3.27,3.27,0,0,0,1-.88l.94.73A3.77,3.77,0,0,1,377.43,141.18Zm-.19-8a2,2,0,0,0-1.56.67,3.34,3.34,0,0,0-.77,1.89h4.48v-.11a2.93,2.93,0,0,0-.62-1.81A1.94,1.94,0,0,0,377.24,133.15Z"/><path d="M382.33,136.46a5.28,5.28,0,0,1,1-3.32,3.32,3.32,0,0,1,5.05-.17V128.3h1.54V141h-1.41l-.08-1a3.29,3.29,0,0,1-5.09-.15,5.26,5.26,0,0,1-1-3.32Zm1.53.17a4,4,0,0,0,.63,2.39,2,2,0,0,0,1.74.86,2.22,2.22,0,0,0,2.12-1.31v-4.11a2.24,2.24,0,0,0-2.11-1.27,2,2,0,0,0-1.75.87A4.37,4.37,0,0,0,383.86,136.63Z"/><path d="M397.22,141v-7.77H395.8v-1.18h1.42v-.92a3.06,3.06,0,0,1,.76-2.23,2.9,2.9,0,0,1,2.18-.79,4.15,4.15,0,0,1,1,.14l-.08,1.24a4.33,4.33,0,0,0-.83-.08,1.51,1.51,0,0,0-1.15.44,1.77,1.77,0,0,0-.4,1.25v.95h1.91v1.18h-1.91V141Z"/><path d="M406.68,133.43a4.51,4.51,0,0,0-.76-.06,2,2,0,0,0-2,1.28V141h-1.53v-8.95h1.49l0,1a2.39,2.39,0,0,1,2.14-1.2,1.53,1.53,0,0,1,.68.12Z"/><path d="M407.52,136.45a5.35,5.35,0,0,1,.51-2.37,3.8,3.8,0,0,1,3.55-2.19,3.76,3.76,0,0,1,3,1.27,4.86,4.86,0,0,1,1.13,3.36v.11a5.37,5.37,0,0,1-.5,2.35,3.82,3.82,0,0,1-1.43,1.62,4,4,0,0,1-2.14.58,3.77,3.77,0,0,1-3-1.27,4.85,4.85,0,0,1-1.12-3.35Zm1.54.18a3.84,3.84,0,0,0,.69,2.4,2.22,2.22,0,0,0,1.85.9,2.17,2.17,0,0,0,1.85-.92,4.15,4.15,0,0,0,.69-2.56,3.81,3.81,0,0,0-.7-2.39,2.23,2.23,0,0,0-1.86-.91,2.21,2.21,0,0,0-1.83.9A4.17,4.17,0,0,0,409.06,136.63Z"/><path d="M419,132.06l.05,1a3.3,3.3,0,0,1,2.65-1.16,2.56,2.56,0,0,1,2.56,1.44,3.38,3.38,0,0,1,2.86-1.44q2.94,0,3,3.12v6h-1.54V135.1a2,2,0,0,0-.44-1.43,1.91,1.91,0,0,0-1.47-.48,2,2,0,0,0-1.42.51,2.07,2.07,0,0,0-.65,1.37V141h-1.54v-5.87a1.71,1.71,0,0,0-1.91-1.95,2,2,0,0,0-2.06,1.28V141h-1.53v-8.95Z"/><path d="M440.25,139.93a2.22,2.22,0,0,0,1.43-.5,1.75,1.75,0,0,0,.68-1.24h1.45a2.89,2.89,0,0,1-.53,1.47,3.45,3.45,0,0,1-1.31,1.1,4,4,0,0,1-4.63-.8,4.83,4.83,0,0,1-1.08-3.34v-.26a5.42,5.42,0,0,1,.48-2.33,3.73,3.73,0,0,1,1.38-1.58,3.92,3.92,0,0,1,2.12-.56,3.59,3.59,0,0,1,2.5.9,3.24,3.24,0,0,1,1.07,2.34h-1.45a2.15,2.15,0,0,0-.66-1.42,2,2,0,0,0-1.46-.56,2.15,2.15,0,0,0-1.81.84,3.93,3.93,0,0,0-.64,2.43v.29a3.88,3.88,0,0,0,.63,2.38A2.17,2.17,0,0,0,440.25,139.93Z"/><path d="M451.06,141a3,3,0,0,1-.21-.94,3.45,3.45,0,0,1-2.56,1.11,3.16,3.16,0,0,1-2.17-.75,2.41,2.41,0,0,1-.85-1.9,2.53,2.53,0,0,1,1.07-2.17,5,5,0,0,1,3-.78h1.49v-.7a1.72,1.72,0,0,0-.48-1.28,1.91,1.91,0,0,0-1.41-.48,2.22,2.22,0,0,0-1.38.42,1.22,1.22,0,0,0-.56,1h-1.53a2.1,2.1,0,0,1,.47-1.3,3.42,3.42,0,0,1,1.29-1,4.44,4.44,0,0,1,1.79-.36,3.56,3.56,0,0,1,2.43.77,2.78,2.78,0,0,1,.91,2.13v4.13a5,5,0,0,0,.32,2V141Zm-2.54-1.16a2.72,2.72,0,0,0,1.36-.37,2.21,2.21,0,0,0,.94-1v-1.83h-1.2c-1.88,0-2.81.55-2.81,1.64a1.38,1.38,0,0,0,.47,1.13A1.89,1.89,0,0,0,448.52,139.85Z"/><path d="M462.32,136.63a5.38,5.38,0,0,1-.93,3.3,3,3,0,0,1-2.54,1.25,3.27,3.27,0,0,1-2.56-1v4.31h-1.53v-12.4h1.39l.08,1a3.16,3.16,0,0,1,2.6-1.16,3.05,3.05,0,0,1,2.55,1.22,5.39,5.39,0,0,1,.94,3.38Zm-1.53-.17a3.94,3.94,0,0,0-.64-2.39,2.09,2.09,0,0,0-1.78-.88,2.25,2.25,0,0,0-2.08,1.23v4.28a2.25,2.25,0,0,0,2.1,1.23,2.06,2.06,0,0,0,1.75-.88A4.32,4.32,0,0,0,460.79,136.46Z"/><path d="M469.8,141a3,3,0,0,1-.21-.94,3.45,3.45,0,0,1-2.56,1.11,3.16,3.16,0,0,1-2.17-.75,2.41,2.41,0,0,1-.85-1.9,2.53,2.53,0,0,1,1.07-2.17,5,5,0,0,1,3-.78h1.49v-.7a1.72,1.72,0,0,0-.48-1.28,1.92,1.92,0,0,0-1.42-.48,2.21,2.21,0,0,0-1.37.42,1.22,1.22,0,0,0-.56,1h-1.54a2.12,2.12,0,0,1,.48-1.3,3.42,3.42,0,0,1,1.29-1,4.4,4.4,0,0,1,1.79-.36,3.56,3.56,0,0,1,2.43.77,2.78,2.78,0,0,1,.91,2.13v4.13a5.22,5.22,0,0,0,.31,2V141Zm-2.54-1.16a2.75,2.75,0,0,0,1.36-.37,2.21,2.21,0,0,0,.94-1v-1.83h-1.2c-1.88,0-2.82.55-2.82,1.64a1.39,1.39,0,0,0,.48,1.13A1.89,1.89,0,0,0,467.26,139.85Z"/><path d="M477.09,139.93a2.22,2.22,0,0,0,1.43-.5,1.75,1.75,0,0,0,.68-1.24h1.45a2.89,2.89,0,0,1-.53,1.47,3.45,3.45,0,0,1-1.31,1.1,4,4,0,0,1-4.64-.8,4.88,4.88,0,0,1-1.08-3.34v-.26a5.28,5.28,0,0,1,.49-2.33,3.71,3.71,0,0,1,1.37-1.58,4,4,0,0,1,2.13-.56,3.59,3.59,0,0,1,2.5.9,3.24,3.24,0,0,1,1.07,2.34H479.2a2.15,2.15,0,0,0-.66-1.42,2.06,2.06,0,0,0-1.46-.56,2.15,2.15,0,0,0-1.81.84,3.93,3.93,0,0,0-.64,2.43v.29a3.88,3.88,0,0,0,.63,2.38A2.17,2.17,0,0,0,477.09,139.93Z"/><path d="M482.38,129.68a.88.88,0,0,1,.23-.63.84.84,0,0,1,.67-.26.88.88,0,0,1,.68.26.92.92,0,0,1,.23.63.83.83,0,0,1-.91.87.83.83,0,0,1-.9-.87ZM484,141H482.5v-8.95H484Z"/><path d="M488.56,129.89v2.17h1.68v1.18h-1.68v5.56a1.24,1.24,0,0,0,.23.81.94.94,0,0,0,.76.27,3.44,3.44,0,0,0,.73-.1V141a4.55,4.55,0,0,1-1.18.17,1.93,1.93,0,0,1-1.55-.62,2.7,2.7,0,0,1-.52-1.76v-5.56H485.4v-1.18H487v-2.17Z"/><path d="M495,138.77l2.08-6.71h1.64l-3.6,10.34c-.56,1.49-1.44,2.23-2.66,2.23l-.29,0-.57-.11v-1.24l.42,0a2,2,0,0,0,1.21-.31,2.24,2.24,0,0,0,.71-1.16l.34-.91-3.19-8.85h1.67Z"/><path d="M298.63,157a5.32,5.32,0,0,1-.95,3.3,3,3,0,0,1-2.53,1.25,3.14,3.14,0,0,1-2.63-1.2l-.07,1H291V148.64h1.53v4.75a3.1,3.1,0,0,1,2.56-1.15,3,3,0,0,1,2.56,1.23,5.51,5.51,0,0,1,.94,3.38Zm-1.54-.17a4.18,4.18,0,0,0-.6-2.42,2,2,0,0,0-1.74-.85,2.26,2.26,0,0,0-2.18,1.41v3.87a2.31,2.31,0,0,0,2.2,1.41,2,2,0,0,0,1.71-.85A4.41,4.41,0,0,0,297.09,156.81Z"/><path d="M306.09,160.48a3.26,3.26,0,0,1-2.63,1.05,2.8,2.8,0,0,1-2.18-.83,3.65,3.65,0,0,1-.76-2.47v-5.82h1.53v5.78c0,1.36.56,2,1.66,2a2.28,2.28,0,0,0,2.33-1.31v-6.51h1.54v9h-1.46Z"/><path d="M309.91,150a.92.92,0,0,1,.23-.63,1,1,0,0,1,1.35,0,.88.88,0,0,1,.23.63.85.85,0,0,1-.23.62.86.86,0,0,1-.68.25.85.85,0,0,1-.67-.25A.9.9,0,0,1,309.91,150Zm1.66,11.33H310v-9h1.54Z"/><path d="M315.68,161.36h-1.53V148.64h1.53Z"/><path d="M317.76,156.81a5.27,5.27,0,0,1,1-3.32,3.32,3.32,0,0,1,5.05-.17v-4.68h1.53v12.72h-1.41l-.07-1a3.13,3.13,0,0,1-2.56,1.13,3.07,3.07,0,0,1-2.54-1.28,5.32,5.32,0,0,1-1-3.32Zm1.53.17a4,4,0,0,0,.63,2.39,2,2,0,0,0,1.74.86,2.25,2.25,0,0,0,2.13-1.31v-4.11a2.24,2.24,0,0,0-2.11-1.27,2.05,2.05,0,0,0-1.76.87A4.35,4.35,0,0,0,319.29,157Z"/><path d="M327.71,150a.88.88,0,0,1,.23-.63.84.84,0,0,1,.67-.26.88.88,0,0,1,.68.26.92.92,0,0,1,.23.63.9.9,0,0,1-.23.62.88.88,0,0,1-.68.25.84.84,0,0,1-.67-.25A.85.85,0,0,1,327.71,150Zm1.65,11.33h-1.53v-9h1.53Z"/><path d="M333.26,152.41l.05,1.12a3.27,3.27,0,0,1,2.68-1.29c1.9,0,2.85,1.07,2.87,3.2v5.92h-1.53v-5.93a2.14,2.14,0,0,0-.44-1.43,1.79,1.79,0,0,0-1.36-.46,2.19,2.19,0,0,0-1.31.4,2.8,2.8,0,0,0-.88,1v6.38h-1.53v-9Z"/><path d="M340.8,156.81a5.28,5.28,0,0,1,1-3.33,3.11,3.11,0,0,1,2.57-1.24,3.07,3.07,0,0,1,2.56,1.16l.07-1h1.4v8.74a3.63,3.63,0,0,1-1,2.74,3.8,3.8,0,0,1-2.77,1,4.75,4.75,0,0,1-1.9-.41,3.36,3.36,0,0,1-1.41-1.14l.8-.92a3,3,0,0,0,2.4,1.22,2.36,2.36,0,0,0,1.75-.63,2.43,2.43,0,0,0,.62-1.77v-.77a3.17,3.17,0,0,1-2.51,1.06,3,3,0,0,1-2.54-1.27A5.51,5.51,0,0,1,340.8,156.81Zm1.54.17a4,4,0,0,0,.62,2.38,2,2,0,0,0,1.75.87,2.24,2.24,0,0,0,2.12-1.32v-4.09a2.27,2.27,0,0,0-2.11-1.28,2,2,0,0,0-1.74.87A4.27,4.27,0,0,0,342.34,157Z"/><path d="M357,150.23v2.18h1.67v1.18H357v5.56a1.24,1.24,0,0,0,.22.81,1,1,0,0,0,.77.27,3.44,3.44,0,0,0,.72-.1v1.23a4.41,4.41,0,0,1-1.17.17,1.92,1.92,0,0,1-1.55-.62,2.67,2.67,0,0,1-.52-1.77v-5.55H353.8v-1.18h1.63v-2.18Z"/><path d="M359.85,156.8a5.22,5.22,0,0,1,.52-2.37,3.79,3.79,0,0,1,1.44-1.62,4,4,0,0,1,2.11-.57,3.77,3.77,0,0,1,3,1.27,4.86,4.86,0,0,1,1.13,3.36V157a5.37,5.37,0,0,1-.5,2.35,3.84,3.84,0,0,1-1.44,1.62,3.92,3.92,0,0,1-2.14.58,3.75,3.75,0,0,1-2.95-1.27,4.85,4.85,0,0,1-1.13-3.35Zm1.54.18a3.86,3.86,0,0,0,.69,2.4,2.35,2.35,0,0,0,3.71,0,4.17,4.17,0,0,0,.69-2.56,3.88,3.88,0,0,0-.7-2.39,2.23,2.23,0,0,0-1.86-.91,2.19,2.19,0,0,0-1.83.9A4.11,4.11,0,0,0,361.39,157Z"/><path d="M377.84,161.53a3.9,3.9,0,0,1-3-1.2,4.44,4.44,0,0,1-1.14-3.2v-.28a5.37,5.37,0,0,1,.51-2.38,4,4,0,0,1,1.42-1.64,3.62,3.62,0,0,1,2-.59,3.35,3.35,0,0,1,2.71,1.15,5,5,0,0,1,1,3.3v.63h-6.07a3.17,3.17,0,0,0,.77,2.14,2.44,2.44,0,0,0,1.89.82,2.65,2.65,0,0,0,1.37-.33,3.59,3.59,0,0,0,1-.88l.93.73A3.76,3.76,0,0,1,377.84,161.53Zm-.18-8a2,2,0,0,0-1.56.67,3.28,3.28,0,0,0-.78,1.89h4.49V156a3,3,0,0,0-.63-1.81A1.91,1.91,0,0,0,377.66,153.5Z"/><path d="M383.86,161.36v-7.77h-1.41v-1.18h1.41v-.92a3.07,3.07,0,0,1,.77-2.23,2.9,2.9,0,0,1,2.18-.79,4.15,4.15,0,0,1,1.05.14l-.08,1.23a5.35,5.35,0,0,0-.83-.07,1.51,1.51,0,0,0-1.15.44,1.76,1.76,0,0,0-.4,1.25v.95h1.91v1.18H385.4v7.77Z"/><path d="M389.75,161.36v-7.77h-1.42v-1.18h1.42v-.92a3.07,3.07,0,0,1,.77-2.23,2.89,2.89,0,0,1,2.18-.79,4.21,4.21,0,0,1,1.05.14l-.08,1.23a5.46,5.46,0,0,0-.83-.07,1.49,1.49,0,0,0-1.15.44,1.76,1.76,0,0,0-.41,1.25v.95h1.91v1.18h-1.91v7.77Z"/><path d="M398.4,161.53a3.9,3.9,0,0,1-3-1.2,4.44,4.44,0,0,1-1.14-3.2v-.28a5.37,5.37,0,0,1,.51-2.38,3.92,3.92,0,0,1,1.42-1.64,3.61,3.61,0,0,1,2-.59,3.35,3.35,0,0,1,2.72,1.15,5,5,0,0,1,1,3.3v.63h-6.07a3.17,3.17,0,0,0,.77,2.14,2.43,2.43,0,0,0,1.89.82,2.65,2.65,0,0,0,1.37-.33,3.59,3.59,0,0,0,1-.88l.93.73A3.76,3.76,0,0,1,398.4,161.53Zm-.19-8a2.06,2.06,0,0,0-1.56.67,3.34,3.34,0,0,0-.77,1.89h4.48V156a2.93,2.93,0,0,0-.62-1.81A1.94,1.94,0,0,0,398.21,153.5Z"/><path d="M407.27,160.28a2.22,2.22,0,0,0,1.43-.5,1.75,1.75,0,0,0,.68-1.24h1.45a2.89,2.89,0,0,1-.53,1.47,3.45,3.45,0,0,1-1.31,1.1,4,4,0,0,1-4.64-.8,4.88,4.88,0,0,1-1.08-3.34v-.26a5.28,5.28,0,0,1,.49-2.33,3.65,3.65,0,0,1,1.37-1.58,4,4,0,0,1,2.13-.56,3.59,3.59,0,0,1,2.5.9,3.24,3.24,0,0,1,1.07,2.34h-1.45a2.13,2.13,0,0,0-.66-1.42,2,2,0,0,0-1.46-.56,2.15,2.15,0,0,0-1.81.84,3.93,3.93,0,0,0-.64,2.43v.29a3.9,3.9,0,0,0,.63,2.38A2.17,2.17,0,0,0,407.27,160.28Z"/><path d="M414.63,150.23v2.18h1.67v1.18h-1.67v5.56a1.24,1.24,0,0,0,.22.81.94.94,0,0,0,.76.27,3.44,3.44,0,0,0,.73-.1v1.23a4.43,4.43,0,0,1-1.18.17,1.9,1.9,0,0,1-1.54-.62,2.67,2.67,0,0,1-.52-1.77v-5.55h-1.64v-1.18h1.64v-2.18Z"/><path d="M418.09,150a.92.92,0,0,1,.23-.63.87.87,0,0,1,.68-.26.88.88,0,0,1,.68.26.92.92,0,0,1,.23.63.9.9,0,0,1-.23.62.88.88,0,0,1-.68.25.86.86,0,0,1-.68-.25A.9.9,0,0,1,418.09,150Zm1.66,11.33h-1.53v-9h1.53Z"/><path d="M425.16,159.28l2.22-6.87h1.56l-3.21,9h-1.17l-3.24-9h1.56Z"/><path d="M434,161.53a3.91,3.91,0,0,1-3-1.2,4.44,4.44,0,0,1-1.14-3.2v-.28a5.37,5.37,0,0,1,.51-2.38,4,4,0,0,1,1.42-1.64,3.62,3.62,0,0,1,2-.59,3.33,3.33,0,0,1,2.71,1.15,5,5,0,0,1,1,3.3v.63h-6.07a3.17,3.17,0,0,0,.77,2.14,2.44,2.44,0,0,0,1.89.82,2.65,2.65,0,0,0,1.37-.33,3.45,3.45,0,0,0,1-.88l.93.73A3.75,3.75,0,0,1,434,161.53Zm-.19-8a2,2,0,0,0-1.56.67,3.28,3.28,0,0,0-.78,1.89H436V156a2.93,2.93,0,0,0-.63-1.81A1.91,1.91,0,0,0,433.84,153.5Z"/><path d="M441,161.36h-1.54V148.64H441Z"/><path d="M446.34,159.12l2.08-6.71h1.64l-3.6,10.34c-.56,1.49-1.44,2.23-2.66,2.23l-.29,0-.57-.11v-1.24l.42,0a2,2,0,0,0,1.21-.31,2.32,2.32,0,0,0,.72-1.16l.34-.91-3.2-8.85h1.67Z"/><path d="M461.16,161.36a3,3,0,0,1-.21-.94,3.45,3.45,0,0,1-2.56,1.11,3.16,3.16,0,0,1-2.17-.75,2.41,2.41,0,0,1-.85-1.9,2.53,2.53,0,0,1,1.07-2.17,5,5,0,0,1,3-.78h1.49v-.7a1.72,1.72,0,0,0-.48-1.28,1.91,1.91,0,0,0-1.41-.48,2.22,2.22,0,0,0-1.38.42,1.22,1.22,0,0,0-.56,1h-1.53a2.1,2.1,0,0,1,.47-1.3,3.33,3.33,0,0,1,1.29-1,4.4,4.4,0,0,1,1.79-.36,3.56,3.56,0,0,1,2.43.77,2.78,2.78,0,0,1,.91,2.13v4.13a5,5,0,0,0,.32,2v.13Zm-2.54-1.16a2.64,2.64,0,0,0,1.36-.38,2.19,2.19,0,0,0,.94-1V157h-1.2c-1.88,0-2.81.54-2.81,1.64a1.4,1.4,0,0,0,.47,1.13A1.89,1.89,0,0,0,458.62,160.2Z"/><path d="M464.48,156.81a5.27,5.27,0,0,1,1-3.32,3.32,3.32,0,0,1,5.05-.17v-4.68H472v12.72h-1.4l-.08-1a3.13,3.13,0,0,1-2.56,1.13,3.07,3.07,0,0,1-2.54-1.28,5.32,5.32,0,0,1-1-3.32ZM466,157a4,4,0,0,0,.63,2.39,2,2,0,0,0,1.74.86,2.25,2.25,0,0,0,2.13-1.31v-4.11a2.24,2.24,0,0,0-2.11-1.27,2.05,2.05,0,0,0-1.76.87A4.35,4.35,0,0,0,466,157Z"/><path d="M477.37,159.28l2.22-6.87h1.57l-3.21,9h-1.17l-3.25-9h1.57Z"/><path d="M482.1,156.8a5.22,5.22,0,0,1,.52-2.37,3.86,3.86,0,0,1,1.44-1.62,4,4,0,0,1,2.11-.57,3.76,3.76,0,0,1,3,1.27,4.86,4.86,0,0,1,1.13,3.36V157a5.37,5.37,0,0,1-.5,2.35,3.84,3.84,0,0,1-1.44,1.62,3.92,3.92,0,0,1-2.14.58,3.77,3.77,0,0,1-2.95-1.27,4.85,4.85,0,0,1-1.13-3.35Zm1.54.18a3.8,3.8,0,0,0,.7,2.4,2.34,2.34,0,0,0,3.7,0,4.17,4.17,0,0,0,.69-2.56,3.88,3.88,0,0,0-.7-2.39,2.23,2.23,0,0,0-1.86-.91,2.19,2.19,0,0,0-1.83.9A4.11,4.11,0,0,0,483.64,157Z"/><path d="M495.77,160.28a2.23,2.23,0,0,0,1.44-.5,1.74,1.74,0,0,0,.67-1.24h1.45a2.72,2.72,0,0,1-.53,1.47,3.42,3.42,0,0,1-1.3,1.1,4,4,0,0,1-4.64-.8,4.88,4.88,0,0,1-1.08-3.34v-.26a5.42,5.42,0,0,1,.48-2.33,3.67,3.67,0,0,1,1.38-1.58,4,4,0,0,1,2.12-.56,3.61,3.61,0,0,1,2.51.9,3.23,3.23,0,0,1,1.06,2.34h-1.45a2.08,2.08,0,0,0-.65-1.42,2,2,0,0,0-1.47-.56,2.13,2.13,0,0,0-1.8.84,3.93,3.93,0,0,0-.65,2.43v.29a3.9,3.9,0,0,0,.64,2.38A2.15,2.15,0,0,0,495.77,160.28Z"/><path d="M506.59,161.36a3.22,3.22,0,0,1-.22-.94,3.41,3.41,0,0,1-2.55,1.11,3.15,3.15,0,0,1-2.17-.75,2.41,2.41,0,0,1-.85-1.9,2.52,2.52,0,0,1,1.06-2.17,5,5,0,0,1,3-.78h1.49v-.7a1.72,1.72,0,0,0-.48-1.28,1.94,1.94,0,0,0-1.42-.48,2.19,2.19,0,0,0-1.37.42,1.22,1.22,0,0,0-.56,1H501a2.12,2.12,0,0,1,.48-1.3,3.25,3.25,0,0,1,1.29-1,4.37,4.37,0,0,1,1.79-.36A3.59,3.59,0,0,1,507,153a2.81,2.81,0,0,1,.91,2.13v4.13a5.06,5.06,0,0,0,.31,2v.13ZM504,160.2a2.67,2.67,0,0,0,1.37-.38,2.3,2.3,0,0,0,.94-1V157h-1.2c-1.88,0-2.82.54-2.82,1.64a1.4,1.4,0,0,0,.48,1.13A1.84,1.84,0,0,0,504,160.2Z"/><path d="M512.36,150.23v2.18H514v1.18h-1.67v5.56a1.24,1.24,0,0,0,.22.81,1,1,0,0,0,.76.27,3.44,3.44,0,0,0,.73-.1v1.23a4.41,4.41,0,0,1-1.17.17,1.92,1.92,0,0,1-1.55-.62,2.67,2.67,0,0,1-.52-1.77v-5.55h-1.64v-1.18h1.64v-2.18Z"/><path d="M519.54,161.53a3.9,3.9,0,0,1-3-1.2,4.41,4.41,0,0,1-1.15-3.2v-.28a5.37,5.37,0,0,1,.51-2.38,4.06,4.06,0,0,1,1.42-1.64,3.67,3.67,0,0,1,2-.59,3.37,3.37,0,0,1,2.72,1.15,5,5,0,0,1,1,3.3v.63H517a3.18,3.18,0,0,0,.78,2.14,2.41,2.41,0,0,0,1.88.82A2.71,2.71,0,0,0,521,160a3.55,3.55,0,0,0,1-.88l.94.73A3.77,3.77,0,0,1,519.54,161.53Zm-.19-8a2,2,0,0,0-1.56.67,3.28,3.28,0,0,0-.78,1.89h4.49V156a2.87,2.87,0,0,0-.63-1.81A1.9,1.9,0,0,0,519.35,153.5Z"/><path d="M277.89,181.71v-7.77h-1.42v-1.19h1.42v-.91a3,3,0,0,1,.77-2.23,2.89,2.89,0,0,1,2.18-.79,4.21,4.21,0,0,1,1.05.14l-.08,1.23a5.46,5.46,0,0,0-.83-.07,1.49,1.49,0,0,0-1.15.44,1.76,1.76,0,0,0-.41,1.25v.94h1.92v1.19h-1.92v7.77Z"/><path d="M282.62,177.15a5.22,5.22,0,0,1,.52-2.37,3.79,3.79,0,0,1,1.44-1.62,3.92,3.92,0,0,1,2.11-.57,3.75,3.75,0,0,1,2.95,1.27,4.82,4.82,0,0,1,1.14,3.36v.11a5.27,5.27,0,0,1-.51,2.35,3.82,3.82,0,0,1-1.43,1.62,4,4,0,0,1-2.14.58,3.75,3.75,0,0,1-2.95-1.27,4.85,4.85,0,0,1-1.13-3.35Zm1.54.18a3.86,3.86,0,0,0,.69,2.4,2.35,2.35,0,0,0,3.71,0,4.17,4.17,0,0,0,.68-2.56,3.81,3.81,0,0,0-.7-2.39,2.2,2.2,0,0,0-1.85-.91,2.22,2.22,0,0,0-1.84.9A4.17,4.17,0,0,0,284.16,177.33Z"/><path d="M297,174.13a4.51,4.51,0,0,0-.76-.06,2,2,0,0,0-2,1.28v6.36H292.7v-9h1.49l0,1a2.39,2.39,0,0,1,2.14-1.2,1.71,1.71,0,0,1,.68.11Z"/><path d="M304.71,170.58v2.17h1.67v1.19h-1.67v5.56a1.3,1.3,0,0,0,.22.81,1,1,0,0,0,.77.27,3.52,3.52,0,0,0,.73-.1v1.23a4.55,4.55,0,0,1-1.18.17,1.92,1.92,0,0,1-1.55-.62,2.67,2.67,0,0,1-.52-1.77v-5.55h-1.63v-1.19h1.63v-2.17Z"/><path d="M309.7,173.84a3.25,3.25,0,0,1,2.65-1.25c1.9,0,2.85,1.07,2.87,3.2v5.92h-1.53v-5.93a2.09,2.09,0,0,0-.45-1.43,1.77,1.77,0,0,0-1.35-.46,2.19,2.19,0,0,0-1.31.4,2.71,2.71,0,0,0-.88,1v6.38h-1.53V169h1.53Z"/><path d="M321.23,181.88a3.9,3.9,0,0,1-3-1.2,4.41,4.41,0,0,1-1.15-3.2v-.28a5.37,5.37,0,0,1,.51-2.38,4,4,0,0,1,1.43-1.64,3.61,3.61,0,0,1,2-.59,3.35,3.35,0,0,1,2.72,1.15,5,5,0,0,1,1,3.3v.63h-6.07a3.12,3.12,0,0,0,.77,2.14,2.41,2.41,0,0,0,1.88.82,2.71,2.71,0,0,0,1.38-.33,3.55,3.55,0,0,0,1-.88l.94.73A3.77,3.77,0,0,1,321.23,181.88Zm-.19-8a2,2,0,0,0-1.56.67,3.28,3.28,0,0,0-.78,1.89h4.49v-.11a2.87,2.87,0,0,0-.63-1.81A1.9,1.9,0,0,0,321,173.85Z"/><path d="M326.5,170.38a.92.92,0,0,1,.23-.63.87.87,0,0,1,.68-.26.88.88,0,0,1,.68.26.88.88,0,0,1-.68,1.5.9.9,0,0,1-.68-.25A.91.91,0,0,1,326.5,170.38Zm1.66,11.33h-1.53v-9h1.53Z"/><path d="M334.94,174.13a4.38,4.38,0,0,0-.75-.06,2,2,0,0,0-2.05,1.28v6.36h-1.53v-9h1.49l0,1a2.38,2.38,0,0,1,2.13-1.2,1.68,1.68,0,0,1,.68.11Z"/><path d="M342,172.75l0,1a3.29,3.29,0,0,1,2.66-1.16,2.57,2.57,0,0,1,2.56,1.44,3.36,3.36,0,0,1,1.16-1.05,3.49,3.49,0,0,1,1.69-.39q3,0,3,3.12v6h-1.53V175.8a2.08,2.08,0,0,0-.44-1.44,2,2,0,0,0-1.47-.47,2,2,0,0,0-2.07,1.88v5.94h-1.54v-5.87a1.71,1.71,0,0,0-1.92-2,2.06,2.06,0,0,0-2.06,1.28v6.54h-1.53v-9Z"/><path d="M359.13,181.88a3.9,3.9,0,0,1-3-1.2,4.41,4.41,0,0,1-1.15-3.2v-.28a5.37,5.37,0,0,1,.51-2.38,4.06,4.06,0,0,1,1.42-1.64,3.67,3.67,0,0,1,2-.59,3.37,3.37,0,0,1,2.72,1.15,5,5,0,0,1,1,3.3v.63h-6.07a3.18,3.18,0,0,0,.78,2.14,2.41,2.41,0,0,0,1.88.82,2.71,2.71,0,0,0,1.38-.33,3.55,3.55,0,0,0,1-.88l.94.73A3.77,3.77,0,0,1,359.13,181.88Zm-.19-8a2,2,0,0,0-1.56.67,3.28,3.28,0,0,0-.78,1.89h4.49v-.11a2.87,2.87,0,0,0-.63-1.81A1.9,1.9,0,0,0,358.94,173.85Z"/><path d="M365.83,172.75l.05,1a3.27,3.27,0,0,1,2.65-1.16,2.56,2.56,0,0,1,2.56,1.44,3.31,3.31,0,0,1,2.86-1.44c2,0,3,1,3,3.12v6h-1.53V175.8a2.08,2.08,0,0,0-.44-1.44,2,2,0,0,0-1.48-.47,2,2,0,0,0-1.41.51,2,2,0,0,0-.66,1.37v5.94h-1.54v-5.87a1.7,1.7,0,0,0-1.91-2,2.06,2.06,0,0,0-2.06,1.28v6.54h-1.53v-9Z"/><path d="M386.84,177.33a5.32,5.32,0,0,1-.94,3.3,3,3,0,0,1-2.53,1.25,3.13,3.13,0,0,1-2.63-1.2l-.07,1h-1.41V169h1.53v4.75a3.1,3.1,0,0,1,2.56-1.15,3,3,0,0,1,2.56,1.23,5.51,5.51,0,0,1,.93,3.38Zm-1.53-.17a4.18,4.18,0,0,0-.6-2.42,2,2,0,0,0-1.74-.85,2.26,2.26,0,0,0-2.18,1.4v3.88a2.31,2.31,0,0,0,2.2,1.41,2,2,0,0,0,1.71-.85A4.41,4.41,0,0,0,385.31,177.16Z"/><path d="M392.49,181.88a3.9,3.9,0,0,1-3-1.2,4.41,4.41,0,0,1-1.15-3.2v-.28a5.37,5.37,0,0,1,.51-2.38,4,4,0,0,1,1.43-1.64,3.61,3.61,0,0,1,2-.59,3.37,3.37,0,0,1,2.72,1.15,5,5,0,0,1,1,3.3v.63h-6.06a3.12,3.12,0,0,0,.77,2.14,2.41,2.41,0,0,0,1.88.82,2.71,2.71,0,0,0,1.38-.33,3.55,3.55,0,0,0,1-.88l.94.73A3.77,3.77,0,0,1,392.49,181.88Zm-.19-8a2,2,0,0,0-1.56.67,3.28,3.28,0,0,0-.78,1.89h4.49v-.11a2.87,2.87,0,0,0-.63-1.81A1.9,1.9,0,0,0,392.3,173.85Z"/><path d="M402.09,174.13a4.38,4.38,0,0,0-.75-.06,2,2,0,0,0-2,1.28v6.36h-1.53v-9h1.49l0,1a2.4,2.4,0,0,1,2.14-1.2,1.71,1.71,0,0,1,.68.11Z"/><path d="M408.71,179.34a1.11,1.11,0,0,0-.47-1,4.34,4.34,0,0,0-1.63-.59,7.92,7.92,0,0,1-1.84-.6,2.45,2.45,0,0,1-1-.83,1.94,1.94,0,0,1-.33-1.14,2.33,2.33,0,0,1,.93-1.86,3.63,3.63,0,0,1,2.38-.76,3.75,3.75,0,0,1,2.47.78,2.53,2.53,0,0,1,1,2h-1.54a1.4,1.4,0,0,0-.53-1.09,2,2,0,0,0-1.35-.45,2.12,2.12,0,0,0-1.31.36,1.15,1.15,0,0,0-.47.95.94.94,0,0,0,.44.84,5.24,5.24,0,0,0,1.59.54,8,8,0,0,1,1.85.61,2.67,2.67,0,0,1,1.06.86,2.09,2.09,0,0,1,.34,1.22,2.28,2.28,0,0,1-1,1.92,4,4,0,0,1-2.49.73,4.54,4.54,0,0,1-1.9-.38,3.07,3.07,0,0,1-1.3-1.07,2.54,2.54,0,0,1-.47-1.47h1.53a1.61,1.61,0,0,0,.62,1.22,2.41,2.41,0,0,0,1.52.45,2.52,2.52,0,0,0,1.4-.35A1.09,1.09,0,0,0,408.71,179.34Z"/><path d="M412.35,173.05l-.87-.6a3.92,3.92,0,0,0,.79-2.26V169h1.52v1.08a4.1,4.1,0,0,1-1.44,3Z"/><path d="M424.16,174.13a4.59,4.59,0,0,0-.76-.06,2,2,0,0,0-2,1.28v6.36h-1.54v-9h1.5l0,1a2.38,2.38,0,0,1,2.14-1.2,1.75,1.75,0,0,1,.68.11Z"/><path d="M425.57,170.38a.92.92,0,0,1,.23-.63,1,1,0,0,1,1.35,0,1,1,0,0,1,0,1.25,1,1,0,0,1-1.35,0A.91.91,0,0,1,425.57,170.38Zm1.66,11.33h-1.54v-9h1.54Z"/><path d="M429.32,177.16a5.32,5.32,0,0,1,1-3.34,3.12,3.12,0,0,1,2.57-1.23,3.07,3.07,0,0,1,2.56,1.16l.07-1h1.4v8.75a3.63,3.63,0,0,1-1,2.74,3.8,3.8,0,0,1-2.77,1,4.66,4.66,0,0,1-1.89-.41,3.33,3.33,0,0,1-1.42-1.14l.8-.92A3,3,0,0,0,433,184a2.36,2.36,0,0,0,1.75-.63,2.43,2.43,0,0,0,.62-1.77v-.77a3.17,3.17,0,0,1-2.51,1.06,3.05,3.05,0,0,1-2.54-1.27A5.52,5.52,0,0,1,429.32,177.16Zm1.53.17a4,4,0,0,0,.63,2.38,2,2,0,0,0,1.74.87,2.24,2.24,0,0,0,2.12-1.32v-4.09a2.27,2.27,0,0,0-2.11-1.28,2,2,0,0,0-1.74.87A4.34,4.34,0,0,0,430.85,177.33Z"/><path d="M440.72,173.84a3.25,3.25,0,0,1,2.65-1.25c1.9,0,2.85,1.07,2.87,3.2v5.92h-1.53v-5.93a2.14,2.14,0,0,0-.44-1.43,1.79,1.79,0,0,0-1.36-.46,2.19,2.19,0,0,0-1.31.4,2.8,2.8,0,0,0-.88,1v6.38h-1.53V169h1.53Z"/><path d="M450.61,170.58v2.17h1.67v1.19h-1.67v5.56a1.3,1.3,0,0,0,.22.81,1,1,0,0,0,.77.27,3.52,3.52,0,0,0,.73-.1v1.23a4.55,4.55,0,0,1-1.18.17,1.92,1.92,0,0,1-1.55-.62,2.67,2.67,0,0,1-.52-1.77v-5.55h-1.63v-1.19h1.63v-2.17Z"/><path d="M459.29,179.34a1.14,1.14,0,0,0-.47-1,4.34,4.34,0,0,0-1.63-.59,8,8,0,0,1-1.85-.6,2.58,2.58,0,0,1-1-.83,2,2,0,0,1-.32-1.14,2.33,2.33,0,0,1,.93-1.86,3.61,3.61,0,0,1,2.38-.76,3.77,3.77,0,0,1,2.47.78,2.53,2.53,0,0,1,.95,2H459.2a1.38,1.38,0,0,0-.54-1.09,2,2,0,0,0-1.34-.45,2.1,2.1,0,0,0-1.31.36,1.15,1.15,0,0,0-.47.95.92.92,0,0,0,.44.84,5.26,5.26,0,0,0,1.58.54,7.93,7.93,0,0,1,1.86.61,2.67,2.67,0,0,1,1.06.86,2.09,2.09,0,0,1,.34,1.22,2.28,2.28,0,0,1-1,1.92,4,4,0,0,1-2.49.73,4.62,4.62,0,0,1-1.91-.38,3.1,3.1,0,0,1-1.29-1.07,2.54,2.54,0,0,1-.47-1.47h1.53a1.61,1.61,0,0,0,.62,1.22,2.39,2.39,0,0,0,1.52.45,2.49,2.49,0,0,0,1.39-.35A1.1,1.1,0,0,0,459.29,179.34Z"/><path d="M462.77,184.11l-.87-.59a4,4,0,0,0,.81-2.24V179.9h1.5v1.2a3.81,3.81,0,0,1-.41,1.67A4,4,0,0,1,462.77,184.11Z"/><path d="M470.35,170.38a.92.92,0,0,1,.23-.63,1,1,0,0,1,1.35,0,1,1,0,0,1,0,1.25,1,1,0,0,1-1.35,0A.91.91,0,0,1,470.35,170.38ZM472,181.71h-1.53v-9H472Z"/><path d="M475.91,172.75l0,1.13a3.26,3.26,0,0,1,2.68-1.29q2.83,0,2.87,3.2v5.92H480v-5.93a2.09,2.09,0,0,0-.45-1.43,1.77,1.77,0,0,0-1.35-.46,2.17,2.17,0,0,0-1.31.4,2.63,2.63,0,0,0-.88,1v6.38h-1.53v-9Z"/><path d="M487.41,180.63a2.21,2.21,0,0,0,1.43-.5,1.72,1.72,0,0,0,.68-1.24H491a2.74,2.74,0,0,1-.53,1.46,3.43,3.43,0,0,1-1.3,1.11,3.74,3.74,0,0,1-1.73.42,3.7,3.7,0,0,1-2.91-1.22,4.88,4.88,0,0,1-1.08-3.34v-.26a5.42,5.42,0,0,1,.48-2.33,3.67,3.67,0,0,1,1.38-1.58,3.94,3.94,0,0,1,2.12-.56,3.57,3.57,0,0,1,2.5.9,3.19,3.19,0,0,1,1.07,2.34h-1.45a2,2,0,0,0-.66-1.42,2,2,0,0,0-1.46-.56,2.15,2.15,0,0,0-1.81.84,3.93,3.93,0,0,0-.64,2.43v.29a3.83,3.83,0,0,0,.64,2.38A2.14,2.14,0,0,0,487.41,180.63Z"/><path d="M494.36,181.71h-1.54V169h1.54Z"/><path d="M502.34,180.83a3.26,3.26,0,0,1-2.63,1,2.8,2.8,0,0,1-2.18-.83,3.65,3.65,0,0,1-.76-2.47v-5.83h1.53v5.79c0,1.36.56,2,1.66,2a2.31,2.31,0,0,0,2.34-1.31v-6.52h1.53v9h-1.46Z"/><path d="M505.78,177.16a5.27,5.27,0,0,1,1-3.32,3.33,3.33,0,0,1,5.05-.18V169h1.53v12.72h-1.4l-.08-1a3.13,3.13,0,0,1-2.56,1.13,3.07,3.07,0,0,1-2.54-1.28,5.34,5.34,0,0,1-1-3.33Zm1.53.17a4,4,0,0,0,.63,2.39,2,2,0,0,0,1.74.86,2.25,2.25,0,0,0,2.13-1.31v-4.12a2.25,2.25,0,0,0-2.11-1.26,2.05,2.05,0,0,0-1.76.87A4.35,4.35,0,0,0,507.31,177.33Z"/><path d="M515.73,170.38a.88.88,0,0,1,.23-.63.84.84,0,0,1,.67-.26.88.88,0,0,1,.68.26.88.88,0,0,1-.68,1.5.83.83,0,0,1-.9-.87Zm1.65,11.33h-1.53v-9h1.53Z"/><path d="M521.29,172.75l0,1.13a3.28,3.28,0,0,1,2.69-1.29c1.89,0,2.85,1.07,2.86,3.2v5.92h-1.53v-5.93a2.09,2.09,0,0,0-.44-1.43,1.78,1.78,0,0,0-1.36-.46,2.16,2.16,0,0,0-1.3.4,2.63,2.63,0,0,0-.88,1v6.38h-1.53v-9Z"/><path d="M528.83,177.16a5.27,5.27,0,0,1,1-3.34,3.09,3.09,0,0,1,2.56-1.23,3.05,3.05,0,0,1,2.56,1.16l.08-1h1.39v8.75a3.67,3.67,0,0,1-1,2.74,3.81,3.81,0,0,1-2.77,1,4.71,4.71,0,0,1-1.9-.41,3.33,3.33,0,0,1-1.42-1.14l.8-.92a3,3,0,0,0,2.41,1.22,2.35,2.35,0,0,0,1.74-.63,2.39,2.39,0,0,0,.63-1.77v-.77a3.18,3.18,0,0,1-2.51,1.06,3.06,3.06,0,0,1-2.55-1.27A5.52,5.52,0,0,1,528.83,177.16Zm1.54.17a4,4,0,0,0,.62,2.38,2,2,0,0,0,1.74.87,2.26,2.26,0,0,0,2.13-1.32v-4.09a2.29,2.29,0,0,0-2.12-1.28,2,2,0,0,0-1.74.87A4.35,4.35,0,0,0,530.37,177.33Z"/><path d="M279.74,190.94v2.17h1.67v1.18h-1.67v5.56a1.24,1.24,0,0,0,.22.81,1,1,0,0,0,.76.27,3.44,3.44,0,0,0,.73-.1v1.23a4.41,4.41,0,0,1-1.17.17,1.92,1.92,0,0,1-1.55-.62,2.64,2.64,0,0,1-.52-1.76v-5.56h-1.64v-1.18h1.64v-2.17Z"/><path d="M284.73,194.19a3.27,3.27,0,0,1,2.65-1.25q2.83,0,2.87,3.2v5.92h-1.54v-5.92a2.05,2.05,0,0,0-.44-1.44,1.77,1.77,0,0,0-1.35-.46,2.17,2.17,0,0,0-1.31.4,2.63,2.63,0,0,0-.88,1v6.38H283.2V189.35h1.53Z"/><path d="M296.26,202.23a3.91,3.91,0,0,1-3-1.2,4.43,4.43,0,0,1-1.14-3.2v-.28a5.37,5.37,0,0,1,.51-2.38,4,4,0,0,1,1.42-1.64,3.62,3.62,0,0,1,2-.59,3.33,3.33,0,0,1,2.71,1.15,5,5,0,0,1,1,3.3V198h-6.07a3.17,3.17,0,0,0,.77,2.14,2.44,2.44,0,0,0,1.89.82,2.65,2.65,0,0,0,1.37-.33,3.31,3.31,0,0,0,1-.88l.93.73A3.75,3.75,0,0,1,296.26,202.23Zm-.19-8a2,2,0,0,0-1.56.67,3.31,3.31,0,0,0-.78,1.9h4.49v-.12a2.93,2.93,0,0,0-.63-1.81A1.91,1.91,0,0,0,296.07,194.2Z"/><path d="M310.05,194.48a4.38,4.38,0,0,0-.75-.06,2,2,0,0,0-2.05,1.29v6.35h-1.53v-8.95h1.49l0,1a2.38,2.38,0,0,1,2.13-1.2,1.5,1.5,0,0,1,.68.12Z"/><path d="M311.47,190.73a.92.92,0,0,1,.23-.63,1,1,0,0,1,1.35,0,.88.88,0,0,1,.23.63.84.84,0,0,1-.23.62.86.86,0,0,1-.68.25.85.85,0,0,1-.67-.25A.88.88,0,0,1,311.47,190.73Zm1.66,11.33h-1.54v-8.95h1.54Z"/><path d="M315.21,197.51a5.28,5.28,0,0,1,1-3.33,3.34,3.34,0,0,1,5.13-.08l.07-1h1.4v8.74a3.63,3.63,0,0,1-1,2.74,3.8,3.8,0,0,1-2.77,1,4.71,4.71,0,0,1-1.9-.41,3.3,3.3,0,0,1-1.41-1.14l.79-.92a3,3,0,0,0,2.41,1.22,2.36,2.36,0,0,0,1.75-.63,2.43,2.43,0,0,0,.62-1.77v-.77a3.14,3.14,0,0,1-2.51,1.06,3.06,3.06,0,0,1-2.55-1.27A5.57,5.57,0,0,1,315.21,197.51Zm1.54.18a4,4,0,0,0,.62,2.37,2,2,0,0,0,1.74.87,2.24,2.24,0,0,0,2.13-1.32v-4.09a2.27,2.27,0,0,0-2.11-1.28,2,2,0,0,0-1.75.87A4.38,4.38,0,0,0,316.75,197.69Z"/><path d="M326.62,194.19a3.27,3.27,0,0,1,2.65-1.25q2.84,0,2.87,3.2v5.92h-1.53v-5.92a2.1,2.1,0,0,0-.45-1.44,1.77,1.77,0,0,0-1.35-.46,2.17,2.17,0,0,0-1.31.4,2.63,2.63,0,0,0-.88,1v6.38h-1.53V189.35h1.53Z"/><path d="M336.51,190.94v2.17h1.67v1.18h-1.67v5.56a1.24,1.24,0,0,0,.22.81,1,1,0,0,0,.76.27,3.44,3.44,0,0,0,.73-.1v1.23a4.41,4.41,0,0,1-1.17.17,1.92,1.92,0,0,1-1.55-.62,2.64,2.64,0,0,1-.52-1.76v-5.56h-1.64v-1.18H335v-2.17Z"/><path d="M346.25,190.94v2.17h1.67v1.18h-1.67v5.56a1.24,1.24,0,0,0,.22.81.94.94,0,0,0,.76.27,3.44,3.44,0,0,0,.73-.1v1.23a4.43,4.43,0,0,1-1.18.17,1.9,1.9,0,0,1-1.54-.62,2.64,2.64,0,0,1-.52-1.76v-5.56h-1.64v-1.18h1.64v-2.17Z"/><path d="M349.14,197.5a5.42,5.42,0,0,1,.51-2.37,3.8,3.8,0,0,1,3.55-2.19,3.76,3.76,0,0,1,3,1.27,4.87,4.87,0,0,1,1.13,3.37v.11a5.36,5.36,0,0,1-.5,2.34,3.82,3.82,0,0,1-1.43,1.62,4,4,0,0,1-2.14.58,3.77,3.77,0,0,1-3-1.27,4.85,4.85,0,0,1-1.12-3.35Zm1.53.19a3.84,3.84,0,0,0,.7,2.39,2.22,2.22,0,0,0,1.85.9,2.17,2.17,0,0,0,1.85-.92,4.15,4.15,0,0,0,.69-2.56,3.81,3.81,0,0,0-.7-2.39,2.23,2.23,0,0,0-1.86-.91,2.21,2.21,0,0,0-1.83.9A4.18,4.18,0,0,0,350.67,197.69Z"/><path d="M364.17,202.06v-7.77h-1.42v-1.18h1.42v-.92a3.06,3.06,0,0,1,.76-2.23,2.94,2.94,0,0,1,2.18-.79,4.15,4.15,0,0,1,1.05.14l-.08,1.24a4.33,4.33,0,0,0-.83-.08,1.51,1.51,0,0,0-1.15.44,1.77,1.77,0,0,0-.4,1.25v1h1.91v1.18H365.7v7.77Z"/><path d="M373.63,194.48a4.38,4.38,0,0,0-.75-.06,2,2,0,0,0-2.05,1.29v6.35H369.3v-8.95h1.49l0,1a2.4,2.4,0,0,1,2.14-1.2,1.53,1.53,0,0,1,.68.12Z"/><path d="M378.6,202.23a3.91,3.91,0,0,1-3-1.2,4.43,4.43,0,0,1-1.14-3.2v-.28a5.37,5.37,0,0,1,.51-2.38,4,4,0,0,1,1.42-1.64,3.62,3.62,0,0,1,2-.59,3.33,3.33,0,0,1,2.71,1.15,5,5,0,0,1,1,3.3V198H376a3.17,3.17,0,0,0,.77,2.14,2.44,2.44,0,0,0,1.89.82,2.65,2.65,0,0,0,1.37-.33,3.31,3.31,0,0,0,1-.88l.93.73A3.75,3.75,0,0,1,378.6,202.23Zm-.19-8a2,2,0,0,0-1.56.67,3.31,3.31,0,0,0-.78,1.9h4.49v-.12a2.93,2.93,0,0,0-.63-1.81A1.91,1.91,0,0,0,378.41,194.2Z"/><path d="M387.58,202.23a3.9,3.9,0,0,1-3-1.2,4.43,4.43,0,0,1-1.14-3.2v-.28a5.51,5.51,0,0,1,.5-2.38,4,4,0,0,1,1.43-1.64,3.61,3.61,0,0,1,2-.59,3.35,3.35,0,0,1,2.72,1.15,5,5,0,0,1,1,3.3V198H385a3.17,3.17,0,0,0,.77,2.14,2.43,2.43,0,0,0,1.89.82,2.67,2.67,0,0,0,1.37-.33,3.43,3.43,0,0,0,1-.88l.93.73A3.76,3.76,0,0,1,387.58,202.23Zm-.19-8a2,2,0,0,0-1.56.67,3.38,3.38,0,0,0-.77,1.9h4.48v-.12a2.93,2.93,0,0,0-.62-1.81A1.94,1.94,0,0,0,387.39,194.2Z"/><path d="M392.48,197.51a5.28,5.28,0,0,1,1-3.32,3.32,3.32,0,0,1,5.05-.17v-4.67H400v12.71h-1.41l-.08-1a3.29,3.29,0,0,1-5.09-.15,5.24,5.24,0,0,1-1-3.32Zm1.53.18a4,4,0,0,0,.63,2.38,2,2,0,0,0,1.74.86,2.21,2.21,0,0,0,2.12-1.31v-4.11a2.24,2.24,0,0,0-2.11-1.27,2,2,0,0,0-1.75.87A4.38,4.38,0,0,0,394,197.69Z"/><path d="M402,197.5a5.42,5.42,0,0,1,.51-2.37,3.8,3.8,0,0,1,3.55-2.19,3.76,3.76,0,0,1,3,1.27,4.82,4.82,0,0,1,1.13,3.37v.11a5.22,5.22,0,0,1-.5,2.34,3.82,3.82,0,0,1-1.43,1.62,4,4,0,0,1-2.14.58,3.74,3.74,0,0,1-2.95-1.27,4.8,4.8,0,0,1-1.13-3.35Zm1.54.19a3.83,3.83,0,0,0,.69,2.39,2.22,2.22,0,0,0,1.85.9,2.16,2.16,0,0,0,1.85-.92,4.15,4.15,0,0,0,.69-2.56,3.81,3.81,0,0,0-.7-2.39,2.33,2.33,0,0,0-3.69,0A4.18,4.18,0,0,0,403.55,197.69Z"/><path d="M413.52,193.11l.05,1a3.3,3.3,0,0,1,2.65-1.16,2.56,2.56,0,0,1,2.56,1.44,3.38,3.38,0,0,1,2.86-1.44c2,0,3,1,3,3.12v6h-1.53v-5.91a2,2,0,0,0-.44-1.43,2,2,0,0,0-1.48-.48,2,2,0,0,0-1.41.51,2,2,0,0,0-.66,1.37v5.94h-1.54v-5.87a1.7,1.7,0,0,0-1.91-1.95,2.06,2.06,0,0,0-2.06,1.28v6.54h-1.53v-8.95Z"/><path d="M430.74,197.5a5.28,5.28,0,0,1,.52-2.37,3.79,3.79,0,0,1,1.44-1.62,3.92,3.92,0,0,1,2.11-.57,3.75,3.75,0,0,1,2.95,1.27,4.82,4.82,0,0,1,1.13,3.37v.11a5.22,5.22,0,0,1-.5,2.34,3.82,3.82,0,0,1-1.43,1.62,3.92,3.92,0,0,1-2.14.58,3.75,3.75,0,0,1-2.95-1.27,4.85,4.85,0,0,1-1.13-3.35Zm1.54.19a3.83,3.83,0,0,0,.69,2.39,2.22,2.22,0,0,0,1.85.9,2.19,2.19,0,0,0,1.86-.92,4.21,4.21,0,0,0,.68-2.56,3.81,3.81,0,0,0-.7-2.39,2.2,2.2,0,0,0-1.85-.91,2.22,2.22,0,0,0-1.84.9A4.18,4.18,0,0,0,432.28,197.69Z"/><path d="M441.57,202.06v-7.77h-1.42v-1.18h1.42v-.92a3.07,3.07,0,0,1,.77-2.23,2.93,2.93,0,0,1,2.18-.79,4.21,4.21,0,0,1,1.05.14l-.08,1.24a4.41,4.41,0,0,0-.83-.08,1.49,1.49,0,0,0-1.15.44,1.78,1.78,0,0,0-.41,1.25v1H445v1.18H443.1v7.77Z"/><path d="M456.43,202.06a3,3,0,0,1-.21-.94,3.41,3.41,0,0,1-2.55,1.11,3.19,3.19,0,0,1-2.18-.75,2.43,2.43,0,0,1-.84-1.9,2.52,2.52,0,0,1,1.06-2.17,5,5,0,0,1,3-.78h1.49v-.7a1.72,1.72,0,0,0-.48-1.28,1.91,1.91,0,0,0-1.41-.48,2.22,2.22,0,0,0-1.38.42,1.21,1.21,0,0,0-.55,1h-1.54a2.12,2.12,0,0,1,.48-1.3,3.17,3.17,0,0,1,1.29-1,4.22,4.22,0,0,1,1.79-.37,3.59,3.59,0,0,1,2.43.77,2.85,2.85,0,0,1,.91,2.14V200a5,5,0,0,0,.31,2v.13Zm-2.54-1.16a2.79,2.79,0,0,0,1.37-.37,2.28,2.28,0,0,0,.93-1v-1.84H455c-1.87,0-2.81.55-2.81,1.64a1.39,1.39,0,0,0,.48,1.13A1.84,1.84,0,0,0,453.89,200.9Z"/><path d="M465.34,199.69a1.11,1.11,0,0,0-.47-1,4.72,4.72,0,0,0-1.63-.59,7.07,7.07,0,0,1-1.84-.6,2.51,2.51,0,0,1-1-.82,2,2,0,0,1-.33-1.14,2.33,2.33,0,0,1,.93-1.87,3.63,3.63,0,0,1,2.38-.76,3.7,3.7,0,0,1,2.47.79,2.49,2.49,0,0,1,1,2h-1.54a1.42,1.42,0,0,0-.53-1.09,2,2,0,0,0-1.35-.45,2.12,2.12,0,0,0-1.31.36,1.17,1.17,0,0,0-.47.95.94.94,0,0,0,.44.84,5.24,5.24,0,0,0,1.59.54,8,8,0,0,1,1.85.61,2.76,2.76,0,0,1,1.06.86,2.09,2.09,0,0,1,.34,1.22,2.31,2.31,0,0,1-1,1.93,4,4,0,0,1-2.49.72,4.54,4.54,0,0,1-1.9-.38,3.05,3.05,0,0,1-1.3-1.06,2.6,2.6,0,0,1-.47-1.48h1.54a1.57,1.57,0,0,0,.61,1.22,2.41,2.41,0,0,0,1.52.45,2.52,2.52,0,0,0,1.4-.35A1.09,1.09,0,0,0,465.34,199.69Z"/><path d="M474.09,199.69a1.14,1.14,0,0,0-.47-1,4.8,4.8,0,0,0-1.63-.59,7.16,7.16,0,0,1-1.85-.6,2.65,2.65,0,0,1-1-.82,2,2,0,0,1-.33-1.14,2.32,2.32,0,0,1,.94-1.87,3.61,3.61,0,0,1,2.38-.76,3.72,3.72,0,0,1,2.47.79,2.48,2.48,0,0,1,.94,2H474a1.4,1.4,0,0,0-.54-1.09,2,2,0,0,0-1.34-.45,2.1,2.1,0,0,0-1.31.36,1.15,1.15,0,0,0-.48.95.94.94,0,0,0,.44.84,5.46,5.46,0,0,0,1.59.54,8.26,8.26,0,0,1,1.86.61,2.84,2.84,0,0,1,1.06.86,2.16,2.16,0,0,1,.34,1.22,2.31,2.31,0,0,1-1,1.93,4.05,4.05,0,0,1-2.5.72,4.57,4.57,0,0,1-1.9-.38,3.18,3.18,0,0,1-1.3-1.06,2.59,2.59,0,0,1-.46-1.48H470a1.58,1.58,0,0,0,.62,1.22,2.38,2.38,0,0,0,1.51.45,2.5,2.5,0,0,0,1.4-.35A1.1,1.1,0,0,0,474.09,199.69Z"/><path d="M477.21,197.5a5.28,5.28,0,0,1,.52-2.37,3.79,3.79,0,0,1,1.44-1.62,3.92,3.92,0,0,1,2.11-.57,3.75,3.75,0,0,1,3,1.27,4.82,4.82,0,0,1,1.13,3.37v.11a5.22,5.22,0,0,1-.5,2.34,3.82,3.82,0,0,1-1.43,1.62,3.92,3.92,0,0,1-2.14.58,3.75,3.75,0,0,1-3-1.27,4.85,4.85,0,0,1-1.13-3.35Zm1.54.19a3.83,3.83,0,0,0,.69,2.39,2.22,2.22,0,0,0,1.85.9,2.19,2.19,0,0,0,1.86-.92,4.21,4.21,0,0,0,.68-2.56,3.81,3.81,0,0,0-.7-2.39,2.2,2.2,0,0,0-1.85-.91,2.22,2.22,0,0,0-1.84.9A4.18,4.18,0,0,0,478.75,197.69Z"/><path d="M490.88,201a2.21,2.21,0,0,0,1.43-.5,1.72,1.72,0,0,0,.68-1.24h1.45a2.8,2.8,0,0,1-.53,1.47,3.61,3.61,0,0,1-1.3,1.11,3.86,3.86,0,0,1-1.73.41A3.7,3.7,0,0,1,488,201a4.88,4.88,0,0,1-1.08-3.34v-.26a5.42,5.42,0,0,1,.48-2.33,3.73,3.73,0,0,1,1.38-1.58,3.94,3.94,0,0,1,2.12-.56,3.57,3.57,0,0,1,2.5.9,3.21,3.21,0,0,1,1.07,2.34H493a2.08,2.08,0,0,0-2.12-2,2.15,2.15,0,0,0-1.81.84,3.93,3.93,0,0,0-.64,2.43v.29a3.81,3.81,0,0,0,.64,2.38A2.14,2.14,0,0,0,490.88,201Z"/><path d="M496.17,190.73a.92.92,0,0,1,.23-.63,1,1,0,0,1,1.35,0,.88.88,0,0,1,.23.63.84.84,0,0,1-.23.62.86.86,0,0,1-.68.25.85.85,0,0,1-.67-.25A.88.88,0,0,1,496.17,190.73Zm1.66,11.33h-1.54v-8.95h1.54Z"/><path d="M505.81,202.06a3.22,3.22,0,0,1-.22-.94,3.41,3.41,0,0,1-2.55,1.11,3.15,3.15,0,0,1-2.17-.75,2.41,2.41,0,0,1-.85-1.9,2.52,2.52,0,0,1,1.06-2.17,5,5,0,0,1,3-.78h1.49v-.7a1.72,1.72,0,0,0-.48-1.28,1.94,1.94,0,0,0-1.42-.48,2.21,2.21,0,0,0-1.37.42,1.22,1.22,0,0,0-.56,1H500.2a2.12,2.12,0,0,1,.48-1.3,3.31,3.31,0,0,1,1.29-1,4.22,4.22,0,0,1,1.79-.37,3.59,3.59,0,0,1,2.43.77,2.82,2.82,0,0,1,.91,2.14V200a5,5,0,0,0,.31,2v.13Zm-2.54-1.16a2.75,2.75,0,0,0,1.36-.37,2.36,2.36,0,0,0,.94-1v-1.84h-1.2c-1.88,0-2.82.55-2.82,1.64a1.39,1.39,0,0,0,.48,1.13A1.85,1.85,0,0,0,503.27,200.9Z"/><path d="M511.58,190.94v2.17h1.67v1.18h-1.67v5.56a1.3,1.3,0,0,0,.22.81,1,1,0,0,0,.77.27,3.52,3.52,0,0,0,.73-.1v1.23a4.55,4.55,0,0,1-1.18.17,1.92,1.92,0,0,1-1.55-.62,2.64,2.64,0,0,1-.52-1.76v-5.56h-1.63v-1.18h1.63v-2.17Z"/><path d="M515.05,190.73a.92.92,0,0,1,.23-.63,1,1,0,0,1,1.35,0,.88.88,0,0,1,.23.63.84.84,0,0,1-.23.62.86.86,0,0,1-.68.25.85.85,0,0,1-.67-.25A.88.88,0,0,1,515.05,190.73Zm1.65,11.33h-1.53v-8.95h1.53Z"/><path d="M518.75,197.5a5.28,5.28,0,0,1,.52-2.37,3.79,3.79,0,0,1,1.44-1.62,3.92,3.92,0,0,1,2.11-.57,3.79,3.79,0,0,1,3,1.27,4.87,4.87,0,0,1,1.13,3.37v.11a5.22,5.22,0,0,1-.51,2.34,3.82,3.82,0,0,1-1.43,1.62,3.92,3.92,0,0,1-2.14.58,3.75,3.75,0,0,1-3-1.27,4.85,4.85,0,0,1-1.13-3.35Zm1.54.19a3.83,3.83,0,0,0,.69,2.39,2.22,2.22,0,0,0,1.85.9,2.19,2.19,0,0,0,1.86-.92,4.15,4.15,0,0,0,.69-2.56,3.82,3.82,0,0,0-.71-2.39,2.32,2.32,0,0,0-3.68,0A4.12,4.12,0,0,0,520.29,197.69Z"/><path d="M530.28,193.11l.05,1.12a3.26,3.26,0,0,1,2.68-1.29c1.89,0,2.85,1.07,2.86,3.2v5.92h-1.53v-5.92a2.05,2.05,0,0,0-.44-1.44,1.78,1.78,0,0,0-1.36-.46,2.16,2.16,0,0,0-1.3.4,2.63,2.63,0,0,0-.88,1v6.38h-1.53v-8.95Z"/><path d="M319.73,222.41a3,3,0,0,1-.21-.94,3.45,3.45,0,0,1-2.56,1.11,3.16,3.16,0,0,1-2.17-.75,2.44,2.44,0,0,1-.85-1.9,2.53,2.53,0,0,1,1.07-2.17,5,5,0,0,1,3-.78h1.49v-.7A1.72,1.72,0,0,0,319,215a1.91,1.91,0,0,0-1.41-.48,2.22,2.22,0,0,0-1.38.42,1.21,1.21,0,0,0-.55,1h-1.54a2.1,2.1,0,0,1,.47-1.3,3.42,3.42,0,0,1,1.29-1,4.45,4.45,0,0,1,1.8-.36,3.55,3.55,0,0,1,2.42.77,2.78,2.78,0,0,1,.91,2.13v4.13a5,5,0,0,0,.32,2v.13Zm-2.54-1.16a2.72,2.72,0,0,0,1.36-.37,2.21,2.21,0,0,0,.94-1v-1.83h-1.2c-1.88,0-2.81.55-2.81,1.64a1.37,1.37,0,0,0,.48,1.13A1.84,1.84,0,0,0,317.19,221.25Z"/><path d="M324.88,213.46l0,1.12a3.28,3.28,0,0,1,2.69-1.29c1.89,0,2.85,1.07,2.86,3.2v5.92h-1.53v-5.92a2.1,2.1,0,0,0-.44-1.44,1.78,1.78,0,0,0-1.36-.46,2.16,2.16,0,0,0-1.3.4,2.63,2.63,0,0,0-.88,1v6.38h-1.53v-8.95Z"/><path d="M332.41,217.86a5.29,5.29,0,0,1,1-3.32,3.09,3.09,0,0,1,2.55-1.25,3.13,3.13,0,0,1,2.5,1.08V209.7H340v12.71h-1.41l-.07-1a3.11,3.11,0,0,1-2.56,1.13,3.07,3.07,0,0,1-2.54-1.28,5.32,5.32,0,0,1-1-3.32Zm1.53.17a4,4,0,0,0,.63,2.39,2,2,0,0,0,1.74.86,2.25,2.25,0,0,0,2.13-1.31v-4.11a2.24,2.24,0,0,0-2.11-1.27,2,2,0,0,0-1.76.87A4.37,4.37,0,0,0,333.94,218Z"/><path d="M350.14,221.33a2.22,2.22,0,0,0,1.43-.5,1.72,1.72,0,0,0,.68-1.24h1.45a2.8,2.8,0,0,1-.53,1.47,3.45,3.45,0,0,1-1.31,1.1,4,4,0,0,1-4.63-.8,4.88,4.88,0,0,1-1.08-3.34v-.26a5.42,5.42,0,0,1,.48-2.33,3.73,3.73,0,0,1,1.38-1.58,3.94,3.94,0,0,1,2.12-.56,3.57,3.57,0,0,1,2.5.9,3.21,3.21,0,0,1,1.07,2.34h-1.45a2.07,2.07,0,0,0-.66-1.42,2,2,0,0,0-1.46-.56,2.15,2.15,0,0,0-1.81.84,3.93,3.93,0,0,0-.64,2.43v.29a3.81,3.81,0,0,0,.64,2.38A2.14,2.14,0,0,0,350.14,221.33Z"/><path d="M355,217.85a5.35,5.35,0,0,1,.51-2.37,3.8,3.8,0,0,1,3.55-2.19,3.76,3.76,0,0,1,3,1.27,4.86,4.86,0,0,1,1.13,3.36V218a5.37,5.37,0,0,1-.5,2.35,3.82,3.82,0,0,1-1.43,1.62,4,4,0,0,1-2.14.58,3.77,3.77,0,0,1-3-1.27A4.85,4.85,0,0,1,355,218Zm1.53.18a3.85,3.85,0,0,0,.7,2.4,2.22,2.22,0,0,0,1.85.9,2.17,2.17,0,0,0,1.85-.92,4.15,4.15,0,0,0,.69-2.56,3.81,3.81,0,0,0-.7-2.39,2.23,2.23,0,0,0-1.86-.91,2.21,2.21,0,0,0-1.83.9A4.17,4.17,0,0,0,356.55,218Z"/><path d="M366.76,222.41h-1.53V209.7h1.53Z"/><path d="M370.87,222.41h-1.53V209.7h1.53Z"/><path d="M377,222.58a3.9,3.9,0,0,1-3-1.2,4.41,4.41,0,0,1-1.15-3.2v-.28a5.37,5.37,0,0,1,.51-2.38,4,4,0,0,1,1.43-1.64,3.61,3.61,0,0,1,2-.59,3.35,3.35,0,0,1,2.72,1.15,5,5,0,0,1,1,3.3v.63h-6.06a3.12,3.12,0,0,0,.77,2.14,2.41,2.41,0,0,0,1.88.82,2.71,2.71,0,0,0,1.38-.33,3.4,3.4,0,0,0,1-.88l.94.73A3.77,3.77,0,0,1,377,222.58Zm-.19-8a2,2,0,0,0-1.56.67,3.28,3.28,0,0,0-.78,1.89H379V217a2.87,2.87,0,0,0-.63-1.81A1.9,1.9,0,0,0,376.85,214.55Z"/><path d="M385.9,221.33a2.21,2.21,0,0,0,1.43-.5,1.72,1.72,0,0,0,.68-1.24h1.45a2.8,2.8,0,0,1-.53,1.47,3.5,3.5,0,0,1-1.3,1.1,3.74,3.74,0,0,1-1.73.42,3.7,3.7,0,0,1-2.91-1.22,4.88,4.88,0,0,1-1.08-3.34v-.26a5.42,5.42,0,0,1,.48-2.33,3.73,3.73,0,0,1,1.38-1.58,4,4,0,0,1,2.12-.56,3.57,3.57,0,0,1,2.5.9,3.21,3.21,0,0,1,1.07,2.34H388a2.07,2.07,0,0,0-.66-1.42,2,2,0,0,0-1.46-.56,2.15,2.15,0,0,0-1.81.84,3.93,3.93,0,0,0-.64,2.43v.29a3.81,3.81,0,0,0,.64,2.38A2.14,2.14,0,0,0,385.9,221.33Z"/><path d="M393.26,211.29v2.17h1.67v1.18h-1.67v5.56a1.3,1.3,0,0,0,.22.81,1,1,0,0,0,.77.27,3.52,3.52,0,0,0,.73-.1v1.23a4.55,4.55,0,0,1-1.18.17,1.92,1.92,0,0,1-1.55-.62,2.65,2.65,0,0,1-.52-1.77v-5.55H390.1v-1.18h1.63v-2.17Z"/><path d="M396.73,211.08a.92.92,0,0,1,.23-.63,1,1,0,0,1,1.35,0,.88.88,0,0,1,.23.63.85.85,0,0,1-.23.62.86.86,0,0,1-.68.25.85.85,0,0,1-.67-.25A.9.9,0,0,1,396.73,211.08Zm1.65,11.33h-1.53v-8.95h1.53Z"/><path d="M403.79,220.34l2.22-6.88h1.57l-3.21,8.95H403.2L400,213.46h1.57Z"/><path d="M412.66,222.58a3.9,3.9,0,0,1-3-1.2,4.44,4.44,0,0,1-1.14-3.2v-.28a5.37,5.37,0,0,1,.51-2.38,3.92,3.92,0,0,1,1.42-1.64,3.61,3.61,0,0,1,2-.59,3.35,3.35,0,0,1,2.72,1.15,5,5,0,0,1,1,3.3v.63h-6.07a3.17,3.17,0,0,0,.77,2.14,2.44,2.44,0,0,0,1.89.82,2.65,2.65,0,0,0,1.37-.33,3.43,3.43,0,0,0,1-.88l.93.73A3.76,3.76,0,0,1,412.66,222.58Zm-.19-8a2.07,2.07,0,0,0-1.56.67,3.34,3.34,0,0,0-.77,1.89h4.48V217a2.93,2.93,0,0,0-.62-1.81A1.94,1.94,0,0,0,412.47,214.55Z"/><path d="M429.71,218a5.32,5.32,0,0,1-.94,3.3,3,3,0,0,1-2.54,1.25,3.12,3.12,0,0,1-2.62-1.2l-.07,1h-1.41V209.7h1.53v4.74a3.1,3.1,0,0,1,2.56-1.15,3,3,0,0,1,2.56,1.23,5.51,5.51,0,0,1,.93,3.38Zm-1.53-.17a4.18,4.18,0,0,0-.6-2.42,2,2,0,0,0-1.74-.85,2.25,2.25,0,0,0-2.18,1.41v3.87a2.31,2.31,0,0,0,2.2,1.41,2,2,0,0,0,1.71-.85A4.41,4.41,0,0,0,428.18,217.86Z"/><path d="M437.17,222.41a3,3,0,0,1-.21-.94,3.43,3.43,0,0,1-2.55,1.11,3.17,3.17,0,0,1-2.18-.75,2.44,2.44,0,0,1-.85-1.9,2.53,2.53,0,0,1,1.07-2.17,5,5,0,0,1,3-.78h1.49v-.7a1.72,1.72,0,0,0-.48-1.28,1.91,1.91,0,0,0-1.41-.48,2.22,2.22,0,0,0-1.38.42,1.21,1.21,0,0,0-.55,1h-1.54a2.16,2.16,0,0,1,.47-1.3,3.38,3.38,0,0,1,1.3-1,4.37,4.37,0,0,1,1.79-.36,3.55,3.55,0,0,1,2.42.77,2.78,2.78,0,0,1,.91,2.13v4.13a5,5,0,0,0,.32,2v.13Zm-2.54-1.16a2.79,2.79,0,0,0,1.37-.37,2.24,2.24,0,0,0,.93-1v-1.83h-1.2c-1.87,0-2.81.55-2.81,1.64a1.4,1.4,0,0,0,.48,1.13A1.84,1.84,0,0,0,434.63,221.25Z"/><path d="M445.2,214.83a4.59,4.59,0,0,0-.76-.06,2,2,0,0,0-2,1.28v6.36h-1.54v-8.95h1.49l0,1a2.38,2.38,0,0,1,2.14-1.2,1.56,1.56,0,0,1,.68.12Z"/><path d="M446.08,217.86a5.28,5.28,0,0,1,1-3.33,3.34,3.34,0,0,1,5.13-.08l.07-1h1.4v8.74a3.63,3.63,0,0,1-1,2.74,3.8,3.8,0,0,1-2.77,1,4.71,4.71,0,0,1-1.9-.41,3.3,3.3,0,0,1-1.41-1.14l.79-.92a3,3,0,0,0,2.41,1.22,2.36,2.36,0,0,0,1.75-.63,2.43,2.43,0,0,0,.62-1.77v-.77a3.14,3.14,0,0,1-2.51,1.06,3,3,0,0,1-2.54-1.27A5.51,5.51,0,0,1,446.08,217.86Zm1.54.17a4,4,0,0,0,.62,2.38,2,2,0,0,0,1.74.87,2.24,2.24,0,0,0,2.13-1.32v-4.09a2.27,2.27,0,0,0-2.11-1.28,2,2,0,0,0-1.75.87A4.37,4.37,0,0,0,447.62,218Z"/><path d="M461.49,222.41a3,3,0,0,1-.21-.94,3.45,3.45,0,0,1-2.56,1.11,3.16,3.16,0,0,1-2.17-.75,2.44,2.44,0,0,1-.85-1.9,2.53,2.53,0,0,1,1.07-2.17,5,5,0,0,1,3-.78h1.49v-.7a1.72,1.72,0,0,0-.48-1.28,1.91,1.91,0,0,0-1.41-.48,2.22,2.22,0,0,0-1.38.42,1.21,1.21,0,0,0-.55,1h-1.54a2.1,2.1,0,0,1,.47-1.3,3.42,3.42,0,0,1,1.29-1,4.45,4.45,0,0,1,1.8-.36,3.55,3.55,0,0,1,2.42.77,2.78,2.78,0,0,1,.91,2.13v4.13a5,5,0,0,0,.32,2v.13ZM459,221.25a2.72,2.72,0,0,0,1.36-.37,2.21,2.21,0,0,0,.94-1v-1.83h-1.2c-1.88,0-2.81.55-2.81,1.64a1.37,1.37,0,0,0,.48,1.13A1.84,1.84,0,0,0,459,221.25Z"/><path d="M465.19,211.08a.92.92,0,0,1,.23-.63.87.87,0,0,1,.68-.26.88.88,0,0,1,.68.26.92.92,0,0,1,.23.63.9.9,0,0,1-.23.62.88.88,0,0,1-.68.25.86.86,0,0,1-.68-.25A.9.9,0,0,1,465.19,211.08Zm1.66,11.33h-1.53v-8.95h1.53Z"/><path d="M470.75,213.46l.05,1.12a3.26,3.26,0,0,1,2.68-1.29q2.83,0,2.87,3.2v5.92h-1.53v-5.92a2.1,2.1,0,0,0-.45-1.44,1.77,1.77,0,0,0-1.35-.46,2.19,2.19,0,0,0-1.31.4,2.63,2.63,0,0,0-.88,1v6.38H469.3v-8.95Z"/><path d="M478.66,211.08a.92.92,0,0,1,.23-.63.87.87,0,0,1,.68-.26.88.88,0,0,1,.68.26.92.92,0,0,1,.23.63.9.9,0,0,1-.23.62.88.88,0,0,1-.68.25.86.86,0,0,1-.68-.25A.9.9,0,0,1,478.66,211.08Zm1.66,11.33h-1.53v-8.95h1.53Z"/><path d="M484.22,213.46l0,1.12a3.26,3.26,0,0,1,2.68-1.29q2.83,0,2.87,3.2v5.92h-1.53v-5.92a2.1,2.1,0,0,0-.45-1.44,1.77,1.77,0,0,0-1.35-.46,2.19,2.19,0,0,0-1.31.4,2.63,2.63,0,0,0-.88,1v6.38h-1.53v-8.95Z"/><path d="M491.76,217.86a5.28,5.28,0,0,1,1-3.33,3.34,3.34,0,0,1,5.13-.08l.07-1h1.4v8.74a3.63,3.63,0,0,1-1,2.74,3.8,3.8,0,0,1-2.77,1,4.75,4.75,0,0,1-1.9-.41,3.36,3.36,0,0,1-1.41-1.14l.8-.92a3,3,0,0,0,2.4,1.22,2.36,2.36,0,0,0,1.75-.63,2.43,2.43,0,0,0,.62-1.77v-.77a3.14,3.14,0,0,1-2.51,1.06,3,3,0,0,1-2.54-1.27A5.51,5.51,0,0,1,491.76,217.86Zm1.54.17a4,4,0,0,0,.63,2.38,2,2,0,0,0,1.74.87,2.24,2.24,0,0,0,2.12-1.32v-4.09a2.27,2.27,0,0,0-2.11-1.28,2,2,0,0,0-1.74.87A4.29,4.29,0,0,0,493.3,218Z"/><rect class="cls-7" x="45.17" y="44.18" width="161.64" height="161.64" transform="translate(125.66 -52.47) rotate(45.12)"/><g class="cls-8"><path class="cls-9" d="M125.77,227.67,23.32,124.79,126.2,22.33,228.65,125.21ZM26.49,124.79l99.29,99.71,99.7-99.29L126.19,25.5Zm99.31,89.84L91.6,180.29l26.26-26.15L92.51,128.68l-18.06,18,11.88,11.94,5-4.93-7-7,8.18-8.14L108,154.12,86.68,175.35l-29.89-30L77.3,124.9,56.87,104.39l30-29.9,21.23,21.32-15.57,15.5-8.14-8.18,7-7-4.92-4.94L74.54,103.11l18,18.07L118,95.83,91.83,69.57l34.34-34.2,34.2,34.34L134.11,95.86l25.35,25.46,18.06-18L165.64,91.39l-4.95,4.93,7,7-8.18,8.14L144,95.88l21.31-21.23,29.9,30L174.67,125.1l20.43,20.51-30,29.9-21.22-21.32,15.56-15.5,8.15,8.18-7,7,4.92,4.94,11.93-11.88-18-18.07L134,154.17l26.15,26.26Zm-31-34.33,31,31.16,31.15-31-26.15-26.26,28.64-28.52,21.16,21.24-15.12,15.05-8.09-8.12,7-7-5-5L147,154.2l18.06,18.14,26.84-26.73L171.5,125.09,192,104.67,165.28,77.83,147.15,95.89l12.34,12.39,5-5-7-7,8.13-8.09,15,15.11-21.25,21.16L130.94,95.85,157.19,69.7l-31-31.16L95,69.57l26.15,26.26L92.52,124.35,71.37,103.11l15.11-15,8.09,8.12-7,7,5,5L104.94,95.8,86.88,77.66,60,104.39l20.43,20.52L60,145.33l26.73,26.84,18.13-18.06L92.48,141.72l-5,5,7,7-8.13,8.09-15-15.11,21.24-21.16L121,154.15ZM200,140.69l-15.5-15.57,15.57-15.5,15.5,15.57Zm-12.33-15.56,12.34,12.39,12.39-12.34L200.1,112.79ZM51.86,140.38l-15.5-15.57,15.57-15.5,15.5,15.57ZM39.53,124.82l12.34,12.39,12.39-12.34L51.92,112.48Z"/><path class="cls-9" d="M125.82,204l-24-24.09,24.09-24,24,24.09ZM105,180l20.83,20.91,20.91-20.82-20.83-20.92Z"/><path class="cls-9" d="M126.05,93.37l-24-24.09,24.09-24,24,24.09ZM105.23,69.29,126.06,90.2,147,69.37,126.14,48.46Z"/></g><path class="cls-9" d="M99.4,163.45A4.28,4.28,0,0,1,97,161.56a3.59,3.59,0,0,1,2.25-5.19c.29-.08.58-.12.89-.19V141.86a3.43,3.43,0,0,1-2.85-1.53,5,5,0,0,1-.69-2.31c0-1.83,1.36-3.11,3.53-3.45V120.26c-2.34-.48-3.57-1.75-3.57-3.67s1.22-3.18,3.58-3.68V98.62c-.27-.05-.53-.09-.79-.16a3.59,3.59,0,0,1,.75-7.09c1.59,0,3.19,0,4.83,0V89H102.8c-.89,0-1.43-.46-1.44-1.18s.53-1.21,1.41-1.21q7,0,14,0c.89,0,1.42.46,1.43,1.18s-.53,1.2-1.41,1.21h-2.14v2.4H142c.22,0,.45,0,.67,0a1.2,1.2,0,1,1,0,2.39h-41.9c-1.24,0-1.8.37-1.81,1.19s.57,1.22,1.78,1.22h38.08c.17,0,.35,0,.52,0,.93,0,1.5.47,1.49,1.21s-.58,1.19-1.52,1.19h-36.7V113h28.28a1.2,1.2,0,1,1,0,2.39c-.23,0-.45,0-.68,0H100.85a6.26,6.26,0,0,0-.75,0,1.19,1.19,0,0,0,0,2.38,6.26,6.26,0,0,0,.75,0h27.94c.25,0,.5,0,.75,0a1.2,1.2,0,0,1,0,2.39c-.22,0-.45,0-.67,0H102.61v14.42h30.24c1,0,1.56.42,1.56,1.2s-.54,1.2-1.57,1.2h-32c-.25,0-.5,0-.75,0a1.2,1.2,0,0,0,0,2.39c.25,0,.5,0,.75,0h36.35c1.22,0,1.8.39,1.81,1.19s-.59,1.21-1.8,1.21H102.6v14.36h48v-.78c0-3.25,0-6.51,0-9.76,0-.93.58-1.51,1.36-1.4s1,.59,1,1.42q0,4.84,0,9.69v.85a3.73,3.73,0,0,1,3.15,1.91,3.59,3.59,0,0,1-1.73,5l-.67.3Zm27.19-4.81H100.76a4.67,4.67,0,0,0-.75,0,1.2,1.2,0,0,0,0,2.37,3.72,3.72,0,0,0,.67,0H152.5a3.74,3.74,0,0,0,.67,0,1.2,1.2,0,0,0,0-2.37,4.64,4.64,0,0,0-.75,0ZM107.43,89v2.34h4.68V89Z"/><path class="cls-9" d="M151.83,141.82a19.22,19.22,0,0,1-19.22-19.18,20.21,20.21,0,0,1,1.73-7.33,99.65,99.65,0,0,1,8.89-16.81c2.35-3.72,4.85-7.35,7.31-11,.84-1.25,1.71-1.24,2.57,0a163,163,0,0,1,14.38,23.7,50.31,50.31,0,0,1,3,8c1.31,4.75.18,9.23-2.31,13.37A19.09,19.09,0,0,1,151.83,141.82Zm0-52c-.24.33-.39.52-.53.73-2.1,3.19-4.26,6.35-6.29,9.59a101.47,101.47,0,0,0-8.29,15.53c-1.22,3-2.1,6.07-1.57,9.41a17,17,0,0,0,12.65,13.84,16.77,16.77,0,0,0,17.68-6.58A14.91,14.91,0,0,0,168.44,121a29.42,29.42,0,0,0-2.15-6.68,124,124,0,0,0-10.58-18.71C154.47,93.69,153.19,91.82,151.85,89.84Z"/><path class="cls-9" d="M151.31,137a14.48,14.48,0,0,1-13.9-14.1c0-1,.48-1.55,1.25-1.51s1.11.56,1.16,1.48a11.84,11.84,0,0,0,6.79,10.53,11.24,11.24,0,0,0,4.76,1.19c1.11.05,1.65.43,1.65,1.21S152.43,137,151.31,137Z"/></svg>