<svg id="Layer_1" data-name="Layer 1" xmlns="http://www.w3.org/2000/svg" viewBox="0 0 504.01 277.74"><defs><style>.cls-1{fill:#fff;}.cls-2{opacity:0.2;}.cls-3{fill:#017db9;}.cls-4{fill:none;stroke:#017db9;stroke-miterlimit:10;stroke-width:1.88px;}</style></defs><rect class="cls-1" width="504.01" height="277.74"/><path d="M83.39,33.88h4.19a5.92,5.92,0,0,1,2.66.57A4.33,4.33,0,0,1,92,36.07a4.91,4.91,0,0,1,0,4.85,4.25,4.25,0,0,1-1.79,1.61,5.79,5.79,0,0,1-2.66.58H83.39Zm4.09,7.47a3.09,3.09,0,0,0,2.21-.77,3.06,3.06,0,0,0,0-4.17,3.09,3.09,0,0,0-2.21-.78h-2v5.72Z"/><path d="M94.24,34.7a1.06,1.06,0,0,1-.36-.82,1.08,1.08,0,0,1,.36-.82,1.34,1.34,0,0,1,.92-.32,1.31,1.31,0,0,1,.92.31,1,1,0,0,1,.36.79,1.1,1.1,0,0,1-.36.85,1.25,1.25,0,0,1-.92.34A1.3,1.3,0,0,1,94.24,34.7ZM94.13,36h2.06v7.09H94.13Z"/><path d="M98.76,43a4.58,4.58,0,0,1-1.34-.55L98.1,41a4.2,4.2,0,0,0,1.15.5,5.13,5.13,0,0,0,1.32.19c.87,0,1.3-.22,1.3-.65,0-.2-.12-.34-.36-.43a5.5,5.5,0,0,0-1.09-.23,10.2,10.2,0,0,1-1.44-.3,2.25,2.25,0,0,1-1-.61,1.74,1.74,0,0,1-.41-1.23A2,2,0,0,1,98,37a2.5,2.5,0,0,1,1.13-.81,4.92,4.92,0,0,1,1.76-.29,7,7,0,0,1,1.5.17,4.4,4.4,0,0,1,1.23.45L102.91,38a4.07,4.07,0,0,0-2-.52,2.13,2.13,0,0,0-1,.18.54.54,0,0,0-.33.48.47.47,0,0,0,.36.46,6.9,6.9,0,0,0,1.13.25,10.48,10.48,0,0,1,1.42.31,2.2,2.2,0,0,1,1,.6,1.7,1.7,0,0,1,.4,1.21,1.87,1.87,0,0,1-.39,1.17,2.48,2.48,0,0,1-1.15.8,5.16,5.16,0,0,1-1.8.28A7.13,7.13,0,0,1,98.76,43Z"/><path d="M110.49,36.7a3,3,0,0,1,.88,2.36v4h-1.92v-.89a2.3,2.3,0,0,1-2.16,1,3.43,3.43,0,0,1-1.42-.27,2.19,2.19,0,0,1-.92-.77,2,2,0,0,1-.31-1.1,1.87,1.87,0,0,1,.74-1.56,3.8,3.8,0,0,1,2.3-.57h1.64a1.3,1.3,0,0,0-.41-1,1.81,1.81,0,0,0-1.23-.36,3.78,3.78,0,0,0-1.11.17,2.83,2.83,0,0,0-.93.49l-.74-1.44a4.56,4.56,0,0,1,1.39-.63,6.23,6.23,0,0,1,1.67-.23A3.65,3.65,0,0,1,110.49,36.7Zm-1.75,4.89a1.43,1.43,0,0,0,.58-.72v-.73h-1.41c-.85,0-1.27.28-1.27.83a.74.74,0,0,0,.31.63,1.43,1.43,0,0,0,.85.23A1.85,1.85,0,0,0,108.74,41.59Z"/><path d="M113.89,43a4.58,4.58,0,0,1-1.34-.55l.68-1.48a4.2,4.2,0,0,0,1.15.5,5.13,5.13,0,0,0,1.32.19c.87,0,1.3-.22,1.3-.65a.46.46,0,0,0-.35-.43,5.81,5.81,0,0,0-1.1-.23,9.73,9.73,0,0,1-1.43-.3,2.23,2.23,0,0,1-1-.61,1.74,1.74,0,0,1-.41-1.23,2,2,0,0,1,.39-1.2,2.5,2.5,0,0,1,1.13-.81,4.92,4.92,0,0,1,1.76-.29,7,7,0,0,1,1.5.17,4.4,4.4,0,0,1,1.23.45L118,38a4.07,4.07,0,0,0-2-.52,2.13,2.13,0,0,0-1,.18.54.54,0,0,0-.33.48.47.47,0,0,0,.36.46,7.16,7.16,0,0,0,1.13.25,10.48,10.48,0,0,1,1.42.31,2.2,2.2,0,0,1,1,.6A1.7,1.7,0,0,1,119,41a1.88,1.88,0,0,1-.4,1.17,2.48,2.48,0,0,1-1.15.8,5.16,5.16,0,0,1-1.8.28A7.13,7.13,0,0,1,113.89,43Z"/><path d="M124.8,42.77a2,2,0,0,1-.74.33,3.54,3.54,0,0,1-.93.11,2.77,2.77,0,0,1-2-.64,2.49,2.49,0,0,1-.69-1.9V37.76h-1.09V36.18h1.09V34.45h2.06v1.73h1.76v1.58h-1.76v2.88a1,1,0,0,0,.23.7.85.85,0,0,0,.65.24,1.35,1.35,0,0,0,.83-.26Z"/><path d="M132.65,40.14h-5.37a1.67,1.67,0,0,0,.69,1,2.24,2.24,0,0,0,1.34.39,2.68,2.68,0,0,0,1-.17,2.34,2.34,0,0,0,.8-.52l1.1,1.19a3.7,3.7,0,0,1-2.93,1.14,4.63,4.63,0,0,1-2.12-.46,3.54,3.54,0,0,1-1.43-1.3,3.8,3.8,0,0,1,0-3.77,3.51,3.51,0,0,1,1.35-1.3,4,4,0,0,1,1.93-.47,3.94,3.94,0,0,1,1.89.45,3.36,3.36,0,0,1,1.33,1.29,3.8,3.8,0,0,1,.48,1.94S132.67,39.8,132.65,40.14Zm-4.81-2.28a1.7,1.7,0,0,0-.58,1.08h3.49A1.69,1.69,0,0,0,129,37.47,1.76,1.76,0,0,0,127.84,37.86Z"/><path d="M137,36.18a3.56,3.56,0,0,1,1.44-.27v1.9l-.46,0a1.91,1.91,0,0,0-1.39.5,2,2,0,0,0-.5,1.48v3.35h-2.05V36h2V37A2.27,2.27,0,0,1,137,36.18Z"/><path d="M149.49,43.11l-1.78-2.57h-2v2.57h-2.14V33.88h4a5.14,5.14,0,0,1,2.12.41,3.16,3.16,0,0,1,1.4,1.16,3.22,3.22,0,0,1,.48,1.78,3,3,0,0,1-1.89,2.91l2.06,3ZM149,36a2.21,2.21,0,0,0-1.46-.42h-1.74v3.22h1.74a2.21,2.21,0,0,0,1.46-.42,1.48,1.48,0,0,0,.5-1.19A1.46,1.46,0,0,0,149,36Z"/><path d="M153.26,34.7a1.06,1.06,0,0,1-.36-.82,1.08,1.08,0,0,1,.36-.82,1.52,1.52,0,0,1,1.85,0,1,1,0,0,1,.35.79,1.12,1.12,0,0,1-.35.85,1.29,1.29,0,0,1-.93.34A1.31,1.31,0,0,1,153.26,34.7ZM153.15,36h2.06v7.09h-2.06Z"/><path d="M157.78,43a4.58,4.58,0,0,1-1.34-.55l.68-1.48a4.2,4.2,0,0,0,1.15.5,5.13,5.13,0,0,0,1.32.19c.87,0,1.3-.22,1.3-.65a.46.46,0,0,0-.35-.43,5.81,5.81,0,0,0-1.1-.23,9.73,9.73,0,0,1-1.43-.3,2.23,2.23,0,0,1-1-.61,1.74,1.74,0,0,1-.41-1.23A2,2,0,0,1,157,37a2.5,2.5,0,0,1,1.13-.81,4.92,4.92,0,0,1,1.76-.29,7,7,0,0,1,1.5.17,4.4,4.4,0,0,1,1.23.45L161.93,38a4.07,4.07,0,0,0-2-.52,2.13,2.13,0,0,0-1,.18.54.54,0,0,0-.33.48.47.47,0,0,0,.36.46,7.16,7.16,0,0,0,1.13.25,10.48,10.48,0,0,1,1.42.31,2.2,2.2,0,0,1,1,.6,1.7,1.7,0,0,1,.41,1.21,1.88,1.88,0,0,1-.4,1.17,2.48,2.48,0,0,1-1.15.8,5.16,5.16,0,0,1-1.8.28A7.13,7.13,0,0,1,157.78,43Z"/><path d="M167.17,40.33l-1,1v1.81h-2.06V33.33h2.06v5.53l3-2.84h2.45l-2.95,3,3.22,4.09h-2.49Z"/><path d="M182.57,43.11l-1.78-2.57h-2v2.57h-2.14V33.88h4a5.22,5.22,0,0,1,2.13.41,3.19,3.19,0,0,1,1.39,1.16,3.22,3.22,0,0,1,.48,1.78,3,3,0,0,1-1.89,2.91l2.07,3ZM182,36a2.21,2.21,0,0,0-1.46-.42h-1.74v3.22h1.74a2.21,2.21,0,0,0,1.46-.42,1.45,1.45,0,0,0,.5-1.19A1.43,1.43,0,0,0,182,36Z"/><path d="M193.14,40.14h-5.36a1.66,1.66,0,0,0,.68,1,2.25,2.25,0,0,0,1.35.39,2.72,2.72,0,0,0,1-.17,2.34,2.34,0,0,0,.8-.52l1.09,1.19a3.68,3.68,0,0,1-2.92,1.14,4.7,4.7,0,0,1-2.13-.46,3.51,3.51,0,0,1-1.42-1.3,3.84,3.84,0,0,1,0-3.77,3.54,3.54,0,0,1,1.36-1.3,4,4,0,0,1,1.93-.47,4,4,0,0,1,1.89.45,3.28,3.28,0,0,1,1.32,1.29,3.8,3.8,0,0,1,.48,1.94S193.17,39.8,193.14,40.14Zm-4.81-2.28a1.74,1.74,0,0,0-.58,1.08h3.49a1.71,1.71,0,0,0-.57-1.07,1.74,1.74,0,0,0-1.16-.4A1.8,1.8,0,0,0,188.33,37.86Z"/><path d="M201.78,33.33v9.78h-2v-.82a2.7,2.7,0,0,1-2.21.92,3.76,3.76,0,0,1-1.81-.44,3.28,3.28,0,0,1-1.28-1.28,4,4,0,0,1-.46-1.93,4,4,0,0,1,.46-1.92,3.22,3.22,0,0,1,1.28-1.28,3.65,3.65,0,0,1,1.81-.45,2.71,2.71,0,0,1,2.12.86V33.33ZM199.25,41a2,2,0,0,0,.51-1.43,2,2,0,0,0-.51-1.43,1.86,1.86,0,0,0-2.6,0,2,2,0,0,0-.52,1.43,2,2,0,0,0,.52,1.43,1.83,1.83,0,0,0,2.6,0Z"/><path d="M210.82,36v7.09h-1.95v-.85a2.74,2.74,0,0,1-1,.71,3.09,3.09,0,0,1-1.22.24,3,3,0,0,1-2.22-.8,3.23,3.23,0,0,1-.82-2.39V36h2.06v3.7q0,1.71,1.44,1.71a1.54,1.54,0,0,0,1.18-.48,2,2,0,0,0,.45-1.43V36Z"/><path d="M214.12,42.75a3.61,3.61,0,0,1-1.41-1.3,3.74,3.74,0,0,1,0-3.77,3.47,3.47,0,0,1,1.41-1.3,4.38,4.38,0,0,1,2-.47,3.94,3.94,0,0,1,2,.47,2.74,2.74,0,0,1,1.22,1.34l-1.59.85a1.74,1.74,0,0,0-1.6-1,1.78,1.78,0,0,0-1.33.53,2.21,2.21,0,0,0,0,2.87,1.82,1.82,0,0,0,1.33.53,1.73,1.73,0,0,0,1.6-1l1.59.87a2.83,2.83,0,0,1-1.22,1.32,3.83,3.83,0,0,1-2,.47A4.38,4.38,0,0,1,214.12,42.75Z"/><path d="M225.2,42.77a2,2,0,0,1-.75.33,3.49,3.49,0,0,1-.93.11,2.75,2.75,0,0,1-2-.64,2.45,2.45,0,0,1-.7-1.9V37.76h-1.09V36.18h1.09V34.45h2.06v1.73h1.77v1.58h-1.77v2.88a1,1,0,0,0,.23.7.85.85,0,0,0,.65.24,1.33,1.33,0,0,0,.83-.26Z"/><path d="M226.46,34.7a1.09,1.09,0,0,1-.35-.82,1.1,1.1,0,0,1,.35-.82,1.36,1.36,0,0,1,.93-.32,1.35,1.35,0,0,1,.92.31,1,1,0,0,1,.35.79,1.09,1.09,0,0,1-.35.85,1.28,1.28,0,0,1-.92.34A1.32,1.32,0,0,1,226.46,34.7Zm-.1,1.32h2v7.09h-2Z"/><path d="M231.69,42.75a3.49,3.49,0,0,1-1.89-3.19,3.5,3.5,0,0,1,.5-1.88,3.42,3.42,0,0,1,1.39-1.3,4.51,4.51,0,0,1,4,0,3.48,3.48,0,0,1,1.39,1.3,3.6,3.6,0,0,1-1.39,5.07,4.6,4.6,0,0,1-4,0ZM235,41a2,2,0,0,0,.5-1.43,2,2,0,0,0-.5-1.43,1.73,1.73,0,0,0-1.3-.53,1.77,1.77,0,0,0-1.31.53,2,2,0,0,0-.51,1.43,2,2,0,0,0,.51,1.43,1.74,1.74,0,0,0,1.31.54A1.7,1.7,0,0,0,235,41Z"/><path d="M245.4,36.7a3.15,3.15,0,0,1,.81,2.35v4.06h-2.06V39.37a1.81,1.81,0,0,0-.37-1.26,1.34,1.34,0,0,0-1.07-.42,1.66,1.66,0,0,0-1.24.48A2,2,0,0,0,241,39.6v3.51h-2V36h2v.83a2.64,2.64,0,0,1,1-.69,3.35,3.35,0,0,1,1.33-.25A3,3,0,0,1,245.4,36.7Z"/><path d="M251.94,33.88h2.14v9.23h-2.14Z"/><path d="M262.56,36.7a3.15,3.15,0,0,1,.81,2.35v4.06h-2.06V39.37a1.81,1.81,0,0,0-.37-1.26,1.34,1.34,0,0,0-1.07-.42,1.62,1.62,0,0,0-1.23.48,2,2,0,0,0-.47,1.43v3.51h-2.05V36h2v.83a2.64,2.64,0,0,1,1-.69,3.35,3.35,0,0,1,1.33-.25A3,3,0,0,1,262.56,36.7Z"/><path d="M272.53,33.33v9.78h-2v-.82a2.68,2.68,0,0,1-2.21.92,3.76,3.76,0,0,1-1.81-.44,3.28,3.28,0,0,1-1.28-1.28,4,4,0,0,1-.46-1.93,4,4,0,0,1,.46-1.92,3.22,3.22,0,0,1,1.28-1.28,3.65,3.65,0,0,1,1.81-.45,2.71,2.71,0,0,1,2.12.86V33.33ZM270,41a2,2,0,0,0,.51-1.43,2,2,0,0,0-.51-1.43,1.86,1.86,0,0,0-2.6,0,2,2,0,0,0-.51,1.43A2,2,0,0,0,267.4,41a1.83,1.83,0,0,0,2.6,0Z"/><path d="M281.33,40.14H276a1.62,1.62,0,0,0,.68,1,2.25,2.25,0,0,0,1.35.39,2.72,2.72,0,0,0,1-.17,2.44,2.44,0,0,0,.8-.52l1.09,1.19a3.69,3.69,0,0,1-2.93,1.14,4.66,4.66,0,0,1-2.12-.46,3.45,3.45,0,0,1-1.92-3.19,3.64,3.64,0,0,1,.49-1.88,3.47,3.47,0,0,1,1.36-1.3,4,4,0,0,1,1.93-.47,3.93,3.93,0,0,1,1.88.45,3.24,3.24,0,0,1,1.33,1.29,3.8,3.8,0,0,1,.48,1.94S281.36,39.8,281.33,40.14Zm-4.81-2.28a1.7,1.7,0,0,0-.58,1.08h3.49a1.67,1.67,0,0,0-.58-1.07,1.71,1.71,0,0,0-1.16-.4A1.8,1.8,0,0,0,276.52,37.86Z"/><path d="M287.05,43.11l-1.55-2.18-1.61,2.18h-2.24l2.73-3.57L281.74,36h2.31l1.5,2.07L287.09,36h2.19l-2.64,3.46,2.74,3.63Z"/><path d="M294.56,42.88a12.67,12.67,0,0,1-.43-3.38,12.82,12.82,0,0,1,.43-3.4,9.1,9.1,0,0,1,1.22-2.77h2a11.76,11.76,0,0,0-1.21,3,13.62,13.62,0,0,0,0,6.39,11.76,11.76,0,0,0,1.21,3h-2A9.16,9.16,0,0,1,294.56,42.88Z"/><path d="M307.43,33.88v9.23h-1.75l-4.6-5.6v5.6H299V33.88h1.76l4.59,5.6v-5.6Z"/><path d="M314.86,36.7a3,3,0,0,1,.88,2.36v4h-1.92v-.89a2.3,2.3,0,0,1-2.16,1,3.43,3.43,0,0,1-1.42-.27,2.1,2.1,0,0,1-.91-.77,1.89,1.89,0,0,1-.32-1.1,1.87,1.87,0,0,1,.74-1.56,3.8,3.8,0,0,1,2.3-.57h1.64a1.3,1.3,0,0,0-.41-1,1.81,1.81,0,0,0-1.23-.36,3.83,3.83,0,0,0-1.11.17,2.94,2.94,0,0,0-.93.49l-.74-1.44a4.56,4.56,0,0,1,1.39-.63,6.23,6.23,0,0,1,1.67-.23A3.65,3.65,0,0,1,314.86,36.7Zm-1.75,4.89a1.43,1.43,0,0,0,.58-.72v-.73h-1.41c-.85,0-1.27.28-1.27.83a.76.76,0,0,0,.31.63,1.43,1.43,0,0,0,.85.23A1.83,1.83,0,0,0,313.11,41.59Z"/><path d="M322.18,42.77a2,2,0,0,1-.75.33,3.49,3.49,0,0,1-.93.11,2.75,2.75,0,0,1-1.95-.64,2.45,2.45,0,0,1-.7-1.9V37.76h-1.09V36.18h1.09V34.45h2.06v1.73h1.77v1.58h-1.77v2.88a1,1,0,0,0,.23.7.85.85,0,0,0,.65.24,1.35,1.35,0,0,0,.83-.26Z"/><path d="M323.44,34.7a1.09,1.09,0,0,1-.35-.82,1.1,1.1,0,0,1,.35-.82,1.52,1.52,0,0,1,1.85,0,1,1,0,0,1,.35.79,1.12,1.12,0,0,1-.35.85,1.29,1.29,0,0,1-.93.34A1.31,1.31,0,0,1,323.44,34.7Zm-.1,1.32h2.05v7.09h-2.05Z"/><path d="M328.67,42.75a3.49,3.49,0,0,1-1.89-3.19,3.5,3.5,0,0,1,.5-1.88,3.42,3.42,0,0,1,1.39-1.3,4.51,4.51,0,0,1,4,0,3.48,3.48,0,0,1,1.39,1.3,3.6,3.6,0,0,1-1.39,5.07,4.6,4.6,0,0,1-4,0ZM332,41a2,2,0,0,0,.5-1.43,2,2,0,0,0-.5-1.43,1.73,1.73,0,0,0-1.3-.53,1.77,1.77,0,0,0-1.31.53,2,2,0,0,0-.51,1.43,2,2,0,0,0,.51,1.43,1.74,1.74,0,0,0,1.31.54A1.7,1.7,0,0,0,332,41Z"/><path d="M342.38,36.7a3.15,3.15,0,0,1,.81,2.35v4.06h-2.06V39.37a1.81,1.81,0,0,0-.37-1.26,1.35,1.35,0,0,0-1.07-.42,1.64,1.64,0,0,0-1.24.48A2,2,0,0,0,338,39.6v3.51h-2.05V36h2v.83a2.64,2.64,0,0,1,1-.69,3.35,3.35,0,0,1,1.33-.25A3,3,0,0,1,342.38,36.7Z"/><path d="M350.44,36.7a3,3,0,0,1,.88,2.36v4h-1.93v-.89a2.27,2.27,0,0,1-2.16,1,3.41,3.41,0,0,1-1.41-.27,2.13,2.13,0,0,1-.92-.77,2,2,0,0,1-.32-1.1,1.85,1.85,0,0,1,.75-1.56,3.76,3.76,0,0,1,2.3-.57h1.63a1.27,1.27,0,0,0-.41-1,1.8,1.8,0,0,0-1.22-.36,3.9,3.9,0,0,0-1.12.17,2.94,2.94,0,0,0-.93.49l-.73-1.44a4.45,4.45,0,0,1,1.39-.63,6.16,6.16,0,0,1,1.66-.23A3.68,3.68,0,0,1,350.44,36.7Zm-1.76,4.89a1.38,1.38,0,0,0,.58-.72v-.73h-1.41c-.84,0-1.26.28-1.26.83a.74.74,0,0,0,.31.63,1.41,1.41,0,0,0,.85.23A1.79,1.79,0,0,0,348.68,41.59Z"/><path d="M353.18,33.33h2.05v9.78h-2.05Z"/><path d="M367.09,41.13h-4.28l-.82,2h-2.18l4.11-9.23H366l4.12,9.23h-2.24Zm-.67-1.62L365,36l-1.46,3.53Z"/><path d="M377.64,36l-3,7.09h-2.13l-3-7.09h2.12l2,4.82,2-4.82Z"/><path d="M385.19,40.14h-5.36a1.62,1.62,0,0,0,.68,1,2.25,2.25,0,0,0,1.35.39,2.72,2.72,0,0,0,1-.17,2.44,2.44,0,0,0,.8-.52l1.09,1.19a3.69,3.69,0,0,1-2.93,1.14,4.66,4.66,0,0,1-2.12-.46,3.45,3.45,0,0,1-1.92-3.19,3.64,3.64,0,0,1,.49-1.88,3.47,3.47,0,0,1,1.36-1.3,4.2,4.2,0,0,1,3.82,0,3.28,3.28,0,0,1,1.32,1.29,3.8,3.8,0,0,1,.48,1.94S385.22,39.8,385.19,40.14Zm-4.81-2.28a1.7,1.7,0,0,0-.58,1.08h3.49a1.67,1.67,0,0,0-.58-1.07,1.71,1.71,0,0,0-1.16-.4A1.8,1.8,0,0,0,380.38,37.86Z"/><path d="M389.56,36.18a3.63,3.63,0,0,1,1.44-.27v1.9l-.46,0a1.87,1.87,0,0,0-1.38.5,2,2,0,0,0-.5,1.48v3.35H386.6V36h2V37A2.19,2.19,0,0,1,389.56,36.18Z"/><path d="M397.58,36.7a3,3,0,0,1,.88,2.36v4h-1.92v-.89a2.3,2.3,0,0,1-2.16,1,3.43,3.43,0,0,1-1.42-.27,2.19,2.19,0,0,1-.92-.77,2,2,0,0,1-.31-1.1,1.87,1.87,0,0,1,.74-1.56,3.8,3.8,0,0,1,2.3-.57h1.64a1.3,1.3,0,0,0-.41-1,1.81,1.81,0,0,0-1.23-.36,3.83,3.83,0,0,0-1.11.17,2.74,2.74,0,0,0-.93.49L392,36.77a4.56,4.56,0,0,1,1.39-.63,6.23,6.23,0,0,1,1.67-.23A3.65,3.65,0,0,1,397.58,36.7Zm-1.75,4.89a1.43,1.43,0,0,0,.58-.72v-.73H395c-.85,0-1.27.28-1.27.83a.76.76,0,0,0,.31.63,1.43,1.43,0,0,0,.85.23A1.83,1.83,0,0,0,395.83,41.59Z"/><path d="M407.72,36v5.9a3.78,3.78,0,0,1-1,2.9,4.19,4.19,0,0,1-3,1,7.36,7.36,0,0,1-2-.25,4.38,4.38,0,0,1-1.52-.72l.81-1.48a3.4,3.4,0,0,0,1.14.59,4.6,4.6,0,0,0,1.37.21,2.22,2.22,0,0,0,1.57-.48,1.9,1.9,0,0,0,.51-1.45v-.31a2.88,2.88,0,0,1-2.24.89,3.85,3.85,0,0,1-1.79-.43,3.24,3.24,0,0,1-1.28-1.21,3.58,3.58,0,0,1,0-3.58,3.24,3.24,0,0,1,1.28-1.21,3.73,3.73,0,0,1,1.79-.43,2.82,2.82,0,0,1,2.35,1V36Zm-2.55,4.58a1.79,1.79,0,0,0,0-2.52,2.12,2.12,0,0,0-2.69,0,1.79,1.79,0,0,0,0,2.52,2.12,2.12,0,0,0,2.69,0Z"/><path d="M416.53,40.14h-5.36a1.64,1.64,0,0,0,.69,1,2.21,2.21,0,0,0,1.34.39,2.68,2.68,0,0,0,1-.17,2.34,2.34,0,0,0,.8-.52l1.09,1.19a3.68,3.68,0,0,1-2.92,1.14,4.63,4.63,0,0,1-2.12-.46,3.54,3.54,0,0,1-1.43-1.3,3.63,3.63,0,0,1-.5-1.89,3.74,3.74,0,0,1,.49-1.88,3.54,3.54,0,0,1,1.36-1.3,4,4,0,0,1,1.93-.47,3.94,3.94,0,0,1,1.89.45,3.28,3.28,0,0,1,1.32,1.29,3.8,3.8,0,0,1,.48,1.94S416.56,39.8,416.53,40.14Zm-4.81-2.28a1.74,1.74,0,0,0-.58,1.08h3.5a1.72,1.72,0,0,0-.58-1.07,1.74,1.74,0,0,0-1.16-.4A1.8,1.8,0,0,0,411.72,37.86Z"/><path d="M417.13,45.66a12.17,12.17,0,0,0,1.22-3,13.62,13.62,0,0,0,0-6.39,12.17,12.17,0,0,0-1.22-3h2a8.71,8.71,0,0,1,1.23,2.76,12.84,12.84,0,0,1,.43,3.41,13.12,13.12,0,0,1-.42,3.39,8.76,8.76,0,0,1-1.24,2.77Z"/><path d="M77.36,248.8H73.62v-.56l1.9-2.26a6.13,6.13,0,0,0,.68-1,1.64,1.64,0,0,0,.18-.73,1,1,0,0,0-.24-.69.91.91,0,0,0-.68-.26,1,1,0,0,0-.81.32,1.2,1.2,0,0,0-.28.82h-.79v0a1.56,1.56,0,0,1,.49-1.24,1.87,1.87,0,0,1,1.39-.51,1.74,1.74,0,0,1,1.27.44,1.53,1.53,0,0,1,.46,1.16,1.82,1.82,0,0,1-.26.93,10,10,0,0,1-.8,1.14l-1.52,1.78v0h2.74Z"/><path d="M82.08,246.67a2.42,2.42,0,0,1-.52,1.62,1.78,1.78,0,0,1-1.4.59,1.76,1.76,0,0,1-1.39-.59,2.38,2.38,0,0,1-.53-1.62V244.9a2.42,2.42,0,0,1,.52-1.62,1.94,1.94,0,0,1,2.79,0,2.38,2.38,0,0,1,.53,1.62Zm-.82-1.94a1.62,1.62,0,0,0-.29-1,1.08,1.08,0,0,0-1.63,0,1.68,1.68,0,0,0-.28,1v2.1a1.65,1.65,0,0,0,.29,1,1,1,0,0,0,.81.38,1,1,0,0,0,.82-.38,1.71,1.71,0,0,0,.28-1Z"/><path d="M85.48,248.8h-.82v-5.28l-1.31,0v-.63l2.13-.22Z"/><path d="M88,246.12l.35-3.35h3v.73H89.07l-.19,1.73a1.64,1.64,0,0,1,.43-.24,1.79,1.79,0,0,1,.54-.1,1.66,1.66,0,0,1,1.31.53,2.13,2.13,0,0,1,.47,1.46,2.07,2.07,0,0,1-.49,1.45,1.76,1.76,0,0,1-1.41.55,2,2,0,0,1-1.28-.42,1.43,1.43,0,0,1-.49-1.22v0h.74A1,1,0,0,0,89,248a1,1,0,0,0,.74.28,1,1,0,0,0,.8-.37,1.57,1.57,0,0,0,.28-1,1.45,1.45,0,0,0-.28-.93,1,1,0,0,0-.8-.35,1.36,1.36,0,0,0-.7.14.9.9,0,0,0-.32.45Z"/><path d="M133.85,248.8h-3.74v-.56L132,246a5.7,5.7,0,0,0,.69-1,1.64,1.64,0,0,0,.18-.73,1,1,0,0,0-.25-.69.87.87,0,0,0-.67-.26,1,1,0,0,0-.81.32,1.2,1.2,0,0,0-.28.82h-.79v0a1.63,1.63,0,0,1,.49-1.24,1.91,1.91,0,0,1,1.4-.51,1.74,1.74,0,0,1,1.27.44,1.53,1.53,0,0,1,.46,1.16,1.93,1.93,0,0,1-.26.93,11.49,11.49,0,0,1-.8,1.14l-1.52,1.78v0h2.74Z"/><path d="M138.56,246.67a2.42,2.42,0,0,1-.51,1.62,2,2,0,0,1-2.8,0,2.37,2.37,0,0,1-.52-1.62V244.9a2.37,2.37,0,0,1,.52-1.62,1.94,1.94,0,0,1,2.79,0,2.37,2.37,0,0,1,.52,1.62Zm-.81-1.94a1.68,1.68,0,0,0-.29-1,1,1,0,0,0-.82-.37,1,1,0,0,0-.81.37,1.68,1.68,0,0,0-.29,1v2.1a1.65,1.65,0,0,0,.3,1,1.05,1.05,0,0,0,1.62,0,1.71,1.71,0,0,0,.29-1Z"/><path d="M142,248.8h-.82v-5.28l-1.31,0v-.63l2.13-.22Z"/><path d="M146.45,242.69a3.35,3.35,0,0,1,.71.07,2.28,2.28,0,0,1,.57.17l-.17.63a2.67,2.67,0,0,0-.5-.17,2.74,2.74,0,0,0-.61-.06,1.11,1.11,0,0,0-.92.48,2.06,2.06,0,0,0-.35,1.23v.46a1.73,1.73,0,0,1,.6-.39,1.81,1.81,0,0,1,.74-.15,1.53,1.53,0,0,1,1.23.52,2,2,0,0,1,.45,1.37,2.14,2.14,0,0,1-.5,1.48,1.77,1.77,0,0,1-1.37.55,1.81,1.81,0,0,1-1.4-.63,2.56,2.56,0,0,1-.56-1.74v-1.38a2.56,2.56,0,0,1,.6-1.75A1.9,1.9,0,0,1,146.45,242.69Zm-.19,2.88a1.24,1.24,0,0,0-.66.16,1.18,1.18,0,0,0-.42.44v.42a2,2,0,0,0,.33,1.21,1,1,0,0,0,.82.45.89.89,0,0,0,.78-.39,1.68,1.68,0,0,0,.28-1,1.37,1.37,0,0,0-.3-.93A1,1,0,0,0,146.26,245.57Z"/><path d="M190.34,248.8H186.6v-.56l1.89-2.26a5.52,5.52,0,0,0,.68-1,1.64,1.64,0,0,0,.18-.73,1,1,0,0,0-.24-.69.89.89,0,0,0-.67-.26,1,1,0,0,0-.82.32,1.25,1.25,0,0,0-.28.82h-.78v0a1.63,1.63,0,0,1,.49-1.24,1.9,1.9,0,0,1,1.4-.51,1.75,1.75,0,0,1,1.27.44,1.57,1.57,0,0,1,.46,1.16,1.93,1.93,0,0,1-.26.93,13.49,13.49,0,0,1-.8,1.14l-1.52,1.78v0h2.74Z"/><path d="M195.05,246.67a2.37,2.37,0,0,1-.52,1.62,1.76,1.76,0,0,1-1.39.59,1.78,1.78,0,0,1-1.4-.59,2.37,2.37,0,0,1-.52-1.62V244.9a2.37,2.37,0,0,1,.52-1.62,1.73,1.73,0,0,1,1.39-.59,1.76,1.76,0,0,1,1.4.59,2.37,2.37,0,0,1,.52,1.62Zm-.81-1.94a1.68,1.68,0,0,0-.29-1,1,1,0,0,0-.82-.37,1,1,0,0,0-.81.37,1.68,1.68,0,0,0-.29,1v2.1a1.71,1.71,0,0,0,.29,1,1,1,0,0,0,.82.38,1,1,0,0,0,.81-.38,1.71,1.71,0,0,0,.29-1Z"/><path d="M198.46,248.8h-.82v-5.28l-1.31,0v-.63l2.13-.22Z"/><path d="M204.69,243.41a9.24,9.24,0,0,0-1.55,2.4,6.58,6.58,0,0,0-.4,2.33v.66h-.81v-.66a5.76,5.76,0,0,1,.5-2.46,10.71,10.71,0,0,1,1.45-2.27h-3.19v-.64h4Z"/><path d="M246.83,248.8h-3.74v-.56L245,246a6.13,6.13,0,0,0,.68-1,1.64,1.64,0,0,0,.18-.73,1,1,0,0,0-.24-.69.91.91,0,0,0-.68-.26,1,1,0,0,0-.81.32,1.2,1.2,0,0,0-.28.82H243v0a1.59,1.59,0,0,1,.49-1.24,1.89,1.89,0,0,1,1.39-.51,1.74,1.74,0,0,1,1.27.44,1.54,1.54,0,0,1,.47,1.16,1.84,1.84,0,0,1-.27.93,10,10,0,0,1-.8,1.14l-1.52,1.78v0h2.75Z"/><path d="M251.54,246.67a2.37,2.37,0,0,1-.52,1.62,1.94,1.94,0,0,1-2.79,0,2.38,2.38,0,0,1-.53-1.62V244.9a2.42,2.42,0,0,1,.52-1.62,2,2,0,0,1,2.8,0,2.42,2.42,0,0,1,.52,1.62Zm-.82-1.94a1.62,1.62,0,0,0-.29-1,1.08,1.08,0,0,0-1.63,0,1.68,1.68,0,0,0-.28,1v2.1a1.71,1.71,0,0,0,.29,1,1,1,0,0,0,.81.38,1,1,0,0,0,.82-.38,1.71,1.71,0,0,0,.28-1Z"/><path d="M254.94,248.8h-.82v-5.28l-1.31,0v-.63l2.13-.22Z"/><path d="M261,244.31a1.32,1.32,0,0,1-.26.83,1.64,1.64,0,0,1-.7.54,1.7,1.7,0,0,1,.82.56,1.39,1.39,0,0,1,.31.9,1.6,1.6,0,0,1-.54,1.29,2.08,2.08,0,0,1-1.38.45,2.21,2.21,0,0,1-1.44-.45,1.55,1.55,0,0,1-.56-1.29,1.39,1.39,0,0,1,.31-.9,1.86,1.86,0,0,1,.86-.57,1.53,1.53,0,0,1-.73-.53,1.33,1.33,0,0,1-.27-.83,1.5,1.5,0,0,1,.5-1.21,2,2,0,0,1,1.33-.41,1.93,1.93,0,0,1,1.26.41A1.52,1.52,0,0,1,261,244.31Zm-.64,2.81a1.13,1.13,0,0,0-.32-.81,1.09,1.09,0,0,0-.79-.31,1.17,1.17,0,0,0-.85.31,1.07,1.07,0,0,0-.34.81,1,1,0,0,0,.34.82,1.22,1.22,0,0,0,.85.31,1.08,1.08,0,0,0,1.11-1.13Zm-.17-2.8a1,1,0,0,0-.27-.71.89.89,0,0,0-.67-.28,1,1,0,0,0-.73.27,1,1,0,0,0-.29.72,1,1,0,0,0,1,1,.88.88,0,0,0,.67-.28A1,1,0,0,0,260.14,244.32Z"/><path d="M303.31,248.8h-3.74v-.56l1.89-2.26a5.7,5.7,0,0,0,.69-1,1.64,1.64,0,0,0,.18-.73,1,1,0,0,0-.25-.69.87.87,0,0,0-.67-.26,1,1,0,0,0-.81.32,1.2,1.2,0,0,0-.28.82h-.79v0a1.6,1.6,0,0,1,.5-1.24,1.87,1.87,0,0,1,1.39-.51,1.74,1.74,0,0,1,1.27.44,1.53,1.53,0,0,1,.46,1.16,1.82,1.82,0,0,1-.26.93,10,10,0,0,1-.8,1.14l-1.52,1.78v0h2.74Z"/><path d="M308,246.67a2.42,2.42,0,0,1-.52,1.62,2,2,0,0,1-2.8,0,2.42,2.42,0,0,1-.52-1.62V244.9a2.37,2.37,0,0,1,.52-1.62,1.94,1.94,0,0,1,2.79,0,2.38,2.38,0,0,1,.53,1.62Zm-.82-1.94a1.68,1.68,0,0,0-.29-1,1,1,0,0,0-.82-.37,1,1,0,0,0-.81.37,1.68,1.68,0,0,0-.28,1v2.1a1.65,1.65,0,0,0,.29,1,1,1,0,0,0,.81.38,1,1,0,0,0,.82-.38,1.71,1.71,0,0,0,.28-1Z"/><path d="M311.43,248.8h-.82v-5.28l-1.31,0v-.63l2.13-.22Z"/><path d="M315.34,248.25a1.2,1.2,0,0,0,.94-.41,1.62,1.62,0,0,0,.37-1.15v-.51a1.4,1.4,0,0,1-.5.44,1.37,1.37,0,0,1-.64.15,1.8,1.8,0,0,1-1.37-.53,2.45,2.45,0,0,1,0-3,1.71,1.71,0,0,1,1.3-.57,1.91,1.91,0,0,1,1.45.56,2.23,2.23,0,0,1,.55,1.6v1.83a2.16,2.16,0,0,1-.6,1.62,2.1,2.1,0,0,1-1.53.58,3.77,3.77,0,0,1-.66-.06,3,3,0,0,1-.62-.2l.13-.62a2.42,2.42,0,0,0,.53.19A2.83,2.83,0,0,0,315.34,248.25Zm.17-2.12a1.23,1.23,0,0,0,.71-.19,1.09,1.09,0,0,0,.43-.5v-.71a1.56,1.56,0,0,0-.31-1,1,1,0,0,0-.84-.36.89.89,0,0,0-.74.39,1.66,1.66,0,0,0-.3,1,1.62,1.62,0,0,0,.28,1A.87.87,0,0,0,315.51,246.13Z"/><path d="M359.8,248.8h-3.74v-.56L358,246a5.7,5.7,0,0,0,.69-1,1.64,1.64,0,0,0,.18-.73,1,1,0,0,0-.25-.69.89.89,0,0,0-.67-.26,1,1,0,0,0-.82.32,1.25,1.25,0,0,0-.28.82H356v0a1.63,1.63,0,0,1,.49-1.24,1.9,1.9,0,0,1,1.4-.51,1.74,1.74,0,0,1,1.27.44,1.53,1.53,0,0,1,.46,1.16,1.93,1.93,0,0,1-.26.93,11.49,11.49,0,0,1-.8,1.14l-1.52,1.78v0h2.74Z"/><path d="M364.51,246.67a2.37,2.37,0,0,1-.52,1.62,1.76,1.76,0,0,1-1.39.59,1.8,1.8,0,0,1-1.4-.59,2.37,2.37,0,0,1-.52-1.62V244.9a2.37,2.37,0,0,1,.52-1.62,1.73,1.73,0,0,1,1.39-.59,1.76,1.76,0,0,1,1.4.59,2.37,2.37,0,0,1,.52,1.62Zm-.81-1.94a1.68,1.68,0,0,0-.29-1,1,1,0,0,0-.82-.37,1,1,0,0,0-.81.37,1.68,1.68,0,0,0-.29,1v2.1a1.71,1.71,0,0,0,.29,1,1,1,0,0,0,.82.38,1,1,0,0,0,.81-.38,1.71,1.71,0,0,0,.29-1Z"/><path d="M369.34,248.8H365.6v-.56l1.89-2.26a5.7,5.7,0,0,0,.69-1,1.64,1.64,0,0,0,.18-.73,1,1,0,0,0-.25-.69.89.89,0,0,0-.67-.26,1,1,0,0,0-.81.32,1.2,1.2,0,0,0-.28.82h-.79v0a1.63,1.63,0,0,1,.49-1.24,1.9,1.9,0,0,1,1.4-.51,1.75,1.75,0,0,1,1.27.44,1.53,1.53,0,0,1,.46,1.16,1.93,1.93,0,0,1-.26.93,11.49,11.49,0,0,1-.8,1.14l-1.52,1.78v0h2.74Z"/><path d="M374.05,246.67a2.37,2.37,0,0,1-.52,1.62,1.76,1.76,0,0,1-1.39.59,1.78,1.78,0,0,1-1.4-.59,2.37,2.37,0,0,1-.52-1.62V244.9a2.37,2.37,0,0,1,.52-1.62,1.73,1.73,0,0,1,1.39-.59,1.76,1.76,0,0,1,1.4.59,2.37,2.37,0,0,1,.52,1.62Zm-.81-1.94a1.68,1.68,0,0,0-.29-1,1,1,0,0,0-.82-.37,1,1,0,0,0-.81.37,1.68,1.68,0,0,0-.29,1v2.1a1.71,1.71,0,0,0,.29,1,1,1,0,0,0,.82.38,1,1,0,0,0,.81-.38,1.71,1.71,0,0,0,.29-1Z"/><path d="M416.29,248.8h-3.74v-.56l1.89-2.26a6.13,6.13,0,0,0,.68-1,1.64,1.64,0,0,0,.18-.73,1,1,0,0,0-.24-.69.91.91,0,0,0-.68-.26,1,1,0,0,0-.81.32,1.25,1.25,0,0,0-.28.82h-.78v0a1.59,1.59,0,0,1,.49-1.24,1.89,1.89,0,0,1,1.39-.51,1.72,1.72,0,0,1,1.27.44,1.54,1.54,0,0,1,.47,1.16,1.84,1.84,0,0,1-.27.93,10,10,0,0,1-.8,1.14l-1.51,1.78v0h2.74Z"/><path d="M421,246.67a2.37,2.37,0,0,1-.52,1.62,1.94,1.94,0,0,1-2.79,0,2.38,2.38,0,0,1-.53-1.62V244.9a2.42,2.42,0,0,1,.52-1.62,2,2,0,0,1,2.8,0,2.42,2.42,0,0,1,.52,1.62Zm-.82-1.94a1.62,1.62,0,0,0-.29-1,1,1,0,0,0-.81-.37.93.93,0,0,0-.81.37,1.62,1.62,0,0,0-.29,1v2.1a1.71,1.71,0,0,0,.29,1,1,1,0,0,0,.81.38,1,1,0,0,0,.82-.38,1.71,1.71,0,0,0,.28-1Z"/><path d="M425.83,248.8h-3.74v-.56L424,246a6.13,6.13,0,0,0,.68-1,1.64,1.64,0,0,0,.18-.73,1,1,0,0,0-.24-.69.9.9,0,0,0-.68-.26,1,1,0,0,0-.81.32,1.2,1.2,0,0,0-.28.82h-.78v0a1.59,1.59,0,0,1,.49-1.24,1.89,1.89,0,0,1,1.39-.51,1.74,1.74,0,0,1,1.27.44,1.54,1.54,0,0,1,.47,1.16,1.93,1.93,0,0,1-.26.93,11.88,11.88,0,0,1-.81,1.14l-1.51,1.78v0h2.75Z"/><path d="M429.17,248.8h-.82v-5.28l-1.31,0v-.63l2.13-.22Z"/><g class="cls-2"><rect x="65.65" y="94.48" width="372.71" height="0.44"/></g><g class="cls-2"><rect x="65.65" y="70.94" width="372.71" height="0.44"/></g><g class="cls-2"><rect x="65.65" y="118.03" width="372.71" height="0.44"/></g><g class="cls-2"><rect x="65.65" y="141.89" width="372.71" height="0.44"/></g><g class="cls-2"><rect x="65.65" y="164.87" width="372.71" height="0.44"/></g><g class="cls-2"><rect x="65.65" y="188.51" width="372.71" height="0.44"/></g><g class="cls-2"><rect x="65.65" y="212.05" width="372.71" height="0.44"/></g><g class="cls-2"><rect x="65.65" y="235.59" width="372.71" height="0.44"/></g><circle class="cls-3" cx="139.03" cy="113.03" r="3.52"/><circle class="cls-3" cx="195.52" cy="123.3" r="3.52"/><circle class="cls-3" cx="250.94" cy="139.76" r="3.52"/><circle class="cls-3" cx="308.49" cy="149.53" r="3.52"/><circle class="cls-3" cx="364.98" cy="161.79" r="3.52"/><polyline class="cls-4" points="82.55 87.51 139.03 113.1 195.52 123.29 250.43 139.73 308.49 149.68 364.98 162.26 421.47 174.48"/><path class="cls-3" d="M81.08,90.73A3.54,3.54,0,1,1,85.77,89,3.53,3.53,0,0,1,81.08,90.73Z"/><path class="cls-3" d="M420.72,177.94a3.54,3.54,0,1,0-2.71-4.21A3.55,3.55,0,0,0,420.72,177.94Z"/><path d="M76.45,75.34v5.28H75.23v-4.3h-1v-1Z"/><path d="M80.82,77.77A1.44,1.44,0,0,1,81.35,79a1.61,1.61,0,0,1-1,1.51,2.76,2.76,0,0,1-1.22.24,4,4,0,0,1-1.09-.15,2.89,2.89,0,0,1-.92-.42l.48-.93a2.55,2.55,0,0,0,.7.35,2.72,2.72,0,0,0,.8.12,1.29,1.29,0,0,0,.73-.18.59.59,0,0,0,.26-.5.57.57,0,0,0-.28-.52,2,2,0,0,0-1-.17H77.54l.28-3H81v1h-2.2l-.08,1h.43A2.49,2.49,0,0,1,80.82,77.77Z"/><path d="M83.89,75.34v5.28H82.67v-4.3H81.61v-1Z"/><path d="M85,80.47a.74.74,0,0,1-.21-.53.71.71,0,0,1,.21-.53.73.73,0,0,1,.52-.2.75.75,0,0,1,.52.2.71.71,0,0,1,.21.53.74.74,0,0,1-.21.53.72.72,0,0,1-.52.21A.7.7,0,0,1,85,80.47Z"/><path d="M90.23,77.77A1.47,1.47,0,0,1,90.76,79a1.61,1.61,0,0,1-1,1.51,2.79,2.79,0,0,1-1.22.24,4.11,4.11,0,0,1-1.1-.15,2.84,2.84,0,0,1-.91-.42l.48-.93a2.49,2.49,0,0,0,.69.35,2.79,2.79,0,0,0,.81.12,1.24,1.24,0,0,0,.72-.18.61.61,0,0,0,0-1,2,2,0,0,0-1-.17H87l.27-3h3.22v1h-2.2l-.08,1h.42A2.5,2.5,0,0,1,90.23,77.77Z"/><path d="M131.67,100v5.27h-1.22V101h-1v-1Z"/><path d="M137.42,104.16h-.86v1.11h-1.19v-1.11h-2.84v-.82L135,100h1.28l-2.3,3.17h1.41v-1h1.16v1h.86Z"/><path d="M141.22,102.42a1.48,1.48,0,0,1,.53,1.19,1.69,1.69,0,0,1-.24.88,1.78,1.78,0,0,1-.74.63,2.76,2.76,0,0,1-1.22.24,4,4,0,0,1-1.09-.15,3,3,0,0,1-.92-.42l.49-.93a2.24,2.24,0,0,0,.69.35,2.74,2.74,0,0,0,.81.12,1.28,1.28,0,0,0,.72-.18.59.59,0,0,0,.26-.5.56.56,0,0,0-.27-.51,1.86,1.86,0,0,0-1-.18h-1.34l.27-3h3.21v1h-2.2l-.08,1h.43A2.54,2.54,0,0,1,141.22,102.42Z"/><path d="M142.42,105.12a.72.72,0,0,1-.21-.53.67.67,0,0,1,.21-.52.69.69,0,0,1,.52-.2.71.71,0,0,1,.52.2.67.67,0,0,1,.21.52.72.72,0,0,1-.73.74A.7.7,0,0,1,142.42,105.12Z"/><path d="M147.8,100.58a2.75,2.75,0,0,1,.63,1.94,3.26,3.26,0,0,1-.34,1.53,2.28,2.28,0,0,1-.94,1,2.94,2.94,0,0,1-1.41.33,3.1,3.1,0,0,1-.81-.1,2.26,2.26,0,0,1-.65-.26l.45-.9a1.66,1.66,0,0,0,1,.26,1.44,1.44,0,0,0,1.06-.39,1.68,1.68,0,0,0,.42-1.14,1.79,1.79,0,0,1-1.31.47,2.14,2.14,0,0,1-.92-.2,1.59,1.59,0,0,1-.65-.58,1.47,1.47,0,0,1-.25-.86,1.64,1.64,0,0,1,.27-.93,1.66,1.66,0,0,1,.72-.61,2.37,2.37,0,0,1,1-.21A2.22,2.22,0,0,1,147.8,100.58Zm-1,1.59a.72.72,0,0,0,.25-.57.75.75,0,0,0-.24-.57,1,1,0,0,0-.67-.21.93.93,0,0,0-.64.21.73.73,0,0,0-.25.57.76.76,0,0,0,.25.58,1,1,0,0,0,.65.21A.93.93,0,0,0,146.81,102.17Z"/><path d="M187.86,110.51v5.27h-1.22v-4.29h-1.06v-1Z"/><path d="M193.61,114.68h-.86v1.1h-1.19v-1.1h-2.84v-.83l2.48-3.34h1.28l-2.3,3.17h1.41v-1h1.16v1h.86Z"/><path d="M198.79,114.68h-.85v1.1h-1.19v-1.1h-2.84v-.83l2.48-3.34h1.28l-2.3,3.17h1.41v-1h1.16v1h.85Z"/><path d="M199.48,115.63a.71.71,0,0,1-.21-.53.69.69,0,0,1,.21-.52.73.73,0,0,1,.52-.2.75.75,0,0,1,.52.2.69.69,0,0,1,.21.52.71.71,0,0,1-.21.53.72.72,0,0,1-.52.21A.7.7,0,0,1,199.48,115.63Z"/><path d="M205.29,114.79v1h-4V115l2-1.92a1.87,1.87,0,0,0,.44-.53,1.06,1.06,0,0,0,.11-.44.61.61,0,0,0-.21-.49,1,1,0,0,0-.63-.17,1.46,1.46,0,0,0-.63.14,1.15,1.15,0,0,0-.46.39l-.89-.57a2.07,2.07,0,0,1,.85-.72,2.89,2.89,0,0,1,1.24-.26,2.53,2.53,0,0,1,1,.19,1.7,1.7,0,0,1,.69.54,1.45,1.45,0,0,1,.24.83,1.84,1.84,0,0,1-.18.8,2.9,2.9,0,0,1-.7.86L203,114.79Z"/><path d="M244.23,127.12v5.27H243V128.1h-1v-1Z"/><path d="M250,131.29h-.86v1.1h-1.19v-1.1h-2.84v-.82l2.49-3.35h1.28l-2.31,3.17H248v-1h1.15v1H250Z"/><path d="M252.19,127.12v5.27H251V128.1h-1.06v-1Z"/><path d="M253.28,132.24a.7.7,0,0,1-.21-.52.71.71,0,0,1,.21-.53.78.78,0,0,1,1,0,.71.71,0,0,1,.21.53.74.74,0,0,1-1.25.52Z"/><path d="M259.91,131.29h-.86v1.1h-1.19v-1.1H255v-.82l2.48-3.35h1.28l-2.3,3.17h1.42v-1h1.15v1h.86Z"/><path d="M301.25,137.07v5.27H300v-4.29h-1v-1Z"/><path d="M305.7,139.73a1.45,1.45,0,0,1,.37,1,1.58,1.58,0,0,1-.24.85,1.7,1.7,0,0,1-.74.62,2.75,2.75,0,0,1-1.21.23,4.46,4.46,0,0,1-1.09-.14,2.89,2.89,0,0,1-.92-.42l.48-.94a2.24,2.24,0,0,0,.69.35,2.54,2.54,0,0,0,.81.13,1.29,1.29,0,0,0,.73-.18.57.57,0,0,0,.26-.5c0-.43-.33-.65-1-.65h-.55v-.8l1.08-1.23h-2.24v-1h3.69v.79l-1.19,1.36A1.74,1.74,0,0,1,305.7,139.73Z"/><path d="M310.84,140.08a1.3,1.3,0,0,1,.21.73,1.41,1.41,0,0,1-.28.86,1.8,1.8,0,0,1-.79.56,3,3,0,0,1-1.16.2,3,3,0,0,1-1.17-.2,1.74,1.74,0,0,1-.77-.56,1.35,1.35,0,0,1-.28-.86,1.3,1.3,0,0,1,.21-.73,1.48,1.48,0,0,1,.59-.51,1.29,1.29,0,0,1-.45-.45,1.23,1.23,0,0,1-.16-.63,1.28,1.28,0,0,1,.26-.8,1.68,1.68,0,0,1,.71-.53,3.21,3.21,0,0,1,2.12,0,1.66,1.66,0,0,1,.72.53,1.28,1.28,0,0,1,.26.8,1.23,1.23,0,0,1-.16.63,1.32,1.32,0,0,1-.46.45A1.51,1.51,0,0,1,310.84,140.08Zm-1.3,1.25a.66.66,0,0,0,.27-.55.65.65,0,0,0-.27-.55,1.12,1.12,0,0,0-.72-.21,1.14,1.14,0,0,0-.72.21.71.71,0,0,0,0,1.1,1.14,1.14,0,0,0,.72.21A1.12,1.12,0,0,0,309.54,141.33Zm-1.31-3.28a.59.59,0,0,0-.23.49.57.57,0,0,0,.22.47,1.09,1.09,0,0,0,1.2,0,.56.56,0,0,0,.23-.47.59.59,0,0,0-.23-.49,1,1,0,0,0-.6-.17A.94.94,0,0,0,308.23,138.05Z"/><path d="M311.85,142.19a.7.7,0,0,1-.21-.52.69.69,0,0,1,.21-.53.75.75,0,0,1,.52-.2.73.73,0,0,1,.52.2.69.69,0,0,1,.21.53.72.72,0,0,1-.73.73A.72.72,0,0,1,311.85,142.19Z"/><path d="M317,139.24a1.62,1.62,0,0,1,.66.58,1.52,1.52,0,0,1,.24.86,1.58,1.58,0,0,1-.27.92,1.62,1.62,0,0,1-.72.62,2.37,2.37,0,0,1-1,.21,2.24,2.24,0,0,1-1.73-.67,2.76,2.76,0,0,1-.63-1.94,3.33,3.33,0,0,1,.34-1.54,2.34,2.34,0,0,1,.95-1,2.87,2.87,0,0,1,1.4-.33,3.59,3.59,0,0,1,.81.09,2.52,2.52,0,0,1,.66.27l-.45.9a1.7,1.7,0,0,0-1-.27,1.45,1.45,0,0,0-1.06.4,1.64,1.64,0,0,0-.42,1.13,1.75,1.75,0,0,1,1.3-.46A2,2,0,0,1,317,139.24Zm-.53,2.07a.72.72,0,0,0,.24-.57.75.75,0,0,0-.24-.58,1.11,1.11,0,0,0-1.31,0,.72.72,0,0,0-.25.57.69.69,0,0,0,.25.56,1.11,1.11,0,0,0,1.31,0Z"/><path d="M357.82,148.85v5.27H356.6v-4.29h-1.06v-1Z"/><path d="M362.26,151.52a1.38,1.38,0,0,1,.37,1,1.58,1.58,0,0,1-.24.85,1.64,1.64,0,0,1-.74.62,2.72,2.72,0,0,1-1.21.24,4,4,0,0,1-1.09-.15,2.84,2.84,0,0,1-.91-.42l.47-.93a2.42,2.42,0,0,0,.7.35,2.74,2.74,0,0,0,.81.12,1.28,1.28,0,0,0,.72-.18.56.56,0,0,0,.26-.5c0-.43-.33-.64-1-.64h-.56v-.81l1.08-1.23H358.7v-1h3.69v.79L361.2,151A1.75,1.75,0,0,1,362.26,151.52Z"/><path d="M366.57,151.28a1.44,1.44,0,0,1,.53,1.19,1.63,1.63,0,0,1-.24.87,1.65,1.65,0,0,1-.73.64,2.79,2.79,0,0,1-1.22.24,4,4,0,0,1-1.09-.15,2.89,2.89,0,0,1-.92-.42l.48-.93a2.55,2.55,0,0,0,.7.35,2.72,2.72,0,0,0,.8.12,1.24,1.24,0,0,0,.72-.18.61.61,0,0,0,0-1,2,2,0,0,0-.95-.17h-1.35l.27-3h3.22v1h-2.2l-.08,1h.43A2.49,2.49,0,0,1,366.57,151.28Z"/><path d="M367.77,154a.7.7,0,0,1-.21-.52.71.71,0,0,1,.21-.53.75.75,0,0,1,.52-.2.73.73,0,0,1,.52.2.71.71,0,0,1,.21.53.7.7,0,0,1-.21.52.71.71,0,0,1-.52.22A.73.73,0,0,1,367.77,154Z"/><path d="M374.4,153h-.86v1.1h-1.19V153h-2.84v-.82l2.49-3.35h1.28L371,152h1.42v-1h1.15v1h.86Z"/><path d="M417.88,161.93v5.27h-1.22v-4.3H415.6v-1Z"/><path d="M422.32,164.59a1.41,1.41,0,0,1,.37,1,1.57,1.57,0,0,1-.24.84,1.64,1.64,0,0,1-.74.62,2.7,2.7,0,0,1-1.2.24,4.11,4.11,0,0,1-1.1-.15,2.84,2.84,0,0,1-.91-.42l.47-.93a2.19,2.19,0,0,0,.7.35,2.74,2.74,0,0,0,.81.12,1.37,1.37,0,0,0,.72-.17.59.59,0,0,0,.26-.5c0-.44-.33-.65-1-.65h-.56v-.81L421,162.9h-2.24v-1h3.69v.79l-1.19,1.35A1.78,1.78,0,0,1,422.32,164.59Z"/><path d="M426.74,164.59a1.41,1.41,0,0,1,.37,1,1.57,1.57,0,0,1-.24.84,1.61,1.61,0,0,1-.73.62,2.75,2.75,0,0,1-1.21.24,4.11,4.11,0,0,1-1.1-.15,2.84,2.84,0,0,1-.91-.42l.47-.93a2.19,2.19,0,0,0,.7.35,2.74,2.74,0,0,0,.81.12,1.37,1.37,0,0,0,.72-.17.56.56,0,0,0,.26-.5c0-.44-.33-.65-1-.65h-.56v-.81l1.08-1.23h-2.24v-1h3.69v.79l-1.19,1.35A1.78,1.78,0,0,1,426.74,164.59Z"/></svg>