<svg width="654" height="250" viewBox="0 0 654 250" fill="none" xmlns="http://www.w3.org/2000/svg">
<path d="M342.63 147.26H341.8C341.413 147.246 341.032 147.355 340.71 147.57C340.408 147.788 340.172 148.086 340.03 148.43V154.81H338.4V145.87H339.86L340.01 147.18C340.236 146.752 340.557 146.383 340.95 146.1C341.328 145.838 341.78 145.701 342.24 145.71C342.353 145.7 342.467 145.7 342.58 145.71C342.675 145.721 342.769 145.741 342.86 145.77L342.63 147.26Z" fill="black"/>
<path d="M347.87 154.94C347.31 154.97 346.75 154.876 346.232 154.663C345.713 154.45 345.248 154.125 344.87 153.71C344.123 152.8 343.738 151.646 343.79 150.47V150.1C343.748 148.938 344.144 147.803 344.9 146.92C345.23 146.522 345.645 146.203 346.113 145.985C346.582 145.767 347.093 145.656 347.61 145.66C348.114 145.622 348.62 145.703 349.087 145.896C349.554 146.089 349.969 146.388 350.3 146.77C350.941 147.634 351.259 148.696 351.2 149.77V150.63H345.48C345.446 151.403 345.652 152.168 346.07 152.82C346.281 153.098 346.558 153.319 346.875 153.464C347.193 153.609 347.542 153.673 347.89 153.65C348.383 153.663 348.875 153.585 349.34 153.42C349.734 153.272 350.097 153.052 350.41 152.77L351.05 153.83C350.682 154.171 350.251 154.436 349.78 154.61C349.171 154.843 348.522 154.956 347.87 154.94V154.94ZM347.61 146.94C347.342 146.936 347.076 146.993 346.834 147.108C346.591 147.222 346.378 147.391 346.21 147.6C345.815 148.077 345.575 148.663 345.52 149.28V149.28H349.52V149.15C349.542 148.572 349.373 148.003 349.04 147.53C348.863 147.328 348.642 147.17 348.394 147.067C348.146 146.965 347.878 146.921 347.61 146.94V146.94Z" fill="black"/>
<path d="M356.58 153.66C357.065 153.67 357.535 153.49 357.89 153.16C358.069 153.012 358.212 152.825 358.309 152.614C358.406 152.403 358.454 152.172 358.45 151.94H359.92V151.99C359.914 152.377 359.821 152.758 359.648 153.104C359.475 153.45 359.226 153.753 358.92 153.99C358.164 154.632 357.185 154.952 356.195 154.879C355.205 154.806 354.284 154.346 353.63 153.6C352.938 152.688 352.584 151.564 352.63 150.42V150.07C352.583 148.926 352.937 147.801 353.63 146.89C353.979 146.464 354.424 146.126 354.927 145.904C355.431 145.682 355.98 145.581 356.53 145.61C357.436 145.58 358.318 145.911 358.98 146.53C359.285 146.822 359.524 147.176 359.682 147.567C359.841 147.958 359.915 148.378 359.9 148.8V148.86H358.42C358.431 148.342 358.241 147.84 357.89 147.46C357.721 147.274 357.513 147.127 357.282 147.029C357.051 146.931 356.801 146.883 356.55 146.89C356.201 146.868 355.852 146.943 355.543 147.107C355.234 147.271 354.977 147.518 354.8 147.82C354.42 148.508 354.23 149.284 354.25 150.07V150.42C354.225 151.211 354.412 151.995 354.79 152.69C354.966 153.005 355.227 153.263 355.544 153.435C355.861 153.607 356.22 153.685 356.58 153.66V153.66Z" fill="black"/>
<path d="M365.59 154.94C365.03 154.97 364.471 154.875 363.952 154.662C363.433 154.449 362.968 154.124 362.59 153.71C361.843 152.8 361.458 151.646 361.51 150.47V150.1C361.468 148.938 361.864 147.803 362.62 146.92C362.952 146.522 363.368 146.203 363.839 145.985C364.309 145.767 364.822 145.656 365.34 145.66C365.844 145.624 366.349 145.706 366.816 145.898C367.283 146.091 367.698 146.389 368.03 146.77C368.667 147.636 368.982 148.697 368.92 149.77V150.63H363.2C363.164 151.405 363.374 152.172 363.8 152.82C364.01 153.099 364.286 153.322 364.604 153.467C364.922 153.612 365.271 153.675 365.62 153.65C366.11 153.662 366.598 153.584 367.06 153.42C367.457 153.272 367.823 153.052 368.14 152.77L368.77 153.83C368.404 154.169 367.976 154.434 367.51 154.61C366.897 154.842 366.245 154.954 365.59 154.94V154.94ZM365.33 146.94C365.06 146.935 364.793 146.991 364.548 147.106C364.304 147.22 364.089 147.389 363.92 147.6C363.526 148.077 363.288 148.663 363.24 149.28H367.24V149.15C367.262 148.572 367.093 148.003 366.76 147.53C366.583 147.329 366.362 147.171 366.114 147.068C365.866 146.966 365.598 146.922 365.33 146.94V146.94Z" fill="black"/>
<path d="M372.5 143.53H370.87V141.87H372.5V143.53ZM372.5 154.76H370.87V145.82H372.5V154.76Z" fill="black"/>
<path d="M378 152.13L378.14 152.75H378.19L378.35 152.13L380.4 145.82H382.06L378.78 154.76H377.54L374.22 145.82H375.88L378 152.13Z" fill="black"/>
<path d="M387.11 154.94C386.55 154.97 385.99 154.876 385.472 154.663C384.953 154.45 384.488 154.125 384.11 153.71C383.363 152.8 382.978 151.646 383.03 150.47V150.1C382.988 148.938 383.384 147.803 384.14 146.92C384.47 146.522 384.885 146.203 385.353 145.985C385.822 145.767 386.333 145.656 386.85 145.66C387.354 145.622 387.86 145.703 388.327 145.896C388.794 146.089 389.209 146.388 389.54 146.77C390.181 147.634 390.499 148.696 390.44 149.77V150.63H384.72C384.686 151.403 384.892 152.168 385.31 152.82C385.52 153.099 385.797 153.321 386.115 153.466C386.433 153.611 386.782 153.674 387.13 153.65C387.623 153.663 388.115 153.585 388.58 153.42C388.974 153.272 389.337 153.052 389.65 152.77L390.29 153.83C389.922 154.171 389.491 154.436 389.02 154.61C388.411 154.843 387.762 154.956 387.11 154.94V154.94ZM386.85 146.94C386.582 146.936 386.316 146.993 386.074 147.108C385.831 147.222 385.618 147.391 385.45 147.6C385.055 148.077 384.815 148.663 384.76 149.28H388.76V149.15C388.782 148.572 388.613 148.003 388.28 147.53C388.103 147.328 387.882 147.17 387.634 147.067C387.386 146.965 387.118 146.921 386.85 146.94V146.94Z" fill="black"/>
<path d="M391.89 150.46C391.831 149.232 392.156 148.015 392.82 146.98C393.104 146.56 393.489 146.219 393.94 145.988C394.391 145.757 394.893 145.644 395.4 145.66C395.88 145.647 396.355 145.747 396.79 145.95C397.183 146.15 397.525 146.437 397.79 146.79V141.87H399.41V154.76H398.17L397.92 153.63C397.652 154.051 397.28 154.395 396.84 154.63C396.373 154.858 395.859 154.971 395.34 154.96C394.849 154.981 394.361 154.884 393.915 154.677C393.47 154.47 393.08 154.159 392.78 153.77C392.124 152.866 391.796 151.765 391.85 150.65L391.89 150.46ZM393.52 150.63C393.485 151.392 393.677 152.147 394.07 152.8C394.267 153.067 394.527 153.281 394.828 153.422C395.128 153.564 395.459 153.628 395.79 153.61C396.224 153.625 396.652 153.511 397.02 153.28C397.362 153.045 397.64 152.729 397.83 152.36V148.19C397.636 147.832 397.354 147.529 397.01 147.31C396.652 147.082 396.234 146.967 395.81 146.98C395.456 146.964 395.105 147.049 394.798 147.226C394.492 147.404 394.242 147.665 394.08 147.98C393.678 148.754 393.485 149.619 393.52 150.49V150.63Z" fill="black"/>
<path d="M408.35 143.67V145.82H410.05V147H408.35V152.43C408.319 152.746 408.412 153.062 408.61 153.31C408.799 153.481 409.045 153.574 409.3 153.57C409.403 153.584 409.507 153.584 409.61 153.57C409.708 153.55 409.805 153.523 409.9 153.49L410.13 154.61C409.97 154.729 409.785 154.811 409.59 154.85C409.363 154.917 409.127 154.951 408.89 154.95C408.6 154.964 408.309 154.918 408.037 154.815C407.765 154.712 407.518 154.554 407.31 154.35C406.875 153.825 406.664 153.15 406.72 152.47V147H405.3V145.79H406.72V143.64L408.35 143.67Z" fill="black"/>
<path d="M416 147.26H415.16C414.776 147.246 414.398 147.355 414.08 147.57C413.774 147.784 413.537 148.083 413.4 148.43V154.81H411.77V145.87H413.22L413.38 147.18C413.6 146.748 413.922 146.377 414.32 146.1C414.695 145.839 415.143 145.703 415.6 145.71C415.716 145.7 415.834 145.7 415.95 145.71C416.042 145.721 416.132 145.741 416.22 145.77L416 147.26Z" fill="black"/>
<path d="M423.21 154.76C423.15 154.49 423.11 154.25 423.08 154.05C423.049 153.845 423.032 153.638 423.03 153.43C422.709 153.863 422.305 154.227 421.84 154.5C421.367 154.789 420.824 154.941 420.27 154.94C419.885 154.967 419.499 154.917 419.133 154.793C418.767 154.67 418.43 154.475 418.14 154.22C417.884 153.957 417.687 153.643 417.561 153.298C417.435 152.953 417.384 152.586 417.41 152.22C417.393 151.829 417.476 151.44 417.651 151.09C417.826 150.74 418.087 150.441 418.41 150.22C419.253 149.695 420.238 149.443 421.23 149.5H423V148.61C423.012 148.381 422.975 148.153 422.892 147.939C422.81 147.725 422.683 147.531 422.52 147.37C422.335 147.208 422.119 147.083 421.886 147.004C421.653 146.925 421.406 146.893 421.16 146.91C420.701 146.889 420.249 147.027 419.88 147.3C419.727 147.417 419.603 147.569 419.52 147.742C419.436 147.916 419.395 148.107 419.4 148.3H417.85V148.25C417.845 147.902 417.926 147.557 418.084 147.247C418.243 146.937 418.475 146.67 418.76 146.47C419.473 145.909 420.363 145.622 421.27 145.66C422.152 145.618 423.021 145.891 423.72 146.43C424.032 146.708 424.276 147.053 424.436 147.44C424.595 147.826 424.665 148.243 424.64 148.66V153C424.64 153.32 424.64 153.63 424.69 153.93C424.728 154.225 424.792 154.516 424.88 154.8L423.21 154.76ZM420.51 153.57C421.073 153.578 421.625 153.422 422.1 153.12C422.51 152.896 422.836 152.545 423.03 152.12V150.66H421.2C420.634 150.632 420.076 150.809 419.63 151.16C419.449 151.295 419.301 151.469 419.199 151.671C419.096 151.872 419.042 152.094 419.04 152.32C419.031 152.496 419.059 152.671 419.123 152.835C419.187 152.999 419.285 153.147 419.41 153.27C419.725 153.507 420.118 153.614 420.51 153.57Z" fill="black"/>
<path d="M428.78 143.53H427.15V141.87H428.78V143.53ZM428.78 154.76H427.15V145.82H428.78V154.76Z" fill="black"/>
<path d="M432.73 145.82L432.85 147.15C433.129 146.698 433.513 146.32 433.97 146.05C434.436 145.786 434.964 145.651 435.5 145.66C435.912 145.634 436.326 145.696 436.712 145.843C437.098 145.989 437.449 146.217 437.74 146.51C438.327 147.247 438.61 148.181 438.53 149.12V154.76H436.91V149.15C436.967 148.554 436.799 147.959 436.44 147.48C436.247 147.304 436.019 147.171 435.771 147.088C435.523 147.006 435.26 146.975 435 147C434.558 146.986 434.12 147.09 433.73 147.3C433.378 147.498 433.09 147.793 432.9 148.15V154.78H431.27V145.84L432.73 145.82Z" fill="black"/>
<path d="M442.66 143.53H441V141.87H442.63L442.66 143.53ZM442.66 154.76H441V145.82H442.63L442.66 154.76Z" fill="black"/>
<path d="M446.61 145.82L446.73 147.15C447.008 146.698 447.393 146.32 447.85 146.05C448.316 145.786 448.844 145.651 449.38 145.66C449.792 145.634 450.205 145.696 450.592 145.843C450.978 145.989 451.329 146.217 451.62 146.51C452.207 147.247 452.489 148.181 452.41 149.12V154.76H450.79V149.15C450.847 148.554 450.679 147.959 450.32 147.48C450.131 147.303 449.907 147.167 449.662 147.081C449.418 146.995 449.158 146.96 448.9 146.98C448.454 146.965 448.013 147.069 447.62 147.28C447.268 147.478 446.98 147.773 446.79 148.13V154.76H445.16V145.82H446.61Z" fill="black"/>
<path d="M454.49 150.46C454.433 149.233 454.754 148.018 455.41 146.98C455.693 146.561 456.076 146.221 456.526 145.99C456.975 145.759 457.475 145.646 457.98 145.66C458.501 145.647 459.016 145.764 459.48 146C459.918 146.238 460.289 146.582 460.56 147L460.76 145.83H462.06V154.83C462.091 155.316 462.018 155.803 461.845 156.258C461.673 156.713 461.405 157.126 461.06 157.47C460.25 158.135 459.216 158.464 458.17 158.39C457.701 158.384 457.235 158.324 456.78 158.21C456.319 158.114 455.875 157.953 455.46 157.73L455.71 156.47C456.072 156.65 456.455 156.784 456.85 156.87C457.28 156.969 457.719 157.019 458.16 157.02C458.785 157.075 459.407 156.881 459.89 156.48C460.085 156.254 460.233 155.992 460.326 155.709C460.418 155.426 460.454 155.127 460.43 154.83V153.83C460.153 154.193 459.793 154.485 459.38 154.68C458.937 154.879 458.456 154.978 457.97 154.97C457.479 154.992 456.99 154.895 456.545 154.688C456.099 154.481 455.71 154.169 455.41 153.78C454.764 152.872 454.44 151.773 454.49 150.66V150.46ZM456.12 150.63C456.083 151.392 456.274 152.148 456.67 152.8C456.862 153.07 457.119 153.287 457.419 153.429C457.718 153.571 458.049 153.633 458.38 153.61C458.814 153.625 459.242 153.511 459.61 153.28C459.958 153.036 460.239 152.71 460.43 152.33V148.22C460.234 147.855 459.952 147.543 459.61 147.31C459.248 147.082 458.827 146.967 458.4 146.98C458.046 146.965 457.696 147.051 457.389 147.228C457.083 147.405 456.833 147.666 456.67 147.98C456.271 148.754 456.082 149.62 456.12 150.49V150.63Z" fill="black"/>
<path d="M275.9 170.51C275.852 169.328 276.236 168.169 276.98 167.25C277.332 166.825 277.778 166.487 278.283 166.263C278.788 166.039 279.338 165.935 279.89 165.96C280.445 165.935 280.999 166.038 281.508 166.26C282.018 166.482 282.47 166.817 282.83 167.24C283.572 168.164 283.956 169.325 283.91 170.51V170.7C283.959 171.885 283.575 173.047 282.83 173.97C282.456 174.371 282.003 174.691 281.5 174.91C280.997 175.129 280.454 175.242 279.905 175.242C279.356 175.242 278.813 175.129 278.31 174.91C277.807 174.691 277.354 174.371 276.98 173.97C276.236 173.051 275.852 171.892 275.9 170.71V170.51ZM277.53 170.7C277.497 171.522 277.706 172.335 278.13 173.04C278.329 173.327 278.594 173.561 278.903 173.723C279.212 173.885 279.556 173.969 279.905 173.969C280.254 173.969 280.598 173.885 280.907 173.723C281.216 173.561 281.481 173.327 281.68 173.04C282.104 172.335 282.313 171.522 282.28 170.7V170.51C282.312 169.69 282.1 168.879 281.67 168.18C281.483 167.88 281.22 167.635 280.907 167.47C280.594 167.305 280.243 167.225 279.89 167.24C279.54 167.229 279.193 167.31 278.884 167.475C278.576 167.64 278.315 167.883 278.13 168.18C277.708 168.882 277.5 169.692 277.53 170.51V170.7Z" fill="black"/>
<path d="M287.35 166.13L287.47 167.46C287.743 167.003 288.128 166.625 288.59 166.36C289.053 166.088 289.583 165.95 290.12 165.96C290.532 165.94 290.943 166.005 291.328 166.152C291.714 166.298 292.065 166.522 292.36 166.81C292.946 167.548 293.228 168.481 293.15 169.42V175.07H291.52V169.46C291.579 168.862 291.416 168.264 291.06 167.78C290.869 167.602 290.644 167.466 290.397 167.38C290.151 167.294 289.89 167.26 289.63 167.28C289.187 167.269 288.748 167.376 288.36 167.59C288.011 167.787 287.723 168.078 287.53 168.43V175.07H285.9V166.13H287.35Z" fill="black"/>
<path d="M303.42 175.24C302.86 175.27 302.3 175.176 301.782 174.963C301.263 174.75 300.798 174.425 300.42 174.01C299.669 173.102 299.284 171.947 299.34 170.77V170.41C299.296 169.245 299.692 168.106 300.45 167.22C300.781 166.821 301.197 166.501 301.668 166.283C302.138 166.065 302.652 165.955 303.17 165.96C303.675 165.926 304.18 166.01 304.647 166.204C305.113 166.398 305.529 166.698 305.86 167.08C306.497 167.946 306.811 169.007 306.75 170.08V170.94H301C300.966 171.713 301.172 172.478 301.59 173.13C301.799 173.411 302.075 173.636 302.393 173.782C302.711 173.929 303.061 173.994 303.41 173.97C303.904 173.98 304.396 173.899 304.86 173.73C305.258 173.591 305.623 173.37 305.93 173.08L306.57 174.14C306.202 174.481 305.771 174.746 305.3 174.92C304.701 175.15 304.062 175.259 303.42 175.24V175.24ZM303.17 167.24C302.9 167.235 302.633 167.291 302.388 167.406C302.144 167.52 301.929 167.689 301.76 167.9C301.372 168.38 301.135 168.965 301.08 169.58V169.58H305.08V169.45C305.102 168.877 304.937 168.312 304.61 167.84C304.432 167.637 304.209 167.477 303.96 167.373C303.71 167.269 303.44 167.223 303.17 167.24V167.24Z" fill="black"/>
<path d="M311.45 172.43L311.59 173.06H311.64L311.8 172.43L313.86 166.13H315.52L312.23 175.07H311L307.67 166.13H309.34L311.45 172.43Z" fill="black"/>
<path d="M318.74 163.84H317.11V162.18H318.74V163.84ZM318.74 175.07H317.11V166.13H318.74V175.07Z" fill="black"/>
<path d="M320.87 170.76C320.813 169.533 321.134 168.318 321.79 167.28C322.074 166.86 322.459 166.519 322.91 166.288C323.361 166.057 323.863 165.944 324.37 165.96C324.852 165.952 325.33 166.051 325.77 166.25C326.166 166.45 326.509 166.741 326.77 167.1V162.18H328.4V175.07H327.15L326.91 173.94C326.636 174.359 326.261 174.703 325.82 174.94C325.357 175.167 324.846 175.28 324.33 175.27C323.84 175.294 323.351 175.199 322.905 174.993C322.46 174.788 322.07 174.478 321.77 174.09C321.114 173.186 320.786 172.085 320.84 170.97L320.87 170.76ZM322.5 170.94C322.462 171.702 322.654 172.458 323.05 173.11C323.243 173.381 323.503 173.598 323.804 173.74C324.105 173.882 324.438 173.944 324.77 173.92C325.204 173.934 325.632 173.819 326 173.59C326.344 173.356 326.62 173.035 326.8 172.66V168.49C326.607 168.134 326.328 167.832 325.99 167.61C325.632 167.382 325.214 167.267 324.79 167.28C324.436 167.265 324.086 167.351 323.779 167.528C323.473 167.705 323.223 167.966 323.06 168.28C322.658 169.053 322.465 169.919 322.5 170.79V170.94Z" fill="black"/>
<path d="M334.57 175.24C334.01 175.27 333.451 175.175 332.932 174.962C332.413 174.749 331.948 174.424 331.57 174.01C330.819 173.102 330.434 171.947 330.49 170.77V170.41C330.446 169.245 330.842 168.106 331.6 167.22C331.932 166.822 332.348 166.503 332.819 166.285C333.289 166.067 333.802 165.956 334.32 165.96C334.824 165.926 335.33 166.01 335.797 166.204C336.263 166.398 336.679 166.698 337.01 167.08C337.651 167.944 337.966 169.006 337.9 170.08V170.94H332.19C332.154 171.715 332.364 172.482 332.79 173.13C332.997 173.413 333.273 173.638 333.592 173.785C333.91 173.932 334.26 173.996 334.61 173.97C335.101 173.979 335.589 173.898 336.05 173.73C336.448 173.591 336.813 173.37 337.12 173.08L337.76 174.14C337.394 174.479 336.966 174.744 336.5 174.92C335.885 175.155 335.228 175.264 334.57 175.24V175.24ZM334.31 167.24C334.04 167.235 333.773 167.291 333.528 167.406C333.284 167.52 333.069 167.689 332.9 167.9C332.512 168.38 332.275 168.965 332.22 169.58V169.58H336.22V169.45C336.243 168.875 336.074 168.308 335.74 167.84C335.563 167.637 335.343 167.478 335.095 167.374C334.847 167.27 334.578 167.224 334.31 167.24V167.24Z" fill="black"/>
<path d="M341.17 166.13L341.29 167.46C341.566 167.005 341.951 166.627 342.41 166.36C343.007 166.033 343.691 165.901 344.367 165.982C345.043 166.062 345.677 166.352 346.18 166.81C346.766 167.548 347.049 168.481 346.97 169.42V175.07H345.35V169.46C345.407 168.861 345.239 168.263 344.88 167.78C344.691 167.603 344.467 167.467 344.223 167.381C343.978 167.295 343.718 167.26 343.46 167.28C343.013 167.269 342.572 167.375 342.18 167.59C341.831 167.787 341.543 168.078 341.35 168.43V175.07H339.72V166.13H341.17Z" fill="black"/>
<path d="M352.89 174C353.374 174.005 353.843 173.827 354.2 173.5C354.38 173.351 354.524 173.162 354.621 172.949C354.718 172.736 354.766 172.504 354.76 172.27H356.23C356.232 172.667 356.142 173.059 355.969 173.416C355.796 173.773 355.543 174.086 355.23 174.33C354.483 174.957 353.523 175.272 352.549 175.211C351.576 175.149 350.663 174.716 350 174C349.311 173.083 348.958 171.957 349 170.81V170.47C348.954 169.326 349.308 168.202 350 167.29C350.35 166.861 350.795 166.521 351.301 166.297C351.807 166.073 352.358 165.971 352.91 166C353.36 165.984 353.808 166.058 354.229 166.218C354.65 166.378 355.034 166.62 355.36 166.93C355.668 167.22 355.909 167.573 356.068 167.965C356.227 168.356 356.299 168.778 356.28 169.2V169.25H354.8C354.808 168.995 354.765 168.74 354.674 168.502C354.583 168.263 354.446 168.045 354.27 167.86C354.102 167.673 353.895 167.524 353.663 167.424C353.432 167.323 353.182 167.274 352.93 167.28C352.581 167.258 352.232 167.333 351.923 167.497C351.614 167.661 351.357 167.908 351.18 168.21C350.794 168.899 350.604 169.681 350.63 170.47V170.81C350.603 171.601 350.79 172.386 351.17 173.08C351.345 173.376 351.598 173.618 351.901 173.78C352.205 173.943 352.547 174.019 352.89 174V174Z" fill="black"/>
<path d="M361.89 175.24C361.33 175.27 360.77 175.176 360.251 174.963C359.733 174.75 359.268 174.425 358.89 174.01C358.139 173.102 357.754 171.947 357.81 170.77V170.41C357.766 169.245 358.162 168.106 358.92 167.22C359.251 166.821 359.667 166.501 360.138 166.283C360.608 166.065 361.122 165.955 361.64 165.96C362.145 165.926 362.65 166.01 363.117 166.204C363.583 166.398 363.999 166.698 364.33 167.08C364.967 167.946 365.281 169.007 365.22 170.08V170.94H359.51C359.474 171.715 359.684 172.482 360.11 173.13C360.316 173.412 360.59 173.637 360.907 173.784C361.223 173.931 361.572 173.995 361.92 173.97C362.414 173.98 362.906 173.899 363.37 173.73C363.768 173.591 364.133 173.37 364.44 173.08L365.08 174.14C364.714 174.479 364.286 174.744 363.82 174.92C363.204 175.154 362.548 175.263 361.89 175.24V175.24ZM361.64 167.24C361.37 167.235 361.103 167.291 360.858 167.406C360.614 167.52 360.399 167.689 360.23 167.9C359.842 168.38 359.605 168.965 359.55 169.58V169.58H363.55V169.45C363.569 168.875 363.4 168.31 363.07 167.84C362.893 167.637 362.673 167.478 362.425 167.374C362.177 167.27 361.908 167.224 361.64 167.24V167.24Z" fill="black"/>
<path d="M372.12 170.62H367.25V169.35H372.12V170.62Z" fill="black"/>
<path d="M382.31 170.94C382.364 172.055 382.036 173.156 381.38 174.06C381.079 174.447 380.689 174.756 380.243 174.961C379.798 175.166 379.31 175.262 378.82 175.24C378.283 175.251 377.751 175.131 377.27 174.89C376.828 174.658 376.455 174.313 376.19 173.89L375.92 175.11H374.68V162.18H376.3V167.18C376.57 166.795 376.93 166.482 377.35 166.27C377.805 166.05 378.305 165.94 378.81 165.95C379.316 165.934 379.819 166.047 380.27 166.278C380.721 166.509 381.106 166.85 381.39 167.27C382.046 168.308 382.367 169.523 382.31 170.75V170.94ZM380.68 170.76C380.715 169.889 380.522 169.023 380.12 168.25C379.955 167.937 379.705 167.678 379.399 167.501C379.093 167.324 378.743 167.237 378.39 167.25C377.939 167.239 377.495 167.369 377.12 167.62C376.771 167.884 376.49 168.226 376.3 168.62V172.5C376.49 172.894 376.771 173.236 377.12 173.5C377.499 173.758 377.951 173.888 378.41 173.87C378.742 173.894 379.074 173.831 379.374 173.687C379.674 173.543 379.931 173.324 380.12 173.05C380.524 172.405 380.72 171.65 380.68 170.89V170.76Z" fill="black"/>
<path d="M389.79 175.07C389.73 174.8 389.69 174.56 389.66 174.35C389.63 174.145 389.61 173.938 389.6 173.73C389.289 174.171 388.887 174.54 388.42 174.81C387.946 175.095 387.403 175.244 386.85 175.24C386.075 175.288 385.311 175.033 384.72 174.53C384.466 174.266 384.269 173.952 384.144 173.607C384.018 173.263 383.966 172.896 383.99 172.53C383.974 172.139 384.057 171.751 384.232 171.401C384.407 171.051 384.668 170.751 384.99 170.53C385.835 170.009 386.819 169.758 387.81 169.81H389.57V169C389.584 168.77 389.549 168.54 389.468 168.325C389.387 168.11 389.262 167.914 389.1 167.75C388.724 167.426 388.236 167.261 387.74 167.29C387.279 167.267 386.826 167.409 386.46 167.69C386.305 167.805 386.18 167.956 386.096 168.131C386.013 168.305 385.973 168.497 385.98 168.69H384.43V168.64C384.425 168.29 384.506 167.945 384.664 167.633C384.823 167.321 385.055 167.052 385.34 166.85C386.053 166.289 386.943 166.002 387.85 166.04C388.732 165.998 389.601 166.271 390.3 166.81C390.612 167.088 390.856 167.433 391.015 167.82C391.175 168.206 391.245 168.623 391.22 169.04V173.35C391.205 173.657 391.205 173.964 391.22 174.27C391.258 174.568 391.322 174.863 391.41 175.15L389.79 175.07ZM387.09 173.88C387.654 173.889 388.208 173.729 388.68 173.42C389.087 173.196 389.41 172.844 389.6 172.42V170.97H387.78C387.215 170.938 386.657 171.112 386.21 171.46C386.028 171.597 385.881 171.773 385.778 171.976C385.676 172.179 385.622 172.403 385.62 172.63C385.61 172.804 385.638 172.978 385.702 173.141C385.766 173.303 385.864 173.449 385.99 173.57C386.303 173.811 386.697 173.922 387.09 173.88V173.88Z" fill="black"/>
<path d="M398.8 172.66C398.804 172.493 398.77 172.327 398.698 172.176C398.627 172.025 398.522 171.893 398.39 171.79C397.922 171.481 397.394 171.277 396.84 171.19C395.974 171.042 395.147 170.719 394.41 170.24C394.145 170.061 393.928 169.817 393.782 169.532C393.635 169.247 393.562 168.93 393.57 168.61C393.571 168.249 393.655 167.893 393.814 167.569C393.974 167.245 394.205 166.961 394.49 166.74C395.174 166.2 396.029 165.923 396.9 165.96C397.795 165.918 398.673 166.214 399.36 166.79C399.649 167.018 399.882 167.31 400.04 167.643C400.198 167.976 400.277 168.341 400.27 168.71V168.71H398.7C398.689 168.517 398.638 168.328 398.55 168.156C398.463 167.984 398.34 167.832 398.19 167.71C397.84 167.386 397.376 167.214 396.9 167.23C396.439 167.194 395.982 167.333 395.62 167.62C395.486 167.735 395.379 167.878 395.304 168.038C395.23 168.199 395.191 168.373 395.19 168.55C395.183 168.706 395.213 168.862 395.278 169.004C395.342 169.146 395.439 169.272 395.56 169.37C396.028 169.64 396.545 169.816 397.08 169.89C397.971 170.046 398.819 170.387 399.57 170.89C399.836 171.077 400.052 171.326 400.2 171.615C400.348 171.904 400.424 172.225 400.42 172.55C400.422 172.93 400.332 173.305 400.158 173.642C399.984 173.98 399.731 174.271 399.42 174.49C398.689 175.017 397.801 175.281 396.9 175.24C395.926 175.295 394.967 174.984 394.21 174.37C393.909 174.132 393.669 173.828 393.507 173.481C393.346 173.133 393.268 172.753 393.28 172.37V172.37H394.84C394.835 172.618 394.891 172.863 395.002 173.084C395.114 173.306 395.278 173.496 395.48 173.64C395.901 173.908 396.391 174.047 396.89 174.04C397.372 174.071 397.85 173.94 398.25 173.67C398.424 173.567 398.568 173.419 398.665 173.241C398.761 173.063 398.808 172.862 398.8 172.66V172.66Z" fill="black"/>
<path d="M406.15 175.24C405.59 175.269 405.031 175.174 404.512 174.961C403.994 174.748 403.528 174.424 403.15 174.01C402.407 173.098 402.026 171.945 402.08 170.77V170.41C402.036 169.245 402.432 168.106 403.19 167.22C403.52 166.822 403.935 166.503 404.403 166.285C404.872 166.067 405.383 165.956 405.9 165.96C406.405 165.924 406.911 166.006 407.378 166.201C407.845 166.395 408.26 166.696 408.59 167.08C409.234 167.943 409.553 169.005 409.49 170.08V170.94H403.77C403.736 171.713 403.942 172.478 404.36 173.13C404.568 173.412 404.844 173.637 405.162 173.784C405.48 173.931 405.83 173.995 406.18 173.97C406.674 173.98 407.166 173.899 407.63 173.73C408.028 173.591 408.393 173.37 408.7 173.08L409.33 174.14C408.967 174.483 408.539 174.748 408.07 174.92C407.458 175.155 406.805 175.264 406.15 175.24V175.24ZM405.89 167.24C405.62 167.237 405.354 167.294 405.11 167.409C404.865 167.523 404.65 167.691 404.48 167.9C404.092 168.38 403.855 168.965 403.8 169.58V169.58H407.8V169.45C407.823 168.875 407.654 168.308 407.32 167.84C407.144 167.636 406.924 167.476 406.676 167.372C406.427 167.268 406.159 167.223 405.89 167.24V167.24Z" fill="black"/>
<path d="M410.93 170.76C410.873 169.533 411.194 168.318 411.85 167.28C412.134 166.858 412.521 166.516 412.974 166.285C413.427 166.054 413.932 165.942 414.44 165.96C414.919 165.953 415.394 166.052 415.83 166.25C416.223 166.454 416.565 166.744 416.83 167.1V162.18H418.45V175.07H417.21L416.96 173.94C416.69 174.362 416.314 174.707 415.87 174.94C415.407 175.169 414.896 175.283 414.38 175.27C413.89 175.292 413.402 175.196 412.957 174.991C412.511 174.786 412.121 174.477 411.82 174.09C411.164 173.186 410.836 172.085 410.89 170.97L410.93 170.76ZM412.56 170.94C412.522 171.702 412.714 172.458 413.11 173.11C413.307 173.377 413.567 173.591 413.868 173.732C414.168 173.874 414.499 173.938 414.83 173.92C415.264 173.935 415.692 173.82 416.06 173.59C416.404 173.353 416.683 173.033 416.87 172.66V168.49C416.673 168.134 416.391 167.832 416.05 167.61C415.692 167.382 415.274 167.267 414.85 167.28C414.497 167.266 414.146 167.352 413.84 167.529C413.534 167.706 413.284 167.967 413.12 168.28C412.718 169.053 412.525 169.919 412.56 170.79V170.94Z" fill="black"/>
<path d="M432.74 170.94C432.797 172.054 432.472 173.155 431.82 174.06C431.52 174.446 431.132 174.755 430.688 174.96C430.245 175.165 429.758 175.261 429.27 175.24C428.772 175.254 428.277 175.158 427.82 174.96C427.4 174.776 427.032 174.491 426.75 174.13V178.5H425.13V166.13H426.38L426.63 167.28C426.907 166.863 427.281 166.52 427.72 166.28C428.193 166.048 428.713 165.932 429.24 165.94C429.746 165.924 430.249 166.037 430.7 166.268C431.151 166.499 431.536 166.84 431.82 167.26C432.48 168.296 432.802 169.513 432.74 170.74V170.94ZM431.12 170.76C431.153 169.887 430.946 169.022 430.52 168.26C430.342 167.952 430.085 167.697 429.776 167.521C429.466 167.345 429.116 167.255 428.76 167.26C428.337 167.249 427.921 167.36 427.56 167.58C427.222 167.798 426.944 168.097 426.75 168.45V172.78C426.947 173.128 427.225 173.423 427.56 173.64C427.925 173.858 428.345 173.966 428.77 173.95C429.11 173.969 429.449 173.901 429.755 173.752C430.061 173.603 430.325 173.379 430.52 173.1C430.944 172.455 431.154 171.692 431.12 170.92V170.76Z" fill="black"/>
<path d="M434.36 170.51C434.312 169.328 434.696 168.169 435.44 167.25C435.794 166.824 436.242 166.486 436.749 166.263C437.255 166.039 437.807 165.935 438.36 165.96C438.913 165.937 439.465 166.04 439.973 166.262C440.48 166.484 440.931 166.818 441.29 167.24C442.032 168.164 442.416 169.325 442.37 170.51V170.7C442.425 171.893 442.045 173.066 441.3 174C440.926 174.403 440.472 174.724 439.968 174.944C439.464 175.164 438.92 175.277 438.37 175.277C437.82 175.277 437.276 175.164 436.772 174.944C436.268 174.724 435.814 174.403 435.44 174C434.696 173.081 434.312 171.922 434.36 170.74V170.51ZM435.99 170.7C435.957 171.522 436.166 172.335 436.59 173.04C436.789 173.327 437.054 173.561 437.363 173.723C437.672 173.885 438.016 173.969 438.365 173.969C438.714 173.969 439.058 173.885 439.367 173.723C439.676 173.561 439.941 173.327 440.14 173.04C440.564 172.335 440.773 171.522 440.74 170.7V170.51C440.772 169.69 440.56 168.879 440.13 168.18C439.934 167.891 439.67 167.655 439.361 167.492C439.053 167.328 438.709 167.243 438.36 167.243C438.011 167.243 437.667 167.328 437.359 167.492C437.05 167.655 436.786 167.891 436.59 168.18C436.168 168.882 435.96 169.692 435.99 170.51V170.7Z" fill="black"/>
<path d="M446.12 175.07H444.49V162.18H446.12V175.07Z" fill="black"/>
<path d="M450.39 163.84H448.76V162.18H450.39V163.84ZM450.39 175.07H448.76V166.13H450.39V175.07Z" fill="black"/>
<path d="M456.44 174C456.926 173.999 457.395 173.822 457.76 173.5C457.938 173.349 458.08 173.16 458.177 172.948C458.274 172.735 458.323 172.504 458.32 172.27H459.79C459.792 172.667 459.702 173.059 459.529 173.416C459.356 173.773 459.103 174.086 458.79 174.33C458.032 174.968 457.054 175.284 456.066 175.211C455.078 175.138 454.157 174.682 453.5 173.94C452.811 173.023 452.458 171.897 452.5 170.75V170.41C452.45 169.266 452.804 168.14 453.5 167.23C453.847 166.801 454.291 166.461 454.795 166.236C455.299 166.012 455.849 165.911 456.4 165.94C456.85 165.922 457.299 165.996 457.72 166.156C458.141 166.315 458.525 166.558 458.85 166.87C459.159 167.159 459.402 167.512 459.561 167.904C459.719 168.296 459.791 168.718 459.77 169.14V169.19H458.29C458.296 168.934 458.252 168.68 458.159 168.441C458.066 168.203 457.927 167.985 457.75 167.8C457.582 167.613 457.375 167.464 457.143 167.364C456.912 167.264 456.662 167.215 456.41 167.22C456.061 167.198 455.712 167.273 455.403 167.437C455.094 167.601 454.837 167.848 454.66 168.15C454.282 168.842 454.095 169.622 454.12 170.41V170.75C454.093 171.541 454.28 172.326 454.66 173.02C454.831 173.338 455.09 173.599 455.405 173.773C455.721 173.947 456.08 174.026 456.44 174V174Z" fill="black"/>
<path d="M464.48 171.76L464.77 172.88H464.82L467.02 166.13H468.83L465.07 176.44C464.843 177.024 464.503 177.557 464.07 178.01C463.848 178.235 463.581 178.411 463.286 178.527C462.992 178.642 462.676 178.694 462.36 178.68C462.192 178.675 462.025 178.658 461.86 178.63L461.39 178.55L461.55 177.26H461.84H462.28C462.45 177.26 462.617 177.217 462.766 177.135C462.915 177.053 463.04 176.934 463.13 176.79C463.351 176.479 463.535 176.143 463.68 175.79L464.07 174.85L460.75 166.1H462.57L464.48 171.76Z" fill="black"/>
<path d="M471.71 166.13L471.82 167.3C472.108 166.886 472.488 166.544 472.93 166.3C473.418 166.061 473.956 165.941 474.5 165.95C475.041 165.934 475.574 166.08 476.03 166.37C476.489 166.66 476.84 167.092 477.03 167.6C477.297 167.11 477.682 166.694 478.15 166.39C478.634 166.094 479.193 165.941 479.76 165.95C480.168 165.931 480.575 166.006 480.949 166.169C481.324 166.332 481.656 166.579 481.92 166.89C482.508 167.708 482.787 168.706 482.71 169.71V175.06H481.08V169.7C481.139 169.044 480.981 168.387 480.63 167.83C480.462 167.638 480.251 167.488 480.015 167.391C479.78 167.294 479.524 167.253 479.27 167.27C479.016 167.264 478.765 167.312 478.532 167.412C478.299 167.513 478.09 167.662 477.92 167.85C477.573 168.263 477.36 168.773 477.31 169.31V175.06H475.68V169.7C475.738 169.051 475.572 168.402 475.21 167.86C475.049 167.663 474.843 167.508 474.61 167.405C474.378 167.303 474.124 167.256 473.87 167.27C473.442 167.255 473.019 167.363 472.65 167.58C472.326 167.789 472.069 168.088 471.91 168.44V175.06H470.29V166.12L471.71 166.13Z" fill="black"/>
<path d="M490.54 175.07C490.48 174.8 490.44 174.56 490.41 174.35C490.378 174.145 490.361 173.938 490.36 173.73C490.043 174.169 489.638 174.537 489.17 174.81C488.696 175.095 488.153 175.244 487.6 175.24C486.825 175.288 486.061 175.033 485.47 174.53C485.216 174.266 485.019 173.952 484.894 173.607C484.768 173.263 484.716 172.896 484.74 172.53C484.722 172.139 484.804 171.75 484.979 171.4C485.154 171.05 485.416 170.75 485.74 170.53C486.581 170.009 487.562 169.758 488.55 169.81H490.32V169C490.332 168.77 490.295 168.539 490.212 168.324C490.13 168.109 490.003 167.913 489.84 167.75C489.464 167.426 488.976 167.261 488.48 167.29C488.02 167.272 487.568 167.413 487.2 167.69C487.045 167.805 486.92 167.956 486.836 168.131C486.753 168.305 486.713 168.497 486.72 168.69H485.17V168.64C485.167 168.29 485.25 167.944 485.41 167.632C485.57 167.32 485.803 167.052 486.09 166.85C486.802 166.287 487.693 165.999 488.6 166.04C489.479 165.999 490.344 166.272 491.04 166.81C491.355 167.079 491.605 167.415 491.772 167.795C491.938 168.174 492.016 168.586 492 169V173.31C491.985 173.616 491.985 173.924 492 174.23C492.038 174.528 492.102 174.823 492.19 175.11L490.54 175.07ZM487.84 173.88C488.404 173.889 488.958 173.729 489.43 173.42C489.84 173.196 490.166 172.845 490.36 172.42V170.97H488.53C487.965 170.94 487.408 171.114 486.96 171.46C486.778 171.597 486.631 171.773 486.528 171.976C486.426 172.179 486.372 172.403 486.37 172.63C486.36 172.804 486.388 172.978 486.452 173.14C486.516 173.303 486.614 173.449 486.74 173.57C487.054 173.809 487.447 173.92 487.84 173.88V173.88Z" fill="black"/>
<path d="M496.82 170.94H496V175.07H494.38V162.18H496V169.65H496.82L499.51 166.13H501.46L498.21 170.25L501.74 175.07H499.81L496.82 170.94Z" fill="black"/>
<path d="M504.78 163.84H503.16V162.18H504.78V163.84ZM504.78 175.07H503.16V166.13H504.78V175.07Z" fill="black"/>
<path d="M508.74 166.13L508.86 167.46C509.133 167.003 509.519 166.625 509.98 166.36C510.443 166.088 510.973 165.95 511.51 165.96C511.922 165.94 512.333 166.005 512.719 166.152C513.104 166.298 513.455 166.522 513.75 166.81C514.336 167.548 514.619 168.481 514.54 169.42V175.07H512.91V169.46C512.97 168.862 512.806 168.264 512.45 167.78C512.259 167.602 512.034 167.466 511.788 167.38C511.541 167.294 511.28 167.26 511.02 167.28C510.577 167.269 510.139 167.376 509.75 167.59C509.401 167.787 509.113 168.078 508.92 168.43V175.07H507.29V166.13H508.74Z" fill="black"/>
<path d="M516.62 170.76C516.559 169.533 516.881 168.317 517.54 167.28C517.823 166.861 518.206 166.521 518.656 166.29C519.105 166.06 519.605 165.946 520.11 165.96C520.63 165.952 521.144 166.068 521.61 166.3C522.047 166.539 522.419 166.882 522.69 167.3L522.89 166.14H524.18V175.14C524.209 175.626 524.135 176.112 523.962 176.567C523.79 177.022 523.523 177.435 523.18 177.78C522.368 178.441 521.335 178.77 520.29 178.7C519.821 178.695 519.355 178.634 518.9 178.52C518.442 178.415 517.998 178.254 517.58 178.04L517.83 176.77C518.191 176.955 518.574 177.093 518.97 177.18C519.396 177.279 519.832 177.329 520.27 177.33C520.898 177.386 521.524 177.192 522.01 176.79C522.205 176.564 522.353 176.302 522.446 176.019C522.538 175.736 522.574 175.437 522.55 175.14V174.14C522.285 174.495 521.943 174.786 521.55 174.99C521.104 175.19 520.619 175.289 520.13 175.28C519.641 175.306 519.153 175.213 518.708 175.007C518.264 174.801 517.876 174.49 517.58 174.1C516.928 173.195 516.603 172.094 516.66 170.98L516.62 170.76ZM518.24 170.94C518.205 171.7 518.4 172.453 518.8 173.1C518.989 173.374 519.246 173.593 519.546 173.737C519.846 173.881 520.178 173.944 520.51 173.92C520.944 173.936 521.372 173.821 521.74 173.59C522.092 173.33 522.373 172.986 522.56 172.59V168.47C522.363 168.108 522.082 167.799 521.74 167.57C521.376 167.339 520.951 167.221 520.52 167.23C520.168 167.218 519.82 167.305 519.516 167.482C519.212 167.659 518.964 167.918 518.8 168.23C518.398 169.004 518.205 169.869 518.24 170.74V170.94Z" fill="black"/>
<path d="M365.74 195.37V187.64H364.34V186.43H365.74V185.3C365.689 184.493 365.959 183.699 366.49 183.09C366.763 182.821 367.089 182.613 367.447 182.479C367.806 182.344 368.188 182.287 368.57 182.31C368.761 182.312 368.952 182.328 369.14 182.36L369.77 182.48L369.57 183.72L369.21 183.67C369.064 183.659 368.917 183.659 368.77 183.67C368.573 183.655 368.375 183.685 368.192 183.758C368.008 183.83 367.843 183.944 367.71 184.09C367.463 184.455 367.344 184.891 367.37 185.33V186.46H369V187.67H367.39V195.4L365.74 195.37Z" fill="black"/>
<path d="M370.25 190.82C370.209 189.638 370.588 188.479 371.32 187.55C371.694 187.147 372.148 186.826 372.652 186.606C373.156 186.386 373.7 186.273 374.25 186.273C374.8 186.273 375.344 186.386 375.848 186.606C376.352 186.826 376.806 187.147 377.18 187.55C377.922 188.474 378.302 189.636 378.25 190.82V191C378.304 192.184 377.924 193.347 377.18 194.27C376.806 194.671 376.353 194.991 375.85 195.21C375.347 195.429 374.804 195.542 374.255 195.542C373.706 195.542 373.164 195.429 372.66 195.21C372.157 194.991 371.704 194.671 371.33 194.27C370.585 193.347 370.201 192.185 370.25 191V190.82ZM371.88 191C371.848 191.825 372.056 192.642 372.48 193.35C372.679 193.635 372.944 193.867 373.252 194.028C373.56 194.188 373.903 194.272 374.25 194.272C374.598 194.272 374.94 194.188 375.248 194.028C375.556 193.867 375.821 193.635 376.02 193.35C376.452 192.645 376.664 191.826 376.63 191V190.82C376.663 189.997 376.451 189.182 376.02 188.48C375.832 188.182 375.568 187.939 375.255 187.775C374.943 187.612 374.592 187.534 374.24 187.55C373.89 187.532 373.542 187.608 373.232 187.772C372.922 187.936 372.662 188.18 372.48 188.48C372.057 189.185 371.849 189.998 371.88 190.82V191Z" fill="black"/>
<path d="M384.48 187.87L383.64 187.82C383.256 187.806 382.878 187.915 382.56 188.13C382.254 188.344 382.017 188.643 381.88 188.99V195.37H380.25V186.43H381.7L381.86 187.74C382.082 187.309 382.404 186.939 382.8 186.66C383.175 186.399 383.623 186.263 384.08 186.27C384.196 186.26 384.314 186.26 384.43 186.27C384.522 186.281 384.612 186.301 384.7 186.33L384.48 187.87Z" fill="black"/>
<path d="M392 187.63C392.297 187.213 392.688 186.87 393.14 186.63C393.599 186.388 394.111 186.265 394.63 186.27C395.042 186.245 395.454 186.308 395.839 186.457C396.224 186.605 396.572 186.835 396.86 187.13C397.451 187.877 397.737 188.821 397.66 189.77V195.37H396V189.75C396.047 189.166 395.876 188.585 395.52 188.12C395.337 187.935 395.117 187.792 394.873 187.7C394.63 187.609 394.369 187.571 394.11 187.59C393.669 187.581 393.233 187.68 392.84 187.88C392.486 188.062 392.186 188.335 391.97 188.67V195.37H390.35V182.48H392V187.63Z" fill="black"/>
<path d="M403.7 195.55C403.14 195.58 402.581 195.485 402.062 195.272C401.543 195.059 401.078 194.734 400.7 194.32C399.952 193.41 399.568 192.256 399.62 191.08V190.71C399.578 189.548 399.974 188.413 400.73 187.53C401.062 187.132 401.478 186.813 401.949 186.595C402.419 186.377 402.932 186.266 403.45 186.27C403.954 186.234 404.459 186.316 404.926 186.508C405.392 186.701 405.808 186.999 406.14 187.38C406.777 188.246 407.092 189.307 407.03 190.38V191.24H401.32C401.284 192.015 401.494 192.781 401.92 193.43C402.13 193.709 402.407 193.931 402.725 194.076C403.043 194.221 403.391 194.284 403.74 194.26C404.233 194.273 404.725 194.195 405.19 194.03C405.583 193.88 405.946 193.66 406.26 193.38L406.89 194.44C406.524 194.779 406.096 195.044 405.63 195.22C405.014 195.453 404.359 195.565 403.7 195.55ZM403.44 187.55C403.17 187.545 402.902 187.601 402.658 187.716C402.413 187.83 402.199 187.999 402.03 188.21C401.635 188.687 401.398 189.273 401.35 189.89H405.35V189.76C405.372 189.182 405.203 188.613 404.87 188.14C404.693 187.938 404.472 187.78 404.224 187.677C403.976 187.575 403.708 187.531 403.44 187.55V187.55Z" fill="black"/>
<path d="M414.35 195.37C414.29 195.1 414.25 194.86 414.22 194.66C414.19 194.46 414.17 194.24 414.16 194.04C413.846 194.476 413.444 194.84 412.98 195.11C412.504 195.401 411.957 195.553 411.4 195.55C411.016 195.578 410.631 195.528 410.267 195.404C409.903 195.281 409.567 195.085 409.28 194.83C409.023 194.568 408.824 194.254 408.696 193.909C408.569 193.564 408.516 193.197 408.54 192.83C408.524 192.439 408.607 192.051 408.782 191.701C408.957 191.351 409.218 191.051 409.54 190.83C410.383 190.303 411.368 190.052 412.36 190.11H414.12V189.22C414.133 188.992 414.099 188.763 414.018 188.55C413.937 188.336 413.811 188.142 413.65 187.98C413.274 187.655 412.786 187.49 412.29 187.52C411.831 187.499 411.379 187.637 411.01 187.91C410.854 188.025 410.727 188.176 410.642 188.35C410.557 188.524 410.515 188.716 410.52 188.91H409C408.995 188.562 409.076 188.217 409.234 187.907C409.393 187.597 409.625 187.33 409.91 187.13C410.623 186.569 411.513 186.282 412.42 186.32C413.302 186.279 414.17 186.552 414.87 187.09C415.182 187.368 415.426 187.713 415.585 188.1C415.745 188.486 415.815 188.903 415.79 189.32V193.62C415.79 193.94 415.79 194.25 415.79 194.55C415.825 194.845 415.885 195.136 415.97 195.42L414.35 195.37ZM411.64 194.18C412.205 194.184 412.76 194.028 413.24 193.73C413.647 193.505 413.97 193.154 414.16 192.73V191.27H412.34C411.77 191.243 411.21 191.42 410.76 191.77C410.58 191.906 410.434 192.081 410.332 192.282C410.229 192.483 410.174 192.705 410.17 192.93C410.155 193.114 410.182 193.3 410.248 193.473C410.313 193.646 410.417 193.802 410.55 193.93C410.869 194.148 411.258 194.237 411.64 194.18V194.18Z" fill="black"/>
<path d="M419.91 195.37H418.29V182.48H419.91V195.37Z" fill="black"/>
<path d="M424.68 184.28V186.43H426.38V187.64H424.68V193.07C424.649 193.386 424.742 193.702 424.94 193.95C425.128 194.121 425.375 194.214 425.63 194.21C425.736 194.224 425.844 194.224 425.95 194.21L426.24 194.13L426.46 195.25C426.3 195.369 426.115 195.451 425.92 195.49C425.693 195.557 425.457 195.591 425.22 195.59C424.929 195.604 424.639 195.558 424.367 195.455C424.095 195.352 423.848 195.194 423.64 194.99C423.209 194.463 423.001 193.788 423.06 193.11V187.68H421.63V186.47H423.06V184.32L424.68 184.28Z" fill="black"/>
<path d="M429.75 187.63C430.041 187.211 430.429 186.868 430.88 186.63C431.339 186.388 431.851 186.265 432.37 186.27C432.782 186.244 433.194 186.307 433.579 186.456C433.964 186.604 434.312 186.834 434.6 187.13C435.191 187.877 435.477 188.821 435.4 189.77V195.37H433.77V189.75C433.815 189.168 433.648 188.589 433.3 188.12C433.115 187.935 432.893 187.792 432.648 187.701C432.403 187.61 432.141 187.572 431.88 187.59C431.439 187.581 431.003 187.68 430.61 187.88C430.259 188.063 429.962 188.336 429.75 188.67V195.37H428.12V182.48H429.75V187.63Z" fill="black"/>
<path d="M240.687 124.999L126.532 10.8433L12.3767 124.999L126.532 239.154L240.687 124.999Z" fill="#2D9847"/>
<g opacity="0.15">
<path d="M126.53 227.54L24 125L126.53 22.46L229.08 125L126.53 227.54ZM27.16 125L126.53 224.38L225.91 125L126.53 25.62L27.16 125ZM126.53 214.52L92.31 180.29L118.48 154.12L93.11 128.75L75.11 146.75L87 158.65L91.92 153.72L84.92 146.72L93.07 138.57L108.58 154.09L87.38 175.37L57.46 145.44L77.91 125L57.46 104.55L87.38 74.63L108.62 95.88L93.11 111.4L85 103.25L92 96.25L87 91.35L75.1 103.25L93.1 121.25L118.47 95.88L92.31 69.71L126.53 35.48L160.76 69.71L134.59 95.88L160 121.25L178 103.25L166.11 91.35L161.18 96.28L168.18 103.28L160 111.4L144.44 95.88L165.69 74.63L195.61 104.55L175.16 125L195.61 145.45L165.69 175.36L144.44 154.12L160 138.6L168.15 146.75L161.15 153.75L166.08 158.68L178 146.75L160 128.75L134.63 154.12L160.8 180.29L126.53 214.52ZM95.53 180.29L126.58 211.35L157.64 180.29L131.47 154.12L160 125.58L181.17 146.75L166.11 161.82L158.01 153.72L165.01 146.72L160.01 141.72L147.66 154.07L165.74 172.15L192.49 145.4L172 125L192.45 104.55L165.69 77.8L147.61 95.88L160 108.23L165 103.23L158 96.23L166.1 88.13L181.16 103.2L160 124.42L131.42 95.88L157.59 69.71L126.53 38.65L95.53 69.71L121.7 95.88L93.11 124.42L71.94 103.25L87 88.18L95.09 96.28L88.09 103.28L93.09 108.28L105.44 95.93L87.38 77.8L60.63 104.55L81.07 125L60.63 145.44L87.38 172.2L105.46 154.12L93.11 141.77L88.11 146.77L95.11 153.77L87 161.82L71.94 146.75L93.11 125.58L121.65 154.12L95.53 180.29ZM200.58 140.52L185 125L200.51 109.48L216.05 125L200.58 140.52ZM188.19 125L200.53 137.35L212.88 125L200.53 112.65L188.19 125ZM52.53 140.52L37 125L52.51 109.48L68.05 125L52.53 140.52ZM40.18 125L52.53 137.35L64.88 125L52.53 112.65L40.18 125Z" fill="white"/>
<path d="M126.53 204L102.53 180L126.53 156L150.53 180L126.53 204ZM105.69 180L126.53 200.84L147.38 180L126.53 159.15L105.69 180Z" fill="white"/>
<path d="M126.53 93.4099L102.53 69.4099L126.53 45.4099L150.53 69.4099L126.53 93.4099ZM105.69 69.4099L126.53 90.2499L147.38 69.3999L126.53 48.5599L105.69 69.4099Z" fill="white"/>
</g>
<path d="M12.96 125L126.65 238.69H527.93L641.62 125L527.93 11.3101H126.65L12.96 125Z" stroke="#2D9847" stroke-width="2.6" stroke-miterlimit="10"/>
<path d="M354.08 115.7C353.038 115.146 352.167 114.32 351.559 113.309C350.951 112.297 350.63 111.14 350.63 109.96C350.63 108.78 350.951 107.623 351.559 106.612C352.167 105.6 353.038 104.774 354.08 104.22C355.183 103.639 356.413 103.343 357.66 103.36C358.903 103.34 360.132 103.636 361.23 104.22C362.261 104.766 363.125 105.582 363.73 106.58C364.326 107.607 364.64 108.773 364.64 109.96C364.64 111.147 364.326 112.313 363.73 113.34C363.125 114.338 362.261 115.154 361.23 115.7C360.132 116.284 358.903 116.58 357.66 116.56C356.413 116.577 355.183 116.281 354.08 115.7V115.7ZM359.7 113.52C360.303 113.18 360.799 112.678 361.13 112.07C361.472 111.419 361.65 110.695 361.65 109.96C361.65 109.225 361.472 108.501 361.13 107.85C360.801 107.24 360.305 106.737 359.7 106.4C359.074 106.059 358.373 105.88 357.66 105.88C356.947 105.88 356.246 106.059 355.62 106.4C355.017 106.74 354.521 107.242 354.19 107.85C353.848 108.501 353.67 109.225 353.67 109.96C353.67 110.695 353.848 111.419 354.19 112.07C354.524 112.676 355.019 113.177 355.62 113.52C356.246 113.861 356.947 114.04 357.66 114.04C358.373 114.04 359.074 113.861 359.7 113.52Z" fill="#2D9847"/>
<path d="M369.82 106V109.37H375.72V111.74H369.82V116.39H366.82V103.58H376.46V106H369.82Z" fill="#2D9847"/>
<path d="M381.46 106V109.37H387.37V111.74H381.46V116.39H378.51V103.58H388.15V106H381.46Z" fill="#2D9847"/>
<path d="M390.15 103.58H393.15V116.34H390.15V103.58Z" fill="#2D9847"/>
<path d="M398.71 115.71C397.685 115.167 396.828 114.354 396.23 113.36C395.64 112.324 395.33 111.152 395.33 109.96C395.33 108.768 395.64 107.596 396.23 106.56C396.824 105.563 397.683 104.75 398.71 104.21C399.799 103.632 401.017 103.34 402.25 103.36C403.28 103.346 404.302 103.547 405.25 103.95C406.123 104.319 406.894 104.892 407.5 105.62L405.6 107.37C405.212 106.898 404.723 106.519 404.169 106.261C403.616 106.003 403.011 105.873 402.4 105.88C401.66 105.865 400.929 106.045 400.28 106.4C399.669 106.736 399.166 107.239 398.83 107.85C398.488 108.501 398.31 109.225 398.31 109.96C398.31 110.695 398.488 111.419 398.83 112.07C399.169 112.679 399.671 113.181 400.28 113.52C400.929 113.875 401.66 114.055 402.4 114.04C403.013 114.051 403.621 113.92 404.176 113.658C404.731 113.396 405.218 113.01 405.6 112.53L407.5 114.28C406.894 115.017 406.118 115.597 405.24 115.97C404.291 116.371 403.27 116.572 402.24 116.56C401.011 116.576 399.797 116.284 398.71 115.71V115.71Z" fill="#2D9847"/>
<path d="M409.49 103.58H412.44V116.34H409.49V103.58Z" fill="#2D9847"/>
<path d="M423.86 113.6H417.94L416.81 116.34H413.81L419.5 103.58H422.42L428.12 116.34H425L423.86 113.6ZM422.93 111.36L420.93 106.48L418.93 111.36H422.93Z" fill="#2D9847"/>
<path d="M429.42 103.58H432.37V113.93H438.77V116.34H429.42V103.58Z" fill="#2D9847"/>
<path d="M441.62 116.15C440.805 115.933 440.036 115.57 439.35 115.08L440.35 112.86C440.94 113.3 441.599 113.638 442.3 113.86C443.03 114.1 443.792 114.225 444.56 114.23C445.2 114.272 445.839 114.14 446.41 113.85C446.593 113.755 446.746 113.612 446.852 113.435C446.958 113.258 447.013 113.056 447.01 112.85C447.01 112.706 446.979 112.563 446.918 112.432C446.858 112.3 446.77 112.184 446.66 112.09C446.39 111.873 446.081 111.71 445.75 111.61C445.38 111.49 444.88 111.36 444.25 111.21C443.44 111.029 442.642 110.798 441.86 110.52C441.242 110.29 440.692 109.908 440.26 109.41C439.806 108.845 439.571 108.134 439.6 107.41C439.594 106.698 439.804 106.001 440.2 105.41C440.653 104.769 441.281 104.272 442.01 103.98C442.963 103.599 443.984 103.419 445.01 103.45C445.812 103.451 446.611 103.548 447.39 103.74C448.095 103.918 448.769 104.202 449.39 104.58L448.48 106.82C447.41 106.187 446.193 105.843 444.95 105.82C444.311 105.778 443.674 105.917 443.11 106.22C442.929 106.331 442.78 106.487 442.677 106.673C442.573 106.858 442.519 107.068 442.52 107.28C442.509 107.499 442.571 107.716 442.696 107.897C442.821 108.077 443.001 108.212 443.21 108.28C443.878 108.567 444.575 108.778 445.29 108.91C446.101 109.091 446.9 109.325 447.68 109.61C448.293 109.834 448.84 110.209 449.27 110.7C449.737 111.259 449.976 111.973 449.94 112.7C449.943 113.413 449.73 114.11 449.33 114.7C448.869 115.342 448.234 115.838 447.5 116.13C446.546 116.509 445.526 116.689 444.5 116.66C443.521 116.624 442.552 116.452 441.62 116.15V116.15Z" fill="#2D9847"/>
<path d="M353.18 51.73V86.35H345.18V58.16H338.25V51.73H353.18Z" fill="#2D9847"/>
<path d="M367.23 78.46C367.678 78.9105 368.028 79.4485 368.259 80.0403C368.489 80.6322 368.595 81.2653 368.57 81.9C368.567 82.5743 368.483 83.2458 368.32 83.9C368.026 84.9237 367.661 85.9261 367.23 86.9L364.41 94H359.51L361.69 86.14C360.883 85.8283 360.199 85.2634 359.74 84.53C359.25 83.7528 359 82.8486 359.02 81.93C358.994 81.2934 359.101 80.6584 359.335 80.0659C359.57 79.4734 359.926 78.9366 360.38 78.49C360.838 78.0547 361.378 77.7147 361.969 77.4898C362.559 77.2649 363.188 77.1596 363.82 77.18C364.445 77.1546 365.069 77.2548 365.655 77.4747C366.24 77.6945 366.776 78.0296 367.23 78.46V78.46Z" fill="#2D9847"/>
<path d="M395.82 69.21C397.446 71.0008 398.313 73.3525 398.24 75.77C398.25 77.7355 397.702 79.6636 396.66 81.33C395.487 83.1318 393.811 84.5503 391.84 85.41C389.343 86.5192 386.631 87.0622 383.9 87C381.466 86.9927 379.044 86.6563 376.7 86C374.553 85.4512 372.521 84.5233 370.7 83.26L373.82 77.12C375.2 78.1427 376.746 78.9207 378.39 79.42C380.11 79.9664 381.905 80.243 383.71 80.24C385.373 80.3275 387.025 79.9241 388.46 79.08C389.009 78.7292 389.458 78.2414 389.761 77.6644C390.065 77.0875 390.212 76.4414 390.19 75.79C390.19 72.95 388.03 71.53 383.71 71.53H380V66.22L387.12 58.16H372.42V51.73H396.66V56.92L388.84 65.83C391.484 66.1272 393.947 67.3199 395.82 69.21V69.21Z" fill="#2D9847"/>
<path d="M424.13 67.66C425.273 68.6059 426.182 69.8026 426.788 71.1571C427.393 72.5116 427.678 73.9875 427.62 75.47C427.628 77.5036 427.067 79.4989 426 81.23C424.834 83.0575 423.158 84.5037 421.18 85.3899C418.664 86.5028 415.93 87.0359 413.18 86.9499C410.746 86.9427 408.324 86.6063 405.98 85.9499C403.833 85.4012 401.801 84.4733 399.98 83.2099L403.15 77.07C404.524 78.0906 406.063 78.8685 407.7 79.37C409.41 79.9177 411.195 80.1944 412.99 80.19C414.67 80.2869 416.34 79.872 417.78 79C418.33 78.6446 418.778 78.1529 419.081 77.5728C419.384 76.9928 419.532 76.3441 419.51 75.69C419.543 75.0181 419.392 74.35 419.073 73.7578C418.754 73.1656 418.279 72.6718 417.7 72.33C416.5 71.57 414.41 71.19 411.45 71.19H402.59L404.38 51.7H425.49V58.13H411.05L410.51 64.7099H413.33C418.21 64.7299 421.81 65.7133 424.13 67.66Z" fill="#2D9847"/>
<path d="M438.06 84.82C435.746 83.318 433.916 81.1787 432.79 78.66C431.451 75.6339 430.802 72.3478 430.89 69.04C430.804 65.7322 431.453 62.4466 432.79 59.4199C433.916 56.9013 435.746 54.7619 438.06 53.2599C440.376 51.873 443.025 51.1405 445.725 51.1405C448.425 51.1405 451.074 51.873 453.39 53.2599C455.704 54.7619 457.534 56.9013 458.66 59.4199C459.997 62.4466 460.646 65.7322 460.56 69.04C460.648 72.3478 459.999 75.6339 458.66 78.66C457.534 81.1787 455.704 83.318 453.39 84.82C451.076 86.2132 448.426 86.9494 445.725 86.9494C443.024 86.9494 440.374 86.2132 438.06 84.82V84.82ZM450.7 77.4499C451.9 75.6399 452.5 72.83 452.5 69.04C452.5 65.25 451.9 62.45 450.7 60.63C450.171 59.7956 449.44 59.1084 448.575 58.6322C447.709 58.1561 446.738 57.9064 445.75 57.9064C444.762 57.9064 443.79 58.1561 442.925 58.6322C442.06 59.1084 441.329 59.7956 440.8 60.63C439.6 62.45 439 65.24 439 69C439 72.79 439.6 75.6 440.8 77.41C441.329 78.2443 442.06 78.9315 442.925 79.4077C443.79 79.8839 444.762 80.1335 445.75 80.1335C446.738 80.1335 447.709 79.8839 448.575 79.4077C449.44 78.9315 450.171 78.2443 450.7 77.41V77.4499Z" fill="#2D9847"/>
<path d="M149.64 150.8C149.598 151.623 149.804 152.44 150.231 153.144C150.658 153.849 151.286 154.41 152.035 154.754C152.784 155.098 153.618 155.209 154.431 155.074C155.244 154.939 155.998 154.563 156.595 153.995C157.192 153.427 157.605 152.693 157.78 151.888C157.956 151.083 157.886 150.244 157.58 149.479C157.273 148.714 156.745 148.058 156.062 147.597C155.379 147.135 154.574 146.889 153.75 146.89C152.691 146.879 151.669 147.281 150.902 148.011C150.134 148.741 149.682 149.742 149.64 150.8V150.8ZM151.89 150.8C151.89 150.304 152.087 149.828 152.438 149.478C152.789 149.127 153.264 148.93 153.76 148.93C154.256 148.93 154.732 149.127 155.082 149.478C155.433 149.828 155.63 150.304 155.63 150.8C155.63 151.296 155.433 151.772 155.082 152.122C154.732 152.473 154.256 152.67 153.76 152.67C153.264 152.67 152.789 152.473 152.438 152.122C152.087 151.772 151.89 151.296 151.89 150.8Z" fill="white"/>
<path d="M70.51 160.56C70.51 161.23 71.04 161.65 71.96 161.65H181.13C182.01 161.65 182.54 161.25 182.56 160.6C182.58 159.95 182.03 159.51 181.1 159.5C179.55 159.5 178 159.5 176.45 159.5C175.91 159.5 175.8 159.36 175.81 158.87C176.01 152.87 176.18 146.8 176.36 140.77C176.518 139.248 176.402 137.711 176.02 136.23C175.63 135.07 174.985 134.013 174.134 133.134C173.283 132.255 172.246 131.577 171.1 131.15C169.3 130.39 167.51 129.61 165.7 128.87C165.143 128.604 164.636 128.246 164.2 127.81C166 127.21 167.76 126.69 169.44 126C170.35 125.62 171.27 125.25 172.17 124.84C172.322 124.804 172.463 124.734 172.582 124.634C172.702 124.535 172.797 124.408 172.859 124.266C172.921 124.123 172.949 123.967 172.94 123.812C172.932 123.657 172.887 123.505 172.81 123.37C170.9 118.56 170.58 113.53 170.54 108.46C170.636 106.244 170.553 104.023 170.29 101.82C169.906 99.5368 169.022 97.3667 167.701 95.4651C166.38 93.5634 164.655 91.9772 162.65 90.82C160.624 89.5821 158.357 88.7912 156 88.5C155.86 88.5 155.69 88.5 155.61 88.35H152.16C151.27 88.54 150.38 88.71 149.49 88.92C146.418 89.6542 143.627 91.267 141.457 93.5613C139.287 95.8557 137.832 98.7324 137.27 101.84C136.83 104.74 137.1 107.66 137 110.56C136.97 114.503 136.367 118.421 135.21 122.19C135.1 122.53 134.96 122.86 134.83 123.19C134.48 124.1 134.67 124.55 135.59 124.96C138.017 126.035 140.508 126.957 143.05 127.72L143.31 127.82C143 128.226 142.585 128.541 142.11 128.73L136.51 131.11C132.67 132.74 130.91 135.45 131.03 139.46C131.23 145.9 131.4 152.34 131.61 158.78C131.61 159.37 131.5 159.54 130.86 159.52C129.44 159.47 128.01 159.52 126.59 159.52C125.17 159.52 123.59 159.52 122.05 159.52C121.51 159.52 121.4 159.38 121.41 158.88C121.61 152.88 121.77 146.82 121.96 140.78C122.117 139.262 122.002 137.728 121.62 136.25C121.23 135.09 120.585 134.033 119.734 133.154C118.883 132.275 117.846 131.597 116.7 131.17C114.9 130.41 113.11 129.63 111.3 128.89C110.965 128.745 110.652 128.553 110.37 128.32C110.37 128.32 108.27 126.23 107.6 126.23C107.019 126.145 106.426 126.28 105.94 126.61L105.48 123.95C106.276 123.622 107.039 123.22 107.76 122.75C110.416 121.151 112.63 118.914 114.202 116.242C115.773 113.57 116.653 110.548 116.76 107.45C117.1 100.35 112.64 94.7 105.48 92.71C103.541 92.2065 101.543 91.9677 99.54 92C93.45 92.27 88.08 94.76 85.08 100.85C83.5632 104.055 83.3062 107.714 84.36 111.1C85.5472 115.73 88.3943 119.762 92.36 122.43C92.71 122.67 93.07 122.89 93.43 123.1L92.82 126.65C92.4149 126.34 91.9475 126.122 91.45 126.01C90.45 125.95 88.34 128.3 88.34 128.3C88.1259 128.467 87.8905 128.605 87.64 128.71L82 131.11C78.17 132.73 76.4 135.45 76.53 139.46C76.73 145.9 76.9 152.34 77.11 158.78C77.11 159.37 77 159.54 76.36 159.52C74.89 159.47 73.36 159.52 71.93 159.52C71.05 159.51 70.53 159.9 70.51 160.56ZM168.3 106.56C168.3 106.94 168.13 106.91 167.84 106.85C167.344 106.723 166.827 106.706 166.324 106.801C165.821 106.896 165.345 107.101 164.93 107.4C164.69 107.58 164.51 107.6 164.31 107.4C164.11 107.2 163.67 106.73 163.38 106.4C162.74 105.61 162.16 105.4 161.57 105.82C160.98 106.24 160.96 106.82 161.57 107.7C162.078 108.389 162.688 108.996 163.38 109.5C163.549 109.685 163.757 109.831 163.989 109.927C164.22 110.023 164.47 110.068 164.721 110.057C164.971 110.047 165.216 109.982 165.439 109.866C165.662 109.751 165.857 109.588 166.01 109.39C166.157 109.239 166.335 109.123 166.532 109.048C166.729 108.974 166.94 108.944 167.15 108.96C167.88 109.05 168.28 109.66 168.29 110.66C168.3 111.66 167.94 112.38 167.17 112.5C167 112.5 166.82 112.5 166.65 112.5C166.17 112.529 165.71 112.703 165.331 113C164.953 113.296 164.673 113.701 164.53 114.16C164.43 114.48 164.36 114.81 164.27 115.16C163.591 117.418 162.192 119.391 160.288 120.781C158.384 122.171 156.077 122.901 153.72 122.86C148.51 122.74 144.17 119.39 143.16 114.72C142.53 111.84 143.38 110.31 146.24 109.2C148.04 108.5 149.92 108.01 151.78 107.48C155.774 106.501 159.496 104.634 162.67 102.02C163.35 101.41 163.48 100.79 163.01 100.28C162.54 99.77 161.89 99.78 161.22 100.37C158.486 102.658 155.279 104.311 151.83 105.21C149.525 105.81 147.252 106.528 145.02 107.36C142.02 108.61 140.58 110.6 140.72 113.36C140.786 115.031 141.223 116.666 142 118.146C142.776 119.627 143.873 120.916 145.21 121.92C145.714 122.226 146.116 122.674 146.367 123.208C146.618 123.741 146.706 124.337 146.62 124.92C146.526 125.265 146.31 125.565 146.013 125.764C145.715 125.962 145.355 126.046 145 126C142.488 125.318 140.023 124.473 137.62 123.47C137.26 123.33 137.18 123.17 137.3 122.83C137.5 122.25 137.7 121.66 137.86 121.06C138.928 116.674 139.392 112.162 139.24 107.65C139.24 106.65 139.24 105.6 139.24 104.58C139.231 102.771 139.579 100.979 140.266 99.3053C140.952 97.6319 141.963 96.111 143.24 94.83C149.57 88.28 161.05 89.32 166.02 96.83C167.801 99.7386 168.6 103.143 168.3 106.54V106.56ZM154.06 134.14C153.75 134.62 153.63 134.38 153.42 134.09C152.597 132.809 151.692 131.583 150.71 130.42C149.981 129.699 149.431 128.816 149.104 127.844C148.778 126.871 148.684 125.835 148.83 124.82C148.91 124.24 148.89 124.03 149.6 124.27C151.936 125.033 154.435 125.148 156.83 124.6C157.43 124.47 158.22 123.9 158.54 124.24C158.86 124.58 158.61 125.41 158.61 126.02C158.61 126.63 158.93 127.55 158.41 128.25C156.94 130.18 155.41 132.09 154.06 134.12V134.14ZM157.98 132.47C158.65 131.61 159.28 130.72 159.98 129.87C160.39 129.35 160.69 128.42 161.24 128.41C161.79 128.4 162.31 129.17 162.85 129.59L162.91 129.64C163.17 129.8 163.17 129.98 163.03 130.24C162.45 131.31 161.9 132.4 161.31 133.47C161.21 133.696 161.043 133.887 160.833 134.017C160.622 134.147 160.377 134.211 160.13 134.2C159.27 134.13 158.77 133.47 158.13 133.08C157.76 132.88 157.77 132.71 158 132.45L157.98 132.47ZM149.69 132.88C149.055 133.441 148.328 133.888 147.54 134.2C147.265 134.224 146.989 134.163 146.749 134.026C146.509 133.888 146.318 133.68 146.2 133.43C145.88 132.85 145.57 132.25 145.26 131.66C144.26 129.82 144.26 129.82 145.97 128.54H146.03C146.25 128.28 146.41 128.36 146.59 128.61C147.59 129.93 148.59 131.23 149.59 132.55C149.63 132.59 149.77 132.68 149.69 132.86V132.88ZM162.78 126C162.57 126.08 162.343 126.107 162.119 126.079C161.896 126.052 161.683 125.969 161.498 125.84C161.314 125.711 161.164 125.539 161.061 125.338C160.959 125.138 160.907 124.915 160.91 124.69V124.09C160.72 123.35 161.09 122.78 161.91 122.2C164.127 120.638 165.721 118.343 166.41 115.72C166.61 115 166.8 114.63 167.73 114.47C168.66 114.31 168.57 114.63 168.63 115.18C168.858 117.769 169.385 120.322 170.2 122.79C170.36 123.25 170.2 123.4 169.81 123.57C167.512 124.505 165.165 125.316 162.78 126V126ZM171.36 134.47C170.22 135.77 169.12 137.1 168.03 138.47C167.914 138.622 167.762 138.743 167.587 138.822C167.412 138.9 167.221 138.934 167.03 138.92C162.58 138.92 158.13 138.92 153.68 138.92C149.23 138.92 144.83 138.92 140.4 138.92C140.195 138.938 139.99 138.904 139.802 138.82C139.615 138.736 139.452 138.605 139.33 138.44C138.26 137.12 137.18 135.81 136.05 134.54C135.61 134.05 135.77 133.84 136.27 133.62L140.83 131.62C142.37 130.96 142.36 130.97 143.13 132.4C143.555 133.367 144.078 134.289 144.69 135.15C145.025 135.517 145.431 135.814 145.882 136.023C146.333 136.232 146.821 136.349 147.318 136.368C147.815 136.387 148.311 136.306 148.776 136.131C149.242 135.957 149.668 135.691 150.03 135.35C151.03 134.57 151.03 134.62 151.77 135.57C151.975 135.881 152.249 136.139 152.572 136.324C152.894 136.51 153.256 136.617 153.627 136.637C153.999 136.658 154.37 136.591 154.71 136.442C155.051 136.293 155.353 136.066 155.59 135.78C155.91 135.42 156.07 134.72 156.49 134.78C156.91 134.84 157.34 135.29 157.76 135.59C158.187 135.949 158.692 136.204 159.234 136.336C159.776 136.469 160.342 136.474 160.887 136.352C161.431 136.23 161.94 135.984 162.375 135.634C162.809 135.283 163.156 134.837 163.39 134.33C163.91 133.38 164.39 132.41 164.9 131.46C165 131.27 165.04 131.01 165.43 131.18C167.35 132.04 169.28 132.86 171.21 133.69C171.7 133.83 171.69 134.06 171.36 134.45V134.47ZM170.2 139.27L173.26 135.63C173.927 136.67 174.243 137.897 174.16 139.13L173.86 149.36C173.76 152.58 173.66 155.8 173.58 159.02C173.58 159.42 173.46 159.55 173.04 159.53C172.19 159.53 171.34 159.53 170.49 159.53C170.57 158.95 170.66 158.46 170.69 157.96C170.99 152.893 171.287 147.823 171.58 142.75C171.638 142.19 171.56 141.624 171.35 141.102C171.141 140.579 170.808 140.115 170.38 139.75C170.25 139.58 170 139.5 170.2 139.25V139.27ZM140 141H167.6C168.94 141 169.4 141.48 169.33 142.74C169.03 147.72 168.74 152.697 168.46 157.67C168.37 159.16 168.02 159.49 166.46 159.49H142.46C141.81 159.49 141.15 159.49 140.46 159.49C140.138 159.513 139.819 159.41 139.572 159.203C139.324 158.996 139.165 158.701 139.13 158.38C139.08 158.025 139.05 157.668 139.04 157.31C138.76 152.497 138.477 147.687 138.19 142.88C138.11 141.47 138.51 141 140 141ZM133.23 139C133.158 137.814 133.478 136.637 134.14 135.65C135.14 136.84 136.14 138 137.14 139.14C137.38 139.42 137.38 139.57 137.08 139.83C136.688 140.186 136.384 140.63 136.195 141.125C136.006 141.62 135.936 142.153 135.99 142.68C136.24 146.96 136.47 151.25 136.75 155.53C136.739 156.873 136.87 158.214 137.14 159.53C136.24 159.53 135.39 159.53 134.55 159.53C133.96 159.53 133.86 159.36 133.85 158.85C133.85 155.97 133.7 153.08 133.61 150.2C133.44 146.45 133.32 142.71 133.22 139H133.23ZM95.1 132.49C95.18 132.59 95.32 132.68 95.24 132.86C94.6037 133.419 93.8766 133.866 93.09 134.18C92.8147 134.204 92.5386 134.143 92.2989 134.006C92.0593 133.868 91.8677 133.66 91.75 133.41C91.43 132.83 91.12 132.23 90.75 131.64C89.75 129.8 89.75 129.8 91.47 128.52C91.5194 128.457 91.5851 128.408 91.66 128.38H91.8C91.8969 128.432 91.9793 128.508 92.04 128.6C93.12 129.87 94.11 131.17 95.1 132.49ZM95 128.58L95.75 124.2C98.0768 125.037 100.59 125.21 103.01 124.7L103.67 128.53C103.494 128.696 103.354 128.897 103.26 129.12C102.01 130.76 100.74 132.39 99.6 134.12C99.29 134.6 99.17 134.36 98.96 134.07C98.1339 132.791 97.2288 131.566 96.25 130.4C95.7474 129.857 95.3264 129.244 95 128.58V128.58ZM94.7 120.58C92.4005 119.208 90.4701 117.296 89.0761 115.01C87.6821 112.724 86.8665 110.132 86.7 107.46C86.59 106.29 86.7 106.27 87.86 106.38C90.7444 106.785 93.6717 106.03 96 104.28C96.48 103.92 96.68 104.12 97 104.42C99.321 106.582 102.23 108.008 105.36 108.52C108.195 108.907 111.081 108.678 113.82 107.85C113.573 110.418 112.745 112.895 111.399 115.096C110.053 117.296 108.224 119.161 106.05 120.55C104.365 121.66 102.394 122.258 100.375 122.271C98.3572 122.283 96.3788 121.71 94.68 120.62L94.7 120.58ZM108.58 130.18C108 131.25 107.44 132.34 106.86 133.41C106.759 133.638 106.591 133.83 106.379 133.96C106.166 134.091 105.919 134.153 105.67 134.14C104.81 134.07 104.31 133.41 103.67 133.02C103.36 132.84 103.37 132.67 103.58 132.41C104.25 131.55 104.88 130.66 105.58 129.81C105.843 129.354 106.14 128.92 106.47 128.51L106.84 128.35C107.37 128.35 107.91 129.11 108.45 129.53C108.45 129.53 108.45 129.53 108.51 129.58C108.7 129.78 108.7 130 108.56 130.22L108.58 130.18ZM116.92 134.41C115.79 135.72 114.69 137.04 113.6 138.41C113.484 138.562 113.332 138.683 113.157 138.762C112.982 138.84 112.791 138.874 112.6 138.86C108.15 138.86 103.69 138.86 99.25 138.86C94.81 138.86 90.4 138.86 85.97 138.86C85.7654 138.879 85.5593 138.845 85.3718 138.761C85.1843 138.677 85.0217 138.546 84.9 138.38C83.83 137.06 82.75 135.75 81.62 134.48C81.18 133.98 81.34 133.78 81.84 133.56L86.4 131.56C87.94 130.9 87.93 130.91 88.7 132.34C89.1253 133.307 89.648 134.229 90.26 135.09C90.5954 135.457 91.0005 135.754 91.4517 135.963C91.9029 136.172 92.3912 136.289 92.8881 136.308C93.3851 136.327 93.8808 136.246 94.3463 136.071C94.8119 135.897 95.2381 135.631 95.6 135.29C96.6 134.51 96.6 134.56 97.34 135.51C97.5446 135.821 97.8192 136.079 98.1417 136.264C98.4642 136.45 98.8257 136.557 99.1971 136.577C99.5685 136.598 99.9396 136.531 100.28 136.382C100.621 136.233 100.923 136.006 101.16 135.72C101.48 135.36 101.64 134.66 102.05 134.72C102.46 134.78 102.91 135.23 103.33 135.53C103.758 135.889 104.262 136.144 104.804 136.276C105.346 136.409 105.912 136.414 106.457 136.292C107.001 136.17 107.51 135.924 107.945 135.574C108.379 135.223 108.726 134.777 108.96 134.27C109.47 133.32 109.96 132.35 110.47 131.4C110.57 131.21 110.6 130.95 110.99 131.12C112.91 131.98 114.85 132.8 116.78 133.63C117.25 133.83 117.24 134.06 116.9 134.45L116.92 134.41ZM115.77 139.21L118.83 135.56C119.485 136.609 119.799 137.835 119.73 139.07C119.62 142.48 119.53 145.89 119.43 149.3C119.33 152.52 119.23 155.74 119.15 158.96C119.15 159.36 119.03 159.49 118.6 159.47C117.76 159.47 116.91 159.47 116.06 159.47C116.14 158.89 116.23 158.4 116.26 157.9C116.56 152.833 116.857 147.763 117.15 142.69C117.211 142.13 117.133 141.563 116.924 141.04C116.715 140.517 116.38 140.054 115.95 139.69C115.79 139.58 115.54 139.5 115.75 139.25L115.77 139.21ZM85.54 141H113.15C114.49 141 114.95 141.48 114.88 142.74C114.58 147.72 114.287 152.697 114 157.67C113.92 159.16 113.56 159.49 112 159.49H88C87.35 159.49 86.7 159.49 86 159.49C85.6779 159.513 85.3595 159.41 85.1115 159.203C84.8636 158.996 84.7054 158.701 84.67 158.38C84.6198 158.025 84.5897 157.668 84.58 157.31C84.3 152.497 84.0167 147.687 83.73 142.88C83.66 141.47 84.06 141 85.54 141ZM78.77 139C78.6979 137.814 79.0176 136.637 79.68 135.65C80.68 136.84 81.68 138 82.63 139.14C82.87 139.42 82.86 139.57 82.57 139.83C82.1756 140.185 81.8712 140.628 81.6817 141.124C81.4922 141.619 81.4231 142.153 81.48 142.68C81.73 146.96 81.96 151.25 82.24 155.53C82.2298 156.873 82.3605 158.214 82.63 159.53C81.73 159.53 80.88 159.53 80.03 159.53C79.45 159.53 79.35 159.36 79.34 158.85C79.28 155.97 79.19 153.09 79.1 150.2C79 146.45 78.87 142.71 78.77 139V139Z" fill="white"/>
<path d="M95.1899 150.8C95.1479 151.623 95.3539 152.44 95.7812 153.145C96.2085 153.85 96.8375 154.411 97.5869 154.755C98.3362 155.099 99.1715 155.21 99.9846 155.073C100.798 154.937 101.551 154.56 102.148 153.992C102.745 153.423 103.157 152.688 103.331 151.882C103.506 151.076 103.434 150.237 103.127 149.472C102.819 148.707 102.289 148.052 101.605 147.592C100.921 147.132 100.114 146.887 99.2899 146.89C98.2317 146.879 97.211 147.281 96.4452 148.012C95.6794 148.742 95.229 149.742 95.1899 150.8V150.8ZM97.4299 150.8C97.4645 150.326 97.6771 149.883 98.0249 149.56C98.3727 149.237 98.83 149.057 99.3049 149.057C99.7798 149.057 100.237 149.237 100.585 149.56C100.933 149.883 101.145 150.326 101.18 150.8C101.145 151.274 100.933 151.717 100.585 152.04C100.237 152.363 99.7798 152.543 99.3049 152.543C98.83 152.543 98.3727 152.363 98.0249 152.04C97.6771 151.717 97.4645 151.274 97.4299 150.8V150.8Z" fill="white"/>
</svg>
