<svg width="654" height="250" viewBox="0 0 654 250" fill="none" xmlns="http://www.w3.org/2000/svg">
<g clip-path="url(#clip0_61_998)">
<g opacity="0.3">
<g opacity="0.4">
<path d="M-107.29 1028.54L-18.9999 940.27L319.57 601.69L-18.9999 263.1L-107.27 174.83L-534.15 601.69L-107.29 1028.54ZM-420.17 542.78L-361.26 601.69L-420.17 660.59L-479.08 601.69L-420.17 542.78ZM205.59 660.59L146.68 601.69L205.59 542.78L264.5 601.69L205.59 660.59ZM-46.5499 912.73L-107.29 973.47L-245.29 835.47L-134.63 724.81L-248.63 610.81L-331.46 693.64L-274.46 750.64L-246.93 723.11L-276.38 693.66L-248.62 665.9L-189.72 724.81L-272.84 807.93L-392.64 688.13L-306.2 601.69L-392.64 515.24L-272.84 395.44L-189.72 478.56L-248.62 537.47L-276.38 509.71L-246.93 480.26L-274.46 452.72L-331.46 509.72L-248.63 592.55L-134.63 478.55L-245.29 367.9L-168 290.64L-107.26 229.9L-46.5199 290.64L30.7101 367.9L-79.9399 478.56L34.0601 592.56L116.89 509.73L59.8901 452.73L32.3301 480.26L61.7901 509.71L34.0001 537.47L-24.9099 478.56L58.2201 395.44L178.02 515.24L91.6101 601.69L178.05 688.13L58.2501 807.93L-24.8799 724.81L34.0001 665.9L61.7601 693.66L32.3301 723.11L59.8701 750.65L116.87 693.65L34.0001 610.83L-79.9999 724.83L30.7101 835.47L-46.5499 912.73Z" stroke="#2681D6" stroke-width="1.62" stroke-miterlimit="10"/>
</g>
</g>
<path d="M12.6499 125L126.45 238.8H528.13L641.93 125L528.13 11.2H126.45L12.6499 125Z" stroke="#2D9847" stroke-width="2.61" stroke-miterlimit="10"/>
<path d="M336.57 86.1499C337.356 86.4838 338.026 87.04 338.5 87.7499C338.945 88.4934 339.18 89.3435 339.18 90.2099C339.18 91.0763 338.945 91.9265 338.5 92.6699C338.032 93.3848 337.359 93.9423 336.57 94.2699C335.642 94.6664 334.639 94.8574 333.63 94.8299H331.06V98.3499H328.06V85.5799H333.59C334.613 85.5498 335.63 85.7444 336.57 86.1499V86.1499ZM335.49 91.8499C335.722 91.6494 335.906 91.3981 336.025 91.1154C336.145 90.8328 336.198 90.5264 336.18 90.2199C336.199 89.909 336.146 89.5979 336.027 89.3103C335.907 89.0226 335.724 88.766 335.49 88.5599C334.908 88.1468 334.202 87.9456 333.49 87.9899H331.08V92.4199H333.49C334.202 92.4643 334.908 92.2631 335.49 91.8499Z" fill="#2D9847"/>
<path d="M349.41 98.35L346.94 94.79H344.23V98.35H341.23V85.58H346.76C347.77 85.5557 348.773 85.7502 349.7 86.15C350.485 86.4839 351.156 87.04 351.63 87.75C352.09 88.4902 352.323 89.3489 352.3 90.22C352.324 91.0864 352.087 91.9401 351.62 92.67C351.142 93.3749 350.467 93.9242 349.68 94.25L352.54 98.35H349.41ZM348.66 88.56C348.078 88.1476 347.372 87.9465 346.66 87.99H344.26V92.44H346.66C347.374 92.4856 348.081 92.2805 348.66 91.86C348.878 91.6443 349.052 91.3873 349.17 91.1041C349.288 90.8209 349.349 90.517 349.349 90.21C349.349 89.9031 349.288 89.5992 349.17 89.316C349.052 89.0327 348.878 88.7758 348.66 88.56V88.56Z" fill="#2D9847"/>
<path d="M354.68 85.58H357.63V98.35H354.68V85.58Z" fill="#2D9847"/>
<path d="M372.28 98.35V90.69L368.51 97H367.18L363.43 90.85V98.35H360.66V85.58H363.11L367.89 93.52L372.59 85.58H375V98.35H372.28Z" fill="#2D9847"/>
<path d="M386.49 95.62H380.56L379.43 98.35H376.43L382.12 85.58H385L390.71 98.35H387.61L386.49 95.62ZM385.56 93.37L383.56 88.48L381.56 93.37H385.56Z" fill="#2D9847"/>
<path d="M400.19 98.3499L397.73 94.7899H395V98.3499H392V85.5799H397.53C398.543 85.557 399.549 85.7514 400.48 86.1499C401.261 86.487 401.928 87.0426 402.4 87.7499C402.863 88.4891 403.1 89.3478 403.08 90.2199C403.104 91.0758 402.865 91.9183 402.394 92.6337C401.924 93.3491 401.245 93.9028 400.45 94.2199L403.31 98.3199L400.19 98.3499ZM399.44 88.5599C398.858 88.1468 398.152 87.9456 397.44 87.9899H395V92.4399H397.41C398.124 92.4864 398.832 92.2811 399.41 91.8599C399.628 91.6442 399.802 91.3872 399.92 91.104C400.038 90.8208 400.099 90.5169 400.099 90.2099C400.099 89.903 400.038 89.5991 399.92 89.3159C399.802 89.0327 399.628 88.7757 399.41 88.5599H399.44Z" fill="#2D9847"/>
<path d="M411.4 93.83V98.35H408.45V93.79L403.51 85.58H406.65L410.06 91.26L413.47 85.58H416.37L411.4 93.83Z" fill="#2D9847"/>
<path d="M425.35 97.7199C424.325 97.1766 423.468 96.3642 422.87 95.3699C422.28 94.3321 421.97 93.1588 421.97 91.9649C421.97 90.7711 422.28 89.5978 422.87 88.5599C423.468 87.5657 424.325 86.7532 425.35 86.2099C426.363 85.707 427.472 85.428 428.602 85.3917C429.732 85.3555 430.857 85.5629 431.9 85.9999C432.771 86.3712 433.542 86.9435 434.15 87.6699L432.25 89.4299C431.863 88.9536 431.373 88.5711 430.817 88.3113C430.261 88.0515 429.654 87.9211 429.04 87.9299C428.303 87.9156 427.576 88.0949 426.93 88.4499C426.321 88.7887 425.819 89.291 425.48 89.8999C425.138 90.5526 424.96 91.2783 424.96 92.0149C424.96 92.7516 425.138 93.4773 425.48 94.1299C425.816 94.7409 426.319 95.2438 426.93 95.5799C427.576 95.9349 428.303 96.1142 429.04 96.0999C429.655 96.1121 430.265 95.9821 430.821 95.7202C431.378 95.4584 431.867 95.0716 432.25 94.5899L434.15 96.3399C433.543 97.0786 432.768 97.6614 431.89 98.0399C430.94 98.4376 429.919 98.6351 428.89 98.6199C427.653 98.6257 426.434 98.3159 425.35 97.7199V97.7199Z" fill="#2D9847"/>
<path d="M444.29 95.62H438.37L437.23 98.35H434.23L439.92 85.58H442.84L448.54 98.35H445.44L444.29 95.62ZM443.36 93.37L441.36 88.48L439.36 93.37H443.36Z" fill="#2D9847"/>
<path d="M458 98.35L455.54 94.79H452.82V98.35H449.87V85.58H455.39C456.403 85.5561 457.409 85.7505 458.34 86.15C459.14 86.4772 459.82 87.044 460.286 87.7727C460.751 88.5014 460.98 89.3562 460.94 90.22C460.969 91.0767 460.731 91.9212 460.26 92.6374C459.789 93.3536 459.108 93.9065 458.31 94.22L461.18 98.32L458 98.35ZM457.25 88.56C456.669 88.1453 455.963 87.944 455.25 87.99H452.84V92.44H455.25C455.965 92.4916 456.674 92.2859 457.25 91.86C457.472 91.6463 457.649 91.3901 457.769 91.1065C457.89 90.823 457.952 90.5181 457.952 90.21C457.952 89.9018 457.89 89.5969 457.769 89.3134C457.649 89.0299 457.472 88.7736 457.25 88.56V88.56Z" fill="#2D9847"/>
<path d="M473.15 96V98.37H463.26V85.58H472.91V88H466.2V90.78H472.13V93H466.2V96H473.15Z" fill="#2D9847"/>
<path d="M370.91 107.47L366.73 120.24H363.56L360.75 111.59L357.85 120.24H354.7L350.5 107.47H353.57L356.45 116.47L359.45 107.47H362.18L365.1 116.47L368.1 107.47H370.91Z" fill="#2D9847"/>
<path d="M375 119.6C373.965 119.06 373.099 118.243 372.5 117.24C371.911 116.209 371.601 115.042 371.601 113.855C371.601 112.668 371.911 111.501 372.5 110.47C373.099 109.467 373.965 108.651 375 108.11C376.109 107.545 377.335 107.25 378.58 107.25C379.824 107.25 381.051 107.545 382.16 108.11C383.205 108.658 384.078 109.486 384.68 110.502C385.282 111.517 385.59 112.68 385.57 113.86C385.588 115.05 385.273 116.22 384.66 117.24C384.055 118.238 383.191 119.054 382.16 119.6C381.051 120.165 379.824 120.46 378.58 120.46C377.335 120.46 376.109 120.165 375 119.6V119.6ZM380.63 117.42C381.229 117.075 381.723 116.574 382.06 115.97C382.402 115.317 382.58 114.592 382.58 113.855C382.58 113.118 382.402 112.393 382.06 111.74C381.723 111.137 381.229 110.635 380.63 110.29C380.002 109.949 379.299 109.77 378.585 109.77C377.871 109.77 377.168 109.949 376.54 110.29C375.939 110.633 375.444 111.134 375.11 111.74C374.768 112.393 374.59 113.118 374.59 113.855C374.59 114.592 374.768 115.317 375.11 115.97C375.444 116.576 375.939 117.077 376.54 117.42C377.168 117.761 377.871 117.94 378.585 117.94C379.299 117.94 380.002 117.761 380.63 117.42V117.42Z" fill="#2D9847"/>
<path d="M395.94 120.24L393.47 116.68H390.76V120.24H387.76V107.47H393.29C394.299 107.446 395.302 107.64 396.23 108.04C397.015 108.374 397.686 108.93 398.16 109.64C398.618 110.377 398.851 111.232 398.83 112.1C398.857 112.955 398.621 113.798 398.152 114.514C397.683 115.23 397.005 115.784 396.21 116.1L399.07 120.2L395.94 120.24ZM395.19 110.45C394.608 110.038 393.902 109.837 393.19 109.88H390.79V114.33H393.19C393.904 114.376 394.611 114.17 395.19 113.75C395.408 113.534 395.581 113.277 395.7 112.994C395.818 112.711 395.879 112.407 395.879 112.1C395.879 111.793 395.818 111.489 395.7 111.206C395.581 110.923 395.408 110.666 395.19 110.45V110.45Z" fill="#2D9847"/>
<path d="M405.86 115.22L404.15 117V120.23H401.21V107.47H404.15V113.47L409.8 107.47H413.08L407.8 113.16L413.39 120.24H410L405.86 115.22Z" fill="#2D9847"/>
<path d="M424.59 117.87V120.24H414.71V107.47H424.36V109.84H417.64V112.62H423.57V114.91H417.64V117.91L424.59 117.87Z" fill="#2D9847"/>
<path d="M435.08 120.24L432.62 116.68H429.9V120.24H427V107.47H432.52C433.533 107.446 434.539 107.641 435.47 108.04C436.269 108.367 436.947 108.932 437.412 109.659C437.878 110.385 438.107 111.238 438.07 112.1C438.098 112.957 437.861 113.801 437.39 114.517C436.919 115.234 436.238 115.786 435.44 116.1L438.31 120.2L435.08 120.24ZM434.33 110.45C433.749 110.035 433.042 109.834 432.33 109.88H429.9V114.33H432.31C433.025 114.382 433.734 114.176 434.31 113.75C434.532 113.536 434.709 113.28 434.829 112.997C434.95 112.713 435.012 112.408 435.012 112.1C435.012 111.792 434.95 111.487 434.829 111.203C434.709 110.92 434.532 110.664 434.31 110.45H434.33Z" fill="#2D9847"/>
<path d="M441.62 120.05C440.805 119.833 440.036 119.47 439.35 118.98L440.35 116.76C440.942 117.196 441.6 117.534 442.3 117.76C443.032 118.004 443.798 118.129 444.57 118.13C445.213 118.171 445.855 118.04 446.43 117.75C446.612 117.654 446.763 117.51 446.869 117.333C446.975 117.157 447.03 116.955 447.03 116.75C447.029 116.605 446.996 116.462 446.934 116.33C446.872 116.199 446.782 116.083 446.67 115.99C446.4 115.773 446.091 115.61 445.76 115.51C445.39 115.39 444.89 115.25 444.26 115.11C443.449 114.931 442.65 114.697 441.87 114.41C441.251 114.183 440.7 113.801 440.27 113.3C439.812 112.736 439.574 112.026 439.6 111.3C439.6 110.587 439.812 109.891 440.21 109.3C440.663 108.659 441.292 108.163 442.02 107.87C442.973 107.489 443.994 107.309 445.02 107.34C445.825 107.341 446.628 107.438 447.41 107.63C448.114 107.812 448.787 108.095 449.41 108.47L448.5 110.72C447.428 110.082 446.207 109.737 444.96 109.72C444.32 109.676 443.681 109.818 443.12 110.13C442.946 110.235 442.802 110.381 442.699 110.555C442.596 110.73 442.538 110.927 442.53 111.13C442.519 111.349 442.581 111.566 442.706 111.747C442.831 111.927 443.011 112.062 443.22 112.13C443.894 112.409 444.594 112.62 445.31 112.76C446.116 112.942 446.911 113.173 447.69 113.45C448.306 113.68 448.855 114.057 449.29 114.55C449.75 115.112 449.985 115.825 449.95 116.55C449.957 117.263 449.744 117.962 449.34 118.55C448.885 119.197 448.248 119.695 447.51 119.98C446.557 120.36 445.536 120.54 444.51 120.51C443.53 120.491 442.557 120.336 441.62 120.05V120.05Z" fill="#2D9847"/>
<path d="M335.48 33.6801V68.34H327.48V40.1201H320.55V33.6801H335.48Z" fill="#2D9847"/>
<path d="M348.7 66.8C346.386 65.298 344.556 63.1587 343.43 60.64C342.087 57.6079 341.435 54.3152 341.52 51C341.436 47.6882 342.089 44.3991 343.43 41.37C344.556 38.8513 346.386 36.712 348.7 35.21C351.018 33.8161 353.671 33.0796 356.375 33.0796C359.079 33.0796 361.733 33.8161 364.05 35.21C366.364 36.712 368.194 38.8513 369.32 41.37C370.662 44.3991 371.314 47.6882 371.23 51C371.314 54.3118 370.662 57.601 369.32 60.63C368.194 63.1487 366.364 65.288 364.05 66.79C361.733 68.184 359.079 68.9205 356.375 68.9205C353.671 68.9205 351.018 68.184 348.7 66.79V66.8ZM361.35 59.43C362.55 57.61 363.16 54.81 363.16 51.01C363.16 47.21 362.55 44.41 361.35 42.59C360.821 41.7557 360.09 41.0685 359.225 40.5923C358.36 40.1161 357.388 39.8664 356.4 39.8664C355.412 39.8664 354.441 40.1161 353.575 40.5923C352.71 41.0685 351.979 41.7557 351.45 42.59C350.24 44.41 349.64 47.21 349.64 51.01C349.64 54.81 350.24 57.61 351.45 59.43C351.979 60.2644 352.71 60.9516 353.575 61.4278C354.441 61.9039 355.412 62.1536 356.4 62.1536C357.388 62.1536 358.36 61.9039 359.225 61.4278C360.09 60.9516 360.821 60.2644 361.35 59.43V59.43Z" fill="#2D9847"/>
<path d="M382.51 60.44C382.96 60.889 383.311 61.4268 383.542 62.019C383.773 62.6113 383.878 63.245 383.85 63.88C383.852 64.5546 383.768 65.2268 383.6 65.88C383.31 66.9053 382.946 67.908 382.51 68.88L379.69 76H374.79L377 68.09C376.177 67.7826 375.476 67.2179 375 66.48C374.513 65.702 374.266 64.7976 374.29 63.88C374.264 63.2434 374.371 62.6084 374.606 62.0159C374.84 61.4234 375.196 60.8866 375.65 60.44C376.108 60.0042 376.648 59.664 377.238 59.439C377.829 59.2141 378.458 59.1091 379.09 59.13C379.719 59.1072 380.346 59.2115 380.933 59.4366C381.521 59.6617 382.057 60.003 382.51 60.44V60.44Z" fill="#2D9847"/>
<path d="M394 66.8C391.686 65.298 389.856 63.1587 388.73 60.64C387.387 57.6079 386.735 54.3152 386.82 51C386.736 47.6882 387.388 44.3991 388.73 41.37C389.857 38.855 391.687 36.7193 394 35.22C396.317 33.8261 398.971 33.0896 401.675 33.0896C404.379 33.0896 407.033 33.8261 409.35 35.22C411.664 36.722 413.494 38.8613 414.62 41.38C415.96 44.406 416.612 47.6916 416.53 51C416.614 54.3118 415.961 57.601 414.62 60.63C413.494 63.1487 411.664 65.288 409.35 66.79C407.033 68.184 404.379 68.9205 401.675 68.9205C398.971 68.9205 396.317 68.184 394 66.79V66.8ZM406.65 59.43C407.85 57.61 408.46 54.81 408.46 51.01C408.46 47.21 407.85 44.41 406.65 42.59C406.121 41.7557 405.39 41.0685 404.525 40.5923C403.659 40.1161 402.688 39.8665 401.7 39.8665C400.712 39.8665 399.74 40.1161 398.875 40.5923C398.01 41.0685 397.279 41.7557 396.75 42.59C395.54 44.41 394.94 47.21 394.94 51.01C394.94 54.81 395.54 57.61 396.75 59.43C397.279 60.2644 398.01 60.9516 398.875 61.4278C399.74 61.9039 400.712 62.1536 401.7 62.1536C402.688 62.1536 403.659 61.9039 404.525 61.4278C405.39 60.9516 406.121 60.2644 406.65 59.43V59.43Z" fill="#2D9847"/>
<path d="M448.09 53.49C449.012 54.9185 449.486 56.5902 449.45 58.29C449.49 60.3159 448.845 62.2961 447.62 63.91C446.279 65.5987 444.497 66.8829 442.47 67.62C440.018 68.5341 437.416 68.9785 434.8 68.93C432.19 68.9813 429.594 68.5367 427.15 67.62C425.136 66.8851 423.369 65.5997 422.05 63.91C420.837 62.291 420.2 60.3128 420.24 58.29C420.204 56.5902 420.678 54.9185 421.6 53.49C422.575 52.0418 423.918 50.8787 425.49 50.12C424.249 49.3946 423.216 48.3613 422.49 47.12C421.797 45.856 421.452 44.4309 421.49 42.99C421.451 41.1019 422.042 39.2545 423.17 37.74C424.392 36.1842 426.018 34.9942 427.87 34.3C430.085 33.4564 432.441 33.0456 434.81 33.09C437.199 33.0441 439.575 33.4548 441.81 34.3C443.674 34.9884 445.311 36.179 446.54 37.74C447.667 39.2585 448.255 41.1096 448.21 43C448.255 44.4417 447.91 45.8687 447.21 47.13C446.488 48.3739 445.454 49.4079 444.21 50.13C445.779 50.8854 447.118 52.0452 448.09 53.49ZM439.57 61.68C440.14 61.2554 440.598 60.6985 440.905 60.0574C441.211 59.4163 441.357 58.7102 441.33 58C441.353 57.3005 441.204 56.606 440.898 55.9769C440.591 55.3478 440.135 54.8031 439.57 54.39C438.171 53.43 436.494 52.959 434.8 53.05C433.125 52.961 431.468 53.4325 430.09 54.39C429.532 54.8075 429.083 55.3539 428.782 55.9825C428.481 56.6112 428.336 57.3034 428.36 58C428.333 58.7043 428.476 59.4047 428.777 60.0419C429.078 60.6791 429.529 61.2341 430.09 61.66C431.466 62.6218 433.124 63.0937 434.8 63C436.493 63.1061 438.173 62.6413 439.57 61.68V61.68ZM430.91 40.14C430.432 40.5207 430.05 41.009 429.797 41.5651C429.543 42.1212 429.424 42.7293 429.45 43.34C429.425 43.9347 429.541 44.5269 429.79 45.0677C430.038 45.6085 430.412 46.0823 430.88 46.45C432.019 47.266 433.402 47.6682 434.8 47.59C436.224 47.6691 437.632 47.2676 438.8 46.45C439.282 46.0917 439.669 45.6209 439.926 45.0788C440.184 44.5368 440.306 43.9398 440.28 43.34C440.307 42.7272 440.187 42.1169 439.929 41.5601C439.672 41.0034 439.285 40.5164 438.8 40.14C437.637 39.3111 436.226 38.902 434.8 38.98C433.409 38.9104 432.036 39.3199 430.91 40.14V40.14Z" fill="#2D9847"/>
<path d="M479 61.8V68.34H452.82V63.14L466.18 50.52C467.319 49.5128 468.291 48.3315 469.06 47.02C469.532 46.1289 469.786 45.1384 469.8 44.13C469.834 43.5232 469.724 42.9169 469.479 42.3607C469.234 41.8045 468.861 41.3142 468.39 40.93C467.172 40.109 465.715 39.7183 464.25 39.82C462.835 39.7981 461.434 40.0954 460.15 40.69C458.915 41.2738 457.853 42.17 457.07 43.29L451.23 39.52C452.633 37.4669 454.569 35.8351 456.83 34.8C459.389 33.62 462.182 33.0354 465 33.09C467.313 33.0408 469.611 33.4697 471.75 34.35C473.558 35.0886 475.122 36.3226 476.26 37.91C477.349 39.508 477.912 41.4064 477.87 43.34C477.879 45.1707 477.472 46.9795 476.68 48.63C475.497 50.7736 473.939 52.6873 472.08 54.28L464.08 61.8H479Z" fill="#2D9847"/>
<path d="M342.65 147.54H341.81C341.428 147.527 341.051 147.631 340.73 147.84C340.424 148.056 340.185 148.354 340.04 148.7V155.09H338.41V146.15H339.87L340.03 147.45C340.252 147.022 340.57 146.653 340.96 146.37C341.34 146.11 341.79 145.974 342.25 145.98C342.367 145.97 342.484 145.97 342.6 145.98L342.87 146.04L342.65 147.54Z" fill="black"/>
<path d="M347.89 155.23C347.33 155.259 346.771 155.164 346.252 154.951C345.733 154.738 345.268 154.414 344.89 154C344.145 153.085 343.761 151.929 343.81 150.75V150.39C343.77 149.224 344.169 148.085 344.93 147.2C345.26 146.802 345.674 146.483 346.143 146.265C346.612 146.047 347.123 145.936 347.64 145.94C348.146 145.903 348.654 145.985 349.123 146.179C349.592 146.374 350.009 146.675 350.34 147.06C350.976 147.926 351.29 148.987 351.23 150.06V150.92H345.5C345.461 151.694 345.668 152.46 346.09 153.11C346.298 153.392 346.574 153.617 346.892 153.764C347.21 153.911 347.56 153.975 347.91 153.95C348.404 153.96 348.895 153.879 349.36 153.71C349.755 153.564 350.119 153.344 350.43 153.06L351.07 154.12C350.702 154.461 350.27 154.726 349.8 154.9C349.191 155.134 348.542 155.246 347.89 155.23V155.23ZM347.63 147.23C347.36 147.227 347.093 147.284 346.849 147.399C346.605 147.513 346.39 147.681 346.22 147.89C345.831 148.37 345.595 148.955 345.54 149.57V149.57H349.54V149.44C349.562 148.867 349.397 148.302 349.07 147.83C348.892 147.625 348.67 147.464 348.42 147.358C348.171 147.253 347.9 147.205 347.63 147.22V147.23Z" fill="black"/>
<path d="M356.61 154C357.096 154.006 357.566 153.823 357.92 153.49C358.1 153.341 358.244 153.152 358.341 152.939C358.438 152.726 358.486 152.494 358.48 152.26H360V152.32C360.002 152.715 359.912 153.106 359.739 153.461C359.565 153.817 359.313 154.128 359 154.37C358.244 155.012 357.265 155.332 356.275 155.259C355.285 155.186 354.364 154.726 353.71 153.98C353.012 153.067 352.658 151.938 352.71 150.79V150.45C352.66 149.305 353.014 148.18 353.71 147.27C354.059 146.841 354.505 146.5 355.01 146.276C355.516 146.052 356.068 145.95 356.62 145.98C357.07 145.964 357.518 146.038 357.939 146.198C358.36 146.358 358.744 146.6 359.07 146.91C359.379 147.199 359.622 147.551 359.781 147.943C359.939 148.336 360.011 148.757 359.99 149.18V149.23H358.5C358.508 148.975 358.465 148.72 358.374 148.482C358.283 148.243 358.146 148.025 357.97 147.84C357.802 147.653 357.595 147.504 357.363 147.404C357.132 147.303 356.882 147.254 356.63 147.26C356.281 147.238 355.932 147.313 355.623 147.477C355.314 147.641 355.057 147.888 354.88 148.19C354.494 148.879 354.304 149.661 354.33 150.45V150.79C354.304 151.584 354.491 152.372 354.87 153.07C355.047 153.369 355.303 153.615 355.61 153.779C355.917 153.943 356.263 154.019 356.61 154Z" fill="black"/>
<path d="M365.62 155.23C365.06 155.258 364.501 155.162 363.983 154.949C363.464 154.737 362.999 154.413 362.62 154C361.878 153.084 361.497 151.928 361.55 150.75V150.39C361.506 149.225 361.902 148.086 362.66 147.2C362.991 146.801 363.407 146.481 363.878 146.263C364.348 146.045 364.861 145.935 365.38 145.94C365.884 145.904 366.391 145.986 366.858 146.181C367.325 146.375 367.74 146.676 368.07 147.06C368.71 147.924 369.025 148.986 368.96 150.06V150.92H363.24C363.206 151.693 363.412 152.458 363.83 153.11C364.038 153.391 364.314 153.616 364.632 153.762C364.951 153.909 365.3 153.974 365.65 153.95C366.144 153.96 366.635 153.879 367.1 153.71C367.495 153.565 367.858 153.344 368.17 153.06L368.81 154.12C368.444 154.459 368.016 154.724 367.55 154.9C366.934 155.133 366.278 155.245 365.62 155.23V155.23ZM365.37 147.23C365.1 147.225 364.832 147.281 364.588 147.396C364.343 147.51 364.128 147.679 363.96 147.89C363.568 148.369 363.328 148.954 363.27 149.57V149.57H367.27V149.44C367.289 148.865 367.12 148.3 366.79 147.83C366.615 147.627 366.396 147.467 366.15 147.361C365.904 147.255 365.637 147.207 365.37 147.22V147.23Z" fill="black"/>
<path d="M372.54 143.81H370.92V142.15H372.54V143.81ZM372.54 155.05H370.92V146.11H372.54V155.05Z" fill="black"/>
<path d="M378 152.42L378.14 153.04H378.19L378.34 152.42L380.41 146.11H382.07L378.78 155.05H377.54L374.21 146.11H375.88L378 152.42Z" fill="black"/>
<path d="M387.17 155.23C386.61 155.26 386.051 155.165 385.532 154.952C385.013 154.739 384.548 154.414 384.17 154C383.421 153.087 383.036 151.929 383.09 150.75V150.39C383.046 149.225 383.442 148.086 384.2 147.2C384.532 146.802 384.948 146.483 385.419 146.265C385.889 146.047 386.402 145.936 386.92 145.94C387.425 145.901 387.932 145.982 388.399 146.177C388.867 146.372 389.282 146.674 389.61 147.06C390.253 147.923 390.572 148.985 390.51 150.06V150.92H384.79C384.754 151.695 384.964 152.461 385.39 153.11C385.598 153.392 385.874 153.617 386.192 153.764C386.51 153.911 386.86 153.975 387.21 153.95C387.704 153.96 388.196 153.879 388.66 153.71C389.054 153.562 389.417 153.342 389.73 153.06L390.37 154.12C390.002 154.461 389.57 154.726 389.1 154.9C388.485 155.136 387.829 155.248 387.17 155.23V155.23ZM386.91 147.23C386.64 147.224 386.372 147.281 386.128 147.396C385.883 147.51 385.669 147.679 385.5 147.89C385.111 148.37 384.875 148.955 384.82 149.57V149.57H388.82V149.44C388.843 148.865 388.674 148.298 388.34 147.83C388.165 147.624 387.945 147.462 387.697 147.356C387.449 147.25 387.179 147.204 386.91 147.22V147.23Z" fill="black"/>
<path d="M392 150.75C391.941 149.52 392.262 148.301 392.92 147.26C393.203 146.84 393.589 146.499 394.04 146.268C394.491 146.037 394.993 145.924 395.5 145.94C395.982 145.932 396.46 146.031 396.9 146.23C397.293 146.43 397.635 146.717 397.9 147.07V142.15H399.53V155.05H398.29L398.04 153.92C397.766 154.339 397.391 154.683 396.95 154.92C396.487 155.147 395.976 155.26 395.46 155.25C394.968 155.271 394.478 155.174 394.03 154.967C393.583 154.76 393.192 154.449 392.89 154.06C392.244 153.152 391.92 152.054 391.97 150.94L392 150.75ZM393.63 150.92C393.59 151.682 393.782 152.439 394.18 153.09C394.373 153.361 394.633 153.578 394.934 153.72C395.235 153.862 395.568 153.924 395.9 153.9C396.333 153.913 396.761 153.798 397.13 153.57C397.471 153.337 397.747 153.02 397.93 152.65V148.47C397.737 148.114 397.458 147.812 397.12 147.59C396.761 147.364 396.344 147.249 395.92 147.26C395.565 147.247 395.214 147.333 394.906 147.51C394.598 147.687 394.347 147.947 394.18 148.26C393.782 149.038 393.592 149.907 393.63 150.78V150.92Z" fill="black"/>
<path d="M408.43 144V146.16H410.13V147.36H408.43V152.8C408.399 153.116 408.492 153.432 408.69 153.68C408.781 153.768 408.89 153.836 409.008 153.88C409.127 153.925 409.253 153.945 409.38 153.94C409.483 153.954 409.587 153.954 409.69 153.94C409.789 153.925 409.887 153.898 409.98 153.86L410.21 154.98C410.05 155.099 409.865 155.181 409.67 155.22C409.443 155.287 409.207 155.32 408.97 155.32C408.679 155.334 408.389 155.288 408.117 155.185C407.845 155.082 407.598 154.924 407.39 154.72C406.955 154.194 406.743 153.52 406.8 152.84V147.4H405.38V146.2H406.8V144H408.43Z" fill="black"/>
<path d="M416.1 147.54H415.27C414.885 147.528 414.505 147.632 414.18 147.84C413.878 148.058 413.642 148.356 413.5 148.7V155.09H411.87V146.15H413.33L413.48 147.45C413.708 147.024 414.03 146.655 414.42 146.37C414.798 146.108 415.25 145.971 415.71 145.98C415.823 145.97 415.937 145.97 416.05 145.98L416.33 146.04L416.1 147.54Z" fill="black"/>
<path d="M423.3 155.05C423.25 154.78 423.2 154.55 423.17 154.34C423.14 154.13 423.17 153.92 423.12 153.72C422.8 154.153 422.395 154.517 421.93 154.79C421.457 155.079 420.914 155.231 420.36 155.23C419.975 155.257 419.589 155.207 419.223 155.083C418.857 154.96 418.52 154.765 418.23 154.51C417.973 154.248 417.774 153.934 417.647 153.589C417.519 153.244 417.466 152.877 417.49 152.51C417.477 152.12 417.561 151.732 417.736 151.383C417.91 151.034 418.17 150.733 418.49 150.51C419.335 149.988 420.319 149.737 421.31 149.79H423.08V148.91C423.092 148.68 423.055 148.449 422.973 148.234C422.89 148.019 422.763 147.823 422.6 147.66C422.415 147.498 422.199 147.373 421.966 147.294C421.733 147.215 421.486 147.183 421.24 147.2C420.779 147.177 420.326 147.319 419.96 147.6C419.809 147.708 419.686 147.851 419.6 148.016C419.515 148.181 419.47 148.364 419.47 148.55H417.93V148.5C417.926 148.15 418.006 147.805 418.164 147.493C418.323 147.181 418.555 146.912 418.84 146.71C419.553 146.149 420.444 145.862 421.35 145.9C422.232 145.858 423.101 146.131 423.8 146.67C424.115 146.946 424.363 147.29 424.524 147.677C424.685 148.064 424.756 148.482 424.73 148.9V153.21C424.726 153.521 424.743 153.831 424.78 154.14C424.81 154.435 424.871 154.727 424.96 155.01L423.3 155.05ZM420.6 153.86C421.163 153.868 421.715 153.712 422.19 153.41C422.602 153.189 422.93 152.837 423.12 152.41V150.95H421.29C420.724 150.922 420.166 151.099 419.72 151.45C419.539 151.585 419.391 151.759 419.289 151.961C419.186 152.162 419.132 152.384 419.13 152.61C419.114 152.794 419.138 152.979 419.202 153.152C419.266 153.325 419.368 153.481 419.5 153.61C419.822 153.829 420.215 153.919 420.6 153.86V153.86Z" fill="black"/>
<path d="M428.87 143.81H427.25V142.15H428.87V143.81ZM428.87 155.05H427.25V146.11H428.87V155.05Z" fill="black"/>
<path d="M432.84 146.11L432.95 147.44C433.228 146.985 433.613 146.604 434.07 146.33C434.539 146.064 435.071 145.929 435.61 145.94C436.022 145.915 436.435 145.977 436.822 146.124C437.208 146.27 437.558 146.497 437.85 146.79C438.437 147.531 438.719 148.468 438.64 149.41V155.05H437V149.44C437.062 148.841 436.894 148.24 436.53 147.76C436.341 147.582 436.117 147.446 435.873 147.36C435.628 147.274 435.369 147.24 435.11 147.26C434.663 147.245 434.22 147.352 433.83 147.57C433.481 147.767 433.193 148.058 433 148.41V155.05H431.37V146.11H432.84Z" fill="black"/>
<path d="M442.77 143.81H441.14V142.15H442.77V143.81ZM442.77 155.05H441.14V146.11H442.77V155.05Z" fill="black"/>
<path d="M446.73 146.11L446.84 147.44C447.122 146.984 447.51 146.604 447.97 146.33C448.436 146.066 448.964 145.931 449.5 145.94C449.912 145.914 450.326 145.976 450.712 146.123C451.098 146.269 451.449 146.497 451.74 146.79C452.327 147.531 452.609 148.468 452.53 149.41V155.05H450.91V149.44C450.967 148.841 450.799 148.242 450.44 147.76C450.249 147.582 450.024 147.446 449.778 147.36C449.531 147.273 449.27 147.24 449.01 147.26C448.566 147.243 448.126 147.351 447.74 147.57C447.388 147.767 447.097 148.058 446.9 148.41V155.05H445.27V146.11H446.73Z" fill="black"/>
<path d="M454.61 150.75C454.551 149.52 454.872 148.301 455.53 147.26C455.813 146.84 456.199 146.499 456.65 146.268C457.101 146.037 457.603 145.924 458.11 145.94C458.63 145.927 459.146 146.044 459.61 146.28C460.047 146.518 460.419 146.862 460.69 147.28L460.89 146.12H462.19V155.12C462.219 155.606 462.145 156.092 461.972 156.547C461.8 157.002 461.533 157.415 461.19 157.76C460.378 158.421 459.345 158.75 458.3 158.68C457.831 158.674 457.365 158.614 456.91 158.5C456.452 158.395 456.008 158.234 455.59 158.02L455.84 156.75C456.196 156.934 456.577 157.069 456.97 157.15C457.398 157.256 457.838 157.31 458.28 157.31C458.592 157.338 458.906 157.304 459.205 157.21C459.504 157.115 459.781 156.963 460.02 156.76C460.214 156.536 460.362 156.276 460.454 155.994C460.547 155.713 460.583 155.415 460.56 155.12V154.12C460.279 154.479 459.92 154.77 459.51 154.97C459.064 155.17 458.579 155.269 458.09 155.26C457.599 155.281 457.11 155.184 456.665 154.977C456.22 154.77 455.83 154.459 455.53 154.07C454.884 153.162 454.56 152.063 454.61 150.95V150.75ZM456.24 150.92C456.206 151.678 456.397 152.43 456.79 153.08C456.98 153.354 457.239 153.575 457.541 153.718C457.843 153.862 458.177 153.925 458.51 153.9C458.944 153.915 459.372 153.8 459.74 153.57C460.088 153.326 460.369 152.999 460.56 152.62V148.5C460.363 148.138 460.082 147.829 459.74 147.6C459.378 147.364 458.952 147.246 458.52 147.26C458.168 147.248 457.82 147.335 457.516 147.512C457.212 147.689 456.963 147.948 456.8 148.26C456.398 149.037 456.206 149.906 456.24 150.78V150.92Z" fill="black"/>
<path d="M330.83 170.82C330.784 169.635 331.168 168.474 331.91 167.55C332.264 167.124 332.712 166.786 333.219 166.563C333.725 166.339 334.277 166.235 334.83 166.26C335.386 166.235 335.941 166.339 336.45 166.562C336.96 166.786 337.412 167.124 337.77 167.55C338.512 168.474 338.892 169.636 338.84 170.82V171C338.894 172.187 338.513 173.353 337.77 174.28C337.396 174.683 336.942 175.004 336.438 175.224C335.934 175.444 335.39 175.557 334.84 175.557C334.29 175.557 333.746 175.444 333.242 175.224C332.738 175.004 332.284 174.683 331.91 174.28C331.165 173.357 330.781 172.195 330.83 171.01V170.82ZM332.46 171C332.427 171.825 332.636 172.642 333.06 173.35C333.259 173.637 333.524 173.871 333.833 174.033C334.142 174.195 334.486 174.279 334.835 174.279C335.184 174.279 335.528 174.195 335.837 174.033C336.146 173.871 336.411 173.637 336.61 173.35C337.042 172.644 337.254 171.826 337.22 171V170.82C337.253 169.997 337.04 169.182 336.61 168.48C336.422 168.182 336.158 167.939 335.845 167.775C335.533 167.612 335.182 167.534 334.83 167.55C334.479 167.536 334.131 167.615 333.82 167.778C333.51 167.941 333.247 168.183 333.06 168.48C332.637 169.185 332.429 169.998 332.46 170.82V171Z" fill="black"/>
<path d="M342.3 166.43L342.41 167.76C342.688 167.308 343.073 166.93 343.53 166.66C343.998 166.391 344.53 166.252 345.07 166.26C345.482 166.24 345.893 166.306 346.278 166.452C346.664 166.598 347.015 166.822 347.31 167.11C347.896 167.852 348.178 168.788 348.1 169.73V175.38H346.47V169.76C346.532 169.164 346.364 168.566 346 168.09C345.813 167.91 345.589 167.773 345.344 167.686C345.099 167.6 344.838 167.567 344.58 167.59C344.134 167.576 343.693 167.68 343.3 167.89C342.948 168.089 342.66 168.383 342.47 168.74V175.38H340.84V166.43H342.3Z" fill="black"/>
<path d="M364 175.38H362.37V170.06H356.53V175.38H354.9V163.38H356.53V168.82H362.37V163.38H364V175.38Z" fill="black"/>
<path d="M368.62 175.38H367V163.38H368.64L368.62 175.38Z" fill="black"/>
<path d="M375.26 172.22L375.53 173.22H375.58L375.86 172.22L378.96 163.34H380.73L376.25 175.34H374.85L370.38 163.34H372.15L375.26 172.22Z" fill="black"/>
<path d="M388.57 164.27V166.43H390.26V167.64H388.57V173.07C388.552 173.228 388.566 173.388 388.61 173.541C388.655 173.694 388.73 173.836 388.83 173.96C388.922 174.046 389.03 174.113 389.149 174.156C389.268 174.199 389.394 174.217 389.52 174.21H389.83L390.12 174.13L390.34 175.24C390.181 175.357 390.001 175.441 389.81 175.49C389.578 175.549 389.339 175.58 389.1 175.58C388.811 175.594 388.522 175.548 388.252 175.445C387.982 175.342 387.736 175.183 387.53 174.98C387.312 174.721 387.148 174.422 387.047 174.099C386.945 173.776 386.909 173.437 386.94 173.1V167.67H385.51V166.46H386.94V164.3L388.57 164.27Z" fill="black"/>
<path d="M395.71 175.55C395.15 175.58 394.59 175.486 394.071 175.273C393.552 175.06 393.087 174.735 392.71 174.32C391.959 173.412 391.574 172.257 391.63 171.08V170.71C391.588 169.548 391.984 168.413 392.74 167.53C393.071 167.13 393.486 166.808 393.957 166.589C394.427 166.369 394.941 166.257 395.46 166.26C395.964 166.226 396.47 166.309 396.937 166.504C397.403 166.698 397.819 166.998 398.15 167.38C398.787 168.246 399.102 169.307 399.04 170.38V171.24H393.32C393.286 172.013 393.492 172.778 393.91 173.43C394.119 173.711 394.395 173.936 394.713 174.082C395.031 174.229 395.38 174.294 395.73 174.27C396.224 174.28 396.716 174.199 397.18 174.03C397.581 173.89 397.948 173.669 398.26 173.38L398.89 174.44C398.524 174.779 398.096 175.044 397.63 175.22C397.018 175.456 396.365 175.569 395.71 175.55V175.55ZM395.46 167.55C395.19 167.544 394.922 167.601 394.678 167.716C394.433 167.83 394.219 167.999 394.05 168.21C393.655 168.686 393.418 169.273 393.37 169.89V169.89H397.37V169.76C397.392 169.182 397.223 168.613 396.89 168.14C396.713 167.939 396.492 167.781 396.244 167.678C395.996 167.576 395.727 167.532 395.46 167.55V167.55Z" fill="black"/>
<path d="M406.08 173C406.084 172.833 406.05 172.667 405.978 172.516C405.907 172.365 405.802 172.233 405.67 172.13C405.203 171.821 404.674 171.617 404.12 171.53C403.254 171.382 402.427 171.058 401.69 170.58C401.422 170.4 401.204 170.156 401.055 169.869C400.906 169.582 400.833 169.263 400.84 168.94C400.841 168.578 400.926 168.221 401.087 167.897C401.248 167.572 401.482 167.289 401.77 167.07C402.482 166.554 403.34 166.281 404.218 166.29C405.097 166.299 405.949 166.59 406.65 167.12C406.937 167.352 407.168 167.646 407.324 167.981C407.48 168.315 407.557 168.681 407.55 169.05V169.05H406C405.989 168.857 405.938 168.668 405.851 168.496C405.763 168.324 405.64 168.172 405.49 168.05C405.139 167.729 404.675 167.56 404.2 167.58C403.74 167.544 403.282 167.683 402.92 167.97C402.785 168.082 402.676 168.222 402.601 168.381C402.527 168.541 402.489 168.714 402.49 168.89C402.484 169.046 402.514 169.202 402.578 169.344C402.642 169.486 402.739 169.612 402.86 169.71C403.327 169.986 403.843 170.166 404.38 170.24C405.272 170.391 406.121 170.732 406.87 171.24C407.136 171.427 407.352 171.676 407.501 171.965C407.649 172.254 407.724 172.575 407.72 172.9C407.722 173.28 407.632 173.655 407.458 173.993C407.284 174.33 407.031 174.621 406.72 174.84C405.989 175.367 405.101 175.631 404.2 175.59C403.226 175.647 402.266 175.336 401.51 174.72C401.208 174.483 400.966 174.179 400.803 173.832C400.64 173.484 400.56 173.104 400.57 172.72V172.72H402.12C402.117 172.969 402.175 173.214 402.288 173.435C402.401 173.657 402.567 173.847 402.77 173.99C403.19 174.26 403.681 174.399 404.18 174.39C404.662 174.421 405.14 174.291 405.54 174.02C405.714 173.915 405.857 173.765 405.952 173.585C406.047 173.405 406.091 173.203 406.08 173V173Z" fill="black"/>
<path d="M412 164.27V166.43H413.69V167.64H412V173.07C411.982 173.228 411.996 173.388 412.041 173.541C412.085 173.694 412.16 173.836 412.26 173.96C412.352 174.046 412.461 174.113 412.579 174.156C412.698 174.199 412.824 174.217 412.95 174.21H413.26L413.55 174.13L413.78 175.24C413.617 175.356 413.434 175.441 413.24 175.49C413.008 175.549 412.769 175.58 412.53 175.58C412.249 175.591 411.969 175.546 411.706 175.446C411.443 175.346 411.203 175.195 411 175C410.782 174.741 410.618 174.442 410.517 174.119C410.416 173.796 410.379 173.457 410.41 173.12V167.69H409V166.48H410.42V164.32L412 164.27Z" fill="black"/>
<path d="M417.2 164.14H415.57V162.48H417.2V164.14ZM417.2 175.38H415.57V166.43H417.2V175.38Z" fill="black"/>
<path d="M421.16 166.43L421.28 167.76C421.556 167.306 421.941 166.927 422.4 166.66C422.865 166.392 423.393 166.254 423.93 166.26C424.342 166.236 424.755 166.299 425.141 166.446C425.527 166.592 425.878 166.819 426.17 167.11C426.759 167.85 427.045 168.787 426.97 169.73V175.38H425.34V169.76C425.397 169.164 425.229 168.569 424.87 168.09C424.681 167.91 424.455 167.772 424.209 167.686C423.962 167.6 423.7 167.567 423.44 167.59C422.997 167.575 422.559 167.679 422.17 167.89C421.815 168.088 421.524 168.383 421.33 168.74V175.38H419.71V166.43H421.16Z" fill="black"/>
<path d="M429 171.07C428.943 169.843 429.264 168.629 429.92 167.59C430.202 167.168 430.587 166.825 431.039 166.592C431.49 166.36 431.993 166.245 432.5 166.26C433.021 166.25 433.537 166.37 434 166.61C434.438 166.849 434.809 167.192 435.08 167.61L435.28 166.44H436.58V175.44C436.61 175.926 436.536 176.412 436.363 176.867C436.191 177.322 435.924 177.736 435.58 178.08C434.768 178.741 433.735 179.07 432.69 179C432.221 178.995 431.755 178.934 431.3 178.82C430.841 178.72 430.397 178.558 429.98 178.34L430.23 177.08C430.588 177.26 430.968 177.395 431.36 177.48C431.79 177.578 432.229 177.628 432.67 177.63C433.299 177.687 433.924 177.493 434.41 177.09C434.605 176.864 434.753 176.602 434.846 176.319C434.938 176.036 434.974 175.737 434.95 175.44V174.44C434.676 174.806 434.315 175.098 433.9 175.29C433.455 175.494 432.969 175.594 432.48 175.58C431.99 175.602 431.502 175.507 431.057 175.301C430.611 175.096 430.222 174.787 429.92 174.4C429.272 173.489 428.948 172.387 429 171.27V171.07ZM430.63 171.24C430.596 172.003 430.791 172.759 431.19 173.41C431.378 173.685 431.634 173.906 431.935 174.05C432.235 174.194 432.568 174.256 432.9 174.23C433.334 174.246 433.762 174.131 434.13 173.9C434.482 173.64 434.764 173.296 434.95 172.9V168.78C434.754 168.415 434.472 168.103 434.13 167.87C433.765 167.642 433.34 167.527 432.91 167.54C432.558 167.526 432.209 167.612 431.904 167.789C431.599 167.966 431.352 168.227 431.19 168.54C430.788 169.314 430.595 170.179 430.63 171.05V171.24Z" fill="black"/>
<path d="M448.67 175.38C448.61 175.11 448.57 174.87 448.54 174.66C448.51 174.454 448.49 174.247 448.48 174.04C448.17 174.481 447.767 174.85 447.3 175.12C446.822 175.405 446.276 175.553 445.72 175.55C445.336 175.578 444.95 175.53 444.584 175.408C444.219 175.286 443.881 175.093 443.59 174.84C443.336 174.576 443.14 174.261 443.015 173.917C442.889 173.572 442.836 173.206 442.86 172.84C442.844 172.449 442.927 172.061 443.102 171.711C443.277 171.361 443.538 171.061 443.86 170.84C444.701 170.319 445.682 170.068 446.67 170.12H448.44V169.23C448.458 169.005 448.428 168.78 448.352 168.568C448.276 168.356 448.156 168.162 448 168C447.816 167.838 447.603 167.714 447.371 167.635C447.139 167.556 446.894 167.524 446.65 167.54C446.191 167.519 445.739 167.657 445.37 167.93C445.221 168.04 445.098 168.183 445.013 168.347C444.928 168.512 444.883 168.695 444.88 168.88H443.33C443.324 168.531 443.403 168.186 443.562 167.876C443.721 167.565 443.954 167.299 444.24 167.1C444.951 166.535 445.842 166.244 446.75 166.28C447.634 166.238 448.503 166.515 449.2 167.06C449.513 167.337 449.758 167.682 449.918 168.069C450.077 168.455 450.146 168.873 450.12 169.29V173.6C450.121 173.907 450.138 174.214 450.17 174.52C450.208 174.818 450.272 175.113 450.36 175.4L448.67 175.38ZM446 174.19C446.567 174.197 447.124 174.037 447.6 173.73C448.007 173.505 448.33 173.154 448.52 172.73V171.28H446.7C446.132 171.25 445.572 171.424 445.12 171.77C444.94 171.908 444.793 172.084 444.691 172.287C444.588 172.49 444.534 172.713 444.53 172.94C444.524 173.114 444.553 173.287 444.617 173.449C444.68 173.61 444.777 173.757 444.9 173.88C445.215 174.117 445.608 174.227 446 174.19V174.19Z" fill="black"/>
<path d="M453.94 166.43L454.05 167.76C454.328 167.308 454.713 166.93 455.17 166.66C455.638 166.391 456.17 166.252 456.71 166.26C457.122 166.24 457.533 166.306 457.919 166.452C458.304 166.598 458.655 166.822 458.95 167.11C459.536 167.852 459.818 168.788 459.74 169.73V175.38H458.11V169.76C458.172 169.164 458.004 168.566 457.64 168.09C457.453 167.91 457.229 167.773 456.984 167.686C456.739 167.6 456.479 167.567 456.22 167.59C455.774 167.576 455.333 167.68 454.94 167.89C454.588 168.089 454.3 168.383 454.11 168.74V175.38H452.48V166.43H453.94Z" fill="black"/>
<path d="M461.73 171.07C461.671 169.842 461.996 168.625 462.66 167.59C462.942 167.168 463.327 166.825 463.778 166.592C464.23 166.36 464.732 166.245 465.24 166.26C465.719 166.252 466.194 166.351 466.63 166.55C467.025 166.752 467.367 167.043 467.63 167.4V162.48H469.26V175.38H468.01L467.77 174.25C467.496 174.669 467.121 175.013 466.68 175.25C466.213 175.478 465.699 175.591 465.18 175.58C464.69 175.602 464.202 175.506 463.756 175.301C463.311 175.096 462.921 174.787 462.62 174.4C461.968 173.49 461.641 172.388 461.69 171.27L461.73 171.07ZM463.36 171.24C463.322 172.003 463.518 172.76 463.92 173.41C464.11 173.685 464.369 173.905 464.671 174.048C464.973 174.192 465.307 174.255 465.64 174.23C466.07 174.244 466.495 174.129 466.86 173.9C467.204 173.663 467.483 173.343 467.67 172.97V168.8C467.476 168.444 467.198 168.142 466.86 167.92C466.501 167.694 466.084 167.579 465.66 167.59C465.305 167.573 464.952 167.658 464.643 167.835C464.335 168.012 464.084 168.274 463.92 168.59C463.518 169.364 463.324 170.229 463.36 171.1V171.24Z" fill="black"/>
<path d="M366.55 184.6V186.76H368.25V188H366.55V193.44C366.533 193.597 366.548 193.756 366.595 193.908C366.641 194.059 366.718 194.199 366.82 194.32C366.912 194.408 367.02 194.476 367.138 194.52C367.257 194.565 367.383 194.585 367.51 194.58C367.613 194.593 367.717 194.593 367.82 194.58L368.11 194.5L368.33 195.62C368.172 195.737 367.992 195.819 367.8 195.86C367.569 195.928 367.33 195.961 367.09 195.96C366.8 195.973 366.51 195.927 366.238 195.823C365.966 195.72 365.718 195.562 365.51 195.36C365.079 194.833 364.871 194.158 364.93 193.48V188H363.5V186.8H364.93V184.6H366.55Z" fill="black"/>
<path d="M374.23 188.19H373.39C373.008 188.177 372.631 188.281 372.31 188.49C372.001 188.703 371.761 189.002 371.62 189.35V195.74H370V186.8H371.46L371.62 188.1C371.842 187.672 372.16 187.303 372.55 187.02C372.929 186.76 373.38 186.624 373.84 186.63C373.956 186.62 374.074 186.62 374.19 186.63L374.46 186.69L374.23 188.19Z" fill="black"/>
<path d="M379.47 195.88C378.909 195.911 378.349 195.815 377.829 195.6C377.31 195.386 376.846 195.058 376.47 194.64C375.719 193.732 375.334 192.577 375.39 191.4V191C375.346 189.835 375.742 188.696 376.5 187.81C376.831 187.411 377.247 187.091 377.718 186.873C378.188 186.655 378.702 186.545 379.22 186.55C379.725 186.514 380.231 186.596 380.698 186.791C381.165 186.985 381.58 187.286 381.91 187.67C382.551 188.534 382.866 189.596 382.8 190.67V191.53H377.08C377.047 192.3 377.254 193.061 377.67 193.71C377.879 193.991 378.155 194.216 378.473 194.362C378.791 194.509 379.141 194.574 379.49 194.55C379.983 194.563 380.475 194.485 380.94 194.32C381.337 194.172 381.703 193.952 382.02 193.67L382.65 194.73C382.284 195.069 381.856 195.334 381.39 195.51C380.78 195.755 380.128 195.881 379.47 195.88ZM379.22 187.88C378.95 187.874 378.683 187.931 378.438 188.046C378.194 188.16 377.979 188.329 377.81 188.54C377.423 189.022 377.183 189.605 377.12 190.22V190.22H381.12V190.09C381.143 189.515 380.975 188.948 380.64 188.48C380.467 188.275 380.248 188.113 380.002 188.008C379.756 187.902 379.488 187.855 379.22 187.87V187.88Z" fill="black"/>
<path d="M390.13 195.7C390.08 195.43 390.04 195.19 390.01 194.99C389.98 194.79 389.96 194.57 389.95 194.36C389.636 194.802 389.23 195.17 388.76 195.44C388.287 195.729 387.744 195.881 387.19 195.88C386.805 195.907 386.418 195.857 386.053 195.733C385.687 195.61 385.35 195.415 385.06 195.16C384.804 194.897 384.607 194.583 384.481 194.238C384.355 193.893 384.304 193.526 384.33 193.16C384.314 192.769 384.397 192.381 384.572 192.031C384.747 191.681 385.008 191.382 385.33 191.16C386.176 190.641 387.159 190.39 388.15 190.44H390V189.56C390.012 189.33 389.975 189.099 389.892 188.884C389.81 188.669 389.683 188.473 389.52 188.31C389.336 188.148 389.122 188.024 388.891 187.946C388.659 187.867 388.414 187.834 388.17 187.85C387.707 187.83 387.251 187.971 386.88 188.25C386.732 188.36 386.611 188.504 386.528 188.668C386.445 188.833 386.401 189.015 386.4 189.2H384.8C384.796 188.849 384.877 188.503 385.038 188.191C385.198 187.879 385.432 187.611 385.72 187.41C386.449 186.887 387.323 186.606 388.22 186.606C389.117 186.606 389.991 186.887 390.72 187.41C391.032 187.688 391.276 188.033 391.435 188.42C391.595 188.806 391.665 189.223 391.64 189.64V193.95C391.64 194.27 391.64 194.58 391.69 194.88C391.72 195.175 391.78 195.467 391.87 195.75L390.13 195.7ZM387.43 194.51C387.992 194.518 388.545 194.362 389.02 194.06C389.43 193.836 389.756 193.485 389.95 193.06V191.6H388.12C387.554 191.573 386.996 191.75 386.55 192.1C386.369 192.235 386.221 192.409 386.119 192.611C386.016 192.812 385.962 193.034 385.96 193.26C385.951 193.436 385.979 193.611 386.043 193.775C386.107 193.939 386.204 194.087 386.33 194.21C386.646 194.445 387.039 194.552 387.43 194.51V194.51Z" fill="black"/>
<path d="M396.21 184.6V186.76H397.91V188H396.21V193.44C396.179 193.756 396.272 194.072 396.47 194.32C396.659 194.491 396.905 194.584 397.16 194.58C397.263 194.594 397.367 194.594 397.47 194.58C397.569 194.56 397.665 194.533 397.76 194.5L397.99 195.62C397.83 195.739 397.646 195.821 397.45 195.86C397.223 195.927 396.987 195.961 396.75 195.96C396.46 195.974 396.169 195.928 395.897 195.825C395.626 195.722 395.378 195.563 395.17 195.36C394.735 194.834 394.524 194.16 394.58 193.48V188H393.16V186.8H394.58V184.6H396.21Z" fill="black"/>
<path d="M401.11 186.76L401.22 187.93C401.507 187.511 401.891 187.168 402.34 186.93C402.824 186.69 403.359 186.57 403.9 186.58C404.442 186.566 404.976 186.709 405.44 186.99C405.898 187.285 406.249 187.72 406.44 188.23C406.71 187.742 407.094 187.327 407.56 187.02C408.047 186.722 408.609 186.57 409.18 186.58C409.588 186.561 409.995 186.636 410.369 186.799C410.744 186.962 411.076 187.209 411.34 187.52C411.928 188.337 412.208 189.336 412.13 190.34V195.69H410.5V190.33C410.561 189.671 410.403 189.01 410.05 188.45C409.872 188.271 409.661 188.13 409.429 188.033C409.196 187.936 408.947 187.886 408.695 187.886C408.443 187.886 408.194 187.936 407.961 188.033C407.729 188.13 407.517 188.271 407.34 188.45C406.983 188.857 406.768 189.37 406.73 189.91V195.66H405.09V190.3C405.147 189.651 404.982 189.002 404.62 188.46C404.459 188.263 404.254 188.106 404.021 188.004C403.788 187.901 403.534 187.855 403.28 187.87C402.852 187.855 402.429 187.963 402.06 188.18C401.735 188.389 401.478 188.688 401.32 189.04V195.66H399.69V186.72L401.11 186.76Z" fill="black"/>
<path d="M418.16 195.88C417.599 195.909 417.039 195.813 416.52 195.598C416.001 195.384 415.536 195.056 415.16 194.64C414.413 193.73 414.028 192.576 414.08 191.4V191C414.04 189.834 414.439 188.695 415.2 187.81C415.529 187.411 415.943 187.091 416.412 186.873C416.881 186.655 417.393 186.545 417.91 186.55C418.416 186.513 418.924 186.595 419.393 186.789C419.862 186.984 420.278 187.285 420.61 187.67C421.246 188.536 421.56 189.597 421.5 190.67V191.53H415.78C415.742 192.301 415.949 193.063 416.37 193.71C416.578 193.992 416.854 194.217 417.172 194.364C417.49 194.511 417.84 194.575 418.19 194.55C418.683 194.563 419.175 194.485 419.64 194.32C420.034 194.172 420.397 193.952 420.71 193.67L421.35 194.73C420.982 195.071 420.55 195.336 420.08 195.51C419.47 195.758 418.818 195.884 418.16 195.88V195.88ZM417.9 187.88C417.63 187.877 417.363 187.934 417.119 188.049C416.875 188.163 416.66 188.331 416.49 188.54C416.101 189.02 415.865 189.605 415.81 190.22V190.22H419.81V190.09C419.833 189.515 419.664 188.948 419.33 188.48C419.156 188.273 418.936 188.11 418.688 188.004C418.439 187.898 418.169 187.852 417.9 187.87V187.88Z" fill="black"/>
<path d="M424.78 186.76L424.89 188.09C425.165 187.641 425.546 187.267 426 187C426.469 186.734 427.001 186.599 427.54 186.61C427.952 186.585 428.365 186.647 428.752 186.794C429.138 186.94 429.488 187.167 429.78 187.46C430.366 188.198 430.649 189.131 430.57 190.07V195.72H429V190.11C429.062 189.511 428.894 188.91 428.53 188.43C428.341 188.252 428.117 188.116 427.873 188.03C427.628 187.944 427.369 187.91 427.11 187.93C426.665 187.916 426.223 188.02 425.83 188.23C425.483 188.434 425.196 188.728 425 189.08V195.72H423.37V186.78L424.78 186.76Z" fill="black"/>
<path d="M435.22 184.6V186.76H436.91V188H435.22V193.44C435.202 193.597 435.216 193.755 435.26 193.907C435.305 194.058 435.38 194.198 435.48 194.32C435.572 194.408 435.68 194.476 435.799 194.52C435.917 194.565 436.044 194.585 436.17 194.58C436.273 194.593 436.377 194.593 436.48 194.58L436.77 194.5L436.99 195.62C436.833 195.737 436.652 195.819 436.46 195.86C436.23 195.928 435.99 195.961 435.75 195.96C435.46 195.973 435.17 195.927 434.898 195.823C434.626 195.72 434.379 195.562 434.17 195.36C433.739 194.833 433.531 194.158 433.59 193.48V188H432.16V186.8H433.59V184.6H435.22Z" fill="black"/>
<path d="M240.385 124.996L126.23 10.8411L12.0747 124.996L126.23 239.152L240.385 124.996Z" fill="#2D9847"/>
<g opacity="0.15">
<path d="M126.23 227.54L23.6899 125L126.23 22.46L228.77 125L126.23 227.54ZM26.8499 125L126.23 224.38L225.61 125L126.23 25.62L26.8499 125ZM126.23 214.52L91.9999 180.29L118.17 154.12L92.8099 128.75L74.8099 146.75L86.6999 158.65L91.6299 153.72L84.6299 146.72L92.7799 138.57L108.29 154.09L87.0799 175.37L57.1599 145.44L77.5999 125L57.1599 104.55L87.0799 74.63L108.32 95.88L92.8099 111.4L84.6599 103.25L91.6599 96.25L86.7299 91.32L74.7999 103.25L92.7999 121.25L118.17 95.88L91.9999 69.71L126.22 35.48L160.44 69.71L134.28 95.88L159.66 121.25L177.66 103.25L165.77 91.35L160.84 96.28L167.84 103.28L159.7 111.43L144.14 95.88L165.38 74.63L195.3 104.55L174.86 125L195.3 145.45L165.38 175.36L144.14 154.12L159.66 138.6L167.8 146.75L160.8 153.75L165.73 158.68L177.62 146.78L159.62 128.78L134.24 154.15L160.42 180.32L126.23 214.52ZM95.1699 180.29L126.23 211.35L157.29 180.29L131.11 154.12L159.66 125.58L180.83 146.75L165.77 161.82L157.67 153.72L164.67 146.72L159.67 141.72L147.32 154.07L165.39 172.15L192.14 145.4L171.69 125L192.13 104.55L165.38 77.8L147.31 95.88L159.66 108.23L164.66 103.23L157.66 96.23L165.76 88.13L180.82 103.2L159.65 124.37L131.11 95.88L157.29 69.71L126.23 38.65L95.1699 69.71L121.35 95.88L92.8099 124.42L71.6299 103.25L86.6899 88.18L94.7899 96.28L87.7899 103.28L92.7899 108.28L105.13 95.93L87.0799 77.8L60.3299 104.55L80.7699 125L60.3299 145.44L87.0799 172.2L105.15 154.12L92.8099 141.77L87.8099 146.77L94.8099 153.77L86.7099 161.87L71.6299 146.75L92.8099 125.58L121.35 154.12L95.1699 180.29ZM200.23 140.52L184.72 125L200.23 109.48L215.75 125L200.23 140.52ZM187.88 125L200.23 137.35L212.58 125L200.23 112.65L187.88 125ZM52.2299 140.52L36.7099 125L52.2299 109.48L67.7499 125L52.2299 140.52ZM39.8799 125L52.2299 137.35L64.5799 125L52.2299 112.65L39.8799 125Z" fill="white"/>
<path d="M126.23 204L102.23 180L126.23 156L150.23 180L126.23 204ZM105.39 180L126.23 200.84L147.07 180L126.23 159.15L105.39 180Z" fill="white"/>
<path d="M126.23 93.4099L102.23 69.4099L126.23 45.4099L150.23 69.4099L126.23 93.4099ZM105.39 69.4099L126.23 90.2499L147.07 69.3999L126.23 48.5599L105.39 69.4099Z" fill="white"/>
</g>
<path d="M170.77 132C169.1 132 167.44 132 165.77 132C160.48 132 161.77 132.36 157.19 129.38C156.818 129.172 156.514 128.862 156.313 128.486C156.113 128.11 156.025 127.685 156.06 127.26C156.06 122.44 156.06 117.62 156.06 112.79V80.79C156.168 80.2283 156.061 79.6465 155.76 79.16H99.6398C99.5081 79.3413 99.4137 79.5469 99.3622 79.7649C99.3107 79.9829 99.3031 80.209 99.3398 80.43C99.3398 82.21 99.3398 84 99.3398 85.79C99.3398 87.58 99.4898 87.61 97.5598 87.61H81.8198C80.4798 87.61 80.4198 87.69 80.4198 89.02V169.63C80.4198 170.87 80.2698 170.77 81.5798 170.77H135.65C136.83 170.77 136.93 170.69 136.94 169.52C136.94 167.52 136.94 165.59 136.94 163.62C136.94 162.27 136.94 162.23 138.36 162.23H153.91H154.98C155.122 162.24 155.265 162.22 155.399 162.171C155.532 162.121 155.654 162.043 155.756 161.943C155.857 161.843 155.936 161.722 155.986 161.588C156.037 161.455 156.059 161.312 156.05 161.17C156.05 160.82 156.05 160.46 156.05 160.1C156.05 157 156.05 153.91 156.05 150.81C156.029 150.65 156.04 150.487 156.083 150.331C156.125 150.175 156.198 150.029 156.298 149.901C156.398 149.774 156.521 149.667 156.663 149.588C156.804 149.509 156.959 149.459 157.12 149.44C161.62 148.26 166.12 147.07 170.84 147.44C171.046 147.479 171.259 147.473 171.463 147.421C171.667 147.369 171.857 147.273 172.02 147.14V144.14C170.02 144.24 168.02 144.14 166.02 144.28C163.367 144.585 160.744 145.113 158.18 145.86C155.845 146.551 153.44 146.98 151.01 147.14C148.332 147.142 145.677 146.647 143.18 145.68C140.239 144.607 137.13 144.072 134 144.1C130.36 144.1 126.73 144.1 123.09 144.1C122.22 144.1 122.19 143.75 122.35 143.1C122.579 142.121 123.139 141.252 123.936 140.638C124.732 140.024 125.715 139.703 126.72 139.73C131.97 139.73 137.21 139.73 142.45 139.73C143.468 139.8 144.48 139.529 145.326 138.958C146.172 138.387 146.804 137.55 147.12 136.58C147.298 136.02 147.362 135.429 147.307 134.843C147.252 134.257 147.079 133.689 146.799 133.171C146.519 132.654 146.137 132.199 145.677 131.832C145.216 131.466 144.687 131.197 144.12 131.04C143.48 130.87 143.47 130.62 143.61 130.14C143.91 129.14 144.23 128.14 144.45 127.05C144.58 126.46 144.88 126.38 145.39 126.4C146.437 126.457 147.447 126.804 148.31 127.4C151.49 129.55 154.69 131.65 157.87 133.8C159.337 134.817 161.085 135.351 162.87 135.33C165.87 135.33 168.94 135.33 171.98 135.33V132.33C171.633 132.07 171.2 131.952 170.77 132V132ZM136.63 158.25C136.68 157.66 136.63 157.06 136.63 156.47C136.501 155.208 136.756 153.936 137.36 152.82C138.2 151.48 138.36 149.82 138.74 148.25C138.91 147.62 139.16 147.57 139.74 147.71C142.07 148.29 144.27 149.27 146.65 149.71C148.413 150.041 150.211 150.138 152 150C152.62 149.95 152.81 150.11 152.8 150.76C152.8 153.26 152.8 155.76 152.8 158.26C152.8 158.81 152.66 158.96 152.1 158.96C149.63 158.96 147.16 158.96 144.69 158.96C142.22 158.96 139.75 158.96 137.28 158.96C136.77 158.93 136.58 158.81 136.63 158.24V158.25ZM129.79 149.81C129.97 149.09 130.21 148.39 130.35 147.66C130.43 147.26 130.58 147.12 130.99 147.12C132.62 147.12 134.26 147.12 135.99 147.12C135.56 148.61 135.23 150.05 134.74 151.44C134.46 152.089 133.935 152.601 133.279 152.863C132.623 153.126 131.89 153.117 131.24 152.84C130.652 152.619 130.173 152.179 129.903 151.612C129.632 151.045 129.592 150.396 129.79 149.8V149.81ZM130.29 136.44C130.2 136.81 129.94 136.77 129.68 136.77H127.34C128.48 135.64 129.34 134.5 130.92 134.05C130.7 134.88 130.47 135.65 130.29 136.43V136.44ZM132.61 127.83C132.38 128.66 132.17 129.49 131.96 130.32C131.938 130.493 131.854 130.653 131.723 130.769C131.593 130.884 131.424 130.949 131.25 130.95C129.288 131.202 127.487 132.166 126.19 133.66C124.03 135.88 121.82 138.05 119.63 140.24C119.404 140.477 119.152 140.688 118.88 140.87C118.575 141.073 118.21 141.166 117.846 141.131C117.482 141.096 117.14 140.937 116.88 140.68C116.634 140.413 116.484 140.071 116.453 139.709C116.422 139.347 116.513 138.985 116.71 138.68C116.908 138.418 117.129 138.174 117.37 137.95C120.52 134.79 123.72 131.66 126.83 128.45C127.371 127.788 128.06 127.262 128.842 126.915C129.623 126.568 130.476 126.408 131.33 126.45C133 126.44 133 126.44 132.61 127.82V127.83ZM144.35 135.26C144.363 135.542 144.289 135.822 144.139 136.061C143.989 136.301 143.769 136.489 143.51 136.6C142.989 136.775 142.435 136.83 141.89 136.76C142.12 135.91 142.37 135.16 142.52 134.38C142.67 133.6 143.07 133.81 143.44 133.96C143.706 134.055 143.936 134.23 144.099 134.461C144.262 134.692 144.35 134.967 144.35 135.25V135.26ZM144.4 116C142.55 122.71 140.77 129.43 138.95 136.14C138.88 136.42 138.87 136.77 138.37 136.76C136.71 136.76 135.05 136.76 133.3 136.76C135.39 129.03 137.46 121.38 139.52 113.76C141.03 114.26 142.46 114.76 143.9 115.2C144.33 115.31 144.56 115.4 144.4 116ZM145.4 112.2C145.29 112.61 145.05 112.4 144.85 112.33C143.5 111.89 142.16 111.43 140.8 111C140.39 110.87 140.31 110.65 140.43 110.27C140.67 109.51 140.67 108.44 141.19 108.07C141.71 107.7 142.64 108.4 143.38 108.63C144.12 108.86 144.9 109.13 145.66 109.37C145.89 109.44 146.15 109.46 146.05 109.81C145.85 110.62 145.62 111.41 145.41 112.21L145.4 112.2ZM142 104.5C142.55 102.5 143 100.5 143.67 98.5C143.906 97.8988 144.361 97.4096 144.944 97.1312C145.527 96.8528 146.194 96.8059 146.81 97C147.413 97.1208 147.951 97.46 148.32 97.9527C148.689 98.4453 148.864 99.0568 148.81 99.67L147.81 103.51C147.57 104.39 147.3 105.27 147.1 106.17C147.01 106.59 146.84 106.63 146.49 106.51C145.15 106.05 143.81 105.59 142.49 105.16C142 105 141.91 104.87 142 104.51V104.5ZM152.81 126.5C152.81 126.5 152.81 126.56 152.75 126.71C152.19 126.35 151.66 126.02 151.14 125.71C149.54 124.63 147.95 123.54 145.89 123.51C145.23 123.51 145.62 122.99 145.7 122.71C146.7 118.96 147.7 115.21 148.7 111.46C149.7 107.71 150.77 104.1 151.61 100.38C151.781 99.5534 151.755 98.698 151.533 97.8834C151.312 97.0688 150.902 96.3178 150.336 95.6914C149.77 95.0651 149.064 94.581 148.276 94.2784C147.488 93.9758 146.639 93.8633 145.8 93.95C144.554 93.9784 143.354 94.4308 142.4 95.2325C141.445 96.0343 140.793 97.1375 140.55 98.36C139.29 103.05 138.02 107.74 136.73 112.51C136.596 112.216 136.555 111.888 136.61 111.57C136.61 104.03 136.61 96.49 136.61 88.95C136.61 88.23 136.46 88.01 135.7 88.01C125.946 88.01 116.203 88.01 106.47 88.01C105.65 88.01 105.47 88.25 105.47 89.01C105.53 91.01 105.47 91.01 107.53 91.01C115.9 91.01 124.27 91.01 132.64 91.01C133.38 91.01 133.57 91.17 133.57 91.92C133.57 102.14 133.57 112.36 133.57 122.58C133.57 123.43 133.29 123.58 132.57 123.52C130.88 123.52 129.08 123.24 127.57 124.18C126.321 124.852 124.9 125.134 123.49 124.99C119.7 124.99 115.92 124.99 112.14 124.99C111.51 124.99 111.34 125.15 111.35 125.77C111.35 128.01 111.35 128.01 113.56 128.01H123.02C121.96 129.01 121.09 129.86 120.24 130.72C119.99 130.97 119.69 130.9 119.41 130.9C117 130.9 114.58 130.9 112.17 130.9C111.59 130.9 111.34 130.98 111.35 131.65C111.35 133.92 111.35 133.92 113.62 133.92H117.11C116.18 134.82 115.39 135.52 114.68 136.29C114.095 136.857 113.671 137.568 113.45 138.351C113.229 139.135 113.22 139.963 113.423 140.752C113.627 141.54 114.035 142.26 114.607 142.84C115.179 143.419 115.894 143.837 116.68 144.05C117.44 144.26 118.32 143.94 118.95 144.18C119.58 144.42 119.3 145.53 119.85 146.11C120.146 146.445 120.509 146.713 120.915 146.897C121.322 147.082 121.763 147.178 122.21 147.18H127.26C127.04 148.08 126.81 148.9 126.65 149.74C126.451 150.648 126.518 151.593 126.843 152.464C127.167 153.335 127.736 154.094 128.48 154.65C129.15 155.19 129.33 155.65 129.01 156.35C128.69 157.05 129.01 157.29 129.66 157.35C129.833 157.383 130.004 157.43 130.17 157.49C131.59 157.85 131.61 157.86 132.05 156.49C132.26 155.82 132.8 156 133.22 155.97C133.64 155.94 133.5 156.4 133.5 156.63C133.5 160.12 133.5 163.63 133.5 167.09C133.5 167.71 133.29 167.8 132.74 167.8C116.54 167.8 100.333 167.8 84.1198 167.8C83.4698 167.8 83.3598 167.6 83.3598 167C83.3598 141.94 83.3598 116.883 83.3598 91.83C83.3598 91.21 83.5098 91.04 84.1398 91.04C89.9798 91.04 95.8198 91.04 101.66 91.04C102.43 91.04 102.58 90.82 102.56 90.1C102.56 87.72 102.56 85.34 102.56 82.95C102.56 82.42 102.64 82.19 103.27 82.19C119.51 82.19 135.746 82.19 151.98 82.19C152.45 82.19 152.74 82.19 152.74 82.83C152.786 97.3967 152.813 111.96 152.82 126.52L152.81 126.5Z" fill="white"/>
<path d="M87.3101 93.9C86.5401 93.9 86.3801 94.1 86.3901 94.83C86.3901 99.18 86.3901 103.53 86.3901 107.83C86.3901 108.45 86.4601 108.69 87.1801 108.69C99.4534 108.69 111.727 108.69 124 108.69C124.66 108.69 124.85 108.55 124.84 107.87C124.84 103.49 124.84 99.11 124.84 94.73C124.84 93.99 124.61 93.86 123.94 93.86C117.83 93.86 111.72 93.86 105.62 93.86C99.5201 93.86 93.4101 93.93 87.3101 93.9ZM121.07 96.9C121.72 96.9 121.84 97.1 121.83 97.7C121.83 100.11 121.83 102.52 121.83 104.93C121.83 105.61 121.67 105.77 121 105.77C115.88 105.77 110.75 105.77 105.63 105.77C100.51 105.77 95.5001 105.77 90.4401 105.77C89.5401 105.77 89.3701 105.51 89.4401 104.68C89.5001 102.33 89.4401 99.97 89.4401 97.62C89.4401 97.02 89.6201 96.89 90.1901 96.89C100.463 96.91 110.757 96.91 121.07 96.89V96.9Z" fill="white"/>
<path d="M97.53 117.55C94.04 117.55 90.53 117.55 87.07 117.55C86.5 117.55 86.39 117.72 86.4 118.25C86.4 120.96 86.4 123.67 86.4 126.39C86.4 129.11 86.4 131.87 86.4 134.61C86.4 135.11 86.4 135.34 87.05 135.33C92.53 135.33 98.0133 135.33 103.5 135.33C104.01 135.33 104.15 135.18 104.14 134.68C104.14 132.68 104.14 130.63 104.14 128.6C104.14 126.35 104.14 126.37 101.86 126.38C101.31 126.38 101.13 126.52 101.15 127.08C101.15 128.6 101.15 130.08 101.15 131.64C101.15 132.1 101.09 132.32 100.54 132.31C97.02 132.31 93.5033 132.31 89.99 132.31C89.52 132.31 89.39 132.18 89.39 131.71C89.39 128.2 89.39 124.71 89.39 121.17C89.39 120.65 89.55 120.51 90.05 120.52C92.05 120.52 93.99 120.52 95.95 120.52C96.68 120.52 97.69 120.86 98.08 120.38C98.47 119.9 98.16 118.96 98.22 118.22C98.29 117.64 98.05 117.55 97.53 117.55Z" fill="white"/>
<path d="M104.13 153.74C104.13 151.41 104.13 151.43 101.79 151.49C101.26 151.49 101.13 151.69 101.14 152.17C101.14 153.69 101.14 155.17 101.14 156.73C101.14 157.28 100.98 157.43 100.43 157.43C96.98 157.43 93.52 157.43 90.07 157.43C89.5 157.43 89.38 157.26 89.38 156.72C89.38 153.27 89.38 149.81 89.38 146.36C89.38 145.72 89.61 145.65 90.14 145.66C92.08 145.66 94.01 145.66 95.95 145.66C96.68 145.66 97.68 146 98.07 145.51C98.46 145.02 98.16 144.08 98.21 143.34C98.21 142.82 98.12 142.64 97.54 142.64C94.06 142.64 90.5766 142.64 87.09 142.64C86.49 142.64 86.37 142.83 86.38 143.39C86.38 146.09 86.38 148.8 86.38 151.51C86.38 154.22 86.38 156.93 86.38 159.64C86.38 160.17 86.44 160.41 87.08 160.41C92.5333 160.41 97.9833 160.41 103.43 160.41C103.96 160.41 104.13 160.3 104.12 159.73C104.11 157.73 104.13 155.73 104.13 153.74Z" fill="white"/>
<path d="M109.57 137.73C109.15 137.21 108.88 137.24 108.4 137.73C105.69 140.49 102.94 143.22 100.2 145.96L95.2802 150.89L95.0002 150.6C94.4602 150.1 93.9302 149.2 93.3802 149.19C92.8302 149.18 92.2802 150.19 91.7002 150.65C91.3202 150.97 91.2902 151.18 91.7002 151.55C92.7002 152.55 93.7602 153.55 94.7002 154.55C95.1702 155.07 95.4102 154.99 95.8702 154.55C100.42 149.96 105 145.4 109.56 140.82C110.06 140.32 110.93 139.82 110.92 139.28C110.91 138.74 110 138.28 109.57 137.73Z" fill="white"/>
<path d="M108.86 112C108.687 112.278 108.493 112.542 108.28 112.79C104.14 116.95 99.9935 121.103 95.8402 125.25C95.5802 125.51 95.3702 125.98 94.8402 125.44C94.3102 124.9 93.8402 124 93.3002 124.08C92.7602 124.16 92.2402 125.08 91.6802 125.53C91.2702 125.87 91.2402 126.1 91.6802 126.53C92.6802 127.53 93.6802 128.47 94.6802 129.53C95.1602 130.06 95.4202 130 95.9002 129.53C100.28 125.11 104.7 120.72 109.09 116.3C109.76 115.63 110.98 114.99 110.92 114.3C110.86 113.61 109.69 112.8 108.86 112Z" fill="white"/>
<path d="M113.59 119.05C111.46 119.05 111.5 119.05 111.45 121.15C111.45 121.93 111.7 122.06 112.45 122.06C117.81 122.06 123.17 122.06 128.53 122.06C130.8 122.06 130.77 122.06 130.79 119.81C130.79 119.13 130.55 119.06 129.98 119.06C127.06 119.06 124.14 119.06 121.22 119.06L113.59 119.05Z" fill="white"/>
<path d="M108.72 160.49C108.23 160.93 108.64 161.95 108.55 162.71C108.49 163.27 108.71 163.4 109.25 163.39C111.72 163.39 114.19 163.39 116.66 163.39H122.66C124.86 163.39 124.82 163.39 124.86 161.17C124.86 160.47 124.65 160.35 124.01 160.36C119.63 160.36 115.26 160.36 110.88 160.36C110.13 160.37 109.14 160.12 108.72 160.49Z" fill="white"/>
<path d="M129.26 163.38C130.73 163.38 130.73 163.38 130.73 161.88C130.73 160.38 130.73 160.36 129.2 160.36C127.67 160.36 127.72 160.36 127.72 161.85C127.72 163.34 127.72 163.38 129.26 163.38Z" fill="white"/>
<path d="M93.8201 102.81C95.3201 102.81 95.3201 102.81 95.3201 101.33C95.3201 99.85 95.3201 99.83 93.8301 99.83H93.7401C92.3101 99.83 92.3101 99.83 92.3101 101.28C92.3101 102.73 92.3101 102.81 93.8201 102.81Z" fill="white"/>
<path d="M99.7302 102.81C101.22 102.81 101.22 102.81 101.22 101.35C101.22 99.89 101.22 99.83 99.6902 99.83C98.1602 99.83 98.2101 99.83 98.2101 101.3C98.2101 102.77 98.2102 102.81 99.7302 102.81Z" fill="white"/>
<path d="M105.54 102.81C107.13 102.81 107.13 102.81 107.13 101.27C107.13 99.7301 107.13 99.8301 105.68 99.8301C104.23 99.8301 104.11 99.8301 104.11 101.39C104.11 102.95 104.11 102.81 105.54 102.81Z" fill="white"/>
<path d="M111.46 102.81C113.03 102.81 113.03 102.81 113.03 101.25C113.03 99.69 113.03 99.83 111.57 99.83C110.11 99.83 110.01 99.83 110.01 101.4C110 102.81 110 102.81 111.46 102.81Z" fill="white"/>
<path d="M117.39 102.81C118.93 102.81 118.93 102.81 118.93 101.31C118.93 99.81 118.93 99.83 117.45 99.83C115.97 99.83 115.91 99.83 115.91 101.34C115.91 102.85 115.91 102.81 117.39 102.81Z" fill="white"/>
</g>
<defs>
<clipPath id="clip0_61_998">
<rect width="654" height="250" fill="white"/>
</clipPath>
</defs>
</svg>
