<svg id="Layer_1" data-name="Layer 1" xmlns="http://www.w3.org/2000/svg" xmlns:xlink="http://www.w3.org/1999/xlink" viewBox="0 0 654 250"><defs><style>.cls-1,.cls-3,.cls-4{fill:none;}.cls-2{clip-path:url(#clip-path);}.cls-3{stroke:#2681d6;}.cls-3,.cls-4{stroke-miterlimit:10;}.cls-4{stroke:#ed4328;stroke-width:2.61px;}.cls-5{fill:#ed4328;}.cls-6{opacity:0.15;}.cls-7{fill:#fff;}</style><clipPath id="clip-path"><rect class="cls-1" x="-2004.63" width="1920" height="142.18"/></clipPath></defs><g class="cls-2"><path class="cls-3" d="M-84.63,334.28l54.42-54.41h0L178.5,71.16-30.21-137.55h0L-84.63-192-347.75,71.16ZM-277.49,34.85l36.31,36.31-36.31,36.31L-313.8,71.16Zm385.73,72.62L71.93,71.16l36.31-36.31,36.31,36.31ZM-47.18,262.89h0l-37.45,37.45-85.06-85.07,68.21-68.21L-171.74,76.8l-51,51.05L-187.67,163l17-17-18.16-18.16,17.11-17.11,36.31,36.32-51.24,51.23-73.85-73.84,53.29-53.29-53.29-53.28L-186.67-56l51.24,51.24-36.31,36.31-17.11-17.11,18.16-18.16-17-17-35.12,35.13,51,51.05,70.26-70.25-68.21-68.22,47.62-47.62h0L-84.63-158l37.45,37.45h0L.44-72.95-67.77-4.73,2.49,65.52l51.05-51L18.42-20.66l-17,17L19.6,14.47,2.49,31.58-33.82-4.73,17.42-56,91.26,17.88,38,71.16l53.28,53.29L17.42,198.29l-51.24-51.23L2.49,110.74,19.6,127.85,1.44,146l17,17,35.12-35.13-51-51-70.26,70.26L.44,215.27Z"/></g><polygon class="cls-4" points="12.17 125 126.04 238.87 527.96 238.87 641.83 125 527.96 11.13 126.04 11.13 12.17 125"/><path d="M298.69,150.25c0-.23-.08-.43-.11-.61a4.55,4.55,0,0,1,0-.53,3.2,3.2,0,0,1-1,.92,2.58,2.58,0,0,1-1.33.36,2.48,2.48,0,0,1-1.8-.6,2.21,2.21,0,0,1-.62-1.67,2,2,0,0,1,.88-1.7,4.07,4.07,0,0,1,2.38-.61h1.5v-.75a1.4,1.4,0,0,0-.41-1.06,1.63,1.63,0,0,0-1.15-.38,1.68,1.68,0,0,0-1.08.33,1,1,0,0,0-.41.81h-1.31l0,0a1.81,1.81,0,0,1,.78-1.51,3.61,3.61,0,0,1,4.19,0,2.31,2.31,0,0,1,.79,1.89v3.65a6.57,6.57,0,0,0,0,.78,4.74,4.74,0,0,0,.15.75Zm-2.29-1a2.42,2.42,0,0,0,1.35-.39,1.77,1.77,0,0,0,.79-.88v-1.23H297a2,2,0,0,0-1.33.42,1.24,1.24,0,0,0-.5,1,1,1,0,0,0,.31.79A1.3,1.3,0,0,0,296.4,149.24Z"/><path d="M303.84,140.84v1.83h1.44v1h-1.44v4.6a1,1,0,0,0,.22.75.78.78,0,0,0,.58.22l.27,0,.25-.07.19,1a1.32,1.32,0,0,1-.46.2,2,2,0,0,1-.59.08,1.8,1.8,0,0,1-1.34-.5,2.22,2.22,0,0,1-.5-1.6v-4.6h-1.2v-1h1.2v-1.83Z"/><path d="M308.67,140.84v1.83h1.44v1h-1.44v4.6a1,1,0,0,0,.22.75.78.78,0,0,0,.59.22l.26,0,.25-.07.19,1a1.32,1.32,0,0,1-.46.2,2,2,0,0,1-.59.08,1.82,1.82,0,0,1-1.34-.5,2.22,2.22,0,0,1-.5-1.6v-4.6h-1.2v-1h1.2v-1.83Z"/><path d="M314.72,150.39a3.16,3.16,0,0,1-2.54-1,4,4,0,0,1-.92-2.74v-.31a4,4,0,0,1,.94-2.7,3,3,0,0,1,2.3-1.07,2.74,2.74,0,0,1,2.28.95,3.86,3.86,0,0,1,.76,2.51v.73H312.7l0,0a3.09,3.09,0,0,0,.5,1.85,1.76,1.76,0,0,0,1.54.72,3.52,3.52,0,0,0,1.23-.2,3.07,3.07,0,0,0,.91-.55l.54.89a3.37,3.37,0,0,1-1.07.66A4.3,4.3,0,0,1,314.72,150.39Zm-.22-6.77a1.5,1.5,0,0,0-1.19.55,2.68,2.68,0,0,0-.58,1.43l0,0h3.41v-.11a2.23,2.23,0,0,0-.4-1.37A1.47,1.47,0,0,0,314.5,143.62Z"/><path d="M320.32,142.67l.1,1.13a2.75,2.75,0,0,1,.95-.94,2.54,2.54,0,0,1,1.3-.33,2.47,2.47,0,0,1,1.9.72,3.14,3.14,0,0,1,.67,2.21v4.79h-1.38v-4.76a2,2,0,0,0-.4-1.42,1.56,1.56,0,0,0-1.2-.42,2.17,2.17,0,0,0-1.09.26,1.91,1.91,0,0,0-.7.71v5.63h-1.38v-7.58Z"/><path d="M326.93,146.6a5.07,5.07,0,0,1,.78-2.95,2.51,2.51,0,0,1,2.19-1.12,2.65,2.65,0,0,1,1.18.25,2.38,2.38,0,0,1,.87.71v-4.17h1.38v10.93h-1.05l-.21-1a2.48,2.48,0,0,1-.92.82,2.73,2.73,0,0,1-1.27.28,2.6,2.6,0,0,1-2.17-1,4.19,4.19,0,0,1-.78-2.64Zm1.38.15a3.15,3.15,0,0,0,.47,1.83,1.62,1.62,0,0,0,1.45.69,1.82,1.82,0,0,0,1-.28,2,2,0,0,0,.68-.78v-3.54a2,2,0,0,0-.69-.74,1.76,1.76,0,0,0-1-.28,1.56,1.56,0,0,0-1.47.82,4.2,4.2,0,0,0-.47,2.13Z"/><path d="M338.53,150.39a3.2,3.2,0,0,1-2.55-1,4,4,0,0,1-.91-2.74v-.31a3.91,3.91,0,0,1,.94-2.7,3,3,0,0,1,2.3-1.07,2.74,2.74,0,0,1,2.28.95,3.86,3.86,0,0,1,.76,2.51v.73h-4.84l0,0a3.09,3.09,0,0,0,.5,1.85,1.76,1.76,0,0,0,1.54.72,3.52,3.52,0,0,0,1.23-.2,3.07,3.07,0,0,0,.91-.55l.53.89a3.26,3.26,0,0,1-1.07.66A4.21,4.21,0,0,1,338.53,150.39Zm-.22-6.77a1.48,1.48,0,0,0-1.19.55,2.61,2.61,0,0,0-.58,1.43v0H340v-.11a2.23,2.23,0,0,0-.4-1.37A1.47,1.47,0,0,0,338.31,143.62Z"/><path d="M342.58,146.6a5.07,5.07,0,0,1,.78-2.95,2.51,2.51,0,0,1,2.19-1.12,2.59,2.59,0,0,1,1.18.25,2.33,2.33,0,0,1,.88.71v-4.17H349v10.93h-1.06l-.21-1a2.38,2.38,0,0,1-.91.82,2.73,2.73,0,0,1-1.27.28,2.58,2.58,0,0,1-2.17-1,4.13,4.13,0,0,1-.79-2.64Zm1.38.15a3.22,3.22,0,0,0,.47,1.83,1.64,1.64,0,0,0,1.46.69,1.78,1.78,0,0,0,1-.28,2,2,0,0,0,.69-.78v-3.54a2.14,2.14,0,0,0-.69-.74,1.77,1.77,0,0,0-1-.28,1.56,1.56,0,0,0-1.46.82,4.2,4.2,0,0,0-.48,2.13Z"/><path d="M354.3,146.6a5.07,5.07,0,0,1,.78-2.95,2.51,2.51,0,0,1,2.19-1.12,2.65,2.65,0,0,1,1.18.25,2.49,2.49,0,0,1,.88.71v-4.17h1.38v10.93h-1.06l-.21-1a2.48,2.48,0,0,1-.92.82,2.7,2.7,0,0,1-1.27.28,2.61,2.61,0,0,1-2.17-1,4.19,4.19,0,0,1-.78-2.64Zm1.38.15a3.15,3.15,0,0,0,.47,1.83,1.63,1.63,0,0,0,1.45.69,1.82,1.82,0,0,0,1-.28,2.1,2.1,0,0,0,.69-.78v-3.54a2.14,2.14,0,0,0-.69-.74,1.82,1.82,0,0,0-1-.28,1.57,1.57,0,0,0-1.47.82,4.31,4.31,0,0,0-.47,2.13Z"/><path d="M364.26,140.73h-1.38v-1.41h1.38Zm0,9.52h-1.38v-7.58h1.38Z"/><path d="M370.78,148.21a.9.9,0,0,0-.35-.74,3.37,3.37,0,0,0-1.31-.51,5.58,5.58,0,0,1-2.05-.8,1.64,1.64,0,0,1-.72-1.39,2,2,0,0,1,.79-1.58,3.05,3.05,0,0,1,2-.66,3,3,0,0,1,2.08.7,2,2,0,0,1,.77,1.63l0,0H370.7a1.24,1.24,0,0,0-.43-.89,1.57,1.57,0,0,0-1.09-.39,1.61,1.61,0,0,0-1.09.32,1,1,0,0,0-.36.79.81.81,0,0,0,.31.69,3.45,3.45,0,0,0,1.29.45,5.51,5.51,0,0,1,2.11.83,1.68,1.68,0,0,1,.72,1.41,2,2,0,0,1-.81,1.65,3.42,3.42,0,0,1-2.14.63,3.34,3.34,0,0,1-2.28-.73,2.08,2.08,0,0,1-.79-1.72v0h1.32A1.29,1.29,0,0,0,368,149a2.16,2.16,0,0,0,1.19.34,1.9,1.9,0,0,0,1.16-.32A1,1,0,0,0,370.78,148.21Z"/><path d="M376.89,149.32a1.64,1.64,0,0,0,1.11-.43,1.33,1.33,0,0,0,.48-1h1.24l0,0a2.15,2.15,0,0,1-.84,1.74,2.93,2.93,0,0,1-2,.76,3,3,0,0,1-2.47-1.08,4.2,4.2,0,0,1-.87-2.7v-.3a4.16,4.16,0,0,1,.88-2.69,3,3,0,0,1,2.46-1.09,2.86,2.86,0,0,1,2.07.78,2.5,2.5,0,0,1,.78,1.93v0h-1.25a1.69,1.69,0,0,0-.45-1.18,1.53,1.53,0,0,0-1.14-.48,1.59,1.59,0,0,0-1.48.78,3.7,3.7,0,0,0-.47,1.91v.3a3.69,3.69,0,0,0,.46,1.92A1.59,1.59,0,0,0,376.89,149.32Z"/><path d="M386.19,149.13a2.47,2.47,0,0,1-.91.93,2.54,2.54,0,0,1-1.3.33,2.41,2.41,0,0,1-1.93-.79,3.69,3.69,0,0,1-.69-2.46v-4.47h1.37v4.48a2.82,2.82,0,0,0,.36,1.67,1.34,1.34,0,0,0,1.12.45,2.33,2.33,0,0,0,1.21-.29,1.9,1.9,0,0,0,.73-.85v-5.46h1.37v7.58h-1.24Z"/><path d="M393.94,148.21a.92.92,0,0,0-.35-.74,3.44,3.44,0,0,0-1.31-.51,5.63,5.63,0,0,1-2.06-.8,1.65,1.65,0,0,1-.71-1.39,2,2,0,0,1,.78-1.58,3.09,3.09,0,0,1,2-.66,3,3,0,0,1,2.09.7,2,2,0,0,1,.76,1.63v0h-1.32a1.2,1.2,0,0,0-.43-.89,1.55,1.55,0,0,0-1.09-.39,1.6,1.6,0,0,0-1.08.32,1,1,0,0,0-.36.79.81.81,0,0,0,.31.69,3.31,3.31,0,0,0,1.28.45,5.5,5.5,0,0,1,2.12.83,1.68,1.68,0,0,1,.72,1.41,2,2,0,0,1-.82,1.65,3.37,3.37,0,0,1-2.13.63,3.31,3.31,0,0,1-2.28-.73,2.08,2.08,0,0,1-.79-1.72v0h1.32a1.28,1.28,0,0,0,.54,1.08,2.17,2.17,0,0,0,1.2.34,1.87,1.87,0,0,0,1.15-.32A.94.94,0,0,0,393.94,148.21Z"/><path d="M401.44,148.21a.92.92,0,0,0-.35-.74,3.44,3.44,0,0,0-1.31-.51,5.63,5.63,0,0,1-2.06-.8,1.63,1.63,0,0,1-.71-1.39,2,2,0,0,1,.78-1.58,3.09,3.09,0,0,1,2-.66,3,3,0,0,1,2.09.7,2,2,0,0,1,.76,1.63v0h-1.32a1.2,1.2,0,0,0-.43-.89,1.55,1.55,0,0,0-1.09-.39,1.6,1.6,0,0,0-1.08.32,1,1,0,0,0-.37.79.82.82,0,0,0,.32.69,3.31,3.31,0,0,0,1.28.45,5.5,5.5,0,0,1,2.12.83,1.68,1.68,0,0,1,.72,1.41,2,2,0,0,1-.82,1.65,3.37,3.37,0,0,1-2.13.63,3.31,3.31,0,0,1-2.28-.73,2.08,2.08,0,0,1-.79-1.72v0h1.32a1.28,1.28,0,0,0,.54,1.08,2.17,2.17,0,0,0,1.2.34A1.87,1.87,0,0,0,401,149,.94.94,0,0,0,401.44,148.21Z"/><path d="M406,140.73h-1.37v-1.41H406Zm0,9.52h-1.37v-7.58H406Z"/><path d="M407.82,146.39a4.2,4.2,0,0,1,.91-2.77,3.38,3.38,0,0,1,5,0,4.18,4.18,0,0,1,.91,2.77v.15a4.16,4.16,0,0,1-.91,2.78,3.4,3.4,0,0,1-5,0,4.13,4.13,0,0,1-.92-2.77Zm1.38.15a3.56,3.56,0,0,0,.51,2,1.83,1.83,0,0,0,3,0,3.56,3.56,0,0,0,.51-2v-.15a3.47,3.47,0,0,0-.52-2,1.82,1.82,0,0,0-3,0,3.55,3.55,0,0,0-.51,2Z"/><path d="M417.53,142.67l.1,1.13a2.75,2.75,0,0,1,.95-.94,2.53,2.53,0,0,1,1.29-.33,2.47,2.47,0,0,1,1.9.72,3.14,3.14,0,0,1,.67,2.21v4.79h-1.38v-4.76a2.06,2.06,0,0,0-.39-1.42,1.59,1.59,0,0,0-1.21-.42,2.16,2.16,0,0,0-1.08.26,1.84,1.84,0,0,0-.7.71v5.63H416.3v-7.58Z"/><path d="M428.85,148.21a.9.9,0,0,0-.35-.74,3.37,3.37,0,0,0-1.31-.51,5.58,5.58,0,0,1-2.05-.8,1.64,1.64,0,0,1-.72-1.39,2,2,0,0,1,.79-1.58,3.05,3.05,0,0,1,2-.66,3,3,0,0,1,2.08.7,2,2,0,0,1,.77,1.63l0,0h-1.31a1.24,1.24,0,0,0-.43-.89,1.57,1.57,0,0,0-1.09-.39,1.61,1.61,0,0,0-1.09.32,1,1,0,0,0-.36.79.81.81,0,0,0,.31.69,3.45,3.45,0,0,0,1.29.45,5.51,5.51,0,0,1,2.11.83,1.68,1.68,0,0,1,.72,1.41,2,2,0,0,1-.81,1.65,3.42,3.42,0,0,1-2.14.63,3.34,3.34,0,0,1-2.28-.73,2.11,2.11,0,0,1-.79-1.72v0h1.32a1.29,1.29,0,0,0,.55,1.08,2.16,2.16,0,0,0,1.19.34,1.9,1.9,0,0,0,1.16-.32A1,1,0,0,0,428.85,148.21Z"/><path d="M435.19,146.39a4.15,4.15,0,0,1,.91-2.77,3.37,3.37,0,0,1,5,0,4.13,4.13,0,0,1,.91,2.77v.15a4.16,4.16,0,0,1-.91,2.78,3.4,3.4,0,0,1-5,0,4.13,4.13,0,0,1-.91-2.77Zm1.38.15a3.56,3.56,0,0,0,.51,2,1.82,1.82,0,0,0,3,0,3.56,3.56,0,0,0,.51-2v-.15a3.55,3.55,0,0,0-.51-2,1.68,1.68,0,0,0-1.51-.79,1.64,1.64,0,0,0-1.49.79,3.55,3.55,0,0,0-.51,2Z"/><path d="M444.89,142.67l.1,1.13a2.75,2.75,0,0,1,.95-.94,2.54,2.54,0,0,1,1.3-.33,2.47,2.47,0,0,1,1.9.72,3.14,3.14,0,0,1,.67,2.21v4.79h-1.38v-4.76a2,2,0,0,0-.4-1.42,1.56,1.56,0,0,0-1.2-.42,2.17,2.17,0,0,0-1.09.26,1.91,1.91,0,0,0-.7.71v5.63h-1.38v-7.58Z"/><path d="M458.39,149.32a1.64,1.64,0,0,0,1.11-.43,1.33,1.33,0,0,0,.48-1h1.24l0,0a2.15,2.15,0,0,1-.84,1.74,2.93,2.93,0,0,1-2,.76,3,3,0,0,1-2.47-1.08,4.2,4.2,0,0,1-.86-2.7v-.3a4.16,4.16,0,0,1,.87-2.69,3,3,0,0,1,2.46-1.09,2.86,2.86,0,0,1,2.07.78,2.5,2.5,0,0,1,.78,1.93v0H460a1.69,1.69,0,0,0-.45-1.18,1.53,1.53,0,0,0-1.14-.48,1.59,1.59,0,0,0-1.48.78,3.7,3.7,0,0,0-.47,1.91v.3a3.69,3.69,0,0,0,.46,1.92A1.6,1.6,0,0,0,458.39,149.32Z"/><path d="M466.47,143.89l-.71,0a1.54,1.54,0,0,0-.92.26,1.67,1.67,0,0,0-.58.72v5.42h-1.38v-7.58h1.23l.14,1.11a2.57,2.57,0,0,1,.79-.92,1.87,1.87,0,0,1,1.09-.33l.3,0,.23.06Z"/><path d="M470.91,150.39a3.2,3.2,0,0,1-2.55-1,4,4,0,0,1-.91-2.74v-.31a3.91,3.91,0,0,1,.94-2.7,3,3,0,0,1,2.3-1.07,2.76,2.76,0,0,1,2.28.95,3.86,3.86,0,0,1,.76,2.51v.73h-4.85l0,0a3.09,3.09,0,0,0,.51,1.85,1.75,1.75,0,0,0,1.54.72,3.6,3.6,0,0,0,1.23-.2,2.9,2.9,0,0,0,.9-.55l.54.89a3.37,3.37,0,0,1-1.07.66A4.25,4.25,0,0,1,470.91,150.39Zm-.22-6.77a1.48,1.48,0,0,0-1.19.55,2.61,2.61,0,0,0-.58,1.43v0h3.42v-.11a2.23,2.23,0,0,0-.41-1.37A1.45,1.45,0,0,0,470.69,143.62Z"/><path d="M479.93,150.25c0-.23-.08-.43-.11-.61a4.55,4.55,0,0,1,0-.53,3.2,3.2,0,0,1-1,.92,2.58,2.58,0,0,1-1.33.36,2.48,2.48,0,0,1-1.8-.6,2.21,2.21,0,0,1-.62-1.67,2,2,0,0,1,.88-1.7,4.07,4.07,0,0,1,2.38-.61h1.5v-.75a1.4,1.4,0,0,0-.41-1.06,1.63,1.63,0,0,0-1.15-.38,1.68,1.68,0,0,0-1.08.33,1,1,0,0,0-.41.81h-1.31l0,0a1.81,1.81,0,0,1,.78-1.51,3.61,3.61,0,0,1,4.19,0,2.31,2.31,0,0,1,.79,1.89v3.65a6.57,6.57,0,0,0,0,.78,4.74,4.74,0,0,0,.15.75Zm-2.29-1a2.42,2.42,0,0,0,1.35-.39,1.77,1.77,0,0,0,.79-.88v-1.23h-1.55a2,2,0,0,0-1.33.42,1.24,1.24,0,0,0-.5,1,1,1,0,0,0,.31.79A1.3,1.3,0,0,0,477.64,149.24Z"/><path d="M485.08,140.84v1.83h1.43v1h-1.43v4.6a1,1,0,0,0,.22.75.78.78,0,0,0,.58.22l.27,0,.25-.07.19,1a1.32,1.32,0,0,1-.46.2,2,2,0,0,1-.59.08,1.8,1.8,0,0,1-1.34-.5,2.22,2.22,0,0,1-.5-1.6v-4.6h-1.2v-1h1.2v-1.83Z"/><path d="M489.48,140.73h-1.37v-1.41h1.37Zm0,9.52h-1.37v-7.58h1.37Z"/><path d="M492.84,142.67l.1,1.13a2.75,2.75,0,0,1,.95-.94,2.53,2.53,0,0,1,1.29-.33,2.47,2.47,0,0,1,1.9.72,3.14,3.14,0,0,1,.67,2.21v4.79h-1.38v-4.76a2.06,2.06,0,0,0-.39-1.42,1.59,1.59,0,0,0-1.21-.42,2.16,2.16,0,0,0-1.08.26,1.84,1.84,0,0,0-.7.71v5.63h-1.38v-7.58Z"/><path d="M499.51,146.6a5.07,5.07,0,0,1,.78-2.95,2.5,2.5,0,0,1,2.18-1.12,2.7,2.7,0,0,1,1.27.29,2.46,2.46,0,0,1,.92.84l.17-1h1.1v7.62a2.92,2.92,0,0,1-.85,2.24,3.5,3.5,0,0,1-2.45.78,5.22,5.22,0,0,1-1.18-.15,4.66,4.66,0,0,1-1.11-.41l.21-1.07a4.13,4.13,0,0,0,1,.33,4.8,4.8,0,0,0,1.11.13,2.05,2.05,0,0,0,1.47-.45,2,2,0,0,0,.46-1.4v-.86a2.67,2.67,0,0,1-.89.72,2.86,2.86,0,0,1-1.2.24,2.6,2.6,0,0,1-2.17-1,4.19,4.19,0,0,1-.78-2.64Zm1.38.15a3.22,3.22,0,0,0,.47,1.83,1.63,1.63,0,0,0,1.45.69,1.79,1.79,0,0,0,1-.28,2.29,2.29,0,0,0,.7-.8V144.7a2.17,2.17,0,0,0-.7-.77,1.86,1.86,0,0,0-1-.28,1.58,1.58,0,0,0-1.46.82,4.31,4.31,0,0,0-.47,2.13Z"/><path d="M277,167.46c0-.23-.09-.44-.11-.61a4.75,4.75,0,0,1-.05-.53,3,3,0,0,1-1,.91,2.53,2.53,0,0,1-1.34.37,2.49,2.49,0,0,1-1.8-.6,2.25,2.25,0,0,1-.62-1.67,2,2,0,0,1,.88-1.7,4.1,4.1,0,0,1,2.38-.61h1.5v-.75a1.39,1.39,0,0,0-.4-1.06,1.6,1.6,0,0,0-1.15-.39,1.71,1.71,0,0,0-1.09.34,1,1,0,0,0-.41.81H272.5v0a1.77,1.77,0,0,1,.77-1.51,3.21,3.21,0,0,1,2.13-.69,3.17,3.17,0,0,1,2.07.65,2.34,2.34,0,0,1,.78,1.89v3.65c0,.27,0,.53,0,.78a3.85,3.85,0,0,0,.16.75Zm-2.29-1a2.42,2.42,0,0,0,1.35-.39,1.79,1.79,0,0,0,.78-.88V164h-1.54a2,2,0,0,0-1.34.42,1.27,1.27,0,0,0-.5,1,1,1,0,0,0,.32.8A1.3,1.3,0,0,0,274.73,166.45Z"/><path d="M281.48,159.88l.1,1.13a2.64,2.64,0,0,1,.94-.94,2.56,2.56,0,0,1,1.3-.33,2.47,2.47,0,0,1,1.9.72,3.13,3.13,0,0,1,.67,2.21v4.79H285V162.7a2.06,2.06,0,0,0-.39-1.42,1.6,1.6,0,0,0-1.21-.42,2.16,2.16,0,0,0-1.08.25,1.86,1.86,0,0,0-.7.72v5.63h-1.38v-7.58Z"/><path d="M295.1,167.6a3.23,3.23,0,0,1-2.55-1,4,4,0,0,1-.91-2.75v-.3a3.91,3.91,0,0,1,.94-2.7,3,3,0,0,1,2.3-1.07,2.76,2.76,0,0,1,2.28.94,3.88,3.88,0,0,1,.76,2.52v.73h-4.85l0,0a3.09,3.09,0,0,0,.51,1.85,1.74,1.74,0,0,0,1.54.71,3.38,3.38,0,0,0,1.23-.2,2.57,2.57,0,0,0,.9-.55l.54.9a3.37,3.37,0,0,1-1.07.66A4.25,4.25,0,0,1,295.1,167.6Zm-.22-6.78a1.49,1.49,0,0,0-1.19.56,2.61,2.61,0,0,0-.58,1.43v0h3.42v-.11a2.23,2.23,0,0,0-.41-1.37A1.47,1.47,0,0,0,294.88,160.82Z"/><path d="M300.7,159.88l.1,1.13a2.67,2.67,0,0,1,.95-.94,2.53,2.53,0,0,1,1.29-.33,2.47,2.47,0,0,1,1.9.72,3.13,3.13,0,0,1,.67,2.21v4.79h-1.38V162.7a2.06,2.06,0,0,0-.39-1.42,1.59,1.59,0,0,0-1.21-.42,2.16,2.16,0,0,0-1.08.25,1.86,1.86,0,0,0-.7.72v5.63h-1.38v-7.58Z"/><path d="M312.27,167.46l-.11-.61a4.73,4.73,0,0,1,0-.53,3.06,3.06,0,0,1-1,.91A2.81,2.81,0,0,1,308,167a2.21,2.21,0,0,1-.62-1.67,2,2,0,0,1,.88-1.7,4.07,4.07,0,0,1,2.38-.61h1.5v-.75a1.4,1.4,0,0,0-.41-1.06,1.58,1.58,0,0,0-1.14-.39,1.71,1.71,0,0,0-1.09.34,1,1,0,0,0-.41.81h-1.31l0,0a1.81,1.81,0,0,1,.78-1.51,3.61,3.61,0,0,1,4.19,0,2.31,2.31,0,0,1,.79,1.89v3.65a6.57,6.57,0,0,0,0,.78,4.74,4.74,0,0,0,.15.75Zm-2.29-1a2.42,2.42,0,0,0,1.35-.39,1.77,1.77,0,0,0,.79-.88V164h-1.55a2,2,0,0,0-1.33.42,1.24,1.24,0,0,0-.5,1,1,1,0,0,0,.31.8A1.3,1.3,0,0,0,310,166.45Z"/><path d="M322,164a4.14,4.14,0,0,1-.79,2.65,2.58,2.58,0,0,1-2.16,1,2.77,2.77,0,0,1-1.32-.3,2.46,2.46,0,0,1-.92-.87l-.22,1H315.5V156.53h1.38v4.25a2.38,2.38,0,0,1,.89-.78,2.79,2.79,0,0,1,1.23-.26,2.52,2.52,0,0,1,2.19,1.12,5.07,5.07,0,0,1,.78,2.95Zm-1.38-.14a4.2,4.2,0,0,0-.48-2.13,1.57,1.57,0,0,0-1.46-.82,1.78,1.78,0,0,0-1.07.31,2.23,2.23,0,0,0-.7.84v3.28a2.23,2.23,0,0,0,.7.88,1.8,1.8,0,0,0,1.09.31,1.64,1.64,0,0,0,1.45-.69,3.24,3.24,0,0,0,.47-1.84Z"/><path d="M325.14,167.46h-1.38V156.53h1.38Z"/><path d="M328.76,157.94h-1.38v-1.41h1.38Zm0,9.52h-1.38v-7.58h1.38Z"/><path d="M332.11,159.88l.1,1.13a2.67,2.67,0,0,1,1-.94,2.54,2.54,0,0,1,1.3-.33,2.45,2.45,0,0,1,1.89.72,3.13,3.13,0,0,1,.68,2.21v4.79h-1.38V162.7a2,2,0,0,0-.4-1.42,1.57,1.57,0,0,0-1.21-.42,2.16,2.16,0,0,0-1.08.25,1.94,1.94,0,0,0-.7.72v5.63h-1.38v-7.58Z"/><path d="M338.78,163.81a5,5,0,0,1,.79-2.95,2.49,2.49,0,0,1,2.18-1.12A2.66,2.66,0,0,1,343,160a2.46,2.46,0,0,1,.92.84l.17-1h1.1v7.62a2.86,2.86,0,0,1-.85,2.23,3.47,3.47,0,0,1-2.44.79,4.63,4.63,0,0,1-1.18-.16,4.75,4.75,0,0,1-1.12-.4l.21-1.08a3.85,3.85,0,0,0,1,.34,4.8,4.8,0,0,0,1.11.13,2,2,0,0,0,1.47-.46,1.87,1.87,0,0,0,.46-1.39v-.86a2.58,2.58,0,0,1-.89.72,2.82,2.82,0,0,1-1.2.24,2.58,2.58,0,0,1-2.16-1,4.14,4.14,0,0,1-.79-2.65Zm1.38.14a3.24,3.24,0,0,0,.47,1.84,1.64,1.64,0,0,0,1.45.69,1.83,1.83,0,0,0,1.05-.28,2.17,2.17,0,0,0,.69-.8v-3.49a2.24,2.24,0,0,0-.69-.77,1.83,1.83,0,0,0-1-.28,1.56,1.56,0,0,0-1.46.82,4.15,4.15,0,0,0-.48,2.13Z"/><path d="M352.24,167.46h-1.38V156.53h1.38Z"/><path d="M357.49,167.6a3.22,3.22,0,0,1-2.54-1,4,4,0,0,1-.91-2.75v-.3a3.91,3.91,0,0,1,.94-2.7,2.94,2.94,0,0,1,2.3-1.07,2.76,2.76,0,0,1,2.28.94,3.94,3.94,0,0,1,.76,2.52v.73h-4.85l0,0a3.16,3.16,0,0,0,.5,1.85,1.75,1.75,0,0,0,1.54.71,3.31,3.31,0,0,0,1.23-.2,2.52,2.52,0,0,0,.91-.55l.54.9a3.37,3.37,0,0,1-1.07.66A4.3,4.3,0,0,1,357.49,167.6Zm-.21-6.78a1.53,1.53,0,0,0-1.2.56,2.68,2.68,0,0,0-.57,1.43v0h3.42v-.11a2.23,2.23,0,0,0-.41-1.37A1.47,1.47,0,0,0,357.28,160.82Z"/><path d="M361.62,163.81a5.07,5.07,0,0,1,.78-2.95,2.5,2.5,0,0,1,2.18-1.12,2.73,2.73,0,0,1,1.27.29,2.54,2.54,0,0,1,.92.84l.16-1H368v7.62a2.89,2.89,0,0,1-.84,2.23,3.5,3.5,0,0,1-2.45.79,4.69,4.69,0,0,1-1.18-.16,4.91,4.91,0,0,1-1.12-.4l.21-1.08a3.79,3.79,0,0,0,1,.34,4.67,4.67,0,0,0,1.11.13,2,2,0,0,0,1.46-.46,1.87,1.87,0,0,0,.46-1.39v-.86a2.49,2.49,0,0,1-.89.72,2.78,2.78,0,0,1-1.19.24,2.58,2.58,0,0,1-2.17-1,4.2,4.2,0,0,1-.78-2.65ZM363,164a3.16,3.16,0,0,0,.47,1.84,1.62,1.62,0,0,0,1.45.69,1.82,1.82,0,0,0,1-.28,2.17,2.17,0,0,0,.69-.8v-3.49a2.06,2.06,0,0,0-.69-.77,1.8,1.8,0,0,0-1-.28,1.57,1.57,0,0,0-1.46.82,4.25,4.25,0,0,0-.47,2.13Z"/><path d="M374.67,167.46c-.05-.23-.08-.44-.11-.61a4.73,4.73,0,0,1,0-.53,3.06,3.06,0,0,1-1,.91,2.82,2.82,0,0,1-3.14-.23,2.24,2.24,0,0,1-.61-1.67,2,2,0,0,1,.87-1.7A4.11,4.11,0,0,1,373,163h1.5v-.75a1.4,1.4,0,0,0-.41-1.06,1.59,1.59,0,0,0-1.15-.39,1.66,1.66,0,0,0-1.08.34,1,1,0,0,0-.42.81h-1.31v0a1.83,1.83,0,0,1,.77-1.51,3.21,3.21,0,0,1,2.13-.69,3.15,3.15,0,0,1,2.07.65,2.31,2.31,0,0,1,.79,1.89v3.65a6.57,6.57,0,0,0,0,.78,4.74,4.74,0,0,0,.15.75Zm-2.29-1a2.42,2.42,0,0,0,1.35-.39,1.82,1.82,0,0,0,.79-.88V164H373a2,2,0,0,0-1.33.42,1.25,1.25,0,0,0-.51,1,1,1,0,0,0,.32.8A1.3,1.3,0,0,0,372.38,166.45Z"/><path d="M379.39,167.46H378V156.53h1.38Z"/><path d="M388.21,167.6a3.22,3.22,0,0,1-2.54-1,4,4,0,0,1-.92-2.75v-.3a3.92,3.92,0,0,1,.95-2.7,2.94,2.94,0,0,1,2.3-1.07,2.76,2.76,0,0,1,2.28.94,3.94,3.94,0,0,1,.76,2.52v.73h-4.85l0,0a3.16,3.16,0,0,0,.5,1.85,1.75,1.75,0,0,0,1.54.71,3.31,3.31,0,0,0,1.23-.2,2.52,2.52,0,0,0,.91-.55l.54.9a3.37,3.37,0,0,1-1.07.66A4.3,4.3,0,0,1,388.21,167.6Zm-.21-6.78a1.53,1.53,0,0,0-1.2.56,2.68,2.68,0,0,0-.57,1.43v0h3.42v-.11a2.23,2.23,0,0,0-.41-1.37A1.47,1.47,0,0,0,388,160.82Z"/><path d="M393.82,159.88l.09,1.13a2.75,2.75,0,0,1,.95-.94,2.56,2.56,0,0,1,1.3-.33,2.47,2.47,0,0,1,1.9.72,3.13,3.13,0,0,1,.67,2.21v4.79h-1.38V162.7a2.06,2.06,0,0,0-.39-1.42,1.6,1.6,0,0,0-1.21-.42,2.11,2.11,0,0,0-1.08.25,2,2,0,0,0-.71.72v5.63h-1.38v-7.58Z"/><path d="M403.26,165.22l.12.53h0l.14-.53,1.74-5.34h1.41l-2.79,7.58h-1l-2.83-7.58h1.42Z"/><path d="M409.44,157.94h-1.38v-1.41h1.38Zm0,9.52h-1.38v-7.58h1.38Z"/><path d="M415.14,161.1l-.7,0a1.58,1.58,0,0,0-.92.25,1.69,1.69,0,0,0-.58.73v5.42h-1.38v-7.58h1.23l.13,1.11a2.59,2.59,0,0,1,.8-.92,1.85,1.85,0,0,1,1.09-.33l.29,0,.23.06Z"/><path d="M416.12,163.6a4.15,4.15,0,0,1,.91-2.77,3,3,0,0,1,2.47-1.09,3.09,3.09,0,0,1,2.49,1.08,4.17,4.17,0,0,1,.91,2.78v.15a4.11,4.11,0,0,1-.91,2.77,3.39,3.39,0,0,1-5,0,4.13,4.13,0,0,1-.91-2.77Zm1.38.15a3.67,3.67,0,0,0,.5,2,1.84,1.84,0,0,0,3,0,3.59,3.59,0,0,0,.51-2v-.15a3.55,3.55,0,0,0-.51-2,1.82,1.82,0,0,0-3,0,3.63,3.63,0,0,0-.5,2Z"/><path d="M425.82,159.88l.1,1.13a2.67,2.67,0,0,1,.95-.94,2.54,2.54,0,0,1,1.3-.33,2.47,2.47,0,0,1,1.9.72,3.17,3.17,0,0,1,.67,2.21v4.79h-1.38V162.7a2,2,0,0,0-.4-1.42,1.56,1.56,0,0,0-1.2-.42,2.17,2.17,0,0,0-1.09.25,1.94,1.94,0,0,0-.7.72v5.63h-1.38v-7.58Z"/><path d="M434,159.88l.1,1A2.5,2.5,0,0,1,435,160a2.83,2.83,0,0,1,1.33-.3,2.38,2.38,0,0,1,1.3.35,2.15,2.15,0,0,1,.82,1,2.83,2.83,0,0,1,.94-1,2.49,2.49,0,0,1,1.37-.37,2.27,2.27,0,0,1,1.83.79,3.64,3.64,0,0,1,.67,2.4v4.53h-1.38v-4.55a2.53,2.53,0,0,0-.38-1.59,1.41,1.41,0,0,0-1.15-.46,1.44,1.44,0,0,0-1.14.49,2.09,2.09,0,0,0-.52,1.24v4.87h-1.39v-4.55a2.52,2.52,0,0,0-.39-1.56,1.37,1.37,0,0,0-1.14-.49,1.93,1.93,0,0,0-1,.26,1.66,1.66,0,0,0-.62.73v5.61h-1.38v-7.58Z"/><path d="M448.41,167.6a3.21,3.21,0,0,1-2.54-1,4,4,0,0,1-.92-2.75v-.3a3.92,3.92,0,0,1,.95-2.7,2.94,2.94,0,0,1,2.3-1.07,2.72,2.72,0,0,1,2.27.94,3.88,3.88,0,0,1,.76,2.52v.73h-4.84l0,0a3.16,3.16,0,0,0,.5,1.85,1.75,1.75,0,0,0,1.54.71,3.31,3.31,0,0,0,1.23-.2,2.61,2.61,0,0,0,.91-.55l.54.9a3.37,3.37,0,0,1-1.07.66A4.3,4.3,0,0,1,448.41,167.6Zm-.21-6.78a1.51,1.51,0,0,0-1.2.56,2.68,2.68,0,0,0-.58,1.43l0,0h3.41v-.11a2.23,2.23,0,0,0-.4-1.37A1.47,1.47,0,0,0,448.2,160.82Z"/><path d="M454,159.88l.1,1.13a2.67,2.67,0,0,1,.95-.94,2.54,2.54,0,0,1,1.3-.33,2.47,2.47,0,0,1,1.9.72,3.13,3.13,0,0,1,.67,2.21v4.79h-1.38V162.7a2,2,0,0,0-.4-1.42,1.56,1.56,0,0,0-1.2-.42,2.17,2.17,0,0,0-1.09.25,1.94,1.94,0,0,0-.7.72v5.63h-1.38v-7.58Z"/><path d="M462.85,158.05v1.83h1.44v1h-1.44v4.6a1,1,0,0,0,.22.75.78.78,0,0,0,.59.22l.26,0,.25-.07.19.95a1.32,1.32,0,0,1-.46.2,2,2,0,0,1-.59.08,1.79,1.79,0,0,1-1.34-.51,2.18,2.18,0,0,1-.5-1.59v-4.6h-1.2v-1h1.2v-1.83Z"/><path d="M471.25,158.05v1.83h1.43v1h-1.43v4.6a1,1,0,0,0,.22.75.76.76,0,0,0,.58.22l.27,0,.24-.07.19.95a1.18,1.18,0,0,1-.45.2,2.06,2.06,0,0,1-.6.08,1.8,1.8,0,0,1-1.34-.51,2.18,2.18,0,0,1-.49-1.59v-4.6h-1.21v-1h1.21v-1.83Z"/><path d="M473.84,163.6a4.15,4.15,0,0,1,.91-2.77,3,3,0,0,1,2.47-1.09,3.09,3.09,0,0,1,2.49,1.08,4.17,4.17,0,0,1,.91,2.78v.15a4.11,4.11,0,0,1-.91,2.77,3.39,3.39,0,0,1-5,0,4.13,4.13,0,0,1-.91-2.77Zm1.38.15a3.67,3.67,0,0,0,.5,2,1.84,1.84,0,0,0,3,0,3.59,3.59,0,0,0,.51-2v-.15a3.55,3.55,0,0,0-.51-2,1.82,1.82,0,0,0-3,0,3.63,3.63,0,0,0-.5,2Z"/><path d="M489.46,161.1l-.71,0a1.6,1.6,0,0,0-.92.25,1.77,1.77,0,0,0-.58.73v5.42h-1.37v-7.58h1.23l.13,1.11a2.57,2.57,0,0,1,.79-.92,1.87,1.87,0,0,1,1.09-.33l.3,0,.23.06Z"/><path d="M493.9,167.6a3.23,3.23,0,0,1-2.55-1,4,4,0,0,1-.91-2.75v-.3a3.91,3.91,0,0,1,.94-2.7,3,3,0,0,1,2.3-1.07,2.76,2.76,0,0,1,2.28.94,3.88,3.88,0,0,1,.76,2.52v.73h-4.85l0,0a3.09,3.09,0,0,0,.51,1.85,1.74,1.74,0,0,0,1.54.71,3.31,3.31,0,0,0,1.23-.2,2.57,2.57,0,0,0,.9-.55l.54.9a3.26,3.26,0,0,1-1.07.66A4.25,4.25,0,0,1,493.9,167.6Zm-.22-6.78a1.49,1.49,0,0,0-1.19.56,2.61,2.61,0,0,0-.58,1.43v0h3.42v-.11a2.23,2.23,0,0,0-.4-1.37A1.48,1.48,0,0,0,493.68,160.82Z"/><path d="M498,163.81a5.07,5.07,0,0,1,.78-2.95,2.52,2.52,0,0,1,2.19-1.12,2.73,2.73,0,0,1,1.18.24,2.45,2.45,0,0,1,.88.72v-4.17h1.38v10.93H503.3l-.21-1a2.38,2.38,0,0,1-.91.82,2.73,2.73,0,0,1-1.27.28,2.58,2.58,0,0,1-2.17-1A4.14,4.14,0,0,1,498,164Zm1.38.14a3.24,3.24,0,0,0,.47,1.84,1.64,1.64,0,0,0,1.46.69,1.76,1.76,0,0,0,1-.28,2,2,0,0,0,.69-.78v-3.54a2.14,2.14,0,0,0-.69-.74,1.77,1.77,0,0,0-1-.28,1.56,1.56,0,0,0-1.46.82,4.15,4.15,0,0,0-.48,2.13Z"/><path d="M511.23,166.33a2.52,2.52,0,0,1-.92.94,2.48,2.48,0,0,1-1.29.33,2.45,2.45,0,0,1-1.94-.79,3.69,3.69,0,0,1-.69-2.46v-4.47h1.38v4.48a2.82,2.82,0,0,0,.36,1.67,1.34,1.34,0,0,0,1.11.45,2.27,2.27,0,0,0,1.22-.3,1.8,1.8,0,0,0,.72-.84v-5.46h1.38v7.58h-1.24Z"/><path d="M517.58,166.52a1.6,1.6,0,0,0,1.11-.42,1.33,1.33,0,0,0,.48-1h1.25l0,0a2.15,2.15,0,0,1-.84,1.74,3.21,3.21,0,0,1-4.48-.32,4.21,4.21,0,0,1-.87-2.71v-.29a4.16,4.16,0,0,1,.87-2.69,3,3,0,0,1,2.46-1.09,2.87,2.87,0,0,1,2.08.78,2.5,2.5,0,0,1,.78,1.93l0,0h-1.25a1.69,1.69,0,0,0-.45-1.18,1.5,1.5,0,0,0-1.14-.49,1.6,1.6,0,0,0-1.48.79,3.7,3.7,0,0,0-.47,1.91v.29a3.8,3.8,0,0,0,.46,1.93A1.6,1.6,0,0,0,517.58,166.52Z"/><path d="M525.21,167.6a3.22,3.22,0,0,1-2.54-1,4,4,0,0,1-.91-2.75v-.3a3.91,3.91,0,0,1,.94-2.7,2.94,2.94,0,0,1,2.3-1.07,2.76,2.76,0,0,1,2.28.94,3.94,3.94,0,0,1,.76,2.52v.73h-4.85l0,0a3.16,3.16,0,0,0,.5,1.85,1.75,1.75,0,0,0,1.54.71,3.31,3.31,0,0,0,1.23-.2,2.52,2.52,0,0,0,.91-.55l.54.9a3.37,3.37,0,0,1-1.07.66A4.3,4.3,0,0,1,525.21,167.6Zm-.21-6.78a1.53,1.53,0,0,0-1.2.56,2.68,2.68,0,0,0-.57,1.43v0h3.42v-.11a2.23,2.23,0,0,0-.41-1.37A1.47,1.47,0,0,0,525,160.82Z"/><path d="M295.51,182.63a.94.94,0,0,0-.35-.75,3.31,3.31,0,0,0-1.31-.5,5.46,5.46,0,0,1-2.06-.81,1.61,1.61,0,0,1-.72-1.38,2,2,0,0,1,.79-1.58,3.09,3.09,0,0,1,2-.66,3,3,0,0,1,2.09.7,2,2,0,0,1,.76,1.63v0h-1.32a1.18,1.18,0,0,0-.43-.89,1.56,1.56,0,0,0-1.09-.4,1.58,1.58,0,0,0-1.09.33,1,1,0,0,0-.36.79.82.82,0,0,0,.32.69,3.49,3.49,0,0,0,1.28.45,5.3,5.3,0,0,1,2.11.83,1.67,1.67,0,0,1,.73,1.41,2,2,0,0,1-.82,1.64,3.9,3.9,0,0,1-4.41-.09,2.13,2.13,0,0,1-.8-1.72l0,0h1.32a1.25,1.25,0,0,0,.54,1.07,2.09,2.09,0,0,0,1.2.34,1.87,1.87,0,0,0,1.15-.31A1,1,0,0,0,295.51,182.63Z"/><path d="M300.52,175.26v1.83H302v1h-1.44v4.6a1,1,0,0,0,.22.75.82.82,0,0,0,.59.22l.26,0,.25-.07.19.94a1.16,1.16,0,0,1-.46.21,2.46,2.46,0,0,1-.59.08,1.79,1.79,0,0,1-1.34-.51,2.2,2.2,0,0,1-.5-1.59v-4.6h-1.2v-1h1.2v-1.83Z"/><path d="M304.93,175.15h-1.38v-1.41h1.38Zm0,9.51h-1.38v-7.57h1.38Z"/><path d="M306.8,181a5,5,0,0,1,.78-3,2.5,2.5,0,0,1,2.18-1.12,2.59,2.59,0,0,1,1.27.29,2.54,2.54,0,0,1,.92.84l.17-1h1.1v7.62a2.89,2.89,0,0,1-.85,2.23,3.5,3.5,0,0,1-2.45.78,5.22,5.22,0,0,1-1.18-.15,4.27,4.27,0,0,1-1.11-.41l.21-1.07a3.58,3.58,0,0,0,1,.34,4.8,4.8,0,0,0,1.11.13,2,2,0,0,0,1.47-.46,1.91,1.91,0,0,0,.46-1.39v-.86a2.67,2.67,0,0,1-.89.72,2.86,2.86,0,0,1-1.2.24,2.6,2.6,0,0,1-2.17-1,4.2,4.2,0,0,1-.78-2.65Zm1.38.14a3.26,3.26,0,0,0,.47,1.84,1.63,1.63,0,0,0,1.45.69,1.82,1.82,0,0,0,1-.28,2.29,2.29,0,0,0,.7-.8v-3.49a2.17,2.17,0,0,0-.7-.77,1.8,1.8,0,0,0-1-.28,1.58,1.58,0,0,0-1.46.82,4.25,4.25,0,0,0-.47,2.13Z"/><path d="M316.43,177.09l.1,1a2.5,2.5,0,0,1,.94-.83,2.81,2.81,0,0,1,1.33-.3,2.32,2.32,0,0,1,1.3.35,2.08,2.08,0,0,1,.81,1,2.78,2.78,0,0,1,.95-1,2.49,2.49,0,0,1,1.37-.37,2.27,2.27,0,0,1,1.83.79,3.68,3.68,0,0,1,.67,2.39v4.53h-1.38v-4.54a2.5,2.5,0,0,0-.39-1.59,1.39,1.39,0,0,0-1.14-.46,1.45,1.45,0,0,0-1.15.49,2.11,2.11,0,0,0-.51,1.24v4.86h-1.39v-4.54a2.45,2.45,0,0,0-.4-1.56,1.35,1.35,0,0,0-1.13-.49,1.85,1.85,0,0,0-1,.26,1.59,1.59,0,0,0-.62.73v5.6H315.2v-7.57Z"/><path d="M332.39,184.66c-.05-.22-.08-.43-.11-.6a4.75,4.75,0,0,1,0-.53,3.14,3.14,0,0,1-1,.91,2.82,2.82,0,0,1-3.14-.23,2.25,2.25,0,0,1-.62-1.67,2,2,0,0,1,.88-1.7,4.11,4.11,0,0,1,2.39-.62h1.49v-.74a1.39,1.39,0,0,0-.4-1.06,1.6,1.6,0,0,0-1.15-.39,1.65,1.65,0,0,0-1.09.34,1,1,0,0,0-.41.8l-1.31,0v0a1.83,1.83,0,0,1,.77-1.52,3.26,3.26,0,0,1,2.13-.68,3.15,3.15,0,0,1,2.07.65,2.34,2.34,0,0,1,.78,1.89v3.65a6.53,6.53,0,0,0,.05.78,3.74,3.74,0,0,0,.15.74Zm-2.29-1a2.42,2.42,0,0,0,1.35-.39,1.84,1.84,0,0,0,.78-.88v-1.23h-1.54a2,2,0,0,0-1.34.42,1.27,1.27,0,0,0-.5,1,1,1,0,0,0,.32.8A1.3,1.3,0,0,0,330.1,183.66Z"/><path d="M343.84,184.66a6,6,0,0,1-.11-.6,4.75,4.75,0,0,1-.05-.53,3.14,3.14,0,0,1-1,.91,2.56,2.56,0,0,1-1.34.37,2.48,2.48,0,0,1-1.8-.6,2.25,2.25,0,0,1-.62-1.67,2,2,0,0,1,.88-1.7,4.09,4.09,0,0,1,2.38-.62h1.5v-.74a1.39,1.39,0,0,0-.4-1.06,1.6,1.6,0,0,0-1.15-.39,1.65,1.65,0,0,0-1.09.34,1,1,0,0,0-.41.8l-1.31,0v0a1.8,1.8,0,0,1,.77-1.52,3.26,3.26,0,0,1,2.13-.68,3.17,3.17,0,0,1,2.07.65,2.34,2.34,0,0,1,.78,1.89v3.65c0,.27,0,.53,0,.78a3.76,3.76,0,0,0,.16.74Zm-2.29-1a2.42,2.42,0,0,0,1.35-.39,1.84,1.84,0,0,0,.78-.88v-1.23h-1.55a2,2,0,0,0-1.33.42,1.27,1.27,0,0,0-.5,1,1,1,0,0,0,.32.8A1.3,1.3,0,0,0,341.55,183.66Z"/><path d="M348.3,177.09l.09,1.13a2.75,2.75,0,0,1,.95-.94,2.56,2.56,0,0,1,1.3-.33,2.47,2.47,0,0,1,1.9.72,3.11,3.11,0,0,1,.67,2.21v4.78h-1.38v-4.75a2.06,2.06,0,0,0-.39-1.42,1.6,1.6,0,0,0-1.21-.42,2.11,2.11,0,0,0-1.08.25,1.89,1.89,0,0,0-.71.72v5.62h-1.38v-7.57Z"/><path d="M354.9,181a5,5,0,0,1,.78-3,2.51,2.51,0,0,1,2.19-1.12,2.76,2.76,0,0,1,1.18.24,2.52,2.52,0,0,1,.88.72v-4.17h1.38v10.92h-1.06l-.21-1a2.43,2.43,0,0,1-.92.83,2.66,2.66,0,0,1-1.26.28,2.62,2.62,0,0,1-2.18-1,4.2,4.2,0,0,1-.78-2.65Zm1.38.14a3.24,3.24,0,0,0,.47,1.84,1.63,1.63,0,0,0,1.45.69,1.79,1.79,0,0,0,1-.28,2.19,2.19,0,0,0,.69-.78v-3.54a2.26,2.26,0,0,0-.69-.75,1.85,1.85,0,0,0-1-.27,1.58,1.58,0,0,0-1.47.82,4.25,4.25,0,0,0-.47,2.13Z"/><path d="M366.62,181a5,5,0,0,1,.78-3,2.5,2.5,0,0,1,2.18-1.12,2.73,2.73,0,0,1,1.18.24,2.35,2.35,0,0,1,.88.72v-4.17H373v10.92h-1l-.21-1a2.51,2.51,0,0,1-.92.83,2.73,2.73,0,0,1-1.27.28,2.6,2.6,0,0,1-2.17-1,4.2,4.2,0,0,1-.78-2.65Zm1.37.14a3.24,3.24,0,0,0,.47,1.84,1.65,1.65,0,0,0,1.46.69,1.82,1.82,0,0,0,1-.28,2.07,2.07,0,0,0,.68-.78v-3.54a2.07,2.07,0,0,0-.69-.75,1.85,1.85,0,0,0-1-.27,1.56,1.56,0,0,0-1.46.82A4.15,4.15,0,0,0,368,181Z"/><path d="M376.57,175.15h-1.38v-1.41h1.38Zm0,9.51h-1.38v-7.57h1.38Z"/><path d="M383.1,182.63a.94.94,0,0,0-.35-.75,3.31,3.31,0,0,0-1.31-.5,5.46,5.46,0,0,1-2.06-.81,1.62,1.62,0,0,1-.71-1.38,2,2,0,0,1,.78-1.58,3.09,3.09,0,0,1,2-.66,3,3,0,0,1,2.09.7,2,2,0,0,1,.76,1.63v0H383a1.18,1.18,0,0,0-.43-.89,1.8,1.8,0,0,0-2.17-.07,1,1,0,0,0-.36.79.81.81,0,0,0,.31.69,3.49,3.49,0,0,0,1.28.45,5.35,5.35,0,0,1,2.12.83,1.68,1.68,0,0,1,.72,1.41,2,2,0,0,1-.82,1.64,3.9,3.9,0,0,1-4.41-.09,2.09,2.09,0,0,1-.79-1.72v0h1.32a1.25,1.25,0,0,0,.54,1.07,2.09,2.09,0,0,0,1.2.34,1.87,1.87,0,0,0,1.15-.31A1,1,0,0,0,383.1,182.63Z"/><path d="M389.2,183.73a1.64,1.64,0,0,0,1.12-.42,1.36,1.36,0,0,0,.47-1H392l0,0a2.15,2.15,0,0,1-.84,1.74,3.21,3.21,0,0,1-4.48-.32,4.21,4.21,0,0,1-.87-2.71v-.29a4.16,4.16,0,0,1,.87-2.69A3,3,0,0,1,389.2,177a2.87,2.87,0,0,1,2.08.78,2.49,2.49,0,0,1,.78,1.93v0h-1.26a1.67,1.67,0,0,0-.45-1.18,1.5,1.5,0,0,0-1.14-.49,1.61,1.61,0,0,0-1.48.79,3.7,3.7,0,0,0-.46,1.91V181a3.73,3.73,0,0,0,.46,1.93A1.58,1.58,0,0,0,389.2,183.73Z"/><path d="M397.29,178.31l-.71-.05a1.59,1.59,0,0,0-.92.26,1.69,1.69,0,0,0-.58.73v5.41H393.7v-7.57h1.23l.14,1.1a2.62,2.62,0,0,1,.79-.91A1.87,1.87,0,0,1,397,177l.29,0,.23.05Z"/><path d="M400.21,175.15h-1.38v-1.41h1.38Zm0,9.51h-1.38v-7.57h1.38Z"/><path d="M403.57,177.09l.09,1a2.45,2.45,0,0,1,.95-.83,2.79,2.79,0,0,1,1.32-.3,2.28,2.28,0,0,1,1.3.35,2.09,2.09,0,0,1,.82,1,2.78,2.78,0,0,1,.95-1,2.46,2.46,0,0,1,1.37-.37,2.25,2.25,0,0,1,1.82.79,3.62,3.62,0,0,1,.67,2.39v4.53h-1.37v-4.54a2.5,2.5,0,0,0-.39-1.59,1.41,1.41,0,0,0-1.15-.46,1.44,1.44,0,0,0-1.14.49,2.12,2.12,0,0,0-.52,1.24v4.86h-1.38v-4.54a2.51,2.51,0,0,0-.4-1.56,1.36,1.36,0,0,0-1.14-.49,1.81,1.81,0,0,0-1,.26,1.68,1.68,0,0,0-.63.73v5.6h-1.38v-7.57Z"/><path d="M416.36,175.15H415v-1.41h1.38Zm0,9.51H415v-7.57h1.38Z"/><path d="M419.71,177.09l.1,1.13a2.67,2.67,0,0,1,.95-.94,2.54,2.54,0,0,1,1.3-.33,2.47,2.47,0,0,1,1.9.72,3.11,3.11,0,0,1,.67,2.21v4.78h-1.38v-4.75a2,2,0,0,0-.4-1.42,1.56,1.56,0,0,0-1.2-.42,2.17,2.17,0,0,0-1.09.25,1.86,1.86,0,0,0-.7.72v5.62h-1.38v-7.57Z"/><path d="M431.29,184.66c-.05-.22-.08-.43-.11-.6a4.75,4.75,0,0,1-.05-.53,3.14,3.14,0,0,1-1,.91,2.82,2.82,0,0,1-3.14-.23,2.25,2.25,0,0,1-.62-1.67,2,2,0,0,1,.88-1.7,4.11,4.11,0,0,1,2.39-.62h1.49v-.74a1.39,1.39,0,0,0-.4-1.06,1.59,1.59,0,0,0-1.15-.39,1.65,1.65,0,0,0-1.09.34,1,1,0,0,0-.41.8l-1.31,0v0a1.83,1.83,0,0,1,.77-1.52,3.26,3.26,0,0,1,2.13-.68,3.15,3.15,0,0,1,2.07.65,2.34,2.34,0,0,1,.78,1.89v3.65a6.53,6.53,0,0,0,.05.78,3.74,3.74,0,0,0,.15.74Zm-2.29-1a2.42,2.42,0,0,0,1.35-.39,1.84,1.84,0,0,0,.78-.88v-1.23h-1.54a2,2,0,0,0-1.34.42,1.27,1.27,0,0,0-.5,1,1,1,0,0,0,.32.8A1.3,1.3,0,0,0,429,183.66Z"/><path d="M436.43,175.26v1.83h1.44v1h-1.44v4.6a1,1,0,0,0,.22.75.84.84,0,0,0,.59.22l.27,0,.24-.07.19.94a1,1,0,0,1-.46.21,2.39,2.39,0,0,1-.59.08,1.79,1.79,0,0,1-1.34-.51,2.2,2.2,0,0,1-.5-1.59v-4.6h-1.2v-1h1.2v-1.83Z"/><path d="M440.84,175.15h-1.38v-1.41h1.38Zm0,9.51h-1.38v-7.57h1.38Z"/><path d="M442.64,180.81a4.15,4.15,0,0,1,.91-2.77A3,3,0,0,1,446,177a3.09,3.09,0,0,1,2.49,1.08,4.17,4.17,0,0,1,.91,2.78V181a4.13,4.13,0,0,1-.91,2.77,3.39,3.39,0,0,1-5,0,4.13,4.13,0,0,1-.91-2.77ZM444,181a3.59,3.59,0,0,0,.51,2,1.83,1.83,0,0,0,3,0,3.59,3.59,0,0,0,.51-2v-.15a3.61,3.61,0,0,0-.51-2A1.7,1.7,0,0,0,446,178a1.66,1.66,0,0,0-1.49.79,3.61,3.61,0,0,0-.51,2Z"/><path d="M452.34,177.09l.1,1.13a2.67,2.67,0,0,1,.95-.94,2.54,2.54,0,0,1,1.3-.33,2.47,2.47,0,0,1,1.9.72,3.11,3.11,0,0,1,.67,2.21v4.78h-1.38v-4.75a2,2,0,0,0-.4-1.42,1.56,1.56,0,0,0-1.2-.42,2.17,2.17,0,0,0-1.09.25,1.86,1.86,0,0,0-.7.72v5.62h-1.38v-7.57Z"/><path d="M467.48,184.66l-.11-.6a4.73,4.73,0,0,1,0-.53,3.17,3.17,0,0,1-1,.91,2.81,2.81,0,0,1-3.13-.23,2.21,2.21,0,0,1-.62-1.67,2,2,0,0,1,.88-1.7,4.07,4.07,0,0,1,2.38-.62h1.5v-.74a1.4,1.4,0,0,0-.41-1.06,1.58,1.58,0,0,0-1.14-.39,1.64,1.64,0,0,0-1.09.34,1,1,0,0,0-.41.8l-1.31,0,0,0a1.84,1.84,0,0,1,.78-1.52,3.21,3.21,0,0,1,2.12-.68,3.15,3.15,0,0,1,2.07.65,2.31,2.31,0,0,1,.79,1.89v3.65a6.57,6.57,0,0,0,0,.78,4.62,4.62,0,0,0,.15.74Zm-2.29-1a2.42,2.42,0,0,0,1.35-.39,1.81,1.81,0,0,0,.79-.88v-1.23h-1.55a2,2,0,0,0-1.33.42,1.24,1.24,0,0,0-.5,1,1,1,0,0,0,.31.8A1.3,1.3,0,0,0,465.19,183.66Z"/><path d="M470.47,181a5,5,0,0,1,.78-3,2.49,2.49,0,0,1,2.18-1.12,2.62,2.62,0,0,1,1.27.29,2.43,2.43,0,0,1,.91.84l.17-1h1.1v7.62a2.86,2.86,0,0,1-.85,2.23,3.47,3.47,0,0,1-2.44.78,5.09,5.09,0,0,1-1.18-.15,4.34,4.34,0,0,1-1.12-.41l.21-1.07a3.79,3.79,0,0,0,1,.34,4.67,4.67,0,0,0,1.11.13,2,2,0,0,0,1.46-.46,1.87,1.87,0,0,0,.46-1.39v-.86a2.58,2.58,0,0,1-.89.72,2.79,2.79,0,0,1-1.2.24,2.58,2.58,0,0,1-2.16-1,4.2,4.2,0,0,1-.78-2.65Zm1.38.14a3.26,3.26,0,0,0,.46,1.84,1.64,1.64,0,0,0,1.45.69,1.83,1.83,0,0,0,1.05-.28,2.17,2.17,0,0,0,.69-.8v-3.49a2.24,2.24,0,0,0-.69-.77,1.83,1.83,0,0,0-1-.28,1.56,1.56,0,0,0-1.46.82,4.15,4.15,0,0,0-.47,2.13Z"/><path d="M483.52,184.66c0-.22-.08-.43-.11-.6a4.75,4.75,0,0,1-.05-.53,3.14,3.14,0,0,1-1,.91,2.82,2.82,0,0,1-3.14-.23,2.25,2.25,0,0,1-.62-1.67,2,2,0,0,1,.88-1.7,4.11,4.11,0,0,1,2.39-.62h1.49v-.74a1.39,1.39,0,0,0-.4-1.06,1.59,1.59,0,0,0-1.15-.39,1.65,1.65,0,0,0-1.09.34,1,1,0,0,0-.41.8l-1.31,0v0a1.83,1.83,0,0,1,.77-1.52,3.26,3.26,0,0,1,2.13-.68,3.15,3.15,0,0,1,2.07.65,2.34,2.34,0,0,1,.78,1.89v3.65a6.53,6.53,0,0,0,.05.78,3.74,3.74,0,0,0,.15.74Zm-2.29-1a2.42,2.42,0,0,0,1.35-.39,1.84,1.84,0,0,0,.78-.88v-1.23h-1.54a2,2,0,0,0-1.34.42,1.27,1.27,0,0,0-.5,1,1,1,0,0,0,.32.8A1.3,1.3,0,0,0,481.23,183.66Z"/><path d="M488.24,175.15h-1.38v-1.41h1.38Zm0,9.51h-1.38v-7.57h1.38Z"/><path d="M491.59,177.09l.1,1.13a2.67,2.67,0,0,1,.95-.94,2.54,2.54,0,0,1,1.3-.33,2.49,2.49,0,0,1,1.9.72,3.16,3.16,0,0,1,.67,2.21v4.78h-1.38v-4.75a2,2,0,0,0-.4-1.42,1.57,1.57,0,0,0-1.21-.42,2.16,2.16,0,0,0-1.08.25,1.86,1.86,0,0,0-.7.72v5.62h-1.38v-7.57Z"/><path d="M502.91,182.63a.93.93,0,0,0-.34-.75,3.31,3.31,0,0,0-1.31-.5,5.39,5.39,0,0,1-2.06-.81,1.61,1.61,0,0,1-.72-1.38,2,2,0,0,1,.79-1.58,3.09,3.09,0,0,1,2-.66,3,3,0,0,1,2.09.7,2,2,0,0,1,.76,1.63v0h-1.32a1.18,1.18,0,0,0-.43-.89,1.81,1.81,0,0,0-2.18-.07,1,1,0,0,0-.36.79.84.84,0,0,0,.31.69,3.64,3.64,0,0,0,1.29.45,5.3,5.3,0,0,1,2.11.83,1.68,1.68,0,0,1,.72,1.41,2,2,0,0,1-.81,1.64,3.91,3.91,0,0,1-4.42-.09,2.12,2.12,0,0,1-.79-1.72l0,0h1.31a1.28,1.28,0,0,0,.55,1.07,2.09,2.09,0,0,0,1.2.34,1.87,1.87,0,0,0,1.15-.31A.94.94,0,0,0,502.91,182.63Z"/><path d="M507.93,175.26v1.83h1.43v1h-1.43v4.6a1,1,0,0,0,.22.75.82.82,0,0,0,.58.22l.27,0,.25-.07.18.94a1,1,0,0,1-.45.21,2.47,2.47,0,0,1-.6.08,1.76,1.76,0,0,1-1.33-.51,2.15,2.15,0,0,1-.5-1.59v-4.6h-1.21v-1h1.21v-1.83Z"/><path d="M312.82,197.78v4.09h-1.38V191.68h3.9a3.6,3.6,0,0,1,2.54.84,3.15,3.15,0,0,1,0,4.43,3.6,3.6,0,0,1-2.54.83Zm0-1.07h2.52a2,2,0,0,0,1.54-3.38,2,2,0,0,0-1.54-.57h-2.52Z"/><path d="M321.94,200.79h5v1.08h-6.35V191.68h1.38Z"/><path d="M336.15,201.87h-1.38v-4.5h-4.95v4.5h-1.38V191.68h1.38v4.61h4.95v-4.61h1.38Z"/><path d="M340.06,201.87h-1.39V191.68h1.39Z"/><path d="M345.68,199.2l.23.85h0l.24-.85,2.63-7.52h1.49l-3.79,10.19h-1.18l-3.79-10.19h1.5Z"/><path d="M359.69,201.87c-.05-.23-.09-.43-.11-.6a4.75,4.75,0,0,1-.05-.53,3.14,3.14,0,0,1-1,.91,2.56,2.56,0,0,1-1.34.37,2.44,2.44,0,0,1-1.8-.61,2.23,2.23,0,0,1-.62-1.67,1.93,1.93,0,0,1,.88-1.69,4.07,4.07,0,0,1,2.38-.62h1.5v-.75a1.39,1.39,0,0,0-.4-1.05,1.6,1.6,0,0,0-1.15-.39,1.65,1.65,0,0,0-1.09.34,1,1,0,0,0-.41.8l-1.31,0v0a1.79,1.79,0,0,1,.77-1.52,3.25,3.25,0,0,1,2.12-.68,3.14,3.14,0,0,1,2.08.65,2.34,2.34,0,0,1,.78,1.89v3.65c0,.27,0,.53,0,.78a3.76,3.76,0,0,0,.16.74Zm-2.29-1a2.42,2.42,0,0,0,1.35-.38,1.84,1.84,0,0,0,.78-.88v-1.23H358a2,2,0,0,0-1.33.42,1.25,1.25,0,0,0-.5,1,1,1,0,0,0,.32.8A1.3,1.3,0,0,0,357.4,200.86Z"/><path d="M364.15,194.3l.09,1.12a2.81,2.81,0,0,1,.95-.93,2.56,2.56,0,0,1,1.3-.33,2.5,2.5,0,0,1,1.9.71,3.15,3.15,0,0,1,.67,2.22v4.78h-1.38v-4.75a2.06,2.06,0,0,0-.39-1.42,1.6,1.6,0,0,0-1.21-.42,2.11,2.11,0,0,0-1.08.25,1.89,1.89,0,0,0-.71.72v5.62h-1.38V194.3Z"/><path d="M370.75,198.22a5,5,0,0,1,.78-2.94,2.51,2.51,0,0,1,2.19-1.12,2.76,2.76,0,0,1,1.18.24,2.52,2.52,0,0,1,.88.72V191h1.38v10.92H376.1l-.21-1a2.43,2.43,0,0,1-.92.83,2.67,2.67,0,0,1-1.27.28,2.61,2.61,0,0,1-2.17-1,4.22,4.22,0,0,1-.78-2.65Zm1.38.15a3.24,3.24,0,0,0,.47,1.84,1.63,1.63,0,0,0,1.45.69,1.79,1.79,0,0,0,1-.28,2.19,2.19,0,0,0,.69-.78V196.3a2.26,2.26,0,0,0-.69-.75,1.85,1.85,0,0,0-1-.27,1.58,1.58,0,0,0-1.47.82,4.24,4.24,0,0,0-.47,2.12Z"/><path d="M385.24,197.27h-.89v4.6H383V191.68h1.38v4.51h.75l3.79-4.51h1.55v0l-4.13,4.83,4.43,5.3,0,0h-1.67Z"/><path d="M394.85,202a3.21,3.21,0,0,1-2.54-1,4,4,0,0,1-.92-2.75v-.31a4,4,0,0,1,.94-2.7,3,3,0,0,1,2.3-1.06,2.73,2.73,0,0,1,2.28.94,3.88,3.88,0,0,1,.76,2.52v.72h-4.84l0,0a3.16,3.16,0,0,0,.5,1.85,1.78,1.78,0,0,0,1.54.71,3.31,3.31,0,0,0,1.23-.2,2.61,2.61,0,0,0,.91-.55l.54.9a3.37,3.37,0,0,1-1.07.66A4.3,4.3,0,0,1,394.85,202Zm-.22-6.78a1.51,1.51,0,0,0-1.19.56,2.65,2.65,0,0,0-.58,1.42l0,0h3.41v-.11a2.23,2.23,0,0,0-.4-1.37A1.47,1.47,0,0,0,394.63,195.24Z"/><path d="M401.45,199.07l.24,1h.05l1.86-5.72h1.53L402,203a4.15,4.15,0,0,1-.83,1.33,1.91,1.91,0,0,1-1.44.56,2.45,2.45,0,0,1-.43,0l-.4-.07.14-1.08h.25l.37,0a.86.86,0,0,0,.72-.39,4.51,4.51,0,0,0,.47-.87l.33-.79-2.82-7.42h1.54Z"/><path d="M411.48,197.78v4.09H410.1V191.68H414a3.58,3.58,0,0,1,2.53.84,3.15,3.15,0,0,1,0,4.43,3.57,3.57,0,0,1-2.53.83Zm0-1.07H414a1.85,1.85,0,0,0,2.05-2,2,2,0,0,0-.51-1.41,2,2,0,0,0-1.54-.57h-2.52Z"/><path d="M418.61,198a4.12,4.12,0,0,1,.91-2.76,3,3,0,0,1,2.47-1.09,3.09,3.09,0,0,1,2.49,1.08,4.17,4.17,0,0,1,.92,2.77v.16a4.13,4.13,0,0,1-.92,2.77A3.05,3.05,0,0,1,422,202a3.09,3.09,0,0,1-2.49-1.08,4.15,4.15,0,0,1-.91-2.77Zm1.38.16a3.61,3.61,0,0,0,.51,2,1.68,1.68,0,0,0,1.51.78,1.7,1.7,0,0,0,1.5-.78,3.61,3.61,0,0,0,.51-2V198a3.6,3.6,0,0,0-.52-2,1.69,1.69,0,0,0-1.51-.79,1.67,1.67,0,0,0-1.49.79,3.6,3.6,0,0,0-.51,2Z"/><path d="M433.54,198.37a4.16,4.16,0,0,1-.79,2.65,2.58,2.58,0,0,1-2.16,1,3.1,3.1,0,0,1-1.23-.23,2.47,2.47,0,0,1-.9-.71v3.71h-1.38V194.3h1.06l.22,1a2.47,2.47,0,0,1,.92-.84,2.79,2.79,0,0,1,1.29-.28,2.52,2.52,0,0,1,2.19,1.11,5.07,5.07,0,0,1,.78,2.95Zm-1.38-.15a4,4,0,0,0-.51-2.11,1.62,1.62,0,0,0-1.49-.83,1.85,1.85,0,0,0-1,.27,2,2,0,0,0-.68.74V200a2,2,0,0,0,.68.73,2,2,0,0,0,1,.26,1.71,1.71,0,0,0,1.49-.72,3.16,3.16,0,0,0,.5-1.85Z"/><path d="M440,200.75a2.49,2.49,0,0,1-.91.94,2.54,2.54,0,0,1-1.3.33,2.43,2.43,0,0,1-1.93-.79,3.7,3.7,0,0,1-.69-2.47V194.3h1.38v4.48a2.78,2.78,0,0,0,.35,1.66,1.32,1.32,0,0,0,1.12.46,2.24,2.24,0,0,0,1.21-.3,1.93,1.93,0,0,0,.73-.84V194.3h1.37v7.57h-1.24Z"/><path d="M444.88,201.87H443.5V191h1.38Z"/><path d="M451.65,201.87c0-.23-.08-.43-.11-.6a4.73,4.73,0,0,1,0-.53,3.17,3.17,0,0,1-1,.91,2.5,2.5,0,0,1-1.33.37,2.44,2.44,0,0,1-1.8-.61,2.2,2.2,0,0,1-.62-1.67,1.93,1.93,0,0,1,.88-1.69,4.07,4.07,0,0,1,2.38-.62h1.5v-.75a1.39,1.39,0,0,0-.41-1.05,1.58,1.58,0,0,0-1.14-.39,1.65,1.65,0,0,0-1.09.34,1,1,0,0,0-.41.8l-1.31,0,0,0a1.83,1.83,0,0,1,.78-1.52,3.23,3.23,0,0,1,2.12-.68,3.09,3.09,0,0,1,2.07.65,2.31,2.31,0,0,1,.79,1.89v3.65a6.57,6.57,0,0,0,0,.78,3.76,3.76,0,0,0,.16.74Zm-2.29-1a2.47,2.47,0,0,0,1.36-.38,1.84,1.84,0,0,0,.78-.88v-1.23H450a2,2,0,0,0-1.33.42,1.22,1.22,0,0,0-.5,1,1,1,0,0,0,.31.8A1.3,1.3,0,0,0,449.36,200.86Z"/><path d="M456.8,192.47v1.83h1.44v1H456.8v4.6a1,1,0,0,0,.22.75.82.82,0,0,0,.59.22.87.87,0,0,0,.26,0l.25-.06.19.94a1.16,1.16,0,0,1-.46.21,2.46,2.46,0,0,1-.59.08,1.79,1.79,0,0,1-1.34-.51,2.21,2.21,0,0,1-.5-1.59v-4.6h-1.2v-1h1.2v-1.83Z"/><path d="M461.21,192.36h-1.38V191h1.38Zm0,9.51h-1.38V194.3h1.38Z"/><path d="M463,198a4.12,4.12,0,0,1,.91-2.76,3,3,0,0,1,2.47-1.09,3.09,3.09,0,0,1,2.49,1.08,4.16,4.16,0,0,1,.91,2.77v.16a4.13,4.13,0,0,1-.91,2.77,3.39,3.39,0,0,1-5,0,4.15,4.15,0,0,1-.91-2.77Zm1.37.16a3.61,3.61,0,0,0,.51,2,1.84,1.84,0,0,0,3,0,3.61,3.61,0,0,0,.51-2V198a3.6,3.6,0,0,0-.51-2,1.71,1.71,0,0,0-1.51-.79,1.69,1.69,0,0,0-1.5.79,3.6,3.6,0,0,0-.51,2Z"/><path d="M472.71,194.3l.1,1.12a2.72,2.72,0,0,1,.95-.93,2.54,2.54,0,0,1,1.3-.33,2.48,2.48,0,0,1,1.89.71,3.15,3.15,0,0,1,.68,2.22v4.78h-1.38v-4.75a2.06,2.06,0,0,0-.4-1.42,1.59,1.59,0,0,0-1.21-.42,2.16,2.16,0,0,0-1.08.25,1.8,1.8,0,0,0-.7.72v5.62h-1.38V194.3Z"/><path d="M484,199.84a.92.92,0,0,0-.34-.75,3.3,3.3,0,0,0-1.32-.5,5.4,5.4,0,0,1-2.05-.81,1.61,1.61,0,0,1-.72-1.38,2,2,0,0,1,.79-1.59,3.1,3.1,0,0,1,2-.65,3.05,3.05,0,0,1,2.09.7,2,2,0,0,1,.76,1.63v0H484a1.18,1.18,0,0,0-.43-.89,1.53,1.53,0,0,0-1.09-.4,1.56,1.56,0,0,0-1.09.33,1,1,0,0,0-.36.79.84.84,0,0,0,.31.69,3.64,3.64,0,0,0,1.29.45,5.3,5.3,0,0,1,2.11.83,1.68,1.68,0,0,1,.72,1.41,2,2,0,0,1-.81,1.64,3.89,3.89,0,0,1-4.42-.1,2.1,2.1,0,0,1-.79-1.71v0h1.32a1.26,1.26,0,0,0,.55,1.07,2.08,2.08,0,0,0,1.19.34,1.9,1.9,0,0,0,1.16-.31A1,1,0,0,0,484,199.84Z"/><rect class="cls-5" x="45.66" y="44.15" width="161.7" height="161.7" transform="translate(125.44 -52.84) rotate(45)"/><g class="cls-6"><path class="cls-7" d="M126.51,227.71,23.8,125,126.51,22.29,229.21,125ZM27,125l99.54,99.53L226,125,126.51,25.47Zm99.54,89.66L92.23,180.38l26.21-26.21L93,128.75l-18,18L86.91,158.7l4.93-4.94-7-7L93,138.63l15.54,15.54L87.29,175.45l-30-30L77.8,125,57.32,104.52l30-30,21.28,21.28L93,111.37l-8.17-8.16,7-7L86.91,91.3,75,103.21l18,18,25.41-25.42L92.23,69.62l34.28-34.28,34.27,34.28L134.57,95.83,160,121.25l18-18L166.1,91.3l-4.93,4.94,7,7L160,111.37,144.44,95.83l21.28-21.28,30,30L175.21,125l20.48,20.48-30,30-21.28-21.27L160,138.63l8.17,8.16-7,7,4.93,4.94L178,146.79l-18-18-25.41,25.42,26.21,26.21ZM95.4,180.38l31.11,31.11,31.1-31.11L131.4,154.17,160,125.58l21.21,21.21L166.1,161.87,158,153.76l7-7-5-5-12.36,12.37,18.1,18.1,26.79-26.79L172,125l20.47-20.48L165.72,77.73l-18.1,18.1L160,108.2l5-5-7-7,8.11-8.12,15.09,15.09L160,124.42,131.4,95.83l26.21-26.21-31.1-31.11L95.4,69.62l26.21,26.21L93,124.42,71.82,103.21,86.91,88.13,95,96.23l-7,7,5,5,12.36-12.37-18.1-18.1L60.5,104.52,81,125,60.5,145.48l26.79,26.79,18.1-18.1L93,141.8l-5,5,7,7-8.11,8.11L71.82,146.79,93,125.58l28.58,28.59Zm105.22-39.84L185.08,125l15.54-15.54L216.17,125ZM188.26,125l12.36,12.37L213,125l-12.37-12.37ZM52.39,140.54,36.85,125l15.54-15.54L67.93,125ZM40,125l12.37,12.37L64.75,125,52.39,112.63Z"/><path class="cls-7" d="M126.51,204.07l-24.05-24L126.51,156l24,24.05Zm-20.88-24,20.88,20.88L147.38,180l-20.87-20.87Z"/><path class="cls-7" d="M126.51,93.36l-24.05-24,24.05-24.05,24,24.05Zm-20.88-24,20.88,20.88,20.87-20.88L126.51,48.44Z"/></g><path class="cls-5" d="M383.82,47.36a9.69,9.69,0,0,1,3.49,7.83A11,11,0,0,1,385.73,61a11.13,11.13,0,0,1-4.83,4.16,18.4,18.4,0,0,1-8,1.56,27,27,0,0,1-7.21-1,18.67,18.67,0,0,1-6-2.74l3.17-6.15a15.29,15.29,0,0,0,4.56,2.31,17.51,17.51,0,0,0,5.3.81,8.22,8.22,0,0,0,4.75-1.19,3.78,3.78,0,0,0,1.74-3.32,3.71,3.71,0,0,0-1.81-3.36c-1.21-.76-3.29-1.14-6.27-1.14h-8.86L364,31.41h21.15v6.44H370.72l-.55,6.59H373Q380.32,44.44,383.82,47.36Z"/><path class="cls-5" d="M404,31.41V66.09h-8V37.85H389V31.41Z"/><path class="cls-5" d="M437.67,51.22A8.57,8.57,0,0,1,439,56a9,9,0,0,1-1.83,5.62,11.76,11.76,0,0,1-5.15,3.72,21,21,0,0,1-7.68,1.31,20.73,20.73,0,0,1-7.66-1.31,11.65,11.65,0,0,1-5.1-3.72A9.11,9.11,0,0,1,409.8,56a8.58,8.58,0,0,1,1.37-4.81,9.76,9.76,0,0,1,3.89-3.36,8.64,8.64,0,0,1-3-3,8.21,8.21,0,0,1-1-4.14,8.44,8.44,0,0,1,1.69-5.25,10.71,10.71,0,0,1,4.7-3.44,18.52,18.52,0,0,1,6.94-1.22,18.82,18.82,0,0,1,7,1.22,10.69,10.69,0,0,1,4.73,3.44,8.49,8.49,0,0,1,1.68,5.25,8.11,8.11,0,0,1-1,4.14,8.43,8.43,0,0,1-3,3A9.78,9.78,0,0,1,437.67,51.22Zm-8.52,8.2a4.37,4.37,0,0,0,1.76-3.64,4.3,4.3,0,0,0-1.76-3.61,7.67,7.67,0,0,0-4.78-1.34,7.49,7.49,0,0,0-4.71,1.34,4.32,4.32,0,0,0-1.73,3.61,4.4,4.4,0,0,0,1.73,3.67,9,9,0,0,0,9.49,0Zm-8.67-21.55a3.88,3.88,0,0,0-1.46,3.2,3.78,3.78,0,0,0,1.43,3.12,6.16,6.16,0,0,0,3.92,1.14,6.34,6.34,0,0,0,4-1.14,3.72,3.72,0,0,0,1.49-3.12,3.85,3.85,0,0,0-1.49-3.2,6.28,6.28,0,0,0-4-1.16A6.09,6.09,0,0,0,420.48,37.87Z"/><path class="cls-5" d="M278.88,91.1l-1.71,1.79v3.23h-2.94V83.34h2.94v6l5.65-6h3.29L280.82,89l5.6,7.09H283Z"/><path class="cls-5" d="M297.63,93.74v2.38h-9.9V83.34h9.66v2.37h-6.72v2.78h5.93v2.3h-5.93v2.95Z"/><path class="cls-5" d="M306,91.59v4.53h-3V91.55l-4.95-8.21h3.14L304.64,89l3.41-5.68H311Z"/><path class="cls-5" d="M318.63,95.92a6.72,6.72,0,0,1-2.28-1.06l1-2.23a7,7,0,0,0,1.95,1,7.41,7.41,0,0,0,2.26.36,3.6,3.6,0,0,0,1.86-.37,1.12,1.12,0,0,0,.61-1,.94.94,0,0,0-.36-.75,2.71,2.71,0,0,0-.91-.49c-.37-.12-.87-.25-1.51-.4a21,21,0,0,1-2.39-.69,3.86,3.86,0,0,1-1.6-1.12,3,3,0,0,1-.66-2,3.6,3.6,0,0,1,.6-2A4,4,0,0,1,319,83.65a7.43,7.43,0,0,1,3-.53,10,10,0,0,1,2.39.29,7.46,7.46,0,0,1,2.05.84l-.91,2.25a7.19,7.19,0,0,0-3.55-1,3.3,3.3,0,0,0-1.83.41,1.2,1.2,0,0,0-.59,1,1,1,0,0,0,.68,1,11.21,11.21,0,0,0,2.09.63,21,21,0,0,1,2.39.69,4.1,4.1,0,0,1,1.6,1.1,3,3,0,0,1,.67,2,3.48,3.48,0,0,1-.62,2,4.09,4.09,0,0,1-1.83,1.44,7.56,7.56,0,0,1-3,.53A10.16,10.16,0,0,1,318.63,95.92Z"/><path class="cls-5" d="M331.47,85.75h-4.09V83.34h11.13v2.41h-4.09V96.12h-2.95Z"/><path class="cls-5" d="M347.87,93.38h-5.93l-1.13,2.74h-3l5.69-12.78h2.92l5.72,12.78H349Zm-.93-2.25-2-4.89-2,4.89Z"/><path class="cls-5" d="M358.09,91.1l-1.71,1.79v3.23h-2.94V83.34h2.94v6l5.66-6h3.28L360,89l5.6,7.09h-3.45Z"/><path class="cls-5" d="M378.66,83.34V96.12h-3V90.88H369.9v5.24H367V83.34h2.95v5h5.81v-5Z"/><path class="cls-5" d="M384.29,95.48a6.37,6.37,0,0,1-3.4-5.75,6.34,6.34,0,0,1,3.4-5.75,7.9,7.9,0,0,1,7.17,0,6.37,6.37,0,0,1,3.41,5.75,6.4,6.4,0,0,1-3.41,5.75,7.9,7.9,0,0,1-7.17,0Zm5.64-2.18a3.83,3.83,0,0,0,1.43-1.45,4.58,4.58,0,0,0,0-4.24,3.83,3.83,0,0,0-1.43-1.45,4.28,4.28,0,0,0-4.09,0,3.78,3.78,0,0,0-1.44,1.45,4.58,4.58,0,0,0,0,4.24,3.78,3.78,0,0,0,1.44,1.45,4.28,4.28,0,0,0,4.09,0Z"/><path class="cls-5" d="M397.1,83.34h2.95V93.71h6.41v2.41H397.1Z"/><path class="cls-5" d="M408.12,83.34h5.81a8.12,8.12,0,0,1,3.67.79,6,6,0,0,1,2.49,2.24,6.85,6.85,0,0,1,0,6.72,5.93,5.93,0,0,1-2.49,2.23,8.12,8.12,0,0,1-3.67.8h-5.81Zm5.66,10.35a4.31,4.31,0,0,0,3.06-1.07,4.23,4.23,0,0,0,0-5.78,4.26,4.26,0,0,0-3.06-1.07h-2.7v7.92Z"/><path class="cls-5" d="M433.09,93.74v2.38H423.2V83.34h9.65v2.37h-6.71v2.78h5.93v2.3h-5.93v2.95Z"/><path class="cls-5" d="M443.58,96.12l-2.46-3.56H438.4v3.56h-3V83.34H441a7,7,0,0,1,2.94.57,4.32,4.32,0,0,1,1.93,1.6,4.46,4.46,0,0,1,.67,2.47,4.29,4.29,0,0,1-.68,2.45A4.42,4.42,0,0,1,443.9,92l2.86,4.11Zm-.74-9.8a3.15,3.15,0,0,0-2-.57H438.4V90.2h2.41a3.09,3.09,0,0,0,2-.58,2.32,2.32,0,0,0,0-3.3Z"/><path class="cls-5" d="M450.13,95.92a6.66,6.66,0,0,1-2.27-1.06l1-2.23a7.11,7.11,0,0,0,1.95,1,7.47,7.47,0,0,0,2.27.36,3.6,3.6,0,0,0,1.86-.37,1.13,1.13,0,0,0,.6-1,.94.94,0,0,0-.36-.75,2.62,2.62,0,0,0-.91-.49c-.37-.12-.87-.25-1.5-.4a21.29,21.29,0,0,1-2.4-.69,3.76,3.76,0,0,1-1.59-1.12,3,3,0,0,1-.67-2,3.6,3.6,0,0,1,.6-2,4.1,4.1,0,0,1,1.82-1.43,7.48,7.48,0,0,1,3-.53,10.09,10.09,0,0,1,2.39.29,7.4,7.4,0,0,1,2,.84L457,86.5a7.12,7.12,0,0,0-3.54-1,3.32,3.32,0,0,0-1.84.41,1.22,1.22,0,0,0-.59,1,1,1,0,0,0,.68,1,11.46,11.46,0,0,0,2.09.63,20.45,20.45,0,0,1,2.39.69,4,4,0,0,1,1.6,1.1,2.9,2.9,0,0,1,.67,2,3.54,3.54,0,0,1-.61,2A4.12,4.12,0,0,1,456,95.81a7.48,7.48,0,0,1-3,.53A10.23,10.23,0,0,1,450.13,95.92Z"/><path class="cls-5" d="M468.63,85.71v3.38h5.91v2.37h-5.91v4.66h-3V83.34h9.65v2.37Z"/><path class="cls-5" d="M485.47,96.12,483,92.56h-2.72v3.56h-3V83.34h5.53a7.06,7.06,0,0,1,2.95.57,4.37,4.37,0,0,1,1.93,1.6,4.46,4.46,0,0,1,.67,2.47,4.15,4.15,0,0,1-2.63,4l2.87,4.11Zm-.75-9.8a3.1,3.1,0,0,0-2-.57h-2.41V90.2h2.41a3,3,0,0,0,2-.58,2.29,2.29,0,0,0,0-3.3Z"/><path class="cls-5" d="M493.35,95.48a6.28,6.28,0,0,1-2.5-2.37,6.51,6.51,0,0,1,2.5-9.13,7.88,7.88,0,0,1,7.16,0,6.37,6.37,0,0,1,3.41,5.75,6.4,6.4,0,0,1-3.41,5.75,7.88,7.88,0,0,1-7.16,0ZM499,93.3a3.76,3.76,0,0,0,1.43-1.45,4.58,4.58,0,0,0,0-4.24A3.76,3.76,0,0,0,499,86.16a4.28,4.28,0,0,0-4.09,0,3.69,3.69,0,0,0-1.43,1.45,4.58,4.58,0,0,0,0,4.24,3.69,3.69,0,0,0,1.43,1.45,4.28,4.28,0,0,0,4.09,0Z"/><path class="cls-5" d="M517.78,96.12l0-7.67L514,94.77h-1.33l-3.75-6.16v7.51h-2.77V83.34h2.45l4.78,7.94,4.71-7.94h2.42l0,12.78Z"/><path class="cls-5" d="M288.79,111.43h2.7v5.18a7.48,7.48,0,0,1-2.41,1.21,9.32,9.32,0,0,1-2.75.42,7.54,7.54,0,0,1-3.58-.85,6.29,6.29,0,0,1-2.49-2.36,6.87,6.87,0,0,1,0-6.8,6.28,6.28,0,0,1,2.51-2.36,7.69,7.69,0,0,1,3.61-.85,7.86,7.86,0,0,1,3.05.57,6.06,6.06,0,0,1,2.3,1.64l-1.9,1.75a4.38,4.38,0,0,0-3.3-1.44,4.49,4.49,0,0,0-2.17.51,3.6,3.6,0,0,0-1.48,1.44,4.33,4.33,0,0,0-.53,2.14,4.25,4.25,0,0,0,.53,2.12,3.73,3.73,0,0,0,1.47,1.45,4.29,4.29,0,0,0,2.14.52,4.74,4.74,0,0,0,2.3-.55Z"/><path class="cls-5" d="M296.83,117.38a6.39,6.39,0,0,1-2.5-2.36,6.83,6.83,0,0,1,0-6.78,6.39,6.39,0,0,1,2.5-2.36,7.9,7.9,0,0,1,7.17,0,6.52,6.52,0,0,1,0,11.5,7.9,7.9,0,0,1-7.17,0Zm5.63-2.18a3.78,3.78,0,0,0,1.44-1.45,4.58,4.58,0,0,0,0-4.24,3.78,3.78,0,0,0-1.44-1.45,4.28,4.28,0,0,0-4.09,0,3.83,3.83,0,0,0-1.43,1.45,4.58,4.58,0,0,0,0,4.24,3.83,3.83,0,0,0,1.43,1.45,4.28,4.28,0,0,0,4.09,0Z"/><path class="cls-5" d="M321.5,105.24,316,118h-2.92l-5.51-12.78h3.19l3.89,9.13,3.94-9.13Z"/><path class="cls-5" d="M332.45,115.65V118h-9.89V105.24h9.65v2.37H325.5v2.78h5.93v2.3H325.5v3Z"/><path class="cls-5" d="M342.94,118l-2.46-3.56h-2.72V118h-3V105.24h5.54a7,7,0,0,1,2.94.57,4.38,4.38,0,0,1,1.93,1.6,4.46,4.46,0,0,1,.67,2.47,4.27,4.27,0,0,1-.68,2.45,4.35,4.35,0,0,1-1.94,1.58l2.86,4.11Zm-.74-9.79a3.09,3.09,0,0,0-2-.58h-2.41v4.46h2.41a3.09,3.09,0,0,0,2-.59,2.31,2.31,0,0,0,0-3.29Z"/><path class="cls-5" d="M359.94,105.24V118h-2.43l-6.37-7.76V118h-2.92V105.24h2.45L357,113v-7.76Z"/><path class="cls-5" d="M374.59,118v-7.67l-3.76,6.32h-1.34l-3.74-6.15V118H363V105.24h2.44l4.78,7.94,4.71-7.94h2.43l0,12.78Z"/><path class="cls-5" d="M390.29,115.65V118H380.4V105.24h9.65v2.37h-6.71v2.78h5.93v2.3h-5.93v3Z"/><path class="cls-5" d="M404.36,105.24V118h-2.43l-6.37-7.76V118h-2.92V105.24h2.45l6.35,7.76v-7.76Z"/><path class="cls-5" d="M410,107.65H406v-2.41h11.13v2.41H413V118h-3Z"/><path class="cls-5" d="M432.25,115.28h-5.93L425.19,118h-3l5.69-12.78h2.92L436.48,118h-3.1Zm-.93-2.24-2-4.9-2,4.9Z"/><path class="cls-5" d="M449.53,105.24V118h-2.42l-6.37-7.76V118h-2.92V105.24h2.44l6.35,7.76v-7.76Z"/><path class="cls-5" d="M452.56,105.24h5.81a8.17,8.17,0,0,1,3.68.8,6,6,0,0,1,2.48,2.23,6.85,6.85,0,0,1,0,6.72,5.9,5.9,0,0,1-2.48,2.23,8.17,8.17,0,0,1-3.68.8h-5.81Zm5.66,10.35a4.26,4.26,0,0,0,3.06-1.07,4.23,4.23,0,0,0,0-5.78,4.31,4.31,0,0,0-3.06-1.07h-2.7v7.92Z"/><path class="cls-5" d="M475.39,117.39a6.41,6.41,0,0,1-3.39-5.76,6.41,6.41,0,0,1,.91-3.4,6.33,6.33,0,0,1,2.48-2.36,7.88,7.88,0,0,1,6.55-.26,6,6,0,0,1,2.25,1.68L482.3,109a4.1,4.1,0,0,0-3.22-1.5,4.31,4.31,0,0,0-2.11.52,3.68,3.68,0,0,0-1.45,1.45,4.58,4.58,0,0,0,0,4.24A3.68,3.68,0,0,0,477,115.2a4.21,4.21,0,0,0,2.11.52,4.09,4.09,0,0,0,3.22-1.52l1.89,1.76a5.86,5.86,0,0,1-2.26,1.69,7.48,7.48,0,0,1-3,.59A7.4,7.4,0,0,1,475.39,117.39Z"/><path class="cls-5" d="M487.34,117.83a7,7,0,0,1-2.27-1.07l1-2.23a6.77,6.77,0,0,0,2,1,7.41,7.41,0,0,0,2.26.36,3.6,3.6,0,0,0,1.86-.37,1.13,1.13,0,0,0,.6-1,.93.93,0,0,0-.35-.76,2.9,2.9,0,0,0-.91-.49c-.37-.12-.88-.25-1.51-.4a21,21,0,0,1-2.39-.69,3.93,3.93,0,0,1-1.6-1.11,3,3,0,0,1-.66-2,3.54,3.54,0,0,1,.6-2,4.08,4.08,0,0,1,1.81-1.44,7.48,7.48,0,0,1,3-.53,9.55,9.55,0,0,1,2.39.3,7.16,7.16,0,0,1,2,.83l-.92,2.25a7.11,7.11,0,0,0-3.54-1,3.27,3.27,0,0,0-1.83.4,1.22,1.22,0,0,0-.59,1.06,1,1,0,0,0,.68,1,9.86,9.86,0,0,0,2.09.63,20.82,20.82,0,0,1,2.39.7,4,4,0,0,1,1.6,1.09,3,3,0,0,1,.66,2,3.49,3.49,0,0,1-.61,2,4.13,4.13,0,0,1-1.83,1.43,7.56,7.56,0,0,1-3,.53A10.63,10.63,0,0,1,487.34,117.83Z"/><path class="cls-5" d="M500.32,117.38a6.32,6.32,0,0,1-2.5-2.36,6.83,6.83,0,0,1,0-6.78,6.32,6.32,0,0,1,2.5-2.36,7.88,7.88,0,0,1,7.16,0,6.52,6.52,0,0,1,0,11.5,7.88,7.88,0,0,1-7.16,0ZM506,115.2a3.69,3.69,0,0,0,1.43-1.45,4.58,4.58,0,0,0,0-4.24,3.69,3.69,0,0,0-1.43-1.45,4.28,4.28,0,0,0-4.09,0,3.76,3.76,0,0,0-1.43,1.45,4.58,4.58,0,0,0,0,4.24,3.76,3.76,0,0,0,1.43,1.45,4.28,4.28,0,0,0,4.09,0Z"/><path class="cls-5" d="M513.83,117.86a6.41,6.41,0,0,1-1.86-.75l.95-2a6.14,6.14,0,0,0,1.59.69,6.91,6.91,0,0,0,1.83.26c1.2,0,1.8-.3,1.8-.89a.64.64,0,0,0-.49-.61,7.71,7.71,0,0,0-1.52-.31,14.42,14.42,0,0,1-2-.42,2.91,2.91,0,0,1-1.35-.84,2.35,2.35,0,0,1-.58-1.71,2.68,2.68,0,0,1,.54-1.65,3.49,3.49,0,0,1,1.57-1.13,6.87,6.87,0,0,1,2.43-.4,9.75,9.75,0,0,1,2.08.23,5.7,5.7,0,0,1,1.7.63l-.95,2a5.6,5.6,0,0,0-2.83-.73,2.86,2.86,0,0,0-1.36.25.75.75,0,0,0-.46.66.65.65,0,0,0,.49.64,8.85,8.85,0,0,0,1.57.35,16.73,16.73,0,0,1,2,.42,3.09,3.09,0,0,1,1.34.83,2.42,2.42,0,0,1,.56,1.68,2.59,2.59,0,0,1-.55,1.63,3.46,3.46,0,0,1-1.59,1.1,7.15,7.15,0,0,1-2.49.39A9.62,9.62,0,0,1,513.83,117.86Z"/><path class="cls-7" d="M77.93,145.37c.23-1.06.39-2.15.7-3.19C81,134.52,86,129.58,93.85,128c7.65-1.54,14.1.95,19.2,6.88l.31.36.21.16,2.74-1.76c2.61-1.68,5.21-3.38,7.84-5a1.27,1.27,0,0,0,.67-1.21q0-4.67,0-9.33c0-.66-.15-.91-.87-1a19.81,19.81,0,0,1-17.4-17.48,19.59,19.59,0,0,1,3.6-13.71c.77-1.08,1.59-1.34,2.34-.76s.71,1.36,0,2.4a16.89,16.89,0,0,0,0,19.74c.2.28.42.54.69.89a21.88,21.88,0,0,1,6.91-7.68,8.09,8.09,0,0,1-1.58-7,7.74,7.74,0,0,1,3.07-4.6,8,8,0,0,1,10.22.67,8.1,8.1,0,0,1,.7,10.94,21.89,21.89,0,0,1,6.89,7.68,16.08,16.08,0,0,0,3.63-8,16.87,16.87,0,0,0-13.45-19.28A16.45,16.45,0,0,0,117.37,83c-.27.16-.53.35-.8.5a1.4,1.4,0,0,1-2-.41,1.36,1.36,0,0,1,.47-2,19,19,0,0,1,8-3.21,19.78,19.78,0,1,1,5.43,39.17c-.66.07-.83.3-.82.92,0,3.17,0,6.34,0,9.52a1.39,1.39,0,0,0,.51,1c3.52,2.31,7.06,4.58,10.66,6.9.35-.4.68-.81,1-1.19,5.52-5.87,12.21-7.84,20-6a7.53,7.53,0,0,1,.81.24,1.41,1.41,0,0,1,1,1.77,1.44,1.44,0,0,1-1.8,1,27.21,27.21,0,0,0-4-.75c-7.17-.38-12.71,2.55-16.13,8.82s-2.75,12.51,1.41,18.34a5.36,5.36,0,0,0,.36.4,21.57,21.57,0,0,1,6.88-7.65A8.15,8.15,0,0,1,147,143a7.69,7.69,0,0,1,3.13-4.35A8,8,0,0,1,161,150.23c1.26,1.17,2.61,2.25,3.75,3.52s2.09,2.73,3.14,4.15a15.79,15.79,0,0,0,3.56-8.17,16.72,16.72,0,0,0-6.62-16c-.95-.76-1.15-1.5-.59-2.23a1.43,1.43,0,0,1,2.17-.12,19.17,19.17,0,0,1,7.84,13.15,19.77,19.77,0,1,1-37.15-6.24l.22-.5-4-2.61c-2.17-1.39-4.32-2.8-6.5-4.17-.24-.15-.7-.27-.89-.14-3.61,2.28-7.18,4.6-10.58,6.79.67,2.27,1.49,4.38,1.9,6.57,2,10.48-5.81,21.18-16.38,22.64-.37,0-.74.13-1.12.16A1.46,1.46,0,0,1,98,165.8a1.41,1.41,0,0,1,1.38-1.58,17.19,17.19,0,0,0,8.11-3c.4-.29.79-.61,1.36-1.06-.82-1.24-1.56-2.51-2.43-3.67a17,17,0,0,0-5.1-4.41c-1.43-.85-1.51-1.75-.24-2.86a5.17,5.17,0,0,0-3.76-9.12,5.08,5.08,0,0,0-4.58,3.87,5,5,0,0,0,1.63,5.2c1.34,1.22,1.26,2.06-.3,3a18,18,0,0,0-7.32,8.11A16.38,16.38,0,0,0,93,163.64c.27.08.55.14.82.21a1.43,1.43,0,1,1-.74,2.73,22.59,22.59,0,0,1-3-1A19.55,19.55,0,0,1,78.1,149.85a3.93,3.93,0,0,0-.17-.52Zm32.88,12.57c4.72-5.2,5.88-15.37-1-22.39a16.84,16.84,0,0,0-24.55.27c-6.7,7.17-5.21,17.25-.75,22.06,1-1.37,2-2.83,3.11-4.1s2.49-2.36,3.76-3.54c-2.53-4.33-2.17-8.22,1.08-11.08a8,8,0,0,1,10.16-.27,7.83,7.83,0,0,1,2.91,4.6,8.16,8.16,0,0,1-1.62,6.85A21.7,21.7,0,0,1,110.81,157.94Zm4.42-47.64a17,17,0,0,0,21.46.48c.44-.36.49-.65.21-1.09-.57-.9-1.08-1.85-1.71-2.7a17.69,17.69,0,0,0-5.46-4.83c-1.34-.79-1.43-1.73-.29-2.75l.35-.32a5.18,5.18,0,1,0-7,.14c1.43,1.29,1.35,2.07-.33,3.08A18,18,0,0,0,115.23,110.3Zm50.39,49.82a18.07,18.07,0,0,0-7.27-8c-1.57-.94-1.65-1.76-.31-3a5,5,0,0,0,1.59-5.37,5.06,5.06,0,0,0-4.59-3.71,5.14,5.14,0,0,0-5.17,3.19,5.26,5.26,0,0,0,1.35,5.85,2.94,2.94,0,0,1,.93,1.23c.25.88-.4,1.34-1.09,1.75a17.91,17.91,0,0,0-7.35,8A16.65,16.65,0,0,0,165.62,160.12Z"/></svg>