<svg id="Layer_1" data-name="Layer 1" xmlns="http://www.w3.org/2000/svg" xmlns:xlink="http://www.w3.org/1999/xlink" viewBox="0 0 654 250"><defs><style>.cls-1,.cls-2,.cls-7{fill:none;}.cls-2{stroke:#1e3769;stroke-width:2.61px;}.cls-2,.cls-7{stroke-miterlimit:10;}.cls-3{fill:#1e3769;}.cls-4{opacity:0.15;}.cls-5{fill:#fff;}.cls-6{clip-path:url(#clip-path);}.cls-7{stroke:#2680d2;}</style><clipPath id="clip-path"><rect class="cls-1" x="-2074.54" y="-313.38" width="1920" height="142.18"/></clipPath></defs><polygon class="cls-2" points="12.15 125 126.14 238.98 528.45 238.98 642.43 125 528.45 11.02 126.14 11.02 12.15 125"/><path class="cls-3" d="M357.86,94.41V107.2h-2.43l-6.37-7.76v7.76h-2.93V94.41h2.45l6.36,7.77V94.41Z"/><path class="cls-3" d="M370.8,104.83v2.37h-9.9V94.41h9.66v2.38h-6.72v2.78h5.93v2.3h-5.93v3Z"/><path class="cls-3" d="M392.3,94.41l-4.18,12.79h-3.18l-2.82-8.66-2.9,8.66h-3.16l-4.2-12.79h3.07l2.88,9,3-9h2.74l2.92,9.07,3-9.07Z"/><path class="cls-3" d="M402,106.57a6.3,6.3,0,0,1-2.48-2.35,6.91,6.91,0,0,1,0-6.82A6.3,6.3,0,0,1,402,95.05a8,8,0,0,1,6.56-.27,6,6,0,0,1,2.26,1.68l-1.9,1.76a4.1,4.1,0,0,0-3.22-1.5,4.27,4.27,0,0,0-2.12.52,3.68,3.68,0,0,0-1.45,1.45,4.58,4.58,0,0,0,0,4.24,3.74,3.74,0,0,0,1.45,1.45,4.27,4.27,0,0,0,2.12.52,4.08,4.08,0,0,0,3.22-1.51l1.9,1.75a6,6,0,0,1-2.27,1.7,7.48,7.48,0,0,1-3,.58A7.35,7.35,0,0,1,402,106.57Z"/><path class="cls-3" d="M415.11,106.56a6.32,6.32,0,0,1-2.5-2.36,6.54,6.54,0,0,1,2.5-9.15,8,8,0,0,1,7.17,0,6.55,6.55,0,0,1,2.5,2.37,6.52,6.52,0,0,1-2.5,9.14,7.9,7.9,0,0,1-7.17,0Zm5.64-2.18a3.83,3.83,0,0,0,1.43-1.45,4.58,4.58,0,0,0,0-4.24,3.76,3.76,0,0,0-1.43-1.45,4.3,4.3,0,0,0-4.1,0,3.69,3.69,0,0,0-1.43,1.45,4.58,4.58,0,0,0,0,4.24,3.76,3.76,0,0,0,1.43,1.45,4.3,4.3,0,0,0,4.1,0Z"/><path class="cls-3" d="M429.34,105.91a5.83,5.83,0,0,1-1.52-4.33V94.41h2.95v7.06c0,2.29,1,3.43,2.86,3.43a2.66,2.66,0,0,0,2.11-.83,3.84,3.84,0,0,0,.74-2.6V94.41h2.92v7.17a5.84,5.84,0,0,1-1.53,4.33,6.78,6.78,0,0,1-8.53,0Z"/><path class="cls-3" d="M450.47,107.2,448,103.64h-2.72v3.56h-3V94.41h5.54a7.09,7.09,0,0,1,2.95.57,4.37,4.37,0,0,1,1.92,1.61,4.44,4.44,0,0,1,.68,2.47,4.37,4.37,0,0,1-.68,2.45,4.33,4.33,0,0,1-2,1.58l2.87,4.11Zm-.75-9.8a3.13,3.13,0,0,0-2-.57h-2.41v4.45h2.41a3.07,3.07,0,0,0,2-.58,2.32,2.32,0,0,0,0-3.3Z"/><path class="cls-3" d="M457,107a6.81,6.81,0,0,1-2.28-1.07l1-2.23a6.59,6.59,0,0,0,1.95,1,7.19,7.19,0,0,0,2.27.37,3.59,3.59,0,0,0,1.86-.38,1.14,1.14,0,0,0,.61-1,.94.94,0,0,0-.36-.76,2.7,2.7,0,0,0-.91-.48c-.38-.13-.88-.26-1.51-.41a20.45,20.45,0,0,1-2.39-.69,3.73,3.73,0,0,1-1.6-1.12,3,3,0,0,1-.67-2,3.58,3.58,0,0,1,.6-2,4,4,0,0,1,1.82-1.43,7.31,7.31,0,0,1,3-.53,9.6,9.6,0,0,1,2.39.29,6.89,6.89,0,0,1,2.05.84l-.91,2.25a7.19,7.19,0,0,0-3.55-1,3.33,3.33,0,0,0-1.84.4,1.24,1.24,0,0,0-.59,1.06,1,1,0,0,0,.69,1,11,11,0,0,0,2.09.63,21,21,0,0,1,2.39.69,4,4,0,0,1,1.6,1.1,3,3,0,0,1,.67,2,3.48,3.48,0,0,1-.62,2,4.07,4.07,0,0,1-1.83,1.43,7.39,7.39,0,0,1-3,.53A10.22,10.22,0,0,1,457,107Z"/><path class="cls-3" d="M477.31,104.83v2.37H467.4V94.41h9.67v2.38h-6.72v2.78h5.93v2.3h-5.93v3Z"/><path class="cls-3" d="M480.93,107a6.76,6.76,0,0,1-2.27-1.07l1-2.23a6.53,6.53,0,0,0,2,1,7.13,7.13,0,0,0,2.26.37,3.63,3.63,0,0,0,1.87-.38,1.13,1.13,0,0,0,.6-1,.94.94,0,0,0-.36-.76,2.61,2.61,0,0,0-.91-.48,15.61,15.61,0,0,0-1.51-.41,21,21,0,0,1-2.39-.69,3.86,3.86,0,0,1-1.6-1.12,3,3,0,0,1-.67-2,3.58,3.58,0,0,1,.61-2,4,4,0,0,1,1.82-1.43,7.22,7.22,0,0,1,3-.53,9.62,9.62,0,0,1,2.4.29,6.72,6.72,0,0,1,2,.84l-.91,2.25a7.12,7.12,0,0,0-3.54-1,3.3,3.3,0,0,0-1.84.4,1.22,1.22,0,0,0-.59,1.06,1,1,0,0,0,.68,1,11.21,11.21,0,0,0,2.09.63,21.29,21.29,0,0,1,2.4.69,4,4,0,0,1,1.59,1.1,2.93,2.93,0,0,1,.67,2,3.47,3.47,0,0,1-.61,2,4.1,4.1,0,0,1-1.84,1.43,7.34,7.34,0,0,1-3,.53A10.29,10.29,0,0,1,480.93,107Z"/><path class="cls-3" d="M430.47,62.27a8.57,8.57,0,0,1,1.36,4.81A9,9,0,0,1,430,72.71a11.64,11.64,0,0,1-5.16,3.71,23,23,0,0,1-15.35,0,11.45,11.45,0,0,1-5.1-3.71,9.09,9.09,0,0,1-1.81-5.63,8.57,8.57,0,0,1,1.36-4.81,9.94,9.94,0,0,1,3.89-3.38,8.36,8.36,0,0,1-3-3,8.06,8.06,0,0,1-1-4.14,8.49,8.49,0,0,1,1.68-5.25,10.82,10.82,0,0,1,4.71-3.45,18.54,18.54,0,0,1,7-1.21,18.83,18.83,0,0,1,7,1.21,10.74,10.74,0,0,1,4.74,3.45,8.49,8.49,0,0,1,1.68,5.25,8.06,8.06,0,0,1-1,4.14,8.27,8.27,0,0,1-3,3A9.82,9.82,0,0,1,430.47,62.27Zm-8.53,8.2a4.38,4.38,0,0,0,1.76-3.64,4.32,4.32,0,0,0-1.76-3.62,7.73,7.73,0,0,0-4.78-1.34,7.56,7.56,0,0,0-4.72,1.34,4.34,4.34,0,0,0-1.73,3.62,4.4,4.4,0,0,0,1.73,3.67,9,9,0,0,0,9.5,0ZM413.26,48.9a3.89,3.89,0,0,0-1.46,3.2,3.78,3.78,0,0,0,1.44,3.13,6.14,6.14,0,0,0,3.92,1.14,6.34,6.34,0,0,0,4-1.14,3.74,3.74,0,0,0,1.49-3.13,3.86,3.86,0,0,0-1.49-3.2,6.28,6.28,0,0,0-4-1.16A6.14,6.14,0,0,0,413.26,48.9Z"/><path d="M361.49,137.75l.21,1.16h.05l.21-1.16,1.79-5.69h1.31l1.8,5.69.23,1.29h.05l.26-1.29,1.33-5.69h1.71l-2.61,9h-1.31l-1.78-5.46-.33-1.43h-.05l-.32,1.43L362.3,141H361l-2.6-9h1.7Z"/><path d="M375.74,141.19a3.8,3.8,0,0,1-3-1.23,4.76,4.76,0,0,1-1.08-3.25v-.36a4.64,4.64,0,0,1,1.12-3.2,3.49,3.49,0,0,1,2.72-1.26,3.23,3.23,0,0,1,2.69,1.12,4.59,4.59,0,0,1,.9,3v.86h-5.73l0,0a3.77,3.77,0,0,0,.59,2.2,2.09,2.09,0,0,0,1.82.84,4.06,4.06,0,0,0,1.46-.24,3.2,3.2,0,0,0,1.07-.65l.64,1.06a3.82,3.82,0,0,1-1.27.78A4.91,4.91,0,0,1,375.74,141.19Zm-.25-8a1.76,1.76,0,0,0-1.41.66,3.12,3.12,0,0,0-.69,1.69l0,0h4v-.13a2.64,2.64,0,0,0-.48-1.62A1.74,1.74,0,0,0,375.49,133.17Z"/><path d="M385.16,133.5l-.84-.05a1.89,1.89,0,0,0-1.09.3,2,2,0,0,0-.68.87V141h-1.64v-9h1.46l.16,1.3a3.12,3.12,0,0,1,.94-1.08,2.19,2.19,0,0,1,1.29-.39,2,2,0,0,1,.35,0l.27.06Z"/><path d="M390.41,141.19a3.79,3.79,0,0,1-3-1.23,4.76,4.76,0,0,1-1.09-3.25v-.36a4.69,4.69,0,0,1,1.12-3.2,3.49,3.49,0,0,1,2.72-1.26,3.25,3.25,0,0,1,2.7,1.12,4.59,4.59,0,0,1,.89,3v.86H388l0,0a3.77,3.77,0,0,0,.59,2.2,2.1,2.1,0,0,0,1.83.84,4,4,0,0,0,1.45-.24,3.1,3.1,0,0,0,1.07-.65l.64,1.06a3.82,3.82,0,0,1-1.27.78A4.85,4.85,0,0,1,390.41,141.19Zm-.26-8a1.76,1.76,0,0,0-1.41.66,3.2,3.2,0,0,0-.69,1.69l0,0h4v-.13a2.64,2.64,0,0,0-.48-1.62A1.74,1.74,0,0,0,390.15,133.17Z"/><path d="M399.42,136.7a6,6,0,0,1,.92-3.48,3,3,0,0,1,2.59-1.33,3.27,3.27,0,0,1,1.4.29,2.92,2.92,0,0,1,1,.85V128.1H407V141h-1.25l-.25-1.14a2.91,2.91,0,0,1-1.09,1,3.24,3.24,0,0,1-1.49.33,3.05,3.05,0,0,1-2.57-1.19,4.91,4.91,0,0,1-.93-3.12Zm1.63.18a3.79,3.79,0,0,0,.56,2.17,1.92,1.92,0,0,0,1.72.82,2.14,2.14,0,0,0,1.22-.33,2.48,2.48,0,0,0,.82-.93v-4.18a2.43,2.43,0,0,0-.82-.89,2.11,2.11,0,0,0-1.2-.32,1.87,1.87,0,0,0-1.74,1,5.06,5.06,0,0,0-.56,2.52Z"/><path d="M413.14,141.19a3.8,3.8,0,0,1-3-1.23,4.76,4.76,0,0,1-1.08-3.25v-.36a4.64,4.64,0,0,1,1.12-3.2,3.49,3.49,0,0,1,2.72-1.26,3.23,3.23,0,0,1,2.69,1.12,4.59,4.59,0,0,1,.9,3v.86h-5.73l0,0a3.69,3.69,0,0,0,.59,2.2,2.09,2.09,0,0,0,1.82.84,4.06,4.06,0,0,0,1.46-.24,3.2,3.2,0,0,0,1.07-.65l.64,1.06a3.82,3.82,0,0,1-1.27.78A4.91,4.91,0,0,1,413.14,141.19Zm-.25-8a1.76,1.76,0,0,0-1.41.66,3.12,3.12,0,0,0-.69,1.69l0,0h4v-.13a2.64,2.64,0,0,0-.48-1.62A1.74,1.74,0,0,0,412.89,133.17Z"/><path d="M421.2,138.38l.14.63h.05l.15-.63,2.07-6.32h1.66l-3.3,9h-1.23l-3.34-9h1.68Z"/><path d="M430.34,141.19a3.79,3.79,0,0,1-3-1.23,4.76,4.76,0,0,1-1.08-3.25v-.36a4.69,4.69,0,0,1,1.11-3.2,3.51,3.51,0,0,1,2.72-1.26,3.25,3.25,0,0,1,2.7,1.12,4.59,4.59,0,0,1,.9,3v.86H428l0,0a3.7,3.7,0,0,0,.6,2.2,2.08,2.08,0,0,0,1.82.84,4,4,0,0,0,1.45-.24,3.24,3.24,0,0,0,1.08-.65l.64,1.06a3.92,3.92,0,0,1-1.27.78A4.94,4.94,0,0,1,430.34,141.19Zm-.26-8a1.78,1.78,0,0,0-1.41.66,3.11,3.11,0,0,0-.68,1.69l0,0h4v-.13a2.64,2.64,0,0,0-.48-1.62A1.76,1.76,0,0,0,430.08,133.17Z"/><path d="M437.27,141h-1.63V128.1h1.63Z"/><path d="M439.4,136.45a4.92,4.92,0,0,1,1.08-3.27,3.61,3.61,0,0,1,2.92-1.29,3.66,3.66,0,0,1,3,1.28,4.93,4.93,0,0,1,1.08,3.28v.19a4.91,4.91,0,0,1-1.08,3.28,4,4,0,0,1-5.87,0,4.88,4.88,0,0,1-1.08-3.27Zm1.64.19a4.25,4.25,0,0,0,.6,2.35,2.16,2.16,0,0,0,3.55,0,4.17,4.17,0,0,0,.61-2.35v-.19a4.18,4.18,0,0,0-.61-2.34,2,2,0,0,0-1.79-.94,2,2,0,0,0-1.76.94,4.26,4.26,0,0,0-.6,2.34Z"/><path d="M457.06,136.88a5,5,0,0,1-.92,3.12,3.06,3.06,0,0,1-2.56,1.19,3.49,3.49,0,0,1-1.46-.28,2.74,2.74,0,0,1-1.06-.83v4.38h-1.63v-12.4h1.25l.25,1.16a3,3,0,0,1,1.1-1,3.19,3.19,0,0,1,1.52-.34,3,3,0,0,1,2.59,1.32,6,6,0,0,1,.92,3.49Zm-1.63-.18a4.72,4.72,0,0,0-.6-2.5,1.93,1.93,0,0,0-1.77-1,2.19,2.19,0,0,0-1.2.31,2.43,2.43,0,0,0-.8.88v4.33a2.14,2.14,0,0,0,2,1.18,2,2,0,0,0,1.76-.85,3.8,3.8,0,0,0,.59-2.19Z"/><path d="M462.78,141.19a3.79,3.79,0,0,1-3-1.23,4.76,4.76,0,0,1-1.08-3.25v-.36a4.69,4.69,0,0,1,1.11-3.2,3.49,3.49,0,0,1,2.72-1.26,3.25,3.25,0,0,1,2.7,1.12,4.59,4.59,0,0,1,.9,3v.86h-5.73l0,0a3.7,3.7,0,0,0,.6,2.2,2.07,2.07,0,0,0,1.82.84,4,4,0,0,0,1.45-.24,3.24,3.24,0,0,0,1.08-.65l.63,1.06a3.87,3.87,0,0,1-1.26.78A4.94,4.94,0,0,1,462.78,141.19Zm-.26-8a1.76,1.76,0,0,0-1.41.66,3.11,3.11,0,0,0-.68,1.69v0h4.05v-.13a2.58,2.58,0,0,0-.49-1.62A1.74,1.74,0,0,0,462.52,133.17Z"/><path d="M467.58,136.7a5.92,5.92,0,0,1,.92-3.48,3,3,0,0,1,2.59-1.33,3.23,3.23,0,0,1,1.39.29,2.75,2.75,0,0,1,1,.85V128.1h1.63V141H473.9l-.24-1.14a3,3,0,0,1-1.09,1,3.25,3.25,0,0,1-1.5.33A3.07,3.07,0,0,1,468.5,140a4.91,4.91,0,0,1-.92-3.12Zm1.63.18a3.79,3.79,0,0,0,.55,2.17,1.93,1.93,0,0,0,1.72.82,2.17,2.17,0,0,0,1.23-.33,2.54,2.54,0,0,0,.81-.93v-4.18a2.49,2.49,0,0,0-.81-.89,2.17,2.17,0,0,0-1.21-.32,1.86,1.86,0,0,0-1.73,1,5,5,0,0,0-.56,2.52Z"/><path d="M331.16,161.38v-7.76h-1.4v-1.21h1.4v-1.13a3.07,3.07,0,0,1,.75-2.22,2.77,2.77,0,0,1,2.09-.78,3.66,3.66,0,0,1,.57.05l.63.12-.2,1.25a1.68,1.68,0,0,0-.36-.06,3.15,3.15,0,0,0-.44,0,1.29,1.29,0,0,0-1.06.43,1.93,1.93,0,0,0-.35,1.24v1.13h1.62v1.21h-1.62v7.76Z"/><path d="M335.68,156.81a4.9,4.9,0,0,1,1.08-3.27,3.61,3.61,0,0,1,2.92-1.29,3.66,3.66,0,0,1,2.95,1.28,4.93,4.93,0,0,1,1.08,3.28V157a4.89,4.89,0,0,1-1.08,3.28,4,4,0,0,1-5.87,0,4.91,4.91,0,0,1-1.08-3.28Zm1.63.18a4.28,4.28,0,0,0,.6,2.36,2,2,0,0,0,1.79.92,2,2,0,0,0,1.77-.92,4.2,4.2,0,0,0,.61-2.36v-.18a4.24,4.24,0,0,0-.61-2.34,2,2,0,0,0-1.79-.94,2,2,0,0,0-1.77.94,4.24,4.24,0,0,0-.6,2.34Z"/><path d="M350,153.85l-.84,0a1.92,1.92,0,0,0-1.09.31,2,2,0,0,0-.68.86v6.41h-1.63v-9h1.45l.16,1.31a3.12,3.12,0,0,1,.94-1.08,2.19,2.19,0,0,1,1.29-.39,2,2,0,0,1,.35,0l.27.06Z"/><path d="M358.13,150.25v2.16h1.7v1.21h-1.7v5.44a1.24,1.24,0,0,0,.26.89,1,1,0,0,0,.69.26,1.27,1.27,0,0,0,.32,0,1.71,1.71,0,0,0,.29-.08l.22,1.12a1.36,1.36,0,0,1-.54.24,2.47,2.47,0,0,1-.7.1,2.11,2.11,0,0,1-1.58-.6,2.58,2.58,0,0,1-.59-1.89v-5.44h-1.43v-1.21h1.43v-2.16Z"/><path d="M363.21,153.61a3.3,3.3,0,0,1,1.14-1,3.13,3.13,0,0,1,1.49-.36,2.86,2.86,0,0,1,2.23.86,3.75,3.75,0,0,1,.8,2.65v5.62h-1.63v-5.64a2.45,2.45,0,0,0-.47-1.64,1.84,1.84,0,0,0-1.42-.53,2.68,2.68,0,0,0-1.27.29,2.31,2.31,0,0,0-.87.8v6.72h-1.63V148.45h1.63Z"/><path d="M374.93,161.55a3.79,3.79,0,0,1-3-1.23,4.78,4.78,0,0,1-1.08-3.25v-.37a4.66,4.66,0,0,1,1.11-3.19,3.49,3.49,0,0,1,2.72-1.26,3.25,3.25,0,0,1,2.7,1.12,4.58,4.58,0,0,1,.9,3v.86h-5.74l0,0a3.68,3.68,0,0,0,.6,2.19,2.07,2.07,0,0,0,1.82.84,4,4,0,0,0,1.45-.23,3.26,3.26,0,0,0,1.07-.65l.64,1.06a3.87,3.87,0,0,1-1.26.78A5.14,5.14,0,0,1,374.93,161.55Zm-.26-8a1.76,1.76,0,0,0-1.41.66,3.11,3.11,0,0,0-.68,1.69v0h4.05v-.14a2.53,2.53,0,0,0-.49-1.61A1.72,1.72,0,0,0,374.67,153.53Z"/><path d="M391,158.34a1.83,1.83,0,0,0-.59-1.38,4.88,4.88,0,0,0-2.07-.94,6.79,6.79,0,0,1-2.87-1.35,2.8,2.8,0,0,1-1-2.22,2.94,2.94,0,0,1,1.12-2.36,4.27,4.27,0,0,1,2.88-1,4.19,4.19,0,0,1,3,1.08,3.26,3.26,0,0,1,1.1,2.52l0,0H391a2.2,2.2,0,0,0-.72-1.69,2.57,2.57,0,0,0-1.83-.67,2.5,2.5,0,0,0-1.75.55,1.85,1.85,0,0,0-.61,1.44,1.6,1.6,0,0,0,.66,1.31,6.13,6.13,0,0,0,2.17.93,6.11,6.11,0,0,1,2.77,1.39,3,3,0,0,1,1,2.27,2.83,2.83,0,0,1-1.15,2.34,4.77,4.77,0,0,1-3,.89,5.1,5.1,0,0,1-3.09-1,3,3,0,0,1-1.3-2.62l0,0h1.56a2,2,0,0,0,.86,1.75,3.25,3.25,0,0,0,1.95.61,2.91,2.91,0,0,0,1.83-.52A1.7,1.7,0,0,0,391,158.34Z"/><path d="M394.91,161.38V149.32h3.79a5,5,0,0,1,5.24,5.21v1.64a5,5,0,0,1-5.24,5.21Zm1.63-10.78v9.5h2.16a3.33,3.33,0,0,0,2.64-1.1,4.17,4.17,0,0,0,1-2.83v-1.66a4.14,4.14,0,0,0-1-2.81,3.33,3.33,0,0,0-2.64-1.1Z"/><path d="M415.07,159.75a4,4,0,0,1-1.49,1.24,6,6,0,0,1-2.77.56,4.65,4.65,0,0,1-3.45-1.38,4.9,4.9,0,0,1-1.37-3.58V154.1a5,5,0,0,1,1.32-3.58,4.49,4.49,0,0,1,3.4-1.38,4.55,4.55,0,0,1,3.18,1.07,3.49,3.49,0,0,1,1.13,2.73l0,.05h-1.56a2.54,2.54,0,0,0-.71-1.83,2.69,2.69,0,0,0-2-.73,2.72,2.72,0,0,0-2.23,1,4,4,0,0,0-.85,2.63v2.5a3.88,3.88,0,0,0,.9,2.64,2.84,2.84,0,0,0,2.28,1,4.38,4.38,0,0,0,1.7-.27,2.64,2.64,0,0,0,.93-.66v-2.72h-2.73v-1.27h4.36Z"/><path d="M423.74,160.1h5.88v1.28H422.1V149.32h1.64Z"/><path d="M434.92,161.55a3.79,3.79,0,0,1-3-1.23,4.78,4.78,0,0,1-1.08-3.25v-.37a4.66,4.66,0,0,1,1.11-3.19,3.49,3.49,0,0,1,2.72-1.26,3.25,3.25,0,0,1,2.7,1.12,4.58,4.58,0,0,1,.9,3v.86h-5.74l0,0a3.75,3.75,0,0,0,.59,2.19,2.1,2.1,0,0,0,1.83.84,4,4,0,0,0,1.45-.23,3.26,3.26,0,0,0,1.07-.65l.64,1.06a3.82,3.82,0,0,1-1.27.78A5,5,0,0,1,434.92,161.55Zm-.26-8a1.76,1.76,0,0,0-1.41.66,3.2,3.2,0,0,0-.69,1.69l0,0h4v-.14a2.59,2.59,0,0,0-.48-1.61A1.72,1.72,0,0,0,434.66,153.53Z"/><path d="M445.59,161.38q-.07-.4-.12-.72t-.06-.63a3.76,3.76,0,0,1-1.19,1.08,3,3,0,0,1-1.57.44,2.93,2.93,0,0,1-2.14-.72,2.6,2.6,0,0,1-.73-2,2.32,2.32,0,0,1,1-2,4.86,4.86,0,0,1,2.82-.73h1.77v-.88a1.65,1.65,0,0,0-.48-1.25,1.87,1.87,0,0,0-1.36-.46,1.94,1.94,0,0,0-1.28.4,1.17,1.17,0,0,0-.49.95l-1.55,0v-.05a2.13,2.13,0,0,1,.91-1.79,3.8,3.8,0,0,1,2.51-.81,3.75,3.75,0,0,1,2.46.77,2.77,2.77,0,0,1,.92,2.23v4.32c0,.32,0,.63,0,.93a5.31,5.31,0,0,0,.19.88Zm-2.7-1.2a2.89,2.89,0,0,0,1.59-.45,2.13,2.13,0,0,0,.93-1v-1.45h-1.83a2.39,2.39,0,0,0-1.58.49,1.5,1.5,0,0,0-.59,1.17,1.28,1.28,0,0,0,.37,1A1.59,1.59,0,0,0,442.89,160.18Z"/><path d="M449,157.06a6,6,0,0,1,.92-3.49,3,3,0,0,1,2.59-1.32,3.13,3.13,0,0,1,1.4.29,2.89,2.89,0,0,1,1,.84v-4.93h1.63v12.93h-1.25l-.25-1.14a2.89,2.89,0,0,1-1.08,1,3.28,3.28,0,0,1-1.5.33,3.08,3.08,0,0,1-2.57-1.19,4.92,4.92,0,0,1-.93-3.13Zm1.63.17a3.83,3.83,0,0,0,.56,2.18,1.94,1.94,0,0,0,1.72.81,2.19,2.19,0,0,0,1.23-.33A2.51,2.51,0,0,0,455,159v-4.19a2.48,2.48,0,0,0-.82-.88,2.11,2.11,0,0,0-1.2-.33,1.88,1.88,0,0,0-1.74,1,5.06,5.06,0,0,0-.56,2.52Z"/><path d="M462.77,161.55a3.79,3.79,0,0,1-3-1.23,4.78,4.78,0,0,1-1.09-3.25v-.37a4.67,4.67,0,0,1,1.12-3.19,3.49,3.49,0,0,1,2.72-1.26,3.25,3.25,0,0,1,2.7,1.12,4.57,4.57,0,0,1,.89,3v.86h-5.73l0,0a3.75,3.75,0,0,0,.59,2.19,2.1,2.1,0,0,0,1.83.84,4,4,0,0,0,1.45-.23,3.37,3.37,0,0,0,1.07-.65l.64,1.06a3.82,3.82,0,0,1-1.27.78A5,5,0,0,1,462.77,161.55Zm-.26-8a1.76,1.76,0,0,0-1.41.66,3.2,3.2,0,0,0-.69,1.69l0,0h4v-.14a2.59,2.59,0,0,0-.48-1.61A1.72,1.72,0,0,0,462.51,153.53Z"/><path d="M472.18,153.85l-.84,0a1.92,1.92,0,0,0-1.09.31,2,2,0,0,0-.68.86v6.41h-1.63v-9h1.45l.16,1.31a3.12,3.12,0,0,1,.94-1.08,2.19,2.19,0,0,1,1.29-.39,2,2,0,0,1,.35,0l.27.06Z"/><path d="M479.08,159a1.06,1.06,0,0,0-.41-.88,3.85,3.85,0,0,0-1.55-.6,6.61,6.61,0,0,1-2.43-1,1.92,1.92,0,0,1-.85-1.64,2.36,2.36,0,0,1,.93-1.87,3.65,3.65,0,0,1,2.42-.78,3.59,3.59,0,0,1,2.47.83,2.35,2.35,0,0,1,.9,1.93l0,.05H479a1.43,1.43,0,0,0-.51-1.06,2.15,2.15,0,0,0-2.58-.08,1.24,1.24,0,0,0-.43.93,1,1,0,0,0,.37.82,4.15,4.15,0,0,0,1.52.53,6.47,6.47,0,0,1,2.5,1,2,2,0,0,1,.86,1.67,2.37,2.37,0,0,1-1,2,4.62,4.62,0,0,1-5.22-.12,2.49,2.49,0,0,1-.94-2l0-.05h1.56a1.49,1.49,0,0,0,.64,1.27,2.51,2.51,0,0,0,1.42.4,2.26,2.26,0,0,0,1.36-.36A1.13,1.13,0,0,0,479.08,159Z"/><path d="M484.38,153.61a3.3,3.3,0,0,1,1.14-1,3.13,3.13,0,0,1,1.49-.36,2.86,2.86,0,0,1,2.23.86,3.75,3.75,0,0,1,.8,2.65v5.62h-1.63v-5.64a2.45,2.45,0,0,0-.47-1.64,1.84,1.84,0,0,0-1.42-.53,2.68,2.68,0,0,0-1.27.29,2.31,2.31,0,0,0-.87.8v6.72h-1.63V148.45h1.63Z"/><path d="M494.15,150.12h-1.63v-1.67h1.63Zm0,11.26h-1.63v-9h1.63Z"/><path d="M504.3,157.23a4.92,4.92,0,0,1-.93,3.13,3.07,3.07,0,0,1-2.56,1.19,3.44,3.44,0,0,1-1.45-.28,2.77,2.77,0,0,1-1.07-.83v4.38h-1.63V152.41h1.25l.26,1.16a2.91,2.91,0,0,1,1.09-1,3.25,3.25,0,0,1,1.53-.34,3,3,0,0,1,2.59,1.32,6,6,0,0,1,.92,3.49Zm-1.63-.17a4.76,4.76,0,0,0-.6-2.51,2,2,0,0,0-1.77-1,2.19,2.19,0,0,0-1.2.32,2.46,2.46,0,0,0-.81.88v4.33a2.32,2.32,0,0,0,.81.86,2.2,2.2,0,0,0,1.21.31,2,2,0,0,0,1.76-.84,3.74,3.74,0,0,0,.6-2.2Z"/><path d="M375.43,176.9v4.83h-1.64V169.67h4.62a4.22,4.22,0,0,1,3,1,3.74,3.74,0,0,1,0,5.24,4.26,4.26,0,0,1-3,1Zm0-1.28h3a2.39,2.39,0,0,0,1.82-4,2.31,2.31,0,0,0-1.82-.67h-3Z"/><path d="M388.6,174.21l-.84-.05a1.84,1.84,0,0,0-1.09.31,1.9,1.9,0,0,0-.68.86v6.4h-1.63v-9h1.45l.16,1.31a3.15,3.15,0,0,1,.94-1.09,2.19,2.19,0,0,1,1.29-.39,2,2,0,0,1,.35,0,1.31,1.31,0,0,1,.27.07Z"/><path d="M389.75,177.17a5,5,0,0,1,1.07-3.28,4,4,0,0,1,5.87,0,4.91,4.91,0,0,1,1.08,3.28v.18a4.89,4.89,0,0,1-1.07,3.28,4,4,0,0,1-5.87,0,4.93,4.93,0,0,1-1.08-3.28Zm1.63.18a4.23,4.23,0,0,0,.6,2.35,2.17,2.17,0,0,0,3.56,0,4.23,4.23,0,0,0,.6-2.35v-.18a4.16,4.16,0,0,0-.61-2.34,2.15,2.15,0,0,0-3.55,0,4.24,4.24,0,0,0-.6,2.34Z"/><path d="M399.48,177.42a6,6,0,0,1,.92-3.49A3,3,0,0,1,403,172.6a3.13,3.13,0,0,1,1.5.35,3,3,0,0,1,1.09,1l.2-1.17h1.3v9a3.46,3.46,0,0,1-1,2.65,4.11,4.11,0,0,1-2.89.92,6.51,6.51,0,0,1-1.4-.17,5.67,5.67,0,0,1-1.32-.49l.25-1.27a4.33,4.33,0,0,0,1.14.4,5.4,5.4,0,0,0,1.31.16,2.38,2.38,0,0,0,1.73-.54,2.25,2.25,0,0,0,.55-1.66v-1a3.07,3.07,0,0,1-1.05.86,3.37,3.37,0,0,1-1.42.29,3.08,3.08,0,0,1-2.57-1.19,5,5,0,0,1-.92-3.13Zm1.63.17a3.79,3.79,0,0,0,.56,2.17,1.91,1.91,0,0,0,1.71.82,2.2,2.2,0,0,0,1.24-.33,2.65,2.65,0,0,0,.82-.95v-4.13a2.55,2.55,0,0,0-.82-.9,2.13,2.13,0,0,0-1.22-.34,1.85,1.85,0,0,0-1.73,1,5,5,0,0,0-.56,2.52Z"/><path d="M413.65,174.21l-.83-.05a1.82,1.82,0,0,0-1.09.31,1.92,1.92,0,0,0-.69.86v6.4h-1.63v-9h1.46l.16,1.31A3.05,3.05,0,0,1,412,173a2.19,2.19,0,0,1,1.29-.39,1.87,1.87,0,0,1,.34,0,1.42,1.42,0,0,1,.28.07Z"/><path d="M420.86,181.73c-.05-.27-.1-.51-.13-.71a4.46,4.46,0,0,1-.05-.63,3.87,3.87,0,0,1-1.19,1.08,3,3,0,0,1-1.58.44,2.92,2.92,0,0,1-2.13-.72,2.63,2.63,0,0,1-.73-2,2.29,2.29,0,0,1,1-2,4.79,4.79,0,0,1,2.82-.73h1.77v-.88a1.65,1.65,0,0,0-.48-1.25,1.88,1.88,0,0,0-1.36-.46,1.92,1.92,0,0,0-1.28.4,1.17,1.17,0,0,0-.49,1l-1.55,0,0,0a2.13,2.13,0,0,1,.92-1.79,3.79,3.79,0,0,1,2.51-.82,3.67,3.67,0,0,1,2.45.78,2.74,2.74,0,0,1,.93,2.23v4.32c0,.32,0,.63.05.93a4.34,4.34,0,0,0,.18.87Zm-2.71-1.19a2.85,2.85,0,0,0,1.6-.46,2.16,2.16,0,0,0,.93-1v-1.46h-1.83a2.37,2.37,0,0,0-1.58.5,1.47,1.47,0,0,0-.59,1.17,1.21,1.21,0,0,0,.37.94A1.58,1.58,0,0,0,418.15,180.54Z"/><path d="M426.14,172.77l.11,1.18a3,3,0,0,1,1.12-1,3.28,3.28,0,0,1,1.57-.36,2.74,2.74,0,0,1,1.53.42,2.55,2.55,0,0,1,1,1.24,3.35,3.35,0,0,1,1.12-1.21,2.9,2.9,0,0,1,1.62-.45,2.68,2.68,0,0,1,2.16,1,4.26,4.26,0,0,1,.8,2.82v5.36H435.5v-5.37a3,3,0,0,0-.45-1.88,1.65,1.65,0,0,0-1.36-.55,1.7,1.7,0,0,0-1.35.58,2.51,2.51,0,0,0-.61,1.47v5.75h-1.64v-5.37a3,3,0,0,0-.47-1.85,1.62,1.62,0,0,0-1.35-.58,2.19,2.19,0,0,0-1.22.31,2,2,0,0,0-.74.86v6.63h-1.63v-9Z"/><path d="M441,172.77l.12,1.18a2.93,2.93,0,0,1,1.11-1,3.31,3.31,0,0,1,1.57-.36,2.75,2.75,0,0,1,1.54.42,2.55,2.55,0,0,1,1,1.24,3.27,3.27,0,0,1,1.12-1.21,2.9,2.9,0,0,1,1.62-.45,2.68,2.68,0,0,1,2.16,1,4.26,4.26,0,0,1,.79,2.82v5.36h-1.63v-5.37a3,3,0,0,0-.45-1.88,1.67,1.67,0,0,0-1.36-.55,1.73,1.73,0,0,0-1.36.58,2.57,2.57,0,0,0-.6,1.47v5.75h-1.64v-5.37a3,3,0,0,0-.47-1.85,1.62,1.62,0,0,0-1.35-.58,2.17,2.17,0,0,0-1.22.31,1.89,1.89,0,0,0-.74.86v6.63h-1.63v-9Z"/><path d="M458,181.91a3.78,3.78,0,0,1-3-1.24,4.73,4.73,0,0,1-1.08-3.24v-.37a4.6,4.6,0,0,1,1.12-3.19,3.5,3.5,0,0,1,2.72-1.27,3.26,3.26,0,0,1,2.69,1.12,4.62,4.62,0,0,1,.9,3v.86h-5.73l0,0a3.68,3.68,0,0,0,.59,2.19,2.09,2.09,0,0,0,1.82.84,4.3,4.3,0,0,0,1.46-.23,3.37,3.37,0,0,0,1.07-.65l.64,1.06a4,4,0,0,1-1.27.78A5.1,5.1,0,0,1,458,181.91Zm-.25-8a1.8,1.8,0,0,0-1.42.66,3.11,3.11,0,0,0-.68,1.68l0,0h4v-.13a2.59,2.59,0,0,0-.48-1.61A1.72,1.72,0,0,0,457.79,173.89Z"/><rect class="cls-3" x="45.06" y="44.15" width="161.7" height="161.7" transform="translate(125.64 -52.42) rotate(45.12)"/><g class="cls-4"><path class="cls-5" d="M125.7,227.71,23.2,124.79,126.13,22.29,228.62,125.21ZM26.38,124.79l99.32,99.74,99.74-99.32L126.12,25.47Zm99.34,89.87-34.2-34.35,26.27-26.16L92.43,128.68l-18.08,18,11.89,11.94,5-4.93-7-7,8.17-8.14,15.51,15.57L86.59,175.36l-29.9-30L77.21,124.9,56.77,104.38l30-29.91L108,95.8,92.46,111.3l-8.14-8.17,7-7-4.93-4.94L74.45,103.1l18,18.08,25.47-25.36L91.75,69.55,126.1,35.34l34.2,34.35L134,95.85l25.36,25.47,18.07-18L165.58,91.38l-5,4.93,7,7-8.18,8.14L143.91,95.87l21.32-21.23,29.91,30L174.62,125.1l20.43,20.52-30,29.91L143.79,154.2l15.57-15.5,8.15,8.17-7,7,4.93,4.94,11.94-11.89-18-18.07-25.46,25.36,26.15,26.27Zm-31-34.34,31,31.17,31.17-31-26.16-26.27,28.65-28.53,21.16,21.25L165.43,162l-8.09-8.13,7-7-5-5L147,154.21,165,172.35l26.85-26.73-20.44-20.53L192,104.66,165.22,77.81,147.08,95.88l12.35,12.39,5-5-7-7,8.13-8.09,15,15.12-21.25,21.16L130.86,95.84l26.27-26.16-31-31.17-31.17,31,26.16,26.27L92.43,124.35,71.27,103.1,86.39,88l8.09,8.13-7,7,5,5,12.39-12.34L86.79,77.65,59.94,104.38l20.44,20.53L59.86,145.34,86.6,172.19l18.14-18.07L92.4,141.73l-5,5,7,7-8.12,8.09L71.18,146.67l21.25-21.16L121,154.16ZM200,140.7l-15.51-15.58,15.57-15.51,15.51,15.58Zm-12.34-15.57L200,137.52l12.4-12.34-12.34-12.39ZM51.76,140.39,36.25,124.81,51.82,109.3l15.51,15.58ZM39.42,124.82l12.35,12.39,12.39-12.34L51.82,112.48Z"/><path class="cls-5" d="M125.75,204.07l-24-24.1,24.1-24,24,24.1ZM104.92,180l20.83,20.92,20.92-20.83-20.83-20.92Z"/><path class="cls-5" d="M126,93.36l-24-24.1,24.1-24,24,24.1ZM105.15,69.27,126,90.19,146.9,69.35,126.07,48.44Z"/></g><path class="cls-5" d="M105.83,173.21c-1.39-1.08-1.49-1.54-.87-3.29q1.82-5.08,3.56-10.2a2.91,2.91,0,0,0-1-3.39,32.43,32.43,0,0,1-10-19c0-.21-.08-.43-.13-.64l-.09-.34a15.51,15.51,0,0,1-1.61-.25A3.86,3.86,0,0,1,92.87,132c0-3.33,0-6.66,0-10a3.64,3.64,0,0,0-1.76-3.4,16.36,16.36,0,0,1-7-9,16.11,16.11,0,1,1,31.05-8.51c.06.21.12.42.2.73.27-.1.53-.18.77-.29a32.66,32.66,0,0,1,16.6-3.31,34,34,0,0,1,15.8,5.29,30,30,0,0,1,10.74,10.72A17.52,17.52,0,0,1,160.91,129,3.18,3.18,0,0,0,161,131c.9,2.23,1.92,4.42,2.91,6.62,1.49,3.34,1.15,4.57-1.83,6.69a1.69,1.69,0,0,1-.31.21c-2,.85-2.32,2.47-2.2,4.44a66.64,66.64,0,0,1,.12,7.61,8.47,8.47,0,0,1-8.5,8.13c-4,0-8-.16-12-.32-.84,0-1.29.21-1.49,1-.36,1.46-.77,2.91-1.12,4.37a4.88,4.88,0,0,1-2.48,3.44Zm-4.65-36.91a29.68,29.68,0,0,0,9.68,18,4.49,4.49,0,0,1,1.63,3.54,20,20,0,0,1-1.46,6.67c-.57,1.62-1.21,3.21-1.83,4.88h23.53l.25-.94c.49-1.68.86-3.41,1.5-5a4.05,4.05,0,0,1,4.41-2.81c.53,0,1.07,0,1.6.06,3.45.1,6.9.23,10.35.28a5.06,5.06,0,0,0,4.24-2,6,6,0,0,0,1-3.94c0-3-.07-6-.12-8.93a3.55,3.55,0,0,1,1.46-2.92c1-.76,2-1.49,3-2.18a.89.89,0,0,0,.35-1.31q-1.69-3.78-3.3-7.58a5.26,5.26,0,0,1-.19-4c1.63-4.39.86-8.52-1.52-12.41A27.58,27.58,0,0,0,145,105.87c-9-4.92-18.14-5.21-27.43-.8a3.5,3.5,0,0,0-2.3,2.89,14.63,14.63,0,0,1-6.82,10.26,4.68,4.68,0,0,0-2.37,4.53c.11,3.19,0,6.4,0,9.6a3.74,3.74,0,0,1-3.57,3.88C102.08,136.27,101.67,136.27,101.18,136.3Zm-1.73-16.88c.85,0,1.7,0,2.54,0,.27,0,.7-.16.76-.35.67-2,2.3-3,3.81-4.15a14.09,14.09,0,0,0,3-3,11.68,11.68,0,0,0,.89-12.56,11.89,11.89,0,0,0-10.54-6.78c-9-.49-15.53,9.18-11.74,17.35a13,13,0,0,0,4.35,5.2c1,.74,2.31,1.49,2.8,2.55.82,1.77,2,2,3.63,1.8C99.13,119.41,99.29,119.43,99.45,119.42Zm2.79,3.87H96.71v2.61h5.53Zm0,6.48H96.71v2.64h5.54Z"/><path class="cls-5" d="M110.28,88.68c-1.62,0-2.63-1.27-2.06-2.44a54.11,54.11,0,0,1,3-5.27,1.81,1.81,0,0,1,3.06,1.86q-1.39,2.65-3,5.19C111.09,88.4,110.48,88.56,110.28,88.68Z"/><path class="cls-5" d="M122.09,89.94a1.83,1.83,0,0,1,1.84,1.15,1.54,1.54,0,0,1-.45,2c-1.76,1.12-3.58,2.18-5.43,3.14a1.67,1.67,0,0,1-2.11-.93,1.87,1.87,0,0,1,.78-2.51c1.47-.9,3-1.74,4.47-2.58A3.91,3.91,0,0,1,122.09,89.94Z"/><path class="cls-5" d="M88.82,88.87a6.21,6.21,0,0,1-1.43-1.18c-.93-1.44-1.77-3-2.59-4.46A1.87,1.87,0,1,1,88,81.36c.89,1.47,1.77,3,2.57,4.47A2,2,0,0,1,88.82,88.87Z"/><path class="cls-5" d="M74.71,91.9c.2-1.38,1.45-2.38,2.58-1.83a54.17,54.17,0,0,1,5.28,3,1.72,1.72,0,0,1,.35,2.43,1.77,1.77,0,0,1-2.31.63c-1.65-.89-3.28-1.81-4.86-2.83C75.29,93,75.05,92.39,74.71,91.9Z"/><path class="cls-5" d="M101.34,81.27c0,.91,0,1.82,0,2.73a1.8,1.8,0,0,1-1.73,1.87,1.69,1.69,0,0,1-1.93-1.63c-.09-1.94-.08-3.89,0-5.82a1.77,1.77,0,0,1,1.87-1.63,1.87,1.87,0,0,1,1.78,1.85c0,.87,0,1.75,0,2.63Z"/><path class="cls-5" d="M74.71,117.83A6.87,6.87,0,0,1,76,116.37c1.39-.91,2.84-1.71,4.29-2.51a1.89,1.89,0,1,1,1.86,3.26c-1.45.87-2.9,1.73-4.39,2.53A2,2,0,0,1,74.71,117.83Z"/><path class="cls-5" d="M75.89,106.78c-.91,0-1.82,0-2.73,0a1.83,1.83,0,0,1-1.8-1.81,1.76,1.76,0,0,1,1.74-1.85c1.87-.08,3.76-.08,5.63,0a1.72,1.72,0,0,1,1.7,1.88,1.76,1.76,0,0,1-1.72,1.77c-.94.06-1.88,0-2.82,0Z"/><path class="cls-5" d="M84.52,127.35a17.49,17.49,0,0,1,3.18-5.2,1.51,1.51,0,0,1,2,0,1.56,1.56,0,0,1,.69,2c-.83,1.64-1.74,3.25-2.73,4.8a1.58,1.58,0,0,1-2,.46A1.9,1.9,0,0,1,84.52,127.35Z"/><path class="cls-5" d="M130.05,105.64a27.61,27.61,0,0,1,15.21,4.68,1.93,1.93,0,0,1,.78,2.81,1.9,1.9,0,0,1-2.82.34,22.49,22.49,0,0,0-12-4,52.28,52.28,0,0,0-6.33.67c-.31,0-.61.15-.92.19a1.84,1.84,0,0,1-.82-3.59c1.58-.4,3.18-.7,4.78-1A16.89,16.89,0,0,1,130.05,105.64Z"/><path class="cls-5" d="M148.05,113.1a1.88,1.88,0,0,1,.07,3.76,2,2,0,0,1-1.93-1.92A1.88,1.88,0,0,1,148.05,113.1Z"/><path class="cls-5" d="M109,105.1c-.23.76-.58,2.19-1.1,3.54a1.81,1.81,0,0,1-2.5,1.15c-1-.44-1.28-1.46-.91-2.69a14.92,14.92,0,0,0,.58-3.44,3,3,0,0,0-1.54-2.54c-.25-.18-.53-.34-.77-.53a1.86,1.86,0,0,1-.48-2.51,1.84,1.84,0,0,1,2.48-.59C107.55,99,108.93,101.29,109,105.1Z"/><g class="cls-6"><path class="cls-7" d="M-154.54,20.9l54.42-54.41h0L108.59-242.22l-208.71-208.7h0l-54.42-54.42L-417.66-242.22ZM-347.4-278.53l36.31,36.31L-347.4-205.9l-36.31-36.32ZM38.33-205.9,2-242.22l36.31-36.31,36.31,36.31ZM-117.09-50.48h0L-154.54-13-239.6-98.11l68.21-68.21-70.26-70.26-51,51.06,35.13,35.13,17-17-18.16-18.15,17.11-17.11,36.31,36.31-51.24,51.24-73.84-73.85,53.28-53.29-53.28-53.28,73.84-73.85,51.24,51.24-36.31,36.31-17.11-17.11,18.16-18.16-17-17-35.13,35.13,51,51.06,70.26-70.26-68.21-68.21L-192-433.95h0l37.44-37.44,37.45,37.44h0l47.62,47.63-68.21,68.21,70.26,70.26,51.05-51.06L-51.49-334l-17,17,18.16,18.16L-67.42-281.8l-36.31-36.31,51.24-51.24L21.36-295.5l-53.29,53.28,53.29,53.29-73.85,73.85-51.24-51.24,36.31-36.31,17.11,17.11-18.16,18.15,17,17,35.12-35.13-51-51.06-70.26,70.26,68.21,68.21Z"/></g></svg>