<svg id="Layer_1" data-name="Layer 1" xmlns="http://www.w3.org/2000/svg" xmlns:xlink="http://www.w3.org/1999/xlink" viewBox="0 0 654 250"><defs><style>.cls-1,.cls-5,.cls-6{fill:none;}.cls-2{clip-path:url(#clip-path);}.cls-3{opacity:0.3;}.cls-4{opacity:0.4;}.cls-5{stroke:#2680d5;stroke-width:1.62px;}.cls-5,.cls-6{stroke-miterlimit:10;}.cls-6{stroke:#1e3769;stroke-width:2.61px;}.cls-7{fill:#1e3769;}.cls-8{opacity:0.15;}.cls-9{fill:#fff;}</style><clipPath id="clip-path"><rect class="cls-1" x="-2075.28" y="419.86" width="1920" height="5958.68"/></clipPath></defs><g class="cls-2"><g class="cls-3"><g class="cls-4"><path class="cls-5" d="M-156.93,998.89l88.28-88.27h0L269.93,572-68.65,233.46h0l-88.28-88.28L-583.79,572ZM-469.81,513.13-410.9,572-469.81,631-528.71,572ZM156,631,97,572,156,513.13,214.86,572ZM-96.19,883.08h0l-60.74,60.74-138-138,110.66-110.66-114-114L-381.07,664l57,57,27.54-27.53L-326,664l27.76-27.76,58.9,58.91-83.12,83.13-119.8-119.81L-355.83,572l-86.44-86.44,119.8-119.81,83.12,83.12-58.9,58.91L-326,480.06l29.46-29.45-27.54-27.53-57,57,82.82,82.83,114-114L-294.93,338.26-217.67,261h0l60.74-60.74L-96.19,261h0l77.26,77.27L-129.58,448.91l114,114,82.82-82.83-57-57L-17.3,450.61l29.45,29.45L-15.6,507.82l-58.91-58.91L8.61,365.79,128.42,485.6,42,572l86.45,86.44L8.61,778.28l-83.12-83.12,58.91-58.91L12.15,664-17.3,693.46,10.23,721l57-57L-15.6,581.18l-114,114L-18.92,805.82Z"/></g></g></g><polygon class="cls-6" points="12.15 125 126.14 238.98 528.45 238.98 642.43 125 528.45 11.02 126.14 11.02 12.15 125"/><path class="cls-7" d="M373.56,96.83h-4.1V94.42h11.15v2.41h-4.09V107.2h-3Z"/><path class="cls-7" d="M390.35,107.2l-2.47-3.56h-2.72v3.56h-3V94.42h5.53a7,7,0,0,1,2.95.56,4.25,4.25,0,0,1,2.61,4.08,4.18,4.18,0,0,1-2.63,4l2.86,4.11Zm-.75-9.8a3.15,3.15,0,0,0-2-.57h-2.41v4.45h2.41a3.09,3.09,0,0,0,2-.58,2.32,2.32,0,0,0,0-3.3Z"/><path class="cls-7" d="M404.05,104.46h-5.94L397,107.2h-3l5.7-12.78h2.93l5.72,12.78h-3.11Zm-.93-2.24-2-4.9-2,4.9Z"/><path class="cls-7" d="M409.62,94.42h3V107.2h-3Z"/><path class="cls-7" d="M427.34,94.42V107.2h-2.43l-6.37-7.76v7.76h-2.93V94.42h2.45l6.36,7.76V94.42Z"/><path class="cls-7" d="M440.28,104.83v2.37h-9.91V94.42H440v2.37h-6.73v2.78h5.94v2.3h-5.94v3Z"/><path class="cls-7" d="M452.53,104.83v2.37h-9.9V94.42h9.67v2.37h-6.73v2.78h5.94v2.3h-5.94v3Z"/><path class="cls-7" d="M456.16,107a6.76,6.76,0,0,1-2.27-1.07l1-2.23a6.53,6.53,0,0,0,2,1,7.13,7.13,0,0,0,2.26.37,3.59,3.59,0,0,0,1.86-.38,1.12,1.12,0,0,0,.61-1,.94.94,0,0,0-.36-.76,2.7,2.7,0,0,0-.91-.48c-.37-.13-.88-.26-1.51-.41a21,21,0,0,1-2.39-.69,3.86,3.86,0,0,1-1.6-1.11,3,3,0,0,1-.67-2,3.58,3.58,0,0,1,.6-2,4.1,4.1,0,0,1,1.82-1.43,7.31,7.31,0,0,1,3-.53,9.54,9.54,0,0,1,2.39.29,6.78,6.78,0,0,1,2.05.84l-.91,2.25a7.16,7.16,0,0,0-3.55-1,3.35,3.35,0,0,0-1.83.4,1.23,1.23,0,0,0-.6,1.06,1,1,0,0,0,.69,1,11,11,0,0,0,2.09.63,21,21,0,0,1,2.39.69,4,4,0,0,1,1.6,1.1,2.93,2.93,0,0,1,.67,2,3.54,3.54,0,0,1-.61,2,4.1,4.1,0,0,1-1.84,1.43,7.39,7.39,0,0,1-3,.53A10.22,10.22,0,0,1,456.16,107Z"/><path class="cls-7" d="M373.52,58.4A9.69,9.69,0,0,1,377,66.23,10.93,10.93,0,0,1,375.43,72a11.06,11.06,0,0,1-4.84,4.17,18.39,18.39,0,0,1-8,1.56,27.06,27.06,0,0,1-7.21-1,18.52,18.52,0,0,1-6-2.75l3.18-6.15a15.29,15.29,0,0,0,4.56,2.31,17.62,17.62,0,0,0,5.31.81,8.28,8.28,0,0,0,4.76-1.19,3.81,3.81,0,0,0,1.73-3.32,3.72,3.72,0,0,0-1.81-3.37Q365.26,62,360.8,62h-8.88l1.79-19.54h21.17v6.45H360.4l-.54,6.59h2.82Q370,55.47,373.52,58.4Z"/><path class="cls-7" d="M388.32,69.23a4.64,4.64,0,0,1,1.34,3.45,7.9,7.9,0,0,1-.25,2,22.77,22.77,0,0,1-1.09,3l-2.83,7.14h-4.91l2.19-7.88a4,4,0,0,1-2-1.62,4.68,4.68,0,0,1-.72-2.6,4.58,4.58,0,0,1,1.36-3.45,4.8,4.8,0,0,1,3.45-1.31A4.69,4.69,0,0,1,388.32,69.23Z"/><path class="cls-7" d="M419.66,42.43v5.21l-12.89,29.5H398L410.49,49H399v5.65h-7.14V42.43Z"/><path class="cls-7" d="M429.43,75.61a14.25,14.25,0,0,1-5.28-6.18,22.28,22.28,0,0,1-1.91-9.64,22.33,22.33,0,0,1,1.91-9.65A14.28,14.28,0,0,1,429.43,44a14.93,14.93,0,0,1,15.37,0,14.28,14.28,0,0,1,5.28,6.17A22.48,22.48,0,0,1,452,59.79a22.43,22.43,0,0,1-1.91,9.64,14.25,14.25,0,0,1-5.28,6.18,14.93,14.93,0,0,1-15.37,0Zm12.67-7.39c1.2-1.82,1.81-4.63,1.81-8.43s-.61-6.61-1.81-8.43a5.87,5.87,0,0,0-9.92,0q-1.81,2.73-1.81,8.43t1.81,8.43a5.87,5.87,0,0,0,9.92,0Z"/><path class="cls-7" d="M479.51,46.27q4.13,4.44,4.12,12.77a21.57,21.57,0,0,1-2.21,10.12,15,15,0,0,1-6.22,6.4,19.18,19.18,0,0,1-9.27,2.18,22.39,22.39,0,0,1-5.31-.62,14.31,14.31,0,0,1-4.32-1.76l3-5.9a11.31,11.31,0,0,0,6.5,1.73,9.38,9.38,0,0,0,7-2.6c1.72-1.74,2.64-4.24,2.78-7.51-2.09,2.08-5,3.12-8.63,3.12a13.54,13.54,0,0,1-6.05-1.34,10.54,10.54,0,0,1-4.32-3.79A10.22,10.22,0,0,1,455,53.39a10.79,10.79,0,0,1,1.73-6.1,11.35,11.35,0,0,1,4.74-4,15.48,15.48,0,0,1,6.67-1.41Q475.4,41.84,479.51,46.27ZM473,56.74a5.08,5.08,0,0,0,.05-7.47,6.46,6.46,0,0,0-4.44-1.43,6.18,6.18,0,0,0-4.19,1.39A4.71,4.71,0,0,0,462.8,53a4.81,4.81,0,0,0,1.61,3.8,7.13,7.13,0,0,0,8.58,0Z"/><path d="M306.85,136.12a11.17,11.17,0,0,1,1.31-5.57,7.59,7.59,0,0,1,2.77-3.08H311l.32,1a7,7,0,0,0-2,2.84,12.23,12.23,0,0,0-.84,4.83v.1a12.23,12.23,0,0,0,.84,4.83,7.48,7.48,0,0,0,2,2.92l-.32.89h-.05a7.62,7.62,0,0,1-2.77-3.07,11.18,11.18,0,0,1-1.31-5.58Z"/><path d="M312.83,135.66l.69-6.7h6v1.45H314.9l-.39,3.47a4.23,4.23,0,0,1,.86-.48,3,3,0,0,1,1.08-.19,3.29,3.29,0,0,1,2.62,1,4.89,4.89,0,0,1,0,5.83,3.54,3.54,0,0,1-2.83,1.1,3.91,3.91,0,0,1-2.55-.83,2.89,2.89,0,0,1-1-2.46l0-.05h1.47a1.93,1.93,0,0,0,2,2.07,1.93,1.93,0,0,0,1.6-.73,3.11,3.11,0,0,0,.58-2,2.87,2.87,0,0,0-.58-1.86,1.93,1.93,0,0,0-1.6-.71,2.48,2.48,0,0,0-1.39.29,1.68,1.68,0,0,0-.64.89Z"/><path d="M329.73,130.24a18.07,18.07,0,0,0-3.09,4.8,12.94,12.94,0,0,0-.8,4.66V141h-1.63V139.7a11.51,11.51,0,0,1,1-4.92,21.5,21.5,0,0,1,2.91-4.54h-6.4V129h8Z"/><path d="M331.34,131.28a2.54,2.54,0,0,1,.68-1.78,2.65,2.65,0,0,1,3.63,0,2.5,2.5,0,0,1,.68,1.78v.64a2.47,2.47,0,0,1-.68,1.76,2.38,2.38,0,0,1-1.8.71,2.38,2.38,0,0,1-2.51-2.47Zm1.21.64a1.58,1.58,0,0,0,.34,1,1.27,1.27,0,0,0,1.9,0,1.64,1.64,0,0,0,.33-1v-.64a1.63,1.63,0,0,0-.34-1.05,1.25,1.25,0,0,0-1.9,0,1.69,1.69,0,0,0-.33,1.05Zm1.72,8.19-.9-.56,5.89-9.42.9.55Zm2.91-2.05a2.49,2.49,0,0,1,.68-1.77,2.66,2.66,0,0,1,3.62,0,2.46,2.46,0,0,1,.69,1.77v.65a2.48,2.48,0,0,1-.68,1.77,2.34,2.34,0,0,1-1.8.71,2.41,2.41,0,0,1-1.83-.71,2.48,2.48,0,0,1-.68-1.77Zm1.21.65a1.63,1.63,0,0,0,.34,1,1.15,1.15,0,0,0,1,.42,1.13,1.13,0,0,0,.94-.42,1.69,1.69,0,0,0,.33-1v-.65a1.64,1.64,0,0,0-.34-1,1.13,1.13,0,0,0-.95-.43,1.11,1.11,0,0,0-.94.43,1.59,1.59,0,0,0-.34,1Z"/><path d="M350.58,137.75l.21,1.16h0l.22-1.16,1.78-5.69h1.31l1.8,5.69.23,1.29h.05l.27-1.29,1.32-5.69h1.71l-2.6,9h-1.32l-1.77-5.46-.34-1.42h-.05l-.32,1.42L351.4,141h-1.32l-2.6-9h1.7Z"/><path d="M360.75,136.45a5,5,0,0,1,1.07-3.27,4,4,0,0,1,5.87,0,4.93,4.93,0,0,1,1.08,3.28v.19a4.91,4.91,0,0,1-1.07,3.28,4,4,0,0,1-5.87,0,4.88,4.88,0,0,1-1.08-3.27Zm1.63.19A4.25,4.25,0,0,0,363,139a2.17,2.17,0,0,0,3.56,0,4.25,4.25,0,0,0,.6-2.35v-.19a4.18,4.18,0,0,0-.61-2.34,2.15,2.15,0,0,0-3.55,0,4.26,4.26,0,0,0-.6,2.34Z"/><path d="M372.23,132.06l.11,1.17a3.22,3.22,0,0,1,1.12-1,3.4,3.4,0,0,1,1.57-.35,2.8,2.8,0,0,1,1.53.41,2.58,2.58,0,0,1,1,1.25,3.39,3.39,0,0,1,1.12-1.22,3,3,0,0,1,1.62-.44,2.67,2.67,0,0,1,2.16.94,4.3,4.3,0,0,1,.8,2.83V141H381.6v-5.38a3,3,0,0,0-.46-1.87,1.65,1.65,0,0,0-1.36-.55,1.7,1.7,0,0,0-1.35.58,2.46,2.46,0,0,0-.61,1.46V141h-1.64v-5.38a2.94,2.94,0,0,0-.47-1.84,1.61,1.61,0,0,0-1.34-.58,2.29,2.29,0,0,0-1.23.3,2,2,0,0,0-.74.86V141h-1.63v-9Z"/><path d="M389.31,141.19a3.79,3.79,0,0,1-3-1.23,4.76,4.76,0,0,1-1.08-3.25v-.36a4.69,4.69,0,0,1,1.11-3.2,3.49,3.49,0,0,1,2.72-1.26,3.25,3.25,0,0,1,2.7,1.12,4.59,4.59,0,0,1,.9,3v.86h-5.74l0,0a3.68,3.68,0,0,0,.6,2.19,2.07,2.07,0,0,0,1.82.84,4,4,0,0,0,1.45-.24,3.1,3.1,0,0,0,1.07-.65l.64,1.06a3.87,3.87,0,0,1-1.26.78A4.94,4.94,0,0,1,389.31,141.19Zm-.26-8a1.76,1.76,0,0,0-1.41.66,3.11,3.11,0,0,0-.68,1.69v0h4v-.13a2.64,2.64,0,0,0-.49-1.62A1.74,1.74,0,0,0,389.05,133.17Z"/><path d="M395.94,132.06l.11,1.33a3.3,3.3,0,0,1,1.12-1.11,3,3,0,0,1,1.54-.39,2.93,2.93,0,0,1,2.25.85,3.73,3.73,0,0,1,.79,2.62V141h-1.63v-5.63a2.43,2.43,0,0,0-.47-1.68,1.88,1.88,0,0,0-1.43-.49,2.55,2.55,0,0,0-1.28.3,2.12,2.12,0,0,0-.83.85V141h-1.63v-9Z"/><path d="M413.84,141q-.07-.41-.12-.72a6.2,6.2,0,0,1-.06-.62,3.76,3.76,0,0,1-1.19,1.08,3.36,3.36,0,0,1-3.71-.28,2.64,2.64,0,0,1-.73-2,2.33,2.33,0,0,1,1-2,4.87,4.87,0,0,1,2.82-.72h1.77v-.89a1.66,1.66,0,0,0-.48-1.25,1.91,1.91,0,0,0-1.36-.46,2,2,0,0,0-1.28.4,1.18,1.18,0,0,0-.49,1l-1.55,0v0a2.13,2.13,0,0,1,.91-1.79,3.8,3.8,0,0,1,2.51-.81,3.75,3.75,0,0,1,2.46.77,2.79,2.79,0,0,1,.92,2.24v4.31c0,.32,0,.63,0,.93a5.31,5.31,0,0,0,.19.88Zm-2.7-1.19a2.9,2.9,0,0,0,1.59-.46,2.11,2.11,0,0,0,.93-1v-1.46h-1.83a2.34,2.34,0,0,0-1.58.5,1.49,1.49,0,0,0-.59,1.16,1.26,1.26,0,0,0,.37.95A1.59,1.59,0,0,0,411.14,139.83Z"/><path d="M419.12,132.06l.12,1.33a3.21,3.21,0,0,1,1.12-1.11,3,3,0,0,1,1.54-.39,2.91,2.91,0,0,1,2.24.85,3.73,3.73,0,0,1,.8,2.62V141H423.3v-5.63a2.43,2.43,0,0,0-.46-1.68,1.89,1.89,0,0,0-1.43-.49,2.53,2.53,0,0,0-1.28.3,2.21,2.21,0,0,0-.84.85V141h-1.63v-9Z"/><path d="M426.93,136.7a5.92,5.92,0,0,1,.93-3.48,2.94,2.94,0,0,1,2.58-1.33,3.27,3.27,0,0,1,1.4.29,2.83,2.83,0,0,1,1,.85V128.1h1.63V141h-1.25l-.25-1.14a2.89,2.89,0,0,1-1.08,1,3.25,3.25,0,0,1-1.5.33,3.05,3.05,0,0,1-2.57-1.19,4.91,4.91,0,0,1-.93-3.12Zm1.63.18a3.79,3.79,0,0,0,.56,2.17,1.92,1.92,0,0,0,1.72.82,2.17,2.17,0,0,0,1.23-.33,2.47,2.47,0,0,0,.81-.93v-4.18a2.51,2.51,0,0,0-.82-.89,2.11,2.11,0,0,0-1.2-.32,1.88,1.88,0,0,0-1.74,1,5.06,5.06,0,0,0-.56,2.52Z"/><path d="M448.71,141h-7.49V139.9l3.79-4.51a11.81,11.81,0,0,0,1.37-1.95,3.32,3.32,0,0,0,.36-1.47,2,2,0,0,0-.49-1.37,1.77,1.77,0,0,0-1.35-.53,2,2,0,0,0-1.63.65,2.44,2.44,0,0,0-.56,1.63h-1.57l0,0a3.22,3.22,0,0,1,1-2.49,3.78,3.78,0,0,1,2.79-1,3.49,3.49,0,0,1,2.54.9,3.07,3.07,0,0,1,.93,2.31,3.68,3.68,0,0,1-.53,1.86,20.39,20.39,0,0,1-1.6,2.29l-3,3.56,0,0h5.49Z"/><path d="M458.33,130.24a17.75,17.75,0,0,0-3.08,4.8,12.73,12.73,0,0,0-.81,4.66V141h-1.63V139.7a11.66,11.66,0,0,1,1-4.92,21.5,21.5,0,0,1,2.91-4.54h-6.4V129h8Z"/><path d="M459.94,131.28a2.54,2.54,0,0,1,.68-1.78,2.65,2.65,0,0,1,3.63,0,2.5,2.5,0,0,1,.68,1.78v.64a2.47,2.47,0,0,1-.68,1.76,2.38,2.38,0,0,1-1.8.71,2.41,2.41,0,0,1-1.82-.71,2.44,2.44,0,0,1-.69-1.76Zm1.21.64a1.58,1.58,0,0,0,.34,1,1.27,1.27,0,0,0,1.9,0,1.64,1.64,0,0,0,.33-1v-.64a1.63,1.63,0,0,0-.34-1.05,1.12,1.12,0,0,0-.94-.44,1.13,1.13,0,0,0-1,.44,1.69,1.69,0,0,0-.33,1.05Zm1.72,8.19-.9-.56,5.89-9.42.9.55Zm2.91-2.05a2.49,2.49,0,0,1,.68-1.77,2.66,2.66,0,0,1,3.62,0,2.46,2.46,0,0,1,.69,1.77v.65a2.48,2.48,0,0,1-.68,1.77,2.34,2.34,0,0,1-1.8.71,2.41,2.41,0,0,1-1.83-.71,2.48,2.48,0,0,1-.68-1.77Zm1.21.65a1.63,1.63,0,0,0,.34,1,1.15,1.15,0,0,0,1,.42,1.13,1.13,0,0,0,.94-.42,1.69,1.69,0,0,0,.33-1v-.65a1.59,1.59,0,0,0-.34-1,1.13,1.13,0,0,0-1-.43,1.11,1.11,0,0,0-.94.43,1.59,1.59,0,0,0-.34,1Z"/><path d="M479.63,137.7l.29,1.12H480l2.2-6.76H484l-3.77,10.33a4.71,4.71,0,0,1-1,1.58,2.25,2.25,0,0,1-1.71.67,3.62,3.62,0,0,1-.51,0l-.47-.08.16-1.29.3,0,.43,0a1,1,0,0,0,.86-.46,4.81,4.81,0,0,0,.55-1l.39-.93-3.33-8.78h1.82Z"/><path d="M484.92,136.45a5,5,0,0,1,1.07-3.27,4,4,0,0,1,5.87,0,4.93,4.93,0,0,1,1.08,3.28v.19a5,5,0,0,1-1.07,3.28,4,4,0,0,1-5.87,0,4.88,4.88,0,0,1-1.08-3.27Zm1.63.19a4.25,4.25,0,0,0,.6,2.35,2,2,0,0,0,1.78.93,2,2,0,0,0,1.78-.93,4.25,4.25,0,0,0,.6-2.35v-.19a4.18,4.18,0,0,0-.61-2.34,2.15,2.15,0,0,0-3.55,0,4.26,4.26,0,0,0-.6,2.34Z"/><path d="M500.63,139.69a2.91,2.91,0,0,1-2.62,1.5,2.86,2.86,0,0,1-2.28-.93,4.35,4.35,0,0,1-.82-2.92v-5.28h1.63v5.3a3.36,3.36,0,0,0,.42,2,1.57,1.57,0,0,0,1.32.54,2.68,2.68,0,0,0,1.43-.35,2.21,2.21,0,0,0,.86-1v-6.46h1.63v9h-1.46Z"/><path d="M506.85,129.89v2.17h1.7v1.21h-1.7v5.44a1.22,1.22,0,0,0,.26.88.93.93,0,0,0,.69.26,1.27,1.27,0,0,0,.32,0,1.71,1.71,0,0,0,.29-.08l.22,1.12a1.51,1.51,0,0,1-.54.25,2.8,2.8,0,0,1-.7.09,2.11,2.11,0,0,1-1.58-.6,2.57,2.57,0,0,1-.59-1.88v-5.44h-1.43v-1.21h1.43v-2.17Z"/><path d="M511.93,133.26a3.33,3.33,0,0,1,1.14-1,3.13,3.13,0,0,1,1.49-.36,2.89,2.89,0,0,1,2.23.86,3.77,3.77,0,0,1,.8,2.65V141H516v-5.63a2.43,2.43,0,0,0-.47-1.64,1.81,1.81,0,0,0-1.42-.53,2.67,2.67,0,0,0-1.27.28,2.31,2.31,0,0,0-.87.8V141H510.3V128.1h1.63Z"/><path d="M523.25,136.2a11.08,11.08,0,0,1-1.32,5.58,7.68,7.68,0,0,1-2.76,3.07h0l-.32-.89a6.94,6.94,0,0,0,2-2.86,12.42,12.42,0,0,0,.85-4.89v-.1a12.14,12.14,0,0,0-.87-4.84,8,8,0,0,0-2-2.91l.32-.89h0a7.65,7.65,0,0,1,2.76,3.08,11.06,11.06,0,0,1,1.32,5.57Z"/><path d="M293.93,157.23a5,5,0,0,1-.92,3.13,3.09,3.09,0,0,1-2.56,1.19,3.49,3.49,0,0,1-1.46-.28,2.74,2.74,0,0,1-1.06-.83v4.38H286.3V152.41h1.25l.25,1.16a2.94,2.94,0,0,1,1.1-1,3.19,3.19,0,0,1,1.52-.34,3,3,0,0,1,2.59,1.32,5.93,5.93,0,0,1,.92,3.49Zm-1.63-.17a4.76,4.76,0,0,0-.6-2.51,2,2,0,0,0-1.77-1,2.19,2.19,0,0,0-1.2.32,2.35,2.35,0,0,0-.8.88v4.33a2.15,2.15,0,0,0,2,1.17,2,2,0,0,0,1.76-.84,3.81,3.81,0,0,0,.59-2.2Z"/><path d="M301.45,161.38c-.06-.27-.1-.51-.13-.72s-.05-.42-.06-.63a3.72,3.72,0,0,1-1.18,1.08,3.06,3.06,0,0,1-1.58.44,2.89,2.89,0,0,1-2.13-.72,2.61,2.61,0,0,1-.74-2,2.32,2.32,0,0,1,1-2,4.86,4.86,0,0,1,2.82-.73h1.77v-.88a1.65,1.65,0,0,0-.48-1.25,1.86,1.86,0,0,0-1.35-.46,2,2,0,0,0-1.29.4,1.2,1.2,0,0,0-.49.95l-1.55,0v-.05a2.13,2.13,0,0,1,.91-1.79,3.81,3.81,0,0,1,2.52-.81A3.74,3.74,0,0,1,302,153a2.74,2.74,0,0,1,.93,2.23v4.32a7.06,7.06,0,0,0,.05.93,4.44,4.44,0,0,0,.18.88Zm-2.71-1.2a3,3,0,0,0,1.6-.45,2.16,2.16,0,0,0,.92-1v-1.45h-1.83a2.36,2.36,0,0,0-1.57.49,1.48,1.48,0,0,0-.6,1.17,1.25,1.25,0,0,0,.38,1A1.56,1.56,0,0,0,298.74,160.18Z"/><path d="M309.51,153.85l-.84,0a1.92,1.92,0,0,0-1.09.31,2,2,0,0,0-.68.86v6.41h-1.63v-9h1.45l.16,1.31a3.12,3.12,0,0,1,.94-1.08,2.19,2.19,0,0,1,1.29-.39,2,2,0,0,1,.35,0l.27.06Z"/><path d="M313.61,150.25v2.16h1.7v1.21h-1.7v5.44a1.2,1.2,0,0,0,.27.89.94.94,0,0,0,.69.26,1.2,1.2,0,0,0,.31,0,1.48,1.48,0,0,0,.29-.08l.23,1.12a1.51,1.51,0,0,1-.54.24,2.48,2.48,0,0,1-.71.1,2.11,2.11,0,0,1-1.58-.6,2.63,2.63,0,0,1-.59-1.89v-5.44h-1.42v-1.21H312v-2.16Z"/><path d="M318.82,150.12h-1.63v-1.67h1.63Zm0,11.26h-1.63v-9h1.63Z"/><path d="M324.9,160.27a1.87,1.87,0,0,0,1.31-.5,1.56,1.56,0,0,0,.57-1.23h1.47l0,.05a2.57,2.57,0,0,1-1,2.06,3.5,3.5,0,0,1-2.38.9,3.55,3.55,0,0,1-2.92-1.28,5,5,0,0,1-1-3.2v-.35a4.9,4.9,0,0,1,1-3.18,3.49,3.49,0,0,1,2.91-1.29,3.35,3.35,0,0,1,2.45.93,2.92,2.92,0,0,1,.93,2.27l0,.05h-1.48a2,2,0,0,0-.54-1.39,1.72,1.72,0,0,0-1.34-.58,1.9,1.9,0,0,0-1.76.93,4.45,4.45,0,0,0-.55,2.26v.35a4.38,4.38,0,0,0,.55,2.28A1.87,1.87,0,0,0,324.9,160.27Z"/><path d="M332,150.12h-1.63v-1.67H332Zm0,11.26h-1.63v-9H332Z"/><path d="M342.13,157.23a4.92,4.92,0,0,1-.93,3.13,3.07,3.07,0,0,1-2.56,1.19,3.44,3.44,0,0,1-1.45-.28,2.7,2.7,0,0,1-1.07-.83v4.38h-1.63V152.41h1.25l.26,1.16a2.84,2.84,0,0,1,1.09-1,3.21,3.21,0,0,1,1.52-.34,3,3,0,0,1,2.59,1.32,5.93,5.93,0,0,1,.93,3.49Zm-1.64-.17a4.76,4.76,0,0,0-.6-2.51,2,2,0,0,0-1.76-1,2.25,2.25,0,0,0-1.21.32,2.44,2.44,0,0,0-.8.88v4.33a2.29,2.29,0,0,0,.8.86,2.26,2.26,0,0,0,1.22.31,2,2,0,0,0,1.76-.84,3.74,3.74,0,0,0,.59-2.2Z"/><path d="M349.64,161.38c-.06-.27-.1-.51-.13-.72a4.46,4.46,0,0,1-.05-.63,3.75,3.75,0,0,1-1.19,1.08,3.06,3.06,0,0,1-1.58.44,2.92,2.92,0,0,1-2.13-.72,2.61,2.61,0,0,1-.74-2,2.32,2.32,0,0,1,1-2,4.92,4.92,0,0,1,2.83-.73h1.77v-.88A1.65,1.65,0,0,0,349,154a1.88,1.88,0,0,0-1.36-.46,2,2,0,0,0-1.29.4,1.19,1.19,0,0,0-.48.95l-1.55,0,0-.05a2.15,2.15,0,0,1,.92-1.79,3.77,3.77,0,0,1,2.51-.81,3.72,3.72,0,0,1,2.45.77,2.74,2.74,0,0,1,.93,2.23v4.32c0,.32,0,.63.05.93a4.44,4.44,0,0,0,.18.88Zm-2.71-1.2a3,3,0,0,0,1.6-.45,2.24,2.24,0,0,0,.93-1v-1.45h-1.83a2.37,2.37,0,0,0-1.58.49,1.47,1.47,0,0,0-.59,1.17,1.24,1.24,0,0,0,.37,1A1.58,1.58,0,0,0,346.93,160.18Z"/><path d="M355.73,150.25v2.16h1.7v1.21h-1.7v5.44a1.2,1.2,0,0,0,.26.89.94.94,0,0,0,.69.26,1.2,1.2,0,0,0,.31,0,1.3,1.3,0,0,0,.29-.08l.23,1.12a1.36,1.36,0,0,1-.54.24,2.47,2.47,0,0,1-.7.1,2.13,2.13,0,0,1-1.59-.6,2.62,2.62,0,0,1-.58-1.89v-5.44h-1.43v-1.21h1.43v-2.16Z"/><path d="M362.88,161.55a3.8,3.8,0,0,1-3-1.23,4.78,4.78,0,0,1-1.08-3.25v-.37a4.62,4.62,0,0,1,1.12-3.19,3.49,3.49,0,0,1,2.72-1.26,3.23,3.23,0,0,1,2.69,1.12,4.58,4.58,0,0,1,.9,3v.86h-5.73l0,0a3.68,3.68,0,0,0,.59,2.19,2.09,2.09,0,0,0,1.82.84,4.07,4.07,0,0,0,1.46-.23,3.37,3.37,0,0,0,1.07-.65l.64,1.06a3.82,3.82,0,0,1-1.27.78A5.1,5.1,0,0,1,362.88,161.55Zm-.25-8a1.76,1.76,0,0,0-1.41.66,3.12,3.12,0,0,0-.69,1.69l0,0h4v-.14a2.59,2.59,0,0,0-.48-1.61A1.72,1.72,0,0,0,362.63,153.53Z"/><path d="M367.68,157.06a6,6,0,0,1,.92-3.49,3,3,0,0,1,2.59-1.32,3.13,3.13,0,0,1,1.4.29,2.89,2.89,0,0,1,1,.84v-4.93h1.63v12.93H374l-.25-1.14a2.89,2.89,0,0,1-1.08,1,3.28,3.28,0,0,1-1.5.33,3.08,3.08,0,0,1-2.57-1.19,4.92,4.92,0,0,1-.93-3.13Zm1.63.17a3.83,3.83,0,0,0,.56,2.18,1.94,1.94,0,0,0,1.72.81,2.19,2.19,0,0,0,1.23-.33,2.51,2.51,0,0,0,.81-.92v-4.19a2.48,2.48,0,0,0-.82-.88,2.11,2.11,0,0,0-1.2-.33,1.88,1.88,0,0,0-1.74,1,5.06,5.06,0,0,0-.56,2.52Z"/><path d="M383.68,150.12H382v-1.67h1.64Zm0,11.26H382v-9h1.64Z"/><path d="M387.64,152.41l.12,1.34a3.21,3.21,0,0,1,1.12-1.11,3,3,0,0,1,1.54-.39,2.9,2.9,0,0,1,2.24.85,3.72,3.72,0,0,1,.8,2.62v5.66h-1.63v-5.63a2.43,2.43,0,0,0-.47-1.68,1.88,1.88,0,0,0-1.43-.5,2.45,2.45,0,0,0-1.28.31,2.16,2.16,0,0,0-.83.84v6.66h-1.63v-9Z"/><path d="M402.31,150.25v2.16H404v1.21h-1.7v5.44a1.2,1.2,0,0,0,.27.89.94.94,0,0,0,.69.26,1.2,1.2,0,0,0,.31,0,1.48,1.48,0,0,0,.29-.08l.23,1.12a1.51,1.51,0,0,1-.54.24,2.53,2.53,0,0,1-.71.1,2.11,2.11,0,0,1-1.58-.6,2.63,2.63,0,0,1-.59-1.89v-5.44h-1.42v-1.21h1.42v-2.16Z"/><path d="M407.39,153.61a3.3,3.3,0,0,1,1.14-1,3.14,3.14,0,0,1,1.5-.36,2.89,2.89,0,0,1,2.23.86,3.8,3.8,0,0,1,.8,2.65v5.62h-1.63v-5.64a2.4,2.4,0,0,0-.48-1.64,1.83,1.83,0,0,0-1.42-.53,2.68,2.68,0,0,0-1.27.29,2.31,2.31,0,0,0-.87.8v6.72h-1.63V148.45h1.63Z"/><path d="M419.11,161.55a3.8,3.8,0,0,1-3-1.23,4.78,4.78,0,0,1-1.08-3.25v-.37a4.66,4.66,0,0,1,1.11-3.19,3.51,3.51,0,0,1,2.73-1.26,3.24,3.24,0,0,1,2.69,1.12,4.58,4.58,0,0,1,.9,3v.86h-5.73l0,0a3.68,3.68,0,0,0,.6,2.19,2.09,2.09,0,0,0,1.82.84,4.11,4.11,0,0,0,1.46-.23,3.48,3.48,0,0,0,1.07-.65l.64,1.06a3.92,3.92,0,0,1-1.27.78A5.1,5.1,0,0,1,419.11,161.55Zm-.25-8a1.8,1.8,0,0,0-1.42.66,3.11,3.11,0,0,0-.68,1.69l0,0h4v-.14a2.59,2.59,0,0,0-.48-1.61A1.73,1.73,0,0,0,418.86,153.53Z"/><path d="M435.15,158.34a1.83,1.83,0,0,0-.59-1.38,4.88,4.88,0,0,0-2.07-.94,6.85,6.85,0,0,1-2.87-1.35,2.8,2.8,0,0,1-1-2.22,3,3,0,0,1,1.11-2.36,4.29,4.29,0,0,1,2.88-1,4.23,4.23,0,0,1,3,1.08,3.25,3.25,0,0,1,1.09,2.52l0,0h-1.56a2.23,2.23,0,0,0-.71-1.69,2.57,2.57,0,0,0-1.84-.67,2.52,2.52,0,0,0-1.75.55,1.85,1.85,0,0,0-.61,1.44,1.59,1.59,0,0,0,.67,1.31,6,6,0,0,0,2.16.93,6.15,6.15,0,0,1,2.78,1.39,3,3,0,0,1,.95,2.27,2.8,2.8,0,0,1-1.15,2.34,4.75,4.75,0,0,1-3,.89,5.13,5.13,0,0,1-3.09-1,3,3,0,0,1-1.29-2.62v0h1.56a2,2,0,0,0,.86,1.75,3.29,3.29,0,0,0,1.95.61,2.91,2.91,0,0,0,1.83-.52A1.7,1.7,0,0,0,435.15,158.34Z"/><path d="M439.09,161.38V149.32h3.8a5,5,0,0,1,5.23,5.21v1.64a5,5,0,0,1-5.23,5.21Zm1.63-10.78v9.5h2.17a3.32,3.32,0,0,0,2.63-1.1,4.12,4.12,0,0,0,1-2.83v-1.66a4.09,4.09,0,0,0-1-2.81,3.32,3.32,0,0,0-2.63-1.1Z"/><path d="M459.25,159.75a3.83,3.83,0,0,1-1.49,1.24,6,6,0,0,1-2.76.56,4.67,4.67,0,0,1-3.46-1.38,4.9,4.9,0,0,1-1.36-3.58V154.1a5,5,0,0,1,1.31-3.58,4.49,4.49,0,0,1,3.4-1.38,4.55,4.55,0,0,1,3.18,1.07,3.42,3.42,0,0,1,1.13,2.73V153h-1.57a2.5,2.5,0,0,0-.71-1.83,2.69,2.69,0,0,0-2-.73,2.73,2.73,0,0,0-2.23,1,4,4,0,0,0-.84,2.63v2.5a3.87,3.87,0,0,0,.89,2.64,2.87,2.87,0,0,0,2.29,1,4.36,4.36,0,0,0,1.69-.27,2.47,2.47,0,0,0,.93-.66v-2.72h-2.73v-1.27h4.36Z"/><path d="M467.92,160.1h5.88v1.28h-7.51V149.32h1.63Z"/><path d="M479.1,161.55a3.79,3.79,0,0,1-3-1.23,4.78,4.78,0,0,1-1.08-3.25v-.37a4.66,4.66,0,0,1,1.11-3.19,3.51,3.51,0,0,1,2.72-1.26,3.25,3.25,0,0,1,2.7,1.12,4.58,4.58,0,0,1,.9,3v.86h-5.73l0,0a3.68,3.68,0,0,0,.6,2.19,2.08,2.08,0,0,0,1.82.84,4,4,0,0,0,1.45-.23,3.42,3.42,0,0,0,1.08-.65l.64,1.06a3.92,3.92,0,0,1-1.27.78A5.14,5.14,0,0,1,479.1,161.55Zm-.26-8a1.78,1.78,0,0,0-1.41.66,3.11,3.11,0,0,0-.68,1.69l0,0h4v-.14a2.59,2.59,0,0,0-.48-1.61A1.74,1.74,0,0,0,478.84,153.53Z"/><path d="M489.78,161.38c-.06-.27-.1-.51-.13-.72a4.46,4.46,0,0,1,0-.63,3.75,3.75,0,0,1-1.19,1.08,3.06,3.06,0,0,1-1.58.44,2.92,2.92,0,0,1-2.13-.72,2.61,2.61,0,0,1-.74-2,2.32,2.32,0,0,1,1-2,4.91,4.91,0,0,1,2.82-.73h1.78v-.88a1.65,1.65,0,0,0-.48-1.25,1.88,1.88,0,0,0-1.36-.46,2,2,0,0,0-1.29.4,1.2,1.2,0,0,0-.49.95l-1.54,0,0-.05a2.16,2.16,0,0,1,.91-1.79,3.81,3.81,0,0,1,2.52-.81,3.74,3.74,0,0,1,2.45.77,2.74,2.74,0,0,1,.93,2.23v4.32a7.06,7.06,0,0,0,0,.93,4.44,4.44,0,0,0,.18.88Zm-2.71-1.2a3,3,0,0,0,1.6-.45,2.24,2.24,0,0,0,.93-1v-1.45h-1.83a2.37,2.37,0,0,0-1.58.49,1.47,1.47,0,0,0-.59,1.17,1.24,1.24,0,0,0,.37,1A1.56,1.56,0,0,0,487.07,160.18Z"/><path d="M493.22,157.06a6,6,0,0,1,.93-3.49,3,3,0,0,1,2.59-1.32,3.09,3.09,0,0,1,1.39.29,2.73,2.73,0,0,1,1,.84v-4.93h1.63v12.93h-1.25l-.25-1.14a2.89,2.89,0,0,1-1.08,1,3.25,3.25,0,0,1-1.5.33,3.09,3.09,0,0,1-2.57-1.19,4.92,4.92,0,0,1-.93-3.13Zm1.64.17a3.83,3.83,0,0,0,.55,2.18,2,2,0,0,0,1.72.81,2.17,2.17,0,0,0,1.23-.33,2.51,2.51,0,0,0,.81-.92v-4.19a2.55,2.55,0,0,0-.81-.88,2.17,2.17,0,0,0-1.21-.33,1.87,1.87,0,0,0-1.73,1,5,5,0,0,0-.56,2.52Z"/><path d="M507,161.55a3.79,3.79,0,0,1-3-1.23,4.78,4.78,0,0,1-1.08-3.25v-.37a4.66,4.66,0,0,1,1.11-3.19,3.49,3.49,0,0,1,2.72-1.26,3.25,3.25,0,0,1,2.7,1.12,4.58,4.58,0,0,1,.9,3v.86h-5.73l0,0a3.68,3.68,0,0,0,.6,2.19,2.08,2.08,0,0,0,1.82.84,4,4,0,0,0,1.45-.23,3.42,3.42,0,0,0,1.08-.65l.63,1.06a3.87,3.87,0,0,1-1.26.78A5.14,5.14,0,0,1,507,161.55Zm-.26-8a1.76,1.76,0,0,0-1.41.66,3.11,3.11,0,0,0-.68,1.69v0h4.05v-.14a2.59,2.59,0,0,0-.48-1.61A1.74,1.74,0,0,0,506.69,153.53Z"/><path d="M516.36,153.85l-.84,0a1.92,1.92,0,0,0-1.09.31,2,2,0,0,0-.68.86v6.41h-1.63v-9h1.46l.15,1.31a3.22,3.22,0,0,1,.94-1.08,2.23,2.23,0,0,1,1.29-.39,2,2,0,0,1,.35,0l.27.06Z"/><path d="M523.27,159a1.09,1.09,0,0,0-.41-.88,3.91,3.91,0,0,0-1.55-.6,6.6,6.6,0,0,1-2.44-1,2,2,0,0,1-.85-1.64A2.37,2.37,0,0,1,519,153a3.62,3.62,0,0,1,2.41-.78,3.57,3.57,0,0,1,2.47.83,2.35,2.35,0,0,1,.9,1.93v.05h-1.56a1.43,1.43,0,0,0-.51-1.06,1.84,1.84,0,0,0-1.29-.47,1.88,1.88,0,0,0-1.29.39,1.23,1.23,0,0,0-.42.93,1,1,0,0,0,.37.82,4.08,4.08,0,0,0,1.52.53,6.54,6.54,0,0,1,2.5,1,2,2,0,0,1,.85,1.67,2.39,2.39,0,0,1-1,2,4,4,0,0,1-2.53.75,4,4,0,0,1-2.7-.87,2.45,2.45,0,0,1-.93-2v-.05h1.56a1.5,1.5,0,0,0,.65,1.27,2.46,2.46,0,0,0,1.41.4,2.3,2.3,0,0,0,1.37-.36A1.15,1.15,0,0,0,523.27,159Z"/><path d="M528.56,153.61a3.3,3.3,0,0,1,1.14-1,3.14,3.14,0,0,1,1.5-.36,2.89,2.89,0,0,1,2.23.86,3.8,3.8,0,0,1,.8,2.65v5.62H532.6v-5.64a2.4,2.4,0,0,0-.48-1.64,1.83,1.83,0,0,0-1.42-.53,2.68,2.68,0,0,0-1.27.29,2.31,2.31,0,0,0-.87.8v6.72h-1.63V148.45h1.63Z"/><path d="M538.34,150.12H536.7v-1.67h1.64Zm0,11.26H536.7v-9h1.64Z"/><path d="M548.48,157.23a5,5,0,0,1-.92,3.13,3.09,3.09,0,0,1-2.56,1.19,3.49,3.49,0,0,1-1.46-.28,2.67,2.67,0,0,1-1.06-.83v4.38h-1.63V152.41h1.25l.25,1.16a2.94,2.94,0,0,1,1.1-1,3.19,3.19,0,0,1,1.52-.34,3,3,0,0,1,2.59,1.32,5.93,5.93,0,0,1,.92,3.49Zm-1.63-.17a4.76,4.76,0,0,0-.6-2.51,2,2,0,0,0-1.77-1,2.19,2.19,0,0,0-1.2.32,2.35,2.35,0,0,0-.8.88v4.33a2.15,2.15,0,0,0,2,1.17,2,2,0,0,0,1.76-.84,3.81,3.81,0,0,0,.59-2.2Z"/><path d="M277,176.9v4.83h-1.63V169.67h4.61a4.24,4.24,0,0,1,3,1,3.74,3.74,0,0,1,0,5.24,4.28,4.28,0,0,1-3,1Zm0-1.28h3a2.18,2.18,0,0,0,2.44-2.32,2.36,2.36,0,0,0-.61-1.67,2.32,2.32,0,0,0-1.83-.67h-3Z"/><path d="M290.12,174.21l-.83-.05a1.82,1.82,0,0,0-1.09.31,1.92,1.92,0,0,0-.69.86v6.4h-1.63v-9h1.46l.16,1.31a3.05,3.05,0,0,1,.94-1.09,2.25,2.25,0,0,1,1.29-.38,1.88,1.88,0,0,1,.34,0l.28.07Z"/><path d="M291.27,177.17a4.93,4.93,0,0,1,1.08-3.28,4,4,0,0,1,5.87,0,4.93,4.93,0,0,1,1.08,3.28v.18a4.89,4.89,0,0,1-1.08,3.28,4,4,0,0,1-5.86,0,4.94,4.94,0,0,1-1.09-3.28Zm1.64.18a4.23,4.23,0,0,0,.6,2.35,2,2,0,0,0,1.78.93,2,2,0,0,0,1.78-.93,4.23,4.23,0,0,0,.6-2.35v-.18a4.16,4.16,0,0,0-.61-2.34,2,2,0,0,0-1.78-.94,2,2,0,0,0-1.77.94,4.24,4.24,0,0,0-.6,2.34Z"/><path d="M301,177.42a6,6,0,0,1,.92-3.49,3,3,0,0,1,2.58-1.32,3,3,0,0,1,2.59,1.33l.19-1.17h1.31v9a3.43,3.43,0,0,1-1,2.65,4.1,4.1,0,0,1-2.89.92,6.5,6.5,0,0,1-1.39-.17,5.67,5.67,0,0,1-1.32-.49l.24-1.27a5,5,0,0,0,1.14.41,6,6,0,0,0,1.32.15,2.38,2.38,0,0,0,1.73-.54,2.29,2.29,0,0,0,.54-1.66v-1a2.89,2.89,0,0,1-1,.86,3.32,3.32,0,0,1-1.41.29,3.08,3.08,0,0,1-2.57-1.19,5,5,0,0,1-.92-3.13Zm1.63.17a3.87,3.87,0,0,0,.55,2.17,1.93,1.93,0,0,0,1.72.82,2.17,2.17,0,0,0,1.23-.33,2.55,2.55,0,0,0,.82-.95v-4.13a2.46,2.46,0,0,0-.82-.9,2.08,2.08,0,0,0-1.21-.34,1.85,1.85,0,0,0-1.73,1,5.06,5.06,0,0,0-.56,2.52Z"/><path d="M315.18,174.21l-.84-.05a1.84,1.84,0,0,0-1.09.31,2,2,0,0,0-.68.86v6.4h-1.63v-9h1.46l.15,1.31a3.26,3.26,0,0,1,.94-1.09,2.3,2.3,0,0,1,1.29-.38,2,2,0,0,1,.35,0,1.31,1.31,0,0,1,.27.07Z"/><path d="M322.39,181.73c-.06-.27-.1-.51-.13-.71a4.46,4.46,0,0,1-.05-.63,3.87,3.87,0,0,1-1.19,1.08,3.06,3.06,0,0,1-1.58.44,2.9,2.9,0,0,1-2.13-.72,2.64,2.64,0,0,1-.74-2,2.32,2.32,0,0,1,1-2,4.83,4.83,0,0,1,2.82-.73h1.78v-.88a1.65,1.65,0,0,0-.48-1.25,1.9,1.9,0,0,0-1.36-.46,2,2,0,0,0-1.29.4,1.2,1.2,0,0,0-.49,1l-1.55,0v0a2.12,2.12,0,0,1,.91-1.79,3.81,3.81,0,0,1,2.52-.81,3.69,3.69,0,0,1,2.45.77,2.74,2.74,0,0,1,.93,2.23v4.32a7.06,7.06,0,0,0,.05.93,4.34,4.34,0,0,0,.18.87Zm-2.71-1.19a3,3,0,0,0,1.6-.45,2.28,2.28,0,0,0,.93-1.05v-1.46h-1.83a2.37,2.37,0,0,0-1.58.5,1.48,1.48,0,0,0-.6,1.17,1.21,1.21,0,0,0,.38.94A1.56,1.56,0,0,0,319.68,180.54Z"/><path d="M327.66,172.77l.12,1.18a2.93,2.93,0,0,1,1.11-1,3.3,3.3,0,0,1,1.57-.35A2.75,2.75,0,0,1,332,173a2.55,2.55,0,0,1,1,1.24,3.27,3.27,0,0,1,1.12-1.21,2.89,2.89,0,0,1,1.62-.44,2.67,2.67,0,0,1,2.16.94,4.26,4.26,0,0,1,.79,2.82v5.36H337v-5.37a3,3,0,0,0-.45-1.88,1.67,1.67,0,0,0-1.36-.55,1.73,1.73,0,0,0-1.36.58,2.65,2.65,0,0,0-.61,1.47v5.75h-1.63v-5.37a3,3,0,0,0-.47-1.85,1.66,1.66,0,0,0-1.35-.58,2.17,2.17,0,0,0-1.22.31,1.89,1.89,0,0,0-.74.86v6.63h-1.63v-9Z"/><path d="M342.49,172.77l.12,1.18a2.93,2.93,0,0,1,1.11-1,3.28,3.28,0,0,1,1.57-.35,2.75,2.75,0,0,1,1.54.41,2.48,2.48,0,0,1,1,1.24,3.35,3.35,0,0,1,1.12-1.21,2.94,2.94,0,0,1,1.62-.44,2.68,2.68,0,0,1,2.17.94,4.26,4.26,0,0,1,.79,2.82v5.36h-1.63v-5.37a2.94,2.94,0,0,0-.46-1.88,1.63,1.63,0,0,0-1.35-.55,1.73,1.73,0,0,0-1.36.58,2.58,2.58,0,0,0-.61,1.47v5.75h-1.64v-5.37a2.91,2.91,0,0,0-.47-1.85,1.64,1.64,0,0,0-1.34-.58,2.2,2.2,0,0,0-1.23.31,1.93,1.93,0,0,0-.73.86v6.63H341v-9Z"/><path d="M359.57,181.91a3.76,3.76,0,0,1-3-1.24,4.73,4.73,0,0,1-1.08-3.24v-.37a4.66,4.66,0,0,1,1.11-3.19,3.51,3.51,0,0,1,2.72-1.26,3.27,3.27,0,0,1,2.7,1.11,4.62,4.62,0,0,1,.9,3v.86h-5.73l0,0a3.68,3.68,0,0,0,.6,2.19,2.08,2.08,0,0,0,1.82.84,4.34,4.34,0,0,0,1.46-.23,3.48,3.48,0,0,0,1.07-.65l.64,1.06a3.92,3.92,0,0,1-1.27.78A5.14,5.14,0,0,1,359.57,181.91Zm-.26-8a1.78,1.78,0,0,0-1.41.66,3.11,3.11,0,0,0-.68,1.68l0,0h4v-.13a2.59,2.59,0,0,0-.48-1.61A1.74,1.74,0,0,0,359.31,173.89Z"/><path d="M374.47,181.73c-.06-.27-.1-.51-.13-.71s0-.42-.06-.63a3.76,3.76,0,0,1-1.19,1.08,3,3,0,0,1-1.57.44,2.93,2.93,0,0,1-2.14-.72,2.63,2.63,0,0,1-.73-2,2.32,2.32,0,0,1,1-2,4.79,4.79,0,0,1,2.82-.73h1.77v-.88a1.65,1.65,0,0,0-.48-1.25,1.87,1.87,0,0,0-1.36-.46,1.94,1.94,0,0,0-1.28.4,1.17,1.17,0,0,0-.49,1l-1.55,0v0a2.12,2.12,0,0,1,.91-1.79,3.8,3.8,0,0,1,2.51-.81,3.7,3.7,0,0,1,2.46.77,2.74,2.74,0,0,1,.92,2.23v4.32c0,.32,0,.63,0,.93a5.19,5.19,0,0,0,.19.87Zm-2.71-1.19a3,3,0,0,0,1.6-.45,2.2,2.2,0,0,0,.92-1.05v-1.46h-1.83a2.41,2.41,0,0,0-1.58.5,1.5,1.5,0,0,0-.59,1.17,1.21,1.21,0,0,0,.38.94A1.54,1.54,0,0,0,371.76,180.54Z"/><path d="M379.74,172.77l.12,1.33A3.27,3.27,0,0,1,381,173a3,3,0,0,1,1.54-.39,2.94,2.94,0,0,1,2.24.84,3.74,3.74,0,0,1,.8,2.63v5.65h-1.63v-5.62a2.43,2.43,0,0,0-.47-1.68,1.9,1.9,0,0,0-1.43-.5,2.55,2.55,0,0,0-1.28.3,2.19,2.19,0,0,0-.83.85v6.65h-1.64v-9Z"/><path d="M387.55,177.42a6,6,0,0,1,.93-3.49,3,3,0,0,1,2.58-1.32,3.13,3.13,0,0,1,1.4.29,2.81,2.81,0,0,1,1,.84v-4.93h1.63v12.92h-1.25l-.25-1.13a2.89,2.89,0,0,1-1.08,1,3.25,3.25,0,0,1-1.5.33,3.08,3.08,0,0,1-2.57-1.19,4.94,4.94,0,0,1-.93-3.13Zm1.63.17a3.83,3.83,0,0,0,.56,2.18,1.94,1.94,0,0,0,1.72.81,2.17,2.17,0,0,0,1.23-.33,2.47,2.47,0,0,0,.81-.93v-4.18a2.48,2.48,0,0,0-.82-.88,2.11,2.11,0,0,0-1.2-.33,1.88,1.88,0,0,0-1.74,1,5.06,5.06,0,0,0-.56,2.52Z"/><path d="M408.44,178.69a1.82,1.82,0,0,0-.59-1.37,4.87,4.87,0,0,0-2.07-.95,6.79,6.79,0,0,1-2.87-1.34,2.81,2.81,0,0,1-1-2.23,3,3,0,0,1,1.12-2.36,4.29,4.29,0,0,1,2.88-.94,4.19,4.19,0,0,1,3,1.08,3.26,3.26,0,0,1,1.1,2.52l0,.05h-1.56a2.24,2.24,0,0,0-.72-1.7,2.61,2.61,0,0,0-1.83-.67,2.5,2.5,0,0,0-1.75.56,1.85,1.85,0,0,0-.61,1.44,1.62,1.62,0,0,0,.66,1.31,6.31,6.31,0,0,0,2.17.93,6,6,0,0,1,2.77,1.39,3,3,0,0,1,1,2.27,2.83,2.83,0,0,1-1.15,2.34,4.75,4.75,0,0,1-3,.89,5.1,5.1,0,0,1-3.09-1,3,3,0,0,1-1.3-2.62l0-.05h1.56A2,2,0,0,0,404,180a3.19,3.19,0,0,0,1.95.62,2.91,2.91,0,0,0,1.83-.52A1.7,1.7,0,0,0,408.44,178.69Z"/><path d="M412.38,181.73V169.67h3.79a5,5,0,0,1,5.24,5.21v1.65a4.94,4.94,0,0,1-5.24,5.2ZM414,171v9.5h2.16a3.33,3.33,0,0,0,2.64-1.1,4.17,4.17,0,0,0,1-2.83v-1.66a4.12,4.12,0,0,0-1-2.81,3.3,3.3,0,0,0-2.64-1.1Z"/><path d="M432.54,180.11a3.88,3.88,0,0,1-1.49,1.23,5.88,5.88,0,0,1-2.77.57,4.62,4.62,0,0,1-3.45-1.39,4.86,4.86,0,0,1-1.37-3.57v-2.49a5,5,0,0,1,1.32-3.58,4.49,4.49,0,0,1,3.4-1.38,4.55,4.55,0,0,1,3.18,1.07,3.49,3.49,0,0,1,1.13,2.73l0,0h-1.56a2.53,2.53,0,0,0-.71-1.83,2.7,2.7,0,0,0-2-.74,2.73,2.73,0,0,0-2.23,1,4,4,0,0,0-.85,2.62V177a3.88,3.88,0,0,0,.9,2.64,2.85,2.85,0,0,0,2.28,1,4.18,4.18,0,0,0,1.7-.28,2.51,2.51,0,0,0,.93-.65V177h-2.73V175.7h4.36Z"/><path d="M445.55,179.47h.05l3.86-9.8h2v12.06h-1.63v-9h-.05l-3.65,9H445l-3.77-9.34h0v9.33h-1.64V169.67h2.15Z"/><path d="M453.7,177.17a4.93,4.93,0,0,1,1.08-3.28,4,4,0,0,1,5.87,0,4.93,4.93,0,0,1,1.08,3.28v.18a4.89,4.89,0,0,1-1.08,3.28,4,4,0,0,1-5.86,0,4.94,4.94,0,0,1-1.09-3.28Zm1.64.18a4.23,4.23,0,0,0,.6,2.35,2.16,2.16,0,0,0,3.55,0,4.15,4.15,0,0,0,.61-2.35v-.18a4.16,4.16,0,0,0-.61-2.34,2,2,0,0,0-1.78-.94,2,2,0,0,0-1.77.94,4.24,4.24,0,0,0-.6,2.34Z"/><path d="M471.38,177.59a4.94,4.94,0,0,1-.93,3.13,3.09,3.09,0,0,1-2.56,1.19,3.32,3.32,0,0,1-1.56-.35,3,3,0,0,1-1.09-1l-.26,1.21h-1.25V168.81h1.63v5a2.78,2.78,0,0,1,1.05-.91,3.17,3.17,0,0,1,1.46-.31,3,3,0,0,1,2.58,1.32,6,6,0,0,1,.93,3.49Zm-1.63-.17a5,5,0,0,0-.57-2.52,1.88,1.88,0,0,0-1.72-1,2.13,2.13,0,0,0-1.28.37,2.51,2.51,0,0,0-.82,1v3.88a2.63,2.63,0,0,0,.82,1,2.12,2.12,0,0,0,1.29.37,1.94,1.94,0,0,0,1.72-.82,3.79,3.79,0,0,0,.56-2.17Z"/><path d="M475.13,170.48H473.5v-1.67h1.63Zm0,11.25H473.5v-9h1.63Z"/><path d="M479.41,181.73h-1.63V168.81h1.63Z"/><path d="M485.63,181.91a3.76,3.76,0,0,1-3-1.24,4.73,4.73,0,0,1-1.08-3.24v-.37a4.66,4.66,0,0,1,1.11-3.19,3.49,3.49,0,0,1,2.72-1.26,3.27,3.27,0,0,1,2.7,1.11,4.62,4.62,0,0,1,.9,3v.86h-5.74l0,0a3.68,3.68,0,0,0,.6,2.19,2.07,2.07,0,0,0,1.82.84,4.24,4.24,0,0,0,1.45-.23,3.26,3.26,0,0,0,1.07-.65l.64,1.06a3.87,3.87,0,0,1-1.26.78A5.14,5.14,0,0,1,485.63,181.91Zm-.26-8a1.76,1.76,0,0,0-1.41.66,3.11,3.11,0,0,0-.68,1.68v0h4v-.13a2.59,2.59,0,0,0-.49-1.61A1.72,1.72,0,0,0,485.37,173.89Z"/><path d="M496.87,180.46h5.88v1.27h-7.51V169.67h1.63Z"/><path d="M508.05,181.91a3.78,3.78,0,0,1-3-1.24,4.73,4.73,0,0,1-1.08-3.24v-.37a4.66,4.66,0,0,1,1.11-3.19,3.51,3.51,0,0,1,2.73-1.26,3.26,3.26,0,0,1,2.69,1.11,4.62,4.62,0,0,1,.9,3v.86h-5.73l0,0a3.68,3.68,0,0,0,.6,2.19,2.09,2.09,0,0,0,1.82.84,4.34,4.34,0,0,0,1.46-.23,3.48,3.48,0,0,0,1.07-.65l.64,1.06a3.92,3.92,0,0,1-1.27.78A5.14,5.14,0,0,1,508.05,181.91Zm-.25-8a1.8,1.8,0,0,0-1.42.66,3.11,3.11,0,0,0-.68,1.68l0,0h4v-.13a2.59,2.59,0,0,0-.48-1.61A1.73,1.73,0,0,0,507.8,173.89Z"/><path d="M518.73,181.73c-.06-.27-.1-.51-.13-.71a4.46,4.46,0,0,1-.05-.63,3.87,3.87,0,0,1-1.19,1.08,3.06,3.06,0,0,1-1.58.44,2.92,2.92,0,0,1-2.13-.72,2.64,2.64,0,0,1-.74-2,2.32,2.32,0,0,1,1-2,4.83,4.83,0,0,1,2.82-.73h1.78v-.88a1.65,1.65,0,0,0-.48-1.25,1.88,1.88,0,0,0-1.36-.46,2,2,0,0,0-1.29.4,1.19,1.19,0,0,0-.48,1l-1.55,0,0,0a2.13,2.13,0,0,1,.92-1.79,3.77,3.77,0,0,1,2.51-.81,3.67,3.67,0,0,1,2.45.77,2.74,2.74,0,0,1,.93,2.23v4.32c0,.32,0,.63.05.93a4.34,4.34,0,0,0,.18.87ZM516,180.54a3,3,0,0,0,1.6-.45,2.28,2.28,0,0,0,.93-1.05v-1.46h-1.83a2.37,2.37,0,0,0-1.58.5,1.47,1.47,0,0,0-.59,1.17,1.21,1.21,0,0,0,.37.94A1.56,1.56,0,0,0,516,180.54Z"/><path d="M526.79,174.21l-.84-.05a1.84,1.84,0,0,0-1.09.31,2,2,0,0,0-.68.86v6.4h-1.63v-9H524l.15,1.31a3.26,3.26,0,0,1,.94-1.09,2.3,2.3,0,0,1,1.29-.38,2,2,0,0,1,.35,0,1.31,1.31,0,0,1,.27.07Z"/><path d="M530,172.77l.11,1.33a3.27,3.27,0,0,1,1.12-1.1,3,3,0,0,1,1.54-.39,3,3,0,0,1,2.25.84,3.74,3.74,0,0,1,.79,2.63v5.65h-1.63v-5.62a2.43,2.43,0,0,0-.47-1.68,1.88,1.88,0,0,0-1.43-.5,2.55,2.55,0,0,0-1.28.3,2.19,2.19,0,0,0-.83.85v6.65h-1.63v-9Z"/><path d="M539.89,170.48h-1.63v-1.67h1.63Zm0,11.25h-1.63v-9h1.63Z"/><path d="M543.86,172.77l.12,1.33a3.27,3.27,0,0,1,1.12-1.1,3,3,0,0,1,1.54-.39,2.94,2.94,0,0,1,2.24.84,3.74,3.74,0,0,1,.8,2.63v5.65H548v-5.62a2.43,2.43,0,0,0-.46-1.68,1.9,1.9,0,0,0-1.43-.5,2.53,2.53,0,0,0-1.28.3,2.19,2.19,0,0,0-.83.85v6.65H542.4v-9Z"/><path d="M551.76,177.42a6,6,0,0,1,.92-3.49,3,3,0,0,1,2.58-1.32,3.13,3.13,0,0,1,1.5.34,3,3,0,0,1,1.08,1l.2-1.17h1.3v9a3.42,3.42,0,0,1-1,2.65,4.1,4.1,0,0,1-2.89.92,6.59,6.59,0,0,1-1.4-.17,5.67,5.67,0,0,1-1.32-.49l.25-1.27a5,5,0,0,0,1.14.41,5.92,5.92,0,0,0,1.31.15,2.39,2.39,0,0,0,1.74-.54,2.29,2.29,0,0,0,.54-1.66v-1a2.89,2.89,0,0,1-1.05.86,3.33,3.33,0,0,1-1.42.29,3.07,3.07,0,0,1-2.56-1.19,4.94,4.94,0,0,1-.92-3.13Zm1.63.17a3.79,3.79,0,0,0,.55,2.17,1.92,1.92,0,0,0,1.72.82,2.17,2.17,0,0,0,1.23-.33,2.55,2.55,0,0,0,.82-.95v-4.13a2.46,2.46,0,0,0-.82-.9,2.11,2.11,0,0,0-1.22-.34,1.84,1.84,0,0,0-1.72,1,5,5,0,0,0-.56,2.52Z"/><path d="M373.32,197.25v4.84h-1.63V190h4.61a4.24,4.24,0,0,1,3,1,3.73,3.73,0,0,1,0,5.25,4.28,4.28,0,0,1-3,1Zm0-1.27h3a2.2,2.2,0,0,0,2.44-2.32,2.4,2.4,0,0,0-.61-1.67,2.35,2.35,0,0,0-1.83-.68h-3Z"/><path d="M386.49,194.57l-.84,0a1.84,1.84,0,0,0-1.09.31,2,2,0,0,0-.68.86v6.4h-1.63v-9h1.45l.16,1.31a3.17,3.17,0,0,1,.94-1.09,2.21,2.21,0,0,1,1.29-.39,2,2,0,0,1,.35,0l.27.06Z"/><path d="M387.64,197.53a4.93,4.93,0,0,1,1.08-3.28,3.59,3.59,0,0,1,2.92-1.29,3.67,3.67,0,0,1,2.95,1.29,4.91,4.91,0,0,1,1.08,3.28v.18a4.89,4.89,0,0,1-1.08,3.28,4,4,0,0,1-5.87,0,4.93,4.93,0,0,1-1.08-3.28Zm1.63.18a4.25,4.25,0,0,0,.6,2.35,2,2,0,0,0,1.79.93,2,2,0,0,0,1.77-.93,4.25,4.25,0,0,0,.6-2.35v-.18a4.29,4.29,0,0,0-.6-2.35,2,2,0,0,0-1.79-.93,2,2,0,0,0-1.77.93,4.29,4.29,0,0,0-.6,2.35Z"/><path d="M397.37,197.78a5.93,5.93,0,0,1,.93-3.49,2.94,2.94,0,0,1,2.58-1.33,3.13,3.13,0,0,1,1.5.35,3,3,0,0,1,1.08,1l.2-1.17H405v9a3.42,3.42,0,0,1-1,2.65,4.14,4.14,0,0,1-2.89.92,6,6,0,0,1-1.4-.18,5.67,5.67,0,0,1-1.32-.48l.25-1.27a4.33,4.33,0,0,0,1.14.4,5.94,5.94,0,0,0,1.31.16,2.4,2.4,0,0,0,1.74-.55,2.25,2.25,0,0,0,.54-1.65v-1a2.77,2.77,0,0,1-1.05.85,3.19,3.19,0,0,1-1.42.29,3.05,3.05,0,0,1-2.56-1.18,5,5,0,0,1-.93-3.13ZM399,198a3.82,3.82,0,0,0,.56,2.17,1.91,1.91,0,0,0,1.71.82,2.11,2.11,0,0,0,1.24-.34,2.61,2.61,0,0,0,.82-.94v-4.13a2.58,2.58,0,0,0-.82-.91,2.18,2.18,0,0,0-1.22-.33,1.86,1.86,0,0,0-1.73,1,5,5,0,0,0-.56,2.52Z"/><path d="M411.55,194.57l-.84,0a1.84,1.84,0,0,0-1.09.31,1.9,1.9,0,0,0-.68.86v6.4H407.3v-9h1.46l.16,1.31a3.07,3.07,0,0,1,.94-1.09,2.19,2.19,0,0,1,1.29-.39,2,2,0,0,1,.35,0l.27.06Z"/><path d="M418.75,202.09c-.05-.27-.1-.51-.13-.72s0-.41-.05-.62a3.76,3.76,0,0,1-1.19,1.08,3,3,0,0,1-1.58.43,2.92,2.92,0,0,1-2.13-.71,2.64,2.64,0,0,1-.73-2,2.32,2.32,0,0,1,1-2,4.87,4.87,0,0,1,2.82-.72h1.77V196a1.63,1.63,0,0,0-.48-1.24,1.87,1.87,0,0,0-1.36-.46,2,2,0,0,0-1.28.39,1.2,1.2,0,0,0-.49,1h-1.55l0-.05a2.16,2.16,0,0,1,.92-1.79,3.8,3.8,0,0,1,2.51-.81,3.66,3.66,0,0,1,2.45.78,2.73,2.73,0,0,1,.93,2.23v4.31a9.16,9.16,0,0,0,.05.93,5.28,5.28,0,0,0,.18.88ZM416,200.9a2.83,2.83,0,0,0,1.6-.46,2.11,2.11,0,0,0,.93-1v-1.46h-1.83a2.39,2.39,0,0,0-1.58.5,1.5,1.5,0,0,0-.59,1.17,1.22,1.22,0,0,0,.37.94A1.58,1.58,0,0,0,416,200.9Z"/><path d="M424,193.13l.12,1.17a3.11,3.11,0,0,1,1.11-1,3.4,3.4,0,0,1,1.57-.35,2.75,2.75,0,0,1,1.54.42,2.54,2.54,0,0,1,1,1.24,3.35,3.35,0,0,1,1.12-1.21,2.9,2.9,0,0,1,1.62-.45,2.7,2.7,0,0,1,2.16.94,4.3,4.3,0,0,1,.8,2.83v5.36H433.4v-5.38a2.93,2.93,0,0,0-.46-1.87,1.65,1.65,0,0,0-1.36-.55,1.71,1.71,0,0,0-1.35.58,2.46,2.46,0,0,0-.61,1.46v5.76H428v-5.38a3,3,0,0,0-.47-1.84,1.61,1.61,0,0,0-1.34-.58,2.29,2.29,0,0,0-1.23.3,2,2,0,0,0-.74.87v6.63h-1.63v-9Z"/><path d="M438.86,193.13l.11,1.17a3.14,3.14,0,0,1,1.12-1,3.4,3.4,0,0,1,1.57-.35,2.74,2.74,0,0,1,1.53.42,2.5,2.5,0,0,1,1,1.24,3.27,3.27,0,0,1,1.12-1.21,2.9,2.9,0,0,1,1.62-.45,2.7,2.7,0,0,1,2.16.94,4.3,4.3,0,0,1,.8,2.83v5.36h-1.64v-5.38a3,3,0,0,0-.45-1.87,1.65,1.65,0,0,0-1.36-.55,1.7,1.7,0,0,0-1.35.58,2.46,2.46,0,0,0-.61,1.46v5.76h-1.64v-5.38a3,3,0,0,0-.47-1.84,1.62,1.62,0,0,0-1.35-.58,2.27,2.27,0,0,0-1.22.3,2,2,0,0,0-.74.87v6.63H437.4v-9Z"/><path d="M455.94,202.26a3.79,3.79,0,0,1-3-1.23,4.75,4.75,0,0,1-1.09-3.25v-.36a4.65,4.65,0,0,1,1.12-3.19,3.47,3.47,0,0,1,2.72-1.27,3.28,3.28,0,0,1,2.7,1.12,4.61,4.61,0,0,1,.89,3v.87h-5.73l0,0a3.75,3.75,0,0,0,.59,2.19,2.1,2.1,0,0,0,1.83.84,4,4,0,0,0,1.45-.24,3,3,0,0,0,1.07-.65l.64,1.06a4,4,0,0,1-1.27.79A5.06,5.06,0,0,1,455.94,202.26Zm-.26-8a1.78,1.78,0,0,0-1.41.65,3.23,3.23,0,0,0-.69,1.69l0,0h4v-.13a2.64,2.64,0,0,0-.48-1.62A1.74,1.74,0,0,0,455.68,194.25Z"/><rect class="cls-7" x="45.06" y="44.15" width="161.7" height="161.7" transform="translate(125.64 -52.42) rotate(45.12)"/><g class="cls-8"><path class="cls-9" d="M125.7,227.71,23.2,124.79,126.13,22.29,228.62,125.21ZM26.38,124.79l99.32,99.74,99.74-99.32L126.12,25.47Zm99.34,89.87-34.2-34.35,26.27-26.16L92.43,128.68l-18.08,18,11.89,11.94,5-4.93-7-7,8.17-8.14,15.51,15.57L86.59,175.36l-29.9-30L77.21,124.9,56.77,104.38l30-29.91L108,95.8,92.46,111.3l-8.14-8.17,7-7-4.93-4.94L74.45,103.1l18,18.08,25.47-25.36L91.75,69.55,126.1,35.34l34.2,34.35L134,95.85l25.36,25.47,18.07-18L165.58,91.38l-5,4.93,7,7-8.18,8.14L143.91,95.87l21.32-21.23,29.91,30L174.62,125.1l20.43,20.52-30,29.91L143.79,154.2l15.57-15.5,8.15,8.17-7,7,4.93,4.94,11.94-11.89-18-18.07-25.46,25.36,26.15,26.27Zm-31-34.34,31,31.17,31.17-31-26.16-26.27,28.65-28.53,21.16,21.25L165.43,162l-8.09-8.13,7-7-5-5L147,154.21,165,172.35l26.85-26.73-20.44-20.53L192,104.66,165.22,77.81,147.08,95.88l12.35,12.39,5-5-7-7,8.13-8.09,15,15.12-21.25,21.16L130.86,95.84l26.27-26.16-31-31.17-31.17,31,26.16,26.27L92.43,124.35,71.27,103.1,86.39,88l8.09,8.13-7,7,5,5,12.39-12.34L86.79,77.65,59.94,104.38l20.44,20.53L59.86,145.34,86.6,172.19l18.14-18.07L92.4,141.73l-5,5,7,7-8.12,8.09L71.18,146.67l21.25-21.16L121,154.16ZM200,140.7l-15.51-15.58,15.57-15.51,15.51,15.58Zm-12.34-15.57L200,137.52l12.4-12.34-12.34-12.39ZM51.76,140.39,36.25,124.81,51.82,109.3l15.51,15.58ZM39.42,124.82l12.35,12.39,12.39-12.34L51.82,112.48Z"/><path class="cls-9" d="M125.75,204.07l-24-24.1,24.1-24,24,24.1ZM104.92,180l20.83,20.92,20.92-20.83-20.83-20.92Z"/><path class="cls-9" d="M126,93.36l-24-24.1,24.1-24,24,24.1ZM105.15,69.27,126,90.19,146.9,69.35,126.07,48.44Z"/></g><path class="cls-9" d="M73.4,160.37V136.29a13.38,13.38,0,0,1,11.35-13.72c1.14-.22,2.27-.47,3.42-.65a1,1,0,0,0,1-1c0-.61.59-1.18-.2-1.79a9.74,9.74,0,0,1-3.2-4.63,2.85,2.85,0,0,0-.74-1.11,14.89,14.89,0,0,1-4.85-11.52c0-2.4,0-4.8,0-7.2a5,5,0,0,1,5.31-5.31c4.89,0,9.79.14,14.69.19a10.44,10.44,0,0,1,6,2.38c.2.14.39.29.64.49,1.3-4,4.07-6.79,7.31-9.26a17.37,17.37,0,0,1,11.14-4c10,.3,15.41,4.18,19.87,13.54,1.54-.86,3.08-1.73,4.63-2.58a3.16,3.16,0,0,1,1-.4,23.79,23.79,0,0,1,11.5.22,16.24,16.24,0,0,1,5,2.89c6.29,5,5.59,14.86-.08,20.24a11.76,11.76,0,0,0-1.24,1.88,35.47,35.47,0,0,1-3,4.06c-.67.71-.33,1.22-.26,1.87s.47.92,1.11,1c1.42.25,2.83.54,4.24.85a13.27,13.27,0,0,1,10.4,12.67c.06,8.14,0,16.29,0,24.44,0,.14,0,.27,0,.48Zm69.41-40.24c0-7.25.24-14.56-.06-21.85a16.74,16.74,0,0,0-16.52-15.72,16.93,16.93,0,0,0-17.26,17c0,6.59,0,13.19,0,19.79,0,.3,0,.61,0,.8,2.5-.46,5-.83,7.39-1.42a5.36,5.36,0,0,0,2.19-1.49c.52-.5.45-1-.29-1.51a12.37,12.37,0,0,1-5.75-9.32c-.29-3.25-.12-6.55-.15-9.82,0-.06.08-.11.13-.19l3.51-.7a12.74,12.74,0,0,0,7.57-4.49,3,3,0,0,0,.57-1.6c.09-1.18,0-2.37,0-3.57h3.39c0,1.24-.06,2.41,0,3.56a3,3,0,0,0,.57,1.6,12.2,12.2,0,0,0,6.75,4.29c1.46.36,2.95.63,4.51,1,0,2.92.05,5.8,0,8.69a12.92,12.92,0,0,1-5,10.09c-.51.41-1.07.78-1.62,1.19a3.25,3.25,0,0,0,2.63,2.36ZM124.14,157c0-.18.06-.28.07-.39,0-4.61,0-9.23,0-13.85a2.86,2.86,0,0,0-.4-1.27c-3.2-6-6.45-12-9.63-18a1.2,1.2,0,0,0-1.56-.74,15.38,15.38,0,0,0-10.17,7.46c-2.42,4.14-1.9,8.68-1.91,13.17h6.83a22.35,22.35,0,0,1,1.76-10.58l3.1,1c-.08.32-.12.53-.19.72a18.34,18.34,0,0,0,.56,15.07,13.05,13.05,0,0,1,1.49,7.12c0,.05.06.12.11.22Zm27-13.56a77.93,77.93,0,0,0-.05-8.1c-.63-6.13-5.94-11.53-12-12.58a1,1,0,0,0-1.26.56c-3.26,6.12-6.56,12.22-9.83,18.33a2.68,2.68,0,0,0-.32,1.19c0,4.55,0,9.1,0,13.65a3.7,3.7,0,0,0,.06.48h10.25c-.81-3.17.75-5.75,1.78-8.46.07-.2.15-.4.23-.59a17.18,17.18,0,0,0,.45-11.49c-.26-.83-.51-1.66-.79-2.56l3.12-1a22.62,22.62,0,0,1,1.77,10.61Zm-67.71-17a6.71,6.71,0,0,0-.71.25,9.6,9.6,0,0,0-5.88,9c-.09,6.83,0,13.67,0,20.51,0,.23,0,.47,0,.72h3.39v-18.5h3.36V157H93.72c0-3.73,0-7.39,0-11a2.39,2.39,0,0,0-.36-1l-4.15-7.73ZM175,157c0-.26,0-.43,0-.6,0-7,0-14,0-20.95a8.91,8.91,0,0,0-.49-2.8,9.69,9.69,0,0,0-6.05-6.24c-.24.42-.44.75-.62,1.09-2.46,4.55-4.77,9.2-7.42,13.65a15.07,15.07,0,0,0-2.35,9.49c.17,1.78,0,3.59,0,5.39,0,.31,0,.61,0,.91h10.14V138.5h3.4V157ZM125.91,93.8a17,17,0,0,1-9.73,5.31.76.76,0,0,0-.42.58,52.11,52.11,0,0,0,.23,6.85c.73,4.78,5.18,8.22,10.23,8.18a9.62,9.62,0,0,0,9.65-8.22,50.4,50.4,0,0,0,.17-6.85c0-.19-.33-.52-.55-.56A17,17,0,0,1,125.91,93.8Zm-20.29,12.65a80.82,80.82,0,0,1,.07-8.24A3.64,3.64,0,0,0,104,94.56a7.78,7.78,0,0,0-4.65-1.81c-4.69-.07-9.38,0-14.08,0a1.6,1.6,0,0,0-1.73,1.72c0,3-.07,5.93,0,8.89a8.79,8.79,0,0,0,1.59,4.81c.25-3.67,1.67-5.2,5.17-5.77.73-.12,1.47-.23,2.2-.33,3-.41,4-1.32,4.63-4.2h3.34l-.35,2.33C103.53,102.11,104.37,103.11,105.62,106.45Zm61,1.67c3.72-6.1.64-13.91-6.27-15.17a34.64,34.64,0,0,0-6.12-.22,9.42,9.42,0,0,0-6.76,2.79,3.47,3.47,0,0,0-1.32,3.12c.21,2,.06,4,.07,6v1.6a20.53,20.53,0,0,1,2-3.49,22.94,22.94,0,0,1,3.35-2.81l-.32-2.13h3.35c.56,2.8,1.73,3.86,4.54,4.2.74.08,1.47.2,2.2.32C165,103,166.28,104.37,166.63,108.12Zm-64.36,1.7h-.08c0-.64,0-1.28,0-1.91a4.82,4.82,0,0,0-3.12-4.39,2.09,2.09,0,0,0-1.39.17c-1.24.48-2.4,1.15-3.66,1.52a33.3,33.3,0,0,1-3.75.61,1.69,1.69,0,0,0-1.61,1.87c0,1.3,0,2.61,0,3.91a6.8,6.8,0,0,0,6.12,6.49,6.73,6.73,0,0,0,7.2-5.23A25.24,25.24,0,0,0,102.27,109.82Zm61-.08h-.05v-1c0-2.58-.25-2.83-2.84-3.16-2.31-.28-4.64-.49-6.5-2.17-.18-.17-.67-.1-1,0a5,5,0,0,0-3.24,4.54c0,1.12,0,2.25,0,3.38a6.75,6.75,0,0,0,13.4,1.2A22.18,22.18,0,0,0,163.22,109.74Zm-41.16,8.15a6.92,6.92,0,0,1-4.86,4.19c1.06,2,2,3.84,3.08,5.67a1.18,1.18,0,0,0,.89.5c3.17,0,6.34,0,9.51,0a1,1,0,0,0,.72-.27c1.09-1.95,2.14-3.92,3.22-5.94a6.91,6.91,0,0,1-4.89-4.16Zm25.83,29c-1.24,0-2.37,0-3.49,0a1.09,1.09,0,0,0-.74.61c-.68,1.66-1.21,3.39-2,5a9.35,9.35,0,0,0-.51,4.44h6.7Zm-44,10.08h6.67a8.87,8.87,0,0,0-.68-4.89c-.69-1.5-1.17-3.09-1.78-4.62a.91.91,0,0,0-.6-.54c-1.19-.06-2.37,0-3.61,0Zm-6.68,0h3.19v-9.71l-3.19-2Zm57.36,0c.38-3.43.16-11.21-.17-11.61l-3.12,1.85v9.42a1.36,1.36,0,0,0,.08.34Zm-32.22-25.3,3.52,6.53,3.51-6.53Zm24.06-17.89-.22.05c0,2.48,0,5,0,7.44,0,1,.4,1.17,1.24.94a11.75,11.75,0,0,1,1.65-.33c.61-.08,1-.33,1-1s.6-1.23-.24-1.87a9.28,9.28,0,0,1-3.13-4.56C146.68,114.28,146.55,114.06,146.45,113.82Zm-40.87-.08c-.23.16-.32.19-.34.24a10.87,10.87,0,0,1-3.58,5.37c-.51.42,0,2.31.69,2.48s1.58.33,2.38.48c.57.11.86-.11.85-.73C105.57,119,105.58,116.45,105.58,113.74Zm-8.37,21.4c-2.33-.32-2.34-.33-3.34,1.73-.18.39-.43.94-.29,1.25.5,1.14,1.15,2.22,1.76,3.35A8.37,8.37,0,0,0,97.21,135.14Zm59.19,6.24c2-2.62,2.17-3.41,1-5.67-.05-.09-.07-.21-.14-.27s-.37-.36-.57-.37c-.69,0-1.39,0-2.06,0C154.5,137.4,154.78,139.55,156.4,141.38Zm-58.16-20H92.59c-.45.71-.24,1.22.59,1.75,2.27,1.42,2.22,1.42,4.48,0C98.48,122.55,98.7,122,98.24,121.33Zm55,1.11.88.6c2.26,1.51,2.23,1.46,4.56,0,.89-.56.89-1.1.51-1.71h-5.68ZM98.64,130c-1.54-.2-2.63-2.27-4.6-.72.83.69,0,2.45,1.88,2.41C98.21,131.62,98.21,131.67,98.64,130Zm54.47.14.57,1.47c3.2.29,3.47.13,3.95-2.65-.54-.09-1.15-.38-1.61-.23A24.12,24.12,0,0,0,153.11,130.12ZM165,125.7c-1.87-.56-3.59-1.15-5,.75l3.64,1.82Zm-76.74,2.59,3.63-1.84c-1.43-1.93-3.16-1.3-5-.75Zm3.21,6c.71-1.51-.14-2.43-.41-3.57l-1.18.61Zm69-.09,1.54-2.87-1.27-.62C160.61,131.87,159.54,132.75,160.42,134.15Zm-7.63-7.67c-.8-1.14-1.79-1.56-2.75-1.14l1.41,1.79Zm-51-1.24c-1.41-.49-2,.6-3,1.13l1.57.76Z"/></svg>