<svg width="654" height="250" viewBox="0 0 654 250" fill="none" xmlns="http://www.w3.org/2000/svg">
<path d="M361.45 138.5L361.66 139.65L361.87 138.5L363.66 132.81H365L366.79 138.5L367.03 139.79H367.08L367.34 138.5L368.66 132.81H370.37L367.77 141.76H366.46L364.68 136.31L364.35 134.89H364.3L363.98 136.31L362.24 141.76H361L358.4 132.81H360.1L361.45 138.5Z" fill="black"/>
<path d="M375.69 141.94C375.13 141.97 374.57 141.876 374.051 141.663C373.532 141.45 373.067 141.125 372.69 140.71C371.941 139.797 371.556 138.639 371.61 137.46V137.1C371.566 135.935 371.962 134.796 372.72 133.91C373.051 133.511 373.467 133.191 373.938 132.973C374.408 132.755 374.921 132.645 375.44 132.65C375.944 132.614 376.449 132.695 376.916 132.888C377.382 133.081 377.798 133.379 378.13 133.76C378.771 134.624 379.089 135.685 379.03 136.76V137.62H373.3C373.267 138.39 373.473 139.151 373.89 139.8C374.099 140.081 374.375 140.306 374.693 140.452C375.011 140.599 375.36 140.664 375.71 140.64C376.207 140.653 376.701 140.575 377.17 140.41C377.563 140.26 377.926 140.039 378.24 139.76L378.88 140.82C378.51 141.159 378.079 141.424 377.61 141.6C376.998 141.836 376.346 141.951 375.69 141.94ZM375.44 133.94C375.17 133.934 374.903 133.991 374.658 134.106C374.414 134.22 374.199 134.389 374.03 134.6C373.637 135.078 373.396 135.663 373.34 136.28H377.34V136.15C377.363 135.575 377.194 135.008 376.86 134.54C376.687 134.334 376.469 134.172 376.222 134.066C375.976 133.96 375.708 133.914 375.44 133.93V133.94Z" fill="black"/>
<path d="M385.1 134.25L384.26 134.2C383.873 134.186 383.492 134.294 383.17 134.51C382.868 134.727 382.632 135.025 382.49 135.37V141.76H380.86V132.81H382.31L382.47 134.12C382.696 133.689 383.017 133.316 383.41 133.03C383.791 132.775 384.241 132.642 384.7 132.65H385.05C385.142 132.663 385.233 132.687 385.32 132.72L385.1 134.25Z" fill="black"/>
<path d="M390.34 141.94C389.78 141.969 389.221 141.874 388.702 141.661C388.184 141.448 387.718 141.124 387.34 140.71C386.591 139.797 386.206 138.639 386.26 137.46V137.1C386.22 135.934 386.62 134.795 387.38 133.91C387.711 133.511 388.127 133.191 388.598 132.973C389.068 132.755 389.581 132.645 390.1 132.65C390.604 132.614 391.109 132.695 391.576 132.888C392.042 133.081 392.458 133.379 392.79 133.76C393.431 134.624 393.749 135.685 393.69 136.76V137.62H388C387.963 138.391 388.169 139.153 388.59 139.8C388.799 140.081 389.075 140.306 389.393 140.452C389.711 140.599 390.061 140.664 390.41 140.64C390.903 140.653 391.395 140.575 391.86 140.41C392.257 140.262 392.623 140.042 392.94 139.76L393.57 140.82C393.204 141.159 392.776 141.423 392.31 141.6C391.682 141.841 391.013 141.957 390.34 141.94V141.94ZM390.09 133.94C389.819 133.936 389.55 133.993 389.304 134.107C389.059 134.222 388.842 134.39 388.67 134.6C388.28 135.079 388.043 135.664 387.99 136.28H391.99V136.15C392.013 135.575 391.844 135.008 391.51 134.54C391.337 134.335 391.118 134.173 390.872 134.068C390.625 133.962 390.358 133.915 390.09 133.93V133.94Z" fill="black"/>
<path d="M399.35 137.45C399.288 136.223 399.61 135.007 400.27 133.97C400.554 133.55 400.939 133.209 401.39 132.978C401.841 132.747 402.343 132.635 402.85 132.65C403.332 132.639 403.81 132.735 404.25 132.93C404.642 133.136 404.983 133.427 405.25 133.78V128.86H406.88V141.76H405.63L405.38 140.63C405.112 141.051 404.74 141.396 404.3 141.63C403.834 141.859 403.319 141.972 402.8 141.96C402.308 141.981 401.818 141.884 401.371 141.677C400.924 141.47 400.533 141.159 400.23 140.77C399.578 139.865 399.253 138.765 399.31 137.65L399.35 137.45ZM400.98 137.63C400.941 138.393 401.132 139.149 401.53 139.8C401.723 140.072 401.983 140.289 402.284 140.43C402.585 140.572 402.918 140.634 403.25 140.61C403.684 140.626 404.112 140.511 404.48 140.28C404.822 140.045 405.1 139.729 405.29 139.36V135.18C405.096 134.822 404.814 134.519 404.47 134.3C404.112 134.072 403.694 133.957 403.27 133.97C402.915 133.956 402.563 134.042 402.255 134.219C401.947 134.396 401.696 134.656 401.53 134.97C401.131 135.745 400.942 136.61 400.98 137.48V137.63Z" fill="black"/>
<path d="M413.06 141.94C412.5 141.969 411.941 141.874 411.422 141.662C410.903 141.449 410.438 141.124 410.06 140.71C409.311 139.797 408.926 138.639 408.98 137.46V137.1C408.936 135.935 409.332 134.796 410.09 133.91C410.421 133.511 410.837 133.191 411.308 132.973C411.778 132.755 412.291 132.644 412.81 132.65C413.314 132.612 413.82 132.693 414.287 132.886C414.754 133.078 415.169 133.378 415.5 133.76C416.141 134.624 416.459 135.685 416.4 136.76V137.62H410.68C410.646 138.391 410.856 139.154 411.28 139.8C411.487 140.082 411.763 140.308 412.082 140.455C412.4 140.602 412.75 140.665 413.1 140.64C413.593 140.653 414.085 140.575 414.55 140.41C414.944 140.262 415.307 140.041 415.62 139.76L416.26 140.82C415.892 141.16 415.46 141.426 414.99 141.6C414.375 141.839 413.719 141.955 413.06 141.94V141.94ZM412.8 133.94C412.53 133.934 412.263 133.991 412.018 134.105C411.774 134.22 411.559 134.389 411.39 134.6C411 135.079 410.763 135.664 410.71 136.28V136.28H414.71V136.15C414.733 135.574 414.564 135.008 414.23 134.54C414.056 134.333 413.836 134.17 413.588 134.064C413.339 133.958 413.069 133.912 412.8 133.93V133.94Z" fill="black"/>
<path d="M421.1 139.12L421.24 139.75H421.29L421.45 139.12L423.51 132.81H425.17L421.88 141.76H420.65L417.31 132.81H419L421.1 139.12Z" fill="black"/>
<path d="M430.24 141.94C429.68 141.969 429.121 141.874 428.602 141.662C428.083 141.449 427.618 141.124 427.24 140.71C426.491 139.797 426.106 138.639 426.16 137.46V137.1C426.116 135.935 426.512 134.796 427.27 133.91C427.601 133.511 428.017 133.191 428.488 132.973C428.958 132.755 429.471 132.644 429.99 132.65C430.494 132.612 431 132.693 431.467 132.886C431.934 133.078 432.349 133.378 432.68 133.76C433.321 134.624 433.639 135.685 433.58 136.76V137.62H427.86C427.826 138.391 428.036 139.154 428.46 139.8C428.667 140.082 428.943 140.308 429.262 140.455C429.58 140.602 429.93 140.665 430.28 140.64C430.773 140.653 431.265 140.575 431.73 140.41C432.124 140.262 432.487 140.041 432.8 139.76L433.44 140.82C433.072 141.16 432.64 141.426 432.17 141.6C431.555 141.839 430.899 141.955 430.24 141.94ZM429.98 133.94C429.71 133.934 429.443 133.991 429.198 134.105C428.954 134.22 428.739 134.389 428.57 134.6C428.18 135.079 427.943 135.664 427.89 136.28V136.28H431.89V136.15C431.913 135.574 431.744 135.008 431.41 134.54C431.238 134.336 431.022 134.174 430.777 134.068C430.532 133.963 430.266 133.915 430 133.93L429.98 133.94Z" fill="black"/>
<path d="M437.16 141.76H435.53V128.86H437.16V141.76Z" fill="black"/>
<path d="M439.29 137.21C439.243 136.022 439.626 134.857 440.37 133.93C440.725 133.505 441.173 133.169 441.68 132.947C442.186 132.725 442.737 132.623 443.29 132.65C443.845 132.623 444.4 132.724 444.909 132.946C445.419 133.168 445.871 133.505 446.23 133.93C446.975 134.856 447.359 136.022 447.31 137.21V137.39C447.359 138.575 446.975 139.737 446.23 140.66C445.856 141.063 445.402 141.384 444.898 141.604C444.394 141.823 443.85 141.937 443.3 141.937C442.75 141.937 442.206 141.823 441.702 141.604C441.198 141.384 440.744 141.063 440.37 140.66C439.625 139.737 439.241 138.575 439.29 137.39V137.21ZM440.92 137.39C440.887 138.215 441.096 139.031 441.52 139.74C441.721 140.024 441.988 140.257 442.298 140.417C442.608 140.577 442.951 140.661 443.3 140.661C443.649 140.661 443.992 140.577 444.302 140.417C444.612 140.257 444.879 140.024 445.08 139.74C445.504 139.031 445.712 138.215 445.68 137.39V137.21C445.712 136.383 445.5 135.566 445.07 134.86C444.871 134.573 444.606 134.339 444.297 134.177C443.988 134.015 443.644 133.931 443.295 133.931C442.946 133.931 442.602 134.015 442.293 134.177C441.984 134.339 441.719 134.573 441.52 134.86C441.098 135.569 440.89 136.385 440.92 137.21V137.39Z" fill="black"/>
<path d="M456.93 137.63C456.987 138.745 456.662 139.845 456.01 140.75C455.71 141.139 455.32 141.45 454.875 141.657C454.429 141.864 453.941 141.961 453.45 141.94C452.952 141.953 452.457 141.858 452 141.66C451.582 141.479 451.217 141.193 450.94 140.83V145.21H449.3V132.81H450.55L450.81 133.97C451.084 133.551 451.459 133.208 451.9 132.97C452.377 132.742 452.901 132.629 453.43 132.64C453.939 132.631 454.441 132.75 454.891 132.988C455.34 133.226 455.722 133.574 456 134C456.66 135.037 456.982 136.253 456.92 137.48L456.93 137.63ZM455.3 137.45C455.335 136.578 455.127 135.712 454.7 134.95C454.527 134.638 454.271 134.379 453.961 134.203C453.65 134.026 453.297 133.939 452.94 133.95C452.518 133.939 452.101 134.05 451.74 134.27C451.403 134.486 451.127 134.786 450.94 135.14V139.47C451.127 139.836 451.414 140.141 451.769 140.348C452.123 140.555 452.53 140.657 452.94 140.64C453.281 140.662 453.621 140.596 453.929 140.449C454.237 140.302 454.503 140.079 454.7 139.8C455.12 139.15 455.326 138.384 455.29 137.61L455.3 137.45Z" fill="black"/>
<path d="M462.64 141.94C462.08 141.97 461.52 141.876 461.001 141.663C460.483 141.45 460.018 141.125 459.64 140.71C458.891 139.797 458.506 138.639 458.56 137.46V137.1C458.516 135.935 458.912 134.796 459.67 133.91C460.001 133.511 460.417 133.191 460.888 132.973C461.358 132.755 461.872 132.645 462.39 132.65C462.894 132.614 463.399 132.695 463.866 132.888C464.333 133.081 464.748 133.379 465.08 133.76C465.721 134.624 466.039 135.685 465.98 136.76V137.62H460.25C460.217 138.39 460.423 139.151 460.84 139.8C461.049 140.081 461.325 140.306 461.643 140.452C461.961 140.599 462.311 140.664 462.66 140.64C463.157 140.653 463.651 140.575 464.12 140.41C464.513 140.26 464.876 140.039 465.19 139.76L465.83 140.82C465.46 141.159 465.029 141.424 464.56 141.6C463.948 141.836 463.296 141.951 462.64 141.94V141.94ZM462.39 133.94C462.12 133.934 461.853 133.991 461.608 134.106C461.364 134.22 461.149 134.389 460.98 134.6C460.587 135.078 460.347 135.663 460.29 136.28V136.28H464.29V136.15C464.313 135.575 464.144 135.008 463.81 134.54C463.637 134.334 463.419 134.172 463.172 134.066C462.926 133.96 462.658 133.914 462.39 133.93V133.94Z" fill="black"/>
<path d="M467.44 137.45C467.378 136.223 467.7 135.007 468.36 133.97C468.644 133.55 469.029 133.209 469.48 132.978C469.931 132.747 470.433 132.635 470.94 132.65C471.422 132.639 471.9 132.735 472.34 132.93C472.732 133.136 473.073 133.427 473.34 133.78V128.86H475V141.76H473.75L473.5 140.63C473.232 141.051 472.86 141.396 472.42 141.63C471.954 141.859 471.439 141.972 470.92 141.96C470.428 141.981 469.938 141.884 469.491 141.677C469.044 141.47 468.653 141.159 468.35 140.77C467.698 139.865 467.373 138.765 467.43 137.65L467.44 137.45ZM469.07 137.63C469.031 138.393 469.222 139.149 469.62 139.8C469.813 140.072 470.073 140.289 470.374 140.43C470.675 140.572 471.008 140.634 471.34 140.61C471.774 140.626 472.202 140.511 472.57 140.28C472.912 140.045 473.19 139.729 473.38 139.36V135.18C473.186 134.822 472.904 134.519 472.56 134.3C472.202 134.072 471.784 133.957 471.36 133.97C471.005 133.956 470.653 134.042 470.345 134.219C470.037 134.396 469.786 134.656 469.62 134.97C469.221 135.745 469.032 136.61 469.07 137.48V137.63Z" fill="black"/>
<path d="M312.21 162.1V154.36H310.81V153.15H312.21V152C312.159 151.194 312.429 150.399 312.96 149.79C313.235 149.522 313.563 149.315 313.923 149.181C314.283 149.046 314.667 148.988 315.05 149.01C315.24 148.995 315.43 148.995 315.62 149.01L316.25 149.14L316.05 150.38L315.69 150.33C315.544 150.32 315.396 150.32 315.25 150.33C315.052 150.315 314.853 150.346 314.669 150.42C314.485 150.495 314.321 150.611 314.19 150.76C313.935 151.117 313.811 151.552 313.84 151.99V153.13H315.47V154.34H313.84V162.08L312.21 162.1Z" fill="black"/>
<path d="M316.73 157.54C316.684 156.356 317.068 155.194 317.81 154.27C318.164 153.845 318.612 153.507 319.119 153.283C319.625 153.059 320.177 152.955 320.73 152.98C321.286 152.955 321.841 153.059 322.35 153.282C322.86 153.506 323.312 153.844 323.67 154.27C324.415 155.193 324.799 156.355 324.75 157.54V157.73C324.799 158.915 324.415 160.078 323.67 161C323.296 161.403 322.842 161.724 322.338 161.944C321.834 162.164 321.29 162.277 320.74 162.277C320.19 162.277 319.646 162.164 319.142 161.944C318.638 161.724 318.184 161.403 317.81 161C317.066 160.077 316.683 158.915 316.73 157.73V157.54ZM318.36 157.73C318.329 158.555 318.537 159.371 318.96 160.08C319.161 160.365 319.428 160.597 319.738 160.758C320.048 160.918 320.391 161.002 320.74 161.002C321.089 161.002 321.432 160.918 321.742 160.758C322.052 160.597 322.319 160.365 322.52 160.08C322.943 159.371 323.151 158.555 323.12 157.73V157.54C323.152 156.717 322.939 155.903 322.51 155.2C322.311 154.913 322.046 154.679 321.737 154.517C321.428 154.356 321.084 154.271 320.735 154.271C320.386 154.271 320.042 154.356 319.733 154.517C319.424 154.679 319.159 154.913 318.96 155.2C318.538 155.906 318.33 156.719 318.36 157.54V157.73Z" fill="black"/>
<path d="M331 154.59L330.17 154.54C329.783 154.524 329.401 154.633 329.08 154.85C328.774 155.063 328.537 155.363 328.4 155.71V162.1H326.77V153.15H328.22L328.38 154.46C328.603 154.027 328.925 153.653 329.32 153.37C329.695 153.109 330.143 152.972 330.6 152.98C330.716 152.969 330.834 152.969 330.95 152.98L331.23 153.04L331 154.59Z" fill="black"/>
<path d="M339.16 151V153.16H340.85V154.37H339.16V159.8C339.142 159.958 339.156 160.118 339.201 160.271C339.245 160.424 339.32 160.566 339.42 160.69C339.512 160.778 339.62 160.846 339.738 160.89C339.857 160.935 339.983 160.955 340.11 160.95C340.213 160.959 340.317 160.959 340.42 160.95C340.518 160.93 340.615 160.903 340.71 160.87L340.94 161.99C340.78 162.109 340.595 162.191 340.4 162.23C340.172 162.292 339.937 162.326 339.7 162.33C339.409 162.345 339.119 162.299 338.847 162.196C338.575 162.093 338.327 161.934 338.12 161.73C337.902 161.469 337.738 161.168 337.636 160.844C337.535 160.52 337.499 160.178 337.53 159.84V154.41H336.1V153.2H337.53V151H339.16Z" fill="black"/>
<path d="M344.23 154.35C344.528 153.934 344.918 153.592 345.37 153.35C345.829 153.109 346.341 152.985 346.86 152.99C347.271 152.966 347.683 153.031 348.068 153.179C348.453 153.327 348.801 153.556 349.09 153.85C349.679 154.603 349.964 155.548 349.89 156.5V162.11H348.26V156.49C348.307 155.905 348.14 155.322 347.79 154.85C347.606 154.664 347.384 154.519 347.139 154.428C346.893 154.336 346.631 154.3 346.37 154.32C345.93 154.308 345.494 154.404 345.1 154.6C344.746 154.787 344.446 155.063 344.23 155.4V162.11H342.6V149.19H344.23V154.35Z" fill="black"/>
<path d="M355.94 162.28C355.379 162.311 354.818 162.215 354.299 162.001C353.78 161.786 353.316 161.458 352.94 161.04C352.189 160.133 351.804 158.977 351.86 157.8V157.44C351.815 156.273 352.215 155.133 352.98 154.25C353.307 153.849 353.721 153.526 354.19 153.306C354.659 153.086 355.172 152.975 355.69 152.98C356.196 152.946 356.703 153.029 357.172 153.223C357.64 153.417 358.057 153.718 358.39 154.1C359.031 154.965 359.349 156.026 359.29 157.1V157.96H353.56C353.524 158.735 353.734 159.502 354.16 160.15C354.368 160.432 354.644 160.657 354.962 160.804C355.28 160.951 355.63 161.015 355.98 160.99C356.473 160.999 356.964 160.921 357.43 160.76C357.825 160.615 358.189 160.394 358.5 160.11L359.14 161.17C358.772 161.507 358.345 161.771 357.88 161.95C357.261 162.184 356.602 162.296 355.94 162.28V162.28ZM355.68 154.28C355.411 154.277 355.145 154.333 354.901 154.446C354.657 154.558 354.442 154.724 354.27 154.93C353.88 155.413 353.643 156.002 353.59 156.62V156.62H357.59V156.49C357.613 155.911 357.441 155.34 357.1 154.87C356.926 154.667 356.707 154.508 356.461 154.403C356.214 154.299 355.947 154.254 355.68 154.27V154.28Z" fill="black"/>
<path d="M372 159.07C372.007 158.811 371.958 158.554 371.857 158.316C371.755 158.077 371.602 157.864 371.41 157.69C370.806 157.22 370.101 156.898 369.35 156.75C368.301 156.536 367.318 156.077 366.48 155.41C366.156 155.138 365.897 154.797 365.724 154.41C365.551 154.024 365.467 153.604 365.48 153.18C365.475 152.729 365.573 152.282 365.765 151.873C365.957 151.465 366.239 151.105 366.59 150.82C367.404 150.167 368.428 149.833 369.47 149.88C370.573 149.831 371.651 150.219 372.47 150.96C372.824 151.276 373.106 151.665 373.296 152.1C373.486 152.535 373.579 153.006 373.57 153.48V153.53H372C372.008 153.212 371.947 152.896 371.823 152.603C371.699 152.31 371.514 152.046 371.28 151.83C370.779 151.379 370.124 151.139 369.45 151.16C368.816 151.116 368.19 151.317 367.7 151.72C367.499 151.901 367.341 152.124 367.235 152.373C367.13 152.622 367.08 152.89 367.09 153.16C367.089 153.415 367.149 153.667 367.263 153.894C367.378 154.122 367.545 154.319 367.75 154.47C368.407 154.914 369.144 155.227 369.92 155.39C370.946 155.612 371.899 156.09 372.69 156.78C373 157.07 373.245 157.422 373.408 157.814C373.572 158.205 373.651 158.626 373.64 159.05C373.652 159.503 373.555 159.952 373.356 160.36C373.158 160.767 372.864 161.121 372.5 161.39C371.627 162.014 370.571 162.327 369.5 162.28C368.392 162.291 367.311 161.939 366.42 161.28C366 160.99 365.66 160.596 365.435 160.138C365.209 159.679 365.104 159.171 365.13 158.66V158.66H366.69C366.677 159.001 366.748 159.339 366.899 159.644C367.049 159.95 367.273 160.213 367.55 160.41C368.114 160.817 368.795 161.031 369.49 161.02C370.144 161.058 370.792 160.875 371.33 160.5C371.55 160.335 371.725 160.118 371.842 159.868C371.959 159.619 372.013 159.345 372 159.07V159.07Z" fill="black"/>
<path d="M375.9 162.1V150.1H379.69C380.384 150.068 381.077 150.18 381.725 150.43C382.373 150.68 382.961 151.062 383.453 151.552C383.945 152.043 384.33 152.63 384.583 153.277C384.835 153.924 384.95 154.616 384.92 155.31V156.96C384.958 157.655 384.849 158.35 384.599 159C384.349 159.65 383.964 160.239 383.47 160.729C382.976 161.219 382.384 161.6 381.732 161.845C381.081 162.089 380.385 162.194 379.69 162.15L375.9 162.1ZM377.53 151.34V160.83H379.69C380.184 160.853 380.677 160.766 381.133 160.576C381.59 160.386 381.998 160.097 382.33 159.73C383.002 158.947 383.358 157.942 383.33 156.91V155.24C383.359 154.215 383.002 153.216 382.33 152.44C382 152.071 381.592 151.781 381.135 151.59C380.678 151.4 380.184 151.315 379.69 151.34H377.53Z" fill="black"/>
<path d="M396 160.48C395.62 161.014 395.106 161.438 394.51 161.71C393.65 162.123 392.703 162.319 391.75 162.28C391.11 162.3 390.473 162.187 389.879 161.948C389.285 161.709 388.747 161.349 388.3 160.89C387.842 160.419 387.485 159.859 387.249 159.246C387.014 158.632 386.905 157.977 386.93 157.32V154.84C386.879 153.52 387.354 152.232 388.25 151.26C388.686 150.805 389.213 150.446 389.798 150.208C390.382 149.971 391.01 149.859 391.64 149.88C392.798 149.819 393.935 150.202 394.82 150.95C395.201 151.292 395.5 151.714 395.696 152.187C395.892 152.659 395.978 153.17 395.95 153.68V153.68H394.38C394.392 153.342 394.335 153.004 394.213 152.688C394.091 152.372 393.906 152.083 393.67 151.84C393.372 151.582 393.025 151.384 392.65 151.26C392.275 151.135 391.88 151.086 391.486 151.115C391.092 151.144 390.707 151.25 390.355 151.428C390.002 151.605 389.688 151.851 389.43 152.15C388.845 152.896 388.544 153.824 388.58 154.77V157.27C388.542 158.232 388.863 159.172 389.48 159.91C389.759 160.239 390.11 160.5 390.505 160.674C390.9 160.847 391.329 160.928 391.76 160.91C392.337 160.936 392.912 160.841 393.45 160.63C393.808 160.493 394.128 160.27 394.38 159.98V157.26H391.65V155.99H396V160.48Z" fill="black"/>
<path d="M409 159.84L412.85 150.05H414.85V162.05H413.22V153.05L409.57 162.05H408.44L404.68 152.72H404.63V162.04H403V150.04H405.14L409 159.84Z" fill="black"/>
<path d="M417.19 157.54C417.149 156.357 417.528 155.199 418.26 154.27C418.634 153.865 419.088 153.543 419.594 153.322C420.099 153.101 420.644 152.987 421.195 152.987C421.746 152.987 422.291 153.101 422.796 153.322C423.301 153.543 423.756 153.865 424.13 154.27C424.875 155.192 425.259 156.355 425.21 157.54V157.73C425.259 158.915 424.875 160.077 424.13 161C423.756 161.402 423.302 161.724 422.798 161.943C422.294 162.163 421.75 162.277 421.2 162.277C420.65 162.277 420.106 162.163 419.602 161.943C419.098 161.724 418.644 161.402 418.27 161C417.526 160.076 417.142 158.914 417.19 157.73V157.54ZM418.82 157.73C418.789 158.554 418.997 159.371 419.42 160.08C419.62 160.364 419.886 160.597 420.195 160.757C420.504 160.918 420.847 161.001 421.195 161.001C421.543 161.001 421.886 160.918 422.195 160.757C422.504 160.597 422.77 160.364 422.97 160.08C423.396 159.372 423.608 158.555 423.58 157.73V157.54C423.607 156.717 423.395 155.904 422.97 155.2C422.781 154.9 422.515 154.656 422.201 154.492C421.886 154.329 421.534 154.252 421.18 154.27C420.831 154.257 420.485 154.337 420.176 154.5C419.867 154.663 419.607 154.904 419.42 155.2C418.998 155.905 418.79 156.718 418.82 157.54V157.73Z" fill="black"/>
<path d="M434.85 158C434.905 159.119 434.577 160.223 433.92 161.13C433.618 161.519 433.226 161.83 432.779 162.037C432.332 162.244 431.842 162.341 431.35 162.32C430.811 162.333 430.278 162.209 429.8 161.96C429.356 161.727 428.981 161.382 428.71 160.96L428.45 162.17H427.2V149.19H428.83V154.19C429.097 153.803 429.459 153.49 429.88 153.28C430.334 153.059 430.835 152.95 431.34 152.96C431.847 152.946 432.35 153.06 432.802 153.293C433.253 153.525 433.638 153.869 433.92 154.29C434.584 155.326 434.909 156.542 434.85 157.77V158ZM433.22 157.83C433.257 156.958 433.06 156.092 432.65 155.32C432.487 155.006 432.237 154.746 431.931 154.568C431.624 154.391 431.274 154.305 430.92 154.32C430.468 154.305 430.023 154.435 429.65 154.69C429.295 154.948 429.013 155.292 428.83 155.69V159.58C429.017 159.976 429.299 160.32 429.65 160.58C430.029 160.84 430.481 160.97 430.94 160.95C431.272 160.974 431.604 160.911 431.904 160.768C432.204 160.624 432.461 160.404 432.65 160.13C433.059 159.483 433.258 158.725 433.22 157.96V157.83Z" fill="black"/>
<path d="M438.6 150.86H437V149.19H438.63L438.6 150.86ZM438.6 162.1H437V153.15H438.63L438.6 162.1Z" fill="black"/>
<path d="M442.87 162.1H441.24V149.19H442.87V162.1Z" fill="black"/>
<path d="M449.08 162.28C448.519 162.309 447.959 162.213 447.44 161.999C446.921 161.784 446.457 161.457 446.08 161.04C445.329 160.133 444.944 158.977 445 157.8V157.44C444.955 156.273 445.355 155.133 446.12 154.25C446.447 153.849 446.861 153.526 447.33 153.306C447.799 153.086 448.312 152.975 448.83 152.98C449.336 152.946 449.843 153.029 450.312 153.223C450.78 153.417 451.197 153.718 451.53 154.1C452.171 154.965 452.489 156.026 452.43 157.1V157.96H446.7C446.664 158.735 446.874 159.502 447.3 160.15C447.508 160.432 447.784 160.657 448.102 160.804C448.42 160.951 448.77 161.015 449.12 160.99C449.613 160.999 450.104 160.921 450.57 160.76C450.965 160.615 451.329 160.394 451.64 160.11L452.28 161.17C451.911 161.527 451.476 161.808 451 162C450.384 162.215 449.732 162.31 449.08 162.28V162.28ZM448.82 154.28C448.551 154.277 448.286 154.334 448.042 154.447C447.798 154.559 447.582 154.724 447.41 154.93C447.02 155.413 446.783 156.002 446.73 156.62V156.62H450.73V156.49C450.752 155.912 450.583 155.343 450.25 154.87C450.073 154.668 449.853 154.508 449.605 154.404C449.357 154.3 449.088 154.255 448.82 154.27V154.28Z" fill="black"/>
<path d="M460.31 160.83H466.19V162.1H458.68V150.1H460.31V160.83Z" fill="black"/>
<path d="M471.48 162.28C470.919 162.309 470.359 162.213 469.84 161.998C469.321 161.784 468.857 161.457 468.48 161.04C467.729 160.132 467.344 158.977 467.4 157.8V157.44C467.36 156.274 467.76 155.135 468.52 154.25C468.849 153.848 469.265 153.526 469.736 153.306C470.206 153.086 470.72 152.975 471.24 152.98C471.744 152.946 472.25 153.03 472.717 153.224C473.183 153.418 473.599 153.718 473.93 154.1C474.571 154.964 474.889 156.026 474.83 157.1V157.96H469.1C469.061 158.734 469.268 159.5 469.69 160.15C469.899 160.431 470.175 160.656 470.493 160.802C470.811 160.949 471.161 161.014 471.51 160.99C472.003 160.998 472.494 160.92 472.96 160.76C473.357 160.612 473.723 160.392 474.04 160.11L474.67 161.17C474.302 161.506 473.875 161.771 473.41 161.95C472.794 162.183 472.139 162.295 471.48 162.28V162.28ZM471.23 154.28C470.96 154.276 470.692 154.333 470.447 154.445C470.201 154.557 469.984 154.723 469.81 154.93C469.42 155.413 469.183 156.001 469.13 156.62V156.62H473.13V156.49C473.152 155.912 472.983 155.343 472.65 154.87C472.475 154.668 472.256 154.509 472.01 154.405C471.763 154.301 471.497 154.255 471.23 154.27V154.28Z" fill="black"/>
<path d="M482.15 162.1C482.09 161.83 482.05 161.59 482.02 161.39C482.005 161.181 482.005 160.97 482.02 160.76C481.703 161.2 481.298 161.568 480.83 161.84C480.354 162.131 479.807 162.283 479.25 162.28C478.865 162.307 478.479 162.257 478.113 162.134C477.747 162.01 477.41 161.815 477.12 161.56C476.865 161.297 476.668 160.982 476.543 160.638C476.417 160.293 476.365 159.926 476.39 159.56C476.375 159.17 476.458 158.782 476.633 158.432C476.808 158.082 477.068 157.783 477.39 157.56C478.235 157.039 479.219 156.787 480.21 156.84H482V156C482.012 155.772 481.975 155.543 481.892 155.329C481.81 155.116 481.683 154.922 481.52 154.76C481.335 154.598 481.119 154.474 480.886 154.395C480.653 154.316 480.406 154.284 480.16 154.3C479.701 154.28 479.249 154.417 478.88 154.69C478.724 154.805 478.597 154.956 478.512 155.13C478.427 155.304 478.385 155.497 478.39 155.69H476.84C476.833 155.34 476.912 154.994 477.071 154.681C477.23 154.369 477.463 154.101 477.75 153.9C478.463 153.339 479.354 153.052 480.26 153.09C481.144 153.047 482.014 153.324 482.71 153.87C483.026 154.146 483.274 154.49 483.435 154.877C483.596 155.264 483.667 155.682 483.64 156.1V160.41C483.62 160.72 483.62 161.031 483.64 161.34C483.67 161.636 483.73 161.927 483.82 162.21L482.15 162.1ZM479.44 160.91C480.006 160.918 480.561 160.762 481.04 160.46C481.455 160.22 481.781 159.851 481.97 159.41V158H480.14C479.572 157.971 479.012 158.144 478.56 158.49C478.38 158.628 478.233 158.805 478.131 159.008C478.028 159.21 477.973 159.434 477.97 159.66C477.96 159.835 477.988 160.009 478.052 160.171C478.116 160.333 478.214 160.48 478.34 160.6C478.653 160.842 479.047 160.953 479.44 160.91Z" fill="black"/>
<path d="M490.2 154.59L489.37 154.54C488.989 154.524 488.613 154.628 488.296 154.838C487.978 155.048 487.734 155.353 487.6 155.71V162.1H486V153.15H487.46L487.62 154.46C487.84 154.026 488.163 153.651 488.56 153.37C488.935 153.109 489.383 152.972 489.84 152.98C489.956 152.969 490.074 152.969 490.19 152.98L490.47 153.04L490.2 154.59Z" fill="black"/>
<path d="M493.35 153.15L493.47 154.48C493.749 154.028 494.133 153.65 494.59 153.38C495.189 153.054 495.875 152.922 496.552 153.003C497.229 153.083 497.864 153.372 498.37 153.83C498.956 154.571 499.238 155.508 499.16 156.45V162.1H497.53V156.48C497.59 155.882 497.426 155.284 497.07 154.8C496.878 154.624 496.652 154.49 496.406 154.406C496.16 154.321 495.899 154.289 495.64 154.31C495.194 154.296 494.753 154.4 494.36 154.61C494.008 154.808 493.72 155.103 493.53 155.46V162.1H491.9V153.15H493.35Z" fill="black"/>
<path d="M503.29 150.86H501.66V149.19H503.29V150.86ZM503.29 162.1H501.66V153.15H503.29V162.1Z" fill="black"/>
<path d="M507.26 153.15L507.37 154.48C507.648 154.028 508.033 153.65 508.49 153.38C509.089 153.054 509.775 152.922 510.452 153.003C511.129 153.083 511.764 153.372 512.27 153.83C512.859 154.57 513.145 155.507 513.07 156.45V162.1H511.44V156.48C511.497 155.881 511.329 155.282 510.97 154.8C510.779 154.624 510.553 154.489 510.306 154.405C510.06 154.32 509.799 154.288 509.54 154.31C509.094 154.296 508.653 154.4 508.26 154.61C507.91 154.811 507.623 155.105 507.43 155.46V162.1H505.8V153.15H507.26Z" fill="black"/>
<path d="M515.14 157.79C515.081 156.561 515.406 155.345 516.07 154.31C516.347 153.885 516.73 153.54 517.18 153.306C517.63 153.073 518.133 152.961 518.64 152.98C519.15 152.964 519.656 153.079 520.109 153.314C520.562 153.548 520.948 153.894 521.23 154.32L521.42 153.15H522.72V162.15C522.752 162.637 522.68 163.126 522.507 163.583C522.335 164.04 522.066 164.455 521.72 164.8C520.908 165.461 519.875 165.789 518.83 165.72C518.361 165.714 517.895 165.654 517.44 165.54C516.982 165.435 516.538 165.274 516.12 165.06L516.37 163.79C516.729 163.975 517.113 164.11 517.51 164.19C517.939 164.291 518.379 164.345 518.82 164.35C519.447 164.402 520.069 164.204 520.55 163.8C520.745 163.574 520.893 163.312 520.986 163.029C521.078 162.745 521.114 162.447 521.09 162.15V161.15C520.801 161.517 520.427 161.809 520 162C519.557 162.198 519.076 162.297 518.59 162.29C518.099 162.311 517.61 162.215 517.165 162.007C516.719 161.8 516.33 161.489 516.03 161.1C515.373 160.193 515.045 159.088 515.1 157.97L515.14 157.79ZM516.77 157.96C516.734 158.723 516.929 159.479 517.33 160.13C517.51 160.406 517.758 160.632 518.05 160.785C518.343 160.937 518.67 161.011 519 161C519.434 161.015 519.862 160.9 520.23 160.67C520.585 160.412 520.867 160.068 521.05 159.67V155.55C520.854 155.185 520.572 154.873 520.23 154.64C519.868 154.412 519.447 154.297 519.02 154.31C518.666 154.293 518.315 154.379 518.008 154.556C517.702 154.733 517.452 154.995 517.29 155.31C516.888 156.083 516.695 156.948 516.73 157.82L516.77 157.96Z" fill="black"/>
<path d="M375.38 177.61V182.44H373.74V170.39H378.35C379.442 170.324 380.516 170.682 381.35 171.39C381.707 171.723 381.989 172.13 382.175 172.582C382.361 173.034 382.448 173.521 382.43 174.01C382.452 174.499 382.366 174.986 382.18 175.439C381.993 175.892 381.71 176.298 381.35 176.63C380.516 177.337 379.442 177.696 378.35 177.63L375.38 177.61ZM375.38 176.33H378.38C378.714 176.355 379.049 176.311 379.364 176.199C379.679 176.087 379.967 175.91 380.21 175.68C380.622 175.227 380.841 174.631 380.82 174.02C380.836 173.403 380.618 172.802 380.21 172.34C379.97 172.105 379.683 171.923 379.367 171.808C379.052 171.692 378.715 171.645 378.38 171.67H375.38V176.33Z" fill="black"/>
<path d="M388.53 174.93L387.7 174.88C387.315 174.867 386.934 174.971 386.61 175.18C386.308 175.398 386.072 175.696 385.93 176.04V182.44H384.3V173.49H385.75L385.91 174.79C386.135 174.362 386.457 173.993 386.85 173.71C387.228 173.448 387.68 173.311 388.14 173.32C388.253 173.31 388.367 173.31 388.48 173.32L388.76 173.38L388.53 174.93Z" fill="black"/>
<path d="M389.68 177.88C389.634 176.695 390.018 175.534 390.76 174.61C391.115 174.185 391.563 173.848 392.07 173.625C392.576 173.401 393.127 173.297 393.68 173.32C394.235 173.295 394.789 173.398 395.298 173.62C395.808 173.842 396.26 174.177 396.62 174.6C397.364 175.527 397.747 176.692 397.7 177.88V178.06C397.749 179.246 397.369 180.411 396.63 181.34C396.256 181.744 395.801 182.067 395.296 182.288C394.791 182.508 394.246 182.622 393.695 182.622C393.144 182.622 392.599 182.508 392.094 182.288C391.588 182.067 391.134 181.744 390.76 181.34C390.016 180.413 389.633 179.248 389.68 178.06V177.88ZM391.31 178.06C391.276 178.885 391.485 179.702 391.91 180.41C392.11 180.697 392.376 180.931 392.686 181.093C392.996 181.254 393.34 181.339 393.69 181.339C394.04 181.339 394.384 181.254 394.694 181.093C395.004 180.931 395.27 180.697 395.47 180.41C395.895 179.702 396.104 178.885 396.07 178.06V177.88C396.103 177.057 395.891 176.242 395.46 175.54C395.263 175.251 394.998 175.015 394.688 174.852C394.379 174.688 394.035 174.603 393.685 174.603C393.335 174.603 392.991 174.688 392.681 174.852C392.372 175.015 392.107 175.251 391.91 175.54C391.487 176.245 391.279 177.058 391.31 177.88V178.06Z" fill="black"/>
<path d="M399.41 178.13C399.351 176.9 399.672 175.681 400.33 174.64C400.614 174.22 400.999 173.878 401.45 173.648C401.901 173.417 402.404 173.304 402.91 173.32C403.43 173.312 403.944 173.428 404.41 173.66C404.847 173.898 405.219 174.242 405.49 174.66L405.69 173.5H407V182.5C407.031 182.986 406.958 183.473 406.785 183.928C406.613 184.383 406.345 184.796 406 185.14C405.191 185.808 404.157 186.141 403.11 186.07C402.638 186.065 402.168 186.005 401.71 185.89C401.25 185.786 400.806 185.622 400.39 185.4L400.64 184.14C401.003 184.318 401.385 184.453 401.78 184.54C402.21 184.638 402.649 184.689 403.09 184.69C403.718 184.746 404.344 184.552 404.83 184.15C405.025 183.924 405.173 183.662 405.266 183.379C405.358 183.096 405.394 182.797 405.37 182.5V181.5C405.093 181.863 404.733 182.155 404.32 182.35C403.875 182.554 403.389 182.653 402.9 182.64C402.41 182.662 401.922 182.566 401.477 182.361C401.031 182.156 400.641 181.847 400.34 181.46C399.692 180.549 399.368 179.447 399.42 178.33L399.41 178.13ZM401.04 178.3C401.003 179.062 401.194 179.818 401.59 180.47C401.781 180.744 402.039 180.964 402.341 181.108C402.643 181.252 402.977 181.315 403.31 181.29C403.745 181.307 404.175 181.188 404.54 180.95C404.888 180.71 405.169 180.387 405.36 180.01V175.89C405.164 175.525 404.882 175.213 404.54 174.98C404.176 174.749 403.751 174.631 403.32 174.64C402.968 174.625 402.619 174.712 402.314 174.889C402.009 175.066 401.762 175.327 401.6 175.64C401.196 176.416 401.003 177.285 401.04 178.16V178.3Z" fill="black"/>
<path d="M413.57 174.93L412.73 174.88C412.345 174.868 411.965 174.972 411.64 175.18C411.338 175.398 411.102 175.696 410.96 176.04V182.44H409.33V173.49H410.79L410.94 174.79C411.168 174.364 411.49 173.995 411.88 173.71C412.258 173.448 412.71 173.311 413.17 173.32C413.286 173.31 413.404 173.31 413.52 173.32L413.79 173.38L413.57 174.93Z" fill="black"/>
<path d="M420.77 182.44C420.71 182.17 420.67 181.93 420.64 181.72C420.61 181.514 420.59 181.307 420.58 181.1C420.269 181.541 419.867 181.909 419.4 182.18C418.922 182.465 418.376 182.613 417.82 182.61C417.436 182.638 417.05 182.59 416.684 182.468C416.318 182.346 415.981 182.153 415.69 181.9C415.436 181.635 415.24 181.321 415.114 180.977C414.989 180.632 414.936 180.266 414.96 179.9C414.942 179.509 415.024 179.12 415.199 178.77C415.374 178.419 415.636 178.12 415.96 177.9C416.8 177.375 417.781 177.121 418.77 177.17H420.54V176.29C420.552 176.06 420.515 175.829 420.432 175.614C420.35 175.399 420.223 175.203 420.06 175.04C419.687 174.717 419.203 174.552 418.71 174.58C418.247 174.56 417.791 174.701 417.42 174.98C417.272 175.091 417.152 175.234 417.069 175.399C416.986 175.563 416.942 175.745 416.94 175.93H415.39V175.88C415.386 175.529 415.467 175.183 415.628 174.871C415.788 174.559 416.022 174.291 416.31 174.09C417.039 173.567 417.913 173.286 418.81 173.286C419.707 173.286 420.581 173.567 421.31 174.09C421.623 174.367 421.869 174.712 422.029 175.098C422.188 175.485 422.257 175.903 422.23 176.32V180.64C422.231 180.947 422.248 181.254 422.28 181.56C422.318 181.858 422.382 182.152 422.47 182.44H420.77ZM418.06 181.25C418.627 181.257 419.184 181.097 419.66 180.79C420.067 180.565 420.39 180.214 420.58 179.79V178.33H418.76C418.19 178.301 417.629 178.478 417.18 178.83C416.998 178.966 416.85 179.142 416.747 179.345C416.645 179.549 416.591 179.772 416.59 180C416.581 180.174 416.609 180.348 416.673 180.51C416.737 180.672 416.835 180.819 416.96 180.94C417.274 181.179 417.667 181.289 418.06 181.25V181.25Z" fill="black"/>
<path d="M426 173.49L426.11 174.66C426.399 174.243 426.783 173.9 427.23 173.66C427.715 173.42 428.25 173.3 428.79 173.31C429.332 173.296 429.867 173.438 430.33 173.72C430.793 174.013 431.145 174.453 431.33 174.97C431.597 174.477 431.982 174.057 432.45 173.75C432.937 173.452 433.499 173.299 434.07 173.31C434.478 173.291 434.885 173.365 435.259 173.528C435.634 173.691 435.966 173.938 436.23 174.25C436.821 175.07 437.104 176.071 437.03 177.08V182.43H435.4V177.06C435.456 176.403 435.295 175.745 434.94 175.19C434.772 174.997 434.562 174.847 434.326 174.75C434.09 174.652 433.835 174.611 433.58 174.63C433.326 174.623 433.075 174.672 432.842 174.772C432.609 174.872 432.4 175.021 432.23 175.21C431.877 175.623 431.663 176.137 431.62 176.68V182.43H430V177.06C430.05 176.413 429.888 175.767 429.54 175.22C429.377 175.022 429.17 174.866 428.935 174.763C428.701 174.661 428.446 174.615 428.19 174.63C427.767 174.639 427.354 174.768 427 175C426.675 175.209 426.418 175.507 426.26 175.86V182.49H424.63V173.54L426 173.49Z" fill="black"/>
<path d="M440.85 173.49L440.97 174.66C441.253 174.241 441.634 173.898 442.08 173.66C442.568 173.419 443.106 173.299 443.65 173.31C444.189 173.297 444.72 173.439 445.18 173.72C445.64 174.017 445.991 174.456 446.18 174.97C446.444 174.474 446.829 174.054 447.3 173.75C447.787 173.452 448.349 173.299 448.92 173.31C449.328 173.291 449.735 173.365 450.109 173.528C450.484 173.691 450.816 173.938 451.08 174.25C451.667 175.071 451.947 176.073 451.87 177.08V182.43H450.24V177.06C450.303 176.402 450.141 175.743 449.78 175.19C449.614 174.998 449.405 174.848 449.171 174.751C448.937 174.654 448.683 174.612 448.43 174.63C448.175 174.622 447.921 174.671 447.687 174.771C447.452 174.871 447.241 175.021 447.07 175.21C446.72 175.624 446.51 176.138 446.47 176.68V182.43H444.8V177.06C444.851 176.411 444.686 175.764 444.33 175.22C444.169 175.023 443.963 174.867 443.73 174.765C443.498 174.662 443.244 174.616 442.99 174.63C442.559 174.615 442.133 174.722 441.76 174.94C441.436 175.149 441.178 175.447 441.02 175.8V182.43H439.39V173.48L440.85 173.49Z" fill="black"/>
<path d="M457.91 182.61C457.35 182.64 456.79 182.546 456.271 182.333C455.753 182.12 455.287 181.795 454.91 181.38C454.159 180.472 453.774 179.317 453.83 178.14V177.77C453.788 176.605 454.184 175.467 454.94 174.58C455.271 174.181 455.687 173.861 456.158 173.643C456.628 173.425 457.141 173.315 457.66 173.32C458.165 173.284 458.671 173.366 459.138 173.56C459.605 173.755 460.02 174.056 460.35 174.44C460.993 175.303 461.312 176.365 461.25 177.44V178.3H455.52C455.486 179.073 455.692 179.838 456.11 180.49C456.319 180.771 456.595 180.996 456.913 181.142C457.231 181.289 457.581 181.354 457.93 181.33C458.427 181.34 458.922 181.259 459.39 181.09C459.787 180.947 460.151 180.726 460.46 180.44L461.1 181.5C460.729 181.839 460.298 182.106 459.83 182.29C459.216 182.519 458.565 182.627 457.91 182.61ZM457.66 174.61C457.39 174.604 457.123 174.661 456.878 174.776C456.634 174.89 456.419 175.059 456.25 175.27C455.857 175.752 455.616 176.34 455.56 176.96V176.96H459.56V176.82C459.582 176.245 459.413 175.679 459.08 175.21C458.906 175.006 458.688 174.844 458.441 174.739C458.195 174.633 457.928 174.585 457.66 174.6V174.61Z" fill="black"/>
<path d="M357.83 93.1104V105.89H355.4L349 98.1303V105.89H346.08V93.1104H348.53L354.88 100.87V93.1104H357.83Z" fill="#1E3769"/>
<path d="M370.75 103.52V105.89H360.86V93.1104H370.51V95.4804H363.8V98.2604H369.73V100.56H363.8V103.56L370.75 103.52Z" fill="#1E3769"/>
<path d="M392.23 93.1104L388.05 105.89H384.88L382.07 97.2403L379.16 105.89H376L371.8 93.1104H374.86L377.75 102.11L380.75 93.1104H383.49L386.41 102.17L389.41 93.1104H392.23Z" fill="#1E3769"/>
<path d="M401.9 105.26C400.869 104.717 400.008 103.9 399.41 102.9C398.82 101.864 398.51 100.693 398.51 99.5002C398.51 98.308 398.82 97.1362 399.41 96.1002C400.008 95.1003 400.869 94.284 401.9 93.7402C402.909 93.2293 404.016 92.9417 405.147 92.8968C406.277 92.852 407.404 93.0509 408.45 93.4802C409.321 93.8564 410.092 94.4318 410.7 95.1602L408.81 96.9102C408.42 96.4348 407.928 96.0531 407.371 95.7934C406.813 95.5338 406.205 95.4028 405.59 95.4102C404.854 95.4005 404.127 95.5795 403.48 95.9302C402.861 96.2659 402.348 96.7682 402 97.3802C401.658 98.0347 401.48 98.762 401.48 99.5002C401.48 100.239 401.658 100.966 402 101.62C402.343 102.23 402.848 102.732 403.46 103.07C404.106 103.425 404.833 103.605 405.57 103.59C406.187 103.596 406.796 103.462 407.354 103.199C407.912 102.936 408.403 102.55 408.79 102.07L410.68 103.83C410.074 104.567 409.298 105.147 408.42 105.52C407.471 105.921 406.45 106.122 405.42 106.11C404.194 106.123 402.985 105.831 401.9 105.26V105.26Z" fill="#1E3769"/>
<path d="M415 105.25C413.965 104.709 413.099 103.892 412.5 102.89C411.91 101.857 411.599 100.689 411.599 99.4998C411.599 98.3107 411.91 97.1421 412.5 96.1098C413.099 95.1073 413.965 94.2904 415 93.7498C416.109 93.1844 417.335 92.8896 418.58 92.8896C419.825 92.8896 421.051 93.1844 422.16 93.7498C423.201 94.3064 424.072 95.1353 424.679 96.148C425.286 97.1607 425.606 98.3192 425.606 99.4998C425.606 100.68 425.286 101.839 424.679 102.852C424.072 103.864 423.201 104.693 422.16 105.25C421.051 105.815 419.825 106.11 418.58 106.11C417.335 106.11 416.109 105.815 415 105.25V105.25ZM420.63 103.07C421.233 102.73 421.729 102.228 422.06 101.62C422.402 100.965 422.58 100.238 422.58 99.4998C422.58 98.7616 422.402 98.0342 422.06 97.3798C421.729 96.7719 421.233 96.2694 420.63 95.9298C420.002 95.5885 419.299 95.4097 418.585 95.4097C417.871 95.4097 417.168 95.5885 416.54 95.9298C415.939 96.2724 415.444 96.7741 415.11 97.3798C414.768 98.0342 414.59 98.7616 414.59 99.4998C414.59 100.238 414.768 100.965 415.11 101.62C415.444 102.225 415.939 102.727 416.54 103.07C417.168 103.411 417.871 103.59 418.585 103.59C419.299 103.59 420.002 103.411 420.63 103.07V103.07Z" fill="#1E3769"/>
<path d="M429.24 104.59C428.705 104.012 428.294 103.33 428.031 102.588C427.768 101.845 427.659 101.057 427.71 100.27V93.1104H430.71V100.11C430.71 102.404 431.66 103.547 433.56 103.54C433.951 103.566 434.343 103.505 434.708 103.361C435.073 103.218 435.401 102.996 435.67 102.71C436.219 101.96 436.478 101.037 436.4 100.11V93.1104H439.32V100.27C439.291 101.416 438.935 102.529 438.294 103.478C437.653 104.428 436.753 105.174 435.701 105.628C434.65 106.082 433.49 106.226 432.359 106.042C431.228 105.858 430.174 105.354 429.32 104.59H429.24Z" fill="#1E3769"/>
<path d="M450.35 105.89L447.88 102.33H445.16V105.89H442.16V93.1104H447.7C448.71 93.0861 449.713 93.2806 450.64 93.6804C451.426 94.0143 452.096 94.5704 452.57 95.2804C453.03 96.0206 453.263 96.8793 453.24 97.7504C453.268 98.6057 453.031 99.4487 452.562 100.164C452.093 100.88 451.415 101.434 450.62 101.75L453.48 105.86L450.35 105.89ZM449.6 96.1004C449.021 95.6815 448.314 95.4765 447.6 95.5204H445.19V100H447.6C448.314 100.044 449.021 99.8393 449.6 99.4204C449.818 99.2055 449.991 98.9494 450.109 98.667C450.227 98.3846 450.288 98.0815 450.288 97.7754C450.288 97.4693 450.227 97.1662 450.109 96.8838C449.991 96.6014 449.818 96.3453 449.6 96.1304V96.1004Z" fill="#1E3769"/>
<path d="M456.89 105.7C456.074 105.486 455.304 105.123 454.62 104.63L455.62 102.4C456.212 102.836 456.87 103.174 457.57 103.4C458.304 103.637 459.069 103.758 459.84 103.76C460.482 103.805 461.124 103.678 461.7 103.39C461.881 103.294 462.033 103.15 462.139 102.974C462.245 102.797 462.3 102.596 462.3 102.39C462.303 102.244 462.272 102.1 462.21 101.968C462.147 101.836 462.055 101.72 461.94 101.63C461.67 101.412 461.361 101.245 461.03 101.14C460.66 101.02 460.16 100.89 459.53 100.74C458.717 100.557 457.916 100.327 457.13 100.05C456.514 99.8227 455.966 99.4405 455.54 98.9402C455.082 98.3766 454.844 97.666 454.87 96.9402C454.864 96.2284 455.073 95.5314 455.47 94.9402C455.926 94.2953 456.558 93.7954 457.29 93.5002C458.243 93.1196 459.264 92.9392 460.29 92.9702C461.096 92.9695 461.899 93.0703 462.68 93.2702C463.386 93.4415 464.06 93.7215 464.68 94.1002L463.77 96.3502C462.698 95.7121 461.477 95.3672 460.23 95.3502C459.591 95.3037 458.952 95.4426 458.39 95.7502C458.209 95.8616 458.06 96.0175 457.957 96.2031C457.853 96.3887 457.799 96.5978 457.8 96.8102C457.789 97.0283 457.849 97.2441 457.972 97.4246C458.094 97.6052 458.273 97.7406 458.48 97.8102C459.152 98.0955 459.853 98.3067 460.57 98.4402C461.392 98.572 462.204 98.759 463 99.0002C463.617 99.2213 464.168 99.5965 464.6 100.09C465.064 100.651 465.303 101.363 465.27 102.09C465.271 102.803 465.058 103.499 464.66 104.09C464.198 104.735 463.559 105.232 462.82 105.52C461.867 105.901 460.846 106.081 459.82 106.05C458.832 106.071 457.846 105.953 456.89 105.7Z" fill="#1E3769"/>
<path d="M477.16 103.52V105.89H467.26V93.1104H476.92V95.4804H470.2V98.2604H476.13V100.56H470.2V103.56L477.16 103.52Z" fill="#1E3769"/>
<path d="M480.78 105.7C479.965 105.483 479.196 105.121 478.51 104.63L479.51 102.4C480.102 102.836 480.76 103.174 481.46 103.4C482.194 103.637 482.959 103.758 483.73 103.76C484.372 103.806 485.014 103.678 485.59 103.39C485.771 103.294 485.923 103.15 486.029 102.974C486.135 102.798 486.19 102.596 486.19 102.39C486.19 102.246 486.159 102.103 486.098 101.972C486.038 101.841 485.95 101.724 485.84 101.63C485.564 101.415 485.253 101.249 484.92 101.14C484.55 101.02 484.05 100.89 483.42 100.74C482.599 100.544 481.791 100.297 481 100C480.381 99.7732 479.83 99.3911 479.4 98.8904C478.942 98.3268 478.704 97.6162 478.73 96.8904C478.724 96.1786 478.933 95.4816 479.33 94.8904C479.786 94.2455 480.418 93.7456 481.15 93.4504C482.103 93.0698 483.124 92.8894 484.15 92.9204C484.956 92.9197 485.759 93.0205 486.54 93.2204C487.246 93.3917 487.92 93.6717 488.54 94.0504L487.63 96.3004C486.558 95.6623 485.337 95.3174 484.09 95.3004C483.451 95.2539 482.812 95.3928 482.25 95.7004C482.069 95.8118 481.92 95.9677 481.817 96.1533C481.713 96.3389 481.659 96.548 481.66 96.7604C481.649 96.9797 481.711 97.1965 481.836 97.3772C481.96 97.5579 482.141 97.6926 482.35 97.7604C483.021 98.0486 483.722 98.26 484.44 98.3904C485.251 98.5712 486.049 98.8051 486.83 99.0904C487.443 99.3142 487.99 99.6891 488.42 100.18C488.884 100.741 489.123 101.454 489.09 102.18C489.096 102.894 488.883 103.592 488.48 104.18C488.018 104.825 487.379 105.322 486.64 105.61C485.687 105.991 484.666 106.171 483.64 106.14C482.671 106.125 481.709 105.977 480.78 105.7V105.7Z" fill="#1E3769"/>
<path d="M408.08 41.1797V75.8597H400.08V47.6197H393.14V41.1797H408.08Z" fill="#1E3769"/>
<path d="M437.3 58.6897C438.929 60.4832 439.8 62.8379 439.73 65.2597C439.741 67.2284 439.193 69.1598 438.15 70.8297C436.97 72.6317 435.292 74.0525 433.32 74.9197C430.815 76.0072 428.1 76.5296 425.37 76.4497C422.933 76.4384 420.508 76.1021 418.16 75.4497C416.013 74.8964 413.981 73.9652 412.16 72.6997L415.28 66.5497C416.663 67.5759 418.212 68.3573 419.86 68.8597C421.585 69.4012 423.382 69.6777 425.19 69.6797C426.854 69.7702 428.508 69.3629 429.94 68.5097C430.493 68.1624 430.946 67.6755 431.251 67.0979C431.556 66.5204 431.704 65.8726 431.68 65.2197C431.68 62.3797 429.51 60.9597 425.19 60.9597H421.5V55.6997L428.63 47.6197H413.87V41.1797H438.15V46.3797L430.32 55.2997C432.966 55.5981 435.43 56.7946 437.3 58.6897V58.6897Z" fill="#1E3769"/>
<path d="M240.562 124.999L126.223 10.6602L11.8835 124.999L126.223 239.339L240.562 124.999Z" fill="#1E3769"/>
<g opacity="0.15">
<path d="M126.21 227.71L23.51 125L126.21 22.29L228.92 125L126.21 227.71ZM26.68 125L126.21 224.53L225.75 125L126.21 25.47L26.68 125ZM126.21 214.66L91.94 180.38L118.15 154.17L92.74 128.75L74.74 146.75L86.62 158.7L91.55 153.76L84.55 146.76L92.72 138.6L108.26 154.14L87 175.45L57 145.45L77.51 125L57 104.52L87 74.52L108.28 95.8L92.74 111.37L84.57 103.21L91.57 96.21L86.62 91.3L74.7 103.21L92.7 121.21L118.11 95.79L91.94 69.62L126.21 35.34L160.49 69.62L134.28 95.83L159.69 121.25L177.69 103.25L165.81 91.3L160.88 96.24L167.88 103.24L159.71 111.4L144.15 95.83L165.43 74.55L195.43 104.55L174.92 125L195.4 145.48L165.4 175.48L144.12 154.21L159.66 138.67L167.83 146.83L160.83 153.83L165.76 158.77L177.68 146.86L159.68 128.86L134.27 154.28L160.48 180.49L126.21 214.66ZM95.11 180.38L126.21 211.49L157.32 180.38L131.11 154.17L159.69 125.58L180.9 146.79L165.81 161.87L157.7 153.76L164.7 146.76L159.7 141.76L147.34 154.13L165.44 172.23L192.23 145.44L171.75 125L192.22 104.52L165.43 77.73L147.33 95.83L159.69 108.2L164.69 103.2L157.69 96.2L165.8 88.08L180.89 103.17L159.68 124.38L131.11 95.83L157.32 69.62L126.21 38.51L95.11 69.62L121.32 95.83L92.74 124.42L71.53 103.21L86.62 88.13L94.73 96.23L87.73 103.23L92.73 108.23L105.1 95.83L87 77.73L60.21 104.52L80.68 125L60.21 145.48L87 172.27L105.1 154.17L92.74 141.8L87.74 146.8L94.74 153.8L86.63 161.91L71.53 146.79L92.74 125.58L121.32 154.17L95.11 180.38ZM200.33 140.54L184.79 125L200.33 109.46L215.88 125L200.33 140.54ZM188 125L200.36 137.37L212.7 125L200.33 112.63L188 125ZM52.1 140.54L36.56 125L52.1 109.46L67.64 125L52.1 140.54ZM39.73 125L52.1 137.37L64.46 125L52.1 112.63L39.73 125Z" fill="white"/>
<path d="M126.21 204.071L102.21 180.071L126.21 156.021L150.21 180.071L126.21 204.071ZM105.34 180.071L126.21 200.951L147.09 180.001L126.21 159.131L105.34 180.071Z" fill="white"/>
<path d="M126.21 93.3596L102.21 69.3596L126.21 45.3096L150.21 69.3596L126.21 93.3596ZM105.34 69.3596L126.21 90.2396L147.09 69.3596L126.21 48.4396L105.34 69.3596Z" fill="white"/>
</g>
<path d="M12.46 125L126.33 238.87H528.25L642.12 125L528.25 11.1299H126.33L12.46 125Z" stroke="#1E3769" stroke-width="2.61" stroke-miterlimit="10"/>
<path d="M178 144.21C177.597 143.764 177.105 143.407 176.555 143.162C176.006 142.918 175.411 142.791 174.81 142.79H171.43V103.18C171.434 101.712 171.148 100.258 170.589 98.9016C170.03 97.5447 169.208 96.3115 168.171 95.2728C167.135 94.2341 165.903 93.4104 164.547 92.8487C163.191 92.2871 161.738 91.9987 160.27 92H92.16C90.6924 91.9987 89.239 92.2871 87.8831 92.8487C86.5272 93.4104 85.2955 94.2341 84.2587 95.2728C83.2219 96.3115 82.4003 97.5447 81.8411 98.9016C81.2819 100.258 80.9961 101.712 81 103.18V142.79H77.64C77.0393 142.79 76.4452 142.915 75.8962 143.159C75.3472 143.403 74.8556 143.759 74.453 144.205C74.0505 144.651 73.7461 145.177 73.5596 145.748C73.373 146.319 73.3084 146.922 73.37 147.52C73.6414 150.387 74.9724 153.05 77.1028 154.988C79.2332 156.927 82.0099 158 84.89 158H167.54C170.415 158.004 173.187 156.936 175.317 155.006C177.447 153.076 178.782 150.421 179.06 147.56C179.129 146.958 179.07 146.349 178.887 145.772C178.704 145.195 178.402 144.663 178 144.21ZM85.33 103.21C85.33 101.393 86.0517 99.6509 87.3364 98.3663C88.621 97.0817 90.3633 96.36 92.18 96.36H160.29C162.107 96.36 163.849 97.0817 165.134 98.3663C166.418 99.6509 167.14 101.393 167.14 103.21V142.82H163.9V103.86C163.9 102.623 163.409 101.437 162.536 100.561C161.662 99.6858 160.477 99.1927 159.24 99.19H93.24C92.0015 99.19 90.8136 99.682 89.9378 100.558C89.0621 101.434 88.57 102.621 88.57 103.86V142.79H85.31L85.33 103.21ZM159.63 142.82H92.82V103.86C92.82 103.759 92.8601 103.663 92.9313 103.591C93.0026 103.52 93.0992 103.48 93.2 103.48H159.2C159.299 103.483 159.393 103.524 159.462 103.595C159.531 103.666 159.57 103.761 159.57 103.86L159.63 142.82ZM167.79 153.68H167.56H84.89H84.66C82.8948 153.62 81.2115 152.921 79.9236 151.712C78.6358 150.504 77.8313 148.868 77.66 147.11H174.81C174.631 148.869 173.818 150.503 172.522 151.706C171.227 152.91 169.538 153.601 167.77 153.65L167.79 153.68Z" fill="white"/>
<path d="M130.82 152H121.6C121.104 152 120.628 151.803 120.278 151.452C119.927 151.101 119.73 150.626 119.73 150.13C119.73 149.634 119.927 149.158 120.278 148.807C120.628 148.457 121.104 148.26 121.6 148.26H130.82C131.316 148.26 131.792 148.457 132.142 148.807C132.493 149.158 132.69 149.634 132.69 150.13C132.69 150.626 132.493 151.101 132.142 151.452C131.792 151.803 131.316 152 130.82 152Z" fill="white"/>
<path d="M124.94 112.69L115.21 122.41" stroke="white" stroke-width="2.59" stroke-miterlimit="10" stroke-linecap="round"/>
<path d="M134.67 122.42L124.95 132.14" stroke="white" stroke-width="2.59" stroke-miterlimit="10" stroke-linecap="round"/>
<path d="M137.56 109.77L112.3 135.03" stroke="white" stroke-width="2.59" stroke-miterlimit="10" stroke-linecap="round"/>
</svg>
