<svg width="1829" height="900" viewBox="0 0 1829 900" fill="none" xmlns="http://www.w3.org/2000/svg">
<g clip-path="url(#clip0_84_299)">
<g opacity="0.07">
<path d="M-341.37 180.27L-200.61 39.5099L339.26 -500.36L-200.61 -1040.24L-341.37 -1181L-1022 -500.37L-341.37 180.27ZM-840.25 -594.29L-746.33 -500.36L-840.25 -406.43L-934.18 -500.36L-840.25 -594.29ZM157.52 -406.43L63.59 -500.36L157.52 -594.29L251.45 -500.36L157.52 -406.43ZM-244.48 -4.43005L-341.33 92.4299L-561.33 -127.57L-384.89 -304.02L-566.71 -485.78L-698.77 -353.71L-607.86 -262.84L-563.96 -306.75L-610.96 -353.75L-566.7 -398.01L-472.77 -304.08L-605.32 -171.5L-796.32 -362.5L-658.48 -500.33L-796.35 -638.18L-605.35 -829.18L-472.78 -696.68L-566.71 -592.75L-610.97 -647.01L-563.97 -694.01L-607.86 -737.88L-698.73 -647.01L-566.67 -514.94L-384.97 -696.68L-561.41 -873.13L-438.22 -996.33L-341.37 -1093.18L-244.51 -996.33L-121.31 -873.13L-297.76 -696.68L-116.02 -514.94L16.04 -647.01L-74.86 -737.89L-118.77 -693.98L-71.77 -646.98L-116.02 -602.72L-209.95 -696.65L-77.41 -829.18L113.59 -638.18L-24.22 -500.36L113.62 -362.53L-77.38 -171.53L-209.95 -304.04L-116.02 -397.97L-71.77 -353.71L-118.77 -306.71L-74.86 -262.84L16 -353.71L-116.02 -485.78L-297.76 -304.04L-121.32 -127.59L-244.48 -4.43005Z" stroke="#2680CA" stroke-width="2.59" stroke-miterlimit="10"/>
</g>
<g opacity="0.07">
<path d="M1587.02 180.27L1727.78 39.5099L2267.65 -500.36L1727.78 -1040.24L1587.02 -1181L906.39 -500.36L1587.02 180.27ZM1088.14 -594.29L1182.06 -500.36L1088.14 -406.43L994.21 -500.36L1088.14 -594.29ZM2085.91 -406.43L1991.98 -500.36L2085.91 -594.29L2179.84 -500.36L2085.91 -406.43ZM1683.91 -4.43005L1587.05 92.4299L1367.05 -127.57L1543.5 -304.02L1361.68 -485.78L1229.62 -353.71L1320.49 -262.84L1364.39 -306.75L1317.39 -353.75L1361.65 -398.01L1455.58 -304.08L1323.07 -171.5L1132.07 -362.5L1269.91 -500.33L1132.04 -638.18L1323.04 -829.18L1455.61 -696.68L1361.68 -592.75L1317.42 -647.01L1364.42 -694.01L1320.52 -737.91L1229.65 -647.04L1361.71 -514.97L1543.43 -696.68L1366.98 -873.13L1490.14 -996.33L1586.99 -1093.18L1683.85 -996.33L1807.05 -873.13L1630.63 -696.68L1812.37 -514.94L1944.43 -647.01L1853.57 -737.89L1809.66 -693.98L1856.66 -646.98L1812.41 -602.72L1718.44 -696.68L1850.98 -829.18L2041.98 -638.18L1904.14 -500.36L2041.97 -362.53L1850.97 -171.53L1718.44 -304.04L1812.37 -397.97L1856.62 -353.71L1809.62 -306.71L1853.53 -262.8L1944.39 -353.67L1812.37 -485.78L1630.63 -304.04L1807.07 -127.59L1683.91 -4.43005Z" stroke="#2680CA" stroke-width="2.59" stroke-miterlimit="10"/>
<path d="M1587.02 21.1846L1738.21 -130.002L1587.02 -281.188L1435.84 -130.002L1587.02 21.1846Z" stroke="#2680CA" stroke-width="2.59" stroke-miterlimit="10"/>
</g>
<g opacity="0.07">
<path d="M-341.37 1180.27L-200.61 1039.51L339.26 499.64L-200.61 -40.2402L-341.37 -180.99L-1022 499.64L-341.37 1180.27ZM-840.25 405.71L-746.33 499.64L-840.25 593.57L-934.18 499.64L-840.25 405.71ZM157.52 593.57L63.59 499.64L157.52 405.71L251.45 499.64L157.52 593.57ZM-244.48 995.57L-341.33 1092.43L-561.33 872.38L-384.89 695.93L-566.71 514.22L-698.77 646.29L-607.86 737.16L-563.96 693.25L-610.96 646.25L-566.7 601.99L-472.77 695.92L-605.32 828.5L-796.32 637.5L-658.48 499.67L-796.35 361.82L-605.35 170.82L-472.78 303.32L-566.71 407.25L-610.97 352.99L-563.97 305.99L-607.86 262.12L-698.73 352.99L-566.67 485.06L-384.97 303.32L-561.41 126.87L-438.22 3.66977L-341.37 -93.1802L-244.51 3.66977L-121.31 126.87L-297.76 303.32L-116.02 485.06L16.04 352.99L-74.86 262.11L-118.77 306.02L-71.77 353.02L-116.02 397.28L-209.95 303.35L-77.41 170.82L113.59 361.82L-24.22 499.64L113.62 637.47L-77.38 828.47L-209.95 695.96L-116.02 602.03L-71.77 646.29L-118.77 693.29L-74.86 737.16L16 646.29L-116.02 514.22L-297.76 695.96L-121.32 872.41L-244.48 995.57Z" stroke="#2680CA" stroke-width="2.59" stroke-miterlimit="10"/>
</g>
<g style="mix-blend-mode:multiply" opacity="0.5">
<g style="mix-blend-mode:multiply">
<path d="M50.488 316.765L-37.8434 745.184L547.299 865.829L635.63 437.41L50.488 316.765Z" fill="#A1B1D5"/>
</g>
</g>
<path d="M60.9006 304.615L-27.4308 733.033L557.711 853.678L646.043 425.259L60.9006 304.615Z" fill="#F4F4F4"/>
<path d="M370.697 407.947L368.313 419.514L572.586 461.631L574.971 450.065L370.697 407.947Z" fill="#9399A9"/>
<path d="M395.973 441.053L394.788 446.802L568.259 482.568L569.445 476.819L395.973 441.053Z" fill="#9399A9"/>
<path d="M361.773 451.253L360.588 457.002L564.861 499.119L566.047 493.37L361.773 451.253Z" fill="#9399A9"/>
<path d="M357.817 466.802L356.643 472.555L561.042 514.269L562.216 508.516L357.817 466.802Z" fill="#9399A9"/>
<path d="M354.942 484.356L353.757 490.105L558.03 532.223L559.216 526.474L354.942 484.356Z" fill="#9399A9"/>
<path d="M351.019 499.855L349.845 505.608L554.244 547.322L555.418 541.569L351.019 499.855Z" fill="#9399A9"/>
<path d="M347.453 517.223L346.279 522.976L550.678 564.69L551.852 558.937L347.453 517.223Z" fill="#9399A9"/>
<path d="M344.53 534.861L343.344 540.61L547.618 582.727L548.803 576.978L344.53 534.861Z" fill="#9399A9"/>
<path d="M341.111 551.4L339.926 557.149L491.713 588.444L492.898 582.695L341.111 551.4Z" fill="#9399A9"/>
<path d="M72.9979 672.316L69.9003 687.34L84.9242 690.437L88.0219 675.413L72.9979 672.316Z" fill="#54B9E1"/>
<path d="M100.419 682.787L99.2336 688.536L133.258 695.551L134.443 689.802L100.419 682.787Z" fill="#9399A9"/>
<path d="M67.9948 696.587L64.8972 711.611L79.9212 714.709L83.0188 699.685L67.9948 696.587Z" fill="#F34D3B"/>
<path d="M95.4054 707.124L94.22 712.874L171.779 728.865L172.964 723.116L95.4054 707.124Z" fill="#9399A9"/>
<path d="M146.465 670.409L145.28 676.158L177.57 682.816L178.756 677.067L146.465 670.409Z" fill="#5A5A7A"/>
<path d="M79.5594 540.405L59.3782 638.286L64.4711 639.336L84.6523 541.455L79.5594 540.405Z" fill="#54B9E1"/>
<path d="M76.4609 581.234L64.4782 639.352L69.5809 640.404L81.5636 582.286L76.4609 581.234Z" fill="#F34D3B"/>
<path d="M94.7675 559.426L77.7385 642.019L82.8412 643.071L99.8701 560.478L94.7675 559.426Z" fill="#54B9E1"/>
<path d="M97.3501 572.789L82.8207 643.134L87.9131 644.186L102.443 573.84L97.3501 572.789Z" fill="#F34D3B"/>
<path d="M105.555 599.938L96.0782 645.82L101.181 646.874L110.657 600.992L105.555 599.938Z" fill="#54B9E1"/>
<path d="M112.674 591.135L101.18 646.934L106.283 647.985L117.777 592.186L112.674 591.135Z" fill="#F34D3B"/>
<path d="M127.891 584.366L114.444 649.584L119.537 650.634L132.984 585.416L127.891 584.366Z" fill="#54B9E1"/>
<path d="M123.189 632.942L119.542 650.63L124.635 651.68L128.282 633.992L123.189 632.942Z" fill="#F34D3B"/>
<path d="M150.667 566.734L132.798 653.401L137.891 654.451L155.76 567.784L150.667 566.734Z" fill="#54B9E1"/>
<path d="M157.854 557.62L137.883 654.482L142.986 655.534L162.957 558.672L157.854 557.62Z" fill="#F34D3B"/>
<path d="M161.665 606.251L151.145 657.227L156.248 658.28L166.767 607.304L161.665 606.251Z" fill="#54B9E1"/>
<path d="M174.977 567.534L156.237 658.269L161.329 659.32L180.07 568.586L174.977 567.534Z" fill="#F34D3B"/>
<path d="M182.741 596.686L169.508 660.927L174.611 661.978L187.844 597.737L182.741 596.686Z" fill="#54B9E1"/>
<path d="M186.943 602.15L174.609 662.022L179.702 663.072L192.036 603.199L186.943 602.15Z" fill="#F34D3B"/>
<path d="M195.836 626.016L187.854 664.732L192.957 665.784L200.939 627.068L195.836 626.016Z" fill="#54B9E1"/>
<path d="M198.92 636.888L192.956 665.789L198.059 666.842L204.023 637.94L198.92 636.888Z" fill="#F34D3B"/>
<path d="M210.617 647.07L206.207 668.48L211.3 669.529L215.71 648.119L210.617 647.07Z" fill="#75CE33"/>
<path d="M225.807 599.197L211.314 669.549L216.407 670.598L230.9 600.246L225.807 599.197Z" fill="#F1274D"/>
<path d="M240.537 594.876L224.56 672.366L229.653 673.416L245.63 595.926L240.537 594.876Z" fill="#75CE33"/>
<path d="M250.686 571.367L229.647 673.319L234.739 674.37L255.778 572.418L250.686 571.367Z" fill="#F1274D"/>
<path d="M252.784 628.151L242.911 676.075L248.005 677.124L257.877 629.2L252.784 628.151Z" fill="#75CE33"/>
<path d="M256.358 636.602L248.008 677.101L253.111 678.153L261.46 637.654L256.358 636.602Z" fill="#F1274D"/>
<path d="M267.154 651.333L261.267 679.882L266.36 680.932L272.247 652.383L267.154 651.333Z" fill="#75CE33"/>
<path d="M269.683 663.18L266.373 679.399L271.479 680.441L274.789 664.222L269.683 663.18Z" fill="#F1274D"/>
<path d="M111.415 460.237L108.317 475.261L123.341 478.359L126.439 463.335L111.415 460.237Z" fill="#317AAF"/>
<path d="M138.829 470.739L137.644 476.488L234.448 496.447L235.633 490.698L138.829 470.739Z" fill="#9399A9"/>
<path d="M106.4 484.557L103.302 499.581L118.326 502.679L121.424 487.655L106.4 484.557Z" fill="#F1274D"/>
<path d="M133.811 495.058L132.625 500.807L166.65 507.822L167.835 502.073L133.811 495.058Z" fill="#9399A9"/>
<path d="M101.375 508.916L98.2771 523.94L113.301 527.038L116.399 512.014L101.375 508.916Z" fill="#FFD021"/>
<path d="M128.787 519.394L127.602 525.143L205.161 541.134L206.346 535.385L128.787 519.394Z" fill="#9399A9"/>
<path d="M190.531 456.754L189.346 462.503L221.637 469.161L222.822 463.412L190.531 456.754Z" fill="#9399A9"/>
<path d="M162.4 424.3L195.07 409.62L217.69 435.7L286.29 390.55L307.14 449.2L163.32 427.78L162.4 424.3Z" fill="#F1274D"/>
<path d="M323.31 442.65L313.98 416.02L254.77 423.58L225.47 399.8L184.05 430.59L145.11 404.26L121.27 424.05L315.91 462.54L323.31 442.65Z" fill="#FFD021"/>
<path d="M95.67 426.18L126.76 405.42L139.95 421.32L167.88 405.66L188 427.93L246.68 405.24L276.54 430.53L331.31 427.83L322.02 472.86L95.67 426.18Z" fill="#317AAF"/>
<path d="M324.496 724.149L321.398 739.173L336.422 742.271L339.52 727.247L324.496 724.149Z" fill="#6B2D6E"/>
<path d="M351.912 734.651L350.727 740.4L447.531 760.359L448.716 754.61L351.912 734.651Z" fill="#9399A9"/>
<path d="M319.473 748.479L316.375 763.503L331.399 766.601L334.497 751.577L319.473 748.479Z" fill="#F1274D"/>
<path d="M346.904 758.992L345.718 764.741L379.743 771.756L380.928 766.007L346.904 758.992Z" fill="#9399A9"/>
<path d="M392.748 718.43L391.562 724.179L423.853 730.836L425.038 725.087L392.748 718.43Z" fill="#9399A9"/>
<path d="M511.14 698.72C510.988 699.448 510.624 700.114 510.094 700.635C509.563 701.156 508.891 701.508 508.16 701.646C507.43 701.785 506.675 701.704 505.991 701.414C505.306 701.123 504.723 700.637 504.316 700.015C503.908 699.394 503.693 698.665 503.699 697.922C503.705 697.179 503.932 696.454 504.349 695.839C504.767 695.224 505.358 694.747 506.047 694.468C506.736 694.189 507.492 694.12 508.22 694.27C508.704 694.37 509.164 694.565 509.573 694.843C509.982 695.12 510.332 695.476 510.603 695.89C510.874 696.303 511.061 696.766 511.153 697.251C511.245 697.737 511.241 698.236 511.14 698.72V698.72Z" fill="#F1274D"/>
<path d="M483.31 668.82C483.158 669.548 482.794 670.214 482.264 670.735C481.733 671.256 481.061 671.608 480.33 671.747C479.6 671.885 478.845 671.804 478.161 671.514C477.476 671.223 476.893 670.737 476.486 670.115C476.078 669.494 475.863 668.765 475.869 668.022C475.875 667.279 476.102 666.554 476.519 665.939C476.937 665.324 477.528 664.847 478.217 664.568C478.906 664.289 479.662 664.22 480.39 664.37C480.874 664.47 481.334 664.665 481.743 664.943C482.152 665.221 482.502 665.576 482.773 665.99C483.044 666.403 483.231 666.866 483.323 667.352C483.415 667.837 483.411 668.336 483.31 668.82V668.82Z" fill="#F1274D"/>
<path d="M435.63 682.33C435.48 683.061 435.117 683.731 434.586 684.255C434.055 684.779 433.381 685.134 432.649 685.274C431.916 685.415 431.158 685.336 430.471 685.046C429.784 684.756 429.198 684.268 428.788 683.645C428.378 683.023 428.162 682.292 428.167 681.546C428.172 680.8 428.399 680.073 428.817 679.456C429.236 678.838 429.829 678.359 430.52 678.079C431.211 677.798 431.97 677.729 432.7 677.88C433.678 678.082 434.536 678.665 435.086 679.499C435.635 680.333 435.831 681.352 435.63 682.33V682.33Z" fill="#F1274D"/>
<path d="M409.63 665.28C409.48 666.011 409.117 666.68 408.586 667.204C408.055 667.728 407.381 668.083 406.649 668.224C405.916 668.365 405.158 668.285 404.471 667.995C403.784 667.705 403.198 667.218 402.788 666.595C402.378 665.972 402.162 665.242 402.167 664.496C402.172 663.75 402.399 663.022 402.817 662.405C403.236 661.788 403.829 661.309 404.52 661.029C405.211 660.748 405.97 660.679 406.7 660.83C407.678 661.032 408.536 661.614 409.086 662.449C409.635 663.283 409.831 664.301 409.63 665.28V665.28Z" fill="#F1274D"/>
<path d="M389.14 685.39C388.992 686.122 388.63 686.793 388.1 687.318C387.57 687.844 386.896 688.2 386.163 688.343C385.431 688.485 384.672 688.406 383.984 688.117C383.296 687.828 382.71 687.341 382.298 686.718C381.887 686.095 381.67 685.364 381.675 684.618C381.68 683.872 381.906 683.143 382.325 682.526C382.744 681.908 383.337 681.428 384.028 681.148C384.72 680.867 385.479 680.799 386.21 680.95C387.186 681.152 388.043 681.733 388.592 682.565C389.141 683.397 389.338 684.413 389.14 685.39V685.39Z" fill="#F1274D"/>
<path d="M349.36 666.95C349.209 667.678 348.845 668.344 348.316 668.865C347.786 669.386 347.114 669.738 346.384 669.878C345.654 670.017 344.899 669.937 344.215 669.648C343.53 669.358 342.947 668.873 342.538 668.252C342.13 667.631 341.914 666.904 341.919 666.161C341.924 665.418 342.148 664.693 342.565 664.077C342.981 663.462 343.57 662.984 344.258 662.703C344.946 662.422 345.702 662.352 346.43 662.5C347.408 662.702 348.266 663.285 348.816 664.119C349.365 664.953 349.561 665.972 349.36 666.95V666.95Z" fill="#F1274D"/>
<path d="M315.47 678.57C315.319 679.298 314.955 679.964 314.425 680.485C313.896 681.006 313.224 681.358 312.494 681.498C311.764 681.637 311.009 681.557 310.325 681.268C309.64 680.978 309.057 680.493 308.648 679.872C308.24 679.252 308.024 678.524 308.029 677.781C308.034 677.038 308.258 676.313 308.675 675.697C309.091 675.082 309.68 674.604 310.368 674.323C311.056 674.042 311.812 673.972 312.54 674.12C313.518 674.322 314.376 674.905 314.926 675.739C315.475 676.573 315.671 677.592 315.47 678.57V678.57Z" fill="#6B2D6E"/>
<path d="M362.74 619.47C362.59 620.201 362.227 620.871 361.696 621.395C361.165 621.919 360.491 622.274 359.759 622.415C359.026 622.555 358.269 622.476 357.581 622.186C356.894 621.896 356.308 621.409 355.898 620.786C355.488 620.163 355.272 619.432 355.277 618.686C355.282 617.94 355.509 617.213 355.927 616.596C356.346 615.978 356.939 615.499 357.63 615.219C358.321 614.939 359.08 614.869 359.81 615.02C360.295 615.119 360.756 615.313 361.166 615.59C361.576 615.868 361.927 616.223 362.199 616.637C362.471 617.05 362.659 617.513 362.752 618C362.845 618.486 362.841 618.986 362.74 619.47V619.47Z" fill="#6B2D6E"/>
<path d="M387.98 660.82C387.83 661.549 387.467 662.216 386.938 662.739C386.408 663.261 385.736 663.615 385.005 663.755C384.274 663.895 383.519 663.815 382.834 663.525C382.148 663.236 381.564 662.749 381.156 662.128C380.747 661.506 380.532 660.778 380.537 660.034C380.543 659.29 380.769 658.564 381.187 657.949C381.605 657.334 382.196 656.856 382.885 656.577C383.575 656.298 384.332 656.229 385.06 656.38C386.036 656.582 386.891 657.163 387.439 657.996C387.986 658.828 388.181 659.844 387.98 660.82V660.82Z" fill="#6B2D6E"/>
<path d="M429.06 632.9C428.91 633.631 428.547 634.3 428.016 634.824C427.485 635.349 426.811 635.703 426.079 635.844C425.346 635.985 424.589 635.905 423.901 635.615C423.214 635.326 422.628 634.838 422.218 634.215C421.808 633.592 421.592 632.862 421.597 632.116C421.602 631.37 421.829 630.643 422.247 630.025C422.666 629.408 423.259 628.929 423.95 628.649C424.641 628.368 425.4 628.299 426.13 628.45C427.108 628.652 427.966 629.235 428.516 630.069C429.065 630.903 429.261 631.922 429.06 632.9V632.9Z" fill="#6B2D6E"/>
<path d="M446.4 662.23C446.25 662.961 445.887 663.63 445.356 664.155C444.825 664.679 444.151 665.034 443.419 665.174C442.686 665.315 441.929 665.236 441.241 664.946C440.554 664.656 439.968 664.168 439.558 663.545C439.148 662.922 438.932 662.192 438.937 661.446C438.942 660.7 439.169 659.973 439.587 659.355C440.006 658.738 440.599 658.259 441.29 657.979C441.981 657.698 442.74 657.629 443.47 657.78C444.448 657.982 445.306 658.565 445.856 659.399C446.405 660.233 446.601 661.252 446.4 662.23V662.23Z" fill="#6B2D6E"/>
<path d="M482.7 629.32C482.552 630.052 482.19 630.723 481.66 631.248C481.13 631.774 480.456 632.13 479.723 632.273C478.991 632.415 478.232 632.336 477.544 632.047C476.856 631.758 476.269 631.271 475.858 630.648C475.447 630.025 475.23 629.294 475.235 628.548C475.24 627.802 475.466 627.074 475.885 626.456C476.304 625.838 476.897 625.359 477.588 625.078C478.28 624.798 479.039 624.729 479.77 624.88C480.746 625.082 481.603 625.663 482.152 626.495C482.701 627.327 482.898 628.343 482.7 629.32V629.32Z" fill="#6B2D6E"/>
<path d="M506.14 656.22C506.002 656.953 505.65 657.629 505.128 658.162C504.606 658.695 503.937 659.061 503.207 659.213C502.477 659.366 501.718 659.299 501.026 659.02C500.334 658.741 499.74 658.264 499.32 657.647C498.9 657.031 498.672 656.304 498.665 655.558C498.658 654.812 498.873 654.08 499.282 653.457C499.691 652.833 500.276 652.344 500.963 652.053C501.649 651.761 502.407 651.68 503.14 651.82C504.121 652.007 504.987 652.575 505.55 653.4C506.112 654.225 506.324 655.239 506.14 656.22V656.22Z" fill="#6B2D6E"/>
<path d="M532.77 654.53C532.618 655.258 532.254 655.924 531.724 656.445C531.193 656.966 530.521 657.318 529.79 657.456C529.06 657.595 528.305 657.514 527.621 657.224C526.936 656.933 526.353 656.447 525.946 655.825C525.538 655.204 525.323 654.475 525.329 653.732C525.335 652.989 525.562 652.264 525.979 651.649C526.397 651.034 526.988 650.557 527.677 650.278C528.366 649.999 529.122 649.93 529.85 650.08C530.334 650.18 530.794 650.375 531.203 650.653C531.612 650.931 531.962 651.286 532.233 651.7C532.504 652.113 532.691 652.576 532.783 653.061C532.875 653.547 532.871 654.046 532.77 654.53V654.53Z" fill="#6B2D6E"/>
<path d="M312.13 679.07L310.18 677.49L359.39 616.85L384.5 658.25L426.01 630.93L442.93 659.83L477.87 626.28L503.25 654.99L528.71 652.74L528.94 655.24L502.2 657.6L477.72 629.9L442.37 663.85L425.19 634.48L383.7 661.78L359.09 621.2L312.13 679.07Z" fill="#6B2D6E"/>
<path d="M313.79 690.36C313.638 691.088 313.274 691.754 312.744 692.275C312.213 692.796 311.541 693.148 310.81 693.287C310.08 693.425 309.325 693.344 308.641 693.054C307.956 692.763 307.373 692.277 306.966 691.655C306.558 691.034 306.343 690.305 306.349 689.562C306.355 688.819 306.582 688.094 306.999 687.479C307.417 686.864 308.008 686.387 308.697 686.108C309.386 685.829 310.142 685.76 310.87 685.91C311.846 686.115 312.702 686.698 313.249 687.532C313.797 688.366 313.991 689.383 313.79 690.36V690.36Z" fill="#F1274D"/>
<path d="M309.31 691.62L307.93 689.52L344.98 664.41L385.42 683.31L406.12 662.95L430.95 681.05L480.44 665.54L507.86 697.33L505.95 698.97L479.61 668.43L430.49 683.82L406.32 666.2L385.91 686.31L345.19 667.28L309.31 691.62Z" fill="#F1274D"/>
<g style="mix-blend-mode:multiply" opacity="0.44">
<path d="M748.26 174.98L333.71 110.16L313.86 225.36L313.78 225.8L238.6 662.94L668.76 738.19L757.29 176.79L748.26 174.98Z" fill="#A1B1D5"/>
</g>
<path d="M350.766 105.213L255.646 657.045L659.678 726.688L754.798 174.856L350.766 105.213Z" fill="#F0F1F1"/>
<path d="M441.105 140.62L438.015 158.545L687.358 201.525L690.447 183.599L441.105 140.62Z" fill="#5A5A7A"/>
<path d="M429.49 214.629L427.75 224.72L674.905 267.322L676.645 257.231L429.49 214.629Z" fill="#5A5A7A"/>
<path d="M402.857 190.18L401.116 200.281L708.158 253.206L709.899 243.105L402.857 190.18Z" fill="#5A5A7A"/>
<path d="M265.163 612.246L263.859 619.839L669.749 689.537L671.053 681.944L265.163 612.246Z" fill="#5A5A7A"/>
<path d="M461.06 377.82L462.72 457.53C477.104 456.715 491.091 452.511 503.54 445.26L461.06 377.82Z" fill="#6B2D6E"/>
<path d="M464.3 370.42L509.21 441.71C528.819 428.364 542.485 407.93 547.33 384.71L464.3 370.42Z" fill="#FFD021"/>
<path d="M548.47 378.14C551.57 355.152 545.858 331.842 532.48 312.891C519.102 293.941 499.05 280.755 476.35 275.98L461.35 363.12L548.47 378.14Z" fill="#75CE33"/>
<path d="M454.25 372.54L386.74 424.42C400.695 441.323 420.255 452.654 441.86 456.35C446.542 457.156 451.28 457.6 456.03 457.68L454.25 372.54Z" fill="#F1274D"/>
<path d="M366.96 350.25C363.966 367.45 365.961 385.148 372.71 401.25L375.52 407.33C377.599 411.432 379.982 415.373 382.65 419.12L454.14 365.19L454.42 363.54L460.61 327.82L469.75 274.82C446.185 271.64 422.304 277.724 403.133 291.792C383.962 305.86 370.995 326.816 366.96 350.25V350.25Z" fill="#317AAF"/>
<path d="M365.885 472.046L346.228 586.084L366.233 589.532L385.89 475.494L365.885 472.046Z" fill="#2E96CB"/>
<path d="M389.925 516.003L376.935 591.361L396.94 594.81L409.93 519.451L389.925 516.003Z" fill="#BBD71A"/>
<path d="M416.818 542.566L407.497 596.638L427.502 600.086L436.823 546.014L416.818 542.566Z" fill="#FFBF22"/>
<path d="M444.442 564.211L437.946 601.896L457.951 605.344L464.447 567.659L444.442 564.211Z" fill="#89379A"/>
<path d="M479.503 543.321L468.496 607.179L488.501 610.627L499.508 546.769L479.503 543.321Z" fill="#F34D3B"/>
<path d="M581.179 336.528L578.921 349.625L592.018 351.882L594.275 338.785L581.179 336.528Z" fill="#317AAF"/>
<path d="M605.24 344.827L604.376 349.843L688.801 364.396L689.665 359.38L605.24 344.827Z" fill="#9399A9"/>
<path d="M577.55 357.769L575.293 370.866L588.39 373.124L590.647 360.027L577.55 357.769Z" fill="#75CE33"/>
<path d="M601.594 366.069L600.729 371.085L630.402 376.2L631.266 371.184L601.594 366.069Z" fill="#9399A9"/>
<path d="M573.86 378.961L571.603 392.058L584.699 394.315L586.957 381.218L573.86 378.961Z" fill="#FFD021"/>
<path d="M597.922 387.271L597.057 392.287L664.7 403.946L665.564 398.93L597.922 387.271Z" fill="#9399A9"/>
<path d="M570.232 400.194L567.972 413.301L581.079 415.56L583.338 402.453L570.232 400.194Z" fill="#6B2D6E"/>
<path d="M594.267 408.497L593.403 413.513L643.859 422.21L644.723 417.194L594.267 408.497Z" fill="#9399A9"/>
<path d="M566.45 421.862L564.192 434.959L577.289 437.216L579.546 424.12L566.45 421.862Z" fill="#F1274D"/>
<path d="M592.433 427.665L591.568 432.704L668.461 445.908L669.326 440.869L592.433 427.665Z" fill="#9399A9"/>
<path d="M343.92 302.88C343.704 304.125 343.124 305.278 342.252 306.193C341.381 307.108 340.258 307.744 339.026 308.021C337.793 308.298 336.506 308.204 335.327 307.75C334.148 307.295 333.13 306.502 332.402 305.469C331.674 304.436 331.268 303.211 331.236 301.948C331.204 300.685 331.548 299.44 332.223 298.372C332.898 297.304 333.875 296.461 335.029 295.948C336.184 295.434 337.465 295.275 338.71 295.49C339.538 295.633 340.329 295.937 341.039 296.386C341.748 296.834 342.363 297.419 342.847 298.105C343.331 298.791 343.674 299.566 343.859 300.386C344.043 301.205 344.064 302.053 343.92 302.88V302.88Z" fill="#231F20"/>
<path d="M315.38 468.5C315.166 469.748 314.586 470.904 313.715 471.822C312.843 472.741 311.719 473.38 310.484 473.659C309.25 473.939 307.96 473.846 306.778 473.392C305.596 472.938 304.575 472.144 303.845 471.11C303.115 470.075 302.707 468.848 302.674 467.582C302.642 466.317 302.985 465.07 303.661 464C304.337 462.929 305.315 462.083 306.472 461.569C307.629 461.055 308.912 460.895 310.16 461.11C310.988 461.252 311.781 461.555 312.492 462.004C313.203 462.452 313.818 463.036 314.303 463.722C314.788 464.409 315.133 465.184 315.318 466.004C315.502 466.824 315.524 467.672 315.38 468.5V468.5Z" fill="#231F20"/>
<path d="M538.842 501.861L537.105 511.942L659.726 533.079L661.464 522.997L538.842 501.861Z" fill="#5A5A7A"/>
<path d="M553.317 528.373L552.453 533.389L656.587 551.339L657.451 546.323L553.317 528.373Z" fill="#9399A9"/>
<path d="M532.333 539.62L531.468 544.636L654.09 565.773L654.954 560.757L532.333 539.62Z" fill="#9399A9"/>
<path d="M529.851 554.057L528.987 559.073L651.609 580.21L652.473 575.194L529.851 554.057Z" fill="#9399A9"/>
<path d="M527.359 568.482L526.494 573.498L649.116 594.634L649.981 589.618L527.359 568.482Z" fill="#9399A9"/>
<path d="M524.874 582.939L524.011 587.945L646.633 609.081L647.496 604.075L524.874 582.939Z" fill="#9399A9"/>
<path d="M522.385 597.36L521.52 602.376L612.637 618.082L613.501 613.066L522.385 597.36Z" fill="#9399A9"/>
<path d="M425.026 469.848L424.161 474.864L452.326 479.719L453.191 474.703L425.026 469.848Z" fill="#9399A9"/>
<path d="M401.241 607.854L400.376 612.87L428.541 617.725L429.406 612.709L401.241 607.854Z" fill="#5A5A7A"/>
<g style="mix-blend-mode:multiply" opacity="0.5">
<path d="M-42.45 136.54L24.09 588.33L650.28 481.27L559.58 33.54L-42.45 136.54Z" fill="#A1B1D5"/>
</g>
<path d="M557.762 29.7834L-44.417 134.989L32.6103 575.881L634.789 470.675L557.762 29.7834Z" fill="#F6F6F6"/>
<path d="M501.387 81.5247L290.121 117.803L292.175 129.762L503.441 93.4839L501.387 81.5247Z" fill="#5A5A7A"/>
<path d="M504.263 107.643L325.737 138.833L326.77 144.743L505.296 113.553L504.263 107.643Z" fill="#9399A9"/>
<path d="M507.233 124.675L297.017 161.401L298.05 167.311L508.266 130.585L507.233 124.675Z" fill="#9399A9"/>
<path d="M510.211 141.717L299.995 178.444L301.028 184.354L511.244 147.628L510.211 141.717Z" fill="#9399A9"/>
<path d="M515.031 160.572L303.765 196.85L304.785 202.79L516.051 166.512L515.031 160.572Z" fill="#9399A9"/>
<path d="M516.164 175.775L305.948 212.501L306.981 218.412L517.197 181.686L516.164 175.775Z" fill="#9399A9"/>
<path d="M519.29 193.689L309.074 230.416L310.106 236.326L520.322 199.6L519.29 193.689Z" fill="#9399A9"/>
<path d="M524.047 212.829L312.781 249.107L313.801 255.047L525.067 218.769L524.047 212.829Z" fill="#9399A9"/>
<path d="M472.719 239.296L315.734 266.253L316.754 272.193L473.739 245.236L472.719 239.296Z" fill="#9399A9"/>
<path d="M120.782 477.64L105.326 480.34L108.026 495.796L123.482 493.096L120.782 477.64Z" fill="#75CE33"/>
<path d="M170.395 473.893L135.385 480.01L136.418 485.92L171.428 479.804L170.395 473.893Z" fill="#9399A9"/>
<path d="M125.186 502.673L109.73 505.373L112.432 520.839L127.888 518.139L125.186 502.673Z" fill="#F1274D"/>
<path d="M219.573 491.104L139.752 505.049L140.784 510.96L220.605 497.014L219.573 491.104Z" fill="#9399A9"/>
<path d="M207.775 445.102L174.538 450.909L175.571 456.82L208.808 451.013L207.775 445.102Z" fill="#5A5A7A"/>
<path d="M67.2303 351.397L61.9897 352.313L79.5887 453.047L84.8294 452.132L67.2303 351.397Z" fill="#BBD71A"/>
<path d="M79.6277 391.406L74.3772 392.324L84.8272 452.138L90.0776 451.22L79.6277 391.406Z" fill="#F85130"/>
<path d="M88.8675 363.838L83.6169 364.754L98.4509 449.75L103.702 448.833L88.8675 363.838Z" fill="#BBD71A"/>
<path d="M95.7568 377.436L90.49 378.34L102.985 451.105L108.252 450.201L95.7568 377.436Z" fill="#F85130"/>
<path d="M114.361 398.306L109.11 399.223L117.359 446.438L122.61 445.521L114.361 398.306Z" fill="#BBD71A"/>
<path d="M117.8 387.202L112.549 388.12L122.579 445.53L127.83 444.613L117.8 387.202Z" fill="#F85130"/>
<path d="M129.729 375.119L124.479 376.037L136.217 443.158L141.468 442.24L129.729 375.119Z" fill="#BBD71A"/>
<path d="M143.571 423.107L138.331 424.024L141.513 442.218L146.753 441.301L143.571 423.107Z" fill="#F85130"/>
<path d="M144.797 349.741L139.557 350.657L155.155 439.844L160.395 438.927L144.797 349.741Z" fill="#BBD71A"/>
<path d="M148.207 338.331L142.957 339.249L160.372 438.929L165.622 438.011L148.207 338.331Z" fill="#F85130"/>
<path d="M170.074 383.181L164.833 384.095L173.981 436.564L179.222 435.65L170.074 383.181Z" fill="#BBD71A"/>
<path d="M168.201 341.322L162.96 342.237L179.275 435.623L184.516 434.707L168.201 341.322Z" fill="#F85130"/>
<path d="M186.563 366.248L181.312 367.166L192.862 433.274L198.113 432.357L186.563 366.248Z" fill="#BBD71A"/>
<path d="M192.6 369.818L187.35 370.734L198.104 432.353L203.354 431.437L192.6 369.818Z" fill="#F85130"/>
<path d="M209.936 391.458L204.659 392.364L211.534 432.4L216.81 431.494L209.936 391.458Z" fill="#BBD71A"/>
<path d="M217.097 398.372L211.846 399.288L217.031 429.029L222.282 428.113L217.097 398.372Z" fill="#F85130"/>
<path d="M232.05 406.057L226.783 406.961L230.586 429.108L235.853 428.203L232.05 406.057Z" fill="#BBD71A"/>
<path d="M228.534 352.406L223.284 353.323L235.933 425.727L241.183 424.809L228.534 352.406Z" fill="#F85130"/>
<path d="M240.858 342.699L235.607 343.614L249.511 423.361L254.761 422.446L240.858 342.699Z" fill="#BBD71A"/>
<path d="M241.705 316.594L236.465 317.509L254.797 422.44L260.037 421.524L241.705 316.594Z" fill="#F85130"/>
<path d="M265.08 369.811L259.83 370.729L268.454 420.041L273.704 419.123L265.08 369.811Z" fill="#BBD71A"/>
<path d="M271.673 376.539L266.422 377.457L273.704 419.135L278.954 418.218L271.673 376.539Z" fill="#F85130"/>
<path d="M287.464 386.428L282.224 387.345L287.361 416.719L292.601 415.802L287.464 386.428Z" fill="#BBD71A"/>
<path d="M294.934 398.216L289.683 399.134L292.599 415.821L297.849 414.904L294.934 398.216Z" fill="#F85130"/>
<path d="M77.6129 261.408L62.157 264.108L64.8572 279.564L80.3131 276.864L77.6129 261.408Z" fill="#22B9D2"/>
<path d="M191.812 246.372L92.1912 263.776L93.2238 269.687L192.845 252.282L191.812 246.372Z" fill="#9399A9"/>
<path d="M81.9969 286.45L66.541 289.15L69.2413 304.606L84.6972 301.906L81.9969 286.45Z" fill="#F85130"/>
<path d="M131.578 282.694L96.5686 288.811L97.6012 294.721L132.611 288.605L131.578 282.694Z" fill="#9399A9"/>
<path d="M85.8161 313.084L70.283 315.751L72.9503 331.284L88.4834 328.617L85.8161 313.084Z" fill="#FFD021"/>
<path d="M180.766 299.906L100.945 313.852L101.978 319.762L181.799 305.817L180.766 299.906Z" fill="#9399A9"/>
<path d="M169.367 225.224L136.13 231.03L137.163 236.941L170.399 231.134L169.367 225.224Z" fill="#5A5A7A"/>
<path d="M379.609 432.439L364.154 435.14L366.854 450.596L382.31 447.895L379.609 432.439Z" fill="#6B2D6E"/>
<path d="M495.05 420.396L394.931 437.588L395.951 443.528L496.07 426.336L495.05 420.396Z" fill="#9399A9"/>
<path d="M383.994 457.464L368.538 460.164L371.238 475.62L386.694 472.92L383.994 457.464Z" fill="#F1274D"/>
<path d="M433.575 453.728L398.565 459.844L399.598 465.755L434.608 459.638L433.575 453.728Z" fill="#9399A9"/>
<path d="M460.187 398.192L426.951 403.999L427.983 409.909L461.22 404.102L460.187 398.192Z" fill="#5A5A7A"/>
<path d="M526.5 343.63L526.17 343.7C525.597 343.807 525.009 343.8 524.439 343.68C523.869 343.559 523.329 343.327 522.849 342.998C522.368 342.668 521.958 342.247 521.641 341.758C521.324 341.27 521.106 340.723 521 340.15C520.798 339.054 521.016 337.922 521.611 336.979C522.206 336.036 523.134 335.351 524.21 335.06L524.55 334.98C525.67 334.791 526.82 335.038 527.764 335.67C528.708 336.303 529.373 337.273 529.623 338.382C529.873 339.49 529.688 340.652 529.107 341.628C528.526 342.604 527.593 343.321 526.5 343.63V343.63Z" fill="#FF365C"/>
<path d="M524.38 335.71C524.48 335.71 524.57 335.66 524.67 335.65C525.628 335.467 526.619 335.664 527.435 336.198C528.25 336.732 528.827 337.562 529.042 338.513C529.257 339.464 529.095 340.461 528.589 341.295C528.083 342.128 527.273 342.732 526.33 342.98L526.05 343.04C525.088 343.235 524.088 343.046 523.263 342.514C522.439 341.981 521.855 341.147 521.637 340.19C521.419 339.233 521.584 338.229 522.096 337.392C522.609 336.554 523.428 335.951 524.38 335.71M524.04 334.41C523.383 334.558 522.762 334.833 522.212 335.221C521.662 335.609 521.194 336.101 520.834 336.67C520.474 337.239 520.23 337.873 520.115 338.536C520 339.199 520.017 339.878 520.165 340.535C520.313 341.192 520.588 341.813 520.976 342.363C521.364 342.913 521.856 343.381 522.425 343.741C522.994 344.101 523.628 344.345 524.291 344.46C524.954 344.575 525.633 344.558 526.29 344.41L526.68 344.32C528.006 344.02 529.159 343.206 529.885 342.056C530.61 340.907 530.85 339.516 530.55 338.19C530.25 336.864 529.436 335.711 528.286 334.985C527.137 334.26 525.746 334.02 524.42 334.32C524.291 334.339 524.164 334.369 524.04 334.41V334.41Z" fill="#FF365C"/>
<path d="M489.45 326.44L489.12 326.52C487.983 326.759 486.797 326.543 485.818 325.917C484.838 325.292 484.143 324.308 483.881 323.175C483.619 322.043 483.812 320.853 484.417 319.861C485.023 318.87 485.993 318.155 487.12 317.87L487.45 317.79C488.587 317.551 489.773 317.768 490.752 318.393C491.732 319.018 492.427 320.003 492.689 321.135C492.951 322.267 492.758 323.457 492.153 324.449C491.547 325.441 490.577 326.156 489.45 326.44V326.44Z" fill="#FF365C"/>
<path d="M487.33 318.52C487.43 318.52 487.52 318.47 487.62 318.46C488.578 318.278 489.569 318.474 490.385 319.008C491.2 319.542 491.777 320.372 491.992 321.323C492.207 322.274 492.045 323.271 491.539 324.105C491.033 324.938 490.223 325.543 489.28 325.79L488.99 325.85C488.032 326.033 487.041 325.837 486.225 325.303C485.41 324.768 484.833 323.938 484.618 322.987C484.403 322.037 484.565 321.039 485.071 320.206C485.577 319.372 486.387 318.768 487.33 318.52M486.98 317.22C485.654 317.52 484.501 318.334 483.775 319.484C483.05 320.633 482.81 322.024 483.11 323.35C483.41 324.676 484.224 325.829 485.373 326.555C486.523 327.281 487.914 327.52 489.24 327.22L489.63 327.13C490.573 326.876 491.424 326.358 492.081 325.635C492.738 324.913 493.175 324.018 493.339 323.055C493.503 322.092 493.388 321.102 493.007 320.203C492.626 319.304 491.996 318.532 491.19 317.98C490.638 317.6 490.017 317.332 489.361 317.193C488.705 317.054 488.029 317.046 487.37 317.17L486.98 317.26V317.22Z" fill="#FF365C"/>
<path d="M450.45 356.98L450.12 357.05C449.548 357.157 448.961 357.15 448.391 357.03C447.822 356.911 447.282 356.68 446.802 356.351C446.322 356.022 445.911 355.602 445.593 355.115C445.276 354.627 445.057 354.082 444.95 353.51C444.75 352.412 444.969 351.28 445.563 350.336C446.158 349.392 447.084 348.705 448.16 348.41L448.5 348.33C449.62 348.14 450.77 348.387 451.714 349.02C452.658 349.653 453.323 350.623 453.573 351.731C453.823 352.839 453.638 354.001 453.057 354.978C452.476 355.954 451.543 356.671 450.45 356.98V356.98Z" fill="#FF365C"/>
<path d="M448.34 349.06C448.432 349.034 448.526 349.014 448.62 349C449.578 348.817 450.569 349.014 451.385 349.548C452.2 350.082 452.777 350.912 452.992 351.863C453.207 352.814 453.045 353.811 452.539 354.645C452.033 355.478 451.223 356.082 450.28 356.33L450 356.39C449.042 356.573 448.051 356.376 447.235 355.842C446.42 355.308 445.843 354.478 445.628 353.527C445.413 352.576 445.575 351.579 446.081 350.745C446.587 349.912 447.397 349.308 448.34 349.06M447.99 347.76C446.664 348.058 445.511 348.871 444.784 350.02C444.057 351.169 443.817 352.559 444.115 353.885C444.413 355.211 445.226 356.364 446.375 357.091C447.524 357.818 448.914 358.058 450.24 357.76L450.63 357.67C451.871 357.335 452.941 356.545 453.626 355.457C454.312 354.37 454.563 353.064 454.33 351.8C454.208 351.136 453.955 350.503 453.586 349.937C453.218 349.371 452.741 348.884 452.183 348.504C451.625 348.124 450.997 347.858 450.336 347.721C449.675 347.585 448.993 347.581 448.33 347.71C448.201 347.729 448.074 347.759 447.95 347.8L447.99 347.76Z" fill="#FF365C"/>
<path d="M419.97 351.02L419.63 351.09C419.057 351.197 418.469 351.19 417.899 351.07C417.329 350.949 416.789 350.717 416.309 350.388C415.828 350.058 415.418 349.637 415.101 349.148C414.784 348.659 414.566 348.113 414.46 347.54C414.261 346.444 414.48 345.313 415.074 344.37C415.669 343.428 416.595 342.743 417.67 342.45L418.01 342.37C418.583 342.261 419.172 342.267 419.742 342.389C420.312 342.511 420.852 342.746 421.33 343.08C422.031 343.559 422.579 344.228 422.911 345.009C423.242 345.791 423.342 346.651 423.199 347.487C423.055 348.323 422.675 349.101 422.103 349.727C421.53 350.354 420.79 350.802 419.97 351.02Z" fill="#FF365C"/>
<path d="M417.85 343.1C417.941 343.07 418.035 343.049 418.13 343.04C419.075 342.886 420.043 343.098 420.837 343.633C421.631 344.168 422.19 344.986 422.402 345.919C422.614 346.853 422.462 347.832 421.976 348.657C421.491 349.483 420.709 350.091 419.79 350.36L419.51 350.43C418.552 350.613 417.561 350.416 416.745 349.882C415.93 349.348 415.353 348.518 415.138 347.567C414.923 346.616 415.085 345.619 415.591 344.785C416.097 343.952 416.907 343.348 417.85 343.1M417.5 341.79C416.259 342.129 415.191 342.922 414.506 344.01C413.821 345.099 413.569 346.405 413.8 347.67C413.922 348.334 414.175 348.967 414.544 349.533C414.912 350.099 415.389 350.586 415.947 350.966C416.505 351.346 417.133 351.612 417.794 351.749C418.455 351.885 419.137 351.889 419.8 351.76L420.18 351.67C421.421 351.335 422.491 350.545 423.176 349.457C423.862 348.37 424.113 347.064 423.88 345.8C423.758 345.136 423.505 344.503 423.136 343.937C422.768 343.371 422.291 342.884 421.733 342.504C421.175 342.124 420.547 341.858 419.886 341.721C419.225 341.585 418.543 341.581 417.88 341.71L417.5 341.79Z" fill="#FF365C"/>
<path d="M408.59 377.37L408.25 377.44C407.104 377.705 405.9 377.504 404.902 376.882C403.905 376.259 403.195 375.266 402.93 374.12C402.665 372.974 402.866 371.77 403.488 370.772C404.111 369.775 405.104 369.065 406.25 368.8L406.59 368.72C407.727 368.481 408.913 368.697 409.892 369.323C410.872 369.948 411.567 370.933 411.829 372.065C412.091 373.197 411.898 374.387 411.293 375.379C410.687 376.37 409.717 377.085 408.59 377.37V377.37Z" fill="#FF365C"/>
<path d="M406.47 369.45L406.75 369.39C407.695 369.236 408.663 369.448 409.457 369.983C410.251 370.518 410.81 371.336 411.022 372.269C411.234 373.203 411.082 374.182 410.596 375.007C410.111 375.832 409.329 376.441 408.41 376.71L408.14 376.82C407.182 377.003 406.191 376.806 405.375 376.272C404.56 375.738 403.983 374.908 403.768 373.957C403.553 373.006 403.715 372.009 404.221 371.175C404.727 370.342 405.537 369.738 406.48 369.49M406.13 368.19C404.804 368.49 403.651 369.304 402.925 370.453C402.2 371.603 401.96 372.994 402.26 374.32C402.56 375.646 403.374 376.799 404.523 377.524C405.673 378.25 407.064 378.49 408.39 378.19L408.77 378.1C410.01 377.763 411.079 376.973 411.766 375.886C412.453 374.8 412.708 373.495 412.48 372.23C412.356 371.567 412.103 370.934 411.734 370.369C411.365 369.804 410.888 369.317 410.33 368.937C409.773 368.557 409.146 368.291 408.485 368.154C407.824 368.017 407.143 368.013 406.48 368.14C406.351 368.16 406.224 368.191 406.1 368.23L406.13 368.19Z" fill="#FF365C"/>
<path d="M364.85 375.31L364.52 375.39C363.383 375.629 362.197 375.412 361.218 374.787C360.238 374.162 359.543 373.177 359.281 372.045C359.019 370.913 359.212 369.723 359.817 368.731C360.423 367.739 361.393 367.024 362.52 366.74L362.85 366.67C364.006 366.456 365.199 366.708 366.17 367.372C367.141 368.035 367.809 369.055 368.03 370.21C368.233 371.304 368.02 372.434 367.431 373.378C366.842 374.322 365.922 375.011 364.85 375.31V375.31Z" fill="#FF365C"/>
<path d="M362.73 367.39L363.02 367.33C363.978 367.147 364.969 367.344 365.785 367.878C366.6 368.412 367.177 369.242 367.392 370.193C367.607 371.144 367.445 372.141 366.939 372.975C366.433 373.808 365.623 374.412 364.68 374.66L364.39 374.72C363.432 374.903 362.441 374.706 361.625 374.172C360.81 373.638 360.233 372.808 360.018 371.857C359.803 370.906 359.965 369.909 360.471 369.075C360.977 368.242 361.787 367.638 362.73 367.39M362.38 366.09C361.054 366.39 359.901 367.204 359.175 368.354C358.45 369.503 358.21 370.894 358.51 372.22C358.81 373.546 359.624 374.699 360.773 375.425C361.923 376.15 363.314 376.39 364.64 376.09C364.769 376.071 364.896 376.041 365.02 376C365.677 375.852 366.298 375.577 366.848 375.189C367.398 374.801 367.866 374.309 368.226 373.74C368.586 373.171 368.83 372.537 368.945 371.874C369.06 371.211 369.043 370.532 368.895 369.875C368.747 369.218 368.472 368.597 368.084 368.047C367.696 367.497 367.204 367.029 366.635 366.669C366.066 366.309 365.432 366.065 364.769 365.95C364.106 365.835 363.427 365.852 362.77 366L362.38 366.09Z" fill="#FF365C"/>
<path d="M331.4 384.12L354.51 307.88L393.57 336.86L421.66 295.91L448.11 316.17L467.69 272.08L502.33 289.22L525.33 277.37L527.1 280.8L502.36 293.54L469.58 277.32L449.64 322.2L422.54 301.44L394.48 342.35L356.61 314.25L335.09 385.24L331.4 384.12Z" fill="#7A3C7D"/>
<path d="M468.03 273L502.33 290L525.04 278.3L526.19 280.53L502.36 292.82L469.25 276.45L449.37 321.19L422.37 300.51L394.3 341.43L356.24 313.13L334.64 384.4L332.24 383.67L354.87 309L393.73 337.82L421.81 296.88L448.37 317.22L468.03 273M467.36 271.17L466.79 272.45L447.84 315.11L422.63 295.82L421.5 294.96L420.7 296.13L393.4 335.92L355.68 307.92L354.14 306.82L353.58 308.66L330.95 383.33L330.55 384.62L331.85 385.02L334.25 385.74L335.54 386.13L335.93 384.84L356.93 315.41L393.47 342.52L394.59 343.36L395.38 342.2L422.65 302.46L448.5 322.27L449.86 323.27L450.56 321.71L469.87 278.25L501.71 294L502.32 294.3L502.93 293.99L526.76 281.72L527.96 281.1L527.34 279.9L526.19 277.67L525.58 276.47L524.37 277.09L502.27 288.47L468.62 271.82L467.36 271.2V271.17Z" fill="#7A3C7D"/>
<path d="M340.78 410.4L340.45 410.47C339.877 410.577 339.289 410.57 338.719 410.45C338.149 410.329 337.609 410.097 337.129 409.768C336.648 409.438 336.238 409.017 335.921 408.528C335.604 408.039 335.386 407.493 335.28 406.92C335.083 405.823 335.303 404.691 335.896 403.748C336.49 402.804 337.415 402.117 338.49 401.82L338.83 401.75C339.403 401.643 339.991 401.65 340.561 401.771C341.131 401.891 341.671 402.123 342.151 402.453C342.632 402.783 343.042 403.204 343.359 403.692C343.676 404.181 343.894 404.727 344 405.3C344.199 406.399 343.979 407.533 343.383 408.477C342.787 409.421 341.858 410.108 340.78 410.4V410.4Z" fill="#FF365C"/>
<path d="M338.66 402.48L338.95 402.41C339.908 402.227 340.899 402.424 341.715 402.958C342.53 403.492 343.107 404.322 343.322 405.273C343.537 406.224 343.375 407.221 342.869 408.055C342.363 408.888 341.553 409.492 340.61 409.74L340.33 409.81C339.368 410.005 338.368 409.816 337.543 409.284C336.719 408.751 336.135 407.917 335.917 406.96C335.699 406.003 335.864 404.999 336.376 404.162C336.889 403.325 337.708 402.721 338.66 402.48M338.32 401.17C337.663 401.318 337.042 401.593 336.492 401.981C335.942 402.369 335.474 402.861 335.114 403.43C334.754 403.999 334.51 404.633 334.395 405.296C334.28 405.959 334.297 406.638 334.445 407.295C334.593 407.952 334.868 408.573 335.256 409.123C335.644 409.673 336.136 410.141 336.705 410.501C337.274 410.861 337.908 411.105 338.571 411.22C339.234 411.335 339.913 411.318 340.57 411.17L340.96 411.08C342.202 410.743 343.271 409.951 343.957 408.862C344.642 407.773 344.893 406.466 344.66 405.2C344.536 404.537 344.283 403.905 343.914 403.34C343.545 402.776 343.068 402.29 342.51 401.91C341.952 401.531 341.325 401.266 340.664 401.13C340.003 400.995 339.322 400.991 338.66 401.12L338.28 401.2L338.32 401.17Z" fill="#FF365C"/>
<path d="M339.8 408.94C339.713 408.96 339.622 408.961 339.535 408.944C339.447 408.926 339.364 408.891 339.29 408.84L337.22 407.42C337.146 407.372 337.083 407.309 337.033 407.236C336.984 407.163 336.95 407.08 336.933 406.993C336.917 406.907 336.917 406.817 336.936 406.731C336.954 406.645 336.989 406.563 337.04 406.49L361.83 369.28C361.893 369.183 361.981 369.104 362.085 369.051C362.188 368.998 362.304 368.974 362.42 368.98L406.5 371.17L417.77 344.95C417.81 344.856 417.872 344.773 417.95 344.707C418.028 344.641 418.121 344.594 418.22 344.57C418.328 344.54 418.442 344.54 418.55 344.57L448.02 351.82L487.69 319.01C487.761 318.945 487.847 318.897 487.94 318.87C488.104 318.832 488.277 318.85 488.43 318.92L525.79 337.98C525.869 338.02 525.94 338.076 525.997 338.144C526.055 338.211 526.099 338.29 526.126 338.375C526.153 338.459 526.163 338.548 526.155 338.637C526.147 338.726 526.121 338.812 526.08 338.89L524.95 341.12C524.865 341.281 524.722 341.402 524.55 341.46V341.46C524.389 341.499 524.22 341.482 524.07 341.41L488.56 323.3L449.25 355.82C449.176 355.888 449.087 355.936 448.99 355.96C448.882 355.99 448.768 355.99 448.66 355.96L420.2 348.96L409.14 374.72C409.1 374.814 409.038 374.897 408.96 374.963C408.882 375.029 408.789 375.076 408.69 375.1C408.621 375.116 408.549 375.116 408.48 375.1L364.02 372.89L340.23 408.63C340.141 408.77 340.001 408.87 339.84 408.91L339.8 408.94Z" fill="#FF365C"/>
<path d="M488.14 319.56L525.5 338.61L524.34 340.82L488.45 322.52L448.82 355.32L419.82 348.15L408.53 374.45L363.68 372.22L339.68 408.28L337.6 406.82L362.39 369.61L406.94 371.82L418.39 345.18L448.19 352.55L488.12 319.55M487.77 318.24C487.582 318.292 487.408 318.384 487.26 318.51L447.86 351.1L418.71 343.9C418.49 343.845 418.26 343.845 418.04 343.9C417.843 343.954 417.661 344.051 417.507 344.184C417.353 344.317 417.231 344.483 417.15 344.67L406.07 370.46L362.46 368.29C362.321 368.271 362.179 368.271 362.04 368.29C361.725 368.374 361.451 368.569 361.27 368.84L336.48 406.05C336.281 406.345 336.207 406.706 336.275 407.055C336.342 407.404 336.546 407.711 336.84 407.91L338.9 409.33C339.044 409.431 339.206 409.503 339.378 409.54C339.55 409.578 339.727 409.581 339.9 409.55H340C340.314 409.459 340.587 409.261 340.77 408.99L364.35 373.57L408.45 375.82C408.592 375.828 408.734 375.811 408.87 375.77C409.067 375.718 409.25 375.622 409.404 375.488C409.558 375.355 409.68 375.188 409.76 375L420.6 349.76L448.5 356.66C448.72 356.715 448.95 356.715 449.17 356.66C449.358 356.609 449.532 356.516 449.68 356.39L488.62 324.17L523.73 342.08C524.039 342.237 524.396 342.273 524.73 342.18H524.8C524.969 342.126 525.126 342.039 525.262 341.924C525.397 341.809 525.509 341.668 525.59 341.51L526.72 339.27C526.801 339.113 526.85 338.941 526.864 338.764C526.878 338.588 526.857 338.411 526.802 338.242C526.747 338.074 526.66 337.918 526.544 337.784C526.429 337.65 526.288 337.54 526.13 337.46L488.77 318.4C488.461 318.243 488.104 318.208 487.77 318.3V318.24Z" fill="#FF365C"/>
<path d="M96.91 208.77L119.27 176.96L153.84 199.01L194.18 124.17L252.21 176.23L99.19 212.32L96.91 208.77Z" fill="#F85130"/>
<path d="M255.92 159.68L218.17 133.15L184.89 175.06L146.91 156.31L119.64 205.28L71.76 189.05L57.74 224.45L257.43 188.02L255.92 159.68Z" fill="#FFD021"/>
<path d="M255.92 159.68L218.17 133.15L184.89 175.06L146.91 156.31L119.64 205.28L71.76 189.05L57.74 224.45" stroke="white" stroke-width="3.77" stroke-linecap="round" stroke-linejoin="round"/>
<path d="M34.15 236.03L56.02 204.66L74.52 214.88L95.29 189.55L122.75 203.26L164.36 160.33L209.9 183.4L259.24 149.73L267.19 196.08L34.15 236.03Z" fill="#22B9D2"/>
<path d="M317.56 392.02C317.512 392.766 317.243 393.482 316.788 394.075C316.333 394.668 315.711 395.112 315.002 395.351C314.294 395.59 313.53 395.613 312.809 395.417C312.087 395.22 311.44 394.814 310.95 394.249C310.46 393.684 310.149 392.986 310.057 392.244C309.964 391.502 310.095 390.75 310.431 390.082C310.768 389.414 311.296 388.861 311.947 388.494C312.599 388.127 313.344 387.962 314.09 388.02C315.079 388.094 315.999 388.556 316.649 389.306C317.299 390.055 317.626 391.031 317.56 392.02V392.02Z" fill="#F6F6F6" stroke="#7A3C7D" stroke-width="2.83" stroke-miterlimit="10"/>
<path d="M356.93 327.47C356.882 328.217 356.613 328.932 356.158 329.525C355.703 330.118 355.081 330.562 354.372 330.801C353.664 331.04 352.9 331.063 352.179 330.867C351.457 330.671 350.81 330.264 350.32 329.699C349.83 329.135 349.519 328.437 349.427 327.695C349.334 326.953 349.465 326.2 349.801 325.532C350.138 324.864 350.665 324.312 351.317 323.945C351.968 323.577 352.714 323.412 353.46 323.47C354.449 323.545 355.369 324.007 356.019 324.756C356.669 325.505 356.996 326.481 356.93 327.47V327.47Z" fill="#F6F6F6" stroke="#7A3C7D" stroke-width="2.83" stroke-miterlimit="10"/>
<path d="M387.14 365.25C387.09 365.994 386.82 366.706 386.365 367.296C385.91 367.886 385.289 368.328 384.582 368.564C383.876 368.801 383.114 368.822 382.395 368.625C381.677 368.428 381.032 368.022 380.545 367.459C380.057 366.895 379.748 366.199 379.657 365.459C379.565 364.719 379.696 363.969 380.032 363.304C380.368 362.638 380.894 362.088 381.544 361.722C382.193 361.357 382.937 361.192 383.68 361.25C384.667 361.327 385.584 361.79 386.232 362.539C386.88 363.288 387.206 364.262 387.14 365.25V365.25Z" fill="#F6F6F6" stroke="#7A3C7D" stroke-width="2.83" stroke-miterlimit="10"/>
<path d="M424.35 332.39C424.3 333.134 424.03 333.846 423.575 334.436C423.12 335.026 422.499 335.468 421.792 335.704C421.086 335.941 420.324 335.962 419.605 335.765C418.886 335.569 418.242 335.162 417.755 334.599C417.267 334.035 416.958 333.339 416.867 332.599C416.775 331.86 416.906 331.109 417.242 330.444C417.578 329.779 418.104 329.228 418.754 328.862C419.403 328.497 420.147 328.332 420.89 328.39C421.878 328.464 422.797 328.927 423.445 329.676C424.094 330.426 424.419 331.402 424.35 332.39Z" fill="#F6F6F6" stroke="#7A3C7D" stroke-width="2.83" stroke-miterlimit="10"/>
<path d="M445.24 359.27C445.19 360.014 444.92 360.726 444.465 361.316C444.01 361.906 443.389 362.348 442.682 362.584C441.976 362.821 441.214 362.842 440.495 362.645C439.777 362.448 439.132 362.042 438.645 361.479C438.157 360.915 437.848 360.219 437.757 359.479C437.665 358.739 437.796 357.989 438.132 357.324C438.468 356.658 438.994 356.108 439.644 355.742C440.293 355.377 441.037 355.212 441.78 355.27C442.767 355.347 443.684 355.81 444.332 356.559C444.98 357.308 445.306 358.282 445.24 359.27V359.27Z" fill="#F6F6F6" stroke="#7A3C7D" stroke-width="2.83" stroke-miterlimit="10"/>
<path d="M477.05 322.07C477 322.814 476.73 323.526 476.275 324.116C475.82 324.706 475.199 325.147 474.492 325.384C473.786 325.621 473.024 325.642 472.305 325.445C471.586 325.248 470.942 324.842 470.455 324.278C469.967 323.715 469.658 323.019 469.567 322.279C469.475 321.539 469.606 320.789 469.942 320.124C470.278 319.458 470.804 318.908 471.454 318.542C472.103 318.176 472.847 318.012 473.59 318.07C474.578 318.144 475.497 318.607 476.145 319.356C476.794 320.106 477.119 321.081 477.05 322.07Z" fill="#F6F6F6" stroke="#7A3C7D" stroke-width="2.83" stroke-miterlimit="10"/>
<path d="M503.65 345.82C503.602 346.567 503.333 347.282 502.877 347.876C502.421 348.469 501.799 348.913 501.09 349.151C500.38 349.39 499.616 349.412 498.895 349.215C498.173 349.018 497.526 348.61 497.036 348.044C496.547 347.479 496.237 346.78 496.146 346.037C496.055 345.295 496.187 344.542 496.525 343.874C496.863 343.207 497.392 342.655 498.045 342.289C498.697 341.924 499.444 341.76 500.19 341.82C501.177 341.897 502.094 342.36 502.742 343.109C503.39 343.858 503.716 344.832 503.65 345.82V345.82Z" fill="#F6F6F6" stroke="#7A3C7D" stroke-width="2.83" stroke-miterlimit="10"/>
<path d="M529.87 340.72C529.82 341.464 529.55 342.176 529.095 342.766C528.64 343.356 528.019 343.798 527.312 344.034C526.606 344.271 525.844 344.292 525.125 344.095C524.406 343.899 523.762 343.493 523.275 342.929C522.787 342.365 522.478 341.669 522.387 340.929C522.295 340.19 522.426 339.439 522.762 338.774C523.098 338.109 523.624 337.558 524.274 337.193C524.923 336.827 525.667 336.663 526.41 336.72C527.398 336.795 528.317 337.257 528.965 338.007C529.614 338.756 529.939 339.732 529.87 340.72Z" fill="#F6F6F6" stroke="#7A3C7D" stroke-width="2.83" stroke-miterlimit="10"/>
<g style="mix-blend-mode:multiply" opacity="0.5">
<path d="M619.42 589.3L571.63 250.97C570.919 246.022 568.274 241.557 564.275 238.558C560.276 235.558 555.25 234.268 550.3 234.97L29.07 308.55C24.1228 309.263 19.6602 311.909 16.6609 315.908C13.6616 319.906 12.3702 324.931 13.07 329.88L60.82 668.2C61.5308 673.146 64.1747 677.609 68.1716 680.608C72.1685 683.608 77.192 684.9 82.14 684.2L603.37 610.62C608.326 609.921 612.801 607.282 615.81 603.284C618.82 599.286 620.119 594.256 619.42 589.3Z" fill="#A1B1D5"/>
</g>
<path d="M634.35 577.75C634.677 580.234 634.512 582.759 633.863 585.179C633.215 587.599 632.095 589.867 630.57 591.855C629.044 593.842 627.141 595.509 624.971 596.761C622.8 598.013 620.404 598.825 617.92 599.15L90.14 668.53C85.1235 669.189 80.051 667.828 76.0378 664.746C72.0247 661.665 69.3997 657.117 68.74 652.1L23.74 309.53C23.081 304.517 24.4377 299.447 27.5123 295.434C30.5869 291.42 35.1284 288.79 40.14 288.12L567.91 218.74C570.395 218.413 572.919 218.578 575.34 219.227C577.761 219.875 580.03 220.994 582.019 222.52C584.007 224.046 585.675 225.948 586.928 228.119C588.181 230.289 588.993 232.685 589.32 235.17L634.35 577.75Z" fill="#3F4751"/>
<g opacity="0.3">
<path d="M570.42 225.18C573.443 225.188 576.361 226.292 578.632 228.287C580.903 230.282 582.373 233.033 582.77 236.03L627.77 578.61C627.984 580.235 627.875 581.887 627.45 583.47C627.026 585.053 626.293 586.537 625.295 587.837C624.297 589.137 623.052 590.228 621.632 591.047C620.212 591.866 618.645 592.397 617.02 592.61L89.29 661.99C88.7429 662.062 88.1918 662.098 87.64 662.1C84.6161 662.09 81.6984 660.984 79.4276 658.987C77.1567 656.99 75.6867 654.238 75.29 651.24L30.29 308.67C29.8642 305.389 30.7566 302.073 32.7717 299.448C34.7868 296.824 37.7601 295.106 41.04 294.67L568.81 225.29C569.357 225.214 569.908 225.177 570.46 225.18M570.46 220.46C569.704 220.46 568.949 220.51 568.2 220.61L40.39 289.99C35.8708 290.59 31.7739 292.958 28.9976 296.574C26.2214 300.19 24.9923 304.759 25.58 309.28L70.61 651.82C70.9008 654.061 71.631 656.222 72.7586 658.179C73.8862 660.137 75.389 661.853 77.1811 663.229C78.9731 664.605 81.019 665.613 83.2016 666.197C85.3842 666.781 87.6605 666.928 89.9 666.63L617.68 597.25C619.919 596.957 622.078 596.225 624.034 595.096C625.99 593.968 627.705 592.465 629.079 590.673C630.454 588.882 631.462 586.837 632.045 584.655C632.629 582.474 632.777 580.199 632.48 577.96L587.48 235.39C586.941 231.256 584.921 227.458 581.795 224.7C578.669 221.942 574.649 220.411 570.48 220.39L570.46 220.46Z" fill="#231F20"/>
</g>
<path d="M634.35 577.75C634.677 580.234 634.512 582.759 633.863 585.179C633.215 587.599 632.095 589.867 630.57 591.855C629.044 593.842 627.141 595.509 624.971 596.761C622.8 598.013 620.404 598.825 617.92 599.15L90.14 668.53C85.1235 669.189 80.051 667.828 76.0378 664.746C72.0247 661.665 69.3997 657.117 68.74 652.1L23.74 309.53C23.081 304.517 24.4377 299.447 27.5123 295.434C30.5869 291.42 35.1284 288.79 40.14 288.12L567.91 218.74C570.395 218.413 572.919 218.578 575.34 219.227C577.761 219.875 580.03 220.994 582.019 222.52C584.007 224.046 585.675 225.948 586.928 228.119C588.181 230.289 588.993 232.685 589.32 235.17L634.35 577.75Z" stroke="#BEC8D7" stroke-width="5.66" stroke-miterlimit="10"/>
<path d="M311.52 274.93C311.635 275.836 311.478 276.755 311.071 277.571C310.664 278.388 310.024 279.066 309.232 279.519C308.44 279.973 307.532 280.182 306.621 280.119C305.711 280.057 304.839 279.727 304.116 279.169C303.393 278.612 302.852 277.854 302.56 276.989C302.268 276.125 302.238 275.193 302.475 274.311C302.712 273.43 303.204 272.639 303.89 272.037C304.576 271.435 305.425 271.05 306.33 270.93C307.548 270.774 308.779 271.108 309.752 271.857C310.725 272.607 311.361 273.712 311.52 274.93Z" fill="#3F4751"/>
<path d="M544.46 265.1L74.7918 326.85L113.509 621.335L583.177 559.586L544.46 265.1Z" fill="white"/>
<path d="M463.024 452.838L448.976 454.697L450.836 468.745L464.883 466.885L463.024 452.838Z" fill="#72BCB9"/>
<path d="M461.4 454.96L462.77 465.27L452.46 466.64L451.14 456.33L461.45 454.96M464.7 450.73L460.96 451.22L450.65 452.59L446.91 453.08L447.4 456.82L448.77 467.13L449.26 470.87L453 470.38L463.31 469.01L467.05 468.52L466.56 464.78L465.14 454.47L464.65 450.73H464.7Z" fill="white"/>
<path d="M537.438 448.122L470.997 456.917L471.52 460.862L537.96 452.068L537.438 448.122Z" fill="#5A5A7A"/>
<path d="M464.147 469.364L450.119 471.206L451.961 485.234L465.989 483.392L464.147 469.364Z" fill="#FF6464"/>
<path d="M463.61 471.67L464.98 481.98L454.67 483.34L453.3 473.03L463.61 471.67ZM466.86 467.43L463.12 467.93L452.81 469.29L449.07 469.79L449.56 473.53L450.93 483.82L451.42 487.56L455.16 487.06L465.47 485.7L469.21 485.2L468.72 481.46L467.35 471.15L466.86 467.41V467.43Z" fill="white"/>
<path d="M496.568 470.531L473.212 473.623L473.734 477.568L497.091 474.477L496.568 470.531Z" fill="#5A5A7A"/>
<path d="M467.439 486.249L453.392 488.108L455.251 502.156L469.299 500.297L467.439 486.249Z" fill="#FFD021"/>
<path d="M465.82 488.37L467.19 498.68L456.88 500.04L455.51 489.73L465.82 488.37ZM469.07 484.13L465.33 484.63L455.02 485.99L451.28 486.49L451.77 490.23L453.14 500.54L453.63 504.28L457.37 503.78L467.68 502.42L471.42 501.92L470.93 498.18L469.56 487.87L469.07 484.13Z" fill="white"/>
<path d="M528.663 483.276L475.427 490.322L475.949 494.268L529.185 487.221L528.663 483.276Z" fill="#5A5A7A"/>
<path d="M469.511 503.469L455.464 505.328L457.323 519.376L471.37 517.516L469.511 503.469Z" fill="#B64FAF"/>
<path d="M467.89 505.59L469.25 515.9L458.94 517.27L457.58 506.96L467.89 505.59M471.13 501.36L467.39 501.85L457.08 503.22L453.34 503.71L453.84 507.45L455.2 517.76L455.7 521.5L459.44 521.01L469.75 519.64L473.49 519.15L472.99 515.41L471.63 505.1L471.13 501.36Z" fill="white"/>
<path d="M530.724 500.497L477.489 507.543L478.011 511.489L531.247 504.442L530.724 500.497Z" fill="#5A5A7A"/>
<path opacity="0.6" d="M136.95 507.9C181.95 502.03 156.3 396.68 221.01 391.44C291.48 385.74 277.69 526.96 394.14 511.82C401.473 510.86 408.413 509.72 414.96 508.4L416.82 525.05L145 561.31L136.95 507.9Z" fill="#B9B6F6"/>
<path opacity="0.5" d="M131.46 467.55C161.58 463.62 181.6 482.16 193.83 494.02C212.71 512.32 247.83 516.68 267.33 485.42C298.51 435.42 335.39 435.02 368.99 463.76C382.27 475.12 396.99 480.43 410.99 478.76L415.74 523.59L143.74 559.41L131.46 467.55Z" fill="#FF7D55"/>
<path opacity="0.4" d="M413.74 506.46C407.207 507.793 400.263 508.933 392.91 509.88C336.91 517.18 311.04 488.35 291.42 457.06C283.13 463.68 275.06 473.06 267.33 485.42C247.86 516.68 212.71 512.32 193.83 494.02C186.65 487.02 176.83 477.8 163.83 472.13C158.54 489.52 151.61 503.4 136.58 505.82L143.74 559.39L415.48 523.83L413.74 506.46Z" fill="#CD8EFF"/>
<path d="M302.7 538.36L291.7 457.49C276.99 434.12 265.85 409.3 248.32 397.08L266.91 543.08L302.7 538.36Z" fill="#FFD021"/>
<path d="M291.71 457.5L292.01 459.82" stroke="white" stroke-width="2.34" stroke-miterlimit="10" stroke-linecap="round"/>
<path d="M292.94 466.91L301.72 534.28" stroke="white" stroke-width="2.34" stroke-miterlimit="10" stroke-linecap="round" stroke-dasharray="4.77 7.15"/>
<path d="M302.19 537.83L302.49 540.15" stroke="white" stroke-width="2.34" stroke-miterlimit="10" stroke-linecap="round"/>
<path d="M337.3 443.7L337.61 446.01" stroke="white" stroke-width="2.34" stroke-miterlimit="10" stroke-linecap="round"/>
<path d="M338.49 452.78L348.35 528.37" stroke="white" stroke-width="2.34" stroke-miterlimit="10" stroke-linecap="round" stroke-dasharray="4.55 6.83"/>
<path d="M348.79 531.75L349.09 534.07" stroke="white" stroke-width="2.34" stroke-miterlimit="10" stroke-linecap="round"/>
<path d="M248.4 399.51L248.71 401.83" stroke="white" stroke-width="2.34" stroke-miterlimit="10" stroke-linecap="round"/>
<path d="M249.64 409L266.32 536.9" stroke="white" stroke-width="2.34" stroke-miterlimit="10" stroke-linecap="round" stroke-dasharray="4.82 7.23"/>
<path d="M266.79 540.48L267.09 542.8" stroke="white" stroke-width="2.34" stroke-miterlimit="10" stroke-linecap="round"/>
<path d="M164.26 474.12L164.56 476.44" stroke="white" stroke-width="2.34" stroke-miterlimit="10" stroke-linecap="round"/>
<path d="M165.49 483.53L174.28 550.91" stroke="white" stroke-width="2.34" stroke-miterlimit="10" stroke-linecap="round" stroke-dasharray="4.77 7.15"/>
<path d="M174.74 554.45L175.04 556.77" stroke="white" stroke-width="2.34" stroke-miterlimit="10" stroke-linecap="round"/>
<path d="M345.47 506.18C358.47 510.68 373.96 512.35 392.91 509.88C400.243 508.92 407.187 507.78 413.74 506.46" stroke="#8B82DC" stroke-width="3.12" stroke-miterlimit="10"/>
<path d="M135.69 506.01C180.69 500.15 155.04 394.79 219.76 389.55C278.76 384.78 278.69 483 345.47 506.18" stroke="#8B82DC" stroke-width="3.12" stroke-miterlimit="10"/>
<path d="M291.49 457C316.63 437 343.73 442.16 368.99 463.76C382.27 475.12 396.99 480.43 410.99 478.76" stroke="#FF7261" stroke-width="2.47" stroke-miterlimit="10"/>
<path d="M260.51 494.33C263.077 491.597 265.362 488.612 267.33 485.42C275.08 472.98 283.18 463.62 291.49 457" stroke="white" stroke-width="2.47" stroke-miterlimit="10"/>
<path d="M131.46 467.55C161.58 463.62 181.6 482.16 193.83 494.02C210.67 510.34 240.45 515.57 260.51 494.33" stroke="#FF7261" stroke-width="2.47" stroke-miterlimit="10"/>
<path d="M120.99 384.96L143.74 559.43L417.84 523.68" stroke="#3F4751" stroke-width="3.89" stroke-miterlimit="10"/>
<path d="M119.56 374.06L115.29 390.25L121.09 385.78L127.85 388.61L119.56 374.06Z" fill="#3F4751"/>
<path d="M428.75 522.25L414.2 530.54L417.02 523.78L412.56 517.98L428.75 522.25Z" fill="#3F4751"/>
<path d="M159.94 472.59C159.836 471.788 159.972 470.972 160.331 470.248C160.691 469.523 161.257 468.921 161.958 468.518C162.66 468.114 163.465 467.928 164.272 467.983C165.079 468.038 165.852 468.33 166.493 468.824C167.134 469.318 167.614 469.991 167.872 470.758C168.13 471.524 168.155 472.35 167.944 473.131C167.733 473.912 167.295 474.613 166.685 475.145C166.076 475.677 165.322 476.016 164.52 476.12C163.987 476.19 163.446 476.154 162.927 476.015C162.408 475.875 161.922 475.634 161.497 475.306C161.071 474.978 160.715 474.57 160.447 474.103C160.18 473.637 160.008 473.123 159.94 472.59Z" fill="white" stroke="#FF6464" stroke-width="2.34" stroke-miterlimit="10"/>
<path d="M127.97 468.38C127.866 467.578 128.002 466.763 128.361 466.038C128.721 465.313 129.287 464.711 129.988 464.308C130.69 463.904 131.495 463.718 132.302 463.773C133.109 463.828 133.882 464.12 134.523 464.614C135.164 465.108 135.644 465.781 135.902 466.548C136.16 467.314 136.185 468.14 135.974 468.921C135.763 469.702 135.325 470.403 134.715 470.935C134.106 471.467 133.352 471.806 132.55 471.91C132.017 471.981 131.475 471.947 130.956 471.808C130.437 471.669 129.95 471.428 129.524 471.1C129.098 470.772 128.742 470.362 128.475 469.895C128.208 469.429 128.037 468.913 127.97 468.38V468.38Z" fill="white" stroke="#FF6464" stroke-width="2.34" stroke-miterlimit="10"/>
<path d="M287.65 458.03C287.544 457.228 287.679 456.413 288.036 455.687C288.394 454.962 288.959 454.358 289.659 453.954C290.359 453.549 291.164 453.361 291.971 453.414C292.778 453.467 293.552 453.758 294.194 454.25C294.836 454.742 295.317 455.414 295.577 456.179C295.838 456.945 295.865 457.771 295.656 458.553C295.447 459.334 295.011 460.036 294.403 460.569C293.795 461.103 293.042 461.444 292.24 461.55C291.165 461.689 290.079 461.397 289.218 460.738C288.358 460.078 287.794 459.104 287.65 458.03V458.03Z" fill="white" stroke="#FF6464" stroke-width="2.34" stroke-miterlimit="10"/>
<path d="M244.2 397.23C244.094 396.428 244.229 395.613 244.586 394.887C244.944 394.162 245.509 393.559 246.209 393.154C246.909 392.749 247.714 392.561 248.521 392.614C249.328 392.667 250.102 392.958 250.744 393.45C251.386 393.942 251.867 394.614 252.127 395.38C252.388 396.146 252.415 396.971 252.206 397.753C251.997 398.534 251.561 399.236 250.953 399.77C250.345 400.303 249.592 400.644 248.79 400.75C247.715 400.889 246.629 400.597 245.768 399.938C244.908 399.278 244.344 398.305 244.2 397.23V397.23Z" fill="#8B82DC"/>
<path d="M333.94 446.49C333.836 445.688 333.972 444.873 334.331 444.148C334.691 443.423 335.257 442.821 335.958 442.418C336.66 442.015 337.465 441.829 338.272 441.883C339.079 441.938 339.852 442.231 340.493 442.725C341.134 443.218 341.614 443.891 341.872 444.658C342.13 445.425 342.155 446.251 341.944 447.032C341.733 447.813 341.295 448.513 340.685 449.045C340.076 449.577 339.322 449.917 338.52 450.02C337.987 450.092 337.445 450.057 336.926 449.918C336.407 449.779 335.92 449.538 335.494 449.21C335.068 448.882 334.712 448.473 334.445 448.006C334.178 447.539 334.007 447.024 333.94 446.49V446.49Z" fill="#FF6464"/>
<path d="M171.31 431.31C171.204 430.508 171.339 429.693 171.696 428.967C172.054 428.241 172.619 427.638 173.319 427.234C174.019 426.829 174.824 426.641 175.631 426.694C176.438 426.746 177.212 427.037 177.854 427.53C178.496 428.022 178.977 428.693 179.237 429.459C179.498 430.225 179.525 431.051 179.316 431.832C179.107 432.614 178.671 433.316 178.063 433.849C177.455 434.383 176.702 434.724 175.9 434.83C174.825 434.969 173.739 434.677 172.878 434.017C172.018 433.358 171.454 432.384 171.31 431.31V431.31Z" fill="#8B82DC"/>
<path d="M171.08 555.98C170.974 555.178 171.108 554.362 171.466 553.636C171.824 552.91 172.389 552.306 173.09 551.902C173.791 551.497 174.596 551.31 175.404 551.363C176.212 551.416 176.985 551.708 177.627 552.201C178.269 552.694 178.75 553.367 179.009 554.134C179.268 554.9 179.294 555.727 179.084 556.508C178.873 557.29 178.435 557.991 177.826 558.524C177.216 559.056 176.463 559.396 175.66 559.5C175.128 559.57 174.587 559.535 174.069 559.396C173.551 559.257 173.065 559.017 172.64 558.69C172.214 558.363 171.858 557.956 171.59 557.491C171.322 557.026 171.149 556.512 171.08 555.98Z" fill="#3F4751"/>
<path d="M298.52 539.35C298.416 538.548 298.552 537.733 298.911 537.009C299.27 536.284 299.836 535.683 300.537 535.279C301.238 534.876 302.042 534.69 302.849 534.744C303.656 534.798 304.429 535.09 305.07 535.583C305.71 536.076 306.191 536.747 306.45 537.513C306.709 538.279 306.736 539.105 306.526 539.886C306.317 540.666 305.88 541.368 305.272 541.901C304.664 542.434 303.912 542.774 303.11 542.88C302.577 542.95 302.035 542.914 301.515 542.775C300.996 542.635 300.509 542.395 300.083 542.067C299.656 541.739 299.299 541.33 299.031 540.864C298.763 540.398 298.589 539.883 298.52 539.35Z" fill="#3F4751"/>
<path d="M345.38 533.24C345.276 532.438 345.412 531.624 345.771 530.899C346.13 530.175 346.696 529.573 347.397 529.17C348.098 528.767 348.902 528.58 349.709 528.634C350.516 528.688 351.289 528.98 351.93 529.473C352.57 529.966 353.051 530.638 353.31 531.404C353.569 532.169 353.596 532.995 353.386 533.776C353.177 534.557 352.74 535.258 352.132 535.791C351.524 536.324 350.772 536.665 349.97 536.77C349.437 536.84 348.895 536.805 348.375 536.665C347.856 536.526 347.369 536.285 346.943 535.957C346.516 535.629 346.159 535.22 345.891 534.754C345.623 534.288 345.449 533.773 345.38 533.24V533.24Z" fill="#3F4751"/>
<path d="M263.38 543.94C263.274 543.138 263.408 542.322 263.766 541.596C264.124 540.87 264.689 540.266 265.39 539.862C266.091 539.457 266.896 539.27 267.704 539.323C268.512 539.376 269.285 539.668 269.927 540.161C270.569 540.654 271.05 541.327 271.309 542.094C271.568 542.86 271.594 543.687 271.384 544.468C271.173 545.25 270.735 545.951 270.126 546.484C269.516 547.016 268.763 547.356 267.96 547.46C266.887 547.596 265.803 547.303 264.945 546.644C264.087 545.984 263.524 545.012 263.38 543.94V543.94Z" fill="#3F4751"/>
<path d="M133.14 506.2C133.034 505.398 133.169 504.583 133.526 503.857C133.884 503.132 134.449 502.528 135.149 502.124C135.849 501.719 136.654 501.531 137.461 501.584C138.268 501.637 139.042 501.927 139.684 502.42C140.326 502.912 140.807 503.583 141.067 504.349C141.328 505.115 141.355 505.941 141.146 506.723C140.937 507.504 140.501 508.206 139.893 508.739C139.285 509.273 138.532 509.614 137.73 509.72C136.655 509.859 135.569 509.567 134.708 508.907C133.848 508.248 133.284 507.274 133.14 506.2V506.2Z" fill="white" stroke="#8B82DC" stroke-width="2.34" stroke-miterlimit="10"/>
<path d="M251.78 372.36L253.19 388.53L269.07 387.13L264.34 378.21L251.78 372.36Z" fill="#8B82DC"/>
<path d="M267.2 385.82C263.603 385.88 260.122 384.553 257.477 382.114C254.833 379.676 253.228 376.313 252.997 372.723C252.765 369.134 253.925 365.592 256.234 362.834C258.543 360.076 261.825 358.313 265.4 357.91C266.007 357.838 266.618 357.802 267.23 357.8C270.943 357.8 274.504 359.275 277.129 361.901C279.755 364.526 281.23 368.087 281.23 371.8C281.23 375.513 279.755 379.074 277.129 381.7C274.504 384.325 270.943 385.8 267.23 385.8L267.2 385.82Z" fill="white"/>
<path d="M267.23 359.22C270.426 359.233 273.498 360.459 275.824 362.65C278.151 364.841 279.559 367.834 279.763 371.023C279.967 374.213 278.953 377.36 276.926 379.831C274.898 382.301 272.008 383.909 268.84 384.33C268.296 384.398 267.748 384.431 267.2 384.43C264.003 384.42 260.93 383.195 258.602 381.005C256.273 378.815 254.863 375.822 254.658 372.632C254.452 369.442 255.465 366.293 257.493 363.822C259.521 361.35 262.411 359.741 265.58 359.32C266.127 359.252 266.678 359.218 267.23 359.22M267.23 356.41C266.561 356.412 265.893 356.459 265.23 356.55C261.349 357.057 257.807 359.023 255.322 362.046C252.837 365.07 251.596 368.927 251.85 372.832C252.105 376.738 253.836 380.4 256.692 383.076C259.549 385.752 263.316 387.241 267.23 387.24C267.899 387.238 268.567 387.192 269.23 387.1C273.111 386.593 276.653 384.628 279.138 381.604C281.623 378.58 282.864 374.724 282.61 370.818C282.355 366.912 280.624 363.25 277.768 360.574C274.912 357.898 271.144 356.41 267.23 356.41Z" fill="#8B82DC"/>
<path d="M341.38 423.91L342.79 440.08L358.67 438.68L353.94 429.76L341.38 423.91Z" fill="#FF6464"/>
<path d="M356.8 437.39C353.203 437.45 349.722 436.123 347.077 433.684C344.433 431.246 342.828 427.883 342.597 424.293C342.365 420.703 343.525 417.162 345.834 414.404C348.143 411.646 351.425 409.883 355 409.48C355.607 409.408 356.218 409.372 356.83 409.37C360.227 409.373 363.508 410.611 366.06 412.854C368.612 415.097 370.261 418.191 370.7 421.56C370.961 423.538 370.796 425.548 370.216 427.457C369.637 429.366 368.656 431.129 367.34 432.628C366.024 434.126 364.403 435.327 362.585 436.148C360.767 436.97 358.795 437.393 356.8 437.39V437.39Z" fill="white"/>
<path d="M356.83 410.82C360.026 410.833 363.098 412.059 365.424 414.25C367.751 416.441 369.159 419.434 369.363 422.623C369.567 425.813 368.553 428.961 366.526 431.431C364.498 433.901 361.608 435.509 358.44 435.93C357.893 435.999 357.342 436.032 356.79 436.03C353.496 436.174 350.277 435.023 347.822 432.822C345.367 430.622 343.871 427.547 343.655 424.258C343.44 420.968 344.521 417.724 346.668 415.222C348.814 412.72 351.856 411.157 355.14 410.87C355.687 410.802 356.238 410.769 356.79 410.77M356.79 407.97C356.121 407.969 355.453 408.012 354.79 408.1C350.909 408.608 347.367 410.573 344.882 413.597C342.397 416.621 341.156 420.477 341.41 424.382C341.665 428.288 343.396 431.951 346.252 434.626C349.108 437.302 352.876 438.791 356.79 438.79C357.459 438.787 358.127 438.743 358.79 438.66C362.671 438.153 366.213 436.188 368.698 433.164C371.183 430.14 372.424 426.284 372.17 422.378C371.915 418.472 370.184 414.81 367.328 412.134C364.472 409.458 360.704 407.97 356.79 407.97Z" fill="#FF6464"/>
<path d="M261.02 499.49C259.744 499.487 258.513 499.021 257.555 498.178C256.597 497.336 255.977 496.175 255.81 494.91C255.72 494.226 255.766 493.531 255.945 492.864C256.124 492.198 256.433 491.573 256.854 491.026C257.275 490.479 257.799 490.02 258.397 489.676C258.995 489.332 259.656 489.109 260.34 489.02C260.569 488.989 260.799 488.972 261.03 488.97C262.425 488.97 263.763 489.524 264.749 490.511C265.736 491.497 266.29 492.835 266.29 494.23C266.29 495.625 265.736 496.963 264.749 497.95C263.763 498.936 262.425 499.49 261.03 499.49H261.02Z" fill="white"/>
<path d="M261.02 490.14C262.065 490.131 263.074 490.522 263.84 491.233C264.606 491.944 265.07 492.922 265.138 493.964C265.206 495.007 264.872 496.037 264.205 496.841C263.537 497.646 262.588 498.164 261.55 498.29H261.02C259.988 498.28 258.998 497.881 258.248 497.171C257.499 496.462 257.045 495.496 256.978 494.466C256.911 493.436 257.236 492.419 257.887 491.619C258.538 490.818 259.468 490.294 260.49 490.15C260.666 490.136 260.844 490.136 261.02 490.15M261.02 487.81C260.739 487.81 260.458 487.83 260.18 487.87C258.57 488.091 257.103 488.914 256.075 490.173C255.047 491.432 254.533 493.034 254.639 494.656C254.744 496.278 255.459 497.8 256.642 498.916C257.824 500.032 259.385 500.659 261.01 500.67C261.286 500.685 261.564 500.685 261.84 500.67C263.465 500.466 264.951 499.65 265.995 498.388C267.038 497.126 267.561 495.514 267.457 493.879C267.352 492.245 266.628 490.712 265.432 489.594C264.236 488.475 262.658 487.855 261.02 487.86V487.81Z" fill="#FF6464"/>
<path d="M345.43 511.26C344.101 511.25 342.826 510.736 341.86 509.824C340.894 508.911 340.309 507.667 340.223 506.341C340.137 505.015 340.556 503.706 341.396 502.676C342.236 501.646 343.434 500.973 344.75 500.79C344.979 500.759 345.209 500.742 345.44 500.74C346.715 500.746 347.945 501.213 348.903 502.055C349.86 502.896 350.481 504.056 350.65 505.32C350.829 506.704 350.451 508.103 349.6 509.209C348.749 510.315 347.494 511.038 346.11 511.22C345.884 511.248 345.657 511.262 345.43 511.26Z" fill="white"/>
<path d="M345.44 501.91C346.484 501.904 347.491 502.296 348.255 503.008C349.019 503.721 349.481 504.698 349.548 505.74C349.614 506.782 349.28 507.81 348.613 508.613C347.946 509.416 346.997 509.934 345.96 510.06H345.43C344.398 510.05 343.408 509.651 342.658 508.942C341.909 508.232 341.455 507.266 341.388 506.236C341.321 505.206 341.646 504.189 342.297 503.389C342.948 502.588 343.878 502.064 344.9 501.92C345.08 501.905 345.26 501.905 345.44 501.92M345.44 499.59C345.159 499.587 344.878 499.604 344.6 499.64C342.99 499.862 341.523 500.684 340.495 501.944C339.467 503.203 338.953 504.804 339.059 506.426C339.164 508.049 339.88 509.571 341.062 510.686C342.244 511.802 343.805 512.429 345.43 512.44C345.707 512.439 345.984 512.422 346.26 512.39C347.87 512.169 349.336 511.347 350.364 510.089C351.392 508.831 351.906 507.23 351.802 505.609C351.698 503.988 350.984 502.466 349.804 501.349C348.624 500.232 347.065 499.604 345.44 499.59V499.59Z" fill="#8B82DC"/>
<path d="M529.679 358.184L437.581 370.964L440.965 395.35L533.062 382.571L529.679 358.184Z" fill="#5A5A7A"/>
<path d="M499.997 394.431L441.963 402.484L443.508 413.617L501.542 405.564L499.997 394.431Z" fill="#5A5A7A"/>
<path d="M473.915 416.297L444.715 420.349L446.26 431.482L475.46 427.43L473.915 416.297Z" fill="#5A5A7A"/>
</g>
<defs>
<clipPath id="clip0_84_299">
<rect width="1828.39" height="900" fill="white"/>
</clipPath>
</defs>
</svg>
