<svg id="Layer_1" data-name="Layer 1" xmlns="http://www.w3.org/2000/svg" xmlns:xlink="http://www.w3.org/1999/xlink" viewBox="0 0 654 250"><defs><style>.cls-1,.cls-3,.cls-4{fill:none;}.cls-2{clip-path:url(#clip-path);}.cls-3{stroke:#2680d5;}.cls-3,.cls-4{stroke-miterlimit:10;}.cls-4{stroke:#03aad6;stroke-width:2.6px;}.cls-5{fill:#03aad6;}.cls-6{opacity:0.15;}.cls-7{fill:#fff;}</style><clipPath id="clip-path"><rect class="cls-1" x="-2004.63" width="1920" height="142.18"/></clipPath></defs><g class="cls-2"><path class="cls-3" d="M-84.63,334.28l54.42-54.41h0L178.5,71.16-30.21-137.55h0L-84.63-192-347.75,71.16ZM-277.49,34.85l36.31,36.31-36.31,36.31L-313.8,71.16Zm385.73,72.62L71.93,71.16l36.31-36.31,36.31,36.31ZM-47.18,262.89h0l-37.45,37.45-85.06-85.07,68.21-68.21L-171.74,76.8l-51,51.05L-187.67,163l17-17-18.16-18.16,17.11-17.11,36.31,36.32-51.24,51.23-73.85-73.84,53.29-53.29-53.29-53.28L-186.67-56l51.24,51.24-36.31,36.31-17.11-17.11,18.16-18.16-17-17-35.12,35.13,51,51.05,70.26-70.25-68.21-68.22,47.62-47.62h0L-84.63-158l37.45,37.45h0L.44-72.95-67.77-4.73,2.49,65.52l51.05-51L18.42-20.66l-17,17L19.6,14.47,2.49,31.58-33.82-4.73,17.42-56,91.26,17.88,38,71.16l53.28,53.29L17.42,198.29l-51.24-51.23L2.49,110.74,19.6,127.85,1.44,146l17,17,35.12-35.13-51-51-70.26,70.26L.44,215.27Z"/></g><polygon class="cls-4" points="12.59 125 126.31 238.72 527.69 238.72 641.41 125 527.69 11.28 126.31 11.28 12.59 125"/><path class="cls-5" d="M363.48,102.45a4.35,4.35,0,0,1,1.92,1.6,4.83,4.83,0,0,1,0,4.91,4.3,4.3,0,0,1-1.92,1.61,7.26,7.26,0,0,1-3,.55H358v3.52H355V101.88h5.52A7.09,7.09,0,0,1,363.48,102.45Zm-1.09,5.69a2,2,0,0,0,.69-1.63,2,2,0,0,0-.69-1.65,3.12,3.12,0,0,0-2-.57H358v4.43h2.41A3.06,3.06,0,0,0,362.39,108.14Z"/><path class="cls-5" d="M378.05,112.27v2.37h-9.88V101.88h9.64v2.37H371.1V107H377v2.3H371.1v3Z"/><path class="cls-5" d="M383,114a6.32,6.32,0,0,1-2.5-2.36,6.5,6.5,0,0,1,2.5-9.12,7.46,7.46,0,0,1,3.58-.86,7.36,7.36,0,0,1,3.57.86,6.45,6.45,0,0,1,2.5,2.36,6.5,6.5,0,0,1-2.5,9.12,7.36,7.36,0,0,1-3.57.86A7.46,7.46,0,0,1,383,114Zm5.62-2.18a3.6,3.6,0,0,0,1.43-1.44,4.56,4.56,0,0,0,0-4.23,3.63,3.63,0,0,0-1.43-1.45,4,4,0,0,0-2-.52,4,4,0,0,0-2,.52,3.69,3.69,0,0,0-1.43,1.45,4.56,4.56,0,0,0,0,4.23,3.67,3.67,0,0,0,1.43,1.44,4,4,0,0,0,2,.52A4,4,0,0,0,388.58,111.82Z"/><path class="cls-5" d="M404.21,102.45a4.32,4.32,0,0,1,1.93,1.6,4.83,4.83,0,0,1,0,4.91,4.28,4.28,0,0,1-1.93,1.61,7.18,7.18,0,0,1-2.94.55H398.7v3.52h-2.95V101.88h5.52A7,7,0,0,1,404.21,102.45Zm-1.08,5.69a2,2,0,0,0,.69-1.63,2,2,0,0,0-.69-1.65,3.12,3.12,0,0,0-2-.57H398.7v4.43h2.41A3.06,3.06,0,0,0,403.13,108.14Z"/><path class="cls-5" d="M408.91,101.88h2.95v10.35h6.4v2.41h-9.35Z"/><path class="cls-5" d="M429.8,112.27v2.37h-9.88V101.88h9.64v2.37h-6.71V107h5.92v2.3h-5.92v3Z"/><path class="cls-5" d="M292.92,50V84.65h-8V56.45H278V50Z"/><path class="cls-5" d="M306.13,83.12A14.3,14.3,0,0,1,300.86,77a22.39,22.39,0,0,1-1.9-9.63,22.37,22.37,0,0,1,1.9-9.62,14.3,14.3,0,0,1,5.27-6.16,14.87,14.87,0,0,1,15.34,0,14.3,14.3,0,0,1,5.27,6.16,22.37,22.37,0,0,1,1.9,9.62,22.39,22.39,0,0,1-1.9,9.63,14.3,14.3,0,0,1-5.27,6.16,14.93,14.93,0,0,1-15.34,0Zm12.64-7.38q1.82-2.71,1.81-8.41t-1.81-8.41a5.85,5.85,0,0,0-9.89,0q-1.81,2.73-1.81,8.41t1.81,8.41a5.84,5.84,0,0,0,9.89,0Z"/><path class="cls-5" d="M339.72,83.12A14.3,14.3,0,0,1,334.45,77a22.39,22.39,0,0,1-1.9-9.63,22.37,22.37,0,0,1,1.9-9.62,14.3,14.3,0,0,1,5.27-6.16,14.87,14.87,0,0,1,15.34,0,14.3,14.3,0,0,1,5.27,6.16,22.37,22.37,0,0,1,1.9,9.62,22.39,22.39,0,0,1-1.9,9.63,14.3,14.3,0,0,1-5.27,6.16,14.93,14.93,0,0,1-15.34,0Zm12.64-7.38q1.81-2.71,1.81-8.41t-1.81-8.41a5.85,5.85,0,0,0-9.89,0q-1.82,2.73-1.81,8.41t1.81,8.41a5.84,5.84,0,0,0,9.89,0Z"/><path class="cls-5" d="M373.51,76.76a4.56,4.56,0,0,1,1.34,3.44,7.9,7.9,0,0,1-.25,2,20.08,20.08,0,0,1-1.09,3l-2.82,7.13H365.8L368,84.4a4,4,0,0,1-2-1.61,4.64,4.64,0,0,1-.72-2.59,4.54,4.54,0,0,1,1.36-3.44,4.79,4.79,0,0,1,3.44-1.31A4.67,4.67,0,0,1,373.51,76.76Z"/><path class="cls-5" d="M385,83.12A14.3,14.3,0,0,1,379.72,77a22.39,22.39,0,0,1-1.9-9.63,22.37,22.37,0,0,1,1.9-9.62A14.3,14.3,0,0,1,385,51.55a14.87,14.87,0,0,1,15.34,0,14.3,14.3,0,0,1,5.27,6.16,22.37,22.37,0,0,1,1.9,9.62A22.39,22.39,0,0,1,405.6,77a14.3,14.3,0,0,1-5.27,6.16,14.93,14.93,0,0,1-15.34,0Zm12.64-7.38q1.81-2.71,1.81-8.41t-1.81-8.41a5.85,5.85,0,0,0-9.89,0q-1.82,2.73-1.81,8.41t1.81,8.41a5.84,5.84,0,0,0,9.89,0Z"/><path class="cls-5" d="M418.59,83.12A14.23,14.23,0,0,1,413.32,77a22.38,22.38,0,0,1-1.91-9.63,22.37,22.37,0,0,1,1.91-9.62,14.23,14.23,0,0,1,5.27-6.16,14.86,14.86,0,0,1,15.33,0,14.23,14.23,0,0,1,5.27,6.16,22.37,22.37,0,0,1,1.91,9.62A22.38,22.38,0,0,1,439.19,77a13.74,13.74,0,0,1-12.94,8.28A14.07,14.07,0,0,1,418.59,83.12Zm12.64-7.38Q433,73,433,67.33t-1.8-8.41a5.86,5.86,0,0,0-9.9,0q-1.8,2.73-1.8,8.41t1.8,8.41a5.85,5.85,0,0,0,9.9,0Z"/><path class="cls-5" d="M452.18,83.12A14.3,14.3,0,0,1,446.91,77,22.38,22.38,0,0,1,445,67.33a22.37,22.37,0,0,1,1.91-9.62,14.3,14.3,0,0,1,5.27-6.16,14.87,14.87,0,0,1,15.34,0,14.28,14.28,0,0,1,5.26,6.16,22.37,22.37,0,0,1,1.91,9.62A22.38,22.38,0,0,1,472.78,77a14.28,14.28,0,0,1-5.26,6.16,14.93,14.93,0,0,1-15.34,0Zm12.64-7.38c1.2-1.81,1.81-4.61,1.81-8.41s-.61-6.59-1.81-8.41a5.86,5.86,0,0,0-9.9,0q-1.8,2.73-1.8,8.41t1.8,8.41a5.85,5.85,0,0,0,9.9,0Z"/><path class="cls-5" d="M503.48,70.35h-8.61v8.41h-6.38V70.35h-8.56v-6h8.56V55.91h6.38v8.41h8.61Z"/><path d="M290.13,143.74a4.93,4.93,0,0,1-.93,3.12,3.06,3.06,0,0,1-2.55,1.18,3.25,3.25,0,0,1-1.55-.35,2.85,2.85,0,0,1-1.09-1l-.27,1.22H282.5V135h1.62v5a3,3,0,0,1,1.05-.91,3.34,3.34,0,0,1,1.46-.31,3,3,0,0,1,2.58,1.32,6,6,0,0,1,.92,3.48Zm-1.63-.18a4.94,4.94,0,0,0-.56-2.51,1.88,1.88,0,0,0-1.72-1,2.14,2.14,0,0,0-1.27.37,2.69,2.69,0,0,0-.83,1v3.87a2.72,2.72,0,0,0,.83,1,2.09,2.09,0,0,0,1.28.37,1.91,1.91,0,0,0,1.71-.82,3.7,3.7,0,0,0,.56-2.16Z"/><path d="M295.82,148a3.79,3.79,0,0,1-3-1.23,4.78,4.78,0,0,1-1.07-3.24v-.36a4.64,4.64,0,0,1,1.11-3.19,3.47,3.47,0,0,1,2.71-1.26,3.23,3.23,0,0,1,2.69,1.12,4.57,4.57,0,0,1,.9,3v.86h-5.72l0,0a3.68,3.68,0,0,0,.59,2.19,2.08,2.08,0,0,0,1.82.84,4,4,0,0,0,1.45-.24,3.14,3.14,0,0,0,1.07-.65l.64,1.06a3.92,3.92,0,0,1-1.27.78A4.85,4.85,0,0,1,295.82,148Zm-.26-8a1.78,1.78,0,0,0-1.41.66,3.11,3.11,0,0,0-.68,1.68l0,0h4v-.13a2.59,2.59,0,0,0-.48-1.61A1.72,1.72,0,0,0,295.56,140Z"/><path d="M302.43,138.93l.12,1.33a3.13,3.13,0,0,1,1.12-1.11,3,3,0,0,1,1.53-.39,2.91,2.91,0,0,1,2.24.85,3.69,3.69,0,0,1,.79,2.61v5.65H306.6v-5.61a2.43,2.43,0,0,0-.46-1.68,1.88,1.88,0,0,0-1.43-.5,2.55,2.55,0,0,0-1.28.3,2.33,2.33,0,0,0-.83.85v6.64H301v-8.94Z"/><path d="M314.3,148a3.79,3.79,0,0,1-3-1.23,4.73,4.73,0,0,1-1.07-3.24v-.36a4.64,4.64,0,0,1,1.11-3.19,3.47,3.47,0,0,1,2.71-1.26,3.23,3.23,0,0,1,2.69,1.12,4.57,4.57,0,0,1,.9,3v.86h-5.72l0,0a3.68,3.68,0,0,0,.59,2.19,2.08,2.08,0,0,0,1.82.84,4,4,0,0,0,1.45-.24,3.14,3.14,0,0,0,1.07-.65l.64,1.06a3.92,3.92,0,0,1-1.27.78A4.85,4.85,0,0,1,314.3,148Zm-.26-8a1.76,1.76,0,0,0-1.41.66,3.11,3.11,0,0,0-.68,1.68l0,0h4v-.13a2.59,2.59,0,0,0-.48-1.61A1.72,1.72,0,0,0,314,140Z"/><path d="M319.91,147.87v-7.74H318.5v-1.2h1.41v-1a3,3,0,0,1,.88-2.33,3.44,3.44,0,0,1,2.44-.83,4.45,4.45,0,0,1,1.09.13c.36.09.78.21,1.27.38l-.28,1.32a6.88,6.88,0,0,0-.94-.3,4.29,4.29,0,0,0-1-.12,1.91,1.91,0,0,0-1.4.43,1.8,1.8,0,0,0-.42,1.32v1h1.77v1.2h-1.77v7.74Zm6.47,0h-1.64v-8.94h1.64Z"/><path d="M331.14,136.77v2.16h1.69v1.2h-1.69v5.43a1.24,1.24,0,0,0,.26.89.93.93,0,0,0,.69.25l.31,0,.29-.08.23,1.11a1.51,1.51,0,0,1-.54.25,2.86,2.86,0,0,1-.7.09,2.11,2.11,0,0,1-1.58-.6,2.6,2.6,0,0,1-.59-1.88v-5.43h-1.42v-1.2h1.42v-2.16Z"/><path d="M336.84,136.77v2.16h1.7v1.2h-1.7v5.43a1.24,1.24,0,0,0,.26.89,1,1,0,0,0,.69.25l.32,0,.29-.08.22,1.11a1.51,1.51,0,0,1-.54.25,2.8,2.8,0,0,1-.7.09,2.11,2.11,0,0,1-1.58-.6,2.6,2.6,0,0,1-.58-1.88v-5.43h-1.43v-1.2h1.43v-2.16Z"/><path d="M344,148a3.78,3.78,0,0,1-3-1.23,4.73,4.73,0,0,1-1.08-3.24v-.36A4.64,4.64,0,0,1,341,140a3.49,3.49,0,0,1,2.72-1.26,3.24,3.24,0,0,1,2.69,1.12,4.62,4.62,0,0,1,.89,3v.86H341.6l0,0a3.68,3.68,0,0,0,.6,2.19,2.06,2.06,0,0,0,1.81.84,4,4,0,0,0,1.45-.24,3,3,0,0,0,1.07-.65l.64,1.06a3.87,3.87,0,0,1-1.26.78A4.94,4.94,0,0,1,344,148Zm-.25-8a1.76,1.76,0,0,0-1.41.66,3.11,3.11,0,0,0-.68,1.68v0h4v-.13a2.59,2.59,0,0,0-.48-1.61A1.73,1.73,0,0,0,343.73,140Z"/><path d="M348.77,143.56a6,6,0,0,1,.92-3.48,3,3,0,0,1,2.58-1.32,3.27,3.27,0,0,1,1.4.29,2.77,2.77,0,0,1,1,.84V135h1.63v12.89h-1.25l-.25-1.13a2.86,2.86,0,0,1-1.08,1,3.24,3.24,0,0,1-1.49.33,3.09,3.09,0,0,1-2.57-1.18,5,5,0,0,1-.92-3.12Zm1.63.18a3.82,3.82,0,0,0,.55,2.17,1.94,1.94,0,0,0,1.72.81,2.16,2.16,0,0,0,1.22-.33,2.47,2.47,0,0,0,.81-.93v-4.17a2.55,2.55,0,0,0-.81-.88,2.14,2.14,0,0,0-1.2-.33,1.87,1.87,0,0,0-1.74,1,5,5,0,0,0-.55,2.51Z"/><path d="M363.64,147.87v-7.74h-1.39v-1.2h1.39v-1.14a3.07,3.07,0,0,1,.75-2.21,2.77,2.77,0,0,1,2.09-.78,3.66,3.66,0,0,1,.57,0c.19,0,.4.07.63.13l-.2,1.24a1.68,1.68,0,0,0-.36-.06,3.15,3.15,0,0,0-.44,0,1.26,1.26,0,0,0-1.06.43,1.9,1.9,0,0,0-.35,1.23v1.14h1.62v1.2h-1.62v7.74Z"/><path d="M372.77,140.36l-.84-.05a1.86,1.86,0,0,0-1.08.31,1.9,1.9,0,0,0-.68.86v6.39h-1.63v-8.94H370l.16,1.3a3.12,3.12,0,0,1,.94-1.08,2.18,2.18,0,0,1,1.28-.39,2,2,0,0,1,.35,0l.27.06Z"/><path d="M373.92,143.31a4.87,4.87,0,0,1,1.07-3.26,3.61,3.61,0,0,1,2.92-1.29,3.65,3.65,0,0,1,2.94,1.28,4.92,4.92,0,0,1,1.08,3.27v.19a4.88,4.88,0,0,1-1.08,3.27,4,4,0,0,1-5.85,0,4.87,4.87,0,0,1-1.08-3.26Zm1.63.19a4.21,4.21,0,0,0,.59,2.34,2,2,0,0,0,1.79.93,2,2,0,0,0,1.76-.93,4.13,4.13,0,0,0,.61-2.34v-.19a4.23,4.23,0,0,0-.61-2.33,2,2,0,0,0-1.78-.94,2,2,0,0,0-1.77.94,4.22,4.22,0,0,0-.59,2.33Z"/><path d="M385.37,138.93l.12,1.17a3.11,3.11,0,0,1,1.11-1,3.38,3.38,0,0,1,1.56-.35,2.83,2.83,0,0,1,1.54.41,2.53,2.53,0,0,1,1,1.24,3.44,3.44,0,0,1,1.12-1.21,3,3,0,0,1,1.62-.44,2.65,2.65,0,0,1,2.15.94,4.26,4.26,0,0,1,.8,2.82v5.35h-1.63V142.5a2.93,2.93,0,0,0-.46-1.87,1.66,1.66,0,0,0-1.35-.55,1.73,1.73,0,0,0-1.35.58,2.48,2.48,0,0,0-.61,1.46v5.75h-1.64V142.5a2.91,2.91,0,0,0-.46-1.83,1.63,1.63,0,0,0-1.35-.59,2.19,2.19,0,0,0-1.22.31,2,2,0,0,0-.74.86v6.62h-1.62v-8.94Z"/><path d="M412,135.84v8a3.89,3.89,0,0,1-1.29,3.1A4.92,4.92,0,0,1,407.4,148a4.59,4.59,0,0,1-3.2-1.12,3.94,3.94,0,0,1-1.25-3.09v-8h1.63v8a2.89,2.89,0,0,0,.79,2.16,2.75,2.75,0,0,0,2,.78,3,3,0,0,0,2.16-.78,2.83,2.83,0,0,0,.83-2.16v-8Z"/><path d="M423.69,147.87h-1.62l-5.8-9.19h0v9.18h-1.63v-12h1.63L422,145l.05,0v-9.16h1.62Z"/><path d="M432.26,136.64h-1.63V135h1.63Zm0,11.23h-1.63v-8.94h1.63Z"/><path d="M436.21,138.93l.12,1.33a3.21,3.21,0,0,1,1.12-1.11,3,3,0,0,1,1.53-.39,2.9,2.9,0,0,1,2.24.85,3.69,3.69,0,0,1,.8,2.61v5.65h-1.63v-5.61a2.43,2.43,0,0,0-.47-1.68,1.87,1.87,0,0,0-1.42-.5,2.53,2.53,0,0,0-1.28.3,2.26,2.26,0,0,0-.83.85v6.64h-1.63v-8.94Z"/><path d="M446.14,136.64h-1.63V135h1.63Zm0,11.23h-1.63v-8.94h1.63Z"/><path d="M450.91,136.77v2.16h1.69v1.2h-1.69v5.43a1.24,1.24,0,0,0,.26.89.93.93,0,0,0,.69.25l.31,0,.29-.08.23,1.11a1.6,1.6,0,0,1-.54.25,2.86,2.86,0,0,1-.7.09,2.1,2.1,0,0,1-1.58-.6,2.6,2.6,0,0,1-.59-1.88v-5.43h-1.42v-1.2h1.42v-2.16Z"/><path d="M456.11,136.64h-1.63V135h1.63Zm0,11.23h-1.63v-8.94h1.63Z"/><path d="M464.11,147.87c-.06-.27-.1-.51-.13-.72a6.2,6.2,0,0,1-.06-.62,3.73,3.73,0,0,1-1.18,1.08,3,3,0,0,1-1.58.43,2.92,2.92,0,0,1-2.12-.71,2.64,2.64,0,0,1-.74-2,2.32,2.32,0,0,1,1-2,4.87,4.87,0,0,1,2.82-.72h1.76v-.89a1.67,1.67,0,0,0-.47-1.24,1.88,1.88,0,0,0-1.36-.46,1.92,1.92,0,0,0-1.28.4,1.17,1.17,0,0,0-.49.95l-1.54,0,0,0a2.16,2.16,0,0,1,.91-1.79,3.8,3.8,0,0,1,2.51-.81,3.72,3.72,0,0,1,2.45.77,2.77,2.77,0,0,1,.92,2.23v4.31a9.12,9.12,0,0,0,.05.92,6.54,6.54,0,0,0,.18.88Zm-2.71-1.19a2.85,2.85,0,0,0,1.6-.46,2.14,2.14,0,0,0,.92-1v-1.45H462.1a2.39,2.39,0,0,0-1.58.49,1.5,1.5,0,0,0-.59,1.17,1.24,1.24,0,0,0,.37.94A1.58,1.58,0,0,0,461.4,146.68Z"/><path d="M470.18,136.77v2.16h1.69v1.2h-1.69v5.43a1.24,1.24,0,0,0,.26.89.93.93,0,0,0,.69.25l.31,0,.29-.08.23,1.11a1.51,1.51,0,0,1-.54.25,2.86,2.86,0,0,1-.7.09,2.11,2.11,0,0,1-1.58-.6,2.6,2.6,0,0,1-.59-1.88v-5.43h-1.42v-1.2h1.42v-2.16Z"/><path d="M475.38,136.64h-1.63V135h1.63Zm0,11.23h-1.63v-8.94h1.63Z"/><path d="M480.87,145.23l.14.63h.05l.15-.63,2.06-6.3h1.66l-3.29,8.94h-1.23l-3.33-8.94h1.67Z"/><path d="M490,148a3.78,3.78,0,0,1-3-1.23,4.73,4.73,0,0,1-1.08-3.24v-.36A4.64,4.64,0,0,1,487,140a3.49,3.49,0,0,1,2.71-1.26,3.21,3.21,0,0,1,2.69,1.12,4.57,4.57,0,0,1,.9,3v.86H487.6l0,0a3.75,3.75,0,0,0,.59,2.19,2.09,2.09,0,0,0,1.82.84,4,4,0,0,0,1.45-.24,3,3,0,0,0,1.07-.65l.64,1.06a3.82,3.82,0,0,1-1.27.78A4.85,4.85,0,0,1,490,148Zm-.26-8a1.76,1.76,0,0,0-1.4.66,3.12,3.12,0,0,0-.69,1.68l0,0h4v-.13a2.59,2.59,0,0,0-.48-1.61A1.72,1.72,0,0,0,489.73,140Z"/><path d="M500.35,145.46a1.07,1.07,0,0,0-.41-.87,3.91,3.91,0,0,0-1.55-.6,6.37,6.37,0,0,1-2.43-1,1.93,1.93,0,0,1-.85-1.63,2.36,2.36,0,0,1,.93-1.87,4.1,4.1,0,0,1,4.88.05,2.41,2.41,0,0,1,.9,1.92l0,.05h-1.55a1.43,1.43,0,0,0-.51-1.05,2.14,2.14,0,0,0-2.57-.08,1.2,1.2,0,0,0-.43.93,1,1,0,0,0,.37.81,4,4,0,0,0,1.52.53,6.26,6.26,0,0,1,2.49,1,2,2,0,0,1,.85,1.66,2.36,2.36,0,0,1-1,1.94,4,4,0,0,1-2.52.75,3.92,3.92,0,0,1-2.69-.87,2.42,2.42,0,0,1-.93-2v-.05h1.56a1.49,1.49,0,0,0,.64,1.27,2.46,2.46,0,0,0,1.41.4,2.18,2.18,0,0,0,1.36-.37A1.12,1.12,0,0,0,500.35,145.46Z"/><path d="M332.8,157.08v2.16h1.69v1.2H332.8v5.43a1.2,1.2,0,0,0,.26.89.93.93,0,0,0,.69.25l.31,0,.29-.08.22,1.11a1.54,1.54,0,0,1-.53.25,2.88,2.88,0,0,1-.71.09,2.09,2.09,0,0,1-1.57-.6,2.56,2.56,0,0,1-.59-1.88v-5.43h-1.42v-1.2h1.42v-2.16Z"/><path d="M335.86,163.62a4.87,4.87,0,0,1,1.07-3.26,4,4,0,0,1,5.85,0,4.92,4.92,0,0,1,1.08,3.27v.19a4.88,4.88,0,0,1-1.07,3.27,4,4,0,0,1-5.86,0,4.91,4.91,0,0,1-1.07-3.27Zm1.62.19a4.21,4.21,0,0,0,.6,2.34,2.16,2.16,0,0,0,3.55,0,4.21,4.21,0,0,0,.61-2.34v-.19a4.23,4.23,0,0,0-.61-2.33,2,2,0,0,0-1.78-.94,2,2,0,0,0-1.77.94,4.22,4.22,0,0,0-.6,2.33Z"/><path d="M357.68,164.05a5,5,0,0,1-.92,3.12,3.07,3.07,0,0,1-2.56,1.18,3.64,3.64,0,0,1-1.45-.27,2.87,2.87,0,0,1-1.06-.84v4.38h-1.63V159.24h1.25l.26,1.15a2.92,2.92,0,0,1,1.09-1,3.19,3.19,0,0,1,1.52-.34,3,3,0,0,1,2.58,1.32,6,6,0,0,1,.92,3.48Zm-1.63-.18a4.75,4.75,0,0,0-.6-2.5,1.94,1.94,0,0,0-1.76-1,2.19,2.19,0,0,0-1.2.32,2.32,2.32,0,0,0-.8.87v4.33a2.37,2.37,0,0,0,.8.86,2.23,2.23,0,0,0,1.22.31,2,2,0,0,0,1.75-.85,3.67,3.67,0,0,0,.59-2.18Z"/><path d="M363.91,160.67l-.83,0a1.92,1.92,0,0,0-1.09.31,2,2,0,0,0-.68.86v6.39h-1.63v-8.94h1.46l.15,1.3a3.22,3.22,0,0,1,.94-1.08,2.19,2.19,0,0,1,1.29-.39,1.87,1.87,0,0,1,.34,0l.28.06Z"/><path d="M365.06,163.62a4.87,4.87,0,0,1,1.08-3.26,3.57,3.57,0,0,1,2.91-1.29,3.65,3.65,0,0,1,2.94,1.28,4.92,4.92,0,0,1,1.08,3.27v.19a4.93,4.93,0,0,1-1.07,3.27,4,4,0,0,1-5.86,0,4.92,4.92,0,0,1-1.08-3.27Zm1.63.19a4.21,4.21,0,0,0,.6,2.34,2.16,2.16,0,0,0,3.55,0,4.21,4.21,0,0,0,.6-2.34v-.19a4.14,4.14,0,0,0-.61-2.33,2.14,2.14,0,0,0-3.54,0,4.22,4.22,0,0,0-.6,2.33Z"/><path d="M376.52,159.24l.11,1.17a3.11,3.11,0,0,1,1.11-1,3.4,3.4,0,0,1,1.57-.35,2.77,2.77,0,0,1,1.53.41,2.55,2.55,0,0,1,1,1.24,3.35,3.35,0,0,1,1.12-1.21,2.94,2.94,0,0,1,1.61-.44,2.67,2.67,0,0,1,2.16.94,4.27,4.27,0,0,1,.79,2.82v5.35h-1.63v-5.37a3,3,0,0,0-.45-1.87,1.68,1.68,0,0,0-1.36-.55,1.76,1.76,0,0,0-1.35.58,2.65,2.65,0,0,0-.61,1.46v5.75h-1.63v-5.37A2.91,2.91,0,0,0,380,161a1.62,1.62,0,0,0-1.34-.59,2.25,2.25,0,0,0-1.22.31,2,2,0,0,0-.74.86v6.62h-1.63v-8.94Z"/><path d="M389.47,163.62a4.87,4.87,0,0,1,1.08-3.26,4,4,0,0,1,5.85,0,4.92,4.92,0,0,1,1.08,3.27v.19a4.88,4.88,0,0,1-1.07,3.27,4,4,0,0,1-5.86,0,4.92,4.92,0,0,1-1.08-3.27Zm1.63.19a4.21,4.21,0,0,0,.6,2.34,2.16,2.16,0,0,0,3.55,0,4.21,4.21,0,0,0,.61-2.34v-.19a4.23,4.23,0,0,0-.61-2.33,2,2,0,0,0-1.78-.94,2,2,0,0,0-1.77.94,4.22,4.22,0,0,0-.6,2.33Z"/><path d="M401.74,157.08v2.16h1.69v1.2h-1.69v5.43a1.24,1.24,0,0,0,.26.89.93.93,0,0,0,.69.25l.31,0a2.24,2.24,0,0,0,.29-.08l.23,1.11a1.6,1.6,0,0,1-.54.25,2.86,2.86,0,0,1-.7.09,2.1,2.1,0,0,1-1.58-.6,2.6,2.6,0,0,1-.59-1.88v-5.43h-1.42v-1.2h1.42v-2.16Z"/><path d="M408.88,168.35a3.77,3.77,0,0,1-3-1.23,4.73,4.73,0,0,1-1.08-3.24v-.36a4.64,4.64,0,0,1,1.11-3.19,3.47,3.47,0,0,1,2.71-1.26,3.21,3.21,0,0,1,2.69,1.12,4.57,4.57,0,0,1,.9,3V164h-5.72l0,0a3.68,3.68,0,0,0,.59,2.19,2.08,2.08,0,0,0,1.82.84,4,4,0,0,0,1.45-.24,3,3,0,0,0,1.07-.65l.64,1.06a3.82,3.82,0,0,1-1.27.78A4.85,4.85,0,0,1,408.88,168.35Zm-.26-8a1.79,1.79,0,0,0-1.41.66,3.11,3.11,0,0,0-.68,1.68l0,0h4v-.13a2.59,2.59,0,0,0-.48-1.61A1.72,1.72,0,0,0,408.62,160.35Z"/><path d="M417.86,163.62a4.87,4.87,0,0,1,1.08-3.26,3.59,3.59,0,0,1,2.91-1.29,3.65,3.65,0,0,1,2.94,1.28,4.92,4.92,0,0,1,1.08,3.27v.19a4.93,4.93,0,0,1-1.07,3.27,4,4,0,0,1-5.86,0,4.92,4.92,0,0,1-1.08-3.27Zm1.63.19a4.21,4.21,0,0,0,.6,2.34,2.16,2.16,0,0,0,3.55,0,4.21,4.21,0,0,0,.6-2.34v-.19a4.22,4.22,0,0,0-.6-2.33,2,2,0,0,0-1.79-.94,2,2,0,0,0-1.76.94,4.22,4.22,0,0,0-.6,2.33Z"/><path d="M435.48,164.05a5,5,0,0,1-.92,3.12,3.07,3.07,0,0,1-2.56,1.18,3.64,3.64,0,0,1-1.45-.27,2.87,2.87,0,0,1-1.06-.84v4.38h-1.63V159.24h1.25l.26,1.15a2.92,2.92,0,0,1,1.09-1,3.19,3.19,0,0,1,1.52-.34,3,3,0,0,1,2.58,1.32,5.92,5.92,0,0,1,.92,3.48Zm-1.63-.18a4.75,4.75,0,0,0-.59-2.5,2,2,0,0,0-1.77-1,2.19,2.19,0,0,0-1.2.32,2.32,2.32,0,0,0-.8.87v4.33a2.37,2.37,0,0,0,.8.86,2.23,2.23,0,0,0,1.22.31,2,2,0,0,0,1.75-.85,3.67,3.67,0,0,0,.59-2.18Z"/><path d="M441.18,168.35a3.78,3.78,0,0,1-3-1.23,4.73,4.73,0,0,1-1.08-3.24v-.36a4.64,4.64,0,0,1,1.11-3.19,3.51,3.51,0,0,1,2.72-1.26,3.24,3.24,0,0,1,2.69,1.12,4.57,4.57,0,0,1,.9,3V164H438.8l0,0a3.68,3.68,0,0,0,.6,2.19,2.06,2.06,0,0,0,1.81.84,4.06,4.06,0,0,0,1.46-.24,3.14,3.14,0,0,0,1.07-.65l.63,1.06a3.87,3.87,0,0,1-1.26.78A4.94,4.94,0,0,1,441.18,168.35Zm-.25-8a1.76,1.76,0,0,0-1.41.66,3.11,3.11,0,0,0-.68,1.68v0h4v-.13a2.59,2.59,0,0,0-.48-1.61A1.72,1.72,0,0,0,440.93,160.35Z"/><path d="M447.8,159.24l.11,1.33a3.3,3.3,0,0,1,1.12-1.11,3,3,0,0,1,1.54-.39,2.87,2.87,0,0,1,2.23.85,3.69,3.69,0,0,1,.8,2.61v5.65H452v-5.61a2.43,2.43,0,0,0-.47-1.68,1.86,1.86,0,0,0-1.42-.5,2.45,2.45,0,0,0-1.28.31,2.16,2.16,0,0,0-.83.84v6.64h-1.63v-8.94Z"/><path d="M301.31,184.18a6,6,0,0,1,.93-3.48,3,3,0,0,1,2.58-1.32,3.23,3.23,0,0,1,1.39.29,2.81,2.81,0,0,1,1,.84V175.6h1.63v12.89h-1.25l-.25-1.13a2.86,2.86,0,0,1-1.08,1,3.25,3.25,0,0,1-1.5.33,3.07,3.07,0,0,1-2.56-1.18,4.91,4.91,0,0,1-.93-3.12Zm1.63.18a3.82,3.82,0,0,0,.56,2.17,1.94,1.94,0,0,0,1.72.81,2.16,2.16,0,0,0,1.22-.33,2.47,2.47,0,0,0,.81-.93v-4.17a2.48,2.48,0,0,0-.82-.88,2.11,2.11,0,0,0-1.2-.33,1.87,1.87,0,0,0-1.73,1,5,5,0,0,0-.56,2.51Z"/><path d="M315,188.66a3.79,3.79,0,0,1-3-1.23,4.78,4.78,0,0,1-1.07-3.24v-.36a4.64,4.64,0,0,1,1.11-3.19,3.47,3.47,0,0,1,2.71-1.26,3.23,3.23,0,0,1,2.69,1.12,4.57,4.57,0,0,1,.9,3v.86h-5.72l0,.05a3.67,3.67,0,0,0,.59,2.18,2.08,2.08,0,0,0,1.82.84,4,4,0,0,0,1.45-.24,3.28,3.28,0,0,0,1.07-.64l.64,1.05a3.92,3.92,0,0,1-1.27.78A4.85,4.85,0,0,1,315,188.66Zm-.26-8a1.78,1.78,0,0,0-1.41.66,3.11,3.11,0,0,0-.68,1.68l0,0h4v-.13a2.59,2.59,0,0,0-.48-1.61A1.72,1.72,0,0,0,314.75,180.66Z"/><path d="M320.84,188.49v-7.74h-1.39v-1.2h1.39v-1.14a3.07,3.07,0,0,1,.75-2.21,2.77,2.77,0,0,1,2.09-.78,3.53,3.53,0,0,1,.56.05c.19,0,.4.07.64.13l-.2,1.24a2.69,2.69,0,0,0-.36-.06,3.15,3.15,0,0,0-.44,0,1.29,1.29,0,0,0-1.06.43,1.9,1.9,0,0,0-.35,1.23v1.14h1.62v1.2h-1.62v7.74Z"/><path d="M329.24,188.66a3.78,3.78,0,0,1-3-1.23,4.73,4.73,0,0,1-1.08-3.24v-.36a4.64,4.64,0,0,1,1.11-3.19,3.49,3.49,0,0,1,2.71-1.26,3.21,3.21,0,0,1,2.69,1.12,4.57,4.57,0,0,1,.9,3v.86h-5.72l0,.05a3.74,3.74,0,0,0,.59,2.18,2.08,2.08,0,0,0,1.82.84,4,4,0,0,0,1.45-.24,3.18,3.18,0,0,0,1.07-.64l.64,1.05a3.82,3.82,0,0,1-1.27.78A4.85,4.85,0,0,1,329.24,188.66Zm-.26-8a1.79,1.79,0,0,0-1.41.66,3.19,3.19,0,0,0-.68,1.68l0,0h4v-.13a2.59,2.59,0,0,0-.48-1.61A1.72,1.72,0,0,0,329,180.66Z"/><path d="M338,187.39a1.91,1.91,0,0,0,1.31-.5,1.56,1.56,0,0,0,.57-1.23h1.47l0,.05a2.6,2.6,0,0,1-1,2.06,3.54,3.54,0,0,1-2.38.89,3.49,3.49,0,0,1-2.91-1.28,5,5,0,0,1-1-3.19v-.35a4.87,4.87,0,0,1,1-3.17,3.49,3.49,0,0,1,2.9-1.29,3.37,3.37,0,0,1,2.45.93,2.91,2.91,0,0,1,.92,2.27v0h-1.48a1.94,1.94,0,0,0-.54-1.39,1.72,1.72,0,0,0-1.34-.58,1.89,1.89,0,0,0-1.75.93,4.41,4.41,0,0,0-.55,2.25v.35a4.41,4.41,0,0,0,.54,2.27A1.88,1.88,0,0,0,338,187.39Z"/><path d="M348.75,188.49c-.05-.27-.1-.51-.13-.72s0-.41-.05-.62a3.76,3.76,0,0,1-1.19,1.08,3,3,0,0,1-1.57.43,3,3,0,0,1-2.13-.71,2.63,2.63,0,0,1-.73-2,2.32,2.32,0,0,1,1-2,4.85,4.85,0,0,1,2.81-.72h1.77v-.88a1.65,1.65,0,0,0-.48-1.25,1.9,1.9,0,0,0-1.35-.46,1.92,1.92,0,0,0-1.28.4,1.17,1.17,0,0,0-.49.95l-1.55,0V182a2.13,2.13,0,0,1,.91-1.79,3.78,3.78,0,0,1,2.51-.81,3.7,3.7,0,0,1,2.44.77,2.74,2.74,0,0,1,.93,2.23v4.31a9,9,0,0,0,.05.92,4.44,4.44,0,0,0,.18.88Zm-2.7-1.19a2.82,2.82,0,0,0,1.59-.46,2.11,2.11,0,0,0,.93-1v-1.45h-1.83a2.36,2.36,0,0,0-1.57.49,1.5,1.5,0,0,0-.59,1.17,1.21,1.21,0,0,0,.37.94A1.58,1.58,0,0,0,346.05,187.3Z"/><path d="M354.83,177.39v2.16h1.69v1.2h-1.69v5.43a1.2,1.2,0,0,0,.26.89.93.93,0,0,0,.69.25l.31,0,.29-.08.22,1.11a1.54,1.54,0,0,1-.53.25,2.88,2.88,0,0,1-.71.09,2.09,2.09,0,0,1-1.57-.6,2.56,2.56,0,0,1-.59-1.88v-5.43h-1.42v-1.2h1.42v-2.16Z"/><path d="M360,177.26H358.4V175.6H360Zm0,11.23H358.4v-8.94H360Z"/><path d="M362.15,183.94a4.93,4.93,0,0,1,1.07-3.27,3.61,3.61,0,0,1,2.92-1.29,3.65,3.65,0,0,1,2.94,1.28,4.93,4.93,0,0,1,1.08,3.28v.18a4.88,4.88,0,0,1-1.08,3.27,4,4,0,0,1-5.85,0,4.9,4.9,0,0,1-1.08-3.27Zm1.63.18a4.21,4.21,0,0,0,.6,2.34,2.16,2.16,0,0,0,3.55,0,4.21,4.21,0,0,0,.6-2.34v-.18a4.16,4.16,0,0,0-.61-2.34,2,2,0,0,0-1.78-.94,1.94,1.94,0,0,0-1.76.94,4.24,4.24,0,0,0-.6,2.34Z"/><path d="M373.6,179.55l.12,1.33a3.3,3.3,0,0,1,1.12-1.11,3,3,0,0,1,1.53-.39,2.9,2.9,0,0,1,2.24.85,3.71,3.71,0,0,1,.8,2.61v5.65h-1.63v-5.61a2.43,2.43,0,0,0-.47-1.68,1.88,1.88,0,0,0-1.43-.5,2.42,2.42,0,0,0-1.27.31,2.16,2.16,0,0,0-.83.84v6.64h-1.63v-8.94Z"/><path d="M386.84,184H382v-1.27h4.87Z"/><path d="M390.07,188.49v-7.74h-1.39v-1.2h1.39v-1.14a3.07,3.07,0,0,1,.75-2.21,2.77,2.77,0,0,1,2.09-.78,3.66,3.66,0,0,1,.57.05c.19,0,.4.07.63.13l-.2,1.24a2.69,2.69,0,0,0-.36-.06,3.15,3.15,0,0,0-.44,0,1.29,1.29,0,0,0-1.06.43,1.9,1.9,0,0,0-.35,1.23v1.14h1.62v1.2H391.7v7.74Z"/><path d="M399.2,181l-.84,0a1.86,1.86,0,0,0-1.08.3,2,2,0,0,0-.69.86v6.39H395v-8.94h1.45l.16,1.3a3,3,0,0,1,.94-1.08,2.18,2.18,0,0,1,1.28-.39,2,2,0,0,1,.35,0l.27.06Z"/><path d="M404.44,188.66a3.79,3.79,0,0,1-3-1.23,4.73,4.73,0,0,1-1.08-3.24v-.36a4.65,4.65,0,0,1,1.12-3.19,3.47,3.47,0,0,1,2.71-1.26,3.23,3.23,0,0,1,2.69,1.12,4.57,4.57,0,0,1,.9,3v.86h-5.72l0,.05a3.67,3.67,0,0,0,.6,2.18,2.08,2.08,0,0,0,1.82.84,4,4,0,0,0,1.45-.24,3.28,3.28,0,0,0,1.07-.64l.63,1.05a3.76,3.76,0,0,1-1.26.78A4.85,4.85,0,0,1,404.44,188.66Zm-.26-8a1.76,1.76,0,0,0-1.41.66,3.11,3.11,0,0,0-.68,1.68l0,0h4v-.13a2.59,2.59,0,0,0-.48-1.61A1.72,1.72,0,0,0,404.18,180.66Z"/><path d="M413.3,188.66a3.79,3.79,0,0,1-3-1.23,4.73,4.73,0,0,1-1.08-3.24v-.36a4.6,4.6,0,0,1,1.12-3.19,3.47,3.47,0,0,1,2.71-1.26,3.23,3.23,0,0,1,2.69,1.12,4.57,4.57,0,0,1,.9,3v.86h-5.72l0,.05a3.67,3.67,0,0,0,.6,2.18,2.08,2.08,0,0,0,1.82.84,4,4,0,0,0,1.45-.24,3.28,3.28,0,0,0,1.07-.64l.63,1.05a3.87,3.87,0,0,1-1.26.78A4.85,4.85,0,0,1,413.3,188.66Zm-.26-8a1.76,1.76,0,0,0-1.41.66A3.11,3.11,0,0,0,411,183l0,0h4v-.13a2.59,2.59,0,0,0-.48-1.61A1.72,1.72,0,0,0,413,180.66Z"/><path d="M425.64,185.85l.14.63h.05l.16-.63,2.06-6.3h1.66l-3.29,8.94h-1.23l-3.33-8.94h1.67Z"/><path d="M432.93,177.26h-1.62V175.6h1.62Zm0,11.23h-1.62v-8.94h1.62Z"/><path d="M437.2,188.49h-1.63V175.6h1.63Z"/><path d="M441.46,188.49h-1.63V175.6h1.63Z"/><path d="M449.46,188.49c0-.27-.1-.51-.13-.72s0-.41-.05-.62a3.76,3.76,0,0,1-1.19,1.08,3,3,0,0,1-1.57.43,3,3,0,0,1-2.13-.71,2.63,2.63,0,0,1-.73-2,2.32,2.32,0,0,1,1-2,4.85,4.85,0,0,1,2.81-.72h1.77v-.88a1.65,1.65,0,0,0-.48-1.25,1.9,1.9,0,0,0-1.35-.46,2,2,0,0,0-1.29.4,1.19,1.19,0,0,0-.48.95l-1.55,0V182a2.13,2.13,0,0,1,.91-1.79,3.78,3.78,0,0,1,2.51-.81,3.7,3.7,0,0,1,2.44.77,2.74,2.74,0,0,1,.93,2.23v4.31a9,9,0,0,0,0,.92,4.44,4.44,0,0,0,.18.88Zm-2.7-1.19a2.82,2.82,0,0,0,1.59-.46,2.11,2.11,0,0,0,.93-1v-1.45h-1.83a2.36,2.36,0,0,0-1.57.49,1.5,1.5,0,0,0-.59,1.17,1.21,1.21,0,0,0,.37.94A1.56,1.56,0,0,0,446.76,187.3Z"/><path d="M453,184.18a6,6,0,0,1,.92-3.48,3,3,0,0,1,2.58-1.32,3.21,3.21,0,0,1,1.49.34,3.11,3.11,0,0,1,1.09,1l.2-1.16h1.29v9a3.42,3.42,0,0,1-1,2.64,4.12,4.12,0,0,1-2.88.92,5.89,5.89,0,0,1-1.39-.18,5.67,5.67,0,0,1-1.32-.48l.25-1.26a5.29,5.29,0,0,0,1.13.4,6,6,0,0,0,1.31.15,2.36,2.36,0,0,0,1.73-.54,2.25,2.25,0,0,0,.54-1.65v-1a2.81,2.81,0,0,1-1,.85,3.19,3.19,0,0,1-1.42.29,3.07,3.07,0,0,1-2.56-1.18,5,5,0,0,1-.92-3.12Zm1.63.18a3.86,3.86,0,0,0,.55,2.16,1.91,1.91,0,0,0,1.71.82,2.18,2.18,0,0,0,1.24-.33,2.53,2.53,0,0,0,.81-.95v-4.12a2.53,2.53,0,0,0-.81-.9,2.19,2.19,0,0,0-1.22-.34,1.87,1.87,0,0,0-1.72,1,5,5,0,0,0-.56,2.51Z"/><path d="M466.59,188.66a3.78,3.78,0,0,1-3-1.23,4.73,4.73,0,0,1-1.08-3.24v-.36a4.64,4.64,0,0,1,1.11-3.19,3.49,3.49,0,0,1,2.72-1.26A3.24,3.24,0,0,1,469,180.5a4.57,4.57,0,0,1,.9,3v.86h-5.72l0,.05a3.67,3.67,0,0,0,.6,2.18,2.06,2.06,0,0,0,1.81.84,4,4,0,0,0,1.45-.24,3.22,3.22,0,0,0,1.08-.64l.63,1.05a3.87,3.87,0,0,1-1.26.78A4.94,4.94,0,0,1,466.59,188.66Zm-.25-8a1.76,1.76,0,0,0-1.41.66,3.11,3.11,0,0,0-.68,1.68v0h4v-.13a2.59,2.59,0,0,0-.48-1.61A1.73,1.73,0,0,0,466.34,180.66Z"/><path d="M477,186.08a1.09,1.09,0,0,0-.41-.87,3.85,3.85,0,0,0-1.55-.6,6.32,6.32,0,0,1-2.42-1,1.91,1.91,0,0,1-.85-1.63,2.36,2.36,0,0,1,.93-1.87,4.09,4.09,0,0,1,4.87.05,2.35,2.35,0,0,1,.9,1.92l0,.05h-1.55a1.43,1.43,0,0,0-.51-1.05,1.82,1.82,0,0,0-1.28-.47,1.86,1.86,0,0,0-1.29.39,1.23,1.23,0,0,0-.42.93,1,1,0,0,0,.36.81,4,4,0,0,0,1.52.53,6.46,6.46,0,0,1,2.5,1,2,2,0,0,1,.85,1.66,2.34,2.34,0,0,1-1,1.94,4.6,4.6,0,0,1-5.21-.12,2.48,2.48,0,0,1-.93-2l0-.05H473a1.5,1.5,0,0,0,.65,1.27,2.46,2.46,0,0,0,1.41.4,2.2,2.2,0,0,0,1.36-.37A1.11,1.11,0,0,0,477,186.08Z"/><rect class="cls-5" x="46.08" y="44.15" width="161.7" height="161.7" transform="translate(125.56 -53.14) rotate(45)"/><g class="cls-6"><path class="cls-7" d="M126.93,227.71,24.22,125,126.93,22.29,229.63,125ZM27.39,125l99.54,99.53L226.46,125,126.93,25.47Zm99.54,89.66L92.65,180.38l26.21-26.21L93.45,128.75l-18,18L87.33,158.7l4.93-4.94-7-7,8.16-8.16L109,154.17,87.71,175.45l-30-30L78.22,125,57.74,104.52l30-30L109,95.83,93.45,111.37l-8.16-8.16,7-7L87.33,91.3,75.41,103.21l18,18,25.41-25.42L92.65,69.62l34.28-34.28L161.2,69.62,135,95.83l25.41,25.42,18-18L166.52,91.3l-4.93,4.94,7,7-8.17,8.16L144.86,95.83l21.28-21.28,30,30L175.63,125l20.48,20.48-30,30-21.28-21.27,15.54-15.54,8.17,8.16-7,7,4.93,4.94,11.92-11.91-18-18L135,154.17l26.21,26.21ZM95.82,180.38l31.11,31.11L158,180.38l-26.21-26.21,28.58-28.59,21.21,21.21-15.09,15.08-8.11-8.11,7-7-5-5L148,154.17l18.1,18.1,26.79-26.79L172.46,125l20.47-20.48L166.14,77.73,148,95.83,160.4,108.2l5-5-7-7,8.11-8.12,15.09,15.09L160.4,124.42,131.82,95.83,158,69.62l-31.1-31.11L95.82,69.62,122,95.83,93.45,124.42,72.24,103.21,87.33,88.13l8.11,8.1-7,7,5,5,12.36-12.37-18.1-18.1L60.92,104.52,81.39,125,60.92,145.48l26.79,26.79,18.1-18.1L93.45,141.8l-5,5,7,7-8.11,8.11L72.24,146.79l21.21-21.21L122,154.17ZM201,140.54,185.5,125,201,109.46,216.59,125ZM188.68,125,201,137.37,213.41,125,201,112.63ZM52.81,140.54,37.27,125l15.54-15.54L68.35,125ZM40.44,125l12.37,12.37L65.17,125,52.81,112.63Z"/><path class="cls-7" d="M126.93,204.07l-24.05-24L126.93,156,151,180Zm-20.88-24,20.88,20.88L147.8,180l-20.87-20.87Z"/><path class="cls-7" d="M126.93,93.36l-24.05-24,24.05-24.05,24,24.05Zm-20.88-24,20.88,20.88L147.8,69.31,126.93,48.44Z"/></g><path class="cls-7" d="M160,148.33c-1.64,0-3.27,0-4.91,0a5.79,5.79,0,0,1-5.85-4.24,14.19,14.19,0,0,1,0-7.12,5.82,5.82,0,0,1,6.31-4.16,5.89,5.89,0,0,1,5.24,5.35c.11,1.35,0,2.71.08,4.07a1.44,1.44,0,1,0,2.88.05c0-1.44,0-2.89-.07-4.32a8.83,8.83,0,0,0-17.36-1.43,22.44,22.44,0,0,0-.29,5,9.19,9.19,0,0,0,2.23,6.73s0,.1,0,.16a10.3,10.3,0,0,0-7.36,4.78,1.13,1.13,0,0,1-.19-.19,10.17,10.17,0,0,0-9.15-4.65c-1.52,0-3.05,0-4.57,0a5.93,5.93,0,0,1-6-6.15c0-1.16,0-2.32,0-3.48a6,6,0,0,1,11.9,0c0,1.13,0,2.26,0,3.39s.57,1.73,1.44,1.75,1.44-.64,1.45-1.7,0-2.38,0-3.56a8.63,8.63,0,0,0-3.35-6.74c-.32-.27-.67-.51-1-.77a6.89,6.89,0,0,1,3.9-1.31c1.81,0,3.62,0,5.42,0a8.85,8.85,0,0,0,8.86-7.35,26.59,26.59,0,0,0,.11-5.5,8.72,8.72,0,0,0-6.72-8.22c-.64-.14-.79-.44-.93-1a9.88,9.88,0,0,0-5.82-6.82,15.11,15.11,0,0,0-2.67-.76c1.91-3,2.23-3.88,2.25-6.35,0-1.22,0-2.43,0-3.64a8.88,8.88,0,0,0-6.39-8.17c-.41-.11-.88,0-1.25-.33h-2.71c-.52.22-1.1.14-1.64.34a9.05,9.05,0,0,0-5.87,8.34c0,1.24,0,2.49,0,3.73a9,9,0,0,0,1.6,5.26c.43.66.43.67-.34.86a8.08,8.08,0,0,0-2.94,1.25,1.62,1.62,0,0,0-.63,1.94,1.66,1.66,0,0,0,1.93,1,2.5,2.5,0,0,0,.78-.31,6.89,6.89,0,0,1,3.33-.84c3.53,0,7.06,0,10.59,0a6.76,6.76,0,0,1,6.46,4.25c.28.59.22.9-.47,1.11a9.07,9.07,0,0,0-6.42,9.06c.06,1,0,1.92,0,2.88a9,9,0,0,0,1.66,5.58c.34.46.28.66-.29.79a9.43,9.43,0,0,0-4.13,2.06,3.34,3.34,0,0,1-2.33.77,9,9,0,0,0-8.81,8.82c0,1.3,0,2.6,0,3.9a8.7,8.7,0,0,0,1.49,5c.53.82.54.81-.37,1.07a10,10,0,0,0-5.49,3.61c-.53.69-.59.67-1.17,0a9.85,9.85,0,0,0-7.85-3.86A50.51,50.51,0,0,1,98,148a5.64,5.64,0,0,1-4.62-4.29,15.08,15.08,0,0,1,0-6.31,5.37,5.37,0,0,1,3.8-4.09,5.74,5.74,0,0,1,7.48,5.45c0,1.13,0,2.26,0,3.39a1.74,1.74,0,0,0,.29,1.13,1.63,1.63,0,0,0,1.7.69,1.78,1.78,0,0,0,1.32-1.6c.07-1.1,0-2.2,0-3.3a9,9,0,0,0-3.65-7.56c-.47-.37-.45-.6.07-.82a7.21,7.21,0,0,1,2.86-.7c1.83,0,3.67,0,5.51,0a9.26,9.26,0,0,0,9-7.47,25.88,25.88,0,0,0,.15-4.82,9,9,0,0,0-6.68-9.21,1.28,1.28,0,0,1-.95-.94,10,10,0,0,0-7.7-7.42c-.68-.16-.6-.38-.27-.81a8.39,8.39,0,0,0,1.56-3.89A38,38,0,0,0,108,91c.23-4.23-2.87-9.06-7.86-9.4H97.77a13.44,13.44,0,0,0-2,.34,9,9,0,0,0-5.9,7.53c-.14,1,0,2-.08,2.94a10.17,10.17,0,0,0,1.55,6.72c.54.81.55.79-.44,1.07a10.28,10.28,0,0,0-5.24,3.4,8.92,8.92,0,0,0-2.15,5.29v10.17c.34,1,.8,1.33,1.7,1.21a1.62,1.62,0,0,0,1.4-1.66c0-.28,0-.56,0-.84,0-2.49,0-5,0-7.46a7,7,0,0,1,7.15-7.12c3.53,0,7.06,0,10.59,0a6.52,6.52,0,0,1,6,3.7c.69,1.32.68,1.33-.77,1.82a9,9,0,0,0-5.84,8.15c0,.88,0,1.75,0,2.63a9.35,9.35,0,0,0,1.64,6.57c.4.53.24.68-.33.81A9.32,9.32,0,0,0,101,129a2.86,2.86,0,0,1-2,.7,9,9,0,0,0-9.11,8.09c-.09.74.08,1.46,0,2.19a10.7,10.7,0,0,0,1.89,8,.17.17,0,0,1,0,.21c-4.51,1.23-7.53,3.85-8.25,8.66v10.51c.43.69,1,1.23,1.85.94s1.05-1,1-1.81c0-2.6,0-5.2,0-7.8a7.18,7.18,0,0,1,7.38-7.47q5.13,0,10.26,0a7.19,7.19,0,0,1,7.43,7.5c0,2.63,0,5.26,0,7.88,0,1.12.57,1.8,1.47,1.77s1.4-.67,1.41-1.76c0-2.63,0-5.25,0-7.88a7.2,7.2,0,0,1,7.51-7.51q5.06,0,10.09,0a7.21,7.21,0,0,1,7.48,7.55v7.79c0,1.14.54,1.81,1.44,1.81s1.44-.68,1.44-1.8c0-2.63,0-5.26,0-7.89a7.19,7.19,0,0,1,7.39-7.46q5.13,0,10.26,0a7.21,7.21,0,0,1,7.43,7.51c0,2.63,0,5.25,0,7.88,0,1.09.53,1.73,1.4,1.76s1.48-.66,1.49-1.77v-8A10.11,10.11,0,0,0,160,148.33ZM132.71,95.48a6,6,0,0,1-6.28,4.56A6,6,0,0,1,121,94.26c0-1.33,0-2.65,0-4a5.94,5.94,0,0,1,11.88,0c0,.68,0,1.36,0,2.32A14.45,14.45,0,0,1,132.71,95.48ZM135,115.94a5.93,5.93,0,0,1,11.73,1c0,.71,0,1.41,0,2.12a14.46,14.46,0,0,1-.18,3.28,5.95,5.95,0,0,1-11.71-1.41A23.68,23.68,0,0,1,135,115.94ZM104.87,92.5a19.2,19.2,0,0,1-.11,2.63,6,6,0,0,1-6.08,4.92A5.92,5.92,0,0,1,93,94.61,27.65,27.65,0,0,1,93,90a5.93,5.93,0,0,1,6.09-5.47,6,6,0,0,1,5.79,5.82C104.89,91,104.87,91.61,104.87,92.5Zm2.19,23.19a5.95,5.95,0,0,1,11.7,1.33,23.13,23.13,0,0,1-.13,5.06,5.94,5.94,0,0,1-11.74-.91c0-.7,0-1.41,0-2.11A14.08,14.08,0,0,1,107.06,115.69Z"/><path class="cls-7" d="M146.59,103.59a7,7,0,0,1,2.95-.63h10.33a7.23,7.23,0,0,1,7.55,7.57c0,2.65,0,5.31,0,8a1.45,1.45,0,1,0,2.88,0c0-2.85,0-5.7,0-8.55a10.11,10.11,0,0,0-7.51-9.53c-.41-.11-.89,0-1.26-.34a9.3,9.3,0,0,0,2.29-6.26c0-1-.08-2,0-3a8.9,8.9,0,0,0-6.44-8.89,4,4,0,0,1-1.27-.33h-2.54c-.06.24-.27.15-.42.18-3.56.91-6,3.09-6.75,6.69a19.58,19.58,0,0,0,0,7.74,8.73,8.73,0,0,0,2,3.87,13,13,0,0,0-2.93.83c-1,.46-1.36,1.19-1,2A1.48,1.48,0,0,0,146.59,103.59Zm2.51-14.2a5.93,5.93,0,0,1,11.75.5c.07.81,0,1.63,0,2.45a11.23,11.23,0,0,1-.17,3.27A5.95,5.95,0,0,1,149,94.45,23.15,23.15,0,0,1,149.1,89.39Z"/></svg>