<svg id="Layer_1" data-name="Layer 1" xmlns="http://www.w3.org/2000/svg" viewBox="0 0 654 250"><defs><style>.cls-1{fill:none;stroke:#03aad6;stroke-miterlimit:10;stroke-width:2.61px;}.cls-2{fill:#03aad6;}.cls-3{opacity:0.15;}.cls-4{fill:#fff;}</style></defs><polygon class="cls-1" points="12.17 125 126.04 238.87 527.96 238.87 641.83 125 527.96 11.13 126.04 11.13 12.17 125"/><path d="M315.06,146.11a4.91,4.91,0,0,1-.93,3.12,3.09,3.09,0,0,1-2.56,1.19,3.32,3.32,0,0,1-1.56-.35,2.9,2.9,0,0,1-1.08-1l-.27,1.22h-1.25V137.34H309v5a2.78,2.78,0,0,1,1-.91,3.2,3.2,0,0,1,1.46-.31,3,3,0,0,1,2.58,1.32,5.92,5.92,0,0,1,.93,3.48Zm-1.63-.18a4.93,4.93,0,0,0-.57-2.51,1.88,1.88,0,0,0-1.72-1,2.08,2.08,0,0,0-1.27.37,2.54,2.54,0,0,0-.83,1v3.88a2.61,2.61,0,0,0,.83,1,2.09,2.09,0,0,0,1.28.38,2,2,0,0,0,1.72-.82,3.82,3.82,0,0,0,.56-2.17Z"/><path d="M320.75,150.42a3.8,3.8,0,0,1-3-1.23,4.76,4.76,0,0,1-1.08-3.25v-.36a4.6,4.6,0,0,1,1.12-3.19,3.49,3.49,0,0,1,2.72-1.26,3.26,3.26,0,0,1,2.69,1.11,4.61,4.61,0,0,1,.9,3v.87h-5.73l0,0a3.68,3.68,0,0,0,.59,2.19,2.09,2.09,0,0,0,1.82.84,4,4,0,0,0,1.45-.24,3.24,3.24,0,0,0,1.08-.65l.63,1.06a3.87,3.87,0,0,1-1.26.78A5.14,5.14,0,0,1,320.75,150.42Zm-.25-8a1.8,1.8,0,0,0-1.42.66,3.11,3.11,0,0,0-.68,1.68l0,0h4v-.13a2.59,2.59,0,0,0-.48-1.61A1.73,1.73,0,0,0,320.5,142.41Z"/><path d="M327.37,141.29l.12,1.33a3.27,3.27,0,0,1,1.12-1.1,3,3,0,0,1,1.53-.39,3,3,0,0,1,2.25.84,3.73,3.73,0,0,1,.79,2.62v5.66h-1.63v-5.62a2.38,2.38,0,0,0-.47-1.68,1.86,1.86,0,0,0-1.42-.5,2.53,2.53,0,0,0-1.28.3,2.19,2.19,0,0,0-.83.85v6.65h-1.63v-9Z"/><path d="M339.26,150.42a3.79,3.79,0,0,1-3-1.23,4.76,4.76,0,0,1-1.08-3.25v-.36a4.64,4.64,0,0,1,1.11-3.19,3.49,3.49,0,0,1,2.72-1.26,3.25,3.25,0,0,1,2.69,1.11,4.61,4.61,0,0,1,.9,3v.87h-5.73l0,0a3.68,3.68,0,0,0,.6,2.19,2.07,2.07,0,0,0,1.82.84,4,4,0,0,0,1.45-.24,3.3,3.3,0,0,0,1.07-.65l.64,1.06a3.82,3.82,0,0,1-1.27.78A5,5,0,0,1,339.26,150.42Zm-.26-8a1.76,1.76,0,0,0-1.41.66,3.11,3.11,0,0,0-.68,1.68v0h4v-.13a2.59,2.59,0,0,0-.48-1.61A1.72,1.72,0,0,0,339,142.41Z"/><path d="M344.87,150.25V142.5h-1.4v-1.21h1.4v-1a3,3,0,0,1,.89-2.33,3.42,3.42,0,0,1,2.44-.83,4.93,4.93,0,0,1,1.09.13c.36.09.78.21,1.27.38l-.28,1.32c-.29-.11-.61-.21-.94-.3a4.29,4.29,0,0,0-1-.12,1.91,1.91,0,0,0-1.4.43,1.84,1.84,0,0,0-.42,1.32v1h1.77v1.21h-1.77v7.75Zm6.48,0h-1.63v-9h1.63Z"/><path d="M356.12,139.13v2.16h1.7v1.21h-1.7v5.44a1.22,1.22,0,0,0,.26.88,1,1,0,0,0,.69.26,1.27,1.27,0,0,0,.32,0,1.71,1.71,0,0,0,.29-.08l.22,1.12a1.36,1.36,0,0,1-.54.24,2.42,2.42,0,0,1-.7.1,2.11,2.11,0,0,1-1.58-.6,2.61,2.61,0,0,1-.59-1.88V142.5h-1.42v-1.21h1.42v-2.16Z"/><path d="M361.83,139.13v2.16h1.7v1.21h-1.7v5.44a1.22,1.22,0,0,0,.26.88,1,1,0,0,0,.69.26,1.27,1.27,0,0,0,.32,0,1.71,1.71,0,0,0,.29-.08l.22,1.12a1.36,1.36,0,0,1-.54.24,2.42,2.42,0,0,1-.7.1,2.11,2.11,0,0,1-1.58-.6,2.61,2.61,0,0,1-.59-1.88V142.5h-1.42v-1.21h1.42v-2.16Z"/><path d="M369,150.42a3.8,3.8,0,0,1-3-1.23,4.76,4.76,0,0,1-1.08-3.25v-.36a4.6,4.6,0,0,1,1.12-3.19,3.48,3.48,0,0,1,2.72-1.26,3.26,3.26,0,0,1,2.69,1.11,4.61,4.61,0,0,1,.9,3v.87h-5.73l0,0a3.68,3.68,0,0,0,.59,2.19,2.08,2.08,0,0,0,1.82.84,4,4,0,0,0,1.45-.24,3.24,3.24,0,0,0,1.08-.65l.63,1.06a3.87,3.87,0,0,1-1.26.78A5.14,5.14,0,0,1,369,150.42Zm-.25-8a1.8,1.8,0,0,0-1.42.66,3.11,3.11,0,0,0-.68,1.68l0,0h4v-.13a2.59,2.59,0,0,0-.48-1.61A1.73,1.73,0,0,0,368.73,142.41Z"/><path d="M373.77,145.93a5.92,5.92,0,0,1,.93-3.48,3,3,0,0,1,2.58-1.32,3.13,3.13,0,0,1,1.4.29,2.77,2.77,0,0,1,1,.84v-4.92h1.63v12.91h-1.25l-.24-1.14a3,3,0,0,1-1.09,1,3.24,3.24,0,0,1-1.49.33,3.08,3.08,0,0,1-2.57-1.19,4.91,4.91,0,0,1-.93-3.12Zm1.63.18a3.79,3.79,0,0,0,.56,2.17,1.94,1.94,0,0,0,1.72.82,2.09,2.09,0,0,0,1.22-.34,2.43,2.43,0,0,0,.81-.92v-4.18a2.55,2.55,0,0,0-.81-.88,2.14,2.14,0,0,0-1.2-.33,1.86,1.86,0,0,0-1.74,1,5,5,0,0,0-.56,2.51Z"/><path d="M388.67,150.25V142.5h-1.4v-1.21h1.4v-1.13a3.09,3.09,0,0,1,.75-2.22,2.75,2.75,0,0,1,2.09-.78,3.64,3.64,0,0,1,.56.05c.19,0,.4.07.64.13l-.2,1.24-.36-.06a3.17,3.17,0,0,0-.44,0,1.29,1.29,0,0,0-1.06.42,1.89,1.89,0,0,0-.35,1.24v1.13h1.62v1.21H390.3v7.75Z"/><path d="M397.81,142.73l-.84,0a1.84,1.84,0,0,0-1.09.31,2,2,0,0,0-.68.86v6.4h-1.63v-9H395l.16,1.31a3.22,3.22,0,0,1,.94-1.08,2.19,2.19,0,0,1,1.29-.39,2,2,0,0,1,.35,0l.27.06Z"/><path d="M399,145.69a4.93,4.93,0,0,1,1.08-3.28,4,4,0,0,1,5.86,0,4.91,4.91,0,0,1,1.08,3.28v.18a4.91,4.91,0,0,1-1.07,3.28,4,4,0,0,1-5.87,0,4.88,4.88,0,0,1-1.08-3.27Zm1.64.18a4.17,4.17,0,0,0,.6,2.35,2.16,2.16,0,0,0,3.55,0,4.25,4.25,0,0,0,.6-2.35v-.18a4.29,4.29,0,0,0-.6-2.35,2,2,0,0,0-1.79-.93,2,2,0,0,0-1.76.93,4.21,4.21,0,0,0-.6,2.35Z"/><path d="M410.42,141.29l.12,1.18a2.93,2.93,0,0,1,1.11-1,3.3,3.3,0,0,1,1.57-.35,2.75,2.75,0,0,1,1.54.41,2.53,2.53,0,0,1,1,1.24,3.35,3.35,0,0,1,1.12-1.21,2.89,2.89,0,0,1,1.62-.44,2.67,2.67,0,0,1,2.16.94,4.26,4.26,0,0,1,.79,2.82v5.36h-1.63v-5.37a3,3,0,0,0-.45-1.88,1.65,1.65,0,0,0-1.36-.55,1.7,1.7,0,0,0-1.35.58,2.48,2.48,0,0,0-.61,1.46v5.76h-1.64v-5.37a2.91,2.91,0,0,0-.47-1.85,1.64,1.64,0,0,0-1.34-.58,2.2,2.2,0,0,0-1.23.31,1.93,1.93,0,0,0-.73.86v6.63H409v-9Z"/><path d="M433.5,150.25c-.06-.27-.1-.51-.13-.72s-.05-.41-.06-.62a3.73,3.73,0,0,1-1.18,1.08,3.05,3.05,0,0,1-1.58.43,2.92,2.92,0,0,1-2.13-.72,2.6,2.6,0,0,1-.73-2,2.32,2.32,0,0,1,1-2,4.85,4.85,0,0,1,2.81-.72h1.77v-.89a1.63,1.63,0,0,0-.48-1.24,1.86,1.86,0,0,0-1.35-.46,2,2,0,0,0-1.29.4,1.19,1.19,0,0,0-.48.95h-1.55l0,0a2.13,2.13,0,0,1,.92-1.79,3.77,3.77,0,0,1,2.51-.81,3.69,3.69,0,0,1,2.45.77,2.74,2.74,0,0,1,.92,2.23v4.31c0,.32,0,.63.05.93a5.31,5.31,0,0,0,.19.88Zm-2.71-1.2a3,3,0,0,0,1.6-.45,2.14,2.14,0,0,0,.92-1V146.1h-1.82a2.37,2.37,0,0,0-1.58.5,1.46,1.46,0,0,0-.59,1.16,1.23,1.23,0,0,0,.37,1A1.56,1.56,0,0,0,430.79,149.05Z"/><path d="M449.15,146.11a5,5,0,0,1-.92,3.12,3.07,3.07,0,0,1-2.56,1.19,3.44,3.44,0,0,1-1.45-.28,2.77,2.77,0,0,1-1.07-.83v4.38h-1.63v-12.4h1.25l.26,1.16a2.91,2.91,0,0,1,1.09-1,3.24,3.24,0,0,1,1.52-.34,3,3,0,0,1,2.59,1.32,5.92,5.92,0,0,1,.92,3.48Zm-1.63-.18a4.75,4.75,0,0,0-.6-2.5,2,2,0,0,0-1.76-1,2.19,2.19,0,0,0-1.2.32,2.43,2.43,0,0,0-.81.87V148a2.43,2.43,0,0,0,.81.87,2.29,2.29,0,0,0,1.21.31,2,2,0,0,0,1.76-.85,3.72,3.72,0,0,0,.59-2.19Z"/><path d="M452.92,139h-1.63v-1.66h1.63Zm0,11.25h-1.63v-9h1.63Z"/><path d="M457.19,150.25h-1.63V137.34h1.63Z"/><path d="M459.32,145.69a4.92,4.92,0,0,1,1.07-3.28,4,4,0,0,1,5.86,0,4.87,4.87,0,0,1,1.09,3.28v.18a4.91,4.91,0,0,1-1.08,3.28,4,4,0,0,1-5.86,0,4.88,4.88,0,0,1-1.08-3.27Zm1.63.18a4.25,4.25,0,0,0,.6,2.35,2.16,2.16,0,0,0,3.55,0,4.25,4.25,0,0,0,.6-2.35v-.18a4.29,4.29,0,0,0-.6-2.35,2,2,0,0,0-1.79-.93,2,2,0,0,0-1.76.93,4.29,4.29,0,0,0-.6,2.35Z"/><path d="M471.6,139.13v2.16h1.69v1.21H471.6v5.44a1.17,1.17,0,0,0,.26.88.94.94,0,0,0,.69.26,1.2,1.2,0,0,0,.31,0,1.3,1.3,0,0,0,.29-.08l.23,1.12a1.43,1.43,0,0,1-.54.24,2.48,2.48,0,0,1-.71.1,2.13,2.13,0,0,1-1.58-.6,2.61,2.61,0,0,1-.58-1.88V142.5h-1.43v-1.21H470v-2.16Z"/><path d="M330.32,167.32l.21,1.15h.05l.21-1.15,1.79-5.69h1.31l1.8,5.69.23,1.29H336l.26-1.29,1.33-5.69h1.7l-2.6,9h-1.31l-1.77-5.45-.34-1.42h-.05l-.32,1.42-1.74,5.45h-1.31l-2.6-9h1.7Z"/><path d="M346.36,170.58c-.06-.27-.1-.51-.13-.71a4.46,4.46,0,0,1-.05-.63,3.76,3.76,0,0,1-1.19,1.08,3,3,0,0,1-1.58.44,2.92,2.92,0,0,1-2.13-.72,2.66,2.66,0,0,1-.73-2,2.32,2.32,0,0,1,1-2,4.87,4.87,0,0,1,2.82-.72h1.77v-.89a1.63,1.63,0,0,0-.48-1.24,1.87,1.87,0,0,0-1.36-.46,2,2,0,0,0-1.28.39,1.2,1.2,0,0,0-.49,1H341v-.05a2.12,2.12,0,0,1,.91-1.78,3.76,3.76,0,0,1,2.51-.82,3.67,3.67,0,0,1,2.45.78,2.73,2.73,0,0,1,.93,2.23v4.31c0,.32,0,.63.05.93a4.34,4.34,0,0,0,.18.87Zm-2.71-1.19a2.93,2.93,0,0,0,1.6-.45,2.18,2.18,0,0,0,.93-1.05v-1.45h-1.83a2.39,2.39,0,0,0-1.58.49,1.51,1.51,0,0,0-.59,1.17,1.24,1.24,0,0,0,.37.94A1.53,1.53,0,0,0,343.65,169.39Z"/><path d="M352.44,159.47v2.16h1.7v1.21h-1.7v5.44a1.23,1.23,0,0,0,.26.88,1,1,0,0,0,.69.26,2,2,0,0,0,.32,0,1.48,1.48,0,0,0,.29-.08l.22,1.12a1.36,1.36,0,0,1-.54.24,2.42,2.42,0,0,1-.7.1,2.11,2.11,0,0,1-1.58-.6,2.61,2.61,0,0,1-.59-1.88v-5.44h-1.42v-1.21h1.42v-2.16Z"/><path d="M359.59,170.76a3.74,3.74,0,0,1-3-1.24,4.69,4.69,0,0,1-1.09-3.24v-.36a4.65,4.65,0,0,1,1.12-3.19,3.5,3.5,0,0,1,2.72-1.27,3.27,3.27,0,0,1,2.69,1.12,4.61,4.61,0,0,1,.9,3v.86H357.2l0,0a3.75,3.75,0,0,0,.59,2.19,2.09,2.09,0,0,0,1.82.84,4.34,4.34,0,0,0,1.46-.23,3.48,3.48,0,0,0,1.07-.65l.63,1.06a3.87,3.87,0,0,1-1.26.78A5.14,5.14,0,0,1,359.59,170.76Zm-.25-8a1.78,1.78,0,0,0-1.41.65,3.15,3.15,0,0,0-.69,1.69l0,0h4V165a2.64,2.64,0,0,0-.48-1.62A1.75,1.75,0,0,0,359.34,162.75Z"/><path d="M369,163.07l-.83,0a1.84,1.84,0,0,0-1.09.31,1.9,1.9,0,0,0-.68.86v6.39h-1.63v-9h1.45l.16,1.31a3.07,3.07,0,0,1,.94-1.09,2.19,2.19,0,0,1,1.29-.39,1.87,1.87,0,0,1,.34,0,1.42,1.42,0,0,1,.28.07Z"/><path d="M380.11,168.18a1.1,1.1,0,0,0-.41-.88,3.91,3.91,0,0,0-1.55-.6,6.31,6.31,0,0,1-2.43-.95,1.91,1.91,0,0,1-.85-1.64,2.36,2.36,0,0,1,.93-1.87,4.1,4.1,0,0,1,4.88,0,2.37,2.37,0,0,1,.9,1.93l0,.05H380a1.39,1.39,0,0,0-.51-1.05,1.8,1.8,0,0,0-1.29-.47,1.83,1.83,0,0,0-1.28.39,1.18,1.18,0,0,0-.43.92,1,1,0,0,0,.37.82,3.9,3.9,0,0,0,1.52.53,6.37,6.37,0,0,1,2.5,1,2,2,0,0,1,.85,1.66,2.34,2.34,0,0,1-1,1.94,4.58,4.58,0,0,1-5.21-.11,2.49,2.49,0,0,1-.94-2l0-.05h1.55a1.53,1.53,0,0,0,.65,1.27,2.46,2.46,0,0,0,1.41.4,2.3,2.3,0,0,0,1.37-.36A1.15,1.15,0,0,0,380.11,168.18Z"/><path d="M389.27,170.58c-.06-.27-.1-.51-.13-.71a4.46,4.46,0,0,1-.05-.63,3.87,3.87,0,0,1-1.19,1.08,3,3,0,0,1-1.58.44,2.92,2.92,0,0,1-2.13-.72,2.62,2.62,0,0,1-.73-2,2.32,2.32,0,0,1,1-2,4.87,4.87,0,0,1,2.82-.72h1.77v-.89a1.63,1.63,0,0,0-.48-1.24,1.88,1.88,0,0,0-1.36-.46,2,2,0,0,0-1.28.39,1.2,1.2,0,0,0-.49,1h-1.55l0-.05a2.16,2.16,0,0,1,.92-1.78,3.74,3.74,0,0,1,2.51-.82,3.67,3.67,0,0,1,2.45.78,2.73,2.73,0,0,1,.93,2.23v4.31a7.06,7.06,0,0,0,0,.93,4.34,4.34,0,0,0,.18.87Zm-2.71-1.19a3,3,0,0,0,1.6-.45,2.24,2.24,0,0,0,.93-1.05v-1.45h-1.83a2.39,2.39,0,0,0-1.58.49,1.51,1.51,0,0,0-.59,1.17,1.21,1.21,0,0,0,.37.94A1.53,1.53,0,0,0,386.56,169.39Z"/><path d="M393.76,170.58v-7.74h-1.4v-1.21h1.4V160.5a3.07,3.07,0,0,1,.75-2.22,2.77,2.77,0,0,1,2.09-.78,3.66,3.66,0,0,1,.57.05l.63.12-.2,1.25a1.68,1.68,0,0,0-.36-.06,3.15,3.15,0,0,0-.44,0,1.26,1.26,0,0,0-1.06.43,1.93,1.93,0,0,0-.35,1.24v1.13H397v1.21h-1.62v7.74Z"/><path d="M402.17,170.76a3.76,3.76,0,0,1-3-1.24,4.73,4.73,0,0,1-1.08-3.24v-.36a4.64,4.64,0,0,1,1.11-3.19,3.52,3.52,0,0,1,2.72-1.27,3.28,3.28,0,0,1,2.7,1.12,4.61,4.61,0,0,1,.89,3v.86h-5.72l0,0a3.68,3.68,0,0,0,.6,2.19,2.08,2.08,0,0,0,1.82.84,4.24,4.24,0,0,0,1.45-.23,3.26,3.26,0,0,0,1.07-.65l.64,1.06a3.82,3.82,0,0,1-1.27.78A5,5,0,0,1,402.17,170.76Zm-.26-8a1.81,1.81,0,0,0-1.41.65,3.15,3.15,0,0,0-.68,1.69l0,0h4V165a2.64,2.64,0,0,0-.48-1.62A1.74,1.74,0,0,0,401.91,162.75Z"/><path d="M409.6,159.47v2.16h1.7v1.21h-1.7v5.44a1.23,1.23,0,0,0,.26.88,1,1,0,0,0,.69.26,2,2,0,0,0,.32,0,1.71,1.71,0,0,0,.29-.08l.22,1.12a1.36,1.36,0,0,1-.54.24,2.42,2.42,0,0,1-.7.1,2.11,2.11,0,0,1-1.58-.6,2.61,2.61,0,0,1-.59-1.88v-5.44h-1.42v-1.21H408v-2.16Z"/><path d="M415.78,167.27l.29,1.12h.05l2.2-6.76h1.82L416.37,172a4.77,4.77,0,0,1-1,1.57,2.22,2.22,0,0,1-1.71.67,2.7,2.7,0,0,1-.51,0c-.2,0-.36-.05-.47-.08l.17-1.28h.29l.44,0a1,1,0,0,0,.85-.47,5,5,0,0,0,.55-1l.39-.94-3.32-8.77h1.82Z"/><path d="M433.41,166.45a4.91,4.91,0,0,1-.93,3.12,3.07,3.07,0,0,1-2.55,1.19,3.49,3.49,0,0,1-1.46-.28,2.74,2.74,0,0,1-1.06-.83V174h-1.63v-12.4H427l.26,1.16a3,3,0,0,1,1.09-1,3.31,3.31,0,0,1,1.52-.34,3,3,0,0,1,2.59,1.32,6,6,0,0,1,.92,3.49Zm-1.63-.18a4.72,4.72,0,0,0-.6-2.5,2,2,0,0,0-1.77-1,2.11,2.11,0,0,0-1.2.32,2.32,2.32,0,0,0-.8.87v4.33a2.15,2.15,0,0,0,2,1.17,2,2,0,0,0,1.75-.84,3.73,3.73,0,0,0,.6-2.19Z"/><path d="M437.18,170.58h-1.64V157.67h1.64Z"/><path d="M445.19,170.58c-.06-.27-.1-.51-.13-.71s-.05-.42-.06-.63a3.84,3.84,0,0,1-1.18,1.08,3.06,3.06,0,0,1-1.58.44,2.92,2.92,0,0,1-2.13-.72,2.62,2.62,0,0,1-.73-2,2.31,2.31,0,0,1,1-2,4.91,4.91,0,0,1,2.82-.72H445v-.89a1.63,1.63,0,0,0-.48-1.24,1.86,1.86,0,0,0-1.35-.46,2,2,0,0,0-1.29.39,1.22,1.22,0,0,0-.48,1h-1.55l0-.05a2.13,2.13,0,0,1,.92-1.78,4.24,4.24,0,0,1,5,0,2.75,2.75,0,0,1,.92,2.23v4.31c0,.32,0,.63.05.93a5.19,5.19,0,0,0,.19.87Zm-2.71-1.19a3,3,0,0,0,1.6-.45,2.16,2.16,0,0,0,.92-1.05v-1.45h-1.83a2.36,2.36,0,0,0-1.57.49,1.48,1.48,0,0,0-.59,1.17,1.21,1.21,0,0,0,.37.94A1.52,1.52,0,0,0,442.48,169.39Z"/><path d="M450.46,161.63l.11,1.33a3.27,3.27,0,0,1,1.12-1.1,3,3,0,0,1,1.54-.4,2.93,2.93,0,0,1,2.24.85,3.73,3.73,0,0,1,.8,2.62v5.65h-1.63V165a2.46,2.46,0,0,0-.47-1.68,1.88,1.88,0,0,0-1.43-.49,2.55,2.55,0,0,0-1.28.3,2.19,2.19,0,0,0-.83.85v6.64H449v-9Z"/><path d="M356.75,186.78a4.94,4.94,0,0,1-.92,3.13,3.07,3.07,0,0,1-2.56,1.19,3.64,3.64,0,0,1-1.45-.28,2.87,2.87,0,0,1-1.07-.83v4.37h-1.63V182h1.25l.26,1.16a3,3,0,0,1,1.09-1,3.38,3.38,0,0,1,1.53-.34,3,3,0,0,1,2.58,1.32,5.93,5.93,0,0,1,.92,3.49Zm-1.63-.17a4.72,4.72,0,0,0-.6-2.5,1.92,1.92,0,0,0-1.76-1,2.19,2.19,0,0,0-1.2.31,2.55,2.55,0,0,0-.81.88v4.33a2.4,2.4,0,0,0,.81.86,2.2,2.2,0,0,0,1.21.31,2,2,0,0,0,1.76-.85,3.68,3.68,0,0,0,.59-2.19Z"/><path d="M363,183.41l-.83,0a1.91,1.91,0,0,0-1.09.3,2.09,2.09,0,0,0-.68.86v6.4h-1.63V182h1.45l.16,1.31a3.07,3.07,0,0,1,.94-1.09,2.19,2.19,0,0,1,1.29-.39,1.87,1.87,0,0,1,.34,0l.28.06Z"/><path d="M364.14,186.36a4.92,4.92,0,0,1,1.08-3.27,3.61,3.61,0,0,1,2.92-1.29,3.65,3.65,0,0,1,2.94,1.28,4.93,4.93,0,0,1,1.08,3.28v.18a4.89,4.89,0,0,1-1.07,3.28,4,4,0,0,1-5.87,0,4.93,4.93,0,0,1-1.08-3.28Zm1.64.18a4.14,4.14,0,0,0,.6,2.35,2.16,2.16,0,0,0,3.55,0,4.23,4.23,0,0,0,.6-2.35v-.18a4.24,4.24,0,0,0-.6-2.34,2,2,0,0,0-1.79-.94,2,2,0,0,0-1.76.94,4.15,4.15,0,0,0-.6,2.34Z"/><path d="M373.87,186.61a6,6,0,0,1,.92-3.48,3,3,0,0,1,2.58-1.33,3.13,3.13,0,0,1,1.5.35,2.89,2.89,0,0,1,1.08,1l.2-1.16h1.3v9a3.46,3.46,0,0,1-1,2.65,4.14,4.14,0,0,1-2.89.92,6,6,0,0,1-1.4-.18,5.76,5.76,0,0,1-1.31-.48l.24-1.27a4.6,4.6,0,0,0,1.14.4,6,6,0,0,0,1.31.15,2.39,2.39,0,0,0,1.74-.54,2.25,2.25,0,0,0,.54-1.65v-1a2.89,2.89,0,0,1-1.05.86,3.33,3.33,0,0,1-1.42.29,3.07,3.07,0,0,1-2.56-1.19,5,5,0,0,1-.92-3.13Zm1.63.17a3.79,3.79,0,0,0,.55,2.17,1.92,1.92,0,0,0,1.72.82,2.17,2.17,0,0,0,1.23-.33,2.65,2.65,0,0,0,.82-.95v-4.12a2.49,2.49,0,0,0-.82-.91,2.18,2.18,0,0,0-1.22-.33,1.86,1.86,0,0,0-1.72,1,5,5,0,0,0-.56,2.52Z"/><path d="M388,183.41l-.84,0a1.91,1.91,0,0,0-1.09.3,2.09,2.09,0,0,0-.68.86v6.4h-1.63V182h1.46l.15,1.31a3.17,3.17,0,0,1,.94-1.09,2.21,2.21,0,0,1,1.29-.39,2,2,0,0,1,.35,0l.27.06Z"/><path d="M395.23,190.92c-.06-.27-.1-.51-.13-.71a4.46,4.46,0,0,1-.05-.63,3.87,3.87,0,0,1-1.19,1.08,3.06,3.06,0,0,1-1.58.44,2.92,2.92,0,0,1-2.13-.72,2.63,2.63,0,0,1-.73-2,2.29,2.29,0,0,1,1-2,4.85,4.85,0,0,1,2.81-.72h1.78v-.89a1.66,1.66,0,0,0-.48-1.25,1.93,1.93,0,0,0-1.36-.46,2,2,0,0,0-1.28.4,1.18,1.18,0,0,0-.49,1l-1.55,0,0,0a2.15,2.15,0,0,1,.92-1.79,3.78,3.78,0,0,1,2.51-.81,3.69,3.69,0,0,1,2.45.78,2.73,2.73,0,0,1,.93,2.23v4.31a9,9,0,0,0,0,.92,5.1,5.1,0,0,0,.19.88Zm-2.71-1.19a2.88,2.88,0,0,0,1.6-.46,2.22,2.22,0,0,0,.93-1v-1.45h-1.83a2.37,2.37,0,0,0-1.58.49,1.5,1.5,0,0,0-.59,1.17,1.21,1.21,0,0,0,.37.94A1.58,1.58,0,0,0,392.52,189.73Z"/><path d="M400.5,182l.11,1.17a3.22,3.22,0,0,1,1.12-1,3.4,3.4,0,0,1,1.57-.35,2.74,2.74,0,0,1,1.53.42,2.5,2.5,0,0,1,1,1.24,3.3,3.3,0,0,1,1.12-1.22,3,3,0,0,1,1.61-.44,2.7,2.7,0,0,1,2.16.94,4.3,4.3,0,0,1,.8,2.83v5.35h-1.63v-5.37a2.91,2.91,0,0,0-.46-1.87,1.63,1.63,0,0,0-1.35-.55,1.73,1.73,0,0,0-1.36.58,2.59,2.59,0,0,0-.61,1.46v5.75h-1.63v-5.37a2.94,2.94,0,0,0-.47-1.84,1.62,1.62,0,0,0-1.35-.58,2.27,2.27,0,0,0-1.22.3,2,2,0,0,0-.74.86v6.63H399V182Z"/><path d="M415.31,182l.12,1.17a3.11,3.11,0,0,1,1.11-1,3.4,3.4,0,0,1,1.57-.35,2.72,2.72,0,0,1,1.53.42,2.5,2.5,0,0,1,1,1.24,3.3,3.3,0,0,1,1.12-1.22,3,3,0,0,1,1.62-.44,2.7,2.7,0,0,1,2.16.94,4.3,4.3,0,0,1,.79,2.83v5.35h-1.63v-5.37a3,3,0,0,0-.45-1.87,1.67,1.67,0,0,0-1.36-.55,1.7,1.7,0,0,0-1.35.58,2.46,2.46,0,0,0-.61,1.46v5.75h-1.64v-5.37a2.94,2.94,0,0,0-.47-1.84,1.61,1.61,0,0,0-1.34-.58,2.29,2.29,0,0,0-1.23.3,2,2,0,0,0-.73.86v6.63h-1.63V182Z"/><path d="M432.38,191.1a3.8,3.8,0,0,1-3-1.24,4.73,4.73,0,0,1-1.08-3.24v-.37a4.68,4.68,0,0,1,1.11-3.19,3.49,3.49,0,0,1,2.72-1.26,3.23,3.23,0,0,1,2.69,1.12,4.58,4.58,0,0,1,.9,3v.86H430l0,0a3.75,3.75,0,0,0,.59,2.19,2.1,2.1,0,0,0,1.83.84,4.28,4.28,0,0,0,1.45-.23,3.48,3.48,0,0,0,1.07-.65l.64,1.05a4.11,4.11,0,0,1-1.27.79A5.08,5.08,0,0,1,432.38,191.1Zm-.26-8a1.76,1.76,0,0,0-1.41.66,3.11,3.11,0,0,0-.68,1.69v0h4v-.13a2.62,2.62,0,0,0-.48-1.62A1.74,1.74,0,0,0,432.12,183.08Z"/><rect class="cls-2" x="45.66" y="44.15" width="161.7" height="161.7" transform="translate(125.44 -52.84) rotate(45)"/><g class="cls-3"><path class="cls-4" d="M126.51,227.71,23.8,125,126.51,22.29,229.21,125ZM27,125l99.54,99.53L226,125,126.51,25.47Zm99.54,89.66L92.23,180.38l26.21-26.21L93,128.75l-18,18L86.91,158.7l4.93-4.94-7-7L93,138.63l15.54,15.54L87.29,175.45l-30-30L77.8,125,57.32,104.52l30-30,21.28,21.28L93,111.37l-8.17-8.16,7-7L86.91,91.3,75,103.21l18,18,25.41-25.42L92.23,69.62l34.28-34.28,34.27,34.28L134.57,95.83,160,121.25l18-18L166.1,91.3l-4.93,4.94,7,7L160,111.37,144.44,95.83l21.28-21.28,30,30L175.21,125l20.48,20.48-30,30-21.28-21.27L160,138.63l8.17,8.16-7,7,4.93,4.94L178,146.79l-18-18-25.41,25.42,26.21,26.21ZM95.4,180.38l31.11,31.11,31.1-31.11L131.4,154.17,160,125.58l21.21,21.21L166.1,161.87,158,153.76l7-7-5-5-12.36,12.37,18.1,18.1,26.79-26.79L172,125l20.47-20.48L165.72,77.73l-18.1,18.1L160,108.2l5-5-7-7,8.11-8.12,15.09,15.09L160,124.42,131.4,95.83l26.21-26.21-31.1-31.11L95.4,69.62l26.21,26.21L93,124.42,71.82,103.21,86.91,88.13,95,96.23l-7,7,5,5,12.36-12.37-18.1-18.1L60.5,104.52,81,125,60.5,145.48l26.79,26.79,18.1-18.1L93,141.8l-5,5,7,7-8.11,8.11L71.82,146.79,93,125.58l28.58,28.59Zm105.22-39.84L185.08,125l15.54-15.54L216.17,125ZM188.26,125l12.36,12.37L213,125l-12.37-12.37ZM52.39,140.54,36.85,125l15.54-15.54L67.93,125ZM40,125l12.37,12.37L64.75,125,52.39,112.63Z"/><path class="cls-4" d="M126.51,204.07l-24.05-24L126.51,156l24,24.05Zm-20.88-24,20.88,20.88L147.38,180l-20.87-20.87Z"/><path class="cls-4" d="M126.51,93.36l-24.05-24,24.05-24.05,24,24.05Zm-20.88-24,20.88,20.88,20.87-20.88L126.51,48.44Z"/></g><path class="cls-4" d="M163,101.77a5.16,5.16,0,0,0-3-4.91Q144.51,89,129,81.1a5.24,5.24,0,0,0-5,0Q108.56,89,93.12,96.78A5.29,5.29,0,0,0,90,101.85c0,8.46,0,16.93,0,25.39a36.83,36.83,0,0,0,3.07,15.08c5.09,11.58,13.83,19.45,25.21,24.6,2.33,1.05,4.79,1.75,7.2,2.6h2.08c.07-.17.23-.15.36-.19,11.75-3.38,21.32-9.87,28.25-20A37.7,37.7,0,0,0,163,127.93C163.05,119.21,163,110.49,163,101.77Zm-3.49,25.66c-.09,9.74-3.84,18-10.38,25.1a46.81,46.81,0,0,1-21.59,13.25,2.71,2.71,0,0,1-1.6.15c-10.84-3.16-19.69-9.15-26.13-18.49a35.28,35.28,0,0,1-6.35-20.35c0-3.94,0-7.88,0-11.82,0-4.38,0-8.76,0-13.13a2.3,2.3,0,0,1,1.42-2.33q15.28-7.71,30.54-15.48a2.13,2.13,0,0,1,2.13,0q15.35,7.81,30.71,15.59a2.09,2.09,0,0,1,1.27,2.06C159.53,110.45,159.59,118.94,159.52,127.43Z"/><path class="cls-4" d="M154.83,102Q141.21,95.13,127.6,88.2a2.23,2.23,0,0,0-2.22,0c-2.07,1.09-4.16,2.13-6.25,3.19-1.2.61-1.62,1.53-1.14,2.5s1.53,1.23,2.75.62c1.73-.87,3.46-1.73,5.16-2.63a1.16,1.16,0,0,1,1.19,0q12.41,6.32,24.84,12.59a1,1,0,0,1,.66,1c0,7.27,0,14.55,0,21.82a27.21,27.21,0,0,1-3.2,12.9c-4.87,9.13-12.5,15-22.15,18.36a2,2,0,0,1-1.41,0A39.94,39.94,0,0,1,108,146.73a29.29,29.29,0,0,1-7.56-19.27c-.06-7.33,0-14.66,0-22a.93.93,0,0,1,.62-1c1.76-.87,3.51-1.74,5.25-2.65a1.74,1.74,0,0,0,.49-2.94,1.77,1.77,0,0,0-2.17-.15c-2.11,1.08-4.21,2.16-6.33,3.2a2.13,2.13,0,0,0-1.34,2.18q0,11.57,0,23.13a31.12,31.12,0,0,0,4.87,16.91c5.68,9.06,13.86,14.86,24,18.11a2.53,2.53,0,0,0,1.61,0,43.1,43.1,0,0,0,21.38-14.55,32.08,32.08,0,0,0,7.3-20.14c0-3.65,0-7.3,0-11,0-4.17,0-8.35,0-12.52A2.07,2.07,0,0,0,154.83,102Z"/><path class="cls-4" d="M114.33,96.66a1.74,1.74,0,1,1-3.48,0,1.74,1.74,0,0,1,3.48,0Z"/><path class="cls-4" d="M140.21,130.75a13.4,13.4,0,0,0-1.09-4.44,52.8,52.8,0,0,0-4.3-8.19c-2.18-3.54-4.59-6.94-6.87-10.41a2.69,2.69,0,0,0-1.07-1.07h-.67a2.13,2.13,0,0,0-1.08,1c-.35.58-.73,1.15-1.11,1.71-2.39,3.51-4.79,7-6.93,10.68a45.33,45.33,0,0,0-3.51,7.17,11.77,11.77,0,0,0-.53,6.64,13.74,13.74,0,0,0,8.32,9.94,13.46,13.46,0,0,0,7.1.86,13.25,13.25,0,0,0,4.67-1.58,13.8,13.8,0,0,0,5.88-6.41A13.17,13.17,0,0,0,140.21,130.75Zm-3.09,3.2a10.58,10.58,0,0,1-8.38,7.87A11,11,0,0,1,116,134.31a9.89,9.89,0,0,1,.35-6.88,49.8,49.8,0,0,1,3.4-6.62c2.09-3.52,4.43-6.88,6.7-10.29a1.08,1.08,0,0,1,.11-.11,159.29,159.29,0,0,1,8.8,14,29.68,29.68,0,0,1,1.71,4A8.83,8.83,0,0,1,137.12,134Z"/><path class="cls-4" d="M134.53,130.1a1.33,1.33,0,0,0-1.4,1.24,7,7,0,0,1-1.19,3.46,7.26,7.26,0,0,1-2.24,2,1.34,1.34,0,0,0-.57,1.52,1.43,1.43,0,0,0,1.35,1,1.09,1.09,0,0,0,.47-.08,7.33,7.33,0,0,0,1.25-.79,9.21,9.21,0,0,0,3.59-6.92A1.37,1.37,0,0,0,134.53,130.1Z"/><path class="cls-2" d="M295.47,52.27V87h-8V58.71h-6.94V52.27Z"/><path class="cls-2" d="M309.54,79a4.64,4.64,0,0,1,1.34,3.45,8.39,8.39,0,0,1-.25,2,23.31,23.31,0,0,1-1.09,3l-2.82,7.13h-4.91L304,86.7a4.13,4.13,0,0,1-2-1.61,4.78,4.78,0,0,1-.71-2.6A4.58,4.58,0,0,1,302.68,79a4.79,4.79,0,0,1,3.44-1.31A4.69,4.69,0,0,1,309.54,79Z"/><path class="cls-2" d="M321,85.41a14.33,14.33,0,0,1-5.27-6.17,22.38,22.38,0,0,1-1.91-9.63A22.4,22.4,0,0,1,315.76,60,14.33,14.33,0,0,1,321,53.8a14.91,14.91,0,0,1,15.36,0A14.28,14.28,0,0,1,341.67,60a22.4,22.4,0,0,1,1.91,9.64,22.38,22.38,0,0,1-1.91,9.63,14.28,14.28,0,0,1-5.28,6.17,14.91,14.91,0,0,1-15.36,0ZM333.69,78q1.81-2.73,1.81-8.42t-1.81-8.43a5.87,5.87,0,0,0-9.91,0q-1.8,2.73-1.8,8.43t1.8,8.42a5.87,5.87,0,0,0,9.91,0Z"/><path class="cls-2" d="M374.44,52.27v5.2L361.56,87h-8.72l12.43-28.14H353.78v5.64h-7.13V52.27Z"/><path class="cls-2" d="M391.88,52.27V87h-8V58.71h-6.93V52.27Z"/><path class="cls-2" d="M406,79a4.63,4.63,0,0,1,1.33,3.45,8.38,8.38,0,0,1-.24,2,23.31,23.31,0,0,1-1.09,3l-2.83,7.13h-4.9l2.18-7.87a4.08,4.08,0,0,1-2-1.61,4.7,4.7,0,0,1-.72-2.6A4.62,4.62,0,0,1,399.08,79a4.8,4.8,0,0,1,3.45-1.31A4.72,4.72,0,0,1,406,79Z"/><path class="cls-2" d="M433.61,68.22a9.69,9.69,0,0,1,3.5,7.83,10.87,10.87,0,0,1-1.59,5.77A11.13,11.13,0,0,1,430.69,86a18.37,18.37,0,0,1-8,1.56,27.06,27.06,0,0,1-7.21-1,18.47,18.47,0,0,1-6-2.75l3.17-6.14a15,15,0,0,0,4.56,2.3,17.31,17.31,0,0,0,5.3.82,8.26,8.26,0,0,0,4.76-1.19A3.81,3.81,0,0,0,429,76.29a3.71,3.71,0,0,0-1.81-3.36q-1.8-1.14-6.26-1.14H412l1.78-19.52H435v6.44H420.51L420,65.3h2.82Q430.13,65.3,433.61,68.22Z"/><path class="cls-2" d="M463.12,66.53a10.72,10.72,0,0,1,4.31,3.79A10.3,10.3,0,0,1,469,76a10.84,10.84,0,0,1-1.73,6.09,11.38,11.38,0,0,1-4.73,4,15.48,15.48,0,0,1-6.67,1.41q-7.28,0-11.39-4.46t-4.11-12.73a21.44,21.44,0,0,1,2.22-10.11,15.28,15.28,0,0,1,6.22-6.39,19,19,0,0,1,9.24-2.18,22.68,22.68,0,0,1,5.33.62,14.16,14.16,0,0,1,4.33,1.76l-3,5.9a11.35,11.35,0,0,0-6.49-1.74,9.45,9.45,0,0,0-7,2.58c-1.71,1.72-2.64,4.21-2.77,7.48q3.08-3.08,8.57-3.07A13.59,13.59,0,0,1,463.12,66.53Zm-3.5,13.63a4.7,4.7,0,0,0,1.61-3.77,4.77,4.77,0,0,0-1.61-3.79,6.26,6.26,0,0,0-4.28-1.41A6.36,6.36,0,0,0,451,72.65a5,5,0,0,0,0,7.46,6.5,6.5,0,0,0,4.46,1.44A6.2,6.2,0,0,0,459.62,80.16Z"/><path class="cls-2" d="M503.69,79.66H498V87h-7.83V79.66H471.54v-5.4l16.34-22h8.43L481.15,73.12h9.31V66.63H498v6.49h5.65Z"/><path class="cls-2" d="M363.52,104.77a4.32,4.32,0,0,1,1.93,1.6,4.85,4.85,0,0,1,0,4.92,4.28,4.28,0,0,1-1.93,1.61,7.18,7.18,0,0,1-2.94.55H358V117h-2.95V104.2h5.53A7,7,0,0,1,363.52,104.77Zm-1.08,5.7a2,2,0,0,0,.69-1.63,2.05,2.05,0,0,0-.69-1.66,3.13,3.13,0,0,0-2-.57H358V111h2.41A3.13,3.13,0,0,0,362.44,110.47Z"/><path class="cls-2" d="M378.12,114.6V117h-9.9V104.2h9.66v2.37h-6.72v2.78h5.93v2.3h-5.93v2.95Z"/><path class="cls-2" d="M383,116.34a6.37,6.37,0,0,1-2.51-2.37,6.5,6.5,0,0,1,2.51-9.13,7.88,7.88,0,0,1,7.16,0,6.37,6.37,0,0,1,3.41,5.75,6.4,6.4,0,0,1-3.41,5.75,7.88,7.88,0,0,1-7.16,0Zm5.63-2.18a3.83,3.83,0,0,0,1.43-1.45,4.58,4.58,0,0,0,0-4.24,3.83,3.83,0,0,0-1.43-1.45,4.28,4.28,0,0,0-4.09,0,3.78,3.78,0,0,0-1.44,1.45,4.58,4.58,0,0,0,0,4.24,3.78,3.78,0,0,0,1.44,1.45,4.28,4.28,0,0,0,4.09,0Z"/><path class="cls-2" d="M404.32,104.77a4.35,4.35,0,0,1,1.92,1.6,4.79,4.79,0,0,1,0,4.92,4.3,4.3,0,0,1-1.92,1.61,7.26,7.26,0,0,1-2.95.55H398.8V117h-3V104.2h5.53A7.09,7.09,0,0,1,404.32,104.77Zm-1.09,5.7a2,2,0,0,0,.69-1.63,2.05,2.05,0,0,0-.69-1.66,3.13,3.13,0,0,0-2-.57h-2.4V111h2.4A3.13,3.13,0,0,0,403.23,110.47Z"/><path class="cls-2" d="M409,104.2h3v10.37h6.41V117H409Z"/><path class="cls-2" d="M429.93,114.6V117H420V104.2h9.66v2.37H423v2.78h5.93v2.3H423v2.95Z"/></svg>