<?xml version="1.0" encoding="utf-8"?>
<!-- Generator: Adobe Illustrator 24.1.0, SVG Export Plug-In . SVG Version: 6.00 Build 0)  -->
<svg version="1.1" id="Layer_1" xmlns="http://www.w3.org/2000/svg" xmlns:xlink="http://www.w3.org/1999/xlink" x="0px" y="0px"
	 viewBox="0 0 658.1 238.3" style="enable-background:new 0 0 658.1 238.3;" xml:space="preserve">
<style type="text/css">
	.st0{enable-background:new    ;}
	.st1{fill:#03AAD6;}
	.st2{opacity:0.15;}
	.st3{fill:#FFFFFF;}
	.st4{fill:none;stroke:#03AAD6;stroke-width:2.61;stroke-miterlimit:10;}
</style>
<g class="st0">
	<path d="M323,138.8l-0.8,0c-0.4,0-0.8,0.1-1.1,0.3s-0.5,0.5-0.7,0.9v6.4h-1.6v-9h1.5l0.2,1.3c0.3-0.5,0.6-0.8,0.9-1.1
		c0.4-0.3,0.8-0.4,1.3-0.4c0.1,0,0.2,0,0.3,0s0.2,0,0.3,0.1L323,138.8z"/>
</g>
<g class="st0">
	<path d="M328.2,146.5c-1.3,0-2.3-0.4-3-1.2s-1.1-1.9-1.1-3.2v-0.4c0-1.3,0.4-2.3,1.1-3.2c0.7-0.8,1.6-1.3,2.7-1.3
		c1.2,0,2.1,0.4,2.7,1.1c0.6,0.7,0.9,1.7,0.9,3v0.9h-5.7l0,0c0,0.9,0.2,1.6,0.6,2.2s1,0.8,1.8,0.8c0.6,0,1-0.1,1.5-0.2
		c0.4-0.2,0.8-0.4,1.1-0.6l0.6,1.1c-0.3,0.3-0.7,0.6-1.3,0.8C329.6,146.4,328.9,146.5,328.2,146.5z M328,138.5c-0.6,0-1,0.2-1.4,0.7
		s-0.6,1-0.7,1.7l0,0h4v-0.1c0-0.7-0.2-1.2-0.5-1.6C329.1,138.7,328.6,138.5,328,138.5z"/>
	<path d="M336.9,145.2c0.5,0,0.9-0.2,1.3-0.5s0.6-0.7,0.6-1.2h1.5l0,0c0,0.8-0.3,1.5-1,2.1c-0.7,0.6-1.5,0.9-2.4,0.9
		c-1.3,0-2.2-0.4-2.9-1.3c-0.7-0.9-1-1.9-1-3.2v-0.3c0-1.3,0.3-2.3,1-3.2s1.7-1.3,2.9-1.3c1,0,1.8,0.3,2.5,0.9
		c0.6,0.6,0.9,1.4,0.9,2.3l0,0h-1.5c0-0.5-0.2-1-0.5-1.4c-0.4-0.4-0.8-0.6-1.3-0.6c-0.8,0-1.4,0.3-1.7,0.9c-0.4,0.6-0.6,1.4-0.6,2.3
		v0.3c0,0.9,0.2,1.7,0.5,2.3S336.1,145.2,336.9,145.2z"/>
	<path d="M345.9,146.5c-1.3,0-2.3-0.4-3-1.2s-1.1-1.9-1.1-3.2v-0.4c0-1.3,0.4-2.3,1.1-3.2s1.6-1.3,2.7-1.3c1.2,0,2.1,0.4,2.7,1.1
		c0.6,0.7,0.9,1.7,0.9,3v0.9h-5.7l0,0c0,0.9,0.2,1.6,0.6,2.2c0.4,0.6,1,0.8,1.8,0.8c0.6,0,1-0.1,1.5-0.2c0.4-0.2,0.8-0.4,1.1-0.6
		l0.6,1.1c-0.3,0.3-0.7,0.6-1.3,0.8C347.3,146.4,346.7,146.5,345.9,146.5z M345.7,138.5c-0.6,0-1,0.2-1.4,0.7s-0.6,1-0.7,1.7l0,0h4
		v-0.1c0-0.7-0.2-1.2-0.5-1.6C346.8,138.7,346.4,138.5,345.7,138.5z"/>
	<path d="M352.9,135.1h-1.6v-1.7h1.6V135.1z M352.9,146.3h-1.6v-9h1.6V146.3z"/>
</g>
<g class="st0">
	<path d="M358.4,143.7l0.1,0.6h0l0.2-0.6l2.1-6.3h1.7l-3.3,9h-1.2l-3.3-9h1.7L358.4,143.7z"/>
</g>
<g class="st0">
	<path d="M367.5,146.5c-1.3,0-2.3-0.4-3-1.2s-1.1-1.9-1.1-3.2v-0.4c0-1.3,0.4-2.3,1.1-3.2s1.6-1.3,2.7-1.3c1.2,0,2.1,0.4,2.7,1.1
		c0.6,0.7,0.9,1.7,0.9,3v0.9h-5.7l0,0c0,0.9,0.2,1.6,0.6,2.2c0.4,0.6,1,0.8,1.8,0.8c0.6,0,1-0.1,1.5-0.2c0.4-0.2,0.8-0.4,1.1-0.6
		l0.6,1.1c-0.3,0.3-0.7,0.6-1.3,0.8C368.9,146.4,368.2,146.5,367.5,146.5z M367.2,138.5c-0.6,0-1,0.2-1.4,0.7s-0.6,1-0.7,1.7l0,0h4
		v-0.1c0-0.7-0.2-1.2-0.5-1.6C368.4,138.7,367.9,138.5,367.2,138.5z"/>
	<path d="M372.3,142c0-1.4,0.3-2.6,0.9-3.5c0.6-0.9,1.5-1.3,2.6-1.3c0.5,0,1,0.1,1.4,0.3c0.4,0.2,0.8,0.5,1,0.8v-4.9h1.6v12.9h-1.2
		l-0.2-1.1c-0.3,0.4-0.7,0.8-1.1,1c-0.4,0.2-0.9,0.3-1.5,0.3c-1.1,0-1.9-0.4-2.6-1.2c-0.6-0.8-0.9-1.8-0.9-3.1V142z M373.9,142.2
		c0,0.9,0.2,1.6,0.6,2.2c0.4,0.5,0.9,0.8,1.7,0.8c0.5,0,0.9-0.1,1.2-0.3s0.6-0.5,0.8-0.9v-4.2c-0.2-0.4-0.5-0.7-0.8-0.9
		c-0.3-0.2-0.7-0.3-1.2-0.3c-0.8,0-1.4,0.3-1.7,1c-0.4,0.6-0.6,1.5-0.6,2.5V142.2z"/>
	<path d="M392.2,145c-0.3,0.5-0.6,0.8-1.1,1.1c-0.4,0.3-1,0.4-1.5,0.4c-1,0-1.7-0.3-2.3-0.9s-0.8-1.6-0.8-2.9v-5.3h1.6v5.3
		c0,1,0.1,1.6,0.4,2s0.7,0.5,1.3,0.5c0.6,0,1.1-0.1,1.4-0.4c0.4-0.2,0.7-0.6,0.9-1v-6.5h1.6v9h-1.5L392.2,145z"/>
	<path d="M397.6,137.4l0.1,1.3c0.3-0.5,0.7-0.8,1.1-1.1c0.5-0.3,1-0.4,1.5-0.4c1,0,1.7,0.3,2.2,0.8s0.8,1.4,0.8,2.6v5.6h-1.6v-5.6
		c0-0.8-0.2-1.3-0.5-1.7c-0.3-0.3-0.8-0.5-1.4-0.5c-0.5,0-0.9,0.1-1.3,0.3c-0.3,0.2-0.6,0.5-0.8,0.8v6.6h-1.6v-9H397.6z"/>
	<path d="M409.3,145.2c0.5,0,0.9-0.2,1.3-0.5s0.6-0.7,0.6-1.2h1.5l0,0c0,0.8-0.3,1.5-1,2.1c-0.7,0.6-1.5,0.9-2.4,0.9
		c-1.3,0-2.2-0.4-2.9-1.3c-0.7-0.9-1-1.9-1-3.2v-0.3c0-1.3,0.3-2.3,1-3.2s1.7-1.3,2.9-1.3c1,0,1.8,0.3,2.5,0.9
		c0.6,0.6,0.9,1.4,0.9,2.3l0,0h-1.5c0-0.5-0.2-1-0.5-1.4c-0.4-0.4-0.8-0.6-1.3-0.6c-0.8,0-1.4,0.3-1.7,0.9c-0.4,0.6-0.6,1.4-0.6,2.3
		v0.3c0,0.9,0.2,1.7,0.5,2.3S408.5,145.2,409.3,145.2z"/>
	<path d="M414.2,141.8c0-1.3,0.4-2.4,1.1-3.3s1.7-1.3,2.9-1.3c1.2,0,2.2,0.4,2.9,1.3s1.1,1.9,1.1,3.3v0.2c0,1.3-0.4,2.4-1.1,3.3
		c-0.7,0.8-1.7,1.3-2.9,1.3s-2.2-0.4-2.9-1.3c-0.7-0.9-1.1-1.9-1.1-3.3V141.8z M415.9,142c0,0.9,0.2,1.7,0.6,2.3
		c0.4,0.6,1,0.9,1.8,0.9c0.8,0,1.4-0.3,1.8-0.9s0.6-1.4,0.6-2.3v-0.2c0-0.9-0.2-1.7-0.6-2.3s-1-0.9-1.8-0.9c-0.8,0-1.4,0.3-1.8,0.9
		c-0.4,0.6-0.6,1.4-0.6,2.3V142z"/>
	<path d="M425.7,137.4l0.1,1.3c0.3-0.5,0.7-0.8,1.1-1.1c0.5-0.3,1-0.4,1.5-0.4c1,0,1.7,0.3,2.2,0.8s0.8,1.4,0.8,2.6v5.6h-1.6v-5.6
		c0-0.8-0.2-1.3-0.5-1.7c-0.3-0.3-0.8-0.5-1.4-0.5c-0.5,0-0.9,0.1-1.3,0.3c-0.3,0.2-0.6,0.5-0.8,0.8v6.6h-1.6v-9H425.7z"/>
	<path d="M433.5,142c0-1.4,0.3-2.6,0.9-3.5c0.6-0.9,1.5-1.3,2.6-1.3c0.5,0,1,0.1,1.4,0.3c0.4,0.2,0.8,0.5,1,0.8v-4.9h1.6v12.9h-1.2
		l-0.2-1.1c-0.3,0.4-0.7,0.8-1.1,1c-0.4,0.2-0.9,0.3-1.5,0.3c-1.1,0-1.9-0.4-2.6-1.2c-0.6-0.8-0.9-1.8-0.9-3.1V142z M435.1,142.2
		c0,0.9,0.2,1.6,0.6,2.2c0.4,0.5,0.9,0.8,1.7,0.8c0.5,0,0.9-0.1,1.2-0.3s0.6-0.5,0.8-0.9v-4.2c-0.2-0.4-0.5-0.7-0.8-0.9
		s-0.7-0.3-1.2-0.3c-0.8,0-1.4,0.3-1.7,1c-0.4,0.6-0.6,1.5-0.6,2.5V142.2z"/>
	<path d="M445.3,135.1h-1.6v-1.7h1.6V135.1z M445.3,146.3h-1.6v-9h1.6V146.3z"/>
	<path d="M450,135.2v2.2h1.7v1.2H450v5.4c0,0.4,0.1,0.7,0.3,0.9s0.4,0.3,0.7,0.3c0.1,0,0.2,0,0.3,0c0.1,0,0.2-0.1,0.3-0.1l0.2,1.1
		c-0.1,0.1-0.3,0.2-0.5,0.2c-0.2,0.1-0.5,0.1-0.7,0.1c-0.7,0-1.2-0.2-1.6-0.6c-0.4-0.4-0.6-1-0.6-1.9v-5.4H447v-1.2h1.4v-2.2H450z"
		/>
	<path d="M455.2,135.1h-1.6v-1.7h1.6V135.1z M455.2,146.3h-1.6v-9h1.6V146.3z"/>
	<path d="M457.4,141.8c0-1.3,0.4-2.4,1.1-3.3s1.7-1.3,2.9-1.3c1.2,0,2.2,0.4,2.9,1.3c0.7,0.9,1.1,1.9,1.1,3.3v0.2
		c0,1.3-0.4,2.4-1.1,3.3c-0.7,0.8-1.7,1.3-2.9,1.3s-2.2-0.4-2.9-1.3c-0.7-0.9-1.1-1.9-1.1-3.3V141.8z M459,142
		c0,0.9,0.2,1.7,0.6,2.3s1,0.9,1.8,0.9c0.8,0,1.4-0.3,1.8-0.9s0.6-1.4,0.6-2.3v-0.2c0-0.9-0.2-1.7-0.6-2.3s-1-0.9-1.8-0.9
		c-0.8,0-1.4,0.3-1.8,0.9s-0.6,1.4-0.6,2.3V142z"/>
	<path d="M468.8,137.4l0.1,1.3c0.3-0.5,0.7-0.8,1.1-1.1c0.5-0.3,1-0.4,1.5-0.4c1,0,1.7,0.3,2.2,0.8s0.8,1.4,0.8,2.6v5.6H473v-5.6
		c0-0.8-0.2-1.3-0.5-1.7c-0.3-0.3-0.8-0.5-1.4-0.5c-0.5,0-0.9,0.1-1.3,0.3c-0.3,0.2-0.6,0.5-0.8,0.8v6.6h-1.6v-9H468.8z"/>
	<path d="M482.5,146.3c-0.1-0.3-0.1-0.5-0.1-0.7c0-0.2,0-0.4-0.1-0.6c-0.3,0.4-0.7,0.8-1.2,1.1c-0.5,0.3-1,0.4-1.6,0.4
		c-0.9,0-1.6-0.2-2.1-0.7c-0.5-0.5-0.7-1.1-0.7-2c0-0.9,0.3-1.5,1-2s1.6-0.7,2.8-0.7h1.8v-0.9c0-0.5-0.2-0.9-0.5-1.2
		c-0.3-0.3-0.8-0.5-1.4-0.5c-0.5,0-1,0.1-1.3,0.4c-0.3,0.3-0.5,0.6-0.5,1l-1.5,0l0,0c0-0.7,0.3-1.2,0.9-1.8c0.6-0.5,1.5-0.8,2.5-0.8
		c1,0,1.8,0.3,2.4,0.8c0.6,0.5,0.9,1.3,0.9,2.2v4.3c0,0.3,0,0.6,0,0.9s0.1,0.6,0.2,0.9H482.5z M479.8,145.1c0.6,0,1.1-0.2,1.6-0.5
		c0.5-0.3,0.8-0.7,0.9-1v-1.5h-1.8c-0.7,0-1.2,0.2-1.6,0.5s-0.6,0.7-0.6,1.2c0,0.4,0.1,0.7,0.4,0.9
		C478.9,145,479.3,145.1,479.8,145.1z"/>
	<path d="M488.1,146.3h-1.6v-12.9h1.6V146.3z"/>
</g>
<g class="st0">
	<path d="M335.2,165.6c0.5,0,0.9-0.2,1.3-0.5s0.6-0.7,0.6-1.2h1.5l0,0c0,0.8-0.3,1.5-1,2.1s-1.5,0.9-2.4,0.9c-1.3,0-2.2-0.4-2.9-1.3
		s-1-1.9-1-3.2V162c0-1.3,0.3-2.3,1-3.2s1.7-1.3,2.9-1.3c1,0,1.8,0.3,2.5,0.9c0.6,0.6,0.9,1.4,0.9,2.3l0,0h-1.5c0-0.5-0.2-1-0.5-1.4
		c-0.4-0.4-0.8-0.6-1.3-0.6c-0.8,0-1.4,0.3-1.8,0.9c-0.4,0.6-0.5,1.4-0.5,2.3v0.3c0,0.9,0.2,1.7,0.5,2.3
		C333.9,165.3,334.4,165.6,335.2,165.6z"/>
	<path d="M342.2,158.9c0.3-0.4,0.7-0.8,1.1-1c0.4-0.2,0.9-0.4,1.5-0.4c1,0,1.7,0.3,2.2,0.9s0.8,1.5,0.8,2.6v5.6h-1.6V161
		c0-0.7-0.2-1.3-0.5-1.6c-0.3-0.4-0.8-0.5-1.4-0.5c-0.5,0-0.9,0.1-1.3,0.3c-0.4,0.2-0.6,0.5-0.9,0.8v6.7h-1.6v-12.9h1.6V158.9z"/>
	<path d="M352,155.4h-1.6v-1.7h1.6V155.4z M352,166.7h-1.6v-9h1.6V166.7z"/>
	<path d="M356.2,166.7h-1.6v-12.9h1.6V166.7z"/>
	<path d="M358.4,162.4c0-1.4,0.3-2.6,0.9-3.5c0.6-0.9,1.5-1.3,2.6-1.3c0.5,0,1,0.1,1.4,0.3c0.4,0.2,0.8,0.5,1,0.8v-4.9h1.6v12.9
		h-1.2l-0.2-1.1c-0.3,0.4-0.7,0.8-1.1,1c-0.4,0.2-0.9,0.3-1.5,0.3c-1.1,0-1.9-0.4-2.6-1.2c-0.6-0.8-0.9-1.8-0.9-3.1V162.4z
		 M360,162.5c0,0.9,0.2,1.6,0.6,2.2c0.4,0.5,0.9,0.8,1.7,0.8c0.5,0,0.9-0.1,1.2-0.3s0.6-0.5,0.8-0.9v-4.2c-0.2-0.4-0.5-0.7-0.8-0.9
		c-0.3-0.2-0.7-0.3-1.2-0.3c-0.8,0-1.4,0.3-1.7,1c-0.4,0.6-0.6,1.5-0.6,2.5V162.5z"/>
	<path d="M380.2,162.5c0,1.3-0.3,2.3-0.9,3.1c-0.6,0.8-1.5,1.2-2.6,1.2c-0.6,0-1.1-0.1-1.6-0.4s-0.8-0.6-1.1-1l-0.3,1.2h-1.2v-12.9
		h1.6v5c0.3-0.4,0.6-0.7,1-0.9c0.4-0.2,0.9-0.3,1.5-0.3c1.1,0,2,0.4,2.6,1.3c0.6,0.9,0.9,2,0.9,3.5V162.5z M378.6,162.4
		c0-1-0.2-1.9-0.6-2.5c-0.4-0.6-1-1-1.7-1c-0.5,0-0.9,0.1-1.3,0.4s-0.6,0.6-0.8,1v3.9c0.2,0.4,0.5,0.8,0.8,1
		c0.3,0.2,0.8,0.4,1.3,0.4c0.8,0,1.3-0.3,1.7-0.8s0.6-1.3,0.6-2.2V162.4z"/>
	<path d="M385.9,166.8c-1.3,0-2.3-0.4-3-1.2s-1.1-1.9-1.1-3.2V162c0-1.3,0.4-2.3,1.1-3.2c0.7-0.8,1.6-1.3,2.7-1.3
		c1.2,0,2.1,0.4,2.7,1.1c0.6,0.7,0.9,1.7,0.9,3v0.9h-5.7l0,0c0,0.9,0.2,1.6,0.6,2.2c0.4,0.6,1,0.8,1.8,0.8c0.6,0,1-0.1,1.5-0.2
		s0.8-0.4,1.1-0.6l0.6,1.1c-0.3,0.3-0.7,0.6-1.3,0.8C387.3,166.7,386.6,166.8,385.9,166.8z M385.6,158.8c-0.6,0-1,0.2-1.4,0.7
		s-0.6,1-0.7,1.7l0,0h4v-0.1c0-0.7-0.2-1.2-0.5-1.6S386.3,158.8,385.6,158.8z"/>
	<path d="M392.5,157.7l0.1,1.3c0.3-0.5,0.7-0.8,1.1-1.1c0.5-0.3,1-0.4,1.5-0.4c1,0,1.7,0.3,2.2,0.8s0.8,1.4,0.8,2.6v5.6h-1.6V161
		c0-0.8-0.2-1.3-0.5-1.7c-0.3-0.3-0.8-0.5-1.4-0.5c-0.5,0-0.9,0.1-1.3,0.3c-0.3,0.2-0.6,0.5-0.8,0.8v6.6h-1.6v-9H392.5z"/>
	<path d="M404.4,166.8c-1.3,0-2.3-0.4-3-1.2s-1.1-1.9-1.1-3.2V162c0-1.3,0.4-2.3,1.1-3.2s1.6-1.3,2.7-1.3c1.2,0,2.1,0.4,2.7,1.1
		c0.6,0.7,0.9,1.7,0.9,3v0.9H402l0,0c0,0.9,0.2,1.6,0.6,2.2c0.4,0.6,1,0.8,1.8,0.8c0.6,0,1-0.1,1.5-0.2c0.4-0.2,0.8-0.4,1.1-0.6
		l0.6,1.1c-0.3,0.3-0.7,0.6-1.3,0.8C405.8,166.7,405.1,166.8,404.4,166.8z M404.1,158.8c-0.6,0-1,0.2-1.4,0.7s-0.6,1-0.7,1.7l0,0h4
		v-0.1c0-0.7-0.2-1.2-0.5-1.6C405.3,159,404.8,158.8,404.1,158.8z"/>
	<path d="M410,166.7v-7.7h-1.4v-1.2h1.4v-1c0-1,0.3-1.8,0.9-2.3c0.6-0.6,1.4-0.8,2.4-0.8c0.4,0,0.7,0,1.1,0.1
		c0.4,0.1,0.8,0.2,1.3,0.4l-0.3,1.3c-0.3-0.1-0.6-0.2-0.9-0.3s-0.7-0.1-1-0.1c-0.6,0-1.1,0.1-1.4,0.4c-0.3,0.3-0.4,0.7-0.4,1.3v1
		h1.8v1.2h-1.8v7.7H410z M416.5,166.7h-1.6v-9h1.6V166.7z"/>
	<path d="M421.2,155.6v2.2h1.7v1.2h-1.7v5.4c0,0.4,0.1,0.7,0.3,0.9s0.4,0.3,0.7,0.3c0.1,0,0.2,0,0.3,0c0.1,0,0.2-0.1,0.3-0.1
		l0.2,1.1c-0.1,0.1-0.3,0.2-0.5,0.2c-0.2,0.1-0.5,0.1-0.7,0.1c-0.7,0-1.2-0.2-1.6-0.6c-0.4-0.4-0.6-1-0.6-1.9v-5.4h-1.4v-1.2h1.4
		v-2.2H421.2z"/>
	<path d="M428.5,162.4c0-1.4,0.3-2.6,0.9-3.5c0.6-0.9,1.5-1.3,2.6-1.3c0.5,0,1,0.1,1.4,0.3c0.4,0.2,0.8,0.5,1,0.8v-4.9h1.6v12.9
		h-1.2l-0.2-1.1c-0.3,0.4-0.7,0.8-1.1,1c-0.4,0.2-0.9,0.3-1.5,0.3c-1.1,0-1.9-0.4-2.6-1.2c-0.6-0.8-0.9-1.8-0.9-3.1V162.4z
		 M430.2,162.5c0,0.9,0.2,1.6,0.6,2.2c0.4,0.5,0.9,0.8,1.7,0.8c0.5,0,0.9-0.1,1.2-0.3s0.6-0.5,0.8-0.9v-4.2
		c-0.2-0.4-0.5-0.7-0.8-0.9s-0.7-0.3-1.2-0.3c-0.8,0-1.4,0.3-1.7,1c-0.4,0.6-0.6,1.5-0.6,2.5V162.5z"/>
	<path d="M444.2,165.3c-0.3,0.5-0.6,0.8-1.1,1.1c-0.4,0.3-1,0.4-1.5,0.4c-1,0-1.7-0.3-2.3-0.9s-0.8-1.6-0.8-2.9v-5.3h1.6v5.3
		c0,1,0.1,1.6,0.4,2s0.7,0.5,1.3,0.5c0.6,0,1.1-0.1,1.4-0.4s0.7-0.6,0.9-1v-6.5h1.6v9h-1.5L444.2,165.3z"/>
	<path d="M452.4,159.1l-0.8,0c-0.4,0-0.8,0.1-1.1,0.3s-0.5,0.5-0.7,0.9v6.4h-1.6v-9h1.5l0.2,1.3c0.3-0.5,0.6-0.8,0.9-1.1
		c0.4-0.3,0.8-0.4,1.3-0.4c0.1,0,0.2,0,0.3,0s0.2,0,0.3,0.1L452.4,159.1z"/>
	<path d="M455.8,155.4h-1.6v-1.7h1.6V155.4z M455.8,166.7h-1.6v-9h1.6V166.7z"/>
	<path d="M459.8,157.7l0.1,1.3c0.3-0.5,0.7-0.8,1.1-1.1c0.5-0.3,1-0.4,1.5-0.4c1,0,1.7,0.3,2.2,0.8s0.8,1.4,0.8,2.6v5.6H464V161
		c0-0.8-0.2-1.3-0.5-1.7c-0.3-0.3-0.8-0.5-1.4-0.5c-0.5,0-0.9,0.1-1.3,0.3c-0.3,0.2-0.6,0.5-0.8,0.8v6.6h-1.6v-9H459.8z"/>
	<path d="M467.7,162.4c0-1.4,0.3-2.6,0.9-3.5c0.6-0.9,1.5-1.3,2.6-1.3c0.6,0,1.1,0.1,1.5,0.3c0.4,0.2,0.8,0.6,1.1,1l0.2-1.2h1.3v9
		c0,1.1-0.3,2-1,2.6c-0.7,0.6-1.6,0.9-2.9,0.9c-0.4,0-0.9-0.1-1.4-0.2c-0.5-0.1-0.9-0.3-1.3-0.5l0.2-1.3c0.3,0.2,0.7,0.3,1.1,0.4
		c0.4,0.1,0.9,0.2,1.3,0.2c0.8,0,1.4-0.2,1.7-0.5c0.4-0.4,0.5-0.9,0.5-1.7v-1c-0.3,0.4-0.6,0.7-1.1,0.9c-0.4,0.2-0.9,0.3-1.4,0.3
		c-1.1,0-1.9-0.4-2.6-1.2c-0.6-0.8-0.9-1.8-0.9-3.1V162.4z M469.3,162.5c0,0.9,0.2,1.6,0.6,2.2s0.9,0.8,1.7,0.8
		c0.5,0,0.9-0.1,1.2-0.3c0.3-0.2,0.6-0.5,0.8-0.9v-4.1c-0.2-0.4-0.5-0.7-0.8-0.9c-0.3-0.2-0.7-0.3-1.2-0.3c-0.8,0-1.4,0.3-1.7,1
		c-0.4,0.6-0.6,1.5-0.6,2.5V162.5z"/>
</g>
<g class="st0">
	<path d="M315.2,175.9v2.2h1.7v1.2h-1.7v5.4c0,0.4,0.1,0.7,0.3,0.9c0.2,0.2,0.4,0.3,0.7,0.3c0.1,0,0.2,0,0.3,0
		c0.1,0,0.2-0.1,0.3-0.1l0.2,1.1c-0.1,0.1-0.3,0.2-0.5,0.2c-0.2,0.1-0.5,0.1-0.7,0.1c-0.7,0-1.2-0.2-1.6-0.6c-0.4-0.4-0.6-1-0.6-1.9
		v-5.4h-1.4V178h1.4v-2.2H315.2z"/>
	<path d="M320.3,179.2c0.3-0.4,0.7-0.8,1.1-1c0.4-0.2,0.9-0.4,1.5-0.4c1,0,1.7,0.3,2.2,0.9c0.5,0.6,0.8,1.5,0.8,2.6v5.6h-1.6v-5.6
		c0-0.7-0.2-1.3-0.5-1.6c-0.3-0.4-0.8-0.5-1.4-0.5c-0.5,0-0.9,0.1-1.3,0.3c-0.4,0.2-0.6,0.5-0.9,0.8v6.7h-1.6v-12.9h1.6V179.2z"/>
	<path d="M332,187.2c-1.3,0-2.3-0.4-3-1.2c-0.7-0.8-1.1-1.9-1.1-3.2v-0.4c0-1.3,0.4-2.3,1.1-3.2c0.7-0.8,1.6-1.3,2.7-1.3
		c1.2,0,2.1,0.4,2.7,1.1c0.6,0.7,0.9,1.7,0.9,3v0.9h-5.7l0,0c0,0.9,0.2,1.6,0.6,2.2c0.4,0.6,1,0.8,1.8,0.8c0.6,0,1-0.1,1.5-0.2
		c0.4-0.2,0.8-0.4,1.1-0.7l0.6,1.1c-0.3,0.3-0.7,0.6-1.3,0.8C333.4,187,332.7,187.2,332,187.2z M331.7,179.1c-0.6,0-1,0.2-1.4,0.7
		c-0.4,0.4-0.6,1-0.7,1.7l0,0h4v-0.1c0-0.7-0.2-1.2-0.5-1.6C332.9,179.4,332.4,179.1,331.7,179.1z"/>
	<path d="M350.2,183.1L350.2,183.1c0,1.2-0.4,2.1-1.2,2.9c-0.8,0.8-1.9,1.1-3.2,1.1c-1.4,0-2.5-0.5-3.3-1.4s-1.3-2.2-1.3-3.7v-2.1
		c0-1.5,0.4-2.7,1.3-3.7c0.9-1,2-1.5,3.3-1.5c1.4,0,2.4,0.4,3.3,1.1c0.8,0.7,1.2,1.7,1.2,2.9l0,0.1h-1.6c0-0.8-0.2-1.5-0.7-2
		s-1.2-0.7-2.1-0.7c-0.9,0-1.6,0.4-2.2,1.1c-0.5,0.7-0.8,1.6-0.8,2.7v2.2c0,1.1,0.3,2,0.8,2.7c0.5,0.7,1.3,1.1,2.2,1.1
		c0.9,0,1.6-0.2,2.1-0.7s0.7-1.2,0.7-2H350.2z"/>
</g>
<g class="st0">
	<path d="M361.5,182c0,1.5-0.5,2.7-1.4,3.7c-0.9,1-2.1,1.5-3.6,1.5c-1.4,0-2.5-0.5-3.4-1.5c-0.9-1-1.3-2.2-1.3-3.7v-2.1
		c0-1.5,0.4-2.7,1.3-3.7c0.9-1,2-1.5,3.4-1.5c1.5,0,2.6,0.5,3.6,1.5c0.9,1,1.4,2.2,1.4,3.7V182z M359.9,179.9c0-1.1-0.3-2-0.9-2.7
		c-0.6-0.7-1.4-1.1-2.4-1.1c-0.9,0-1.7,0.4-2.3,1.1c-0.6,0.7-0.8,1.6-0.8,2.7v2.2c0,1.1,0.3,2,0.8,2.7c0.6,0.7,1.3,1.1,2.3,1.1
		c1,0,1.8-0.4,2.4-1.1s0.9-1.6,0.9-2.7V179.9z"/>
</g>
<g class="st0">
	<path d="M367.3,183.8l0.3,1h0l0.3-1l3.1-8.9h1.8l-4.5,12h-1.4l-4.5-12h1.8L367.3,183.8z"/>
	<path d="M376.2,187h-1.6v-12h1.6V187z"/>
	<path d="M379.2,187v-12h3.8c1.6,0,2.8,0.5,3.8,1.5c1,1,1.4,2.2,1.4,3.8v1.6c0,1.5-0.5,2.8-1.4,3.8c-1,1-2.2,1.4-3.8,1.4H379.2z
		 M380.8,176.2v9.5h2.2c1.1,0,2-0.4,2.6-1.1c0.6-0.7,1-1.7,1-2.8v-1.7c0-1.1-0.3-2.1-1-2.8c-0.6-0.7-1.5-1.1-2.6-1.1H380.8z"/>
	<path d="M395.5,182.5h-4.9v-1.3h4.9V182.5z"/>
	<path d="M402.8,187h-1.6v-10.5l-2.6,0v-1.3l4.3-0.4V187z"/>
	<path d="M410.6,185.9c0.8,0,1.4-0.3,1.9-0.8c0.5-0.5,0.7-1.3,0.7-2.3v-1c-0.3,0.4-0.6,0.7-1,0.9c-0.4,0.2-0.8,0.3-1.3,0.3
		c-1.2,0-2.1-0.4-2.7-1.1c-0.7-0.7-1-1.7-1-3c0-1.2,0.4-2.2,1.1-3c0.7-0.8,1.6-1.2,2.6-1.2c1.2,0,2.2,0.4,2.9,1.1
		c0.7,0.8,1.1,1.8,1.1,3.2v3.7c0,1.4-0.4,2.5-1.2,3.2c-0.8,0.8-1.8,1.2-3.1,1.2c-0.4,0-0.9,0-1.3-0.1c-0.4-0.1-0.9-0.2-1.2-0.4
		l0.2-1.2c0.4,0.2,0.7,0.3,1.1,0.4C409.7,185.8,410.1,185.9,410.6,185.9z M410.9,181.7c0.6,0,1-0.1,1.4-0.4c0.4-0.3,0.7-0.6,0.8-1
		v-1.4c0-0.9-0.2-1.6-0.6-2.1c-0.4-0.5-1-0.7-1.7-0.7c-0.6,0-1.1,0.3-1.5,0.8c-0.4,0.5-0.6,1.2-0.6,2.1c0,0.8,0.2,1.5,0.5,2
		C409.7,181.4,410.2,181.7,410.9,181.7z"/>
	<path d="M429,182.8c0,1.3-0.3,2.3-0.9,3.1s-1.5,1.2-2.6,1.2c-0.6,0-1-0.1-1.5-0.3c-0.4-0.2-0.8-0.5-1.1-0.8v4.4h-1.6V178h1.2
		l0.3,1.2c0.3-0.4,0.7-0.8,1.1-1c0.4-0.2,0.9-0.3,1.5-0.3c1.1,0,2,0.4,2.6,1.3c0.6,0.9,0.9,2,0.9,3.5V182.8z M427.3,182.7
		c0-1-0.2-1.8-0.6-2.5c-0.4-0.7-1-1-1.8-1c-0.5,0-0.9,0.1-1.2,0.3c-0.3,0.2-0.6,0.5-0.8,0.9v4.3c0.2,0.4,0.5,0.7,0.8,0.9
		c0.3,0.2,0.7,0.3,1.2,0.3c0.8,0,1.4-0.3,1.8-0.8c0.4-0.6,0.6-1.3,0.6-2.2V182.7z"/>
	<path d="M436.5,187c-0.1-0.3-0.1-0.5-0.1-0.7c0-0.2,0-0.4-0.1-0.6c-0.3,0.4-0.7,0.8-1.2,1.1c-0.5,0.3-1,0.4-1.6,0.4
		c-0.9,0-1.6-0.2-2.1-0.7c-0.5-0.5-0.7-1.1-0.7-2c0-0.9,0.3-1.5,1-2c0.7-0.5,1.6-0.7,2.8-0.7h1.8v-0.9c0-0.5-0.2-0.9-0.5-1.2
		c-0.3-0.3-0.8-0.5-1.4-0.5c-0.5,0-1,0.1-1.3,0.4c-0.3,0.3-0.5,0.6-0.5,1l-1.5,0l0,0c0-0.7,0.3-1.2,0.9-1.8c0.6-0.5,1.5-0.8,2.5-0.8
		c1,0,1.8,0.3,2.4,0.8s0.9,1.3,0.9,2.2v4.3c0,0.3,0,0.6,0,0.9c0,0.3,0.1,0.6,0.2,0.9H436.5z M433.8,185.8c0.6,0,1.1-0.2,1.6-0.5
		s0.8-0.7,0.9-1v-1.5h-1.8c-0.7,0-1.2,0.2-1.6,0.5c-0.4,0.3-0.6,0.7-0.6,1.2c0,0.4,0.1,0.7,0.4,0.9S433.3,185.8,433.8,185.8z"/>
	<path d="M441.7,178l0.1,1.3c0.3-0.5,0.7-0.8,1.1-1.1c0.5-0.3,1-0.4,1.5-0.4c1,0,1.7,0.3,2.2,0.8c0.5,0.6,0.8,1.4,0.8,2.6v5.7h-1.6
		v-5.6c0-0.8-0.2-1.3-0.5-1.7c-0.3-0.3-0.8-0.5-1.4-0.5c-0.5,0-0.9,0.1-1.3,0.3c-0.4,0.2-0.6,0.5-0.8,0.8v6.6h-1.6v-9H441.7z"/>
	<path d="M449.5,182.7c0-1.4,0.3-2.6,0.9-3.5c0.6-0.9,1.5-1.3,2.6-1.3c0.5,0,1,0.1,1.4,0.3s0.8,0.5,1,0.8v-4.9h1.6V187h-1.2
		l-0.2-1.1c-0.3,0.4-0.7,0.8-1.1,1s-0.9,0.3-1.5,0.3c-1.1,0-1.9-0.4-2.6-1.2s-0.9-1.8-0.9-3.1V182.7z M451.2,182.8
		c0,0.9,0.2,1.6,0.6,2.2s0.9,0.8,1.7,0.8c0.5,0,0.9-0.1,1.2-0.3s0.6-0.5,0.8-0.9v-4.2c-0.2-0.4-0.5-0.7-0.8-0.9
		c-0.3-0.2-0.7-0.3-1.2-0.3c-0.8,0-1.4,0.3-1.7,1c-0.4,0.6-0.6,1.5-0.6,2.5V182.8z"/>
	<path d="M463.2,187.2c-1.3,0-2.3-0.4-3-1.2c-0.7-0.8-1.1-1.9-1.1-3.2v-0.4c0-1.3,0.4-2.3,1.1-3.2c0.7-0.8,1.6-1.3,2.7-1.3
		c1.2,0,2.1,0.4,2.7,1.1c0.6,0.7,0.9,1.7,0.9,3v0.9h-5.7l0,0c0,0.9,0.2,1.6,0.6,2.2c0.4,0.6,1,0.8,1.8,0.8c0.6,0,1-0.1,1.5-0.2
		c0.4-0.2,0.8-0.4,1.1-0.7l0.6,1.1c-0.3,0.3-0.7,0.6-1.3,0.8C464.6,187,464,187.2,463.2,187.2z M463,179.1c-0.6,0-1,0.2-1.4,0.7
		c-0.4,0.4-0.6,1-0.7,1.7l0,0h4v-0.1c0-0.7-0.2-1.2-0.5-1.6C464.2,179.4,463.7,179.1,463,179.1z"/>
	<path d="M469.9,178l0.1,1.2c0.3-0.4,0.7-0.8,1.1-1s1-0.4,1.6-0.4c0.6,0,1.1,0.1,1.5,0.4c0.4,0.3,0.7,0.7,1,1.2
		c0.3-0.5,0.7-0.9,1.1-1.2s1-0.4,1.6-0.4c0.9,0,1.6,0.3,2.2,0.9c0.5,0.6,0.8,1.6,0.8,2.8v5.4h-1.6v-5.4c0-0.9-0.2-1.5-0.5-1.9
		s-0.8-0.6-1.4-0.6c-0.6,0-1,0.2-1.4,0.6c-0.3,0.4-0.5,0.9-0.6,1.5v0.1v5.7h-1.6v-5.4c0-0.8-0.2-1.5-0.5-1.8s-0.8-0.6-1.3-0.6
		c-0.5,0-0.9,0.1-1.2,0.3c-0.3,0.2-0.6,0.5-0.7,0.9v6.6h-1.6v-9H469.9z"/>
	<path d="M485,175.7h-1.6v-1.7h1.6V175.7z M485,187h-1.6v-9h1.6V187z"/>
	<path d="M491,185.9c0.5,0,0.9-0.2,1.3-0.5s0.6-0.7,0.6-1.2h1.5l0,0.1c0,0.8-0.3,1.5-1,2.1c-0.7,0.6-1.5,0.9-2.4,0.9
		c-1.3,0-2.2-0.4-2.9-1.3c-0.7-0.9-1-1.9-1-3.2v-0.3c0-1.3,0.3-2.3,1-3.2s1.7-1.3,2.9-1.3c1,0,1.8,0.3,2.5,0.9
		c0.6,0.6,0.9,1.4,0.9,2.3l0,0h-1.5c0-0.5-0.2-1-0.5-1.4c-0.4-0.4-0.8-0.6-1.3-0.6c-0.8,0-1.4,0.3-1.8,0.9c-0.4,0.6-0.6,1.4-0.6,2.3
		v0.3c0,0.9,0.2,1.7,0.5,2.3C489.6,185.6,490.2,185.9,491,185.9z"/>
</g>
<g class="st0">
	<path class="st1" d="M357.3,112.5c-1.1-0.6-1.9-1.4-2.5-2.4s-0.9-2.1-0.9-3.4s0.3-2.4,0.9-3.4s1.4-1.8,2.5-2.4s2.2-0.8,3.5-0.8
		c1.1,0,2.1,0.2,3,0.6s1.6,0.9,2.3,1.7l-1.9,1.8c-0.9-1-1.9-1.5-3.2-1.5c-0.8,0-1.5,0.2-2.1,0.5s-1.1,0.8-1.5,1.5s-0.5,1.3-0.5,2.1
		s0.2,1.5,0.5,2.1s0.8,1.1,1.5,1.5s1.3,0.5,2.1,0.5c1.3,0,2.3-0.5,3.2-1.5l1.9,1.8c-0.6,0.7-1.4,1.3-2.3,1.7c-0.9,0.4-1.9,0.6-3,0.6
		C359.5,113.3,358.3,113,357.3,112.5z"/>
	<path class="st1" d="M379.8,100.3v12.8h-3v-5.2H371v5.2h-3v-12.8h3v5h5.8v-5H379.8z"/>
	<path class="st1" d="M382.8,100.3h3v12.8h-3V100.3z"/>
	<path class="st1" d="M388.8,100.3h3v10.4h6.4v2.4h-9.4V100.3z"/>
	<path class="st1" d="M399.8,100.3h5.8c1.4,0,2.6,0.3,3.7,0.8s1.9,1.3,2.5,2.2c0.6,1,0.9,2.1,0.9,3.4s-0.3,2.4-0.9,3.4
		s-1.4,1.7-2.5,2.2s-2.3,0.8-3.7,0.8h-5.8V100.3z M405.5,110.7c1.3,0,2.3-0.4,3.1-1.1c0.8-0.7,1.1-1.7,1.1-2.9s-0.4-2.2-1.1-2.9
		c-0.8-0.7-1.8-1.1-3.1-1.1h-2.7v7.9L405.5,110.7L405.5,110.7z"/>
	<path class="st1" d="M423,113.1l-2.5-3.6h-0.1h-2.6v3.6h-3v-12.8h5.5c1.1,0,2.1,0.2,2.9,0.6s1.5,0.9,1.9,1.6s0.7,1.5,0.7,2.5
		c0,0.9-0.2,1.8-0.7,2.5s-1.1,1.2-1.9,1.6l2.9,4.1L423,113.1L423,113.1z M422.3,103.3c-0.5-0.4-1.1-0.6-2-0.6h-2.4v4.5h2.4
		c0.9,0,1.6-0.2,2-0.6c0.5-0.4,0.7-0.9,0.7-1.6C422.9,104.2,422.7,103.7,422.3,103.3z"/>
	<path class="st1" d="M438.2,110.7v2.4h-9.9v-12.8h9.6v2.4h-6.7v2.8h5.9v2.3h-5.9v3h7V110.7z"/>
	<path class="st1" d="M452.2,100.3v12.8h-2.4l-6.4-7.8v7.8h-2.9v-12.8h2.4l6.3,7.8v-7.8H452.2z"/>
</g>
<g class="st0">
	<path class="st1" d="M301.5,65.9c1.6,1.8,2.4,4,2.4,6.6c0,2-0.5,3.9-1.6,5.6s-2.7,3.1-4.8,4.1c-2.2,1-4.8,1.5-7.9,1.5
		c-2.4,0-4.8-0.3-7.2-1c-2.4-0.6-4.4-1.6-6-2.7l3.1-6.1c1.3,1,2.8,1.8,4.6,2.3s3.5,0.8,5.3,0.8c2,0,3.6-0.4,4.8-1.2
		c1.2-0.8,1.7-1.9,1.7-3.3c0-2.8-2.2-4.3-6.5-4.3h-3.7v-5.3l7.1-8.1H278v-6.4h24.3v5.2l-7.8,8.9C297.5,63,299.9,64.1,301.5,65.9z"/>
</g>
<g class="st0">
	<path class="st1" d="M315.6,75.2c0.9,0.9,1.3,2,1.3,3.4c0,0.7-0.1,1.3-0.2,2c-0.2,0.7-0.5,1.7-1.1,3l-2.8,7.1h-4.9l2.2-7.9
		c-0.8-0.3-1.5-0.9-2-1.6s-0.7-1.6-0.7-2.6c0-1.4,0.5-2.6,1.4-3.4c0.9-0.9,2.1-1.3,3.4-1.3S314.7,74.3,315.6,75.2z"/>
</g>
<g class="st0">
	<path class="st1" d="M344.3,65.9c1.6,1.8,2.4,4,2.4,6.6c0,2-0.5,3.9-1.6,5.6s-2.7,3.1-4.8,4.1c-2.2,1-4.8,1.5-7.9,1.5
		c-2.4,0-4.8-0.3-7.2-1c-2.4-0.6-4.4-1.6-6-2.7l3.1-6.1c1.3,1,2.8,1.8,4.6,2.3s3.5,0.8,5.3,0.8c2,0,3.6-0.4,4.8-1.2
		c1.2-0.8,1.7-1.9,1.7-3.3c0-2.8-2.2-4.3-6.5-4.3h-3.7v-5.3l7.1-8.1h-14.8v-6.4h24.3v5.2l-7.8,8.9C340.3,63,342.6,64.1,344.3,65.9z"
		/>
	<path class="st1" d="M357.6,81.5c-2.2-1.4-4-3.5-5.3-6.2s-1.9-5.9-1.9-9.6s0.6-6.9,1.9-9.6c1.3-2.7,3-4.7,5.3-6.2
		c2.2-1.4,4.8-2.1,7.7-2.1c2.9,0,5.4,0.7,7.7,2.1c2.2,1.4,4,3.5,5.3,6.2s1.9,5.9,1.9,9.6s-0.6,6.9-1.9,9.6s-3,4.7-5.3,6.2
		c-2.2,1.4-4.8,2.1-7.7,2.1C362.4,83.7,359.8,83,357.6,81.5z M370.2,74.2c1.2-1.8,1.8-4.6,1.8-8.4s-0.6-6.6-1.8-8.4
		c-1.2-1.8-2.9-2.7-5-2.7s-3.7,0.9-4.9,2.7c-1.2,1.8-1.8,4.6-1.8,8.4s0.6,6.6,1.8,8.4c1.2,1.8,2.8,2.7,4.9,2.7
		C367.4,76.9,369,76,370.2,74.2z"/>
</g>
<g class="st0">
	<path class="st1" d="M415.7,75.8h-5.6v7.3h-7.8v-7.3h-18.7v-5.4l16.3-22h8.4l-15.2,20.8h9.3v-6.5h7.6v6.5h5.6v6.6H415.7z"/>
</g>
<g class="st0">
	<path class="st1" d="M427.1,75.2c0.9,0.9,1.3,2,1.3,3.4c0,0.7-0.1,1.3-0.2,2c-0.2,0.7-0.5,1.7-1.1,3l-2.8,7.1h-4.9l2.2-7.9
		c-0.8-0.3-1.5-0.9-2-1.6s-0.7-1.6-0.7-2.6c0-1.4,0.5-2.6,1.4-3.4c0.9-0.9,2.1-1.3,3.4-1.3C425.1,73.9,426.2,74.3,427.1,75.2z"/>
</g>
<g class="st0">
	<path class="st1" d="M460.2,68.2c0.9,1.4,1.4,3,1.4,4.8c0,2.1-0.6,4-1.8,5.6c-1.2,1.6-2.9,2.8-5.1,3.7c-2.2,0.9-4.8,1.3-7.7,1.3
		c-2.9,0-5.5-0.4-7.6-1.3c-2.2-0.9-3.9-2.1-5.1-3.7s-1.8-3.5-1.8-5.6c0-1.8,0.5-3.4,1.4-4.8s2.2-2.5,3.9-3.4c-1.3-0.8-2.3-1.8-3-3
		s-1-2.6-1-4.1c0-2,0.6-3.8,1.7-5.2c1.1-1.5,2.7-2.6,4.7-3.4c2-0.8,4.3-1.2,6.9-1.2s5,0.4,7,1.2s3.6,2,4.7,3.4
		c1.1,1.5,1.7,3.2,1.7,5.2c0,1.6-0.3,2.9-1,4.1c-0.7,1.2-1.7,2.2-3,3C458,65.7,459.3,66.8,460.2,68.2z M451.7,76.4
		c1.2-0.9,1.8-2.1,1.8-3.6s-0.6-2.7-1.8-3.6c-1.2-0.9-2.8-1.3-4.8-1.3s-3.5,0.4-4.7,1.3s-1.7,2.1-1.7,3.6c0,1.6,0.6,2.8,1.7,3.7
		c1.2,0.9,2.7,1.3,4.7,1.3C448.9,77.8,450.5,77.3,451.7,76.4z M443,54.9c-1,0.8-1.5,1.8-1.5,3.2c0,1.3,0.5,2.4,1.4,3.1
		c1,0.8,2.3,1.1,3.9,1.1s3-0.4,4-1.1c1-0.8,1.5-1.8,1.5-3.1c0-1.4-0.5-2.4-1.5-3.2s-2.3-1.2-4-1.2C445.3,53.7,444,54.1,443,54.9z"/>
	<path class="st1" d="M472.4,81.5c-2.2-1.4-4-3.5-5.3-6.2s-1.9-5.9-1.9-9.6s0.6-6.9,1.9-9.6s3-4.7,5.3-6.2c2.2-1.4,4.8-2.1,7.7-2.1
		c2.9,0,5.4,0.7,7.7,2.1c2.2,1.4,4,3.5,5.3,6.2s1.9,5.9,1.9,9.6s-0.6,6.9-1.9,9.6s-3,4.7-5.3,6.2c-2.2,1.4-4.8,2.1-7.7,2.1
		C477.2,83.7,474.7,83,472.4,81.5z M485.1,74.2c1.2-1.8,1.8-4.6,1.8-8.4s-0.6-6.6-1.8-8.4c-1.2-1.8-2.9-2.7-5-2.7s-3.7,0.9-4.9,2.7
		c-1.2,1.8-1.8,4.6-1.8,8.4s0.6,6.6,1.8,8.4c1.2,1.8,2.8,2.7,4.9,2.7C482.2,76.9,483.9,76,485.1,74.2z"/>
	<path class="st1" d="M506,81.5c-2.2-1.4-4-3.5-5.3-6.2s-1.9-5.9-1.9-9.6s0.6-6.9,1.9-9.6c1.3-2.7,3-4.7,5.3-6.2
		c2.2-1.4,4.8-2.1,7.7-2.1s5.4,0.7,7.7,2.1c2.2,1.4,4,3.5,5.3,6.2s1.9,5.9,1.9,9.6s-0.6,6.9-1.9,9.6c-1.3,2.7-3,4.7-5.3,6.2
		c-2.2,1.4-4.8,2.1-7.7,2.1C510.8,83.7,508.3,83,506,81.5z M518.7,74.2c1.2-1.8,1.8-4.6,1.8-8.4s-0.6-6.6-1.8-8.4
		c-1.2-1.8-2.9-2.7-5-2.7c-2.1,0-3.7,0.9-4.9,2.7c-1.2,1.8-1.8,4.6-1.8,8.4s0.6,6.6,1.8,8.4c1.2,1.8,2.8,2.7,4.9,2.7
		C515.8,76.9,517.5,76,518.7,74.2z"/>
</g>
<rect x="47.6" y="38.3" transform="matrix(0.7071 -0.7071 0.7071 0.7071 -46.6281 125.6569)" class="st1" width="161.6" height="161.6"/>
<g class="st2">
	<path class="st3" d="M128.4,221.8L25.8,119.2L128.4,16.5L231,119.2L128.4,221.8z M28.9,119.2l99.5,99.5l99.5-99.5l-99.5-99.5
		L28.9,119.2z M128.4,208.8l-34.3-34.3l26.2-26.2l-25.4-25.4l-18,18l11.9,11.9l4.9-4.9l-7-7l8.2-8.1l15.5,15.5l-21.3,21.3l-30-30
		l20.5-20.5L59.3,98.7l30-30L110.5,90L95,105.5l-8.2-8.2l7-7l-4.9-4.9l-12,12l18,18L120.3,90L94.1,63.8l34.3-34.2l34.3,34.2
		L136.5,90l25.4,25.4l18-18L168,85.5l-5,4.9l7,7l-8.2,8.2L146.3,90l21.3-21.3l29.9,30L177,119.2l20.5,20.5l-29.9,29.9l-21.3-21.3
		l15.5-15.5l8.2,8.1l-7,7l4.9,4.9l11.9-11.9l-18-18l-25.4,25.4l26.2,26.2L128.4,208.8z M97.3,174.5l31.1,31.1l31.1-31.1l-26.2-26.2
		l28.6-28.6l21.2,21.2L168,156l-8.1-8.1l7-7l-5-5l-12.4,12.4l18.1,18.1l26.8-26.8l-20.5-20.5l20.5-20.5l-26.8-26.8L149.5,90
		l12.4,12.4l5-5l-7-7l8.1-8.1l15.1,15.1l-21.2,21.2L133.3,90l26.2-26.2l-31.1-31.1L97.3,63.8L123.5,90l-28.6,28.6L73.8,97.4
		l15.1-15.1l8.1,8.1l-7,7l5,5L107.3,90L89.2,71.9L62.4,98.7l20.5,20.5l-20.5,20.5l26.8,26.8l18.1-18.1L94.9,136l-5,5l7,7l-8.1,8.1
		L73.7,141l21.2-21.2l28.6,28.6L97.3,174.5z M202.5,134.7L187,119.2l15.5-15.5l15.5,15.5L202.5,134.7z M190.1,119.1l12.4,12.4
		l12.4-12.4l-12.4-12.4L190.1,119.1z M54.3,134.7l-15.5-15.5l15.5-15.5l15.5,15.5L54.3,134.7z M42,119.2l12.4,12.4l12.4-12.4
		l-12.4-12.4L42,119.2z"/>
	<path class="st3" d="M128.4,198.2l-24-24l24-24l24,24L128.4,198.2z M107.5,174.2l20.9,20.8l20.9-20.9l-20.9-20.9L107.5,174.2z"/>
	<path class="st3" d="M128.4,87.5l-24-24l24-24l24,24L128.4,87.5z M107.5,63.5l20.9,20.8l20.9-20.9l-20.9-20.9L107.5,63.5z"/>
</g>
<path class="st3" d="M178,126.4c-0.5-3.3-2.5-6.2-5.4-7.8c-0.4-0.3-0.4-0.5-0.2-0.8c0.8-2.1,0.5-4.5-0.9-6.3
	c-0.1-0.2-0.4-0.4-0.3-0.7c0.2-1.2,0.3-2.4,0.2-3.7c0.1-2.5-0.2-4.9-1-7.3c-0.3-1-1.1-1.5-1.9-1.2c-0.8,0.2-1.2,1-1,1.8
	c0,0.1,0,0.1,0.1,0.2c0.7,2.4,1,4.8,0.9,7.3c0,0.7-0.2,0.7-0.8,0.7c-2.8,0-5.6,0-8.4,0c-3.4,0-6.4-2.4-7.2-5.7
	c-0.2-0.7-0.3-1.5-0.3-2.2c-0.1-0.6-0.6-1.1-1.2-1.2c-0.6-0.1-1.3,0.2-1.5,0.8c-0.1,0.4-0.2,0.8-0.2,1.1c-0.3,3.8-3.4,6.9-7.2,7.1
	c-2.9,0.1-5.8,0-8.8,0c-0.5,0-0.6-0.2-0.6-0.7c0-0.8,0-1.6,0-2.4c0.2-8.6,7.1-15.6,15.7-16c0.6,0,0.9,0,1,0.7c0.2,0.6,0.7,1,1.3,0.9
	c0.6,0.1,1.2-0.3,1.3-0.9c0.1-0.8,0.6-0.7,1.1-0.7c4.4,0.2,8.5,2.1,11.4,5.4c0.8,0.8,1.6,0.9,2.3,0.3s0.6-1.4-0.1-2.2
	c-0.9-1-1.9-2-3-2.7c-3.9-2.6-8-4.4-12.9-3.3c-0.2,0-0.3,0-0.4-0.1c-0.5-0.2-1.1-0.3-1.6-0.3c-8.2,0.2-15.4,5.5-18,13.2
	c-0.9,3.2-1.2,6.6-0.9,9.9c0.1,1-0.3,2.1-1,2.9c-0.2-1.9-1.2-3.6-2.6-4.8c-0.3-0.2-0.2-0.6-0.2-0.9c0-1.8,0-3.6,0-5.4
	c-0.2-8.3-5.7-15.6-13.6-18.3c-3.5-1.2-7.1-1-10.8-0.8c-5.2,0.2-10.1,2.8-13.1,7.1c-0.2,0.4-0.6,0.5-0.9,0.3c0,0,0,0-0.1,0
	c-1.2-0.4-2.4-0.8-3.6-1.1c-0.7-0.3-1.6,0-1.9,0.8c-0.1,0.2-0.1,0.4-0.1,0.7c-0.3,5.4,0.1,10.7,1.2,16c0.2,0.4,0,0.9-0.4,1.1l0,0
	c-2.6,1.5-3.9,4.4-3.4,7.3c0.4,3.1,2.6,5.6,5.7,6.2c0.4,0,0.8,0.4,0.9,0.8c1.2,4.5,4,8.3,7.8,10.8c0.1,0.1,0.3,0.1,0.4,0.4
	c-0.9,0-1.8,0-2.6,0c-5-0.1-9.2,3.9-9.3,9c0,0.1,0,0.3,0,0.4c0,4.1,0,8.2,0,12.2c0,0.4,0.1,0.8,0.3,1.2c0.6,0.9,4.2,0.9,4.8,0
	c0.5-0.7,0.3-1.6-0.4-2c-0.3-0.2-0.6-0.3-1-0.2c-0.7,0-0.8-0.2-0.8-0.9c0-3.4,0-6.9,0-10.3c-0.1-3.1,2.2-5.8,5.2-6.3
	c1.6-0.1,3.2-0.2,4.8-0.1c0.4,0,0.4,0.3,0.5,0.6c1.3,4.2,4.4,6.7,8.5,6.7c4,0,7.5-2.7,8.4-6.7c0.1-0.4,0.3-0.6,0.7-0.6
	c1.1,0,2.2,0,3.3,0c3.4-0.2,6.3,2.4,6.6,5.8c0,0.3,0,0.5,0,0.8c0,3.3,0,6.6,0,9.9c0,0.8-0.2,1.1-1,1.1c-9.5,0-19,0-28.6,0
	c-0.4,0-0.7,0-1.1,0.1c-0.8,0.2-1.3,1-1.1,1.7c0.1,0.2,0.2,0.5,0.3,0.6c0.4,0.4,1,0.6,1.6,0.5h30.7c1.6,0,2-0.4,2-2
	c-0.2-5.2,0.4-10.4-0.4-15.7c2.1,0.2,4.3-0.1,6.3-0.8c-1.1,1.9-1.6,4-1.4,6.2c0,3.5,0,6.9,0,10.4c0,1.5,0.4,1.9,1.9,1.9h37
	c1.4,0,1.9-0.5,1.9-1.9c0-3.4,0-6.7,0-10.1c0.2-2.3-0.3-4.5-1.4-6.5c2.4,1,4.6,0.8,6.9,0.8c0.8,0.1,1.5-0.3,1.9-1v-11
	C178.2,126.5,178,126.4,178,126.4z M132.2,112.4c0.7-0.6,1.6-0.9,2.5-0.9c1.8,0,3.5-0.1,5.2,0c4.1,0.4,8.1-1.6,10.3-5.1
	c0.1,0.1,0.2,0.1,0.2,0.2c2.1,3.3,5.8,5.2,9.8,4.9c1.8-0.1,3.7,0,5.5,0c2.1-0.1,3.9,1.5,4,3.7c0.1,2.1-1.5,3.9-3.7,4
	c-1.4,0.1-1.6,0.3-2,1.8c-1.4,6-5.2,9.7-11.2,11c-7.4,1.5-14.7-3.2-16.5-10.6c0-0.2-0.1-0.4-0.1-0.6c-0.3-1.3-0.5-1.5-1.9-1.6
	c-1.6-0.1-3-1.2-3.6-2.7C130.5,115,131,113.4,132.2,112.4L132.2,112.4z M164.6,133.9c-2.2-0.6-4.2-0.3-6.3-0.6
	c1.6-1,3.1-2.1,4.4-3.5C163.1,131.3,163.8,132.7,164.6,133.9L164.6,133.9z M153,140.6c-1.6,1.1-3.7,1.1-5.3,0
	c-2.3-1.4-2.6-3.6-2.3-6.1c3.3,1,6.7,1,10,0C155.6,136.9,155.3,139.1,153,140.6z M142.4,133.4c-2.1,0.3-4.2-0.1-6.3,0.6
	c0.8-1.3,1.4-2.7,1.8-4.1C139.2,131.2,140.7,132.4,142.4,133.4L142.4,133.4z M106.3,139.2c-2.8,1.5-6.3,0.5-7.8-2.3
	c-0.3-0.5-0.5-1.1-0.6-1.7c-0.1-0.4,0-0.7,0.5-0.5c3.6,1,7.4,1,11-0.2C109.3,136.5,108.1,138.3,106.3,139.2L106.3,139.2z
	 M98.8,131.7c-6-1.9-9.6-6.1-11-12.2c-0.3-1.3-0.5-1.6-1.9-1.6c-2.4-0.1-4.4-2.1-4.4-4.5s2-4.3,4.4-4.4c1.3-0.1,1.6-0.4,1.9-1.7
	c0.4-2.1,1.2-4,2.4-5.8c1.6,3.5,4.7,6,8.4,7c1.3,0.3,2.6,0.5,3.9,0.4c6.2,0,12.4,0,18.5,0c2.5,0,4.5,2,4.5,4.4c0,1.9-1.2,3.6-3,4.2
	c-0.5,0.2-0.9,0.3-1.4,0.3c-1.3,0.1-1.6,0.4-1.9,1.6c-0.6,3.2-2.1,6.1-4.5,8.3C110.2,132.2,104.8,133.6,98.8,131.7L98.8,131.7z
	 M122.5,127.7c-0.1,2.4,0,4.7,0,7.3c-1.3-1-2.7-1.7-4.3-2.1c-1.6-0.2-3.1-0.3-4.7-0.2c0.1-0.3,0.4-0.4,0.6-0.6
	c3.7-2.5,6.4-6.3,7.6-10.7c0.1-0.5,0.5-0.8,0.9-0.9c2.3-0.5,4.2-2.1,5.1-4.2c1,1.4,0.3,2.1-0.9,3
	C124.2,121.3,122.5,124.4,122.5,127.7L122.5,127.7z M127.3,135.5c-1.9,0.1-1.9,0.1-1.9-1.7v-3.1c-0.1-1.5,0-3,0.2-4.5
	c0.5-2.2,2-4.1,4-5.2c0.4-0.3,1-0.3,1.4,0s0.9,0.6,1.4,0.7c1.1,0.2,1.5,0.9,1.8,1.8c0.6,1.7,1.3,3.3,0.9,5.2
	C134.5,132.6,131.2,135.4,127.3,135.5L127.3,135.5z M167.1,153.1h-16.8c-5.5,0-11,0-16.5,0c-0.7,0-0.9-0.1-0.9-0.9
	c0-3.2,0-6.4,0-9.6c-0.1-3.3,2.4-6.1,5.7-6.2c0.2,0,0.3,0,0.5,0h0.3c0.9-0.1,1.8-0.1,2.7,0.1c0.8,0.4,0.5,1.6,0.8,2.4
	c1.2,3.5,4.6,5.7,8.3,5.4c3.6-0.3,6.5-3,7-6.6c0.1-1,0.4-1.4,1.5-1.2s2.4-0.1,3.6,0.2c2.7,0.5,4.6,2.8,4.7,5.6
	c0.1,3.5,0,6.9,0.1,10.4C167.9,153.3,167.5,153.1,167.1,153.1L167.1,153.1z M174.9,135.5c-4.2,0.4-7.6-1.6-8.9-5.4
	c-0.6-1.7-0.6-3.6,0.1-5.3c0.4-1.6,1.6-3,3.2-3.6c0.8-0.4,1.8-0.4,2.6,0.2c2.1,1.5,3.4,3.9,3.4,6.5c0,1.1,0,2.1,0,3.2
	c0,1.2,0,2.5,0,3.7C175.2,135.1,175.4,135.4,174.9,135.5L174.9,135.5z"/>
<path class="st3" d="M107.4,120.3c-0.8-0.1-1.4,0.5-1.6,1.4c-0.2,1.4-1,2.2-2.2,2.2s-2-0.7-2.3-2.2c-0.2-1-0.8-1.5-1.6-1.4
	c-0.8,0.1-1.4,0.9-1.3,1.7c0,0,0,0,0,0.1c0.2,2.9,2.7,5,5.6,4.8c2.6-0.2,4.6-2.2,4.8-4.8C108.8,121.3,108.3,120.5,107.4,120.3
	L107.4,120.3z"/>
<path class="st3" d="M113.5,114.7c0-0.5,0-1.1,0-1.7c0-0.8-0.6-1.4-1.4-1.4c0,0,0,0-0.1,0c-0.8,0-1.4,0.6-1.4,1.3v0.1
	c0,1.1,0,2.1,0,3.2c0,0.8,0.5,1.4,1.3,1.5c0,0,0,0,0.1,0c0.8,0,1.5-0.5,1.5-1.3v-0.1C113.5,115.8,113.5,115.2,113.5,114.7
	L113.5,114.7z"/>
<path class="st3" d="M94.8,111.7c-0.7,0-1.2,0.6-1.2,1.2s0,1.2,0,1.8l0,0c0,0.6,0,1.2,0,1.8c0,0.7,0.6,1.3,1.3,1.3l0,0
	c0.7,0.1,1.3-0.3,1.5-1v-0.1c0.2-1.3,0.2-2.7,0-4C96.3,112,95.6,111.5,94.8,111.7C94.9,111.7,94.9,111.7,94.8,111.7z"/>
<path class="st3" d="M150.4,127.7c2.5,0,4.6-2,4.7-4.5c0-1-0.4-1.7-1.3-1.8s-1.4,0.4-1.6,1.4c-0.2,1.2-0.9,1.9-1.8,1.9
	s-1.7-0.7-1.9-1.9c0-0.8-0.7-1.4-1.5-1.4c-0.1,0-0.1,0-0.2,0c-0.8,0.1-1.4,0.9-1.2,1.7C145.7,125.7,147.8,127.6,150.4,127.7z"/>
<path class="st3" d="M140.8,116.3c0.3,0.1,0.5,0.4,0.4,0.7c0,0.3,0,0.6,0,0.9c-0.1,0.8,0.6,1.6,1.4,1.6l0,0c0.8,0,1.5-0.7,1.5-1.5
	v-0.1c0-0.5,0-0.9,0-1.4s0-0.8,0-1.2c0-1.1-0.5-1.7-1.6-1.7h-1c-0.7-0.1-1.4,0.4-1.5,1.1C139.8,115.4,140.1,116.1,140.8,116.3z"/>
<path class="st3" d="M156.5,116.6L156.5,116.6c0,0.5,0,1,0,1.4c0,0.8,0.6,1.4,1.4,1.5c0.7,0,1.4-0.5,1.4-1.3c0-0.3,0-0.5,0-0.8
	c0-0.5,0-1,0.6-1.2c0.6-0.3,0.8-0.9,0.6-1.5c-0.1-0.6-0.6-1-1.2-1.1c-1.9-0.1-3.1-0.3-2.9,2.4C156.6,116.2,156.5,116.4,156.5,116.6z
	"/>
<polygon class="st4" points="14.7,119.2 128.5,232.9 530.2,232.9 644,119.2 530.2,5.3 128.5,5.3 "/>
</svg>
