<?xml version="1.0" encoding="utf-8"?>
<!-- Generator: Adobe Illustrator 24.1.0, SVG Export Plug-In . SVG Version: 6.00 Build 0)  -->
<svg version="1.1" id="Layer_1" xmlns="http://www.w3.org/2000/svg" xmlns:xlink="http://www.w3.org/1999/xlink" x="0px" y="0px"
	 viewBox="0 0 658.1 238.3" style="enable-background:new 0 0 658.1 238.3;" xml:space="preserve">
<style type="text/css">
	.st0{fill:#E2243E;stroke:#E2243E;stroke-width:2.61;stroke-miterlimit:10;}
	.st1{enable-background:new    ;}
	.st2{fill:#FFFFFF;}
	.st3{fill:#E2243C;}
	.st4{opacity:0.15;}
</style>
<polygon class="st0" points="14.7,119.2 128.5,232.9 530.2,232.9 644,119.2 530.2,5.3 128.5,5.3 "/>
<g class="st1">
	<path class="st2" d="M343.3,83.2c0.8,0.4,1.5,0.9,1.9,1.6s0.7,1.5,0.7,2.5c0,0.9-0.2,1.8-0.7,2.5s-1.1,1.2-1.9,1.6
		s-1.8,0.6-2.9,0.6h-2.6v3.5h-3V82.7h5.5C341.5,82.7,342.5,82.9,343.3,83.2z M342.3,88.9c0.5-0.4,0.7-0.9,0.7-1.6s-0.2-1.3-0.7-1.7
		c-0.5-0.4-1.1-0.6-2-0.6h-2.4v4.4h2.4C341.1,89.5,341.8,89.3,342.3,88.9z"/>
</g>
<g class="st1">
	<path class="st2" d="M357.9,93.1v2.4H348V82.7h9.6V85H351v2.8h5.9v2.3H351v3C351,93.1,357.9,93.1,357.9,93.1z"/>
</g>
<g class="st1">
	<path class="st2" d="M362.8,94.8c-1.1-0.6-1.9-1.4-2.5-2.4s-0.9-2.1-0.9-3.4s0.3-2.4,0.9-3.4s1.4-1.8,2.5-2.4s2.3-0.9,3.6-0.9
		s2.5,0.3,3.6,0.9s1.9,1.4,2.5,2.4s0.9,2.1,0.9,3.4s-0.3,2.4-0.9,3.4s-1.4,1.8-2.5,2.4s-2.2,0.9-3.6,0.9S363.9,95.4,362.8,94.8z
		 M368.5,92.6c0.6-0.3,1.1-0.8,1.4-1.5s0.5-1.3,0.5-2.1s-0.2-1.5-0.5-2.1s-0.8-1.1-1.4-1.5s-1.3-0.5-2-0.5s-1.4,0.2-2,0.5
		s-1.1,0.8-1.4,1.5s-0.5,1.3-0.5,2.1s0.2,1.5,0.5,2.1s0.8,1.1,1.4,1.5c0.6,0.3,1.3,0.5,2,0.5S367.9,93,368.5,92.6z"/>
</g>
<g class="st1">
	<path class="st2" d="M384.1,83.2c0.8,0.4,1.5,0.9,1.9,1.6c0.5,0.7,0.7,1.5,0.7,2.5c0,0.9-0.2,1.8-0.7,2.5c-0.4,0.7-1.1,1.2-1.9,1.6
		s-1.8,0.6-2.9,0.6h-2.6v3.5h-3V82.7h5.5C382.3,82.7,383.3,82.9,384.1,83.2z M383,88.9c0.5-0.4,0.7-0.9,0.7-1.6s-0.2-1.3-0.7-1.7
		c-0.5-0.4-1.1-0.6-2-0.6h-2.4v4.4h2.4C381.9,89.5,382.6,89.3,383,88.9z"/>
</g>
<g class="st1">
	<path class="st2" d="M388.8,82.7h3V93h6.4v2.4h-9.4V82.7z"/>
	<path class="st2" d="M409.7,93.1v2.4h-9.9V82.7h9.6V85h-6.7v2.8h5.9v2.3h-5.9v3C402.7,93.1,409.7,93.1,409.7,93.1z"/>
	<path class="st2" d="M420.2,85v3.4h5.9v2.4h-5.9v4.7h-3V82.7h9.6V85H420.2z"/>
	<path class="st2" d="M437,95.4l-2.5-3.6h-0.1h-2.6v3.6h-3V82.7h5.5c1.1,0,2.1,0.2,2.9,0.6s1.5,0.9,1.9,1.6s0.7,1.5,0.7,2.5
		c0,0.9-0.2,1.8-0.7,2.5s-1.1,1.2-1.9,1.6l2.9,4.1H437V95.4z M436.3,85.7c-0.5-0.4-1.1-0.6-2-0.6h-2.4v4.5h2.4c0.9,0,1.6-0.2,2-0.6
		c0.5-0.4,0.7-0.9,0.7-1.6C437,86.6,436.7,86,436.3,85.7z"/>
	<path class="st2" d="M444.9,94.8c-1.1-0.6-1.9-1.4-2.5-2.4s-0.9-2.1-0.9-3.4s0.3-2.4,0.9-3.4s1.4-1.8,2.5-2.4s2.3-0.9,3.6-0.9
		s2.5,0.3,3.6,0.9s1.9,1.4,2.5,2.4s0.9,2.1,0.9,3.4s-0.3,2.4-0.9,3.4s-1.4,1.8-2.5,2.4s-2.2,0.9-3.6,0.9S445.9,95.4,444.9,94.8z
		 M450.5,92.6c0.6-0.3,1.1-0.8,1.4-1.5s0.5-1.3,0.5-2.1s-0.2-1.5-0.5-2.1s-0.8-1.1-1.4-1.5s-1.3-0.5-2-0.5s-1.4,0.2-2,0.5
		s-1.1,0.8-1.4,1.5s-0.5,1.3-0.5,2.1s0.2,1.5,0.5,2.1s0.8,1.1,1.4,1.5s1.3,0.5,2,0.5S449.9,93,450.5,92.6z"/>
	<path class="st2" d="M469.3,95.4v-7.7l-3.8,6.3h-1.3l-3.7-6.1v7.5h-2.8V82.7h2.4l4.8,7.9l4.7-7.9h2.4v12.8L469.3,95.4L469.3,95.4z"
		/>
</g>
<g class="st1">
	<path class="st2" d="M318.2,112.3l-1.7,1.8v3.2h-2.9v-12.8h2.9v6l5.7-6h3.3l-5.3,5.7l5.6,7.1h-3.4L318.2,112.3z"/>
</g>
<g class="st1">
	<path class="st2" d="M337,115v2.4h-9.9v-12.8h9.6v2.4H330v2.8h5.9v2.3H330v3h7V115z"/>
</g>
<g class="st1">
	<path class="st2" d="M345.3,112.8v4.5h-3v-4.6l-4.9-8.2h3.1l3.4,5.7l3.4-5.7h2.9L345.3,112.8z"/>
	<path class="st2" d="M365.1,105.1c0.8,0.4,1.5,0.9,1.9,1.6s0.7,1.5,0.7,2.5c0,0.9-0.2,1.8-0.7,2.5s-1.1,1.2-1.9,1.6
		s-1.8,0.6-2.9,0.6h-2.6v3.5h-3v-12.8h5.5C363.3,104.6,364.3,104.8,365.1,105.1z M364.1,110.8c0.5-0.4,0.7-0.9,0.7-1.6
		s-0.2-1.3-0.7-1.7c-0.5-0.4-1.1-0.6-2-0.6h-2.4v4.4h2.4C362.9,111.4,363.6,111.2,364.1,110.8z"/>
	<path class="st2" d="M372.6,116.7c-1.1-0.6-1.9-1.4-2.5-2.4s-0.9-2.1-0.9-3.4s0.3-2.4,0.9-3.4s1.4-1.8,2.5-2.4s2.3-0.9,3.6-0.9
		s2.5,0.3,3.6,0.9s1.9,1.4,2.5,2.4s0.9,2.1,0.9,3.4s-0.3,2.4-0.9,3.4s-1.4,1.8-2.5,2.4s-2.2,0.9-3.6,0.9S373.7,117.3,372.6,116.7z
		 M378.2,114.5c0.6-0.3,1.1-0.8,1.4-1.5s0.5-1.3,0.5-2.1s-0.2-1.5-0.5-2.1s-0.8-1.1-1.4-1.5s-1.3-0.5-2-0.5s-1.4,0.2-2,0.5
		s-1.1,0.8-1.4,1.5s-0.5,1.3-0.5,2.1s0.2,1.5,0.5,2.1s0.8,1.1,1.4,1.5c0.6,0.3,1.3,0.5,2,0.5S377.6,114.9,378.2,114.5z"/>
</g>
<g class="st1">
	<path class="st2" d="M393.9,105.1c0.8,0.4,1.5,0.9,1.9,1.6c0.5,0.7,0.7,1.5,0.7,2.5c0,0.9-0.2,1.8-0.7,2.5
		c-0.4,0.7-1.1,1.2-1.9,1.6s-1.8,0.6-2.9,0.6h-2.6v3.5h-3v-12.8h5.5C392.1,104.6,393.1,104.8,393.9,105.1z M392.8,110.8
		c0.5-0.4,0.7-0.9,0.7-1.6s-0.2-1.3-0.7-1.7c-0.5-0.4-1.1-0.6-2-0.6h-2.4v4.4h2.4C391.7,111.4,392.3,111.2,392.8,110.8z"/>
</g>
<g class="st1">
	<path class="st2" d="M399.9,116c-1-1-1.5-2.5-1.5-4.3v-7.1h3v7c0,2.3,0.9,3.4,2.8,3.4c0.9,0,1.6-0.3,2.1-0.8
		c0.5-0.6,0.7-1.4,0.7-2.6v-7h2.9v7.1c0,1.9-0.5,3.3-1.5,4.3s-2.4,1.5-4.3,1.5S401,117,399.9,116z"/>
</g>
<g class="st1">
	<path class="st2" d="M412.9,104.6h3V115h6.4v2.4h-9.4V104.6z"/>
</g>
<g class="st1">
	<path class="st2" d="M432.4,114.6h-5.9l-1.1,2.7h-3l5.7-12.8h2.9l5.7,12.8h-3.1L432.4,114.6z M431.5,112.4l-2-4.9l-2,4.9H431.5z"/>
</g>
<g class="st1">
	<path class="st2" d="M440,107h-4.1v-2.4H447v2.4h-4v10.4h-3V107z"/>
	<path class="st2" d="M448.6,104.6h3v12.8h-3V104.6z"/>
	<path class="st2" d="M457.2,116.7c-1.1-0.6-1.9-1.4-2.5-2.4s-0.9-2.1-0.9-3.4s0.3-2.4,0.9-3.4s1.4-1.8,2.5-2.4s2.3-0.9,3.6-0.9
		s2.5,0.3,3.6,0.9s1.9,1.4,2.5,2.4s0.9,2.1,0.9,3.4s-0.3,2.4-0.9,3.4s-1.4,1.8-2.5,2.4s-2.2,0.9-3.6,0.9S458.3,117.3,457.2,116.7z
		 M462.8,114.5c0.6-0.3,1.1-0.8,1.4-1.5s0.5-1.3,0.5-2.1s-0.2-1.5-0.5-2.1s-0.8-1.1-1.4-1.5s-1.3-0.5-2-0.5s-1.4,0.2-2,0.5
		s-1.1,0.8-1.4,1.5s-0.5,1.3-0.5,2.1s0.2,1.5,0.5,2.1s0.8,1.1,1.4,1.5c0.6,0.3,1.3,0.5,2,0.5S462.2,114.9,462.8,114.5z"/>
	<path class="st2" d="M481.7,104.6v12.8h-2.4l-6.4-7.8v7.8H470v-12.8h2.4l6.3,7.8v-7.8H481.7z"/>
	<path class="st2" d="M486,117.1c-0.9-0.3-1.7-0.6-2.3-1.1l1-2.2c0.5,0.4,1.2,0.7,2,1c0.8,0.2,1.5,0.4,2.3,0.4s1.5-0.1,1.9-0.4
		s0.6-0.6,0.6-1c0-0.3-0.1-0.6-0.4-0.8c-0.2-0.2-0.5-0.4-0.9-0.5s-0.9-0.3-1.5-0.4c-1-0.2-1.8-0.5-2.4-0.7s-1.2-0.6-1.6-1.1
		s-0.7-1.2-0.7-2c0-0.7,0.2-1.4,0.6-2s1-1.1,1.8-1.4s1.8-0.5,3-0.5c0.8,0,1.6,0.1,2.4,0.3c0.8,0.2,1.5,0.5,2,0.8l-0.9,2.2
		c-1.2-0.7-2.4-1-3.5-1c-0.8,0-1.4,0.1-1.8,0.4s-0.6,0.6-0.6,1.1c0,0.4,0.2,0.8,0.7,1s1.2,0.4,2.1,0.6c1,0.2,1.8,0.5,2.4,0.7
		s1.2,0.6,1.6,1.1s0.7,1.2,0.7,2c0,0.7-0.2,1.4-0.6,2s-1,1.1-1.8,1.4s-1.8,0.5-3,0.5C487.9,117.5,487,117.4,486,117.1z"/>
</g>
<g class="st1">
	<path class="st2" d="M360.1,30.8v34.7h-8V37.2h-6.9v-6.4C345.2,30.8,360.1,30.8,360.1,30.8z"/>
</g>
<g class="st1">
	<path class="st2" d="M374.2,57.5c0.9,0.9,1.3,2,1.3,3.4c0,0.7-0.1,1.3-0.2,2c-0.2,0.7-0.5,1.7-1.1,3l-2.8,7.1h-4.9l2.2-7.9
		c-0.8-0.3-1.5-0.9-2-1.6c-0.5-0.7-0.7-1.6-0.7-2.6c0-1.4,0.5-2.6,1.4-3.4s2.1-1.3,3.4-1.3C372.2,56.2,373.3,56.6,374.2,57.5z"/>
</g>
<g class="st1">
	<path class="st2" d="M391.7,30.8v34.7h-8V37.2h-6.9v-6.4C376.8,30.8,391.7,30.8,391.7,30.8z"/>
	<path class="st2" d="M425.4,50.6c0.9,1.4,1.4,3,1.4,4.8c0,2.1-0.6,4-1.8,5.6c-1.2,1.6-2.9,2.8-5.1,3.7s-4.8,1.3-7.7,1.3
		c-2.9,0-5.5-0.4-7.6-1.3c-2.2-0.9-3.9-2.1-5.1-3.7s-1.8-3.5-1.8-5.6c0-1.8,0.5-3.4,1.4-4.8c0.9-1.4,2.2-2.5,3.9-3.4
		c-1.3-0.8-2.3-1.8-3-3s-1-2.6-1-4.1c0-2,0.6-3.8,1.7-5.2c1.1-1.5,2.7-2.6,4.7-3.4c2-0.8,4.3-1.2,6.9-1.2s5,0.4,7,1.2s3.6,2,4.7,3.4
		c1.1,1.5,1.7,3.2,1.7,5.2c0,1.6-0.3,2.9-1,4.1c-0.7,1.2-1.7,2.2-3,3C423.2,48.1,424.5,49.2,425.4,50.6z M416.9,58.8
		c1.2-0.9,1.8-2.1,1.8-3.6s-0.6-2.7-1.8-3.6c-1.2-0.9-2.8-1.3-4.8-1.3s-3.5,0.4-4.7,1.3c-1.2,0.9-1.7,2.1-1.7,3.6
		c0,1.6,0.6,2.8,1.7,3.7c1.2,0.9,2.7,1.3,4.7,1.3C414.1,60.1,415.7,59.7,416.9,58.8z M408.2,37.2c-1,0.8-1.5,1.8-1.5,3.2
		c0,1.3,0.5,2.4,1.4,3.1c1,0.8,2.3,1.1,3.9,1.1s3-0.4,4-1.1c1-0.8,1.5-1.8,1.5-3.1c0-1.4-0.5-2.4-1.5-3.2s-2.3-1.2-4-1.2
		C410.5,36.1,409.2,36.4,408.2,37.2z"/>
	<path class="st2" d="M437.6,63.9c-2.2-1.4-4-3.5-5.3-6.2s-1.9-5.9-1.9-9.6s0.6-6.9,1.9-9.6c1.3-2.7,3-4.7,5.3-6.2
		c2.2-1.4,4.8-2.1,7.7-2.1c2.9,0,5.4,0.7,7.7,2.1c2.2,1.4,4,3.5,5.3,6.2s1.9,5.9,1.9,9.6s-0.6,6.9-1.9,9.6c-1.3,2.7-3,4.7-5.3,6.2
		c-2.2,1.4-4.8,2.1-7.7,2.1S439.8,65.3,437.6,63.9z M450.3,56.5c1.2-1.8,1.8-4.6,1.8-8.4s-0.6-6.6-1.8-8.4c-1.2-1.8-2.9-2.7-5-2.7
		s-3.7,0.9-4.9,2.7c-1.2,1.8-1.8,4.6-1.8,8.4s0.6,6.6,1.8,8.4c1.2,1.8,2.8,2.7,4.9,2.7S449,58.3,450.3,56.5z"/>
</g>
<g class="st1">
	<path class="st2" d="M314.8,142.3l0.1,0.6h0l0.1-0.6l1.9-5.8h1.5l-3,8.3h-1.1l-3.1-8.3h1.5L314.8,142.3z"/>
	<path class="st2" d="M325.1,143.5c-0.3,0.4-0.6,0.8-1,1c-0.4,0.2-0.9,0.4-1.4,0.4c-0.9,0-1.6-0.3-2.1-0.9s-0.8-1.5-0.8-2.7v-4.9
		h1.5v4.9c0,0.9,0.1,1.5,0.4,1.8c0.3,0.3,0.7,0.5,1.2,0.5c0.5,0,1-0.1,1.3-0.3c0.3-0.2,0.6-0.5,0.8-0.9v-6h1.5v8.3h-1.4L325.1,143.5
		z"/>
	<path class="st2" d="M330.4,144.7h-1.5v-11.9h1.5V144.7z"/>
	<path class="st2" d="M334,136.4l0.1,1.2c0.3-0.4,0.6-0.8,1-1c0.4-0.2,0.9-0.4,1.4-0.4c0.9,0,1.6,0.3,2.1,0.8
		c0.5,0.5,0.7,1.3,0.7,2.4v5.2h-1.5v-5.2c0-0.7-0.1-1.2-0.4-1.5c-0.3-0.3-0.7-0.5-1.3-0.5c-0.5,0-0.9,0.1-1.2,0.3
		c-0.3,0.2-0.6,0.4-0.8,0.8v6.1h-1.5v-8.3H334z"/>
	<path class="st2" d="M345,144.9c-1.2,0-2.1-0.4-2.8-1.1c-0.7-0.8-1-1.8-1-3v-0.3c0-1.2,0.3-2.2,1-2.9c0.7-0.8,1.5-1.2,2.5-1.2
		c1.1,0,1.9,0.3,2.5,1s0.8,1.6,0.8,2.7v0.8h-5.3l0,0c0,0.8,0.2,1.5,0.5,2c0.4,0.5,0.9,0.8,1.7,0.8c0.5,0,1-0.1,1.3-0.2
		c0.4-0.1,0.7-0.3,1-0.6l0.6,1c-0.3,0.3-0.7,0.5-1.2,0.7C346.3,144.8,345.7,144.9,345,144.9z M344.8,137.5c-0.5,0-1,0.2-1.3,0.6
		c-0.3,0.4-0.6,0.9-0.6,1.6l0,0h3.7v-0.1c0-0.6-0.1-1.1-0.4-1.5S345.4,137.5,344.8,137.5z"/>
	<path class="st2" d="M353.7,137.8l-0.8,0c-0.4,0-0.7,0.1-1,0.3c-0.3,0.2-0.5,0.5-0.6,0.8v5.9h-1.5v-8.3h1.3l0.1,1.2
		c0.2-0.4,0.5-0.8,0.9-1c0.3-0.2,0.7-0.4,1.2-0.4c0.1,0,0.2,0,0.3,0c0.1,0,0.2,0,0.3,0.1L353.7,137.8z"/>
	<path class="st2" d="M360.3,144.7c-0.1-0.2-0.1-0.5-0.1-0.7s0-0.4,0-0.6c-0.3,0.4-0.6,0.7-1.1,1c-0.5,0.3-0.9,0.4-1.5,0.4
		c-0.9,0-1.5-0.2-2-0.7c-0.5-0.4-0.7-1-0.7-1.8c0-0.8,0.3-1.4,1-1.9s1.5-0.7,2.6-0.7h1.6V139c0-0.5-0.1-0.9-0.4-1.1
		s-0.7-0.4-1.3-0.4c-0.5,0-0.9,0.1-1.2,0.4s-0.5,0.5-0.5,0.9l-1.4,0l0,0c0-0.6,0.2-1.2,0.8-1.6c0.6-0.5,1.4-0.7,2.3-0.7
		c0.9,0,1.7,0.2,2.3,0.7c0.6,0.5,0.9,1.2,0.9,2.1v4c0,0.3,0,0.6,0,0.9c0,0.3,0.1,0.5,0.2,0.8H360.3z M357.8,143.6
		c0.5,0,1-0.1,1.5-0.4c0.4-0.3,0.7-0.6,0.9-1v-1.3h-1.7c-0.6,0-1.1,0.2-1.5,0.5c-0.4,0.3-0.5,0.7-0.5,1.1c0,0.4,0.1,0.7,0.3,0.9
		C357,143.5,357.4,143.6,357.8,143.6z"/>
	<path class="st2" d="M370.9,140.9c0,1.2-0.3,2.2-0.9,2.9c-0.6,0.7-1.4,1.1-2.4,1.1c-0.5,0-1-0.1-1.4-0.3c-0.4-0.2-0.7-0.5-1-1
		l-0.2,1.1h-1.2v-11.9h1.5v4.6c0.3-0.4,0.6-0.6,1-0.8s0.8-0.3,1.3-0.3c1,0,1.8,0.4,2.4,1.2c0.6,0.8,0.9,1.9,0.9,3.2V140.9z
		 M369.4,140.7c0-0.9-0.2-1.7-0.5-2.3c-0.3-0.6-0.9-0.9-1.6-0.9c-0.5,0-0.9,0.1-1.2,0.3c-0.3,0.2-0.6,0.5-0.8,0.9v3.6
		c0.2,0.4,0.4,0.7,0.8,1s0.7,0.3,1.2,0.3c0.7,0,1.2-0.3,1.6-0.8s0.5-1.2,0.5-2V140.7z"/>
	<path class="st2" d="M374.3,144.7h-1.5v-11.9h1.5V144.7z"/>
	<path class="st2" d="M380.1,144.9c-1.2,0-2.1-0.4-2.8-1.1c-0.7-0.8-1-1.8-1-3v-0.3c0-1.2,0.3-2.2,1-2.9c0.7-0.8,1.5-1.2,2.5-1.2
		c1.1,0,1.9,0.3,2.5,1c0.6,0.7,0.8,1.6,0.8,2.7v0.8h-5.3l0,0c0,0.8,0.2,1.5,0.5,2c0.4,0.5,0.9,0.8,1.7,0.8c0.5,0,1-0.1,1.3-0.2
		c0.4-0.1,0.7-0.3,1-0.6l0.6,1c-0.3,0.3-0.7,0.5-1.2,0.7C381.3,144.8,380.7,144.9,380.1,144.9z M379.8,137.5c-0.5,0-1,0.2-1.3,0.6
		c-0.3,0.4-0.6,0.9-0.6,1.6l0,0h3.7v-0.1c0-0.6-0.1-1.1-0.4-1.5C380.9,137.7,380.4,137.5,379.8,137.5z"/>
	<path class="st2" d="M390.8,134.4v2h1.6v1.1h-1.6v5c0,0.4,0.1,0.7,0.2,0.8c0.2,0.2,0.4,0.2,0.6,0.2c0.1,0,0.2,0,0.3,0
		c0.1,0,0.2,0,0.3-0.1l0.2,1c-0.1,0.1-0.3,0.2-0.5,0.2s-0.4,0.1-0.6,0.1c-0.6,0-1.1-0.2-1.5-0.6c-0.4-0.4-0.5-0.9-0.5-1.7v-5H388
		v-1.1h1.3v-2H390.8z"/>
	<path class="st2" d="M393.6,140.5c0-1.2,0.3-2.2,1-3s1.6-1.2,2.7-1.2c1.1,0,2,0.4,2.7,1.2c0.7,0.8,1,1.8,1,3v0.2c0,1.2-0.3,2.2-1,3
		c-0.7,0.8-1.6,1.2-2.7,1.2c-1.1,0-2-0.4-2.7-1.2s-1-1.8-1-3V140.5z M395.1,140.7c0,0.9,0.2,1.6,0.6,2.2c0.4,0.6,0.9,0.9,1.6,0.9
		c0.7,0,1.3-0.3,1.6-0.9c0.4-0.6,0.6-1.3,0.6-2.2v-0.2c0-0.9-0.2-1.6-0.6-2.2c-0.4-0.6-0.9-0.9-1.6-0.9c-0.7,0-1.3,0.3-1.6,0.9
		c-0.4,0.6-0.6,1.3-0.6,2.2V140.7z"/>
	<path class="st2" d="M415.4,144.7h-1.5v-4.9h-5.4v4.9H407v-11.1h1.5v5h5.4v-5h1.5V144.7z"/>
	<path class="st2" d="M419.6,144.7h-1.5v-11.1h1.5V144.7z"/>
	<path class="st2" d="M425.7,141.8l0.3,0.9h0l0.3-0.9l2.9-8.2h1.6l-4.1,11.1h-1.3l-4.1-11.1h1.6L425.7,141.8z"/>
	<path class="st2" d="M437.6,134.3h-1.5v-1.5h1.5V134.3z M437.6,144.7h-1.5v-8.3h1.5V144.7z"/>
	<path class="st2" d="M441.2,136.4l0.1,1.2c0.3-0.4,0.6-0.8,1-1c0.4-0.2,0.9-0.4,1.4-0.4c0.9,0,1.6,0.3,2.1,0.8
		c0.5,0.5,0.7,1.3,0.7,2.4v5.2h-1.5v-5.2c0-0.7-0.1-1.2-0.4-1.5c-0.3-0.3-0.7-0.5-1.3-0.5c-0.5,0-0.9,0.1-1.2,0.3
		c-0.3,0.2-0.6,0.4-0.8,0.8v6.1h-1.5v-8.3H441.2z"/>
</g>
<g class="st1">
	<path class="st2" d="M449.4,144.7v-7.1h-1.3v-1.1h1.3v-1c0-0.9,0.2-1.6,0.7-2c0.5-0.5,1.1-0.7,1.9-0.7c0.2,0,0.3,0,0.5,0
		c0.2,0,0.4,0.1,0.6,0.1l-0.2,1.1c-0.1,0-0.2,0-0.3-0.1c-0.1,0-0.3,0-0.4,0c-0.4,0-0.8,0.1-1,0.4c-0.2,0.3-0.3,0.6-0.3,1.1v1h1.5
		v1.1h-1.5v7.1H449.4z"/>
</g>
<g class="st1">
	<path class="st2" d="M457.2,144.9c-1.2,0-2.1-0.4-2.8-1.1c-0.7-0.8-1-1.8-1-3v-0.3c0-1.2,0.3-2.2,1-2.9c0.7-0.8,1.5-1.2,2.5-1.2
		c1.1,0,1.9,0.3,2.5,1s0.8,1.6,0.8,2.7v0.8H455l0,0c0,0.8,0.2,1.5,0.5,2c0.4,0.5,0.9,0.8,1.7,0.8c0.5,0,1-0.1,1.3-0.2
		c0.4-0.1,0.7-0.3,1-0.6l0.6,1c-0.3,0.3-0.7,0.5-1.2,0.7C458.4,144.8,457.9,144.9,457.2,144.9z M456.9,137.5c-0.5,0-1,0.2-1.3,0.6
		c-0.3,0.4-0.6,0.9-0.6,1.6l0,0h3.7v-0.1c0-0.6-0.1-1.1-0.4-1.5S457.5,137.5,456.9,137.5z"/>
	<path class="st2" d="M465.2,143.7c0.5,0,0.9-0.2,1.2-0.5c0.3-0.3,0.5-0.7,0.5-1.1h1.4l0,0c0,0.7-0.3,1.3-0.9,1.9
		c-0.6,0.6-1.4,0.8-2.2,0.8c-1.2,0-2.1-0.4-2.7-1.2c-0.6-0.8-0.9-1.8-0.9-2.9v-0.3c0-1.2,0.3-2.1,1-2.9c0.6-0.8,1.5-1.2,2.7-1.2
		c0.9,0,1.7,0.3,2.3,0.9c0.6,0.6,0.9,1.3,0.9,2.1l0,0h-1.4c0-0.5-0.2-0.9-0.5-1.3c-0.3-0.4-0.7-0.5-1.2-0.5c-0.7,0-1.3,0.3-1.6,0.9
		c-0.3,0.6-0.5,1.3-0.5,2.1v0.3c0,0.8,0.2,1.5,0.5,2.1C463.9,143.4,464.5,143.7,465.2,143.7z"/>
	<path class="st2" d="M472.2,134.4v2h1.6v1.1h-1.6v5c0,0.4,0.1,0.7,0.2,0.8c0.2,0.2,0.4,0.2,0.6,0.2c0.1,0,0.2,0,0.3,0
		c0.1,0,0.2,0,0.3-0.1l0.2,1c-0.1,0.1-0.3,0.2-0.5,0.2s-0.4,0.1-0.6,0.1c-0.6,0-1.1-0.2-1.5-0.6c-0.4-0.4-0.5-0.9-0.5-1.7v-5h-1.3
		v-1.1h1.3v-2H472.2z"/>
	<path class="st2" d="M477,134.3h-1.5v-1.5h1.5V134.3z M477,144.7h-1.5v-8.3h1.5V144.7z"/>
	<path class="st2" d="M479,140.5c0-1.2,0.3-2.2,1-3c0.7-0.8,1.6-1.2,2.7-1.2c1.1,0,2,0.4,2.7,1.2c0.7,0.8,1,1.8,1,3v0.2
		c0,1.2-0.3,2.2-1,3c-0.7,0.8-1.6,1.2-2.7,1.2s-2-0.4-2.7-1.2s-1-1.8-1-3V140.5z M480.5,140.7c0,0.9,0.2,1.6,0.6,2.2
		c0.4,0.6,0.9,0.9,1.6,0.9c0.7,0,1.3-0.3,1.6-0.9c0.4-0.6,0.6-1.3,0.6-2.2v-0.2c0-0.9-0.2-1.6-0.6-2.2c-0.4-0.6-0.9-0.9-1.6-0.9
		c-0.7,0-1.3,0.3-1.6,0.9c-0.4,0.6-0.6,1.3-0.6,2.2V140.7z"/>
	<path class="st2" d="M489.5,136.4l0.1,1.2c0.3-0.4,0.6-0.8,1-1c0.4-0.2,0.9-0.4,1.4-0.4c0.9,0,1.6,0.3,2.1,0.8
		c0.5,0.5,0.7,1.3,0.7,2.4v5.2h-1.5v-5.2c0-0.7-0.1-1.2-0.4-1.5c-0.3-0.3-0.7-0.5-1.3-0.5c-0.5,0-0.9,0.1-1.2,0.3
		c-0.3,0.2-0.6,0.4-0.8,0.8v6.1h-1.5v-8.3H489.5z"/>
</g>
<g class="st1">
	<path class="st2" d="M234.8,160.4l0.2,1.1h0l0.2-1.1l1.6-5.3h1.2l1.7,5.3l0.2,1.2h0l0.2-1.2l1.2-5.3h1.6l-2.4,8.3h-1.2l-1.6-5
		l-0.3-1.3h0l-0.3,1.3l-1.6,5h-1.2l-2.4-8.3h1.6L234.8,160.4z"/>
	<path class="st2" d="M246,156.3c0.3-0.4,0.6-0.7,1-0.9c0.4-0.2,0.9-0.3,1.4-0.3c0.9,0,1.6,0.3,2.1,0.8c0.5,0.5,0.7,1.3,0.7,2.4v5.2
		h-1.5v-5.2c0-0.7-0.1-1.2-0.4-1.5c-0.3-0.3-0.7-0.5-1.3-0.5c-0.4,0-0.8,0.1-1.2,0.3c-0.3,0.2-0.6,0.4-0.8,0.7v6.2h-1.5v-11.9h1.5
		V156.3z"/>
	<path class="st2" d="M253.1,159.2c0-1.2,0.3-2.2,1-3c0.7-0.8,1.6-1.2,2.7-1.2c1.1,0,2,0.4,2.7,1.2c0.7,0.8,1,1.8,1,3v0.2
		c0,1.2-0.3,2.2-1,3c-0.7,0.8-1.6,1.2-2.7,1.2c-1.1,0-2-0.4-2.7-1.2s-1-1.8-1-3V159.2z M254.6,159.4c0,0.9,0.2,1.6,0.6,2.2
		c0.4,0.6,0.9,0.9,1.6,0.9c0.7,0,1.3-0.3,1.6-0.9c0.4-0.6,0.6-1.3,0.6-2.2v-0.2c0-0.9-0.2-1.6-0.6-2.2c-0.4-0.6-0.9-0.9-1.6-0.9
		c-0.7,0-1.3,0.3-1.6,0.9c-0.4,0.6-0.6,1.3-0.6,2.2V159.4z"/>
	<path class="st2" d="M268.3,160.4l0.2,1.1h0l0.2-1.1l1.6-5.3h1.2l1.7,5.3l0.2,1.2h0l0.2-1.2l1.2-5.3h1.6l-2.4,8.3h-1.2l-1.6-5
		l-0.3-1.3h0l-0.3,1.3l-1.6,5h-1.2l-2.4-8.3h1.6L268.3,160.4z"/>
	<path class="st2" d="M281.4,163.6c-1.2,0-2.1-0.4-2.8-1.1c-0.7-0.8-1-1.8-1-3v-0.3c0-1.2,0.3-2.2,1-2.9c0.7-0.8,1.5-1.2,2.5-1.2
		c1.1,0,1.9,0.3,2.5,1c0.6,0.7,0.8,1.6,0.8,2.7v0.8h-5.3l0,0c0,0.8,0.2,1.5,0.5,2c0.4,0.5,0.9,0.8,1.7,0.8c0.5,0,1-0.1,1.3-0.2
		c0.4-0.1,0.7-0.3,1-0.6l0.6,1c-0.3,0.3-0.7,0.5-1.2,0.7C282.7,163.5,282.1,163.6,281.4,163.6z M281.2,156.2c-0.5,0-1,0.2-1.3,0.6
		c-0.3,0.4-0.6,0.9-0.6,1.6l0,0h3.7v-0.1c0-0.6-0.1-1.1-0.4-1.5C282.3,156.4,281.8,156.2,281.2,156.2z"/>
</g>
<g class="st1">
	<path class="st2" d="M290.1,156.5l-0.8,0c-0.4,0-0.7,0.1-1,0.3c-0.3,0.2-0.5,0.5-0.6,0.8v5.9h-1.5v-8.3h1.3l0.1,1.2
		c0.2-0.4,0.5-0.8,0.9-1s0.7-0.4,1.2-0.4c0.1,0,0.2,0,0.3,0c0.1,0,0.2,0,0.3,0.1L290.1,156.5z"/>
</g>
<g class="st1">
	<path class="st2" d="M295,163.6c-1.2,0-2.1-0.4-2.8-1.1c-0.7-0.8-1-1.8-1-3v-0.3c0-1.2,0.3-2.2,1-2.9c0.7-0.8,1.5-1.2,2.5-1.2
		c1.1,0,1.9,0.3,2.5,1c0.6,0.7,0.8,1.6,0.8,2.7v0.8h-5.3l0,0c0,0.8,0.2,1.5,0.5,2c0.4,0.5,0.9,0.8,1.7,0.8c0.5,0,1-0.1,1.3-0.2
		c0.4-0.1,0.7-0.3,1-0.6l0.6,1c-0.3,0.3-0.7,0.5-1.2,0.7C296.2,163.5,295.6,163.6,295,163.6z M294.7,156.2c-0.5,0-1,0.2-1.3,0.6
		c-0.3,0.4-0.6,0.9-0.6,1.6l0,0h3.7v-0.1c0-0.6-0.1-1.1-0.4-1.5C295.8,156.4,295.3,156.2,294.7,156.2z"/>
	<path class="st2" d="M308.7,163.5c-0.1-0.2-0.1-0.5-0.1-0.7c0-0.2,0-0.4,0-0.6c-0.3,0.4-0.6,0.7-1.1,1c-0.5,0.3-0.9,0.4-1.5,0.4
		c-0.9,0-1.5-0.2-2-0.7c-0.5-0.4-0.7-1-0.7-1.8c0-0.8,0.3-1.4,1-1.9c0.6-0.4,1.5-0.7,2.6-0.7h1.6v-0.8c0-0.5-0.1-0.9-0.4-1.1
		c-0.3-0.3-0.7-0.4-1.3-0.4c-0.5,0-0.9,0.1-1.2,0.4c-0.3,0.2-0.5,0.5-0.5,0.9l-1.4,0l0,0c0-0.6,0.2-1.2,0.8-1.6
		c0.6-0.5,1.4-0.7,2.3-0.7c0.9,0,1.7,0.2,2.3,0.7c0.6,0.5,0.9,1.2,0.9,2.1v4c0,0.3,0,0.6,0,0.9c0,0.3,0.1,0.5,0.2,0.8H308.7z
		 M306.2,162.4c0.5,0,1-0.1,1.5-0.4c0.4-0.3,0.7-0.6,0.9-1v-1.3h-1.7c-0.6,0-1.1,0.2-1.5,0.5c-0.4,0.3-0.5,0.7-0.5,1.1
		c0,0.4,0.1,0.7,0.3,0.9C305.4,162.2,305.7,162.4,306.2,162.4z"/>
	<path class="st2" d="M312.8,163.5v-7.1h-1.3v-1.1h1.3v-1c0-0.9,0.2-1.6,0.7-2s1.1-0.7,1.9-0.7c0.2,0,0.3,0,0.5,0
		c0.2,0,0.4,0.1,0.6,0.1l-0.2,1.1c-0.1,0-0.2,0-0.3-0.1c-0.1,0-0.3,0-0.4,0c-0.4,0-0.8,0.1-1,0.4c-0.2,0.3-0.3,0.6-0.3,1.1v1h1.5
		v1.1h-1.5v7.1H312.8z"/>
</g>
<g class="st1">
	<path class="st2" d="M318,163.5v-7.1h-1.3v-1.1h1.3v-1c0-0.9,0.2-1.6,0.7-2c0.5-0.5,1.1-0.7,1.9-0.7c0.2,0,0.3,0,0.5,0
		c0.2,0,0.4,0.1,0.6,0.1l-0.2,1.1c-0.1,0-0.2,0-0.3-0.1c-0.1,0-0.3,0-0.4,0c-0.4,0-0.8,0.1-1,0.4c-0.2,0.3-0.3,0.6-0.3,1.1v1h1.5
		v1.1h-1.5v7.1H318z"/>
</g>
<g class="st1">
	<path class="st2" d="M325.7,163.6c-1.2,0-2.1-0.4-2.8-1.1c-0.7-0.8-1-1.8-1-3v-0.3c0-1.2,0.3-2.2,1-2.9c0.7-0.8,1.5-1.2,2.5-1.2
		c1.1,0,1.9,0.3,2.5,1c0.6,0.7,0.8,1.6,0.8,2.7v0.8h-5.3l0,0c0,0.8,0.2,1.5,0.5,2c0.4,0.5,0.9,0.8,1.7,0.8c0.5,0,1-0.1,1.3-0.2
		c0.4-0.1,0.7-0.3,1-0.6l0.6,1c-0.3,0.3-0.7,0.5-1.2,0.7C327,163.5,326.4,163.6,325.7,163.6z M325.5,156.2c-0.5,0-1,0.2-1.3,0.6
		c-0.3,0.4-0.6,0.9-0.6,1.6l0,0h3.7v-0.1c0-0.6-0.1-1.1-0.4-1.5C326.6,156.4,326.1,156.2,325.5,156.2z"/>
	<path class="st2" d="M333.8,162.4c0.5,0,0.9-0.2,1.2-0.5c0.3-0.3,0.5-0.7,0.5-1.1h1.4l0,0c0,0.7-0.3,1.3-0.9,1.9
		c-0.6,0.6-1.4,0.8-2.2,0.8c-1.2,0-2.1-0.4-2.7-1.2c-0.6-0.8-0.9-1.8-0.9-2.9v-0.3c0-1.2,0.3-2.1,1-2.9c0.6-0.8,1.5-1.2,2.7-1.2
		c0.9,0,1.7,0.3,2.3,0.9c0.6,0.6,0.9,1.3,0.9,2.1l0,0h-1.4c0-0.5-0.2-0.9-0.5-1.3c-0.3-0.4-0.7-0.5-1.2-0.5c-0.7,0-1.3,0.3-1.6,0.9
		c-0.3,0.6-0.5,1.3-0.5,2.1v0.3c0,0.8,0.2,1.5,0.5,2.1C332.5,162.2,333,162.4,333.8,162.4z"/>
	<path class="st2" d="M340.8,153.2v2h1.6v1.1h-1.6v5c0,0.4,0.1,0.7,0.2,0.8c0.2,0.2,0.4,0.2,0.6,0.2c0.1,0,0.2,0,0.3,0
		c0.1,0,0.2,0,0.3-0.1l0.2,1c-0.1,0.1-0.3,0.2-0.5,0.2s-0.4,0.1-0.6,0.1c-0.6,0-1.1-0.2-1.5-0.6c-0.4-0.4-0.5-0.9-0.5-1.7v-5h-1.3
		v-1.1h1.3v-2H340.8z"/>
	<path class="st2" d="M347.4,163.6c-1.2,0-2.1-0.4-2.8-1.1c-0.7-0.8-1-1.8-1-3v-0.3c0-1.2,0.3-2.2,1-2.9c0.7-0.8,1.5-1.2,2.5-1.2
		c1.1,0,1.9,0.3,2.5,1s0.8,1.6,0.8,2.7v0.8h-5.3l0,0c0,0.8,0.2,1.5,0.5,2c0.4,0.5,0.9,0.8,1.7,0.8c0.5,0,1-0.1,1.3-0.2
		c0.4-0.1,0.7-0.3,1-0.6l0.6,1c-0.3,0.3-0.7,0.5-1.2,0.7C348.6,163.5,348,163.6,347.4,163.6z M347.1,156.2c-0.5,0-1,0.2-1.3,0.6
		c-0.3,0.4-0.6,0.9-0.6,1.6l0,0h3.7v-0.1c0-0.6-0.1-1.1-0.4-1.5S347.7,156.2,347.1,156.2z"/>
	<path class="st2" d="M351.8,159.5c0-1.3,0.3-2.4,0.9-3.2c0.6-0.8,1.4-1.2,2.4-1.2c0.5,0,0.9,0.1,1.3,0.3c0.4,0.2,0.7,0.4,1,0.8
		v-4.5h1.5v11.9h-1.2l-0.2-1c-0.3,0.4-0.6,0.7-1,0.9c-0.4,0.2-0.9,0.3-1.4,0.3c-1,0-1.8-0.4-2.4-1.1c-0.6-0.7-0.9-1.7-0.9-2.9V159.5
		z M353.3,159.6c0,0.8,0.2,1.5,0.5,2s0.9,0.8,1.6,0.8c0.4,0,0.8-0.1,1.1-0.3c0.3-0.2,0.6-0.5,0.7-0.9v-3.9c-0.2-0.3-0.4-0.6-0.8-0.8
		s-0.7-0.3-1.1-0.3c-0.7,0-1.3,0.3-1.6,0.9c-0.3,0.6-0.5,1.4-0.5,2.3V159.6z"/>
</g>
<g class="st1">
	<path class="st2" d="M372,159.6c0,1.2-0.3,2.2-0.9,2.9c-0.6,0.7-1.4,1.1-2.4,1.1c-0.5,0-1-0.1-1.4-0.3c-0.4-0.2-0.7-0.5-1-1
		l-0.2,1.1h-1.2v-11.9h1.5v4.6c0.3-0.4,0.6-0.6,1-0.8s0.8-0.3,1.3-0.3c1,0,1.8,0.4,2.4,1.2c0.6,0.8,0.9,1.9,0.9,3.2V159.6z
		 M370.4,159.5c0-0.9-0.2-1.7-0.5-2.3c-0.3-0.6-0.9-0.9-1.6-0.9c-0.5,0-0.9,0.1-1.2,0.3c-0.3,0.2-0.6,0.5-0.8,0.9v3.6
		c0.2,0.4,0.4,0.7,0.8,1s0.7,0.3,1.2,0.3c0.7,0,1.2-0.3,1.6-0.8s0.5-1.2,0.5-2V159.5z"/>
</g>
<g class="st1">
	<path class="st2" d="M376.2,160.4l0.3,1h0l2-6.2h1.7l-3.5,9.5c-0.2,0.6-0.5,1-0.9,1.5c-0.4,0.4-0.9,0.6-1.6,0.6c-0.1,0-0.3,0-0.5,0
		s-0.3-0.1-0.4-0.1l0.2-1.2c0,0,0.1,0,0.3,0c0.2,0,0.3,0,0.4,0c0.3,0,0.6-0.1,0.8-0.4c0.2-0.3,0.4-0.6,0.5-0.9l0.4-0.9l-3.1-8.1h1.7
		L376.2,160.4z"/>
	<path class="st2" d="M393.6,159.9L393.6,159.9c0,1.1-0.3,2-1.1,2.7s-1.7,1.1-3,1.1c-1.3,0-2.3-0.4-3.1-1.3c-0.8-0.9-1.2-2-1.2-3.4
		v-2c0-1.4,0.4-2.5,1.2-3.4c0.8-0.9,1.8-1.3,3.1-1.3s2.3,0.3,3,1c0.7,0.7,1.1,1.6,1.1,2.7l0,0h-1.4c0-0.8-0.2-1.4-0.7-1.8
		s-1.1-0.7-1.9-0.7c-0.8,0-1.5,0.3-2,1c-0.5,0.7-0.7,1.5-0.7,2.5v2c0,1,0.2,1.9,0.7,2.5c0.5,0.7,1.2,1,2,1c0.8,0,1.5-0.2,1.9-0.7
		s0.7-1.1,0.7-1.9H393.6z"/>
</g>
<g class="st1">
	<path class="st2" d="M404.1,158.9c0,1.4-0.4,2.5-1.3,3.4s-1.9,1.3-3.3,1.3c-1.3,0-2.4-0.4-3.2-1.3s-1.2-2-1.2-3.4v-2
		c0-1.4,0.4-2.5,1.2-3.4c0.8-0.9,1.9-1.4,3.2-1.4c1.3,0,2.4,0.4,3.3,1.3c0.8,0.9,1.3,2,1.3,3.4V158.9z M402.6,156.9
		c0-1-0.3-1.9-0.8-2.5c-0.5-0.7-1.3-1-2.2-1c-0.9,0-1.6,0.3-2.1,1s-0.8,1.5-0.8,2.5v2c0,1,0.3,1.9,0.8,2.5s1.2,1,2.1,1
		c0.9,0,1.7-0.3,2.2-1c0.5-0.6,0.8-1.5,0.8-2.5V156.9z"/>
</g>
<g class="st1">
	<path class="st2" d="M409.4,160.5l0.3,0.9h0l0.3-0.9l2.9-8.2h1.6l-4.1,11.1H409l-4.1-11.1h1.6L409.4,160.5z"/>
	<path class="st2" d="M417.6,163.5h-1.5v-11.1h1.5V163.5z"/>
	<path class="st2" d="M420.3,163.5v-11.1h3.5c1.4,0,2.6,0.4,3.5,1.3s1.3,2,1.3,3.5v1.5c0,1.4-0.4,2.6-1.3,3.5
		c-0.9,0.9-2,1.3-3.5,1.3H420.3z M421.9,153.5v8.8h2c1,0,1.8-0.3,2.4-1c0.6-0.7,0.9-1.5,0.9-2.6v-1.5c0-1-0.3-1.9-0.9-2.6
		c-0.6-0.7-1.4-1-2.4-1H421.9z"/>
	<path class="st2" d="M435.4,159.3h-4.5v-1.2h4.5V159.3z"/>
	<path class="st2" d="M442.1,163.5h-1.5v-9.7l-2.4,0v-1.2l3.9-0.4V163.5z"/>
	<path class="st2" d="M449.3,162.4c0.7,0,1.3-0.2,1.8-0.7c0.4-0.5,0.7-1.2,0.7-2.1v-0.9c-0.2,0.4-0.5,0.6-0.9,0.8
		c-0.4,0.2-0.8,0.3-1.2,0.3c-1.1,0-1.9-0.3-2.5-1c-0.6-0.7-0.9-1.6-0.9-2.7c0-1.1,0.3-2,1-2.7c0.6-0.7,1.4-1.1,2.4-1.1
		c1.1,0,2,0.3,2.7,1c0.7,0.7,1,1.7,1,3v3.4c0,1.3-0.4,2.3-1.1,3c-0.7,0.7-1.7,1.1-2.8,1.1c-0.4,0-0.8,0-1.2-0.1s-0.8-0.2-1.1-0.4
		l0.2-1.1c0.3,0.2,0.7,0.3,1,0.3C448.5,162.4,448.9,162.4,449.3,162.4z M449.6,158.5c0.5,0,1-0.1,1.3-0.4c0.4-0.2,0.6-0.5,0.8-0.9
		V156c0-0.8-0.2-1.5-0.6-1.9c-0.4-0.5-0.9-0.7-1.6-0.7c-0.5,0-1,0.2-1.4,0.7c-0.4,0.5-0.5,1.1-0.5,1.9c0,0.8,0.2,1.4,0.5,1.9
		C448.5,158.3,449,158.5,449.6,158.5z"/>
</g>
<g class="st1">
	<path class="st2" d="M463.2,156.5l-0.8,0c-0.4,0-0.7,0.1-1,0.3c-0.3,0.2-0.5,0.5-0.6,0.8v5.9h-1.5v-8.3h1.3l0.1,1.2
		c0.2-0.4,0.5-0.8,0.9-1c0.3-0.2,0.7-0.4,1.2-0.4c0.1,0,0.2,0,0.3,0c0.1,0,0.2,0,0.3,0.1L463.2,156.5z"/>
</g>
<g class="st1">
	<path class="st2" d="M468,163.6c-1.2,0-2.1-0.4-2.8-1.1c-0.7-0.8-1-1.8-1-3v-0.3c0-1.2,0.3-2.2,1-2.9c0.7-0.8,1.5-1.2,2.5-1.2
		c1.1,0,1.9,0.3,2.5,1c0.6,0.7,0.8,1.6,0.8,2.7v0.8h-5.3l0,0c0,0.8,0.2,1.5,0.5,2c0.4,0.5,0.9,0.8,1.7,0.8c0.5,0,1-0.1,1.3-0.2
		c0.4-0.1,0.7-0.3,1-0.6l0.6,1c-0.3,0.3-0.7,0.5-1.2,0.7C469.3,163.5,468.7,163.6,468,163.6z M467.8,156.2c-0.5,0-1,0.2-1.3,0.6
		c-0.3,0.4-0.6,0.9-0.6,1.6l0,0h3.7v-0.1c0-0.6-0.1-1.1-0.4-1.5C468.9,156.4,468.4,156.2,467.8,156.2z"/>
	<path class="st2" d="M476.1,162.4c0.5,0,0.9-0.2,1.2-0.5c0.3-0.3,0.5-0.7,0.5-1.1h1.4l0,0c0,0.7-0.3,1.3-0.9,1.9
		c-0.6,0.6-1.4,0.8-2.2,0.8c-1.2,0-2.1-0.4-2.7-1.2c-0.6-0.8-0.9-1.8-0.9-2.9v-0.3c0-1.2,0.3-2.1,1-2.9c0.6-0.8,1.5-1.2,2.7-1.2
		c0.9,0,1.7,0.3,2.3,0.9c0.6,0.6,0.9,1.3,0.9,2.1l0,0h-1.4c0-0.5-0.2-0.9-0.5-1.3c-0.3-0.4-0.7-0.5-1.2-0.5c-0.7,0-1.3,0.3-1.6,0.9
		c-0.3,0.6-0.5,1.3-0.5,2.1v0.3c0,0.8,0.2,1.5,0.5,2.1C474.8,162.2,475.3,162.4,476.1,162.4z"/>
	<path class="st2" d="M484.4,163.6c-1.2,0-2.1-0.4-2.8-1.1c-0.7-0.8-1-1.8-1-3v-0.3c0-1.2,0.3-2.2,1-2.9c0.7-0.8,1.5-1.2,2.5-1.2
		c1.1,0,1.9,0.3,2.5,1s0.8,1.6,0.8,2.7v0.8h-5.3l0,0c0,0.8,0.2,1.5,0.5,2c0.4,0.5,0.9,0.8,1.7,0.8c0.5,0,1-0.1,1.3-0.2
		c0.4-0.1,0.7-0.3,1-0.6l0.6,1c-0.3,0.3-0.7,0.5-1.2,0.7C485.6,163.5,485.1,163.6,484.4,163.6z M484.1,156.2c-0.5,0-1,0.2-1.3,0.6
		c-0.3,0.4-0.6,0.9-0.6,1.6l0,0h3.7v-0.1c0-0.6-0.1-1.1-0.4-1.5S484.8,156.2,484.1,156.2z"/>
	<path class="st2" d="M490.8,153.1h-1.5v-1.5h1.5V153.1z M490.8,163.5h-1.5v-8.3h1.5V163.5z"/>
</g>
<g class="st1">
	<path class="st2" d="M495.9,161l0.1,0.6h0l0.1-0.6l1.9-5.8h1.5l-3,8.3h-1.1l-3.1-8.3h1.5L495.9,161z"/>
</g>
<g class="st1">
	<path class="st2" d="M504.3,163.6c-1.2,0-2.1-0.4-2.8-1.1c-0.7-0.8-1-1.8-1-3v-0.3c0-1.2,0.3-2.2,1-2.9c0.7-0.8,1.5-1.2,2.5-1.2
		c1.1,0,1.9,0.3,2.5,1c0.6,0.7,0.8,1.6,0.8,2.7v0.8h-5.3l0,0c0,0.8,0.2,1.5,0.5,2c0.4,0.5,0.9,0.8,1.7,0.8c0.5,0,1-0.1,1.3-0.2
		c0.4-0.1,0.7-0.3,1-0.6l0.6,1c-0.3,0.3-0.7,0.5-1.2,0.7C505.5,163.5,505,163.6,504.3,163.6z M504,156.2c-0.5,0-1,0.2-1.3,0.6
		c-0.3,0.4-0.6,0.9-0.6,1.6l0,0h3.7v-0.1c0-0.6-0.1-1.1-0.4-1.5S504.7,156.2,504,156.2z"/>
	<path class="st2" d="M508.7,159.5c0-1.3,0.3-2.4,0.9-3.2c0.6-0.8,1.4-1.2,2.4-1.2c0.5,0,0.9,0.1,1.3,0.3c0.4,0.2,0.7,0.4,1,0.8
		v-4.5h1.5v11.9h-1.2l-0.2-1c-0.3,0.4-0.6,0.7-1,0.9c-0.4,0.2-0.9,0.3-1.4,0.3c-1,0-1.8-0.4-2.4-1.1c-0.6-0.7-0.9-1.7-0.9-2.9V159.5
		z M510.2,159.6c0,0.8,0.2,1.5,0.5,2s0.9,0.8,1.6,0.8c0.4,0,0.8-0.1,1.1-0.3c0.3-0.2,0.6-0.5,0.7-0.9v-3.9c-0.2-0.3-0.4-0.6-0.8-0.8
		c-0.3-0.2-0.7-0.3-1.1-0.3c-0.7,0-1.3,0.3-1.6,0.9c-0.3,0.6-0.5,1.4-0.5,2.3V159.6z"/>
	<path class="st2" d="M526.6,161.2c0-0.3-0.1-0.6-0.4-0.8c-0.3-0.2-0.7-0.4-1.4-0.5c-1-0.2-1.7-0.5-2.2-0.9
		c-0.5-0.4-0.8-0.9-0.8-1.5c0-0.7,0.3-1.2,0.9-1.7c0.6-0.5,1.3-0.7,2.2-0.7c0.9,0,1.7,0.3,2.3,0.8s0.9,1.1,0.8,1.8l0,0h-1.4
		c0-0.4-0.2-0.7-0.5-1c-0.3-0.3-0.7-0.4-1.2-0.4c-0.5,0-0.9,0.1-1.2,0.4c-0.3,0.2-0.4,0.5-0.4,0.9c0,0.3,0.1,0.6,0.3,0.8
		c0.2,0.2,0.7,0.3,1.4,0.5c1,0.2,1.8,0.5,2.3,0.9c0.5,0.4,0.8,0.9,0.8,1.5c0,0.7-0.3,1.3-0.9,1.8s-1.4,0.7-2.3,0.7
		c-1.1,0-1.9-0.3-2.5-0.8c-0.6-0.5-0.9-1.2-0.9-1.9l0,0h1.4c0,0.5,0.2,0.9,0.6,1.2c0.4,0.2,0.8,0.4,1.3,0.4c0.5,0,1-0.1,1.3-0.3
		S526.6,161.6,526.6,161.2z"/>
	<path class="st2" d="M535.2,162.2c-0.3,0.4-0.6,0.8-1,1s-0.9,0.4-1.4,0.4c-0.9,0-1.6-0.3-2.1-0.9s-0.8-1.5-0.8-2.7v-4.9h1.5v4.9
		c0,0.9,0.1,1.5,0.4,1.8c0.3,0.3,0.7,0.5,1.2,0.5c0.5,0,1-0.1,1.3-0.3c0.3-0.2,0.6-0.5,0.8-0.9v-6h1.5v8.3h-1.4L535.2,162.2z"/>
	<path class="st2" d="M545.9,159.6c0,1.2-0.3,2.2-0.9,2.9c-0.6,0.7-1.4,1.1-2.4,1.1c-0.5,0-1-0.1-1.3-0.3c-0.4-0.2-0.7-0.4-1-0.8v4
		h-1.5v-11.4h1.2l0.2,1.1c0.3-0.4,0.6-0.7,1-0.9c0.4-0.2,0.9-0.3,1.4-0.3c1,0,1.8,0.4,2.4,1.2c0.6,0.8,0.9,1.9,0.9,3.2V159.6z
		 M544.4,159.5c0-0.9-0.2-1.7-0.6-2.3c-0.4-0.6-0.9-0.9-1.6-0.9c-0.4,0-0.8,0.1-1.1,0.3c-0.3,0.2-0.6,0.5-0.7,0.8v4
		c0.2,0.3,0.4,0.6,0.7,0.8c0.3,0.2,0.7,0.3,1.1,0.3c0.7,0,1.3-0.3,1.6-0.8c0.4-0.5,0.5-1.2,0.5-2V159.5z"/>
	<path class="st2" d="M554.8,159.6c0,1.2-0.3,2.2-0.9,2.9c-0.6,0.7-1.4,1.1-2.4,1.1c-0.5,0-1-0.1-1.3-0.3c-0.4-0.2-0.7-0.4-1-0.8v4
		h-1.5v-11.4h1.2l0.2,1.1c0.3-0.4,0.6-0.7,1-0.9c0.4-0.2,0.9-0.3,1.4-0.3c1,0,1.8,0.4,2.4,1.2c0.6,0.8,0.9,1.9,0.9,3.2V159.6z
		 M553.3,159.5c0-0.9-0.2-1.7-0.6-2.3c-0.4-0.6-0.9-0.9-1.6-0.9c-0.4,0-0.8,0.1-1.1,0.3c-0.3,0.2-0.6,0.5-0.7,0.8v4
		c0.2,0.3,0.4,0.6,0.7,0.8c0.3,0.2,0.7,0.3,1.1,0.3c0.7,0,1.3-0.3,1.6-0.8c0.4-0.5,0.6-1.2,0.6-2V159.5z"/>
	<path class="st2" d="M556.3,159.2c0-1.2,0.3-2.2,1-3c0.7-0.8,1.6-1.2,2.7-1.2c1.1,0,2,0.4,2.7,1.2c0.7,0.8,1,1.8,1,3v0.2
		c0,1.2-0.3,2.2-1,3c-0.7,0.8-1.6,1.2-2.7,1.2s-2-0.4-2.7-1.2s-1-1.8-1-3V159.2z M557.8,159.4c0,0.9,0.2,1.6,0.6,2.2
		c0.4,0.6,0.9,0.9,1.6,0.9c0.7,0,1.3-0.3,1.6-0.9c0.4-0.6,0.6-1.3,0.6-2.2v-0.2c0-0.9-0.2-1.6-0.6-2.2c-0.4-0.6-0.9-0.9-1.6-0.9
		c-0.7,0-1.3,0.3-1.6,0.9c-0.4,0.6-0.6,1.3-0.6,2.2V159.4z"/>
</g>
<g class="st1">
	<path class="st2" d="M569.4,156.5l-0.8,0c-0.4,0-0.7,0.1-1,0.3c-0.3,0.2-0.5,0.5-0.6,0.8v5.9h-1.5v-8.3h1.3l0.1,1.2
		c0.2-0.4,0.5-0.8,0.9-1c0.3-0.2,0.7-0.4,1.2-0.4c0.1,0,0.2,0,0.3,0c0.1,0,0.2,0,0.3,0.1L569.4,156.5z"/>
</g>
<g class="st1">
	<path class="st2" d="M573.2,153.2v2h1.6v1.1h-1.6v5c0,0.4,0.1,0.7,0.2,0.8c0.2,0.2,0.4,0.2,0.6,0.2c0.1,0,0.2,0,0.3,0
		c0.1,0,0.2,0,0.3-0.1l0.2,1c-0.1,0.1-0.3,0.2-0.5,0.2s-0.4,0.1-0.6,0.1c-0.6,0-1.1-0.2-1.5-0.6c-0.4-0.4-0.5-0.9-0.5-1.7v-5h-1.3
		v-1.1h1.3v-2H573.2z"/>
</g>
<g class="st1">
	<path class="st2" d="M258.2,171.8h-1.5v-1.5h1.5V171.8z M258.2,182.2h-1.5V174h1.5V182.2z"/>
	<path class="st2" d="M261.8,174l0.1,1.2c0.3-0.4,0.6-0.8,1-1c0.4-0.2,0.9-0.4,1.4-0.4c0.9,0,1.6,0.3,2.1,0.8
		c0.5,0.5,0.7,1.3,0.7,2.4v5.2h-1.5V177c0-0.7-0.1-1.2-0.4-1.5c-0.3-0.3-0.7-0.5-1.3-0.5c-0.5,0-0.9,0.1-1.2,0.3
		c-0.3,0.2-0.6,0.4-0.8,0.8v6.1h-1.5V174H261.8z"/>
	<path class="st2" d="M275.3,172v2h1.6v1.1h-1.6v5c0,0.4,0.1,0.7,0.2,0.8c0.2,0.2,0.4,0.2,0.6,0.2c0.1,0,0.2,0,0.3,0
		c0.1,0,0.2,0,0.3-0.1l0.2,1c-0.1,0.1-0.3,0.2-0.5,0.2s-0.4,0.1-0.6,0.1c-0.6,0-1.1-0.2-1.5-0.6c-0.4-0.4-0.5-0.9-0.5-1.7v-5h-1.3
		V174h1.3v-2H275.3z"/>
	<path class="st2" d="M280,175.1c0.3-0.4,0.6-0.7,1-0.9c0.4-0.2,0.9-0.3,1.4-0.3c0.9,0,1.6,0.3,2.1,0.8c0.5,0.5,0.7,1.3,0.7,2.4v5.2
		h-1.5V177c0-0.7-0.1-1.2-0.4-1.5c-0.3-0.3-0.7-0.5-1.3-0.5c-0.4,0-0.8,0.1-1.2,0.3c-0.3,0.2-0.6,0.4-0.8,0.7v6.2h-1.5v-11.9h1.5
		V175.1z"/>
	<path class="st2" d="M290.8,182.4c-1.2,0-2.1-0.4-2.8-1.1c-0.7-0.8-1-1.8-1-3v-0.3c0-1.2,0.3-2.2,1-2.9c0.7-0.8,1.5-1.2,2.5-1.2
		c1.1,0,1.9,0.3,2.5,1c0.6,0.7,0.8,1.6,0.8,2.7v0.8h-5.3l0,0c0,0.8,0.2,1.5,0.5,2c0.4,0.5,0.9,0.8,1.7,0.8c0.5,0,1-0.1,1.3-0.2
		c0.4-0.1,0.7-0.3,1-0.6l0.6,1c-0.3,0.3-0.7,0.5-1.2,0.7C292.1,182.3,291.5,182.4,290.8,182.4z M290.6,175c-0.5,0-1,0.2-1.3,0.6
		c-0.3,0.4-0.6,0.9-0.6,1.6l0,0h3.7v-0.1c0-0.6-0.1-1.1-0.4-1.5C291.7,175.2,291.2,175,290.6,175z"/>
	<path class="st2" d="M300.1,182.2v-7.1h-1.3V174h1.3v-1c0-0.9,0.2-1.6,0.7-2s1.1-0.7,1.9-0.7c0.2,0,0.3,0,0.5,0
		c0.2,0,0.4,0.1,0.6,0.1l-0.2,1.1c-0.1,0-0.2,0-0.3-0.1c-0.1,0-0.3,0-0.4,0c-0.4,0-0.8,0.1-1,0.4c-0.2,0.3-0.3,0.6-0.3,1.1v1h1.5
		v1.1h-1.5v7.1H300.1z"/>
	<path class="st2" d="M304.3,178c0-1.2,0.3-2.2,1-3c0.7-0.8,1.6-1.2,2.7-1.2c1.1,0,2,0.4,2.7,1.2c0.7,0.8,1,1.8,1,3v0.2
		c0,1.2-0.3,2.2-1,3c-0.7,0.8-1.6,1.2-2.7,1.2c-1.1,0-2-0.4-2.7-1.2s-1-1.8-1-3V178z M305.8,178.2c0,0.9,0.2,1.6,0.6,2.2
		c0.4,0.6,0.9,0.9,1.6,0.9c0.7,0,1.3-0.3,1.6-0.9c0.4-0.6,0.6-1.3,0.6-2.2V178c0-0.9-0.2-1.6-0.6-2.2c-0.4-0.6-0.9-0.9-1.6-0.9
		c-0.7,0-1.3,0.3-1.6,0.9c-0.4,0.6-0.6,1.3-0.6,2.2V178.2z"/>
	<path class="st2" d="M317.4,175.3l-0.8,0c-0.4,0-0.7,0.1-1,0.3c-0.3,0.2-0.5,0.5-0.6,0.8v5.9h-1.5V174h1.3l0.1,1.2
		c0.2-0.4,0.5-0.8,0.9-1s0.7-0.4,1.2-0.4c0.1,0,0.2,0,0.3,0c0.1,0,0.2,0,0.3,0.1L317.4,175.3z"/>
	<path class="st2" d="M320.3,174l0.1,1.1c0.3-0.4,0.6-0.7,1-0.9c0.4-0.2,0.9-0.3,1.4-0.3s1,0.1,1.4,0.4c0.4,0.3,0.7,0.6,0.9,1.1
		c0.3-0.5,0.6-0.8,1-1.1s0.9-0.4,1.5-0.4c0.8,0,1.5,0.3,2,0.9s0.7,1.4,0.7,2.6v4.9h-1.5v-5c0-0.8-0.1-1.4-0.4-1.7
		c-0.3-0.3-0.7-0.5-1.3-0.5c-0.5,0-0.9,0.2-1.2,0.5c-0.3,0.4-0.5,0.8-0.6,1.4v0.1v5.2h-1.5v-5c0-0.8-0.1-1.3-0.4-1.7
		c-0.3-0.4-0.7-0.5-1.2-0.5c-0.5,0-0.8,0.1-1.1,0.3c-0.3,0.2-0.5,0.5-0.7,0.8v6.1H319V174H320.3z"/>
	<path class="st2" d="M336.2,178c0-1.2,0.3-2.2,1-3s1.6-1.2,2.7-1.2c1.1,0,2,0.4,2.7,1.2c0.7,0.8,1,1.8,1,3v0.2c0,1.2-0.3,2.2-1,3
		c-0.7,0.8-1.6,1.2-2.7,1.2c-1.1,0-2-0.4-2.7-1.2s-1-1.8-1-3V178z M337.7,178.2c0,0.9,0.2,1.6,0.6,2.2c0.4,0.6,0.9,0.9,1.6,0.9
		c0.7,0,1.3-0.3,1.6-0.9c0.4-0.6,0.6-1.3,0.6-2.2V178c0-0.9-0.2-1.6-0.6-2.2c-0.4-0.6-0.9-0.9-1.6-0.9c-0.7,0-1.3,0.3-1.6,0.9
		c-0.4,0.6-0.6,1.3-0.6,2.2V178.2z"/>
	<path class="st2" d="M346,182.2v-7.1h-1.3V174h1.3v-1c0-0.9,0.2-1.6,0.7-2c0.5-0.5,1.1-0.7,1.9-0.7c0.2,0,0.3,0,0.5,0
		c0.2,0,0.4,0.1,0.6,0.1l-0.2,1.1c-0.1,0-0.2,0-0.3-0.1c-0.1,0-0.3,0-0.4,0c-0.4,0-0.8,0.1-1,0.4c-0.2,0.3-0.3,0.6-0.3,1.1v1h1.5
		v1.1h-1.5v7.1H346z"/>
	<path class="st2" d="M361.5,178.4c0,1.2-0.3,2.2-0.9,2.9c-0.6,0.7-1.4,1.1-2.4,1.1c-0.5,0-1-0.1-1.4-0.3c-0.4-0.2-0.7-0.5-1-1
		l-0.2,1.1h-1.2v-11.9h1.5v4.6c0.3-0.4,0.6-0.6,1-0.8s0.8-0.3,1.3-0.3c1,0,1.8,0.4,2.4,1.2c0.6,0.8,0.9,1.9,0.9,3.2V178.4z
		 M360,178.2c0-0.9-0.2-1.7-0.5-2.3c-0.3-0.6-0.9-0.9-1.6-0.9c-0.5,0-0.9,0.1-1.2,0.3c-0.3,0.2-0.6,0.5-0.8,0.9v3.6
		c0.2,0.4,0.4,0.7,0.8,1s0.7,0.3,1.2,0.3c0.7,0,1.2-0.3,1.6-0.8s0.5-1.2,0.5-2V178.2z"/>
	<path class="st2" d="M368.4,182.2c-0.1-0.2-0.1-0.5-0.1-0.7s0-0.4,0-0.6c-0.3,0.4-0.6,0.7-1.1,1c-0.5,0.3-0.9,0.4-1.5,0.4
		c-0.9,0-1.5-0.2-2-0.7c-0.5-0.4-0.7-1-0.7-1.8c0-0.8,0.3-1.4,1-1.9s1.5-0.7,2.6-0.7h1.6v-0.8c0-0.5-0.1-0.9-0.4-1.1
		s-0.7-0.4-1.3-0.4c-0.5,0-0.9,0.1-1.2,0.4s-0.5,0.5-0.5,0.9l-1.4,0l0,0c0-0.6,0.2-1.2,0.8-1.6c0.6-0.5,1.4-0.7,2.3-0.7
		c0.9,0,1.7,0.2,2.3,0.7c0.6,0.5,0.9,1.2,0.9,2.1v4c0,0.3,0,0.6,0,0.9c0,0.3,0.1,0.5,0.2,0.8H368.4z M365.9,181.1
		c0.5,0,1-0.1,1.5-0.4c0.4-0.3,0.7-0.6,0.9-1v-1.3h-1.7c-0.6,0-1.1,0.2-1.5,0.5c-0.4,0.3-0.5,0.7-0.5,1.1c0,0.4,0.1,0.7,0.3,0.9
		C365.1,181,365.4,181.1,365.9,181.1z"/>
	<path class="st2" d="M376.7,180c0-0.3-0.1-0.6-0.4-0.8c-0.3-0.2-0.7-0.4-1.4-0.5c-1-0.2-1.7-0.5-2.2-0.9c-0.5-0.4-0.8-0.9-0.8-1.5
		c0-0.7,0.3-1.2,0.9-1.7c0.6-0.5,1.3-0.7,2.2-0.7c0.9,0,1.7,0.3,2.3,0.8s0.9,1.1,0.8,1.8l0,0h-1.4c0-0.4-0.2-0.7-0.5-1
		s-0.7-0.4-1.2-0.4c-0.5,0-0.9,0.1-1.2,0.4c-0.3,0.2-0.4,0.5-0.4,0.9c0,0.3,0.1,0.6,0.3,0.8c0.2,0.2,0.7,0.3,1.4,0.5
		c1,0.2,1.8,0.5,2.3,0.9c0.5,0.4,0.8,0.9,0.8,1.5c0,0.7-0.3,1.3-0.9,1.8c-0.6,0.5-1.4,0.7-2.3,0.7c-1.1,0-1.9-0.3-2.5-0.8
		c-0.6-0.5-0.9-1.2-0.9-1.9l0,0h1.4c0,0.5,0.2,0.9,0.6,1.2c0.4,0.2,0.8,0.4,1.3,0.4c0.5,0,1-0.1,1.3-0.3S376.7,180.3,376.7,180z"/>
	<path class="st2" d="M381.7,171.8h-1.5v-1.5h1.5V171.8z M381.7,182.2h-1.5V174h1.5V182.2z"/>
	<path class="st2" d="M387.3,181.2c0.5,0,0.9-0.2,1.2-0.5c0.3-0.3,0.5-0.7,0.5-1.1h1.4l0,0c0,0.7-0.3,1.3-0.9,1.9
		c-0.6,0.6-1.4,0.8-2.2,0.8c-1.2,0-2.1-0.4-2.7-1.2c-0.6-0.8-0.9-1.8-0.9-2.9v-0.3c0-1.2,0.3-2.1,1-2.9c0.6-0.8,1.5-1.2,2.7-1.2
		c0.9,0,1.7,0.3,2.3,0.9c0.6,0.6,0.9,1.3,0.9,2.1l0,0H389c0-0.5-0.2-0.9-0.5-1.3c-0.3-0.4-0.7-0.5-1.2-0.5c-0.7,0-1.3,0.3-1.6,0.9
		c-0.3,0.6-0.5,1.3-0.5,2.1v0.3c0,0.8,0.2,1.5,0.5,2.1C386,180.9,386.5,181.2,387.3,181.2z"/>
	<path class="st2" d="M396.7,182.2v-7.1h-1.3V174h1.3v-1c0-0.9,0.2-1.6,0.7-2c0.5-0.5,1.1-0.7,1.9-0.7c0.2,0,0.3,0,0.5,0
		c0.2,0,0.4,0.1,0.6,0.1l-0.2,1.1c-0.1,0-0.2,0-0.3-0.1c-0.1,0-0.3,0-0.4,0c-0.4,0-0.8,0.1-1,0.4c-0.2,0.3-0.3,0.6-0.3,1.1v1h1.5
		v1.1h-1.5v7.1H396.7z"/>
	<path class="st2" d="M400.9,178c0-1.2,0.3-2.2,1-3c0.7-0.8,1.6-1.2,2.7-1.2c1.1,0,2,0.4,2.7,1.2c0.7,0.8,1,1.8,1,3v0.2
		c0,1.2-0.3,2.2-1,3c-0.7,0.8-1.6,1.2-2.7,1.2s-2-0.4-2.7-1.2s-1-1.8-1-3V178z M402.4,178.2c0,0.9,0.2,1.6,0.6,2.2
		c0.4,0.6,0.9,0.9,1.6,0.9c0.7,0,1.3-0.3,1.6-0.9c0.4-0.6,0.6-1.3,0.6-2.2V178c0-0.9-0.2-1.6-0.6-2.2c-0.4-0.6-0.9-0.9-1.6-0.9
		c-0.7,0-1.3,0.3-1.6,0.9c-0.4,0.6-0.6,1.3-0.6,2.2V178.2z"/>
	<path class="st2" d="M409.8,178c0-1.2,0.3-2.2,1-3s1.6-1.2,2.7-1.2c1.1,0,2,0.4,2.7,1.2c0.7,0.8,1,1.8,1,3v0.2c0,1.2-0.3,2.2-1,3
		c-0.7,0.8-1.6,1.2-2.7,1.2c-1.1,0-2-0.4-2.7-1.2s-1-1.8-1-3V178z M411.3,178.2c0,0.9,0.2,1.6,0.6,2.2c0.4,0.6,0.9,0.9,1.6,0.9
		c0.7,0,1.3-0.3,1.6-0.9c0.4-0.6,0.6-1.3,0.6-2.2V178c0-0.9-0.2-1.6-0.6-2.2c-0.4-0.6-0.9-0.9-1.6-0.9c-0.7,0-1.3,0.3-1.6,0.9
		c-0.4,0.6-0.6,1.3-0.6,2.2V178.2z"/>
	<path class="st2" d="M418.6,178.2c0-1.3,0.3-2.4,0.9-3.2c0.6-0.8,1.4-1.2,2.4-1.2c0.5,0,0.9,0.1,1.3,0.3c0.4,0.2,0.7,0.4,1,0.8
		v-4.5h1.5v11.9h-1.2l-0.2-1c-0.3,0.4-0.6,0.7-1,0.9c-0.4,0.2-0.9,0.3-1.4,0.3c-1,0-1.8-0.4-2.4-1.1c-0.6-0.7-0.9-1.7-0.9-2.9V178.2
		z M420.1,178.4c0,0.8,0.2,1.5,0.5,2s0.9,0.8,1.6,0.8c0.4,0,0.8-0.1,1.1-0.3c0.3-0.2,0.6-0.5,0.7-0.9v-3.9c-0.2-0.3-0.4-0.6-0.8-0.8
		s-0.7-0.3-1.1-0.3c-0.7,0-1.3,0.3-1.6,0.9c-0.3,0.6-0.5,1.4-0.5,2.3V178.4z"/>
	<path class="st2" d="M436.6,180c0-0.3-0.1-0.6-0.4-0.8c-0.3-0.2-0.7-0.4-1.4-0.5c-1-0.2-1.7-0.5-2.2-0.9c-0.5-0.4-0.8-0.9-0.8-1.5
		c0-0.7,0.3-1.2,0.9-1.7c0.6-0.5,1.3-0.7,2.2-0.7c0.9,0,1.7,0.3,2.3,0.8s0.9,1.1,0.8,1.8l0,0h-1.4c0-0.4-0.2-0.7-0.5-1
		s-0.7-0.4-1.2-0.4c-0.5,0-0.9,0.1-1.2,0.4c-0.3,0.2-0.4,0.5-0.4,0.9c0,0.3,0.1,0.6,0.3,0.8c0.2,0.2,0.7,0.3,1.4,0.5
		c1,0.2,1.8,0.5,2.3,0.9c0.5,0.4,0.8,0.9,0.8,1.5c0,0.7-0.3,1.3-0.9,1.8c-0.6,0.5-1.4,0.7-2.3,0.7c-1.1,0-1.9-0.3-2.5-0.8
		c-0.6-0.5-0.9-1.2-0.9-1.9l0,0h1.4c0,0.5,0.2,0.9,0.6,1.2c0.4,0.2,0.8,0.4,1.3,0.4c0.5,0,1-0.1,1.3-0.3S436.6,180.3,436.6,180z"/>
	<path class="st2" d="M445.2,181c-0.3,0.4-0.6,0.8-1,1s-0.9,0.4-1.4,0.4c-0.9,0-1.6-0.3-2.1-0.9s-0.8-1.5-0.8-2.7V174h1.5v4.9
		c0,0.9,0.1,1.5,0.4,1.8c0.3,0.3,0.7,0.5,1.2,0.5c0.5,0,1-0.1,1.3-0.3c0.3-0.2,0.6-0.5,0.8-0.9v-6h1.5v8.3h-1.4L445.2,181z"/>
	<path class="st2" d="M455.8,178.4c0,1.2-0.3,2.2-0.9,2.9c-0.6,0.7-1.4,1.1-2.4,1.1c-0.5,0-1-0.1-1.3-0.3c-0.4-0.2-0.7-0.4-1-0.8v4
		h-1.5V174h1.2l0.2,1.1c0.3-0.4,0.6-0.7,1-0.9c0.4-0.2,0.9-0.3,1.4-0.3c1,0,1.8,0.4,2.4,1.2s0.9,1.9,0.9,3.2V178.4z M454.3,178.2
		c0-0.9-0.2-1.7-0.6-2.3c-0.4-0.6-0.9-0.9-1.6-0.9c-0.4,0-0.8,0.1-1.1,0.3c-0.3,0.2-0.6,0.5-0.7,0.8v4c0.2,0.3,0.4,0.6,0.7,0.8
		c0.3,0.2,0.7,0.3,1.1,0.3c0.7,0,1.3-0.3,1.6-0.8c0.4-0.5,0.5-1.2,0.5-2V178.2z"/>
	<path class="st2" d="M464.7,178.4c0,1.2-0.3,2.2-0.9,2.9c-0.6,0.7-1.4,1.1-2.4,1.1c-0.5,0-1-0.1-1.3-0.3c-0.4-0.2-0.7-0.4-1-0.8v4
		h-1.5V174h1.2l0.2,1.1c0.3-0.4,0.6-0.7,1-0.9c0.4-0.2,0.9-0.3,1.4-0.3c1,0,1.8,0.4,2.4,1.2s0.9,1.9,0.9,3.2V178.4z M463.2,178.2
		c0-0.9-0.2-1.7-0.6-2.3c-0.4-0.6-0.9-0.9-1.6-0.9c-0.4,0-0.8,0.1-1.1,0.3c-0.3,0.2-0.6,0.5-0.7,0.8v4c0.2,0.3,0.4,0.6,0.7,0.8
		c0.3,0.2,0.7,0.3,1.1,0.3c0.7,0,1.3-0.3,1.6-0.8c0.4-0.5,0.5-1.2,0.5-2V178.2z"/>
	<path class="st2" d="M468.2,182.2h-1.5v-11.9h1.5V182.2z"/>
	<path class="st2" d="M472.1,171.8h-1.5v-1.5h1.5V171.8z M472.1,182.2h-1.5V174h1.5V182.2z"/>
	<path class="st2" d="M477.9,182.4c-1.2,0-2.1-0.4-2.8-1.1c-0.7-0.8-1-1.8-1-3v-0.3c0-1.2,0.3-2.2,1-2.9c0.7-0.8,1.5-1.2,2.5-1.2
		c1.1,0,1.9,0.3,2.5,1c0.6,0.7,0.8,1.6,0.8,2.7v0.8h-5.3l0,0c0,0.8,0.2,1.5,0.5,2c0.4,0.5,0.9,0.8,1.7,0.8c0.5,0,1-0.1,1.3-0.2
		c0.4-0.1,0.7-0.3,1-0.6l0.6,1c-0.3,0.3-0.7,0.5-1.2,0.7C479.1,182.3,478.6,182.4,477.9,182.4z M477.6,175c-0.5,0-1,0.2-1.3,0.6
		c-0.3,0.4-0.6,0.9-0.6,1.6l0,0h3.7v-0.1c0-0.6-0.1-1.1-0.4-1.5C478.7,175.2,478.3,175,477.6,175z"/>
	<path class="st2" d="M487.4,180c0-0.3-0.1-0.6-0.4-0.8c-0.3-0.2-0.7-0.4-1.4-0.5c-1-0.2-1.7-0.5-2.2-0.9c-0.5-0.4-0.8-0.9-0.8-1.5
		c0-0.7,0.3-1.2,0.9-1.7c0.6-0.5,1.3-0.7,2.2-0.7c0.9,0,1.7,0.3,2.3,0.8s0.9,1.1,0.8,1.8l0,0h-1.4c0-0.4-0.2-0.7-0.5-1
		c-0.3-0.3-0.7-0.4-1.2-0.4c-0.5,0-0.9,0.1-1.2,0.4c-0.3,0.2-0.4,0.5-0.4,0.9c0,0.3,0.1,0.6,0.3,0.8c0.2,0.2,0.7,0.3,1.4,0.5
		c1,0.2,1.8,0.5,2.3,0.9c0.5,0.4,0.8,0.9,0.8,1.5c0,0.7-0.3,1.3-0.9,1.8s-1.4,0.7-2.3,0.7c-1.1,0-1.9-0.3-2.5-0.8
		c-0.6-0.5-0.9-1.2-0.9-1.9l0,0h1.4c0,0.5,0.2,0.9,0.6,1.2c0.4,0.2,0.8,0.4,1.3,0.4c0.5,0,1-0.1,1.3-0.3S487.4,180.3,487.4,180z"/>
	<path class="st2" d="M492.1,181.8l-1.1,2.3h-0.9l0.5-2.4v-1.2h1.5V181.8z"/>
	<path class="st2" d="M499.3,175.1c0.3-0.4,0.6-0.7,1-0.9c0.4-0.2,0.9-0.3,1.4-0.3c0.9,0,1.6,0.3,2.1,0.8s0.7,1.3,0.7,2.4v5.2H503
		V177c0-0.7-0.1-1.2-0.4-1.5c-0.3-0.3-0.7-0.5-1.3-0.5c-0.4,0-0.8,0.1-1.2,0.3c-0.3,0.2-0.6,0.4-0.8,0.7v6.2h-1.5v-11.9h1.5V175.1z"
		/>
</g>
<g class="st1">
	<path class="st2" d="M509.3,179.1l0.3,1h0l2-6.2h1.7l-3.5,9.5c-0.2,0.6-0.5,1-0.9,1.5c-0.4,0.4-0.9,0.6-1.6,0.6c-0.1,0-0.3,0-0.5,0
		c-0.2,0-0.3-0.1-0.4-0.1l0.2-1.2c0,0,0.1,0,0.3,0c0.2,0,0.3,0,0.4,0c0.3,0,0.6-0.1,0.8-0.4s0.4-0.6,0.5-0.9l0.4-0.9l-3.1-8.1h1.7
		L509.3,179.1z"/>
</g>
<g class="st1">
	<path class="st2" d="M514.2,178.2c0-1.3,0.3-2.4,0.9-3.2c0.6-0.8,1.4-1.2,2.4-1.2c0.5,0,1,0.1,1.4,0.3s0.7,0.5,1,0.9l0.2-1.1h1.2
		v8.3c0,1.1-0.3,1.9-0.9,2.4c-0.6,0.6-1.5,0.9-2.7,0.9c-0.4,0-0.8-0.1-1.3-0.2c-0.5-0.1-0.9-0.3-1.2-0.4l0.2-1.2
		c0.3,0.2,0.6,0.3,1,0.4c0.4,0.1,0.8,0.1,1.2,0.1c0.7,0,1.3-0.2,1.6-0.5s0.5-0.8,0.5-1.5v-0.9c-0.3,0.3-0.6,0.6-1,0.8
		c-0.4,0.2-0.8,0.3-1.3,0.3c-1,0-1.8-0.4-2.4-1.1c-0.6-0.7-0.9-1.7-0.9-2.9V178.2z M515.7,178.4c0,0.8,0.2,1.5,0.5,2
		s0.9,0.8,1.6,0.8c0.5,0,0.8-0.1,1.1-0.3s0.6-0.5,0.8-0.9v-3.8c-0.2-0.4-0.4-0.6-0.8-0.8s-0.7-0.3-1.1-0.3c-0.7,0-1.2,0.3-1.6,0.9
		c-0.3,0.6-0.5,1.4-0.5,2.3V178.4z"/>
	<path class="st2" d="M525,171.8h-1.5v-1.5h1.5V171.8z M525,182.2h-1.5V174h1.5V182.2z"/>
	<path class="st2" d="M530.7,182.4c-1.2,0-2.1-0.4-2.8-1.1c-0.7-0.8-1-1.8-1-3v-0.3c0-1.2,0.3-2.2,1-2.9c0.7-0.8,1.5-1.2,2.5-1.2
		c1.1,0,1.9,0.3,2.5,1s0.8,1.6,0.8,2.7v0.8h-5.3l0,0c0,0.8,0.2,1.5,0.5,2c0.4,0.5,0.9,0.8,1.7,0.8c0.5,0,1-0.1,1.3-0.2
		c0.4-0.1,0.7-0.3,1-0.6l0.6,1c-0.3,0.3-0.7,0.5-1.2,0.7C532,182.3,531.4,182.4,530.7,182.4z M530.5,175c-0.5,0-1,0.2-1.3,0.6
		c-0.3,0.4-0.6,0.9-0.6,1.6l0,0h3.7v-0.1c0-0.6-0.1-1.1-0.4-1.5S531.1,175,530.5,175z"/>
	<path class="st2" d="M536.8,174l0.1,1.2c0.3-0.4,0.6-0.8,1-1c0.4-0.2,0.9-0.4,1.4-0.4c0.9,0,1.6,0.3,2.1,0.8
		c0.5,0.5,0.7,1.3,0.7,2.4v5.2h-1.5V177c0-0.7-0.1-1.2-0.4-1.5c-0.3-0.3-0.7-0.5-1.3-0.5c-0.5,0-0.9,0.1-1.2,0.3
		c-0.3,0.2-0.6,0.4-0.8,0.8v6.1h-1.5V174H536.8z"/>
	<path class="st2" d="M547.8,182.4c-1.2,0-2.1-0.4-2.8-1.1c-0.7-0.8-1-1.8-1-3v-0.3c0-1.2,0.3-2.2,1-2.9c0.7-0.8,1.5-1.2,2.5-1.2
		c1.1,0,1.9,0.3,2.5,1c0.6,0.7,0.8,1.6,0.8,2.7v0.8h-5.3l0,0c0,0.8,0.2,1.5,0.5,2c0.4,0.5,0.9,0.8,1.7,0.8c0.5,0,1-0.1,1.3-0.2
		c0.4-0.1,0.7-0.3,1-0.6l0.6,1c-0.3,0.3-0.7,0.5-1.2,0.7C549.1,182.3,548.5,182.4,547.8,182.4z M547.6,175c-0.5,0-1,0.2-1.3,0.6
		c-0.3,0.4-0.6,0.9-0.6,1.6l0,0h3.7v-0.1c0-0.6-0.1-1.1-0.4-1.5C548.6,175.2,548.2,175,547.6,175z"/>
</g>
<g class="st1">
	<path class="st2" d="M281.4,197.2c0,1.2-0.3,2.2-0.9,2.9c-0.6,0.7-1.4,1.1-2.4,1.1c-0.5,0-1-0.1-1.3-0.3c-0.4-0.2-0.7-0.4-1-0.8v4
		h-1.5v-11.4h1.2l0.2,1.1c0.3-0.4,0.6-0.7,1-0.9c0.4-0.2,0.9-0.3,1.4-0.3c1,0,1.8,0.4,2.4,1.2s0.9,1.9,0.9,3.2V197.2z M279.9,197
		c0-0.9-0.2-1.7-0.6-2.3c-0.4-0.6-0.9-0.9-1.6-0.9c-0.4,0-0.8,0.1-1.1,0.3c-0.3,0.2-0.6,0.5-0.7,0.8v4c0.2,0.3,0.4,0.6,0.7,0.8
		c0.3,0.2,0.7,0.3,1.1,0.3c0.7,0,1.3-0.3,1.6-0.8s0.5-1.2,0.5-2V197z"/>
	<path class="st2" d="M288.3,201c-0.1-0.2-0.1-0.5-0.1-0.7s0-0.4,0-0.6c-0.3,0.4-0.6,0.7-1.1,1c-0.5,0.3-0.9,0.4-1.5,0.4
		c-0.9,0-1.5-0.2-2-0.7c-0.5-0.4-0.7-1-0.7-1.8c0-0.8,0.3-1.4,1-1.9s1.5-0.7,2.6-0.7h1.6v-0.8c0-0.5-0.1-0.9-0.4-1.1
		s-0.7-0.4-1.3-0.4c-0.5,0-0.9,0.1-1.2,0.4s-0.5,0.5-0.5,0.9l-1.4,0l0,0c0-0.6,0.2-1.2,0.8-1.6c0.6-0.5,1.4-0.7,2.3-0.7
		c0.9,0,1.7,0.2,2.3,0.7c0.6,0.5,0.9,1.2,0.9,2.1v4c0,0.3,0,0.6,0,0.9c0,0.3,0.1,0.5,0.2,0.8H288.3z M285.8,199.9
		c0.5,0,1-0.1,1.5-0.4c0.4-0.3,0.7-0.6,0.9-1v-1.3h-1.7c-0.6,0-1.1,0.2-1.5,0.5c-0.4,0.3-0.5,0.7-0.5,1.1c0,0.4,0.1,0.7,0.3,0.9
		C285,199.8,285.4,199.9,285.8,199.9z"/>
	<path class="st2" d="M295.1,200c0.5,0,0.9-0.2,1.2-0.5c0.3-0.3,0.5-0.7,0.5-1.1h1.4l0,0c0,0.7-0.3,1.3-0.9,1.9
		c-0.6,0.6-1.4,0.8-2.2,0.8c-1.2,0-2.1-0.4-2.7-1.2c-0.6-0.8-0.9-1.8-0.9-2.9v-0.3c0-1.2,0.3-2.1,1-2.9c0.6-0.8,1.5-1.2,2.7-1.2
		c0.9,0,1.7,0.3,2.3,0.9c0.6,0.6,0.9,1.3,0.9,2.1l0,0h-1.4c0-0.5-0.2-0.9-0.5-1.3c-0.3-0.4-0.7-0.5-1.2-0.5c-0.7,0-1.3,0.3-1.6,0.9
		c-0.3,0.6-0.5,1.3-0.5,2.1v0.3c0,0.8,0.2,1.5,0.5,2.1C293.8,199.7,294.4,200,295.1,200z"/>
	<path class="st2" d="M302.3,197.2h-0.8v3.8H300v-11.9h1.5v6.9h0.8l2.5-3.3h1.8l-3,3.8l3.3,4.4H305L302.3,197.2z"/>
	<path class="st2" d="M313.1,201c-0.1-0.2-0.1-0.5-0.1-0.7c0-0.2,0-0.4,0-0.6c-0.3,0.4-0.6,0.7-1.1,1c-0.5,0.3-0.9,0.4-1.5,0.4
		c-0.9,0-1.5-0.2-2-0.7c-0.5-0.4-0.7-1-0.7-1.8c0-0.8,0.3-1.4,1-1.9c0.6-0.4,1.5-0.7,2.6-0.7h1.6v-0.8c0-0.5-0.1-0.9-0.4-1.1
		c-0.3-0.3-0.7-0.4-1.3-0.4c-0.5,0-0.9,0.1-1.2,0.4c-0.3,0.2-0.5,0.5-0.5,0.9l-1.4,0l0,0c0-0.6,0.2-1.2,0.8-1.6
		c0.6-0.5,1.4-0.7,2.3-0.7c0.9,0,1.7,0.2,2.3,0.7c0.6,0.5,0.9,1.2,0.9,2.1v4c0,0.3,0,0.6,0,0.9c0,0.3,0.1,0.5,0.2,0.8H313.1z
		 M310.6,199.9c0.5,0,1-0.1,1.5-0.4c0.4-0.3,0.7-0.6,0.9-1v-1.3h-1.7c-0.6,0-1.1,0.2-1.5,0.5c-0.4,0.3-0.5,0.7-0.5,1.1
		c0,0.4,0.1,0.7,0.3,0.9C309.8,199.8,310.2,199.9,310.6,199.9z"/>
	<path class="st2" d="M316.3,197c0-1.3,0.3-2.4,0.9-3.2c0.6-0.8,1.4-1.2,2.4-1.2c0.5,0,1,0.1,1.4,0.3s0.7,0.5,1,0.9l0.2-1.1h1.2v8.3
		c0,1.1-0.3,1.9-0.9,2.4c-0.6,0.6-1.5,0.9-2.7,0.9c-0.4,0-0.8-0.1-1.3-0.2c-0.5-0.1-0.9-0.3-1.2-0.4l0.2-1.2c0.3,0.2,0.6,0.3,1,0.4
		c0.4,0.1,0.8,0.1,1.2,0.1c0.7,0,1.3-0.2,1.6-0.5s0.5-0.8,0.5-1.5v-0.9c-0.3,0.3-0.6,0.6-1,0.8c-0.4,0.2-0.8,0.3-1.3,0.3
		c-1,0-1.8-0.4-2.4-1.1c-0.6-0.7-0.9-1.7-0.9-2.9V197z M317.9,197.2c0,0.8,0.2,1.5,0.5,2s0.9,0.8,1.6,0.8c0.5,0,0.8-0.1,1.1-0.3
		s0.6-0.5,0.8-0.9v-3.8c-0.2-0.4-0.4-0.6-0.8-0.8s-0.7-0.3-1.1-0.3c-0.7,0-1.2,0.3-1.6,0.9c-0.3,0.6-0.5,1.4-0.5,2.3V197.2z"/>
	<path class="st2" d="M328.9,201.1c-1.2,0-2.1-0.4-2.8-1.1c-0.7-0.8-1-1.8-1-3v-0.3c0-1.2,0.3-2.2,1-2.9c0.7-0.8,1.5-1.2,2.5-1.2
		c1.1,0,1.9,0.3,2.5,1c0.6,0.7,0.8,1.6,0.8,2.7v0.8h-5.3l0,0c0,0.8,0.2,1.5,0.5,2c0.4,0.5,0.9,0.8,1.7,0.8c0.5,0,1-0.1,1.3-0.2
		c0.4-0.1,0.7-0.3,1-0.6l0.6,1c-0.3,0.3-0.7,0.5-1.2,0.7C330.2,201,329.6,201.1,328.9,201.1z M328.7,193.7c-0.5,0-1,0.2-1.3,0.6
		c-0.3,0.4-0.6,0.9-0.6,1.6l0,0h3.7v-0.1c0-0.6-0.1-1.1-0.4-1.5C329.8,193.9,329.3,193.7,328.7,193.7z"/>
	<path class="st2" d="M338.5,198.7c0-0.3-0.1-0.6-0.4-0.8c-0.3-0.2-0.7-0.4-1.4-0.5c-1-0.2-1.7-0.5-2.2-0.9
		c-0.5-0.4-0.8-0.9-0.8-1.5c0-0.7,0.3-1.2,0.9-1.7c0.6-0.5,1.3-0.7,2.2-0.7c0.9,0,1.7,0.3,2.3,0.8s0.9,1.1,0.8,1.8l0,0h-1.4
		c0-0.4-0.2-0.7-0.5-1s-0.7-0.4-1.2-0.4c-0.5,0-0.9,0.1-1.2,0.4c-0.3,0.2-0.4,0.5-0.4,0.9c0,0.3,0.1,0.6,0.3,0.8
		c0.2,0.2,0.7,0.3,1.4,0.5c1,0.2,1.8,0.5,2.3,0.9c0.5,0.4,0.8,0.9,0.8,1.5c0,0.7-0.3,1.3-0.9,1.8c-0.6,0.5-1.4,0.7-2.3,0.7
		c-1.1,0-1.9-0.3-2.5-0.8c-0.6-0.5-0.9-1.2-0.9-1.9l0,0h1.4c0,0.5,0.2,0.9,0.6,1.2c0.4,0.2,0.8,0.4,1.3,0.4c0.5,0,1-0.1,1.3-0.3
		S338.5,199.1,338.5,198.7z"/>
	<path class="st2" d="M343.2,200.6l-1.1,2.3h-0.9l0.5-2.4v-1.2h1.5V200.6z"/>
	<path class="st2" d="M353.9,201c-0.1-0.2-0.1-0.5-0.1-0.7s0-0.4,0-0.6c-0.3,0.4-0.6,0.7-1.1,1c-0.5,0.3-0.9,0.4-1.5,0.4
		c-0.9,0-1.5-0.2-2-0.7c-0.5-0.4-0.7-1-0.7-1.8c0-0.8,0.3-1.4,1-1.9s1.5-0.7,2.6-0.7h1.6v-0.8c0-0.5-0.1-0.9-0.4-1.1
		s-0.7-0.4-1.3-0.4c-0.5,0-0.9,0.1-1.2,0.4s-0.5,0.5-0.5,0.9l-1.4,0l0,0c0-0.6,0.2-1.2,0.8-1.6c0.6-0.5,1.4-0.7,2.3-0.7
		c0.9,0,1.7,0.2,2.3,0.7c0.6,0.5,0.9,1.2,0.9,2.1v4c0,0.3,0,0.6,0,0.9c0,0.3,0.1,0.5,0.2,0.8H353.9z M351.4,199.9
		c0.5,0,1-0.1,1.5-0.4c0.4-0.3,0.7-0.6,0.9-1v-1.3H352c-0.6,0-1.1,0.2-1.5,0.5c-0.4,0.3-0.5,0.7-0.5,1.1c0,0.4,0.1,0.7,0.3,0.9
		C350.6,199.8,351,199.9,351.4,199.9z"/>
	<path class="st2" d="M358.8,192.7l0.1,1.2c0.3-0.4,0.6-0.8,1-1c0.4-0.2,0.9-0.4,1.4-0.4c0.9,0,1.6,0.3,2.1,0.8
		c0.5,0.5,0.7,1.3,0.7,2.4v5.2h-1.5v-5.2c0-0.7-0.1-1.2-0.4-1.5c-0.3-0.3-0.7-0.5-1.3-0.5c-0.5,0-0.9,0.1-1.2,0.3
		c-0.3,0.2-0.6,0.4-0.8,0.8v6.1h-1.5v-8.3H358.8z"/>
	<path class="st2" d="M368.4,190.7v2h1.6v1.1h-1.6v5c0,0.4,0.1,0.7,0.2,0.8c0.2,0.2,0.4,0.2,0.6,0.2c0.1,0,0.2,0,0.3,0
		c0.1,0,0.2,0,0.3-0.1l0.2,1c-0.1,0.1-0.3,0.2-0.5,0.2s-0.4,0.1-0.6,0.1c-0.6,0-1.1-0.2-1.5-0.6c-0.4-0.4-0.5-0.9-0.5-1.7v-5h-1.3
		v-1.1h1.3v-2H368.4z"/>
	<path class="st2" d="M373.2,190.6h-1.5v-1.5h1.5V190.6z M373.2,201h-1.5v-8.3h1.5V201z"/>
</g>
<g class="st1">
	<path class="st2" d="M379.4,194l-0.8,0c-0.4,0-0.7,0.1-1,0.3c-0.3,0.2-0.5,0.5-0.6,0.8v5.9h-1.5v-8.3h1.3l0.1,1.2
		c0.2-0.4,0.5-0.8,0.9-1c0.3-0.2,0.7-0.4,1.2-0.4c0.1,0,0.2,0,0.3,0c0.1,0,0.2,0,0.3,0.1L379.4,194z"/>
</g>
<g class="st1">
	<path class="st2" d="M384.3,201.1c-1.2,0-2.1-0.4-2.8-1.1c-0.7-0.8-1-1.8-1-3v-0.3c0-1.2,0.3-2.2,1-2.9c0.7-0.8,1.5-1.2,2.5-1.2
		c1.1,0,1.9,0.3,2.5,1c0.6,0.7,0.8,1.6,0.8,2.7v0.8h-5.3l0,0c0,0.8,0.2,1.5,0.5,2c0.4,0.5,0.9,0.8,1.7,0.8c0.5,0,1-0.1,1.3-0.2
		c0.4-0.1,0.7-0.3,1-0.6l0.6,1c-0.3,0.3-0.7,0.5-1.2,0.7C385.5,201,385,201.1,384.3,201.1z M384,193.7c-0.5,0-1,0.2-1.3,0.6
		c-0.3,0.4-0.6,0.9-0.6,1.6l0,0h3.7v-0.1c0-0.6-0.1-1.1-0.4-1.5S384.7,193.7,384,193.7z"/>
	<path class="st2" d="M391.1,190.7v2h1.6v1.1h-1.6v5c0,0.4,0.1,0.7,0.2,0.8c0.2,0.2,0.4,0.2,0.6,0.2c0.1,0,0.2,0,0.3,0
		c0.1,0,0.2,0,0.3-0.1l0.2,1c-0.1,0.1-0.3,0.2-0.5,0.2s-0.4,0.1-0.6,0.1c-0.6,0-1.1-0.2-1.5-0.6c-0.4-0.4-0.5-0.9-0.5-1.7v-5h-1.3
		v-1.1h1.3v-2H391.1z"/>
</g>
<g class="st1">
	<path class="st2" d="M398.2,194l-0.8,0c-0.4,0-0.7,0.1-1,0.3c-0.3,0.2-0.5,0.5-0.6,0.8v5.9h-1.5v-8.3h1.3l0.1,1.2
		c0.2-0.4,0.5-0.8,0.9-1c0.3-0.2,0.7-0.4,1.2-0.4c0.1,0,0.2,0,0.3,0c0.1,0,0.2,0,0.3,0.1L398.2,194z"/>
</g>
<g class="st1">
	<path class="st2" d="M399.3,196.8c0-1.2,0.3-2.2,1-3s1.6-1.2,2.7-1.2c1.1,0,2,0.4,2.7,1.2c0.7,0.8,1,1.8,1,3v0.2c0,1.2-0.3,2.2-1,3
		c-0.7,0.8-1.6,1.2-2.7,1.2c-1.1,0-2-0.4-2.7-1.2s-1-1.8-1-3V196.8z M400.8,196.9c0,0.9,0.2,1.6,0.6,2.2c0.4,0.6,0.9,0.9,1.6,0.9
		c0.7,0,1.3-0.3,1.6-0.9c0.4-0.6,0.6-1.3,0.6-2.2v-0.2c0-0.9-0.2-1.6-0.6-2.2c-0.4-0.6-0.9-0.9-1.6-0.9c-0.7,0-1.3,0.3-1.6,0.9
		c-0.4,0.6-0.6,1.3-0.6,2.2V196.9z"/>
</g>
<g class="st1">
	<path class="st2" d="M411.2,198.5l0.1,0.6h0l0.1-0.6l1.9-5.8h1.5l-3,8.3h-1.1l-3.1-8.3h1.5L411.2,198.5z"/>
	<path class="st2" d="M417.9,190.6h-1.5v-1.5h1.5V190.6z M417.9,201h-1.5v-8.3h1.5V201z"/>
	<path class="st2" d="M424.1,194l-0.8,0c-0.4,0-0.7,0.1-1,0.3c-0.3,0.2-0.5,0.5-0.6,0.8v5.9h-1.5v-8.3h1.3l0.1,1.2
		c0.2-0.4,0.5-0.8,0.9-1c0.3-0.2,0.7-0.4,1.2-0.4c0.1,0,0.2,0,0.3,0c0.1,0,0.2,0,0.3,0.1L424.1,194z"/>
	<path class="st2" d="M430.8,201c-0.1-0.2-0.1-0.5-0.1-0.7c0-0.2,0-0.4,0-0.6c-0.3,0.4-0.6,0.7-1.1,1c-0.5,0.3-0.9,0.4-1.5,0.4
		c-0.9,0-1.5-0.2-2-0.7c-0.5-0.4-0.7-1-0.7-1.8c0-0.8,0.3-1.4,1-1.9c0.6-0.4,1.5-0.7,2.6-0.7h1.6v-0.8c0-0.5-0.1-0.9-0.4-1.1
		c-0.3-0.3-0.7-0.4-1.3-0.4c-0.5,0-0.9,0.1-1.2,0.4c-0.3,0.2-0.5,0.5-0.5,0.9l-1.4,0l0,0c0-0.6,0.2-1.2,0.8-1.6
		c0.6-0.5,1.4-0.7,2.3-0.7c0.9,0,1.7,0.2,2.3,0.7c0.6,0.5,0.9,1.2,0.9,2.1v4c0,0.3,0,0.6,0,0.9c0,0.3,0.1,0.5,0.2,0.8H430.8z
		 M428.3,199.9c0.5,0,1-0.1,1.5-0.4c0.4-0.3,0.7-0.6,0.9-1v-1.3h-1.7c-0.6,0-1.1,0.2-1.5,0.5c-0.4,0.3-0.5,0.7-0.5,1.1
		c0,0.4,0.1,0.7,0.3,0.9C427.5,199.8,427.8,199.9,428.3,199.9z"/>
	<path class="st2" d="M435.9,201h-1.5v-11.9h1.5V201z"/>
	<path class="st2" d="M441.8,197c0-1.3,0.3-2.4,0.9-3.2c0.6-0.8,1.4-1.2,2.4-1.2c0.5,0,0.9,0.1,1.3,0.3c0.4,0.2,0.7,0.4,1,0.8v-4.5
		h1.5V201h-1.2l-0.2-1c-0.3,0.4-0.6,0.7-1,0.9c-0.4,0.2-0.9,0.3-1.4,0.3c-1,0-1.8-0.4-2.4-1.1c-0.6-0.7-0.9-1.7-0.9-2.9V197z
		 M443.3,197.2c0,0.8,0.2,1.5,0.5,2s0.9,0.8,1.6,0.8c0.4,0,0.8-0.1,1.1-0.3c0.3-0.2,0.6-0.5,0.7-0.9v-3.9c-0.2-0.3-0.4-0.6-0.8-0.8
		c-0.3-0.2-0.7-0.3-1.1-0.3c-0.7,0-1.3,0.3-1.6,0.9c-0.3,0.6-0.5,1.4-0.5,2.3V197.2z"/>
	<path class="st2" d="M454.9,194l-0.8,0c-0.4,0-0.7,0.1-1,0.3c-0.3,0.2-0.5,0.5-0.6,0.8v5.9H451v-8.3h1.3l0.1,1.2
		c0.2-0.4,0.5-0.8,0.9-1c0.3-0.2,0.7-0.4,1.2-0.4c0.1,0,0.2,0,0.3,0c0.1,0,0.2,0,0.3,0.1L454.9,194z"/>
	<path class="st2" d="M461.7,199.7c-0.3,0.4-0.6,0.8-1,1s-0.9,0.4-1.4,0.4c-0.9,0-1.6-0.3-2.1-0.9s-0.8-1.5-0.8-2.7v-4.9h1.5v4.9
		c0,0.9,0.1,1.5,0.4,1.8c0.3,0.3,0.7,0.5,1.2,0.5c0.5,0,1-0.1,1.3-0.3c0.3-0.2,0.6-0.5,0.8-0.9v-6h1.5v8.3h-1.4L461.7,199.7z"/>
	<path class="st2" d="M465.1,197c0-1.3,0.3-2.4,0.9-3.2c0.6-0.8,1.4-1.2,2.4-1.2c0.5,0,1,0.1,1.4,0.3s0.7,0.5,1,0.9l0.2-1.1h1.2v8.3
		c0,1.1-0.3,1.9-0.9,2.4c-0.6,0.6-1.5,0.9-2.7,0.9c-0.4,0-0.8-0.1-1.3-0.2c-0.5-0.1-0.9-0.3-1.2-0.4l0.2-1.2c0.3,0.2,0.6,0.3,1,0.4
		c0.4,0.1,0.8,0.1,1.2,0.1c0.7,0,1.3-0.2,1.6-0.5s0.5-0.8,0.5-1.5v-0.9c-0.3,0.3-0.6,0.6-1,0.8c-0.4,0.2-0.8,0.3-1.3,0.3
		c-1,0-1.8-0.4-2.4-1.1c-0.6-0.7-0.9-1.7-0.9-2.9V197z M466.6,197.2c0,0.8,0.2,1.5,0.5,2s0.9,0.8,1.6,0.8c0.5,0,0.8-0.1,1.1-0.3
		s0.6-0.5,0.8-0.9v-3.8c-0.2-0.4-0.4-0.6-0.8-0.8s-0.7-0.3-1.1-0.3c-0.7,0-1.2,0.3-1.6,0.9c-0.3,0.6-0.5,1.4-0.5,2.3V197.2z"/>
	<path class="st2" d="M477.8,197c0-1.3,0.3-2.4,0.9-3.2c0.6-0.8,1.4-1.2,2.4-1.2c0.5,0,0.9,0.1,1.3,0.3c0.4,0.2,0.7,0.4,1,0.8v-4.5
		h1.5V201h-1.2l-0.2-1c-0.3,0.4-0.6,0.7-1,0.9c-0.4,0.2-0.9,0.3-1.4,0.3c-1,0-1.8-0.4-2.4-1.1c-0.6-0.7-0.9-1.7-0.9-2.9V197z
		 M479.3,197.2c0,0.8,0.2,1.5,0.5,2s0.9,0.8,1.6,0.8c0.4,0,0.8-0.1,1.1-0.3c0.3-0.2,0.6-0.5,0.7-0.9v-3.9c-0.2-0.3-0.4-0.6-0.8-0.8
		c-0.3-0.2-0.7-0.3-1.1-0.3c-0.7,0-1.3,0.3-1.6,0.9c-0.3,0.6-0.5,1.4-0.5,2.3V197.2z"/>
	<path class="st2" d="M490.4,201.1c-1.2,0-2.1-0.4-2.8-1.1c-0.7-0.8-1-1.8-1-3v-0.3c0-1.2,0.3-2.2,1-2.9c0.7-0.8,1.5-1.2,2.5-1.2
		c1.1,0,1.9,0.3,2.5,1s0.8,1.6,0.8,2.7v0.8h-5.3l0,0c0,0.8,0.2,1.5,0.5,2c0.4,0.5,0.9,0.8,1.7,0.8c0.5,0,1-0.1,1.3-0.2
		c0.4-0.1,0.7-0.3,1-0.6l0.6,1c-0.3,0.3-0.7,0.5-1.2,0.7C491.7,201,491.1,201.1,490.4,201.1z M490.2,193.7c-0.5,0-1,0.2-1.3,0.6
		c-0.3,0.4-0.6,0.9-0.6,1.6l0,0h3.7v-0.1c0-0.6-0.1-1.1-0.4-1.5S490.8,193.7,490.2,193.7z"/>
	<path class="st2" d="M496.8,201h-1.5v-11.9h1.5V201z"/>
	<path class="st2" d="M500.7,190.6h-1.5v-1.5h1.5V190.6z M500.7,201h-1.5v-8.3h1.5V201z"/>
</g>
<g class="st1">
	<path class="st2" d="M505.8,198.5l0.1,0.6h0l0.1-0.6l1.9-5.8h1.5l-3,8.3h-1.1l-3.1-8.3h1.5L505.8,198.5z"/>
</g>
<g class="st1">
	<path class="st2" d="M514.2,201.1c-1.2,0-2.1-0.4-2.8-1.1c-0.7-0.8-1-1.8-1-3v-0.3c0-1.2,0.3-2.2,1-2.9c0.7-0.8,1.5-1.2,2.5-1.2
		c1.1,0,1.9,0.3,2.5,1s0.8,1.6,0.8,2.7v0.8H512l0,0c0,0.8,0.2,1.5,0.5,2c0.4,0.5,0.9,0.8,1.7,0.8c0.5,0,1-0.1,1.3-0.2
		c0.4-0.1,0.7-0.3,1-0.6l0.6,1c-0.3,0.3-0.7,0.5-1.2,0.7C515.5,201,514.9,201.1,514.2,201.1z M514,193.7c-0.5,0-1,0.2-1.3,0.6
		c-0.3,0.4-0.6,0.9-0.6,1.6l0,0h3.7v-0.1c0-0.6-0.1-1.1-0.4-1.5S514.6,193.7,514,193.7z"/>
</g>
<g class="st1">
	<path class="st2" d="M522.9,194l-0.8,0c-0.4,0-0.7,0.1-1,0.3c-0.3,0.2-0.5,0.5-0.6,0.8v5.9H519v-8.3h1.3l0.1,1.2
		c0.2-0.4,0.5-0.8,0.9-1c0.3-0.2,0.7-0.4,1.2-0.4c0.1,0,0.2,0,0.3,0c0.1,0,0.2,0,0.3,0.1L522.9,194z"/>
</g>
<g class="st1">
	<path class="st2" d="M527.2,197.9l0.3,1h0l2-6.2h1.7l-3.5,9.5c-0.2,0.6-0.5,1-0.9,1.5c-0.4,0.4-0.9,0.6-1.6,0.6c-0.1,0-0.3,0-0.5,0
		s-0.3-0.1-0.4-0.1l0.2-1.2c0,0,0.1,0,0.3,0c0.2,0,0.3,0,0.4,0c0.3,0,0.6-0.1,0.8-0.4c0.2-0.3,0.4-0.6,0.5-0.9l0.4-0.9l-3.1-8.1h1.7
		L527.2,197.9z"/>
</g>
<g class="st1">
	<path class="st2" d="M533,200.6l-1.1,2.3h-0.9l0.5-2.4v-1.2h1.5V200.6z"/>
</g>
<g class="st1">
	<path class="st2" d="M311.2,219.7c-0.1-0.2-0.1-0.5-0.1-0.7c0-0.2,0-0.4,0-0.6c-0.3,0.4-0.6,0.7-1.1,1c-0.5,0.3-0.9,0.4-1.5,0.4
		c-0.9,0-1.5-0.2-2-0.7c-0.5-0.4-0.7-1-0.7-1.8c0-0.8,0.3-1.4,1-1.9c0.6-0.4,1.5-0.7,2.6-0.7h1.6v-0.8c0-0.5-0.1-0.9-0.4-1.1
		c-0.3-0.3-0.7-0.4-1.3-0.4c-0.5,0-0.9,0.1-1.2,0.4c-0.3,0.2-0.5,0.5-0.5,0.9l-1.4,0l0,0c0-0.6,0.2-1.2,0.8-1.6
		c0.6-0.5,1.4-0.7,2.3-0.7c0.9,0,1.7,0.2,2.3,0.7c0.6,0.5,0.9,1.2,0.9,2.1v4c0,0.3,0,0.6,0,0.9c0,0.3,0.1,0.5,0.2,0.8H311.2z
		 M308.7,218.6c0.5,0,1-0.1,1.5-0.4c0.4-0.3,0.7-0.6,0.9-1v-1.3h-1.7c-0.6,0-1.1,0.2-1.5,0.5c-0.4,0.3-0.5,0.7-0.5,1.1
		c0,0.4,0.1,0.7,0.3,0.9C307.9,218.5,308.3,218.6,308.7,218.6z"/>
	<path class="st2" d="M316.1,211.5l0.1,1.2c0.3-0.4,0.6-0.8,1-1c0.4-0.2,0.9-0.4,1.4-0.4c0.9,0,1.6,0.3,2.1,0.8
		c0.5,0.5,0.7,1.3,0.7,2.4v5.2h-1.5v-5.2c0-0.7-0.1-1.2-0.4-1.5c-0.3-0.3-0.7-0.5-1.3-0.5c-0.5,0-0.9,0.1-1.2,0.3
		c-0.3,0.2-0.6,0.4-0.8,0.8v6.1h-1.5v-8.3H316.1z"/>
	<path class="st2" d="M323.3,215.8c0-1.3,0.3-2.4,0.9-3.2c0.6-0.8,1.4-1.2,2.4-1.2c0.5,0,0.9,0.1,1.3,0.3c0.4,0.2,0.7,0.4,1,0.8
		v-4.5h1.5v11.9h-1.2l-0.2-1c-0.3,0.4-0.6,0.7-1,0.9c-0.4,0.2-0.9,0.3-1.4,0.3c-1,0-1.8-0.4-2.4-1.1c-0.6-0.7-0.9-1.7-0.9-2.9V215.8
		z M324.8,215.9c0,0.8,0.2,1.5,0.5,2s0.9,0.8,1.6,0.8c0.4,0,0.8-0.1,1.1-0.3c0.3-0.2,0.6-0.5,0.7-0.9v-3.9c-0.2-0.3-0.4-0.6-0.8-0.8
		c-0.3-0.2-0.7-0.3-1.1-0.3c-0.7,0-1.3,0.3-1.6,0.9c-0.3,0.6-0.5,1.4-0.5,2.3V215.9z"/>
	<path class="st2" d="M341.2,217.5c0-0.3-0.1-0.6-0.4-0.8c-0.3-0.2-0.7-0.4-1.4-0.5c-1-0.2-1.7-0.5-2.2-0.9
		c-0.5-0.4-0.8-0.9-0.8-1.5c0-0.7,0.3-1.2,0.9-1.7c0.6-0.5,1.3-0.7,2.2-0.7c0.9,0,1.7,0.3,2.3,0.8s0.9,1.1,0.8,1.8l0,0h-1.4
		c0-0.4-0.2-0.7-0.5-1s-0.7-0.4-1.2-0.4c-0.5,0-0.9,0.1-1.2,0.4c-0.3,0.2-0.4,0.5-0.4,0.9c0,0.3,0.1,0.6,0.3,0.8
		c0.2,0.2,0.7,0.3,1.4,0.5c1,0.2,1.8,0.5,2.3,0.9c0.5,0.4,0.8,0.9,0.8,1.5c0,0.7-0.3,1.3-0.9,1.8c-0.6,0.5-1.4,0.7-2.3,0.7
		c-1.1,0-1.9-0.3-2.5-0.8c-0.6-0.5-0.9-1.2-0.9-1.9l0,0h1.4c0,0.5,0.2,0.9,0.6,1.2c0.4,0.2,0.8,0.4,1.3,0.4c0.5,0,1-0.1,1.3-0.3
		S341.2,217.9,341.2,217.5z"/>
	<path class="st2" d="M348,219.9c-1.2,0-2.1-0.4-2.8-1.1c-0.7-0.8-1-1.8-1-3v-0.3c0-1.2,0.3-2.2,1-2.9c0.7-0.8,1.5-1.2,2.5-1.2
		c1.1,0,1.9,0.3,2.5,1s0.8,1.6,0.8,2.7v0.8h-5.3l0,0c0,0.8,0.2,1.5,0.5,2c0.4,0.5,0.9,0.8,1.7,0.8c0.5,0,1-0.1,1.3-0.2
		c0.4-0.1,0.7-0.3,1-0.6l0.6,1c-0.3,0.3-0.7,0.5-1.2,0.7C349.2,219.8,348.7,219.9,348,219.9z M347.7,212.5c-0.5,0-1,0.2-1.3,0.6
		c-0.3,0.4-0.6,0.9-0.6,1.6l0,0h3.7v-0.1c0-0.6-0.1-1.1-0.4-1.5S348.4,212.5,347.7,212.5z"/>
	<path class="st2" d="M354.4,219.7h-1.5v-11.9h1.5V219.7z"/>
	<path class="st2" d="M357.3,219.7v-7.1H356v-1.1h1.3v-1c0-0.9,0.2-1.6,0.7-2c0.5-0.5,1.1-0.7,1.9-0.7c0.2,0,0.3,0,0.5,0
		c0.2,0,0.4,0.1,0.6,0.1l-0.2,1.1c-0.1,0-0.2,0-0.3-0.1c-0.1,0-0.3,0-0.4,0c-0.4,0-0.8,0.1-1,0.4c-0.2,0.3-0.3,0.6-0.3,1.1v1h1.5
		v1.1h-1.5v7.1H357.3z"/>
	<path class="st2" d="M366.5,215.6H362v-1.2h4.5V215.6z"/>
	<path class="st2" d="M368.5,215.8c0-1.3,0.3-2.4,0.9-3.2c0.6-0.8,1.4-1.2,2.4-1.2c0.5,0,0.9,0.1,1.3,0.3s0.7,0.5,1,0.8l0.2-1h1.2
		v11.4h-1.5v-4c-0.3,0.3-0.6,0.5-0.9,0.7c-0.4,0.2-0.8,0.2-1.2,0.2c-1,0-1.8-0.4-2.4-1.1c-0.6-0.7-0.9-1.7-0.9-2.9V215.8z
		 M370,215.9c0,0.8,0.2,1.5,0.5,2c0.3,0.5,0.9,0.8,1.6,0.8c0.4,0,0.8-0.1,1.1-0.3c0.3-0.2,0.5-0.4,0.7-0.8v-4.2
		c-0.2-0.3-0.4-0.6-0.7-0.7c-0.3-0.2-0.6-0.3-1-0.3c-0.7,0-1.2,0.3-1.6,0.9c-0.3,0.6-0.5,1.4-0.5,2.3V215.9z"/>
	<path class="st2" d="M383,218.5c-0.3,0.4-0.6,0.8-1,1s-0.9,0.4-1.4,0.4c-0.9,0-1.6-0.3-2.1-0.9s-0.8-1.5-0.8-2.7v-4.9h1.5v4.9
		c0,0.9,0.1,1.5,0.4,1.8c0.3,0.3,0.7,0.5,1.2,0.5c0.5,0,1-0.1,1.3-0.3c0.3-0.2,0.6-0.5,0.8-0.9v-6h1.5v8.3h-1.4L383,218.5z"/>
	<path class="st2" d="M391.7,219.7c-0.1-0.2-0.1-0.5-0.1-0.7s0-0.4,0-0.6c-0.3,0.4-0.6,0.7-1.1,1c-0.5,0.3-0.9,0.4-1.5,0.4
		c-0.9,0-1.5-0.2-2-0.7c-0.5-0.4-0.7-1-0.7-1.8c0-0.8,0.3-1.4,1-1.9s1.5-0.7,2.6-0.7h1.6v-0.8c0-0.5-0.1-0.9-0.4-1.1
		s-0.7-0.4-1.3-0.4c-0.5,0-0.9,0.1-1.2,0.4s-0.5,0.5-0.5,0.9l-1.4,0l0,0c0-0.6,0.2-1.2,0.8-1.6c0.6-0.5,1.4-0.7,2.3-0.7
		c0.9,0,1.7,0.2,2.3,0.7c0.6,0.5,0.9,1.2,0.9,2.1v4c0,0.3,0,0.6,0,0.9c0,0.3,0.1,0.5,0.2,0.8H391.7z M389.2,218.6
		c0.5,0,1-0.1,1.5-0.4c0.4-0.3,0.7-0.6,0.9-1v-1.3h-1.7c-0.6,0-1.1,0.2-1.5,0.5c-0.4,0.3-0.5,0.7-0.5,1.1c0,0.4,0.1,0.7,0.3,0.9
		C388.4,218.5,388.8,218.6,389.2,218.6z"/>
	<path class="st2" d="M399.1,212.8l-0.8,0c-0.4,0-0.7,0.1-1,0.3c-0.3,0.2-0.5,0.5-0.6,0.8v5.9h-1.5v-8.3h1.3l0.1,1.2
		c0.2-0.4,0.5-0.8,0.9-1c0.3-0.2,0.7-0.4,1.2-0.4c0.1,0,0.2,0,0.3,0c0.1,0,0.2,0,0.3,0.1L399.1,212.8z"/>
	<path class="st2" d="M405.8,219.7c-0.1-0.2-0.1-0.5-0.1-0.7c0-0.2,0-0.4,0-0.6c-0.3,0.4-0.6,0.7-1.1,1c-0.5,0.3-0.9,0.4-1.5,0.4
		c-0.9,0-1.5-0.2-2-0.7c-0.5-0.4-0.7-1-0.7-1.8c0-0.8,0.3-1.4,1-1.9c0.6-0.4,1.5-0.7,2.6-0.7h1.6v-0.8c0-0.5-0.1-0.9-0.4-1.1
		c-0.3-0.3-0.7-0.4-1.3-0.4c-0.5,0-0.9,0.1-1.2,0.4c-0.3,0.2-0.5,0.5-0.5,0.9l-1.4,0l0,0c0-0.6,0.2-1.2,0.8-1.6
		c0.6-0.5,1.4-0.7,2.3-0.7c0.9,0,1.7,0.2,2.3,0.7c0.6,0.5,0.9,1.2,0.9,2.1v4c0,0.3,0,0.6,0,0.9c0,0.3,0.1,0.5,0.2,0.8H405.8z
		 M403.3,218.6c0.5,0,1-0.1,1.5-0.4c0.4-0.3,0.7-0.6,0.9-1v-1.3h-1.7c-0.6,0-1.1,0.2-1.5,0.5c-0.4,0.3-0.5,0.7-0.5,1.1
		c0,0.4,0.1,0.7,0.3,0.9C402.5,218.5,402.8,218.6,403.3,218.6z"/>
	<path class="st2" d="M410.6,211.5l0.1,1.2c0.3-0.4,0.6-0.8,1-1c0.4-0.2,0.9-0.4,1.4-0.4c0.9,0,1.6,0.3,2.1,0.8
		c0.5,0.5,0.7,1.3,0.7,2.4v5.2h-1.5v-5.2c0-0.7-0.1-1.2-0.4-1.5c-0.3-0.3-0.7-0.5-1.3-0.5c-0.5,0-0.9,0.1-1.2,0.3
		c-0.3,0.2-0.6,0.4-0.8,0.8v6.1h-1.5v-8.3H410.6z"/>
	<path class="st2" d="M420.3,209.5v2h1.6v1.1h-1.6v5c0,0.4,0.1,0.7,0.2,0.8c0.2,0.2,0.4,0.2,0.6,0.2c0.1,0,0.2,0,0.3,0
		c0.1,0,0.2,0,0.3-0.1l0.2,1c-0.1,0.1-0.3,0.2-0.5,0.2s-0.4,0.1-0.6,0.1c-0.6,0-1.1-0.2-1.5-0.6c-0.4-0.4-0.5-0.9-0.5-1.7v-5h-1.3
		v-1.1h1.3v-2H420.3z"/>
	<path class="st2" d="M425.1,209.4h-1.5v-1.5h1.5V209.4z M425.1,219.7h-1.5v-8.3h1.5V219.7z"/>
	<path class="st2" d="M428.7,211.5l0.1,1.2c0.3-0.4,0.6-0.8,1-1c0.4-0.2,0.9-0.4,1.4-0.4c0.9,0,1.6,0.3,2.1,0.8s0.7,1.3,0.7,2.4v5.2
		h-1.5v-5.2c0-0.7-0.1-1.2-0.4-1.5c-0.3-0.3-0.7-0.5-1.3-0.5c-0.5,0-0.9,0.1-1.2,0.3c-0.3,0.2-0.6,0.4-0.8,0.8v6.1h-1.5v-8.3H428.7z
		"/>
	<path class="st2" d="M439.7,219.9c-1.2,0-2.1-0.4-2.8-1.1c-0.7-0.8-1-1.8-1-3v-0.3c0-1.2,0.3-2.2,1-2.9c0.7-0.8,1.5-1.2,2.5-1.2
		c1.1,0,1.9,0.3,2.5,1s0.8,1.6,0.8,2.7v0.8h-5.3l0,0c0,0.8,0.2,1.5,0.5,2c0.4,0.5,0.9,0.8,1.7,0.8c0.5,0,1-0.1,1.3-0.2
		c0.4-0.1,0.7-0.3,1-0.6l0.6,1c-0.3,0.3-0.7,0.5-1.2,0.7C440.9,219.8,440.4,219.9,439.7,219.9z M439.4,212.5c-0.5,0-1,0.2-1.3,0.6
		c-0.3,0.4-0.6,0.9-0.6,1.6l0,0h3.7v-0.1c0-0.6-0.1-1.1-0.4-1.5S440.1,212.5,439.4,212.5z"/>
	<path class="st2" d="M453.1,217.5c0-0.3-0.1-0.6-0.4-0.8c-0.3-0.2-0.7-0.4-1.4-0.5c-1-0.2-1.7-0.5-2.2-0.9
		c-0.5-0.4-0.8-0.9-0.8-1.5c0-0.7,0.3-1.2,0.9-1.7c0.6-0.5,1.3-0.7,2.2-0.7c0.9,0,1.7,0.3,2.3,0.8s0.9,1.1,0.8,1.8l0,0H453
		c0-0.4-0.2-0.7-0.5-1s-0.7-0.4-1.2-0.4c-0.5,0-0.9,0.1-1.2,0.4c-0.3,0.2-0.4,0.5-0.4,0.9c0,0.3,0.1,0.6,0.3,0.8
		c0.2,0.2,0.7,0.3,1.4,0.5c1,0.2,1.8,0.5,2.3,0.9c0.5,0.4,0.8,0.9,0.8,1.5c0,0.7-0.3,1.3-0.9,1.8c-0.6,0.5-1.4,0.7-2.3,0.7
		c-1.1,0-1.9-0.3-2.5-0.8c-0.6-0.5-0.9-1.2-0.9-1.9l0,0h1.4c0,0.5,0.2,0.9,0.6,1.2c0.4,0.2,0.8,0.4,1.3,0.4c0.5,0,1-0.1,1.3-0.3
		S453.1,217.9,453.1,217.5z"/>
	<path class="st2" d="M461.7,218.5c-0.3,0.4-0.6,0.8-1,1s-0.9,0.4-1.4,0.4c-0.9,0-1.6-0.3-2.1-0.9s-0.8-1.5-0.8-2.7v-4.9h1.5v4.9
		c0,0.9,0.1,1.5,0.4,1.8c0.3,0.3,0.7,0.5,1.2,0.5c0.5,0,1-0.1,1.3-0.3c0.3-0.2,0.6-0.5,0.8-0.9v-6h1.5v8.3h-1.4L461.7,218.5z"/>
	<path class="st2" d="M472.4,215.9c0,1.2-0.3,2.2-0.9,2.9c-0.6,0.7-1.4,1.1-2.4,1.1c-0.5,0-1-0.1-1.3-0.3c-0.4-0.2-0.7-0.4-1-0.8v4
		h-1.5v-11.4h1.2l0.2,1.1c0.3-0.4,0.6-0.7,1-0.9c0.4-0.2,0.9-0.3,1.4-0.3c1,0,1.8,0.4,2.4,1.2s0.9,1.9,0.9,3.2V215.9z M470.9,215.8
		c0-0.9-0.2-1.7-0.6-2.3c-0.4-0.6-0.9-0.9-1.6-0.9c-0.4,0-0.8,0.1-1.1,0.3c-0.3,0.2-0.6,0.5-0.7,0.8v4c0.2,0.3,0.4,0.6,0.7,0.8
		c0.3,0.2,0.7,0.3,1.1,0.3c0.7,0,1.3-0.3,1.6-0.8c0.4-0.5,0.5-1.2,0.5-2V215.8z"/>
	<path class="st2" d="M481.3,215.9c0,1.2-0.3,2.2-0.9,2.9c-0.6,0.7-1.4,1.1-2.4,1.1c-0.5,0-1-0.1-1.3-0.3c-0.4-0.2-0.7-0.4-1-0.8v4
		h-1.5v-11.4h1.2l0.2,1.1c0.3-0.4,0.6-0.7,1-0.9c0.4-0.2,0.9-0.3,1.4-0.3c1,0,1.8,0.4,2.4,1.2s0.9,1.9,0.9,3.2V215.9z M479.8,215.8
		c0-0.9-0.2-1.7-0.6-2.3c-0.4-0.6-0.9-0.9-1.6-0.9c-0.4,0-0.8,0.1-1.1,0.3c-0.3,0.2-0.6,0.5-0.7,0.8v4c0.2,0.3,0.4,0.6,0.7,0.8
		c0.3,0.2,0.7,0.3,1.1,0.3c0.7,0,1.3-0.3,1.6-0.8c0.4-0.5,0.5-1.2,0.5-2V215.8z"/>
	<path class="st2" d="M482.8,215.5c0-1.2,0.3-2.2,1-3s1.6-1.2,2.7-1.2c1.1,0,2,0.4,2.7,1.2c0.7,0.8,1,1.8,1,3v0.2c0,1.2-0.3,2.2-1,3
		c-0.7,0.8-1.6,1.2-2.7,1.2c-1.1,0-2-0.4-2.7-1.2s-1-1.8-1-3V215.5z M484.3,215.7c0,0.9,0.2,1.6,0.6,2.2c0.4,0.6,0.9,0.9,1.6,0.9
		c0.7,0,1.3-0.3,1.6-0.9c0.4-0.6,0.6-1.3,0.6-2.2v-0.2c0-0.9-0.2-1.6-0.6-2.2c-0.4-0.6-0.9-0.9-1.6-0.9c-0.7,0-1.3,0.3-1.6,0.9
		c-0.4,0.6-0.6,1.3-0.6,2.2V215.7z"/>
</g>
<g class="st1">
	<path class="st2" d="M496,212.8l-0.8,0c-0.4,0-0.7,0.1-1,0.3c-0.3,0.2-0.5,0.5-0.6,0.8v5.9h-1.5v-8.3h1.3l0.1,1.2
		c0.2-0.4,0.5-0.8,0.9-1c0.3-0.2,0.7-0.4,1.2-0.4c0.1,0,0.2,0,0.3,0c0.1,0,0.2,0,0.3,0.1L496,212.8z"/>
</g>
<g class="st1">
	<path class="st2" d="M499.8,209.5v2h1.6v1.1h-1.6v5c0,0.4,0.1,0.7,0.2,0.8c0.2,0.2,0.4,0.2,0.6,0.2c0.1,0,0.2,0,0.3,0
		c0.1,0,0.2,0,0.3-0.1l0.2,1c-0.1,0.1-0.3,0.2-0.5,0.2s-0.4,0.1-0.6,0.1c-0.6,0-1.1-0.2-1.5-0.6c-0.4-0.4-0.5-0.9-0.5-1.7v-5H497
		v-1.1h1.3v-2H499.8z"/>
</g>
<rect x="47.6" y="38.4" transform="matrix(0.7071 -0.7071 0.7071 0.7071 -46.6526 125.5791)" class="st3" width="161.4" height="161.4"/>
<g class="st4">
	<path class="st2" d="M128.3,221.7L25.8,119.2L128.3,16.6l102.6,102.5L128.3,221.7z M28.9,119.2l99.4,99.4l99.4-99.4l-99.4-99.4
		L28.9,119.2z M128.3,208.7l-34.2-34.2l26.2-26.2l-25.4-25.4l-18,18l11.9,11.9l4.9-4.9l-7-7l8.2-8.1l15.5,15.5l-21.2,21.3
		l-29.9-29.9l20.4-20.4L59.2,98.7l29.9-29.9L110.4,90l-15.5,15.6l-8.2-8.2l7-7l-5-4.9L76.9,97.4l18,18L120.2,90L94.1,63.9l34.2-34.2
		l34.2,34.2L136.3,90l25.4,25.4l18-18l-11.9-11.9l-4.9,4.9l7,7l-8.1,8.2L146.2,90l21.2-21.2l29.9,29.9l-20.4,20.4l20.4,20.5
		l-29.9,29.9l-21.2-21.2l15.5-15.5l8.1,8.1l-7,7l4.9,4.9l11.9-11.9l-18-18l-25.4,25.4l26.2,26.2L128.3,208.7z M97.3,174.4l31.1,31.1
		l31.1-31.1l-26.2-26.2l28.5-28.5l21.2,21.2L167.8,156l-8.1-8.1l7-7l-5-5l-12.4,12.4l18.1,18.1l26.7-26.7l-20.4-20.4l20.4-20.4
		L167.4,72l-18.1,18l12.4,12.3l5-5l-7-7l8.1-8.1l15.1,15.2l-21.2,21.2L133.2,90l26.2-26.2l-31.1-31l-31,31.1L123.4,90l-28.5,28.6
		L73.7,97.4l15.1-15.1l8.1,8.1l-7,7l5,5L107.2,90L89.1,72L62.4,98.7l20.4,20.4l-20.4,20.5l26.8,26.8l18.1-18.1L95,135.9l-5,5l7,7
		l-8.1,8.1l-15.1-15.1L95,119.7l28.5,28.5L97.3,174.4z M202.3,134.7l-15.5-15.5l15.5-15.5l15.5,15.5L202.3,134.7z M190,119.2
		l12.3,12.3l12.4-12.3l-12.4-12.3L190,119.2z M54.3,134.7l-15.5-15.5l15.5-15.5l15.5,15.5L54.3,134.7z M41.9,119.2l12.4,12.3
		l12.3-12.3l-12.3-12.3L41.9,119.2z"/>
	<path class="st2" d="M128.3,198.1l-24-24l24-24l24,24L128.3,198.1z M107.4,174.1l20.8,20.8l20.8-20.8l-20.8-20.9L107.4,174.1z"/>
	<path class="st2" d="M128.3,87.6l-24-24l24-24l24,24L128.3,87.6z M107.4,63.6l20.8,20.8L149,63.6l-20.8-20.8L107.4,63.6z"/>
</g>
<path class="st2" d="M151.6,142.3c-1.9-2.2-3.7-4.4-5.5-6.7c-0.9-1.2-1.8-2.4-2.7-3.6c-0.4-0.6-1.1-0.7-1.7-0.3c0,0,0,0-0.1,0.1
	c-0.5,0.4-0.6,1.2-0.2,1.7c0.1,0.1,0.2,0.3,0.3,0.4c2.3,3.2,4.7,6.2,7.3,9.2c0.2,0.2,0.5,0.4,0.2,0.9c-1.5,2.7-3.1,5.5-4.6,8.3
	l-0.6-0.7c-4.8-5.8-9.2-11.9-13.3-18.2c-0.8-0.9-0.8-2.2,0-3.2c1.4-2.1,2.6-4.4,3.9-6.7c0.1,0.2,0.2,0.3,0.3,0.5
	c1.2,1.8,2.4,3.6,3.6,5.3c0.3,0.6,1,0.8,1.6,0.5c0.1-0.1,0.2-0.1,0.3-0.2c0.5-0.5,0.6-1,0.1-1.8c-1.4-2.1-2.8-4.2-4.2-6.4
	c-0.3-0.3-0.3-0.8-0.1-1.1c0.8-1.5,1.5-3,2.2-4.6c2.7-5.9,5.1-11.8,5.9-18.3c0.6-3.9,0.3-7.9-0.8-11.7c-1.7-5.6-5.1-9.6-10.9-11.3
	c-0.8-0.2-1.6-0.4-2.4-0.6h-4c0,0.1-0.1,0.1-0.2,0.2c-5.3,0.7-9.8,4-11.9,8.9c-1.9,4-2.3,8.3-2,12.7c0,0.9,0.2,1.7,0.2,2.6
	c0,0.7,0.6,1.2,1.3,1.2l0,0c0.7-0.1,1.2-0.7,1.1-1.3V98c0-0.3-0.1-0.7-0.1-1c-0.5-3.6-0.3-7.2,0.7-10.6c0.5-1.9,1.5-3.7,2.7-5.3v1.1
	c0,3.4,0.5,6.8,1.4,10.1c1.8,6,4.1,11.8,7.1,17.2c0.3,0.4,0.3,0.9,0,1.3c-1.4,2.3-2.7,4.7-4,7c-0.1,0.2-0.2,0.4-0.4,0.4
	c-0.7-1.5-1.4-2.9-2.1-4.4c-1.7-3.5-3.1-7.2-4.2-11c-0.2-0.8-0.7-1.2-1.4-1.1c-0.9,0.1-1.2,0.8-0.9,2c1.7,5.7,4,11.2,6.8,16.5
	c0.3,0.4,0.2,0.9-0.1,1.3c-4.6,7.2-9.7,14.1-15.2,20.7c-0.8,0.9-0.8,1.2-0.2,2.2c1.9,3.4,3.7,6.8,5.6,10.1c0.7,1.2,1.5,1.3,2.4,0.3
	c2.2-2.5,4.2-5.1,6.2-7.7c0.2-0.2,0.3-0.4,0.4-0.7c0.2-0.5-0.1-1.1-0.6-1.3c-0.6-0.3-1.3-0.1-1.6,0.4c-1.3,1.7-2.6,3.3-3.9,5
	c-0.4,0.6-0.9,1.1-1.4,1.6c-1.5-2.7-2.9-5.3-4.4-7.9c-0.3-0.4-0.2-0.9,0.1-1.2c5.6-6.7,10.7-13.8,15.3-21.2
	c4.9-7.6,9.1-15.7,12.4-24.1c1.6-4,2.6-8.2,3-12.5c0.1-1.3,0-2.6,0.1-4c0.6,0.8,1.2,1.6,1.6,2.5c2.3,4.7,2.3,9.6,1.6,14.5
	c-0.7,4.5-2.1,8.9-4,13.1c-4.1,9.3-9.1,18.1-14.9,26.4c-0.9,1.3-1.8,2.5-2.6,3.8c-0.5,0.5-0.4,1.3,0.1,1.7c0.2,0.1,0.3,0.2,0.5,0.3
	c0.6,0.1,1.2-0.1,1.5-0.7c1.9-2.7,3.7-5.4,5.5-8.1c0.5-0.7,0.5-0.7,1,0c4.4,6.9,9.3,13.5,14.6,19.8c1.2,1.4,1.9,1.4,2.8-0.3
	c1.8-3.3,3.6-6.6,5.5-9.9C152.2,143.7,152.1,142.8,151.6,142.3z M135.4,89c-1.2,5.1-2.9,10.1-5.3,14.9c-0.6,1.2-1.2,2.4-1.8,3.8
	c-1.2-2.4-2.3-4.7-3.3-7c-1.6-3.7-2.9-7.6-3.8-11.6c-0.2-0.8,0-1.1,0.7-1.4c4.1-1.6,8.7-1.6,12.9,0C135.5,88.1,135.6,88.4,135.4,89z
	 M135.9,85.6c-4.9-2-10.3-2-15.2,0c-0.2-2.1-0.2-4.3,0-6.4c0-0.3,0.2-0.6,0.5-0.8c4.4-2.7,9.9-2.7,14.3,0c0.3,0.2,0.5,0.6,0.5,1
	C136.2,81.5,136.2,83.5,135.9,85.6L135.9,85.6z"/>
<path class="st2" d="M44.2,118.7c-0.9,0.3-1.8,0.3-2.7,0.1c-2.8-0.7-4.4-3.5-3.8-6.2c0-0.1,0-0.2,0.1-0.2c0.3-0.9,0.8-1.8,1.5-2.4
	c0.6-0.6,1.2-1,2-1.3c0.7-0.3,1.4-0.4,2.2-0.3l-0.1,2c-1-0.1-1.9,0.3-2.6,1c-0.4,0.4-0.7,0.9-0.9,1.5c-0.1,0.5-0.1,1.1,0,1.6
	c0.4,1.1,1.2,2,2.4,2.3c0.5,0.1,1.1,0.1,1.6,0c0.6-0.2,1.1-0.5,1.5-0.9c0.7-0.7,1-1.6,0.9-2.6l2-0.1c0.1,0.7,0,1.5-0.3,2.2
	c-0.3,0.8-0.8,1.4-1.3,2C45.9,117.9,45.1,118.4,44.2,118.7z"/>
<path class="st2" d="M51.5,111.4c-0.9,0.3-1.8,0.3-2.7,0.1c-0.9-0.2-1.7-0.7-2.4-1.4c-1.4-1.3-1.9-3.3-1.3-5.1
	c0.3-0.9,0.8-1.8,1.5-2.5s1.5-1.2,2.5-1.5c1.8-0.6,3.8-0.1,5.1,1.3c0.7,0.7,1.1,1.5,1.4,2.4c0.2,0.9,0.2,1.8-0.1,2.7
	C54.9,109.3,53.4,110.8,51.5,111.4L51.5,111.4z M53.4,107c0.2-0.5,0.2-1.1,0-1.6c-0.2-0.6-0.5-1.1-0.9-1.5s-0.9-0.7-1.5-0.9
	c-0.5-0.2-1.1-0.2-1.6,0c-1.1,0.3-1.9,1.2-2.3,2.3c-0.2,0.5-0.2,1.1,0,1.6c0.2,0.6,0.5,1.1,0.9,1.5s0.9,0.7,1.5,0.9
	c0.5,0.2,1.1,0.2,1.6,0C52.2,109,53.1,108.1,53.4,107z"/>
<path class="st2" d="M58.5,90.9l4,10.2l-1.6,1.6l-10.2-4l1.8-1.8l7.2,2.9l-2.9-7.3L58.5,90.9z"/>
<path class="st2" d="M59,90.3l1.6-1.6l7.1,7.1l-1.6,1.6L59,90.3z"/>
<path class="st2" d="M62.4,87l3.2-3.2c0.7-0.7,1.5-1.3,2.5-1.6c0.8-0.3,1.8-0.3,2.6-0.1c1.8,0.5,3.2,1.9,3.7,3.7
	c0.2,0.9,0.2,1.8-0.1,2.6c-0.3,0.9-0.9,1.8-1.6,2.5l-3.2,3.2L62.4,87z M71.2,89.6c0.7-0.6,1-1.4,1.1-2.3c-0.1-1.7-1.5-3.2-3.2-3.2
	c-0.9,0.1-1.7,0.5-2.3,1.1l-1.5,1.5l4.4,4.4L71.2,89.6z"/>
<path class="st2" d="M85.2,78.4l-3.3-0.6l-0.1,0.1l-1.4,1.4l2,2l-1.7,1.6l-7.1-7.1l3.1-3.1c0.6-0.6,1.2-1,2-1.3
	c1.3-0.5,2.8-0.2,3.7,0.8c0.5,0.5,0.8,1.1,1,1.7c0.1,0.7,0.1,1.4-0.2,2l3.8,0.7L85.2,78.4z M79.4,73.4c-0.6,0.1-1.1,0.4-1.4,0.8
	l-1.3,1.3l2.5,2.5l1.3-1.3c0.4-0.4,0.7-0.9,0.8-1.4C81.2,74.2,80.4,73.4,79.4,73.4L79.4,73.4L79.4,73.4z"/>
<path class="st2" d="M91.1,68L87,72.1c0.4,0.3,0.9,0.4,1.3,0.3c0.5-0.1,1-0.4,1.3-0.7c0.3-0.2,0.5-0.5,0.6-0.9
	c0.1-0.3,0.2-0.7,0.2-1l1.8,0.1c0,1.2-0.5,2.3-1.4,3.1c-0.6,0.6-1.2,1-2,1.3c-0.7,0.2-1.4,0.3-2.1,0.1c-0.7-0.2-1.3-0.5-1.8-1.1
	c-0.5-0.5-0.9-1.1-1.1-1.8c-0.2-0.7-0.2-1.4,0-2.1c0.4-1.4,1.5-2.5,2.9-2.9c0.7-0.2,1.3-0.2,2,0s1.4,0.6,1.9,1.1L91.1,68z M85.6,70
	c0,0.4,0.1,0.8,0.4,1.2l2.7-2.7c-0.4-0.3-0.8-0.4-1.3-0.4s-0.9,0.2-1.2,0.6C85.9,69,85.7,69.4,85.6,70L85.6,70z"/>
<path class="st2" d="M94.8,68.6c-0.5,0.3-0.9,0.5-1.5,0.6l-0.6-1.7c0.4-0.1,0.9-0.3,1.3-0.5s0.8-0.5,1.2-0.9
	c0.7-0.7,0.8-1.2,0.5-1.5c-0.2-0.2-0.4-0.2-0.6-0.1c-0.4,0.2-0.7,0.4-1,0.7c-0.4,0.3-0.9,0.6-1.3,0.9c-0.4,0.2-0.8,0.3-1.2,0.3
	c-0.5,0-0.9-0.3-1.3-0.6c-0.3-0.3-0.6-0.8-0.6-1.2c-0.1-0.5,0-1,0.2-1.5c0.3-0.6,0.6-1.1,1.1-1.6c0.4-0.4,0.8-0.7,1.3-1
	c0.4-0.3,0.8-0.5,1.3-0.6l0.6,1.7c-0.8,0.2-1.4,0.6-2,1.2c-0.3,0.2-0.5,0.6-0.6,0.9c-0.1,0.2,0,0.4,0.1,0.6c0.2,0.2,0.4,0.2,0.6,0.1
	c0.4-0.2,0.7-0.4,1.1-0.7s0.9-0.6,1.3-0.9c0.4-0.2,0.8-0.3,1.2-0.3c0.5,0,0.9,0.3,1.2,0.6c0.3,0.3,0.5,0.7,0.6,1.2
	c0.1,0.5,0,1-0.3,1.5c-0.3,0.6-0.7,1.1-1.2,1.6C95.9,67.9,95.4,68.2,94.8,68.6z"/>
<path class="st2" d="M99.2,54c0.7-0.2,1.3-0.2,2,0s1.3,0.6,1.8,1.1s0.9,1.1,1.1,1.8s0.2,1.3,0,2s-0.5,1.3-1,1.7
	c-0.6,0.7-1.4,1-2.3,1l2.6,2.5l-1.6,1.6l-7.4-7.4l1.5-1.5l0.6,0.6c-0.1-0.9,0.3-1.8,1-2.4C98,54.6,98.6,54.2,99.2,54z M102.1,58.2
	c0-0.6-0.3-1.1-0.7-1.5c-0.4-0.4-0.9-0.7-1.5-0.7c-1.1,0-2,0.9-2,2c0,0.6,0.3,1.1,0.7,1.5c0.4,0.4,0.9,0.7,1.5,0.7
	C101.2,60.2,102.1,59.3,102.1,58.2L102.1,58.2z"/>
<path class="st2" d="M107.6,55.5c-0.7,0.2-1.4,0.2-2.1,0.1c-1.4-0.4-2.5-1.5-2.9-2.9c-0.2-0.7-0.1-1.4,0.1-2.1
	c0.5-1.5,1.6-2.6,3.1-3.1c0.7-0.2,1.4-0.2,2.1-0.1c0.7,0.2,1.3,0.5,1.8,1.1c1.1,1,1.4,2.5,1,3.9c-0.2,0.7-0.6,1.4-1.2,1.9
	C109,54.8,108.3,55.2,107.6,55.5z M108.8,51.6c-0.1-1.2-1-2.1-2.2-2.2c-1.1,0-2,0.9-2,2c0,0.6,0.3,1.1,0.7,1.5
	c0.4,0.4,0.9,0.7,1.5,0.7c0.5,0,1-0.2,1.4-0.6C108.6,52.6,108.8,52.1,108.8,51.6z"/>
<path class="st2" d="M113.5,40.3c0.9,0,1.8,0.5,2.4,1.2l3.1,3.1l-1.6,1.6l-2.9-2.9c-0.3-0.4-0.8-0.6-1.3-0.7c-0.4,0-0.9,0.2-1.1,0.5
	c-0.4,0.3-0.6,0.8-0.6,1.3c0.1,0.6,0.3,1.1,0.8,1.5l2.7,2.7l-1.6,1.6l-5.4-5.5l1.5-1.5l0.6,0.6c0-0.5,0.1-0.9,0.2-1.3
	c0.2-0.5,0.5-0.9,0.8-1.2C111.8,40.7,112.6,40.3,113.5,40.3z"/>
<path class="st2" d="M120.9,42.5c-0.4,0.3-0.9,0.5-1.4,0.6l-0.6-1.7c0.4-0.1,0.9-0.3,1.3-0.5s0.8-0.5,1.2-0.9
	c0.7-0.7,0.8-1.2,0.5-1.5c-0.2-0.2-0.4-0.2-0.6-0.1c-0.4,0.2-0.7,0.4-1,0.7c-0.4,0.3-0.9,0.6-1.3,0.9c-0.4,0.2-0.8,0.3-1.2,0.3
	c-0.5,0-0.9-0.3-1.3-0.6c-0.3-0.3-0.6-0.8-0.6-1.2c-0.1-0.5,0-1,0.2-1.5c0.3-0.6,0.6-1.1,1.1-1.6c0.4-0.4,0.8-0.7,1.3-1
	c0.4-0.3,0.8-0.5,1.3-0.6l0.6,1.7c-0.8,0.2-1.4,0.6-2,1.2c-0.3,0.2-0.5,0.6-0.6,0.9c-0.1,0.2,0,0.5,0.1,0.6c0.2,0.2,0.4,0.2,0.6,0.1
	c0.4-0.2,0.7-0.4,1.1-0.7s0.9-0.6,1.3-0.9c0.4-0.2,0.8-0.3,1.2-0.3c0.5,0,0.9,0.3,1.2,0.6c0.3,0.3,0.5,0.7,0.6,1.2s0,1-0.3,1.5
	c-0.3,0.6-0.7,1.1-1.2,1.6C121.9,41.8,121.4,42.2,120.9,42.5z"/>
<path class="st2" d="M128.9,30.2l-4.1,4.1c0.4,0.3,0.9,0.4,1.3,0.3c0.5-0.1,1-0.4,1.3-0.7s0.5-0.6,0.6-0.9c0.1-0.3,0.2-0.7,0.2-1
	l1.8,0c0,1.2-0.5,2.4-1.4,3.1c-0.6,0.6-1.2,1-2,1.3c-0.7,0.2-1.4,0.3-2.1,0.1s-1.3-0.5-1.8-1.1c-0.5-0.5-0.9-1.1-1.1-1.8
	s-0.2-1.4,0-2c0.4-1.4,1.5-2.5,2.9-3c0.7-0.2,1.3-0.2,2,0s1.3,0.6,1.9,1.1C128.4,29.7,128.6,29.9,128.9,30.2z M123.4,32.1
	c0,0.5,0.1,0.9,0.4,1.3l2.7-2.7c-0.8-0.6-1.8-0.5-2.5,0.2C123.7,31.2,123.5,31.6,123.4,32.1z"/>
</svg>
