<?xml version="1.0" encoding="utf-8"?>
<!-- Generator: Adobe Illustrator 24.1.0, SVG Export Plug-In . SVG Version: 6.00 Build 0)  -->
<svg version="1.1" id="Layer_1" xmlns="http://www.w3.org/2000/svg" xmlns:xlink="http://www.w3.org/1999/xlink" x="0px" y="0px"
	 viewBox="0 0 658.1 238.3" style="enable-background:new 0 0 658.1 238.3;" xml:space="preserve">
<style type="text/css">
	.st0{fill:none;stroke:#03AAD6;stroke-width:2.61;stroke-miterlimit:10;}
	.st1{enable-background:new    ;}
	.st2{fill:#03AAD6;}
	.st3{opacity:0.15;}
	.st4{fill:#FFFFFF;}
</style>
<polygon class="st0" points="14.7,119.2 128.5,232.9 530.2,232.9 644,119.2 530.2,5.3 128.5,5.3 "/>
<g class="st1">
	<path class="st2" d="M334.6,117v-7.7l-3.8,6.3h-1.3l-3.7-6.1v7.5H323v-12.8h2.4l4.8,7.9l4.7-7.9h2.4V117
		C337.3,117,334.6,117,334.6,117z"/>
	<path class="st2" d="M340.4,104.3h3V117h-3V104.3z"/>
	<path class="st2" d="M346.4,104.3h3v10.4h6.4v2.4h-9.4V104.3z"/>
	<path class="st2" d="M357.4,104.3h3v10.4h6.4v2.4h-9.4V104.3z"/>
	<path class="st2" d="M368.5,104.3h3V117h-3V104.3z"/>
	<path class="st2" d="M377,116.4c-1.1-0.6-1.9-1.4-2.5-2.4s-0.9-2.1-0.9-3.4s0.3-2.4,0.9-3.4s1.4-1.8,2.5-2.4s2.3-0.9,3.6-0.9
		c1.3,0,2.5,0.3,3.6,0.9s1.9,1.4,2.5,2.4s0.9,2.1,0.9,3.4s-0.3,2.4-0.9,3.4s-1.4,1.8-2.5,2.4s-2.2,0.9-3.6,0.9
		C379.3,117.2,378.1,117,377,116.4z M382.7,114.2c0.6-0.3,1.1-0.8,1.4-1.5s0.5-1.3,0.5-2.1s-0.2-1.5-0.5-2.1s-0.8-1.1-1.4-1.5
		c-0.6-0.3-1.3-0.5-2-0.5s-1.4,0.2-2,0.5s-1.1,0.8-1.4,1.5s-0.5,1.3-0.5,2.1s0.2,1.5,0.5,2.1s0.8,1.1,1.4,1.5c0.6,0.3,1.3,0.5,2,0.5
		S382.1,114.5,382.7,114.2z"/>
	<path class="st2" d="M401.5,104.3V117h-2.4l-6.4-7.8v7.8h-2.9v-12.8h2.4l6.3,7.8v-7.8h3V104.3z"/>
</g>
<g class="st1">
	<path class="st2" d="M418.2,104.8c0.8,0.4,1.5,0.9,1.9,1.6s0.7,1.5,0.7,2.5c0,0.9-0.2,1.8-0.7,2.5s-1.1,1.2-1.9,1.6
		s-1.8,0.6-2.9,0.6h-2.6v3.5h-3v-12.8h5.5C416.4,104.3,417.4,104.4,418.2,104.8z M417.1,110.5c0.5-0.4,0.7-0.9,0.7-1.6
		s-0.2-1.3-0.7-1.7c-0.5-0.4-1.1-0.6-2-0.6h-2.4v4.4h2.4C416,111.1,416.7,110.9,417.1,110.5z"/>
</g>
<g class="st1">
	<path class="st2" d="M432.8,114.6v2.4h-9.9v-12.8h9.6v2.4h-6.7v2.8h5.9v2.3h-5.9v3h7V114.6z"/>
</g>
<g class="st1">
	<path class="st2" d="M437.7,116.4c-1.1-0.6-1.9-1.4-2.5-2.4s-0.9-2.1-0.9-3.4s0.3-2.4,0.9-3.4s1.4-1.8,2.5-2.4s2.3-0.9,3.6-0.9
		s2.5,0.3,3.6,0.9s1.9,1.4,2.5,2.4s0.9,2.1,0.9,3.4s-0.3,2.4-0.9,3.4s-1.4,1.8-2.5,2.4s-2.2,0.9-3.6,0.9S438.8,117,437.7,116.4z
		 M443.3,114.2c0.6-0.3,1.1-0.8,1.4-1.5s0.5-1.3,0.5-2.1s-0.2-1.5-0.5-2.1s-0.8-1.1-1.4-1.5s-1.3-0.5-2-0.5s-1.4,0.2-2,0.5
		s-1.1,0.8-1.4,1.5s-0.5,1.3-0.5,2.1s0.2,1.5,0.5,2.1s0.8,1.1,1.4,1.5c0.6,0.3,1.3,0.5,2,0.5S442.7,114.5,443.3,114.2z"/>
</g>
<g class="st1">
	<path class="st2" d="M459,104.8c0.8,0.4,1.5,0.9,1.9,1.6c0.5,0.7,0.7,1.5,0.7,2.5c0,0.9-0.2,1.8-0.7,2.5c-0.4,0.7-1.1,1.2-1.9,1.6
		s-1.8,0.6-2.9,0.6h-2.6v3.5h-3v-12.8h5.5C457.2,104.3,458.1,104.4,459,104.8z M457.9,110.5c0.5-0.4,0.7-0.9,0.7-1.6
		s-0.2-1.3-0.7-1.7c-0.5-0.4-1.1-0.6-2-0.6h-2.4v4.4h2.4C456.8,111.1,457.4,110.9,457.9,110.5z"/>
</g>
<g class="st1">
	<path class="st2" d="M463.7,104.3h3v10.4h6.4v2.4h-9.4V104.3z"/>
	<path class="st2" d="M484.6,114.6v2.4h-9.9v-12.8h9.6v2.4h-6.7v2.8h5.9v2.3h-5.9v3h7V114.6z"/>
</g>
<g class="st1">
	<path class="st2" d="M360.6,69.9c1.6,1.8,2.4,4,2.4,6.6c0,2-0.5,3.9-1.6,5.6s-2.7,3.1-4.8,4.1c-2.2,1-4.8,1.5-7.9,1.5
		c-2.4,0-4.8-0.3-7.2-1c-2.4-0.6-4.4-1.6-6-2.7l3.1-6.1c1.3,1,2.8,1.8,4.6,2.3c1.7,0.5,3.5,0.8,5.3,0.8c2,0,3.6-0.4,4.8-1.2
		c1.2-0.8,1.7-1.9,1.7-3.3c0-2.8-2.2-4.3-6.5-4.3h-3.7v-5.3l7.1-8.1h-14.8v-6.4h24.3v5.2l-7.8,8.9C356.7,67,359,68.1,360.6,69.9z"/>
</g>
<g class="st1">
	<path class="st2" d="M389,68.3c2.3,1.9,3.5,4.6,3.5,7.8c0,2.1-0.5,4-1.6,5.8c-1.1,1.7-2.7,3.1-4.8,4.2c-2.2,1-4.8,1.6-8,1.6
		c-2.4,0-4.8-0.3-7.2-1c-2.4-0.6-4.4-1.6-6-2.7l3.2-6.1c1.3,1,2.8,1.8,4.6,2.3c1.7,0.5,3.5,0.8,5.3,0.8c2,0,3.6-0.4,4.8-1.2
		c1.2-0.8,1.7-1.9,1.7-3.3c0-1.5-0.6-2.6-1.8-3.4c-1.2-0.8-3.3-1.1-6.3-1.1h-8.9l1.8-19.5h21.1v6.4h-14.5l-0.5,6.6h2.8
		C383,65.4,386.6,66.3,389,68.3z"/>
</g>
<g class="st1">
	<path class="st2" d="M396.9,86c-0.9-0.9-1.4-2.1-1.4-3.5s0.5-2.6,1.4-3.4c0.9-0.9,2.1-1.3,3.4-1.3s2.5,0.4,3.4,1.3s1.4,2,1.4,3.4
		s-0.5,2.5-1.4,3.5c-0.9,0.9-2.1,1.4-3.4,1.4S397.8,86.9,396.9,86z"/>
</g>
<g class="st1">
	<path class="st2" d="M436.8,72.2c0.9,1.4,1.4,3,1.4,4.8c0,2.1-0.6,4-1.8,5.6c-1.2,1.6-2.9,2.8-5.1,3.7c-2.2,0.9-4.8,1.3-7.7,1.3
		c-2.9,0-5.5-0.4-7.6-1.3c-2.2-0.9-3.9-2.1-5.1-3.7S409,79.1,409,77c0-1.8,0.5-3.4,1.4-4.8s2.2-2.5,3.9-3.4c-1.3-0.8-2.3-1.8-3-3
		s-1-2.6-1-4.1c0-2,0.6-3.8,1.7-5.2c1.1-1.5,2.7-2.6,4.7-3.4c2-0.8,4.3-1.2,6.9-1.2s5,0.4,7,1.2s3.6,2,4.7,3.4
		c1.1,1.5,1.7,3.2,1.7,5.2c0,1.6-0.3,2.9-1,4.1s-1.7,2.2-3,3C434.6,69.6,435.9,70.8,436.8,72.2z M428.3,80.4
		c1.2-0.9,1.8-2.1,1.8-3.6s-0.6-2.7-1.8-3.6c-1.2-0.9-2.8-1.3-4.8-1.3s-3.5,0.4-4.7,1.3s-1.7,2.1-1.7,3.6c0,1.6,0.6,2.8,1.7,3.7
		c1.2,0.9,2.7,1.3,4.7,1.3C425.6,81.7,427.2,81.3,428.3,80.4z M419.7,58.8c-1,0.8-1.5,1.8-1.5,3.2c0,1.3,0.5,2.4,1.4,3.1
		c1,0.8,2.3,1.1,3.9,1.1s3-0.4,4-1.1c1-0.8,1.5-1.8,1.5-3.1c0-1.4-0.5-2.4-1.5-3.2s-2.3-1.2-4-1.2C421.9,57.7,420.6,58,419.7,58.8z"
		/>
	<path class="st2" d="M465.4,56.2c2.7,3,4.1,7.2,4.1,12.7c0,3.9-0.7,7.3-2.2,10.1c-1.5,2.8-3.5,4.9-6.2,6.4s-5.8,2.2-9.3,2.2
		c-1.8,0-3.6-0.2-5.3-0.6c-1.7-0.4-3.1-1-4.3-1.8l3-5.9c1.7,1.2,3.8,1.7,6.5,1.7c2.9,0,5.3-0.9,7-2.6s2.6-4.2,2.8-7.5
		c-2.1,2.1-5,3.1-8.6,3.1c-2.2,0-4.2-0.4-6-1.3s-3.3-2.2-4.3-3.8c-1.1-1.6-1.6-3.5-1.6-5.7c0-2.3,0.6-4.3,1.7-6.1
		c1.2-1.7,2.7-3.1,4.7-4s4.2-1.4,6.7-1.4C458.9,51.8,462.7,53.2,465.4,56.2z M458.9,66.6c1.1-1,1.7-2.2,1.7-3.7
		c0-1.5-0.5-2.8-1.6-3.7c-1.1-1-2.5-1.4-4.4-1.4c-1.7,0-3.1,0.5-4.2,1.4s-1.6,2.2-1.6,3.8c0,1.6,0.5,2.8,1.6,3.8
		c1.1,0.9,2.5,1.4,4.3,1.4C456.4,68.1,457.8,67.6,458.9,66.6z"/>
</g>
<g class="st1">
	<path d="M265,142.1h-1.6v-1.7h1.6V142.1z M265,153.4h-1.6v-9h1.6V153.4z"/>
	<path d="M269,144.4l0.1,1.3c0.3-0.5,0.7-0.8,1.1-1.1c0.4-0.3,1-0.4,1.5-0.4c1,0,1.7,0.3,2.2,0.8c0.5,0.6,0.8,1.4,0.8,2.6v5.6h-1.6
		v-5.6c0-0.8-0.2-1.3-0.5-1.7c-0.3-0.3-0.8-0.5-1.4-0.5c-0.5,0-0.9,0.1-1.3,0.3c-0.4,0.2-0.6,0.5-0.8,0.8v6.6h-1.6v-9H269z"/>
	<path d="M276.8,149.1c0-1.4,0.3-2.6,0.9-3.5c0.6-0.9,1.5-1.3,2.6-1.3c0.5,0,1,0.1,1.4,0.3c0.4,0.2,0.8,0.5,1,0.8v-4.9h1.6v12.9
		h-1.2l-0.2-1.1c-0.3,0.4-0.7,0.8-1.1,1s-0.9,0.3-1.5,0.3c-1.1,0-1.9-0.4-2.6-1.2c-0.6-0.8-0.9-1.8-0.9-3.1V149.1z M278.4,149.3
		c0,0.9,0.2,1.6,0.6,2.2c0.4,0.5,0.9,0.8,1.7,0.8c0.5,0,0.9-0.1,1.2-0.3s0.6-0.5,0.8-0.9v-4.2c-0.2-0.4-0.5-0.7-0.8-0.9
		c-0.3-0.2-0.7-0.3-1.2-0.3c-0.8,0-1.4,0.3-1.7,1c-0.4,0.6-0.6,1.5-0.6,2.5V149.3z"/>
	<path d="M288.6,142.1h-1.6v-1.7h1.6V142.1z M288.6,153.4h-1.6v-9h1.6V153.4z"/>
</g>
<g class="st1">
	<path d="M295.3,145.9l-0.8,0c-0.4,0-0.8,0.1-1.1,0.3s-0.5,0.5-0.7,0.9v6.4h-1.6v-9h1.5l0.2,1.3c0.3-0.5,0.6-0.8,0.9-1.1
		c0.4-0.3,0.8-0.4,1.3-0.4c0.1,0,0.2,0,0.3,0s0.2,0,0.3,0.1L295.3,145.9z"/>
</g>
<g class="st1">
	<path d="M300.5,153.6c-1.3,0-2.3-0.4-3-1.2s-1.1-1.9-1.1-3.2v-0.4c0-1.3,0.4-2.3,1.1-3.2c0.7-0.8,1.6-1.3,2.7-1.3
		c1.2,0,2.1,0.4,2.7,1.1c0.6,0.7,0.9,1.7,0.9,3v0.9h-5.7l0,0c0,0.9,0.2,1.6,0.6,2.2s1,0.8,1.8,0.8c0.6,0,1-0.1,1.5-0.2
		c0.4-0.2,0.8-0.4,1.1-0.6l0.6,1.1c-0.3,0.3-0.7,0.6-1.3,0.8C301.9,153.5,301.3,153.6,300.5,153.6z M300.3,145.6
		c-0.6,0-1,0.2-1.4,0.7s-0.6,1-0.7,1.7l0,0h4v-0.1c0-0.7-0.2-1.2-0.5-1.6C301.4,145.8,300.9,145.6,300.3,145.6z"/>
	<path d="M309.3,152.3c0.5,0,0.9-0.2,1.3-0.5s0.6-0.7,0.6-1.2h1.5l0,0c0,0.8-0.3,1.5-1,2.1c-0.7,0.6-1.5,0.9-2.4,0.9
		c-1.3,0-2.2-0.4-2.9-1.3c-0.7-0.9-1-1.9-1-3.2v-0.3c0-1.3,0.3-2.3,1-3.2s1.7-1.3,2.9-1.3c1,0,1.8,0.3,2.5,0.9
		c0.6,0.6,0.9,1.4,0.9,2.3l0,0h-1.5c0-0.5-0.2-1-0.5-1.4c-0.4-0.4-0.8-0.6-1.3-0.6c-0.8,0-1.4,0.3-1.7,0.9s-0.6,1.4-0.6,2.3v0.3
		c0,0.9,0.2,1.7,0.5,2.3C307.9,152,308.4,152.3,309.3,152.3z"/>
	<path d="M316.8,142.3v2.2h1.7v1.2h-1.7v5.4c0,0.4,0.1,0.7,0.3,0.9c0.2,0.2,0.4,0.3,0.7,0.3c0.1,0,0.2,0,0.3,0
		c0.1,0,0.2-0.1,0.3-0.1l0.2,1.1c-0.1,0.1-0.3,0.2-0.5,0.2c-0.2,0.1-0.5,0.1-0.7,0.1c-0.7,0-1.2-0.2-1.6-0.6c-0.4-0.4-0.6-1-0.6-1.9
		v-5.4h-1.4v-1.2h1.4v-2.2H316.8z"/>
	<path d="M322,153.4h-1.6v-12.9h1.6V153.4z"/>
	<path d="M327.3,150.1l0.3,1.1h0l2.2-6.8h1.8l-3.8,10.3c-0.2,0.6-0.5,1.1-1,1.6c-0.4,0.4-1,0.7-1.7,0.7c-0.1,0-0.3,0-0.5,0
		s-0.4-0.1-0.5-0.1l0.2-1.3c0,0,0.1,0,0.3,0c0.2,0,0.4,0,0.4,0c0.3,0,0.6-0.2,0.9-0.5s0.4-0.7,0.6-1l0.4-0.9l-3.3-8.8h1.8
		L327.3,150.1z"/>
	<path d="M344.9,149.3c0,1.3-0.3,2.3-0.9,3.1c-0.6,0.8-1.5,1.2-2.6,1.2c-0.6,0-1.1-0.1-1.6-0.4s-0.8-0.6-1.1-1l-0.3,1.2h-1.2v-12.9
		h1.6v5c0.3-0.4,0.6-0.7,1-0.9s0.9-0.3,1.5-0.3c1.1,0,2,0.4,2.6,1.3c0.6,0.9,0.9,2,0.9,3.5V149.3z M343.3,149.1c0-1-0.2-1.9-0.6-2.5
		c-0.4-0.6-1-1-1.7-1c-0.5,0-0.9,0.1-1.3,0.4s-0.6,0.6-0.8,1v3.9c0.2,0.4,0.5,0.8,0.8,1c0.3,0.2,0.8,0.4,1.3,0.4
		c0.8,0,1.3-0.3,1.7-0.8s0.6-1.3,0.6-2.2V149.1z"/>
	<path d="M350.6,153.6c-1.3,0-2.3-0.4-3-1.2s-1.1-1.9-1.1-3.2v-0.4c0-1.3,0.4-2.3,1.1-3.2c0.7-0.8,1.6-1.3,2.7-1.3
		c1.2,0,2.1,0.4,2.7,1.1c0.6,0.7,0.9,1.7,0.9,3v0.9h-5.7l0,0c0,0.9,0.2,1.6,0.6,2.2c0.4,0.6,1,0.8,1.8,0.8c0.6,0,1-0.1,1.5-0.2
		s0.8-0.4,1.1-0.6l0.6,1.1c-0.3,0.3-0.7,0.6-1.3,0.8C352,153.5,351.3,153.6,350.6,153.6z M350.3,145.6c-0.6,0-1,0.2-1.4,0.7
		s-0.6,1-0.7,1.7l0,0h4v-0.1c0-0.7-0.2-1.2-0.5-1.6S351,145.6,350.3,145.6z"/>
	<path d="M357.2,144.4l0.1,1.3c0.3-0.5,0.7-0.8,1.1-1.1c0.5-0.3,1-0.4,1.5-0.4c1,0,1.7,0.3,2.2,0.8s0.8,1.4,0.8,2.6v5.6h-1.6v-5.6
		c0-0.8-0.2-1.3-0.5-1.7c-0.3-0.3-0.8-0.5-1.4-0.5c-0.5,0-0.9,0.1-1.3,0.3c-0.3,0.2-0.6,0.5-0.8,0.8v6.6h-1.6v-9H357.2z"/>
	<path d="M369.1,153.6c-1.3,0-2.3-0.4-3-1.2s-1.1-1.9-1.1-3.2v-0.4c0-1.3,0.4-2.3,1.1-3.2c0.7-0.8,1.6-1.3,2.7-1.3
		c1.2,0,2.1,0.4,2.7,1.1c0.6,0.7,0.9,1.7,0.9,3v0.9h-5.7l0,0c0,0.9,0.2,1.6,0.6,2.2c0.4,0.6,1,0.8,1.8,0.8c0.6,0,1-0.1,1.5-0.2
		s0.8-0.4,1.1-0.6l0.6,1.1c-0.3,0.3-0.7,0.6-1.3,0.8C370.5,153.5,369.8,153.6,369.1,153.6z M368.8,145.6c-0.6,0-1,0.2-1.4,0.7
		s-0.6,1-0.7,1.7l0,0h4v-0.1c0-0.7-0.2-1.2-0.5-1.6S369.5,145.6,368.8,145.6z"/>
	<path d="M374.7,153.4v-7.7h-1.4v-1.2h1.4v-1c0-1,0.3-1.8,0.9-2.3c0.6-0.6,1.4-0.8,2.4-0.8c0.4,0,0.7,0,1.1,0.1
		c0.4,0.1,0.8,0.2,1.3,0.4l-0.3,1.3c-0.3-0.1-0.6-0.2-0.9-0.3s-0.7-0.1-1-0.1c-0.6,0-1.1,0.1-1.4,0.4c-0.3,0.3-0.4,0.7-0.4,1.3v1
		h1.8v1.2h-1.8v7.7H374.7z M381.2,153.4h-1.6v-9h1.6V153.4z"/>
	<path d="M386,142.3v2.2h1.7v1.2H386v5.4c0,0.4,0.1,0.7,0.3,0.9s0.4,0.3,0.7,0.3c0.1,0,0.2,0,0.3,0c0.1,0,0.2-0.1,0.3-0.1l0.2,1.1
		c-0.1,0.1-0.3,0.2-0.5,0.2c-0.2,0.1-0.5,0.1-0.7,0.1c-0.7,0-1.2-0.2-1.6-0.6c-0.4-0.4-0.6-1-0.6-1.9v-5.4h-1.4v-1.2h1.4v-2.2H386z"
		/>
	<path d="M391.7,142.3v2.2h1.7v1.2h-1.7v5.4c0,0.4,0.1,0.7,0.3,0.9s0.4,0.3,0.7,0.3c0.1,0,0.2,0,0.3,0c0.1,0,0.2-0.1,0.3-0.1
		l0.2,1.1c-0.1,0.1-0.3,0.2-0.5,0.2c-0.2,0.1-0.5,0.1-0.7,0.1c-0.7,0-1.2-0.2-1.6-0.6c-0.4-0.4-0.6-1-0.6-1.9v-5.4h-1.4v-1.2h1.4
		v-2.2H391.7z"/>
	<path d="M398.8,153.6c-1.3,0-2.3-0.4-3-1.2s-1.1-1.9-1.1-3.2v-0.4c0-1.3,0.4-2.3,1.1-3.2c0.7-0.8,1.6-1.3,2.7-1.3
		c1.2,0,2.1,0.4,2.7,1.1c0.6,0.7,0.9,1.7,0.9,3v0.9h-5.7l0,0c0,0.9,0.2,1.6,0.6,2.2c0.4,0.6,1,0.8,1.8,0.8c0.6,0,1-0.1,1.5-0.2
		s0.8-0.4,1.1-0.6l0.6,1.1c-0.3,0.3-0.7,0.6-1.3,0.8C400.2,153.5,399.6,153.6,398.8,153.6z M398.6,145.6c-0.6,0-1,0.2-1.4,0.7
		s-0.6,1-0.7,1.7l0,0h4v-0.1c0-0.7-0.2-1.2-0.5-1.6S399.2,145.6,398.6,145.6z"/>
	<path d="M403.6,149.1c0-1.4,0.3-2.6,0.9-3.5c0.6-0.9,1.5-1.3,2.6-1.3c0.5,0,1,0.1,1.4,0.3c0.4,0.2,0.8,0.5,1,0.8v-4.9h1.6v12.9
		h-1.2l-0.2-1.1c-0.3,0.4-0.7,0.8-1.1,1c-0.4,0.2-0.9,0.3-1.5,0.3c-1.1,0-1.9-0.4-2.6-1.2c-0.6-0.8-0.9-1.8-0.9-3.1V149.1z
		 M405.2,149.3c0,0.9,0.2,1.6,0.6,2.2c0.4,0.5,0.9,0.8,1.7,0.8c0.5,0,0.9-0.1,1.2-0.3s0.6-0.5,0.8-0.9v-4.2
		c-0.2-0.4-0.5-0.7-0.8-0.9s-0.7-0.3-1.2-0.3c-0.8,0-1.4,0.3-1.7,1c-0.4,0.6-0.6,1.5-0.6,2.5V149.3z"/>
	<path d="M418.5,153.4v-7.7h-1.4v-1.2h1.4v-1.1c0-1,0.2-1.7,0.7-2.2c0.5-0.5,1.2-0.8,2.1-0.8c0.2,0,0.4,0,0.6,0s0.4,0.1,0.6,0.1
		l-0.2,1.2c-0.1,0-0.2,0-0.4-0.1s-0.3,0-0.4,0c-0.5,0-0.8,0.1-1.1,0.4s-0.3,0.7-0.3,1.2v1.1h1.6v1.2h-1.6v7.7H418.5z"/>
</g>
<g class="st1">
	<path d="M427.6,145.9l-0.8,0c-0.4,0-0.8,0.1-1.1,0.3s-0.5,0.5-0.7,0.9v6.4h-1.6v-9h1.5l0.2,1.3c0.3-0.5,0.6-0.8,0.9-1.1
		c0.4-0.3,0.8-0.4,1.3-0.4c0.1,0,0.2,0,0.3,0s0.2,0,0.3,0.1L427.6,145.9z"/>
</g>
<g class="st1">
	<path d="M428.8,148.8c0-1.3,0.4-2.4,1.1-3.3s1.7-1.3,2.9-1.3c1.2,0,2.2,0.4,2.9,1.3c0.7,0.9,1.1,1.9,1.1,3.3v0.2
		c0,1.3-0.4,2.4-1.1,3.3c-0.7,0.8-1.7,1.3-2.9,1.3s-2.2-0.4-2.9-1.3c-0.7-0.9-1.1-1.9-1.1-3.3V148.8z M430.4,149
		c0,0.9,0.2,1.7,0.6,2.3s1,0.9,1.8,0.9c0.8,0,1.4-0.3,1.8-0.9s0.6-1.4,0.6-2.3v-0.2c0-0.9-0.2-1.7-0.6-2.3s-1-0.9-1.8-0.9
		c-0.8,0-1.4,0.3-1.8,0.9s-0.6,1.4-0.6,2.3V149z"/>
	<path d="M440.2,144.4l0.1,1.2c0.3-0.4,0.7-0.8,1.1-1c0.5-0.2,1-0.4,1.6-0.4c0.6,0,1.1,0.1,1.5,0.4c0.4,0.3,0.7,0.7,1,1.2
		c0.3-0.5,0.7-0.9,1.1-1.2c0.5-0.3,1-0.4,1.6-0.4c0.9,0,1.6,0.3,2.2,0.9c0.5,0.6,0.8,1.6,0.8,2.8v5.4h-1.6V148
		c0-0.9-0.2-1.5-0.5-1.9c-0.3-0.4-0.8-0.6-1.4-0.6c-0.6,0-1,0.2-1.4,0.6c-0.3,0.4-0.5,0.9-0.6,1.5v0.1v5.7h-1.6V148
		c0-0.8-0.2-1.5-0.5-1.8s-0.8-0.6-1.3-0.6c-0.5,0-0.9,0.1-1.2,0.3c-0.3,0.2-0.6,0.5-0.7,0.9v6.6h-1.6v-9H440.2z"/>
	<path d="M466.9,141.3v8c0,1.3-0.4,2.4-1.3,3.1c-0.9,0.7-2,1.1-3.3,1.1c-1.3,0-2.4-0.4-3.2-1.1c-0.8-0.7-1.2-1.8-1.2-3.1v-8h1.6v8
		c0,0.9,0.3,1.6,0.8,2.2s1.2,0.8,2,0.8c0.9,0,1.6-0.3,2.2-0.8c0.6-0.5,0.8-1.2,0.8-2.2v-8H466.9z"/>
	<path d="M478.6,153.4h-1.6l-5.8-9.2l0,0v9.2h-1.6v-12h1.6l5.8,9.2l0,0v-9.2h1.6V153.4z"/>
	<path d="M492,150.4c0-0.5-0.2-1-0.6-1.4c-0.4-0.4-1.1-0.7-2.1-0.9c-1.2-0.3-2.2-0.8-2.9-1.3s-1-1.3-1-2.2c0-0.9,0.4-1.7,1.1-2.4
		c0.7-0.6,1.7-0.9,2.9-0.9c1.3,0,2.3,0.4,3,1.1s1.1,1.6,1.1,2.5l0,0H492c0-0.7-0.2-1.2-0.7-1.7c-0.5-0.4-1.1-0.7-1.8-0.7
		c-0.8,0-1.3,0.2-1.8,0.6c-0.4,0.4-0.6,0.8-0.6,1.4c0,0.5,0.2,1,0.7,1.3c0.4,0.4,1.2,0.7,2.2,0.9c1.2,0.3,2.1,0.8,2.8,1.4
		c0.6,0.6,1,1.4,1,2.3c0,1-0.4,1.8-1.1,2.3c-0.8,0.6-1.8,0.9-3,0.9c-1.2,0-2.2-0.3-3.1-1c-0.9-0.7-1.3-1.5-1.3-2.6l0,0h1.6
		c0,0.8,0.3,1.3,0.9,1.7c0.6,0.4,1.2,0.6,1.9,0.6c0.8,0,1.4-0.2,1.8-0.5S492,150.9,492,150.4z"/>
	<path d="M501.4,152.1c-0.3,0.5-0.6,0.8-1.1,1.1c-0.4,0.3-1,0.4-1.5,0.4c-1,0-1.7-0.3-2.3-0.9s-0.8-1.6-0.8-2.9v-5.3h1.6v5.3
		c0,1,0.1,1.6,0.4,2s0.7,0.5,1.3,0.5c0.6,0,1.1-0.1,1.4-0.4c0.4-0.2,0.7-0.6,0.9-1v-6.5h1.6v9h-1.5L501.4,152.1z"/>
	<path d="M513,149.3c0,1.3-0.3,2.3-0.9,3.1c-0.6,0.8-1.5,1.2-2.6,1.2c-0.6,0-1-0.1-1.5-0.3c-0.4-0.2-0.8-0.5-1.1-0.8v4.4h-1.6v-12.4
		h1.2l0.3,1.2c0.3-0.4,0.7-0.8,1.1-1c0.4-0.2,0.9-0.3,1.5-0.3c1.1,0,2,0.4,2.6,1.3c0.6,0.9,0.9,2,0.9,3.5V149.3z M511.4,149.1
		c0-1-0.2-1.8-0.6-2.5s-1-1-1.8-1c-0.5,0-0.9,0.1-1.2,0.3c-0.3,0.2-0.6,0.5-0.8,0.9v4.3c0.2,0.4,0.5,0.7,0.8,0.9
		c0.3,0.2,0.7,0.3,1.2,0.3c0.8,0,1.4-0.3,1.8-0.8c0.4-0.6,0.6-1.3,0.6-2.2V149.1z"/>
	<path d="M522.6,149.3c0,1.3-0.3,2.3-0.9,3.1c-0.6,0.8-1.5,1.2-2.6,1.2c-0.6,0-1-0.1-1.5-0.3c-0.4-0.2-0.8-0.5-1.1-0.8v4.4H515
		v-12.4h1.2l0.3,1.2c0.3-0.4,0.7-0.8,1.1-1c0.4-0.2,0.9-0.3,1.5-0.3c1.1,0,2,0.4,2.6,1.3c0.6,0.9,0.9,2,0.9,3.5V149.3z M521,149.1
		c0-1-0.2-1.8-0.6-2.5s-1-1-1.8-1c-0.5,0-0.9,0.1-1.2,0.3c-0.3,0.2-0.6,0.5-0.8,0.9v4.3c0.2,0.4,0.5,0.7,0.8,0.9
		c0.3,0.2,0.7,0.3,1.2,0.3c0.8,0,1.4-0.3,1.8-0.8c0.4-0.6,0.6-1.3,0.6-2.2V149.1z"/>
	<path d="M524.2,148.8c0-1.3,0.4-2.4,1.1-3.3s1.7-1.3,2.9-1.3c1.2,0,2.2,0.4,2.9,1.3s1.1,1.9,1.1,3.3v0.2c0,1.3-0.4,2.4-1.1,3.3
		c-0.7,0.8-1.7,1.3-2.9,1.3s-2.2-0.4-2.9-1.3c-0.7-0.9-1.1-1.9-1.1-3.3V148.8z M525.9,149c0,0.9,0.2,1.7,0.6,2.3
		c0.4,0.6,1,0.9,1.8,0.9c0.8,0,1.4-0.3,1.8-0.9s0.6-1.4,0.6-2.3v-0.2c0-0.9-0.2-1.7-0.6-2.3s-1-0.9-1.8-0.9c-0.8,0-1.4,0.3-1.8,0.9
		c-0.4,0.6-0.6,1.4-0.6,2.3V149z"/>
</g>
<g class="st1">
	<path d="M538.5,145.9l-0.8,0c-0.4,0-0.8,0.1-1.1,0.3s-0.5,0.5-0.7,0.9v6.4h-1.6v-9h1.5l0.2,1.3c0.3-0.5,0.6-0.8,0.9-1.1
		c0.4-0.3,0.8-0.4,1.3-0.4c0.1,0,0.2,0,0.3,0s0.2,0,0.3,0.1L538.5,145.9z"/>
</g>
<g class="st1">
	<path d="M542.6,142.3v2.2h1.7v1.2h-1.7v5.4c0,0.4,0.1,0.7,0.3,0.9c0.2,0.2,0.4,0.3,0.7,0.3c0.1,0,0.2,0,0.3,0
		c0.1,0,0.2-0.1,0.3-0.1l0.2,1.1c-0.1,0.1-0.3,0.2-0.5,0.2s-0.5,0.1-0.7,0.1c-0.7,0-1.2-0.2-1.6-0.6c-0.4-0.4-0.6-1-0.6-1.9v-5.4
		h-1.4v-1.2h1.4v-2.2H542.6z"/>
</g>
<g class="st1">
	<path d="M290.3,162.6v2.2h1.7v1.2h-1.7v5.4c0,0.4,0.1,0.7,0.3,0.9c0.2,0.2,0.4,0.3,0.7,0.3c0.1,0,0.2,0,0.3,0
		c0.1,0,0.2-0.1,0.3-0.1l0.2,1.1c-0.1,0.1-0.3,0.2-0.5,0.2c-0.2,0.1-0.5,0.1-0.7,0.1c-0.7,0-1.2-0.2-1.6-0.6c-0.4-0.4-0.6-1-0.6-1.9
		V166h-1.4v-1.2h1.4v-2.2H290.3z"/>
	<path d="M293.4,169.2c0-1.3,0.4-2.4,1.1-3.3s1.7-1.3,2.9-1.3c1.2,0,2.2,0.4,2.9,1.3c0.7,0.9,1.1,1.9,1.1,3.3v0.2
		c0,1.3-0.4,2.4-1.1,3.3c-0.7,0.8-1.7,1.3-2.9,1.3s-2.2-0.4-2.9-1.3c-0.7-0.9-1.1-1.9-1.1-3.3V169.2z M295,169.3
		c0,0.9,0.2,1.7,0.6,2.3c0.4,0.6,1,0.9,1.8,0.9c0.8,0,1.4-0.3,1.8-0.9s0.6-1.4,0.6-2.3v-0.2c0-0.9-0.2-1.7-0.6-2.3s-1-0.9-1.8-0.9
		c-0.8,0-1.4,0.3-1.8,0.9c-0.4,0.6-0.6,1.4-0.6,2.3V169.3z"/>
	<path d="M312.8,171.3c0-0.4-0.1-0.7-0.4-0.9c-0.3-0.2-0.8-0.4-1.6-0.6c-1.1-0.2-1.9-0.5-2.4-1c-0.6-0.4-0.8-1-0.8-1.6
		c0-0.7,0.3-1.4,0.9-1.9c0.6-0.5,1.4-0.8,2.4-0.8c1,0,1.8,0.3,2.5,0.8c0.6,0.6,0.9,1.2,0.9,1.9l0,0h-1.6c0-0.4-0.2-0.7-0.5-1
		c-0.3-0.3-0.8-0.5-1.3-0.5c-0.6,0-1,0.1-1.3,0.4s-0.4,0.6-0.4,0.9c0,0.4,0.1,0.6,0.4,0.8c0.2,0.2,0.8,0.4,1.5,0.5
		c1.1,0.2,1.9,0.6,2.5,1s0.9,1,0.9,1.7c0,0.8-0.3,1.4-1,1.9c-0.6,0.5-1.5,0.8-2.5,0.8c-1.1,0-2-0.3-2.7-0.9c-0.7-0.6-1-1.3-0.9-2
		l0,0h1.6c0,0.6,0.2,1,0.6,1.3c0.4,0.3,0.9,0.4,1.4,0.4c0.6,0,1-0.1,1.4-0.4C312.7,172,312.8,171.7,312.8,171.3z"/>
	<path d="M318.8,162.6v2.2h1.7v1.2h-1.7v5.4c0,0.4,0.1,0.7,0.3,0.9c0.2,0.2,0.4,0.3,0.7,0.3c0.1,0,0.2,0,0.3,0
		c0.1,0,0.2-0.1,0.3-0.1l0.2,1.1c-0.1,0.1-0.3,0.2-0.5,0.2c-0.2,0.1-0.5,0.1-0.7,0.1c-0.7,0-1.2-0.2-1.6-0.6c-0.4-0.4-0.6-1-0.6-1.9
		V166h-1.4v-1.2h1.4v-2.2H318.8z"/>
</g>
<g class="st1">
	<path d="M326.4,166.2l-0.8,0c-0.4,0-0.8,0.1-1.1,0.3s-0.5,0.5-0.7,0.9v6.4h-1.6v-9h1.5l0.2,1.3c0.3-0.5,0.6-0.8,0.9-1.1
		c0.4-0.3,0.8-0.4,1.3-0.4c0.1,0,0.2,0,0.3,0s0.2,0,0.3,0.1L326.4,166.2z"/>
</g>
<g class="st1">
	<path d="M331.7,173.9c-1.3,0-2.3-0.4-3-1.2s-1.1-1.9-1.1-3.2v-0.4c0-1.3,0.4-2.3,1.1-3.2c0.7-0.8,1.6-1.3,2.7-1.3
		c1.2,0,2.1,0.4,2.7,1.1c0.6,0.7,0.9,1.7,0.9,3v0.9h-5.7l0,0c0,0.9,0.2,1.6,0.6,2.2c0.4,0.6,1,0.8,1.8,0.8c0.6,0,1-0.1,1.5-0.2
		s0.8-0.4,1.1-0.6l0.6,1.1c-0.3,0.3-0.7,0.6-1.3,0.8C333,173.8,332.4,173.9,331.7,173.9z M331.4,165.9c-0.6,0-1,0.2-1.4,0.7
		s-0.6,1-0.7,1.7l0,0h4v-0.1c0-0.7-0.2-1.2-0.5-1.6S332.1,165.9,331.4,165.9z"/>
	<path d="M338.3,164.8l0.1,1.3c0.3-0.5,0.7-0.8,1.1-1.1c0.4-0.3,1-0.4,1.5-0.4c1,0,1.7,0.3,2.2,0.8c0.5,0.6,0.8,1.4,0.8,2.6v5.6
		h-1.6v-5.6c0-0.8-0.2-1.3-0.5-1.7c-0.3-0.3-0.8-0.5-1.4-0.5c-0.5,0-0.9,0.1-1.3,0.3c-0.4,0.2-0.6,0.5-0.8,0.8v6.6h-1.6v-9H338.3z"
		/>
	<path d="M346.2,169.4c0-1.4,0.3-2.6,0.9-3.5c0.6-0.9,1.5-1.3,2.6-1.3c0.6,0,1.1,0.1,1.5,0.3c0.4,0.2,0.8,0.6,1.1,1l0.2-1.2h1.3v9
		c0,1.1-0.3,2-1,2.6s-1.6,0.9-2.9,0.9c-0.4,0-0.9-0.1-1.4-0.2c-0.5-0.1-0.9-0.3-1.3-0.5l0.2-1.3c0.3,0.2,0.7,0.3,1.1,0.4
		c0.4,0.1,0.9,0.2,1.3,0.2c0.8,0,1.4-0.2,1.7-0.5c0.4-0.4,0.5-0.9,0.5-1.7v-1c-0.3,0.4-0.6,0.7-1,0.9c-0.4,0.2-0.9,0.3-1.4,0.3
		c-1.1,0-1.9-0.4-2.6-1.2c-0.6-0.8-0.9-1.8-0.9-3.1V169.4z M347.8,169.6c0,0.9,0.2,1.6,0.6,2.2c0.4,0.5,0.9,0.8,1.7,0.8
		c0.5,0,0.9-0.1,1.2-0.3c0.3-0.2,0.6-0.5,0.8-0.9v-4.1c-0.2-0.4-0.5-0.7-0.8-0.9c-0.3-0.2-0.7-0.3-1.2-0.3c-0.8,0-1.4,0.3-1.7,1
		c-0.4,0.6-0.6,1.5-0.6,2.5V169.6z"/>
	<path d="M358.4,162.6v2.2h1.7v1.2h-1.7v5.4c0,0.4,0.1,0.7,0.3,0.9c0.2,0.2,0.4,0.3,0.7,0.3c0.1,0,0.2,0,0.3,0
		c0.1,0,0.2-0.1,0.3-0.1l0.2,1.1c-0.1,0.1-0.3,0.2-0.5,0.2s-0.5,0.1-0.7,0.1c-0.7,0-1.2-0.2-1.6-0.6c-0.4-0.4-0.6-1-0.6-1.9V166
		h-1.4v-1.2h1.4v-2.2H358.4z"/>
	<path d="M363.4,166c0.3-0.4,0.7-0.8,1.1-1c0.4-0.2,0.9-0.4,1.5-0.4c1,0,1.7,0.3,2.2,0.9s0.8,1.5,0.8,2.6v5.6h-1.6v-5.6
		c0-0.7-0.2-1.3-0.5-1.6c-0.3-0.4-0.8-0.5-1.4-0.5c-0.5,0-0.9,0.1-1.3,0.3c-0.4,0.2-0.6,0.5-0.9,0.8v6.7h-1.6v-12.9h1.6V166z"/>
	<path d="M375.1,173.9c-1.3,0-2.3-0.4-3-1.2s-1.1-1.9-1.1-3.2v-0.4c0-1.3,0.4-2.3,1.1-3.2s1.6-1.3,2.7-1.3c1.2,0,2.1,0.4,2.7,1.1
		c0.6,0.7,0.9,1.7,0.9,3v0.9h-5.7l0,0c0,0.9,0.2,1.6,0.6,2.2c0.4,0.6,1,0.8,1.8,0.8c0.6,0,1-0.1,1.5-0.2c0.4-0.2,0.8-0.4,1.1-0.6
		l0.6,1.1c-0.3,0.3-0.7,0.6-1.3,0.8C376.5,173.8,375.9,173.9,375.1,173.9z M374.9,165.9c-0.6,0-1,0.2-1.4,0.7s-0.6,1-0.7,1.7l0,0h4
		v-0.1c0-0.7-0.2-1.2-0.5-1.6C376,166.1,375.5,165.9,374.9,165.9z"/>
	<path d="M381.7,164.8l0.1,1.3c0.3-0.5,0.7-0.8,1.1-1.1c0.4-0.3,1-0.4,1.5-0.4c1,0,1.7,0.3,2.2,0.8c0.5,0.6,0.8,1.4,0.8,2.6v5.6
		h-1.6v-5.6c0-0.8-0.2-1.3-0.5-1.7c-0.3-0.3-0.8-0.5-1.4-0.5c-0.5,0-0.9,0.1-1.3,0.3c-0.4,0.2-0.6,0.5-0.8,0.8v6.6h-1.6v-9H381.7z"
		/>
	<path d="M399.3,171.3c0-0.4-0.1-0.7-0.4-0.9c-0.3-0.2-0.8-0.4-1.6-0.6c-1.1-0.2-1.9-0.5-2.4-1c-0.6-0.4-0.8-1-0.8-1.6
		c0-0.7,0.3-1.4,0.9-1.9c0.6-0.5,1.4-0.8,2.4-0.8c1,0,1.8,0.3,2.5,0.8c0.6,0.6,0.9,1.2,0.9,1.9l0,0h-1.6c0-0.4-0.2-0.7-0.5-1
		c-0.3-0.3-0.8-0.5-1.3-0.5c-0.6,0-1,0.1-1.3,0.4s-0.4,0.6-0.4,0.9c0,0.4,0.1,0.6,0.4,0.8c0.2,0.2,0.8,0.4,1.5,0.5
		c1.1,0.2,1.9,0.6,2.5,1c0.6,0.4,0.9,1,0.9,1.7c0,0.8-0.3,1.4-1,1.9s-1.5,0.8-2.5,0.8c-1.1,0-2-0.3-2.7-0.9c-0.7-0.6-1-1.3-0.9-2
		l0,0h1.6c0,0.6,0.2,1,0.6,1.3c0.4,0.3,0.9,0.4,1.4,0.4c0.6,0,1-0.1,1.4-0.4C399.2,172,399.3,171.7,399.3,171.3z"/>
	<path d="M402.6,169.2c0-1.3,0.4-2.4,1.1-3.3s1.7-1.3,2.9-1.3c1.2,0,2.2,0.4,2.9,1.3c0.7,0.9,1.1,1.9,1.1,3.3v0.2
		c0,1.3-0.4,2.4-1.1,3.3c-0.7,0.8-1.7,1.3-2.9,1.3s-2.2-0.4-2.9-1.3c-0.7-0.9-1.1-1.9-1.1-3.3V169.2z M404.2,169.3
		c0,0.9,0.2,1.7,0.6,2.3s1,0.9,1.8,0.9c0.8,0,1.4-0.3,1.8-0.9s0.6-1.4,0.6-2.3v-0.2c0-0.9-0.2-1.7-0.6-2.3s-1-0.9-1.8-0.9
		c-0.8,0-1.4,0.3-1.8,0.9s-0.6,1.4-0.6,2.3V169.3z"/>
	<path d="M416.2,172.6c0.5,0,0.9-0.2,1.3-0.5s0.6-0.7,0.6-1.2h1.5l0,0c0,0.8-0.3,1.5-1,2.1c-0.7,0.6-1.5,0.9-2.4,0.9
		c-1.3,0-2.2-0.4-2.9-1.3c-0.7-0.9-1-1.9-1-3.2v-0.3c0-1.3,0.3-2.3,1-3.2s1.7-1.3,2.9-1.3c1,0,1.8,0.3,2.5,0.9
		c0.6,0.6,0.9,1.4,0.9,2.3l0,0H418c0-0.5-0.2-1-0.5-1.4c-0.4-0.4-0.8-0.6-1.3-0.6c-0.8,0-1.4,0.3-1.7,0.9c-0.4,0.6-0.6,1.4-0.6,2.3
		v0.3c0,0.9,0.2,1.7,0.5,2.3S415.4,172.6,416.2,172.6z"/>
	<path d="M423.2,162.5h-1.6v-1.7h1.6V162.5z M423.2,173.7h-1.6v-9h1.6V173.7z"/>
	<path d="M431.2,173.7c-0.1-0.3-0.1-0.5-0.1-0.7c0-0.2,0-0.4-0.1-0.6c-0.3,0.4-0.7,0.8-1.2,1.1c-0.5,0.3-1,0.4-1.6,0.4
		c-0.9,0-1.6-0.2-2.1-0.7c-0.5-0.5-0.7-1.1-0.7-2c0-0.9,0.3-1.5,1-2s1.6-0.7,2.8-0.7h1.8v-0.9c0-0.5-0.2-0.9-0.5-1.2
		c-0.3-0.3-0.8-0.5-1.4-0.5c-0.5,0-1,0.1-1.3,0.4c-0.3,0.3-0.5,0.6-0.5,1l-1.5,0l0,0c0-0.7,0.3-1.2,0.9-1.8c0.6-0.5,1.5-0.8,2.5-0.8
		c1,0,1.8,0.3,2.4,0.8c0.6,0.5,0.9,1.3,0.9,2.2v4.3c0,0.3,0,0.6,0,0.9s0.1,0.6,0.2,0.9H431.2z M428.5,172.5c0.6,0,1.1-0.2,1.6-0.5
		c0.5-0.3,0.8-0.7,0.9-1v-1.5h-1.8c-0.7,0-1.2,0.2-1.6,0.5s-0.6,0.7-0.6,1.2c0,0.4,0.1,0.7,0.4,0.9
		C427.7,172.4,428.1,172.5,428.5,172.5z"/>
	<path d="M436.8,173.7h-1.6v-12.9h1.6V173.7z"/>
	<path d="M451.2,169.6c0,1.3-0.3,2.3-0.9,3.1c-0.6,0.8-1.5,1.2-2.6,1.2c-0.6,0-1-0.1-1.5-0.3s-0.8-0.5-1.1-0.8v4.4h-1.6v-12.4h1.2
		l0.3,1.2c0.3-0.4,0.7-0.8,1.1-1c0.4-0.2,0.9-0.3,1.5-0.3c1.1,0,2,0.4,2.6,1.3c0.6,0.9,0.9,2,0.9,3.5V169.6z M449.5,169.4
		c0-1-0.2-1.8-0.6-2.5c-0.4-0.7-1-1-1.8-1c-0.5,0-0.9,0.1-1.2,0.3c-0.3,0.2-0.6,0.5-0.8,0.9v4.3c0.2,0.4,0.5,0.7,0.8,0.9
		s0.7,0.3,1.2,0.3c0.8,0,1.4-0.3,1.8-0.8c0.4-0.6,0.6-1.3,0.6-2.2V169.4z"/>
</g>
<g class="st1">
	<path d="M457.4,166.2l-0.8,0c-0.4,0-0.8,0.1-1.1,0.3s-0.5,0.5-0.7,0.9v6.4h-1.6v-9h1.5l0.2,1.3c0.3-0.5,0.6-0.8,0.9-1.1
		c0.4-0.3,0.8-0.4,1.3-0.4c0.1,0,0.2,0,0.3,0s0.2,0,0.3,0.1L457.4,166.2z"/>
</g>
<g class="st1">
	<path d="M458.5,169.2c0-1.3,0.4-2.4,1.1-3.3s1.7-1.3,2.9-1.3c1.2,0,2.2,0.4,2.9,1.3s1.1,1.9,1.1,3.3v0.2c0,1.3-0.4,2.4-1.1,3.3
		c-0.7,0.8-1.7,1.3-2.9,1.3s-2.2-0.4-2.9-1.3c-0.7-0.9-1.1-1.9-1.1-3.3V169.2z M460.2,169.3c0,0.9,0.2,1.7,0.6,2.3
		c0.4,0.6,1,0.9,1.8,0.9c0.8,0,1.4-0.3,1.8-0.9s0.6-1.4,0.6-2.3v-0.2c0-0.9-0.2-1.7-0.6-2.3c-0.4-0.6-1-0.9-1.8-0.9
		c-0.8,0-1.4,0.3-1.8,0.9c-0.4,0.6-0.6,1.4-0.6,2.3V169.3z"/>
	<path d="M470.8,162.6v2.2h1.7v1.2h-1.7v5.4c0,0.4,0.1,0.7,0.3,0.9c0.2,0.2,0.4,0.3,0.7,0.3c0.1,0,0.2,0,0.3,0
		c0.1,0,0.2-0.1,0.3-0.1l0.2,1.1c-0.1,0.1-0.3,0.2-0.5,0.2s-0.5,0.1-0.7,0.1c-0.7,0-1.2-0.2-1.6-0.6c-0.4-0.4-0.6-1-0.6-1.9V166
		h-1.4v-1.2h1.4v-2.2H470.8z"/>
	<path d="M478,173.9c-1.3,0-2.3-0.4-3-1.2s-1.1-1.9-1.1-3.2v-0.4c0-1.3,0.4-2.3,1.1-3.2c0.7-0.8,1.6-1.3,2.7-1.3
		c1.2,0,2.1,0.4,2.7,1.1c0.6,0.7,0.9,1.7,0.9,3v0.9h-5.7l0,0c0,0.9,0.2,1.6,0.6,2.2c0.4,0.6,1,0.8,1.8,0.8c0.6,0,1-0.1,1.5-0.2
		c0.4-0.2,0.8-0.4,1.1-0.6l0.6,1.1c-0.3,0.3-0.7,0.6-1.3,0.8C479.3,173.8,478.7,173.9,478,173.9z M477.7,165.9c-0.6,0-1,0.2-1.4,0.7
		s-0.6,1-0.7,1.7l0,0h4v-0.1c0-0.7-0.2-1.2-0.5-1.6C478.9,166.1,478.4,165.9,477.7,165.9z"/>
	<path d="M486.7,172.6c0.5,0,0.9-0.2,1.3-0.5s0.6-0.7,0.6-1.2h1.5l0,0c0,0.8-0.3,1.5-1,2.1c-0.7,0.6-1.5,0.9-2.4,0.9
		c-1.3,0-2.2-0.4-2.9-1.3s-1-1.9-1-3.2v-0.3c0-1.3,0.3-2.3,1-3.2c0.7-0.9,1.7-1.3,2.9-1.3c1,0,1.8,0.3,2.5,0.9
		c0.6,0.6,0.9,1.4,0.9,2.3l0,0h-1.5c0-0.5-0.2-1-0.5-1.4c-0.4-0.4-0.8-0.6-1.3-0.6c-0.8,0-1.4,0.3-1.8,0.9c-0.4,0.6-0.5,1.4-0.5,2.3
		v0.3c0,0.9,0.2,1.7,0.5,2.3S485.9,172.6,486.7,172.6z"/>
	<path d="M494.2,162.6v2.2h1.7v1.2h-1.7v5.4c0,0.4,0.1,0.7,0.3,0.9c0.2,0.2,0.4,0.3,0.7,0.3c0.1,0,0.2,0,0.3,0
		c0.1,0,0.2-0.1,0.3-0.1l0.2,1.1c-0.1,0.1-0.3,0.2-0.5,0.2s-0.5,0.1-0.7,0.1c-0.7,0-1.2-0.2-1.6-0.6c-0.4-0.4-0.6-1-0.6-1.9V166
		h-1.4v-1.2h1.4v-2.2H494.2z"/>
	<path d="M499.5,162.5h-1.6v-1.7h1.6V162.5z M499.5,173.7h-1.6v-9h1.6V173.7z"/>
	<path d="M501.6,169.2c0-1.3,0.4-2.4,1.1-3.3s1.7-1.3,2.9-1.3c1.2,0,2.2,0.4,2.9,1.3s1.1,1.9,1.1,3.3v0.2c0,1.3-0.4,2.4-1.1,3.3
		c-0.7,0.8-1.7,1.3-2.9,1.3s-2.2-0.4-2.9-1.3c-0.7-0.9-1.1-1.9-1.1-3.3V169.2z M503.2,169.3c0,0.9,0.2,1.7,0.6,2.3
		c0.4,0.6,1,0.9,1.8,0.9c0.8,0,1.4-0.3,1.8-0.9s0.6-1.4,0.6-2.3v-0.2c0-0.9-0.2-1.7-0.6-2.3c-0.4-0.6-1-0.9-1.8-0.9
		c-0.8,0-1.4,0.3-1.8,0.9c-0.4,0.6-0.6,1.4-0.6,2.3V169.3z"/>
	<path d="M513,164.8l0.1,1.3c0.3-0.5,0.7-0.8,1.1-1.1c0.5-0.3,1-0.4,1.5-0.4c1,0,1.7,0.3,2.2,0.8c0.5,0.6,0.8,1.4,0.8,2.6v5.6h-1.6
		v-5.6c0-0.8-0.2-1.3-0.5-1.7c-0.3-0.3-0.8-0.5-1.4-0.5c-0.5,0-0.9,0.1-1.3,0.3c-0.4,0.2-0.6,0.5-0.8,0.8v6.6h-1.6v-9H513z"/>
</g>
<g class="st1">
	<path d="M361.5,189.9c0,1.3-0.3,2.3-0.9,3.1c-0.6,0.8-1.5,1.2-2.6,1.2c-0.6,0-1-0.1-1.5-0.3s-0.8-0.5-1.1-0.8v4.4h-1.6v-12.4h1.2
		l0.3,1.2c0.3-0.4,0.7-0.8,1.1-1c0.4-0.2,0.9-0.3,1.5-0.3c1.1,0,2,0.4,2.6,1.3c0.6,0.9,0.9,2,0.9,3.5V189.9z M359.9,189.7
		c0-1-0.2-1.8-0.6-2.5c-0.4-0.7-1-1-1.8-1c-0.5,0-0.9,0.1-1.2,0.3c-0.3,0.2-0.6,0.5-0.8,0.9v4.3c0.2,0.4,0.5,0.7,0.8,0.9
		s0.7,0.3,1.2,0.3c0.8,0,1.4-0.3,1.8-0.8c0.4-0.6,0.6-1.3,0.6-2.2V189.7z"/>
</g>
<g class="st1">
	<path d="M367.8,186.5l-0.8,0c-0.4,0-0.8,0.1-1.1,0.3s-0.5,0.5-0.7,0.9v6.4h-1.6v-9h1.5l0.2,1.3c0.3-0.5,0.6-0.8,0.9-1.1
		c0.4-0.3,0.8-0.4,1.3-0.4c0.1,0,0.2,0,0.3,0s0.2,0,0.3,0.1L367.8,186.5z"/>
</g>
<g class="st1">
	<path d="M368.9,189.5c0-1.3,0.4-2.4,1.1-3.3s1.7-1.3,2.9-1.3c1.2,0,2.2,0.4,2.9,1.3s1.1,1.9,1.1,3.3v0.2c0,1.3-0.4,2.4-1.1,3.3
		c-0.7,0.8-1.7,1.3-2.9,1.3s-2.2-0.4-2.9-1.3c-0.7-0.9-1.1-1.9-1.1-3.3V189.5z M370.6,189.7c0,0.9,0.2,1.7,0.6,2.3
		c0.4,0.6,1,0.9,1.8,0.9c0.8,0,1.4-0.3,1.8-0.9s0.6-1.4,0.6-2.3v-0.2c0-0.9-0.2-1.7-0.6-2.3s-1-0.9-1.8-0.9c-0.8,0-1.4,0.3-1.8,0.9
		c-0.4,0.6-0.6,1.4-0.6,2.3V189.7z"/>
	<path d="M378.7,189.7c0-1.4,0.3-2.6,0.9-3.5c0.6-0.9,1.5-1.3,2.6-1.3c0.6,0,1.1,0.1,1.5,0.3c0.4,0.2,0.8,0.6,1.1,1l0.2-1.2h1.3v9
		c0,1.1-0.3,2-1,2.6c-0.7,0.6-1.6,0.9-2.9,0.9c-0.4,0-0.9-0.1-1.4-0.2c-0.5-0.1-0.9-0.3-1.3-0.5l0.2-1.3c0.3,0.2,0.7,0.3,1.1,0.4
		c0.4,0.1,0.9,0.2,1.3,0.2c0.8,0,1.4-0.2,1.7-0.5c0.4-0.4,0.5-0.9,0.5-1.7v-1c-0.3,0.4-0.6,0.7-1.1,0.9c-0.4,0.2-0.9,0.3-1.4,0.3
		c-1.1,0-1.9-0.4-2.6-1.2c-0.6-0.8-0.9-1.8-0.9-3.1V189.7z M380.3,189.9c0,0.9,0.2,1.6,0.6,2.2s0.9,0.8,1.7,0.8
		c0.5,0,0.9-0.1,1.2-0.3c0.3-0.2,0.6-0.5,0.8-0.9v-4.1c-0.2-0.4-0.5-0.7-0.8-0.9c-0.3-0.2-0.7-0.3-1.2-0.3c-0.8,0-1.4,0.3-1.7,1
		c-0.4,0.6-0.6,1.5-0.6,2.5V189.9z"/>
	<path d="M392.8,186.5l-0.8,0c-0.4,0-0.8,0.1-1.1,0.3s-0.5,0.5-0.7,0.9v6.4h-1.6v-9h1.5l0.2,1.3c0.3-0.5,0.6-0.8,0.9-1.1
		c0.4-0.3,0.8-0.4,1.3-0.4c0.1,0,0.2,0,0.3,0s0.2,0,0.3,0.1L392.8,186.5z"/>
	<path d="M400,194c-0.1-0.3-0.1-0.5-0.1-0.7c0-0.2,0-0.4-0.1-0.6c-0.3,0.4-0.7,0.8-1.2,1.1c-0.5,0.3-1,0.4-1.6,0.4
		c-0.9,0-1.6-0.2-2.1-0.7c-0.5-0.5-0.7-1.1-0.7-2c0-0.9,0.3-1.5,1-2s1.6-0.7,2.8-0.7h1.8v-0.9c0-0.5-0.2-0.9-0.5-1.2
		c-0.3-0.3-0.8-0.5-1.4-0.5c-0.5,0-1,0.1-1.3,0.4c-0.3,0.3-0.5,0.6-0.5,1l-1.5,0l0,0c0-0.7,0.3-1.2,0.9-1.8c0.6-0.5,1.5-0.8,2.5-0.8
		c1,0,1.8,0.3,2.4,0.8c0.6,0.5,0.9,1.3,0.9,2.2v4.3c0,0.3,0,0.6,0,0.9s0.1,0.6,0.2,0.9H400z M397.3,192.8c0.6,0,1.1-0.2,1.6-0.5
		c0.5-0.3,0.8-0.7,0.9-1v-1.5H398c-0.7,0-1.2,0.2-1.6,0.5s-0.6,0.7-0.6,1.2c0,0.4,0.1,0.7,0.4,0.9
		C396.4,192.7,396.8,192.8,397.3,192.8z"/>
	<path d="M405.3,185.1l0.1,1.2c0.3-0.4,0.7-0.8,1.1-1c0.5-0.2,1-0.4,1.6-0.4c0.6,0,1.1,0.1,1.5,0.4c0.4,0.3,0.7,0.7,1,1.2
		c0.3-0.5,0.7-0.9,1.1-1.2c0.5-0.3,1-0.4,1.6-0.4c0.9,0,1.6,0.3,2.2,0.9c0.5,0.6,0.8,1.6,0.8,2.8v5.4h-1.6v-5.4
		c0-0.9-0.2-1.5-0.5-1.9c-0.3-0.4-0.8-0.6-1.4-0.6c-0.6,0-1,0.2-1.4,0.6c-0.3,0.4-0.5,0.9-0.6,1.5v0.1v5.7h-1.6v-5.4
		c0-0.8-0.2-1.5-0.5-1.8s-0.8-0.6-1.3-0.6c-0.5,0-0.9,0.1-1.2,0.3c-0.3,0.2-0.6,0.5-0.7,0.9v6.6h-1.6v-9H405.3z"/>
	<path d="M420.1,185.1l0.1,1.2c0.3-0.4,0.7-0.8,1.1-1c0.5-0.2,1-0.4,1.6-0.4c0.6,0,1.1,0.1,1.5,0.4c0.4,0.3,0.7,0.7,1,1.2
		c0.3-0.5,0.7-0.9,1.1-1.2c0.5-0.3,1-0.4,1.6-0.4c0.9,0,1.6,0.3,2.2,0.9c0.5,0.6,0.8,1.6,0.8,2.8v5.4h-1.6v-5.4
		c0-0.9-0.2-1.5-0.5-1.9c-0.3-0.4-0.8-0.6-1.4-0.6c-0.6,0-1,0.2-1.4,0.6c-0.3,0.4-0.5,0.9-0.6,1.5v0.1v5.7H424v-5.4
		c0-0.8-0.2-1.5-0.5-1.8s-0.8-0.6-1.3-0.6c-0.5,0-0.9,0.1-1.2,0.3c-0.3,0.2-0.6,0.5-0.7,0.9v6.6h-1.6v-9H420.1z"/>
	<path d="M437.1,194.2c-1.3,0-2.3-0.4-3-1.2s-1.1-1.9-1.1-3.2v-0.4c0-1.3,0.4-2.3,1.1-3.2s1.6-1.3,2.7-1.3c1.2,0,2.1,0.4,2.7,1.1
		c0.6,0.7,0.9,1.7,0.9,3v0.9h-5.7l0,0c0,0.9,0.2,1.6,0.6,2.2c0.4,0.6,1,0.8,1.8,0.8c0.6,0,1-0.1,1.5-0.2c0.4-0.2,0.8-0.4,1.1-0.6
		l0.6,1.1c-0.3,0.3-0.7,0.6-1.3,0.8C438.5,194.1,437.9,194.2,437.1,194.2z M436.9,186.2c-0.6,0-1,0.2-1.4,0.7s-0.6,1-0.7,1.7l0,0h4
		v-0.1c0-0.7-0.2-1.2-0.5-1.6C438,186.4,437.5,186.2,436.9,186.2z"/>
	<path d="M447.5,191.6c0-0.4-0.1-0.7-0.4-0.9c-0.3-0.2-0.8-0.4-1.6-0.6c-1.1-0.2-1.9-0.5-2.4-1c-0.6-0.4-0.8-1-0.8-1.6
		c0-0.7,0.3-1.4,0.9-1.9c0.6-0.5,1.4-0.8,2.4-0.8c1,0,1.8,0.3,2.5,0.8c0.6,0.6,0.9,1.2,0.9,1.9l0,0h-1.6c0-0.4-0.2-0.7-0.5-1
		c-0.3-0.3-0.8-0.5-1.3-0.5c-0.6,0-1,0.1-1.3,0.4s-0.4,0.6-0.4,0.9c0,0.4,0.1,0.6,0.4,0.8c0.2,0.2,0.8,0.4,1.5,0.5
		c1.1,0.2,1.9,0.6,2.5,1c0.6,0.4,0.9,1,0.9,1.7c0,0.8-0.3,1.4-1,1.9s-1.5,0.8-2.5,0.8c-1.1,0-2-0.3-2.7-0.9c-0.7-0.6-1-1.3-0.9-2
		l0,0h1.6c0,0.6,0.2,1,0.6,1.3c0.4,0.3,0.9,0.4,1.4,0.4c0.6,0,1-0.1,1.4-0.4C447.3,192.3,447.5,192,447.5,191.6z"/>
</g>
<rect x="47.6" y="38.4" transform="matrix(0.7086 -0.7056 0.7056 0.7086 -46.6701 125.2088)" class="st2" width="161.4" height="161.4"/>
<g class="st3">
	<path class="st4" d="M128.1,221.7L25.8,118.9L128.5,16.6l102.3,102.8L128.1,221.7z M28.9,118.9l99.2,99.6l99.6-99.2l-99.2-99.6
		L28.9,118.9z M128.1,208.7L94,174.4l26.2-26.1l-25.4-25.4l-18,18l11.9,11.9l4.9-4.9l-7-7l8.2-8.1l15.5,15.5L89,169.4l-29.8-30
		L79.6,119L59.3,98.6l30-29.9L110.4,90l-15.5,15.5l-8.1-8.2l7-7l-4.9-4.9l-12,11.9l18,18L120.3,90L94.2,63.8l34.3-34.2l34.2,34.3
		L136.5,90l25.3,25.4l18-18L168,85.5l-4.9,4.9l6.9,7l-8.2,8.1l-15.5-15.6l21.3-21.2l29.9,30L177,119.1l20.4,20.5l-30,29.9
		l-21.2-21.3l15.6-15.5l8.1,8.2l-7,6.9l4.9,4.9l12-11.9l-18-18l-25.4,25.3l26.1,26.2L128.1,208.7z M97.1,174.4l31,31.1l31.1-31
		l-26.1-26.2l28.6-28.5l21.1,21.2l-15.1,15l-8.1-8.1l7-7l-5-5l-12.4,12.3l18,18.1l26.8-26.7l-20.4-20.5l20.5-20.4L167.5,72l-18.1,18
		l12.3,12.4l5-5l-7-7l8.1-8.1l15,15.1l-21.2,21.1L133.2,90l26.2-26.1l-31-31.1l-31.1,31L123.5,90l-28.6,28.5L73.7,97.3l15.1-15
		l8.1,8.1l-7,6.9l5,5L107.3,90l-18-18.1L62.4,98.6l20.4,20.5l-20.5,20.4L89,166.3l18.1-18l-12.3-12.4l-5,5l7,7l-8.1,8.1l-15-15.1
		l21.2-21.1l28.5,28.6L97.1,174.4z M202.2,134.8l-15.5-15.6l15.6-15.5l15.5,15.6L202.2,134.8z M190,119.3l12.3,12.4l12.4-12.3
		L202.3,107L190,119.3z M54.3,134.5L38.8,119l15.5-15.5L69.8,119L54.3,134.5z M41.9,119l12.3,12.4L66.6,119l-12.3-12.3L41.9,119z"/>
	<path class="st4" d="M128.1,198.1l-24-24.1l24.1-24l24,24.1L128.1,198.1z M107.3,174l20.8,20.9l20.9-20.8l-20.8-20.9L107.3,174z"/>
	<path class="st4" d="M128.4,87.6l-24-24.1l24.1-24l24,24.1L128.4,87.6z M107.6,63.5l20.8,20.9l20.9-20.8l-20.8-20.9L107.6,63.5z"/>
</g>
<path class="st4" d="M161.4,142.6c-1.6,0-3.3,0-4.9,0c-2.7,0.1-5.1-1.6-5.9-4.3c-0.6-2.3-0.6-4.8,0-7.1c0.8-2.8,3.5-4.6,6.4-4.2
	c2.8,0.3,5,2.6,5.2,5.4c0.1,1.4,0,2.7,0.1,4.1c-0.1,0.8,0.5,1.5,1.3,1.6c0,0,0,0,0.1,0c0.8,0,1.5-0.6,1.5-1.4v-0.1
	c0-1.4,0.1-2.9-0.1-4.3c-0.4-4.9-4.7-8.5-9.5-8.1c-3.7,0.3-6.9,3-7.8,6.6c-0.3,1.6-0.4,3.3-0.3,5c-0.2,2.5,0.6,4.9,2.2,6.7
	c0,0,0,0.1,0,0.2c-3,0.4-5.8,2.1-7.4,4.8c-0.1-0.1-0.1-0.1-0.2-0.2c-2-3.1-5.5-4.9-9.1-4.7c-1.5,0-3,0-4.6,0c-3.3,0-6-2.7-6-6
	c0-0.1,0-0.1,0-0.2c0-1.2,0-2.3,0-3.5c0.4-3.3,3.4-5.6,6.7-5.2c2.7,0.3,4.9,2.5,5.2,5.2c0,1.1,0,2.3,0,3.4s0.6,1.7,1.4,1.8
	s1.4-0.6,1.5-1.7s0-2.4,0-3.6c0-2.6-1.3-5.1-3.3-6.8c-0.3-0.3-0.7-0.5-1-0.8c1.1-0.8,2.5-1.3,3.9-1.3c1.8,0,3.6,0,5.4,0
	c4.4,0.1,8.1-3,8.9-7.3c0.2-1.8,0.3-3.7,0.1-5.5c-0.1-4-2.9-7.3-6.7-8.2c-0.5-0.1-0.9-0.5-0.9-1c-0.8-3.1-3-5.6-5.9-6.8
	c-0.9-0.3-1.8-0.6-2.7-0.8c1.9-3,2.2-3.9,2.3-6.3c0-1.2,0-2.4,0-3.7c-0.1-3.8-2.7-7.1-6.4-8.2c-0.4-0.1-0.9,0-1.2-0.3H127
	c-0.5,0.2-1.1,0.1-1.6,0.3c-3.5,1.3-5.9,4.6-5.9,8.3c0,1.2,0,2.5,0,3.7c0,1.9,0.5,3.7,1.6,5.3c0.4,0.7,0.4,0.7-0.3,0.9
	c-1.1,0.2-2.1,0.6-3,1.2c-0.6,0.4-0.9,1.2-0.6,1.9c0.3,0.8,1.1,1.2,1.9,1c0.3-0.1,0.5-0.2,0.8-0.3c1-0.6,2.2-0.8,3.3-0.8
	c3.5,0,7.1,0,10.6,0c2.8-0.1,5.4,1.6,6.5,4.3c0.3,0.6,0.2,0.9-0.5,1.1c-3.9,1.2-6.6,4.9-6.4,9c0,1,0,1.9,0,2.9c-0.1,2,0.5,4,1.6,5.6
	c0.3,0.5,0.3,0.7-0.3,0.8c-1.5,0.3-2.9,1-4.1,2c-0.6,0.5-1.5,0.8-2.3,0.8c-4.8,0.1-8.7,4-8.8,8.8c0,1.3,0,2.6,0,3.9
	c0,1.8,0.5,3.5,1.5,5c0.5,0.8,0.5,0.8-0.4,1.1c-2.2,0.6-4.1,1.8-5.5,3.6c-0.5,0.7-0.6,0.7-1.2,0c-1.9-2.4-4.8-3.9-7.8-3.9
	c-2.2,0.1-4.4,0-6.5-0.2c-2.3-0.4-4.1-2.1-4.6-4.3c-0.4-2.1-0.4-4.2,0-6.3c0.4-2,1.9-3.5,3.8-4.1c3-0.9,6.3,0.7,7.2,3.8
	c0.2,0.6,0.3,1.1,0.3,1.7c0,1.1,0,2.3,0,3.4c0,0.4,0.1,0.8,0.3,1.1c0.4,0.6,1.1,0.8,1.7,0.7c0.7-0.2,1.3-0.8,1.3-1.6
	c0.1-1.1,0-2.2,0-3.3c0.1-3-1.3-5.8-3.6-7.6c-0.5-0.4-0.4-0.6,0.1-0.8c0.9-0.4,1.9-0.7,2.9-0.7c1.8,0,3.7,0,5.5,0
	c4.4,0,8.1-3.1,9-7.4c0.2-1.6,0.2-3.2,0.2-4.8c0.3-4.3-2.5-8.1-6.7-9.2c-0.5-0.1-0.9-0.5-1-1c-1-3.7-3.9-6.5-7.6-7.3
	c-0.7-0.2-0.6-0.4-0.3-0.8c0.8-1.1,1.4-2.5,1.6-3.9c0.1-1.5,0.2-2.9,0.2-4.4c0.2-4.2-2.8-9.1-7.8-9.4h-2.4c-0.7,0.1-1.3,0.2-2,0.3
	c-3.2,1.2-5.5,4.1-5.9,7.5c-0.2,1,0,2-0.1,2.9c-0.3,2.4,0.3,4.7,1.5,6.7c0.6,0.8,0.6,0.8-0.4,1.1c-2.1,0.6-3.9,1.7-5.2,3.4
	c-1.3,1.5-2,3.4-2.1,5.3v10.2c0.3,1,0.8,1.3,1.7,1.2c0.8-0.1,1.4-0.8,1.4-1.7c0-0.3,0-0.6,0-0.8c0-2.5,0-5,0-7.5
	c0-3.9,3.1-7.1,7-7.1c0.1,0,0.1,0,0.2,0c3.5,0,7.1,0,10.6,0c2.6-0.1,4.9,1.4,6,3.7c0.7,1.3,0.7,1.3-0.8,1.8
	c-3.4,1.3-5.8,4.5-5.9,8.1c0,0.9,0,1.8,0,2.6c-0.3,2.3,0.3,4.7,1.6,6.6c0.4,0.5,0.2,0.7-0.3,0.8c-1.5,0.3-2.9,1.1-4.1,2.1
	c-0.6,0.5-1.3,0.7-2,0.7c-4.7-0.1-8.6,3.4-9.1,8.1c-0.1,0.7,0.1,1.5,0,2.2c-0.5,2.8,0.2,5.7,1.9,8c0,0.1,0,0.2,0,0.2
	c-4.5,1.2-7.5,3.8-8.3,8.6v10.5c0.4,0.7,1,1.2,1.8,0.9s1.1-1,1.1-1.8c0-2.6,0-5.2,0-7.8c-0.2-4,2.9-7.3,6.9-7.5c0.2,0,0.3,0,0.5,0
	c3.4,0,6.8,0,10.3,0c4-0.1,7.3,3,7.4,7c0,0.2,0,0.4,0,0.6c0,2.6,0,5.3,0,7.9c0,1.1,0.6,1.8,1.5,1.8s1.4-0.7,1.4-1.8
	c0-2.6,0-5.2,0-7.9c-0.2-4,2.9-7.3,6.9-7.5c0.2,0,0.4,0,0.6,0c3.4,0,6.7,0,10.1,0c4-0.2,7.3,2.9,7.5,6.9c0,0.2,0,0.4,0,0.7
	c0,2.6,0,5.2,0,7.8c0,1.1,0.5,1.8,1.4,1.8s1.4-0.7,1.4-1.8c0-2.6,0-5.3,0-7.9c-0.1-4,3-7.3,6.9-7.4c0.2,0,0.3,0,0.5,0
	c3.4,0,6.8,0,10.3,0c4-0.1,7.3,3,7.4,7c0,0.2,0,0.4,0,0.6c0,2.6,0,5.3,0,7.9c0,1.1,0.5,1.7,1.4,1.8s1.5-0.7,1.5-1.8c0-2.7,0-5.3,0-8
	c0.1-5.6-4.4-10.2-10-10.2C161.6,142.6,161.5,142.6,161.4,142.6z M134.1,89.6c-0.9,3.2-4.3,5-7.4,4.1c-2.4-0.7-4.1-2.8-4.3-5.3
	c0-1.3,0-2.7,0-4c0.1-3.3,2.9-5.8,6.2-5.7c3.1,0.1,5.6,2.6,5.7,5.7c0,0.7,0,1.4,0,2.3C134.3,87.7,134.3,88.7,134.1,89.6z
	 M136.4,110.1c0.7-3.2,3.9-5.2,7.1-4.5c2.6,0.6,4.6,2.9,4.7,5.5c0,0.7,0,1.4,0,2.1c0.1,1.1,0,2.2-0.2,3.3c-1,3.2-4.3,4.9-7.5,3.9
	c-2.4-0.7-4.1-2.9-4.2-5.4C136.1,113.4,136.2,111.7,136.4,110.1z M106.3,86.6c0,0.9,0,1.8-0.1,2.6c-0.6,3.2-3.7,5.4-6.9,4.8
	c-2.7-0.5-4.7-2.7-4.9-5.4c-0.1-1.5-0.1-3.1,0-4.7c0.2-3.2,2.9-5.6,6.1-5.4c3.2,0.1,5.7,2.7,5.8,5.8C106.3,85,106.3,85.7,106.3,86.6
	z M108.4,109.8c1-3.2,4.4-4.9,7.5-3.9c2.3,0.7,4,2.8,4.2,5.3c0.1,1.7,0.1,3.4-0.1,5.1c-0.7,3.2-3.8,5.3-7,4.6
	c-2.7-0.6-4.6-2.8-4.7-5.5c0-0.7,0-1.4,0-2.1C108.2,112,108.2,110.9,108.4,109.8z"/>
<path class="st4" d="M148,97.8c0.9-0.4,2-0.6,3-0.6c3.4,0,6.9,0,10.3,0c4-0.2,7.4,2.9,7.5,6.9c0,0.2,0,0.5,0,0.7c0,2.7,0,5.3,0,8
	c0,1,0.6,1.6,1.4,1.6c0.8,0,1.4-0.6,1.5-1.4c0-0.1,0-0.1,0-0.2c0-2.8,0.1-5.7,0-8.6c-0.1-4.5-3.2-8.4-7.5-9.6
	c-0.4-0.1-0.9,0-1.2-0.3c1.5-1.7,2.3-4,2.3-6.2c0-1-0.1-2,0-3c0.2-4.1-2.5-7.8-6.4-8.9c-0.4,0-0.9-0.1-1.3-0.3H155
	c-0.1,0.2-0.3,0.1-0.4,0.2c-3.6,0.9-6,3.1-6.8,6.7c-0.5,2.6-0.5,5.2,0,7.7c0.3,1.4,1,2.8,2,3.9c-1,0.2-2,0.4-2.9,0.8
	c-1,0.4-1.4,1.2-1,2c0.3,0.8,1.2,1.1,2,0.8C147.9,97.8,148,97.8,148,97.8z M150.5,83.6c0.6-3.2,3.7-5.4,6.9-4.8
	c2.6,0.5,4.6,2.6,4.9,5.3c0.1,0.8,0,1.6,0,2.5c0.1,1.1,0,2.2-0.2,3.3c-1,3.2-4.3,4.9-7.5,3.9c-2.3-0.7-4-2.7-4.2-5.1
	C150.3,86.9,150.3,85.2,150.5,83.6L150.5,83.6z"/>
</svg>
