<?xml version="1.0" encoding="utf-8"?>
<!-- Generator: Adobe Illustrator 24.1.0, SVG Export Plug-In . SVG Version: 6.00 Build 0)  -->
<svg version="1.1" id="Layer_1" xmlns="http://www.w3.org/2000/svg" xmlns:xlink="http://www.w3.org/1999/xlink" x="0px" y="0px"
	 viewBox="0 0 658.1 238.3" style="enable-background:new 0 0 658.1 238.3;" xml:space="preserve">
<style type="text/css">
	.st0{fill:#E2243E;stroke:#E2243E;stroke-width:2.61;stroke-miterlimit:10;}
	.st1{enable-background:new    ;}
	.st2{fill:#FFFFFF;}
	.st3{fill:#E2243C;}
	.st4{opacity:0.15;}
</style>
<polygon class="st0" points="14.7,119.2 128.5,232.9 530.2,232.9 644,119.2 530.2,5.3 128.5,5.3 "/>
<g class="st1">
	<path class="st2" d="M324,89h2.7v5.2c-0.7,0.5-1.5,0.9-2.4,1.2c-0.9,0.3-1.8,0.4-2.8,0.4c-1.3,0-2.5-0.3-3.6-0.8s-1.9-1.4-2.5-2.4
		s-0.9-2.1-0.9-3.4s0.3-2.4,0.9-3.4s1.4-1.8,2.5-2.4s2.3-0.8,3.6-0.8c1.1,0,2.1,0.2,3,0.6s1.7,0.9,2.3,1.6l-1.9,1.8
		c-0.9-1-2-1.4-3.3-1.4c-0.8,0-1.5,0.2-2.2,0.5s-1.1,0.8-1.5,1.4s-0.5,1.3-0.5,2.1c0,0.8,0.2,1.5,0.5,2.1s0.8,1.1,1.5,1.5
		c0.6,0.3,1.3,0.5,2.1,0.5c0.9,0,1.6-0.2,2.3-0.5V89H324z"/>
	<path class="st2" d="M337.8,92.9h-5.9l-1.1,2.7h-3l5.7-12.8h2.9l5.7,12.8H339L337.8,92.9z M336.9,90.7l-2-4.9l-2,4.9H336.9z"/>
	<path class="st2" d="M351.5,95.6L349,92h-0.1h-2.6v3.6h-3V82.9h5.5c1.1,0,2.1,0.2,2.9,0.6s1.5,0.9,1.9,1.6c0.5,0.7,0.7,1.5,0.7,2.5
		c0,0.9-0.2,1.8-0.7,2.5s-1.1,1.2-1.9,1.6l2.9,4.1h-3.1V95.6z M350.8,85.8c-0.5-0.4-1.1-0.6-2-0.6h-2.4v4.5h2.4c0.9,0,1.6-0.2,2-0.6
		c0.5-0.4,0.7-0.9,0.7-1.6C351.5,86.8,351.2,86.2,350.8,85.8z"/>
	<path class="st2" d="M368.4,95.6v-7.7l-3.8,6.3h-1.3l-3.7-6.1v7.5h-2.8V82.9h2.4l4.8,7.9l4.7-7.9h2.4v12.8h-2.7V95.6z"/>
	<path class="st2" d="M384.1,93.3v2.4h-9.9V82.9h9.6v2.4h-6.7V88h5.9v2.3h-5.9v3H384.1z"/>
	<path class="st2" d="M398.2,82.9v12.8h-2.4l-6.4-7.8v7.8h-2.9V82.9h2.4l6.3,7.8v-7.8H398.2z"/>
	<path class="st2" d="M403.8,85.3h-4.1v-2.4h11.1v2.4h-4.1v10.4h-3V85.3H403.8z"/>
	<path class="st2" d="M418.9,95.4c-0.9-0.3-1.7-0.6-2.3-1.1l1-2.2c0.5,0.4,1.2,0.7,2,1c0.8,0.2,1.5,0.4,2.3,0.4s1.5-0.1,1.9-0.4
		s0.6-0.6,0.6-1c0-0.3-0.1-0.6-0.4-0.8c-0.2-0.2-0.5-0.4-0.9-0.5s-0.9-0.3-1.5-0.4c-1-0.2-1.8-0.5-2.4-0.7s-1.2-0.6-1.6-1.1
		s-0.7-1.2-0.7-2c0-0.7,0.2-1.4,0.6-2s1-1.1,1.8-1.4c0.8-0.4,1.8-0.5,3-0.5c0.8,0,1.6,0.1,2.4,0.3c0.8,0.2,1.5,0.5,2,0.8l-0.9,2.2
		c-1.2-0.7-2.4-1-3.5-1c-0.8,0-1.4,0.1-1.8,0.4s-0.6,0.6-0.6,1.1c0,0.4,0.2,0.8,0.7,1s1.2,0.4,2.1,0.6c1,0.2,1.8,0.5,2.4,0.7
		s1.2,0.6,1.6,1.1s0.7,1.2,0.7,2c0,0.7-0.2,1.4-0.6,2s-1,1.1-1.8,1.4c-0.8,0.4-1.8,0.5-3,0.5C420.8,95.8,419.8,95.7,418.9,95.4z"/>
</g>
<g class="st1">
	<path class="st2" d="M439.2,93.3v2.4h-9.9V82.9h9.6v2.4h-6.7V88h5.9v2.3h-5.9v3H439.2z"/>
</g>
<g class="st1">
	<path class="st2" d="M444,95c-1.1-0.6-1.9-1.4-2.5-2.4s-0.9-2.1-0.9-3.4s0.3-2.4,0.9-3.4s1.4-1.8,2.5-2.4s2.2-0.8,3.5-0.8
		c1.1,0,2.1,0.2,3,0.6s1.6,0.9,2.3,1.7l-1.9,1.8c-0.9-1-1.9-1.5-3.2-1.5c-0.8,0-1.5,0.2-2.1,0.5s-1.1,0.8-1.5,1.5s-0.5,1.3-0.5,2.1
		s0.2,1.5,0.5,2.1s0.8,1.1,1.5,1.5c0.6,0.3,1.3,0.5,2.1,0.5c1.3,0,2.3-0.5,3.2-1.5l1.9,1.8c-0.6,0.7-1.4,1.3-2.3,1.7
		c-0.9,0.4-1.9,0.6-3,0.6C446.3,95.8,445.1,95.6,444,95z"/>
</g>
<g class="st1">
	<path class="st2" d="M457.4,85.3h-4.1v-2.4h11.1v2.4h-4.1v10.4h-3V85.3H457.4z"/>
</g>
<g class="st1">
	<path class="st2" d="M468.4,95c-1.1-0.6-1.9-1.4-2.5-2.4s-0.9-2.1-0.9-3.4s0.3-2.4,0.9-3.4s1.4-1.8,2.5-2.4s2.3-0.9,3.6-0.9
		c1.3,0,2.5,0.3,3.6,0.9s1.9,1.4,2.5,2.4s0.9,2.1,0.9,3.4s-0.3,2.4-0.9,3.4s-1.4,1.8-2.5,2.4s-2.2,0.9-3.6,0.9
		C470.7,95.8,469.5,95.6,468.4,95z M474,92.8c0.6-0.3,1.1-0.8,1.4-1.5s0.5-1.3,0.5-2.1s-0.2-1.5-0.5-2.1s-0.8-1.1-1.4-1.5
		c-0.6-0.3-1.3-0.5-2-0.5s-1.4,0.2-2,0.5s-1.1,0.8-1.4,1.5s-0.5,1.3-0.5,2.1s0.2,1.5,0.5,2.1s0.8,1.1,1.4,1.5c0.6,0.3,1.3,0.5,2,0.5
		S473.4,93.2,474,92.8z"/>
	<path class="st2" d="M489.3,95.6l-2.5-3.6h-0.1h-2.6v3.6h-3V82.9h5.5c1.1,0,2.1,0.2,2.9,0.6s1.5,0.9,1.9,1.6
		c0.5,0.7,0.7,1.5,0.7,2.5c0,0.9-0.2,1.8-0.7,2.5s-1.1,1.2-1.9,1.6l2.9,4.1h-3.1V95.6z M488.6,85.8c-0.5-0.4-1.1-0.6-2-0.6h-2.4v4.5
		h2.4c0.9,0,1.6-0.2,2-0.6c0.5-0.4,0.7-0.9,0.7-1.6C489.3,86.8,489,86.2,488.6,85.8z"/>
</g>
<g class="st1">
	<path class="st2" d="M374.1,104.8l-4.2,12.8h-3.2l-2.8-8.6l-2.9,8.6h-3.2l-4.2-12.8h3.1l2.9,9l3-9h2.7l2.9,9l3-9H374.1z"/>
</g>
<g class="st1">
	<path class="st2" d="M378.2,116.9c-1.1-0.6-1.9-1.4-2.5-2.4s-0.9-2.1-0.9-3.4s0.3-2.4,0.9-3.4s1.4-1.8,2.5-2.4s2.3-0.9,3.6-0.9
		c1.3,0,2.5,0.3,3.6,0.9s1.9,1.4,2.5,2.4s0.9,2.1,0.9,3.4s-0.3,2.4-0.9,3.4s-1.4,1.8-2.5,2.4s-2.2,0.9-3.6,0.9
		C380.4,117.7,379.2,117.5,378.2,116.9z M383.8,114.7c0.6-0.3,1.1-0.8,1.4-1.5s0.5-1.3,0.5-2.1s-0.2-1.5-0.5-2.1s-0.8-1.1-1.4-1.5
		c-0.6-0.3-1.3-0.5-2-0.5s-1.4,0.2-2,0.5s-1.1,0.8-1.4,1.5s-0.5,1.3-0.5,2.1s0.2,1.5,0.5,2.1s0.8,1.1,1.4,1.5c0.6,0.3,1.3,0.5,2,0.5
		S383.2,115,383.8,114.7z"/>
	<path class="st2" d="M399.1,117.5l-2.5-3.6h-0.1h-2.6v3.6h-3v-12.8h5.5c1.1,0,2.1,0.2,2.9,0.6s1.5,0.9,1.9,1.6
		c0.5,0.7,0.7,1.5,0.7,2.5c0,0.9-0.2,1.8-0.7,2.5s-1.1,1.2-1.9,1.6l2.9,4.1L399.1,117.5L399.1,117.5z M398.4,107.7
		c-0.5-0.4-1.1-0.6-2-0.6H394v4.5h2.4c0.9,0,1.6-0.2,2-0.6c0.5-0.4,0.7-0.9,0.7-1.6C399.1,108.7,398.8,108.1,398.4,107.7z"/>
	<path class="st2" d="M409,112.5l-1.7,1.8v3.2h-2.9v-12.8h2.9v6l5.7-6h3.3l-5.3,5.7l5.6,7.1h-3.4L409,112.5z"/>
	<path class="st2" d="M427.8,115.1v2.4h-9.9v-12.8h9.6v2.4h-6.7v2.8h5.9v2.3h-5.9v3h7V115.1z"/>
	<path class="st2" d="M438.3,117.5l-2.5-3.6h-0.1h-2.6v3.6h-3v-12.8h5.5c1.1,0,2.1,0.2,2.9,0.6s1.5,0.9,1.9,1.6
		c0.5,0.7,0.7,1.5,0.7,2.5c0,0.9-0.2,1.8-0.7,2.5s-1.1,1.2-1.9,1.6l2.9,4.1L438.3,117.5L438.3,117.5z M437.5,107.7
		c-0.5-0.4-1.1-0.6-2-0.6h-2.4v4.5h2.4c0.9,0,1.6-0.2,2-0.6c0.5-0.4,0.7-0.9,0.7-1.6C438.2,108.7,438,108.1,437.5,107.7z"/>
	<path class="st2" d="M444.8,117.3c-0.9-0.3-1.7-0.6-2.3-1.1l1-2.2c0.5,0.4,1.2,0.7,2,1c0.8,0.2,1.5,0.4,2.3,0.4s1.5-0.1,1.9-0.4
		s0.6-0.6,0.6-1c0-0.3-0.1-0.6-0.4-0.8c-0.2-0.2-0.5-0.4-0.9-0.5s-0.9-0.3-1.5-0.4c-1-0.2-1.8-0.5-2.4-0.7s-1.2-0.6-1.6-1.1
		s-0.7-1.2-0.7-2c0-0.7,0.2-1.4,0.6-2s1-1.1,1.8-1.4c0.8-0.4,1.8-0.5,3-0.5c0.8,0,1.6,0.1,2.4,0.3c0.8,0.2,1.5,0.5,2,0.8l-0.9,2.2
		c-1.2-0.7-2.4-1-3.5-1c-0.8,0-1.4,0.1-1.8,0.4s-0.6,0.6-0.6,1.1c0,0.4,0.2,0.8,0.7,1s1.2,0.4,2.1,0.6c1,0.2,1.8,0.5,2.4,0.7
		s1.2,0.6,1.6,1.1s0.7,1.2,0.7,2c0,0.7-0.2,1.4-0.6,2s-1,1.1-1.8,1.4c-0.8,0.4-1.8,0.5-3,0.5C446.7,117.7,445.7,117.6,444.8,117.3z"
		/>
</g>
<g class="st1">
	<path class="st2" d="M337.8,31v34.7h-8V37.4h-6.9V31H337.8z"/>
</g>
<g class="st1">
	<path class="st2" d="M366.5,45.2c1.8,0.9,3.3,2.2,4.3,3.8c1.1,1.6,1.6,3.5,1.6,5.7c0,2.3-0.6,4.3-1.7,6.1c-1.2,1.7-2.7,3.1-4.7,4
		c-2,0.9-4.2,1.4-6.7,1.4c-4.9,0-8.6-1.5-11.4-4.5c-2.7-3-4.1-7.2-4.1-12.7c0-3.9,0.7-7.3,2.2-10.1s3.6-4.9,6.2-6.4
		c2.7-1.5,5.7-2.2,9.2-2.2c1.8,0,3.6,0.2,5.3,0.6c1.7,0.4,3.1,1,4.3,1.8l-3,5.9c-1.7-1.2-3.9-1.7-6.5-1.7c-2.9,0-5.3,0.9-7,2.6
		c-1.7,1.7-2.6,4.2-2.8,7.5c2-2,4.9-3.1,8.6-3.1C362.7,43.9,364.7,44.3,366.5,45.2z M363,58.8c1.1-0.9,1.6-2.2,1.6-3.8
		s-0.5-2.8-1.6-3.8c-1.1-0.9-2.5-1.4-4.3-1.4s-3.2,0.5-4.3,1.5c-1.1,1-1.7,2.2-1.7,3.7s0.5,2.8,1.6,3.7s2.6,1.4,4.5,1.4
		C360.6,60.2,362,59.8,363,58.8z"/>
</g>
<g class="st1">
	<path class="st2" d="M383.9,57.7c0.9,0.9,1.3,2,1.3,3.4c0,0.7-0.1,1.3-0.2,2c-0.2,0.7-0.5,1.7-1.1,3l-2.8,7.1h-4.9l2.2-7.9
		c-0.8-0.3-1.5-0.9-2-1.6c-0.5-0.7-0.7-1.6-0.7-2.6c0-1.4,0.5-2.6,1.4-3.4s2.1-1.3,3.4-1.3C381.8,56.4,383,56.8,383.9,57.7z"/>
	<path class="st2" d="M420.5,58.3h-5.6v7.3h-7.8v-7.3h-18.7v-5.4l16.3-22h8.4L398,51.8h9.3v-6.5h7.6v6.5h5.6V58.3z"/>
</g>
<g class="st1">
	<path class="st2" d="M454.7,58.3H449v7.3h-7.8v-7.3h-18.7v-5.4l16.3-22h8.4L432,51.7h9.3v-6.5h7.6v6.5h5.6v6.6H454.7z"/>
</g>
<g class="st1">
	<path class="st2" d="M479.6,46.9c2.3,1.9,3.5,4.6,3.5,7.8c0,2.1-0.5,4-1.6,5.8c-1.1,1.7-2.7,3.1-4.8,4.2c-2.2,1-4.8,1.6-8,1.6
		c-2.4,0-4.8-0.3-7.2-1c-2.4-0.6-4.4-1.6-6-2.7l3.2-6.1c1.3,1,2.8,1.8,4.6,2.3c1.7,0.5,3.5,0.8,5.3,0.8c2,0,3.6-0.4,4.8-1.2
		c1.2-0.8,1.7-1.9,1.7-3.3c0-1.5-0.6-2.6-1.8-3.4c-1.2-0.8-3.3-1.1-6.3-1.1h-8.9l1.8-19.5H481v6.4h-14.5L466,44h2.8
		C473.7,44,477.3,45,479.6,46.9z"/>
</g>
<rect x="47.7" y="38.2" transform="matrix(0.7071 -0.7071 0.7071 0.7071 -46.574 125.8678)" class="st3" width="161.9" height="161.9"/>
<g class="st4">
	<path class="st2" d="M128.6,222L25.8,119.2L128.6,16.3l102.9,102.9L128.6,222z M29,119.2l99.7,99.7l99.7-99.7l-99.7-99.7L29,119.2z
		 M128.6,209l-34.3-34.4l26.3-26.3l-25.5-25.4l-18,18.1L89,152.9l5-4.9l-7-7l8.2-8.2l15.6,15.6l-21.4,21.3l-30-30l20.5-20.5
		L59.4,98.6l30-30l21.3,21.3l-15.5,15.6L87,97.3l7-7l-5-4.9L77.1,97.3l18.1,18.1L120.7,90L94.3,63.7l34.3-34.3L163,63.7L136.7,90
		l25.5,25.4l18.1-18.1l-11.9-11.9l-4.9,4.9l7,7l-8.2,8.2l-15.6-15.6L168,68.6l30,30l-20.5,20.5l20.6,20.5l-30,30l-21.3-21.3
		l15.6-15.6l8.2,8.2l-7,7l4.9,4.9l11.9-11.9l-18.1-18.1l-25.5,25.4l26.3,26.2L128.6,209z M97.5,174.6l31.1,31.2l31.2-31.2
		l-26.3-26.3l28.6-28.6l21.2,21.3l-15.1,15.1l-8.1-8.1l7-7l-5-5l-12.4,12.4l18.1,18.1l26.8-26.8l-20.5-20.5l20.5-20.5l-26.8-26.8
		L149.7,90l12.4,12.4l5-5l-7-7l8.1-8.1l15.1,15.1l-21.2,21.2L133.5,90l26.3-26.3l-31.2-31.2L97.5,63.7L123.8,90l-28.6,28.6
		L73.9,97.3L89,82.2l8.1,8.1l-7,7l5,5L107.5,90L89.4,71.8L62.5,98.6L83,119.1l-20.5,20.5l26.8,26.8l18.1-18.1L95.1,136l-5,5l7,7
		l-8.1,8.1L73.9,141l21.2-21.2l28.6,28.6L97.5,174.6z M202.9,134.7l-15.6-15.6l15.6-15.6l15.6,15.6L202.9,134.7z M190.5,119.2
		l12.4,12.4l12.4-12.4l-12.4-12.4L190.5,119.2z M54.4,134.7l-15.6-15.6l15.6-15.6L70,119.2L54.4,134.7z M42,119.2l12.4,12.4
		l12.4-12.4l-12.4-12.4L42,119.2z"/>
	<path class="st2" d="M128.6,198.4l-24.1-24.1l24.1-24.1l24.1,24.1L128.6,198.4z M107.7,174.3l20.9,20.9l20.9-20.9l-20.9-20.9
		L107.7,174.3z"/>
	<path class="st2" d="M128.6,87.5l-24.1-24.1l24.1-24.1l24.1,24.1L128.6,87.5z M107.7,63.4l20.9,20.9l20.9-20.9l-20.9-20.9
		L107.7,63.4z"/>
</g>
<path class="st2" d="M124.6,130.8L124.6,130.8c-1.6-6.2-6.5-7-6.6-7l-7-1.7c-0.1-0.1-0.3-0.2-0.4-0.3l-4.2-1v-2.7
	c2.9-1.6,5-4.5,5.6-7.7c1.5-0.6,2.4-2.1,2.2-3.7c0.1-1.5-0.7-2.8-1.9-3.5h2.6v-0.9c0.1-1-0.4-1.9-1.2-2.4c-0.2-4-2-7.8-5.1-10.4
	c-0.7-0.6-1.5-1.1-2.3-1.5l-0.3-1.8l-0.4-0.2c-1-0.4-2-0.7-3-0.9l-0.1-0.9h-3.4l-0.1,1c-1.1,0.2-2.1,0.5-3.1,1l-0.3,0.2L95.3,88
	c-3.1,1.6-5.5,4.4-6.6,7.7c-0.5,1.4-0.7,2.8-0.8,4.2c-0.9,0.5-1.3,1.4-1.2,2.4v0.9h2.6c-1.3,0.7-2,2.1-1.9,3.5
	c-0.1,1.6,0.8,3.1,2.2,3.7c0.6,3.3,2.7,6.1,5.6,7.7v2.7l-4.2,1c-0.2,0.1-0.4,0.2-0.5,0.3l-6.9,1.6c-0.2,0-5.1,0.8-6.7,7l-1.7,9.9
	c-0.1,0.3,0,0.5,0.2,0.7s0.4,0.3,0.7,0.3h49.4c0.3,0,0.5-0.1,0.7-0.3s0.2-0.5,0.2-0.7L124.6,130.8z M97.9,140l2.3-9.6
	c0.2,0.1,0.3,0.2,0.6,0.2c0.3,0,0.5-0.1,0.7-0.3l2.3,9.7L97.9,140L97.9,140z M104.6,121.3l-3.9,2.2c0,0-0.1,0-0.2,0l-3.6-2.2v-2.2
	c2.5,0.9,5.2,0.9,7.7,0V121.3z M101.8,127l-1,1.3l-1-1.3l1-1.3l0.4,0.5L101.8,127z M96,122.7l3.2,2l-2.6,3.2l-3.6-4.4L96,122.7z
	 M102.5,125.1l-0.3-0.4l3.5-2l3,0.7l-3.7,4.5L102.5,125.1z M100.7,86.1h0.2l0.3,4.1h-0.9L100.7,86.1z M90.3,96.3
	c0.8-2.4,2.4-4.5,4.6-6l-0.4,2.4l1.7,0.3l0.9-5l0.1-0.6c0.5-0.2,1.1-0.4,1.7-0.5l-0.4,4.9h4.7l-0.4-4.9c0.6,0.1,1.1,0.3,1.7,0.5v0.2
	l0.8,5.3l1.8-0.3l-0.4-2.5c0.3,0.2,0.6,0.4,0.9,0.6c2.6,2.2,4.3,5.4,4.5,8.9H89.6C89.7,98.6,89.9,97.4,90.3,96.3z M91.2,109.5
	c-0.1-0.4-0.4-0.8-0.9-0.8h-0.1c-0.5,0-1.1-0.8-1.1-2s0.6-2,1.1-2s0.9-0.4,0.9-0.9v-0.7h19.3v0.7c0,0.5,0.4,0.9,0.9,0.9l0,0
	c0.5,0,1.1,0.8,1.1,2s-0.6,2-1.1,2l0,0c-0.5-0.1-0.9,0.2-1,0.7c0,0,0,0,0,0.1c-0.7,5.3-5.6,9-10.9,8.3
	C95.1,117.2,91.8,113.8,91.2,109.5L91.2,109.5z M78.7,131.2c1.3-5,5.1-5.6,5.3-5.6l7-1.7l4.8,5.9c0.3,0.4,0.8,0.4,1.2,0.1
	c0.1,0,0.1-0.1,0.1-0.1l1.2-1.5l0.3,0.4L96,140H77.2L78.7,131.2z M105.5,140l-2.8-11.5l0.2-0.2l1.4,1.5c0.2,0.2,0.4,0.3,0.7,0.3l0,0
	c0.3,0,0.5-0.1,0.7-0.3l4.8-5.9l7.1,1.7c0,0,3.9,0.6,5.2,5.6l1.6,8.8H105.5z"/>
<path class="st2" d="M180.3,130.8L180.3,130.8c-1.6-6.2-6.5-7-6.6-7l-7-1.7c-0.1-0.1-0.3-0.2-0.4-0.3l-4.1-1V119h9.8
	c0.3,0,0.5-0.1,0.6-0.3c0.2-0.2,0.2-0.5,0.1-0.7c-1.6-4.7-2.6-9.7-3-14.6h1v-0.9c0.1-1-0.4-1.9-1.2-2.4c-0.2-4-2-7.8-5.1-10.4
	c-0.7-0.6-1.5-1.1-2.3-1.6l-0.3-1.7l-0.4-0.2c-1-0.4-2-0.7-3-0.9l-0.1-0.9h-3.4l-0.1,0.9c-1.1,0.2-2.1,0.5-3.1,1l-0.4,0.2L151,88
	c-3.1,1.6-5.5,4.4-6.6,7.7c-0.5,1.4-0.7,2.8-0.8,4.2c-0.9,0.5-1.3,1.4-1.2,2.4v0.9h1c-0.4,5-1.4,9.9-3,14.6
	c-0.1,0.2-0.1,0.5,0.1,0.7c0.1,0.2,0.4,0.3,0.6,0.3h9.8V118l0,0v2.7l-4.1,1c-0.2,0.1-0.4,0.2-0.5,0.3l-6.9,1.6c-0.2,0-5.1,0.8-6.7,7
	l-1.7,9.9c-0.1,0.3,0,0.5,0.2,0.7s0.4,0.3,0.7,0.3h49.4c0.3,0,0.5-0.1,0.7-0.3s0.2-0.5,0.2-0.7L180.3,130.8z M164.3,123.4l-3.6,4.4
	l-2.5-2.8l-0.3-0.4l3.5-2L164.3,123.4z M156.4,123.4h-0.1l-3.6-2.2V119c2.5,0.9,5.2,0.9,7.7,0v2.2L156.4,123.4z M157.4,127l-1,1.3
	l-1-1.3l1-1.3l0.4,0.5L157.4,127z M163.3,117.4c2.3-1.7,3.8-4.2,4.4-6.9c0.5-0.1,0.9-0.4,1.2-0.8c0.5,2.6,1.1,5.2,1.9,7.7
	C170.8,117.4,163.3,117.4,163.3,117.4z M168,103.3L168,103.3L168,103.3z M156.4,86.1h0.2l0.3,4.1H156L156.4,86.1z M146.1,96.3
	c0.8-2.4,2.4-4.5,4.6-6l-0.4,2.4L152,93l0.9-5l0.1-0.6c0.5-0.2,1.1-0.4,1.7-0.5l-0.4,4.9h4.7l-0.4-4.9c0.6,0.1,1.1,0.3,1.7,0.5v0.2
	L161,93l1.8-0.3l-0.4-2.5c0.3,0.2,0.6,0.4,0.9,0.6c2.6,2.2,4.3,5.4,4.5,8.9h-22.3C145.5,98.6,145.7,97.4,146.1,96.3z M145,103.3
	L145,103.3L145,103.3L145,103.3z M142.2,117.4c0.8-2.5,1.4-5.1,1.9-7.7c0.3,0.4,0.7,0.6,1.2,0.8c0.6,2.8,2.1,5.2,4.4,6.9
	C149.7,117.4,142.2,117.4,142.2,117.4z M146.9,109.5c-0.1-0.4-0.4-0.8-0.9-0.8l0,0c-0.5,0-1.1-0.8-1.1-2s0.6-2,1.1-2
	s0.9-0.4,0.9-0.9l0,0v-0.7h19.3v0.7c0,0.5,0.4,0.9,0.9,0.9l0,0c0.5,0,1.1,0.8,1.1,2s-0.6,2-1.1,2l0,0c-0.5-0.1-0.9,0.2-1,0.7
	c0,0,0,0,0,0.1c-0.7,5.3-5.6,9-10.9,8.3C150.9,117.2,147.5,113.8,146.9,109.5z M151.7,122.7l3.2,2l-2.6,3.2l-3.6-4.4L151.7,122.7z
	 M132.9,140l1.5-8.8c1.3-5,5.1-5.6,5.3-5.6l7-1.7l4.8,5.9c0.3,0.4,0.8,0.4,1.2,0.1c0.1,0,0.1-0.1,0.1-0.1l1.2-1.5l0.3,0.4l-2.7,11.3
	H132.9z M153.6,140l2.3-9.6c0.2,0.1,0.3,0.2,0.6,0.2s0.5-0.1,0.7-0.3l2.3,9.7L153.6,140L153.6,140z M161.3,140l-2.8-11.5l0.2-0.2
	l1.4,1.5c0.2,0.2,0.4,0.3,0.6,0.3l0,0c0.3,0,0.5-0.1,0.7-0.3l4.8-5.9l7.1,1.7c0,0,3.9,0.6,5.2,5.6l1.6,8.8H161.3z"/>
<path class="st2" d="M44.2,118.3c-2.7,0.8-5.6-0.7-6.4-3.5c-0.3-1-0.3-2,0-2.9s0.8-1.8,1.5-2.4c0.6-0.6,1.2-1,2-1.3
	c0.7-0.3,1.4-0.4,2.2-0.3l-0.1,2c-1-0.1-1.9,0.3-2.6,1c-0.4,0.4-0.7,0.9-0.9,1.5c-0.1,0.5-0.1,1.1,0,1.6c0.4,1.1,1.2,2,2.4,2.3
	c0.5,0.1,1.1,0.1,1.6,0c0.6-0.2,1.1-0.5,1.5-0.9c0.7-0.7,1-1.6,0.9-2.6l2-0.1c0.1,0.7,0,1.5-0.3,2.2c-0.3,0.8-0.8,1.4-1.3,2
	C45.9,117.5,45.1,118,44.2,118.3z"/>
<path class="st2" d="M51.5,111c-2.7,0.8-5.6-0.7-6.4-3.4c-0.3-1-0.3-2,0-3c0.6-1.9,2.1-3.4,4-4c2.7-0.8,5.6,0.7,6.4,3.5
	c0.3,1,0.3,2,0,2.9C54.9,108.9,53.4,110.4,51.5,111L51.5,111z M53.4,106.7c0.2-0.5,0.2-1.1,0-1.6c-0.2-0.6-0.5-1.1-0.9-1.5
	s-0.9-0.7-1.5-0.9c-0.5-0.2-1.1-0.2-1.6,0c-0.5,0.1-1,0.4-1.4,0.8s-0.7,0.9-0.8,1.4c-0.2,0.5-0.2,1.1,0,1.6c0.4,1.1,1.2,2,2.3,2.3
	c0.5,0.2,1.1,0.2,1.6,0s1-0.4,1.4-0.8C53,107.7,53.3,107.2,53.4,106.7L53.4,106.7z"/>
<path class="st2" d="M58.5,90.6l4,10.2l-1.6,1.6l-10.2-4l1.8-1.8l7.2,2.9l-2.9-7.3L58.5,90.6z"/>
<path class="st2" d="M59,90l1.6-1.6l7.1,7.1l-1.6,1.6L59,90z"/>
<path class="st2" d="M62.4,86.7l3.2-3.2c0.7-0.7,1.5-1.3,2.5-1.6c0.8-0.3,1.8-0.3,2.6-0.1c1.8,0.5,3.2,1.9,3.7,3.7
	c0.2,0.9,0.2,1.8-0.1,2.6c-0.3,0.9-0.9,1.8-1.6,2.5l-3.2,3.2L62.4,86.7z M71.2,89.3c0.6-0.6,1-1.4,1.1-2.3c-0.1-1.7-1.5-3.2-3.2-3.2
	c-0.9,0.1-1.7,0.4-2.3,1.1l-1.5,1.5l4.4,4.4L71.2,89.3z"/>
<path class="st2" d="M85.2,78l-3.3-0.6l-0.1,0.1l-1.4,1.4l2,2l-1.7,1.6l-7.1-7.1l3.1-3.1c0.6-0.6,1.2-1,2-1.3
	c1.9-0.7,3.9,0.3,4.6,2.2c0,0.1,0.1,0.2,0.1,0.4c0.1,0.7,0.1,1.4-0.2,2l3.9,0.7L85.2,78z M79.4,73c-0.6,0.1-1.1,0.4-1.4,0.8
	l-1.3,1.3l2.5,2.5l1.3-1.3c0.4-0.4,0.7-0.9,0.8-1.4C81.2,73.8,80.4,73,79.4,73L79.4,73z"/>
<path class="st2" d="M91.1,67.6L87,71.7c0.4,0.3,0.9,0.4,1.3,0.3c0.5-0.1,1-0.4,1.3-0.7c0.3-0.2,0.5-0.5,0.6-0.9
	c0.1-0.3,0.2-0.7,0.2-1l1.8,0.1c0,1.2-0.5,2.3-1.4,3.1c-0.6,0.6-1.2,1-2,1.3c-0.7,0.2-1.4,0.3-2.1,0.1c-1.4-0.4-2.5-1.5-2.9-2.9
	c-0.2-0.7-0.2-1.4,0-2.1s0.6-1.3,1.2-1.8c0.5-0.5,1.1-0.9,1.8-1.2c0.7-0.2,1.3-0.2,2,0s1.4,0.6,1.9,1.1L91.1,67.6z M85.6,69.6
	c0,0.4,0.1,0.9,0.4,1.2l2.7-2.7c-0.4-0.3-0.8-0.4-1.3-0.4s-0.9,0.2-1.2,0.6C85.9,68.6,85.7,69.1,85.6,69.6L85.6,69.6z"/>
<path class="st2" d="M94.8,68.2c-0.5,0.3-0.9,0.5-1.5,0.6l-0.6-1.7c0.4-0.1,0.9-0.3,1.3-0.5s0.8-0.5,1.2-0.9
	c0.7-0.7,0.8-1.2,0.5-1.5c-0.2-0.2-0.4-0.2-0.6-0.1c-0.4,0.2-0.7,0.4-1,0.7c-0.4,0.3-0.9,0.6-1.3,0.9S92,66.1,91.6,66
	c-0.5,0-0.9-0.3-1.3-0.6c-0.3-0.3-0.6-0.7-0.6-1.2c-0.1-0.5,0-1,0.2-1.5c0.3-0.6,0.6-1.1,1.1-1.6c0.4-0.4,0.8-0.7,1.3-1
	c0.4-0.3,0.8-0.5,1.3-0.6l0.6,1.7c-0.8,0.2-1.4,0.6-2,1.2c-0.3,0.2-0.5,0.6-0.6,0.9c-0.1,0.2,0,0.5,0.1,0.6c0.2,0.2,0.4,0.2,0.6,0.1
	c0.4-0.2,0.7-0.4,1.1-0.7s0.9-0.6,1.3-0.9c0.4-0.2,0.8-0.3,1.2-0.3c0.5,0,0.9,0.3,1.2,0.6c0.3,0.3,0.5,0.7,0.6,1.2
	c0.1,0.5,0,1-0.3,1.5c-0.3,0.6-0.7,1.1-1.1,1.5C95.9,67.5,95.4,67.9,94.8,68.2z"/>
<path class="st2" d="M99.2,53.6c0.7-0.2,1.3-0.2,2,0s1.3,0.6,1.8,1.1s0.9,1.1,1.1,1.8s0.2,1.3,0,2s-0.5,1.2-1,1.7
	c-0.6,0.7-1.4,1-2.3,1l2.6,2.5l-1.6,1.6L94.4,58l1.5-1.5l0.6,0.6c-0.1-0.9,0.3-1.8,1-2.4C98,54.2,98.6,53.8,99.2,53.6z M102.1,57.8
	c0-0.6-0.3-1.1-0.7-1.5c-0.4-0.4-0.9-0.7-1.5-0.7c-0.5,0-1,0.2-1.4,0.6c-0.4,0.4-0.6,0.9-0.6,1.4c0,0.6,0.3,1.1,0.7,1.5
	c0.4,0.4,0.9,0.7,1.5,0.7C101.2,59.8,102.1,58.9,102.1,57.8z"/>
<path class="st2" d="M107.6,55.1c-2.1,0.6-4.3-0.6-5-2.7v-0.1c-0.2-0.7-0.1-1.4,0.1-2.1c0.2-0.7,0.6-1.4,1.2-1.9
	c0.5-0.5,1.2-0.9,1.9-1.2c0.7-0.2,1.4-0.2,2.1-0.1c2.1,0.5,3.4,2.6,2.9,4.7c0,0.1-0.1,0.2-0.1,0.3c-0.2,0.7-0.6,1.4-1.2,1.9
	C108.9,54.5,108.3,54.9,107.6,55.1z M108.8,51.2c0-0.6-0.3-1.1-0.7-1.5c-0.4-0.4-0.9-0.7-1.5-0.7c-0.5,0-1,0.2-1.4,0.6
	c-0.4,0.4-0.6,0.9-0.6,1.4c0.1,1.2,1,2.1,2.2,2.2C107.9,53.2,108.8,52.3,108.8,51.2z"/>
<path class="st2" d="M113.5,39.9c0.9,0,1.8,0.5,2.4,1.2l3.1,3.1l-1.6,1.6l-2.9-2.9c-0.3-0.4-0.8-0.6-1.3-0.7c-0.4,0-0.9,0.2-1.1,0.5
	c-0.4,0.3-0.6,0.8-0.6,1.3c0,0.6,0.3,1.1,0.8,1.5l2.7,2.7l-1.6,1.6l-5.4-5.5l1.5-1.5l0.6,0.6c0-0.5,0.1-0.9,0.2-1.3
	c0.2-0.5,0.5-0.9,0.8-1.2C111.8,40.3,112.6,39.9,113.5,39.9z"/>
<path class="st2" d="M120.9,42.2c-0.4,0.3-0.9,0.5-1.4,0.6l-0.6-1.7c0.4-0.1,0.9-0.3,1.3-0.5s0.8-0.5,1.2-0.9
	c0.7-0.7,0.8-1.2,0.5-1.5c-0.2-0.2-0.4-0.2-0.6-0.1c-0.4,0.2-0.7,0.4-1,0.7c-0.4,0.3-0.9,0.6-1.3,0.9c-0.4,0.2-0.8,0.3-1.2,0.3
	c-0.5,0-0.9-0.3-1.3-0.6c-0.3-0.3-0.6-0.8-0.6-1.2c-0.1-0.5,0-1,0.2-1.5c0.3-0.6,0.6-1.1,1.1-1.6c0.4-0.4,0.8-0.7,1.3-1
	c0.4-0.3,0.8-0.5,1.3-0.6l0.6,1.7c-0.8,0.2-1.4,0.6-2,1.2c-0.3,0.2-0.5,0.6-0.6,0.9c-0.1,0.2,0,0.5,0.1,0.6c0.2,0.2,0.4,0.2,0.6,0.1
	c0.4-0.2,0.7-0.4,1.1-0.7s0.9-0.6,1.3-0.9c0.4-0.2,0.8-0.3,1.2-0.3c0.5,0,0.9,0.3,1.2,0.6c0.3,0.3,0.5,0.7,0.6,1.2s0,1-0.3,1.5
	c-0.3,0.6-0.7,1.1-1.2,1.6C121.9,41.5,121.4,41.9,120.9,42.2z"/>
<path class="st2" d="M128.9,29.8l-4.1,4.1c0.4,0.3,0.9,0.4,1.3,0.3c0.5-0.1,1-0.4,1.3-0.7s0.5-0.6,0.6-0.9c0.1-0.3,0.2-0.7,0.2-1
	l1.8,0.1c0,1.2-0.5,2.3-1.4,3.1c-0.6,0.6-1.2,1-2,1.3c-0.7,0.2-1.4,0.3-2.1,0.1s-1.3-0.5-1.8-1.1c-0.5-0.5-0.9-1.1-1.1-1.8
	s-0.2-1.3,0-2c0.4-1.4,1.5-2.5,2.9-3c0.7-0.2,1.3-0.2,2,0s1.4,0.6,1.9,1.1C128.4,29.4,128.6,29.5,128.9,29.8z M123.4,31.7
	c0,0.5,0.1,0.9,0.4,1.3l2.7-2.7c-0.8-0.6-1.8-0.5-2.5,0.2C123.7,30.9,123.5,31.3,123.4,31.7z"/>
<g class="st1">
	<path class="st2" d="M283.7,150.1c0-2.2,0.4-4,1.3-5.6c0.9-1.5,1.8-2.6,2.8-3.1l0,0l0.3,1c-0.8,0.6-1.4,1.5-2,2.8
		c-0.6,1.3-0.8,2.9-0.8,4.8v0.1c0,1.9,0.3,3.5,0.8,4.8c0.6,1.3,1.2,2.3,2,2.9l-0.3,0.9h0c-1-0.5-1.9-1.5-2.8-3.1
		C284.2,154.2,283.7,152.3,283.7,150.1L283.7,150.1z"/>
	<path class="st2" d="M294.1,154.9h-1.6v-10.5l-2.6,0v-1.3l4.3-0.4V154.9z"/>
	<path class="st2" d="M299.2,149.6l0.7-6.7h6v1.4h-4.7l-0.4,3.5c0.3-0.2,0.5-0.4,0.9-0.5s0.7-0.2,1.1-0.2c1.1,0,2,0.3,2.6,1
		c0.6,0.7,0.9,1.7,0.9,2.9c0,1.2-0.3,2.2-1,2.9s-1.6,1.1-2.8,1.1c-1,0-1.9-0.3-2.5-0.8c-0.7-0.6-1-1.4-1-2.5l0,0h1.5
		c0,0.7,0.2,1.2,0.6,1.5s0.9,0.5,1.5,0.5c0.7,0,1.2-0.2,1.6-0.7c0.4-0.5,0.6-1.1,0.6-2c0-0.8-0.2-1.4-0.6-1.9
		c-0.4-0.5-0.9-0.7-1.6-0.7c-0.6,0-1.1,0.1-1.4,0.3c-0.3,0.2-0.5,0.5-0.6,0.9L299.2,149.6z"/>
	<path class="st2" d="M309.9,154.5l-1.2,2.5h-1l0.6-2.6v-1.3h1.6V154.5z"/>
	<path class="st2" d="M315.5,148.1c0.7,0,1.2-0.2,1.5-0.5c0.3-0.4,0.5-0.9,0.5-1.5c0-0.6-0.2-1.1-0.5-1.5c-0.3-0.4-0.8-0.6-1.5-0.6
		c-0.6,0-1.1,0.2-1.6,0.6c-0.4,0.4-0.6,0.9-0.6,1.5h-1.6l0,0c0-0.9,0.3-1.7,1-2.3s1.6-1,2.7-1c1.1,0,2,0.3,2.6,0.8
		c0.6,0.6,1,1.4,1,2.5c0,0.6-0.1,1.1-0.4,1.5c-0.3,0.5-0.7,0.8-1.2,1.1c0.6,0.2,1.1,0.6,1.4,1.1c0.3,0.5,0.5,1.1,0.5,1.8
		c0,1.1-0.3,2-1,2.6c-0.7,0.6-1.6,0.9-2.7,0.9c-1,0-1.9-0.3-2.7-0.9c-0.8-0.6-1.2-1.4-1.1-2.4l0,0h1.6c0,0.6,0.2,1.1,0.6,1.5
		c0.4,0.4,1,0.6,1.6,0.6c0.7,0,1.2-0.2,1.6-0.6c0.4-0.4,0.6-0.9,0.6-1.6c0-0.8-0.2-1.3-0.5-1.7c-0.4-0.4-0.9-0.6-1.7-0.6h-1.3v-1.3
		H315.5z"/>
	<path class="st2" d="M326.1,154.9h-1.6v-10.5l-2.6,0v-1.3l4.3-0.4V154.9z"/>
	<path class="st2" d="M334.5,148.1c0.7,0,1.2-0.2,1.5-0.5c0.3-0.4,0.5-0.9,0.5-1.5c0-0.6-0.2-1.1-0.5-1.5c-0.3-0.4-0.8-0.6-1.5-0.6
		c-0.6,0-1.1,0.2-1.6,0.6c-0.4,0.4-0.6,0.9-0.6,1.5h-1.6l0,0c0-0.9,0.3-1.7,1-2.3c0.7-0.6,1.6-1,2.7-1c1.1,0,2,0.3,2.6,0.8
		c0.6,0.6,1,1.4,1,2.5c0,0.6-0.1,1.1-0.4,1.5c-0.3,0.5-0.7,0.8-1.2,1.1c0.6,0.2,1.1,0.6,1.4,1.1c0.3,0.5,0.5,1.1,0.5,1.8
		c0,1.1-0.3,2-1,2.6c-0.7,0.6-1.6,0.9-2.7,0.9c-1,0-1.9-0.3-2.7-0.9c-0.8-0.6-1.2-1.4-1.1-2.4l0,0h1.6c0,0.6,0.2,1.1,0.6,1.5
		c0.4,0.4,1,0.6,1.6,0.6c0.7,0,1.2-0.2,1.6-0.6c0.4-0.4,0.6-0.9,0.6-1.6c0-0.8-0.2-1.3-0.5-1.7c-0.4-0.4-0.9-0.6-1.7-0.6h-1.3v-1.3
		H334.5z"/>
</g>
<g class="st1">
	<path class="st2" d="M351.6,149.6h-5.1v5.3h-1.6v-12h7.6v1.3h-5.9v4.2h5.1V149.6z"/>
</g>
<g class="st1">
	<path class="st2" d="M357.5,155.1c-1.3,0-2.3-0.4-3-1.2s-1.1-1.9-1.1-3.2v-0.4c0-1.3,0.4-2.3,1.1-3.2c0.7-0.8,1.6-1.3,2.7-1.3
		c1.2,0,2.1,0.4,2.7,1.1c0.6,0.7,0.9,1.7,0.9,3v0.9h-5.7l0,0c0,0.9,0.2,1.6,0.6,2.2c0.4,0.6,1,0.8,1.8,0.8c0.6,0,1-0.1,1.5-0.2
		s0.8-0.4,1.1-0.6l0.6,1.1c-0.3,0.3-0.7,0.6-1.3,0.8C358.9,155,358.3,155.1,357.5,155.1z M357.3,147.1c-0.6,0-1,0.2-1.4,0.7
		s-0.6,1-0.7,1.7l0,0h4v-0.1c0-0.7-0.2-1.2-0.5-1.6S358,147.1,357.3,147.1z"/>
	<path class="st2" d="M364.2,146l0.1,1.2c0.3-0.4,0.7-0.8,1.1-1c0.5-0.2,1-0.4,1.6-0.4c0.6,0,1.1,0.1,1.5,0.4c0.4,0.3,0.7,0.7,1,1.2
		c0.3-0.5,0.7-0.9,1.1-1.2c0.5-0.3,1-0.4,1.6-0.4c0.9,0,1.6,0.3,2.2,0.9c0.5,0.6,0.8,1.6,0.8,2.8v5.4h-1.6v-5.4
		c0-0.9-0.2-1.5-0.5-1.9c-0.3-0.4-0.8-0.6-1.4-0.6c-0.6,0-1,0.2-1.4,0.6c-0.3,0.4-0.5,0.9-0.6,1.5v0.1v5.7h-1.6v-5.4
		c0-0.8-0.2-1.5-0.5-1.8s-0.8-0.6-1.3-0.6c-0.5,0-0.9,0.1-1.2,0.3c-0.3,0.2-0.6,0.5-0.7,0.9v6.6h-1.6v-9H364.2z"/>
	<path class="st2" d="M383,154.9c-0.1-0.3-0.1-0.5-0.1-0.7c0-0.2,0-0.4-0.1-0.6c-0.3,0.4-0.7,0.8-1.2,1.1c-0.5,0.3-1,0.4-1.6,0.4
		c-0.9,0-1.6-0.2-2.1-0.7c-0.5-0.5-0.7-1.1-0.7-2c0-0.9,0.3-1.5,1-2c0.7-0.5,1.6-0.7,2.8-0.7h1.8v-0.9c0-0.5-0.2-0.9-0.5-1.2
		c-0.3-0.3-0.8-0.5-1.4-0.5c-0.5,0-1,0.1-1.3,0.4c-0.3,0.3-0.5,0.6-0.5,1l-1.5,0l0,0c0-0.7,0.3-1.2,0.9-1.8c0.6-0.5,1.5-0.8,2.5-0.8
		c1,0,1.8,0.3,2.4,0.8s0.9,1.3,0.9,2.2v4.3c0,0.3,0,0.6,0,0.9c0,0.3,0.1,0.6,0.2,0.9H383z M380.3,153.7c0.6,0,1.1-0.2,1.6-0.5
		c0.5-0.3,0.8-0.7,0.9-1v-1.5H381c-0.7,0-1.2,0.2-1.6,0.5c-0.4,0.3-0.6,0.7-0.6,1.2c0,0.4,0.1,0.7,0.4,0.9
		C379.5,153.6,379.8,153.7,380.3,153.7z"/>
	<path class="st2" d="M388.6,154.9H387V142h1.6V154.9z"/>
	<path class="st2" d="M394.8,155.1c-1.3,0-2.3-0.4-3-1.2s-1.1-1.9-1.1-3.2v-0.4c0-1.3,0.4-2.3,1.1-3.2c0.7-0.8,1.6-1.3,2.7-1.3
		c1.2,0,2.1,0.4,2.7,1.1c0.6,0.7,0.9,1.7,0.9,3v0.9h-5.7l0,0c0,0.9,0.2,1.6,0.6,2.2c0.4,0.6,1,0.8,1.8,0.8c0.6,0,1-0.1,1.5-0.2
		s0.8-0.4,1.1-0.6l0.6,1.1c-0.3,0.3-0.7,0.6-1.3,0.8C396.2,155,395.5,155.1,394.8,155.1z M394.5,147.1c-0.6,0-1,0.2-1.4,0.7
		s-0.6,1-0.7,1.7l0,0h4v-0.1c0-0.7-0.2-1.2-0.5-1.6S395.2,147.1,394.5,147.1z"/>
	<path class="st2" d="M409.7,154.9c-0.1-0.3-0.1-0.5-0.1-0.7c0-0.2,0-0.4-0.1-0.6c-0.3,0.4-0.7,0.8-1.2,1.1c-0.5,0.3-1,0.4-1.6,0.4
		c-0.9,0-1.6-0.2-2.1-0.7c-0.5-0.5-0.7-1.1-0.7-2c0-0.9,0.3-1.5,1-2c0.7-0.5,1.6-0.7,2.8-0.7h1.8v-0.9c0-0.5-0.2-0.9-0.5-1.2
		c-0.3-0.3-0.8-0.5-1.4-0.5c-0.5,0-1,0.1-1.3,0.4c-0.3,0.3-0.5,0.6-0.5,1l-1.5,0l0,0c0-0.7,0.3-1.2,0.9-1.8c0.6-0.5,1.5-0.8,2.5-0.8
		c1,0,1.8,0.3,2.4,0.8s0.9,1.3,0.9,2.2v4.3c0,0.3,0,0.6,0,0.9c0,0.3,0.1,0.6,0.2,0.9H409.7z M407,153.7c0.6,0,1.1-0.2,1.6-0.5
		c0.5-0.3,0.8-0.7,0.9-1v-1.5h-1.8c-0.7,0-1.2,0.2-1.6,0.5c-0.4,0.3-0.6,0.7-0.6,1.2c0,0.4,0.1,0.7,0.4,0.9
		C406.1,153.6,406.5,153.7,407,153.7z"/>
	<path class="st2" d="M414.9,146l0.1,1.3c0.3-0.5,0.7-0.8,1.1-1.1c0.4-0.3,1-0.4,1.5-0.4c1,0,1.7,0.3,2.2,0.8
		c0.5,0.6,0.8,1.4,0.8,2.6v5.6h-1.6v-5.6c0-0.8-0.2-1.3-0.5-1.7c-0.3-0.3-0.8-0.5-1.4-0.5c-0.5,0-0.9,0.1-1.3,0.3
		c-0.4,0.2-0.6,0.5-0.8,0.8v6.6h-1.6v-9H414.9z"/>
	<path class="st2" d="M422.7,150.6c0-1.4,0.3-2.6,0.9-3.5c0.6-0.9,1.5-1.3,2.6-1.3c0.5,0,1,0.1,1.4,0.3c0.4,0.2,0.8,0.5,1,0.8V142
		h1.6v12.9h-1.2l-0.2-1.1c-0.3,0.4-0.7,0.8-1.1,1c-0.4,0.2-0.9,0.3-1.5,0.3c-1.1,0-1.9-0.4-2.6-1.2c-0.6-0.8-0.9-1.8-0.9-3.1V150.6z
		 M424.4,150.8c0,0.9,0.2,1.6,0.6,2.2c0.4,0.5,0.9,0.8,1.7,0.8c0.5,0,0.9-0.1,1.2-0.3s0.6-0.5,0.8-0.9v-4.2
		c-0.2-0.4-0.5-0.7-0.8-0.9s-0.7-0.3-1.2-0.3c-0.8,0-1.4,0.3-1.7,1c-0.4,0.6-0.6,1.5-0.6,2.5V150.8z"/>
	<path class="st2" d="M441.6,154.9H440v-10.5l-2.6,0v-1.3l4.3-0.4V154.9z"/>
	<path class="st2" d="M447.9,154.5l-1.2,2.5h-1l0.6-2.6v-1.3h1.6V154.5z"/>
	<path class="st2" d="M454.5,154.9h-1.6v-10.5l-2.6,0v-1.3l4.3-0.4V154.9z"/>
	<path class="st2" d="M466.9,154.9h-7.5v-1.1l3.8-4.5c0.7-0.8,1.1-1.5,1.4-1.9c0.2-0.5,0.4-1,0.4-1.5c0-0.6-0.2-1-0.5-1.4
		c-0.3-0.4-0.8-0.5-1.3-0.5c-0.7,0-1.3,0.2-1.6,0.7c-0.4,0.4-0.6,1-0.6,1.6h-1.6l0,0c0-1,0.3-1.8,1-2.5c0.7-0.7,1.6-1,2.8-1
		c1.1,0,1.9,0.3,2.5,0.9c0.6,0.6,0.9,1.4,0.9,2.3c0,0.6-0.2,1.3-0.5,1.9c-0.4,0.6-0.9,1.4-1.6,2.3l-3,3.6l0,0h5.5V154.9z"/>
	<path class="st2" d="M476.4,154.9H469v-1.1l3.8-4.5c0.7-0.8,1.1-1.5,1.4-1.9c0.2-0.5,0.4-1,0.4-1.5c0-0.6-0.2-1-0.5-1.4
		c-0.3-0.4-0.8-0.5-1.3-0.5c-0.7,0-1.3,0.2-1.6,0.7c-0.4,0.4-0.6,1-0.6,1.6h-1.6l0,0c0-1,0.3-1.8,1-2.5c0.7-0.7,1.6-1,2.8-1
		c1.1,0,1.9,0.3,2.5,0.9c0.6,0.6,0.9,1.4,0.9,2.3c0,0.6-0.2,1.3-0.5,1.9c-0.4,0.6-0.9,1.4-1.6,2.3l-3,3.6l0,0h5.5V154.9z"/>
	<path class="st2" d="M488.8,152.7L488.8,152.7l3.9-9.8h2v12h-1.6v-9l0,0l-3.6,9h-1.1l-3.8-9.3l0,0v9.3h-1.6v-12h2.1L488.8,152.7z"
		/>
	<path class="st2" d="M502.9,154.9c-0.1-0.3-0.1-0.5-0.1-0.7c0-0.2,0-0.4-0.1-0.6c-0.3,0.4-0.7,0.8-1.2,1.1c-0.5,0.3-1,0.4-1.6,0.4
		c-0.9,0-1.6-0.2-2.1-0.7c-0.5-0.5-0.7-1.1-0.7-2c0-0.9,0.3-1.5,1-2s1.6-0.7,2.8-0.7h1.8v-0.9c0-0.5-0.2-0.9-0.5-1.2
		c-0.3-0.3-0.8-0.5-1.4-0.5c-0.5,0-1,0.1-1.3,0.4c-0.3,0.3-0.5,0.6-0.5,1l-1.5,0l0,0c0-0.7,0.3-1.2,0.9-1.8c0.6-0.5,1.5-0.8,2.5-0.8
		c1,0,1.8,0.3,2.4,0.8c0.6,0.5,0.9,1.3,0.9,2.2v4.3c0,0.3,0,0.6,0,0.9s0.1,0.6,0.2,0.9H502.9z M500.2,153.7c0.6,0,1.1-0.2,1.6-0.5
		c0.5-0.3,0.8-0.7,0.9-1v-1.5h-1.8c-0.7,0-1.2,0.2-1.6,0.5s-0.6,0.7-0.6,1.2c0,0.4,0.1,0.7,0.4,0.9
		C499.3,153.6,499.7,153.7,500.2,153.7z"/>
	<path class="st2" d="M508.4,154.9h-1.6V142h1.6V154.9z"/>
	<path class="st2" d="M514.7,155.1c-1.3,0-2.3-0.4-3-1.2s-1.1-1.9-1.1-3.2v-0.4c0-1.3,0.4-2.3,1.1-3.2c0.7-0.8,1.6-1.3,2.7-1.3
		c1.2,0,2.1,0.4,2.7,1.1c0.6,0.7,0.9,1.7,0.9,3v0.9h-5.7l0,0c0,0.9,0.2,1.6,0.6,2.2c0.4,0.6,1,0.8,1.8,0.8c0.6,0,1-0.1,1.5-0.2
		s0.8-0.4,1.1-0.6l0.6,1.1c-0.3,0.3-0.7,0.6-1.3,0.8C516,155,515.4,155.1,514.7,155.1z M514.4,147.1c-0.6,0-1,0.2-1.4,0.7
		s-0.6,1-0.7,1.7l0,0h4v-0.1c0-0.7-0.2-1.2-0.5-1.6S515.1,147.1,514.4,147.1z"/>
	<path class="st2" d="M523.1,150.1c0,2.2-0.4,4-1.3,5.6s-1.8,2.6-2.8,3.1h0l-0.3-0.9c0.7-0.6,1.4-1.5,2-2.9s0.8-3,0.8-4.9V150
		c0-1.9-0.3-3.5-0.9-4.8c-0.6-1.3-1.2-2.3-1.9-2.9l0.3-0.9h0c1,0.5,1.9,1.5,2.8,3.1C522.7,146,523.1,147.9,523.1,150.1L523.1,150.1z
		"/>
</g>
<g class="st1">
	<path class="st2" d="M296.8,167.8l-0.8-0.1c-0.4,0-0.8,0.1-1.1,0.3c-0.3,0.2-0.5,0.5-0.7,0.9v6.4h-1.6v-8.9h1.5l0.2,1.3
		c0.3-0.5,0.6-0.8,0.9-1.1c0.4-0.3,0.8-0.4,1.3-0.4c0.1,0,0.2,0,0.3,0s0.2,0,0.3,0.1L296.8,167.8z"/>
</g>
<g class="st1">
	<path class="st2" d="M302.1,175.4c-1.3,0-2.3-0.4-3-1.2c-0.7-0.8-1.1-1.9-1.1-3.2v-0.4c0-1.3,0.4-2.3,1.1-3.2
		c0.7-0.8,1.6-1.3,2.7-1.3c1.2,0,2.1,0.4,2.7,1.1c0.6,0.7,0.9,1.7,0.9,3v0.9h-5.7l0,0c0,0.9,0.2,1.6,0.6,2.2c0.4,0.6,1,0.8,1.8,0.8
		c0.6,0,1-0.1,1.5-0.2c0.4-0.2,0.8-0.4,1.1-0.6l0.6,1.1c-0.3,0.3-0.7,0.6-1.3,0.8S302.8,175.4,302.1,175.4z M301.8,167.4
		c-0.6,0-1,0.2-1.4,0.7c-0.4,0.4-0.6,1-0.7,1.7l0,0h4v-0.1c0-0.7-0.2-1.2-0.5-1.6C303,167.6,302.5,167.4,301.8,167.4z"/>
	<path class="st2" d="M310.8,174.2c0.5,0,0.9-0.2,1.3-0.5s0.6-0.7,0.6-1.2h1.5l0,0c0,0.8-0.3,1.5-1,2.1c-0.7,0.6-1.5,0.9-2.4,0.9
		c-1.3,0-2.2-0.4-2.9-1.3c-0.7-0.9-1-1.9-1-3.2v-0.3c0-1.3,0.3-2.3,1-3.2s1.7-1.3,2.9-1.3c1,0,1.8,0.3,2.5,0.9
		c0.6,0.6,0.9,1.4,0.9,2.3l0,0.1h-1.5c0-0.5-0.2-1-0.5-1.4c-0.4-0.4-0.8-0.6-1.3-0.6c-0.8,0-1.4,0.3-1.7,0.9
		c-0.4,0.6-0.6,1.4-0.6,2.3v0.3c0,0.9,0.2,1.7,0.5,2.3C309.4,173.9,310,174.2,310.8,174.2z"/>
	<path class="st2" d="M319.8,175.4c-1.3,0-2.3-0.4-3-1.2c-0.7-0.8-1.1-1.9-1.1-3.2v-0.4c0-1.3,0.4-2.3,1.1-3.2
		c0.7-0.8,1.6-1.3,2.7-1.3c1.2,0,2.1,0.4,2.7,1.1c0.6,0.7,0.9,1.7,0.9,3v0.9h-5.7l0,0c0,0.9,0.2,1.6,0.6,2.2c0.4,0.6,1,0.8,1.8,0.8
		c0.6,0,1-0.1,1.5-0.2c0.4-0.2,0.8-0.4,1.1-0.6l0.6,1.1c-0.3,0.3-0.7,0.6-1.3,0.8S320.6,175.4,319.8,175.4z M319.6,167.4
		c-0.6,0-1,0.2-1.4,0.7c-0.4,0.4-0.6,1-0.7,1.7l0,0h4v-0.1c0-0.7-0.2-1.2-0.5-1.6C320.7,167.6,320.2,167.4,319.6,167.4z"/>
	<path class="st2" d="M326.7,164h-1.6v-1.7h1.6V164z M326.7,175.3h-1.6v-8.9h1.6V175.3z"/>
</g>
<g class="st1">
	<path class="st2" d="M332.2,172.6l0.1,0.6h0l0.2-0.6l2.1-6.3h1.7l-3.3,8.9h-1.2l-3.3-8.9h1.7L332.2,172.6z"/>
</g>
<g class="st1">
	<path class="st2" d="M341.4,175.4c-1.3,0-2.3-0.4-3-1.2c-0.7-0.8-1.1-1.9-1.1-3.2v-0.4c0-1.3,0.4-2.3,1.1-3.2
		c0.7-0.8,1.6-1.3,2.7-1.3c1.2,0,2.1,0.4,2.7,1.1c0.6,0.7,0.9,1.7,0.9,3v0.9H339l0,0c0,0.9,0.2,1.6,0.6,2.2c0.4,0.6,1,0.8,1.8,0.8
		c0.6,0,1-0.1,1.5-0.2c0.4-0.2,0.8-0.4,1.1-0.6l0.6,1.1c-0.3,0.3-0.7,0.6-1.3,0.8C342.7,175.3,342.1,175.4,341.4,175.4z
		 M341.1,167.4c-0.6,0-1,0.2-1.4,0.7c-0.4,0.4-0.6,1-0.7,1.7l0,0h4v-0.1c0-0.7-0.2-1.2-0.5-1.6C342.3,167.6,341.8,167.4,341.1,167.4
		z"/>
	<path class="st2" d="M346.1,171c0-1.4,0.3-2.6,0.9-3.5c0.6-0.9,1.5-1.3,2.6-1.3c0.5,0,1,0.1,1.4,0.3c0.4,0.2,0.8,0.5,1,0.8v-4.9
		h1.6v12.9h-1.2l-0.2-1.1c-0.3,0.4-0.7,0.8-1.1,1c-0.4,0.2-0.9,0.3-1.5,0.3c-1.1,0-1.9-0.4-2.6-1.2c-0.6-0.8-0.9-1.8-0.9-3.1V171z
		 M347.8,171.1c0,0.9,0.2,1.6,0.6,2.2c0.4,0.5,0.9,0.8,1.7,0.8c0.5,0,0.9-0.1,1.2-0.3s0.6-0.5,0.8-0.9v-4.2
		c-0.2-0.4-0.5-0.7-0.8-0.9c-0.3-0.2-0.7-0.3-1.2-0.3c-0.8,0-1.4,0.3-1.7,1c-0.4,0.6-0.6,1.5-0.6,2.5V171.1z"/>
	<path class="st2" d="M363.9,174.2c0.5,0,0.9-0.2,1.3-0.5s0.6-0.7,0.6-1.2h1.5l0,0c0,0.8-0.3,1.5-1,2.1c-0.7,0.6-1.5,0.9-2.4,0.9
		c-1.3,0-2.2-0.4-2.9-1.3c-0.7-0.9-1-1.9-1-3.2v-0.3c0-1.3,0.3-2.3,1-3.2s1.7-1.3,2.9-1.3c1,0,1.8,0.3,2.5,0.9
		c0.6,0.6,0.9,1.4,0.9,2.3l0,0.1h-1.5c0-0.5-0.2-1-0.5-1.4s-0.8-0.6-1.3-0.6c-0.8,0-1.4,0.3-1.8,0.9c-0.4,0.6-0.5,1.4-0.5,2.3v0.3
		c0,0.9,0.2,1.7,0.5,2.3C362.5,173.9,363.1,174.2,363.9,174.2z"/>
	<path class="st2" d="M368.8,170.7c0-1.3,0.4-2.4,1.1-3.3s1.7-1.3,2.9-1.3c1.2,0,2.2,0.4,2.9,1.3c0.7,0.9,1.1,1.9,1.1,3.3v0.2
		c0,1.3-0.4,2.4-1.1,3.3s-1.7,1.3-2.9,1.3s-2.2-0.4-2.9-1.3s-1.1-1.9-1.1-3.3V170.7z M370.5,170.9c0,0.9,0.2,1.7,0.6,2.3
		c0.4,0.6,1,0.9,1.8,0.9c0.8,0,1.4-0.3,1.8-0.9s0.6-1.4,0.6-2.3v-0.2c0-0.9-0.2-1.7-0.6-2.3s-1-0.9-1.8-0.9c-0.8,0-1.4,0.3-1.8,0.9
		c-0.4,0.6-0.6,1.4-0.6,2.3V170.9z"/>
	<path class="st2" d="M380.3,166.3l0.1,1.2c0.3-0.4,0.7-0.8,1.1-1s1-0.4,1.6-0.4s1.1,0.1,1.5,0.4c0.4,0.3,0.7,0.7,1,1.2
		c0.3-0.5,0.7-0.9,1.1-1.2c0.5-0.3,1-0.4,1.6-0.4c0.9,0,1.6,0.3,2.2,0.9s0.8,1.6,0.8,2.8v5.4h-1.6v-5.4c0-0.9-0.2-1.5-0.5-1.9
		c-0.3-0.4-0.8-0.6-1.4-0.6c-0.6,0-1,0.2-1.4,0.6c-0.3,0.4-0.5,0.9-0.6,1.5v0.1v5.7h-1.6v-5.4c0-0.8-0.2-1.5-0.5-1.8
		s-0.8-0.6-1.3-0.6c-0.5,0-0.9,0.1-1.2,0.3c-0.3,0.2-0.6,0.5-0.7,0.9v6.6h-1.6v-8.9H380.3z"/>
	<path class="st2" d="M401.3,171.1c0,1.3-0.3,2.3-0.9,3.1c-0.6,0.8-1.5,1.2-2.6,1.2c-0.6,0-1-0.1-1.5-0.3c-0.4-0.2-0.8-0.5-1.1-0.8
		v4.4h-1.6v-12.4h1.2l0.3,1.2c0.3-0.4,0.7-0.8,1.1-1c0.4-0.2,0.9-0.3,1.5-0.3c1.1,0,2,0.4,2.6,1.3c0.6,0.9,0.9,2,0.9,3.5V171.1z
		 M399.7,171c0-1-0.2-1.8-0.6-2.5c-0.4-0.7-1-1-1.8-1c-0.5,0-0.9,0.1-1.2,0.3s-0.6,0.5-0.8,0.9v4.3c0.2,0.4,0.5,0.7,0.8,0.9
		s0.7,0.3,1.2,0.3c0.8,0,1.4-0.3,1.8-0.8c0.4-0.6,0.6-1.3,0.6-2.2V171z"/>
	<path class="st2" d="M407,175.4c-1.3,0-2.3-0.4-3-1.2c-0.7-0.8-1.1-1.9-1.1-3.2v-0.4c0-1.3,0.4-2.3,1.1-3.2
		c0.7-0.8,1.6-1.3,2.7-1.3c1.2,0,2.1,0.4,2.7,1.1s0.9,1.7,0.9,3v0.9h-5.7l0,0c0,0.9,0.2,1.6,0.6,2.2c0.4,0.6,1,0.8,1.8,0.8
		c0.6,0,1-0.1,1.5-0.2c0.4-0.2,0.8-0.4,1.1-0.6l0.6,1.1c-0.3,0.3-0.7,0.6-1.3,0.8C408.4,175.3,407.7,175.4,407,175.4z M406.7,167.4
		c-0.6,0-1,0.2-1.4,0.7c-0.4,0.4-0.6,1-0.7,1.7l0,0h4v-0.1c0-0.7-0.2-1.2-0.5-1.6C407.9,167.6,407.4,167.4,406.7,167.4z"/>
	<path class="st2" d="M413.6,166.3l0.1,1.3c0.3-0.5,0.7-0.8,1.1-1.1c0.5-0.3,1-0.4,1.5-0.4c1,0,1.7,0.3,2.2,0.8
		c0.5,0.6,0.8,1.4,0.8,2.6v5.6h-1.6v-5.6c0-0.8-0.2-1.3-0.5-1.7s-0.8-0.5-1.4-0.5c-0.5,0-0.9,0.1-1.3,0.3c-0.3,0.2-0.6,0.5-0.8,0.8
		v6.6h-1.6v-8.9H413.6z"/>
	<path class="st2" d="M427,172.9c0-0.4-0.1-0.7-0.4-0.9c-0.3-0.2-0.8-0.4-1.6-0.6c-1.1-0.2-1.9-0.5-2.4-1s-0.8-1-0.8-1.6
		c0-0.7,0.3-1.3,0.9-1.9c0.6-0.5,1.4-0.8,2.4-0.8c1,0,1.8,0.3,2.5,0.8c0.6,0.6,0.9,1.2,0.9,1.9l0,0h-1.6c0-0.4-0.2-0.7-0.5-1.1
		s-0.8-0.5-1.3-0.5c-0.6,0-1,0.1-1.3,0.4c-0.3,0.3-0.4,0.6-0.4,0.9c0,0.4,0.1,0.6,0.4,0.8c0.2,0.2,0.8,0.4,1.5,0.5
		c1.1,0.2,1.9,0.6,2.5,1c0.6,0.4,0.9,1,0.9,1.7c0,0.8-0.3,1.4-1,1.9c-0.6,0.5-1.5,0.8-2.5,0.8c-1.1,0-2-0.3-2.7-0.9
		c-0.7-0.6-1-1.3-0.9-2l0,0h1.6c0,0.6,0.2,1,0.6,1.3s0.9,0.4,1.4,0.4c0.6,0,1-0.1,1.4-0.4C426.8,173.6,427,173.2,427,172.9z"/>
	<path class="st2" d="M436.1,175.3c-0.1-0.3-0.1-0.5-0.1-0.7s0-0.4-0.1-0.6c-0.3,0.4-0.7,0.8-1.2,1.1c-0.5,0.3-1,0.4-1.6,0.4
		c-0.9,0-1.6-0.2-2.1-0.7s-0.7-1.1-0.7-2c0-0.9,0.3-1.5,1-2c0.7-0.5,1.6-0.7,2.8-0.7h1.8v-0.9c0-0.5-0.2-0.9-0.5-1.2
		c-0.3-0.3-0.8-0.5-1.4-0.5c-0.5,0-1,0.1-1.3,0.4s-0.5,0.6-0.5,1l-1.5,0l0,0c0-0.7,0.3-1.2,0.9-1.8c0.6-0.5,1.5-0.8,2.5-0.8
		c1,0,1.8,0.3,2.4,0.8s0.9,1.3,0.9,2.2v4.3c0,0.3,0,0.6,0,0.9c0,0.3,0.1,0.6,0.2,0.9H436.1z M433.4,174.1c0.6,0,1.1-0.2,1.6-0.5
		c0.5-0.3,0.8-0.7,0.9-1v-1.5h-1.8c-0.7,0-1.2,0.2-1.6,0.5c-0.4,0.3-0.6,0.7-0.6,1.2c0,0.4,0.1,0.7,0.4,0.9
		C432.6,174,433,174.1,433.4,174.1z"/>
	<path class="st2" d="M442.2,164.2v2.2h1.7v1.2h-1.7v5.4c0,0.4,0.1,0.7,0.3,0.9c0.2,0.2,0.4,0.3,0.7,0.3c0.1,0,0.2,0,0.3,0
		c0.1,0,0.2-0.1,0.3-0.1l0.2,1.1c-0.1,0.1-0.3,0.2-0.5,0.2c-0.2,0.1-0.5,0.1-0.7,0.1c-0.7,0-1.2-0.2-1.6-0.6s-0.6-1-0.6-1.9v-5.4
		h-1.4v-1.2h1.4v-2.2H442.2z"/>
	<path class="st2" d="M447.4,164h-1.6v-1.7h1.6V164z M447.4,175.3h-1.6v-8.9h1.6V175.3z"/>
	<path class="st2" d="M449.5,170.7c0-1.3,0.4-2.4,1.1-3.3s1.7-1.3,2.9-1.3c1.2,0,2.2,0.4,2.9,1.3c0.7,0.9,1.1,1.9,1.1,3.3v0.2
		c0,1.3-0.4,2.4-1.1,3.3s-1.7,1.3-2.9,1.3s-2.2-0.4-2.9-1.3s-1.1-1.9-1.1-3.3V170.7z M451.2,170.9c0,0.9,0.2,1.7,0.6,2.3
		s1,0.9,1.8,0.9c0.8,0,1.4-0.3,1.8-0.9s0.6-1.4,0.6-2.3v-0.2c0-0.9-0.2-1.7-0.6-2.3s-1-0.9-1.8-0.9c-0.8,0-1.4,0.3-1.8,0.9
		s-0.6,1.4-0.6,2.3V170.9z"/>
	<path class="st2" d="M461,166.3l0.1,1.3c0.3-0.5,0.7-0.8,1.1-1.1c0.5-0.3,1-0.4,1.5-0.4c1,0,1.7,0.3,2.2,0.8
		c0.5,0.6,0.8,1.4,0.8,2.6v5.6h-1.6v-5.6c0-0.8-0.2-1.3-0.5-1.7s-0.8-0.5-1.4-0.5c-0.5,0-0.9,0.1-1.3,0.3c-0.3,0.2-0.6,0.5-0.8,0.8
		v6.6h-1.6v-8.9H461z"/>
	<path class="st2" d="M474.1,175.3v-7.7h-1.4v-1.2h1.4v-1.1c0-1,0.2-1.7,0.7-2.2c0.5-0.5,1.2-0.8,2.1-0.8c0.2,0,0.4,0,0.6,0
		c0.2,0,0.4,0.1,0.6,0.1l-0.2,1.2c-0.1,0-0.2,0-0.4-0.1c-0.1,0-0.3,0-0.4,0c-0.5,0-0.8,0.1-1.1,0.4c-0.2,0.3-0.3,0.7-0.3,1.2v1.1
		h1.6v1.2h-1.6v7.7H474.1z"/>
	<path class="st2" d="M484.7,173.9c-0.3,0.5-0.6,0.8-1.1,1.1c-0.4,0.3-1,0.4-1.5,0.4c-1,0-1.7-0.3-2.3-0.9s-0.8-1.6-0.8-2.9v-5.3
		h1.6v5.3c0,1,0.1,1.6,0.4,2c0.3,0.4,0.7,0.5,1.3,0.5c0.6,0,1.1-0.1,1.4-0.4c0.4-0.2,0.7-0.6,0.9-1v-6.5h1.6v8.9h-1.5L484.7,173.9z"
		/>
	<path class="st2" d="M490.1,166.3l0.1,1.3c0.3-0.5,0.7-0.8,1.1-1.1c0.5-0.3,1-0.4,1.5-0.4c1,0,1.7,0.3,2.2,0.8
		c0.5,0.6,0.8,1.4,0.8,2.6v5.6h-1.6v-5.6c0-0.8-0.2-1.3-0.5-1.7s-0.8-0.5-1.4-0.5c-0.5,0-0.9,0.1-1.3,0.3c-0.3,0.2-0.6,0.5-0.8,0.8
		v6.6h-1.6v-8.9H490.1z"/>
	<path class="st2" d="M497.9,171c0-1.4,0.3-2.6,0.9-3.5c0.6-0.9,1.5-1.3,2.6-1.3c0.5,0,1,0.1,1.4,0.3c0.4,0.2,0.8,0.5,1,0.8v-4.9
		h1.6v12.9h-1.2l-0.2-1.1c-0.3,0.4-0.7,0.8-1.1,1c-0.4,0.2-0.9,0.3-1.5,0.3c-1.1,0-1.9-0.4-2.6-1.2c-0.6-0.8-0.9-1.8-0.9-3.1V171z
		 M499.5,171.1c0,0.9,0.2,1.6,0.6,2.2c0.4,0.5,0.9,0.8,1.7,0.8c0.5,0,0.9-0.1,1.2-0.3s0.6-0.5,0.8-0.9v-4.2
		c-0.2-0.4-0.5-0.7-0.8-0.9c-0.3-0.2-0.7-0.3-1.2-0.3c-0.8,0-1.4,0.3-1.7,1c-0.4,0.6-0.6,1.5-0.6,2.5V171.1z"/>
	<path class="st2" d="M513.1,172.9c0-0.4-0.1-0.7-0.4-0.9c-0.3-0.2-0.8-0.4-1.6-0.6c-1.1-0.2-1.9-0.5-2.4-1c-0.6-0.4-0.8-1-0.8-1.6
		c0-0.7,0.3-1.3,0.9-1.9c0.6-0.5,1.4-0.8,2.4-0.8c1,0,1.8,0.3,2.5,0.8c0.6,0.6,0.9,1.2,0.9,1.9l0,0H513c0-0.4-0.2-0.7-0.5-1.1
		c-0.3-0.3-0.8-0.5-1.3-0.5c-0.6,0-1,0.1-1.3,0.4c-0.3,0.3-0.4,0.6-0.4,0.9c0,0.4,0.1,0.6,0.4,0.8c0.2,0.2,0.8,0.4,1.5,0.5
		c1.1,0.2,1.9,0.6,2.5,1c0.6,0.4,0.9,1,0.9,1.7c0,0.8-0.3,1.4-1,1.9s-1.5,0.8-2.5,0.8c-1.1,0-2-0.3-2.7-0.9c-0.7-0.6-1-1.3-0.9-2
		l0,0h1.6c0,0.6,0.2,1,0.6,1.3c0.4,0.3,0.9,0.4,1.4,0.4c0.6,0,1-0.1,1.4-0.4C512.9,173.6,513.1,173.2,513.1,172.9z"/>
</g>
<g class="st1">
	<path class="st2" d="M339.9,191.3c0-1.4,0.3-2.6,0.9-3.5c0.6-0.9,1.5-1.3,2.6-1.3c0.5,0,1,0.1,1.4,0.3c0.4,0.2,0.8,0.5,1,0.8v-4.9
		h1.6v12.9h-1.2l-0.2-1.1c-0.3,0.4-0.7,0.8-1.1,1c-0.4,0.2-0.9,0.3-1.5,0.3c-1.1,0-1.9-0.4-2.6-1.2c-0.6-0.8-0.9-1.8-0.9-3.1V191.3z
		 M341.6,191.5c0,0.9,0.2,1.6,0.6,2.2c0.4,0.5,0.9,0.8,1.7,0.8c0.5,0,0.9-0.1,1.2-0.3s0.6-0.5,0.8-0.9V189c-0.2-0.4-0.5-0.7-0.8-0.9
		c-0.3-0.2-0.7-0.3-1.2-0.3c-0.8,0-1.4,0.3-1.7,1c-0.4,0.6-0.6,1.5-0.6,2.5V191.5z"/>
	<path class="st2" d="M355.6,194.3c-0.3,0.5-0.6,0.8-1.1,1.1c-0.4,0.3-1,0.4-1.5,0.4c-1,0-1.7-0.3-2.3-0.9s-0.8-1.6-0.8-2.9v-5.3
		h1.6v5.3c0,1,0.1,1.6,0.4,2s0.7,0.5,1.3,0.5c0.6,0,1.1-0.1,1.4-0.4c0.4-0.2,0.7-0.6,0.9-1v-6.5h1.6v9h-1.5L355.6,194.3z"/>
	<path class="st2" d="M363.8,188.1l-0.8,0c-0.4,0-0.8,0.1-1.1,0.3s-0.5,0.5-0.7,0.9v6.4h-1.6v-9h1.5l0.2,1.3
		c0.3-0.5,0.6-0.8,0.9-1.1c0.4-0.3,0.8-0.4,1.3-0.4c0.1,0,0.2,0,0.3,0s0.2,0,0.3,0.1L363.8,188.1z"/>
	<path class="st2" d="M367.3,184.3h-1.6v-1.7h1.6V184.3z M367.3,195.6h-1.6v-9h1.6V195.6z"/>
	<path class="st2" d="M371.2,186.6l0.1,1.3c0.3-0.5,0.7-0.8,1.1-1.1c0.4-0.3,1-0.4,1.5-0.4c1,0,1.7,0.3,2.2,0.8
		c0.5,0.6,0.8,1.4,0.8,2.6v5.6h-1.6V190c0-0.8-0.2-1.3-0.5-1.7c-0.3-0.3-0.8-0.5-1.4-0.5c-0.5,0-0.9,0.1-1.3,0.3
		c-0.4,0.2-0.6,0.5-0.8,0.8v6.6h-1.6v-9H371.2z"/>
	<path class="st2" d="M379.1,191.3c0-1.4,0.3-2.6,0.9-3.5c0.6-0.9,1.5-1.3,2.6-1.3c0.6,0,1.1,0.1,1.5,0.3c0.4,0.2,0.8,0.6,1.1,1
		l0.2-1.2h1.3v9c0,1.1-0.3,2-1,2.6s-1.6,0.9-2.9,0.9c-0.4,0-0.9-0.1-1.4-0.2c-0.5-0.1-0.9-0.3-1.3-0.5l0.2-1.3
		c0.3,0.2,0.7,0.3,1.1,0.4c0.4,0.1,0.9,0.2,1.3,0.2c0.8,0,1.4-0.2,1.7-0.5c0.4-0.4,0.5-0.9,0.5-1.7v-1c-0.3,0.4-0.6,0.7-1,0.9
		c-0.4,0.2-0.9,0.3-1.4,0.3c-1.1,0-1.9-0.4-2.6-1.2c-0.6-0.8-0.9-1.8-0.9-3.1V191.3z M380.7,191.5c0,0.9,0.2,1.6,0.6,2.2
		c0.4,0.5,0.9,0.8,1.7,0.8c0.5,0,0.9-0.1,1.2-0.3c0.3-0.2,0.6-0.5,0.8-0.9V189c-0.2-0.4-0.5-0.7-0.8-0.9c-0.3-0.2-0.7-0.3-1.2-0.3
		c-0.8,0-1.4,0.3-1.7,1c-0.4,0.6-0.6,1.5-0.6,2.5V191.5z"/>
	<path class="st2" d="M402.1,191.7L402.1,191.7c0,1.2-0.4,2.1-1.2,2.9c-0.8,0.8-1.9,1.1-3.2,1.1c-1.4,0-2.5-0.5-3.3-1.4
		s-1.3-2.2-1.3-3.7v-2.1c0-1.5,0.4-2.7,1.3-3.7s2-1.5,3.3-1.5s2.4,0.4,3.3,1.1c0.8,0.7,1.2,1.7,1.2,2.9l0,0h-1.6
		c0-0.8-0.2-1.5-0.7-2c-0.5-0.5-1.2-0.7-2.1-0.7c-0.9,0-1.6,0.4-2.2,1.1c-0.5,0.7-0.8,1.6-0.8,2.7v2.2c0,1.1,0.3,2,0.8,2.7
		c0.5,0.7,1.3,1.1,2.2,1.1c0.9,0,1.6-0.2,2.1-0.7c0.5-0.5,0.7-1.2,0.7-2H402.1z"/>
</g>
<g class="st1">
	<path class="st2" d="M413.4,190.6c0,1.5-0.5,2.7-1.4,3.7c-0.9,1-2.1,1.5-3.6,1.5c-1.4,0-2.5-0.5-3.4-1.5c-0.9-1-1.3-2.2-1.3-3.7
		v-2.1c0-1.5,0.4-2.7,1.3-3.7c0.9-1,2-1.5,3.4-1.5c1.5,0,2.6,0.5,3.6,1.5c0.9,1,1.4,2.2,1.4,3.7V190.6z M411.7,188.5
		c0-1.1-0.3-2-0.9-2.7s-1.4-1.1-2.4-1.1c-0.9,0-1.7,0.4-2.3,1.1c-0.6,0.7-0.8,1.6-0.8,2.7v2.2c0,1.1,0.3,2,0.8,2.7
		c0.6,0.7,1.3,1.1,2.3,1.1c1,0,1.8-0.4,2.4-1.1s0.9-1.6,0.9-2.7V188.5z"/>
</g>
<g class="st1">
	<path class="st2" d="M419.2,192.4l0.3,1h0l0.3-1l3.1-8.9h1.8l-4.5,12h-1.4l-4.5-12h1.8L419.2,192.4z"/>
	<path class="st2" d="M428.1,195.6h-1.6v-12h1.6V195.6z"/>
	<path class="st2" d="M431,195.6v-12h3.8c1.6,0,2.8,0.5,3.8,1.5s1.4,2.2,1.4,3.8v1.6c0,1.5-0.5,2.8-1.4,3.8s-2.2,1.4-3.8,1.4H431z
		 M432.7,184.8v9.5h2.2c1.1,0,2-0.4,2.6-1.1s1-1.7,1-2.8v-1.7c0-1.1-0.3-2.1-1-2.8s-1.5-1.1-2.6-1.1H432.7z"/>
	<path class="st2" d="M447.4,191.1h-4.9v-1.3h4.9V191.1z"/>
	<path class="st2" d="M454.6,195.6H453v-10.5l-2.6,0v-1.3l4.3-0.4V195.6z"/>
	<path class="st2" d="M462.4,194.5c0.8,0,1.4-0.3,1.9-0.8c0.5-0.5,0.7-1.3,0.7-2.3v-1c-0.3,0.4-0.6,0.7-1,0.9s-0.8,0.3-1.3,0.3
		c-1.2,0-2.1-0.4-2.7-1.1c-0.7-0.7-1-1.7-1-3c0-1.2,0.4-2.2,1.1-3c0.7-0.8,1.6-1.2,2.6-1.2c1.2,0,2.2,0.4,2.9,1.1
		c0.7,0.8,1.1,1.8,1.1,3.2v3.7c0,1.4-0.4,2.5-1.2,3.2c-0.8,0.8-1.8,1.2-3.1,1.2c-0.4,0-0.9,0-1.3-0.1c-0.4-0.1-0.9-0.2-1.2-0.4
		l0.2-1.2c0.4,0.2,0.7,0.3,1.1,0.4C461.5,194.5,462,194.5,462.4,194.5z M462.8,190.3c0.6,0,1-0.1,1.4-0.4c0.4-0.3,0.7-0.6,0.8-1
		v-1.4c0-0.9-0.2-1.6-0.6-2.1c-0.4-0.5-1-0.7-1.7-0.7c-0.6,0-1.1,0.3-1.5,0.8c-0.4,0.5-0.6,1.2-0.6,2.1c0,0.8,0.2,1.5,0.5,2
		C461.6,190,462.1,190.3,462.8,190.3z"/>
</g>
</svg>
