<svg id="Layer_1" data-name="Layer 1" xmlns="http://www.w3.org/2000/svg" viewBox="0 0 654 250"><defs><style>.cls-1{fill:none;stroke:#f26e25;stroke-miterlimit:10;stroke-width:2.61px;}.cls-2{fill:#f26e25;}.cls-3{opacity:0.15;}.cls-4{fill:#fff;}</style></defs><polygon class="cls-1" points="12.15 125 126.14 238.98 528.45 238.98 642.43 125 528.45 11.02 126.14 11.02 12.15 125"/><path class="cls-2" d="M356.38,84h3V96.77h-3Z"/><path class="cls-2" d="M374.1,84V96.77h-2.43L365.3,89v7.77h-2.93V84h2.45l6.36,7.76V84Z"/><path class="cls-2" d="M377.14,84H383a8.19,8.19,0,0,1,3.68.79A6,6,0,0,1,389.11,87a6.79,6.79,0,0,1,0,6.72A5.92,5.92,0,0,1,386.63,96a8.2,8.2,0,0,1-3.68.8h-5.81Zm5.66,10.36a4.31,4.31,0,0,0,3.06-1.07,4.25,4.25,0,0,0,0-5.79,4.26,4.26,0,0,0-3.06-1.07h-2.7v7.93Z"/><path class="cls-2" d="M394.83,96.13a6.4,6.4,0,0,1-3.41-5.76,6.43,6.43,0,0,1,.91-3.39,6.32,6.32,0,0,1,2.5-2.36,7.9,7.9,0,0,1,7.17,0,6.41,6.41,0,0,1,3.42,5.75,6.38,6.38,0,0,1-.92,3.39,6.48,6.48,0,0,1-2.5,2.37,7.9,7.9,0,0,1-7.17,0Zm5.64-2.19a3.76,3.76,0,0,0,1.43-1.45,4.58,4.58,0,0,0,0-4.24,3.83,3.83,0,0,0-1.43-1.45,4.3,4.3,0,0,0-4.1,0,3.76,3.76,0,0,0-1.43,1.45,4.58,4.58,0,0,0,0,4.24,3.69,3.69,0,0,0,1.43,1.45,4.3,4.3,0,0,0,4.1,0Z"/><path class="cls-2" d="M419.37,84V96.77H417L410.57,89v7.77h-2.92V84h2.44l6.36,7.76V84Z"/><path class="cls-2" d="M432.31,94.39v2.38h-9.9V84h9.66v2.37h-6.72v2.78h5.94v2.3h-5.94v3Z"/><path class="cls-2" d="M435.94,96.57a6.91,6.91,0,0,1-2.28-1.06l1-2.23a6.7,6.7,0,0,0,1.95,1,7.19,7.19,0,0,0,2.27.37,3.6,3.6,0,0,0,1.86-.37,1.14,1.14,0,0,0,.6-1,1,1,0,0,0-.35-.76,2.75,2.75,0,0,0-.92-.48c-.37-.12-.87-.26-1.5-.4a22.61,22.61,0,0,1-2.4-.7,3.93,3.93,0,0,1-1.6-1.11,3,3,0,0,1-.66-2.05,3.6,3.6,0,0,1,.6-2,4,4,0,0,1,1.82-1.43,7.31,7.31,0,0,1,3-.53,10.09,10.09,0,0,1,2.39.29,7.46,7.46,0,0,1,2.05.84l-.92,2.25a7.12,7.12,0,0,0-3.54-1,3.32,3.32,0,0,0-1.84.41,1.22,1.22,0,0,0-.59,1,1,1,0,0,0,.68,1,10,10,0,0,0,2.1.63,20.82,20.82,0,0,1,2.39.7,4,4,0,0,1,1.6,1.09,3,3,0,0,1,.66,2,3.47,3.47,0,0,1-.61,2,4.22,4.22,0,0,1-1.83,1.44,7.56,7.56,0,0,1-3,.53A10.23,10.23,0,0,1,435.94,96.57Z"/><path class="cls-2" d="M446.32,84h3V96.77h-3Z"/><path class="cls-2" d="M460.74,94H454.8l-1.13,2.74h-3L456.33,84h2.93L465,96.77h-3.1Zm-.94-2.25-2-4.9-2,4.9Z"/><path class="cls-2" d="M478,84V96.77h-2.43L469.23,89v7.77h-2.92V84h2.45l6.35,7.76V84Z"/><path class="cls-2" d="M300.63,117.39a5.86,5.86,0,0,1-1.52-4.33V105.9h3v7q0,3.43,2.85,3.44a2.7,2.7,0,0,0,2.12-.83,4,4,0,0,0,.73-2.61v-7h2.92v7.16a6,6,0,0,1-10.06,4.33Z"/><path class="cls-2" d="M325.34,105.9v12.79h-2.43l-6.37-7.77v7.77h-2.93V105.9h2.45l6.36,7.77V105.9Z"/><path class="cls-2" d="M328.38,105.9h3v12.79h-3Z"/><path class="cls-2" d="M346.59,105.9l-5.53,12.79h-2.93l-5.51-12.79h3.19L339.7,115l3.95-9.14Z"/><path class="cls-2" d="M357.55,116.31v2.38h-9.9V105.9h9.66v2.38h-6.72v2.77h5.94v2.3h-5.94v3Z"/><path class="cls-2" d="M368.06,118.69l-2.47-3.56h-2.72v3.56h-3V105.9h5.53a7,7,0,0,1,2.95.57,4.32,4.32,0,0,1,1.93,1.6,4.46,4.46,0,0,1,.68,2.47,4.18,4.18,0,0,1-2.63,4l2.87,4.11Zm-.75-9.8a3.09,3.09,0,0,0-2-.58h-2.41v4.46h2.41a3.09,3.09,0,0,0,2-.58,2,2,0,0,0,.69-1.65A2,2,0,0,0,367.31,108.89Z"/><path class="cls-2" d="M374.61,118.5a6.92,6.92,0,0,1-2.28-1.07l1-2.23a7,7,0,0,0,2,1,7.47,7.47,0,0,0,2.27.36,3.6,3.6,0,0,0,1.86-.37,1.13,1.13,0,0,0,.6-1,1,1,0,0,0-.35-.75,2.6,2.6,0,0,0-.92-.49c-.37-.12-.87-.25-1.5-.4a20.69,20.69,0,0,1-2.4-.69,4,4,0,0,1-1.6-1.12,3,3,0,0,1-.66-2,3.54,3.54,0,0,1,.6-2,4,4,0,0,1,1.82-1.44,7.48,7.48,0,0,1,3-.53,10.09,10.09,0,0,1,2.39.29,7.46,7.46,0,0,1,2.05.84l-.92,2.25a7.11,7.11,0,0,0-3.54-1,3.33,3.33,0,0,0-1.84.4,1.24,1.24,0,0,0-.59,1.06,1,1,0,0,0,.68,1,11.36,11.36,0,0,0,2.1.63,21,21,0,0,1,2.39.69,4,4,0,0,1,1.6,1.1,2.94,2.94,0,0,1,.66,2,3.47,3.47,0,0,1-.61,2,4.08,4.08,0,0,1-1.83,1.44,7.56,7.56,0,0,1-3,.53A10.58,10.58,0,0,1,374.61,118.5Z"/><path class="cls-2" d="M385,105.9h3v12.79h-3Z"/><path class="cls-2" d="M393.63,108.31h-4.09V105.9h11.15v2.41h-4.1v10.38h-3Z"/><path class="cls-2" d="M402.27,105.9h3v12.79h-3Z"/><path class="cls-2" d="M418.17,116.31v2.38h-9.9V105.9h9.66v2.38h-6.72v2.77h5.94v2.3h-5.94v3Z"/><path class="cls-2" d="M421.8,118.5a6.92,6.92,0,0,1-2.28-1.07l1-2.23a7,7,0,0,0,2,1,7.47,7.47,0,0,0,2.27.36,3.6,3.6,0,0,0,1.86-.37,1.13,1.13,0,0,0,.6-1,1,1,0,0,0-.35-.75,2.6,2.6,0,0,0-.92-.49c-.37-.12-.87-.25-1.5-.4a20.69,20.69,0,0,1-2.4-.69,4,4,0,0,1-1.6-1.12,3,3,0,0,1-.66-2,3.54,3.54,0,0,1,.6-2,4,4,0,0,1,1.82-1.44,7.48,7.48,0,0,1,3-.53,10.09,10.09,0,0,1,2.39.29,7.46,7.46,0,0,1,2.05.84l-.92,2.25a7.11,7.11,0,0,0-3.54-1,3.33,3.33,0,0,0-1.84.4,1.24,1.24,0,0,0-.59,1.06,1,1,0,0,0,.68,1,11.36,11.36,0,0,0,2.1.63,21,21,0,0,1,2.39.69,4,4,0,0,1,1.6,1.1,2.94,2.94,0,0,1,.66,2,3.47,3.47,0,0,1-.61,2,4.08,4.08,0,0,1-1.83,1.44,7.56,7.56,0,0,1-3,.53A10.58,10.58,0,0,1,421.8,118.5Z"/><path class="cls-2" d="M434.15,105.47a1.7,1.7,0,0,1,.5,1.27,3,3,0,0,1-.09.73,8.51,8.51,0,0,1-.39,1.1l-1.06,2.63H431.3l.79-2.89a1.54,1.54,0,0,1-.71-.6,1.78,1.78,0,0,1-.26-1,1.7,1.7,0,0,1,.5-1.27,1.78,1.78,0,0,1,1.27-.48A1.7,1.7,0,0,1,434.15,105.47Z"/><path class="cls-2" d="M444.54,118.06a6.33,6.33,0,0,1-2.48-2.36,6.83,6.83,0,0,1,0-6.81,6.33,6.33,0,0,1,2.48-2.36,7.33,7.33,0,0,1,3.55-.85,7.48,7.48,0,0,1,3,.59,6.09,6.09,0,0,1,2.26,1.68l-1.91,1.75a4.06,4.06,0,0,0-3.21-1.5,4.35,4.35,0,0,0-2.12.52,3.7,3.7,0,0,0-1.45,1.46,4.56,4.56,0,0,0,0,4.23,3.7,3.7,0,0,0,1.45,1.46,4.35,4.35,0,0,0,2.12.52,4.05,4.05,0,0,0,3.21-1.52l1.91,1.75a5.89,5.89,0,0,1-2.27,1.7,7.52,7.52,0,0,1-3,.59A7.3,7.3,0,0,1,444.54,118.06Z"/><path class="cls-2" d="M463.51,116h-5.93l-1.14,2.74h-3l5.7-12.79H462l5.72,12.79h-3.1Zm-.93-2.25-2-4.89-2,4.89Z"/><path class="cls-2" d="M477.57,106.47a4.37,4.37,0,0,1,1.93,1.6,4.87,4.87,0,0,1,0,4.93,4.39,4.39,0,0,1-1.93,1.61,7.22,7.22,0,0,1-2.95.55H472v3.53h-3V105.9h5.54A7.06,7.06,0,0,1,477.57,106.47Zm-1.09,5.71a2.28,2.28,0,0,0,0-3.29,3.06,3.06,0,0,0-2-.58H472v4.44h2.42A3.12,3.12,0,0,0,476.48,112.18Z"/><path class="cls-2" d="M490.06,116h-5.94L483,118.69h-3l5.7-12.79h2.92l5.72,12.79h-3.11Zm-.93-2.25-2-4.89-2,4.89Z"/><path class="cls-2" d="M498,118.06a6.33,6.33,0,0,1-2.48-2.36,6.83,6.83,0,0,1,0-6.81,6.33,6.33,0,0,1,2.48-2.36,7.9,7.9,0,0,1,6.56-.26,6,6,0,0,1,2.26,1.68L505,109.7a4.1,4.1,0,0,0-3.22-1.5,4.35,4.35,0,0,0-2.12.52,3.7,3.7,0,0,0-1.45,1.46,4.56,4.56,0,0,0,0,4.23,3.7,3.7,0,0,0,1.45,1.46,4.35,4.35,0,0,0,2.12.52,4.09,4.09,0,0,0,3.22-1.52l1.9,1.75a5.89,5.89,0,0,1-2.27,1.7,7.48,7.48,0,0,1-3,.59A7.32,7.32,0,0,1,498,118.06Z"/><path class="cls-2" d="M508.84,105.9h3v12.79h-3Z"/><path class="cls-2" d="M517.48,108.31h-4.09V105.9h11.14v2.41h-4.09v10.38h-3Z"/><path class="cls-2" d="M532,114.16v4.53h-3v-4.57l-4.95-8.22h3.14l3.42,5.68,3.42-5.68H537Z"/><path class="cls-2" d="M406,32V66.71h-8V38.44H391V32Z"/><path class="cls-2" d="M419.22,65.17A14.37,14.37,0,0,1,413.93,59a22.48,22.48,0,0,1-1.9-9.65,22.4,22.4,0,0,1,1.9-9.64,14.34,14.34,0,0,1,5.29-6.18,14.93,14.93,0,0,1,15.37,0,14.25,14.25,0,0,1,5.28,6.18,22.4,22.4,0,0,1,1.91,9.64A22.48,22.48,0,0,1,439.87,59a14.28,14.28,0,0,1-5.28,6.17,14.93,14.93,0,0,1-15.37,0Zm12.67-7.39c1.2-1.82,1.81-4.63,1.81-8.43s-.61-6.61-1.81-8.43a5.68,5.68,0,0,0-5-2.73A5.62,5.62,0,0,0,422,40.92q-1.82,2.73-1.81,8.43T422,57.78a5.62,5.62,0,0,0,4.93,2.73A5.68,5.68,0,0,0,431.89,57.78Z"/><path d="M323.92,150.77v2.17h1.7v1.2h-1.7v5.45a1.17,1.17,0,0,0,.27.88.94.94,0,0,0,.69.26,1.2,1.2,0,0,0,.31,0,1.48,1.48,0,0,0,.29-.08l.23,1.12a1.7,1.7,0,0,1-.54.25,2.94,2.94,0,0,1-.71.09,2.11,2.11,0,0,1-1.58-.6,2.61,2.61,0,0,1-.59-1.88v-5.45h-1.42v-1.2h1.42v-2.17Z"/><path d="M327,157.33a4.92,4.92,0,0,1,1.08-3.27,3.59,3.59,0,0,1,2.92-1.29,3.69,3.69,0,0,1,2.95,1.28,4.93,4.93,0,0,1,1.08,3.28v.19a4.91,4.91,0,0,1-1.08,3.28,4,4,0,0,1-5.87,0,4.88,4.88,0,0,1-1.08-3.27Zm1.63.19a4.25,4.25,0,0,0,.6,2.35,2,2,0,0,0,1.79.93,2,2,0,0,0,1.77-.93,4.25,4.25,0,0,0,.6-2.35v-.19a4.24,4.24,0,0,0-.6-2.34,2,2,0,0,0-1.79-.94,2,2,0,0,0-1.77.94,4.24,4.24,0,0,0-.6,2.34Z"/><path d="M344.79,160.8a2,2,0,0,0,1.32-.5,1.62,1.62,0,0,0,.56-1.23h1.47l0,0a2.58,2.58,0,0,1-1,2.06,3.81,3.81,0,0,1-5.31-.38,5,5,0,0,1-1-3.2v-.35a4.92,4.92,0,0,1,1-3.18,3.52,3.52,0,0,1,2.91-1.29,3.39,3.39,0,0,1,2.46.93,3,3,0,0,1,.92,2.28l0,0h-1.48a2,2,0,0,0-.53-1.39,1.79,1.79,0,0,0-1.35-.58A1.88,1.88,0,0,0,343,155a4.31,4.31,0,0,0-.55,2.25v.35a4.47,4.47,0,0,0,.54,2.28A1.88,1.88,0,0,0,344.79,160.8Z"/><path d="M349.73,157.33a5,5,0,0,1,1.07-3.27,4,4,0,0,1,5.87,0,4.93,4.93,0,0,1,1.08,3.28v.19a5,5,0,0,1-1.07,3.28,4,4,0,0,1-5.87,0,4.88,4.88,0,0,1-1.08-3.27Zm1.63.19a4.25,4.25,0,0,0,.6,2.35,2,2,0,0,0,1.78.93,2,2,0,0,0,1.78-.93,4.25,4.25,0,0,0,.6-2.35v-.19a4.16,4.16,0,0,0-.61-2.34,2.15,2.15,0,0,0-3.55,0,4.24,4.24,0,0,0-.6,2.34Z"/><path d="M361.21,152.94l.11,1.33a3.33,3.33,0,0,1,1.13-1.11,3,3,0,0,1,1.53-.39,2.92,2.92,0,0,1,2.25.85,3.72,3.72,0,0,1,.79,2.62v5.66h-1.63v-5.63a2.38,2.38,0,0,0-.47-1.68,1.88,1.88,0,0,0-1.43-.5,2.58,2.58,0,0,0-1.28.31,2.19,2.19,0,0,0-.83.85v6.65h-1.63v-9Z"/><path d="M369,157.58a6,6,0,0,1,.92-3.49,3,3,0,0,1,2.59-1.32,3.27,3.27,0,0,1,1.4.29,2.89,2.89,0,0,1,1,.84V149h1.63V161.9h-1.25l-.25-1.14a2.84,2.84,0,0,1-1.09,1,3.24,3.24,0,0,1-1.49.33,3.05,3.05,0,0,1-2.57-1.19,4.91,4.91,0,0,1-.93-3.12Zm1.63.18a3.79,3.79,0,0,0,.56,2.17,1.94,1.94,0,0,0,1.72.82,2.19,2.19,0,0,0,1.23-.33,2.54,2.54,0,0,0,.81-.93V155.3a2.48,2.48,0,0,0-.82-.88,2.11,2.11,0,0,0-1.2-.33,1.88,1.88,0,0,0-1.74,1,5.06,5.06,0,0,0-.56,2.52Z"/><path d="M384.72,160.57a3,3,0,0,1-1.08,1.11,3,3,0,0,1-1.53.39,2.9,2.9,0,0,1-2.29-.93,4.35,4.35,0,0,1-.82-2.92v-5.28h1.63v5.3a3.27,3.27,0,0,0,.43,2,1.56,1.56,0,0,0,1.31.54,2.65,2.65,0,0,0,1.44-.36,2.2,2.2,0,0,0,.86-1v-6.46h1.63v9h-1.47Z"/><path d="M392.24,160.8a2,2,0,0,0,1.32-.5,1.62,1.62,0,0,0,.56-1.23h1.47l0,0a2.57,2.57,0,0,1-1,2.06,3.5,3.5,0,0,1-2.38.9,3.55,3.55,0,0,1-2.92-1.28,5,5,0,0,1-1-3.2v-.35a4.92,4.92,0,0,1,1-3.18,3.49,3.49,0,0,1,2.91-1.29,3.35,3.35,0,0,1,2.45.93,3,3,0,0,1,.93,2.28l0,0h-1.48a2,2,0,0,0-.54-1.39,1.75,1.75,0,0,0-1.34-.58,1.86,1.86,0,0,0-1.75.94,4.31,4.31,0,0,0-.55,2.25v.35a4.47,4.47,0,0,0,.54,2.28A1.88,1.88,0,0,0,392.24,160.8Z"/><path d="M399.83,150.77v2.17h1.69v1.2h-1.69v5.45a1.17,1.17,0,0,0,.26.88.94.94,0,0,0,.69.26,1.2,1.2,0,0,0,.31,0,1.3,1.3,0,0,0,.29-.08l.23,1.12a1.6,1.6,0,0,1-.54.25,2.88,2.88,0,0,1-.71.09,2.11,2.11,0,0,1-1.58-.6,2.61,2.61,0,0,1-.59-1.88v-5.45h-1.42v-1.2h1.42v-2.17Z"/><path d="M413.94,158.79H409.4l-1.08,3.11h-1.66L411,149.84h1.4l4.26,12.06H415Zm-4.07-1.37h3.61l-1.76-5.17h-.05Z"/><path d="M420.24,161.9H418.6V149.84h1.64Z"/><path d="M423.23,161.9V149.84H427a4.94,4.94,0,0,1,5.23,5.21v1.65a4.94,4.94,0,0,1-5.23,5.2Zm1.64-10.78v9.5H427a3.33,3.33,0,0,0,2.64-1.1,4.14,4.14,0,0,0,1-2.82V155a4.13,4.13,0,0,0-1-2.81,3.36,3.36,0,0,0-2.64-1.1Z"/><path d="M441.15,158.86a1.83,1.83,0,0,0-.59-1.38,4.88,4.88,0,0,0-2.07-.94,7,7,0,0,1-2.87-1.34,2.81,2.81,0,0,1-1-2.23,3,3,0,0,1,1.11-2.36,4.29,4.29,0,0,1,2.88-1,4.22,4.22,0,0,1,3,1.08,3.33,3.33,0,0,1,1.1,2.53l0,0h-1.56a2.21,2.21,0,0,0-.71-1.7,2.57,2.57,0,0,0-1.84-.67,2.52,2.52,0,0,0-1.75.55,1.88,1.88,0,0,0-.61,1.44,1.63,1.63,0,0,0,.67,1.32,6.24,6.24,0,0,0,2.17.92,6.11,6.11,0,0,1,2.77,1.39,3,3,0,0,1,.95,2.27,2.85,2.85,0,0,1-1.14,2.35,4.79,4.79,0,0,1-3,.88,5,5,0,0,1-3.08-1,3,3,0,0,1-1.3-2.61l0,0h1.55a2,2,0,0,0,.86,1.75,3.3,3.3,0,0,0,1.95.62,2.94,2.94,0,0,0,1.84-.53A1.68,1.68,0,0,0,441.15,158.86Z"/><path d="M453.33,154.38l-.84,0a1.91,1.91,0,0,0-1.09.3,2,2,0,0,0-.68.86v6.41h-1.63v-9h1.46l.15,1.3a3.22,3.22,0,0,1,.94-1.08,2.21,2.21,0,0,1,1.29-.39,2,2,0,0,1,.35,0l.27.06Z"/><path d="M458.58,162.07a3.79,3.79,0,0,1-3-1.23,4.78,4.78,0,0,1-1.08-3.25v-.36a4.67,4.67,0,0,1,1.11-3.2,3.51,3.51,0,0,1,2.72-1.26,3.25,3.25,0,0,1,2.7,1.12,4.58,4.58,0,0,1,.9,3v.86h-5.73l0,0a3.74,3.74,0,0,0,.6,2.2,2.08,2.08,0,0,0,1.82.84,4,4,0,0,0,1.45-.24,3.24,3.24,0,0,0,1.08-.65l.63,1.06a3.87,3.87,0,0,1-1.26.78A4.94,4.94,0,0,1,458.58,162.07Zm-.26-8a1.76,1.76,0,0,0-1.41.66,3.11,3.11,0,0,0-.68,1.69v0h4.05v-.13a2.62,2.62,0,0,0-.48-1.62A1.76,1.76,0,0,0,458.32,154.05Z"/><path d="M469,159.49a1.1,1.1,0,0,0-.41-.88A3.85,3.85,0,0,0,467,158a6.31,6.31,0,0,1-2.43-.95,1.91,1.91,0,0,1-.85-1.64,2.36,2.36,0,0,1,.93-1.87,4.1,4.1,0,0,1,4.88,0,2.35,2.35,0,0,1,.9,1.93v.05h-1.56a1.39,1.39,0,0,0-.51-1.05,1.81,1.81,0,0,0-1.29-.48,1.88,1.88,0,0,0-1.29.39,1.23,1.23,0,0,0-.42.93,1,1,0,0,0,.37.82,4.08,4.08,0,0,0,1.52.53,6.37,6.37,0,0,1,2.5,1,2,2,0,0,1,.85,1.66,2.36,2.36,0,0,1-1,1.95,4,4,0,0,1-2.53.75,4,4,0,0,1-2.7-.87,2.47,2.47,0,0,1-.93-2v0H465a1.49,1.49,0,0,0,.65,1.27,2.46,2.46,0,0,0,1.41.41,2.3,2.3,0,0,0,1.37-.37A1.13,1.13,0,0,0,469,159.49Z"/><path d="M476.33,162.07a3.79,3.79,0,0,1-3-1.23,4.78,4.78,0,0,1-1.08-3.25v-.36a4.67,4.67,0,0,1,1.11-3.2,3.51,3.51,0,0,1,2.72-1.26,3.25,3.25,0,0,1,2.7,1.12,4.58,4.58,0,0,1,.9,3v.86h-5.73l0,0a3.74,3.74,0,0,0,.6,2.2,2.08,2.08,0,0,0,1.82.84,4.1,4.1,0,0,0,1.46-.24,3.3,3.3,0,0,0,1.07-.65l.64,1.06a4,4,0,0,1-1.27.78A4.94,4.94,0,0,1,476.33,162.07Zm-.26-8a1.78,1.78,0,0,0-1.41.66,3.11,3.11,0,0,0-.68,1.69l0,0h4v-.13a2.62,2.62,0,0,0-.48-1.62A1.76,1.76,0,0,0,476.07,154.05Z"/><path d="M487,161.9c-.06-.27-.1-.51-.13-.72a4.32,4.32,0,0,1-.05-.62,3.87,3.87,0,0,1-1.19,1.08,3.05,3.05,0,0,1-1.58.43,3,3,0,0,1-2.13-.71,2.65,2.65,0,0,1-.74-2,2.32,2.32,0,0,1,1-2,4.91,4.91,0,0,1,2.82-.72h1.78v-.89a1.66,1.66,0,0,0-.48-1.25,1.93,1.93,0,0,0-1.36-.46,2,2,0,0,0-1.29.4,1.21,1.21,0,0,0-.49,1l-1.54,0,0,0a2.16,2.16,0,0,1,.91-1.79,3.81,3.81,0,0,1,2.52-.81,3.74,3.74,0,0,1,2.45.77,2.75,2.75,0,0,1,.93,2.24v4.31a7.06,7.06,0,0,0,.05.93,4.44,4.44,0,0,0,.18.88Zm-2.71-1.19a3,3,0,0,0,1.6-.46,2.22,2.22,0,0,0,.93-1v-1.46H485a2.37,2.37,0,0,0-1.58.49,1.5,1.5,0,0,0-.59,1.17,1.23,1.23,0,0,0,.37,1A1.56,1.56,0,0,0,484.3,160.71Z"/><path d="M495.07,154.38l-.84,0a1.91,1.91,0,0,0-1.09.3,2,2,0,0,0-.68.86v6.41h-1.63v-9h1.46l.15,1.3a3.22,3.22,0,0,1,.94-1.08,2.21,2.21,0,0,1,1.29-.39,2,2,0,0,1,.35,0l.27.06Z"/><path d="M500.17,160.8a2,2,0,0,0,1.32-.5,1.62,1.62,0,0,0,.56-1.23h1.48l0,0a2.58,2.58,0,0,1-1,2.06,3.8,3.8,0,0,1-5.3-.38,4.93,4.93,0,0,1-1-3.2v-.35a4.92,4.92,0,0,1,1-3.18,3.52,3.52,0,0,1,2.91-1.29,3.39,3.39,0,0,1,2.46.93,3,3,0,0,1,.92,2.28l0,0h-1.48a2,2,0,0,0-.53-1.39,1.79,1.79,0,0,0-1.35-.58,1.88,1.88,0,0,0-1.75.94,4.31,4.31,0,0,0-.55,2.25v.35a4.47,4.47,0,0,0,.54,2.28A1.88,1.88,0,0,0,500.17,160.8Z"/><path d="M507.12,154.14a3.33,3.33,0,0,1,1.14-1,3.14,3.14,0,0,1,1.5-.36,2.92,2.92,0,0,1,2.23.86,3.82,3.82,0,0,1,.8,2.65v5.62h-1.64v-5.63a2.38,2.38,0,0,0-.47-1.64,1.8,1.8,0,0,0-1.42-.54,2.68,2.68,0,0,0-1.27.29,2.31,2.31,0,0,0-.87.8v6.72h-1.63V149h1.63Z"/><path d="M297.73,171H296.1v-1.67h1.63Zm0,11.26H296.1v-9h1.63Z"/><path d="M301.7,173.29l.12,1.18a2.93,2.93,0,0,1,1.11-1,3.28,3.28,0,0,1,1.57-.35,2.75,2.75,0,0,1,1.54.41,2.53,2.53,0,0,1,1,1.24,3.44,3.44,0,0,1,1.12-1.21,2.89,2.89,0,0,1,1.62-.44,2.67,2.67,0,0,1,2.16.94,4.29,4.29,0,0,1,.8,2.83v5.36h-1.63v-5.38a3,3,0,0,0-.46-1.88,1.67,1.67,0,0,0-1.36-.55,1.75,1.75,0,0,0-1.35.58,2.51,2.51,0,0,0-.61,1.47v5.76h-1.64v-5.38a2.94,2.94,0,0,0-.47-1.84,1.62,1.62,0,0,0-1.34-.59,2.2,2.2,0,0,0-1.23.31,2,2,0,0,0-.74.86v6.64h-1.63v-9Z"/><path d="M322.71,178.11a4.92,4.92,0,0,1-.93,3.13,3.07,3.07,0,0,1-2.56,1.19,3.44,3.44,0,0,1-1.45-.28,2.7,2.7,0,0,1-1.07-.83v4.38h-1.63V173.29h1.25l.26,1.16a2.84,2.84,0,0,1,1.09-1,3.21,3.21,0,0,1,1.52-.34,3,3,0,0,1,2.59,1.32,5.93,5.93,0,0,1,.93,3.49Zm-1.64-.17a4.76,4.76,0,0,0-.6-2.51,2,2,0,0,0-1.76-1,2.25,2.25,0,0,0-1.21.32,2.35,2.35,0,0,0-.8.88V180a2.22,2.22,0,0,0,.8.86,2.26,2.26,0,0,0,1.22.31,2,2,0,0,0,1.76-.85,3.68,3.68,0,0,0,.59-2.19Z"/><path d="M329,174.73l-.83,0A1.89,1.89,0,0,0,327,175a2,2,0,0,0-.69.86v6.41h-1.63v-9h1.46l.16,1.31a3,3,0,0,1,.94-1.08,2.18,2.18,0,0,1,1.28-.39,1.9,1.9,0,0,1,.35,0l.28.06Z"/><path d="M330.1,177.69a5,5,0,0,1,1.08-3.28,4,4,0,0,1,5.87,0,4.93,4.93,0,0,1,1.08,3.28v.18a4.89,4.89,0,0,1-1.08,3.28,3.62,3.62,0,0,1-2.93,1.28,3.67,3.67,0,0,1-2.94-1.28,4.91,4.91,0,0,1-1.08-3.28Zm1.64.18a4.28,4.28,0,0,0,.6,2.36,2.17,2.17,0,0,0,3.55,0,4.2,4.2,0,0,0,.61-2.36v-.18a4.16,4.16,0,0,0-.61-2.34,2,2,0,0,0-1.79-.94,2,2,0,0,0-1.76.94,4.24,4.24,0,0,0-.6,2.34Z"/><path d="M343,179.61l.14.63h.05l.16-.63,2.06-6.32h1.67l-3.3,9h-1.23l-3.34-9h1.67Z"/><path d="M352.14,182.43a3.79,3.79,0,0,1-3-1.23,4.78,4.78,0,0,1-1.08-3.25v-.37a4.66,4.66,0,0,1,1.11-3.19,3.49,3.49,0,0,1,2.72-1.26,3.25,3.25,0,0,1,2.7,1.12,4.58,4.58,0,0,1,.9,3v.86h-5.74l0,0a3.68,3.68,0,0,0,.6,2.19,2.07,2.07,0,0,0,1.82.84,4,4,0,0,0,1.45-.23,3.26,3.26,0,0,0,1.07-.65l.64,1.06a3.82,3.82,0,0,1-1.27.78A5,5,0,0,1,352.14,182.43Zm-.26-8a1.76,1.76,0,0,0-1.41.66,3.11,3.11,0,0,0-.68,1.69v0h4v-.14a2.59,2.59,0,0,0-.48-1.61A1.72,1.72,0,0,0,351.88,174.41Z"/><path d="M356.93,177.94a6,6,0,0,1,.93-3.49,3,3,0,0,1,2.59-1.32,3.09,3.09,0,0,1,1.39.29,2.81,2.81,0,0,1,1,.84v-4.93h1.63v12.93h-1.25l-.25-1.14a2.89,2.89,0,0,1-1.08,1,3.25,3.25,0,0,1-1.5.33,3.09,3.09,0,0,1-2.57-1.19,4.92,4.92,0,0,1-.93-3.13Zm1.64.17a3.83,3.83,0,0,0,.55,2.18,1.94,1.94,0,0,0,1.72.81,2.17,2.17,0,0,0,1.23-.33,2.47,2.47,0,0,0,.81-.93v-4.18a2.55,2.55,0,0,0-.81-.88,2.17,2.17,0,0,0-1.21-.33,1.9,1.9,0,0,0-1.74,1,5.06,5.06,0,0,0-.55,2.52Z"/><path d="M373.46,179l.21,1.15h.05l.21-1.15,1.79-5.7H377l1.8,5.7.23,1.29h.05l.26-1.29,1.33-5.7h1.71l-2.61,9h-1.31l-1.78-5.46-.33-1.43h-.05L376,176.8l-1.74,5.46H373l-2.6-9h1.7Z"/><path d="M385.77,171h-1.63v-1.67h1.63Zm0,11.26h-1.63v-9h1.63Z"/><path d="M390.55,171.13v2.16h1.7v1.21h-1.7v5.44a1.2,1.2,0,0,0,.26.89.94.94,0,0,0,.69.26,1.2,1.2,0,0,0,.31,0,1.3,1.3,0,0,0,.29-.08l.23,1.12a1.36,1.36,0,0,1-.54.24,2.47,2.47,0,0,1-.7.1,2.13,2.13,0,0,1-1.59-.6,2.62,2.62,0,0,1-.58-1.89V174.5h-1.43v-1.21h1.43v-2.16Z"/><path d="M395.63,174.49a3.19,3.19,0,0,1,1.13-1,3.14,3.14,0,0,1,1.5-.36,2.87,2.87,0,0,1,2.23.86,3.75,3.75,0,0,1,.8,2.65v5.62h-1.63v-5.64a2.4,2.4,0,0,0-.48-1.64,1.81,1.81,0,0,0-1.42-.53,2.63,2.63,0,0,0-1.26.29,2.31,2.31,0,0,0-.87.8v6.72H394V169.33h1.64Z"/><path d="M410.12,171.13v2.16h1.7v1.21h-1.7v5.44a1.24,1.24,0,0,0,.26.89,1,1,0,0,0,.69.26,1.27,1.27,0,0,0,.32,0,1.48,1.48,0,0,0,.29-.08l.22,1.12a1.36,1.36,0,0,1-.54.24,2.42,2.42,0,0,1-.7.1,2.11,2.11,0,0,1-1.58-.6,2.63,2.63,0,0,1-.59-1.89V174.5h-1.43v-1.21h1.43v-2.16Z"/><path d="M417.28,182.43a3.79,3.79,0,0,1-3-1.23,4.78,4.78,0,0,1-1.08-3.25v-.37a4.66,4.66,0,0,1,1.11-3.19,3.49,3.49,0,0,1,2.72-1.26,3.25,3.25,0,0,1,2.7,1.12,4.58,4.58,0,0,1,.9,3v.86h-5.74l0,0a3.68,3.68,0,0,0,.6,2.19,2.07,2.07,0,0,0,1.82.84,4,4,0,0,0,1.45-.23,3.26,3.26,0,0,0,1.07-.65l.64,1.06a3.82,3.82,0,0,1-1.27.78A5,5,0,0,1,417.28,182.43Zm-.26-8a1.76,1.76,0,0,0-1.41.66,3.11,3.11,0,0,0-.68,1.69v0h4v-.14a2.59,2.59,0,0,0-.48-1.61A1.72,1.72,0,0,0,417,174.41Z"/><path d="M426,181.15a1.91,1.91,0,0,0,1.32-.5,1.59,1.59,0,0,0,.56-1.23h1.47l0,.05a2.57,2.57,0,0,1-1,2.06,3.5,3.5,0,0,1-2.38.9,3.55,3.55,0,0,1-2.92-1.28,5,5,0,0,1-1-3.2v-.35a4.94,4.94,0,0,1,1-3.19,3.53,3.53,0,0,1,2.91-1.28,3.38,3.38,0,0,1,2.45.92,3,3,0,0,1,.93,2.28l0,0h-1.48a2,2,0,0,0-.54-1.39,1.72,1.72,0,0,0-1.34-.58,1.88,1.88,0,0,0-1.75.93,4.35,4.35,0,0,0-.55,2.26V178a4.47,4.47,0,0,0,.54,2.28A1.89,1.89,0,0,0,426,181.15Z"/><path d="M433,174.49a3.3,3.3,0,0,1,1.14-1,3.13,3.13,0,0,1,1.49-.36,2.89,2.89,0,0,1,2.24.86,3.8,3.8,0,0,1,.79,2.65v5.62H437v-5.64a2.45,2.45,0,0,0-.47-1.64,1.83,1.83,0,0,0-1.42-.53,2.68,2.68,0,0,0-1.27.29,2.31,2.31,0,0,0-.87.8v6.72h-1.63V169.33H433Z"/><path d="M442.43,173.29l.11,1.34a3.21,3.21,0,0,1,1.12-1.11,3,3,0,0,1,1.54-.39,2.92,2.92,0,0,1,2.25.85,3.72,3.72,0,0,1,.79,2.62v5.66h-1.63v-5.63a2.43,2.43,0,0,0-.47-1.68,1.88,1.88,0,0,0-1.43-.5,2.55,2.55,0,0,0-1.28.3,2.26,2.26,0,0,0-.83.85v6.66H441v-9Z"/><path d="M452.38,171h-1.64v-1.67h1.64Zm0,11.26h-1.64v-9h1.64Z"/><path d="M458.45,181.15a1.87,1.87,0,0,0,1.31-.5,1.56,1.56,0,0,0,.57-1.23h1.47l0,.05a2.57,2.57,0,0,1-1,2.06,3.5,3.5,0,0,1-2.38.9,3.55,3.55,0,0,1-2.92-1.28,5,5,0,0,1-1-3.2v-.35a5,5,0,0,1,1-3.19,3.51,3.51,0,0,1,2.91-1.28,3.38,3.38,0,0,1,2.45.92,3,3,0,0,1,.93,2.28l0,0h-1.48a2,2,0,0,0-.54-1.39,1.72,1.72,0,0,0-1.34-.58,1.88,1.88,0,0,0-1.75.93,4.35,4.35,0,0,0-.56,2.26V178a4.47,4.47,0,0,0,.55,2.28A1.89,1.89,0,0,0,458.45,181.15Z"/><path d="M469.27,182.26c0-.28-.09-.51-.12-.72a4.48,4.48,0,0,1-.06-.63A3.76,3.76,0,0,1,467.9,182a3,3,0,0,1-1.58.44,2.92,2.92,0,0,1-2.13-.72,2.6,2.6,0,0,1-.73-2,2.32,2.32,0,0,1,1-2,4.86,4.86,0,0,1,2.82-.73h1.77v-.88a1.65,1.65,0,0,0-.48-1.25,1.87,1.87,0,0,0-1.36-.46,1.92,1.92,0,0,0-1.28.4,1.17,1.17,0,0,0-.49.95l-1.55,0,0-.05a2.17,2.17,0,0,1,.92-1.79,3.8,3.8,0,0,1,2.51-.81,3.75,3.75,0,0,1,2.46.77,2.77,2.77,0,0,1,.92,2.23v4.32c0,.32,0,.63,0,.93a6.54,6.54,0,0,0,.18.88Zm-2.71-1.2a2.9,2.9,0,0,0,1.6-.45,2.13,2.13,0,0,0,.93-1.05v-1.45h-1.83a2.39,2.39,0,0,0-1.58.49,1.5,1.5,0,0,0-.59,1.17,1.21,1.21,0,0,0,.37.94A1.53,1.53,0,0,0,466.56,181.06Z"/><path d="M474.86,182.26h-1.64V169.33h1.64Z"/><path d="M486.79,179.84a1.06,1.06,0,0,0-.41-.87,3.85,3.85,0,0,0-1.55-.6,6.54,6.54,0,0,1-2.43-1,1.92,1.92,0,0,1-.85-1.64,2.35,2.35,0,0,1,.93-1.87,3.65,3.65,0,0,1,2.42-.78,3.54,3.54,0,0,1,2.46.83,2.36,2.36,0,0,1,.91,1.93l0,.05h-1.56a1.43,1.43,0,0,0-.51-1.06,1.82,1.82,0,0,0-1.28-.47,1.84,1.84,0,0,0-1.29.39,1.2,1.2,0,0,0-.43.93,1,1,0,0,0,.37.82,4.15,4.15,0,0,0,1.52.53,6.47,6.47,0,0,1,2.5,1,2,2,0,0,1,.85,1.67,2.39,2.39,0,0,1-1,2,4,4,0,0,1-2.52.75,3.91,3.91,0,0,1-2.7-.87,2.49,2.49,0,0,1-.94-2l0-.05h1.56a1.49,1.49,0,0,0,.64,1.27,2.49,2.49,0,0,0,1.42.4,2.26,2.26,0,0,0,1.36-.36A1.13,1.13,0,0,0,486.79,179.84Z"/><path d="M496.14,180.93a3,3,0,0,1-1.08,1.11,3,3,0,0,1-1.53.39,2.87,2.87,0,0,1-2.29-.94,4.3,4.3,0,0,1-.82-2.91v-5.29h1.63v5.3a3.38,3.38,0,0,0,.42,2,1.62,1.62,0,0,0,1.32.53,2.65,2.65,0,0,0,1.44-.35,2.22,2.22,0,0,0,.86-1v-6.46h1.63v9h-1.47Z"/><path d="M507.73,178.11a5,5,0,0,1-.92,3.13,3.09,3.09,0,0,1-2.56,1.19,3.49,3.49,0,0,1-1.46-.28,2.74,2.74,0,0,1-1.06-.83v4.38H500.1V173.29h1.25l.25,1.16a2.94,2.94,0,0,1,1.1-1,3.19,3.19,0,0,1,1.52-.34,3,3,0,0,1,2.59,1.32,5.93,5.93,0,0,1,.92,3.49Zm-1.63-.17a4.76,4.76,0,0,0-.6-2.51,2,2,0,0,0-1.77-1,2.19,2.19,0,0,0-1.2.32,2.35,2.35,0,0,0-.8.88V180a2.15,2.15,0,0,0,2,1.17,2,2,0,0,0,1.76-.85,3.75,3.75,0,0,0,.59-2.19Z"/><path d="M517.38,178.11a4.92,4.92,0,0,1-.93,3.13,3.07,3.07,0,0,1-2.56,1.19,3.52,3.52,0,0,1-1.46-.28,2.74,2.74,0,0,1-1.06-.83v4.38h-1.63V173.29H511l.26,1.16a2.84,2.84,0,0,1,1.09-1,3.21,3.21,0,0,1,1.52-.34,3,3,0,0,1,2.59,1.32,5.93,5.93,0,0,1,.93,3.49Zm-1.64-.17a4.76,4.76,0,0,0-.6-2.51,2,2,0,0,0-1.77-1,2.24,2.24,0,0,0-1.2.32,2.35,2.35,0,0,0-.8.88V180a2.22,2.22,0,0,0,.8.86,2.26,2.26,0,0,0,1.22.31,2,2,0,0,0,1.76-.85,3.75,3.75,0,0,0,.59-2.19Z"/><path d="M519,177.69a5,5,0,0,1,1.08-3.28,3.61,3.61,0,0,1,2.92-1.28,3.65,3.65,0,0,1,2.94,1.28,4.88,4.88,0,0,1,1.09,3.28v.18a4.89,4.89,0,0,1-1.08,3.28,4,4,0,0,1-5.87,0,4.91,4.91,0,0,1-1.08-3.28Zm1.63.18a4.28,4.28,0,0,0,.6,2.36,2,2,0,0,0,1.79.92,2,2,0,0,0,1.77-.92,4.28,4.28,0,0,0,.6-2.36v-.18a4.16,4.16,0,0,0-.61-2.34,2.15,2.15,0,0,0-3.55,0,4.24,4.24,0,0,0-.6,2.34Z"/><path d="M533.26,174.73l-.83,0a1.89,1.89,0,0,0-1.09.31,2,2,0,0,0-.69.86v6.41H529v-9h1.46l.16,1.31a3,3,0,0,1,.94-1.08,2.19,2.19,0,0,1,1.29-.39,1.87,1.87,0,0,1,.34,0l.28.06Z"/><path d="M537.37,171.13v2.16h1.7v1.21h-1.7v5.44a1.24,1.24,0,0,0,.26.89,1,1,0,0,0,.69.26,1.27,1.27,0,0,0,.32,0,1.71,1.71,0,0,0,.29-.08l.22,1.12a1.36,1.36,0,0,1-.54.24,2.42,2.42,0,0,1-.7.1,2.11,2.11,0,0,1-1.58-.6,2.63,2.63,0,0,1-.59-1.89V174.5h-1.43v-1.21h1.43v-2.16Z"/><path d="M373.11,202.61v-7.75h-1.4v-1.21h1.4v-1.14a3.07,3.07,0,0,1,.75-2.21,2.77,2.77,0,0,1,2.09-.78,3.64,3.64,0,0,1,.57,0l.63.13-.2,1.24-.36-.06-.44,0a1.28,1.28,0,0,0-1.06.43,1.9,1.9,0,0,0-.35,1.23v1.14h1.63v1.21h-1.63v7.75Z"/><path d="M382.26,195.09l-.84-.05a1.84,1.84,0,0,0-1.09.31,1.9,1.9,0,0,0-.68.86v6.4H378v-9h1.45l.16,1.31a3.07,3.07,0,0,1,.94-1.09,2.19,2.19,0,0,1,1.29-.39,2,2,0,0,1,.35,0,1.31,1.31,0,0,1,.27.07Z"/><path d="M383.41,198.05a4.93,4.93,0,0,1,1.08-3.28,3.59,3.59,0,0,1,2.92-1.29,3.63,3.63,0,0,1,2.94,1.29,4.91,4.91,0,0,1,1.08,3.28v.18a4.89,4.89,0,0,1-1.07,3.28,4,4,0,0,1-5.87,0,4.93,4.93,0,0,1-1.08-3.28Zm1.63.18a4.25,4.25,0,0,0,.6,2.35,2.17,2.17,0,0,0,3.56,0,4.25,4.25,0,0,0,.6-2.35v-.18a4.21,4.21,0,0,0-.61-2.35,2.16,2.16,0,0,0-3.55,0,4.29,4.29,0,0,0-.6,2.35Z"/><path d="M394.89,193.65l.11,1.18a3,3,0,0,1,1.12-1,3.28,3.28,0,0,1,1.57-.36,2.72,2.72,0,0,1,1.53.42,2.5,2.5,0,0,1,1,1.24,3.35,3.35,0,0,1,1.12-1.21,2.9,2.9,0,0,1,1.62-.45,2.7,2.7,0,0,1,2.16.94,4.3,4.3,0,0,1,.8,2.83v5.36h-1.63v-5.37a2.94,2.94,0,0,0-.46-1.88,1.65,1.65,0,0,0-1.36-.55,1.71,1.71,0,0,0-1.35.58,2.49,2.49,0,0,0-.61,1.47v5.75h-1.64v-5.37a3,3,0,0,0-.47-1.85,1.61,1.61,0,0,0-1.34-.58,2.2,2.2,0,0,0-1.23.31,2,2,0,0,0-.74.86v6.63h-1.63v-9Z"/><path d="M414.74,191.49v2.16h1.7v1.21h-1.7v5.44a1.24,1.24,0,0,0,.26.89,1,1,0,0,0,.7.25l.31,0,.29-.08.22,1.12a1.38,1.38,0,0,1-.53.24,3,3,0,0,1-.71.1,2.11,2.11,0,0,1-1.58-.6,2.63,2.63,0,0,1-.59-1.89v-5.44h-1.42v-1.21h1.42v-2.16Z"/><path d="M419.82,194.85a3.33,3.33,0,0,1,1.14-1,3.14,3.14,0,0,1,1.5-.36,2.88,2.88,0,0,1,2.23.87,3.78,3.78,0,0,1,.8,2.65v5.61h-1.63V197a2.38,2.38,0,0,0-.48-1.64,1.83,1.83,0,0,0-1.42-.53,2.56,2.56,0,0,0-1.27.29,2.28,2.28,0,0,0-.87.79v6.72h-1.63V189.69h1.63Z"/><path d="M431.54,202.79a3.78,3.78,0,0,1-3-1.24,4.73,4.73,0,0,1-1.08-3.24v-.37a4.6,4.6,0,0,1,1.12-3.19,3.49,3.49,0,0,1,2.72-1.27A3.27,3.27,0,0,1,434,194.6a4.62,4.62,0,0,1,.9,3v.86h-5.73l0,0a3.68,3.68,0,0,0,.6,2.19,2.09,2.09,0,0,0,1.82.84,4.06,4.06,0,0,0,1.46-.24,3.14,3.14,0,0,0,1.07-.65l.64,1.06a4.11,4.11,0,0,1-1.27.79A5.14,5.14,0,0,1,431.54,202.79Zm-.25-8a1.8,1.8,0,0,0-1.42.66,3.11,3.11,0,0,0-.68,1.68l0,0h4V197a2.59,2.59,0,0,0-.48-1.61A1.73,1.73,0,0,0,431.29,194.77Z"/><path d="M450.05,190.55v8a3.9,3.9,0,0,1-1.29,3.11,5,5,0,0,1-3.33,1.12,4.65,4.65,0,0,1-3.22-1.13,4,4,0,0,1-1.25-3.1v-8h1.63v8a3,3,0,0,0,.79,2.17,2.8,2.8,0,0,0,2.05.78,3,3,0,0,0,2.15-.78,2.82,2.82,0,0,0,.84-2.17v-8Z"/><path d="M461.75,202.61h-1.63l-5.81-9.21-.05,0v9.19h-1.63V190.55h1.63l5.81,9.2h.05v-9.19h1.63Z"/><rect class="cls-2" x="45.06" y="44.15" width="161.7" height="161.7" transform="translate(125.64 -52.42) rotate(45.12)"/><g class="cls-3"><path class="cls-4" d="M125.7,227.71,23.2,124.79,126.13,22.29,228.62,125.21ZM26.38,124.79l99.32,99.74,99.74-99.32L126.12,25.47Zm99.34,89.87-34.2-34.35,26.27-26.16L92.43,128.68l-18.08,18,11.89,11.94,5-4.93-7-7,8.17-8.14,15.51,15.57L86.59,175.36l-29.9-30L77.21,124.9,56.77,104.38l30-29.91L108,95.8,92.46,111.3l-8.14-8.17,7-7-4.93-4.94L74.45,103.1l18,18.08,25.47-25.36L91.75,69.55,126.1,35.34l34.2,34.35L134,95.85l25.36,25.47,18.07-18L165.58,91.38l-5,4.93,7,7-8.18,8.14L143.91,95.87l21.32-21.23,29.91,30L174.62,125.1l20.43,20.52-30,29.91L143.79,154.2l15.57-15.5,8.15,8.17-7,7,4.93,4.94,11.94-11.89-18-18.07-25.46,25.36,26.15,26.27Zm-31-34.34,31,31.17,31.17-31-26.16-26.27,28.65-28.53,21.16,21.25L165.43,162l-8.09-8.13,7-7-5-5L147,154.21,165,172.35l26.85-26.73-20.44-20.53L192,104.66,165.22,77.81,147.08,95.88l12.35,12.39,5-5-7-7,8.13-8.09,15,15.12-21.25,21.16L130.86,95.84l26.27-26.16-31-31.17-31.17,31,26.16,26.27L92.43,124.35,71.27,103.1,86.39,88l8.09,8.13-7,7,5,5,12.39-12.34L86.79,77.65,59.94,104.38l20.44,20.53L59.86,145.34,86.6,172.19l18.14-18.07L92.4,141.73l-5,5,7,7-8.12,8.09L71.18,146.67l21.25-21.16L121,154.16ZM200,140.7l-15.51-15.58,15.57-15.51,15.51,15.58Zm-12.34-15.57L200,137.52l12.4-12.34-12.34-12.39ZM51.76,140.39,36.25,124.81,51.82,109.3l15.51,15.58ZM39.42,124.82l12.35,12.39,12.39-12.34L51.82,112.48Z"/><path class="cls-4" d="M125.75,204.07l-24-24.1,24.1-24,24,24.1ZM104.92,180l20.83,20.92,20.92-20.83-20.83-20.92Z"/><path class="cls-4" d="M126,93.36l-24-24.1,24.1-24,24,24.1ZM105.15,69.27,126,90.19,146.9,69.35,126.07,48.44Z"/></g><path class="cls-4" d="M79.9,118.17a2.36,2.36,0,0,1,2.51-1.44c7.25,0,14.5,0,21.74,0h1.15v-3.85s-.1-.08-.15-.08c-2.38-.16-2.85-.65-2.85-3,0-.81,0-1.62,0-2.42a2,2,0,0,1,1.16-2c6.73-3.83,13.44-7.72,20.17-11.55a1.65,1.65,0,0,0,1-1.69c0-3.11,0-6.23,0-9.34,0-1.57.41-2,2-2,2.88,0,5.75,0,8.63,0a1.74,1.74,0,0,1,1.75.84,1.59,1.59,0,0,1-.23,1.92,2.21,2.21,0,0,0-.08,3.24,2.65,2.65,0,0,1,.3.55,1.58,1.58,0,0,1-1.5,2.46c-2.4,0-4.79,0-7.19,0-.75,0-.88.24-1,1-.23,1.82.43,2.84,2.1,3.75,6.4,3.52,12.68,7.24,19,10.85a2,2,0,0,1,1.19,2c-.06,1,0,2,0,3,0,1.76-.68,2.42-2.45,2.47l-.57,0v3.91h22.87c2,0,2.56.61,2.56,2.59v1.53c0,2.08-.27,2.43-2.3,2.89v28c2.06.51,2.3.82,2.3,3,0,.69,0,1.38,0,2.07a1.91,1.91,0,0,1-1.87,2c-.21,0-.42,0-.63,0h-87a2.43,2.43,0,0,1-2.54-1.42v-4.13a2.48,2.48,0,0,1,2.31-1.46v-28.1a2.31,2.31,0,0,1-2.31-1.36Zm59.2-5.32H112.74v38.9H117V136c-.47,0-.86,0-1.25,0a1.34,1.34,0,1,1,0-2.68c.21,0,.42,0,.63,0h19c.21,0,.42,0,.63,0a1.37,1.37,0,0,1,1.4,1.34A1.35,1.35,0,0,1,136,136c-.41,0-.82,0-1.27,0v15.8h4.35Zm-33.78,10.8H93.61c-1.37,0-2-.46-2-1.37s.68-1.33,2.06-1.33h10.6c.35,0,.69,0,1.07,0v-1.42H82.66V121c1.35,0,2.64,0,3.93,0A1.3,1.3,0,0,1,88,122.36c0,.77-.53,1.22-1.45,1.28-.52,0-1,0-1.54,0v28.14h20.3Zm63.86-4.14H146.51V121c.85,0,1.63,0,2.4,0,.4,0,.94,0,1.17.29a1.28,1.28,0,0,1-.68,2.33,20.15,20.15,0,0,1-2.91,0v28.16h20.33V123.65h-1.1c-3.29,0-6.58,0-9.88,0-1,0-1.56-.53-1.55-1.36s.54-1.26,1.51-1.32c.26,0,.53,0,.8,0h12.58Zm-26.29-14.1c-.28-.2-.36-.28-.46-.34q-8-4.59-15.94-9.18a1.11,1.11,0,0,0-1.3.09l-15.48,8.91c-.22.12-.42.27-.8.52ZM82.64,156h86.51v-1.44H82.64Zm64.13-47.81H105.06V110h41.71Zm-22.26,43.58V136.05h-4.63v15.74Zm7.44,0V136h-4.63v15.76Zm-22,0v-39h-1.77v39Zm33.77,0v-39H141.9v39ZM127.32,83.53V87h6.37c-.83-1.17-1.28-2.28-.17-3.5Z"/><path class="cls-4" d="M125.94,116.74h8.63c1.66,0,2.27.61,2.27,2.29,0,1.88,0,3.77,0,5.66,0,1.56-.62,2.21-2.16,2.21H117.15c-1.55,0-2.17-.65-2.18-2.2,0-1.91,0-3.83,0-5.75,0-1.59.65-2.21,2.26-2.21Zm-8.23,7.39H134.1v-4.64H117.71Z"/><path class="cls-4" d="M95.09,135.8c-2,0-3.89,0-5.84,0a2.09,2.09,0,0,1-2.38-2.36c0-1.31,0-2.63,0-4A2,2,0,0,1,89,127.24q6.06-.08,12.11,0a2,2,0,0,1,2.13,2.26c0,1.32,0,2.63,0,4a2.09,2.09,0,0,1-2.33,2.33C99,135.81,97,135.8,95.09,135.8ZM89.6,133h10.89v-3H89.6Z"/><path class="cls-4" d="M95.07,139.89h5.66c1.77,0,2.52.75,2.53,2.5,0,1.22,0,2.45,0,3.67a2.09,2.09,0,0,1-2.3,2.37q-5.92,0-11.84,0a2,2,0,0,1-2.25-2.31c0-1.32,0-2.63,0-4a2.05,2.05,0,0,1,2.28-2.28C91.13,139.87,93.1,139.89,95.07,139.89Zm-5.47,5.77h10.91v-3H89.6Z"/><path class="cls-4" d="M156.71,135.8h-5.66c-1.7,0-2.48-.77-2.49-2.45,0-1.26,0-2.51,0-3.77a2.08,2.08,0,0,1,2.24-2.35q6-.06,11.93,0a2,2,0,0,1,2.21,2.27c0,1.35,0,2.7,0,4a2.06,2.06,0,0,1-2.31,2.25C160.65,135.81,158.68,135.8,156.71,135.8Zm5.5-5.81H151.32v3h10.89Z"/><path class="cls-4" d="M156.74,148.44h-5.47c-2,0-2.71-.69-2.71-2.68,0-1.17,0-2.33,0-3.5a2.09,2.09,0,0,1,2.3-2.37q5.91,0,11.84,0a2,2,0,0,1,2.24,2.23c0,1.34,0,2.69,0,4a2,2,0,0,1-2.28,2.28C160.69,148.46,158.71,148.44,156.74,148.44Zm-5.46-2.76h10.9v-3h-10.9Z"/></svg>