<svg id="Layer_1" data-name="Layer 1" xmlns="http://www.w3.org/2000/svg" viewBox="0 0 654 250"><defs><style>.cls-1{fill:#f26e25;}.cls-2{opacity:0.15;}.cls-3{fill:#fff;}.cls-4{fill:none;stroke:#f26e25;stroke-miterlimit:10;stroke-width:2.61px;}</style></defs><path d="M314.08,152.2c-.05-.27-.1-.51-.13-.72s0-.41-.05-.62a3.76,3.76,0,0,1-1.19,1.08,3,3,0,0,1-1.57.43,3,3,0,0,1-2.14-.71,2.68,2.68,0,0,1-.73-2,2.31,2.31,0,0,1,1-2,4.79,4.79,0,0,1,2.82-.73h1.77v-.88a1.65,1.65,0,0,0-.48-1.25,1.87,1.87,0,0,0-1.36-.46,1.94,1.94,0,0,0-1.28.4,1.17,1.17,0,0,0-.49,1l-1.55,0v0a2.13,2.13,0,0,1,.91-1.79,3.8,3.8,0,0,1,2.51-.81,3.71,3.71,0,0,1,2.45.77,2.74,2.74,0,0,1,.93,2.23v4.31c0,.32,0,.63.05.93a4.44,4.44,0,0,0,.18.88Zm-2.7-1.19a2.9,2.9,0,0,0,1.59-.46,2.11,2.11,0,0,0,.93-1v-1.46h-1.83a2.39,2.39,0,0,0-1.58.5,1.5,1.5,0,0,0-.59,1.17,1.23,1.23,0,0,0,.38.94A1.54,1.54,0,0,0,311.38,151Z"/><path d="M322.13,144.68l-.83-.05a1.81,1.81,0,0,0-1.77,1.17v6.4H317.9v-9h1.45l.16,1.31a3.12,3.12,0,0,1,.94-1.08,2.19,2.19,0,0,1,1.29-.39,1.87,1.87,0,0,1,.34,0l.28.06Z"/><path d="M327.38,152.37a3.79,3.79,0,0,1-3-1.23,4.74,4.74,0,0,1-1.08-3.25v-.36a4.6,4.6,0,0,1,1.12-3.19,3.47,3.47,0,0,1,2.71-1.26,3.25,3.25,0,0,1,2.7,1.12,4.58,4.58,0,0,1,.9,3V148H325l0,0a3.68,3.68,0,0,0,.6,2.19,2.08,2.08,0,0,0,1.82.84,4,4,0,0,0,1.45-.24,3.1,3.1,0,0,0,1.07-.65l.64,1.06a3.87,3.87,0,0,1-1.26.78A4.94,4.94,0,0,1,327.38,152.37Zm-.26-8a1.78,1.78,0,0,0-1.41.66,3.11,3.11,0,0,0-.68,1.68l0,0h4v-.13a2.53,2.53,0,0,0-.49-1.61A1.71,1.71,0,0,0,327.12,144.36Z"/><path d="M338.21,143.24l.12,1.34a3.21,3.21,0,0,1,1.12-1.11,3,3,0,0,1,1.53-.39,2.92,2.92,0,0,1,2.25.85,3.72,3.72,0,0,1,.79,2.62v5.65h-1.63v-5.62a2.38,2.38,0,0,0-.47-1.68,1.86,1.86,0,0,0-1.42-.5,2.53,2.53,0,0,0-1.28.3,2.26,2.26,0,0,0-.83.85v6.65h-1.63v-9Z"/><path d="M346,147.64a4.93,4.93,0,0,1,1.07-3.27,3.61,3.61,0,0,1,2.92-1.29,3.66,3.66,0,0,1,2.95,1.28,4.93,4.93,0,0,1,1.08,3.28v.18A4.89,4.89,0,0,1,353,151.1a4,4,0,0,1-5.86,0,4.88,4.88,0,0,1-1.08-3.27Zm1.63.18a4.25,4.25,0,0,0,.6,2.35,2.16,2.16,0,0,0,3.55,0,4.17,4.17,0,0,0,.61-2.35v-.18a4.24,4.24,0,0,0-.61-2.34,2,2,0,0,0-1.79-.94,2,2,0,0,0-1.76.94,4.24,4.24,0,0,0-.6,2.34Z"/><path d="M358.31,148.94l.21,1.15h.05l.22-1.15,1.78-5.7h1.31l1.8,5.7.23,1.28h0l.26-1.28,1.33-5.7h1.7l-2.6,9h-1.31l-1.77-5.46-.34-1.42h-.05l-.32,1.42-1.74,5.46h-1.31l-2.6-9h1.7Z"/><path d="M378.75,150.87a3.14,3.14,0,0,1-1.09,1.11,3,3,0,0,1-1.53.39,2.86,2.86,0,0,1-2.28-.93,4.35,4.35,0,0,1-.82-2.92v-5.28h1.63v5.3a3.36,3.36,0,0,0,.42,2,1.57,1.57,0,0,0,1.32.54,2.73,2.73,0,0,0,1.43-.35,2.28,2.28,0,0,0,.86-1v-6.46h1.63v9h-1.47Z"/><path d="M387.9,149.79a1.1,1.1,0,0,0-.41-.88,4,4,0,0,0-1.55-.59,6.46,6.46,0,0,1-2.43-1,1.89,1.89,0,0,1-.85-1.63,2.35,2.35,0,0,1,.93-1.87,3.64,3.64,0,0,1,2.41-.78,3.57,3.57,0,0,1,2.47.83,2.35,2.35,0,0,1,.9,1.92l0,0H387.8a1.43,1.43,0,0,0-.51-1,2.14,2.14,0,0,0-2.57-.08,1.2,1.2,0,0,0-.43.93,1,1,0,0,0,.37.82,4.08,4.08,0,0,0,1.52.53,6.54,6.54,0,0,1,2.5,1,2,2,0,0,1,.85,1.66,2.34,2.34,0,0,1-1,2,4,4,0,0,1-2.52.75,3.9,3.9,0,0,1-2.69-.87,2.48,2.48,0,0,1-.94-2l0,0H384a1.54,1.54,0,0,0,.65,1.27,2.53,2.53,0,0,0,1.41.4,2.3,2.3,0,0,0,1.37-.37A1.15,1.15,0,0,0,387.9,149.79Z"/><path d="M393.32,141h-1.63v-1.66h1.63Zm0,11.25h-1.63v-9h1.63Z"/><path d="M397.28,143.24l.12,1.34a3.21,3.21,0,0,1,1.12-1.11,3,3,0,0,1,1.53-.39,2.92,2.92,0,0,1,2.25.85,3.72,3.72,0,0,1,.79,2.62v5.65h-1.63v-5.62a2.38,2.38,0,0,0-.47-1.68,1.86,1.86,0,0,0-1.42-.5,2.53,2.53,0,0,0-1.28.3,2.26,2.26,0,0,0-.83.85v6.65h-1.63v-9Z"/><path d="M405.17,147.89a6,6,0,0,1,.92-3.49,3,3,0,0,1,2.58-1.32,3.13,3.13,0,0,1,1.5.34,3,3,0,0,1,1.08,1l.2-1.17h1.3v9a3.4,3.4,0,0,1-1,2.64,4.1,4.1,0,0,1-2.89.92,6.5,6.5,0,0,1-1.39-.17,5.25,5.25,0,0,1-1.32-.49l.24-1.26a5.05,5.05,0,0,0,1.14.4,6,6,0,0,0,1.31.15,2.39,2.39,0,0,0,1.74-.54,2.25,2.25,0,0,0,.54-1.65v-1a2.86,2.86,0,0,1-1.05.85,3.33,3.33,0,0,1-1.42.29,3,3,0,0,1-2.56-1.19,5,5,0,0,1-.92-3.12Zm1.63.17a3.82,3.82,0,0,0,.55,2.17,1.94,1.94,0,0,0,1.72.82,2.1,2.1,0,0,0,1.23-.34,2.57,2.57,0,0,0,.82-1v-4.12a2.46,2.46,0,0,0-.82-.9,2.11,2.11,0,0,0-1.22-.34,1.85,1.85,0,0,0-1.72,1,5,5,0,0,0-.56,2.52Z"/><path d="M428.41,140.15v8a3.88,3.88,0,0,1-1.29,3.1,4.87,4.87,0,0,1-3.32,1.12,4.6,4.6,0,0,1-3.21-1.12,3.93,3.93,0,0,1-1.25-3.1v-8H421v8a2.89,2.89,0,0,0,.79,2.16,2.73,2.73,0,0,0,2,.79,3,3,0,0,0,2.15-.79,2.8,2.8,0,0,0,.83-2.16v-8Z"/><path d="M440.11,152.2h-1.63l-5.8-9.2h-.05v9.19H431v-12h1.63l5.8,9.19h.05v-9.18h1.63Z"/><path d="M447.79,147.75h-4.88v-1.28h4.88Z"/><path d="M455.55,149.79a1.1,1.1,0,0,0-.41-.88,4,4,0,0,0-1.55-.59,6.61,6.61,0,0,1-2.43-1,1.89,1.89,0,0,1-.85-1.63,2.35,2.35,0,0,1,.93-1.87,3.64,3.64,0,0,1,2.41-.78,3.57,3.57,0,0,1,2.47.83,2.35,2.35,0,0,1,.9,1.92v0h-1.56a1.43,1.43,0,0,0-.51-1,2.14,2.14,0,0,0-2.57-.08,1.2,1.2,0,0,0-.43.93,1,1,0,0,0,.37.82,4.15,4.15,0,0,0,1.52.53,6.47,6.47,0,0,1,2.5,1,2,2,0,0,1,.85,1.66,2.36,2.36,0,0,1-1,2,4,4,0,0,1-2.52.75,3.93,3.93,0,0,1-2.7-.87,2.48,2.48,0,0,1-.94-2l0,0h1.56a1.51,1.51,0,0,0,.64,1.27,2.57,2.57,0,0,0,1.42.4,2.26,2.26,0,0,0,1.36-.37A1.13,1.13,0,0,0,455.55,149.79Z"/><path d="M464.89,150.87a3,3,0,0,1-1.08,1.11,3,3,0,0,1-1.53.39,2.9,2.9,0,0,1-2.29-.93,4.41,4.41,0,0,1-.82-2.92v-5.28h1.64v5.3a3.36,3.36,0,0,0,.42,2,1.56,1.56,0,0,0,1.31.54,2.74,2.74,0,0,0,1.44-.35,2.28,2.28,0,0,0,.86-1v-6.46h1.63v9H465Z"/><path d="M476.47,148.06a4.91,4.91,0,0,1-.93,3.12,3,3,0,0,1-2.55,1.19,3.49,3.49,0,0,1-1.46-.28,2.74,2.74,0,0,1-1.06-.83v4.38h-1.63v-12.4h1.25l.26,1.16a2.84,2.84,0,0,1,1.09-1,3.19,3.19,0,0,1,1.52-.34,3,3,0,0,1,2.59,1.32,6,6,0,0,1,.92,3.49Zm-1.63-.17a4.76,4.76,0,0,0-.6-2.51,2,2,0,0,0-1.77-1,2.19,2.19,0,0,0-1.2.32,2.32,2.32,0,0,0-.8.87v4.33a2.14,2.14,0,0,0,2,1.18,2,2,0,0,0,1.75-.85,3.73,3.73,0,0,0,.6-2.19Z"/><path d="M486.1,148.06a5,5,0,0,1-.92,3.12,3,3,0,0,1-2.56,1.19,3.44,3.44,0,0,1-1.45-.28,2.77,2.77,0,0,1-1.07-.83v4.38h-1.63v-12.4h1.25l.26,1.16a2.91,2.91,0,0,1,1.09-1,3.24,3.24,0,0,1,1.52-.34,3,3,0,0,1,2.59,1.32,5.93,5.93,0,0,1,.92,3.49Zm-1.63-.17a4.76,4.76,0,0,0-.6-2.51,2,2,0,0,0-1.76-1,2.19,2.19,0,0,0-1.2.32,2.34,2.34,0,0,0-.81.87v4.33a2.34,2.34,0,0,0,.81.87,2.29,2.29,0,0,0,1.21.31,2,2,0,0,0,1.76-.85,3.8,3.8,0,0,0,.59-2.19Z"/><path d="M487.72,147.64a4.88,4.88,0,0,1,1.08-3.27,3.61,3.61,0,0,1,2.92-1.29,3.65,3.65,0,0,1,2.94,1.28,4.93,4.93,0,0,1,1.08,3.28v.18a4.89,4.89,0,0,1-1.07,3.28,4,4,0,0,1-5.87,0,4.94,4.94,0,0,1-1.08-3.27Zm1.64.18a4.17,4.17,0,0,0,.6,2.35,2.16,2.16,0,0,0,3.55,0,4.25,4.25,0,0,0,.6-2.35v-.18a4.24,4.24,0,0,0-.6-2.34,2,2,0,0,0-1.79-.94,1.93,1.93,0,0,0-1.76.94,4.15,4.15,0,0,0-.6,2.34Z"/><path d="M502,144.68l-.84-.05a1.92,1.92,0,0,0-1.09.31,2,2,0,0,0-.68.86v6.4h-1.63v-9h1.46l.15,1.31a3.22,3.22,0,0,1,.94-1.08,2.19,2.19,0,0,1,1.29-.39,2,2,0,0,1,.35,0l.27.06Z"/><path d="M506.08,141.08v2.16h1.7v1.21h-1.7v5.44a1.22,1.22,0,0,0,.26.88.9.9,0,0,0,.69.26,1.27,1.27,0,0,0,.32,0l.29-.07.22,1.11a1.51,1.51,0,0,1-.54.25,2.86,2.86,0,0,1-.7.09,2.11,2.11,0,0,1-1.58-.6,2.61,2.61,0,0,1-.59-1.88v-5.44H503v-1.21h1.42v-2.16Z"/><path d="M513.23,152.37a3.79,3.79,0,0,1-3-1.23,4.74,4.74,0,0,1-1.08-3.25v-.36a4.6,4.6,0,0,1,1.12-3.19,3.47,3.47,0,0,1,2.71-1.26,3.25,3.25,0,0,1,2.7,1.12,4.57,4.57,0,0,1,.89,3V148h-5.72l0,0a3.68,3.68,0,0,0,.6,2.19,2.08,2.08,0,0,0,1.82.84,4,4,0,0,0,1.45-.24,3.1,3.1,0,0,0,1.07-.65l.64,1.06a3.87,3.87,0,0,1-1.26.78A4.94,4.94,0,0,1,513.23,152.37Zm-.26-8a1.78,1.78,0,0,0-1.41.66,3.11,3.11,0,0,0-.68,1.68l0,0h4v-.13a2.59,2.59,0,0,0-.49-1.61A1.71,1.71,0,0,0,513,144.36Z"/><path d="M518,147.89a6,6,0,0,1,.92-3.49,3,3,0,0,1,2.59-1.32,3.16,3.16,0,0,1,1.4.29,2.77,2.77,0,0,1,1,.84v-4.92h1.63V152.2h-1.25l-.24-1.14a3,3,0,0,1-1.09,1,3.25,3.25,0,0,1-1.5.33,3,3,0,0,1-2.56-1.19,4.91,4.91,0,0,1-.93-3.12Zm1.63.17a3.79,3.79,0,0,0,.56,2.17,1.92,1.92,0,0,0,1.72.82,2.16,2.16,0,0,0,1.22-.33,2.47,2.47,0,0,0,.81-.93v-4.18a2.55,2.55,0,0,0-.81-.88,2.17,2.17,0,0,0-1.21-.33,1.85,1.85,0,0,0-1.73,1,5,5,0,0,0-.56,2.52Z"/><path d="M313.7,168.22a6,6,0,0,1,.92-3.48,3,3,0,0,1,2.59-1.32,3.09,3.09,0,0,1,1.39.29,2.73,2.73,0,0,1,1,.84v-4.92h1.63v12.91H320l-.25-1.14a2.89,2.89,0,0,1-1.08,1,3.25,3.25,0,0,1-1.5.33,3.07,3.07,0,0,1-2.56-1.19,4.91,4.91,0,0,1-.93-3.12Zm1.63.18a3.79,3.79,0,0,0,.56,2.17,1.92,1.92,0,0,0,1.72.81,2.16,2.16,0,0,0,1.22-.33,2.51,2.51,0,0,0,.81-.92V166a2.46,2.46,0,0,0-.81-.88,2.17,2.17,0,0,0-1.21-.33,1.85,1.85,0,0,0-1.73,1,5,5,0,0,0-.56,2.51Z"/><path d="M325.47,161.29h-1.63v-1.66h1.63Zm0,11.25h-1.63v-9h1.63Z"/><path d="M327.69,168.22a5.92,5.92,0,0,1,.92-3.48,3,3,0,0,1,2.58-1.32,3.16,3.16,0,0,1,1.5.34,3,3,0,0,1,1.08,1l.2-1.17h1.3v9a3.45,3.45,0,0,1-1,2.64,4.14,4.14,0,0,1-2.89.92A6,6,0,0,1,330,176a5.25,5.25,0,0,1-1.32-.48l.25-1.27a4.46,4.46,0,0,0,1.14.4,5.4,5.4,0,0,0,1.31.16,2.36,2.36,0,0,0,1.73-.54,2.24,2.24,0,0,0,.55-1.65v-1a3,3,0,0,1-1.05.85,3.33,3.33,0,0,1-1.42.29,3.06,3.06,0,0,1-2.56-1.19,4.91,4.91,0,0,1-.92-3.12Zm1.63.18a3.82,3.82,0,0,0,.55,2.17,1.93,1.93,0,0,0,1.71.81,2.18,2.18,0,0,0,1.24-.33,2.57,2.57,0,0,0,.82-1V166a2.67,2.67,0,0,0-.82-.91,2.18,2.18,0,0,0-1.22-.33,1.84,1.84,0,0,0-1.72,1,4.89,4.89,0,0,0-.56,2.51Z"/><path d="M339.37,161.29h-1.63v-1.66h1.63Zm0,11.25h-1.63v-9h1.63Z"/><path d="M344.15,161.42v2.16h1.69v1.21h-1.69v5.44a1.17,1.17,0,0,0,.26.88.94.94,0,0,0,.69.26,1.2,1.2,0,0,0,.31,0,1.48,1.48,0,0,0,.29-.08l.23,1.12a1.51,1.51,0,0,1-.54.24,2.48,2.48,0,0,1-.71.1,2.13,2.13,0,0,1-1.58-.6,2.61,2.61,0,0,1-.58-1.88v-5.44h-1.43v-1.21h1.43v-2.16Z"/><path d="M353.09,172.54c0-.27-.1-.51-.13-.72s0-.42,0-.63a3.54,3.54,0,0,1-1.19,1.08,3,3,0,0,1-1.57.44A2.89,2.89,0,0,1,348,172a2.61,2.61,0,0,1-.74-2,2.33,2.33,0,0,1,1-2,4.87,4.87,0,0,1,2.82-.72h1.77v-.89a1.63,1.63,0,0,0-.48-1.24,1.87,1.87,0,0,0-1.36-.46,1.94,1.94,0,0,0-1.28.4,1.17,1.17,0,0,0-.49,1h-1.55V166a2.12,2.12,0,0,1,.91-1.78,3.8,3.8,0,0,1,2.51-.81,3.65,3.65,0,0,1,2.45.77,2.74,2.74,0,0,1,.93,2.23v4.31c0,.32,0,.63,0,.93a4.44,4.44,0,0,0,.18.88Zm-2.7-1.2a2.89,2.89,0,0,0,1.59-.45,2.11,2.11,0,0,0,.93-1v-1.46h-1.83a2.34,2.34,0,0,0-1.58.5,1.49,1.49,0,0,0-.59,1.16,1.25,1.25,0,0,0,.38.95A1.54,1.54,0,0,0,350.39,171.34Z"/><path d="M358.67,172.54H357V159.63h1.63Z"/><path d="M373,168.4a4.91,4.91,0,0,1-.93,3.12,3.07,3.07,0,0,1-2.55,1.19,3.49,3.49,0,0,1-1.46-.28,2.74,2.74,0,0,1-1.06-.83V176h-1.63v-12.4h1.25l.26,1.16a2.84,2.84,0,0,1,1.09-1,3.19,3.19,0,0,1,1.52-.34,3,3,0,0,1,2.59,1.32,6,6,0,0,1,.92,3.48Zm-1.63-.18a4.72,4.72,0,0,0-.6-2.5,2,2,0,0,0-1.77-1,2.19,2.19,0,0,0-1.2.32,2.32,2.32,0,0,0-.8.87v4.33a2.15,2.15,0,0,0,2,1.17,2,2,0,0,0,1.75-.84,3.73,3.73,0,0,0,.6-2.19Z"/><path d="M376.78,172.54h-1.63V159.63h1.63Z"/><path d="M384.79,172.54q-.07-.4-.12-.72t-.06-.63a3.6,3.6,0,0,1-1.18,1.08,3.06,3.06,0,0,1-1.58.44,2.92,2.92,0,0,1-2.13-.72,2.6,2.6,0,0,1-.73-2,2.32,2.32,0,0,1,1-2,4.91,4.91,0,0,1,2.82-.72h1.77v-.89a1.63,1.63,0,0,0-.48-1.24,1.86,1.86,0,0,0-1.35-.46,2,2,0,0,0-1.29.4,1.2,1.2,0,0,0-.49,1h-1.54l0-.05a2.13,2.13,0,0,1,.92-1.78,3.77,3.77,0,0,1,2.51-.81,3.69,3.69,0,0,1,2.45.77,2.77,2.77,0,0,1,.92,2.23v4.31c0,.32,0,.63.05.93a6.54,6.54,0,0,0,.18.88Zm-2.7-1.2a3,3,0,0,0,1.6-.45,2.14,2.14,0,0,0,.92-1v-1.46h-1.83a2.31,2.31,0,0,0-1.57.5,1.46,1.46,0,0,0-.59,1.16,1.24,1.24,0,0,0,.37.95A1.56,1.56,0,0,0,382.09,171.34Z"/><path d="M390.88,161.42v2.16h1.69v1.21h-1.69v5.44a1.17,1.17,0,0,0,.26.88.94.94,0,0,0,.69.26,1.2,1.2,0,0,0,.31,0,1.3,1.3,0,0,0,.29-.08l.23,1.12a1.36,1.36,0,0,1-.54.24,2.47,2.47,0,0,1-.7.1,2.1,2.1,0,0,1-1.58-.6,2.57,2.57,0,0,1-.59-1.88v-5.44h-1.43v-1.21h1.43v-2.16Z"/><path d="M395,172.54v-7.75h-1.4v-1.21H395v-1.13a3.09,3.09,0,0,1,.75-2.22,2.75,2.75,0,0,1,2.09-.78,3.64,3.64,0,0,1,.56.05c.19,0,.41.07.64.13l-.2,1.24a2.69,2.69,0,0,0-.36-.06,3.15,3.15,0,0,0-.44,0,1.29,1.29,0,0,0-1.06.43,1.87,1.87,0,0,0-.35,1.24v1.13h1.62v1.21h-1.62v7.75Z"/><path d="M399.52,168a5,5,0,0,1,1.07-3.28,4,4,0,0,1,5.87,0,4.91,4.91,0,0,1,1.08,3.28v.18a4.87,4.87,0,0,1-1.08,3.27,4,4,0,0,1-5.86,0,4.88,4.88,0,0,1-1.08-3.27Zm1.63.18a4.25,4.25,0,0,0,.6,2.35,2.17,2.17,0,0,0,3.55,0,4.25,4.25,0,0,0,.61-2.35V168a4.3,4.3,0,0,0-.61-2.35,2,2,0,0,0-1.79-.93,2,2,0,0,0-1.76.93,4.29,4.29,0,0,0-.6,2.35Z"/><path d="M413.77,165l-.84-.05a1.84,1.84,0,0,0-1.09.31,2,2,0,0,0-.68.86v6.4h-1.63v-9H411l.15,1.31a3.26,3.26,0,0,1,.94-1.09,2.28,2.28,0,0,1,1.29-.38l.35,0a1.31,1.31,0,0,1,.27.07Z"/><path d="M416.92,163.58l.12,1.18a2.93,2.93,0,0,1,1.11-1,3.28,3.28,0,0,1,1.57-.35,2.74,2.74,0,0,1,1.53.41,2.55,2.55,0,0,1,1,1.24,3.27,3.27,0,0,1,1.12-1.21,2.89,2.89,0,0,1,1.62-.44,2.67,2.67,0,0,1,2.16.94,4.26,4.26,0,0,1,.79,2.82v5.36h-1.63v-5.38a2.93,2.93,0,0,0-.46-1.87,1.63,1.63,0,0,0-1.35-.55,1.73,1.73,0,0,0-1.36.58,2.54,2.54,0,0,0-.6,1.46v5.76h-1.64v-5.38a3,3,0,0,0-.47-1.84,1.61,1.61,0,0,0-1.34-.58,2.2,2.2,0,0,0-1.23.31,2,2,0,0,0-.74.86v6.63h-1.63v-9Z"/><path d="M435.48,170.13a1.08,1.08,0,0,0-.41-.88,4,4,0,0,0-1.55-.6,6.44,6.44,0,0,1-2.43-1,1.93,1.93,0,0,1-.85-1.64,2.36,2.36,0,0,1,.94-1.87,3.67,3.67,0,0,1,2.41-.77,3.6,3.6,0,0,1,2.46.82,2.42,2.42,0,0,1,.91,1.93l0,.05h-1.56a1.41,1.41,0,0,0-.51-1.05,1.8,1.8,0,0,0-1.28-.47,1.84,1.84,0,0,0-1.29.39,1.23,1.23,0,0,0-.43.92,1,1,0,0,0,.37.82,4,4,0,0,0,1.52.53,6.31,6.31,0,0,1,2.5,1,2,2,0,0,1,.85,1.66,2.37,2.37,0,0,1-1,2,4.62,4.62,0,0,1-5.22-.12,2.44,2.44,0,0,1-.93-2v-.05h1.56a1.51,1.51,0,0,0,.64,1.27,2.51,2.51,0,0,0,1.42.4,2.26,2.26,0,0,0,1.36-.36A1.13,1.13,0,0,0,435.48,170.13Z"/><path d="M445.62,161.42v2.16h1.7v1.21h-1.7v5.44a1.22,1.22,0,0,0,.26.88.94.94,0,0,0,.69.26,1.33,1.33,0,0,0,.32,0,1.71,1.71,0,0,0,.29-.08l.22,1.12a1.36,1.36,0,0,1-.54.24,2.47,2.47,0,0,1-.7.1,2.11,2.11,0,0,1-1.58-.6,2.57,2.57,0,0,1-.59-1.88v-5.44h-1.42v-1.21H444v-2.16Z"/><path d="M448.68,168a4.93,4.93,0,0,1,1.08-3.28,3.58,3.58,0,0,1,2.92-1.28,3.62,3.62,0,0,1,2.94,1.28A4.91,4.91,0,0,1,456.7,168v.18a4.87,4.87,0,0,1-1.08,3.27,4,4,0,0,1-5.86,0,4.88,4.88,0,0,1-1.08-3.27Zm1.63.18a4.25,4.25,0,0,0,.6,2.35,2.18,2.18,0,0,0,3.56,0,4.25,4.25,0,0,0,.6-2.35V168a4.21,4.21,0,0,0-.61-2.35,2.16,2.16,0,0,0-3.55,0,4.29,4.29,0,0,0-.6,2.35Z"/><path d="M464.36,163.58l.12,1.18a2.93,2.93,0,0,1,1.11-1,3.28,3.28,0,0,1,1.57-.35,2.75,2.75,0,0,1,1.54.41,2.59,2.59,0,0,1,1,1.24,3.35,3.35,0,0,1,1.12-1.21,2.89,2.89,0,0,1,1.62-.44,2.67,2.67,0,0,1,2.16.94,4.26,4.26,0,0,1,.79,2.82v5.36h-1.63v-5.38a3,3,0,0,0-.45-1.87,1.67,1.67,0,0,0-1.36-.55,1.7,1.7,0,0,0-1.35.58,2.48,2.48,0,0,0-.61,1.46v5.76h-1.64v-5.38a3,3,0,0,0-.47-1.84,1.61,1.61,0,0,0-1.34-.58,2.2,2.2,0,0,0-1.23.31,1.93,1.93,0,0,0-.73.86v6.63h-1.63v-9Z"/><path d="M477.34,168a4.93,4.93,0,0,1,1.08-3.28,3.58,3.58,0,0,1,2.92-1.28,3.62,3.62,0,0,1,2.94,1.28,4.91,4.91,0,0,1,1.08,3.28v.18a4.87,4.87,0,0,1-1.08,3.27,4,4,0,0,1-5.86,0,4.88,4.88,0,0,1-1.08-3.27Zm1.63.18a4.25,4.25,0,0,0,.6,2.35,2.17,2.17,0,0,0,3.55,0,4.17,4.17,0,0,0,.61-2.35V168a4.21,4.21,0,0,0-.61-2.35,2,2,0,0,0-1.78-.93,2,2,0,0,0-1.77.93A4.29,4.29,0,0,0,479,168Z"/><path d="M488.81,163.58l.12,1.33a3.18,3.18,0,0,1,1.12-1.1,3,3,0,0,1,1.53-.39,2.93,2.93,0,0,1,2.24.84,3.73,3.73,0,0,1,.8,2.62v5.66H493v-5.62a2.43,2.43,0,0,0-.47-1.68,1.88,1.88,0,0,0-1.43-.5,2.55,2.55,0,0,0-1.28.3,2.26,2.26,0,0,0-.83.85v6.65h-1.63v-9Z"/><path d="M498.75,161.29h-1.63v-1.66h1.63Zm0,11.25h-1.63v-9h1.63Z"/><path d="M503.52,161.42v2.16h1.7v1.21h-1.7v5.44a1.22,1.22,0,0,0,.26.88,1,1,0,0,0,.69.26,1.27,1.27,0,0,0,.32,0,1.71,1.71,0,0,0,.29-.08l.22,1.12a1.36,1.36,0,0,1-.54.24,2.42,2.42,0,0,1-.7.1,2.11,2.11,0,0,1-1.58-.6,2.61,2.61,0,0,1-.59-1.88v-5.44h-1.42v-1.21h1.42v-2.16Z"/><path d="M506.58,168a4.93,4.93,0,0,1,1.08-3.28,4,4,0,0,1,5.86,0A4.91,4.91,0,0,1,514.6,168v.18a4.86,4.86,0,0,1-1.07,3.27,4,4,0,0,1-5.86,0,4.89,4.89,0,0,1-1.09-3.27Zm1.64.18a4.17,4.17,0,0,0,.6,2.35,2.17,2.17,0,0,0,3.55,0,4.25,4.25,0,0,0,.6-2.35V168a4.29,4.29,0,0,0-.6-2.35,2,2,0,0,0-1.79-.93,1.94,1.94,0,0,0-1.76.93,4.21,4.21,0,0,0-.6,2.35Z"/><path d="M520.84,165,520,165a1.84,1.84,0,0,0-1.09.31,2,2,0,0,0-.68.86v6.4H516.6v-9h1.45l.16,1.31a3.26,3.26,0,0,1,.94-1.09,2.25,2.25,0,0,1,1.29-.38l.35,0a1.31,1.31,0,0,1,.27.07Z"/><path d="M330.54,192.87c-.05-.27-.09-.51-.12-.71s-.05-.42-.06-.63a3.84,3.84,0,0,1-1.18,1.08,3.06,3.06,0,0,1-1.58.44,2.92,2.92,0,0,1-2.13-.72,2.62,2.62,0,0,1-.73-2,2.31,2.31,0,0,1,1-2,4.91,4.91,0,0,1,2.82-.72h1.77v-.89a1.63,1.63,0,0,0-.48-1.24,1.86,1.86,0,0,0-1.35-.46,2,2,0,0,0-1.29.39,1.23,1.23,0,0,0-.49,1h-1.54l0-.05a2.16,2.16,0,0,1,.92-1.79,3.77,3.77,0,0,1,2.51-.81,3.69,3.69,0,0,1,2.45.78,2.75,2.75,0,0,1,.92,2.23v4.31c0,.32,0,.63.05.93a6.39,6.39,0,0,0,.18.87Zm-2.7-1.19a3,3,0,0,0,1.6-.45,2.16,2.16,0,0,0,.92-1v-1.45h-1.83a2.36,2.36,0,0,0-1.57.49,1.47,1.47,0,0,0-.59,1.17,1.21,1.21,0,0,0,.37.94A1.52,1.52,0,0,0,327.84,191.68Z"/><path d="M335.82,183.92l.11,1.33a3.27,3.27,0,0,1,1.12-1.1,3.29,3.29,0,0,1,3.78.45,3.73,3.73,0,0,1,.8,2.62v5.65H340v-5.62a2.46,2.46,0,0,0-.47-1.68,1.88,1.88,0,0,0-1.43-.49,2.55,2.55,0,0,0-1.28.3,2.12,2.12,0,0,0-.83.85v6.64h-1.63v-9Z"/><path d="M343.62,188.56a6,6,0,0,1,.92-3.48,3,3,0,0,1,2.59-1.33,3.23,3.23,0,0,1,1.39.29,2.85,2.85,0,0,1,1,.85V180h1.63v12.91h-1.25l-.25-1.13a2.89,2.89,0,0,1-1.08,1,3.25,3.25,0,0,1-1.5.33,3.07,3.07,0,0,1-2.56-1.19,4.91,4.91,0,0,1-.93-3.12Zm1.63.18a3.9,3.9,0,0,0,.55,2.17,2,2,0,0,0,1.73.81,2.16,2.16,0,0,0,1.22-.33,2.51,2.51,0,0,0,.81-.92v-4.18a2.58,2.58,0,0,0-.81-.89,2.25,2.25,0,0,0-1.21-.32,1.85,1.85,0,0,0-1.73,1,5,5,0,0,0-.56,2.51Z"/><path d="M359.29,183.92l.12,1.17a3,3,0,0,1,1.11-1,3.31,3.31,0,0,1,1.57-.36,2.75,2.75,0,0,1,1.54.42,2.49,2.49,0,0,1,1,1.24,3.35,3.35,0,0,1,1.12-1.21,2.9,2.9,0,0,1,1.62-.45,2.7,2.7,0,0,1,2.16.94,4.3,4.3,0,0,1,.79,2.83v5.35h-1.63V187.5a3,3,0,0,0-.45-1.87,1.65,1.65,0,0,0-1.36-.55,1.7,1.7,0,0,0-1.35.58,2.46,2.46,0,0,0-.61,1.46v5.75h-1.64V187.5a2.88,2.88,0,0,0-.47-1.84,1.61,1.61,0,0,0-1.34-.58,2.29,2.29,0,0,0-1.23.3,2,2,0,0,0-.73.86v6.63h-1.63v-9Z"/><path d="M378.15,192.87c0-.27-.09-.51-.12-.71s0-.42-.06-.63a3.76,3.76,0,0,1-1.19,1.08,3,3,0,0,1-1.57.44,2.9,2.9,0,0,1-2.13-.72,2.62,2.62,0,0,1-.74-2,2.32,2.32,0,0,1,1-2,4.89,4.89,0,0,1,2.82-.72H378v-.89a1.63,1.63,0,0,0-.48-1.24,1.87,1.87,0,0,0-1.36-.46,2,2,0,0,0-1.28.39,1.23,1.23,0,0,0-.49,1h-1.54l0-.05a2.17,2.17,0,0,1,.91-1.79,3.81,3.81,0,0,1,2.52-.81,3.69,3.69,0,0,1,2.45.78,2.75,2.75,0,0,1,.92,2.23v4.31c0,.32,0,.63,0,.93a5.17,5.17,0,0,0,.18.87Zm-2.7-1.19a2.89,2.89,0,0,0,1.59-.45,2.13,2.13,0,0,0,.93-1v-1.45h-1.83a2.36,2.36,0,0,0-1.57.49,1.48,1.48,0,0,0-.6,1.17,1.21,1.21,0,0,0,.38.94A1.52,1.52,0,0,0,375.45,191.68Z"/><path d="M383.43,183.92l.11,1.33a3.27,3.27,0,0,1,1.12-1.1,3.29,3.29,0,0,1,3.78.45,3.73,3.73,0,0,1,.79,2.62v5.65H387.6v-5.62a2.46,2.46,0,0,0-.46-1.68,1.89,1.89,0,0,0-1.43-.49,2.55,2.55,0,0,0-1.28.3,2.12,2.12,0,0,0-.83.85v6.64H382v-9Z"/><path d="M397.1,192.87c-.05-.27-.09-.51-.12-.71s-.05-.42-.06-.63a3.84,3.84,0,0,1-1.18,1.08,3.06,3.06,0,0,1-1.58.44,2.92,2.92,0,0,1-2.13-.72,2.62,2.62,0,0,1-.73-2,2.31,2.31,0,0,1,1-2,4.91,4.91,0,0,1,2.82-.72h1.77v-.89a1.63,1.63,0,0,0-.48-1.24,1.86,1.86,0,0,0-1.35-.46,2,2,0,0,0-1.29.39,1.23,1.23,0,0,0-.49,1h-1.54l0-.05a2.16,2.16,0,0,1,.92-1.79,3.77,3.77,0,0,1,2.51-.81,3.69,3.69,0,0,1,2.45.78,2.75,2.75,0,0,1,.92,2.23v4.31c0,.32,0,.63.05.93a6.39,6.39,0,0,0,.18.87Zm-2.7-1.19a3,3,0,0,0,1.6-.45,2.16,2.16,0,0,0,.92-1v-1.45h-1.83a2.36,2.36,0,0,0-1.57.49,1.47,1.47,0,0,0-.59,1.17,1.21,1.21,0,0,0,.37.94A1.52,1.52,0,0,0,394.4,191.68Z"/><path d="M400.63,188.56a6,6,0,0,1,.92-3.48,3,3,0,0,1,2.58-1.33,3.13,3.13,0,0,1,1.5.35,3,3,0,0,1,1.08,1l.2-1.17h1.3v9a3.42,3.42,0,0,1-1,2.65,4.14,4.14,0,0,1-2.89.92,6,6,0,0,1-1.39-.18,5.67,5.67,0,0,1-1.32-.48l.24-1.27a4.6,4.6,0,0,0,1.14.4,6,6,0,0,0,1.31.16,2.34,2.34,0,0,0,1.74-.55,2.25,2.25,0,0,0,.54-1.65v-1a2.89,2.89,0,0,1-1.05.86,3.33,3.33,0,0,1-1.42.29,3.07,3.07,0,0,1-2.56-1.19,5,5,0,0,1-.92-3.12Zm1.63.18a3.78,3.78,0,0,0,.55,2.16,1.92,1.92,0,0,0,1.72.82,2.17,2.17,0,0,0,1.23-.33,2.65,2.65,0,0,0,.82-.95v-4.12a2.58,2.58,0,0,0-.82-.91,2.18,2.18,0,0,0-1.22-.33,1.85,1.85,0,0,0-1.72,1,5,5,0,0,0-.56,2.51Z"/><path d="M414.26,193.05a3.76,3.76,0,0,1-3-1.24,4.73,4.73,0,0,1-1.08-3.24v-.36a4.6,4.6,0,0,1,1.12-3.19,3.45,3.45,0,0,1,2.71-1.27,3.28,3.28,0,0,1,2.7,1.12,4.61,4.61,0,0,1,.89,3v.86h-5.72l0,0a3.68,3.68,0,0,0,.6,2.19,2.08,2.08,0,0,0,1.82.84,4.24,4.24,0,0,0,1.45-.23,3.26,3.26,0,0,0,1.07-.65l.64,1.06a3.82,3.82,0,0,1-1.27.78A5,5,0,0,1,414.26,193.05Zm-.26-8a1.78,1.78,0,0,0-1.41.65,3.11,3.11,0,0,0-.68,1.69l0,0h4v-.13a2.64,2.64,0,0,0-.48-1.62A1.74,1.74,0,0,0,414,185Z"/><path d="M426.62,190.23l.14.63h.05l.16-.63,2.06-6.31h1.66l-3.29,9h-1.23l-3.34-9h1.67Z"/><path d="M437.54,192.87c-.06-.27-.1-.51-.13-.71a4.46,4.46,0,0,1-.05-.63,3.87,3.87,0,0,1-1.19,1.08,3.06,3.06,0,0,1-1.58.44,2.92,2.92,0,0,1-2.13-.72,2.62,2.62,0,0,1-.73-2,2.32,2.32,0,0,1,1-2,4.87,4.87,0,0,1,2.82-.72h1.77v-.89a1.63,1.63,0,0,0-.48-1.24,1.88,1.88,0,0,0-1.36-.46,2,2,0,0,0-1.28.39,1.2,1.2,0,0,0-.49,1H432.2l0-.05a2.18,2.18,0,0,1,.92-1.79,3.78,3.78,0,0,1,2.51-.81,3.67,3.67,0,0,1,2.45.78,2.73,2.73,0,0,1,.93,2.23v4.31a7.06,7.06,0,0,0,.05.93,4.34,4.34,0,0,0,.18.87Zm-2.71-1.19a3,3,0,0,0,1.6-.45,2.24,2.24,0,0,0,.93-1v-1.45h-1.83a2.37,2.37,0,0,0-1.58.49,1.5,1.5,0,0,0-.59,1.17,1.21,1.21,0,0,0,.37.94A1.53,1.53,0,0,0,434.83,191.68Z"/><path d="M444.91,191.77a1.91,1.91,0,0,0,1.32-.5,1.59,1.59,0,0,0,.56-1.23h1.47l0,.05a2.58,2.58,0,0,1-1,2.06,3.79,3.79,0,0,1-5.3-.39,4.91,4.91,0,0,1-1-3.19v-.35a5,5,0,0,1,1-3.18,3.52,3.52,0,0,1,2.91-1.29,3.39,3.39,0,0,1,2.46.93,3,3,0,0,1,.92,2.28l0,0h-1.48a2,2,0,0,0-.53-1.4,1.78,1.78,0,0,0-1.35-.57,1.89,1.89,0,0,0-1.75.93,4.31,4.31,0,0,0-.55,2.25v.35a4.47,4.47,0,0,0,.54,2.28A1.89,1.89,0,0,0,444.91,191.77Z"/><path d="M453.78,191.77a1.89,1.89,0,0,0,1.32-.5,1.59,1.59,0,0,0,.56-1.23h1.47l0,.05a2.58,2.58,0,0,1-1,2.06,3.79,3.79,0,0,1-5.3-.39,5,5,0,0,1-1-3.19v-.35a5,5,0,0,1,1-3.18,3.52,3.52,0,0,1,2.91-1.29,3.39,3.39,0,0,1,2.46.93,3,3,0,0,1,.92,2.28l0,0h-1.48a2,2,0,0,0-.53-1.4,1.78,1.78,0,0,0-1.35-.57A1.89,1.89,0,0,0,452,186a4.41,4.41,0,0,0-.55,2.25v.35a4.47,4.47,0,0,0,.54,2.28A1.9,1.9,0,0,0,453.78,191.77Z"/><path d="M460.86,181.63h-1.63V180h1.63Zm0,11.24h-1.63v-9h1.63Z"/><path d="M464.82,183.92l.12,1.33a3.27,3.27,0,0,1,1.12-1.1,2.91,2.91,0,0,1,1.53-.4,3,3,0,0,1,2.25.85,3.73,3.73,0,0,1,.79,2.62v5.65H469v-5.62a2.41,2.41,0,0,0-.47-1.68,1.85,1.85,0,0,0-1.42-.49,2.53,2.53,0,0,0-1.28.3,2.12,2.12,0,0,0-.83.85v6.64h-1.63v-9Z"/><path d="M478.5,192.87c-.05-.27-.1-.51-.13-.71s0-.42-.05-.63a3.76,3.76,0,0,1-1.19,1.08,3,3,0,0,1-1.57.44,2.93,2.93,0,0,1-2.14-.72,2.66,2.66,0,0,1-.73-2,2.32,2.32,0,0,1,1-2,4.87,4.87,0,0,1,2.82-.72h1.77v-.89a1.63,1.63,0,0,0-.48-1.24,1.87,1.87,0,0,0-1.36-.46,2,2,0,0,0-1.28.39,1.2,1.2,0,0,0-.49,1h-1.55v-.05a2.15,2.15,0,0,1,.91-1.79,3.8,3.8,0,0,1,2.51-.81,3.66,3.66,0,0,1,2.45.78,2.73,2.73,0,0,1,.93,2.23v4.31c0,.32,0,.63.05.93a4.34,4.34,0,0,0,.18.87Zm-2.7-1.19a2.89,2.89,0,0,0,1.59-.45,2.13,2.13,0,0,0,.93-1v-1.45h-1.83a2.39,2.39,0,0,0-1.58.49,1.5,1.5,0,0,0-.59,1.17,1.21,1.21,0,0,0,.38.94A1.5,1.5,0,0,0,475.8,191.68Z"/><path d="M484.58,181.76v2.16h1.7v1.21h-1.7v5.43a1.24,1.24,0,0,0,.26.89,1,1,0,0,0,.7.26,2,2,0,0,0,.31,0l.29-.08.22,1.12a1.38,1.38,0,0,1-.53.24,2.53,2.53,0,0,1-.71.1,2.11,2.11,0,0,1-1.58-.6,2.63,2.63,0,0,1-.59-1.89v-5.43h-1.42v-1.21H483v-2.16Z"/><path d="M489.79,181.63h-1.63V180h1.63Zm0,11.24h-1.63v-9h1.63Z"/><path d="M491.92,188.31A4.91,4.91,0,0,1,493,185a3.61,3.61,0,0,1,2.92-1.29,3.65,3.65,0,0,1,2.95,1.29,4.94,4.94,0,0,1,1.08,3.27v.19a4.88,4.88,0,0,1-1.08,3.27,4,4,0,0,1-5.86,0,4.88,4.88,0,0,1-1.08-3.27Zm1.63.19a4.27,4.27,0,0,0,.6,2.35,2.17,2.17,0,0,0,3.55,0,4.27,4.27,0,0,0,.6-2.35v-.19a4.28,4.28,0,0,0-.6-2.34,2,2,0,0,0-1.79-.93,2,2,0,0,0-1.76.93,4.28,4.28,0,0,0-.6,2.34Z"/><path d="M503.39,183.92l.11,1.33a3.27,3.27,0,0,1,1.12-1.1,3.29,3.29,0,0,1,3.78.45,3.73,3.73,0,0,1,.8,2.62v5.65h-1.63v-5.62a2.46,2.46,0,0,0-.47-1.68,1.88,1.88,0,0,0-1.43-.49,2.55,2.55,0,0,0-1.28.3,2.12,2.12,0,0,0-.83.85v6.64h-1.63v-9Z"/><path d="M368.3,213.21c-.05-.27-.1-.51-.13-.72s0-.41-.05-.62a3.76,3.76,0,0,1-1.19,1.08,3,3,0,0,1-1.57.43,2.89,2.89,0,0,1-2.13-.71,2.64,2.64,0,0,1-.74-2,2.32,2.32,0,0,1,1-2,4.86,4.86,0,0,1,2.82-.73h1.77v-.88a1.65,1.65,0,0,0-.48-1.25,1.91,1.91,0,0,0-1.36-.46,2,2,0,0,0-1.28.4,1.18,1.18,0,0,0-.49.95l-1.55,0v-.05a2.13,2.13,0,0,1,.91-1.79,3.8,3.8,0,0,1,2.51-.81,3.66,3.66,0,0,1,2.45.78,2.72,2.72,0,0,1,.93,2.23v4.31a9,9,0,0,0,.05.92,4.44,4.44,0,0,0,.18.88ZM365.6,212a2.82,2.82,0,0,0,1.59-.46,2.11,2.11,0,0,0,.93-1v-1.46h-1.83a2.39,2.39,0,0,0-1.58.5,1.5,1.5,0,0,0-.59,1.17,1.21,1.21,0,0,0,.38.94A1.54,1.54,0,0,0,365.6,212Z"/><path d="M371.74,208.9a5.92,5.92,0,0,1,.93-3.48,2.94,2.94,0,0,1,2.58-1.33,3.27,3.27,0,0,1,1.4.29,2.92,2.92,0,0,1,1,.85V200.3h1.63v12.91h-1.25l-.25-1.13a2.89,2.89,0,0,1-1.09,1,3.21,3.21,0,0,1-1.49.33,3.07,3.07,0,0,1-2.57-1.18,4.94,4.94,0,0,1-.93-3.13Zm1.63.17a3.83,3.83,0,0,0,.56,2.18,1.94,1.94,0,0,0,1.72.81,2.19,2.19,0,0,0,1.23-.33,2.47,2.47,0,0,0,.81-.93v-4.18a2.48,2.48,0,0,0-.82-.88,2.11,2.11,0,0,0-1.2-.32,1.88,1.88,0,0,0-1.74,1,5.06,5.06,0,0,0-.56,2.52Z"/><path d="M383.21,204.26l.11,1.17a3.14,3.14,0,0,1,1.12-1,3.35,3.35,0,0,1,1.56-.35,2.75,2.75,0,0,1,1.54.42,2.39,2.39,0,0,1,1,1.24,3.39,3.39,0,0,1,1.12-1.22,3,3,0,0,1,1.62-.44,2.67,2.67,0,0,1,2.16.94,4.3,4.3,0,0,1,.8,2.83v5.35h-1.63v-5.37a3,3,0,0,0-.46-1.87,1.65,1.65,0,0,0-1.36-.55,1.75,1.75,0,0,0-1.35.57,2.58,2.58,0,0,0-.61,1.47v5.75h-1.64v-5.37a3,3,0,0,0-.46-1.84,1.63,1.63,0,0,0-1.35-.58,2.25,2.25,0,0,0-1.22.3,2,2,0,0,0-.74.86v6.63h-1.63v-9Z"/><path d="M398.33,202h-1.64V200.3h1.64Zm0,11.25h-1.64v-9h1.64Z"/><path d="M402.29,204.26l.12,1.33a3.21,3.21,0,0,1,1.12-1.11,3,3,0,0,1,1.53-.39,2.9,2.9,0,0,1,2.24.85,3.73,3.73,0,0,1,.8,2.62v5.65h-1.63v-5.62a2.43,2.43,0,0,0-.47-1.68,1.88,1.88,0,0,0-1.43-.49,2.55,2.55,0,0,0-1.28.3,2.19,2.19,0,0,0-.83.85v6.64h-1.63v-9Z"/><path d="M412.23,202H410.6V200.3h1.63Zm0,11.25H410.6v-9h1.63Z"/><path d="M419.94,210.8a1.07,1.07,0,0,0-.41-.87,3.85,3.85,0,0,0-1.55-.6,6.61,6.61,0,0,1-2.43-1,2,2,0,0,1-.85-1.64,2.36,2.36,0,0,1,.93-1.87,3.65,3.65,0,0,1,2.42-.78,3.61,3.61,0,0,1,2.46.83,2.35,2.35,0,0,1,.9,1.93v.05h-1.56a1.39,1.39,0,0,0-.51-1.05,1.8,1.8,0,0,0-1.28-.48,1.84,1.84,0,0,0-1.29.39,1.2,1.2,0,0,0-.43.93,1,1,0,0,0,.37.82,4.15,4.15,0,0,0,1.52.53,6.47,6.47,0,0,1,2.5,1,2,2,0,0,1,.85,1.67,2.36,2.36,0,0,1-1,1.94,4.64,4.64,0,0,1-5.22-.11,2.49,2.49,0,0,1-.94-2l0-.05H416a1.49,1.49,0,0,0,.64,1.27,2.49,2.49,0,0,0,1.42.4,2.2,2.2,0,0,0,1.36-.37A1.11,1.11,0,0,0,419.94,210.8Z"/><path d="M425.87,202.1v2.16h1.69v1.21h-1.69v5.43a1.2,1.2,0,0,0,.26.89.93.93,0,0,0,.69.25l.31,0,.29-.08.23,1.12a1.71,1.71,0,0,1-.54.24,2.88,2.88,0,0,1-.71.09,2.13,2.13,0,0,1-1.58-.6,2.6,2.6,0,0,1-.58-1.88v-5.43h-1.43v-1.21h1.43V202.1Z"/><path d="M433.55,205.7l-.84,0a1.91,1.91,0,0,0-1.09.3,2,2,0,0,0-.68.86v6.4h-1.63v-9h1.45l.16,1.3a3.22,3.22,0,0,1,.94-1.08,2.19,2.19,0,0,1,1.29-.39,2,2,0,0,1,.35,0l.27.06Z"/><path d="M440.75,213.21c-.06-.27-.1-.51-.13-.72a6.2,6.2,0,0,1-.06-.62,3.84,3.84,0,0,1-1.18,1.08,3.05,3.05,0,0,1-1.58.43,2.92,2.92,0,0,1-2.13-.71,2.63,2.63,0,0,1-.73-2,2.31,2.31,0,0,1,1-2,4.91,4.91,0,0,1,2.82-.73h1.77v-.88a1.65,1.65,0,0,0-.48-1.25,1.9,1.9,0,0,0-1.35-.46,2,2,0,0,0-1.29.4,1.21,1.21,0,0,0-.49.95l-1.54,0,0-.05a2.15,2.15,0,0,1,.92-1.79,3.77,3.77,0,0,1,2.51-.81,3.69,3.69,0,0,1,2.45.78,2.74,2.74,0,0,1,.92,2.23v4.31a9,9,0,0,0,.05.92,5.31,5.31,0,0,0,.19.88ZM438,212a2.88,2.88,0,0,0,1.6-.46,2.14,2.14,0,0,0,.92-1v-1.46h-1.83a2.36,2.36,0,0,0-1.57.5,1.47,1.47,0,0,0-.59,1.17,1.21,1.21,0,0,0,.37.94A1.56,1.56,0,0,0,438,212Z"/><path d="M446.83,202.1v2.16h1.69v1.21h-1.69v5.43a1.24,1.24,0,0,0,.26.89.93.93,0,0,0,.69.25l.31,0a2.24,2.24,0,0,0,.29-.08l.23,1.12a1.52,1.52,0,0,1-.54.24,2.86,2.86,0,0,1-.7.09,2.1,2.1,0,0,1-1.58-.6,2.56,2.56,0,0,1-.59-1.88v-5.43h-1.43v-1.21h1.43V202.1Z"/><path d="M452,202H450.4V200.3H452Zm0,11.25H450.4v-9H452Z"/><path d="M454.16,208.65a4.92,4.92,0,0,1,1.08-3.27,3.59,3.59,0,0,1,2.92-1.29,3.65,3.65,0,0,1,2.94,1.28,4.93,4.93,0,0,1,1.08,3.28v.18a4.89,4.89,0,0,1-1.08,3.28,4,4,0,0,1-5.86,0,4.93,4.93,0,0,1-1.08-3.28Zm1.63.18a4.23,4.23,0,0,0,.6,2.35,2.16,2.16,0,0,0,3.55,0,4.15,4.15,0,0,0,.61-2.35v-.18a4.16,4.16,0,0,0-.61-2.34,2.15,2.15,0,0,0-3.55,0,4.24,4.24,0,0,0-.6,2.34Z"/><path d="M465.63,204.26l.12,1.33a3.21,3.21,0,0,1,1.12-1.11,3,3,0,0,1,1.53-.39,2.88,2.88,0,0,1,2.24.85,3.73,3.73,0,0,1,.8,2.62v5.65h-1.63v-5.62a2.43,2.43,0,0,0-.47-1.68,1.88,1.88,0,0,0-1.43-.49,2.51,2.51,0,0,0-1.27.3,2.15,2.15,0,0,0-.84.85v6.64h-1.63v-9Z"/><path class="cls-1" d="M289,110.47A6.52,6.52,0,0,1,289,99a7.9,7.9,0,0,1,7.17,0,6.45,6.45,0,0,1,2.5,2.36,6.75,6.75,0,0,1,0,6.77,6.48,6.48,0,0,1-2.5,2.37,8,8,0,0,1-7.17,0Zm5.63-2.18a3.81,3.81,0,0,0,1.44-1.46,4.56,4.56,0,0,0,0-4.23,3.78,3.78,0,0,0-1.44-1.45,4,4,0,0,0-2-.52,4,4,0,0,0-2,.52,3.78,3.78,0,0,0-1.44,1.45,4.56,4.56,0,0,0,0,4.23,3.81,3.81,0,0,0,1.44,1.46,4.07,4.07,0,0,0,2,.52A4.13,4.13,0,0,0,294.64,108.29Z"/><path class="cls-1" d="M304.77,100.7v3.38h5.92v2.37h-5.92v4.66h-2.95V98.33h9.65v2.37Z"/><path class="cls-1" d="M318.64,98.33h3v12.78h-3Z"/><path class="cls-1" d="M336.35,98.33v12.78h-2.43l-6.37-7.76v7.76h-2.92V98.33h2.45l6.35,7.76V98.33Z"/><path class="cls-1" d="M339.38,98.33h5.8a8.13,8.13,0,0,1,3.68.79,6,6,0,0,1,2.48,2.24,6.79,6.79,0,0,1,0,6.72,6,6,0,0,1-2.48,2.23,8.14,8.14,0,0,1-3.68.8h-5.8ZM345,108.68a4.3,4.3,0,0,0,3-1.07,4.25,4.25,0,0,0,0-5.79,4.29,4.29,0,0,0-3-1.06h-2.7v7.92Z"/><path class="cls-1" d="M357.05,110.47a6.52,6.52,0,0,1,0-11.5,7.53,7.53,0,0,1,3.59-.86,7.43,7.43,0,0,1,3.58.86,6.45,6.45,0,0,1,2.5,2.36,6.75,6.75,0,0,1,0,6.77,6.48,6.48,0,0,1-2.5,2.37,7.43,7.43,0,0,1-3.58.85A7.52,7.52,0,0,1,357.05,110.47Zm5.64-2.18a3.86,3.86,0,0,0,1.43-1.46,4.56,4.56,0,0,0,0-4.23,3.83,3.83,0,0,0-1.43-1.45,4.28,4.28,0,0,0-4.09,0,3.78,3.78,0,0,0-1.44,1.45,4.56,4.56,0,0,0,0,4.23,3.81,3.81,0,0,0,1.44,1.46,4.28,4.28,0,0,0,4.09,0Z"/><path class="cls-1" d="M381.58,98.33v12.78h-2.43l-6.37-7.76v7.76h-2.92V98.33h2.44l6.36,7.76V98.33Z"/><path class="cls-1" d="M394.5,108.73v2.38h-9.89V98.33h9.65v2.37h-6.72v2.78h5.94v2.3h-5.94v3Z"/><path class="cls-1" d="M398.12,110.91a7,7,0,0,1-2.27-1.06l1-2.23a7,7,0,0,0,2,1,7.36,7.36,0,0,0,2.26.36,3.6,3.6,0,0,0,1.86-.37,1.13,1.13,0,0,0,.6-1,1,1,0,0,0-.35-.75,2.6,2.6,0,0,0-.92-.49c-.37-.12-.87-.25-1.5-.4a20.45,20.45,0,0,1-2.39-.69,3.88,3.88,0,0,1-1.6-1.12,3,3,0,0,1-.67-2,3.51,3.51,0,0,1,.61-2,4,4,0,0,1,1.81-1.43,7.48,7.48,0,0,1,3-.53,10.09,10.09,0,0,1,2.39.29,7.27,7.27,0,0,1,2,.84l-.91,2.25a7.12,7.12,0,0,0-3.54-1,3.35,3.35,0,0,0-1.83.4,1.23,1.23,0,0,0-.6,1.06,1,1,0,0,0,.69,1,11,11,0,0,0,2.09.63,21,21,0,0,1,2.39.69,3.9,3.9,0,0,1,1.59,1.1,2.9,2.9,0,0,1,.67,2,3.47,3.47,0,0,1-.61,2,4.13,4.13,0,0,1-1.83,1.43,7.39,7.39,0,0,1-3,.53A10.22,10.22,0,0,1,398.12,110.91Z"/><path class="cls-1" d="M408.5,98.33h2.95v12.78H408.5Z"/><path class="cls-1" d="M422.9,108.37H417l-1.14,2.74h-3l5.7-12.78h2.92l5.71,12.78H424Zm-.93-2.25-2-4.89-2,4.89Z"/><path class="cls-1" d="M430,97.9a1.7,1.7,0,0,1,.49,1.27,3,3,0,0,1-.09.73A9.85,9.85,0,0,1,430,101l-1.06,2.63h-1.81l.79-2.88a1.62,1.62,0,0,1-.71-.6,1.78,1.78,0,0,1-.26-1,1.7,1.7,0,0,1,.5-1.27,1.78,1.78,0,0,1,1.27-.48A1.74,1.74,0,0,1,430,97.9Z"/><path class="cls-1" d="M434,110.91a7,7,0,0,1-2.27-1.06l1-2.23a7.11,7.11,0,0,0,2,1A7.47,7.47,0,0,0,437,109a3.6,3.6,0,0,0,1.86-.37,1.13,1.13,0,0,0,.6-1,1,1,0,0,0-.35-.75,2.6,2.6,0,0,0-.92-.49c-.37-.12-.87-.25-1.5-.4a20.45,20.45,0,0,1-2.39-.69,3.88,3.88,0,0,1-1.6-1.12,3,3,0,0,1-.67-2,3.51,3.51,0,0,1,.61-2,4,4,0,0,1,1.81-1.43,7.48,7.48,0,0,1,3-.53,10.09,10.09,0,0,1,2.39.29,7.27,7.27,0,0,1,2,.84l-.91,2.25a7.12,7.12,0,0,0-3.54-1,3.42,3.42,0,0,0-1.84.4,1.24,1.24,0,0,0-.59,1.06,1,1,0,0,0,.69,1,11,11,0,0,0,2.09.63,21,21,0,0,1,2.39.69,3.9,3.9,0,0,1,1.59,1.1,2.9,2.9,0,0,1,.67,2,3.47,3.47,0,0,1-.61,2,4.1,4.1,0,0,1-1.84,1.43,7.31,7.31,0,0,1-3,.53A10.22,10.22,0,0,1,434,110.91Z"/><path class="cls-1" d="M458.06,98.89a4.58,4.58,0,0,1,1.92,6.53,4.37,4.37,0,0,1-1.92,1.61,7.22,7.22,0,0,1-2.95.55h-2.57v3.53h-3V98.33h5.53A7.22,7.22,0,0,1,458.06,98.89ZM457,104.6a2,2,0,0,0,.7-1.64,2.05,2.05,0,0,0-.7-1.65,3.1,3.1,0,0,0-2-.57h-2.41v4.43H455A3.1,3.1,0,0,0,457,104.6Z"/><path class="cls-1" d="M470.9,111.11l-2.46-3.56h-2.72v3.56h-3V98.33h5.53a7.25,7.25,0,0,1,2.95.56,4.26,4.26,0,0,1,2.6,4.07,4.18,4.18,0,0,1-2.63,4l2.86,4.11Zm-.75-9.8a3.13,3.13,0,0,0-2-.57h-2.4v4.45h2.4a3.07,3.07,0,0,0,2-.58,2.32,2.32,0,0,0,0-3.3Z"/><path class="cls-1" d="M478.77,110.47a6.52,6.52,0,0,1,0-11.5,7.9,7.9,0,0,1,7.17,0,6.45,6.45,0,0,1,2.5,2.36,6.75,6.75,0,0,1,0,6.77,6.48,6.48,0,0,1-2.5,2.37,8,8,0,0,1-7.17,0Zm5.63-2.18a3.81,3.81,0,0,0,1.44-1.46,4.56,4.56,0,0,0,0-4.23,3.78,3.78,0,0,0-1.44-1.45,4.26,4.26,0,0,0-4.08,0,3.78,3.78,0,0,0-1.44,1.45,4.56,4.56,0,0,0,0,4.23,3.81,3.81,0,0,0,1.44,1.46,4.26,4.26,0,0,0,4.08,0Z"/><path class="cls-1" d="M503.44,98.33l-5.53,12.78H495l-5.51-12.78h3.19l3.89,9.12,3.94-9.12Z"/><path class="cls-1" d="M504.5,98.33h3v12.78h-3Z"/><path class="cls-1" d="M522.2,98.33v12.78h-2.42l-6.37-7.76v7.76h-2.92V98.33h2.44l6.35,7.76V98.33Z"/><path class="cls-1" d="M527.82,110.48a6.43,6.43,0,0,1-2.49-2.36,6.89,6.89,0,0,1,0-6.81A6.33,6.33,0,0,1,527.82,99a7.31,7.31,0,0,1,3.55-.85,7.47,7.47,0,0,1,3,.58,6.06,6.06,0,0,1,2.25,1.68l-1.9,1.76a4.06,4.06,0,0,0-3.21-1.5,4.21,4.21,0,0,0-2.11.52,3.7,3.7,0,0,0-1.46,1.45,4.56,4.56,0,0,0,0,4.23,3.73,3.73,0,0,0,1.46,1.46,4.31,4.31,0,0,0,2.11.52,4.05,4.05,0,0,0,3.21-1.52l1.9,1.75a6,6,0,0,1-2.26,1.7,7.48,7.48,0,0,1-3,.58A7.39,7.39,0,0,1,527.82,110.48Z"/><path class="cls-1" d="M548.5,108.73v2.38h-9.89V98.33h9.66v2.37h-6.72v2.78h5.93v2.3h-5.93v3Z"/><path class="cls-1" d="M356.46,73.64h-16.1l-3.08,7.43h-8.22L344.52,46.4h7.92L368,81.07h-8.42Zm-2.53-6.09-5.5-13.28-5.5,13.28Z"/><path class="cls-1" d="M371.57,46.4h8V74.54H397v6.53H371.57Z"/><path class="cls-1" d="M401.49,46.4h8V74.54H426.9v6.53H401.49Z"/><path class="cls-1" d="M466.44,63.91a9.38,9.38,0,0,1,2.42,6.56,10.42,10.42,0,0,1-1.58,5.58,11,11,0,0,1-4.83,4.08,18.45,18.45,0,0,1-7.95,1.54,27,27,0,0,1-7.21-1,18.47,18.47,0,0,1-6-2.75l3.12-6.14a15,15,0,0,0,4.58,2.3,17.55,17.55,0,0,0,5.33.82,8.47,8.47,0,0,0,4.75-1.16,3.75,3.75,0,0,0,1.74-3.3c0-2.84-2.17-4.26-6.49-4.26h-3.67v-5.3l7.14-8.07H443V46.4h24.28v5.2l-7.83,8.92A11.64,11.64,0,0,1,466.44,63.91Z"/><path class="cls-1" d="M504.33,73.79h-5.64v7.28h-7.83V73.79H472.18v-5.4l16.35-22H497L481.79,67.25h9.32V60.76h7.58v6.49h5.64Z"/><rect class="cls-1" x="45.37" y="44.15" width="161.7" height="161.7" transform="translate(125.36 -52.64) rotate(45)"/><g class="cls-2"><path class="cls-3" d="M126.21,227.71,23.51,125,126.21,22.29,228.92,125ZM26.68,125l99.53,99.53L225.75,125,126.21,25.47Zm99.53,89.66L91.94,180.38l26.21-26.21L92.74,128.75l-18,18L86.62,158.7l4.93-4.94-7-7,8.17-8.16,15.54,15.54L87,175.45l-30-30L77.51,125,57,104.52l30-30,21.28,21.28L92.74,111.37l-8.17-8.16,7-7L86.62,91.3,74.7,103.21l18,18,25.41-25.42L91.94,69.62l34.27-34.28,34.28,34.28L134.28,95.83l25.41,25.42,18-18L165.81,91.3l-4.93,4.94,7,7-8.17,8.16L144.15,95.83l21.28-21.28,30,30L174.92,125l20.48,20.48-30,30-21.28-21.27,15.54-15.54,8.17,8.16-7,7,4.93,4.94,11.92-11.91-18-18-25.41,25.42,26.21,26.21Zm-31.1-34.28,31.1,31.11,31.11-31.11-26.21-26.21,28.58-28.59,21.21,21.21-15.09,15.08-8.11-8.11,7-7-5-5-12.36,12.37,18.1,18.1,26.79-26.79L171.75,125l20.47-20.48L165.43,77.73l-18.1,18.1,12.36,12.37,5-5-7-7,8.11-8.12,15.09,15.09-21.21,21.21L131.11,95.83l26.21-26.21L126.21,38.51,95.11,69.62l26.21,26.21L92.74,124.42,71.53,103.21,86.62,88.13l8.11,8.1-7,7,5,5L105.1,95.83,87,77.73,60.21,104.52,80.68,125,60.21,145.48,87,172.27l18.1-18.1L92.74,141.8l-5,5,7,7-8.11,8.11L71.53,146.79l21.21-21.21,28.58,28.59Zm105.22-39.84L184.79,125l15.54-15.54L215.88,125ZM188,125l12.36,12.37L212.7,125l-12.37-12.37ZM52.1,140.54,36.56,125,52.1,109.46,67.64,125ZM39.73,125,52.1,137.37,64.46,125,52.1,112.63Z"/><path class="cls-3" d="M126.21,204.07l-24-24,24-24.05,24,24.05Zm-20.87-24,20.87,20.88L147.09,180l-20.88-20.87Z"/><path class="cls-3" d="M126.21,93.36l-24-24,24-24.05,24,24.05Zm-20.87-24,20.87,20.88,20.88-20.88L126.21,48.44Z"/></g><polygon class="cls-4" points="12.46 125 126.33 238.87 528.25 238.87 642.12 125 528.25 11.13 126.33 11.13 12.46 125"/><path class="cls-3" d="M57.56,99.48c2.86,0,5.71-.09,8.57-.08a2.13,2.13,0,0,1,1.15.59q11.82,9.9,23.6,19.85A3.85,3.85,0,0,1,92,121.7c.7,2.63,1.32,5.28,1.88,8a2.08,2.08,0,0,1-.44,1.6c-2.13,2.1-4.33,4.14-6.56,6.14a1.5,1.5,0,0,1-1.35.19c-2.82-1.34-5.61-2.74-8.39-4.16a3.15,3.15,0,0,1-1-.84q-5.28-6.93-10.53-13.89c-.1-.14-.18-.3-.34-.54l3.15-2.41c2.78,3.67,5.74,7.11,8.16,10.9,2.09,3.26,5.25,4.68,8.46,6.2.26.12.69-.09,1-.15,0,0,.07-.06.1-.09l3.43-3.38c-.48-2.08-.93-4.17-1.46-6.25-.09-.33-.5-.61-.8-.86-6.84-5.76-13.73-11.45-20.49-17.3a5.83,5.83,0,0,0-5.2-1.31c-.16,1.77-.27,3.41,1.13,4.87a45,45,0,0,1,3.2,4.16l-3.13,2.38-5.3-6.57Z"/><path class="cls-3" d="M98,109.41a8.1,8.1,0,0,1,1.23,0c2.92.49,5.11-.67,7.28-2.62,4.34-3.91,8.93-7.55,13.49-11.37l11,7.38c-1.29,1.94-2.49,3.82-3.77,5.64a1.38,1.38,0,0,0,0,1.89c1,1.41,2,2.86,2.88,4.36a1.65,1.65,0,0,1,0,1.47q-5.1,7.39-10.33,14.69a2,2,0,0,1-1.41.7q-5.56.08-11.13,0a3.42,3.42,0,0,1-1.62-.47c-2.27-1.33-4.52-2.71-6.75-4.11-.36-.23-.8-.7-.8-1.06C98,120.49,98,115,98,109.41Zm4,3.86c0,3.69,0,7.07,0,10.45,0,.33.42.73.73,1a12.38,12.38,0,0,0,9.67,2.9c1.23-.17,2.5,0,3.75-.06a2.3,2.3,0,0,0,1.51-.78c2.54-3.5,5-7.07,7.52-10.59a1.13,1.13,0,0,0,0-1.53c-1-1.34-1.8-2.77-2.78-4.1a1.62,1.62,0,0,1,0-2.24c1-1.38,2-2.87,3-4.38l-5.09-3.42c-.44.34-.83.64-1.2,1-4,3.38-8.11,6.74-12.11,10.16C105.63,112.79,104.31,114,102.07,113.27Z"/><path class="cls-3" d="M88.39,142.81c2.5-2.35,5-4.68,7.46-7a2,2,0,0,1,1.21-.37c2.32,0,4.65-.09,7,0a3.18,3.18,0,0,1,1.86,1,3.39,3.39,0,0,0,2.8,1.15c3-.07,6.08-.07,9.12,0a3.24,3.24,0,0,1,2,.81c1.9,1.76,3.67,3.67,5.56,5.44a2.69,2.69,0,0,1,.93,2.35c-.07,1.06,0,2.13,0,3.28H114.3v-3.89h6.61l.21-.35c-1.21-1.15-2.39-2.33-3.65-3.42a2.14,2.14,0,0,0-1.26-.23c-3.13,0-6.26-.05-9.39,0a2.63,2.63,0,0,1-2.43-1,3.48,3.48,0,0,0-2.78-1.22,6.75,6.75,0,0,0-6.64,2.7,11.3,11.3,0,0,1-1.22,1.18c.93,2.26,1,2.32,3.3,2.32h13v4c-.37,0-.71.07-1.06.07-5,0-10,0-15,0a1.68,1.68,0,0,1-1.62-.86C91.06,146.81,89.73,144.86,88.39,142.81Z"/><path class="cls-3" d="M138.34,119.57c1.66-.08,3.26.17,4.61-.3s2.5-1.68,3.85-2.64l2.37,3.18-3.52,2.65,6,11.33-3.54,1.89c-2-3.68-3.9-7.24-5.77-10.84a2,2,0,0,0-2.13-1.33c-2.89.08-3,0-3.55,2.8a39.5,39.5,0,0,0-.43,5.44c-.06,1.2,0,2.41,0,3.72h-4.2c.19-3.26,0-6.51.65-9.61,1.08-5.51,2.63-10.92,4-16.45,3.1,0,6.13-.07,9.16,0a3.45,3.45,0,0,0,3.25-1.35c.39-.54.85-1,1.36-1.63l3,3.24c-1.16,1.07-2.4,2.28-3.71,3.41a2,2,0,0,1-1.23.31c-2.54,0-5.09,0-7.64,0-.75,0-1.1.18-1.26,1C139.27,116,138.81,117.66,138.34,119.57Z"/><path class="cls-3" d="M174.11,135.25c-1.23-1-2.35-1.82-3.36-2.76a3.44,3.44,0,0,0-2.66-.92c-2.46.06-4.91,0-7.59,0,0-1.83.13-3.56,0-5.27a8.29,8.29,0,0,1,1.89-6.32c1.12-1.37,1.72-3.49,3.11-4.24s3.48-.27,5.27-.26c1.64,0,3.56-.41,4.85.29s1.85,2.53,2.73,3.87c.56.86,1.12,1.72,1.85,2.82,4.38-3.42,9.47-3.21,14.66-2.85v3.75c-2.79.15-5.71-.1-8.39.56s-5.21,2.27-7.88,3.49c-1.52-2.34-3-4.6-4.45-6.91a1.66,1.66,0,0,0-1.82-1,.62.62,0,0,1-.27,0c-3.42-.72-5.77.62-7,3.83a25.43,25.43,0,0,0-.79,4.22c2.12,0,3.89,0,5.65,0a3.75,3.75,0,0,1,1.93.66c1.6,1.2,3.12,2.53,4.78,3.89Z"/><path class="cls-3" d="M194.87,143.58v4H180.56c0-1.7-.09-3.39,0-5a3,3,0,0,0-1.47-3.15,16.38,16.38,0,0,1-1.81-1.48l2.53-3.11c1.52,1.25,3,2.43,4.44,3.69.26.24.28.81.3,1.24,0,1.24,0,2.48,0,3.9Z"/><path class="cls-3" d="M160.49,142l2.18,3.36-2.9,1.88c-.64.41-1.26.85-1.92,1.22-2.61,1.44-4.92,3.2-6.16,6.15l-3.38-2.27c1.47-2.5,2.95-4.78,5.58-6.17C156.16,144.93,158.25,143.39,160.49,142Z"/><path class="cls-3" d="M142.28,139.71v3.81H130.33v-3.81Z"/><path class="cls-3" d="M190.61,131.46h-3.85v-3.84h3.85Z"/><path class="cls-3" d="M150.22,143.55h-3.77v-3.88h3.77Z"/><path class="cls-3" d="M108.12,119.33v-3.75H112v3.75Z"/></svg>