<svg id="Layer_1" data-name="Layer 1" xmlns="http://www.w3.org/2000/svg" viewBox="0 0 654 250"><defs><style>.cls-1{fill:none;stroke:#f26e25;stroke-miterlimit:10;stroke-width:2.61px;}.cls-2{fill:#f26e25;}.cls-3{opacity:0.15;}.cls-4{fill:#fff;}</style></defs><polygon class="cls-1" points="12.15 125 126.14 238.98 528.45 238.98 642.43 125 528.45 11.02 126.14 11.02 12.15 125"/><path class="cls-2" d="M384.05,109.81l0-7.67-3.76,6.32h-1.33l-3.75-6.15v7.5h-2.78V97h2.45l4.79,7.94L384.36,97h2.43l0,12.78Z"/><path class="cls-2" d="M389.86,97h3v12.78h-3Z"/><path class="cls-2" d="M395.85,97h3V107.4h6.42v2.41h-9.38Z"/><path class="cls-2" d="M406.89,97h3V107.4h6.41v2.41h-9.37Z"/><path class="cls-2" d="M417.92,97h3v12.78h-3Z"/><path class="cls-2" d="M426.52,109.17a6.41,6.41,0,0,1-2.51-2.36,6.52,6.52,0,0,1,2.51-9.15,8,8,0,0,1,7.17,0,6.55,6.55,0,0,1,2.5,2.37,6.52,6.52,0,0,1-2.5,9.14,7.9,7.9,0,0,1-7.17,0Zm5.63-2.18a3.78,3.78,0,0,0,1.44-1.45,4.58,4.58,0,0,0,0-4.24,3.78,3.78,0,0,0-1.44-1.45,4.28,4.28,0,0,0-4.09,0,3.69,3.69,0,0,0-1.43,1.45,4.58,4.58,0,0,0,0,4.24,3.69,3.69,0,0,0,1.43,1.45,4.28,4.28,0,0,0,4.09,0Z"/><path class="cls-2" d="M451.06,97v12.78h-2.43l-6.37-7.76v7.76h-2.93V97h2.45l6.36,7.76V97Z"/><path class="cls-2" d="M462.41,104.53h-3.18v3.11h-2.36v-3.11h-3.16v-2.22h3.16V99.2h2.36v3.11h3.18Z"/><path class="cls-2" d="M398.86,73.21v6.55H372.63V74.55L386,61.9a14.06,14.06,0,0,0,2.87-3.49,6.32,6.32,0,0,0,.75-2.9,3.81,3.81,0,0,0-1.42-3.2,6.59,6.59,0,0,0-4.14-1.12,9.45,9.45,0,0,0-4.11.87,7.94,7.94,0,0,0-3.08,2.6L371,50.9a13.73,13.73,0,0,1,5.6-4.74,18.74,18.74,0,0,1,8.19-1.71,16.9,16.9,0,0,1,6.77,1.26,10.59,10.59,0,0,1,4.51,3.57,9.28,9.28,0,0,1,1.61,5.43A12.14,12.14,0,0,1,396.53,60a20.32,20.32,0,0,1-4.61,5.65l-8,7.54Z"/><path class="cls-2" d="M424.92,61a9.69,9.69,0,0,1,3.49,7.84,10.84,10.84,0,0,1-1.58,5.77A11.06,11.06,0,0,1,422,78.79a18.39,18.39,0,0,1-8,1.56,27.06,27.06,0,0,1-7.21-1,18.62,18.62,0,0,1-6-2.75l3.18-6.15a15.06,15.06,0,0,0,4.56,2.31,17.63,17.63,0,0,0,5.31.82,8.36,8.36,0,0,0,4.76-1.19,3.82,3.82,0,0,0,1.73-3.32,3.74,3.74,0,0,0-1.81-3.38c-1.2-.76-3.3-1.14-6.27-1.14h-8.88L405.11,45h21.17v6.45H411.8l-.54,6.6h2.82Q421.43,58.09,424.92,61Z"/><path class="cls-2" d="M438.88,78.22a14.28,14.28,0,0,1-5.28-6.17,22.33,22.33,0,0,1-1.91-9.65,22.28,22.28,0,0,1,1.91-9.64,14.25,14.25,0,0,1,5.28-6.18,14.93,14.93,0,0,1,15.37,0,14.25,14.25,0,0,1,5.28,6.18,22.43,22.43,0,0,1,1.91,9.64,22.48,22.48,0,0,1-1.91,9.65,14.28,14.28,0,0,1-5.28,6.17,14.93,14.93,0,0,1-15.37,0Zm12.67-7.39c1.2-1.82,1.81-4.63,1.81-8.43s-.61-6.61-1.81-8.43a5.87,5.87,0,0,0-9.92,0q-1.81,2.73-1.81,8.43t1.81,8.43a5.87,5.87,0,0,0,9.92,0Z"/><path d="M333,150.21v0a3.62,3.62,0,0,1-1.19,2.84,4.58,4.58,0,0,1-3.24,1.14,4.24,4.24,0,0,1-3.33-1.45,5.3,5.3,0,0,1-1.29-3.67V147a5.33,5.33,0,0,1,1.29-3.68,4.25,4.25,0,0,1,3.33-1.46,4.74,4.74,0,0,1,3.26,1.09,3.63,3.63,0,0,1,1.17,2.89v.05H331.4a2.71,2.71,0,0,0-.74-2,2.84,2.84,0,0,0-2.11-.74,2.58,2.58,0,0,0-2.18,1.1,4.49,4.49,0,0,0-.81,2.73v2.17a4.55,4.55,0,0,0,.81,2.75,2.58,2.58,0,0,0,2.18,1.1,2.88,2.88,0,0,0,2.11-.74,2.71,2.71,0,0,0,.74-2Z"/><path d="M344.31,149.12a5.14,5.14,0,0,1-1.37,3.67,4.65,4.65,0,0,1-3.55,1.45,4.43,4.43,0,0,1-3.44-1.45,5.28,5.28,0,0,1-1.32-3.67V147A5.28,5.28,0,0,1,336,143.3a4.41,4.41,0,0,1,3.44-1.47,4.63,4.63,0,0,1,3.55,1.47,5.12,5.12,0,0,1,1.37,3.67ZM342.68,147a4.08,4.08,0,0,0-.89-2.71,3,3,0,0,0-2.4-1.06,2.77,2.77,0,0,0-2.28,1.06,4.22,4.22,0,0,0-.85,2.71v2.17a4.28,4.28,0,0,0,.85,2.73,2.77,2.77,0,0,0,2.28,1.06,3,3,0,0,0,2.4-1.06,4,4,0,0,0,.89-2.73Z"/><path d="M350.15,150.91l.27,1h.05l.27-1,3.12-8.9h1.76l-4.48,12.06h-1.4L345.26,142H347Z"/><path d="M359,154.07h-1.64V142H359Z"/><path d="M362,154.07V142h3.79a5,5,0,0,1,5.24,5.21v1.65a5,5,0,0,1-5.24,5.2Zm1.63-10.78v9.5h2.16a3.3,3.3,0,0,0,2.64-1.1,4.12,4.12,0,0,0,1-2.82V147.2a4.13,4.13,0,0,0-1-2.81,3.33,3.33,0,0,0-2.64-1.1Z"/><path d="M378.36,149.61h-4.89v-1.27h4.89Z"/><path d="M385.62,154.07H384V143.52l-2.63,0v-1.26l4.27-.45Z"/><path d="M393.43,153a2.45,2.45,0,0,0,1.91-.81,3.38,3.38,0,0,0,.72-2.31v-1a2.64,2.64,0,0,1-1,.89,2.83,2.83,0,0,1-1.3.3,3.52,3.52,0,0,1-2.72-1.07,4.86,4.86,0,0,1,.06-6,3.38,3.38,0,0,1,2.6-1.16,3.84,3.84,0,0,1,2.9,1.14,4.43,4.43,0,0,1,1.09,3.21v3.66a4.35,4.35,0,0,1-1.19,3.24,4.21,4.21,0,0,1-3.08,1.16,6.51,6.51,0,0,1-1.3-.13,6.28,6.28,0,0,1-1.25-.39l.25-1.24a4.92,4.92,0,0,0,1.07.38A6.46,6.46,0,0,0,393.43,153Zm.34-4.23a2.54,2.54,0,0,0,1.44-.39,2.31,2.31,0,0,0,.85-1v-1.43a3.2,3.2,0,0,0-.6-2.08,2.08,2.08,0,0,0-1.7-.73,1.77,1.77,0,0,0-1.48.79,3.38,3.38,0,0,0-.59,2.06,3.41,3.41,0,0,0,.54,2A1.79,1.79,0,0,0,393.77,148.74Z"/><path d="M407.23,151.43l.14.63h.05l.16-.63,2.06-6.32h1.66l-3.29,9h-1.24l-3.34-9h1.68Z"/><path d="M418.15,154.07c0-.27-.1-.51-.13-.72s0-.41,0-.62a3.76,3.76,0,0,1-1.19,1.08,3,3,0,0,1-1.58.43,3,3,0,0,1-2.13-.71,2.64,2.64,0,0,1-.73-2,2.32,2.32,0,0,1,1-2,4.87,4.87,0,0,1,2.82-.72H418v-.89a1.66,1.66,0,0,0-.48-1.25,1.91,1.91,0,0,0-1.36-.46,2,2,0,0,0-1.28.4,1.2,1.2,0,0,0-.49.95l-1.55,0,0-.05a2.15,2.15,0,0,1,.92-1.79,3.8,3.8,0,0,1,2.51-.81,3.66,3.66,0,0,1,2.45.78,2.73,2.73,0,0,1,.93,2.23v4.31c0,.32,0,.63,0,.93a6.54,6.54,0,0,0,.18.88Zm-2.71-1.19a2.93,2.93,0,0,0,1.6-.46,2.11,2.11,0,0,0,.93-1v-1.46h-1.83a2.34,2.34,0,0,0-1.58.5,1.49,1.49,0,0,0-.59,1.16,1.23,1.23,0,0,0,.37.95A1.58,1.58,0,0,0,415.44,152.88Z"/><path d="M425.53,153a1.94,1.94,0,0,0,1.32-.5,1.58,1.58,0,0,0,.56-1.23h1.48l0,0a2.57,2.57,0,0,1-1,2.05,3.52,3.52,0,0,1-2.39.9,3.49,3.49,0,0,1-2.91-1.28,4.93,4.93,0,0,1-1-3.2v-.35a4.92,4.92,0,0,1,1-3.18,3.52,3.52,0,0,1,2.91-1.29,3.39,3.39,0,0,1,2.46.93,3,3,0,0,1,.92,2.28v0h-1.49a2,2,0,0,0-.53-1.4,1.79,1.79,0,0,0-1.35-.58,1.89,1.89,0,0,0-1.75.94,4.31,4.31,0,0,0-.55,2.25v.35a4.47,4.47,0,0,0,.54,2.28A1.88,1.88,0,0,0,425.53,153Z"/><path d="M434.41,153a1.94,1.94,0,0,0,1.32-.5,1.58,1.58,0,0,0,.56-1.23h1.48l0,0a2.57,2.57,0,0,1-1,2.05,3.52,3.52,0,0,1-2.39.9A3.49,3.49,0,0,1,431.5,153a4.93,4.93,0,0,1-1-3.2v-.35a4.92,4.92,0,0,1,1-3.18,3.52,3.52,0,0,1,2.91-1.29,3.39,3.39,0,0,1,2.46.93,3,3,0,0,1,.92,2.28v0h-1.49a2,2,0,0,0-.53-1.4,1.79,1.79,0,0,0-1.35-.58,1.89,1.89,0,0,0-1.75.94,4.31,4.31,0,0,0-.55,2.25v.35a4.47,4.47,0,0,0,.54,2.28A1.88,1.88,0,0,0,434.41,153Z"/><path d="M441.5,142.81h-1.64v-1.66h1.64Zm0,11.26h-1.64v-9h1.64Z"/><path d="M445.46,145.11l.12,1.33a3.39,3.39,0,0,1,1.12-1.11,3,3,0,0,1,1.54-.39,2.91,2.91,0,0,1,2.24.85,3.73,3.73,0,0,1,.8,2.62v5.66h-1.63v-5.63a2.44,2.44,0,0,0-.47-1.68,1.88,1.88,0,0,0-1.43-.49,2.55,2.55,0,0,0-1.28.3,2.12,2.12,0,0,0-.83.85v6.65H444v-9Z"/><path d="M457.36,154.24a3.79,3.79,0,0,1-3-1.23,4.76,4.76,0,0,1-1.08-3.25v-.36a4.69,4.69,0,0,1,1.11-3.2,3.49,3.49,0,0,1,2.72-1.26,3.25,3.25,0,0,1,2.7,1.12,4.59,4.59,0,0,1,.9,3v.86H455l0,.05a3.68,3.68,0,0,0,.6,2.19,2.07,2.07,0,0,0,1.82.84,4,4,0,0,0,1.45-.24,3.1,3.1,0,0,0,1.07-.65l.64,1.06a3.82,3.82,0,0,1-1.27.78A4.85,4.85,0,0,1,457.36,154.24Zm-.26-8a1.76,1.76,0,0,0-1.41.66,3.11,3.11,0,0,0-.68,1.69v0h4v-.13a2.64,2.64,0,0,0-.48-1.62A1.74,1.74,0,0,0,457.1,146.22Z"/><path d="M466.37,149.75a6,6,0,0,1,.92-3.48,3,3,0,0,1,2.59-1.33,3.27,3.27,0,0,1,1.4.29,2.92,2.92,0,0,1,1,.85v-4.93H474v12.92H472.7l-.25-1.14a2.81,2.81,0,0,1-1.08,1,3.28,3.28,0,0,1-1.5.33,3.05,3.05,0,0,1-2.57-1.19,4.91,4.91,0,0,1-.93-3.12Zm1.63.18a3.79,3.79,0,0,0,.56,2.17,1.92,1.92,0,0,0,1.72.82,2.17,2.17,0,0,0,1.23-.33,2.47,2.47,0,0,0,.81-.93v-4.18a2.51,2.51,0,0,0-.82-.89,2.19,2.19,0,0,0-1.2-.32,1.86,1.86,0,0,0-1.74,1,5,5,0,0,0-.56,2.51Z"/><path d="M476,149.51a4.93,4.93,0,0,1,1.08-3.28,3.61,3.61,0,0,1,2.92-1.29,3.66,3.66,0,0,1,2.95,1.28,4.94,4.94,0,0,1,1.08,3.29v.18A4.91,4.91,0,0,1,483,153a4,4,0,0,1-5.86,0,4.84,4.84,0,0,1-1.09-3.27Zm1.64.18a4.25,4.25,0,0,0,.6,2.35,2.16,2.16,0,0,0,3.55,0,4.17,4.17,0,0,0,.61-2.35v-.18a4.21,4.21,0,0,0-.61-2.35,2,2,0,0,0-1.79-.94,2,2,0,0,0-1.76.94,4.29,4.29,0,0,0-.6,2.35Z"/><path d="M491.24,151.66a1.1,1.1,0,0,0-.41-.88,4.07,4.07,0,0,0-1.56-.6,6.44,6.44,0,0,1-2.43-1,1.93,1.93,0,0,1-.85-1.64,2.34,2.34,0,0,1,.94-1.87,4.1,4.1,0,0,1,4.88.05,2.35,2.35,0,0,1,.9,1.93v.05h-1.56a1.39,1.39,0,0,0-.51-1.05,1.81,1.81,0,0,0-1.29-.48,1.88,1.88,0,0,0-1.29.39,1.23,1.23,0,0,0-.42.93,1,1,0,0,0,.36.82,4,4,0,0,0,1.52.53,6.36,6.36,0,0,1,2.51,1,2,2,0,0,1,.85,1.66,2.34,2.34,0,0,1-1,2,4.62,4.62,0,0,1-5.22-.12,2.44,2.44,0,0,1-.93-2v-.05h1.56a1.52,1.52,0,0,0,.65,1.28,2.53,2.53,0,0,0,1.41.4,2.24,2.24,0,0,0,1.36-.37A1.14,1.14,0,0,0,491.24,151.66Z"/><path d="M498.61,154.24a3.79,3.79,0,0,1-3-1.23,4.76,4.76,0,0,1-1.08-3.25v-.36a4.69,4.69,0,0,1,1.11-3.2,3.49,3.49,0,0,1,2.72-1.26,3.25,3.25,0,0,1,2.7,1.12,4.59,4.59,0,0,1,.9,3v.86h-5.73l0,.05a3.68,3.68,0,0,0,.6,2.19,2.07,2.07,0,0,0,1.82.84,4,4,0,0,0,1.45-.24,3.24,3.24,0,0,0,1.08-.65l.63,1.06a3.87,3.87,0,0,1-1.26.78A4.94,4.94,0,0,1,498.61,154.24Zm-.26-8a1.76,1.76,0,0,0-1.41.66,3.11,3.11,0,0,0-.68,1.69v0h4.05v-.13a2.64,2.64,0,0,0-.48-1.62A1.76,1.76,0,0,0,498.35,146.22Z"/><path d="M509,151.66a1.1,1.1,0,0,0-.41-.88,4,4,0,0,0-1.55-.6,6.43,6.43,0,0,1-2.44-1,1.93,1.93,0,0,1-.84-1.64,2.36,2.36,0,0,1,.93-1.87,4.1,4.1,0,0,1,4.88.05,2.35,2.35,0,0,1,.9,1.93v.05h-1.56a1.39,1.39,0,0,0-.51-1.05,1.81,1.81,0,0,0-1.29-.48,1.88,1.88,0,0,0-1.29.39,1.23,1.23,0,0,0-.42.93,1,1,0,0,0,.37.82,3.9,3.9,0,0,0,1.52.53,6.37,6.37,0,0,1,2.5,1,2,2,0,0,1,.85,1.66,2.36,2.36,0,0,1-1,2,4,4,0,0,1-2.53.75,4,4,0,0,1-2.7-.87,2.47,2.47,0,0,1-.93-2v-.05h1.56a1.52,1.52,0,0,0,.65,1.28,2.53,2.53,0,0,0,1.41.4,2.3,2.3,0,0,0,1.37-.37A1.15,1.15,0,0,0,509,151.66Z"/><path d="M338.09,166.66a3.3,3.3,0,0,1,1.14-1,3.14,3.14,0,0,1,1.5-.36,2.91,2.91,0,0,1,2.23.86,3.8,3.8,0,0,1,.8,2.65v5.62h-1.63v-5.64a2.4,2.4,0,0,0-.48-1.64,1.83,1.83,0,0,0-1.42-.53,2.68,2.68,0,0,0-1.27.29,2.31,2.31,0,0,0-.87.8v6.72h-1.63V161.5h1.63Z"/><path d="M351.61,174.43c-.05-.27-.1-.51-.13-.72s0-.42-.05-.63a3.68,3.68,0,0,1-1.19,1.09,3,3,0,0,1-1.58.43,2.92,2.92,0,0,1-2.13-.72,2.6,2.6,0,0,1-.73-2,2.29,2.29,0,0,1,1-2,4.86,4.86,0,0,1,2.82-.73h1.77v-.88A1.65,1.65,0,0,0,351,167a2.24,2.24,0,0,0-2.64-.06,1.17,1.17,0,0,0-.49,1l-1.55,0,0,0a2.15,2.15,0,0,1,.92-1.79,3.78,3.78,0,0,1,2.51-.81,3.71,3.71,0,0,1,2.45.77,2.75,2.75,0,0,1,.93,2.24v4.31c0,.32,0,.63.05.93a4.44,4.44,0,0,0,.18.88Zm-2.71-1.2a2.93,2.93,0,0,0,1.6-.45,2.13,2.13,0,0,0,.93-1.05v-1.45H349.6a2.39,2.39,0,0,0-1.58.49,1.5,1.5,0,0,0-.59,1.17,1.24,1.24,0,0,0,.37.95A1.58,1.58,0,0,0,348.9,173.23Z"/><path d="M358.3,171.78l.14.63h.05l.15-.63,2.07-6.32h1.66l-3.29,9h-1.24l-3.34-9h1.68Z"/><path d="M367.44,174.6a3.8,3.8,0,0,1-3-1.23,4.78,4.78,0,0,1-1.08-3.25v-.37a4.66,4.66,0,0,1,1.11-3.19,3.51,3.51,0,0,1,2.72-1.26,3.25,3.25,0,0,1,2.7,1.12,4.58,4.58,0,0,1,.9,3v.86h-5.73l0,0a3.68,3.68,0,0,0,.6,2.19,2.08,2.08,0,0,0,1.82.84,4.11,4.11,0,0,0,1.46-.23,3.48,3.48,0,0,0,1.07-.65l.64,1.06a3.92,3.92,0,0,1-1.27.78A5.14,5.14,0,0,1,367.44,174.6Zm-.26-8a1.79,1.79,0,0,0-1.41.66,3.11,3.11,0,0,0-.68,1.69l0,0h4v-.13a2.62,2.62,0,0,0-.48-1.62A1.74,1.74,0,0,0,367.18,166.58Z"/><path d="M384.48,170.28a4.92,4.92,0,0,1-.93,3.13A3.09,3.09,0,0,1,381,174.6a3.32,3.32,0,0,1-1.56-.35,2.93,2.93,0,0,1-1.09-1l-.26,1.22h-1.25V161.5h1.63v5a2.87,2.87,0,0,1,1.05-.91,3.17,3.17,0,0,1,1.46-.31,3,3,0,0,1,2.58,1.32,6,6,0,0,1,.93,3.49Zm-1.63-.17a4.91,4.91,0,0,0-.57-2.51,1.87,1.87,0,0,0-1.73-1,2.19,2.19,0,0,0-1.27.37,2.66,2.66,0,0,0-.82,1v3.89a2.66,2.66,0,0,0,.82,1,2.12,2.12,0,0,0,1.29.38,2,2,0,0,0,1.72-.82,3.83,3.83,0,0,0,.56-2.18Z"/><path d="M390.18,174.6a3.79,3.79,0,0,1-3-1.23,4.78,4.78,0,0,1-1.08-3.25v-.37a4.66,4.66,0,0,1,1.11-3.19,3.49,3.49,0,0,1,2.72-1.26,3.25,3.25,0,0,1,2.7,1.12,4.58,4.58,0,0,1,.9,3v.86h-5.73l0,0a3.68,3.68,0,0,0,.6,2.19,2.07,2.07,0,0,0,1.82.84,4,4,0,0,0,1.45-.23,3.42,3.42,0,0,0,1.08-.65l.63,1.06a3.87,3.87,0,0,1-1.26.78A5.14,5.14,0,0,1,390.18,174.6Zm-.26-8a1.76,1.76,0,0,0-1.41.66,3.11,3.11,0,0,0-.68,1.69v0h4.05v-.13a2.56,2.56,0,0,0-.49-1.62A1.72,1.72,0,0,0,389.92,166.58Z"/><path d="M399.06,174.6a3.79,3.79,0,0,1-3-1.23,4.78,4.78,0,0,1-1.08-3.25v-.37a4.66,4.66,0,0,1,1.11-3.19,3.49,3.49,0,0,1,2.72-1.26,3.25,3.25,0,0,1,2.7,1.12,4.58,4.58,0,0,1,.9,3v.86h-5.73l0,0a3.68,3.68,0,0,0,.6,2.19,2.07,2.07,0,0,0,1.82.84,4,4,0,0,0,1.45-.23,3.42,3.42,0,0,0,1.08-.65l.63,1.06a3.87,3.87,0,0,1-1.26.78A5.14,5.14,0,0,1,399.06,174.6Zm-.26-8a1.76,1.76,0,0,0-1.41.66,3.11,3.11,0,0,0-.68,1.69v0h4v-.13a2.56,2.56,0,0,0-.49-1.62A1.72,1.72,0,0,0,398.8,166.58Z"/><path d="M405.69,165.46l.11,1.34a3.21,3.21,0,0,1,1.12-1.11,3,3,0,0,1,1.54-.39,2.92,2.92,0,0,1,2.25.85,3.72,3.72,0,0,1,.79,2.62v5.66h-1.63V168.8a2.43,2.43,0,0,0-.47-1.68,1.88,1.88,0,0,0-1.43-.5,2.45,2.45,0,0,0-1.28.31,2.12,2.12,0,0,0-.83.85v6.65h-1.63v-9Z"/><path d="M417.71,170.11a6,6,0,0,1,.93-3.49,3,3,0,0,1,2.59-1.32,3.09,3.09,0,0,1,1.39.29,2.81,2.81,0,0,1,1,.84V161.5h1.63v12.93H424l-.25-1.14a2.89,2.89,0,0,1-1.08,1,3.25,3.25,0,0,1-1.5.33,3.09,3.09,0,0,1-2.57-1.19,4.92,4.92,0,0,1-.93-3.13Zm1.64.17a3.81,3.81,0,0,0,.55,2.18,1.94,1.94,0,0,0,1.72.82,2.17,2.17,0,0,0,1.23-.34,2.51,2.51,0,0,0,.81-.92v-4.19a2.55,2.55,0,0,0-.81-.88,2.17,2.17,0,0,0-1.21-.33,1.9,1.9,0,0,0-1.74,1,5.06,5.06,0,0,0-.55,2.52Z"/><path d="M429.49,163.17h-1.63V161.5h1.63Zm0,11.26h-1.63v-9h1.63Z"/><path d="M437.21,172a1.06,1.06,0,0,0-.41-.88,3.85,3.85,0,0,0-1.55-.6,6.37,6.37,0,0,1-2.43-.95A1.92,1.92,0,0,1,432,168a2.36,2.36,0,0,1,.93-1.87,3.65,3.65,0,0,1,2.42-.78,3.54,3.54,0,0,1,2.46.83,2.36,2.36,0,0,1,.91,1.93l0,.05h-1.56a1.43,1.43,0,0,0-.51-1.06,1.82,1.82,0,0,0-1.28-.47A1.84,1.84,0,0,0,434,167a1.2,1.2,0,0,0-.43.93,1,1,0,0,0,.37.82,4.15,4.15,0,0,0,1.52.53,6.31,6.31,0,0,1,2.5,1,2,2,0,0,1,.85,1.66,2.37,2.37,0,0,1-1,1.95,4,4,0,0,1-2.52.75,3.91,3.91,0,0,1-2.7-.87,2.49,2.49,0,0,1-.94-2l0,0h1.56a1.48,1.48,0,0,0,.64,1.27,2.49,2.49,0,0,0,1.42.4,2.26,2.26,0,0,0,1.36-.36A1.13,1.13,0,0,0,437.21,172Z"/><path d="M443.14,163.3v2.16h1.7v1.21h-1.7v5.45a1.22,1.22,0,0,0,.26.88,1,1,0,0,0,.7.26,1.2,1.2,0,0,0,.31,0,1.48,1.48,0,0,0,.29-.08l.22,1.12a1.54,1.54,0,0,1-.53.25,2.94,2.94,0,0,1-.71.09,2.11,2.11,0,0,1-1.58-.6,2.61,2.61,0,0,1-.59-1.88v-5.45h-1.42v-1.21h1.42V163.3Z"/><path d="M450.83,166.91l-.84,0a1.86,1.86,0,0,0-1.08.3,2,2,0,0,0-.69.86v6.41h-1.63v-9h1.46l.16,1.31a3.09,3.09,0,0,1,.93-1.08,2.23,2.23,0,0,1,1.29-.39,2,2,0,0,1,.35,0l.27.06Z"/><path d="M454.29,163.17h-1.63V161.5h1.63Zm0,11.26h-1.63v-9h1.63Z"/><path d="M464.46,170.28a4.92,4.92,0,0,1-.93,3.13A3.11,3.11,0,0,1,461,174.6a3.28,3.28,0,0,1-1.55-.35,2.93,2.93,0,0,1-1.09-1l-.27,1.22H456.8V161.5h1.63v5a3,3,0,0,1,1.05-.91,3.25,3.25,0,0,1,1.47-.31,3,3,0,0,1,2.58,1.32,6,6,0,0,1,.93,3.49Zm-1.64-.17a4.91,4.91,0,0,0-.56-2.51,1.88,1.88,0,0,0-1.73-1,2.17,2.17,0,0,0-1.27.37,2.69,2.69,0,0,0-.83,1v3.89a2.68,2.68,0,0,0,.83,1,2.12,2.12,0,0,0,1.29.38,2,2,0,0,0,1.71-.82,3.75,3.75,0,0,0,.56-2.18Z"/><path d="M472.14,173.1a3.14,3.14,0,0,1-1.09,1.11,3,3,0,0,1-1.53.39,2.87,2.87,0,0,1-2.29-.94,4.3,4.3,0,0,1-.82-2.91v-5.29H468v5.31a3.27,3.27,0,0,0,.43,2,1.56,1.56,0,0,0,1.31.54,2.65,2.65,0,0,0,1.44-.36,2.17,2.17,0,0,0,.86-1v-6.46h1.63v9h-1.47Z"/><path d="M478.36,163.3v2.16h1.69v1.21h-1.69v5.45a1.17,1.17,0,0,0,.26.88.94.94,0,0,0,.69.26,1.2,1.2,0,0,0,.31,0,1.3,1.3,0,0,0,.29-.08l.23,1.12a1.51,1.51,0,0,1-.54.25,2.86,2.86,0,0,1-.7.09,2.12,2.12,0,0,1-1.59-.6,2.61,2.61,0,0,1-.59-1.88v-5.45H475.3v-1.21h1.42V163.3Z"/><path d="M485.51,174.6a3.8,3.8,0,0,1-3-1.23,4.78,4.78,0,0,1-1.08-3.25v-.37a4.62,4.62,0,0,1,1.12-3.19,3.49,3.49,0,0,1,2.72-1.26,3.24,3.24,0,0,1,2.69,1.12,4.58,4.58,0,0,1,.9,3v.86h-5.73l0,0a3.68,3.68,0,0,0,.6,2.19,2.09,2.09,0,0,0,1.82.84,4.07,4.07,0,0,0,1.46-.23,3.48,3.48,0,0,0,1.07-.65l.64,1.06a3.82,3.82,0,0,1-1.27.78A5.1,5.1,0,0,1,485.51,174.6Zm-.25-8a1.8,1.8,0,0,0-1.42.66,3.11,3.11,0,0,0-.68,1.69l0,0h4v-.13a2.62,2.62,0,0,0-.48-1.62A1.72,1.72,0,0,0,485.26,166.58Z"/><path d="M490.31,170.11a6,6,0,0,1,.92-3.49,3,3,0,0,1,2.59-1.32,3.13,3.13,0,0,1,1.4.29,2.89,2.89,0,0,1,1,.84V161.5h1.63v12.93h-1.25l-.25-1.14a2.84,2.84,0,0,1-1.09,1,3.24,3.24,0,0,1-1.49.33,3.08,3.08,0,0,1-2.57-1.19,4.92,4.92,0,0,1-.93-3.13Zm1.63.17a3.81,3.81,0,0,0,.56,2.18,1.94,1.94,0,0,0,1.72.82,2.2,2.2,0,0,0,1.23-.34,2.51,2.51,0,0,0,.81-.92v-4.19a2.48,2.48,0,0,0-.82-.88,2.11,2.11,0,0,0-1.2-.33,1.88,1.88,0,0,0-1.74,1,5.06,5.06,0,0,0-.56,2.52Z"/><path d="M312.08,191.52l.2,1.15h.05l.22-1.15,1.79-5.7h1.31l1.79,5.7.23,1.28h.05l.27-1.28,1.32-5.7H321l-2.6,9H317.1l-1.77-5.45L315,187.9h-.05l-.31,1.43-1.74,5.45h-1.32l-2.6-9h1.7Z"/><path d="M324.38,183.53h-1.63v-1.67h1.63Zm0,11.25h-1.63v-9h1.63Z"/><path d="M329.16,183.66v2.16h1.7V187h-1.7v5.44a1.24,1.24,0,0,0,.26.89,1,1,0,0,0,.7.26,1.88,1.88,0,0,0,.31,0l.29-.08.22,1.12a1.38,1.38,0,0,1-.53.24,2.53,2.53,0,0,1-.71.1,2.11,2.11,0,0,1-1.58-.6,2.63,2.63,0,0,1-.59-1.89V187h-1.42v-1.21h1.42v-2.16Z"/><path d="M334.24,187a3.3,3.3,0,0,1,1.14-1,3.14,3.14,0,0,1,1.5-.36,2.87,2.87,0,0,1,2.23.86,3.8,3.8,0,0,1,.8,2.65v5.61h-1.63v-5.63a2.38,2.38,0,0,0-.48-1.64,1.83,1.83,0,0,0-1.42-.53,2.68,2.68,0,0,0-1.27.29,2.23,2.23,0,0,0-.87.8v6.71h-1.63V181.86h1.63Z"/><path d="M351.68,192.37a1.07,1.07,0,0,0-.41-.87,3.91,3.91,0,0,0-1.56-.6,6.61,6.61,0,0,1-2.43-1,2,2,0,0,1-.85-1.64,2.39,2.39,0,0,1,.94-1.88,3.67,3.67,0,0,1,2.41-.77,3.61,3.61,0,0,1,2.47.82,2.38,2.38,0,0,1,.9,1.93v.05h-1.56a1.43,1.43,0,0,0-.51-1.05,1.84,1.84,0,0,0-1.29-.47,1.88,1.88,0,0,0-1.29.39,1.23,1.23,0,0,0-.42.93,1,1,0,0,0,.37.82,4.08,4.08,0,0,0,1.52.53,6.54,6.54,0,0,1,2.5,1,2,2,0,0,1,.85,1.67,2.34,2.34,0,0,1-1,1.94,4.59,4.59,0,0,1-5.22-.11,2.45,2.45,0,0,1-.93-2V192h1.56a1.5,1.5,0,0,0,.65,1.27,2.46,2.46,0,0,0,1.41.4,2.23,2.23,0,0,0,1.37-.37A1.14,1.14,0,0,0,351.68,192.37Z"/><path d="M361,193.46a2.91,2.91,0,0,1-2.62,1.5,2.84,2.84,0,0,1-2.28-.94,4.3,4.3,0,0,1-.82-2.91v-5.29h1.63v5.3a3.32,3.32,0,0,0,.42,2,1.57,1.57,0,0,0,1.32.54,2.59,2.59,0,0,0,1.43-.35,2.16,2.16,0,0,0,.86-1v-6.46h1.63v9h-1.46Z"/><path d="M372.62,190.64a4.94,4.94,0,0,1-.93,3.13,3.07,3.07,0,0,1-2.56,1.19,3.44,3.44,0,0,1-1.45-.28,2.77,2.77,0,0,1-1.07-.83v4.38H365V185.82h1.25l.26,1.16a2.91,2.91,0,0,1,1.09-1,3.25,3.25,0,0,1,1.53-.34A3,3,0,0,1,371.7,187a6,6,0,0,1,.92,3.49Zm-1.63-.17a4.76,4.76,0,0,0-.6-2.51,2,2,0,0,0-1.77-1,2.19,2.19,0,0,0-1.2.32,2.43,2.43,0,0,0-.81.87v4.34a2.4,2.4,0,0,0,.81.86,2.2,2.2,0,0,0,1.21.31,2,2,0,0,0,1.76-.85,3.68,3.68,0,0,0,.6-2.19Z"/><path d="M382.26,190.64a4.94,4.94,0,0,1-.93,3.13,3.07,3.07,0,0,1-2.56,1.19,3.47,3.47,0,0,1-1.45-.28,2.77,2.77,0,0,1-1.07-.83v4.38h-1.63V185.82h1.25l.26,1.16a2.91,2.91,0,0,1,1.09-1,3.25,3.25,0,0,1,1.53-.34,3,3,0,0,1,2.59,1.32,6,6,0,0,1,.92,3.49Zm-1.63-.17A4.76,4.76,0,0,0,380,188a2,2,0,0,0-1.77-1,2.19,2.19,0,0,0-1.2.32,2.43,2.43,0,0,0-.81.87v4.34a2.4,2.4,0,0,0,.81.86,2.23,2.23,0,0,0,1.22.31,2,2,0,0,0,1.75-.85,3.68,3.68,0,0,0,.6-2.19Z"/><path d="M383.88,190.22a4.93,4.93,0,0,1,1.08-3.28,4,4,0,0,1,5.87,0,4.93,4.93,0,0,1,1.08,3.28v.18a4.89,4.89,0,0,1-1.08,3.28,4,4,0,0,1-5.86,0,4.88,4.88,0,0,1-1.09-3.28Zm1.64.18a4.23,4.23,0,0,0,.6,2.35,2.16,2.16,0,0,0,3.55,0,4.15,4.15,0,0,0,.61-2.35v-.18a4.16,4.16,0,0,0-.61-2.34,2,2,0,0,0-1.79-.94,2,2,0,0,0-1.76.94,4.24,4.24,0,0,0-.6,2.34Z"/><path d="M398.15,187.26l-.84,0a1.92,1.92,0,0,0-1.09.31,2,2,0,0,0-.68.86v6.4h-1.63v-9h1.45l.16,1.31a3.26,3.26,0,0,1,.94-1.09,2.28,2.28,0,0,1,1.29-.38l.35,0a1.31,1.31,0,0,1,.27.07Z"/><path d="M402.26,183.66v2.16H404V187h-1.69v5.44a1.2,1.2,0,0,0,.26.89.94.94,0,0,0,.69.26,1.88,1.88,0,0,0,.31,0,2.24,2.24,0,0,0,.29-.08l.23,1.12a1.36,1.36,0,0,1-.54.24,2.47,2.47,0,0,1-.7.1,2.13,2.13,0,0,1-1.59-.6,2.62,2.62,0,0,1-.58-1.89V187H399.2v-1.21h1.43v-2.16Z"/><path d="M410.6,194.78V187h-1.4v-1.21h1.4v-1.13a3.07,3.07,0,0,1,.75-2.22,2.75,2.75,0,0,1,2.09-.78,3.64,3.64,0,0,1,.57,0l.63.13-.2,1.24-.36,0a3.15,3.15,0,0,0-.44,0,1.26,1.26,0,0,0-1.06.43,1.93,1.93,0,0,0-.35,1.24v1.13h1.62V187h-1.62v7.75Z"/><path d="M419.74,187.26l-.83,0a1.89,1.89,0,0,0-1.09.31,1.92,1.92,0,0,0-.69.86v6.4H415.5v-9H417l.16,1.31a3.05,3.05,0,0,1,.94-1.09,2.25,2.25,0,0,1,1.29-.38l.34,0,.28.07Z"/><path d="M420.89,190.22a4.93,4.93,0,0,1,1.08-3.28,4,4,0,0,1,5.87,0,4.93,4.93,0,0,1,1.08,3.28v.18a4.89,4.89,0,0,1-1.08,3.28,4,4,0,0,1-5.86,0,4.94,4.94,0,0,1-1.09-3.28Zm1.64.18a4.23,4.23,0,0,0,.6,2.35,2,2,0,0,0,1.78.93,2,2,0,0,0,1.78-.93,4.23,4.23,0,0,0,.6-2.35v-.18a4.16,4.16,0,0,0-.61-2.34,2.15,2.15,0,0,0-3.55,0,4.24,4.24,0,0,0-.6,2.34Z"/><path d="M432.38,185.82l.11,1.18a3,3,0,0,1,1.12-1,3.26,3.26,0,0,1,1.56-.35,2.75,2.75,0,0,1,1.54.41,2.55,2.55,0,0,1,1,1.24,3.27,3.27,0,0,1,1.12-1.21,2.89,2.89,0,0,1,1.62-.44,2.67,2.67,0,0,1,2.16.94,4.27,4.27,0,0,1,.8,2.82v5.36h-1.64v-5.37a3,3,0,0,0-.45-1.88,1.67,1.67,0,0,0-1.36-.55,1.7,1.7,0,0,0-1.35.58A2.51,2.51,0,0,0,438,189v5.75h-1.64v-5.37a3,3,0,0,0-.47-1.85,1.65,1.65,0,0,0-1.35-.58,2.19,2.19,0,0,0-1.22.31,2,2,0,0,0-.74.86v6.63h-1.63v-9Z"/><path d="M452.23,183.66v2.16h1.7V187h-1.7v5.44a1.24,1.24,0,0,0,.26.89,1,1,0,0,0,.69.26,2,2,0,0,0,.32,0l.29-.08.22,1.12a1.36,1.36,0,0,1-.54.24,2.42,2.42,0,0,1-.7.1,2.11,2.11,0,0,1-1.58-.6,2.58,2.58,0,0,1-.59-1.89V187h-1.43v-1.21h1.43v-2.16Z"/><path d="M457.31,187a3.3,3.3,0,0,1,1.14-1,3.13,3.13,0,0,1,1.49-.36,2.89,2.89,0,0,1,2.24.86,3.8,3.8,0,0,1,.79,2.65v5.61h-1.63v-5.63a2.43,2.43,0,0,0-.47-1.64,1.84,1.84,0,0,0-1.42-.53,2.68,2.68,0,0,0-1.27.29,2.23,2.23,0,0,0-.87.8v6.71h-1.63V181.86h1.63Z"/><path d="M469,195a3.76,3.76,0,0,1-3-1.24,4.73,4.73,0,0,1-1.08-3.24v-.37a4.66,4.66,0,0,1,1.11-3.19,3.49,3.49,0,0,1,2.72-1.26,3.27,3.27,0,0,1,2.7,1.11,4.62,4.62,0,0,1,.9,3v.86h-5.73l0,0a3.68,3.68,0,0,0,.6,2.19,2.07,2.07,0,0,0,1.82.84,4.24,4.24,0,0,0,1.45-.23,3.42,3.42,0,0,0,1.08-.65l.63,1.06a3.87,3.87,0,0,1-1.26.78A5.14,5.14,0,0,1,469,195Zm-.26-8a1.76,1.76,0,0,0-1.41.66,3.11,3.11,0,0,0-.68,1.68v.05h4.05v-.14a2.53,2.53,0,0,0-.49-1.61A1.71,1.71,0,0,0,468.77,186.94Z"/><path d="M485.07,191.74a1.82,1.82,0,0,0-.59-1.37,4.87,4.87,0,0,0-2.07-1,6.79,6.79,0,0,1-2.87-1.34,2.8,2.8,0,0,1-1-2.23,3,3,0,0,1,1.11-2.36,4.29,4.29,0,0,1,2.88-.94,4.19,4.19,0,0,1,3,1.08,3.26,3.26,0,0,1,1.1,2.52l0,0h-1.56a2.24,2.24,0,0,0-.72-1.7,2.59,2.59,0,0,0-1.83-.67,2.5,2.5,0,0,0-1.75.56,1.85,1.85,0,0,0-.61,1.44,1.62,1.62,0,0,0,.66,1.31,6.31,6.31,0,0,0,2.17.93,6.05,6.05,0,0,1,2.78,1.39,3,3,0,0,1,.95,2.27,2.8,2.8,0,0,1-1.15,2.34,4.75,4.75,0,0,1-3,.89,5.1,5.1,0,0,1-3.09-1,3,3,0,0,1-1.3-2.62l0-.05h1.56a2.06,2.06,0,0,0,.86,1.76,3.25,3.25,0,0,0,1.95.61,2.91,2.91,0,0,0,1.83-.52A1.7,1.7,0,0,0,485.07,191.74Z"/><path d="M495,192.52H495l3.85-9.8h2v12.06h-1.63v-9h-.05l-3.65,9h-1.14l-3.76-9.34h-.05v9.33H489V182.72h2.14Z"/><path d="M505.55,194.78h-1.64V182.72h1.64Z"/><path d="M510.17,193.51h5.88v1.27h-7.51V182.72h1.63Z"/><path d="M524.45,189.19h-5v4.32h5.8v1.27h-7.43V182.72h7.34V184H519.5v3.9h5Z"/><path d="M359.86,210.83a5.93,5.93,0,0,1,.93-3.49,2.94,2.94,0,0,1,2.58-1.33,3.27,3.27,0,0,1,1.4.29,2.94,2.94,0,0,1,1,.85v-4.93h1.63v12.92h-1.25l-.25-1.13a2.86,2.86,0,0,1-1.08,1,3.25,3.25,0,0,1-1.5.34,3.08,3.08,0,0,1-2.57-1.19,5,5,0,0,1-.93-3.13Zm1.63.17a3.77,3.77,0,0,0,.56,2.17,1.92,1.92,0,0,0,1.72.82,2.17,2.17,0,0,0,1.23-.33,2.47,2.47,0,0,0,.81-.93v-4.18a2.4,2.4,0,0,0-.82-.88,2.11,2.11,0,0,0-1.2-.33,1.87,1.87,0,0,0-1.74,1,5,5,0,0,0-.56,2.52Z"/><path d="M371.64,203.88H370v-1.66h1.63Zm0,11.26H370v-9h1.63Z"/><path d="M373.86,210.83a5.93,5.93,0,0,1,.93-3.49,2.94,2.94,0,0,1,2.57-1.33,3.13,3.13,0,0,1,1.5.35,3,3,0,0,1,1.09,1l.2-1.17h1.3v9a3.46,3.46,0,0,1-1,2.65,4.16,4.16,0,0,1-2.89.92,6,6,0,0,1-1.4-.18,5.67,5.67,0,0,1-1.32-.48l.25-1.27a4.33,4.33,0,0,0,1.14.4,5.4,5.4,0,0,0,1.31.16,2.33,2.33,0,0,0,1.73-.55,2.21,2.21,0,0,0,.55-1.65v-1a3.07,3.07,0,0,1-1.05.86,3.37,3.37,0,0,1-1.42.29,3,3,0,0,1-2.56-1.19,5,5,0,0,1-.93-3.13Zm1.63.17a3.82,3.82,0,0,0,.56,2.17,1.91,1.91,0,0,0,1.71.82,2.13,2.13,0,0,0,1.24-.34,2.61,2.61,0,0,0,.82-.94v-4.13a2.67,2.67,0,0,0-.82-.91,2.2,2.2,0,0,0-1.22-.33,1.86,1.86,0,0,0-1.73,1,5,5,0,0,0-.56,2.52Z"/><path d="M385.56,203.88h-1.63v-1.66h1.63Zm0,11.26h-1.63v-9h1.63Z"/><path d="M390.34,204v2.16H392v1.21h-1.69v5.44a1.2,1.2,0,0,0,.26.89.93.93,0,0,0,.69.25l.31,0,.29-.08.23,1.12a1.36,1.36,0,0,1-.54.24,2.88,2.88,0,0,1-.7.1,2.1,2.1,0,0,1-1.59-.61,2.6,2.6,0,0,1-.59-1.88v-5.44h-1.42v-1.21h1.42V204Z"/><path d="M399.29,215.14c-.05-.27-.1-.51-.13-.72a4.21,4.21,0,0,1-.05-.62,3.76,3.76,0,0,1-1.19,1.08,3,3,0,0,1-1.58.44,2.92,2.92,0,0,1-2.13-.72,2.64,2.64,0,0,1-.73-2,2.32,2.32,0,0,1,1-2,4.87,4.87,0,0,1,2.82-.72h1.77V209a1.63,1.63,0,0,0-.48-1.24,1.87,1.87,0,0,0-1.36-.46,2,2,0,0,0-1.28.39,1.2,1.2,0,0,0-.49,1H394l0,0a2.16,2.16,0,0,1,.92-1.79,3.78,3.78,0,0,1,2.51-.81,3.67,3.67,0,0,1,2.45.78,2.73,2.73,0,0,1,.93,2.23v4.32a9,9,0,0,0,.05.92,4.44,4.44,0,0,0,.18.88ZM396.58,214a2.85,2.85,0,0,0,1.6-.46,2.11,2.11,0,0,0,.93-1V211h-1.83a2.37,2.37,0,0,0-1.58.5,1.5,1.5,0,0,0-.59,1.17,1.22,1.22,0,0,0,.37.94A1.58,1.58,0,0,0,396.58,214Z"/><path d="M404.87,215.14h-1.63V202.22h1.63Z"/><path d="M419.24,211a5,5,0,0,1-.93,3.13,3.07,3.07,0,0,1-2.56,1.19,3.6,3.6,0,0,1-1.45-.28,2.87,2.87,0,0,1-1.07-.83v4.38H411.6V206.18h1.25l.26,1.16a3,3,0,0,1,1.09-1,3.38,3.38,0,0,1,1.53-.34,3,3,0,0,1,2.58,1.32,6,6,0,0,1,.93,3.5Zm-1.63-.17a4.74,4.74,0,0,0-.6-2.51,2,2,0,0,0-1.77-1,2.11,2.11,0,0,0-1.2.32,2.34,2.34,0,0,0-.81.87v4.33a2.34,2.34,0,0,0,.81.87,2.2,2.2,0,0,0,1.21.31,2,2,0,0,0,1.76-.85,3.73,3.73,0,0,0,.6-2.19Z"/><path d="M423,215.14h-1.64V202.22H423Z"/><path d="M431,215.14q-.07-.4-.12-.72a6.2,6.2,0,0,1-.06-.62,3.76,3.76,0,0,1-1.19,1.08,3,3,0,0,1-1.57.44,2.93,2.93,0,0,1-2.14-.72,2.64,2.64,0,0,1-.73-2,2.34,2.34,0,0,1,1-2,4.87,4.87,0,0,1,2.82-.72h1.77V209a1.63,1.63,0,0,0-.48-1.24,1.87,1.87,0,0,0-1.36-.46,2,2,0,0,0-1.28.39,1.2,1.2,0,0,0-.49,1h-1.55v0a2.15,2.15,0,0,1,.91-1.79,3.8,3.8,0,0,1,2.51-.81,3.7,3.7,0,0,1,2.46.78,2.72,2.72,0,0,1,.92,2.23v4.32a9,9,0,0,0,0,.92,5.31,5.31,0,0,0,.19.88Zm-2.7-1.19a2.82,2.82,0,0,0,1.59-.46,2.11,2.11,0,0,0,.93-1V211H429a2.39,2.39,0,0,0-1.58.5,1.5,1.5,0,0,0-.59,1.17,1.26,1.26,0,0,0,.37.94A1.59,1.59,0,0,0,428.32,214Z"/><path d="M437.11,204v2.16h1.7v1.21h-1.7v5.44a1.24,1.24,0,0,0,.26.89,1,1,0,0,0,.7.25l.31,0,.29-.08.22,1.12a1.38,1.38,0,0,1-.53.24,3,3,0,0,1-.71.1,2.08,2.08,0,0,1-1.58-.61,2.6,2.6,0,0,1-.59-1.88v-5.44h-1.42v-1.21h1.42V204Z"/><path d="M441.24,215.14v-7.75h-1.4v-1.21h1.4V205a3.07,3.07,0,0,1,.75-2.21,2.77,2.77,0,0,1,2.09-.78,3.64,3.64,0,0,1,.57,0c.19,0,.4.07.63.13l-.2,1.24-.36-.06-.44,0a1.26,1.26,0,0,0-1.06.43,1.9,1.9,0,0,0-.35,1.23v1.14h1.62v1.21h-1.62v7.75Z"/><path d="M445.76,210.58a4.93,4.93,0,0,1,1.08-3.28,3.61,3.61,0,0,1,2.92-1.29,3.65,3.65,0,0,1,2.95,1.29,4.91,4.91,0,0,1,1.08,3.28v.18a4.89,4.89,0,0,1-1.08,3.28,4,4,0,0,1-5.87,0,4.93,4.93,0,0,1-1.08-3.28Zm1.63.18a4.25,4.25,0,0,0,.6,2.35,2,2,0,0,0,1.79.93,2,2,0,0,0,1.77-.93,4.25,4.25,0,0,0,.61-2.35v-.18a4.3,4.3,0,0,0-.61-2.35,2,2,0,0,0-1.79-.93,2,2,0,0,0-1.77.93,4.29,4.29,0,0,0-.6,2.35Z"/><path d="M460,207.62l-.84-.05a1.82,1.82,0,0,0-1.09.31,1.9,1.9,0,0,0-.68.86v6.4h-1.64v-9h1.46l.16,1.31a3.07,3.07,0,0,1,.94-1.09,2.19,2.19,0,0,1,1.29-.39,2,2,0,0,1,.35,0l.27.06Z"/><path d="M463.18,206.18l.12,1.17a3.11,3.11,0,0,1,1.11-1A3.4,3.4,0,0,1,466,206a2.75,2.75,0,0,1,1.54.42,2.43,2.43,0,0,1,1,1.24,3.3,3.3,0,0,1,1.13-1.21,2.89,2.89,0,0,1,1.61-.45,2.71,2.71,0,0,1,2.17.94,4.3,4.3,0,0,1,.79,2.83v5.36h-1.63v-5.37a2.94,2.94,0,0,0-.46-1.88,1.63,1.63,0,0,0-1.35-.55,1.73,1.73,0,0,0-1.36.58,2.52,2.52,0,0,0-.61,1.46v5.76h-1.64v-5.37a2.91,2.91,0,0,0-.47-1.85,1.61,1.61,0,0,0-1.34-.58,2.29,2.29,0,0,0-1.23.3,2,2,0,0,0-.73.87v6.63h-1.64v-9Z"/><rect class="cls-2" x="45.06" y="44.15" width="161.7" height="161.7" transform="translate(125.64 -52.42) rotate(45.12)"/><g class="cls-3"><path class="cls-4" d="M125.7,227.71,23.2,124.79,126.13,22.29,228.62,125.21ZM26.38,124.79l99.32,99.74,99.74-99.32L126.12,25.47Zm99.34,89.87-34.2-34.35,26.27-26.16L92.43,128.68l-18.08,18,11.89,11.94,5-4.93-7-7,8.17-8.14,15.51,15.57L86.59,175.36l-29.9-30L77.21,124.9,56.77,104.38l30-29.91L108,95.8,92.46,111.3l-8.14-8.17,7-7-4.93-4.94L74.45,103.1l18,18.08,25.47-25.36L91.75,69.55,126.1,35.34l34.2,34.35L134,95.85l25.36,25.47,18.07-18L165.58,91.38l-5,4.93,7,7-8.18,8.14L143.91,95.87l21.32-21.23,29.91,30L174.62,125.1l20.43,20.52-30,29.91L143.79,154.2l15.57-15.5,8.15,8.17-7,7,4.93,4.94,11.94-11.89-18-18.07-25.46,25.36,26.15,26.27Zm-31-34.34,31,31.17,31.17-31-26.16-26.27,28.65-28.53,21.16,21.25L165.43,162l-8.09-8.13,7-7-5-5L147,154.21,165,172.35l26.85-26.73-20.44-20.53L192,104.66,165.22,77.81,147.08,95.88l12.35,12.39,5-5-7-7,8.13-8.09,15,15.12-21.25,21.16L130.86,95.84l26.27-26.16-31-31.17-31.17,31,26.16,26.27L92.43,124.35,71.27,103.1,86.39,88l8.09,8.13-7,7,5,5,12.39-12.34L86.79,77.65,59.94,104.38l20.44,20.53L59.86,145.34,86.6,172.19l18.14-18.07L92.4,141.73l-5,5,7,7-8.12,8.09L71.18,146.67l21.25-21.16L121,154.16ZM200,140.7l-15.51-15.58,15.57-15.51,15.51,15.58Zm-12.34-15.57L200,137.52l12.4-12.34-12.34-12.39ZM51.76,140.39,36.25,124.81,51.82,109.3l15.51,15.58ZM39.42,124.82l12.35,12.39,12.39-12.34L51.82,112.48Z"/><path class="cls-4" d="M125.75,204.07l-24-24.1,24.1-24,24,24.1ZM104.92,180l20.83,20.92,20.92-20.83-20.83-20.92Z"/><path class="cls-4" d="M126,93.36l-24-24.1,24.1-24,24,24.1ZM105.15,69.27,126,90.19,146.9,69.35,126.07,48.44Z"/></g><path class="cls-4" d="M163.85,161.91v-25s-.1-.08-.11-.12a10.11,10.11,0,0,0-3.9-6.57c-.64-.49-.35-1.21-.28-1.8s.66-.22,1-.24c1.26-.06,1.83-.5,1.85-1.68q.08-2.7,0-5.4a1.46,1.46,0,0,0-1.62-1.63q-7.1,0-14.18,0A1.44,1.44,0,0,0,145,121c-.05,1.88-.05,3.77,0,5.65a1.44,1.44,0,0,0,1.58,1.5c.31,0,.62,0,.93,0s.38,0,.36.24c0,.71.24,1.42-.54,2.05a9.41,9.41,0,0,0-3.74,7.58c-.05,7.57,0,15.14,0,22.7a2.5,2.5,0,0,0,.87,2.19h18.41A3,3,0,0,0,163.85,161.91ZM148.6,122.37c3.4,0,6.81,0,10.21,0,.58,0,.7.19.67.71,0,.7.22,1.61-.13,2s-1.32.12-2,.13c-1.21,0-2.42,0-3.63,0-1.66,0-3.32,0-5,0-.7,0-.85-.22-.79-.84a7.59,7.59,0,0,0,0-1.43C147.87,122.44,148.11,122.36,148.6,122.37ZM150,142.64c-1,0-2,0-2.95,0-.55,0-.69-.17-.64-.67.08-.72-.31-1.68.16-2.09s1.34-.12,2-.12c1.91,0,3.82,0,5.74,0,.57,0,.75.12.74.73,0,2.16,0,4.33,0,6.5s0,4.33,0,6.5c0,.5-.07.73-.67.72-2.45,0-4.9,0-7.34,0-.5,0-.67-.1-.68-.64,0-2.2,0-2.2,2.15-2.2,1,0,2.09,0,3.13,0,.44,0,.56-.14.58-.58.11-2.39.12-2.39-2.21-2.39-1,0-2,0-3,0-.49,0-.64-.15-.6-.62.06-.72-.29-1.66.14-2.11s1.38-.12,2.1-.14c1,0,2,0,3,0,.44,0,.56-.13.57-.57C152.38,142.64,152.4,142.64,150,142.64ZM160.21,160q-6.51,0-13,0c-.57,0-.84-.11-.76-.73s-.29-1.61.15-2,1.28-.13,2-.13h7.51c1.5,0,2-.53,2-2,0-5.41,0-10.81,0-16.21,0-1.61-.48-2.09-2.12-2.09-2.84,0-5.68,0-8.53,0-.59,0-.79-.07-.56-.74a6.34,6.34,0,0,1,2.49-3.49,2.93,2.93,0,0,0,1.49-3c-.1-1.43,0-1.43,1.44-1.43,1.24,0,2.48,0,3.72,0,.42,0,.65.08.57.55a4.1,4.1,0,0,0,2,4.37c1.8,1.29,2.35,3.41,2.36,5.62v10.13c0,3.49,0,7,0,10.47C161,159.9,160.79,160.05,160.21,160Z"/><path class="cls-4" d="M163.85,161.91a1.19,1.19,0,0,1-1,1Q164.14,163.22,163.85,161.91Z"/><path class="cls-4" d="M147,110.47c.87,1,1.82,1.84,2.82,2.85.53-.56,1-1.14,1.58-1.65.4-.36.4-.57,0-1-2-2-4-4-6-5.95-.4-.39-.44-.59,0-1q6.18-6.12,12.32-12.29c1.07-1.07,1.06-1.06,2.15,0,.49.5,1,1.35,1.51,1.36s1-.9,1.52-1.34.46-.7,0-1.16Q156.71,84.21,150.57,78c-.53-.54-1.14-1.51-1.63-1.46s-1.14,1-1.7,1.51l-.06.06c-.3.23-.25.42,0,.67.61.58,1.18,1.21,1.81,1.77.39.35.42.56,0,1q-6.48,6.42-12.9,12.89c-.42.42-.64.41-1,0-2-2-4-4-6-6-.35-.36-.57-.44-.92,0A12.39,12.39,0,0,1,127,89.68c-.35.3-.31.49,0,.79,1,1,2,1.94,3,3-.26.24-.49.44-.71.66l-38.1,38.1c-.2.2-.41.39-.6.6a1.51,1.51,0,0,0,0,2.36A23.07,23.07,0,0,0,92.39,137c.57.48.46.76,0,1.22-1.11,1-2.17,2.13-3.24,3.21a1.5,1.5,0,0,0,0,2.48c.61.63,1.21,1.27,1.87,1.84.49.41.44.64,0,1.08Q84.88,152.87,78.8,159c-.48.47-1.29,1-1.31,1.45s.9,1,1.31,1.52.75.45,1.22,0c4.3-4.35,8.64-8.65,12.93-13,.55-.55.83-.52,1.28,0a16.49,16.49,0,0,0,1.24,1.27c1.51,1.52,2,1.52,3.44,0l3.34-3.34.15.1c.65.66,1.31,1.32,2,2,1.23,1.24,1.81,1.24,3,0l9.38-9.37q14.57-14.58,29.13-29.16C146.33,110.06,146.55,110,147,110.47Zm-8.88-13.94q6.48-6.42,12.9-12.9c.42-.42.63-.41,1,0,1.36,1.42,2.77,2.8,4.17,4.19.15.16.29.33.44.5l-.36.4q-6.51,6.49-13,13c-.37.38-.55.36-.91,0-1.39-1.44-2.81-2.85-4.24-4.24C137.77,97.14,137.71,96.94,138.12,96.53ZM99.89,145.14c-.78.78-1.56,1.54-2.32,2.34-.29.3-.46.27-.73,0-1.46-1.49-2.94-3-4.42-4.43-.31-.29-.36-.47,0-.79.78-.73,1.53-1.5,2.27-2.27.23-.23.39-.33.67,0,1.52,1.54,3.06,3.07,4.59,4.6.08.08.14.17.24.27Zm44-36.72q-12.33,12.35-24.67,24.67-6.33,6.33-12.65,12.67c-.47.48-.7.57-1.23,0Q99.7,140.11,94,134.51c-.44-.44-.49-.66,0-1.1,1-.89,1.89-1.85,2.81-2.8.31-.33.49-.32.79,0,1.26,1.29,2.57,2.53,3.8,3.85.47.5.76.47,1.16,0a5.41,5.41,0,0,1,.89-.9c.54-.4.58-.69,0-1.19-1.3-1.21-2.51-2.51-3.8-3.73-.4-.39-.32-.58,0-.91,1-.91,1.9-1.85,2.81-2.81.34-.36.54-.42.91,0,.8.87,1.68,1.67,2.49,2.53.3.31.49.31.78,0,.52-.59,1.44-1.1,1.51-1.72.06-.47-.93-1.08-1.45-1.62s-.78-.82-1.21-1.19-.48-.57,0-1c1-.9,1.89-1.84,2.81-2.8.34-.36.53-.41.9,0,1.27,1.33,2.59,2.59,3.86,3.91.33.34.54.47.9,0,.47-.59,1.4-1.08,1.44-1.67s-.92-1.09-1.44-1.63c-.91-.93-1.82-1.84-2.76-2.74-.32-.31-.3-.49,0-.79,1-1,2-1.93,2.93-2.93.35-.37.53-.3.84,0,.82.86,1.68,1.67,2.49,2.53.31.32.5.33.79,0a14.84,14.84,0,0,1,1.31-1.32c.35-.3.31-.49,0-.79-.88-.83-1.71-1.71-2.59-2.55-.28-.27-.32-.43,0-.72,1-1,2-1.93,2.92-2.93.36-.37.55-.38.92,0,1.27,1.32,2.59,2.58,3.86,3.9.37.39.59.38.92,0a8.12,8.12,0,0,1,1.13-1.14c.5-.39.37-.64,0-1-1.3-1.25-2.55-2.54-3.84-3.8-.34-.32-.37-.52,0-.86,1-1,2-1.93,2.93-2.92.32-.34.51-.29.8,0,.81.85,1.68,1.66,2.48,2.53.34.36.55.33.86,0s.91-.92,1.37-1.38l.24-.26a5.3,5.3,0,0,0-.38-.43c-.84-.84-1.67-1.68-2.52-2.5-.32-.3-.34-.48,0-.8,1-1,2-2,3-3,.29-.3.44-.28.72,0,3.88,3.89,7.75,7.78,11.65,11.64C144.49,108,144.13,108.14,143.84,108.42Z"/></svg>