<svg id="Layer_1" data-name="Layer 1" xmlns="http://www.w3.org/2000/svg" viewBox="0 0 654 250"><defs><style>.cls-1{fill:#f89c26;}.cls-2{opacity:0.15;}.cls-3{fill:#fff;}.cls-4{fill:none;stroke:#f89c26;stroke-miterlimit:10;stroke-width:2.6px;}</style></defs><path d="M280.48,145.24a5.37,5.37,0,0,1-.94,3.31,3,3,0,0,1-2.54,1.24,3.11,3.11,0,0,1-2.62-1.2l-.08,1h-1.41V136.9h1.53v4.74a3.14,3.14,0,0,1,2.56-1.15,3.05,3.05,0,0,1,2.57,1.24,5.49,5.49,0,0,1,.93,3.38Zm-1.53-.17a4.16,4.16,0,0,0-.6-2.42,2,2,0,0,0-1.75-.85,2.25,2.25,0,0,0-2.18,1.4v3.88a2.32,2.32,0,0,0,2.2,1.41,2,2,0,0,0,1.72-.85A4.41,4.41,0,0,0,279,145.07Z"/><path d="M286.14,149.79a3.91,3.91,0,0,1-3-1.2,4.43,4.43,0,0,1-1.15-3.2v-.28a5.48,5.48,0,0,1,.51-2.38,4,4,0,0,1,1.43-1.64,3.55,3.55,0,0,1,2-.6,3.4,3.4,0,0,1,2.72,1.15,5,5,0,0,1,1,3.3v.64h-6.07a3.17,3.17,0,0,0,.77,2.14,2.44,2.44,0,0,0,1.89.82,2.65,2.65,0,0,0,1.37-.33,3.31,3.31,0,0,0,1-.88l.94.73A3.75,3.75,0,0,1,286.14,149.79Zm-.19-8a2.05,2.05,0,0,0-1.56.68,3.28,3.28,0,0,0-.78,1.89h4.49v-.11a2.9,2.9,0,0,0-.63-1.82A2,2,0,0,0,286,141.75Z"/><path d="M292.86,140.66l.05,1.13a3.27,3.27,0,0,1,2.68-1.3c1.9,0,2.85,1.07,2.87,3.21v5.93h-1.53v-5.94a2.09,2.09,0,0,0-.45-1.43,1.77,1.77,0,0,0-1.35-.46,2.23,2.23,0,0,0-1.31.39,2.73,2.73,0,0,0-.88,1.05v6.39h-1.53v-9Z"/><path d="M304.49,149.79a3.9,3.9,0,0,1-3-1.2,4.43,4.43,0,0,1-1.15-3.2v-.28a5.34,5.34,0,0,1,.51-2.38,4,4,0,0,1,1.43-1.64,3.55,3.55,0,0,1,2-.6,3.36,3.36,0,0,1,2.71,1.15,5,5,0,0,1,1,3.3v.64h-6.07a3.17,3.17,0,0,0,.77,2.14,2.44,2.44,0,0,0,1.89.82,2.65,2.65,0,0,0,1.37-.33,3.31,3.31,0,0,0,1-.88l.94.73A3.76,3.76,0,0,1,304.49,149.79Zm-.18-8a2.05,2.05,0,0,0-1.56.68,3.28,3.28,0,0,0-.78,1.89h4.49v-.11a2.9,2.9,0,0,0-.63-1.82A2,2,0,0,0,304.31,141.75Z"/><path d="M310.52,149.63v-7.79H309.1v-1.18h1.42v-.92a3.07,3.07,0,0,1,.77-2.23,2.93,2.93,0,0,1,2.18-.79,4.15,4.15,0,0,1,1,.14l-.08,1.24a4.33,4.33,0,0,0-.83-.08,1.49,1.49,0,0,0-1.15.44,1.78,1.78,0,0,0-.41,1.25v.95H314v1.18h-1.92v7.79Z"/><path d="M315.67,138.28a.88.88,0,0,1,.23-.63.84.84,0,0,1,.67-.26.87.87,0,0,1,.68.26.88.88,0,0,1,.23.63.84.84,0,0,1-.23.62.86.86,0,0,1-.68.25.83.83,0,0,1-.9-.87Zm1.66,11.35h-1.54v-9h1.54Z"/><path d="M321.86,138.49v2.17h1.67v1.18h-1.67v5.57a1.24,1.24,0,0,0,.22.81,1,1,0,0,0,.77.27,3.52,3.52,0,0,0,.73-.1v1.24a4.52,4.52,0,0,1-1.18.16,1.89,1.89,0,0,1-1.55-.62,2.64,2.64,0,0,1-.52-1.76v-5.57h-1.64v-1.18h1.64v-2.17Z"/><path d="M327.41,138.49v2.17h1.67v1.18h-1.67v5.57a1.24,1.24,0,0,0,.22.81.94.94,0,0,0,.76.27,3.44,3.44,0,0,0,.73-.1v1.24a4.39,4.39,0,0,1-1.17.16,1.91,1.91,0,0,1-1.56-.62,2.7,2.7,0,0,1-.52-1.76v-5.57h-1.63v-1.18h1.63v-2.17Z"/><path d="M334.59,149.79a3.9,3.9,0,0,1-3-1.2,4.39,4.39,0,0,1-1.15-3.2v-.28a5.34,5.34,0,0,1,.51-2.38,4,4,0,0,1,1.43-1.64,3.54,3.54,0,0,1,2-.6,3.38,3.38,0,0,1,2.72,1.15,5,5,0,0,1,1,3.3v.64H332a3.12,3.12,0,0,0,.77,2.14,2.41,2.41,0,0,0,1.89.82,2.65,2.65,0,0,0,1.37-.33,3.43,3.43,0,0,0,1-.88l.93.73A3.74,3.74,0,0,1,334.59,149.79Zm-.19-8a2.05,2.05,0,0,0-1.56.68,3.28,3.28,0,0,0-.78,1.89h4.49v-.11a3,3,0,0,0-.62-1.82A2,2,0,0,0,334.4,141.75Z"/><path d="M339.49,145.07a5.27,5.27,0,0,1,1-3.32,3.32,3.32,0,0,1,5-.18V136.9h1.54v12.73h-1.41l-.08-1a3.11,3.11,0,0,1-2.56,1.12,3.06,3.06,0,0,1-2.54-1.27,5.37,5.37,0,0,1-1-3.34Zm1.53.17a4,4,0,0,0,.63,2.39,2,2,0,0,0,1.74.86,2.21,2.21,0,0,0,2.13-1.31v-4.12a2.24,2.24,0,0,0-2.11-1.26,2,2,0,0,0-1.76.86A4.4,4.4,0,0,0,341,145.24Z"/><path d="M354.39,149.63v-7.79H353v-1.18h1.41v-.92a3.07,3.07,0,0,1,.77-2.23,2.94,2.94,0,0,1,2.18-.79,4.23,4.23,0,0,1,1.06.14l-.09,1.24a4.3,4.3,0,0,0-.82-.08,1.51,1.51,0,0,0-1.16.44,1.77,1.77,0,0,0-.4,1.25v.95h1.91v1.18h-1.91v7.79Z"/><path d="M363.87,142a4.59,4.59,0,0,0-.76-.06,2,2,0,0,0-2.05,1.28v6.37h-1.53v-9H361l0,1a2.39,2.39,0,0,1,2.14-1.21,1.56,1.56,0,0,1,.68.12Z"/><path d="M364.71,145.06a5.35,5.35,0,0,1,.51-2.37,3.92,3.92,0,0,1,1.44-1.62,3.88,3.88,0,0,1,2.12-.58,3.82,3.82,0,0,1,3,1.27,4.9,4.9,0,0,1,1.13,3.37v.11a5.37,5.37,0,0,1-.5,2.35,3.73,3.73,0,0,1-1.44,1.62,3.92,3.92,0,0,1-2.14.58,3.8,3.8,0,0,1-3-1.26,4.89,4.89,0,0,1-1.12-3.36Zm1.54.18a3.84,3.84,0,0,0,.69,2.4,2.35,2.35,0,0,0,3.71,0,4.2,4.2,0,0,0,.69-2.57,3.82,3.82,0,0,0-.71-2.39,2.21,2.21,0,0,0-1.85-.92,2.23,2.23,0,0,0-1.84.91A4.17,4.17,0,0,0,366.25,145.24Z"/><path d="M376.23,140.66l0,1a3.28,3.28,0,0,1,2.66-1.17,2.57,2.57,0,0,1,2.56,1.45,3.27,3.27,0,0,1,1.16-1.05,3.39,3.39,0,0,1,1.7-.4c2,0,3,1,3,3.13v6h-1.54v-5.92a2,2,0,0,0-.44-1.44,1.91,1.91,0,0,0-1.47-.47,2,2,0,0,0-1.42.51,2,2,0,0,0-.65,1.36v6H380.3v-5.88a1.71,1.71,0,0,0-1.92-1.95,2,2,0,0,0-2.06,1.28v6.55h-1.54v-9Z"/><path d="M402.61,137.56v8.21a3.89,3.89,0,0,1-1.08,2.79,4.35,4.35,0,0,1-2.89,1.22h-.42a4.5,4.5,0,0,1-3.16-1.07,3.82,3.82,0,0,1-1.19-2.94v-8.22h1.57v8.17a2.93,2.93,0,0,0,4.85,2,2.75,2.75,0,0,0,.72-2v-8.18Z"/><path d="M414.39,149.63h-1.6l-6.07-9.3v9.3h-1.6V137.56h1.6l6.09,9.34v-9.34h1.58Z"/><path d="M426.4,147.25a1.13,1.13,0,0,0-.46-1,4.66,4.66,0,0,0-1.64-.59,8.19,8.19,0,0,1-1.85-.6,2.58,2.58,0,0,1-1-.83,2,2,0,0,1-.32-1.14,2.31,2.31,0,0,1,.93-1.86,3.62,3.62,0,0,1,2.38-.77,3.7,3.7,0,0,1,2.47.79,2.49,2.49,0,0,1,1,2h-1.54a1.38,1.38,0,0,0-.53-1.08,2,2,0,0,0-1.35-.46,2.06,2.06,0,0,0-1.31.37,1.15,1.15,0,0,0-.47.95.94.94,0,0,0,.44.84,5.24,5.24,0,0,0,1.59.54,8,8,0,0,1,1.85.61,2.76,2.76,0,0,1,1.06.86,2.09,2.09,0,0,1,.35,1.22,2.31,2.31,0,0,1-1,1.93,4.09,4.09,0,0,1-2.5.72,4.46,4.46,0,0,1-1.91-.38,3.08,3.08,0,0,1-1.29-1.06,2.52,2.52,0,0,1-.47-1.48h1.53a1.61,1.61,0,0,0,.62,1.22,2.39,2.39,0,0,0,1.52.45,2.52,2.52,0,0,0,1.4-.35A1.09,1.09,0,0,0,426.4,147.25Z"/><path d="M435.47,148.74a3.26,3.26,0,0,1-2.63,1,2.77,2.77,0,0,1-2.18-.83,3.62,3.62,0,0,1-.76-2.46v-5.84h1.53v5.79c0,1.36.56,2,1.66,2a2.29,2.29,0,0,0,2.34-1.31v-6.52H437v9H435.5Z"/><path d="M446.87,145.24a5.38,5.38,0,0,1-.94,3.3,3,3,0,0,1-2.54,1.25,3.31,3.31,0,0,1-2.57-1v4.32h-1.53V140.66h1.4l.08,1a3.14,3.14,0,0,1,2.6-1.17,3.07,3.07,0,0,1,2.56,1.22,5.47,5.47,0,0,1,.94,3.39Zm-1.54-.17a4,4,0,0,0-.64-2.4,2.09,2.09,0,0,0-1.78-.87,2.26,2.26,0,0,0-2.09,1.23v4.28a2.26,2.26,0,0,0,2.11,1.23,2.06,2.06,0,0,0,1.75-.87A4.3,4.3,0,0,0,445.33,145.07Z"/><path d="M456.39,145.24a5.32,5.32,0,0,1-.94,3.3,3,3,0,0,1-2.53,1.25,3.28,3.28,0,0,1-2.57-1v4.32h-1.54V140.66h1.4l.08,1a3.14,3.14,0,0,1,2.6-1.17,3.07,3.07,0,0,1,2.56,1.22,5.4,5.4,0,0,1,.94,3.39Zm-1.53-.17a4,4,0,0,0-.65-2.4,2.08,2.08,0,0,0-1.77-.87,2.25,2.25,0,0,0-2.09,1.23v4.28a2.26,2.26,0,0,0,2.1,1.23,2.09,2.09,0,0,0,1.76-.87A4.37,4.37,0,0,0,454.86,145.07Z"/><path d="M457.93,145.06a5.36,5.36,0,0,1,.52-2.37,3.92,3.92,0,0,1,1.44-1.62,3.87,3.87,0,0,1,2.11-.58,3.83,3.83,0,0,1,3,1.27,4.9,4.9,0,0,1,1.13,3.37v.11a5.37,5.37,0,0,1-.5,2.35,3.79,3.79,0,0,1-1.44,1.62,3.92,3.92,0,0,1-2.14.58,3.8,3.8,0,0,1-3-1.26,4.89,4.89,0,0,1-1.13-3.36Zm1.54.18a3.85,3.85,0,0,0,.7,2.4,2.35,2.35,0,0,0,3.71,0,4.2,4.2,0,0,0,.68-2.57,3.81,3.81,0,0,0-.7-2.39,2.32,2.32,0,0,0-3.69,0A4.17,4.17,0,0,0,459.47,145.24Z"/><path d="M472.36,142a4.59,4.59,0,0,0-.76-.06,2,2,0,0,0-2.05,1.28v6.37H468v-9h1.49l0,1a2.39,2.39,0,0,1,2.14-1.21,1.56,1.56,0,0,1,.68.12Z"/><path d="M476.26,138.49v2.17h1.67v1.18h-1.67v5.57a1.24,1.24,0,0,0,.22.81,1,1,0,0,0,.77.27,3.44,3.44,0,0,0,.72-.1v1.24a4.39,4.39,0,0,1-1.17.16,1.89,1.89,0,0,1-1.55-.62,2.64,2.64,0,0,1-.52-1.76v-5.57h-1.64v-1.18h1.64v-2.17Z"/><path d="M486,138.49v2.17h1.67v1.18H486v5.57a1.24,1.24,0,0,0,.22.81.94.94,0,0,0,.76.27,3.44,3.44,0,0,0,.73-.1v1.24a4.41,4.41,0,0,1-1.18.16,1.9,1.9,0,0,1-1.55-.62,2.7,2.7,0,0,1-.52-1.76v-5.57h-1.63v-1.18h1.63v-2.17Z"/><path d="M488.9,145.06a5.22,5.22,0,0,1,.52-2.37,3.79,3.79,0,0,1,1.44-1.62,3.87,3.87,0,0,1,2.11-.58,3.79,3.79,0,0,1,3,1.27,4.86,4.86,0,0,1,1.13,3.37v.11a5.23,5.23,0,0,1-.5,2.35,3.71,3.71,0,0,1-1.43,1.62,4,4,0,0,1-2.14.58,3.78,3.78,0,0,1-3-1.26,4.89,4.89,0,0,1-1.13-3.36Zm1.54.18a3.84,3.84,0,0,0,.69,2.4,2.23,2.23,0,0,0,1.86.9,2.19,2.19,0,0,0,1.85-.91,4.2,4.2,0,0,0,.69-2.57,3.81,3.81,0,0,0-.7-2.39,2.24,2.24,0,0,0-1.86-.92,2.2,2.2,0,0,0-1.83.91A4.11,4.11,0,0,0,490.44,145.24Z"/><path d="M503.19,138.28a.92.92,0,0,1,.23-.63.87.87,0,0,1,.68-.26.88.88,0,0,1,.68.26.92.92,0,0,1,.23.63.83.83,0,0,1-.91.87.86.86,0,0,1-.68-.25A.88.88,0,0,1,503.19,138.28Zm1.66,11.35h-1.53v-9h1.53Z"/><path d="M508.75,140.66l0,1a3.3,3.3,0,0,1,2.66-1.17,2.56,2.56,0,0,1,2.56,1.45,3.35,3.35,0,0,1,2.86-1.45c2,0,3,1,3,3.13v6h-1.53v-5.92a2.08,2.08,0,0,0-.44-1.44,1.93,1.93,0,0,0-1.48-.47,2,2,0,0,0-1.42.51,2,2,0,0,0-.65,1.36v6h-1.54v-5.88a1.71,1.71,0,0,0-1.92-1.95,2,2,0,0,0-2.06,1.28v6.55H507.3v-9Z"/><path d="M529.76,145.24a5.32,5.32,0,0,1-.94,3.3,3,3,0,0,1-2.53,1.25,3.28,3.28,0,0,1-2.57-1v4.32h-1.54V140.66h1.4l.08,1a3.14,3.14,0,0,1,2.6-1.17,3.07,3.07,0,0,1,2.56,1.22,5.4,5.4,0,0,1,.94,3.39Zm-1.53-.17a4,4,0,0,0-.65-2.4,2.08,2.08,0,0,0-1.77-.87,2.25,2.25,0,0,0-2.09,1.23v4.28a2.26,2.26,0,0,0,2.1,1.23,2.09,2.09,0,0,0,1.76-.87A4.37,4.37,0,0,0,528.23,145.07Z"/><path d="M536,142a4.38,4.38,0,0,0-.75-.06,2,2,0,0,0-2,1.28v6.37h-1.53v-9h1.49l0,1a2.41,2.41,0,0,1,2.14-1.21,1.5,1.5,0,0,1,.68.12Z"/><path d="M536.88,145.06a5.22,5.22,0,0,1,.52-2.37,3.83,3.83,0,0,1,3.55-2.2,3.79,3.79,0,0,1,3,1.27,4.86,4.86,0,0,1,1.14,3.37v.11a5.24,5.24,0,0,1-.51,2.35,3.71,3.71,0,0,1-1.43,1.62,4,4,0,0,1-2.14.58,3.8,3.8,0,0,1-3-1.26,4.89,4.89,0,0,1-1.13-3.36Zm1.54.18a3.78,3.78,0,0,0,.7,2.4,2.34,2.34,0,0,0,3.7,0,4.2,4.2,0,0,0,.69-2.57,3.81,3.81,0,0,0-.7-2.39,2.24,2.24,0,0,0-1.86-.92,2.2,2.2,0,0,0-1.83.91A4.11,4.11,0,0,0,538.42,145.24Z"/><path d="M549.8,147.55l2.22-6.89h1.57l-3.21,9H549.2l-3.24-9h1.56Z"/><path d="M558.68,149.79a3.94,3.94,0,0,1-3-1.2,4.43,4.43,0,0,1-1.14-3.2v-.28a5.34,5.34,0,0,1,.51-2.38,3.93,3.93,0,0,1,1.42-1.64,3.6,3.6,0,0,1,2-.6,3.38,3.38,0,0,1,2.72,1.15,5,5,0,0,1,1,3.3v.64H556.1a3.13,3.13,0,0,0,.78,2.14,2.41,2.41,0,0,0,1.88.82,2.71,2.71,0,0,0,1.38-.33,3.27,3.27,0,0,0,1-.88l.94.73A3.75,3.75,0,0,1,558.68,149.79Zm-.19-8a2.05,2.05,0,0,0-1.56.68,3.28,3.28,0,0,0-.78,1.89h4.49v-.11a3,3,0,0,0-.62-1.82A2,2,0,0,0,558.49,141.75Z"/><path d="M292.08,165.61a5.38,5.38,0,0,1-.94,3.3,3,3,0,0,1-2.54,1.25,3.31,3.31,0,0,1-2.57-1v4.31H284.5V161h1.4l.08,1a3.16,3.16,0,0,1,2.6-1.16,3.08,3.08,0,0,1,2.56,1.22,5.47,5.47,0,0,1,.94,3.39Zm-1.54-.17a4,4,0,0,0-.64-2.4,2.11,2.11,0,0,0-1.78-.88A2.27,2.27,0,0,0,286,163.4v4.28a2.26,2.26,0,0,0,2.11,1.23,2.07,2.07,0,0,0,1.75-.87A4.3,4.3,0,0,0,290.54,165.44Z"/><path d="M298.36,162.4a5.94,5.94,0,0,0-.76-.05,2,2,0,0,0-2,1.28V170H294v-9h1.5l0,1a2.37,2.37,0,0,1,2.14-1.21,1.53,1.53,0,0,1,.68.12Z"/><path d="M299.2,165.43a5.22,5.22,0,0,1,.52-2.37,3.79,3.79,0,0,1,1.44-1.62,3.84,3.84,0,0,1,2.11-.58,3.76,3.76,0,0,1,3,1.27,4.9,4.9,0,0,1,1.13,3.37v.11a5.4,5.4,0,0,1-.5,2.35,3.77,3.77,0,0,1-1.43,1.62,4,4,0,0,1-2.15.58,3.75,3.75,0,0,1-2.95-1.27,4.85,4.85,0,0,1-1.13-3.35Zm1.54.18a3.84,3.84,0,0,0,.69,2.4,2.22,2.22,0,0,0,1.85.9,2.19,2.19,0,0,0,1.86-.92,4.15,4.15,0,0,0,.69-2.56,3.88,3.88,0,0,0-.7-2.39,2.24,2.24,0,0,0-1.86-.92,2.21,2.21,0,0,0-1.84.91A4.17,4.17,0,0,0,300.74,165.61Z"/><path d="M308.91,165.44a5.27,5.27,0,0,1,1-3.32,3.09,3.09,0,0,1,2.56-1.26,3.13,3.13,0,0,1,2.5,1.08v-4.67h1.53V170h-1.41l-.08-1a3.11,3.11,0,0,1-2.56,1.12,3.06,3.06,0,0,1-2.54-1.28,5.32,5.32,0,0,1-1-3.33Zm1.53.17a4,4,0,0,0,.63,2.39,2.06,2.06,0,0,0,1.75.86,2.23,2.23,0,0,0,2.13-1.31v-4.12a2.28,2.28,0,0,0-2.12-1.27,2.07,2.07,0,0,0-1.76.87A4.4,4.4,0,0,0,310.44,165.61Z"/><path d="M324.39,169.11a3.24,3.24,0,0,1-2.62,1,2.81,2.81,0,0,1-2.19-.83,3.65,3.65,0,0,1-.76-2.47V161h1.54v5.79q0,2,1.65,2a2.29,2.29,0,0,0,2.34-1.31V161h1.53v9h-1.45Z"/><path d="M331.81,168.91a2.21,2.21,0,0,0,1.43-.5,1.72,1.72,0,0,0,.68-1.24h1.45a2.72,2.72,0,0,1-.53,1.47,3.53,3.53,0,0,1-1.3,1.11,3.86,3.86,0,0,1-1.73.41,3.7,3.7,0,0,1-2.91-1.22,4.84,4.84,0,0,1-1.09-3.35v-.25a5.39,5.39,0,0,1,.49-2.33,3.61,3.61,0,0,1,1.38-1.58,3.86,3.86,0,0,1,2.12-.57,3.57,3.57,0,0,1,2.51.91,3.22,3.22,0,0,1,1.06,2.34h-1.45a2.07,2.07,0,0,0-.66-1.43,2,2,0,0,0-1.46-.56A2.15,2.15,0,0,0,330,163a3.94,3.94,0,0,0-.64,2.44v.29a3.81,3.81,0,0,0,.64,2.38A2.14,2.14,0,0,0,331.81,168.91Z"/><path d="M339.18,158.86V161h1.67v1.18h-1.67v5.57a1.24,1.24,0,0,0,.22.81,1,1,0,0,0,.77.27,3.61,3.61,0,0,0,.73-.1V170a4.52,4.52,0,0,1-1.18.16,1.89,1.89,0,0,1-1.55-.62,2.64,2.64,0,0,1-.52-1.76v-5.57H336V161h1.64v-2.17Z"/><path d="M342.65,158.65a.92.92,0,0,1,.23-.63.87.87,0,0,1,.68-.26.88.88,0,0,1,.68.26.92.92,0,0,1,.23.63.83.83,0,0,1-.91.87.86.86,0,0,1-.68-.25A.88.88,0,0,1,342.65,158.65ZM344.31,170h-1.53v-9h1.53Z"/><path d="M349.72,167.92l2.22-6.89h1.57l-3.21,9h-1.17l-3.25-9h1.56Z"/><path d="M355,158.65a.92.92,0,0,1,.23-.63.87.87,0,0,1,.68-.26.88.88,0,0,1,.68.26.92.92,0,0,1,.23.63.83.83,0,0,1-.91.87.86.86,0,0,1-.68-.25A.88.88,0,0,1,355,158.65ZM356.65,170h-1.53v-9h1.53Z"/><path d="M361.19,158.86V161h1.67v1.18h-1.67v5.57a1.24,1.24,0,0,0,.22.81.94.94,0,0,0,.76.27,3.44,3.44,0,0,0,.73-.1V170a4.41,4.41,0,0,1-1.18.16,1.9,1.9,0,0,1-1.55-.62,2.7,2.7,0,0,1-.52-1.76v-5.57H358V161h1.63v-2.17Z"/><path d="M367.59,167.75l2.08-6.72h1.65l-3.61,10.35c-.56,1.49-1.44,2.24-2.66,2.24l-.29,0-.57-.1v-1.25l.41,0a2.06,2.06,0,0,0,1.22-.32,2.21,2.21,0,0,0,.71-1.15l.34-.91-3.2-8.87h1.68Z"/><path d="M382.42,170a3.14,3.14,0,0,1-.21-.95,3.45,3.45,0,0,1-2.56,1.11,3.19,3.19,0,0,1-2.18-.75,2.43,2.43,0,0,1-.84-1.9,2.55,2.55,0,0,1,1.06-2.18,5.08,5.08,0,0,1,3-.77h1.49v-.7a1.7,1.7,0,0,0-.48-1.28,1.94,1.94,0,0,0-1.42-.48,2.25,2.25,0,0,0-1.37.41,1.23,1.23,0,0,0-.56,1h-1.54a2.09,2.09,0,0,1,.48-1.29,3.1,3.1,0,0,1,1.29-1,4.22,4.22,0,0,1,1.79-.37,3.53,3.53,0,0,1,2.43.78,2.76,2.76,0,0,1,.91,2.13v4.13a5,5,0,0,0,.32,2V170Zm-2.55-1.17a2.76,2.76,0,0,0,1.37-.37,2.27,2.27,0,0,0,.94-1v-1.83H381c-1.88,0-2.82.54-2.82,1.64a1.39,1.39,0,0,0,.48,1.13A1.84,1.84,0,0,0,379.87,168.83Z"/><path d="M387.57,161l.05,1.13a3.24,3.24,0,0,1,2.68-1.3c1.9,0,2.85,1.07,2.87,3.21V170h-1.53v-5.94a2.14,2.14,0,0,0-.44-1.43,1.81,1.81,0,0,0-1.36-.47,2.26,2.26,0,0,0-1.31.4,2.66,2.66,0,0,0-.88,1.05V170h-1.53v-9Z"/><path d="M395.11,165.44a5.27,5.27,0,0,1,1-3.32,3.09,3.09,0,0,1,2.56-1.26,3.13,3.13,0,0,1,2.5,1.08v-4.67h1.53V170h-1.41l-.08-1a3.11,3.11,0,0,1-2.56,1.12,3.06,3.06,0,0,1-2.54-1.28,5.32,5.32,0,0,1-1-3.33Zm1.54.17a3.92,3.92,0,0,0,.63,2.39,2,2,0,0,0,1.74.86,2.23,2.23,0,0,0,2.13-1.31v-4.12a2.28,2.28,0,0,0-2.12-1.27,2,2,0,0,0-1.75.87A4.33,4.33,0,0,0,396.65,165.61Z"/><path d="M417.2,167.88l1.72-6.85h1.54l-2.61,9H416.6l-2.18-6.8L412.3,170h-1.24l-2.6-9H410l1.77,6.71,2.08-6.71h1.24Z"/><path d="M421.61,165.43a5.22,5.22,0,0,1,.52-2.37,3.79,3.79,0,0,1,1.44-1.62,3.87,3.87,0,0,1,2.11-.58,3.76,3.76,0,0,1,3,1.27,4.86,4.86,0,0,1,1.13,3.37v.11a5.26,5.26,0,0,1-.5,2.35,3.71,3.71,0,0,1-1.43,1.62,4,4,0,0,1-2.14.58,3.76,3.76,0,0,1-3-1.27,4.85,4.85,0,0,1-1.13-3.35Zm1.54.18a3.84,3.84,0,0,0,.69,2.4,2.23,2.23,0,0,0,1.86.9,2.17,2.17,0,0,0,1.85-.92,4.15,4.15,0,0,0,.69-2.56,3.81,3.81,0,0,0-.7-2.39,2.24,2.24,0,0,0-1.86-.92,2.18,2.18,0,0,0-1.83.91A4.11,4.11,0,0,0,423.15,165.61Z"/><path d="M436,162.4a5.78,5.78,0,0,0-.75-.05,2,2,0,0,0-2,1.28V170H431.7v-9h1.49l0,1a2.39,2.39,0,0,1,2.14-1.21,1.5,1.5,0,0,1,.68.12Z"/><path d="M439.94,165.84l-1,1V170h-1.53V157.27H439V165l.82-1,2.79-2.95h1.87L441,164.77l3.9,5.23h-1.8Z"/><path d="M446.05,158.65a.92.92,0,0,1,.23-.63,1,1,0,0,1,1.35,0,.88.88,0,0,1,.24.63.84.84,0,0,1-.24.62.86.86,0,0,1-.68.25.85.85,0,0,1-.67-.25A.88.88,0,0,1,446.05,158.65ZM447.71,170h-1.54v-9h1.54Z"/><path d="M451.61,161l.05,1.13a3.26,3.26,0,0,1,2.69-1.3q2.83,0,2.87,3.21V170h-1.54v-5.94a2,2,0,0,0-.44-1.43,1.78,1.78,0,0,0-1.36-.47,2.23,2.23,0,0,0-1.3.4,2.66,2.66,0,0,0-.88,1.05V170h-1.54v-9Z"/><path d="M459.16,165.44a5.33,5.33,0,0,1,1-3.34,3.34,3.34,0,0,1,5.13-.08l.08-1h1.4v8.75a3.62,3.62,0,0,1-1,2.74,3.8,3.8,0,0,1-2.77,1,4.56,4.56,0,0,1-1.9-.42,3.24,3.24,0,0,1-1.42-1.13l.8-.92a3,3,0,0,0,2.41,1.22,2.39,2.39,0,0,0,1.74-.63,2.42,2.42,0,0,0,.63-1.78v-.77a3.14,3.14,0,0,1-2.51,1.06,3.06,3.06,0,0,1-2.55-1.27A5.51,5.51,0,0,1,459.16,165.44Zm1.54.17a4,4,0,0,0,.63,2.38,2,2,0,0,0,1.74.87,2.26,2.26,0,0,0,2.13-1.32v-4.09a2.28,2.28,0,0,0-2.12-1.29,2,2,0,0,0-1.74.87A4.4,4.4,0,0,0,460.7,165.61Z"/><path d="M476.85,168.91a2.23,2.23,0,0,0,1.44-.5,1.74,1.74,0,0,0,.67-1.24h1.46a2.82,2.82,0,0,1-.54,1.47,3.53,3.53,0,0,1-1.3,1.11,3.83,3.83,0,0,1-1.73.41,3.7,3.7,0,0,1-2.91-1.22,4.89,4.89,0,0,1-1.08-3.35v-.25a5.39,5.39,0,0,1,.48-2.33,3.61,3.61,0,0,1,1.38-1.58,3.89,3.89,0,0,1,2.12-.57,3.57,3.57,0,0,1,2.51.91,3.26,3.26,0,0,1,1.07,2.34H479a2.07,2.07,0,0,0-2.12-2A2.15,2.15,0,0,0,475,163a3.94,3.94,0,0,0-.64,2.44v.29a3.81,3.81,0,0,0,.64,2.38A2.14,2.14,0,0,0,476.85,168.91Z"/><path d="M481.73,165.43a5.22,5.22,0,0,1,.52-2.37,3.92,3.92,0,0,1,1.44-1.62,3.87,3.87,0,0,1,2.11-.58,3.76,3.76,0,0,1,3,1.27,4.86,4.86,0,0,1,1.14,3.37v.11a5.27,5.27,0,0,1-.51,2.35,3.71,3.71,0,0,1-1.43,1.62,3.92,3.92,0,0,1-2.14.58,3.77,3.77,0,0,1-3-1.27,4.85,4.85,0,0,1-1.13-3.35Zm1.54.18a3.85,3.85,0,0,0,.7,2.4,2.22,2.22,0,0,0,1.85.9,2.19,2.19,0,0,0,1.86-.92,4.21,4.21,0,0,0,.68-2.56,3.81,3.81,0,0,0-.7-2.39,2.21,2.21,0,0,0-1.86-.92A2.19,2.19,0,0,0,484,163,4.17,4.17,0,0,0,483.27,165.61Z"/><path d="M493.27,161l.05,1.13a3.26,3.26,0,0,1,2.69-1.3c1.89,0,2.85,1.07,2.86,3.21V170h-1.53v-5.94a2.09,2.09,0,0,0-.44-1.43,1.78,1.78,0,0,0-1.36-.47,2.26,2.26,0,0,0-1.31.4,2.74,2.74,0,0,0-.88,1.05V170h-1.53v-9Z"/><path d="M500.82,165.44a5.26,5.26,0,0,1,1-3.32,3.09,3.09,0,0,1,2.56-1.26,3.13,3.13,0,0,1,2.5,1.08v-4.67h1.53V170H507l-.07-1a3.12,3.12,0,0,1-2.56,1.12,3,3,0,0,1-2.54-1.28,5.25,5.25,0,0,1-1-3.33Zm1.53.17A4,4,0,0,0,503,168a2,2,0,0,0,1.74.86,2.23,2.23,0,0,0,2.13-1.31v-4.12a2.27,2.27,0,0,0-2.12-1.27A2,2,0,0,0,503,163,4.4,4.4,0,0,0,502.35,165.61Z"/><path d="M510.77,158.65A.88.88,0,0,1,511,158a.84.84,0,0,1,.67-.26.84.84,0,0,1,.91.89.84.84,0,0,1-.23.62.88.88,0,0,1-.68.25.83.83,0,0,1-.9-.87ZM512.42,170h-1.53v-9h1.53Z"/><path d="M517,158.86V161h1.67v1.18H517v5.57a1.3,1.3,0,0,0,.22.81,1,1,0,0,0,.77.27,3.52,3.52,0,0,0,.73-.1V170a4.52,4.52,0,0,1-1.18.16,1.89,1.89,0,0,1-1.55-.62,2.64,2.64,0,0,1-.52-1.76v-5.57h-1.64V161h1.64v-2.17Z"/><path d="M520.43,158.65a.92.92,0,0,1,.23-.63.86.86,0,0,1,.67-.26.89.89,0,0,1,.69.26.92.92,0,0,1,.23.63.83.83,0,0,1-.92.87.85.85,0,0,1-.67-.25A.88.88,0,0,1,520.43,158.65ZM522.09,170h-1.53v-9h1.53Z"/><path d="M524.14,165.43a5.22,5.22,0,0,1,.52-2.37,3.79,3.79,0,0,1,1.44-1.62,3.84,3.84,0,0,1,2.11-.58,3.76,3.76,0,0,1,3,1.27,4.9,4.9,0,0,1,1.13,3.37v.11a5.4,5.4,0,0,1-.5,2.35,3.77,3.77,0,0,1-1.43,1.62,4,4,0,0,1-2.15.58,3.75,3.75,0,0,1-3-1.27,4.85,4.85,0,0,1-1.13-3.35Zm1.54.18a3.84,3.84,0,0,0,.69,2.4,2.22,2.22,0,0,0,1.85.9,2.19,2.19,0,0,0,1.86-.92,4.15,4.15,0,0,0,.69-2.56,3.88,3.88,0,0,0-.7-2.39,2.24,2.24,0,0,0-1.86-.92,2.21,2.21,0,0,0-1.84.91A4.17,4.17,0,0,0,525.68,165.61Z"/><path d="M535.68,161l0,1.13a3.26,3.26,0,0,1,2.69-1.3q2.83,0,2.87,3.21V170h-1.53v-5.94a2.09,2.09,0,0,0-.45-1.43,1.78,1.78,0,0,0-1.36-.47,2.23,2.23,0,0,0-1.3.4,2.66,2.66,0,0,0-.88,1.05V170h-1.54v-9Z"/><path d="M548.81,167.62a1.13,1.13,0,0,0-.46-1,4.47,4.47,0,0,0-1.64-.59,8.19,8.19,0,0,1-1.85-.6,2.67,2.67,0,0,1-1-.83,2,2,0,0,1-.32-1.14,2.31,2.31,0,0,1,.93-1.86,3.62,3.62,0,0,1,2.38-.77,3.7,3.7,0,0,1,2.47.79,2.48,2.48,0,0,1,1,2h-1.54a1.38,1.38,0,0,0-.53-1.08,2,2,0,0,0-1.35-.46,2.06,2.06,0,0,0-1.31.37,1.15,1.15,0,0,0-.47.95.94.94,0,0,0,.44.84,5.54,5.54,0,0,0,1.59.54,8,8,0,0,1,1.85.61,2.67,2.67,0,0,1,1.06.86,2.09,2.09,0,0,1,.35,1.22,2.31,2.31,0,0,1-1,1.93,4.09,4.09,0,0,1-2.5.72,4.62,4.62,0,0,1-1.91-.38,3.08,3.08,0,0,1-1.29-1.06,2.52,2.52,0,0,1-.47-1.48h1.53a1.61,1.61,0,0,0,.62,1.22,2.39,2.39,0,0,0,1.52.45,2.52,2.52,0,0,0,1.4-.35A1.09,1.09,0,0,0,548.81,167.62Z"/><path d="M304.48,190.37a3.4,3.4,0,0,1-.22-1,3.41,3.41,0,0,1-2.55,1.11,3.19,3.19,0,0,1-2.18-.75,2.44,2.44,0,0,1-.85-1.9,2.56,2.56,0,0,1,1.07-2.18,5.08,5.08,0,0,1,3-.77h1.49v-.71a1.74,1.74,0,0,0-.48-1.28,2,2,0,0,0-1.42-.47,2.28,2.28,0,0,0-1.38.41,1.22,1.22,0,0,0-.55,1h-1.54a2.08,2.08,0,0,1,.47-1.29,3.2,3.2,0,0,1,1.3-1,4.22,4.22,0,0,1,1.79-.37,3.55,3.55,0,0,1,2.43.78,2.8,2.8,0,0,1,.91,2.13v4.13a5,5,0,0,0,.31,2v.14Zm-2.55-1.17a2.79,2.79,0,0,0,1.37-.37,2.33,2.33,0,0,0,.94-1V186H303c-1.87,0-2.81.54-2.81,1.64a1.4,1.4,0,0,0,.48,1.13A1.84,1.84,0,0,0,301.93,189.2Z"/><path d="M311.77,189.28a2.21,2.21,0,0,0,1.43-.5,1.72,1.72,0,0,0,.68-1.24h1.45a2.72,2.72,0,0,1-.53,1.47,3.53,3.53,0,0,1-1.3,1.11,3.86,3.86,0,0,1-1.73.41,3.7,3.7,0,0,1-2.91-1.22,4.84,4.84,0,0,1-1.09-3.35v-.25a5.39,5.39,0,0,1,.49-2.33,3.61,3.61,0,0,1,1.38-1.58,3.86,3.86,0,0,1,2.12-.57,3.57,3.57,0,0,1,2.51.91,3.22,3.22,0,0,1,1.06,2.34h-1.45a2.07,2.07,0,0,0-.66-1.43,2,2,0,0,0-1.46-.56,2.15,2.15,0,0,0-1.81.84,3.94,3.94,0,0,0-.64,2.44v.29a3.9,3.9,0,0,0,.63,2.38A2.17,2.17,0,0,0,311.77,189.28Z"/><path d="M321.39,182.77a5.7,5.7,0,0,0-.75-.06,2,2,0,0,0-2.05,1.29v6.37h-1.53v-9h1.49l0,1a2.38,2.38,0,0,1,2.13-1.2,1.5,1.5,0,0,1,.68.12Z"/><path d="M322.23,185.8a5.22,5.22,0,0,1,.52-2.37,3.88,3.88,0,0,1,1.44-1.63,4,4,0,0,1,2.11-.57,3.76,3.76,0,0,1,3,1.27,4.84,4.84,0,0,1,1.14,3.37V186a5.27,5.27,0,0,1-.51,2.35,3.76,3.76,0,0,1-1.43,1.62,4,4,0,0,1-2.14.58,3.77,3.77,0,0,1-3-1.27,4.85,4.85,0,0,1-1.13-3.35Zm1.54.18a3.8,3.8,0,0,0,.7,2.4,2.22,2.22,0,0,0,1.85.9,2.16,2.16,0,0,0,1.85-.92,4.17,4.17,0,0,0,.69-2.56,3.81,3.81,0,0,0-.7-2.39,2.21,2.21,0,0,0-1.86-.92,2.19,2.19,0,0,0-1.83.91A4.11,4.11,0,0,0,323.77,186Z"/><path d="M337.54,188a1.14,1.14,0,0,0-.47-1,4.34,4.34,0,0,0-1.63-.59,8,8,0,0,1-1.85-.6,2.6,2.6,0,0,1-1-.83,2,2,0,0,1-.33-1.14,2.3,2.3,0,0,1,.94-1.86,3.62,3.62,0,0,1,2.38-.77A3.7,3.7,0,0,1,338,182a2.49,2.49,0,0,1,.95,2h-1.54a1.36,1.36,0,0,0-.54-1.08,2,2,0,0,0-1.34-.46,2,2,0,0,0-1.31.37,1.13,1.13,0,0,0-.47.95.94.94,0,0,0,.43.84,5.78,5.78,0,0,0,1.59.54,7.93,7.93,0,0,1,1.86.61,2.67,2.67,0,0,1,1.06.86,2.09,2.09,0,0,1,.34,1.22,2.31,2.31,0,0,1-1,1.93,4,4,0,0,1-2.49.72,4.58,4.58,0,0,1-1.91-.38,3.18,3.18,0,0,1-1.3-1.06,2.59,2.59,0,0,1-.46-1.48h1.53a1.58,1.58,0,0,0,.62,1.22,2.39,2.39,0,0,0,1.52.45,2.49,2.49,0,0,0,1.39-.35A1.07,1.07,0,0,0,337.54,188Z"/><path d="M346.29,188a1.13,1.13,0,0,0-.46-1,4.47,4.47,0,0,0-1.64-.59,8.19,8.19,0,0,1-1.85-.6,2.67,2.67,0,0,1-1-.83,2,2,0,0,1-.32-1.14,2.31,2.31,0,0,1,.93-1.86,3.62,3.62,0,0,1,2.38-.77,3.7,3.7,0,0,1,2.47.79,2.46,2.46,0,0,1,.95,2H346.2a1.38,1.38,0,0,0-.53-1.08,2,2,0,0,0-1.35-.46,2.06,2.06,0,0,0-1.31.37,1.15,1.15,0,0,0-.47.95.94.94,0,0,0,.44.84,5.54,5.54,0,0,0,1.59.54,8,8,0,0,1,1.85.61,2.67,2.67,0,0,1,1.06.86,2.09,2.09,0,0,1,.35,1.22,2.31,2.31,0,0,1-1,1.93,4.09,4.09,0,0,1-2.5.72,4.62,4.62,0,0,1-1.91-.38,3.08,3.08,0,0,1-1.29-1.06,2.52,2.52,0,0,1-.47-1.48h1.53a1.61,1.61,0,0,0,.62,1.22,2.39,2.39,0,0,0,1.52.45,2.52,2.52,0,0,0,1.4-.35A1.09,1.09,0,0,0,346.29,188Z"/><path d="M359.25,188a1.14,1.14,0,0,0-.47-1,4.41,4.41,0,0,0-1.63-.59,8,8,0,0,1-1.85-.6,2.6,2.6,0,0,1-1-.83,2,2,0,0,1-.33-1.14,2.31,2.31,0,0,1,.93-1.86,3.65,3.65,0,0,1,2.39-.77,3.72,3.72,0,0,1,2.47.79,2.49,2.49,0,0,1,.95,2h-1.54a1.36,1.36,0,0,0-.54-1.08,2,2,0,0,0-1.34-.46,2,2,0,0,0-1.31.37,1.14,1.14,0,0,0-.48.95.94.94,0,0,0,.44.84,5.78,5.78,0,0,0,1.59.54,7.93,7.93,0,0,1,1.86.61,2.67,2.67,0,0,1,1.06.86,2.09,2.09,0,0,1,.34,1.22,2.31,2.31,0,0,1-1,1.93,4.05,4.05,0,0,1-2.5.72,4.57,4.57,0,0,1-1.9-.38,3.18,3.18,0,0,1-1.3-1.06,2.6,2.6,0,0,1-.47-1.48h1.54a1.6,1.6,0,0,0,.61,1.22,2.43,2.43,0,0,0,1.52.45,2.5,2.5,0,0,0,1.4-.35A1.1,1.1,0,0,0,359.25,188Z"/><path d="M364.22,181.4l0,1a3.33,3.33,0,0,1,2.66-1.16,2.56,2.56,0,0,1,2.56,1.44,3.36,3.36,0,0,1,1.17-1,3.39,3.39,0,0,1,1.7-.4q2.94,0,3,3.13v6h-1.54v-5.92a2.08,2.08,0,0,0-.44-1.44,1.91,1.91,0,0,0-1.47-.48,2,2,0,0,0-1.42.51,2,2,0,0,0-.65,1.37v6h-1.55v-5.88a1.71,1.71,0,0,0-1.91-2,2.06,2.06,0,0,0-2.07,1.29v6.55h-1.53v-9Z"/><path d="M383.19,190.37a3.14,3.14,0,0,1-.21-1,3.45,3.45,0,0,1-2.56,1.11,3.15,3.15,0,0,1-2.17-.75,2.41,2.41,0,0,1-.85-1.9,2.55,2.55,0,0,1,1.06-2.18,5.08,5.08,0,0,1,3-.77H383v-.71a1.74,1.74,0,0,0-.48-1.28,2,2,0,0,0-1.41-.47,2.28,2.28,0,0,0-1.38.41,1.23,1.23,0,0,0-.56,1h-1.54a2.09,2.09,0,0,1,.48-1.29,3.17,3.17,0,0,1,1.29-1,4.22,4.22,0,0,1,1.79-.37,3.51,3.51,0,0,1,2.43.78,2.8,2.8,0,0,1,.92,2.13v4.13a5,5,0,0,0,.31,2v.14Zm-2.54-1.17a2.72,2.72,0,0,0,1.36-.37,2.21,2.21,0,0,0,.94-1V186h-1.2c-1.88,0-2.82.54-2.82,1.64a1.4,1.4,0,0,0,.48,1.13A1.85,1.85,0,0,0,380.65,189.2Z"/><path d="M388.56,190.37H387V177.63h1.54Z"/><path d="M392.67,190.37h-1.53V177.63h1.53Z"/><path d="M404.87,190.37a3.4,3.4,0,0,1-.22-1,3.41,3.41,0,0,1-2.55,1.11,3.19,3.19,0,0,1-2.18-.75,2.44,2.44,0,0,1-.85-1.9,2.56,2.56,0,0,1,1.07-2.18,5.08,5.08,0,0,1,3-.77h1.49v-.71a1.74,1.74,0,0,0-.48-1.28,2,2,0,0,0-1.42-.47,2.28,2.28,0,0,0-1.38.41,1.22,1.22,0,0,0-.55,1h-1.54a2.08,2.08,0,0,1,.47-1.29,3.2,3.2,0,0,1,1.3-1,4.22,4.22,0,0,1,1.79-.37,3.55,3.55,0,0,1,2.43.78,2.8,2.8,0,0,1,.91,2.13v4.13a5,5,0,0,0,.31,2v.14Zm-2.55-1.17a2.79,2.79,0,0,0,1.37-.37,2.33,2.33,0,0,0,.94-1V186h-1.21c-1.87,0-2.81.54-2.81,1.64a1.4,1.4,0,0,0,.48,1.13A1.84,1.84,0,0,0,402.32,189.2Z"/><path d="M410,181.4l.05,1.13a3.26,3.26,0,0,1,2.69-1.3q2.83,0,2.87,3.21v5.93h-1.54v-5.94a2,2,0,0,0-.44-1.43,1.78,1.78,0,0,0-1.36-.47,2.23,2.23,0,0,0-1.3.4,2.7,2.7,0,0,0-.88,1v6.4h-1.54v-9Z"/><path d="M417.56,185.81a5.24,5.24,0,0,1,1-3.32,3.33,3.33,0,0,1,5.06-.18v-4.68h1.53v12.74h-1.4l-.08-1a3.1,3.1,0,0,1-2.56,1.13,3,3,0,0,1-2.54-1.28,5.27,5.27,0,0,1-1-3.33Zm1.53.17a4,4,0,0,0,.63,2.39,2,2,0,0,0,1.74.86,2.25,2.25,0,0,0,2.13-1.31V183.8a2.24,2.24,0,0,0-2.11-1.27,2.05,2.05,0,0,0-1.76.87A4.4,4.4,0,0,0,419.09,186Z"/><path d="M433.15,181.4l0,1a3.32,3.32,0,0,1,2.66-1.16,2.56,2.56,0,0,1,2.56,1.44,3.34,3.34,0,0,1,2.86-1.44q3,0,3,3.13v6h-1.53v-5.92a2.08,2.08,0,0,0-.44-1.44,2,2,0,0,0-1.48-.48,2,2,0,0,0-1.42.51,2.09,2.09,0,0,0-.65,1.37v6h-1.54v-5.88a1.71,1.71,0,0,0-1.92-2,2.05,2.05,0,0,0-2.06,1.29v6.55H431.7v-9Z"/><path d="M450.3,190.53a3.9,3.9,0,0,1-3-1.2,4.45,4.45,0,0,1-1.15-3.2v-.28a5.41,5.41,0,0,1,.51-2.39,4.08,4.08,0,0,1,1.43-1.64,3.61,3.61,0,0,1,2-.59,3.37,3.37,0,0,1,2.72,1.15,5,5,0,0,1,1,3.3v.64h-6.07a3.17,3.17,0,0,0,.77,2.14,2.44,2.44,0,0,0,1.89.82,2.65,2.65,0,0,0,1.37-.33,3.31,3.31,0,0,0,1-.88l.94.73A3.76,3.76,0,0,1,450.3,190.53Zm-.19-8a2.07,2.07,0,0,0-1.56.68,3.34,3.34,0,0,0-.77,1.89h4.49v-.12a3,3,0,0,0-.63-1.81A1.92,1.92,0,0,0,450.11,182.49Z"/><path d="M455.2,185.81a5.25,5.25,0,0,1,1-3.32,3.09,3.09,0,0,1,2.56-1.26,3.13,3.13,0,0,1,2.5,1.08v-4.68h1.53v12.74h-1.41l-.07-1a3.12,3.12,0,0,1-2.57,1.13,3.06,3.06,0,0,1-2.54-1.28,5.34,5.34,0,0,1-1-3.33Zm1.54.17a3.92,3.92,0,0,0,.63,2.39,2,2,0,0,0,1.74.86,2.25,2.25,0,0,0,2.13-1.31V183.8a2.26,2.26,0,0,0-2.12-1.27,2,2,0,0,0-1.75.87A4.33,4.33,0,0,0,456.74,186Z"/><path d="M465.16,179a.88.88,0,0,1,.23-.63.84.84,0,0,1,.67-.26.84.84,0,0,1,.91.89.84.84,0,0,1-.23.62.88.88,0,0,1-.68.25.83.83,0,0,1-.9-.87Zm1.65,11.35h-1.53v-9h1.53Z"/><path d="M474.81,189.48a3.26,3.26,0,0,1-2.63,1.05,2.81,2.81,0,0,1-2.19-.83,3.59,3.59,0,0,1-.75-2.47V181.4h1.53v5.79c0,1.36.55,2,1.66,2a2.31,2.31,0,0,0,2.34-1.31V181.4h1.53v9h-1.46Z"/><path d="M480.07,181.4l0,1a3.32,3.32,0,0,1,2.66-1.16,2.56,2.56,0,0,1,2.56,1.44,3.38,3.38,0,0,1,2.86-1.44q3,0,3,3.13v6h-1.53v-5.92a2.08,2.08,0,0,0-.44-1.44,1.92,1.92,0,0,0-1.48-.48,2,2,0,0,0-1.41.51,2.06,2.06,0,0,0-.66,1.37v6h-1.54v-5.88a1.71,1.71,0,0,0-1.91-2,2.06,2.06,0,0,0-2.07,1.29v6.55h-1.53v-9Z"/><path d="M496.69,185.86h-4v-1.25h4Z"/><path d="M503.41,188a1.14,1.14,0,0,0-.47-1,4.34,4.34,0,0,0-1.63-.59,8,8,0,0,1-1.85-.6,2.6,2.6,0,0,1-1-.83,2,2,0,0,1-.33-1.14,2.3,2.3,0,0,1,.94-1.86,3.62,3.62,0,0,1,2.38-.77,3.72,3.72,0,0,1,2.47.79,2.49,2.49,0,0,1,.95,2h-1.54a1.36,1.36,0,0,0-.54-1.08,2,2,0,0,0-1.34-.46,2,2,0,0,0-1.31.37,1.14,1.14,0,0,0-.48.95.94.94,0,0,0,.44.84,5.78,5.78,0,0,0,1.59.54,7.93,7.93,0,0,1,1.86.61,2.67,2.67,0,0,1,1.06.86,2.09,2.09,0,0,1,.34,1.22,2.31,2.31,0,0,1-1,1.93,4,4,0,0,1-2.49.72,4.58,4.58,0,0,1-1.91-.38,3.18,3.18,0,0,1-1.3-1.06,2.59,2.59,0,0,1-.46-1.48h1.53a1.58,1.58,0,0,0,.62,1.22,2.39,2.39,0,0,0,1.52.45,2.49,2.49,0,0,0,1.39-.35A1.07,1.07,0,0,0,503.41,188Z"/><path d="M507,179a.92.92,0,0,1,.23-.63,1,1,0,0,1,1.35,0,.88.88,0,0,1,.23.63.84.84,0,0,1-.23.62.86.86,0,0,1-.68.25.85.85,0,0,1-.67-.25A.88.88,0,0,1,507,179Zm1.66,11.35h-1.54v-9h1.54Z"/><path d="M512.5,189.11h5.25v1.26h-7.12v-1.13l5-6.57H510.7V181.4h6.8v1.08Z"/><path d="M523.06,190.53a3.9,3.9,0,0,1-3-1.2,4.41,4.41,0,0,1-1.15-3.2v-.28a5.41,5.41,0,0,1,.51-2.39,4.08,4.08,0,0,1,1.43-1.64,3.61,3.61,0,0,1,2-.59,3.38,3.38,0,0,1,2.72,1.15,5,5,0,0,1,1,3.3v.64h-6.07a3.12,3.12,0,0,0,.77,2.14,2.41,2.41,0,0,0,1.89.82,2.65,2.65,0,0,0,1.37-.33,3.43,3.43,0,0,0,1-.88l.93.73A3.74,3.74,0,0,1,523.06,190.53Zm-.19-8a2.05,2.05,0,0,0-1.56.68,3.28,3.28,0,0,0-.78,1.89H525v-.12a3,3,0,0,0-.63-1.81A1.94,1.94,0,0,0,522.87,182.49Z"/><path d="M528,185.81a5.25,5.25,0,0,1,1-3.32,3.32,3.32,0,0,1,5-.18v-4.68h1.54v12.74h-1.41l-.08-1a3.09,3.09,0,0,1-2.56,1.13,3,3,0,0,1-2.54-1.28,5.34,5.34,0,0,1-1-3.33Zm1.53.17a4,4,0,0,0,.63,2.39,2.05,2.05,0,0,0,1.75.86,2.22,2.22,0,0,0,2.12-1.31V183.8a2.24,2.24,0,0,0-2.11-1.27,2.05,2.05,0,0,0-1.76.87A4.4,4.4,0,0,0,529.49,186Z"/><path d="M311.15,210.9a3.9,3.9,0,0,1-3-1.2,4.39,4.39,0,0,1-1.15-3.2v-.28a5.37,5.37,0,0,1,.51-2.38A4,4,0,0,1,309,202.2a3.54,3.54,0,0,1,2-.6,3.36,3.36,0,0,1,2.72,1.16,4.94,4.94,0,0,1,1,3.3v.63h-6.07a3.17,3.17,0,0,0,.77,2.15,2.44,2.44,0,0,0,1.89.81,2.65,2.65,0,0,0,1.37-.33,3.43,3.43,0,0,0,1-.88l.93.73A3.74,3.74,0,0,1,311.15,210.9Zm-.19-8a2.05,2.05,0,0,0-1.56.68,3.28,3.28,0,0,0-.78,1.89h4.49v-.11a2.9,2.9,0,0,0-.62-1.81A1.94,1.94,0,0,0,311,202.86Z"/><path d="M317.87,201.77l.05,1.13a3.29,3.29,0,0,1,2.69-1.3q2.83,0,2.87,3.21v5.93h-1.54V204.8a2,2,0,0,0-.44-1.43,1.78,1.78,0,0,0-1.36-.46,2.22,2.22,0,0,0-1.3.39,2.73,2.73,0,0,0-.88,1v6.39h-1.54v-9Z"/><path d="M327.87,199.6v2.17h1.67V203h-1.67v5.57a1.3,1.3,0,0,0,.22.81,1,1,0,0,0,.77.27,3.52,3.52,0,0,0,.73-.1v1.24a4.52,4.52,0,0,1-1.18.16,1.89,1.89,0,0,1-1.55-.62,2.64,2.64,0,0,1-.52-1.76V203H324.7v-1.18h1.64V199.6Z"/><path d="M335.06,210.9a3.91,3.91,0,0,1-3-1.2,4.43,4.43,0,0,1-1.15-3.2v-.28a5.51,5.51,0,0,1,.51-2.38,4,4,0,0,1,1.43-1.64,3.55,3.55,0,0,1,2-.6,3.37,3.37,0,0,1,2.72,1.16,5,5,0,0,1,1,3.3v.63h-6.07a3.22,3.22,0,0,0,.77,2.15,2.47,2.47,0,0,0,1.89.81,2.65,2.65,0,0,0,1.37-.33,3.31,3.31,0,0,0,1-.88l.94.73A3.75,3.75,0,0,1,335.06,210.9Zm-.19-8a2.05,2.05,0,0,0-1.56.68,3.28,3.28,0,0,0-.78,1.89H337v-.11a2.85,2.85,0,0,0-.63-1.81A1.92,1.92,0,0,0,334.87,202.86Z"/><path d="M344.66,203.15a4.38,4.38,0,0,0-.75-.06,2,2,0,0,0-2.05,1.28v6.37h-1.53v-9h1.49l0,1A2.41,2.41,0,0,1,344,201.6a1.5,1.5,0,0,1,.68.12Z"/><path d="M353.65,206.35a5.38,5.38,0,0,1-.94,3.3,3,3,0,0,1-2.54,1.25,3.29,3.29,0,0,1-2.57-1v4.32h-1.53V201.77h1.4l.08,1a3.14,3.14,0,0,1,2.6-1.17,3.08,3.08,0,0,1,2.56,1.22,5.49,5.49,0,0,1,.94,3.39Zm-1.54-.17a4,4,0,0,0-.64-2.4,2.1,2.1,0,0,0-1.78-.87,2.26,2.26,0,0,0-2.09,1.23v4.28a2.26,2.26,0,0,0,2.11,1.23,2.07,2.07,0,0,0,1.75-.87A4.35,4.35,0,0,0,352.11,206.18Z"/><path d="M359.93,203.15a4.38,4.38,0,0,0-.75-.06,2,2,0,0,0-2.05,1.28v6.37H355.6v-9h1.49l0,1a2.41,2.41,0,0,1,2.14-1.21,1.5,1.5,0,0,1,.68.12Z"/><path d="M361.35,199.39a.88.88,0,0,1,.23-.63.84.84,0,0,1,.67-.26.84.84,0,0,1,.91.89.84.84,0,0,1-.23.62.88.88,0,0,1-.68.25.83.83,0,0,1-.9-.87ZM363,210.74h-1.53v-9H363Z"/><path d="M370.68,208.36a1.15,1.15,0,0,0-.47-1,4.6,4.6,0,0,0-1.63-.59,7.57,7.57,0,0,1-1.85-.6,2.51,2.51,0,0,1-1-.83,1.94,1.94,0,0,1-.33-1.14,2.33,2.33,0,0,1,.93-1.86,3.65,3.65,0,0,1,2.39-.77,3.77,3.77,0,0,1,2.47.79,2.53,2.53,0,0,1,.95,2h-1.54a1.37,1.37,0,0,0-.54-1.09,2,2,0,0,0-1.34-.46,2,2,0,0,0-1.31.37,1.14,1.14,0,0,0-.48,1,.94.94,0,0,0,.44.84,5.46,5.46,0,0,0,1.59.54,7.93,7.93,0,0,1,1.86.61,2.76,2.76,0,0,1,1.06.86,2.09,2.09,0,0,1,.34,1.22,2.31,2.31,0,0,1-1,1.93,4,4,0,0,1-2.49.72,4.43,4.43,0,0,1-1.91-.38,3.18,3.18,0,0,1-1.3-1.06,2.59,2.59,0,0,1-.46-1.48h1.53a1.58,1.58,0,0,0,.62,1.22,2.39,2.39,0,0,0,1.52.45,2.49,2.49,0,0,0,1.39-.35A1.1,1.1,0,0,0,370.68,208.36Z"/><path d="M377.93,210.9a3.9,3.9,0,0,1-3-1.2,4.39,4.39,0,0,1-1.15-3.2v-.28a5.37,5.37,0,0,1,.51-2.38,4,4,0,0,1,1.43-1.64,3.54,3.54,0,0,1,2-.6,3.36,3.36,0,0,1,2.72,1.16,4.94,4.94,0,0,1,1,3.3v.63h-6.07a3.17,3.17,0,0,0,.77,2.15,2.44,2.44,0,0,0,1.89.81,2.67,2.67,0,0,0,1.37-.33,3.43,3.43,0,0,0,1-.88l.93.73A3.74,3.74,0,0,1,377.93,210.9Zm-.19-8a2.05,2.05,0,0,0-1.56.68,3.28,3.28,0,0,0-.78,1.89h4.49v-.11a2.9,2.9,0,0,0-.62-1.81A1.94,1.94,0,0,0,377.74,202.86Z"/><path d="M388.42,208.36a1.14,1.14,0,0,0-.46-1,4.66,4.66,0,0,0-1.64-.59,7.47,7.47,0,0,1-1.84-.6,2.55,2.55,0,0,1-1-.83,2,2,0,0,1-.32-1.14,2.33,2.33,0,0,1,.93-1.86,3.64,3.64,0,0,1,2.38-.77,3.8,3.8,0,0,1,2.48.79,2.52,2.52,0,0,1,.94,2h-1.54a1.36,1.36,0,0,0-.53-1.09,2.34,2.34,0,0,0-2.66-.09,1.15,1.15,0,0,0-.47,1,.94.94,0,0,0,.44.84,5.24,5.24,0,0,0,1.59.54,8.26,8.26,0,0,1,1.86.61,2.8,2.8,0,0,1,1.05.86,2.09,2.09,0,0,1,.35,1.22,2.31,2.31,0,0,1-1,1.93,4.09,4.09,0,0,1-2.5.72,4.39,4.39,0,0,1-1.9-.38,3.05,3.05,0,0,1-1.3-1.06,2.6,2.6,0,0,1-.47-1.48h1.53a1.61,1.61,0,0,0,.62,1.22,2.41,2.41,0,0,0,1.52.45,2.52,2.52,0,0,0,1.4-.35A1.09,1.09,0,0,0,388.42,208.36Z"/><path d="M401.69,210.74a3.39,3.39,0,0,1-.21-1,3.43,3.43,0,0,1-2.55,1.11,3.17,3.17,0,0,1-2.18-.75,2.41,2.41,0,0,1-.85-1.9,2.53,2.53,0,0,1,1.07-2.17,5,5,0,0,1,3-.78h1.5v-.7a1.71,1.71,0,0,0-.49-1.28,1.91,1.91,0,0,0-1.41-.48,2.28,2.28,0,0,0-1.38.41,1.23,1.23,0,0,0-.56,1h-1.54a2.11,2.11,0,0,1,.48-1.29,3.23,3.23,0,0,1,1.29-1,4.3,4.3,0,0,1,1.8-.37,3.55,3.55,0,0,1,2.43.78,2.85,2.85,0,0,1,.91,2.13v4.13a5.08,5.08,0,0,0,.31,2v.13Zm-2.54-1.17a2.79,2.79,0,0,0,1.37-.37,2.36,2.36,0,0,0,.94-1v-1.84h-1.21c-1.88,0-2.81.55-2.81,1.64a1.36,1.36,0,0,0,.48,1.13A1.84,1.84,0,0,0,399.15,209.57Z"/><path d="M409,209.65a2.15,2.15,0,0,0,1.43-.5,1.72,1.72,0,0,0,.68-1.24h1.45a2.72,2.72,0,0,1-.53,1.47,3.53,3.53,0,0,1-1.3,1.11,3.73,3.73,0,0,1-1.73.41,3.67,3.67,0,0,1-2.91-1.22,4.82,4.82,0,0,1-1.09-3.34v-.26a5.42,5.42,0,0,1,.49-2.33,3.61,3.61,0,0,1,1.38-1.58,3.86,3.86,0,0,1,2.12-.57,3.62,3.62,0,0,1,2.51.91,3.22,3.22,0,0,1,1.06,2.34H411.1a2.09,2.09,0,0,0-.66-1.43,2,2,0,0,0-1.46-.56,2.15,2.15,0,0,0-1.81.84,4,4,0,0,0-.64,2.44v.29a3.81,3.81,0,0,0,.64,2.38A2.14,2.14,0,0,0,409,209.65Z"/><path d="M418.61,203.15a4.38,4.38,0,0,0-.75-.06,2,2,0,0,0-2.05,1.28v6.37h-1.53v-9h1.49l0,1a2.38,2.38,0,0,1,2.13-1.21,1.5,1.5,0,0,1,.68.12Z"/><path d="M419.45,206.17a5.22,5.22,0,0,1,.52-2.37,3.79,3.79,0,0,1,1.44-1.62,3.87,3.87,0,0,1,2.11-.58,3.79,3.79,0,0,1,3,1.27,4.86,4.86,0,0,1,1.13,3.37v.11a5.23,5.23,0,0,1-.5,2.35,3.71,3.71,0,0,1-1.43,1.62,4,4,0,0,1-2.14.58,3.78,3.78,0,0,1-3-1.26,4.89,4.89,0,0,1-1.13-3.36Zm1.54.18a3.84,3.84,0,0,0,.69,2.4,2.23,2.23,0,0,0,1.86.9,2.19,2.19,0,0,0,1.85-.91,4.2,4.2,0,0,0,.69-2.57,3.81,3.81,0,0,0-.7-2.39,2.24,2.24,0,0,0-1.86-.92,2.2,2.2,0,0,0-1.83.91A4.11,4.11,0,0,0,421,206.35Z"/><path d="M434.76,208.36a1.15,1.15,0,0,0-.47-1,4.6,4.6,0,0,0-1.63-.59,7.57,7.57,0,0,1-1.85-.6,2.51,2.51,0,0,1-1-.83,1.94,1.94,0,0,1-.33-1.14,2.33,2.33,0,0,1,.93-1.86,3.65,3.65,0,0,1,2.39-.77,3.77,3.77,0,0,1,2.47.79,2.53,2.53,0,0,1,.95,2h-1.54a1.37,1.37,0,0,0-.54-1.09,2,2,0,0,0-1.34-.46,2,2,0,0,0-1.31.37,1.14,1.14,0,0,0-.48,1,.94.94,0,0,0,.44.84,5.35,5.35,0,0,0,1.59.54,7.93,7.93,0,0,1,1.86.61A2.76,2.76,0,0,1,436,207a2.09,2.09,0,0,1,.34,1.22,2.31,2.31,0,0,1-1,1.93,4.05,4.05,0,0,1-2.5.72,4.42,4.42,0,0,1-1.9-.38,3.11,3.11,0,0,1-1.3-1.06,2.6,2.6,0,0,1-.47-1.48h1.54a1.57,1.57,0,0,0,.61,1.22,2.43,2.43,0,0,0,1.52.45,2.5,2.5,0,0,0,1.4-.35A1.1,1.1,0,0,0,434.76,208.36Z"/><path d="M443.51,208.36a1.15,1.15,0,0,0-.47-1,4.52,4.52,0,0,0-1.63-.59,7.57,7.57,0,0,1-1.85-.6,2.58,2.58,0,0,1-1-.83,1.94,1.94,0,0,1-.33-1.14,2.31,2.31,0,0,1,.94-1.86,3.62,3.62,0,0,1,2.38-.77,3.75,3.75,0,0,1,2.47.79,2.53,2.53,0,0,1,.95,2h-1.54a1.37,1.37,0,0,0-.54-1.09,2,2,0,0,0-1.34-.46,2,2,0,0,0-1.31.37,1.13,1.13,0,0,0-.47,1,.94.94,0,0,0,.43.84,5.46,5.46,0,0,0,1.59.54,7.93,7.93,0,0,1,1.86.61,2.76,2.76,0,0,1,1.06.86,2.09,2.09,0,0,1,.34,1.22,2.31,2.31,0,0,1-1,1.93,4,4,0,0,1-2.49.72,4.46,4.46,0,0,1-1.91-.38,3.18,3.18,0,0,1-1.3-1.06,2.59,2.59,0,0,1-.46-1.48h1.53a1.58,1.58,0,0,0,.62,1.22,2.39,2.39,0,0,0,1.52.45,2.49,2.49,0,0,0,1.39-.35A1.07,1.07,0,0,0,443.51,208.36Z"/><path d="M453.19,210.74H451.6V198.67h1.59Z"/><path d="M457.31,201.77l.05,1.13a3.29,3.29,0,0,1,2.69-1.3c1.89,0,2.85,1.07,2.86,3.21v5.93h-1.53V204.8a2.09,2.09,0,0,0-.44-1.43,1.78,1.78,0,0,0-1.36-.46,2.25,2.25,0,0,0-1.31.39,2.91,2.91,0,0,0-.88,1v6.39h-1.53v-9Z"/><path d="M464.85,206.18a5.27,5.27,0,0,1,1-3.32,3.09,3.09,0,0,1,2.56-1.26,3.13,3.13,0,0,1,2.5,1.08V198h1.53v12.73H471l-.07-1a3.13,3.13,0,0,1-2.56,1.12,3.05,3.05,0,0,1-2.54-1.27,5.3,5.3,0,0,1-1-3.33Zm1.54.17a4,4,0,0,0,.63,2.39,2,2,0,0,0,1.74.86,2.23,2.23,0,0,0,2.13-1.31v-4.12a2.27,2.27,0,0,0-2.12-1.26,2,2,0,0,0-1.75.87A4.35,4.35,0,0,0,466.39,206.35Z"/><path d="M474.39,206.17a5.22,5.22,0,0,1,.52-2.37,3.92,3.92,0,0,1,1.44-1.62,3.87,3.87,0,0,1,2.11-.58,3.83,3.83,0,0,1,3,1.27,4.9,4.9,0,0,1,1.13,3.37v.11a5.24,5.24,0,0,1-.51,2.35,3.71,3.71,0,0,1-1.43,1.62,3.92,3.92,0,0,1-2.14.58,3.8,3.8,0,0,1-3-1.26,4.89,4.89,0,0,1-1.13-3.36Zm1.54.18a3.85,3.85,0,0,0,.7,2.4,2.35,2.35,0,0,0,3.71,0,4.2,4.2,0,0,0,.68-2.57,3.81,3.81,0,0,0-.7-2.39,2.32,2.32,0,0,0-3.69,0A4.17,4.17,0,0,0,475.93,206.35Z"/><path d="M485.93,201.77l.05,1.13a3.29,3.29,0,0,1,2.69-1.3c1.89,0,2.85,1.07,2.86,3.21v5.93H490V204.8a2.09,2.09,0,0,0-.44-1.43,1.78,1.78,0,0,0-1.36-.46,2.25,2.25,0,0,0-1.31.39,2.82,2.82,0,0,0-.88,1v6.39h-1.53v-9Z"/><path d="M497.57,210.9a3.93,3.93,0,0,1-3-1.2,4.43,4.43,0,0,1-1.14-3.2v-.28a5.37,5.37,0,0,1,.51-2.38,3.93,3.93,0,0,1,1.42-1.64,3.6,3.6,0,0,1,2-.6,3.36,3.36,0,0,1,2.72,1.16,5,5,0,0,1,1,3.3v.63H495a3.17,3.17,0,0,0,.78,2.15,2.43,2.43,0,0,0,1.88.81,2.71,2.71,0,0,0,1.38-.33,3.4,3.4,0,0,0,1-.88l.94.73A3.75,3.75,0,0,1,497.57,210.9Zm-.19-8a2.05,2.05,0,0,0-1.56.68,3.28,3.28,0,0,0-.78,1.89h4.49v-.11a2.85,2.85,0,0,0-.63-1.81A1.91,1.91,0,0,0,497.38,202.86Z"/><path d="M508.06,208.36a1.15,1.15,0,0,0-.47-1,4.52,4.52,0,0,0-1.63-.59,7.57,7.57,0,0,1-1.85-.6,2.58,2.58,0,0,1-1-.83,1.94,1.94,0,0,1-.33-1.14,2.31,2.31,0,0,1,.94-1.86,3.62,3.62,0,0,1,2.38-.77,3.75,3.75,0,0,1,2.47.79,2.5,2.5,0,0,1,.95,2H508a1.39,1.39,0,0,0-.53-1.09,2.34,2.34,0,0,0-2.66-.09,1.13,1.13,0,0,0-.47,1,.92.92,0,0,0,.44.84,5.26,5.26,0,0,0,1.58.54,7.93,7.93,0,0,1,1.86.61,2.76,2.76,0,0,1,1.06.86,2.09,2.09,0,0,1,.35,1.22,2.32,2.32,0,0,1-1,1.93,4,4,0,0,1-2.49.72,4.46,4.46,0,0,1-1.91-.38,3.18,3.18,0,0,1-1.3-1.06,2.59,2.59,0,0,1-.46-1.48H504a1.61,1.61,0,0,0,.62,1.22,2.39,2.39,0,0,0,1.52.45,2.52,2.52,0,0,0,1.4-.35A1.09,1.09,0,0,0,508.06,208.36Z"/><path d="M511.6,199.39a.92.92,0,0,1,.23-.63,1,1,0,0,1,1.35,0,.88.88,0,0,1,.24.63.84.84,0,0,1-.24.62.86.86,0,0,1-.68.25.85.85,0,0,1-.67-.25A.88.88,0,0,1,511.6,199.39Zm1.66,11.35h-1.53v-9h1.53Z"/><path d="M521.25,210.74a3.31,3.31,0,0,1-.22-1,3.41,3.41,0,0,1-2.55,1.11,3.19,3.19,0,0,1-2.18-.75,2.44,2.44,0,0,1-.85-1.9,2.53,2.53,0,0,1,1.07-2.17,5,5,0,0,1,3-.78H521v-.7a1.7,1.7,0,0,0-.48-1.28,1.94,1.94,0,0,0-1.42-.48,2.28,2.28,0,0,0-1.38.41,1.22,1.22,0,0,0-.55,1h-1.54a2.16,2.16,0,0,1,.47-1.29,3.2,3.2,0,0,1,1.3-1,4.22,4.22,0,0,1,1.79-.37,3.55,3.55,0,0,1,2.43.78,2.81,2.81,0,0,1,.91,2.13v4.13a5.27,5.27,0,0,0,.31,2v.13Zm-2.55-1.17a2.79,2.79,0,0,0,1.37-.37,2.36,2.36,0,0,0,.94-1v-1.84H519.8c-1.87,0-2.81.55-2.81,1.64a1.39,1.39,0,0,0,.48,1.13A1.84,1.84,0,0,0,518.7,209.57Z"/><path d="M525,209.93a1,1,0,0,1,.24-.66.86.86,0,0,1,.7-.26.91.91,0,0,1,.72.26.92.92,0,0,1,.25.66.86.86,0,0,1-.25.64,1,1,0,0,1-.72.26.86.86,0,0,1-.94-.9Z"/><rect class="cls-1" x="44.92" y="44.02" width="161.95" height="161.95" transform="translate(125.26 -52.41) rotate(45)"/><g class="cls-2"><path class="cls-3" d="M125.9,227.87,23,125,125.9,22.13,228.77,125ZM26.21,125l99.69,99.69L225.59,125,125.9,25.31Zm99.69,89.8L91.57,180.47l26.25-26.26L92.37,128.76,74.31,146.82l11.93,11.93,4.94-4.94-7-7,8.18-8.17,15.56,15.56L86.62,175.52l-30-30L77.12,125,56.61,104.49l30-30,21.31,21.31L92.37,111.35l-8.18-8.17,7-7-4.94-4.94L74.31,103.18l18.06,18.06,25.45-25.45L91.57,69.53,125.9,35.2l34.33,34.33L134,95.79l25.45,25.45,18.06-18.06L165.56,91.24l-4.94,5,7,7-8.17,8.17L143.86,95.79l21.32-21.31,30,30L174.68,125l20.51,20.51-30,30-21.32-21.31,15.57-15.56,8.17,8.17-7,7,4.94,4.94,11.93-11.93-18.06-18.06L134,154.21l26.25,26.26ZM94.74,180.47l31.16,31.15,31.15-31.15L130.8,154.21l28.63-28.63,21.24,21.24-15.11,15.11-8.12-8.12,7-7-5-5L147,154.21l18.14,18.14L192,145.51,171.5,125,192,104.49,165.18,77.65,147,95.79l12.39,12.38,5-5-7-7,8.12-8.12,15.11,15.11-21.24,21.24L130.8,95.79l26.25-26.26L125.9,38.38,94.74,69.53,121,95.79,92.37,124.42,71.13,103.18,86.24,88.07l8.12,8.12-7,7,5,5,12.38-12.38L86.62,77.65,59.79,104.49,80.3,125,59.79,145.51l26.83,26.84,18.13-18.14L92.37,141.83l-5,5,7,7-8.12,8.12L71.13,146.82l21.24-21.24L121,154.21Zm105.39-39.9L184.57,125l15.56-15.57L215.7,125ZM187.75,125l12.38,12.39L212.52,125l-12.39-12.39ZM51.66,140.57,36.1,125l15.56-15.57L67.23,125ZM39.28,125l12.38,12.39L64.05,125,51.66,112.61Z"/><path class="cls-3" d="M125.9,204.2l-24.09-24.09L125.9,156,150,180.11ZM105,180.11,125.9,201l20.91-20.91L125.9,159.2Z"/><path class="cls-3" d="M125.9,93.31,101.81,69.22,125.9,45.14,150,69.22ZM105,69.22,125.9,90.13l20.91-20.91L125.9,48.31Z"/></g><polygon class="cls-4" points="11.96 125 126.01 239.05 528.57 239.05 642.62 125 528.57 10.95 126.01 10.95 11.96 125"/><path class="cls-1" d="M313.16,62.06a4,4,0,0,1,1,2.77,4.42,4.42,0,0,1-.66,2.35,4.67,4.67,0,0,1-2,1.72,7.86,7.86,0,0,1-3.36.65,11.6,11.6,0,0,1-3-.41A7.57,7.57,0,0,1,302.55,68l1.31-2.59a6.3,6.3,0,0,0,1.94,1,7.34,7.34,0,0,0,2.24.35,3.64,3.64,0,0,0,2-.49,1.6,1.6,0,0,0,.73-1.39c0-1.2-.91-1.8-2.74-1.8h-1.55V60.8l3-3.41h-6.22V54.68h10.24v2.19l-3.31,3.76A4.88,4.88,0,0,1,313.16,62.06Z"/><path class="cls-1" d="M329.14,66.23h-2.38V69.3h-3.3V66.23h-7.88V64l6.9-9.27H326l-6.39,8.79h3.92V60.73h3.2v2.74h2.38Z"/><path class="cls-1" d="M334,66a2,2,0,0,1,.56,1.45,3.31,3.31,0,0,1-.1.83,10.71,10.71,0,0,1-.46,1.26l-1.19,3h-2.07l.92-3.33a1.66,1.66,0,0,1-.83-.67,2,2,0,0,1-.3-1.1,1.93,1.93,0,0,1,.57-1.45,2,2,0,0,1,1.45-.56A2,2,0,0,1,334,66Z"/><path class="cls-1" d="M346,56.29a7.62,7.62,0,0,1,1.74,5.38,9.12,9.12,0,0,1-.94,4.27,6.3,6.3,0,0,1-2.62,2.69,8.06,8.06,0,0,1-3.9.92,9.55,9.55,0,0,1-2.24-.26,6,6,0,0,1-1.82-.74l1.26-2.49a4.7,4.7,0,0,0,2.73.73,4,4,0,0,0,2.95-1.09,4.66,4.66,0,0,0,1.17-3.17,4.91,4.91,0,0,1-3.64,1.32,5.61,5.61,0,0,1-2.54-.57,4.36,4.36,0,0,1-1.82-1.6,4.23,4.23,0,0,1-.67-2.39,4.55,4.55,0,0,1,.73-2.57,4.76,4.76,0,0,1,2-1.7,6.43,6.43,0,0,1,2.81-.6A6.24,6.24,0,0,1,346,56.29Zm-2.75,4.41a2,2,0,0,0,.7-1.58,2,2,0,0,0-.68-1.56,2.66,2.66,0,0,0-1.86-.61,2.61,2.61,0,0,0-1.77.59,2,2,0,0,0-.68,1.58,2,2,0,0,0,.68,1.6,3,3,0,0,0,3.61,0Z"/><path class="cls-1" d="M352.37,68.65a6.06,6.06,0,0,1-2.22-2.6,10.61,10.61,0,0,1,0-8.13,6.06,6.06,0,0,1,2.22-2.6,6,6,0,0,1,8.7,2.6,10.61,10.61,0,0,1,0,8.13,6.09,6.09,0,0,1-8.7,2.6Zm5.34-3.11a6.53,6.53,0,0,0,.76-3.55,6.57,6.57,0,0,0-.76-3.56,2.49,2.49,0,0,0-4.18,0,6.57,6.57,0,0,0-.76,3.56,6.53,6.53,0,0,0,.76,3.55,2.47,2.47,0,0,0,4.18,0Z"/><path class="cls-1" d="M366.56,68.65a6.08,6.08,0,0,1-2.23-2.6,10.73,10.73,0,0,1,0-8.13,6.08,6.08,0,0,1,2.23-2.6,6.26,6.26,0,0,1,6.47,0,6.08,6.08,0,0,1,2.23,2.6,10.73,10.73,0,0,1,0,8.13,6.08,6.08,0,0,1-2.23,2.6,6.26,6.26,0,0,1-6.47,0Zm5.33-3.11a6.52,6.52,0,0,0,.77-3.55,6.56,6.56,0,0,0-.77-3.56,2.48,2.48,0,0,0-4.17,0A6.56,6.56,0,0,0,367,62a6.52,6.52,0,0,0,.77,3.55,2.47,2.47,0,0,0,4.17,0Z"/><path class="cls-1" d="M406.65,54.68,401.87,69.3h-3.64L395,59.4l-3.32,9.9h-3.61l-4.81-14.62h3.51L390.08,65l3.45-10.27h3.13L400,65l3.4-10.36Z"/><path class="cls-1" d="M411.34,68.57a7.47,7.47,0,0,1,0-13.17,9.07,9.07,0,0,1,8.2,0,7.39,7.39,0,0,1,2.86,2.71,7.68,7.68,0,0,1,0,7.75,7.39,7.39,0,0,1-2.86,2.71,9.07,9.07,0,0,1-8.2,0Zm6.45-2.5a4.36,4.36,0,0,0,1.64-1.66,5.28,5.28,0,0,0,0-4.85,4.36,4.36,0,0,0-1.64-1.66,4.73,4.73,0,0,0-2.34-.59,4.67,4.67,0,0,0-2.34.59,4.22,4.22,0,0,0-1.64,1.66,5.2,5.2,0,0,0,0,4.85,4.22,4.22,0,0,0,1.64,1.66,4.58,4.58,0,0,0,2.34.6A4.63,4.63,0,0,0,417.79,66.07Z"/><path class="cls-1" d="M435.32,69.3l-2.83-4.07h-3.11V69.3H426V54.68h6.33a8.14,8.14,0,0,1,3.37.64,4.87,4.87,0,0,1,3,4.66,4.88,4.88,0,0,1-.79,2.81,4.94,4.94,0,0,1-2.22,1.81L439,69.3Zm-.86-11.21a3.55,3.55,0,0,0-2.32-.66h-2.76v5.1h2.76a3.49,3.49,0,0,0,2.32-.67,2.64,2.64,0,0,0,0-3.77Z"/><path class="cls-1" d="M446.68,63.55l-2,2v3.7h-3.37V54.68h3.37v6.83l6.47-6.83H455l-6.06,6.51,6.42,8.11h-3.95Z"/><path class="cls-1" d="M468.14,66.58V69.3H456.81V54.68h11.06v2.71h-7.69v3.18H467V63.2h-6.78v3.38Z"/><path class="cls-1" d="M480.15,69.3l-2.82-4.07h-3.12V69.3h-3.38V54.68h6.33a8.14,8.14,0,0,1,3.37.64,5,5,0,0,1,2.21,1.84,5.11,5.11,0,0,1,.77,2.82,5,5,0,0,1-.78,2.81,5,5,0,0,1-2.23,1.81l3.28,4.7Zm-.86-11.21a3.55,3.55,0,0,0-2.32-.66h-2.76v5.1H477a3.49,3.49,0,0,0,2.32-.67,2.64,2.64,0,0,0,0-3.77Z"/><path class="cls-1" d="M487.64,69.08a7.77,7.77,0,0,1-2.6-1.22l1.15-2.55a7.75,7.75,0,0,0,2.23,1.11,8.38,8.38,0,0,0,2.59.41,4.09,4.09,0,0,0,2.13-.43,1.28,1.28,0,0,0,.69-1.13,1.07,1.07,0,0,0-.41-.87,3.1,3.1,0,0,0-1-.55c-.42-.14-1-.3-1.72-.46a23.4,23.4,0,0,1-2.74-.8,4.46,4.46,0,0,1-1.83-1.27,3.45,3.45,0,0,1-.76-2.34,4.07,4.07,0,0,1,.69-2.31A4.59,4.59,0,0,1,488.1,55a8.49,8.49,0,0,1,3.39-.61,11.36,11.36,0,0,1,2.74.34,8,8,0,0,1,2.34,1l-1,2.57a8.17,8.17,0,0,0-4.06-1.15,3.78,3.78,0,0,0-2.1.46,1.41,1.41,0,0,0-.68,1.21,1.19,1.19,0,0,0,.79,1.12,12.79,12.79,0,0,0,2.39.72,24.23,24.23,0,0,1,2.74.79,4.43,4.43,0,0,1,1.82,1.26A3.35,3.35,0,0,1,497.2,65a4,4,0,0,1-.7,2.28,4.71,4.71,0,0,1-2.1,1.64,8.49,8.49,0,0,1-3.41.61A12.1,12.1,0,0,1,487.64,69.08Z"/><path class="cls-1" d="M515.06,66.16h-6.79L507,69.3H503.5L510,54.68h3.35L519.9,69.3h-3.55ZM514,63.6,511.67,58l-2.32,5.6Z"/><path class="cls-1" d="M523.73,57.43h-4.68V54.68h12.74v2.75h-4.68V69.3h-3.38Z"/><path class="cls-1" d="M329.52,91.61v2.76h-11V92.18l5.64-5.33a6,6,0,0,0,1.21-1.48,2.63,2.63,0,0,0,.31-1.22,1.62,1.62,0,0,0-.59-1.34,2.74,2.74,0,0,0-1.75-.48,4,4,0,0,0-1.73.37,3.27,3.27,0,0,0-1.3,1.1l-2.46-1.59a5.8,5.8,0,0,1,2.36-2,7.88,7.88,0,0,1,3.45-.72,7,7,0,0,1,2.85.54,4.34,4.34,0,0,1,1.9,1.5,3.92,3.92,0,0,1,.68,2.29,5.13,5.13,0,0,1-.5,2.23,8.7,8.7,0,0,1-2,2.38l-3.36,3.18Z"/><path class="cls-1" d="M334.51,91a1.93,1.93,0,0,1,.57,1.45,3.38,3.38,0,0,1-.11.83,9.13,9.13,0,0,1-.46,1.26l-1.19,3h-2.07l.92-3.33a1.64,1.64,0,0,1-.82-.67,1.94,1.94,0,0,1-.31-1.1,1.9,1.9,0,0,1,.58-1.45,2,2,0,0,1,1.45-.56A2,2,0,0,1,334.51,91Z"/><path class="cls-1" d="M346.59,87.13a4,4,0,0,1,1,2.77,4.34,4.34,0,0,1-.67,2.35,4.56,4.56,0,0,1-2,1.72,7.82,7.82,0,0,1-3.35.65,11.6,11.6,0,0,1-3-.41A7.93,7.93,0,0,1,336,93.05l1.32-2.59a6.36,6.36,0,0,0,1.93,1,7.45,7.45,0,0,0,2.25.35,3.58,3.58,0,0,0,2-.49,1.57,1.57,0,0,0,.73-1.39q0-1.8-2.73-1.8h-1.55V85.87l3-3.41h-6.22V79.75h10.23v2.19l-3.3,3.76A4.94,4.94,0,0,1,346.59,87.13Z"/><path class="cls-1" d="M352.21,93.72a6.08,6.08,0,0,1-2.23-2.6A10.73,10.73,0,0,1,350,83a6.08,6.08,0,0,1,2.23-2.6,6.26,6.26,0,0,1,6.47,0,6.08,6.08,0,0,1,2.23,2.6,10.73,10.73,0,0,1,0,8.13,6.08,6.08,0,0,1-2.23,2.6,6.26,6.26,0,0,1-6.47,0Zm5.33-3.11a6.52,6.52,0,0,0,.77-3.55,6.56,6.56,0,0,0-.77-3.56,2.48,2.48,0,0,0-4.17,0,6.56,6.56,0,0,0-.77,3.56,6.52,6.52,0,0,0,.77,3.55,2.47,2.47,0,0,0,4.17,0Z"/><path class="cls-1" d="M366.39,93.72a6,6,0,0,1-2.22-2.6,10.61,10.61,0,0,1,0-8.13,6.09,6.09,0,0,1,8.7-2.6,6.06,6.06,0,0,1,2.22,2.6,10.61,10.61,0,0,1,0,8.13,6.06,6.06,0,0,1-2.22,2.6,6.28,6.28,0,0,1-6.48,0Zm5.34-3.11a6.53,6.53,0,0,0,.76-3.55,6.57,6.57,0,0,0-.76-3.56,2.49,2.49,0,0,0-4.18,0,6.57,6.57,0,0,0-.76,3.56,6.53,6.53,0,0,0,.76,3.55,2.47,2.47,0,0,0,4.18,0Z"/><path class="cls-1" d="M387.34,93.65A7.17,7.17,0,0,1,384.5,91a7.81,7.81,0,0,1,0-7.79,7.17,7.17,0,0,1,2.84-2.7,8.52,8.52,0,0,1,4.06-1,8.65,8.65,0,0,1,3.44.67,7,7,0,0,1,2.58,1.92l-2.17,2a4.69,4.69,0,0,0-3.68-1.71,5,5,0,0,0-2.43.59,4.27,4.27,0,0,0-1.66,1.66,5.28,5.28,0,0,0,0,4.85,4.27,4.27,0,0,0,1.66,1.66,4.86,4.86,0,0,0,2.43.6A4.65,4.65,0,0,0,395.25,90l2.17,2A6.84,6.84,0,0,1,394.83,94a9,9,0,0,1-7.49-.3Z"/><path class="cls-1" d="M402.36,93.64a7.35,7.35,0,0,1-2.87-2.71,7.8,7.8,0,0,1,0-7.75,7.35,7.35,0,0,1,2.87-2.71,9.07,9.07,0,0,1,8.2,0,7.32,7.32,0,0,1,3.9,6.59,7.38,7.38,0,0,1-1,3.87,7.46,7.46,0,0,1-2.86,2.71,9.07,9.07,0,0,1-8.2,0Zm6.44-2.5a4.29,4.29,0,0,0,1.64-1.66,5.2,5.2,0,0,0,0-4.85A4.29,4.29,0,0,0,408.8,83a4.94,4.94,0,0,0-4.68,0,4.29,4.29,0,0,0-1.64,1.66,5.28,5.28,0,0,0,0,4.85,4.29,4.29,0,0,0,1.64,1.66,4.86,4.86,0,0,0,4.68,0Z"/><path class="cls-1" d="M430.32,94.37l0-8.78L426,92.82h-1.52l-4.28-7v8.59H417V79.75h2.8l5.48,9.08,5.39-9.08h2.77l0,14.62Z"/><path class="cls-1" d="M446.67,80.39a5.23,5.23,0,0,1,2.2,7.47,4.88,4.88,0,0,1-2.2,1.84,8.3,8.3,0,0,1-3.37.64h-2.95v4H437V79.75h6.33A8.14,8.14,0,0,1,446.67,80.39Zm-1.24,6.53a2.29,2.29,0,0,0,.79-1.87,2.31,2.31,0,0,0-.79-1.89,3.56,3.56,0,0,0-2.32-.66h-2.76v5.08h2.76A3.56,3.56,0,0,0,445.43,86.92Z"/><path class="cls-1" d="M461,91.23h-6.79l-1.3,3.14H449.4l6.51-14.62h3.35l6.54,14.62h-3.56Zm-1.06-2.56-2.33-5.6-2.31,5.6Z"/><path class="cls-1" d="M480.73,79.75V94.37H478l-7.29-8.88v8.88h-3.34V79.75h2.8l7.27,8.87V79.75Z"/><path class="cls-1" d="M484.2,79.75h3.39V94.37H484.2Z"/><path class="cls-1" d="M502.38,91.65v2.72H491.05V79.75h11.06v2.71h-7.69v3.18h6.79v2.63h-6.79v3.38Z"/><path class="cls-1" d="M506.52,94.15a7.86,7.86,0,0,1-2.6-1.22l1.15-2.55a7.82,7.82,0,0,0,2.24,1.11,8.59,8.59,0,0,0,2.59.41,4.09,4.09,0,0,0,2.13-.43,1.28,1.28,0,0,0,.69-1.13,1.1,1.1,0,0,0-.41-.87,3.1,3.1,0,0,0-1-.55c-.43-.14-1-.3-1.73-.46a23.17,23.17,0,0,1-2.73-.8A4.33,4.33,0,0,1,505,86.39a3.45,3.45,0,0,1-.77-2.34,4.07,4.07,0,0,1,.69-2.31A4.65,4.65,0,0,1,507,80.1a8.58,8.58,0,0,1,3.4-.61,11,11,0,0,1,2.74.34,7.81,7.81,0,0,1,2.33,1l-1,2.57a8.1,8.1,0,0,0-4-1.15,3.76,3.76,0,0,0-2.1.46,1.41,1.41,0,0,0-.68,1.21,1.19,1.19,0,0,0,.78,1.12,12.79,12.79,0,0,0,2.39.72,23.63,23.63,0,0,1,2.74.79,4.53,4.53,0,0,1,1.83,1.26,3.34,3.34,0,0,1,.76,2.32,4,4,0,0,1-.7,2.28,4.65,4.65,0,0,1-2.1,1.64,8.44,8.44,0,0,1-3.4.61A12.12,12.12,0,0,1,506.52,94.15Z"/><path class="cls-3" d="M86.39,155.58a2,2,0,0,1,2.09-1.11c1.15.06,2.31,0,3.58,0V109.33c0-1.8.42-2.22,2.23-2.22h9.49c1.46,0,2,.54,2,2v4.31h12.09V89.88c0-1.52.51-2,2-2h3.68V83.93c0-1.41.55-2,2-2h26.23c1.42,0,2,.53,2,2s0,2.56,0,3.93h3.38c1.43,0,2,.53,2,2q0,12.85,0,25.7c0,.18,0,.36,0,.54a1.54,1.54,0,0,1-3.05.14,4.69,4.69,0,0,1,0-.84V91H121v63.45h10.76v-.79q0-5.79,0-11.58c0-1.44.51-1.95,1.95-1.95H143c1.44,0,1.93.5,1.93,2v12.36H156V130.13a3.82,3.82,0,0,1,.12-1.07,1.44,1.44,0,0,1,1.63-1,1.49,1.49,0,0,1,1.32,1.31,8,8,0,0,1,0,.85v24.26c.66,0,1.26,0,1.87,0,1,0,1.95,0,2.93,0a1.51,1.51,0,0,1,1.52,1.52,1.56,1.56,0,0,1-1.44,1.54c-.23,0-.47,0-.7,0q-37.38,0-74.77,0a2.17,2.17,0,0,1-2.11-1.09Zm8.83-39v37.83h6.22v-.87c0-2,0-4,0-5.94,0-1.12.57-1.75,1.61-1.76q3.34,0,6.71,0a1.54,1.54,0,0,1,1.6,1.69c0,1.55,0,3.09,0,4.63v2.23h6.43V116.62Zm39.66,37.81h6.89V143.27h-6.89Zm15.75-66.62v-2.7H126.72v2.7ZM95.19,110.22v3.21h7.45v-3.21ZM108.25,149h-3.67v5.42h3.67Z"/><path class="cls-3" d="M150.3,128.26c0,1,0,2.05,0,3.08s-.55,1.73-1.68,1.74h-6.24a1.5,1.5,0,0,1-1.68-1.66c0-2.11,0-4.21,0-6.32a1.5,1.5,0,0,1,1.64-1.63c2.11,0,4.21,0,6.32,0a1.51,1.51,0,0,1,1.64,1.63C150.32,126.15,150.3,127.21,150.3,128.26Zm-3.12-1.65h-3.34V130h3.34Z"/><path class="cls-3" d="M135.84,128.33c0,1,0,2,0,3.08a1.51,1.51,0,0,1-1.68,1.67h-6.24a1.54,1.54,0,0,1-1.7-1.73c0-2.06,0-4.11,0-6.17a1.56,1.56,0,0,1,1.73-1.71q3.08,0,6.16,0a1.55,1.55,0,0,1,1.73,1.7v3.16Zm-6.49-1.75v3.35h3.34v-3.35Z"/><path class="cls-3" d="M131,96.47c1,0,2.06,0,3.08,0s1.75.55,1.76,1.68c0,2.1,0,4.21,0,6.31a1.49,1.49,0,0,1-1.64,1.63c-2.1,0-4.21,0-6.31,0a1.52,1.52,0,0,1-1.66-1.7c0-2.08,0-4.16,0-6.24a1.56,1.56,0,0,1,1.69-1.68C128.94,96.46,130,96.47,131,96.47Zm1.72,3.15h-3.35V103h3.35Z"/><path class="cls-3" d="M150.3,101.3c0,1,0,2.11,0,3.16a1.47,1.47,0,0,1-1.56,1.62q-3.24,0-6.47,0a1.46,1.46,0,0,1-1.57-1.62q0-3.19,0-6.39a1.48,1.48,0,0,1,1.59-1.59q3.19,0,6.39,0a1.52,1.52,0,0,1,1.61,1.66C150.32,99.2,150.3,100.25,150.3,101.3Zm-6.47-1.71V103h3.33V99.59Z"/><path class="cls-3" d="M131,110c1,0,2.06,0,3.08,0a1.53,1.53,0,0,1,1.72,1.72q0,3.08,0,6.16a1.56,1.56,0,0,1-1.78,1.74q-3,0-6.08,0a1.58,1.58,0,0,1-1.76-1.77q0-3,0-6.08A1.55,1.55,0,0,1,128,110C129,110,130,110,131,110Zm1.67,3.15h-3.35v3.34h3.35Z"/><path class="cls-3" d="M140.7,114.75c0-1,0-2.1,0-3.16a1.47,1.47,0,0,1,1.58-1.6c2.16,0,4.31,0,6.47,0a1.47,1.47,0,0,1,1.55,1.63c0,2.11,0,4.21,0,6.32a1.54,1.54,0,0,1-1.7,1.66c-2.08,0-4.15,0-6.23,0a1.54,1.54,0,0,1-1.67-1.69C140.69,116.86,140.7,115.8,140.7,114.75Zm6.49-1.63h-3.36v3.33h3.36Z"/><path class="cls-3" d="M157.52,124.44a1.55,1.55,0,0,1-1.51-1.53,1.53,1.53,0,0,1,1.63-1.48,1.51,1.51,0,0,1-.12,3Z"/><path class="cls-3" d="M98.54,131.35v-9a5.9,5.9,0,0,1,0-.84,1.51,1.51,0,0,1,3-.24,4.11,4.11,0,0,1,.1,1q0,9.11,0,18.19v.08c0,1.32-.56,2.06-1.54,2.06s-1.54-.73-1.54-2Z"/><path class="cls-3" d="M104.86,131.35v-9.09a6,6,0,0,1,0-.85,1.51,1.51,0,0,1,2.94-.16,3.66,3.66,0,0,1,.1,1q0,9.09,0,18.19c0,1.39-.53,2.14-1.54,2.14s-1.54-.73-1.54-2.13Z"/><path class="cls-3" d="M111.17,131.34c0-3,0-6,0-9a5.62,5.62,0,0,1,0-.92,1.52,1.52,0,0,1,3-.08,3.91,3.91,0,0,1,.07.76v18.5a4,4,0,0,1-.05.69,1.54,1.54,0,0,1-1.5,1.3,1.52,1.52,0,0,1-1.5-1.37,10.22,10.22,0,0,1,0-1.24Q111.17,135.67,111.17,131.34Z"/></svg>