<svg id="Layer_1" data-name="Layer 1" xmlns="http://www.w3.org/2000/svg" viewBox="0 0 654 250"><defs><style>.cls-1{fill:none;stroke:#f89c26;stroke-miterlimit:10;stroke-width:2.6px;}.cls-2{fill:#f89c26;}.cls-3{opacity:0.15;}.cls-4{fill:#fff;}</style></defs><polygon class="cls-1" points="11.96 125 126.01 239.05 528.57 239.05 642.62 125 528.57 10.95 126.01 10.95 11.96 125"/><path class="cls-2" d="M302.34,102.66v4.53h-3v-4.57l-4.95-8.22h3.14l3.42,5.68,3.42-5.68h2.9Z"/><path class="cls-2" d="M310.61,106.55a6.32,6.32,0,0,1-2.5-2.36,6.77,6.77,0,0,1,0-6.78,6.28,6.28,0,0,1,2.5-2.37,7.92,7.92,0,0,1,7.18,0,6.52,6.52,0,0,1,0,11.51,7.92,7.92,0,0,1-7.18,0Zm5.64-2.18a3.78,3.78,0,0,0,1.44-1.45,4.58,4.58,0,0,0,0-4.24,3.74,3.74,0,0,0-1.44-1.46,4.28,4.28,0,0,0-4.09,0,3.74,3.74,0,0,0-1.44,1.46,4.58,4.58,0,0,0,0,4.24,3.78,3.78,0,0,0,1.44,1.45,4.28,4.28,0,0,0,4.09,0Z"/><path class="cls-2" d="M324.85,105.9a5.86,5.86,0,0,1-1.52-4.34V94.4h3v7c0,2.3.95,3.44,2.85,3.44a2.7,2.7,0,0,0,2.12-.83,3.87,3.87,0,0,0,.73-2.61v-7h2.92v7.16a6.06,6.06,0,0,1-10.06,4.34Z"/><path class="cls-2" d="M349.58,94.4v12.79h-2.43l-6.38-7.76v7.76h-2.93V94.4h2.45l6.36,7.77V94.4Z"/><path class="cls-2" d="M361.26,100.59H364v5.2a7.78,7.78,0,0,1-2.41,1.2,9.34,9.34,0,0,1-2.76.42,7.43,7.43,0,0,1-3.58-.85,6.36,6.36,0,0,1-2.5-2.35,6.91,6.91,0,0,1,0-6.82A6.3,6.3,0,0,1,355.23,95a7.57,7.57,0,0,1,3.61-.85,7.91,7.91,0,0,1,3.06.57,6,6,0,0,1,2.3,1.64l-1.9,1.76A4.38,4.38,0,0,0,359,96.7a4.49,4.49,0,0,0-2.17.51,3.63,3.63,0,0,0-1.48,1.45,4.47,4.47,0,0,0,0,4.26,3.73,3.73,0,0,0,1.47,1.45,4.29,4.29,0,0,0,2.14.52,4.75,4.75,0,0,0,2.31-.55Z"/><path class="cls-2" d="M381.79,104.82v2.37h-9.91V94.4h9.67v2.37h-6.73v2.78h5.94v2.31h-5.94v3Z"/><path class="cls-2" d="M395.88,94.4v12.79h-2.43l-6.38-7.76v7.76h-2.92V94.4h2.44l6.37,7.77V94.4Z"/><path class="cls-2" d="M401.57,96.81h-4.1V94.4h11.15v2.41h-4.09v10.38h-3Z"/><path class="cls-2" d="M418.37,107.19l-2.47-3.56h-2.73v3.56h-3V94.4h5.54a7.06,7.06,0,0,1,2.95.57,4.32,4.32,0,0,1,1.93,1.6,4.46,4.46,0,0,1,.68,2.47,4.33,4.33,0,0,1-.69,2.46,4.25,4.25,0,0,1-1.94,1.58l2.87,4.11Zm-.75-9.8a3.09,3.09,0,0,0-2-.58h-2.42v4.46h2.42a3.09,3.09,0,0,0,2-.58,2,2,0,0,0,.69-1.65A2,2,0,0,0,417.62,97.39Z"/><path class="cls-2" d="M433.56,104.82v2.37h-9.91V94.4h9.67v2.37h-6.73v2.78h6v2.31h-6v3Z"/><path class="cls-2" d="M444.41,95a4.37,4.37,0,0,1,1.93,1.6,4.87,4.87,0,0,1,0,4.93,4.33,4.33,0,0,1-1.93,1.61,7.25,7.25,0,0,1-3,.56h-2.58v3.52h-3V94.4h5.54A7.09,7.09,0,0,1,444.41,95Zm-1.09,5.71a2.31,2.31,0,0,0,0-3.29,3.07,3.07,0,0,0-2-.58h-2.41v4.44h2.41A3.13,3.13,0,0,0,443.32,100.68Z"/><path class="cls-2" d="M457.27,107.19l-2.47-3.56h-2.72v3.56h-3V94.4h5.53a7.11,7.11,0,0,1,3,.57,4.43,4.43,0,0,1,1.93,1.6,4.54,4.54,0,0,1,.67,2.47,4.4,4.4,0,0,1-.68,2.46,4.33,4.33,0,0,1-1.95,1.58l2.87,4.11Zm-.75-9.8a3.09,3.09,0,0,0-2-.58h-2.41v4.46h2.41a3.09,3.09,0,0,0,2-.58,2,2,0,0,0,.69-1.65A2,2,0,0,0,456.52,97.39Z"/><path class="cls-2" d="M472.46,104.82v2.37h-9.91V94.4h9.67v2.37h-6.73v2.78h5.95v2.31h-5.95v3Z"/><path class="cls-2" d="M486.55,94.4v12.79h-2.43l-6.38-7.76v7.76h-2.92V94.4h2.45l6.36,7.77V94.4Z"/><path class="cls-2" d="M491,105.9a5.9,5.9,0,0,1-1.52-4.34V94.4h3v7c0,2.3.95,3.44,2.85,3.44a2.67,2.67,0,0,0,2.12-.83,3.87,3.87,0,0,0,.73-2.61v-7h2.93v7.16a5.86,5.86,0,0,1-1.53,4.34,6.79,6.79,0,0,1-8.54,0Z"/><path class="cls-2" d="M513.9,104.82v2.37H504V94.4h9.67v2.37h-6.72v2.78h5.94v2.31h-5.94v3Z"/><path class="cls-2" d="M524.41,107.19l-2.47-3.56h-2.72v3.56h-3V94.4h5.54a7.06,7.06,0,0,1,3,.57,4.32,4.32,0,0,1,1.93,1.6,4.46,4.46,0,0,1,.68,2.47,4.17,4.17,0,0,1-2.64,4l2.87,4.11Zm-.75-9.8a3.07,3.07,0,0,0-2-.58h-2.41v4.46h2.41a3.07,3.07,0,0,0,2-.58,2,2,0,0,0,.7-1.65A2,2,0,0,0,523.66,97.39Z"/><path class="cls-2" d="M531,107a6.76,6.76,0,0,1-2.27-1.07l1-2.23a6.65,6.65,0,0,0,2,1,7.49,7.49,0,0,0,2.27.37,3.59,3.59,0,0,0,1.86-.38,1.11,1.11,0,0,0,.6-1,.93.93,0,0,0-.35-.76,2.85,2.85,0,0,0-.92-.49c-.37-.12-.87-.25-1.5-.4a20.69,20.69,0,0,1-2.4-.69,4,4,0,0,1-1.6-1.12,3,3,0,0,1-.67-2,3.61,3.61,0,0,1,.61-2,4,4,0,0,1,1.82-1.43,7.48,7.48,0,0,1,3-.53,10.09,10.09,0,0,1,2.39.29,7.46,7.46,0,0,1,2,.84l-.91,2.25a7.19,7.19,0,0,0-3.55-1,3.32,3.32,0,0,0-1.84.41,1.24,1.24,0,0,0-.59,1.06,1,1,0,0,0,.68,1,11.36,11.36,0,0,0,2.1.63,21,21,0,0,1,2.39.69,3.93,3.93,0,0,1,1.6,1.1,2.91,2.91,0,0,1,.67,2,3.54,3.54,0,0,1-.61,2,4.16,4.16,0,0,1-1.84,1.43,7.39,7.39,0,0,1-3,.53A10.34,10.34,0,0,1,531,107Z"/><path class="cls-2" d="M391.11,42.38V77.12h-8V48.83h-6.94V42.38Z"/><path class="cls-2" d="M424.88,62.23A8.57,8.57,0,0,1,426.24,67a9.06,9.06,0,0,1-1.83,5.64,11.85,11.85,0,0,1-5.16,3.72,23.17,23.17,0,0,1-15.36,0,11.63,11.63,0,0,1-5.11-3.72A9.1,9.1,0,0,1,397,67a8.57,8.57,0,0,1,1.36-4.81,9.88,9.88,0,0,1,3.9-3.37,8.58,8.58,0,0,1-3-3,8.16,8.16,0,0,1-1-4.14,8.47,8.47,0,0,1,1.69-5.26A10.7,10.7,0,0,1,404.61,43a18.54,18.54,0,0,1,6.95-1.21,18.92,18.92,0,0,1,7,1.21,10.8,10.8,0,0,1,4.74,3.45A8.52,8.52,0,0,1,425,51.71a8.06,8.06,0,0,1-1,4.14,8.33,8.33,0,0,1-3,3A9.83,9.83,0,0,1,424.88,62.23Zm-8.53,8.21a4.63,4.63,0,0,0,0-7.27,7.78,7.78,0,0,0-4.79-1.33,7.56,7.56,0,0,0-4.72,1.33,4.72,4.72,0,0,0,0,7.3,7.56,7.56,0,0,0,4.72,1.34A7.66,7.66,0,0,0,416.35,70.44Zm-8.69-21.58a3.88,3.88,0,0,0-1.46,3.2,3.76,3.76,0,0,0,1.44,3.12,6.08,6.08,0,0,0,3.92,1.15,6.33,6.33,0,0,0,4-1.15A3.72,3.72,0,0,0,417,52.06a3.84,3.84,0,0,0-1.48-3.2,6.27,6.27,0,0,0-4-1.17A6.06,6.06,0,0,0,407.66,48.86Z"/><path class="cls-2" d="M457.11,42.38v5.21L444.2,77.12h-8.73l12.45-28.19H436.41v5.66h-7.14V42.38Z"/><path d="M299.3,136.05a4.38,4.38,0,0,0-.75-.06,2,2,0,0,0-2.05,1.29v6.36H295v-9h1.49l0,1a2.4,2.4,0,0,1,2.14-1.2,1.68,1.68,0,0,1,.68.11Z"/><path d="M304.28,143.81a3.91,3.91,0,0,1-3-1.2,4.47,4.47,0,0,1-1.15-3.2v-.29a5.51,5.51,0,0,1,.51-2.38,4,4,0,0,1,1.43-1.64,3.62,3.62,0,0,1,2-.59,3.37,3.37,0,0,1,2.72,1.15,5,5,0,0,1,1,3.3v.64H301.7a3.19,3.19,0,0,0,.77,2.14,2.47,2.47,0,0,0,1.89.81,2.55,2.55,0,0,0,1.37-.33,3.41,3.41,0,0,0,1-.87l.94.73A3.77,3.77,0,0,1,304.28,143.81Zm-.19-8a2,2,0,0,0-1.56.67,3.31,3.31,0,0,0-.78,1.9h4.49v-.12a2.87,2.87,0,0,0-.63-1.81A1.91,1.91,0,0,0,304.09,135.77Z"/><path d="M313.15,142.55a2.22,2.22,0,0,0,1.43-.49,1.77,1.77,0,0,0,.68-1.24h1.45a2.83,2.83,0,0,1-.53,1.46,3.39,3.39,0,0,1-1.31,1.11,4,4,0,0,1-4.64-.8,4.91,4.91,0,0,1-1.08-3.35V139a5.42,5.42,0,0,1,.48-2.33,3.73,3.73,0,0,1,1.38-1.58,3.89,3.89,0,0,1,2.13-.56,3.59,3.59,0,0,1,2.5.9,3.25,3.25,0,0,1,1.07,2.35h-1.45a2.16,2.16,0,0,0-.66-1.43,2,2,0,0,0-1.46-.56,2.17,2.17,0,0,0-1.82.84,4,4,0,0,0-.64,2.43v.29a3.93,3.93,0,0,0,.64,2.39A2.15,2.15,0,0,0,313.15,142.55Z"/><path d="M322.15,143.81a3.9,3.9,0,0,1-3-1.2,4.42,4.42,0,0,1-1.15-3.2v-.29a5.37,5.37,0,0,1,.51-2.38A4,4,0,0,1,320,135.1a3.61,3.61,0,0,1,2-.59,3.34,3.34,0,0,1,2.72,1.15,5,5,0,0,1,1,3.3v.64h-6.07a3.19,3.19,0,0,0,.77,2.14,2.44,2.44,0,0,0,1.89.81,2.55,2.55,0,0,0,1.37-.33,3.41,3.41,0,0,0,1-.87l.93.73A3.75,3.75,0,0,1,322.15,143.81Zm-.19-8a2,2,0,0,0-1.56.67,3.38,3.38,0,0,0-.77,1.9h4.49v-.12a3,3,0,0,0-.63-1.81A1.94,1.94,0,0,0,322,135.77Z"/><path d="M327.43,132.29a.91.91,0,0,1,.23-.62.83.83,0,0,1,.68-.26.85.85,0,0,1,.68.26.91.91,0,0,1,.23.62.83.83,0,0,1-.91.87.86.86,0,0,1-.68-.25A.88.88,0,0,1,327.43,132.29Zm1.66,11.35h-1.53v-9h1.53Z"/><path d="M334.5,141.56l2.22-6.89h1.57l-3.21,9H333.9l-3.24-9h1.56Z"/><path d="M343.38,143.81a3.94,3.94,0,0,1-3-1.2,4.46,4.46,0,0,1-1.14-3.2v-.29a5.37,5.37,0,0,1,.51-2.38,4,4,0,0,1,1.42-1.64,3.67,3.67,0,0,1,2-.59,3.35,3.35,0,0,1,2.72,1.15,5,5,0,0,1,1,3.3v.64H340.8a3.15,3.15,0,0,0,.78,2.14,2.43,2.43,0,0,0,1.88.81,2.61,2.61,0,0,0,1.38-.33,3.55,3.55,0,0,0,1-.87l.93.73A3.77,3.77,0,0,1,343.38,143.81Zm-.19-8a2,2,0,0,0-1.56.67,3.31,3.31,0,0,0-.78,1.9h4.49v-.12a2.93,2.93,0,0,0-.62-1.81A1.94,1.94,0,0,0,343.19,135.77Z"/><path d="M348.28,139.08a5.22,5.22,0,0,1,1-3.32,3.33,3.33,0,0,1,5.05-.18v-4.67h1.54v12.73h-1.41l-.08-1a3.13,3.13,0,0,1-2.56,1.13,3.07,3.07,0,0,1-2.54-1.28,5.27,5.27,0,0,1-1-3.33Zm1.53.18a4,4,0,0,0,.63,2.38,2,2,0,0,0,1.74.87,2.25,2.25,0,0,0,2.13-1.31v-4.12a2.24,2.24,0,0,0-2.11-1.27,2.05,2.05,0,0,0-1.76.87A4.38,4.38,0,0,0,349.81,139.26Z"/><path d="M363.18,143.64v-7.78h-1.42v-1.19h1.42v-.92a3.08,3.08,0,0,1,.77-2.23,2.94,2.94,0,0,1,2.18-.78,3.69,3.69,0,0,1,1.05.14l-.08,1.23a4.35,4.35,0,0,0-.83-.07,1.5,1.5,0,0,0-1.15.43,1.78,1.78,0,0,0-.4,1.26v.94h1.91v1.19h-1.91v7.78Z"/><path d="M373.86,142.75a3.24,3.24,0,0,1-2.63,1.06,2.76,2.76,0,0,1-2.18-.84,3.55,3.55,0,0,1-.76-2.46v-5.84h1.53v5.8c0,1.36.55,2,1.66,2a2.31,2.31,0,0,0,2.34-1.31v-6.53h1.53v9h-1.46Z"/><path d="M379.34,143.64h-1.53V130.91h1.53Z"/><path d="M383.46,143.64h-1.53V130.91h1.53Z"/><path d="M392.2,132.5v2.17h1.67v1.19H392.2v5.57a1.24,1.24,0,0,0,.22.81,1,1,0,0,0,.77.27,4.38,4.38,0,0,0,.73-.1v1.23a4.55,4.55,0,0,1-1.18.17,1.89,1.89,0,0,1-1.55-.63,2.64,2.64,0,0,1-.52-1.76v-5.56H389v-1.19h1.64V132.5Z"/><path d="M400,136.05a4.51,4.51,0,0,0-.76-.06,2,2,0,0,0-2,1.29v6.36h-1.54v-9h1.5l0,1a2.38,2.38,0,0,1,2.14-1.2,1.71,1.71,0,0,1,.68.11Z"/><path d="M406.61,143.64a3,3,0,0,1-.21-.94,3.43,3.43,0,0,1-2.56,1.11,3.16,3.16,0,0,1-2.17-.75,2.43,2.43,0,0,1-.85-1.91,2.5,2.5,0,0,1,1.07-2.17,5,5,0,0,1,3-.78h1.49v-.7a1.72,1.72,0,0,0-.48-1.28,1.91,1.91,0,0,0-1.41-.48,2.22,2.22,0,0,0-1.38.42,1.22,1.22,0,0,0-.56,1H401a2.12,2.12,0,0,1,.48-1.3,3.33,3.33,0,0,1,1.29-1,4.45,4.45,0,0,1,1.8-.36,3.59,3.59,0,0,1,2.43.77,2.85,2.85,0,0,1,.91,2.14v4.12a5.08,5.08,0,0,0,.31,2v.13Zm-2.54-1.17a2.69,2.69,0,0,0,1.37-.37,2.22,2.22,0,0,0,.93-1v-1.84h-1.2c-1.88,0-2.81.55-2.81,1.65a1.41,1.41,0,0,0,.47,1.13A1.88,1.88,0,0,0,404.07,142.47Z"/><path d="M410.32,132.29a.87.87,0,0,1,.23-.62.81.81,0,0,1,.67-.26.83.83,0,0,1,.68.26.87.87,0,0,1,.23.62.84.84,0,0,1-.23.62.86.86,0,0,1-.68.25.83.83,0,0,1-.9-.87ZM412,143.64h-1.53v-9H412Z"/><path d="M415.88,134.67l.05,1.13a3.26,3.26,0,0,1,2.68-1.29c1.9,0,2.85,1.07,2.87,3.2v5.93H420v-5.93a2.15,2.15,0,0,0-.44-1.44,1.79,1.79,0,0,0-1.36-.46,2.19,2.19,0,0,0-1.31.4,2.63,2.63,0,0,0-.88,1v6.39h-1.53v-9Z"/><path d="M423.8,132.29a.91.91,0,0,1,.23-.62.83.83,0,0,1,.68-.26.85.85,0,0,1,.68.26.91.91,0,0,1,.23.62.83.83,0,0,1-.91.87.86.86,0,0,1-.68-.25A.88.88,0,0,1,423.8,132.29Zm1.66,11.35h-1.53v-9h1.53Z"/><path d="M429.37,134.67l0,1.13a3.29,3.29,0,0,1,2.69-1.29q2.83,0,2.87,3.2v5.93h-1.53v-5.93a2.1,2.1,0,0,0-.45-1.44,1.77,1.77,0,0,0-1.35-.46,2.17,2.17,0,0,0-1.31.4,2.63,2.63,0,0,0-.88,1v6.39h-1.54v-9Z"/><path d="M436.92,139.08a5.22,5.22,0,0,1,1-3.33,3.34,3.34,0,0,1,5.13-.08l.07-1h1.4v8.76a3.65,3.65,0,0,1-1,2.74,3.8,3.8,0,0,1-2.77,1,4.71,4.71,0,0,1-1.9-.41,3.33,3.33,0,0,1-1.42-1.14l.8-.92a3,3,0,0,0,2.41,1.22,2.36,2.36,0,0,0,1.75-.63,2.43,2.43,0,0,0,.62-1.77v-.77a3.17,3.17,0,0,1-2.51,1.06,3.08,3.08,0,0,1-2.55-1.27A5.55,5.55,0,0,1,436.92,139.08Zm1.54.18a4.05,4.05,0,0,0,.62,2.38,2,2,0,0,0,1.74.87,2.24,2.24,0,0,0,2.13-1.32v-4.1a2.27,2.27,0,0,0-2.11-1.28,2,2,0,0,0-1.75.87A4.38,4.38,0,0,0,438.46,139.26Z"/><path d="M450.6,139.07a5.28,5.28,0,0,1,.52-2.37,3.86,3.86,0,0,1,1.44-1.62,4,4,0,0,1,2.11-.57,3.76,3.76,0,0,1,3,1.27,4.84,4.84,0,0,1,1.14,3.37v.11a5.3,5.3,0,0,1-.51,2.35,3.82,3.82,0,0,1-1.43,1.62,4,4,0,0,1-2.14.58,3.8,3.8,0,0,1-3-1.27,4.88,4.88,0,0,1-1.13-3.36Zm1.54.19a3.77,3.77,0,0,0,.7,2.39,2.2,2.2,0,0,0,1.85.9,2.17,2.17,0,0,0,1.85-.91,4.2,4.2,0,0,0,.69-2.57,3.81,3.81,0,0,0-.7-2.39,2.23,2.23,0,0,0-1.86-.91,2.19,2.19,0,0,0-1.83.9A4.14,4.14,0,0,0,452.14,139.26Z"/><path d="M462.14,134.67l.05,1.13a3.26,3.26,0,0,1,2.68-1.29c1.9,0,2.85,1.07,2.87,3.2v5.93h-1.53v-5.93a2.15,2.15,0,0,0-.44-1.44,1.79,1.79,0,0,0-1.36-.46,2.19,2.19,0,0,0-1.31.4,2.63,2.63,0,0,0-.88,1v6.39h-1.53v-9Z"/><path d="M481.85,139.26a5.32,5.32,0,0,1-1,3.3,3,3,0,0,1-2.53,1.25,3.13,3.13,0,0,1-2.63-1.2l-.07,1h-1.41V130.91h1.53v4.75a3.1,3.1,0,0,1,2.56-1.15,3,3,0,0,1,2.56,1.23,5.45,5.45,0,0,1,.94,3.38Zm-1.53-.18a4.18,4.18,0,0,0-.61-2.42,2,2,0,0,0-1.74-.85,2.25,2.25,0,0,0-2.18,1.41v3.88a2.31,2.31,0,0,0,2.2,1.41,2,2,0,0,0,1.71-.86A4.39,4.39,0,0,0,480.32,139.08Z"/><path d="M489.32,142.75a3.25,3.25,0,0,1-2.63,1.06,2.78,2.78,0,0,1-2.19-.84,3.55,3.55,0,0,1-.75-2.46v-5.84h1.53v5.8c0,1.36.55,2,1.66,2a2.28,2.28,0,0,0,2.33-1.31v-6.53h1.54v9h-1.46Z"/><path d="M498.36,141.26a1.13,1.13,0,0,0-.47-1,4.57,4.57,0,0,0-1.63-.6,7.61,7.61,0,0,1-1.85-.59,2.68,2.68,0,0,1-1-.83,2,2,0,0,1-.33-1.14,2.33,2.33,0,0,1,.93-1.87,3.64,3.64,0,0,1,2.39-.76,3.77,3.77,0,0,1,2.47.78,2.53,2.53,0,0,1,.95,2h-1.54a1.4,1.4,0,0,0-.54-1.09,2,2,0,0,0-1.34-.45,2.1,2.1,0,0,0-1.31.36,1.15,1.15,0,0,0-.48,1,.94.94,0,0,0,.44.84,5.24,5.24,0,0,0,1.59.54,8.8,8.8,0,0,1,1.86.61,2.76,2.76,0,0,1,1.06.86,2.11,2.11,0,0,1,.34,1.22,2.29,2.29,0,0,1-1,1.93,4.06,4.06,0,0,1-2.5.73,4.57,4.57,0,0,1-1.9-.38,3.07,3.07,0,0,1-1.3-1.07,2.6,2.6,0,0,1-.47-1.48h1.54a1.57,1.57,0,0,0,.61,1.22,2.88,2.88,0,0,0,2.92.1A1.08,1.08,0,0,0,498.36,141.26Z"/><path d="M501.9,132.29a.87.87,0,0,1,.23-.62.81.81,0,0,1,.67-.26.85.85,0,0,1,.68.26.87.87,0,0,1,.23.62.84.84,0,0,1-.23.62.88.88,0,0,1-.68.25.83.83,0,0,1-.9-.87Zm1.65,11.35H502v-9h1.53Z"/><path d="M507.46,134.67l.05,1.13a3.26,3.26,0,0,1,2.68-1.29c1.9,0,2.85,1.07,2.87,3.2v5.93h-1.53v-5.93a2.15,2.15,0,0,0-.44-1.44,1.81,1.81,0,0,0-1.36-.46,2.17,2.17,0,0,0-1.31.4,2.63,2.63,0,0,0-.88,1v6.39H506v-9Z"/><path d="M519.1,143.81a3.91,3.91,0,0,1-3-1.2,4.47,4.47,0,0,1-1.15-3.2v-.29a5.51,5.51,0,0,1,.51-2.38,4,4,0,0,1,1.43-1.64,3.62,3.62,0,0,1,2-.59,3.37,3.37,0,0,1,2.72,1.15,5,5,0,0,1,1,3.3v.64h-6.07a3.19,3.19,0,0,0,.77,2.14,2.47,2.47,0,0,0,1.89.81,2.55,2.55,0,0,0,1.37-.33,3.41,3.41,0,0,0,1-.87l.94.73A3.77,3.77,0,0,1,519.1,143.81Zm-.19-8a2,2,0,0,0-1.56.67,3.31,3.31,0,0,0-.78,1.9h4.49v-.12a2.87,2.87,0,0,0-.63-1.81A1.91,1.91,0,0,0,518.91,135.77Z"/><path d="M529.59,141.26a1.13,1.13,0,0,0-.47-1,4.57,4.57,0,0,0-1.63-.6,7.61,7.61,0,0,1-1.85-.59,2.68,2.68,0,0,1-1-.83,2,2,0,0,1-.33-1.14,2.33,2.33,0,0,1,.93-1.87,3.64,3.64,0,0,1,2.39-.76,3.77,3.77,0,0,1,2.47.78,2.53,2.53,0,0,1,.95,2H529.5a1.4,1.4,0,0,0-.54-1.09,2,2,0,0,0-1.34-.45,2.1,2.1,0,0,0-1.31.36,1.15,1.15,0,0,0-.48,1,.94.94,0,0,0,.44.84,5.46,5.46,0,0,0,1.59.54,8.43,8.43,0,0,1,1.86.61,2.76,2.76,0,0,1,1.06.86,2.11,2.11,0,0,1,.34,1.22,2.29,2.29,0,0,1-1,1.93,4.06,4.06,0,0,1-2.5.73,4.57,4.57,0,0,1-1.9-.38,3.2,3.2,0,0,1-1.3-1.07,2.6,2.6,0,0,1-.47-1.48h1.54a1.6,1.6,0,0,0,.61,1.22,2.88,2.88,0,0,0,2.92.1A1.08,1.08,0,0,0,529.59,141.26Z"/><path d="M538.34,141.26a1.13,1.13,0,0,0-.47-1,4.49,4.49,0,0,0-1.63-.6,7.61,7.61,0,0,1-1.85-.59,2.77,2.77,0,0,1-1-.83,2,2,0,0,1-.33-1.14,2.32,2.32,0,0,1,.94-1.87,3.61,3.61,0,0,1,2.38-.76,3.75,3.75,0,0,1,2.47.78,2.5,2.5,0,0,1,.95,2h-1.54a1.42,1.42,0,0,0-.53-1.09,2,2,0,0,0-1.35-.45,2.1,2.1,0,0,0-1.31.36,1.14,1.14,0,0,0-.47,1,.94.94,0,0,0,.43.84,5.46,5.46,0,0,0,1.59.54,8.43,8.43,0,0,1,1.86.61,2.76,2.76,0,0,1,1.06.86,2.11,2.11,0,0,1,.35,1.22,2.29,2.29,0,0,1-1,1.93,4,4,0,0,1-2.49.73,4.62,4.62,0,0,1-1.91-.38,3.2,3.2,0,0,1-1.3-1.07,2.59,2.59,0,0,1-.46-1.48h1.53a1.58,1.58,0,0,0,.62,1.22,2.86,2.86,0,0,0,2.91.1A1.06,1.06,0,0,0,538.34,141.26Z"/><path d="M354.72,164h-1.53V151.28h1.53Z"/><path d="M360.89,164.18a3.9,3.9,0,0,1-3-1.2,4.43,4.43,0,0,1-1.15-3.21v-.28a5.37,5.37,0,0,1,.51-2.38,4,4,0,0,1,1.43-1.64,3.53,3.53,0,0,1,2-.59,3.35,3.35,0,0,1,2.72,1.15,5,5,0,0,1,1,3.3V160h-6.07a3.16,3.16,0,0,0,.77,2.14,2.44,2.44,0,0,0,1.89.81,2.65,2.65,0,0,0,1.37-.33,3.55,3.55,0,0,0,1-.87l.93.72A3.75,3.75,0,0,1,360.89,164.18Zm-.19-8a2,2,0,0,0-1.56.67,3.28,3.28,0,0,0-.78,1.9h4.5v-.12a3,3,0,0,0-.63-1.81A1.94,1.94,0,0,0,360.7,156.14Z"/><path d="M365.8,159.45a5.27,5.27,0,0,1,1-3.34,3.11,3.11,0,0,1,2.57-1.23A3.07,3.07,0,0,1,371.9,156l.07-1h1.4v8.76a3.65,3.65,0,0,1-1,2.74,3.8,3.8,0,0,1-2.77,1,4.71,4.71,0,0,1-1.9-.41,3.24,3.24,0,0,1-1.41-1.14l.79-.92a3,3,0,0,0,2.41,1.22,2.36,2.36,0,0,0,1.75-.63,2.43,2.43,0,0,0,.62-1.77v-.77a3.17,3.17,0,0,1-2.51,1.06,3.08,3.08,0,0,1-2.55-1.27A5.55,5.55,0,0,1,365.8,159.45Zm1.54.18A4.05,4.05,0,0,0,368,162a2,2,0,0,0,1.74.87,2.26,2.26,0,0,0,2.13-1.32v-4.1a2.27,2.27,0,0,0-2.11-1.28,2,2,0,0,0-1.75.87A4.38,4.38,0,0,0,367.34,159.63Z"/><path d="M381.23,164a3.31,3.31,0,0,1-.22-.94,3.41,3.41,0,0,1-2.55,1.11,3.17,3.17,0,0,1-2.18-.75,2.43,2.43,0,0,1-.85-1.91,2.53,2.53,0,0,1,1.07-2.17,5,5,0,0,1,3-.78H381v-.7a1.69,1.69,0,0,0-.49-1.28,1.9,1.9,0,0,0-1.41-.48,2.22,2.22,0,0,0-1.38.42,1.21,1.21,0,0,0-.55,1h-1.54a2.1,2.1,0,0,1,.47-1.3,3.2,3.2,0,0,1,1.3-1,4.37,4.37,0,0,1,1.79-.36,3.59,3.59,0,0,1,2.43.77,2.82,2.82,0,0,1,.91,2.14v4.12a5.08,5.08,0,0,0,.31,2V164Zm-2.55-1.17a2.69,2.69,0,0,0,1.37-.37,2.3,2.3,0,0,0,.94-1v-1.84h-1.21c-1.87,0-2.81.55-2.81,1.65a1.38,1.38,0,0,0,.48,1.12A1.79,1.79,0,0,0,378.68,162.84Z"/><path d="M386.59,164h-1.54V151.28h1.54Z"/><path d="M396.84,162.92a2.2,2.2,0,0,0,1.43-.49,1.74,1.74,0,0,0,.68-1.25h1.45a2.67,2.67,0,0,1-.53,1.47,3.36,3.36,0,0,1-1.3,1.11,3.74,3.74,0,0,1-1.73.42,3.68,3.68,0,0,1-2.91-1.23,4.81,4.81,0,0,1-1.08-3.34v-.26a5.42,5.42,0,0,1,.48-2.33,3.67,3.67,0,0,1,1.38-1.58,3.88,3.88,0,0,1,2.12-.56,3.61,3.61,0,0,1,2.51.9,3.23,3.23,0,0,1,1.06,2.34H399a2.1,2.1,0,0,0-.65-1.42,2,2,0,0,0-1.47-.56A2.15,2.15,0,0,0,395,157a3.93,3.93,0,0,0-.64,2.43v.29a3.86,3.86,0,0,0,.64,2.39A2.13,2.13,0,0,0,396.84,162.92Z"/><path d="M405.85,164.18a3.94,3.94,0,0,1-3-1.2,4.47,4.47,0,0,1-1.14-3.21v-.28a5.37,5.37,0,0,1,.51-2.38,3.93,3.93,0,0,1,1.42-1.64,3.59,3.59,0,0,1,2-.59,3.35,3.35,0,0,1,2.72,1.15,5,5,0,0,1,1,3.3V160h-6.08a3.17,3.17,0,0,0,.78,2.14,2.43,2.43,0,0,0,1.88.81,2.71,2.71,0,0,0,1.38-.33,3.38,3.38,0,0,0,1-.87l.94.72A3.76,3.76,0,0,1,405.85,164.18Zm-.19-8a2,2,0,0,0-1.56.67,3.28,3.28,0,0,0-.78,1.9h4.49v-.12a2.93,2.93,0,0,0-.62-1.81A1.94,1.94,0,0,0,405.66,156.14Z"/><path d="M415.46,156.42a4.59,4.59,0,0,0-.76-.06,2,2,0,0,0-2.05,1.29V164h-1.53v-9h1.49l0,1a2.38,2.38,0,0,1,2.14-1.2,1.75,1.75,0,0,1,.68.11Z"/><path d="M419.36,152.87V155H421v1.19h-1.67v5.57a1.24,1.24,0,0,0,.22.81,1,1,0,0,0,.77.27,4.38,4.38,0,0,0,.73-.1V164a4.55,4.55,0,0,1-1.18.17,1.89,1.89,0,0,1-1.55-.63,2.64,2.64,0,0,1-.52-1.76v-5.56h-1.64V155h1.64v-2.17Z"/><path d="M422.83,152.66a.94.94,0,0,1,.23-.63.86.86,0,0,1,.68-.25.88.88,0,0,1,.68.25.94.94,0,0,1,.23.63.83.83,0,0,1-.91.87.86.86,0,0,1-.68-.25A.88.88,0,0,1,422.83,152.66ZM424.49,164H423v-9h1.53Z"/><path d="M427.7,164v-7.78h-1.42V155h1.42v-.92a3.08,3.08,0,0,1,.77-2.23,2.92,2.92,0,0,1,2.18-.78,3.79,3.79,0,0,1,1.05.14l-.08,1.23a4.43,4.43,0,0,0-.83-.07,1.49,1.49,0,0,0-1.15.43,1.78,1.78,0,0,0-.41,1.26V155h1.92v1.19h-1.92V164Z"/><path d="M432.85,152.66a.89.89,0,0,1,.23-.63.84.84,0,0,1,.67-.25.88.88,0,0,1,.68.25.89.89,0,0,1,.23.63.84.84,0,0,1-.23.62.88.88,0,0,1-.68.25.83.83,0,0,1-.9-.87ZM434.5,164H433v-9h1.53Z"/><path d="M440.56,162.92a2.22,2.22,0,0,0,1.43-.49,1.77,1.77,0,0,0,.68-1.25h1.45a2.75,2.75,0,0,1-.53,1.47,3.39,3.39,0,0,1-1.31,1.11,4,4,0,0,1-4.64-.81,4.86,4.86,0,0,1-1.08-3.34v-.26A5.42,5.42,0,0,1,437,157a3.67,3.67,0,0,1,1.38-1.58,3.89,3.89,0,0,1,2.13-.56,3.59,3.59,0,0,1,2.5.9,3.21,3.21,0,0,1,1.07,2.34h-1.45a2.11,2.11,0,0,0-.66-1.42,2,2,0,0,0-1.46-.56,2.13,2.13,0,0,0-1.81.84,3.93,3.93,0,0,0-.65,2.43v.29a3.93,3.93,0,0,0,.64,2.39A2.16,2.16,0,0,0,440.56,162.92Z"/><path d="M451.38,164a3.05,3.05,0,0,1-.21-.94,3.45,3.45,0,0,1-2.56,1.11,3.19,3.19,0,0,1-2.18-.75,2.45,2.45,0,0,1-.84-1.91,2.52,2.52,0,0,1,1.06-2.17,5,5,0,0,1,3-.78h1.49v-.7a1.72,1.72,0,0,0-.48-1.28,1.94,1.94,0,0,0-1.42-.48,2.19,2.19,0,0,0-1.37.42,1.22,1.22,0,0,0-.56,1h-1.54a2.12,2.12,0,0,1,.48-1.3,3.1,3.1,0,0,1,1.29-1,4.37,4.37,0,0,1,1.79-.36,3.58,3.58,0,0,1,2.43.77,2.78,2.78,0,0,1,.91,2.14v4.12a5.06,5.06,0,0,0,.32,2V164Zm-2.55-1.17a2.66,2.66,0,0,0,1.37-.37,2.19,2.19,0,0,0,.94-1v-1.84h-1.2q-2.82,0-2.82,1.65a1.38,1.38,0,0,0,.48,1.12A1.79,1.79,0,0,0,448.83,162.84Z"/><path d="M457.16,152.87V155h1.67v1.19h-1.67v5.57a1.24,1.24,0,0,0,.22.81.94.94,0,0,0,.76.27,4.25,4.25,0,0,0,.73-.1V164a4.43,4.43,0,0,1-1.18.17,1.91,1.91,0,0,1-1.55-.63,2.7,2.7,0,0,1-.52-1.76v-5.56H454V155h1.63v-2.17Z"/><path d="M460.63,152.66a.94.94,0,0,1,.23-.63.85.85,0,0,1,.67-.25.86.86,0,0,1,.68.25.9.9,0,0,1,.24.63.84.84,0,0,1-.24.62.86.86,0,0,1-.68.25.85.85,0,0,1-.67-.25A.88.88,0,0,1,460.63,152.66ZM462.29,164h-1.54v-9h1.54Z"/><path d="M464.34,159.44a5.42,5.42,0,0,1,.51-2.37,3.92,3.92,0,0,1,1.44-1.62,4,4,0,0,1,2.12-.57,3.79,3.79,0,0,1,3,1.27,4.87,4.87,0,0,1,1.13,3.37v.11A5.43,5.43,0,0,1,472,162a3.84,3.84,0,0,1-1.44,1.62,4,4,0,0,1-2.14.58,3.77,3.77,0,0,1-2.95-1.27,4.83,4.83,0,0,1-1.13-3.36Zm1.54.19a3.83,3.83,0,0,0,.69,2.39,2.35,2.35,0,0,0,3.71,0,4.2,4.2,0,0,0,.69-2.57,3.82,3.82,0,0,0-.71-2.39,2.2,2.2,0,0,0-1.85-.91,2.22,2.22,0,0,0-1.84.9A4.18,4.18,0,0,0,465.88,159.63Z"/><path d="M475.87,155l.05,1.13a3.28,3.28,0,0,1,2.69-1.29q2.83,0,2.87,3.2V164h-1.54v-5.93a2.05,2.05,0,0,0-.44-1.44,1.78,1.78,0,0,0-1.36-.46,2.21,2.21,0,0,0-1.31.4,2.8,2.8,0,0,0-.88,1V164h-1.53v-9Z"/><path d="M324.81,176.79a4.38,4.38,0,0,0-.75-.06A2,2,0,0,0,322,178v6.37h-1.53v-9H322l0,1a2.38,2.38,0,0,1,2.13-1.21,1.66,1.66,0,0,1,.68.12Z"/><path d="M329.78,184.55a3.9,3.9,0,0,1-3-1.2,4.47,4.47,0,0,1-1.15-3.21v-.28a5.37,5.37,0,0,1,.51-2.38,4,4,0,0,1,1.43-1.64,3.54,3.54,0,0,1,2-.6,3.35,3.35,0,0,1,2.72,1.16,5,5,0,0,1,1,3.3v.64h-6.07a3.21,3.21,0,0,0,.77,2.14,2.47,2.47,0,0,0,1.89.81,2.65,2.65,0,0,0,1.37-.33,3.31,3.31,0,0,0,1-.88l.94.73A3.77,3.77,0,0,1,329.78,184.55Zm-.19-8.05a2.07,2.07,0,0,0-1.56.68,3.34,3.34,0,0,0-.77,1.9h4.49V179a3,3,0,0,0-.63-1.81A1.93,1.93,0,0,0,329.59,176.5Z"/><path d="M340.28,182a1.13,1.13,0,0,0-.47-1,4.57,4.57,0,0,0-1.63-.6,7.61,7.61,0,0,1-1.85-.59,2.68,2.68,0,0,1-1-.83,2,2,0,0,1-.33-1.15,2.33,2.33,0,0,1,.93-1.86,3.65,3.65,0,0,1,2.39-.77,3.77,3.77,0,0,1,2.47.79,2.53,2.53,0,0,1,1,2h-1.54a1.38,1.38,0,0,0-.54-1.09,2,2,0,0,0-1.34-.46,2.1,2.1,0,0,0-1.31.37,1.14,1.14,0,0,0-.48.95.94.94,0,0,0,.44.84,5.46,5.46,0,0,0,1.59.54,8.43,8.43,0,0,1,1.86.61,2.76,2.76,0,0,1,1.06.86,2.11,2.11,0,0,1,.34,1.22,2.3,2.3,0,0,1-1,1.93,4,4,0,0,1-2.49.73,4.58,4.58,0,0,1-1.91-.38,3.2,3.2,0,0,1-1.3-1.07,2.59,2.59,0,0,1-.46-1.48h1.53a1.58,1.58,0,0,0,.62,1.22,2.86,2.86,0,0,0,2.91.1A1.08,1.08,0,0,0,340.28,182Z"/><path d="M349.35,183.49a3.27,3.27,0,0,1-2.63,1.06,2.78,2.78,0,0,1-2.19-.84,3.57,3.57,0,0,1-.75-2.46v-5.84h1.53v5.79c0,1.36.55,2.05,1.66,2.05a2.3,2.3,0,0,0,2.34-1.32v-6.52h1.53v9h-1.46Z"/><path d="M354.83,184.38H353.3V171.65h1.53Z"/><path d="M359.37,173.24v2.17H361v1.19h-1.67v5.57a1.19,1.19,0,0,0,.22.8.91.91,0,0,0,.76.28,4.25,4.25,0,0,0,.73-.1v1.23a4.41,4.41,0,0,1-1.17.17,1.91,1.91,0,0,1-1.56-.63,2.7,2.7,0,0,1-.52-1.76V176.6H356.2v-1.19h1.63v-2.17Z"/><path d="M362.84,173a.92.92,0,0,1,.23-.63.85.85,0,0,1,.67-.25.86.86,0,0,1,.68.25.88.88,0,0,1,.24.63.84.84,0,0,1-.24.62.86.86,0,0,1-.68.25.85.85,0,0,1-.67-.25A.88.88,0,0,1,362.84,173Zm1.66,11.35H363v-9h1.53Z"/><path d="M368.4,175.41l.05,1.13a3.29,3.29,0,0,1,2.69-1.3c1.89,0,2.85,1.08,2.87,3.21v5.93h-1.54v-5.93A2.05,2.05,0,0,0,372,177a1.78,1.78,0,0,0-1.36-.46,2.21,2.21,0,0,0-1.31.4,2.8,2.8,0,0,0-.88,1v6.39H367v-9Z"/><path d="M376,179.82a5.33,5.33,0,0,1,1-3.34,3.13,3.13,0,0,1,2.57-1.24,3.06,3.06,0,0,1,2.56,1.17l.08-1h1.4v8.76a3.69,3.69,0,0,1-1,2.74,3.82,3.82,0,0,1-2.78,1,4.75,4.75,0,0,1-1.9-.41,3.3,3.3,0,0,1-1.41-1.14l.79-.92a3,3,0,0,0,2.41,1.22,2.36,2.36,0,0,0,1.75-.63,2.4,2.4,0,0,0,.63-1.78v-.77a3.18,3.18,0,0,1-2.52,1.07,3.06,3.06,0,0,1-2.54-1.27A5.56,5.56,0,0,1,376,179.82Zm1.54.18a4.05,4.05,0,0,0,.62,2.38,2,2,0,0,0,1.75.87,2.27,2.27,0,0,0,2.13-1.32v-4.1a2.29,2.29,0,0,0-2.12-1.28,2,2,0,0,0-1.75.87A4.38,4.38,0,0,0,377.49,180Z"/><path d="M390.05,173a.92.92,0,0,1,.23-.63.85.85,0,0,1,.67-.25.86.86,0,0,1,.68.25.88.88,0,0,1,.24.63.84.84,0,0,1-.24.62.86.86,0,0,1-.68.25.85.85,0,0,1-.67-.25A.88.88,0,0,1,390.05,173Zm1.66,11.35h-1.54v-9h1.54Z"/><path d="M395.61,175.41l.05,1.13a3.29,3.29,0,0,1,2.69-1.3c1.89,0,2.85,1.08,2.87,3.21v5.93h-1.54v-5.93a2.1,2.1,0,0,0-.44-1.44,1.78,1.78,0,0,0-1.36-.46,2.19,2.19,0,0,0-1.31.4,2.8,2.8,0,0,0-.88,1v6.39h-1.53v-9Z"/><path d="M408.28,178.33l.61-6h6.18v1.42h-4.88l-.36,3.29a3.86,3.86,0,0,1,2-.52,3.32,3.32,0,0,1,2.62,1.09,4.26,4.26,0,0,1,1,2.94,4.07,4.07,0,0,1-1,2.94,3.65,3.65,0,0,1-2.81,1.08,3.81,3.81,0,0,1-2.61-.89,3.54,3.54,0,0,1-1.15-2.46h1.45a2.44,2.44,0,0,0,.73,1.57,2.32,2.32,0,0,0,1.58.52,2.07,2.07,0,0,0,1.68-.73,3.05,3.05,0,0,0,.61-2,2.78,2.78,0,0,0-.66-1.94,2.25,2.25,0,0,0-1.75-.74,2.56,2.56,0,0,0-1.58.44l-.41.33Z"/><path d="M424.89,173.17l-5,11.21h-1.61l5-10.81h-6.53v-1.26h8.15Z"/><path d="M438.59,180a5.38,5.38,0,0,1-.94,3.3,3,3,0,0,1-2.54,1.25,3.12,3.12,0,0,1-2.63-1.21l-.07,1H431V171.65h1.53v4.75a3.11,3.11,0,0,1,2.56-1.16,3.05,3.05,0,0,1,2.57,1.24,5.51,5.51,0,0,1,.93,3.38Zm-1.53-.18a4.1,4.1,0,0,0-.61-2.42,2,2,0,0,0-1.74-.85,2.25,2.25,0,0,0-2.18,1.41v3.87a2.31,2.31,0,0,0,2.2,1.42,2,2,0,0,0,1.71-.86A4.39,4.39,0,0,0,437.06,179.82Z"/><path d="M446.06,183.49a3.27,3.27,0,0,1-2.63,1.06,2.78,2.78,0,0,1-2.19-.84,3.57,3.57,0,0,1-.75-2.46v-5.84H442v5.79c0,1.36.55,2.05,1.66,2.05a2.3,2.3,0,0,0,2.34-1.32v-6.52h1.53v9h-1.46Z"/><path d="M455.1,182a1.13,1.13,0,0,0-.47-1,4.57,4.57,0,0,0-1.63-.6,7.61,7.61,0,0,1-1.85-.59,2.68,2.68,0,0,1-1-.83,2,2,0,0,1-.33-1.15,2.33,2.33,0,0,1,.93-1.86,3.65,3.65,0,0,1,2.39-.77,3.77,3.77,0,0,1,2.47.79,2.53,2.53,0,0,1,.95,2H455a1.38,1.38,0,0,0-.54-1.09,2,2,0,0,0-1.34-.46,2.1,2.1,0,0,0-1.31.37,1.14,1.14,0,0,0-.48.95.94.94,0,0,0,.44.84,5.46,5.46,0,0,0,1.59.54,8.43,8.43,0,0,1,1.86.61,2.76,2.76,0,0,1,1.06.86,2.11,2.11,0,0,1,.34,1.22,2.3,2.3,0,0,1-1,1.93,4,4,0,0,1-2.49.73,4.58,4.58,0,0,1-1.91-.38,3.2,3.2,0,0,1-1.3-1.07,2.59,2.59,0,0,1-.46-1.48H451a1.58,1.58,0,0,0,.62,1.22,2.86,2.86,0,0,0,2.91.1A1.08,1.08,0,0,0,455.1,182Z"/><path d="M458.64,173a.88.88,0,0,1,.23-.63.84.84,0,0,1,.67-.25.86.86,0,0,1,.68.25.88.88,0,0,1,.23.63.84.84,0,0,1-.23.62.86.86,0,0,1-.68.25.83.83,0,0,1-.9-.87Zm1.66,11.35h-1.54v-9h1.54Z"/><path d="M464.2,175.41l.05,1.13a3.27,3.27,0,0,1,2.68-1.3c1.9,0,2.86,1.08,2.87,3.21v5.93h-1.53v-5.93a2.15,2.15,0,0,0-.44-1.44,1.79,1.79,0,0,0-1.36-.46,2.19,2.19,0,0,0-1.31.4,2.63,2.63,0,0,0-.88,1v6.39h-1.53v-9Z"/><path d="M475.84,184.55a3.91,3.91,0,0,1-3-1.2,4.47,4.47,0,0,1-1.14-3.21v-.28a5.37,5.37,0,0,1,.51-2.38,3.93,3.93,0,0,1,1.42-1.64,3.55,3.55,0,0,1,2-.6,3.37,3.37,0,0,1,2.72,1.16,5,5,0,0,1,1,3.3v.64h-6.08a3.21,3.21,0,0,0,.77,2.14,2.47,2.47,0,0,0,1.89.81,2.71,2.71,0,0,0,1.38-.33,3.4,3.4,0,0,0,1-.88l.94.73A3.76,3.76,0,0,1,475.84,184.55Zm-.19-8.05a2.05,2.05,0,0,0-1.56.68,3.28,3.28,0,0,0-.78,1.9h4.49V179a2.87,2.87,0,0,0-.63-1.81A1.91,1.91,0,0,0,475.65,176.5Z"/><path d="M486.33,182a1.13,1.13,0,0,0-.47-1,4.49,4.49,0,0,0-1.63-.6,7.61,7.61,0,0,1-1.85-.59,2.68,2.68,0,0,1-1-.83,2,2,0,0,1-.33-1.15A2.31,2.31,0,0,1,482,176a3.62,3.62,0,0,1,2.38-.77,3.75,3.75,0,0,1,2.47.79,2.53,2.53,0,0,1,.95,2h-1.54a1.38,1.38,0,0,0-.54-1.09,2,2,0,0,0-1.34-.46,2.1,2.1,0,0,0-1.31.37,1.13,1.13,0,0,0-.47.95.94.94,0,0,0,.43.84,5.46,5.46,0,0,0,1.59.54,8.43,8.43,0,0,1,1.86.61,2.76,2.76,0,0,1,1.06.86,2.11,2.11,0,0,1,.34,1.22,2.3,2.3,0,0,1-1,1.93,4,4,0,0,1-2.49.73,4.58,4.58,0,0,1-1.91-.38,3.2,3.2,0,0,1-1.3-1.07,2.59,2.59,0,0,1-.46-1.48h1.53a1.58,1.58,0,0,0,.62,1.22,2.86,2.86,0,0,0,2.91.1A1.06,1.06,0,0,0,486.33,182Z"/><path d="M495.08,182a1.12,1.12,0,0,0-.46-1,4.64,4.64,0,0,0-1.64-.6,7.76,7.76,0,0,1-1.85-.59,2.77,2.77,0,0,1-1-.83,2,2,0,0,1-.32-1.15,2.33,2.33,0,0,1,.93-1.86,3.62,3.62,0,0,1,2.38-.77,3.75,3.75,0,0,1,2.47.79,2.5,2.5,0,0,1,.95,2H495a1.4,1.4,0,0,0-.53-1.09,2,2,0,0,0-1.35-.46,2.12,2.12,0,0,0-1.31.37,1.15,1.15,0,0,0-.47.95.94.94,0,0,0,.44.84,5.24,5.24,0,0,0,1.59.54,8.5,8.5,0,0,1,1.85.61,2.76,2.76,0,0,1,1.06.86,2.11,2.11,0,0,1,.35,1.22,2.3,2.3,0,0,1-1,1.93,4.1,4.1,0,0,1-2.5.73,4.62,4.62,0,0,1-1.91-.38A3.1,3.1,0,0,1,490,183.1a2.52,2.52,0,0,1-.47-1.48H491a1.61,1.61,0,0,0,.62,1.22,2.39,2.39,0,0,0,1.52.45,2.44,2.44,0,0,0,1.4-.35A1.07,1.07,0,0,0,495.08,182Z"/><path d="M502.33,184.55a3.9,3.9,0,0,1-3-1.2,4.47,4.47,0,0,1-1.15-3.21v-.28a5.37,5.37,0,0,1,.51-2.38,4,4,0,0,1,1.43-1.64,3.55,3.55,0,0,1,2-.6,3.34,3.34,0,0,1,2.71,1.16,5,5,0,0,1,1,3.3v.64h-6.07a3.21,3.21,0,0,0,.77,2.14,2.47,2.47,0,0,0,1.89.81,2.65,2.65,0,0,0,1.37-.33,3.31,3.31,0,0,0,1-.88l.94.73A3.77,3.77,0,0,1,502.33,184.55Zm-.18-8.05a2.05,2.05,0,0,0-1.56.68,3.28,3.28,0,0,0-.78,1.9h4.49V179a2.87,2.87,0,0,0-.63-1.81A1.92,1.92,0,0,0,502.15,176.5Z"/><path d="M512.83,182a1.13,1.13,0,0,0-.47-1,4.57,4.57,0,0,0-1.63-.6,7.61,7.61,0,0,1-1.85-.59,2.68,2.68,0,0,1-1-.83,2,2,0,0,1-.33-1.15,2.33,2.33,0,0,1,.93-1.86,3.65,3.65,0,0,1,2.39-.77,3.77,3.77,0,0,1,2.47.79,2.53,2.53,0,0,1,.95,2h-1.54a1.38,1.38,0,0,0-.54-1.09,2,2,0,0,0-1.34-.46,2.1,2.1,0,0,0-1.31.37,1.14,1.14,0,0,0-.48.95.94.94,0,0,0,.44.84,5.35,5.35,0,0,0,1.59.54,8.43,8.43,0,0,1,1.86.61,2.76,2.76,0,0,1,1.06.86,2.11,2.11,0,0,1,.34,1.22,2.3,2.3,0,0,1-1,1.93,4.06,4.06,0,0,1-2.5.73,4.57,4.57,0,0,1-1.9-.38,3.13,3.13,0,0,1-1.3-1.07,2.6,2.6,0,0,1-.47-1.48h1.54a1.57,1.57,0,0,0,.61,1.22,2.88,2.88,0,0,0,2.92.1A1.08,1.08,0,0,0,512.83,182Z"/><path d="M332.85,197.16a4.59,4.59,0,0,0-.76-.06,2,2,0,0,0-2,1.29v6.36h-1.53v-9H330l0,1a2.38,2.38,0,0,1,2.14-1.2,1.75,1.75,0,0,1,.68.11Z"/><path d="M337.82,204.92a3.91,3.91,0,0,1-3-1.2,4.46,4.46,0,0,1-1.14-3.2v-.28a5.41,5.41,0,0,1,.51-2.39,4,4,0,0,1,1.42-1.64,3.62,3.62,0,0,1,2-.59,3.37,3.37,0,0,1,2.72,1.15,5,5,0,0,1,1,3.3v.64h-6.08a3.19,3.19,0,0,0,.77,2.14,2.44,2.44,0,0,0,1.89.82,2.62,2.62,0,0,0,1.38-.34,3.51,3.51,0,0,0,1-.87l.94.73A3.77,3.77,0,0,1,337.82,204.92Zm-.19-8a2,2,0,0,0-1.56.67,3.31,3.31,0,0,0-.78,1.9h4.49v-.12a2.87,2.87,0,0,0-.63-1.81A1.9,1.9,0,0,0,337.63,196.88Z"/><path d="M346.69,203.67a2.21,2.21,0,0,0,1.43-.5,1.74,1.74,0,0,0,.68-1.24h1.45a2.74,2.74,0,0,1-.53,1.46,3.36,3.36,0,0,1-1.3,1.11,4,4,0,0,1-4.65-.8,4.89,4.89,0,0,1-1.08-3.35v-.26a5.28,5.28,0,0,1,.49-2.33,3.66,3.66,0,0,1,1.38-1.58,3.92,3.92,0,0,1,2.12-.56,3.61,3.61,0,0,1,2.51.9,3.24,3.24,0,0,1,1.06,2.35H348.8a2.07,2.07,0,0,0-.66-1.43,2,2,0,0,0-1.46-.56,2.15,2.15,0,0,0-1.81.84,3.93,3.93,0,0,0-.64,2.43v.29a3.93,3.93,0,0,0,.63,2.39A2.17,2.17,0,0,0,346.69,203.67Z"/><path d="M355.7,204.92a3.91,3.91,0,0,1-3-1.2,4.46,4.46,0,0,1-1.14-3.2v-.28a5.41,5.41,0,0,1,.51-2.39,4,4,0,0,1,1.42-1.64,3.62,3.62,0,0,1,2-.59,3.37,3.37,0,0,1,2.72,1.15,5,5,0,0,1,1,3.3v.64h-6.08a3.19,3.19,0,0,0,.77,2.14,2.44,2.44,0,0,0,1.89.82,2.62,2.62,0,0,0,1.38-.34,3.51,3.51,0,0,0,1-.87l.94.73A3.77,3.77,0,0,1,355.7,204.92Zm-.19-8a2,2,0,0,0-1.56.67,3.31,3.31,0,0,0-.78,1.9h4.49v-.12a2.87,2.87,0,0,0-.63-1.81A1.9,1.9,0,0,0,355.51,196.88Z"/><path d="M361,193.41a.88.88,0,0,1,.23-.63.81.81,0,0,1,.67-.26.85.85,0,0,1,.68.26,1,1,0,0,1,0,1.25.91.91,0,0,1-.68.25.83.83,0,0,1-.9-.87Zm1.65,11.34H361.1v-9h1.53Z"/><path d="M368.05,202.67l2.22-6.89h1.56l-3.21,9h-1.17l-3.25-9h1.57Z"/><path d="M373.32,193.41a.88.88,0,0,1,.23-.63.81.81,0,0,1,.67-.26.83.83,0,0,1,.68.26,1,1,0,0,1,0,1.25.9.9,0,0,1-.68.25.83.83,0,0,1-.9-.87ZM375,204.75h-1.54v-9H375Z"/><path d="M378.88,195.78l.05,1.13a3.28,3.28,0,0,1,2.69-1.29q2.83,0,2.87,3.2v5.93H383v-5.93a2.1,2.1,0,0,0-.44-1.44,1.78,1.78,0,0,0-1.36-.46,2.19,2.19,0,0,0-1.31.4,2.8,2.8,0,0,0-.88,1v6.39h-1.53v-9Z"/><path d="M386.43,200.19a5.22,5.22,0,0,1,1-3.33,3.09,3.09,0,0,1,2.57-1.24,3.05,3.05,0,0,1,2.56,1.16l.08-1H394v8.76a3.67,3.67,0,0,1-1,2.74,3.82,3.82,0,0,1-2.78,1,4.75,4.75,0,0,1-1.9-.41,3.3,3.3,0,0,1-1.41-1.14l.79-.92a3,3,0,0,0,2.41,1.22,2.36,2.36,0,0,0,1.75-.63,2.39,2.39,0,0,0,.63-1.77v-.77a3.2,3.2,0,0,1-2.52,1.06,3.05,3.05,0,0,1-2.54-1.27A5.49,5.49,0,0,1,386.43,200.19Zm1.54.18a4.05,4.05,0,0,0,.62,2.38,2,2,0,0,0,1.75.87,2.26,2.26,0,0,0,2.13-1.32v-4.1a2.29,2.29,0,0,0-2.12-1.28,2,2,0,0,0-1.75.87A4.38,4.38,0,0,0,388,200.37Z"/><path d="M402.19,204.75h-1.54V192h1.54Z"/><path d="M408.36,204.92a3.9,3.9,0,0,1-3-1.2,4.42,4.42,0,0,1-1.15-3.2v-.28a5.41,5.41,0,0,1,.51-2.39,4,4,0,0,1,1.43-1.64,3.61,3.61,0,0,1,2-.59,3.35,3.35,0,0,1,2.72,1.15,5,5,0,0,1,1,3.3v.64h-6.07a3.14,3.14,0,0,0,.77,2.14,2.41,2.41,0,0,0,1.89.82,2.56,2.56,0,0,0,1.37-.34,3.55,3.55,0,0,0,1-.87l.93.73A3.76,3.76,0,0,1,408.36,204.92Zm-.19-8a2,2,0,0,0-1.56.67,3.31,3.31,0,0,0-.78,1.9h4.49v-.12a2.93,2.93,0,0,0-.62-1.81A1.94,1.94,0,0,0,408.17,196.88Z"/><path d="M413.27,200.19a5.22,5.22,0,0,1,1-3.33,3.34,3.34,0,0,1,5.13-.08l.07-1h1.4v8.76a3.63,3.63,0,0,1-1,2.74,3.78,3.78,0,0,1-2.77,1,4.71,4.71,0,0,1-1.9-.41,3.3,3.3,0,0,1-1.41-1.14l.79-.92a3,3,0,0,0,2.41,1.22,2.36,2.36,0,0,0,1.75-.63,2.39,2.39,0,0,0,.62-1.77v-.77a3.17,3.17,0,0,1-2.51,1.06,3.08,3.08,0,0,1-2.55-1.27A5.55,5.55,0,0,1,413.27,200.19Zm1.54.18a4.05,4.05,0,0,0,.62,2.38,2,2,0,0,0,1.75.87,2.24,2.24,0,0,0,2.12-1.32v-4.1a2.26,2.26,0,0,0-2.11-1.28,2,2,0,0,0-1.75.87A4.38,4.38,0,0,0,414.81,200.37Z"/><path d="M428.69,204.75a3.29,3.29,0,0,1-.21-.94,3.43,3.43,0,0,1-2.55,1.11,3.17,3.17,0,0,1-2.18-.75,2.42,2.42,0,0,1-.85-1.9,2.51,2.51,0,0,1,1.07-2.18,5,5,0,0,1,3-.78h1.5v-.7a1.74,1.74,0,0,0-.49-1.28,1.91,1.91,0,0,0-1.41-.48,2.22,2.22,0,0,0-1.38.42,1.22,1.22,0,0,0-.56,1h-1.54a2.12,2.12,0,0,1,.48-1.3,3.42,3.42,0,0,1,1.29-1,4.45,4.45,0,0,1,1.8-.36,3.59,3.59,0,0,1,2.43.77,2.85,2.85,0,0,1,.91,2.14v4.13a5.06,5.06,0,0,0,.31,2v.13Zm-2.54-1.17a2.69,2.69,0,0,0,1.37-.37,2.3,2.3,0,0,0,.94-1V200.4h-1.21c-1.88,0-2.81.55-2.81,1.65a1.37,1.37,0,0,0,.48,1.13A1.84,1.84,0,0,0,426.15,203.58Z"/><path d="M434.06,204.75h-1.54V192h1.54Z"/><path d="M448.3,200.37a5.32,5.32,0,0,1-.94,3.3,3,3,0,0,1-2.54,1.25,3.11,3.11,0,0,1-2.62-1.2l-.08,1h-1.41V192h1.53v4.75a3.12,3.12,0,0,1,2.57-1.15,3,3,0,0,1,2.56,1.23,5.53,5.53,0,0,1,.93,3.39Zm-1.53-.18a4.18,4.18,0,0,0-.6-2.42,2,2,0,0,0-1.74-.85,2.26,2.26,0,0,0-2.19,1.41v3.88a2.32,2.32,0,0,0,2.2,1.41,2,2,0,0,0,1.72-.86A4.39,4.39,0,0,0,446.77,200.19Z"/><path d="M455.77,203.86a3.22,3.22,0,0,1-2.62,1.06,2.78,2.78,0,0,1-2.19-.84,3.6,3.6,0,0,1-.76-2.46v-5.84h1.54v5.8q0,2,1.65,2a2.29,2.29,0,0,0,2.34-1.31v-6.53h1.54v9h-1.46Z"/><path d="M464.81,202.37a1.12,1.12,0,0,0-.46-1,4.65,4.65,0,0,0-1.63-.6,7.46,7.46,0,0,1-1.85-.59,2.63,2.63,0,0,1-1-.83,2,2,0,0,1-.32-1.14,2.33,2.33,0,0,1,.93-1.87,3.63,3.63,0,0,1,2.38-.76,3.8,3.8,0,0,1,2.48.78,2.53,2.53,0,0,1,.95,2h-1.54a1.4,1.4,0,0,0-.54-1.09,2,2,0,0,0-1.35-.45,2.07,2.07,0,0,0-1.3.36,1.15,1.15,0,0,0-.48.95.93.93,0,0,0,.44.84,5.24,5.24,0,0,0,1.59.54,8.8,8.8,0,0,1,1.86.61A2.84,2.84,0,0,1,466,201a2.12,2.12,0,0,1,.34,1.23,2.28,2.28,0,0,1-1,1.92,4,4,0,0,1-2.5.73,4.57,4.57,0,0,1-1.9-.38,3.07,3.07,0,0,1-1.3-1.07,2.57,2.57,0,0,1-.47-1.48h1.53a1.61,1.61,0,0,0,.62,1.22,2.41,2.41,0,0,0,1.52.46,2.44,2.44,0,0,0,1.4-.36A1.06,1.06,0,0,0,464.81,202.37Z"/><path d="M468.35,193.41a.92.92,0,0,1,.23-.63.83.83,0,0,1,.68-.26.85.85,0,0,1,.68.26.88.88,0,0,1-.68,1.5.9.9,0,0,1-.68-.25A.91.91,0,0,1,468.35,193.41ZM470,204.75h-1.53v-9H470Z"/><path d="M473.92,195.78l.05,1.13a3.26,3.26,0,0,1,2.68-1.29c1.9,0,2.85,1.07,2.87,3.2v5.93H478v-5.93a2.1,2.1,0,0,0-.45-1.44,1.77,1.77,0,0,0-1.35-.46,2.17,2.17,0,0,0-1.31.4,2.63,2.63,0,0,0-.88,1v6.39h-1.53v-9Z"/><path d="M485.55,204.92a3.9,3.9,0,0,1-3-1.2,4.42,4.42,0,0,1-1.15-3.2v-.28a5.41,5.41,0,0,1,.51-2.39,4,4,0,0,1,1.43-1.64,3.61,3.61,0,0,1,2-.59,3.35,3.35,0,0,1,2.72,1.15,5,5,0,0,1,1,3.3v.64H483a3.14,3.14,0,0,0,.77,2.14,2.41,2.41,0,0,0,1.89.82,2.56,2.56,0,0,0,1.37-.34,3.55,3.55,0,0,0,1-.87l.93.73A3.76,3.76,0,0,1,485.55,204.92Zm-.19-8a2,2,0,0,0-1.56.67,3.31,3.31,0,0,0-.78,1.9h4.5v-.12a3,3,0,0,0-.63-1.81A1.94,1.94,0,0,0,485.36,196.88Z"/><path d="M496.05,202.37a1.13,1.13,0,0,0-.47-1,4.57,4.57,0,0,0-1.63-.6,7.46,7.46,0,0,1-1.85-.59,2.52,2.52,0,0,1-1-.83,2,2,0,0,1-.33-1.14,2.33,2.33,0,0,1,.93-1.87,3.63,3.63,0,0,1,2.38-.76,3.78,3.78,0,0,1,2.48.78,2.53,2.53,0,0,1,.95,2H496a1.4,1.4,0,0,0-.54-1.09,2,2,0,0,0-1.35-.45,2.09,2.09,0,0,0-1.3.36,1.15,1.15,0,0,0-.48.95.93.93,0,0,0,.44.84,5.24,5.24,0,0,0,1.59.54,8.8,8.8,0,0,1,1.86.61,2.76,2.76,0,0,1,1.06.86,2.12,2.12,0,0,1,.34,1.23,2.28,2.28,0,0,1-1,1.92,4,4,0,0,1-2.5.73,4.57,4.57,0,0,1-1.9-.38,3.07,3.07,0,0,1-1.3-1.07,2.57,2.57,0,0,1-.47-1.48H492a1.57,1.57,0,0,0,.61,1.22,2.82,2.82,0,0,0,2.92.1A1.07,1.07,0,0,0,496.05,202.37Z"/><path d="M504.8,202.37a1.13,1.13,0,0,0-.47-1,4.57,4.57,0,0,0-1.63-.6,7.61,7.61,0,0,1-1.85-.59,2.6,2.6,0,0,1-1-.83,2,2,0,0,1-.33-1.14,2.32,2.32,0,0,1,.94-1.87,3.6,3.6,0,0,1,2.38-.76,3.77,3.77,0,0,1,2.47.78,2.53,2.53,0,0,1,.95,2h-1.54a1.4,1.4,0,0,0-.54-1.09,2,2,0,0,0-1.34-.45,2.1,2.1,0,0,0-1.31.36,1.15,1.15,0,0,0-.48.95.93.93,0,0,0,.44.84,5.46,5.46,0,0,0,1.59.54,8.43,8.43,0,0,1,1.86.61A2.76,2.76,0,0,1,506,201a2.12,2.12,0,0,1,.34,1.23,2.28,2.28,0,0,1-1,1.92,4,4,0,0,1-2.49.73,4.58,4.58,0,0,1-1.91-.38,3.2,3.2,0,0,1-1.3-1.07,2.56,2.56,0,0,1-.46-1.48h1.53a1.58,1.58,0,0,0,.62,1.22,2.8,2.8,0,0,0,2.91.1A1.05,1.05,0,0,0,504.8,202.37Z"/><path d="M375.53,220.56a5.29,5.29,0,0,1,1-3.32,3.11,3.11,0,0,1,2.56-1.25,3.15,3.15,0,0,1,2.5,1.07v-4.67h1.53v12.73h-1.41l-.08-1a3.3,3.3,0,0,1-5.1-.15,5.34,5.34,0,0,1-1-3.33Zm1.53.18a4,4,0,0,0,.63,2.38,2,2,0,0,0,1.75.87,2.25,2.25,0,0,0,2.13-1.31v-4.12a2.26,2.26,0,0,0-2.12-1.27,2.05,2.05,0,0,0-1.76.87A4.38,4.38,0,0,0,377.06,220.74Z"/><path d="M385.07,220.55a5.28,5.28,0,0,1,.52-2.37,3.86,3.86,0,0,1,1.44-1.62,4,4,0,0,1,2.11-.57,3.76,3.76,0,0,1,3,1.27,4.83,4.83,0,0,1,1.14,3.37v.11a5.3,5.3,0,0,1-.51,2.35,3.82,3.82,0,0,1-1.43,1.62,4,4,0,0,1-2.14.58,3.8,3.8,0,0,1-3-1.27,4.88,4.88,0,0,1-1.13-3.36Zm1.54.19a3.77,3.77,0,0,0,.7,2.39,2.34,2.34,0,0,0,3.7,0,4.2,4.2,0,0,0,.69-2.57,3.81,3.81,0,0,0-.7-2.39,2.23,2.23,0,0,0-1.86-.91,2.19,2.19,0,0,0-1.83.9A4.12,4.12,0,0,0,386.61,220.74Z"/><path d="M398.76,224a2.22,2.22,0,0,0,1.43-.49,1.74,1.74,0,0,0,.68-1.24h1.45a2.74,2.74,0,0,1-.53,1.46,3.39,3.39,0,0,1-1.31,1.11,4,4,0,0,1-4.64-.8,4.91,4.91,0,0,1-1.08-3.35v-.26a5.42,5.42,0,0,1,.48-2.33,3.67,3.67,0,0,1,1.38-1.58,3.89,3.89,0,0,1,2.13-.56,3.59,3.59,0,0,1,2.5.9,3.21,3.21,0,0,1,1.07,2.34h-1.45a2.07,2.07,0,0,0-.66-1.42,2,2,0,0,0-1.46-.56,2.13,2.13,0,0,0-1.81.84,3.93,3.93,0,0,0-.65,2.43v.29a3.93,3.93,0,0,0,.64,2.39A2.16,2.16,0,0,0,398.76,224Z"/><path d="M409.58,224.23a3.27,3.27,0,0,1-2.63,1.06,2.77,2.77,0,0,1-2.18-.84A3.6,3.6,0,0,1,404,222v-5.84h1.53V222c0,1.36.56,2,1.66,2a2.31,2.31,0,0,0,2.34-1.31v-6.53h1.53v9h-1.46Z"/><path d="M414.84,216.15l0,1a3.3,3.3,0,0,1,2.66-1.16,2.58,2.58,0,0,1,2.57,1.44,3.36,3.36,0,0,1,1.16-1.05A3.5,3.5,0,0,1,423,216q2.94,0,3,3.12v6h-1.54V219.2a2,2,0,0,0-.44-1.43,1.91,1.91,0,0,0-1.47-.48,2,2,0,0,0-1.42.51,2.07,2.07,0,0,0-.65,1.37v6H418.9v-5.87a1.71,1.71,0,0,0-1.91-2,2,2,0,0,0-2.06,1.28v6.55h-1.54v-9Z"/><path d="M432,225.29a3.94,3.94,0,0,1-3-1.2,4.46,4.46,0,0,1-1.14-3.2v-.29a5.37,5.37,0,0,1,.51-2.38,4.06,4.06,0,0,1,1.42-1.64,3.59,3.59,0,0,1,2-.59,3.35,3.35,0,0,1,2.72,1.15,5,5,0,0,1,1,3.3v.64h-6.08a3.15,3.15,0,0,0,.78,2.14,2.43,2.43,0,0,0,1.88.81,2.71,2.71,0,0,0,1.38-.33,3.55,3.55,0,0,0,1-.87l.93.73A3.77,3.77,0,0,1,432,225.29Zm-.19-8a2,2,0,0,0-1.56.67,3.31,3.31,0,0,0-.78,1.9H434v-.12a2.93,2.93,0,0,0-.62-1.81A1.94,1.94,0,0,0,431.81,217.25Z"/><path d="M438.72,216.15l0,1.13a3.28,3.28,0,0,1,2.69-1.29q2.84,0,2.87,3.2v5.93h-1.54v-5.93a2.05,2.05,0,0,0-.44-1.44,1.78,1.78,0,0,0-1.36-.46,2.21,2.21,0,0,0-1.31.4,2.8,2.8,0,0,0-.88,1v6.39h-1.53v-9Z"/><path d="M448.72,214v2.17h1.67v1.19h-1.67v5.57a1.24,1.24,0,0,0,.22.81.94.94,0,0,0,.76.27,4.25,4.25,0,0,0,.73-.1v1.23a4.41,4.41,0,0,1-1.17.17,1.91,1.91,0,0,1-1.56-.63,2.7,2.7,0,0,1-.52-1.76v-5.56h-1.63v-1.19h1.63V214Z"/><path d="M457.4,222.74a1.12,1.12,0,0,0-.46-1,4.64,4.64,0,0,0-1.64-.6,7.51,7.51,0,0,1-1.84-.59,2.72,2.72,0,0,1-1-.83,2,2,0,0,1-.32-1.14,2.33,2.33,0,0,1,.93-1.87,3.63,3.63,0,0,1,2.38-.76,3.8,3.8,0,0,1,2.48.78,2.52,2.52,0,0,1,.94,2h-1.54a1.38,1.38,0,0,0-.53-1.09,2,2,0,0,0-1.35-.45,2.12,2.12,0,0,0-1.31.36,1.17,1.17,0,0,0-.47.95.94.94,0,0,0,.44.84,5.24,5.24,0,0,0,1.59.54,8.8,8.8,0,0,1,1.86.61,2.72,2.72,0,0,1,1,.86,2.11,2.11,0,0,1,.35,1.22,2.29,2.29,0,0,1-1,1.93,4.1,4.1,0,0,1-2.5.73,4.54,4.54,0,0,1-1.9-.38,3.07,3.07,0,0,1-1.3-1.07,2.6,2.6,0,0,1-.47-1.48h1.53a1.61,1.61,0,0,0,.62,1.22,2.41,2.41,0,0,0,1.52.45,2.44,2.44,0,0,0,1.4-.35A1.07,1.07,0,0,0,457.4,222.74Z"/><rect class="cls-2" x="44.89" y="44.1" width="161.8" height="161.8" transform="translate(125.6 -52.33) rotate(45.12)"/><g class="cls-3"><path class="cls-4" d="M125.57,227.77,23,124.79,126,22.23l102.56,103Zm-99.38-103,99.39,99.8,99.8-99.38L126,25.41Zm99.41,89.93L91.37,180.34l26.29-26.17L92.28,128.69l-18.08,18,11.9,11.95L91,153.71l-7-7,8.18-8.15,15.52,15.59L86.44,175.39l-29.92-30L77.05,124.9,56.61,104.37l30-29.93L107.9,95.78,92.32,111.3l-8.15-8.19,7-7L86.24,91.2,74.29,103.09l18,18.08L117.78,95.8,91.6,69.51,126,35.28,160.2,69.66,133.92,95.83l25.38,25.48,18.08-18-11.9-12-4.95,4.93,7,7-8.18,8.15L143.8,95.85l21.33-21.24,29.93,30L174.52,125.1,195,145.63l-30.05,29.93-21.24-21.34,15.58-15.52,8.15,8.19-7,7,4.93,5,11.95-11.89-18-18.08L133.8,154.2,160,180.49Zm-31-34.37,31.06,31.19,31.19-31.06-26.18-26.29,28.67-28.54,21.17,21.26L165.33,162l-8.09-8.13,7-7-5-5-12.4,12.35,18.08,18.15,26.86-26.75-20.44-20.54,20.53-20.44L165.13,77.78,147,95.86l12.35,12.4,5-5-7-7,8.13-8.1,15.06,15.13-21.26,21.18L130.74,95.82,157,69.65,126,38.46,94.78,69.52,121,95.8,92.29,124.35,71.12,103.08,86.24,88l8.1,8.13-7,7,5,5,12.41-12.35L86.65,77.62,59.78,104.37l20.45,20.54L59.7,145.35l26.75,26.87,18.15-18.08-12.35-12.4-5,5,7,7-8.13,8.09L71,146.69l21.27-21.18,28.54,28.66Zm105.37-39.64L184.4,125.12,200,109.6l15.52,15.59Zm-12.34-15.58,12.35,12.4,12.4-12.35L200,112.78Zm-136,15.27L36.07,124.81l15.59-15.52,15.51,15.59ZM39.25,124.82l12.35,12.4L64,124.87l-12.35-12.4Z"/><path class="cls-4" d="M125.62,204.12l-24-24.11,24.11-24,24,24.12ZM104.79,180l20.84,20.93,20.93-20.84-20.84-20.93Z"/><path class="cls-4" d="M125.85,93.34l-24-24.11,24.11-24,24,24.12ZM105,69.23l20.84,20.93,20.93-20.84L126,48.39Z"/></g><path class="cls-4" d="M170.1,131.5a9.53,9.53,0,0,0-4.83-7c-.4-.23-.31-.42-.2-.74a6,6,0,0,0-.76-5.56c-.13-.18-.36-.32-.28-.59a11.74,11.74,0,0,0,.16-3.24,18.75,18.75,0,0,0-.87-6.44c-.3-.91-.93-1.31-1.66-1.08a1.27,1.27,0,0,0-.83,1.79,19.31,19.31,0,0,1,.79,6.45c0,.58-.21.64-.69.63-2.47,0-4.94,0-7.4,0a6.73,6.73,0,0,1-6.42-5,14.31,14.31,0,0,1-.28-2,1.18,1.18,0,0,0-1.1-1,1.16,1.16,0,0,0-1.31.75,3.39,3.39,0,0,0-.17,1,6.71,6.71,0,0,1-6.39,6.26c-2.58.07-5.17,0-7.75,0-.48,0-.57-.18-.55-.6,0-.71,0-1.43,0-2.15a14.53,14.53,0,0,1,13.91-14.2c.48,0,.79,0,.91.6a1.11,1.11,0,0,0,1.17.83,1.09,1.09,0,0,0,1.18-.81c.11-.68.49-.64,1-.61a14.37,14.37,0,0,1,10.14,4.79c.68.73,1.44.81,2,.24s.51-1.26-.12-2a13.07,13.07,0,0,0-2.68-2.41c-3.48-2.27-7.13-3.89-11.44-2.89a.84.84,0,0,1-.39-.12,3.19,3.19,0,0,0-1.43-.23,17.18,17.18,0,0,0-16,11.72,23.83,23.83,0,0,0-.81,8.76,3.42,3.42,0,0,1-.86,2.53,6.74,6.74,0,0,0-2.34-4.29c-.28-.22-.22-.5-.23-.78,0-1.61,0-3.22,0-4.82a17.57,17.57,0,0,0-12-16.17c-3.13-1-6.31-.93-9.53-.73a14.78,14.78,0,0,0-11.61,6.25.64.64,0,0,1-.85.29c-1.06-.36-2.12-.7-3.19-1a1.3,1.3,0,0,0-1.86,1.32,58.8,58.8,0,0,0,1,14.2.73.73,0,0,1-.37.95,6.23,6.23,0,0,0-3,6.45,6.31,6.31,0,0,0,5,5.47.93.93,0,0,1,.78.73,16.67,16.67,0,0,0,6.94,9.6c.13.09.31.13.36.39H92.94a8.11,8.11,0,0,0-8.25,8.21c0,3.62,0,7.23,0,10.85a1.81,1.81,0,0,0,.25,1.07c.56.83,3.71.82,4.27,0a1.29,1.29,0,0,0-1.21-2c-.62,0-.74-.2-.74-.78,0-3,0-6.08,0-9.12a5.42,5.42,0,0,1,4.65-5.54,36.22,36.22,0,0,1,4.3-.1c.39,0,.38.27.45.5,1.11,3.71,3.91,5.91,7.5,5.9a7.61,7.61,0,0,0,7.48-5.92c.11-.4.25-.49.62-.49,1,0,2,0,2.93,0A5.5,5.5,0,0,1,121,145.5c0,2.93,0,5.85,0,8.78,0,.72-.13.95-.91.94-8.44,0-16.88,0-25.31,0a3.66,3.66,0,0,0-.94.06,1.27,1.27,0,0,0-.67,2.1,1.65,1.65,0,0,0,1.42.42h27.2c1.41,0,1.81-.37,1.77-1.78-.14-4.61.37-9.25-.38-13.86a13.45,13.45,0,0,0,5.56-.73,9.44,9.44,0,0,0-1.28,5.46c0,3.07,0,6.14,0,9.21,0,1.3.39,1.7,1.67,1.7h32.88c1.24,0,1.65-.41,1.65-1.64,0-3,0-6,0-8.95a9.64,9.64,0,0,0-1.27-5.76c2.13.89,4.11.66,6.07.72a1.64,1.64,0,0,0,1.69-.91V131.6S170.1,131.54,170.1,131.5Zm-40.57-12.36a3.37,3.37,0,0,1,2.21-.79c1.55,0,3.1-.06,4.64,0a9.72,9.72,0,0,0,9.16-4.52c.08.06.17.1.21.17a9.45,9.45,0,0,0,8.63,4.34c1.63,0,3.27,0,4.9,0a3.42,3.42,0,0,1,.32,6.84c-1.26.12-1.44.3-1.74,1.56a12.24,12.24,0,0,1-9.92,9.76,12.49,12.49,0,0,1-14.57-9.37c0-.17-.09-.33-.13-.5-.26-1.18-.45-1.35-1.64-1.45a3.5,3.5,0,0,1-3.15-2.39A3.43,3.43,0,0,1,129.53,119.14Zm28.73,19c-1.95-.58-3.76-.29-5.6-.5a19.65,19.65,0,0,0,3.93-3.09A11.58,11.58,0,0,0,158.26,138.18ZM148,144.06a4.21,4.21,0,0,1-4.71,0c-2-1.24-2.28-3.2-2.07-5.38a15.3,15.3,0,0,0,8.84,0C150.23,140.85,150,142.81,148,144.06Zm-9.42-6.38c-1.84.24-3.69-.11-5.61.52a10.77,10.77,0,0,0,1.58-3.65A19.71,19.71,0,0,0,138.54,137.68Zm-31.93,5.2a5.12,5.12,0,0,1-7.49-3.57c-.08-.39,0-.61.45-.47a17,17,0,0,0,9.71-.15A5,5,0,0,1,106.61,142.88Zm-6.69-6.66c-5.31-1.64-8.51-5.37-9.73-10.78-.26-1.15-.48-1.38-1.64-1.45a4,4,0,0,1-3.89-4,4,4,0,0,1,3.87-3.91c1.13-.07,1.42-.33,1.65-1.46a13.93,13.93,0,0,1,2.14-5.13,11.37,11.37,0,0,0,7.4,6.2,13.21,13.21,0,0,0,3.49.39c5.48,0,11,0,16.43,0a3.9,3.9,0,0,1,3.9,3.21,3.94,3.94,0,0,1-2.56,4.44,4.88,4.88,0,0,1-1.25.26c-1.15.1-1.45.33-1.66,1.45a13.32,13.32,0,0,1-3.95,7.37C110.05,136.63,105.26,137.88,99.92,136.22Zm21-3.53c0,2.09,0,4.19,0,6.44a9.59,9.59,0,0,0-3.79-1.86,28.5,28.5,0,0,0-4.15-.19c.06-.3.34-.36.53-.48a16.68,16.68,0,0,0,6.76-9.44.92.92,0,0,1,.81-.79,6.53,6.53,0,0,0,4.54-3.73c.91,1.28.22,1.88-.83,2.64A9,9,0,0,0,121,132.69Zm4.2,6.86c-1.64,0-1.64,0-1.64-1.54v-2.73a20.19,20.19,0,0,1,.19-4,7.07,7.07,0,0,1,3.49-4.58.94.94,0,0,1,1.22,0,2.73,2.73,0,0,0,1.21.61c1,.15,1.32.77,1.62,1.65.51,1.51,1.17,2.92.82,4.62A7.11,7.11,0,0,1,125.17,139.55ZM160.4,155.2H145.51c-4.87,0-9.75,0-14.62,0-.63,0-.82-.12-.81-.79,0-2.84,0-5.67,0-8.51a5.31,5.31,0,0,1,5.51-5.54h.25a6.26,6.26,0,0,1,2.38.07c.73.32.42,1.38.67,2.1a7.12,7.12,0,0,0,7.37,4.74,6.88,6.88,0,0,0,6.21-5.83c.13-.87.38-1.21,1.29-1.1s2.12-.07,3.17.16a5.17,5.17,0,0,1,4.16,4.92c.06,3.07,0,6.14,0,9.2C161.17,155.33,160.78,155.2,160.4,155.2Zm6.91-15.64c-3.74.31-6.77-1.42-7.92-4.81a6.65,6.65,0,0,1,.08-4.67,4.54,4.54,0,0,1,2.84-3.15,2.06,2.06,0,0,1,2.27.2,7.1,7.1,0,0,1,3,5.78c0,.94,0,1.89,0,2.84V139C167.63,139.24,167.75,139.53,167.31,139.56Z"/><path class="cls-4" d="M107.56,126.15c-.72-.1-1.27.4-1.41,1.27-.21,1.28-.89,2-2,2s-1.8-.65-2.05-2c-.16-.88-.71-1.37-1.43-1.27a1.33,1.33,0,0,0-1.13,1.56,4.58,4.58,0,0,0,9.15,0A1.36,1.36,0,0,0,107.56,126.15Z"/><path class="cls-4" d="M113,121.13c0-.49,0-1,0-1.46a1.23,1.23,0,0,0-1.31-1.21,1.2,1.2,0,0,0-1.24,1.26c0,1,0,1.9,0,2.84a1.23,1.23,0,0,0,1.21,1.3,1.27,1.27,0,0,0,1.35-1.27c0-.48,0-1,0-1.46Z"/><path class="cls-4" d="M96.43,118.47a1.13,1.13,0,0,0-1.11,1.11c0,.51,0,1,0,1.55h0c0,.51,0,1,0,1.54a1.17,1.17,0,0,0,1.14,1.18,1.12,1.12,0,0,0,1.33-.95,11.17,11.17,0,0,0,0-3.51A1.13,1.13,0,0,0,96.43,118.47Z"/><path class="cls-4" d="M145.6,132.62a4.24,4.24,0,0,0,4.19-4c0-.9-.38-1.47-1.13-1.55s-1.26.36-1.43,1.27c-.22,1.09-.76,1.65-1.63,1.66s-1.51-.6-1.69-1.71a1.28,1.28,0,0,0-1.47-1.21,1.33,1.33,0,0,0-1.1,1.5A4.28,4.28,0,0,0,145.6,132.62Z"/><path class="cls-4" d="M137.16,122.61a.51.51,0,0,1,.36.58,6.57,6.57,0,0,0,0,.77,1.33,1.33,0,0,0,1.29,1.42,1.31,1.31,0,0,0,1.29-1.4c0-.4,0-.8,0-1.2s0-.74,0-1.11a1.3,1.3,0,0,0-1.45-1.49c-.28,0-.57,0-.85,0a1.23,1.23,0,0,0-1.34,1A1.17,1.17,0,0,0,137.16,122.61Z"/><path class="cls-4" d="M151.07,122.8h0c0,.43,0,.87,0,1.29a1.27,1.27,0,0,0,2.54.16,2.64,2.64,0,0,0,0-.69c0-.47,0-.84.55-1.08a1.07,1.07,0,0,0,.51-1.34,1.13,1.13,0,0,0-1.08-.94c-1.67-.08-2.73-.23-2.56,2.17C151.08,122.52,151.07,122.66,151.07,122.8Z"/></svg>