<svg id="Layer_1" data-name="Layer 1" xmlns="http://www.w3.org/2000/svg" viewBox="0 0 654 250"><defs><style>.cls-1{fill:none;stroke:#f89c26;stroke-miterlimit:10;stroke-width:2.6px;}.cls-2{fill:#f89c26;}.cls-3{opacity:0.15;}.cls-4{fill:#fff;}</style></defs><polygon class="cls-1" points="11.96 125 126.01 239.05 528.57 239.05 642.62 125 528.57 10.95 126.01 10.95 11.96 125"/><path d="M322.6,149.7a5.37,5.37,0,0,1-1,3.31,3,3,0,0,1-2.53,1.24,3.13,3.13,0,0,1-2.63-1.2l-.08,1H315V141.36h1.54v4.75A3.11,3.11,0,0,1,319.1,145a3,3,0,0,1,2.56,1.24,5.43,5.43,0,0,1,.94,3.38Zm-1.54-.17a4.16,4.16,0,0,0-.6-2.42,2,2,0,0,0-1.74-.85,2.24,2.24,0,0,0-2.18,1.4v3.88a2.31,2.31,0,0,0,2.2,1.41,2,2,0,0,0,1.71-.85A4.41,4.41,0,0,0,321.06,149.53Z"/><path d="M328.25,154.25a3.91,3.91,0,0,1-3-1.2,4.43,4.43,0,0,1-1.14-3.2v-.28a5.37,5.37,0,0,1,.51-2.38,3.93,3.93,0,0,1,1.42-1.64,3.6,3.6,0,0,1,2-.6,3.36,3.36,0,0,1,2.72,1.16,5,5,0,0,1,1,3.3V150h-6.08a3.17,3.17,0,0,0,.78,2.15,2.43,2.43,0,0,0,1.88.81,2.71,2.71,0,0,0,1.38-.33,3.4,3.4,0,0,0,1-.88l.94.73A3.75,3.75,0,0,1,328.25,154.25Zm-.19-8a2.05,2.05,0,0,0-1.56.68,3.28,3.28,0,0,0-.78,1.89h4.49v-.11a2.9,2.9,0,0,0-.63-1.82A1.93,1.93,0,0,0,328.06,146.21Z"/><path d="M335,145.12l0,1.13a3.28,3.28,0,0,1,2.68-1.3q2.85,0,2.87,3.21v5.93H339v-5.94a2.09,2.09,0,0,0-.44-1.43,1.78,1.78,0,0,0-1.36-.46,2.25,2.25,0,0,0-1.31.39,2.82,2.82,0,0,0-.88,1v6.39h-1.53v-9Z"/><path d="M346.61,154.25a3.91,3.91,0,0,1-3-1.2,4.43,4.43,0,0,1-1.14-3.2v-.28a5.37,5.37,0,0,1,.51-2.38,3.93,3.93,0,0,1,1.42-1.64,3.57,3.57,0,0,1,2-.6,3.37,3.37,0,0,1,2.72,1.16,5,5,0,0,1,1,3.3V150H344a3.22,3.22,0,0,0,.77,2.15,2.47,2.47,0,0,0,1.89.81,2.71,2.71,0,0,0,1.38-.33,3.4,3.4,0,0,0,1-.88l.94.73A3.75,3.75,0,0,1,346.61,154.25Zm-.19-8a2.05,2.05,0,0,0-1.56.68,3.28,3.28,0,0,0-.78,1.89h4.49v-.11a2.9,2.9,0,0,0-.63-1.82A1.93,1.93,0,0,0,346.42,146.21Z"/><path d="M352.63,154.09V146.3h-1.41v-1.18h1.41v-.92a3.07,3.07,0,0,1,.77-2.23,3,3,0,0,1,2.19-.79,4.21,4.21,0,0,1,1.05.14l-.09,1.24a4.3,4.3,0,0,0-.82-.08,1.51,1.51,0,0,0-1.16.44,1.77,1.77,0,0,0-.4,1.25v1h1.91v1.18h-1.91v7.79Z"/><path d="M357.78,142.74a.92.92,0,0,1,.23-.63,1,1,0,0,1,1.35,0,.88.88,0,0,1,.24.63.84.84,0,0,1-.24.62.86.86,0,0,1-.68.25.85.85,0,0,1-.67-.25A.88.88,0,0,1,357.78,142.74Zm1.66,11.35h-1.53v-9h1.53Z"/><path d="M364,143v2.17h1.68v1.18H364v5.57a1.3,1.3,0,0,0,.22.81,1,1,0,0,0,.77.27,3.44,3.44,0,0,0,.73-.1v1.24a4.52,4.52,0,0,1-1.18.16,1.9,1.9,0,0,1-1.55-.62,2.64,2.64,0,0,1-.52-1.76V146.3h-1.63v-1.18h1.63V143Z"/><path d="M369.52,143v2.17h1.67v1.18h-1.67v5.57a1.24,1.24,0,0,0,.22.81,1,1,0,0,0,.77.27,3.52,3.52,0,0,0,.73-.1v1.24a4.52,4.52,0,0,1-1.18.16,1.89,1.89,0,0,1-1.55-.62,2.64,2.64,0,0,1-.52-1.76V146.3h-1.64v-1.18H368V143Z"/><path d="M376.7,154.25a3.9,3.9,0,0,1-3-1.2,4.43,4.43,0,0,1-1.15-3.2v-.28a5.37,5.37,0,0,1,.51-2.38,4,4,0,0,1,1.43-1.64,3.55,3.55,0,0,1,2-.6,3.34,3.34,0,0,1,2.71,1.16,4.94,4.94,0,0,1,1,3.3V150h-6.07a3.22,3.22,0,0,0,.77,2.15,2.47,2.47,0,0,0,1.89.81,2.65,2.65,0,0,0,1.37-.33,3.31,3.31,0,0,0,1-.88l.94.73A3.76,3.76,0,0,1,376.7,154.25Zm-.18-8a2.09,2.09,0,0,0-1.57.68,3.34,3.34,0,0,0-.77,1.89h4.49v-.11a3,3,0,0,0-.63-1.82A2,2,0,0,0,376.52,146.21Z"/><path d="M381.6,149.53a5.27,5.27,0,0,1,1-3.32,3.09,3.09,0,0,1,2.56-1.26,3.13,3.13,0,0,1,2.5,1.08v-4.67h1.53v12.73h-1.41l-.07-1a3.13,3.13,0,0,1-2.56,1.12,3.05,3.05,0,0,1-2.54-1.27,5.31,5.31,0,0,1-1-3.34Zm1.54.17a4,4,0,0,0,.63,2.39,2,2,0,0,0,1.74.86,2.23,2.23,0,0,0,2.13-1.31v-4.12a2.27,2.27,0,0,0-2.12-1.26,2,2,0,0,0-1.75.87A4.35,4.35,0,0,0,383.14,149.7Z"/><path d="M396.51,154.09V146.3h-1.42v-1.18h1.42v-.92a3,3,0,0,1,.77-2.23,2.93,2.93,0,0,1,2.18-.79,4.21,4.21,0,0,1,1.05.14l-.08,1.24a4.41,4.41,0,0,0-.83-.08,1.49,1.49,0,0,0-1.15.44,1.78,1.78,0,0,0-.41,1.25v1H400v1.18H398v7.79Z"/><path d="M406,146.5a4.51,4.51,0,0,0-.76-.06,2,2,0,0,0-2,1.28v6.37h-1.54v-9h1.5l0,1A2.4,2.4,0,0,1,405.3,145a1.53,1.53,0,0,1,.68.12Z"/><path d="M406.82,149.52a5.22,5.22,0,0,1,.52-2.37,3.79,3.79,0,0,1,1.44-1.62,3.84,3.84,0,0,1,2.11-.58,3.79,3.79,0,0,1,3,1.27,4.9,4.9,0,0,1,1.13,3.37v.11a5.37,5.37,0,0,1-.5,2.35,3.71,3.71,0,0,1-1.43,1.62,4,4,0,0,1-2.15.58A3.78,3.78,0,0,1,408,153a4.89,4.89,0,0,1-1.13-3.36Zm1.54.18a3.84,3.84,0,0,0,.69,2.4,2.35,2.35,0,0,0,3.71,0,4.2,4.2,0,0,0,.69-2.57,3.88,3.88,0,0,0-.7-2.39,2.33,2.33,0,0,0-3.7,0A4.17,4.17,0,0,0,408.36,149.7Z"/><path d="M418.35,145.12l0,1a3.3,3.3,0,0,1,2.66-1.17,2.56,2.56,0,0,1,2.56,1.45,3.32,3.32,0,0,1,2.86-1.45c2,0,3,1.05,3,3.13v6h-1.53v-5.92a2.08,2.08,0,0,0-.44-1.44,1.93,1.93,0,0,0-1.48-.47,2,2,0,0,0-1.42.51,2,2,0,0,0-.65,1.37v6h-1.54v-5.88a1.71,1.71,0,0,0-1.92-2,2,2,0,0,0-2.06,1.28v6.55H416.9v-9Z"/><path d="M444.72,142v8.21a3.88,3.88,0,0,1-1.07,2.79,4.37,4.37,0,0,1-2.89,1.22h-.43a4.46,4.46,0,0,1-3.15-1.07,3.79,3.79,0,0,1-1.2-2.94V142h1.58v8.17a2.78,2.78,0,1,0,5.56,0V142Z"/><path d="M456.51,154.09h-1.6l-6.08-9.3v9.3h-1.6V142h1.6l6.09,9.34V142h1.59Z"/><path d="M468.52,151.71a1.14,1.14,0,0,0-.47-1,4.68,4.68,0,0,0-1.63-.59,7.42,7.42,0,0,1-1.85-.6,2.55,2.55,0,0,1-1-.83,2,2,0,0,1-.32-1.14,2.31,2.31,0,0,1,.93-1.86,3.64,3.64,0,0,1,2.38-.77,3.78,3.78,0,0,1,2.48.79,2.53,2.53,0,0,1,1,2h-1.54a1.37,1.37,0,0,0-.54-1.09,2.33,2.33,0,0,0-2.65-.09,1.14,1.14,0,0,0-.48.95.94.94,0,0,0,.44.84,5.24,5.24,0,0,0,1.59.54,8.26,8.26,0,0,1,1.86.61,2.84,2.84,0,0,1,1.06.86,2.09,2.09,0,0,1,.34,1.22,2.31,2.31,0,0,1-1,1.93,4.05,4.05,0,0,1-2.5.72,4.42,4.42,0,0,1-1.9-.38,3.05,3.05,0,0,1-1.3-1.06,2.6,2.6,0,0,1-.47-1.48h1.54a1.57,1.57,0,0,0,.61,1.22,2.41,2.41,0,0,0,1.52.45,2.52,2.52,0,0,0,1.4-.35A1.1,1.1,0,0,0,468.52,151.71Z"/><path d="M477.58,153.2a3.24,3.24,0,0,1-2.62,1.05,2.78,2.78,0,0,1-2.19-.83A3.62,3.62,0,0,1,472,151v-5.84h1.54v5.79q0,2,1.65,2a2.28,2.28,0,0,0,2.34-1.31v-6.52h1.54v9h-1.46Z"/><path d="M489,149.7A5.32,5.32,0,0,1,488,153a3,3,0,0,1-2.53,1.25,3.28,3.28,0,0,1-2.57-1v4.32H481.4V145.12h1.4l.08,1a3.14,3.14,0,0,1,2.6-1.17,3.07,3.07,0,0,1,2.56,1.22,5.4,5.4,0,0,1,.94,3.39Zm-1.53-.17a4,4,0,0,0-.65-2.4,2.08,2.08,0,0,0-1.77-.87,2.25,2.25,0,0,0-2.09,1.23v4.28A2.26,2.26,0,0,0,485,153a2.09,2.09,0,0,0,1.76-.87A4.37,4.37,0,0,0,487.45,149.53Z"/><path d="M498.5,149.7a5.38,5.38,0,0,1-.93,3.3,3,3,0,0,1-2.54,1.25,3.28,3.28,0,0,1-2.57-1v4.32h-1.53V145.12h1.4l.07,1A3.16,3.16,0,0,1,495,145a3.05,3.05,0,0,1,2.55,1.22,5.4,5.4,0,0,1,.94,3.39Zm-1.53-.17a4,4,0,0,0-.65-2.4,2.08,2.08,0,0,0-1.77-.87,2.25,2.25,0,0,0-2.09,1.23v4.28a2.26,2.26,0,0,0,2.11,1.23,2.07,2.07,0,0,0,1.75-.87A4.37,4.37,0,0,0,497,149.53Z"/><path d="M500.05,149.52a5.35,5.35,0,0,1,.51-2.37,3.86,3.86,0,0,1,3.56-2.2,3.79,3.79,0,0,1,3,1.27,4.9,4.9,0,0,1,1.13,3.37v.11a5.37,5.37,0,0,1-.5,2.35,3.77,3.77,0,0,1-1.43,1.62,4,4,0,0,1-2.15.58,3.78,3.78,0,0,1-2.95-1.26,4.85,4.85,0,0,1-1.13-3.36Zm1.54.18a3.84,3.84,0,0,0,.69,2.4,2.35,2.35,0,0,0,3.71,0,4.2,4.2,0,0,0,.69-2.57,3.88,3.88,0,0,0-.7-2.39,2.33,2.33,0,0,0-3.7,0A4.17,4.17,0,0,0,501.59,149.7Z"/><path d="M514.47,146.5a4.51,4.51,0,0,0-.76-.06,2,2,0,0,0-2,1.28v6.37h-1.54v-9h1.5l0,1a2.4,2.4,0,0,1,2.14-1.21,1.53,1.53,0,0,1,.68.12Z"/><path d="M518.37,143v2.17H520v1.18h-1.67v5.57a1.3,1.3,0,0,0,.22.81,1,1,0,0,0,.77.27,3.52,3.52,0,0,0,.73-.1v1.24a4.52,4.52,0,0,1-1.18.16,1.89,1.89,0,0,1-1.55-.62,2.64,2.64,0,0,1-.52-1.76V146.3H515.2v-1.18h1.64V143Z"/><path d="M312.66,169.89a5.22,5.22,0,0,1,.52-2.37,3.79,3.79,0,0,1,1.44-1.62,3.84,3.84,0,0,1,2.11-.58,3.76,3.76,0,0,1,3,1.27,4.9,4.9,0,0,1,1.13,3.37v.11a5.37,5.37,0,0,1-.5,2.35,3.71,3.71,0,0,1-1.43,1.62,4,4,0,0,1-2.15.58,3.78,3.78,0,0,1-2.95-1.26,4.89,4.89,0,0,1-1.13-3.36Zm1.54.18a3.84,3.84,0,0,0,.69,2.4,2.22,2.22,0,0,0,1.85.9,2.19,2.19,0,0,0,1.86-.92,4.15,4.15,0,0,0,.69-2.56,3.88,3.88,0,0,0-.7-2.39,2.24,2.24,0,0,0-1.86-.92,2.21,2.21,0,0,0-1.84.91A4.17,4.17,0,0,0,314.2,170.07Z"/><path d="M324.2,165.49l0,1.13a3.3,3.3,0,0,1,2.69-1.3q2.83,0,2.87,3.21v5.93h-1.53v-5.94a2.09,2.09,0,0,0-.45-1.43,1.77,1.77,0,0,0-1.35-.47,2.23,2.23,0,0,0-1.31.4,2.66,2.66,0,0,0-.88,1v6.39h-1.54v-9Z"/><path d="M343.21,169.13h-5.07v5.33h-1.59V162.39H344v1.3h-5.89v4.14h5.07Z"/><path d="M345.12,169.89a5.35,5.35,0,0,1,.51-2.37,3.84,3.84,0,0,1,3.56-2.2,3.77,3.77,0,0,1,3,1.27,4.9,4.9,0,0,1,1.13,3.37v.11a5.37,5.37,0,0,1-.5,2.35,3.73,3.73,0,0,1-1.44,1.62,3.92,3.92,0,0,1-2.14.58,3.78,3.78,0,0,1-2.95-1.26,4.85,4.85,0,0,1-1.13-3.36Zm1.54.18a3.84,3.84,0,0,0,.69,2.4,2.22,2.22,0,0,0,1.85.9,2.19,2.19,0,0,0,1.86-.92,4.15,4.15,0,0,0,.69-2.56,3.88,3.88,0,0,0-.7-2.39,2.24,2.24,0,0,0-1.86-.92,2.21,2.21,0,0,0-1.84.91A4.17,4.17,0,0,0,346.66,170.07Z"/><path d="M359.54,166.86a5.94,5.94,0,0,0-.76-.05,2,2,0,0,0-2,1.28v6.37H355.2v-9h1.49l0,1a2.37,2.37,0,0,1,2.14-1.21,1.53,1.53,0,0,1,.68.12Z"/><path d="M364.51,174.62a3.93,3.93,0,0,1-3-1.2,4.43,4.43,0,0,1-1.14-3.2v-.28a5.34,5.34,0,0,1,.51-2.38,3.93,3.93,0,0,1,1.42-1.64,3.6,3.6,0,0,1,2-.6,3.38,3.38,0,0,1,2.72,1.15,5,5,0,0,1,1,3.3v.64h-6.08a3.13,3.13,0,0,0,.78,2.14,2.41,2.41,0,0,0,1.88.82A2.71,2.71,0,0,0,366,173a3.4,3.4,0,0,0,1-.88l.94.73A3.75,3.75,0,0,1,364.51,174.62Zm-.19-8a2.05,2.05,0,0,0-1.56.68,3.28,3.28,0,0,0-.78,1.89h4.49V169a3,3,0,0,0-.62-1.81A2,2,0,0,0,364.32,166.58Z"/><path d="M375,172.08a1.13,1.13,0,0,0-.46-1,4.47,4.47,0,0,0-1.64-.59,7.92,7.92,0,0,1-1.84-.6,2.63,2.63,0,0,1-1-.83,2,2,0,0,1-.32-1.14,2.31,2.31,0,0,1,.93-1.86,3.64,3.64,0,0,1,2.38-.77,3.75,3.75,0,0,1,2.48.79,2.51,2.51,0,0,1,.94,2h-1.54a1.35,1.35,0,0,0-.53-1.08,2,2,0,0,0-1.35-.46,2.06,2.06,0,0,0-1.31.37,1.15,1.15,0,0,0-.47,1,.94.94,0,0,0,.44.84,5.24,5.24,0,0,0,1.59.54,8.26,8.26,0,0,1,1.86.61,2.71,2.71,0,0,1,1.05.86,2.09,2.09,0,0,1,.35,1.22,2.31,2.31,0,0,1-1,1.93,4.09,4.09,0,0,1-2.5.72,4.39,4.39,0,0,1-1.9-.38,3.05,3.05,0,0,1-1.3-1.06,2.6,2.6,0,0,1-.47-1.48h1.53a1.61,1.61,0,0,0,.62,1.22,2.41,2.41,0,0,0,1.52.45,2.52,2.52,0,0,0,1.4-.35A1.09,1.09,0,0,0,375,172.08Z"/><path d="M380.62,163.32v2.17h1.67v1.18h-1.67v5.57a1.24,1.24,0,0,0,.22.81.94.94,0,0,0,.76.27,3.44,3.44,0,0,0,.73-.1v1.24a4.41,4.41,0,0,1-1.18.16,1.9,1.9,0,0,1-1.55-.62,2.7,2.7,0,0,1-.52-1.76v-5.57h-1.63v-1.18h1.63v-2.17Z"/><path d="M390.12,173.16h5.72v1.3h-7.32V162.39h1.6Z"/><path d="M403,174.46a3.14,3.14,0,0,1-.21-1,3.45,3.45,0,0,1-2.56,1.11,3.15,3.15,0,0,1-2.17-.75,2.41,2.41,0,0,1-.85-1.9,2.55,2.55,0,0,1,1.06-2.18,5.08,5.08,0,0,1,3-.77h1.49v-.7a1.7,1.7,0,0,0-.48-1.28,1.92,1.92,0,0,0-1.42-.48,2.27,2.27,0,0,0-1.37.41,1.23,1.23,0,0,0-.56,1h-1.54a2.09,2.09,0,0,1,.48-1.29,3.17,3.17,0,0,1,1.29-1,4.22,4.22,0,0,1,1.79-.37,3.51,3.51,0,0,1,2.43.78,2.76,2.76,0,0,1,.91,2.13v4.13a5,5,0,0,0,.32,2v.14Zm-2.54-1.17a2.72,2.72,0,0,0,1.36-.37,2.21,2.21,0,0,0,.94-1v-1.83h-1.2c-1.88,0-2.82.54-2.82,1.64a1.39,1.39,0,0,0,.48,1.13A1.85,1.85,0,0,0,400.41,173.29Z"/><path d="M414.59,172.34l1.72-6.85h1.54l-2.61,9H414l-2.18-6.8-2.12,6.8h-1.24l-2.6-9h1.52l1.77,6.71,2.09-6.71h1.23Z"/><path d="M430.67,168.88h-5.23v4.28h6.08v1.3h-7.67V162.39h7.58v1.3h-6v3.89h5.23Z"/><path d="M434.71,165.49l0,1.13a3.3,3.3,0,0,1,2.69-1.3q2.83,0,2.87,3.21v5.93h-1.53v-5.94a2.09,2.09,0,0,0-.45-1.43,1.77,1.77,0,0,0-1.35-.47,2.23,2.23,0,0,0-1.31.4,2.66,2.66,0,0,0-.88,1v6.39h-1.54v-9Z"/><path d="M443.38,174.46v-7.79H442v-1.18h1.42v-.92a3,3,0,0,1,.77-2.23,2.89,2.89,0,0,1,2.18-.79,4.21,4.21,0,0,1,1.05.14l-.08,1.24a4.41,4.41,0,0,0-.83-.08,1.49,1.49,0,0,0-1.15.44,1.73,1.73,0,0,0-.41,1.25v1h1.91v1.18h-1.91v7.79Z"/><path d="M448.11,169.89a5.22,5.22,0,0,1,.52-2.37,3.79,3.79,0,0,1,1.44-1.62,3.84,3.84,0,0,1,2.11-.58,3.76,3.76,0,0,1,3,1.27,4.9,4.9,0,0,1,1.13,3.37v.11a5.37,5.37,0,0,1-.5,2.35,3.77,3.77,0,0,1-1.43,1.62,4,4,0,0,1-2.15.58,3.78,3.78,0,0,1-2.95-1.26,4.89,4.89,0,0,1-1.13-3.36Zm1.54.18a3.84,3.84,0,0,0,.69,2.4,2.22,2.22,0,0,0,1.85.9,2.19,2.19,0,0,0,1.86-.92,4.15,4.15,0,0,0,.69-2.56,3.88,3.88,0,0,0-.7-2.39,2.24,2.24,0,0,0-1.86-.92,2.21,2.21,0,0,0-1.84.91A4.17,4.17,0,0,0,449.65,170.07Z"/><path d="M462.53,166.86a5.81,5.81,0,0,0-.76-.05,2,2,0,0,0-2,1.28v6.37h-1.54v-9h1.5l0,1a2.38,2.38,0,0,1,2.14-1.21,1.53,1.53,0,0,1,.68.12Z"/><path d="M467.38,173.37a2.21,2.21,0,0,0,1.43-.5,1.72,1.72,0,0,0,.68-1.24h1.45a2.72,2.72,0,0,1-.53,1.47,3.53,3.53,0,0,1-1.3,1.11,3.86,3.86,0,0,1-1.73.41,3.7,3.7,0,0,1-2.91-1.22,4.83,4.83,0,0,1-1.09-3.34v-.26a5.28,5.28,0,0,1,.49-2.33,3.55,3.55,0,0,1,1.38-1.58,3.86,3.86,0,0,1,2.12-.57,3.62,3.62,0,0,1,2.51.91,3.22,3.22,0,0,1,1.06,2.34h-1.45a2.07,2.07,0,0,0-.66-1.43,2,2,0,0,0-1.46-.56,2.15,2.15,0,0,0-1.81.84,4,4,0,0,0-.64,2.44v.29a3.88,3.88,0,0,0,.63,2.38A2.17,2.17,0,0,0,467.38,173.37Z"/><path d="M476.39,174.62a3.91,3.91,0,0,1-3-1.2,4.43,4.43,0,0,1-1.14-3.2v-.28a5.34,5.34,0,0,1,.51-2.38,3.93,3.93,0,0,1,1.42-1.64,3.57,3.57,0,0,1,2-.6,3.4,3.4,0,0,1,2.72,1.15,5,5,0,0,1,1,3.3v.64h-6.08a3.13,3.13,0,0,0,.78,2.14,2.41,2.41,0,0,0,1.88.82,2.71,2.71,0,0,0,1.38-.33,3.4,3.4,0,0,0,1-.88l.94.73A3.75,3.75,0,0,1,476.39,174.62Zm-.19-8a2.05,2.05,0,0,0-1.56.68,3.28,3.28,0,0,0-.78,1.89h4.49V169a2.89,2.89,0,0,0-.63-1.81A1.93,1.93,0,0,0,476.2,166.58Z"/><path d="M483.1,165.49l0,1a3.33,3.33,0,0,1,2.66-1.16,2.55,2.55,0,0,1,2.56,1.45,3.29,3.29,0,0,1,1.17-1.05,3.39,3.39,0,0,1,1.7-.4q2.94,0,3,3.13v6h-1.53v-5.92a2.08,2.08,0,0,0-.44-1.44,1.91,1.91,0,0,0-1.47-.48,2,2,0,0,0-1.42.51,2,2,0,0,0-.65,1.37v6h-1.55v-5.88a1.71,1.71,0,0,0-1.91-2,2.06,2.06,0,0,0-2.07,1.29v6.55h-1.53v-9Z"/><path d="M500.26,174.62a3.94,3.94,0,0,1-3-1.2,4.43,4.43,0,0,1-1.14-3.2v-.28a5.34,5.34,0,0,1,.51-2.38,3.93,3.93,0,0,1,1.42-1.64,3.6,3.6,0,0,1,2-.6,3.38,3.38,0,0,1,2.72,1.15,5,5,0,0,1,1,3.3v.64h-6.08a3.13,3.13,0,0,0,.78,2.14,2.41,2.41,0,0,0,1.88.82,2.71,2.71,0,0,0,1.38-.33,3.27,3.27,0,0,0,1-.88l.94.73A3.75,3.75,0,0,1,500.26,174.62Zm-.19-8a2.05,2.05,0,0,0-1.56.68,3.28,3.28,0,0,0-.78,1.89h4.49V169a3,3,0,0,0-.62-1.81A2,2,0,0,0,500.07,166.58Z"/><path d="M507,165.49l0,1.13a3.29,3.29,0,0,1,2.69-1.3c1.89,0,2.85,1.07,2.86,3.21v5.93h-1.53v-5.94a2.09,2.09,0,0,0-.44-1.43,1.78,1.78,0,0,0-1.36-.47,2.26,2.26,0,0,0-1.31.4,2.74,2.74,0,0,0-.88,1v6.39h-1.53v-9Z"/><path d="M517,163.32v2.17h1.67v1.18H517v5.57a1.24,1.24,0,0,0,.22.81,1,1,0,0,0,.77.27,3.61,3.61,0,0,0,.73-.1v1.24a4.52,4.52,0,0,1-1.18.16A1.89,1.89,0,0,1,516,174a2.64,2.64,0,0,1-.52-1.76v-5.57h-1.64v-1.18h1.64v-2.17Z"/><path d="M520.39,176.86l-.87-.6a4,4,0,0,0,.81-2.23v-1.39h1.5v1.2a3.71,3.71,0,0,1-.41,1.68A3.81,3.81,0,0,1,520.39,176.86Z"/><path d="M339.41,193.24a3.62,3.62,0,0,1-1.71,1.32,6.9,6.9,0,0,1-2.56.43,4.94,4.94,0,0,1-2.61-.69,4.52,4.52,0,0,1-1.77-2,6.9,6.9,0,0,1-.65-3v-1.05a6.34,6.34,0,0,1,1.28-4.23,4.42,4.42,0,0,1,3.57-1.5,4.53,4.53,0,0,1,3,1,4.17,4.17,0,0,1,1.41,2.74h-1.59a2.63,2.63,0,0,0-2.85-2.41,2.81,2.81,0,0,0-2.42,1.13,5.5,5.5,0,0,0-.84,3.25v1a5.13,5.13,0,0,0,.93,3.23,3,3,0,0,0,2.51,1.2,5.65,5.65,0,0,0,1.57-.2,2.33,2.33,0,0,0,1.11-.67v-2.7H335v-1.3h4.37Z"/><path d="M341.42,190.26a5.22,5.22,0,0,1,.52-2.37,3.82,3.82,0,0,1,1.44-1.63,4,4,0,0,1,2.11-.57,3.76,3.76,0,0,1,3,1.27,4.86,4.86,0,0,1,1.13,3.37v.11a5.26,5.26,0,0,1-.5,2.35,3.76,3.76,0,0,1-1.43,1.62,4,4,0,0,1-2.14.58,3.77,3.77,0,0,1-3-1.27,4.85,4.85,0,0,1-1.13-3.35Zm1.54.18a3.84,3.84,0,0,0,.69,2.4,2.23,2.23,0,0,0,1.86.9,2.17,2.17,0,0,0,1.85-.92,4.17,4.17,0,0,0,.69-2.56,3.81,3.81,0,0,0-.7-2.39,2.24,2.24,0,0,0-1.86-.92,2.18,2.18,0,0,0-1.83.91A4.11,4.11,0,0,0,343,190.44Z"/><path d="M354.34,192.75l2.22-6.89h1.57l-3.22,9h-1.17l-3.25-9h1.57Z"/><path d="M363.22,195a3.91,3.91,0,0,1-3-1.2,4.43,4.43,0,0,1-1.14-3.2v-.28a5.34,5.34,0,0,1,.51-2.38,3.93,3.93,0,0,1,1.42-1.64,3.57,3.57,0,0,1,2-.6,3.4,3.4,0,0,1,2.72,1.15,5,5,0,0,1,1,3.3v.64h-6.08a3.13,3.13,0,0,0,.78,2.14,2.41,2.41,0,0,0,1.88.82,2.71,2.71,0,0,0,1.38-.33,3.4,3.4,0,0,0,1-.88l.94.73A3.75,3.75,0,0,1,363.22,195Zm-.19-8a2.05,2.05,0,0,0-1.56.68,3.28,3.28,0,0,0-.78,1.89h4.49v-.12a2.89,2.89,0,0,0-.63-1.81A1.93,1.93,0,0,0,363,187Z"/><path d="M372.83,187.23a6.06,6.06,0,0,0-.76,0,2,2,0,0,0-2.05,1.28v6.37h-1.53v-9H370l0,1a2.38,2.38,0,0,1,2.13-1.2,1.58,1.58,0,0,1,.69.12Z"/><path d="M375.68,185.86l.05,1.13a3.26,3.26,0,0,1,2.69-1.3q2.83,0,2.87,3.21v5.93h-1.54v-5.94a2,2,0,0,0-.44-1.43A1.78,1.78,0,0,0,378,187a2.23,2.23,0,0,0-1.3.4,2.66,2.66,0,0,0-.88,1.05v6.39h-1.54v-9Z"/><path d="M389.14,194.83a3.4,3.4,0,0,1-.22-1,3.41,3.41,0,0,1-2.55,1.11,3.17,3.17,0,0,1-2.18-.75,2.44,2.44,0,0,1-.85-1.9,2.56,2.56,0,0,1,1.07-2.18,5.08,5.08,0,0,1,3-.77h1.49v-.7a1.74,1.74,0,0,0-.48-1.29,2,2,0,0,0-1.42-.47,2.28,2.28,0,0,0-1.38.41,1.22,1.22,0,0,0-.55,1h-1.54a2.08,2.08,0,0,1,.47-1.29,3.2,3.2,0,0,1,1.3-1,4.22,4.22,0,0,1,1.79-.37,3.55,3.55,0,0,1,2.43.78,2.8,2.8,0,0,1,.91,2.13v4.13a5,5,0,0,0,.31,2v.14Zm-2.55-1.17a2.79,2.79,0,0,0,1.37-.37,2.33,2.33,0,0,0,.94-1v-1.83h-1.21c-1.87,0-2.81.54-2.81,1.64a1.4,1.4,0,0,0,.48,1.13A1.84,1.84,0,0,0,386.59,193.66Z"/><path d="M394.28,185.86l.05,1.13a3.26,3.26,0,0,1,2.69-1.3q2.84,0,2.87,3.21v5.93h-1.54v-5.94a2,2,0,0,0-.44-1.43,1.78,1.78,0,0,0-1.36-.47,2.28,2.28,0,0,0-1.31.4,2.72,2.72,0,0,0-.87,1.05v6.39h-1.54v-9Z"/><path d="M405.8,193.74a2.22,2.22,0,0,0,1.43-.5,1.72,1.72,0,0,0,.68-1.24h1.45a2.8,2.8,0,0,1-.53,1.47,3.57,3.57,0,0,1-1.31,1.11,3.79,3.79,0,0,1-1.72.41,3.72,3.72,0,0,1-2.92-1.22,4.89,4.89,0,0,1-1.08-3.35v-.25a5.39,5.39,0,0,1,.48-2.33,3.61,3.61,0,0,1,1.38-1.58,3.9,3.9,0,0,1,2.13-.57,3.53,3.53,0,0,1,2.5.91,3.19,3.19,0,0,1,1.07,2.34h-1.45a2.07,2.07,0,0,0-.66-1.43,2,2,0,0,0-1.46-.56,2.15,2.15,0,0,0-1.81.84,3.94,3.94,0,0,0-.65,2.44v.29a3.9,3.9,0,0,0,.64,2.38A2.17,2.17,0,0,0,405.8,193.74Z"/><path d="M414.81,195a3.91,3.91,0,0,1-3-1.2,4.43,4.43,0,0,1-1.15-3.2v-.28a5.48,5.48,0,0,1,.51-2.38,4,4,0,0,1,1.43-1.64,3.55,3.55,0,0,1,2-.6,3.4,3.4,0,0,1,2.72,1.15,5,5,0,0,1,1,3.3v.64h-6.07a3.17,3.17,0,0,0,.77,2.14,2.44,2.44,0,0,0,1.89.82,2.65,2.65,0,0,0,1.37-.33,3.31,3.31,0,0,0,1-.88l.94.73A3.75,3.75,0,0,1,414.81,195Zm-.19-8a2.05,2.05,0,0,0-1.56.68,3.28,3.28,0,0,0-.78,1.89h4.49v-.12a2.89,2.89,0,0,0-.63-1.81A2,2,0,0,0,414.62,187Z"/><path d="M420,197.23l-.87-.6a4,4,0,0,0,.81-2.23V193h1.5v1.2a3.85,3.85,0,0,1-.41,1.68A3.93,3.93,0,0,1,420,197.23Z"/><path d="M433.15,194.83a3.4,3.4,0,0,1-.22-1,3.41,3.41,0,0,1-2.55,1.11,3.19,3.19,0,0,1-2.18-.75,2.44,2.44,0,0,1-.85-1.9,2.56,2.56,0,0,1,1.07-2.18,5.08,5.08,0,0,1,3-.77h1.49v-.7a1.74,1.74,0,0,0-.48-1.29,2,2,0,0,0-1.42-.47,2.28,2.28,0,0,0-1.38.41,1.22,1.22,0,0,0-.55,1h-1.54a2.14,2.14,0,0,1,.47-1.29,3.2,3.2,0,0,1,1.3-1,4.22,4.22,0,0,1,1.79-.37,3.55,3.55,0,0,1,2.43.78,2.8,2.8,0,0,1,.91,2.13v4.13a5.22,5.22,0,0,0,.31,2v.14Zm-2.55-1.17a2.79,2.79,0,0,0,1.37-.37,2.33,2.33,0,0,0,.94-1v-1.83H431.7c-1.87,0-2.81.54-2.81,1.64a1.4,1.4,0,0,0,.48,1.13A1.84,1.84,0,0,0,430.6,193.66Z"/><path d="M438.3,185.86l.05,1.13a3.24,3.24,0,0,1,2.68-1.3c1.9,0,2.85,1.07,2.87,3.21v5.93h-1.53v-5.94a2.09,2.09,0,0,0-.45-1.43,1.77,1.77,0,0,0-1.35-.47,2.23,2.23,0,0,0-1.31.4,2.66,2.66,0,0,0-.88,1.05v6.39h-1.53v-9Z"/><path d="M445.84,190.27a5.24,5.24,0,0,1,1-3.32,3.33,3.33,0,0,1,5.06-.18V182.1h1.53v12.73H452l-.08-1a3.1,3.1,0,0,1-2.56,1.13,3,3,0,0,1-2.54-1.28,5.27,5.27,0,0,1-1-3.33Zm1.53.17a4,4,0,0,0,.63,2.39,2,2,0,0,0,1.74.86,2.23,2.23,0,0,0,2.13-1.31v-4.12a2.24,2.24,0,0,0-2.11-1.27,2.05,2.05,0,0,0-1.76.87A4.4,4.4,0,0,0,447.37,190.44Z"/><path d="M468.23,184.06h-3.87v10.77h-1.59V184.06H458.9v-1.3h9.33Z"/><path d="M473.5,187.23a6.06,6.06,0,0,0-.76,0,2,2,0,0,0-2.05,1.28v6.37h-1.53v-9h1.49l0,1a2.38,2.38,0,0,1,2.14-1.2,1.56,1.56,0,0,1,.68.12Z"/><path d="M480.11,194.83a3.14,3.14,0,0,1-.21-1,3.45,3.45,0,0,1-2.56,1.11,3.15,3.15,0,0,1-2.17-.75,2.41,2.41,0,0,1-.85-1.9,2.55,2.55,0,0,1,1.06-2.18,5.08,5.08,0,0,1,3-.77h1.49v-.7a1.74,1.74,0,0,0-.48-1.29,2,2,0,0,0-1.42-.47,2.27,2.27,0,0,0-1.37.41,1.23,1.23,0,0,0-.56,1H474.5a2.09,2.09,0,0,1,.48-1.29,3.17,3.17,0,0,1,1.29-1,4.22,4.22,0,0,1,1.79-.37,3.51,3.51,0,0,1,2.43.78,2.76,2.76,0,0,1,.91,2.13v4.13a5,5,0,0,0,.32,2v.14Zm-2.54-1.17a2.75,2.75,0,0,0,1.36-.37,2.21,2.21,0,0,0,.94-1v-1.83h-1.2c-1.88,0-2.82.54-2.82,1.64a1.4,1.4,0,0,0,.48,1.13A1.85,1.85,0,0,0,477.57,193.66Z"/><path d="M483.43,190.27a5.25,5.25,0,0,1,1-3.32,3.09,3.09,0,0,1,2.56-1.26,3.13,3.13,0,0,1,2.5,1.08V182.1H491v12.73h-1.41l-.07-1A3.11,3.11,0,0,1,487,195a3,3,0,0,1-2.54-1.28,5.28,5.28,0,0,1-1-3.33Zm1.54.17a4,4,0,0,0,.63,2.39,2,2,0,0,0,1.74.86,2.23,2.23,0,0,0,2.13-1.31v-4.12a2.25,2.25,0,0,0-2.12-1.27,2,2,0,0,0-1.75.87A4.4,4.4,0,0,0,485,190.44Z"/><path d="M497.1,195a3.9,3.9,0,0,1-3-1.2,4.39,4.39,0,0,1-1.15-3.2v-.28a5.34,5.34,0,0,1,.51-2.38,4,4,0,0,1,1.43-1.64,3.54,3.54,0,0,1,2-.6,3.38,3.38,0,0,1,2.72,1.15,5,5,0,0,1,1,3.3v.64h-6.07a3.12,3.12,0,0,0,.77,2.14,2.41,2.41,0,0,0,1.89.82,2.65,2.65,0,0,0,1.37-.33,3.43,3.43,0,0,0,1-.88l.93.73A3.74,3.74,0,0,1,497.1,195Zm-.19-8a2.05,2.05,0,0,0-1.56.68,3.28,3.28,0,0,0-.78,1.89h4.5v-.12a3,3,0,0,0-.63-1.81A2,2,0,0,0,496.91,187Z"/><rect class="cls-2" x="44.89" y="44.1" width="161.8" height="161.8" transform="translate(125.6 -52.33) rotate(45.12)"/><g class="cls-3"><path class="cls-4" d="M125.57,227.77,23,124.79,126,22.23l102.56,103Zm-99.38-103,99.39,99.8,99.8-99.38L126,25.41Zm99.41,89.93L91.37,180.34l26.29-26.17L92.28,128.69l-18.08,18,11.9,11.95L91,153.71l-7-7,8.18-8.15,15.52,15.59L86.44,175.39l-29.92-30L77.05,124.9,56.61,104.37l30-29.93L107.9,95.78,92.32,111.3l-8.15-8.19,7-7L86.24,91.2,74.29,103.09l18,18.08L117.78,95.8,91.6,69.51,126,35.28,160.2,69.66,133.92,95.83l25.38,25.48,18.08-18-11.9-12-4.95,4.93,7,7-8.18,8.15L143.8,95.85l21.33-21.24,29.93,30L174.52,125.1,195,145.63l-30.05,29.93-21.24-21.34,15.58-15.52,8.15,8.19-7,7,4.93,5,11.95-11.89-18-18.08L133.8,154.2,160,180.49Zm-31-34.37,31.06,31.19,31.19-31.06-26.18-26.29,28.67-28.54,21.17,21.26L165.33,162l-8.09-8.13,7-7-5-5-12.4,12.35,18.08,18.15,26.86-26.75-20.44-20.54,20.53-20.44L165.13,77.78,147,95.86l12.35,12.4,5-5-7-7,8.13-8.1,15.06,15.13-21.26,21.18L130.74,95.82,157,69.65,126,38.46,94.78,69.52,121,95.8,92.29,124.35,71.12,103.08,86.24,88l8.1,8.13-7,7,5,5,12.41-12.35L86.65,77.62,59.78,104.37l20.45,20.54L59.7,145.35l26.75,26.87,18.15-18.08-12.35-12.4-5,5,7,7-8.13,8.09L71,146.69l21.27-21.18,28.54,28.66Zm105.37-39.64L184.4,125.12,200,109.6l15.52,15.59Zm-12.34-15.58,12.35,12.4,12.4-12.35L200,112.78Zm-136,15.27L36.07,124.81l15.59-15.52,15.51,15.59ZM39.25,124.82l12.35,12.4L64,124.87l-12.35-12.4Z"/><path class="cls-4" d="M125.62,204.12l-24-24.11,24.11-24,24,24.12ZM104.79,180l20.84,20.93,20.93-20.84-20.84-20.93Z"/><path class="cls-4" d="M125.85,93.34l-24-24.11,24.11-24,24,24.12ZM105,69.23l20.84,20.93,20.93-20.84L126,48.39Z"/></g><path class="cls-2" d="M318.65,71.25V85.87h-3.38V74h-2.93V71.25Z"/><path class="cls-2" d="M326.84,71.25V85.87h-3.38V74h-2.93V71.25Z"/><path class="cls-2" d="M337.67,85.65a8,8,0,0,1-2.6-1.22l1.15-2.55A8,8,0,0,0,338.46,83a8.35,8.35,0,0,0,2.59.42,4.19,4.19,0,0,0,2.13-.43,1.28,1.28,0,0,0,.69-1.14,1.1,1.1,0,0,0-.41-.87,3.1,3.1,0,0,0-1-.55c-.43-.14-1-.29-1.73-.46a24,24,0,0,1-2.73-.79,4.48,4.48,0,0,1-1.83-1.28,3.42,3.42,0,0,1-.76-2.34,4.14,4.14,0,0,1,.68-2.31,4.82,4.82,0,0,1,2.09-1.64,8.5,8.5,0,0,1,3.39-.6,11.48,11.48,0,0,1,2.74.33,8.26,8.26,0,0,1,2.34,1l-1.05,2.57a8.21,8.21,0,0,0-4.05-1.15,3.84,3.84,0,0,0-2.1.46,1.42,1.42,0,0,0-.68,1.22,1.17,1.17,0,0,0,.78,1.11,12.1,12.1,0,0,0,2.4.73,22.09,22.09,0,0,1,2.73.79,4.51,4.51,0,0,1,1.83,1.25,3.34,3.34,0,0,1,.76,2.32,4,4,0,0,1-.7,2.29,4.67,4.67,0,0,1-2.1,1.64,8.62,8.62,0,0,1-3.4.6A11.76,11.76,0,0,1,337.67,85.65Z"/><path class="cls-2" d="M352.53,85.14a7.16,7.16,0,0,1-2.86-2.7,7.74,7.74,0,0,1,0-7.75A7.18,7.18,0,0,1,352.53,72a9.07,9.07,0,0,1,8.2,0,7.38,7.38,0,0,1,2.86,2.71,7.45,7.45,0,0,1-2.86,10.45,9.07,9.07,0,0,1-8.2,0Zm6.44-2.5A4.1,4.1,0,0,0,360.61,81a4.8,4.8,0,0,0,.6-2.42,4.85,4.85,0,0,0-.6-2.42A4.16,4.16,0,0,0,359,74.48a4.58,4.58,0,0,0-2.34-.6,4.63,4.63,0,0,0-2.34.6,4.29,4.29,0,0,0-1.64,1.66,5,5,0,0,0-.59,2.42,4.9,4.9,0,0,0,.59,2.42,4.22,4.22,0,0,0,1.64,1.66,4.63,4.63,0,0,0,2.34.6A4.58,4.58,0,0,0,359,82.64Z"/><path class="cls-2" d="M370.14,85.15a7.28,7.28,0,0,1-2.84-2.69,7.83,7.83,0,0,1,0-7.8A7.28,7.28,0,0,1,370.14,72a9.06,9.06,0,0,1,7.5-.3,6.83,6.83,0,0,1,2.58,1.92l-2.17,2a4.66,4.66,0,0,0-3.68-1.72,4.85,4.85,0,0,0-2.42.6,4.14,4.14,0,0,0-1.66,1.66,4.85,4.85,0,0,0-.6,2.42,4.8,4.8,0,0,0,.6,2.42A4.08,4.08,0,0,0,372,82.64a4.85,4.85,0,0,0,2.42.6,4.67,4.67,0,0,0,3.68-1.73l2.17,2a6.73,6.73,0,0,1-2.59,1.94,8.53,8.53,0,0,1-3.45.67A8.35,8.35,0,0,1,370.14,85.15Z"/><path class="cls-2" d="M382.5,71.25h3.38V85.87H382.5Z"/><path class="cls-2" d="M399,82.74h-6.79l-1.29,3.13h-3.47L394,71.25h3.34l6.54,14.62h-3.55Zm-1.06-2.57-2.32-5.6-2.32,5.6Z"/><path class="cls-2" d="M405.35,71.25h3.39V83.12h7.33v2.75H405.35Z"/><path class="cls-2" d="M427.27,74v3.86H434v2.72h-6.77v5.32h-3.39V71.25h11.06V74Z"/><path class="cls-2" d="M440.06,85.14a7.29,7.29,0,0,1-2.86-2.7,7.8,7.8,0,0,1,0-7.75A7.32,7.32,0,0,1,440.06,72a9.09,9.09,0,0,1,8.21,0,7.46,7.46,0,0,1,0,13.16,9.09,9.09,0,0,1-8.21,0Zm6.45-2.5A4.16,4.16,0,0,0,448.15,81a4.8,4.8,0,0,0,.6-2.42,4.85,4.85,0,0,0-.6-2.42,4.22,4.22,0,0,0-1.64-1.66,4.86,4.86,0,0,0-4.68,0,4.22,4.22,0,0,0-1.64,1.66,4.85,4.85,0,0,0-.6,2.42,4.8,4.8,0,0,0,.6,2.42,4.16,4.16,0,0,0,1.64,1.66,4.86,4.86,0,0,0,4.68,0Z"/><path class="cls-2" d="M464,85.87l-2.82-4.07H458.1v4.07h-3.38V71.25h6.33a8,8,0,0,1,3.37.65,5,5,0,0,1,2.21,1.83,5.14,5.14,0,0,1,.77,2.82,4.76,4.76,0,0,1-3,4.62l3.28,4.7Zm-.86-11.21a3.6,3.6,0,0,0-2.32-.65H458.1V79.1h2.76a3.55,3.55,0,0,0,2.32-.66,2.35,2.35,0,0,0,.8-1.89A2.32,2.32,0,0,0,463.18,74.66Z"/><path class="cls-2" d="M481.4,83.16v2.71H470.08V71.25h11.05V74h-7.69v3.17h6.79v2.63h-6.79v3.39Z"/><path class="cls-2" d="M485.55,85.65a7.92,7.92,0,0,1-2.61-1.22l1.16-2.55A7.75,7.75,0,0,0,486.33,83a8.35,8.35,0,0,0,2.59.42,4.19,4.19,0,0,0,2.13-.43,1.28,1.28,0,0,0,.69-1.14,1.07,1.07,0,0,0-.41-.87,3.1,3.1,0,0,0-1-.55c-.43-.14-1-.29-1.72-.46a23.63,23.63,0,0,1-2.74-.79A4.48,4.48,0,0,1,484,77.89a3.42,3.42,0,0,1-.76-2.34,4.07,4.07,0,0,1,.69-2.31A4.73,4.73,0,0,1,486,71.6a8.5,8.5,0,0,1,3.39-.6,11.36,11.36,0,0,1,2.74.33,8.26,8.26,0,0,1,2.34,1l-1.05,2.57a8.21,8.21,0,0,0-4.05-1.15,3.84,3.84,0,0,0-2.1.46,1.42,1.42,0,0,0-.68,1.22,1.17,1.17,0,0,0,.79,1.11,12,12,0,0,0,2.39.73,22.09,22.09,0,0,1,2.73.79,4.44,4.44,0,0,1,1.83,1.25,3.34,3.34,0,0,1,.76,2.32,4,4,0,0,1-.69,2.29,4.75,4.75,0,0,1-2.11,1.64,8.58,8.58,0,0,1-3.4.6A11.69,11.69,0,0,1,485.55,85.65Z"/><path class="cls-2" d="M500.24,74h-4.68V71.25h12.75V74h-4.68V85.87h-3.39Z"/><path class="cls-2" d="M516.87,80.69v5.18h-3.38V80.65l-5.66-9.4h3.59l3.91,6.5,3.91-6.5h3.32Z"/><path class="cls-2" d="M315.94,96.32h3.38v11.87h7.33v2.75H315.94Z"/><path class="cls-2" d="M328.56,96.32h3.38v14.62h-3.38Z"/><path class="cls-2" d="M338.37,110.22a7.24,7.24,0,0,1-2.85-2.69,7.9,7.9,0,0,1,0-7.8A7.24,7.24,0,0,1,338.37,97a8.4,8.4,0,0,1,4.06-1,8.65,8.65,0,0,1,3.44.66,7,7,0,0,1,2.58,1.93l-2.18,2A4.67,4.67,0,0,0,342.6,99a4.86,4.86,0,0,0-2.43.6,4.21,4.21,0,0,0-1.66,1.66,5.26,5.26,0,0,0,0,4.84,4.14,4.14,0,0,0,1.66,1.66,4.86,4.86,0,0,0,2.43.6,4.66,4.66,0,0,0,3.67-1.73l2.18,2a6.73,6.73,0,0,1-2.59,1.94,8.53,8.53,0,0,1-3.45.67A8.35,8.35,0,0,1,338.37,110.22Z"/><path class="cls-2" d="M362.05,108.23v2.71H350.72V96.32h11V99h-7.68v3.17h6.78v2.63h-6.78v3.39Z"/><path class="cls-2" d="M378.15,96.32v14.62h-2.77l-7.3-8.88v8.88h-3.34V96.32h2.8l7.27,8.88V96.32Z"/><path class="cls-2" d="M383.07,110.72a7.86,7.86,0,0,1-2.6-1.22l1.15-2.55a7.82,7.82,0,0,0,2.24,1.11,8.31,8.31,0,0,0,2.59.42,4.19,4.19,0,0,0,2.13-.43,1.28,1.28,0,0,0,.69-1.14,1.1,1.1,0,0,0-.41-.87,3.1,3.1,0,0,0-1-.55c-.43-.14-1-.29-1.73-.46a23.39,23.39,0,0,1-2.73-.79,4.35,4.35,0,0,1-1.83-1.28,3.42,3.42,0,0,1-.77-2.34,4.07,4.07,0,0,1,.69-2.31,4.79,4.79,0,0,1,2.08-1.64,8.58,8.58,0,0,1,3.4-.6,11.33,11.33,0,0,1,2.73.33,8.14,8.14,0,0,1,2.34,1l-1,2.57a8.21,8.21,0,0,0-4-1.15,3.84,3.84,0,0,0-2.1.46,1.42,1.42,0,0,0-.68,1.22,1.17,1.17,0,0,0,.78,1.11,11.43,11.43,0,0,0,2.39.72,23.4,23.4,0,0,1,2.74.8,4.51,4.51,0,0,1,1.83,1.25,3.34,3.34,0,0,1,.76,2.32,4,4,0,0,1-.7,2.29,4.72,4.72,0,0,1-2.1,1.64,8.62,8.62,0,0,1-3.4.6A11.76,11.76,0,0,1,383.07,110.72Z"/><path class="cls-2" d="M406.28,108.23v2.71H395V96.32H406V99h-7.68v3.17h6.78v2.63h-6.78v3.39Z"/><path class="cls-2" d="M428.29,96.32v14.62h-3.38v-6h-6.64v6h-3.39V96.32h3.39v5.77h6.64V96.32Z"/><path class="cls-2" d="M434.74,110.21a7.18,7.18,0,0,1-2.86-2.71,7.45,7.45,0,0,1,2.86-10.45,9.07,9.07,0,0,1,8.2,0,7.32,7.32,0,0,1,3.91,6.58,7.35,7.35,0,0,1-3.91,6.58,9.07,9.07,0,0,1-8.2,0Zm6.45-2.5a4.22,4.22,0,0,0,1.64-1.66,5.26,5.26,0,0,0,0-4.84,4.29,4.29,0,0,0-1.64-1.66,4.63,4.63,0,0,0-2.34-.6,4.58,4.58,0,0,0-2.34.6,4.25,4.25,0,0,0-1.65,1.66,5.26,5.26,0,0,0,0,4.84,4.18,4.18,0,0,0,1.65,1.66,4.58,4.58,0,0,0,2.34.6A4.63,4.63,0,0,0,441.19,107.71Z"/><path class="cls-2" d="M449.4,96.32h3.38v11.87h7.33v2.75H449.4Z"/><path class="cls-2" d="M462,96.32h6.65a9.28,9.28,0,0,1,4.21.91,6.79,6.79,0,0,1,2.84,2.56,7.8,7.8,0,0,1,0,7.68,6.72,6.72,0,0,1-2.84,2.56,9.28,9.28,0,0,1-4.21.91H462Zm6.48,11.84a4.9,4.9,0,0,0,3.5-1.22,4.84,4.84,0,0,0,0-6.62,4.9,4.9,0,0,0-3.5-1.22H465.4v9.06Z"/><path class="cls-2" d="M490.59,108.23v2.71H479.27V96.32h11.05V99h-7.69v3.17h6.79v2.63h-6.79v3.39Z"/><path class="cls-2" d="M502.61,110.94l-2.82-4.07h-3.12v4.07h-3.38V96.32h6.33A8,8,0,0,1,503,97a5,5,0,0,1,2.21,1.83,5.14,5.14,0,0,1,.77,2.82,5,5,0,0,1-.78,2.81,5,5,0,0,1-2.23,1.81l3.28,4.7Zm-.86-11.21a3.6,3.6,0,0,0-2.32-.65h-2.76v5.09h2.76a3.55,3.55,0,0,0,2.32-.66,2.34,2.34,0,0,0,.79-1.89A2.31,2.31,0,0,0,501.75,99.73Z"/><path class="cls-2" d="M510.1,110.72a7.92,7.92,0,0,1-2.61-1.22l1.15-2.55a8,8,0,0,0,2.24,1.11,8.35,8.35,0,0,0,2.59.42,4.19,4.19,0,0,0,2.13-.43,1.28,1.28,0,0,0,.69-1.14,1.07,1.07,0,0,0-.41-.87,3.1,3.1,0,0,0-1-.55c-.43-.14-1-.29-1.72-.46a23.63,23.63,0,0,1-2.74-.79,4.48,4.48,0,0,1-1.83-1.28,3.42,3.42,0,0,1-.76-2.34,4.07,4.07,0,0,1,.69-2.31,4.73,4.73,0,0,1,2.08-1.64,8.5,8.5,0,0,1,3.39-.6,11.42,11.42,0,0,1,2.74.33,8.26,8.26,0,0,1,2.34,1l-1,2.57a8.21,8.21,0,0,0-4.05-1.15,3.84,3.84,0,0,0-2.1.46,1.42,1.42,0,0,0-.68,1.22,1.17,1.17,0,0,0,.78,1.11,11.76,11.76,0,0,0,2.4.72,23.76,23.76,0,0,1,2.73.8,4.51,4.51,0,0,1,1.83,1.25,3.34,3.34,0,0,1,.76,2.32A4.06,4.06,0,0,1,519,109a4.75,4.75,0,0,1-2.11,1.64,8.58,8.58,0,0,1-3.4.6A11.64,11.64,0,0,1,510.1,110.72Z"/><path class="cls-2" d="M382.67,49.8a4.48,4.48,0,0,1,1.82,1.6,4.33,4.33,0,0,1,.66,2.39,4.55,4.55,0,0,1-.73,2.57,4.73,4.73,0,0,1-2,1.7,6.46,6.46,0,0,1-2.81.6,6.24,6.24,0,0,1-4.81-1.88,7.69,7.69,0,0,1-1.73-5.37,8.93,8.93,0,0,1,.94-4.26,6.38,6.38,0,0,1,2.62-2.7,8,8,0,0,1,3.9-.92,9.67,9.67,0,0,1,2.24.26,5.89,5.89,0,0,1,1.83.75L383.36,47a4.8,4.8,0,0,0-2.74-.73,3.94,3.94,0,0,0-2.94,1.09,4.47,4.47,0,0,0-1.17,3.15,4.88,4.88,0,0,1,3.61-1.29A5.68,5.68,0,0,1,382.67,49.8Zm-1.47,5.74a2,2,0,0,0,.67-1.58,2,2,0,0,0-.67-1.6,3,3,0,0,0-3.63,0,2,2,0,0,0-.71,1.58,2,2,0,0,0,.69,1.56,2.73,2.73,0,0,0,1.88.61A2.59,2.59,0,0,0,381.2,55.54Z"/><path class="cls-2" d="M396,50.51a4.08,4.08,0,0,1,1.47,3.3,4.54,4.54,0,0,1-.67,2.43,4.62,4.62,0,0,1-2,1.76,7.73,7.73,0,0,1-3.37.66,11.6,11.6,0,0,1-3-.41,7.83,7.83,0,0,1-2.54-1.16l1.34-2.59a6.42,6.42,0,0,0,1.92,1,7.32,7.32,0,0,0,2.23.35,3.56,3.56,0,0,0,2-.5,1.61,1.61,0,0,0,.73-1.4,1.58,1.58,0,0,0-.76-1.43,5.27,5.27,0,0,0-2.64-.48h-3.74l.75-8.23h8.92V46.5h-6.1l-.23,2.78h1.19A7.07,7.07,0,0,1,396,50.51Z"/><path class="cls-2" d="M407.1,58.19A8.07,8.07,0,0,1,404.5,57l1.15-2.55a7.87,7.87,0,0,0,2.23,1.1,8.42,8.42,0,0,0,2.6.42,4.09,4.09,0,0,0,2.13-.43,1.28,1.28,0,0,0,.69-1.14,1.08,1.08,0,0,0-.41-.86,3.07,3.07,0,0,0-1.05-.56c-.42-.14-1-.29-1.72-.46a24.23,24.23,0,0,1-2.74-.79,4.36,4.36,0,0,1-1.82-1.27,3.45,3.45,0,0,1-.77-2.34,4.07,4.07,0,0,1,.69-2.31,4.59,4.59,0,0,1,2.08-1.64,8.4,8.4,0,0,1,3.4-.61,11.33,11.33,0,0,1,2.73.33,8.27,8.27,0,0,1,2.34,1l-1,2.57a8.1,8.1,0,0,0-4.05-1.15,3.76,3.76,0,0,0-2.1.46,1.38,1.38,0,0,0-.68,1.21,1.19,1.19,0,0,0,.78,1.12,12.79,12.79,0,0,0,2.39.72,23.63,23.63,0,0,1,2.74.79,4.61,4.61,0,0,1,1.83,1.25,3.41,3.41,0,0,1,.76,2.32,4,4,0,0,1-.7,2.29,4.71,4.71,0,0,1-2.1,1.64,8.63,8.63,0,0,1-3.41.61A12.1,12.1,0,0,1,407.1,58.19Z"/><path class="cls-2" d="M432.29,58.41l0-8.78L428,56.86h-1.52l-4.29-7v8.59H419V43.78h2.8l5.47,9.09,5.39-9.09h2.78l0,14.63Z"/><path class="cls-2" d="M450.25,55.69v2.72H438.93V43.78H450V46.5h-7.69v3.17h6.79v2.64h-6.79v3.38Z"/><path class="cls-2" d="M453.68,58.23a7.12,7.12,0,0,1-2.13-.87L452.63,55a7.12,7.12,0,0,0,1.82.79,7.7,7.7,0,0,0,2.09.3c1.38,0,2.07-.34,2.07-1,0-.32-.19-.54-.56-.69a9.46,9.46,0,0,0-1.74-.35,17.08,17.08,0,0,1-2.28-.48,3.55,3.55,0,0,1-1.55-1,2.73,2.73,0,0,1-.66-2,3,3,0,0,1,.62-1.9,4,4,0,0,1,1.79-1.28A7.62,7.62,0,0,1,457,47a11.24,11.24,0,0,1,2.37.26,6.48,6.48,0,0,1,2,.72l-1.09,2.32a6.46,6.46,0,0,0-3.24-.83,3.18,3.18,0,0,0-1.56.29.85.85,0,0,0-.53.75.75.75,0,0,0,.57.73,10.08,10.08,0,0,0,1.79.4,17.79,17.79,0,0,1,2.26.49,3.35,3.35,0,0,1,1.52.95,2.66,2.66,0,0,1,.65,1.92,3,3,0,0,1-.62,1.86,4,4,0,0,1-1.83,1.26,8.12,8.12,0,0,1-2.85.45A10.88,10.88,0,0,1,453.68,58.23Z"/><path class="cls-4" d="M134.17,81.31c.39.32.81.61,1.17,1,4,4,8.08,8.09,12.14,12.11a2.73,2.73,0,0,1,.88,2.11c0,2.67,0,5.34,0,8.07h-2.89V97.34h-11c-1.67,0-2.1-.44-2.1-2.14V84.26H90.17l-.08,1.36H87.24a23.25,23.25,0,0,1,.05-3.13c.06-.43.64-.79,1-1.18Zm1.12,5.2v7.84h7.85Z"/><path class="cls-4" d="M136.56,124.25c2.44-2.58,4.8-5,7.11-7.54a1.88,1.88,0,0,0,.34-1.09,10.19,10.19,0,1,1,11.08,10.76,2.9,2.9,0,0,0-1.93.88c-2.08,2-4.2,4-6.31,6a4.71,4.71,0,0,1-.59.43l5,5v-6.3h2.93v34.26c0,1.65-.42,2.06-2.07,2.06H94.54V165.8H151.2V143.21c-.31.28-.53.48-.74.69q-5.44,5.41-10.87,10.85c-1.13,1.13-1.73,1.13-2.86,0L117.18,135.2c-1.15-1.15-1.15-1.77,0-2.92L129.42,120c1.17-1.17,1.75-1.17,2.93,0Zm3.17,11.69a1.21,1.21,0,0,0,.2-.14c3.82-3.62,7.66-7.21,11.44-10.87a4.65,4.65,0,0,1,3.27-1.46,7.25,7.25,0,1,0-1.85-14.35,7.1,7.1,0,0,0-5.83,6.82,4.14,4.14,0,0,1-1.31,3c-3.58,3.7-7.1,7.46-10.64,11.19-.2.22-.39.46-.51.6Zm4.27,0c-1,1-2.07,2-3.13,2.95s-1.63.87-2.56-.06l-6.7-6.69c-1-1-1-1.63,0-2.69l2.79-3-3.57-3.59-6.39,6.37,18.14,18.15L149,141Zm-3.64,13.83-18.14-18.16-2.11,2,18.14,18.18Z"/><path class="cls-4" d="M87.25,85.62h2.86v74.29h55.31v-8.63h2.87c0,.24.05.48.05.73,0,3,0,6,0,9,0,1.3-.51,1.82-1.8,1.82H89.05c-1.32,0-1.83-.49-1.83-1.78q0-17.7,0-35.4C87.21,125.5,87.23,85.87,87.25,85.62Z"/><path class="cls-4" d="M120.65,141v2.87h-7.19v8.73h17.36v2.9c-.29,0-.56,0-.84,0H112.5c-1.58,0-2-.45-2-2V143c0-1.54.46-2,2-2Z"/><path class="cls-4" d="M154.15,103.11h-2.89v-13H147v-2.9c2,0,4,0,5.94,0a1.23,1.23,0,0,1,1.22,1.31C154.16,93.35,154.15,98.2,154.15,103.11Z"/><path class="cls-4" d="M96,117.75h30.42v2.81H96Z"/><path class="cls-4" d="M113.35,129.45v2.79H96v-2.79Z"/><path class="cls-4" d="M104.69,126.41v-2.8h14.46v2.8Z"/><path class="cls-4" d="M96,113.31v-2.8h32v2.8Z"/><path class="cls-4" d="M107.53,141.09v2.79H96v-2.79Z"/><path class="cls-4" d="M96,149.7v-2.81h11.54v2.81Z"/><path class="cls-4" d="M107.53,152.7v2.81H96V152.7Z"/><path class="cls-4" d="M125,146.9v2.79h-8.65V146.9Z"/><path class="cls-4" d="M104.62,135.27v2.8H96v-2.8Z"/><path class="cls-4" d="M96,123.6h5.73v2.81H96Z"/><path class="cls-4" d="M107.6,138.07v-2.79h5.73v2.79Z"/><path class="cls-4" d="M117.71,105.77a1,1,0,0,1-.69-.27,3.7,3.7,0,0,0-.29-.24,3.1,3.1,0,0,1-.77-.83c-.27-.46-.41-.49-.84-.37a2.09,2.09,0,0,1-2.14-.38,2.13,2.13,0,0,1-.48-2.19c.13-.55.13-.55-.42-.89a2.11,2.11,0,0,1-1.14-1.79A2.16,2.16,0,0,1,112.1,97a1.54,1.54,0,0,0,.45-.34,1.85,1.85,0,0,0-.09-.64,2.14,2.14,0,0,1,.46-2,2.1,2.1,0,0,1,2-.54,6,6,0,0,0,.74.1c.1-.11.31-.43.39-.55a2.13,2.13,0,0,1,1.75-1h0A2.12,2.12,0,0,1,119.54,93a2.68,2.68,0,0,0,.39.53,3.37,3.37,0,0,0,.65-.1,2.17,2.17,0,0,1,2,.52,2.12,2.12,0,0,1,.44,2,1.64,1.64,0,0,0-.08.59,1.55,1.55,0,0,0,.47.37,2.11,2.11,0,0,1,1.15,1.8,2.14,2.14,0,0,1-1.17,1.81c-.39.24-.44.34-.44.34a1.49,1.49,0,0,0,.09.63,2.16,2.16,0,0,1-.54,2.12,2,2,0,0,1-2,.4c-.58-.18-.76-.1-1.06.46a2.2,2.2,0,0,1-.92.84l-.3.19A1,1,0,0,1,117.71,105.77ZM115.45,102a2.48,2.48,0,0,1,2.24,1.43l.1.09a2.65,2.65,0,0,1,3.37-1.35h0a.74.74,0,0,0,0-.12,2.44,2.44,0,0,1,1.24-3.15l.16-.11-.14-.1a2.47,2.47,0,0,1-1.28-3.13.44.44,0,0,0,0-.14l-.16,0a2.44,2.44,0,0,1-3.14-1.32l-.08-.11-.07.09c-.92,1.43-1.46,1.65-3.18,1.33h-.12a.74.74,0,0,0,0,.12,2.45,2.45,0,0,1-1.25,3.14l-.16.12.14.1a2.44,2.44,0,0,1,1.3,3c0,.09,0,.16,0,.22l.16,0A3.52,3.52,0,0,1,115.45,102Z"/></svg>