<svg id="Layer_1" data-name="Layer 1" xmlns="http://www.w3.org/2000/svg" viewBox="0 0 654 250"><defs><style>.cls-1{fill:#f26e25;}.cls-2{opacity:0.15;}.cls-3{fill:#fff;}.cls-4{fill:none;stroke:#f26e25;stroke-miterlimit:10;}</style></defs><path d="M305.78,135.63A.92.92,0,0,1,306,135a1,1,0,0,1,1.35,0,.92.92,0,0,1,.23.63.81.81,0,0,1-.91.86.89.89,0,0,1-.67-.24A.9.9,0,0,1,305.78,135.63Zm1.65,11.3h-1.52V138h1.52Z"/><path d="M311.32,138l.05,1.12a3.27,3.27,0,0,1,2.68-1.29q2.83,0,2.86,3.2v5.9h-1.53V141a2.09,2.09,0,0,0-.44-1.43,1.77,1.77,0,0,0-1.35-.46,2.19,2.19,0,0,0-1.31.4,2.69,2.69,0,0,0-.87,1v6.36h-1.53V138Z"/><path d="M322.79,145.85a2.2,2.2,0,0,0,1.43-.49,1.79,1.79,0,0,0,.68-1.24h1.44a2.73,2.73,0,0,1-.52,1.46,3.45,3.45,0,0,1-1.31,1.1,3.94,3.94,0,0,1-4.62-.8,4.83,4.83,0,0,1-1.08-3.33v-.26a5.38,5.38,0,0,1,.48-2.32,3.67,3.67,0,0,1,1.38-1.58,3.91,3.91,0,0,1,2.11-.56,3.57,3.57,0,0,1,2.5.9,3.18,3.18,0,0,1,1.06,2.34H324.9a2.09,2.09,0,0,0-.66-1.42,2,2,0,0,0-1.46-.56,2.14,2.14,0,0,0-1.8.84,3.88,3.88,0,0,0-.64,2.42v.29A3.83,3.83,0,0,0,321,145,2.15,2.15,0,0,0,322.79,145.85Z"/><path d="M329.72,146.93h-1.53V134.25h1.53Z"/><path d="M337.68,146.05a3.24,3.24,0,0,1-2.62,1,2.78,2.78,0,0,1-2.17-.83,3.62,3.62,0,0,1-.76-2.46V138h1.53v5.77c0,1.35.55,2,1.65,2a2.28,2.28,0,0,0,2.33-1.3V138h1.53v8.93h-1.46Z"/><path d="M341.12,142.39a5.25,5.25,0,0,1,1-3.31,3.31,3.31,0,0,1,5-.17v-4.66h1.53v12.68h-1.41l-.07-1a3.3,3.3,0,0,1-5.09-.14,5.32,5.32,0,0,1-1-3.32Zm1.52.17a3.94,3.94,0,0,0,.63,2.38,2,2,0,0,0,1.74.86,2.23,2.23,0,0,0,2.12-1.3v-4.11a2.25,2.25,0,0,0-2.11-1.26,2,2,0,0,0-1.75.87A4.31,4.31,0,0,0,342.64,142.56Z"/><path d="M351,135.63a.92.92,0,0,1,.23-.63,1,1,0,0,1,1.35,0,.88.88,0,0,1,.23.63.85.85,0,0,1-.23.62.89.89,0,0,1-.68.24.89.89,0,0,1-.67-.24A.9.9,0,0,1,351,135.63Zm1.66,11.3h-1.53V138h1.53Z"/><path d="M356.57,138l.05,1.12a3.27,3.27,0,0,1,2.68-1.29q2.83,0,2.86,3.2v5.9h-1.53V141a2.09,2.09,0,0,0-.44-1.43,1.77,1.77,0,0,0-1.35-.46,2.19,2.19,0,0,0-1.31.4,2.69,2.69,0,0,0-.87,1v6.36h-1.53V138Z"/><path d="M364.1,142.39a5.26,5.26,0,0,1,1-3.32,3.32,3.32,0,0,1,5.11-.08l.08-1h1.39v8.72a3.66,3.66,0,0,1-1,2.73,3.8,3.8,0,0,1-2.77,1A4.7,4.7,0,0,1,366,150a3.42,3.42,0,0,1-1.41-1.13l.79-.92a3,3,0,0,0,2.41,1.21,2.39,2.39,0,0,0,1.74-.62,2.43,2.43,0,0,0,.62-1.77V146a3.13,3.13,0,0,1-2.5,1.06,3,3,0,0,1-2.54-1.27A5.49,5.49,0,0,1,364.1,142.39Zm1.53.17a4.05,4.05,0,0,0,.62,2.38,2,2,0,0,0,1.74.86,2.24,2.24,0,0,0,2.12-1.31v-4.08a2.27,2.27,0,0,0-2.11-1.28,2,2,0,0,0-1.74.87A4.31,4.31,0,0,0,365.63,142.56Z"/><path d="M387.61,146.93H386v-5.55H380v5.55h-1.59v-12H380v5.17H386v-5.17h1.59Z"/><path d="M394.84,142.07H392v4.86h-1.6v-12h4a4.75,4.75,0,0,1,3.13.92,3.34,3.34,0,0,1,1.09,2.7,3.23,3.23,0,0,1-.6,1.95,3.67,3.67,0,0,1-1.69,1.25l2.82,5.1v.1h-1.7Zm-2.82-1.3h2.43a2.74,2.74,0,0,0,1.88-.61,2.05,2.05,0,0,0,.7-1.64,2.17,2.17,0,0,0-.67-1.71,2.76,2.76,0,0,0-1.92-.6H392Z"/><path d="M406.23,138l0,1a3.3,3.3,0,0,1,2.65-1.16,2.55,2.55,0,0,1,2.55,1.44,3.33,3.33,0,0,1,1.16-1,3.38,3.38,0,0,1,1.69-.4c2,0,2.95,1,3,3.12v6h-1.53V141a2.08,2.08,0,0,0-.44-1.44,2,2,0,0,0-1.47-.47,2,2,0,0,0-1.41.51,2.07,2.07,0,0,0-.65,1.36v5.93h-1.54v-5.85a1.7,1.7,0,0,0-1.91-2,2,2,0,0,0-2.05,1.28v6.52h-1.53V138Z"/><path d="M425.13,146.93a3.22,3.22,0,0,1-.22-.94,3.39,3.39,0,0,1-2.54,1.11,3.16,3.16,0,0,1-2.17-.75,2.43,2.43,0,0,1-.84-1.89,2.51,2.51,0,0,1,1.06-2.17,4.94,4.94,0,0,1,3-.77h1.49v-.71a1.7,1.7,0,0,0-.48-1.27,1.91,1.91,0,0,0-1.41-.48,2.19,2.19,0,0,0-1.37.42,1.2,1.2,0,0,0-.56,1h-1.53a2.16,2.16,0,0,1,.47-1.3,3.31,3.31,0,0,1,1.29-1,4.22,4.22,0,0,1,1.79-.37,3.57,3.57,0,0,1,2.42.77,2.85,2.85,0,0,1,.91,2.13v4.11a5,5,0,0,0,.31,2v.13Zm-2.54-1.16a2.79,2.79,0,0,0,1.37-.37,2.28,2.28,0,0,0,.93-1V142.6h-1.2c-1.87,0-2.81.55-2.81,1.64a1.38,1.38,0,0,0,.48,1.12A1.84,1.84,0,0,0,422.59,145.77Z"/><path d="M430.26,138l0,1.12a3.27,3.27,0,0,1,2.68-1.29q2.83,0,2.86,3.2v5.9h-1.53V141a2.09,2.09,0,0,0-.44-1.43,1.77,1.77,0,0,0-1.35-.46,2.19,2.19,0,0,0-1.31.4,2.69,2.69,0,0,0-.87,1v6.36h-1.53V138Z"/><path d="M443.66,146.93a3.22,3.22,0,0,1-.22-.94,3.39,3.39,0,0,1-2.54,1.11,3.16,3.16,0,0,1-2.17-.75,2.43,2.43,0,0,1-.84-1.89,2.51,2.51,0,0,1,1.06-2.17,4.94,4.94,0,0,1,3-.77h1.49v-.71a1.7,1.7,0,0,0-.48-1.27,1.91,1.91,0,0,0-1.41-.48,2.19,2.19,0,0,0-1.37.42,1.2,1.2,0,0,0-.56,1h-1.53a2.16,2.16,0,0,1,.47-1.3,3.31,3.31,0,0,1,1.29-1,4.22,4.22,0,0,1,1.79-.37,3.57,3.57,0,0,1,2.42.77,2.85,2.85,0,0,1,.91,2.13v4.11a5,5,0,0,0,.31,2v.13Zm-2.54-1.16a2.79,2.79,0,0,0,1.37-.37,2.28,2.28,0,0,0,.93-1V142.6h-1.2c-1.87,0-2.81.55-2.81,1.64a1.38,1.38,0,0,0,.48,1.12A1.84,1.84,0,0,0,441.12,145.77Z"/><path d="M447,142.39a5.26,5.26,0,0,1,1-3.32,3.32,3.32,0,0,1,5.11-.08l.08-1h1.39v8.72a3.66,3.66,0,0,1-1,2.73,3.8,3.8,0,0,1-2.77,1,4.7,4.7,0,0,1-1.89-.41,3.42,3.42,0,0,1-1.41-1.13l.79-.92a3,3,0,0,0,2.41,1.21,2.35,2.35,0,0,0,1.73-.62,2.39,2.39,0,0,0,.63-1.77V146a3.13,3.13,0,0,1-2.5,1.06,3,3,0,0,1-2.54-1.27A5.49,5.49,0,0,1,447,142.39Zm1.53.17a4.05,4.05,0,0,0,.62,2.38,2,2,0,0,0,1.74.86,2.24,2.24,0,0,0,2.12-1.31v-4.08a2.27,2.27,0,0,0-2.11-1.28,2,2,0,0,0-1.74.87A4.31,4.31,0,0,0,448.51,142.56Z"/><path d="M460.53,147.1a3.88,3.88,0,0,1-2.95-1.2,4.42,4.42,0,0,1-1.14-3.19v-.28a5.32,5.32,0,0,1,.51-2.37,4,4,0,0,1,1.42-1.64,3.61,3.61,0,0,1,2-.59,3.34,3.34,0,0,1,2.7,1.15,5,5,0,0,1,1,3.29v.63h-6a3.19,3.19,0,0,0,.77,2.14,2.43,2.43,0,0,0,1.88.81,2.67,2.67,0,0,0,1.37-.33,3.51,3.51,0,0,0,1-.87l.93.72A3.75,3.75,0,0,1,460.53,147.1Zm-.18-8a2,2,0,0,0-1.56.67,3.27,3.27,0,0,0-.77,1.89h4.47v-.12a2.84,2.84,0,0,0-.63-1.8A1.89,1.89,0,0,0,460.35,139.09Z"/><path d="M470.11,139.37a4.59,4.59,0,0,0-.76-.06,2,2,0,0,0-2,1.28v6.34h-1.53V138h1.48l0,1a2.38,2.38,0,0,1,2.13-1.2,1.53,1.53,0,0,1,.68.12Z"/><path d="M476.71,144.56a1.12,1.12,0,0,0-.46-1,4.68,4.68,0,0,0-1.63-.59,7.81,7.81,0,0,1-1.84-.59,2.68,2.68,0,0,1-1-.83,2,2,0,0,1-.33-1.14,2.33,2.33,0,0,1,.93-1.86,4.17,4.17,0,0,1,4.84,0,2.49,2.49,0,0,1,1,2h-1.54a1.4,1.4,0,0,0-.53-1.08,2,2,0,0,0-1.34-.45,2.12,2.12,0,0,0-1.31.36,1.15,1.15,0,0,0-.47,1,.92.92,0,0,0,.44.83,5.26,5.26,0,0,0,1.58.54,8.5,8.5,0,0,1,1.85.61,2.67,2.67,0,0,1,1.06.86,2.16,2.16,0,0,1,.34,1.22,2.28,2.28,0,0,1-1,1.91,4,4,0,0,1-2.48.73,4.54,4.54,0,0,1-1.9-.38,3.26,3.26,0,0,1-1.3-1.06,2.59,2.59,0,0,1-.46-1.48h1.53a1.57,1.57,0,0,0,.61,1.22,2.39,2.39,0,0,0,1.52.45,2.51,2.51,0,0,0,1.39-.35A1.07,1.07,0,0,0,476.71,144.56Z"/><path d="M480.18,149.33l-.87-.6a3.94,3.94,0,0,0,.81-2.23v-1.38h1.5v1.2a3.81,3.81,0,0,1-.41,1.67A3.93,3.93,0,0,1,480.18,149.33Z"/><path d="M247.07,162.86a5.34,5.34,0,0,1-.93,3.28,3,3,0,0,1-2.53,1.25,3.29,3.29,0,0,1-2.56-1v4.3h-1.52V158.29h1.39l.08,1a3.13,3.13,0,0,1,2.59-1.15,3.06,3.06,0,0,1,2.55,1.21,5.45,5.45,0,0,1,.93,3.38Zm-1.52-.18a3.93,3.93,0,0,0-.65-2.38,2.07,2.07,0,0,0-1.77-.88,2.26,2.26,0,0,0-2.08,1.23v4.27a2.25,2.25,0,0,0,2.1,1.22,2.08,2.08,0,0,0,1.75-.87A4.32,4.32,0,0,0,245.55,162.68Z"/><path d="M254.53,167.23a3.06,3.06,0,0,1-.21-.95,3.43,3.43,0,0,1-2.55,1.11,3.16,3.16,0,0,1-2.17-.75,2.41,2.41,0,0,1-.84-1.89,2.53,2.53,0,0,1,1.06-2.17,5,5,0,0,1,3-.77h1.49v-.7a1.72,1.72,0,0,0-.48-1.28,1.91,1.91,0,0,0-1.41-.47,2.19,2.19,0,0,0-1.37.41,1.21,1.21,0,0,0-.55,1h-1.54a2.11,2.11,0,0,1,.47-1.29,3.23,3.23,0,0,1,1.29-1,4.4,4.4,0,0,1,1.79-.36,3.5,3.5,0,0,1,2.42.77,2.77,2.77,0,0,1,.91,2.12v4.12a5,5,0,0,0,.31,2v.14ZM252,166.06a2.68,2.68,0,0,0,1.36-.37,2.22,2.22,0,0,0,.93-1v-1.83h-1.2c-1.87,0-2.8.55-2.8,1.64a1.4,1.4,0,0,0,.47,1.13A1.85,1.85,0,0,0,252,166.06Z"/><path d="M262.53,159.66a4.38,4.38,0,0,0-.75-.06,2,2,0,0,0-2,1.28v6.35h-1.53v-8.94h1.49l0,1a2.39,2.39,0,0,1,2.13-1.19,1.52,1.52,0,0,1,.68.11Z"/><path d="M266.42,156.13v2.16h1.67v1.18h-1.67V165a1.24,1.24,0,0,0,.22.81,1,1,0,0,0,.76.26,4.06,4.06,0,0,0,.73-.09v1.23a4.39,4.39,0,0,1-1.17.16,1.92,1.92,0,0,1-1.55-.62,2.7,2.7,0,0,1-.52-1.76v-5.54h-1.62v-1.18h1.62v-2.16Z"/><path d="M269.88,155.92a.92.92,0,0,1,.23-.63.84.84,0,0,1,.67-.25.88.88,0,0,1,.68.25.92.92,0,0,1,.23.63.83.83,0,0,1-.91.87.84.84,0,0,1-.67-.25A.88.88,0,0,1,269.88,155.92Zm1.65,11.31H270v-8.94h1.53Z"/><path d="M277.56,166.14a2.22,2.22,0,0,0,1.43-.49,1.75,1.75,0,0,0,.68-1.24h1.44a2.74,2.74,0,0,1-.53,1.46,3.53,3.53,0,0,1-1.3,1.11,3.82,3.82,0,0,1-1.72.41,3.68,3.68,0,0,1-2.9-1.22,4.83,4.83,0,0,1-1.08-3.33v-.25a5.42,5.42,0,0,1,.48-2.33,3.69,3.69,0,0,1,1.37-1.57,3.88,3.88,0,0,1,2.12-.56,3.59,3.59,0,0,1,2.5.9,3.21,3.21,0,0,1,1.06,2.33h-1.44a2.15,2.15,0,0,0-.66-1.42,2.06,2.06,0,0,0-1.46-.56,2.13,2.13,0,0,0-1.8.84,3.92,3.92,0,0,0-.64,2.42v.29a3.9,3.9,0,0,0,.63,2.38A2.15,2.15,0,0,0,277.56,166.14Z"/><path d="M282.84,155.92a.91.91,0,0,1,.22-.63.86.86,0,0,1,.68-.25.85.85,0,0,1,.67.25.88.88,0,0,1,.23.63.84.84,0,0,1-.23.62.85.85,0,0,1-.67.25.86.86,0,0,1-.68-.25A.87.87,0,0,1,282.84,155.92Zm1.65,11.31H283v-8.94h1.53Z"/><path d="M294.48,162.86a5.34,5.34,0,0,1-.93,3.28,3,3,0,0,1-2.53,1.25,3.26,3.26,0,0,1-2.56-1v4.3h-1.53V158.29h1.4l.07,1a3.14,3.14,0,0,1,2.59-1.15,3,3,0,0,1,2.55,1.21,5.39,5.39,0,0,1,.94,3.38Zm-1.53-.18a3.93,3.93,0,0,0-.64-2.38,2.07,2.07,0,0,0-1.77-.88,2.24,2.24,0,0,0-2.08,1.23v4.27a2.24,2.24,0,0,0,2.1,1.22,2.05,2.05,0,0,0,1.74-.87A4.25,4.25,0,0,0,293,162.68Z"/><path d="M301.94,167.23a3.31,3.31,0,0,1-.22-.95,3.4,3.4,0,0,1-2.54,1.11,3.15,3.15,0,0,1-2.17-.75,2.42,2.42,0,0,1-.85-1.89,2.55,2.55,0,0,1,1.06-2.17,5.06,5.06,0,0,1,3-.77h1.49v-.7a1.72,1.72,0,0,0-.48-1.28,1.91,1.91,0,0,0-1.41-.47,2.22,2.22,0,0,0-1.38.41,1.23,1.23,0,0,0-.55,1h-1.53a2.05,2.05,0,0,1,.47-1.29,3.23,3.23,0,0,1,1.29-1,4.37,4.37,0,0,1,1.79-.36,3.52,3.52,0,0,1,2.42.77,2.77,2.77,0,0,1,.9,2.12v4.12a5,5,0,0,0,.32,2v.14Zm-2.54-1.17a2.65,2.65,0,0,0,1.36-.37,2.3,2.3,0,0,0,.94-1v-1.83h-1.2c-1.87,0-2.81.55-2.81,1.64a1.4,1.4,0,0,0,.48,1.13A1.84,1.84,0,0,0,299.4,166.06Z"/><path d="M307.69,156.13v2.16h1.67v1.18h-1.67V165a1.3,1.3,0,0,0,.22.81,1,1,0,0,0,.76.26,4.06,4.06,0,0,0,.73-.09v1.23a4.39,4.39,0,0,1-1.17.16,1.92,1.92,0,0,1-1.55-.62,2.7,2.7,0,0,1-.52-1.76v-5.54h-1.62v-1.18h1.62v-2.16Z"/><path d="M314.85,167.39a3.93,3.93,0,0,1-3-1.19,4.43,4.43,0,0,1-1.14-3.19v-.28a5.37,5.37,0,0,1,.51-2.38,4,4,0,0,1,1.42-1.63,3.53,3.53,0,0,1,2-.59,3.37,3.37,0,0,1,2.71,1.14,5,5,0,0,1,1,3.29v.64h-6.06a3.16,3.16,0,0,0,.77,2.13,2.44,2.44,0,0,0,1.88.81,2.65,2.65,0,0,0,1.37-.33,3.41,3.41,0,0,0,1-.87l.93.73A3.75,3.75,0,0,1,314.85,167.39Zm-.19-8a2.06,2.06,0,0,0-1.55.67,3.28,3.28,0,0,0-.78,1.89h4.48v-.11a3,3,0,0,0-.63-1.81A1.9,1.9,0,0,0,314.66,159.38Z"/><path d="M319.73,162.68a5.2,5.2,0,0,1,1-3.3,3.32,3.32,0,0,1,5-.18v-4.66h1.53v12.69h-1.41l-.07-1a3.1,3.1,0,0,1-2.55,1.12,3,3,0,0,1-2.53-1.27,5.3,5.3,0,0,1-1-3.32Zm1.53.18a4,4,0,0,0,.63,2.38,2,2,0,0,0,1.73.85,2.21,2.21,0,0,0,2.12-1.3v-4.1a2.24,2.24,0,0,0-2.1-1.27,2,2,0,0,0-1.75.87A4.35,4.35,0,0,0,321.26,162.86Z"/><path d="M333.83,155.92a.92.92,0,0,1,.23-.63.85.85,0,0,1,.67-.25.86.86,0,0,1,.68.25.88.88,0,0,1,.23.63.84.84,0,0,1-.23.62.86.86,0,0,1-.68.25.85.85,0,0,1-.67-.25A.88.88,0,0,1,333.83,155.92Zm1.66,11.31H334v-8.94h1.53Z"/><path d="M339.37,158.29l.05,1.12a3.29,3.29,0,0,1,2.68-1.28q2.83,0,2.86,3.19v5.91h-1.53v-5.92a2.09,2.09,0,0,0-.44-1.43,1.8,1.8,0,0,0-1.35-.46,2.19,2.19,0,0,0-1.31.4,2.69,2.69,0,0,0-.87,1v6.37h-1.53v-8.94Z"/><path d="M355,166.14a2.2,2.2,0,0,0,1.43-.49,1.75,1.75,0,0,0,.68-1.24h1.44a2.74,2.74,0,0,1-.53,1.46,3.45,3.45,0,0,1-1.3,1.11,3.79,3.79,0,0,1-1.72.41,3.68,3.68,0,0,1-2.9-1.22,4.83,4.83,0,0,1-1.08-3.33v-.25a5.42,5.42,0,0,1,.48-2.33,3.64,3.64,0,0,1,1.38-1.57,3.82,3.82,0,0,1,2.11-.56,3.59,3.59,0,0,1,2.5.9,3.21,3.21,0,0,1,1.06,2.33h-1.44a2.15,2.15,0,0,0-.66-1.42,2,2,0,0,0-1.46-.56,2.13,2.13,0,0,0-1.8.84,3.92,3.92,0,0,0-.64,2.42v.29a3.9,3.9,0,0,0,.63,2.38A2.15,2.15,0,0,0,355,166.14Z"/><path d="M365.82,167.23a3.31,3.31,0,0,1-.22-.95,3.4,3.4,0,0,1-2.54,1.11,3.15,3.15,0,0,1-2.17-.75,2.42,2.42,0,0,1-.85-1.89,2.55,2.55,0,0,1,1.06-2.17,5.06,5.06,0,0,1,3-.77h1.49v-.7a1.72,1.72,0,0,0-.48-1.28,1.92,1.92,0,0,0-1.42-.47,2.21,2.21,0,0,0-1.37.41,1.21,1.21,0,0,0-.55,1h-1.53a2.05,2.05,0,0,1,.47-1.29,3.23,3.23,0,0,1,1.29-1,4.36,4.36,0,0,1,1.78-.36,3.54,3.54,0,0,1,2.43.77,2.77,2.77,0,0,1,.9,2.12v4.12a5,5,0,0,0,.32,2v.14Zm-2.54-1.17a2.65,2.65,0,0,0,1.36-.37,2.3,2.3,0,0,0,.94-1v-1.83h-1.2c-1.87,0-2.81.55-2.81,1.64a1.4,1.4,0,0,0,.48,1.13A1.84,1.84,0,0,0,363.28,166.06Z"/><path d="M377.05,162.86a5.34,5.34,0,0,1-.94,3.28,3,3,0,0,1-2.53,1.25,3.25,3.25,0,0,1-2.55-1v4.3H369.5V158.29h1.39l.08,1a3.13,3.13,0,0,1,2.59-1.15,3.06,3.06,0,0,1,2.55,1.21,5.45,5.45,0,0,1,.94,3.38Zm-1.53-.18a3.93,3.93,0,0,0-.65-2.38,2.06,2.06,0,0,0-1.76-.88,2.24,2.24,0,0,0-2.08,1.23v4.27a2.22,2.22,0,0,0,2.09,1.22,2.07,2.07,0,0,0,1.75-.87A4.32,4.32,0,0,0,375.52,162.68Z"/><path d="M384.5,167.23a3.06,3.06,0,0,1-.21-.95,3.41,3.41,0,0,1-2.55,1.11,3.12,3.12,0,0,1-2.16-.75,2.39,2.39,0,0,1-.85-1.89,2.53,2.53,0,0,1,1.06-2.17,5,5,0,0,1,3-.77h1.48v-.7a1.72,1.72,0,0,0-.48-1.28,1.91,1.91,0,0,0-1.41-.47,2.21,2.21,0,0,0-1.37.41,1.21,1.21,0,0,0-.55,1h-1.54a2.07,2.07,0,0,1,.48-1.29,3.13,3.13,0,0,1,1.28-1,4.4,4.4,0,0,1,1.79-.36,3.5,3.5,0,0,1,2.42.77,2.74,2.74,0,0,1,.91,2.12v4.12a5,5,0,0,0,.31,2v.14ZM382,166.06a2.65,2.65,0,0,0,1.36-.37,2.22,2.22,0,0,0,.93-1v-1.83h-1.2c-1.87,0-2.8.55-2.8,1.64a1.4,1.4,0,0,0,.48,1.13A1.84,1.84,0,0,0,382,166.06Z"/><path d="M391.77,166.14a2.22,2.22,0,0,0,1.43-.49,1.74,1.74,0,0,0,.67-1.24h1.45a2.74,2.74,0,0,1-.53,1.46,3.53,3.53,0,0,1-1.3,1.11,3.82,3.82,0,0,1-1.72.41,3.67,3.67,0,0,1-2.9-1.22,4.83,4.83,0,0,1-1.08-3.33v-.25a5.42,5.42,0,0,1,.48-2.33,3.62,3.62,0,0,1,1.37-1.57,3.88,3.88,0,0,1,2.12-.56,3.6,3.6,0,0,1,2.5.9,3.25,3.25,0,0,1,1.06,2.33h-1.45a2.1,2.1,0,0,0-.65-1.42,2.06,2.06,0,0,0-1.46-.56,2.12,2.12,0,0,0-1.8.84,3.92,3.92,0,0,0-.64,2.42v.29a3.9,3.9,0,0,0,.63,2.38A2.13,2.13,0,0,0,391.77,166.14Z"/><path d="M397,155.92a.92.92,0,0,1,.23-.63.85.85,0,0,1,.67-.25.86.86,0,0,1,.68.25.88.88,0,0,1,.23.63.84.84,0,0,1-.23.62.86.86,0,0,1-.68.25.85.85,0,0,1-.67-.25A.88.88,0,0,1,397,155.92Zm1.66,11.31h-1.53v-8.94h1.53Z"/><path d="M403.21,156.13v2.16h1.67v1.18h-1.67V165a1.24,1.24,0,0,0,.23.81,1,1,0,0,0,.76.26,4.07,4.07,0,0,0,.72-.09v1.23a4.39,4.39,0,0,1-1.17.16,1.93,1.93,0,0,1-1.55-.62,2.7,2.7,0,0,1-.51-1.76v-5.54h-1.63v-1.18h1.63v-2.16Z"/><path d="M409.59,165l2.08-6.7h1.63l-3.59,10.31c-.55,1.49-1.44,2.23-2.65,2.23l-.29,0-.57-.11v-1.24l.42,0a2,2,0,0,0,1.2-.32,2.28,2.28,0,0,0,.72-1.15l.34-.9-3.19-8.84h1.67Z"/><path d="M426.42,162.86a5.31,5.31,0,0,1-.95,3.29,3,3,0,0,1-2.52,1.24,3.12,3.12,0,0,1-2.62-1.2l-.07,1h-1.41V154.54h1.53v4.73a3.11,3.11,0,0,1,2.55-1.14,3,3,0,0,1,2.56,1.23,5.46,5.46,0,0,1,.93,3.37Zm-1.53-.18a4.07,4.07,0,0,0-.61-2.41,2,2,0,0,0-1.73-.85,2.24,2.24,0,0,0-2.17,1.41v3.86a2.3,2.3,0,0,0,2.19,1.4,2,2,0,0,0,1.71-.85A4.43,4.43,0,0,0,424.89,162.68Z"/><path d="M433.86,166.34a3.26,3.26,0,0,1-2.62,1,2.8,2.8,0,0,1-2.18-.83,3.55,3.55,0,0,1-.75-2.46v-5.81h1.52v5.77c0,1.36.55,2,1.66,2a2.27,2.27,0,0,0,2.32-1.3v-6.5h1.53v8.94h-1.45Z"/><path d="M437.67,155.92a.92.92,0,0,1,.23-.63.84.84,0,0,1,.67-.25.88.88,0,0,1,.68.25.92.92,0,0,1,.23.63.83.83,0,0,1-.91.87.84.84,0,0,1-.67-.25A.88.88,0,0,1,437.67,155.92Zm1.65,11.31H437.8v-8.94h1.52Z"/><path d="M443.43,167.23H441.9V154.54h1.53Z"/><path d="M445.5,162.68a5.2,5.2,0,0,1,1-3.3,3.32,3.32,0,0,1,5-.18v-4.66H453v12.69h-1.41l-.07-1a3.1,3.1,0,0,1-2.55,1.12,3,3,0,0,1-2.53-1.27,5.3,5.3,0,0,1-1-3.32Zm1.53.18a4.05,4.05,0,0,0,.62,2.38,2,2,0,0,0,1.74.85,2.22,2.22,0,0,0,2.12-1.3v-4.1a2.24,2.24,0,0,0-2.1-1.27,2.05,2.05,0,0,0-1.76.87A4.43,4.43,0,0,0,447,162.86Z"/><path d="M455.42,155.92a.91.91,0,0,1,.22-.63.86.86,0,0,1,.68-.25.85.85,0,0,1,.67.25.88.88,0,0,1,.23.63.84.84,0,0,1-.23.62.85.85,0,0,1-.67.25.86.86,0,0,1-.68-.25A.87.87,0,0,1,455.42,155.92Zm1.65,11.31h-1.53v-8.94h1.53Z"/><path d="M461,158.29l.05,1.12a3.26,3.26,0,0,1,2.67-1.28q2.83,0,2.86,3.19v5.91H465v-5.92a2,2,0,0,0-.44-1.43,1.8,1.8,0,0,0-1.35-.46,2.19,2.19,0,0,0-1.31.4,2.69,2.69,0,0,0-.87,1v6.37h-1.53v-8.94Z"/><path d="M468.48,162.68a5.2,5.2,0,0,1,1-3.32,3.34,3.34,0,0,1,5.11-.08l.07-1H476V167a3.63,3.63,0,0,1-1,2.73,3.79,3.79,0,0,1-2.76,1,4.47,4.47,0,0,1-1.89-.41,3.24,3.24,0,0,1-1.42-1.13l.8-.92a3,3,0,0,0,2.4,1.22,2.35,2.35,0,0,0,1.74-.63,2.43,2.43,0,0,0,.62-1.77v-.77a3.12,3.12,0,0,1-2.5,1.06,3.06,3.06,0,0,1-2.54-1.26A5.5,5.5,0,0,1,468.48,162.68Zm1.54.18a3.93,3.93,0,0,0,.62,2.37,2,2,0,0,0,1.73.86,2.23,2.23,0,0,0,2.12-1.31V160.7a2.27,2.27,0,0,0-2.1-1.28,2,2,0,0,0-1.75.87A4.43,4.43,0,0,0,470,162.86Z"/><path d="M488,167.23a3.39,3.39,0,0,1-.21-.95,3.4,3.4,0,0,1-2.54,1.11,3.13,3.13,0,0,1-2.17-.75,2.39,2.39,0,0,1-.85-1.89,2.53,2.53,0,0,1,1.06-2.17,5,5,0,0,1,3-.77h1.48v-.7a1.72,1.72,0,0,0-.48-1.28,1.91,1.91,0,0,0-1.41-.47,2.21,2.21,0,0,0-1.37.41,1.21,1.21,0,0,0-.55,1h-1.54a2.07,2.07,0,0,1,.48-1.29,3.1,3.1,0,0,1,1.29-1,4.32,4.32,0,0,1,1.78-.36,3.5,3.5,0,0,1,2.42.77,2.74,2.74,0,0,1,.91,2.12v4.12a5,5,0,0,0,.32,2v.14Zm-2.53-1.17a2.65,2.65,0,0,0,1.36-.37,2.22,2.22,0,0,0,.93-1v-1.83H486.6c-1.88,0-2.81.55-2.81,1.64a1.4,1.4,0,0,0,.48,1.13A1.84,1.84,0,0,0,485.5,166.06Z"/><path d="M495.3,166.14a2.22,2.22,0,0,0,1.43-.49,1.75,1.75,0,0,0,.68-1.24h1.44a2.74,2.74,0,0,1-.53,1.46A3.53,3.53,0,0,1,497,167a3.82,3.82,0,0,1-1.72.41,3.68,3.68,0,0,1-2.9-1.22,4.83,4.83,0,0,1-1.08-3.33v-.25a5.42,5.42,0,0,1,.48-2.33,3.69,3.69,0,0,1,1.37-1.57,3.88,3.88,0,0,1,2.12-.56,3.59,3.59,0,0,1,2.5.9,3.21,3.21,0,0,1,1.06,2.33h-1.44a2.15,2.15,0,0,0-.66-1.42,2,2,0,0,0-1.46-.56,2.13,2.13,0,0,0-1.8.84,3.92,3.92,0,0,0-.64,2.42v.29a3.9,3.9,0,0,0,.63,2.38A2.15,2.15,0,0,0,495.3,166.14Z"/><path d="M502.64,156.13v2.16h1.67v1.18h-1.67V165a1.3,1.3,0,0,0,.22.81,1,1,0,0,0,.76.26,4.06,4.06,0,0,0,.73-.09v1.23a4.39,4.39,0,0,1-1.17.16,1.92,1.92,0,0,1-1.55-.62,2.7,2.7,0,0,1-.52-1.76v-5.54h-1.62v-1.18h1.62v-2.16Z"/><path d="M506.1,155.92a.92.92,0,0,1,.23-.63A.84.84,0,0,1,507,155a.88.88,0,0,1,.68.25.92.92,0,0,1,.23.63.83.83,0,0,1-.91.87.84.84,0,0,1-.67-.25A.88.88,0,0,1,506.1,155.92Zm1.65,11.31h-1.53v-8.94h1.53Z"/><path d="M513.14,165.15l2.22-6.86h1.56l-3.21,8.94h-1.16l-3.24-8.94h1.56Z"/><path d="M518.4,155.92a.91.91,0,0,1,.22-.63.86.86,0,0,1,.68-.25.85.85,0,0,1,.67.25.88.88,0,0,1,.23.63.84.84,0,0,1-.23.62.85.85,0,0,1-.67.25.86.86,0,0,1-.68-.25A.87.87,0,0,1,518.4,155.92Zm1.65,11.31h-1.53v-8.94h1.53Z"/><path d="M524.56,156.13v2.16h1.67v1.18h-1.67V165a1.24,1.24,0,0,0,.23.81,1,1,0,0,0,.76.26,4,4,0,0,0,.72-.09v1.23a4.39,4.39,0,0,1-1.17.16,1.9,1.9,0,0,1-1.54-.62A2.64,2.64,0,0,1,523,165v-5.54h-1.63v-1.18H523v-2.16Z"/><path d="M528,155.92a.92.92,0,0,1,.23-.63.85.85,0,0,1,.67-.25.86.86,0,0,1,.68.25.92.92,0,0,1,.23.63.88.88,0,0,1-.23.62.86.86,0,0,1-.68.25.85.85,0,0,1-.67-.25A.88.88,0,0,1,528,155.92Zm1.66,11.31h-1.53v-8.94h1.53Z"/><path d="M535.83,167.39a3.93,3.93,0,0,1-3-1.19,4.43,4.43,0,0,1-1.14-3.19v-.28a5.37,5.37,0,0,1,.51-2.38,4,4,0,0,1,1.42-1.63,3.53,3.53,0,0,1,2-.59,3.37,3.37,0,0,1,2.71,1.14,5,5,0,0,1,1,3.29v.64h-6a3.16,3.16,0,0,0,.77,2.13,2.43,2.43,0,0,0,1.88.81,2.65,2.65,0,0,0,1.37-.33,3.51,3.51,0,0,0,1-.87l.94.73A3.76,3.76,0,0,1,535.83,167.39Zm-.19-8a2.08,2.08,0,0,0-1.56.67,3.34,3.34,0,0,0-.77,1.89h4.47v-.11a2.93,2.93,0,0,0-.62-1.81A1.91,1.91,0,0,0,535.64,159.38Z"/><path d="M546.28,164.86a1.11,1.11,0,0,0-.47-1,4.73,4.73,0,0,0-1.62-.59,7.37,7.37,0,0,1-1.84-.59,2.6,2.6,0,0,1-1-.83,2,2,0,0,1-.33-1.14,2.3,2.3,0,0,1,.93-1.85,3.61,3.61,0,0,1,2.38-.76,3.74,3.74,0,0,1,2.46.78,2.49,2.49,0,0,1,1,2h-1.54a1.38,1.38,0,0,0-.53-1.08,2,2,0,0,0-1.34-.46,2.12,2.12,0,0,0-1.31.36,1.17,1.17,0,0,0-.47.95.94.94,0,0,0,.44.84,5.32,5.32,0,0,0,1.58.53,8.46,8.46,0,0,1,1.85.62,2.66,2.66,0,0,1,1.06.85,2.16,2.16,0,0,1,.34,1.22,2.28,2.28,0,0,1-1,1.92,4,4,0,0,1-2.48.72,4.54,4.54,0,0,1-1.9-.38,3.18,3.18,0,0,1-1.3-1.06,2.56,2.56,0,0,1-.46-1.47h1.53a1.55,1.55,0,0,0,.61,1.21,2.39,2.39,0,0,0,1.52.45,2.43,2.43,0,0,0,1.39-.35A1.06,1.06,0,0,0,546.28,164.86Z"/><path d="M231.08,176.42v2.16h1.67v1.19h-1.67v5.54a1.24,1.24,0,0,0,.22.81.94.94,0,0,0,.76.27,4.25,4.25,0,0,0,.73-.1v1.23a4.39,4.39,0,0,1-1.17.16,1.89,1.89,0,0,1-1.55-.62,2.61,2.61,0,0,1-.52-1.75v-5.54h-1.63v-1.19h1.63v-2.16Z"/><path d="M234,183a5.18,5.18,0,0,1,.52-2.36,3.83,3.83,0,0,1,1.43-1.62,3.94,3.94,0,0,1,2.1-.57,3.78,3.78,0,0,1,3,1.26,4.87,4.87,0,0,1,1.12,3.36v.11a5.22,5.22,0,0,1-.5,2.34,3.8,3.8,0,0,1-1.42,1.62,4,4,0,0,1-2.14.57,3.75,3.75,0,0,1-2.94-1.26,4.84,4.84,0,0,1-1.13-3.34Zm1.54.18a3.83,3.83,0,0,0,.69,2.39,2.33,2.33,0,0,0,3.69,0,4.19,4.19,0,0,0,.69-2.56,3.85,3.85,0,0,0-.7-2.38,2.23,2.23,0,0,0-1.86-.92,2.19,2.19,0,0,0-1.82.9A4.17,4.17,0,0,0,235.5,183.15Z"/><path d="M255.74,183.15a5.37,5.37,0,0,1-.93,3.29,3,3,0,0,1-2.53,1.24,3.29,3.29,0,0,1-2.56-1V191H248.2V178.58h1.39l.08,1a3.11,3.11,0,0,1,2.59-1.16,3.06,3.06,0,0,1,2.55,1.21,5.45,5.45,0,0,1,.93,3.38Zm-1.52-.17a3.94,3.94,0,0,0-.65-2.39,2.08,2.08,0,0,0-1.76-.87,2.26,2.26,0,0,0-2.09,1.23v4.27a2.26,2.26,0,0,0,2.1,1.22,2.07,2.07,0,0,0,1.75-.87A4.34,4.34,0,0,0,254.22,183Z"/><path d="M262,180a4.38,4.38,0,0,0-.75-.06,2,2,0,0,0-2,1.28v6.34h-1.53v-8.94h1.49l0,1a2.38,2.38,0,0,1,2.13-1.2,1.49,1.49,0,0,1,.67.12Z"/><path d="M262.84,183a5.31,5.31,0,0,1,.51-2.36,3.8,3.8,0,0,1,3.54-2.19,3.76,3.76,0,0,1,2.95,1.26A4.88,4.88,0,0,1,271,183v.11a5.36,5.36,0,0,1-.5,2.34,3.82,3.82,0,0,1-1.43,1.62,4,4,0,0,1-2.13.57,3.79,3.79,0,0,1-3-1.26,4.84,4.84,0,0,1-1.12-3.34Zm1.53.18a3.83,3.83,0,0,0,.69,2.39,2.34,2.34,0,0,0,3.7,0,4.26,4.26,0,0,0,.68-2.56,3.78,3.78,0,0,0-.7-2.38,2.31,2.31,0,0,0-3.67,0A4.11,4.11,0,0,0,264.37,183.15Z"/><path d="M274.32,178.58l0,1a3.29,3.29,0,0,1,2.66-1.16,2.57,2.57,0,0,1,2.55,1.44,3.24,3.24,0,0,1,1.16-1,3.35,3.35,0,0,1,1.69-.4c1.95,0,2.95,1,3,3.11v6h-1.52v-5.9a2.06,2.06,0,0,0-.44-1.43,1.91,1.91,0,0,0-1.47-.47,2,2,0,0,0-2.06,1.87v5.93h-1.54v-5.86a1.7,1.7,0,0,0-1.91-1.94,2,2,0,0,0-2,1.28v6.52h-1.53v-8.94Z"/><path d="M287.3,183a5.31,5.31,0,0,1,.52-2.36,3.79,3.79,0,0,1,1.44-1.62,3.89,3.89,0,0,1,2.1-.57,3.78,3.78,0,0,1,2.95,1.26,4.88,4.88,0,0,1,1.13,3.36v.11a5.36,5.36,0,0,1-.5,2.34,3.89,3.89,0,0,1-1.43,1.62,4,4,0,0,1-2.14.57,3.75,3.75,0,0,1-2.94-1.26,4.84,4.84,0,0,1-1.13-3.34Zm1.54.18a3.83,3.83,0,0,0,.69,2.39,2.33,2.33,0,0,0,3.69,0,4.19,4.19,0,0,0,.69-2.56,3.78,3.78,0,0,0-.7-2.38,2.32,2.32,0,0,0-3.68,0A4.17,4.17,0,0,0,288.84,183.15Z"/><path d="M299.43,176.42v2.16h1.66v1.19h-1.66v5.54a1.24,1.24,0,0,0,.22.81.94.94,0,0,0,.76.27,4.16,4.16,0,0,0,.72-.1v1.23a4.39,4.39,0,0,1-1.17.16,1.87,1.87,0,0,1-1.54-.62,2.61,2.61,0,0,1-.52-1.75v-5.54h-1.63v-1.19h1.63v-2.16Z"/><path d="M306.58,187.68a3.87,3.87,0,0,1-2.95-1.19,4.42,4.42,0,0,1-1.14-3.19V183a5.37,5.37,0,0,1,.51-2.38,4,4,0,0,1,1.42-1.63,3.56,3.56,0,0,1,2-.59,3.32,3.32,0,0,1,2.71,1.15,4.92,4.92,0,0,1,1,3.28v.64H304a3.16,3.16,0,0,0,.77,2.13,2.41,2.41,0,0,0,1.88.82,2.67,2.67,0,0,0,1.37-.33,3.4,3.4,0,0,0,1-.88l.93.73A3.75,3.75,0,0,1,306.58,187.68Zm-.19-8a2,2,0,0,0-1.55.68,3.21,3.21,0,0,0-.77,1.88h4.47v-.11a2.87,2.87,0,0,0-.63-1.81A1.93,1.93,0,0,0,306.39,179.67Z"/><path d="M316,176.21a.91.91,0,0,1,.23-.62.84.84,0,0,1,.67-.26.88.88,0,0,1,.68.26.91.91,0,0,1,.23.62.83.83,0,0,1-.91.87.84.84,0,0,1-.67-.25A.88.88,0,0,1,316,176.21Zm1.65,11.31h-1.52v-8.94h1.52Z"/><path d="M321.57,178.58l.05,1.13a3.26,3.26,0,0,1,2.68-1.29c1.89,0,2.84,1.06,2.85,3.2v5.9h-1.52v-5.91a2.12,2.12,0,0,0-.44-1.43,1.78,1.78,0,0,0-1.36-.46,2.22,2.22,0,0,0-1.3.39,2.67,2.67,0,0,0-.87,1v6.37h-1.53v-8.94Z"/><path d="M333,186.44a2.21,2.21,0,0,0,1.43-.5,1.75,1.75,0,0,0,.68-1.24h1.44a2.77,2.77,0,0,1-.53,1.47,3.35,3.35,0,0,1-1.3,1.1,4,4,0,0,1-4.62-.8,4.88,4.88,0,0,1-1.08-3.34v-.25a5.38,5.38,0,0,1,.48-2.32,3.67,3.67,0,0,1,1.38-1.58,3.91,3.91,0,0,1,2.11-.56,3.59,3.59,0,0,1,2.5.9,3.22,3.22,0,0,1,1.06,2.34h-1.44a2.16,2.16,0,0,0-.66-1.43,2,2,0,0,0-1.46-.56,2.14,2.14,0,0,0-1.8.84,3.93,3.93,0,0,0-.64,2.43v.29a3.86,3.86,0,0,0,.63,2.37A2.15,2.15,0,0,0,333,186.44Z"/><path d="M340,187.52h-1.53V174.84H340Z"/><path d="M347.93,186.64a3.28,3.28,0,0,1-2.62,1,2.73,2.73,0,0,1-2.17-.83,3.59,3.59,0,0,1-.76-2.45v-5.82h1.53v5.78c0,1.35.55,2,1.65,2a2.29,2.29,0,0,0,2.33-1.31v-6.5h1.53v8.94H348Z"/><path d="M356.94,185.15a1.13,1.13,0,0,0-.47-1,4.34,4.34,0,0,0-1.62-.59A8,8,0,0,1,353,183a2.54,2.54,0,0,1-1-.82,2,2,0,0,1-.33-1.14,2.33,2.33,0,0,1,.93-1.86,3.6,3.6,0,0,1,2.37-.76,3.75,3.75,0,0,1,2.47.78,2.51,2.51,0,0,1,.94,2h-1.53a1.38,1.38,0,0,0-.53-1.08,2,2,0,0,0-1.35-.46,2.09,2.09,0,0,0-1.3.37,1.13,1.13,0,0,0-.47,1,.91.91,0,0,0,.44.83,5.16,5.16,0,0,0,1.58.54,8,8,0,0,1,1.85.61,2.7,2.7,0,0,1,1.05.85,2.11,2.11,0,0,1,.35,1.22,2.28,2.28,0,0,1-1,1.92,4,4,0,0,1-2.49.72,4.42,4.42,0,0,1-1.9-.38,3,3,0,0,1-1.29-1.06,2.54,2.54,0,0,1-.47-1.47h1.53a1.58,1.58,0,0,0,.62,1.22,2.36,2.36,0,0,0,1.51.45,2.49,2.49,0,0,0,1.39-.35A1.1,1.1,0,0,0,356.94,185.15Z"/><path d="M360.46,176.21a.91.91,0,0,1,.23-.62,1,1,0,0,1,1.35,0,.91.91,0,0,1,.23.62.88.88,0,0,1-.23.62.86.86,0,0,1-.68.25.85.85,0,0,1-.67-.25A.88.88,0,0,1,360.46,176.21Zm1.66,11.31h-1.53v-8.94h1.53Z"/><path d="M364.16,183a5.31,5.31,0,0,1,.51-2.36,3.8,3.8,0,0,1,3.54-2.19,3.76,3.76,0,0,1,3,1.26,4.88,4.88,0,0,1,1.13,3.36v.11a5.36,5.36,0,0,1-.5,2.34,3.82,3.82,0,0,1-1.43,1.62,4,4,0,0,1-2.13.57,3.78,3.78,0,0,1-3-1.26,4.84,4.84,0,0,1-1.12-3.34Zm1.53.18a3.83,3.83,0,0,0,.69,2.39,2.34,2.34,0,0,0,3.7,0,4.26,4.26,0,0,0,.68-2.56,3.78,3.78,0,0,0-.7-2.38,2.32,2.32,0,0,0-3.68,0A4.17,4.17,0,0,0,365.69,183.15Z"/><path d="M375.65,178.58l.05,1.13a3.25,3.25,0,0,1,2.68-1.29c1.88,0,2.84,1.06,2.85,3.2v5.9H379.7v-5.91a2,2,0,0,0-.44-1.43,1.77,1.77,0,0,0-1.35-.46,2.22,2.22,0,0,0-1.3.39,2.7,2.7,0,0,0-.88,1v6.37h-1.52v-8.94Z"/><path d="M393.24,187.52a3.31,3.31,0,0,1-.22-.94,3.38,3.38,0,0,1-2.54,1.1,3.16,3.16,0,0,1-2.17-.74,2.43,2.43,0,0,1-.84-1.9,2.53,2.53,0,0,1,1.06-2.17,5,5,0,0,1,3-.77H393v-.7a1.74,1.74,0,0,0-.48-1.28,2,2,0,0,0-1.41-.47,2.25,2.25,0,0,0-1.37.41,1.23,1.23,0,0,0-.56,1h-1.53a2.16,2.16,0,0,1,.47-1.29,3.33,3.33,0,0,1,1.29-1,4.37,4.37,0,0,1,1.79-.36,3.57,3.57,0,0,1,2.42.77,2.85,2.85,0,0,1,.91,2.13v4.11a5.06,5.06,0,0,0,.31,2v.13Zm-2.54-1.17a2.69,2.69,0,0,0,1.37-.37,2.26,2.26,0,0,0,.93-1v-1.84h-1.2c-1.87,0-2.81.55-2.81,1.65a1.38,1.38,0,0,0,.48,1.12A1.84,1.84,0,0,0,390.7,186.35Z"/><path d="M398.37,178.58l.05,1.13a3.24,3.24,0,0,1,2.67-1.29c1.89,0,2.84,1.06,2.86,3.2v5.9h-1.53v-5.91a2.07,2.07,0,0,0-.44-1.43,1.77,1.77,0,0,0-1.35-.46,2.25,2.25,0,0,0-1.31.39,2.76,2.76,0,0,0-.87,1v6.37h-1.53v-8.94Z"/><path d="M405.88,183a5.29,5.29,0,0,1,1-3.31,3.32,3.32,0,0,1,5-.18v-4.65h1.53v12.68H412l-.08-1a3.1,3.1,0,0,1-2.55,1.12,3,3,0,0,1-2.53-1.27,5.3,5.3,0,0,1-1-3.32Zm1.53.17a4,4,0,0,0,.63,2.38,2,2,0,0,0,1.73.86,2.22,2.22,0,0,0,2.12-1.31V181a2.24,2.24,0,0,0-2.1-1.26,2,2,0,0,0-1.75.86A4.37,4.37,0,0,0,407.41,183.15Z"/><path d="M421.42,178.58l.05,1.13a3.26,3.26,0,0,1,2.68-1.29c1.88,0,2.84,1.06,2.85,3.2v5.9h-1.52v-5.91a2.07,2.07,0,0,0-.45-1.43,1.77,1.77,0,0,0-1.35-.46,2.22,2.22,0,0,0-1.3.39,2.7,2.7,0,0,0-.88,1v6.37H420v-8.94Z"/><path d="M428.9,183a5.18,5.18,0,0,1,.52-2.36,3.83,3.83,0,0,1,1.43-1.62,4,4,0,0,1,2.11-.57,3.78,3.78,0,0,1,3,1.26A4.88,4.88,0,0,1,437,183v.11a5.36,5.36,0,0,1-.5,2.34,3.89,3.89,0,0,1-1.43,1.62,4,4,0,0,1-2.14.57,3.75,3.75,0,0,1-2.94-1.26,4.84,4.84,0,0,1-1.13-3.34Zm1.54.18a3.83,3.83,0,0,0,.69,2.39,2.33,2.33,0,0,0,3.69,0,4.19,4.19,0,0,0,.69-2.56,3.85,3.85,0,0,0-.7-2.38,2.22,2.22,0,0,0-1.85-.92,2.19,2.19,0,0,0-1.83.9A4.17,4.17,0,0,0,430.44,183.15Z"/><path d="M440.4,178.58l.05,1.13a3.24,3.24,0,0,1,2.67-1.29c1.89,0,2.84,1.06,2.86,3.2v5.9h-1.53v-5.91a2.07,2.07,0,0,0-.44-1.43,1.77,1.77,0,0,0-1.35-.46,2.25,2.25,0,0,0-1.31.39,2.76,2.76,0,0,0-.87,1v6.37H439v-8.94Z"/><path d="M451.46,183h-4v-1.25h4Z"/><path d="M452.58,183a5.23,5.23,0,0,1,1-3.31,3.32,3.32,0,0,1,5-.18v-4.65h1.53v12.68h-1.41l-.07-1a3.1,3.1,0,0,1-2.55,1.12,3.06,3.06,0,0,1-2.54-1.27,5.3,5.3,0,0,1-1-3.32Zm1.52.17a4,4,0,0,0,.63,2.38,2,2,0,0,0,1.74.86,2.24,2.24,0,0,0,2.12-1.31V181a2.25,2.25,0,0,0-2.11-1.26,2,2,0,0,0-1.75.86A4.37,4.37,0,0,0,454.1,183.15Z"/><path d="M462.49,176.21a.91.91,0,0,1,.23-.62,1,1,0,0,1,1.35,0,.91.91,0,0,1,.23.62.88.88,0,0,1-.23.62.86.86,0,0,1-.68.25.85.85,0,0,1-.67-.25A.88.88,0,0,1,462.49,176.21Zm1.66,11.31h-1.53v-8.94h1.53Z"/><path d="M471.79,185.15a1.13,1.13,0,0,0-.47-1,4.34,4.34,0,0,0-1.62-.59,7.76,7.76,0,0,1-1.84-.6,2.58,2.58,0,0,1-1-.82,2,2,0,0,1-.33-1.14,2.33,2.33,0,0,1,.93-1.86,3.61,3.61,0,0,1,2.38-.76,3.74,3.74,0,0,1,2.46.78,2.52,2.52,0,0,1,.95,2H471.7a1.38,1.38,0,0,0-.53-1.08,2,2,0,0,0-1.34-.46,2.1,2.1,0,0,0-1.31.37,1.15,1.15,0,0,0-.47,1,.93.93,0,0,0,.44.83,5.26,5.26,0,0,0,1.58.54,8,8,0,0,1,1.85.61,2.74,2.74,0,0,1,1.06.85,2.19,2.19,0,0,1,.34,1.22,2.28,2.28,0,0,1-1,1.92,4,4,0,0,1-2.48.72,4.39,4.39,0,0,1-1.9-.38,3,3,0,0,1-1.3-1.06,2.53,2.53,0,0,1-.46-1.47h1.52a1.61,1.61,0,0,0,.62,1.22,2.39,2.39,0,0,0,1.52.45,2.51,2.51,0,0,0,1.39-.35A1.09,1.09,0,0,0,471.79,185.15Z"/><path d="M478.89,186.44a2.21,2.21,0,0,0,1.43-.5,1.75,1.75,0,0,0,.68-1.24h1.44a2.69,2.69,0,0,1-.53,1.47,3.35,3.35,0,0,1-1.3,1.1,4,4,0,0,1-4.62-.8,4.88,4.88,0,0,1-1.08-3.34v-.25a5.38,5.38,0,0,1,.48-2.32,3.67,3.67,0,0,1,1.38-1.58,3.91,3.91,0,0,1,2.11-.56,3.57,3.57,0,0,1,2.5.9,3.22,3.22,0,0,1,1.06,2.34H481a2.16,2.16,0,0,0-.66-1.43,2,2,0,0,0-1.46-.56,2.14,2.14,0,0,0-1.8.84,3.93,3.93,0,0,0-.64,2.43v.29a3.8,3.8,0,0,0,.64,2.37A2.12,2.12,0,0,0,478.89,186.44Z"/><path d="M488.48,180a4.38,4.38,0,0,0-.75-.06,2,2,0,0,0-2,1.28v6.34h-1.53v-8.94h1.49l0,1a2.38,2.38,0,0,1,2.13-1.2,1.5,1.5,0,0,1,.68.12Z"/><path d="M489.89,176.21a.91.91,0,0,1,.23-.62.84.84,0,0,1,.67-.26.88.88,0,0,1,.68.26.91.91,0,0,1,.23.62.83.83,0,0,1-.91.87.84.84,0,0,1-.67-.25A.88.88,0,0,1,489.89,176.21Zm1.65,11.31H490v-8.94h1.52Z"/><path d="M495.42,178.58l.05,1a3.26,3.26,0,0,1,2.65-1.16,2.55,2.55,0,0,1,2.55,1.44,3.24,3.24,0,0,1,1.16-1,3.35,3.35,0,0,1,1.69-.4c2,0,3,1,3,3.11v6H505v-5.9a2.06,2.06,0,0,0-.44-1.43,1.91,1.91,0,0,0-1.47-.47,2,2,0,0,0-2.06,1.87v5.93h-1.54v-5.86a1.7,1.7,0,0,0-1.91-1.94,2,2,0,0,0-2.05,1.28v6.52H494v-8.94Z"/><path d="M508.82,176.21a.91.91,0,0,1,.22-.62,1,1,0,0,1,1.35,0,.88.88,0,0,1,.24.62.84.84,0,0,1-.24.62.85.85,0,0,1-.67.25.86.86,0,0,1-.68-.25A.87.87,0,0,1,508.82,176.21Zm1.65,11.31h-1.53v-8.94h1.53Z"/><path d="M514.36,178.58l0,1.13a3.24,3.24,0,0,1,2.67-1.29c1.89,0,2.84,1.06,2.86,3.2v5.9h-1.53v-5.91a2,2,0,0,0-.44-1.43,1.77,1.77,0,0,0-1.35-.46,2.22,2.22,0,0,0-1.3.39,2.7,2.7,0,0,0-.88,1v6.37h-1.53v-8.94Z"/><path d="M527.76,187.52a3.31,3.31,0,0,1-.22-.94,3.38,3.38,0,0,1-2.54,1.1,3.16,3.16,0,0,1-2.17-.74A2.43,2.43,0,0,1,522,185a2.53,2.53,0,0,1,1.06-2.17,5,5,0,0,1,3-.77h1.49v-.7a1.74,1.74,0,0,0-.48-1.28,2,2,0,0,0-1.41-.47,2.25,2.25,0,0,0-1.37.41,1.22,1.22,0,0,0-.55,1h-1.54a2.16,2.16,0,0,1,.47-1.29,3.33,3.33,0,0,1,1.29-1,4.37,4.37,0,0,1,1.79-.36,3.55,3.55,0,0,1,2.42.77,2.81,2.81,0,0,1,.91,2.13v4.11a5.06,5.06,0,0,0,.31,2v.13Zm-2.54-1.17a2.69,2.69,0,0,0,1.37-.37,2.2,2.2,0,0,0,.93-1v-1.84h-1.2c-1.87,0-2.8.55-2.8,1.65A1.38,1.38,0,0,0,524,186,1.84,1.84,0,0,0,525.22,186.35Z"/><path d="M533.51,176.42v2.16h1.67v1.19h-1.67v5.54a1.24,1.24,0,0,0,.23.81.94.94,0,0,0,.76.27,4.16,4.16,0,0,0,.72-.1v1.23a4.39,4.39,0,0,1-1.17.16,1.87,1.87,0,0,1-1.54-.62,2.61,2.61,0,0,1-.52-1.75v-5.54h-1.63v-1.19H532v-2.16Z"/><path d="M536.4,183a5.31,5.31,0,0,1,.51-2.36,3.8,3.8,0,0,1,3.54-2.19,3.76,3.76,0,0,1,2.95,1.26,4.88,4.88,0,0,1,1.13,3.36v.11a5.36,5.36,0,0,1-.5,2.34,3.82,3.82,0,0,1-1.43,1.62,4,4,0,0,1-2.13.57,3.79,3.79,0,0,1-3-1.26,4.84,4.84,0,0,1-1.12-3.34Zm1.53.18a3.83,3.83,0,0,0,.69,2.39,2.34,2.34,0,0,0,3.7,0A4.26,4.26,0,0,0,543,183a3.78,3.78,0,0,0-.7-2.38,2.31,2.31,0,0,0-3.67,0A4.11,4.11,0,0,0,537.93,183.15Z"/><path d="M550.77,180a4.59,4.59,0,0,0-.76-.06,2,2,0,0,0-2,1.28v6.34h-1.52v-8.94h1.48l0,1a2.38,2.38,0,0,1,2.13-1.2,1.53,1.53,0,0,1,.68.12Z"/><path d="M555.24,185.28l2.08-6.7H559l-3.6,10.32c-.55,1.48-1.44,2.23-2.65,2.23l-.29,0-.57-.1v-1.24l.42,0a2,2,0,0,0,1.21-.31,2.32,2.32,0,0,0,.71-1.15l.34-.91-3.19-8.84H553Z"/><path d="M309.06,203.44a5.31,5.31,0,0,1-.94,3.29A3,3,0,0,1,305.6,208a3.29,3.29,0,0,1-2.56-1v4.3h-1.53V198.88h1.39l.08,1a3.15,3.15,0,0,1,2.59-1.16,3,3,0,0,1,2.55,1.22,5.36,5.36,0,0,1,.94,3.37Zm-1.53-.17a4,4,0,0,0-.64-2.39,2.08,2.08,0,0,0-1.77-.87,2.24,2.24,0,0,0-2.08,1.23v4.27a2.24,2.24,0,0,0,2.09,1.22,2.06,2.06,0,0,0,1.75-.87A4.32,4.32,0,0,0,307.53,203.27Z"/><path d="M310.59,203.26a5.35,5.35,0,0,1,.52-2.36,3.79,3.79,0,0,1,1.44-1.62,3.89,3.89,0,0,1,2.1-.57,3.75,3.75,0,0,1,3,1.27,4.86,4.86,0,0,1,1.13,3.36v.1a5.43,5.43,0,0,1-.5,2.35,3.86,3.86,0,0,1-1.43,1.61,3.92,3.92,0,0,1-2.14.58,3.73,3.73,0,0,1-2.94-1.27,4.82,4.82,0,0,1-1.13-3.34Zm1.54.18a3.81,3.81,0,0,0,.69,2.39,2.2,2.2,0,0,0,1.84.9,2.17,2.17,0,0,0,1.85-.91,4.17,4.17,0,0,0,.69-2.56,3.78,3.78,0,0,0-.7-2.38,2.32,2.32,0,0,0-3.68,0A4.16,4.16,0,0,0,312.13,203.44Z"/><path d="M322.3,207.81h-1.53V195.13h1.53Z"/><path d="M324.75,196.51a.92.92,0,0,1,.23-.63,1,1,0,0,1,1.35,0,.88.88,0,0,1,.23.63.85.85,0,0,1-.23.62.91.91,0,0,1-1.58-.62Zm1.66,11.3h-1.53v-8.93h1.53Z"/><path d="M332.43,206.73a2.2,2.2,0,0,0,1.43-.49,1.77,1.77,0,0,0,.68-1.24H336a2.73,2.73,0,0,1-.52,1.46,3.57,3.57,0,0,1-1.31,1.11,3.79,3.79,0,0,1-1.72.41,3.69,3.69,0,0,1-2.9-1.22,4.83,4.83,0,0,1-1.08-3.33v-.26a5.38,5.38,0,0,1,.48-2.32,3.67,3.67,0,0,1,1.38-1.58,3.91,3.91,0,0,1,2.11-.56,3.57,3.57,0,0,1,2.5.9A3.18,3.18,0,0,1,336,202h-1.44a2.09,2.09,0,0,0-.66-1.42,2,2,0,0,0-1.46-.56,2.14,2.14,0,0,0-1.8.84,3.9,3.9,0,0,0-.64,2.42v.29a3.83,3.83,0,0,0,.64,2.38A2.15,2.15,0,0,0,332.43,206.73Z"/><path d="M337.71,196.51a.92.92,0,0,1,.23-.63.84.84,0,0,1,.67-.26.88.88,0,0,1,.68.26.92.92,0,0,1,.23.63.9.9,0,0,1-.23.62.91.91,0,0,1-.68.25.87.87,0,0,1-.67-.25A.9.9,0,0,1,337.71,196.51Zm1.65,11.3h-1.53v-8.93h1.53Z"/><path d="M345.51,208a3.88,3.88,0,0,1-2.95-1.2,4.4,4.4,0,0,1-1.14-3.19v-.28a5.32,5.32,0,0,1,.51-2.37,4,4,0,0,1,1.42-1.64,3.56,3.56,0,0,1,2-.59,3.35,3.35,0,0,1,2.71,1.15,5,5,0,0,1,1,3.29v.63H343a3.19,3.19,0,0,0,.77,2.14,2.43,2.43,0,0,0,1.88.81,2.67,2.67,0,0,0,1.37-.33,3.51,3.51,0,0,0,1-.87l.93.72A3.76,3.76,0,0,1,345.51,208Zm-.19-8a2,2,0,0,0-1.55.67,3.21,3.21,0,0,0-.77,1.89h4.47v-.12a2.84,2.84,0,0,0-.63-1.8A1.9,1.9,0,0,0,345.32,200Z"/><path d="M356,205.44a1.13,1.13,0,0,0-.47-1,4.52,4.52,0,0,0-1.63-.59,7.66,7.66,0,0,1-1.84-.59,2.65,2.65,0,0,1-1-.83,2,2,0,0,1-.33-1.14,2.33,2.33,0,0,1,.93-1.86,3.66,3.66,0,0,1,2.37-.76,3.72,3.72,0,0,1,2.47.79,2.48,2.48,0,0,1,.94,2h-1.53a1.39,1.39,0,0,0-.54-1.08A2,2,0,0,0,354,200a2.09,2.09,0,0,0-1.3.36,1.13,1.13,0,0,0-.47.95.94.94,0,0,0,.43.84,5.72,5.72,0,0,0,1.59.53,8.5,8.5,0,0,1,1.85.61,2.71,2.71,0,0,1,1,.86,2.09,2.09,0,0,1,.34,1.22,2.3,2.3,0,0,1-.95,1.92,4,4,0,0,1-2.49.72,4.57,4.57,0,0,1-1.9-.38,3.16,3.16,0,0,1-1.29-1.06,2.6,2.6,0,0,1-.47-1.48h1.53a1.56,1.56,0,0,0,.62,1.22,2.36,2.36,0,0,0,1.51.45,2.49,2.49,0,0,0,1.39-.35A1.08,1.08,0,0,0,356,205.44Z"/><path d="M369.19,207.81a3.22,3.22,0,0,1-.22-.94,3.39,3.39,0,0,1-2.54,1.11,3.16,3.16,0,0,1-2.17-.75,2.43,2.43,0,0,1-.85-1.89,2.53,2.53,0,0,1,1.07-2.17,4.94,4.94,0,0,1,3-.77H369v-.71a1.7,1.7,0,0,0-.48-1.27,1.91,1.91,0,0,0-1.41-.48,2.19,2.19,0,0,0-1.37.42,1.2,1.2,0,0,0-.56,1H363.6a2.16,2.16,0,0,1,.47-1.3,3.31,3.31,0,0,1,1.29-1,4.22,4.22,0,0,1,1.79-.37,3.52,3.52,0,0,1,2.42.78,2.81,2.81,0,0,1,.91,2.12v4.11a5,5,0,0,0,.31,2v.13Zm-2.54-1.16a2.79,2.79,0,0,0,1.37-.37,2.28,2.28,0,0,0,.93-1v-1.83h-1.2c-1.87,0-2.81.55-2.81,1.64a1.38,1.38,0,0,0,.48,1.12A1.84,1.84,0,0,0,366.65,206.65Z"/><path d="M374.94,196.71v2.17h1.67v1.18h-1.67v5.55a1.23,1.23,0,0,0,.23.8.94.94,0,0,0,.76.27,3.44,3.44,0,0,0,.72-.1v1.23a4.41,4.41,0,0,1-1.17.17,1.9,1.9,0,0,1-1.54-.62,2.64,2.64,0,0,1-.52-1.76v-5.54h-1.63v-1.18h1.63v-2.17Z"/><path d="M384.65,196.71v2.17h1.67v1.18h-1.67v5.55a1.23,1.23,0,0,0,.23.8.94.94,0,0,0,.76.27,3.36,3.36,0,0,0,.72-.1v1.23a4.41,4.41,0,0,1-1.17.17,1.9,1.9,0,0,1-1.54-.62,2.64,2.64,0,0,1-.52-1.76v-5.54H381.5v-1.18h1.63v-2.17Z"/><path d="M389.63,200a3.27,3.27,0,0,1,2.65-1.25c1.88,0,2.84,1.07,2.85,3.2v5.9H393.6V201.9a2,2,0,0,0-.44-1.43,1.77,1.77,0,0,0-1.35-.46,2.16,2.16,0,0,0-1.3.4,2.63,2.63,0,0,0-.88,1v6.36h-1.52V195.13h1.52Z"/><path d="M401.13,208a3.9,3.9,0,0,1-3-1.2,4.4,4.4,0,0,1-1.14-3.19v-.28a5.32,5.32,0,0,1,.51-2.37A4,4,0,0,1,399,199.3a3.61,3.61,0,0,1,2-.59,3.38,3.38,0,0,1,2.71,1.15,5,5,0,0,1,1,3.29v.63h-6.05a3.19,3.19,0,0,0,.77,2.14,2.43,2.43,0,0,0,1.88.81,2.65,2.65,0,0,0,1.37-.33,3.51,3.51,0,0,0,1-.87l.94.72A3.77,3.77,0,0,1,401.13,208Zm-.19-8a2,2,0,0,0-1.55.67,3.28,3.28,0,0,0-.78,1.89h4.47v-.12a2.9,2.9,0,0,0-.62-1.8A1.91,1.91,0,0,0,400.94,200Z"/><path d="M418.48,205.71l1.71-6.83h1.53l-2.6,8.93h-1.24L415.71,201l-2.11,6.77h-1.24l-2.6-8.93h1.52l1.76,6.69,2.08-6.69h1.23Z"/><path d="M422.87,203.26a5.21,5.21,0,0,1,.52-2.36,3.83,3.83,0,0,1,1.43-1.62,3.94,3.94,0,0,1,2.1-.57,3.77,3.77,0,0,1,3,1.27,4.86,4.86,0,0,1,1.12,3.36v.1a5.29,5.29,0,0,1-.5,2.35,3.79,3.79,0,0,1-1.43,1.61,3.89,3.89,0,0,1-2.13.58,3.73,3.73,0,0,1-2.94-1.27,4.78,4.78,0,0,1-1.13-3.34Zm1.53.18a3.88,3.88,0,0,0,.69,2.39,2.22,2.22,0,0,0,1.85.9,2.19,2.19,0,0,0,1.85-.91,4.17,4.17,0,0,0,.69-2.56,3.85,3.85,0,0,0-.7-2.38,2.23,2.23,0,0,0-1.86-.91,2.19,2.19,0,0,0-1.82.9A4.16,4.16,0,0,0,424.4,203.44Z"/><path d="M437.24,200.25a4.38,4.38,0,0,0-.75-.06,2,2,0,0,0-2,1.28v6.34h-1.53v-8.93h1.49l0,1a2.38,2.38,0,0,1,2.13-1.2,1.53,1.53,0,0,1,.68.12Z"/><path d="M441.13,203.68l-.95,1v3.13h-1.53V195.13h1.53v7.67l.81-1,2.79-2.94h1.85l-3.47,3.73,3.88,5.2h-1.79Z"/><path d="M454.76,203.44a5.37,5.37,0,0,1-.93,3.29A3,3,0,0,1,451.3,208a3.31,3.31,0,0,1-2.56-1v4.3h-1.53V198.88h1.4l.07,1a3.15,3.15,0,0,1,2.59-1.16,3,3,0,0,1,2.55,1.22,5.36,5.36,0,0,1,.94,3.37Zm-1.53-.17a4,4,0,0,0-.64-2.39,2.08,2.08,0,0,0-1.77-.87,2.25,2.25,0,0,0-2.08,1.23v4.27a2.26,2.26,0,0,0,2.1,1.22,2.05,2.05,0,0,0,1.74-.87A4.25,4.25,0,0,0,453.23,203.27Z"/><path d="M458.36,207.81h-1.53V195.13h1.53Z"/><path d="M466.32,207.81a3,3,0,0,1-.21-.94,3.41,3.41,0,0,1-2.55,1.11,3.16,3.16,0,0,1-2.17-.75,2.43,2.43,0,0,1-.84-1.89,2.52,2.52,0,0,1,1.06-2.17,5,5,0,0,1,3-.77h1.49v-.71a1.7,1.7,0,0,0-.48-1.27,1.91,1.91,0,0,0-1.41-.48,2.19,2.19,0,0,0-1.37.42,1.19,1.19,0,0,0-.55,1h-1.54a2.16,2.16,0,0,1,.47-1.3,3.31,3.31,0,0,1,1.29-1,4.25,4.25,0,0,1,1.79-.37,3.5,3.5,0,0,1,2.42.78,2.77,2.77,0,0,1,.91,2.12v4.11a5,5,0,0,0,.31,2v.13Zm-2.53-1.16a2.78,2.78,0,0,0,1.36-.37,2.22,2.22,0,0,0,.93-1v-1.83h-1.2c-1.87,0-2.8.55-2.8,1.64a1.38,1.38,0,0,0,.47,1.12A1.85,1.85,0,0,0,463.79,206.65Z"/><path d="M473.59,206.73a2.22,2.22,0,0,0,1.43-.49,1.76,1.76,0,0,0,.67-1.24h1.45a2.83,2.83,0,0,1-.53,1.46,3.61,3.61,0,0,1-1.3,1.11,3.82,3.82,0,0,1-1.72.41,3.7,3.7,0,0,1-2.91-1.22,4.88,4.88,0,0,1-1.07-3.33v-.26a5.38,5.38,0,0,1,.48-2.32,3.58,3.58,0,0,1,1.37-1.58,3.94,3.94,0,0,1,2.12-.56,3.6,3.6,0,0,1,2.5.9,3.25,3.25,0,0,1,1.06,2.34h-1.45a2.08,2.08,0,0,0-.65-1.42,2,2,0,0,0-1.46-.56,2.15,2.15,0,0,0-1.81.84,4,4,0,0,0-.64,2.42v.29a3.9,3.9,0,0,0,.64,2.38A2.16,2.16,0,0,0,473.59,206.73Z"/><path d="M482.56,208a3.88,3.88,0,0,1-2.95-1.2,4.4,4.4,0,0,1-1.14-3.19v-.28a5.46,5.46,0,0,1,.5-2.37,4.06,4.06,0,0,1,1.42-1.64,3.61,3.61,0,0,1,2-.59,3.36,3.36,0,0,1,2.71,1.15,5,5,0,0,1,1,3.29v.63H480a3.2,3.2,0,0,0,.78,2.14,2.41,2.41,0,0,0,1.87.81,2.71,2.71,0,0,0,1.38-.33,3.51,3.51,0,0,0,1-.87l.93.72A3.76,3.76,0,0,1,482.56,208Zm-.19-8a2,2,0,0,0-1.55.67,3.28,3.28,0,0,0-.78,1.89h4.48v-.12a2.9,2.9,0,0,0-.63-1.8A1.9,1.9,0,0,0,482.37,200Z"/><path class="cls-1" d="M318.76,113.55a6.86,6.86,0,0,1-2.27-1.07l1-2.22a6.82,6.82,0,0,0,1.95,1,7.09,7.09,0,0,0,2.26.37,3.57,3.57,0,0,0,1.85-.38,1.11,1.11,0,0,0,.61-1,.94.94,0,0,0-.36-.75,2.71,2.71,0,0,0-.91-.49c-.37-.12-.87-.25-1.5-.4a21,21,0,0,1-2.39-.69,3.83,3.83,0,0,1-1.59-1.11,3,3,0,0,1-.67-2,3.54,3.54,0,0,1,.6-2,4.1,4.1,0,0,1,1.82-1.43,7.39,7.39,0,0,1,3-.53,9.94,9.94,0,0,1,2.38.29,7,7,0,0,1,2,.84l-.91,2.24a7.07,7.07,0,0,0-3.53-1,3.27,3.27,0,0,0-1.83.4,1.2,1.2,0,0,0-.59,1,1,1,0,0,0,.68,1,11.06,11.06,0,0,0,2.08.63,21,21,0,0,1,2.39.69,3.88,3.88,0,0,1,1.59,1.09,2.9,2.9,0,0,1,.67,2,3.54,3.54,0,0,1-.61,2,4.2,4.2,0,0,1-1.83,1.43,7.55,7.55,0,0,1-3,.52A10.5,10.5,0,0,1,318.76,113.55Z"/><path class="cls-1" d="M331.57,103.39h-4.08V101H338.6v2.4h-4.08v10.35h-2.95Z"/><path class="cls-1" d="M347.94,111H342l-1.13,2.74h-3L343.55,101h2.92l5.7,12.75h-3.1Zm-.93-2.24-2-4.88-2,4.88Z"/><path class="cls-1" d="M358.14,108.73l-1.71,1.78v3.23H353.5V101h2.93v6l5.64-6h3.28l-5.28,5.68,5.59,7.07h-3.44Z"/><path class="cls-1" d="M376.84,111.37v2.37H367V101h9.64v2.37H369.9v2.76h5.92v2.3H369.9v3Z"/><path class="cls-1" d="M390.88,101v12.75h-2.95v-5.23h-5.79v5.23h-2.95V101h2.95v5h5.79v-5Z"/><path class="cls-1" d="M396.5,113.1a6.36,6.36,0,0,1-2.49-2.36,6.8,6.8,0,0,1,0-6.76,6.34,6.34,0,0,1,2.49-2.35,7.86,7.86,0,0,1,7.15,0,6.5,6.5,0,0,1,0,11.47,7.94,7.94,0,0,1-7.15,0Zm5.62-2.18a3.69,3.69,0,0,0,1.43-1.45,4.54,4.54,0,0,0,0-4.22,3.76,3.76,0,0,0-1.43-1.45,4.26,4.26,0,0,0-4.08,0,3.83,3.83,0,0,0-1.43,1.45,4.54,4.54,0,0,0,0,4.22,3.76,3.76,0,0,0,1.43,1.45,4.26,4.26,0,0,0,4.08,0Z"/><path class="cls-1" d="M409.28,101h3v10.34h6.39v2.41h-9.34Z"/><path class="cls-1" d="M420.28,101h5.79a8.12,8.12,0,0,1,3.67.79,6,6,0,0,1,2.48,2.23,6.82,6.82,0,0,1,0,6.7,5.9,5.9,0,0,1-2.48,2.23,8.12,8.12,0,0,1-3.67.8h-5.79Zm5.64,10.32a4.3,4.3,0,0,0,3.06-1.06,4.25,4.25,0,0,0,0-5.77,4.31,4.31,0,0,0-3.06-1.07h-2.69v7.9Z"/><path class="cls-1" d="M445.19,111.37v2.37h-9.87V101H445v2.37h-6.71v2.76h5.92v2.3h-5.92v3Z"/><path class="cls-1" d="M455.66,113.74l-2.46-3.55h-2.71v3.55h-2.95V101h5.52a7.17,7.17,0,0,1,2.94.56,4.26,4.26,0,0,1,2.6,4.06,4.18,4.18,0,0,1-2.63,4l2.86,4.1Zm-.74-9.77a3.06,3.06,0,0,0-2-.58h-2.41v4.45h2.41a3.06,3.06,0,0,0,2-.59,2.29,2.29,0,0,0,0-3.28Z"/><path class="cls-1" d="M462.19,113.55a6.89,6.89,0,0,1-2.26-1.07l1-2.22a6.57,6.57,0,0,0,1.95,1,7.07,7.07,0,0,0,2.25.37,3.59,3.59,0,0,0,1.86-.38,1.12,1.12,0,0,0,.6-1,1,1,0,0,0-.35-.75,2.71,2.71,0,0,0-.91-.49c-.37-.12-.87-.25-1.51-.4a20.8,20.8,0,0,1-2.38-.69,3.83,3.83,0,0,1-1.59-1.11,3,3,0,0,1-.67-2,3.54,3.54,0,0,1,.6-2,4.07,4.07,0,0,1,1.81-1.43,7.46,7.46,0,0,1,3-.53,10,10,0,0,1,2.39.29,7,7,0,0,1,2,.84l-.91,2.24a7.11,7.11,0,0,0-3.54-1,3.31,3.31,0,0,0-1.83.4,1.22,1.22,0,0,0-.59,1,1,1,0,0,0,.69,1,11.06,11.06,0,0,0,2.08.63,21,21,0,0,1,2.39.69,3.88,3.88,0,0,1,1.59,1.09,2.94,2.94,0,0,1,.66,2,3.47,3.47,0,0,1-.61,2,4.09,4.09,0,0,1-1.83,1.43,7.47,7.47,0,0,1-3,.52A10.58,10.58,0,0,1,462.19,113.55Z"/><path class="cls-1" d="M353,77.25v6.52H326.84V78.58L340.19,66a14.28,14.28,0,0,0,2.87-3.48,6.4,6.4,0,0,0,.74-2.89,3.82,3.82,0,0,0-1.41-3.19,6.56,6.56,0,0,0-4.13-1.11,9.58,9.58,0,0,0-4.1.86,7.8,7.8,0,0,0-3.06,2.6L325.26,55a13.73,13.73,0,0,1,5.59-4.72A18.59,18.59,0,0,1,339,48.57a16.8,16.8,0,0,1,6.75,1.26,10.4,10.4,0,0,1,4.5,3.56,9.25,9.25,0,0,1,1.61,5.42,12.09,12.09,0,0,1-1.19,5.29,20.36,20.36,0,0,1-4.6,5.63l-7.95,7.52Z"/><path class="cls-1" d="M364.81,75.89a4.57,4.57,0,0,1,1.33,3.43,8.38,8.38,0,0,1-.24,2,22.75,22.75,0,0,1-1.09,3L362,91.38H357.1l2.17-7.86a4.08,4.08,0,0,1-1.95-1.6,4.7,4.7,0,0,1-.72-2.6A4.56,4.56,0,0,1,358,75.89a4.73,4.73,0,0,1,3.44-1.31A4.64,4.64,0,0,1,364.81,75.89Z"/><path class="cls-1" d="M376.28,82.24A14.23,14.23,0,0,1,371,76.08a22.29,22.29,0,0,1-1.9-9.61,22.34,22.34,0,0,1,1.9-9.62,14.26,14.26,0,0,1,5.27-6.15,14.84,14.84,0,0,1,15.32,0,14.33,14.33,0,0,1,5.27,6.15,22.49,22.49,0,0,1,1.9,9.62,22.44,22.44,0,0,1-1.9,9.61,14.3,14.3,0,0,1-5.27,6.16,14.9,14.9,0,0,1-15.32,0Zm12.63-7.37q1.8-2.72,1.8-8.4t-1.8-8.41a5.67,5.67,0,0,0-5-2.71A5.61,5.61,0,0,0,379,58.06q-1.8,2.73-1.8,8.41t1.8,8.4a5.62,5.62,0,0,0,4.92,2.72A5.68,5.68,0,0,0,388.91,74.87Z"/><path class="cls-1" d="M429.56,49.17v5.19L416.71,83.77H408l12.41-28.08H409v5.64h-7.12V49.17Z"/><path class="cls-1" d="M460.21,49.17v5.19L447.36,83.77h-8.7l12.41-28.08H439.6v5.64h-7.12V49.17Z"/><rect class="cls-1" x="45.98" y="44.33" width="161.34" height="161.34" transform="translate(125.48 -52.94) rotate(45)"/><g class="cls-2"><path class="cls-3" d="M126.65,227.48,24.17,125,126.65,22.52,229.13,125ZM27.34,125l99.31,99.32L226,125,126.65,25.68Zm99.31,89.47-34.2-34.21,26.16-26.16L93.25,128.75l-18,18,11.89,11.89,4.92-4.93-7-7,8.15-8.14,15.5,15.5L87.52,175.34l-29.9-29.91L78.05,125,57.62,104.57l29.9-29.91L108.75,95.9l-15.5,15.5-8.15-8.14,7-7-4.92-4.93L75.25,103.26l18,18L118.61,95.9,92.45,69.74l34.2-34.21,34.21,34.21L134.7,95.9l25.36,25.35,18-18L166.17,91.37l-4.93,4.93,7,7-8.14,8.14L144.55,95.9l21.23-21.24,29.9,29.91L175.25,125l20.43,20.43-29.9,29.9L144.55,154.1l15.51-15.5,8.14,8.14-7,7,4.93,4.93,11.88-11.89-18-18L134.7,154.1l26.16,26.16Zm-31-34.21,31,31,31-31L131.53,154.1l28.53-28.52,21.16,21.16-15.05,15-8.1-8.09,7-7-5-5L147.72,154.1l18.06,18.07,26.74-26.74L172.08,125l20.44-20.43L165.78,77.83,147.72,95.9l12.34,12.34,5-5-7-7,8.1-8.09,15.05,15.05-21.16,21.16L131.53,95.9l26.16-26.16-31-31-31,31L121.77,95.9,93.25,124.42,72.09,103.26l15-15.05,8.09,8.09-7,7,5,5L105.59,95.9,87.52,77.83,60.79,104.57,81.22,125,60.79,145.43l26.73,26.74,18.07-18.07L93.25,141.76l-5,5,7,7-8.09,8.09-15-15,21.16-21.16,28.52,28.52Zm105-39.75L185.1,125l15.51-15.51L216.12,125ZM188.27,125l12.34,12.34L213,125l-12.34-12.34ZM52.69,140.51,37.19,125l15.5-15.51L68.2,125ZM40.35,125l12.34,12.34L65,125,52.69,112.66Z"/><path class="cls-3" d="M126.65,203.9l-24-24,24-24,24,24Zm-20.83-24,20.83,20.83,20.83-20.83-20.83-20.83Z"/><path class="cls-3" d="M126.65,93.43l-24-24,24-24,24,24Zm-20.83-24,20.83,20.83,20.83-20.83L126.65,48.6Z"/></g><polygon class="cls-4" points="13.14 125 126.77 238.62 527.81 238.62 641.44 125 527.81 11.38 126.77 11.38 13.14 125"/><path class="cls-3" d="M78.51,142.29c.23-1.06.39-2.15.71-3.19,2.32-7.64,7.34-12.57,15.18-14.15,7.63-1.53,14.07,1,19.16,6.87l.3.36s.1.07.22.16l2.73-1.75c2.6-1.68,5.2-3.38,7.82-5a1.25,1.25,0,0,0,.67-1.2q0-4.66,0-9.31c0-.66-.15-.92-.86-1a19.78,19.78,0,0,1-17.37-17.45,19.5,19.5,0,0,1,3.6-13.67c.77-1.08,1.58-1.34,2.33-.77s.71,1.37,0,2.4a16.83,16.83,0,0,0,0,19.7c.2.28.42.54.69.89a21.76,21.76,0,0,1,6.89-7.66,8.1,8.1,0,0,1-1.57-7A7.73,7.73,0,0,1,122,85.91a8,8,0,0,1,10.2.66,8.08,8.08,0,0,1,.69,10.92,21.74,21.74,0,0,1,6.88,7.67,16.13,16.13,0,0,0,3.63-8A16.83,16.83,0,0,0,130,77.89,16.42,16.42,0,0,0,117.86,80c-.26.17-.52.35-.79.5a1.39,1.39,0,0,1-2-.4,1.38,1.38,0,0,1,.46-2,18.94,18.94,0,0,1,8-3.19,19.73,19.73,0,1,1,5.42,39.08c-.66.07-.83.29-.83.92,0,3.16,0,6.33,0,9.49a1.36,1.36,0,0,0,.51,1c3.5,2.3,7,4.56,10.63,6.88.35-.4.68-.81,1-1.19q8.27-8.77,20-6a5.41,5.41,0,0,1,.81.24,1.4,1.4,0,0,1,1,1.76,1.44,1.44,0,0,1-1.79,1,27.33,27.33,0,0,0-4-.75c-7.16-.38-12.69,2.54-16.1,8.81s-2.75,12.48,1.4,18.3c.09.12.21.22.36.39a21.67,21.67,0,0,1,6.87-7.63,8.17,8.17,0,0,1-1.49-7.35,7.77,7.77,0,0,1,3.12-4.35,8,8,0,0,1,10.86,11.58c1.26,1.16,2.6,2.24,3.74,3.51s2.09,2.73,3.14,4.14a15.83,15.83,0,0,0,3.55-8.15,16.7,16.7,0,0,0-6.6-16c-1-.75-1.15-1.49-.59-2.23a1.43,1.43,0,0,1,2.16-.11,19.08,19.08,0,0,1,7.82,13.12,19.73,19.73,0,1,1-37.07-6.23c.07-.13.12-.28.22-.5l-4-2.6c-2.16-1.39-4.31-2.79-6.48-4.16a1.1,1.1,0,0,0-.89-.15c-3.6,2.28-7.17,4.6-10.56,6.79a68.2,68.2,0,0,1,1.9,6.55c2,10.46-5.8,21.13-16.35,22.59-.37.06-.74.13-1.11.16a1.46,1.46,0,0,1-1.71-1.23,1.41,1.41,0,0,1,1.38-1.57,17.26,17.26,0,0,0,8.09-3c.4-.29.79-.61,1.35-1.05-.81-1.24-1.55-2.51-2.42-3.67a17.3,17.3,0,0,0-5.08-4.4c-1.43-.85-1.51-1.75-.24-2.85a5.16,5.16,0,0,0-3.76-9.1,5.16,5.16,0,0,0-2.94,9c1.34,1.21,1.26,2.05-.3,3a18,18,0,0,0-7.31,8.08,16.34,16.34,0,0,0,6.28,3.42c.27.08.55.13.82.21,1,.28,1.43,1,1.22,1.79a1.45,1.45,0,0,1-2,.93,21.48,21.48,0,0,1-2.94-1,19.5,19.5,0,0,1-12-15.73,3.5,3.5,0,0,0-.17-.52Zm32.81,12.54c4.72-5.19,5.87-15.34-.94-22.34a16.81,16.81,0,0,0-24.5.27c-6.68,7.15-5.2,17.21-.75,22,1-1.36,2-2.82,3.1-4.09s2.49-2.36,3.75-3.53c-2.52-4.32-2.16-8.21,1.08-11.06a8,8,0,0,1,10.14-.27,7.89,7.89,0,0,1,2.91,4.59,8.17,8.17,0,0,1-1.62,6.84A21.58,21.58,0,0,1,111.32,154.83Zm4.42-47.53a16.92,16.92,0,0,0,21.4.47c.45-.36.49-.65.21-1.09-.56-.89-1.07-1.84-1.7-2.69a17.62,17.62,0,0,0-5.45-4.82c-1.34-.78-1.43-1.73-.29-2.74l.35-.32a5.17,5.17,0,1,0-7,.14c1.44,1.29,1.35,2.06-.32,3.07A17.89,17.89,0,0,0,115.74,107.3ZM166,157a18,18,0,0,0-7.25-8c-1.57-.94-1.64-1.75-.31-3a5.16,5.16,0,0,0-3-9.06,5.13,5.13,0,0,0-5.15,3.18,5.24,5.24,0,0,0,1.35,5.84,3.12,3.12,0,0,1,.93,1.23c.24.87-.41,1.34-1.1,1.74a17.87,17.87,0,0,0-7.33,8C150.19,162.56,160.24,162.4,166,157Z"/></svg>