<svg id="Layer_1" data-name="Layer 1" xmlns="http://www.w3.org/2000/svg" viewBox="0 0 654 250"><defs><style>.cls-1{fill:none;stroke:#f26e25;stroke-miterlimit:10;}.cls-2{fill:#f26e25;}.cls-3{opacity:0.15;}.cls-4{fill:#fff;}</style></defs><polygon class="cls-1" points="12.85 125 126.58 238.73 528 238.73 641.73 125 528 11.27 126.58 11.27 12.85 125"/><path d="M278.59,142.16a4.89,4.89,0,0,1-.87,3,2.75,2.75,0,0,1-2.33,1.16,3,3,0,0,1-2.37-1v4h-1.41V137.94h1.29l.07.91a2.91,2.91,0,0,1,2.4-1.06,2.81,2.81,0,0,1,2.35,1.12,5,5,0,0,1,.87,3.12Zm-1.42-.16a3.64,3.64,0,0,0-.59-2.21A1.92,1.92,0,0,0,275,139a2.08,2.08,0,0,0-1.93,1.14v3.95a2.09,2.09,0,0,0,1.94,1.12,1.9,1.9,0,0,0,1.62-.8A4,4,0,0,0,277.17,142Z"/><path d="M285.48,146.19a2.64,2.64,0,0,1-.2-.87,3.13,3.13,0,0,1-2.35,1,2.94,2.94,0,0,1-2-.69,2.24,2.24,0,0,1-.78-1.75,2.36,2.36,0,0,1,1-2,4.69,4.69,0,0,1,2.76-.71h1.37v-.65a1.57,1.57,0,0,0-.44-1.18,1.78,1.78,0,0,0-1.3-.44,2.08,2.08,0,0,0-1.27.38,1.15,1.15,0,0,0-.51.93h-1.42a2,2,0,0,1,.44-1.2,3.07,3.07,0,0,1,1.19-.91,4.05,4.05,0,0,1,1.65-.33,3.26,3.26,0,0,1,2.24.71,2.57,2.57,0,0,1,.84,2v3.8a4.53,4.53,0,0,0,.29,1.81v.12Zm-2.35-1.07a2.56,2.56,0,0,0,1.26-.34,2,2,0,0,0,.86-.9v-1.69h-1.1c-1.73,0-2.6.5-2.6,1.52a1.25,1.25,0,0,0,.45,1A1.68,1.68,0,0,0,283.13,145.12Z"/><path d="M292.87,139.21a3.88,3.88,0,0,0-.7-.06,1.87,1.87,0,0,0-1.88,1.18v5.86h-1.41v-8.25h1.37l0,.95a2.22,2.22,0,0,1,2-1.1,1.47,1.47,0,0,1,.63.1Z"/><path d="M296.46,135.94v2H298V139h-1.54v5.13a1.11,1.11,0,0,0,.21.74.84.84,0,0,0,.7.25,3.54,3.54,0,0,0,.67-.09v1.14a4.13,4.13,0,0,1-1.08.15,1.74,1.74,0,0,1-1.43-.58,2.45,2.45,0,0,1-.48-1.62V139h-1.5v-1.09h1.5v-2Z"/><path d="M299.66,135.75a.84.84,0,0,1,.21-.58.77.77,0,0,1,.62-.24.78.78,0,0,1,.62.24.81.81,0,0,1,.22.58.77.77,0,0,1-.22.57.81.81,0,0,1-.62.23.76.76,0,0,1-.83-.8Zm1.52,10.44h-1.41v-8.25h1.41Z"/><path d="M306.75,145.19a2,2,0,0,0,1.32-.45,1.62,1.62,0,0,0,.63-1.15H310a2.46,2.46,0,0,1-.48,1.35,3.22,3.22,0,0,1-1.21,1,3.51,3.51,0,0,1-1.59.38,3.42,3.42,0,0,1-2.68-1.13,4.49,4.49,0,0,1-1-3.08v-.23a4.92,4.92,0,0,1,.44-2.15,3.33,3.33,0,0,1,1.27-1.45,3.56,3.56,0,0,1,2-.52,3.27,3.27,0,0,1,2.3.83,2.93,2.93,0,0,1,1,2.16H308.7a1.91,1.91,0,0,0-.61-1.32,1.88,1.88,0,0,0-1.34-.51,2,2,0,0,0-1.67.77,3.6,3.6,0,0,0-.59,2.24v.27a3.55,3.55,0,0,0,.58,2.19A2,2,0,0,0,306.75,145.19Z"/><path d="M311.63,135.75a.84.84,0,0,1,.21-.58.78.78,0,0,1,.62-.24.82.82,0,0,1,.63.24.84.84,0,0,1,.21.58.8.8,0,0,1-.21.57.85.85,0,0,1-.63.23.81.81,0,0,1-.62-.23A.8.8,0,0,1,311.63,135.75Zm1.52,10.44h-1.41v-8.25h1.41Z"/><path d="M322.39,142.16a4.89,4.89,0,0,1-.87,3,2.75,2.75,0,0,1-2.33,1.16,3,3,0,0,1-2.37-1v4h-1.41V137.94h1.29l.07.91a2.91,2.91,0,0,1,2.4-1.06,2.81,2.81,0,0,1,2.35,1.12,5,5,0,0,1,.87,3.12ZM321,142a3.64,3.64,0,0,0-.59-2.21,1.92,1.92,0,0,0-1.63-.81,2.08,2.08,0,0,0-1.93,1.14v3.95a2.09,2.09,0,0,0,1.94,1.12,1.9,1.9,0,0,0,1.62-.8A4,4,0,0,0,321,142Z"/><path d="M329.27,146.19a3,3,0,0,1-.19-.87,3.13,3.13,0,0,1-2.35,1,2.94,2.94,0,0,1-2-.69,2.24,2.24,0,0,1-.78-1.75,2.36,2.36,0,0,1,1-2,4.67,4.67,0,0,1,2.76-.71h1.37v-.65a1.57,1.57,0,0,0-.44-1.18,1.78,1.78,0,0,0-1.3-.44,2.08,2.08,0,0,0-1.27.38,1.15,1.15,0,0,0-.51.93h-1.42a2,2,0,0,1,.44-1.2,3.07,3.07,0,0,1,1.19-.91,4.05,4.05,0,0,1,1.65-.33,3.26,3.26,0,0,1,2.24.71,2.57,2.57,0,0,1,.84,2v3.8a4.74,4.74,0,0,0,.28,1.81v.12Zm-2.34-1.07a2.56,2.56,0,0,0,1.26-.34,2,2,0,0,0,.86-.9v-1.69H328c-1.73,0-2.6.5-2.6,1.52a1.25,1.25,0,0,0,.45,1A1.68,1.68,0,0,0,326.93,145.12Z"/><path d="M334.59,135.94v2h1.54V139h-1.54v5.13a1.11,1.11,0,0,0,.21.74.85.85,0,0,0,.7.25,3.44,3.44,0,0,0,.67-.09v1.14a4.13,4.13,0,0,1-1.08.15,1.74,1.74,0,0,1-1.43-.58,2.45,2.45,0,0,1-.48-1.62V139h-1.5v-1.09h1.5v-2Z"/><path d="M341.21,146.35a3.59,3.59,0,0,1-2.73-1.11,4,4,0,0,1-1.06-2.94V142a5,5,0,0,1,.47-2.2,3.71,3.71,0,0,1,1.31-1.51,3.37,3.37,0,0,1,1.83-.54,3.07,3.07,0,0,1,2.5,1.06,4.55,4.55,0,0,1,.9,3v.59h-5.6a3,3,0,0,0,.72,2,2.23,2.23,0,0,0,1.73.75,2.51,2.51,0,0,0,1.27-.3,3,3,0,0,0,.91-.81l.86.67A3.45,3.45,0,0,1,341.21,146.35ZM341,139a1.84,1.84,0,0,0-1.43.62,3,3,0,0,0-.72,1.74H343v-.11a2.71,2.71,0,0,0-.58-1.66A1.77,1.77,0,0,0,341,139Z"/><path d="M345.72,142a4.84,4.84,0,0,1,.9-3.06,2.83,2.83,0,0,1,2.35-1.15,2.88,2.88,0,0,1,2.3,1v-4.3h1.41v11.71h-1.3l-.06-.88a2.9,2.9,0,0,1-2.36,1,2.8,2.8,0,0,1-2.34-1.18,4.89,4.89,0,0,1-.9-3.07Zm1.41.16a3.66,3.66,0,0,0,.58,2.2,1.88,1.88,0,0,0,1.6.79,2.06,2.06,0,0,0,2-1.21v-3.79a2.07,2.07,0,0,0-1.95-1.17,1.86,1.86,0,0,0-1.61.81A4,4,0,0,0,347.13,142.16Z"/><path d="M358.75,135.75a.84.84,0,0,1,.21-.58.77.77,0,0,1,.62-.24.78.78,0,0,1,.62.24.81.81,0,0,1,.22.58.77.77,0,0,1-.22.57.81.81,0,0,1-.62.23.76.76,0,0,1-.83-.8Zm1.52,10.44h-1.41v-8.25h1.41Z"/><path d="M363.87,137.94l0,1a3,3,0,0,1,2.47-1.19c1.75,0,2.63,1,2.64,3v5.45h-1.41v-5.46a1.88,1.88,0,0,0-.41-1.32A1.63,1.63,0,0,0,366,139a2.09,2.09,0,0,0-1.21.37,2.62,2.62,0,0,0-.81,1v5.88h-1.41v-8.25Z"/><path d="M380.12,146.19a2.64,2.64,0,0,1-.2-.87,3.13,3.13,0,0,1-2.35,1,2.89,2.89,0,0,1-2-.69,2.22,2.22,0,0,1-.79-1.75,2.36,2.36,0,0,1,1-2,4.69,4.69,0,0,1,2.76-.71h1.37v-.65a1.57,1.57,0,0,0-.44-1.18,1.78,1.78,0,0,0-1.3-.44,2.08,2.08,0,0,0-1.27.38,1.15,1.15,0,0,0-.51.93H375a2,2,0,0,1,.44-1.2,3.07,3.07,0,0,1,1.19-.91,4.05,4.05,0,0,1,1.65-.33,3.26,3.26,0,0,1,2.24.71,2.57,2.57,0,0,1,.84,2v3.8a4.53,4.53,0,0,0,.29,1.81v.12Zm-2.35-1.07a2.53,2.53,0,0,0,1.26-.34,2,2,0,0,0,.86-.9v-1.69h-1.1c-1.73,0-2.6.5-2.6,1.52a1.25,1.25,0,0,0,.45,1A1.68,1.68,0,0,0,377.77,145.12Z"/><path d="M389.3,135.94v2h1.54V139H389.3v5.13a1.11,1.11,0,0,0,.21.74.85.85,0,0,0,.7.25,3.44,3.44,0,0,0,.67-.09v1.14a4.13,4.13,0,0,1-1.08.15,1.74,1.74,0,0,1-1.43-.58,2.45,2.45,0,0,1-.48-1.62V139h-1.5v-1.09h1.5v-2Z"/><path d="M393.9,138.94a3,3,0,0,1,2.44-1.15c1.75,0,2.63,1,2.64,3v5.45h-1.41v-5.46a1.88,1.88,0,0,0-.41-1.32,1.63,1.63,0,0,0-1.24-.43,2.09,2.09,0,0,0-1.21.37,2.62,2.62,0,0,0-.81,1v5.88h-1.41V134.48h1.41Z"/><path d="M405.09,139.21a3.88,3.88,0,0,0-.7-.06,1.87,1.87,0,0,0-1.88,1.18v5.86H401.1v-8.25h1.37l0,.95a2.22,2.22,0,0,1,2-1.1,1.5,1.5,0,0,1,.63.1Z"/><path d="M409.66,146.35a3.59,3.59,0,0,1-2.73-1.11,4.07,4.07,0,0,1-1.05-2.94V142a5,5,0,0,1,.47-2.2,3.71,3.71,0,0,1,1.31-1.51,3.32,3.32,0,0,1,1.83-.54,3.07,3.07,0,0,1,2.5,1.06,4.55,4.55,0,0,1,.89,3v.59h-5.59a3,3,0,0,0,.71,2,2.26,2.26,0,0,0,1.74.75,2.51,2.51,0,0,0,1.27-.3,3.13,3.13,0,0,0,.9-.81l.87.67A3.47,3.47,0,0,1,409.66,146.35Zm-.17-7.4a1.88,1.88,0,0,0-1.44.62,3,3,0,0,0-.71,1.74h4.13v-.11a2.65,2.65,0,0,0-.58-1.66A1.74,1.74,0,0,0,409.49,139Z"/><path d="M417.94,146.35a3.59,3.59,0,0,1-2.73-1.11,4.07,4.07,0,0,1-1-2.94V142a4.9,4.9,0,0,1,.47-2.2,3.71,3.71,0,0,1,1.31-1.51,3.32,3.32,0,0,1,1.83-.54,3.09,3.09,0,0,1,2.5,1.06,4.6,4.6,0,0,1,.89,3v.59h-5.59a3,3,0,0,0,.71,2,2.26,2.26,0,0,0,1.74.75,2.45,2.45,0,0,0,1.26-.3,3,3,0,0,0,.91-.81l.86.67A3.44,3.44,0,0,1,417.94,146.35Zm-.17-7.4a1.88,1.88,0,0,0-1.44.62,3,3,0,0,0-.72,1.74h4.14v-.11a2.65,2.65,0,0,0-.58-1.66A1.75,1.75,0,0,0,417.77,139Z"/><path d="M425.73,142.05H422V140.9h3.72Z"/><path d="M428.43,137.94l0,.91a3.05,3.05,0,0,1,2.45-1.06,2.37,2.37,0,0,1,2.36,1.32,3,3,0,0,1,2.63-1.32c1.81,0,2.73,1,2.76,2.87v5.53h-1.41v-5.44a1.92,1.92,0,0,0-.41-1.33,1.78,1.78,0,0,0-1.35-.44,1.9,1.9,0,0,0-1.31.47,2,2,0,0,0-.6,1.27v5.47h-1.42v-5.41a1.57,1.57,0,0,0-1.76-1.8,1.89,1.89,0,0,0-1.9,1.19v6H427.1v-8.25Z"/><path d="M440.42,142a4.82,4.82,0,0,1,.48-2.18,3.54,3.54,0,0,1,1.33-1.5,3.61,3.61,0,0,1,1.94-.52A3.51,3.51,0,0,1,446.9,139a4.53,4.53,0,0,1,1,3.11v.1a4.89,4.89,0,0,1-.46,2.16,3.49,3.49,0,0,1-1.32,1.49,3.62,3.62,0,0,1-2,.54,3.46,3.46,0,0,1-2.72-1.17,4.45,4.45,0,0,1-1.05-3.09Zm1.42.17a3.55,3.55,0,0,0,.64,2.2,2,2,0,0,0,1.71.83,2,2,0,0,0,1.71-.84,3.87,3.87,0,0,0,.63-2.36,3.53,3.53,0,0,0-.65-2.2,2,2,0,0,0-1.71-.84,2,2,0,0,0-1.69.83A3.88,3.88,0,0,0,441.84,142.16Z"/><path d="M451.05,137.94l0,1a3,3,0,0,1,2.47-1.19c1.75,0,2.63,1,2.64,3v5.45h-1.41v-5.46a1.88,1.88,0,0,0-.41-1.32,1.63,1.63,0,0,0-1.24-.43,2.09,2.09,0,0,0-1.21.37,2.44,2.44,0,0,0-.81,1v5.88h-1.41v-8.25Z"/><path d="M460.25,135.94v2h1.54V139h-1.54v5.13a1.17,1.17,0,0,0,.2.74.85.85,0,0,0,.7.25,3.53,3.53,0,0,0,.68-.09v1.14a4.26,4.26,0,0,1-1.09.15,1.72,1.72,0,0,1-1.42-.58,2.39,2.39,0,0,1-.48-1.62V139h-1.51v-1.09h1.51v-2Z"/><path d="M464.85,138.94a3,3,0,0,1,2.44-1.15c1.74,0,2.62,1,2.64,3v5.45h-1.41v-5.46a1.93,1.93,0,0,0-.41-1.32,1.66,1.66,0,0,0-1.25-.43,2,2,0,0,0-1.2.37,2.44,2.44,0,0,0-.81,1v5.88h-1.41V134.48h1.41Z"/><path d="M480.72,144a1,1,0,0,0-.44-.88,3.83,3.83,0,0,0-1.5-.55,7.21,7.21,0,0,1-1.7-.55,2.42,2.42,0,0,1-.93-.76,1.85,1.85,0,0,1-.3-1,2.13,2.13,0,0,1,.86-1.72,3.33,3.33,0,0,1,2.19-.7,3.48,3.48,0,0,1,2.28.72,2.3,2.3,0,0,1,.87,1.86h-1.42a1.26,1.26,0,0,0-.49-1,1.84,1.84,0,0,0-1.24-.42,2,2,0,0,0-1.21.33,1.07,1.07,0,0,0-.43.88.85.85,0,0,0,.4.77,5.16,5.16,0,0,0,1.46.5,7.22,7.22,0,0,1,1.72.56,2.53,2.53,0,0,1,1,.79,2,2,0,0,1,.32,1.13,2.13,2.13,0,0,1-.89,1.77,3.74,3.74,0,0,1-2.3.67,4.2,4.2,0,0,1-1.75-.35,2.9,2.9,0,0,1-1.19-1,2.36,2.36,0,0,1-.43-1.37H477a1.43,1.43,0,0,0,.57,1.13,2.17,2.17,0,0,0,1.39.41,2.24,2.24,0,0,0,1.29-.32A1,1,0,0,0,480.72,144Z"/><path d="M487.39,146.35a3.59,3.59,0,0,1-2.73-1.11,4.07,4.07,0,0,1-1.05-2.94V142a4.9,4.9,0,0,1,.47-2.2,3.71,3.71,0,0,1,1.31-1.51,3.32,3.32,0,0,1,1.83-.54,3.09,3.09,0,0,1,2.5,1.06,4.6,4.6,0,0,1,.89,3v.59H485a3,3,0,0,0,.71,2,2.26,2.26,0,0,0,1.74.75,2.45,2.45,0,0,0,1.26-.3,3,3,0,0,0,.91-.81l.86.67A3.45,3.45,0,0,1,487.39,146.35Zm-.17-7.4a1.88,1.88,0,0,0-1.44.62,3,3,0,0,0-.72,1.74h4.14v-.11a2.65,2.65,0,0,0-.58-1.66A1.75,1.75,0,0,0,487.22,139Z"/><path d="M496.23,139.21a3.69,3.69,0,0,0-.69-.06,1.87,1.87,0,0,0-1.89,1.18v5.86h-1.41v-8.25h1.38l0,.95a2.21,2.21,0,0,1,2-1.1,1.45,1.45,0,0,1,.62.1Z"/><path d="M497.54,135.75a.84.84,0,0,1,.21-.58.78.78,0,0,1,.62-.24.82.82,0,0,1,.63.24.84.84,0,0,1,.21.58.8.8,0,0,1-.21.57.85.85,0,0,1-.63.23.81.81,0,0,1-.62-.23A.8.8,0,0,1,497.54,135.75Zm1.52,10.44h-1.41v-8.25h1.41Z"/><path d="M504.75,146.35a3.59,3.59,0,0,1-2.73-1.11A4,4,0,0,1,501,142.3V142a5,5,0,0,1,.47-2.2,3.78,3.78,0,0,1,1.31-1.51,3.37,3.37,0,0,1,1.83-.54,3.07,3.07,0,0,1,2.5,1.06,4.55,4.55,0,0,1,.9,3v.59h-5.6a3,3,0,0,0,.72,2,2.23,2.23,0,0,0,1.73.75,2.51,2.51,0,0,0,1.27-.3,3,3,0,0,0,.91-.81l.86.67A3.45,3.45,0,0,1,504.75,146.35Zm-.18-7.4a1.84,1.84,0,0,0-1.43.62,3,3,0,0,0-.72,1.74h4.14v-.11a2.71,2.71,0,0,0-.58-1.66A1.77,1.77,0,0,0,504.57,139Z"/><path d="M514.41,144a1,1,0,0,0-.43-.88,4,4,0,0,0-1.51-.55,7.21,7.21,0,0,1-1.7-.55,2.42,2.42,0,0,1-.93-.76,1.85,1.85,0,0,1-.3-1,2.15,2.15,0,0,1,.86-1.72,3.33,3.33,0,0,1,2.19-.7,3.46,3.46,0,0,1,2.28.72,2.3,2.3,0,0,1,.87,1.86h-1.42a1.26,1.26,0,0,0-.49-1,1.84,1.84,0,0,0-1.24-.42,1.94,1.94,0,0,0-1.2.33,1.08,1.08,0,0,0-.44.88.87.87,0,0,0,.4.77,5.14,5.14,0,0,0,1.47.5,7.28,7.28,0,0,1,1.71.56,2.45,2.45,0,0,1,1,.79,2,2,0,0,1,.32,1.13,2.13,2.13,0,0,1-.89,1.77,3.73,3.73,0,0,1-2.29.67,4.22,4.22,0,0,1-1.76-.35,3,3,0,0,1-1.19-1,2.36,2.36,0,0,1-.43-1.37h1.41a1.43,1.43,0,0,0,.57,1.13,2.18,2.18,0,0,0,1.4.41,2.23,2.23,0,0,0,1.28-.32A1,1,0,0,0,514.41,144Z"/><path d="M278.62,160.74a4.82,4.82,0,0,1,.47-2.18,3.54,3.54,0,0,1,1.33-1.5,3.61,3.61,0,0,1,1.94-.52,3.51,3.51,0,0,1,2.73,1.16,4.53,4.53,0,0,1,1,3.11v.1a4.89,4.89,0,0,1-.46,2.16,3.49,3.49,0,0,1-1.32,1.49,3.62,3.62,0,0,1-2,.54,3.46,3.46,0,0,1-2.72-1.17,4.45,4.45,0,0,1-1-3.09Zm1.42.17a3.55,3.55,0,0,0,.63,2.2,2.17,2.17,0,0,0,3.42,0,3.87,3.87,0,0,0,.63-2.36,3.51,3.51,0,0,0-.64-2.2,2.07,2.07,0,0,0-1.72-.84,2,2,0,0,0-1.68.83A3.81,3.81,0,0,0,280,160.91Z"/><path d="M288.6,164.94v-7.16h-1.31v-1.09h1.31v-.85a2.78,2.78,0,0,1,.71-2.05,2.68,2.68,0,0,1,2-.72,4,4,0,0,1,1,.12l-.08,1.14a4.56,4.56,0,0,0-.76-.07,1.4,1.4,0,0,0-1.06.4,1.65,1.65,0,0,0-.37,1.16v.87h1.76v1.09H290v7.16Z"/><path d="M302.29,164.94a2.92,2.92,0,0,1-.2-.87,3.12,3.12,0,0,1-2.35,1,2.91,2.91,0,0,1-2-.69,2.25,2.25,0,0,1-.78-1.76,2.33,2.33,0,0,1,1-2,4.65,4.65,0,0,1,2.76-.71h1.37v-.65a1.61,1.61,0,0,0-.44-1.18,1.8,1.8,0,0,0-1.31-.44,2.07,2.07,0,0,0-1.26.38,1.13,1.13,0,0,0-.52.93h-1.41a2,2,0,0,1,.43-1.2,3.15,3.15,0,0,1,1.19-.91,4.1,4.1,0,0,1,1.66-.33,3.23,3.23,0,0,1,2.23.71,2.57,2.57,0,0,1,.84,2V163a4.72,4.72,0,0,0,.29,1.81v.12ZM300,163.87a2.5,2.5,0,0,0,1.26-.35,2,2,0,0,0,.86-.89v-1.69H301c-1.73,0-2.59.5-2.59,1.52a1.27,1.27,0,0,0,.44,1A1.72,1.72,0,0,0,300,163.87Z"/><path d="M313,163l1.59-6.31H316l-2.4,8.25h-1.15l-2-6.25-2,6.25h-1.14l-2.4-8.25h1.41l1.62,6.18,1.92-6.18H311Z"/><path d="M322.53,164.94a2.92,2.92,0,0,1-.2-.87,3.12,3.12,0,0,1-2.35,1,2.91,2.91,0,0,1-2-.69,2.25,2.25,0,0,1-.78-1.76,2.33,2.33,0,0,1,1-2,4.65,4.65,0,0,1,2.76-.71h1.37v-.65a1.61,1.61,0,0,0-.44-1.18,1.8,1.8,0,0,0-1.31-.44,2.07,2.07,0,0,0-1.26.38,1.13,1.13,0,0,0-.52.93h-1.41a2,2,0,0,1,.43-1.2,3.15,3.15,0,0,1,1.19-.91,4.1,4.1,0,0,1,1.66-.33,3.23,3.23,0,0,1,2.23.71,2.57,2.57,0,0,1,.84,2V163a4.72,4.72,0,0,0,.29,1.81v.12Zm-2.34-1.07a2.5,2.5,0,0,0,1.26-.35,2,2,0,0,0,.86-.89v-1.69H321.2c-1.73,0-2.59.5-2.59,1.52a1.27,1.27,0,0,0,.44,1A1.72,1.72,0,0,0,320.19,163.87Z"/><path d="M329.92,158a3.69,3.69,0,0,0-.69-.06,1.87,1.87,0,0,0-1.89,1.18v5.86h-1.41v-8.25h1.38l0,.95a2.21,2.21,0,0,1,2-1.1,1.45,1.45,0,0,1,.62.1Z"/><path d="M334.5,165.1a3.59,3.59,0,0,1-2.73-1.11,4.07,4.07,0,0,1-1-2.94v-.26a4.9,4.9,0,0,1,.47-2.2,3.71,3.71,0,0,1,1.31-1.51,3.32,3.32,0,0,1,1.83-.54,3.09,3.09,0,0,1,2.5,1.06,4.6,4.6,0,0,1,.89,3v.59h-5.59a3,3,0,0,0,.71,2,2.26,2.26,0,0,0,1.74.75,2.45,2.45,0,0,0,1.26-.3,3,3,0,0,0,.91-.81l.86.67A3.45,3.45,0,0,1,334.5,165.1Zm-.17-7.4a1.88,1.88,0,0,0-1.44.62,3,3,0,0,0-.72,1.74h4.14V160a2.65,2.65,0,0,0-.58-1.66A1.75,1.75,0,0,0,334.33,157.7Z"/><path d="M340.69,156.69l0,1a3,3,0,0,1,2.48-1.19c1.74,0,2.62,1,2.64,3v5.45h-1.42v-5.46a1.93,1.93,0,0,0-.4-1.32,1.67,1.67,0,0,0-1.25-.43,2.09,2.09,0,0,0-1.21.37,2.54,2.54,0,0,0-.81,1v5.88h-1.41v-8.25Z"/><path d="M351.4,165.1a3.59,3.59,0,0,1-2.73-1.11,4.07,4.07,0,0,1-1.05-2.94v-.26a5,5,0,0,1,.46-2.2,3.73,3.73,0,0,1,1.32-1.51,3.31,3.31,0,0,1,1.82-.54,3.1,3.1,0,0,1,2.51,1.06,4.6,4.6,0,0,1,.89,3v.59H349a2.91,2.91,0,0,0,.71,2,2.23,2.23,0,0,0,1.74.75,2.47,2.47,0,0,0,1.26-.3,3,3,0,0,0,.91-.81l.86.67A3.45,3.45,0,0,1,351.4,165.1Zm-.18-7.4a1.86,1.86,0,0,0-1.43.62,3,3,0,0,0-.72,1.74h4.14V160a2.71,2.71,0,0,0-.58-1.66A1.77,1.77,0,0,0,351.22,157.7Z"/><path d="M361.06,162.75a1,1,0,0,0-.43-.88,4,4,0,0,0-1.51-.55,7.21,7.21,0,0,1-1.7-.55,2.42,2.42,0,0,1-.93-.76,1.86,1.86,0,0,1-.3-1.06,2.15,2.15,0,0,1,.86-1.71,3.33,3.33,0,0,1,2.19-.7,3.46,3.46,0,0,1,2.28.72,2.3,2.3,0,0,1,.87,1.85H361a1.26,1.26,0,0,0-.49-1,1.84,1.84,0,0,0-1.24-.42,1.94,1.94,0,0,0-1.2.33,1.08,1.08,0,0,0-.44.88.86.86,0,0,0,.41.77,5,5,0,0,0,1.46.5,7.28,7.28,0,0,1,1.71.56,2.45,2.45,0,0,1,1,.79,1.94,1.94,0,0,1,.32,1.12,2.13,2.13,0,0,1-.89,1.78,3.73,3.73,0,0,1-2.29.67,4.25,4.25,0,0,1-1.76-.35,3,3,0,0,1-1.19-1,2.36,2.36,0,0,1-.43-1.37h1.41a1.43,1.43,0,0,0,.57,1.13,2.18,2.18,0,0,0,1.4.41,2.23,2.23,0,0,0,1.28-.32A1,1,0,0,0,361.06,162.75Z"/><path d="M369.11,162.75a1,1,0,0,0-.43-.88,3.83,3.83,0,0,0-1.5-.55,7.21,7.21,0,0,1-1.7-.55,2.42,2.42,0,0,1-.93-.76,1.86,1.86,0,0,1-.3-1.06,2.12,2.12,0,0,1,.86-1.71,3.33,3.33,0,0,1,2.19-.7,3.5,3.5,0,0,1,2.28.72,2.3,2.3,0,0,1,.87,1.85H369a1.26,1.26,0,0,0-.49-1,1.84,1.84,0,0,0-1.24-.42,2,2,0,0,0-1.21.33,1.07,1.07,0,0,0-.43.88.85.85,0,0,0,.4.77,5.16,5.16,0,0,0,1.46.5,7.22,7.22,0,0,1,1.72.56,2.53,2.53,0,0,1,1,.79,1.94,1.94,0,0,1,.32,1.12,2.13,2.13,0,0,1-.89,1.78,3.74,3.74,0,0,1-2.3.67,4.2,4.2,0,0,1-1.75-.35,2.9,2.9,0,0,1-1.19-1,2.38,2.38,0,0,1-.44-1.37h1.42a1.45,1.45,0,0,0,.56,1.13,2.2,2.2,0,0,0,1.4.41,2.24,2.24,0,0,0,1.29-.32A1,1,0,0,0,369.11,162.75Z"/><path d="M375.3,160.8h-3.72v-1.15h3.72Z"/><path d="M380.67,158a3.88,3.88,0,0,0-.7-.06,1.86,1.86,0,0,0-1.88,1.18v5.86h-1.41v-8.25h1.37l0,.95a2.21,2.21,0,0,1,2-1.1,1.53,1.53,0,0,1,.63.1Z"/><path d="M386.75,164.94a3.28,3.28,0,0,1-.2-.87,3.1,3.1,0,0,1-2.34,1,2.92,2.92,0,0,1-2-.69,2.25,2.25,0,0,1-.78-1.76,2.35,2.35,0,0,1,1-2,4.65,4.65,0,0,1,2.76-.71h1.37v-.65a1.61,1.61,0,0,0-.44-1.18,1.79,1.79,0,0,0-1.3-.44,2.08,2.08,0,0,0-1.27.38,1.15,1.15,0,0,0-.51.93h-1.42a1.94,1.94,0,0,1,.44-1.2,3.07,3.07,0,0,1,1.19-.91,4.05,4.05,0,0,1,1.65-.33,3.21,3.21,0,0,1,2.23.71,2.57,2.57,0,0,1,.84,2V163a4.72,4.72,0,0,0,.29,1.81v.12Zm-2.34-1.07a2.5,2.5,0,0,0,1.26-.35,2,2,0,0,0,.86-.89v-1.69h-1.1c-1.73,0-2.6.5-2.6,1.52a1.27,1.27,0,0,0,.44,1A1.72,1.72,0,0,0,384.41,163.87Z"/><path d="M390.16,154.5a.84.84,0,0,1,.21-.58.79.79,0,0,1,.63-.24.78.78,0,0,1,.62.24.85.85,0,0,1,.22.58.77.77,0,0,1-.84.8.82.82,0,0,1-.63-.23A.8.8,0,0,1,390.16,154.5Zm1.53,10.44h-1.41v-8.25h1.41Z"/><path d="M398.75,162.75a1,1,0,0,0-.43-.88,3.9,3.9,0,0,0-1.5-.55,7.06,7.06,0,0,1-1.7-.55,2.42,2.42,0,0,1-.93-.76,1.86,1.86,0,0,1-.3-1.06,2.14,2.14,0,0,1,.85-1.71,3.37,3.37,0,0,1,2.2-.7,3.5,3.5,0,0,1,2.28.72,2.3,2.3,0,0,1,.87,1.85h-1.42a1.26,1.26,0,0,0-.49-1,1.84,1.84,0,0,0-1.24-.42,2,2,0,0,0-1.21.33,1.07,1.07,0,0,0-.43.88.85.85,0,0,0,.4.77,5.16,5.16,0,0,0,1.46.5,7.22,7.22,0,0,1,1.72.56,2.53,2.53,0,0,1,1,.79,1.94,1.94,0,0,1,.32,1.12,2.13,2.13,0,0,1-.89,1.78,3.76,3.76,0,0,1-2.3.67,4.2,4.2,0,0,1-1.75-.35,2.9,2.9,0,0,1-1.19-1,2.38,2.38,0,0,1-.44-1.37H395a1.45,1.45,0,0,0,.56,1.13,2.2,2.2,0,0,0,1.4.41,2.24,2.24,0,0,0,1.29-.32A1,1,0,0,0,398.75,162.75Z"/><path d="M402,154.5a.84.84,0,0,1,.21-.58.78.78,0,0,1,.62-.24.79.79,0,0,1,.63.24.84.84,0,0,1,.21.58.8.8,0,0,1-.21.57.82.82,0,0,1-.63.23.81.81,0,0,1-.62-.23A.8.8,0,0,1,402,154.5Zm1.53,10.44h-1.41v-8.25h1.41Z"/><path d="M407.13,156.69l.05,1a3,3,0,0,1,2.47-1.19c1.74,0,2.62,1,2.64,3v5.45h-1.41v-5.46a1.93,1.93,0,0,0-.41-1.32,1.66,1.66,0,0,0-1.25-.43,2,2,0,0,0-1.2.37,2.37,2.37,0,0,0-.81,1v5.88H405.8v-8.25Z"/><path d="M414.08,160.75a4.87,4.87,0,0,1,.89-3.07,3.09,3.09,0,0,1,4.73-.08l.07-.91h1.28v8.06a3.32,3.32,0,0,1-.95,2.52,3.47,3.47,0,0,1-2.55.92,4.19,4.19,0,0,1-1.75-.38,3,3,0,0,1-1.3-1l.73-.85a2.76,2.76,0,0,0,2.22,1.12,2.16,2.16,0,0,0,1.61-.58,2.22,2.22,0,0,0,.57-1.63v-.71a2.89,2.89,0,0,1-2.31,1,2.82,2.82,0,0,1-2.34-1.17A5.09,5.09,0,0,1,414.08,160.75Zm1.42.16a3.7,3.7,0,0,0,.57,2.19,1.87,1.87,0,0,0,1.6.8,2.07,2.07,0,0,0,2-1.21v-3.77a2.09,2.09,0,0,0-1.94-1.19,1.87,1.87,0,0,0-1.61.81A4,4,0,0,0,415.5,160.91Z"/><path d="M431.86,162.75a1,1,0,0,0-.43-.88,4,4,0,0,0-1.51-.55,7.21,7.21,0,0,1-1.7-.55,2.42,2.42,0,0,1-.93-.76A1.86,1.86,0,0,1,427,159a2.15,2.15,0,0,1,.86-1.71,3.33,3.33,0,0,1,2.19-.7,3.46,3.46,0,0,1,2.28.72,2.3,2.3,0,0,1,.87,1.85h-1.42a1.26,1.26,0,0,0-.49-1,1.84,1.84,0,0,0-1.24-.42,1.94,1.94,0,0,0-1.2.33,1.08,1.08,0,0,0-.44.88.86.86,0,0,0,.41.77,5,5,0,0,0,1.46.5,7.28,7.28,0,0,1,1.71.56,2.45,2.45,0,0,1,1,.79,1.94,1.94,0,0,1,.32,1.12,2.13,2.13,0,0,1-.89,1.78,3.73,3.73,0,0,1-2.29.67,4.25,4.25,0,0,1-1.76-.35,3,3,0,0,1-1.19-1,2.36,2.36,0,0,1-.43-1.37h1.41a1.43,1.43,0,0,0,.57,1.13,2.18,2.18,0,0,0,1.4.41,2.23,2.23,0,0,0,1.28-.32A1,1,0,0,0,431.86,162.75Z"/><path d="M438.53,165.1A3.59,3.59,0,0,1,435.8,164a4.07,4.07,0,0,1-1.05-2.94v-.26a4.9,4.9,0,0,1,.47-2.2,3.71,3.71,0,0,1,1.31-1.51,3.32,3.32,0,0,1,1.83-.54,3.07,3.07,0,0,1,2.5,1.06,4.55,4.55,0,0,1,.89,3v.59h-5.59a3,3,0,0,0,.71,2,2.26,2.26,0,0,0,1.74.75,2.51,2.51,0,0,0,1.27-.3,3.13,3.13,0,0,0,.9-.81l.87.67A3.47,3.47,0,0,1,438.53,165.1Zm-.17-7.4a1.88,1.88,0,0,0-1.44.62,3,3,0,0,0-.71,1.74h4.13V160a2.65,2.65,0,0,0-.58-1.66A1.74,1.74,0,0,0,438.36,157.7Z"/><path d="M448.19,162.75a1,1,0,0,0-.43-.88,4,4,0,0,0-1.5-.55,7.06,7.06,0,0,1-1.7-.55,2.42,2.42,0,0,1-.93-.76,1.79,1.79,0,0,1-.31-1.06,2.15,2.15,0,0,1,.86-1.71,3.35,3.35,0,0,1,2.2-.7,3.45,3.45,0,0,1,2.27.72,2.28,2.28,0,0,1,.88,1.85h-1.42a1.29,1.29,0,0,0-.49-1,1.86,1.86,0,0,0-1.24-.42,2,2,0,0,0-1.21.33,1.07,1.07,0,0,0-.43.88.85.85,0,0,0,.4.77,5.16,5.16,0,0,0,1.46.5,7.13,7.13,0,0,1,1.71.56,2.57,2.57,0,0,1,1,.79,1.94,1.94,0,0,1,.31,1.12,2.12,2.12,0,0,1-.88,1.78,3.76,3.76,0,0,1-2.3.67,4.2,4.2,0,0,1-1.75-.35,3,3,0,0,1-1.2-1,2.44,2.44,0,0,1-.43-1.37h1.41a1.49,1.49,0,0,0,.57,1.13,2.18,2.18,0,0,0,1.4.41,2.26,2.26,0,0,0,1.29-.32A1,1,0,0,0,448.19,162.75Z"/><path d="M456.25,162.75a1,1,0,0,0-.43-.88,4,4,0,0,0-1.51-.55,7.21,7.21,0,0,1-1.7-.55,2.42,2.42,0,0,1-.93-.76,1.86,1.86,0,0,1-.3-1.06,2.15,2.15,0,0,1,.86-1.71,3.33,3.33,0,0,1,2.19-.7,3.46,3.46,0,0,1,2.28.72,2.3,2.3,0,0,1,.87,1.85h-1.42a1.26,1.26,0,0,0-.49-1,1.84,1.84,0,0,0-1.24-.42,1.94,1.94,0,0,0-1.2.33,1.08,1.08,0,0,0-.44.88.86.86,0,0,0,.41.77,5,5,0,0,0,1.46.5,7.28,7.28,0,0,1,1.71.56,2.45,2.45,0,0,1,1,.79,1.94,1.94,0,0,1,.32,1.12,2.13,2.13,0,0,1-.89,1.78,3.73,3.73,0,0,1-2.29.67,4.25,4.25,0,0,1-1.76-.35,3,3,0,0,1-1.19-1,2.36,2.36,0,0,1-.43-1.37h1.41a1.43,1.43,0,0,0,.57,1.13,2.18,2.18,0,0,0,1.4.41,2.23,2.23,0,0,0,1.28-.32A1,1,0,0,0,456.25,162.75Z"/><path d="M459.51,154.5a.84.84,0,0,1,.21-.58.77.77,0,0,1,.62-.24.78.78,0,0,1,.62.24.81.81,0,0,1,.22.58.77.77,0,0,1-.22.57.81.81,0,0,1-.62.23.76.76,0,0,1-.83-.8ZM461,164.94h-1.41v-8.25H461Z"/><path d="M462.92,160.74a5,5,0,0,1,.47-2.18,3.54,3.54,0,0,1,1.33-1.5,3.64,3.64,0,0,1,1.94-.52,3.49,3.49,0,0,1,2.73,1.16,4.53,4.53,0,0,1,1,3.11v.1a4.89,4.89,0,0,1-.46,2.16,3.49,3.49,0,0,1-1.32,1.49,3.62,3.62,0,0,1-2,.54,3.46,3.46,0,0,1-2.72-1.17,4.45,4.45,0,0,1-1-3.09Zm1.42.17a3.55,3.55,0,0,0,.63,2.2,2.17,2.17,0,0,0,3.42,0,3.87,3.87,0,0,0,.63-2.36,3.51,3.51,0,0,0-.64-2.2,2.07,2.07,0,0,0-1.72-.84,2,2,0,0,0-1.68.83A3.81,3.81,0,0,0,464.34,160.91Z"/><path d="M473.54,156.69l0,1a3,3,0,0,1,2.47-1.19c1.75,0,2.63,1,2.64,3v5.45h-1.41v-5.46a1.88,1.88,0,0,0-.41-1.32,1.63,1.63,0,0,0-1.24-.43,2.09,2.09,0,0,0-1.21.37,2.54,2.54,0,0,0-.81,1v5.88H472.2v-8.25Z"/><path d="M485.63,162.75a1,1,0,0,0-.43-.88,4,4,0,0,0-1.51-.55,7.21,7.21,0,0,1-1.7-.55,2.42,2.42,0,0,1-.93-.76,1.86,1.86,0,0,1-.3-1.06,2.15,2.15,0,0,1,.86-1.71,3.33,3.33,0,0,1,2.19-.7,3.46,3.46,0,0,1,2.28.72,2.3,2.3,0,0,1,.87,1.85h-1.42a1.26,1.26,0,0,0-.49-1,1.84,1.84,0,0,0-1.24-.42,1.94,1.94,0,0,0-1.2.33,1.08,1.08,0,0,0-.44.88.86.86,0,0,0,.41.77,5,5,0,0,0,1.46.5,7.28,7.28,0,0,1,1.71.56,2.45,2.45,0,0,1,1,.79,1.94,1.94,0,0,1,.32,1.12,2.11,2.11,0,0,1-.89,1.78,3.73,3.73,0,0,1-2.29.67,4.25,4.25,0,0,1-1.76-.35,3,3,0,0,1-1.19-1,2.36,2.36,0,0,1-.43-1.37h1.41a1.46,1.46,0,0,0,.57,1.13,2.18,2.18,0,0,0,1.4.41,2.23,2.23,0,0,0,1.28-.32A1,1,0,0,0,485.63,162.75Z"/><path d="M492.37,160.74a4.82,4.82,0,0,1,.48-2.18,3.54,3.54,0,0,1,1.33-1.5,3.59,3.59,0,0,1,1.94-.52,3.52,3.52,0,0,1,2.73,1.16,4.53,4.53,0,0,1,1,3.11v.1a5,5,0,0,1-.46,2.16,3.49,3.49,0,0,1-1.32,1.49,3.65,3.65,0,0,1-2,.54,3.49,3.49,0,0,1-2.72-1.17,4.49,4.49,0,0,1-1-3.09Zm1.42.17a3.49,3.49,0,0,0,.64,2.2,2.16,2.16,0,0,0,3.41,0,3.87,3.87,0,0,0,.64-2.36,3.51,3.51,0,0,0-.65-2.2,2,2,0,0,0-1.71-.84,2,2,0,0,0-1.69.83A3.88,3.88,0,0,0,493.79,160.91Z"/><path d="M503,156.69l.05,1a3,3,0,0,1,2.47-1.19c1.75,0,2.62,1,2.64,3v5.45h-1.41v-5.46a1.93,1.93,0,0,0-.41-1.32,1.66,1.66,0,0,0-1.25-.43,2.06,2.06,0,0,0-1.2.37,2.37,2.37,0,0,0-.81,1v5.88h-1.41v-8.25Z"/><path d="M296.34,175.44l0,1a3,3,0,0,1,2.48-1.19c1.74,0,2.62,1,2.64,3v5.45h-1.42v-5.46a1.93,1.93,0,0,0-.4-1.32,1.67,1.67,0,0,0-1.25-.43,2.09,2.09,0,0,0-1.21.37,2.43,2.43,0,0,0-.8,1v5.88H295v-8.25Z"/><path d="M303.25,179.49a4.82,4.82,0,0,1,.48-2.18,3.54,3.54,0,0,1,1.33-1.5,3.59,3.59,0,0,1,1.94-.52,3.49,3.49,0,0,1,2.72,1.16,4.49,4.49,0,0,1,1,3.11v.1a4.89,4.89,0,0,1-.47,2.16,3.36,3.36,0,0,1-1.32,1.49,3.59,3.59,0,0,1-2,.54,3.48,3.48,0,0,1-2.72-1.17,4.49,4.49,0,0,1-1-3.09Zm1.42.17a3.49,3.49,0,0,0,.64,2.2,2.16,2.16,0,0,0,3.41,0,3.87,3.87,0,0,0,.63-2.36,3.51,3.51,0,0,0-.64-2.2,2,2,0,0,0-1.71-.84,2,2,0,0,0-1.69.83A3.81,3.81,0,0,0,304.67,179.66Z"/><path d="M313.87,175.44l.05,1a3,3,0,0,1,2.47-1.19c1.74,0,2.62,1,2.64,3v5.45h-1.41v-5.46a1.93,1.93,0,0,0-.41-1.32,1.66,1.66,0,0,0-1.25-.43,2,2,0,0,0-1.2.37,2.37,2.37,0,0,0-.81,1v5.88h-1.41v-8.25Z"/><path d="M324.09,179.55h-3.72V178.4h3.72Z"/><path d="M325.12,179.5a4.84,4.84,0,0,1,.9-3.06,3.08,3.08,0,0,1,4.66-.16V172h1.41v11.72h-1.3l-.07-.88a2.87,2.87,0,0,1-2.35,1,2.83,2.83,0,0,1-2.34-1.18,4.89,4.89,0,0,1-.91-3.07Zm1.42.16a3.61,3.61,0,0,0,.58,2.19,1.87,1.87,0,0,0,1.6.8,2.06,2.06,0,0,0,2-1.21v-3.79a2.07,2.07,0,0,0-1.95-1.17,1.87,1.87,0,0,0-1.61.8A4,4,0,0,0,326.54,179.66Z"/><path d="M334.29,173.25a.84.84,0,0,1,.21-.58.77.77,0,0,1,.62-.24.78.78,0,0,1,.62.24.81.81,0,0,1,.22.58.77.77,0,0,1-.22.57.81.81,0,0,1-.62.23.76.76,0,0,1-.83-.8Zm1.52,10.44H334.4v-8.25h1.41Z"/><path d="M342.88,181.5a1,1,0,0,0-.43-.88,4,4,0,0,0-1.51-.55,7.21,7.21,0,0,1-1.7-.55,2.42,2.42,0,0,1-.93-.76,1.86,1.86,0,0,1-.3-1.06,2.15,2.15,0,0,1,.86-1.71,3.33,3.33,0,0,1,2.19-.7,3.46,3.46,0,0,1,2.28.72,2.3,2.3,0,0,1,.87,1.85h-1.42a1.26,1.26,0,0,0-.49-1,1.84,1.84,0,0,0-1.24-.42,1.94,1.94,0,0,0-1.2.33,1.08,1.08,0,0,0-.44.88.86.86,0,0,0,.41.77,5,5,0,0,0,1.46.5,7.28,7.28,0,0,1,1.71.56,2.45,2.45,0,0,1,1,.79,1.94,1.94,0,0,1,.32,1.12,2.13,2.13,0,0,1-.89,1.78,3.73,3.73,0,0,1-2.29.67,4.25,4.25,0,0,1-1.76-.35,2.91,2.91,0,0,1-1.19-1,2.31,2.31,0,0,1-.43-1.36h1.41a1.43,1.43,0,0,0,.57,1.13,2.18,2.18,0,0,0,1.4.41,2.23,2.23,0,0,0,1.28-.32A1,1,0,0,0,342.88,181.5Z"/><path d="M349.44,182.69a2.07,2.07,0,0,0,1.32-.45,1.64,1.64,0,0,0,.62-1.15h1.34a2.62,2.62,0,0,1-.49,1.35,3.15,3.15,0,0,1-1.2,1,3.63,3.63,0,0,1-4.27-.74,4.46,4.46,0,0,1-1-3.08v-.23a5.07,5.07,0,0,1,.44-2.15,3.48,3.48,0,0,1,1.27-1.46,3.69,3.69,0,0,1,2-.51,3.28,3.28,0,0,1,2.31.83,3,3,0,0,1,1,2.16h-1.34a1.94,1.94,0,0,0-.6-1.32,1.92,1.92,0,0,0-1.35-.51,2,2,0,0,0-1.67.77,3.67,3.67,0,0,0-.59,2.24v.27a3.55,3.55,0,0,0,.59,2.19A2,2,0,0,0,349.44,182.69Z"/><path d="M358.3,176.71a3.88,3.88,0,0,0-.7-.06,1.87,1.87,0,0,0-1.88,1.18v5.86h-1.41v-8.25h1.37l0,.95a2.19,2.19,0,0,1,2-1.1,1.53,1.53,0,0,1,.63.1Z"/><path d="M359.6,173.25a.84.84,0,0,1,.21-.58.78.78,0,0,1,.62-.24.79.79,0,0,1,.63.24.84.84,0,0,1,.21.58.8.8,0,0,1-.21.57.82.82,0,0,1-.63.23.81.81,0,0,1-.62-.23A.8.8,0,0,1,359.6,173.25Zm1.53,10.44h-1.41v-8.25h1.41Z"/><path d="M364.71,175.44l0,.91a3.05,3.05,0,0,1,2.45-1.06,2.37,2.37,0,0,1,2.36,1.32,3,3,0,0,1,2.63-1.32c1.81,0,2.73,1,2.76,2.87v5.53h-1.41v-5.44a1.92,1.92,0,0,0-.41-1.33,1.78,1.78,0,0,0-1.35-.44,1.9,1.9,0,0,0-1.31.47,2,2,0,0,0-.6,1.27v5.47h-1.42v-5.41a1.57,1.57,0,0,0-1.76-1.8,1.89,1.89,0,0,0-1.9,1.19v6h-1.41v-8.25Z"/><path d="M377.09,173.25a.84.84,0,0,1,.21-.58.77.77,0,0,1,.62-.24.78.78,0,0,1,.62.24.81.81,0,0,1,.22.58.77.77,0,0,1-.22.57.81.81,0,0,1-.62.23.76.76,0,0,1-.83-.8Zm1.52,10.44H377.2v-8.25h1.41Z"/><path d="M382.21,175.44l0,1a3,3,0,0,1,2.47-1.19c1.75,0,2.63,1,2.64,3v5.45H386v-5.46a1.88,1.88,0,0,0-.41-1.32,1.63,1.63,0,0,0-1.24-.43,2.09,2.09,0,0,0-1.21.37,2.54,2.54,0,0,0-.81,1v5.88h-1.41v-8.25Z"/><path d="M394.59,183.69a2.92,2.92,0,0,1-.2-.87,3.13,3.13,0,0,1-2.35,1,2.91,2.91,0,0,1-2-.69,2.25,2.25,0,0,1-.78-1.76,2.33,2.33,0,0,1,1-2,4.64,4.64,0,0,1,2.75-.71h1.38V178a1.57,1.57,0,0,0-.45-1.18,1.78,1.78,0,0,0-1.3-.44,2.1,2.1,0,0,0-1.27.38,1.15,1.15,0,0,0-.51.93h-1.42a2,2,0,0,1,.44-1.2,3.07,3.07,0,0,1,1.19-.91,4.05,4.05,0,0,1,1.65-.33,3.26,3.26,0,0,1,2.24.71,2.56,2.56,0,0,1,.84,2v3.8a4.53,4.53,0,0,0,.29,1.81v.12Zm-2.34-1.07a2.43,2.43,0,0,0,1.25-.35,2,2,0,0,0,.87-.89v-1.69h-1.11c-1.73,0-2.59.5-2.59,1.52a1.26,1.26,0,0,0,.44,1A1.69,1.69,0,0,0,392.25,182.62Z"/><path d="M399.91,173.44v2h1.54v1.09h-1.54v5.13a1.13,1.13,0,0,0,.2.74.85.85,0,0,0,.7.25,3.35,3.35,0,0,0,.67-.09v1.13a3.77,3.77,0,0,1-1.08.16,1.72,1.72,0,0,1-1.42-.58,2.39,2.39,0,0,1-.49-1.62v-5.12H397v-1.09h1.5v-2Z"/><path d="M402.57,179.49a4.82,4.82,0,0,1,.48-2.18,3.52,3.52,0,0,1,1.32-1.5,3.64,3.64,0,0,1,1.94-.52,3.49,3.49,0,0,1,2.73,1.16,4.48,4.48,0,0,1,1,3.11v.1a4.89,4.89,0,0,1-.46,2.16,3.49,3.49,0,0,1-1.32,1.49,3.62,3.62,0,0,1-2,.54,3.46,3.46,0,0,1-2.72-1.17,4.49,4.49,0,0,1-1-3.09Zm1.42.17a3.55,3.55,0,0,0,.63,2.2,2.17,2.17,0,0,0,3.42,0,3.87,3.87,0,0,0,.63-2.36,3.51,3.51,0,0,0-.64-2.2,2.06,2.06,0,0,0-1.72-.84,2,2,0,0,0-1.68.83A3.81,3.81,0,0,0,404,179.66Z"/><path d="M415.84,176.71a3.69,3.69,0,0,0-.69-.06,1.85,1.85,0,0,0-1.88,1.18v5.86h-1.42v-8.25h1.38l0,.95a2.19,2.19,0,0,1,2-1.1,1.45,1.45,0,0,1,.62.1Z"/><path d="M420,181.63l1.92-6.19h1.51L420.09,185c-.51,1.37-1.33,2.06-2.45,2.06l-.26,0-.53-.09v-1.15l.38,0a1.91,1.91,0,0,0,1.12-.29,2.06,2.06,0,0,0,.66-1.06l.31-.84-2.94-8.16h1.54Z"/><path d="M437.3,183.69h-1.47v-5.13h-5.61v5.13h-1.46v-11.1h1.46v4.77h5.61v-4.77h1.47Z"/><path d="M441.47,183.69H440v-11.1h1.47Z"/><path d="M447.83,181.75l3.17-9.16h1.6l-4.12,11.1h-1.3l-4.11-11.1h1.6Z"/><path d="M454.15,184.65h-1.21l4.64-12.06h1.2Z"/><path d="M466.66,180.79H462l-1.05,2.9h-1.51l4.24-11.1H465l4.25,11.1h-1.51Zm-4.21-1.2h3.78l-1.89-5.2Z"/><path d="M472.29,183.69h-1.46v-11.1h1.46Z"/><path d="M475,183.69v-11.1h3.14a5,5,0,0,1,2.56.64,4.26,4.26,0,0,1,1.72,1.82,5.92,5.92,0,0,1,.61,2.72v.71a6,6,0,0,1-.6,2.75,4.26,4.26,0,0,1-1.73,1.81,5.3,5.3,0,0,1-2.62.65Zm1.47-9.91v8.72H478a3.35,3.35,0,0,0,2.63-1.06,4.33,4.33,0,0,0,.94-3v-.65a4.43,4.43,0,0,0-.88-2.94,3.19,3.19,0,0,0-2.53-1.07Z"/><path d="M488.49,178.74a6.77,6.77,0,0,1-2.74-1.33,2.53,2.53,0,0,1-.86-1.95,2.69,2.69,0,0,1,1.05-2.17,4.18,4.18,0,0,1,2.72-.86,4.51,4.51,0,0,1,2,.45,3.29,3.29,0,0,1,1.38,1.22,3.08,3.08,0,0,1,.5,1.7h-1.48a2,2,0,0,0-.64-1.59,2.57,2.57,0,0,0-1.81-.58,2.67,2.67,0,0,0-1.69.48,1.6,1.6,0,0,0-.6,1.32,1.42,1.42,0,0,0,.57,1.15,5.6,5.6,0,0,0,2,.86,9.11,9.11,0,0,1,2.17.86,3.33,3.33,0,0,1,1.16,1.1,2.82,2.82,0,0,1,.38,1.47,2.59,2.59,0,0,1-1.05,2.16,4.46,4.46,0,0,1-2.82.82,5.32,5.32,0,0,1-2.14-.44,3.64,3.64,0,0,1-1.52-1.2,2.94,2.94,0,0,1-.54-1.74H486a1.9,1.9,0,0,0,.74,1.59,3.14,3.14,0,0,0,2,.59,2.93,2.93,0,0,0,1.78-.47,1.56,1.56,0,0,0,.62-1.29,1.5,1.5,0,0,0-.58-1.27A6.75,6.75,0,0,0,488.49,178.74Z"/><path d="M314.68,198.41a4.89,4.89,0,0,1-.87,3,2.75,2.75,0,0,1-2.33,1.16,3,3,0,0,1-2.36-1v4H307.7V194.19H309l.07.91a2.91,2.91,0,0,1,2.4-1.06,2.81,2.81,0,0,1,2.35,1.12,5,5,0,0,1,.87,3.12Zm-1.41-.16a3.65,3.65,0,0,0-.6-2.21,1.92,1.92,0,0,0-1.63-.81,2.06,2.06,0,0,0-1.92,1.14v3.94a2.05,2.05,0,0,0,1.93,1.13,1.9,1.9,0,0,0,1.62-.8A4,4,0,0,0,313.27,198.25Z"/><path d="M316.1,198.24a4.82,4.82,0,0,1,.47-2.18,3.54,3.54,0,0,1,1.33-1.5,3.61,3.61,0,0,1,1.94-.52,3.47,3.47,0,0,1,2.73,1.16,4.53,4.53,0,0,1,1,3.11v.1a4.89,4.89,0,0,1-.46,2.16,3.49,3.49,0,0,1-1.32,1.49,3.62,3.62,0,0,1-2,.54,3.46,3.46,0,0,1-2.72-1.17,4.45,4.45,0,0,1-1-3.09Zm1.42.17a3.55,3.55,0,0,0,.63,2.2,2.17,2.17,0,0,0,3.42,0,3.87,3.87,0,0,0,.63-2.36,3.51,3.51,0,0,0-.65-2.2,2,2,0,0,0-1.71-.84,2,2,0,0,0-1.68.83A3.79,3.79,0,0,0,317.52,198.41Z"/><path d="M326.91,202.44H325.5V190.72h1.41Z"/><path d="M329.18,192a.84.84,0,0,1,.21-.58.78.78,0,0,1,.62-.24.81.81,0,0,1,.63.24.84.84,0,0,1,.21.58.8.8,0,0,1-.21.57.84.84,0,0,1-.63.23.81.81,0,0,1-.62-.23A.8.8,0,0,1,329.18,192Zm1.53,10.44h-1.42v-8.25h1.42Z"/><path d="M336.27,201.44a2,2,0,0,0,1.32-.45,1.62,1.62,0,0,0,.63-1.15h1.33a2.52,2.52,0,0,1-.48,1.35,3.15,3.15,0,0,1-1.2,1,3.47,3.47,0,0,1-1.6.39,3.42,3.42,0,0,1-2.68-1.13,4.51,4.51,0,0,1-1-3.08v-.23A5.07,5.07,0,0,1,333,196a3.48,3.48,0,0,1,1.27-1.46,3.64,3.64,0,0,1,2-.51,3.31,3.31,0,0,1,2.31.83,3,3,0,0,1,1,2.16h-1.33a1.91,1.91,0,0,0-.61-1.32,1.88,1.88,0,0,0-1.34-.51,2,2,0,0,0-1.67.77,3.67,3.67,0,0,0-.59,2.24v.27a3.48,3.48,0,0,0,.59,2.19A2,2,0,0,0,336.27,201.44Z"/><path d="M343.84,200.38l1.93-6.19h1.51L344,203.72c-.52,1.37-1.33,2.06-2.45,2.06l-.27,0-.52-.09v-1.15l.38,0a1.88,1.88,0,0,0,1.11-.29,2.06,2.06,0,0,0,.66-1.06l.32-.84-2.95-8.16h1.54Z"/><path d="M355.71,201.44A2,2,0,0,0,357,201a1.62,1.62,0,0,0,.63-1.15H359a2.52,2.52,0,0,1-.48,1.35,3.11,3.11,0,0,1-1.21,1,3.63,3.63,0,0,1-4.27-.74,4.51,4.51,0,0,1-1-3.08v-.23a5.07,5.07,0,0,1,.44-2.15,3.41,3.41,0,0,1,1.27-1.46,3.64,3.64,0,0,1,2-.51,3.27,3.27,0,0,1,2.3.83,2.93,2.93,0,0,1,1,2.16h-1.33a1.91,1.91,0,0,0-.61-1.32,1.88,1.88,0,0,0-1.34-.51A2,2,0,0,0,354,196a3.67,3.67,0,0,0-.59,2.24v.27a3.48,3.48,0,0,0,.59,2.19A2,2,0,0,0,355.71,201.44Z"/><path d="M360.21,198.24a4.82,4.82,0,0,1,.48-2.18,3.46,3.46,0,0,1,1.32-1.5A3.64,3.64,0,0,1,364,194a3.46,3.46,0,0,1,2.73,1.16,4.48,4.48,0,0,1,1,3.11v.1a4.89,4.89,0,0,1-.46,2.16,3.49,3.49,0,0,1-1.32,1.49,3.62,3.62,0,0,1-2,.54,3.46,3.46,0,0,1-2.72-1.17,4.49,4.49,0,0,1-1-3.09Zm1.42.17a3.55,3.55,0,0,0,.63,2.2,2.17,2.17,0,0,0,3.42,0,3.87,3.87,0,0,0,.63-2.36,3.51,3.51,0,0,0-.64-2.2,2.06,2.06,0,0,0-1.72-.84,2,2,0,0,0-1.68.83A3.79,3.79,0,0,0,361.63,198.41Z"/><path d="M372.1,200.53l2-6.34h1.44l-3,8.25h-1.08l-3-8.25H370Z"/><path d="M380.27,202.6a3.59,3.59,0,0,1-2.73-1.11,4.08,4.08,0,0,1-1.05-3v-.25a5,5,0,0,1,.47-2.2,3.65,3.65,0,0,1,1.31-1.51,3.32,3.32,0,0,1,1.83-.54,3.07,3.07,0,0,1,2.5,1.06,4.55,4.55,0,0,1,.89,3v.59H377.9a3,3,0,0,0,.71,2,2.26,2.26,0,0,0,1.74.75,2.51,2.51,0,0,0,1.27-.3,3.13,3.13,0,0,0,.9-.81l.87.67A3.49,3.49,0,0,1,380.27,202.6Zm-.17-7.4a1.88,1.88,0,0,0-1.44.62,3,3,0,0,0-.71,1.74h4.13v-.11a2.65,2.65,0,0,0-.58-1.66A1.74,1.74,0,0,0,380.1,195.2Z"/><path d="M389.11,195.45a4.86,4.86,0,0,0-.69,0,1.86,1.86,0,0,0-1.88,1.18v5.86h-1.42v-8.25h1.38l0,.95a2.19,2.19,0,0,1,2-1.1,1.45,1.45,0,0,1,.62.1Z"/><path d="M395.2,202.44a3.28,3.28,0,0,1-.2-.87,3.1,3.1,0,0,1-2.34,1,2.92,2.92,0,0,1-2-.69,2.26,2.26,0,0,1-.78-1.76,2.34,2.34,0,0,1,1-2,4.65,4.65,0,0,1,2.76-.71H395v-.65a1.57,1.57,0,0,0-.44-1.18,1.78,1.78,0,0,0-1.3-.44,2.08,2.08,0,0,0-1.27.38,1.15,1.15,0,0,0-.51.93H390a2,2,0,0,1,.44-1.2,3.07,3.07,0,0,1,1.19-.91,4.05,4.05,0,0,1,1.65-.33,3.21,3.21,0,0,1,2.23.71,2.56,2.56,0,0,1,.84,2v3.8a4.72,4.72,0,0,0,.29,1.81v.12Zm-2.34-1.07a2.5,2.5,0,0,0,1.26-.35,2,2,0,0,0,.86-.89v-1.69h-1.1c-1.73,0-2.6.5-2.6,1.52a1.29,1.29,0,0,0,.44,1A1.72,1.72,0,0,0,392.86,201.37Z"/><path d="M398.27,198.25a4.87,4.87,0,0,1,.89-3.07,3.09,3.09,0,0,1,4.73-.08l.06-.91h1.29v8.05a3.35,3.35,0,0,1-.95,2.53,3.47,3.47,0,0,1-2.55.92,4.19,4.19,0,0,1-1.75-.38,3,3,0,0,1-1.3-1l.73-.85a2.76,2.76,0,0,0,2.22,1.12,2.16,2.16,0,0,0,1.61-.58,2.23,2.23,0,0,0,.57-1.63v-.71a2.89,2.89,0,0,1-2.31,1,2.81,2.81,0,0,1-2.34-1.17A5.09,5.09,0,0,1,398.27,198.25Zm1.42.16a3.7,3.7,0,0,0,.57,2.19,1.87,1.87,0,0,0,1.6.8,2.06,2.06,0,0,0,2-1.22v-3.76a2.09,2.09,0,0,0-1.94-1.19,1.87,1.87,0,0,0-1.61.8A4,4,0,0,0,399.69,198.41Z"/><path d="M410.8,202.6a3.59,3.59,0,0,1-2.73-1.11,4,4,0,0,1-1.06-3v-.25a5,5,0,0,1,.47-2.2,3.72,3.72,0,0,1,1.31-1.51,3.37,3.37,0,0,1,1.83-.54,3.07,3.07,0,0,1,2.5,1.06,4.55,4.55,0,0,1,.9,3v.59h-5.6a3,3,0,0,0,.72,2,2.23,2.23,0,0,0,1.73.75,2.51,2.51,0,0,0,1.27-.3,3,3,0,0,0,.91-.81l.86.67A3.47,3.47,0,0,1,410.8,202.6Zm-.18-7.4a1.84,1.84,0,0,0-1.43.62,3,3,0,0,0-.72,1.74h4.14v-.11a2.71,2.71,0,0,0-.58-1.66A1.77,1.77,0,0,0,410.62,195.2Z"/><path d="M420.21,202.44v-7.16h-1.3v-1.09h1.3v-.85a2.82,2.82,0,0,1,.71-2.05,2.69,2.69,0,0,1,2-.73,4,4,0,0,1,1,.13l-.08,1.14a4.56,4.56,0,0,0-.76-.07,1.4,1.4,0,0,0-1.06.4,1.65,1.65,0,0,0-.38,1.16v.87h1.77v1.09h-1.77v7.16Z"/><path d="M424.57,198.24a4.82,4.82,0,0,1,.48-2.18,3.52,3.52,0,0,1,1.32-1.5,3.64,3.64,0,0,1,1.94-.52A3.46,3.46,0,0,1,431,195.2a4.48,4.48,0,0,1,1,3.11v.1a4.89,4.89,0,0,1-.46,2.16,3.49,3.49,0,0,1-1.32,1.49,3.62,3.62,0,0,1-2,.54,3.46,3.46,0,0,1-2.72-1.17,4.49,4.49,0,0,1-1-3.09Zm1.42.17a3.55,3.55,0,0,0,.63,2.2,2.17,2.17,0,0,0,3.42,0,3.87,3.87,0,0,0,.63-2.36A3.51,3.51,0,0,0,430,196a2.06,2.06,0,0,0-1.72-.84,2,2,0,0,0-1.68.83A3.79,3.79,0,0,0,426,198.41Z"/><path d="M437.84,195.45a4.86,4.86,0,0,0-.69,0,1.85,1.85,0,0,0-1.88,1.18v5.86h-1.42v-8.25h1.38l0,.95a2.19,2.19,0,0,1,2-1.1,1.45,1.45,0,0,1,.62.1Z"/><path d="M448.1,201.63a3,3,0,0,1-2.41,1,2.57,2.57,0,0,1-2-.77,3.3,3.3,0,0,1-.7-2.27v-5.37h1.41v5.33c0,1.25.51,1.88,1.52,1.88a2.12,2.12,0,0,0,2.16-1.21v-6h1.41v8.25h-1.35Z"/><path d="M453,194.19l0,1a3,3,0,0,1,2.47-1.19c1.75,0,2.63,1,2.64,3v5.45H456.7V197a1.88,1.88,0,0,0-.41-1.32,1.63,1.63,0,0,0-1.24-.43,2.09,2.09,0,0,0-1.21.37,2.54,2.54,0,0,0-.81,1v5.88h-1.41v-8.25Z"/><path d="M460.25,192a.84.84,0,0,1,.21-.58.78.78,0,0,1,.62-.24.79.79,0,0,1,.63.24.84.84,0,0,1,.21.58.8.8,0,0,1-.21.57.82.82,0,0,1-.63.23.81.81,0,0,1-.62-.23A.8.8,0,0,1,460.25,192Zm1.53,10.44h-1.42v-8.25h1.42Z"/><path d="M463.66,198.24a4.82,4.82,0,0,1,.48-2.18,3.59,3.59,0,0,1,1.32-1.5,3.65,3.65,0,0,1,2-.52,3.45,3.45,0,0,1,2.72,1.16,4.49,4.49,0,0,1,1.05,3.11v.1a4.89,4.89,0,0,1-.47,2.16,3.36,3.36,0,0,1-1.32,1.49,3.62,3.62,0,0,1-2,.54,3.48,3.48,0,0,1-2.72-1.17,4.49,4.49,0,0,1-1-3.09Zm1.42.17a3.49,3.49,0,0,0,.64,2.2,2.16,2.16,0,0,0,3.41,0,3.87,3.87,0,0,0,.63-2.36,3.51,3.51,0,0,0-.64-2.2,2,2,0,0,0-1.71-.84,2,2,0,0,0-1.69.83A3.79,3.79,0,0,0,465.08,198.41Z"/><path d="M474.28,194.19l.05,1A3,3,0,0,1,476.8,194c1.74,0,2.62,1,2.64,3v5.45H478V197a1.93,1.93,0,0,0-.41-1.32,1.66,1.66,0,0,0-1.25-.43,2,2,0,0,0-1.2.37,2.37,2.37,0,0,0-.81,1v5.88H473v-8.25Z"/><path d="M362.94,212.94l0,.91a3.05,3.05,0,0,1,2.45-1.06,2.36,2.36,0,0,1,2.36,1.32,3,3,0,0,1,2.63-1.32c1.81,0,2.73,1,2.76,2.87v5.53h-1.41v-5.44a1.91,1.91,0,0,0-.4-1.33A1.79,1.79,0,0,0,370,214a1.87,1.87,0,0,0-1.3.47,1.94,1.94,0,0,0-.61,1.26v5.48h-1.42v-5.41a1.57,1.57,0,0,0-1.76-1.8,1.9,1.9,0,0,0-1.9,1.19v6H361.6v-8.25Z"/><path d="M378.73,221.35a3.59,3.59,0,0,1-2.73-1.11,4,4,0,0,1-1.06-3V217a5,5,0,0,1,.47-2.19,3.72,3.72,0,0,1,1.31-1.51,3.37,3.37,0,0,1,1.83-.54,3.07,3.07,0,0,1,2.5,1.06,4.55,4.55,0,0,1,.9,3v.59h-5.6a3,3,0,0,0,.72,2,2.23,2.23,0,0,0,1.73.75,2.51,2.51,0,0,0,1.27-.3,3.18,3.18,0,0,0,.91-.81l.86.67A3.47,3.47,0,0,1,378.73,221.35Zm-.18-7.4a1.84,1.84,0,0,0-1.43.62,3,3,0,0,0-.72,1.74h4.14v-.11a2.71,2.71,0,0,0-.58-1.66A1.77,1.77,0,0,0,378.55,214Z"/><path d="M384.91,212.94l0,.91a3,3,0,0,1,2.44-1.06,2.35,2.35,0,0,1,2.36,1.32,3.3,3.3,0,0,1,1.07-1,3.21,3.21,0,0,1,1.56-.36c1.81,0,2.74,1,2.77,2.87v5.53h-1.42v-5.44a1.91,1.91,0,0,0-.4-1.33A1.79,1.79,0,0,0,392,214a1.87,1.87,0,0,0-1.3.47,1.94,1.94,0,0,0-.61,1.26v5.48h-1.41v-5.41a1.58,1.58,0,0,0-1.77-1.8,1.9,1.9,0,0,0-1.9,1.19v6h-1.41v-8.25Z"/><path d="M404.26,217.16a4.92,4.92,0,0,1-.87,3,2.79,2.79,0,0,1-2.33,1.15,2.88,2.88,0,0,1-2.42-1.11l-.07.95h-1.3V209.47h1.42v4.38a2.84,2.84,0,0,1,2.35-1.06,2.78,2.78,0,0,1,2.36,1.13,5,5,0,0,1,.86,3.11Zm-1.41-.16a3.75,3.75,0,0,0-.56-2.23,1.85,1.85,0,0,0-1.6-.79,2.07,2.07,0,0,0-2,1.3v3.57a2.12,2.12,0,0,0,2,1.3,1.84,1.84,0,0,0,1.58-.79A4.09,4.09,0,0,0,402.85,217Z"/><path d="M409.47,221.35a3.62,3.62,0,0,1-2.74-1.11,4.08,4.08,0,0,1-1.05-3V217a5,5,0,0,1,.47-2.19,3.65,3.65,0,0,1,1.31-1.51,3.34,3.34,0,0,1,1.83-.54,3.07,3.07,0,0,1,2.5,1.06,4.55,4.55,0,0,1,.9,3v.59h-5.6a2.91,2.91,0,0,0,.72,2,2.23,2.23,0,0,0,1.73.75,2.51,2.51,0,0,0,1.27-.3,3.32,3.32,0,0,0,.91-.81l.86.67A3.47,3.47,0,0,1,409.47,221.35Zm-.18-7.4a1.84,1.84,0,0,0-1.43.62,3,3,0,0,0-.72,1.74h4.13v-.11a2.65,2.65,0,0,0-.58-1.66A1.74,1.74,0,0,0,409.29,214Z"/><path d="M418.31,214.2a5,5,0,0,0-.7,0,1.87,1.87,0,0,0-1.88,1.18v5.86h-1.41v-8.25h1.37l0,.95a2.2,2.2,0,0,1,2-1.1,1.47,1.47,0,0,1,.63.1Z"/><path d="M424.41,219a1,1,0,0,0-.43-.89,4.17,4.17,0,0,0-1.5-.54,7.06,7.06,0,0,1-1.7-.55,2.42,2.42,0,0,1-.93-.76,1.79,1.79,0,0,1-.31-1.06,2.15,2.15,0,0,1,.86-1.71,3.35,3.35,0,0,1,2.2-.7,3.45,3.45,0,0,1,2.27.72,2.28,2.28,0,0,1,.88,1.85h-1.42a1.31,1.31,0,0,0-.49-1,1.91,1.91,0,0,0-1.24-.41,2,2,0,0,0-1.21.33,1.05,1.05,0,0,0-.43.88.85.85,0,0,0,.4.77,4.91,4.91,0,0,0,1.46.49,7.56,7.56,0,0,1,1.71.57,2.57,2.57,0,0,1,1,.79,1.94,1.94,0,0,1,.31,1.12,2.12,2.12,0,0,1-.88,1.78,3.76,3.76,0,0,1-2.3.67,4.05,4.05,0,0,1-1.75-.36,2.85,2.85,0,0,1-1.2-1,2.41,2.41,0,0,1-.43-1.36h1.41a1.49,1.49,0,0,0,.57,1.13,2.24,2.24,0,0,0,1.4.41,2.26,2.26,0,0,0,1.29-.32A1,1,0,0,0,424.41,219Z"/><rect class="cls-2" x="45.69" y="44.33" width="161.34" height="161.34" transform="translate(125.77 -52.74) rotate(45.12)"/><g class="cls-3"><path class="cls-4" d="M126.14,227.48,23.88,124.79,126.57,22.52,228.84,125.21ZM27,124.79l99.11,99.52,99.52-99.1L126.56,25.69Zm99.13,89.67L92,180.19l26.21-26.1L93,128.68l-18,17.95,11.86,11.91,4.93-4.91-6.95-7,8.17-8.12,15.47,15.53L87.12,175.25l-29.83-30L77.76,124.9,57.37,104.42l30-29.83,21.19,21.27L93,111.33l-8.13-8.16,7-6.94-4.91-4.94L75,103.15l17.95,18,25.41-25.31L92.27,69.67l34.27-34.13,34.13,34.27-26.2,26.1,25.3,25.41,18-17.95L165.94,91.46,161,96.37l6.95,7-8.16,8.12L144.32,95.93l21.27-21.18,29.84,30L175,125.1l20.39,20.48-30,29.83-21.19-21.27,15.54-15.47,8.13,8.16-7,6.94,4.92,4.94,11.91-11.86-18-18-25.41,25.31,26.11,26.21Zm-31-34.27,31,31.11,31.1-31-26.1-26.21,28.58-28.46,21.12,21.2-15.09,15-8.07-8.1,7-7-5-5-12.37,12.32,18,18.1,26.79-26.68-20.39-20.48,20.47-20.39L165.58,77.91l-18.1,18,12.32,12.37,5-5-6.94-7L166,88.29l15,15.08-21.21,21.12L131.3,95.91l26.21-26.1-31-31.11-31.1,31,26.1,26.21L93,124.35l-21.11-21.2,15.08-15L95,96.23l-7,7,5,5,12.36-12.32-18-18.1L60.54,104.43l20.39,20.48L60.45,145.29l26.68,26.8,18.1-18L92.92,141.69l-5,5,6.95,7-8.11,8.07-15-15.08L93,125.51l28.47,28.58Zm105.07-39.53L184.8,125.12l15.54-15.47,15.48,15.54ZM188,125.13l12.32,12.37,12.36-12.32-12.31-12.37ZM52.37,140.35,36.9,124.81l15.54-15.47,15.47,15.54ZM40.06,124.82l12.32,12.37,12.36-12.32L52.43,112.5Z"/><path class="cls-4" d="M126.19,203.9l-23.94-24.05,24-23.94,24,24Zm-20.78-24,20.79,20.87,20.87-20.79-20.78-20.87Z"/><path class="cls-4" d="M126.42,93.43,102.48,69.38l24-23.94,24,24Zm-20.78-24,20.79,20.87L147.3,69.48,126.52,48.61Z"/></g><path class="cls-4" d="M114.12,135.17h-7.38v-3.29a15.21,15.21,0,0,0,9.31-13.51,5.62,5.62,0,0,0,3.21-9.7c.21-1,.2-3-.32-7.45-1.07-9-9.94-9.93-10-9.94H93.41c-6.36,0-8.59-2.52-8.61-2.54l-1.7-2.11v21.6a5.63,5.63,0,0,0,2.68,10.14,15.23,15.23,0,0,0,9.32,13.51v3.29H87.72a10.92,10.92,0,0,0-10.91,10.91v14H125v-14A10.92,10.92,0,0,0,114.12,135.17Zm1.94-26.09a3.74,3.74,0,0,1,0,7.36Zm1.41-1.58-.24-.07a5.26,5.26,0,0,0-.6-.15,3.16,3.16,0,0,0-.57-.15v-3.52h0v-.08l-.55-.21L115,103a7.66,7.66,0,0,1-1.22-.82l-.17-.14a4.09,4.09,0,0,1-.7-.74,6.21,6.21,0,0,1-.82-1.53s-.07-.19-.22-.61l-.78-2.12-1,2c-1.64,3.39-5.16,4.78-9,5.18l-.72.07h-.16A48,48,0,0,1,87,102.69l-1.21-.39v4.85a6.17,6.17,0,0,0-.77.17v-16a16.22,16.22,0,0,0,8.4,1.91h15.4a9.23,9.23,0,0,1,8.23,8.26A43,43,0,0,1,117.47,107.5Zm-29.78,1.32v-3.95A46.6,46.6,0,0,0,97,106.32c5.19.24,9.25-.78,12-2.92.2-.15.39-.3.56-.45l.27-.24a8.6,8.6,0,0,0,1-1.13,8.89,8.89,0,0,0,.55.86,5.88,5.88,0,0,0,1,1.09l.17.14c.14.11.31.2.46.31a9.09,9.09,0,0,0,1.16.8v13.13a13.23,13.23,0,0,1-26.46,0Zm-1.91.46v7.16a3.72,3.72,0,0,1-1.29-6.85ZM97,132.52a14.69,14.69,0,0,0,7.82,0v2.65H97Zm-9.66,9.56,3.59-4.62,1.45,5.12Zm22.1.5,1.45-5.12,3.59,4.62Zm-3.29,11.64,2.69-9.54,3.61,3.88Zm2.51-17.14a9.37,9.37,0,0,1-15.51,0Zm-19.3,11.48L93,144.68l2.69,9.54Zm-10.65,9.61V146.08a9,9,0,0,1,9-9h1.09l-5.09,6.56,7,.69-4,4.35,10.58,9.49Zm22-15.06h.35a10.67,10.67,0,0,0,6.9-2.4l-4.94,17.46H98.78l-4.93-17.46A10.66,10.66,0,0,0,100.74,143.11Zm14.44,5.57-4-4.35,7-.69L113,137.08h1.09a9,9,0,0,1,9,9v12.09H104.6Z"/><path class="cls-4" d="M99.52,116.17h2.8a5,5,0,1,0,0-1.91h-2.8a5,5,0,1,0,0,1.91Zm-8.06-1a3.12,3.12,0,1,1,3.12,3.12A3.12,3.12,0,0,1,91.46,115.21Zm12.68,0a3.12,3.12,0,1,1,3.12,3.12A3.12,3.12,0,0,1,104.14,115.21Z"/><path class="cls-4" d="M101.32,126.54a.75.75,0,0,1-.14.4.37.37,0,0,1-.26.08c-.26,0-.4-.2-.4-.6v-2H98.61v2a2.84,2.84,0,0,0,.72,1.89,2.16,2.16,0,0,0,1.59.63,2.24,2.24,0,0,0,1.62-.64,2.66,2.66,0,0,0,.69-1.76v-2.09h-1.91Z"/><path class="cls-4" d="M165,135.17h-7.39v-3.3a15.29,15.29,0,0,0,4.59-3,6.27,6.27,0,0,0,3.39,1.73,6.05,6.05,0,0,0,1.33.14c1.53,0,4.24-.59,5.17-4.57a4.86,4.86,0,0,0-.6-3.89,8.53,8.53,0,0,0-4.64-3.12c0-.26.07-.52.08-.78a5.62,5.62,0,0,0,1.56-10.76v0h0l.93-7.42v-.1a13,13,0,0,0-13-13h-8.68a13,13,0,0,0-13,13l.31,7.48h0v0a5.62,5.62,0,0,0,1.56,10.76c0,.14,0,.27,0,.41a6,6,0,0,0-3.31,1.15c-1,.68-4.25,3.23-1.46,7.73A4.91,4.91,0,0,0,135.1,130a5.91,5.91,0,0,0,1.21.12,10.08,10.08,0,0,0,4.81-1.5,15.27,15.27,0,0,0,4.86,3.26v3.3h-7.39a10.93,10.93,0,0,0-10.91,10.91v14h48.23v-14A10.93,10.93,0,0,0,165,135.17Zm-29.49-7a3,3,0,0,1-2-1.47c-1.66-2.68-.42-4.28.94-5.16a4.23,4.23,0,0,1,2.42-.8,15.06,15.06,0,0,0,2.92,6.45A6.87,6.87,0,0,1,135.51,128.12Zm1.14-19v7.36a3.74,3.74,0,0,1,0-7.36Zm33.23,14.22a3,3,0,0,1,.35,2.42c-.72,3.08-2.73,3.33-4.31,3a4.35,4.35,0,0,1-2.41-1.26,15.1,15.1,0,0,0,3.07-6.38A6.36,6.36,0,0,1,169.88,123.3Zm-31.32-14.76v-3.79l.11-.06a10.35,10.35,0,0,0,1.52-1l.17-.14a6.6,6.6,0,0,0,1-1.09c.2-.28.38-.57.55-.86,2.56,3.4,7.32,5,13.83,4.74a46.73,46.73,0,0,0,9.26-1.45v13a13.24,13.24,0,0,1-26.47,0Zm-1.86-8.49A11.08,11.08,0,0,1,147.77,89h8.68a11.1,11.1,0,0,1,11.08,11l-.59,4.68V102.3l-1.24.39c-.19.06-18.58,5.66-23.06-3.6l-1-2-.77,2.13c-.17.46-.22.59-.24.62a6.42,6.42,0,0,1-.8,1.51,4.15,4.15,0,0,1-.71.74l-.16.14a7.66,7.66,0,0,1-1.22.82l-.92.5Zm19,35.12h-7.81v-2.66a14.39,14.39,0,0,0,7.81,0v2.66Zm11.24-18.73v-7.36a3.74,3.74,0,0,1,0,7.36Zm-28.72,25.64,3.6-4.62,1.45,5.12Zm22.1.5,1.45-5.12,3.6,4.62ZM157,154.22l2.7-9.54,3.61,3.88Zm-5.23-13a9.46,9.46,0,0,1-7.76-4.11h15.51A9.43,9.43,0,0,1,151.8,141.19Zm-11.55,7.37,3.61-3.88,2.7,9.54Zm-10.66,9.61V146.08a9,9,0,0,1,9-9h1.1l-5.09,6.56,7,.69-4,4.35,10.58,9.49Zm22-15.06H152a10.69,10.69,0,0,0,6.9-2.4l-4.94,17.46h-4.27l-4.94-17.46A10.67,10.67,0,0,0,151.62,143.11Zm14.44,5.57-4-4.35,7-.69-5.09-6.56H165a9,9,0,0,1,9,9v12.09H155.48Z"/><path class="cls-4" d="M150.39,116.17h2.81a5,5,0,1,0,0-1.91h-2.81a5,5,0,1,0,0,1.91Zm-1.81-1a3.13,3.13,0,1,1-3.12-3.12A3.12,3.12,0,0,1,148.58,115.21Zm6.43,0a3.12,3.12,0,1,1,3.12,3.12A3.12,3.12,0,0,1,155,115.21Z"/><path class="cls-4" d="M152.19,126.42c0,.27-.07.6-.39.6a.44.44,0,0,1-.27-.07.78.78,0,0,1-.13-.41v-2.1h-1.91v2.09a2.62,2.62,0,0,0,.68,1.76,2.25,2.25,0,0,0,1.63.64,2.2,2.2,0,0,0,1.59-.63,2.81,2.81,0,0,0,.71-1.89v-2h-1.91Z"/><path class="cls-2" d="M326.66,36.14a3.55,3.55,0,0,1,.58,2,3.8,3.8,0,0,1-.77,2.36,5,5,0,0,1-2.17,1.57,9.73,9.73,0,0,1-6.45,0,4.8,4.8,0,0,1-2.14-1.57,3.8,3.8,0,0,1-.77-2.36,3.62,3.62,0,0,1,.58-2,4.14,4.14,0,0,1,1.63-1.42,3.59,3.59,0,0,1-1.25-1.26,3.43,3.43,0,0,1-.43-1.74,3.58,3.58,0,0,1,.7-2.21,4.64,4.64,0,0,1,2-1.44,7.8,7.8,0,0,1,2.92-.51,8,8,0,0,1,2.95.51,4.61,4.61,0,0,1,2,1.44,3.58,3.58,0,0,1,.71,2.21,3.43,3.43,0,0,1-.44,1.74A3.49,3.49,0,0,1,325,34.72,4.13,4.13,0,0,1,326.66,36.14Zm-3.58,3.45a1.87,1.87,0,0,0,.74-1.53,1.84,1.84,0,0,0-.74-1.53,3.26,3.26,0,0,0-2-.56,3.21,3.21,0,0,0-2,.56,2,2,0,0,0,0,3.07,3.8,3.8,0,0,0,4,0Zm-3.64-9.07a1.64,1.64,0,0,0-.62,1.35,1.59,1.59,0,0,0,.6,1.31,2.61,2.61,0,0,0,1.65.48,2.69,2.69,0,0,0,1.67-.48,1.58,1.58,0,0,0,.62-1.31,1.64,1.64,0,0,0-.62-1.35,2.69,2.69,0,0,0-1.67-.49A2.55,2.55,0,0,0,319.44,30.52Z"/><path class="cls-2" d="M331.8,41.74a5.91,5.91,0,0,1-2.22-2.59,9.47,9.47,0,0,1-.8-4,9.55,9.55,0,0,1,.8-4.06,6,6,0,0,1,2.22-2.59,6.31,6.31,0,0,1,6.46,0A6.1,6.1,0,0,1,340.48,31a9.55,9.55,0,0,1,.8,4.06,9.47,9.47,0,0,1-.8,4,6,6,0,0,1-2.22,2.59,6.25,6.25,0,0,1-6.46,0Zm5.32-3.1a6.51,6.51,0,0,0,.76-3.54,6.46,6.46,0,0,0-.76-3.54,2.47,2.47,0,0,0-4.17,0,6.55,6.55,0,0,0-.76,3.54,6.6,6.6,0,0,0,.76,3.54,2.48,2.48,0,0,0,4.17,0Z"/><path class="cls-2" d="M345.94,41.74a6,6,0,0,1-2.21-2.59,9.32,9.32,0,0,1-.81-4,9.39,9.39,0,0,1,.81-4.06,6,6,0,0,1,2.21-2.59A6,6,0,0,1,354.62,31a9.4,9.4,0,0,1,.8,4.06,9.32,9.32,0,0,1-.8,4,6.08,6.08,0,0,1-8.68,2.59Zm5.33-3.1A6.6,6.6,0,0,0,352,35.1a6.55,6.55,0,0,0-.76-3.54,2.39,2.39,0,0,0-2.1-1.15,2.36,2.36,0,0,0-2.07,1.15,6.46,6.46,0,0,0-.76,3.54,6.51,6.51,0,0,0,.76,3.54,2.37,2.37,0,0,0,2.07,1.14A2.4,2.4,0,0,0,351.27,38.64Z"/><path class="cls-2" d="M367.26,30.51v3.86H374v2.71h-6.75v5.31h-3.38V27.81h11v2.7Z"/><path class="cls-2" d="M388.48,39.68v2.71H377.19V27.81h11v2.7h-7.66v3.17h6.77v2.63h-6.77v3.37Z"/><path class="cls-2" d="M404.44,42.39l0-8.75-4.29,7.21h-1.52l-4.27-7v8.56h-3.17V27.81H394l5.46,9.06,5.38-9.06h2.77l0,14.58Z"/><path class="cls-2" d="M420.67,39.26H413.9l-1.29,3.13h-3.46l6.5-14.58H419l6.52,14.58H422Zm-1.06-2.56-2.31-5.58L415,36.7Z"/><path class="cls-2" d="M427,27.81h3.37V39.64h7.31v2.75H427Z"/><path class="cls-2" d="M450.9,39.68v2.71H439.61V27.81h11v2.7H443v3.17h6.77v2.63H443v3.37Z"/><path class="cls-2" d="M470.69,42.64,468.94,41a8.15,8.15,0,0,1-7.73,1.12,4.67,4.67,0,0,1-2-1.43,3.25,3.25,0,0,1-.72-2.06,4,4,0,0,1,.76-2.39,7.81,7.81,0,0,1,2.45-2,5.66,5.66,0,0,1-1.14-1.55,3.44,3.44,0,0,1-.36-1.53,3.22,3.22,0,0,1,.56-1.87,3.56,3.56,0,0,1,1.6-1.26,5.91,5.91,0,0,1,2.38-.45,4.76,4.76,0,0,1,3,.9A3,3,0,0,1,468.94,31a3.18,3.18,0,0,1-.68,2,6.67,6.67,0,0,1-2.17,1.69l2.66,2.48a9.6,9.6,0,0,0,.73-2.27l2.61.81A9.54,9.54,0,0,1,470.75,39l1.71,1.59ZM467,39.24,463.5,36a4.57,4.57,0,0,0-1.39,1.11,1.94,1.94,0,0,0-.42,1.22,1.55,1.55,0,0,0,.71,1.32,3.23,3.23,0,0,0,1.89.5A4.59,4.59,0,0,0,467,39.24Zm-3.42-9a1.21,1.21,0,0,0-.43,1,1.59,1.59,0,0,0,.23.82,5.55,5.55,0,0,0,.89,1,5.5,5.5,0,0,0,1.48-1,1.39,1.39,0,0,0,.42-1,1.1,1.1,0,0,0-.37-.87,1.57,1.57,0,0,0-1.07-.33A1.67,1.67,0,0,0,463.6,30.2Z"/><path class="cls-2" d="M288.81,64.64v2.75h-11V65.2l5.63-5.31a5.88,5.88,0,0,0,1.2-1.47,2.68,2.68,0,0,0,.32-1.22,1.6,1.6,0,0,0-.6-1.34,2.7,2.7,0,0,0-1.74-.47,4.06,4.06,0,0,0-1.73.36,3.4,3.4,0,0,0-1.29,1.1l-2.46-1.59a5.85,5.85,0,0,1,2.36-2,7.84,7.84,0,0,1,3.44-.72,7,7,0,0,1,2.84.54,4.4,4.4,0,0,1,1.9,1.5,3.86,3.86,0,0,1,.67,2.28,5,5,0,0,1-.5,2.23,8.58,8.58,0,0,1-1.94,2.37l-3.35,3.17Z"/><path class="cls-2" d="M293.19,66.74A5.91,5.91,0,0,1,291,64.15,10.56,10.56,0,0,1,291,56a6,6,0,0,1,2.22-2.59,6.23,6.23,0,0,1,6.45,0A6,6,0,0,1,301.86,56a10.56,10.56,0,0,1,0,8.11,6.06,6.06,0,0,1-8.67,2.59Zm5.32-3.1a6.51,6.51,0,0,0,.76-3.54,6.53,6.53,0,0,0-.76-3.55,2.48,2.48,0,0,0-4.17,0,6.62,6.62,0,0,0-.76,3.55,6.6,6.6,0,0,0,.76,3.54,2.48,2.48,0,0,0,4.17,0Z"/><path class="cls-2" d="M307.33,66.74a6,6,0,0,1-2.22-2.59,10.68,10.68,0,0,1,0-8.11,6.1,6.1,0,0,1,2.22-2.59,6.25,6.25,0,0,1,6.46,0A6.1,6.1,0,0,1,316,56a10.68,10.68,0,0,1,0,8.11,6,6,0,0,1-2.22,2.59,6.25,6.25,0,0,1-6.46,0Zm5.32-3.1a6.51,6.51,0,0,0,.76-3.54,6.53,6.53,0,0,0-.76-3.55,2.47,2.47,0,0,0-4.16,0,6.53,6.53,0,0,0-.76,3.55,6.51,6.51,0,0,0,.76,3.54,2.47,2.47,0,0,0,4.16,0Z"/><path class="cls-2" d="M338.54,67.39l0-8.75-4.29,7.21H332.7l-4.27-7v8.56h-3.16V52.81h2.79l5.46,9.06,5.37-9.06h2.77l0,14.58Z"/><path class="cls-2" d="M354.77,64.26H348l-1.29,3.13h-3.46l6.5-14.58h3.33l6.52,14.58h-3.54ZM353.7,61.7l-2.31-5.58-2.31,5.58Z"/><path class="cls-2" d="M361.12,52.81h3.38V64.64h7.31v2.75H361.12Z"/><path class="cls-2" d="M385,64.68v2.71H373.7V52.81h11v2.7h-7.66v3.17h6.77V61.3h-6.77v3.38Z"/><path class="cls-2" d="M406.85,67.39l0-8.75-4.29,7.21H401l-4.28-7v8.56h-3.16V52.81h2.79l5.46,9.06,5.37-9.06H410l0,14.58Z"/><path class="cls-2" d="M424.76,64.68v2.71H413.47V52.81h11v2.7h-7.66v3.17h6.77V61.3h-6.77v3.38Z"/><path class="cls-2" d="M440.72,67.39l0-8.75-4.29,7.21h-1.52l-4.27-7v8.56h-3.17V52.81h2.79l5.46,9.06,5.38-9.06h2.77l0,14.58Z"/><path class="cls-2" d="M460,61.13a3.61,3.61,0,0,1,.71,2.28,3.38,3.38,0,0,1-1.49,3,7.66,7.66,0,0,1-4.34,1h-7.54V52.81h7.12a7,7,0,0,1,4.1,1A3.22,3.22,0,0,1,460,56.6a3.54,3.54,0,0,1-.51,1.89,3.46,3.46,0,0,1-1.42,1.31A3.86,3.86,0,0,1,460,61.13Zm-9.31-5.78v3.43h3.36a3.39,3.39,0,0,0,1.89-.43,1.49,1.49,0,0,0,.65-1.3,1.45,1.45,0,0,0-.65-1.28,3.48,3.48,0,0,0-1.89-.42Zm5.95,9.06a1.5,1.5,0,0,0,.68-1.36c0-1.2-.9-1.81-2.69-1.81H450.7v3.61h3.94A3.75,3.75,0,0,0,456.65,64.41Z"/><path class="cls-2" d="M474.58,64.68v2.71h-11.3V52.81h11v2.7h-7.66v3.17h6.77V61.3h-6.77v3.38Z"/><path class="cls-2" d="M486.55,67.39l-2.81-4.06h-3.1v4.06h-3.38V52.81h6.32a8.09,8.09,0,0,1,3.36.64,5,5,0,0,1,2.2,1.83,5.11,5.11,0,0,1,.77,2.82,4.74,4.74,0,0,1-3,4.6l3.27,4.69Zm-.85-11.18a3.53,3.53,0,0,0-2.31-.66h-2.75v5.09h2.75A3.48,3.48,0,0,0,485.7,60a2.63,2.63,0,0,0,0-3.76Z"/><path class="cls-2" d="M494,67.17A7.81,7.81,0,0,1,491.43,66l1.15-2.54a7.43,7.43,0,0,0,2.22,1.1,8.4,8.4,0,0,0,2.59.42,4,4,0,0,0,2.12-.43,1.28,1.28,0,0,0,.69-1.13,1.07,1.07,0,0,0-.41-.87,3,3,0,0,0-1-.55c-.42-.14-1-.29-1.72-.46a24,24,0,0,1-2.73-.79,4.49,4.49,0,0,1-1.82-1.27,3.41,3.41,0,0,1-.76-2.33,4.07,4.07,0,0,1,.69-2.31,4.67,4.67,0,0,1,2.07-1.63,8.53,8.53,0,0,1,3.39-.61,11.34,11.34,0,0,1,2.73.34,7.92,7.92,0,0,1,2.33,1l-1,2.56a8.2,8.2,0,0,0-4-1.15,3.84,3.84,0,0,0-2.1.46,1.4,1.4,0,0,0-.67,1.21,1.17,1.17,0,0,0,.78,1.11,11.3,11.3,0,0,0,2.38.72,26.25,26.25,0,0,1,2.73.79,4.61,4.61,0,0,1,1.82,1.25,3.36,3.36,0,0,1,.76,2.32,4,4,0,0,1-.69,2.28,4.69,4.69,0,0,1-2.1,1.63,8.39,8.39,0,0,1-3.39.61A12,12,0,0,1,494,67.17Z"/><path class="cls-2" d="M250.26,91.66A7.22,7.22,0,0,1,247.4,89a7.44,7.44,0,0,1,2.86-10.43,9,9,0,0,1,8.18,0,7.48,7.48,0,0,1,2.85,2.7,7.45,7.45,0,0,1-2.85,10.43,9,9,0,0,1-8.18,0Zm6.43-2.49a4.26,4.26,0,0,0,1.63-1.66,5.16,5.16,0,0,0,0-4.83A4.26,4.26,0,0,0,256.69,81a4.73,4.73,0,0,0-2.34-.59A4.66,4.66,0,0,0,252,81a4.29,4.29,0,0,0-1.64,1.66,5.24,5.24,0,0,0,0,4.83A4.29,4.29,0,0,0,252,89.17a4.66,4.66,0,0,0,2.33.59A4.73,4.73,0,0,0,256.69,89.17Z"/><path class="cls-2" d="M268.25,80.51v3.86H275v2.71h-6.75v5.31h-3.38V77.8h11v2.71Z"/><path class="cls-2" d="M287.1,80.55h-4.66V77.8h12.7v2.75h-4.66V92.39H287.1Z"/><path class="cls-2" d="M310.33,77.8V92.39H307v-6h-6.62v6H297V77.8h3.37v5.75H307V77.8Z"/><path class="cls-2" d="M323.08,92.39l-2.81-4.06h-3.11v4.06h-3.37V77.8h6.31a8.17,8.17,0,0,1,3.37.65,5,5,0,0,1,2.19,1.83,5,5,0,0,1,.77,2.82,4.74,4.74,0,0,1-3,4.6l3.28,4.69Zm-.85-11.18a3.55,3.55,0,0,0-2.32-.66h-2.75v5.09h2.75a3.49,3.49,0,0,0,2.32-.67,2.63,2.63,0,0,0,0-3.76Z"/><path class="cls-2" d="M340.39,89.68v2.71H329.1V77.8h11v2.71h-7.67v3.17h6.78V86.3h-6.78v3.38Z"/><path class="cls-2" d="M354.37,89.68v2.71H343.08V77.8h11v2.71h-7.67v3.17h6.77V86.3h-6.77v3.38Z"/><path class="cls-2" d="M365.92,91.66A7.27,7.27,0,0,1,362,85.1a7.27,7.27,0,0,1,3.88-6.57,9,9,0,0,1,8.18,0,7.41,7.41,0,0,1,2.85,2.7,7.45,7.45,0,0,1-2.85,10.43,9,9,0,0,1-8.18,0Zm6.43-2.49A4.26,4.26,0,0,0,374,87.51a5.16,5.16,0,0,0,0-4.83A4.26,4.26,0,0,0,372.35,81a4.92,4.92,0,0,0-4.67,0,4.26,4.26,0,0,0-1.63,1.66,5.16,5.16,0,0,0,0,4.83,4.26,4.26,0,0,0,1.63,1.66,4.92,4.92,0,0,0,4.67,0Z"/><path class="cls-2" d="M383.91,80.51v3.86h6.75v2.71h-6.75v5.31h-3.37V77.8h11v2.71Z"/><path class="cls-2" d="M399.74,77.8h3.38V92.39h-3.38Z"/><path class="cls-2" d="M420,77.8V92.39h-2.77l-7.27-8.86v8.86h-3.33V77.8h2.79l7.25,8.86V77.8Z"/><path class="cls-2" d="M423.41,77.8H430a9.33,9.33,0,0,1,4.19.91,6.83,6.83,0,0,1,2.84,2.55,7.79,7.79,0,0,1,0,7.67,6.76,6.76,0,0,1-2.84,2.55,9.2,9.2,0,0,1-4.19.91h-6.63Zm6.46,11.82a4.91,4.91,0,0,0,3.49-1.22,4.85,4.85,0,0,0,0-6.61,4.91,4.91,0,0,0-3.49-1.21h-3.08v9Z"/><path class="cls-2" d="M443.59,91.66a7.22,7.22,0,0,1-2.86-2.7,7.44,7.44,0,0,1,2.86-10.43,9,9,0,0,1,8.17,0,7.51,7.51,0,0,1,2.86,2.7,7.44,7.44,0,0,1-2.86,10.43,9,9,0,0,1-8.17,0ZM450,89.17a4.29,4.29,0,0,0,1.64-1.66,5.24,5.24,0,0,0,0-4.83A4.29,4.29,0,0,0,450,81a4.9,4.9,0,0,0-4.66,0,4.29,4.29,0,0,0-1.64,1.66,5.24,5.24,0,0,0,0,4.83,4.29,4.29,0,0,0,1.64,1.66,4.9,4.9,0,0,0,4.66,0Z"/><path class="cls-2" d="M471.58,77.8V92.39H468.8l-7.27-8.86v8.86H458.2V77.8H461l7.25,8.86V77.8Z"/><path class="cls-2" d="M486.33,89.68v2.71H475V77.8h11v2.71h-7.66v3.17h6.77V86.3h-6.77v3.38Z"/><path class="cls-2" d="M490.46,92.17A7.71,7.71,0,0,1,487.87,91L489,88.41a7.61,7.61,0,0,0,2.23,1.1,8.29,8.29,0,0,0,2.58.42A4.09,4.09,0,0,0,496,89.5a1.28,1.28,0,0,0,.69-1.13,1.1,1.1,0,0,0-.41-.87,3.1,3.1,0,0,0-1-.55c-.42-.14-1-.29-1.72-.46a24,24,0,0,1-2.73-.79,4.43,4.43,0,0,1-1.82-1.27,3.41,3.41,0,0,1-.76-2.33,4.07,4.07,0,0,1,.69-2.31,4.56,4.56,0,0,1,2.07-1.63,8.47,8.47,0,0,1,3.38-.61,11.34,11.34,0,0,1,2.73.34,8,8,0,0,1,2.34,1l-1,2.56a8.1,8.1,0,0,0-4.05-1.15,3.83,3.83,0,0,0-2.09.46,1.41,1.41,0,0,0-.68,1.21,1.17,1.17,0,0,0,.78,1.11,11.43,11.43,0,0,0,2.39.72,26.25,26.25,0,0,1,2.73.79,4.68,4.68,0,0,1,1.82,1.25,3.34,3.34,0,0,1,.76,2.32,4,4,0,0,1-.7,2.28A4.61,4.61,0,0,1,497.2,92a8.4,8.4,0,0,1-3.4.61A12,12,0,0,1,490.46,92.17Z"/><path class="cls-2" d="M502.3,77.8h3.38V92.39H502.3Z"/><path class="cls-2" d="M518.74,89.26H512l-1.29,3.13h-3.46l6.5-14.59h3.33l6.52,14.59H520Zm-1.06-2.56-2.31-5.58-2.32,5.58Z"/><path class="cls-2" d="M526.8,77.31a1.94,1.94,0,0,1,.56,1.45,3.44,3.44,0,0,1-.1.84,10.36,10.36,0,0,1-.44,1.25l-1.2,3h-2.07l.9-3.3a1.75,1.75,0,0,1-.81-.68,2,2,0,0,1-.3-1.11,2,2,0,0,1,.58-1.45,2,2,0,0,1,1.45-.55A2,2,0,0,1,526.8,77.31Z"/><path class="cls-2" d="M531.46,92.17A7.71,7.71,0,0,1,528.87,91L530,88.41a7.61,7.61,0,0,0,2.23,1.1,8.29,8.29,0,0,0,2.58.42A4.09,4.09,0,0,0,537,89.5a1.28,1.28,0,0,0,.69-1.13,1.1,1.1,0,0,0-.41-.87,3.1,3.1,0,0,0-1-.55c-.43-.14-1-.29-1.72-.46a24,24,0,0,1-2.73-.79,4.36,4.36,0,0,1-1.82-1.27,3.41,3.41,0,0,1-.76-2.33,4.14,4.14,0,0,1,.68-2.31,4.64,4.64,0,0,1,2.08-1.63,8.47,8.47,0,0,1,3.38-.61,11.34,11.34,0,0,1,2.73.34,7.81,7.81,0,0,1,2.33,1l-1,2.56a8,8,0,0,0-4-1.15,3.83,3.83,0,0,0-2.09.46,1.41,1.41,0,0,0-.68,1.21,1.17,1.17,0,0,0,.78,1.11,11.43,11.43,0,0,0,2.39.72,26.25,26.25,0,0,1,2.73.79,4.75,4.75,0,0,1,1.82,1.25,3.34,3.34,0,0,1,.76,2.32,4,4,0,0,1-.7,2.28A4.61,4.61,0,0,1,538.2,92a8.4,8.4,0,0,1-3.4.61A12,12,0,0,1,531.46,92.17Z"/><path class="cls-2" d="M254.91,102.8h3.37v11.84h7.31v2.75H254.91Z"/><path class="cls-2" d="M277.22,114.26h-6.77l-1.3,3.13H265.7l6.5-14.59h3.33l6.52,14.59h-3.54Zm-1.07-2.56-2.31-5.58-2.31,5.58Z"/><path class="cls-2" d="M292.86,117.39l-2.81-4.07H287v4.07h-3.38V102.8h6.31a8.14,8.14,0,0,1,3.37.65,5,5,0,0,1,2.2,1.83,5.11,5.11,0,0,1,.77,2.82,4.9,4.9,0,0,1-.79,2.8,5,5,0,0,1-2.21,1.8l3.27,4.69ZM292,106.21a3.53,3.53,0,0,0-2.31-.66H287v5.09h2.75A3.48,3.48,0,0,0,292,110a2.63,2.63,0,0,0,0-3.76Z"/><path class="cls-2" d="M308.74,109.87h3.08v5.91a8.77,8.77,0,0,1-2.75,1.38,10.66,10.66,0,0,1-3.15.48,8.6,8.6,0,0,1-4.08-1A7.15,7.15,0,0,1,299,114a7.84,7.84,0,0,1,0-7.77,7.14,7.14,0,0,1,2.86-2.69,8.77,8.77,0,0,1,4.13-1,9.1,9.1,0,0,1,3.48.65,6.9,6.9,0,0,1,2.62,1.88l-2.17,2a5,5,0,0,0-3.77-1.65,5.16,5.16,0,0,0-2.48.58,4.17,4.17,0,0,0-1.68,1.65,4.78,4.78,0,0,0-.61,2.44,4.72,4.72,0,0,0,.61,2.41,4.3,4.3,0,0,0,1.67,1.66,5,5,0,0,0,2.45.59,5.58,5.58,0,0,0,2.63-.62Z"/><path class="cls-2" d="M326.24,114.68v2.71h-11.3V102.8h11v2.71H318.3v3.17h6.77v2.62H318.3v3.38Z"/><path class="cls-2" d="M330.37,117.17a7.81,7.81,0,0,1-2.59-1.22l1.14-2.54a7.87,7.87,0,0,0,2.23,1.1,8.35,8.35,0,0,0,2.59.42,4.07,4.07,0,0,0,2.12-.43,1.28,1.28,0,0,0,.69-1.13,1.1,1.1,0,0,0-.41-.87,3.1,3.1,0,0,0-1-.55c-.42-.14-1-.29-1.72-.46a24,24,0,0,1-2.73-.79,4.43,4.43,0,0,1-1.82-1.27,3.41,3.41,0,0,1-.76-2.33,4.07,4.07,0,0,1,.69-2.31,4.67,4.67,0,0,1,2.07-1.63,8.49,8.49,0,0,1,3.39-.61,11.2,11.2,0,0,1,2.72.34,8,8,0,0,1,2.34,1l-1,2.56a8.1,8.1,0,0,0-4.05-1.15,3.83,3.83,0,0,0-2.09.46,1.41,1.41,0,0,0-.68,1.21,1.17,1.17,0,0,0,.79,1.11,11.3,11.3,0,0,0,2.38.72,26.25,26.25,0,0,1,2.73.79,4.51,4.51,0,0,1,1.82,1.25,3.34,3.34,0,0,1,.76,2.32,4,4,0,0,1-.69,2.28,4.69,4.69,0,0,1-2.1,1.63,8.39,8.39,0,0,1-3.39.61A12,12,0,0,1,330.37,117.17Z"/><path class="cls-2" d="M345,105.55h-4.67V102.8h12.71v2.75H348.4v11.84H345Z"/><path class="cls-2" d="M363.8,105.55h-4.67V102.8h12.71v2.75h-4.67v11.84H363.8Z"/><path class="cls-2" d="M382.94,117.39l-2.81-4.07H377v4.07h-3.38V102.8H380a8.14,8.14,0,0,1,3.37.65,5,5,0,0,1,2.2,1.83,5.11,5.11,0,0,1,.77,2.82,4.9,4.9,0,0,1-.79,2.8,5,5,0,0,1-2.21,1.8l3.27,4.69Zm-.85-11.18a3.53,3.53,0,0,0-2.31-.66H377v5.09h2.75a3.48,3.48,0,0,0,2.31-.67,2.63,2.63,0,0,0,0-3.76Z"/><path class="cls-2" d="M398.57,114.26H391.8l-1.29,3.13h-3.46l6.5-14.59h3.33l6.52,14.59h-3.54Zm-1.07-2.56-2.31-5.58-2.31,5.58Z"/><path class="cls-2" d="M404.92,102.8h6.63a9.33,9.33,0,0,1,4.19.91,6.83,6.83,0,0,1,2.84,2.55,7.79,7.79,0,0,1,0,7.67,6.76,6.76,0,0,1-2.84,2.55,9.2,9.2,0,0,1-4.19.91h-6.63Zm6.46,11.82a4.91,4.91,0,0,0,3.49-1.22,4.85,4.85,0,0,0,0-6.61,4.91,4.91,0,0,0-3.49-1.21H408.3v9Z"/><path class="cls-2" d="M433.42,114.68v2.71H422.13V102.8h11v2.71h-7.67v3.17h6.77v2.62h-6.77v3.38Z"/><path class="cls-2" d="M443.62,115.91a6.66,6.66,0,0,1-1.74-4.94V102.8h3.37v8c0,2.61,1.09,3.91,3.25,3.91a3,3,0,0,0,2.42-1,4.43,4.43,0,0,0,.83-3v-8h3.34V111a6.9,6.9,0,0,1-11.47,4.94Z"/><path class="cls-2" d="M471.79,102.8v14.59H469l-7.27-8.86v8.86h-3.33V102.8h2.79l7.25,8.86V102.8Z"/><path class="cls-2" d="M475.25,102.8h3.38v14.59h-3.38Z"/><path class="cls-2" d="M485.05,116.66a7.27,7.27,0,0,1-3.88-6.56,7.27,7.27,0,0,1,3.88-6.57,9,9,0,0,1,8.18,0,7.51,7.51,0,0,1,2.86,2.7,7.44,7.44,0,0,1-2.86,10.43,9,9,0,0,1-8.18,0Zm6.43-2.49a4.29,4.29,0,0,0,1.64-1.66,5.24,5.24,0,0,0,0-4.83,4.29,4.29,0,0,0-1.64-1.66,4.66,4.66,0,0,0-2.33-.59,4.73,4.73,0,0,0-2.34.59,4.33,4.33,0,0,0-1.63,1.66,5.24,5.24,0,0,0,0,4.83,4.33,4.33,0,0,0,1.63,1.66,4.73,4.73,0,0,0,2.34.59A4.66,4.66,0,0,0,491.48,114.17Z"/><path class="cls-2" d="M513,102.8v14.59h-2.77L503,108.53v8.86h-3.33V102.8h2.79l7.25,8.86V102.8Z"/><path class="cls-2" d="M518,117.17a7.71,7.71,0,0,1-2.59-1.22l1.14-2.54a7.87,7.87,0,0,0,2.23,1.1,8.29,8.29,0,0,0,2.58.42,4.09,4.09,0,0,0,2.13-.43,1.28,1.28,0,0,0,.69-1.13,1.1,1.1,0,0,0-.41-.87,3.1,3.1,0,0,0-1-.55c-.42-.14-1-.29-1.72-.46a24,24,0,0,1-2.73-.79,4.36,4.36,0,0,1-1.82-1.27,3.41,3.41,0,0,1-.76-2.33,4.07,4.07,0,0,1,.69-2.31,4.56,4.56,0,0,1,2.07-1.63,8.47,8.47,0,0,1,3.38-.61,11.34,11.34,0,0,1,2.73.34,8,8,0,0,1,2.34,1l-1.05,2.56a8,8,0,0,0-4-1.15,3.83,3.83,0,0,0-2.09.46,1.41,1.41,0,0,0-.68,1.21,1.17,1.17,0,0,0,.78,1.11,11.43,11.43,0,0,0,2.39.72,26.25,26.25,0,0,1,2.73.79,4.57,4.57,0,0,1,1.82,1.25,3.34,3.34,0,0,1,.76,2.32,4,4,0,0,1-.7,2.28,4.61,4.61,0,0,1-2.09,1.63,8.4,8.4,0,0,1-3.4.61A12,12,0,0,1,518,117.17Z"/></svg>